OFF
30 42 70
0.25311628144700077 -1.5981133053749164 0.43119850192973086
-0.73457205914813706 -1.4416788403346854 0.43119850192973053
-1.4416788403346847 -0.73457205914813772 0.4311985019297303
-1.5981133053749155 0.25311628144700021 0.4311985019297303
-1.1441228056353687 1.1441228056353683 0.43119850192973053
-0.25311628144700077 1.5981133053749155 0.43119850192973086
0.73457205914813706 1.4416788403346847 0.43119850192973119
1.4416788403346845 0.73457205914813695 0.43119850192973141
1.5981133053749155 -0.2531162814470011 0.43119850192973141
1.1441228056353689 -1.1441228056353692 0.43119850192973119
-0.25311628144700032 -1.5981133053749164 -0.43119850192972781
-1.1441228056353683 -1.1441228056353694 -0.43119850192972814
-1.598113305374915 -0.25311628144700121 -0.43119850192972825
-1.4416788403346843 0.73457205914813661 -0.43119850192972814
-0.73457205914813661 1.4416788403346843 -0.43119850192972781
0.25311628144700121 1.5981133053749155 -0.43119850192972747
1.1441228056353689 1.1441228056353687 -0.43119850192972714
1.5981133053749161 0.25311628144700055 -0.43119850192972703
1.4416788403346852 -0.73457205914813728 -0.43119850192972714
0.73457205914813795 -1.4416788403346852 -0.43119850192972747
0.75793542004777614 -0.38618738558759241 0.95692961404886367
-0.13307110414059162 -0.84017788532713944 0.95692961404886256
-0.84017788532713911 -0.13307110414059178 0.95692961404886123
-0.38618738558759219 0.75793542004777636 0.95692961404886157
0.60150095500754519 0.60150095500754552 0.95692961404886301
-0.38618738558759169 -0.75793542004777703 -0.95692961404886201
0.60150095500754652 -0.60150095500754586 -0.95692961404886157
0.75793542004777714 0.38618738558759214 -0.95692961404886134
-0.13307110414059115 0.84017788532713933 -0.95692961404886179
-0.840177885327139 0.1330711041405914 -0.95692961404886223
3 0 1 10 0.90196 0.45098 0.00000
3 1 2 11 0.90196 0.45098 0.00000
3 2 3 12 0.90196 0.45098 0.00000
3 3 4 13 0.90196 0.45098 0.00000
3 4 5 14 0.90196 0.45098 0.00000
3 5 6 15 0.90196 0.45098 0.00000
3 6 7 16 0.90196 0.45098 0.00000
3 7 8 17 0.90196 0.45098 0.00000
3 8 9 18 0.90196 0.45098 0.00000
3 9 0 19 0.90196 0.45098 0.00000
3 11 10 1 0.90196 0.45098 0.00000
3 12 11 2 0.90196 0.45098 0.00000
3 13 12 3 0.90196 0.45098 0.00000
3 14 13 4 0.90196 0.45098 0.00000
3 15 14 5 0.90196 0.45098 0.00000
3 16 15 6 0.90196 0.45098 0.00000
3 17 16 7 0.90196 0.45098 0.00000
3 18 17 8 0.90196 0.45098 0.00000
3 19 18 9 0.90196 0.45098 0.00000
3 10 19 0 0.90196 0.45098 0.00000
5 24 23 22 21 20 0.38824 0.60000 0.30196
4 9 20 21 0 0.05098 0.32157 0.50196
3 0 21 1 0.90196 0.45098 0.00000
4 1 21 22 2 0.05098 0.32157 0.50196
3 2 22 3 0.90196 0.45098 0.00000
4 3 22 23 4 0.05098 0.32157 0.50196
3 4 23 5 0.90196 0.45098 0.00000
4 5 23 24 6 0.05098 0.32157 0.50196
3 6 24 7 0.90196 0.45098 0.00000
4 7 24 20 8 0.05098 0.32157 0.50196
3 8 20 9 0.90196 0.45098 0.00000
5 29 28 27 26 25 0.38824 0.60000 0.30196
4 10 25 26 19 0.05098 0.32157 0.50196
3 19 26 18 0.90196 0.45098 0.00000
4 18 26 27 17 0.05098 0.32157 0.50196
3 17 27 16 0.90196 0.45098 0.00000
4 16 27 28 15 0.05098 0.32157 0.50196
3 15 28 14 0.90196 0.45098 0.00000
4 14 28 29 13 0.05098 0.32157 0.50196
3 13 29 12 0.90196 0.45098 0.00000
4 12 29 25 11 0.05098 0.32157 0.50196
3 11 25 10 0.90196 0.45098 0.00000
