OFF
7 8 13
-0.49999999999999983 -0.49999999999999972 0.28867513459481248
-0.4999999999999995 4.5271725257252145e-16 -0.57735026918962606
-0.49999999999999961 0.50000000000000056 0.2886751345948127
0.50000000000000011 -0.49999999999999994 0.28867513459481259
0.50000000000000044 3.3822550315805218e-16 -0.57735026918962584
0.50000000000000033 0.50000000000000033 0.28867513459481281
-2.8463690994722431e-16 4.5098252909654465e-16 0.99578191578136066
3 2 1 0 0.90196 0.45098 0.00000
3 3 4 5 0.90196 0.45098 0.00000
4 0 1 4 3 0.05098 0.32157 0.50196
4 1 2 5 4 0.05098 0.32157 0.50196
3 5 2 6 0.90196 0.45098 0.00000
3 3 5 6 0.90196 0.45098 0.00000
3 0 3 6 0.90196 0.45098 0.00000
3 2 0 6 0.90196 0.45098 0.00000
