OFF
9 14 21
0.57735026918962562 -2.5213046275329627e-16 0.50000000000000022
-0.28867513459481337 -0.49999999999999961 0.49999999999999989
-0.28867513459481292 0.50000000000000033 0.5
0.57735026918962606 -1.9661931152203844e-16 -0.49999999999999972
-0.28867513459481292 -0.49999999999999961 -0.50000000000000011
-0.28867513459481259 0.50000000000000033 -0.50000000000000011
0.49789095789068072 0.86237243569579491 5.9584707848002344e-16
-0.99578191578136055 1.0198255318734573e-15 -3.1212606111096664e-16
0.49789095789067966 -0.86237243569579447 -7.7128788914680388e-17
3 2 1 0 0.90196 0.45098 0.00000
3 3 4 5 0.90196 0.45098 0.00000
3 5 2 6 0.90196 0.45098 0.00000
3 3 5 6 0.90196 0.45098 0.00000
3 0 3 6 0.90196 0.45098 0.00000
3 2 0 6 0.90196 0.45098 0.00000
3 4 1 7 0.90196 0.45098 0.00000
3 5 4 7 0.90196 0.45098 0.00000
3 2 5 7 0.90196 0.45098 0.00000
3 1 2 7 0.90196 0.45098 0.00000
3 3 0 8 0.90196 0.45098 0.00000
3 4 3 8 0.90196 0.45098 0.00000
3 1 4 8 0.90196 0.45098 0.00000
3 0 1 8 0.90196 0.45098 0.00000
