OFF
12 13 23
-0.49999999999999956 -0.80901699437494756 0.26286555605956635
-0.49999999999999917 -0.50000000000000022 -0.68819096023558712
-0.4999999999999995 0.49999999999999944 -0.68819096023558735
-0.5 0.8090169943749469 0.26286555605956619
-0.50000000000000011 -1.7521990043458326e-16 0.85065080835203943
0.50000000000000022 -0.80901699437494712 0.2628655560595668
0.50000000000000056 -0.49999999999999978 -0.68819096023558668
0.50000000000000033 0.49999999999999989 -0.6881909602355869
0.49999999999999972 0.80901699437494734 0.26286555605956663
0.49999999999999972 2.6886930941547936e-16 0.85065080835203988
7.7304014469965354e-17 1.327007009151431 -0.4311707143124206
6.4707032309980193e-16 -1.327007009151431 -0.4311707143124211
5 4 3 2 1 0 0.38824 0.60000 0.30196
5 5 6 7 8 9 0.38824 0.60000 0.30196
4 1 2 7 6 0.05098 0.32157 0.50196
4 3 4 9 8 0.05098 0.32157 0.50196
4 4 0 5 9 0.05098 0.32157 0.50196
3 7 2 10 0.90196 0.45098 0.00000
3 8 7 10 0.90196 0.45098 0.00000
3 3 8 10 0.90196 0.45098 0.00000
3 2 3 10 0.90196 0.45098 0.00000
3 5 0 11 0.90196 0.45098 0.00000
3 6 5 11 0.90196 0.45098 0.00000
3 1 6 11 0.90196 0.45098 0.00000
3 0 1 11 0.90196 0.45098 0.00000
