OFF
14 14 26
0.86602540378443904 -0.49999999999999972 0.50000000000000067
2.4870896853392764e-16 -1 0.50000000000000067
-0.8660254037844386 -0.50000000000000022 0.5
-0.86602540378443915 0.50000000000000011 0.49999999999999928
-7.504917536287132e-16 1.0000000000000004 0.49999999999999933
0.86602540378443837 0.50000000000000111 0.5
0.86602540378443948 -0.50000000000000044 -0.49999999999999928
6.927981783839903e-16 -1.0000000000000004 -0.49999999999999933
-0.86602540378443815 -0.50000000000000089 -0.5
-0.86602540378443871 0.4999999999999995 -0.50000000000000067
-3.0640254377865063e-16 0.99999999999999978 -0.50000000000000067
0.86602540378443882 0.50000000000000044 -0.5
1.5731321849709863 1.0533639895360132e-15 5.0184766909580988e-16
-1.5731321849709865 -7.2299284986423696e-16 -4.7458097890983252e-16
6 5 4 3 2 1 0 1.00000 0.79216 0.50196
6 6 7 8 9 10 11 1.00000 0.79216 0.50196
4 0 1 7 6 0.05098 0.32157 0.50196
4 1 2 8 7 0.05098 0.32157 0.50196
4 3 4 10 9 0.05098 0.32157 0.50196
4 4 5 11 10 0.05098 0.32157 0.50196
3 11 5 12 0.90196 0.45098 0.00000
3 6 11 12 0.90196 0.45098 0.00000
3 0 6 12 0.90196 0.45098 0.00000
3 5 0 12 0.90196 0.45098 0.00000
3 8 2 13 0.90196 0.45098 0.00000
3 9 8 13 0.90196 0.45098 0.00000
3 3 9 13 0.90196 0.45098 0.00000
3 2 3 13 0.90196 0.45098 0.00000
