OFF
23 24 45
0.46708617948135844 0.80901699437494712 1.0444364486709838
1.0444364486709838 0.80901699437494667 -0.46708617948135728
0.46708617948135778 -0.80901699437494756 1.0444364486709843
1.0444364486709834 -0.80901699437494801 -0.46708617948135706
-1.044436448670983 0.80901699437494778 0.4670861794813585
-0.46708617948135733 0.80901699437494734 -1.044436448670983
-1.0444364486709834 -0.8090169943749469 0.46708617948135872
-0.467086179481358 -0.80901699437494734 -1.0444364486709825
-0.17841104488654413 1.3090169943749472 0.46708617948135828
0.17841104488654563 1.3090169943749468 -0.46708617948135717
-0.17841104488654513 -1.3090169943749472 0.46708617948135861
0.17841104488654463 -1.3090169943749477 -0.46708617948135683
3.5867025318163244e-16 2.0605398685325873e-18 1.4012585384440739
0.93417235896271555 -6.5192482318277585e-16 -1.044436448670983
-0.93417235896271511 3.6982191677561557e-16 1.0444364486709843
1.3662564825660114e-16 -2.8416344627569284e-16 -1.4012585384440726
1.2228474935575289 0.49999999999999922 0.46708617948135828
1.2228474935575284 -0.50000000000000044 0.46708617948135839
-1.222847493557528 0.50000000000000022 -0.46708617948135694
-1.2228474935575284 -0.49999999999999956 -0.46708617948135683
0.80507291408913473 -1.394427190999916 0.30751048976012618
0.80507291408913584 1.3944271909999153 0.30751048976012574
-1.6101458281782703 9.3883345663980426e-16 0.30751048976012624
5 1 13 15 5 9 0.38824 0.60000 0.30196
5 5 18 4 8 9 0.38824 0.60000 0.30196
5 6 10 2 12 14 0.38824 0.60000 0.30196
5 10 6 19 7 11 0.38824 0.60000 0.30196
5 11 7 15 13 3 0.38824 0.60000 0.30196
5 12 0 8 4 14 0.38824 0.60000 0.30196
5 15 7 19 18 5 0.38824 0.60000 0.30196
5 16 17 3 13 1 0.38824 0.60000 0.30196
5 17 16 0 12 2 0.38824 0.60000 0.30196
3 10 11 20 0.90196 0.45098 0.00000
3 2 10 20 0.90196 0.45098 0.00000
3 17 2 20 0.90196 0.45098 0.00000
3 3 17 20 0.90196 0.45098 0.00000
3 11 3 20 0.90196 0.45098 0.00000
3 1 9 21 0.90196 0.45098 0.00000
3 16 1 21 0.90196 0.45098 0.00000
3 0 16 21 0.90196 0.45098 0.00000
3 8 0 21 0.90196 0.45098 0.00000
3 9 8 21 0.90196 0.45098 0.00000
3 14 4 22 0.90196 0.45098 0.00000
3 6 14 22 0.90196 0.45098 0.00000
3 19 6 22 0.90196 0.45098 0.00000
3 18 19 22 0.90196 0.45098 0.00000
3 4 18 22 0.90196 0.45098 0.00000
