OFF
70 52 120
0.50000000000000588 -1.5388417685876241 -2.4898982848827798
-0.49999999999999384 -1.5388417685876237 -2.4898982848827824
0.49999999999999584 1.5388417685876272 2.4898982848827824
-0.50000000000000389 1.5388417685876277 2.4898982848827798
2.9270509831248419 -0.42532540417601961 0.26286555605957318
-2.9270509831248419 -0.42532540417601661 0.26286555605955975
2.9270509831248437 0.42532540417602027 -0.26286555605956019
-2.9270509831248401 0.42532540417602327 -0.26286555605957362
-2.7390283187948889e-15 -2.7527638409423454 1.1135163644116062
-4.4598740069638815e-15 -2.2270327288232123 1.9641671727636461
6.4819369665518167e-15 2.2270327288232159 -1.9641671727636465
4.7610912783828241e-15 2.7527638409423489 -1.1135163644116066
1.3090169943749521 -1.8017073246471915 -1.9641671727636445
-1.3090169943749423 -1.8017073246471902 -1.9641671727636507
1.309016994374943 0.95105651629515398 2.4898982848827838
-1.3090169943749514 0.95105651629515531 2.4898982848827775
1.3090169943749537 -0.95105651629515153 -2.4898982848827775
-1.3090169943749408 -0.9510565162951502 -2.4898982848827838
1.3090169943749446 1.8017073246471937 1.9641671727636503
-1.3090169943749499 1.8017073246471951 1.9641671727636441
2.618033988749894 -1.3763819204711729 0.26286555605957235
-2.6180339887498949 -1.3763819204711703 0.26286555605956025
2.6180339887498922 -0.85065080835203977 1.1135163644116124
-2.6180339887498967 -0.8506508083520371 1.1135163644116004
2.6180339887498985 0.85065080835204088 -1.1135163644116008
-2.6180339887498905 0.85065080835204354 -1.1135163644116128
2.6180339887498967 1.3763819204711738 -0.26286555605956069
-2.6180339887498922 1.3763819204711765 -0.26286555605957279
0.499999999999999 -2.9152236890587986 0.26286555605956702
-0.50000000000000078 -2.9152236890587977 0.26286555605956469
0.4999999999999945 -1.5388417685876259 2.4898982848827815
-0.50000000000000522 -1.5388417685876254 2.4898982848827789
0.50000000000000722 1.538841768587629 -2.4898982848827789
-0.49999999999999251 1.5388417685876294 -2.4898982848827815
0.50000000000000278 2.9152236890588012 -0.26286555605956513
-0.499999999999997 2.9152236890588021 -0.26286555605956746
1.6180339887498973 -2.2270327288232119 -1.1135163644116042
-1.618033988749892 -2.2270327288232101 -1.1135163644116117
1.61803398874989 1.0185279597202549e-16 2.4898982848827842
-1.6180339887498993 1.7859577230997267e-15 2.4898982848827771
1.6180339887499016 1.878209635372276e-15 -2.4898982848827771
-1.6180339887498878 3.5623145624999768e-15 -2.4898982848827842
1.6180339887498942 2.2270327288232137 1.1135163644116113
-1.6180339887498951 2.2270327288232155 1.1135163644116037
2.1180339887498949 -2.0645728807067592 -0.26286555605956263
-2.118033988749894 -2.0645728807067574 -0.2628655560595724
2.1180339887498905 -0.68819096023558646 1.9641671727636514
-2.1180339887498985 -0.68819096023558424 1.9641671727636416
2.1180339887499002 0.68819096023558801 -1.9641671727636421
-2.1180339887498887 0.68819096023559023 -1.9641671727636518
2.1180339887498958 2.0645728807067609 0.26286555605957196
-2.1180339887498931 2.0645728807067627 0.26286555605956219
1.3090169943749479 -2.6523581329992325 -0.26286555605956485
-1.3090169943749466 -2.6523581329992307 -0.26286555605957085
1.3090169943749421 -0.95105651629515309 2.4898982848827838
-1.3090169943749523 -0.95105651629515175 2.4898982848827775
1.3090169943749546 0.95105651629515553 -2.4898982848827775
-1.3090169943749399 0.95105651629515686 -2.4898982848827838
1.3090169943749488 2.6523581329992343 0.2628655560595704
-1.3090169943749457 2.6523581329992361 0.26286555605956441
0.50000000000000833 0.68819096023558879 -3.0156293970019132
-0.49999999999999151 0.68819096023558923 -3.0156293970019159
-0.80901699437493946 -0.26286555605956313 -3.0156293970019172
7.4617468871772648e-15 -0.85065080835203721 -3.0156293970019163
0.809016994374955 -0.26286555605956469 -3.0156293970019137
-5.0104251113558181e-15 0.85065080835204054 3.0156293970019146
0.8090169943749419 0.26286555605956702 3.0156293970019163
0.49999999999999423 -0.68819096023558546 3.0156293970019159
-0.50000000000000544 -0.68819096023558546 3.0156293970019132
-0.80901699437495245 0.26286555605956746 3.0156293970019128
3 4 22 20 0.90196 0.45098 0.00000
3 5 21 23 0.90196 0.45098 0.00000
3 11 35 34 0.90196 0.45098 0.00000
3 16 12 0 0.90196 0.45098 0.00000
3 17 1 13 0.90196 0.45098 0.00000
3 18 2 14 0.90196 0.45098 0.00000
3 19 15 3 0.90196 0.45098 0.00000
3 24 26 6 0.90196 0.45098 0.00000
3 25 7 27 0.90196 0.45098 0.00000
3 29 28 8 0.90196 0.45098 0.00000
3 30 31 9 0.90196 0.45098 0.00000
3 32 33 10 0.90196 0.45098 0.00000
3 36 44 52 0.90196 0.45098 0.00000
3 37 53 45 0.90196 0.45098 0.00000
3 38 54 46 0.90196 0.45098 0.00000
3 39 47 55 0.90196 0.45098 0.00000
3 56 48 40 0.90196 0.45098 0.00000
3 57 41 49 0.90196 0.45098 0.00000
3 58 42 50 0.90196 0.45098 0.00000
3 59 51 43 0.90196 0.45098 0.00000
10 1 0 12 36 52 28 29 53 37 13 0.40392 0.10196 1.00000
10 10 11 34 58 50 26 24 48 56 32 0.40392 0.10196 1.00000
10 10 33 57 49 25 27 51 59 35 11 0.40392 0.10196 1.00000
10 22 46 54 30 9 8 28 52 44 20 0.40392 0.10196 1.00000
10 34 35 59 43 19 3 2 18 42 58 0.40392 0.10196 1.00000
10 41 17 13 37 45 21 5 7 25 49 0.40392 0.10196 1.00000
10 43 51 27 7 5 23 47 39 15 19 0.40392 0.10196 1.00000
10 48 24 6 4 20 44 36 12 16 40 0.40392 0.10196 1.00000
10 50 42 18 14 38 46 22 4 6 26 0.40392 0.10196 1.00000
10 53 29 8 9 31 55 47 23 21 45 0.40392 0.10196 1.00000
5 64 63 62 61 60 0.38824 0.60000 0.30196
4 32 60 61 33 0.05098 0.32157 0.50196
3 33 61 57 0.90196 0.45098 0.00000
4 57 61 62 41 0.05098 0.32157 0.50196
3 41 62 17 0.90196 0.45098 0.00000
4 17 62 63 1 0.05098 0.32157 0.50196
3 1 63 0 0.90196 0.45098 0.00000
4 0 63 64 16 0.05098 0.32157 0.50196
3 16 64 40 0.90196 0.45098 0.00000
4 40 64 60 56 0.05098 0.32157 0.50196
3 56 60 32 0.90196 0.45098 0.00000
5 69 68 67 66 65 0.38824 0.60000 0.30196
4 2 65 66 14 0.05098 0.32157 0.50196
3 14 66 38 0.90196 0.45098 0.00000
4 38 66 67 54 0.05098 0.32157 0.50196
3 54 67 30 0.90196 0.45098 0.00000
4 30 67 68 31 0.05098 0.32157 0.50196
3 31 68 55 0.90196 0.45098 0.00000
4 55 68 69 39 0.05098 0.32157 0.50196
3 39 69 15 0.90196 0.45098 0.00000
4 15 69 65 3 0.05098 0.32157 0.50196
3 3 65 2 0.90196 0.45098 0.00000
