OFF
60 62 120
3.023564784775338e-15 1.6180339887498945 -1.5388417685876277
0.95105651629515642 1.3090169943749461 -1.5388417685876268
-0.95105651629515642 -1.3090169943749483 1.5388417685876246
-2.9716395482005073e-15 -1.6180339887498967 1.5388417685876254
-1.8017073246471926 1.3090169943749479 -0.16245984811645608
2.2270327288232141 -2.5769842564297058e-15 -0.16245984811645187
-1.9641671727636472 0.80901699437494801 0.68819096023558368
2.0645728807067596 -0.50000000000000255 0.6881909602355879
-2.0645728807067596 0.50000000000000056 -0.68819096023559012
1.9641671727636472 -0.80901699437495 -0.6881909602355859
-2.2270327288232141 5.3164021252073231e-16 0.16245984811644953
1.8017073246471926 -1.3090169943749501 0.16245984811645375
0.162459848116454 2.1180339887498945 0.68819096023558646
1.1135163644116073 1.8090169943749459 0.68819096023558735
-5.291488940251629e-16 1.6180339887498942 1.5388417685876263
0.95105651629515287 1.3090169943749459 1.5388417685876272
-0.95105651629515287 -1.3090169943749481 -1.5388417685876294
5.8107413059999364e-16 -1.6180339887498965 -1.5388417685876286
-1.1135163644116073 -1.8090169943749481 -0.68819096023558957
-0.16245984811645395 -2.1180339887498962 -0.68819096023558868
-1.1135163644116048 1.8090169943749477 -0.68819096023558901
1.9641671727636483 0.80901699437494523 -0.68819096023558568
-1.5388417685876283 0.50000000000000011 1.5388417685876243
1.5388417685876248 -0.50000000000000233 1.5388417685876274
-1.5388417685876248 0.50000000000000033 -1.5388417685876297
1.5388417685876283 -0.50000000000000211 -1.5388417685876266
-1.9641671727636483 -0.80901699437494723 0.68819096023558346
1.1135163644116048 -1.8090169943749499 0.68819096023558679
-0.68819096023558535 2.1180339887498949 0.16245984811645173
1.8017073246471944 1.3090169943749455 0.16245984811645434
-0.95105651629515442 1.3090169943749472 1.538841768587625
1.5388417685876252 0.49999999999999789 1.5388417685876277
-1.5388417685876252 -0.49999999999999989 -1.5388417685876299
0.95105651629515442 -1.3090169943749494 -1.5388417685876272
-1.8017073246471944 -1.3090169943749477 -0.16245984811645667
0.68819096023558535 -2.1180339887498967 -0.16245984811645406
-0.16245984811645084 2.1180339887498949 -0.68819096023558779
1.3763819204711756 1.6180339887498933 -0.68819096023558624
-1.3763819204711756 -1.6180339887498956 0.68819096023558401
0.16245984811645089 -2.1180339887498967 0.68819096023558557
-0.95105651629515076 1.3090169943749477 -1.5388417685876288
1.538841768587629 0.49999999999999822 -1.5388417685876261
-1.538841768587629 -0.50000000000000022 1.5388417685876239
0.95105651629515076 -1.3090169943749499 1.5388417685876266
-1.3763819204711734 1.6180339887498951 0.68819096023558457
2.06457288070676 0.49999999999999767 0.68819096023558812
-2.06457288070676 -0.49999999999999967 -0.68819096023559034
1.3763819204711734 -1.6180339887498973 -0.68819096023558679
0.68819096023558857 2.118033988749894 -0.16245984811645325
-0.68819096023558857 -2.1180339887498958 0.16245984811645092
-0.26286555605956996 -0.80901699437494845 2.0645728807067583
-0.85065080835204177 -7.8982451023103789e-17 2.0645728807067574
-0.26286555605956774 0.80901699437494767 2.0645728807067587
0.68819096023558513 0.49999999999999889 2.0645728807067596
0.68819096023558401 -0.50000000000000144 2.0645728807067596
0.68819096023558946 0.49999999999999867 -2.0645728807067614
-0.26286555605956419 0.80901699437494712 -2.0645728807067623
-0.85065080835203832 3.09595607595701e-16 -2.064572880706764
-0.26286555605956585 -0.80901699437494834 -2.0645728807067636
0.68819096023558857 -0.50000000000000178 -2.0645728807067623
3 8 46 10 0.90196 0.45098 0.00000
3 9 11 47 0.90196 0.45098 0.00000
3 12 13 48 0.90196 0.45098 0.00000
3 18 19 49 0.90196 0.45098 0.00000
3 26 34 38 0.90196 0.45098 0.00000
3 28 36 20 0.90196 0.45098 0.00000
3 37 29 21 0.90196 0.45098 0.00000
3 39 35 27 0.90196 0.45098 0.00000
3 44 4 6 0.90196 0.45098 0.00000
3 45 7 5 0.90196 0.45098 0.00000
4 3 39 27 43 0.05098 0.32157 0.50196
4 4 8 10 6 0.05098 0.32157 0.50196
4 5 7 11 9 0.05098 0.32157 0.50196
4 8 24 32 46 0.05098 0.32157 0.50196
4 10 46 34 26 0.05098 0.32157 0.50196
4 12 14 15 13 0.05098 0.32157 0.50196
4 16 17 19 18 0.05098 0.32157 0.50196
4 20 36 0 40 0.05098 0.32157 0.50196
4 25 9 47 33 0.05098 0.32157 0.50196
4 27 35 47 11 0.05098 0.32157 0.50196
4 28 12 48 36 0.05098 0.32157 0.50196
4 29 45 5 21 0.05098 0.32157 0.50196
4 31 23 7 45 0.05098 0.32157 0.50196
4 34 18 49 38 0.05098 0.32157 0.50196
4 37 21 41 1 0.05098 0.32157 0.50196
4 42 26 38 2 0.05098 0.32157 0.50196
4 44 6 22 30 0.05098 0.32157 0.50196
4 44 28 20 4 0.05098 0.32157 0.50196
4 48 13 29 37 0.05098 0.32157 0.50196
4 49 19 35 39 0.05098 0.32157 0.50196
5 2 38 49 39 3 0.38824 0.60000 0.30196
5 4 20 40 24 8 0.38824 0.60000 0.30196
5 6 10 26 42 22 0.38824 0.60000 0.30196
5 13 15 31 45 29 0.38824 0.60000 0.30196
5 17 33 47 35 19 0.38824 0.60000 0.30196
5 21 5 9 25 41 0.38824 0.60000 0.30196
5 23 43 27 11 7 0.38824 0.60000 0.30196
5 30 14 12 28 44 0.38824 0.60000 0.30196
5 36 48 37 1 0 0.38824 0.60000 0.30196
5 46 32 16 18 34 0.38824 0.60000 0.30196
5 54 53 52 51 50 0.38824 0.60000 0.30196
4 2 50 51 42 0.05098 0.32157 0.50196
3 42 51 22 0.90196 0.45098 0.00000
4 22 51 52 30 0.05098 0.32157 0.50196
3 30 52 14 0.90196 0.45098 0.00000
4 14 52 53 15 0.05098 0.32157 0.50196
3 15 53 31 0.90196 0.45098 0.00000
4 31 53 54 23 0.05098 0.32157 0.50196
3 23 54 43 0.90196 0.45098 0.00000
4 43 54 50 3 0.05098 0.32157 0.50196
3 3 50 2 0.90196 0.45098 0.00000
5 59 58 57 56 55 0.38824 0.60000 0.30196
4 1 55 56 0 0.05098 0.32157 0.50196
3 0 56 40 0.90196 0.45098 0.00000
4 40 56 57 24 0.05098 0.32157 0.50196
3 24 57 32 0.90196 0.45098 0.00000
4 32 57 58 16 0.05098 0.32157 0.50196
3 16 58 17 0.90196 0.45098 0.00000
4 17 58 59 33 0.05098 0.32157 0.50196
3 33 59 25 0.90196 0.45098 0.00000
4 25 59 55 41 0.05098 0.32157 0.50196
3 41 55 1 0.90196 0.45098 0.00000
