OFF
10 14 22
-3.2485788297050219e-16 0.50000000000000022 1.3132954242635546
-1.1020140002081118e-15 -0.49999999999999983 1.3132954242635546
0.78942762666087118 -5.1648751807469492e-16 0.95719990019089307
-0.78942762666087229 7.9817357301644284e-16 0.95719990019089263
0.50000000000000022 0.85272694284641648 0.5223569286836397
-0.49999999999999978 0.85272694284641737 0.52235692868363937
-0.50000000000000111 -0.85272694284641626 0.52235692868363948
0.49999999999999889 -0.85272694284641715 0.52235692868363981
-0.50000000000000022 4.7747375907824538e-16 -3.7516097803229828e-17
0.49999999999999972 -3.5519350939062198e-16 2.6779523396868822e-16
3 1 0 3 0.90196 0.45098 0.00000
3 2 0 1 0.90196 0.45098 0.00000
3 2 1 7 0.90196 0.45098 0.00000
3 2 4 0 0.90196 0.45098 0.00000
3 3 0 5 0.90196 0.45098 0.00000
3 3 6 1 0.90196 0.45098 0.00000
3 3 8 6 0.90196 0.45098 0.00000
4 4 9 8 5 0.05098 0.32157 0.50196
3 5 0 4 0.90196 0.45098 0.00000
3 5 8 3 0.90196 0.45098 0.00000
3 7 1 6 0.90196 0.45098 0.00000
4 7 6 8 9 0.05098 0.32157 0.50196
3 7 9 2 0.90196 0.45098 0.00000
3 9 4 2 0.90196 0.45098 0.00000
