OFF
14 21 33
0.49999999999999972 0.49999999999999956 -5.5412034811393628e-16
-0.50000000000000033 0.50000000000000033 -2.4880901634201833e-16
-0.50000000000000111 -0.49999999999999956 9.9116419864194021e-19
0.49999999999999889 -0.50000000000000033 -3.0432016757327606e-16
0.50000000000000033 0.71684481571345682 0.97620608782069973
-0.500000000000001 -0.71684481571345637 0.9762060878207004
-0.49999999999999989 0.71684481571345748 0.97620608782070006
0.499999999999999 -0.71684481571345704 0.97620608782070006
1.1012960420472777 -7.4684792668093152e-16 0.62325201148353904
-1.1012960420472786 1.0539247399499875e-15 0.6232520114835397
2.489996277840674e-16 0.50000000000000044 1.8146441152849822
-5.6163123152903212e-16 -0.49999999999999956 1.8146441152849826
0.83565907172236686 -2.8884553247756624e-16 1.5873251414880021
-0.83565907172236731 1.0775736296056506e-15 1.5873251414880025
3 0 4 8 0.90196 0.45098 0.00000
4 1 0 3 2 0.05098 0.32157 0.50196
4 2 3 7 5 0.05098 0.32157 0.50196
3 2 5 9 0.90196 0.45098 0.00000
3 3 0 8 0.90196 0.45098 0.00000
3 4 10 12 0.90196 0.45098 0.00000
3 5 7 11 0.90196 0.45098 0.00000
3 5 13 9 0.90196 0.45098 0.00000
4 6 4 0 1 0.05098 0.32157 0.50196
3 6 10 4 0.90196 0.45098 0.00000
3 8 4 12 0.90196 0.45098 0.00000
3 8 7 3 0.90196 0.45098 0.00000
3 9 1 2 0.90196 0.45098 0.00000
3 9 6 1 0.90196 0.45098 0.00000
3 10 6 13 0.90196 0.45098 0.00000
3 10 11 12 0.90196 0.45098 0.00000
3 11 7 12 0.90196 0.45098 0.00000
3 11 13 5 0.90196 0.45098 0.00000
3 12 7 8 0.90196 0.45098 0.00000
3 13 6 9 0.90196 0.45098 0.00000
3 13 11 10 0.90196 0.45098 0.00000
