OFF
24 26 48
0.50000000000000011 0.50000000000000011 -1.2071067811865477
0.50000000000000011 -0.50000000000000011 1.2071067811865477
-0.50000000000000011 0.50000000000000011 1.2071067811865477
-0.50000000000000011 -0.50000000000000011 -1.2071067811865477
0.50000000000000011 1.2071067811865477 -0.50000000000000011
0.50000000000000011 -1.2071067811865477 0.50000000000000011
-0.50000000000000011 1.2071067811865477 0.50000000000000011
-0.50000000000000011 -1.2071067811865477 -0.50000000000000011
1.2071067811865477 0.50000000000000011 -0.50000000000000011
1.2071067811865477 -0.50000000000000011 0.50000000000000011
-1.2071067811865477 0.50000000000000011 0.50000000000000011
-1.2071067811865477 -0.50000000000000011 -0.50000000000000011
0.50000000000000011 1.2071067811865477 0.50000000000000011
0.50000000000000011 -1.2071067811865477 -0.50000000000000011
-0.50000000000000011 1.2071067811865477 -0.50000000000000011
-0.50000000000000011 -1.2071067811865477 0.50000000000000011
0.50000000000000011 0.50000000000000011 1.2071067811865477
0.50000000000000011 -0.50000000000000011 -1.2071067811865477
-0.50000000000000011 0.50000000000000011 -1.2071067811865477
-0.50000000000000011 -0.50000000000000011 1.2071067811865477
1.2071067811865477 0.50000000000000011 0.50000000000000011
1.2071067811865477 -0.50000000000000011 -0.50000000000000011
-1.2071067811865477 0.50000000000000011 -0.50000000000000011
-1.2071067811865477 -0.50000000000000011 0.50000000000000011
3 3 7 11 0.90196 0.45098 0.00000
3 8 0 4 0.90196 0.45098 0.00000
3 9 1 5 0.90196 0.45098 0.00000
3 10 2 6 0.90196 0.45098 0.00000
3 12 16 20 0.90196 0.45098 0.00000
3 17 21 13 0.90196 0.45098 0.00000
3 18 22 14 0.90196 0.45098 0.00000
3 23 15 19 0.90196 0.45098 0.00000
4 0 18 14 4 0.05098 0.32157 0.50196
4 2 19 1 16 0.05098 0.32157 0.50196
4 4 12 20 8 0.05098 0.32157 0.50196
4 6 12 4 14 0.05098 0.32157 0.50196
4 10 23 19 2 0.05098 0.32157 0.50196
4 11 22 18 3 0.05098 0.32157 0.50196
4 11 23 10 22 0.05098 0.32157 0.50196
4 12 6 2 16 0.05098 0.32157 0.50196
4 13 7 3 17 0.05098 0.32157 0.50196
4 15 5 1 19 0.05098 0.32157 0.50196
4 15 7 13 5 0.05098 0.32157 0.50196
4 16 1 9 20 0.05098 0.32157 0.50196
4 17 0 8 21 0.05098 0.32157 0.50196
4 18 0 17 3 0.05098 0.32157 0.50196
4 20 9 21 8 0.05098 0.32157 0.50196
4 21 9 5 13 0.05098 0.32157 0.50196
4 22 10 6 14 0.05098 0.32157 0.50196
4 23 11 7 15 0.05098 0.32157 0.50196
