OFF
24 18 48
0.50000000000000011 0.50000000000000011 -1.2071067811865477
0.50000000000000011 -0.50000000000000011 1.2071067811865477
-0.50000000000000011 0.50000000000000011 1.2071067811865477
-0.50000000000000011 -0.50000000000000011 -1.2071067811865477
0.50000000000000011 1.2071067811865477 -0.50000000000000011
0.50000000000000011 -1.2071067811865477 0.50000000000000011
-0.50000000000000011 1.2071067811865477 0.50000000000000011
-0.50000000000000011 -1.2071067811865477 -0.50000000000000011
1.2071067811865477 0.50000000000000011 -0.50000000000000011
1.2071067811865477 -0.50000000000000011 0.50000000000000011
-1.2071067811865477 0.50000000000000011 0.50000000000000011
-1.2071067811865477 -0.50000000000000011 -0.50000000000000011
0.50000000000000011 1.2071067811865477 0.50000000000000011
0.50000000000000011 -1.2071067811865477 -0.50000000000000011
-0.50000000000000011 1.2071067811865477 -0.50000000000000011
-0.50000000000000011 -1.2071067811865477 0.50000000000000011
0.50000000000000011 0.50000000000000011 1.2071067811865477
0.50000000000000011 -0.50000000000000011 -1.2071067811865477
-0.50000000000000011 0.50000000000000011 -1.2071067811865477
-0.50000000000000011 -0.50000000000000011 1.2071067811865477
1.2071067811865477 0.50000000000000011 0.50000000000000011
1.2071067811865477 -0.50000000000000011 -0.50000000000000011
-1.2071067811865477 0.50000000000000011 -0.50000000000000011
-1.2071067811865477 -0.50000000000000011 0.50000000000000011
4 5 9 21 13 0.05098 0.32157 0.50196
4 6 2 16 12 0.05098 0.32157 0.50196
4 7 3 17 13 0.05098 0.32157 0.50196
4 10 23 19 2 0.05098 0.32157 0.50196
4 12 4 8 20 0.05098 0.32157 0.50196
4 14 4 0 18 0.05098 0.32157 0.50196
4 15 5 1 19 0.05098 0.32157 0.50196
4 17 21 8 0 0.05098 0.32157 0.50196
4 20 9 1 16 0.05098 0.32157 0.50196
4 22 14 6 10 0.05098 0.32157 0.50196
4 22 18 3 11 0.05098 0.32157 0.50196
4 23 15 7 11 0.05098 0.32157 0.50196
8 6 14 18 3 7 15 19 2 0.05098 0.50196 0.12941
8 10 2 16 20 8 0 18 22 0.05098 0.50196 0.12941
8 10 6 12 20 9 5 15 23 0.05098 0.50196 0.12941
8 12 16 1 5 13 17 0 4 0.05098 0.50196 0.12941
8 22 11 7 13 21 8 4 14 0.05098 0.50196 0.12941
8 23 11 3 17 21 9 1 19 0.05098 0.50196 0.12941
