OFF
20 12 30
0.80901699437494734 0.80901699437494734 0.80901699437494734
0.80901699437494734 0.80901699437494734 -0.80901699437494734
0.80901699437494734 -0.80901699437494734 0.80901699437494734
0.80901699437494734 -0.80901699437494734 -0.80901699437494734
-0.80901699437494734 0.80901699437494734 0.80901699437494734
-0.80901699437494734 0.80901699437494734 -0.80901699437494734
-0.80901699437494734 -0.80901699437494734 0.80901699437494734
-0.80901699437494734 -0.80901699437494734 -0.80901699437494734
0 1.3090169943749472 0.49999999999999989
0 1.3090169943749472 -0.49999999999999989
0 -1.3090169943749472 0.49999999999999989
0 -1.3090169943749472 -0.49999999999999989
0.49999999999999989 0 1.3090169943749472
0.49999999999999989 0 -1.3090169943749472
-0.49999999999999989 0 1.3090169943749472
-0.49999999999999989 0 -1.3090169943749472
1.3090169943749472 0.49999999999999989 0
1.3090169943749472 -0.49999999999999989 0
-1.3090169943749472 0.49999999999999989 0
-1.3090169943749472 -0.49999999999999989 0
5 1 13 15 5 9 0.38824 0.60000 0.30196
5 4 18 19 6 14 0.38824 0.60000 0.30196
5 5 18 4 8 9 0.38824 0.60000 0.30196
5 6 10 2 12 14 0.38824 0.60000 0.30196
5 9 8 0 16 1 0.38824 0.60000 0.30196
5 10 6 19 7 11 0.38824 0.60000 0.30196
5 11 3 17 2 10 0.38824 0.60000 0.30196
5 11 7 15 13 3 0.38824 0.60000 0.30196
5 12 0 8 4 14 0.38824 0.60000 0.30196
5 15 7 19 18 5 0.38824 0.60000 0.30196
5 16 17 3 13 1 0.38824 0.60000 0.30196
5 17 16 0 12 2 0.38824 0.60000 0.30196
