OFF
30 32 60
0 1.6180339887498949 0
0 -1.6180339887498949 0
0 0 1.6180339887498949
0 0 -1.6180339887498949
1.6180339887498949 0 0
-1.6180339887498949 0 0
0.5 1.3090169943749475 0.80901699437494745
0.5 1.3090169943749475 -0.80901699437494745
0.5 -1.3090169943749475 0.80901699437494745
0.5 -1.3090169943749475 -0.80901699437494745
-0.5 1.3090169943749475 0.80901699437494745
-0.5 1.3090169943749475 -0.80901699437494745
-0.5 -1.3090169943749475 0.80901699437494745
-0.5 -1.3090169943749475 -0.80901699437494745
0.80901699437494745 0.5 1.3090169943749475
0.80901699437494745 0.5 -1.3090169943749475
0.80901699437494745 -0.5 1.3090169943749475
0.80901699437494745 -0.5 -1.3090169943749475
-0.80901699437494745 0.5 1.3090169943749475
-0.80901699437494745 0.5 -1.3090169943749475
-0.80901699437494745 -0.5 1.3090169943749475
-0.80901699437494745 -0.5 -1.3090169943749475
1.3090169943749475 0.80901699437494745 0.5
1.3090169943749475 0.80901699437494745 -0.5
1.3090169943749475 -0.80901699437494745 0.5
1.3090169943749475 -0.80901699437494745 -0.5
-1.3090169943749475 0.80901699437494745 0.5
-1.3090169943749475 0.80901699437494745 -0.5
-1.3090169943749475 -0.80901699437494745 0.5
-1.3090169943749475 -0.80901699437494745 -0.5
3 0 10 6 0.90196 0.45098 0.00000
3 1 8 12 0.90196 0.45098 0.00000
3 2 18 20 0.90196 0.45098 0.00000
3 3 15 17 0.90196 0.45098 0.00000
3 4 24 25 0.90196 0.45098 0.00000
3 5 26 27 0.90196 0.45098 0.00000
3 5 29 28 0.90196 0.45098 0.00000
3 6 14 22 0.90196 0.45098 0.00000
3 7 11 0 0.90196 0.45098 0.00000
3 9 17 25 0.90196 0.45098 0.00000
3 11 19 27 0.90196 0.45098 0.00000
3 12 20 28 0.90196 0.45098 0.00000
3 13 9 1 0.90196 0.45098 0.00000
3 16 14 2 0.90196 0.45098 0.00000
3 21 19 3 0.90196 0.45098 0.00000
3 23 15 7 0.90196 0.45098 0.00000
3 23 22 4 0.90196 0.45098 0.00000
3 24 16 8 0.90196 0.45098 0.00000
3 26 18 10 0.90196 0.45098 0.00000
3 29 21 13 0.90196 0.45098 0.00000
5 5 28 20 18 26 0.38824 0.60000 0.30196
5 11 7 15 3 19 0.38824 0.60000 0.30196
5 12 8 16 2 20 0.38824 0.60000 0.30196
5 14 16 24 4 22 0.38824 0.60000 0.30196
5 17 15 23 4 25 0.38824 0.60000 0.30196
5 18 2 14 6 10 0.38824 0.60000 0.30196
5 21 3 17 9 13 0.38824 0.60000 0.30196
5 23 7 0 6 22 0.38824 0.60000 0.30196
5 24 8 1 9 25 0.38824 0.60000 0.30196
5 26 10 0 11 27 0.38824 0.60000 0.30196
5 27 19 21 29 5 0.38824 0.60000 0.30196
5 29 13 1 12 28 0.38824 0.60000 0.30196
