OFF
60 32 90
0 0.5 2.4270509831248424
0 0.5 -2.4270509831248424
0 -0.5 2.4270509831248424
0 -0.5 -2.4270509831248424
0.5 2.4270509831248424 0
0.5 -2.4270509831248424 0
-0.5 2.4270509831248424 0
-0.5 -2.4270509831248424 0
2.4270509831248424 0 0.5
2.4270509831248424 0 -0.5
-2.4270509831248424 0 0.5
-2.4270509831248424 0 -0.5
1 2.1180339887498949 0.80901699437494745
1 2.1180339887498949 -0.80901699437494745
1 -2.1180339887498949 0.80901699437494745
1 -2.1180339887498949 -0.80901699437494745
-1 2.1180339887498949 0.80901699437494745
-1 2.1180339887498949 -0.80901699437494745
-1 -2.1180339887498949 0.80901699437494745
-1 -2.1180339887498949 -0.80901699437494745
2.1180339887498949 0.80901699437494745 1
2.1180339887498949 0.80901699437494745 -1
2.1180339887498949 -0.80901699437494745 1
2.1180339887498949 -0.80901699437494745 -1
-2.1180339887498949 0.80901699437494745 1
-2.1180339887498949 0.80901699437494745 -1
-2.1180339887498949 -0.80901699437494745 1
-2.1180339887498949 -0.80901699437494745 -1
0.80901699437494745 1 2.1180339887498949
0.80901699437494745 1 -2.1180339887498949
0.80901699437494745 -1 2.1180339887498949
0.80901699437494745 -1 -2.1180339887498949
-0.80901699437494745 1 2.1180339887498949
-0.80901699437494745 1 -2.1180339887498949
-0.80901699437494745 -1 2.1180339887498949
-0.80901699437494745 -1 -2.1180339887498949
0.5 1.8090169943749475 1.6180339887498949
0.5 1.8090169943749475 -1.6180339887498949
0.5 -1.8090169943749475 1.6180339887498949
0.5 -1.8090169943749475 -1.6180339887498949
-0.5 1.8090169943749475 1.6180339887498949
-0.5 1.8090169943749475 -1.6180339887498949
-0.5 -1.8090169943749475 1.6180339887498949
-0.5 -1.8090169943749475 -1.6180339887498949
1.8090169943749475 1.6180339887498949 0.5
1.8090169943749475 1.6180339887498949 -0.5
1.8090169943749475 -1.6180339887498949 0.5
1.8090169943749475 -1.6180339887498949 -0.5
-1.8090169943749475 1.6180339887498949 0.5
-1.8090169943749475 1.6180339887498949 -0.5
-1.8090169943749475 -1.6180339887498949 0.5
-1.8090169943749475 -1.6180339887498949 -0.5
1.6180339887498949 0.5 1.8090169943749475
1.6180339887498949 0.5 -1.8090169943749475
1.6180339887498949 -0.5 1.8090169943749475
1.6180339887498949 -0.5 -1.8090169943749475
-1.6180339887498949 0.5 1.8090169943749475
-1.6180339887498949 0.5 -1.8090169943749475
-1.6180339887498949 -0.5 1.8090169943749475
-1.6180339887498949 -0.5 -1.8090169943749475
5 11 25 57 59 27 0.38824 0.60000 0.30196
5 22 8 20 52 54 0.38824 0.60000 0.30196
5 23 55 53 21 9 0.38824 0.60000 0.30196
5 26 58 56 24 10 0.38824 0.60000 0.30196
5 29 1 33 41 37 0.38824 0.60000 0.30196
5 30 2 34 42 38 0.38824 0.60000 0.30196
5 36 40 32 0 28 0.38824 0.60000 0.30196
5 43 35 3 31 39 0.38824 0.60000 0.30196
5 44 45 13 4 12 0.38824 0.60000 0.30196
5 47 46 14 5 15 0.38824 0.60000 0.30196
5 49 48 16 6 17 0.38824 0.60000 0.30196
5 51 19 7 18 50 0.38824 0.60000 0.30196
6 5 14 38 42 18 7 1.00000 0.79216 0.50196
6 6 4 13 37 41 17 1.00000 0.79216 0.50196
6 7 19 43 39 15 5 1.00000 0.79216 0.50196
6 10 24 48 49 25 11 1.00000 0.79216 0.50196
6 20 8 9 21 45 44 1.00000 0.79216 0.50196
6 22 46 47 23 9 8 1.00000 0.79216 0.50196
6 23 47 15 39 31 55 1.00000 0.79216 0.50196
6 26 10 11 27 51 50 1.00000 0.79216 0.50196
6 28 0 2 30 54 52 1.00000 0.79216 0.50196
6 28 52 20 44 12 36 1.00000 0.79216 0.50196
6 29 37 13 45 21 53 1.00000 0.79216 0.50196
6 32 40 16 48 24 56 1.00000 0.79216 0.50196
6 35 59 57 33 1 3 1.00000 0.79216 0.50196
6 40 36 12 4 6 16 1.00000 0.79216 0.50196
6 41 33 57 25 49 17 1.00000 0.79216 0.50196
6 43 19 51 27 59 35 1.00000 0.79216 0.50196
6 50 18 42 34 58 26 1.00000 0.79216 0.50196
6 53 55 31 3 1 29 1.00000 0.79216 0.50196
6 54 30 38 14 46 22 1.00000 0.79216 0.50196
6 56 58 34 2 0 32 1.00000 0.79216 0.50196
