OFF
12 12 30
0 0.5 0.80901699437494745
0 0.5 -0.80901699437494745
0 -0.5 0.80901699437494745
0 -0.5 -0.80901699437494745
0.5 0.80901699437494745 0
0.5 -0.80901699437494745 0
-0.5 0.80901699437494745 0
-0.5 -0.80901699437494745 0
0.80901699437494745 0 0.5
0.80901699437494745 0 -0.5
-0.80901699437494745 0 0.5
-0.80901699437494745 0 -0.5
5 0 4 1 11 10 0.38824 0.60000 0.30196
5 0 6 11 7 2 0.38824 0.60000 0.30196
5 0 8 9 1 6 0.38824 0.60000 0.30196
5 0 10 7 5 8 0.38824 0.60000 0.30196
5 1 9 5 7 11 0.38824 0.60000 0.30196
5 2 5 9 4 0 0.38824 0.60000 0.30196
5 4 6 10 2 8 0.38824 0.60000 0.30196
5 4 8 5 3 1 0.38824 0.60000 0.30196
5 4 9 3 11 6 0.38824 0.60000 0.30196
5 8 2 7 3 9 0.38824 0.60000 0.30196
5 10 6 1 3 7 0.38824 0.60000 0.30196
5 10 11 3 5 2 0.38824 0.60000 0.30196
