OFF
60 44 120
0.19098300562505258 1.3090169943749475 0
0.19098300562505258 -1.3090169943749475 0
-0.19098300562505258 1.3090169943749475 0
-0.19098300562505258 -1.3090169943749475 0
0 0.19098300562505258 1.3090169943749475
0 0.19098300562505258 -1.3090169943749475
0 -0.19098300562505258 1.3090169943749475
0 -0.19098300562505258 -1.3090169943749475
1.3090169943749475 0 0.19098300562505258
1.3090169943749475 0 -0.19098300562505258
-1.3090169943749475 0 0.19098300562505258
-1.3090169943749475 0 -0.19098300562505258
0.5 1.1180339887498949 0.5
0.5 1.1180339887498949 -0.5
0.5 -1.1180339887498949 0.5
0.5 -1.1180339887498949 -0.5
-0.5 1.1180339887498949 0.5
-0.5 1.1180339887498949 -0.5
-0.5 -1.1180339887498949 0.5
-0.5 -1.1180339887498949 -0.5
0.5 0.5 1.1180339887498949
0.5 0.5 -1.1180339887498949
0.5 -0.5 1.1180339887498949
0.5 -0.5 -1.1180339887498949
-0.5 0.5 1.1180339887498949
-0.5 0.5 -1.1180339887498949
-0.5 -0.5 1.1180339887498949
-0.5 -0.5 -1.1180339887498949
1.1180339887498949 0.5 0.5
1.1180339887498949 0.5 -0.5
1.1180339887498949 -0.5 0.5
1.1180339887498949 -0.5 -0.5
-1.1180339887498949 0.5 0.5
-1.1180339887498949 0.5 -0.5
-1.1180339887498949 -0.5 0.5
-1.1180339887498949 -0.5 -0.5
1 0.80901699437494745 0.3090169943749474
1 0.80901699437494745 -0.3090169943749474
1 -0.80901699437494745 0.3090169943749474
1 -0.80901699437494745 -0.3090169943749474
-1 0.80901699437494745 0.3090169943749474
-1 0.80901699437494745 -0.3090169943749474
-1 -0.80901699437494745 0.3090169943749474
-1 -0.80901699437494745 -0.3090169943749474
0.3090169943749474 1 0.80901699437494745
0.3090169943749474 1 -0.80901699437494745
0.3090169943749474 -1 0.80901699437494745
0.3090169943749474 -1 -0.80901699437494745
-0.3090169943749474 1 0.80901699437494745
-0.3090169943749474 1 -0.80901699437494745
-0.3090169943749474 -1 0.80901699437494745
-0.3090169943749474 -1 -0.80901699437494745
0.80901699437494745 0.3090169943749474 1
0.80901699437494745 0.3090169943749474 -1
0.80901699437494745 -0.3090169943749474 1
0.80901699437494745 -0.3090169943749474 -1
-0.80901699437494745 0.3090169943749474 1
-0.80901699437494745 0.3090169943749474 -1
-0.80901699437494745 -0.3090169943749474 1
-0.80901699437494745 -0.3090169943749474 -1
5 0 49 33 32 48 0.38824 0.60000 0.30196
5 1 50 34 35 51 0.38824 0.60000 0.30196
5 4 48 20 24 44 0.70196 0.10196 0.20000
5 6 46 26 22 50 0.70196 0.10196 0.20000
5 8 54 28 30 52 0.70196 0.10196 0.20000
5 13 53 7 57 17 0.38824 0.60000 0.30196
5 15 19 59 5 55 0.38824 0.60000 0.30196
5 16 41 2 40 17 0.70196 0.10196 0.20000
5 18 19 42 3 43 0.70196 0.10196 0.20000
5 21 49 5 45 25 0.70196 0.10196 0.20000
5 23 27 47 7 51 0.70196 0.10196 0.20000
5 24 40 11 42 26 0.38824 0.60000 0.30196
5 25 27 43 10 41 0.38824 0.60000 0.30196
5 28 29 45 2 44 0.38824 0.60000 0.30196
5 29 55 9 53 31 0.70196 0.10196 0.20000
5 30 46 3 47 31 0.38824 0.60000 0.30196
5 33 35 57 11 59 0.70196 0.10196 0.20000
5 36 20 22 38 9 0.38824 0.60000 0.30196
5 37 12 13 36 0 0.70196 0.10196 0.20000
5 39 1 38 15 14 0.70196 0.10196 0.20000
5 39 23 21 37 8 0.38824 0.60000 0.30196
5 52 12 16 56 6 0.38824 0.60000 0.30196
5 54 4 58 18 14 0.38824 0.60000 0.30196
5 58 10 56 34 32 0.70196 0.10196 0.20000
6 0 36 9 55 5 49 1.00000 0.79216 0.50196
6 1 51 7 53 9 38 1.00000 0.79216 0.50196
6 3 42 11 57 7 47 1.00000 0.79216 0.50196
6 4 44 2 41 10 58 1.00000 0.79216 0.50196
6 5 59 11 40 2 45 1.00000 0.79216 0.50196
6 6 56 10 43 3 46 1.00000 0.79216 0.50196
6 8 37 0 48 4 54 1.00000 0.79216 0.50196
6 8 52 6 50 1 39 1.00000 0.79216 0.50196
6 15 38 22 26 42 19 1.00000 0.79216 0.50196
6 16 17 57 35 34 56 1.00000 0.79216 0.50196
6 18 58 32 33 59 19 1.00000 0.79216 0.50196
6 21 23 51 35 33 49 1.00000 0.79216 0.50196
6 25 45 29 31 47 27 1.00000 0.79216 0.50196
6 28 44 24 26 46 30 1.00000 0.79216 0.50196
6 36 13 17 40 24 20 1.00000 0.79216 0.50196
6 37 21 25 41 16 12 1.00000 0.79216 0.50196
6 39 14 18 43 27 23 1.00000 0.79216 0.50196
6 48 32 34 50 22 20 1.00000 0.79216 0.50196
6 52 30 31 53 13 12 1.00000 0.79216 0.50196
6 54 14 15 55 29 28 1.00000 0.79216 0.50196
