OFF
60 52 120
0 1.1180339887498947 0.19098300562505255
0 1.1180339887498947 -0.19098300562505255
0 -1.1180339887498947 0.19098300562505255
0 -1.1180339887498947 -0.19098300562505255
0.19098300562505255 0 1.1180339887498947
0.19098300562505255 0 -1.1180339887498947
-0.19098300562505255 0 1.1180339887498947
-0.19098300562505255 0 -1.1180339887498947
1.1180339887498947 0.19098300562505255 0
1.1180339887498947 -0.19098300562505255 0
-1.1180339887498947 0.19098300562505255 0
-1.1180339887498947 -0.19098300562505255 0
0.19098300562505255 0.99999999999999989 0.49999999999999994
0.19098300562505255 0.99999999999999989 -0.49999999999999994
0.19098300562505255 -0.99999999999999989 0.49999999999999994
0.19098300562505255 -0.99999999999999989 -0.49999999999999994
-0.19098300562505255 0.99999999999999989 0.49999999999999994
-0.19098300562505255 0.99999999999999989 -0.49999999999999994
-0.19098300562505255 -0.99999999999999989 0.49999999999999994
-0.19098300562505255 -0.99999999999999989 -0.49999999999999994
0.49999999999999994 0.19098300562505255 0.99999999999999989
0.49999999999999994 0.19098300562505255 -0.99999999999999989
0.49999999999999994 -0.19098300562505255 0.99999999999999989
0.49999999999999994 -0.19098300562505255 -0.99999999999999989
-0.49999999999999994 0.19098300562505255 0.99999999999999989
-0.49999999999999994 0.19098300562505255 -0.99999999999999989
-0.49999999999999994 -0.19098300562505255 0.99999999999999989
-0.49999999999999994 -0.19098300562505255 -0.99999999999999989
0.99999999999999989 0.49999999999999994 0.19098300562505255
0.99999999999999989 0.49999999999999994 -0.19098300562505255
0.99999999999999989 -0.49999999999999994 0.19098300562505255
0.99999999999999989 -0.49999999999999994 -0.19098300562505255
-0.99999999999999989 0.49999999999999994 0.19098300562505255
-0.99999999999999989 0.49999999999999994 -0.19098300562505255
-0.99999999999999989 -0.49999999999999994 0.19098300562505255
-0.99999999999999989 -0.49999999999999994 -0.19098300562505255
0.49999999999999994 0.80901699437494734 0.61803398874989479
0.49999999999999994 0.80901699437494734 -0.61803398874989479
0.49999999999999994 -0.80901699437494734 0.61803398874989479
0.49999999999999994 -0.80901699437494734 -0.61803398874989479
-0.49999999999999994 0.80901699437494734 0.61803398874989479
-0.49999999999999994 0.80901699437494734 -0.61803398874989479
-0.49999999999999994 -0.80901699437494734 0.61803398874989479
-0.49999999999999994 -0.80901699437494734 -0.61803398874989479
0.61803398874989479 0.49999999999999994 0.80901699437494734
0.61803398874989479 0.49999999999999994 -0.80901699437494734
0.61803398874989479 -0.49999999999999994 0.80901699437494734
0.61803398874989479 -0.49999999999999994 -0.80901699437494734
-0.61803398874989479 0.49999999999999994 0.80901699437494734
-0.61803398874989479 0.49999999999999994 -0.80901699437494734
-0.61803398874989479 -0.49999999999999994 0.80901699437494734
-0.61803398874989479 -0.49999999999999994 -0.80901699437494734
0.80901699437494734 0.61803398874989479 0.49999999999999994
0.80901699437494734 0.61803398874989479 -0.49999999999999994
0.80901699437494734 -0.61803398874989479 0.49999999999999994
0.80901699437494734 -0.61803398874989479 -0.49999999999999994
-0.80901699437494734 0.61803398874989479 0.49999999999999994
-0.80901699437494734 0.61803398874989479 -0.49999999999999994
-0.80901699437494734 -0.61803398874989479 0.49999999999999994
-0.80901699437494734 -0.61803398874989479 -0.49999999999999994
3 0 41 37 0.90196 0.45098 0.00000
3 1 36 40 0.90196 0.45098 0.00000
3 7 47 45 0.90196 0.45098 0.00000
3 10 58 59 0.90196 0.45098 0.00000
3 13 21 29 0.90196 0.45098 0.00000
3 15 31 23 0.90196 0.45098 0.00000
3 22 30 14 0.90196 0.45098 0.00000
3 26 18 34 0.90196 0.45098 0.00000
3 27 35 19 0.90196 0.45098 0.00000
3 28 20 12 0.90196 0.45098 0.00000
3 32 16 24 0.90196 0.45098 0.00000
3 33 25 17 0.90196 0.45098 0.00000
3 38 3 42 0.90196 0.45098 0.00000
3 43 2 39 0.90196 0.45098 0.00000
3 46 6 44 0.90196 0.45098 0.00000
3 50 48 4 0.90196 0.45098 0.00000
3 51 5 49 0.90196 0.45098 0.00000
3 52 53 9 0.90196 0.45098 0.00000
3 54 8 55 0.90196 0.45098 0.00000
3 56 11 57 0.90196 0.45098 0.00000
5 4 38 31 29 36 0.38824 0.60000 0.30196
5 11 51 15 14 50 0.38824 0.60000 0.30196
5 18 19 47 9 46 0.38824 0.60000 0.30196
5 20 24 58 2 54 0.38824 0.60000 0.30196
5 26 22 52 0 56 0.38824 0.60000 0.30196
5 35 42 6 40 33 0.38824 0.60000 0.30196
5 37 28 30 39 5 0.38824 0.60000 0.30196
5 41 7 43 34 32 0.38824 0.60000 0.30196
5 45 17 16 44 8 0.38824 0.60000 0.30196
5 48 12 13 49 10 0.38824 0.60000 0.30196
5 57 1 53 23 27 0.38824 0.60000 0.30196
5 59 25 21 55 3 0.38824 0.60000 0.30196
6 0 52 9 47 7 41 1.00000 0.79216 0.50196
6 1 40 6 46 9 53 1.00000 0.79216 0.50196
6 5 39 2 58 10 49 1.00000 0.79216 0.50196
6 7 45 8 54 2 43 1.00000 0.79216 0.50196
6 11 50 4 36 1 57 1.00000 0.79216 0.50196
6 12 20 54 55 21 13 1.00000 0.79216 0.50196
6 24 16 17 25 59 58 1.00000 0.79216 0.50196
6 26 34 43 39 30 22 1.00000 0.79216 0.50196
6 27 23 31 38 42 35 1.00000 0.79216 0.50196
6 34 18 46 44 16 32 1.00000 0.79216 0.50196
6 35 33 17 45 47 19 1.00000 0.79216 0.50196
6 36 29 21 25 33 40 1.00000 0.79216 0.50196
6 37 41 32 24 20 28 1.00000 0.79216 0.50196
6 42 3 55 8 44 6 1.00000 0.79216 0.50196
6 48 10 59 3 38 4 1.00000 0.79216 0.50196
6 50 14 30 28 12 48 1.00000 0.79216 0.50196
6 51 49 13 29 31 15 1.00000 0.79216 0.50196
6 52 22 14 15 23 53 1.00000 0.79216 0.50196
6 56 0 37 5 51 11 1.00000 0.79216 0.50196
6 56 57 27 19 18 26 1.00000 0.79216 0.50196
