OFF
60 32 90
0.5 0 0.92705098312484224
0.5 0 -0.92705098312484224
-0.5 0 0.92705098312484224
-0.5 0 -0.92705098312484224
0 0.92705098312484224 0.5
0 0.92705098312484224 -0.5
0 -0.92705098312484224 0.5
0 -0.92705098312484224 -0.5
0.92705098312484224 0.5 0
0.92705098312484224 -0.5 0
-0.92705098312484224 0.5 0
-0.92705098312484224 -0.5 0
1 0.3090169943749474 0.11803398874989485
1 0.3090169943749474 -0.11803398874989485
1 -0.3090169943749474 0.11803398874989485
1 -0.3090169943749474 -0.11803398874989485
-1 0.3090169943749474 0.11803398874989485
-1 0.3090169943749474 -0.11803398874989485
-1 -0.3090169943749474 0.11803398874989485
-1 -0.3090169943749474 -0.11803398874989485
0.3090169943749474 0.11803398874989485 1
0.3090169943749474 0.11803398874989485 -1
0.3090169943749474 -0.11803398874989485 1
0.3090169943749474 -0.11803398874989485 -1
-0.3090169943749474 0.11803398874989485 1
-0.3090169943749474 0.11803398874989485 -1
-0.3090169943749474 -0.11803398874989485 1
-0.3090169943749474 -0.11803398874989485 -1
0.11803398874989485 1 0.3090169943749474
0.11803398874989485 1 -0.3090169943749474
0.11803398874989485 -1 0.3090169943749474
0.11803398874989485 -1 -0.3090169943749474
-0.11803398874989485 1 0.3090169943749474
-0.11803398874989485 1 -0.3090169943749474
-0.11803398874989485 -1 0.3090169943749474
-0.11803398874989485 -1 -0.3090169943749474
0.69098300562505255 0.5 0.61803398874989479
0.69098300562505255 0.5 -0.61803398874989479
0.69098300562505255 -0.5 0.61803398874989479
0.69098300562505255 -0.5 -0.61803398874989479
-0.69098300562505255 0.5 0.61803398874989479
-0.69098300562505255 0.5 -0.61803398874989479
-0.69098300562505255 -0.5 0.61803398874989479
-0.69098300562505255 -0.5 -0.61803398874989479
0.5 0.61803398874989479 0.69098300562505255
0.5 0.61803398874989479 -0.69098300562505255
0.5 -0.61803398874989479 0.69098300562505255
0.5 -0.61803398874989479 -0.69098300562505255
-0.5 0.61803398874989479 0.69098300562505255
-0.5 0.61803398874989479 -0.69098300562505255
-0.5 -0.61803398874989479 0.69098300562505255
-0.5 -0.61803398874989479 -0.69098300562505255
0.61803398874989479 0.69098300562505255 0.5
0.61803398874989479 0.69098300562505255 -0.5
0.61803398874989479 -0.69098300562505255 0.5
0.61803398874989479 -0.69098300562505255 -0.5
-0.61803398874989479 0.69098300562505255 0.5
-0.61803398874989479 0.69098300562505255 -0.5
-0.61803398874989479 -0.69098300562505255 0.5
-0.61803398874989479 -0.69098300562505255 -0.5
5 2 16 42 40 18 0.70196 0.10196 0.20000
5 3 19 41 43 17 0.70196 0.10196 0.20000
5 11 35 58 59 34 0.70196 0.10196 0.20000
5 24 44 48 20 4 0.70196 0.10196 0.20000
5 25 5 21 49 45 0.70196 0.10196 0.20000
5 26 6 22 50 46 0.70196 0.10196 0.20000
5 27 47 51 23 7 0.70196 0.10196 0.20000
5 32 57 56 33 10 0.70196 0.10196 0.20000
5 36 38 12 0 14 0.70196 0.10196 0.20000
5 37 15 1 13 39 0.70196 0.10196 0.20000
5 52 53 28 8 29 0.70196 0.10196 0.20000
5 55 54 31 9 30 0.70196 0.10196 0.20000
6 1 3 17 48 44 13 1.00000 0.79216 0.50196
6 5 4 20 54 55 21 1.00000 0.79216 0.50196
6 6 7 23 53 52 22 1.00000 0.79216 0.50196
6 10 11 34 38 36 32 1.00000 0.79216 0.50196
6 10 33 37 39 35 11 1.00000 0.79216 0.50196
6 12 45 49 16 2 0 1.00000 0.79216 0.50196
6 14 0 2 18 51 47 1.00000 0.79216 0.50196
6 15 46 50 19 3 1 1.00000 0.79216 0.50196
6 17 43 31 54 20 48 1.00000 0.79216 0.50196
6 21 55 30 42 16 49 1.00000 0.79216 0.50196
6 23 51 18 40 28 53 1.00000 0.79216 0.50196
6 28 40 42 30 9 8 1.00000 0.79216 0.50196
6 32 36 14 47 27 57 1.00000 0.79216 0.50196
6 33 56 26 46 15 37 1.00000 0.79216 0.50196
6 34 59 25 45 12 38 1.00000 0.79216 0.50196
6 35 39 13 44 24 58 1.00000 0.79216 0.50196
6 43 41 29 8 9 31 1.00000 0.79216 0.50196
6 50 22 52 29 41 19 1.00000 0.79216 0.50196
6 56 57 27 7 6 26 1.00000 0.79216 0.50196
6 59 58 24 4 5 25 1.00000 0.79216 0.50196
