OFF
60 92 150
-0.33514771594934545 0.37104717825896055 -0.64497105964678625
-0.33514771594934545 -0.37104717825896055 0.64497105964678625
0.33514771594934545 0.37104717825896055 0.64497105964678625
0.33514771594934545 -0.37104717825896055 -0.64497105964678625
0.37104717825896055 0.64497105964678625 0.33514771594934545
0.37104717825896055 -0.64497105964678625 -0.33514771594934545
-0.37104717825896055 0.64497105964678625 -0.33514771594934545
-0.37104717825896055 -0.64497105964678625 0.33514771594934545
0.64497105964678625 -0.33514771594934545 -0.37104717825896055
0.64497105964678625 0.33514771594934545 0.37104717825896055
-0.64497105964678625 -0.33514771594934545 0.37104717825896055
-0.64497105964678625 0.33514771594934545 -0.37104717825896055
-0.80402628990582992 -0.081264282957271852 0.113690409611387
-0.80402628990582992 0.081264282957271852 -0.113690409611387
0.80402628990582992 -0.081264282957271852 -0.113690409611387
0.80402628990582992 0.081264282957271852 0.113690409611387
-0.081264282957271852 -0.113690409611387 0.80402628990582992
-0.081264282957271852 0.113690409611387 -0.80402628990582992
0.081264282957271852 -0.113690409611387 -0.80402628990582992
0.081264282957271852 0.113690409611387 0.80402628990582992
-0.113690409611387 -0.80402628990582992 0.081264282957271852
-0.113690409611387 0.80402628990582992 -0.081264282957271852
0.113690409611387 -0.80402628990582992 -0.081264282957271852
0.113690409611387 0.80402628990582992 0.081264282957271852
-0.28492362701036256 -0.23955880636270591 -0.72623534260405809
-0.28492362701036256 0.23955880636270591 0.72623534260405809
0.28492362701036256 -0.23955880636270591 0.72623534260405809
0.28492362701036256 0.23955880636270591 -0.72623534260405809
-0.23955880636270591 0.72623534260405809 0.28492362701036256
-0.23955880636270591 -0.72623534260405809 -0.28492362701036256
0.23955880636270591 0.72623534260405809 -0.28492362701036256
0.23955880636270591 -0.72623534260405809 0.28492362701036256
0.72623534260405809 -0.28492362701036256 0.23955880636270591
0.72623534260405809 0.28492362701036256 -0.23955880636270591
-0.72623534260405809 -0.28492362701036256 -0.23955880636270591
-0.72623534260405809 0.28492362701036256 0.23955880636270591
-0.65597080526932317 0.46887857395648458 -0.12586839675131886
-0.65597080526932317 -0.46887857395648458 0.12586839675131886
0.65597080526932317 0.46887857395648458 0.12586839675131886
0.65597080526932317 -0.46887857395648458 -0.12586839675131886
0.46887857395648458 0.12586839675131886 0.65597080526932317
0.46887857395648458 -0.12586839675131886 -0.65597080526932317
-0.46887857395648458 0.12586839675131886 -0.65597080526932317
-0.46887857395648458 -0.12586839675131886 0.65597080526932317
0.12586839675131886 -0.65597080526932317 -0.46887857395648458
0.12586839675131886 0.65597080526932317 0.46887857395648458
-0.12586839675131886 -0.65597080526932317 0.46887857395648458
-0.12586839675131886 0.65597080526932317 -0.46887857395648458
-0.57470652231205133 -0.51910266289546736 -0.25735676864757356
-0.57470652231205133 0.51910266289546736 0.25735676864757356
0.57470652231205133 -0.51910266289546736 0.25735676864757356
0.57470652231205133 0.51910266289546736 -0.25735676864757356
-0.51910266289546736 0.25735676864757356 0.57470652231205133
-0.51910266289546736 -0.25735676864757356 -0.57470652231205133
0.51910266289546736 0.25735676864757356 -0.57470652231205133
0.51910266289546736 -0.25735676864757356 0.57470652231205133
0.25735676864757356 -0.57470652231205133 0.51910266289546736
0.25735676864757356 0.57470652231205133 -0.51910266289546736
-0.25735676864757356 -0.57470652231205133 -0.51910266289546736
-0.25735676864757356 0.57470652231205133 0.51910266289546736
3 0 3 48 0.90196 0.45098 0.00000
3 1 13 29 0.90196 0.45098 0.00000
3 1 29 50 0.90196 0.45098 0.00000
3 1 50 2 0.90196 0.45098 0.00000
3 2 30 49 0.90196 0.45098 0.00000
3 4 16 32 0.90196 0.45098 0.00000
3 5 7 53 0.90196 0.45098 0.00000
3 5 55 7 0.90196 0.45098 0.00000
3 6 52 4 0.90196 0.45098 0.00000
3 7 19 35 0.90196 0.45098 0.00000
3 8 20 24 0.90196 0.45098 0.00000
3 8 24 57 0.90196 0.45098 0.00000
3 8 57 9 0.90196 0.45098 0.00000
3 10 11 58 0.90196 0.45098 0.00000
3 11 23 27 0.90196 0.45098 0.00000
3 11 27 58 0.90196 0.45098 0.00000
3 13 17 29 0.90196 0.45098 0.00000
3 13 21 17 0.90196 0.45098 0.00000
3 14 22 18 0.90196 0.45098 0.00000
3 14 26 22 0.90196 0.45098 0.00000
3 15 31 3 0.90196 0.45098 0.00000
3 16 12 20 0.90196 0.45098 0.00000
3 16 28 12 0.90196 0.45098 0.00000
3 17 33 5 0.90196 0.45098 0.00000
3 18 22 34 0.90196 0.45098 0.00000
3 18 34 6 0.90196 0.45098 0.00000
3 19 31 15 0.90196 0.45098 0.00000
3 20 12 24 0.90196 0.45098 0.00000
3 21 33 17 0.90196 0.45098 0.00000
3 23 15 27 0.90196 0.45098 0.00000
3 23 19 15 0.90196 0.45098 0.00000
3 24 36 57 0.90196 0.45098 0.00000
3 25 9 21 0.90196 0.45098 0.00000
3 25 21 13 0.90196 0.45098 0.00000
3 26 10 22 0.90196 0.45098 0.00000
3 26 38 59 0.90196 0.45098 0.00000
3 26 59 10 0.90196 0.45098 0.00000
3 28 0 12 0.90196 0.45098 0.00000
3 28 51 0 0.90196 0.45098 0.00000
3 29 41 50 0.90196 0.45098 0.00000
3 30 2 14 0.90196 0.45098 0.00000
3 30 14 18 0.90196 0.45098 0.00000
3 32 16 20 0.90196 0.45098 0.00000
3 33 45 55 0.90196 0.45098 0.00000
3 33 55 5 0.90196 0.45098 0.00000
3 34 46 52 0.90196 0.45098 0.00000
3 34 52 6 0.90196 0.45098 0.00000
3 35 19 23 0.90196 0.45098 0.00000
3 36 43 45 0.90196 0.45098 0.00000
3 36 48 43 0.90196 0.45098 0.00000
3 37 44 56 0.90196 0.45098 0.00000
3 37 56 25 0.90196 0.45098 0.00000
3 38 47 59 0.90196 0.45098 0.00000
3 39 51 40 0.90196 0.45098 0.00000
3 40 51 28 0.90196 0.45098 0.00000
3 41 47 38 0.90196 0.45098 0.00000
3 41 53 47 0.90196 0.45098 0.00000
3 42 44 37 0.90196 0.45098 0.00000
3 42 54 44 0.90196 0.45098 0.00000
3 45 43 55 0.90196 0.45098 0.00000
3 46 39 40 0.90196 0.45098 0.00000
3 46 40 52 0.90196 0.45098 0.00000
3 46 58 39 0.90196 0.45098 0.00000
3 48 3 31 0.90196 0.45098 0.00000
3 48 31 43 0.90196 0.45098 0.00000
3 49 1 2 0.90196 0.45098 0.00000
3 49 30 42 0.90196 0.45098 0.00000
3 49 42 37 0.90196 0.45098 0.00000
3 50 41 38 0.90196 0.45098 0.00000
3 51 3 0 0.90196 0.45098 0.00000
3 53 7 35 0.90196 0.45098 0.00000
3 53 35 47 0.90196 0.45098 0.00000
3 54 4 32 0.90196 0.45098 0.00000
3 54 6 4 0.90196 0.45098 0.00000
3 54 32 44 0.90196 0.45098 0.00000
3 56 8 9 0.90196 0.45098 0.00000
3 56 9 25 0.90196 0.45098 0.00000
3 57 36 45 0.90196 0.45098 0.00000
3 58 27 39 0.90196 0.45098 0.00000
3 59 11 10 0.90196 0.45098 0.00000
5 2 50 38 26 14 0.70196 0.10196 0.20000
5 4 52 40 28 16 0.70196 0.10196 0.20000
5 9 57 45 33 21 0.70196 0.10196 0.20000
5 22 10 58 46 34 0.70196 0.10196 0.20000
5 24 12 0 48 36 0.70196 0.10196 0.20000
5 29 17 5 53 41 0.70196 0.10196 0.20000
5 30 18 6 54 42 0.70196 0.10196 0.20000
5 39 27 15 3 51 0.70196 0.10196 0.20000
5 44 32 20 8 56 0.70196 0.10196 0.20000
5 49 37 25 13 1 0.70196 0.10196 0.20000
5 55 43 31 19 7 0.70196 0.10196 0.20000
5 59 47 35 23 11 0.70196 0.10196 0.20000
