OFF
120 54 180
0.5 1.5 0.5
0.5 1.5 -0.5
0.5 -1.5 0.5
0.5 -1.5 -0.5
-0.5 1.5 0.5
-0.5 1.5 -0.5
-0.5 -1.5 0.5
-0.5 -1.5 -0.5
0.5 0.5 1.5
0.5 0.5 -1.5
0.5 -0.5 1.5
0.5 -0.5 -1.5
-0.5 0.5 1.5
-0.5 0.5 -1.5
-0.5 -0.5 1.5
-0.5 -0.5 -1.5
1.5 0.5 0.5
1.5 0.5 -0.5
1.5 -0.5 0.5
1.5 -0.5 -0.5
-1.5 0.5 0.5
-1.5 0.5 -0.5
-1.5 -0.5 0.5
-1.5 -0.5 -0.5
0.3090169943749474 1.6180339887498949 0.19098300562505258
0.3090169943749474 1.6180339887498949 -0.19098300562505258
0.3090169943749474 -1.6180339887498949 0.19098300562505258
0.3090169943749474 -1.6180339887498949 -0.19098300562505258
-0.3090169943749474 1.6180339887498949 0.19098300562505258
-0.3090169943749474 1.6180339887498949 -0.19098300562505258
-0.3090169943749474 -1.6180339887498949 0.19098300562505258
-0.3090169943749474 -1.6180339887498949 -0.19098300562505258
0.19098300562505258 0.3090169943749474 1.6180339887498949
0.19098300562505258 0.3090169943749474 -1.6180339887498949
0.19098300562505258 -0.3090169943749474 1.6180339887498949
0.19098300562505258 -0.3090169943749474 -1.6180339887498949
-0.19098300562505258 0.3090169943749474 1.6180339887498949
-0.19098300562505258 0.3090169943749474 -1.6180339887498949
-0.19098300562505258 -0.3090169943749474 1.6180339887498949
-0.19098300562505258 -0.3090169943749474 -1.6180339887498949
1.6180339887498949 0.19098300562505258 0.3090169943749474
1.6180339887498949 0.19098300562505258 -0.3090169943749474
1.6180339887498949 -0.19098300562505258 0.3090169943749474
1.6180339887498949 -0.19098300562505258 -0.3090169943749474
-1.6180339887498949 0.19098300562505258 0.3090169943749474
-1.6180339887498949 0.19098300562505258 -0.3090169943749474
-1.6180339887498949 -0.19098300562505258 0.3090169943749474
-1.6180339887498949 -0.19098300562505258 -0.3090169943749474
0.80901699437494745 1.3090169943749475 0.61803398874989479
0.80901699437494745 1.3090169943749475 -0.61803398874989479
0.80901699437494745 -1.3090169943749475 0.61803398874989479
0.80901699437494745 -1.3090169943749475 -0.61803398874989479
-0.80901699437494745 1.3090169943749475 0.61803398874989479
-0.80901699437494745 1.3090169943749475 -0.61803398874989479
-0.80901699437494745 -1.3090169943749475 0.61803398874989479
-0.80901699437494745 -1.3090169943749475 -0.61803398874989479
0.61803398874989479 0.80901699437494745 1.3090169943749475
0.61803398874989479 0.80901699437494745 -1.3090169943749475
0.61803398874989479 -0.80901699437494745 1.3090169943749475
0.61803398874989479 -0.80901699437494745 -1.3090169943749475
-0.61803398874989479 0.80901699437494745 1.3090169943749475
-0.61803398874989479 0.80901699437494745 -1.3090169943749475
-0.61803398874989479 -0.80901699437494745 1.3090169943749475
-0.61803398874989479 -0.80901699437494745 -1.3090169943749475
1.3090169943749475 0.61803398874989479 0.80901699437494745
1.3090169943749475 0.61803398874989479 -0.80901699437494745
1.3090169943749475 -0.61803398874989479 0.80901699437494745
1.3090169943749475 -0.61803398874989479 -0.80901699437494745
-1.3090169943749475 0.61803398874989479 0.80901699437494745
-1.3090169943749475 0.61803398874989479 -0.80901699437494745
-1.3090169943749475 -0.61803398874989479 0.80901699437494745
-1.3090169943749475 -0.61803398874989479 -0.80901699437494745
1.3090169943749475 1 0.19098300562505258
1.3090169943749475 1 -0.19098300562505258
1.3090169943749475 -1 0.19098300562505258
1.3090169943749475 -1 -0.19098300562505258
-1.3090169943749475 1 0.19098300562505258
-1.3090169943749475 1 -0.19098300562505258
-1.3090169943749475 -1 0.19098300562505258
-1.3090169943749475 -1 -0.19098300562505258
0.19098300562505258 1.3090169943749475 1
0.19098300562505258 1.3090169943749475 -1
0.19098300562505258 -1.3090169943749475 1
0.19098300562505258 -1.3090169943749475 -1
-0.19098300562505258 1.3090169943749475 1
-0.19098300562505258 1.3090169943749475 -1
-0.19098300562505258 -1.3090169943749475 1
-0.19098300562505258 -1.3090169943749475 -1
1 0.19098300562505258 1.3090169943749475
1 0.19098300562505258 -1.3090169943749475
1 -0.19098300562505258 1.3090169943749475
1 -0.19098300562505258 -1.3090169943749475
-1 0.19098300562505258 1.3090169943749475
-1 0.19098300562505258 -1.3090169943749475
-1 -0.19098300562505258 1.3090169943749475
-1 -0.19098300562505258 -1.3090169943749475
1.1180339887498949 1.1180339887498949 0.5
1.1180339887498949 1.1180339887498949 -0.5
1.1180339887498949 -1.1180339887498949 0.5
1.1180339887498949 -1.1180339887498949 -0.5
-1.1180339887498949 1.1180339887498949 0.5
-1.1180339887498949 1.1180339887498949 -0.5
-1.1180339887498949 -1.1180339887498949 0.5
-1.1180339887498949 -1.1180339887498949 -0.5
0.5 1.1180339887498949 1.1180339887498949
0.5 1.1180339887498949 -1.1180339887498949
0.5 -1.1180339887498949 1.1180339887498949
0.5 -1.1180339887498949 -1.1180339887498949
-0.5 1.1180339887498949 1.1180339887498949
-0.5 1.1180339887498949 -1.1180339887498949
-0.5 -1.1180339887498949 1.1180339887498949
-0.5 -1.1180339887498949 -1.1180339887498949
1.1180339887498949 0.5 1.1180339887498949
1.1180339887498949 0.5 -1.1180339887498949
1.1180339887498949 -0.5 1.1180339887498949
1.1180339887498949 -0.5 -1.1180339887498949
-1.1180339887498949 0.5 1.1180339887498949
-1.1180339887498949 0.5 -1.1180339887498949
-1.1180339887498949 -0.5 1.1180339887498949
-1.1180339887498949 -0.5 -1.1180339887498949
4 1 5 4 0 0.05098 0.32157 0.50196
4 3 2 6 7 0.05098 0.32157 0.50196
4 10 8 12 14 0.05098 0.32157 0.50196
4 13 9 11 15 0.05098 0.32157 0.50196
4 16 18 19 17 0.05098 0.32157 0.50196
4 20 21 23 22 0.05098 0.32157 0.50196
4 25 97 57 85 0.05098 0.32157 0.50196
4 27 87 59 99 0.05098 0.32157 0.50196
4 29 81 61 101 0.05098 0.32157 0.50196
4 37 95 69 109 0.05098 0.32157 0.50196
4 40 73 48 112 0.05098 0.32157 0.50196
4 43 74 51 115 0.05098 0.32157 0.50196
4 44 116 52 77 0.05098 0.32157 0.50196
4 55 78 47 119 0.05098 0.32157 0.50196
4 58 86 26 98 0.05098 0.32157 0.50196
4 60 80 28 100 0.05098 0.32157 0.50196
4 62 102 30 82 0.05098 0.32157 0.50196
4 66 88 34 106 0.05098 0.32157 0.50196
4 72 41 113 49 0.05098 0.32157 0.50196
4 76 53 117 45 0.05098 0.32157 0.50196
4 89 67 107 35 0.05098 0.32157 0.50196
4 90 64 104 32 0.05098 0.32157 0.50196
4 91 33 105 65 0.05098 0.32157 0.50196
4 96 24 84 56 0.05098 0.32157 0.50196
4 103 63 83 31 0.05098 0.32157 0.50196
4 108 68 94 36 0.05098 0.32157 0.50196
4 110 38 92 70 0.05098 0.32157 0.50196
4 111 71 93 39 0.05098 0.32157 0.50196
4 114 50 75 42 0.05098 0.32157 0.50196
4 118 46 79 54 0.05098 0.32157 0.50196
10 0 4 76 45 71 111 107 67 41 72 0.40392 0.10196 1.00000
10 5 77 52 29 101 100 28 53 76 4 1.00000 0.50196 0.95686
10 17 19 91 65 43 115 113 41 67 89 1.00000 0.50196 0.95686
10 18 90 32 60 100 101 61 33 91 19 0.40392 0.10196 1.00000
10 21 93 71 45 117 119 47 69 95 23 1.00000 0.50196 0.95686
10 32 104 108 36 56 84 12 8 80 60 1.00000 0.50196 0.95686
10 35 107 111 39 59 87 15 11 83 63 1.00000 0.50196 0.95686
10 38 58 98 99 59 39 93 21 20 92 0.40392 0.10196 1.00000
10 42 75 3 7 79 46 68 108 104 64 0.40392 0.10196 1.00000
10 50 27 99 98 26 51 74 2 3 75 1.00000 0.50196 0.95686
10 65 105 109 69 47 78 6 2 74 43 0.40392 0.10196 1.00000
10 66 40 112 114 42 64 90 18 16 88 1.00000 0.50196 0.95686
10 70 92 20 22 94 68 46 118 116 44 1.00000 0.50196 0.95686
10 73 1 0 72 49 24 96 97 25 48 1.00000 0.50196 0.95686
10 82 30 55 119 117 53 28 80 8 10 0.40392 0.10196 1.00000
10 85 57 37 109 105 33 61 81 9 13 1.00000 0.50196 0.95686
10 86 14 12 84 24 49 113 115 51 26 0.40392 0.10196 1.00000
10 88 16 17 89 35 63 103 102 62 34 0.40392 0.10196 1.00000
10 97 96 56 36 94 22 23 95 37 57 0.40392 0.10196 1.00000
10 102 103 31 54 79 7 6 78 55 30 1.00000 0.50196 0.95686
10 106 34 62 82 10 14 86 58 38 110 1.00000 0.50196 0.95686
10 106 110 70 44 77 5 1 73 40 66 0.40392 0.10196 1.00000
10 112 48 25 85 13 15 87 27 50 114 0.40392 0.10196 1.00000
10 116 118 54 31 83 11 9 81 29 52 0.40392 0.10196 1.00000
