OFF
30 18 60
0 0.6180339887498949 0
0 -0.6180339887498949 0
0 0 0.6180339887498949
0 0 -0.6180339887498949
0.6180339887498949 0 0
-0.6180339887498949 0 0
0.19098300562505258 0.5 0.30901699437494745
0.19098300562505258 0.5 -0.30901699437494745
0.19098300562505258 -0.5 0.30901699437494745
0.19098300562505258 -0.5 -0.30901699437494745
-0.19098300562505258 0.5 0.30901699437494745
-0.19098300562505258 0.5 -0.30901699437494745
-0.19098300562505258 -0.5 0.30901699437494745
-0.19098300562505258 -0.5 -0.30901699437494745
0.30901699437494745 0.19098300562505258 0.5
0.30901699437494745 0.19098300562505258 -0.5
0.30901699437494745 -0.19098300562505258 0.5
0.30901699437494745 -0.19098300562505258 -0.5
-0.30901699437494745 0.19098300562505258 0.5
-0.30901699437494745 0.19098300562505258 -0.5
-0.30901699437494745 -0.19098300562505258 0.5
-0.30901699437494745 -0.19098300562505258 -0.5
0.5 0.30901699437494745 0.19098300562505258
0.5 0.30901699437494745 -0.19098300562505258
0.5 -0.30901699437494745 0.19098300562505258
0.5 -0.30901699437494745 -0.19098300562505258
-0.5 0.30901699437494745 0.19098300562505258
-0.5 0.30901699437494745 -0.19098300562505258
-0.5 -0.30901699437494745 0.19098300562505258
-0.5 -0.30901699437494745 -0.19098300562505258
5 29 10 12 27 2 0.70196 0.10196 0.20000
5 28 11 13 26 3 0.70196 0.10196 0.20000
5 6 19 18 7 5 0.70196 0.10196 0.20000
5 8 6 25 2 23 0.70196 0.10196 0.20000
5 5 8 21 20 9 0.70196 0.10196 0.20000
5 9 22 3 24 7 0.70196 0.10196 0.20000
5 4 13 16 17 12 0.70196 0.10196 0.20000
5 15 10 4 11 14 0.70196 0.10196 0.20000
5 22 26 16 0 20 0.70196 0.10196 0.20000
5 24 28 14 1 18 0.70196 0.10196 0.20000
5 29 15 1 19 25 0.70196 0.10196 0.20000
5 27 17 0 21 23 0.70196 0.10196 0.20000
10 9 22 26 13 4 10 29 25 6 5 1.00000 0.50196 0.95686
10 7 24 28 11 4 12 27 23 8 5 1.00000 0.50196 0.95686
10 8 21 0 16 13 11 14 1 19 6 1.00000 0.50196 0.95686
10 18 1 15 10 12 17 0 20 9 7 1.00000 0.50196 0.95686
10 19 25 2 27 17 16 26 3 24 18 1.00000 0.50196 0.95686
10 23 2 29 15 14 28 3 22 20 21 1.00000 0.50196 0.95686
