# Generated using Miratope v0.5.0 (https://github.com/galoomba1/miratope-rs)
4OFF

# Vertices, Faces, Edges, Cells
120 720 720 120

# Vertices
0.809016994374945 0.809016994374945 0.809016994374945 0.809016994374945 
1.30901699437495 0.809016994374945 0.5 0 
0.809016994374945 0 0.5 1.30901699437495 
0 1.30901699437495 0.5 0.809016994374945 
0.809016994374945 0.809016994374945 -0.809016994374945 -0.809016994374945 
0.809016994374945 1.30901699437495 0 -0.5 
1.30901699437495 0 -0.809016994374945 -0.5 
0 0.809016994374945 -1.30901699437495 -0.5 
0.809016994374945 -0.809016994374945 -0.809016994374945 0.809016994374945 
1.30901699437495 -0.5 0 0.809016994374945 
0 -0.5 -0.809016994374945 1.30901699437495 
0.809016994374945 -0.5 -1.30901699437495 0 
-0.809016994374945 0.809016994374945 -0.809016994374945 0.809016994374945 
-0.5 0.809016994374945 0 1.30901699437495 
-0.5 1.30901699437495 -0.809016994374945 0 
-0.5 0 -1.30901699437495 0.809016994374945 
1.61803398874989 0 0 0 
0 1.61803398874989 0 0 
0 0 0 1.61803398874989 
0 0 -1.61803398874989 0 
0.5 -1.30901699437495 -0.809016994374945 0 
-0.809016994374945 -0.809016994374945 -0.809016994374945 0.809016994374945 
-1.30901699437495 -0.5 0 0.809016994374945 
-0.5 -1.30901699437495 -0.809016994374945 0 
-0.809016994374945 0 0.5 1.30901699437495 
0.5 0 1.30901699437495 0.809016994374945 
0.809016994374945 -0.5 1.30901699437495 0 
-0.5 0 1.30901699437495 0.809016994374945 
1.30901699437495 -0.809016994374945 0.5 0 
0 -0.809016994374945 1.30901699437495 -0.5 
-0.809016994374945 -0.5 1.30901699437495 0 
0.809016994374945 -1.30901699437495 0 -0.5 
-1.30901699437495 -0.809016994374945 0.5 0 
0 -1.30901699437495 0.5 -0.809016994374945 
-0.809016994374945 -1.30901699437495 0 -0.5 
-0.809016994374945 0.809016994374945 0.809016994374945 0.809016994374945 
-1.30901699437495 0.809016994374945 0.5 0 
-0.809016994374945 1.30901699437495 0 -0.5 
1.30901699437495 0 0.809016994374945 -0.5 
0.809016994374945 0 0.5 -1.30901699437495 
0.5 0.809016994374945 0 -1.30901699437495 
-0.5 0.809016994374945 0 -1.30901699437495 
-1.30901699437495 0 0.809016994374945 -0.5 
0 -0.5 0.809016994374945 -1.30901699437495 
-0.809016994374945 0 0.5 -1.30901699437495 
0.809016994374945 1.30901699437495 0 0.5 
0 0.809016994374945 1.30901699437495 0.5 
0.809016994374945 0.809016994374945 -0.809016994374945 0.809016994374945 
0.809016994374945 0 -0.5 1.30901699437495 
0 0.809016994374945 -1.30901699437495 0.5 
-0.5 1.30901699437495 0.809016994374945 0 
0 -0.5 0.809016994374945 1.30901699437495 
-1.30901699437495 0 0.809016994374945 0.5 
-0.5 -0.809016994374945 0 1.30901699437495 
-1.30901699437495 0.809016994374945 -0.5 0 
-1.30901699437495 0 -0.809016994374945 0.5 
1.30901699437495 0 0.809016994374945 0.5 
1.30901699437495 0.809016994374945 -0.5 0 
0 1.30901699437495 -0.5 -0.809016994374945 
0.809016994374945 0 -0.5 -1.30901699437495 
0.809016994374945 -0.809016994374945 0.809016994374945 -0.809016994374945 
1.30901699437495 -0.5 0 -0.809016994374945 
-0.809016994374945 0.809016994374945 0.809016994374945 -0.809016994374945 
-0.5 0 1.30901699437495 -0.809016994374945 
0 0 1.61803398874989 0 
0 0 0 -1.61803398874989 
0.809016994374945 -0.809016994374945 -0.809016994374945 -0.809016994374945 
0 -1.30901699437495 -0.5 -0.809016994374945 
1.30901699437495 0 -0.809016994374945 0.5 
0 -0.809016994374945 1.30901699437495 0.5 
-0.5 -1.30901699437495 0.809016994374945 0 
-0.809016994374945 -1.30901699437495 0 0.5 
0 -0.809016994374945 -1.30901699437495 0.5 
0.5 1.30901699437495 0.809016994374945 0 
0.5 0.809016994374945 0 1.30901699437495 
0 0.809016994374945 1.30901699437495 -0.5 
0 1.30901699437495 -0.5 0.809016994374945 
-0.809016994374945 0 -0.5 1.30901699437495 
-0.809016994374945 -0.809016994374945 0.809016994374945 0.809016994374945 
-1.61803398874989 0 0 0 
0.809016994374945 0.809016994374945 0.809016994374945 -0.809016994374945 
1.30901699437495 -0.809016994374945 -0.5 0 
0.5 0 -1.30901699437495 0.809016994374945 
0.5 0 -1.30901699437495 -0.809016994374945 
-0.809016994374945 -0.809016994374945 0.809016994374945 -0.809016994374945 
0.5 0 1.30901699437495 -0.809016994374945 
0.5 -0.809016994374945 0 1.30901699437495 
0 -1.30901699437495 -0.5 0.809016994374945 
0.5 -0.809016994374945 0 -1.30901699437495 
-0.809016994374945 1.30901699437495 0 0.5 
0 0.5 -0.809016994374945 1.30901699437495 
-0.809016994374945 0.5 1.30901699437495 0 
0 -1.30901699437495 0.5 0.809016994374945 
1.30901699437495 0.5 0 -0.809016994374945 
0.5 1.30901699437495 -0.809016994374945 0 
0.809016994374945 -1.30901699437495 0 0.5 
0 1.30901699437495 0.5 -0.809016994374945 
0.5 -1.30901699437495 0.809016994374945 0 
1.30901699437495 0.5 0 0.809016994374945 
0.809016994374945 -0.809016994374945 0.809016994374945 0.809016994374945 
0 0.5 0.809016994374945 -1.30901699437495 
0 0.5 0.809016994374945 1.30901699437495 
-1.30901699437495 0.5 0 0.809016994374945 
-1.30901699437495 -0.809016994374945 -0.5 0 
0 -1.61803398874989 0 0 
0.809016994374945 0.5 -1.30901699437495 0 
-0.809016994374945 0.5 -1.30901699437495 0 
0.809016994374945 0.5 1.30901699437495 0 
-1.30901699437495 0.5 0 -0.809016994374945 
-1.30901699437495 -0.5 0 -0.809016994374945 
-0.809016994374945 0.809016994374945 -0.809016994374945 -0.809016994374945 
0 -0.809016994374945 -1.30901699437495 -0.5 
0 0.5 -0.809016994374945 -1.30901699437495 
-0.809016994374945 -0.809016994374945 -0.809016994374945 -0.809016994374945 
-0.809016994374945 -0.5 -1.30901699437495 0 
0 -0.5 -0.809016994374945 -1.30901699437495 
-0.809016994374945 0 -0.5 -1.30901699437495 
-1.30901699437495 0 -0.809016994374945 -0.5 
-0.5 0 -1.30901699437495 -0.809016994374945 
-0.5 -0.809016994374945 0 -1.30901699437495 

# Faces
5 1 16 9 2 0
5 0 1 5 17 3
5 2 0 3 13 18
5 4 6 16 1 5
5 17 5 4 7 14
5 4 7 19 11 6
5 8 9 2 18 10
5 9 8 11 6 16
5 8 10 15 19 11
5 17 14 12 13 3
5 12 15 10 18 13
5 12 15 19 7 14
5 9 8 20 31 28
5 8 10 21 23 20
5 21 10 18 24 22
5 32 22 21 23 34
5 18 24 27 25 2
5 9 2 25 26 28
5 26 29 30 27 25
5 28 31 33 29 26
5 24 27 30 32 22
5 30 32 34 33 29
5 33 31 20 23 34
5 1 0 25 26 38
5 0 25 27 35 3
5 35 3 17 37 36
5 27 30 42 36 35
5 5 40 41 37 17
5 5 1 38 39 40
5 26 38 39 43 29
5 36 42 44 41 37
5 29 30 42 44 43
5 39 40 41 44 43
5 0 45 47 48 2
5 45 17 50 46 0
5 0 46 27 51 2
5 14 49 47 45 17
5 10 48 47 49 15
5 17 14 54 36 50
5 48 2 51 53 10
5 50 36 52 27 46
5 51 27 52 22 53
5 49 14 54 55 15
5 10 15 55 22 53
5 52 36 54 55 22
5 0 56 16 57 45
5 0 56 26 64 46
5 4 58 17 45 57
5 57 16 61 59 4
5 58 41 65 59 4
5 60 26 56 16 61
5 64 26 60 43 63
5 59 61 60 43 65
5 50 62 63 64 46
5 17 50 62 41 58
5 62 41 65 43 63
5 60 26 69 70 33
5 60 61 66 67 33
5 61 66 11 68 16
5 66 67 23 72 11
5 16 56 2 48 68
5 56 2 51 69 26
5 10 72 11 68 48
5 69 51 53 71 70
5 10 53 71 23 72
5 71 70 33 67 23
5 73 17 76 74 0
5 25 64 75 73 0
5 74 0 25 51 18
5 17 73 75 62 37
5 30 64 75 62 42
5 62 42 79 54 37
5 74 76 12 77 18
5 12 54 37 17 76
5 12 54 79 22 77
5 25 51 78 30 64
5 51 18 77 22 78
5 78 30 42 79 22
5 80 73 0 56 38
5 0 74 48 9 56
5 73 17 58 40 80
5 61 38 80 40 59
5 58 7 49 76 17
5 9 56 38 61 81
5 76 74 48 82 49
5 81 9 48 82 11
5 61 81 11 83 59
5 58 40 59 83 7
5 82 11 83 7 49
5 86 51 78 71 87
5 78 30 84 34 71
5 30 64 85 43 84
5 43 88 67 34 84
5 56 25 64 85 38
5 25 56 9 86 51
5 9 86 87 20 81
5 38 61 88 43 85
5 20 81 61 88 67
5 71 34 67 20 87
5 89 3 74 90 12
5 12 89 36 79 55
5 10 90 12 55 21
5 86 10 21 71 92
5 32 71 21 55 79
5 30 91 36 79 32
5 25 2 74 3 46
5 86 2 74 90 10
5 25 69 92 86 2
5 25 46 91 30 69
5 46 91 36 89 3
5 92 69 30 32 71
5 93 1 45 94 4
5 66 83 4 93 61
5 94 49 19 83 4
5 66 20 95 28 61
5 19 83 66 20 72
5 72 19 49 90 10
5 2 74 45 1 56
5 28 56 1 93 61
5 2 86 95 28 56
5 45 74 90 49 94
5 72 20 95 86 10
5 62 91 46 73 96
5 30 91 62 44 84
5 96 40 65 44 62
5 84 33 97 69 30
5 65 44 84 33 88
5 88 65 40 93 61
5 56 25 46 73 1
5 93 40 96 73 1
5 56 28 97 69 25
5 97 28 61 88 33
5 73 0 98 57 5
5 0 25 99 9 98
5 64 29 97 99 25
5 99 9 81 31 97
5 75 64 29 43 100
5 98 9 81 6 57
5 75 100 40 5 73
5 40 59 6 57 5
5 6 59 88 31 81
5 29 43 88 31 97
5 88 59 40 100 43
5 25 101 18 86 99
5 86 99 97 104 87
5 64 91 35 101 25
5 35 102 77 18 101
5 35 102 79 42 91
5 64 91 42 84 29
5 34 104 97 29 84
5 79 42 84 34 103
5 77 18 86 87 21
5 102 77 21 103 79
5 104 87 21 103 34
5 0 101 18 48 98
5 0 101 35 50 73
5 102 54 37 50 35
5 82 15 77 18 48
5 48 98 57 105 82
5 50 73 5 58 37
5 57 105 7 58 5
5 7 106 54 37 58
5 77 102 54 106 15
5 82 105 7 106 15
5 80 107 0 45 5
5 2 99 26 107 0
5 80 107 26 60 39
5 5 4 59 39 80
5 5 45 47 105 4
5 8 48 47 105 11
5 2 99 95 8 48
5 99 26 60 31 95
5 4 59 66 11 105
5 11 8 95 31 66
5 60 31 66 59 39
5 0 45 76 13 101
5 64 107 0 101 27
5 80 100 63 64 107
5 58 41 100 80 5
5 63 42 52 27 64
5 58 14 76 45 5
5 27 101 13 102 52
5 14 76 13 102 54
5 41 108 54 14 58
5 100 63 42 108 41
5 52 102 54 108 42
5 2 101 27 69 99
5 95 104 70 69 99
5 8 48 90 15 72
5 95 104 23 72 8
5 32 70 104 23 103
5 48 2 101 13 90
5 55 102 13 90 15
5 69 27 52 32 70
5 52 32 103 55 102
5 23 103 55 15 72
5 68 98 2 86 8
5 20 8 68 6 66
5 92 104 20 8 86
5 66 6 93 39 88
5 66 88 33 104 20
5 29 69 92 104 33
5 1 107 25 2 98
5 93 6 68 98 1
5 93 39 85 107 1
5 69 29 85 107 25
5 29 85 39 88 33
5 69 78 24 101 25
5 24 102 79 32 78
5 29 69 78 32 84
5 84 29 85 100 44
5 84 32 79 108 44
5 79 102 89 37 108
5 25 107 73 3 101
5 107 73 96 100 85
5 96 37 89 3 73
5 3 101 24 102 89
5 96 100 44 108 37
5 19 105 68 8 72
5 8 86 53 21 72
5 55 102 24 53 21
5 21 72 19 106 55
5 19 105 94 14 106
5 101 2 98 45 3
5 45 98 68 105 94
5 94 14 89 3 45
5 101 2 86 53 24
5 89 102 55 106 14
5 0 74 47 57 1
5 47 74 18 10 82
5 6 57 47 82 11
5 10 18 51 92 87
5 38 61 6 57 1
5 26 25 51 92 97
5 26 97 31 61 38
5 11 20 31 61 6
5 82 10 87 20 11
5 31 20 87 92 97
5 46 25 51 24 35
5 35 36 62 75 46
5 24 35 36 79 22
5 62 44 43 85 75
5 79 109 44 62 36
5 71 22 79 109 34
5 46 25 26 85 75
5 97 26 85 43 33
5 92 71 22 24 51
5 34 71 92 97 33
5 43 33 34 109 44
5 46 0 1 80 75
5 0 74 13 35 46
5 4 40 80 1 57
5 40 41 62 75 80
5 47 74 13 12 49
5 47 57 4 7 49
5 36 54 12 13 35
5 40 4 7 110 41
5 62 36 54 110 41
5 7 110 54 12 49
5 99 56 0 101 51
5 56 99 95 81 16
5 53 87 95 99 51
5 11 105 57 16 81
5 49 105 57 45 76
5 101 51 53 77 13
5 49 76 13 77 15
5 11 72 87 95 81
5 15 72 87 53 77
5 11 105 49 15 72
5 62 108 54 89 50
5 62 63 84 109 108
5 70 84 63 64 69
5 70 71 103 109 84
5 51 69 64 46 101
5 46 101 13 89 50
5 13 89 54 55 77
5 55 77 53 71 103
5 55 103 109 108 54
5 21 71 78 24 77
5 97 104 71 78 69
5 21 77 90 82 72
5 72 21 71 104 20
5 97 104 20 81 28
5 98 56 25 101 74
5 56 98 68 81 28
5 90 82 68 98 74
5 101 74 90 77 24
5 81 68 82 72 20
5 91 52 79 108 62
5 62 96 58 110 108
5 110 106 49 94 58
5 55 106 110 108 79
5 79 55 77 24 52
5 45 73 46 101 74
5 94 58 96 73 45
5 101 46 91 52 24
5 49 106 55 77 90
5 50 73 80 100 62
5 60 38 80 100 43
5 99 56 38 60 97
5 97 70 78 51 99
5 35 52 78 51 101
5 50 35 52 42 62
5 84 43 60 97 70
5 84 42 62 100 43
5 42 52 78 70 84
5 48 86 99 56 98
5 38 93 59 88 60
5 104 67 88 60 97
5 72 87 104 67 111
5 38 93 57 98 56
5 59 93 57 105 83
5 86 48 82 72 87
5 82 105 83 111 72
5 83 111 67 88 59
5 0 107 75 50 3
5 2 99 92 53 18
5 29 26 99 92 70
5 22 102 13 18 53
5 107 26 29 63 75
5 50 3 13 102 36
5 42 36 50 75 63
5 22 53 92 70 32
5 70 29 63 42 32
5 36 102 22 32 42
5 98 16 38 107 0
5 3 76 47 98 0
5 6 105 47 98 16
5 14 76 47 105 7
5 6 59 39 38 16
5 39 100 75 107 38
5 50 3 76 14 37
5 37 41 100 75 50
5 7 112 59 6 105
5 14 37 41 112 7
5 39 100 41 112 59
5 47 98 2 18 90
5 15 90 47 105 19
5 2 98 16 28 99
5 104 31 28 99 92
5 31 66 6 16 28
5 19 111 66 6 105
5 66 31 104 23 111
5 53 21 15 90 18
5 21 23 104 92 53
5 23 111 19 15 21
5 107 56 28 60 85
5 33 104 95 28 60
5 33 60 85 63 84
5 52 32 84 63 91
5 33 104 71 32 84
5 95 104 71 53 86
5 2 56 107 46 101
5 91 46 107 85 63
5 53 24 52 32 71
5 28 60 88 66 81
5 65 100 85 60 88
5 83 105 68 81 66
5 83 112 65 88 66
5 96 100 65 112 58
5 107 56 98 45 73
5 94 105 83 112 58
5 96 17 94 4 40
5 65 115 83 4 40
5 36 62 96 17 89
5 89 17 94 49 12
5 55 114 19 49 12
5 79 109 113 114 55
5 44 109 113 115 65
5 83 115 113 114 19
5 65 39 61 66 115
5 115 66 20 23 113
5 23 113 109 32 71
5 85 63 44 65 39
5 39 61 28 26 85
5 28 95 92 69 26
5 69 26 85 63 30
5 30 63 44 109 32
5 20 23 71 92 95
5 26 85 80 1 56
5 1 45 17 96 80
5 63 62 96 80 85
5 62 36 52 30 63
5 45 17 89 13 74
5 51 2 74 13 24
5 52 24 13 89 36
5 69 30 52 24 51
5 110 37 62 44 116
5 17 94 7 110 37
5 7 83 115 116 110
5 73 17 94 57 1
5 73 1 38 85 75
5 6 83 7 94 57
5 88 115 83 6 61
5 43 44 116 115 88
5 29 30 78 92 97
5 87 21 22 78 92
5 21 114 117 79 22
5 87 20 111 114 21
5 42 44 116 117 79
5 20 31 88 115 111
5 115 111 114 117 116
5 50 17 76 13 35
5 13 77 22 52 35
5 41 62 42 109 116
5 15 77 22 103 114
5 58 7 118 116 41
5 52 22 103 109 42
5 15 114 118 7 49
5 103 109 116 118 114
5 26 99 51 27 64
5 60 31 67 119 43
5 53 22 103 23 87
5 43 119 109 42 63
5 95 31 67 23 87
5 109 103 23 67 119
5 5 96 41 112 4
5 6 66 115 112 4
5 31 66 115 119 33
5 1 107 26 28 16
5 1 107 75 96 5
5 41 96 75 63 44
5 29 63 44 119 33
5 44 119 115 112 41
5 14 37 36 102 12
5 22 21 15 12 102
5 19 111 115 112 7
5 42 32 34 119 44
5 23 34 119 115 111
5 17 94 47 74 3
5 82 19 7 94 47
5 35 24 18 74 3
5 37 110 117 79 36
5 114 19 7 110 117
5 10 21 114 19 82
5 80 5 17 50 75
5 39 80 75 63 43
5 7 118 115 59 4
5 54 14 7 118 117
5 54 36 42 109 117
5 39 59 115 119 43
5 117 109 119 115 118
5 84 109 79 52 30
5 84 33 67 113 109
5 20 67 113 114 72
5 86 10 77 24 51
5 51 86 95 97 69
5 72 114 55 77 10
5 33 97 95 20 67
5 37 58 40 100 62
5 54 106 114 103 79
5 83 111 114 106 7
5 67 34 103 114 111
5 35 101 74 76 89
5 54 79 52 35 89
5 103 71 78 52 79
5 48 86 51 101 74
5 106 49 76 89 54
5 82 49 106 114 72
5 87 72 114 103 71
5 8 82 47 98 9
5 12 15 82 47 76
5 25 99 92 78 27
5 87 8 9 99 92
5 12 102 35 3 76
5 78 27 35 102 22
5 87 8 82 15 21
5 99 28 38 107 25
5 42 32 78 27 91
5 32 34 104 92 78
5 34 104 31 88 119
5 25 27 91 75 107
5 31 88 39 38 28
5 42 91 75 100 44
5 44 100 39 88 119
5 16 93 80 107 56
5 59 93 80 100 65
5 69 64 107 56 99
5 16 93 59 66 81
5 95 81 66 67 104
5 67 119 65 59 66
5 84 63 100 65 119
5 70 84 119 67 104
5 4 112 65 39 93
5 94 14 110 112 4
5 89 36 108 110 14
5 44 108 110 112 65
5 3 45 1 107 46
5 91 36 108 44 63
5 80 107 46 50 96
5 80 96 41 65 39
5 60 39 65 119 33
5 41 108 109 119 65
5 26 69 27 46 107
5 36 108 41 96 50
5 109 32 52 36 108
5 70 32 109 119 33
5 17 73 46 35 89
5 12 89 35 24 77
5 82 10 77 12 49
5 56 9 68 57 1
5 82 68 57 94 49
5 86 10 82 68 9
5 64 46 73 80 85
5 43 85 80 40 65
5 64 30 52 35 46
5 110 58 17 89 54
5 58 110 116 65 40
5 54 110 116 109 79
5 65 116 109 84 43
5 58 96 80 93 4
5 16 93 4 105 68
5 58 14 49 105 4
5 90 48 68 105 49
5 14 58 96 50 89
5 14 89 13 90 49
5 86 99 28 81 8
5 18 90 82 8 86
5 81 8 82 105 6
5 18 101 3 76 90
5 73 107 38 93 5
5 73 3 76 94 5
5 6 81 28 38 93
5 94 5 93 6 105
5 105 94 76 90 82
5 38 107 64 29 60
5 88 60 29 84 119
5 84 42 108 116 119
5 64 107 73 50 91
5 58 112 59 93 5
5 50 91 42 108 37
5 58 112 116 108 37
5 59 88 119 116 112
5 57 45 73 80 93
5 108 116 65 100 62
5 59 83 118 116 65
5 73 45 76 89 50
5 105 83 118 106 49
5 54 106 118 116 108
5 62 37 89 35 91
5 30 91 35 24 78
5 89 37 110 106 12
5 114 21 77 12 106
5 113 116 110 106 114
5 34 113 116 44 84
5 114 21 71 34 113
5 85 64 91 62 100
5 74 98 57 94 76
5 40 58 94 57 93
5 38 93 40 100 85
5 58 37 89 76 94
5 20 104 34 113 111
5 116 112 83 111 113
5 38 28 97 29 85
5 93 6 83 112 40
5 81 20 111 83 6
5 100 44 116 112 40
5 23 113 117 55 21
5 117 108 44 119 113
5 33 104 23 113 119
5 24 102 36 91 27
5 63 29 69 27 91
5 24 53 92 69 27
5 55 117 108 36 102
5 99 28 60 29 69
5 39 60 28 16 93
5 100 39 60 29 63
5 98 45 5 93 16
5 45 3 50 96 5
5 101 27 91 50 3
5 39 100 96 5 93
5 63 100 96 50 91
5 88 119 113 111 66
5 111 19 106 117 113
5 96 37 14 94 5
5 14 37 108 117 106
5 68 57 4 83 11
5 58 4 83 118 110
5 55 114 118 110 54
5 48 68 57 45 74
5 48 74 13 77 10
5 118 83 11 72 114
5 61 60 97 95 81
5 71 87 95 97 70
5 16 38 26 99 9
5 23 111 11 8 87
5 6 11 111 115 59
5 29 70 34 119 43
5 34 70 92 87 23
5 9 68 47 74 2
5 6 68 47 94 4
5 6 61 39 40 4
5 3 46 75 96 17
5 28 9 68 6 61
5 85 39 40 96 75
5 33 34 113 115 88
5 6 83 19 82 68
5 9 86 92 97 28
5 76 94 7 106 12
5 18 86 9 98 74
5 60 61 93 80 85
5 69 64 85 60 97
5 81 61 93 57 68
5 95 86 48 68 81
5 3 73 75 91 35
5 102 12 106 117 79
5 7 112 40 5 94
5 116 112 7 106 117
5 81 8 48 98 16
5 48 18 53 87 8
5 31 104 87 8 81
5 81 31 60 38 16
5 60 29 70 104 31
5 18 53 78 27 101
5 78 27 64 29 70
5 104 87 53 78 70
5 21 53 78 32 103
5 106 117 103 21 15
5 15 106 14 76 90
5 108 42 32 103 117
5 16 61 39 80 1
5 31 61 16 9 95
5 2 51 92 95 9
5 46 27 30 63 75
5 30 70 92 51 27
5 31 33 43 39 61
5 33 43 63 30 70
5 33 31 95 92 70
5 22 55 12 13 24
5 12 14 110 117 55
5 41 96 17 14 110
5 44 41 110 117 109
5 27 24 13 3 46
5 32 22 55 117 109
5 35 50 75 64 27
5 103 22 78 70 34
5 37 41 116 117 54
5 102 22 103 117 54
5 100 43 119 116 41
5 34 119 116 117 103
5 26 97 70 30 64
5 26 97 95 9 56
5 48 9 95 87 10
5 22 71 70 30 52
5 77 10 87 71 22
5 1 45 47 68 16
5 45 3 13 90 47
5 10 8 68 47 90
5 95 8 68 16 28
5 10 8 95 92 53
5 53 10 90 13 24
5 4 105 19 118 112
5 118 19 15 55 117
5 41 112 118 117 108
5 13 35 27 51 18
5 114 15 12 54 117
5 109 42 30 70 34
5 10 87 23 114 15
5 117 109 34 23 114
5 57 5 80 38 16
5 26 64 75 80 38
5 16 57 47 48 9
5 5 17 76 47 57
5 13 76 47 48 18
5 9 99 51 18 48
5 49 14 110 118 19
5 109 113 118 110 108
5 72 19 118 113 23
5 12 106 19 82 90
5 96 40 112 110 37
5 83 19 106 110 112
5 1 98 74 3 73
5 43 33 67 115 65
5 68 9 95 20 11
5 20 11 83 115 67
5 98 1 5 94 47
5 20 111 19 82 8
5 9 98 1 38 28
5 40 112 115 88 39
5 14 94 47 90 12
5 24 102 12 90 18
5 36 91 75 96 37
5 47 68 11 19 49
5 19 118 115 66 11
5 41 110 118 115 65
5 86 99 69 78 53
5 69 64 91 52 78
5 102 52 78 53 77
5 45 98 48 90 76
5 90 77 53 86 48
5 102 52 91 50 89
5 102 89 76 90 77
5 66 111 72 8 81
5 59 112 118 111 66
5 14 106 118 112 58
5 106 15 72 111 118
5 23 111 118 117 103
5 21 103 113 111 72
5 79 108 116 113 103
5 67 115 116 109 34
5 116 119 67 111 118
5 59 115 67 31 61
5 97 70 34 67 31
5 116 41 40 59 115
5 67 113 118 83 66
5 114 15 82 11 111
5 32 84 119 113 103
5 118 106 55 103 113
5 65 119 113 118 112
5 18 86 92 78 24
5 30 29 85 75 91
5 19 11 20 23 114
5 23 114 55 22 71
5 115 113 117 110 112
5 32 79 117 113 34
5 103 113 67 104 71
5 88 67 113 116 65
5 118 115 67 23 114
5 81 11 111 67 31
5 105 11 111 118 7

# Cells
12 0 1 2 3 4 5 6 7 8 9 10 11
12 6 12 13 14 15 16 17 18 19 20 21 22
12 1 18 23 24 25 26 27 28 29 30 31 32
12 33 34 35 36 37 38 39 40 41 42 43 44
12 34 45 46 47 48 49 50 51 52 53 54 55
12 39 50 56 57 58 59 60 61 62 63 64 65
12 66 67 68 69 70 71 72 73 74 75 76 77
12 66 78 79 80 81 82 83 84 85 86 87 88
12 75 83 89 90 91 92 93 94 95 96 97 98
12 99 100 101 102 103 104 105 106 107 108 109 110
12 106 111 112 113 114 115 116 117 118 119 120 121
12 108 118 122 123 124 125 126 127 128 129 130 131
12 67 132 133 134 135 136 137 138 139 140 141 142
12 134 143 144 145 146 147 148 149 150 151 152 153
12 132 146 154 155 156 157 158 159 160 161 162 163
12 33 164 165 166 167 168 169 170 171 172 173 174
12 164 175 176 177 178 179 180 181 182 183 184 185
12 170 181 186 187 188 189 190 191 192 193 194 195
12 107 196 197 198 199 200 201 202 203 204 205 206
12 205 207 208 209 210 211 212 213 214 215 216 217
12 196 216 218 219 220 221 222 223 224 225 226 227
12 23 68 228 229 230 231 232 233 234 235 236 237
12 233 238 239 240 241 242 243 244 245 246 247 248
12 228 239 249 250 251 252 253 254 255 256 257 258
12 45 175 259 260 261 262 263 264 265 266 267 268
12 53 63 264 269 270 271 272 273 274 275 276 277
12 130 207 278 279 280 281 282 283 284 285 286 287
12 120 122 286 288 289 290 291 292 293 294 295 296
12 78 155 259 297 298 299 300 301 302 303 304 305
12 144 158 299 306 307 308 309 310 311 312 313 314
12 2 165 315 316 317 318 319 320 321 322 323 324
12 315 325 326 327 328 329 330 331 332 333 334 335
12 316 327 336 337 338 339 340 341 342 343 344 345
12 119 226 295 346 347 348 349 350 351 352 353 354
12 214 224 284 294 346 355 356 357 358 359 360 361
12 100 113 124 242 362 363 364 365 366 367 368 369
12 110 114 368 370 371 372 373 374 375 376 377 378
12 61 117 364 376 379 380 381 382 383 384 385 386
12 69 96 232 241 387 388 389 390 391 392 393 394
12 31 77 141 237 394 395 396 397 398 399 400 401
12 54 82 265 302 402 403 404 405 406 407 408 409
12 41 51 171 179 261 407 410 411 412 413 414 415
12 3 19 319 340 416 417 418 419 420 421 422 423
12 11 15 30 324 334 345 423 424 425 426 427 428
12 14 25 229 240 388 397 429 430 431 432 433 434
12 4 38 167 321 413 435 436 437 438 439 440 441
12 121 125 292 367 386 442 443 444 445 446 447 448
12 71 87 92 142 150 161 304 314 449 450 451 452
12 84 89 301 312 450 453 454 455 456 457 458 459
12 24 133 326 396 425 460 461 462 463 464 465 466
12 330 339 427 462 467 468 469 470 471 472 473 474
12 177 187 260 271 475 476 477 478 479 480 481 482
12 109 111 204 225 353 373 483 484 485 486 487 488
12 40 56 166 193 489 490 491 492 493 494 495 496
12 94 128 238 365 390 445 497 498 499 500 501 502
12 80 91 442 454 497 503 504 505 506 507 508 509
12 60 191 274 352 475 489 510 511 512 513 514 515
12 143 213 467 516 517 518 519 520 521 522 523 524
12 148 159 307 520 525 526 527 528 529 530 531 532
12 263 269 297 311 457 476 533 534 535 536 537 538
12 90 123 278 387 498 539 540 541 542 543 544 545
12 93 145 283 310 449 453 539 546 547 548 549 550
12 149 210 282 522 544 549 551 552 553 554 555 556
12 201 220 344 422 488 557 558 559 560 561 562 563
12 186 223 338 561 564 565 566 567 568 569 570 571
12 199 217 222 341 474 523 558 570 572 573 574 575
12 47 62 275 383 447 506 576 577 578 579 580 581
12 52 86 266 272 303 409 459 509 535 581 582 583
12 7 29 317 329 428 440 463 584 585 586 587 588
12 17 105 244 362 374 429 589 590 591 592 593 594
12 102 131 247 369 393 434 502 545 593 595 596 597
12 72 95 137 151 392 398 451 542 547 555 598 599
12 273 293 446 456 503 533 579 582 600 601 602 603
12 138 147 399 464 473 521 556 598 604 605 606 607
12 154 176 325 525 608 609 610 611 612 613 614 615
12 331 343 468 519 530 569 575 613 616 617 618 619
12 0 35 249 436 620 621 622 623 624 625 626 627
12 9 20 377 421 592 623 628 629 630 631 632 633
12 136 156 332 465 587 614 634 635 636 637 638 639
12 46 79 250 403 505 580 583 640 641 642 643 644
12 375 419 487 493 562 632 645 646 647 648 649 650
12 168 192 320 337 416 494 563 568 646 651 652 653
12 10 26 231 255 439 588 624 654 655 656 657 658
12 402 410 435 584 634 654 659 660 661 662 663 664
12 64 116 354 372 385 485 495 515 650 665 666 667
12 99 129 203 215 285 541 554 596 668 669 670 671
12 245 251 363 379 448 500 504 576 641 672 673 674
12 12 28 400 426 430 460 472 606 675 676 677 678
12 16 202 336 420 424 471 560 574 675 679 680 681
12 36 58 370 380 490 620 630 645 665 682 683 684
12 306 360 477 528 536 685 686 687 688 689 690 691
12 180 188 478 529 567 608 618 688 692 693 694 695
12 103 115 126 200 211 221 281 291 350 358 486 670
12 174 184 190 323 335 342 566 612 619 653 693 696
12 152 212 280 313 361 524 531 550 552 691 697 698
12 74 88 98 236 243 258 389 499 508 644 674 699
12 162 185 267 305 309 482 527 538 615 687 695 700
12 70 81 234 252 404 640 656 660 699 701 702 703
12 57 112 270 289 348 381 443 510 577 600 666 704
12 27 73 139 230 401 461 586 636 655 662 703 705
12 194 227 349 359 481 514 571 690 694 706 707 708
12 391 395 431 540 553 597 599 604 671 677 709 710
12 246 253 366 378 384 589 622 628 673 682 711 712
12 21 104 206 432 594 595 669 678 681 710 713 714
12 279 288 308 356 455 534 546 601 686 698 715 716
12 44 55 65 257 382 578 626 643 672 684 712 717
12 160 178 262 298 406 411 611 638 659 700 718 719
12 37 48 254 408 414 437 621 642 657 661 701 717
12 169 182 318 328 412 438 585 609 637 663 696 719
12 76 85 135 157 300 405 452 635 664 702 705 718
12 140 153 163 333 466 470 518 532 607 610 617 639
12 97 127 287 290 444 458 501 507 543 548 602 716
12 189 218 347 483 491 511 559 565 648 651 667 708
12 5 22 32 235 248 256 433 591 625 631 658 711
12 42 49 59 172 183 195 268 277 415 480 492 512
12 13 101 197 371 417 484 557 590 629 647 679 713
12 8 43 173 322 418 441 496 627 633 649 652 683
12 276 296 351 357 479 513 537 603 689 704 707 715
12 198 208 469 517 551 573 605 668 676 680 709 714
12 209 219 355 516 526 564 572 616 685 692 697 706
