# Generated using Miratope v0.5.0 (https://github.com/galoomba1/miratope-rs)
4OFF

# Vertices, Faces, Edges, Cells
120 2520 1200 720

# Vertices
0.809016994374945 -0.809016994374945 -0.809016994374945 0.809016994374945 
0 -1.61803398874989 0 0 
0 0 -1.61803398874989 0 
0.809016994374945 0 0.5 1.30901699437495 
-0.809016994374945 -0.809016994374945 -0.809016994374945 -0.809016994374945 
-1.30901699437495 0.5 0 -0.809016994374945 
0 -0.809016994374945 1.30901699437495 0.5 
-0.5 1.30901699437495 -0.809016994374945 0 
0 1.30901699437495 0.5 0.809016994374945 
-0.809016994374945 0.5 1.30901699437495 0 
0.809016994374945 -0.809016994374945 0.809016994374945 0.809016994374945 
-0.809016994374945 -0.809016994374945 0.809016994374945 0.809016994374945 
0.809016994374945 0.5 1.30901699437495 0 
-0.809016994374945 -0.809016994374945 -0.809016994374945 0.809016994374945 
0.809016994374945 0.5 -1.30901699437495 0 
-0.809016994374945 0.5 -1.30901699437495 0 
0.809016994374945 1.30901699437495 0 -0.5 
-0.809016994374945 1.30901699437495 0 -0.5 
0.809016994374945 -0.809016994374945 0.809016994374945 -0.809016994374945 
0.809016994374945 -0.809016994374945 -0.809016994374945 -0.809016994374945 
-0.809016994374945 -0.809016994374945 0.809016994374945 -0.809016994374945 
1.30901699437495 0 0.809016994374945 0.5 
1.30901699437495 0 -0.809016994374945 0.5 
-1.30901699437495 0 0.809016994374945 0.5 
-1.30901699437495 0 -0.809016994374945 0.5 
0 0.5 0.809016994374945 1.30901699437495 
0 0.5 -0.809016994374945 1.30901699437495 
-0.809016994374945 0.809016994374945 -0.809016994374945 0.809016994374945 
-0.809016994374945 0.809016994374945 -0.809016994374945 -0.809016994374945 
0 1.30901699437495 0.5 -0.809016994374945 
0 -1.30901699437495 0.5 0.809016994374945 
0 -1.30901699437495 0.5 -0.809016994374945 
0.5 0 1.30901699437495 0.809016994374945 
0.5 0 1.30901699437495 -0.809016994374945 
0.809016994374945 0.809016994374945 -0.809016994374945 0.809016994374945 
0.809016994374945 0.809016994374945 -0.809016994374945 -0.809016994374945 
-0.5 0.809016994374945 0 1.30901699437495 
-0.5 0.809016994374945 0 -1.30901699437495 
-0.5 -0.809016994374945 0 1.30901699437495 
-0.5 -0.809016994374945 0 -1.30901699437495 
-1.30901699437495 0.809016994374945 0.5 0 
-1.30901699437495 -0.809016994374945 0.5 0 
0 0 1.61803398874989 0 
1.30901699437495 0.5 0 -0.809016994374945 
-0.809016994374945 0 -0.5 1.30901699437495 
0.5 1.30901699437495 0.809016994374945 0 
0 -0.809016994374945 -1.30901699437495 0.5 
0 1.30901699437495 -0.5 0.809016994374945 
-0.809016994374945 0.809016994374945 0.809016994374945 -0.809016994374945 
-1.61803398874989 0 0 0 
0 0 0 -1.61803398874989 
0 0.809016994374945 1.30901699437495 0.5 
0.5 -1.30901699437495 -0.809016994374945 0 
-0.809016994374945 0 0.5 1.30901699437495 
1.30901699437495 -0.5 0 -0.809016994374945 
0.5 -0.809016994374945 0 1.30901699437495 
0 0 0 1.61803398874989 
0.5 1.30901699437495 -0.809016994374945 0 
0 -0.809016994374945 1.30901699437495 -0.5 
1.30901699437495 0.5 0 0.809016994374945 
-0.809016994374945 0 0.5 -1.30901699437495 
1.30901699437495 0 0.809016994374945 -0.5 
0.5 0.809016994374945 0 -1.30901699437495 
0.809016994374945 0.809016994374945 0.809016994374945 0.809016994374945 
1.61803398874989 0 0 0 
-0.5 1.30901699437495 0.809016994374945 0 
0 -0.809016994374945 -1.30901699437495 -0.5 
0.809016994374945 0 -0.5 -1.30901699437495 
-1.30901699437495 0.5 0 0.809016994374945 
-1.30901699437495 0 -0.809016994374945 -0.5 
0 0.809016994374945 -1.30901699437495 0.5 
-0.5 -1.30901699437495 0.809016994374945 0 
0.809016994374945 0 -0.5 1.30901699437495 
-1.30901699437495 -0.5 0 -0.809016994374945 
0 1.61803398874989 0 0 
0.809016994374945 0 0.5 -1.30901699437495 
-1.30901699437495 -0.5 0 0.809016994374945 
0 0.809016994374945 1.30901699437495 -0.5 
-0.5 -1.30901699437495 -0.809016994374945 0 
-0.809016994374945 -0.5 1.30901699437495 0 
-0.809016994374945 0.809016994374945 0.809016994374945 0.809016994374945 
0.5 0.809016994374945 0 1.30901699437495 
0.5 -0.809016994374945 0 -1.30901699437495 
1.30901699437495 0.809016994374945 -0.5 0 
1.30901699437495 -0.809016994374945 -0.5 0 
0.809016994374945 0.809016994374945 0.809016994374945 -0.809016994374945 
0 1.30901699437495 -0.5 -0.809016994374945 
0 -1.30901699437495 -0.5 0.809016994374945 
0 -1.30901699437495 -0.5 -0.809016994374945 
-0.5 0 -1.30901699437495 0.809016994374945 
-0.5 0 -1.30901699437495 -0.809016994374945 
1.30901699437495 0 -0.809016994374945 -0.5 
-1.30901699437495 0 0.809016994374945 -0.5 
0 -0.5 0.809016994374945 -1.30901699437495 
0 -0.5 -0.809016994374945 -1.30901699437495 
0.809016994374945 -0.5 1.30901699437495 0 
0.809016994374945 -0.5 -1.30901699437495 0 
-0.809016994374945 -0.5 -1.30901699437495 0 
0.809016994374945 -1.30901699437495 0 0.5 
-0.809016994374945 -1.30901699437495 0 0.5 
1.30901699437495 -0.5 0 0.809016994374945 
-0.809016994374945 0 -0.5 -1.30901699437495 
0 0.809016994374945 -1.30901699437495 -0.5 
0.5 -1.30901699437495 0.809016994374945 0 
-0.809016994374945 1.30901699437495 0 0.5 
1.30901699437495 -0.809016994374945 0.5 0 
0.809016994374945 1.30901699437495 0 0.5 
-1.30901699437495 -0.809016994374945 -0.5 0 
-0.5 0 1.30901699437495 0.809016994374945 
0 0.5 -0.809016994374945 -1.30901699437495 
0 -0.5 -0.809016994374945 1.30901699437495 
-0.5 0 1.30901699437495 -0.809016994374945 
0.809016994374945 -1.30901699437495 0 -0.5 
-1.30901699437495 0.809016994374945 -0.5 0 
1.30901699437495 0.809016994374945 0.5 0 
-0.809016994374945 -1.30901699437495 0 -0.5 
0 -0.5 0.809016994374945 1.30901699437495 
0.5 0 -1.30901699437495 -0.809016994374945 
0 0.5 0.809016994374945 -1.30901699437495 
0.5 0 -1.30901699437495 0.809016994374945 

# Faces
4 0 2 4 1
4 1 6 3 0
5 3 0 2 7 8
5 4 1 6 9 5
4 4 2 7 5
4 3 6 9 8
4 9 8 7 5
4 10 11 13 0
5 10 12 16 14 0
4 10 11 9 12
4 13 0 14 15
5 11 13 15 17 9
4 16 12 9 17
4 17 15 14 16
4 18 20 4 19
4 19 22 21 18
5 20 18 21 25 23
5 19 4 24 26 22
4 20 4 24 23
4 25 26 22 21
4 26 24 23 25
4 27 13 4 28
4 28 27 8 29
5 13 27 8 32 30
5 28 4 31 33 29
4 4 31 30 13
4 32 33 29 8
4 33 31 30 32
4 34 0 19 35
5 35 37 40 36 34
4 34 0 38 36
4 19 39 37 35
5 19 0 38 41 39
4 38 36 40 41
4 37 40 41 39
4 18 1 11 42
4 42 45 43 18
5 18 43 14 46 1
5 42 45 47 44 11
4 1 46 44 11
4 47 45 43 14
4 44 46 14 47
4 48 50 4 49
4 48 49 53 51
5 50 48 51 21 54
5 49 4 52 55 53
4 50 54 52 4
4 51 53 55 21
4 21 54 52 55
4 56 11 49 27
4 56 59 57 27
5 49 27 57 62 60
5 56 11 58 61 59
4 49 11 58 60
4 61 62 57 59
4 58 60 62 61
4 63 56 0 64
5 63 65 37 67 64
4 63 56 68 65
4 0 64 67 66
5 0 66 69 68 56
4 68 69 37 65
4 67 66 69 37
4 64 18 50 35
4 64 72 70 35
5 70 35 50 73 24
5 18 71 38 72 64
4 18 71 73 50
4 72 70 24 38
4 71 73 24 38
4 35 2 27 74
4 74 77 75 35
5 35 2 78 31 75
5 74 77 79 76 27
4 27 76 78 2
4 79 31 75 77
4 76 79 31 78
4 48 20 11 80
5 81 80 48 62 83
4 80 11 55 81
4 20 82 62 48
5 20 11 55 84 82
4 83 81 55 84
4 84 82 62 83
4 85 18 10 63
4 85 63 47 86
5 63 47 89 87 10
5 86 85 18 88 90
4 18 88 87 10
4 47 86 90 89
4 87 88 90 89
4 34 27 80 63
4 63 61 91 34
5 80 92 93 61 63
5 27 34 91 94 69
4 80 92 69 27
4 91 61 93 94
4 92 69 94 93
4 35 85 48 28
5 35 96 98 95 85
4 85 95 79 48
4 35 96 97 28
5 28 97 99 79 48
4 79 99 98 95
4 98 96 97 99
4 74 48 42 63
5 100 63 74 102 96
4 42 103 100 63
4 48 74 102 101
5 48 101 88 103 42
4 103 100 96 88
4 102 96 88 101
4 20 49 13 1
5 49 20 33 45 104
4 20 33 105 1
4 49 104 26 13
5 1 105 59 26 13
4 45 59 105 33
4 59 45 104 26
4 10 64 19 1
4 10 64 106 25
5 1 10 25 68 107
5 64 106 7 90 19
4 19 90 107 1
4 25 68 7 106
4 7 90 107 68
4 34 2 13 56
5 56 34 16 77 108
4 34 16 109 2
4 13 41 108 56
5 2 109 60 41 13
4 77 16 109 60
4 108 77 60 41
4 2 19 50 28
4 2 19 98 110
5 111 50 19 98 6
5 110 2 28 40 53
4 28 50 111 40
4 53 6 98 110
4 53 40 111 6
4 64 85 74 34
4 85 64 112 93
5 74 85 93 73 113
5 34 64 112 78 89
4 74 113 89 34
4 89 78 73 113
4 112 78 73 93
4 74 28 49 80
4 74 114 32 80
5 49 80 32 103 115
5 74 114 54 94 28
4 28 49 115 94
4 32 114 54 103
4 54 94 115 103
4 85 42 20 50
5 42 85 83 72 116
4 85 83 117 50
4 42 116 99 20
5 50 20 99 46 117
4 72 46 117 83
4 116 99 46 72
4 10 42 80 56
5 10 42 118 67 84
4 10 56 119 84
4 42 80 17 118
5 17 80 56 119 102
4 84 119 102 67
4 118 17 102 67
4 21 42 65 106
4 42 71 98 21
5 65 113 107 71 42
5 21 98 46 70 106
4 106 70 113 65
4 71 98 46 107
4 113 70 46 107
4 81 27 40 51
5 100 81 27 97 52
4 40 73 97 27
4 51 81 100 95
5 95 31 73 40 51
4 100 95 31 52
4 31 52 97 73
4 63 10 58 77
4 47 17 77 63
4 87 115 58 10
4 89 69 17 47
5 58 77 17 69 115
4 87 115 69 89
4 49 15 47 80
4 32 59 47 80
4 115 66 15 49
4 103 84 59 32
5 59 84 66 15 47
4 103 115 66 84
4 48 45 57 28
4 79 32 45 48
4 57 28 97 119
5 45 32 55 119 57
4 55 99 79 32
4 97 119 55 99
4 42 25 104 48
4 101 15 104 48
4 103 55 25 42
5 55 25 104 15 46
4 88 46 55 103
4 15 101 88 46
4 63 74 40 108
4 63 100 30 108
4 102 69 40 74
4 96 78 30 100
5 40 108 30 78 69
4 102 69 78 96
4 72 36 108 10
4 10 112 96 72
5 92 108 10 112 39
5 72 36 113 90 96
4 36 113 92 108
4 92 113 90 39
4 112 39 90 96
5 74 51 116 110 70
4 74 37 111 51
4 74 70 90 37
4 116 71 111 51
4 110 78 71 116
5 111 37 90 78 71
4 70 110 78 90
5 28 117 22 81 104
4 104 23 73 28
4 117 88 73 28
4 116 81 22 98
4 81 116 23 104
5 23 116 98 88 73
4 22 117 88 98
4 25 11 92 65
4 11 87 72 25
5 92 11 87 66 101
5 72 25 65 86 14
4 14 66 87 72
4 86 101 92 65
4 14 66 101 86
4 56 80 79 30
4 80 79 60 17
4 119 56 30 52
4 17 60 94 102
5 60 79 30 52 94
4 102 94 52 119
4 64 12 8 34
4 34 89 68 8
4 64 112 58 12
5 8 68 41 58 12
4 78 41 58 112
4 68 89 78 41
4 12 3 98 18
5 18 12 65 5 39
4 18 39 78 98
4 3 36 65 12
5 98 3 36 24 78
4 36 24 5 65
4 24 5 39 78
4 114 29 7 34
5 114 34 110 30 95
4 34 7 24 110
4 95 111 29 114
4 111 41 30 95
5 7 29 111 41 24
4 110 24 41 30
4 57 104 24 2
5 2 57 114 105 52
4 2 24 99 52
4 51 114 105 6
4 114 51 104 57
5 51 104 24 99 6
4 105 52 99 6
4 20 118 12 6
4 6 38 107 20
5 118 86 15 107 20
5 106 26 38 6 12
4 12 106 86 118
4 26 106 86 15
4 26 38 107 15
4 56 0 105 32
4 105 0 66 82
4 68 9 32 56
5 105 82 60 9 32
4 9 68 69 60
4 82 66 69 60
4 4 109 17 49
4 4 52 91 109
4 53 8 17 49
4 53 8 59 55
5 59 8 17 109 91
4 55 52 91 59
4 11 68 5 20
4 11 68 26 55
4 5 20 82 109
4 84 14 26 55
5 68 26 14 109 5
4 84 14 109 82
4 50 20 9 29
4 20 9 53 99
4 50 29 57 117
5 53 9 29 57 26
4 46 26 53 99
4 26 46 117 57
4 34 3 53 27
4 34 91 105 3
4 27 53 41 69
5 105 3 53 41 31
4 94 31 105 91
4 94 31 41 69
5 51 29 35 22 3
4 22 46 90 35
4 29 35 90 5
4 3 51 23 38
4 3 38 46 22
4 51 29 5 23
5 23 5 90 46 38
4 38 108 58 1
4 1 38 89 66
5 58 1 66 109 118
5 7 65 108 38 89
4 108 65 118 58
4 65 118 109 7
4 89 7 109 66
4 74 85 21 81
4 85 21 103 93
4 74 81 44 113
5 44 81 21 103 99
4 44 113 73 99
4 73 99 103 93
4 27 119 83 74
4 76 87 119 27
4 83 74 77 61
5 103 61 83 119 87
4 77 61 103 79
4 103 79 76 87
4 80 63 72 44
4 63 72 84 61
4 44 80 92 107
4 61 93 88 84
5 44 72 84 88 107
4 93 88 107 92
4 56 100 83 47
5 100 112 115 76 56
4 56 76 113 47
4 100 112 67 83
5 83 67 101 113 47
4 113 101 115 76
4 112 115 101 67
4 80 76 73 48
4 81 80 76 110
4 62 94 73 48
4 81 83 96 110
4 83 96 94 62
5 76 110 96 94 73
5 86 70 44 23 48
4 86 48 93 67
4 48 93 71 23
4 23 44 87 71
4 70 96 87 44
4 86 70 96 67
5 96 87 71 93 67
4 63 83 54 95
4 83 63 36 70
5 36 63 95 71 76
5 83 70 97 88 54
4 54 95 71 88
4 36 70 97 76
4 71 76 97 88
4 77 95 116 80
4 77 37 113 80
5 116 87 97 113 80
5 112 95 77 37 94
4 116 87 112 95
4 37 94 97 113
4 112 94 97 87
4 85 42 92 37
4 85 37 102 83
4 42 116 76 92
4 83 102 89 72
4 72 116 76 89
5 76 89 102 37 92
4 45 80 116 21
4 80 113 86 45
5 45 21 84 117 86
4 116 87 84 21
4 87 84 117 97
4 113 86 117 97
4 42 11 115 93
4 11 115 97 44
4 45 62 93 42
4 47 102 62 45
4 44 47 102 97
5 93 62 102 97 115
4 79 49 44 116
4 49 101 93 79
5 44 119 117 101 49
5 100 54 93 79 116
4 116 100 119 44
4 100 54 117 119
4 54 117 101 93
4 8 56 100 114
4 56 8 40 76
5 114 75 60 40 8
4 112 75 114 100
4 40 76 115 60
4 75 112 115 60
4 64 18 118 16
4 71 92 118 18
4 64 16 47 72
5 47 16 118 92 68
4 47 72 38 68
4 71 92 68 38
4 106 85 54 22
5 106 36 23 111 85
4 54 85 111 31
4 106 22 110 36
4 36 110 99 23
5 22 110 99 31 54
4 111 31 99 23
4 36 74 28 24
4 24 28 94 78
4 3 114 74 36
4 54 98 3 114
4 98 54 94 78
4 106 14 67 85
4 111 85 67 39
4 36 89 14 106
4 23 107 89 36
4 23 111 39 107
5 14 67 39 107 89
5 0 30 58 75 91
4 91 102 89 0
4 0 89 76 30
4 102 91 75 37
4 58 92 37 75
4 76 30 58 92
4 4 99 44 15
4 103 82 4 99
5 4 15 57 43 82
4 81 57 43 21
4 21 103 82 43
4 81 57 15 44
4 13 11 103 52
4 11 9 33 103
4 15 13 52 117
4 9 17 62 33
5 33 103 52 117 62
4 17 15 117 62
4 44 25 9 49
4 9 49 101 118
5 59 25 9 118 43
4 44 25 59 119
4 119 59 43 117
4 101 118 43 117
4 27 13 66 102
4 27 8 16 102
4 13 30 112 66
4 32 8 16 61
4 32 30 112 61
5 61 16 102 66 112
4 50 35 114 33
4 70 81 114 35
4 50 33 79 73
5 114 33 79 53 81
4 70 81 53 24
4 73 79 53 24
4 42 23 38 10
4 38 10 84 46
4 5 118 42 23
4 84 46 90 67
4 5 118 67 90
5 50 43 106 104 5
4 43 84 88 50
4 88 50 5 107
4 84 43 106 72
4 44 104 106 72
4 107 5 104 44
4 99 49 27 110
4 57 22 110 27
4 60 31 99 49
4 57 22 54 62
4 54 62 60 31
4 68 47 119 13
4 13 68 92 115
5 13 119 91 82 115
4 16 91 119 47
4 118 82 91 16
4 118 82 115 92
4 10 61 82 1
4 10 61 45 25
4 82 1 107 101
4 25 68 17 45
5 45 17 101 82 61
4 68 107 101 17
4 53 13 119 81
4 13 53 79 115
4 91 114 81 119
4 114 91 82 33
4 82 33 79 115
4 33 48 86 43
4 48 33 6 23
5 22 55 6 33 43
4 43 86 70 22
4 44 55 22 70
4 44 55 6 23
4 63 16 75 95
4 16 63 36 7
5 7 69 39 75 16
4 75 95 71 39
4 36 7 69 76
4 76 71 39 69
4 65 85 35 7
4 85 65 108 95
4 89 96 35 7
4 38 98 95 108
4 38 98 96 89
5 64 3 108 111 75
4 64 96 110 3
4 96 64 75 94
4 108 76 110 3
4 76 108 111 73
4 75 94 73 111
4 6 18 85 51
4 104 86 85 51
4 88 99 6 18
4 104 86 90 24
4 88 99 24 90
4 56 89 107 11
4 58 39 107 11
4 89 56 59 14
4 59 14 67 61
4 67 61 58 39
4 28 2 91 62
4 40 77 62 28
4 110 100 91 2
5 32 100 91 62 77
4 53 32 100 110
4 53 32 77 40
4 39 1 13 69
4 69 13 26 7
4 1 39 75 105
4 16 59 105 75
4 16 59 26 7
4 18 111 41 1
4 29 43 18 111
4 41 1 46 24
4 29 43 14 7
4 14 7 24 46
4 19 75 60 4
4 19 75 114 22
4 4 60 40 24
4 114 22 26 8
4 40 24 26 8
4 50 31 105 43
4 50 31 41 5
4 105 43 106 3
4 104 53 3 106
4 41 5 104 53
4 0 59 43 19
4 25 38 0 59
4 39 118 43 19
4 41 9 25 38
4 39 118 9 41
4 91 57 26 0
4 26 0 30 53
4 9 58 30 53
4 9 58 75 29
4 75 29 57 91
4 15 68 41 4
4 41 4 82 58
4 12 43 57 8
4 12 43 82 58
4 8 57 15 68
4 46 19 105 55
5 19 109 29 12 105
4 46 19 109 15
4 25 12 105 55
4 104 29 12 25
4 104 15 109 29
4 22 2 13 55
4 55 13 41 6
4 109 43 22 2
4 33 60 109 43
4 41 6 33 60
4 105 30 78 19
4 69 109 19 78
4 105 30 108 12
4 12 108 40 29
4 109 69 40 29
4 106 35 2 26
4 12 75 35 106
4 78 38 26 2
4 75 12 6 31
4 31 6 38 78
4 26 3 64 14
4 109 75 64 14
4 108 68 26 3
4 108 68 5 111
4 111 5 109 75
4 20 88 97 49
4 20 88 54 33
4 97 49 104 70
4 83 45 104 70
4 45 83 54 33
4 27 17 45 81
4 97 101 17 27
4 81 45 61 100
4 52 82 61 100
4 101 97 52 82
4 118 61 103 20
4 107 87 103 20
4 118 61 83 86
4 119 15 86 83
4 107 87 119 15
4 42 61 16 65
4 61 42 71 112
4 65 16 102 113
4 66 107 113 102
4 107 66 112 71
4 102 34 114 62
4 97 110 34 102
4 114 62 93 95
4 95 93 115 30
4 30 115 97 110
4 90 50 48 113
4 51 36 113 48
4 54 96 90 50
4 21 72 36 51
4 54 96 72 21
4 116 63 64 98
4 65 23 116 63
4 67 88 98 64
4 23 65 37 73
4 37 73 88 67
4 100 34 35 54
4 100 34 36 116
4 35 54 93 37
4 116 36 40 79
4 37 93 79 40
4 96 34 56 87
4 16 67 96 34
4 87 56 108 71
4 16 67 93 77
4 108 71 93 77
4 18 67 101 20
4 21 83 67 18
4 113 23 20 101
4 83 21 25 47
4 47 25 23 113
4 77 92 11 32
4 11 32 100 87
4 87 100 91 66
4 77 92 101 62
4 91 66 101 62
4 62 74 51 33
4 62 74 70 117
4 103 116 51 33
4 103 116 110 52
4 70 117 52 110
4 57 17 69 2
4 115 52 2 69
4 77 114 105 58
4 17 57 114 77
4 52 115 58 105
4 59 12 18 84
4 66 39 18 84
4 59 12 65 47
4 5 15 47 65
4 5 15 66 39
4 28 70 46 4
4 28 70 106 29
4 31 98 46 4
4 29 106 21 33
4 33 21 98 31
4 19 31 95 64
4 19 31 73 90
4 95 64 106 51
4 51 106 7 40
4 73 90 7 40
4 10 71 78 0
4 71 10 12 111
4 90 14 0 78
4 37 16 12 111
4 90 14 16 37
4 94 2 0 112
4 95 3 0 112
4 7 37 94 2
4 95 3 8 77
4 37 7 8 77
4 4 117 84 1
4 117 4 5 86
4 84 1 6 21
4 45 9 6 21
4 9 45 86 5
4 104 9 60 28
4 82 117 28 60
4 22 105 32 81
4 81 32 9 104
4 105 22 117 82
4 32 58 1 55
4 66 119 55 1
4 118 45 32 58
4 118 45 57 109
4 66 119 57 109
4 59 10 108 8
4 91 112 10 59
4 92 17 8 108
4 109 39 112 91
4 92 17 109 39
4 22 52 94 35
4 29 60 94 35
4 51 79 30 3
4 52 22 3 30
4 51 79 60 29
4 50 86 14 19
4 72 98 19 14
4 65 111 50 86
4 98 72 25 6
4 25 6 111 65
4 1 0 89 107
5 110 2 0 89 96
5 4 99 88 107 1
4 2 110 99 4
4 96 110 99 88
4 107 88 96 89
5 10 0 3 98 72
4 10 72 44 11
4 3 53 13 0
5 11 44 99 53 13
4 98 3 53 99
4 99 44 72 98
4 19 78 71 18
5 18 20 103 93 71
5 19 78 94 52 4
4 20 103 52 4
4 94 93 103 52
4 78 94 93 71
4 27 28 73 76
5 68 13 27 76 89
5 4 5 90 73 28
4 5 68 13 4
4 89 68 5 90
4 73 90 89 76
5 34 102 83 70 35
4 66 0 34 102
4 35 19 46 70
5 19 46 84 66 0
4 84 46 70 83
4 84 66 102 83
4 42 18 98 116
5 1 105 31 98 18
5 42 11 32 79 116
4 1 11 32 105
4 79 32 105 31
4 79 116 98 31
4 48 93 115 49
5 50 48 93 37 111
5 69 115 49 4 41
4 111 50 4 41
4 111 37 69 41
4 37 93 115 69
4 27 40 108 56
5 27 40 24 104 49
5 56 108 38 25 11
4 104 49 11 25
4 24 104 25 38
4 38 108 40 24
5 63 83 21 106 64
4 119 56 63 83
4 106 64 0 26
5 56 119 55 26 0
4 55 26 106 21
4 119 55 21 83
4 64 112 94 35
5 62 117 50 35 94
5 18 84 61 112 64
4 18 84 117 50
4 61 84 117 62
4 62 61 112 94
4 74 35 90 113
5 35 2 109 14 90
5 74 27 17 47 113
4 2 27 17 109
4 14 109 17 47
4 90 14 47 113
5 51 40 77 80 48
4 58 11 80 77
4 48 20 6 51
5 58 41 6 20 11
4 40 51 6 41
4 40 77 58 41
4 63 100 54 85
5 59 10 63 100 32
5 18 43 33 54 85
4 43 18 10 59
4 33 43 59 32
4 100 32 33 54
4 63 65 7 34
5 63 80 45 25 65
5 34 27 57 26 7
4 27 80 45 57
4 57 26 25 45
4 65 25 26 7
5 75 16 67 85 35
4 48 85 67 101
4 35 28 60 75
5 48 101 17 60 28
4 17 60 75 16
4 17 101 67 16
5 74 114 8 16 63
4 42 118 16 63
4 48 33 114 74
5 42 118 9 33 48
4 8 9 33 114
4 8 16 118 9
5 20 49 79 73 23
4 20 23 38 1
4 30 79 49 13
5 30 78 38 1 13
4 73 79 30 78
4 73 23 38 78
4 87 96 64 10
5 10 1 55 103 87
5 19 22 54 96 64
4 19 22 55 1
4 103 54 22 55
4 54 96 87 103
5 36 72 47 56 34
4 34 36 24 2
4 15 47 56 13
5 15 46 24 2 13
4 36 72 46 24
4 47 72 46 15
4 19 2 69 39
5 19 50 88 67 39
5 28 2 69 102 97
4 97 28 50 88
4 102 69 39 67
4 67 88 97 102
4 85 86 14 64
5 85 86 45 62 74
5 59 91 34 64 14
4 91 34 74 62
4 45 62 91 59
4 45 86 14 59
4 92 37 74 80
5 92 68 9 49 80
5 28 74 37 7 29
4 28 49 9 29
4 7 68 9 29
4 68 92 37 7
5 85 42 61 77 95
4 95 85 50 31
4 20 82 61 42
5 60 82 20 50 31
4 77 60 82 61
4 60 31 95 77
5 42 10 12 6 21
4 12 10 56 8
4 80 81 21 42
5 53 81 80 56 8
4 6 21 81 53
4 8 53 6 12
4 11 107 46 55
4 52 115 11 55
5 107 11 115 76 71
5 110 52 55 46 98
4 98 110 76 71
4 76 115 52 110
4 52 13 41 31
4 41 13 66 39
5 87 97 52 13 66
4 71 73 97 87
4 66 39 71 87
5 39 71 73 31 41
4 44 49 4 46
4 38 46 4 41
4 115 49 44 87
5 46 38 89 87 44
4 41 69 89 38
4 31 19 0 30
4 0 66 115 30
4 46 99 31 19
4 103 99 46 84
5 31 99 103 115 30
4 76 56 0 78
4 26 24 78 0
4 119 56 76 97
4 99 24 26 55
5 97 76 78 24 99
4 2 94 115 13
4 15 13 115 101
4 73 24 2 94
4 88 73 24 46
5 101 115 94 73 88
4 119 13 1 84
4 30 100 119 13
4 38 1 84 72
5 119 100 96 72 84
4 72 96 78 38
4 1 46 117 82
5 112 39 1 82 115
4 46 90 39 1
4 97 115 112 96
5 97 117 46 90 96
4 117 82 115 97
5 70 110 27 119 44
4 78 69 27 110
4 69 66 119 27
4 107 44 119 66
4 90 70 44 107
5 90 78 69 66 107
5 22 2 91 119 117
4 98 78 2 22
4 78 2 91 112
4 119 91 112 87
5 87 112 78 98 88
4 88 87 119 117
4 13 26 22 52
4 13 66 14 26
5 72 14 26 22 70
4 70 72 87 97
4 97 70 22 52
4 15 4 19 14
4 78 89 14 19
4 52 119 15 4
5 14 89 102 119 15
4 102 89 78 94
4 87 11 20 88
4 11 87 112 58
4 98 6 20 88
4 78 98 6 41
4 20 5 24 99
5 92 39 5 20 101
4 97 101 20 99
4 76 92 101 97
4 39 78 76 92
4 68 41 30 56
4 107 68 56 87
5 30 110 116 87 56
4 110 24 23 116
4 116 23 107 87
5 107 23 24 41 68
4 38 6 105 0
5 105 52 100 112 0
4 38 0 112 71
4 71 112 100 116
4 116 100 52 99
5 99 116 71 38 6
4 49 15 26 53
4 49 97 110 53
5 107 15 49 97 113
5 110 36 38 26 53
4 38 107 113 36
4 36 110 97 113
4 20 107 90 50
4 82 20 107 66
4 31 50 90 78
4 78 31 60 69
4 64 98 110 34
4 34 91 52 110
4 14 64 98 46
4 46 55 59 14
4 35 54 52 2
4 88 54 35 90
4 2 52 82 109
4 88 84 14 90
5 84 88 54 52 82
4 34 96 97 27
4 90 96 34 7
4 27 57 117 97
4 90 46 26 7
4 1 66 67 18
4 98 18 67 96
4 105 91 66 1
5 91 66 67 96 94
4 31 98 96 94
5 3 22 81 100 34
4 3 34 89 38
4 89 34 100 87
4 81 44 87 100
4 46 22 81 44
4 24 4 117 70
4 24 7 109 4
5 66 109 4 117 101
5 89 7 24 70 113
4 113 101 117 70
4 66 89 113 101
4 69 13 11 92
4 44 113 92 11
4 40 53 13 69
4 53 40 73 99
5 69 40 73 113 92
4 10 108 41 1
4 10 87 76 108
4 55 1 41 53
5 79 53 41 108 76
4 55 53 79 103
4 1 58 60 4
4 99 4 60 79
4 107 1 58 92
4 99 88 93 79
5 92 58 60 79 93
4 14 43 105 0
4 14 67 112 0
4 83 100 52 117
5 83 117 43 14 67
4 105 43 117 52
4 0 59 57 2
4 47 59 0 89
4 110 81 57 2
5 59 47 83 81 57
4 47 83 96 89
5 28 70 86 15 57
4 94 28 57 91
4 94 28 70 96
4 15 66 91 57
4 15 66 67 86
4 10 84 82 58
4 10 71 88 84
5 58 30 95 71 10
4 30 52 54 95
4 52 82 58 30
4 60 109 15 49
4 60 94 97 49
4 39 107 113 37
5 109 39 37 94 60
4 107 39 109 15
4 27 81 55 13
4 27 76 116 81
4 25 55 13 68
5 55 25 72 116 81
4 25 72 89 68
4 56 59 105 30
4 59 84 87 56
5 59 105 22 21 84
4 110 22 21 116
4 110 22 105 30
4 104 28 2 26
4 97 28 104 44
4 26 68 69 2
5 104 44 47 68 26
4 69 68 47 102
4 4 117 54 31
4 31 75 109 4
5 75 112 93 54 31
4 109 75 112 66
4 112 66 101 93
4 5 107 11 9
4 9 11 115 60
5 9 60 40 111 5
4 111 40 76 71
4 107 71 111 5
4 80 116 99 49
4 71 92 80 116
4 9 49 99 6
4 6 9 68 38
4 99 103 42 23
5 23 42 92 108 111
4 42 92 115 103
4 31 111 108 30
4 108 92 115 30
4 0 91 61 10
4 83 72 10 61
4 0 91 114 3
5 114 91 61 83 54
4 83 54 98 72
5 106 104 81 74 36
4 74 81 119 102
4 74 36 89 102
4 15 14 106 104
4 15 119 81 104
5 82 91 75 19 43
4 90 19 43 86
4 90 19 75 37
4 101 82 43 86
4 102 101 82 91
5 90 37 102 101 86
4 21 98 19 43
4 98 19 75 95
5 98 95 100 103 21
4 100 91 75 95
4 103 82 91 100
4 7 35 50 5
4 69 7 35 94
4 50 5 15 117
4 69 94 62 17
5 5 15 17 69 7
4 8 27 110 3
4 8 59 119 27
5 3 106 25 59 8
4 106 3 110 70
4 106 70 44 25
4 6 18 64 3
4 84 18 6 55
4 64 112 30 3
5 6 55 32 30 3
4 55 32 61 84
4 80 113 89 56
4 81 70 113 80
4 7 8 56 89
4 8 53 24 7
4 62 28 4 82
4 73 93 62 28
4 4 82 118 5
5 62 93 67 118 82
4 93 67 90 73
5 57 114 35 106 43
4 96 35 114 100
4 72 96 35 106
4 57 114 100 119
4 84 43 57 119
4 64 16 109 19
4 22 57 109 19
4 64 96 102 16
5 62 57 109 16 102
4 62 102 96 54
4 7 2 22 106
4 91 2 7 16
4 117 86 106 22
5 106 86 47 16 7
4 86 47 119 117
4 23 48 28 24
4 23 48 101 107
4 24 41 60 28
4 60 17 68 41
4 1 6 33 82
4 6 1 39 111
5 79 33 6 111 95
4 115 79 95 112
4 111 39 112 95
4 32 55 44 80
4 30 76 80 32
5 80 76 36 23 44
4 3 36 23 6
4 36 3 30 76
4 17 15 44 80
4 80 17 69 76
4 7 36 23 5
4 23 44 15 5
4 11 103 100 56
4 21 103 11 25
4 100 56 108 95
4 98 21 25 38
5 58 75 111 18 118
4 73 88 18 111
4 18 88 101 118
4 115 58 75 94
4 115 101 118 58
4 27 102 101 49
4 37 102 27 40
4 49 101 86 104
4 40 24 90 37
4 19 105 33 50
4 39 58 105 19
4 103 88 50 33
5 58 105 33 103 61
4 103 61 67 88
4 38 10 63 36
4 36 63 100 110
4 26 59 10 38
4 26 53 32 59
4 35 22 21 85
4 85 67 84 21
4 75 35 22 105
4 84 59 16 67
4 74 83 117 28
4 29 43 117 28
4 37 67 83 74
4 67 37 7 14
4 74 70 72 63
4 14 16 63 72
4 70 74 114 22
4 16 14 26 8
4 79 48 104 53
5 48 113 65 5 104
4 76 113 48 79
4 65 113 76 108
4 108 65 5 41
4 73 48 42 71
4 31 33 48 73
4 42 71 39 118
4 33 31 41 9
4 25 9 58 10
4 23 25 10 71
4 53 30 95 51
4 51 95 71 23
5 25 9 53 51 23
4 40 8 57 28
4 40 36 70 28
5 68 65 36 40 8
4 86 70 36 65
4 65 86 15 68
5 64 95 114 105 12
4 72 64 12 25
4 64 95 116 72
4 95 116 81 114
4 114 81 55 105
4 39 18 85 37
4 37 94 54 85
4 18 39 109 43
4 94 60 33 54
5 86 50 29 109 118
4 50 73 40 29
4 73 113 86 50
4 92 118 86 113
4 118 92 69 109
4 93 42 10 112
4 112 10 12 75
4 42 21 54 93
4 21 6 31 54
4 47 63 108 68
5 51 116 63 108 3
4 47 44 116 63
4 104 26 3 51
4 116 44 104 51
4 35 29 8 34
4 34 102 17 8
4 70 104 29 35
4 102 17 45 83
5 8 17 45 104 29
4 12 16 34 3
4 34 100 61 16
4 3 22 43 12
5 12 43 45 61 16
4 81 45 43 22
4 54 114 29 50
4 83 54 50 86
4 109 29 114 91
4 61 118 109 91
4 57 104 48 62
4 62 102 113 48
4 65 16 109 5
4 104 5 109 57
4 64 67 118 12
4 93 67 64 95
4 62 114 105 82
4 105 12 118 82
4 32 56 34 114
4 36 51 114 34
4 45 32 56 47
5 51 114 32 45 21
4 45 21 72 47
4 49 17 118 20
4 20 118 65 23
4 77 79 49 17
5 118 65 37 77 17
4 79 73 37 77
4 68 11 42 65
4 68 8 32 11
4 42 116 36 65
4 8 40 79 32
4 12 18 20 9
4 71 108 12 18
4 9 32 103 20
5 9 12 108 77 32
4 103 93 77 32
4 74 51 53 27
4 9 53 27 17
4 51 74 113 23
4 17 47 25 9
4 33 20 5 29
4 33 20 101 62
5 33 29 75 77 62
4 77 92 39 75
4 39 5 29 75
4 63 61 58 108
4 63 116 103 61
4 105 33 51 3
4 3 108 58 105
4 37 77 114 35
4 35 106 65 37
4 65 106 43 118
4 17 57 43 118
4 81 83 85 51
5 65 12 29 51 85
4 85 65 47 83
4 29 57 59 12
4 57 81 51 29
4 63 77 75 64
4 83 63 77 62
4 75 64 106 29
4 62 33 21 83
4 80 47 86 48
4 80 77 16 47
4 86 48 51 106
4 77 40 7 16
4 43 50 48 45
4 48 93 61 45
4 43 50 111 12
4 61 16 37 93
4 25 42 85 106
4 95 3 106 85
4 25 59 61 42
4 61 59 8 77
4 74 40 111 85
4 86 5 111 85
4 60 40 74 62
4 62 45 9 60
4 74 81 32 77
4 108 77 74 36
4 36 106 12 108
4 12 106 104 9
4 21 18 111 51
4 21 18 118 45
4 114 32 58 75
4 51 111 75 114
4 104 45 42 23
4 45 17 92 42
4 111 29 8 108
4 104 29 111 23
4 85 93 79 51
4 93 92 65 85
4 12 65 92 58
4 58 60 29 12
4 79 80 63 95
4 65 111 95 63
4 45 80 79 33
4 33 6 25 45
4 4 50 18 1
5 1 38 25 12 18
4 50 29 12 18
4 4 24 38 1
5 4 24 104 29 50
4 4 13 11 20
5 11 20 118 45 25
4 26 13 11 25
4 20 118 109 4
5 13 4 109 57 26
4 20 18 85 48
5 85 18 98 72 106
4 85 106 104 48
4 98 18 20 99
5 20 48 104 44 99
4 4 19 35 28
4 105 19 35 114
5 28 35 114 51 40
5 4 41 6 105 19
4 40 28 4 41
4 19 0 10 18
5 89 0 10 108 68
4 10 18 111 108
4 90 19 0 89
5 19 90 5 111 18
4 48 42 11 49
5 42 21 83 86 48
4 15 49 48 86
4 55 11 42 21
5 11 55 119 15 49
4 48 74 35 50
4 81 74 35 22
5 98 31 50 35 22
5 81 74 48 79 116
4 50 31 79 48
4 49 4 2 27
4 8 9 49 27
5 27 8 114 91 2
5 4 82 33 9 49
4 82 4 2 91
4 0 56 11 1
4 0 14 47 56
5 14 0 1 39 109
5 17 92 11 56 47
4 11 92 39 1
4 42 63 64 18
5 36 63 64 96 89
4 42 23 36 63
4 18 88 96 64
5 107 88 18 42 23
4 0 64 35 2
5 37 111 95 64 35
4 35 37 69 2
4 30 0 64 95
5 2 69 41 30 0
4 28 48 80 27
4 33 48 80 32
5 119 27 80 32 100
5 48 28 117 54 33
4 28 27 119 117
4 10 11 80 63
4 83 63 10 84
5 80 113 102 83 63
5 10 11 107 66 84
4 11 107 113 80
4 0 34 27 13
5 34 0 112 75 16
4 27 17 16 34
4 0 112 115 13
5 60 17 27 13 115
4 63 34 35 85
5 85 93 71 116 63
4 63 116 110 34
4 93 85 35 94
5 35 94 78 110 34
4 27 74 63 56
4 63 61 62 74
5 56 87 112 61 63
5 74 62 94 97 27
4 27 97 87 56
4 28 49 20 50
5 49 53 81 57 28
4 50 43 57 28
4 53 6 20 49
5 20 6 21 43 50
4 20 1 10 42
5 42 10 72 47 65
4 1 10 72 46
4 42 65 5 20
5 1 46 15 5 20
4 13 2 19 1
4 1 19 75 58
5 2 19 75 29 7
5 68 13 1 58 9
4 2 7 68 13
4 64 85 50 19
4 3 64 85 51
5 23 73 50 85 51
5 19 64 3 38 78
4 73 78 19 50
4 56 10 64 34
4 67 102 34 64
5 102 34 56 76 69
5 64 67 39 71 10
4 76 56 10 71
4 34 74 28 2
5 100 34 74 77 95
4 2 52 100 34
4 74 28 60 77
5 28 60 31 52 2
4 85 74 80 42
5 74 85 54 96 70
4 42 85 54 103
4 74 80 44 70
5 103 87 44 80 42
4 13 49 80 56
4 56 80 45 59
5 49 101 62 45 80
5 56 59 91 66 13
4 49 101 66 13
4 85 93 101 86
5 47 44 107 101 86
4 71 107 44 116
4 71 107 101 93
4 74 37 75 114
5 73 37 74 36 76
5 30 3 114 75 31
4 75 37 73 31
4 31 73 76 30
5 11 32 61 82 115
4 68 11 115 69
5 68 8 16 109 69
4 16 109 82 61
4 109 69 115 82
4 103 55 13 115
5 81 45 33 103 55
4 60 33 45 17
4 103 115 60 33
4 97 27 53 99
5 53 51 33 31 99
4 31 33 62 94
4 31 99 97 94
4 88 99 49 101
4 45 21 54 62
5 54 88 99 116 21
4 101 62 54 88
5 58 30 56 8 77
4 30 78 89 56
4 37 77 58 39
5 89 7 37 39 78
4 30 58 39 78
4 65 118 61 63
4 112 39 118 61
5 68 65 118 39 107
4 112 87 107 39
4 85 67 112 95
5 113 65 85 67 90
5 112 78 76 108 95
4 113 76 78 90
4 78 112 67 90
4 48 93 95 51
5 93 48 113 97 88
5 95 98 110 36 51
4 95 93 88 98
4 110 97 88 98
4 103 82 118 42
5 15 66 82 118 17
4 66 87 44 15
4 87 103 82 66
5 105 52 13 53 32
4 94 69 13 52
4 75 105 32 77
5 77 40 69 94 75
4 94 75 105 52
5 10 59 16 118 58
4 10 38 41 58
4 118 5 7 16
5 41 5 7 26 38
4 58 41 5 118
4 106 64 67 86
5 23 25 106 86 5
4 86 5 39 67
4 5 39 71 23
5 90 24 36 106 35
4 35 90 39 75
5 41 39 75 12 108
4 41 24 36 108
4 39 90 24 41
4 28 29 111 73
5 28 70 110 99 73
5 6 111 29 106 3
4 6 99 110 3
4 111 73 99 6
4 18 88 117 43
5 45 43 117 15 104
4 15 107 23 104
4 107 88 117 15
5 43 59 55 1 82
4 60 41 1 82
4 8 29 43 59
5 29 60 41 53 8
4 82 43 29 60
4 52 55 26 2
5 9 104 26 55 6
4 60 9 6 31
4 55 52 31 6
4 82 4 46 84
4 25 9 33 21
5 44 25 21 84 46
4 82 33 21 84
4 117 28 24 46
4 6 33 54 98
5 98 46 24 23 6
4 46 117 54 98
5 105 12 8 26 0
4 105 31 78 0
4 111 12 8 40
4 31 105 12 111
5 111 31 78 24 40
4 71 111 50 88
5 88 46 70 86 50
5 38 36 65 111 71
4 38 46 70 36
4 71 88 46 38
4 10 84 43 12
5 9 12 43 109 5
4 84 66 109 43
4 109 66 107 5
4 113 80 79 73
4 94 54 83 102
5 95 54 94 73 79
4 102 113 73 94
4 79 32 56 76
5 32 79 60 62 114
4 76 69 60 79
4 60 69 102 62
4 92 93 103 11
5 100 83 62 93 103
4 17 62 83 47
4 92 17 62 93
4 92 80 32 58
4 112 58 32 100
4 112 66 119 100
5 112 66 69 92 58
5 79 40 27 110 30
4 96 102 27 110
4 112 30 79 93
4 96 110 30 112
5 112 96 102 37 93
4 116 42 61 100
5 92 101 67 61 42
4 96 100 61 67
5 76 97 96 100 116
4 96 67 101 97
4 74 113 92 77
4 71 95 100 87
4 95 71 92 77
5 89 87 71 92 113
4 91 100 63 16
5 63 108 92 37 16
5 91 100 30 115 94
4 94 91 16 37
4 94 115 92 37
4 47 80 76 89
5 115 93 77 80 76
5 67 16 47 89 66
4 66 115 76 89
4 66 67 93 115
4 79 115 101 48
4 81 119 87 116
4 87 115 79 116
5 101 115 87 119 102
4 102 97 49 17
5 79 49 97 52 103
5 17 102 91 61 77
4 61 103 52 91
4 52 97 102 91
4 80 81 114 77
5 54 114 81 110 52
4 54 93 77 114
4 93 54 52 115
5 7 40 108 3 34
4 91 34 7 109
4 58 108 40 60
5 60 109 91 105 58
4 109 60 40 7
4 25 68 92 42
5 25 59 14 15 68
4 101 15 68 92
4 15 101 67 14
4 35 37 113 70
4 95 116 23 111
5 72 116 23 113 70
4 111 23 113 37
4 3 98 96 34
4 71 108 3 98
4 71 108 40 73
5 98 71 73 90 96
5 86 14 84 18 118
4 71 87 84 18
4 14 89 87 84
4 113 86 14 89
4 56 108 12 59
4 91 59 12 75
4 75 39 66 91
4 104 49 79 51
5 21 22 70 104 51
4 103 21 51 79
4 21 22 52 103
5 117 4 99 55 22
4 62 117 4 60
4 32 55 22 114
4 117 22 114 62
4 82 52 99 20
4 119 44 104 57
5 62 57 119 52 82
4 99 52 119 44
4 32 30 0 59
5 57 17 9 32 59
4 32 9 41 30
4 9 41 69 17
4 24 40 74 70
4 31 54 96 78
4 24 78 96 70
4 118 67 88 20
4 72 25 45 83
4 118 45 83 67
5 83 67 88 87 72
4 23 20 103 116
5 103 20 101 117 84
4 116 103 84 72
4 72 84 117 70
5 53 24 2 22 3
4 54 94 2 22
4 22 54 95 3
4 53 79 95 3
4 11 58 105 55
4 105 55 119 91
4 91 109 15 119
4 9 17 101 20
4 59 57 117 84
4 57 17 101 117
4 57 29 40 27
5 33 29 57 22 105
4 79 33 105 30
4 33 29 40 79
4 50 117 97 73
4 81 51 23 44
5 117 83 81 44 97
4 97 44 23 73
5 65 12 64 14 7
4 64 14 66 112
4 69 7 65 92
4 69 7 14 66
4 63 72 38 108
5 72 14 90 107 38
4 107 92 108 38
4 90 107 92 37
4 34 36 65 16
4 75 16 65 111
4 111 75 112 71
4 73 90 86 48
4 96 98 21 83
4 96 90 86 83
4 58 1 84 61
5 84 119 47 45 61
4 61 45 9 58
4 68 47 45 9
4 34 110 53 8
4 110 78 41 53
4 60 41 78 94
4 59 14 19 105
4 105 6 25 59
4 68 25 6 41
4 50 43 14 90
4 43 14 72 21
4 72 21 6 38
4 35 22 26 7
4 26 22 98 38
4 38 98 31 41
4 90 19 22 70
4 104 51 111 5
4 90 5 104 70
4 6 18 118 9
4 118 9 104 86
4 26 14 86 104
4 24 2 109 5
4 12 9 53 3
4 9 5 24 53
4 46 1 105 22
4 46 15 57 22
4 29 5 15 57
4 4 99 23 5
4 25 55 22 106
4 55 25 23 99
4 33 31 19 43
5 26 106 43 19 46
4 106 51 33 43
4 53 26 106 51
4 14 0 3 106
4 109 29 106 14
4 111 39 109 29
4 98 64 12 6
4 65 23 6 12
4 24 7 65 23
4 39 107 46 19
4 65 68 26 106
4 68 107 46 26
4 62 28 70 83
4 70 83 100 110
4 103 100 110 99
4 49 115 30 53
4 100 81 53 30
4 81 57 91 100
4 11 44 81 32
4 83 81 32 61
4 83 117 82 61
4 10 59 119 87
4 119 59 16 102
4 118 101 102 16
4 27 76 108 8
4 95 108 8 114
4 114 91 112 95
4 72 83 74 36
4 72 36 76 87
4 87 88 73 76
4 37 93 42 65
4 102 47 72 96
4 102 37 65 47
4 77 40 36 63
4 89 36 40 69
4 69 94 96 89
4 108 10 61 77
4 77 108 68 17
4 17 68 89 102
4 47 113 48 45
4 119 47 113 97
4 119 97 88 84
4 56 8 57 119
4 62 57 8 77
4 82 58 77 62
4 97 76 40 28
4 51 114 100 116
4 51 40 76 116
4 30 3 26 13
4 57 114 3 26
4 75 114 57 109
4 107 1 55 44
4 86 43 59 47
4 47 44 55 59
4 54 35 106 21
4 106 36 116 21
4 24 99 116 36
4 7 37 85 106
4 89 7 106 72
4 89 78 98 72
4 16 67 18 12
4 16 47 25 12
4 89 47 25 38
4 8 16 64 3
4 8 68 38 3
4 68 38 78 69
4 45 86 50 33
4 70 81 45 86
4 81 70 46 55
4 24 4 52 110
4 114 81 104 29
4 81 110 24 104
4 15 13 53 104
4 43 105 32 45
4 45 32 53 104
4 66 15 26 0
4 118 12 8 17
4 15 26 8 17
4 2 110 36 7
4 51 95 75 29
4 29 51 36 7
4 25 65 85 21
4 65 113 44 25
4 44 113 90 46
5 1 58 112 71 18
5 50 4 60 94 73
4 58 112 94 60
4 71 112 94 73
5 20 23 71 92 11
5 24 78 69 13 4
4 78 24 23 71
4 69 78 71 92
5 18 12 75 95 85
5 20 9 60 79 48
4 9 60 75 12
4 95 75 60 79
5 102 37 35 28 62
5 19 4 82 66 39
4 62 82 66 102
4 37 39 66 102
5 0 30 100 87 10
5 18 88 54 31 19
4 30 31 54 100
4 88 87 100 54
5 51 111 65 42 48
5 68 11 49 53 41
4 53 41 111 51
4 68 41 111 65
5 50 35 75 109 43
5 77 74 48 45 17
4 43 109 17 45
4 17 77 75 109
5 7 2 27 102 89
5 5 107 101 49 4
4 7 89 107 5
4 102 89 107 101
5 1 46 98 78 0
5 56 11 44 116 76
4 98 46 44 116
4 98 78 76 116
5 64 3 114 100 63
5 42 103 33 6 18
4 6 33 114 3
4 100 114 33 103
5 67 64 35 54 83
5 119 66 0 2 52
4 54 83 119 52
4 67 83 119 66
5 80 27 8 68 47
5 29 5 86 48 28
4 29 5 68 8
4 68 47 86 5
5 63 80 81 51 36
5 11 55 6 38 10
4 81 51 6 55
4 6 38 36 51
5 0 14 72 96 34
5 97 27 13 15 44
4 15 44 72 14
4 96 72 44 97
5 85 21 45 61 63
5 34 35 22 57 91
4 57 22 21 45
4 91 57 45 61
5 72 63 56 59 25
5 27 74 70 104 57
4 59 25 104 57
4 104 70 72 25
5 69 40 28 49 17
5 50 20 118 39 111
4 118 39 69 17
4 40 111 39 69
5 116 42 10 108 95
5 41 1 20 99 31
4 41 31 95 108
4 99 31 95 116
5 90 19 2 94 96
5 13 115 87 107 1
4 107 87 96 90
4 115 87 96 94
5 62 93 85 50 33
5 91 112 64 19 105
4 105 33 62 91
4 93 112 91 62
5 56 34 110 81 119
5 21 84 10 64 98
4 21 84 119 81
4 98 110 81 21
5 16 47 83 74 34
5 2 28 117 15 109
4 117 15 47 83
4 109 15 47 16
5 74 114 29 106 85
5 32 80 42 25 9
4 32 9 29 114
4 9 25 106 29
5 49 80 113 23 104
5 38 26 13 56 89
4 26 104 23 38
4 113 23 38 89
4 31 4 49 79
4 4 31 111 5
5 71 111 31 79 93
4 101 48 33 82
5 101 48 73 37 92
5 31 33 82 58 75
4 92 58 82 101
4 20 88 90 5
5 93 88 20 82 115
4 90 88 93 37
5 109 69 37 90 5
4 42 92 39 18
4 41 6 18 39
5 39 92 115 60 41
4 20 101 66 1
4 69 66 1 41
5 69 94 97 101 66
4 19 109 118 18
4 60 31 19 109
5 60 109 118 101 62
5 58 30 79 103 11
4 103 11 107 88
4 103 88 73 79
5 88 73 78 39 107
4 54 103 20 50
4 54 95 111 50
5 103 61 112 95 54
4 52 117 50 31
5 101 117 50 90 67
5 31 52 115 112 78
4 101 115 52 117
4 105 82 20 6
5 6 98 95 30 105
4 105 82 115 30
4 4 99 98 19
4 19 39 71 98
5 99 103 87 71 98
5 84 1 105 52 103
4 39 67 84 1
4 84 103 93 67
5 93 94 75 39 67
4 93 73 23 42
5 42 118 58 77 93
4 73 93 77 40
5 41 5 23 73 40
4 28 94 93 48
4 29 75 94 28
5 97 113 90 24 28
4 97 115 60 28
4 113 97 115 92
4 115 58 9 49
5 99 49 115 76 73
5 108 111 6 9 58
4 115 76 108 58
4 2 28 73 78
4 2 78 39 109
5 82 43 18 67 61
4 67 18 111 37
4 77 37 67 61
5 77 37 111 29 60
4 112 10 11 115
4 78 38 10 112
4 58 10 64 75
4 31 98 64 75
4 0 1 82 91
4 91 0 78 94
5 94 54 117 82 91
5 12 105 32 61 10
4 61 93 71 10
4 32 61 93 79
4 52 4 41 30
5 4 46 88 97 52
5 38 41 30 76 71
4 97 76 30 52
4 35 96 88 50
4 96 35 75 112
5 66 112 96 88 84
4 15 4 50 86
4 15 4 60 17
5 17 15 86 113 102
4 107 20 48 113
4 107 20 9 68
5 68 69 76 113 107
4 50 5 65 85
4 5 50 33 9
5 9 17 92 65 5
4 18 1 55 21
4 18 71 116 21
5 116 21 55 32 100
5 30 110 99 55 13
4 66 84 55 13
4 84 88 99 55
4 22 43 18 98
5 96 100 52 22 98
4 43 82 52 22
4 20 33 32 11
4 23 20 33 51
5 95 77 32 33 51
4 86 117 54 85
5 86 118 16 37 85
4 118 82 117 86
4 49 99 46 15
5 15 66 89 90 46
4 99 73 90 46
4 6 53 13 1
4 6 23 107 1
5 116 79 53 6 23
4 4 46 14 109
5 67 14 109 91 102
4 46 14 67 88
4 118 43 21 42
5 54 21 43 105 114
4 58 105 43 118
5 65 113 74 40 7
4 74 62 101 113
4 65 118 101 113
4 24 104 48 73
5 7 24 104 15 68
4 24 7 37 73
4 60 77 80 49
4 49 60 29 104
5 53 32 56 108 3
4 32 103 87 56
4 53 32 103 99
5 19 14 84 117 22
4 19 78 110 22
4 117 97 110 22
5 89 78 110 97 87
4 85 83 84 18
4 95 100 83 85
5 59 84 83 100 91
4 58 11 25 12
5 25 12 3 51 21
4 12 3 30 58
4 16 75 19 14
5 114 62 61 16 75
4 84 14 16 61
4 0 38 24 2
4 0 66 107 38
5 38 24 99 44 107
4 42 71 76 80
4 42 71 38 25
4 4 117 119 13
4 119 13 69 102
5 119 102 96 70 117
4 35 29 12 64
4 33 29 35 54
5 33 45 118 12 29
4 105 3 38 1
4 105 3 110 52
5 116 72 38 3 110
5 55 22 3 0 59
4 59 0 112 61
4 55 59 61 103
4 64 72 46 19
4 64 112 87 72
5 72 87 119 55 46
4 7 29 50 90
5 17 57 29 7 16
4 7 90 67 16
4 80 45 118 92
5 80 79 40 108 92
4 108 12 118 92
4 41 13 27 40
4 15 5 41 13
5 35 70 86 14 7
4 70 97 94 35
4 70 86 101 97
4 99 44 80 79
4 79 40 24 99
4 48 62 61 42
4 48 62 114 51
4 19 43 57 2
4 57 62 94 2
5 62 83 86 43 57
4 63 108 111 85
4 85 111 6 21
4 11 87 97 49
4 89 87 11 68
4 30 56 63 95
4 98 72 63 95
4 0 105 114 34
4 114 34 96 54
4 56 100 52 13
4 96 89 56 100
4 69 27 74 37
4 27 69 109 57
4 40 37 85 51
4 40 8 16 37
5 8 40 51 104 9
5 76 36 24 53 27
4 76 92 17 27
4 65 36 76 92
4 35 90 89 34
4 34 89 66 91
4 30 13 68 108
5 25 68 108 36 23
4 108 30 110 36
5 64 106 43 59 16
4 77 16 64 95
4 77 32 59 16
4 102 74 85 67
4 74 114 91 102
5 63 77 8 12 65
4 79 116 63 77
4 53 79 77 8
5 46 70 110 2 26
4 110 2 69 76
4 113 76 110 70
4 91 59 26 2
4 59 84 46 26
4 25 10 0 26
4 87 10 25 44
5 26 25 44 81 53
4 10 72 106 12
4 12 106 22 105
5 83 81 22 106 72
4 70 106 64 96
4 117 70 106 43
4 42 10 59 45
4 42 116 81 45
5 45 81 114 8 59
4 53 55 119 27
4 55 46 24 53
4 28 35 106 104
4 104 28 62 45
5 45 47 65 106 104
4 44 49 28 70
4 47 17 49 44
5 70 44 47 89 36
4 48 23 36 74
4 48 23 25 45
4 26 57 28 24
5 14 26 57 119 47
4 24 90 14 26
4 65 86 83 63
4 65 12 43 86
4 8 56 11 9
4 11 9 104 44
4 63 47 14 64
4 100 63 47 119
4 36 3 0 89
4 36 70 22 3
4 32 8 34 100
5 34 36 106 26 8
4 32 8 26 55
4 27 81 22 2
4 81 83 102 27
4 34 74 51 3
4 74 51 21 83
4 80 116 110 27
4 72 47 80 116
4 114 8 7 35
4 8 59 14 7
4 68 56 34 7
4 68 56 119 15
4 108 56 47 65
4 65 106 3 108
4 113 36 34 102
4 86 113 36 106
4 17 80 63 16
4 81 57 17 80
4 40 74 81 53
4 26 53 40 7
4 50 4 2 35
5 35 106 51 111 50
5 26 2 4 41 53
4 19 0 13 4
5 13 68 8 59 0
5 4 19 43 29 5
4 4 28 48 20
5 51 48 28 70 81
5 55 6 20 4 46
4 35 28 27 34
5 34 3 95 75 35
5 79 53 27 28 60
4 19 35 85 18
5 71 23 65 85 18
5 78 19 35 7 24
4 1 4 49 11
5 59 25 11 1 84
5 49 104 57 117 4
4 48 74 27 49
5 99 49 48 33 103
5 27 74 114 100 110
4 0 56 27 2
5 105 0 2 109 75
5 56 32 77 17 27
4 0 64 18 1
5 89 0 64 16 7
5 18 118 5 107 1
4 42 48 50 18
5 98 18 50 90 46
5 48 113 44 116 42
4 63 74 35 64
5 63 64 112 71 108
5 40 74 35 94 73
4 11 80 27 13
5 80 45 61 103 11
5 27 13 52 91 57
4 20 11 10 18
5 10 18 67 14 72
5 44 15 101 20 11
4 0 10 63 34
5 63 34 102 37 77
5 58 10 0 66 39
4 85 48 80 63
5 80 76 87 100 63
5 48 73 88 54 85
4 42 63 56 11
5 63 83 67 93 42
5 11 115 66 119 56
4 2 13 49 28
5 29 28 2 22 114
5 13 55 32 9 49
4 20 50 19 1
5 1 38 26 14 19
5 23 20 50 86 104
4 2 19 64 34
5 2 69 40 8 34
5 64 19 39 111 12
4 28 74 85 50
5 85 74 36 116 95
5 99 31 50 28 24
4 10 42 85 64
5 85 37 90 96 64
5 10 42 92 107 87
4 56 80 74 34
5 91 112 30 56 34
5 62 74 80 79 93
4 20 49 80 42
5 80 81 119 97 49
5 42 21 84 88 20
4 1 13 56 10
5 56 10 61 16 47
5 109 15 13 1 82
5 48 45 83 117 101
5 46 107 23 25 72
4 46 117 101 107
5 116 79 73 97 110
4 73 37 102 97
5 108 92 69 89 56
5 118 109 14 59 12
4 14 89 69 109
5 8 9 60 109 57
4 109 66 115 60
5 60 94 91 114 77
4 97 94 91 119
5 32 81 57 62 33
4 57 15 101 62
5 36 76 78 96 34
5 65 92 39 67 16
4 78 96 67 39
5 86 118 42 25 47
5 90 89 38 71 39
4 86 118 39 90
4 67 90 70 83
5 90 73 23 36 70
5 117 70 44 99 88
4 93 88 117 62
5 45 9 20 82 43
5 107 66 14 47 68
4 14 66 82 43
5 115 76 27 102 94
5 8 108 58 75 16
4 102 94 75 16
5 3 108 41 78 0
5 5 65 106 14 90
4 78 41 5 90
5 70 86 85 21 72
5 24 5 111 6 38
4 24 5 86 70
5 110 3 51 40 24
4 110 96 90 24
5 52 22 81 53 99
4 52 99 73 94
5 21 33 50 117 22
5 25 9 5 15 26
4 22 117 15 26
5 13 69 60 58 30
5 12 29 7 26 3
4 29 60 69 7
5 75 31 41 40 29
4 31 75 91 52
5 53 6 33 29 104
4 109 29 33 82
5 54 31 79 51 114
4 57 114 54 117
5 110 30 31 94 2
5 36 108 111 37 7
4 111 31 94 37
5 22 106 104 24 46
4 46 22 54 88
5 18 6 25 106 43
4 106 43 109 7
5 41 68 7 109 39
5 119 100 61 62 102
4 102 113 44 119
5 66 91 16 17 69
4 69 76 87 66
5 17 45 59 119 15
4 15 107 92 17
5 11 58 118 17 68
4 58 118 67 112
5 89 102 67 112 87
5 74 113 97 96 83
4 96 83 61 112
5 61 112 115 92 77
4 45 86 67 61
5 86 113 107 88 67
5 80 92 101 102 47
5 96 72 116 71 88
4 88 101 92 71
4 47 16 37 113
5 71 76 113 37 93
5 89 72 63 65 113
5 66 84 61 118 101
4 66 89 72 84
5 115 82 62 17 49
5 83 47 44 87 84
4 84 87 115 82
5 32 58 82 91 59
4 47 102 91 59
4 77 93 101 17
5 93 103 87 97 101
5 30 76 40 77 95
4 7 40 76 89
5 12 65 68 38 10
5 46 15 86 43 84
4 46 38 68 15
5 51 23 99 98 21
4 97 113 23 99
5 98 110 70 35 54
4 98 54 93 71
4 14 106 21 84
4 65 37 75 12
5 112 78 69 37 75
5 55 103 82 117 119
4 60 79 103 82
5 53 30 105 114 8
4 8 114 62 17
5 4 60 33 105 52
4 119 59 105 52
4 41 30 112 39
4 100 96 70 81
5 94 96 100 95 93
5 21 45 104 44 55
4 104 5 118 45
4 84 103 33 43
5 97 52 54 62 28
4 54 62 77 95
5 9 41 1 105 12
4 16 91 105 12
5 26 57 43 105 55
4 68 26 57 17
5 32 100 52 115 79
4 69 40 79 115
4 52 55 44 97
4 72 14 7 36
5 106 36 38 98 64
4 107 88 98 38
5 73 111 95 98 78
4 113 65 111 73
5 81 116 103 54 83
4 81 83 86 104
4 5 9 58 39
4 112 100 110 78
4 111 6 105 75
4 21 43 29 51
4 95 114 22 98
4 110 70 104 53
4 24 104 9 41
4 30 53 24 78
5 3 22 19 31 6
4 3 8 57 22
4 55 105 31 99
4 51 33 60 40
4 40 36 106 29
4 73 31 6 23
4 98 46 26 3
4 45 83 100 32
4 30 58 61 100
4 9 118 61 32
4 25 59 16 65
4 92 93 95 108
4 103 87 72 21
4 47 65 23 44
4 87 116 36 89
4 68 108 71 107
4 119 55 25 47
4 68 92 77 8
4 76 115 103 116
4 77 114 3 108
4 12 59 55 6
4 21 33 79 116
4 72 106 51 116
4 23 25 12 111
4 71 95 3 38
4 53 9 45 81
4 32 81 110 30
4 41 58 32 53
4 26 8 108 38
4 36 76 79 51
4 99 44 25 6
5 67 37 35 50 86
5 2 69 66 15 4
5 87 89 0 13 119
5 19 90 88 117 4
5 37 40 28 48 113
5 20 107 39 41 4
5 16 34 35 106 14
5 15 104 28 27 17
5 85 93 61 118 18
5 91 94 35 19 109
5 11 87 71 38 1
5 4 49 97 73 24
5 5 23 48 49 9
5 7 36 74 27 8
5 0 2 22 46 14
5 27 81 44 47 56
5 96 64 0 91 100
5 1 82 103 88 18
5 31 50 18 39 75
5 79 48 42 92 77
5 63 61 59 12 64
5 62 74 35 29 57
5 23 25 11 80 116
5 13 26 24 110 27
5 95 112 10 18 98
5 20 99 79 115 11
5 63 83 81 114 34
5 84 10 0 105 55
5 80 32 8 108 63
5 85 111 29 33 48
5 63 95 51 21 42
5 56 11 55 53 30
5 7 90 70 28 2
5 13 68 107 44 49
5 19 78 112 66 1
5 73 93 101 20 50
5 2 57 119 102 34
5 67 64 19 43 84
5 77 16 65 85 74
5 60 28 50 5 109
5 64 75 114 54 85
5 10 42 103 32 58
5 56 59 26 3 34
5 74 51 104 45 80
5 49 53 40 76 80
5 6 20 42 71 111
5 116 100 56 10 72
5 1 46 99 52 13
5 94 102 101 117 28
5 107 89 78 24 46
5 102 17 109 7 37
5 69 89 113 97 27
5 14 109 57 117 86
5 88 107 66 115 97
5 46 15 119 97 70
5 101 113 90 5 15
5 97 52 2 78 96
5 109 39 67 101 82
5 62 17 118 86 48
5 94 73 90 39 69
5 83 62 91 16 67
5 75 60 62 93 37
5 54 62 82 43 50
5 102 66 14 90 96
5 16 75 29 43 118
5 41 78 76 115 13
5 74 102 47 86 70
5 69 68 5 24 40
5 35 22 117 83 96
5 89 47 15 26 7
5 49 101 92 69 60
5 86 104 29 7 65
5 84 117 52 91 66
5 94 31 4 82 115
5 37 111 5 118 92
5 112 94 54 88 67
5 45 83 85 106 43
5 36 113 44 104 24
5 76 87 44 99 110
5 23 107 92 76 73
5 20 33 60 58 118
5 105 75 112 61 82
5 33 45 61 77 114
5 31 99 88 71 78
5 47 16 8 57 45
5 89 72 70 110 34
5 87 96 98 46 84
5 91 59 43 22 114
5 9 17 77 40 29
5 36 76 56 68 38
5 53 41 38 23 99
5 52 105 19 98 54
5 71 93 115 58 39
5 21 84 61 100 54
5 12 65 42 45 9
5 41 60 79 73 111
5 12 8 114 51 106
5 72 83 119 59 14
5 52 103 87 112 30
5 57 26 106 70 81
5 93 95 31 33 103
5 58 12 111 95 77
5 18 12 105 33 21
5 68 17 80 113 65
5 72 44 55 26 38
5 98 38 0 30 110
5 55 22 110 100 119
5 25 68 8 53 104
5 9 41 108 92 11
5 22 3 64 72 21
5 40 108 65 23 51
5 63 36 106 25 47
5 6 31 30 58 1
5 105 32 100 95 3
5 32 9 6 51 79
5 25 59 32 81 21
5 3 53 81 116 36
5 71 108 30 79 116
5 103 116 98 6 55
5 25 6 3 108 10

# Cells
7 0 1 2 3 4 5 6
7 7 8 9 10 11 12 13
7 14 15 16 17 18 19 20
7 21 22 23 24 25 26 27
7 28 29 30 31 32 33 34
7 35 36 37 38 39 40 41
7 42 43 44 45 46 47 48
7 49 50 51 52 53 54 55
7 56 57 58 59 60 61 62
7 63 64 65 66 67 68 69
7 70 71 72 73 74 75 76
7 77 78 79 80 81 82 83
7 84 85 86 87 88 89 90
7 91 92 93 94 95 96 97
7 98 99 100 101 102 103 104
7 105 106 107 108 109 110 111
7 112 113 114 115 116 117 118
7 119 120 121 122 123 124 125
7 126 127 128 129 130 131 132
7 133 134 135 136 137 138 139
7 140 141 142 143 144 145 146
7 147 148 149 150 151 152 153
7 154 155 156 157 158 159 160
7 161 162 163 164 165 166 167
7 168 169 170 171 172 173 174
7 175 176 177 178 179 180 181
7 86 182 183 184 185 186 187
7 149 188 189 190 191 192 193
7 102 194 195 196 197 198 199
7 109 200 201 202 203 204 205
7 106 206 207 208 209 210 211
7 212 213 214 215 216 217 218
7 219 220 221 222 223 224 225
7 226 227 228 229 230 231 232
7 233 234 235 236 237 238 239
7 165 240 241 242 243 244 245
7 143 246 247 248 249 250 251
7 252 253 254 255 256 257 258
7 259 260 261 262 263 264 265
7 266 267 268 269 270 271 272
7 273 274 275 276 277 278 279
7 60 280 281 282 283 284 285
7 45 286 287 288 289 290 291
7 81 292 293 294 295 296 297
7 158 298 299 300 301 302 303
7 94 304 305 306 307 308 309
7 310 311 312 313 314 315 316
7 317 318 319 320 321 322 323
7 142 324 325 326 327 328 329
7 73 330 331 332 333 334 335
7 93 336 337 338 339 340 341
7 342 343 344 345 346 347 348
7 78 349 350 351 352 353 354
7 355 356 357 358 359 360 361
7 362 363 364 365 366 367 368
7 369 370 371 372 373 374 375
7 155 376 377 378 379 380 381
7 371 382 383 384 385 386 387
7 38 388 389 390 391 392 393
7 394 395 396 397 398 399 400
7 343 401 402 403 404 405 406
7 66 407 408 409 410 411 412
7 413 414 415 416 417 418 419
7 150 256 420 421 422 423 424
7 414 425 426 427 428 429 430
7 381 431 432 433 434 435 436
7 327 437 438 439 440 441 442
7 11 443 444 445 446 447 448
7 396 449 450 451 452 453 454
7 23 455 456 457 458 459 460
7 65 461 462 463 464 465 466
7 162 316 467 468 469 470 471
7 340 472 473 474 475 476 477
7 51 418 478 479 480 481 482
7 410 483 484 485 486 487 488
7 121 489 490 491 492 493 494
7 464 485 495 496 497 498 499
7 355 500 501 502 503 504 505
7 364 506 507 508 509 510 511
7 99 320 512 513 514 515 516
7 354 517 518 519 520 521 522
7 87 271 523 524 525 526 527
7 52 430 528 529 530 531 532
7 136 533 534 535 536 537 538
7 116 508 539 540 541 542 543
7 37 264 544 545 546 547 548
7 17 403 549 550 551 552 553
7 307 472 554 555 556 557 558
7 32 451 559 560 561 562 563
7 301 431 564 565 566 567 568
7 249 439 569 570 571 572 573
7 203 574 575 576 577 578 579
7 130 502 580 581 582 583 584
7 210 575 585 586 587 588 589
7 72 276 590 591 592 593 594
7 296 517 595 596 597 598 599
7 113 365 600 601 602 603 604
7 176 493 605 606 607 608 609
7 275 333 610 611 612 613 614
7 170 460 615 616 617 618 619
7 260 393 620 621 622 623 624
7 44 215 625 626 627 628 629
7 57 231 630 631 632 633 634
7 29 397 635 636 637 638 639
7 127 361 640 641 642 643 644
7 16 346 645 646 647 648 649
7 235 536 650 651 652 653 654
7 219 447 655 656 657 658 659
7 186 267 660 661 662 663 664
7 192 253 665 666 667 668 669
7 24 171 670 671 672 673 674
7 122 179 675 676 677 678 679
7 8 224 680 681 682 683 684
7 2 372 685 686 687 688 689
7 3 384 690 691 692 693 694
7 226 283 695 696 697 698 699
7 197 319 700 701 702 703 704
7 214 290 705 706 707 708 709
7 244 310 710 711 712 713 714
7 135 236 715 716 717 718 719
7 0 720 721 722 723 724 725
7 7 726 727 728 729 730 731
7 14 732 733 734 735 736 737
7 21 738 739 740 741 742 743
7 28 744 745 746 747 748 749
7 35 750 751 752 753 754 755
7 42 756 757 758 759 760 761
7 49 762 763 764 765 766 767
7 56 768 769 770 771 772 773
7 63 774 775 776 777 778 779
7 70 780 781 782 783 784 785
7 77 786 787 788 789 790 791
7 84 792 793 794 795 796 797
7 91 798 799 800 801 802 803
7 98 804 805 806 807 808 809
7 105 810 811 812 813 814 815
7 112 816 817 818 819 820 821
7 119 822 823 824 825 826 827
7 126 828 829 830 831 832 833
7 133 834 835 836 837 838 839
7 140 840 841 842 843 844 845
7 147 846 847 848 849 850 851
7 154 852 853 854 855 856 857
7 161 858 859 860 861 862 863
7 173 864 865 866 867 868 869
7 181 870 871 872 873 874 875
7 187 758 876 877 878 879 880
7 193 747 881 882 883 884 885
7 199 771 886 887 888 889 890
7 205 831 891 892 893 894 895
7 209 819 896 897 898 899 900
7 218 901 902 903 904 905 906
7 225 907 908 909 910 911 912
7 232 913 914 915 916 917 918
7 237 872 919 920 921 922 923
7 245 734 924 925 926 927 928
7 250 789 917 929 930 931 932
7 258 890 933 934 935 936 937
7 265 938 939 940 941 942 943
7 272 944 945 946 947 948 949
7 279 950 951 952 953 954 955
7 285 855 912 956 957 958 959
7 291 842 867 960 961 962 963
7 297 781 964 965 966 967 968
7 303 800 905 969 970 971 972
7 308 751 973 974 975 976 977
7 314 879 978 979 980 981 982
7 323 983 984 985 986 987 988
7 328 729 989 990 991 992 993
7 335 823 994 995 996 997 998
7 341 722 999 1000 1001 1002 1003
7 345 945 1004 1005 1006 1007 1008
7 352 721 1009 1010 1011 1012 1013
7 360 976 1014 1015 1016 1017 1018
7 366 968 1019 1020 1021 1022 1023
7 374 952 1024 1025 1026 1027 1028
7 380 739 1029 1030 1031 1032 1033
7 385 940 1034 1035 1036 1037 1038
7 392 836 1039 1040 1041 1042 1043
7 400 985 1044 1045 1046 1047 1048
7 405 866 1049 1050 1051 1052 1053
7 412 847 949 1054 1055 1056 1057
7 419 885 1058 1059 1060 1061 1062
7 423 726 1063 1064 1065 1066 1067
7 427 927 1068 1069 1070 1071 1072
7 434 1073 1074 1075 1076 1077 1078
7 441 1073 1079 1080 1081 1082 1083
7 448 775 1084 1085 1086 1087 1088
7 452 907 1089 1090 1091 1092 1093
7 459 776 1094 1095 1096 1097 1098
7 465 861 986 1099 1100 1101 1102
7 471 740 1103 1104 1105 1106 1107
7 475 899 1108 1109 1110 1111 1112
7 481 824 1113 1114 1115 1116 1117
7 486 913 1118 1119 1120 1121 1122
7 494 807 943 1123 1124 1125 1126
7 499 902 1127 1128 1129 1130 1131
7 505 1097 1132 1133 1134 1135 1136
7 510 1088 1134 1137 1138 1139 1140
7 515 764 1081 1141 1142 1143 1144
7 522 895 1145 1146 1147 1148 1149
7 526 763 1078 1150 1151 1152 1153
7 532 835 1154 1155 1156 1157 1158
7 537 793 953 1159 1160 1161 1162
7 542 804 1036 1163 1164 1165 1166
7 547 848 1007 1167 1168 1169 1170
7 552 810 921 1171 1172 1173 1174
7 558 997 1175 1176 1177 1178 1179
7 563 813 875 1180 1181 1182 1183
7 566 1021 1184 1185 1186 1187 1188
7 573 1014 1189 1190 1191 1192 1193
7 577 1032 1194 1195 1196 1197 1198
7 583 794 1027 1199 1200 1201 1202
7 589 993 1203 1204 1205 1206 1207
7 593 858 1046 1208 1209 1210 1211
7 597 1042 1212 1213 1214 1215 1216
7 603 744 1217 1218 1219 1220 1221
7 607 978 1222 1223 1224 1225 1226
7 612 1066 1203 1227 1228 1229 1230
7 617 1116 1176 1231 1232 1233 1234
7 622 1106 1194 1235 1236 1237 1238
7 628 828 1239 1240 1241 1242 1243
7 633 816 1244 1245 1246 1247 1248
7 638 752 1191 1249 1250 1251 1252
7 644 733 1253 1254 1255 1256 1257
7 649 782 1188 1258 1259 1260 1261
7 653 934 1262 1263 1264 1265 1266
7 657 1157 1213 1267 1268 1269 1270
7 663 1108 1247 1271 1272 1273 1274
7 667 1012 1275 1276 1277 1278 1279
7 673 768 1264 1280 1281 1282 1283
7 678 786 1121 1284 1285 1286 1287
7 683 757 1225 1288 1289 1290 1291
7 688 852 1091 1292 1293 1294 1295
7 694 841 1051 1296 1297 1298 1299
7 698 1068 1256 1300 1301 1302 1303
7 702 1145 1242 1304 1305 1306 1307
7 707 1059 1221 1308 1309 1310 1311
7 714 1003 1276 1312 1313 1314 1315
7 719 799 1129 1316 1317 1318 1319
7 578 766 1320 1321 1322 1323 1324
7 703 802 1325 1326 1327 1328 1329
7 476 731 1330 1331 1332 1333 1334
7 269 790 1335 1336 1337 1338 1339
7 598 742 1340 1341 1342 1343 1344
7 613 773 1345 1346 1347 1348 1349
7 229 755 1350 1351 1352 1353 1354
7 498 814 1355 1356 1357 1358 1359
7 709 784 1360 1361 1362 1363 1364
7 428 725 1365 1366 1367 1368 1369
7 263 760 1370 1371 1372 1373 1374
7 399 797 1375 1376 1377 1378 1379
7 618 749 1380 1381 1382 1383 1384
7 406 808 1385 1386 1387 1388 1389
7 223 737 1390 1391 1392 1393 1394
7 375 779 1395 1396 1397 1398 1399
7 440 862 1400 1401 1402 1403 1404
7 668 833 1405 1406 1407 1408 1409
7 567 850 1410 1411 1412 1413 1414
7 313 821 1415 1416 1417 1418 1419
7 511 838 1420 1421 1422 1423 1424
7 180 857 1425 1426 1427 1428 1429
7 359 827 1430 1431 1432 1433 1434
7 654 844 1435 1436 1437 1438 1439
7 85 1214 1391 1440 1441 1442 1443
7 422 1136 1444 1445 1446 1447 1448
7 458 1250 1449 1450 1451 1452 1453
7 605 1029 1389 1454 1455 1456 1457
7 655 1258 1398 1458 1459 1460 1461
7 382 1054 1437 1462 1463 1464 1465
7 689 1101 1466 1467 1468 1469 1470
7 58 939 1397 1471 1472 1473 1474
7 513 1178 1475 1476 1477 1478 1479
7 626 955 1480 1481 1482 1483 1484
7 164 1137 1434 1485 1486 1487 1488
7 538 991 1489 1490 1491 1492 1493
7 543 1161 1494 1495 1496 1497 1498
7 120 1185 1423 1499 1500 1501 1502
7 591 1302 1503 1504 1505 1506 1507
7 671 1092 1508 1509 1510 1511 1512
7 36 1308 1369 1513 1514 1515 1516
7 289 996 1517 1518 1519 1520 1521
7 695 1039 1429 1522 1523 1524 1525
7 449 876 1358 1526 1527 1528 1529
7 501 1123 1378 1530 1531 1532 1533
7 553 887 1534 1535 1536 1537 1538
7 717 1192 1539 1540 1541 1542 1543
7 9 1049 1383 1544 1545 1546 1547
7 362 1316 1382 1548 1549 1550 1551
7 620 1239 1422 1552 1553 1554 1555
7 342 1141 1363 1556 1557 1558 1559
7 95 909 1377 1560 1561 1562 1563
7 639 1151 1564 1565 1566 1567 1568
7 378 936 1569 1570 1571 1572 1573
7 144 980 1426 1574 1575 1576 1577
7 207 1062 1578 1579 1580 1581 1582
7 643 1285 1583 1584 1585 1586 1587
7 108 1069 1353 1588 1589 1590 1591
7 334 1246 1592 1593 1594 1595 1596
7 350 869 1584 1597 1598 1599 1600
7 305 1270 1601 1602 1603 1604 1605
7 531 1294 1570 1606 1607 1608 1609
7 64 1196 1371 1610 1611 1612 1613
7 679 970 1601 1614 1615 1616 1617
7 408 1206 1577 1618 1619 1620 1621
7 129 871 1438 1505 1622 1623 1624
7 602 923 1593 1625 1626 1627 1628
7 198 1000 1553 1629 1630 1631 1632
7 80 1231 1334 1633 1634 1635 1636
7 660 1009 1374 1637 1638 1639 1640
7 415 1296 1431 1538 1641 1642 1643
7 234 929 1326 1644 1645 1646 1647
7 647 987 1612 1648 1649 1650 1651
7 466 893 1550 1652 1653 1654 1655
7 53 1024 1349 1604 1656 1657 1658
7 191 1255 1638 1649 1659 1660 1661
7 479 1038 1564 1662 1663 1664 1665
7 156 1275 1417 1666 1667 1668 1669
7 248 1314 1563 1670 1671 1672 1673
7 684 1172 1579 1674 1675 1676 1677
7 30 946 1386 1541 1678 1679 1680
7 169 1180 1346 1617 1681 1682 1683
7 483 896 1413 1684 1685 1686 1687
7 711 1217 1394 1520 1688 1689 1690
7 569 924 1338 1607 1691 1692 1693
7 274 956 1404 1675 1694 1695 1696
7 555 1084 1352 1497 1697 1698 1699
7 15 1304 1344 1626 1700 1701 1702
7 295 1095 1523 1618 1703 1704 1705
7 582 1224 1545 1652 1706 1707 1708
7 114 1262 1409 1663 1709 1710 1711
7 691 1120 1500 1629 1712 1713 1714
7 302 883 1459 1715 1716 1717 1718
7 1 1128 1362 1510 1719 1720 1721
7 548 962 1532 1670 1722 1723 1724
7 561 1273 1473 1716 1725 1726 1727
7 329 1104 1509 1557 1728 1729 1730
7 151 1015 1401 1580 1731 1732 1733
7 389 906 1449 1668 1734 1735 1736
7 184 1149 1494 1591 1737 1738 1739
7 74 915 1357 1477 1740 1741 1742
7 634 1169 1445 1647 1743 1744 1745
7 213 1208 1406 1568 1746 1747 1748
7 519 1280 1366 1492 1749 1750 1751
7 432 1063 1341 1594 1752 1753 1754
7 339 1289 1481 1685 1755 1756 1757
7 242 1023 1466 1635 1758 1759 1760
7 101 1109 1337 1572 1761 1762 1763
7 25 1045 1329 1446 1764 1765 1766
7 491 1076 1441 1517 1767 1768 1769
7 527 965 1464 1503 1770 1771 1772
7 254 1199 1331 1469 1773 1774 1775
7 318 973 1321 1585 1776 1777 1778
7 586 1113 1418 1451 1779 1780 1781
7 204 1156 1455 1540 1782 1783 1784
7 46 1227 1324 1598 1785 1786 1787
7 445 1008 1489 1514 1788 1789 1790
7 281 1238 1486 1534 1791 1792 1793
7 134 1080 1412 1482 1794 1795 1796
7 470 1164 1476 1528 1797 1798 1799
7 67 999 1320 1800 1801 1802 1803
7 18 989 1325 1804 1805 1806 1807
7 100 1253 1330 1808 1809 1810 1811
7 31 1103 1335 1812 1813 1814 1815
7 88 881 1340 1816 1817 1818 1819
7 43 1249 1345 1820 1821 1822 1823
7 71 1288 1350 1824 1825 1826 1827
7 4 1150 1355 1828 1829 1830 1831
7 39 886 1360 1832 1833 1834 1835
7 107 1094 1365 1836 1837 1838 1839
7 59 964 1370 1840 1841 1842 1843
7 22 1284 1375 1844 1845 1846 1847
7 79 1159 1380 1848 1849 1850 1851
7 10 969 1385 1852 1853 1854 1855
7 92 1163 1390 1856 1857 1858 1859
7 50 1171 1395 1860 1861 1862 1863
7 137 1244 1400 1864 1865 1866 1867
7 157 994 1405 1868 1869 1870 1871
7 123 891 1410 1872 1873 1874 1875
7 141 1154 1415 1876 1877 1878 1879
7 163 960 1420 1880 1881 1882 1883
7 128 1167 1425 1884 1885 1886 1887
7 148 1292 1430 1888 1889 1890 1891
7 115 1099 1435 1892 1893 1894 1895
7 395 1053 1443 1829 1896 1897 1898
7 435 1181 1447 1899 1900 1901 1902
7 294 761 1453 1903 1904 1905 1906
7 584 1060 1457 1837 1907 1908 1909
7 309 935 1461 1869 1910 1911 1912
7 482 1147 1465 1817 1913 1914 1915
7 529 820 1470 1916 1917 1918 1919
7 610 1131 1472 1865 1920 1921 1922
7 348 958 1479 1923 1924 1925 1926
7 623 931 1483 1904 1927 1928 1929
7 438 874 1488 1813 1930 1931 1932
7 541 736 1493 1933 1934 1935 1936
7 469 791 1498 1937 1938 1939 1940
7 356 1266 1501 1845 1936 1941 1942
7 217 1125 1507 1909 1943 1944 1945
7 521 1056 1512 1946 1947 1948 1949
7 228 1028 1516 1885 1919 1950 1951
7 545 856 1521 1952 1953 1954 1955
7 594 865 1525 1849 1925 1956 1957
7 674 1019 1529 1881 1901 1958 1959
7 424 901 1533 1832 1960 1961 1962
7 681 754 1537 1898 1963 1964 1965
7 368 877 1543 1966 1967 1968 1969
7 473 1047 1546 1824 1970 1971 1972
7 243 1205 1551 1801 1973 1974 1975
7 284 1177 1554 1809 1976 1977 1978
7 446 1313 1559 1876 1979 1980 1981
7 700 947 1561 1800 1982 1983 1984
7 457 724 1567 1972 1985 1986 1987
7 608 974 1571 1952 1988 1989 1990
7 650 1187 1576 1804 1991 1992 1993
7 487 1200 1581 1962 1994 1995 1996
7 190 743 1586 1947 1997 1998 1999
7 496 942 1590 1873 2000 2001 2002
7 287 839 1596 1967 2003 2004 2005
7 662 1210 1599 1938 2006 2007 2008
7 322 1298 1605 1915 2009 2010 2011
7 201 851 1608 1900 2012 2013 2014
7 370 1311 1613 1892 1955 2015 2016
7 642 730 1615 1932 2017 2018 2019
7 386 925 1620 2020 2021 2022 2023
7 665 1082 1623 1808 2024 2025 2026
7 712 1142 1627 1916 2027 2028 2029
7 550 778 1632 2020 2030 2031 2032
7 268 910 1636 1841 2033 2034 2035
7 562 1133 1639 1889 1968 2036 2037
7 211 983 1643 1805 2038 2039 2040
7 604 1235 1646 1840 2041 2042 2043
7 658 898 1650 1933 2044 2045 2046
7 686 826 1654 1922 2047 2048 2049
7 574 916 1657 1877 2050 2051 2052
7 300 809 1661 1924 2053 2054 2055
7 588 1318 1665 2043 2056 2057 2058
7 177 1140 1669 1853 1940 2059 2060
7 239 1085 1673 1912 2061 2062 2063
7 338 767 1676 2035 2057 2064 2065
7 615 1307 1679 1820 2031 2066 2067
7 353 1074 1683 1872 2068 2069 2070
7 693 1267 1686 1856 1948 2071 2072
7 251 951 1689 1821 2023 2073 2074
7 718 1034 1692 1860 1928 2075 2076
7 629 1004 1695 1852 2007 2077 2078
7 516 919 1698 1893 1989 2079 2080
7 221 1234 1702 1861 1906 2081 2082
7 524 815 1704 1995 2083 2084 2085
7 257 1259 1708 1981 2086 2087 2088
7 311 1017 1710 1857 1998 2089 2090
7 417 1031 1714 1985 2091 2092 2093
7 677 796 1717 1993 2094 2095 2096
7 425 1229 1720 1888 2004 2097 2098
7 631 863 1723 2002 2099 2100 2101
7 174 1041 1727 1978 2102 2103 2104
7 535 748 1729 2026 2102 2105 2106
7 565 981 1732 1816 2107 2108 2109
7 697 1064 1735 1963 2110 2111 2112
7 453 1115 1738 2040 2094 2113 2114
7 705 1197 1741 1868 2115 2116 2117
7 331 832 1744 2052 2086 2118 2119
7 391 1272 1748 1812 2120 2121 2122
7 185 1190 1750 1864 2123 2124 2125
7 492 1301 1753 1825 2092 2126 2127
7 196 785 1756 1943 2128 2129 2130
7 571 1281 1759 2070 2099 2131 2132
7 402 1216 1763 1833 2085 2133 2134
7 595 1111 1765 1836 2129 2135 2136
7 504 1010 1769 2047 2125 2137 2138
7 636 772 1771 1984 2139 2140 2141
7 379 1118 1774 1828 2112 2142 2143
7 648 1222 1777 1884 2028 2144 2145
7 411 1089 1780 1844 2046 2146 2147
7 462 845 1783 2061 2117 2148 2149
7 261 1072 1787 1880 2013 2150 2151
7 557 1241 1790 2017 2122 2152 2153
7 278 1218 1793 1975 2140 2154 2155
7 507 1279 1796 1848 2054 2156 2157
7 326 803 1798 2009 2109 2158 2159
7 590 759 1718 1822 2160 2161 2162
7 559 741 1519 1846 2163 2164 2165
7 670 788 1784 1850 2166 2167 2168
7 304 806 1655 1811 2169 2170 2171
7 512 732 1724 1806 2172 2173 2174
7 690 765 1660 1862 2175 2176 2177
7 478 812 1730 1839 2178 2179 2180
7 280 783 1491 1827 2181 2182 2183
7 407 720 1496 1830 2184 2185 2186
7 625 750 1799 1834 2187 2188 2189
7 206 774 1616 1803 2190 2191 2192
7 443 801 1595 1859 2193 2194 2195
7 645 727 1609 1854 2196 2197 2198
7 182 745 1468 1815 2199 2200 2201
7 349 792 1745 1819 2202 2203 2204
7 388 769 1587 1843 2205 2206 2207
7 580 849 1631 1890 2208 2209 2210
7 715 817 1705 1894 2211 2212 2213
7 246 834 1536 1867 2214 2215 2216
7 420 853 1772 1871 2217 2218 2219
7 376 822 1677 1874 2220 2221 2222
7 240 843 1566 1879 2223 2224 2225
7 600 860 1757 1882 2226 2227 2228
7 489 830 1452 1887 2229 2230 2231
7 159 1124 1645 2127 2232 2233 2234
7 621 1248 1392 2100 2200 2235 2236
7 530 1207 1622 2058 2237 2238 2239
7 704 1050 1758 2133 2207 2240 2241
7 497 1025 1597 2015 2227 2242 2243
7 442 1263 1734 1991 2198 2244 2245
7 641 937 1678 2088 2246 2247 2248
7 89 1182 1778 2037 2249 2250 2251
7 363 1107 1367 1937 2206 2252 2253
7 656 1002 1433 2064 2225 2254 2255
7 40 957 1687 1977 2256 2257 2258
7 456 1148 1740 1949 2259 2260 2261
7 682 1179 1719 2153 2262 2263 2264
7 68 1297 1696 2072 2265 2266 2267
7 518 1153 1416 2083 2221 2268 2269
7 710 992 1351 2158 2192 2270 2271
7 19 1086 1527 1980 2272 2273 2274
7 540 1315 1764 2029 2275 2276 2277
7 568 870 1662 2059 2195 2278 2279
7 579 1127 1788 2000 2231 2280 2281
7 270 1044 1625 1896 2177 2282 2283
7 687 1061 1794 2093 2284 2285 2286
7 413 894 1332 2012 2204 2287 2288
7 124 1201 1693 1908 2289 2290 2291
7 398 1232 1569 2066 2189 2292 2293
7 652 1138 1578 2156 2203 2294 2295
7 614 1309 1737 2115 2222 2296 2297
7 167 930 1754 2074 2298 2299 2300
7 332 904 1574 1945 2301 2302 2303
7 383 1158 1384 1917 2194 2304 2305
7 111 1055 1747 2147 2306 2307 2308
7 344 1291 1424 1964 2230 2309 2310
7 337 988 1471 2011 2311 2312 2313
7 83 878 1558 2124 2314 2315 2316
7 189 1077 1560 1902 2306 2317 2318
7 606 1257 1399 2018 2183 2319 2320
7 433 1287 1373 2095 2185 2321 2322
7 468 1193 1544 2132 2323 2324 2325
7 104 1260 1682 2145 2301 2326 2327
7 637 868 1610 2104 2310 2328 2329
7 168 967 1408 1903 2228 2263 2330
7 61 1209 1781 1957 2323 2331 2332
7 696 998 1379 2118 2171 2333 2334
7 288 1237 1731 1929 2314 2335 2336
7 117 926 1456 1974 2296 2337 2338
7 708 938 1602 2150 2224 2291 2339
7 178 1016 1480 1941 2167 2340 2341
7 477 1305 1767 1982 2186 2342 2343
7 500 884 1347 1997 2179 2324 2344
7 534 1022 1761 1969 2321 2345 2346
7 12 975 1640 1911 2294 2347 2348
7 293 1274 1656 2008 2298 2349 2350
7 661 1252 1427 2139 2215 2351 2352
7 48 1040 1463 2121 2342 2345 2353
7 212 1170 1342 1953 2197 2285 2354
7 632 954 1499 2155 2305 2355 2356
7 145 1317 1775 2076 2311 2357 2358
7 230 1228 1648 1920 2213 2359 2360
7 669 1184 1791 2107 2201 2273 2361
7 404 908 1444 2081 2180 2332 2362
7 599 944 1706 2033 2182 2266 2363
7 315 1079 1712 1930 2165 2326 2364
7 262 914 1508 1950 2209 2357 2365
7 138 1219 1531 2042 2280 2328 2366
7 546 1303 1709 2111 2287 2347 2367
7 585 1102 1336 2148 2174 2335 2368
7 5 1114 1524 1914 2240 2369 2370
7 554 889 1402 2128 2219 2349 2371
7 551 1269 1785 2045 2268 2337 2372
7 33 1282 1699 1959 2278 2355 2373
7 676 1135 1700 2138 2253 2369 2374
7 252 972 1322 2053 2188 2276 2375
7 195 1006 1588 1926 2232 2351 2376
7 55 897 1555 2039 2275 2292 2377
7 450 1098 1439 1986 2210 2312 2378
7 233 1166 1364 1934 2176 2247 2379
7 97 1143 1751 2080 2237 2341 2380
7 325 922 1440 2063 2265 2320 2381
7 358 1277 1619 2024 2173 2315 2382
7 373 1070 1475 2097 2218 2300 2383
7 619 1212 1671 2135 2191 2257 2384
7 202 1122 1485 1996 2249 2333 2385
7 484 1295 1388 2048 2164 2303 2386
7 153 1030 1549 2143 2259 2359 2387
7 132 1065 1690 1961 2242 2262 2388
7 273 963 1328 2003 2168 2238 2389
7 463 1037 1666 2022 2235 2272 2390
7 222 1110 1539 1970 2161 2307 2391
7 429 1195 1725 2050 2216 2233 2392
7 509 979 1504 2089 2170 2250 2393
7 299 1226 1633 1990 2256 2270 2394
7 27 1011 1460 2069 2244 2284 2395
7 570 1162 1359 2105 2162 2317 2396
7 317 1174 1411 2030 2212 2260 2397
7 76 1240 1642 2078 2246 2282 2398
7 525 1093 1513 2114 2254 2289 2399
7 62 1018 1372 1973 2160 2400 2401
7 90 918 1343 2038 2163 2402 2403
7 34 1026 1339 1976 2166 2404 2405
7 13 1071 1387 2120 2169 2406 2407
7 96 1230 1393 1913 2172 2408 2409
7 69 873 1323 2073 2175 2410 2411
7 6 1139 1356 2126 2178 2412 2413
7 41 982 1361 2142 2181 2414 2415
7 110 1083 1368 1960 2184 2416 2417
7 75 1265 1354 1907 2187 2418 2419
7 54 1278 1396 2041 2190 2420 2421
7 20 941 1327 2146 2193 2422 2423
7 103 1130 1333 1956 2196 2424 2425
7 82 1198 1381 2077 2199 2426 2427
7 26 1310 1376 2071 2202 2428 2429
7 47 1186 1348 2075 2205 2430 2431
7 125 911 1414 2123 2208 2432 2433
7 146 1048 1419 1910 2211 2434 2435
7 166 1112 1421 2068 2214 2436 2437
7 131 1233 1428 1979 2217 2438 2439
7 152 1306 1432 1958 2220 2440 2441
7 118 1215 1436 2144 2223 2442 2443
7 139 1052 1403 2036 2226 2444 2445
7 160 948 1407 2079 2229 2446 2447
7 421 928 1530 1831 2234 2448 2449
7 286 984 1592 2014 2236 2411 2450
7 387 971 1621 2082 2239 2451 2452
7 474 837 1547 1944 2241 2439 2453
7 576 746 1658 2062 2243 2409 2454
7 312 780 1711 2010 2245 2421 2455
7 609 966 1573 1951 2248 2456 2457
7 351 1087 1681 1866 2251 2458 2459
7 533 1119 1728 2055 2252 2432 2460
7 549 1075 1630 1905 2255 2403 2461
7 627 1117 1694 1814 2258 2462 2463
7 454 1168 1739 1942 2261 2448 2464
7 347 892 1478 2060 2264 2455 2465
7 208 1043 1641 1847 2267 2466 2467
7 455 920 1565 2130 2269 2423 2463
7 539 903 1490 1999 2271 2447 2459
7 514 1013 1697 1886 2274 2468 2469
7 238 1152 1672 2016 2277 2470 2471
7 666 777 1624 1923 2279 2418 2472
7 426 805 1721 1899 2281 2429 2457
7 596 840 1766 1994 2283 2440 2452
7 488 1105 1582 1897 2286 2473 2474
7 685 1005 1653 2005 2288 2414 2475
7 377 1220 1773 1826 2290 2450 2476
7 266 829 1634 2154 2293 2436 2477
7 437 723 1487 2103 2295 2401 2478
7 227 738 1515 2087 2297 2407 2479
7 601 1202 1644 1802 2299 2475 2480
7 699 1165 1736 1971 2302 2468 2481
7 461 1271 1782 1954 2304 2400 2482
7 480 959 1462 1807 2308 2470 2483
7 194 1189 1755 2084 2309 2404 2484
7 659 961 1651 2090 2313 2472 2485
7 672 977 1526 1875 2316 2473 2486
7 503 1173 1768 2098 2318 2466 2487
7 298 1204 1659 1939 2319 2435 2488
7 188 950 1583 2159 2322 2444 2469
7 367 888 1542 2151 2325 2454 2489
7 306 880 1458 1895 2327 2451 2490
7 664 1155 1600 1931 2329 2491 2492
7 635 1223 1770 2032 2330 2406 2493
7 390 1299 1746 1810 2331 2461 2494
7 544 1146 1518 1918 2334 2417 2495
7 277 1286 1792 2067 2336 2458 2496
7 716 1067 1691 1842 2338 2491 2497
7 611 735 1474 1966 2339 2405 2498
7 564 770 1733 2113 2340 2416 2499
7 220 846 1701 2056 2343 2443 2474
7 675 1236 1715 1935 2344 2437 2500
7 572 1290 1760 1921 2346 2462 2501
7 646 1283 1776 1878 2348 2460 2502
7 172 1100 1726 2157 2350 2499 2503
7 292 933 1450 2065 2352 2425 2467
7 592 900 1522 1855 2353 2456 2504
7 330 1090 1743 2149 2354 2413 2497
7 624 882 1484 2034 2356 2453 2505
7 241 1126 1548 1823 2358 2495 2503
7 259 798 1786 2131 2360 2426 2471
7 357 756 1502 1946 2361 2412 2492
7 701 825 1562 2021 2362 2434 2506
7 616 854 1680 1927 2363 2445 2481
7 506 811 1795 2006 2364 2430 2464
7 706 795 1742 1988 2365 2424 2487
7 247 1033 1688 1863 2366 2485 2507
7 216 990 1506 2134 2367 2477 2508
7 528 864 1467 2119 2368 2431 2449
7 409 1243 1779 1858 2370 2484 2509
7 680 1020 1535 1987 2371 2427 2483
7 321 1245 1603 1992 2372 2480 2510
7 183 1261 1749 1891 2373 2488 2511
7 436 1001 1448 2001 2374 2479 2512
7 640 1035 1614 2106 2375 2442 2486
7 556 1293 1789 2025 2376 2476 2513
7 692 1211 1684 1818 2377 2493 2512
7 523 1312 1703 1965 2378 2408 2514
7 324 1300 1797 2096 2379 2438 2515
7 444 1183 1556 1870 2380 2500 2508
7 713 1096 1628 2051 2381 2498 2509
7 175 762 1667 2152 2382 2415 2510
7 495 728 1589 2137 2383 2402 2516
7 394 818 1442 2091 2384 2433 2517
7 416 1160 1713 2136 2385 2506 2511
7 200 1175 1606 2101 2386 2419 2507
7 581 932 1454 1835 2387 2465 2518
7 490 1319 1752 1838 2388 2482 2519
7 630 1268 1722 2049 2389 2420 2518
7 587 1254 1664 1983 2390 2502 2517
7 401 859 1762 2110 2391 2446 2496
7 369 787 1611 2027 2392 2422 2501
7 651 753 1575 2044 2393 2410 2513
7 255 1251 1707 2116 2394 2494 2516
7 560 1144 1637 1883 2395 2505 2515
7 467 1058 1495 2019 2396 2441 2490
7 336 1132 1674 2141 2397 2428 2504
7 282 1057 1552 1851 2398 2489 2514
7 520 995 1511 2108 2399 2478 2519
