# Generated using Miratope v0.5.0 (https://github.com/galoomba1/miratope-rs)
4OFF

# Vertices, Faces, Edges, Cells
120 720 1200 120

# Vertices
1.3090169943749 0 0.8090169943749 0.5 
1.3090169943749 0.5 0 -0.8090169943749 
1.3090169943749 0.8090169943749 -0.5 0 
1.3090169943749 -0.5 0 -0.8090169943749 
1.3090169943749 -0.8090169943749 -0.5 0 
1.3090169943749 0 -0.8090169943749 0.5 
1.3090169943749 -0 0.8090169943749 -0.5 
1.3090169943749 0.5 0 0.8090169943749 
1.3090169943749 -0.5 0 0.8090169943749 
1.3090169943749 0 -0.8090169943749 -0.5 
1.3090169943749 -0.8090169943749 0.5 0 
1.3090169943749 0.8090169943749 0.5 0 
0.809016994375 0.8090169943749 0.8090169943749 -0.8090169943749 
0.5 1.3090169943749 0.8090169943749 0 
0.809016994375 1.3090169943749 0 0.5 
0.809016994375 0.8090169943749 0.8090169943749 0.8090169943749 
0.809016994375 1.3090169943749 0 -0.5 
0.809016994375 0.5 1.3090169943749 0 
1.6180339887499 0 -0 0 
0.809016994375 -0.8090169943749 0.8090169943749 -0.8090169943749 
0.5 -1.3090169943749 0.8090169943749 0 
0.809016994375 -1.3090169943749 0 0.5 
0.809016994375 -0.8090169943749 0.8090169943749 0.8090169943749 
0.809016994375 -1.3090169943749 0 -0.5 
0.809016994375 -0.5 1.3090169943749 0 
0.809016994375 0 -0.5 1.3090169943749 
0.5 -0.8090169943749 0 1.3090169943749 
0.809016994375 -0.8090169943749 -0.8090169943749 0.8090169943749 
0.809016994375 -0 0.5 1.3090169943749 
0.5 0 1.3090169943749 -0.8090169943749 
0 0 1.6180339887499 0 
0 0.8090169943749 1.3090169943749 0.5 
0.5 0 1.3090169943749 0.8090169943749 
0 0.8090169943749 1.3090169943749 -0.5 
0.809016994375 0 -0.5 -1.3090169943749 
0.5 -0.8090169943749 0 -1.3090169943749 
0.809016994375 -0.8090169943749 -0.8090169943749 -0.8090169943749 
0.809016994375 -0 0.5 -1.3090169943749 
0.5 0.8090169943749 0 1.3090169943749 
0.809016994375 0.8090169943749 -0.8090169943749 0.8090169943749 
0 0.5 0.8090169943749 1.3090169943749 
0 1.3090169943749 0.5 0.8090169943749 
0 -0.8090169943749 1.3090169943749 0.5 
0 -0.8090169943749 1.3090169943749 -0.5 
0.809016994375 0.5 -1.3090169943749 0 
0.5 0 -1.3090169943749 0.8090169943749 
0.809016994375 -0.5 -1.3090169943749 0 
0.5 0.8090169943749 0 -1.3090169943749 
0.809016994375 0.8090169943749 -0.8090169943749 -0.8090169943749 
0 0.5 0.8090169943749 -1.3090169943749 
0 1.3090169943749 0.5 -0.8090169943749 
0 -0.5 0.8090169943749 1.3090169943749 
0 -1.3090169943749 0.5 0.8090169943749 
0 0 0 1.6180339887499 
0.5 0 -1.3090169943749 -0.8090169943749 
0.5 1.3090169943749 -0.8090169943749 0 
0 1.3090169943749 -0.5 0.8090169943749 
0 1.6180339887499 0 0 
0 -0.5 0.8090169943749 -1.3090169943749 
0 -1.3090169943749 0.5 -0.8090169943749 
-0.5 0 1.309016994375 0.8090169943749 
0 0 0 -1.6180339887499 
0 1.3090169943749 -0.5 -0.8090169943749 
0.5 -1.3090169943749 -0.8090169943749 0 
0 -1.3090169943749 -0.5 0.8090169943749 
0 -1.6180339887499 0 0 
0 0.5 -0.8090169943749 1.3090169943749 
0 -0.5 -0.8090169943749 1.3090169943749 
-0.5 0 1.309016994375 -0.8090169943749 
0 0.8090169943749 -1.3090169943749 0.5 
0 -1.3090169943749 -0.5 -0.8090169943749 
-0.5 1.3090169943749 0.809016994375 0 
-0.8090169943749 0.8090169943749 0.809016994375 0.8090169943749 
-0.8090169943749 0.5 1.309016994375 0 
0 0.5 -0.8090169943749 -1.3090169943749 
0 -0.5 -0.8090169943749 -1.3090169943749 
-0.5 0.8090169943749 0 1.3090169943749 
0 0.8090169943749 -1.3090169943749 -0.5 
0 -0.8090169943749 -1.3090169943749 0.5 
-0.8090169943749 0.8090169943749 0.809016994375 -0.8090169943749 
-0.5 -1.3090169943749 0.809016994375 0 
-0.8090169943749 -0.8090169943749 0.809016994375 0.8090169943749 
-0.8090169943749 -0.5 1.309016994375 0 
0 0 -1.6180339887499 0 
-0.5 0.8090169943749 0 -1.3090169943749 
-0.5 -0.8090169943749 0 1.309016994375 
0 -0.8090169943749 -1.3090169943749 -0.5 
-0.8090169943749 1.309016994375 0 0.5 
-0.8090169943749 -0.8090169943749 0.809016994375 -0.8090169943749 
-0.8090169943749 0 0.5 1.309016994375 
-0.5 1.309016994375 -0.8090169943749 0 
-0.5 -0.8090169943749 0 -1.309016994375 
-0.8090169943749 1.309016994375 0 -0.5 
-0.8090169943749 -1.309016994375 0 0.5 
-0.8090169943749 0 -0.5 1.309016994375 
-0.8090169943749 0 0.5 -1.309016994375 
-0.5 -1.309016994375 -0.8090169943749 0 
-0.5 0 -1.3090169943749 0.809016994375 
-0.8090169943749 -1.309016994375 0 -0.5 
-1.3090169943749 0 0.809016994375 0.5 
-0.8090169943749 0 -0.5 -1.309016994375 
-0.8090169943749 0.809016994375 -0.8090169943749 0.809016994375 
-1.3090169943749 0.809016994375 0.5 0 
-0.5 0 -1.3090169943749 -0.809016994375 
-0.8090169943749 -0.8090169943749 -0.8090169943749 0.809016994375 
-1.3090169943749 0 0.809016994375 -0.5 
-0.8090169943749 0.5 -1.309016994375 0 
-0.8090169943749 0.809016994375 -0.8090169943749 -0.809016994375 
-1.3090169943749 -0.809016994375 0.5 0 
-0.8090169943749 -0.8090169943749 -0.8090169943749 -0.809016994375 
-1.3090169943749 0.5 0 0.809016994375 
-0.8090169943749 -0.5 -1.309016994375 0 
-1.3090169943749 -0.5 0 0.809016994375 
-1.3090169943749 0.5 0 -0.809016994375 
-1.3090169943749 0.809016994375 -0.5 0 
-1.3090169943749 -0.5 0 -0.809016994375 
-1.3090169943749 -0.809016994375 -0.5 0 
-1.3090169943749 -0 -0.809016994375 0.5 
-1.6180339887499 0 0 0 
-1.3090169943749 -0 -0.809016994375 -0.5 

# Faces
5 0 2 6 7 1
5 3 0 1 10 11
5 0 2 8 11 5
5 6 4 0 3 8
5 4 7 10 5 0
5 6 7 10 11 8
5 2 6 9 11 3
5 1 4 6 9 10
5 5 1 7 9 11
5 4 2 8 9 7
5 3 5 1 4 2
5 8 3 5 10 9
5 0 1 17 18 12
5 0 14 18 15 2
5 15 12 0 13 6
5 7 13 0 14 17
5 6 15 18 17 7
5 6 16 18 12 2
5 1 13 6 16 17
5 7 16 18 14 1
5 7 16 15 2 13
5 1 14 12 2 13
5 12 14 17 16 15
5 0 19 18 24 3
5 22 4 0 21 18
5 0 20 6 22 19
5 0 21 24 8 20
5 6 22 18 24 8
5 4 19 18 23 6
5 6 20 3 24 23
5 3 21 18 23 8
5 4 20 8 23 22
5 20 4 19 21 3
5 22 23 24 21 19
5 5 28 18 25 0
5 0 21 28 10 26
5 7 26 0 25 22
5 22 7 10 28 18
5 4 25 18 27 7
5 5 26 7 27 28
5 21 5 10 27 18
5 4 26 10 27 22
5 4 26 5 21 25
5 22 27 28 21 25
5 12 24 11 29 0
5 0 31 11 32 13
5 0 29 32 6 30
5 24 31 0 30 15
5 6 32 11 24 15
5 11 33 6 13 29
5 6 30 12 24 33
5 31 12 15 33 11
5 30 13 32 33 15
5 12 31 29 13 30
5 24 31 29 32 33
5 9 37 18 34 6
5 6 23 37 10 35
5 19 34 6 35 1
5 10 37 18 19 1
5 1 4 34 18 36
5 9 35 1 36 37
5 23 9 10 36 18
5 19 36 10 35 4
5 34 23 9 35 4
5 23 34 19 36 37
5 11 38 0 14 28
5 8 38 0 25 15
5 8 2 25 18 39
5 18 15 8 11 28
5 5 38 8 39 28
5 2 15 39 11 38
5 14 25 2 38 5
5 15 39 28 14 25
5 11 5 14 18 39
5 0 40 17 28 31
5 38 32 7 40 0
5 32 7 17 28 11
5 13 38 11 41 7
5 28 41 7 40 14
5 11 31 14 17 41
5 40 13 32 41 17
5 13 40 14 31 38
5 32 38 31 28 41
5 19 17 10 29 0
5 0 42 10 32 20
5 0 42 17 22 30
5 6 32 10 17 22
5 6 20 29 10 43
5 30 19 17 43 6
5 10 43 22 19 42
5 32 43 17 42 29
5 22 30 20 32 43
5 20 30 19 42 29
5 7 9 39 18 44
5 7 45 8 39 27
5 25 44 7 45 2
5 8 46 18 27 9
5 25 46 8 45 4
5 2 4 44 18 46
5 2 45 9 39 46
5 27 44 4 45 9
5 27 44 25 46 39
5 6 47 11 37 16
5 34 12 3 47 6
5 18 48 3 2 34
5 2 12 48 11 47
5 34 16 9 47 2
5 12 3 11 37 18
5 9 47 3 48 37
5 12 34 16 37 48
5 9 16 18 48 11
5 6 33 37 17 49
5 29 47 6 49 1
5 1 29 11 37 17
5 1 50 11 47 13
5 16 49 1 50 37
5 33 16 17 50 11
5 17 50 29 13 49
5 47 33 16 49 13
5 37 50 29 47 33
5 19 12 3 29 1
5 37 24 3 29 10
5 18 17 10 11 24
5 12 19 17 37 24
5 8 51 0 26 32
5 28 42 0 51 24
5 24 28 10 32 8
5 26 20 8 52 10
5 21 51 8 52 28
5 42 21 24 52 10
5 51 20 32 52 24
5 26 42 28 52 32
5 42 26 20 51 21
5 22 40 0 51 15
5 15 22 7 32 8
5 8 53 7 26 38
5 25 40 7 53 15
5 22 53 8 51 25
5 38 51 15 53 32
5 32 53 22 40 26
5 38 51 25 40 26
5 1 44 18 48 5
5 44 34 2 54 1
5 1 54 3 48 36
5 2 46 48 5 54
5 18 46 3 5 36
5 46 34 4 54 3
5 5 54 4 44 36
5 34 44 36 48 46
5 7 55 11 39 16
5 7 56 15 39 41
5 55 38 2 56 7
5 55 13 2 57 11
5 56 16 39 57 2
5 41 16 15 57 11
5 13 56 15 57 38
5 16 56 13 55 41
5 41 55 38 57 39
5 44 14 5 55 7
5 1 55 11 48 14
5 1 44 16 9 55
5 5 55 9 39 48
5 44 16 39 48 14
5 3 58 6 35 29
5 37 43 6 58 24
5 20 35 10 59 3
5 37 59 3 58 23
5 23 43 10 59 24
5 58 20 29 59 24
5 20 58 23 43 35
5 35 43 37 59 29
5 17 28 24 15 22
5 15 30 40 17 60
5 51 31 28 60 15
5 17 60 24 31 42
5 30 51 24 60 22
5 40 42 28 60 22
5 42 40 30 51 31
5 6 49 19 12 58
5 3 61 1 35 47
5 1 61 12 34 49
5 3 61 19 34 58
5 58 47 29 61 12
5 19 61 29 35 49
5 47 58 34 49 35
5 2 62 1 55 47
5 1 62 12 48 50
5 2 57 48 14 62
5 11 57 12 14 50
5 12 62 13 47 57
5 13 55 50 14 62
5 47 57 48 50 55
5 27 23 8 63 10
5 52 27 22 64 8
5 63 26 4 64 8
5 10 52 23 22 65
5 20 63 10 65 4
5 27 65 4 64 23
5 20 64 22 65 26
5 52 63 20 64 23
5 26 63 52 27 65
5 5 63 8 46 21
5 10 36 21 3 63
5 3 63 9 23 46
5 27 36 5 63 9
5 21 36 27 23 46
5 45 38 5 66 7
5 28 66 7 53 39
5 45 26 5 67 8
5 28 67 8 53 27
5 5 66 27 39 67
5 38 67 28 66 26
5 45 53 27 66 26
5 53 45 38 67 39
5 12 30 49 17 68
5 33 58 12 68 37
5 43 33 24 68 17
5 19 68 24 58 30
5 19 49 43 37 68
5 49 43 33 58 30
5 7 56 25 14 66
5 45 55 5 69 2
5 2 69 14 44 56
5 66 44 25 69 5
5 14 66 55 38 69
5 45 56 25 69 38
5 45 56 44 66 55
5 4 70 3 63 35
5 3 70 19 36 59
5 59 21 19 65 10
5 4 70 21 36 65
5 19 70 20 35 65
5 21 70 20 63 59
5 35 63 59 36 65
5 33 41 17 71 15
5 60 41 32 72 15
5 13 72 15 71 40
5 60 33 32 73 17
5 17 71 30 13 73
5 41 73 13 72 33
5 40 73 32 72 30
5 30 72 33 60 71
5 71 60 41 73 40
5 15 71 14 31 57
5 12 71 17 50 31
5 12 57 33 16 71
5 14 71 16 41 50
5 41 50 31 57 33
5 47 54 1 74 9
5 1 61 48 37 74
5 54 35 9 75 3
5 3 61 36 37 75
5 48 75 9 74 36
5 35 74 37 75 47
5 54 61 36 74 35
5 54 61 48 75 47
5 56 40 14 76 15
5 41 53 15 76 28
5 39 76 14 66 41
5 25 40 66 28 76
5 39 76 25 56 53
5 41 66 40 56 53
5 1 74 16 34 62
5 2 54 55 9 77
5 2 77 16 44 62
5 44 74 9 77 34
5 16 77 47 55 74
5 62 54 47 77 34
5 55 74 44 62 54
5 64 25 21 67 8
5 45 63 5 78 4
5 64 46 21 78 4
5 46 67 5 78 25
5 21 78 26 63 67
5 25 78 26 45 64
5 46 64 45 63 67
5 13 79 12 71 49
5 50 68 12 79 29
5 31 68 17 73 29
5 50 73 13 79 31
5 29 73 49 30 79
5 30 79 31 68 71
5 49 71 68 50 73
5 52 43 22 80 24
5 60 52 32 81 22
5 22 81 20 51 80
5 32 82 24 60 43
5 80 30 20 82 24
5 32 81 30 51 82
5 20 81 43 52 82
5 30 80 60 43 81
5 51 82 52 60 80
5 42 65 22 80 21
5 59 42 19 80 24
5 43 65 19 80 23
5 52 59 21 80 23
5 42 59 52 43 65
5 2 77 39 48 69
5 45 54 5 83 9
5 69 46 39 83 5
5 48 83 9 77 46
5 55 83 39 77 45
5 54 69 46 77 45
5 55 83 48 69 54
5 16 84 12 62 49
5 50 61 12 84 37
5 16 84 48 50 74
5 37 84 34 49 74
5 34 84 48 61 62
5 49 62 61 50 74
5 52 53 22 85 28
5 22 64 51 21 85
5 67 52 27 85 21
5 67 51 25 85 28
5 25 85 27 53 64
5 64 53 52 67 51
5 23 75 3 70 34
5 54 63 9 86 4
5 23 86 4 70 46
5 34 86 9 75 46
5 35 86 23 75 63
5 54 70 34 86 35
5 46 70 54 63 75
5 15 76 31 38 72
5 56 71 14 87 13
5 57 72 13 87 31
5 76 57 38 87 14
5 31 87 40 71 76
5 38 87 40 56 72
5 56 72 57 76 71
5 19 68 59 29 88
5 58 80 19 88 20
5 42 68 24 82 29
5 59 82 20 88 42
5 30 88 29 82 58
5 30 88 42 68 80
5 68 80 58 82 59
5 42 85 22 81 26
5 32 53 60 28 89
5 42 89 32 81 40
5 85 40 26 89 28
5 53 81 26 89 52
5 40 85 60 53 81
5 52 89 42 85 60
5 32 82 31 42 73
5 43 73 29 82 33
5 68 60 33 82 31
5 42 73 43 60 68
5 4 86 27 36 78
5 5 78 44 27 83
5 36 83 9 86 44
5 45 86 27 83 63
5 44 86 45 54 78
5 63 83 36 78 54
5 62 56 16 90 14
5 14 90 39 57 69
5 77 57 48 90 16
5 56 77 39 90 44
5 62 69 48 90 44
5 56 77 57 69 62
5 19 61 59 37 91
5 23 91 19 70 58
5 75 59 36 91 23
5 34 58 75 37 91
5 36 91 34 70 61
5 61 70 58 75 59
5 32 72 51 31 89
5 28 89 38 51 76
5 31 89 41 60 76
5 41 89 38 72 53
5 51 72 53 60 76
5 33 84 12 79 47
5 71 62 13 92 16
5 13 92 33 57 79
5 84 57 47 92 16
5 33 92 49 71 84
5 79 62 49 92 47
5 79 62 71 84 57
5 80 64 20 93 21
5 20 93 42 65 81
5 21 93 26 65 85
5 26 93 51 64 81
5 80 85 42 93 51
5 80 85 65 81 64
5 38 94 25 76 67
5 25 85 66 26 94
5 89 67 51 94 26
5 89 66 40 94 38
5 40 94 51 76 85
5 85 76 67 89 66
5 35 88 19 91 43
5 61 68 37 95 29
5 29 88 49 43 95
5 37 91 49 35 95
5 35 88 61 59 95
5 61 88 49 91 68
5 68 91 43 95 59
5 87 50 41 92 13
5 41 90 14 87 55
5 55 92 16 90 50
5 92 56 71 90 41
5 56 92 55 87 62
5 87 62 71 90 50
5 70 64 23 96 21
5 21 78 65 27 96
5 36 96 23 86 65
5 86 64 46 96 27
5 36 96 46 70 78
5 64 86 65 78 70
5 25 97 39 67 69
5 78 66 27 97 25
5 27 97 46 67 83
5 44 66 83 39 97
5 44 78 69 46 97
5 67 83 66 78 69
5 29 79 58 33 95
5 84 58 47 95 37
5 84 68 50 95 33
5 61 79 47 95 50
5 79 61 68 84 58
5 20 98 23 80 70
5 20 88 65 43 98
5 91 65 35 98 23
5 35 88 70 58 98
5 58 98 43 91 80
5 80 91 65 88 70
5 82 72 30 99 31
5 30 99 42 73 81
5 40 99 31 89 73
5 40 99 51 72 81
5 51 99 42 89 82
5 73 81 72 82 89
5 34 100 47 75 84
5 35 100 34 91 74
5 95 75 58 100 35
5 74 95 47 100 49
5 91 84 58 100 49
5 84 91 74 95 75
5 53 97 25 94 45
5 69 76 39 101 38
5 56 94 38 101 53
5 39 97 56 45 101
5 94 69 67 101 45
5 76 97 56 94 69
5 67 101 53 97 76
5 52 98 20 93 59
5 21 96 52 63 93
5 63 98 23 96 59
5 80 96 52 98 64
5 64 98 63 93 70
5 59 96 80 70 93
5 31 102 33 72 79
5 41 102 31 87 73
5 92 73 50 102 33
5 72 92 41 102 57
5 50 87 79 57 102
5 72 79 87 73 92
5 77 75 48 103 34
5 36 103 34 86 74
5 44 103 48 83 74
5 44 103 46 77 86
5 36 103 46 75 83
5 74 86 77 75 83
5 38 87 66 41 101
5 39 90 66 55 101
5 90 76 57 101 41
5 55 101 57 69 87
5 76 90 66 87 69
5 27 104 26 78 85
5 94 64 53 104 26
5 27 97 64 45 104
5 78 94 45 104 66
5 66 104 53 97 85
5 94 78 85 97 64
5 79 82 33 105 30
5 30 105 43 73 88
5 95 73 49 105 33
5 88 79 58 105 49
5 82 95 43 105 58
5 82 95 73 88 79
5 90 83 55 106 44
5 45 106 44 97 77
5 83 101 45 106 66
5 77 101 55 106 56
5 56 97 90 66 106
5 97 90 83 101 77
5 100 54 61 103 34
5 77 84 48 107 47
5 62 100 47 107 61
5 103 62 54 107 48
5 77 100 54 107 75
5 77 100 62 103 84
5 75 107 61 103 84
5 26 93 67 52 104
5 27 96 67 63 104
5 65 104 52 96 85
5 78 93 63 104 65
5 93 78 85 96 67
5 68 99 30 105 60
5 31 99 71 60 102
5 102 68 71 105 33
5 105 72 82 102 60
5 79 99 71 105 72
5 79 99 68 102 82
5 88 81 43 108 42
5 82 93 42 108 52
5 59 108 43 98 82
5 65 108 52 98 81
5 88 93 59 108 65
5 93 88 81 98 82
5 47 92 74 50 107
5 55 107 48 90 74
5 77 92 55 107 57
5 50 90 84 57 107
5 74 92 77 84 90
5 35 109 36 91 86
5 61 109 35 100 70
5 103 70 54 109 36
5 100 86 74 109 54
5 91 103 61 109 74
5 100 86 91 103 70
5 40 87 89 41 110
5 53 110 40 94 72
5 72 101 41 110 56
5 66 110 56 94 87
5 89 101 53 110 66
5 94 87 89 101 72
5 44 106 54 69 103
5 106 62 69 107 55
5 54 107 83 74 106
5 62 103 90 74 106
5 83 107 69 103 90
5 86 97 46 111 45
5 104 83 67 111 45
5 63 111 46 96 83
5 63 104 86 64 111
5 64 97 96 67 111
5 83 104 86 97 96
5 35 109 59 75 98
5 75 96 36 109 63
5 98 86 65 109 63
5 91 96 59 109 65
5 75 98 86 91 96
5 76 99 40 110 60
5 71 110 41 102 76
5 60 102 89 73 110
5 73 110 71 99 87
5 76 102 89 87 99
5 60 108 42 99 80
5 105 80 68 108 43
5 105 81 73 108 60
5 73 108 68 99 88
5 81 105 80 99 88
5 93 89 52 112 51
5 81 94 51 112 53
5 52 104 81 64 112
5 53 112 67 89 104
5 64 112 67 93 94
5 81 94 93 89 104
5 78 106 45 111 69
5 46 103 78 54 111
5 54 106 86 77 111
5 97 103 69 111 77
5 103 97 86 106 78
5 49 113 50 95 92
5 79 100 49 113 61
5 62 113 50 107 79
5 92 100 62 113 74
5 95 107 61 113 74
5 79 107 95 92 100
5 54 111 75 83 109
5 63 109 78 70 111
5 75 111 70 103 96
5 83 109 78 103 96
5 57 114 56 92 101
5 90 110 56 114 76
5 90 102 57 114 71
5 110 92 72 114 71
5 76 114 72 101 102
5 92 110 90 102 101
5 105 84 68 113 49
5 102 84 71 113 50
5 71 105 92 73 113
5 95 102 68 113 73
5 95 102 84 105 92
5 85 99 51 112 60
5 80 112 52 108 85
5 108 89 82 112 60
5 80 112 82 93 99
5 93 99 85 108 89
5 85 110 53 112 76
5 72 112 60 110 81
5 76 112 72 94 99
5 85 110 81 94 99
5 58 115 59 95 98
5 88 100 58 115 61
5 59 115 70 88 109
5 61 115 75 95 109
5 100 98 75 115 70
5 95 109 88 100 98
5 56 106 87 69 114
5 62 114 57 107 87
5 92 106 62 114 77
5 101 107 69 114 77
5 106 92 101 107 87
5 84 114 62 113 90
5 71 113 87 79 114
5 84 114 79 107 102
5 107 102 90 113 87
5 98 104 65 116 64
5 85 116 64 112 96
5 65 108 96 80 116
5 80 112 98 81 116
5 85 116 81 104 108
5 108 104 98 112 96
5 58 115 68 91 105
5 91 108 59 115 80
5 108 95 82 115 68
5 80 115 82 98 105
5 98 105 91 108 95
5 91 113 61 115 84
5 79 115 68 113 88
5 105 100 79 115 84
5 88 100 105 91 113
5 67 117 66 104 101
5 106 94 69 117 66
5 67 111 94 78 117
5 101 111 69 117 83
5 106 104 83 117 78
5 104 106 94 111 101
5 93 111 64 116 78
5 93 109 65 116 70
5 70 116 86 98 111
5 78 116 86 104 109
5 98 111 93 109 104
5 115 96 91 116 70
5 116 88 93 115 80
5 91 116 88 109 108
5 96 115 93 109 108
5 105 110 73 118 72
5 102 112 72 118 89
5 82 118 73 108 102
5 105 112 82 118 81
5 81 110 108 89 118
5 110 108 102 112 105
5 110 97 76 117 66
5 85 117 67 112 97
5 101 112 76 117 89
5 110 104 89 117 85
5 101 112 97 110 104
5 97 114 69 117 90
5 76 114 94 87 117
5 87 106 110 90 117
5 106 110 97 114 94
5 77 119 74 106 100
5 75 119 74 109 107
5 77 119 83 107 111
5 86 119 75 111 100
5 109 106 86 119 83
5 100 111 107 109 106
5 114 99 87 118 72
5 99 113 73 118 79
5 79 118 92 105 114
5 87 118 92 110 113
5 105 114 99 113 110
5 96 117 78 116 97
5 93 117 85 116 94
5 93 111 112 96 117
5 111 112 97 116 94
5 95 118 79 115 102
5 82 115 99 88 118
5 88 113 108 95 118
5 108 113 99 115 102
5 84 119 74 113 103
5 115 103 91 119 75
5 95 119 84 115 107
5 95 119 91 113 109
5 113 109 107 115 103
5 77 114 103 90 119
5 84 114 100 92 119
5 106 113 90 119 92
5 106 113 103 114 100
5 81 116 99 93 118
5 88 116 105 98 118
5 112 115 93 118 98
5 105 116 99 115 112
5 96 119 86 116 103
5 91 116 100 98 119
5 111 115 96 119 98
5 103 116 100 111 115
5 117 102 101 118 87
5 89 118 94 99 117
5 94 118 101 112 114
5 99 117 102 112 114
5 117 103 97 119 83
5 90 119 101 107 117
5 97 119 101 111 114
5 114 111 107 117 103
5 108 117 93 118 104
5 116 110 104 118 94
5 110 116 99 117 108
5 106 116 97 119 104
5 109 117 96 119 104
5 103 117 109 106 116
5 118 107 102 119 92
5 95 118 100 105 119
5 100 114 115 107 118
5 105 114 115 102 119
5 98 119 108 109 118
5 116 113 109 118 100
5 105 116 113 108 119
5 101 118 106 110 119
5 113 117 107 118 106
5 110 119 102 117 113
5 118 111 112 119 104
5 106 116 114 111 118
5 112 119 110 116 114
5 117 115 111 118 109
5 117 115 112 119 108
5 114 116 113 117 115

# Cells
12 0 1 2 3 4 5 6 7 8 9 10 11
12 0 12 13 14 15 16 17 18 19 20 21 22
12 3 23 24 25 26 27 28 29 30 31 32 33
12 4 24 34 35 36 37 38 39 40 41 42 43
12 14 44 45 46 47 48 49 50 51 52 53 54
12 7 28 55 56 57 58 59 60 61 62 63 64
12 2 13 34 65 66 67 68 69 70 71 72 73
12 15 45 65 74 75 76 77 78 79 80 81 82
12 25 46 83 84 85 86 87 88 89 90 91 92
12 9 38 67 93 94 95 96 97 98 99 100 101
12 6 17 55 102 103 104 105 106 107 108 109 110
12 18 49 102 111 112 113 114 115 116 117 118 119
12 1 12 23 44 58 83 107 113 120 121 122 123
12 26 35 84 124 125 126 127 128 129 130 131 132
12 36 66 75 124 133 134 135 136 137 138 139 140
12 10 59 98 104 141 142 143 144 145 146 147 148
12 20 70 77 149 150 151 152 153 154 155 156 157
12 8 19 73 93 110 141 149 158 159 160 161 162
12 29 56 87 121 163 164 165 166 167 168 169 170
12 5 16 27 37 48 68 76 86 122 126 134 171
12 47 74 85 125 133 171 172 173 174 175 176 177
12 57 103 112 120 163 178 179 180 181 182 183 184
12 21 105 114 152 159 185 186 187 188 189 190 191
12 31 41 127 192 193 194 195 196 197 198 199 200
12 11 30 40 61 96 145 192 201 202 203 204 205
12 39 69 94 135 206 207 208 209 210 211 212 213
12 50 88 111 123 164 178 214 215 216 217 218 219
12 71 95 151 158 206 220 221 222 223 224 225 226
12 32 62 165 196 202 227 228 229 230 231 232 233
12 52 80 172 234 235 236 237 238 239 240 241 242
12 22 51 79 116 154 188 234 243 244 245 246 247
12 60 108 143 179 248 249 250 251 252 253 254 255
12 72 78 136 150 207 220 256 257 258 259 260 261
12 106 142 160 185 248 262 263 264 265 266 267 268
12 42 97 194 201 208 269 270 271 272 273 274 275
12 53 117 214 238 244 276 277 278 279 280 281 282
12 91 130 175 283 284 285 286 287 288 289 290 291
12 33 89 129 167 195 229 283 292 293 294 295 296
12 99 144 161 221 263 297 298 299 300 301 302 303
12 109 115 180 186 249 262 304 305 306 307 308 309
12 43 128 137 193 209 269 310 311 312 313 314 315
12 63 146 203 227 250 316 317 318 319 320 321 322
12 81 155 236 243 256 323 324 325 326 327 328 329
12 92 168 217 287 293 330 331 332 333 334 335 336
12 131 139 176 284 310 337 338 339 340 341 342 343
12 54 90 174 216 237 278 286 332 344 345 346 347
12 100 147 204 270 298 317 348 349 350 351 352 353
12 153 162 187 222 264 297 354 355 356 357 358 359
12 64 166 181 228 251 316 360 361 362 363 364 365
12 82 138 173 235 257 323 338 366 367 368 369 370
12 118 189 245 276 304 371 372 373 374 375 376 377
12 132 198 285 292 311 337 378 379 380 381 382 383
12 140 211 259 313 340 367 384 385 386 387 388 389
12 170 183 218 330 360 390 391 392 393 394 395 396
12 156 190 246 324 354 372 397 398 399 400 401 402
12 197 205 230 271 318 348 403 404 405 406 407 408
12 101 210 223 272 299 349 409 410 411 412 413 414
12 119 182 215 277 305 371 391 415 416 417 418 419
12 169 231 294 331 361 390 420 421 422 423 424 425
12 177 240 288 339 344 366 426 427 428 429 430 431
12 184 253 307 363 393 416 432 433 434 435 436 437
12 213 225 260 384 409 438 439 440 441 442 443 444
12 199 232 295 378 403 420 445 446 447 448 449 450
12 239 247 279 325 373 397 451 452 453 454 455 456
12 148 252 265 300 319 350 457 458 459 460 461 462
12 157 224 258 326 355 398 439 463 464 465 466 467
12 212 274 314 385 410 438 468 469 470 471 472 473
12 219 280 334 345 392 415 474 475 476 477 478 479
12 226 301 357 412 441 464 480 481 482 483 484 485
12 255 267 308 432 457 486 487 488 489 490 491 492
12 200 273 312 380 404 446 468 493 494 495 496 497
12 241 281 346 426 451 474 498 499 500 501 502 503
12 289 296 333 379 421 445 504 505 506 507 508 509
12 191 266 306 356 374 399 487 510 511 512 513 514
12 254 321 364 433 458 486 515 516 517 518 519 520
12 261 328 369 387 440 463 521 522 523 524 525 526
12 268 303 358 459 480 489 511 527 528 529 530 531
12 275 351 406 411 470 494 532 533 534 535 536 537
12 233 320 362 405 422 447 515 538 539 540 541 542
12 242 327 368 428 452 499 521 543 544 545 546 547
12 290 335 347 427 475 498 504 548 549 550 551 552
12 315 341 381 386 469 493 553 554 555 556 557 558
12 302 352 413 460 481 527 532 559 560 561 562 563
12 309 376 418 435 488 510 564 565 566 567 568 569
12 322 353 407 461 517 534 539 560 570 571 572 573
12 329 400 454 465 523 544 574 575 576 577 578 579
12 282 375 417 453 476 500 564 580 581 582 583 584
12 291 343 382 430 505 548 553 585 586 587 588 589
12 342 370 388 429 522 543 554 585 590 591 592 593
12 365 394 423 434 516 538 594 595 596 597 598 599
12 359 401 466 483 512 528 574 600 601 602 603 604
12 377 402 455 513 566 576 581 601 605 606 607 608
12 383 448 495 507 555 586 609 610 611 612 613 614
12 336 396 424 478 506 549 594 615 616 617 618 619
12 395 419 436 477 565 580 595 615 620 621 622 623
12 414 442 471 482 533 559 624 625 626 627 628 629
12 408 449 496 535 540 571 609 630 631 632 633 634
12 425 450 508 541 596 611 616 631 635 636 637 638
12 431 501 545 550 587 591 639 640 641 642 643 644
12 389 444 472 525 556 590 624 645 646 647 648 649
12 443 467 484 524 575 600 625 645 650 651 652 653
12 462 490 518 529 561 570 654 655 656 657 658 659
12 456 502 546 577 582 606 639 660 661 662 663 664
12 473 497 536 557 610 626 630 646 665 666 667 668
12 479 503 551 583 617 621 641 661 669 670 671 672
12 437 492 519 568 597 620 655 673 674 675 676 677
12 491 514 530 567 602 605 654 673 678 679 680 681
12 509 552 588 612 618 636 642 670 682 683 684 685
12 520 542 572 598 632 635 657 674 686 687 688 689
12 526 547 578 592 640 647 651 660 690 691 692 693
12 485 531 562 603 627 650 656 678 694 695 696 697
12 558 589 593 613 643 648 666 682 691 698 699 700
12 537 563 573 628 633 658 665 686 694 701 702 703
12 569 584 607 622 662 669 675 679 704 705 706 707
12 599 619 623 637 671 676 683 687 705 708 709 710
12 579 604 608 652 663 680 690 695 704 711 712 713
12 629 649 653 668 692 696 699 701 711 714 715 716
12 614 634 638 667 684 688 698 702 708 714 717 718
12 659 677 681 689 697 703 706 709 712 715 717 719
12 644 664 672 685 693 700 707 710 713 716 718 719
