# Generated using Miratope v0.5.0 (https://github.com/galoomba1/miratope-rs)
4OFF

# Vertices, Faces, Edges, Cells
120 720 720 120

# Vertices
-0.809016994374945 -0.809016994374945 0.809016994374945 -0.809016994374945 
0 0.5 0.809016994374945 1.30901699437495 
-0.809016994374945 1.30901699437495 0 0.5 
0.5 -0.809016994374945 0 1.30901699437495 
-0.809016994374945 0.5 -1.30901699437495 0 
0 -0.809016994374945 -1.30901699437495 0.5 
-0.809016994374945 -0.809016994374945 -0.809016994374945 -0.809016994374945 
-0.809016994374945 0.5 1.30901699437495 0 
0 -0.809016994374945 1.30901699437495 0.5 
0 0.5 -0.809016994374945 1.30901699437495 
0 -1.61803398874989 0 0 
-1.30901699437495 0.5 0 -0.809016994374945 
-0.809016994374945 -0.809016994374945 0.809016994374945 0.809016994374945 
1.30901699437495 0.5 0 0.809016994374945 
0.5 1.30901699437495 0.809016994374945 0 
-0.809016994374945 1.30901699437495 0 -0.5 
0.5 0 -1.30901699437495 0.809016994374945 
-0.809016994374945 -0.809016994374945 -0.809016994374945 0.809016994374945 
0.5 0 1.30901699437495 0.809016994374945 
0.5 1.30901699437495 -0.809016994374945 0 
-1.61803398874989 0 0 0 
0.809016994374945 -0.809016994374945 0.809016994374945 -0.809016994374945 
0.809016994374945 0 -0.5 1.30901699437495 
-1.30901699437495 0 0.809016994374945 0.5 
-1.30901699437495 -0.809016994374945 -0.5 0 
1.30901699437495 0 0.809016994374945 0.5 
1.30901699437495 -0.809016994374945 -0.5 0 
-0.809016994374945 0 -0.5 1.30901699437495 
0 0 1.61803398874989 0 
0 -1.30901699437495 -0.5 -0.809016994374945 
-0.809016994374945 0.809016994374945 -0.809016994374945 -0.809016994374945 
0 0.809016994374945 1.30901699437495 0.5 
-0.809016994374945 0 0.5 1.30901699437495 
0.5 0 1.30901699437495 -0.809016994374945 
-0.809016994374945 -1.30901699437495 0 0.5 
0 -1.30901699437495 0.5 -0.809016994374945 
0 1.30901699437495 0.5 -0.809016994374945 
0 0 0 -1.61803398874989 
-1.30901699437495 0 -0.809016994374945 0.5 
0.809016994374945 -0.809016994374945 -0.809016994374945 0.809016994374945 
-0.5 1.30901699437495 -0.809016994374945 0 
-1.30901699437495 0.5 0 0.809016994374945 
-1.30901699437495 -0.809016994374945 0.5 0 
0 0.5 -0.809016994374945 -1.30901699437495 
-0.5 -0.809016994374945 0 -1.30901699437495 
0.809016994374945 -0.809016994374945 -0.809016994374945 -0.809016994374945 
-0.5 -0.809016994374945 0 1.30901699437495 
0.809016994374945 0.5 -1.30901699437495 0 
-0.809016994374945 0.809016994374945 0.809016994374945 0.809016994374945 
1.30901699437495 0.809016994374945 -0.5 0 
1.30901699437495 0 0.809016994374945 -0.5 
0.5 -1.30901699437495 0.809016994374945 0 
0 -1.30901699437495 -0.5 0.809016994374945 
0 1.30901699437495 -0.5 0.809016994374945 
0.809016994374945 0.809016994374945 0.809016994374945 -0.809016994374945 
0 -0.5 0.809016994374945 1.30901699437495 
0.809016994374945 -1.30901699437495 0 0.5 
-1.30901699437495 -0.5 0 -0.809016994374945 
-0.809016994374945 0.809016994374945 0.809016994374945 -0.809016994374945 
1.30901699437495 -0.5 0 -0.809016994374945 
-0.809016994374945 0.809016994374945 -0.809016994374945 0.809016994374945 
1.30901699437495 0.809016994374945 0.5 0 
-0.809016994374945 -0.5 1.30901699437495 0 
0.5 0.809016994374945 0 -1.30901699437495 
-0.809016994374945 0 0.5 -1.30901699437495 
0.5 0.809016994374945 0 1.30901699437495 
0 1.30901699437495 0.5 0.809016994374945 
0.809016994374945 1.30901699437495 0 -0.5 
-1.30901699437495 0 -0.809016994374945 -0.5 
1.30901699437495 0 -0.809016994374945 -0.5 
0 0 0 1.61803398874989 
0 -0.809016994374945 -1.30901699437495 -0.5 
0.809016994374945 -0.809016994374945 0.809016994374945 0.809016994374945 
0.809016994374945 0 -0.5 -1.30901699437495 
-0.5 0 -1.30901699437495 0.809016994374945 
-0.5 0 -1.30901699437495 -0.809016994374945 
1.61803398874989 0 0 0 
-0.5 -1.30901699437495 0.809016994374945 0 
0.809016994374945 0.809016994374945 -0.809016994374945 -0.809016994374945 
-0.5 0 1.30901699437495 -0.809016994374945 
-1.30901699437495 0.809016994374945 0.5 0 
-0.5 -1.30901699437495 -0.809016994374945 0 
0 0 -1.61803398874989 0 
0.809016994374945 0 0.5 -1.30901699437495 
1.30901699437495 -0.5 0 0.809016994374945 
0 -0.5 0.809016994374945 -1.30901699437495 
0 1.61803398874989 0 0 
0.809016994374945 0.809016994374945 0.809016994374945 0.809016994374945 
0.809016994374945 -1.30901699437495 0 -0.5 
0 0.809016994374945 -1.30901699437495 -0.5 
0.809016994374945 0.809016994374945 -0.809016994374945 0.809016994374945 
0 0.809016994374945 1.30901699437495 -0.5 
0 -0.5 -0.809016994374945 -1.30901699437495 
0.809016994374945 -0.5 -1.30901699437495 0 
0.809016994374945 -0.5 1.30901699437495 0 
-0.5 0.809016994374945 0 -1.30901699437495 
-1.30901699437495 0.809016994374945 -0.5 0 
-1.30901699437495 0 0.809016994374945 -0.5 
-0.5 1.30901699437495 0.809016994374945 0 
0.809016994374945 0 0.5 1.30901699437495 
0 -0.5 -0.809016994374945 1.30901699437495 
-0.5 0.809016994374945 0 1.30901699437495 
0 -1.30901699437495 0.5 0.809016994374945 
-0.809016994374945 -1.30901699437495 0 -0.5 
0 -0.809016994374945 1.30901699437495 -0.5 
-0.809016994374945 -0.5 -1.30901699437495 0 
0.5 -1.30901699437495 -0.809016994374945 0 
0 0.809016994374945 -1.30901699437495 0.5 
-0.809016994374945 0 -0.5 -1.30901699437495 
-0.5 0 1.30901699437495 0.809016994374945 
0.809016994374945 0.5 1.30901699437495 0 
1.30901699437495 -0.809016994374945 0.5 0 
0 0.5 0.809016994374945 -1.30901699437495 
0.809016994374945 1.30901699437495 0 0.5 
1.30901699437495 0 -0.809016994374945 0.5 
0 1.30901699437495 -0.5 -0.809016994374945 
0.5 -0.809016994374945 0 -1.30901699437495 
0.5 0 -1.30901699437495 -0.809016994374945 
-1.30901699437495 -0.5 0 0.809016994374945 
1.30901699437495 0.5 0 -0.809016994374945 

# Faces
5 2 0 1 11 8
5 0 1 10 7 3
5 0 4 7 6 2
5 3 6 8 5 0
5 0 4 10 11 5
5 6 2 5 11 9
5 7 10 11 8 6
5 9 6 3 4 10
5 10 9 8 5 1
5 1 4 7 9 11
5 1 4 3 2 5
5 7 3 2 8 9
5 3 14 12 13 7
5 13 17 18 16 12
5 20 14 12 15 18
5 7 4 12 15 17
5 16 20 3 4 12
5 17 19 3 4 13
5 7 17 18 20 3
5 19 17 15 16 20
5 4 14 20 19 7
5 13 7 19 18 15
5 13 15 16 14 4
5 19 3 14 16 18
5 22 21 1 26 28
5 0 1 21 23 25
5 21 22 29 25 5
5 23 29 28 24 21
5 5 0 26 24 21
5 0 26 28 29 25
5 27 0 1 24 28
5 27 0 5 23 29
5 28 22 23 25 27
5 1 5 25 27 26
5 23 5 1 24 22
5 22 29 27 26 24
5 30 31 38 36 32
5 30 31 37 2 33
5 30 34 2 6 32
5 33 30 35 36 6
5 30 34 37 38 35
5 37 2 6 36 38
5 32 6 8 38 35
5 6 33 34 37 8
5 31 37 8 36 35
5 38 8 2 34 31
5 32 35 31 34 33
5 33 2 8 36 32
5 39 41 47 46 40
5 39 43 9 45 40
5 41 10 9 42 39
5 46 44 39 42 45
5 10 43 39 44 47
5 45 9 10 47 46
5 45 11 47 44 40
5 10 43 42 45 11
5 11 46 44 41 10
5 9 11 46 40 42
5 47 11 9 43 41
5 42 43 41 44 40
5 28 49 48 50 53
5 14 27 49 48 16
5 14 51 48 50 12
5 27 51 48 52 28
5 16 12 53 52 48
5 27 14 12 53 28
5 12 26 28 52 50
5 12 26 27 51 16
5 26 28 49 51 14
5 50 16 14 26 53
5 26 53 52 49 27
5 51 16 50 52 49
5 25 23 54 55 58
5 54 56 31 59 55
5 54 23 37 31 57
5 25 29 54 56 37
5 54 29 58 59 57
5 31 59 58 25 37
5 55 57 31 34 58
5 34 37 23 29 58
5 34 59 57 56 37
5 23 56 31 34 25
5 29 55 59 34 25
5 23 56 57 55 29
5 61 32 19 18 60
5 60 61 30 65 63
5 20 65 62 60 18
5 32 64 60 62 30
5 19 64 60 63 20
5 33 30 61 64 19
5 19 32 30 65 20
5 30 62 63 20 33
5 18 64 32 33 20
5 33 65 62 61 32
5 61 62 63 18 64
5 33 19 18 63 65
5 39 67 70 69 66
5 13 41 39 66 17
5 43 13 71 67 39
5 39 41 71 70 68
5 69 68 39 43 17
5 17 69 70 71 13
5 17 15 70 68 66
5 15 17 43 41 71
5 70 15 13 41 67
5 13 15 69 66 43
5 41 43 66 68 67
5 67 71 15 69 68
5 22 73 72 47 21
5 46 76 74 72 47
5 77 73 72 44 76
5 72 24 22 77 74
5 24 21 46 44 72
5 21 22 77 76 46
5 44 47 21 75 76
5 24 73 77 75 21
5 22 75 76 74 73
5 22 75 46 47 24
5 46 75 77 74 44
5 47 24 73 74 44
5 79 78 80 83 40
5 35 78 79 45 36
5 78 38 36 82 80
5 78 38 45 40 81
5 78 81 83 82 35
5 40 83 82 36 45
5 42 45 79 81 83
5 42 82 35 38 45
5 42 82 80 81 40
5 36 42 40 79 38
5 80 35 36 42 83
5 38 79 81 80 35
5 84 48 49 55 86
5 65 58 49 48 63
5 51 65 62 84 48
5 48 85 55 58 51
5 63 48 85 86 62
5 55 86 62 65 58
5 58 59 86 85 49
5 58 59 62 63 51
5 63 84 86 59 65
5 59 65 51 49 55
5 51 63 84 85 49
5 59 62 84 85 55
5 73 87 88 67 72
5 87 52 50 70 88
5 87 73 53 50 89
5 74 72 53 52 87
5 87 89 70 67 74
5 53 72 67 70 50
5 50 71 72 73 52
5 72 71 70 88 74
5 71 53 52 89 70
5 89 88 67 71 50
5 74 67 71 53 73
5 74 73 52 89 88
5 61 80 90 91 60
5 91 69 66 83 90
5 82 66 68 90 80
5 90 83 82 61 92
5 69 60 92 90 68
5 61 60 69 66 82
5 68 91 60 64 66
5 60 64 82 80 92
5 69 64 82 83 68
5 83 80 61 64 66
5 69 64 61 92 91
5 83 68 91 92 80
5 54 93 94 78 56
5 77 54 56 79 76
5 54 75 76 95 93
5 95 77 54 57 94
5 57 78 79 75 54
5 78 94 95 76 79
5 78 56 75 76 81
5 78 57 93 95 81
5 94 81 76 77 93
5 57 56 79 81 94
5 81 95 77 75 79
5 75 56 57 93 77
5 94 90 88 87 93
5 87 85 84 91 88
5 87 93 86 84 89
5 87 89 91 90 95
5 95 87 85 86 94
5 91 84 86 94 90
5 88 90 92 84 89
5 93 86 92 90 95
5 92 86 85 89 91
5 84 92 94 93 85
5 94 92 91 88 95
5 95 88 89 85 93
5 33 65 58 25 2
5 14 0 25 58 51
5 14 20 65 58 27
5 0 27 58 34 2
5 34 58 51 20 33
5 34 25 0 3 33
5 20 33 2 0 14
5 0 27 51 20 3
5 20 3 2 34 65
5 3 14 27 25 2
5 27 25 34 65 51
5 14 51 65 33 3
5 13 12 53 72 41
5 26 53 72 47 1
5 24 1 10 41 72
5 47 72 71 13 10
5 26 24 72 71 12
5 10 13 12 26 1
5 1 24 53 12 4
5 41 10 4 12 71
5 10 4 26 24 47
5 41 13 4 1 47
5 13 4 26 53 71
5 47 41 71 53 24
5 17 7 9 42 66
5 19 32 82 66 17
5 6 32 64 17 7
5 9 6 19 17 43
5 82 42 43 17 64
5 43 7 6 36 42
5 9 6 32 82 42
5 36 82 64 19 6
5 36 9 43 66 82
5 36 42 66 64 32
5 7 43 66 64 19
5 7 19 32 36 9
5 21 23 56 79 46
5 5 21 46 45 8
5 23 37 8 11 21
5 45 79 75 21 11
5 56 75 21 5 37
5 45 8 37 56 79
5 75 46 45 38 56
5 11 5 37 38 45
5 37 23 75 79 38
5 11 46 79 38 8
5 8 5 23 56 38
5 5 11 46 75 23
5 83 39 67 88 90
5 83 90 95 76 40
5 88 74 76 81 90
5 67 68 90 95 74
5 39 68 90 81 40
5 76 40 39 67 74
5 44 76 81 83 39
5 44 39 68 88 74
5 44 67 88 95 76
5 68 83 40 44 67
5 40 44 74 95 81
5 83 81 95 88 68
5 31 78 94 86 59
5 31 78 80 61 30
5 78 35 61 92 94
5 80 92 86 57 78
5 30 59 57 78 35
5 61 30 59 86 92
5 31 30 62 86 57
5 30 35 80 92 62
5 61 62 86 94 80
5 31 59 62 61 35
5 35 80 94 57 31
5 94 57 59 62 92
5 93 87 73 22 54
5 49 52 87 93 55
5 49 85 87 73 28
5 22 28 52 87 77
5 54 55 85 87 77
5 22 54 55 49 28
5 54 93 85 49 29
5 28 73 77 54 29
5 29 28 52 85 55
5 29 49 52 73 22
5 29 55 93 77 22
5 77 93 85 52 73
5 50 70 91 84 48
5 48 16 18 60 84
5 50 15 18 63 48
5 60 63 48 89 91
5 15 70 89 48 16
5 60 18 15 70 91
5 70 89 84 60 69
5 63 16 15 69 60
5 16 18 69 70 50
5 91 84 63 18 69
5 50 16 63 84 89
5 15 50 89 91 69
5 96 28 53 97 87
5 74 98 22 96 87
5 87 97 72 98 77
5 28 22 98 72 53
5 28 24 72 97 52
5 24 98 77 96 28
5 22 96 52 53 24
5 53 24 98 74 97
5 74 97 52 96 77
5 99 80 94 101 79
5 35 99 79 56 31
5 80 100 31 38 99
5 38 56 101 81 99
5 81 99 35 100 94
5 101 56 31 100 94
5 79 38 31 57 101
5 80 100 57 101 81
5 38 56 57 100 35
5 17 18 60 102 66
5 68 102 60 103 70
5 60 103 15 17 64
5 18 103 70 104 17
5 64 102 68 104 17
5 104 70 91 102 66
5 18 64 66 104 15
5 91 103 18 64 102
5 91 103 15 104 68
5 18 103 48 51 20
5 20 16 48 105 65
5 48 103 60 62 105
5 106 60 84 105 65
5 20 106 60 103 16
5 20 106 62 105 51
5 51 16 18 106 65
5 18 103 84 62 106
5 103 16 51 105 84
5 30 65 58 107 31
5 58 107 57 86 105
5 30 62 105 58 34
5 30 65 105 86 100
5 34 30 100 57 107
5 100 86 55 107 31
5 31 34 65 62 100
5 65 105 55 107 34
5 55 105 62 100 57
5 105 48 52 96 55
5 28 108 48 85 96
5 105 58 27 108 48
5 58 27 28 96 55
5 58 29 28 108 51
5 96 29 58 105 85
5 27 51 105 55 29
5 29 96 52 108 27
5 85 105 51 108 52
5 99 80 90 109 40
5 90 102 66 39 109
5 90 102 82 99 81
5 39 40 99 82 66
5 81 109 39 42 99
5 42 39 68 102 82
5 66 102 80 99 42
5 42 66 68 109 40
5 80 102 68 109 81
5 72 41 104 70 97
5 74 109 39 41 72
5 72 44 109 88 97
5 44 39 104 71 72
5 70 88 109 39 104
5 68 70 97 74 109
5 41 104 68 109 44
5 88 97 71 104 68
5 44 41 71 97 74
5 77 101 79 46 98
5 46 98 74 109 40
5 77 98 44 109 95
5 74 98 75 101 95
5 44 98 75 79 40
5 101 79 40 109 95
5 77 101 81 109 74
5 40 46 75 101 81
5 46 79 81 109 44
5 22 23 107 55 96
5 23 56 101 77 22
5 22 96 93 101 75
5 75 22 29 107 56
5 56 107 55 93 101
5 57 55 96 77 101
5 57 107 23 75 101
5 75 23 29 96 77
5 57 107 29 96 93
5 48 103 70 97 52
5 89 97 53 108 48
5 15 103 48 108 12
5 53 12 15 70 97
5 71 12 16 103 70
5 71 97 52 108 12
5 15 71 53 108 16
5 71 97 89 103 15
5 52 108 16 103 89
5 80 102 60 62 100
5 60 106 32 82 102
5 60 106 30 100 92
5 80 100 30 32 82
5 30 106 64 82 35
5 35 82 102 92 100
5 35 80 102 64 32
5 106 32 35 100 62
5 64 106 62 92 102
5 39 66 111 9 110
5 104 13 10 110 39
5 39 104 17 111 42
5 17 111 9 10 13
5 17 7 10 41 104
5 110 10 7 111 42
5 66 111 7 13 104
5 9 110 41 13 7
5 41 104 66 42 110
5 41 72 98 46 110
5 1 112 72 98 21
5 10 112 72 44 110
5 1 10 110 46 21
5 98 21 11 110 44
5 10 112 24 21 11
5 41 112 1 11 110
5 11 1 24 98 46
5 44 98 24 112 41
5 110 9 8 113 46
5 8 36 99 79 113
5 46 40 99 38 113
5 11 113 79 40 110
5 11 9 36 38 113
5 40 110 9 36 99
5 46 110 42 99 79
5 11 110 42 36 8
5 8 38 99 42 9
5 8 113 23 25 2
5 25 107 31 114 2
5 25 107 56 113 5
5 5 8 114 34 25
5 31 114 8 113 56
5 107 31 38 113 23
5 113 5 2 114 38
5 107 56 38 114 34
5 5 23 107 34 2
5 1 112 12 14 0
5 24 112 12 108 28
5 27 0 4 12 108
5 28 115 0 14 108
5 4 112 24 115 0
5 53 112 1 115 28
5 4 14 27 115 1
5 108 14 4 112 53
5 53 108 27 115 24
5 18 17 111 32 106
5 17 111 6 3 116
5 20 116 17 64 106
5 33 106 64 111 6
5 33 6 7 116 20
5 3 6 32 106 20
5 18 64 111 7 116
5 33 106 18 116 3
5 7 3 33 32 111
5 114 30 65 117 2
5 106 19 6 114 30
5 30 106 20 117 34
5 34 117 3 6 114
5 20 117 2 6 19
5 65 106 32 114 34
5 65 117 3 19 106
5 3 19 32 114 2
5 0 3 116 12 26
5 51 20 116 12 108
5 108 26 0 117 51
5 116 4 0 117 20
5 27 117 20 16 108
5 3 4 26 27 117
5 51 117 3 116 16
5 16 108 26 4 116
5 27 58 107 23 115
5 2 117 58 107 37
5 58 117 0 115 29
5 0 115 23 37 2
5 37 5 0 117 34
5 37 107 29 115 5
5 2 117 27 115 5
5 107 29 27 117 34
5 45 99 35 114 8
5 99 45 9 111 82
5 6 111 42 45 8
5 6 114 38 45 9
5 35 114 6 111 82
5 99 82 32 114 38
5 32 111 42 99 35
5 9 8 114 32 111
5 46 98 22 23 113
5 46 113 5 1 47
5 1 115 23 113 11
5 11 47 98 75 113
5 113 75 22 115 5
5 1 115 22 98 47
5 23 115 24 98 75
5 11 47 24 115 5
5 12 112 41 104 15
5 7 116 12 112 10
5 12 116 17 104 71
5 4 116 17 43 10
5 10 43 104 71 112
5 7 43 41 112 4
5 43 104 15 116 7
5 112 71 15 116 4
5 87 96 55 86 118
5 87 96 54 101 95
5 77 101 94 118 87
5 94 86 55 54 101
5 57 86 85 96 54
5 86 118 95 101 57
5 55 85 118 94 57
5 95 118 85 96 77
5 94 100 61 102 90
5 80 90 118 86 100
5 60 84 118 90 102
5 86 84 60 61 100
5 62 60 91 118 86
5 84 62 61 102 91
5 62 100 94 118 84
5 91 118 94 80 102
5 70 97 87 118 91
5 87 52 48 84 118
5 48 85 87 97 50
5 48 103 91 118 85
5 84 103 70 88 118
5 85 52 50 103 84
5 88 97 50 103 91
5 85 52 97 88 118
5 70 88 90 102 69
5 90 68 70 89 118
5 60 103 89 118 92
5 84 92 102 69 103
5 88 68 69 103 89
5 68 88 118 92 102
5 80 78 101 95 90
5 81 90 118 93 101
5 81 90 92 100 78
5 93 101 78 100 86
5 93 118 92 100 57
5 80 92 118 95 81
5 93 95 74 73 96
5 52 96 93 118 89
5 89 97 73 96 85
5 74 88 118 93 77
5 95 74 97 89 118
5 77 73 97 88 95
5 90 118 87 74 109
5 88 87 77 76 109
5 93 87 74 76 101
5 94 90 109 76 101
5 81 109 88 118 94
5 83 109 95 94 80
5 92 94 81 83 102
5 91 88 109 83 102
5 91 118 95 109 68
5 95 87 97 67 109
5 70 91 90 109 67
5 89 91 68 67 97
5 49 96 87 89 48
5 86 105 48 89 118
5 86 93 96 49 105
5 52 49 105 84 89
5 105 55 93 118 84
5 60 92 86 105 63
5 63 103 91 92 62
5 92 118 85 105 62
5 85 105 63 103 89
5 84 92 100 59 105
5 55 93 94 100 59
5 59 105 85 93 57
5 61 32 36 99 80
5 66 111 32 61 102
5 61 35 99 83 102
5 64 111 36 35 61
5 36 111 66 83 99
5 42 111 64 102 83
5 72 112 13 104 67
5 50 97 72 112 12
5 50 12 13 104 70
5 13 112 53 50 15
5 15 50 97 67 104
5 41 67 97 53 112
5 101 54 22 98 76
5 22 54 56 113 21
5 79 113 23 54 101
5 77 54 23 21 98
5 79 113 21 98 76
5 101 76 46 113 56
5 101 76 40 99 78
5 56 78 99 45 113
5 101 78 38 113 75
5 75 113 45 40 76
5 46 45 99 81 76
5 41 47 98 74 67
5 73 98 44 67 97
5 67 44 47 112 71
5 73 98 47 112 53
5 97 73 24 112 71
5 83 102 69 104 39
5 82 111 43 39 83
5 102 69 17 111 82
5 43 111 64 69 104
5 42 43 104 68 83
5 27 25 107 55 49
5 65 117 25 107 59
5 51 49 29 25 117
5 49 105 65 117 27
5 29 49 105 59 107
5 105 59 34 117 51
5 33 117 58 59 30
5 105 63 20 117 58
5 59 105 63 106 30
5 59 34 33 106 62
5 33 117 51 63 106
5 14 108 48 63 20
5 58 49 108 14 117
5 16 63 65 117 14
5 63 105 49 108 16
5 19 106 60 69 17
5 106 61 82 111 19
5 61 106 18 69 102
5 18 69 66 111 19
5 54 107 31 78 101
5 54 107 37 113 75
5 31 78 79 113 37
5 38 37 107 57 78
5 28 73 72 112 26
5 28 73 97 50 108
5 108 50 71 112 26
5 73 24 26 108 52
5 22 115 27 49 96
5 53 108 49 96 73
5 49 108 26 115 29
5 53 73 22 115 26
5 73 96 29 115 24
5 78 100 59 107 56
5 30 114 38 78 100
5 37 114 35 78 56
5 107 59 30 114 37
5 35 114 34 59 100
5 103 69 17 116 16
5 15 116 20 63 103
5 64 69 15 116 19
5 16 116 19 106 63
5 103 69 64 106 63
5 12 116 18 103 50
5 14 116 18 63 51
5 50 108 14 116 15
5 63 103 50 108 51
5 61 100 31 114 32
5 100 59 65 106 61
5 33 114 35 61 106
5 31 59 65 33 114
5 107 54 22 115 25
5 23 115 28 96 54
5 58 107 54 96 49
5 28 49 58 25 115
5 41 67 109 40 110
5 40 110 43 66 83
5 42 110 44 109 83
5 44 110 43 104 67
5 109 83 66 104 67
5 76 98 72 67 109
5 72 67 39 110 47
5 39 109 76 46 110
5 98 76 40 110 47
5 39 83 99 45 110
5 79 76 44 110 45
5 109 76 79 99 83
5 75 54 96 73 98
5 29 54 75 21 115
5 28 73 98 21 115
5 18 116 13 104 69
5 16 116 13 71 50
5 71 104 69 103 50
5 78 99 36 114 31
5 100 61 82 99 78
5 61 82 36 114 30
5 111 43 10 119 6
5 19 116 4 119 6
5 116 13 10 119 3
5 43 13 4 119 9
5 19 111 43 13 116
5 3 119 9 111 19
5 112 47 21 115 26
5 21 115 0 119 11
5 21 47 10 119 5
5 10 119 0 26 112
5 112 47 11 119 4
5 115 26 4 119 5
5 36 114 37 113 45
5 9 45 113 5 119
5 6 119 11 45 36
5 6 114 37 5 119
5 37 113 11 119 2
5 9 119 2 114 36
5 8 119 1 21 113
5 25 115 21 113 37
5 0 25 37 8 119
5 2 25 115 1 119
5 0 119 7 116 14
5 112 13 7 119 1
5 26 112 13 116 14
5 3 14 26 1 119
5 8 119 7 111 36
5 111 19 33 114 36
5 2 119 7 19 33
5 3 119 8 114 33
5 117 33 6 119 0
5 4 14 117 2 119
5 33 117 14 116 19
5 26 115 25 117 14
5 117 25 5 119 3
5 25 117 33 114 37
5 36 111 43 110 45
5 8 119 10 110 45
5 110 43 7 119 11
5 47 21 113 45 110
5 110 47 1 119 9
5 13 112 47 110 43
5 86 93 54 107 59
5 63 106 61 92 84
5 49 85 89 50 108
5 91 88 67 104 69
5 90 94 78 99 83
5 76 98 73 87 95

# Cells
12 0 1 2 3 4 5 6 7 8 9 10 11
12 12 13 14 15 16 17 18 19 20 21 22 23
12 24 25 26 27 28 29 30 31 32 33 34 35
12 36 37 38 39 40 41 42 43 44 45 46 47
12 48 49 50 51 52 53 54 55 56 57 58 59
12 60 61 62 63 64 65 66 67 68 69 70 71
12 72 73 74 75 76 77 78 79 80 81 82 83
12 84 85 86 87 88 89 90 91 92 93 94 95
12 96 97 98 99 100 101 102 103 104 105 106 107
12 108 109 110 111 112 113 114 115 116 117 118 119
12 120 121 122 123 124 125 126 127 128 129 130 131
12 132 133 134 135 136 137 138 139 140 141 142 143
12 144 145 146 147 148 149 150 151 152 153 154 155
12 156 157 158 159 160 161 162 163 164 165 166 167
12 168 169 170 171 172 173 174 175 176 177 178 179
12 180 181 182 183 184 185 186 187 188 189 190 191
12 192 193 194 195 196 197 198 199 200 201 202 203
12 204 205 206 207 208 209 210 211 212 213 214 215
12 216 217 218 219 220 221 222 223 224 225 226 227
12 228 229 230 231 232 233 234 235 236 237 238 239
12 240 241 242 243 244 245 246 247 248 249 250 251
12 252 253 254 255 256 257 258 259 260 261 262 263
12 264 265 266 267 268 269 270 271 272 273 274 275
12 276 277 278 279 280 281 282 283 284 285 286 287
12 111 147 267 288 289 290 291 292 293 294 295 296
12 131 177 262 297 298 299 300 301 302 303 304 305
12 102 162 281 306 307 308 309 310 311 312 313 314
12 86 134 277 315 316 317 318 319 320 321 322 323
12 78 137 258 324 325 326 327 328 329 330 331 332
12 63 135 272 333 334 335 336 337 338 339 340 341
12 128 158 244 342 343 344 345 346 347 348 349 350
12 99 151 247 351 352 353 354 355 356 357 358 359
12 118 178 250 360 361 362 363 364 365 366 367 368
12 83 179 274 369 370 371 372 373 374 375 376 377
12 64 152 280 378 379 380 381 382 383 384 385 386
12 87 163 259 387 388 389 390 391 392 393 394 395
12 50 97 216 396 397 398 399 400 401 402 403 404
12 56 112 206 405 406 407 408 409 410 411 412 413
12 57 129 237 414 415 416 417 418 419 420 421 422
12 45 81 238 423 424 425 426 427 428 429 430 431
12 30 65 210 432 433 434 435 436 437 438 439 440
12 18 92 218 441 442 443 444 445 446 447 448 449
12 38 90 200 446 450 451 452 453 454 455 456 457
12 16 67 199 434 458 459 460 461 462 463 464 465
12 31 79 195 431 466 467 468 469 470 471 472 473
12 42 127 222 422 474 475 476 477 478 479 480 481
12 34 117 239 412 482 483 484 485 486 487 488 489
12 15 103 211 400 490 491 492 493 494 495 496 497
12 171 184 268 374 498 499 500 501 502 503 504 505
12 156 185 260 387 506 507 508 509 510 511 512 513
12 145 181 276 378 514 515 516 517 518 519 520 521
12 160 186 282 307 508 518 522 523 524 525 526 527
12 175 187 255 304 503 507 528 529 530 531 532 533
12 155 191 275 296 505 521 534 535 536 537 538 539
12 176 180 242 366 500 529 537 540 541 542 543 544
12 167 190 251 350 513 527 533 544 545 546 547 548
12 148 183 243 356 514 523 538 540 548 549 550 551
12 132 182 265 333 498 515 535 552 553 554 555 556
12 136 188 279 317 510 517 524 553 557 558 559 560
12 143 189 263 332 504 512 532 556 559 561 562 563
12 130 165 225 348 393 480 564 565 566 567 568 569
12 104 149 204 351 381 490 570 571 572 573 574 575
12 113 169 228 360 370 482 576 577 578 579 580 581
12 123 174 234 300 367 416 581 582 583 584 585 586
12 119 154 215 295 359 413 575 587 588 589 590 591
12 100 164 220 310 347 398 569 592 593 594 595 596
12 82 141 202 331 339 473 597 598 599 600 601 602
12 91 139 196 320 326 452 602 603 604 605 606 607
12 61 133 194 316 335 462 600 604 608 609 610 611
12 84 161 217 306 388 441 565 594 612 613 614 615
12 74 172 236 303 375 428 578 584 616 617 618 619
12 66 150 208 292 383 433 571 591 620 621 622 623
12 35 70 273 294 340 440 623 624 625 626 627 628
12 40 80 256 305 328 430 619 629 630 631 632 633
12 19 88 283 308 319 443 612 634 635 636 637 638
12 14 62 278 315 380 459 608 635 639 640 641 642
12 46 93 261 330 394 455 606 633 643 644 645 646
12 32 72 269 336 369 466 597 624 647 648 649 650
12 59 106 249 349 357 404 596 651 652 653 654 655
12 48 109 245 352 361 405 587 651 656 657 658 659
12 51 126 246 346 368 420 586 653 658 660 661 662
12 27 115 271 293 376 488 579 628 648 663 664 665
12 13 101 284 309 382 492 572 634 639 666 667 668
12 36 122 253 299 390 479 564 630 643 669 670 671
12 7 17 219 399 442 493 672 673 674 675 676 677
12 4 28 212 410 436 489 678 679 680 681 682 683
12 5 41 235 418 429 477 684 685 686 687 688 689
12 0 25 230 423 469 484 679 688 690 691 692 693
12 1 12 209 432 458 491 674 681 694 695 696 697
12 11 47 227 449 457 481 677 689 698 699 700 701
12 2 20 198 445 454 461 673 694 700 702 703 704
12 10 33 201 438 463 472 683 693 697 703 705 706
12 3 43 197 426 453 470 687 692 701 702 706 707
12 6 55 221 401 421 476 672 686 698 708 709 710
12 8 53 229 408 414 483 680 685 690 709 711 712
12 9 58 213 403 411 495 675 682 695 710 712 713
12 76 138 270 325 338 377 502 554 563 601 649 714
12 85 140 257 318 327 389 509 557 561 605 644 715
12 71 142 286 323 341 386 519 555 560 611 642 716
12 107 153 287 314 358 385 520 526 551 574 668 717
12 124 159 254 301 344 392 506 530 546 566 670 718
12 116 170 264 289 363 371 499 534 542 576 663 719
12 110 144 248 290 353 362 539 541 549 588 656 719
12 120 173 241 297 342 365 528 543 545 582 662 718
12 96 157 240 311 343 355 522 547 550 592 655 717
12 60 146 266 288 334 379 516 536 552 621 625 716
12 94 166 285 313 322 395 511 525 558 614 638 715
12 73 168 252 302 329 373 501 531 562 616 629 714
12 39 89 223 391 444 451 478 567 613 645 671 699
12 22 69 214 384 439 465 497 573 622 641 667 696
12 26 75 232 372 425 471 486 577 617 647 664 691
12 54 114 231 364 409 417 485 580 585 659 661 711
12 52 98 207 354 397 407 494 570 589 654 657 713
12 49 125 224 345 396 419 475 568 593 652 660 708
12 29 68 193 337 435 460 468 599 609 626 650 705
12 37 77 192 324 424 450 467 598 603 632 646 707
12 23 95 203 321 448 456 464 607 610 637 640 704
12 21 105 226 312 402 447 496 595 615 636 666 676
12 44 121 233 298 415 427 474 583 618 631 669 684
12 24 108 205 291 406 437 487 590 620 627 665 678
