# Generated using Miratope v0.5.0 (https://github.com/galoomba1/miratope-rs)
4OFF

# Vertices, Faces, Edges, Cells
120 2520 1200 720

# Vertices
0.809016994374945 -0.809016994374945 -0.809016994374945 0.809016994374945 
0 -1.61803398874989 0 0 
0 0 -1.61803398874989 0 
0.809016994374945 0 0.5 1.30901699437495 
-0.809016994374945 -0.809016994374945 -0.809016994374945 -0.809016994374945 
-1.30901699437495 0.5 0 -0.809016994374945 
0 -0.809016994374945 1.30901699437495 0.5 
-0.5 1.30901699437495 -0.809016994374945 0 
0 1.30901699437495 0.5 0.809016994374945 
-0.809016994374945 0.5 1.30901699437495 0 
0.809016994374945 0.809016994374945 -0.809016994374945 0.809016994374945 
-0.809016994374945 0.809016994374945 -0.809016994374945 0.809016994374945 
1.30901699437495 0.809016994374945 0.5 0 
-0.809016994374945 -0.809016994374945 -0.809016994374945 0.809016994374945 
1.30901699437495 -0.809016994374945 0.5 0 
-1.30901699437495 0.809016994374945 0.5 0 
-1.30901699437495 -0.809016994374945 0.5 0 
0 0.809016994374945 1.30901699437495 -0.5 
0 -0.809016994374945 1.30901699437495 -0.5 
-0.809016994374945 -0.809016994374945 0.809016994374945 0.809016994374945 
-0.809016994374945 -0.809016994374945 0.809016994374945 -0.809016994374945 
0 0.5 0.809016994374945 1.30901699437495 
0 0.5 0.809016994374945 -1.30901699437495 
0 0.5 -0.809016994374945 1.30901699437495 
0 0.5 -0.809016994374945 -1.30901699437495 
0.5 1.30901699437495 0.809016994374945 0 
0.5 1.30901699437495 -0.809016994374945 0 
0.809016994374945 0.809016994374945 -0.809016994374945 -0.809016994374945 
0.809016994374945 -0.809016994374945 -0.809016994374945 -0.809016994374945 
-0.809016994374945 0.809016994374945 -0.809016994374945 -0.809016994374945 
0.809016994374945 1.30901699437495 0 0.5 
0.809016994374945 -1.30901699437495 0 0.5 
-0.809016994374945 1.30901699437495 0 0.5 
-0.809016994374945 -1.30901699437495 0 0.5 
-0.809016994374945 0 0.5 1.30901699437495 
0.809016994374945 -0.809016994374945 0.809016994374945 0.809016994374945 
0.809016994374945 -0.809016994374945 0.809016994374945 -0.809016994374945 
-0.5 0 1.30901699437495 0.809016994374945 
-0.5 0 -1.30901699437495 0.809016994374945 
-0.5 0 1.30901699437495 -0.809016994374945 
-0.5 0 -1.30901699437495 -0.809016994374945 
-1.30901699437495 0.5 0 0.809016994374945 
0 0 0 1.61803398874989 
-1.61803398874989 0 0 0 
1.30901699437495 0.5 0 0.809016994374945 
-0.809016994374945 0 0.5 -1.30901699437495 
1.30901699437495 0 0.809016994374945 -0.5 
0.5 0.809016994374945 0 -1.30901699437495 
-0.809016994374945 0.809016994374945 0.809016994374945 -0.809016994374945 
0 0 0 -1.61803398874989 
0 -0.809016994374945 -1.30901699437495 0.5 
-0.809016994374945 0 -0.5 1.30901699437495 
1.30901699437495 0.5 0 -0.809016994374945 
0.5 0.809016994374945 0 1.30901699437495 
1.30901699437495 0 -0.809016994374945 0.5 
0 1.61803398874989 0 0 
1.30901699437495 -0.5 0 -0.809016994374945 
0 0.809016994374945 1.30901699437495 0.5 
0.5 -1.30901699437495 -0.809016994374945 0 
0.809016994374945 -0.5 1.30901699437495 0 
0 -1.30901699437495 0.5 0.809016994374945 
0.809016994374945 0.809016994374945 0.809016994374945 0.809016994374945 
1.61803398874989 0 0 0 
-0.5 -1.30901699437495 -0.809016994374945 0 
0.809016994374945 0 0.5 -1.30901699437495 
-1.30901699437495 -0.5 0 0.809016994374945 
-1.30901699437495 0 0.809016994374945 -0.5 
-0.5 -0.809016994374945 0 -1.30901699437495 
0 0 1.61803398874989 0 
0.809016994374945 0 -0.5 -1.30901699437495 
-0.5 1.30901699437495 0.809016994374945 0 
0 -0.809016994374945 -1.30901699437495 -0.5 
0 1.30901699437495 -0.5 -0.809016994374945 
-0.809016994374945 0.5 -1.30901699437495 0 
0 0.809016994374945 -1.30901699437495 0.5 
-0.5 -1.30901699437495 0.809016994374945 0 
0.809016994374945 0 -0.5 1.30901699437495 
-1.30901699437495 -0.5 0 -0.809016994374945 
-0.5 -0.809016994374945 0 1.30901699437495 
-1.30901699437495 0 -0.809016994374945 0.5 
-0.809016994374945 0.809016994374945 0.809016994374945 0.809016994374945 
0.5 0 1.30901699437495 0.809016994374945 
0.5 0 1.30901699437495 -0.809016994374945 
0.5 0 -1.30901699437495 0.809016994374945 
0.5 0 -1.30901699437495 -0.809016994374945 
1.30901699437495 -0.5 0 0.809016994374945 
0.809016994374945 1.30901699437495 0 -0.5 
0.809016994374945 -1.30901699437495 0 -0.5 
-0.809016994374945 1.30901699437495 0 -0.5 
-0.809016994374945 -1.30901699437495 0 -0.5 
-0.809016994374945 0 -0.5 -1.30901699437495 
0.809016994374945 0.809016994374945 0.809016994374945 -0.809016994374945 
0 -0.5 0.809016994374945 1.30901699437495 
0 -0.5 0.809016994374945 -1.30901699437495 
0 -0.5 -0.809016994374945 1.30901699437495 
0 -0.5 -0.809016994374945 -1.30901699437495 
1.30901699437495 0.809016994374945 -0.5 0 
1.30901699437495 -0.809016994374945 -0.5 0 
-1.30901699437495 0.809016994374945 -0.5 0 
-1.30901699437495 -0.809016994374945 -0.5 0 
0 0.809016994374945 -1.30901699437495 -0.5 
0.5 -1.30901699437495 0.809016994374945 0 
0.809016994374945 -0.5 -1.30901699437495 0 
0 -1.30901699437495 -0.5 -0.809016994374945 
0 1.30901699437495 0.5 -0.809016994374945 
0.5 -0.809016994374945 0 1.30901699437495 
0.809016994374945 0.5 1.30901699437495 0 
-1.30901699437495 0 -0.809016994374945 -0.5 
-0.5 0.809016994374945 0 1.30901699437495 
0 -1.30901699437495 0.5 -0.809016994374945 
0.809016994374945 0.5 -1.30901699437495 0 
-1.30901699437495 0 0.809016994374945 0.5 
-0.5 0.809016994374945 0 -1.30901699437495 
0 -1.30901699437495 -0.5 0.809016994374945 
1.30901699437495 0 0.809016994374945 0.5 
-0.809016994374945 -0.5 -1.30901699437495 0 
0 1.30901699437495 -0.5 0.809016994374945 
0.5 -0.809016994374945 0 -1.30901699437495 
1.30901699437495 0 -0.809016994374945 -0.5 
-0.809016994374945 -0.5 1.30901699437495 0 

# Faces
4 0 1 4 2
4 1 0 3 6
5 2 7 8 3 0
5 1 6 9 5 4
4 2 7 5 4
4 8 9 6 3
4 9 5 7 8
4 0 10 11 13
4 10 12 14 0
5 10 11 15 17 12
5 0 13 16 18 14
4 13 16 15 11
4 17 18 14 12
4 18 16 15 17
4 19 13 4 20
5 20 22 25 21 19
4 13 23 21 19
4 20 4 24 22
5 13 23 26 24 4
4 21 25 26 23
4 25 22 24 26
4 27 29 4 28
5 27 30 3 31 28
4 27 30 32 29
4 4 33 31 28
5 29 32 34 33 4
4 30 3 34 32
4 3 31 33 34
4 35 0 28 36
5 0 35 37 41 38
4 35 37 39 36
4 28 0 38 40
5 39 36 28 40 5
4 37 41 5 39
4 41 5 40 38
4 11 43 19 42
4 11 26 44 42
5 43 11 26 47 45
5 19 18 46 44 42
4 43 45 18 19
4 46 47 26 44
4 18 46 47 45
4 43 4 49 48
5 43 51 53 25 48
4 49 48 25 52
4 4 50 51 43
5 49 4 50 54 52
4 53 54 52 25
4 53 51 50 54
4 27 55 11 2
5 27 56 59 57 55
4 2 58 56 27
4 55 11 34 57
5 11 2 58 60 34
4 57 34 60 59
4 56 58 60 59
4 62 61 42 0
4 62 64 17 61
5 42 61 17 66 65
5 62 0 63 67 64
4 0 63 65 42
4 64 67 66 17
4 66 65 63 67
4 68 19 1 36
5 68 36 69 72 70
4 36 1 71 69
4 19 68 70 41
5 41 19 1 71 73
4 72 70 41 73
4 69 72 73 71
4 27 62 36 49
4 62 27 74 76
5 74 27 49 77 79
5 36 62 76 78 75
4 36 75 77 49
4 76 78 79 74
4 78 75 77 79
4 48 80 11 29
4 48 82 81 80
5 80 11 83 85 81
5 48 82 56 84 29
4 11 29 84 83
4 81 82 56 85
4 85 83 84 56
4 35 19 80 61
5 61 35 87 69 86
4 61 80 88 86
4 19 35 87 89
5 80 19 89 90 88
4 88 86 69 90
4 87 69 90 89
4 61 10 27 91
5 91 93 75 92 61
4 61 92 94 10
4 91 93 95 27
5 10 27 95 63 94
4 92 94 63 75
4 75 93 95 63
4 36 20 48 91
4 91 96 97 36
5 91 96 74 98 48
5 36 20 99 50 97
4 20 99 98 48
4 96 74 50 97
4 98 99 50 74
4 55 48 68 61
5 55 61 85 102 100
4 61 68 101 85
4 48 55 100 90
5 68 101 103 90 48
4 85 102 103 101
4 102 103 90 100
4 43 29 2 13
4 29 104 9 43
5 29 2 54 12 104
5 43 9 81 105 13
4 2 54 105 13
4 12 54 105 81
4 12 81 9 104
4 35 42 13 1
4 35 42 8 106
5 1 35 106 22 67
5 13 42 8 88 107
4 13 107 67 1
4 8 88 22 106
4 88 22 67 107
4 62 10 2 28
5 59 62 10 108 37
4 10 108 79 2
4 62 28 109 59
5 2 79 16 109 28
4 37 16 109 59
4 37 16 79 108
4 28 1 20 49
5 1 78 23 110 28
4 28 110 72 49
4 1 20 111 78
5 49 72 32 111 20
4 32 72 110 23
4 32 23 78 111
4 62 35 68 91
5 91 62 102 40 112
4 68 66 112 91
4 35 62 102 113
5 35 113 99 66 68
4 66 112 40 99
4 102 40 99 113
4 91 49 29 55
4 91 114 53 55
5 91 49 103 31 114
5 53 55 29 115 94
4 49 29 115 103
4 53 114 31 94
4 31 103 115 94
4 80 68 20 43
5 46 68 80 116 96
4 80 116 73 43
4 20 68 46 117
5 73 43 20 117 84
4 46 96 84 117
4 116 73 84 96
4 55 80 42 10
4 10 118 47 55
5 42 60 87 118 10
5 80 119 93 47 55
4 42 60 119 80
4 118 87 93 47
4 119 93 87 60
4 68 35 44 25
4 44 35 113 83
4 66 88 25 68
5 25 44 83 73 88
4 66 99 73 88
4 113 99 73 83
4 57 30 72 48
5 57 92 33 77 48
4 48 77 40 72
4 30 76 92 57
5 76 50 40 72 30
4 76 92 33 50
4 50 40 77 33
4 61 55 15 37
4 85 60 37 61
4 100 107 15 55
4 85 102 63 60
5 15 37 60 63 107
4 102 100 107 63
4 29 45 17 55
4 45 29 115 89
4 55 53 81 17
4 81 53 94 60
5 81 60 89 45 17
4 115 89 60 94
4 43 32 57 119
4 43 115 74 32
5 43 119 101 58 115
5 57 114 54 74 32
4 57 114 101 119
4 114 54 58 101
4 54 74 115 58
4 80 19 105 53
4 88 26 53 80
4 89 58 105 19
5 105 53 26 84 58
4 88 90 84 26
4 90 84 58 89
4 61 76 31 59
4 61 70 39 59
5 76 38 98 70 61
5 39 59 31 63 77
4 76 38 63 31
4 39 77 98 70
4 38 63 77 98
4 37 70 116 42
4 42 113 75 37
5 116 100 71 113 42
5 70 37 75 67 112
4 116 100 112 70
4 113 75 67 71
4 100 112 67 71
5 116 21 35 97 110
4 21 35 75 111
4 35 75 103 97
4 116 98 111 21
4 116 110 40 98
4 97 110 40 103
5 98 111 75 103 40
4 48 32 21 68
4 32 48 90 73
4 68 21 105 101
5 32 21 105 50 73
4 101 103 50 105
4 90 73 50 103
4 11 80 66 107
4 80 81 18 66
4 83 11 107 71
4 85 87 18 81
4 83 85 87 71
5 87 18 66 107 71
4 29 74 108 15
5 119 15 29 95 109
4 29 95 102 74
4 92 119 15 108
5 31 92 108 74 102
4 119 109 31 92
4 31 102 95 109
4 3 10 86 106
4 3 78 38 10
5 86 112 107 38 10
5 78 3 106 39 16
4 106 39 112 86
4 38 107 16 78
4 39 16 107 112
4 0 44 21 78
5 44 86 24 71 0
4 78 0 71 99
4 44 86 70 21
5 21 70 5 99 78
4 86 24 5 70
4 24 5 99 71
4 62 31 6 106
5 70 106 62 110 7
4 31 50 110 62
4 106 6 111 70
4 70 7 79 111
5 111 79 50 31 6
4 110 7 79 50
4 82 20 5 104
5 20 82 114 105 33
4 20 33 79 5
4 30 23 105 114
4 30 104 82 114
5 104 30 23 79 5
4 23 79 33 105
4 1 19 81 14
4 19 41 8 81
4 1 14 118 71
5 8 81 14 118 26
4 73 26 8 41
4 118 71 73 26
4 27 10 8 104
4 10 94 34 8
4 27 95 45 104
5 34 16 45 104 8
4 63 16 34 94
4 45 95 63 16
4 79 15 45 4
4 79 4 58 94
5 4 58 14 82 45
4 57 3 14 82
5 3 57 15 79 94
4 14 3 94 58
4 57 82 45 15
4 11 2 24 88
4 34 9 88 11
4 58 117 24 2
4 34 60 18 9
5 88 9 18 117 24
4 58 117 18 60
4 20 43 34 6
4 20 6 14 117
4 73 23 34 43
5 14 54 23 34 6
4 54 84 117 14
4 73 23 54 84
5 104 49 109 6 57
4 104 7 40 49
4 109 49 40 63
4 108 7 104 57
4 108 57 6 78
5 108 7 40 63 78
4 6 109 63 78
4 20 36 106 9
4 36 106 44 97
4 9 20 99 41
5 9 106 44 23 41
4 50 23 44 97
4 23 50 99 41
4 42 10 7 41
4 10 7 24 118
4 41 42 60 16
4 118 24 67 87
5 41 16 67 24 7
4 60 87 67 16
4 25 80 92 114
4 80 98 72 25
5 92 113 115 98 80
5 114 25 72 84 97
4 92 114 97 113
4 97 84 115 113
4 72 84 115 98
4 91 48 119 59
4 96 85 59 91
4 48 119 65 98
4 74 94 85 96
5 119 59 85 94 65
4 98 65 94 74
4 61 96 83 42
4 17 47 96 61
4 42 83 115 65
5 96 47 90 115 83
4 17 47 90 66
4 66 90 115 65
4 17 80 92 59
4 80 98 112 17
5 59 87 95 112 17
4 92 113 87 59
4 115 95 112 98
4 115 95 87 113
5 114 76 51 111 68
4 114 56 93 68
4 68 111 77 93
4 114 76 102 56
4 51 76 102 115
5 56 102 115 77 93
4 111 51 115 77
5 51 83 97 101 19
4 51 19 66 98
4 101 19 66 93
4 101 97 69 93
4 97 83 100 69
4 83 51 98 100
5 66 93 69 100 98
4 61 91 72 116
4 116 61 92 51
4 72 91 93 90
5 116 72 90 99 51
4 92 75 99 51
4 75 93 90 99
4 96 76 108 55
4 96 69 112 55
5 108 65 77 112 55
5 96 69 103 113 76
4 108 76 113 65
4 113 65 77 103
4 69 112 77 103
4 80 65 75 68
4 80 65 38 116
4 68 75 87 46
4 96 46 87 102
4 116 96 102 38
5 65 75 87 102 38
4 43 89 93 48
4 48 93 46 25
4 51 113 89 43
4 53 85 46 25
4 53 85 113 51
5 46 85 113 89 93
4 11 53 92 65
4 53 11 100 96
5 65 89 95 100 11
5 96 56 101 92 53
4 56 95 100 96
4 92 101 89 65
4 101 56 95 89
4 55 80 51 74
4 80 51 33 119
4 47 84 74 55
4 93 119 33 103
5 74 84 103 33 51
4 93 103 84 47
4 62 3 57 91
4 15 112 91 57
4 94 102 62 3
4 79 40 102 94
4 15 112 40 79
4 0 35 46 118
4 46 35 37 17
4 118 0 38 100
5 46 118 100 88 17
4 41 88 17 37
4 88 41 38 100
4 68 22 52 114
4 111 68 22 5
4 76 114 52 110
4 76 110 73 51
5 52 22 5 73 110
4 51 73 5 111
4 70 91 49 5
4 21 114 91 70
4 5 49 103 99
4 31 78 21 114
4 103 99 78 31
4 19 42 38 99
4 18 67 99 19
4 42 38 110 44
4 46 44 110 69
4 18 67 69 46
5 110 69 67 99 38
5 15 7 27 64 39
4 38 7 27 102
4 64 87 102 27
4 15 65 38 7
4 75 39 15 65
4 64 87 75 39
4 4 29 47 117
4 32 25 47 29
4 4 117 101 33
4 32 25 81 34
5 81 101 117 47 25
4 81 34 33 101
4 43 11 94 33
4 11 26 54 94
4 45 109 33 43
4 54 26 47 56
5 56 54 94 33 109
4 47 56 109 45
4 13 83 53 34
4 34 13 89 119
5 83 118 117 89 13
5 12 82 119 34 53
4 12 53 83 118
4 12 82 117 118
4 119 89 117 82
4 55 12 3 108
4 55 112 64 12
5 12 64 109 60 3
4 3 108 65 60
4 112 77 109 64
4 77 109 60 65
5 30 52 36 6 21
4 84 52 36 103
4 6 33 103 36
4 74 30 21 51
4 30 74 84 52
4 6 33 51 21
4 13 41 116 83
4 89 66 41 13
4 116 83 118 86
5 116 86 22 66 41
4 86 118 117 22
4 117 22 66 89
4 43 90 71 13
4 13 105 97 71
4 43 90 22 9
4 46 81 9 22
4 81 105 97 46
5 46 97 71 90 22
4 29 79 111 48
4 48 111 6 82
4 29 79 50 84
4 56 31 6 82
4 84 50 31 56
4 118 85 94 2
5 118 2 107 45 64
4 94 65 107 2
4 85 118 64 59
4 59 64 45 119
4 119 45 107 65
4 42 13 58 85
4 13 58 95 107
4 42 85 12 8
4 88 47 12 8
5 47 12 85 58 95
4 47 88 107 95
4 82 49 27 12
4 53 74 27 12
4 77 119 82 49
4 53 74 79 34
4 119 77 79 34
4 51 32 9 19
4 19 9 82 101
5 26 32 9 82 52
4 83 26 52 97
4 101 82 52 97
4 51 32 26 83
4 61 108 78 35
4 86 7 108 61
4 78 35 87 63
4 86 7 40 69
4 63 87 69 40
4 86 62 36 22
4 36 22 66 75
4 86 62 76 116
4 78 41 116 76
4 75 66 41 78
5 91 39 111 108 30
4 30 110 69 91
4 67 39 91 69
4 30 110 38 108
4 108 38 99 111
4 99 111 39 67
5 44 105 1 117 52
4 51 105 1 99
4 117 90 99 1
4 116 44 52 72
4 116 44 105 51
4 72 90 117 52
4 11 65 37 8
4 8 11 100 86
5 8 86 64 18 37
4 95 64 86 100
4 18 89 65 37
4 18 89 95 64
4 54 30 91 56
4 39 109 56 91
4 30 54 94 108
4 94 108 111 33
4 33 111 39 109
5 28 24 104 106 14
4 63 28 14 60
4 24 107 63 28
4 37 106 14 60
4 37 106 104 15
4 104 15 107 24
4 73 13 0 110
4 110 0 14 52
4 73 13 16 5
4 18 22 52 14
4 16 5 22 18
4 49 39 16 4
4 4 16 78 50
4 52 106 39 49
4 52 106 3 54
4 78 50 54 3
4 105 14 28 50
4 24 73 50 28
4 21 106 14 105
4 32 104 106 21
4 73 24 104 32
4 2 23 44 118
4 23 2 107 41
4 44 118 64 106
4 45 9 106 64
4 9 45 107 41
4 54 27 7 23
4 27 54 14 64
4 39 6 14 64
4 6 39 15 34
4 7 23 34 15
4 4 109 60 13
4 3 23 13 60
4 109 4 24 64
4 3 23 26 12
4 26 12 64 24
4 105 34 16 1
4 1 16 45 117
4 44 8 104 52
4 44 8 34 105
4 45 117 52 104
4 2 26 52 28
4 109 82 52 28
4 26 2 79 32
4 16 9 32 79
4 82 109 16 9
4 0 23 30 62
4 79 63 0 23
4 104 64 62 30
4 67 5 104 64
4 63 79 5 67
4 67 36 52 24
4 6 16 67 36
4 7 30 21 41
4 7 30 52 24
4 16 6 21 41
4 28 64 18 1
4 64 28 110 86
4 37 78 1 18
4 23 8 86 110
4 78 37 8 23
4 47 82 20 90
4 33 115 90 20
4 105 83 96 114
4 96 114 82 47
4 105 83 115 33
4 12 57 48 47
4 77 95 47 48
4 57 12 85 92
4 58 33 92 85
4 95 77 33 58
4 17 119 43 88
4 100 115 43 88
4 46 101 119 17
4 101 46 118 58
4 115 100 118 58
4 86 46 85 10
4 38 113 85 10
4 46 86 112 93
4 93 112 107 89
4 107 89 113 38
4 98 55 27 40
4 27 40 103 56
4 55 98 111 57
4 111 57 59 75
4 75 59 56 103
4 103 20 19 113
4 113 19 21 76
4 20 103 69 22
4 21 76 96 25
4 69 22 25 96
4 76 97 46 61
4 22 70 61 46
4 38 71 97 76
4 22 70 98 90
4 71 38 98 90
4 68 92 31 36
4 36 31 102 69
4 108 70 68 92
4 70 108 74 72
4 72 74 102 69
4 100 10 62 69
4 108 98 100 10
4 69 62 59 93
4 37 66 93 59
4 37 66 98 108
4 25 116 42 81
4 42 81 101 113
4 100 47 25 116
4 117 71 113 101
4 47 100 71 117
4 102 10 11 115
4 12 56 102 10
4 15 77 115 11
4 12 56 93 17
4 15 77 93 17
4 101 20 49 56
4 101 20 111 92
4 72 96 56 49
4 72 96 53 32
4 32 53 92 111
4 2 63 77 29
4 104 39 77 29
4 2 63 31 54
4 12 59 31 54
4 104 39 59 12
4 81 44 0 60
4 60 0 71 89
4 44 81 17 86
4 45 24 86 17
4 24 45 89 71
4 1 97 84 4
4 84 4 5 72
4 6 114 97 1
4 25 9 6 114
4 5 72 25 9
4 35 76 50 1
4 35 76 30 106
4 50 1 67 40
4 30 106 22 72
4 40 67 22 72
4 87 62 106 18
4 62 87 71 110
4 70 66 18 106
4 107 7 70 66
4 107 7 110 71
4 27 112 67 28
4 70 30 27 112
4 75 31 28 67
4 3 37 70 30
4 3 37 75 31
4 88 45 4 73
4 58 83 73 4
4 44 14 82 25
4 83 58 14 44
4 88 45 82 25
4 26 104 49 84
4 109 58 84 49
4 26 104 57 53
4 53 57 6 105
4 58 109 6 105
4 29 26 8 15
4 95 118 26 29
4 119 81 8 15
4 81 119 109 14
4 109 14 118 95
4 87 0 2 95
4 3 59 87 0
4 2 95 112 7
4 8 17 59 3
4 112 7 8 17
4 54 28 36 114
4 57 39 36 114
4 54 28 40 74
4 57 39 5 32
4 32 5 40 74
4 21 9 18 35
4 35 18 117 97
4 116 88 9 21
4 116 88 24 110
4 110 24 117 97
5 1 18 106 44 0
4 0 44 26 2
4 18 1 4 45
5 2 26 104 45 4
4 26 104 106 44
4 45 18 106 104
5 10 0 87 64 86
4 86 10 11 88
4 13 89 87 0
5 89 13 11 88 45
4 88 45 64 86
4 87 64 45 89
4 81 19 20 82
5 83 13 19 81 44
5 52 82 20 4 84
4 13 83 84 4
4 81 44 52 82
4 83 84 52 44
4 12 27 28 14
5 29 15 57 12 27
5 28 14 6 16 4
4 29 15 16 4
4 14 12 57 6
4 16 6 57 15
4 23 0 35 21
5 35 21 70 22 36
5 0 23 7 24 28
4 36 22 24 28
4 23 7 70 21
4 70 22 24 7
5 11 100 118 85 42
4 90 43 11 100
4 85 42 19 101
5 43 90 117 101 19
4 101 85 118 117
4 100 90 117 118
4 48 57 34 43
5 114 57 48 49 56
5 43 34 105 58 4
4 49 56 58 4
4 114 57 34 105
4 105 58 56 114
4 27 64 17 55
5 27 64 109 63 2
5 65 11 55 17 119
4 63 2 11 65
4 64 109 119 17
4 65 119 109 63
5 112 70 61 62 69
4 42 41 70 61
4 71 0 62 69
5 71 0 42 41 107
4 70 112 107 41
4 71 107 112 69
4 52 36 68 25
5 110 50 1 36 52
5 51 19 68 25 116
4 19 51 50 1
4 25 116 110 52
4 50 110 116 51
5 62 27 7 108 3
4 27 7 5 49
4 3 62 36 6
5 111 5 49 36 6
4 3 108 111 6
4 5 111 108 7
5 80 92 101 93 48
4 92 80 11 94
4 48 93 95 29
5 29 11 94 58 95
4 92 101 58 94
4 95 58 101 93
4 35 97 96 61
5 98 80 61 96 100
5 35 97 71 99 19
4 99 19 80 98
4 97 71 100 96
4 71 99 98 100
4 39 91 61 37
5 61 37 65 38 10
5 91 39 77 40 27
4 38 10 27 40
4 77 39 37 65
4 40 38 65 77
5 76 31 36 91 30
4 30 91 48 32
4 36 31 33 20
5 20 33 51 32 48
4 32 51 76 30
4 31 33 51 76
4 76 61 55 74
5 68 75 113 76 61
5 48 77 115 74 55
4 77 48 68 75
4 76 113 115 74
4 77 115 113 75
5 43 29 47 82 119
4 47 29 2 118
4 13 60 119 43
5 14 118 2 13 60
4 47 82 14 118
4 119 82 14 60
5 42 35 46 86 116
4 117 1 35 46
4 13 73 116 42
5 13 1 117 24 73
4 46 86 24 117
4 24 73 116 86
4 62 106 8 10
5 10 2 107 15 8
5 28 67 39 106 62
4 67 28 2 107
4 106 8 15 39
4 107 15 39 67
4 105 1 28 54
5 104 49 28 54 30
5 21 9 20 1 105
4 9 20 49 104
4 54 30 21 105
4 104 30 21 9
4 91 72 110 62
5 111 68 91 72 98
5 38 110 62 35 78
4 78 35 68 111
4 111 98 38 78
4 38 110 72 98
5 91 55 108 92 59
4 59 91 49 109
4 108 55 29 79
5 49 29 79 33 109
4 109 33 92 59
4 79 33 92 108
4 114 68 80 53
5 115 43 80 53 83
5 20 103 97 114 68
4 115 43 20 103
4 53 83 97 114
4 103 115 83 97
5 55 112 95 102 10
4 113 42 10 102
4 55 112 66 80
5 113 42 80 66 89
4 112 95 89 66
4 102 95 89 113
4 46 22 20 101
4 99 20 101 113
5 22 72 73 99 20
4 96 46 22 72
5 83 96 46 101 113
4 72 96 83 73
4 91 27 54 114
4 91 39 6 114
4 50 54 27 40
5 54 114 6 33 50
4 33 6 39 77
4 59 62 86 17
4 62 102 100 86
5 62 102 63 75 59
5 107 66 17 86 100
4 66 17 59 75
4 63 107 66 75
5 12 59 60 94 10
4 10 100 47 12
4 10 100 115 94
4 93 59 12 47
4 60 89 93 59
5 93 89 115 100 47
4 48 55 12 82
4 48 77 109 82
4 12 55 74 54
5 54 12 82 109 58
4 115 58 109 77
4 25 81 119 48
5 48 90 84 96 25
4 89 119 48 90
4 85 81 25 96
5 81 119 89 58 85
4 96 84 58 85
4 112 91 36 67
4 91 30 7 112
4 67 63 31 36
4 38 76 30 7
5 63 38 7 112 67
4 61 86 22 68
4 61 86 110 76
4 22 68 75 67
5 22 86 110 71 67
4 113 76 110 71
4 68 70 5 20
4 40 103 20 5
4 70 30 114 68
4 110 30 114 97
5 5 40 110 30 70
4 72 49 82 25
4 103 101 82 49
5 50 103 49 72 74
5 105 53 25 82 101
4 25 72 74 53
4 53 74 50 105
4 85 61 116 83
5 93 17 61 85 87
4 17 61 116 88
5 90 71 83 116 88
4 90 88 17 93
4 87 71 90 93
4 10 55 57 3
4 31 3 10 102
4 39 57 55 112
5 31 3 57 39 109
4 95 112 39 109
4 62 64 18 35
4 16 18 35 78
4 62 110 24 64
5 16 18 64 24 107
4 38 110 24 107
4 35 106 9 19
4 35 97 52 106
4 9 19 99 5
5 9 5 24 52 106
4 97 71 24 52
4 39 16 1 36
4 52 36 39 104
4 79 50 1 16
4 110 7 104 52
5 79 7 104 39 16
4 52 26 29 49
4 26 29 79 23
4 49 52 14 109
5 52 26 23 105 14
4 33 109 14 105
5 43 9 25 26 73
4 43 89 18 9
4 71 89 43 73
4 18 9 25 46
4 26 25 46 118
5 18 46 118 71 89
4 0 118 12 3
5 37 3 0 63 16
4 0 118 95 63
4 12 3 37 17
5 17 45 95 118 12
4 16 45 17 37
4 29 11 8 104
4 94 3 8 11
4 29 104 64 95
5 3 8 104 64 14
4 58 95 64 14
4 8 42 83 26
5 18 60 42 8 17
4 60 58 83 42
4 47 17 8 26
4 17 18 117 47
5 26 83 58 117 47
4 29 32 9 45
5 53 32 29 84 54
4 29 84 117 45
4 54 14 81 53
4 81 53 32 9
5 81 9 45 117 14
4 27 30 23 2
4 27 30 106 64
4 78 63 2 23
5 106 30 23 78 6
4 6 109 64 106
4 4 117 22 5
5 4 50 23 32 5
4 50 97 117 4
4 23 44 25 32
5 22 117 97 44 25
4 22 5 32 25
4 37 35 44 8
4 35 87 118 44
5 37 66 67 87 35
5 24 88 8 44 118
4 88 8 37 66
4 66 67 24 88
4 68 101 56 91
4 84 72 91 56
4 68 101 33 111
5 56 101 33 115 84
4 111 33 115 98
5 94 74 27 56 31
4 56 93 112 27
4 74 98 112 27
4 93 56 31 75
4 65 94 31 75
5 98 112 93 75 65
4 85 46 68 92
5 68 66 90 69 46
4 65 92 68 66
4 46 85 102 69
5 65 92 85 102 115
4 69 102 115 90
4 55 91 69 100
4 87 59 91 69
4 55 100 38 108
4 92 108 38 113
5 87 69 100 38 113
4 49 40 98 48
4 48 98 108 57
4 40 49 56 102
4 114 76 108 57
5 40 102 76 108 98
4 80 116 72 48
4 116 76 92 80
4 72 69 93 48
5 69 97 76 116 72
4 97 76 92 101
4 36 114 96 69
4 36 114 92 75
5 36 69 40 99 75
5 92 51 74 96 114
4 69 96 74 40
4 40 74 51 99
4 92 61 62 31
4 61 70 111 92
4 31 62 69 103
4 112 77 111 70
5 31 92 111 77 103
4 116 96 91 70
5 91 96 102 103 93
4 93 66 70 91
5 116 38 99 66 70
4 99 103 93 66
4 103 99 38 102
5 53 85 56 47 55
4 51 53 55 98
4 55 98 90 47
4 85 113 103 56
4 103 56 47 90
5 103 113 51 98 90
4 80 119 59 61
4 61 59 56 96
4 119 77 98 80
5 119 59 56 95 77
4 98 100 95 77
4 91 57 53 96
4 119 93 91 57
5 57 53 94 33 119
4 102 94 53 96
4 103 102 94 33
4 31 59 64 28
5 28 40 79 78 31
4 28 64 112 40
4 59 37 78 31
5 37 15 112 64 59
4 78 37 15 79
5 22 18 19 41 88
4 18 19 113 87
4 38 113 19 41
4 22 69 100 88
4 87 69 22 18
4 49 84 97 36
4 97 36 6 105
4 5 73 84 49
4 6 105 51 111
5 73 84 97 105 51
4 114 31 28 52
4 40 72 52 28
5 32 21 114 52 72
4 78 21 32 79
4 32 79 40 72
4 46 44 21 68
4 66 41 21 68
5 73 110 44 21 41
4 73 90 66 41
4 90 73 110 69
4 0 78 108 10
4 10 108 70 86
4 78 0 87 75
4 70 86 64 39
5 75 39 70 108 78
5 81 34 11 26 12
4 33 34 11 115
4 26 84 115 11
4 56 12 81 101
4 26 84 56 12
4 53 55 15 34
4 45 15 55 47
4 60 34 53 85
4 85 60 109 56
5 15 34 60 109 45
4 43 80 17 45
4 17 80 53 12
4 45 95 115 43
4 115 83 118 95
4 95 27 62 87
4 27 95 107 7
4 60 3 62 87
4 108 65 107 7
5 87 60 65 107 95
4 111 20 4 79
4 20 82 57 111
4 79 74 84 4
4 57 30 52 82
5 74 30 57 111 79
4 44 42 80 25
4 22 66 80 25
4 42 113 97 44
4 113 97 117 89
5 80 81 46 47 88
4 81 105 51 80
4 88 73 51 80
4 97 46 47 84
4 84 73 88 47
4 82 56 27 104
4 27 74 32 104
5 34 6 82 104 32
4 34 94 74 32
4 31 94 34 6
4 15 11 42 37
4 112 15 11 100
4 59 37 42 85
4 112 64 118 100
4 81 60 65 80
4 88 80 65 107
4 60 87 46 81
4 47 95 87 46
5 2 54 3 34 79
4 95 2 54 56
4 79 2 95 77
4 59 3 54 56
4 34 119 59 3
4 20 117 47 48
4 47 48 32 26
4 117 58 33 20
4 83 58 33 51
4 69 36 106 86
4 75 37 106 36
5 41 37 106 86 7
4 37 41 99 75
4 99 41 7 40
4 78 1 97 76
4 97 1 67 69
5 1 67 5 41 78
4 5 72 116 41
4 69 72 5 67
4 76 50 28 62
4 50 99 67 28
4 62 106 21 76
4 39 111 21 106
5 50 76 21 111 99
4 21 32 43 19
4 19 101 114 21
4 72 90 43 32
4 114 52 117 101
4 118 10 61 46
4 61 46 18 37
4 10 38 71 118
4 38 71 89 65
4 77 63 28 49
4 94 54 28 63
4 49 104 15 77
4 108 30 104 15
5 63 77 15 108 94
4 2 13 41 7
4 41 13 60 37
4 86 7 2 118
4 14 106 86 118
4 18 19 105 14
4 41 23 105 19
4 88 26 52 22
4 26 88 41 23
4 52 24 2 54
4 2 24 5 79
4 3 34 9 106
4 5 9 34 79
4 1 13 34 6
4 34 32 73 13
4 82 6 1 117
4 24 104 82 117
4 14 81 42 0
4 0 14 117 71
4 81 42 41 9
4 107 71 117 45
4 28 109 60 0
4 60 0 23 34
4 109 45 24 28
4 15 7 24 45
4 107 11 34 16
4 24 107 11 26
4 12 64 18 81
4 18 81 34 16
4 24 88 43 4
4 24 4 58 118
4 34 8 88 43
4 105 58 118 44
5 16 9 8 23 13
4 23 54 58 13
4 16 109 58 13
4 54 12 8 23
4 12 8 9 82
4 78 1 14 3
4 67 1 14 64
4 3 78 41 8
4 5 104 8 41
4 110 28 4 73
4 28 14 44 110
4 73 4 16 41
4 6 21 44 14
4 13 71 110 23
4 67 16 13 71
4 9 22 86 8
4 22 67 16 9
4 51 74 29 43
4 74 29 47 96
4 43 51 92 119
4 92 114 82 119
4 115 29 27 102
4 85 102 27 12
4 29 15 65 115
4 57 92 65 15
4 11 55 96 83
4 83 113 65 11
4 46 17 55 96
4 119 101 113 65
4 42 35 75 65
4 93 75 35 46
4 42 116 98 65
4 112 98 116 86
4 59 62 30 57
4 62 30 74 102
4 75 111 79 63
4 63 79 74 102
4 21 111 48 25
4 90 99 111 48
4 76 96 84 50
4 90 99 50 84
4 35 36 103 113
4 113 51 21 35
4 103 90 22 36
4 98 51 21 70
4 70 72 49 39
4 75 103 49 39
4 74 50 78 108
4 75 103 50 78
4 35 76 108 37
4 35 76 102 87
4 67 40 98 66
4 67 40 102 87
4 19 68 93 89
4 19 51 115 89
4 47 25 68 93
4 51 116 100 115
4 61 108 94 85
4 17 61 108 15
4 63 87 85 94
4 63 87 93 77
4 32 111 77 29
4 84 103 77 29
4 53 92 31 54
4 84 103 31 54
4 104 12 10 7
4 10 7 79 94
4 39 59 60 16
4 79 94 60 16
4 107 13 19 66
4 17 81 19 66
4 107 100 83 13
4 44 83 100 86
4 9 6 33 43
4 50 73 43 33
4 54 26 25 114
4 50 73 26 54
4 22 20 6 106
4 20 99 78 6
4 30 72 73 23
4 23 73 99 78
4 0 38 99 1
4 0 38 116 44
4 99 1 18 66
4 70 116 44 106
4 3 0 110 30
4 40 63 0 110
4 70 37 16 5
4 40 63 16 5
4 13 11 53 105
4 53 11 88 25
4 105 101 89 13
4 45 82 101 89
4 2 94 33 4
4 4 45 119 33
4 94 53 26 2
4 57 104 45 119
4 2 58 85 10
4 8 81 85 10
4 58 89 107 2
4 15 107 89 119
4 8 7 38 42
4 63 60 42 38
4 18 67 112 17
4 63 60 18 67
4 5 39 109 4
4 109 4 50 31
4 32 57 3 23
4 31 50 23 3
4 71 90 20 1
4 90 20 9 88
4 1 71 83 105
4 21 105 83 116
4 4 2 27 49
5 27 49 39 57 30
5 34 16 4 2 23
4 30 57 34 23
4 57 39 16 34
4 11 29 4 13
5 13 60 81 8 11
5 4 109 82 104 29
4 81 82 104 8
4 81 82 109 60
4 28 4 20 36
5 110 28 36 106 30
5 20 9 32 73 4
4 9 32 30 106
4 32 73 110 30
4 27 91 48 29
5 48 91 114 92 111
5 29 79 94 54 27
4 94 54 114 92
4 94 79 111 92
4 0 28 27 10
5 10 27 112 15 108
5 16 67 28 0 78
4 15 16 78 108
4 16 67 112 15
4 43 4 1 19
5 19 81 25 88 43
5 4 1 14 52 24
4 52 14 81 25
4 52 24 88 25
4 48 68 36 49
5 21 68 36 97 76
5 74 32 48 49 84
4 74 32 21 76
4 97 76 74 84
4 11 55 48 43
5 101 82 48 43 33
5 11 94 85 12 55
4 101 82 12 85
4 101 33 94 85
4 2 11 42 0
5 0 87 18 37 42
5 11 2 95 45 15
4 18 37 15 45
4 18 87 95 45
4 0 62 36 1
5 0 38 7 86 62
5 1 99 5 22 36
4 5 7 86 22
4 5 99 38 7
4 27 62 61 55
5 98 55 61 92 65
5 62 31 63 40 27
4 63 65 92 31
4 40 63 65 98
4 19 80 48 20
5 48 47 96 53 80
5 19 105 97 117 20
4 97 105 53 96
4 96 47 117 97
4 0 13 19 35
5 35 19 66 22 46
5 0 118 24 107 13
4 118 24 22 46
4 66 22 24 107
4 80 11 10 61
5 61 10 102 87 59
5 115 11 80 119 89
4 87 59 119 89
4 89 115 102 87
4 61 35 36 91
5 35 61 116 38 113
5 91 72 40 103 36
4 38 116 72 40
4 38 113 103 40
4 42 61 68 19
5 68 61 96 69 93
5 42 83 71 89 19
4 71 83 96 69
4 93 69 71 89
4 20 43 29 49
5 53 34 43 29 26
5 49 20 6 114 52
4 53 114 52 26
4 114 6 34 53
4 13 1 28 2
5 7 104 64 28 2
5 9 18 1 13 41
4 9 18 64 104
4 9 104 7 41
4 2 29 55 10
5 60 3 10 2 63
5 55 29 77 119 57
4 60 3 57 119
4 60 63 77 119
4 28 49 91 62
5 76 108 70 91 62
5 28 50 79 5 49
4 76 108 79 50
4 108 70 5 79
4 35 62 10 42
5 65 107 100 10 42
5 75 35 62 69 67
4 67 107 65 75
4 67 69 100 107
4 91 55 80 68
5 74 55 91 56 102
5 68 101 113 51 80
4 102 56 101 113
4 102 113 51 74
4 35 68 20 1
5 1 71 110 44 35
5 25 68 20 90 72
4 25 72 110 44
4 72 110 71 90
4 13 42 80 43
5 80 17 46 85 42
5 117 45 43 13 58
4 117 58 85 46
4 46 17 45 117
4 21 106 18 19
5 116 21 19 99 73
4 21 106 86 116
5 86 24 67 18 106
4 67 99 73 24
4 61 108 111 68
4 96 74 108 61
5 40 74 108 111 77
4 40 69 93 77
4 12 10 42 81
4 42 81 119 65
5 81 119 45 47 12
4 47 100 107 45
4 26 25 80 11
4 119 82 25 80
5 117 84 26 25 82
4 117 89 115 84
4 92 68 20 33
4 53 25 68 92
5 92 33 115 74 53
4 115 74 72 90
4 43 9 21 51
5 43 90 84 83 51
5 44 52 22 9 21
4 44 21 51 83
4 90 22 52 84
4 108 55 17 37
5 100 95 93 17 55
5 63 75 37 108 38
4 75 37 17 93
4 95 63 38 100
5 10 8 17 64 118
4 41 38 10 8
4 66 41 8 17
4 64 118 71 67
5 66 41 38 71 67
5 86 112 66 37 61
4 76 61 37 78
4 112 40 110 86
5 78 99 40 110 76
4 66 37 78 99
4 111 20 22 70
5 111 51 50 103 20
4 116 51 111 70
5 116 70 22 69 110
4 103 50 110 69
4 9 19 42 8
4 89 19 9 45
5 9 45 24 26 8
4 26 83 71 24
4 48 77 65 80
4 53 80 65 94
4 102 96 47 95
5 102 94 65 77 95
4 8 12 27 7
5 59 12 27 95 109
4 37 8 12 59
5 16 37 8 7 107
4 16 107 95 109
4 110 23 3 62
5 62 64 39 37 3
4 37 3 23 41
5 5 24 110 23 41
4 5 24 64 39
4 59 3 30 91
5 112 77 75 59 91
5 79 7 30 3 78
4 78 75 59 3
4 77 112 7 79
4 6 36 91 57
4 32 72 91 57
5 79 32 57 6 33
4 33 103 40 79
4 16 6 105 13
5 105 44 26 73 13
4 44 106 6 105
5 104 106 6 16 5
4 104 26 73 5
4 54 2 11 53
4 15 11 53 57
5 82 56 54 53 57
4 45 82 56 95
4 48 119 109 49
4 32 34 119 48
5 109 58 94 34 119
4 58 84 74 94
4 13 43 32 23
4 45 43 32 104
5 23 54 52 104 32
4 58 54 52 117
4 5 111 33 4
5 54 84 4 33 105
5 72 5 111 21 30
4 30 54 84 72
4 111 33 105 21
4 91 39 15 55
4 15 79 74 55
4 63 102 56 109
5 15 39 109 63 79
5 1 50 23 21 6
4 6 39 67 1
4 70 39 6 21
5 39 70 7 40 67
4 50 23 7 40
4 3 0 13 34
4 107 13 34 15
5 34 15 104 12 3
4 118 12 104 24
4 19 51 76 35
4 46 35 76 96
5 72 96 76 51 98
4 72 22 66 98
4 55 47 46 61
4 92 61 46 101
5 89 90 47 46 101
4 65 89 90 98
4 116 80 81 44
5 80 66 90 100 116
5 81 44 118 117 18
4 100 116 44 118
4 18 117 90 66
5 47 88 11 83 118
4 65 11 88 66
4 118 83 113 87
4 47 88 66 93
5 87 93 66 65 113
4 92 80 66 75
4 102 100 116 76
5 92 76 102 103 75
4 103 75 66 90
5 86 44 42 41 88
4 113 42 41 99
4 69 97 44 86
5 69 97 113 99 90
4 99 90 88 41
4 70 86 46 68
5 99 98 70 68 75
5 71 87 46 86 100
4 98 100 86 70
4 99 71 87 75
4 98 80 42 38
4 102 38 42 85
4 112 17 46 69
5 38 102 69 112 98
4 61 17 18 35
4 113 89 18 35
4 38 107 88 116
5 107 89 18 17 88
4 88 80 68 22
4 101 117 22 68
5 73 88 22 117 71
4 71 113 51 73
4 19 113 115 43
4 81 85 113 19
4 100 88 25 96
5 96 100 115 113 85
4 48 25 116 98
5 115 98 48 93 103
5 83 116 25 46 97
4 103 93 46 97
4 98 116 83 115
4 56 27 10 85
4 92 108 10 85
5 93 56 85 92 119
4 93 112 15 119
4 44 14 60 42
4 86 64 14 44
5 45 64 14 60 16
4 45 88 41 16
4 35 62 30 21
4 30 72 69 62
4 111 75 67 5
5 78 31 36 39 111
4 36 69 112 39
4 102 38 78 31
4 98 112 39 111
4 35 1 16 37
4 107 71 1 16
4 7 8 44 110
4 55 112 107 11
4 63 94 11 107
4 87 85 12 64
5 87 63 107 112 64
4 43 73 72 48
4 82 52 72 48
5 50 73 72 52 97
4 50 97 101 33
4 29 115 51 32
5 115 58 56 47 29
5 114 25 32 51 105
4 25 114 56 47
4 115 51 105 58
4 58 4 20 101
4 9 20 101 81
5 53 81 101 58 83
4 73 83 53 32
4 15 17 47 29
4 56 47 17 59
5 17 59 60 65 15
4 60 65 115 58
4 68 114 31 75
5 31 50 74 30 114
4 74 30 70 98
4 50 99 75 31
5 8 23 0 14 106
4 73 71 0 23
4 106 14 117 22
4 8 23 73 88
4 41 19 20 5
4 5 20 117 24
4 23 105 97 110
5 31 56 49 77 33
4 77 98 72 49
4 76 96 56 31
4 77 33 51 98
4 29 95 89 43
4 34 43 89 60
4 53 85 118 26
5 60 89 95 118 85
4 11 83 105 34
5 14 82 9 34 105
4 118 14 105 83
4 9 88 47 82
4 29 84 96 55
4 57 55 96 114
5 101 114 96 84 103
4 101 103 77 119
4 1 105 114 36
4 25 114 36 22
4 99 51 32 5
4 59 62 0 60
4 38 65 60 0
4 15 17 86 7
5 41 78 35 106 70
4 35 106 64 87
4 70 106 64 112
4 63 107 41 78
4 10 7 70 61
4 102 10 7 40
4 87 59 39 67
4 35 97 50 78
4 70 106 52 72
4 41 78 50 73
5 12 26 2 58 14
4 107 88 26 2
4 26 12 17 88
4 58 14 18 89
4 57 48 93 59
5 59 31 94 108 57
4 31 59 93 103
4 115 94 108 98
4 27 64 45 29
4 79 29 45 16
4 54 94 60 14
4 78 1 4 79
4 79 4 24 7
4 3 14 52 30
5 109 6 3 54 28
4 40 28 109 77
4 108 74 54 3
4 111 6 109 77
4 52 54 31 36
4 23 54 31 78
4 32 104 39 111
4 24 28 54 26
4 26 8 3 54
4 6 109 45 9
4 104 12 56 49
4 3 12 56 31
4 33 77 15 34
4 58 33 79 2
4 26 32 57 12
4 58 33 6 14
4 14 28 49 82
4 5 49 82 9
4 50 105 34 79
4 4 50 74 29
4 29 104 30 74
4 114 82 109 31
4 31 28 2 94
4 7 108 94 2
4 59 57 104 64
4 62 106 104 27
4 40 27 104 5
4 63 16 6 31
4 14 109 63 0
4 39 109 14 106
4 79 15 8 23
4 101 103 99 19
4 116 21 114 96
4 73 99 103 84
4 93 119 43 90
4 83 51 92 85
4 56 93 90 84
4 89 90 73 13
4 101 46 44 105
4 47 90 73 26
4 11 100 71 13
4 60 13 71 87
4 8 81 46 86
4 91 112 100 96
4 75 59 85 113
4 77 112 100 115
4 68 66 67 36
4 67 36 97 71
4 38 41 21 76
4 42 116 110 0
4 69 110 0 87
4 70 22 18 37
4 93 87 62 91
4 76 113 87 62
4 108 65 66 70
4 86 61 85 118
4 112 86 118 95
4 37 66 89 60
4 97 1 13 83
4 46 97 1 18
4 41 9 25 116
4 100 83 53 55
4 93 17 81 101
4 100 83 58 95
4 48 90 69 91
4 97 114 91 69
4 99 113 92 111
4 27 95 115 74
4 92 59 12 53
4 109 33 115 95
4 2 118 117 4
4 18 117 4 16
4 23 44 81 34
4 20 99 40 49
4 40 49 52 110
4 78 76 114 6
4 28 63 75 36
4 110 38 63 28
4 108 30 106 37
4 86 10 2 24
4 67 24 2 63
4 3 60 18 106
4 64 95 102 62
4 94 3 37 65
4 39 77 95 64
4 117 1 50 84
4 25 82 6 21
4 26 84 50 23
4 82 20 103 56
4 51 53 57 111
4 54 56 103 50
4 45 4 84 47
4 54 12 47 84
4 81 119 33 105
4 10 94 58 118
4 119 34 8 17
4 109 58 118 64
4 102 27 49 103
4 30 76 102 27
4 92 57 39 75
4 28 52 44 0
4 52 22 67 28
4 78 16 9 21
4 2 107 112 27
5 69 112 27 49 72
5 2 107 71 73 4
4 49 72 73 4
4 65 11 29 77
5 38 65 11 13 41
5 5 40 77 29 4
4 4 5 41 13
5 28 64 87 69 36
4 36 69 90 20
4 45 4 28 64
5 89 90 20 4 45
4 91 70 7 27
5 91 48 25 22 70
5 24 7 27 29 26
4 25 26 29 48
5 74 96 100 10 27
4 10 100 71 0
4 74 27 28 50
5 0 28 50 97 71
5 43 19 66 65 119
4 67 1 19 66
4 43 4 109 119
5 67 1 4 109 63
5 46 68 36 106 18
4 36 49 104 106
4 48 47 46 68
5 45 104 49 48 47
4 55 48 111 108
5 5 9 43 48 111
5 7 8 11 55 108
4 43 9 8 11
5 0 78 76 113 42
4 0 78 79 2
4 42 113 115 11
5 2 79 74 115 11
5 0 118 85 102 62
4 1 117 118 0
4 103 36 62 102
5 1 117 101 103 36
4 116 61 62 110
5 61 116 25 53 55
5 62 27 54 52 110
4 55 53 54 27
5 48 57 15 17 80
4 19 18 17 80
4 20 48 57 6
5 18 19 20 6 16
4 0 63 75 35
5 35 75 92 101 19
5 0 63 94 58 13
4 58 13 19 101
5 10 3 30 76 61
4 80 51 76 61
4 10 3 34 11
5 80 11 34 32 51
4 91 56 85 61
5 81 44 35 61 85
5 91 56 82 52 36
4 36 52 44 35
5 61 59 57 114 68
4 60 42 61 59
4 19 105 114 68
5 19 42 60 34 105
5 107 15 29 43 88
4 49 39 15 29
4 20 43 88 22
5 20 22 67 39 49
4 40 28 1 99
5 40 102 95 2 28
5 113 99 1 13 89
4 13 89 95 2
4 38 10 55 98
5 2 23 110 38 10
5 29 55 98 72 32
4 32 23 2 29
5 96 91 62 86 46
4 96 84 49 91
4 24 28 62 86
5 28 24 117 84 49
4 94 10 62 31
5 94 10 42 83 53
5 114 97 35 62 31
4 35 42 83 97
5 12 55 91 30 104
4 21 68 91 30
4 81 80 55 12
5 80 81 9 21 68
4 35 68 93 87
5 87 60 14 1 35
5 93 68 20 82 119
4 1 20 82 14
5 80 92 108 37 42
4 80 92 33 43
4 16 37 42 13
5 13 16 79 33 43
4 43 73 24 45
5 43 115 98 99 73
4 112 98 99 67
5 112 95 45 24 67
4 47 93 77 29
5 117 47 93 69 22
4 40 5 22 69
4 98 48 47 100
4 104 7 107 45
5 107 7 40 98 100
4 84 49 77 115
4 24 117 89 107
5 115 77 63 107 89
4 88 90 115 11
5 90 88 24 5 72
4 74 79 5 72
4 84 29 104 52
5 29 84 90 100 95
5 22 52 104 64 86
4 22 90 100 86
4 95 29 79 63
4 90 99 38 100
5 50 99 38 63 79
5 27 56 47 118 64
4 64 27 40 67
4 47 90 71 118
5 103 90 71 67 40
5 86 112 55 47 88
4 40 74 55 112
4 86 110 73 88
5 110 73 84 74 40
5 4 58 115 103 50
4 4 50 110 24
5 24 110 69 100 118
4 115 100 69 103
4 83 115 29 26
4 71 38 7 24
5 83 115 102 38 71
4 47 26 2 95
5 26 52 72 96 47
4 102 40 72 96
4 109 49 5 16
5 95 109 49 103 93
4 93 66 107 95
5 107 66 99 5 16
4 5 72 91 39
5 17 93 91 39 64
4 88 17 64 24
4 79 32 48 77
5 90 66 112 77 48
5 7 41 73 32 79
4 66 41 7 112
4 103 90 43 33
4 79 40 67 16
4 15 11 26 104
5 116 73 26 11 100
4 116 70 5 73
5 70 5 104 15 112
4 112 91 56 95
4 82 45 24 52
4 84 73 13 58
4 63 40 74 94
4 95 58 54 27
4 117 52 110 71
5 87 95 58 117 71
5 83 84 54 2 118
4 2 54 30 7
5 72 30 7 86 116
4 83 116 72 84
4 56 109 4 84
5 97 84 56 102 69
4 67 69 102 63
5 23 50 51 83 13
4 23 13 107 7
4 40 50 51 98
4 100 55 12 118
4 104 24 110 30
4 66 17 55 98
5 17 45 9 22 66
4 9 32 72 22
4 20 90 98 111
5 111 98 65 15 79
4 45 15 65 89
4 82 48 90 117
5 18 64 109 82 117
4 66 112 64 18
4 87 118 2 63
5 113 103 31 63 87
4 83 113 103 84
4 100 102 94 11
4 116 76 50 73
5 76 50 54 94 102
5 44 86 10 12 26
4 69 86 10 102
4 26 84 97 44
5 75 99 20 33 77
4 20 99 71 117
4 95 77 75 87
4 17 12 27 112
5 12 82 25 46 17
4 72 25 46 69
4 43 88 116 51
4 107 15 108 38
5 116 38 108 74 51
4 4 73 51 33
5 65 94 33 51 113
4 71 107 65 113
4 88 8 10 100
4 74 32 25 96
5 25 88 8 104 32
4 49 52 97 103
5 118 46 97 52 14
4 93 95 118 46
4 70 68 93 112
4 15 104 82 119
4 80 119 45 88
5 70 41 88 80 98
4 39 70 41 16
5 39 77 119 45 16
4 75 93 48 111
4 9 5 67 18
5 75 93 89 18 67
5 1 105 33 31 78
4 71 38 78 1
4 102 31 33 115
4 83 44 8 11
5 44 110 76 96 83
4 7 110 76 108
4 12 54 28 64
5 12 85 96 114 54
4 87 69 96 85
4 33 109 28 50
4 97 71 89 101
5 89 60 109 33 101
4 27 30 114 56
5 30 106 44 25 114
4 118 44 25 47
4 41 42 83 73
4 53 32 79 94
4 58 60 16 4
5 75 65 60 16 78
4 115 103 75 65
4 74 53 80 98
4 70 30 23 41
5 30 23 26 53 74
5 62 106 14 12 59
4 106 62 69 22
4 12 47 117 14
4 58 2 23 105
5 105 97 113 85 58
4 110 38 113 97
5 28 14 58 56 31
4 28 110 76 31
4 83 58 56 96
4 118 26 23 0
4 85 53 74 102
4 57 82 47 55
4 88 86 106 9
5 57 39 106 9 82
4 39 77 103 36
4 101 119 45 117
4 99 51 80 66
4 34 16 5 32
4 80 17 86 116
4 57 15 7 30
5 19 51 111 78 41
4 41 19 89 107
4 63 78 111 77
4 59 56 49 39
5 87 59 56 101 46
4 22 46 87 67
4 72 96 61 70
5 17 8 106 70 61
4 106 52 26 8
4 18 14 28 67
4 58 89 93 56
4 115 94 34 43
5 34 23 78 108 94
4 99 98 108 78
4 54 14 1 50
4 87 60 94 102
4 118 14 3 10
4 30 76 97 52
5 105 44 0 3 54
4 3 108 38 0
4 74 54 105 51
4 68 111 32 25
5 39 111 68 66 37
4 39 104 8 37
4 6 36 22 9
5 75 59 109 6 36
4 45 109 59 17
4 33 20 9 34
5 34 15 37 41 9
4 15 77 75 37
4 108 10 12 57
4 44 21 32 26
5 57 32 21 70 108
4 105 50 99 19
4 60 63 79 34
4 62 31 109 64
4 114 82 117 97
4 59 61 86 64
4 57 104 52 114
4 31 103 20 6
4 16 63 87 18
5 23 8 42 116 21
4 65 15 8 42
4 23 79 111 21
4 116 42 85 96
4 114 21 23 54
4 83 13 60 85
5 31 92 85 60 3
4 92 51 50 31
4 44 46 87 0
4 54 56 101 105
4 8 86 62 3
5 8 81 53 57 3
4 46 81 53 96
4 36 75 113 97
4 59 109 58 85
4 13 105 21 41
5 92 53 105 21 76
4 76 92 65 38
4 59 37 70 91
4 18 22 25 81
5 37 18 81 119 59
4 19 21 70 66
4 57 119 65 108
4 101 89 66 68
4 39 109 60 37
4 41 116 61 37
4 34 53 25 9
4 91 114 101 93
5 101 81 14 6 114
4 64 14 81 17
4 6 1 99 111
5 6 111 92 119 34
4 113 92 119 89
4 62 76 92 59
4 105 14 12 53
4 78 35 44 23
4 81 34 94 85
4 14 0 78 6
4 114 101 113 76
4 42 37 106 44
4 114 92 108 30
4 31 36 106 3
4 18 60 85 46
5 35 21 6 3 37
4 35 113 65 37
4 3 6 33 94
4 25 21 35 46
4 12 3 6 82
4 51 19 81 53
4 78 3 57 111
4 105 1 18 81
4 33 119 59 31
4 17 119 92 61
4 8 106 6 34
4 35 106 39 75
4 92 57 82 101
4 75 68 21 78
4 60 81 9 16
5 4 109 14 54 2
4 54 30 106 14
5 5 7 30 106 39
5 13 11 26 118 58
4 26 104 64 118
5 16 109 64 104 15
5 50 4 20 6 105
5 106 22 24 110 44
4 105 44 110 50
5 109 56 27 29 77
5 30 114 6 111 32
4 56 109 6 114
5 0 28 64 106 3
4 106 3 108 70
5 112 40 38 108 70
5 19 105 83 73 43
5 14 118 24 45 18
4 83 118 24 73
5 103 49 48 111 33
5 21 25 52 97 105
4 103 33 105 97
5 55 47 95 115 11
5 57 34 33 109 82
4 109 95 47 82
5 0 42 8 86 118
4 112 15 8 86
5 63 65 15 112 95
5 78 1 36 106 21
4 38 116 21 78
5 71 38 116 86 69
5 62 27 112 39 59
4 59 92 111 39
5 76 92 111 98 74
5 90 48 80 51 115
5 81 82 117 58 105
4 115 90 117 58
5 41 116 44 35 19
4 100 107 41 116
5 87 89 107 100 118
5 61 10 100 112 17
4 77 112 17 119
5 94 115 77 119 92
5 75 36 91 70 111
5 96 116 51 113 97
4 111 75 113 51
5 116 61 68 66 98
5 115 83 85 101 89
4 89 66 98 115
5 84 29 43 33 58
5 9 104 52 14 6
4 58 84 52 14
5 1 13 23 44 14
4 86 44 23 7
5 64 86 7 107 67
5 64 12 10 2 95
4 12 64 39 57
5 77 39 57 108 79
5 28 49 39 6 31
5 70 21 76 110 72
4 6 31 76 21
5 37 35 62 86 70
4 98 65 37 70
5 65 113 102 100 98
5 91 93 77 98 55
5 114 53 51 33 101
4 77 33 101 93
5 20 68 21 51 99
5 44 83 71 117 46
4 71 99 51 83
5 88 100 83 42 80
4 100 95 45 88
5 60 119 45 95 58
5 73 110 97 1 99
4 97 46 86 110
5 46 86 88 66 18
5 48 68 114 96 72
4 31 102 96 114
5 40 77 75 31 102
5 55 15 119 59 12
4 118 12 59 87
5 29 26 12 82 45
4 85 12 26 83
5 43 20 82 25 32
4 56 82 25 96
5 96 56 103 115 74
5 90 84 97 101 20
5 81 44 26 88 9
4 97 101 81 44
4 62 91 55 10
5 63 38 10 62 87
4 0 10 61 35
5 67 18 35 0 71
4 68 61 62 36
5 36 67 40 110 62
5 50 103 36 114 76
4 25 116 76 114
5 116 25 22 90 73
5 11 8 17 45 107
4 44 46 17 8
5 48 57 53 74 29
4 85 59 57 53
5 93 59 85 102 95
4 0 2 27 62
5 16 107 2 0 60
4 35 62 28 1
5 28 24 5 16 1
4 28 36 91 27
5 7 27 28 63 79
5 20 5 72 52 36
4 52 72 74 54
5 79 33 31 54 74
5 73 4 117 52 26
5 18 106 8 41 16
4 18 106 52 117
5 27 54 3 57 104
4 60 58 54 3
5 49 4 79 32 104
4 12 53 32 104
5 58 94 53 12 56
5 104 24 2 23 8
4 81 8 23 105
5 114 82 49 84 54
4 114 82 9 21
5 23 73 5 9 21
5 49 40 74 30 91
4 3 94 74 30
5 109 63 94 3 59
5 23 50 28 52 30
4 22 70 30 52
5 70 22 67 99 41
5 10 3 37 15 7
4 18 14 3 37
5 80 25 46 101 19
4 103 69 46 101
5 72 98 99 103 69
5 56 101 119 48 47
4 56 102 100 47
5 90 71 113 19 66
5 81 17 47 118 85
4 71 113 85 118
4 42 11 55 61
5 61 46 87 113 42
4 61 80 48 91
5 61 91 69 102 76
4 35 42 80 68
5 35 68 22 69 97
5 75 99 38 76 35
5 90 93 46 96 100
4 76 96 100 38
5 96 55 80 92 85
4 92 85 87 75
5 112 69 87 75 66
5 93 17 80 65 89
4 69 93 17 86
5 47 117 89 43 88
4 96 47 88 116
5 53 11 43 119 81
4 46 93 119 81
5 68 92 113 103 93
5 25 47 84 83 53
4 113 92 53 83
5 57 91 56 31 92
4 63 95 56 31
5 24 71 13 41 88
5 17 37 60 87 64
4 87 71 24 64
4 97 69 40 50
5 5 111 78 50 40
5 62 30 108 78 31
4 72 30 108 98
5 66 37 42 38 107
4 22 106 37 66
5 94 108 55 27 102
4 60 37 108 94
4 53 51 73 26
5 54 26 32 34 105
4 101 105 34 119
5 4 13 34 9 45
4 45 9 25 47
4 29 11 10 27
5 10 85 60 65 11
4 91 49 20 68
4 0 42 19 1
5 22 117 1 19 9
4 25 88 41 21
4 57 32 51 92
5 50 84 72 32 51
5 29 2 94 34 15
4 81 17 15 34
5 14 60 34 8 12
4 60 14 117 89
4 115 84 54 94
4 117 84 72 22
5 61 108 65 75 59
4 67 75 59 64
5 110 0 78 41 7
4 112 7 110 69
4 63 78 76 102
5 37 78 63 67 39
4 36 20 19 35
4 2 13 42 10
5 18 89 13 42 81
4 27 49 48 55
4 7 8 34 79
4 6 78 41 9
4 5 111 57 104
4 4 49 36 1
4 4 13 0 28
4 2 28 49 29
5 3 23 79 16 6
4 16 6 82 45
4 24 5 32 26
4 33 34 23 50
4 109 31 78 16
4 23 110 40 79
4 67 24 104 39
4 19 43 48 68
4 43 29 55 80
4 11 13 19 80
4 66 65 60 18
4 74 115 65 108
4 66 70 72 90
4 67 99 113 87
4 103 40 112 93
4 102 38 107 95
4 90 22 18 89
4 89 65 94 58
4 84 74 98 90
4 79 15 119 33
4 107 88 9 16
4 111 99 73 32
4 39 75 99 5
4 38 63 16 41
4 40 7 15 77
4 13 43 20 1
4 4 29 48 20
4 11 2 4 43
4 109 63 107 45
4 103 77 79 50
4 71 73 5 67
5 50 4 2 63 40
5 87 118 117 97 69
5 11 94 79 23 13
5 102 40 110 71 100
5 4 16 67 99 20
5 58 101 113 87 60
5 40 27 29 84 72
5 22 67 64 45 117
5 31 102 87 0 28
5 46 96 114 52 44
5 34 43 19 41 16
5 115 94 63 38 113
5 48 90 22 5 49
5 16 109 119 89 18
5 11 55 74 32 26
5 40 112 107 24 5
5 3 94 85 42 0
5 74 96 116 110 30
5 87 75 36 1 18
5 114 105 81 85 92
5 27 62 69 96 56
5 25 82 104 106 22
5 80 88 9 32 48
5 77 79 16 107 65
5 37 35 19 81 60
5 53 94 108 76 51
5 10 61 96 53 12
5 70 7 104 32 72
5 93 46 22 36 91
5 9 6 57 119 81
5 17 61 68 25 81
5 34 15 108 111 32
5 5 73 43 29 79
5 67 71 89 95 63
5 1 78 63 60 13
5 83 85 102 76 97
5 2 10 102 74 54
5 69 86 24 52 72
5 49 103 69 67 28
5 18 14 82 101 46
5 85 59 62 35 46
5 25 21 30 57 53
5 91 72 25 47 55
5 45 9 5 39 15
5 66 68 20 9 18
5 33 34 60 65 92
5 42 80 53 34 8
5 79 74 98 38 7
5 99 38 107 13 73
5 84 103 102 95 58
5 109 58 117 1 28
5 40 99 90 115 77
5 107 2 29 115 100
5 4 13 89 115 33
5 27 28 24 118 95
5 74 115 83 73 50
5 90 71 24 4 84
5 56 93 87 64 109
5 54 28 110 97 84
5 97 101 56 31 36
5 117 52 49 56 47
5 1 50 103 113 71
5 56 54 14 118 85
5 0 71 83 58 2
5 36 62 64 14 52
5 89 117 20 103 93
5 78 99 51 33 79
5 26 2 7 110 73
5 90 69 112 95 47
5 49 4 45 95 77
5 62 110 44 118 10
5 58 94 31 50 105
5 64 12 47 46 86
5 97 35 0 14 105
5 75 63 109 33 103
5 50 76 38 0 23
5 26 84 96 100 118
5 73 72 98 100 88
5 43 51 98 65 11
5 66 90 43 45 107
5 62 3 54 114 76
5 52 30 27 12 26
5 91 114 82 12 59
5 89 65 75 99 19
5 39 109 82 20 36
5 11 83 116 38 10
5 113 42 13 105 51
5 112 64 104 49 91
5 6 31 59 60 14
5 29 15 112 98 48
5 41 88 11 15 7
5 41 66 98 111 5
5 113 92 31 78 35
5 83 53 54 23 44
5 106 35 68 114 6
5 6 33 101 19 1
5 39 59 17 18 106
5 27 55 100 86 7
5 29 47 88 24 104
5 101 119 59 75 68
5 3 12 81 44 106
5 61 91 30 106 86
5 66 93 77 39 67
5 111 20 43 119 77
5 32 51 116 41 23
5 65 108 78 41 42
5 48 93 17 45 82
5 42 44 21 76 61
5 26 25 116 86 8
5 112 17 88 22 70
5 105 34 3 78 21
5 16 6 111 75 37
5 23 8 10 108 30
5 8 17 55 57 104
5 92 57 3 37 61
5 70 39 57 48 68
5 116 70 108 55 80
5 80 119 15 37 66
5 19 21 111 92 80
5 8 37 70 21 9

# Cells
7 0 1 2 3 4 5 6
7 7 8 9 10 11 12 13
7 14 15 16 17 18 19 20
7 21 22 23 24 25 26 27
7 28 29 30 31 32 33 34
7 35 36 37 38 39 40 41
7 42 43 44 45 46 47 48
7 49 50 51 52 53 54 55
7 56 57 58 59 60 61 62
7 63 64 65 66 67 68 69
7 70 71 72 73 74 75 76
7 77 78 79 80 81 82 83
7 84 85 86 87 88 89 90
7 91 92 93 94 95 96 97
7 98 99 100 101 102 103 104
7 105 106 107 108 109 110 111
7 112 113 114 115 116 117 118
7 119 120 121 122 123 124 125
7 126 127 128 129 130 131 132
7 133 134 135 136 137 138 139
7 140 141 142 143 144 145 146
7 147 148 149 150 151 152 153
7 154 155 156 157 158 159 160
7 161 162 163 164 165 166 167
7 144 168 169 170 171 172 173
7 174 175 176 177 178 179 180
7 106 181 182 183 184 185 186
7 150 187 188 189 190 191 192
7 193 194 195 196 197 198 199
7 88 200 201 202 203 204 205
7 206 207 208 209 210 211 212
7 213 214 215 216 217 218 219
7 220 221 222 223 224 225 226
7 109 227 228 229 230 231 232
7 79 233 234 235 236 237 238
7 239 240 241 242 243 244 245
7 246 247 248 249 250 251 252
7 253 254 255 256 257 258 259
7 260 261 262 263 264 265 266
7 267 268 269 270 271 272 273
7 67 274 275 276 277 278 279
7 95 280 281 282 283 284 285
7 286 287 288 289 290 291 292
7 53 293 294 295 296 297 298
7 158 299 300 301 302 303 304
7 305 306 307 308 309 310 311
7 101 312 313 314 315 316 317
7 163 318 319 320 321 322 323
7 324 325 326 327 328 329 330
7 100 331 332 333 334 335 336
7 58 337 338 339 340 341 342
7 326 343 344 345 346 347 348
7 349 350 351 352 353 354 355
7 356 357 358 359 360 361 362
7 92 363 364 365 366 367 368
7 369 370 371 372 373 374 375
7 155 376 377 378 379 380 381
7 43 382 383 384 385 386 387
7 388 389 390 391 392 393 394
7 164 395 396 397 398 399 400
7 141 290 401 402 403 404 405
7 29 406 407 408 409 410 411
7 349 412 413 414 415 416 417
7 149 257 418 419 420 421 422
7 38 423 424 425 426 427 428
7 381 429 430 431 432 433 434
7 25 435 436 437 438 439 440
7 37 441 442 443 444 445 446
7 447 448 449 450 451 452 453
7 371 454 455 456 457 458 459
7 399 460 461 462 463 464 465
7 449 466 467 468 469 470 471
7 115 472 473 474 475 476 477
7 80 265 478 479 480 481 482
7 335 483 484 485 486 487 488
7 122 489 490 491 492 493 494
7 72 450 495 496 497 498 499
7 356 500 501 502 503 504 505
7 85 310 506 507 508 509 510
7 73 469 511 512 513 514 515
7 428 516 517 518 519 520 521
7 366 522 523 524 525 526 527
7 390 528 529 530 531 532 533
7 445 516 534 535 536 537 538
7 185 539 540 541 542 543 544
7 10 416 545 546 547 548 549
7 46 249 550 551 552 553 554
7 230 539 555 556 557 558 559
7 315 484 560 561 562 563 564
7 302 429 565 566 567 568 569
7 18 456 570 571 572 573 574
7 283 522 575 576 577 578 579
7 130 502 580 581 582 583 584
7 59 272 585 586 587 588 589
7 322 460 590 591 592 593 594
7 134 530 595 596 597 598 599
7 268 340 600 601 602 603 604
7 175 493 605 606 607 608 609
7 195 409 610 611 612 613 614
7 248 387 615 616 617 618 619
7 50 226 620 621 622 623 624
7 15 372 625 626 627 628 629
7 208 477 630 631 632 633 634
7 64 243 635 636 637 638 639
7 127 362 640 641 642 643 644
7 215 439 645 646 647 648 649
7 9 354 650 651 652 653 654
7 137 391 655 656 657 658 659
7 114 209 660 661 662 663 664
7 191 254 665 666 667 668 669
7 3 327 670 671 672 673 674
7 121 178 675 676 677 678 679
7 238 261 680 681 682 683 684
7 22 216 685 686 687 688 689
7 171 288 690 691 692 693 694
7 203 305 695 696 697 698 699
7 240 277 700 701 702 703 704
7 2 345 705 706 707 708 709
7 32 196 710 711 712 713 714
7 220 297 715 716 717 718 719
7 0 720 721 722 723 724 725
7 7 726 727 728 729 730 731
7 14 732 733 734 735 736 737
7 21 738 739 740 741 742 743
7 28 744 745 746 747 748 749
7 35 750 751 752 753 754 755
7 42 756 757 758 759 760 761
7 49 762 763 764 765 766 767
7 56 768 769 770 771 772 773
7 63 774 775 776 777 778 779
7 70 780 781 782 783 784 785
7 77 786 787 788 789 790 791
7 84 792 793 794 795 796 797
7 91 798 799 800 801 802 803
7 98 804 805 806 807 808 809
7 105 810 811 812 813 814 815
7 112 816 817 818 819 820 821
7 119 822 823 824 825 826 827
7 126 828 829 830 831 832 833
7 133 834 835 836 837 838 839
7 140 840 841 842 843 844 845
7 147 846 847 848 849 850 851
7 154 852 853 854 855 856 857
7 161 858 859 860 861 862 863
7 173 864 865 866 867 868 869
7 180 800 870 871 872 873 874
7 186 875 876 877 878 879 880
7 192 881 882 883 884 885 886
7 199 812 887 888 889 890 891
7 205 892 893 894 895 896 897
7 210 804 898 899 900 901 902
7 218 811 903 904 905 906 907
7 225 854 908 909 910 911 912
7 231 913 914 915 916 917 918
7 237 919 920 921 922 923 924
7 245 858 925 926 927 928 929
7 251 842 930 931 932 933 934
7 259 794 935 936 937 938 939
7 266 775 940 941 942 943 944
7 273 849 945 946 947 948 949
7 279 950 951 952 953 954 955
7 285 956 957 958 959 960 961
7 291 789 962 963 964 965 966
7 298 967 968 969 970 971 972
7 303 973 974 975 976 977 978
7 311 763 979 980 981 982 983
7 316 984 985 986 987 988 989
7 321 990 991 992 993 994 995
7 330 841 996 997 998 999 1000
7 336 1001 1002 1003 1004 1005 1006
7 342 1007 1008 1009 1010 1011 1012
7 346 846 1013 1014 1015 1016 1017
7 352 757 1018 1019 1020 1021 1022
7 359 786 1023 1024 1025 1026 1027
7 367 1028 1029 1030 1031 1032 1033
7 375 768 1034 1035 1036 1037 1038
7 380 1039 1040 1041 1042 1043 1044
7 386 1045 1046 1047 1048 1049 1050
7 392 793 1051 1052 1053 1054 1055
7 398 1040 1056 1057 1058 1059 1060
7 405 1061 1062 1063 1064 1065 1066
7 411 1017 1067 1068 1069 1070 1071
7 417 783 1072 1073 1074 1075 1076
7 421 1062 1077 1078 1079 1080 1081
7 426 1008 1082 1083 1084 1085 1086
7 434 726 1087 1088 1089 1090 1091
7 440 999 1092 1093 1094 1095 1096
7 446 1045 1097 1098 1099 1100 1101
7 451 853 960 1102 1103 1104 1105
7 457 780 1106 1107 1108 1109 1110
7 464 734 1111 1112 1113 1114 1115
7 471 861 988 1116 1117 1118 1119
7 476 1076 1120 1121 1122 1123 1124
7 481 1001 1125 1126 1127 1128 1129
7 486 750 1065 1130 1131 1132 1133
7 494 1110 1120 1134 1135 1136 1137
7 499 1054 1138 1139 1140 1141 1142
7 505 807 972 1143 1144 1145 1146
7 509 1030 1147 1148 1149 1150 1151
7 514 1026 1152 1153 1154 1155 1156
7 521 830 1157 1158 1159 1160 1161
7 527 753 1079 1162 1163 1164 1165
7 532 799 955 1166 1167 1168 1169
7 536 835 1170 1171 1172 1173 1174
7 542 819 1149 1175 1176 1177 1178
7 548 948 1067 1179 1180 1181 1182
7 553 938 1138 1183 1184 1185 1186
7 559 825 1127 1187 1188 1189 1190
7 564 771 978 1191 1192 1193 1194
7 569 746 1101 1195 1196 1197 1198
7 574 933 1092 1199 1200 1201 1202
7 578 758 993 1203 1204 1205 1206
7 584 890 1207 1208 1209 1210 1211
7 588 965 1154 1212 1213 1214 1215
7 594 740 1084 1216 1217 1218 1219
7 598 906 1207 1220 1221 1222 1223
7 603 816 1031 1224 1225 1226 1227
7 607 739 1011 1228 1229 1230 1231
7 612 764 868 1232 1233 1234 1235
7 617 822 1006 1236 1237 1238 1239
7 623 877 1115 1240 1241 1242 1243
7 628 893 1161 1244 1245 1246 1247
7 633 745 1050 1248 1249 1250 1251
7 638 915 1091 1252 1253 1254 1255
7 644 992 1022 1256 1257 1258 1259
7 647 776 886 1260 1261 1262 1263
7 654 920 1174 1264 1265 1266 1267
7 659 974 1038 1268 1269 1270 1271
7 664 881 944 1272 1273 1274 1275
7 667 733 878 1276 1277 1278 1279
7 673 873 950 1280 1281 1282 1283
7 678 866 982 1284 1285 1286 1287
7 682 720 1042 1288 1289 1290 1291
7 688 912 957 1292 1293 1294 1295
7 694 729 916 1296 1297 1298 1299
7 697 723 1058 1300 1301 1302 1303
7 702 829 896 1304 1305 1306 1307
7 709 902 968 1308 1309 1310 1311
7 713 928 985 1312 1313 1314 1315
7 717 836 922 1316 1317 1318 1319
7 550 979 1320 1321 1322 1323 1324
7 570 962 1325 1326 1327 1328 1329
7 312 1216 1330 1331 1332 1333 1334
7 478 870 1335 1336 1337 1338 1339
7 685 1087 1340 1341 1342 1343 1344
7 274 1203 1345 1346 1347 1348 1349
7 227 1072 1350 1351 1352 1353 1354
7 441 887 1355 1356 1357 1358 1359
7 705 1130 1360 1361 1362 1363 1364
7 511 1288 1365 1366 1367 1368 1369
7 620 1034 1370 1371 1372 1373 1374
7 200 1143 1375 1376 1377 1378 1379
7 406 1276 1380 1381 1382 1383 1384
7 650 1051 1385 1386 1387 1388 1389
7 363 1248 1390 1391 1392 1393 1394
7 337 1260 1395 1396 1397 1398 1399
7 299 945 1400 1401 1402 1403 1404
7 595 1175 1405 1406 1407 1408 1409
7 660 925 1410 1411 1412 1413 1414
7 418 1157 1415 1416 1417 1418 1419
7 640 1236 1420 1421 1422 1423 1424
7 395 996 1425 1426 1427 1428 1429
7 168 1316 1430 1431 1432 1433 1434
7 489 1102 1435 1436 1437 1438 1439
7 424 827 1440 1441 1442 1443 1444
7 351 1032 1396 1445 1446 1447 1448
7 488 882 1421 1449 1450 1451 1452
7 453 1094 1387 1453 1454 1455 1456
7 601 917 1432 1457 1458 1459 1460
7 474 737 1461 1462 1463 1464 1465
7 97 1015 1466 1467 1468 1469 1470
7 61 1168 1471 1472 1473 1474 1475
7 145 904 1476 1477 1478 1479 1480
7 627 779 1481 1482 1483 1484 1485
7 669 967 1397 1486 1487 1488 1489
7 606 1059 1376 1490 1491 1492 1493
7 131 1107 1494 1495 1496 1497 1498
7 33 932 1499 1500 1501 1502 1503
7 76 899 1504 1505 1506 1507 1508
7 462 1081 1392 1509 1510 1511 1512
7 547 724 1513 1514 1515 1516 1517
7 292 1139 1362 1518 1519 1520 1521
7 696 1128 1352 1522 1523 1524 1525
7 579 1208 1437 1526 1527 1528 1529
7 671 838 1530 1531 1532 1533 1534
7 535 1243 1426 1535 1536 1537 1538
7 677 748 1539 1540 1541 1542 1543
7 544 956 1382 1544 1545 1546 1547
7 357 867 1381 1548 1549 1550 1551
7 393 1047 1371 1552 1553 1554 1555
7 234 755 1556 1557 1558 1559 1560
7 166 1233 1561 1562 1563 1564 1565
7 111 1024 1557 1566 1567 1568 1569
7 89 1118 1570 1571 1572 1573 1574
7 378 797 1575 1576 1577 1578 1579
7 344 1010 1436 1580 1581 1582 1583
7 619 921 1391 1584 1585 1586 1587
7 648 1122 1427 1588 1589 1590 1591
7 611 895 1346 1592 1593 1594 1595
7 383 857 1596 1597 1598 1599 1600
7 242 1002 1341 1601 1602 1603 1604
7 320 730 1570 1605 1606 1607 1608
7 221 1156 1422 1532 1609 1610 1611
7 636 844 1583 1612 1613 1614 1615
7 684 990 1431 1497 1616 1617 1618
7 455 1266 1357 1619 1620 1621 1622
7 504 1281 1356 1623 1624 1625 1626
7 436 761 1627 1628 1629 1630 1631
7 691 977 1332 1632 1633 1634 1635
7 55 1230 1628 1636 1637 1638 1639
7 104 910 1576 1640 1641 1642 1643
7 124 1192 1590 1644 1645 1646 1647
7 719 1180 1377 1502 1648 1649 1650
7 657 809 1550 1651 1652 1653 1654
7 701 1099 1401 1655 1656 1657 1658
7 294 820 1561 1659 1660 1661 1662
7 197 1269 1412 1663 1664 1665 1666
7 523 989 1367 1629 1667 1668 1669
7 432 875 1366 1638 1670 1671 1672
7 508 772 1622 1673 1674 1675 1676
7 207 1259 1386 1542 1677 1678 1679
7 68 936 1625 1673 1680 1681 1682
7 12 1306 1587 1683 1684 1685 1686
7 153 1019 1597 1687 1688 1689 1690
7 566 1275 1337 1607 1691 1692 1693
7 593 1212 1347 1506 1694 1695 1696
7 712 784 1447 1697 1698 1699 1700
7 139 941 1528 1612 1701 1702 1703
7 5 1197 1488 1697 1704 1705 1706
7 27 1172 1546 1651 1707 1708 1709
7 582 742 1511 1683 1710 1711 1712
7 555 1186 1417 1660 1713 1714 1715
7 271 1313 1327 1641 1716 1717 1718
7 308 1061 1406 1688 1719 1720 1721
7 260 1295 1372 1516 1722 1723 1724
7 586 832 1538 1644 1725 1726 1727
7 160 1163 1441 1665 1728 1729 1730
7 83 1226 1462 1603 1731 1732 1733
7 40 1298 1514 1554 1734 1735 1736
7 529 1136 1326 1577 1737 1738 1739
7 332 815 1505 1595 1740 1741 1742
7 632 1083 1351 1475 1743 1744 1745
7 213 1071 1361 1484 1746 1747 1748
7 373 1041 1416 1565 1749 1750 1751
7 182 862 1476 1658 1752 1753 1754
7 466 953 1407 1598 1755 1756 1757
7 189 791 1467 1634 1758 1759 1760
7 328 1245 1336 1573 1761 1762 1763
7 496 850 1459 1495 1764 1765 1766
7 560 1202 1322 1558 1767 1768 1769
7 414 1285 1402 1479 1770 1771 1772
7 519 1148 1331 1468 1773 1774 1775
7 246 1311 1411 1443 1776 1777 1778
7 403 802 1493 1500 1779 1780 1781
7 19 1189 1455 1539 1782 1783 1784
7 48 1112 1482 1520 1785 1786 1787
7 117 1301 1451 1531 1788 1789 1790
7 281 766 1471 1524 1791 1792 1793
7 177 1253 1321 1568 1794 1795 1796
7 253 1223 1342 1463 1797 1798 1799
7 69 773 1320 1800 1801 1802 1803
7 34 803 1325 1804 1805 1806 1807
7 90 731 1330 1808 1809 1810 1811
7 20 749 1335 1812 1813 1814 1815
7 103 796 1340 1816 1817 1818 1819
7 62 767 1345 1820 1821 1822 1823
7 41 725 1350 1824 1825 1826 1827
7 6 785 1355 1828 1829 1830 1831
7 75 814 1360 1832 1833 1834 1835
7 110 754 1365 1836 1837 1838 1839
7 47 778 1370 1840 1841 1842 1843
7 13 743 1375 1844 1845 1846 1847
7 96 790 1380 1848 1849 1850 1851
7 26 808 1385 1852 1853 1854 1855
7 82 736 1390 1856 1857 1858 1859
7 54 760 1395 1860 1861 1862 1863
7 125 833 1400 1864 1865 1866 1867
7 146 863 1405 1868 1869 1870 1871
7 138 845 1410 1872 1873 1874 1875
7 159 826 1415 1876 1877 1878 1879
7 152 856 1420 1880 1881 1882 1883
7 118 839 1425 1884 1885 1886 1887
7 167 821 1430 1888 1889 1890 1891
7 132 851 1435 1892 1893 1894 1895
7 347 1104 1444 1896 1897 1898 1899
7 435 984 1448 1806 1900 1901 1902
7 306 1018 1452 1827 1903 1904 1905
7 541 1170 1456 1879 1906 1907 1908
7 293 1184 1460 1835 1909 1910 1911
7 531 964 1465 1912 1913 1914 1915
7 480 1247 1470 1913 1916 1917 1918
7 621 1049 1474 1919 1920 1921 1922
7 397 1124 1478 1923 1924 1925 1926
7 614 1204 1485 1927 1928 1929 1930
7 430 1228 1489 1814 1931 1932 1933
7 580 1078 1492 1869 1934 1935 1936
7 420 1043 1498 1937 1938 1939 1940
7 365 923 1503 1910 1941 1942 1943
7 228 1085 1508 1944 1945 1946 1947
7 472 1221 1512 1895 1922 1948 1949
7 217 1131 1517 1950 1951 1952 1953
7 590 898 1521 1858 1899 1954 1955
7 545 1293 1525 1850 1926 1956 1957
7 681 1106 1529 1842 1958 1959 1960
7 468 1177 1533 1961 1962 1963 1964
7 670 1153 1537 1823 1965 1966 1967
7 361 1278 1543 1905 1968 1969 1970
7 517 1013 1547 1884 1929 1971 1972
7 187 973 1551 1874 1973 1974 1975
7 286 1111 1555 1811 1976 1977 1978
7 458 888 1560 1945 1979 1980 1981
7 662 1271 1563 1961 1982 1983 1984
7 442 1283 1567 1951 1985 1986 1987
7 651 1096 1572 1966 1988 1989 1990
7 609 1145 1579 1960 1991 1992 1993
7 495 913 1582 1801 1994 1995 1996
7 239 1224 1586 1864 1997 1998 1999
7 485 1300 1591 1802 2000 2001 2002
7 280 1126 1594 1816 2003 2004 2005
7 704 947 1599 1938 2006 2007 2008
7 267 908 1604 1890 1953 2009 2010
7 211 1053 1608 2011 2012 2013 2014
7 382 951 1611 1829 2015 2016 2017
7 604 1318 1614 1933 2018 2019 2020
7 369 1232 1618 1830 2021 2022 2023
7 710 1028 1621 1808 2024 2025 2026
7 666 1195 1626 1819 2027 2028 2029
7 562 980 1630 1919 2030 2031 2032
7 318 1273 1635 1881 1946 2033 2034
7 551 1255 1639 1927 2035 2036 2037
7 201 1182 1642 2012 2038 2039 2040
7 642 884 1646 1901 2041 2042 2043
7 616 1304 1650 1873 2044 2045 2046
7 693 1217 1653 2022 2047 2048 2049
7 585 1241 1657 1836 2040 2050 2051
7 250 927 1662 1923 2052 2053 2054
7 576 940 1666 1839 2014 2055 2056
7 233 1199 1669 1855 1940 2057 2058
7 174 1023 1672 1844 1963 2059 2060
7 355 1261 1676 1908 2061 2062 2063
7 655 864 1679 1867 2064 2065 2066
7 338 970 1681 1935 2067 2068 2069
7 687 1004 1686 2017 2047 2070 2071
7 301 1287 1690 1897 2072 2073 2074
7 675 1257 1693 1889 1987 2075 2076
7 630 1166 1696 1852 2007 2077 2078
7 526 1289 1699 1999 2079 2080 2081
7 170 994 1703 2005 2082 2083 2084
7 512 879 1706 1974 2085 2086 2087
7 314 1150 1709 1991 2088 2089 2090
7 256 1088 1711 1988 2091 2092 2093
7 423 1309 1715 1863 1918 2094 2095
7 716 930 1718 1882 1980 2096 2097
7 412 903 1721 1860 1914 2098 2099
7 625 1068 1724 1847 1983 2100 2101
7 223 1238 1727 1977 2102 2103 2104
7 491 1210 1729 2025 2102 2105 2106
7 571 1315 1732 1968 2107 2108 2109
7 706 1141 1735 2065 2079 2110 2111
7 401 1056 1739 1876 2112 2113 2114
7 699 1073 1741 2045 2086 2115 2116
7 388 1296 1745 1805 2117 2118 2119
7 331 892 1748 1813 2120 2121 2122
7 193 1162 1751 1820 2093 2123 2124
7 538 998 1754 2029 2083 2125 2126
7 181 1097 1757 1841 2089 2127 2128
7 567 871 1759 1942 2129 2130 2131
7 448 1187 1763 1870 2132 2133 2134
7 557 1159 1765 2041 2118 2135 2136
7 506 1264 1769 1857 2073 2137 2138
7 646 1191 1772 1832 2130 2139 2140
7 324 1116 1775 1892 2031 2141 2142
7 635 1007 1778 1824 2108 2143 2144
7 465 1249 1780 2001 2145 2146 2147
7 407 959 1783 1995 2145 2148 2149
7 275 1214 1786 2061 2113 2150 2151
7 597 1064 1790 2018 2122 2152 2153
7 263 1035 1792 2068 2133 2154 2155
7 501 935 1796 1849 2054 2156 2157
7 376 1134 1799 1887 2036 2158 2159
7 4 1312 1726 1962 2160 2161 2162
7 11 1209 1793 1950 2163 2164 2165
7 17 1284 1515 1928 2166 2167 2168
7 23 1268 1700 2030 2169 2170 2171
7 31 1063 1675 2080 2172 2173 2174
7 39 1179 1661 1896 2175 2176 2177
7 44 1244 1534 2006 2178 2179 2180
7 52 1093 1766 2052 2181 2182 2183
7 60 958 1753 2103 2184 2185 2186
7 65 1147 1442 2019 2187 2188 2189
7 71 1003 1615 2135 2190 2191 2192
7 78 1121 1631 1979 2193 2194 2195
7 87 991 1559 2062 2196 2197 2198
7 93 883 1742 2154 2199 2200 2201
7 99 1039 1483 2115 2202 2203 2204
7 107 919 1600 2125 2205 2206 2207
7 113 1280 1712 1912 2208 2209 2210
7 123 1213 1606 1969 2211 2212 2213
7 128 1140 1781 2091 2214 2215 2216
7 135 1252 1541 2048 2217 2218 2219
7 143 876 1578 2146 2220 2221 2222
7 148 1046 1654 2129 2223 2224 2225
7 157 1082 1464 1992 2226 2227 2228
7 165 969 1760 2011 2229 2230 2231
7 172 1290 1756 1925 2232 2233 2234
7 176 813 1640 1936 2235 2236 2237
7 183 1307 1388 1971 2198 2238 2239
7 188 1299 1358 1931 2206 2240 2241
7 194 855 1785 2004 2242 2243 2244
7 204 1317 1633 1990 2245 2246 2247
7 212 1267 1749 1872 2223 2248 2249
7 219 1310 1584 1817 2199 2250 2251
7 224 1258 1743 1840 2205 2252 2253
7 232 1250 1668 1986 2254 2255 2256
7 235 1194 1439 2021 2227 2257 2258
7 241 788 1687 2051 2259 2260 2261
7 252 1274 1670 1800 2190 2262 2263
7 258 1294 1616 1878 2220 2264 2265
7 264 1242 1773 1812 2202 2266 2267
7 269 806 1701 1911 2268 2269 2270
7 278 1218 1768 2069 2271 2272 2273
7 282 1303 1413 1958 2231 2274 2275
7 287 759 1707 2034 2276 2277 2278
7 295 1190 1328 2044 2194 2279 2280
7 304 1074 1714 2106 2281 2282 2283
7 307 847 1504 1957 2284 2285 2286
7 317 1158 1798 2039 2287 2288 2289
7 319 1198 1363 2077 2176 2290 2291
7 325 795 1728 1996 2292 2293 2294
7 333 1235 1428 1903 2222 2295 2296
7 341 1277 1593 1921 2297 2298 2299
7 348 1137 1552 1834 2181 2300 2301
7 353 1012 1761 1853 2193 2302 2303
7 360 1070 1588 1883 2229 2304 2305
7 368 1237 1549 1917 2306 2307 2308
7 370 860 1566 2026 2309 2310 2311
7 377 1169 1399 2059 2189 2312 2313
7 384 1119 1379 1997 2203 2314 2315
7 389 751 1731 2114 2307 2316 2317
7 400 1262 1458 1984 2318 2319 2320
7 402 1231 1373 1954 2186 2321 2322
7 410 1176 1738 1943 2323 2324 2325
7 413 843 1680 1902 2305 2326 2327
7 422 1036 1610 2074 2294 2328 2329
7 425 934 1384 2141 2167 2330 2331
7 431 762 1466 2076 2324 2332 2333
7 437 1165 1403 2000 2224 2271 2334
7 444 1144 1523 2111 2295 2335 2336
7 447 735 1788 2128 2319 2337 2338
7 459 1100 1601 1804 2169 2339 2340
7 463 1033 1770 1885 2226 2284 2341
7 470 1222 1486 1837 2184 2342 2343
7 473 939 1349 2117 2179 2323 2344
7 482 997 1510 2109 2321 2345 2346
7 483 817 1636 2138 2298 2347 2348
7 492 1205 1656 2043 2314 2349 2350
7 497 1227 1338 1906 2201 2281 2351
7 500 777 1782 1975 2343 2346 2352
7 507 1109 1423 2098 2213 2353 2354
7 515 1089 1747 1947 2311 2355 2356
7 518 798 1477 1967 2303 2357 2358
7 525 1155 1648 1859 2196 2268 2359
7 533 1201 1449 1871 2214 2360 2361
7 537 1060 1794 1828 2178 2332 2362
7 540 738 1494 2095 2267 2349 2363
7 546 943 1409 2139 2209 2355 2364
7 554 872 1723 2151 2274 2327 2365
7 558 1080 1694 1825 2187 2276 2366
7 563 1185 1544 1810 2172 2337 2367
7 568 1129 1719 1865 2217 2347 2368
7 573 946 1692 2149 2240 2369 2370
7 575 834 1704 2058 2265 2335 2371
7 581 1114 1323 2027 2182 2287 2372
7 587 1173 1343 2096 2165 2328 2373
7 591 782 1499 1949 2253 2369 2374
7 599 981 1777 2084 2279 2358 2375
7 602 869 1623 1862 2175 2235 2376
7 608 897 1663 1893 2208 2309 2377
7 613 954 1453 1851 2163 2292 2378
7 615 727 1562 2144 2234 2340 2379
7 624 1052 1446 2037 2244 2353 2380
7 626 907 1434 2123 2218 2297 2381
7 631 769 1571 2066 2289 2301 2382
7 637 1016 1394 2009 2174 2318 2383
7 643 1132 1581 1939 2261 2330 2384
7 645 824 1734 2121 2256 2361 2385
7 653 1103 1491 2071 2278 2312 2386
7 656 1027 1354 1976 2192 2245 2387
7 663 889 1536 2153 2238 2270 2388
7 665 721 1684 2159 2246 2263 2389
7 672 911 1334 2132 2170 2232 2390
7 676 901 1369 2156 2162 2306 2391
7 680 828 1472 2101 2249 2272 2392
7 689 926 1678 2090 2237 2290 2393
7 692 987 1526 1891 2211 2242 2394
7 698 918 1716 1846 2166 2259 2395
7 703 976 1518 1822 2160 2316 2396
7 708 963 1620 2087 2257 2286 2397
7 711 1021 1418 2055 2216 2254 2398
7 715 744 1645 2016 2251 2283 2399
7 510 986 1767 1982 2326 2400 2401
7 404 1220 1737 1985 2374 2402 2403
7 323 865 1632 2035 2382 2404 2405
7 679 975 1691 1920 2352 2406 2407
7 379 1077 1797 2110 2236 2408 2409
7 284 1069 1592 2072 2392 2410 2411
7 549 894 1522 1937 2385 2412 2413
7 714 1200 1619 1924 2371 2414 2415
7 334 1292 1746 2105 2285 2416 2417
7 236 1029 1667 2152 2310 2418 2419
7 629 1125 1722 2042 2243 2420 2421
7 583 1135 1490 1944 2389 2422 2423
7 190 1256 1548 2150 2333 2424 2425
7 658 1272 1677 2067 2277 2426 2427
7 475 1057 1509 2085 2317 2428 2429
7 438 1265 1445 2082 2348 2430 2431
7 589 952 1655 1916 2399 2432 2433
7 184 1152 1755 2107 2357 2434 2435
7 639 1183 1776 1989 2269 2436 2437
7 427 914 1713 2070 2293 2438 2439
7 385 1240 1609 2148 2260 2440 2441
7 674 1098 1535 1941 2338 2442 2443
7 296 1009 1457 2088 2379 2444 2445
7 498 1308 1580 2038 2363 2446 2447
7 490 1044 1730 1956 2384 2448 2449
7 524 891 1698 1868 2195 2450 2451
7 151 831 1424 1930 2368 2438 2452
7 24 728 1389 2020 2367 2408 2453
7 556 1105 1764 1818 2177 2454 2455
7 572 924 1733 1965 2325 2456 2457
7 329 1171 1774 2046 2351 2411 2458
7 394 900 1744 2028 2322 2433 2459
7 649 1020 1771 1959 2296 2403 2460
7 276 1048 1787 2075 2299 2461 2462
7 51 770 1398 2049 2262 2420 2463
7 461 966 1779 1838 2210 2449 2464
7 374 942 1617 2002 2398 2423 2461
7 618 909 1649 1907 2383 2415 2465
7 634 1113 1695 1932 2387 2447 2456
7 255 1146 1710 1833 2228 2463 2466
7 707 1086 1736 1934 2356 2467 2468
7 74 722 1364 1993 2366 2418 2469
7 262 1206 1791 1880 2168 2470 2471
7 129 823 1438 2116 2264 2440 2450
7 596 1123 1789 2024 2233 2458 2472
7 222 949 1725 1848 2180 2473 2474
7 408 1246 1784 2050 2308 2475 2476
7 94 747 1383 2008 2266 2428 2454
7 690 1055 1652 1803 2230 2469 2477
7 45 765 1374 1970 2396 2400 2478
7 443 880 1569 1948 2397 2474 2479
7 198 1108 1750 2140 2275 2405 2480
7 503 1229 1795 2078 2241 2435 2481
7 452 1014 1762 2097 2239 2401 2482
7 202 1005 1643 2094 2386 2471 2483
7 600 929 1613 1809 2183 2468 2484
7 81 801 1393 1964 2339 2406 2485
7 116 859 1429 2081 2360 2436 2486
7 695 1133 1740 1877 2164 2476 2487
7 300 885 1689 2100 2350 2465 2488
7 102 741 1344 1898 2395 2404 2489
7 652 1151 1574 1909 2393 2451 2490
7 467 1000 1530 1807 2207 2453 2491
7 169 1270 1702 2137 2320 2492 2493
7 162 840 1433 2032 2248 2442 2470
7 350 983 1674 1888 2171 2457 2494
7 1 752 1359 2147 2342 2416 2495
7 552 971 1637 2064 2273 2460 2496
7 565 1279 1758 1843 2212 2493 2497
7 179 1196 1671 2119 2372 2445 2475
7 718 1225 1717 1972 2315 2417 2498
7 487 905 1589 2056 2354 2407 2499
7 8 792 1378 2136 2250 2426 2473
7 313 1095 1708 2143 2247 2459 2500
7 534 1178 1752 1856 2161 2462 2501
7 661 995 1564 1900 2375 2498 2502
7 136 818 1414 2063 2394 2434 2503
7 561 1263 1627 1875 2197 2452 2504
7 108 781 1368 1915 2362 2412 2497
7 339 1254 1682 2033 2380 2455 2505
7 358 874 1540 1821 2225 2495 2502
7 668 1025 1624 1955 2313 2437 2506
7 244 931 1585 2134 2373 2413 2492
7 415 1302 1720 2023 2334 2425 2467
7 206 1219 1605 1861 2219 2488 2507
7 57 774 1348 2131 2252 2430 2464
7 513 1282 1705 2112 2255 2480 2508
7 683 1164 1527 1904 2381 2427 2479
7 433 937 1487 1978 2391 2443 2483
7 520 1188 1545 1998 2390 2431 2448
7 686 1181 1685 1994 2288 2481 2509
7 247 1319 1659 1854 2188 2485 2510
7 30 732 1329 2126 2359 2424 2484
7 142 837 1408 1981 2341 2444 2487
7 214 1075 1513 1894 2204 2486 2511
7 641 1286 1647 2003 2329 2477 2512
7 577 1234 1664 2099 2258 2409 2513
7 270 1305 1602 2142 2280 2419 2512
7 289 1167 1553 2157 2291 2439 2514
7 605 1090 1575 1826 2215 2472 2515
7 229 1142 1507 2158 2336 2499 2510
7 36 810 1353 2092 2300 2414 2507
7 610 1037 1481 1866 2200 2503 2509
7 156 848 1419 1952 2377 2432 2516
7 396 1066 1480 2057 2388 2466 2517
7 700 1239 1596 1815 2185 2489 2508
7 479 961 1469 2015 2370 2506 2511
7 16 787 1339 2104 2378 2402 2518
7 419 1211 1496 2120 2282 2482 2519
7 454 1291 1556 1886 2173 2500 2516
7 120 852 1404 2155 2304 2446 2494
7 86 805 1333 2053 2302 2422 2501
7 343 1160 1440 1845 2191 2496 2518
7 364 1314 1501 2127 2345 2504 2514
7 543 1117 1454 2010 2331 2421 2517
7 592 1297 1519 2060 2344 2441 2490
7 309 1193 1450 2124 2364 2429 2505
7 622 1215 1473 1973 2365 2491 2513
7 66 756 1324 2013 2376 2410 2515
7 528 1251 1461 1831 2221 2478 2519
