# Generated using Miratope v0.5.0 (https://github.com/galoomba1/miratope-rs)
4OFF

# Vertices, Faces, Edges, Cells
120 720 1200 120

# Vertices
0.809016994374945 0.809016994374945 0.809016994374945 0.809016994374945 
0.809016994374945 0.809016994374945 0.809016994374945 -0.809016994374945 
1.61803398874989 0 0 0 
1.30901699437495 0.809016994374945 -0.5 0 
1.30901699437495 0 0.809016994374945 -0.5 
0.809016994374945 1.30901699437495 0 -0.5 
1.30901699437495 0 0.809016994374945 0.5 
0.809016994374945 1.30901699437495 0 0.5 
0.809016994374945 0.5 1.30901699437495 0 
1.30901699437495 0.5 0 0.809016994374945 
0.5 1.30901699437495 0.809016994374945 0 
1.30901699437495 0.5 0 -0.809016994374945 
0.809016994374945 -0.809016994374945 0.809016994374945 0.809016994374945 
0.809016994374945 -0.809016994374945 -0.809016994374945 0.809016994374945 
0.809016994374945 0 -0.5 1.30901699437495 
1.30901699437495 -0.809016994374945 -0.5 0 
0.809016994374945 0 0.5 1.30901699437495 
1.30901699437495 -0.809016994374945 0.5 0 
0.809016994374945 -1.30901699437495 0 0.5 
0.5 -0.809016994374945 0 1.30901699437495 
1.30901699437495 0 -0.809016994374945 0.5 
0.809016994374945 -0.809016994374945 0.809016994374945 -0.809016994374945 
0 0 1.61803398874989 0 
0 -0.809016994374945 1.30901699437495 -0.5 
0 -0.809016994374945 1.30901699437495 0.5 
0.5 -1.30901699437495 0.809016994374945 0 
0.5 0 1.30901699437495 -0.809016994374945 
0.5 0 1.30901699437495 0.809016994374945 
-0.809016994374945 -0.809016994374945 0.809016994374945 0.809016994374945 
0 0 0 1.61803398874989 
0 0.5 0.809016994374945 1.30901699437495 
-0.5 0 1.30901699437495 0.809016994374945 
-0.5 -0.809016994374945 0 1.30901699437495 
0 -1.30901699437495 0.5 0.809016994374945 
-0.809016994374945 0 0.5 1.30901699437495 
-0.809016994374945 0.809016994374945 0.809016994374945 0.809016994374945 
-0.5 1.30901699437495 0.809016994374945 0 
0 0.809016994374945 1.30901699437495 -0.5 
0 1.30901699437495 0.5 0.809016994374945 
-0.809016994374945 0.5 1.30901699437495 0 
0.809016994374945 0.809016994374945 -0.809016994374945 0.809016994374945 
-0.5 0.809016994374945 0 1.30901699437495 
0 1.30901699437495 -0.5 0.809016994374945 
0 0.5 -0.809016994374945 1.30901699437495 
0 -0.5 -0.809016994374945 1.30901699437495 
0.5 0.809016994374945 0 1.30901699437495 
0 -0.5 0.809016994374945 1.30901699437495 
-0.809016994374945 0 -0.5 1.30901699437495 
-0.809016994374945 -0.5 1.30901699437495 0 
-1.30901699437495 0 0.809016994374945 0.5 
0 0.809016994374945 1.30901699437495 0.5 
0 1.61803398874989 0 0 
-0.809016994374945 1.30901699437495 0 0.5 
0.809016994374945 -0.5 1.30901699437495 0 
1.30901699437495 -0.5 0 0.809016994374945 
1.30901699437495 0.809016994374945 0.5 0 
0 1.30901699437495 0.5 -0.809016994374945 
-0.5 0 1.30901699437495 -0.809016994374945 
-1.30901699437495 0.809016994374945 0.5 0 
-1.30901699437495 0.5 0 0.809016994374945 
0.5 1.30901699437495 -0.809016994374945 0 
1.30901699437495 -0.5 0 -0.809016994374945 
1.30901699437495 0 -0.809016994374945 -0.5 
0.5 0 -1.30901699437495 0.809016994374945 
-0.809016994374945 0.809016994374945 0.809016994374945 -0.809016994374945 
-1.61803398874989 0 0 0 
-0.809016994374945 1.30901699437495 0 -0.5 
-1.30901699437495 0.809016994374945 -0.5 0 
-1.30901699437495 0 0.809016994374945 -0.5 
-1.30901699437495 0.5 0 -0.809016994374945 
-0.809016994374945 -0.809016994374945 0.809016994374945 -0.809016994374945 
-0.809016994374945 -0.809016994374945 -0.809016994374945 -0.809016994374945 
-1.30901699437495 -0.809016994374945 -0.5 0 
-0.809016994374945 0 -0.5 -1.30901699437495 
-1.30901699437495 -0.809016994374945 0.5 0 
-0.809016994374945 0 0.5 -1.30901699437495 
-0.809016994374945 -1.30901699437495 0 -0.5 
-1.30901699437495 0 -0.809016994374945 -0.5 
-0.5 -0.809016994374945 0 -1.30901699437495 
-0.5 -1.30901699437495 0.809016994374945 0 
0 0 0 -1.61803398874989 
0 0.5 0.809016994374945 -1.30901699437495 
0.5 -0.809016994374945 0 -1.30901699437495 
0 -1.30901699437495 0.5 -0.809016994374945 
0.809016994374945 0 0.5 -1.30901699437495 
-0.809016994374945 0.809016994374945 -0.809016994374945 -0.809016994374945 
0 1.30901699437495 -0.5 -0.809016994374945 
0.5 0.809016994374945 0 -1.30901699437495 
0 0.5 -0.809016994374945 -1.30901699437495 
-0.809016994374945 -0.809016994374945 -0.809016994374945 0.809016994374945 
-0.809016994374945 -1.30901699437495 0 0.5 
-1.30901699437495 0 -0.809016994374945 0.5 
-0.809016994374945 0.809016994374945 -0.809016994374945 0.809016994374945 
-0.809016994374945 0.5 -1.30901699437495 0 
-0.5 1.30901699437495 -0.809016994374945 0 
-0.5 0.809016994374945 0 -1.30901699437495 
0 -0.5 0.809016994374945 -1.30901699437495 
0 -0.5 -0.809016994374945 -1.30901699437495 
0.809016994374945 0 -0.5 -1.30901699437495 
-1.30901699437495 -0.5 0 -0.809016994374945 
0.809016994374945 -0.809016994374945 -0.809016994374945 -0.809016994374945 
0 0 -1.61803398874989 0 
0.809016994374945 0.5 -1.30901699437495 0 
0 -0.809016994374945 -1.30901699437495 -0.5 
0 -0.809016994374945 -1.30901699437495 0.5 
0.5 -1.30901699437495 -0.809016994374945 0 
0.5 0 -1.30901699437495 -0.809016994374945 
0.809016994374945 -1.30901699437495 0 -0.5 
0.809016994374945 0.809016994374945 -0.809016994374945 -0.809016994374945 
-0.5 0 -1.30901699437495 -0.809016994374945 
0 -1.30901699437495 -0.5 -0.809016994374945 
0 0.809016994374945 -1.30901699437495 0.5 
-1.30901699437495 -0.5 0 0.809016994374945 
0.809016994374945 -0.5 -1.30901699437495 0 
0 0.809016994374945 -1.30901699437495 -0.5 
-0.809016994374945 -0.5 -1.30901699437495 0 
-0.5 0 -1.30901699437495 0.809016994374945 
0 -1.30901699437495 -0.5 0.809016994374945 
-0.5 -1.30901699437495 -0.809016994374945 0 
0 -1.61803398874989 0 0 

# Faces
5 0 4 10 6 1
5 1 7 8 5 0
5 0 2 7 6 3
5 2 8 9 4 0
5 3 10 9 5 0
5 1 2 8 11 6
5 1 3 4 5 2
5 3 1 7 11 10
5 5 2 7 11 9
5 6 10 9 8 7
5 9 4 3 6 11
5 8 11 10 4 5
5 12 13 16 18 14
5 12 15 19 17 13
5 9 12 2 16 17
5 2 18 6 15 12
5 14 12 9 19 6
5 2 14 15 9 13
5 2 18 20 17 13
5 13 9 19 20 16
5 6 14 2 16 20
5 6 15 9 17 20
5 6 18 16 17 19
5 19 15 14 18 20
5 21 6 25 4 12
5 24 21 12 23 17
5 22 6 24 8 12
5 22 12 23 27 25
5 4 12 8 17 27
5 22 21 8 23 4
5 21 22 25 26 24
5 21 8 17 26 6
5 22 6 26 27 4
5 24 17 27 25 6
5 27 23 8 24 26
5 17 23 4 25 26
5 12 31 33 27 28
5 28 19 24 32 12
5 29 27 19 30 12
5 29 33 16 32 12
5 12 30 24 16 31
5 29 28 30 32 31
5 29 33 34 19 28
5 28 30 24 34 27
5 29 27 34 16 31
5 16 34 19 30 32
5 24 19 27 33 16
5 32 24 34 33 31
5 0 35 10 30 36
5 35 0 31 38 27
5 0 22 30 8 31
5 0 37 27 10 22
5 38 37 0 36 8
5 22 30 39 27 35
5 35 22 36 31 37
5 10 39 38 37 35
5 8 36 22 10 39
5 8 38 27 10 30
5 31 37 27 39 8
5 31 36 30 39 38
5 0 14 7 16 40
5 38 40 0 42 9
5 0 14 30 9 29
5 38 29 0 41 16
5 0 41 7 30 42
5 29 9 43 16 40
5 40 41 14 42 29
5 7 41 40 38 43
5 29 38 43 30 42
5 9 38 16 7 30
5 14 42 9 43 7
5 30 43 16 41 14
5 45 34 16 41 46
5 19 43 16 44 45
5 32 14 46 44 16
5 45 19 30 14 46
5 45 47 30 43 34
5 45 44 41 14 47
5 32 41 46 47 30
5 14 32 43 19 47
5 41 44 34 43 32
5 47 19 34 44 46
5 28 30 49 46 35
5 39 28 35 48 34
5 22 35 48 50 49
5 46 35 27 34 50
5 28 22 46 48 27
5 39 28 22 49 24
5 46 22 30 24 50
5 27 48 50 24 39
5 34 39 30 49 50
5 24 49 46 48 34
5 35 0 41 50 45
5 0 51 50 7 36
5 0 42 10 45 51
5 35 51 50 52 10
5 35 42 36 41 51
5 45 52 30 42 35
5 45 52 7 41 51
5 30 7 50 45 10
5 7 52 10 42 36
5 30 52 50 41 36
5 27 19 6 46 54
5 24 16 53 46 6
5 6 18 53 54 25
5 16 17 27 54 53
5 54 33 16 18 46
5 53 33 27 25 46
5 19 25 54 33 17
5 24 18 53 33 17
5 46 18 24 19 25
5 40 0 3 45 55
5 2 16 55 54 0
5 6 14 0 54 45
5 7 20 55 40 2
5 40 2 14 3 54
5 16 20 45 54 40
5 7 16 55 45 6
5 3 54 55 20 6
5 3 14 7 20 45
5 1 50 55 37 0
5 22 0 53 50 6
5 4 27 55 53 0
5 1 22 10 26 50
5 1 22 4 37 53
5 6 26 55 53 1
5 6 50 55 27 10
5 55 26 10 4 37
5 50 26 27 37 53
5 5 38 55 51 0
5 1 7 56 55 51
5 51 1 36 5 37
5 8 56 50 1 36
5 38 56 50 51 37
5 7 8 38 55 50
5 55 56 8 5 37
5 7 36 5 38 56
5 8 31 53 50 24
5 50 57 8 39 26
5 8 57 53 37 23
5 27 48 53 31 23
5 37 48 50 57 31
5 53 57 24 26 48
5 31 57 24 39 23
5 37 48 26 39 23
5 38 34 50 41 31
5 39 52 50 58 38
5 38 59 30 52 34
5 38 59 36 41 58
5 31 58 50 49 36
5 49 41 31 59 30
5 59 39 52 49 36
5 34 58 41 49 52
5 31 59 39 34 58
5 54 27 9 12 0
5 53 16 8 12 0
5 53 2 12 4 54
5 53 2 8 17 55
5 9 27 55 16 8
5 55 17 9 4 54
5 45 51 40 38 60
5 40 5 42 3 51
5 40 5 9 60 55
5 51 3 10 60 55
5 45 10 9 38 55
5 9 42 3 45 60
5 5 42 10 60 38
5 11 17 55 61 6
5 55 62 9 11 20
5 55 61 3 4 62
5 9 62 54 3 15
5 4 15 6 61 54
5 15 11 20 61 3
5 61 20 17 62 54
5 15 11 17 62 4
5 54 63 9 13 40
5 43 13 40 44 20
5 44 40 29 63 45
5 16 44 54 29 13
5 43 13 29 63 19
5 19 45 54 29 9
5 9 43 20 45 63
5 20 44 54 63 19
5 45 27 29 0 46
5 50 16 31 0 46
5 45 34 38 29 35
5 41 31 29 35 46
5 27 45 50 16 38
5 35 66 39 52 64
5 64 49 36 68 35
5 35 65 52 49 67
5 39 65 35 68 59
5 59 66 35 67 36
5 64 65 39 69 49
5 65 66 68 67 64
5 64 67 36 69 52
5 52 69 59 66 65
5 36 69 39 66 68
5 49 69 59 68 67
5 71 70 72 78 74
5 70 71 75 76 73
5 65 75 74 69 70
5 70 65 76 68 72
5 73 70 69 78 68
5 71 65 76 77 74
5 65 73 72 69 71
5 69 71 75 77 78
5 75 77 68 73 65
5 72 69 74 77 68
5 76 75 74 78 68
5 77 78 72 73 76
5 70 28 23 74 24
5 49 70 28 68 79
5 28 23 31 79 22
5 28 39 74 31 68
5 39 70 22 68 23
5 70 24 57 79 22
5 39 70 49 57 74
5 22 68 31 57 49
5 49 79 31 74 24
5 79 68 23 74 57
5 70 21 57 83 26
5 21 70 82 23 78
5 80 26 82 81 21
5 83 80 21 78 84
5 21 81 23 84 57
5 80 70 81 78 57
5 70 80 83 75 82
5 70 26 75 23 81
5 26 80 57 84 75
5 82 23 84 83 26
5 57 83 75 23 78
5 84 78 81 82 75
5 10 64 1 36 81
5 64 26 56 57 1
5 1 57 8 81 22
5 57 36 22 64 50
5 39 81 22 64 26
5 39 56 50 64 10
5 56 26 10 81 8
5 56 57 36 81 39
5 64 86 69 56 85
5 85 64 73 66 75
5 64 80 56 75 87
5 80 64 73 81 69
5 64 86 81 66 87
5 80 86 73 87 85
5 80 69 88 75 85
5 85 87 66 88 56
5 80 56 88 81 86
5 69 81 66 75 56
5 86 73 66 88 69
5 87 73 81 88 75
5 28 89 34 90 47
5 28 72 32 74 89
5 28 59 74 34 65
5 90 65 28 72 49
5 59 28 47 49 32
5 89 59 72 47 65
5 89 74 91 90 65
5 59 89 34 91 32
5 34 65 47 49 91
5 34 74 32 49 90
5 91 90 47 72 32
5 91 74 59 72 49
5 85 52 93 66 92
5 85 91 94 77 92
5 52 65 92 58 91
5 93 65 92 77 59
5 66 92 58 94 59
5 85 65 66 77 58
5 85 91 69 93 65
5 52 69 94 58 85
5 59 93 52 91 94
5 69 93 66 77 94
5 91 69 59 77 58
5 58 57 36 68 37
5 81 36 95 37 66
5 36 69 56 58 95
5 66 39 56 58 37
5 39 75 37 68 81
5 56 75 37 95 57
5 57 69 39 75 58
5 58 75 66 68 95
5 57 69 81 68 95
5 53 84 8 21 1
5 21 1 61 26 11
5 55 84 2 1 61
5 53 61 6 21 2
5 2 84 17 11 21
5 55 84 8 11 26
5 61 26 17 84 53
5 30 6 46 0 12
5 46 14 12 29 54
5 6 30 9 27 45
5 12 28 25 46 79
5 22 12 31 53 46
5 23 33 53 79 12
5 23 33 48 25 28
5 22 25 48 53 79
5 33 48 46 79 31
5 21 1 96 4 81
5 84 57 1 96 37
5 22 21 57 53 96
5 23 81 22 96 37
5 37 84 8 81 4
5 23 84 53 96 4
5 37 58 50 64 35
5 31 68 35 48 58
5 68 37 48 64 22
5 49 64 48 58 57
5 75 84 95 96 87
5 81 98 95 84 88
5 84 97 87 82 88
5 84 78 98 96 97
5 82 87 96 98 81
5 87 73 98 95 97
5 78 95 96 73 81
5 98 73 82 88 78
5 95 78 88 75 97
5 96 97 75 82 73
5 64 87 37 95 1
5 1 51 87 10 86
5 86 81 5 95 1
5 64 51 37 66 10
5 86 36 95 51 64
5 51 87 66 5 95
5 5 66 10 86 36
5 81 5 37 87 10
5 96 68 23 75 48
5 57 79 96 48 83
5 75 74 57 99 48
5 83 74 23 76 48
5 99 79 68 76 48
5 68 96 99 57 78
5 23 76 96 79 78
5 74 83 99 79 78
5 75 83 99 96 76
5 85 64 67 95 58
5 65 64 99 58 75
5 73 68 95 99 64
5 85 65 73 67 99
5 77 95 99 85 75
5 95 77 66 73 67
5 68 77 58 99 67
5 13 100 20 105 62
5 13 100 104 15 103
5 13 102 104 20 101
5 105 101 13 103 63
5 62 63 15 102 13
5 100 102 103 62 101
5 101 105 106 104 100
5 100 102 15 106 20
5 20 101 62 63 106
5 20 104 15 63 105
5 106 105 62 103 15
5 102 104 106 63 103
5 17 100 21 15 82
5 100 21 98 107 84
5 4 107 2 21 15
5 4 98 21 11 82
5 2 107 62 17 100
5 15 98 2 100 11
5 100 84 62 82 11
5 2 98 4 62 84
5 17 82 4 107 84
5 15 82 62 107 98
5 40 5 102 7 108
5 40 108 20 60 62
5 40 62 9 102 2
5 55 108 2 5 62
5 2 102 11 20 108
5 7 108 55 60 11
5 20 60 9 102 7
5 60 62 5 102 11
5 82 71 100 78 103
5 71 100 109 110 106
5 100 88 82 106 80
5 98 110 80 100 78
5 98 109 100 88 103
5 80 110 73 82 71
5 71 88 78 109 80
5 88 71 106 73 103
5 98 109 80 106 73
5 110 106 82 103 98
5 109 110 73 103 78
5 85 60 88 94 108
5 108 109 86 106 85
5 101 108 111 106 60
5 101 88 102 109 108
5 94 102 86 111 108
5 101 94 109 111 85
5 106 85 101 88 93
5 60 85 111 86 93
5 94 101 60 93 102
5 106 86 102 88 60
5 86 109 94 88 93
5 102 109 111 106 93
5 1 86 11 56 108
5 84 108 1 98 5
5 98 1 80 11 81
5 84 56 80 1 95
5 108 84 88 11 80
5 98 86 80 108 95
5 88 5 95 108 56
5 81 11 56 84 5
5 98 86 11 88 5
5 42 59 38 92 35
5 58 92 35 67 41
5 35 51 58 38 66
5 38 92 51 41 94
5 51 92 66 42 67
5 67 51 58 94 36
5 36 94 38 66 42
5 59 42 67 41 94
5 35 28 59 31 112
5 29 59 30 47 35
5 41 112 35 47 49
5 29 112 46 47 28
5 29 59 32 41 112
5 49 32 31 112 46
5 30 6 50 16 8
5 92 34 52 47 35
5 42 47 45 92 29
5 59 43 34 92 29
5 43 52 45 92 38
5 42 47 52 43 59
5 52 56 58 51 64
5 10 66 38 56 52
5 38 94 7 52 60
5 56 60 10 86 7
5 94 5 42 86 7
5 5 94 56 60 66
5 86 52 56 94 36
5 66 60 52 86 42
5 65 34 58 112 35
5 68 112 48 65 28
5 39 65 48 58 74
5 31 112 48 34 74
5 59 74 58 112 68
5 33 112 46 90 34
5 24 90 46 79 32
5 33 74 24 90 48
5 49 90 48 112 79
5 33 74 32 79 112
5 65 92 112 67 47
5 41 91 34 92 112
5 52 91 41 67 47
5 49 91 58 112 67
5 40 113 14 102 13
5 63 3 113 40 62
5 2 113 54 62 13
5 2 102 15 3 113
5 9 102 14 3 63
5 15 63 54 113 14
5 108 1 3 87 55
5 98 1 61 87 4
5 2 108 61 3 98
5 84 62 87 61 108
5 55 87 4 5 84
5 62 87 3 98 5
5 12 107 53 18 21
5 12 107 54 25 15
5 15 21 18 61 25
5 54 107 2 18 61
5 61 25 4 107 53
5 10 87 55 56 11
5 81 11 26 87 4
5 56 84 37 87 26
5 87 114 95 108 85
5 56 108 51 87 60
5 108 51 114 5 94
5 60 66 114 51 85
5 56 85 51 95 94
5 60 88 5 114 87
5 88 66 114 95 94
5 85 71 93 73 115
5 85 71 88 77 97
5 101 85 115 114 77
5 73 106 85 97 114
5 93 71 101 77 103
5 71 101 97 115 106
5 88 103 114 97 101
5 93 73 114 77 88
5 114 115 106 93 103
5 73 103 77 97 115
5 15 98 113 61 106
5 82 105 61 110 15
5 107 103 15 110 113
5 62 105 61 113 107
5 82 62 97 61 106
5 98 107 97 61 110
5 103 62 97 113 98
5 82 103 107 97 105
5 106 110 113 97 105
5 108 111 3 114 40
5 20 111 113 40 101
5 101 40 114 63 60
5 101 108 113 114 62
5 113 108 20 106 3
5 20 111 3 63 60
5 60 62 114 3 106
5 106 111 113 114 63
5 7 111 51 40 94
5 102 42 114 40 94
5 7 86 3 51 108
5 111 51 114 42 86
5 42 102 7 111 3
5 102 86 3 114 5
5 63 93 102 116 114
5 102 104 111 113 116
5 103 114 113 109 102
5 63 93 104 111 115
5 116 103 63 115 113
5 115 111 109 116 114
5 106 104 109 113 115
5 116 103 93 104 109
5 93 86 67 114 66
5 86 67 95 94 69
5 114 77 94 109 67
5 86 109 95 114 73
5 73 93 69 109 67
5 88 77 95 109 69
5 100 108 61 106 11
5 113 108 100 102 98
5 2 100 20 61 113
5 3 106 11 102 98
5 52 85 51 67 86
5 71 85 99 109 69
5 80 85 97 95 109
5 71 80 99 97 75
5 69 78 95 99 80
5 77 78 109 99 97
5 49 99 58 74 69
5 59 72 67 112 77
5 72 68 112 99 49
5 69 72 67 99 91
5 74 77 112 99 91
5 80 1 96 87 26
5 80 64 96 95 57
5 26 64 96 37 75
5 81 70 64 96 68
5 70 64 99 57 69
5 73 70 80 99 96
5 109 91 85 115 67
5 91 71 65 115 99
5 71 91 109 72 93
5 65 93 72 67 115
5 73 115 99 109 72
5 28 76 48 90 70
5 28 76 112 79 72
5 48 65 70 49 99
5 99 90 70 72 79
5 65 76 112 99 90
5 70 64 48 75 39
5 26 70 22 96 48
5 52 111 41 94 43
5 47 111 41 116 42
5 41 116 59 43 91
5 52 111 67 42 93
5 42 116 94 43 93
5 111 91 43 93 47
5 59 93 47 67 116
5 94 116 67 111 91
5 92 114 67 111 85
5 51 111 52 60 92
5 60 93 42 114 92
5 41 111 45 92 40
5 40 92 60 43 94
5 45 111 7 43 60
5 33 13 12 117 54
5 18 32 12 117 46
5 32 13 29 117 14
5 13 33 44 18 32
5 29 117 46 44 33
5 44 18 14 117 54
5 42 63 92 40 116
5 44 111 14 116 40
5 29 116 41 44 92
5 92 44 111 47 63
5 29 116 14 47 63
5 42 63 45 111 14
5 14 111 20 43 102
5 102 43 60 63 42
5 11 86 3 87 60
5 80 61 96 98 21
5 82 11 80 61 87
5 4 82 26 61 96
5 101 43 102 116 40
5 101 13 116 113 44
5 116 13 43 104 14
5 101 44 111 104 43
5 44 113 14 104 20
5 89 13 32 104 19
5 89 13 116 117 63
5 47 117 29 89 19
5 32 116 29 89 43
5 47 104 43 89 63
5 19 104 14 117 63
5 47 104 32 116 117
5 97 108 100 88 62
5 98 114 97 108 109
5 100 109 113 97 101
5 102 98 114 62 88
5 110 21 100 83 61
5 21 110 96 107 78
5 97 61 80 100 84
5 97 83 100 78 107
5 96 110 80 83 97
5 84 83 61 96 107
5 87 106 80 108 97
5 86 98 114 87 106
5 62 88 11 106 87
5 63 92 101 43 93
5 114 92 101 94 116
5 91 71 89 77 118
5 71 89 103 72 104
5 101 91 104 93 89
5 101 118 116 103 89
5 93 89 77 116 72
5 101 118 109 104 71
5 109 91 101 77 116
5 116 118 91 104 72
5 72 103 77 118 109
5 97 118 100 71 105
5 104 110 113 118 100
5 105 71 104 110 115
5 115 105 101 118 113
5 109 118 97 115 110
5 101 91 111 115 92
5 67 115 92 77 116
5 28 117 112 33 89
5 46 117 28 19 90
5 44 112 29 89 34
5 89 33 44 90 19
5 90 44 112 117 47
5 43 89 92 44 91
5 92 89 59 116 112
5 44 91 32 116 112
5 70 21 79 96 25
5 24 83 53 79 21
5 70 25 48 83 24
5 26 25 96 53 83
5 113 18 100 13 107
5 54 105 17 13 107
5 100 18 61 105 17
5 113 18 20 105 54
5 19 105 54 117 15
5 18 104 19 105 44
5 15 104 18 113 117
5 63 105 44 113 117
5 53 107 23 17 83
5 82 25 61 83 17
5 107 23 82 25 96
5 72 110 99 118 78
5 72 110 115 76 103
5 115 76 77 118 99
5 76 97 99 110 73
5 97 76 103 78 118
5 47 115 92 89 93
5 44 115 63 89 101
5 104 47 115 44 91
5 44 118 13 89 105
5 113 118 13 103 117
5 115 105 89 103 117
5 116 118 44 115 117
5 83 71 70 110 99
5 76 82 70 110 96
5 97 76 82 71 83
5 112 115 65 89 77
5 47 72 116 112 115
5 71 90 115 76 89
5 76 89 74 118 112
5 71 90 99 118 74
5 90 115 112 118 91
5 44 118 32 104 90
5 117 72 32 118 112
5 72 117 115 90 104
5 70 119 74 83 90
5 70 110 79 78 119
5 71 119 72 110 90
5 71 119 78 118 83
5 74 119 72 79 118
5 83 118 79 110 90
5 12 107 33 17 119
5 12 117 25 19 119
5 13 33 105 19 119
5 107 117 15 119 13
5 15 119 17 105 25
5 25 117 107 33 105
5 17 119 21 18 83
5 21 110 25 82 119
5 15 110 18 100 119
5 82 119 100 83 105
5 83 105 25 110 18
5 12 119 24 18 79
5 21 79 107 23 119
5 33 83 24 119 23
5 18 79 107 33 83
5 107 118 100 119 103
5 71 119 103 76 105
5 78 119 82 76 107
5 83 118 107 76 105
5 76 25 70 119 23
5 110 79 107 76 25
5 90 25 28 119 24
5 33 76 28 119 74
5 76 33 83 90 25
5 28 119 32 79 117
5 33 118 32 119 89
5 89 119 72 117 76
5 79 117 76 33 118
5 89 119 104 90 105
5 117 110 104 119 103
5 110 117 76 105 90
5 13 118 18 104 119
5 19 119 32 18 90
5 90 105 33 118 18
5 107 117 110 18 118
5 18 90 25 117 79

# Cells
12 0 1 2 3 4 5 6 7 8 9 10 11
12 12 13 14 15 16 17 18 19 20 21 22 23
12 24 25 26 27 28 29 30 31 32 33 34 35
12 36 37 38 39 40 41 42 43 44 45 46 47
12 48 49 50 51 52 53 54 55 56 57 58 59
12 60 61 62 63 64 65 66 67 68 69 70 71
12 45 71 72 73 74 75 76 77 78 79 80 81
12 43 53 82 83 84 85 86 87 88 89 90 91
12 48 64 92 93 94 95 96 97 98 99 100 101
12 22 33 46 102 103 104 105 106 107 108 109 110
12 2 20 60 111 112 113 114 115 116 117 118 119
12 0 32 51 120 121 122 123 124 125 126 127 128
12 1 52 93 120 129 130 131 132 133 134 135 136
12 34 58 89 128 137 138 139 140 141 142 143 144
12 59 90 101 145 146 147 148 149 150 151 152 153
12 3 14 28 105 112 122 154 155 156 157 158 159
12 4 61 94 111 129 160 161 162 163 164 165 166
12 10 21 118 159 167 168 169 170 171 172 173 174
12 19 65 73 116 175 176 177 178 179 180 181 182
12 44 49 63 72 85 92 145 183 184 185 186 187
12 151 188 189 190 191 192 193 194 195 196 197 198
12 199 200 201 202 203 204 205 206 207 208 209 210
12 87 143 211 212 213 214 215 216 217 218 219 220
12 221 222 223 224 225 226 227 228 229 230 231 232
12 56 123 132 138 233 234 235 236 237 238 239 240
12 241 242 243 244 245 246 247 248 249 250 251 252
12 253 254 255 256 257 258 259 260 261 262 263 264
12 196 265 266 267 268 269 270 271 272 273 274 275
12 197 240 250 276 277 278 279 280 281 282 283 284
12 5 31 125 157 167 285 286 287 288 289 290 291
12 16 38 62 75 102 113 154 180 183 292 293 294
12 27 36 86 107 140 213 295 296 297 298 299 300
12 29 124 139 225 235 285 301 302 303 304 305 306
12 54 84 141 149 189 218 236 276 307 308 309 310
12 232 252 311 312 313 314 315 316 317 318 319 320
12 131 233 245 277 321 322 323 324 325 326 327 328
12 209 220 231 329 330 331 332 333 334 335 336 337
12 194 207 242 270 283 338 339 340 341 342 343 344
12 345 346 347 348 349 350 351 352 353 354 355 356
12 174 289 357 358 359 360 361 362 363 364 365 366
12 8 114 162 168 367 368 369 370 371 372 373 374
12 318 375 376 377 378 379 380 381 382 383 384 385
12 386 387 388 389 390 391 392 393 394 395 396 397
12 249 312 323 398 399 400 401 402 403 404 405 406
12 96 148 192 269 407 408 409 410 411 412 413 414
12 41 78 82 150 186 257 415 416 417 418 419 420
12 26 40 50 88 103 121 137 155 184 292 296 421
12 68 76 97 147 185 407 416 422 423 424 425 426
12 55 95 133 146 188 238 279 307 324 409 427 428
12 100 136 166 327 413 428 429 430 431 432 433 434
12 9 57 69 99 117 126 134 158 164 187 294 421
12 83 153 191 214 255 308 415 435 436 437 438 439
12 47 91 219 262 300 420 438 440 441 442 443 444
12 152 190 261 267 408 417 422 435 445 446 447 448
12 17 115 170 175 349 369 449 450 451 452 453 454
12 6 169 287 364 370 399 455 456 457 458 459 460
12 15 24 104 156 171 288 359 461 462 463 464 465
12 11 127 135 239 290 305 328 405 459 466 467 468
12 248 326 386 404 432 469 470 471 472 473 474 475
12 382 392 476 477 478 479 480 481 482 483 484 485
12 355 366 384 486 487 488 489 490 491 492 493 494
12 353 368 388 450 495 496 497 498 499 500 501 502
12 161 367 390 431 471 495 503 504 505 506 507 508
12 356 397 484 502 509 510 511 512 513 514 515 516
12 251 274 343 396 475 483 517 518 519 520 521 522
12 172 352 362 371 452 457 486 499 523 524 525 526
12 195 241 272 278 325 338 412 427 433 473 518 527
12 206 247 319 342 381 477 522 528 529 530 531 532
12 198 208 264 275 344 439 448 533 534 535 536 537
12 229 234 243 281 302 311 321 401 468 538 539 540
12 203 226 244 284 317 334 340 531 539 541 542 543
12 205 271 341 476 521 528 536 544 545 546 547 548
12 202 212 256 333 436 443 535 549 550 551 552 553
12 144 215 228 237 280 304 309 329 540 541 554 555
12 273 414 426 447 556 557 558 559 560 561 562 563
12 265 393 411 434 472 506 517 527 559 564 565 566
12 67 98 160 410 425 429 503 556 565 567 568 569
12 12 39 74 106 178 293 570 571 572 573 574 575
12 66 77 177 423 557 567 576 577 578 579 580 581
12 70 119 165 181 373 453 500 507 569 581 582 583
12 193 201 217 282 310 331 339 437 533 542 551 554
12 7 130 163 322 372 398 430 455 466 470 505 584
12 223 286 301 315 360 400 456 467 538 585 586 587
12 176 347 449 496 510 577 582 588 589 590 591 592
12 79 179 572 580 590 593 594 595 596 597 598 599
12 350 379 389 482 492 498 511 524 600 601 602 603
12 224 314 358 378 491 585 604 605 606 607 608 609
12 246 316 383 387 403 469 479 520 529 601 610 611
12 313 363 377 402 458 490 523 586 600 606 610 612
12 374 395 406 460 474 501 508 526 584 603 611 612
12 394 497 504 509 560 566 568 576 583 588 613 614
12 480 516 546 615 616 617 618 619 620 621 622 623
12 351 376 481 494 515 602 620 624 625 626 627 628
12 266 391 478 514 519 544 563 564 614 621 629 630
12 42 81 253 418 440 574 595 631 632 633 634 635
12 80 260 419 424 446 558 578 596 633 636 637 638
12 30 142 216 221 299 303 330 555 639 640 641 642
12 18 173 345 361 451 464 489 525 643 644 645 646
12 23 182 354 454 575 592 598 646 647 648 649 650
12 35 230 291 306 365 465 587 609 642 651 652 653
12 210 385 485 532 548 623 628 654 655 656 657 658
12 512 561 579 591 597 613 617 629 636 659 660 661
12 348 513 589 594 618 627 650 660 662 663 664 665
12 200 227 320 337 380 530 543 608 657 666 667 668
12 258 268 445 534 547 562 619 630 637 659 669 670
12 204 259 537 545 553 615 656 669 671 672 673 674
12 263 599 622 635 638 661 665 670 674 675 676 677
12 199 336 552 654 666 673 678 679 680 681 682 683
12 13 108 462 570 644 647 684 685 686 687 688 689
12 357 463 487 604 645 652 688 690 691 692 693 694
12 25 109 297 461 640 651 684 690 695 696 697 698
12 375 493 607 624 658 668 681 693 699 700 701 702
12 222 335 605 639 653 667 679 691 696 701 703 704
12 211 298 332 442 549 641 678 697 703 705 706 707
12 254 444 550 631 672 676 682 706 708 709 710 711
12 616 626 655 664 671 677 680 700 710 712 713 714
12 573 593 634 648 662 675 686 709 712 715 716 717
12 346 488 625 643 649 663 687 692 699 713 715 718
12 37 110 295 441 571 632 685 695 705 708 716 719
12 683 689 694 698 702 704 707 711 714 717 718 719
