# Generated using Miratope v0.5.0 (https://github.com/galoomba1/miratope-rs)
4OFF

# Vertices, Faces, Edges, Cells
120 3120 1200 240

# Vertices
0.809016994374945 0.809016994374945 0.809016994374945 0.809016994374945 
0.809016994374945 0.809016994374945 0.809016994374945 -0.809016994374945 
0.809016994374945 0.809016994374945 -0.809016994374945 0.809016994374945 
0.809016994374945 -0.809016994374945 0.809016994374945 0.809016994374945 
0.809016994374945 1.30901699437495 0 -0.5 
0.809016994374945 -0.5 1.30901699437495 0 
0.809016994374945 0 -0.5 1.30901699437495 
0.809016994374945 0.809016994374945 -0.809016994374945 -0.809016994374945 
0.809016994374945 -0.809016994374945 0.809016994374945 -0.809016994374945 
0.809016994374945 1.30901699437495 0 0.5 
0.809016994374945 0 -0.5 -1.30901699437495 
0.809016994374945 -0.809016994374945 -0.809016994374945 0.809016994374945 
0.809016994374945 0 0.5 1.30901699437495 
0.809016994374945 -0.5 -1.30901699437495 0 
0.809016994374945 0.5 1.30901699437495 0 
0.809016994374945 -1.30901699437495 0 -0.5 
0.809016994374945 -0.809016994374945 -0.809016994374945 -0.809016994374945 
0.809016994374945 0 0.5 -1.30901699437495 
0.809016994374945 0.5 -1.30901699437495 0 
0.809016994374945 -1.30901699437495 0 0.5 
0 -1.61803398874989 0 0 
1.30901699437495 0.5 0 0.809016994374945 
1.30901699437495 0 -0.809016994374945 -0.5 
0 -1.30901699437495 0.5 0.809016994374945 
1.30901699437495 0.5 0 -0.809016994374945 
1.30901699437495 0 -0.809016994374945 0.5 
0 -1.30901699437495 0.5 -0.809016994374945 
0.5 -0.809016994374945 0 1.30901699437495 
0 -0.809016994374945 1.30901699437495 0.5 
0 -0.809016994374945 1.30901699437495 -0.5 
0.5 -0.809016994374945 0 -1.30901699437495 
1.30901699437495 0.809016994374945 0.5 0 
0.5 0 1.30901699437495 0.809016994374945 
0.5 0 1.30901699437495 -0.809016994374945 
0.5 -1.30901699437495 -0.809016994374945 0 
0 0 1.61803398874989 0 
1.30901699437495 0.809016994374945 -0.5 0 
1.30901699437495 -0.5 0 0.809016994374945 
0 0.809016994374945 1.30901699437495 -0.5 
1.30901699437495 -0.809016994374945 -0.5 0 
0.5 1.30901699437495 0.809016994374945 0 
0.5 -1.30901699437495 0.809016994374945 0 
0 0.5 0.809016994374945 -1.30901699437495 
0 -0.5 0.809016994374945 -1.30901699437495 
0.5 0.809016994374945 0 -1.30901699437495 
0 0 0 1.61803398874989 
-0.5 1.30901699437495 0.809016994374945 0 
-0.5 0.809016994374945 0 1.30901699437495 
-0.5 -0.809016994374945 0 1.30901699437495 
-0.5 -1.30901699437495 0.809016994374945 0 
0 1.30901699437495 0.5 0.809016994374945 
-1.30901699437495 0.5 0 0.809016994374945 
-1.30901699437495 -0.5 0 0.809016994374945 
-0.5 0 1.30901699437495 -0.809016994374945 
-1.30901699437495 0.809016994374945 0.5 0 
-1.30901699437495 0 0.809016994374945 -0.5 
-1.30901699437495 -0.809016994374945 0.5 0 
-0.809016994374945 0.809016994374945 0.809016994374945 0.809016994374945 
1.30901699437495 0 0.809016994374945 -0.5 
0 -0.5 0.809016994374945 1.30901699437495 
-0.809016994374945 0.809016994374945 0.809016994374945 -0.809016994374945 
1.30901699437495 0 0.809016994374945 0.5 
-0.809016994374945 -0.809016994374945 0.809016994374945 0.809016994374945 
0 0.5 0.809016994374945 1.30901699437495 
-0.809016994374945 -0.809016994374945 0.809016994374945 -0.809016994374945 
-1.30901699437495 0 0.809016994374945 0.5 
-0.809016994374945 0.5 1.30901699437495 0 
-0.809016994374945 -1.30901699437495 0 0.5 
1.30901699437495 -0.809016994374945 0.5 0 
0 0.809016994374945 1.30901699437495 0.5 
-0.809016994374945 0 0.5 1.30901699437495 
-0.5 0 1.30901699437495 0.809016994374945 
0 1.30901699437495 -0.5 0.809016994374945 
-0.809016994374945 0.809016994374945 -0.809016994374945 0.809016994374945 
-0.5 0 -1.30901699437495 0.809016994374945 
0 -1.30901699437495 -0.5 0.809016994374945 
-0.809016994374945 -0.809016994374945 -0.809016994374945 0.809016994374945 
0.5 0 -1.30901699437495 0.809016994374945 
1.61803398874989 0 0 0 
0 0.809016994374945 -1.30901699437495 0.5 
-0.809016994374945 0 -0.5 1.30901699437495 
0 -0.809016994374945 -1.30901699437495 0.5 
0 0.5 -0.809016994374945 1.30901699437495 
0.5 0.809016994374945 0 1.30901699437495 
-0.5 1.30901699437495 -0.809016994374945 0 
0.5 1.30901699437495 -0.809016994374945 0 
-0.809016994374945 1.30901699437495 0 -0.5 
0 1.30901699437495 0.5 -0.809016994374945 
0 1.30901699437495 -0.5 -0.809016994374945 
-0.809016994374945 1.30901699437495 0 0.5 
0 1.61803398874989 0 0 
0 -0.5 -0.809016994374945 1.30901699437495 
-1.30901699437495 0.809016994374945 -0.5 0 
-1.30901699437495 0 -0.809016994374945 0.5 
-1.61803398874989 0 0 0 
-0.809016994374945 -0.5 1.30901699437495 0 
1.30901699437495 -0.5 0 -0.809016994374945 
-0.5 0.809016994374945 0 -1.30901699437495 
-0.809016994374945 0 0.5 -1.30901699437495 
-1.30901699437495 0.5 0 -0.809016994374945 
0 0 -1.61803398874989 0 
0 0.809016994374945 -1.30901699437495 -0.5 
0.5 0 -1.30901699437495 -0.809016994374945 
-0.809016994374945 0.809016994374945 -0.809016994374945 -0.809016994374945 
-0.809016994374945 0 -0.5 -1.30901699437495 
-0.809016994374945 -0.5 -1.30901699437495 0 
-0.809016994374945 -1.30901699437495 0 -0.5 
-0.809016994374945 -0.809016994374945 -0.809016994374945 -0.809016994374945 
-0.809016994374945 0.5 -1.30901699437495 0 
-1.30901699437495 0 -0.809016994374945 -0.5 
-0.5 -0.809016994374945 0 -1.30901699437495 
-0.5 -1.30901699437495 -0.809016994374945 0 
-1.30901699437495 -0.5 0 -0.809016994374945 
-1.30901699437495 -0.809016994374945 -0.5 0 
0 0 0 -1.61803398874989 
-0.5 0 -1.30901699437495 -0.809016994374945 
0 -1.30901699437495 -0.5 -0.809016994374945 
0 -0.809016994374945 -1.30901699437495 -0.5 
0 0.5 -0.809016994374945 -1.30901699437495 
0 -0.5 -0.809016994374945 -1.30901699437495 

# Faces
3 0 5 1
5 1 0 6 13 10
3 0 4 2
5 0 5 15 13 2
5 3 0 4 10 15
3 3 6 0
3 7 9 1
5 5 1 7 13 19
5 9 1 8 19 6
3 1 10 8
5 7 17 5 12 2
3 2 13 7
3 11 12 2
5 11 2 4 17 15
5 3 14 4 18 11
3 3 11 15
3 3 8 14
5 8 10 18 6 3
5 9 7 16 19 12
3 16 17 7
5 11 12 14 17 16
3 11 18 16
5 16 18 9 14 8
3 8 16 19
3 9 14 12
3 9 6 18
3 14 17 4
3 5 19 12
3 4 10 18
3 5 15 17
3 6 19 13
3 15 10 13
3 16 20 11
5 11 20 29 14 21
3 11 22 21
3 12 23 11
5 17 22 11 23 29
5 16 24 14 28 20
3 16 25 24
5 16 26 28 12 25
3 16 17 26
3 20 27 28
5 27 21 24 30 20
3 29 30 20
3 12 25 31
5 31 17 26 23 12
3 31 32 33
5 31 22 34 23 32
5 31 33 26 34 25
3 31 17 22
3 14 24 21
3 21 27 32
5 21 32 29 30 22
3 14 12 28
3 14 17 29
5 27 34 30 33 32
3 29 23 32
5 27 25 24 33 28
3 24 33 30
3 27 34 25
3 28 26 33
3 22 34 30
3 34 26 23
3 3 35 0
5 36 0 35 43 10
3 0 37 36
5 0 37 15 43 38
3 0 38 4
5 3 39 10 42 35
3 3 21 39
5 21 4 42 29 3
3 3 29 15
5 36 40 35 41 39
3 35 42 40
3 35 41 43
3 21 32 40
5 40 42 30 39 21
3 22 4 21
5 40 44 30 41 32
3 36 44 40
5 32 38 44 22 37
3 37 41 32
3 32 29 38
5 37 36 44 43 41
3 36 10 39
3 37 22 15
5 38 29 15 22 4
3 4 42 10
3 38 44 43
3 41 30 39
3 22 44 30
3 30 42 29
3 10 43 15
3 0 3 45
5 3 0 46 55 49
5 38 0 45 52 55
5 47 0 5 49 52
3 0 5 38
3 46 47 0
5 29 3 45 51 55
5 14 46 51 48 3
3 3 29 14
3 3 49 48
3 50 51 45
5 45 23 29 38 50
3 23 52 45
3 14 50 12
5 48 12 14 53 56
5 29 56 51 50 14
3 46 53 14
5 12 50 54 56 23
5 5 12 47 54 53
3 5 23 12
3 12 47 48
3 38 54 50
5 54 38 5 23 52
3 53 49 5
5 47 46 53 49 48
3 46 55 51
3 54 52 47
3 38 29 55
3 51 56 48
3 54 56 53
3 23 56 29
3 52 55 49
3 1 46 0
5 59 0 1 43 49
3 3 58 0
5 57 55 43 58 0
3 0 57 59
3 1 8 61
5 8 1 46 65 49
5 61 1 60 65 59
3 1 60 43
5 8 42 46 63 3
3 3 49 8
3 62 63 3
5 62 55 42 58 3
3 57 40 60
5 43 60 57 59 41
5 40 57 62 41 58
3 62 55 57
5 64 65 63 61 8
3 8 42 64
5 60 40 61 41 64
3 64 65 60
5 40 63 62 64 42
3 64 41 62
3 61 63 40
3 59 41 61
3 40 42 58
3 63 65 46
3 41 43 58
3 46 42 55
3 59 65 49
3 55 49 43
3 64 20 8
5 14 63 48 20 8
3 8 61 19
3 14 53 8
5 65 53 8 19 48
5 64 20 27 63 66
3 66 33 64
5 27 67 64 33 61
3 64 67 65
3 27 68 20
5 14 68 20 56 66
3 48 20 56
3 61 69 33
5 69 65 67 19 61
3 63 27 61
3 12 68 14
3 63 66 14
3 69 70 12
5 12 69 53 26 19
5 68 26 56 70 12
3 12 48 19
5 33 69 70 67 26
3 69 65 53
3 63 65 48
5 66 33 68 27 70
3 26 68 33
3 66 70 56
3 27 67 70
3 53 56 26
3 67 26 19
3 0 37 2
5 2 74 52 71 0
3 3 71 0
5 0 72 74 75 3
5 37 0 57 52 75
3 0 57 72
5 2 50 71 23 11
3 11 74 2
3 2 73 50
5 52 73 2 37 23
3 11 21 3
5 11 74 51 71 3
5 21 3 62 51 72
3 3 75 62
5 32 57 73 77 37
3 57 73 52
3 57 62 32
5 57 62 75 77 72
5 21 50 51 76 11
3 11 76 23
5 32 50 73 76 23
3 73 76 77
5 21 77 76 62 32
3 62 51 76
3 21 50 32
3 21 77 72
3 23 37 32
3 50 71 51
3 77 75 37
3 52 71 23
3 51 74 72
3 74 75 52
3 3 78 0
5 0 47 74 13 78
3 0 72 36
5 0 59 75 13 36
3 0 59 47
5 3 48 74 18 78
5 3 63 72 18 39
3 3 63 48
3 39 75 3
5 47 9 78 19 48
3 9 78 18
3 19 78 13
3 61 9 63
5 19 81 79 9 61
5 61 39 81 80 63
5 59 80 79 36 61
3 36 61 39
3 61 59 19
5 18 81 48 63 9
3 9 47 79
3 63 72 80
5 72 36 39 75 80
3 36 13 79
5 47 59 19 13 79
3 47 74 48
3 74 18 72
3 59 80 75
3 18 81 39
3 80 79 81
3 19 81 48
3 74 13 75
3 62 20 76
5 63 21 39 20 62
3 32 62 41
3 63 80 62
5 41 62 80 77 39
5 76 20 68 21 82
3 70 82 76
5 76 34 68 32 70
3 77 34 76
3 20 28 68
5 63 28 20 81 82
3 81 20 39
3 21 32 68
3 21 63 82
3 21 39 77
3 61 25 83
5 61 83 80 67 41
3 63 28 61
5 61 25 81 67 28
3 41 61 39
3 83 70 32
5 32 41 34 77 83
5 34 67 70 83 25
3 83 80 77
5 68 25 82 70 28
3 25 68 34
3 82 81 25
3 70 67 28
3 81 67 80
3 41 34 67
3 2 73 45
5 2 73 54 38 31
5 4 38 71 45 2
3 12 31 2
5 12 71 54 84 2
3 4 84 2
5 32 45 73 86 38
5 32 70 73 85 31
3 73 54 70
3 85 86 73
3 32 45 21
5 4 21 45 51 86
3 51 45 71
5 12 31 87 54 70
3 31 38 32
3 31 85 87
3 14 21 4
5 21 82 51 66 14
5 32 66 86 85 21
3 82 85 21
3 14 71 12
5 14 12 82 84 87
5 71 14 4 84 51
3 14 66 87
3 12 82 70
3 70 66 32
3 4 86 38
3 54 71 38
5 66 87 85 82 70
3 86 51 66
3 84 54 87
3 82 51 84
3 7 78 1
5 7 79 47 69 1
5 47 6 78 1 46
3 61 1 69
5 61 1 88 79 6
3 1 46 88
5 7 78 12 47 84
5 12 69 87 7 25
3 7 79 25
3 87 7 84
3 14 78 12
5 18 84 46 14 78
3 6 78 18
5 25 61 69 89 79
3 61 6 63
5 61 24 88 89 63
3 24 61 25
3 46 14 63
5 14 63 82 18 24
3 14 24 87
3 47 69 12
3 12 82 25
3 69 87 89
5 6 63 46 88 18
3 82 89 63
3 79 6 47
3 47 84 46
5 24 25 82 89 87
3 88 18 24
3 89 79 88
3 82 18 84
3 57 60 35
5 44 60 57 83 36
5 72 57 35 58 36
3 32 57 83
5 57 32 58 44 86
3 57 86 72
5 60 35 61 36 88
5 61 83 89 60 33
3 89 88 60
3 60 44 33
3 61 63 35
5 72 88 42 35 63
3 42 58 35
3 32 58 21
3 72 63 21
5 24 42 66 63 21
5 42 86 72 21 58
3 21 24 85
3 36 83 61
3 33 61 24
5 33 44 85 83 32
3 89 85 83
3 33 32 66
3 63 66 89
3 44 58 36
3 36 72 88
5 66 33 24 85 89
3 88 42 24
3 66 42 86
3 85 86 44
3 2 90 0
5 90 0 59 52 92
5 0 6 74 92 46
3 6 59 0
3 0 46 71
5 2 91 52 54 90
3 12 91 2
3 2 84 74
3 69 54 90
5 90 79 91 59 69
3 79 92 90
3 12 69 9
5 84 9 12 48 93
5 69 9 79 93 65
5 6 48 65 46 9
3 6 79 9
3 84 9 46
5 91 12 69 54 93
3 12 71 48
3 65 59 69
5 65 59 6 79 92
3 74 6 48
5 46 71 48 74 84
3 65 92 46
3 52 54 71
3 91 52 59
3 84 54 93
3 65 93 48
3 79 93 91
3 52 74 92
3 73 94 76
5 32 95 94 73 83
3 73 91 83
3 54 73 50
5 95 54 73 91 23
5 32 66 94 76 27
3 76 27 82
5 66 56 76 82 50
3 23 76 56
3 89 94 66
5 89 83 27 67 94
3 94 67 95
3 50 82 12
3 12 69 28
5 28 12 82 93 56
3 12 23 91
3 32 83 27
3 89 83 69
5 83 91 67 95 69
3 32 66 50
3 32 95 23
5 67 93 89 69 28
3 69 95 54
5 89 66 28 27 82
3 89 93 82
3 66 28 56
3 27 67 28
3 91 93 67
3 54 93 56
3 38 90 0
5 0 72 92 55 35
3 0 59 35
3 0 45 72
5 83 90 60 95 59
3 90 60 92
3 35 60 40
5 80 92 60 35 59
5 40 83 80 94 60
3 94 60 95
3 73 90 83
5 73 90 38 95 52
3 52 73 45
3 73 94 86
5 72 40 35 62 80
3 55 35 62
3 32 45 62
5 55 86 72 45 62
5 32 40 86 94 62
3 62 80 94
3 40 83 32
3 86 40 72
3 80 83 59
3 38 95 32
3 80 92 72
3 55 86 38
3 59 95 52
3 52 55 92
3 0 45 2
5 58 0 45 75 15
3 0 58 36
3 0 59 5
5 22 2 45 23 15
3 31 2 22
5 2 31 5 23 91
3 2 13 91
5 32 58 22 77 45
3 23 45 32
3 77 75 45
3 32 31 83
5 83 31 96 34 91
3 31 96 5
5 41 96 36 83 59
3 83 36 77
3 91 83 59
3 32 58 41
5 77 36 58 41 75
3 36 13 96
3 22 15 58
5 96 5 59 91 13
3 15 23 5
3 59 41 75
3 41 34 96
3 34 22 77
3 23 34 91
3 15 75 13
3 0 1 78
5 0 71 49 15 78
3 37 59 0
3 0 38 71
5 53 1 78 19 49
5 19 96 1 69 59
3 53 1 69
3 1 96 43
3 19 78 12
5 78 12 71 53 17
3 15 78 17
3 31 69 12
5 96 26 95 69 31
5 31 37 23 95 38
3 31 37 96
3 17 38 31
3 23 71 12
3 59 95 69
5 59 95 43 96 37
3 37 23 15
5 17 38 71 23 15
3 53 49 71
3 38 95 43
3 49 19 59
3 26 96 19
3 23 26 95
3 26 53 17
3 15 49 43
3 2 90 7
5 2 37 5 38 90
3 12 2 50
5 17 38 50 2 22
3 37 22 2
5 96 7 90 69 5
3 7 96 25
3 7 87 17
3 90 83 69
5 90 44 96 37 83
3 44 90 38
5 12 68 17 87 50
3 12 5 69
3 25 68 12
3 37 83 32
5 83 69 33 96 25
3 83 85 25
3 32 50 38
5 32 50 85 22 68
3 33 32 68
3 85 50 87
3 69 87 33
3 96 5 37
3 17 38 5
5 33 87 85 25 68
3 22 68 17
3 44 85 22
3 33 44 96
3 0 57 90
5 0 5 43 97 90
3 0 58 4
5 71 0 4 97 55
3 5 71 0
5 43 44 90 57 95
3 32 57 95
3 57 86 55
5 5 95 54 90 31
3 90 31 44
3 90 54 97
3 32 31 50
5 95 32 31 44 98
5 54 98 17 31 50
3 17 5 31
5 32 50 86 98 29
3 29 58 32
5 17 4 50 71 29
3 86 50 4
3 54 71 50
5 4 86 55 29 58
3 44 58 43
3 17 97 4
5 54 97 17 5 71
3 95 43 5
3 29 71 55
3 86 98 44
3 95 98 54
3 17 98 29
3 55 97 43
3 62 94 64
3 32 62 29
3 62 51 63
5 29 62 51 86 42
5 89 40 33 64 94
3 33 64 28
5 28 63 89 99 64
3 42 99 64
3 94 89 70
5 94 70 32 33 98
3 86 94 98
3 14 50 87
3 14 63 28
5 63 51 99 42 14
5 28 56 99 87 14
3 29 42 14
3 32 33 40
3 40 89 63
3 42 40 86
3 32 70 50
5 87 98 56 70 50
3 50 86 51
5 87 33 28 70 89
3 87 99 89
3 56 28 70
3 33 98 87
3 29 98 56
3 56 99 51
3 1 35 0
5 0 47 92 97 1
3 0 72 4
3 0 71 47
5 88 92 65 35 1
5 1 53 65 47 9
3 9 88 1
3 1 53 97
3 65 35 63
3 42 55 35
3 9 63 14
5 9 84 99 53 14
5 9 63 65 99 88
3 47 9 84
3 4 42 14
3 53 71 14
3 72 63 51
5 42 55 51 72 4
3 4 84 97
5 47 71 53 97 84
3 65 92 47
3 55 71 51
3 88 92 72
3 51 99 84
3 53 99 65
3 88 99 42
3 55 92 97
3 6 78 0
3 0 58 35
5 35 0 6 75 49
3 45 71 0
5 14 71 48 11 78
3 15 78 11
3 21 45 11
5 11 45 71 29 15
3 11 48 20
3 14 8 78
5 48 6 78 8 49
5 35 63 6 39 8
3 8 49 35
3 20 8 39
3 63 35 62
5 62 35 58 39 75
5 45 21 58 29 62
3 62 45 75
3 20 62 29
3 14 21 63
3 39 58 21
3 29 71 14
3 63 6 48
3 29 58 15
3 39 6 75
3 49 71 48
3 15 49 75
3 3 45 11
5 58 3 45 72 4
3 3 14 63
3 3 39 58
5 50 4 22 11 45
5 50 82 11 68 14
3 11 68 22
3 11 82 18
3 50 32 45
3 77 45 72
3 4 50 14
3 14 24 68
3 32 58 40
5 32 27 77 85 40
3 63 40 72
5 63 40 24 39 27
5 72 40 58 39 77
3 24 40 85
3 27 68 32
3 85 50 82
3 27 82 63
3 4 58 22
3 18 72 4
5 82 27 68 24 85
3 18 24 39
3 22 85 77
3 39 77 27
3 0 4 78
5 0 37 13 101 90
3 47 90 0
3 0 45 37
5 4 101 74 45 0
3 13 7 78
3 90 31 7
5 7 90 47 91 13
5 7 31 12 91 100
3 7 100 84
3 12 11 78
5 74 84 4 78 11
3 11 45 74
5 12 50 84 100 11
3 11 22 100
5 73 91 37 31 90
3 90 101 73
3 50 45 73
5 37 45 73 101 22
5 50 31 22 100 73
3 73 100 91
3 12 31 50
3 31 37 22
3 12 91 47
3 84 50 4
3 13 37 91
3 22 101 4
3 74 84 47
3 74 101 13
3 0 1 90
3 0 37 58
5 0 58 10 101 72
3 0 72 6
5 96 13 79 90 1
3 61 96 1
3 10 88 1
3 90 83 79
3 44 101 90
3 40 83 61
5 39 61 40 88 102
5 83 79 102 96 61
3 61 6 39
5 77 102 44 40 83
3 44 58 40
3 88 40 72
3 77 83 37
5 44 58 37 77 101
3 13 37 96
3 39 58 10
5 10 88 72 6 39
3 6 79 13
3 72 77 101
3 77 102 39
3 96 102 44
3 88 79 102
3 13 10 101
3 7 100 16
3 96 7 31
3 7 79 9
5 79 91 19 96 7
5 16 68 12 82 100
3 16 68 24
5 16 81 82 9 24
3 19 16 81
3 85 100 82
5 85 100 34 68 31
3 34 100 91
3 12 68 31
3 31 83 85
3 9 24 61
3 61 83 27
5 61 24 102 81 27
3 19 96 61
3 9 82 12
3 12 19 91
5 85 102 34 27 83
3 91 79 83
3 27 68 34
3 24 85 102
3 81 27 82
3 34 102 96
3 81 102 79
3 0 35 57
3 0 5 37
3 0 6 47
5 80 57 35 41 75
5 83 37 41 95 57
3 80 57 83
3 57 95 52
5 6 61 35 65 80
3 35 61 41
3 49 35 65
3 69 83 61
3 6 61 19
3 91 37 83
5 69 5 19 91 47
3 95 5 69
3 69 47 65
5 91 37 5 95 52
3 37 75 41
3 5 19 49
5 65 47 6 19 49
3 75 80 6
3 47 91 52
3 41 95 67
3 67 65 80
3 19 91 67
3 49 75 52
3 60 1 90
5 1 90 47 59 5
3 1 9 61
3 5 1 53
3 65 89 60
3 60 95 33
3 83 31 90
3 47 90 54
3 5 31 12
5 31 83 70 95 33
3 33 87 31
5 9 61 28 65 89
3 61 59 83
3 28 61 33
3 12 47 9
5 12 9 87 53 28
3 89 87 9
3 12 28 70
3 83 70 89
3 95 5 59
3 65 47 59
3 70 95 54
3 54 87 53
3 53 65 28
3 60 57 95
5 60 57 80 105 104
3 57 86 73
5 57 95 106 105 73
5 62 106 104 86 57
3 57 80 62
3 89 103 60
5 95 60 103 105 67
5 60 64 67 80 89
3 60 64 104
5 70 95 98 103 73
3 103 105 73
3 76 73 70
5 76 106 98 86 73
3 62 66 64
5 80 62 64 104 108
5 76 62 66 86 108
3 62 76 106
5 67 107 103 89 70
3 107 98 103
5 66 89 108 107 64
3 67 107 64
5 76 70 66 98 107
3 76 108 107
3 66 70 89
3 89 108 80
3 86 66 98
3 67 95 70
3 86 108 104
3 98 106 95
3 67 105 80
3 106 104 105
3 20 107 76
5 20 76 51 66 29
3 23 70 76
3 51 109 76
5 76 23 29 98 109
5 20 28 66 99 107
3 99 93 107
5 28 70 93 107 26
3 98 26 107
3 20 48 28
5 20 48 51 99 110
3 20 29 110
5 53 71 48 111 110
3 48 71 51
3 53 71 54
5 29 71 51 109 110
3 29 71 23
5 23 71 54 109 111
3 70 66 28
3 98 66 29
3 66 99 51
5 54 70 23 26 98
3 54 93 70
5 99 93 48 28 53
3 26 28 53
3 48 111 93
5 54 93 111 26 53
3 99 110 53
3 54 98 109
3 26 111 23
3 111 110 109
3 60 64 35
3 89 60 69
5 69 59 67 112 60
3 92 112 60
5 80 113 64 35 63
3 67 64 28
3 99 113 64
3 63 35 46
5 46 35 49 113 92
3 59 35 49
3 47 69 59
5 69 53 112 93 47
3 69 53 28
5 46 63 48 113 99
3 63 89 80
3 63 48 28
3 47 92 46
3 53 46 99
5 59 47 92 112 49
3 47 93 48
3 80 59 67
3 89 93 99
3 92 113 80
3 48 49 113
3 53 49 112
3 93 67 112
3 60 64 114
5 60 69 61 96 114
3 44 60 40
3 69 60 95
5 60 95 41 96 44
5 28 61 24 114 64
3 66 28 64
5 24 30 64 66 40
3 30 64 41
3 24 114 87
5 87 69 28 26 114
3 96 114 26
3 31 68 32
3 87 31 69
5 87 31 68 26 98
3 96 31 44
3 40 24 61
3 69 28 61
3 61 96 41
3 32 66 40
5 32 66 98 30 68
3 41 95 32
5 66 28 68 24 87
3 24 68 30
3 28 68 26
3 66 98 87
3 26 98 95
3 44 98 30
3 62 3 20
5 110 42 14 3 20
3 14 71 3
3 3 58 15
5 3 15 110 55 71
5 20 30 42 66 62
3 62 66 32
5 62 106 30 58 32
3 62 55 106
3 20 68 30
3 20 110 56
5 71 14 17 110 56
3 14 17 68
3 14 42 66
3 32 58 38
5 32 23 106 98 38
3 23 68 32
5 55 106 15 58 38
3 30 58 42
3 38 55 71
3 23 71 56
3 17 38 98
5 17 98 56 23 68
3 56 66 98
3 15 110 17
3 23 106 15
3 42 110 55
3 106 30 98
3 1 96 7
5 7 115 112 53 1
3 1 53 8
5 1 88 115 116 8
5 1 60 112 116 96
3 1 88 60
5 16 7 87 53 26
3 16 115 7
3 87 103 7
5 26 112 103 7 96
3 8 24 16
5 16 115 99 53 8
5 8 24 88 99 64
3 8 116 64
5 33 60 103 102 96
3 103 112 60
3 64 33 60
5 64 116 102 88 60
5 87 24 16 107 99
3 26 16 107
5 26 107 103 87 33
3 103 107 102
5 64 33 24 102 107
3 64 99 107
3 24 87 33
3 88 102 24
3 26 33 96
3 87 53 99
3 102 116 96
3 53 112 26
3 99 115 88
3 112 116 115
3 60 94 64
5 60 94 105 102 44
3 60 92 88
3 44 60 43
5 60 92 105 116 43
5 94 64 30 102 108
3 42 64 30
5 42 64 113 108 88
3 113 116 64
3 86 94 108
5 44 30 106 94 86
3 106 94 105
3 86 101 44
3 42 86 55
5 42 30 117 108 86
5 101 86 55 106 117
3 42 10 88
5 92 113 116 10 88
3 102 108 88
5 43 106 105 101 44
3 44 102 30
5 10 42 55 113 117
5 43 10 101 92 55
3 92 113 55
3 92 105 101
3 55 106 43
3 10 117 101
3 10 116 43
3 113 117 108
3 30 106 117
3 102 105 116
3 16 8 20
5 99 42 8 20 113
3 49 53 8
3 8 42 10
5 49 8 10 115 113
5 20 16 118 99 56
3 17 118 16
5 17 53 56 111 16
3 16 115 111
3 29 20 56
5 42 29 20 117 118
3 113 117 20
3 53 97 17
5 53 97 115 111 49
3 56 99 53
3 15 29 17
5 56 29 17 118 109
3 29 42 55
5 29 55 109 117 15
5 15 111 109 97 17
3 42 118 99
5 15 49 55 97 10
3 55 113 49
3 55 97 109
3 15 117 10
3 15 49 111
3 97 115 10
3 111 56 109
3 99 115 113
3 109 117 118
3 103 114 7
5 54 103 7 31 69
5 69 9 7 114 53
3 17 31 7
3 7 84 9
5 17 53 54 84 7
5 89 69 33 114 103
3 89 85 103
5 31 33 98 103 85
3 98 103 54
3 24 33 114
5 99 114 24 9 89
3 99 114 53
3 85 50 31
3 31 69 33
3 14 24 9
3 89 9 69
3 14 66 50
5 14 50 84 118 17
5 99 66 14 24 118
3 14 53 17
5 50 85 118 98 66
3 54 84 50
3 54 69 53
3 85 118 24
3 66 99 89
3 33 98 66
3 84 118 99
3 17 98 118
3 57 94 73
5 38 57 73 101 44
5 40 44 104 94 57
3 40 72 57
5 55 57 72 101 104
3 38 57 55
5 73 94 98 44 85
3 73 50 85
5 98 38 50 73 109
3 73 101 109
5 85 108 94 66 40
3 94 66 98
3 108 104 94
5 108 72 40 42 104
3 40 66 42
3 44 40 85
3 38 50 4
5 51 109 118 4 50
3 51 66 50
3 72 101 4
5 4 101 109 55 38
3 42 118 4
3 72 51 108
3 44 98 38
5 51 108 118 42 66
3 85 108 118
3 51 55 109
3 44 101 104
3 42 55 104
3 109 98 118
3 3 63 35
5 3 35 55 113 75
3 45 75 3
5 63 51 113 20 3
3 20 3 29
3 57 35 55
3 32 45 57
5 75 106 55 57 45
5 32 57 94 106 41
3 80 94 57
3 41 64 35
3 66 64 94
5 41 27 80 94 64
3 64 113 20
3 51 45 76
5 106 29 32 45 76
3 76 94 106
3 20 76 27
3 32 66 29
3 32 41 27
3 63 51 66
3 63 27 80
3 75 113 80
3 29 106 55
3 55 113 51
3 41 75 106
3 73 76 100
5 100 73 54 98 119
3 73 86 101
3 52 73 54
5 52 73 101 119 106
5 76 56 98 118 100
3 56 76 51
5 117 76 51 86 118
3 106 117 76
3 84 118 100
5 56 111 100 84 54
3 100 111 119
3 55 86 51
3 98 118 86
3 54 97 84
3 74 84 51
5 51 84 118 110 56
5 84 97 110 111 74
5 97 54 52 111 119
3 56 98 54
5 55 110 117 74 51
5 52 74 101 97 55
3 55 106 52
3 52 74 111
3 97 110 55
3 97 119 101
3 101 74 117
3 110 56 111
3 98 106 119
3 118 110 117
3 107 100 103
5 100 103 54 70 91
3 89 103 79
3 112 54 103
5 91 79 103 112 67
5 70 82 100 107 56
3 99 107 56
5 81 107 99 89 82
3 67 107 81
3 84 100 82
3 91 111 100
5 47 48 111 115 84
3 47 84 54
3 47 65 48
5 91 47 54 112 111
3 79 91 47
5 47 65 112 115 79
3 82 89 70
5 65 89 79 81 67
3 89 65 99
3 67 70 91
3 56 54 70
5 48 82 84 99 56
3 81 48 82
3 99 84 115
5 65 48 81 115 99
3 48 111 56
3 67 65 112
3 81 115 79
3 115 112 111
3 62 20 64
5 62 20 117 108 51
3 75 80 62
3 55 62 51
5 75 62 55 104 117
5 20 64 99 108 81
3 65 99 64
5 64 65 80 81 116
3 64 104 116
3 48 20 81
3 110 117 20
3 92 80 65
5 92 80 75 116 104
3 80 108 81
3 51 48 74
3 48 65 49
5 49 48 74 115 110
3 51 108 99
5 49 116 115 92 65
5 74 92 55 49 75
3 55 92 104
3 74 115 92
3 55 110 49
3 75 116 49
3 75 117 74
3 99 110 115
3 104 117 108
3 116 81 115
3 107 94 103
5 94 95 33 44 103
3 54 103 87
5 95 54 103 119 26
3 103 119 44
5 30 107 94 66 33
3 56 107 26
5 56 107 118 87 66
3 107 118 30
3 86 94 66
3 95 94 106
5 38 86 109 106 29
3 38 44 86
3 54 95 38
5 38 95 106 119 44
3 29 38 17
5 38 17 119 109 54
3 66 87 33
5 29 66 86 118 30
3 56 29 66
3 26 95 33
3 30 44 33
5 56 26 17 87 54
3 17 118 87
3 118 109 86
3 30 29 106
3 54 109 56
3 17 119 26
3 106 109 119
3 1 114 8
5 69 1 114 112 65
3 1 69 5
5 1 97 112 49 5
3 46 97 1
5 99 114 8 28 65
3 8 28 14
5 99 46 14 8 110
3 49 110 8
3 87 99 114
3 26 114 112
3 14 71 46
3 17 87 14
5 69 54 112 26 5
3 87 69 54
3 69 28 65
3 49 71 5
3 17 26 5
5 71 49 110 97 46
3 46 99 65
3 56 71 54
3 28 56 26
3 54 97 112
3 49 112 65
3 97 110 17
3 99 56 110
3 42 8 35
5 35 65 113 116 8
3 28 8 20
3 8 116 114
3 60 35 65
5 41 116 104 60 35
5 67 41 33 60 94
3 94 104 60
3 60 114 33
5 65 60 114 116 67
3 41 62 35
5 42 35 62 113 104
3 94 66 62
5 30 104 94 62 41
3 20 62 113
3 67 107 94
3 20 30 107
3 99 107 114
5 33 28 67 107 114
3 33 28 66
3 42 99 66
3 33 41 30
3 67 65 28
3 99 113 65
3 67 116 41
3 30 104 42
3 116 113 104
3 94 103 60
5 60 69 83 79 103
3 40 88 60
3 65 60 69
5 60 88 79 80 65
5 85 83 70 94 103
3 87 85 103
5 69 87 103 93 70
3 79 93 103
3 70 94 66
3 94 108 80
3 87 9 69
3 9 82 63
5 93 99 87 9 82
3 9 88 79
3 83 40 85
3 40 66 63
5 63 80 108 88 40
3 70 83 69
3 80 79 83
5 66 99 108 82 63
3 63 80 65
3 87 99 66
3 82 93 70
3 85 108 82
3 88 108 99
3 93 99 65
3 5 78 0
5 46 97 10 78 0
3 36 90 0
3 0 46 35
3 7 78 9
5 5 78 7 97 53
3 90 97 7
3 7 114 96
5 53 46 9 78 8
3 8 78 10
3 8 35 61
5 8 35 46 88 10
5 61 8 114 88 9
3 8 114 53
3 90 69 60
5 60 43 96 36 90
3 35 60 43
3 60 88 114
3 61 9 69
3 61 96 36
3 46 9 88
3 53 5 69
3 36 10 88
3 96 5 43
3 53 97 46
3 43 97 10
3 73 90 57
5 59 37 36 90 57
3 32 57 40
5 40 36 77 80 57
3 57 80 59
3 73 91 70
3 73 77 85
3 90 31 69
3 36 90 79
3 32 37 31
5 69 31 25 91 70
3 31 25 85
3 36 61 40
5 40 61 27 80 89
3 59 69 61
3 25 61 27
3 85 40 89
3 27 70 32
3 69 89 70
3 37 77 36
3 59 37 91
5 89 70 27 25 85
3 25 91 79
3 79 89 80
3 77 27 80
3 60 57 94
3 38 57 32
5 57 38 43 106 52
3 59 52 57
3 69 60 33
3 43 112 60
3 70 94 67
3 98 106 94
3 32 23 70
3 32 33 41
3 69 5 59
3 70 54 69
3 38 5 43
5 5 59 52 112 43
3 23 26 5
3 38 98 54
3 41 67 59
3 33 26 98
3 54 112 52
3 41 106 43
3 23 52 106
3 67 112 26
3 11 78 2
5 5 71 47 2 78
3 2 50 31
3 91 2 47
3 23 68 11
3 48 82 11
3 14 78 9
3 19 5 78
5 31 50 70 23 68
3 31 69 5
3 31 68 25
5 9 82 48 28 14
3 9 69 47
5 25 9 69 28 19
3 82 25 9
3 50 14 71
3 14 68 28
3 82 70 50
3 70 69 28
3 5 71 23
3 48 71 47
3 19 25 91
3 91 70 23
3 48 28 19
3 60 103 90
3 40 33 60
5 40 60 104 102 36
3 60 104 43
5 103 90 31 96 119
3 102 103 85
3 103 119 98
3 38 31 90
3 90 36 101
5 90 38 43 119 101
5 38 31 22 119 98
3 22 85 31
3 31 96 33
3 36 58 40
5 58 30 104 86 40
5 33 30 102 85 40
3 86 40 85
5 104 43 58 36 101
3 96 102 36
5 86 101 22 58 38
3 43 38 58
3 22 30 58
3 38 98 86
5 85 22 30 98 86
3 33 30 98
3 43 119 96
3 101 22 119
3 86 101 104
3 30 102 104
3 16 78 7
3 31 7 87
5 5 26 119 7 31
3 97 7 119
5 14 53 110 16 78
3 26 68 16
5 14 68 16 118 87
3 118 110 16
3 14 4 78
5 97 110 15 78 4
3 15 78 5
3 5 31 38
3 22 31 68
5 14 29 110 118 4
3 29 68 14
3 53 87 14
3 38 97 4
3 22 118 4
5 5 15 119 97 38
3 5 26 53
3 38 98 29
5 29 68 22 118 98
3 87 118 98
3 22 119 15
3 97 110 53
3 29 110 15
3 98 119 26
3 60 114 103
3 43 95 60
3 65 92 60
5 114 26 67 93 103
3 93 103 54
3 105 119 103
3 26 114 53
5 65 53 114 115 93
3 116 114 115
3 52 95 54
5 95 52 105 119 43
3 67 95 26
3 54 97 53
3 49 65 53
3 67 93 65
5 49 43 97 92 52
3 92 105 52
3 97 115 92
3 49 111 52
3 49 116 43
3 97 43 119
3 93 115 111
3 105 116 67
3 111 26 119
3 90 103 73
3 73 70 50
3 73 52 109
5 69 95 112 103 90
3 98 103 87
3 93 103 112
3 47 90 69
5 52 112 97 90 47
3 38 97 90
3 50 71 38
5 71 50 84 109 56
3 87 84 50
3 70 95 69
3 69 87 53
3 52 47 71
3 47 93 84
5 71 38 97 109 52
3 53 71 56
3 95 38 98
3 56 93 70
5 56 93 84 87 53
3 95 112 52
3 84 109 97
3 97 112 53
3 98 56 109
3 3 20 8
5 20 3 21 18 117
3 3 58 21
5 58 10 117 75 3
3 6 75 3
5 8 24 18 81 20
3 61 24 8
5 8 116 81 6 61
3 10 116 8
3 20 81 27
3 20 117 30
5 77 117 30 58 21
3 21 18 24
3 21 77 27
3 36 6 61
5 41 116 102 36 61
3 61 41 27
3 36 10 58
5 75 116 10 36 6
3 77 36 102
3 41 58 30
3 6 81 18
3 24 102 30
5 30 102 77 27 41
3 10 117 18
3 75 41 116
3 75 77 117
3 81 116 102
3 7 114 16
5 93 84 7 16 111
5 79 93 112 114 7
3 84 97 7
3 7 79 13
5 7 97 112 111 13
5 93 81 16 114 99
3 18 16 81
5 99 84 18 16 110
3 111 110 16
3 99 88 114
5 79 81 116 114 88
3 112 116 114
3 18 74 84
3 93 99 84
3 10 88 18
5 18 81 113 99 88
3 79 92 88
5 10 110 113 74 18
5 13 116 112 92 79
3 79 81 93
5 10 97 92 74 13
3 92 97 112
3 74 113 92
3 13 116 10
3 74 111 13
3 10 110 97
3 99 113 110
3 93 112 111
3 116 113 81
3 11 20 76
5 11 76 109 118 22
5 11 20 110 118 18
3 15 22 11
3 11 18 74
5 109 74 11 15 110
5 108 76 20 30 118
3 76 108 77
5 30 106 76 77 22
3 76 106 109
3 30 20 39
5 113 20 39 18 108
3 110 113 20
3 10 39 18
3 77 39 75
5 104 30 39 77 108
5 10 104 113 75 39
3 77 101 22
5 22 15 106 109 101
3 22 118 30
3 108 18 118
5 77 75 106 104 101
5 74 75 15 10 101
3 15 10 110
3 15 106 75
3 101 10 104
3 75 74 113
3 74 109 101
3 104 113 108
3 106 104 30
3 109 118 110
3 2 7 84
5 2 91 111 119 7
3 11 22 2
5 2 84 109 111 11
5 73 109 119 22 2
3 2 91 73
3 16 25 7
5 25 91 93 103 7
3 103 119 7
5 84 118 16 11 82
3 16 111 11
3 76 11 82
3 85 103 73
5 73 91 34 119 103
5 73 85 22 34 76
3 76 73 109
5 25 16 107 93 82
3 16 118 107
5 103 85 25 34 107
3 107 93 103
5 82 76 107 118 85
3 34 107 76
3 82 85 25
3 34 91 25
3 85 22 118
3 82 93 84
3 22 119 34
3 118 109 84
3 91 111 93
3 111 119 109
3 64 107 20
5 64 42 24 39 20
3 64 41 33
5 41 39 102 104 64
3 64 104 42
5 20 107 118 24 68
5 68 33 98 107 34
3 107 118 98
3 102 107 34
3 29 68 20
3 20 117 39
3 41 58 39
5 42 58 39 117 104
5 22 117 106 29 58
3 44 22 58
3 42 29 58
5 104 44 58 41 106
3 33 24 68
3 34 22 68
3 39 102 24
3 42 24 118
5 44 102 34 41 33
3 44 98 33
5 98 44 22 34 106
3 118 117 22
3 98 106 29
3 34 106 41
3 102 104 44
3 106 104 117
3 1 114 60
5 79 92 60 1 36
5 1 114 115 79 9
3 1 9 46
3 10 36 1
5 10 115 92 46 1
5 89 60 114 102 79
3 40 89 60
3 60 104 92
3 102 114 24
3 99 114 115
5 18 115 99 46 9
3 9 24 18
3 79 9 89
3 40 72 36
5 24 40 89 108 102
3 40 24 42
5 36 10 104 92 72
3 36 102 79
5 18 72 46 42 10
3 46 72 92
3 42 46 99
3 72 108 18
5 24 42 99 108 18
3 89 108 99
3 10 18 115
3 79 115 92
3 10 104 42
3 108 104 102
3 0 2 78
5 0 2 101 97 38
3 38 58 0
3 46 72 0
5 78 2 84 97 17
3 2 50 84
3 2 101 22
3 14 78 17
3 18 10 78
3 21 50 14
5 21 14 42 118 18
5 21 22 118 86 50
3 22 58 21
3 72 21 18
3 14 42 46
3 38 50 86
3 10 58 42
3 84 46 97
3 86 101 72
3 38 97 17
3 22 118 17
3 86 118 42
3 84 118 18
3 10 97 101
3 100 103 73
5 83 31 44 103 73
3 77 73 83
3 50 86 73
5 44 86 73 77 22
5 103 87 31 25 100
3 87 103 89
5 25 102 103 89 83
3 44 103 102
3 25 100 82
5 50 82 100 118 87
3 22 118 100
3 31 83 25
3 87 50 31
3 22 31 44
3 24 40 21
5 21 40 86 108 77
3 21 82 50
5 24 21 82 108 118
3 21 77 22
3 83 40 89
3 44 86 40
3 24 102 25
3 87 118 24
3 89 82 108
3 108 86 118
3 102 108 77
3 62 45 76
3 62 66 63
5 108 72 63 62 113
3 55 113 62
5 50 45 76 109 86
3 82 108 76
3 56 109 76
3 45 71 50
5 45 71 55 109 74
3 72 74 45
3 86 50 66
3 82 84 50
3 46 72 63
3 63 82 48
3 55 71 46
5 72 46 55 113 74
3 84 99 46
3 48 56 71
3 86 72 108
3 56 66 99
3 55 109 86
3 84 109 74
3 48 74 113
3 99 108 113
3 1 36 0
3 0 2 47
5 36 101 92 57 0
3 38 57 0
3 1 7 97
3 60 69 1
3 2 7 31
5 47 2 7 97 54
3 73 2 101
3 60 92 57
3 57 83 73
3 7 79 103
3 44 103 60
3 73 103 54
3 69 31 83
3 44 31 38
3 36 83 79
3 54 69 47
3 44 36 101
3 79 47 92
3 38 97 54
3 92 97 101
3 0 45 57
3 6 36 0
3 0 4 46
5 45 57 86 101 77
3 57 86 40
3 80 57 92
3 77 45 21
3 51 74 45
3 21 63 40
5 21 63 51 108 18
3 4 18 21
3 40 88 36
3 63 80 6
3 46 63 51
5 80 6 36 88 92
3 77 101 36
5 18 74 51 46 4
3 4 101 86
3 6 74 18
3 88 92 46
3 51 108 86
3 80 108 77
3 88 108 18
3 74 101 92
3 3 8 78
5 3 71 46 4 78
3 21 63 3
3 29 71 3
5 63 28 8 24 9
3 42 24 8
3 8 28 53
3 9 12 78
3 17 78 4
3 21 4 50
5 50 66 29 68 21
3 24 68 21
3 46 9 63
3 87 9 24
3 12 71 50
3 12 68 28
3 87 50 66
3 66 28 63
3 42 46 4
3 46 53 71
3 29 68 17
3 42 66 29
3 17 53 87
3 1 8 35
5 59 35 1 36 6
3 1 9 69
3 96 36 1
3 39 24 8
3 8 19 28
3 35 63 40
3 41 35 59
3 6 63 9
3 24 9 25
3 36 40 83
5 83 27 41 33 40
3 24 40 33
3 59 83 69
3 25 27 83
3 33 28 69
3 28 63 27
3 39 36 6
3 19 59 6
3 96 19 25
3 39 27 41
3 41 33 96
3 69 90 1
5 43 112 92 90 1
3 35 1 43
3 88 114 1
3 90 92 57
3 40 35 57
5 35 57 92 104 43
3 94 57 95
3 90 103 44
3 94 103 89
3 103 112 114
3 65 35 64
5 104 88 40 35 64
3 64 104 94
3 64 33 114
5 65 89 88 114 64
3 88 40 89
3 44 40 33
3 69 89 65
3 69 33 95
3 43 95 112
3 92 88 104
3 92 112 65
3 43 104 44
3 57 45 62
5 37 45 57 38 58
3 57 40 83
3 38 57 95
5 66 40 21 27 62
3 62 29 66
3 41 27 62
3 50 21 45
3 23 37 45
3 31 37 83
3 38 50 31
3 33 31 68
3 40 21 58
3 27 21 68
3 66 40 33
3 70 83 27
3 70 50 66
3 41 37 58
3 38 58 29
3 23 68 29
3 95 70 23
3 95 33 41
3 57 35 62
3 38 57 86
3 52 92 57
3 29 106 62
3 51 113 62
3 42 35 46
3 35 49 43
3 51 71 46
5 51 113 110 42 46
3 92 46 97
3 38 71 29
3 52 71 49
3 43 97 38
3 51 109 86
3 42 104 86
3 29 42 110
3 113 104 92
3 52 109 106
3 113 110 49
3 109 110 97
3 104 43 106
3 62 94 57
5 94 57 83 77 105
3 59 83 57
3 72 57 92
5 57 92 105 75 59
5 62 27 77 108 94
3 63 62 27
3 75 113 62
3 89 108 94
3 67 94 105
5 83 59 67 105 79
3 89 79 83
3 77 27 83
3 72 6 63
5 63 65 113 81 6
5 89 63 27 81 108
3 63 89 65
5 92 113 75 6 72
3 59 75 6
3 81 6 79
3 72 77 108
3 65 59 67
3 67 81 27
3 92 113 65
3 77 105 75
3 92 79 105
3 113 81 108
3 3 20 11
3 3 6 63
5 6 3 49 113 74
3 3 71 49
5 20 56 51 82 11
3 12 11 82
5 12 71 56 111 11
3 74 111 11
3 20 56 28
3 81 113 20
3 12 71 47
5 111 19 12 47 93
3 12 28 19
3 65 28 63
3 63 51 82
3 47 6 74
3 19 6 81
5 49 71 47 74 111
3 65 47 93
3 51 71 56
5 81 93 65 28 19
3 82 93 81
3 51 113 74
3 49 65 113
3 19 111 49
3 93 111 56
3 57 45 73
3 59 95 57
3 57 92 55
5 45 73 109 106 23
3 73 105 91
3 54 73 109
3 23 71 45
3 75 74 45
3 54 71 47
3 59 47 91
3 74 92 47
3 55 71 49
5 59 91 105 112 95
3 59 49 75
3 95 112 54
3 95 23 106
3 23 111 91
3 92 105 112
3 106 109 55
3 112 111 49
3 109 74 111
3 105 75 106
3 1 5 78
3 90 36 1
3 1 46 35
3 2 78 4
3 90 2 47
3 2 45 37
3 3 6 78
3 35 58 3
5 6 3 35 46 72
3 3 45 71
3 38 57 90
3 57 59 35
3 72 45 57
3 36 37 58
3 36 6 72
3 5 37 59
3 38 58 4
3 4 46 72
3 38 71 5
3 47 6 59
3 47 71 46
3 8 114 16
3 61 39 8
3 8 14 42
5 18 39 8 42 88
5 16 114 87 9 25
3 25 16 68
3 16 118 18
3 87 114 33
5 61 33 114 102 25
3 102 114 88
3 14 68 21
3 21 40 85
5 85 21 68 30 118
3 39 21 18
3 9 25 61
3 61 40 33
3 14 87 9
3 18 88 9
3 42 40 88
3 33 30 68
3 85 25 102
3 85 118 87
3 39 102 30
3 42 118 30
3 3 62 35
3 14 21 3
3 3 48 6
3 62 66 51
3 80 62 27
3 35 61 40
3 65 35 46
3 21 40 72
3 21 27 82
3 9 61 6
3 28 61 27
3 14 9 46
3 82 89 9
3 14 28 66
3 89 40 66
3 80 6 72
3 46 72 51
3 80 89 65
3 65 48 28
3 51 48 82
3 2 100 11
5 17 119 100 2 31
3 37 31 2
5 101 2 37 15 119
3 4 2 101
5 17 118 100 11 68
3 21 68 11
5 21 4 118 117 11
3 11 117 15
3 100 118 85
3 34 119 100
5 119 44 31 37 34
3 17 68 31
3 85 44 31
3 21 4 58
3 77 85 21
3 15 37 58
3 77 37 34
5 101 4 58 15 117
3 30 58 44
3 4 118 17
3 34 68 30
5 34 77 85 44 30
3 17 119 15
3 44 119 101
3 77 117 101
3 117 30 118
3 7 114 1
5 61 1 114 116 19
3 61 36 1
5 13 116 43 1 36
3 1 5 43
5 7 114 26 19 25
3 25 7 31
3 7 13 119
3 26 33 114
3 116 102 114
3 31 5 37
3 33 44 31
3 61 19 25
3 41 33 61
3 36 13 37
3 44 102 36
5 37 13 119 43 5
3 37 34 41
3 19 5 26
3 34 25 102
3 13 19 116
3 43 116 41
3 44 119 43
3 26 34 119
3 79 90 7
5 7 90 54 112 119
5 54 93 100 7 87
3 100 119 7
3 87 114 7
3 60 90 44
5 79 90 60 112 105
3 89 94 60
3 60 114 112
3 73 90 54
5 44 90 73 105 119
3 73 105 94
3 73 85 100
3 94 107 98
5 85 102 107 94 89
3 107 100 93
5 85 100 107 98 87
5 87 89 93 107 114
3 107 102 114
3 87 89 85
3 79 93 89
3 44 85 102
3 54 98 87
3 93 54 112
3 98 44 119
3 102 105 79
3 105 112 119
3 1 90 7
3 46 53 1
3 10 1 43
3 7 115 84
3 7 119 17
3 54 38 90
3 92 101 90
3 4 46 84
5 46 4 10 110 55
3 4 17 38
5 4 84 109 110 17
3 10 101 4
5 53 46 84 115 110
3 46 92 55
3 38 43 55
3 54 109 84
3 53 112 54
3 17 110 53
3 112 115 92
3 110 55 109
3 10 110 115
3 101 119 109
3 112 119 43
3 2 78 7
5 74 111 15 78 2
3 37 91 2
3 74 101 2
5 19 111 115 7 78
3 7 119 96
3 7 79 115
3 19 78 6
5 10 78 6 74 115
3 15 78 10
3 36 37 96
5 36 101 105 75 37
3 36 6 79
5 79 105 116 96 36
3 36 101 10
5 37 96 119 105 91
3 15 75 37
5 115 79 6 19 116
3 75 6 74
3 96 116 19
3 91 19 111
3 79 91 105
3 111 15 119
3 116 10 115
3 111 74 115
3 105 75 116
3 101 119 105
3 90 103 7
3 9 25 7
5 9 47 93 115 7
3 7 115 13
5 105 91 83 90 103
3 93 103 89
3 103 102 105
3 83 36 90
5 13 105 92 90 36
3 90 47 92
3 9 47 6
5 88 9 6 81 115
5 93 81 25 9 89
3 88 89 9
5 83 80 105 102 36
3 83 25 91
3 83 80 89
3 13 36 6
3 88 102 36
5 6 47 92 115 13
3 80 6 81
3 91 47 93
3 25 102 81
5 88 89 80 81 102
3 92 105 80
3 92 115 88
3 91 13 105
3 115 93 81
3 76 94 107
5 77 85 86 94 76
3 51 82 76
3 76 117 77
3 99 118 107
3 102 107 81
3 94 89 80
3 94 104 86
5 77 102 104 94 80
3 72 86 51
5 104 86 72 77 117
5 80 113 104 88 72
3 72 80 77
3 72 88 18
5 113 51 72 18 117
3 82 85 89
3 89 99 88
3 86 118 85
3 77 102 85
5 99 51 82 18 118
3 18 82 81
3 80 81 113
3 102 104 88
3 99 51 113
3 118 18 117
3 117 113 104
3 7 100 2
5 54 109 100 2 50
3 4 50 2
5 97 4 2 74 109
3 2 47 74
3 7 9 87
3 115 97 7
3 82 100 93
3 118 100 109
3 46 9 47
3 18 82 9
3 54 87 50
3 51 82 50
3 97 46 4
3 4 18 118
5 115 74 47 46 97
3 46 99 51
3 54 93 47
3 87 118 99
3 54 109 97
3 51 109 74
3 74 18 115
3 99 115 93
3 7 17 78
3 7 25 100
5 17 26 111 100 7
3 7 114 115
3 18 78 11
5 78 11 111 110 17
3 20 11 68
3 100 111 11
3 8 78 19
5 115 18 78 8 110
3 20 110 8
3 24 8 114
5 8 114 115 81 19
3 81 107 20
5 107 26 68 25 100
3 100 107 118
3 107 114 26
5 81 25 24 114 107
3 24 68 25
3 26 68 17
3 24 18 118
3 19 25 81
3 26 111 19
3 81 115 18
3 110 118 17
3 111 110 115
3 60 90 57
5 57 90 101 105 52
3 72 80 57
3 55 52 57
3 60 88 104
3 65 112 60
3 47 90 79
3 97 101 90
3 46 65 47
3 88 72 46
5 46 65 113 115 88
3 46 97 55
3 52 74 47
3 74 101 72
3 80 65 113
3 80 105 79
3 88 79 115
3 112 105 52
3 55 113 104
3 115 97 112
3 113 74 115
3 105 101 104
3 60 35 1
5 10 116 49 35 1
3 5 96 1
3 1 10 97
3 60 112 95
3 44 104 60
3 41 35 58
5 58 10 104 55 35
3 55 49 35
3 38 58 44
3 10 58 15
3 5 95 38
5 5 95 112 119 96
3 5 49 15
3 55 38 97
3 41 116 96
3 96 119 44
3 95 41 106
3 104 55 106
3 15 119 106
3 116 10 104
3 112 116 49
3 119 112 97
3 8 35 64
3 14 8 24
3 10 110 8
3 64 66 99
3 64 30 104
3 40 58 35
3 55 35 46
3 14 46 4
3 29 66 14
3 24 40 88
3 86 40 66
3 4 58 10
3 29 30 58
3 86 118 4
3 46 99 88
3 30 118 24
3 86 104 55
3 10 104 88
3 29 110 55
3 110 118 99
3 107 114 64
3 64 42 66
3 64 65 113
3 93 56 107
3 108 118 107
3 87 114 53
3 88 114 115
3 51 46 84
3 46 65 53
3 46 88 42
3 87 89 66
3 89 108 88
3 93 65 89
3 56 51 66
3 84 87 118
3 93 115 84
3 53 56 110
3 108 113 51
3 110 118 42
3 115 113 110
3 2 101 90
3 50 45 2
5 45 2 101 109 52
3 2 100 91
3 83 90 57
3 45 57 52
3 86 94 57
3 90 103 54
3 103 94 105
3 100 103 85
3 77 45 76
3 70 94 76
5 50 70 76 100 85
3 76 100 109
3 70 91 83
3 83 85 77
3 54 50 70
3 85 50 86
3 86 109 101
3 91 105 52
3 54 109 52
3 101 105 77
3 76 100 11
3 11 21 18
3 11 48 12
5 11 48 51 84 18
3 70 76 27
5 21 85 108 76 27
3 51 108 76
3 85 25 100
5 25 12 70 93 100
3 93 100 84
3 21 50 85
3 27 63 21
3 12 9 25
3 63 89 9
3 18 84 9
3 12 70 50
3 51 84 50
3 48 63 51
3 27 81 25
3 93 70 89
3 89 108 85
3 48 93 81
3 81 108 18
3 73 2 100
5 111 23 12 2 100
3 12 47 2
3 13 37 2
5 13 111 52 47 2
5 73 100 34 23 70
3 83 73 70
5 83 73 105 34 37
3 52 105 73
3 34 100 25
3 93 100 111
3 12 25 19
3 12 70 23
3 59 37 83
3 25 79 83
5 59 52 105 13 37
3 23 37 34
3 47 59 52
3 79 93 47
3 19 67 59
5 79 25 19 67 93
3 67 93 70
3 13 111 19
3 23 111 52
3 13 105 79
3 34 105 67
3 9 78 1
5 1 78 13 115 97
3 90 1 97
3 1 114 96
3 13 2 78
3 2 31 90
5 2 13 119 97 90
3 2 100 84
3 17 16 78
5 9 84 115 16 78
3 16 100 25
5 17 87 84 100 16
3 115 114 16
3 90 103 79
3 100 103 119
3 114 103 87
5 79 103 114 96 25
3 31 25 96
3 31 17 87
3 79 9 25
3 87 9 84
3 96 119 13
3 97 84 115
3 17 119 97
3 79 13 115
3 11 16 78
3 21 82 11
3 11 117 74
3 24 118 16
3 81 115 16
3 9 78 6
3 4 10 78
3 21 72 4
5 117 39 21 72 108
3 24 39 21
3 88 9 24
3 84 82 9
5 4 72 74 117 10
3 84 118 4
3 74 72 6
3 81 6 39
3 88 108 72
5 39 24 88 108 81
3 81 108 82
3 10 117 39
3 84 74 115
3 10 115 88
3 117 108 118
3 10 78 1
3 61 35 1
3 53 114 1
3 3 14 78
5 49 110 10 78 3
3 3 49 35
3 39 20 3
3 16 78 19
3 16 110 20
3 24 16 114
5 16 114 53 28 19
3 35 64 42
5 61 35 64 116 39
3 20 28 64
3 114 116 64
3 39 24 61
3 61 28 19
3 24 42 14
3 14 53 28
3 10 116 39
3 53 110 49
3 49 116 19
3 10 110 42
3 12 78 2
3 2 74 45
3 2 100 22
3 15 78 3
3 21 45 3
5 3 15 117 74 45
3 3 20 48
3 16 78 18
5 12 78 16 111 48
3 20 16 68
5 16 18 82 48 20
3 16 100 111
3 23 45 76
5 76 45 21 22 117
3 20 76 117
3 82 100 76
5 22 68 23 76 100
3 22 68 21
3 21 18 82
3 12 23 68
3 48 82 12
3 22 117 15
3 48 74 111
3 74 117 18
3 23 111 15
3 73 76 45
3 73 83 85
3 101 105 73
3 34 27 76
3 108 76 117
3 21 45 72
3 75 45 37
5 72 101 117 75 45
3 21 85 22
3 21 27 39
3 37 83 36
3 83 27 80
3 72 101 36
3 36 102 39
3 22 37 34
3 80 72 108
3 102 85 108
5 108 102 39 27 80
3 39 117 75
3 101 22 117
3 80 75 105
3 34 105 102
3 1 78 8
3 88 36 1
3 43 1 97
3 39 116 8
3 8 110 42
3 4 78 18
3 13 15 78
3 36 39 58
5 39 116 104 88 36
3 13 36 101
3 4 58 42
3 15 58 43
5 4 18 117 110 42
3 4 97 101
3 18 39 117
3 88 18 115
3 42 88 104
5 13 101 97 43 15
3 110 117 15
3 116 13 115
3 97 110 115
3 101 117 104
3 43 104 116
3 16 100 107
3 16 24 18
3 16 110 17
3 108 99 107
5 24 85 108 107 30
3 98 30 107
3 22 85 100
5 22 100 109 98 17
3 84 109 100
5 4 86 109 117 22
3 17 22 4
3 4 86 42
3 18 84 4
3 87 24 85
3 30 24 42
3 85 108 86
3 84 99 87
3 17 87 98
3 30 117 22
3 98 109 86
3 117 18 108
3 99 110 42
3 110 117 109
3 2 90 73
3 4 2 22
3 2 13 74
3 73 109 86
3 73 105 77
3 44 90 36
3 92 97 90
3 72 36 77
5 105 77 36 44 104
3 10 36 13
3 86 72 4
3 4 10 97
3 74 72 92
3 44 22 119
3 22 117 77
3 86 104 44
3 105 92 104
3 119 13 105
3 117 10 104
3 109 119 97
3 117 74 109
3 7 100 103
3 7 96 13
3 7 97 17
5 34 26 98 103 100
3 98 44 103
5 103 44 96 34 105
3 105 112 103
3 34 100 22
3 109 100 111
3 43 96 44
5 13 105 112 43 96
3 26 96 34
3 17 22 15
3 22 101 44
3 26 98 17
3 15 13 111
3 43 106 15
3 13 105 101
3 109 97 101
3 97 112 43
3 106 109 98
3 106 105 34
3 111 112 26
3 103 107 114
3 44 103 85
3 103 105 79
3 107 81 108
3 34 107 30
3 88 114 24
3 114 116 96
3 39 77 36
3 44 96 36
3 36 88 79
3 24 85 25
3 24 39 30
3 25 96 34
3 79 25 81
3 77 108 85
3 39 116 81
3 108 104 88
3 44 104 30
3 77 105 34
3 105 104 116
3 16 107 20
3 19 25 16
5 48 19 16 115 93
3 18 115 16
5 107 20 27 82 108
3 67 93 107
5 27 25 102 107 67
3 107 102 108
3 20 27 39
3 48 113 20
5 6 80 113 116 39
3 6 39 18
3 80 6 79
3 19 48 6
5 6 18 115 113 48
3 25 82 27
3 79 25 102
3 67 80 27
3 48 82 93
3 82 18 108
3 102 116 39
5 79 80 67 116 102
3 80 113 108
3 67 116 19
3 79 93 115
3 116 115 113
3 11 45 2
3 84 2 47
3 2 101 13
5 45 51 109 117 11
3 11 111 48
3 18 117 11
3 51 45 72
3 52 75 45
3 48 6 47
3 6 72 18
3 6 75 13
3 52 47 92
3 72 101 92
3 51 109 84
3 84 18 115
3 48 113 51
5 75 13 101 92 52
3 113 115 92
3 111 52 109
3 111 13 115
3 117 75 113
3 117 109 101
3 16 81 20
5 16 100 93 56 26
3 16 100 118
3 26 16 114
3 98 103 94
5 34 102 103 94 67
3 100 93 103
3 103 102 114
3 67 94 64
3 20 64 30
3 99 114 64
5 67 81 102 114 64
3 76 94 108
5 34 30 98 94 76
3 20 76 56
3 34 76 100
3 56 99 93
3 56 98 26
3 99 108 118
3 67 81 93
3 34 67 26
3 102 108 81
3 98 118 30
3 34 102 30
3 94 103 73
5 77 34 106 94 73
3 73 91 52
3 73 101 77
3 79 103 102
3 103 119 112
3 67 80 94
3 106 94 104
3 75 77 80
3 79 92 80
3 79 91 13
5 52 112 119 13 91
3 34 91 67
3 34 102 77
3 92 52 112
3 101 104 92
3 75 52 106
3 75 116 13
3 13 119 101
3 112 116 67
3 119 106 34
3 102 104 116
3 11 45 23
3 11 117 20
3 11 100 82
5 23 11 100 109 56
3 73 77 45
3 70 94 73
3 73 100 109
3 51 45 62
5 106 62 45 77 117
3 62 94 106
3 27 62 20
3 108 107 94
5 27 70 94 107 34
3 20 107 56
3 100 34 107
3 27 82 70
3 23 70 56
3 34 27 77
3 51 82 108
3 56 109 51
3 117 108 77
3 23 106 34
3 117 106 109
3 76 45 11
5 76 56 29 68 11
3 11 68 12
3 11 111 15
3 70 76 56
3 76 106 34
3 32 45 37
5 37 45 52 106 15
3 52 71 45
3 5 71 12
5 12 91 111 26 5
3 12 70 91
5 32 95 106 34 37
3 32 29 68
3 70 95 32
3 15 5 37
3 34 37 91
5 15 111 52 71 5
3 95 26 5
3 56 71 29
3 34 68 26
5 26 34 91 70 95
3 95 52 106
3 29 106 15
3 52 111 91
3 26 111 56
3 64 107 94
5 28 64 107 81 27
3 64 65 28
3 64 41 116
3 107 81 93
3 34 107 26
3 94 70 95
5 94 105 34 41 95
3 94 105 80
3 41 95 59
3 59 80 65
5 80 59 41 116 105
3 19 91 59
5 59 19 116 112 65
3 27 70 28
3 93 91 70
3 81 27 80
3 34 27 41
3 26 19 28
3 26 95 112
5 91 19 26 112 93
3 91 105 34
3 93 65 112
3 19 116 81
3 116 105 112
3 3 45 62
5 113 62 3 39 117
3 3 39 6
3 3 49 15
3 80 113 62
3 41 106 62
3 37 45 77
3 52 74 45
3 41 37 59
5 37 41 106 105 77
3 13 37 15
3 80 6 59
5 49 59 6 13 116
3 13 74 6
3 52 59 49
3 41 39 116
3 39 117 77
3 80 77 105
5 15 49 52 74 13
3 105 52 106
3 15 117 106
3 116 13 105
3 113 49 116
3 117 74 113
3 8 16 78
5 48 81 16 8 28
3 8 28 61
3 8 116 49
3 25 16 81
3 26 16 111
3 12 78 5
5 49 111 13 78 5
3 13 78 6
3 61 6 59
5 59 67 116 96 61
3 25 61 96
3 12 91 25
3 12 28 48
3 49 59 5
3 5 26 96
3 81 6 48
3 91 67 59
5 67 26 96 25 91
3 26 28 67
3 96 116 13
3 48 49 111
3 13 111 91
3 81 116 67
3 3 78 11
5 11 117 110 29 3
3 3 29 58
3 3 49 75
3 22 11 117
3 23 111 11
3 5 78 17
3 13 78 10
3 37 58 22
5 75 106 43 58 37
3 23 5 37
5 22 119 106 23 37
3 37 13 75
3 43 10 58
5 5 23 111 119 17
3 49 5 43
3 17 22 119
3 29 17 110
3 23 106 29
5 13 75 49 43 10
3 119 13 111
3 117 10 110
3 111 110 49
3 117 75 106
3 106 119 43
3 64 35 62
5 39 27 62 64 30
3 32 27 62
3 62 106 75
3 33 64 30
3 64 67 116
3 61 59 35
3 43 35 58
5 35 59 75 116 43
3 27 39 61
3 33 96 61
3 32 58 37
3 33 95 32
3 37 59 75
3 96 37 34
3 30 58 39
3 95 67 59
3 27 67 34
5 67 34 96 33 95
3 75 39 116
3 96 43 116
3 95 106 43
3 34 106 30
3 64 8 114
5 8 39 81 113 64
3 10 8 39
3 8 19 49
3 64 67 41
3 64 113 104
3 96 102 114
5 19 96 114 112 67
3 112 115 114
3 39 75 41
3 39 102 81
3 13 19 96
3 43 96 41
5 67 105 102 96 41
5 112 49 19 13 115
3 67 81 19
5 41 43 104 105 75
3 10 115 13
3 75 13 105
3 43 104 10
3 49 113 75
3 49 43 112
3 105 112 67
3 105 104 102
3 115 113 81
3 76 94 62
5 30 117 76 62 29
3 29 62 55
3 62 75 41
3 34 76 23
3 109 76 117
3 94 98 95
3 105 104 94
3 41 95 43
3 52 95 23
5 95 23 34 119 98
3 23 15 29
3 29 30 98
3 34 41 30
5 52 109 119 15 23
5 55 43 15 75 52
3 55 52 109
3 52 105 75
3 55 104 43
3 15 75 117
3 43 119 15
3 98 119 109
3 105 34 119
3 30 104 117
3 107 114 16
5 16 68 28 56 107
3 17 16 68
3 19 111 16
3 56 107 98
3 34 107 67
3 33 114 96
3 112 114 53
3 19 96 5
3 23 95 5
5 19 111 112 53 5
3 5 53 17
3 33 68 28
3 34 68 23
3 95 33 98
3 56 53 28
3 67 19 28
3 96 119 34
3 67 112 95
3 98 119 17
3 23 56 111
3 111 119 112
3 3 35 8
5 8 110 113 48 3
3 3 71 48
3 3 75 15
3 53 110 8
3 19 116 8
3 65 35 59
3 35 55 43
3 5 71 53
3 5 59 19
3 5 43 15
3 55 71 52
3 75 59 52
3 48 113 65
3 48 111 19
3 53 112 65
3 52 112 111
3 55 113 110
3 110 111 15
3 113 75 116
3 112 43 116
3 76 100 107
5 76 27 68 30 107
3 76 77 27
3 76 23 106
3 67 107 26
3 102 107 30
3 91 100 25
3 22 119 100
5 23 91 100 119 26
3 41 96 37
3 22 77 37
3 23 91 37
3 27 25 68
3 22 30 68
3 26 23 68
3 96 25 102
3 27 41 67
3 26 119 96
3 67 105 91
3 30 41 106
3 102 77 105
3 105 119 106
3 11 16 100
5 48 11 16 110 56
3 11 48 74
3 11 23 15
3 19 26 16
3 16 110 115
3 93 100 91
3 100 109 119
3 49 19 48
3 48 56 93
3 13 91 19
3 52 23 91
3 23 26 56
3 52 112 49
3 74 109 52
3 13 119 15
3 49 110 15
3 74 115 13
3 110 109 56
3 112 93 115
3 26 112 119
3 11 48 3
3 3 39 8
3 3 62 29
3 11 68 16
3 76 117 11
3 16 110 8
3 8 28 64
3 64 62 113
3 76 62 27
3 16 107 81
3 64 107 30
3 56 107 76
3 28 68 27
3 30 68 29
3 39 27 81
3 56 48 28
3 30 117 39
3 48 113 81
3 56 110 29
3 113 110 117

# Cells
32 0 1 2 3 4 5 6 7 8 9 10 11 12 13 14 15 16 17 18 19 20 21 22 23 24 25 26 27 28 29 30 31
32 20 32 33 34 35 36 37 38 39 40 41 42 43 44 45 46 47 48 49 50 51 52 53 54 55 56 57 58 59 60 61 62
32 4 52 63 64 65 66 67 68 69 70 71 72 73 74 75 76 77 78 79 80 81 82 83 84 85 86 87 88 89 90 91 92
32 93 94 95 96 97 98 99 100 101 102 103 104 105 106 107 108 109 110 111 112 113 114 115 116 117 118 119 120 121 122 123 124
32 94 125 126 127 128 129 130 131 132 133 134 135 136 137 138 139 140 141 142 143 144 145 146 147 148 149 150 151 152 153 154 155
32 107 142 156 157 158 159 160 161 162 163 164 165 166 167 168 169 170 171 172 173 174 175 176 177 178 179 180 181 182 183 184 185
32 186 187 188 189 190 191 192 193 194 195 196 197 198 199 200 201 202 203 204 205 206 207 208 209 210 211 212 213 214 215 216 217
32 189 218 219 220 221 222 223 224 225 226 227 228 229 230 231 232 233 234 235 236 237 238 239 240 241 242 243 244 245 246 247 248
32 208 232 249 250 251 252 253 254 255 256 257 258 259 260 261 262 263 264 265 266 267 268 269 270 271 272 273 274 275 276 277 278
32 279 280 281 282 283 284 285 286 287 288 289 290 291 292 293 294 295 296 297 298 299 300 301 302 303 304 305 306 307 308 309 310
32 300 311 312 313 314 315 316 317 318 319 320 321 322 323 324 325 326 327 328 329 330 331 332 333 334 335 336 337 338 339 340 341
32 297 326 342 343 344 345 346 347 348 349 350 351 352 353 354 355 356 357 358 359 360 361 362 363 364 365 366 367 368 369 370 371
32 187 283 372 373 374 375 376 377 378 379 380 381 382 383 384 385 386 387 388 389 390 391 392 393 394 395 396 397 398 399 400 401
32 110 206 389 402 403 404 405 406 407 408 409 410 411 412 413 414 415 416 417 418 419 420 421 422 423 424 425 426 427 428 429 430
32 95 285 373 403 431 432 433 434 435 436 437 438 439 440 441 442 443 444 445 446 447 448 449 450 451 452 453 454 455 456 457 458
32 3 47 221 270 459 460 461 462 463 464 465 466 467 468 469 470 471 472 473 474 475 476 477 478 479 480 481 482 483 484 485 486
32 45 66 126 174 487 488 489 490 491 492 493 494 495 496 497 498 499 500 501 502 503 504 505 506 507 508 509 510 511 512 513 514
32 10 80 318 362 515 516 517 518 519 520 521 522 523 524 525 526 527 528 529 530 531 532 533 534 535 536 537 538 539 540 541 542
32 128 346 543 544 545 546 547 548 549 550 551 552 553 554 555 556 557 558 559 560 561 562 563 564 565 566 567 568 569 570 571 572
32 108 146 449 558 573 574 575 576 577 578 579 580 581 582 583 584 585 586 587 588 589 590 591 592 593 594 595 596 597 598 599 600
32 301 353 432 546 586 601 602 603 604 605 606 607 608 609 610 611 612 613 614 615 616 617 618 619 620 621 622 623 624 625 626 627
32 33 157 250 460 488 628 629 630 631 632 633 634 635 636 637 638 639 640 641 642 643 644 645 646 647 648 649 650 651 652 653 654
32 14 224 329 467 533 655 656 657 658 659 660 661 662 663 664 665 666 667 668 669 670 671 672 673 674 675 676 677 678 679 680 681
32 219 317 659 682 683 684 685 686 687 688 689 690 691 692 693 694 695 696 697 698 699 700 701 702 703 704 705 706 707 708 709 710
32 1 315 524 671 683 711 712 713 714 715 716 717 718 719 720 721 722 723 724 725 726 727 728 729 730 731 732 733 734 735 736 737
32 18 231 471 678 690 722 738 739 740 741 742 743 744 745 746 747 748 749 750 751 752 753 754 755 756 757 758 759 760 761 762 763
32 96 169 190 265 420 630 764 765 766 767 768 769 770 771 772 773 774 775 776 777 778 779 780 781 782 783 784 785 786 787 788 789
32 111 132 292 349 435 551 595 606 790 791 792 793 794 795 796 797 798 799 800 801 802 803 804 805 806 807 808 809 810 811 812 813
32 814 815 816 817 818 819 820 821 822 823 824 825 826 827 828 829 830 831 832 833 834 835 836 837 838 839 840 841 842 843 844 845
32 836 846 847 848 849 850 851 852 853 854 855 856 857 858 859 860 861 862 863 864 865 866 867 868 869 870 871 872 873 874 875 876
32 117 423 438 579 822 869 877 878 879 880 881 882 883 884 885 886 887 888 889 890 891 892 893 894 895 896 897 898 899 900 901 902
32 78 144 499 555 903 904 905 906 907 908 909 910 911 912 913 914 915 916 917 918 919 920 921 922 923 924 925 926 927 928 929 930
32 137 166 507 923 931 932 933 934 935 936 937 938 939 940 941 942 943 944 945 946 947 948 949 950 951 952 953 954 955 956 957 958
32 959 960 961 962 963 964 965 966 967 968 969 970 971 972 973 974 975 976 977 978 979 980 981 982 983 984 985 986 987 988 989 990
32 976 991 992 993 994 995 996 997 998 999 1000 1001 1002 1003 1004 1005 1006 1007 1008 1009 1010 1011 1012 1013 1014 1015 1016 1017 1018 1019 1020 1021
32 970 1012 1022 1023 1024 1025 1026 1027 1028 1029 1030 1031 1032 1033 1034 1035 1036 1037 1038 1039 1040 1041 1042 1043 1044 1045 1046 1047 1048 1049 1050 1051
32 368 556 612 1052 1053 1054 1055 1056 1057 1058 1059 1060 1061 1062 1063 1064 1065 1066 1067 1068 1069 1070 1071 1072 1073 1074 1075 1076 1077 1078 1079 1080
32 618 1073 1081 1082 1083 1084 1085 1086 1087 1088 1089 1090 1091 1092 1093 1094 1095 1096 1097 1098 1099 1100 1101 1102 1103 1104 1105 1106 1107 1108 1109 1110
32 99 161 407 767 847 881 1111 1112 1113 1114 1115 1116 1117 1118 1119 1120 1121 1122 1123 1124 1125 1126 1127 1128 1129 1130 1131 1132 1133 1134 1135 1136
32 827 1006 1137 1138 1139 1140 1141 1142 1143 1144 1145 1146 1147 1148 1149 1150 1151 1152 1153 1154 1155 1156 1157 1158 1159 1160 1161 1162 1163 1164 1165 1166
32 832 1147 1167 1168 1169 1170 1171 1172 1173 1174 1175 1176 1177 1178 1179 1180 1181 1182 1183 1184 1185 1186 1187 1188 1189 1190 1191 1192 1193 1194 1195 1196
32 829 856 1157 1192 1197 1198 1199 1200 1201 1202 1203 1204 1205 1206 1207 1208 1209 1210 1211 1212 1213 1214 1215 1216 1217 1218 1219 1220 1221 1222 1223 1224
32 979 1001 1038 1225 1226 1227 1228 1229 1230 1231 1232 1233 1234 1235 1236 1237 1238 1239 1240 1241 1242 1243 1244 1245 1246 1247 1248 1249 1250 1251 1252 1253
32 131 566 587 913 942 1247 1254 1255 1256 1257 1258 1259 1260 1261 1262 1263 1264 1265 1266 1267 1268 1269 1270 1271 1272 1273 1274 1275 1276 1277 1278 1279
32 851 936 1023 1230 1259 1280 1281 1282 1283 1284 1285 1286 1287 1288 1289 1290 1291 1292 1293 1294 1295 1296 1297 1298 1299 1300 1301 1302 1303 1304 1305 1306
32 307 385 439 613 1091 1307 1308 1309 1310 1311 1312 1313 1314 1315 1316 1317 1318 1319 1320 1321 1322 1323 1324 1325 1326 1327 1328 1329 1330 1331 1332 1333
32 64 348 520 544 904 1054 1334 1335 1336 1337 1338 1339 1340 1341 1342 1343 1344 1345 1346 1347 1348 1349 1350 1351 1352 1353 1354 1355 1356 1357 1358 1359
32 200 233 286 324 381 668 697 1360 1361 1362 1363 1364 1365 1366 1367 1368 1369 1370 1371 1372 1373 1374 1375 1376 1377 1378 1379 1380 1381 1382 1383 1384
32 115 139 177 582 867 879 946 1119 1267 1286 1385 1386 1387 1388 1389 1390 1391 1392 1393 1394 1395 1396 1397 1398 1399 1400 1401 1402 1403 1404 1405 1406
32 192 227 273 465 632 660 777 1370 1407 1408 1409 1410 1411 1412 1413 1414 1415 1416 1417 1418 1419 1420 1421 1422 1423 1424 1425 1426 1427 1428 1429 1430
32 973 1060 1349 1431 1432 1433 1434 1435 1436 1437 1438 1439 1440 1441 1442 1443 1444 1445 1446 1447 1448 1449 1450 1451 1452 1453 1454 1455 1456 1457 1458 1459
32 86 917 965 1339 1441 1460 1461 1462 1463 1464 1465 1466 1467 1468 1469 1470 1471 1472 1473 1474 1475 1476 1477 1478 1479 1480 1481 1482 1483 1484 1485 1486
32 821 872 995 1035 1155 1215 1228 1289 1487 1488 1489 1490 1491 1492 1493 1494 1495 1496 1497 1498 1499 1500 1501 1502 1503 1504 1505 1506 1507 1508 1509 1510
32 442 593 620 824 888 1089 1314 1511 1512 1513 1514 1515 1516 1517 1518 1519 1520 1521 1522 1523 1524 1525 1526 1527 1528 1529 1530 1531 1532 1533 1534 1535
32 17 42 477 753 1536 1537 1538 1539 1540 1541 1542 1543 1544 1545 1546 1547 1548 1549 1550 1551 1552 1553 1554 1555 1556 1557 1558 1559 1560 1561 1562 1563
32 1008 1154 1564 1565 1566 1567 1568 1569 1570 1571 1572 1573 1574 1575 1576 1577 1578 1579 1580 1581 1582 1583 1584 1585 1586 1587 1588 1589 1590 1591 1592 1593
32 1582 1594 1595 1596 1597 1598 1599 1600 1601 1602 1603 1604 1605 1606 1607 1608 1609 1610 1611 1612 1613 1614 1615 1616 1617 1618 1619 1620 1621 1622 1623 1624
32 1565 1595 1625 1626 1627 1628 1629 1630 1631 1632 1633 1634 1635 1636 1637 1638 1639 1640 1641 1642 1643 1644 1645 1646 1647 1648 1649 1650 1651 1652 1653 1654
32 981 1032 1481 1655 1656 1657 1658 1659 1660 1661 1662 1663 1664 1665 1666 1667 1668 1669 1670 1671 1672 1673 1674 1675 1676 1677 1678 1679 1680 1681 1682 1683
32 1063 1094 1433 1684 1685 1686 1687 1688 1689 1690 1691 1692 1693 1694 1695 1696 1697 1698 1699 1700 1701 1702 1703 1704 1705 1706 1707 1708 1709 1710 1711 1712
32 322 358 518 713 1070 1335 1450 1703 1713 1714 1715 1716 1717 1718 1719 1720 1721 1722 1723 1724 1725 1726 1727 1728 1729 1730 1731 1732 1733 1734 1735 1736
32 338 701 724 1699 1724 1737 1738 1739 1740 1741 1742 1743 1744 1745 1746 1747 1748 1749 1750 1751 1752 1753 1754 1755 1756 1757 1758 1759 1760 1761 1762 1763
32 394 409 448 830 890 1189 1327 1521 1764 1765 1766 1767 1768 1769 1770 1771 1772 1773 1774 1775 1776 1777 1778 1779 1780 1781 1782 1783 1784 1785 1786 1787
32 280 312 343 602 1053 1082 1308 1685 1714 1738 1788 1789 1790 1791 1792 1793 1794 1795 1796 1797 1798 1799 1800 1801 1802 1803 1804 1805 1806 1807 1808 1809
32 290 334 374 686 1324 1363 1753 1790 1810 1811 1812 1813 1814 1815 1816 1817 1818 1819 1820 1821 1822 1823 1824 1825 1826 1827 1828 1829 1830 1831 1832 1833
32 70 134 357 496 526 560 805 925 1342 1834 1835 1836 1837 1838 1839 1840 1841 1842 1843 1844 1845 1846 1847 1848 1849 1850 1851 1852 1853 1854 1855 1856
32 8 57 72 473 492 530 639 670 1420 1838 1857 1858 1859 1860 1861 1862 1863 1864 1865 1866 1867 1868 1869 1870 1871 1872 1873 1874 1875 1876 1877 1878
32 548 577 605 1058 1083 1226 1255 1514 1879 1880 1881 1882 1883 1884 1885 1886 1887 1888 1889 1890 1891 1892 1893 1894 1895 1896 1897 1898 1899 1900 1901 1902
32 104 140 180 500 644 768 799 1415 1844 1868 1903 1904 1905 1906 1907 1908 1909 1910 1911 1912 1913 1914 1915 1916 1917 1918 1919 1920 1921 1922 1923 1924
32 576 818 861 885 1236 1272 1291 1387 1502 1527 1885 1925 1926 1927 1928 1929 1930 1931 1932 1933 1934 1935 1936 1937 1938 1939 1940 1941 1942 1943 1944 1945
32 203 392 412 1185 1766 1946 1947 1948 1949 1950 1951 1952 1953 1954 1955 1956 1957 1958 1959 1960 1961 1962 1963 1964 1965 1966 1967 1968 1969 1970 1971 1972
32 197 259 416 783 1114 1960 1973 1974 1975 1976 1977 1978 1979 1980 1981 1982 1983 1984 1985 1986 1987 1988 1989 1990 1991 1992 1993 1994 1995 1996 1997 1998
32 406 817 863 895 1118 1181 1216 1772 1950 1990 1999 2000 2001 2002 2003 2004 2005 2006 2007 2008 2009 2010 2011 2012 2013 2014 2015 2016 2017 2018 2019 2020
32 281 313 344 516 656 791 1361 1408 1835 1858 1904 2021 2022 2023 2024 2025 2026 2027 2028 2029 2030 2031 2032 2033 2034 2035 2036 2037 2038 2039 2040 2041
32 22 76 539 721 1346 1446 1466 1723 2042 2043 2044 2045 2046 2047 2048 2049 2050 2051 2052 2053 2054 2055 2056 2057 2058 2059 2060 2061 2062 2063 2064 2065
32 100 198 296 386 425 445 771 801 1373 1418 1907 2029 2066 2067 2068 2069 2070 2071 2072 2073 2074 2075 2076 2077 2078 2079 2080 2081 2082 2083 2084 2085
32 13 728 747 1547 2054 2086 2087 2088 2089 2090 2091 2092 2093 2094 2095 2096 2097 2098 2099 2100 2101 2102 2103 2104 2105 2106 2107 2108 2109 2110 2111 2112
32 7 48 83 1462 1551 1676 2050 2097 2113 2114 2115 2116 2117 2118 2119 2120 2121 2122 2123 2124 2125 2126 2127 2128 2129 2130 2131 2132 2133 2134 2135 2136
32 992 1087 1138 1566 1690 2137 2138 2139 2140 2141 2142 2143 2144 2145 2146 2147 2148 2149 2150 2151 2152 2153 2154 2155 2156 2157 2158 2159 2160 2161 2162 2163
32 960 1013 1057 1101 1241 1440 1689 1880 2138 2164 2165 2166 2167 2168 2169 2170 2171 2172 2173 2174 2175 2176 2177 2178 2179 2180 2181 2182 2183 2184 2185 2186
32 741 1554 1616 1626 2089 2187 2188 2189 2190 2191 2192 2193 2194 2195 2196 2197 2198 2199 2200 2201 2202 2203 2204 2205 2206 2207 2208 2209 2210 2211 2212 2213
32 689 1632 1744 1824 2214 2215 2216 2217 2218 2219 2220 2221 2222 2223 2224 2225 2226 2227 2228 2229 2230 2231 2232 2233 2234 2235 2236 2237 2238 2239 2240 2241
32 1144 1174 1580 1645 2151 2237 2242 2243 2244 2245 2246 2247 2248 2249 2250 2251 2252 2253 2254 2255 2256 2257 2258 2259 2260 2261 2262 2263 2264 2265 2266 2267
32 1098 1320 1695 1747 1795 1826 2139 2216 2261 2268 2269 2270 2271 2272 2273 2274 2275 2276 2277 2278 2279 2280 2281 2282 2283 2284 2285 2286 2287 2288 2289 2290
32 1541 1596 1660 2091 2118 2191 2291 2292 2293 2294 2295 2296 2297 2298 2299 2300 2301 2302 2303 2304 2305 2306 2307 2308 2309 2310 2311 2312 2313 2314 2315 2316
32 815 1085 1158 1183 1311 1518 1779 2143 2253 2283 2317 2318 2319 2320 2321 2322 2323 2324 2325 2326 2327 2328 2329 2330 2331 2332 2333 2334 2335 2336 2337 2338
32 907 948 963 1043 1239 1257 1285 1478 1671 2339 2340 2341 2342 2343 2344 2345 2346 2347 2348 2349 2350 2351 2352 2353 2354 2355 2356 2357 2358 2359 2360 2361
32 563 910 971 1071 1243 1261 1345 1445 1473 1891 2172 2346 2362 2363 2364 2365 2366 2367 2368 2369 2370 2371 2372 2373 2374 2375 2376 2377 2378 2379 2380 2381
32 834 998 1105 1153 1232 1494 1531 1894 1933 2154 2176 2327 2382 2383 2384 2385 2386 2387 2388 2389 2390 2391 2392 2393 2394 2395 2396 2397 2398 2399 2400 2401
32 377 1168 1312 1768 1813 1947 2218 2243 2269 2318 2402 2403 2404 2405 2406 2407 2408 2409 2410 2411 2412 2413 2414 2415 2416 2417 2418 2419 2420 2421 2422 2423
32 204 236 384 695 1381 1819 1961 2226 2414 2424 2425 2426 2427 2428 2429 2430 2431 2432 2433 2434 2435 2436 2437 2438 2439 2440 2441 2442 2443 2444 2445 2446
32 195 241 271 1956 1984 2432 2447 2448 2449 2450 2451 2452 2453 2454 2455 2456 2457 2458 2459 2460 2461 2462 2463 2464 2465 2466 2467 2468 2469 2470 2471 2472
32 715 1435 1686 1717 1742 2046 2087 2473 2474 2475 2476 2477 2478 2479 2480 2481 2482 2483 2484 2485 2486 2487 2488 2489 2490 2491 2492 2493 2494 2495 2496 2497
32 693 731 744 1634 1755 2093 2195 2225 2482 2498 2499 2500 2501 2502 2503 2504 2505 2506 2507 2508 2509 2510 2511 2512 2513 2514 2515 2516 2517 2518 2519 2520
32 37 68 491 908 932 1464 1656 2114 2340 2521 2522 2523 2524 2525 2526 2527 2528 2529 2530 2531 2532 2533 2534 2535 2536 2537 2538 2539 2540 2541 2542 2543
32 223 254 463 742 1537 2188 2448 2544 2545 2546 2547 2548 2549 2550 2551 2552 2553 2554 2555 2556 2557 2558 2559 2560 2561 2562 2563 2564 2565 2566 2567 2568
32 239 700 757 1639 2198 2228 2429 2454 2506 2557 2569 2570 2571 2572 2573 2574 2575 2576 2577 2578 2579 2580 2581 2582 2583 2584 2585 2586 2587 2588 2589 2590
32 962 1448 1469 1667 2045 2104 2116 2300 2474 2591 2592 2593 2594 2595 2596 2597 2598 2599 2600 2601 2602 2603 2604 2605 2606 2607 2608 2609 2610 2611 2612 2613
32 977 1005 1454 1572 1707 2153 2174 2484 2603 2614 2615 2616 2617 2618 2619 2620 2621 2622 2623 2624 2625 2626 2627 2628 2629 2630 2631 2632 2633 2634 2635 2636
32 1585 1629 1701 1741 2147 2222 2252 2271 2479 2510 2623 2637 2638 2639 2640 2641 2642 2643 2644 2645 2646 2647 2648 2649 2650 2651 2652 2653 2654 2655 2656 2657
32 968 1010 1041 1569 1612 1678 2293 2608 2621 2658 2659 2660 2661 2662 2663 2664 2665 2666 2667 2668 2669 2670 2671 2672 2673 2674 2675 2676 2677 2678 2679 2680
32 1575 1609 1643 2108 2200 2308 2489 2515 2599 2618 2645 2663 2681 2682 2683 2684 2685 2686 2687 2688 2689 2690 2691 2692 2693 2694 2695 2696 2697 2698 2699 2700
32 1605 1641 2204 2467 2554 2586 2701 2702 2703 2704 2705 2706 2707 2708 2709 2710 2711 2712 2713 2714 2715 2716 2717 2718 2719 2720 2721 2722 2723 2724 2725 2726
32 1178 1628 1963 2233 2256 2404 2427 2451 2576 2715 2727 2728 2729 2730 2731 2732 2733 2734 2735 2736 2737 2738 2739 2740 2741 2742 2743 2744 2745 2746 2747 2748
32 996 1027 1142 1202 1490 1570 1600 2661 2749 2750 2751 2752 2753 2754 2755 2756 2757 2758 2759 2760 2761 2762 2763 2764 2765 2766 2767 2768 2769 2770 2771 2772
32 1141 1171 1209 1583 1615 1638 2250 2722 2743 2754 2773 2774 2775 2776 2777 2778 2779 2780 2781 2782 2783 2784 2785 2786 2787 2788 2789 2790 2791 2792 2793 2794
32 1172 1198 1951 1977 2002 2452 2705 2730 2774 2795 2796 2797 2798 2799 2800 2801 2802 2803 2804 2805 2806 2807 2808 2809 2810 2811 2812 2813 2814 2815 2816 2817
32 175 256 635 780 1126 1979 2818 2819 2820 2821 2822 2823 2824 2825 2826 2827 2828 2829 2830 2831 2832 2833 2834 2835 2836 2837 2838 2839 2840 2841 2842 2843
32 853 1123 1204 1993 2011 2807 2839 2844 2845 2846 2847 2848 2849 2850 2851 2852 2853 2854 2855 2856 2857 2858 2859 2860 2861 2862 2863 2864 2865 2866 2867 2868
32 253 1975 2462 2549 2711 2803 2825 2855 2869 2870 2871 2872 2873 2874 2875 2876 2877 2878 2879 2880 2881 2882 2883 2884 2885 2886 2887 2888 2889 2890 2891 2892
32 39 267 480 638 1543 2552 2828 2881 2893 2894 2895 2896 2897 2898 2899 2900 2901 2902 2903 2904 2905 2906 2907 2908 2909 2910 2911 2912 2913 2914 2915 2916
32 36 1539 1668 2129 2296 2525 2900 2917 2918 2919 2920 2921 2922 2923 2924 2925 2926 2927 2928 2929 2930 2931 2932 2933 2934 2935 2936 2937 2938 2939 2940 2941
32 55 163 505 643 938 2533 2830 2903 2926 2942 2943 2944 2945 2946 2947 2948 2949 2950 2951 2952 2953 2954 2955 2956 2957 2958 2959 2960 2961 2962 2963 2964
32 1026 1610 1658 2303 2668 2760 2936 2965 2966 2967 2968 2969 2970 2971 2972 2973 2974 2975 2976 2977 2978 2979 2980 2981 2982 2983 2984 2985 2986 2987 2988 2989
32 850 1040 1201 1293 1497 2762 2851 2981 2990 2991 2992 2993 2994 2995 2996 2997 2998 2999 3000 3001 3002 3003 3004 3005 3006 3007 3008 3009 3010 3011 3012 3013
32 953 1029 1298 1661 2351 2531 2931 2960 2972 3000 3014 3015 3016 3017 3018 3019 3020 3021 3022 3023 3024 3025 3026 3027 3028 3029 3030 3031 3032 3033 3034 3035
32 160 858 935 1112 1281 1398 2835 2857 2950 3005 3024 3036 3037 3038 3039 3040 3041 3042 3043 3044 3045 3046 3047 3048 3049 3050 3051 3052 3053 3054 3055 3056
32 1559 1602 2202 2305 2560 2707 2878 2911 2928 2978 3057 3058 3059 3060 3061 3062 3063 3064 3065 3066 3067 3068 3069 3070 3071 3072 3073 3074 3075 3076 3077 3078
32 1213 1599 2703 2750 2784 2798 2864 2887 2979 3004 3065 3079 3080 3081 3082 3083 3084 3085 3086 3087 3088 3089 3090 3091 3092 3093 3094 3095 3096 3097 3098 3099
32 2819 2845 2870 2894 2918 2943 2966 2991 3015 3037 3058 3080 3100 3101 3102 3103 3104 3105 3106 3107 3108 3109 3110 3111 3112 3113 3114 3115 3116 3117 3118 3119
20 50 295 461 487 545 682 751 792 919 1067 1372 1413 1444 1468 1752 1788 1915 2100 2115 2473
20 69 196 495 528 692 723 775 1375 1916 2027 2092 2125 2194 2458 2578 2820 2871 2917 2951 3069
20 16 101 476 534 559 772 803 1260 1344 1394 1423 1474 2028 2126 2345 2831 2895 2919 3026 3036
20 136 225 390 447 468 503 807 892 1377 1393 1873 1952 2005 2030 2459 2858 2869 2906 2944 3038
20 172 328 376 421 490 532 764 884 922 1069 1265 1323 1337 1362 1386 1422 1520 1791 1863 1884
20 262 356 414 434 459 517 714 755 766 804 1319 1754 1789 1865 1910 1959 2224 2403 2449 2574
20 113 303 453 475 650 675 705 1132 1777 1822 1918 2008 2040 2416 2564 2580 2735 2810 2829 2880
20 202 304 391 504 549 609 642 864 937 1269 1425 1523 1765 1851 1925 1986 2000 2032 2832 3042
20 98 191 419 523 543 590 669 684 1068 1084 1419 1517 1716 1757 1776 1846 1905 2277 2406 2437
20 27 81 112 149 212 235 673 947 1130 1552 1849 1985 2036 2076 2537 2563 2877 2927 3045 3112
20 44 65 186 264 282 360 628 1550 1713 1749 1811 1841 1912 2056 2075 2088 2436 2503 2544 2579
20 0 46 97 168 293 314 589 601 629 667 945 1066 1256 1416 1471 1715 2057 2071 2367 2522
20 67 125 431 584 665 711 916 1097 1318 1367 1438 1687 1750 1812 1859 1879 1913 2058 2077 2369
20 82 364 454 616 649 778 889 1129 1299 1355 1872 1898 1935 2039 2079 2350 2370 2539 2954 3044
20 151 213 365 562 779 838 1099 1131 1378 1396 1805 1823 1897 1919 1932 1962 2007 2041 2325 2418
20 127 171 218 261 321 355 712 749 765 798 915 1334 1369 1538 2052 2067 2123 2524 2899 2953
20 2 220 372 603 750 796 1065 1322 1336 1409 1698 1843 1867 2053 2073 2221 2270 2434 2478 2505
20 234 327 501 648 704 1353 1417 1472 1725 1845 2034 2197 2309 2490 2507 2536 2561 2598 2904 2925
20 12 332 378 634 727 776 1549 1816 1871 1958 1978 2026 2074 2189 2229 2499 2716 2727 2875 2905
20 129 173 222 269 331 345 592 604 631 663 887 1117 1325 1771 1810 1848 1870 1948 1983 2439
20 118 308 395 411 550 794 866 1077 1149 1186 1234 1273 1385 1489 1797 2001 2144 2177 2284 2408
20 883 982 1173 1279 1392 1535 1591 1892 2017 2150 2183 2335 2357 2678 2780 2844 2970 3018 3053 3097
20 427 446 508 568 773 813 828 909 1244 1500 1528 1890 1908 2010 2347 2837 2846 2942 2992 3029
20 91 143 513 571 997 1347 1402 1455 1493 1893 1940 2121 2181 2595 2672 2934 2946 2965 3002 3040
20 73 109 302 437 493 536 944 1095 1242 1389 1432 1475 1524 1727 1793 1917 1930 2023 2165 2339
20 569 626 1042 1150 1263 1351 1482 1487 1515 1574 1734 1800 1939 2286 2321 2344 2488 2607 2652 2662
20 121 209 399 450 787 1143 1391 1501 1530 1929 2331 2413 2468 2742 2779 2822 2873 2990 3049 3088
20 398 444 624 898 1000 1214 1491 1578 1708 1801 1830 1888 1938 1954 2004 2179 2219 2640 2740 2773
20 153 370 456 812 840 894 928 986 1004 1300 1329 1358 1400 1453 1499 1705 1808 2159 2328 2353
20 130 361 472 557 637 666 716 943 1443 1542 1672 1720 1914 2021 2098 2341 2363 2591 2923 2952
20 5 51 93 170 289 325 375 418 489 529 685 752 802 1836 1974 2435 2460 2548 2824 2902
20 56 251 422 574 809 862 886 924 1270 1290 1426 1837 1864 1976 2066 2526 2853 2907 3023 3102
20 54 159 354 538 588 793 961 1072 1240 1280 1397 1451 1670 1857 1881 1921 2044 2117 2949 3025
20 178 306 342 424 814 860 906 950 1075 1086 1116 1238 1284 1310 1778 1853 1906 2072 2368 2390
20 930 1080 1278 1305 1359 1507 1590 1711 1902 2065 2135 2161 2315 2400 2496 2543 2698 2771 2984 3033
20 305 316 525 591 790 905 964 1237 1258 1309 1476 1519 1758 1852 2060 2142 2281 2391 2475 2625
20 155 184 599 843 901 929 988 1016 1134 1219 1680 1899 2380 2398 2541 2766 2863 2963 2986 3118
20 583 627 874 880 974 1045 1061 1170 1217 1276 1287 1307 1586 1692 1784 2249 2287 2378 2633 2753
20 21 245 484 696 734 1571 2132 2236 2456 2483 2605 2651 2665 2732 2786 2885 2897 2921 2975 3079
20 479 497 540 730 743 926 969 1343 1452 1861 2196 2349 2481 2670 2692 2893 2957 2967 3016 3070
20 77 228 359 464 1338 1371 1442 1548 1696 1794 1820 1866 2024 2119 2187 2215 2577 2596 2638 2691
20 1166 1233 1459 1467 1495 1642 2112 2122 2155 2184 2210 2359 2485 2655 2794 2938 3013 3014 3062 3084
20 691 736 1009 1106 1146 1436 1614 1735 1799 1832 2095 2167 2193 2333 2411 2585 2606 2658 2741 2777
20 87 369 522 565 717 912 1007 1102 1248 1675 1760 1792 1882 2106 2113 2141 2342 2648 2660 2686
20 337 347 405 594 797 816 893 1074 1179 1360 1704 1740 1883 1949 2082 2146 2223 2251 2389 2440
20 179 252 291 575 810 819 859 1180 1328 1364 1388 1427 1525 1903 2407 2441 2464 2802 2826 2854
20 53 63 188 266 299 352 415 433 462 527 547 585 657 920 933 1111 1374 1395 2827 2948
20 103 238 335 617 699 769 808 891 1184 1424 1512 1798 1987 1999 2033 2230 2280 2319 2453 2733
20 114 138 333 380 878 1268 1348 1691 1728 1774 1814 1850 1926 2031 2080 2169 2279 2317 2372 2392
20 388 452 535 561 706 726 806 1354 1376 1447 1522 1895 2038 2156 2171 2227 2326 2419 2493 2647
20 24 75 106 148 210 230 383 451 470 498 554 611 647 703 720 774 1352 1722 1802 1818
20 141 182 396 622 770 811 1188 1200 1274 1292 1316 1496 1886 1946 1992 2069 2320 2395 2850 3047
20 154 215 276 457 597 653 841 951 1212 1302 1781 1923 1936 1967 2084 2811 2883 2958 2999 3115
20 119 201 287 581 621 868 1081 1120 1140 1208 1815 1927 1991 2083 2248 2285 2394 2443 2738 2800
20 34 263 323 519 1379 1407 1627 1756 1874 2055 2127 2231 2295 2425 2450 2477 2688 2712 2901 3067
20 49 311 366 676 739 918 959 1055 1553 1669 1688 1751 1842 1860 2291 2373 2504 2521 2624 2689
20 158 268 537 658 754 921 934 1414 1470 1666 1834 1920 2043 2102 2299 2547 2833 3022 3066 3101
20 26 150 330 502 615 725 800 983 1266 1700 1803 1869 1896 2037 2124 2173 2348 2491 2538 2601
20 320 371 619 719 967 1003 1313 1340 1567 1827 1887 2063 2214 2259 2324 2375 2396 2511 2604 2682
20 980 1051 1167 1223 1492 1712 2185 2213 2220 2276 2306 2338 2386 2487 2520 2612 2708 2748 2988 3086
20 31 61 762 987 1046 1483 1588 1651 2064 2494 2517 2540 2565 2632 2721 2772 2913 3031 3094 3116
20 11 240 319 680 1555 1568 1611 1702 1719 1825 2062 2260 2268 2292 2431 2546 2600 2620 2717 2729
20 284 367 515 677 740 1056 1100 1321 1368 1439 1625 2059 2090 2137 2255 2402 2438 2581 2626 2690
20 710 763 1163 1195 1763 2111 2162 2289 2314 2423 2446 2471 2497 2567 2634 2675 2770 2815 3077 3096
20 842 989 1079 1191 1249 1332 1458 1504 1533 1652 1762 1809 1900 2239 2420 2495 2676 2697 2767 2788
20 38 84 478 521 679 687 1449 1460 1607 1631 1674 1721 1759 2551 2582 2615 2646 2659 2924 3072
20 309 350 436 553 596 820 993 1151 1227 1431 1730 1743 1780 1829 1934 2258 2376 2409 2630 2643
20 833 1110 1222 1297 1437 1624 1662 1694 1889 1944 2246 2336 2361 2381 2611 2656 2681 2778 2973 3011
20 430 458 600 1014 1107 1135 1251 1303 1333 1403 1901 1969 2160 2265 2422 2765 2787 2814 2866 3006
20 88 133 351 598 608 952 994 1034 1104 1288 1677 1684 1732 1856 1937 2049 2387 2523 2593 2631
20 572 580 823 873 903 957 1064 1109 1161 1390 1434 1484 1534 1659 2145 2635 2677 2759 3008 3021
20 852 1050 1093 1225 1516 1622 1644 1787 1941 2016 2182 2290 2410 2617 2653 2664 2744 2806 2997 3098
20 124 164 413 573 939 1044 1159 1194 1235 1277 1532 1767 1996 2384 2757 2804 2840 3032 3092 3107
20 120 162 509 610 795 865 877 975 1039 1078 1350 1480 1488 1529 1855 2178 2383 2532 3028 3043
20 216 310 426 455 709 839 1103 1152 1383 1526 1650 1761 1807 2009 2157 2465 2584 2649 2782 2813
20 288 340 382 623 698 1059 1139 1169 1511 1581 1637 1731 1782 2170 2393 2444 2486 2514 2629 2739
20 194 237 363 441 614 674 718 1088 1697 1718 1775 1957 2025 2078 2257 2323 2509 2570 2637 2728
20 35 176 417 655 756 1113 1380 1540 1875 1911 1964 2068 2426 2575 2714 2795 2856 2955 3068 3100
20 272 279 336 404 664 758 1182 1326 1410 1630 1739 1773 1988 2081 2254 2272 2512 2545 2713 2799
20 25 211 298 387 474 531 1421 1647 1726 1804 2035 2101 2199 2278 2417 2461 2492 2562 2644 2736
20 122 145 440 570 625 954 991 1036 1092 1122 1156 1203 1783 2013 2180 2322 2343 2365 2996 3051
20 6 79 294 552 607 672 688 1096 1461 1821 1847 2022 2099 2164 2273 2371 2508 2592 2627 2642
20 9 58 494 542 564 949 1025 1062 1246 1254 1729 1839 2105 2166 2302 2476 2628 2667 2930 3020
20 193 275 466 662 732 1382 1557 1598 1746 1828 1965 2086 2262 2405 2639 2694 2783 2797 2882 3063
20 393 408 469 694 761 784 1190 1384 1412 1636 2006 2205 2234 2412 2781 2818 2860 2909 3059 3081
20 737 738 966 1017 1457 1560 1679 1709 1748 2048 2120 2140 2217 2266 2588 2704 2751 2791 2982 3064
20 40 92 914 955 1018 1252 1283 1456 1544 1617 2042 2109 2364 2616 2687 2752 2962 3010 3074 3105
20 1048 1052 1108 1162 1229 1463 1619 1633 1682 1736 1745 2051 2110 2264 2274 2294 2379 2388 2519 2756
20 19 90 735 1011 1028 1341 1558 1564 1613 1693 1733 2168 2192 2355 2377 2501 2530 2650 2933 2971
20 28 339 541 708 760 984 1076 1356 1477 1579 1649 1806 2128 2158 2175 2201 2232 2282 2311 2671
20 243 341 379 733 746 1176 1331 1366 1577 1706 1796 1966 2149 2190 2330 2447 2480 2695 2720 2776
20 837 1019 1508 1972 2019 2152 2211 2241 2337 2415 2457 2573 2657 2666 2684 2848 2892 2989 2995 3057
20 1021 1030 1148 1224 1563 1663 2096 2247 2502 2555 2590 2610 2614 2654 2746 2809 2890 2937 3012 3109
20 825 1015 1090 1218 1315 1621 1710 1737 1785 1833 1971 2397 2433 2518 2571 2622 2683 2725 2755 2801
20 105 183 244 397 645 848 897 1187 1199 1429 1764 2070 2428 2556 2718 2734 2910 3048 3090 3108
20 242 255 443 785 826 896 1125 1211 1330 1365 1817 2085 2235 2244 2329 2569 2719 2775 2859 2876
20 60 74 116 567 578 640 870 1024 1121 1245 1479 1657 1840 1924 1931 2362 2836 2932 2998 3106
20 85 229 274 633 661 729 1597 1673 1876 2047 2498 2528 2583 2597 2693 2702 2879 2956 2976 3103
20 30 59 214 652 681 707 1428 1608 1648 1989 2103 2312 2442 2513 2737 2812 2834 2929 3089 3114
20 29 152 181 651 985 1037 1271 1301 1357 1556 1854 1878 2061 2310 2374 2602 2908 2977 3046 3113
20 845 876 990 1196 1253 1306 1654 1683 2163 2267 2316 2401 2636 2700 2726 2817 2868 3035 3078 3119
20 207 246 400 702 1137 1210 1584 1601 1769 1831 1994 2003 2208 2275 2332 2516 2559 2641 2886 3085
20 248 257 748 1177 1221 1562 1589 1970 1980 2240 2245 2298 2424 2500 2699 2764 2865 2915 2983 3104
20 854 958 1165 1205 1264 1486 1576 1623 1945 2186 2307 2366 2382 2535 2613 2619 2941 3056 3099 3110
20 401 402 849 899 1317 1503 1513 1587 1640 1995 2148 2238 2288 2399 2430 2455 2723 2761 2852 3093
20 902 1002 1049 1127 1295 1592 1603 1770 1942 1955 1998 2242 2334 2385 2706 2745 2888 2987 3052 3111
20 217 277 429 844 871 1133 1160 1620 1653 1786 2263 2421 2445 2566 2589 2768 2842 3007 3075 3117
20 835 941 999 1124 1164 1231 1406 1606 1655 1943 2018 2360 2680 2792 2808 2843 2891 2939 2947 3061
20 15 165 226 506 759 781 1411 1877 1973 2130 2203 2297 2463 2527 2709 2861 2974 3027 3039 3082
20 23 89 483 511 641 940 1022 1465 1604 2107 2206 2354 2553 2594 2669 2838 2884 3003 3041 3083
20 71 135 258 481 782 927 1115 1282 1399 1536 1664 1862 1922 2131 2352 2862 2872 2968 3001 3071
20 978 1020 1207 1296 1510 1546 1573 2136 2209 2358 2529 2609 2685 2701 2793 2849 2889 2898 2964 3054
20 43 156 514 857 911 972 1250 1262 1404 1485 1506 2134 2301 2674 2758 2841 2847 2896 3076 3095
20 123 147 512 646 786 882 1031 1197 1275 1498 1928 1981 2014 2356 2534 2874 2912 2935 2969 3091
20 167 249 410 789 831 900 1193 1294 1405 1505 1953 2470 2710 2763 2789 2914 2945 2985 3034 3060
20 846 1033 1145 1175 1509 1593 1646 1982 2020 2212 2304 2472 2558 2679 2747 2823 2916 2940 3019 3055
20 205 247 485 636 788 1128 1206 1545 1594 1968 2015 2207 2572 2731 2785 2922 2959 2980 2994 3050
20 32 260 486 745 1635 1665 2094 2133 2469 2587 2673 2696 2749 2790 2796 2821 2867 2961 3009 3017
20 41 102 199 428 482 510 855 931 1401 1430 1909 2012 2466 2550 2805 2920 2993 3030 3073 3087
20 62 185 278 654 875 956 1047 1136 1220 1304 1561 1618 1681 1997 2313 2542 2568 2724 2769 2816
