# Generated using Miratope v0.5.0 (https://github.com/galoomba1/miratope-rs)
4OFF

# Vertices, Faces, Edges, Cells
120 720 720 120

# Vertices
-0.809016994374945 0.809016994374945 -0.809016994374945 -0.809016994374945 
-1.30901699437495 0.809016994374945 -0.5 0 
-1.30901699437495 0.5 0 -0.809016994374945 
-0.809016994374945 0.5 -1.30901699437495 0 
-0.5 0 -1.30901699437495 -0.809016994374945 
-0.809016994374945 -0.809016994374945 -0.809016994374945 -0.809016994374945 
-1.30901699437495 -0.809016994374945 -0.5 0 
-1.30901699437495 -0.5 0 -0.809016994374945 
-0.809016994374945 -0.5 -1.30901699437495 0 
-1.61803398874989 0 0 0 
-0.809016994374945 -0.809016994374945 0.809016994374945 0.809016994374945 
-0.5 -0.809016994374945 0 1.30901699437495 
-1.30901699437495 0 0.809016994374945 0.5 
-1.30901699437495 -0.809016994374945 0.5 0 
-0.809016994374945 -1.30901699437495 0 0.5 
-0.809016994374945 -0.809016994374945 -0.809016994374945 0.809016994374945 
-0.809016994374945 0 -0.5 1.30901699437495 
-1.30901699437495 0 -0.809016994374945 0.5 
-1.30901699437495 0.5 0 0.809016994374945 
-0.809016994374945 0.809016994374945 0.809016994374945 -0.809016994374945 
-0.5 0 1.30901699437495 -0.809016994374945 
0 0.5 0.809016994374945 -1.30901699437495 
-1.30901699437495 0 0.809016994374945 -0.5 
-0.5 0.809016994374945 0 -1.30901699437495 
-0.809016994374945 -0.809016994374945 0.809016994374945 -0.809016994374945 
-0.5 -0.809016994374945 0 -1.30901699437495 
0 0 0 -1.61803398874989 
-0.809016994374945 0 -0.5 -1.30901699437495 
-0.809016994374945 0.809016994374945 -0.809016994374945 0.809016994374945 
0 1.30901699437495 -0.5 0.809016994374945 
-0.809016994374945 1.30901699437495 0 0.5 
0 1.30901699437495 -0.5 -0.809016994374945 
0 0.809016994374945 -1.30901699437495 -0.5 
0 1.61803398874989 0 0 
0.5 1.30901699437495 -0.809016994374945 0 
0.809016994374945 -0.809016994374945 -0.809016994374945 -0.809016994374945 
0.809016994374945 -0.5 -1.30901699437495 0 
0.5 -1.30901699437495 -0.809016994374945 0 
0 -1.30901699437495 -0.5 -0.809016994374945 
0 -0.5 -0.809016994374945 -1.30901699437495 
0 0 -1.61803398874989 0 
0 -0.809016994374945 -1.30901699437495 0.5 
-0.5 0 1.30901699437495 0.809016994374945 
0 -0.809016994374945 1.30901699437495 0.5 
0 -0.809016994374945 1.30901699437495 -0.5 
0 0 1.61803398874989 0 
0.809016994374945 0.809016994374945 0.809016994374945 -0.809016994374945 
0.5 1.30901699437495 0.809016994374945 0 
0.809016994374945 1.30901699437495 0 -0.5 
0.5 0.809016994374945 0 -1.30901699437495 
-0.5 1.30901699437495 0.809016994374945 0 
-0.809016994374945 1.30901699437495 0 -0.5 
-0.809016994374945 0.809016994374945 0.809016994374945 0.809016994374945 
0 1.30901699437495 0.5 0.809016994374945 
0 0.5 0.809016994374945 1.30901699437495 
-0.809016994374945 0 0.5 1.30901699437495 
0 0.5 -0.809016994374945 1.30901699437495 
0 0 0 1.61803398874989 
0.809016994374945 -0.809016994374945 -0.809016994374945 0.809016994374945 
0.5 -0.809016994374945 0 1.30901699437495 
0 -0.5 -0.809016994374945 1.30901699437495 
0.809016994374945 -1.30901699437495 0 0.5 
-0.5 -1.30901699437495 -0.809016994374945 0 
0 -1.61803398874989 0 0 
0.809016994374945 -0.809016994374945 0.809016994374945 -0.809016994374945 
0.809016994374945 0 0.5 -1.30901699437495 
0.809016994374945 -1.30901699437495 0 -0.5 
0 -0.5 0.809016994374945 -1.30901699437495 
0 -1.30901699437495 0.5 -0.809016994374945 
0.809016994374945 0 -0.5 -1.30901699437495 
0.809016994374945 0.809016994374945 -0.809016994374945 0.809016994374945 
1.30901699437495 0.809016994374945 -0.5 0 
1.30901699437495 0 -0.809016994374945 0.5 
0.5 0 -1.30901699437495 0.809016994374945 
0 0.809016994374945 -1.30901699437495 0.5 
0.809016994374945 0.809016994374945 -0.809016994374945 -0.809016994374945 
1.30901699437495 0 -0.809016994374945 -0.5 
0.5 0 -1.30901699437495 -0.809016994374945 
0.809016994374945 0.809016994374945 0.809016994374945 0.809016994374945 
0.809016994374945 0.5 1.30901699437495 0 
0.5 0 1.30901699437495 0.809016994374945 
-0.809016994374945 0.5 1.30901699437495 0 
0 0.809016994374945 1.30901699437495 -0.5 
0.809016994374945 -0.809016994374945 0.809016994374945 0.809016994374945 
0.809016994374945 -0.5 1.30901699437495 0 
1.30901699437495 -0.809016994374945 0.5 0 
0 -1.30901699437495 0.5 0.809016994374945 
-0.5 -1.30901699437495 0.809016994374945 0 
1.30901699437495 0.5 0 0.809016994374945 
0.5 0.809016994374945 0 1.30901699437495 
0.809016994374945 0 0.5 1.30901699437495 
1.30901699437495 0 0.809016994374945 -0.5 
1.61803398874989 0 0 0 
1.30901699437495 -0.5 0 -0.809016994374945 
1.30901699437495 0.809016994374945 0.5 0 
1.30901699437495 -0.5 0 0.809016994374945 
-1.30901699437495 0.809016994374945 0.5 0 
-1.30901699437495 -0.5 0 0.809016994374945 
-1.30901699437495 0 -0.809016994374945 -0.5 
-0.5 1.30901699437495 -0.809016994374945 0 
-0.809016994374945 0 0.5 -1.30901699437495 
-0.809016994374945 -1.30901699437495 0 -0.5 
-0.5 0 -1.30901699437495 0.809016994374945 
0 0.5 -0.809016994374945 -1.30901699437495 
0 -0.809016994374945 -1.30901699437495 -0.5 
-0.809016994374945 -0.5 1.30901699437495 0 
0 1.30901699437495 0.5 -0.809016994374945 
-0.5 0.809016994374945 0 1.30901699437495 
0 -1.30901699437495 -0.5 0.809016994374945 
0.5 -0.809016994374945 0 -1.30901699437495 
0.809016994374945 0.5 -1.30901699437495 0 
0 0.809016994374945 1.30901699437495 0.5 
0.5 -1.30901699437495 0.809016994374945 0 
0.809016994374945 0 -0.5 1.30901699437495 
1.30901699437495 0.5 0 -0.809016994374945 
1.30901699437495 -0.809016994374945 -0.5 0 
0.809016994374945 1.30901699437495 0 0.5 
0.5 0 1.30901699437495 -0.809016994374945 
0 -0.5 0.809016994374945 1.30901699437495 
1.30901699437495 0 0.809016994374945 0.5 

# Faces
3 1 2 0
3 0 1 3
5 0 4 5 7 2
3 0 4 3
3 5 7 6
3 5 6 8
3 8 4 5
3 1 2 9
5 9 1 3 8 6
3 9 2 7
3 9 6 7
3 3 4 8
5 11 16 18 12 10
3 10 11 14
3 10 13 12
3 10 14 13
3 16 11 15
3 16 17 15
3 15 14 11
5 13 14 15 17 9
3 18 12 9
3 9 17 18
3 12 13 9
3 18 17 16
3 19 20 21
3 19 22 20
3 19 23 21
5 22 7 27 23 19
3 24 20 22
5 24 25 26 21 20
3 24 22 7
3 24 25 7
3 26 23 21
3 26 23 27
3 26 27 25
3 7 25 27
3 29 30 28
5 34 29 28 3 32
3 30 1 28
3 1 28 3
5 0 31 33 30 1
3 0 31 32
3 0 3 32
3 29 30 33
3 29 34 33
3 33 34 31
3 34 32 31
3 36 37 35
5 36 35 39 4 40
3 35 38 37
3 35 38 39
5 37 38 5 8 41
3 4 39 5
3 5 39 38
3 36 41 40
3 41 8 40
3 8 40 4
3 37 41 36
3 10 42 43
3 12 42 10
5 44 43 10 13 24
3 24 44 20
3 22 13 24
3 45 42 43
5 20 45 42 12 22
3 45 43 44
3 45 44 20
3 13 22 12
3 47 48 46
5 19 50 47 46 21
3 46 49 48
3 46 21 49
3 50 51 19
3 19 51 23
3 47 48 33
3 33 47 50
5 33 51 23 49 48
3 50 51 33
3 21 23 49
3 53 54 52
3 52 53 30
3 54 55 52
5 28 30 52 55 16
3 29 56 28
3 28 16 56
3 57 55 54
5 53 54 57 56 29
3 55 16 57
3 56 16 57
3 30 53 29
3 58 59 60
3 58 61 59
5 15 60 58 37 62
3 61 37 58
3 15 60 11
3 15 62 14
5 11 14 63 61 59
3 63 61 37
3 63 14 62
3 63 37 62
3 11 60 59
5 65 69 35 66 64
3 64 65 67
3 64 68 66
3 64 67 68
3 35 66 38
3 39 69 35
3 26 65 69
3 65 67 26
3 26 39 69
5 38 68 67 26 39
3 66 38 68
3 70 72 71
5 71 70 74 32 75
3 70 72 73
3 73 74 70
3 75 71 76
3 75 76 77
3 75 32 77
3 40 74 73
5 76 77 40 73 72
3 74 32 40
3 40 32 77
3 72 76 71
3 78 79 80
5 79 78 53 50 82
3 78 54 80
3 54 78 53
3 53 50 52
5 80 54 52 81 45
3 52 50 81
3 45 79 80
3 79 82 45
3 82 81 45
3 50 82 81
3 83 84 85
3 83 84 43
5 63 86 83 85 66
3 43 86 83
3 84 85 64
5 43 84 64 68 87
3 64 66 85
3 63 86 87
3 68 63 66
3 63 87 68
3 86 87 43
3 70 88 89
3 70 72 88
5 57 89 70 73 60
5 58 72 88 90 59
3 73 58 72
3 60 73 58
3 57 89 90
3 57 59 90
3 59 57 60
3 88 90 89
5 46 48 71 92 91
3 91 65 46
3 46 65 49
3 75 71 48
3 48 49 75
5 76 93 65 49 75
3 71 76 92
3 92 91 93
3 92 93 76
3 91 93 65
3 94 88 78
3 79 94 78
5 83 80 78 88 95
3 83 80 84
3 83 95 85
3 94 88 92
5 84 79 94 92 85
3 92 88 95
3 92 85 95
3 80 84 79
5 50 51 1 18 52
3 81 12 52
3 18 52 12
3 50 81 19
5 81 12 9 2 19
3 51 2 19
3 9 1 18
3 1 2 51
3 87 24 68
5 24 7 6 14 87
3 24 25 68
3 5 6 62
3 5 25 7
5 5 62 63 68 25
3 14 87 63
3 62 6 14
3 28 74 56
3 17 28 16
5 40 74 28 17 8
5 56 16 15 41 73
3 17 8 15
3 8 15 41
3 41 73 40
3 73 74 56
5 26 69 75 31 23
3 32 75 31
3 75 77 69
3 0 31 23
3 27 0 23
5 0 27 39 77 32
3 27 39 26
3 39 77 69
3 61 95 58
5 58 95 92 76 36
3 37 36 58
3 93 76 35
5 93 35 37 61 85
3 36 76 35
3 92 85 93
3 95 61 85
3 78 94 47
3 88 78 89
5 47 33 29 89 78
5 88 94 48 34 70
3 70 89 29
3 29 34 70
3 34 48 33
3 48 94 47
3 46 91 79
3 79 82 46
5 65 67 20 82 46
5 44 64 91 79 45
3 64 91 65
3 64 67 44
3 20 82 45
3 44 67 20
3 90 83 59
5 42 54 90 83 43
3 83 86 59
3 42 55 10
5 57 59 86 10 55
3 43 86 10
3 54 90 57
3 54 55 42
5 96 1 17 97 12
3 22 96 12
3 1 96 2
3 22 2 96
3 12 97 13
3 1 98 2
3 17 98 1
3 97 13 6
3 97 17 6
5 13 22 2 98 6
3 6 98 17
3 19 51 96
3 19 96 22
3 23 0 51
5 0 98 9 96 51
3 0 27 98
3 96 9 22
3 9 22 7
3 9 7 98
3 7 98 27
3 51 99 0
3 3 99 0
3 0 3 98
3 18 96 9
3 9 98 17
3 30 51 99
3 51 30 96
5 17 3 99 30 18
3 96 18 30
3 17 98 3
3 22 100 24
3 24 101 13
5 24 101 5 27 100
3 5 98 6
3 6 101 5
3 27 5 98
3 22 100 2
3 13 101 6
3 100 27 2
3 98 2 27
3 1 28 18
5 18 97 15 102 28
3 3 102 28
3 97 6 15
3 8 102 15
3 8 15 6
3 9 97 18
3 6 9 97
3 8 102 3
3 99 31 51
3 51 99 1
5 2 27 103 31 51
3 31 32 99
5 99 1 98 4 32
3 31 32 103
3 32 103 4
3 103 27 4
3 98 27 4
3 15 62 8
3 9 13 7
3 13 101 14
3 13 101 7
3 8 98 17
3 14 101 62
5 101 7 98 8 62
3 0 2 23
3 0 23 103
3 4 103 0
3 5 25 39
3 2 100 23
5 103 23 100 25 39
3 2 100 7
3 7 100 25
3 39 103 4
3 28 74 99
3 1 99 28
3 28 17 1
3 40 32 4
3 32 74 99
3 8 98 4
3 25 101 7
3 101 38 62
3 101 38 25
3 62 104 8
3 8 4 104
5 25 27 4 104 38
3 62 104 38
5 98 3 40 104 5
3 62 5 104
3 3 40 102
3 41 102 40
3 40 104 41
3 3 102 17
5 62 41 102 17 6
3 62 41 104
3 5 27 39
3 5 39 104
3 32 40 3
3 40 77 104
3 77 104 39
3 19 81 20
3 20 100 19
3 19 100 2
3 81 20 105
3 81 12 105
5 7 100 20 105 13
3 13 105 12
3 33 50 30
3 50 106 33
3 33 31 106
3 30 50 96
5 2 96 50 106 23
3 30 96 1
3 23 106 31
3 30 96 52
3 52 12 55
3 52 96 12
3 55 97 16
3 12 97 55
3 17 16 97
5 9 97 10 105 22
3 105 87 10
3 10 14 97
3 14 87 10
3 22 105 24
3 87 105 24
3 6 14 97
3 30 107 29
5 29 107 16 102 74
3 30 18 107
3 16 107 18
3 30 29 99
3 74 29 99
3 16 102 17
3 3 74 99
3 102 74 3
3 19 51 106
5 100 26 49 106 19
3 26 49 103
3 27 26 100
3 27 26 103
3 31 106 51
3 106 49 31
3 103 49 31
3 15 108 41
5 6 15 108 63 101
3 5 101 38
3 63 37 108
3 38 63 37
3 101 63 38
3 41 108 37
5 103 77 35 109 26
3 35 109 38
3 77 104 35
3 38 35 104
3 25 109 26
3 25 109 38
3 103 77 4
3 4 77 104
3 73 74 110
3 110 36 73
5 74 3 4 77 110
3 110 77 36
3 74 73 102
5 8 104 36 73 102
3 77 36 104
3 24 100 67
3 68 67 24
3 24 68 101
3 67 100 26
3 68 101 38
5 97 14 108 60 16
3 16 60 102
3 41 60 102
3 108 41 60
3 14 62 108
3 41 108 62
3 34 110 75
5 99 34 75 103 0
3 77 75 110
3 77 103 75
3 74 34 99
3 110 74 34
3 53 107 52
3 52 107 18
5 28 99 33 53 107
3 18 107 28
3 50 53 33
3 51 33 99
3 10 105 42
3 55 10 97
5 55 18 96 81 42
3 81 105 42
3 105 22 81
3 96 81 22
3 18 55 97
3 82 106 50
3 50 96 81
5 82 21 100 22 81
3 106 21 82
3 23 106 21
3 23 21 100
3 37 66 63
5 39 109 66 37 104
3 66 68 109
3 62 37 104
3 25 68 109
3 25 109 39
3 58 36 73
3 15 102 60
3 73 102 60
3 36 37 104
3 69 76 35
3 36 110 40
3 32 110 40
3 36 110 76
5 103 69 76 110 32
3 69 103 39
3 44 105 20
3 105 87 44
3 13 87 105
3 67 100 20
5 44 87 101 25 67
3 13 101 87
3 100 25 67
3 48 75 34
3 49 75 103
3 33 99 34
3 23 49 103
3 56 107 28
3 56 102 28
3 15 97 11
5 107 55 11 60 56
3 18 107 55
3 55 97 11
3 102 56 60
3 11 108 15
3 86 108 63
3 87 101 63
5 86 11 97 13 87
3 11 108 86
3 56 70 29
3 70 110 34
5 102 56 70 110 40
3 34 110 32
5 69 49 21 67 109
3 49 69 103
3 100 67 21
3 69 109 39
3 109 67 25
3 52 111 53
5 52 96 19 82 111
3 106 19 82
3 53 111 47
5 30 51 106 47 53
3 111 82 47
3 82 47 106
5 50 111 54 107 30
3 54 111 42
3 50 81 111
3 81 111 42
3 55 54 107
3 111 42 52
3 12 52 42
3 19 82 20
3 42 111 45
3 82 111 45
3 112 86 61
3 61 112 66
3 86 61 108
5 66 38 62 108 61
5 14 86 112 68 101
3 68 112 66
3 14 86 108
3 70 72 113
3 70 113 56
3 70 72 110
5 36 72 113 60 41
3 56 113 60
3 110 36 72
3 35 109 93
3 77 35 76
3 26 49 65
3 26 109 65
3 93 65 109
3 44 112 64
5 38 109 64 112 63
3 67 64 109
3 87 112 63
3 87 112 44
5 34 71 114 49 31
3 76 114 71
3 34 110 71
3 71 110 76
3 76 69 114
3 49 114 69
3 73 113 58
5 113 57 11 108 58
3 73 41 58
3 108 41 58
3 57 113 56
3 16 11 57
3 56 113 73
3 14 86 10
3 24 44 68
3 43 112 44
3 86 43 112
3 112 44 68
3 70 29 74
3 57 107 89
3 16 57 107
3 57 60 16
3 29 107 89
3 75 48 114
3 75 31 48
3 75 114 69
3 26 65 21
5 48 106 21 65 114
3 106 31 48
3 65 114 69
3 58 115 61
5 104 41 58 115 35
3 61 58 108
3 35 115 66
3 61 66 115
3 115 66 93
5 77 36 115 93 69
3 66 115 37
3 36 37 115
3 109 93 66
3 109 93 69
3 58 115 72
3 35 115 76
3 72 76 115
3 47 53 116
3 47 116 48
3 53 29 116
5 99 29 116 48 31
3 47 48 106
5 117 67 24 105 45
3 45 117 82
3 81 45 105
3 82 117 21
3 21 67 117
5 107 52 42 118 57
3 42 118 10
3 10 118 11
3 57 11 118
3 33 116 53
3 33 34 116
3 116 89 53
5 116 34 74 56 89
3 53 89 107
3 107 89 56
5 118 55 12 105 43
3 11 118 55
3 43 86 118
3 11 118 86
3 87 43 105
3 82 106 46
3 49 106 46
3 71 116 70
3 29 70 116
3 48 71 116
3 20 44 117
3 20 117 21
5 68 109 65 117 44
3 21 117 65
3 59 108 60
3 59 108 86
3 85 64 93
3 64 112 85
3 109 64 93
3 61 63 112
3 61 112 85
5 75 110 72 92 114
3 92 114 93
3 72 92 115
3 93 92 115
3 114 93 69
3 72 115 36
3 113 95 72
3 95 113 59
3 72 95 115
5 108 59 95 115 37
3 60 113 59
3 78 111 47
3 78 89 54
3 54 78 111
3 47 50 111
3 107 54 89
3 46 47 79
3 79 117 46
3 21 117 46
3 47 79 111
5 20 117 79 111 81
3 43 80 45
3 43 105 45
3 80 54 118
3 118 43 80
3 54 118 55
3 89 116 88
3 116 88 71
3 88 89 113
5 73 110 71 88 113
3 71 116 34
3 56 89 113
3 59 118 83
5 10 118 83 112 87
3 61 83 59
3 61 83 112
3 59 118 11
5 93 114 46 117 64
3 49 114 46
3 67 64 117
3 46 114 94
5 33 106 46 94 116
3 71 94 116
3 71 114 94
3 84 117 64
3 45 117 84
3 43 84 45
5 54 118 59 113 89
3 58 113 95
3 71 88 92
3 95 88 113
3 95 59 83
3 95 115 85
3 66 115 85
3 85 91 64
5 76 115 85 91 114
3 65 91 114
3 92 114 94
3 88 72 92
3 94 114 48
3 84 91 117
5 93 66 112 84 91
3 65 117 91
3 117 84 44
3 44 84 112
3 90 113 57
3 90 118 57
3 95 113 90
5 95 61 86 118 90
3 94 78 116
3 78 116 53
3 94 46 79
5 89 53 111 80 90
3 80 90 118
3 111 80 42
3 118 80 42
3 80 111 79
3 84 117 79
5 84 44 105 42 80
5 70 113 90 78 116
3 78 90 54
5 47 94 91 117 82
3 114 91 94
3 83 118 80
3 83 84 112
5 71 94 119 95 72
3 94 119 91
3 95 119 85
3 91 85 119
3 83 90 119
5 61 83 119 92 115
3 92 88 119
3 90 119 88
3 83 119 84
3 91 92 119
3 91 119 84
3 94 119 78
3 90 78 119
3 90 119 95
3 90 119 80
5 112 85 119 80 43
5 47 79 119 88 116
3 79 119 91
3 80 79 119
5 45 84 119 78 111

# Cells
12 0 1 2 3 4 5 6 7 8 9 10 11
12 12 13 14 15 16 17 18 19 20 21 22 23
12 24 25 26 27 28 29 30 31 32 33 34 35
12 1 36 37 38 39 40 41 42 43 44 45 46
12 6 47 48 49 50 51 52 53 54 55 56 57
12 14 28 58 59 60 61 62 63 64 65 66 67
12 26 68 69 70 71 72 73 74 75 76 77 78
12 36 79 80 81 82 83 84 85 86 87 88 89
12 18 90 91 92 93 94 95 96 97 98 99 100
12 50 101 102 103 104 105 106 107 108 109 110 111
12 112 113 114 115 116 117 118 119 120 121 122 123
12 79 124 125 126 127 128 129 130 131 132 133 134
12 103 135 136 137 138 139 140 141 142 143 144 145
12 90 114 146 147 148 149 150 151 152 153 154 155
12 70 116 156 157 158 159 160 161 162 163 164 165
12 124 135 166 167 168 169 170 171 172 173 174 175
12 7 20 72 130 176 177 178 179 180 181 182 183
12 4 31 98 144 184 185 186 187 188 189 190 191
12 17 55 84 119 192 193 194 195 196 197 198 199
12 33 41 109 118 200 201 202 203 204 205 206 207
12 47 93 164 174 208 209 210 211 212 213 214 215
12 44 74 146 166 216 217 218 219 220 221 222 223
12 66 102 132 157 224 225 226 227 228 229 230 231
12 58 85 138 153 232 233 234 235 236 237 238 239
12 67 240 241 242 243 244 245 246 247 248 249 250
12 27 73 204 251 252 253 254 255 256 257 258 259
12 21 254 260 261 262 263 264 265 266 267 268 269
12 62 249 270 271 272 273 274 275 276 277 278 279
12 8 39 182 280 281 282 283 284 285 286 287 288
12 183 245 279 289 290 291 292 293 294 295 296 297
12 19 95 196 258 264 298 299 300 301 302 303 304
12 2 52 188 305 306 307 308 309 310 311 312 313
12 56 121 194 246 293 302 314 315 316 317 318 319
12 35 259 297 304 319 320 321 322 323 324 325 326
12 187 250 269 273 327 328 329 330 331 332 333 334
12 42 122 205 255 262 275 327 335 336 337 338 339
12 9 22 180 299 311 340 341 342 343 344 345 346
12 0 40 203 242 305 347 348 349 350 351 352 353
12 38 82 193 240 316 352 354 355 356 357 358 359
12 10 30 185 257 287 360 361 362 363 364 365 366
12 23 267 332 367 368 369 370 371 372 373 374 375
12 181 278 291 342 376 377 378 379 380 381 382 383
12 5 51 197 274 285 384 385 386 387 388 389 390
12 34 296 325 380 391 392 393 394 395 396 397 398
12 11 288 324 375 398 399 400 401 402 403 404 405
12 53 110 206 272 335 379 386 406 407 408 409 410
12 191 248 333 359 366 373 411 412 413 414 415 416
12 3 261 307 374 397 401 417 418 419 420 421 422
12 77 128 176 280 290 315 423 424 425 426 427 428
12 235 256 263 286 360 429 430 431 432 433 434 435
12 134 243 276 309 351 434 436 437 438 439 440 441
12 99 143 189 308 328 336 442 443 444 445 446 447
12 92 151 210 284 298 323 404 445 448 449 450 451
12 48 106 213 295 313 317 452 453 454 455 456 457
12 231 301 312 320 345 458 459 460 461 462 463 464
12 76 160 222 253 260 306 418 428 465 466 467 468
12 94 281 426 435 449 469 470 471 472 473 474 475
12 142 247 277 283 385 463 471 476 477 478 479 480
12 37 83 221 282 329 337 454 470 481 482 483 484
12 78 310 441 447 457 464 468 485 486 487 488 489
12 80 251 266 354 376 490 491 492 493 494 495 496
12 239 268 350 369 431 437 473 497 498 499 500 501
12 25 64 230 241 252 356 491 502 503 504 505 506
12 111 303 321 410 415 507 508 509 510 511 512 513
12 54 330 413 453 475 483 514 515 516 517 518 519
12 117 161 211 378 391 420 466 520 521 522 523 524
12 229 322 389 396 462 478 489 525 526 527 528 529
12 46 294 383 456 484 486 530 531 532 533 534 535
12 16 88 195 384 476 536 537 538 539 540 541 542
12 15 60 237 271 300 408 511 543 544 545 546 547
12 115 148 220 368 403 412 450 548 549 550 551 552
12 32 107 200 353 440 553 554 555 556 557 558 559
12 105 326 334 394 416 510 539 560 561 562 563 564
12 207 339 405 443 451 488 565 566 567 568 569 570
12 120 150 198 331 338 393 521 538 561 571 572 573
12 89 265 289 371 381 494 558 574 575 576 577 578
12 133 270 364 406 433 438 487 579 580 581 582 583
12 12 59 178 370 424 503 541 550 584 585 586 587
12 192 314 421 425 467 469 588 589 590 591 592 593
12 145 244 346 358 460 474 479 594 595 596 597 598
12 108 158 226 341 377 409 461 492 504 522 599 600
12 113 159 201 292 318 372 548 554 577 601 602 603
12 29 61 186 395 446 523 544 556 604 605 606 607
12 87 154 236 357 362 411 430 513 543 551 608 609
12 49 97 212 388 392 520 526 610 611 612 613 614
12 202 402 419 519 555 566 615 616 617 618 619 620
12 57 390 414 517 568 608 620 621 622 623 624 625
12 43 75 218 347 367 497 552 626 627 628 629 630
12 24 69 179 340 499 605 629 631 632 633 634 635
12 81 129 177 344 355 581 594 636 637 638 639 640
12 199 399 422 532 542 591 641 642 643 644 645 646
12 13 96 190 363 528 586 613 647 648 649 650 651
12 71 485 527 535 570 583 612 619 633 652 653 654
12 45 349 382 530 589 600 645 653 655 656 657 658
12 104 140 184 365 407 579 598 637 654 659 660 661
12 100 472 501 518 593 595 625 630 640 646 651 662
12 162 173 209 400 448 455 533 536 644 663 664 665
12 137 170 234 387 442 477 567 609 624 666 667 668
12 101 141 228 452 534 559 563 572 668 669 670 671
12 147 171 219 417 465 482 516 553 615 672 673 674
12 165 444 512 524 547 569 606 675 676 677 678 679
12 208 480 509 537 562 587 597 663 680 681 682 683
12 125 167 225 348 427 436 588 599 656 684 685 686
12 152 423 490 502 549 584 592 681 687 688 689 690
12 175 343 432 458 500 604 635 678 689 691 692 693
12 86 127 238 481 515 540 576 602 680 685 694 695
12 223 439 496 557 578 582 607 671 674 677 696 697
12 169 361 429 459 529 585 648 679 690 693 698 699
12 123 531 573 623 658 667 670 697 700 701 702 703
12 91 149 232 560 571 617 649 673 704 705 706 707
12 163 508 564 565 618 650 676 699 705 708 709 710
12 112 514 601 621 657 682 684 694 700 711 712 713
12 139 172 214 610 616 632 652 655 659 672 686 692
12 215 507 546 596 614 639 683 688 702 713 714 715
12 68 156 224 575 603 631 642 664 706 709 716 717
12 126 168 217 622 627 638 643 647 662 665 666 698
12 65 131 227 525 545 611 636 669 703 715 717 718
12 155 493 574 590 634 641 687 691 707 714 716 718
12 216 495 506 580 626 660 675 696 701 710 711 719
12 63 136 233 498 505 628 661 695 704 708 712 719
