# Generated using Miratope v0.5.0 (https://github.com/galoomba1/miratope-rs)
4OFF

# Vertices, Faces, Edges, Cells
120 3120 1200 240

# Vertices
0.0834626338555 0 0.3535533905933 0.5 
-0.4885987689621 0 0.2185080122244 0.3090169943749 
0.4370160244488 -0.3090169943749 -0 0.3090169943749 
-0.1350453783689 -0.1909830056251 0.5720614028177 -0 
0.2185080122244 -0.3090169943749 0.4885987689621 -0 
0.2185080122244 -0.1909830056251 -0.2185080122244 0.5 
-0.3535533905933 -0 -0.0834626338555 0.5 
0.0834626338555 -0.5 -0.3535533905933 0 
-0.4885987689621 -0.3090169943749 -0.2185080122244 0 
-0.1350453783689 -0.5 0.1350453783689 -0.3090169943749 
0.2185080122244 -0.5 0.2185080122244 -0.1909830056251 
-0.3535533905933 -0.1909830056251 -0.3535533905933 0.3090169943749 
-0.3535533905933 -0.3090169943749 0.3535533905933 -0.1909830056251 
-0 -0.3090169943749 -0.4370160244488 0.3090169943749 
-0 -0 0 0.6180339887499 
-0.5720614028177 -0.1909830056251 0.1350453783689 -0 
0.3535533905933 -0.5 -0.0834626338555 -0 
0.3535533905933 -0.1909830056251 0.3535533905933 0.3090169943749 
-0.2185080122244 0 0.4885987689621 0.3090169943749 
-0.2185080122244 -0.5 -0.2185080122244 -0.1909830056251 
0.0834626338555 -0 0.3535533905933 -0.5 
-0.4885987689621 0 0.2185080122244 -0.3090169943749 
0.4370160244488 -0.3090169943749 -0 -0.3090169943749 
-0.1350453783689 0.3090169943749 -0.1350453783689 -0.5 
0.2185080122244 0.1909830056251 -0.2185080122244 -0.5 
-0.1350453783689 -0 -0.5720614028177 -0.1909830056251 
0.2185080122244 -0 -0.4885987689621 -0.3090169943749 
-0.3535533905933 -0.5 0.0834626338555 -0 
-0.3535533905933 0.1909830056251 -0.3535533905933 -0.3090169943749 
-0 -0.6180339887499 -0 -0 
-0 -0.3090169943749 0.4370160244488 -0.3090169943749 
-0.5720614028177 0 -0.1350453783689 -0.1909830056251 
0.3535533905933 -0.3090169943749 -0.3535533905933 -0.1909830056251 
0.3535533905933 -0 0.0834626338555 -0.5 
-0.2185080122244 0.1909830056251 0.2185080122244 -0.5 
-0.2185080122244 -0.3090169943749 -0.4885987689621 0 
0.0834626338555 0.5 -0.3535533905933 0 
-0.4885987689621 0.3090169943749 -0.2185080122244 0 
0.4370160244488 -0 -0.4370160244488 0 
-0.1350453783689 0.3090169943749 -0.1350453783689 0.5 
0.2185080122244 0.1909830056251 -0.2185080122244 0.5 
-0.1350453783689 -0.3090169943749 -0.1350453783689 0.5 
-0.3535533905933 -0.1909830056251 -0.3535533905933 -0.3090169943749 
-0 -0.3090169943749 -0.4370160244488 -0.3090169943749 
-0 0.3090169943749 -0.4370160244488 -0.3090169943749 
-0.5720614028177 0 -0.1350453783689 0.1909830056251 
0.3535533905933 -0.3090169943749 -0.3535533905933 0.1909830056251 
0.3535533905933 0.3090169943749 -0.3535533905933 0.1909830056251 
-0.2185080122244 0.5 -0.2185080122244 0.1909830056251 
-0.2185080122244 -0.5 -0.2185080122244 0.1909830056251 
0.4370160244488 0.3090169943749 -0 -0.3090169943749 
-0.1350453783689 0.1909830056251 0.5720614028177 -0 
0.2185080122244 0.3090169943749 0.4885987689621 -0 
-0.3535533905933 -0 -0.0834626338555 -0.5 
-0.1350453783689 0.5 0.1350453783689 0.3090169943749 
0.2185080122244 0.5 0.2185080122244 0.1909830056251 
-0.3535533905933 0.3090169943749 0.3535533905933 0.1909830056251 
-0 -0 0 -0.6180339887499 
-0.5720614028177 0.1909830056251 0.1350453783689 -0 
0.3535533905933 0.5 -0.0834626338555 -0 
0.3535533905933 0.1909830056251 0.3535533905933 -0.3090169943749 
-0.2185080122244 0 0.4885987689621 -0.3090169943749 
0.2185080122244 -0 -0.4885987689621 0.3090169943749 
-0.3535533905933 0.1909830056251 -0.3535533905933 0.3090169943749 
-0.1350453783689 -0.3090169943749 -0.1350453783689 -0.5 
0.2185080122244 -0.1909830056251 -0.2185080122244 -0.5 
-0 0.3090169943749 -0.4370160244488 0.3090169943749 
0.3535533905933 0.3090169943749 -0.3535533905933 -0.1909830056251 
-0.2185080122244 0.5 -0.2185080122244 -0.1909830056251 
0.4370160244488 0.3090169943749 -0 0.3090169943749 
-0.1350453783689 -0 -0.5720614028177 0.1909830056251 
-0.3535533905933 0.5 0.0834626338555 -0 
-0 0.6180339887499 -0 -0 
-0 0.3090169943749 0.4370160244488 0.3090169943749 
0.3535533905933 -0 0.0834626338555 0.5 
-0.2185080122244 -0.1909830056251 0.2185080122244 0.5 
-0.2185080122244 0.3090169943749 -0.4885987689621 0 
0.4370160244488 -0 0.4370160244488 -0 
-0.3535533905933 -0.3090169943749 0.3535533905933 0.1909830056251 
-0.1350453783689 0.5 0.1350453783689 -0.3090169943749 
0.2185080122244 0.5 0.2185080122244 -0.1909830056251 
-0 -0.3090169943749 0.4370160244488 0.3090169943749 
0.3535533905933 0.1909830056251 0.3535533905933 0.3090169943749 
-0.2185080122244 0.1909830056251 0.2185080122244 0.5 
-0.1350453783689 -0.5 0.1350453783689 0.3090169943749 
0.2185080122244 -0.5 0.2185080122244 0.1909830056251 
0.3535533905933 -0.1909830056251 0.3535533905933 -0.3090169943749 
-0.3535533905933 0.3090169943749 0.3535533905933 -0.1909830056251 
-0 0.3090169943749 0.4370160244488 -0.3090169943749 
-0.2185080122244 -0.1909830056251 0.2185080122244 -0.5 
0.5720614028177 -0 0.1350453783689 -0.1909830056251 
0.5720614028177 -0.1909830056251 -0.1350453783689 -0 
0.5720614028177 0.1909830056251 -0.1350453783689 -0 
0.1350453783689 -0.3090169943749 0.1350453783689 -0.5 
0.1350453783689 0.1909830056251 -0.5720614028177 0 
0.5720614028177 -0 0.1350453783689 0.1909830056251 
0.1350453783689 -0.3090169943749 0.1350453783689 0.5 
0.1350453783689 0.3090169943749 0.1350453783689 0.5 
0.1350453783689 -0.1909830056251 -0.5720614028177 0 
0.1350453783689 0.3090169943749 0.1350453783689 -0.5 
0.1350453783689 0.5 -0.1350453783689 -0.3090169943749 
0.1350453783689 -0.5 -0.1350453783689 -0.3090169943749 
0.1350453783689 0 0.5720614028177 0.1909830056251 
-0.4370160244488 -0 -0.4370160244488 0 
0.1350453783689 0 0.5720614028177 -0.1909830056251 
0.1350453783689 -0.5 -0.1350453783689 0.3090169943749 
0.1350453783689 0.5 -0.1350453783689 0.3090169943749 
-0.4370160244488 -0.3090169943749 -0 -0.3090169943749 
-0.4370160244488 -0.3090169943749 -0 0.3090169943749 
-0.4370160244488 0.3090169943749 -0 -0.3090169943749 
-0.4370160244488 0.3090169943749 -0 0.3090169943749 
0.4885987689621 -0 -0.2185080122244 -0.3090169943749 
-0.4370160244488 0 0.4370160244488 -0 
0.4885987689621 -0 -0.2185080122244 0.3090169943749 
0.4885987689621 -0.3090169943749 0.2185080122244 -0 
0.4885987689621 0.3090169943749 0.2185080122244 -0 
-0.0834626338555 0.5 0.3535533905933 -0 
-0.0834626338555 -0.5 0.3535533905933 -0 
-0.0834626338555 -0 -0.3535533905933 0.5 
-0.0834626338555 -0 -0.3535533905933 -0.5 

# Faces
3 0 3 1
5 0 6 18 14 1
3 0 2 4
5 0 5 17 14 2
5 4 0 3 17 18
3 0 6 5
3 7 9 8
5 7 8 13 19 11
5 2 13 16 5 7
3 7 10 2
5 9 7 10 19 16
3 5 11 7
5 8 6 15 11 1
3 8 12 1
5 8 12 19 15 9
3 8 13 6
5 3 1 12 18 15
3 1 14 11
5 10 2 4 16 17
3 2 13 14
5 3 9 4 12 10
3 9 3 15
3 9 16 4
3 3 17 10
3 4 12 18
5 11 5 6 13 14
3 16 17 5
3 15 18 6
3 12 19 10
3 11 15 19
3 16 19 13
3 17 18 14
3 20 21 23
5 20 12 34 30 21
3 22 24 20
5 20 10 33 30 22
5 23 33 34 24 20
3 12 20 10
3 7 8 25
5 7 27 35 29 8
3 7 26 22
5 10 7 22 29 32
5 25 7 26 35 32
3 10 27 7
3 8 21 28
5 8 12 31 27 21
5 8 28 35 31 25
3 8 29 12
5 23 31 34 28 21
3 21 27 30
5 24 22 26 33 32
3 22 30 29
5 23 25 24 28 26
3 25 23 31
3 25 24 32
3 26 33 23
3 24 28 34
3 26 35 28
5 12 10 27 30 29
3 32 33 10
3 12 34 31
3 31 35 27
3 29 35 32
3 30 33 34
3 37 39 36
5 36 28 48 44 37
3 36 38 40
5 38 44 47 26 36
5 39 47 48 40 36
3 26 36 28
3 7 41 8
5 8 43 49 42 7
3 5 38 7
5 38 7 26 46 43
5 7 41 46 49 5
3 7 42 26
3 8 37 6
5 8 28 45 42 37
5 6 8 41 45 49
3 28 43 8
5 39 45 48 6 37
3 37 42 44
5 5 38 40 46 47
3 38 43 44
5 39 5 6 40 41
3 41 45 39
3 41 46 40
3 39 47 5
3 40 48 6
3 5 6 49
5 28 26 42 44 43
3 46 47 26
3 28 48 45
3 42 45 49
3 43 46 49
3 44 48 47
3 20 51 21
5 20 21 57 61 53
3 20 50 52
5 24 60 57 50 20
5 51 60 61 52 20
3 24 53 20
3 36 54 37
5 50 44 59 24 36
3 36 50 55
5 36 55 48 59 54
3 28 36 24
5 21 37 53 58 28
3 37 56 21
5 37 54 58 48 56
3 37 53 44
5 51 58 61 56 21
3 28 57 21
5 52 50 55 60 59
3 50 44 57
5 51 54 52 56 55
3 51 58 54
3 52 59 54
3 51 55 60
3 52 56 61
5 28 24 53 44 57
3 24 60 59
3 56 48 55
3 58 61 53
3 48 58 28
3 48 59 44
3 60 61 57
3 36 23 37
5 37 66 68 63 36
3 38 24 36
5 38 66 67 62 36
5 36 24 68 67 23
3 36 63 62
3 7 8 64
3 7 65 38
5 38 7 62 32 13
5 7 64 32 19 65
3 7 62 11
3 37 8 53
5 37 8 63 31 11
5 53 8 64 31 19
3 13 63 8
5 53 68 31 23 37
3 11 66 37
5 32 67 65 38 24
3 38 13 66
5 53 65 23 64 24
3 31 64 23
3 24 64 32
3 23 67 65
3 24 68 53
3 65 19 53
5 62 63 13 66 11
3 62 67 32
3 31 68 63
3 11 19 31
3 13 19 32
3 66 67 68
3 0 41 1
5 1 73 75 56 0
3 5 69 0
5 69 73 74 55 0
5 41 0 5 75 74
3 55 56 0
3 37 70 36
5 37 72 76 71 36
5 36 69 72 47 55
3 36 69 62
5 36 70 47 76 62
3 36 55 71
5 56 45 71 1 37
3 1 37 11
5 37 70 45 76 11
3 37 56 72
5 41 1 11 75 45
3 1 73 71
5 69 5 47 74 62
3 69 72 73
5 41 62 11 5 70
3 41 45 70
3 47 70 5
3 41 74 62
3 5 75 11
5 55 56 72 73 71
3 47 74 55
3 11 76 62
3 56 75 45
3 71 45 76
3 72 47 76
3 73 74 75
3 0 54 1
5 1 81 83 78 0
5 77 0 4 82 81
3 0 77 55
5 55 83 82 54 0
3 0 78 4
3 20 21 79
5 80 20 79 60 34
5 20 4 60 30 77
3 20 80 77
3 12 20 4
5 12 58 78 21 1
3 71 21 1
5 71 21 79 58 34
3 21 78 30
5 1 54 58 83 71
3 1 81 12
5 54 79 55 71 80
3 58 79 54
3 55 79 60
5 60 82 80 77 55
3 30 81 77
3 54 82 80
5 12 81 30 78 4
3 60 82 4
3 55 83 71
3 80 34 71
3 58 83 78
3 34 58 12
3 30 60 34
3 81 83 82
3 20 3 21
3 20 22 4
5 22 57 86 65 20
5 20 4 61 86 3
3 20 65 53
3 7 8 84
5 22 7 65 16 43
3 7 85 22
5 7 85 49 16 84
3 42 65 7
5 21 8 53 15 42
3 8 78 21
5 8 84 15 49 78
3 8 43 53
5 15 61 78 21 3
3 21 42 57
5 22 4 16 86 85
3 43 57 22
5 3 84 4 78 85
3 15 84 3
3 4 84 16
3 3 85 86
3 78 61 4
5 53 65 42 57 43
3 65 86 16
3 85 49 78
3 53 61 15
3 42 49 15
3 43 16 49
3 57 61 86
3 20 21 64
5 21 88 89 87 20
3 50 65 20
5 50 20 80 33 88
5 64 20 65 89 33
3 80 87 20
3 36 37 25
5 50 72 67 80 36
3 36 50 26
5 25 36 26 76 67
3 71 36 80
3 42 21 37
5 37 87 31 71 21
5 37 25 31 76 42
3 72 87 37
5 21 64 31 89 42
3 71 88 21
5 65 67 33 26 50
3 50 88 72
5 64 26 42 65 25
3 25 64 31
3 67 25 65
3 33 64 26
3 42 89 65
5 80 87 72 88 71
3 80 33 67
3 42 76 26
3 31 89 87
3 71 76 31
3 72 76 67
3 33 89 88
3 1 51 0
5 69 14 82 40 0
3 0 52 69
5 52 0 51 82 18
3 0 40 6
3 36 37 79
5 40 36 69 66 59
3 36 69 80
5 36 80 68 59 79
3 36 40 63
5 37 6 58 63 1
3 37 87 1
5 58 68 87 37 79
3 6 66 37
5 51 58 18 87 1
3 14 63 1
5 59 82 80 69 52
3 69 14 66
5 51 80 87 52 79
3 58 51 79
3 59 79 52
3 82 51 80
5 6 40 63 14 66
3 40 59 82
3 87 18 52
3 18 58 6
3 80 68 87
3 63 58 68
3 66 59 68
3 18 82 14
3 0 1 84
5 0 77 73 17 52
3 0 85 77
5 85 0 84 17 75
3 52 0 56
3 21 9 20
5 77 20 52 86 88
3 10 77 20
5 10 89 86 9 20
3 20 52 87
5 56 15 87 1 21
3 27 1 21
5 9 21 27 89 15
3 21 56 88
5 84 15 75 27 1
3 1 73 87
5 10 77 85 86 17
3 77 73 88
5 9 84 10 27 85
3 15 84 9
3 86 9 85
3 17 84 10
5 56 52 87 73 88
3 52 86 17
3 85 27 75
3 10 89 27
3 56 75 15
3 87 89 15
3 88 86 89
3 73 75 17
3 0 39 1
3 0 40 2
5 0 2 81 74 85
5 0 40 83 74 39
3 78 85 0
3 7 8 70
5 2 7 85 46 29
3 7 62 2
5 7 62 35 46 70
3 7 85 27
5 1 8 78 45 27
3 1 63 8
5 70 8 63 35 45
3 8 78 29
5 39 1 63 83 45
3 1 81 27
5 74 46 40 2 62
3 29 81 2
5 63 62 39 70 40
3 45 70 39
3 40 46 70
3 62 74 39
3 40 63 83
5 27 85 78 29 81
3 46 74 85
3 83 45 78
3 62 63 35
3 35 45 27
3 35 46 29
3 81 83 74
3 0 2 77
5 39 0 54 14 73
3 54 0 52
3 0 39 5
3 36 50 38
5 39 72 66 54 36
3 54 80 36
3 36 62 39
5 62 91 5 38 2
3 2 90 38
5 50 38 90 67 91
3 5 66 38
5 77 91 17 90 2
3 14 62 2
5 77 50 52 90 80
3 50 91 77
3 50 52 72
3 77 80 73
5 52 72 73 80 54
3 66 54 14
5 39 5 66 14 62
3 73 39 72
3 52 90 17
3 17 91 5
3 80 67 90
3 62 91 67
3 66 72 67
3 14 73 17
3 20 64 22
5 90 20 22 60 93
3 20 79 53
5 20 64 34 93 53
3 80 90 20
3 36 25 38
5 36 38 59 94 92
3 28 79 36
5 36 25 68 94 28
3 80 92 36
3 43 22 38
5 90 32 92 22 38
5 38 25 32 94 43
3 38 90 59
5 22 64 32 93 43
3 22 92 60
5 28 79 53 68 34
3 60 59 79
5 64 28 43 53 25
3 32 64 25
3 53 68 25
3 34 64 28
5 80 90 59 60 92
3 80 34 68
3 53 43 93
3 28 43 94
3 90 32 93
3 92 94 32
3 59 94 68
3 34 93 60
3 20 22 77
5 23 20 79 57 88
3 20 79 52
3 23 65 20
3 36 38 69
5 79 36 23 72 44
3 36 79 55
3 26 36 23
5 22 38 65 91 26
3 22 95 38
5 69 38 95 47 91
3 38 44 65
5 77 91 86 95 22
3 22 57 26
5 52 69 77 55 95
3 77 91 69
3 72 52 69
5 55 88 72 52 79
3 57 79 44
3 77 88 55
5 44 65 23 26 57
3 88 23 72
3 86 95 52
3 47 95 55
3 65 91 86
3 26 47 91
3 47 72 44
3 86 88 57
3 0 2 84
5 0 95 96 82 2
3 0 78 51
5 78 0 84 18 96
3 52 0 95
3 20 9 22
5 9 20 12 93 61
3 12 51 20
3 52 90 20
5 90 16 95 22 2
3 29 2 22
5 16 93 29 22 9
3 22 60 95
5 84 2 29 96 16
3 90 82 2
5 29 12 84 9 78
3 16 84 9
3 78 9 61
5 78 51 12 18 61
3 60 82 51
3 12 84 18
5 90 82 60 95 52
3 52 18 61
3 78 96 29
3 12 93 29
3 95 16 96
3 93 16 90
3 60 93 61
3 18 96 82
3 0 2 69
5 0 3 73 81 51
3 55 51 0
3 0 85 3
3 22 50 20
5 51 30 88 3 20
3 51 80 20
3 3 20 10
5 2 22 85 91 10
3 92 2 22
5 92 22 50 91 33
3 22 85 30
5 69 91 74 92 2
3 10 81 2
5 80 92 55 50 69
3 91 50 69
3 50 88 55
3 73 80 69
5 73 80 51 55 88
3 30 51 81
5 3 85 30 81 10
3 88 73 3
3 55 92 74
3 85 74 91
3 80 92 33
3 33 91 10
3 33 30 88
3 74 73 81
3 0 2 41
3 0 6 54
5 0 41 83 96 6
3 55 0 95
3 36 70 38
3 36 63 54
5 36 63 94 48 70
3 55 92 36
5 38 2 92 46 95
3 2 38 13
5 13 94 46 70 38
3 38 59 95
5 13 96 46 41 2
3 2 92 82
5 48 83 63 54 6
3 59 82 54
5 13 63 41 70 6
3 46 70 41
3 6 48 70
3 63 83 41
5 59 95 55 92 82
3 55 83 48
3 6 96 13
3 63 13 94
3 95 96 46
3 92 46 94
3 59 48 94
3 83 96 82
3 20 77 50
3 9 20 4
5 64 30 57 9 20
3 20 64 24
3 7 38 2
5 9 7 64 29 43
3 9 85 7
3 7 26 64
5 26 92 24 38 50
3 38 50 95
3 43 24 38
5 85 95 4 2 77
3 2 77 92
3 2 4 29
5 60 92 77 50 95
3 50 26 57
3 30 85 77
5 4 29 30 85 9
3 43 9 57
3 60 95 4
5 43 24 64 26 57
3 29 64 30
3 24 92 60
3 46 85 95
3 46 26 92
3 46 29 43
3 60 30 57
3 0 69 39
5 95 0 69 17 97
3 0 6 84
5 6 97 75 39 0
3 0 85 95
3 7 38 70
5 38 7 91 98 16
3 7 11 84
5 7 11 98 49 70
3 85 91 7
3 38 69 66
5 66 38 70 47 98
3 95 16 38
5 47 97 66 69 39
3 91 69 17
5 11 84 6 49 75
3 16 84 17
5 66 6 70 39 11
3 47 39 70
3 6 49 70
3 75 39 11
5 16 95 85 91 17
3 49 75 85
3 66 97 6
3 47 97 95
3 11 98 66
3 47 98 91
3 49 98 16
3 17 75 97
3 20 50 23
5 20 90 99 86 50
3 53 9 20
5 23 20 53 99 89
3 20 90 10
3 25 38 7
3 9 42 7
5 25 7 42 98 19
3 10 91 7
3 38 50 44
5 38 25 67 98 44
3 90 38 16
5 44 50 23 67 99
3 50 86 91
5 53 9 42 89 19
3 9 86 16
5 42 23 25 53 44
3 25 67 23
3 53 25 19
3 42 23 89
3 44 99 53
5 86 16 90 10 91
3 10 19 89
3 44 98 42
3 90 99 67
3 91 67 98
3 16 98 19
3 89 99 86
3 0 77 69
5 0 84 14 81 41
3 0 84 4
3 40 0 41
3 7 22 38
5 7 41 29 13 84
3 7 10 84
3 41 62 7
5 40 92 62 69 38
3 90 69 38
3 38 40 13
5 77 22 4 90 10
3 22 92 77
3 29 4 22
5 90 69 77 92 82
3 62 14 69
3 77 81 10
5 84 4 29 81 10
3 13 84 14
5 40 13 14 62 41
3 29 81 41
3 4 90 82
3 40 92 82
3 10 90 32
3 32 62 92
3 29 13 32
3 82 14 81
3 0 69 54
5 0 54 18 97 56
3 3 56 0
3 0 95 4
3 20 79 50
5 20 87 99 61 79
3 20 87 3
3 4 90 20
5 69 90 59 95 50
3 69 50 72
5 79 50 72 99 59
3 95 50 86
5 69 54 59 97 72
3 17 69 90
5 72 56 79 54 87
3 59 79 54
3 56 61 79
3 18 54 87
5 56 3 87 18 61
3 3 17 86
5 86 17 90 4 95
3 4 18 61
3 56 97 72
3 87 72 99
3 95 59 97
3 90 99 59
3 61 99 86
3 18 97 17
3 36 50 23
5 50 47 100 92 36
3 36 70 28
5 23 36 28 100 76
3 36 62 92
3 22 64 7
5 7 91 101 46 22
3 42 70 7
5 64 7 42 101 35
3 62 7 91
3 50 22 57
5 57 101 33 64 22
3 92 46 22
5 57 100 33 23 50
3 91 47 50
5 42 70 28 35 76
3 46 70 47
5 57 42 23 64 28
3 23 64 33
3 28 35 64
3 42 23 76
5 91 47 46 92 62
3 62 35 76
3 57 100 28
3 42 57 101
3 92 100 33
3 91 33 101
3 46 101 35
3 47 76 100
3 36 50 69
5 25 36 70 44 66
3 36 40 70
3 24 36 25
3 7 22 2
5 7 25 13 43 70
3 7 70 5
3 7 65 25
5 24 22 50 65 90
3 22 95 50
3 22 24 43
5 69 2 40 95 5
3 2 90 69
3 2 13 40
3 50 65 44
3 69 66 5
5 66 5 70 40 13
3 44 70 43
5 43 24 25 65 44
3 66 25 13
3 59 95 40
3 59 24 90
3 16 95 5
3 65 90 16
3 13 43 16
3 44 66 59
3 0 51 77
5 0 95 102 74 77
5 56 102 83 51 0
3 56 39 0
3 0 40 95
3 36 50 79
5 71 36 79 48 100
3 36 39 71
3 36 92 40
5 79 50 88 100 60
3 88 77 50
3 47 50 95
5 88 56 79 51 71
3 60 79 51
3 48 79 56
5 60 102 88 77 51
3 92 74 77
3 71 83 51
5 56 48 83 71 39
3 39 74 47
5 92 74 47 95 40
3 40 48 83
3 56 88 102
3 95 102 60
3 71 100 88
3 60 100 92
3 48 100 47
3 74 83 102
3 0 3 77
5 3 0 78 102 75
3 41 78 0
3 0 5 95
3 9 22 7
5 7 9 49 101 27
3 27 41 7
3 7 91 5
3 22 77 30
5 30 101 86 9 22
3 95 46 22
5 86 102 30 77 3
3 91 77 74
5 30 78 9 3 27
3 9 86 3
3 78 9 49
3 27 3 75
5 49 75 27 41 78
3 46 74 41
5 74 91 5 95 46
3 5 49 75
3 30 102 78
3 95 102 86
3 27 30 101
3 91 86 101
3 46 101 49
3 75 102 74
3 51 0 54
3 0 84 3
3 39 0 41
3 21 37 8
5 41 8 84 11 27
3 8 12 84
3 41 63 8
5 37 39 71 63 54
3 54 87 37
3 37 11 39
5 21 3 87 12 51
3 21 51 71
3 27 3 21
5 73 87 54 51 71
3 63 54 14
3 12 51 81
5 3 27 81 12 84
3 11 14 84
3 73 87 3
5 39 11 14 63 41
3 81 41 27
3 73 71 39
3 31 87 12
3 31 71 63
3 31 27 11
3 73 14 81
3 20 79 24
3 20 65 9
5 20 24 93 99 65
3 20 87 12
3 25 37 8
5 58 8 37 15 103
3 8 9 43
5 8 43 103 19 25
3 8 58 12
3 44 79 37
5 44 103 68 25 37
3 37 15 87
5 44 99 68 24 79
3 58 79 61
5 19 93 43 9 65
3 9 61 15
3 24 25 68
3 65 19 25
3 93 24 43
3 65 99 44
5 61 15 87 12 58
3 12 93 19
3 87 99 68
3 44 103 43
3 58 68 103
3 15 19 103
3 61 93 99
3 20 79 51
3 3 20 9
3 23 20 64
3 1 37 8
5 8 64 27 42 9
3 9 78 8
3 8 28 64
5 79 37 23 71 28
3 37 56 79
3 42 23 37
5 3 1 51 78 56
3 71 51 1
3 1 3 27
3 28 57 79
3 42 9 57
3 30 51 78
3 56 3 88
3 30 27 64
3 88 23 71
3 56 78 45
3 45 28 71
3 45 42 27
3 88 57 30
3 0 54 40
3 0 5 84
5 5 97 96 40 0
3 0 56 78
3 37 8 70
3 13 84 8
5 70 8 13 103 49
3 58 8 78
3 37 66 54
5 37 66 103 48 70
3 37 15 56
5 54 40 48 97 66
3 54 18 58
5 96 49 5 84 13
3 18 84 15
3 40 48 70
3 5 49 70
3 13 96 40
3 5 97 66
5 15 56 78 58 18
3 78 49 96
3 48 97 56
3 66 103 13
3 58 48 103
3 15 49 103
3 18 96 97
3 20 77 3
5 20 77 33 104 90
5 20 3 89 104 12
3 12 64 20
3 20 65 90
3 2 84 7
5 2 7 91 105 32
5 84 7 27 105 19
3 27 64 7
3 65 91 7
3 81 2 77
5 17 105 81 2 84
3 90 2 32
5 77 3 17 104 81
3 91 77 33
3 17 84 3
3 12 84 19
3 27 3 89
5 19 89 27 64 12
3 32 64 33
5 65 90 32 33 91
3 65 19 89
3 12 81 104
3 90 17 104
3 81 105 27
3 91 105 17
3 32 19 105
3 33 104 89
3 36 39 69
5 69 67 106 92 36
3 63 25 36
5 39 36 63 106 76
3 36 26 92
3 2 41 7
5 7 11 105 35 41
3 11 25 7
3 26 7 91
3 14 69 2
5 14 2 41 74 105
3 32 2 92
5 39 69 14 106 74
3 91 69 67
3 41 39 74
3 35 41 63
5 63 25 11 76 35
3 25 67 32
3 76 39 11
5 67 91 26 92 32
3 26 76 35
3 63 106 14
3 11 14 105
3 92 74 106
3 91 105 74
3 35 105 32
3 76 106 67
3 51 77 20
5 87 20 51 34 104
3 20 23 87
3 20 24 90
3 54 69 36
5 36 54 68 106 71
3 36 23 71
3 36 92 24
3 73 77 69
5 73 106 82 54 69
3 90 67 69
5 82 104 73 77 51
3 92 33 77
3 54 51 82
3 87 54 68
3 34 51 71
5 68 34 71 23 87
3 23 67 33
5 67 33 92 24 90
3 34 68 24
3 87 73 104
3 71 106 73
3 82 104 90
3 82 106 92
3 67 68 106
3 34 104 33
3 36 79 54
3 36 39 70
3 23 36 25
3 1 21 8
5 8 25 11 42 70
3 8 70 6
3 8 25 53
5 79 21 23 87 53
3 21 79 56
3 21 42 23
5 1 54 6 56 39
3 1 54 87
3 1 11 39
3 44 79 53
3 6 54 66
3 42 44 70
3 11 25 66
3 72 56 39
3 72 87 23
3 6 56 15
3 15 53 87
3 11 42 15
3 66 44 72
3 4 51 0
3 0 41 85
5 4 96 102 85 0
3 0 56 6
3 8 21 9
5 8 21 45 107 58
5 9 8 29 107 49
3 8 29 41
3 6 8 58
5 21 9 61 107 30
3 21 51 30
3 56 21 45
3 4 61 9
3 85 49 9
5 30 102 61 4 51
3 51 83 58
5 85 41 29 96 49
3 45 41 83
3 96 4 29
3 85 102 30
5 56 6 58 83 45
3 6 49 96
3 61 102 56
3 29 30 107
3 58 107 61
3 45 107 49
3 96 102 83
3 36 24 79
3 36 26 70
5 26 100 94 24 36
3 63 71 36
3 8 64 21
3 8 70 43
5 8 64 35 107 43
3 8 58 63
3 21 79 57
5 21 64 34 107 57
3 71 21 45
5 34 100 57 79 24
3 58 48 79
5 94 35 26 70 43
3 48 70 45
3 24 34 64
3 35 64 26
3 43 94 24
3 57 26 100
5 58 48 45 71 63
3 63 94 35
3 57 107 43
3 71 100 34
3 34 107 58
3 35 107 45
3 48 100 94
3 36 54 40
3 36 25 62
5 62 36 40 94 106
3 36 71 28
3 8 1 41
5 58 8 1 31 108
5 13 8 41 35 108
3 8 25 13
3 28 8 58
3 1 54 14
5 41 1 14 108 83
3 71 31 1
5 14 106 83 40 54
3 58 54 68
3 40 41 83
3 62 41 35
5 94 35 62 25 13
3 31 25 68
3 13 94 40
3 62 106 14
5 28 71 31 68 58
3 28 35 94
3 71 106 83
3 13 108 14
3 83 108 58
3 31 108 35
3 68 94 106
3 20 4 51
5 10 104 93 4 20
3 20 64 10
3 53 87 20
3 8 1 84
5 29 108 19 84 8
3 29 64 8
3 58 8 53
3 81 51 1
5 1 81 108 18 84
3 31 1 87
5 81 51 4 18 104
3 51 34 58
3 18 84 4
3 19 84 10
3 29 93 4
5 29 64 10 19 93
3 31 34 64
5 53 87 31 34 58
3 53 93 19
3 81 10 104
3 87 18 104
3 29 81 108
3 58 108 18
3 31 19 108
3 34 93 104
3 7 65 9
3 26 70 7
5 26 101 98 65 7
3 7 27 11
3 21 23 37
5 21 45 109 15 37
3 44 70 37
5 37 44 109 76 23
3 11 15 37
3 21 57 9
5 21 23 89 109 57
3 21 45 27
5 65 9 57 101 89
3 15 49 9
5 76 98 44 70 26
3 49 70 45
3 23 89 65
3 26 76 23
3 65 98 44
3 57 26 101
5 45 49 15 11 27
3 11 98 76
3 27 101 89
3 44 109 57
3 89 109 15
3 45 109 76
3 49 98 101
3 7 84 9
3 7 70 41
3 25 64 7
3 37 21 1
5 70 28 63 25 37
3 37 70 6
3 37 25 53
5 21 9 53 12 64
3 78 9 21
3 28 64 21
5 1 84 6 78 41
3 12 84 1
3 1 41 63
3 43 9 53
3 13 84 6
3 28 43 70
3 29 78 41
3 13 63 25
3 29 64 12
3 78 6 58
3 53 12 58
3 28 63 58
3 29 43 13
3 0 3 52
3 0 55 39
5 0 52 97 102 55
3 0 78 6
3 21 79 37
5 37 79 48 109 72
3 39 72 37
3 6 37 15
5 88 21 79 61 109
3 21 88 3
3 78 45 21
3 52 61 79
3 55 79 48
5 52 3 88 102 61
3 15 75 3
5 72 97 48 55 39
3 45 39 75
3 72 97 52
3 88 55 102
5 45 75 15 6 78
3 6 97 48
3 78 102 61
3 72 109 88
3 15 109 61
3 48 109 45
3 75 97 102
3 20 3 52
3 20 23 80
5 80 20 52 99 104
3 20 12 53
3 37 54 1
5 1 31 110 15 37
5 54 37 72 110 68
3 37 23 72
3 53 15 37
5 73 110 18 54 1
3 3 73 1
3 12 1 31
3 52 18 54
3 80 68 54
5 73 104 18 52 3
3 15 89 3
5 68 99 72 23 80
3 31 23 89
3 52 99 72
3 73 104 80
5 12 53 15 89 31
3 53 99 68
3 12 104 18
3 72 73 110
3 15 18 110
3 68 110 31
3 99 104 89
3 7 84 5
3 7 62 25
5 7 62 105 98 5
3 7 42 27
3 37 39 1
3 66 25 37
5 39 76 110 66 37
3 37 15 42
3 14 84 1
5 1 39 75 110 14
3 31 1 27
5 5 84 14 105 75
3 15 84 19
5 76 98 66 25 62
3 31 19 25
3 5 39 75
3 62 76 39
3 5 98 66
3 62 105 14
5 19 31 27 42 15
3 42 76 98
3 27 105 75
3 66 14 110
3 15 75 110
3 31 110 76
3 98 105 19
3 8 84 9
3 8 70 41
3 8 25 64
3 38 2 22
5 25 38 70 26 62
3 5 38 70
3 38 25 65
5 64 10 65 9 22
3 22 9 85
3 26 22 64
5 84 2 41 85 5
3 10 84 2
3 62 41 2
3 42 9 65
3 5 84 11
3 42 26 70
3 27 85 41
3 11 62 25
3 27 10 64
3 91 85 5
3 65 10 91
3 91 62 26
3 27 42 11
3 4 52 0
3 0 40 55
3 0 5 85
3 50 22 38
5 38 16 111 46 22
5 59 38 50 47 111
3 40 38 59
3 5 16 38
5 22 60 111 86 50
3 4 22 60
3 22 46 85
3 52 50 86
3 55 47 50
5 60 102 86 52 4
3 16 4 96
5 55 40 59 97 47
3 46 96 40
3 52 97 59
5 16 5 85 46 96
3 5 97 47
3 60 55 102
3 86 85 102
3 59 60 111
3 86 111 16
3 47 111 46
3 96 102 97
3 9 53 8
3 28 70 8
5 28 8 53 103 107
3 13 29 8
3 24 22 38
3 38 44 70
5 38 24 94 111 44
3 16 38 13
3 57 9 22
5 57 22 24 93 111
3 29 22 46
5 53 9 57 107 93
3 16 49 9
5 28 94 103 44 70
3 49 70 46
3 24 93 53
3 28 24 94
3 44 103 53
3 28 107 57
5 13 29 46 49 16
3 13 94 103
3 57 111 44
3 29 93 107
3 16 93 111
3 46 111 94
3 49 107 103
3 7 85 41
3 7 64 10
5 7 85 101 105 10
3 7 11 42
3 3 21 1
5 1 21 45 112 31
5 21 3 89 112 30
3 21 64 30
3 45 21 42
5 3 75 112 81 1
3 1 81 41
3 11 1 31
3 3 75 85
3 3 89 10
5 85 41 81 105 75
3 41 35 45
5 30 64 10 89 101
3 31 64 35
3 30 101 85
3 81 105 10
5 31 35 45 42 11
3 42 101 89
3 11 105 75
3 81 112 30
3 45 112 75
3 89 112 31
3 101 105 35
3 39 55 36
3 36 80 23
5 36 55 100 106 80
3 36 63 28
3 21 1 51
5 51 34 112 88 21
3 21 88 23
3 28 21 45
5 73 1 51 83 112
3 73 39 1
3 63 1 31
3 51 83 55
3 80 34 51
5 39 55 83 106 73
3 45 76 39
5 88 100 34 80 23
3 31 76 23
3 88 100 55
3 73 80 106
5 63 28 45 76 31
3 34 100 28
3 83 106 63
3 88 112 73
3 45 112 83
3 31 34 112
3 100 106 76
3 8 84 6
3 8 63 25
5 8 63 108 103 6
3 8 43 29
3 38 2 40
5 2 32 113 16 38
3 38 25 66
5 40 94 113 66 38
3 43 16 38
3 2 14 84
5 40 2 14 113 96
3 32 2 29
5 6 84 14 108 96
3 19 84 16
5 66 25 63 94 103
3 32 25 19
3 6 40 96
3 63 94 40
3 66 6 103
3 14 63 108
5 32 19 16 43 29
3 43 103 94
3 96 108 29
3 66 14 113
3 16 113 96
3 32 113 94
3 19 108 103
3 20 4 52
3 20 80 24
3 10 65 20
3 38 2 69
5 38 69 67 113 59
3 24 59 38
3 38 16 65
5 69 2 82 113 17
3 4 2 82
3 2 32 10
3 69 17 52
3 80 67 69
5 82 104 17 52 4
3 16 4 93
3 59 99 52
5 80 24 59 99 67
3 32 24 93
5 32 10 65 16 93
3 67 99 65
3 82 104 80
3 17 10 104
3 59 82 113
3 16 113 17
3 32 67 113
3 99 104 93
3 37 79 53
3 37 42 70
5 42 109 103 53 37
3 66 72 37
3 65 50 38
3 38 70 43
5 38 65 98 111 43
3 66 59 38
3 57 79 50
5 57 111 99 65 50
3 72 47 50
5 57 79 53 99 109
3 59 79 48
5 42 98 103 43 70
3 47 70 48
3 65 99 53
3 42 65 98
3 43 53 103
3 57 42 109
3 57 111 43
5 47 48 59 66 72
3 66 98 103
3 72 109 99
3 59 99 111
3 47 98 111
3 103 109 48
3 37 79 54
3 39 70 37
3 23 25 37
3 38 69 50
3 40 70 38
3 24 25 38
5 50 79 24 80 23
3 55 50 79
3 26 23 50
5 39 55 40 54 69
3 80 69 54
3 62 39 69
3 28 24 79
3 63 54 40
3 28 70 26
3 63 25 62
3 55 39 71
3 71 80 23
3 55 40 92
3 80 24 92
3 92 62 26
3 63 28 71
3 36 40 55
3 24 80 36
3 26 62 36
3 77 22 2
5 22 2 32 114 46
5 22 77 33 114 60
3 24 60 22
3 26 22 46
5 2 77 74 114 82
3 82 2 40
3 62 2 32
3 74 77 55
3 80 33 77
5 74 55 40 82 106
3 46 94 40
5 24 80 33 100 60
3 24 94 32
3 60 55 100
3 80 106 82
5 32 94 46 26 62
3 26 100 33
3 62 106 74
3 60 82 114
3 46 114 74
3 33 114 32
3 100 106 94
3 8 41 78
3 12 64 8
5 8 12 108 107 78
3 13 43 8
3 4 2 22
5 4 22 30 114 93
3 30 64 22
3 43 22 46
3 2 81 41
5 2 4 96 114 81
3 13 2 32
5 78 41 81 108 96
3 46 41 35
3 78 4 96
3 4 93 12
5 93 107 30 64 12
3 35 64 32
3 78 107 30
3 81 12 108
5 35 46 43 13 32
3 43 93 107
3 96 108 13
3 30 81 114
3 46 96 114
3 93 114 32
3 35 107 108
3 6 54 37
3 11 25 37
5 6 37 11 110 103
3 37 44 72
3 5 69 38
3 38 25 13
5 38 13 113 98 5
3 38 59 44
3 14 69 54
5 5 97 113 14 69
3 72 69 67
5 14 110 97 6 54
3 59 68 54
5 98 103 13 25 11
3 68 25 67
3 5 97 6
3 11 5 98
3 13 103 6
3 11 110 14
3 13 113 14
5 59 68 67 72 44
3 44 98 103
3 97 110 72
3 97 113 59
3 67 113 98
3 103 110 68
3 21 79 51
3 9 21 3
3 21 64 23
3 50 22 77
3 9 22 4
3 24 22 64
3 52 50 79
3 65 50 23
3 53 79 24
5 77 51 4 52 3
3 77 51 80
3 10 77 3
3 65 9 53
3 4 51 12
3 52 3 87
3 90 4 52
3 12 64 10
3 87 23 80
3 90 24 80
3 90 65 10
3 12 53 87
3 28 79 21
3 42 9 21
5 42 21 28 107 109
3 21 30 88
3 26 22 50
3 43 9 22
5 26 101 111 43 22
3 22 60 30
3 44 79 50
5 44 111 100 26 50
3 88 50 86
5 28 100 109 44 79
3 60 79 61
5 43 9 42 101 107
3 61 9 86
3 28 26 100
3 42 101 26
3 43 107 28
3 44 42 109
3 44 111 43
5 61 86 88 30 60
3 101 107 30
3 88 109 100
3 100 111 60
3 101 111 86
3 61 107 109
3 39 56 37
3 37 87 23
5 87 37 56 109 110
3 37 66 44
3 50 69 52
5 69 67 115 47 50
3 88 23 50
5 52 99 115 88 50
3 47 50 44
3 69 39 73
5 69 73 115 97 52
3 66 69 67
5 56 39 73 110 97
3 47 76 39
5 23 87 99 109 88
3 23 76 67
3 52 97 56
3 87 99 52
3 88 56 109
3 73 87 110
5 47 44 66 67 76
3 99 109 44
3 66 97 110
3 88 115 73
3 97 115 47
3 99 115 67
3 76 109 110
3 5 85 7
3 10 65 7
3 7 62 26
3 77 69 50
5 50 77 33 115 86
3 65 86 50
3 26 47 50
5 17 69 77 74 115
3 17 69 5
3 62 69 67
3 85 74 77
3 10 77 33
5 85 5 17 105 74
3 5 98 47
5 10 65 86 101 33
3 67 98 65
3 85 101 86
5 26 62 67 98 47
3 33 101 26
3 17 10 105
3 62 105 74
3 17 115 86
3 47 74 115
3 67 33 115
3 98 101 105
3 51 78 21
3 21 27 64
5 21 27 112 107 78
3 57 88 21
3 22 77 85
3 22 29 64
5 22 85 101 114 29
3 60 22 57
3 81 51 77
5 81 77 85 102 114
3 88 33 77
5 78 51 81 112 102
3 51 34 60
5 64 27 101 107 29
3 34 64 33
3 85 102 78
3 85 101 27
3 29 78 107
3 27 112 81
3 81 114 29
5 33 34 60 57 88
3 57 107 101
3 88 112 102
3 102 114 60
3 33 114 101
3 34 112 107
3 54 63 1
3 1 11 84
5 1 63 108 110 11
3 1 81 73
3 69 2 62
3 2 84 13
5 62 2 13 113 105
3 82 2 81
3 69 54 66
5 62 69 66 113 106
3 73 17 69
5 54 63 106 110 66
3 82 18 54
5 13 84 11 105 108
3 17 18 84
3 63 62 106
3 11 62 105
3 63 108 13
3 66 110 11
3 13 113 66
5 17 73 81 82 18
3 105 108 81
3 73 106 110
3 82 113 106
3 17 105 113
3 18 110 108
3 54 1 51
3 3 84 1
3 39 1 41
3 77 2 69
3 4 84 2
3 40 2 41
3 52 54 69
3 5 39 69
3 55 77 51
3 85 3 77
3 40 54 6
3 78 4 51
3 5 84 6
3 56 52 3
3 78 41 85
3 56 55 39
3 95 4 52
3 95 40 55
3 85 5 95
3 78 6 56
3 21 3 56
3 21 71 23
5 21 71 112 109 56
3 30 57 21
3 50 77 55
3 72 50 23
5 55 100 115 72 50
3 50 86 57
3 73 77 3
5 55 102 115 73 77
3 33 77 30
5 56 3 73 112 102
3 3 89 86
5 71 23 72 109 100
3 33 89 23
3 56 55 102
3 55 100 71
3 72 56 109
3 73 112 71
5 86 89 33 30 57
3 100 109 57
3 73 72 115
3 30 102 112
3 86 115 102
3 33 115 100
3 109 112 89
3 8 78 6
3 8 53 12
3 28 63 8
3 54 51 79
5 79 48 116 68 54
5 79 61 116 34 51
3 61 79 53
3 48 79 28
5 51 83 116 18 54
3 18 54 6
3 63 68 54
3 78 51 83
3 12 51 34
5 78 6 18 108 83
3 48 103 6
5 61 107 34 12 53
3 68 53 103
3 61 78 107
5 63 28 48 103 68
3 34 28 107
3 18 12 108
3 63 108 83
3 18 116 61
3 48 83 116
3 68 116 34
3 103 107 108
3 40 95 38
3 24 90 38
5 38 90 113 111 95
3 38 44 66
3 54 79 52
5 52 79 60 116 99
3 60 79 24
3 44 79 48
3 82 40 54
5 52 97 116 82 54
3 68 54 66
5 97 113 82 40 95
3 40 94 48
3 52 97 95
3 52 99 90
5 60 24 90 99 111
3 24 94 68
3 95 111 60
3 82 90 113
5 44 66 68 94 48
3 99 111 44
3 66 113 97
3 60 116 82
3 48 97 116
3 99 116 68
3 111 113 94
3 1 12 51
3 1 27 41
5 12 1 27 112 108
3 1 73 14
3 10 77 2
3 2 29 41
5 2 10 105 114 29
3 14 82 2
3 30 77 51
5 77 10 104 114 30
3 74 77 73
5 12 104 112 30 51
3 83 51 82
5 41 29 108 105 27
3 41 83 74
3 12 10 104
3 27 105 10
3 29 108 12
3 30 112 27
3 30 29 114
5 73 14 82 83 74
3 14 108 105
3 104 112 73
3 104 114 82
3 74 114 105
3 83 112 108
3 1 87 3
3 71 39 1
5 71 1 87 110 112
3 14 81 1
3 77 69 80
3 72 39 69
5 72 115 106 80 69
3 17 69 14
3 88 77 3
5 80 104 115 88 77
3 81 77 74
5 3 87 104 112 88
3 17 75 3
5 39 72 110 106 71
3 75 39 74
3 87 80 104
3 71 106 80
3 87 110 72
3 88 112 71
3 88 115 72
5 75 17 14 81 74
3 106 110 14
3 81 104 112
3 17 115 104
3 106 115 74
3 110 112 75
3 4 95 22
3 22 92 24
5 92 22 95 111 114
3 30 57 22
3 55 79 51
3 59 24 79
5 79 59 116 100 55
3 61 79 57
3 82 4 51
5 55 102 116 82 51
3 34 51 30
5 82 4 95 102 114
3 61 4 93
5 59 111 100 92 24
3 24 93 34
3 55 102 95
3 55 100 92
3 95 111 59
3 82 114 92
5 34 93 61 57 30
3 57 111 100
3 102 114 30
3 82 116 59
3 102 116 61
3 34 100 116
3 111 114 93
3 5 95 38
3 38 65 90
3 43 13 38
3 4 84 9
5 9 49 117 19 84
5 9 86 117 93 4
3 86 65 9
3 43 9 49
5 4 84 17 117 96
3 5 84 17
3 13 19 84
3 95 4 96
3 90 93 4
5 5 95 96 113 17
3 5 98 49
5 86 65 90 93 111
3 19 65 98
3 95 111 86
5 19 98 49 43 13
3 43 111 93
3 17 90 113
3 96 113 13
3 86 117 17
3 49 96 117
3 93 117 19
3 111 113 98
3 6 56 37
3 53 87 37
3 37 42 11
3 9 84 3
5 9 3 89 117 61
3 61 9 53
3 42 9 49
5 84 3 75 117 18
3 6 84 18
3 11 84 19
3 56 3 75
3 87 3 89
5 75 110 18 6 56
3 49 6 103
5 53 87 89 109 61
3 19 53 103
3 61 56 109
5 49 103 19 11 42
3 42 109 89
3 18 110 87
3 75 11 110
3 61 117 18
3 75 117 49
3 89 117 19
3 103 109 110
3 2 90 4
3 2 40 92
5 2 92 114 113 90
3 2 81 14
3 54 51 80
3 59 54 40
5 59 116 106 80 54
3 14 18 54
3 60 4 51
5 60 116 104 80 51
3 83 51 81
5 60 114 104 90 4
3 18 4 96
5 59 113 106 92 40
3 40 96 83
3 80 104 90
3 92 80 106
3 59 113 90
3 60 114 92
5 81 14 18 96 83
3 14 106 113
3 60 59 116
3 81 104 114
3 104 116 18
3 83 106 116
3 96 113 114
3 52 50 95
3 65 91 50
5 91 50 95 111 115
3 50 88 57
3 3 85 9
3 16 65 9
5 9 16 117 101 85
3 57 9 61
3 17 3 52
5 3 85 102 117 17
3 88 89 3
5 52 17 115 102 95
3 61 99 52
5 65 16 111 101 91
3 89 99 65
3 85 102 95
3 91 101 85
3 95 111 16
5 57 88 89 99 61
3 57 101 111
3 91 115 17
3 102 115 88
3 17 16 117
3 61 117 102
3 89 101 117
3 99 115 111
3 21 78 56
3 28 71 21
3 21 42 27
3 41 39 70
5 70 49 118 35 41
5 39 76 118 48 70
3 48 70 28
3 49 70 42
5 41 39 75 118 83
3 83 41 78
3 27 41 35
3 75 39 56
3 71 76 39
5 75 112 83 78 56
3 78 107 49
5 76 109 48 28 71
3 35 107 28
3 48 56 109
5 35 107 49 42 27
3 76 109 42
3 83 112 71
3 27 112 75
3 48 83 118
3 49 75 118
3 76 118 35
3 109 112 107
3 85 95 22
3 22 92 26
3 29 43 22
3 41 40 70
5 47 118 94 40 70
3 47 26 70
3 49 70 43
5 40 96 118 74 41
3 74 41 85
3 29 35 41
3 95 96 40
3 92 40 94
5 85 95 96 114 74
3 49 101 85
5 94 111 47 26 92
3 26 101 35
3 95 111 47
5 35 29 43 49 101
3 94 111 43
3 92 114 74
3 29 114 96
3 74 118 47
3 96 118 49
3 94 118 35
3 101 114 111
3 52 90 69
3 5 91 69
5 91 115 113 90 69
3 69 73 14
3 3 10 84
3 5 84 16
5 10 84 16 117 105
3 18 84 14
3 3 52 86
5 10 3 86 117 104
3 73 75 3
5 86 52 90 104 115
3 18 52 97
5 5 91 105 113 16
3 5 97 75
3 90 104 10
3 91 105 10
3 16 113 90
3 91 115 86
5 14 73 75 97 18
3 14 105 113
3 73 115 104
3 86 16 117
3 18 117 104
3 105 117 75
3 97 113 115
3 50 95 55
3 50 26 91
3 50 44 72
3 5 70 39
5 46 70 5 98 118
3 26 70 46
3 48 44 70
5 39 5 97 118 74
3 74 55 39
3 76 39 72
3 97 5 95
3 91 98 5
5 55 95 97 115 74
3 48 100 55
5 26 46 111 98 91
3 76 26 100
3 95 111 46
5 76 72 44 48 100
3 98 111 44
3 74 115 91
3 97 72 115
3 74 46 118
3 48 97 118
3 98 118 76
3 111 115 100
3 52 79 56
3 58 79 53
5 79 56 109 116 58
3 60 79 57
3 9 78 4
3 15 53 9
5 9 78 107 117 15
3 86 57 9
3 4 52 18
5 18 117 102 78 4
3 4 93 60
5 56 102 116 18 52
3 86 99 52
5 53 58 107 109 15
3 53 93 99
3 102 78 56
3 78 107 58
3 15 109 56
5 57 60 93 99 86
3 57 109 107
3 18 58 116
3 18 117 15
3 60 102 116
3 102 117 86
3 93 107 117
3 99 109 116
3 10 90 2
3 62 92 2
3 13 29 2
3 24 64 25
5 64 35 119 19 25
5 25 24 94 119 67
3 67 25 62
3 19 25 13
5 33 64 24 93 119
3 33 64 10
3 29 64 35
3 93 24 90
3 94 24 92
5 93 114 33 10 90
3 19 10 105
5 62 92 94 113 67
3 62 105 35
3 90 113 67
5 19 105 35 29 13
3 13 113 94
3 92 114 33
3 93 29 114
3 67 33 119
3 93 119 19
3 94 119 35
3 105 114 113
3 1 12 87
3 1 71 63
3 1 27 11
3 23 64 25
5 25 68 119 76 23
3 63 25 68
3 19 25 11
5 23 64 34 119 89
3 34 64 12
3 35 64 27
3 89 23 87
3 76 23 71
5 87 12 34 112 89
3 19 108 12
5 68 110 76 71 63
3 35 108 63
3 68 87 110
5 19 108 35 27 11
3 11 110 76
3 34 112 71
3 89 27 112
3 34 119 68
3 89 119 19
3 76 119 35
3 110 112 108
3 55 92 77
3 77 91 85
5 77 92 114 115 91
3 77 73 81
3 41 62 39
3 46 85 41
5 62 41 46 118 105
3 83 41 81
3 47 55 39
5 47 39 62 106 118
3 73 39 75
5 55 92 106 115 47
3 83 102 55
5 85 46 114 105 91
3 75 85 102
3 92 62 106
3 62 105 91
3 92 114 46
3 47 115 91
5 83 102 75 73 81
3 81 105 114
3 73 106 115
3 47 46 118
3 106 118 83
3 75 118 105
3 114 115 102
3 52 87 54
3 54 6 58
5 54 87 110 116 58
3 82 14 54
3 12 84 4
3 6 84 15
5 15 117 108 12 84
3 14 84 17
3 52 4 61
5 4 61 117 104 12
3 82 96 4
5 52 61 116 104 87
3 17 97 52
5 58 6 15 110 108
3 96 97 6
3 12 87 104
3 58 108 12
3 15 87 110
5 82 14 17 97 96
3 108 110 14
3 58 116 61
3 15 117 61
3 82 116 104
3 17 117 104
3 108 117 96
3 97 116 110
3 80 69 90
3 62 91 69
3 72 66 69
3 23 25 65
5 32 119 98 65 25
3 32 25 62
3 68 66 25
5 33 23 65 99 119
3 33 80 23
3 72 76 23
3 90 99 65
3 91 98 65
5 80 33 115 99 90
3 68 80 106
5 91 62 32 113 98
3 76 106 62
3 32 113 90
5 68 106 76 72 66
3 98 113 66
3 91 115 33
3 99 115 72
3 32 119 33
3 68 99 119
3 76 119 98
3 106 113 115
3 55 79 56
3 58 28 79
3 44 79 59
3 40 6 70
5 45 118 103 6 70
3 45 28 70
3 47 70 44
3 55 40 83
5 40 83 118 97 6
3 59 94 40
5 55 83 116 97 56
3 55 100 47
3 97 56 6
3 58 6 103
5 45 109 103 58 28
3 28 100 94
3 45 109 56
5 47 44 59 94 100
3 103 109 44
3 58 116 83
3 97 116 59
3 83 118 45
3 47 97 118
3 94 118 103
3 109 116 100
3 80 92 77
3 10 91 77
3 77 88 30
3 26 64 23
5 64 32 119 101 26
3 32 64 10
3 34 64 30
3 67 23 80
5 26 23 67 119 100
3 88 89 23
5 80 92 100 115 67
3 34 80 104
3 26 100 92
3 91 26 101
5 10 91 101 114 32
3 89 10 104
3 92 114 32
3 91 115 67
5 88 30 34 104 89
3 30 101 114
3 100 115 88
3 32 119 67
3 100 119 34
3 101 119 89
3 104 114 115
3 55 51 71
3 51 78 58
5 58 51 71 112 116
3 82 51 81
3 40 63 41
3 41 78 45
5 41 45 118 108 63
3 74 41 81
3 48 55 40
5 48 118 106 63 40
3 82 40 96
5 55 71 106 116 48
3 74 55 102
5 58 78 45 112 108
3 78 96 102
3 71 106 63
3 58 108 63
3 45 112 71
3 48 58 116
5 82 81 74 102 96
3 108 112 81
3 45 118 48
3 106 116 82
3 106 118 74
3 96 118 108
3 102 112 116
3 54 87 80
3 58 54 63
3 59 54 66
3 24 53 25
5 25 53 103 119 31
3 31 25 63
3 66 25 67
3 24 80 34
5 53 24 34 119 99
3 24 94 59
5 80 87 99 116 34
3 67 106 80
3 53 87 99
3 58 103 53
5 58 63 31 110 103
3 63 94 106
3 31 110 87
5 66 67 106 94 59
3 66 103 110
3 58 116 34
3 99 116 59
3 34 119 31
3 67 119 99
3 94 119 103
3 106 110 116
3 78 9 85
3 15 42 9
3 9 43 16
3 5 70 6
3 45 42 70
3 46 70 43
3 75 85 5
5 6 96 118 75 5
3 16 5 98
5 78 85 75 117 96
3 46 85 101
3 96 78 6
3 6 103 15
3 78 107 45
5 45 107 103 15 42
3 98 101 42
5 46 43 16 98 101
3 103 107 43
3 15 117 75
3 16 117 96
3 75 118 45
3 96 118 46
3 103 118 98
3 107 117 101
3 80 51 71
3 58 51 12
3 60 30 51
3 24 64 28
5 31 119 107 28 64
3 12 64 31
3 30 64 33
3 68 24 80
5 24 28 100 119 68
3 24 93 60
5 68 80 71 100 116
3 33 80 104
3 100 28 71
3 58 107 28
5 12 31 112 107 58
3 12 93 104
3 71 112 31
5 30 33 104 93 60
3 30 107 112
3 58 116 68
3 100 116 60
3 31 119 68
3 33 100 119
3 93 107 119
3 104 116 112
3 3 27 85
3 3 56 15
5 3 15 117 112 27
3 3 73 17
3 11 39 5
3 45 56 39
5 11 39 45 118 110
3 73 39 74
3 49 85 5
5 5 49 118 105 11
3 17 97 5
5 49 117 105 27 85
3 74 85 102
5 45 112 110 15 56
3 56 102 97
3 27 105 11
3 15 11 110
3 45 112 27
3 15 117 49
5 74 102 97 17 73
3 110 112 73
3 49 45 118
3 17 117 105
3 74 118 105
3 97 118 110
3 112 117 102
3 10 84 12
3 15 11 84
3 16 13 84
3 65 53 25
3 31 11 25
3 25 13 32
5 53 93 119 89 65
3 89 65 10
3 16 65 98
3 93 12 53
3 15 103 53
5 93 12 10 89 117
3 32 10 105
3 31 108 12
5 11 31 108 103 15
3 11 98 105
5 16 13 32 105 98
3 13 108 103
3 15 117 89
3 93 117 16
3 89 119 31
3 32 119 93
3 103 119 98
3 108 117 105
3 10 3 27
3 3 87 15
3 86 3 88
3 65 42 23
5 23 42 109 119 31
3 31 87 23
3 23 88 33
3 10 65 19
5 65 42 101 119 19
3 86 65 99
5 19 10 27 101 117
3 33 104 10
3 42 27 101
3 42 109 15
5 31 112 109 15 87
3 87 99 104
3 31 27 112
5 88 33 104 99 86
3 88 109 112
3 19 117 15
3 86 117 101
3 19 31 119
3 101 119 33
3 99 119 109
3 104 117 112
3 4 29 78
3 16 95 4
5 16 117 114 29 4
3 18 82 4
3 6 40 13
3 40 95 46
5 40 13 113 118 46
3 82 40 83
3 49 78 6
5 13 108 118 49 6
3 6 97 18
5 78 29 108 117 49
3 83 102 78
5 95 16 113 114 46
3 95 102 97
3 29 108 13
3 16 113 13
3 29 114 46
3 49 117 16
5 82 83 102 97 18
3 82 113 114
3 49 118 46
3 18 117 108
3 83 118 108
3 113 118 97
3 114 117 102
3 62 63 41
3 45 41 27
3 41 29 46
3 28 64 26
3 27 64 31
3 29 64 32
3 76 26 62
5 94 28 26 76 119
3 46 101 26
5 63 62 76 118 94
3 32 105 62
3 28 63 94
3 45 28 107
3 31 108 63
5 31 108 107 45 27
3 27 101 105
5 29 46 101 105 32
3 29 107 108
3 76 45 118
3 46 118 94
3 31 119 76
3 32 119 94
3 101 119 107
3 105 108 118
3 11 39 62
3 39 71 45
3 39 72 47
3 23 42 26
3 31 71 23
3 67 23 72
3 35 62 26
5 42 26 35 119 98
3 47 100 26
5 62 35 118 98 11
3 62 106 67
3 98 42 11
3 45 109 42
3 31 110 11
5 45 109 110 31 71
3 71 100 106
5 72 67 106 100 47
3 72 109 110
3 45 118 35
3 31 119 35
3 47 98 118
3 67 119 98
3 100 109 119
3 110 118 106
3 4 29 12
3 16 4 90
3 60 4 61
3 53 24 43
5 32 119 111 43 24
3 32 90 24
3 34 60 24
3 12 53 19
5 19 119 107 43 53
3 61 99 53
5 12 19 117 107 29
3 34 104 12
3 43 107 29
3 16 43 111
5 32 114 111 16 90
3 90 99 104
3 32 114 29
5 34 60 61 99 104
3 60 111 114
3 19 16 117
3 61 117 107
3 32 119 19
3 107 119 34
3 99 119 111
3 104 117 114
3 52 72 56
3 59 95 52
5 72 52 59 116 115
3 17 52 18
3 6 5 66
3 47 95 5
5 66 5 47 118 113
3 5 75 17
3 48 56 6
5 48 6 66 110 118
3 6 96 18
5 48 56 72 110 116
3 75 102 56
5 47 115 113 59 95
3 95 102 96
3 72 110 66
3 59 113 66
3 72 115 47
3 48 59 116
5 75 17 18 96 102
3 113 115 17
3 47 118 48
3 18 110 116
3 110 118 75
3 96 118 113
3 102 115 116
3 63 13 40
3 40 92 46
3 48 59 40
3 28 43 24
3 32 92 24
3 59 68 24
3 35 63 28
5 43 28 35 119 103
3 28 100 48
5 63 13 103 118 35
3 68 106 63
3 13 103 43
3 43 111 46
3 13 113 32
5 32 113 111 46 92
3 92 100 106
5 48 100 106 68 59
3 111 113 59
3 35 46 118
3 35 32 119
3 48 103 118
3 68 103 119
3 100 119 111
3 106 118 113
3 87 72 52
3 59 90 52
3 52 86 61
3 53 65 44
3 65 90 67
5 67 65 44 111 119
3 65 89 86
3 53 87 68
5 44 53 68 119 109
3 53 93 61
5 72 87 68 116 109
3 87 104 89
5 90 59 111 115 67
3 93 104 90
3 44 109 72
3 59 44 111
3 72 115 67
3 68 59 116
5 86 61 93 104 89
3 86 111 115
3 61 116 109
3 67 119 68
3 89 119 109
3 93 111 119
3 104 116 115
3 56 55 88
3 60 95 55
5 60 116 115 88 55
3 74 83 55
3 78 85 30
3 85 95 86
5 85 30 114 117 86
3 74 85 75
3 61 78 56
5 78 61 117 112 30
3 78 83 96
5 88 56 61 116 112
3 75 97 56
5 95 60 114 115 86
3 96 97 95
3 88 112 30
3 30 114 60
3 88 115 86
3 61 116 60
3 61 117 86
5 75 74 83 96 97
3 114 115 74
3 112 116 83
3 75 112 117
3 96 114 117
3 97 115 116
3 11 5 66
3 5 47 91
3 5 49 16
3 42 44 65
3 67 91 65
3 19 65 16
3 76 11 42
5 42 76 119 103 44
3 49 101 42
5 11 76 118 103 66
3 19 11 105
3 44 103 66
3 47 111 44
3 66 67 113
5 67 113 111 47 91
3 101 105 91
5 16 19 105 101 49
3 16 113 111
3 47 118 76
3 67 76 119
3 49 103 118
3 19 103 119
3 111 119 101
3 113 118 105
3 71 55 88
3 60 55 92
3 47 55 48
3 26 57 28
3 26 92 33
5 57 26 33 119 111
3 26 76 47
3 28 71 34
5 34 28 57 109 119
3 48 94 28
5 34 116 109 88 71
3 71 106 76
5 60 111 115 33 92
3 94 106 92
3 88 109 57
3 60 111 57
3 88 33 115
3 60 116 34
5 47 76 106 94 48
3 111 115 47
3 48 116 109
3 34 119 33
3 76 109 119
3 111 119 94
3 106 116 115
3 87 73 80
3 82 90 80
5 82 116 115 73 80
3 34 80 33
3 10 81 12
3 10 90 17
5 17 10 81 114 117
3 33 89 10
3 12 87 18
5 81 12 18 117 112
3 12 93 34
5 18 116 112 73 87
3 87 99 89
5 17 90 82 114 115
3 90 93 99
3 81 73 112
3 82 114 81
3 73 17 115
3 82 116 18
3 18 117 17
5 34 93 99 89 33
3 33 115 114
3 34 116 112
3 89 117 112
3 114 117 93
3 115 116 99
3 27 85 30
3 86 85 91
3 49 46 85
3 26 57 42
3 33 91 26
3 35 46 26
3 89 42 27
5 57 42 89 119 107
3 49 98 42
5 30 107 117 89 27
3 35 105 27
3 57 107 30
3 57 111 86
5 91 86 111 114 33
3 98 105 91
3 33 114 30
3 89 117 86
5 49 46 35 105 98
3 46 114 111
3 89 119 33
3 107 117 49
3 107 119 35
3 111 119 98
3 114 117 105
3 13 66 6
3 6 58 48
3 6 49 15
3 44 43 53
3 53 68 58
3 19 53 15
3 43 13 94
5 44 98 119 94 43
3 49 43 107
5 94 13 66 98 118
3 13 108 19
3 98 44 66
3 44 109 48
3 68 110 66
5 58 48 109 110 68
3 107 108 58
5 19 108 107 49 15
3 109 110 15
3 48 118 94
3 94 119 68
3 98 118 49
3 19 98 119
3 109 119 107
3 108 118 110
3 73 80 71
3 80 82 92
3 68 80 67
3 63 14 62
3 74 92 62
5 62 14 113 118 74
3 67 76 62
3 83 71 63
5 63 83 118 110 14
3 68 94 63
5 83 71 73 110 116
3 76 100 71
5 74 115 113 82 92
3 94 100 92
3 73 14 110
3 82 113 14
3 74 115 73
3 83 116 82
3 74 118 83
5 76 67 68 94 100
3 67 113 115
3 68 116 110
3 76 110 118
3 113 118 94
3 100 116 115
3 27 81 10
3 17 10 91
3 19 32 10
3 14 62 11
3 62 74 91
3 32 62 35
3 11 27 75
5 75 11 14 108 118
3 19 98 11
5 75 117 108 81 27
3 35 101 27
5 91 17 113 114 74
3 91 98 101
3 81 108 14
3 17 113 14
3 81 114 74
3 75 117 17
5 32 19 98 101 35
3 32 113 114
3 75 74 118
3 19 117 108
3 108 118 35
3 113 118 98
3 101 117 114
3 30 78 29
3 58 61 78
3 49 45 78
3 28 43 57
3 34 58 28
3 35 45 28
3 43 29 93
5 57 101 119 93 43
3 43 103 49
5 29 30 101 117 93
3 35 108 29
3 30 101 57
3 57 109 61
3 30 34 112
5 61 58 34 112 109
3 58 108 103
5 49 103 108 35 45
3 109 112 45
3 93 117 61
3 101 117 49
3 93 119 34
3 101 119 35
3 109 119 103
3 112 117 108
3 12 29 81
3 18 58 12
3 12 31 19
3 14 63 13
3 58 83 63
3 31 63 35
3 96 13 29
5 96 13 14 105 118
3 13 103 19
5 81 29 96 117 105
3 29 35 107
3 81 105 14
3 18 110 14
5 58 83 112 110 18
3 103 107 58
3 83 112 81
5 31 35 107 103 19
3 31 110 112
3 96 117 18
3 83 96 118
3 19 117 105
3 35 105 118
3 110 118 103
3 107 117 112
3 56 88 72
3 61 15 56
3 48 56 45
3 42 57 44
3 42 15 89
3 42 76 45
5 57 100 119 99 44
3 44 72 99
3 44 48 103
3 57 100 88
3 61 107 57
5 72 99 116 100 88
3 76 110 72
3 88 112 89
5 15 89 112 107 61
3 15 103 110
5 45 76 110 103 48
3 45 107 112
3 61 116 99
3 48 100 116
3 99 119 89
3 76 100 119
3 103 107 119
3 112 116 110
3 72 87 73
3 15 87 18
3 31 87 68
3 11 66 14
3 15 75 11
3 11 76 31
3 72 97 66
5 66 14 106 118 97
3 68 103 66
5 72 73 106 116 97
3 76 72 109
3 73 106 14
3 18 108 14
5 15 18 108 112 75
3 103 109 15
3 75 112 73
5 31 68 103 109 76
3 31 108 112
3 18 97 116
3 68 116 106
3 97 118 75
3 76 118 106
3 108 118 103
3 109 116 112
3 59 95 60
3 16 95 86
3 46 95 47
3 44 43 57
3 43 16 93
3 46 94 43
3 44 99 59
3 44 98 47
3 57 100 60
3 57 86 101
5 59 60 100 115 99
3 94 59 113
3 60 93 114
5 86 101 114 93 16
3 16 113 98
3 99 115 86
5 46 47 98 113 94
3 46 101 114
3 47 115 100
3 93 99 119
3 100 119 94
3 98 101 119
3 113 114 115
3 73 88 71
3 71 45 83
3 34 31 71
3 27 81 30
3 75 27 45
3 31 27 89
3 88 102 30
5 30 81 104 117 102
3 30 34 107
5 102 88 73 104 116
3 89 88 109
3 81 73 104
3 81 108 83
3 73 110 75
5 45 75 110 108 83
3 107 109 45
5 34 107 109 89 31
3 31 110 108
3 102 116 83
3 34 104 116
3 75 117 102
3 104 117 89
3 107 108 117
3 109 110 116
3 82 90 59
3 16 90 17
3 67 32 90
3 13 14 66
3 13 96 16
3 32 94 13
3 59 97 66
3 67 98 66
3 14 106 82
3 17 105 14
5 97 59 82 106 115
3 59 111 94
5 16 17 105 114 96
3 16 98 111
3 96 114 82
3 97 17 115
5 32 94 111 98 67
3 32 114 105
3 106 115 67
3 96 118 97
3 94 106 118
3 98 118 105
3 114 115 111
3 60 92 82
3 74 46 92
3 33 92 32
3 30 81 29
3 29 96 46
3 29 93 32
3 60 102 30
3 33 101 30
3 81 104 82
3 81 74 105
5 82 104 115 102 60
3 60 111 93
3 96 113 82
5 46 96 113 105 74
3 101 111 46
5 33 32 93 111 101
3 105 113 32
3 74 102 115
3 104 115 33
3 96 117 102
3 93 104 117
3 105 117 101
3 111 113 115
3 17 86 91
3 47 91 74
3 67 33 91
3 72 73 88
3 72 97 47
3 67 72 99
3 86 102 88
3 88 100 33
3 73 104 17
3 74 73 106
5 17 86 102 114 104
3 99 111 86
3 17 97 113
5 47 97 113 106 74
3 47 111 100
3 74 102 114
5 67 99 111 100 33
3 67 113 106
3 104 114 33
3 102 116 97
3 99 116 104
3 106 116 100
3 113 114 111
3 61 18 58
3 58 83 48
3 34 68 58
3 59 82 60
3 48 97 59
3 59 68 99
3 60 102 61
3 60 100 34
3 82 104 18
3 83 106 82
5 61 102 112 104 18
3 61 99 109
3 97 110 18
5 97 48 83 106 110
3 48 100 109
3 83 112 102
5 99 68 34 100 109
3 68 106 110
3 104 112 34
3 97 102 115
3 99 115 104
3 100 115 106
3 110 112 109
3 15 18 61
3 15 75 49
3 15 19 89
3 16 86 17
3 16 49 96
3 16 93 19
3 61 102 86
3 89 101 86
3 17 104 18
3 75 105 17
3 61 107 93
3 18 96 108
5 96 49 75 105 108
3 49 107 101
3 102 112 75
5 19 89 101 107 93
3 19 108 105
3 89 112 104
3 96 114 102
3 93 114 104
3 101 105 114
3 108 112 107
3 48 83 45
3 45 75 49
3 45 76 35
3 46 74 47
3 46 96 49
3 46 94 35
3 48 97 47
3 47 98 76
3 74 83 106
3 74 75 105
3 48 103 94
3 96 108 83
3 49 103 98
3 75 97 110
3 96 113 97
5 94 35 76 98 103
3 105 108 35
3 76 110 106
3 94 113 106
3 98 105 113
3 103 110 108
3 31 34 68
3 19 89 31
3 31 76 35
3 32 33 67
3 32 93 19
3 32 35 94
3 67 68 99
3 67 76 98
3 33 34 100
3 33 101 89
3 68 103 94
3 34 93 107
3 19 103 98
3 89 109 99
3 35 101 107
3 100 109 76
3 99 111 93
3 94 100 111
3 98 111 101
3 107 109 103

# Cells
32 0 1 2 3 4 5 6 7 8 9 10 11 12 13 14 15 16 17 18 19 20 21 22 23 24 25 26 27 28 29 30 31
32 32 33 34 35 36 37 38 39 40 41 42 43 44 45 46 47 48 49 50 51 52 53 54 55 56 57 58 59 60 61 62 63
32 64 65 66 67 68 69 70 71 72 73 74 75 76 77 78 79 80 81 82 83 84 85 86 87 88 89 90 91 92 93 94 95
32 65 96 97 98 99 100 101 102 103 104 105 106 107 108 109 110 111 112 113 114 115 116 117 118 119 120 121 122 123 124 125 126
32 7 127 128 129 130 131 132 133 134 135 136 137 138 139 140 141 142 143 144 145 146 147 148 149 150 151 152 153 154 155 156 157
32 158 159 160 161 162 163 164 165 166 167 168 169 170 171 172 173 174 175 176 177 178 179 180 181 182 183 184 185 186 187 188 189
32 33 190 191 192 193 194 195 196 197 198 199 200 201 202 203 204 205 206 207 208 209 210 211 212 213 214 215 216 217 218 219 220
32 71 97 221 222 223 224 225 226 227 228 229 230 231 232 233 234 235 236 237 238 239 240 241 242 243 244 245 246 247 248 249 250
32 165 251 252 253 254 255 256 257 258 259 260 261 262 263 264 265 266 267 268 269 270 271 272 273 274 275 276 277 278 279 280 281
32 1 128 282 283 284 285 286 287 288 289 290 291 292 293 294 295 296 297 298 299 300 301 302 303 304 305 306 307 308 309 310 311
32 159 252 312 313 314 315 316 317 318 319 320 321 322 323 324 325 326 327 328 329 330 331 332 333 334 335 336 337 338 339 340 341
32 39 191 342 343 344 345 346 347 348 349 350 351 352 353 354 355 356 357 358 359 360 361 362 363 364 365 366 367 368 369 370 371
32 3 130 258 313 372 373 374 375 376 377 378 379 380 381 382 383 384 385 386 387 388 389 390 391 392 393 394 395 396 397 398 399
32 197 290 400 401 402 403 404 405 406 407 408 409 410 411 412 413 414 415 416 417 418 419 420 421 422 423 424 425 426 427 428 429
32 67 166 223 318 430 431 432 433 434 435 436 437 438 439 440 441 442 443 444 445 446 447 448 449 450 451 452 453 454 455 456 457
32 100 285 401 458 459 460 461 462 463 464 465 466 467 468 469 470 471 472 473 474 475 476 477 478 479 480 481 482 483 484 485 486
32 35 161 254 344 487 488 489 490 491 492 493 494 495 496 497 498 499 500 501 502 503 504 505 506 507 508 509 510 511 512 513 514
32 105 194 406 459 515 516 517 518 519 520 521 522 523 524 525 526 527 528 529 530 531 532 533 534 535 536 537 538 539 540 541 542
32 73 99 198 348 523 543 544 545 546 547 548 549 550 551 552 553 554 555 556 557 558 559 560 561 562 563 564 565 566 567 568 569
32 229 315 440 570 571 572 573 574 575 576 577 578 579 580 581 582 583 584 585 586 587 588 589 590 591 592 593 594 595 596 597 598
32 10 320 382 576 599 600 601 602 603 604 605 606 607 608 609 610 611 612 613 614 615 616 617 618 619 620 621 622 623 624 625 626
32 41 135 192 283 411 627 628 629 630 631 632 633 634 635 636 637 638 639 640 641 642 643 644 645 646 647 648 649 650 651 652 653
32 4 224 571 600 654 655 656 657 658 659 660 661 662 663 664 665 666 667 668 669 670 671 672 673 674 675 676 677 678 679 680 681
32 168 350 497 682 683 684 685 686 687 688 689 690 691 692 693 694 695 696 697 698 699 700 701 702 703 704 705 706 707 708 709 710
32 8 103 227 288 467 662 711 712 713 714 715 716 717 718 719 720 721 722 723 724 725 726 727 728 729 730 731 732 733 734 735 736
32 68 345 557 683 737 738 739 740 741 742 743 744 745 746 747 748 749 750 751 752 753 754 755 756 757 758 759 760 761 762 763 764
32 74 162 442 688 738 765 766 767 768 769 770 771 772 773 774 775 776 777 778 779 780 781 782 783 784 785 786 787 788 789 790 791
32 45 139 263 373 488 628 792 793 794 795 796 797 798 799 800 801 802 803 804 805 806 807 808 809 810 811 812 813 814 815 816 817
32 14 294 464 659 729 818 819 820 821 822 823 824 825 826 827 828 829 830 831 832 833 834 835 836 837 838 839 840 841 842 843 844
32 77 170 352 431 492 545 699 749 778 845 846 847 848 849 850 851 852 853 854 855 856 857 858 859 860 861 862 863 864 865 866 867
32 109 233 461 655 727 823 868 869 870 871 872 873 874 875 876 877 878 879 880 881 882 883 884 885 886 887 888 889 890 891 892 893
32 136 255 384 808 894 895 896 897 898 899 900 901 902 903 904 905 906 907 908 909 910 911 912 913 914 915 916 917 918 919 920 921
32 42 260 499 811 900 922 923 924 925 926 927 928 929 930 931 932 933 934 935 936 937 938 939 940 941 942 943 944 945 946 947 948
32 36 131 641 805 895 923 949 950 951 952 953 954 955 956 957 958 959 960 961 962 963 964 965 966 967 968 969 970 971 972 973 974
32 12 231 322 377 435 587 615 668 712 975 976 977 978 979 980 981 982 983 984 985 986 987 988 989 990 991 992 993 994 995 996 997
32 78 111 517 560 739 998 999 1000 1001 1002 1003 1004 1005 1006 1007 1008 1009 1010 1011 1012 1013 1014 1015 1016 1017 1018 1019 1020 1021 1022 1023 1024
32 203 354 521 563 743 1003 1025 1026 1027 1028 1029 1030 1031 1032 1033 1034 1035 1036 1037 1038 1039 1040 1041 1042 1043 1044 1045 1046 1047 1048 1049 1050
32 46 205 408 646 954 1051 1052 1053 1054 1055 1056 1057 1058 1059 1060 1061 1062 1063 1064 1065 1066 1067 1068 1069 1070 1071 1072 1073 1074 1075 1076 1077
32 140 296 403 644 950 1056 1078 1079 1080 1081 1082 1083 1084 1085 1086 1087 1088 1089 1090 1091 1092 1093 1094 1095 1096 1097 1098 1099 1100 1101 1102 1103
32 172 324 450 578 770 1104 1105 1106 1107 1108 1109 1110 1111 1112 1113 1114 1115 1116 1117 1118 1119 1120 1121 1122 1123 1124 1125 1126 1127 1128 1129 1130
32 107 201 292 418 473 531 548 632 716 1131 1132 1133 1134 1135 1136 1137 1138 1139 1140 1141 1142 1143 1144 1145 1146 1147 1148 1149 1150 1151 1152 1153
32 80 235 447 573 766 1109 1154 1155 1156 1157 1158 1159 1160 1161 1162 1163 1164 1165 1166 1167 1168 1169 1170 1171 1172 1173 1174 1175 1176 1177 1178 1179
32 16 142 390 602 896 1180 1181 1182 1183 1184 1185 1186 1187 1188 1189 1190 1191 1192 1193 1194 1195 1196 1197 1198 1199 1200 1201 1202 1203 1204 1205 1206
32 264 326 392 606 901 1185 1207 1208 1209 1210 1211 1212 1213 1214 1215 1216 1217 1218 1219 1220 1221 1222 1223 1224 1225 1226 1227 1228 1229 1230 1231 1232
32 178 270 330 380 438 495 796 849 979 1233 1234 1235 1236 1237 1238 1239 1240 1241 1242 1243 1244 1245 1246 1247 1248 1249 1250 1251 1252 1253 1254 1255
32 82 113 237 870 1000 1156 1256 1257 1258 1259 1260 1261 1262 1263 1264 1265 1266 1267 1268 1269 1270 1271 1272 1273 1274 1275 1276 1277 1278 1279 1280 1281
32 120 469 525 874 1004 1260 1282 1283 1284 1285 1286 1287 1288 1289 1290 1291 1292 1293 1294 1295 1296 1297 1298 1299 1300 1301 1302 1303 1304 1305 1306 1307
32 174 266 507 690 928 1308 1309 1310 1311 1312 1313 1314 1315 1316 1317 1318 1319 1320 1321 1322 1323 1324 1325 1326 1327 1328 1329 1330 1331 1332 1333 1334
32 48 356 505 685 925 1313 1335 1336 1337 1338 1339 1340 1341 1342 1343 1344 1345 1346 1347 1348 1349 1350 1351 1352 1353 1354 1355 1356 1357 1358 1359 1360
32 304 412 471 825 1083 1361 1362 1363 1364 1365 1366 1367 1368 1369 1370 1371 1372 1373 1374 1375 1376 1377 1378 1379 1380 1381 1382 1383 1384 1385 1386 1387
32 18 144 298 820 1079 1182 1366 1388 1389 1390 1391 1392 1393 1394 1395 1396 1397 1398 1399 1400 1401 1402 1403 1404 1405 1406 1407 1408 1409 1410 1411 1412
32 244 581 664 877 1159 1261 1413 1414 1415 1416 1417 1418 1419 1420 1421 1422 1423 1424 1425 1426 1427 1428 1429 1430 1431 1432 1433 1434 1435 1436 1437 1438
32 52 207 360 501 551 635 799 852 1135 1237 1439 1440 1441 1442 1443 1444 1445 1446 1447 1448 1449 1450 1451 1452 1453 1454 1455 1456 1457 1458 1459 1460
32 50 210 358 1027 1053 1337 1461 1462 1463 1464 1465 1466 1467 1468 1469 1470 1471 1472 1473 1474 1475 1476 1477 1478 1479 1480 1481 1482 1483 1484 1485 1486
32 213 414 527 1031 1057 1465 1487 1488 1489 1490 1491 1492 1493 1494 1495 1496 1497 1498 1499 1500 1501 1502 1503 1504 1505 1506 1507 1508 1509 1510 1511 1512
32 25 609 666 828 1186 1392 1513 1514 1515 1516 1517 1518 1519 1520 1521 1522 1523 1524 1525 1526 1527 1528 1529 1530 1531 1532 1533 1534 1535 1536 1537 1538
32 20 146 300 386 638 719 802 982 1138 1240 1445 1539 1540 1541 1542 1543 1544 1545 1546 1547 1548 1549 1550 1551 1552 1553 1554 1555 1556 1557 1558 1559
32 90 746 774 1007 1162 1264 1560 1561 1562 1563 1564 1565 1566 1567 1568 1569 1570 1571 1572 1573 1574 1575 1576 1577 1578 1579 1580 1581 1582 1583 1584 1585
32 334 583 611 1111 1213 1586 1587 1588 1589 1590 1591 1592 1593 1594 1595 1596 1597 1598 1599 1600 1601 1602 1603 1604 1605 1606 1607 1608 1609 1610 1611 1612
32 176 268 328 1106 1209 1310 1591 1613 1614 1615 1616 1617 1618 1619 1620 1621 1622 1623 1624 1625 1626 1627 1628 1629 1630 1631 1632 1633 1634 1635 1636 1637
32 365 693 752 1034 1340 1466 1638 1639 1640 1641 1642 1643 1644 1645 1646 1647 1648 1649 1650 1651 1652 1653 1654 1655 1656 1657 1658 1659 1660 1661 1662 1663
32 152 905 958 1087 1189 1395 1664 1665 1666 1667 1668 1669 1670 1671 1672 1673 1674 1675 1676 1677 1678 1679 1680 1681 1682 1683 1684 1685 1686 1687 1688 1689
32 84 115 239 444 554 722 855 985 1141 1243 1448 1548 1690 1691 1692 1693 1694 1695 1696 1697 1698 1699 1700 1701 1702 1703 1704 1705 1706 1707 1708 1709
32 183 695 776 1114 1314 1617 1710 1711 1712 1713 1714 1715 1716 1717 1718 1719 1720 1721 1722 1723 1724 1725 1726 1727 1728 1729 1730 1731 1732 1733 1734 1735
32 416 476 529 1284 1363 1489 1736 1737 1738 1739 1740 1741 1742 1743 1744 1745 1746 1747 1748 1749 1750 1751 1752 1753 1754 1755 1756 1757 1758 1759 1760 1761
32 479 830 879 1288 1368 1740 1762 1763 1764 1765 1766 1767 1768 1769 1770 1771 1772 1773 1774 1775 1776 1777 1778 1779 1780 1781 1782 1783 1784 1785 1786 1787
32 58 932 960 1061 1343 1469 1788 1789 1790 1791 1792 1793 1794 1795 1796 1797 1798 1799 1800 1801 1802 1803 1804 1805 1806 1807 1808 1809 1810 1811 1812 1813
32 275 907 934 1216 1317 1620 1814 1815 1816 1817 1818 1819 1820 1821 1822 1823 1824 1825 1826 1827 1828 1829 1830 1831 1832 1833 1834 1835 1836 1837 1838 1839
32 535 1012 1036 1291 1492 1741 1840 1841 1842 1843 1844 1845 1846 1847 1848 1849 1850 1851 1852 1853 1854 1855 1856 1857 1858 1859 1860 1861 1862 1863 1864 1865
32 674 832 881 1419 1519 1764 1866 1867 1868 1869 1870 1871 1872 1873 1874 1875 1876 1877 1878 1879 1880 1881 1882 1883 1884 1885 1886 1887 1888 1889 1890 1891
32 585 613 672 1415 1515 1588 1870 1892 1893 1894 1895 1896 1897 1898 1899 1900 1901 1902 1903 1904 1905 1906 1907 1908 1909 1910 1911 1912 1913 1914 1915 1916
32 422 1063 1089 1371 1496 1744 1917 1918 1919 1920 1921 1922 1923 1924 1925 1926 1927 1928 1929 1930 1931 1932 1933 1934 1935 1936 1937 1938 1939 1940 1941 1942
32 591 1116 1167 1422 1593 1896 1943 1944 1945 1946 1947 1948 1949 1950 1951 1952 1953 1954 1955 1956 1957 1958 1959 1960 1961 1962 1963 1964 1965 1966 1967 1968
32 697 755 782 1562 1640 1712 1969 1970 1971 1972 1973 1974 1975 1976 1977 1978 1979 1980 1981 1982 1983 1984 1985 1986 1987 1988 1989 1990 1991 1992 1993 1994
32 757 1014 1038 1566 1644 1842 1973 1995 1996 1997 1998 1999 2000 2001 2002 2003 2004 2005 2006 2007 2008 2009 2010 2011 2012 2013 2014 2015 2016 2017 2018 2019
32 620 1194 1218 1522 1596 1899 2020 2021 2022 2023 2024 2025 2026 2027 2028 2029 2030 2031 2032 2033 2034 2035 2036 2037 2038 2039 2040 2041 2042 2043 2044 2045
32 784 1118 1169 1569 1716 1945 1974 2046 2047 2048 2049 2050 2051 2052 2053 2054 2055 2056 2057 2058 2059 2060 2061 2062 2063 2064 2065 2066 2067 2068 2069 2070
32 887 1269 1293 1424 1767 1871 2071 2072 2073 2074 2075 2076 2077 2078 2079 2080 2081 2082 2083 2084 2085 2086 2087 2088 2089 2090 2091 2092 2093 2094 2095 2096
32 967 1067 1094 1670 1794 1919 2097 2098 2099 2100 2101 2102 2103 2104 2105 2106 2107 2108 2109 2110 2111 2112 2113 2114 2115 2116 2117 2118 2119 2120 2121 2122
32 912 938 965 1666 1790 1816 2101 2123 2124 2125 2126 2127 2128 2129 2130 2131 2132 2133 2134 2135 2136 2137 2138 2139 2140 2141 2142 2143 2144 2145 2146 2147
32 703 1322 1348 1647 1719 1977 2148 2149 2150 2151 2152 2153 2154 2155 2156 2157 2158 2159 2160 2161 2162 2163 2164 2165 2166 2167 2168 2169 2170 2171 2172 2173
32 838 1373 1400 1524 1771 1874 2174 2175 2176 2177 2178 2179 2180 2181 2182 2183 2184 2185 2186 2187 2188 2189 2190 2191 2192 2193 2194 2195 2196 2197 2198 2199
32 914 1196 1220 1673 1820 2022 2127 2200 2201 2202 2203 2204 2205 2206 2207 2208 2209 2210 2211 2212 2213 2214 2215 2216 2217 2218 2219 2220 2221 2222 2223 2224
32 1018 1271 1295 1571 1846 1999 2073 2225 2226 2227 2228 2229 2230 2231 2232 2233 2234 2235 2236 2237 2238 2239 2240 2241 2242 2243 2244 2245 2246 2247 2248 2249
32 941 1324 1350 1797 1823 2130 2150 2250 2251 2252 2253 2254 2255 2256 2257 2258 2259 2260 2261 2262 2263 2264 2265 2266 2267 2268 2269 2270 2271 2272 2273 2274
32 1044 1474 1498 1649 1849 2002 2275 2276 2277 2278 2279 2280 2281 2282 2283 2284 2285 2286 2287 2288 2289 2290 2291 2292 2293 2294 2295 2296 2297 2298 2299 2300
32 1096 1375 1403 1675 1923 2102 2176 2301 2302 2303 2304 2305 2306 2307 2308 2309 2310 2311 2312 2313 2314 2315 2316 2317 2318 2319 2320 2321 2322 2323 2324 2325
32 1173 1274 1426 1573 1949 2050 2077 2229 2326 2327 2328 2329 2330 2331 2332 2333 2334 2335 2336 2337 2338 2339 2340 2341 2342 2343 2344 2345 2346 2347 2348 2349
32 1071 1476 1502 1799 1926 2105 2277 2350 2351 2352 2353 2354 2355 2356 2357 2358 2359 2360 2361 2362 2363 2364 2365 2366 2367 2368 2369 2370 2371 2372 2373 2374
32 1124 1598 1625 1721 1952 2053 2375 2376 2377 2378 2379 2380 2381 2382 2383 2384 2385 2386 2387 2388 2389 2390 2391 2392 2393 2394 2395 2396 2397 2398 2399 2400
32 1200 1405 1526 1677 2026 2180 2204 2305 2401 2402 2403 2404 2405 2406 2407 2408 2409 2410 2411 2412 2413 2414 2415 2416 2417 2418 2419 2420 2421 2422 2423 2424
32 1226 1600 1627 1825 2029 2207 2377 2425 2426 2427 2428 2429 2430 2431 2432 2433 2434 2435 2436 2437 2438 2439 2440 2441 2442 2443 2444 2445 2446 2447 2448 2449
32 1301 1749 1773 1851 2080 2233 2450 2451 2452 2453 2454 2455 2456 2457 2458 2459 2460 2461 2462 2463 2464 2465 2466 2467 2468 2469 2470 2471 2472 2473 2474 2475
32 1354 1480 1651 1801 2154 2254 2281 2354 2476 2477 2478 2479 2480 2481 2482 2483 2484 2485 2486 2487 2488 2489 2490 2491 2492 2493 2494 2495 2496 2497 2498 2499
32 1328 1630 1723 1827 2157 2258 2381 2429 2500 2501 2502 2503 2504 2505 2506 2507 2508 2509 2510 2511 2512 2513 2514 2515 2516 2517 2518 2519 2520 2521 2522 2523
32 1381 1751 1777 1928 2183 2309 2452 2524 2525 2526 2527 2528 2529 2530 2531 2532 2533 2534 2535 2536 2537 2538 2539 2540 2541 2542 2543 2544 2545 2546 2547 2548
32 1433 1879 1904 1954 2082 2333 2549 2550 2551 2552 2553 2554 2555 2556 2557 2558 2559 2560 2561 2562 2563 2564 2565 2566 2567 2568 2569 2570 2571 2572 2573 2574
32 1506 1754 1853 1930 2284 2358 2456 2528 2575 2576 2577 2578 2579 2580 2581 2582 2583 2584 2585 2586 2587 2588 2589 2590 2591 2592 2593 2594 2595 2596 2597 2598
32 1533 1881 1906 2031 2185 2407 2551 2599 2600 2601 2602 2603 2604 2605 2606 2607 2608 2609 2610 2611 2612 2613 2614 2615 2616 2617 2618 2619 2620 2621 2622 2623
32 1580 1982 2007 2058 2235 2335 2624 2625 2626 2627 2628 2629 2630 2631 2632 2633 2634 2635 2636 2637 2638 2639 2640 2641 2642 2643 2644 2645 2646 2647 2648 2649
32 1606 1909 1956 2033 2384 2433 2555 2604 2650 2651 2652 2653 2654 2655 2656 2657 2658 2659 2660 2661 2662 2663 2664 2665 2666 2667 2668 2669 2670 2671 2672 2673
32 1658 1984 2009 2159 2286 2483 2626 2674 2675 2676 2677 2678 2679 2680 2681 2682 2683 2684 2685 2686 2687 2688 2689 2690 2691 2692 2693 2694 2695 2696 2697 2698
32 1684 2110 2135 2212 2311 2412 2699 2700 2701 2702 2703 2704 2705 2706 2707 2708 2709 2710 2711 2712 2713 2714 2715 2716 2717 2718 2719 2720 2721 2722 2723 2724
32 1729 1987 2060 2161 2386 2507 2630 2679 2725 2726 2727 2728 2729 2730 2731 2732 2733 2734 2735 2736 2737 2738 2739 2740 2741 2742 2743 2744 2745 2746 2747 2748
32 1781 1884 2084 2187 2459 2532 2558 2607 2749 2750 2751 2752 2753 2754 2755 2756 2757 2758 2759 2760 2761 2762 2763 2764 2765 2766 2767 2768 2769 2770 2771 2772
32 1808 2112 2137 2260 2360 2485 2701 2773 2774 2775 2776 2777 2778 2779 2780 2781 2782 2783 2784 2785 2786 2787 2788 2789 2790 2791 2792 2793 2794 2795 2796 2797
32 1834 2140 2214 2264 2435 2509 2705 2778 2798 2799 2800 2801 2802 2803 2804 2805 2806 2807 2808 2809 2810 2811 2812 2813 2814 2815 2816 2817 2818 2819 2820 2821
32 1859 2012 2239 2288 2461 2582 2633 2682 2822 2823 2824 2825 2826 2827 2828 2829 2830 2831 2832 2833 2834 2835 2836 2837 2838 2839 2840 2841 2842 2843 2844 2845
32 1936 2115 2315 2364 2534 2584 2708 2781 2846 2847 2848 2849 2850 2851 2852 2853 2854 2855 2856 2857 2858 2859 2860 2861 2862 2863 2864 2865 2866 2867 2868 2869
32 1961 2063 2340 2388 2560 2635 2657 2732 2870 2871 2872 2873 2874 2875 2876 2877 2878 2879 2880 2881 2882 2883 2884 2885 2886 2887 2888 2889 2890 2891 2892 2893
32 2039 2217 2415 2439 2609 2659 2710 2805 2894 2895 2896 2897 2898 2899 2900 2901 2902 2903 2904 2905 2906 2907 2908 2909 2910 2911 2912 2913 2914 2915 2916 2917
32 2089 2242 2342 2463 2562 2637 2756 2829 2876 2918 2919 2920 2921 2922 2923 2924 2925 2926 2927 2928 2929 2930 2931 2932 2933 2934 2935 2936 2937 2938 2939 2940
32 2167 2268 2490 2514 2684 2734 2783 2807 2941 2942 2943 2944 2945 2946 2947 2948 2949 2950 2951 2952 2953 2954 2955 2956 2957 2958 2959 2960 2961 2962 2963 2964
32 2192 2318 2417 2538 2611 2712 2758 2853 2901 2965 2966 2967 2968 2969 2970 2971 2972 2973 2974 2975 2976 2977 2978 2979 2980 2981 2982 2983 2984 2985 2986 2987
32 2294 2367 2492 2589 2686 2785 2831 2855 2948 2988 2989 2990 2991 2992 2993 2994 2995 2996 2997 2998 2999 3000 3001 3002 3003 3004 3005 3006 3007 3008 3009 3010
32 2394 2442 2516 2664 2738 2809 2881 2903 2950 3011 3012 3013 3014 3015 3016 3017 3018 3019 3020 3021 3022 3023 3024 3025 3026 3027 3028 3029 3030 3031 3032 3033
32 2469 2541 2591 2763 2836 2859 2928 2975 2998 3034 3035 3036 3037 3038 3039 3040 3041 3042 3043 3044 3045 3046 3047 3048 3049 3050 3051 3052 3053 3054 3055 3056
32 2568 2617 2666 2765 2884 2907 2931 2977 3021 3044 3057 3058 3059 3060 3061 3062 3063 3064 3065 3066 3067 3068 3069 3070 3071 3072 3073 3074 3075 3076 3077 3078
32 2644 2692 2742 2838 2886 2934 2955 3001 3024 3047 3069 3079 3080 3081 3082 3083 3084 3085 3086 3087 3088 3089 3090 3091 3092 3093 3094 3095 3096 3097 3098 3099
32 2719 2792 2815 2862 2910 2957 2981 3003 3027 3050 3072 3094 3100 3101 3102 3103 3104 3105 3106 3107 3108 3109 3110 3111 3112 3113 3114 3115 3116 3117 3118 3119
20 190 342 516 740 1001 1060 1344 1745 1791 1924 1980 2158 2237 2460 2636 2787 2858 2954 3046 3092
20 96 221 465 660 821 1008 1163 1563 1748 1850 1903 1953 2189 2535 2610 2639 2835 2883 3052 3074
20 127 287 407 827 955 1054 1187 1516 1743 1769 2134 2209 2362 2583 2613 2761 2784 2904 3048 3115
20 251 317 601 897 1113 1183 1315 1713 1897 1950 2131 2256 2410 2608 2709 2736 2880 2949 3067 3111
20 70 226 577 771 873 1005 1107 1285 1876 1901 1979 2004 2390 2465 2660 2735 2759 2832 3073 3095
20 0 282 460 656 871 1086 1190 1667 1747 1902 1927 2030 2086 2462 2561 2714 2861 2909 3049 3071
20 158 312 572 767 1157 1215 1318 1817 1900 1978 2027 2155 2337 2559 2634 2811 2906 2953 3068 3090
20 38 347 689 929 1030 1058 1311 1490 1976 2001 2104 2129 2511 2586 2733 2806 2830 2854 3091 3112
20 64 102 520 744 876 1028 1160 1416 1746 1772 1981 2055 2290 2564 2585 2685 2762 2882 3051 3096
20 164 257 684 924 1110 1212 1338 1589 1975 2052 2128 2206 2487 2661 2683 2782 2878 2902 3089 3110
20 32 196 402 951 1033 1081 1341 1641 1742 1847 2133 2259 2313 2533 2688 2711 2834 2951 3045 3113
20 6 133 605 824 902 1084 1210 1364 1873 1898 2107 2132 2437 2536 2658 2757 2808 2856 3070 3114
20 34 253 491 692 898 952 1467 1618 1645 1717 2108 2210 2359 2434 2689 2713 2737 2999 3022 3116
20 66 167 434 580 686 745 1262 1420 1597 1622 2006 2163 2234 2510 2565 2663 2687 2929 3028 3097
20 2 314 372 574 657 904 1396 1623 1671 1824 1877 1958 2184 2387 2563 2715 2813 2979 3026 3075
20 458 515 869 999 1258 1370 1495 1875 1920 2003 2181 2282 2332 2556 2631 2857 2974 2997 3066 3088
20 222 319 430 603 661 773 1265 1567 1624 1720 1878 2035 2081 2436 2612 2640 2740 2930 3029 3076
20 405 519 1026 1052 1287 1367 1463 1765 2000 2103 2231 2307 2482 2680 2760 2779 2925 2972 3086 3107
20 160 343 487 741 768 931 1470 1621 1795 1821 2005 2056 2285 2385 2638 2788 2812 3000 3023 3093
20 400 463 819 1080 1290 1390 1493 1843 1872 2078 2106 2356 2408 2605 2706 2833 2927 2995 3064 3109
20 129 259 376 608 926 956 1393 1520 1594 1619 2109 2262 2310 2508 2614 2662 2786 2976 3025 3117
20 98 199 404 466 543 747 1267 1473 1570 1648 1776 1932 2083 2361 2539 2641 2690 2933 3006 3054
20 40 134 410 631 903 930 1369 1394 1468 1494 2211 2263 2409 2484 2537 2587 2810 2978 3002 3118
20 599 658 818 1181 1389 1421 1592 1768 1946 2074 2208 2308 2431 2530 2702 2879 2926 3018 3041 3108
20 193 284 462 518 627 957 1398 1472 1674 1775 1798 1855 2186 2287 2464 2716 2789 2980 3005 3053
20 570 654 868 1155 1257 1521 1595 1770 2023 2054 2177 2232 2382 2457 2627 2905 2973 3020 3043 3087
20 72 349 524 547 691 772 1263 1289 1471 1497 2057 2164 2334 2466 2486 2588 2739 2932 3004 3098
20 575 604 1105 1208 1418 1518 1615 1868 2051 2205 2331 2406 2506 2730 2755 2803 2923 2970 3084 3105
20 9 228 468 579 607 715 1266 1292 1372 1397 1959 2036 2336 2413 2467 2540 2665 2935 2982 3077
20 737 765 998 1154 1256 1646 1718 1848 1951 2079 2151 2278 2378 2453 2552 2952 2996 3019 3042 3065
20 104 289 409 522 663 711 1268 1399 1423 1523 1856 1933 2236 2312 2566 2590 2615 2936 2983 3055
20 687 769 1104 1309 1565 1614 1643 1948 1997 2255 2328 2432 2481 2655 2800 2828 2922 2993 3062 3104
20 682 742 1025 1336 1462 1568 1715 1845 2048 2227 2257 2357 2505 2580 2775 2877 2924 3016 3039 3106
20 76 171 353 848 1006 1032 1112 1161 1319 1345 2238 2291 2338 2391 2489 2513 2837 2885 2958 3099
20 163 316 374 489 792 962 1192 1346 1602 1676 1725 1800 2032 2160 2389 2717 2790 2912 2959 3030
20 256 321 432 493 750 845 1165 1347 1572 1603 1650 1829 1955 2261 2440 2642 2691 2888 2960 3031
20 822 872 1283 1362 1414 1514 1738 1894 2230 2306 2330 2405 2581 2656 2827 2851 2875 2899 3081 3102
20 44 138 262 795 1059 1085 1188 1214 1316 1342 2314 2363 2411 2438 2488 2512 2860 2908 2956 3119
20 922 953 1051 1335 1461 1672 1819 1922 2156 2202 2283 2303 2502 2577 2676 2900 2971 3015 3038 3085
20 894 949 1078 1180 1388 1796 1822 1925 2028 2182 2252 2352 2427 2526 2601 2947 2994 3017 3040 3063
20 899 927 1207 1308 1613 1669 1793 2025 2099 2153 2383 2403 2478 2652 2727 2852 2969 2992 3061 3083
20 169 261 378 436 669 975 1166 1193 1425 1525 1726 1830 2059 2213 2515 2567 2616 2889 2913 3032
20 13 232 323 826 875 978 1115 1164 1191 1217 2087 2190 2339 2392 2414 2441 2764 2887 2911 3078
20 1002 1029 1282 1488 1561 1639 1737 1971 2076 2327 2355 2480 2531 2731 2754 2848 2874 2946 3059 3101
20 37 200 494 544 779 846 1010 1321 1501 1574 1722 1803 1852 2265 2365 2643 2741 2840 2962 3008
20 195 346 490 629 793 909 1091 1320 1500 1653 1678 1826 1929 2162 2289 2718 2814 2864 2961 3007
20 1055 1082 1361 1487 1665 1736 1789 2125 2179 2280 2402 2458 2477 2751 2804 2824 2898 2945 3058 3080
20 108 202 293 829 878 1009 1035 1062 1088 1134 2088 2191 2241 2292 2317 2366 2766 2839 2863 3056
20 43 351 474 549 633 1011 1092 1131 1294 1374 1654 1804 2008 2111 2468 2491 2543 2841 2866 3009
20 1108 1158 1413 1560 1587 1711 1893 1970 2072 2226 2430 2504 2606 2681 2753 2826 2896 2943 3036 3100
20 5 286 375 630 794 936 1065 1222 1377 1528 1802 1828 1931 2034 2188 2791 2817 2865 2914 2984
20 132 291 379 588 713 883 976 1223 1378 1427 1599 1679 1774 2215 2316 2570 2668 2767 2915 2985
20 1184 1211 1513 1586 1664 1815 1892 2124 2175 2302 2380 2501 2557 2750 2780 2850 2872 2942 3035 3079
20 11 137 532 634 717 884 1066 1132 1296 1499 1529 1680 1880 2113 2416 2471 2593 2769 2867 2986
20 47 331 355 780 797 850 910 1117 1219 1233 1655 1805 1983 2136 2393 2444 2493 2745 2818 2963
20 381 439 496 582 610 694 775 906 933 1236 1960 2037 2062 2165 2216 2266 2667 2743 2816 3033
20 1259 1286 1417 1564 1763 1841 1867 1944 1996 2047 2529 2579 2603 2654 2678 2729 2967 2990 3013 3103
20 69 106 437 616 714 834 977 1121 1298 1527 1575 1601 1778 2061 2240 2620 2669 2768 2891 2938
20 101 225 433 546 700 847 1040 1120 1297 1428 1652 1724 1854 1957 2085 2695 2744 2842 2890 2937
20 1312 1339 1638 1710 1788 1814 1969 2123 2276 2351 2376 2426 2632 2707 2823 2847 2871 2895 3034 3057
20 1365 1391 1517 1668 1762 1866 1918 2021 2098 2201 2455 2554 2576 2651 2777 2802 2920 2989 3012 3082
20 75 230 419 550 718 835 1041 1133 1376 1429 1503 1576 1882 2010 2341 2545 2594 2770 2843 2939
20 15 141 179 589 798 937 980 1119 1234 1323 1530 1681 1905 2138 2396 2418 2518 2670 2819 2916
20 413 502 526 552 636 696 748 935 959 1442 1857 1934 2011 2114 2166 2267 2592 2693 2793 3010
20 173 208 265 751 800 853 963 1037 1064 1439 1727 1831 1986 2139 2293 2369 2517 2694 2794 2964
20 1464 1491 1642 1792 1840 1917 1995 2097 2149 2251 2451 2525 2629 2704 2726 2799 2919 2966 3011 3060
20 79 234 271 617 701 851 981 1221 1235 1325 1430 1577 1907 1985 2343 2446 2519 2671 2746 2892
20 143 295 361 533 801 940 1039 1136 1349 1379 1440 1682 1750 2141 2296 2319 2494 2595 2795 2868
20 267 301 325 670 803 831 964 983 1090 1539 1604 1832 1908 2142 2194 2320 2443 2619 2721 2917
20 387 415 470 612 639 665 720 908 961 1542 1779 1883 1935 2038 2117 2219 2542 2618 2720 2987
20 1590 1616 1714 1818 1943 2020 2046 2148 2200 2250 2550 2600 2625 2675 2700 2774 2918 2965 2988 3037
20 53 81 110 420 702 854 1068 1137 1299 1351 1441 1578 1752 1988 2243 2371 2496 2596 2696 2844
20 21 49 204 475 804 833 911 1139 1195 1504 1540 1753 1806 2143 2195 2368 2419 2544 2722 2869
20 145 180 362 383 637 698 1069 1224 1238 1443 1475 1626 1683 2116 2170 2218 2495 2520 2796 2820
20 445 472 528 555 584 667 723 753 777 1693 1780 1858 1886 1963 2014 2065 2470 2569 2645 2940
20 116 175 327 671 754 856 880 986 1013 1605 1690 1728 1911 1989 2091 2244 2395 2571 2646 2893
20 1739 1766 1844 1921 2071 2174 2225 2275 2301 2350 2549 2599 2624 2674 2699 2773 2870 2894 2941 3014
20 112 147 236 421 618 984 1095 1140 1197 1300 1431 1541 1755 1910 2090 2322 2421 2546 2621 2771
20 54 83 272 441 553 939 1042 1122 1239 1444 1477 1579 1628 2013 2064 2271 2497 2521 2697 2747
20 206 240 357 478 781 857 882 1142 1168 1505 1656 1691 1756 1990 2092 2295 2344 2472 2647 2845
20 22 51 332 498 614 640 1093 1241 1326 1401 1543 1629 1807 2042 2118 2269 2420 2445 2723 2821
20 1869 1895 1947 2024 2075 2178 2326 2375 2401 2425 2450 2524 2628 2703 2725 2798 2822 2846 2944 2991
20 17 85 297 534 590 987 1015 1143 1170 1380 1531 1692 1757 1912 2193 2246 2346 2473 2572 2772
20 148 238 273 443 721 836 913 1123 1242 1404 1432 1544 1631 1885 1962 2221 2422 2447 2622 2672
20 241 333 359 500 556 586 1016 1244 1270 1327 1632 1657 1694 1965 2015 2168 2345 2397 2648 2748
20 209 269 302 388 417 503 1198 1352 1402 1446 1478 1545 1833 1938 2220 2270 2321 2370 2724 2797
20 1972 1998 2049 2152 2228 2279 2329 2379 2454 2476 2500 2553 2575 2650 2749 2776 2801 2849 2897 2968
20 19 86 181 385 724 783 885 1225 1245 1272 1532 1633 1695 1887 2040 2067 2347 2398 2573 2673
20 55 114 149 558 725 837 966 1043 1303 1406 1447 1481 1546 1782 1860 2119 2323 2372 2547 2597
20 117 177 212 446 504 530 1171 1273 1353 1449 1479 1696 1731 1862 2066 2169 2245 2297 2649 2698
20 2100 2126 2203 2253 2304 2353 2404 2428 2479 2503 2527 2578 2602 2653 2677 2728 2752 2825 2873 2921
20 87 299 363 642 726 756 886 1070 1275 1384 1450 1482 1697 1783 1937 2016 2247 2298 2474 2598
20 56 150 448 619 705 858 968 988 1127 1201 1355 1451 1547 1607 1730 2144 2222 2272 2448 2522
20 118 303 329 389 449 477 1172 1199 1276 1407 1549 1609 1698 1784 1964 2041 2093 2196 2574 2623
20 23 211 242 559 643 673 1017 1098 1277 1408 1509 1550 1699 1861 1888 1939 2094 2197 2475 2548
20 88 364 391 593 758 806 943 989 1174 1229 1356 1452 1608 1700 1835 1991 2068 2171 2399 2523
20 151 274 424 561 706 859 915 1046 1097 1144 1246 1329 1507 1551 1659 2120 2145 2273 2373 2498
20 24 243 506 675 786 807 860 916 1175 1202 1331 1552 1701 1732 1836 1913 1966 2043 2400 2449
20 89 182 537 645 785 809 944 1019 1074 1145 1247 1330 1508 1702 1809 1992 2017 2172 2299 2499
20 57 277 425 622 728 841 942 990 1072 1146 1227 1248 1382 1453 1534 2121 2146 2223 2324 2423
20 119 306 480 508 759 810 861 969 1020 1099 1357 1553 1660 1703 1758 1810 1863 1940 2300 2374
20 246 336 481 592 647 812 888 918 1100 1147 1228 1249 1383 1685 1704 1889 1914 2044 2198 2424
20 185 368 538 595 704 730 890 991 1045 1125 1148 1250 1302 1434 1454 1993 2018 2069 2248 2348
20 122 215 393 536 676 813 889 970 992 1073 1203 1455 1535 1686 1705 1759 1785 1941 2199 2325
20 214 335 394 452 562 648 760 787 917 971 1483 1554 1634 1661 1706 1733 1811 1837 2173 2274
20 28 337 482 564 621 788 839 862 1021 1126 1149 1251 1304 1555 1581 1890 1915 1967 2095 2349
20 216 308 423 451 677 761 840 863 993 1047 1176 1435 1456 1556 1582 1760 1786 1864 2096 2249
20 184 305 453 509 594 649 678 731 945 972 1409 1457 1536 1610 1635 1687 1707 1838 2045 2224
20 121 276 396 511 565 623 679 707 732 762 1278 1436 1458 1557 1583 1611 1636 1734 1968 2070
20 26 366 395 483 510 539 566 733 919 946 1252 1385 1410 1484 1510 1688 1708 1812 1942 2122
20 59 245 426 454 484 512 650 708 734 789 1253 1279 1305 1485 1511 1558 1584 1662 1865 2019
20 27 186 217 307 338 367 864 994 1075 1101 1150 1204 1230 1332 1358 1689 1709 1813 1839 2147
20 91 153 397 427 455 540 567 596 624 651 1254 1280 1306 1386 1411 1437 1459 1537 1787 1891
20 60 123 218 247 278 339 814 995 1022 1048 1128 1151 1177 1333 1359 1559 1585 1663 1735 1994
20 92 124 154 187 279 309 815 842 865 891 1129 1152 1178 1205 1231 1438 1460 1538 1612 1916
20 29 61 93 155 248 369 816 843 866 892 996 1023 1049 1076 1102 1255 1307 1387 1512 1761
20 30 62 94 156 249 370 568 597 625 652 709 735 790 920 947 1130 1153 1232 1334 1637
20 95 125 157 188 280 310 398 428 456 541 710 736 763 948 973 997 1050 1077 1360 1486
20 63 126 219 250 281 340 429 457 485 513 569 626 680 844 867 921 974 1103 1206 1412
20 31 189 220 311 341 371 399 486 514 542 598 653 681 764 791 817 893 1024 1179 1281
