# Generated using Miratope v0.5.0 (https://github.com/galoomba1/miratope-rs)
4OFF

# Vertices, Faces, Edges, Cells
24 96 72 24

# Vertices
0.5 0.5 0.5 0.5 
0.5 0.5 -0.5 -0.5 
0.5 -0.5 -0.5 0.5 
0.5 -0.5 0.5 -0.5 
0.5 0.5 0.5 -0.5 
0.5 0.5 -0.5 0.5 
0.5 -0.5 0.5 0.5 
0.5 -0.5 -0.5 -0.5 
-0.5 0.5 0.5 0.5 
-0.5 -0.5 -0.5 0.5 
-0.5 -0.5 0.5 -0.5 
-0.5 0.5 -0.5 -0.5 
-0.5 -0.5 0.5 0.5 
-0.5 0.5 0.5 -0.5 
-0.5 0.5 -0.5 0.5 
-0.5 -0.5 -0.5 -0.5 
0 0 0 1 
0 1 0 0 
-1 0 0 0 
0 0 -1 0 
1 0 0 0 
0 0 1 0 
0 0 0 -1 
0 -1 0 0 

# Faces
3 1 2 0
3 0 1 3
3 0 2 3
3 5 6 4
3 4 5 7
3 4 7 6
3 6 7 5
3 1 2 3
3 9 10 8
3 9 11 8
3 10 11 8
3 12 14 13
3 12 15 13
3 12 14 15
3 13 15 14
3 9 11 10
3 8 5 9
3 11 5 8
3 9 11 5
3 16 18 17
3 17 19 16
3 16 19 18
3 17 18 19
3 4 6 10
3 4 7 10
3 6 7 10
3 20 22 21
3 20 21 23
3 20 22 23
3 21 23 22
3 1 14 0
3 2 14 0
3 2 14 1
3 16 17 20
3 16 20 19
3 17 19 20
3 12 3 13
3 12 15 3
3 15 3 13
3 21 18 22
3 23 18 21
3 22 23 18
3 0 2 12
3 14 0 12
3 5 8 6
3 6 9 5
3 8 9 6
3 14 2 12
3 4 11 7
3 10 4 11
3 1 13 3
3 13 15 1
3 1 15 3
3 11 7 10
3 14 1 13
3 14 1 15
3 18 22 17
3 17 19 22
3 18 22 19
3 3 0 12
3 3 12 2
3 21 16 20
3 20 23 16
3 21 23 16
3 4 11 5
3 5 11 7
3 22 17 20
3 20 19 22
3 10 6 8
3 10 6 9
3 18 16 21
3 16 23 18
3 12 0 13
3 3 0 13
3 6 8 4
3 10 8 4
3 7 9 5
3 2 15 1
3 15 2 14
3 9 7 11
3 14 13 0
3 17 21 16
3 18 21 17
3 3 15 2
3 20 19 23
3 22 19 23
3 5 4 8
3 21 17 20
3 10 9 7
3 19 23 18
3 11 4 8
3 22 17 21
3 7 9 6
3 16 23 19
3 0 13 1
3 15 2 12

# Cells
8 0 1 2 3 4 5 6 7
8 8 9 10 11 12 13 14 15
8 9 16 17 18 19 20 21 22
8 5 23 24 25 26 27 28 29
8 0 20 30 31 32 33 34 35
8 12 29 36 37 38 39 40 41
8 16 31 42 43 44 45 46 47
8 24 38 48 49 50 51 52 53
8 14 22 51 54 55 56 57 58
8 2 27 42 59 60 61 62 63
8 4 35 48 57 64 65 66 67
8 8 40 46 63 68 69 70 71
8 23 36 59 68 72 73 74 75
8 18 32 55 65 76 77 78 79
8 11 19 43 70 72 80 81 82
8 7 28 52 67 77 83 84 85
8 3 33 44 61 74 81 86 87
8 15 41 53 58 79 85 88 89
8 10 39 49 56 75 82 90 91
8 6 34 45 62 76 84 92 93
8 1 26 50 66 73 87 91 94
8 13 21 47 71 78 89 93 95
8 17 30 54 64 80 86 90 94
8 25 37 60 69 83 88 92 95
