# Generated using Miratope v0.5.0 (https://github.com/galoomba1/miratope-rs)
4OFF

# Vertices, Faces, Edges, Cells
120 1440 1080 120

# Vertices
0.809016994374945 0.809016994374945 -0.809016994374945 0.809016994374945 
-1.30901699437495 0 -0.809016994374945 0.5 
0.5 -1.30901699437495 -0.809016994374945 0 
0 0.5 -0.809016994374945 -1.30901699437495 
0.809016994374945 0.809016994374945 -0.809016994374945 -0.809016994374945 
0 0.5 -0.809016994374945 1.30901699437495 
-1.30901699437495 0 -0.809016994374945 -0.5 
0.809016994374945 -0.809016994374945 -0.809016994374945 0.809016994374945 
0.5 1.30901699437495 -0.809016994374945 0 
0 -0.5 -0.809016994374945 -1.30901699437495 
-0.809016994374945 0.809016994374945 -0.809016994374945 -0.809016994374945 
1.30901699437495 0 -0.809016994374945 -0.5 
-0.5 -1.30901699437495 -0.809016994374945 0 
-0.809016994374945 -0.809016994374945 -0.809016994374945 0.809016994374945 
1.30901699437495 0 -0.809016994374945 0.5 
-0.5 1.30901699437495 -0.809016994374945 0 
-0.809016994374945 -0.809016994374945 -0.809016994374945 -0.809016994374945 
0 -0.5 -0.809016994374945 1.30901699437495 
-0.809016994374945 0 0.5 1.30901699437495 
-0.809016994374945 1.30901699437495 0 -0.5 
-0.809016994374945 -0.5 -1.30901699437495 0 
0 1.30901699437495 0.5 0.809016994374945 
0.5 0 -1.30901699437495 0.809016994374945 
-1.30901699437495 -0.5 0 0.809016994374945 
0.5 0.809016994374945 0 1.30901699437495 
-1.30901699437495 0.809016994374945 0.5 0 
0 0.809016994374945 -1.30901699437495 -0.5 
0 1.61803398874989 0 0 
0 0 0 1.61803398874989 
-1.61803398874989 0 0 0 
0.809016994374945 -0.809016994374945 -0.809016994374945 -0.809016994374945 
-0.809016994374945 -1.30901699437495 0 0.5 
-0.809016994374945 0.5 -1.30901699437495 0 
-0.809016994374945 0 0.5 -1.30901699437495 
-0.809016994374945 -0.809016994374945 0.809016994374945 -0.809016994374945 
-1.30901699437495 0.5 0 -0.809016994374945 
0.5 0 -1.30901699437495 -0.809016994374945 
0 -1.30901699437495 0.5 -0.809016994374945 
0 -0.809016994374945 -1.30901699437495 0.5 
0 0 -1.61803398874989 0 
0.5 -0.809016994374945 0 -1.30901699437495 
0 0 0 -1.61803398874989 
-1.30901699437495 -0.809016994374945 0.5 0 
0.809016994374945 0.809016994374945 0.809016994374945 -0.809016994374945 
1.30901699437495 0.809016994374945 0.5 0 
0 0.809016994374945 -1.30901699437495 0.5 
-0.5 0.809016994374945 0 -1.30901699437495 
0.809016994374945 1.30901699437495 0 0.5 
0.809016994374945 0 0.5 -1.30901699437495 
0.809016994374945 -0.5 -1.30901699437495 0 
1.61803398874989 0 0 0 
0 1.30901699437495 0.5 -0.809016994374945 
-0.5 0 -1.30901699437495 -0.809016994374945 
1.30901699437495 -0.5 0 -0.809016994374945 
1.30901699437495 -0.809016994374945 0.5 0 
-0.5 -0.809016994374945 0 1.30901699437495 
0 -0.809016994374945 -1.30901699437495 -0.5 
0.809016994374945 -0.809016994374945 0.809016994374945 0.809016994374945 
1.30901699437495 0.5 0 0.809016994374945 
0 -1.30901699437495 0.5 0.809016994374945 
-0.5 0 -1.30901699437495 0.809016994374945 
0.809016994374945 0.5 -1.30901699437495 0 
0 -1.61803398874989 0 0 
0.809016994374945 0 0.5 1.30901699437495 
0.809016994374945 -1.30901699437495 0 -0.5 
-0.809016994374945 0.809016994374945 0.809016994374945 0.809016994374945 
-0.809016994374945 0.809016994374945 -0.809016994374945 0.809016994374945 
-0.809016994374945 0.5 1.30901699437495 0 
-0.809016994374945 0 -0.5 -1.30901699437495 
-0.809016994374945 -0.809016994374945 0.809016994374945 0.809016994374945 
-0.809016994374945 1.30901699437495 0 0.5 
-0.809016994374945 0 -0.5 1.30901699437495 
-0.809016994374945 -1.30901699437495 0 -0.5 
-0.809016994374945 -0.5 1.30901699437495 0 
0.809016994374945 -0.809016994374945 0.809016994374945 -0.809016994374945 
-1.30901699437495 -0.5 0 -0.809016994374945 
-0.809016994374945 0.809016994374945 0.809016994374945 -0.809016994374945 
1.30901699437495 0.5 0 -0.809016994374945 
0.5 0 1.30901699437495 -0.809016994374945 
0 1.30901699437495 -0.5 -0.809016994374945 
-0.5 0 1.30901699437495 -0.809016994374945 
0 -1.30901699437495 -0.5 -0.809016994374945 
0 0.809016994374945 1.30901699437495 0.5 
0.5 0.809016994374945 0 -1.30901699437495 
-1.30901699437495 0.809016994374945 -0.5 0 
0 0.809016994374945 1.30901699437495 -0.5 
-0.5 0.809016994374945 0 1.30901699437495 
1.30901699437495 0.809016994374945 -0.5 0 
0.809016994374945 0.809016994374945 0.809016994374945 0.809016994374945 
-1.30901699437495 0.5 0 0.809016994374945 
0.5 0 1.30901699437495 0.809016994374945 
0 1.30901699437495 -0.5 0.809016994374945 
-0.5 0 1.30901699437495 0.809016994374945 
0 -1.30901699437495 -0.5 0.809016994374945 
1.30901699437495 -0.5 0 0.809016994374945 
0 -0.809016994374945 1.30901699437495 0.5 
-1.30901699437495 -0.809016994374945 -0.5 0 
0.5 -0.809016994374945 0 1.30901699437495 
-0.5 -0.809016994374945 0 -1.30901699437495 
0 -0.809016994374945 1.30901699437495 -0.5 
1.30901699437495 -0.809016994374945 -0.5 0 
0.809016994374945 -1.30901699437495 0 0.5 
0.809016994374945 0.5 1.30901699437495 0 
0.809016994374945 0 -0.5 -1.30901699437495 
0.809016994374945 0 -0.5 1.30901699437495 
0.809016994374945 1.30901699437495 0 -0.5 
0.809016994374945 -0.5 1.30901699437495 0 
0.5 1.30901699437495 0.809016994374945 0 
-1.30901699437495 0 0.809016994374945 0.5 
0 -0.5 0.809016994374945 -1.30901699437495 
0 0 1.61803398874989 0 
0 0.5 0.809016994374945 1.30901699437495 
0.5 -1.30901699437495 0.809016994374945 0 
-1.30901699437495 0 0.809016994374945 -0.5 
1.30901699437495 0 0.809016994374945 -0.5 
-0.5 1.30901699437495 0.809016994374945 0 
0 -0.5 0.809016994374945 1.30901699437495 
0 0.5 0.809016994374945 -1.30901699437495 
1.30901699437495 0 0.809016994374945 0.5 
-0.5 -1.30901699437495 0.809016994374945 0 

# Faces
3 1 2 0
3 1 3 0
3 2 3 0
3 5 2 4
3 5 6 4
3 2 6 4
3 7 1 8
3 8 9 7
3 1 9 7
3 5 11 10
3 5 12 10
3 10 12 11
3 13 14 15
3 14 9 13
3 13 9 15
3 16 11 15
3 11 17 16
3 15 17 16
3 14 15 9
3 8 9 1
3 5 11 12
3 5 2 6
3 15 17 11
3 1 3 2
3 18 19 0
3 0 20 18
3 19 20 0
3 10 21 22
3 21 23 10
3 10 22 23
3 24 25 13
3 13 26 24
3 13 25 26
3 27 22 18
3 27 6 18
3 27 6 22
3 28 8 25
3 28 8 20
3 28 20 25
3 21 17 29
3 29 26 21
3 17 26 29
3 24 26 25
3 21 17 26
3 22 23 21
3 18 19 20
3 18 22 6
3 8 20 25
3 30 31 32
3 30 31 33
3 32 33 30
3 1 34 2
3 3 34 1
3 2 3 34
3 35 36 13
3 13 37 35
3 13 37 36
3 29 37 38
3 29 3 37
3 29 3 38
3 39 31 35
3 39 40 35
3 39 40 31
3 42 32 41
3 42 2 41
3 41 2 32
3 42 2 32
3 35 40 31
3 35 36 37
3 31 33 32
3 37 3 38
3 15 43 14
3 14 9 43
3 15 9 43
3 30 45 44
3 44 46 30
3 30 46 45
3 10 47 48
3 10 47 49
3 48 49 10
3 51 45 50
3 50 9 51
3 50 9 45
3 27 48 14
3 27 52 14
3 27 52 48
3 39 47 53
3 47 46 39
3 39 46 53
3 45 46 44
3 47 46 53
3 48 49 47
3 48 52 14
3 51 9 45
3 54 55 0
3 54 56 0
3 0 56 55
3 5 57 11
3 12 57 5
3 12 57 11
3 30 59 58
3 30 58 60
3 30 59 60
3 28 61 54
3 28 54 12
3 28 61 12
3 62 11 63
3 62 60 63
3 62 60 11
3 39 58 55
3 58 64 39
3 39 64 55
3 55 64 58
3 58 59 60
3 11 60 63
3 54 56 55
3 54 61 12
3 31 32 65
3 33 65 31
3 32 33 65
3 67 31 66
3 67 68 66
3 66 31 68
3 70 33 69
3 70 20 69
3 69 33 20
3 67 71 10
3 10 67 72
3 71 72 10
3 18 19 34
3 18 20 34
3 19 34 20
3 16 73 19
3 16 71 19
3 73 71 16
3 70 33 20
3 67 72 71
3 67 68 31
3 73 71 19
3 36 43 35
3 35 43 37
3 37 43 36
3 74 36 51
3 51 75 74
3 36 75 74
3 76 77 37
3 77 52 76
3 76 37 52
3 30 79 78
3 30 78 75
3 30 79 75
3 10 77 80
3 77 81 10
3 10 81 80
3 16 80 53
3 53 79 16
3 16 79 80
3 77 81 80
3 77 52 37
3 78 79 75
3 51 75 36
3 80 79 53
3 24 25 43
3 24 26 43
3 26 43 25
3 82 83 0
3 82 84 0
3 0 84 83
3 44 45 65
3 46 65 44
3 45 65 46
3 4 85 24
3 4 84 24
3 4 84 85
3 76 44 86
3 76 26 44
3 76 86 26
3 66 82 87
3 82 46 66
3 66 87 46
3 44 26 86
3 24 84 85
3 87 46 82
3 82 84 83
3 88 22 89
3 88 89 59
3 22 59 88
3 22 57 21
3 21 23 57
3 22 23 57
3 58 59 65
3 58 60 65
3 59 60 65
3 90 91 7
3 90 23 7
3 91 23 7
3 66 92 58
3 66 93 58
3 66 93 92
3 13 94 92
3 13 91 94
3 92 91 13
3 92 93 58
3 90 91 23
3 94 92 91
3 22 59 89
3 7 40 95
3 7 95 96
3 40 96 7
3 97 42 74
3 97 56 74
3 74 42 56
3 69 38 54
3 54 98 69
3 69 38 98
3 30 97 99
3 97 96 30
3 30 96 99
3 55 34 54
3 56 34 54
3 56 34 55
3 95 100 13
3 13 95 98
3 100 98 13
3 54 98 38
3 97 99 96
3 42 56 97
3 95 100 98
3 95 40 96
3 88 61 101
3 88 101 48
3 88 61 48
3 0 101 102
3 0 103 102
3 101 103 0
3 48 57 47
3 47 57 49
3 49 57 48
3 4 104 102
3 102 64 4
3 4 104 64
3 74 63 105
3 74 49 63
3 105 49 74
3 105 106 30
3 30 104 105
3 30 106 104
3 104 64 102
3 102 101 103
3 63 105 49
3 106 104 105
3 101 61 48
3 78 65 79
3 78 65 75
3 79 65 75
3 10 108 107
3 107 109 10
3 108 109 10
3 83 34 82
3 84 34 82
3 84 34 83
3 78 108 27
3 27 68 78
3 27 108 68
3 70 83 110
3 110 75 70
3 110 75 83
3 41 73 107
3 41 84 107
3 41 84 73
3 107 73 84
3 107 109 108
3 83 75 70
3 108 68 78
3 71 57 67
3 72 57 67
3 72 57 71
3 99 65 97
3 97 65 96
3 96 65 99
3 13 112 111
3 13 111 113
3 13 112 113
3 110 89 97
3 97 72 110
3 89 72 110
3 29 111 99
3 29 93 111
3 99 93 29
3 90 71 62
3 62 113 90
3 62 113 71
3 71 113 90
3 111 93 99
3 112 113 111
3 97 72 89
3 94 43 92
3 94 43 91
3 92 91 43
3 114 115 0
3 0 116 114
3 115 116 0
3 105 106 65
3 105 65 104
3 106 104 65
3 50 91 85
3 50 91 116
3 50 116 85
3 110 94 105
3 110 86 94
3 110 86 105
3 28 106 87
3 87 115 28
3 28 106 115
3 87 106 115
3 94 105 86
3 115 116 114
3 91 116 85
3 100 43 95
3 95 98 43
3 98 43 100
3 80 57 77
3 77 57 81
3 80 81 57
3 102 34 101
3 102 34 103
3 101 103 34
3 95 117 50
3 50 95 81
3 50 117 81
3 62 80 118
3 62 103 118
3 62 103 80
3 102 100 41
3 102 119 41
3 41 100 119
3 118 103 80
3 100 119 102
3 95 81 117
3 108 112 88
3 108 117 88
3 112 117 88
3 111 43 112
3 111 113 43
3 112 113 43
3 107 57 108
3 107 57 109
3 108 109 57
3 111 114 76
3 76 119 111
3 114 119 76
3 118 115 69
3 69 109 118
3 115 109 69
3 114 115 34
3 114 116 34
3 115 116 34
3 118 115 109
3 111 119 114
3 112 117 108
3 33 4 70
3 70 4 20
3 33 20 4
3 1 76 8
3 8 76 9
3 1 9 76
3 51 66 36
3 51 66 75
3 75 66 36
3 51 45 29
3 51 29 9
3 45 29 9
3 70 39 83
3 75 39 70
3 83 75 39
3 25 41 8
3 20 41 8
3 25 20 41
3 97 66 42
3 56 66 97
3 42 66 56
3 5 69 2
3 5 6 69
3 2 6 69
3 89 16 22
3 89 16 59
3 22 16 59
3 32 28 42
3 42 2 28
3 2 28 32
3 18 22 62
3 18 6 62
3 6 62 22
3 97 39 89
3 97 72 39
3 72 39 89
3 11 15 88
3 11 17 88
3 17 88 15
3 44 86 7
3 26 7 44
3 86 26 7
3 105 66 63
3 49 66 63
3 105 49 66
3 17 50 21
3 21 26 50
3 26 50 17
3 63 11 27
3 63 27 60
3 11 60 27
3 105 39 94
3 86 39 94
3 105 86 39
3 54 38 4
3 54 4 98
3 38 4 98
3 77 37 7
3 52 7 77
3 37 52 7
3 61 16 101
3 101 48 16
3 61 16 48
3 37 50 38
3 37 50 3
3 38 50 3
3 48 62 14
3 14 62 52
3 52 62 48
3 54 61 41
3 54 41 12
3 61 41 12
3 111 114 7
3 119 7 111
3 114 7 119
3 92 74 58
3 58 93 74
3 92 93 74
3 102 69 104
3 102 69 64
3 64 69 104
3 111 50 99
3 93 50 111
3 99 50 93
3 58 55 110
3 58 64 110
3 64 110 55
3 102 28 100
3 102 28 119
3 100 119 28
3 80 88 53
3 79 88 53
3 79 88 80
3 118 4 115
3 118 109 4
3 115 109 4
3 82 87 74
3 46 74 82
3 87 74 46
3 80 27 118
3 118 27 103
3 103 27 80
3 47 53 110
3 46 110 47
3 53 110 46
3 87 41 106
3 87 115 41
3 106 115 41
3 31 74 67
3 68 74 67
3 31 74 68
3 95 40 76
3 95 76 96
3 40 96 76
3 108 16 112
3 108 16 117
3 112 16 117
3 35 110 31
3 40 110 35
3 31 40 110
3 95 29 117
3 95 29 81
3 117 81 29
3 78 108 62
3 68 62 78
3 108 68 62
3 19 88 73
3 19 88 71
3 71 88 73
3 90 91 76
3 90 76 23
3 91 23 76
3 24 69 85
3 84 69 24
3 85 84 69
3 90 71 27
3 113 27 90
3 113 27 71
3 73 28 107
3 107 28 84
3 73 28 84
3 91 85 29
3 116 29 91
3 85 29 116
3 13 35 91
3 13 91 36
3 19 61 16
3 16 61 71
3 16 89 79
3 79 22 16
3 29 91 38
3 3 91 29
3 36 91 35
3 3 91 38
3 89 38 8
3 8 89 68
3 38 68 8
3 5 36 19
3 19 96 5
3 5 96 36
3 71 61 19
3 19 96 36
3 22 79 89
3 89 68 38
3 4 38 84
3 4 84 98
3 60 79 30
3 30 96 45
3 30 96 46
3 30 60 75
3 41 61 84
3 41 12 84
3 49 1 79
3 79 49 98
3 75 60 79
3 79 98 1
3 12 84 61
3 103 35 45
3 45 12 103
3 45 46 96
3 45 12 35
3 98 84 38
3 49 98 1
3 35 12 103
3 0 103 19
3 56 83 0
3 0 84 56
3 0 20 103
3 66 56 87
3 68 105 66
3 66 49 68
3 66 56 46
3 27 11 68
3 22 103 27
3 27 103 6
3 27 60 68
3 46 56 87
3 105 49 68
3 60 68 11
3 19 103 20
3 83 84 56
3 6 103 22
3 66 49 31
3 66 36 93
3 66 75 93
3 10 71 49
3 10 22 81
3 10 81 23
3 10 72 49
3 29 81 17
3 29 45 93
3 29 9 93
3 26 81 29
3 71 49 72
3 17 81 26
3 22 81 23
3 45 9 93
3 31 49 68
3 36 75 93
3 24 38 4
3 104 70 4
3 4 104 20
3 47 71 10
3 14 71 27
3 27 71 52
3 49 71 47
3 49 24 79
3 79 24 1
3 24 38 84
3 49 1 24
3 87 17 70
3 87 70 52
3 87 17 52
3 70 20 104
3 52 71 14
3 70 52 17
3 10 22 77
3 53 22 16
3 41 87 32
3 41 87 2
3 100 8 41
3 100 20 41
3 2 87 32
3 81 22 77
3 14 83 32
3 14 81 83
3 14 32 81
3 8 100 20
3 8 38 53
3 8 68 53
3 53 22 79
3 68 53 38
3 32 81 83
3 55 84 0
3 7 96 86
3 91 52 7
3 7 52 23
3 7 96 26
3 61 84 28
3 28 84 12
3 104 15 23
3 104 15 56
3 104 23 56
3 86 61 93
3 86 61 6
3 93 6 86
3 86 26 96
3 91 23 52
3 15 23 56
3 55 84 56
3 61 6 93
3 7 26 40
3 26 100 13
3 13 26 98
3 62 68 11
3 62 22 103
3 103 6 62
3 62 68 60
3 60 3 100
3 100 72 60
3 100 98 26
3 100 3 72
3 61 93 40
3 61 40 6
3 60 72 3
3 93 40 6
3 96 26 40
3 7 77 91
3 30 58 79
3 30 105 32
3 30 32 104
3 91 38 50
3 91 3 50
3 60 58 79
3 60 47 100
3 100 47 3
3 60 3 47
3 104 32 105
3 104 77 15
3 104 56 77
3 77 91 52
3 15 77 56
3 30 104 31
3 45 97 30
3 16 101 71
3 62 14 71
3 71 52 62
3 31 104 32
3 14 32 55
3 81 55 14
3 96 97 45
3 36 101 5
3 96 101 5
3 61 101 71
3 32 81 55
3 36 101 96
3 66 58 36
3 66 87 97
3 24 100 13
3 13 94 36
3 87 32 28
3 28 87 2
3 28 8 100
3 20 100 28
3 93 36 58
3 26 24 100
3 97 87 56
3 91 94 36
3 20 101 0
3 4 20 64
3 50 81 17
3 45 93 50
3 50 9 93
3 81 26 50
3 87 64 17
3 52 64 87
3 45 94 103
3 45 94 12
3 12 94 103
3 104 64 20
3 52 64 17
3 101 20 103
3 66 42 46
3 15 113 13
3 25 98 13
3 9 113 13
3 39 46 89
3 46 72 39
3 23 33 15
3 15 9 113
3 15 56 33
3 60 25 3
3 60 72 25
3 25 98 26
3 72 25 3
3 89 46 72
3 23 33 56
3 56 42 46
3 33 105 30
3 16 11 117
3 19 48 16
3 16 15 117
3 39 105 35
3 39 40 105
3 40 105 35
3 32 33 105
3 15 33 77
3 56 77 33
3 40 51 61
3 6 51 61
3 40 6 51
3 15 117 11
3 48 19 61
3 1 115 0
3 0 115 3
3 4 115 5
3 4 6 115
3 39 47 89
3 35 86 39
3 47 25 60
3 3 47 25
3 47 89 46
3 105 86 35
3 5 6 115
3 1 3 115
3 61 51 86
3 6 51 86
3 5 108 10
3 10 12 108
3 16 108 15
3 16 108 17
3 39 31 86
3 55 70 39
3 39 55 75
3 35 86 31
3 70 75 55
3 17 42 70
3 52 42 70
3 45 35 18
3 45 18 12
3 35 18 12
3 12 108 5
3 15 108 17
3 52 42 17
3 66 58 51
3 5 107 10
3 11 107 10
3 10 77 21
3 58 70 39
3 58 83 39
3 19 44 5
3 5 36 44
3 36 44 19
3 83 58 70
3 51 58 36
3 11 107 5
3 21 77 22
3 83 21 14
3 14 32 21
3 83 32 21
3 64 33 4
3 4 2 109
3 6 109 4
3 11 109 10
3 48 72 10
3 12 109 10
3 53 72 39
3 64 83 39
3 64 75 39
3 46 53 72
3 11 109 12
3 48 72 49
3 83 75 64
3 33 64 20
3 6 109 2
3 1 116 0
3 0 2 116
3 18 101 0
3 66 31 63
3 39 94 31
3 63 31 49
3 49 59 24
3 1 59 24
3 86 94 31
3 45 94 18
3 94 18 12
3 2 116 1
3 18 101 20
3 49 59 1
3 13 37 94
3 13 112 14
3 13 112 9
3 53 59 16
3 16 11 112
3 16 112 17
3 39 94 40
3 39 97 53
3 31 40 94
3 37 94 36
3 9 112 14
3 97 53 72
3 59 53 22
3 17 112 11
3 4 5 118
3 4 118 2
3 4 54 24
3 30 44 97
3 39 47 97
3 45 44 97
3 5 101 44
3 36 44 101
3 5 118 2
3 53 97 47
3 8 63 53
3 8 38 63
3 53 63 38
3 38 24 54
3 7 23 37
3 1 119 7
3 9 119 7
3 30 75 59
3 55 64 75
3 17 64 42
3 49 98 59
3 60 75 59
3 1 98 59
3 52 37 23
3 52 64 42
3 1 9 119
3 8 111 7
3 7 111 1
3 14 111 13
3 13 111 15
3 58 70 55
3 97 47 89
3 8 89 63
3 89 63 38
3 14 21 55
3 32 21 55
3 14 111 15
3 8 111 1
3 0 114 2
3 3 114 0
3 54 83 0
3 7 40 44
3 8 114 7
3 7 114 9
3 26 40 44
3 58 83 64
3 94 40 105
3 9 114 8
3 3 114 2
3 56 54 83
3 35 91 43
3 43 91 36
3 76 77 91
3 76 91 52
3 41 61 107
3 41 115 32
3 107 61 84
3 45 107 103
3 45 107 35
3 103 107 35
3 87 115 32
3 87 117 70
3 87 52 117
3 70 117 52
3 65 60 79
3 65 96 45
3 65 46 96
3 65 75 60
3 76 86 96
3 52 23 76
3 26 96 76
3 27 60 108
3 27 113 52
3 71 52 113
3 108 60 68
3 26 40 76
3 34 103 19
3 56 83 34
3 34 84 56
3 34 103 20
3 26 117 29
3 36 109 19
3 19 96 109
3 83 113 32
3 81 113 83
3 117 26 81
3 81 113 32
3 36 96 109
3 57 71 49
3 57 22 81
3 57 81 23
3 57 49 72
3 20 104 69
3 69 20 64
3 28 119 20
3 104 112 23
3 104 56 112
3 100 60 116
3 100 116 72
3 60 116 72
3 119 20 100
3 23 112 56
3 88 71 101
3 61 71 88
3 57 47 71
3 45 111 50
3 116 38 50
3 86 118 61
3 93 118 86
3 61 118 93
3 100 116 47
3 60 116 47
3 111 45 93
3 91 38 116
3 22 77 57
3 74 36 58
3 97 87 74
3 74 87 56
3 74 36 93
3 62 22 118
3 61 118 40
3 103 118 22
3 93 40 118
3 104 77 112
3 77 112 56
3 38 84 69
3 98 84 69
3 34 84 55
3 60 108 62
3 113 52 62
3 32 55 113
3 81 55 113
3 89 38 119
3 89 119 68
3 38 68 119
3 43 26 100
3 43 98 26
3 105 68 74
3 74 68 49
3 74 56 46
3 50 26 117
3 64 117 87
3 79 49 114
3 79 98 114
3 49 114 98
3 52 117 64
3 61 19 88
3 89 79 88
3 88 79 22
3 65 79 58
3 32 105 65
3 32 104 65
3 28 107 61
3 28 115 32
3 65 104 31
3 65 97 45
3 69 38 24
3 69 104 70
3 111 45 29
3 38 116 29
3 88 53 22
3 43 24 100
3 43 94 36
3 27 118 22
3 45 107 94
3 103 94 107
3 79 114 24
3 24 114 49
3 49 31 74
3 74 93 75
3 20 101 34
3 41 119 20
3 38 119 53
3 53 119 68
3 36 109 101
3 96 101 109
3 43 113 15
3 43 98 25
3 43 113 9
3 4 85 98
3 6 80 27
3 48 113 27
3 115 6 109
3 85 98 84
3 80 6 103
3 52 113 48
3 33 105 65
3 67 105 66
3 29 117 21
3 29 85 3
3 83 113 21
3 26 117 21
3 32 113 21
3 68 105 67
3 85 3 91
3 8 89 85
3 8 68 85
3 89 68 85
3 1 115 34
3 3 115 34
3 16 80 89
3 42 115 41
3 42 115 32
3 70 117 42
3 79 67 1
3 79 67 98
3 1 98 67
3 117 15 108
3 80 89 79
3 52 117 42
3 57 108 5
3 57 108 12
3 95 86 7
3 63 108 62
3 63 119 89
3 60 63 108
3 38 63 119
3 119 1 111
3 96 86 95
3 5 92 101
3 5 92 96
3 96 92 101
3 57 107 5
3 57 11 107
3 21 77 57
3 90 77 7
3 8 102 28
3 28 54 107
3 100 102 8
3 61 54 107
3 91 77 90
3 111 8 114
3 57 109 11
3 57 72 48
3 57 109 12
3 50 9 99
3 94 99 103
3 12 99 94
3 59 114 49
3 59 114 98
3 119 114 9
3 103 99 12
3 93 9 99
3 34 116 1
3 34 116 2
3 34 101 18
3 73 101 16
3 37 116 29
3 17 95 29
3 37 116 38
3 81 17 95
3 73 101 71
3 112 17 108
3 37 94 43
3 43 112 14
3 43 9 112
3 41 2 106
3 101 44 109
3 36 109 44
3 109 118 2
3 106 2 87
3 83 106 14
3 81 106 14
3 83 81 106
3 65 44 97
3 66 82 97
3 18 118 27
3 27 90 14
3 22 18 118
3 18 107 94
3 18 107 45
3 70 90 87
3 87 17 90
3 90 14 71
3 17 90 70
3 82 97 87
3 65 75 59
3 66 92 75
3 28 73 12
3 25 119 28
3 93 73 86
3 6 73 86
3 92 75 93
3 25 116 60
3 72 25 116
3 73 12 84
3 6 73 93
3 20 119 25
3 43 111 14
3 43 111 15
3 102 70 4
3 51 111 50
3 118 5 115
3 86 118 51
3 61 51 118
3 102 70 104
3 104 77 82
3 104 15 82
3 15 82 77
3 45 111 51
3 2 114 34
3 34 114 3
3 34 54 83
3 11 78 62
3 33 112 77
3 100 78 3
3 72 78 100
3 68 11 78
3 3 72 78
3 117 11 112
3 56 33 112
3 69 118 5
3 118 2 69
3 69 54 24
3 13 24 95
3 62 18 118
3 90 14 62
3 100 24 95
3 112 14 111
3 74 31 63
3 31 106 30
3 50 37 116
3 95 17 50
3 63 119 53
3 104 106 31
3 14 106 55
3 81 55 106
3 59 53 88
3 112 11 88
3 112 17 88
3 28 2 106
3 59 114 24
3 87 64 90
3 17 90 64
3 116 114 2
3 76 40 44
3 76 8 114
3 114 9 76
3 27 78 11
3 44 109 19
3 107 11 109
3 8 53 85
3 68 85 53
3 76 37 23
3 76 119 1
3 76 119 9
3 23 80 10
3 41 12 73
3 119 25 41
3 81 80 23
3 109 12 108
3 76 111 8
3 76 111 1
3 47 67 10
3 29 51 111
3 67 47 71
3 35 107 18
3 107 5 108
3 24 67 79
3 1 67 24
3 88 117 11
3 88 19 48
3 88 117 15
3 0 19 102
3 117 21 50
3 50 3 85
3 103 19 102
3 115 3 114
3 115 5 69
3 115 6 69
3 13 35 92
3 28 42 115
3 55 113 21
3 111 15 113
3 91 35 92
3 5 19 92
3 19 92 96
3 42 46 74
3 46 99 30
3 80 6 62
3 62 113 48
3 103 35 99
3 99 46 96
3 12 99 35
3 64 117 42
3 74 51 58
3 30 78 58
3 102 8 41
3 41 54 107
3 79 58 78
3 51 118 40
3 100 78 47
3 47 78 3
3 33 64 69
3 69 2 109
3 69 109 6
3 99 9 29
3 93 40 73
3 6 40 73
3 33 112 23
3 113 112 9
3 88 108 15
3 108 17 88
3 0 55 82
3 27 63 108
3 25 116 47
3 104 23 82
3 15 82 23
3 84 55 82
3 115 116 1
3 7 37 90
3 13 92 37
3 28 106 42
3 28 54 73
3 17 90 42
3 90 37 23
3 64 90 42
3 92 37 94
3 94 18 99
3 42 106 2
3 54 73 12
3 12 99 18
3 7 95 44
3 44 99 30
3 30 59 78
3 63 78 62
3 62 48 90
3 99 44 97
3 40 95 44
3 59 78 58
3 11 63 78
3 37 90 77
3 48 90 14
3 0 102 18
3 0 82 54
3 95 21 50
3 86 44 95
3 44 92 5
3 101 44 92
3 102 18 101
3 14 106 21
3 21 106 55
3 21 95 17
3 55 54 82
3 4 102 33
3 21 80 10
3 10 67 48
3 102 25 41
3 47 48 67
3 25 78 47
3 70 102 33
3 8 25 102
3 77 80 21
3 77 33 82
3 15 82 33
3 3 25 78
3 16 73 48
3 29 85 37
3 99 51 29
3 37 85 3
3 72 48 67
3 72 78 25
3 51 73 40
3 6 73 51
3 9 51 99
3 19 48 73
3 82 42 66
3 92 51 66
3 18 80 27
3 23 21 80
3 23 33 82
3 46 82 42
3 86 51 73
3 75 92 51
3 6 80 18
3 4 85 54
3 27 63 78
3 27 90 48
3 8 85 63
3 53 63 85
3 24 54 85
3 83 21 106
3 83 82 54
3 67 63 66
3 13 25 95
3 29 21 95
3 31 63 67
3 59 67 24
3 24 25 95
3 42 90 70
3 97 42 82
3 1 59 67
3 33 106 30
3 16 59 80
3 41 42 106
3 41 73 54
3 31 106 33
3 75 78 59
3 53 80 59
3 101 73 48
3 50 85 37
3 50 51 99
3 46 44 99
3 102 33 64
3 105 33 106
3 98 85 54
3 62 18 80
3 35 92 37
3 98 59 67
3 35 18 99
3 95 25 98
3 89 80 59
3 28 25 102
3 44 92 19
3 92 51 58
3 19 18 102
3 105 63 67
3 89 63 85
3 24 95 43
3 74 97 82
3 110 97 47
3 110 53 97
3 47 78 116
3 112 82 104
3 77 112 82
3 100 78 116
3 88 101 73
3 65 31 106
3 94 31 110
3 110 31 86
3 86 118 73
3 93 73 118
3 112 82 23
3 94 40 110
3 110 53 72
3 118 73 40
3 72 78 116
3 110 58 83
3 110 40 105
3 83 64 110
3 94 107 99
3 103 107 99
3 117 90 87
3 64 90 117
3 23 80 57
3 74 92 75
3 110 55 75
3 110 64 75
3 113 106 55
3 113 106 81
3 101 92 109
3 96 92 109
3 57 47 67
3 70 102 69
3 110 70 58
3 89 47 110
3 110 70 55
3 74 67 105
3 34 102 19
3 110 35 105
3 107 99 35
3 79 67 114
3 98 114 67
3 88 80 89
3 35 92 43
3 110 35 86
3 89 46 110
3 65 99 46
3 98 85 69
3 110 72 46
3 19 92 109
3 89 119 85
3 119 85 68
3 65 78 58
3 76 90 77
3 114 67 24
3 70 117 90
3 83 113 106
3 53 85 119
3 76 95 86
3 34 55 82
3 88 73 48
3 88 59 80
3 43 92 37
3 44 92 109
3 63 119 85
3 116 37 85
3 65 44 99
3 65 59 78
3 69 85 54
3 107 73 54
3 18 107 99
3 59 114 67
3 74 63 67
3 74 42 82
3 18 102 34
3 34 54 82
3 118 18 80
3 108 63 78
3 57 21 80
3 57 48 67
3 74 92 51
3 95 21 117
3 111 51 99
3 69 102 33
3 113 90 48
3 117 90 42
3 119 25 102
3 21 113 106
3 106 42 115
3 76 44 95
3 76 90 37
3 118 73 51
3 33 112 82
3 43 95 25
3 25 116 78
3 33 106 65

# Cells
24 0 1 2 3 4 5 6 7 8 9 10 11 12 13 14 15 16 17 18 19 20 21 22 23
24 24 25 26 27 28 29 30 31 32 33 34 35 36 37 38 39 40 41 42 43 44 45 46 47
24 23 48 49 50 51 52 53 54 55 56 57 58 59 60 61 62 63 64 65 66 67 68 69 70
24 18 71 72 73 74 75 76 77 78 79 80 81 82 83 84 85 86 87 88 89 90 91 92 93
24 20 94 95 96 97 98 99 100 101 102 103 104 105 106 107 108 109 110 111 112 113 114 115 116
24 45 69 117 118 119 120 121 122 123 124 125 126 127 128 129 130 131 132 133 134 135 136 137 138
24 68 139 140 141 142 143 144 145 146 147 148 149 150 151 152 153 154 155 156 157 158 159 160 161
24 42 89 162 163 164 165 166 167 168 169 170 171 172 173 174 175 176 177 178 179 180 181 182 183
24 44 113 184 185 186 187 188 189 190 191 192 193 194 195 196 197 198 199 200 201 202 203 204 205
24 115 206 207 208 209 210 211 212 213 214 215 216 217 218 219 220 221 222 223 224 225 226 227 228
24 91 229 230 231 232 233 234 235 236 237 238 239 240 241 242 243 244 245 246 247 248 249 250 251
24 159 183 252 253 254 255 256 257 258 259 260 261 262 263 264 265 266 267 268 269 270 271 272 273
24 136 225 274 275 276 277 278 279 280 281 282 283 284 285 286 287 288 289 290 291 292 293 294 295
24 204 250 296 297 298 299 300 301 302 303 304 305 306 307 308 309 310 311 312 313 314 315 316 317
24 157 227 248 318 319 320 321 322 323 324 325 326 327 328 329 330 331 332 333 334 335 336 337 338
24 271 294 316 339 340 341 342 343 344 345 346 347 348 349 350 351 352 353 354 355 356 357 358 359
24 19 47 93 135 160 272 360 361 362 363 364 365 366 367 368 369 370 371 372 373 374 375 376 377
24 21 46 66 205 226 295 378 379 380 381 382 383 384 385 386 387 388 389 390 391 392 393 394 395
24 22 43 114 180 249 315 396 397 398 399 400 401 402 403 404 405 406 407 408 409 410 411 412 413
24 70 92 116 158 224 251 414 415 416 417 418 419 420 421 422 423 424 425 426 427 428 429 430 431
24 112 202 247 293 337 358 432 433 434 435 436 437 438 439 440 441 442 443 444 445 446 447 448 449
24 90 161 182 314 336 357 450 451 452 453 454 455 456 457 458 459 460 461 462 463 464 465 466 467
24 67 137 228 273 338 359 468 469 470 471 472 473 474 475 476 477 478 479 480 481 482 483 484 485
24 138 181 203 270 292 317 486 487 488 489 490 491 492 493 494 495 496 497 498 499 500 501 502 503
24 54 59 133 384 504 505 506 507 508 509 510 511 512 513 514 515 516 517 518 519 520 521 522 523
24 76 150 416 431 524 525 526 527 528 529 530 531 532 533 534 535 536 537 538 539 540 541 542 543
24 26 35 167 179 404 410 544 545 546 547 548 549 550 551 552 553 554 555 556 557 558 559 560 561
24 29 41 122 128 368 371 550 562 563 564 565 566 567 568 569 570 571 572 573 574 575 576 577 578
24 78 84 172 361 524 532 565 579 580 581 582 583 584 585 586 587 588 589 590 591 592 593 594 595
24 65 152 155 376 509 516 566 596 597 598 599 600 601 602 603 604 605 606 607 608 609 610 611 612
24 96 105 195 401 536 546 613 614 615 616 617 618 619 620 621 622 623 624 625 626 627 628 629 630
24 108 208 223 392 558 561 617 630 631 632 633 634 635 636 637 638 639 640 641 642 643 644 645 646
24 101 245 418 425 513 526 615 621 638 647 648 649 650 651 652 653 654 655 656 657 658 659 660 661
24 48 216 420 427 507 519 527 594 606 650 662 663 664 665 666 667 668 669 670 671 672 673 674 675
24 31 37 197 200 379 389 505 548 563 602 607 632 676 677 678 679 680 681 682 683 684 685 686 687
24 82 234 240 407 538 547 574 576 581 592 688 689 690 691 692 693 694 695 696 697 698 699 700 701
24 14 32 380 395 551 628 633 644 702 703 704 705 706 707 708 709 710 711 712 713 714 715 716 717
24 15 50 61 422 506 643 649 661 710 718 719 720 721 722 723 724 725 726 727 728 729 730 731 732
24 1 4 87 413 624 656 706 711 722 729 733 734 735 736 737 738 739 740 741 742 743 744 745 746
24 10 17 60 373 540 595 738 747 748 749 750 751 752 753 754 755 756 757 758 759 760 761 762 763
24 9 27 366 372 517 596 604 676 764 765 766 767 768 769 770 771 772 773 774 775 776 777 778 779
24 5 11 79 88 362 374 568 689 707 780 781 782 783 784 785 786 787 788 789 790 791 792 793 794
24 0 25 403 412 562 589 688 697 751 759 795 796 797 798 799 800 801 802 803 804 805 806 807 808
24 13 16 56 62 386 394 597 679 786 799 809 810 811 812 813 814 815 816 817 818 819 820 821 822
24 3 74 86 414 579 608 663 671 771 816 823 824 825 826 827 828 829 830 831 832 833 834 835 836
24 8 102 111 419 529 542 616 700 753 763 788 808 837 838 839 840 841 842 843 844 845 846 847 848
24 6 12 109 393 514 668 737 752 768 778 827 834 849 850 851 852 853 854 855 856 857 858 859 860
24 2 7 95 110 400 411 545 631 723 769 787 815 861 862 863 864 865 866 867 868 869 870 871 872
24 139 146 268 466 512 530 537 591 598 660 873 874 875 876 877 878 879 880 881 882 883 884 885 886
24 170 176 254 263 491 497 534 539 555 584 626 627 876 887 888 889 890 891 892 893 894 895 896 897
24 131 260 473 482 521 559 560 572 612 646 893 898 899 900 901 902 903 904 905 906 907 908 909 910
24 189 276 440 449 573 575 622 639 683 699 911 912 913 914 915 916 917 918 919 920 921 922 923 924
24 229 236 306 442 585 623 651 654 673 691 911 920 925 926 927 928 929 930 931 932 933 934 935 936
24 210 322 331 436 603 635 642 659 684 686 912 919 932 937 938 939 940 941 942 943 944 945 946 947
24 214 220 291 485 523 541 629 637 666 674 896 897 901 909 948 949 950 951 952 953 954 955 956 957
24 243 320 329 458 533 556 557 640 693 695 885 908 940 958 959 960 961 962 963 964 965 966 967 968
24 184 191 303 312 487 499 520 522 618 653 657 680 879 883 887 926 969 970 971 972 973 974 975 976
24 117 124 278 287 493 502 510 570 588 593 667 670 888 915 935 936 948 974 977 978 979 980 981 982
24 163 297 451 460 553 586 610 685 687 696 874 880 944 958 965 971 983 984 985 986 987 988 989 990
24 144 326 335 470 577 578 601 611 675 701 902 910 923 941 957 961 991 992 993 994 995 996 997 998
24 73 85 164 173 455 461 525 554 709 713 736 782 895 959 999 1000 1001 1002 1003 1004 1005 1006 1007 1008
24 40 119 121 501 511 515 549 725 779 903 906 973 1009 1010 1011 1012 1013 1014 1015 1016 1017 1018 1019 1020
24 52 63 156 475 508 535 721 744 749 757 878 886 1021 1022 1023 1024 1025 1026 1027 1028 1029 1030 1031 1032
24 98 107 207 433 614 672 761 838 850 856 951 955 1033 1034 1035 1036 1037 1038 1039 1040 1041 1042 1043 1044
24 97 103 187 193 432 447 647 682 775 776 849 865 937 975 1045 1046 1047 1048 1049 1050 1051 1052 1053 1054
24 99 237 434 443 692 698 790 791 839 843 866 914 967 1055 1056 1057 1058 1059 1060 1061 1062 1063 1064 1065
24 51 57 130 134 474 481 569 664 750 806 807 814 982 993 1066 1067 1068 1069 1070 1071 1072 1073 1074 1075
24 72 141 454 465 599 605 781 818 819 824 830 985 997 1076 1077 1078 1079 1080 1081 1082 1083 1084 1085 1086
24 33 168 177 495 583 590 677 804 828 978 986 987 1087 1088 1089 1090 1091 1092 1093 1094 1095 1096 1097 1098
24 38 192 198 500 564 619 625 712 844 890 917 922 1099 1100 1101 1102 1103 1104 1105 1106 1107 1108 1109 1110
24 71 80 238 453 580 658 735 745 823 859 928 930 1111 1112 1113 1114 1115 1116 1117 1118 1119 1120 1121 1122
24 53 219 476 484 634 641 719 727 813 871 872 900 947 1123 1124 1125 1126 1127 1128 1129 1130 1131 1132 1133
24 212 221 280 289 381 390 665 678 810 831 836 851 942 979 1091 1096 1134 1135 1136 1137 1138 1139 1140 1141
24 242 246 328 423 662 669 690 800 835 929 991 995 1039 1072 1073 1085 1142 1143 1144 1145 1146 1147 1148 1149
24 186 300 311 397 681 694 796 801 821 822 861 983 990 1061 1083 1095 1150 1151 1152 1153 1154 1155 1156 1157
24 175 256 262 364 552 609 766 772 783 867 870 898 904 1019 1081 1130 1158 1159 1160 1161 1162 1163 1164 1165
24 147 153 257 269 365 377 531 567 748 785 846 848 892 994 1108 1110 1166 1167 1168 1169 1170 1171 1172 1173
24 126 255 363 369 582 587 747 758 765 860 881 981 1027 1093 1122 1174 1175 1176 1177 1178 1179 1180 1181 1182
24 231 233 299 305 396 406 544 652 731 732 734 862 963 969 1014 1017 1183 1184 1185 1186 1187 1188 1189 1190
24 201 281 382 387 504 518 703 743 852 858 953 976 1015 1025 1043 1191 1192 1193 1194 1195 1196 1197 1198 1199
24 211 217 332 428 528 543 636 717 847 952 962 968 1007 1008 1032 1064 1200 1201 1202 1203 1204 1205 1206 1207
24 142 148 333 429 600 648 655 728 774 877 938 943 1051 1052 1117 1128 1208 1209 1210 1211 1212 1213 1214 1215
24 125 282 288 383 571 645 705 716 793 794 811 916 924 1065 1109 1133 1216 1217 1218 1219 1220 1221 1222 1223
24 166 301 398 409 613 620 733 739 762 795 894 934 1038 1106 1120 1224 1225 1226 1227 1228 1229 1230 1231 1232
24 104 194 199 388 805 809 837 842 1060 1101 1153 1156 1233 1234 1235 1236 1237 1238 1239 1240 1241 1242 1243 1244
24 100 106 206 215 417 426 826 864 1048 1126 1139 1209 1233 1245 1246 1247 1248 1249 1250 1251 1252 1253 1254 1255
24 94 232 399 405 797 829 857 1035 1042 1145 1148 1226 1245 1256 1257 1258 1259 1260 1261 1262 1263 1264 1265 1266
24 77 151 360 375 726 740 767 1113 1121 1176 1210 1215 1267 1268 1269 1270 1271 1272 1273 1274 1275 1276 1277 1278
24 58 127 132 370 714 720 730 784 1012 1131 1219 1221 1269 1278 1279 1280 1281 1282 1283 1284 1285 1286 1287 1288
24 28 34 178 367 702 708 746 1003 1100 1104 1169 1230 1268 1277 1286 1289 1290 1291 1292 1293 1294 1295 1296 1297
24 83 165 171 408 777 825 833 863 1084 1090 1161 1164 1253 1255 1257 1263 1298 1299 1300 1301 1302 1303 1304 1305
24 30 39 120 378 756 798 802 1071 1088 1097 1137 1182 1237 1265 1289 1306 1307 1308 1309 1310 1311 1312 1313 1314
24 49 64 149 154 421 430 812 840 1069 1079 1143 1170 1242 1243 1247 1279 1315 1316 1317 1318 1319 1320 1321 1322
24 75 81 239 244 415 424 718 780 1002 1058 1188 1201 1246 1267 1282 1287 1298 1315 1323 1324 1325 1326 1327 1328
24 55 222 385 391 704 760 845 1023 1029 1193 1202 1206 1234 1244 1297 1307 1314 1316 1329 1330 1331 1332 1333 1334
24 24 36 196 402 764 770 855 1010 1018 1049 1186 1198 1256 1260 1274 1290 1301 1306 1335 1336 1337 1338 1339 1340
24 318 342 456 462 832 933 939 946 984 1077 1098 1111 1119 1140 1141 1214 1341 1342 1343 1344 1345 1346 1347 1348
24 304 309 339 488 803 918 925 931 977 1074 1075 1103 1147 1152 1225 1229 1346 1349 1350 1351 1352 1353 1354 1355
24 284 352 355 479 817 820 921 945 1067 1082 1123 1129 1135 1157 1217 1220 1344 1348 1351 1354 1356 1357 1358 1359
24 308 341 346 445 868 869 964 988 1046 1055 1059 1132 1151 1155 1163 1183 1356 1360 1361 1362 1363 1364 1365 1366
24 323 347 437 446 841 913 954 992 998 1034 1044 1057 1105 1149 1172 1173 1367 1368 1369 1370 1371 1372 1373 1374
24 274 283 345 351 438 444 853 854 927 980 1033 1045 1115 1118 1134 1178 1180 1191 1343 1375 1376 1377 1378 1379
24 325 354 469 478 724 882 899 960 966 1016 1022 1028 1124 1189 1190 1204 1361 1364 1380 1381 1382 1383 1384 1385
24 298 310 340 343 452 463 741 742 873 970 999 1030 1031 1112 1185 1196 1197 1224 1378 1382 1386 1387 1388 1389
24 279 285 353 494 715 889 905 949 956 1005 1006 1020 1192 1199 1205 1218 1374 1389 1390 1391 1392 1393 1394 1395
24 252 264 348 489 773 875 884 972 989 1053 1054 1094 1159 1174 1181 1212 1360 1365 1377 1384 1396 1397 1398 1399
24 266 344 350 464 789 792 907 996 1001 1063 1078 1086 1160 1165 1168 1223 1357 1362 1370 1372 1392 1395 1400 1401
24 259 265 349 356 472 477 754 755 891 950 1021 1040 1041 1066 1167 1175 1231 1232 1352 1369 1379 1388 1402 1403
24 230 296 307 450 1076 1080 1144 1146 1150 1240 1261 1302 1321 1322 1323 1349 1373 1401 1404 1405 1406 1407 1408 1409
24 190 277 492 498 1050 1087 1092 1136 1154 1236 1241 1250 1252 1303 1310 1363 1396 1398 1410 1411 1412 1413 1414 1415
24 209 218 324 330 468 483 1036 1068 1138 1142 1248 1262 1266 1309 1313 1329 1342 1403 1416 1417 1418 1419 1420 1421
24 235 241 321 327 435 441 1047 1114 1187 1208 1258 1271 1275 1324 1337 1339 1375 1380 1416 1422 1423 1424 1425 1426
24 213 275 290 439 1056 1062 1203 1207 1216 1239 1249 1283 1326 1328 1331 1366 1385 1391 1412 1415 1423 1427 1428 1429
24 185 188 313 448 1037 1102 1194 1195 1235 1264 1292 1334 1335 1340 1367 1371 1386 1394 1405 1408 1422 1430 1431 1432
24 145 258 267 471 1125 1127 1158 1211 1213 1251 1254 1276 1285 1305 1318 1347 1358 1397 1413 1419 1433 1434 1435 1436
24 162 174 261 459 1089 1116 1227 1228 1259 1272 1291 1295 1299 1311 1341 1345 1353 1402 1420 1421 1433 1435 1437 1438
24 118 253 490 503 1070 1099 1107 1166 1222 1238 1280 1284 1293 1319 1320 1350 1355 1359 1409 1411 1434 1436 1438 1439
24 169 302 486 496 1004 1009 1013 1162 1184 1288 1300 1304 1325 1327 1336 1390 1393 1400 1404 1407 1410 1428 1431 1439
24 140 143 319 334 457 467 1000 1024 1171 1200 1270 1294 1296 1317 1330 1333 1368 1387 1406 1417 1424 1430 1432 1437
24 123 129 286 480 1011 1026 1177 1179 1273 1281 1308 1312 1332 1338 1376 1381 1383 1399 1414 1418 1425 1426 1427 1429
