# Generated using Miratope v0.5.0 (https://github.com/galoomba1/miratope-rs)
4OFF

# Vertices, Faces, Edges, Cells
120 2520 1200 720

# Vertices
0.809016994374945 -0.809016994374945 -0.809016994374945 0.809016994374945 
0 -1.61803398874989 0 0 
0 0 -1.61803398874989 0 
-0.5 0 -1.30901699437495 0.809016994374945 
-0.809016994374945 -0.809016994374945 -0.809016994374945 -0.809016994374945 
-0.809016994374945 -1.30901699437495 0 0.5 
-1.30901699437495 -0.809016994374945 -0.5 0 
0 -0.5 -0.809016994374945 1.30901699437495 
0.809016994374945 -0.5 -1.30901699437495 0 
0 -1.30901699437495 -0.5 -0.809016994374945 
0.809016994374945 -0.809016994374945 0.809016994374945 0.809016994374945 
-0.809016994374945 -0.809016994374945 0.809016994374945 0.809016994374945 
0.809016994374945 0 -0.5 1.30901699437495 
-0.809016994374945 -0.809016994374945 -0.809016994374945 0.809016994374945 
0.809016994374945 0 0.5 1.30901699437495 
-0.809016994374945 0 -0.5 1.30901699437495 
-0.809016994374945 0 0.5 1.30901699437495 
0.809016994374945 -1.30901699437495 0 0.5 
0.809016994374945 -0.809016994374945 0.809016994374945 -0.809016994374945 
0.809016994374945 -0.809016994374945 -0.809016994374945 -0.809016994374945 
-0.809016994374945 -0.809016994374945 0.809016994374945 -0.809016994374945 
-0.5 -1.30901699437495 0.809016994374945 0 
-0.5 -1.30901699437495 -0.809016994374945 0 
0.5 -1.30901699437495 0.809016994374945 0 
0.5 -1.30901699437495 -0.809016994374945 0 
0 -0.5 0.809016994374945 -1.30901699437495 
0 -0.5 -0.809016994374945 -1.30901699437495 
-0.809016994374945 0.809016994374945 -0.809016994374945 0.809016994374945 
-0.809016994374945 0.809016994374945 -0.809016994374945 -0.809016994374945 
-1.30901699437495 -0.5 0 0.809016994374945 
-1.30901699437495 -0.5 0 -0.809016994374945 
-1.30901699437495 0.5 0 0.809016994374945 
-1.30901699437495 0.5 0 -0.809016994374945 
-0.5 0 -1.30901699437495 -0.809016994374945 
0.809016994374945 0.809016994374945 -0.809016994374945 0.809016994374945 
0.809016994374945 0.809016994374945 -0.809016994374945 -0.809016994374945 
0 0.809016994374945 -1.30901699437495 -0.5 
0 0.809016994374945 -1.30901699437495 0.5 
0 -0.809016994374945 -1.30901699437495 -0.5 
0 -0.809016994374945 -1.30901699437495 0.5 
1.30901699437495 0.809016994374945 -0.5 0 
1.30901699437495 -0.809016994374945 -0.5 0 
0 0 1.61803398874989 0 
0.5 0 1.30901699437495 0.809016994374945 
0 -0.5 0.809016994374945 1.30901699437495 
1.30901699437495 -0.809016994374945 0.5 0 
-0.809016994374945 -0.5 1.30901699437495 0 
0 -1.30901699437495 0.5 -0.809016994374945 
-0.809016994374945 0.809016994374945 0.809016994374945 -0.809016994374945 
-1.61803398874989 0 0 0 
0 0 0 -1.61803398874989 
-1.30901699437495 -0.809016994374945 0.5 0 
-0.809016994374945 -1.30901699437495 0 -0.5 
-0.5 0 1.30901699437495 -0.809016994374945 
-0.5 0.809016994374945 0 -1.30901699437495 
-1.30901699437495 0 -0.809016994374945 -0.5 
0 0 0 1.61803398874989 
-1.30901699437495 0.809016994374945 0.5 0 
0 0.5 0.809016994374945 1.30901699437495 
-0.5 0 1.30901699437495 0.809016994374945 
-0.809016994374945 1.30901699437495 0 0.5 
-0.5 -0.809016994374945 0 1.30901699437495 
-1.30901699437495 0 -0.809016994374945 0.5 
0.809016994374945 0.809016994374945 0.809016994374945 0.809016994374945 
1.61803398874989 0 0 0 
0 0.5 -0.809016994374945 1.30901699437495 
0.809016994374945 1.30901699437495 0 0.5 
0.5 0 -1.30901699437495 0.809016994374945 
1.30901699437495 0 0.809016994374945 0.5 
0.5 -0.809016994374945 0 1.30901699437495 
0.809016994374945 -1.30901699437495 0 -0.5 
0.5 0 -1.30901699437495 -0.809016994374945 
1.30901699437495 0 0.809016994374945 -0.5 
0.5 0.809016994374945 0 -1.30901699437495 
0 1.61803398874989 0 0 
-0.809016994374945 1.30901699437495 0 -0.5 
-1.30901699437495 0.809016994374945 -0.5 0 
0 0.5 -0.809016994374945 -1.30901699437495 
0 1.30901699437495 -0.5 0.809016994374945 
0.809016994374945 0.5 -1.30901699437495 0 
-0.809016994374945 0.809016994374945 0.809016994374945 0.809016994374945 
0 0.809016994374945 1.30901699437495 -0.5 
0 0.809016994374945 1.30901699437495 0.5 
0 -0.809016994374945 1.30901699437495 -0.5 
0 -0.809016994374945 1.30901699437495 0.5 
0.809016994374945 0.809016994374945 0.809016994374945 -0.809016994374945 
1.30901699437495 -0.5 0 0.809016994374945 
1.30901699437495 -0.5 0 -0.809016994374945 
1.30901699437495 0.5 0 0.809016994374945 
1.30901699437495 0.5 0 -0.809016994374945 
0.5 0 1.30901699437495 -0.809016994374945 
-0.5 1.30901699437495 0.809016994374945 0 
-0.5 1.30901699437495 -0.809016994374945 0 
0.5 1.30901699437495 0.809016994374945 0 
0.5 1.30901699437495 -0.809016994374945 0 
0.809016994374945 0 -0.5 -1.30901699437495 
0.809016994374945 0 0.5 -1.30901699437495 
-0.809016994374945 0 -0.5 -1.30901699437495 
-0.809016994374945 0 0.5 -1.30901699437495 
0.809016994374945 1.30901699437495 0 -0.5 
1.30901699437495 0.809016994374945 0.5 0 
0 0.5 0.809016994374945 -1.30901699437495 
0 1.30901699437495 0.5 0.809016994374945 
-0.809016994374945 0.5 1.30901699437495 0 
-1.30901699437495 0 0.809016994374945 0.5 
0 -1.30901699437495 0.5 0.809016994374945 
0 -1.30901699437495 -0.5 0.809016994374945 
1.30901699437495 0 -0.809016994374945 0.5 
-0.5 0.809016994374945 0 1.30901699437495 
-0.809016994374945 0.5 -1.30901699437495 0 
-0.5 -0.809016994374945 0 -1.30901699437495 
-0.809016994374945 -0.5 -1.30901699437495 0 
0 1.30901699437495 -0.5 -0.809016994374945 
1.30901699437495 0 -0.809016994374945 -0.5 
-1.30901699437495 0 0.809016994374945 -0.5 
0 1.30901699437495 0.5 -0.809016994374945 
0.809016994374945 -0.5 1.30901699437495 0 
0.5 -0.809016994374945 0 -1.30901699437495 
0.809016994374945 0.5 1.30901699437495 0 
0.5 0.809016994374945 0 1.30901699437495 

# Faces
4 1 0 2 4
4 0 3 6 1
5 2 7 8 3 0
5 4 1 6 9 5
4 4 5 7 2
4 7 5 9 8
4 3 6 9 8
4 10 11 13 0
5 10 12 17 14 0
4 11 15 12 10
4 13 0 14 16
5 11 15 5 16 13
4 14 17 5 16
4 12 15 5 17
4 18 19 4 20
4 18 21 22 19
5 18 20 23 25 21
5 19 4 24 26 22
4 4 20 23 24
4 23 25 26 24
4 21 25 26 22
4 27 13 4 28
4 28 27 29 30
5 27 29 3 31 13
5 28 30 33 32 4
4 13 4 32 31
4 31 32 33 3
4 29 3 33 30
4 35 19 0 34
5 34 35 37 40 36
4 34 0 38 36
4 19 35 37 39
5 39 19 0 38 41
4 41 40 37 39
4 40 36 38 41
4 42 18 1 11
4 18 17 44 42
5 1 45 47 17 18
5 42 11 43 46 44
4 1 45 43 11
4 43 45 47 46
4 44 17 47 46
4 49 48 50 4
4 49 52 25 48
5 50 53 54 25 48
5 49 4 51 55 52
4 50 53 51 4
4 53 54 55 51
4 25 52 55 54
4 27 49 11 56
4 56 59 57 27
5 60 49 27 57 62
5 56 59 61 58 11
4 49 11 58 60
4 60 62 61 58
4 61 62 57 59
4 64 63 56 0
5 63 40 68 66 64
4 56 67 40 63
4 64 66 65 0
5 0 56 67 69 65
4 66 68 69 65
4 68 40 67 69
4 64 35 50 18
4 64 35 26 70
5 35 26 73 71 50
5 41 18 64 70 72
4 50 71 41 18
4 41 71 73 72
4 72 70 26 73
4 35 2 27 74
4 35 74 76 33
5 2 77 79 33 35
5 74 76 78 75 27
4 2 27 75 77
4 75 77 79 78
4 78 79 33 76
4 80 11 20 48
5 82 48 80 81 57
4 11 83 81 80
4 48 82 84 20
5 20 11 83 51 84
4 82 84 51 57
4 83 51 57 81
4 63 10 18 85
4 63 86 87 85
5 88 10 63 86 43
5 85 18 89 90 87
4 10 18 89 88
4 88 89 90 43
4 86 87 90 43
4 63 80 27 34
4 34 63 91 92
5 80 63 91 58 93
5 34 92 65 94 27
4 27 94 93 80
4 58 93 94 65
4 91 92 65 58
4 35 28 48 85
5 85 95 99 96 35
4 85 95 97 48
4 35 28 98 96
5 28 98 75 97 48
4 99 96 98 75
4 99 95 97 75
4 63 74 48 42
5 63 74 100 102 99
4 42 63 99 101
4 48 74 100 90
5 42 101 103 90 48
4 100 102 103 90
4 102 103 101 99
4 49 20 1 13
5 20 49 46 30 104
4 1 20 104 61
4 13 49 46 105
5 13 105 22 61 1
4 46 30 22 105
4 104 61 22 30
4 64 19 1 10
4 10 106 8 64
5 1 69 23 106 10
5 64 19 107 87 8
4 1 69 107 19
4 107 69 23 87
4 23 106 8 87
4 56 34 2 13
5 56 78 12 108 34
4 2 62 108 34
4 56 13 109 78
5 13 2 62 39 109
4 12 39 62 108
4 78 12 39 109
4 2 28 50 19
4 19 2 55 110
5 50 9 95 110 19
5 2 55 36 111 28
4 28 111 9 50
4 95 110 55 36
4 95 9 111 36
4 85 64 34 74
4 64 85 112 79
5 85 112 93 73 74
5 34 113 88 79 64
4 34 74 73 113
4 93 88 113 73
4 93 112 79 88
4 74 28 49 80
4 80 114 54 74
5 80 49 103 31 114
5 28 115 92 54 74
4 28 115 103 49
4 103 31 92 115
4 92 31 114 54
4 42 85 50 20
5 72 42 85 116 81
4 85 116 47 50
4 42 72 117 20
5 117 20 50 47 98
4 81 98 117 72
4 81 98 47 116
4 42 80 56 10
5 68 42 10 118 84
4 56 102 118 10
4 80 42 68 119
5 56 102 16 119 80
4 68 84 16 119
4 102 16 84 118
4 69 39 6 11
4 69 24 52 11
5 11 6 21 29 52
5 69 39 17 7 24
4 7 17 21 29
4 7 29 52 24
4 17 39 6 21
4 51 47 24 13
4 13 38 110 51
5 106 38 13 24 111
4 106 21 30 111
4 21 110 38 106
5 21 30 47 51 110
4 24 47 30 111
4 4 39 15 49
4 51 61 39 4
4 52 106 15 49
5 15 39 61 3 106
4 3 55 51 61
4 106 52 55 3
4 0 19 47 105
4 0 105 52 38
4 19 47 5 39
4 39 5 23 41
4 41 23 52 38
5 23 52 105 47 5
4 56 29 22 0
4 0 65 62 22
4 56 67 111 29
4 69 65 62 5
4 69 5 111 67
5 5 111 29 22 62
4 13 2 26 52
4 109 97 52 13
4 62 30 26 2
4 39 62 30 9
4 39 109 97 9
5 30 9 97 52 26
4 13 1 41 67
4 13 67 86 105
4 1 41 12 61
5 41 67 86 8 12
4 105 86 8 22
4 22 8 12 61
4 117 71 39 1
5 1 110 70 52 117
4 39 1 110 33
4 8 111 52 70
4 70 110 33 8
5 111 71 39 33 8
4 71 111 52 117
5 27 7 37 15 67
4 27 55 22 7
4 67 38 55 27
4 15 67 38 6
4 37 33 6 15
4 37 33 22 7
5 6 38 55 22 33
5 107 71 67 113 2
4 2 22 17 107
4 2 22 70 113
4 107 71 9 17
4 113 67 106 70
5 22 70 106 9 17
4 106 67 71 9
4 13 24 107 65
4 13 65 79 38
5 12 37 107 65 79
4 79 38 106 12
4 12 106 111 37
4 107 24 111 37
4 19 79 109 4
4 19 79 3 22
4 24 67 109 4
5 67 109 79 3 36
4 24 67 36 26
4 3 22 26 36
4 11 106 9 20
4 106 11 83 70
4 20 9 17 84
4 22 51 84 17
4 51 22 70 83
4 62 32 20 5
5 32 110 114 97 20
4 5 111 97 20
4 29 111 97 114
4 22 110 114 29
4 62 22 110 32
4 56 105 51 31
4 56 31 6 106
5 44 106 56 105 7
4 44 104 62 7
4 104 6 106 44
4 7 62 51 105
5 104 6 31 51 62
4 45 0 61 84
5 0 70 86 24 45
4 61 0 70 21
4 86 44 21 70
4 44 5 24 86
5 21 61 84 5 44
4 84 45 24 5
4 49 109 65 16
4 49 16 7 111
5 6 109 49 111 76
5 108 61 65 16 7
4 108 76 6 61
4 7 108 76 111
4 65 61 6 109
4 50 33 6 20
4 6 20 117 38
4 33 50 47 22
4 117 38 55 98
4 55 98 47 22
4 7 34 64 17
4 7 34 113 24
4 64 17 39 79
4 69 88 113 24
4 88 69 39 79
4 35 87 24 2
4 87 35 33 9
4 77 117 24 2
4 79 41 117 77
4 79 33 9 41
5 41 117 24 87 9
4 34 8 111 27
4 33 92 34 8
4 94 71 111 27
4 65 39 71 94
4 65 39 33 92
4 1 18 95 38
4 17 8 95 18
4 45 1 38 113
4 45 47 26 113
5 113 38 95 8 26
4 17 47 26 8
5 14 34 86 119 107
4 61 14 34 3
4 106 86 34 3
4 14 61 39 107
4 106 86 119 15
4 39 107 119 15
4 4 71 37 62
4 62 92 77 4
5 71 97 38 77 4
5 92 3 76 37 62
4 3 92 77 38
4 37 76 97 71
4 76 3 38 97
4 11 13 55 114
4 11 15 76 114
4 13 55 57 16
4 16 57 30 5
4 5 30 76 15
5 57 55 114 76 30
4 1 10 59 51
4 59 10 106 29
4 1 51 16 69
5 29 46 16 51 59
4 69 23 46 16
4 23 106 29 46
4 1 4 98 83
4 4 5 46 98
4 6 114 83 1
4 46 5 9 25
5 46 98 83 114 25
4 6 114 25 9
4 45 0 79 89
4 79 0 70 95
4 70 95 40 86
4 24 71 40 86
5 40 95 79 89 71
4 89 45 24 71
4 0 88 94 2
4 0 88 78 3
4 2 94 119 7
5 119 94 88 78 40
4 8 40 119 7
4 3 78 40 8
5 94 109 112 37 28
4 113 94 28 26
4 37 8 26 28
4 113 38 109 94
4 8 37 112 95
4 95 112 109 38
4 10 41 117 83
4 9 21 10 41
5 105 83 10 21 116
4 116 87 24 105
4 87 116 21 9
4 117 83 105 24
4 49 109 77 98
4 49 111 26 98
4 76 54 110 6
4 54 76 111 26
5 54 26 98 77 110
4 109 77 110 6
4 13 69 119 27
4 29 44 119 27
4 69 13 31 58
5 119 44 12 58 69
4 31 58 12 3
4 3 12 44 29
4 88 56 105 45
4 106 41 88 56
5 45 107 68 41 88
4 44 7 107 68
4 106 41 68 44
4 105 45 107 7
4 28 2 65 60
4 60 28 111 15
4 65 2 55 31
5 78 15 60 65 31
4 78 36 111 15
4 36 78 31 55
4 4 71 87 47
4 47 4 77 96
4 71 87 25 97
5 70 25 87 47 96
4 70 38 77 96
4 38 70 25 97
4 11 103 32 6
4 52 98 103 11
5 57 98 103 32 53
4 53 21 29 57
4 21 53 32 6
4 57 29 52 98
4 80 44 5 49
4 114 21 44 80
4 5 49 103 84
4 31 61 84 103
4 114 21 61 31
4 5 104 42 23
5 42 114 59 53 104
4 23 52 114 42
4 105 59 53 47
4 105 59 114 52
4 5 104 53 47
4 0 10 72 113
4 12 40 72 10
4 0 113 100 14
4 17 87 100 14
5 87 40 72 113 100
4 12 17 87 40
5 74 119 60 66 108
4 36 74 119 67
4 3 108 74 36
4 66 79 3 108
4 60 109 79 66
4 67 119 60 109
5 89 117 113 96 19
4 19 89 112 33
4 19 33 54 96
4 112 97 117 89
4 96 54 36 113
4 36 113 117 97
5 112 33 54 36 97
4 19 89 68 17
4 17 19 96 116
4 89 117 23 68
5 116 17 68 23 86
4 116 96 113 86
4 113 117 23 86
4 35 92 32 50
4 35 92 55 26
4 71 109 32 50
4 73 75 109 71
4 26 55 75 73
5 109 32 92 55 75
4 27 102 14 7
4 67 88 102 27
5 102 14 66 58 88
4 88 67 15 58
4 7 14 66 37
4 58 15 37 66
4 18 84 14 64
4 41 69 84 18
4 70 105 14 64
5 84 69 43 105 14
4 72 43 69 41
4 70 105 43 72
4 3 56 80 76
4 119 37 76 80
4 3 56 102 92
4 37 119 16 62
4 16 62 92 102
4 4 117 73 28
4 73 28 30 25
4 4 32 101 117
5 101 117 73 25 95
4 95 33 32 101
4 30 25 95 33
5 100 35 66 89 94
4 100 86 8 35
4 8 35 66 12
4 86 100 94 67
4 12 66 89 41
4 41 89 94 67
4 19 64 99 77
4 107 94 77 19
4 64 99 36 8
5 99 77 94 73 36
4 107 94 73 87
4 87 73 36 8
4 107 2 92 66
4 2 92 99 113
4 66 107 71 112
5 78 112 66 92 99
4 67 78 99 113
4 71 112 78 67
4 62 28 48 104
4 97 6 104 48
4 28 62 51 98
4 51 98 75 31
4 31 75 97 6
4 84 1 117 90
4 110 53 84 1
5 116 46 90 84 53
4 70 116 46 52
4 53 110 70 116
4 90 117 52 46
4 43 80 15 69
4 80 43 105 29
5 15 104 108 29 80
4 84 104 108 14
4 105 29 108 14
4 84 104 15 69
4 75 80 15 109
4 80 75 55 29
4 92 108 104 32
4 92 108 29 55
4 32 104 15 109
4 56 86 23 11
4 11 23 68 58
4 56 86 116 59
4 68 58 61 17
4 59 116 17 61
5 18 53 96 83 101
4 30 53 18 9
4 101 97 9 18
4 53 30 26 96
4 52 83 96 26
4 101 97 52 83
4 49 97 36 27
4 27 36 54 57
4 60 112 97 49
4 33 62 60 112
4 33 62 57 54
4 50 19 45 90
4 19 45 83 110
4 50 9 23 90
5 72 23 90 45 83
4 72 95 110 83
4 9 23 72 95
4 63 108 61 10
4 86 7 108 63
4 10 61 65 88
4 43 16 65 88
4 7 86 43 16
4 68 85 35 107
4 85 68 41 95
4 35 107 45 96
4 45 96 99 88
4 99 88 41 95
4 74 40 71 28
4 71 28 115 89
4 95 54 74 40
4 92 79 89 115
4 95 54 92 79
4 37 74 63 12
4 12 63 99 79
4 37 74 100 107
4 102 65 107 100
4 65 102 99 79
4 16 60 48 46
5 48 76 91 32 60
4 29 76 48 46
4 29 76 91 59
4 51 32 91 59
4 60 16 51 32
4 42 21 30 48
4 47 90 48 30
4 42 21 110 101
4 103 51 47 90
4 51 103 101 110
4 58 10 83 103
4 10 21 104 58
4 116 82 16 105
4 116 82 104 21
5 82 16 103 58 104
4 103 83 105 16
4 28 57 102 94
4 28 57 108 37
4 102 94 109 31
5 57 108 91 31 102
4 108 37 112 91
4 112 91 31 109
5 118 45 100 116 64
4 12 64 118 58
4 44 116 64 12
4 100 119 44 116
4 119 69 45 100
4 58 69 45 118
4 54 85 18 110
4 54 85 87 26
4 89 77 110 18
4 98 90 89 77
4 90 98 26 87
5 115 77 101 112 50
4 115 57 30 50
4 50 30 76 112
4 57 115 77 55
4 101 114 76 112
4 114 55 77 101
4 25 42 10 70
4 10 70 96 118
4 42 25 87 68
4 68 87 47 84
4 118 96 47 84
4 63 78 31 59
5 82 44 63 59 14
4 78 63 44 15
4 14 65 60 82
4 14 65 31 59
4 82 60 15 44
4 35 34 102 115
4 102 34 36 75
4 115 35 37 60
4 40 37 60 93
4 93 40 36 75
5 115 60 93 75 102
4 34 99 118 14
4 34 99 72 86
4 118 14 107 89
5 118 99 72 93 89
4 119 93 72 86
4 107 89 93 119
4 50 87 100 115
4 112 40 87 50
4 100 115 77 113
4 72 101 112 40
4 77 113 72 101
4 73 48 60 94
4 73 48 76 36
4 99 91 76 36
4 77 32 91 99
4 60 94 77 32
4 101 118 64 95
4 116 25 95 64
4 73 100 116 25
4 100 73 117 45
4 118 101 117 45
4 56 34 100 43
4 34 108 82 100
4 56 78 93 43
5 100 43 93 68 82
4 78 93 68 12
4 108 82 68 12
4 20 49 75 101
4 20 104 91 101
4 75 49 46 81
4 30 54 91 104
5 91 54 81 75 101
4 30 54 81 46
4 31 11 42 91
4 11 31 102 43
4 44 108 91 42
4 102 43 46 57
4 108 44 46 57
4 18 118 103 20
4 118 18 21 59
4 103 20 23 43
5 118 103 43 81 59
4 23 43 81 25
4 81 25 21 59
4 82 74 27 16
4 27 16 103 75
4 82 74 76 104
4 58 78 75 103
4 78 58 104 76
4 90 20 32 115
4 90 20 97 73
5 81 73 90 115 96
4 110 96 81 114
4 73 97 114 81
4 96 110 32 115
4 63 72 83 59
4 23 44 63 72
4 14 45 90 82
4 45 14 59 83
4 82 90 23 44
4 35 54 81 100
4 91 66 35 54
4 100 81 75 94
4 91 66 89 101
4 75 94 89 101
4 40 85 82 119
5 85 82 115 118 91
4 40 85 91 78
4 118 88 78 91
4 88 94 115 118
4 82 119 94 115
4 64 96 81 63
4 73 40 63 81
4 115 66 64 96
4 90 68 66 115
4 73 40 68 90
4 112 48 80 78
4 80 78 99 81
4 112 48 82 66
4 57 92 66 82
4 81 99 92 57
4 93 48 50 89
4 93 48 25 72
4 53 118 89 50
4 99 54 53 118
4 72 25 54 99
4 42 58 66 85
4 116 14 66 85
4 72 88 58 42
4 102 81 72 88
4 116 14 102 81
4 74 57 53 85
4 53 85 112 32
4 74 57 98 73
4 93 103 32 112
4 98 73 93 103
4 74 81 43 119
4 74 81 59 108
4 66 118 59 108
4 66 118 103 60
4 119 43 103 60
4 82 53 18 68
4 18 68 93 101
4 43 83 96 100
4 82 53 96 100
4 93 101 83 43
4 104 60 93 42
4 93 42 114 75
4 53 115 102 59
4 59 102 75 114
4 53 115 60 104
4 82 46 25 85
4 25 85 91 114
4 118 83 114 91
4 98 115 118 83
4 98 115 82 46
4 80 46 116 63
4 63 116 53 91
4 93 90 46 80
4 93 90 84 58
4 84 58 91 53
5 106 41 1 0 70
4 0 70 26 2
4 71 4 1 41
5 111 26 2 4 71
4 106 41 71 111
4 111 26 70 106
4 10 21 22 0
5 21 10 11 23 44
5 13 24 7 22 0
4 23 11 13 24
4 23 44 7 24
4 22 7 44 21
5 19 96 70 95 18
4 20 97 95 18
4 19 96 98 4
5 4 20 97 52 98
4 52 98 96 70
4 95 70 52 97
5 76 36 27 28 37
4 27 36 38 13
4 4 39 37 28
5 13 38 6 39 4
4 39 37 76 6
4 36 76 6 38
4 86 34 35 87
5 0 88 67 86 34
5 19 89 71 87 35
4 0 88 89 19
4 89 71 67 88
4 87 71 67 86
5 116 25 42 18 53
4 18 53 51 1
4 42 25 52 11
5 11 1 51 105 52
4 51 105 116 53
4 25 116 105 52
5 49 75 114 76 48
4 33 50 48 76
4 75 49 4 77
5 110 77 4 50 33
4 110 77 75 114
4 33 76 114 110
5 108 7 27 56 3
4 7 27 49 5
4 3 56 11 6
5 6 11 49 5 104
4 5 7 108 104
4 6 3 108 104
4 63 44 17 64
5 63 44 119 43 56
5 0 64 17 107 45
4 0 45 43 56
4 45 107 119 43
4 17 44 119 107
5 35 100 113 99 64
4 35 100 90 50
4 18 101 99 64
5 101 18 50 90 117
4 90 117 113 100
4 113 99 101 117
5 66 35 74 40 112
4 35 66 65 2
4 27 67 40 74
5 27 67 109 65 2
4 109 65 66 112
4 67 109 112 40
4 80 29 30 48
5 29 80 11 31 59
5 48 30 53 32 20
4 20 32 31 11
4 32 53 59 31
4 29 59 53 30
5 63 81 100 82 85
4 83 10 63 81
4 82 85 18 84
5 10 83 45 84 18
4 84 45 100 82
4 83 45 100 81
5 34 63 12 66 14
4 15 80 63 12
4 16 27 34 14
5 80 15 60 16 27
4 16 60 66 14
4 12 66 60 15
4 35 92 91 85
5 48 93 101 91 85
5 28 94 77 92 35
4 48 93 94 28
4 77 94 93 101
4 92 91 101 77
4 59 63 74 57
5 63 59 118 58 42
5 74 57 115 60 48
4 42 58 60 48
4 60 115 118 58
4 57 59 118 115
4 9 20 49 111
5 110 1 20 9 21
5 111 49 13 55 29
4 110 1 13 55
4 29 55 110 21
4 9 21 29 111
5 86 72 10 64 116
4 1 117 72 10
4 116 64 19 47
5 1 117 24 47 19
4 117 24 86 72
4 47 24 86 116
4 56 106 8 34
5 2 34 8 37 107
5 56 106 15 69 13
4 13 69 107 2
4 69 15 37 107
4 106 8 37 15
5 79 19 2 113 38
4 79 19 50 112
4 28 73 113 2
5 28 50 112 97 73
4 73 97 38 113
4 79 112 97 38
5 64 118 89 68 85
4 85 68 119 74
4 34 102 118 64
5 119 74 34 102 94
4 119 94 89 68
4 118 89 94 102
5 74 80 78 91 108
4 49 109 78 80
4 62 28 74 108
5 28 62 32 109 49
4 108 91 32 62
4 109 32 91 78
4 54 85 42 114
5 54 85 50 115 96
5 83 114 42 20 103
4 50 115 103 20
4 103 83 96 115
4 114 54 96 83
4 42 104 61 10
5 56 10 61 14 105
5 104 42 80 46 82
4 56 105 46 80
4 104 82 14 61
4 14 105 46 82
4 13 105 47 4
4 13 38 70 105
4 39 17 47 4
5 47 17 21 70 105
4 6 21 70 38
4 1 19 33 6
4 30 47 19 33
4 1 117 97 6
4 24 117 97 111
5 30 111 97 6 33
4 5 62 2 24
5 3 55 2 62 33
4 52 55 2 24
4 106 3 33 9
5 9 106 52 24 5
4 9 5 62 33
5 18 17 87 23 41
4 38 41 18 110
4 17 18 110 22
4 17 22 26 87
4 23 87 26 52
5 110 22 26 52 38
5 17 61 1 69 5
4 69 1 38 67
4 1 61 3 38
4 8 3 61 17
4 5 111 8 17
5 3 38 67 111 8
4 39 19 77 109
5 22 8 9 39 19
4 22 19 77 55
4 8 36 55 22
4 8 36 97 9
5 36 97 109 77 55
4 39 69 45 19
4 105 22 19 45
5 105 86 23 69 45
4 8 9 23 86
4 69 39 9 23
4 24 87 50 4
4 24 113 77 4
4 8 87 50 33
5 70 8 87 24 113
4 70 113 77 110
4 0 79 109 13
4 33 22 0 79
4 13 109 71 24
4 24 71 37 7
5 37 33 79 109 71
4 0 64 95 38
4 38 117 45 0
4 95 64 17 9
4 107 71 117 45
5 117 71 9 95 38
4 2 7 17 19
4 17 19 79 12
4 113 2 7 86
4 106 38 113 86
5 12 106 86 7 17
4 33 35 107 39
4 26 35 107 24
5 35 26 36 95 33
5 41 39 107 24 67
4 41 95 36 67
4 39 33 95 41
5 5 30 22 51 4
4 83 51 4 117
4 5 23 117 4
5 83 70 25 23 117
4 23 5 30 25
4 30 25 70 22
4 49 52 26 28
4 26 28 62 22
4 52 38 109 49
4 38 109 32 110
4 15 11 1 39
4 11 52 111 15
4 62 39 1 51
5 39 62 7 111 15
4 105 7 111 52
4 10 106 9 18
4 10 106 52 83
4 5 84 18 9
4 52 83 45 24
4 27 29 22 2
4 29 106 67 27
4 22 2 65 61
5 61 6 106 29 22
4 106 6 109 67
4 28 71 117 98
5 28 30 54 55 98
4 30 9 71 28
4 9 30 54 95
4 54 95 38 55
5 10 88 69 68 12
4 113 88 10 70
4 12 10 70 8
4 87 8 12 68
4 24 69 68 87
4 77 96 64 79
5 41 79 64 8 40
4 8 64 96 26
4 40 73 117 41
4 73 40 8 26
5 73 117 77 96 26
4 0 113 94 65
5 12 3 0 65 39
4 3 0 113 36
4 36 40 12 3
4 39 71 40 12
5 94 113 36 40 71
4 47 45 89 50
4 50 89 41 9
5 26 47 50 9 25
5 72 113 45 89 41
4 41 9 25 72
4 26 25 72 113
4 67 56 10 41
4 39 41 10 61
4 67 24 105 56
4 24 107 14 105
4 35 8 111 28
4 3 92 35 8
4 111 28 94 67
4 38 77 94 67
4 51 4 109 31
4 5 15 109 4
5 3 31 109 15 76
4 31 51 22 3
4 22 3 76 30
5 47 84 20 23 46
4 84 61 6 20
4 23 106 6 20
4 22 47 84 61
4 29 46 47 22
4 47 50 32 51
4 6 9 50 32
4 114 25 26 55
5 114 55 51 32 6
4 51 55 26 47
4 18 68 107 19
4 95 40 68 18
4 107 19 96 100
5 40 86 100 107 68
4 86 100 96 70
4 79 64 14 65
4 8 7 14 64
5 119 69 65 14 7
4 40 119 69 41
4 79 65 69 41
4 77 99 34 2
4 99 34 8 95
4 77 89 107 2
5 112 95 99 77 89
4 37 107 89 112
4 45 90 20 1
4 90 20 9 87
4 45 96 110 1
5 116 87 90 45 96
4 110 96 116 21
4 32 4 2 92
4 4 32 112 71
4 54 26 2 92
5 54 92 32 112 76
4 71 112 76 111
4 65 0 105 16
4 3 29 105 0
4 12 44 5 39
5 44 5 16 105 29
4 5 16 65 39
4 1 84 14 0
4 14 116 70 0
4 84 1 41 68
5 68 44 116 14 84
4 106 44 116 70
4 34 7 62 92
5 34 36 78 79 92
4 36 111 7 34
4 39 79 78 15
4 62 92 79 39
4 110 19 35 54
4 35 54 25 87
4 110 101 89 19
4 97 101 89 71
5 54 25 97 101 110
4 4 62 104 20
4 97 20 104 76
4 4 62 57 98
5 62 104 76 29 57
4 52 29 76 97
5 16 62 61 31 13
4 16 46 52 13
4 13 52 114 31
4 46 16 62 30
5 30 46 52 114 21
4 62 30 21 61
4 83 11 49 98
4 11 6 110 83
4 47 5 49 98
4 104 6 110 53
5 47 53 110 83 98
4 18 118 88 41
4 14 118 18 17
5 88 118 14 100 43
4 23 43 100 87
4 23 43 88 41
4 56 88 94 27
4 27 7 107 94
4 79 3 56 88
5 94 88 79 66 107
4 108 66 107 7
4 71 50 85 40
4 40 85 54 36
4 50 71 94 115
4 113 96 115 94
4 70 25 85 64
4 25 85 68 23
4 64 118 83 70
4 83 118 89 117
4 73 71 37 74
5 99 54 74 73 75
4 37 74 54 33
4 75 109 79 99
4 33 54 99 79
4 0 61 108 34
4 34 86 44 108
4 58 88 0 61
5 58 15 44 108 61
4 67 15 44 86
5 42 72 43 90 68
4 68 17 21 42
4 72 42 21 70
4 17 68 90 47
4 47 90 43 105
4 16 13 67 119
4 13 31 78 67
5 12 37 119 67 78
4 78 12 61 31
4 62 37 12 61
4 32 115 35 33
4 35 26 98 115
5 75 101 32 115 98
4 36 75 101 95
4 36 75 98 26
4 63 72 113 34
4 41 72 63 12
4 34 14 45 113
4 45 14 66 89
4 85 66 107 87
4 95 79 66 85
5 85 87 73 72 95
4 73 94 88 72
4 88 72 95 79
4 35 64 12 37
4 37 35 100 119
4 64 12 78 99
4 67 119 100 113
5 92 57 27 75 31
4 27 111 97 75
4 57 30 111 27
4 33 92 57 30
4 33 92 31 6
4 21 30 50 18
4 21 114 101 18
4 30 50 90 46
4 117 101 114 52
4 59 51 13 56
4 13 51 84 69
4 59 21 106 56
5 104 84 51 59 21
4 15 106 21 104
4 13 49 60 65
4 65 92 55 13
4 49 111 37 60
5 92 108 37 60 65
4 111 37 108 29
4 69 43 83 1
4 61 1 83 59
4 69 43 46 5
5 116 46 43 83 59
4 17 5 46 116
4 20 48 73 117
4 73 48 30 26
4 20 117 77 32
4 53 96 77 32
4 62 2 94 60
4 55 75 94 2
5 78 75 94 60 112
4 55 75 78 3
4 33 112 78 3
4 87 47 53 85
4 95 110 53 85
4 72 83 98 73
4 47 87 73 98
5 43 16 84 58 11
4 11 106 86 43
4 106 11 58 12
4 17 84 58 12
4 84 17 7 16
5 40 93 88 99 63
4 63 116 87 40
4 96 99 63 116
4 45 88 93 90
4 90 93 40 87
4 34 100 115 92
4 36 34 100 73
5 115 89 93 73 100
4 78 93 89 79
4 36 73 93 78
4 100 86 56 102
5 56 102 65 58 78
4 40 78 56 86
4 40 68 58 78
4 58 68 107 65
4 27 55 114 80
4 80 15 6 114
4 55 51 16 27
4 15 6 32 60
5 51 103 49 46 57
4 103 49 97 101
4 46 49 97 25
4 25 46 57 54
4 110 51 57 54
4 42 44 5 20
4 5 20 103 16
4 44 29 114 42
4 114 29 105 83
4 76 3 34 74
4 31 102 34 3
4 76 15 119 74
4 119 15 109 94
4 86 23 42 63
4 63 59 105 86
4 69 58 42 23
4 105 59 118 45
4 90 48 112 89
5 48 90 98 81 25
4 112 48 25 95
4 95 99 81 25
4 98 81 99 77
4 48 97 36 74
4 48 60 109 97
4 36 74 57 55
4 109 60 115 77
4 84 20 101 118
4 23 72 101 20
5 72 101 118 96 81
4 72 23 46 81
4 47 46 81 96
4 11 69 119 80
4 119 7 29 80
4 65 69 11 31
4 7 29 59 14
4 37 108 63 40
4 92 99 63 108
4 60 93 88 65
4 92 99 88 65
4 64 10 58 66
4 93 72 10 58
4 64 116 82 66
5 58 93 119 82 66
4 116 86 119 82
4 96 35 74 81
4 96 118 66 35
4 40 72 81 74
4 112 66 118 101
4 28 115 102 27
4 99 36 27 102
4 28 115 66 37
5 99 91 66 115 102
4 76 37 66 91
4 89 18 42 93
4 89 115 53 18
4 73 93 42 25
4 116 100 115 53
4 10 88 102 59
4 10 59 108 12
4 102 88 69 16
4 69 68 82 16
5 82 16 102 59 108
4 98 103 60 28
4 28 60 104 30
5 31 91 104 60 103
4 54 91 31 55
4 31 55 98 103
4 49 15 58 103
4 46 49 15 44
4 61 58 103 51
4 51 57 108 61
4 48 90 84 104
4 21 104 48 25
4 59 81 98 51
4 84 90 98 51
4 56 102 57 29
4 78 56 29 76
4 62 57 102 65
4 62 65 58 104
4 53 57 28 50
4 57 28 73 81
4 91 53 50 112
5 81 57 53 91 114
4 112 97 114 91
4 10 118 103 11
4 118 53 21 10
4 103 11 23 90
5 118 103 90 82 53
4 21 44 82 53
4 112 85 63 78
4 78 75 81 63
4 112 60 82 85
4 82 100 94 60
4 74 100 43 80
4 43 88 78 80
4 74 100 14 108
4 14 108 91 118
4 42 68 66 91
4 72 99 91 42
4 43 102 99 72
4 102 43 90 115
4 27 75 93 119
4 27 57 82 119
4 31 58 66 92
4 93 75 31 58
4 74 82 90 73
4 54 53 82 74
4 99 75 103 118
4 103 75 73 90
5 103 93 80 81 102
4 68 93 80 44
4 80 44 116 81
4 84 68 93 103
4 103 102 14 84
4 80 93 112 76
4 81 54 76 80
4 92 54 81 102
4 102 92 32 103
4 56 63 91 31
4 104 91 63 44
4 31 103 43 56
4 104 60 119 44
4 85 116 46 48
4 85 91 59 116
4 43 46 48 93
4 91 101 83 59
4 49 16 82 48
4 48 76 108 82
4 102 75 49 16
4 108 59 114 76
4 101 75 80 42
4 98 75 80 46
4 42 104 32 101
4 32 115 82 104
4 11 43 81 114
4 58 91 114 11
4 57 81 43 16
4 16 57 53 84
4 4 1 18 50
5 18 118 58 61 1
4 18 118 115 50
4 4 62 61 1
5 62 4 50 115 60
4 11 20 4 13
5 58 11 20 101 93
4 11 13 65 58
4 20 101 77 4
5 4 13 65 94 77
4 18 20 48 85
5 12 66 85 18 17
4 48 60 66 85
4 17 18 20 5
5 15 60 48 20 5
4 19 35 28 4
4 35 19 45 100
5 35 100 82 57 28
5 19 45 84 51 4
4 4 28 57 51
4 10 18 19 0
5 0 3 31 59 10
4 18 53 59 10
4 3 33 19 0
5 19 33 32 53 18
4 49 11 42 48
5 68 42 48 112 40
4 49 48 112 109
4 68 42 11 69
5 67 109 49 11 69
4 50 35 74 48
4 35 107 119 74
5 50 47 17 107 35
5 46 48 74 119 44
4 47 50 48 46
4 4 2 27 49
4 49 103 102 27
5 102 27 2 113 100
5 103 49 4 117 90
4 2 4 117 113
4 0 56 11 1
4 78 56 0 79
5 1 110 77 79 0
5 11 56 78 75 114
4 11 114 110 1
4 42 63 64 18
5 63 108 3 8 64
4 42 63 108 104
4 9 18 64 8
5 18 9 6 104 42
4 0 2 35 64
5 53 54 35 64 116
4 54 35 2 55
4 64 116 105 0
5 55 2 0 105 51
4 27 80 48 28
4 90 48 80 43
5 43 80 27 67 86
5 90 48 28 71 87
4 27 67 71 28
4 11 10 63 80
4 41 10 63 40
5 63 40 36 76 80
5 11 6 38 41 10
4 11 6 76 80
4 13 27 34 0
5 96 70 0 34 99
4 75 99 34 27
4 52 13 0 70
5 75 27 13 52 98
4 35 85 63 34
5 25 85 63 44 21
4 34 7 44 63
4 35 26 25 85
5 35 26 22 7 34
4 56 27 74 63
4 72 63 74 73
5 70 72 63 56 106
5 27 111 26 73 74
4 111 27 56 106
4 28 49 20 50
5 119 94 28 49 16
4 50 89 94 28
4 20 84 16 49
5 84 68 89 50 20
4 20 42 10 1
5 42 10 12 78 91
4 12 39 1 10
4 20 32 91 42
5 1 39 109 32 20
4 13 2 19 1
4 19 1 83 96
5 19 96 115 92 2
5 31 103 83 1 13
4 31 92 2 13
4 19 64 85 50
4 64 14 82 85
5 50 30 104 82 85
5 61 22 19 64 14
4 22 19 50 30
4 56 10 64 34
4 34 64 95 36
5 34 56 29 55 36
5 64 95 110 21 10
4 56 29 21 10
4 34 2 28 74
5 34 74 81 116 86
4 34 86 24 2
4 28 74 81 98
5 98 28 2 24 47
4 85 74 80 42
5 87 85 74 37 8
4 85 87 23 42
4 15 80 74 37
5 106 15 80 42 23
4 49 13 56 80
4 93 80 56 88
5 49 80 93 73 97
5 113 38 13 56 88
4 38 13 49 97
4 85 25 97 112
5 112 78 15 6 97
4 21 44 15 6
4 25 21 6 97
4 74 100 96 54
5 54 30 29 108 74
5 47 105 14 100 96
4 47 96 54 30
4 30 47 105 29
5 117 52 11 43 72
4 55 31 11 52
5 99 102 31 55 77
4 117 77 99 72
4 52 117 77 55
4 23 69 13 52
5 69 119 93 90 23
4 98 90 93 75
4 23 90 98 52
4 5 111 27 16
5 5 47 90 82 16
4 73 90 47 26
4 47 26 111 5
4 5 9 97 49
4 93 68 87 73
5 9 5 44 68 87
4 87 9 97 73
5 83 105 56 102 81
4 22 3 56 105
4 83 110 54 81
5 54 110 22 3 92
4 22 110 83 105
4 101 91 63 72
4 110 70 72 101
5 31 6 110 101 91
4 70 110 6 106
4 95 85 116 70
5 76 33 95 85 91
5 70 22 29 59 116
4 33 22 29 76
4 33 95 70 22
4 82 48 25 116
5 9 25 48 76 111
5 17 116 82 108 7
4 9 25 116 17
4 111 7 17 9
4 23 42 101 117
5 117 101 75 109 38
4 106 38 109 15
4 23 117 38 106
5 16 43 45 24 13
4 26 55 13 24
4 45 96 81 43
5 55 57 81 96 26
4 24 26 96 45
5 88 99 101 83 10
4 83 51 61 10
4 32 101 99 92
5 61 65 92 32 51
4 32 51 83 101
4 64 95 112 66
5 66 58 104 32 112
4 110 32 112 95
4 21 104 32 110
5 33 62 108 66 35
4 35 33 110 96
5 51 110 96 118 59
4 51 62 108 59
4 51 110 33 62
4 30 53 115 28
5 28 37 7 5 30
5 14 84 53 115 66
4 5 84 14 7
4 5 84 53 30
4 89 71 9 18
5 109 71 89 93 60
4 109 6 104 60
4 6 9 71 109
5 89 117 1 69 88
4 98 51 1 117
4 89 115 102 88
5 16 102 115 98 51
4 117 98 115 89
4 65 2 24 69
5 65 60 103 84 69
4 47 84 103 98
4 69 84 47 24
4 39 41 117 4
4 68 90 103 58
5 15 39 41 68 58
4 41 68 90 117
4 62 28 71 39
4 90 84 17 87
5 39 62 104 84 17
4 71 39 17 87
5 65 102 118 45 0
4 45 0 22 47
4 57 102 118 53
4 45 118 53 47
5 57 62 22 47 53
4 53 21 9 50
5 39 9 50 112 37
5 108 61 21 53 91
4 39 37 108 61
4 39 9 21 61
4 118 89 41 10
5 89 118 103 32 77
4 41 38 77 89
4 38 77 32 6
4 30 46 80 76
4 40 36 26 87
5 30 46 116 87 26
4 26 30 76 36
4 56 43 46 29
5 100 43 46 98 73
4 98 46 29 55
4 55 98 73 36
4 23 11 114 25
5 25 73 40 86 23
4 75 78 40 73
4 73 25 114 75
4 80 43 83 114
4 43 83 70 86
4 86 70 38 67
5 83 114 55 38 70
5 27 57 46 105 7
4 8 36 27 7
4 105 70 25 46
4 7 105 70 8
5 54 36 8 70 25
4 42 44 86 72
5 72 95 97 114 42
4 8 86 72 95
5 111 8 86 44 29
4 95 8 111 97
4 76 74 81 114
4 21 116 86 106
4 81 114 21 116
5 106 21 114 76 3
4 63 86 113 99
5 54 99 63 59 114
5 105 86 113 26 52
4 26 54 99 113
4 114 52 26 54
4 29 80 78 3
5 52 29 80 81 25
5 3 38 95 99 78
4 29 52 38 3
4 52 38 95 25
4 97 48 46 52
4 106 67 119 44
4 106 44 46 52
5 52 106 67 36 97
4 36 111 49 75
5 23 46 49 111 24
5 72 81 75 36 113
4 23 72 113 24
4 36 113 24 111
4 81 100 119 80
5 24 87 100 119 7
4 25 87 100 81
4 52 24 87 25
5 92 57 59 14 34
4 92 77 113 34
4 83 59 57 98
5 98 83 45 113 77
4 92 57 98 77
4 114 42 58 31
5 79 109 31 58 88
4 114 97 109 31
4 95 79 109 97
4 35 54 76 37
4 53 104 44 116
5 12 44 104 76 37
4 54 76 104 53
4 14 34 8 17
4 14 59 21 17
4 21 59 57 30
5 33 30 21 17 8
5 41 79 112 101 18
4 21 106 41 18
4 3 79 41 106
4 112 76 3 79
4 56 59 118 88
4 113 96 118 88
4 38 113 96 110
4 60 82 46 49
5 37 60 82 68 107
4 23 46 82 68
4 24 23 68 107
5 107 71 4 5 69
4 73 98 4 71
4 107 100 43 69
4 73 100 107 71
4 5 20 117 24
4 67 94 60 15
5 24 67 94 73 117
4 15 67 24 5
4 88 0 105 43
5 43 88 94 75 103
4 51 105 43 103
4 51 103 75 55
4 57 74 37 62
4 8 22 47 87
4 22 62 37 8
4 95 101 20 9
4 58 93 40 12
4 95 40 93 101
5 106 9 95 40 12
4 20 23 44 104
5 41 23 20 97 71
4 41 12 44 23
4 41 71 37 12
5 2 107 14 16 62
4 107 2 26 87
4 107 14 116 87
4 14 116 46 16
4 83 11 69 45
4 67 113 45 69
4 109 67 113 77
4 75 103 20 97
4 71 94 88 41
4 75 94 71 97
4 27 57 115 94
5 45 107 94 115 90
4 46 90 45 105
4 57 46 90 115
4 30 50 71 111
4 119 82 104 15
5 71 40 119 15 111
4 104 15 111 30
5 79 92 91 118 64
4 64 70 38 79
4 91 114 55 92
4 55 38 79 92
4 61 59 63 12
5 79 12 61 6 33
4 59 114 6 61
4 6 114 54 33
4 34 108 91 99
4 99 96 53 91
4 70 96 53 21
4 33 112 48 30
4 68 17 8 40
4 8 40 112 33
4 72 83 1 41
5 72 41 67 78 93
4 83 103 93 72
4 103 93 78 31
4 16 102 34 7
4 7 22 51 16
4 26 98 51 22
4 79 88 45 19
4 84 58 88 45
4 31 51 84 58
4 33 50 89 79
4 12 68 89 79
4 84 61 12 68
4 92 35 107 65
4 17 61 65 107
4 17 61 51 47
4 33 19 107 37
4 53 82 60 32
4 32 33 37 60
4 84 103 101 18
4 101 112 60 103
4 112 60 65 79
4 77 32 62 2
4 16 103 118 14
4 62 16 103 32
4 39 1 45 107
4 109 94 107 39
4 109 32 115 94
4 4 5 104 32
4 107 66 58 69
4 69 58 104 5
4 90 47 19 89
5 65 39 19 89 66
4 90 89 66 82
4 65 16 82 66
4 14 66 79 0
4 77 115 66 79
4 77 115 53 110
4 84 118 64 17
4 84 104 91 118
4 62 92 91 104
4 39 6 110 19
4 65 66 91 31
4 39 6 31 65
4 37 40 73 28
4 40 86 7 37
4 23 5 7 86
4 52 105 16 49
4 105 16 119 86
4 86 113 94 119
4 11 43 119 15
4 119 43 72 40
4 71 117 72 40
4 10 88 67 106
4 36 67 88 99
4 36 99 101 97
4 29 59 102 27
4 116 100 102 59
4 70 113 100 116
4 108 74 40 12
4 106 12 108 29
4 30 29 106 9
4 54 25 42 91
4 12 8 36 78
4 36 78 91 54
4 81 63 108 57
4 3 108 57 55
4 3 8 26 55
4 72 10 59 81
4 31 75 81 59
4 3 31 75 36
4 78 76 48 93
4 76 111 67 78
4 67 111 9 41
4 67 94 102 56
4 94 73 81 102
4 83 117 73 81
4 111 28 57 29
4 86 44 82 100
4 29 57 82 44
4 105 14 65 13
4 94 100 14 65
4 96 100 94 77
4 1 69 15 6
4 89 88 78 112
4 88 78 15 69
4 66 35 87 68
4 68 66 108 44
4 5 62 108 44
4 54 85 66 92
4 3 92 66 12
4 17 22 3 12
4 99 118 18 95
4 78 58 118 99
4 61 58 78 3
4 99 64 14 102
4 14 102 31 61
4 61 31 55 22
4 50 112 93 90
4 112 93 119 37
4 69 39 37 119
4 24 7 62 4
4 60 119 100 115
4 60 119 7 62
4 16 60 109 13
4 45 43 93 89
4 43 93 60 16
4 0 65 109 38
4 118 101 75 102
4 65 102 75 109
4 2 7 108 92
4 96 115 82 116
4 92 115 82 108
4 58 91 85 68
4 76 91 58 15
4 76 15 39 33
4 1 69 68 18
5 66 112 50 18 68
5 1 69 65 109 4
4 50 112 109 4
4 43 90 20 11
5 43 11 13 67 88
5 90 20 4 71 89
4 13 4 71 67
4 41 18 85 40
5 37 76 48 85 40
5 18 41 39 6 20
4 76 48 20 6
5 35 66 14 17 19
4 60 28 35 66
4 4 19 17 5
5 5 16 60 28 4
4 65 0 10 58
5 91 101 18 10 58
5 92 65 0 19 77
4 18 19 77 101
4 42 72 73 48
5 73 48 49 111 71
5 11 106 41 72 42
4 49 111 106 11
5 35 8 7 108 74
4 8 35 50 9
4 74 108 104 48
5 9 50 48 104 5
5 27 49 46 43 119
4 2 107 119 27
4 46 49 4 47
5 47 4 2 107 45
5 56 102 99 113 0
4 1 0 113 117
4 103 11 56 102
5 1 117 101 103 11
4 63 78 79 64
5 76 78 63 42 114
5 33 79 64 18 110
4 110 18 42 114
4 35 115 118 64
5 57 115 35 2 62
5 64 0 61 59 118
4 62 2 0 61
5 25 48 80 44 23
4 27 80 44 7
4 25 26 28 48
5 28 26 24 7 27
5 95 70 10 63 99
4 99 63 80 75
4 11 52 70 10
5 97 52 11 80 75
4 34 100 45 0
5 57 27 34 100 81
5 0 45 83 51 13
4 27 13 51 57
4 63 59 53 85
5 34 3 29 59 63
5 30 53 85 35 33
4 35 33 3 34
5 25 116 63 74 54
4 56 63 116 105
4 74 54 55 27
5 52 55 27 56 105
4 49 15 37 28
5 107 87 50 28 37
5 23 69 15 49 20
4 20 23 87 50
4 88 93 42 10
5 88 79 38 1 10
5 93 42 20 97 112
4 1 38 97 20
5 1 84 118 89 19
4 19 2 94 89
4 16 84 1 13
5 16 13 2 94 102
5 64 12 108 91 85
4 32 50 85 91
4 39 12 64 19
5 39 19 50 32 62
5 54 92 34 64 96
4 34 92 31 56
4 64 96 83 10
5 114 31 56 10 83
4 74 82 14 34
5 34 14 105 22 2
5 28 30 46 82 74
4 30 22 2 28
4 85 74 36 95
5 9 95 85 42 21
5 111 36 74 80 29
4 80 29 21 42
5 81 80 56 86 72
4 81 98 49 80
4 24 13 56 86
5 49 98 117 24 13
4 21 10 72 25
5 6 21 10 12 3
5 25 72 40 36 97
4 6 97 36 3
4 47 17 64 96
4 54 30 62 92
5 17 47 30 62 7
4 27 55 77 94
5 88 45 117 77 94
4 52 117 45 105
5 28 94 100 90 98
4 98 52 111 28
4 90 23 86 100
5 67 86 23 52 111
5 26 47 116 100 35
4 37 111 26 35
5 44 5 111 37 119
4 47 5 44 116
5 86 87 73 74 119
4 74 73 97 76
4 87 9 106 86
5 97 9 106 15 76
4 22 2 77 110
4 105 14 118 83
5 110 83 118 99 77
4 72 88 0 70
5 110 70 0 3 55
5 72 88 78 75 101
4 110 55 75 101
4 22 70 10 61
4 95 33 92 99
5 61 108 92 33 22
4 17 116 63 12
5 12 37 33 9 17
4 25 9 33 54
4 106 56 43 23
5 36 78 56 106 38
5 117 73 93 43 23
4 38 117 73 36
4 115 96 26 28
5 96 115 102 14 45
4 24 7 14 45
4 109 13 51 32
4 89 101 83 45
5 109 32 101 89 79
4 110 1 41 95
5 1 110 32 31 61
5 12 41 95 112 78
4 32 112 78 31
4 84 51 110 18
5 62 51 84 14 65
4 79 65 62 33
4 84 53 85 68
5 84 5 39 107 68
4 33 39 5 30
5 109 6 11 58 78
4 6 9 23 11
5 9 23 68 40 71
4 109 71 40 78
4 49 60 115 98
5 107 89 115 60 65
4 24 117 89 107
5 82 115 50 47 84
4 50 47 24 71
4 82 119 69 84
5 94 119 69 24 71
5 48 60 119 68 90
4 48 90 117 97
4 41 68 119 67
5 97 117 41 67 109
5 85 82 44 17 87
4 85 87 71 112
4 17 44 15 39
5 71 39 15 60 112
4 32 53 47 4
4 107 66 118 45
5 32 92 66 118 53
4 61 58 42 21
5 61 39 79 66 58
4 39 9 95 79
4 13 38 41 69
5 77 38 13 31 75
5 58 93 89 41 69
4 75 93 89 77
5 70 26 36 34 86
4 34 36 76 108
5 21 44 108 76 30
4 21 70 26 30
5 55 98 96 113 2
4 7 2 55 29
5 116 46 29 7 86
4 96 98 46 116
5 27 67 113 73 75
4 29 27 75 114
4 113 73 25 70
5 29 106 70 25 114
4 86 34 102 43
5 98 75 102 43 83
4 70 83 98 26
4 96 70 8 35
4 105 7 108 59
5 96 81 59 105 70
4 3 56 86 8
4 95 72 81 54
5 3 8 95 54 76
4 99 81 116 64
5 64 116 21 22 8
5 55 114 81 99 36
4 22 21 114 55
4 26 113 0 22
4 102 57 54 99
5 26 54 57 29 22
4 34 3 38 113
5 38 52 83 72 113
4 29 52 83 59
5 8 40 63 44 106
4 46 81 63 44
5 26 73 81 46 52
4 52 106 8 26
4 74 100 113 36
5 24 113 100 43 105
4 24 111 29 105
4 8 87 100 34
4 81 25 30 57
5 87 25 30 111 8
4 98 77 19 47
4 92 57 16 65
5 47 105 16 57 98
4 67 109 31 56
4 83 114 97 117
5 104 61 17 18 53
4 54 95 18 53
4 104 76 3 61
4 110 21 17 19
4 14 59 91 66
5 110 54 91 59 21
4 106 3 31 11
4 79 41 72 99
5 3 31 91 99 79
4 113 2 65 88
5 31 103 118 88 65
4 98 103 118 96
4 68 82 74 40
4 46 23 9 30
4 48 82 100 73
5 16 82 100 107 7
4 111 7 107 71
5 93 40 67 15 80
4 5 46 80 15
4 24 67 40 87
5 5 46 90 87 24
4 51 4 24 105
5 103 51 4 77 115
4 103 43 100 115
4 64 66 37 8
5 62 104 82 66 37
4 22 62 104 21
4 93 101 114 80
4 38 67 40 95
5 38 95 101 114 6
4 12 44 80 78
4 23 41 95 25
4 53 116 87 50
5 14 116 53 57 108
4 107 14 108 37
4 67 69 16 27
5 90 45 69 16 103
4 73 90 45 113
4 80 75 94 119
4 97 52 24 71
4 35 87 90 115
4 62 5 46 57
5 42 104 15 12 68
4 104 42 25 30
4 12 8 111 15
4 55 51 1 38
4 79 92 102 88
5 92 55 51 59 102
4 0 38 6 61
4 114 59 118 101
4 99 79 19 96
5 19 22 51 53 96
4 31 51 53 91
4 40 112 91 63
5 33 6 104 91 112
4 8 106 6 33
5 93 103 49 109 94
4 52 49 103 83
4 93 72 113 94
4 19 22 7 107
4 51 16 82 53
5 58 84 20 32 60
4 84 45 117 20
4 94 60 58 88
4 42 101 89 68
4 15 109 79 12
4 18 89 107 17
4 65 61 104 60
4 33 9 20 32
4 58 12 37 60
4 11 15 60 103
4 117 101 112 71
4 103 32 50 90
4 62 16 69 39
4 39 109 49 5
4 68 93 94 107
4 93 48 104 58
4 5 69 41 9
4 20 90 82 104
4 71 89 66 37
4 79 39 4 77
4 66 115 103 58
4 6 1 84 104
4 112 89 118 91
4 6 31 103 20
4 39 65 88 41
4 40 85 116 86
4 29 76 37 7
4 119 16 57 74
4 86 105 47 87
4 40 119 27 36
4 43 46 25 72
4 67 36 55 13
4 43 88 99 81
4 100 35 92 102
4 51 47 116 59
4 70 106 12 64
4 29 108 91 114
4 56 78 91 59
4 38 110 54 36
4 3 108 14 0
4 55 110 53 57
4 13 31 59 105
4 77 75 81 96
4 63 78 67 86
4 76 111 52 114
4 26 73 94 2
4 16 102 81 46
4 57 54 85 82
4 17 22 29 44
4 94 28 62 65
4 14 100 90 84
4 75 49 15 78
4 69 23 72 88
4 21 44 68 18
4 108 66 112 76
4 10 12 66 118
4 6 32 92 3
4 11 83 118 58
4 109 77 99 78
4 45 14 61 1
4 102 31 32 115
4 44 119 93 42
4 111 37 112 97
4 60 62 30 48
4 7 119 68 17
4 60 93 73 28
4 16 5 23 43
4 75 109 4 98
4 69 65 102 43
4 33 92 115 50
4 61 84 82 108
4 106 10 58 15
4 76 97 101 91
5 45 1 4 77 89
5 61 14 66 92 62
4 66 92 77 89
5 13 38 117 83 11
5 58 118 89 79 65
4 38 117 89 79
5 20 18 89 112 32
5 17 5 62 37 107
4 62 37 112 32
5 24 107 94 28 4
4 14 102 94 107
5 57 102 14 105 51
5 19 0 14 118 96
4 96 118 91 54
5 108 3 33 54 91
5 11 42 101 97 6
5 68 89 71 39 69
4 39 6 97 71
5 48 60 37 71 50
4 37 60 16 7
5 7 16 46 47 24
5 27 49 52 24 67
5 45 83 103 102 88
4 67 88 45 24
5 70 0 56 59 83
5 79 95 101 91 78
4 83 101 95 70
5 64 66 91 53 18
4 30 76 91 53
5 37 8 9 30 76
5 7 14 100 35 2
4 14 59 81 100
5 54 55 29 59 81
5 111 97 48 80 15
5 90 117 24 69 43
4 69 15 111 24
5 10 63 91 114 21
5 40 112 97 9 41
4 97 9 21 114
5 105 29 27 34 86
4 105 83 72 86
5 99 72 83 114 75
5 37 108 82 85 35
4 29 108 82 46
5 111 26 25 46 29
5 29 76 74 63 44
5 73 97 52 23 72
4 29 44 23 52
5 20 49 109 71 117
5 16 65 107 45 84
4 71 109 65 107
5 10 1 110 101 118
5 33 39 12 66 112
4 33 110 101 112
5 113 2 13 105 45
5 92 99 118 59 31
4 45 118 99 113
5 19 107 66 115 50
4 108 57 115 66
5 22 7 108 57 30
5 116 64 34 108 59
4 25 116 59 114
5 114 25 95 36 76
5 7 111 28 74 119
4 7 119 43 105
5 105 52 98 81 43
5 85 42 104 76 112
5 5 23 87 71 111
4 5 104 76 111
5 114 52 106 56 80
5 117 41 88 93 101
4 117 52 106 41
5 21 6 33 95 18
5 68 40 37 15 44
4 37 40 95 33
4 35 28 27 34
5 28 30 47 87 35
5 10 88 78 31 11
4 113 36 78 88
5 70 52 55 36 113
5 88 94 109 13 69
4 94 109 97 73
5 94 27 16 43 100
4 94 100 87 71
5 5 49 60 119 69
4 119 40 112 60
5 3 56 63 99 36
4 96 26 36 99
5 26 96 116 105 22
5 64 70 110 54 99
4 78 76 54 99
5 76 6 106 12 78
4 35 64 63 74
5 35 33 22 17 64
4 85 50 28 74
5 50 85 68 17 9
5 10 106 38 95 72
5 58 93 112 109 15
4 112 95 72 93
5 55 13 56 102 75
4 102 75 73 100
5 24 86 100 73 26
5 3 79 64 10 61
5 51 55 77 96 83
4 55 77 79 3
5 19 110 32 92 79
5 12 17 21 104 108
4 12 79 92 108
4 64 34 2 19
5 2 19 47 51 62
4 4 50 35 2
5 5 84 90 50 4
5 1 6 109 79 41
5 66 60 104 84 68
4 41 68 66 79
5 0 65 31 51 1
4 31 65 94 75
5 98 75 94 113 117
5 2 65 102 115 77
4 117 90 115 77
5 39 4 32 60 65
4 101 93 60 32
5 62 28 115 82 16
4 89 115 82 68
5 0 22 55 92 34
5 47 98 115 100 45
4 55 92 115 98
4 19 35 85 18
5 19 39 61 84 18
5 0 88 99 77 38
4 88 58 91 99
5 58 61 6 32 91
5 23 86 119 80 46
4 8 37 119 86
5 56 43 72 113 67
4 67 113 26 111
5 11 23 41 67 15
4 15 67 36 76
5 86 70 25 81 63
5 75 78 67 38 97
4 75 97 25 81
5 81 73 36 27 80
4 116 81 73 87
5 8 7 44 116 87
4 85 48 80 63
5 12 63 85 95 8
5 116 21 30 54 85
5 111 36 40 86 106
4 36 111 30 54
4 34 56 80 74
5 74 34 8 26 54
5 42 80 78 40 72
4 72 40 8 70
5 3 8 70 21 29
5 9 106 44 42 25
5 73 93 119 67 71
4 71 9 25 73
5 11 43 93 75 49
4 43 93 40 86
4 49 48 74 27
5 25 87 40 74 48
4 2 27 56 0
5 26 2 27 57 98
5 18 41 12 58 42
4 41 12 3 38
5 3 38 110 114 31
5 62 33 50 53 104
4 8 33 62 7
5 17 14 82 53 47
4 47 53 54 26
4 10 42 85 64
5 113 34 102 81 96
4 31 114 81 102
4 4 28 48 20
5 23 20 48 93 68
5 98 4 13 16 103
4 119 93 103 16
5 90 103 60 94 89
4 90 23 41 89
4 52 98 77 38
5 100 116 46 57 74
4 17 116 100 107
5 15 104 20 9 39
4 15 104 91 78
4 18 50 48 42
5 90 82 119 107 87
4 57 98 90 82
4 101 72 43 103
5 101 77 109 31 103
5 69 1 20 103 58
4 67 78 58 69
4 13 49 28 2
5 28 49 46 90 73
4 39 107 87 9
4 0 34 63 10
5 22 61 59 53 110
4 95 8 22 110
5 35 92 57 53 96
4 29 57 92 3
5 44 82 48 30 5
4 12 44 82 66
4 6 109 75 114
4 24 47 96 113
4 32 103 83 110
4 58 104 53 118
4 84 53 96 45
4 39 17 14 65
4 39 109 31 61
4 13 4 19 0
4 69 84 118 88
5 32 51 84 118 115
4 19 1 20 50
4 60 103 51 62
4 61 65 102 59
4 33 32 51 22
4 1 18 64 0
4 44 68 90 46
4 117 23 46 98
4 49 80 42 20
4 11 42 63 56
4 52 46 57 55
4 25 87 17 21
4 106 3 108 44
4 7 86 70 22
4 106 38 55 29
4 23 68 12 106
4 11 13 27 80
4 24 5 30 26
4 16 51 83 43
4 20 11 10 18
4 30 47 84 104
4 21 116 14 61
4 6 21 59 31
4 51 110 70 105
4 15 5 84 58
4 47 45 69 5
4 1 11 49 4
4 13 56 10 1
4 22 105 16 62
4 9 6 61 17
5 50 35 66 82 53
5 4 2 65 16 51
5 0 13 31 102 88
5 4 19 89 115 32
5 82 119 37 28 48
5 20 4 39 69 84
5 35 34 14 116 96
5 28 98 46 16 27
5 18 21 104 91 85
5 19 35 92 62 22
5 41 1 11 58 88
5 94 60 49 4 71
5 49 5 23 90 48
5 74 27 7 86 100
5 2 77 96 45 0
5 27 56 43 81 75
5 3 0 64 99 92
5 1 18 101 32 6
5 17 18 50 33 39
5 15 44 42 48 76
5 64 70 21 59 63
5 35 26 30 57 74
5 80 93 72 23 11
5 27 13 24 113 94
5 10 18 95 79 12
5 109 15 11 20 97
5 34 36 54 81 63
5 0 38 110 83 10
5 63 80 29 106 86
5 87 9 30 48 85
5 63 40 95 25 42
5 11 52 38 67 56
5 28 115 100 107 2
5 13 49 103 43 69
5 61 65 79 19 1
5 20 50 112 60 104
5 2 34 102 57 55
5 19 110 53 118 64
5 85 116 44 108 74
5 50 28 62 5 47
5 8 33 54 85 64
5 6 106 10 42 114
5 34 56 105 70 113
5 25 73 74 80 46
5 111 49 80 119 67
5 42 68 41 9 20
5 78 56 10 72 99
5 117 1 13 109 77
5 71 97 48 93 40
5 6 39 12 58 104
5 46 30 111 7 44
5 55 114 59 56 3
5 77 101 118 88 79
5 102 94 77 98 103
5 81 100 113 26 98
5 119 43 90 73 94
5 34 8 22 29 108
5 110 95 99 91 114
5 101 112 78 58 42
5 3 33 110 21 61
5 30 33 37 108 104
5 9 71 37 15 5
5 89 117 20 103 93
5 78 31 6 38 79
5 26 52 29 27 36
5 99 96 83 59 102
5 14 59 51 22 0
5 32 91 66 79 33
5 12 68 85 112 37
5 62 61 84 53 32
5 7 62 57 82 14
5 5 24 107 119 16
5 71 50 90 68 107
5 103 58 65 109 32
5 98 83 105 13 55
5 65 14 118 115 92
5 51 57 115 96 47
5 84 90 115 60 16
5 47 87 100 82 46
5 47 26 2 7 105
5 92 54 53 59 108
5 62 60 66 107 39
5 89 66 58 84 18
5 92 31 51 110 77
5 67 36 73 72 86
5 38 55 75 99 113
5 109 75 93 88 67
5 11 31 75 101 83
5 36 3 106 70 95
5 111 76 74 40 8
5 72 70 52 114 81
5 9 6 76 112 95
5 80 78 36 97 114
5 21 9 8 12 44
5 21 29 76 54 25
5 3 76 91 63 12
5 38 97 101 72 41
5 52 117 73 75 49
5 106 41 40 78 15
5 88 43 83 117 113
5 23 25 97 111 106
5 81 116 105 29 57
5 31 91 118 10 61
5 39 109 112 89 41
5 104 5 17 68 82
5 17 87 35 37 7
5 55 22 70 96 54
5 71 67 69 23 117
5 102 100 45 105 16
5 4 98 90 45 24
5 25 116 86 8 26
5 69 15 60 93 68
5 111 24 87 73 28
5 1 45 118 103 51
5 69 45 89 94 65
5 52 46 43 86 24
5 64 17 61 108 66
5 30 53 116 17 22
5 87 40 119 44 23
5 107 14 84 47 19

# Cells
7 0 1 2 3 4 5 6
7 7 8 9 10 11 12 13
7 14 15 16 17 18 19 20
7 21 22 23 24 25 26 27
7 28 29 30 31 32 33 34
7 35 36 37 38 39 40 41
7 42 43 44 45 46 47 48
7 49 50 51 52 53 54 55
7 56 57 58 59 60 61 62
7 63 64 65 66 67 68 69
7 70 71 72 73 74 75 76
7 77 78 79 80 81 82 83
7 84 85 86 87 88 89 90
7 91 92 93 94 95 96 97
7 98 99 100 101 102 103 104
7 105 106 107 108 109 110 111
7 112 113 114 115 116 117 118
7 119 120 121 122 123 124 125
7 126 127 128 129 130 131 132
7 133 134 135 136 137 138 139
7 140 141 142 143 144 145 146
7 147 148 149 150 151 152 153
7 154 155 156 157 158 159 160
7 161 162 163 164 165 166 167
7 168 169 170 171 172 173 174
7 175 176 177 178 179 180 181
7 45 182 183 184 185 186 187
7 32 188 189 190 191 192 193
7 60 194 195 196 197 198 199
7 130 200 201 202 203 204 205
7 116 206 207 208 209 210 211
7 212 213 214 215 216 217 218
7 219 220 221 222 223 224 225
7 226 227 228 229 230 231 232
7 177 233 234 235 236 237 238
7 17 239 240 241 242 243 244
7 81 231 245 246 247 248 249
7 199 250 251 252 253 254 255
7 256 257 258 259 260 261 262
7 263 264 265 266 267 268 269
7 270 271 272 273 274 275 276
7 158 225 277 278 279 280 281
7 143 171 282 283 284 285 286
7 72 287 288 289 290 291 292
7 94 217 293 294 295 296 297
7 37 298 299 300 301 302 303
7 185 304 305 306 307 308 309
7 310 311 312 313 314 315 316
7 11 317 318 319 320 321 322
7 121 323 324 325 326 327 328
7 3 329 330 331 332 333 334
7 264 335 336 337 338 339 340
7 2 341 342 343 344 345 346
7 302 347 348 349 350 351 352
7 292 353 354 355 356 357 358
7 272 359 360 361 362 363 364
7 23 365 366 367 368 369 370
7 258 371 372 373 374 375 376
7 136 377 378 379 380 381 382
7 312 383 384 385 386 387 388
7 170 389 390 391 392 393 394
7 149 268 395 396 397 398 399
7 193 400 401 402 403 404 405
7 8 406 407 408 409 410 411
7 242 412 413 414 415 416 417
7 418 419 420 421 422 423 424
7 418 425 426 427 428 429 430
7 65 431 432 433 434 435 436
7 219 437 438 439 440 441 442
7 66 443 444 445 446 447 448
7 165 313 449 450 451 452 453
7 24 454 455 456 457 458 459
7 209 460 461 462 463 464 465
7 122 466 467 468 469 470 471
7 226 472 473 474 475 476 477
7 102 262 478 479 480 481 482
7 213 483 484 485 486 487 488
7 446 489 490 491 492 493 494
7 436 491 495 496 497 498 499
7 52 428 500 501 502 503 504
7 205 505 506 507 508 509 510
7 51 424 511 512 513 514 515
7 135 516 517 518 519 520 521
7 86 273 522 523 524 525 526
7 99 373 527 528 529 530 531
7 150 339 532 533 534 535 536
7 106 235 537 538 539 540 541
7 326 542 543 544 545 546 547
7 109 180 548 549 550 551 552
7 355 553 554 555 556 557 558
7 347 559 560 561 562 563 564
7 368 565 566 567 568 569 570
7 87 363 571 572 573 574 575
7 322 576 577 578 579 580 581
7 162 386 582 583 584 585 586
7 380 587 588 589 590 591 592
7 29 593 594 595 596 597 598
7 304 599 600 601 602 603 604
7 410 576 605 606 607 608 609
7 469 543 610 611 612 613 614
7 457 565 615 616 617 618 619
7 127 620 621 622 623 624 625
7 113 626 627 628 629 630 631
7 38 562 632 633 634 635 636
7 16 637 638 639 640 641 642
7 73 557 643 644 645 646 647
7 251 648 649 650 651 652 653
7 519 588 654 655 656 657 658
7 460 630 659 660 661 662 663
7 344 664 665 666 667 668 669
7 57 650 670 671 672 673 674
7 78 475 675 676 677 678 679
7 44 602 680 681 682 683 684
7 155 439 685 686 687 688 689
7 142 391 690 691 692 693 694
7 412 640 695 696 697 698 699
7 505 623 700 701 702 703 704
7 401 598 705 706 707 708 709
7 333 665 710 711 712 713 714
7 93 485 715 716 717 718 719
7 0 720 721 722 723 724 725
7 7 726 727 728 729 730 731
7 14 732 733 734 735 736 737
7 21 738 739 740 741 742 743
7 28 744 745 746 747 748 749
7 35 750 751 752 753 754 755
7 42 756 757 758 759 760 761
7 49 762 763 764 765 766 767
7 56 768 769 770 771 772 773
7 63 774 775 776 777 778 779
7 70 780 781 782 783 784 785
7 77 786 787 788 789 790 791
7 84 792 793 794 795 796 797
7 91 798 799 800 801 802 803
7 98 804 805 806 807 808 809
7 105 810 811 812 813 814 815
7 112 816 817 818 819 820 821
7 119 822 823 824 825 826 827
7 126 828 829 830 831 832 833
7 133 834 835 836 837 838 839
7 140 840 841 842 843 844 845
7 147 846 847 848 849 850 851
7 154 852 853 854 855 856 857
7 161 858 859 860 861 862 863
7 174 741 864 865 866 867 868
7 181 825 869 870 871 872 873
7 187 874 875 876 877 878 879
7 192 880 881 882 883 884 885
7 198 886 887 888 889 890 891
7 204 892 893 894 895 896 897
7 210 893 898 899 900 901 902
7 216 759 903 904 905 906 907
7 224 728 908 909 910 911 912
7 229 770 913 914 915 916 917
7 236 834 918 919 920 921 922
7 243 923 924 925 926 927 928
7 249 929 930 931 932 933 934
7 255 849 885 935 936 937 938
7 261 753 939 940 941 942 943
7 269 795 878 944 945 946 947
7 276 783 948 949 950 951 952
7 280 917 953 954 955 956 957
7 285 906 958 959 960 961 962
7 290 963 964 965 966 967 968
7 296 969 970 971 972 973 974
7 301 975 976 977 978 979 980
7 307 859 926 981 982 983 984
7 314 806 891 985 986 987 988
7 321 929 989 990 991 992 993
7 328 951 994 995 996 997 998
7 334 977 999 1000 1001 1002 1003
7 337 732 1004 1005 1006 1007 1008
7 345 964 1009 1010 1011 1012 1013
7 351 829 1014 1015 1016 1017 1018
7 357 817 1019 1020 1021 1022 1023
7 362 723 1024 1025 1026 1027 1028
7 370 970 1029 1030 1031 1032 1033
7 375 720 1034 1035 1036 1037 1038
7 381 942 1039 1040 1041 1042 1043
7 385 746 1044 1045 1046 1047 1048
7 394 735 1049 1050 1051 1052 1053
7 399 1054 1055 1056 1057 1058 1059
7 405 765 1060 1061 1062 1063 1064
7 409 880 1065 1066 1067 1068 1069
7 415 762 1070 1071 1072 1073 1074
7 422 853 974 1075 1076 1077 1078
7 427 840 932 1079 1080 1081 1082
7 434 912 1083 1084 1085 1086 1087
7 440 745 1088 1089 1090 1091 1092
7 448 867 1093 1094 1095 1096 1097
7 452 1054 1098 1099 1100 1101 1102
7 458 925 1103 1104 1105 1106 1107
7 464 798 978 1108 1109 1110 1111
7 470 1073 1112 1113 1114 1115 1116
7 476 774 1100 1117 1118 1119 1120
7 482 873 1121 1122 1123 1124 1125
7 488 777 1058 1126 1127 1128 1129
7 494 830 1130 1131 1132 1133 1134
7 498 818 1135 1136 1137 1138 1139
7 504 886 1140 1141 1142 1143 1144
7 508 788 968 1145 1146 1147 1148
7 514 875 1149 1150 1151 1152 1153
7 520 1064 1114 1154 1155 1156 1157
7 526 922 1158 1159 1160 1161 1162
7 530 1022 1163 1164 1165 1166 1167
7 535 1040 1168 1169 1170 1171 1172
7 540 1007 1173 1174 1175 1176 1177
7 547 801 1002 1178 1179 1180 1181
7 552 1048 1182 1183 1184 1185 1186
7 558 854 1032 1187 1188 1189 1190
7 561 843 991 1191 1192 1193 1194
7 570 811 900 1195 1196 1197 1198
7 574 1017 1199 1200 1201 1202 1203
7 579 812 897 1204 1205 1206 1207
7 586 994 1208 1209 1210 1211 1212
7 591 787 1011 1213 1214 1215 1216
7 596 1138 1163 1217 1218 1219 1220
7 603 822 1221 1222 1223 1224 1225
7 608 780 1210 1226 1227 1228 1229
7 612 738 1230 1231 1232 1233 1234
7 617 750 1170 1235 1236 1237 1238
7 625 958 1239 1240 1241 1242 1243
7 629 954 1244 1245 1246 1247 1248
7 636 1091 1182 1249 1250 1251 1252
7 642 1133 1200 1253 1254 1255 1256
7 647 1052 1174 1257 1258 1259 1260
7 652 837 1261 1262 1263 1264 1265
7 658 727 1266 1267 1268 1269 1270
7 661 792 1151 1271 1272 1273 1274
7 667 846 1067 1275 1276 1277 1278
7 673 1093 1233 1279 1280 1281 1282
7 678 1121 1224 1283 1284 1285 1286
7 683 1084 1269 1287 1288 1289 1290
7 689 1037 1291 1292 1293 1294 1295
7 693 1027 1291 1296 1297 1298 1299
7 699 769 1246 1300 1301 1302 1303
7 704 805 1143 1304 1305 1306 1307
7 708 756 1243 1308 1309 1310 1311
7 714 860 1105 1312 1313 1314 1315
7 719 1158 1264 1316 1317 1318 1319
7 54 814 1320 1321 1322 1323 1324
7 96 808 1325 1326 1327 1328 1329
7 13 803 1330 1331 1332 1333 1334
7 82 796 1335 1336 1337 1338 1339
7 26 790 1340 1341 1342 1343 1344
7 62 785 1345 1346 1347 1348 1349
7 41 773 1350 1351 1352 1353 1354
7 110 778 1355 1356 1357 1358 1359
7 75 760 1360 1361 1362 1363 1364
7 6 767 1365 1366 1367 1368 1369
7 47 754 1370 1371 1372 1373 1374
7 90 749 1375 1376 1377 1378 1379
7 34 743 1380 1381 1382 1383 1384
7 103 736 1385 1386 1387 1388 1389
7 20 731 1390 1391 1392 1393 1394
7 69 725 1395 1396 1397 1398 1399
7 166 844 1400 1401 1402 1403 1404
7 132 851 1405 1406 1407 1408 1409
7 152 856 1410 1411 1412 1413 1414
7 118 862 1415 1416 1417 1418 1419
7 138 820 1420 1421 1422 1423 1424
7 160 827 1425 1426 1427 1428 1429
7 125 833 1430 1431 1432 1433 1434
7 145 838 1435 1436 1437 1438 1439
7 589 1271 1391 1440 1441 1442 1443
7 493 1277 1444 1445 1446 1447 1448
7 633 1281 1449 1450 1451 1452 1453
7 365 1283 1389 1454 1455 1456 1457
7 643 1287 1398 1458 1459 1460 1461
7 395 1292 1437 1462 1463 1464 1465
7 451 1298 1466 1467 1468 1469 1470
7 257 1300 1397 1471 1472 1473 1474
7 545 1305 1475 1476 1477 1478 1479
7 275 1309 1480 1481 1482 1483 1484
7 495 1312 1434 1485 1486 1487 1488
7 319 1318 1489 1490 1491 1492 1493
7 524 1220 1494 1495 1496 1497 1498
7 554 1221 1423 1499 1500 1501 1502
7 697 1227 1503 1504 1505 1506 1507
7 441 1232 1508 1509 1510 1511 1512
7 705 1235 1369 1513 1514 1515 1516
7 325 1241 1517 1518 1519 1520 1521
7 377 1244 1429 1522 1523 1524 1525
7 182 1249 1358 1526 1527 1528 1529
7 478 1253 1378 1530 1531 1532 1533
7 195 1259 1534 1535 1536 1537 1538
7 563 1263 1539 1540 1541 1542 1543
7 389 1266 1383 1544 1545 1546 1547
7 715 1164 1382 1548 1549 1550 1551
7 620 1169 1422 1552 1553 1554 1555
7 500 1175 1363 1556 1557 1558 1559
7 221 1178 1377 1560 1561 1562 1563
7 512 1185 1564 1565 1566 1567 1568
7 253 1189 1569 1570 1571 1572 1573
7 306 1191 1426 1574 1575 1576 1577
7 404 1196 1578 1579 1580 1581 1582
7 676 1202 1583 1584 1585 1586 1587
7 413 1204 1353 1588 1589 1590 1591
7 628 1211 1592 1593 1594 1595 1596
7 173 1214 1584 1597 1598 1599 1600
7 657 1110 1601 1602 1603 1604 1605
7 687 1116 1570 1606 1607 1608 1609
7 567 1117 1371 1610 1611 1612 1613
7 294 1124 1601 1614 1615 1616 1617
7 580 1127 1577 1618 1619 1620 1621
7 176 1130 1438 1505 1622 1623 1624
7 238 1137 1593 1625 1626 1627 1628
7 330 1142 1553 1629 1630 1631 1632
7 610 1145 1334 1633 1634 1635 1636
7 341 1150 1374 1637 1638 1639 1640
7 690 1154 1431 1538 1641 1642 1643
7 245 1160 1326 1644 1645 1646 1647
7 315 1050 1612 1648 1649 1650 1651
7 202 1057 1550 1652 1653 1654 1655
7 359 1060 1349 1604 1656 1657 1658
7 639 1069 1638 1649 1659 1660 1661
7 376 1071 1564 1662 1663 1664 1665
7 664 1075 1417 1666 1667 1668 1669
7 712 1081 1563 1670 1671 1672 1673
7 538 1087 1579 1674 1675 1676 1677
7 265 1088 1386 1541 1678 1679 1680
7 548 1094 1346 1617 1681 1682 1683
7 206 1099 1413 1684 1685 1686 1687
7 593 1104 1394 1520 1688 1689 1690
7 239 989 1338 1607 1691 1692 1693
7 277 995 1404 1675 1694 1695 1696
7 431 999 1352 1497 1697 1698 1699
7 700 1004 1344 1626 1700 1701 1702
7 444 1013 1523 1618 1703 1704 1705
7 601 1016 1545 1652 1706 1707 1708
7 648 1019 1409 1663 1709 1710 1711
7 474 1025 1500 1629 1712 1713 1714
7 190 1033 1459 1715 1716 1717 1718
7 484 1034 1362 1510 1719 1720 1721
7 284 1043 1532 1670 1722 1723 1724
7 662 1046 1473 1716 1725 1726 1727
7 455 933 1509 1557 1728 1729 1730
7 348 935 1401 1580 1731 1732 1733
7 218 940 1449 1668 1734 1735 1736
7 510 945 1494 1591 1737 1738 1739
7 228 948 1357 1477 1740 1741 1742
7 534 956 1445 1647 1743 1744 1745
7 582 960 1406 1568 1746 1747 1748
7 670 965 1366 1492 1749 1750 1751
7 406 971 1341 1594 1752 1753 1754
7 681 979 1481 1685 1755 1756 1757
7 358 983 1466 1635 1758 1759 1760
7 461 985 1337 1572 1761 1762 1763
7 384 864 1329 1446 1764 1765 1766
7 421 871 1441 1517 1767 1768 1769
7 288 879 1464 1503 1770 1771 1772
7 571 882 1331 1469 1773 1774 1775
7 298 888 1321 1585 1776 1777 1778
7 466 894 1418 1451 1779 1780 1781
7 518 902 1455 1540 1782 1783 1784
7 605 903 1324 1598 1785 1786 1787
7 340 910 1489 1514 1788 1789 1790
7 619 914 1486 1534 1791 1792 1793
7 426 918 1412 1482 1794 1795 1796
7 528 928 1476 1528 1797 1798 1799
7 61 784 1320 1800 1801 1802 1803
7 89 748 1325 1804 1805 1806 1807
7 33 742 1330 1808 1809 1810 1811
7 12 802 1335 1812 1813 1814 1815
7 97 809 1340 1816 1817 1818 1819
7 68 724 1345 1820 1821 1822 1823
7 5 766 1350 1824 1825 1826 1827
7 40 772 1355 1828 1829 1830 1831
7 111 779 1360 1832 1833 1834 1835
7 76 761 1365 1836 1837 1838 1839
7 55 815 1370 1840 1841 1842 1843
7 19 730 1375 1844 1845 1846 1847
7 104 737 1380 1848 1849 1850 1851
7 83 797 1385 1852 1853 1854 1855
7 27 791 1390 1856 1857 1858 1859
7 48 755 1395 1860 1861 1862 1863
7 124 832 1400 1864 1865 1866 1867
7 146 839 1405 1868 1869 1870 1871
7 167 845 1410 1872 1873 1874 1875
7 131 850 1415 1876 1877 1878 1879
7 153 857 1420 1880 1881 1882 1883
7 117 863 1425 1884 1885 1886 1887
7 139 821 1430 1888 1889 1890 1891
7 159 826 1435 1892 1893 1894 1895
7 407 972 1443 1896 1897 1898 1899
7 282 1039 1447 1880 1900 1901 1902
7 371 1070 1453 1863 1903 1904 1905
7 463 987 1457 1906 1907 1908 1909
7 568 1118 1461 1910 1911 1912 1913
7 308 1193 1465 1914 1915 1916 1917
7 599 1014 1470 1885 1918 1919 1920
7 342 1152 1472 1921 1922 1923 1924
7 522 1218 1479 1848 1925 1926 1927
7 537 1085 1483 1860 1928 1929 1930
7 622 1172 1488 1931 1932 1933 1934
7 437 1230 1493 1847 1935 1936 1937
7 335 908 1498 1854 1938 1939 1940
7 208 1101 1501 1941 1942 1943 1944
7 443 1009 1507 1838 1945 1946 1947
7 527 923 1512 1858 1948 1949 1950
7 501 1176 1516 1951 1952 1953 1954
7 233 1135 1521 1895 1955 1956 1957
7 669 1077 1525 1958 1959 1960 1961
7 417 1205 1529 1962 1963 1964 1965
7 592 1273 1533 1966 1967 1968 1969
7 472 1024 1537 1831 1970 1971 1972
7 685 1113 1543 1889 1973 1974 1975
7 367 1286 1546 1976 1977 1978 1979
7 266 1089 1551 1980 1981 1982 1983
7 429 920 1554 1984 1985 1986 1987
7 230 949 1559 1988 1989 1990 1991
7 594 1107 1561 1980 1992 1993 1994
7 696 1226 1567 1824 1995 1996 1997
7 449 1297 1571 1892 1998 1999 2000
7 468 895 1576 2001 2002 2003 2004
7 194 1257 1581 1832 2005 2006 2007
7 654 1108 1586 1857 2008 2009 2010
7 671 967 1590 2011 2012 2013 2014
7 490 1275 1596 1890 2015 2016 2017
7 293 1123 1599 1853 2018 2019 2020
7 188 1029 1605 1818 2021 2022 2023
7 353 981 1608 1883 1965 2024 2025
7 299 889 1613 2000 2026 2027 2028
7 660 1044 1615 1812 2029 2030 2031
7 632 1280 1620 1822 2032 2033 2034
7 379 1248 1623 1984 2035 2036 2037
7 532 955 1627 1886 1953 2038 2039
7 271 1308 1632 1821 2040 2041 2042
7 717 1167 1636 2043 2044 2045 2046
7 607 904 1639 2016 2047 2048 2049
7 556 1223 1643 2002 2050 2051 2052
7 222 1179 1646 2043 2053 2054 2055
7 675 1201 1650 1844 1943 2056 2057
7 560 1261 1654 1865 2058 2059 2060
7 644 1290 1657 1988 2061 2062 2063
7 169 1213 1661 1851 1961 2064 2065
7 287 874 1665 1841 2046 2066 2067
7 584 961 1669 2020 2068 2069 2070
7 323 1239 1673 1869 2071 2072 2073
7 615 913 1676 1842 2055 2074 2075
7 240 992 1679 2034 2076 2077 2078
7 260 1301 1683 2011 2079 2080 2081
7 350 937 1686 2009 2082 2083 2084
7 703 1006 1689 2041 2077 2085 2086
7 614 1147 1692 1904 2087 2088 2089
7 499 1314 1695 1940 2068 2090 2091
7 709 1236 1698 1956 2026 2092 2093
7 247 1161 1702 1929 2087 2094 2095
7 212 939 1704 1835 1969 2096 2097
7 516 898 1708 1879 2062 2098 2099
7 397 1294 1710 1949 2082 2100 2101
7 680 976 1714 1827 1978 2102 2103
7 310 1049 1717 1806 2051 2104 2105
7 183 1251 1720 1974 2048 2106 2107
7 419 869 1723 1872 2080 2108 2109
7 637 1065 1727 1810 2036 2110 2111
7 544 1304 1729 1809 1986 2112 2113
7 692 1157 1732 1914 2023 2114 2115
7 511 1184 1735 1828 1898 2116 2117
7 317 1316 1738 1805 2003 2118 2119
7 432 1003 1741 1910 2073 2120 2121
7 711 1079 1744 1876 1991 2122 2123
7 179 1132 1748 1932 2031 2124 2125
7 487 1035 1750 1922 2059 2126 2127
7 387 865 1753 1977 1997 2128 2129
7 402 1195 1756 1837 1909 2130 2131
7 200 1055 1759 1875 2013 2132 2133
7 572 883 1763 1966 2007 2134 2135
7 480 1256 1765 1906 1946 2136 2137
7 626 1209 1769 1866 1923 2138 2139
7 578 1126 1771 1801 1982 2140 2141
7 393 1267 1774 1897 1972 2142 2143
7 364 1061 1777 1920 1951 2144 2145
7 653 1021 1780 1936 1942 2146 2147
7 252 1187 1783 1870 1912 2148 2149
7 549 1096 1787 1902 1962 2150 2151
7 454 931 1790 1815 1933 2152 2153
7 329 1140 1793 1802 1993 2154 2155
7 279 997 1796 1927 1958 2156 2157
7 507 944 1798 1817 1917 2158 2159
7 311 1111 1323 2146 2160 2161 2162
7 234 1082 1327 2144 2163 2164 2165
7 250 1018 1333 2092 2166 2167 2168
7 559 984 1339 2047 2169 2170 2171
7 420 1278 1343 2126 2172 2173 2174
7 168 1047 1348 2090 2175 2176 2177
7 542 911 1354 1959 2178 2179 2180
7 438 947 1356 2083 2181 2182 2183
7 336 1307 1361 2124 2184 2185 2186
7 506 1234 1368 2050 2187 2188 2189
7 659 1216 1372 1985 2190 2191 2192
7 489 872 1376 1963 2193 2194 2195
7 354 1265 1381 2079 2196 2197 2198
7 600 1190 1387 1989 2199 2200 2201
7 710 1139 1393 1911 2202 2203 2204
7 655 1053 1396 1915 2205 2206 2207
7 270 916 1403 2088 2208 2209 2210
7 214 1229 1407 2142 2211 2212 2213
7 473 1198 1414 2128 2214 2215 2216
7 577 1074 1419 2085 2217 2218 2219
7 616 1311 1421 1981 2220 2221 2222
7 695 943 1428 1907 2223 2224 2225
7 400 1028 1432 1967 2226 2227 2228
7 372 1129 1436 2053 2229 2230 2231
7 223 1005 1442 2140 2232 2233 2234
7 22 744 1448 2115 2199 2235 2236
7 382 959 1450 1850 2237 2238 2239
7 201 1115 1454 2139 2206 2240 2241
7 295 1068 1458 2153 2227 2242 2243
7 513 1012 1462 2103 2197 2244 2245
7 244 1165 1467 1861 2246 2247 2248
7 361 1119 1474 2122 2249 2250 2251
7 71 768 1478 2135 2205 2252 2253
7 137 841 1484 2151 2223 2254 2255
7 352 1222 1487 2158 2256 2257 2258
7 435 1173 1490 1894 2259 2260 2261
7 186 963 1495 1882 2262 2263 2264
7 497 919 1502 2029 2265 2266 2267
7 128 824 1506 2121 2220 2268 2269
7 4 775 1511 2137 2190 2270 2271
7 416 1036 1515 2108 2272 2273 2274
7 481 969 1518 1833 2275 2276 2277
7 289 1282 1522 2155 2194 2278 2279
7 456 1219 1526 2111 2230 2280 2281
7 533 1242 1530 2099 2176 2282 2283
7 281 1168 1535 1852 2284 2285 2286
7 31 794 1542 2157 2202 2287 2288
7 613 1090 1547 2074 2289 2290 2291
7 450 901 1548 2039 2189 2292 2293
7 196 980 1552 2117 2204 2294 2295
7 318 927 1556 2057 2222 2296 2297
7 388 1272 1562 2130 2298 2299 2300
7 471 1293 1565 1845 2301 2302 2303
7 100 799 1573 2070 2193 2304 2305
7 178 1076 1575 2112 2306 2307 2308
7 148 828 1582 2014 2229 2309 2310
7 346 1095 1583 1891 2311 2312 2313
7 232 1237 1589 2148 2314 2315 2316
7 597 1159 1592 1823 2307 2317 2318
7 43 782 1600 2045 2181 2319 2320
7 50 721 1603 1994 2184 2321 2322
7 369 881 1606 1839 2323 2324 2325
7 259 905 1611 2058 2303 2326 2327
7 303 1288 1614 1884 2310 2328 2329
7 141 858 1621 2028 2226 2262 2330
7 651 1192 1624 2008 2325 2331 2332
7 18 807 1628 2101 2169 2333 2334
7 694 1098 1630 1807 2315 2335 2336
7 465 1268 1634 2096 2296 2337 2338
7 189 1203 1637 2119 2225 2289 2339
7 539 1144 1641 2067 2167 2340 2341
7 627 1042 1644 1975 2185 2342 2343
7 67 813 1651 2095 2178 2323 2344
7 575 1284 1653 1829 2322 2345 2346
7 609 1302 1658 2024 2294 2347 2348
7 646 887 1659 1871 2299 2349 2350
7 115 836 1664 2063 2214 2351 2352
7 309 1020 1667 2104 2342 2345 2353
7 92 726 1672 2004 2196 2284 2354
7 211 1155 1674 1856 2305 2355 2356
7 392 986 1680 1995 2313 2357 2358
7 677 1031 1681 1950 2212 2359 2360
7 331 1086 1684 2033 2201 2272 2361
7 283 1212 1688 2133 2180 2331 2362
7 517 1299 1691 2072 2182 2265 2363
7 682 1260 1694 1947 2164 2326 2364
7 529 1319 1697 2022 2209 2357 2365
7 590 866 1701 1970 2280 2328 2366
7 398 892 1703 1819 2288 2348 2367
7 10 734 1707 2037 2172 2335 2368
7 668 1131 1711 1938 2240 2369 2370
7 123 855 1713 2107 2217 2349 2371
7 551 1149 1715 1873 2269 2337 2372
7 707 950 1721 1918 2278 2355 2373
7 248 1103 1722 1840 2253 2370 2374
7 59 751 1726 2078 2187 2275 2375
7 674 1250 1728 1864 2233 2352 2376
7 430 1313 1733 2064 2277 2292 2377
7 157 847 1736 1954 2208 2311 2378
7 107 764 1739 1899 2175 2246 2379
7 486 1206 1742 2015 2239 2340 2380
7 411 1254 1743 1826 2266 2320 2381
7 634 877 1746 1930 2174 2314 2382
7 523 934 1749 2019 2219 2298 2383
7 324 957 1752 1999 2192 2256 2384
7 624 996 1755 1811 2251 2334 2385
7 79 739 1760 1934 2163 2301 2386
7 267 1146 1762 2040 2261 2359 2387
7 702 1180 1766 1903 2242 2263 2388
7 88 789 1768 1944 2166 2237 2389
7 585 1245 1770 1813 2236 2273 2390
7 686 1059 1773 1901 2161 2306 2391
7 638 1125 1776 1926 2215 2232 2392
7 445 1186 1779 2006 2171 2249 2393
7 718 990 1782 1803 2257 2271 2394
7 569 1062 1786 1955 2244 2285 2395
7 39 758 1789 1979 2160 2317 2396
7 163 819 1792 1924 2211 2259 2397
7 555 936 1795 1935 2248 2282 2398
7 503 1000 1797 1877 2255 2291 2399
7 46 781 1718 2086 2270 2400 2401
7 25 747 1519 2147 2368 2402 2403
7 80 740 1784 1960 2333 2404 2405
7 101 800 1655 1987 2235 2406 2407
7 15 804 1724 2052 2287 2408 2409
7 53 722 1660 2089 2396 2410 2411
7 108 763 1730 1908 2319 2412 2413
7 74 771 1491 2129 2321 2414 2415
7 1 776 1496 2143 2375 2416 2417
7 36 757 1799 1968 2344 2418 2419
7 64 810 1616 1983 2252 2420 2421
7 95 729 1595 2084 2386 2422 2423
7 9 733 1609 2091 2389 2424 2425
7 30 793 1468 2125 2354 2426 2427
7 85 786 1745 1916 2304 2428 2429
7 58 752 1587 2054 2379 2430 2431
7 151 831 1631 2049 2351 2432 2433
7 114 835 1705 2093 2371 2434 2435
7 134 842 1536 2127 2268 2436 2437
7 156 848 1772 1913 2254 2438 2439
7 120 852 1677 2081 2330 2440 2441
7 144 861 1566 1990 2309 2442 2443
7 164 816 1757 1964 2378 2444 2445
7 129 823 1452 2145 2397 2446 2447
7 479 973 1645 2102 2177 2448 2449
7 631 1041 1392 2012 2308 2426 2450
7 581 1072 1622 2075 2264 2451 2452
7 390 988 1758 1834 2339 2431 2453
7 360 1120 1597 1893 2295 2444 2454
7 649 1194 1734 1804 2241 2425 2455
7 254 1015 1678 2123 2356 2456 2457
7 550 1153 1778 1973 2213 2458 2459
7 459 1217 1367 2069 2234 2430 2460
7 332 1083 1433 2044 2316 2443 2461
7 278 1171 1687 2110 2165 2462 2463
7 509 1231 1740 2010 2247 2464 2465
7 546 909 1719 2030 2374 2466 2467
7 691 1102 1696 1948 2168 2468 2469
7 515 1010 1416 2134 2327 2440 2470
7 320 924 1351 2114 2387 2421 2471
7 433 1177 1527 2098 2210 2472 2473
7 713 1136 1764 1919 2286 2474 2475
7 175 1078 1662 1855 2362 2423 2476
7 483 1207 1788 1874 2279 2447 2477
7 383 1274 1625 1830 2243 2411 2478
7 403 1026 1794 1996 2329 2479 2480
7 203 1112 1332 2150 2353 2429 2481
7 573 1285 1693 1945 2162 2482 2483
7 611 1092 1569 1820 2297 2419 2484
7 496 921 1578 1849 2384 2428 2485
7 706 952 1737 1868 2361 2441 2486
7 246 1106 1754 2032 2186 2487 2488
7 215 1228 1574 2131 2312 2489 2490
7 521 1296 1384 1952 2258 2422 2491
7 396 896 1747 2056 2198 2492 2493
7 684 1258 1424 1896 2250 2446 2494
7 316 1109 1471 2159 2324 2495 2496
7 184 966 1558 2138 2231 2497 2498
7 423 1276 1560 2025 2238 2492 2499
7 641 1122 1399 1931 2300 2415 2500
7 679 1030 1373 2001 2358 2416 2501
7 564 982 1544 2109 2367 2502 2503
7 645 890 1682 2038 2228 2489 2504
7 172 1045 1610 2113 2381 2494 2505
7 291 1279 1408 2094 2274 2445 2467
7 583 1247 1781 1925 2173 2502 2506
7 327 953 1379 2061 2377 2407 2507
7 618 1310 1731 1905 2260 2497 2508
7 241 1166 1456 2154 2183 2486 2509
7 256 907 1602 1881 2393 2442 2483
7 349 1225 1480 1846 2293 2404 2510
7 701 1181 1767 1800 2281 2417 2511
7 191 1199 1347 2100 2338 2412 2503
7 356 1262 1761 2017 2302 2501 2512
7 300 1289 1640 2071 2216 2485 2513
7 663 1215 1656 1939 2276 2487 2514
7 635 876 1427 1992 2380 2436 2515
7 378 962 1463 2152 2195 2511 2512
7 536 1240 1342 2027 2267 2424 2480
7 274 915 1499 2141 2399 2491 2516
7 716 993 1775 1928 2188 2495 2517
7 606 1303 1648 1867 2245 2435 2518
7 553 938 1791 1816 2363 2427 2473
7 220 1008 1444 1862 2383 2413 2506
7 263 1148 1706 1843 2365 2414 2469
7 425 1315 1712 1814 2283 2403 2504
7 227 1238 1508 1887 2341 2432 2517
7 595 1162 1531 2066 2179 2477 2505
7 698 941 1709 1971 2372 2481 2513
7 453 899 1336 2120 2398 2409 2508
7 467 1295 1524 2021 2170 2453 2519
7 197 975 1402 2136 2395 2439 2514
7 656 1051 1785 1937 2346 2470 2509
7 672 1252 1699 1900 2218 2476 2516
7 492 870 1700 2060 2390 2460 2519
7 297 1066 1322 2156 2366 2418 2475
7 338 1306 1588 2065 2318 2448 2515
7 207 1156 1555 2118 2200 2474 2484
7 447 1183 1439 1976 2347 2433 2496
7 531 1317 1364 1941 2290 2410 2457
7 502 1001 1751 1998 2221 2451 2510
7 237 1080 1440 2149 2385 2468 2500
7 666 1134 1619 1808 2343 2408 2498
7 414 1038 1475 1888 2382 2438 2488
7 587 868 1671 1836 2392 2420 2463
7 477 1197 1485 2097 2350 2458 2507
7 688 1056 1388 1921 2332 2402 2490
7 366 884 1549 2116 2207 2464 2518
7 408 1255 1690 2005 2191 2454 2466
7 286 1208 1328 2106 2369 2405 2452
7 374 1128 1666 2042 2376 2450 2472
7 462 1270 1539 1825 2360 2400 2493
7 566 1063 1725 1878 2364 2437 2449
7 305 1023 1504 1859 2391 2406 2459
7 604 1188 1633 1957 2336 2462 2471
7 343 1097 1460 2132 2224 2455 2479
7 525 930 1359 2035 2388 2401 2499
7 541 1141 1411 2076 2373 2434 2465
7 621 998 1642 2018 2203 2456 2478
7 442 946 1513 2105 2394 2461 2482
