# Generated using Miratope v0.5.0 (https://github.com/galoomba1/miratope-rs)
4OFF

# Vertices, Faces, Edges, Cells
24 96 96 24

# Vertices
0.5 0.5 0.5 0.5 
0.5 0.5 0.5 -0.5 
0.5 0.5 -0.5 0.5 
1 0 0 0 
0 1 0 0 
0.5 0.5 -0.5 -0.5 
-0.5 0.5 0.5 0.5 
-0.5 0.5 0.5 -0.5 
-0.5 0.5 -0.5 0.5 
-1 0 0 0 
-0.5 0.5 -0.5 -0.5 
0.5 -0.5 0.5 -0.5 
0 0 1 0 
0 0 0 -1 
-0.5 -0.5 0.5 -0.5 
0.5 -0.5 0.5 0.5 
0 0 0 1 
-0.5 -0.5 0.5 0.5 
0 0 -1 0 
0.5 -0.5 -0.5 -0.5 
-0.5 -0.5 -0.5 -0.5 
0.5 -0.5 -0.5 0.5 
-0.5 -0.5 -0.5 0.5 
0 -1 0 0 

# Faces
3 0 3 1
3 1 4 0
3 2 3 0
3 0 4 2
3 1 5 3
3 1 5 4
3 2 3 5
3 2 4 5
3 7 4 6
3 7 9 6
3 8 4 6
3 6 8 9
3 7 10 4
3 10 9 7
3 10 4 8
3 10 9 8
3 7 12 1
3 7 13 1
3 1 11 12
3 1 11 13
3 7 14 12
3 14 13 7
3 11 14 12
3 11 14 13
3 1 12 0
3 0 15 3
3 15 12 0
3 3 11 1
3 15 11 3
3 11 15 12
3 2 16 0
3 0 6 16
3 4 6 0
3 2 8 16
3 2 8 4
3 8 16 6
3 5 13 1
3 4 1 7
3 5 10 4
3 10 13 5
3 10 13 7
3 15 16 0
3 0 12 6
3 17 16 15
3 15 17 12
3 16 17 6
3 6 17 12
3 9 17 6
3 6 12 7
3 14 17 12
3 17 14 9
3 9 14 7
3 5 18 2
3 8 18 2
3 10 18 5
3 10 18 8
3 5 3 19
3 5 13 19
3 11 19 3
3 13 19 11
3 14 9 20
3 14 13 20
3 10 20 9
3 13 20 10
3 18 19 5
3 13 19 20
3 19 20 18
3 10 18 20
3 3 21 2
3 2 21 16
3 15 3 21
3 15 16 21
3 2 18 21
3 3 19 21
3 19 18 21
3 17 16 22
3 9 22 17
3 16 22 8
3 8 22 9
3 16 22 21
3 21 18 22
3 18 22 8
3 9 22 20
3 18 20 22
3 21 23 19
3 21 22 23
3 20 23 19
3 22 23 20
3 21 23 15
3 15 23 11
3 11 23 19
3 17 23 15
3 17 23 22
3 17 14 23
3 20 23 14
3 11 14 23

# Cells
8 0 1 2 3 4 5 6 7
8 8 9 10 11 12 13 14 15
8 16 17 18 19 20 21 22 23
8 0 18 24 25 26 27 28 29
8 3 10 30 31 32 33 34 35
8 5 12 17 36 37 38 39 40
8 26 31 41 42 43 44 45 46
8 9 20 46 47 48 49 50 51
8 7 14 34 38 52 53 54 55
8 1 8 16 24 32 37 42 48
8 4 19 27 36 56 57 58 59
8 13 21 40 51 60 61 62 63
8 39 54 57 63 64 65 66 67
8 2 25 30 41 68 69 70 71
8 6 52 56 64 68 72 73 74
8 11 35 45 47 75 76 77 78
8 33 53 69 72 77 79 80 81
8 15 55 62 67 78 81 82 83
8 66 74 80 83 84 85 86 87
8 28 58 70 73 84 88 89 90
8 43 71 75 79 85 88 91 92
8 50 60 76 82 87 92 93 94
8 22 29 44 49 89 91 93 95
8 23 59 61 65 86 90 94 95
