# Generated using Miratope v0.5.0 (https://github.com/galoomba1/miratope-rs)
4OFF

# Vertices, Faces, Edges, Cells
120 3120 1200 240

# Vertices
0.0834626338555 0 0.3535533905933 0.5 
-0.4885987689621 0 0.2185080122244 0.3090169943749 
0.4370160244488 -0.3090169943749 -0 0.3090169943749 
-0.1350453783689 -0.1909830056251 0.5720614028177 -0 
0.2185080122244 -0.3090169943749 0.4885987689621 -0 
0.2185080122244 -0.1909830056251 -0.2185080122244 0.5 
-0.3535533905933 -0 -0.0834626338555 0.5 
0.0834626338555 -0.5 -0.3535533905933 0 
-0.4885987689621 -0.3090169943749 -0.2185080122244 0 
-0.1350453783689 -0.5 0.1350453783689 -0.3090169943749 
0.2185080122244 -0.5 0.2185080122244 -0.1909830056251 
-0.3535533905933 -0.1909830056251 -0.3535533905933 0.3090169943749 
-0.3535533905933 -0.3090169943749 0.3535533905933 -0.1909830056251 
-0 -0.3090169943749 -0.4370160244488 0.3090169943749 
-0 -0 0 0.6180339887499 
-0.5720614028177 -0.1909830056251 0.1350453783689 -0 
0.3535533905933 -0.5 -0.0834626338555 -0 
0.3535533905933 -0.1909830056251 0.3535533905933 0.3090169943749 
-0.2185080122244 0 0.4885987689621 0.3090169943749 
-0.2185080122244 -0.5 -0.2185080122244 -0.1909830056251 
0.0834626338555 -0 0.3535533905933 -0.5 
-0.4885987689621 0 0.2185080122244 -0.3090169943749 
0.4370160244488 -0.3090169943749 -0 -0.3090169943749 
-0.1350453783689 0.3090169943749 -0.1350453783689 -0.5 
0.2185080122244 0.1909830056251 -0.2185080122244 -0.5 
-0.1350453783689 -0 -0.5720614028177 -0.1909830056251 
0.2185080122244 -0 -0.4885987689621 -0.3090169943749 
-0.3535533905933 -0.5 0.0834626338555 -0 
-0.3535533905933 0.1909830056251 -0.3535533905933 -0.3090169943749 
-0 -0.6180339887499 -0 -0 
-0 -0.3090169943749 0.4370160244488 -0.3090169943749 
-0.5720614028177 0 -0.1350453783689 -0.1909830056251 
0.3535533905933 -0.3090169943749 -0.3535533905933 -0.1909830056251 
0.3535533905933 -0 0.0834626338555 -0.5 
-0.2185080122244 0.1909830056251 0.2185080122244 -0.5 
-0.2185080122244 -0.3090169943749 -0.4885987689621 0 
0.0834626338555 0.5 -0.3535533905933 0 
-0.4885987689621 0.3090169943749 -0.2185080122244 0 
0.4370160244488 -0 -0.4370160244488 0 
-0.1350453783689 0.3090169943749 -0.1350453783689 0.5 
0.2185080122244 0.1909830056251 -0.2185080122244 0.5 
-0.1350453783689 -0.3090169943749 -0.1350453783689 0.5 
-0.3535533905933 -0.1909830056251 -0.3535533905933 -0.3090169943749 
-0 -0.3090169943749 -0.4370160244488 -0.3090169943749 
-0 0.3090169943749 -0.4370160244488 -0.3090169943749 
-0.5720614028177 0 -0.1350453783689 0.1909830056251 
0.3535533905933 -0.3090169943749 -0.3535533905933 0.1909830056251 
0.3535533905933 0.3090169943749 -0.3535533905933 0.1909830056251 
-0.2185080122244 0.5 -0.2185080122244 0.1909830056251 
-0.2185080122244 -0.5 -0.2185080122244 0.1909830056251 
0.4370160244488 0.3090169943749 -0 -0.3090169943749 
-0.1350453783689 0.1909830056251 0.5720614028177 -0 
0.2185080122244 0.3090169943749 0.4885987689621 -0 
-0.3535533905933 -0 -0.0834626338555 -0.5 
-0.1350453783689 0.5 0.1350453783689 0.3090169943749 
0.2185080122244 0.5 0.2185080122244 0.1909830056251 
-0.3535533905933 0.3090169943749 0.3535533905933 0.1909830056251 
-0 -0 0 -0.6180339887499 
-0.5720614028177 0.1909830056251 0.1350453783689 -0 
0.3535533905933 0.5 -0.0834626338555 -0 
0.3535533905933 0.1909830056251 0.3535533905933 -0.3090169943749 
-0.2185080122244 0 0.4885987689621 -0.3090169943749 
0.2185080122244 -0 -0.4885987689621 0.3090169943749 
-0.3535533905933 0.1909830056251 -0.3535533905933 0.3090169943749 
-0.1350453783689 -0.3090169943749 -0.1350453783689 -0.5 
0.2185080122244 -0.1909830056251 -0.2185080122244 -0.5 
-0 0.3090169943749 -0.4370160244488 0.3090169943749 
0.3535533905933 0.3090169943749 -0.3535533905933 -0.1909830056251 
-0.2185080122244 0.5 -0.2185080122244 -0.1909830056251 
0.4370160244488 0.3090169943749 -0 0.3090169943749 
-0.1350453783689 -0 -0.5720614028177 0.1909830056251 
-0.3535533905933 0.5 0.0834626338555 -0 
-0 0.6180339887499 -0 -0 
-0 0.3090169943749 0.4370160244488 0.3090169943749 
0.3535533905933 -0 0.0834626338555 0.5 
-0.2185080122244 -0.1909830056251 0.2185080122244 0.5 
-0.2185080122244 0.3090169943749 -0.4885987689621 0 
0.4370160244488 -0 0.4370160244488 -0 
-0.3535533905933 -0.3090169943749 0.3535533905933 0.1909830056251 
-0.1350453783689 0.5 0.1350453783689 -0.3090169943749 
0.2185080122244 0.5 0.2185080122244 -0.1909830056251 
-0 -0.3090169943749 0.4370160244488 0.3090169943749 
0.3535533905933 0.1909830056251 0.3535533905933 0.3090169943749 
-0.2185080122244 0.1909830056251 0.2185080122244 0.5 
-0.1350453783689 -0.5 0.1350453783689 0.3090169943749 
0.2185080122244 -0.5 0.2185080122244 0.1909830056251 
0.3535533905933 -0.1909830056251 0.3535533905933 -0.3090169943749 
-0.3535533905933 0.3090169943749 0.3535533905933 -0.1909830056251 
-0 0.3090169943749 0.4370160244488 -0.3090169943749 
-0.2185080122244 -0.1909830056251 0.2185080122244 -0.5 
0.5720614028177 -0 0.1350453783689 -0.1909830056251 
0.5720614028177 -0.1909830056251 -0.1350453783689 -0 
0.5720614028177 0.1909830056251 -0.1350453783689 -0 
0.1350453783689 -0.3090169943749 0.1350453783689 -0.5 
0.1350453783689 0.1909830056251 -0.5720614028177 0 
0.5720614028177 -0 0.1350453783689 0.1909830056251 
0.1350453783689 -0.3090169943749 0.1350453783689 0.5 
0.1350453783689 0.3090169943749 0.1350453783689 0.5 
0.1350453783689 -0.1909830056251 -0.5720614028177 0 
0.1350453783689 0.3090169943749 0.1350453783689 -0.5 
0.1350453783689 0.5 -0.1350453783689 -0.3090169943749 
0.1350453783689 -0.5 -0.1350453783689 -0.3090169943749 
0.1350453783689 0 0.5720614028177 0.1909830056251 
-0.4370160244488 -0 -0.4370160244488 0 
0.1350453783689 0 0.5720614028177 -0.1909830056251 
0.1350453783689 -0.5 -0.1350453783689 0.3090169943749 
0.1350453783689 0.5 -0.1350453783689 0.3090169943749 
-0.4370160244488 -0.3090169943749 -0 -0.3090169943749 
-0.4370160244488 -0.3090169943749 -0 0.3090169943749 
-0.4370160244488 0.3090169943749 -0 -0.3090169943749 
-0.4370160244488 0.3090169943749 -0 0.3090169943749 
0.4885987689621 -0 -0.2185080122244 -0.3090169943749 
-0.4370160244488 0 0.4370160244488 -0 
0.4885987689621 -0 -0.2185080122244 0.3090169943749 
0.4885987689621 -0.3090169943749 0.2185080122244 -0 
0.4885987689621 0.3090169943749 0.2185080122244 -0 
-0.0834626338555 0.5 0.3535533905933 -0 
-0.0834626338555 -0.5 0.3535533905933 -0 
-0.0834626338555 -0 -0.3535533905933 0.5 
-0.0834626338555 -0 -0.3535533905933 -0.5 

# Faces
5 0 2 7 8 1
3 1 3 0
3 2 4 0
5 7 5 0 3 9
5 9 4 0 6 8
3 5 6 0
3 7 8 9
3 7 2 10
3 7 5 11
5 3 10 7 11 1
3 1 12 8
3 6 13 8
5 8 12 4 2 13
5 1 14 2 10 12
3 11 14 1
3 2 14 13
3 9 15 3
3 4 16 9
5 9 15 6 5 16
3 3 10 17
5 3 17 5 11 15
3 4 18 12
5 4 18 6 13 16
3 16 17 5
3 6 18 15
3 10 19 12
5 14 17 10 19 11
5 13 19 12 18 14
3 11 15 19
3 16 19 13
3 17 18 14
5 17 18 15 19 16
5 21 8 7 22 20
3 20 23 21
3 20 22 24
5 7 10 20 23 25
5 24 25 8 12 20
3 12 20 10
3 7 25 8
3 7 22 26
5 23 26 7 27 21
3 7 27 10
3 21 28 8
5 28 24 22 29 8
3 8 29 12
5 28 26 22 30 21
3 27 30 21
3 22 29 30
3 25 23 31
3 25 24 32
5 31 12 10 32 25
3 26 33 23
5 10 33 23 31 27
3 24 34 28
5 24 34 12 29 32
3 26 28 35
5 27 35 26 33 30
3 10 33 32
5 28 34 30 29 35
3 12 34 31
3 31 35 27
3 32 35 29
3 30 34 33
5 33 34 31 35 32
5 37 8 7 38 36
3 36 39 37
3 38 40 36
5 36 26 7 41 39
5 8 41 40 36 28
3 26 36 28
3 7 8 41
3 5 38 7
5 7 42 37 39 5
3 26 42 7
3 8 37 6
5 6 40 38 43 8
3 8 28 43
5 5 38 44 37 6
3 37 44 42
3 38 44 43
3 41 39 45
3 41 40 46
5 41 45 28 26 46
3 5 47 39
5 26 47 39 45 42
3 40 6 48
5 46 43 28 48 40
3 6 49 5
5 44 47 5 49 42
5 6 48 44 43 49
3 26 47 46
3 28 45 48
3 42 49 45
3 43 49 46
3 47 48 44
5 48 47 46 49 45
5 36 50 20 21 37
3 21 51 20
3 20 52 50
5 20 51 54 36 24
5 54 52 20 53 37
3 20 24 53
3 36 37 54
3 36 55 50
3 24 36 28
5 28 36 55 51 21
3 21 56 37
3 44 53 37
5 37 44 50 52 56
3 28 57 21
5 21 57 50 55 56
3 50 44 57
3 54 58 51
3 52 59 54
5 53 58 54 59 24
3 55 60 51
5 51 58 28 24 60
3 52 61 56
5 59 44 53 61 52
3 59 60 24
3 55 56 48
5 28 48 55 60 57
3 53 58 61
3 48 58 28
5 44 57 61 56 48
3 48 59 44
3 57 61 60
5 61 60 59 48 58
3 37 23 36
3 36 24 38
5 36 62 7 64 23
5 24 64 8 63 36
3 62 63 36
3 8 64 7
3 7 65 38
5 37 11 7 65 23
3 11 62 7
3 8 53 37
5 53 8 13 38 24
3 13 63 8
5 38 66 37 53 65
3 37 11 66
3 38 66 13
3 31 64 23
3 24 32 64
5 64 31 63 62 32
3 65 67 23
5 23 67 62 11 31
3 53 68 24
5 32 13 63 68 24
3 65 19 53
5 67 66 11 19 65
5 13 66 68 53 19
3 62 67 32
3 63 68 31
3 11 31 19
3 13 32 19
3 67 68 66
5 31 68 67 32 19
5 37 1 0 69 36
3 0 41 1
3 0 69 5
5 41 70 36 55 0
5 37 56 0 5 70
3 55 0 56
3 37 70 36
3 36 69 62
3 36 71 55
5 36 71 1 41 62
3 11 37 1
3 37 72 56
5 5 69 72 37 11
5 11 62 69 73 1
3 1 73 71
3 72 73 69
3 41 45 70
3 5 70 47
5 55 47 70 45 56
3 62 74 41
5 41 45 71 55 74
3 11 75 5
5 47 72 56 75 5
3 47 74 55
3 11 76 62
5 74 73 71 76 62
3 45 75 56
5 72 76 11 75 73
3 45 76 71
3 72 76 47
3 74 75 73
5 75 74 47 76 45
5 0 1 21 20 77
3 1 54 0
3 0 77 55
5 0 54 79 20 4
3 4 78 0
5 79 55 0 78 21
3 20 79 21
3 20 77 80
3 4 20 12
5 20 12 1 54 80
3 71 21 1
3 21 30 78
5 21 71 55 77 30
3 1 81 12
5 1 81 77 80 71
3 54 79 58
3 55 79 60
5 79 60 4 78 58
3 77 81 30
3 80 82 54
5 4 82 54 58 12
3 4 60 82
3 55 83 71
5 60 30 78 83 55
3 71 34 80
5 80 34 12 81 82
3 58 83 78
3 12 58 34
5 34 71 83 81 30
3 34 60 30
5 82 83 58 34 60
3 81 82 83
3 20 3 21
3 20 4 22
5 20 65 7 84 3
5 53 20 4 84 8
3 20 65 53
3 7 8 84
3 7 85 22
3 42 65 7
5 21 42 7 85 3
3 21 78 8
3 43 53 8
5 8 78 4 22 43
5 85 78 21 57 22
3 57 42 21
3 22 43 57
3 3 15 84
3 4 16 84
5 84 15 53 65 16
3 3 85 86
5 42 15 3 86 65
3 78 61 4
5 4 61 53 43 16
3 65 86 16
3 78 49 85
5 42 57 86 85 49
3 53 61 15
5 57 43 49 78 61
3 42 15 49
3 43 16 49
3 57 86 61
5 61 86 16 49 15
3 20 64 21
3 50 65 20
5 20 80 36 25 64
5 65 25 37 87 20
3 80 87 20
3 37 25 36
3 36 50 26
3 71 36 80
5 21 71 36 26 64
3 37 21 42
5 37 72 50 65 42
3 37 72 87
5 42 21 88 50 26
3 71 88 21
3 72 88 50
3 25 64 31
3 65 25 67
5 25 67 80 87 31
3 33 64 26
5 80 33 64 31 71
3 65 89 42
5 67 72 87 89 65
3 80 33 67
3 26 42 76
5 71 88 33 26 76
5 72 76 42 89 88
3 31 89 87
3 71 31 76
3 76 67 72
3 33 89 88
5 31 76 67 33 89
3 0 51 1
3 0 52 69
5 36 79 51 0 40
3 6 40 0
5 0 52 79 37 6
3 37 79 36
3 69 80 36
3 40 63 36
5 36 63 1 51 80
3 1 87 37
3 6 66 37
5 37 66 69 52 87
3 1 14 63
5 14 69 80 87 1
3 69 14 66
3 58 51 79
3 59 79 52
5 79 59 40 6 58
3 80 51 82
5 51 58 63 40 82
3 40 59 82
3 52 18 87
5 18 52 59 66 6
3 6 58 18
3 80 87 68
5 82 14 63 68 80
3 63 68 58
5 18 87 68 66 14
3 66 59 68
3 14 82 18
5 82 18 58 68 59
3 0 84 1
3 77 85 0
5 52 0 84 9 20
3 52 0 56
5 21 9 85 0 56
3 20 9 21
3 10 77 20
3 20 87 52
5 87 20 10 84 1
3 27 1 21
3 21 88 56
5 27 85 77 88 21
3 1 87 73
5 10 77 73 1 27
3 77 73 88
3 15 84 9
3 85 9 86
5 52 86 9 15 56
3 10 84 17
5 15 87 52 17 84
3 52 86 17
3 85 75 27
5 85 75 56 88 86
3 27 89 10
5 17 73 87 89 10
3 56 15 75
3 87 89 15
5 75 73 88 89 27
3 89 86 88
5 75 17 86 89 15
3 73 75 17
3 1 39 0
3 2 40 0
5 7 70 39 0 85
5 0 40 70 8 78
3 78 85 0
3 7 8 70
3 7 62 2
3 27 85 7
5 27 7 62 39 1
3 8 63 1
3 29 78 8
5 8 29 2 40 63
5 81 2 62 63 1
3 1 81 27
3 29 81 2
3 39 70 45
3 40 46 70
5 45 78 85 46 70
3 62 39 74
5 39 74 85 27 45
3 63 83 40
5 78 29 46 40 83
3 85 46 74
3 78 45 83
3 62 63 35
5 35 62 74 81 27
5 83 63 35 29 81
3 27 35 45
3 29 35 46
3 81 74 83
5 74 83 45 35 46
3 2 77 0
5 38 2 0 54 36
5 0 39 36 50 77
3 54 0 52
3 0 39 5
5 50 38 5 0 52
3 36 38 50
3 54 36 80
3 39 62 36
5 80 36 62 2 77
3 38 2 90
3 5 66 38
5 38 66 54 52 90
3 14 62 2
5 2 90 80 54 14
3 77 91 50
3 50 52 72
5 39 72 50 91 5
3 77 80 73
5 77 73 39 62 91
3 14 54 66
3 72 39 73
3 17 90 52
5 5 66 72 52 17
3 5 91 17
3 80 67 90
5 67 62 14 73 80
3 62 91 67
5 17 90 67 66 14
3 67 66 72
5 17 73 72 67 91
3 14 73 17
5 20 22 38 36 79
3 20 22 64
3 53 79 20
3 80 90 20
5 38 25 53 20 90
3 36 38 25
3 36 79 28
3 36 80 92
5 64 28 36 92 22
3 43 22 38
5 43 53 79 59 38
3 38 59 90
5 28 79 60 22 43
3 22 60 92
3 60 79 59
3 25 64 32
3 68 25 53
5 80 90 32 25 68
3 28 64 34
5 32 92 80 34 64
3 34 68 80
3 43 93 53
5 68 59 90 93 53
3 43 94 28
5 34 28 94 92 60
5 59 94 43 93 60
3 32 93 90
3 92 32 94
3 59 94 68
3 60 93 34
5 93 34 68 94 32
3 22 77 20
3 20 79 52
5 20 23 36 69 77
3 20 65 23
5 52 69 38 65 20
3 36 69 38
3 55 79 36
3 23 36 26
5 26 22 77 55 36
3 38 95 22
3 44 65 38
5 52 95 38 44 79
3 22 57 26
5 57 79 55 95 22
3 91 69 77
3 69 52 72
5 69 72 23 65 91
3 57 79 44
3 77 88 55
5 26 91 77 88 23
3 72 23 88
3 52 86 95
5 86 52 72 44 65
3 47 95 55
5 26 57 88 55 47
3 65 91 86
3 26 47 91
5 44 47 95 86 57
3 44 72 47
3 86 88 57
5 86 88 72 47 91
5 2 22 20 51 0
3 0 84 2
3 0 78 51
3 52 95 0
5 22 9 78 0 95
3 20 9 22
3 12 51 20
3 52 90 20
5 90 20 12 84 2
3 22 2 29
3 22 95 60
5 29 78 51 60 22
3 90 82 2
5 29 2 82 51 12
3 9 84 16
3 78 9 61
5 16 95 52 61 9
3 60 51 82
3 18 84 12
5 84 18 52 90 16
3 61 18 52
3 78 29 96
5 61 60 95 96 78
3 29 93 12
5 93 12 18 82 90
3 95 96 16
3 93 16 90
5 60 93 29 96 82
3 60 61 93
5 16 96 18 61 93
3 82 18 96
3 0 2 69
5 0 3 20 50 69
3 51 0 55
3 3 85 0
5 22 50 55 0 85
3 22 50 20
3 20 80 51
3 3 20 10
5 10 20 80 69 2
3 22 2 92
3 22 30 85
5 22 30 51 55 92
3 2 10 81
5 51 81 2 92 80
3 50 69 91
3 50 88 55
5 50 91 85 3 88
3 69 73 80
5 10 91 69 73 3
3 81 51 30
3 88 73 3
3 74 92 55
5 74 85 30 88 55
3 74 91 85
3 80 92 33
5 10 81 73 80 33
3 10 91 33
5 74 81 30 33 92
5 73 88 33 91 74
3 30 88 33
3 74 73 81
3 2 41 0
3 6 54 0
3 55 95 0
5 6 70 38 95 0
3 36 70 38
3 36 63 54
3 36 55 92
5 92 36 63 41 2
3 2 38 13
3 59 95 38
5 13 38 59 54 6
5 13 2 82 54 63
3 82 92 2
3 59 82 54
3 41 46 70
3 6 48 70
5 70 48 55 95 46
3 63 83 41
5 55 92 46 41 83
3 55 83 48
3 13 96 6
5 96 6 48 59 95
3 13 94 63
5 82 92 94 63 83
3 96 46 95
5 59 94 13 96 82
3 94 46 92
3 59 94 48
3 82 96 83
5 83 96 46 94 48
3 50 77 20
5 50 38 7 9 20
5 2 77 20 64 7
3 4 9 20
5 4 20 24 38 2
3 24 64 20
3 7 38 2
3 7 9 85
3 7 64 26
5 26 50 77 85 7
3 50 95 38
3 43 24 38
5 4 95 38 43 9
3 2 77 92
3 4 29 2
5 24 92 2 29 64
3 50 57 26
5 9 57 50 95 85
3 77 30 85
5 64 30 77 92 26
3 43 9 57
3 4 95 60
5 24 60 4 29 43
3 29 30 64
3 60 92 24
3 46 95 85
5 26 46 85 30 57
3 46 26 92
5 43 57 60 95 46
3 46 29 43
5 29 46 92 60 30
3 57 30 60
5 38 69 0 84 7
3 0 69 39
3 0 84 6
3 0 85 95
3 7 38 70
3 7 11 84
3 85 91 7
5 69 91 7 11 39
3 66 38 69
3 38 16 95
5 84 6 66 38 16
5 11 84 17 69 66
3 91 69 17
3 16 84 17
3 39 70 47
3 6 70 49
5 47 70 49 85 95
3 11 75 39
5 85 91 47 39 75
3 85 49 75
3 66 97 6
5 6 97 95 16 49
3 95 97 47
3 11 98 66
5 11 98 91 17 75
5 97 17 16 98 66
3 91 98 47
3 49 98 16
3 17 97 75
5 49 98 47 97 75
3 23 50 20
3 20 53 9
3 20 10 90
3 7 25 38
3 7 9 42
3 7 91 10
5 42 23 50 91 7
3 44 50 38
3 90 38 16
5 38 16 9 53 44
5 44 50 86 9 42
3 91 50 86
3 16 86 9
3 23 67 25
3 53 19 25
5 67 25 19 10 90
3 42 23 89
5 89 23 67 91 10
3 53 99 44
5 19 53 99 90 16
3 10 89 19
3 44 98 42
5 42 98 91 86 89
3 90 99 67
5 16 98 44 99 86
3 67 98 91
3 19 98 16
3 86 89 99
5 67 98 19 89 99
3 0 77 69
5 0 41 7 22 77
3 4 0 84
3 41 0 40
5 4 22 38 40 0
3 22 38 7
3 7 84 10
3 41 62 7
5 7 10 77 69 62
3 38 90 69
3 40 13 38
5 84 13 38 90 4
3 22 92 77
3 29 4 22
5 41 29 22 92 40
3 69 62 14
5 14 84 10 90 69
3 81 10 77
5 41 81 77 92 62
3 13 84 14
3 81 41 29
3 82 90 4
5 82 4 29 13 40
3 82 92 40
3 32 90 10
5 32 62 14 81 10
3 32 92 62
5 13 14 82 90 32
3 32 29 13
5 29 81 82 92 32
3 82 14 81
3 69 54 0
3 3 56 0
3 4 95 0
5 0 95 50 79 56
3 20 79 50
3 3 87 20
3 20 90 4
5 87 54 69 90 20
3 72 50 69
3 86 50 95
5 86 50 72 56 3
3 90 69 17
5 3 87 72 69 17
3 59 79 54
3 56 61 79
5 61 79 59 95 4
3 87 18 54
5 59 54 18 4 90
3 17 86 3
3 4 18 61
3 56 97 72
5 61 56 97 95 86
3 72 99 87
5 18 87 99 90 17
3 59 97 95
3 90 99 59
5 97 17 86 99 72
5 97 18 61 99 59
3 86 99 61
3 17 97 18
5 7 70 36 50 22
3 50 23 36
3 36 70 28
3 62 92 36
3 7 64 22
3 42 70 7
3 62 7 91
3 50 22 57
3 92 22 46
5 57 28 70 46 22
5 70 42 57 50 47
3 91 47 50
3 46 70 47
3 33 64 23
3 35 64 28
5 35 64 33 92 62
3 42 76 23
5 62 91 33 23 76
3 62 76 35
3 28 100 57
5 35 28 100 92 46
3 42 101 57
5 76 47 91 101 42
3 33 100 92
5 57 100 47 46 101
3 91 101 33
3 46 35 101
3 47 100 76
5 76 100 33 101 35
3 36 69 50
5 2 69 36 25 7
3 36 40 70
3 24 25 36
5 40 36 24 22 2
3 2 22 7
3 5 7 70
3 7 65 25
5 7 65 50 69 5
3 95 50 22
3 22 24 43
5 70 43 22 95 40
3 2 90 69
3 13 40 2
5 2 13 25 24 90
3 50 65 44
5 50 44 70 5 95
3 69 66 5
5 25 66 69 90 65
3 43 44 70
3 13 66 25
3 59 95 40
5 59 40 13 43 24
3 59 24 90
3 5 95 16
5 5 16 65 44 66
3 16 65 90
5 44 43 16 95 59
3 16 13 43
5 13 16 90 59 66
3 44 66 59
3 77 51 0
3 0 39 56
3 0 40 95
3 36 50 79
3 36 71 39
3 36 40 92
5 92 36 71 51 77
3 50 77 88
3 47 50 95
5 88 56 39 47 50
3 51 79 60
3 56 79 48
5 40 95 60 79 48
3 92 77 74
5 39 71 88 77 74
3 71 51 83
5 83 51 60 92 40
3 39 74 47
3 48 83 40
3 56 88 102
5 47 95 102 56 48
3 95 60 102
3 88 100 71
5 83 74 92 100 71
3 92 60 100
5 47 74 102 88 100
5 60 100 48 83 102
3 48 100 47
3 83 102 74
3 0 77 3
3 0 78 41
3 0 95 5
3 7 22 9
3 7 41 27
3 5 7 91
5 7 91 77 3 27
3 30 77 22
3 95 22 46
5 22 46 41 78 30
3 91 74 77
5 27 41 74 77 30
3 3 86 9
3 78 9 49
5 9 49 5 95 86
3 27 3 75
5 5 75 3 86 91
3 46 74 41
3 49 75 5
3 78 30 102
5 46 95 102 78 49
3 95 86 102
3 30 101 27
5 74 91 101 27 75
3 86 101 91
5 74 102 30 101 46
5 49 101 86 102 75
3 49 101 46
3 74 102 75
3 54 51 0
5 54 37 8 84 0
5 8 21 51 0 41
3 3 84 0
5 0 39 37 21 3
3 41 0 39
3 8 21 37
3 8 12 84
3 41 63 8
5 8 63 54 51 12
3 37 54 87
3 39 11 37
5 84 11 37 87 3
3 51 71 21
3 27 3 21
5 39 71 21 27 41
3 14 63 54
5 54 87 12 84 14
3 12 51 81
5 63 71 51 81 41
3 11 84 14
3 73 87 3
5 39 73 3 27 11
3 27 41 81
3 73 39 71
3 31 12 87
5 31 12 81 14 63
3 31 71 63
5 11 31 87 73 14
3 27 11 31
5 27 31 71 73 81
3 73 81 14
5 79 37 8 9 20
3 24 79 20
3 20 65 9
3 20 12 87
3 25 37 8
3 9 43 8
3 8 58 12
5 43 8 58 79 24
3 37 79 44
3 87 37 15
5 15 37 44 65 9
5 44 79 61 9 43
3 58 61 79
3 9 61 15
3 25 68 24
3 65 19 25
5 87 12 19 25 68
3 43 93 24
5 24 93 12 58 68
3 65 99 44
5 15 19 65 99 87
3 12 19 93
3 68 99 87
3 44 103 43
5 43 103 58 61 93
5 44 103 15 61 99
3 58 68 103
3 15 19 103
3 61 99 93
5 19 103 68 99 93
3 20 79 51
3 3 20 9
5 8 64 20 51 1
5 3 20 23 37 1
3 23 64 20
3 8 37 1
3 8 9 78
3 8 64 28
5 8 78 51 79 28
3 37 79 56
3 37 42 23
5 37 56 3 9 42
3 1 51 71
3 3 27 1
5 71 23 64 27 1
3 57 79 28
5 78 56 79 57 9
3 57 9 42
3 78 30 51
5 51 30 64 28 71
3 88 3 56
5 23 88 3 27 42
3 30 27 64
3 88 23 71
3 56 78 45
5 28 57 30 78 45
3 45 28 71
5 42 45 56 88 57
3 42 27 45
5 71 45 27 30 88
3 88 57 30
3 0 54 40
3 5 84 0
3 0 56 78
3 8 70 37
3 13 84 8
3 78 58 8
5 13 40 54 58 8
3 37 54 66
3 56 37 15
5 66 5 84 15 37
5 66 54 18 84 13
3 58 18 54
3 15 18 84
3 40 70 48
3 5 49 70
5 48 70 49 78 56
3 96 40 13
5 48 40 96 78 58
3 5 97 66
5 49 15 56 97 5
3 78 49 96
3 48 97 56
3 13 66 103
5 18 96 13 103 58
5 66 103 15 18 97
3 48 103 58
3 15 103 49
3 18 97 96
5 49 103 48 97 96
3 20 77 3
3 20 64 12
3 20 65 90
3 7 2 84
3 27 64 7
3 65 91 7
3 81 2 77
3 90 32 2
5 81 2 32 64 12
3 91 33 77
5 77 33 64 27 81
3 17 84 3
3 12 84 19
5 84 19 65 90 17
3 89 3 27
5 17 91 65 89 3
3 32 33 64
3 19 89 65
3 12 81 104
5 19 32 90 104 12
3 90 104 17
3 27 81 105
5 33 89 27 105 91
3 17 105 91
5 81 105 32 33 104
5 89 104 17 105 19
3 32 19 105
3 33 104 89
3 36 39 69
3 36 25 63
3 36 92 26
3 7 41 2
3 7 11 25
3 26 91 7
3 14 69 2
3 32 2 92
5 2 32 25 63 14
3 91 67 69
5 67 69 14 11 25
3 39 74 41
3 63 35 41
5 26 92 74 41 35
3 25 67 32
3 76 39 11
5 39 76 26 91 74
3 26 35 76
3 63 106 14
5 32 92 106 63 35
3 11 105 14
5 11 105 91 67 76
3 92 106 74
3 91 74 105
5 32 105 14 106 67
3 32 35 105
5 76 106 74 105 35
3 67 106 76
3 51 77 20
3 23 87 20
3 20 90 24
3 36 54 69
3 36 23 71
3 36 92 24
3 73 69 77
3 67 69 90
5 73 87 23 67 69
3 92 33 77
5 33 77 73 71 23
3 54 51 82
3 87 54 68
5 24 90 82 54 68
3 71 51 34
5 82 92 24 34 51
3 33 67 23
3 34 68 24
3 87 104 73
5 68 87 104 90 67
3 71 106 73
5 34 33 92 106 71
3 82 104 90
3 82 106 92
5 33 67 106 73 104
5 34 104 82 106 68
3 67 106 68
3 33 34 104
3 54 36 79
5 36 79 21 8 70
5 1 54 36 25 8
3 36 39 70
3 25 36 23
5 36 23 21 1 39
3 8 21 1
3 6 70 8
3 8 25 53
5 79 53 8 6 54
3 56 79 21
3 21 42 23
5 56 39 70 42 21
3 1 87 54
3 1 39 11
5 25 11 1 87 23
3 53 79 44
5 44 70 6 56 79
3 6 54 66
5 54 87 53 25 66
3 42 70 44
3 66 25 11
3 56 39 72
5 72 39 11 42 23
3 87 23 72
3 6 56 15
5 44 66 6 15 53
3 15 87 53
5 42 44 72 56 15
3 15 11 42
5 11 66 72 87 15
3 66 44 72
3 0 51 4
3 0 41 85
3 0 6 56
3 8 21 9
3 8 41 29
3 6 8 58
5 29 8 58 51 4
3 21 30 51
3 56 21 45
5 21 45 41 85 30
3 4 9 61
3 49 9 85
5 56 6 49 9 61
5 30 29 41 83 51
3 58 83 51
3 45 41 83
3 29 96 4
5 6 58 61 4 96
3 30 102 85
5 45 56 102 85 49
3 49 96 6
3 61 102 56
3 29 30 107
5 29 107 58 83 96
5 45 107 30 102 83
3 58 61 107
3 49 107 45
5 102 96 49 107 61
3 83 102 96
3 36 79 24
3 26 70 36
3 36 71 63
3 8 64 21
3 43 70 8
3 63 58 8
3 21 79 57
3 45 21 71
5 45 21 57 26 70
5 57 43 70 48 79
3 58 79 48
3 45 48 70
3 24 64 34
3 35 64 26
5 71 63 35 64 34
3 43 24 94
5 63 58 34 24 94
3 57 100 26
5 26 100 71 45 35
3 35 94 63
3 57 107 43
5 58 107 43 94 48
3 71 34 100
5 48 100 57 107 45
3 58 107 34
3 45 107 35
3 48 100 94
5 94 100 34 107 35
3 36 54 40
3 62 25 36
3 36 28 71
3 1 41 8
3 8 13 25
3 8 58 28
3 1 14 54
3 71 1 31
5 1 31 25 62 14
5 25 13 14 54 68
3 58 54 68
3 40 41 83
3 62 35 41
5 71 28 35 41 83
3 31 25 68
3 94 40 13
5 28 94 40 83 58
3 14 106 62
5 31 71 106 62 35
3 28 94 35
3 71 106 83
3 13 14 108
5 13 94 68 58 108
5 68 106 14 108 31
3 58 83 108
3 35 108 31
5 94 106 83 108 35
3 68 106 94
3 20 51 4
3 20 64 10
3 53 87 20
3 1 84 8
3 8 29 64
3 53 58 8
3 81 51 1
3 87 31 1
5 31 1 81 10 64
3 58 34 51
5 29 64 34 51 81
3 4 84 18
3 10 84 19
5 53 87 18 84 19
3 29 93 4
5 18 58 53 93 4
3 34 64 31
3 53 93 19
3 81 10 104
5 19 31 87 104 10
3 87 104 18
3 29 81 108
5 34 93 29 108 58
3 18 108 58
5 104 34 31 108 81
3 19 108 31
5 18 108 19 93 104
3 34 104 93
5 37 70 7 9 21
3 7 65 9
3 7 70 26
3 7 27 11
3 21 23 37
3 37 44 70
3 15 37 11
3 57 9 21
3 21 45 27
5 44 70 49 9 57
3 15 9 49
3 49 70 45
3 65 23 89
3 26 76 23
5 76 23 89 27 11
3 44 65 98
5 15 89 65 98 11
3 57 101 26
5 45 76 26 101 27
3 11 76 98
3 27 89 101
3 44 57 109
5 98 49 15 109 44
5 101 49 45 109 57
3 89 109 15
3 45 76 109
3 49 101 98
5 89 101 98 76 109
3 7 9 84
5 7 84 1 37 25
3 7 70 41
5 41 1 21 64 7
3 7 64 25
3 21 1 37
3 37 70 6
3 53 25 37
5 6 84 9 53 37
3 21 9 78
3 28 64 21
5 21 28 70 41 78
3 1 84 12
3 1 63 41
5 25 63 1 12 64
3 43 53 9
5 70 43 9 78 6
3 6 13 84
5 53 12 84 13 25
3 28 43 70
3 78 41 29
5 64 28 63 41 29
3 13 63 25
3 29 64 12
3 78 6 58
5 58 6 13 43 53
3 58 12 53
5 28 58 78 29 43
3 28 63 58
5 12 58 63 13 29
3 29 13 43
3 0 52 3
3 55 39 0
3 0 78 6
3 21 79 37
3 39 72 37
3 6 37 15
5 72 52 3 15 37
3 21 88 3
3 78 45 21
5 45 21 88 55 39
3 61 79 52
3 55 48 79
5 78 6 48 79 61
5 88 3 75 39 72
3 3 75 15
3 45 39 75
3 52 97 72
5 6 97 52 61 15
3 88 55 102
5 45 48 55 102 78
3 48 97 6
3 78 102 61
3 72 88 109
5 15 109 72 97 75
5 45 75 102 88 109
3 15 109 61
3 48 109 45
5 61 109 48 97 102
3 75 97 102
3 52 3 20
3 23 80 20
3 20 53 12
3 37 54 1
3 37 72 23
3 53 37 15
3 1 3 73
3 12 31 1
5 31 1 73 80 23
3 52 18 54
3 80 68 54
5 18 54 68 53 12
3 15 3 89
5 72 73 3 89 23
3 31 23 89
3 72 52 99
5 15 18 52 99 53
3 73 80 104
5 68 31 12 104 80
3 53 68 99
3 18 104 12
3 72 73 110
5 89 99 72 110 15
3 18 110 15
5 31 110 73 104 89
3 31 68 110
5 68 110 18 104 99
3 89 99 104
3 5 84 7
3 7 62 25
3 27 42 7
3 37 39 1
3 66 25 37
3 42 37 15
3 1 84 14
3 27 1 31
5 25 66 14 84 19
3 15 19 84
3 31 25 19
3 5 39 75
3 76 39 62
5 75 27 42 76 39
3 66 98 5
5 42 98 5 75 15
3 14 62 105
5 31 76 62 105 27
3 42 98 76
3 75 105 27
3 66 110 14
5 98 19 15 110 66
5 31 110 14 105 19
3 75 110 15
3 31 76 110
5 76 110 75 105 98
3 19 105 98
3 8 9 84
5 22 9 8 70 38
5 25 38 2 84 8
3 41 8 70
5 41 2 22 64 8
3 25 64 8
3 2 22 38
3 38 70 5
3 38 25 65
5 5 84 9 65 38
3 22 9 85
3 22 64 26
5 22 85 41 70 26
3 10 2 84
3 62 2 41
5 64 10 2 62 25
3 42 65 9
5 9 85 5 70 42
3 11 84 5
5 25 11 84 10 65
3 26 70 42
3 85 41 27
5 41 27 64 26 62
3 62 25 11
3 27 10 64
3 5 85 91
5 5 11 42 65 91
3 91 65 10
5 42 27 85 91 26
3 62 26 91
5 27 11 62 91 10
3 11 42 27
3 0 4 52
3 0 40 55
3 0 5 85
3 50 22 38
3 40 59 38
3 16 38 5
5 16 38 59 52 4
3 60 22 4
3 85 46 22
5 46 22 60 55 40
3 52 86 50
3 55 50 47
5 85 5 47 50 86
5 59 60 4 96 40
3 16 96 4
3 40 96 46
3 52 97 59
5 86 16 5 97 52
3 47 97 5
3 55 102 60
5 85 46 47 55 102
3 86 85 102
3 60 111 59
5 96 97 59 111 16
5 96 102 60 111 46
3 16 86 111
5 102 97 47 111 86
3 46 111 47
3 96 102 97
3 9 53 8
3 8 70 28
3 8 13 29
3 24 22 38
3 38 70 44
3 13 16 38
3 22 57 9
3 29 46 22
3 9 49 16
3 49 70 46
3 24 93 53
3 28 94 24
5 13 29 93 24 94
3 44 103 53
5 13 103 53 93 16
3 57 28 107
5 28 107 29 46 94
3 94 103 13
3 57 111 44
5 16 49 103 44 111
3 29 107 93
5 46 49 107 57 111
3 16 111 93
3 94 111 46
3 49 103 107
5 103 107 93 111 94
3 41 85 7
3 7 64 10
3 7 11 42
3 3 21 1
3 21 64 30
3 42 45 21
3 41 81 1
3 11 31 1
3 85 3 75
3 10 3 89
5 11 42 89 3 75
5 30 81 41 35 64
3 45 35 41
3 35 64 31
3 85 101 30
5 42 101 85 75 45
3 81 10 105
5 11 31 89 10 105
3 42 101 89
3 11 105 75
3 30 81 112
5 35 45 112 30 101
5 81 105 35 31 112
3 45 112 75
3 89 112 31
5 89 112 75 105 101
3 35 101 105
3 36 39 55
3 36 23 80
3 28 63 36
3 21 51 1
3 21 23 88
3 28 21 45
3 1 39 73
3 31 1 63
3 51 83 55
3 34 51 80
5 34 51 83 63 28
5 88 73 39 76 23
3 39 76 45
3 31 76 23
3 88 55 100
5 83 45 28 100 55
3 73 106 80
5 34 31 63 106 80
3 28 34 100
3 63 106 83
3 88 112 73
5 76 45 112 88 100
5 76 106 73 112 31
3 45 112 83
3 31 112 34
5 83 106 100 34 112
3 76 100 106
3 8 6 84
3 8 25 63
3 8 29 43
3 40 2 38
3 38 25 66
3 43 16 38
3 2 84 14
3 29 32 2
3 16 19 84
3 32 19 25
3 6 40 96
3 40 94 63
5 94 40 96 29 43
3 66 103 6
5 16 96 6 103 43
3 63 108 14
5 29 108 63 94 32
3 43 94 103
3 29 108 96
3 14 113 66
5 103 19 16 113 66
5 14 108 19 32 113
3 16 96 113
3 32 113 94
3 19 108 103
5 94 113 96 108 103
3 20 52 4
3 24 80 20
3 20 65 10
3 38 2 69
3 24 59 38
3 38 16 65
3 4 2 82
3 2 32 10
5 24 80 82 2 32
3 52 69 17
3 80 67 69
5 10 65 67 69 17
3 16 4 93
5 59 82 4 93 24
3 59 52 99
5 17 52 99 65 16
3 32 24 93
3 67 65 99
3 82 80 104
5 10 104 80 67 32
3 17 104 10
3 59 82 113
5 93 99 59 113 16
3 16 113 17
5 32 113 82 104 93
5 67 113 17 104 99
3 67 113 32
3 93 104 99
5 37 79 50 38 70
3 37 53 79
3 42 70 37
3 37 66 72
3 38 50 65
3 38 43 70
3 38 59 66
3 57 79 50
3 72 47 50
3 59 48 79
3 48 70 47
3 53 99 65
3 42 65 98
5 72 99 65 98 66
3 43 103 53
5 66 59 99 53 103
3 42 109 57
5 47 98 42 109 72
3 57 111 43
5 48 103 43 111 59
3 98 103 66
5 109 48 47 111 57
3 72 99 109
3 59 111 99
3 98 111 47
3 48 109 103
5 109 103 98 111 99
3 54 79 37
5 37 54 69 38 25
3 37 70 39
3 25 37 23
5 69 39 37 23 50
3 38 69 50
3 38 70 40
3 24 38 25
5 79 24 38 40 54
3 55 50 79
3 23 50 26
5 50 26 70 39 55
3 54 69 80
3 69 39 62
5 69 80 23 25 62
3 24 79 28
5 79 28 70 40 55
3 63 54 40
5 80 24 25 63 54
3 26 70 28
3 63 25 62
3 71 39 55
5 23 71 39 62 26
3 71 23 80
3 92 40 55
5 40 92 24 28 63
3 80 24 92
5 55 92 26 28 71
5 71 63 62 92 80
3 92 26 62
3 71 28 63
3 40 55 36
3 36 24 80
3 36 26 62
3 77 22 2
3 22 60 24
3 26 46 22
3 40 2 82
3 62 32 2
3 74 77 55
3 80 77 33
5 74 77 33 26 62
5 24 60 82 40 94
3 46 94 40
3 32 24 94
3 55 100 60
5 26 46 74 55 100
3 80 106 82
5 32 33 80 106 62
3 33 100 26
3 74 106 62
3 60 82 114
5 100 94 46 114 60
5 94 106 82 114 32
3 74 114 46
3 32 33 114
5 33 114 74 106 100
3 94 106 100
3 8 41 78
3 8 64 12
3 13 43 8
3 2 22 4
3 22 64 30
3 46 22 43
3 2 81 41
3 13 32 2
3 46 35 41
3 78 4 96
3 12 4 93
5 96 13 43 93 4
3 35 64 32
3 78 107 30
5 43 107 78 96 46
3 81 108 12
5 13 108 12 93 32
3 93 107 43
3 13 96 108
3 30 114 81
5 107 35 46 114 30
5 35 108 81 114 32
3 46 96 114
3 93 114 32
5 93 114 96 108 107
3 35 107 108
3 6 54 37
3 37 11 25
3 37 72 44
3 5 38 69
3 38 25 13
3 44 59 38
3 69 54 14
3 72 69 67
3 54 68 59
3 68 25 67
3 6 97 5
3 11 5 98
5 44 98 5 97 72
3 6 103 13
5 44 103 6 97 59
3 14 110 11
5 72 110 11 98 67
3 14 113 13
5 59 68 103 13 113
3 44 103 98
3 72 110 97
5 14 110 68 67 113
3 97 113 59
3 98 113 67
3 68 110 103
5 98 113 97 110 103
5 79 50 22 9 21
3 21 51 79
3 3 21 9
5 64 21 51 77 22
5 77 3 21 23 50
3 21 64 23
3 77 22 50
3 4 9 22
5 24 79 51 4 22
3 24 64 22
3 52 50 79
3 65 23 50
5 52 3 9 65 50
5 9 53 79 52 4
3 53 79 24
3 80 51 77
3 10 3 77
5 23 80 77 10 64
3 53 65 9
3 4 51 12
5 64 12 51 80 24
3 87 3 52
5 10 65 23 87 3
3 90 52 4
5 4 90 24 53 12
3 10 64 12
3 87 80 23
5 65 90 52 87 53
3 90 24 80
3 90 10 65
5 80 90 10 12 87
3 12 53 87
3 28 79 21
3 21 42 9
3 30 88 21
3 22 50 26
3 43 9 22
3 30 60 22
3 44 50 79
3 50 86 88
3 61 79 60
3 61 9 86
3 26 100 28
3 42 26 101
5 30 101 26 100 88
3 43 107 28
5 28 107 30 60 100
3 42 109 44
5 88 86 101 42 109
3 44 43 111
5 61 107 43 111 60
5 86 111 44 109 61
3 30 107 101
3 88 100 109
3 60 100 111
3 86 111 101
3 61 107 109
5 100 111 101 107 109
3 39 56 37
3 23 87 37
3 44 66 37
3 50 69 52
3 88 23 50
3 44 47 50
3 69 39 73
3 66 67 69
3 47 76 39
3 67 23 76
3 56 52 97
3 87 99 52
5 97 66 44 99 52
3 88 109 56
5 44 109 56 97 47
3 73 110 87
5 66 67 99 87 110
3 44 109 99
3 97 110 66
3 88 73 115
5 47 115 88 109 76
5 73 115 67 76 110
3 47 115 97
3 67 115 99
3 109 110 76
5 110 109 99 115 97
3 7 5 85
3 7 65 10
3 26 62 7
3 50 69 77
3 65 86 50
3 26 50 47
3 5 69 17
3 62 69 67
3 85 77 74
3 33 77 10
5 65 86 17 5 98
3 47 98 5
3 67 98 65
3 86 85 101
5 26 101 85 74 47
3 33 26 101
3 17 10 105
5 67 33 10 105 62
3 62 105 74
3 86 115 17
5 47 115 86 101 98
5 67 115 17 105 98
3 47 115 74
5 74 115 33 101 105
3 67 33 115
3 98 101 105
3 51 78 21
3 21 64 27
3 21 57 88
3 85 77 22
3 22 29 64
3 57 60 22
3 81 77 51
3 88 77 33
3 60 51 34
3 33 34 64
3 85 102 78
3 85 101 27
5 102 88 57 101 85
3 29 107 78
5 57 60 102 78 107
3 81 112 27
5 101 33 88 112 27
3 81 114 29
5 60 114 29 107 34
3 57 101 107
3 102 112 88
5 112 34 33 114 81
3 60 114 102
3 101 114 33
3 34 107 112
5 101 114 102 112 107
5 54 69 2 84 1
3 1 54 63
3 1 11 84
3 73 81 1
3 69 2 62
3 2 13 84
3 81 82 2
3 66 69 54
3 69 17 73
3 54 18 82
3 17 18 84
3 63 106 62
3 62 105 11
5 81 73 106 62 105
3 13 63 108
5 82 106 63 108 81
3 66 11 110
5 17 73 110 11 105
3 66 113 13
5 82 18 108 13 113
5 18 110 66 113 17
3 105 108 81
3 73 110 106
3 82 106 113
3 17 105 113
3 18 110 108
5 106 113 105 108 110
3 51 1 54
5 1 51 77 2 41
3 3 84 1
5 69 39 1 3 77
3 39 1 41
3 2 69 77
3 4 84 2
3 41 2 40
5 4 51 54 40 2
3 54 69 52
3 5 69 39
5 3 52 69 5 84
3 55 77 51
3 3 77 85
5 39 55 77 85 41
3 40 54 6
5 52 4 84 6 54
3 4 51 78
5 55 40 41 78 51
3 5 84 6
3 56 52 3
5 3 56 39 5 85
3 78 41 85
3 56 55 39
3 95 52 4
5 4 78 6 40 95
3 55 40 95
5 6 56 52 95 5
3 95 5 85
5 85 95 55 56 78
3 56 6 78
3 21 56 3
3 21 71 23
3 30 57 21
3 55 77 50
3 50 23 72
3 57 86 50
3 73 77 3
3 30 33 77
3 3 89 86
3 33 23 89
3 56 55 102
3 71 100 55
5 57 30 102 55 100
3 56 109 72
5 86 102 56 109 57
3 73 112 71
5 30 33 100 71 112
3 57 109 100
3 73 115 72
5 89 86 115 72 109
3 30 112 102
5 89 33 115 73 112
3 86 102 115
3 33 115 100
3 109 112 89
5 102 112 109 100 115
3 6 78 8
3 12 53 8
3 28 63 8
3 54 79 51
3 53 61 79
3 28 79 48
3 6 18 54
3 68 54 63
3 78 83 51
3 12 51 34
5 6 103 53 61 18
3 48 6 103
3 53 103 68
3 61 78 107
5 83 48 28 107 78
3 28 107 34
3 18 12 108
5 63 68 34 12 108
3 83 108 63
3 18 116 61
5 61 116 48 103 107
5 18 108 103 68 116
3 48 83 116
5 107 108 83 116 34
3 68 116 34
3 103 107 108
3 38 95 40
3 38 90 24
3 38 44 66
3 54 79 52
3 60 24 79
3 48 79 44
3 82 54 40
3 66 68 54
3 48 94 40
3 95 97 52
3 90 52 99
3 68 24 94
3 60 95 111
5 97 48 44 111 95
3 82 113 90
5 99 68 66 113 90
3 44 111 99
3 66 97 113
3 60 82 116
5 94 111 60 116 48
5 94 68 116 82 113
3 48 116 97
3 99 116 68
5 113 111 99 116 97
3 94 111 113
3 1 51 12
3 1 27 41
3 1 14 73
3 2 77 10
3 2 41 29
3 14 2 82
3 30 51 77
3 74 77 73
3 82 51 83
3 74 41 83
3 12 104 10
3 27 10 105
5 104 73 14 105 10
3 29 12 108
5 82 104 12 108 14
3 30 112 27
5 73 112 27 105 74
3 29 114 30
5 82 114 29 108 83
5 83 112 30 114 74
3 105 108 14
3 73 112 104
3 82 104 114
3 105 114 74
3 83 108 112
5 112 108 105 114 104
3 1 3 87
3 1 39 71
3 1 81 14
3 80 69 77
3 72 69 39
3 14 69 17
3 88 3 77
3 81 77 74
3 17 3 75
3 75 39 74
3 87 104 80
3 71 80 106
5 81 104 80 106 14
3 87 110 72
5 17 14 110 87 104
3 88 112 71
5 106 74 81 112 71
3 88 115 72
5 75 110 72 115 17
3 14 110 106
5 75 74 115 88 112
3 104 112 81
3 17 104 115
3 74 106 115
3 110 112 75
5 112 110 106 115 104
3 22 95 4
3 22 92 24
3 30 57 22
3 55 79 51
3 59 79 24
3 61 79 57
3 4 51 82
3 30 51 34
3 61 93 4
3 34 93 24
3 95 55 102
3 55 100 92
3 95 111 59
5 57 61 102 95 111
3 82 92 114
5 92 114 30 34 100
3 57 111 100
3 30 102 114
3 59 116 82
5 111 93 61 116 59
5 34 93 114 82 116
3 61 116 102
3 34 116 100
3 111 114 93
5 102 116 100 111 114
3 38 5 95
3 38 90 65
3 38 13 43
3 4 9 84
3 86 9 65
3 49 9 43
3 17 84 5
3 19 84 13
3 95 96 4
3 93 4 90
3 49 98 5
3 65 98 19
3 95 111 86
5 43 49 96 95 111
3 43 111 93
3 90 113 17
5 13 113 90 93 19
3 13 113 96
3 86 17 117
5 49 117 86 111 98
5 19 117 17 113 98
3 49 117 96
3 19 93 117
5 96 117 93 111 113
3 111 113 98
3 37 56 6
3 37 53 87
3 37 42 11
3 3 84 9
3 61 9 53
3 42 49 9
3 18 84 6
3 11 19 84
3 56 3 75
3 87 89 3
3 49 103 6
3 53 103 19
3 61 109 56
5 49 75 56 109 42
3 89 42 109
3 87 110 18
5 87 110 11 19 89
3 75 110 11
3 18 117 61
5 49 103 109 61 117
5 19 117 18 110 103
3 49 117 75
5 89 117 75 110 109
3 19 117 89
3 103 109 110
3 2 4 90
3 2 92 40
3 2 81 14
3 54 51 80
3 54 40 59
3 14 54 18
3 60 4 51
3 83 51 81
3 18 96 4
3 40 96 83
3 90 104 80
3 92 106 80
3 59 90 113
5 14 113 90 104 18
3 60 114 92
5 83 106 92 114 81
3 14 106 113
3 59 116 60
5 96 18 116 59 113
3 104 114 81
5 96 114 60 116 83
3 18 116 104
3 83 106 116
3 96 114 113
5 104 114 113 106 116
3 50 95 52
3 50 65 91
3 50 88 57
3 9 85 3
3 9 65 16
3 61 9 57
3 17 52 3
3 88 3 89
3 61 52 99
3 89 65 99
3 95 85 102
3 91 85 101
3 16 111 95
3 57 111 101
3 17 115 91
5 91 115 88 89 101
3 88 115 102
3 16 117 17
5 61 117 16 111 99
5 89 117 17 115 99
3 61 102 117
3 89 117 101
3 111 115 99
5 101 117 102 115 111
3 21 78 56
3 21 28 71
3 27 42 21
3 39 70 41
3 28 70 48
3 49 70 42
3 83 41 78
3 27 35 41
3 75 39 56
3 76 39 71
3 49 78 107
3 35 107 28
3 56 109 48
3 76 109 42
3 83 112 71
5 27 112 71 76 35
3 27 112 75
3 48 118 83
5 109 107 49 118 48
5 83 112 107 35 118
3 49 75 118
5 109 112 75 118 76
3 76 118 35
3 109 112 107
3 85 95 22
3 22 92 26
3 22 29 43
3 41 40 70
3 47 26 70
3 49 43 70
3 74 85 41
3 35 41 29
3 96 40 95
3 94 40 92
3 49 85 101
3 26 101 35
3 47 95 111
3 94 111 43
3 92 114 74
5 29 35 94 92 114
3 29 114 96
3 47 118 74
5 111 101 49 118 47
5 35 118 74 114 101
3 96 118 49
5 114 111 94 118 96
3 35 118 94
3 111 114 101
3 52 90 69
3 5 91 69
3 69 73 14
3 3 10 84
3 16 5 84
3 18 14 84
3 86 3 52
3 73 3 75
3 52 97 18
3 5 97 75
3 10 104 90
3 91 10 105
3 90 113 16
3 86 91 115
5 91 115 73 75 105
3 105 113 14
3 73 104 115
3 86 117 16
5 18 117 16 113 97
5 86 115 97 75 117
3 18 117 104
3 105 117 75
3 97 113 115
5 104 117 105 113 115
3 55 50 95
3 50 26 91
3 50 72 44
3 39 70 5
3 46 70 26
3 48 70 44
3 74 55 39
3 72 39 76
3 95 97 5
3 91 5 98
3 48 100 55
3 26 100 76
3 95 111 46
3 98 111 44
3 91 115 74
5 98 76 72 115 91
3 97 115 72
3 74 46 118
5 48 100 111 46 118
5 115 100 76 118 74
3 48 97 118
3 76 98 118
5 115 111 98 118 97
3 100 111 115
3 56 79 52
3 53 79 58
3 60 79 57
3 4 9 78
3 15 53 9
3 86 57 9
3 4 52 18
3 60 93 4
3 86 99 52
3 93 99 53
3 102 78 56
3 58 78 107
3 15 109 56
3 107 109 57
3 58 116 18
5 60 116 58 107 93
3 18 117 15
5 86 99 109 15 117
3 60 102 116
3 86 102 117
5 116 99 93 117 18
3 93 117 107
3 99 116 109
5 116 109 107 117 102
3 2 90 10
3 2 92 62
3 2 29 13
3 25 64 24
3 67 25 62
3 19 25 13
3 33 64 10
3 35 64 29
3 90 93 24
3 92 24 94
3 10 105 19
3 35 105 62
3 90 113 67
3 94 13 113
3 33 114 92
3 29 114 93
3 33 119 67
5 113 105 19 119 67
5 35 119 33 114 105
3 19 119 93
3 94 119 35
5 94 119 93 114 113
3 113 114 105
3 12 87 1
3 71 63 1
3 11 27 1
3 23 64 25
3 63 25 68
3 19 11 25
3 34 12 64
3 27 64 35
3 89 23 87
3 76 23 71
3 19 108 12
3 63 108 35
3 68 87 110
3 11 110 76
3 71 112 34
3 89 112 27
3 34 119 68
5 110 108 19 119 68
5 35 119 34 112 108
3 89 119 19
5 76 119 89 112 110
3 76 119 35
3 108 112 110
3 55 77 92
3 77 91 85
3 81 73 77
3 41 62 39
3 46 85 41
3 81 41 83
3 39 55 47
3 75 39 73
3 55 102 83
3 85 102 75
3 62 106 92
3 91 105 62
3 46 114 92
3 47 115 91
3 105 114 81
3 73 115 106
3 46 118 47
5 114 102 83 118 46
5 75 102 115 47 118
3 106 118 83
3 105 118 75
3 114 115 102
5 115 114 105 118 106
3 54 87 52
3 58 6 54
3 82 14 54
3 4 12 84
3 6 84 15
3 14 84 17
3 61 52 4
3 82 96 4
3 17 52 97
3 96 97 6
3 12 87 104
3 58 12 108
3 15 87 110
3 108 110 14
3 61 116 58
5 82 96 108 58 116
3 15 117 61
5 17 117 15 110 97
3 82 104 116
3 17 104 117
5 97 116 61 117 96
3 108 117 96
3 97 116 110
5 110 116 104 117 108
3 80 90 69
3 62 91 69
3 69 72 66
3 25 65 23
3 32 25 62
3 68 25 66
3 33 23 80
3 72 76 23
3 90 65 99
3 91 98 65
3 68 80 106
3 62 106 76
3 32 90 113
3 66 113 98
3 91 115 33
3 99 115 72
3 32 119 33
5 68 106 113 32 119
5 33 115 106 76 119
3 99 119 68
3 76 119 98
5 99 115 113 98 119
3 113 115 106
3 55 79 56
3 28 79 58
3 44 79 59
3 40 70 6
3 45 28 70
3 47 70 44
3 55 40 83
3 59 94 40
3 47 100 55
3 97 6 56
3 6 103 58
3 28 100 94
3 45 56 109
3 103 109 44
3 83 116 58
5 59 94 103 58 116
3 97 116 59
3 83 45 118
5 47 118 45 109 100
3 47 118 97
5 83 116 100 94 118
5 116 109 103 118 97
3 103 118 94
3 109 116 100
3 77 92 80
3 77 91 10
3 77 88 30
3 26 64 23
3 10 64 32
3 34 64 30
3 67 23 80
3 88 89 23
3 34 80 104
3 92 100 26
3 26 101 91
3 10 104 89
3 32 114 92
3 67 115 91
3 30 114 101
3 88 100 115
3 32 119 67
5 114 104 34 119 32
5 115 104 89 119 67
3 34 100 119
3 101 119 89
5 101 119 100 115 114
3 104 115 114
3 55 51 71
3 58 51 78
3 82 51 81
3 41 63 40
3 41 78 45
3 41 81 74
3 48 40 55
3 82 40 96
3 55 102 74
3 78 96 102
3 63 106 71
3 63 108 58
3 71 112 45
3 58 116 48
3 108 112 81
3 48 118 45
5 112 102 74 118 45
3 82 116 106
3 74 118 106
5 48 116 102 96 118
3 108 118 96
3 102 112 116
5 108 118 106 116 112
3 80 87 54
3 58 54 63
3 59 66 54
3 24 53 25
3 31 63 25
3 67 66 25
3 24 80 34
3 24 94 59
3 80 106 67
3 53 87 99
3 58 103 53
3 63 94 106
3 31 87 110
3 103 110 66
3 34 116 58
3 99 116 59
3 34 31 119
5 67 106 110 31 119
3 99 119 67
5 94 106 116 34 119
3 94 103 119
5 116 110 103 119 99
3 106 116 110
3 78 9 85
3 9 42 15
3 9 43 16
3 5 6 70
3 45 70 42
3 43 70 46
3 75 5 85
3 16 5 98
3 85 101 46
3 96 6 78
3 6 103 15
3 45 107 78
3 42 101 98
3 43 103 107
3 15 117 75
5 98 103 15 117 16
3 16 117 96
3 75 45 118
5 46 101 107 45 118
3 96 118 46
5 75 117 101 98 118
5 96 118 103 107 117
3 98 118 103
3 101 117 107
3 71 51 80
3 58 12 51
3 60 51 30
3 24 64 28
3 12 64 31
3 30 64 33
3 68 24 80
3 60 24 93
3 33 80 104
3 28 71 100
3 58 28 107
3 12 93 104
3 31 71 112
3 30 112 107
3 58 116 68
3 60 116 100
3 31 119 68
5 104 112 31 119 33
3 100 119 33
5 93 104 116 68 119
3 107 119 93
5 100 116 112 107 119
3 104 116 112
3 3 27 85
3 3 56 15
3 17 73 3
3 5 39 11
3 39 56 45
3 73 39 74
3 5 85 49
3 5 97 17
3 85 102 74
3 97 102 56
3 27 11 105
3 15 110 11
3 45 27 112
3 15 117 49
3 110 112 73
3 49 118 45
3 105 117 17
3 74 118 105
5 49 118 97 102 117
3 110 118 97
3 112 117 102
5 105 117 112 110 118
3 10 12 84
3 11 84 15
3 13 84 16
3 53 25 65
3 25 11 31
3 32 25 13
3 89 65 10
3 16 65 98
3 93 53 12
3 15 103 53
3 10 105 32
3 12 108 31
3 98 105 11
3 13 103 108
3 15 117 89
3 93 16 117
3 31 119 89
5 31 119 32 105 108
3 32 119 93
5 105 117 89 119 98
5 108 117 93 119 103
3 98 103 119
3 105 108 117
3 3 27 10
3 15 3 87
3 86 3 88
3 65 42 23
3 31 23 87
3 33 88 23
3 19 65 10
3 86 65 99
3 10 104 33
3 101 27 42
3 42 109 15
3 87 104 99
3 31 27 112
3 88 112 109
3 19 15 117
3 86 101 117
3 19 119 31
3 33 119 101
5 99 119 19 117 104
3 99 109 119
3 112 117 104
5 101 119 109 112 117
3 78 29 4
3 16 4 95
3 4 18 82
3 6 40 13
3 40 95 46
3 83 40 82
3 6 78 49
3 18 97 6
3 83 102 78
3 95 102 97
3 13 29 108
3 16 113 13
3 46 114 29
3 49 117 16
3 82 114 113
3 49 118 46
3 18 117 108
3 83 108 118
3 113 118 97
3 102 114 117
5 114 117 108 118 113
3 62 41 63
3 45 27 41
3 46 29 41
3 28 64 26
3 27 64 31
3 32 29 64
3 62 26 76
3 46 26 101
3 32 62 105
3 28 63 94
3 45 107 28
3 31 63 108
3 101 105 27
3 29 108 107
3 45 118 76
3 94 118 46
3 31 119 76
3 94 119 32
5 105 118 76 119 101
5 107 119 94 118 108
3 107 119 101
3 105 108 118
3 62 39 11
3 39 71 45
3 47 39 72
3 23 42 26
3 23 71 31
3 67 23 72
3 26 62 35
3 47 100 26
3 67 106 62
3 98 11 42
3 42 109 45
3 31 110 11
3 100 106 71
3 72 109 110
3 45 118 35
3 35 119 31
3 47 98 118
3 98 119 67
5 118 106 100 119 35
5 98 119 109 110 118
3 109 119 100
3 110 118 106
3 4 29 12
3 4 90 16
3 61 4 60
3 24 43 53
3 32 90 24
3 34 60 24
3 12 53 19
3 61 99 53
3 12 104 34
3 29 107 43
3 16 111 43
3 99 104 90
3 32 29 114
3 111 114 60
3 16 117 19
3 107 117 61
3 19 119 32
3 34 107 119
3 111 119 99
3 104 114 117
5 107 117 114 111 119
3 52 72 56
3 52 95 59
3 18 17 52
3 6 5 66
3 5 95 47
3 17 75 5
3 6 56 48
3 6 96 18
3 56 102 75
3 95 96 102
3 72 110 66
3 66 59 113
3 72 115 47
3 48 59 116
3 17 115 113
3 48 118 47
3 18 116 110
3 110 118 75
3 113 118 96
3 115 116 102
5 110 118 113 115 116
3 63 40 13
3 46 40 92
3 40 59 48
3 24 43 28
3 32 24 92
3 59 68 24
3 35 63 28
3 28 100 48
3 68 106 63
3 43 13 103
3 46 111 43
3 32 113 13
3 100 106 92
3 59 111 113
3 46 118 35
3 35 119 32
3 103 118 48
3 68 119 103
3 100 111 119
5 113 118 103 119 111
3 106 113 118
3 87 72 52
3 52 90 59
3 52 86 61
3 53 44 65
3 67 90 65
3 65 89 86
3 68 87 53
3 53 93 61
3 89 87 104
3 90 104 93
3 44 72 109
3 44 111 59
3 67 72 115
3 68 116 59
3 86 111 115
3 61 109 116
3 67 119 68
3 109 119 89
3 111 119 93
3 115 116 104
5 109 119 111 115 116
3 56 88 55
3 60 95 55
3 74 83 55
3 78 30 85
3 86 95 85
3 75 85 74
3 56 78 61
3 83 96 78
3 75 56 97
3 96 97 95
3 30 88 112
3 30 114 60
3 88 86 115
3 60 116 61
3 61 117 86
3 74 115 114
3 112 116 83
3 75 117 112
3 114 117 96
3 97 115 116
5 112 117 114 115 116
3 11 5 66
3 5 91 47
3 16 49 5
3 44 65 42
3 67 91 65
3 19 65 16
3 76 42 11
3 42 49 101
3 19 105 11
3 44 103 66
3 44 111 47
3 66 113 67
3 101 105 91
3 111 113 16
3 76 47 118
3 67 119 76
3 49 103 118
3 19 119 103
3 111 119 101
3 105 118 113
3 55 88 71
3 60 55 92
3 48 55 47
3 26 57 28
3 33 92 26
3 47 26 76
3 28 71 34
3 28 94 48
3 76 106 71
3 92 94 106
3 57 109 88
3 60 111 57
3 88 115 33
3 60 116 34
3 47 115 111
3 48 109 116
3 34 119 33
3 76 109 119
3 94 119 111
3 106 116 115
3 87 73 80
3 82 90 80
3 33 80 34
3 10 81 12
3 17 10 90
3 33 89 10
3 18 87 12
3 34 93 12
3 87 99 89
3 93 99 90
3 81 73 112
3 81 114 82
3 73 115 17
3 82 116 18
3 17 117 18
3 114 115 33
3 112 116 34
3 112 117 89
3 114 117 93
3 99 116 115
3 30 85 27
3 85 91 86
3 49 85 46
3 26 57 42
3 26 33 91
3 26 46 35
3 89 27 42
3 42 98 49
3 35 105 27
3 30 57 107
3 57 111 86
3 91 105 98
3 33 30 114
3 86 117 89
3 46 111 114
3 33 89 119
3 107 117 49
3 107 119 35
3 98 111 119
3 114 117 105
3 13 66 6
3 6 58 48
3 6 49 15
3 44 43 53
3 53 58 68
3 19 53 15
3 43 13 94
3 43 107 49
3 13 108 19
3 98 44 66
3 44 48 109
3 68 66 110
3 58 107 108
3 15 109 110
3 48 118 94
3 68 119 94
3 49 98 118
3 19 119 98
3 107 119 109
3 110 118 108
3 71 80 73
3 82 92 80
3 67 80 68
3 62 14 63
3 74 92 62
3 67 76 62
3 71 63 83
3 63 94 68
3 76 100 71
3 94 100 92
3 73 110 14
3 82 113 14
3 74 115 73
3 83 82 116
3 74 118 83
3 113 115 67
3 68 110 116
3 110 118 76
3 94 118 113
3 100 116 115
3 27 10 81
3 17 91 10
3 19 32 10
3 11 62 14
3 74 91 62
3 32 62 35
3 75 27 11
3 11 19 98
3 35 27 101
3 91 101 98
3 14 81 108
3 17 113 14
3 74 114 81
3 75 117 17
3 113 114 32
3 75 74 118
3 19 108 117
3 35 108 118
3 113 118 98
3 114 117 101
3 29 78 30
3 58 61 78
3 49 78 45
3 28 57 43
3 28 34 58
3 28 45 35
3 93 29 43
3 43 103 49
3 35 108 29
3 57 101 30
3 57 61 109
3 34 112 30
3 58 103 108
3 45 109 112
3 93 117 61
3 49 117 101
3 34 119 93
3 101 119 35
3 103 109 119
3 108 112 117
3 29 81 12
3 12 58 18
3 19 31 12
3 13 14 63
3 83 63 58
3 35 63 31
3 29 13 96
3 19 13 103
3 35 107 29
3 81 14 105
3 18 110 14
3 103 107 58
3 81 83 112
3 31 112 110
3 18 117 96
3 83 96 118
3 19 105 117
3 35 118 105
3 110 118 103
3 107 117 112
3 72 56 88
3 61 56 15
3 45 56 48
3 44 57 42
3 42 89 15
3 45 76 42
3 44 99 72
3 48 103 44
3 88 100 57
3 57 107 61
3 76 110 72
3 89 112 88
3 15 110 103
3 45 112 107
3 61 99 116
3 100 116 48
3 89 99 119
3 100 119 76
3 103 107 119
3 112 116 110
3 73 87 72
3 18 15 87
3 31 87 68
3 14 66 11
3 11 75 15
3 31 76 11
3 66 72 97
3 66 103 68
3 72 109 76
3 14 73 106
3 14 108 18
3 15 109 103
3 75 112 73
3 108 112 31
3 97 116 18
3 68 106 116
3 75 118 97
3 76 106 118
3 108 118 103
3 109 116 112
3 60 59 95
3 16 95 86
3 47 46 95
3 44 43 57
3 43 93 16
3 46 94 43
3 44 59 99
3 47 44 98
3 57 60 100
3 57 101 86
3 94 113 59
3 60 93 114
3 16 113 98
3 99 115 86
3 46 101 114
3 47 115 100
3 99 119 93
3 100 119 94
3 98 119 101
3 113 115 114
3 71 88 73
3 71 45 83
3 31 71 34
3 30 27 81
3 75 27 45
3 27 89 31
3 88 30 102
3 30 34 107
3 89 88 109
3 73 104 81
3 83 108 81
3 75 110 73
3 45 109 107
3 108 110 31
3 102 116 83
3 104 116 34
3 75 117 102
3 104 117 89
3 107 117 108
3 109 110 116
3 59 90 82
3 17 16 90
3 67 90 32
3 14 66 13
3 16 96 13
3 32 94 13
3 66 97 59
3 66 67 98
3 14 106 82
3 17 105 14
3 59 111 94
3 98 111 16
3 82 96 114
3 97 17 115
3 105 114 32
3 67 106 115
3 96 118 97
3 94 106 118
3 105 118 98
3 111 115 114
3 82 92 60
3 46 92 74
3 32 92 33
3 30 29 81
3 29 96 46
3 29 93 32
3 30 102 60
3 33 30 101
3 82 104 81
3 81 105 74
3 93 111 60
3 96 82 113
3 101 111 46
3 32 113 105
3 74 115 102
3 104 115 33
3 96 102 117
3 93 117 104
3 101 105 117
3 113 115 111
3 86 91 17
3 47 91 74
3 67 91 33
3 72 88 73
3 47 97 72
3 72 99 67
3 88 102 86
3 88 100 33
3 17 73 104
3 74 106 73
3 86 111 99
3 17 113 97
3 47 100 111
3 102 114 74
3 67 113 106
3 33 104 114
3 102 116 97
3 99 104 116
3 100 116 106
3 111 113 114
3 58 18 61
3 58 48 83
3 58 68 34
3 59 82 60
3 59 48 97
3 59 68 99
3 60 102 61
3 60 100 34
3 82 104 18
3 82 83 106
3 99 109 61
3 97 110 18
3 100 109 48
3 83 112 102
3 68 106 110
3 104 112 34
3 97 115 102
3 99 104 115
3 100 115 106
3 110 112 109
3 15 18 61
3 49 75 15
3 15 89 19
3 17 86 16
3 49 96 16
3 16 93 19
3 61 102 86
3 89 101 86
3 18 104 17
3 17 105 75
3 61 107 93
3 18 96 108
3 101 107 49
3 75 102 112
3 19 105 108
3 89 112 104
3 102 114 96
3 104 114 93
3 101 105 114
3 107 112 108
3 48 83 45
3 45 75 49
3 76 35 45
3 46 74 47
3 46 49 96
3 35 94 46
3 47 97 48
3 76 98 47
3 74 83 106
3 74 105 75
3 94 103 48
3 96 108 83
3 98 103 49
3 75 110 97
3 96 97 113
3 35 105 108
3 106 110 76
3 94 113 106
3 105 113 98
3 103 108 110
3 31 34 68
3 31 19 89
3 31 76 35
3 32 67 33
3 19 93 32
3 32 94 35
3 67 68 99
3 67 98 76
3 34 100 33
3 89 101 33
3 94 103 68
3 34 107 93
3 98 103 19
3 99 109 89
3 35 101 107
3 76 109 100
3 93 99 111
3 100 111 94
3 98 101 111
3 103 109 107

# Cells
32 0 1 2 3 4 5 6 7 8 9 10 11 12 13 14 15 16 17 18 19 20 21 22 23 24 25 26 27 28 29 30 31
32 32 33 34 35 36 37 38 39 40 41 42 43 44 45 46 47 48 49 50 51 52 53 54 55 56 57 58 59 60 61 62 63
32 64 65 66 67 68 69 70 71 72 73 74 75 76 77 78 79 80 81 82 83 84 85 86 87 88 89 90 91 92 93 94 95
32 96 97 98 99 100 101 102 103 104 105 106 107 108 109 110 111 112 113 114 115 116 117 118 119 120 121 122 123 124 125 126 127
32 64 128 129 130 131 132 133 134 135 136 137 138 139 140 141 142 143 144 145 146 147 148 149 150 151 152 153 154 155 156 157 158
32 159 160 161 162 163 164 165 166 167 168 169 170 171 172 173 174 175 176 177 178 179 180 181 182 183 184 185 186 187 188 189 190
32 191 192 193 194 195 196 197 198 199 200 201 202 203 204 205 206 207 208 209 210 211 212 213 214 215 216 217 218 219 220 221 222
32 32 223 224 225 226 227 228 229 230 231 232 233 234 235 236 237 238 239 240 241 242 243 244 245 246 247 248 249 250 251 252 253
32 96 254 255 256 257 258 259 260 261 262 263 264 265 266 267 268 269 270 271 272 273 274 275 276 277 278 279 280 281 282 283 284
32 159 285 286 287 288 289 290 291 292 293 294 295 296 297 298 299 300 301 302 303 304 305 306 307 308 309 310 311 312 313 314 315
32 191 316 317 318 319 320 321 322 323 324 325 326 327 328 329 330 331 332 333 334 335 336 337 338 339 340 341 342 343 344 345 346
32 0 347 348 349 350 351 352 353 354 355 356 357 358 359 360 361 362 363 364 365 366 367 368 369 370 371 372 373 374 375 376 377
32 378 379 380 381 382 383 384 385 386 387 388 389 390 391 392 393 394 395 396 397 398 399 400 401 402 403 404 405 406 407 408 409
32 256 410 411 412 413 414 415 416 417 418 419 420 421 422 423 424 425 426 427 428 429 430 431 432 433 434 435 436 437 438 439 440
32 410 441 442 443 444 445 446 447 448 449 450 451 452 453 454 455 456 457 458 459 460 461 462 463 464 465 466 467 468 469 470 471
32 318 472 473 474 475 476 477 478 479 480 481 482 483 484 485 486 487 488 489 490 491 492 493 494 495 496 497 498 499 500 501 502
32 472 503 504 505 506 507 508 509 510 511 512 513 514 515 516 517 518 519 520 521 522 523 524 525 526 527 528 529 530 531 532 533
32 162 379 534 535 536 537 538 539 540 541 542 543 544 545 546 547 548 549 550 551 552 553 554 555 556 557 558 559 560 561 562 563
32 564 565 566 567 568 569 570 571 572 573 574 575 576 577 578 579 580 581 582 583 584 585 586 587 588 589 590 591 592 593 594 595
32 349 537 596 597 598 599 600 601 602 603 604 605 606 607 608 609 610 611 612 613 614 615 616 617 618 619 620 621 622 623 624 625
32 35 414 565 626 627 628 629 630 631 632 633 634 635 636 637 638 639 640 641 642 643 644 645 646 647 648 649 650 651 652 653 654
32 596 655 656 657 658 659 660 661 662 663 664 665 666 667 668 669 670 671 672 673 674 675 676 677 678 679 680 681 682 683 684 685
32 194 504 686 687 688 689 690 691 692 693 694 695 696 697 698 699 700 701 702 703 704 705 706 707 708 709 710 711 712 713 714 715
32 130 418 632 716 717 718 719 720 721 722 723 724 725 726 727 728 729 730 731 732 733 734 735 736 737 738 739 740 741 742 743 744
32 716 745 746 747 748 749 750 751 752 753 754 755 756 757 758 759 760 761 762 763 764 765 766 767 768 769 770 771 772 773 774 775
32 287 380 689 776 777 778 779 780 781 782 783 784 785 786 787 788 789 790 791 792 793 794 795 796 797 798 799 800 801 802 803 804
32 3 476 656 805 806 807 808 809 810 811 812 813 814 815 816 817 818 819 820 821 822 823 824 825 826 827 828 829 830 831 832 833
32 834 835 836 837 838 839 840 841 842 843 844 845 846 847 848 849 850 851 852 853 854 855 856 857 858 859 860 861 862 863 864 865
32 36 257 866 867 868 869 870 871 872 873 874 875 876 877 878 879 880 881 882 883 884 885 886 887 888 889 890 891 892 893 894 895
32 866 896 897 898 899 900 901 902 903 904 905 906 907 908 909 910 911 912 913 914 915 916 917 918 919 920 921 922 923 924 925 926
32 163 350 835 927 928 929 930 931 932 933 934 935 936 937 938 939 940 941 942 943 944 945 946 947 948 949 950 951 952 953 954 955
32 225 480 566 811 956 957 958 959 960 961 962 963 964 965 966 967 968 969 970 971 972 973 974 975 976 977 978 979 980 981 982 983
32 67 541 603 746 984 985 986 987 988 989 990 991 992 993 994 995 996 997 998 999 1000 1001 1002 1003 1004 1005 1006 1007 1008 1009 1010 1011
32 99 443 693 782 1012 1013 1014 1015 1016 1017 1018 1019 1020 1021 1022 1023 1024 1025 1026 1027 1028 1029 1030 1031 1032 1033 1034 1035 1036 1037 1038 1039
32 1040 1041 1042 1043 1044 1045 1046 1047 1048 1049 1050 1051 1052 1053 1054 1055 1056 1057 1058 1059 1060 1061 1062 1063 1064 1065 1066 1067 1068 1069 1070 1071
32 4 320 836 1072 1073 1074 1075 1076 1077 1078 1079 1080 1081 1082 1083 1084 1085 1086 1087 1088 1089 1090 1091 1092 1093 1094 1095 1096 1097 1098 1099 1100
32 131 262 873 1041 1101 1102 1103 1104 1105 1106 1107 1108 1109 1110 1111 1112 1113 1114 1115 1116 1117 1118 1119 1120 1121 1122 1123 1124 1125 1126 1127 1128
32 68 168 933 1042 1129 1130 1131 1132 1133 1134 1135 1136 1137 1138 1139 1140 1141 1142 1143 1144 1145 1146 1147 1148 1149 1150 1151 1152 1153 1154 1155 1156
32 226 324 898 1078 1157 1158 1159 1160 1161 1162 1163 1164 1165 1166 1167 1168 1169 1170 1171 1172 1173 1174 1175 1176 1177 1178 1179 1180 1181 1182 1183 1184
32 40 135 876 1109 1185 1186 1187 1188 1189 1190 1191 1192 1193 1194 1195 1196 1197 1198 1199 1200 1201 1202 1203 1204 1205 1206 1207 1208 1209 1210 1211 1212
32 1185 1213 1214 1215 1216 1217 1218 1219 1220 1221 1222 1223 1224 1225 1226 1227 1228 1229 1230 1231 1232 1233 1234 1235 1236 1237 1238 1239 1240 1241 1242 1243
32 196 289 838 1244 1245 1246 1247 1248 1249 1250 1251 1252 1253 1254 1255 1256 1257 1258 1259 1260 1261 1262 1263 1264 1265 1266 1267 1268 1269 1270 1271 1272
32 100 200 899 1250 1273 1274 1275 1276 1277 1278 1279 1280 1281 1282 1283 1284 1285 1286 1287 1288 1289 1290 1291 1292 1293 1294 1295 1296 1297 1298 1299 1300
32 72 355 936 1137 1214 1301 1302 1303 1304 1305 1306 1307 1308 1309 1310 1311 1312 1313 1314 1315 1316 1317 1318 1319 1320 1321 1322 1323 1324 1325 1326 1327
32 1328 1329 1330 1331 1332 1333 1334 1335 1336 1337 1338 1339 1340 1341 1342 1343 1344 1345 1346 1347 1348 1349 1350 1351 1352 1353 1354 1355 1356 1357 1358 1359
32 383 507 659 1360 1361 1362 1363 1364 1365 1366 1367 1368 1369 1370 1371 1372 1373 1374 1375 1376 1377 1378 1379 1380 1381 1382 1383 1384 1385 1386 1387 1388
32 43 138 635 725 1194 1329 1389 1390 1391 1392 1393 1394 1395 1396 1397 1398 1399 1400 1401 1402 1403 1404 1405 1406 1407 1408 1409 1410 1411 1412 1413 1414
32 9 231 1081 1165 1216 1415 1416 1417 1418 1419 1420 1421 1422 1423 1424 1425 1426 1427 1428 1429 1430 1431 1432 1433 1434 1435 1436 1437 1438 1439 1440 1441
32 105 293 1045 1253 1281 1442 1443 1444 1445 1446 1447 1448 1449 1450 1451 1452 1453 1454 1455 1456 1457 1458 1459 1460 1461 1462 1463 1464 1465 1466 1467 1468
32 75 358 606 992 1309 1330 1469 1470 1471 1472 1473 1474 1475 1476 1477 1478 1479 1480 1481 1482 1483 1484 1485 1486 1487 1488 1489 1490 1491 1492 1493 1494
32 445 511 568 1366 1495 1496 1497 1498 1499 1500 1501 1502 1503 1504 1505 1506 1507 1508 1509 1510 1511 1512 1513 1514 1515 1516 1517 1518 1519 1520 1521 1522
32 140 264 420 726 1110 1523 1524 1525 1526 1527 1528 1529 1530 1531 1532 1533 1534 1535 1536 1537 1538 1539 1540 1541 1542 1543 1544 1545 1546 1547 1548 1549
32 1523 1550 1551 1552 1553 1554 1555 1556 1557 1558 1559 1560 1561 1562 1563 1564 1565 1566 1567 1568 1569 1570 1571 1572 1573 1574 1575 1576 1577 1578 1579 1580
32 387 449 749 1369 1503 1581 1582 1583 1584 1585 1586 1587 1588 1589 1590 1591 1592 1593 1594 1595 1596 1597 1598 1599 1600 1601 1602 1603 1604 1605 1606 1607
32 12 234 814 964 1332 1426 1608 1609 1610 1611 1612 1613 1614 1615 1616 1617 1618 1619 1620 1621 1622 1623 1624 1625 1626 1627 1628 1629 1630 1631 1632 1633
32 77 171 544 994 1138 1551 1634 1635 1636 1637 1638 1639 1640 1641 1642 1643 1644 1645 1646 1647 1648 1649 1650 1651 1652 1653 1654 1655 1656 1657 1658 1659
32 1660 1661 1662 1663 1664 1665 1666 1667 1668 1669 1670 1671 1672 1673 1674 1675 1676 1677 1678 1679 1680 1681 1682 1683 1684 1685 1686 1687 1688 1689 1690 1691
32 45 266 422 636 877 1660 1692 1693 1694 1695 1696 1697 1698 1699 1700 1701 1702 1703 1704 1705 1706 1707 1708 1709 1710 1711 1712 1713 1714 1715 1716 1717
32 108 296 785 1020 1453 1554 1718 1719 1720 1721 1722 1723 1724 1725 1726 1727 1728 1729 1730 1731 1732 1733 1734 1735 1736 1737 1738 1739 1740 1741 1742 1743
32 573 663 753 1372 1506 1591 1744 1745 1746 1747 1748 1749 1750 1751 1752 1753 1754 1755 1756 1757 1758 1759 1760 1761 1762 1763 1764 1765 1766 1767 1768 1769
32 235 327 483 966 1167 1663 1770 1771 1772 1773 1774 1775 1776 1777 1778 1779 1780 1781 1782 1783 1784 1785 1786 1787 1788 1789 1790 1791 1792 1793 1794 1795
32 172 359 545 607 937 1796 1797 1798 1799 1800 1801 1802 1803 1804 1805 1806 1807 1808 1809 1810 1811 1812 1813 1814 1815 1816 1817 1818 1819 1820 1821 1822
32 1796 1823 1824 1825 1826 1827 1828 1829 1830 1831 1832 1833 1834 1835 1836 1837 1838 1839 1840 1841 1842 1843 1844 1845 1846 1847 1848 1849 1850 1851 1852 1853
32 110 203 696 1022 1286 1664 1854 1855 1856 1857 1858 1859 1860 1861 1862 1863 1864 1865 1866 1867 1868 1869 1870 1871 1872 1873 1874 1875 1876 1877 1878 1879
32 843 904 1049 1256 1284 1452 1880 1881 1882 1883 1884 1885 1886 1887 1888 1889 1890 1891 1892 1893 1894 1895 1896 1897 1898 1899 1900 1901 1902 1903 1904 1905
32 390 452 788 1025 1558 1592 1730 1906 1907 1908 1909 1910 1911 1912 1913 1914 1915 1916 1917 1918 1919 1920 1921 1922 1923 1924 1925 1926 1927 1928 1929 1930
32 13 329 485 816 1085 1824 1931 1932 1933 1934 1935 1936 1937 1938 1939 1940 1941 1942 1943 1944 1945 1946 1947 1948 1949 1950 1951 1952 1953 1954 1955 1956
32 205 298 698 790 1257 1826 1957 1958 1959 1960 1961 1962 1963 1964 1965 1966 1967 1968 1969 1970 1971 1972 1973 1974 1975 1976 1977 1978 1979 1980 1981 1982
32 454 514 701 1027 1508 1668 1866 1983 1984 1985 1986 1987 1988 1989 1990 1991 1992 1993 1994 1995 1996 1997 1998 1999 2000 2001 2002 2003 2004 2005 2006 2007
32 576 666 819 969 1337 1619 1754 2008 2009 2010 2011 2012 2013 2014 2015 2016 2017 2018 2019 2020 2021 2022 2023 2024 2025 2026 2027 2028 2029 2030 2031 2032
32 846 907 1084 1170 1221 1425 1890 2033 2034 2035 2036 2037 2038 2039 2040 2041 2042 2043 2044 2045 2046 2047 2048 2049 2050 2051 2052 2053 2054 2055 2056 2057
32 392 516 703 792 1373 1831 1969 2058 2059 2060 2061 2062 2063 2064 2065 2066 2067 2068 2069 2070 2071 2072 2073 2074 2075 2076 2077 2078 2079 2080 2081 2082
32 488 519 581 971 1510 1672 1782 1996 2083 2084 2085 2086 2087 2088 2089 2090 2091 2092 2093 2094 2095 2096 2097 2098 2099 2100 2101 2102 2103 2104 2105 2106
32 849 942 1052 1142 1224 1314 1894 2046 2107 2108 2109 2110 2111 2112 2113 2114 2115 2116 2117 2118 2119 2120 2121 2122 2123 2124 2125 2126 2127 2128 2129 2130
32 612 669 756 997 1340 1481 1758 2021 2131 2132 2133 2134 2135 2136 2137 2138 2139 2140 2141 2142 2143 2144 2145 2146 2147 2148 2149 2150 2151 2152 2153 2154
32 491 521 671 821 1377 1834 1943 2071 2155 2156 2157 2158 2159 2160 2161 2162 2163 2164 2165 2166 2167 2168 2169 2170 2171 2172 2173 2174 2175 2176 2177 2178
32 395 550 761 1000 1561 1596 1646 1919 2179 2180 2181 2182 2183 2184 2185 2186 2187 2188 2189 2190 2191 2192 2193 2194 2195 2196 2197 2198 2199 2200 2201 2202
32 208 333 912 1172 1289 1673 1784 1868 2203 2204 2205 2206 2207 2208 2209 2210 2211 2212 2213 2214 2215 2216 2217 2218 2219 2220 2221 2222 2223 2224 2225 2226
32 579 641 731 759 1343 1401 1761 2024 2146 2227 2228 2229 2230 2231 2232 2233 2234 2235 2236 2237 2238 2239 2240 2241 2242 2243 2244 2245 2246 2247 2248 2249
32 882 910 1055 1115 1199 1227 1897 2049 2122 2250 2251 2252 2253 2254 2255 2256 2257 2258 2259 2260 2261 2262 2263 2264 2265 2266 2267 2268 2269 2270 2271 2272
32 397 552 614 673 1380 1809 1837 2073 2169 2273 2274 2275 2276 2277 2278 2279 2280 2281 2282 2283 2284 2285 2286 2287 2288 2289 2290 2291 2292 2293 2294 2295
32 211 335 851 1089 1261 1839 1945 1971 2296 2297 2298 2299 2300 2301 2302 2303 2304 2305 2306 2307 2308 2309 2310 2311 2312 2313 2314 2315 2316 2317 2318 2319
32 427 457 733 763 1536 1564 1598 1921 2194 2320 2321 2322 2323 2324 2325 2326 2327 2328 2329 2330 2331 2332 2333 2334 2335 2336 2337 2338 2339 2340 2341 2342
32 177 302 1057 1145 1457 1566 1648 1732 2343 2344 2345 2346 2347 2348 2349 2350 2351 2352 2353 2354 2355 2356 2357 2358 2359 2360 2361 2362 2363 2364 2365 2366
32 429 460 583 643 1514 1677 1704 1998 2098 2367 2368 2369 2370 2371 2372 2373 2374 2375 2376 2377 2378 2379 2380 2381 2382 2383 2384 2385 2386 2387 2388 2389
32 179 304 853 944 1263 1811 1841 1973 2311 2390 2391 2392 2393 2394 2395 2396 2397 2398 2399 2400 2401 2402 2403 2404 2405 2406 2407 2408 2409 2410 2411 2412
32 114 271 1059 1117 1459 1538 1568 1734 2358 2413 2414 2415 2416 2417 2418 2419 2420 2421 2422 2423 2424 2425 2426 2427 2428 2429 2430 2431 2432 2433 2434 2435
32 18 364 1229 1316 1345 1430 1483 1622 2436 2437 2438 2439 2440 2441 2442 2443 2444 2445 2446 2447 2448 2449 2450 2451 2452 2453 2454 2455 2456 2457 2458 2459
32 116 273 884 915 1291 1680 1706 1870 2218 2460 2461 2462 2463 2464 2465 2466 2467 2468 2469 2470 2471 2472 2473 2474 2475 2476 2477 2478 2479 2480 2481 2482
32 20 366 856 946 1091 1813 1844 1947 2313 2406 2483 2484 2485 2486 2487 2488 2489 2490 2491 2492 2493 2494 2495 2496 2497 2498 2499 2500 2501 2502 2503 2504
32 50 240 1201 1231 1347 1403 1432 1624 2451 2505 2506 2507 2508 2509 2510 2511 2512 2513 2514 2515 2516 2517 2518 2519 2520 2521 2522 2523 2524 2525 2526 2527
32 52 242 886 917 1176 1682 1708 1786 2220 2477 2528 2529 2530 2531 2532 2533 2534 2535 2536 2537 2538 2539 2540 2541 2542 2543 2544 2545 2546 2547 2548 2549
32 22 368 617 677 825 1815 1848 1949 2173 2290 2501 2550 2551 2552 2553 2554 2555 2556 2557 2558 2559 2560 2561 2562 2563 2564 2565 2566 2567 2568 2569 2570
32 82 145 1203 1234 1318 1350 1405 1485 2454 2522 2571 2572 2573 2574 2575 2576 2577 2578 2579 2580 2581 2582 2583 2584 2585 2586 2587 2588 2589 2590 2591 2592
32 84 147 1063 1119 1147 1540 1572 1650 2361 2430 2593 2594 2595 2596 2597 2598 2599 2600 2601 2602 2603 2604 2605 2606 2607 2608 2609 2610 2611 2612 2613 2614
32 54 244 586 645 975 1684 1710 1788 2101 2384 2546 2615 2616 2617 2618 2619 2620 2621 2622 2623 2624 2625 2626 2627 2628 2629 2630 2631 2632 2633 2634 2635
32 181 307 401 555 796 1816 1850 1975 2076 2291 2409 2636 2637 2638 2639 2640 2641 2642 2643 2644 2645 2646 2647 2648 2649 2650 2651 2652 2653 2654 2655 2656
32 86 149 736 767 1003 1542 1575 1652 2197 2337 2611 2657 2658 2659 2660 2661 2662 2663 2664 2665 2666 2667 2668 2669 2670 2671 2672 2673 2674 2675 2676 2677
32 118 275 432 463 1031 1687 1711 1873 2002 2385 2479 2678 2679 2680 2681 2682 2683 2684 2685 2686 2687 2688 2689 2690 2691 2692 2693 2694 2695 2696 2697 2698
32 214 338 494 525 707 1852 1950 1977 2078 2174 2316 2699 2700 2701 2702 2703 2704 2705 2706 2707 2708 2709 2710 2711 2712 2713 2714 2715 2716 2717 2718 2719
32 88 151 738 770 1005 1354 1408 1489 2149 2244 2589 2676 2720 2721 2722 2723 2724 2725 2726 2727 2728 2729 2730 2731 2732 2733 2734 2735 2736 2737 2738 2739
32 121 278 434 465 1033 1544 1577 1738 1925 2338 2432 2698 2740 2741 2742 2743 2744 2745 2746 2747 2748 2749 2750 2751 2752 2753 2754 2755 2756 2757 2758 2759
32 216 340 496 528 709 1690 1791 1875 2003 2102 2223 2719 2760 2761 2762 2763 2764 2765 2766 2767 2768 2769 2770 2771 2772 2773 2774 2775 2776 2777 2778 2779
32 56 247 590 648 978 1356 1410 1628 2027 2245 2524 2635 2780 2781 2782 2783 2784 2785 2786 2787 2788 2789 2790 2791 2792 2793 2794 2795 2796 2797 2798 2799
32 89 152 1066 1122 1151 1207 1238 1322 2125 2267 2590 2612 2800 2801 2802 2803 2804 2805 2806 2807 2808 2809 2810 2811 2812 2813 2814 2815 2816 2817 2818 2819
32 184 310 404 557 799 1578 1655 1739 1926 2198 2363 2656 2820 2821 2822 2823 2824 2825 2826 2827 2828 2829 2830 2831 2832 2833 2834 2835 2836 2837 2838 2839
32 26 372 620 680 828 1358 1490 1629 2028 2150 2456 2570 2840 2841 2842 2843 2844 2845 2846 2847 2848 2849 2850 2851 2852 2853 2854 2855 2856 2857 2858 2859
32 58 249 890 921 1179 1208 1240 1436 2052 2268 2525 2549 2860 2861 2862 2863 2864 2865 2866 2867 2868 2869 2870 2871 2872 2873 2874 2875 2876 2877 2878 2879
32 27 373 860 950 1095 1242 1323 1437 2053 2126 2457 2504 2880 2881 2882 2883 2884 2885 2886 2887 2888 2889 2890 2891 2892 2893 2894 2895 2896 2897 2898 2899
32 124 279 891 923 1068 1124 1295 1463 1900 2270 2434 2481 2900 2901 2902 2903 2904 2905 2906 2907 2908 2909 2910 2911 2912 2913 2914 2915 2916 2917 2918 2919
32 186 312 862 951 1070 1152 1267 1464 1901 2128 2364 2412 2920 2921 2922 2923 2924 2925 2926 2927 2928 2929 2930 2931 2932 2933 2934 2935 2936 2937 2938 2939
32 435 468 592 650 740 772 1517 1602 1764 2248 2341 2388 2940 2941 2942 2943 2944 2945 2946 2947 2948 2949 2950 2951 2952 2953 2954 2955 2956 2957 2958 2959
32 219 343 864 925 1096 1181 1268 1297 1903 2055 2226 2319 2960 2961 2962 2963 2964 2965 2966 2967 2968 2969 2970 2971 2972 2973 2974 2975 2976 2977 2978 2979
32 406 559 621 682 774 1008 1383 1603 1765 2152 2201 2295 2980 2981 2982 2983 2984 2985 2986 2987 2988 2989 2990 2991 2992 2993 2994 2995 2996 2997 2998 2999
32 499 530 594 684 830 980 1384 1519 1767 2031 2106 2178 3000 3001 3002 3003 3004 3005 3006 3007 3008 3009 3010 3011 3012 3013 3014 3015 3016 3017 3018 3019
32 408 471 531 712 801 1036 1386 1520 1606 1929 2007 2082 3020 3021 3022 3023 3024 3025 3026 3027 3028 3029 3030 3031 3032 3033 3034 3035 3036 3037 3038 3039
32 127 221 315 713 802 1037 1271 1299 1467 1743 1879 1982 3040 3041 3042 3043 3044 3045 3046 3047 3048 3049 3050 3051 3052 3053 3054 3055 3056 3057 3058 3059
32 31 253 345 501 831 981 1099 1183 1440 1632 1795 1956 3060 3061 3062 3063 3064 3065 3066 3067 3068 3069 3070 3071 3072 3073 3074 3075 3076 3077 3078 3079
32 95 190 377 563 625 955 1010 1155 1326 1494 1659 1822 3080 3081 3082 3083 3084 3085 3086 3087 3088 3089 3090 3091 3092 3093 3094 3095 3096 3097 3098 3099
32 63 158 284 440 654 744 895 1128 1212 1414 1549 1717 3100 3101 3102 3103 3104 3105 3106 3107 3108 3109 3110 3111 3112 3113 3114 3115 3116 3117 3118 3119
20 192 347 535 777 1074 1135 1448 1886 1933 2063 2115 2280 2352 2557 2707 2830 2890 2971 3051 3093
20 97 223 478 691 869 1079 1251 1694 1889 1990 2042 2090 2306 2623 2686 2709 2871 2911 3055 3075
20 128 290 416 874 1016 1131 1277 1636 1885 1911 2259 2327 2469 2664 2688 2810 2828 2928 3052 3115
20 254 321 627 957 1192 1275 1419 1856 2037 2088 2256 2372 2513 2685 2767 2789 2909 2967 3070 3111
20 70 228 601 809 931 1076 1188 1391 2015 2040 2114 2138 2493 2560 2728 2788 2808 2868 3074 3095
20 1 285 474 687 929 1163 1279 1799 1888 2041 2065 2162 2213 2558 2644 2770 2892 2932 3053 3073
20 160 316 598 806 1246 1307 1421 1959 2039 2113 2160 2278 2445 2643 2706 2850 2930 2970 3071 3091
20 38 352 721 988 1105 1133 1417 1610 2112 2136 2232 2255 2602 2666 2787 2847 2867 2887 3092 3112
20 65 102 539 780 934 1103 1248 1526 1887 1913 2116 2186 2400 2646 2665 2748 2811 2910 3054 3096
20 165 259 718 985 1190 1305 1444 1720 2111 2184 2254 2325 2580 2729 2747 2827 2907 2927 3090 3110
20 33 197 412 1013 1107 1159 1446 1772 1884 1988 2258 2374 2422 2622 2750 2768 2870 2968 3050 3113
20 6 133 630 871 960 1161 1303 1471 2013 2038 2234 2257 2537 2624 2727 2807 2848 2888 3072 3114
20 34 255 508 723 958 1014 1585 1748 1775 1859 2235 2328 2467 2535 2751 2769 2790 3010 3030 3116
20 66 166 446 604 719 781 1364 1529 1725 1751 2140 2283 2350 2601 2647 2731 2749 2950 3034 3097
20 2 317 378 599 688 962 1501 1752 1802 1964 2016 2093 2303 2491 2645 2771 2852 2992 3033 3076
20 473 534 928 1073 1362 1475 1614 2014 2060 2137 2301 2395 2442 2641 2704 2889 2989 3009 3069 3089
20 224 322 441 628 692 812 1367 1697 1753 1861 2017 2165 2210 2536 2687 2710 2792 2951 3035 3077
20 415 538 1102 1130 1393 1473 1583 1908 2135 2231 2348 2418 2577 2745 2809 2825 2947 2987 3087 3107
20 161 348 503 778 807 990 1587 1750 1936 1962 2139 2187 2397 2490 2708 2831 2851 3011 3031 3094
20 411 477 868 1158 1395 1497 1612 1985 2012 2208 2233 2465 2511 2683 2765 2869 2949 3007 3067 3109
20 129 260 384 633 986 1017 1499 1639 1723 1749 2236 2376 2420 2600 2689 2730 2829 2990 3032 3117
20 98 198 413 479 564 783 1370 1590 1699 1777 1916 2068 2211 2468 2626 2711 2752 2953 3015 3057
20 39 134 419 660 961 989 1474 1500 1586 1613 2329 2377 2512 2578 2625 2667 2849 2991 3012 3118
20 626 690 867 1274 1496 1530 1722 1910 2085 2205 2326 2419 2533 2620 2762 2908 2948 3027 3047 3108
20 193 286 475 536 655 1018 1504 1589 1804 1915 1938 1993 2304 2398 2559 2772 2832 2993 3014 3056
20 597 686 927 1245 1361 1640 1724 1912 2157 2185 2298 2349 2488 2555 2701 2929 2988 3029 3049 3088
20 71 353 542 570 722 810 1365 1394 1588 1615 2188 2284 2443 2561 2579 2668 2791 2952 3013 3098
20 600 629 1187 1302 1528 1638 1746 2010 2183 2324 2441 2510 2599 2785 2806 2845 2945 2985 3085 3105
20 7 229 481 602 631 750 1368 1396 1476 1502 2094 2166 2444 2515 2562 2627 2732 2954 2994 3078
20 776 805 1072 1244 1360 1776 1860 1989 2089 2209 2275 2392 2485 2552 2638 2969 3008 3028 3048 3068
20 103 291 417 540 694 745 1371 1505 1531 1641 1994 2069 2351 2421 2648 2669 2690 2955 2995 3058
20 720 808 1186 1416 1696 1745 1774 2087 2133 2371 2438 2534 2576 2725 2842 2866 2944 3005 3065 3104
20 717 779 1101 1443 1582 1698 1858 1987 2181 2345 2373 2466 2598 2662 2822 2906 2946 3025 3045 3106
20 74 169 356 901 1077 1106 1191 1249 1422 1449 2353 2401 2446 2494 2582 2604 2872 2912 2973 3099
20 164 319 381 505 834 1023 1282 1450 1728 1805 1864 1939 2163 2281 2492 2773 2833 2934 2974 3036
20 258 323 442 509 786 896 1254 1451 1700 1729 1778 1967 2091 2375 2539 2712 2753 2914 2975 3037
20 870 930 1390 1470 1525 1635 1882 2035 2347 2417 2440 2509 2663 2726 2865 2885 2905 2925 3082 3102
20 42 137 263 840 1134 1162 1278 1306 1420 1447 2423 2470 2514 2538 2581 2603 2891 2931 2972 3119
20 984 1015 1129 1442 1581 1803 1961 2062 2279 2322 2396 2415 2595 2659 2742 2926 2986 3024 3044 3086
20 956 1012 1157 1273 1495 1937 1963 2064 2161 2302 2369 2462 2530 2617 2680 2966 3006 3026 3046 3066
20 959 987 1301 1415 1744 1801 1935 2159 2229 2277 2489 2507 2573 2722 2782 2886 2984 3004 3064 3084
20 167 261 385 447 699 1040 1255 1283 1532 1642 1865 1968 2189 2330 2605 2649 2691 2915 2935 3038
20 10 232 325 872 932 1046 1193 1252 1280 1308 2214 2307 2447 2495 2516 2540 2812 2913 2933 3079
20 1075 1104 1389 1609 1693 1771 1881 2109 2207 2437 2464 2575 2621 2786 2805 2882 2904 2965 3062 3101
20 37 199 510 567 817 897 1082 1424 1618 1701 1862 1941 1991 2378 2471 2713 2793 2874 2977 3017
20 195 351 506 657 837 967 1168 1423 1617 1780 1806 1965 2066 2282 2399 2774 2853 2894 2976 3016
20 1132 1160 1469 1608 1798 1880 1932 2252 2300 2394 2506 2556 2572 2802 2846 2862 2924 2964 3061 3081
20 106 201 294 875 935 1080 1108 1136 1164 1218 2215 2308 2355 2402 2425 2472 2813 2873 2893 3059
20 41 354 486 571 661 1083 1169 1213 1397 1477 1781 1942 2141 2237 2563 2583 2629 2875 2896 3018
20 1189 1247 1524 1692 1719 1855 2034 2108 2204 2344 2532 2597 2684 2746 2804 2864 2922 2962 3042 3100
20 5 288 382 658 839 995 1140 1312 1479 1644 1940 1966 2067 2164 2305 2834 2855 2895 2936 2996
20 132 292 386 610 747 940 1043 1313 1480 1533 1726 1807 1914 2331 2424 2651 2734 2814 2937 2997
20 1276 1304 1634 1718 1797 1958 2033 2251 2297 2414 2487 2594 2642 2801 2826 2884 2902 2961 3041 3080
20 8 136 548 662 751 941 1141 1215 1398 1616 1645 1808 2018 2238 2517 2565 2671 2816 2897 2998
20 44 331 357 818 841 902 968 1195 1310 1328 1783 1944 2117 2260 2496 2542 2584 2796 2856 2978
20 388 450 512 605 634 724 813 963 991 1334 2095 2167 2191 2285 2332 2379 2733 2794 2854 3039
20 1363 1392 1527 1695 1907 1984 2009 2084 2132 2180 2619 2661 2682 2724 2744 2784 2982 3002 3022 3103
20 69 104 448 639 748 880 1044 1198 1400 1643 1702 1727 1917 2190 2354 2694 2735 2815 2917 2957
20 101 227 444 569 729 900 1113 1197 1399 1534 1779 1863 1992 2092 2212 2756 2795 2876 2916 2956
20 1418 1445 1770 1854 1931 1957 2107 2250 2391 2461 2484 2529 2705 2766 2861 2881 2901 2921 3040 3060
20 1472 1498 1637 1800 1906 2008 2059 2156 2228 2321 2554 2640 2658 2721 2824 2844 2942 3001 3021 3083
20 73 230 425 572 752 881 1114 1217 1478 1535 1620 1703 2019 2142 2448 2631 2672 2817 2877 2958
20 11 139 175 611 842 996 1047 1196 1331 1427 1647 1810 2043 2261 2498 2518 2607 2736 2857 2938
20 421 517 543 574 664 727 784 993 1019 1555 1995 2070 2143 2239 2286 2380 2670 2754 2835 3019
20 170 206 265 787 844 905 1024 1111 1139 1550 1867 1970 2119 2262 2403 2474 2606 2755 2836 2979
20 1584 1611 1773 1934 1983 2058 2131 2227 2274 2368 2551 2616 2703 2764 2781 2841 2941 2981 3020 3063
20 76 233 269 640 730 903 1048 1311 1333 1428 1537 1705 2044 2118 2449 2544 2608 2737 2797 2918
20 141 295 362 549 845 999 1112 1219 1454 1482 1552 1812 1891 2263 2405 2426 2585 2673 2837 2898
20 267 300 326 700 847 878 1026 1050 1166 1661 1731 1972 2045 2264 2310 2427 2541 2693 2776 2939
20 393 423 482 637 667 695 754 965 1021 1666 1918 2020 2072 2168 2241 2334 2628 2692 2775 2999
20 1721 1747 1857 1960 2083 2155 2179 2273 2320 2367 2637 2679 2700 2741 2761 2821 2940 2980 3000 3043
20 48 78 107 426 732 906 1143 1220 1402 1455 1553 1707 1892 2120 2356 2476 2587 2674 2757 2878
20 16 46 202 487 848 879 970 1222 1285 1621 1662 1893 1946 2265 2312 2473 2519 2630 2777 2899
20 142 176 363 389 665 728 1144 1315 1335 1556 1593 1755 1814 2240 2289 2333 2586 2609 2838 2858
20 455 484 546 577 608 697 757 789 815 1828 1920 1997 2023 2097 2145 2193 2564 2650 2714 2959
20 112 173 328 702 791 908 938 1053 1086 1733 1823 1869 2048 2121 2217 2357 2497 2652 2715 2919
20 1883 1909 1986 2061 2203 2296 2343 2390 2413 2460 2636 2678 2699 2740 2760 2820 2900 2920 2960 3023
20 109 143 236 428 642 1051 1173 1223 1287 1404 1539 1665 1895 2047 2216 2429 2521 2632 2695 2818
20 49 79 270 451 575 998 1116 1200 1336 1557 1594 1709 1756 2144 2192 2383 2588 2610 2758 2798
20 204 238 360 490 820 909 939 1225 1258 1623 1785 1825 1896 2123 2219 2404 2450 2566 2716 2879
20 17 47 332 513 638 668 1171 1338 1429 1507 1667 1757 1948 2172 2242 2381 2520 2543 2778 2859
20 2011 2036 2086 2158 2206 2299 2436 2483 2505 2528 2550 2615 2702 2763 2780 2840 2860 2880 2963 3003
20 14 80 297 551 613 1054 1087 1226 1259 1484 1649 1827 1898 2050 2309 2360 2453 2567 2653 2819
20 144 237 272 453 755 883 972 1202 1339 1511 1541 1669 1759 2022 2096 2336 2523 2545 2696 2738
20 239 334 361 515 578 609 1088 1341 1374 1431 1760 1787 1829 2100 2147 2287 2452 2499 2717 2799
20 207 268 301 394 424 518 1288 1456 1509 1559 1595 1670 1974 2075 2335 2382 2428 2475 2779 2839
20 2110 2134 2182 2276 2346 2393 2439 2486 2553 2571 2593 2639 2657 2720 2800 2823 2843 2883 2923 2983
20 15 81 178 391 758 822 943 1317 1342 1375 1651 1762 1830 2025 2170 2196 2455 2500 2654 2739
20 51 111 146 580 760 885 1028 1118 1407 1512 1560 1599 1671 1922 1999 2243 2431 2478 2633 2675
20 113 174 210 456 520 547 1260 1376 1458 1562 1597 1832 1872 2001 2195 2288 2359 2407 2718 2759
20 2230 2253 2323 2370 2416 2463 2508 2531 2574 2596 2618 2660 2681 2723 2743 2783 2803 2863 2903 2943
20 83 299 365 670 762 793 945 1146 1378 1488 1563 1600 1833 1923 2074 2148 2362 2408 2568 2677
20 53 148 458 644 735 911 1029 1056 1206 1292 1460 1565 1674 1735 1871 2266 2339 2386 2547 2613
20 115 303 330 396 459 489 1262 1290 1379 1513 1675 1737 1835 1924 2099 2171 2221 2314 2655 2697
20 19 209 241 582 672 704 1090 1175 1381 1515 1627 1676 1836 2000 2026 2077 2222 2315 2569 2634
20 85 367 398 616 794 850 1002 1058 1264 1321 1461 1567 1736 1838 1976 2124 2199 2292 2502 2614
20 150 274 431 584 737 913 973 1121 1174 1228 1344 1433 1625 1678 1789 2246 2269 2387 2480 2591
20 21 243 522 705 824 852 914 974 1265 1293 1435 1679 1840 1874 1978 2051 2103 2175 2503 2548
20 87 180 554 674 823 854 1004 1092 1150 1230 1346 1434 1626 1842 1951 2127 2151 2293 2410 2592
20 55 277 433 647 764 889 1001 1060 1148 1232 1319 1348 1486 1569 1653 2247 2271 2340 2433 2526
20 117 306 492 523 795 855 916 1030 1093 1177 1462 1681 1790 1843 1899 1952 2004 2079 2411 2482
20 246 337 493 615 675 857 947 977 1178 1233 1320 1349 1487 1817 1845 2029 2054 2176 2317 2527
20 183 371 556 619 734 765 949 1061 1120 1204 1235 1351 1406 1543 1570 2129 2153 2200 2365 2458
20 120 213 399 553 706 858 948 1032 1062 1149 1294 1571 1654 1818 1846 1902 1927 2080 2318 2435
20 212 336 400 462 585 676 797 826 976 1034 1601 1683 1763 1792 1847 1876 1953 1979 2294 2389
20 25 339 495 587 646 827 887 918 1094 1205 1236 1352 1409 1685 1712 2030 2056 2104 2224 2459
20 215 309 430 461 708 798 888 919 1064 1123 1266 1545 1573 1686 1713 1904 1928 2005 2225 2366
20 182 305 464 524 618 678 710 766 1006 1035 1516 1574 1656 1740 1766 1819 1849 1980 2177 2342
20 119 276 403 527 588 649 711 739 768 800 1382 1546 1576 1688 1714 1741 1768 1877 2105 2202
20 23 369 402 497 526 558 589 769 979 1007 1353 1491 1518 1604 1630 1820 1851 1954 2081 2249
20 57 245 436 466 498 529 679 741 771 829 1355 1385 1411 1605 1631 1689 1715 1793 2006 2154
20 24 185 217 308 341 370 920 1065 1153 1180 1237 1296 1324 1438 1465 1821 1853 1955 1981 2272
20 90 153 405 437 467 560 591 622 651 681 1357 1387 1412 1492 1521 1547 1579 1657 1930 2032
20 59 122 218 248 280 342 859 1067 1097 1125 1209 1239 1269 1439 1466 1691 1716 1794 1878 2130
20 91 123 154 187 281 311 861 892 922 952 1210 1241 1270 1298 1325 1548 1580 1658 1742 2057
20 28 60 92 155 250 374 863 893 924 953 1069 1098 1126 1154 1182 1359 1413 1493 1633 1905
20 29 61 93 156 251 375 593 623 652 683 742 773 832 982 1009 1211 1243 1327 1441 1769
20 94 125 157 188 282 313 407 438 469 561 743 775 803 1011 1038 1071 1127 1156 1468 1607
20 62 126 220 252 283 344 439 470 500 532 595 653 714 894 926 983 1039 1184 1300 1522
20 30 189 222 314 346 376 409 502 533 562 624 685 715 804 833 865 954 1100 1272 1388
