# Generated using Miratope v0.5.0 (https://github.com/galoomba1/miratope-rs)
4OFF

# Vertices, Faces, Edges, Cells
24 96 72 48

# Vertices
1 0 0 0 
0 0 0 -1 
0 0 -1 0 
0 -1 0 0 
0.5 -0.5 -0.5 0.5 
-0.5 -0.5 0.5 0.5 
0.5 -0.5 0.5 -0.5 
-0.5 -0.5 -0.5 -0.5 
0.5 0.5 -0.5 -0.5 
-0.5 0.5 0.5 -0.5 
-0.5 0.5 -0.5 0.5 
0.5 0.5 0.5 0.5 
0 0 1 0 
-1 0 0 0 
0 1 0 0 
0 0 0 1 
0.5 -0.5 -0.5 -0.5 
-0.5 -0.5 -0.5 0.5 
-0.5 -0.5 0.5 -0.5 
-0.5 0.5 -0.5 -0.5 
0.5 0.5 0.5 -0.5 
0.5 0.5 -0.5 0.5 
0.5 -0.5 0.5 0.5 
-0.5 0.5 0.5 0.5 

# Faces
3 0 1 2
3 1 3 0
3 0 3 2
3 1 2 3
3 5 6 4
3 4 5 7
3 4 6 7
3 6 7 5
3 9 6 8
3 8 9 7
3 7 8 6
3 6 9 7
3 4 10 8
3 7 4 8
3 7 10 8
3 4 7 10
3 4 11 8
3 8 11 6
3 4 11 6
3 4 8 6
3 12 13 1
3 12 13 3
3 3 12 1
3 3 13 1
3 13 1 14
3 14 13 2
3 1 14 2
3 2 13 1
3 0 15 14
3 0 15 2
3 0 14 2
3 14 15 2
3 0 12 15
3 0 3 15
3 0 12 3
3 3 15 12
3 13 15 2
3 3 13 15
3 3 15 2
3 3 13 2
3 0 12 14
3 1 0 12
3 1 0 14
3 1 14 12
3 5 9 10
3 5 9 7
3 7 10 5
3 7 10 9
3 9 11 8
3 8 11 10
3 10 11 9
3 8 9 10
3 4 5 11
3 4 11 10
3 10 5 11
3 4 5 10
3 9 11 5
3 5 11 6
3 6 11 9
3 6 5 9
3 14 12 15
3 13 15 12
3 13 15 14
3 12 14 13
3 17 18 16
3 17 19 16
3 16 18 19
3 18 19 17
3 21 16 20
3 20 21 19
3 19 20 16
3 16 19 21
3 21 16 22
3 21 22 17
3 16 21 17
3 16 22 17
3 16 20 22
3 22 18 20
3 16 18 20
3 16 18 22
3 20 22 21
3 21 23 20
3 20 23 22
3 22 23 21
3 22 17 23
3 22 18 23
3 17 22 18
3 17 18 23
3 18 23 20
3 20 19 23
3 19 20 18
3 18 19 23
3 17 23 21
3 21 23 19
3 19 17 21
3 17 19 23

# Cells
4 0 1 2 3
4 4 5 6 7
4 8 9 10 11
4 12 13 14 15
4 16 17 18 19
4 20 21 22 23
4 24 25 26 27
4 28 29 30 31
4 32 33 34 35
4 36 37 38 39
4 40 41 42 43
4 44 45 46 47
4 48 49 50 51
4 52 53 54 55
4 56 57 58 59
4 60 61 62 63
4 64 65 66 67
4 68 69 70 71
4 72 73 74 75
4 76 77 78 79
4 80 81 82 83
4 84 85 86 87
4 88 89 90 91
4 92 93 94 95
4 6 10 13 19
4 64 75 79 86
4 66 70 78 90
4 65 71 74 94
4 68 72 76 80
4 7 11 45 59
4 9 14 47 51
4 12 16 49 53
4 4 18 52 57
4 5 15 46 55
4 8 17 48 58
4 67 87 91 95
4 69 81 89 93
4 73 83 84 92
4 77 82 85 88
4 44 50 54 56
4 3 23 27 39
4 0 26 30 42
4 2 29 33 38
4 1 22 34 41
4 28 32 40 60
4 21 35 37 61
4 20 24 43 63
4 25 31 36 62
