# Generated using Miratope v0.5.0 (https://github.com/galoomba1/miratope-rs)
4OFF

# Vertices, Faces, Edges, Cells
120 3120 1200 720

# Vertices
0.809016994374945 0.809016994374945 0.809016994374945 0.809016994374945 
0.809016994374945 0.809016994374945 0.809016994374945 -0.809016994374945 
0.809016994374945 0.809016994374945 -0.809016994374945 0.809016994374945 
0.809016994374945 -0.809016994374945 0.809016994374945 0.809016994374945 
0.809016994374945 1.30901699437495 0 -0.5 
0.809016994374945 -0.5 1.30901699437495 0 
0.809016994374945 0 -0.5 1.30901699437495 
0.809016994374945 0.809016994374945 -0.809016994374945 -0.809016994374945 
0.809016994374945 -0.809016994374945 0.809016994374945 -0.809016994374945 
0.809016994374945 1.30901699437495 0 0.5 
0.809016994374945 0 -0.5 -1.30901699437495 
0.809016994374945 -0.809016994374945 -0.809016994374945 0.809016994374945 
0.809016994374945 0 0.5 1.30901699437495 
0.809016994374945 -0.5 -1.30901699437495 0 
0.809016994374945 0.5 1.30901699437495 0 
0.809016994374945 -1.30901699437495 0 -0.5 
0.809016994374945 -0.809016994374945 -0.809016994374945 -0.809016994374945 
0.809016994374945 0 0.5 -1.30901699437495 
0.809016994374945 0.5 -1.30901699437495 0 
0.809016994374945 -1.30901699437495 0 0.5 
0 -1.61803398874989 0 0 
1.30901699437495 0.5 0 0.809016994374945 
1.30901699437495 0 -0.809016994374945 -0.5 
0 -1.30901699437495 0.5 0.809016994374945 
1.30901699437495 0.5 0 -0.809016994374945 
1.30901699437495 0 -0.809016994374945 0.5 
0 -1.30901699437495 0.5 -0.809016994374945 
0.5 -0.809016994374945 0 1.30901699437495 
0 -0.809016994374945 1.30901699437495 0.5 
0 -0.809016994374945 1.30901699437495 -0.5 
0.5 -0.809016994374945 0 -1.30901699437495 
1.30901699437495 0.809016994374945 0.5 0 
0.5 0 1.30901699437495 0.809016994374945 
0.5 0 1.30901699437495 -0.809016994374945 
0.5 -1.30901699437495 -0.809016994374945 0 
0 0 1.61803398874989 0 
1.30901699437495 0.809016994374945 -0.5 0 
1.30901699437495 -0.5 0 0.809016994374945 
0 0.809016994374945 1.30901699437495 -0.5 
1.30901699437495 -0.809016994374945 -0.5 0 
0.5 1.30901699437495 0.809016994374945 0 
0.5 -1.30901699437495 0.809016994374945 0 
0 0.5 0.809016994374945 -1.30901699437495 
0 -0.5 0.809016994374945 -1.30901699437495 
0.5 0.809016994374945 0 -1.30901699437495 
0 0 0 1.61803398874989 
-0.5 1.30901699437495 0.809016994374945 0 
-0.5 0.809016994374945 0 1.30901699437495 
-0.5 -0.809016994374945 0 1.30901699437495 
-0.5 -1.30901699437495 0.809016994374945 0 
0 1.30901699437495 0.5 0.809016994374945 
-1.30901699437495 0.5 0 0.809016994374945 
-1.30901699437495 -0.5 0 0.809016994374945 
-0.5 0 1.30901699437495 -0.809016994374945 
-1.30901699437495 0.809016994374945 0.5 0 
-1.30901699437495 0 0.809016994374945 -0.5 
-1.30901699437495 -0.809016994374945 0.5 0 
-0.809016994374945 0.809016994374945 0.809016994374945 0.809016994374945 
1.30901699437495 0 0.809016994374945 -0.5 
0 -0.5 0.809016994374945 1.30901699437495 
-0.809016994374945 0.809016994374945 0.809016994374945 -0.809016994374945 
1.30901699437495 0 0.809016994374945 0.5 
-0.809016994374945 -0.809016994374945 0.809016994374945 0.809016994374945 
0 0.5 0.809016994374945 1.30901699437495 
-0.809016994374945 -0.809016994374945 0.809016994374945 -0.809016994374945 
-1.30901699437495 0 0.809016994374945 0.5 
-0.809016994374945 0.5 1.30901699437495 0 
-0.809016994374945 -1.30901699437495 0 0.5 
1.30901699437495 -0.809016994374945 0.5 0 
0 0.809016994374945 1.30901699437495 0.5 
-0.809016994374945 0 0.5 1.30901699437495 
-0.5 0 1.30901699437495 0.809016994374945 
0 1.30901699437495 -0.5 0.809016994374945 
-0.809016994374945 0.809016994374945 -0.809016994374945 0.809016994374945 
-0.5 0 -1.30901699437495 0.809016994374945 
0 -1.30901699437495 -0.5 0.809016994374945 
-0.809016994374945 -0.809016994374945 -0.809016994374945 0.809016994374945 
0.5 0 -1.30901699437495 0.809016994374945 
1.61803398874989 0 0 0 
0 0.809016994374945 -1.30901699437495 0.5 
-0.809016994374945 0 -0.5 1.30901699437495 
0 -0.809016994374945 -1.30901699437495 0.5 
0 0.5 -0.809016994374945 1.30901699437495 
0.5 0.809016994374945 0 1.30901699437495 
-0.5 1.30901699437495 -0.809016994374945 0 
0.5 1.30901699437495 -0.809016994374945 0 
-0.809016994374945 1.30901699437495 0 -0.5 
0 1.30901699437495 0.5 -0.809016994374945 
0 1.30901699437495 -0.5 -0.809016994374945 
-0.809016994374945 1.30901699437495 0 0.5 
0 1.61803398874989 0 0 
0 -0.5 -0.809016994374945 1.30901699437495 
-1.30901699437495 0.809016994374945 -0.5 0 
-1.30901699437495 0 -0.809016994374945 0.5 
-1.61803398874989 0 0 0 
-0.809016994374945 -0.5 1.30901699437495 0 
1.30901699437495 -0.5 0 -0.809016994374945 
-0.5 0.809016994374945 0 -1.30901699437495 
-0.809016994374945 0 0.5 -1.30901699437495 
-1.30901699437495 0.5 0 -0.809016994374945 
0 0 -1.61803398874989 0 
0 0.809016994374945 -1.30901699437495 -0.5 
0.5 0 -1.30901699437495 -0.809016994374945 
-0.809016994374945 0.809016994374945 -0.809016994374945 -0.809016994374945 
-0.809016994374945 0 -0.5 -1.30901699437495 
-0.809016994374945 -0.5 -1.30901699437495 0 
-0.809016994374945 -1.30901699437495 0 -0.5 
-0.809016994374945 -0.809016994374945 -0.809016994374945 -0.809016994374945 
-0.809016994374945 0.5 -1.30901699437495 0 
-1.30901699437495 0 -0.809016994374945 -0.5 
-0.5 -0.809016994374945 0 -1.30901699437495 
-0.5 -1.30901699437495 -0.809016994374945 0 
-1.30901699437495 -0.5 0 -0.809016994374945 
-1.30901699437495 -0.809016994374945 -0.5 0 
0 0 0 -1.61803398874989 
-0.5 0 -1.30901699437495 -0.809016994374945 
0 -1.30901699437495 -0.5 -0.809016994374945 
0 -0.809016994374945 -1.30901699437495 -0.5 
0 0.5 -0.809016994374945 -1.30901699437495 
0 -0.5 -0.809016994374945 -1.30901699437495 

# Faces
3 1 5 0
5 0 6 13 10 1
3 0 4 2
5 0 5 15 13 2
5 3 0 4 10 15
3 3 6 0
3 7 9 1
5 1 7 13 19 5
5 9 1 8 19 6
3 1 8 10
5 12 2 7 17 5
3 2 7 13
3 11 12 2
5 11 2 4 17 15
5 3 11 18 4 14
3 3 11 15
3 8 14 3
5 6 3 8 10 18
5 9 7 16 19 12
3 16 17 7
5 11 16 17 14 12
3 11 18 16
5 16 8 14 9 18
3 16 19 8
3 9 14 12
3 9 18 6
3 14 17 4
3 12 5 19
3 18 10 4
3 17 15 5
3 6 13 19
3 13 10 15
3 11 16 20
5 21 11 20 29 14
3 11 21 22
3 12 23 11
5 22 17 29 23 11
5 16 24 14 28 20
3 24 25 16
5 25 12 28 26 16
3 16 17 26
3 27 28 20
5 20 27 21 24 30
3 20 29 30
3 31 25 12
5 12 23 26 17 31
3 32 33 31
5 32 23 34 22 31
5 31 25 34 26 33
3 31 22 17
3 21 24 14
3 32 27 21
5 21 32 29 30 22
3 14 28 12
3 17 29 14
5 32 27 34 30 33
3 32 23 29
5 24 33 28 27 25
3 33 30 24
3 27 34 25
3 33 26 28
3 34 30 22
3 34 26 23
3 0 35 3
5 35 43 10 36 0
3 0 36 37
5 0 38 43 15 37
3 4 38 0
5 3 39 10 42 35
3 21 39 3
5 3 29 42 4 21
3 15 29 3
5 35 41 39 36 40
3 40 42 35
3 35 41 43
3 32 40 21
5 40 21 39 30 42
3 21 4 22
5 32 41 30 44 40
3 40 36 44
5 37 22 44 38 32
3 37 41 32
3 32 38 29
5 36 44 43 41 37
3 36 39 10
3 22 15 37
5 4 22 15 29 38
3 10 42 4
3 38 44 43
3 39 30 41
3 22 44 30
3 29 42 30
3 10 43 15
3 0 45 3
5 0 3 49 55 46
5 0 45 52 55 38
5 5 0 47 52 49
3 5 38 0
3 0 46 47
5 29 55 51 45 3
5 46 14 3 48 51
3 14 3 29
3 3 49 48
3 45 50 51
5 45 23 29 38 50
3 45 52 23
3 14 12 50
5 12 14 53 56 48
5 50 14 29 56 51
3 46 53 14
5 54 50 12 23 56
5 12 47 54 53 5
3 5 23 12
3 47 48 12
3 50 38 54
5 38 5 23 52 54
3 53 49 5
5 47 46 53 49 48
3 46 51 55
3 47 54 52
3 29 55 38
3 51 56 48
3 53 54 56
3 29 56 23
3 55 49 52
3 1 46 0
5 1 0 59 49 43
3 3 58 0
5 0 57 55 43 58
3 0 57 59
3 1 8 61
5 8 1 46 65 49
5 60 1 61 59 65
3 1 60 43
5 8 42 46 63 3
3 3 8 49
3 3 63 62
5 3 62 55 42 58
3 60 40 57
5 57 60 43 41 59
5 62 41 58 40 57
3 62 55 57
5 8 61 63 65 64
3 8 42 64
5 64 41 61 40 60
3 64 65 60
5 62 63 40 42 64
3 62 64 41
3 40 63 61
3 61 59 41
3 40 42 58
3 63 65 46
3 41 58 43
3 46 42 55
3 59 65 49
3 49 43 55
3 8 64 20
5 8 20 48 63 14
3 8 61 19
3 14 8 53
5 48 19 8 53 65
5 20 64 66 63 27
3 66 33 64
5 33 61 27 67 64
3 65 67 64
3 20 68 27
5 20 56 66 14 68
3 56 20 48
3 61 69 33
5 61 69 65 67 19
3 61 27 63
3 14 68 12
3 14 66 63
3 69 70 12
5 19 26 53 69 12
5 12 68 26 56 70
3 12 48 19
5 70 67 26 33 69
3 69 53 65
3 65 48 63
5 70 27 68 33 66
3 33 26 68
3 70 56 66
3 70 67 27
3 53 56 26
3 19 67 26
3 0 2 37
5 2 0 71 52 74
3 3 71 0
5 72 0 3 75 74
5 57 0 37 75 52
3 0 57 72
5 2 11 23 71 50
3 11 74 2
3 2 50 73
5 23 37 2 73 52
3 3 21 11
5 3 11 74 51 71
5 21 72 51 62 3
3 62 75 3
5 37 77 73 57 32
3 73 52 57
3 62 32 57
5 62 57 72 77 75
5 11 21 50 51 76
3 23 76 11
5 73 76 23 32 50
3 73 77 76
5 21 77 76 62 32
3 62 76 51
3 32 50 21
3 21 72 77
3 32 23 37
3 51 71 50
3 37 77 75
3 23 52 71
3 72 74 51
3 52 74 75
3 0 3 78
5 0 78 13 74 47
3 0 72 36
5 0 59 75 13 36
3 47 59 0
5 78 3 48 74 18
5 63 3 39 18 72
3 48 63 3
3 3 75 39
5 47 9 78 19 48
3 9 78 18
3 13 78 19
3 61 63 9
5 9 61 19 81 79
5 61 63 80 81 39
5 59 61 36 79 80
3 39 61 36
3 61 59 19
5 63 9 18 81 48
3 47 79 9
3 72 80 63
5 72 36 39 75 80
3 36 79 13
5 13 79 47 59 19
3 47 74 48
3 72 74 18
3 59 75 80
3 39 18 81
3 80 81 79
3 19 81 48
3 74 75 13
3 76 20 62
5 39 20 62 63 21
3 41 32 62
3 63 62 80
5 62 41 39 77 80
5 20 68 21 82 76
3 70 82 76
5 32 70 76 34 68
3 76 77 34
3 28 68 20
5 20 81 82 63 28
3 39 20 81
3 32 68 21
3 21 63 82
3 39 77 21
3 83 25 61
5 41 67 80 83 61
3 63 28 61
5 25 61 28 67 81
3 41 39 61
3 83 70 32
5 41 34 77 83 32
5 34 67 70 83 25
3 80 77 83
5 68 28 70 82 25
3 25 68 34
3 82 81 25
3 70 28 67
3 80 81 67
3 67 34 41
3 73 45 2
5 2 73 54 38 31
5 4 38 71 45 2
3 2 31 12
5 71 12 2 84 54
3 4 84 2
5 45 32 38 86 73
5 32 31 85 73 70
3 73 70 54
3 73 85 86
3 21 32 45
5 51 86 4 21 45
3 51 45 71
5 12 70 54 87 31
3 32 31 38
3 31 85 87
3 14 21 4
5 14 21 82 51 66
5 21 32 66 86 85
3 82 85 21
3 14 71 12
5 12 14 87 84 82
5 4 84 51 71 14
3 66 87 14
3 70 82 12
3 70 66 32
3 4 86 38
3 54 71 38
5 70 82 85 87 66
3 66 86 51
3 87 54 84
3 82 51 84
3 7 78 1
5 7 79 47 69 1
5 47 6 78 1 46
3 61 69 1
5 6 61 1 88 79
3 1 88 46
5 12 78 7 84 47
5 25 7 87 69 12
3 25 79 7
3 84 7 87
3 14 78 12
5 14 78 18 84 46
3 18 78 6
5 61 25 79 89 69
3 61 6 63
5 24 61 63 89 88
3 24 61 25
3 46 14 63
5 24 18 82 63 14
3 24 87 14
3 12 69 47
3 12 82 25
3 69 89 87
5 18 88 46 63 6
3 82 89 63
3 79 6 47
3 46 47 84
5 24 87 89 82 25
3 88 18 24
3 89 88 79
3 82 84 18
3 57 60 35
5 60 44 36 83 57
5 57 35 58 36 72
3 57 83 32
5 58 32 57 86 44
3 57 86 72
5 61 35 60 88 36
5 60 33 61 83 89
3 89 88 60
3 60 44 33
3 61 35 63
5 42 88 72 63 35
3 35 58 42
3 32 58 21
3 21 63 72
5 24 21 63 66 42
5 72 86 42 58 21
3 21 24 85
3 61 83 36
3 24 61 33
5 32 33 44 85 83
3 89 85 83
3 32 66 33
3 63 89 66
3 36 58 44
3 72 88 36
5 66 33 24 85 89
3 88 42 24
3 66 86 42
3 85 44 86
3 0 2 90
5 59 52 92 90 0
5 0 6 74 92 46
3 0 6 59
3 0 46 71
5 54 90 2 91 52
3 2 91 12
3 74 84 2
3 90 54 69
5 90 69 59 91 79
3 79 92 90
3 12 9 69
5 84 9 12 48 93
5 65 69 9 79 93
5 65 46 9 6 48
3 6 79 9
3 84 9 46
5 91 12 69 54 93
3 12 71 48
3 65 59 69
5 6 59 65 92 79
3 48 74 6
5 84 74 48 71 46
3 46 92 65
3 54 71 52
3 59 91 52
3 84 93 54
3 48 93 65
3 91 93 79
3 52 74 92
3 76 94 73
5 32 95 94 73 83
3 83 91 73
3 50 54 73
5 54 73 91 23 95
5 76 27 32 66 94
3 76 27 82
5 66 56 76 82 50
3 56 76 23
3 89 66 94
5 89 83 27 67 94
3 95 67 94
3 50 82 12
3 28 69 12
5 12 82 93 56 28
3 12 23 91
3 32 27 83
3 69 83 89
5 83 69 95 67 91
3 50 66 32
3 23 95 32
5 28 69 89 93 67
3 69 54 95
5 28 66 89 82 27
3 89 93 82
3 56 28 66
3 28 67 27
3 93 67 91
3 54 93 56
3 0 90 38
5 72 0 35 55 92
3 35 59 0
3 45 72 0
5 60 95 59 83 90
3 90 60 92
3 35 60 40
5 60 35 59 80 92
5 60 94 80 83 40
3 94 95 60
3 83 90 73
5 73 52 95 38 90
3 45 73 52
3 86 94 73
5 80 72 40 35 62
3 62 35 55
3 62 45 32
5 55 86 72 45 62
5 40 86 94 62 32
3 80 94 62
3 32 83 40
3 72 40 86
3 80 83 59
3 32 38 95
3 72 80 92
3 38 86 55
3 52 95 59
3 55 92 52
3 0 2 45
5 58 0 45 75 15
3 36 58 0
3 5 59 0
5 22 2 45 23 15
3 31 2 22
5 23 91 2 31 5
3 2 91 13
5 32 45 77 22 58
3 32 45 23
3 75 45 77
3 32 31 83
5 83 91 34 96 31
3 31 5 96
5 83 59 41 96 36
3 77 36 83
3 91 83 59
3 41 58 32
5 58 41 75 77 36
3 36 13 96
3 22 58 15
5 59 91 13 96 5
3 5 15 23
3 59 41 75
3 41 96 34
3 22 77 34
3 23 91 34
3 15 75 13
3 0 1 78
5 71 49 15 78 0
3 37 59 0
3 0 38 71
5 53 1 78 19 49
5 1 96 19 59 69
3 69 1 53
3 1 43 96
3 12 78 19
5 71 12 78 17 53
3 17 15 78
3 31 69 12
5 96 31 69 95 26
5 38 95 23 37 31
3 96 37 31
3 17 38 31
3 23 12 71
3 69 59 95
5 95 43 96 37 59
3 15 23 37
5 17 38 71 23 15
3 49 71 53
3 38 95 43
3 59 49 19
3 19 26 96
3 23 95 26
3 26 17 53
3 43 49 15
3 7 90 2
5 5 37 2 90 38
3 12 2 50
5 50 38 17 22 2
3 37 2 22
5 96 7 90 69 5
3 7 25 96
3 17 87 7
3 90 83 69
5 37 83 90 44 96
3 44 90 38
5 50 12 68 17 87
3 12 69 5
3 25 68 12
3 32 37 83
5 83 69 33 96 25
3 83 85 25
3 38 32 50
5 32 50 85 22 68
3 33 68 32
3 85 87 50
3 69 87 33
3 96 37 5
3 5 17 38
5 87 33 68 25 85
3 22 68 17
3 22 85 44
3 33 96 44
3 0 57 90
5 5 43 97 90 0
3 0 58 4
5 4 0 71 55 97
3 0 5 71
5 43 95 57 90 44
3 57 95 32
3 57 86 55
5 5 95 54 90 31
3 90 44 31
3 54 97 90
3 32 50 31
5 32 95 98 44 31
5 54 98 17 31 50
3 17 31 5
5 29 98 86 50 32
3 32 58 29
5 4 50 71 29 17
3 86 50 4
3 54 71 50
5 29 58 4 86 55
3 44 58 43
3 17 97 4
5 71 5 17 97 54
3 95 43 5
3 55 71 29
3 86 44 98
3 54 98 95
3 17 98 29
3 55 97 43
3 64 94 62
3 32 62 29
3 63 51 62
5 62 29 42 86 51
5 94 64 33 40 89
3 33 64 28
5 64 28 63 89 99
3 64 42 99
3 94 89 70
5 32 70 94 98 33
3 86 94 98
3 50 87 14
3 14 63 28
5 63 14 42 99 51
5 28 14 87 99 56
3 29 42 14
3 32 33 40
3 63 89 40
3 42 86 40
3 50 70 32
5 87 50 70 56 98
3 51 86 50
5 87 33 28 70 89
3 87 99 89
3 70 56 28
3 33 87 98
3 29 98 56
3 51 56 99
3 1 35 0
5 1 97 92 47 0
3 4 72 0
3 0 47 71
5 92 88 1 35 65
5 9 47 65 53 1
3 1 88 9
3 1 97 53
3 65 35 63
3 42 35 55
3 14 9 63
5 9 84 99 53 14
5 63 65 99 88 9
3 47 84 9
3 4 14 42
3 14 53 71
3 51 63 72
5 4 72 51 55 42
3 4 97 84
5 47 71 53 97 84
3 92 47 65
3 51 55 71
3 72 92 88
3 51 99 84
3 53 99 65
3 42 88 99
3 55 92 97
3 0 78 6
3 0 35 58
5 6 75 49 35 0
3 0 71 45
5 14 71 48 11 78
3 11 78 15
3 21 45 11
5 71 29 15 11 45
3 11 48 20
3 8 78 14
5 48 6 78 8 49
5 8 35 63 6 39
3 8 49 35
3 20 39 8
3 63 35 62
5 35 62 75 39 58
5 21 58 29 62 45
3 75 45 62
3 29 62 20
3 14 21 63
3 39 58 21
3 14 29 71
3 48 6 63
3 29 58 15
3 39 6 75
3 48 49 71
3 75 49 15
3 3 11 45
5 45 72 4 58 3
3 3 14 63
3 3 39 58
5 22 11 45 50 4
5 14 50 82 11 68
3 22 11 68
3 11 82 18
3 50 32 45
3 72 45 77
3 14 50 4
3 14 68 24
3 40 32 58
5 27 77 85 40 32
3 40 72 63
5 40 24 39 27 63
5 58 39 77 72 40
3 85 40 24
3 32 68 27
3 85 50 82
3 63 27 82
3 22 58 4
3 18 72 4
5 68 24 85 82 27
3 18 24 39
3 22 85 77
3 77 27 39
3 4 78 0
5 37 0 90 101 13
3 0 90 47
3 37 45 0
5 4 101 74 45 0
3 13 7 78
3 90 31 7
5 7 90 47 91 13
5 7 31 12 91 100
3 7 100 84
3 12 78 11
5 74 84 4 78 11
3 11 74 45
5 12 50 84 100 11
3 11 100 22
5 91 37 31 90 73
3 73 101 90
3 45 73 50
5 22 101 73 45 37
5 50 31 22 100 73
3 91 100 73
3 12 31 50
3 22 37 31
3 12 47 91
3 4 50 84
3 13 37 91
3 4 22 101
3 47 84 74
3 74 101 13
3 0 90 1
3 37 58 0
5 0 58 10 101 72
3 0 6 72
5 96 13 79 90 1
3 1 61 96
3 1 88 10
3 90 79 83
3 44 101 90
3 40 83 61
5 61 39 102 88 40
5 83 61 96 102 79
3 61 6 39
5 83 40 44 102 77
3 40 44 58
3 72 88 40
3 37 83 77
5 44 101 77 37 58
3 96 13 37
3 39 58 10
5 39 6 72 88 10
3 13 79 6
3 77 101 72
3 39 77 102
3 44 102 96
3 88 102 79
3 10 101 13
3 7 16 100
3 96 31 7
3 7 79 9
5 96 7 79 91 19
5 68 16 100 82 12
3 24 68 16
5 16 81 82 9 24
3 16 81 19
3 82 100 85
5 85 31 68 34 100
3 34 100 91
3 31 68 12
3 85 31 83
3 61 24 9
3 61 83 27
5 27 81 102 24 61
3 61 96 19
3 9 82 12
3 12 19 91
5 85 102 34 27 83
3 91 83 79
3 34 68 27
3 24 102 85
3 82 27 81
3 96 34 102
3 79 81 102
3 35 57 0
3 5 37 0
3 6 47 0
5 35 41 75 80 57
5 57 95 41 37 83
3 83 80 57
3 52 95 57
5 61 35 65 80 6
3 35 61 41
3 65 49 35
3 61 69 83
3 6 61 19
3 83 37 91
5 19 91 47 69 5
3 69 5 95
3 65 47 69
5 91 37 5 95 52
3 37 41 75
3 19 49 5
5 6 47 65 49 19
3 75 6 80
3 47 91 52
3 67 41 95
3 65 80 67
3 19 91 67
3 49 75 52
3 1 90 60
5 47 90 1 5 59
3 1 61 9
3 5 53 1
3 65 89 60
3 60 95 33
3 90 31 83
3 54 90 47
3 12 31 5
5 70 83 31 33 95
3 33 87 31
5 9 61 28 65 89
3 61 83 59
3 33 28 61
3 9 47 12
5 87 9 12 28 53
3 89 87 9
3 12 70 28
3 83 89 70
3 95 5 59
3 59 65 47
3 54 70 95
3 53 87 54
3 53 28 65
3 60 57 95
5 60 104 105 80 57
3 57 86 73
5 95 57 73 105 106
5 62 57 86 104 106
3 62 80 57
3 60 89 103
5 67 105 103 60 95
5 60 64 67 80 89
3 64 104 60
5 73 70 95 98 103
3 73 105 103
3 76 73 70
5 86 73 76 106 98
3 64 66 62
5 64 104 108 80 62
5 76 108 86 66 62
3 76 106 62
5 67 107 103 89 70
3 103 107 98
5 64 66 89 108 107
3 67 107 64
5 76 70 66 98 107
3 107 108 76
3 66 70 89
3 80 108 89
3 86 66 98
3 67 95 70
3 108 104 86
3 95 98 106
3 80 67 105
3 105 104 106
3 76 20 107
5 51 66 29 20 76
3 76 23 70
3 76 51 109
5 29 23 76 109 98
5 28 66 99 107 20
3 99 93 107
5 28 26 107 93 70
3 107 26 98
3 20 48 28
5 48 51 99 110 20
3 20 110 29
5 48 111 110 53 71
3 48 71 51
3 54 71 53
5 51 71 29 110 109
3 29 71 23
5 54 71 23 111 109
3 70 28 66
3 29 66 98
3 51 66 99
5 26 98 54 70 23
3 54 70 93
5 93 99 53 28 48
3 26 28 53
3 48 111 93
5 54 53 26 111 93
3 53 110 99
3 54 109 98
3 23 26 111
3 109 110 111
3 64 35 60
3 69 60 89
5 69 60 112 67 59
3 60 112 92
5 64 35 63 80 113
3 64 28 67
3 64 113 99
3 63 46 35
5 49 113 92 46 35
3 59 35 49
3 47 59 69
5 47 69 53 112 93
3 69 53 28
5 63 46 99 113 48
3 63 89 80
3 48 28 63
3 46 47 92
3 53 99 46
5 49 112 92 47 59
3 48 47 93
3 80 67 59
3 93 99 89
3 80 113 92
3 49 113 48
3 53 112 49
3 93 67 112
3 60 64 114
5 69 60 114 96 61
3 40 44 60
3 95 69 60
5 96 44 60 95 41
5 61 28 64 114 24
3 64 28 66
5 24 30 64 66 40
3 30 64 41
3 24 87 114
5 28 69 87 114 26
3 96 114 26
3 32 31 68
3 87 31 69
5 68 31 87 98 26
3 96 44 31
3 61 24 40
3 61 69 28
3 41 96 61
3 32 40 66
5 32 66 98 30 68
3 32 95 41
5 87 24 68 28 66
3 30 68 24
3 26 68 28
3 87 98 66
3 95 98 26
3 44 98 30
3 3 20 62
5 14 3 20 110 42
3 14 71 3
3 3 15 58
5 3 15 110 55 71
5 30 42 66 62 20
3 32 66 62
5 58 32 62 106 30
3 62 106 55
3 30 68 20
3 20 110 56
5 14 71 56 110 17
3 17 68 14
3 66 14 42
3 38 58 32
5 32 23 106 98 38
3 23 68 32
5 58 38 55 106 15
3 42 30 58
3 38 55 71
3 23 56 71
3 17 38 98
5 17 98 56 23 68
3 56 98 66
3 17 110 15
3 23 106 15
3 55 110 42
3 98 30 106
3 1 96 7
5 7 115 112 53 1
3 1 53 8
5 8 1 88 115 116
5 60 1 96 116 112
3 1 60 88
5 16 26 53 87 7
3 16 115 7
3 87 103 7
5 96 7 103 112 26
3 8 24 16
5 16 115 99 53 8
5 24 8 64 99 88
3 8 116 64
5 33 96 102 103 60
3 60 103 112
3 64 33 60
5 88 60 64 116 102
5 16 107 99 87 24
3 26 107 16
5 107 26 33 87 103
3 103 107 102
5 24 102 107 64 33
3 64 99 107
3 33 87 24
3 88 102 24
3 33 96 26
3 99 53 87
3 96 116 102
3 53 112 26
3 88 115 99
3 112 116 115
3 60 64 94
5 94 60 44 102 105
3 88 92 60
3 43 44 60
5 60 92 105 116 43
5 94 64 30 102 108
3 30 64 42
5 42 88 108 113 64
3 64 113 116
3 94 108 86
5 30 44 86 94 106
3 105 94 106
3 44 86 101
3 55 86 42
5 42 86 108 117 30
5 55 106 117 101 86
3 42 10 88
5 92 88 10 116 113
3 88 102 108
5 44 101 105 106 43
3 30 102 44
5 10 117 113 55 42
5 10 101 92 55 43
3 92 113 55
3 101 105 92
3 43 106 55
3 10 117 101
3 10 116 43
3 113 117 108
3 30 117 106
3 102 116 105
3 16 8 20
5 99 42 8 20 113
3 49 53 8
3 10 8 42
5 49 8 10 115 113
5 20 16 118 99 56
3 17 118 16
5 56 111 16 17 53
3 16 111 115
3 29 20 56
5 42 29 20 117 118
3 113 117 20
3 17 97 53
5 53 49 111 115 97
3 56 53 99
3 17 29 15
5 17 29 56 109 118
3 42 55 29
5 55 29 15 117 109
5 109 97 17 15 111
3 42 118 99
5 10 97 55 49 15
3 55 113 49
3 97 109 55
3 10 117 15
3 15 49 111
3 97 115 10
3 111 56 109
3 99 115 113
3 109 117 118
3 7 114 103
5 7 31 69 54 103
5 69 9 7 114 53
3 17 7 31
3 9 84 7
5 17 53 54 84 7
5 33 114 103 89 69
3 89 85 103
5 31 85 103 98 33
3 98 103 54
3 33 114 24
5 89 9 24 114 99
3 53 99 114
3 85 31 50
3 31 69 33
3 14 24 9
3 69 9 89
3 14 50 66
5 17 118 84 50 14
5 99 66 14 24 118
3 17 53 14
5 50 66 98 118 85
3 54 84 50
3 54 69 53
3 85 118 24
3 89 66 99
3 33 98 66
3 99 118 84
3 98 118 17
3 57 94 73
5 38 57 73 101 44
5 40 44 104 94 57
3 40 72 57
5 72 57 55 104 101
3 38 57 55
5 85 44 98 94 73
3 50 85 73
5 50 38 98 109 73
3 101 109 73
5 40 66 94 108 85
3 66 98 94
3 104 94 108
5 108 72 40 42 104
3 42 66 40
3 44 85 40
3 4 50 38
5 51 109 118 4 50
3 51 50 66
3 72 101 4
5 38 55 109 101 4
3 42 4 118
3 72 108 51
3 44 98 38
5 51 108 118 42 66
3 85 108 118
3 51 55 109
3 101 104 44
3 55 104 42
3 98 118 109
3 3 35 63
5 3 35 55 113 75
3 45 75 3
5 3 20 113 51 63
3 29 3 20
3 55 35 57
3 32 45 57
5 55 106 75 45 57
5 106 41 32 57 94
3 80 94 57
3 41 64 35
3 66 64 94
5 41 27 80 94 64
3 64 20 113
3 45 76 51
5 32 29 106 76 45
3 76 106 94
3 20 76 27
3 32 29 66
3 27 41 32
3 66 63 51
3 63 80 27
3 80 113 75
3 55 106 29
3 51 113 55
3 41 75 106
3 76 100 73
5 73 54 98 119 100
3 73 101 86
3 54 73 52
5 73 101 119 106 52
5 56 98 118 100 76
3 56 76 51
5 117 76 51 86 118
3 106 76 117
3 84 118 100
5 56 54 84 100 111
3 100 111 119
3 51 86 55
3 86 118 98
3 54 97 84
3 51 84 74
5 56 110 118 84 51
5 84 74 111 110 97
5 52 111 119 97 54
3 56 98 54
5 74 51 55 110 117
5 52 74 101 97 55
3 55 106 52
3 52 111 74
3 55 97 110
3 101 119 97
3 101 117 74
3 111 56 110
3 106 119 98
3 118 110 117
3 103 100 107
5 54 103 100 91 70
3 89 103 79
3 103 54 112
5 91 67 112 103 79
5 100 82 70 56 107
3 56 107 99
5 82 89 99 107 81
3 67 107 81
3 84 100 82
3 100 91 111
5 48 47 84 115 111
3 54 84 47
3 48 47 65
5 47 91 111 112 54
3 79 47 91
5 47 79 115 112 65
3 70 89 82
5 79 89 65 67 81
3 99 89 65
3 70 91 67
3 56 70 54
5 48 82 84 99 56
3 48 82 81
3 99 115 84
5 65 99 115 81 48
3 48 56 111
3 67 65 112
3 79 81 115
3 115 111 112
3 64 62 20
5 51 108 117 20 62
3 75 62 80
3 51 62 55
5 75 62 55 104 117
5 20 81 108 99 64
3 64 65 99
5 80 65 64 116 81
3 64 116 104
3 48 20 81
3 110 117 20
3 92 80 65
5 80 92 104 116 75
3 80 81 108
3 48 74 51
3 49 48 65
5 49 110 115 74 48
3 51 99 108
5 65 92 115 116 49
5 74 75 49 55 92
3 55 104 92
3 74 115 92
3 55 49 110
3 49 75 116
3 74 75 117
3 99 115 110
3 108 104 117
3 115 81 116
3 103 94 107
5 33 95 94 103 44
3 87 103 54
5 103 54 95 26 119
3 103 44 119
5 33 30 107 94 66
3 26 56 107
5 56 107 118 87 66
3 107 30 118
3 86 94 66
3 95 106 94
5 38 29 106 109 86
3 44 86 38
3 54 38 95
5 106 95 38 44 119
3 29 17 38
5 54 38 17 119 109
3 33 87 66
5 86 118 30 29 66
3 56 29 66
3 33 95 26
3 30 44 33
5 26 56 54 87 17
3 17 118 87
3 118 109 86
3 30 106 29
3 56 109 54
3 26 119 17
3 106 109 119
3 1 114 8
5 69 1 114 112 65
3 5 69 1
5 5 49 112 97 1
3 46 97 1
5 65 28 8 114 99
3 14 8 28
5 110 8 14 46 99
3 49 8 110
3 87 99 114
3 26 114 112
3 14 71 46
3 14 87 17
5 112 54 69 5 26
3 87 54 69
3 69 65 28
3 49 71 5
3 5 26 17
5 71 46 97 110 49
3 65 46 99
3 56 71 54
3 28 56 26
3 54 97 112
3 65 112 49
3 17 110 97
3 99 110 56
3 35 8 42
5 35 65 113 116 8
3 20 28 8
3 8 116 114
3 60 35 65
5 35 41 116 104 60
5 41 33 60 94 67
3 60 94 104
3 33 114 60
5 65 60 114 116 67
3 41 62 35
5 35 42 104 113 62
3 94 66 62
5 30 104 94 62 41
3 20 62 113
3 67 94 107
3 30 107 20
3 107 114 99
5 28 67 107 114 33
3 33 66 28
3 42 66 99
3 30 33 41
3 67 28 65
3 99 113 65
3 41 116 67
3 42 30 104
3 113 104 116
3 60 94 103
5 83 69 60 103 79
3 60 88 40
3 60 69 65
5 79 88 60 65 80
5 70 94 103 85 83
3 85 103 87
5 69 70 93 103 87
3 93 103 79
3 66 70 94
3 80 108 94
3 69 87 9
3 9 82 63
5 99 93 82 9 87
3 79 88 9
3 85 40 83
3 63 66 40
5 63 80 108 88 40
3 69 83 70
3 80 83 79
5 66 63 82 108 99
3 65 80 63
3 87 66 99
3 82 70 93
3 85 108 82
3 88 108 99
3 65 99 93
3 0 5 78
5 0 78 10 97 46
3 0 90 36
3 0 46 35
3 9 78 7
5 5 78 7 97 53
3 7 97 90
3 7 114 96
5 9 46 53 8 78
3 8 78 10
3 8 35 61
5 88 10 8 35 46
5 8 114 88 9 61
3 8 114 53
3 69 60 90
5 43 96 36 90 60
3 35 60 43
3 60 88 114
3 61 69 9
3 36 61 96
3 88 9 46
3 5 69 53
3 36 10 88
3 96 43 5
3 53 97 46
3 43 10 97
3 73 57 90
5 57 59 37 36 90
3 40 32 57
5 36 77 80 57 40
3 57 80 59
3 70 91 73
3 73 77 85
3 90 31 69
3 79 36 90
3 31 37 32
5 69 31 25 91 70
3 31 85 25
3 40 61 36
5 61 27 80 89 40
3 59 69 61
3 27 61 25
3 89 85 40
3 27 70 32
3 70 89 69
3 37 77 36
3 59 37 91
5 27 70 89 85 25
3 79 25 91
3 80 89 79
3 77 27 80
3 60 94 57
3 38 57 32
5 43 106 52 57 38
3 57 52 59
3 33 60 69
3 60 112 43
3 67 94 70
3 98 94 106
3 32 70 23
3 32 33 41
3 69 5 59
3 70 69 54
3 38 5 43
5 59 5 43 112 52
3 23 5 26
3 54 98 38
3 41 67 59
3 33 98 26
3 52 112 54
3 43 41 106
3 23 106 52
3 67 112 26
3 2 78 11
5 71 47 2 78 5
3 50 31 2
3 2 47 91
3 11 68 23
3 48 82 11
3 14 78 9
3 5 78 19
5 50 70 23 68 31
3 5 69 31
3 25 68 31
5 9 14 28 48 82
3 47 69 9
5 9 69 28 19 25
3 82 9 25
3 50 71 14
3 14 28 68
3 82 70 50
3 70 28 69
3 23 71 5
3 48 71 47
3 91 19 25
3 23 70 91
3 48 19 28
3 60 90 103
3 40 33 60
5 40 36 102 104 60
3 43 104 60
5 31 96 119 103 90
3 102 85 103
3 98 103 119
3 31 90 38
3 101 36 90
5 101 90 38 43 119
5 22 119 98 38 31
3 22 85 31
3 33 96 31
3 40 36 58
5 58 30 104 86 40
5 33 40 85 102 30
3 85 40 86
5 43 104 101 36 58
3 96 36 102
5 86 101 22 58 38
3 38 58 43
3 30 58 22
3 86 38 98
5 30 98 86 85 22
3 33 98 30
3 96 43 119
3 22 119 101
3 104 101 86
3 102 104 30
3 7 16 78
3 87 31 7
5 31 5 26 119 7
3 97 119 7
5 78 14 53 110 16
3 26 68 16
5 14 87 118 16 68
3 118 110 16
3 14 78 4
5 15 78 4 97 110
3 15 5 78
3 38 31 5
3 31 68 22
5 4 118 110 29 14
3 14 68 29
3 53 87 14
3 4 38 97
3 4 22 118
5 5 38 97 119 15
3 53 5 26
3 38 98 29
5 29 68 22 118 98
3 98 87 118
3 22 119 15
3 53 97 110
3 29 15 110
3 98 26 119
3 60 103 114
3 60 95 43
3 65 60 92
5 26 67 93 103 114
3 54 103 93
3 103 105 119
3 53 114 26
5 114 53 65 93 115
3 116 115 114
3 54 52 95
5 95 52 105 119 43
3 67 95 26
3 54 97 53
3 49 65 53
3 65 93 67
5 52 92 97 43 49
3 52 105 92
3 97 92 115
3 52 111 49
3 43 49 116
3 43 119 97
3 93 115 111
3 105 116 67
3 111 26 119
3 73 103 90
3 73 50 70
3 73 52 109
5 103 90 69 95 112
3 87 103 98
3 93 103 112
3 69 90 47
5 52 112 97 90 47
3 90 38 97
3 50 38 71
5 50 71 56 109 84
3 84 50 87
3 70 95 69
3 69 87 53
3 52 47 71
3 84 93 47
5 71 52 109 97 38
3 56 71 53
3 38 98 95
3 56 93 70
5 84 87 53 56 93
3 95 112 52
3 97 84 109
3 53 97 112
3 98 56 109
3 8 20 3
5 21 3 20 117 18
3 21 58 3
5 58 3 75 117 10
3 3 6 75
5 8 24 18 81 20
3 61 24 8
5 8 116 81 6 61
3 8 116 10
3 20 27 81
3 30 20 117
5 77 117 30 58 21
3 24 21 18
3 21 77 27
3 36 6 61
5 116 41 61 36 102
3 61 27 41
3 10 58 36
5 75 116 10 36 6
3 77 102 36
3 30 58 41
3 6 81 18
3 24 102 30
5 41 27 77 102 30
3 10 117 18
3 75 116 41
3 77 117 75
3 102 116 81
3 7 114 16
5 16 111 93 84 7
5 79 7 114 112 93
3 84 97 7
3 13 79 7
5 7 97 112 111 13
5 16 114 99 93 81
3 18 16 81
5 18 84 99 110 16
3 111 110 16
3 99 88 114
5 79 81 116 114 88
3 112 116 114
3 18 74 84
3 93 99 84
3 18 10 88
5 99 88 18 81 113
3 88 92 79
5 18 10 110 113 74
5 92 79 13 116 112
3 79 81 93
5 10 97 92 74 13
3 97 112 92
3 74 113 92
3 10 13 116
3 74 111 13
3 97 10 110
3 99 113 110
3 93 111 112
3 116 81 113
3 11 20 76
5 11 76 109 118 22
5 110 20 11 18 118
3 15 22 11
3 11 74 18
5 11 74 109 110 15
5 108 76 20 30 118
3 76 77 108
5 76 77 22 30 106
3 106 109 76
3 20 39 30
5 108 18 39 20 113
3 110 113 20
3 10 18 39
3 75 77 39
5 39 77 108 104 30
5 39 75 113 104 10
3 22 101 77
5 22 15 106 109 101
3 30 118 22
3 108 118 18
5 104 101 77 75 106
5 10 101 74 75 15
3 10 110 15
3 15 106 75
3 101 104 10
3 75 113 74
3 74 109 101
3 104 113 108
3 104 30 106
3 109 110 118
3 2 7 84
5 119 7 2 91 111
3 2 22 11
5 11 111 109 84 2
5 73 109 119 22 2
3 2 91 73
3 16 7 25
5 93 103 7 25 91
3 7 119 103
5 16 118 84 82 11
3 11 111 16
3 11 82 76
3 73 85 103
5 91 73 103 119 34
5 76 34 22 85 73
3 76 109 73
5 25 82 93 107 16
3 16 118 107
5 25 85 103 107 34
3 107 93 103
5 76 107 118 85 82
3 76 34 107
3 82 25 85
3 34 91 25
3 22 118 85
3 82 93 84
3 34 119 22
3 118 109 84
3 93 111 91
3 111 109 119
3 64 20 107
5 64 42 24 39 20
3 41 33 64
5 41 64 104 102 39
3 64 104 42
5 68 20 107 118 24
5 98 33 68 34 107
3 98 118 107
3 34 107 102
3 20 29 68
3 20 117 39
3 41 39 58
5 42 58 39 117 104
5 106 29 58 22 117
3 44 22 58
3 42 29 58
5 104 44 58 41 106
3 33 24 68
3 34 68 22
3 39 102 24
3 42 118 24
5 44 102 34 41 33
3 44 33 98
5 22 34 106 98 44
3 118 117 22
3 29 106 98
3 41 106 34
3 102 104 44
3 106 117 104
3 60 114 1
5 79 36 1 60 92
5 1 9 79 115 114
3 9 46 1
3 10 36 1
5 1 10 115 92 46
5 79 102 114 60 89
3 40 89 60
3 60 104 92
3 102 114 24
3 99 115 114
5 18 115 99 46 9
3 18 24 9
3 79 89 9
3 36 72 40
5 89 40 24 102 108
3 42 40 24
5 92 72 36 10 104
3 79 36 102
5 10 42 46 72 18
3 92 46 72
3 42 99 46
3 72 108 18
5 24 42 99 108 18
3 89 108 99
3 10 115 18
3 92 115 79
3 42 10 104
3 104 102 108
3 0 2 78
5 0 38 97 101 2
3 0 58 38
3 0 46 72
5 84 97 17 78 2
3 50 84 2
3 22 101 2
3 14 78 17
3 10 78 18
3 14 21 50
5 42 14 21 18 118
5 21 50 86 118 22
3 21 58 22
3 21 18 72
3 46 42 14
3 38 50 86
3 42 10 58
3 46 97 84
3 72 86 101
3 17 97 38
3 17 22 118
3 86 118 42
3 84 118 18
3 10 101 97
3 73 100 103
5 83 73 103 44 31
3 77 83 73
3 73 50 86
5 77 22 44 86 73
5 25 100 103 87 31
3 89 87 103
5 89 83 25 102 103
3 102 103 44
3 25 100 82
5 50 87 118 100 82
3 100 118 22
3 31 83 25
3 87 31 50
3 22 31 44
3 21 40 24
5 40 86 108 77 21
3 21 50 82
5 118 24 21 82 108
3 21 77 22
3 83 89 40
3 44 40 86
3 24 102 25
3 87 118 24
3 89 108 82
3 86 118 108
3 77 108 102
3 76 45 62
3 62 66 63
5 113 62 63 72 108
3 55 62 113
5 50 45 76 109 86
3 82 108 76
3 76 56 109
3 45 71 50
5 71 55 109 74 45
3 74 45 72
3 66 50 86
3 82 84 50
3 46 72 63
3 63 48 82
3 46 71 55
5 55 46 72 74 113
3 46 99 84
3 56 71 48
3 72 108 86
3 66 99 56
3 86 109 55
3 74 109 84
3 48 74 113
3 113 99 108
3 1 36 0
3 2 47 0
5 101 36 0 57 92
3 0 38 57
3 7 97 1
3 1 60 69
3 2 7 31
5 7 97 54 47 2
3 2 101 73
3 60 57 92
3 57 83 73
3 7 79 103
3 60 103 44
3 73 103 54
3 83 69 31
3 38 44 31
3 36 83 79
3 54 69 47
3 44 36 101
3 47 92 79
3 38 97 54
3 97 101 92
3 45 57 0
3 6 36 0
3 4 46 0
5 57 45 77 101 86
3 57 40 86
3 80 92 57
3 21 45 77
3 51 74 45
3 40 63 21
5 63 21 18 108 51
3 4 21 18
3 36 88 40
3 80 6 63
3 46 63 51
5 92 88 36 6 80
3 77 36 101
5 18 74 51 46 4
3 4 101 86
3 6 74 18
3 46 92 88
3 86 108 51
3 80 77 108
3 88 108 18
3 74 92 101
3 3 78 8
5 71 3 78 4 46
3 21 63 3
3 3 29 71
5 9 24 8 28 63
3 42 8 24
3 53 28 8
3 12 78 9
3 17 78 4
3 21 4 50
5 21 50 66 29 68
3 21 24 68
3 63 9 46
3 87 9 24
3 50 71 12
3 12 68 28
3 66 50 87
3 63 28 66
3 42 46 4
3 46 71 53
3 17 29 68
3 42 29 66
3 53 87 17
3 1 8 35
5 35 59 6 36 1
3 1 9 69
3 36 1 96
3 8 24 39
3 8 19 28
3 40 63 35
3 41 59 35
3 9 6 63
3 24 9 25
3 36 83 40
5 27 41 33 40 83
3 33 40 24
3 69 59 83
3 25 27 83
3 33 28 69
3 28 63 27
3 39 6 36
3 19 59 6
3 96 19 25
3 39 41 27
3 96 41 33
3 1 90 69
5 92 112 43 1 90
3 43 35 1
3 1 114 88
3 90 57 92
3 35 57 40
5 92 57 35 43 104
3 95 94 57
3 44 103 90
3 89 103 94
3 103 114 112
3 65 64 35
5 64 35 40 88 104
3 94 104 64
3 64 33 114
5 89 65 64 114 88
3 89 88 40
3 44 40 33
3 65 89 69
3 33 95 69
3 43 112 95
3 88 104 92
3 65 112 92
3 43 104 44
3 62 57 45
5 58 37 45 57 38
3 57 40 83
3 38 57 95
5 27 62 66 40 21
3 29 66 62
3 62 27 41
3 45 21 50
3 23 45 37
3 83 37 31
3 38 31 50
3 33 31 68
3 40 21 58
3 21 68 27
3 66 40 33
3 70 27 83
3 66 50 70
3 41 58 37
3 29 58 38
3 23 29 68
3 95 23 70
3 95 33 41
3 62 35 57
3 38 57 86
3 57 92 52
3 29 106 62
3 51 113 62
3 42 46 35
3 43 35 49
3 46 71 51
5 46 42 110 113 51
3 92 46 97
3 38 29 71
3 49 71 52
3 43 38 97
3 51 109 86
3 86 42 104
3 29 42 110
3 92 104 113
3 106 52 109
3 49 110 113
3 110 97 109
3 106 43 104
3 57 94 62
5 77 105 94 57 83
3 57 59 83
3 72 57 92
5 57 92 105 75 59
5 27 62 94 108 77
3 63 62 27
3 75 113 62
3 89 94 108
3 94 105 67
5 67 59 83 79 105
3 79 83 89
3 83 27 77
3 72 6 63
5 65 113 81 6 63
5 63 89 108 81 27
3 63 89 65
5 92 113 75 6 72
3 59 75 6
3 79 6 81
3 72 77 108
3 65 67 59
3 67 27 81
3 65 113 92
3 77 75 105
3 79 105 92
3 108 113 81
3 11 3 20
3 3 6 63
5 6 3 49 113 74
3 49 71 3
5 20 56 51 82 11
3 11 82 12
5 12 11 111 56 71
3 74 11 111
3 20 56 28
3 20 113 81
3 47 71 12
5 19 111 93 47 12
3 19 28 12
3 65 28 63
3 63 51 82
3 74 6 47
3 19 6 81
5 47 71 49 111 74
3 93 47 65
3 56 71 51
5 65 93 81 19 28
3 82 81 93
3 51 74 113
3 49 113 65
3 49 19 111
3 93 56 111
3 73 57 45
3 59 95 57
3 55 57 92
5 23 106 109 73 45
3 91 105 73
3 73 109 54
3 45 71 23
3 74 45 75
3 54 71 47
3 59 47 91
3 74 47 92
3 49 55 71
5 91 105 112 95 59
3 59 49 75
3 95 112 54
3 95 106 23
3 23 111 91
3 92 105 112
3 106 109 55
3 112 111 49
3 109 74 111
3 106 105 75
3 1 78 5
3 90 36 1
3 46 35 1
3 4 78 2
3 2 47 90
3 2 45 37
3 6 78 3
3 3 58 35
5 35 3 6 72 46
3 3 45 71
3 38 57 90
3 59 35 57
3 57 45 72
3 36 58 37
3 72 6 36
3 59 37 5
3 4 58 38
3 4 46 72
3 38 5 71
3 59 6 47
3 46 71 47
3 16 114 8
3 61 39 8
3 14 42 8
5 18 88 42 8 39
5 16 114 87 9 25
3 25 68 16
3 18 118 16
3 33 114 87
5 61 33 114 102 25
3 88 114 102
3 21 68 14
3 21 40 85
5 21 68 30 118 85
3 39 18 21
3 9 25 61
3 61 33 40
3 14 87 9
3 18 88 9
3 40 88 42
3 33 68 30
3 25 102 85
3 85 87 118
3 39 30 102
3 42 30 118
3 3 62 35
3 14 21 3
3 3 6 48
3 62 66 51
3 62 27 80
3 40 61 35
3 46 35 65
3 21 72 40
3 21 82 27
3 6 61 9
3 27 61 28
3 14 9 46
3 82 89 9
3 14 66 28
3 66 40 89
3 80 6 72
3 46 72 51
3 80 89 65
3 48 28 65
3 51 82 48
3 2 100 11
5 31 2 100 119 17
3 37 31 2
5 119 15 37 2 101
3 4 101 2
5 17 68 11 100 118
3 21 11 68
5 21 4 118 117 11
3 15 117 11
3 100 118 85
3 34 119 100
5 31 37 34 119 44
3 17 31 68
3 85 44 31
3 4 58 21
3 21 85 77
3 15 37 58
3 37 34 77
5 58 15 117 101 4
3 44 58 30
3 17 4 118
3 30 68 34
5 44 30 34 77 85
3 17 15 119
3 101 119 44
3 101 77 117
3 117 118 30
3 1 114 7
5 61 1 114 116 19
3 61 36 1
5 43 116 13 36 1
3 1 43 5
5 26 19 25 7 114
3 25 31 7
3 7 119 13
3 33 114 26
3 116 102 114
3 5 37 31
3 33 44 31
3 19 25 61
3 61 33 41
3 36 13 37
3 44 102 36
5 37 13 119 43 5
3 41 37 34
3 5 26 19
3 34 25 102
3 13 116 19
3 43 116 41
3 43 119 44
3 34 119 26
3 79 90 7
5 90 7 119 112 54
5 87 7 100 93 54
3 100 7 119
3 87 114 7
3 44 90 60
5 79 90 60 112 105
3 89 94 60
3 60 112 114
3 73 90 54
5 90 44 119 105 73
3 94 105 73
3 73 100 85
3 94 107 98
5 89 94 107 102 85
3 107 100 93
5 85 87 98 107 100
5 87 89 93 107 114
3 102 114 107
3 87 85 89
3 79 89 93
3 85 102 44
3 87 98 54
3 54 112 93
3 98 119 44
3 102 79 105
3 105 119 112
3 7 1 90
3 46 53 1
3 10 43 1
3 7 115 84
3 7 119 17
3 54 90 38
3 92 101 90
3 4 46 84
5 46 4 10 110 55
3 17 38 4
5 4 17 110 109 84
3 4 101 10
5 53 46 84 115 110
3 46 92 55
3 43 55 38
3 54 109 84
3 54 112 53
3 53 110 17
3 112 115 92
3 110 109 55
3 115 110 10
3 101 119 109
3 43 119 112
3 2 78 7
5 15 111 74 2 78
3 2 91 37
3 74 2 101
5 7 78 19 111 115
3 7 119 96
3 7 115 79
3 6 78 19
5 78 10 115 74 6
3 15 78 10
3 37 96 36
5 36 101 105 75 37
3 79 6 36
5 36 96 116 105 79
3 10 36 101
5 96 37 91 105 119
3 37 15 75
5 6 79 115 116 19
3 74 6 75
3 96 116 19
3 19 111 91
3 79 105 91
3 111 15 119
3 115 10 116
3 111 74 115
3 116 105 75
3 101 119 105
3 90 103 7
3 7 25 9
5 7 115 93 47 9
3 13 115 7
5 91 105 103 90 83
3 89 93 103
3 105 102 103
3 83 36 90
5 92 105 13 36 90
3 92 47 90
3 9 6 47
5 9 6 81 115 88
5 25 9 89 93 81
3 88 89 9
5 80 83 36 102 105
3 83 91 25
3 83 89 80
3 13 6 36
3 88 102 36
5 6 47 92 115 13
3 80 81 6
3 91 93 47
3 81 102 25
5 80 89 88 102 81
3 92 105 80
3 92 115 88
3 91 13 105
3 115 93 81
3 76 107 94
5 86 94 76 77 85
3 51 82 76
3 77 117 76
3 107 118 99
3 81 107 102
3 94 80 89
3 86 104 94
5 80 77 102 104 94
3 51 86 72
5 72 77 117 104 86
5 72 80 113 104 88
3 77 80 72
3 18 72 88
5 113 51 72 18 117
3 82 85 89
3 88 99 89
3 86 118 85
3 77 102 85
5 82 18 118 99 51
3 18 82 81
3 80 81 113
3 102 104 88
3 99 113 51
3 117 18 118
3 113 104 117
3 2 100 7
5 2 50 54 109 100
3 2 50 4
5 97 4 2 74 109
3 2 47 74
3 7 87 9
3 115 97 7
3 93 100 82
3 109 100 118
3 47 9 46
3 9 82 18
3 54 87 50
3 51 82 50
3 97 46 4
3 18 118 4
5 46 97 115 74 47
3 51 46 99
3 54 47 93
3 87 118 99
3 97 109 54
3 51 109 74
3 74 18 115
3 99 93 115
3 7 78 17
3 7 100 25
5 17 7 100 111 26
3 7 114 115
3 18 11 78
5 17 110 111 11 78
3 20 11 68
3 100 11 111
3 19 8 78
5 110 8 78 18 115
3 20 8 110
3 114 8 24
5 8 114 115 81 19
3 20 81 107
5 107 26 68 25 100
3 118 107 100
3 26 114 107
5 81 25 24 114 107
3 24 68 25
3 17 68 26
3 18 118 24
3 81 19 25
3 26 111 19
3 18 115 81
3 110 118 17
3 111 115 110
3 57 90 60
5 57 52 105 101 90
3 72 80 57
3 55 52 57
3 60 104 88
3 60 65 112
3 47 90 79
3 90 97 101
3 46 65 47
3 88 46 72
5 46 65 113 115 88
3 46 97 55
3 52 47 74
3 74 72 101
3 65 113 80
3 80 105 79
3 88 79 115
3 52 112 105
3 113 104 55
3 112 97 115
3 113 74 115
3 104 101 105
3 60 35 1
5 1 10 116 49 35
3 5 1 96
3 1 10 97
3 60 112 95
3 44 104 60
3 41 35 58
5 35 58 10 104 55
3 55 35 49
3 44 58 38
3 10 58 15
3 38 5 95
5 95 5 96 119 112
3 5 15 49
3 55 38 97
3 41 116 96
3 96 119 44
3 41 106 95
3 104 55 106
3 15 119 106
3 116 10 104
3 49 116 112
3 97 119 112
3 8 35 64
3 14 24 8
3 8 10 110
3 64 99 66
3 64 30 104
3 40 58 35
3 55 35 46
3 14 46 4
3 14 66 29
3 24 88 40
3 86 40 66
3 4 10 58
3 30 58 29
3 86 118 4
3 88 99 46
3 24 30 118
3 86 104 55
3 10 104 88
3 55 110 29
3 99 118 110
3 107 114 64
3 64 66 42
3 64 65 113
3 93 56 107
3 107 118 108
3 87 53 114
3 88 114 115
3 51 84 46
3 53 65 46
3 46 88 42
3 87 89 66
3 88 108 89
3 65 89 93
3 56 66 51
3 84 118 87
3 93 115 84
3 53 56 110
3 113 51 108
3 42 118 110
3 113 110 115
3 90 2 101
3 45 2 50
5 45 52 109 101 2
3 2 100 91
3 83 57 90
3 45 57 52
3 86 94 57
3 54 103 90
3 105 103 94
3 85 103 100
3 77 45 76
3 76 94 70
5 76 100 85 50 70
3 76 100 109
3 83 70 91
3 83 85 77
3 50 70 54
3 85 86 50
3 101 86 109
3 52 91 105
3 54 109 52
3 77 105 101
3 11 100 76
3 18 21 11
3 12 11 48
5 51 84 18 11 48
3 27 76 70
5 27 76 108 85 21
3 76 108 51
3 25 100 85
5 70 12 25 100 93
3 84 100 93
3 21 50 85
3 27 63 21
3 12 25 9
3 63 9 89
3 9 84 18
3 50 70 12
3 50 84 51
3 51 63 48
3 25 27 81
3 89 93 70
3 85 108 89
3 48 81 93
3 81 108 18
3 2 100 73
5 111 23 12 2 100
3 12 2 47
3 13 37 2
5 2 47 52 111 13
5 34 100 73 70 23
3 83 73 70
5 37 83 73 105 34
3 73 52 105
3 34 25 100
3 93 100 111
3 12 19 25
3 12 23 70
3 83 37 59
3 25 79 83
5 37 59 52 105 13
3 23 34 37
3 52 59 47
3 47 93 79
3 19 67 59
5 67 93 79 25 19
3 70 93 67
3 13 19 111
3 23 111 52
3 13 105 79
3 34 105 67
3 9 78 1
5 78 1 97 115 13
3 90 1 97
3 1 114 96
3 13 2 78
3 2 90 31
5 90 2 13 119 97
3 84 100 2
3 16 78 17
5 78 16 115 84 9
3 16 100 25
5 84 87 17 16 100
3 16 114 115
3 79 103 90
3 100 119 103
3 87 114 103
5 25 79 103 114 96
3 31 96 25
3 31 87 17
3 9 25 79
3 84 9 87
3 96 119 13
3 97 84 115
3 17 119 97
3 13 115 79
3 16 78 11
3 21 11 82
3 74 117 11
3 16 24 118
3 81 115 16
3 9 6 78
3 10 78 4
3 4 72 21
5 21 39 117 108 72
3 24 39 21
3 24 9 88
3 84 9 82
5 10 4 72 74 117
3 84 118 4
3 74 6 72
3 81 6 39
3 72 108 88
5 24 39 81 108 88
3 82 108 81
3 10 117 39
3 84 115 74
3 88 115 10
3 108 118 117
3 10 78 1
3 61 35 1
3 53 1 114
3 3 78 14
5 78 3 49 110 10
3 3 35 49
3 39 3 20
3 16 78 19
3 20 16 110
3 24 16 114
5 53 28 19 16 114
3 42 64 35
5 35 61 39 116 64
3 28 64 20
3 114 116 64
3 39 24 61
3 61 28 19
3 24 42 14
3 28 53 14
3 10 39 116
3 49 110 53
3 19 116 49
3 10 110 42
3 12 78 2
3 2 74 45
3 22 2 100
3 3 78 15
3 3 45 21
5 15 117 74 45 3
3 48 3 20
3 18 78 16
5 111 48 12 78 16
3 16 68 20
5 16 20 48 82 18
3 100 111 16
3 45 76 23
5 21 45 76 117 22
3 20 76 117
3 82 76 100
5 23 68 22 100 76
3 21 22 68
3 82 21 18
3 12 23 68
3 48 82 12
3 15 117 22
3 48 111 74
3 74 117 18
3 23 111 15
3 73 76 45
3 85 83 73
3 73 101 105
3 27 76 34
3 76 117 108
3 21 72 45
3 37 45 75
5 45 72 101 117 75
3 21 85 22
3 27 39 21
3 36 37 83
3 80 27 83
3 72 101 36
3 39 102 36
3 34 37 22
3 80 108 72
3 85 108 102
5 27 80 108 102 39
3 75 39 117
3 101 22 117
3 75 105 80
3 102 105 34
3 1 8 78
3 88 1 36
3 1 97 43
3 39 116 8
3 42 8 110
3 4 78 18
3 13 78 15
3 36 58 39
5 104 88 36 39 116
3 36 101 13
3 42 58 4
3 15 58 43
5 4 42 110 117 18
3 4 101 97
3 18 39 117
3 88 18 115
3 42 104 88
5 13 101 97 43 15
3 110 117 15
3 115 13 116
3 97 110 115
3 101 117 104
3 43 104 116
3 16 107 100
3 18 24 16
3 16 110 17
3 108 99 107
5 24 30 107 108 85
3 98 30 107
3 85 100 22
5 22 17 98 109 100
3 84 100 109
5 22 117 109 86 4
3 17 22 4
3 4 86 42
3 18 84 4
3 87 24 85
3 30 42 24
3 85 108 86
3 87 99 84
3 17 98 87
3 22 117 30
3 98 109 86
3 117 18 108
3 99 110 42
3 109 117 110
3 2 90 73
3 4 22 2
3 2 13 74
3 73 109 86
3 77 105 73
3 36 90 44
3 90 92 97
3 77 36 72
5 105 77 36 44 104
3 10 36 13
3 86 4 72
3 4 97 10
3 74 92 72
3 22 119 44
3 22 117 77
3 86 44 104
3 105 92 104
3 119 13 105
3 10 104 117
3 97 119 109
3 117 109 74
3 7 100 103
3 13 7 96
3 17 97 7
5 98 26 34 100 103
3 44 103 98
5 105 34 96 44 103
3 105 112 103
3 34 100 22
3 111 109 100
3 43 44 96
5 96 13 105 112 43
3 26 96 34
3 17 22 15
3 22 101 44
3 26 98 17
3 15 13 111
3 15 106 43
3 13 105 101
3 109 101 97
3 43 112 97
3 98 106 109
3 105 34 106
3 26 112 111
3 107 114 103
3 85 103 44
3 103 105 79
3 107 108 81
3 30 34 107
3 24 114 88
3 114 116 96
3 39 36 77
3 36 44 96
3 79 88 36
3 25 85 24
3 30 39 24
3 25 96 34
3 79 25 81
3 85 108 77
3 81 116 39
3 108 104 88
3 44 30 104
3 77 34 105
3 104 116 105
3 20 107 16
3 16 25 19
5 19 48 93 115 16
3 18 115 16
5 27 20 107 108 82
3 67 107 93
5 27 67 107 102 25
3 107 108 102
3 27 39 20
3 48 20 113
5 6 80 113 116 39
3 18 39 6
3 79 80 6
3 6 48 19
5 18 115 113 48 6
3 27 82 25
3 79 102 25
3 27 80 67
3 48 82 93
3 82 108 18
3 102 39 116
5 80 67 116 102 79
3 108 113 80
3 19 116 67
3 79 115 93
3 115 113 116
3 2 45 11
3 2 47 84
3 2 101 13
5 51 109 117 11 45
3 11 111 48
3 11 117 18
3 51 45 72
3 52 75 45
3 47 48 6
3 18 6 72
3 6 75 13
3 52 92 47
3 72 101 92
3 51 109 84
3 84 18 115
3 48 51 113
5 52 75 13 101 92
3 113 115 92
3 109 52 111
3 111 13 115
3 113 75 117
3 117 109 101
3 16 81 20
5 16 100 93 56 26
3 100 118 16
3 16 114 26
3 94 103 98
5 67 34 102 103 94
3 103 100 93
3 103 114 102
3 67 64 94
3 20 30 64
3 99 114 64
5 64 114 102 81 67
3 94 108 76
5 76 34 30 98 94
3 20 56 76
3 76 100 34
3 93 99 56
3 26 98 56
3 118 108 99
3 81 93 67
3 26 67 34
3 102 81 108
3 98 118 30
3 34 30 102
3 73 103 94
5 73 94 106 34 77
3 52 91 73
3 73 101 77
3 79 103 102
3 103 112 119
3 67 94 80
3 106 94 104
3 75 77 80
3 79 80 92
3 79 13 91
5 91 13 119 112 52
3 67 91 34
3 77 34 102
3 92 52 112
3 101 92 104
3 52 106 75
3 75 116 13
3 13 119 101
3 67 116 112
3 106 34 119
3 116 104 102
3 23 45 11
3 20 11 117
3 11 82 100
5 56 23 11 100 109
3 73 77 45
3 73 94 70
3 100 109 73
3 51 45 62
5 62 106 117 77 45
3 62 94 106
3 27 62 20
3 108 107 94
5 94 70 27 34 107
3 56 107 20
3 100 34 107
3 27 82 70
3 56 70 23
3 34 77 27
3 51 108 82
3 56 109 51
3 108 77 117
3 23 106 34
3 117 109 106
3 11 76 45
5 11 68 29 56 76
3 12 11 68
3 15 111 11
3 56 76 70
3 76 34 106
3 32 45 37
5 37 45 52 106 15
3 52 45 71
3 5 71 12
5 12 5 26 111 91
3 12 91 70
5 106 95 32 37 34
3 32 68 29
3 32 70 95
3 15 37 5
3 91 37 34
5 15 111 52 71 5
3 95 5 26
3 56 71 29
3 34 68 26
5 34 26 95 70 91
3 95 106 52
3 15 29 106
3 91 111 52
3 26 111 56
3 64 94 107
5 27 28 64 107 81
3 65 28 64
3 64 116 41
3 93 81 107
3 26 34 107
3 94 70 95
5 41 95 94 105 34
3 94 105 80
3 59 41 95
3 59 80 65
5 105 80 59 41 116
3 19 91 59
5 59 19 116 112 65
3 28 70 27
3 93 91 70
3 80 27 81
3 34 27 41
3 26 28 19
3 95 112 26
5 19 91 93 112 26
3 91 34 105
3 93 65 112
3 81 19 116
3 112 105 116
3 3 62 45
5 39 117 113 62 3
3 3 39 6
3 15 49 3
3 62 113 80
3 41 106 62
3 77 37 45
3 45 74 52
3 41 37 59
5 105 77 37 41 106
3 15 37 13
3 59 6 80
5 59 6 13 116 49
3 13 6 74
3 49 59 52
3 41 116 39
3 77 39 117
3 77 105 80
5 15 49 52 74 13
3 106 105 52
3 15 117 106
3 116 13 105
3 49 116 113
3 117 113 74
3 16 78 8
5 16 81 48 28 8
3 8 28 61
3 8 116 49
3 25 16 81
3 26 111 16
3 12 5 78
5 49 111 13 78 5
3 13 78 6
3 61 6 59
5 59 67 116 96 61
3 61 96 25
3 12 91 25
3 28 48 12
3 49 59 5
3 96 5 26
3 81 6 48
3 91 59 67
5 96 26 67 91 25
3 26 67 28
3 13 116 96
3 48 49 111
3 91 111 13
3 81 67 116
3 3 11 78
5 3 11 117 110 29
3 29 58 3
3 3 75 49
3 11 117 22
3 23 111 11
3 5 78 17
3 13 78 10
3 22 37 58
5 37 58 43 106 75
3 23 37 5
5 23 37 22 119 106
3 75 13 37
3 43 58 10
5 5 17 119 111 23
3 49 43 5
3 17 22 119
3 17 110 29
3 29 106 23
5 13 75 49 43 10
3 119 13 111
3 117 110 10
3 111 110 49
3 117 75 106
3 106 119 43
3 64 35 62
5 30 64 62 27 39
3 27 62 32
3 62 106 75
3 33 64 30
3 67 116 64
3 59 35 61
3 35 58 43
5 35 59 75 116 43
3 61 39 27
3 61 96 33
3 32 58 37
3 33 95 32
3 75 37 59
3 96 34 37
3 30 58 39
3 67 59 95
3 27 67 34
5 67 95 33 96 34
3 75 116 39
3 96 43 116
3 95 106 43
3 30 106 34
3 64 8 114
5 8 39 81 113 64
3 10 39 8
3 19 49 8
3 64 41 67
3 104 113 64
3 102 114 96
5 96 19 67 112 114
3 112 115 114
3 41 75 39
3 39 81 102
3 13 96 19
3 43 96 41
5 67 41 96 102 105
5 19 49 112 115 13
3 19 67 81
5 41 43 104 105 75
3 13 115 10
3 75 13 105
3 10 104 43
3 75 113 49
3 49 112 43
3 67 105 112
3 104 102 105
3 113 81 115
3 76 62 94
5 62 29 30 117 76
3 55 29 62
3 62 75 41
3 23 34 76
3 109 76 117
3 95 98 94
3 104 94 105
3 43 41 95
3 52 95 23
5 98 95 23 34 119
3 29 23 15
3 30 98 29
3 34 41 30
5 52 109 119 15 23
5 55 43 15 75 52
3 55 109 52
3 52 105 75
3 55 43 104
3 15 75 117
3 43 15 119
3 98 109 119
3 105 34 119
3 30 104 117
3 107 16 114
5 16 68 28 56 107
3 17 68 16
3 19 111 16
3 56 107 98
3 67 107 34
3 96 33 114
3 53 112 114
3 5 96 19
3 23 95 5
5 53 5 19 111 112
3 5 17 53
3 28 68 33
3 34 68 23
3 98 95 33
3 56 53 28
3 67 28 19
3 96 34 119
3 67 112 95
3 17 119 98
3 56 111 23
3 111 112 119
3 3 8 35
5 3 48 113 110 8
3 48 71 3
3 3 75 15
3 53 8 110
3 8 116 19
3 59 35 65
3 43 35 55
3 5 71 53
3 19 5 59
3 15 5 43
3 52 55 71
3 75 59 52
3 48 65 113
3 19 111 48
3 53 65 112
3 52 112 111
3 55 110 113
3 110 15 111
3 113 116 75
3 116 43 112
3 107 100 76
5 76 27 68 30 107
3 77 27 76
3 76 106 23
3 67 107 26
3 102 30 107
3 100 25 91
3 100 22 119
5 100 91 23 26 119
3 37 96 41
3 37 22 77
3 37 91 23
3 27 68 25
3 30 68 22
3 26 68 23
3 96 102 25
3 67 27 41
3 26 119 96
3 91 105 67
3 41 106 30
3 102 105 77
3 106 119 105
3 11 16 100
5 11 48 56 110 16
3 74 48 11
3 11 23 15
3 16 26 19
3 115 16 110
3 91 100 93
3 119 100 109
3 48 49 19
3 48 56 93
3 13 91 19
3 52 91 23
3 26 56 23
3 52 112 49
3 74 109 52
3 15 119 13
3 15 110 49
3 74 13 115
3 109 56 110
3 93 115 112
3 26 119 112
3 11 48 3
3 8 39 3
3 3 62 29
3 11 16 68
3 11 117 76
3 8 110 16
3 64 8 28
3 64 113 62
3 62 27 76
3 16 107 81
3 64 107 30
3 76 56 107
3 27 28 68
3 30 29 68
3 81 27 39
3 56 48 28
3 39 117 30
3 81 113 48
3 29 110 56
3 117 113 110

# Cells
32 0 1 2 3 4 5 6 7 8 9 10 11 12 13 14 15 16 17 18 19 20 21 22 23 24 25 26 27 28 29 30 31
32 20 32 33 34 35 36 37 38 39 40 41 42 43 44 45 46 47 48 49 50 51 52 53 54 55 56 57 58 59 60 61 62
32 4 52 63 64 65 66 67 68 69 70 71 72 73 74 75 76 77 78 79 80 81 82 83 84 85 86 87 88 89 90 91 92
32 93 94 95 96 97 98 99 100 101 102 103 104 105 106 107 108 109 110 111 112 113 114 115 116 117 118 119 120 121 122 123 124
32 94 125 126 127 128 129 130 131 132 133 134 135 136 137 138 139 140 141 142 143 144 145 146 147 148 149 150 151 152 153 154 155
32 107 142 156 157 158 159 160 161 162 163 164 165 166 167 168 169 170 171 172 173 174 175 176 177 178 179 180 181 182 183 184 185
32 186 187 188 189 190 191 192 193 194 195 196 197 198 199 200 201 202 203 204 205 206 207 208 209 210 211 212 213 214 215 216 217
32 189 218 219 220 221 222 223 224 225 226 227 228 229 230 231 232 233 234 235 236 237 238 239 240 241 242 243 244 245 246 247 248
32 208 232 249 250 251 252 253 254 255 256 257 258 259 260 261 262 263 264 265 266 267 268 269 270 271 272 273 274 275 276 277 278
32 279 280 281 282 283 284 285 286 287 288 289 290 291 292 293 294 295 296 297 298 299 300 301 302 303 304 305 306 307 308 309 310
32 300 311 312 313 314 315 316 317 318 319 320 321 322 323 324 325 326 327 328 329 330 331 332 333 334 335 336 337 338 339 340 341
32 297 326 342 343 344 345 346 347 348 349 350 351 352 353 354 355 356 357 358 359 360 361 362 363 364 365 366 367 368 369 370 371
32 187 283 372 373 374 375 376 377 378 379 380 381 382 383 384 385 386 387 388 389 390 391 392 393 394 395 396 397 398 399 400 401
32 110 206 389 402 403 404 405 406 407 408 409 410 411 412 413 414 415 416 417 418 419 420 421 422 423 424 425 426 427 428 429 430
32 95 285 373 403 431 432 433 434 435 436 437 438 439 440 441 442 443 444 445 446 447 448 449 450 451 452 453 454 455 456 457 458
32 3 47 221 270 459 460 461 462 463 464 465 466 467 468 469 470 471 472 473 474 475 476 477 478 479 480 481 482 483 484 485 486
32 45 66 126 174 487 488 489 490 491 492 493 494 495 496 497 498 499 500 501 502 503 504 505 506 507 508 509 510 511 512 513 514
32 10 80 318 362 515 516 517 518 519 520 521 522 523 524 525 526 527 528 529 530 531 532 533 534 535 536 537 538 539 540 541 542
32 128 346 543 544 545 546 547 548 549 550 551 552 553 554 555 556 557 558 559 560 561 562 563 564 565 566 567 568 569 570 571 572
32 108 146 449 558 573 574 575 576 577 578 579 580 581 582 583 584 585 586 587 588 589 590 591 592 593 594 595 596 597 598 599 600
32 301 353 432 546 586 601 602 603 604 605 606 607 608 609 610 611 612 613 614 615 616 617 618 619 620 621 622 623 624 625 626 627
32 33 157 250 460 488 628 629 630 631 632 633 634 635 636 637 638 639 640 641 642 643 644 645 646 647 648 649 650 651 652 653 654
32 14 224 329 467 533 655 656 657 658 659 660 661 662 663 664 665 666 667 668 669 670 671 672 673 674 675 676 677 678 679 680 681
32 219 317 659 682 683 684 685 686 687 688 689 690 691 692 693 694 695 696 697 698 699 700 701 702 703 704 705 706 707 708 709 710
32 1 315 524 671 683 711 712 713 714 715 716 717 718 719 720 721 722 723 724 725 726 727 728 729 730 731 732 733 734 735 736 737
32 18 231 471 678 690 722 738 739 740 741 742 743 744 745 746 747 748 749 750 751 752 753 754 755 756 757 758 759 760 761 762 763
32 96 169 190 265 420 630 764 765 766 767 768 769 770 771 772 773 774 775 776 777 778 779 780 781 782 783 784 785 786 787 788 789
32 111 132 292 349 435 551 595 606 790 791 792 793 794 795 796 797 798 799 800 801 802 803 804 805 806 807 808 809 810 811 812 813
32 814 815 816 817 818 819 820 821 822 823 824 825 826 827 828 829 830 831 832 833 834 835 836 837 838 839 840 841 842 843 844 845
32 836 846 847 848 849 850 851 852 853 854 855 856 857 858 859 860 861 862 863 864 865 866 867 868 869 870 871 872 873 874 875 876
32 117 423 438 579 822 869 877 878 879 880 881 882 883 884 885 886 887 888 889 890 891 892 893 894 895 896 897 898 899 900 901 902
32 78 144 499 555 903 904 905 906 907 908 909 910 911 912 913 914 915 916 917 918 919 920 921 922 923 924 925 926 927 928 929 930
32 137 166 507 923 931 932 933 934 935 936 937 938 939 940 941 942 943 944 945 946 947 948 949 950 951 952 953 954 955 956 957 958
32 959 960 961 962 963 964 965 966 967 968 969 970 971 972 973 974 975 976 977 978 979 980 981 982 983 984 985 986 987 988 989 990
32 976 991 992 993 994 995 996 997 998 999 1000 1001 1002 1003 1004 1005 1006 1007 1008 1009 1010 1011 1012 1013 1014 1015 1016 1017 1018 1019 1020 1021
32 970 1012 1022 1023 1024 1025 1026 1027 1028 1029 1030 1031 1032 1033 1034 1035 1036 1037 1038 1039 1040 1041 1042 1043 1044 1045 1046 1047 1048 1049 1050 1051
32 368 556 612 1052 1053 1054 1055 1056 1057 1058 1059 1060 1061 1062 1063 1064 1065 1066 1067 1068 1069 1070 1071 1072 1073 1074 1075 1076 1077 1078 1079 1080
32 618 1073 1081 1082 1083 1084 1085 1086 1087 1088 1089 1090 1091 1092 1093 1094 1095 1096 1097 1098 1099 1100 1101 1102 1103 1104 1105 1106 1107 1108 1109 1110
32 99 161 407 767 847 881 1111 1112 1113 1114 1115 1116 1117 1118 1119 1120 1121 1122 1123 1124 1125 1126 1127 1128 1129 1130 1131 1132 1133 1134 1135 1136
32 827 1006 1137 1138 1139 1140 1141 1142 1143 1144 1145 1146 1147 1148 1149 1150 1151 1152 1153 1154 1155 1156 1157 1158 1159 1160 1161 1162 1163 1164 1165 1166
32 832 1147 1167 1168 1169 1170 1171 1172 1173 1174 1175 1176 1177 1178 1179 1180 1181 1182 1183 1184 1185 1186 1187 1188 1189 1190 1191 1192 1193 1194 1195 1196
32 829 856 1157 1192 1197 1198 1199 1200 1201 1202 1203 1204 1205 1206 1207 1208 1209 1210 1211 1212 1213 1214 1215 1216 1217 1218 1219 1220 1221 1222 1223 1224
32 979 1001 1038 1225 1226 1227 1228 1229 1230 1231 1232 1233 1234 1235 1236 1237 1238 1239 1240 1241 1242 1243 1244 1245 1246 1247 1248 1249 1250 1251 1252 1253
32 131 566 587 913 942 1247 1254 1255 1256 1257 1258 1259 1260 1261 1262 1263 1264 1265 1266 1267 1268 1269 1270 1271 1272 1273 1274 1275 1276 1277 1278 1279
32 851 936 1023 1230 1259 1280 1281 1282 1283 1284 1285 1286 1287 1288 1289 1290 1291 1292 1293 1294 1295 1296 1297 1298 1299 1300 1301 1302 1303 1304 1305 1306
32 307 385 439 613 1091 1307 1308 1309 1310 1311 1312 1313 1314 1315 1316 1317 1318 1319 1320 1321 1322 1323 1324 1325 1326 1327 1328 1329 1330 1331 1332 1333
32 64 348 520 544 904 1054 1334 1335 1336 1337 1338 1339 1340 1341 1342 1343 1344 1345 1346 1347 1348 1349 1350 1351 1352 1353 1354 1355 1356 1357 1358 1359
32 200 233 286 324 381 668 697 1360 1361 1362 1363 1364 1365 1366 1367 1368 1369 1370 1371 1372 1373 1374 1375 1376 1377 1378 1379 1380 1381 1382 1383 1384
32 115 139 177 582 867 879 946 1119 1267 1286 1385 1386 1387 1388 1389 1390 1391 1392 1393 1394 1395 1396 1397 1398 1399 1400 1401 1402 1403 1404 1405 1406
32 192 227 273 465 632 660 777 1370 1407 1408 1409 1410 1411 1412 1413 1414 1415 1416 1417 1418 1419 1420 1421 1422 1423 1424 1425 1426 1427 1428 1429 1430
32 973 1060 1349 1431 1432 1433 1434 1435 1436 1437 1438 1439 1440 1441 1442 1443 1444 1445 1446 1447 1448 1449 1450 1451 1452 1453 1454 1455 1456 1457 1458 1459
32 86 917 965 1339 1441 1460 1461 1462 1463 1464 1465 1466 1467 1468 1469 1470 1471 1472 1473 1474 1475 1476 1477 1478 1479 1480 1481 1482 1483 1484 1485 1486
32 821 872 995 1035 1155 1215 1228 1289 1487 1488 1489 1490 1491 1492 1493 1494 1495 1496 1497 1498 1499 1500 1501 1502 1503 1504 1505 1506 1507 1508 1509 1510
32 442 593 620 824 888 1089 1314 1511 1512 1513 1514 1515 1516 1517 1518 1519 1520 1521 1522 1523 1524 1525 1526 1527 1528 1529 1530 1531 1532 1533 1534 1535
32 17 42 477 753 1536 1537 1538 1539 1540 1541 1542 1543 1544 1545 1546 1547 1548 1549 1550 1551 1552 1553 1554 1555 1556 1557 1558 1559 1560 1561 1562 1563
32 1008 1154 1564 1565 1566 1567 1568 1569 1570 1571 1572 1573 1574 1575 1576 1577 1578 1579 1580 1581 1582 1583 1584 1585 1586 1587 1588 1589 1590 1591 1592 1593
32 1582 1594 1595 1596 1597 1598 1599 1600 1601 1602 1603 1604 1605 1606 1607 1608 1609 1610 1611 1612 1613 1614 1615 1616 1617 1618 1619 1620 1621 1622 1623 1624
32 1565 1595 1625 1626 1627 1628 1629 1630 1631 1632 1633 1634 1635 1636 1637 1638 1639 1640 1641 1642 1643 1644 1645 1646 1647 1648 1649 1650 1651 1652 1653 1654
32 981 1032 1481 1655 1656 1657 1658 1659 1660 1661 1662 1663 1664 1665 1666 1667 1668 1669 1670 1671 1672 1673 1674 1675 1676 1677 1678 1679 1680 1681 1682 1683
32 1063 1094 1433 1684 1685 1686 1687 1688 1689 1690 1691 1692 1693 1694 1695 1696 1697 1698 1699 1700 1701 1702 1703 1704 1705 1706 1707 1708 1709 1710 1711 1712
32 322 358 518 713 1070 1335 1450 1703 1713 1714 1715 1716 1717 1718 1719 1720 1721 1722 1723 1724 1725 1726 1727 1728 1729 1730 1731 1732 1733 1734 1735 1736
32 338 701 724 1699 1724 1737 1738 1739 1740 1741 1742 1743 1744 1745 1746 1747 1748 1749 1750 1751 1752 1753 1754 1755 1756 1757 1758 1759 1760 1761 1762 1763
32 394 409 448 830 890 1189 1327 1521 1764 1765 1766 1767 1768 1769 1770 1771 1772 1773 1774 1775 1776 1777 1778 1779 1780 1781 1782 1783 1784 1785 1786 1787
32 280 312 343 602 1053 1082 1308 1685 1714 1738 1788 1789 1790 1791 1792 1793 1794 1795 1796 1797 1798 1799 1800 1801 1802 1803 1804 1805 1806 1807 1808 1809
32 290 334 374 686 1324 1363 1753 1790 1810 1811 1812 1813 1814 1815 1816 1817 1818 1819 1820 1821 1822 1823 1824 1825 1826 1827 1828 1829 1830 1831 1832 1833
32 70 134 357 496 526 560 805 925 1342 1834 1835 1836 1837 1838 1839 1840 1841 1842 1843 1844 1845 1846 1847 1848 1849 1850 1851 1852 1853 1854 1855 1856
32 8 57 72 473 492 530 639 670 1420 1838 1857 1858 1859 1860 1861 1862 1863 1864 1865 1866 1867 1868 1869 1870 1871 1872 1873 1874 1875 1876 1877 1878
32 548 577 605 1058 1083 1226 1255 1514 1879 1880 1881 1882 1883 1884 1885 1886 1887 1888 1889 1890 1891 1892 1893 1894 1895 1896 1897 1898 1899 1900 1901 1902
32 104 140 180 500 644 768 799 1415 1844 1868 1903 1904 1905 1906 1907 1908 1909 1910 1911 1912 1913 1914 1915 1916 1917 1918 1919 1920 1921 1922 1923 1924
32 576 818 861 885 1236 1272 1291 1387 1502 1527 1885 1925 1926 1927 1928 1929 1930 1931 1932 1933 1934 1935 1936 1937 1938 1939 1940 1941 1942 1943 1944 1945
32 203 392 412 1185 1766 1946 1947 1948 1949 1950 1951 1952 1953 1954 1955 1956 1957 1958 1959 1960 1961 1962 1963 1964 1965 1966 1967 1968 1969 1970 1971 1972
32 197 259 416 783 1114 1960 1973 1974 1975 1976 1977 1978 1979 1980 1981 1982 1983 1984 1985 1986 1987 1988 1989 1990 1991 1992 1993 1994 1995 1996 1997 1998
32 406 817 863 895 1118 1181 1216 1772 1950 1990 1999 2000 2001 2002 2003 2004 2005 2006 2007 2008 2009 2010 2011 2012 2013 2014 2015 2016 2017 2018 2019 2020
32 281 313 344 516 656 791 1361 1408 1835 1858 1904 2021 2022 2023 2024 2025 2026 2027 2028 2029 2030 2031 2032 2033 2034 2035 2036 2037 2038 2039 2040 2041
32 22 76 539 721 1346 1446 1466 1723 2042 2043 2044 2045 2046 2047 2048 2049 2050 2051 2052 2053 2054 2055 2056 2057 2058 2059 2060 2061 2062 2063 2064 2065
32 100 198 296 386 425 445 771 801 1373 1418 1907 2029 2066 2067 2068 2069 2070 2071 2072 2073 2074 2075 2076 2077 2078 2079 2080 2081 2082 2083 2084 2085
32 13 728 747 1547 2054 2086 2087 2088 2089 2090 2091 2092 2093 2094 2095 2096 2097 2098 2099 2100 2101 2102 2103 2104 2105 2106 2107 2108 2109 2110 2111 2112
32 7 48 83 1462 1551 1676 2050 2097 2113 2114 2115 2116 2117 2118 2119 2120 2121 2122 2123 2124 2125 2126 2127 2128 2129 2130 2131 2132 2133 2134 2135 2136
32 992 1087 1138 1566 1690 2137 2138 2139 2140 2141 2142 2143 2144 2145 2146 2147 2148 2149 2150 2151 2152 2153 2154 2155 2156 2157 2158 2159 2160 2161 2162 2163
32 960 1013 1057 1101 1241 1440 1689 1880 2138 2164 2165 2166 2167 2168 2169 2170 2171 2172 2173 2174 2175 2176 2177 2178 2179 2180 2181 2182 2183 2184 2185 2186
32 741 1554 1616 1626 2089 2187 2188 2189 2190 2191 2192 2193 2194 2195 2196 2197 2198 2199 2200 2201 2202 2203 2204 2205 2206 2207 2208 2209 2210 2211 2212 2213
32 689 1632 1744 1824 2214 2215 2216 2217 2218 2219 2220 2221 2222 2223 2224 2225 2226 2227 2228 2229 2230 2231 2232 2233 2234 2235 2236 2237 2238 2239 2240 2241
32 1144 1174 1580 1645 2151 2237 2242 2243 2244 2245 2246 2247 2248 2249 2250 2251 2252 2253 2254 2255 2256 2257 2258 2259 2260 2261 2262 2263 2264 2265 2266 2267
32 1098 1320 1695 1747 1795 1826 2139 2216 2261 2268 2269 2270 2271 2272 2273 2274 2275 2276 2277 2278 2279 2280 2281 2282 2283 2284 2285 2286 2287 2288 2289 2290
32 1541 1596 1660 2091 2118 2191 2291 2292 2293 2294 2295 2296 2297 2298 2299 2300 2301 2302 2303 2304 2305 2306 2307 2308 2309 2310 2311 2312 2313 2314 2315 2316
32 815 1085 1158 1183 1311 1518 1779 2143 2253 2283 2317 2318 2319 2320 2321 2322 2323 2324 2325 2326 2327 2328 2329 2330 2331 2332 2333 2334 2335 2336 2337 2338
32 907 948 963 1043 1239 1257 1285 1478 1671 2339 2340 2341 2342 2343 2344 2345 2346 2347 2348 2349 2350 2351 2352 2353 2354 2355 2356 2357 2358 2359 2360 2361
32 563 910 971 1071 1243 1261 1345 1445 1473 1891 2172 2346 2362 2363 2364 2365 2366 2367 2368 2369 2370 2371 2372 2373 2374 2375 2376 2377 2378 2379 2380 2381
32 834 998 1105 1153 1232 1494 1531 1894 1933 2154 2176 2327 2382 2383 2384 2385 2386 2387 2388 2389 2390 2391 2392 2393 2394 2395 2396 2397 2398 2399 2400 2401
32 377 1168 1312 1768 1813 1947 2218 2243 2269 2318 2402 2403 2404 2405 2406 2407 2408 2409 2410 2411 2412 2413 2414 2415 2416 2417 2418 2419 2420 2421 2422 2423
32 204 236 384 695 1381 1819 1961 2226 2414 2424 2425 2426 2427 2428 2429 2430 2431 2432 2433 2434 2435 2436 2437 2438 2439 2440 2441 2442 2443 2444 2445 2446
32 195 241 271 1956 1984 2432 2447 2448 2449 2450 2451 2452 2453 2454 2455 2456 2457 2458 2459 2460 2461 2462 2463 2464 2465 2466 2467 2468 2469 2470 2471 2472
32 715 1435 1686 1717 1742 2046 2087 2473 2474 2475 2476 2477 2478 2479 2480 2481 2482 2483 2484 2485 2486 2487 2488 2489 2490 2491 2492 2493 2494 2495 2496 2497
32 693 731 744 1634 1755 2093 2195 2225 2482 2498 2499 2500 2501 2502 2503 2504 2505 2506 2507 2508 2509 2510 2511 2512 2513 2514 2515 2516 2517 2518 2519 2520
32 37 68 491 908 932 1464 1656 2114 2340 2521 2522 2523 2524 2525 2526 2527 2528 2529 2530 2531 2532 2533 2534 2535 2536 2537 2538 2539 2540 2541 2542 2543
32 223 254 463 742 1537 2188 2448 2544 2545 2546 2547 2548 2549 2550 2551 2552 2553 2554 2555 2556 2557 2558 2559 2560 2561 2562 2563 2564 2565 2566 2567 2568
32 239 700 757 1639 2198 2228 2429 2454 2506 2557 2569 2570 2571 2572 2573 2574 2575 2576 2577 2578 2579 2580 2581 2582 2583 2584 2585 2586 2587 2588 2589 2590
32 962 1448 1469 1667 2045 2104 2116 2300 2474 2591 2592 2593 2594 2595 2596 2597 2598 2599 2600 2601 2602 2603 2604 2605 2606 2607 2608 2609 2610 2611 2612 2613
32 977 1005 1454 1572 1707 2153 2174 2484 2603 2614 2615 2616 2617 2618 2619 2620 2621 2622 2623 2624 2625 2626 2627 2628 2629 2630 2631 2632 2633 2634 2635 2636
32 1585 1629 1701 1741 2147 2222 2252 2271 2479 2510 2623 2637 2638 2639 2640 2641 2642 2643 2644 2645 2646 2647 2648 2649 2650 2651 2652 2653 2654 2655 2656 2657
32 968 1010 1041 1569 1612 1678 2293 2608 2621 2658 2659 2660 2661 2662 2663 2664 2665 2666 2667 2668 2669 2670 2671 2672 2673 2674 2675 2676 2677 2678 2679 2680
32 1575 1609 1643 2108 2200 2308 2489 2515 2599 2618 2645 2663 2681 2682 2683 2684 2685 2686 2687 2688 2689 2690 2691 2692 2693 2694 2695 2696 2697 2698 2699 2700
32 1605 1641 2204 2467 2554 2586 2701 2702 2703 2704 2705 2706 2707 2708 2709 2710 2711 2712 2713 2714 2715 2716 2717 2718 2719 2720 2721 2722 2723 2724 2725 2726
32 1178 1628 1963 2233 2256 2404 2427 2451 2576 2715 2727 2728 2729 2730 2731 2732 2733 2734 2735 2736 2737 2738 2739 2740 2741 2742 2743 2744 2745 2746 2747 2748
32 996 1027 1142 1202 1490 1570 1600 2661 2749 2750 2751 2752 2753 2754 2755 2756 2757 2758 2759 2760 2761 2762 2763 2764 2765 2766 2767 2768 2769 2770 2771 2772
32 1141 1171 1209 1583 1615 1638 2250 2722 2743 2754 2773 2774 2775 2776 2777 2778 2779 2780 2781 2782 2783 2784 2785 2786 2787 2788 2789 2790 2791 2792 2793 2794
32 1172 1198 1951 1977 2002 2452 2705 2730 2774 2795 2796 2797 2798 2799 2800 2801 2802 2803 2804 2805 2806 2807 2808 2809 2810 2811 2812 2813 2814 2815 2816 2817
32 175 256 635 780 1126 1979 2818 2819 2820 2821 2822 2823 2824 2825 2826 2827 2828 2829 2830 2831 2832 2833 2834 2835 2836 2837 2838 2839 2840 2841 2842 2843
32 853 1123 1204 1993 2011 2807 2839 2844 2845 2846 2847 2848 2849 2850 2851 2852 2853 2854 2855 2856 2857 2858 2859 2860 2861 2862 2863 2864 2865 2866 2867 2868
32 253 1975 2462 2549 2711 2803 2825 2855 2869 2870 2871 2872 2873 2874 2875 2876 2877 2878 2879 2880 2881 2882 2883 2884 2885 2886 2887 2888 2889 2890 2891 2892
32 39 267 480 638 1543 2552 2828 2881 2893 2894 2895 2896 2897 2898 2899 2900 2901 2902 2903 2904 2905 2906 2907 2908 2909 2910 2911 2912 2913 2914 2915 2916
32 36 1539 1668 2129 2296 2525 2900 2917 2918 2919 2920 2921 2922 2923 2924 2925 2926 2927 2928 2929 2930 2931 2932 2933 2934 2935 2936 2937 2938 2939 2940 2941
32 55 163 505 643 938 2533 2830 2903 2926 2942 2943 2944 2945 2946 2947 2948 2949 2950 2951 2952 2953 2954 2955 2956 2957 2958 2959 2960 2961 2962 2963 2964
32 1026 1610 1658 2303 2668 2760 2936 2965 2966 2967 2968 2969 2970 2971 2972 2973 2974 2975 2976 2977 2978 2979 2980 2981 2982 2983 2984 2985 2986 2987 2988 2989
32 850 1040 1201 1293 1497 2762 2851 2981 2990 2991 2992 2993 2994 2995 2996 2997 2998 2999 3000 3001 3002 3003 3004 3005 3006 3007 3008 3009 3010 3011 3012 3013
32 953 1029 1298 1661 2351 2531 2931 2960 2972 3000 3014 3015 3016 3017 3018 3019 3020 3021 3022 3023 3024 3025 3026 3027 3028 3029 3030 3031 3032 3033 3034 3035
32 160 858 935 1112 1281 1398 2835 2857 2950 3005 3024 3036 3037 3038 3039 3040 3041 3042 3043 3044 3045 3046 3047 3048 3049 3050 3051 3052 3053 3054 3055 3056
32 1559 1602 2202 2305 2560 2707 2878 2911 2928 2978 3057 3058 3059 3060 3061 3062 3063 3064 3065 3066 3067 3068 3069 3070 3071 3072 3073 3074 3075 3076 3077 3078
32 1213 1599 2703 2750 2784 2798 2864 2887 2979 3004 3065 3079 3080 3081 3082 3083 3084 3085 3086 3087 3088 3089 3090 3091 3092 3093 3094 3095 3096 3097 3098 3099
32 2819 2845 2870 2894 2918 2943 2966 2991 3015 3037 3058 3080 3100 3101 3102 3103 3104 3105 3106 3107 3108 3109 3110 3111 3112 3113 3114 3115 3116 3117 3118 3119
4 0 487 1334 2021
4 44 528 749 1417
4 81 476 1920 2953
4 112 503 1426 2827
4 129 433 764 2032
4 168 803 920 1872
4 186 459 685 2026
4 235 775 1875 2902
4 269 418 1377 1918
4 293 532 554 1913
4 331 383 804 1419
4 360 720 1372 1867
4 113 390 1427 1983
4 304 421 592 1919
4 191 434 1810 2033
4 212 468 1911 2824
4 262 675 2074 2435
4 5 218 628 2027
4 97 490 547 2039
4 136 642 1111 2066
4 53 171 1423 1849
4 282 517 703 1409
4 75 355 667 1915
4 328 611 1846 2077
4 431 543 1791 2031
4 364 589 922 1917
4 151 609 884 2072
4 202 447 1117 1903
4 419 808 1325 1378
4 222 375 766 2040
4 63 127 629 2028
4 504 778 809 1395
4 170 266 1873 2076
4 356 669 1818 2073
4 470 529 1369 1912
4 314 792 1352 1859
4 2 682 1713 2024
4 234 723 1550 1874
4 332 755 1421 2436
4 196 634 655 2548
4 27 495 1414 2899
4 50 666 1845 2052
4 106 299 1422 1848
4 440 814 1385 1886
4 874 1156 1251 1535
4 901 1277 1500 3051
4 929 1245 1402 3028
4 120 568 950 1935
4 133 1350 1881 2339
4 974 1487 1889 2145
4 1016 1945 2357 3008
4 1034 1278 1484 2181
4 812 1075 1268 1524
4 569 1104 1237 1453
4 627 1934 2177 2328
4 450 819 1120 1946
4 124 1936 2010 3047
4 424 811 1396 1523
4 1140 1513 2004 2422
4 902 1194 1501 2866
4 1014 1217 1941 2335
4 843 1235 1392 2996
4 1276 1499 1534 2180
4 145 877 1284 1890
4 456 550 1086 1926
4 395 621 893 2325
4 820 1307 1888 2144
4 82 559 945 1921
4 125 601 1337 2023
4 361 919 1869 2057
4 65 461 712 2034
4 16 637 1834 2524
4 51 261 673 1916
4 149 772 1864 2948
4 93 188 631 2030
4 172 585 1851 2079
4 345 451 1362 1905
4 295 665 1722 1843
4 230 325 1865 2075
4 67 545 1715 2037
4 46 534 915 1914
4 493 793 1256 1355
4 454 549 1386 1906
4 98 376 604 2041
4 302 584 1069 1850
4 523 796 1367 1802
4 210 289 663 1910
4 24 321 1413 1841
4 462 489 765 2036
4 101 649 933 1837
4 173 415 807 1425
4 924 1394 1924 2954
4 588 944 1855 2370
4 178 813 889 1269
4 536 800 916 1066
4 130 1344 1857 2522
4 774 802 1374 1870
4 138 342 437 1884
4 930 1246 1455 1677
4 1072 1266 1475 1856
4 964 1351 1684 1882
4 988 1264 1493 3021
4 823 991 1287 1892
4 1042 2381 2400 2635
4 795 906 1389 1898
4 143 1280 2362 2532
4 599 865 954 1244
4 1061 1227 1515 2159
4 625 894 1273 2390
4 370 591 1095 2372
4 762 2132 2693 3072
4 84 730 1553 2598
4 11 687 2187 2477
4 1588 2210 2610 2982
4 1611 2111 2588 2651
4 1633 2140 2487 2658
4 959 1341 2113 2476
4 1483 2109 2670 2933
4 1011 1459 1682 2698
4 736 1702 2232 2690
4 1736 2175 2604 2648
4 541 1442 1751 2099
4 794 878 1310 1897
4 287 405 1512 2418
4 575 1131 1765 2069
4 453 769 1364 1948
4 335 1319 2078 2437
4 347 452 1084 1814
4 148 352 1863 2071
4 617 1776 1823 2082
4 372 684 1789 2025
4 333 806 1068 1318
4 498 527 798 1416
4 114 306 562 1520
4 391 779 810 887
4 303 414 1424 2439
4 309 1074 1522 2279
4 790 1348 1793 1879
4 109 616 1265 1853
4 441 1360 1798 2406
4 603 1716 1812 2038
4 103 213 291 1771
4 422 1393 1923 2832
4 141 446 1116 1925
4 116 508 1270 3044
4 457 770 1388 2000
4 891 1328 1962 2083
4 380 797 1517 1805
4 118 622 1778 1932
4 574 937 1129 1908
4 179 892 1986 2084
4 647 657 1836 2067
4 365 590 1323 2080
4 458 1927 2001 2320
4 413 841 1391 2850
4 122 860 1274 1528
4 105 215 2005 2826
4 399 896 1180 1991
4 154 773 886 3042
4 252 1132 1952 2070
4 121 859 1781 1992
4 201 443 1999 2407
4 411 581 838 1316
4 716 1353 1860 2115
4 359 672 1752 2053
4 220 714 1811 2035
4 264 752 1375 1871
4 464 519 704 2088
4 69 648 658 1538
4 679 1548 2055 2507
4 49 540 1472 2098
4 754 1876 2125 2904
4 531 750 1371 1749
4 12 692 1407 2544
4 6 311 1338 2473
4 711 1336 1788 2022
4 26 1468 1720 1842
4 327 751 1866 2056
4 472 501 537 2123
4 967 1052 2141 2488
4 1009 1712 2264 2697
4 1048 1590 2184 2611
4 987 2122 2687 2971
4 1675 2065 2377 2628
4 19 1460 2291 2481
4 1568 2193 2217 2497
4 1642 2306 2614 2751
4 1560 1607 2517 2605
4 717 1356 1688 2592
4 760 1759 2062 2691
4 1735 2282 2511 2626
4 1799 2137 2214 2486
4 1763 2260 2585 2695
4 1146 1652 2276 2622
4 1076 1760 2063 2627
4 708 1719 2090 2638
4 735 1449 2128 2689
4 738 1631 2292 2483
4 1613 1679 2112 2632
4 2213 2654 2675 2791
4 980 2155 2681 2756
4 1003 1108 1458 2652
4 1463 2168 2496 2660
4 1110 1150 1249 2633
4 994 1434 1902 2344
4 982 1297 2382 2759
4 957 1039 1940 2380
4 600 866 1783 2395
4 626 1705 2376 2391
4 598 928 1078 1242
4 1004 1109 1939 2378
4 1151 1533 2179 2287
4 833 1225 2150 2753
4 1159 1942 2017 3006
4 1214 1787 2265 2399
4 430 868 1188 1530
4 570 1238 1400 1529
4 873 1036 1279 2398
4 573 828 1122 1292
4 444 816 1081 2408
4 596 1077 1329 2392
4 624 1780 2284 2389
4 553 1519 1808 2169
4 153 610 1930 2368
4 986 1064 1263 2387
4 993 1692 1900 2321
4 1045 1161 1944 2183
4 1170 1491 1516 2160
4 883 1203 1303 2384
4 1390 1488 1899 2343
4 898 1186 1333 2394
4 455 1815 1949 2319
4 1511 1801 2146 2409
4 337 388 614 2277
4 119 396 1525 2007
4 350 1309 1691 1895
4 718 1368 1804 2221
4 1331 1761 2257 2444
4 194 279 699 2403
4 294 535 1065 1750
4 1100 1731 1827 2647
4 308 594 1099 1774
4 284 706 1718 2270
4 316 607 1354 1687
4 1059 1313 1743 2156
4 382 1807 2223 2323
4 623 1704 1829 2326
4 310 1775 2280 2440
4 363 1322 1376 1757
4 305 561 1097 1728
4 1777 1987 2085 2441
4 417 1429 2459 2829
4 272 1384 1958 2580
4 378 705 1410 2449
4 225 650 1974 2068
4 211 664 1816 2574
4 475 776 1380 2460
4 238 1822 1959 2081
4 298 674 1754 2434
4 880 1489 1901 2322
4 436 1797 1883 2317
4 583 840 1092 1234
4 580 1300 2365 2383
4 182 427 597 864
4 1135 1200 1767 1929
4 1403 1496 1532 2013
4 572 1937 2178 2353
4 1107 1149 1784 1938
4 155 1931 2347 3043
4 903 975 1288 1893
4 608 1258 1358 2165
4 162 578 909 1299
4 677 1726 1820 2505
4 34 661 2092 2561
4 474 727 1379 2579
4 615 1727 1852 2369
4 79 366 725 1444
4 502 538 557 1471
4 330 1067 1847 2058
4 73 150 354 2367
4 525 552 1438 1803
4 619 1730 2171 2281
4 288 1088 1740 2419
4 367 726 1698 1821
4 522 1055 1461 2491
4 1839 2044 2363 2538
4 351 905 1432 1896
4 369 1700 2060 2371
4 1431 1800 1887 2142
4 320 1056 2273 2493
4 494 1357 2117 2341
4 87 1729 2373 2601
4 921 1878 2126 2952
4 9 1343 2521 2591
4 521 739 2119 2490
4 85 479 2102 2925
4 1542 1861 2043 2536
4 542 918 1443 2124
4 54 943 1474 1854
4 77 676 1725 2100
4 680 1756 2101 2577
4 243 1828 2512 2736
4 466 707 2189 2450
4 1412 1978 2426 2564
4 758 1382 2229 2461
4 263 681 1549 2578
4 25 228 323 2503
4 756 1428 2458 2905
4 193 694 2545 2727
4 404 1365 2416 2453
4 244 784 1964 2880
4 237 336 387 2224
4 371 1096 1447 1758
4 961 1254 1347 2523
4 1579 1709 2519 2606
4 1018 2359 2613 2984
4 969 2042 2302 2530
4 997 1305 1659 2366
4 1229 1437 2161 2662
4 1028 1467 2315 2616
4 571 952 1240 1480
4 90 1452 1669 2105
4 914 985 2121 3020
4 1102 1734 2375 2625
4 984 1693 2051 2686
4 1456 2135 2355 2667
4 91 949 1670 2374
4 1007 1711 2379 2607
4 1477 1733 2106 2624
4 1340 1792 2164 2475
4 92 2349 2602 2930
4 1457 2110 2650 2671
4 1252 1486 2672 3033
4 565 1476 1732 2173
4 1359 2166 2342 2593
4 28 1721 2504 2596
4 719 1439 1806 2642
4 1649 1748 2095 2620
4 1567 2167 2274 2495
4 1017 1619 2612 2655
4 2120 2192 2494 2659
4 2423 2571 2641 2776
4 763 2236 2694 2717
4 1589 2211 2746 3096
4 1021 2700 2794 2988
4 1167 1644 2152 2755
4 1162 2185 2656 2676
4 737 2201 2600 2646
4 1651 2096 2665 3064
4 966 1564 2294 2485
4 1581 1710 2239 2333
4 1436 1745 2158 2682
4 691 1625 2268 2480
4 2247 2684 2708 2770
4 1051 1166 1624 2636
4 1015 2338 2653 2788
4 989 1574 1694 2388
4 2048 2311 2501 2615
4 1106 1762 2259 2629
4 1577 2289 2518 2741
4 1809 2170 2324 2643
4 1191 1578 2290 2397
4 1637 1737 2149 2411
4 1163 1621 2657 2748
4 1492 2163 2664 2778
4 702 1630 2405 2447
4 1833 2330 2649 2739
4 1326 1383 1957 2230
4 240 732 2199 2231
4 1332 1708 2258 2393
4 398 1179 1526 2285
4 1079 2286 2396 2630
4 842 1000 1093 2249
4 340 1321 1697 2227
4 1103 1782 1830 2251
4 255 408 2428 2810
4 216 1773 1817 2733
4 426 1184 1330 2443
4 397 785 2008 2464
4 379 709 2272 2728
4 1366 1739 2417 2570
4 242 393 1988 2735
4 1706 1832 2255 2514
4 319 740 2215 2492
4 339 1696 2059 2508
4 698 1796 2402 2637
4 515 688 1794 2478
4 341 2278 2438 2509
4 733 1825 2581 2644
4 662 2425 2499 2562
4 746 1647 1746 2431
4 159 1260 1840 2539
4 509 567 1397 2350
4 88 564 1451 2348
4 1080 1248 1482 2631
4 912 983 1062 2049
4 696 1627 2086 2546
4 478 729 2127 2197
4 31 2196 2597 2924
4 484 2103 2583 3067
4 734 1555 2582 2688
4 30 229 2194 2901
4 38 743 2047 2309
4 710 2190 2639 2729
4 748 1648 2456 3063
4 246 1965 2234 2713
4 214 469 2575 2875
4 245 1557 2513 2712
4 21 2295 2498 2551
4 1558 1674 2064 2692
4 29 497 1470 2923
4 58 926 1672 2061
4 1025 2364 2543 2595
4 1050 1222 1591 2401
4 1233 1662 2619 2771
4 1614 2266 2520 2634
4 825 2148 2410 2773
4 1019 1223 1622 2267
4 852 1173 2385 2765
4 1165 1253 2678 3011
4 845 1002 2780 2997
4 1218 1587 2337 2744
4 2162 2220 2683 2777
4 1148 1654 2666 3086
4 990 1495 1576 2973
4 1090 1139 2420 2640
4 2246 2386 2617 2767
4 513 1271 1479 3025
4 74 152 2345 2949
4 2590 2699 2786 3077
4 2262 2446 2516 2720
4 1571 2314 2502 2704
4 2208 2240 2471 2783
4 1831 1966 2254 2584
4 1601 2245 2573 2815
4 1176 1650 2275 2433
4 1598 2500 2567 2732
4 1195 1584 2241 2725
4 275 761 2442 2716
4 1169 1315 2157 2219
4 1507 2186 2361 2677
4 1504 1586 2182 2336
4 839 1317 1954 2248
4 849 1143 1770 2814
4 401 2009 2329 2738
4 209 1125 1764 2802
4 899 1208 1969 2331
4 402 826 2413 2800
4 787 897 1967 2854
4 400 1182 2235 2465
4 217 2006 2734 2876
4 429 1187 2468 2859
4 1769 2244 2430 2813
4 1137 1640 2415 2801
4 1196 1508 1592 3098
4 1971 2238 2332 2782
4 1152 1785 2288 2740
4 207 2412 2569 2799
4 248 2205 2737 2882
4 1636 2424 2559 2797
4 1190 1994 2445 2719
4 1503 2016 2334 2787
4 844 1955 2779 2852
4 837 2242 2761 2806
4 1211 1786 1995 2742
4 1160 2019 2745 3093
4 1177 1653 2457 3085
4 1210 1972 2263 2723
4 1970 2589 2781 2886
4 410 848 2811 2822
4 277 1968 2718 2860
4 199 645 1113 2869
4 35 1411 2563 2820
4 15 633 2547 2917
4 268 1552 1877 2951
4 226 652 1540 2871
4 59 274 759 3069
4 1544 2540 2594 2967
4 61 1673 2107 3070
4 23 2299 2528 2893
4 40 1465 2310 3016
4 89 1556 1666 2957
4 158 1862 2537 2895
4 135 640 2526 3036
4 56 947 1922 2831
4 71 651 934 2919
4 60 181 927 3026
4 1663 2685 2772 3062
4 978 2307 2752 3014
4 1046 1617 2609 2938
4 1030 1573 2316 3084
4 1020 1623 1683 3013
4 835 1295 2757 2844
4 876 1049 1164 3097
4 1044 1219 1943 3053
4 999 1205 1306 2970
4 854 1231 2766 3018
4 972 1283 2535 2965
4 955 1037 1485 2934
4 958 1250 1680 3002
4 911 1301 1657 2946
4 1024 1262 2541 3040
4 147 1121 1290 2942
4 939 1134 1928 2992
4 184 870 1275 3029
4 164 882 1302 2846
4 123 862 951 2837
4 1562 1608 2587 2885
4 745 2312 2702 2897
4 1597 2094 2565 2921
4 1563 2696 2721 2975
4 1635 2298 2555 3079
4 2003 2421 2455 2775
4 1145 1603 2817 2995
4 871 1193 1998 3088
4 831 1127 2804 2990
4 1509 2792 2868 2987
4 483 2130 2956 3066
4 511 2131 2908 3022
4 481 506 2833 2927
4 2136 2669 3031 3074
4 2358 2674 2941 3010
4 2134 2354 2962 2977
4 514 2352 2932 3046
4 1404 2356 2963 2998
4 512 1399 2836 3023
4 1175 2706 2768 2848
4 1133 1199 1953 2873
4 1980 2566 2731 3081
4 251 1130 1909 2944
4 176 1430 1985 2906
4 510 782 2907 3045
4 41 165 258 3112
4 482 781 2877 2955
4 641 1536 2527 3101
4 900 1212 1996 3049
4 183 276 428 2858
4 2015 2470 2842 3090
4 1505 2018 3052 3092
4 1221 1620 2747 2892
4 846 2763 2808 3111
4 1206 1982 2710 3117
4 789 2012 2883 3048
4 205 2556 2795 2818
4 2020 2789 2888 3007
4 1224 1593 2726 2989
4 1646 2764 2809 3057
4 2472 2785 2865 3075
4 1510 2680 3035 3099
4 1506 2360 2986 3056
4 1022 2301 2529 3105
4 1296 1655 2758 3110
4 1546 1604 1665 3116
4 2133 2206 2913 2976
4 2209 2673 2937 3094
4 2313 2898 3017 3083
4 43 940 1664 3113
4 1681 2964 3003 3076
4 156 1282 2534 3106
4 2542 2896 2968 3041
4 32 2297 2553 3103
4 247 1989 2714 2909
4 257 2572 2812 3059
4 788 2466 2856 2910
4 249 1128 2805 3108
4 1594 2558 2796 3104
4 1997 2914 3050 3087
4 485 2463 2834 3068
4 2679 2793 3012 3078
4 1033 1207 1606 3119
4 2769 2849 3019 3061
4 1124 1197 1294 3107
4 1047 2939 3054 3095
4 1406 1498 2863 3032
4 857 941 1031 3118
4 1304 2847 2947 2969
4 956 2841 2935 3001
4 786 1401 2853 2958
4 102 653 1976 3038
4 646 931 1115 3102
4 1618 2889 2940 3009
4 875 2843 3034 3091
4 2207 2469 2915 3089
4 62 2838 3027 3071
4 486 2203 2879 2929
4 636 1973 2550 3100
4 2304 2701 2749 3109
4 1220 2891 2985 3055
4 185 2862 2912 3030
4 2212 2790 2890 2983
4 2816 2823 2994 3060
4 260 1545 2709 3114
4 2724 2867 2916 2980
4 654 2872 2920 3039
4 167 855 1981 3115
4 1405 2014 2840 2999
4 2568 2821 2922 3082
4 1136 2874 2945 2993
4 1561 2884 2961 2974
4 278 2861 2959 3073
