# Generated using Miratope v0.5.0 (https://github.com/galoomba1/miratope-rs)
4OFF

# Vertices, Faces, Edges, Cells
120 720 720 120

# Vertices
0.809016994374945 0.809016994374945 0.809016994374945 0.809016994374945 
-1.30901699437495 0.809016994374945 -0.5 0 
-1.30901699437495 -0.5 0 0.809016994374945 
-1.30901699437495 0 0.809016994374945 -0.5 
-0.809016994374945 0.809016994374945 0.809016994374945 -0.809016994374945 
0.5 0.809016994374945 0 1.30901699437495 
0 -0.5 0.809016994374945 1.30901699437495 
-0.809016994374945 0 -0.5 1.30901699437495 
-0.809016994374945 0.809016994374945 -0.809016994374945 0.809016994374945 
0.5 0 1.30901699437495 0.809016994374945 
0 0.809016994374945 1.30901699437495 -0.5 
-0.809016994374945 -0.5 1.30901699437495 0 
-0.809016994374945 -0.809016994374945 0.809016994374945 0.809016994374945 
0.5 1.30901699437495 0.809016994374945 0 
0 1.30901699437495 -0.5 0.809016994374945 
-0.809016994374945 1.30901699437495 0 -0.5 
0 1.61803398874989 0 0 
0 0 1.61803398874989 0 
0 0 0 1.61803398874989 
-1.61803398874989 0 0 0 
0 -1.30901699437495 0.5 0.809016994374945 
-0.809016994374945 -0.809016994374945 -0.809016994374945 0.809016994374945 
0 1.30901699437495 0.5 0.809016994374945 
-0.809016994374945 0.5 1.30901699437495 0 
0.5 -0.809016994374945 0 1.30901699437495 
0.809016994374945 0 0.5 1.30901699437495 
-1.30901699437495 0.809016994374945 0.5 0 
-1.30901699437495 -0.809016994374945 0.5 0 
-1.30901699437495 0 -0.809016994374945 0.5 
-0.809016994374945 -1.30901699437495 0 0.5 
0 0.809016994374945 1.30901699437495 0.5 
0 -0.5 -0.809016994374945 1.30901699437495 
-0.809016994374945 1.30901699437495 0 0.5 
0 -0.809016994374945 1.30901699437495 0.5 
0 0.5 -0.809016994374945 1.30901699437495 
-0.5 0 -1.30901699437495 0.809016994374945 
0.809016994374945 0.809016994374945 -0.809016994374945 0.809016994374945 
-0.5 0 1.30901699437495 0.809016994374945 
0.809016994374945 1.30901699437495 0 0.5 
-0.5 -0.809016994374945 0 1.30901699437495 
-1.30901699437495 0 0.809016994374945 0.5 
-0.5 1.30901699437495 -0.809016994374945 0 
0 0.809016994374945 -1.30901699437495 0.5 
0.809016994374945 0 -0.5 1.30901699437495 
-0.5 1.30901699437495 0.809016994374945 0 
0.809016994374945 -0.5 -1.30901699437495 0 
0.809016994374945 0 -0.5 -1.30901699437495 
0 0.809016994374945 -1.30901699437495 -0.5 
0.809016994374945 0.809016994374945 0.809016994374945 -0.809016994374945 
1.30901699437495 -0.5 0 0.809016994374945 
1.30901699437495 -0.5 0 -0.809016994374945 
1.30901699437495 0 0.809016994374945 0.5 
0 1.30901699437495 -0.5 -0.809016994374945 
0.5 0 -1.30901699437495 -0.809016994374945 
1.30901699437495 -0.809016994374945 -0.5 0 
0.5 0 -1.30901699437495 0.809016994374945 
0.5 0.809016994374945 0 -1.30901699437495 
1.30901699437495 0 0.809016994374945 -0.5 
0.809016994374945 0.809016994374945 -0.809016994374945 -0.809016994374945 
0.809016994374945 -1.30901699437495 0 0.5 
0.809016994374945 -0.809016994374945 -0.809016994374945 -0.809016994374945 
0 0 -1.61803398874989 0 
1.30901699437495 0.809016994374945 0.5 0 
1.30901699437495 -0.809016994374945 0.5 0 
0.5 -1.30901699437495 -0.809016994374945 0 
0 -0.809016994374945 -1.30901699437495 0.5 
0.5 1.30901699437495 -0.809016994374945 0 
1.30901699437495 0.5 0 -0.809016994374945 
-0.5 0.809016994374945 0 1.30901699437495 
0.809016994374945 -0.809016994374945 -0.809016994374945 0.809016994374945 
0.809016994374945 1.30901699437495 0 -0.5 
1.30901699437495 0 -0.809016994374945 -0.5 
1.61803398874989 0 0 0 
-0.5 0.809016994374945 0 -1.30901699437495 
0 -0.5 0.809016994374945 -1.30901699437495 
0.809016994374945 -0.5 1.30901699437495 0 
-0.5 0 1.30901699437495 -0.809016994374945 
0.809016994374945 -0.809016994374945 0.809016994374945 -0.809016994374945 
1.30901699437495 0.809016994374945 -0.5 0 
0 0 0 -1.61803398874989 
0.5 -1.30901699437495 0.809016994374945 0 
-0.809016994374945 -0.809016994374945 0.809016994374945 -0.809016994374945 
-0.809016994374945 0 0.5 -1.30901699437495 
0 -1.30901699437495 0.5 -0.809016994374945 
0.5 -0.809016994374945 0 -1.30901699437495 
0 1.30901699437495 0.5 -0.809016994374945 
-0.809016994374945 0.809016994374945 0.809016994374945 0.809016994374945 
0 -0.809016994374945 1.30901699437495 -0.5 
0.809016994374945 0 0.5 -1.30901699437495 
-0.5 -1.30901699437495 0.809016994374945 0 
-0.5 -1.30901699437495 -0.809016994374945 0 
0 -1.30901699437495 -0.5 -0.809016994374945 
1.30901699437495 0 -0.809016994374945 0.5 
0 -1.30901699437495 -0.5 0.809016994374945 
-0.809016994374945 -1.30901699437495 0 -0.5 
0.5 0 1.30901699437495 -0.809016994374945 
0.809016994374945 -1.30901699437495 0 -0.5 
-0.809016994374945 0 0.5 1.30901699437495 
0.809016994374945 -0.809016994374945 0.809016994374945 0.809016994374945 
0 0.5 0.809016994374945 -1.30901699437495 
1.30901699437495 0.5 0 0.809016994374945 
0.809016994374945 0.5 1.30901699437495 0 
0 -1.61803398874989 0 0 
0.809016994374945 0.5 -1.30901699437495 0 
-1.30901699437495 0.5 0 -0.809016994374945 
-1.30901699437495 0.5 0 0.809016994374945 
0 0.5 0.809016994374945 1.30901699437495 
-0.809016994374945 0.5 -1.30901699437495 0 
-1.30901699437495 -0.809016994374945 -0.5 0 
-0.809016994374945 0.809016994374945 -0.809016994374945 -0.809016994374945 
-1.30901699437495 -0.5 0 -0.809016994374945 
0 0.5 -0.809016994374945 -1.30901699437495 
0 -0.809016994374945 -1.30901699437495 -0.5 
-0.5 -0.809016994374945 0 -1.30901699437495 
0 -0.5 -0.809016994374945 -1.30901699437495 
-0.809016994374945 0 -0.5 -1.30901699437495 
-0.809016994374945 -0.5 -1.30901699437495 0 
-0.5 0 -1.30901699437495 -0.809016994374945 
-0.809016994374945 -0.809016994374945 -0.809016994374945 -0.809016994374945 
-1.30901699437495 0 -0.809016994374945 -0.5 

# Faces
5 6 1 0 2 16
5 0 3 14 17 1
5 18 3 0 2 10
5 5 11 16 6 4
5 19 5 4 7 13
5 7 4 6 1 17
5 9 15 18 10 8
5 9 19 5 11 8
5 16 11 8 10 2
5 12 13 7 17 14
5 12 13 19 9 15
5 12 15 18 3 14
5 8 9 21 22 20
5 8 20 26 31 11
5 9 21 23 24 19
5 21 23 34 27 22
5 5 29 32 24 19
5 25 27 22 20 26
5 30 28 25 26 31
5 25 28 33 34 27
5 5 29 30 31 11
5 32 29 30 28 33
5 23 24 32 33 34
5 44 35 0 1 43
5 2 36 37 35 0
5 25 41 37 36 26
5 31 16 2 36 26
5 16 31 30 42 6
5 39 44 43 40 38
5 39 41 25 28 38
5 28 38 40 42 30
5 6 42 40 43 1
5 44 39 41 37 35
5 0 45 48 43 46
5 0 47 49 16 45
5 14 46 0 47 57
5 51 42 48 43 52
5 48 45 16 50 42
5 50 16 49 56 5
5 54 52 51 53 13
5 42 50 5 53 51
5 13 54 14 57 55
5 56 55 13 53 5
5 49 56 55 57 47
5 54 52 43 46 14
5 58 25 61 62 31
5 60 25 58 59 38
5 31 50 42 59 58
5 60 38 65 67 34
5 60 25 61 63 34
5 61 63 66 64 62
5 31 50 5 64 62
5 59 42 51 65 38
5 51 65 67 24 53
5 53 24 66 64 5
5 63 66 24 67 34
5 0 35 72 68 45
5 18 47 0 35 70
5 68 58 25 41 72
5 31 58 68 45 16
5 22 71 18 70 69
5 22 61 25 41 69
5 41 69 70 35 72
5 31 16 49 8 62
5 62 8 71 22 61
5 71 8 49 47 18
5 46 44 72 73 0
5 46 17 78 74 0
5 16 74 0 73 75
5 58 75 16 50 30
5 79 30 58 76 38
5 58 75 73 72 76
5 77 38 76 72 44
5 52 77 38 79 51
5 44 46 17 52 77
5 4 51 52 17 78
5 4 50 30 79 51
5 16 50 4 78 74
5 51 4 80 13 81
5 50 11 56 80 4
5 79 51 81 67 33
5 13 81 67 23 84
5 79 30 83 85 33
5 62 82 9 56 11
5 62 83 30 50 11
5 62 83 85 63 82
5 80 56 9 84 13
5 23 84 9 82 63
5 23 63 85 33 67
5 70 3 0 73 37
5 3 57 86 74 0
5 9 56 86 57 15
5 56 11 16 74 86
5 16 75 26 62 11
5 62 82 22 88 26
5 9 82 22 87 15
5 70 87 22 88 37
5 70 3 57 15 87
5 75 73 37 88 26
5 43 89 72 39 77
5 77 65 51 91 43
5 60 39 77 65 33
5 25 60 33 92 83
5 60 25 90 72 39
5 72 89 45 75 90
5 51 65 33 92 29
5 51 29 50 6 91
5 83 31 75 90 25
5 50 31 75 45 6
5 45 89 43 91 6
5 92 29 50 31 83
5 54 12 57 93 17
5 12 84 9 94 57
5 54 81 24 84 12
5 51 29 95 24 81
5 81 54 17 91 51
5 6 74 93 17 91
5 84 24 95 64 9
5 9 64 11 49 94
5 11 49 74 6 50
5 93 74 49 94 57
5 50 29 95 64 11
5 87 69 37 96 18
5 37 90 25 27 69
5 69 87 21 63 27
5 21 63 97 64 9
5 87 21 9 94 18
5 49 2 96 18 94
5 27 63 97 83 25
5 31 75 2 49 11
5 75 2 96 37 90
5 11 31 83 97 64
5 98 46 0 96 70
5 0 96 10 49 74
5 70 98 99 100 87
5 99 54 17 46 98
5 54 17 78 80 13
5 9 71 87 100 84
5 13 84 100 99 54
5 56 49 10 71 9
5 49 74 78 80 56
5 70 96 10 71 87
5 87 100 102 101 69
5 101 60 25 88 69
5 71 87 69 88 20
5 101 60 33 67 102
5 84 24 67 102 100
5 64 62 20 71 9
5 83 25 88 20 62
5 62 83 92 95 64
5 67 24 95 92 33
5 0 45 75 36 96
5 43 77 38 59 48
5 58 59 48 45 75
5 25 88 36 75 58
5 69 70 96 36 88
5 69 70 98 103 101
5 43 46 98 103 77
5 77 38 60 101 103
5 0 73 68 48 1
5 38 76 68 48 40
5 48 1 17 52 40
5 106 52 17 14 99
5 41 76 38 104 101
5 38 40 52 106 104
5 101 41 37 70 105
5 101 104 106 99 105
5 14 99 105 70 3
5 41 76 68 73 37
5 13 12 99 106 81
5 15 12 99 105 87
5 13 81 32 95 19
5 33 104 106 81 32
5 19 9 82 97 95
5 27 101 105 87 22
5 85 27 101 104 33
5 27 85 97 82 22
5 32 95 97 85 33
5 78 1 0 47 86
5 86 55 13 7 78
5 18 15 55 86 47
5 18 70 105 100 15
5 100 15 55 13 107
5 106 107 100 105 103
5 7 52 106 107 13
5 43 52 106 103 44
5 43 1 78 7 52
5 44 103 105 70 35
5 100 21 22 69 105
5 41 39 103 105 69
5 24 107 100 21 66
5 21 22 61 97 66
5 28 92 97 61 25
5 106 65 38 39 103
5 38 28 92 32 65
5 107 24 32 65 106
5 92 32 24 66 97
5 69 37 35 98 105
5 98 105 102 106 108
5 43 108 98 35 89
5 27 69 105 102 34
5 33 65 106 102 34
5 28 59 68 90 25
5 40 65 106 108 43
5 68 89 43 40 59
5 35 89 68 90 37
5 40 65 33 28 59
5 18 87 105 98 3
5 98 108 17 93 3
5 86 93 17 7 80
5 9 19 80 86 94
5 18 94 86 93 3
5 24 23 102 106 81
5 7 81 106 108 17
5 81 24 19 80 7
5 21 87 105 102 23
5 0 93 78 6 45
5 0 93 14 98 35
5 14 98 103 106 54
5 72 39 103 98 35
5 68 59 38 39 72
5 42 51 7 78 6
5 51 7 54 106 65
5 14 93 78 7 54
5 6 45 68 59 42
5 100 12 54 106 102
5 21 9 55 12 100
5 7 54 12 55 80
5 34 102 100 21 63
5 7 51 29 5 80
5 64 9 55 80 5
5 5 29 92 97 64
5 33 92 97 63 34
5 96 18 57 93 0
5 62 31 75 36 20
5 71 20 36 96 18
5 18 57 55 9 71
5 50 6 78 80 5
5 80 55 57 93 78
5 10 47 0 73 36
5 58 30 42 48 68
5 42 4 78 1 48
5 36 10 8 62 26
5 26 58 68 73 36
5 5 56 86 78 4
5 86 47 10 8 56
5 62 109 30 58 26
5 5 109 30 42 4
5 56 8 62 109 5
5 40 52 7 4 42
5 97 109 5 19 66
5 28 85 97 109 30
5 19 13 107 23 66
5 38 104 34 85 28
5 104 34 23 107 106
5 85 34 23 66 97
5 86 80 4 6 74
5 74 2 10 94 86
5 29 4 6 110 30
5 29 4 80 19 95
5 82 20 10 94 9
5 29 30 83 97 95
5 75 110 30 83 26
5 2 75 26 20 10
5 75 110 6 74 2
5 26 83 97 82 20
5 32 81 7 4 29
5 1 89 44 108 17
5 68 110 30 28 76
5 106 108 44 39 104
5 39 76 68 89 44
5 68 110 6 1 89
5 28 76 39 104 33
5 3 0 89 44 98
5 74 6 48 89 0
5 6 48 40 51 4
5 40 77 44 89 48
5 44 98 99 106 77
5 98 3 57 12 99
5 86 80 13 12 57
5 81 106 77 40 51
5 39 101 102 106 77
5 59 76 39 77 40
5 23 102 101 27 63
5 29 51 40 59 30
5 27 25 76 39 101
5 83 30 59 76 25
5 63 23 24 95 97
5 89 0 2 75 68
5 39 101 105 98 44
5 22 87 18 10 20
5 68 75 26 25 76
5 71 10 36 88 22
5 41 88 36 73 72
5 72 44 103 101 41
5 14 99 100 15 57
5 100 15 71 22 111
5 100 111 101 103 99
5 41 88 22 111 101
5 57 47 10 71 15
5 14 46 44 103 99
5 77 52 54 99 103
5 60 38 79 92 85
5 101 60 85 63 111
5 51 53 95 92 79
5 84 66 63 111 100
5 13 84 66 95 53
5 66 95 92 85 63
5 98 112 100 102 103
5 57 112 98 46 93
5 77 65 67 102 103
5 100 112 57 55 84
5 80 53 51 91 78
5 43 46 93 78 91
5 80 53 24 84 55
5 61 20 36 90 25
5 72 35 96 36 90
5 35 96 18 112 98
5 60 39 103 102 34
5 100 21 71 18 112
5 71 21 63 61 20
5 62 114 75 58 83
5 76 60 85 83 58
5 101 113 72 76 60
5 70 113 72 73 96
5 10 114 62 82 71
5 87 111 101 113 70
5 73 96 10 114 75
5 63 111 87 71 82
5 53 4 78 115 13
5 50 109 95 53 4
5 62 109 95 66 82
5 62 114 16 50 109
5 74 47 10 114 16
5 84 15 57 115 13
5 47 74 78 115 57
5 66 82 71 15 84
5 16 116 86 47 2
5 86 47 3 14 115
5 86 115 7 4 116
5 4 116 16 110 42
5 68 73 2 16 110
5 44 108 14 3 35
5 73 35 44 117 68
5 44 117 40 52 108
5 42 110 68 117 40
5 7 115 14 108 52
5 3 47 2 73 35
5 8 94 15 21 82
5 26 114 8 82 61
5 47 94 8 114 2
5 21 111 105 112 15
5 21 111 27 61 82
5 27 61 26 90 41
5 3 112 15 94 47
5 111 27 41 113 105
5 41 113 35 73 90
5 26 90 73 2 114
5 35 113 105 112 3
5 26 61 85 28 58
5 16 110 58 26 114
5 42 79 28 58 110
5 4 42 79 32 53
5 4 53 19 56 116
5 66 19 56 8 82
5 56 116 16 114 8
5 32 53 19 66 118
5 32 79 28 85 118
5 82 66 118 85 61
5 16 75 68 48 6
5 32 51 4 5 95
5 97 62 11 5 95
5 25 85 97 62 26
5 32 51 40 38 33
5 85 25 76 38 33
5 80 115 12 84 19
5 21 84 12 112 87
5 12 112 3 93 115
5 21 82 20 119 87
5 21 82 64 19 84
5 19 64 11 116 80
5 11 64 82 20 114
5 116 74 2 114 11
5 112 87 119 96 3
5 93 115 80 116 74
5 96 119 20 114 2
5 93 74 2 96 3
5 96 3 98 113 37
5 98 108 77 39 113
5 17 108 77 40 91
5 90 76 59 110 75
5 37 90 76 39 113
5 59 110 6 91 40
5 33 60 76 59 79
5 63 27 60 33 118
5 76 90 88 27 60
5 63 118 95 64 82
5 79 29 95 118 33
5 29 79 59 110 50
5 110 50 11 114 75
5 75 114 20 88 90
5 63 27 88 20 82
5 1 74 16 110 48
5 44 117 48 1 46
5 110 58 76 117 48
5 76 58 26 88 41
5 47 3 70 119 10
5 46 3 70 113 44
5 88 119 70 113 41
5 44 113 41 76 117
5 114 26 88 119 10
5 74 1 46 3 47
5 52 91 4 53 81
5 116 74 1 91 4
5 81 52 108 99 107
5 81 53 19 84 107
5 15 94 56 19 84
5 84 107 99 112 15
5 52 91 1 46 108
5 116 74 47 94 56
5 108 46 3 112 99
5 86 55 12 14 93
5 5 116 86 55 19
5 6 116 86 93 1
5 106 107 12 14 108
5 19 55 12 107 24
5 6 116 5 29 42
5 43 108 14 93 1
5 29 42 40 65 32
5 36 119 22 61 26
5 47 2 36 119 18
5 16 116 5 109 31
5 61 26 31 109 97
5 22 119 18 15 21
5 15 21 66 19 55
5 65 81 24 118 33
5 7 91 40 65 81
5 24 118 97 64 19
5 97 118 33 28 83
5 11 31 110 6 116
5 80 116 6 91 7
5 83 28 59 110 31
5 93 0 2 49 86
5 37 69 22 20 36
5 8 20 36 2 49
5 105 100 12 14 98
5 8 49 86 55 9
5 72 76 59 48 89
5 48 91 51 79 59
5 48 91 17 46 89
5 101 102 99 98 113
5 98 113 72 89 46
5 67 81 54 99 102
5 23 84 12 99 102
5 37 113 101 27 88
5 57 94 10 96 3
5 37 88 20 10 96
5 40 79 30 110 48
5 75 110 48 89 73
5 104 77 44 113 101
5 79 40 77 104 33
5 44 113 37 73 89
5 88 27 85 83 26
5 30 109 95 32 79
5 38 79 32 67 104
5 104 67 23 111 101
5 22 111 23 66 82
5 67 32 95 66 23
5 70 18 57 14 98
5 69 22 63 34 101
5 103 101 34 67 106
5 13 24 67 106 54
5 55 9 66 24 13
5 22 63 66 9 71
5 43 48 68 72 44
5 58 25 85 92 30
5 32 51 52 106 67
5 42 51 32 92 30
5 41 101 34 85 25
5 67 32 92 85 34
5 86 49 16 6 78
5 66 9 8 62 97
5 30 92 97 62 31
5 13 24 32 51 7
5 77 52 81 67 104
5 13 81 52 17 115
5 3 46 17 115 57
5 87 111 23 84 15
5 86 115 13 19 56
5 86 115 17 1 74
5 109 11 16 110 30
5 95 109 11 56 19
5 52 81 32 79 40
5 82 21 23 118 97
5 23 118 33 104 102
5 105 102 104 39 113
5 90 26 20 119 37
5 113 105 87 119 37
5 83 28 76 90 26
5 11 116 86 94 8
5 86 115 12 15 94
5 4 29 109 11 116
5 97 109 11 8 82
5 21 15 12 107 23
5 115 7 81 107 12
5 32 118 97 109 29
5 32 118 23 107 81
5 14 57 86 78 17
5 23 100 15 9 66
5 99 100 23 67 106
5 56 9 66 95 5
5 44 98 70 37 72
5 67 106 77 38 33
5 88 25 76 72 37
5 23 100 87 22 63
5 88 22 63 85 25
5 79 42 48 117 38
5 38 117 44 103 104
5 13 107 67 32 53
5 14 115 13 107 99
5 46 1 78 115 14
5 67 107 99 103 104
5 60 41 88 61 85
5 60 104 67 118 85
5 103 113 41 60 104
5 84 107 67 118 66
5 82 61 88 119 71
5 15 71 119 70 112
5 99 103 113 70 112
5 67 118 95 53 81
5 80 115 54 81 53
5 67 118 63 111 102
5 99 112 87 111 102
5 94 56 80 115 57
5 57 94 71 87 112
5 99 112 57 115 54
5 95 53 80 56 64
5 71 94 56 64 82
5 16 49 10 36 75
5 95 5 50 30 92
5 64 8 49 116 5
5 64 8 71 21 66
5 18 112 14 93 47
5 54 107 100 112 14
5 5 53 7 78 116
5 93 47 49 116 78
5 24 107 54 7 53
5 58 28 38 117 68
5 28 58 31 109 92
5 53 32 92 109 5
5 1 45 16 116 78
5 65 52 43 117 38
5 43 117 68 45 1
5 32 53 7 52 65
5 63 21 84 24 118
5 84 21 71 94 55
5 92 118 63 61 83
5 24 118 92 29 53
5 61 83 31 114 20
5 80 55 94 49 116
5 71 94 49 114 20
5 49 114 31 50 116
5 53 29 50 116 80
5 98 112 87 69 113
5 72 90 88 69 113
5 74 45 75 114 49
5 93 46 89 45 74
5 81 65 77 108 54
5 77 65 79 59 117
5 108 77 117 89 46
5 81 53 29 79 65
5 115 93 46 108 54
5 50 116 74 45 110
5 89 117 59 110 45
5 78 6 48 43 17
5 50 6 48 59 30
5 54 17 43 77 106
5 59 30 92 33 38
5 13 24 95 5 80
5 22 119 10 8 82
5 22 119 70 105 111
5 107 99 105 111 23
5 72 37 96 0 89
5 49 11 62 20 10
5 43 17 93 0 89
5 69 101 39 72 37
5 87 18 57 12 100
5 22 119 37 41 27
5 2 73 37 119 10
5 41 27 85 28 76
5 18 119 37 35 3
5 27 41 39 104 34
5 80 5 11 49 86
5 43 17 7 51 40
5 68 75 31 30 59
5 36 75 68 72 37
5 97 62 20 22 63
5 39 38 33 34 101
5 73 35 70 119 36
5 22 111 34 85 61
5 105 103 104 34 111
5 108 99 12 115 17
5 99 108 44 113 105
5 87 119 10 94 15
5 89 73 2 74 1
5 20 119 18 94 8
5 68 90 26 31 110
5 89 1 93 3 35
5 37 70 18 10 36
5 44 98 14 17 43
5 10 18 57 86 49
5 31 110 42 29 109
5 32 65 104 34 118
5 34 118 97 61 27
5 90 41 39 117 68
5 40 117 39 104 65
5 36 114 62 61 88
5 49 114 36 96 47
5 70 112 100 111 69
5 63 61 88 69 111
5 49 114 62 64 56
5 57 47 96 70 112
5 66 64 56 55 84
5 48 91 78 74 45
5 92 83 58 59 79
5 55 56 8 71 15
5 61 85 92 109 62
5 34 111 100 107 67
5 34 101 105 100 23
5 12 13 24 23 100
5 48 117 72 73 45
5 36 114 16 45 73
5 60 41 72 117 38
5 92 109 50 42 79
5 60 41 69 111 34
5 43 46 35 72 117
5 70 112 14 46 35
5 67 107 54 52 65
5 21 66 118 34 111
5 7 53 19 55 115
5 105 112 14 108 103
5 115 55 15 112 14
5 103 108 52 65 104
5 102 111 27 60 104
5 61 83 28 60 27
5 79 28 60 104 65
5 19 53 29 109 64
5 79 29 109 83 28
5 82 64 109 83 61
5 81 107 102 104 65
5 21 111 102 107 84
5 108 99 102 104 77
5 77 117 76 60 104
5 90 76 117 89 73
5 87 119 88 27 111
5 73 96 119 88 90
5 3 96 73 89 46
5 19 64 8 94 55
5 109 64 8 114 31
5 29 53 7 91 42
5 1 93 115 7 91
5 110 45 2 114 31
5 115 55 94 47 93
5 42 91 1 45 110
5 2 45 1 93 47
5 12 112 105 102 107
5 35 113 39 117 89
5 40 91 1 89 117
5 50 4 91 48 110
5 117 77 52 91 48
5 58 110 50 109 83
5 85 118 95 109 83
5 80 115 17 91 4
5 10 114 11 56 94
5 8 114 36 119 71
5 56 55 115 78 116
5 35 46 1 45 73
5 27 85 118 23 111
5 28 79 40 117 76
5 45 2 36 90 68
5 97 64 8 20 61
5 6 116 49 2 45
5 92 28 59 42 29
5 83 109 11 114 26
5 19 84 23 118 95
5 4 91 40 79 29
5 90 58 31 114 36
5 72 117 59 58 90
5 50 116 78 91 42
5 42 91 43 117 59
5 35 46 93 47 96
5 103 113 72 117 77
5 52 91 78 115 54
5 96 47 74 45 73
5 41 90 36 119 69
5 112 105 69 119 18
5 39 117 43 108 103
5 12 112 98 108 54
5 18 112 12 55 94
5 91 7 54 108 43
5 89 35 96 2 45
5 21 111 69 119 71
5 103 113 69 111 102
5 35 96 119 69 113
5 102 107 54 108 103
5 55 115 54 107 84
5 96 47 94 71 119
5 108 103 113 35 46
5 88 61 83 58 90
5 92 118 67 65 79
5 109 64 66 118 92
5 50 116 56 64 109
5 52 65 79 42 91
5 110 45 73 90 58
5 41 90 58 28 60
5 60 28 92 118 34
5 27 61 20 119 69
5 69 113 39 60 27
5 28 60 39 117 59
5 102 107 24 118 34

# Cells
12 0 1 2 3 4 5 6 7 8 9 10 11
12 7 12 13 14 15 16 17 18 19 20 21 22
12 0 18 23 24 25 26 27 28 29 30 31 32
12 33 34 35 36 37 38 39 40 41 42 43 44
12 40 45 46 47 48 49 50 51 52 53 54 55
12 34 45 56 57 58 59 60 61 62 63 64 65
12 66 67 68 69 70 71 72 73 74 75 76 77
12 76 78 79 80 81 82 83 84 85 86 87 88
12 68 83 89 90 91 92 93 94 95 96 97 98
12 99 100 101 102 103 104 105 106 107 108 109 110
12 106 111 112 113 114 115 116 117 118 119 120 121
12 107 118 122 123 124 125 126 127 128 129 130 131
12 67 86 132 133 134 135 136 137 138 139 140 141
12 102 117 137 142 143 144 145 146 147 148 149 150
12 33 46 132 143 151 152 153 154 155 156 157 158
12 1 89 159 160 161 162 163 164 165 166 167 168
12 10 95 166 169 170 171 172 173 174 175 176 177
12 23 57 178 179 180 181 182 183 184 185 186 187
12 29 61 183 188 189 190 191 192 193 194 195 196
12 19 123 197 198 199 200 201 202 203 204 205 206
12 14 126 198 207 208 209 210 211 212 213 214 215
12 52 56 193 216 217 218 219 220 221 222 223 224
12 105 125 201 222 225 226 227 228 229 230 231 232
12 51 108 147 151 216 230 233 234 235 236 237 238
12 159 178 239 240 241 242 243 244 245 246 247 248
12 4 30 164 184 247 249 250 251 252 253 254 255
12 173 210 256 257 258 259 260 261 262 263 264 265
12 5 21 172 213 258 266 267 268 269 270 271 272
12 78 90 169 256 273 274 275 276 277 278 279 280
12 114 128 212 261 280 281 282 283 284 285 286 287
12 2 17 174 207 263 270 273 285 288 289 290 291
12 35 66 239 292 293 294 295 296 297 298 299 300
12 39 73 138 158 297 301 302 303 304 305 306 307
12 53 100 146 157 238 308 309 310 311 312 313 314
12 49 103 219 228 235 308 315 316 317 318 319 320
12 71 85 141 303 321 322 323 324 325 326 327 328
12 77 299 306 325 329 330 331 332 333 334 335 336
12 249 337 338 339 340 341 342 343 344 345 346 347
12 347 348 349 350 351 352 353 354 355 356 357 358
12 340 349 359 360 361 362 363 364 365 366 367 368
12 3 93 160 177 275 291 369 370 371 372 373 374
12 375 376 377 378 379 380 381 382 383 384 385 386
12 116 130 208 264 282 386 387 388 389 390 391 392
12 121 381 390 393 394 395 396 397 398 399 400 401
12 333 360 402 403 404 405 406 407 408 409 410 411
12 354 363 411 412 413 414 415 416 417 418 419 420
12 16 31 195 203 421 422 423 424 425 426 427 428
12 26 180 191 250 337 422 429 430 431 432 433 434
12 131 206 214 380 392 435 436 437 438 439 440 441
12 12 24 188 197 217 226 421 442 443 444 445 446
12 80 115 135 145 323 393 447 448 449 450 451 452
12 87 112 260 278 283 387 401 450 453 454 455 456
12 82 98 175 262 276 454 457 458 459 460 461 462
12 70 94 163 246 298 331 405 463 464 465 466 467
12 41 55 60 156 218 236 468 469 470 471 472 473
12 36 58 185 240 294 470 474 475 476 477 478 479
12 27 63 179 196 221 446 472 477 480 481 482 483
12 74 81 97 326 334 407 459 465 484 485 486 487
12 92 161 171 402 457 463 485 488 489 490 491 492
12 215 265 272 378 391 438 493 494 495 496 497 498
12 266 339 348 493 499 500 501 502 503 504 505 506
12 75 91 162 244 295 370 467 476 507 508 509 510
12 72 88 96 134 277 374 509 511 512 513 514 515
12 241 300 329 362 403 464 516 517 518 519 520 521
12 336 368 408 417 521 522 523 524 525 526 527 528
12 328 396 452 529 530 531 532 533 534 535 536 537
12 38 69 139 154 292 307 473 475 510 515 538 539
12 54 65 190 223 319 540 541 542 543 544 545 546
12 59 186 194 431 544 547 548 549 550 551 552 553
12 110 314 320 554 555 556 557 558 559 560 561 562
12 104 120 144 309 400 451 534 560 563 564 565 566
12 384 398 530 562 566 567 568 569 570 571 572 573
12 136 150 152 237 471 512 539 574 575 576 577 578
12 167 245 252 338 364 406 466 488 519 579 580 581
12 84 119 133 148 274 286 447 456 513 575 582 583
12 99 111 122 142 225 233 281 576 582 584 585 586
12 8 168 176 251 268 341 490 502 579 587 588 589
12 11 15 32 254 269 342 424 433 503 587 590 591
12 20 129 204 209 229 284 288 442 584 592 593 594
12 220 232 234 443 469 482 577 585 594 595 596 597
12 187 243 253 343 359 429 517 547 580 598 599 600
12 170 257 267 461 489 497 500 588 601 602 603 604
12 13 205 211 271 423 439 496 499 590 605 606 607
12 369 468 474 480 507 511 538 574 595 608 609 610
12 345 353 428 432 505 591 606 611 612 613 614 615
12 43 50 155 305 311 616 617 618 619 620 621 622
12 140 149 153 304 312 321 448 536 565 620 623 624
12 42 64 182 248 296 479 518 549 599 625 626 627
12 6 25 165 181 242 255 372 478 481 508 608 628
12 9 22 28 289 373 445 483 593 597 609 628 629
12 37 293 302 332 516 522 616 626 630 631 632 633
12 44 48 62 543 551 618 627 632 634 635 636 637
12 346 351 366 434 553 600 612 638 639 640 641 642
12 352 379 415 570 643 644 645 646 647 648 649 650
12 383 395 420 532 569 643 651 652 653 654 655 656
12 350 611 639 646 657 658 659 660 661 662 663 664
12 358 377 436 495 504 607 615 649 660 665 666 667
12 322 330 404 412 484 523 529 652 668 669 670 671
12 79 327 399 449 455 458 486 533 656 668 672 673
12 365 520 527 550 598 625 631 636 641 674 675 676
12 344 355 367 409 414 492 506 581 589 602 677 678
12 279 287 290 371 514 578 583 586 592 596 610 629
12 192 202 224 231 315 426 444 540 679 680 681 682
12 410 416 462 487 491 603 654 671 673 677 683 684
12 259 375 389 397 453 460 494 601 651 672 684 685
12 357 382 413 498 501 604 647 653 667 678 683 685
12 47 313 316 545 561 617 635 686 687 688 689 690
12 301 324 335 528 535 621 623 630 669 691 692 693
12 189 427 430 542 552 614 640 664 679 694 695 696
12 109 127 199 227 317 440 559 681 697 698 699 700
12 555 571 650 662 690 701 702 703 704 705 706 707
12 310 531 556 564 568 619 624 687 691 702 708 709
12 525 622 633 637 675 688 692 705 709 710 711 712
12 419 526 537 572 648 655 670 693 706 708 711 713
12 356 361 418 524 642 645 663 676 707 712 713 714
12 541 548 634 638 658 674 686 694 701 710 714 715
12 385 441 558 573 644 661 666 700 703 716 717 718
12 318 546 557 659 682 689 696 699 704 715 718 719
12 200 425 437 605 613 657 665 680 695 698 716 719
12 101 113 124 376 388 394 435 554 563 567 697 717
