# Generated using Miratope v0.5.0 (https://github.com/galoomba1/miratope-rs)
4OFF

# Vertices, Faces, Edges, Cells
120 2520 1200 720

# Vertices
0.809016994374945 -0.809016994374945 -0.809016994374945 0.809016994374945 
0 -1.61803398874989 0 0 
0 0 -1.61803398874989 0 
0.809016994374945 0 0.5 1.30901699437495 
-0.809016994374945 -0.809016994374945 -0.809016994374945 -0.809016994374945 
-1.30901699437495 0.5 0 -0.809016994374945 
0 -0.809016994374945 1.30901699437495 0.5 
-0.5 1.30901699437495 -0.809016994374945 0 
0 1.30901699437495 0.5 0.809016994374945 
-0.809016994374945 0.5 1.30901699437495 0 
0.809016994374945 -0.809016994374945 0.809016994374945 0.809016994374945 
-0.809016994374945 -0.809016994374945 0.809016994374945 0.809016994374945 
0.809016994374945 0.5 1.30901699437495 0 
-0.809016994374945 -0.809016994374945 -0.809016994374945 0.809016994374945 
0.809016994374945 0.5 -1.30901699437495 0 
-0.809016994374945 0.5 -1.30901699437495 0 
0.809016994374945 1.30901699437495 0 -0.5 
-0.809016994374945 1.30901699437495 0 -0.5 
0.809016994374945 -0.809016994374945 0.809016994374945 -0.809016994374945 
0.809016994374945 -0.809016994374945 -0.809016994374945 -0.809016994374945 
-0.809016994374945 -0.809016994374945 0.809016994374945 -0.809016994374945 
1.30901699437495 0 0.809016994374945 0.5 
1.30901699437495 0 -0.809016994374945 0.5 
-1.30901699437495 0 0.809016994374945 0.5 
-1.30901699437495 0 -0.809016994374945 0.5 
0 0.5 0.809016994374945 1.30901699437495 
0 0.5 -0.809016994374945 1.30901699437495 
-0.809016994374945 0.809016994374945 -0.809016994374945 0.809016994374945 
-0.809016994374945 0.809016994374945 -0.809016994374945 -0.809016994374945 
0 1.30901699437495 0.5 -0.809016994374945 
0 -1.30901699437495 0.5 0.809016994374945 
0 -1.30901699437495 0.5 -0.809016994374945 
0.5 0 1.30901699437495 0.809016994374945 
0.5 0 1.30901699437495 -0.809016994374945 
0.809016994374945 0.809016994374945 -0.809016994374945 0.809016994374945 
0.809016994374945 0.809016994374945 -0.809016994374945 -0.809016994374945 
-0.5 0.809016994374945 0 1.30901699437495 
-0.5 0.809016994374945 0 -1.30901699437495 
-0.5 -0.809016994374945 0 1.30901699437495 
-0.5 -0.809016994374945 0 -1.30901699437495 
-1.30901699437495 0.809016994374945 0.5 0 
-1.30901699437495 -0.809016994374945 0.5 0 
0 0 1.61803398874989 0 
1.30901699437495 0.5 0 -0.809016994374945 
-0.809016994374945 0 -0.5 1.30901699437495 
0.5 1.30901699437495 0.809016994374945 0 
0 -0.809016994374945 -1.30901699437495 0.5 
0 1.30901699437495 -0.5 0.809016994374945 
-0.809016994374945 0.809016994374945 0.809016994374945 -0.809016994374945 
-1.61803398874989 0 0 0 
0 0 0 -1.61803398874989 
0 0.809016994374945 1.30901699437495 0.5 
0.5 -1.30901699437495 -0.809016994374945 0 
-0.809016994374945 0 0.5 1.30901699437495 
1.30901699437495 -0.5 0 -0.809016994374945 
0.5 -0.809016994374945 0 1.30901699437495 
0 0 0 1.61803398874989 
0.5 1.30901699437495 -0.809016994374945 0 
0 -0.809016994374945 1.30901699437495 -0.5 
1.30901699437495 0.5 0 0.809016994374945 
-0.809016994374945 0 0.5 -1.30901699437495 
1.30901699437495 0 0.809016994374945 -0.5 
0.5 0.809016994374945 0 -1.30901699437495 
0.809016994374945 0.809016994374945 0.809016994374945 0.809016994374945 
1.61803398874989 0 0 0 
-0.5 1.30901699437495 0.809016994374945 0 
0 -0.809016994374945 -1.30901699437495 -0.5 
0.809016994374945 0 -0.5 -1.30901699437495 
-1.30901699437495 0.5 0 0.809016994374945 
-1.30901699437495 0 -0.809016994374945 -0.5 
0 0.809016994374945 -1.30901699437495 0.5 
-0.5 -1.30901699437495 0.809016994374945 0 
0.809016994374945 0 -0.5 1.30901699437495 
-1.30901699437495 -0.5 0 -0.809016994374945 
0 1.61803398874989 0 0 
0.809016994374945 0 0.5 -1.30901699437495 
-1.30901699437495 -0.5 0 0.809016994374945 
0 0.809016994374945 1.30901699437495 -0.5 
-0.5 -1.30901699437495 -0.809016994374945 0 
-0.809016994374945 -0.5 1.30901699437495 0 
-0.809016994374945 0.809016994374945 0.809016994374945 0.809016994374945 
0.5 0.809016994374945 0 1.30901699437495 
0.5 -0.809016994374945 0 -1.30901699437495 
1.30901699437495 0.809016994374945 -0.5 0 
1.30901699437495 -0.809016994374945 -0.5 0 
0.809016994374945 0.809016994374945 0.809016994374945 -0.809016994374945 
0 1.30901699437495 -0.5 -0.809016994374945 
0 -1.30901699437495 -0.5 0.809016994374945 
0 -1.30901699437495 -0.5 -0.809016994374945 
-0.5 0 -1.30901699437495 0.809016994374945 
-0.5 0 -1.30901699437495 -0.809016994374945 
1.30901699437495 0 -0.809016994374945 -0.5 
-1.30901699437495 0 0.809016994374945 -0.5 
0 -0.5 0.809016994374945 -1.30901699437495 
0 -0.5 -0.809016994374945 -1.30901699437495 
0.809016994374945 -0.5 1.30901699437495 0 
0.809016994374945 -0.5 -1.30901699437495 0 
-0.809016994374945 -0.5 -1.30901699437495 0 
0.809016994374945 -1.30901699437495 0 0.5 
-0.809016994374945 -1.30901699437495 0 0.5 
1.30901699437495 -0.5 0 0.809016994374945 
-0.809016994374945 0 -0.5 -1.30901699437495 
0 0.809016994374945 -1.30901699437495 -0.5 
0.5 -1.30901699437495 0.809016994374945 0 
-0.809016994374945 1.30901699437495 0 0.5 
1.30901699437495 -0.809016994374945 0.5 0 
0.809016994374945 1.30901699437495 0 0.5 
-1.30901699437495 -0.809016994374945 -0.5 0 
-0.5 0 1.30901699437495 0.809016994374945 
0 0.5 -0.809016994374945 -1.30901699437495 
0 -0.5 -0.809016994374945 1.30901699437495 
-0.5 0 1.30901699437495 -0.809016994374945 
0.809016994374945 -1.30901699437495 0 -0.5 
-1.30901699437495 0.809016994374945 -0.5 0 
1.30901699437495 0.809016994374945 0.5 0 
-0.809016994374945 -1.30901699437495 0 -0.5 
0 -0.5 0.809016994374945 1.30901699437495 
0.5 0 -1.30901699437495 -0.809016994374945 
0 0.5 0.809016994374945 -1.30901699437495 
0.5 0 -1.30901699437495 0.809016994374945 

# Faces
4 1 0 2 4
4 0 3 6 1
5 3 0 2 7 8
5 1 6 9 5 4
4 4 5 7 2
4 3 6 9 8
4 8 7 5 9
4 0 10 11 13
5 10 0 14 16 12
4 11 10 12 9
4 0 14 15 13
5 13 11 9 17 15
4 16 17 9 12
4 17 15 14 16
4 19 4 20 18
4 19 18 21 22
5 20 23 25 21 18
5 19 4 24 26 22
4 4 20 23 24
4 25 26 22 21
4 25 26 24 23
4 28 4 13 27
4 28 29 8 27
5 13 30 32 8 27
5 4 28 29 33 31
4 13 30 31 4
4 32 8 29 33
4 33 32 30 31
4 35 34 0 19
5 35 37 40 36 34
4 34 36 38 0
4 35 37 39 19
5 0 19 39 41 38
4 38 41 40 36
4 37 39 41 40
4 42 11 1 18
4 18 42 45 43
5 18 1 46 14 43
5 11 42 45 47 44
4 11 44 46 1
4 45 43 14 47
4 47 44 46 14
4 48 49 4 50
4 49 48 51 53
5 51 48 50 54 21
5 4 49 53 55 52
4 50 4 52 54
4 21 55 53 51
4 55 52 54 21
4 27 56 11 49
4 56 27 57 59
5 49 60 62 57 27
5 11 58 61 59 56
4 49 11 58 60
4 61 59 57 62
4 58 60 62 61
4 63 56 0 64
5 63 65 37 67 64
4 63 65 68 56
4 0 64 67 66
5 56 0 66 69 68
4 65 68 69 37
4 67 37 69 66
4 64 35 50 18
4 64 35 70 72
5 35 50 73 24 70
5 64 72 38 71 18
4 50 18 71 73
4 38 72 70 24
4 71 73 24 38
4 35 2 27 74
4 74 77 75 35
5 2 35 75 31 78
5 77 74 27 76 79
4 27 76 78 2
4 77 75 31 79
4 76 78 31 79
4 80 48 20 11
5 48 62 83 81 80
4 80 11 55 81
4 20 48 62 82
5 11 20 82 84 55
4 83 84 55 81
4 83 84 82 62
4 63 10 18 85
4 85 86 47 63
5 63 10 87 89 47
5 18 88 90 86 85
4 10 87 88 18
4 47 86 90 89
4 89 87 88 90
4 63 80 27 34
4 63 34 91 61
5 63 80 92 93 61
5 91 34 27 69 94
4 80 92 69 27
4 91 94 93 61
4 92 69 94 93
4 85 35 28 48
5 35 96 98 95 85
4 85 95 79 48
4 28 35 96 97
5 48 28 97 99 79
4 95 98 99 79
4 98 99 97 96
4 74 63 42 48
5 74 102 96 100 63
4 63 42 103 100
4 74 48 101 102
5 48 101 88 103 42
4 103 100 96 88
4 96 88 101 102
4 20 1 13 49
5 49 20 33 45 104
4 20 1 105 33
4 13 26 104 49
5 1 105 59 26 13
4 45 33 105 59
4 59 45 104 26
4 10 1 19 64
4 64 10 25 106
5 10 1 107 68 25
5 64 19 90 7 106
4 19 90 107 1
4 25 68 7 106
4 68 107 90 7
4 34 56 13 2
5 16 34 56 108 77
4 2 109 16 34
4 56 108 41 13
5 13 41 60 109 2
4 16 77 60 109
4 77 60 41 108
4 2 28 50 19
4 19 98 110 2
5 50 19 98 6 111
5 28 40 53 110 2
4 50 111 40 28
4 6 53 110 98
4 6 53 40 111
4 64 85 74 34
4 64 112 93 85
5 85 93 73 113 74
5 34 64 112 78 89
4 34 89 113 74
4 89 113 73 78
4 112 93 73 78
4 74 28 49 80
4 80 32 114 74
5 80 49 115 103 32
5 114 74 28 94 54
4 49 28 94 115
4 114 54 103 32
4 103 115 94 54
4 85 50 20 42
5 83 85 42 116 72
4 85 83 117 50
4 42 20 99 116
5 99 20 50 117 46
4 83 72 46 117
4 116 72 46 99
4 42 80 56 10
5 84 10 42 118 67
4 56 10 84 119
4 80 17 118 42
5 80 17 102 119 56
4 119 102 67 84
4 118 67 102 17
4 42 21 106 65
4 21 42 71 98
5 42 71 107 113 65
5 106 70 46 98 21
4 106 70 113 65
4 98 46 107 71
4 113 70 46 107
4 27 40 51 81
5 27 97 52 100 81
4 27 97 73 40
4 51 95 100 81
5 40 51 95 31 73
4 100 52 31 95
4 31 73 97 52
4 63 10 58 77
4 47 63 77 17
4 10 58 115 87
4 17 47 89 69
5 77 58 115 69 17
4 87 89 69 115
4 49 80 47 15
4 80 32 59 47
4 115 66 15 49
4 59 32 103 84
5 84 59 47 15 66
4 103 115 66 84
4 28 48 45 57
4 48 79 32 45
4 28 97 119 57
5 57 45 32 55 119
4 99 55 32 79
4 99 55 119 97
4 42 48 104 25
4 48 101 15 104
4 25 42 103 55
5 104 15 46 55 25
4 55 103 88 46
4 101 15 46 88
4 74 40 108 63
4 63 100 30 108
4 74 40 69 102
4 100 30 78 96
5 30 108 40 69 78
4 102 96 78 69
4 72 10 108 36
4 10 72 96 112
5 10 108 92 39 112
5 36 72 96 90 113
4 36 113 92 108
4 113 90 39 92
4 112 96 90 39
5 74 51 116 110 70
4 74 51 111 37
4 70 90 37 74
4 51 116 71 111
4 116 71 78 110
5 111 37 90 78 71
4 70 90 78 110
5 104 81 22 117 28
4 28 73 23 104
4 117 88 73 28
4 81 116 98 22
4 116 81 104 23
5 23 73 88 98 116
4 22 117 88 98
4 11 25 65 92
4 25 11 87 72
5 87 11 92 101 66
5 25 65 86 14 72
4 72 14 66 87
4 86 101 92 65
4 86 101 66 14
4 56 80 79 30
4 17 60 79 80
4 119 56 30 52
4 102 17 60 94
5 30 79 60 94 52
4 119 52 94 102
4 64 34 8 12
4 34 8 68 89
4 64 112 58 12
5 12 58 41 68 8
4 58 112 78 41
4 89 68 41 78
4 18 98 3 12
5 65 12 18 39 5
4 98 78 39 18
4 3 36 65 12
5 3 36 24 78 98
4 65 5 24 36
4 24 5 39 78
4 114 34 7 29
5 114 34 110 30 95
4 7 34 110 24
4 95 111 29 114
4 95 111 41 30
5 111 29 7 24 41
4 110 30 41 24
4 57 2 24 104
5 2 52 105 114 57
4 2 24 99 52
4 114 51 6 105
4 51 104 57 114
5 51 6 99 24 104
4 6 105 52 99
4 6 20 118 12
4 6 38 107 20
5 20 107 15 86 118
5 12 106 26 38 6
4 106 86 118 12
4 26 106 86 15
4 26 38 107 15
4 56 0 105 32
4 66 82 105 0
4 56 68 9 32
5 9 32 105 82 60
4 9 68 69 60
4 60 69 66 82
4 49 17 109 4
4 52 4 109 91
4 49 17 8 53
4 53 8 59 55
5 59 8 17 109 91
4 55 52 91 59
4 20 5 68 11
4 11 55 26 68
4 82 109 5 20
4 84 14 26 55
5 14 26 68 5 109
4 82 109 14 84
4 20 9 29 50
4 20 99 53 9
4 117 57 29 50
5 9 29 57 26 53
4 46 26 53 99
4 26 46 117 57
4 34 3 53 27
4 34 3 105 91
4 69 41 53 27
5 105 31 41 53 3
4 94 31 105 91
4 69 41 31 94
5 35 29 51 3 22
4 22 35 90 46
4 29 35 90 5
4 3 51 23 38
4 22 46 38 3
4 51 29 5 23
5 38 46 90 5 23
4 38 108 58 1
4 38 89 66 1
5 58 1 66 109 118
5 7 65 108 38 89
4 65 108 58 118
4 7 109 118 65
4 89 7 109 66
4 85 21 81 74
4 85 93 103 21
4 113 44 81 74
5 21 81 44 99 103
4 113 44 99 73
4 93 73 99 103
4 74 83 119 27
4 76 87 119 27
4 83 74 77 61
5 103 61 83 119 87
4 77 61 103 79
4 79 103 87 76
4 63 80 44 72
4 61 84 72 63
4 92 107 44 80
4 61 93 88 84
5 72 84 88 107 44
4 92 93 88 107
4 100 83 47 56
5 56 76 115 112 100
4 56 76 113 47
4 83 100 112 67
5 47 83 67 101 113
4 113 76 115 101
4 67 101 115 112
4 80 48 73 76
4 80 81 110 76
4 48 62 94 73
4 81 110 96 83
4 62 83 96 94
5 76 110 96 94 73
5 23 48 86 70 44
4 86 67 93 48
4 48 23 71 93
4 44 87 71 23
4 70 96 87 44
4 70 96 67 86
5 67 96 87 71 93
4 83 54 95 63
4 63 83 70 36
5 95 63 36 76 71
5 54 88 97 70 83
4 95 71 88 54
4 70 97 76 36
4 76 97 88 71
4 80 77 95 116
4 80 77 37 113
5 116 87 97 113 80
5 77 95 112 94 37
4 95 116 87 112
4 37 94 97 113
4 112 94 97 87
4 85 42 92 37
4 85 37 102 83
4 42 116 76 92
4 72 89 102 83
4 72 116 76 89
5 76 89 102 37 92
4 116 21 45 80
4 113 86 45 80
5 21 84 117 86 45
4 116 21 84 87
4 97 117 84 87
4 113 86 117 97
4 42 11 115 93
4 44 97 115 11
4 45 42 93 62
4 47 102 62 45
4 44 97 102 47
5 62 102 97 115 93
4 49 44 116 79
4 49 79 93 101
5 49 44 119 117 101
5 116 79 93 54 100
4 116 44 119 100
4 100 54 117 119
4 54 93 101 117
4 100 114 8 56
4 76 40 8 56
5 114 8 40 60 75
4 112 75 114 100
4 76 115 60 40
4 112 75 60 115
4 64 16 118 18
4 18 71 92 118
4 72 47 16 64
5 16 47 68 92 118
4 72 47 68 38
4 38 68 92 71
4 106 85 54 22
5 85 106 36 23 111
4 85 54 31 111
4 36 110 22 106
4 36 23 99 110
5 110 22 54 31 99
4 111 31 99 23
4 74 36 24 28
4 78 94 28 24
4 114 3 36 74
4 98 54 114 3
4 94 78 98 54
4 85 106 14 67
4 85 67 39 111
4 36 106 14 89
4 23 107 89 36
4 111 23 107 39
5 14 89 107 39 67
5 0 30 58 75 91
4 91 102 89 0
4 76 30 0 89
4 37 75 91 102
4 58 92 37 75
4 58 92 76 30
4 99 4 15 44
4 4 99 103 82
5 4 82 43 57 15
4 21 81 57 43
4 21 43 82 103
4 81 57 15 44
4 13 52 103 11
4 11 9 33 103
4 13 52 117 15
4 9 33 62 17
5 33 62 117 52 103
4 17 15 117 62
4 49 9 25 44
4 49 101 118 9
5 25 59 43 118 9
4 25 44 119 59
4 119 59 43 117
4 43 117 101 118
4 27 102 66 13
4 8 27 102 16
4 13 66 112 30
4 8 16 61 32
4 61 32 30 112
5 61 16 102 66 112
4 35 50 33 114
4 35 70 81 114
4 50 33 79 73
5 81 53 79 33 114
4 53 24 70 81
4 79 73 24 53
4 38 10 42 23
4 46 84 10 38
4 42 23 5 118
4 90 67 84 46
4 90 67 118 5
5 43 50 5 104 106
4 43 84 88 50
4 5 107 88 50
4 84 43 106 72
4 72 44 104 106
4 44 107 5 104
4 110 27 49 99
4 27 110 22 57
4 31 60 49 99
4 57 22 54 62
4 60 31 54 62
4 47 119 13 68
4 68 13 115 92
5 13 115 82 91 119
4 47 119 91 16
4 16 91 82 118
4 118 82 115 92
4 10 1 82 61
4 10 61 45 25
4 1 82 101 107
4 25 68 17 45
5 61 82 101 17 45
4 68 107 101 17
4 53 13 119 81
4 79 115 13 53
4 119 81 114 91
4 91 114 33 82
4 115 79 33 82
4 48 86 43 33
4 23 6 33 48
5 43 33 6 55 22
4 43 86 70 22
4 55 44 70 22
4 6 23 44 55
4 16 63 95 75
4 36 7 16 63
5 7 69 39 75 16
4 95 75 39 71
4 76 69 7 36
4 76 71 39 69
4 7 35 85 65
4 85 65 108 95
4 35 7 89 96
4 108 95 98 38
4 96 89 38 98
5 64 75 111 108 3
4 110 3 64 96
4 75 94 96 64
4 76 108 3 110
4 76 108 111 73
4 73 111 75 94
4 18 6 51 85
4 85 51 104 86
4 88 99 6 18
4 104 86 90 24
4 99 88 90 24
4 107 11 56 89
4 58 39 107 11
4 14 59 56 89
4 61 67 14 59
4 39 58 61 67
4 2 28 62 91
4 40 77 62 28
4 2 110 100 91
5 32 77 62 91 100
4 53 32 100 110
4 77 40 53 32
4 13 69 39 1
4 26 7 69 13
4 39 1 105 75
4 105 75 16 59
4 26 7 16 59
4 1 41 111 18
4 43 29 111 18
4 41 1 46 24
4 29 43 14 7
4 14 7 24 46
4 60 4 19 75
4 114 22 19 75
4 24 40 60 4
4 114 22 26 8
4 24 40 8 26
4 31 50 43 105
4 50 31 41 5
4 3 106 43 105
4 53 104 106 3
4 104 53 41 5
4 59 0 19 43
4 25 38 0 59
4 39 118 43 19
4 9 41 38 25
4 9 41 39 118
4 91 57 26 0
4 0 26 53 30
4 53 30 58 9
4 29 75 58 9
4 75 29 57 91
4 15 68 41 4
4 41 4 82 58
4 12 43 57 8
4 58 82 43 12
4 68 15 57 8
4 105 55 46 19
5 105 19 109 29 12
4 46 15 109 19
4 55 105 12 25
4 25 12 29 104
4 104 29 109 15
4 2 22 55 13
4 6 41 13 55
4 22 2 109 43
4 33 60 109 43
4 6 41 60 33
4 30 105 19 78
4 78 19 109 69
4 105 30 108 12
4 108 12 29 40
4 29 40 69 109
4 35 106 26 2
4 106 35 75 12
4 38 78 2 26
4 75 12 6 31
4 78 38 6 31
4 26 3 64 14
4 75 109 14 64
4 68 108 3 26
4 68 108 111 5
4 75 109 5 111
4 49 97 88 20
4 54 33 20 88
4 70 104 49 97
4 104 70 83 45
4 83 45 33 54
4 45 81 27 17
4 17 27 97 101
4 81 45 61 100
4 61 100 52 82
4 52 82 101 97
4 103 20 118 61
4 20 103 87 107
4 118 61 83 86
4 15 119 83 86
4 107 87 119 15
4 65 16 61 42
4 61 42 71 112
4 65 16 102 113
4 66 107 113 102
4 71 112 66 107
4 62 114 34 102
4 97 110 34 102
4 95 93 62 114
4 30 115 93 95
4 110 97 115 30
4 50 90 113 48
4 48 113 36 51
4 50 90 96 54
4 72 21 51 36
4 54 96 72 21
4 116 63 64 98
4 63 116 23 65
4 64 98 88 67
4 65 23 73 37
4 88 67 37 73
4 100 34 35 54
4 36 116 100 34
4 54 35 37 93
4 36 116 79 40
4 79 40 37 93
4 56 87 96 34
4 16 67 96 34
4 71 108 56 87
4 93 77 16 67
4 93 77 108 71
4 67 18 20 101
4 83 21 18 67
4 113 23 20 101
4 25 47 83 21
4 23 113 47 25
4 32 11 92 77
4 11 32 100 87
4 100 87 66 91
4 77 92 101 62
4 62 101 66 91
4 51 33 62 74
4 74 62 117 70
4 51 33 103 116
4 116 103 52 110
4 52 110 70 117
4 2 69 17 57
4 115 52 2 69
4 58 105 114 77
4 77 114 57 17
4 52 115 58 105
4 12 59 84 18
4 84 18 39 66
4 65 47 59 12
4 47 65 5 15
4 66 39 5 15
4 4 46 70 28
4 29 106 70 28
4 31 98 46 4
4 29 106 21 33
4 33 21 98 31
4 19 31 95 64
4 90 73 31 19
4 64 95 51 106
4 51 106 7 40
4 7 40 73 90
4 71 10 0 78
4 10 71 111 12
4 78 0 14 90
4 16 37 111 12
4 16 37 90 14
4 112 0 2 94
4 0 112 95 3
4 7 37 94 2
4 77 8 3 95
4 37 7 8 77
4 117 4 1 84
4 117 4 5 86
4 1 84 21 6
4 6 21 45 9
4 5 86 45 9
4 104 9 60 28
4 82 117 28 60
4 81 32 105 22
4 32 81 104 9
4 105 22 117 82
4 32 58 1 55
4 66 119 55 1
4 118 45 32 58
4 118 45 57 109
4 119 66 109 57
4 10 59 8 108
4 59 10 112 91
4 108 8 17 92
4 109 39 112 91
4 17 92 39 109
4 22 52 94 35
4 35 94 60 29
4 30 3 51 79
4 52 22 3 30
4 51 79 60 29
4 50 86 14 19
4 72 98 19 14
4 86 50 111 65
4 6 25 72 98
4 111 65 25 6
4 0 89 107 1
5 110 2 0 89 96
5 107 1 4 99 88
4 4 99 110 2
4 96 110 99 88
4 107 88 96 89
5 0 3 98 72 10
4 11 44 72 10
4 3 53 13 0
5 99 44 11 13 53
4 99 53 3 98
4 44 99 98 72
4 18 19 78 71
5 18 71 93 103 20
5 4 19 78 94 52
4 20 103 52 4
4 93 103 52 94
4 94 78 71 93
4 27 76 73 28
5 89 76 27 13 68
5 4 28 73 90 5
4 5 68 13 4
4 68 89 90 5
4 89 76 73 90
5 83 70 35 34 102
4 34 102 66 0
4 35 19 46 70
5 66 0 19 46 84
4 83 70 46 84
4 83 102 66 84
4 42 116 98 18
5 18 98 31 105 1
5 42 116 79 32 11
4 1 105 32 11
4 31 105 32 79
4 79 116 98 31
4 48 49 115 93
5 50 111 37 93 48
5 69 115 49 4 41
4 4 41 111 50
4 37 69 41 111
4 115 69 37 93
4 27 40 108 56
5 27 40 24 104 49
5 108 56 11 25 38
4 49 11 25 104
4 38 25 104 24
4 40 24 38 108
5 63 64 106 21 83
4 56 119 83 63
4 64 106 26 0
5 56 0 26 55 119
4 21 106 26 55
4 119 55 21 83
4 64 112 94 35
5 94 35 50 117 62
5 18 84 61 112 64
4 117 50 18 84
4 84 61 62 117
4 94 62 61 112
4 74 113 90 35
5 35 90 14 109 2
5 27 17 47 113 74
4 27 17 109 2
4 14 109 17 47
4 14 90 113 47
5 48 80 77 40 51
4 58 11 80 77
4 48 20 6 51
5 58 41 6 20 11
4 40 41 6 51
4 58 41 40 77
4 63 100 54 85
5 32 100 63 10 59
5 43 33 54 85 18
4 43 59 10 18
4 32 33 43 59
4 33 54 100 32
4 34 63 65 7
5 63 65 25 45 80
5 34 27 57 26 7
4 57 45 80 27
4 26 57 45 25
4 25 26 7 65
5 75 35 85 67 16
4 85 67 101 48
4 35 28 60 75
5 17 101 48 28 60
4 17 60 75 16
4 67 16 17 101
5 8 114 74 63 16
4 118 42 63 16
4 114 74 48 33
5 9 118 42 48 33
4 8 114 33 9
4 9 118 16 8
5 23 73 79 49 20
4 23 20 1 38
4 30 79 49 13
5 13 30 78 38 1
4 78 30 79 73
4 73 78 38 23
4 87 96 64 10
5 103 87 10 1 55
5 22 19 64 96 54
4 19 1 55 22
4 54 103 55 22
4 87 103 54 96
5 36 72 47 56 34
4 34 36 24 2
4 15 47 56 13
5 13 2 24 46 15
4 72 36 24 46
4 47 72 46 15
4 39 69 2 19
5 19 50 88 67 39
5 97 102 69 2 28
4 28 50 88 97
4 67 102 69 39
4 67 88 97 102
4 85 64 14 86
5 86 85 74 62 45
5 34 64 14 59 91
4 91 62 74 34
4 45 59 91 62
4 59 14 86 45
4 80 74 37 92
5 80 49 9 68 92
5 28 29 7 37 74
4 29 9 49 28
4 68 7 29 9
4 68 92 37 7
5 77 95 85 42 61
4 95 85 50 31
4 82 61 42 20
5 82 20 50 31 60
4 60 82 61 77
4 60 31 95 77
5 10 12 6 21 42
4 12 8 56 10
4 81 21 42 80
5 80 81 53 8 56
4 81 53 6 21
4 6 12 8 53
4 107 11 55 46
4 52 115 11 55
5 115 76 71 107 11
5 55 46 98 110 52
4 110 76 71 98
4 115 52 110 76
4 13 52 31 41
4 41 39 66 13
5 52 13 66 87 97
4 73 71 87 97
4 87 66 39 71
5 41 31 73 71 39
4 4 46 44 49
4 38 46 4 41
4 115 87 44 49
5 46 38 89 87 44
4 89 38 41 69
4 30 0 19 31
4 0 66 115 30
4 46 99 31 19
4 99 103 84 46
5 31 99 103 115 30
4 78 0 56 76
4 24 78 0 26
4 119 97 76 56
4 24 99 55 26
5 78 76 97 99 24
4 13 115 94 2
4 101 15 13 115
4 73 24 2 94
4 46 24 73 88
5 115 101 88 73 94
4 119 13 1 84
4 100 30 13 119
4 38 1 84 72
5 96 72 84 119 100
4 96 72 38 78
4 1 46 117 82
5 112 115 82 1 39
4 90 46 1 39
4 97 115 112 96
5 96 97 117 46 90
4 97 115 82 117
5 27 110 70 44 119
4 69 27 110 78
4 66 119 27 69
4 107 44 119 66
4 90 70 44 107
5 69 66 107 90 78
5 119 117 22 2 91
4 78 98 22 2
4 2 78 112 91
4 119 91 112 87
5 88 87 112 78 98
4 87 88 117 119
4 26 13 52 22
4 66 13 26 14
5 72 70 22 26 14
4 72 70 97 87
4 52 22 70 97
4 19 14 15 4
4 78 89 14 19
4 4 15 119 52
5 119 15 14 89 102
4 89 102 94 78
4 20 88 87 11
4 58 112 87 11
4 6 98 88 20
4 98 78 41 6
4 5 20 99 24
5 39 5 20 101 92
4 97 101 20 99
4 92 76 97 101
4 78 39 92 76
4 56 30 41 68
4 107 68 56 87
5 30 110 116 87 56
4 24 110 116 23
4 23 107 87 116
5 24 41 68 107 23
4 6 38 0 105
5 52 100 112 0 105
4 38 71 112 0
4 112 71 116 100
4 116 100 52 99
5 99 6 38 71 116
4 49 53 26 15
4 49 53 110 97
5 113 97 49 15 107
5 53 26 38 36 110
4 36 113 107 38
4 113 97 110 36
4 90 50 20 107
4 20 107 66 82
4 31 50 90 78
4 78 31 60 69
4 64 98 110 34
4 34 110 52 91
4 46 14 64 98
4 46 55 59 14
4 35 54 52 2
4 88 54 35 90
4 2 52 82 109
4 90 14 84 88
5 82 52 54 88 84
4 34 96 97 27
4 7 90 96 34
4 57 27 97 117
4 46 90 7 26
4 18 67 66 1
4 96 67 18 98
4 105 91 66 1
5 91 66 67 96 94
4 94 96 98 31
5 81 100 34 3 22
4 34 89 38 3
4 87 100 34 89
4 100 87 44 81
4 22 46 44 81
4 24 4 117 70
4 24 7 109 4
5 4 117 101 66 109
5 113 70 24 7 89
4 101 113 70 117
4 113 101 66 89
4 13 69 92 11
4 44 113 92 11
4 53 13 69 40
4 40 53 99 73
5 73 40 69 92 113
4 41 1 10 108
4 87 10 108 76
4 53 41 1 55
5 76 108 41 53 79
4 103 55 53 79
4 4 60 58 1
4 79 99 4 60
4 1 107 92 58
4 99 88 93 79
5 60 79 93 92 58
4 0 14 43 105
4 0 112 67 14
4 52 117 83 100
5 83 67 14 43 117
4 105 43 117 52
4 57 2 0 59
4 47 89 0 59
4 2 57 81 110
5 59 47 83 81 57
4 47 89 96 83
5 28 70 86 15 57
4 91 57 28 94
4 96 94 28 70
4 15 57 91 66
4 66 15 86 67
4 84 10 58 82
4 88 84 10 71
5 58 30 95 71 10
4 30 52 54 95
4 30 52 82 58
4 60 109 15 49
4 60 49 97 94
4 107 39 37 113
5 39 109 60 94 37
4 107 39 109 15
4 13 55 81 27
4 27 81 116 76
4 68 25 55 13
5 55 25 72 116 81
4 25 68 89 72
4 56 59 105 30
4 56 87 84 59
5 105 22 21 84 59
4 110 22 21 116
4 110 22 105 30
4 26 2 28 104
4 97 44 104 28
4 68 69 2 26
5 104 44 47 68 26
4 68 47 102 69
4 4 117 54 31
4 4 31 75 109
5 93 112 75 31 54
4 112 66 109 75
4 93 101 66 112
4 9 11 107 5
4 11 115 60 9
5 9 5 111 40 60
4 111 40 76 71
4 107 71 111 5
4 116 80 49 99
4 71 92 80 116
4 6 9 49 99
4 6 9 68 38
4 99 103 42 23
5 108 111 23 42 92
4 103 115 92 42
4 30 108 111 31
4 30 115 92 108
4 10 61 91 0
4 72 83 61 10
4 0 3 114 91
5 54 83 61 91 114
4 83 54 98 72
5 106 104 81 74 36
4 74 81 119 102
4 102 74 36 89
4 14 106 104 15
4 81 104 15 119
5 75 19 43 82 91
4 90 19 43 86
4 19 75 37 90
4 82 101 86 43
4 102 101 82 91
5 101 86 90 37 102
4 98 19 43 21
4 95 75 19 98
5 100 95 98 21 103
4 95 75 91 100
4 103 100 91 82
4 50 5 7 35
4 7 69 94 35
4 117 50 5 15
4 94 62 17 69
5 17 15 5 7 69
4 27 8 3 110
4 27 119 59 8
5 8 59 25 106 3
4 70 106 3 110
4 106 25 44 70
4 64 3 6 18
4 6 55 84 18
4 64 112 30 3
5 6 55 32 30 3
4 55 32 61 84
4 80 113 89 56
4 80 113 70 81
4 8 56 89 7
4 7 24 53 8
4 4 82 62 28
4 73 93 62 28
4 4 5 118 82
5 82 118 67 93 62
4 73 90 67 93
5 57 43 106 35 114
4 96 35 114 100
4 72 96 35 106
4 119 57 114 100
4 84 43 57 119
4 16 64 19 109
4 19 109 57 22
4 102 16 64 96
5 62 57 109 16 102
4 102 62 54 96
4 7 106 22 2
4 2 91 16 7
4 86 117 22 106
5 47 16 7 106 86
4 86 117 119 47
4 23 48 28 24
4 48 23 107 101
4 60 28 24 41
4 41 60 17 68
4 6 33 82 1
4 6 111 39 1
5 79 95 111 6 33
4 95 112 115 79
4 39 111 95 112
4 80 32 55 44
4 30 76 80 32
5 80 76 36 23 44
4 3 36 23 6
4 36 3 30 76
4 17 15 44 80
4 17 69 76 80
4 23 5 7 36
4 23 5 15 44
4 11 103 100 56
4 25 11 103 21
4 100 56 108 95
4 25 38 98 21
5 75 58 118 18 111
4 88 18 111 73
4 88 101 118 18
4 115 58 75 94
4 58 118 101 115
4 27 102 101 49
4 37 40 27 102
4 101 49 104 86
4 90 37 40 24
4 19 105 33 50
4 19 39 58 105
4 33 103 88 50
5 61 103 33 105 58
4 103 61 67 88
4 63 36 38 10
4 63 100 110 36
4 26 59 10 38
4 59 26 53 32
4 22 35 85 21
4 85 67 84 21
4 35 22 105 75
4 67 16 59 84
4 28 117 83 74
4 28 117 43 29
4 67 83 74 37
4 37 7 14 67
4 74 70 72 63
4 16 63 72 14
4 74 114 22 70
4 14 26 8 16
4 79 53 104 48
5 104 5 65 113 48
4 79 76 113 48
4 65 113 76 108
4 108 65 5 41
4 71 42 48 73
4 31 33 48 73
4 71 42 118 39
4 31 41 9 33
4 10 58 9 25
4 23 71 10 25
4 51 95 30 53
4 51 23 71 95
5 53 51 23 25 9
4 40 8 57 28
4 40 36 70 28
5 68 65 36 40 8
4 65 86 70 36
4 65 68 15 86
5 114 95 64 12 105
4 72 25 12 64
4 116 72 64 95
4 95 116 81 114
4 81 114 105 55
4 37 85 18 39
4 94 37 85 54
4 18 39 109 43
4 94 60 33 54
5 29 109 118 86 50
4 73 40 29 50
4 113 73 50 86
4 86 113 92 118
4 92 118 109 69
4 112 10 42 93
4 112 10 12 75
4 42 21 54 93
4 31 54 21 6
4 47 63 108 68
5 108 3 51 116 63
4 44 47 63 116
4 104 26 3 51
4 116 51 104 44
4 8 34 35 29
4 102 34 8 17
4 70 104 29 35
4 17 45 83 102
5 104 29 8 17 45
4 12 3 34 16
4 34 100 61 16
4 12 43 22 3
5 16 61 45 43 12
4 43 22 81 45
4 54 114 29 50
4 54 50 86 83
4 91 114 29 109
4 109 91 61 118
4 48 62 57 104
4 62 102 113 48
4 16 65 5 109
4 5 104 57 109
4 67 64 12 118
4 93 67 64 95
4 114 62 82 105
4 82 118 12 105
4 56 32 114 34
4 36 51 114 34
4 45 32 56 47
5 32 114 51 21 45
4 47 72 21 45
4 20 118 17 49
4 20 118 65 23
4 17 77 79 49
5 37 77 17 118 65
4 79 77 37 73
4 42 65 68 11
4 32 11 68 8
4 116 36 65 42
4 8 32 79 40
4 12 18 20 9
4 18 71 108 12
4 103 20 9 32
5 9 32 77 108 12
4 32 77 93 103
4 51 74 27 53
4 53 9 17 27
4 113 23 51 74
4 9 25 47 17
4 33 20 5 29
4 33 62 101 20
5 75 29 33 62 77
4 39 75 77 92
4 39 5 29 75
4 61 58 108 63
4 61 103 116 63
4 33 51 3 105
4 105 58 108 3
4 37 77 114 35
4 35 106 65 37
4 118 65 106 43
4 17 57 43 118
4 83 85 51 81
5 51 85 65 12 29
4 83 47 65 85
4 57 59 12 29
4 81 57 29 51
4 77 63 64 75
4 62 77 63 83
4 75 64 106 29
4 62 83 21 33
4 48 86 47 80
4 16 47 80 77
4 48 86 106 51
4 16 7 40 77
4 45 48 50 43
4 45 61 93 48
4 111 12 43 50
4 61 16 37 93
4 42 25 106 85
4 85 106 3 95
4 42 61 59 25
4 59 61 77 8
4 85 111 40 74
4 111 85 86 5
4 74 62 60 40
4 60 9 45 62
4 74 77 32 81
4 77 108 36 74
4 36 106 12 108
4 12 106 104 9
4 18 111 51 21
4 18 21 45 118
4 114 32 58 75
4 51 114 75 111
4 45 104 23 42
4 42 92 17 45
4 8 108 111 29
4 104 29 111 23
4 93 85 51 79
4 92 93 85 65
4 65 12 58 92
4 60 29 12 58
4 80 79 95 63
4 65 111 95 63
4 79 33 45 80
4 45 25 6 33
4 4 50 18 1
4 18 21 55 1
5 21 18 50 86 106
5 4 15 26 55 1
4 4 15 86 50
4 4 13 11 20
4 20 33 32 11
5 11 32 59 119 13
5 20 33 43 117 4
4 119 13 4 117
4 18 20 48 85
4 85 83 84 18
5 85 48 113 70 83
5 18 84 46 107 20
4 113 48 20 107
4 4 28 35 19
5 3 98 19 35 106
4 28 35 106 104
4 19 98 99 4
5 4 99 53 104 28
4 10 18 19 0
4 26 0 10 25
5 10 18 118 65 25
5 109 19 0 26 7
4 118 18 19 109
4 49 11 42 48
4 62 48 42 61
5 48 62 117 97 49
5 11 42 61 84 87
4 49 97 87 11
4 50 48 74 35
5 74 36 110 96 35
4 35 50 88 96
4 48 74 36 23
5 23 48 50 88 99
4 4 49 27 2
5 49 79 32 81 27
4 2 22 81 27
4 4 31 79 49
5 4 31 105 22 2
4 0 56 11 1
5 8 56 0 91 16
4 0 1 82 91
4 8 56 11 9
5 11 9 118 82 1
4 64 18 42 63
4 14 64 63 47
5 113 47 63 42 92
5 18 39 90 14 64
4 18 39 92 42
4 0 64 35 2
4 35 29 12 64
5 35 29 40 24 2
5 0 38 108 12 64
4 0 2 24 38
4 28 48 80 27
5 93 48 80 116 103
4 116 80 27 110
4 94 28 48 93
5 27 110 52 94 28
4 10 63 80 11
5 63 16 67 112 10
4 17 80 63 16
4 10 112 115 11
5 11 115 101 17 80
4 0 34 27 13
4 34 0 105 114
5 40 27 34 114 77
5 13 41 58 105 0
4 13 41 40 27
4 34 63 85 35
4 63 108 111 85
5 89 34 63 108 76
5 35 85 111 73 90
4 90 35 34 89
4 56 63 74 27
5 74 37 93 95 63
4 56 63 95 30
4 27 69 37 74
5 56 30 115 69 27
4 50 20 49 28
4 44 49 28 70
5 50 28 70 22 54
5 49 20 103 55 44
4 54 50 20 103
4 1 10 42 20
4 42 10 59 45
5 66 1 10 59 14
5 45 86 101 20 42
4 66 1 20 101
4 13 2 19 1
5 1 6 12 43 19
4 2 19 43 57
4 6 1 13 53
5 8 57 2 13 53
4 19 50 85 64
5 36 72 64 85 65
4 65 85 50 5
4 72 46 19 64
5 24 5 50 19 46
4 34 64 10 56
5 37 7 34 64 75
4 68 56 34 7
4 10 58 75 64
5 68 56 10 58 92
4 2 28 74 34
4 34 3 51 74
5 78 2 34 3 30
5 28 73 79 51 74
4 78 73 28 2
4 85 74 80 42
4 74 102 67 85
5 42 71 88 67 85
5 74 102 97 76 80
4 42 71 76 80
4 13 56 80 49
5 56 100 61 77 80
4 60 49 80 77
4 13 52 100 56
5 60 82 52 13 49
4 61 93 71 10
5 10 71 107 89 72
5 61 83 102 101 93
4 71 107 101 93
4 102 89 107 101
4 75 64 98 31
4 24 73 37 7
5 24 110 98 31 73
4 75 37 73 31
4 57 109 69 27
5 82 105 59 57 109
4 105 30 115 82
4 109 69 115 82
5 57 114 33 60 28
4 97 115 60 28
4 100 114 33 103
5 103 100 119 97 115
4 103 33 60 115
5 95 31 94 35 114
4 70 35 94 97
5 99 116 81 70 97
4 116 95 31 99
4 99 31 94 97
5 81 100 54 62 74
4 74 62 101 113
4 54 88 87 100
4 88 54 62 101
5 44 87 88 101 113
4 78 39 109 2
4 12 3 30 58
5 16 109 39 58 12
4 78 39 58 30
4 59 0 112 61
5 69 39 112 0 89
5 61 118 17 47 59
4 112 39 118 61
4 17 69 39 118
4 112 10 38 78
4 90 67 16 7
5 90 7 36 38 78
4 78 112 67 90
4 98 72 63 95
4 95 93 88 98
5 88 90 70 72 98
4 88 90 37 93
4 32 56 87 103
5 56 87 66 102 47
5 32 45 62 82 103
4 87 103 82 66
4 62 82 66 102
4 28 29 75 94
5 8 29 75 105 3
4 52 110 3 105
4 52 105 75 94
4 15 5 41 13
4 43 118 58 105
5 14 43 118 5 15
4 41 5 118 58
4 84 1 39 67
5 1 39 5 68 38
5 86 67 84 72 47
4 5 86 47 68
4 67 39 5 86
4 18 39 41 6
5 6 41 24 26 3
4 26 14 90 24
4 41 24 90 39
4 111 85 21 6
5 99 6 21 22 46
4 99 6 111 73
4 99 46 90 73
5 47 25 11 107 15
4 103 11 107 88
5 83 21 103 88 117
4 47 83 117 15
4 117 15 107 88
4 60 29 104 49
5 26 22 43 29 104
4 43 22 52 82
4 43 82 60 29
5 29 51 6 31 50
4 52 117 50 31
4 55 6 51 81
5 117 52 55 81 57
4 55 6 31 52
5 104 48 33 21 81
4 48 33 82 101
4 119 81 21 84
4 84 21 33 82
5 84 82 101 15 119
5 116 98 54 85 51
4 85 54 117 86
4 44 116 98 46
5 46 44 104 86 117
4 46 98 54 117
4 4 5 111 31
4 106 12 105 22
5 5 7 106 12 111
4 105 31 111 12
4 71 38 25 42
5 106 14 46 38 25
4 71 88 46 38
4 14 46 88 67
4 55 13 66 84
5 109 17 68 13 66
5 84 43 45 25 55
4 43 109 17 45
4 66 84 43 109
5 94 112 100 34 102
4 36 113 102 34
5 71 116 36 113 73
4 73 94 102 113
4 71 112 94 73
5 75 60 69 2 91
4 2 69 76 110
5 95 79 76 110 100
4 79 60 75 95
4 76 69 60 79
5 17 27 119 91 62
4 76 92 17 27
4 62 93 112 91
4 62 93 92 17
5 93 112 87 76 92
4 32 8 34 100
5 58 32 8 17 60
4 58 32 100 112
4 60 58 112 94
4 35 75 112 96
4 108 30 110 36
5 77 108 30 112 75
4 110 96 112 30
4 96 89 56 100
4 67 96 100 61
4 67 61 77 37
5 37 113 89 96 67
4 16 64 95 77
5 78 71 95 64 96
5 16 102 69 92 77
4 71 95 77 92
4 69 78 71 92
4 94 91 0 78
4 8 40 37 16
4 94 37 16 91
5 40 76 78 94 37
4 34 91 66 89
5 58 115 66 91 61
4 115 58 108 76
4 115 76 89 66
5 96 87 116 63 83
4 77 79 116 63
5 94 62 77 79 115
4 116 87 115 79
4 94 115 87 96
4 74 102 91 114
5 32 114 91 52 30
4 97 102 91 52
4 97 76 30 52
4 54 96 34 114
4 114 77 93 54
4 73 93 77 40
5 73 97 96 54 93
4 109 60 31 19
4 53 40 7 26
5 31 60 40 53 30
4 109 7 40 60
4 56 68 15 119
4 92 58 82 101
4 15 68 92 101
5 98 38 23 111 18
4 37 111 18 67
4 89 38 23 113
4 111 37 113 23
4 19 98 71 39
4 108 65 106 3
4 98 71 108 3
5 37 65 108 71 39
4 87 89 68 11
4 14 84 61 16
5 68 89 14 16 65
4 14 89 87 84
4 59 26 2 91
5 12 59 26 68 9
4 91 75 12 59
4 12 75 60 9
4 51 21 83 74
4 21 51 79 103
4 88 73 79 103
4 48 51 114 62
5 51 53 110 22 114
4 117 22 114 62
4 22 110 97 117
5 80 44 119 83 45
4 99 44 80 79
4 52 54 83 119
5 79 33 54 52 99
4 119 44 99 52
4 52 30 41 4
5 4 41 9 29 109
4 114 32 9 29
4 30 41 9 32
4 106 64 96 70
5 24 70 106 51 23
4 78 24 23 71
4 78 24 70 96
4 92 80 45 118
4 67 118 45 83
4 119 66 67 83
5 92 118 67 66 107
4 72 47 80 116
4 116 103 84 72
4 103 84 67 93
4 50 111 95 54
5 36 3 95 111 40
4 22 54 95 3
4 3 22 70 36
4 55 119 27 53
5 105 55 53 9 33
4 55 105 91 119
4 105 91 62 33
4 81 57 17 80
4 101 117 57 17
4 101 117 52 115
4 33 29 35 54
4 33 79 40 29
4 99 24 40 79
5 44 72 21 42 23
4 93 73 23 42
4 97 44 72 96
4 73 23 44 97
4 66 69 41 1
4 7 14 59 8
5 8 108 41 69 7
4 69 7 14 66
4 0 66 107 38
4 92 118 12 108
4 108 38 107 92
4 16 75 19 14
5 78 19 75 111 41
4 75 16 65 111
4 68 65 111 41
4 63 83 86 65
4 86 83 96 90
5 107 90 86 65 23
4 107 87 96 90
5 15 57 45 9 49
4 49 115 58 9
4 61 58 9 45
4 91 57 45 61
4 19 78 110 22
4 51 53 41 111
4 53 41 78 110
5 20 6 25 104 5
4 82 105 6 20
4 105 6 25 59
4 104 57 59 25
4 21 42 118 43
4 43 21 72 14
4 15 44 72 14
4 22 43 18 98
4 22 26 38 98
4 104 26 38 23
4 20 88 90 5
4 104 70 72 25
4 70 104 5 90
4 11 9 104 44
4 86 118 9 104
4 118 82 117 86
4 9 33 50 5
4 9 5 24 53
4 55 53 24 46
4 99 49 15 46
4 22 57 45 21
4 46 15 57 22
4 45 25 23 48
4 55 25 23 99
4 55 84 88 99
4 20 23 51 33
4 106 51 33 43
4 70 117 43 106
4 4 46 14 109
4 29 106 25 9
4 14 109 29 106
4 1 6 23 107
4 86 65 12 43
4 6 12 65 23
4 107 68 9 20
4 26 59 84 46
4 68 107 46 26
4 85 95 100 83
4 70 83 100 110
4 113 76 110 70
4 53 81 74 40
4 100 81 53 30
4 30 31 54 100
4 83 81 27 102
4 61 83 81 32
4 32 61 93 79
4 119 13 69 102
4 77 32 59 16
4 102 119 59 16
4 8 114 35 7
4 114 8 108 95
4 108 95 31 41
4 72 64 112 87
4 72 36 76 87
4 92 76 36 65
4 56 47 65 108
4 102 37 65 47
4 37 39 66 102
4 3 36 89 0
4 40 69 89 36
4 111 39 69 40
4 13 68 108 30
4 77 17 68 108
4 17 77 75 109
4 63 47 119 100
4 119 47 113 97
4 97 113 92 115
4 62 94 2 57
4 79 53 8 77
4 62 77 8 57
4 37 85 51 40
4 116 51 40 76
4 98 78 76 116
4 24 28 57 26
4 114 57 26 3
4 3 6 33 114
4 47 44 49 17
4 59 55 103 61
4 47 59 55 44
4 71 18 21 116
4 106 36 116 21
4 113 86 106 36
4 12 106 72 10
4 89 7 106 72
4 7 89 107 5
4 11 25 12 58
4 16 12 25 47
4 15 109 16 47
4 105 3 38 1
4 8 68 38 3
4 8 68 5 29
4 42 116 81 45
4 86 45 81 70
4 101 97 70 86
4 73 48 104 24
4 21 98 110 81
4 81 110 24 104
4 104 28 62 45
4 45 104 53 32
4 32 53 99 103
4 17 60 4 15
4 32 55 26 8
4 15 17 8 26
4 7 90 50 29
4 7 36 51 29
4 51 36 38 6
4 10 87 44 25
4 113 65 25 44
4 113 101 118 65
5 54 93 67 18 50
5 4 1 66 115 52
4 115 52 54 93
4 66 67 93 115
5 13 11 87 76 30
5 4 31 73 88 20
4 31 73 76 30
4 88 87 76 73
5 48 62 77 37 85
5 39 18 20 82 58
4 62 77 58 82
4 39 58 77 37
5 67 96 35 19 14
5 28 97 101 15 4
4 14 67 101 15
4 96 67 101 97
5 18 10 61 103 21
5 22 52 91 0 19
4 21 103 52 22
4 91 52 103 61
5 49 60 40 73 48
5 11 42 71 108 58
4 58 108 40 60
4 73 40 108 71
5 35 7 16 102 74
5 50 5 118 101 48
4 5 118 16 7
4 101 118 16 102
5 27 76 113 44 49
5 78 2 4 46 90
4 90 46 44 113
4 78 90 113 76
5 3 110 100 56 0
5 99 6 1 11 103
4 6 3 110 99
4 103 99 110 100
5 63 42 45 32 77
5 75 64 18 43 105
4 43 105 32 45
4 77 32 105 75
5 2 35 70 117 57
5 0 59 84 72 64
4 59 84 117 57
4 70 117 84 72
5 48 80 92 65 23
5 28 24 7 69 27
4 24 23 65 7
4 69 7 65 92
5 10 63 95 3 12
5 9 53 79 80 11
4 9 53 3 12
4 53 79 95 3
5 27 34 36 70 81
5 0 38 46 55 13
4 46 55 81 70
4 36 70 46 38
5 63 34 8 59 47
5 85 35 29 43 86
4 29 43 59 8
4 47 59 43 86
5 65 106 51 74 63
5 26 68 56 27 53
4 53 26 106 51
4 65 106 26 68
5 28 94 37 90 50
5 20 107 92 115 49
4 90 107 92 37
4 115 92 37 94
5 10 1 105 30 112
5 93 42 20 33 79
4 79 33 105 30
4 112 30 79 93
5 88 98 19 1 84
5 119 13 2 110 97
4 119 97 88 84
4 88 98 110 97
5 85 64 16 61 83
5 50 19 109 82 117
4 83 117 82 61
4 109 16 61 82
5 34 64 106 22 114
5 25 55 32 56 10
4 32 55 22 114
4 106 25 55 22
5 2 26 14 89 34
5 74 28 104 86 113
4 104 86 14 26
4 14 89 113 86
5 42 85 111 12 118
5 80 17 8 40 74
4 111 12 8 40
4 17 8 12 118
5 80 56 108 36 116
5 41 13 49 99 24
4 41 24 36 108
4 116 36 24 99
4 60 82 1 41
5 107 1 41 78 71
5 94 60 82 101 93
4 41 60 94 78
4 20 4 109 118
4 20 118 67 88
5 37 75 109 118 67
4 73 50 19 78
4 73 97 117 50
5 73 78 69 115 97
5 50 33 60 75 111
4 50 88 71 111
4 75 111 71 112
5 103 115 112 71 88
5 94 112 39 19 31
4 107 39 19 46
4 112 39 107 87
5 99 97 87 107 46
5 75 91 62 54 35
4 35 90 39 75
4 91 75 39 66
5 101 88 90 39 66
4 20 99 98 18
4 20 82 52 99
5 30 52 99 98 78
4 33 43 19 31
5 118 61 62 33 43
4 31 33 62 94
4 4 82 91 2
4 82 84 46 4
5 67 84 82 91 112
4 1 58 75 19
4 58 61 84 1
5 58 61 93 95 75
4 78 0 105 31
5 0 78 96 87 66
5 105 31 54 103 82
4 78 31 54 96
4 18 64 96 88
4 18 88 117 43
5 96 94 52 117 88
4 48 79 31 50
4 48 101 115 79
5 115 79 31 41 58
5 60 4 5 39 69
4 62 60 4 117
5 102 62 117 86 67
4 62 102 69 60
4 49 101 66 13
4 101 49 99 88
4 39 1 11 92
4 92 93 103 11
5 92 39 111 73 93
5 15 13 69 89 107
4 52 94 69 13
4 69 89 96 94
4 35 94 93 85
4 85 86 101 93
5 18 71 95 31 6
4 71 87 84 18
4 87 100 95 71
5 55 84 87 100 52
5 85 21 33 114 95
4 85 67 112 95
4 114 91 112 95
5 100 112 64 98 54
4 14 64 112 66
4 100 119 66 112
5 117 46 14 66 119
4 42 85 54 103
4 103 82 118 42
4 13 115 112 0
4 115 103 55 13
4 94 2 22 54
5 94 2 109 66 102
5 83 84 43 22 54
4 54 83 102 94
4 5 109 2 24
5 113 73 24 5 107
4 109 5 107 66
4 4 99 23 5
5 23 99 79 76 71
4 5 39 71 23
5 28 62 17 109 29
4 29 111 73 28
4 111 39 109 29
4 6 12 64 98
5 58 32 33 6 12
4 6 98 54 33
4 1 46 72 10
4 46 1 105 22
5 46 22 110 96 72
4 114 35 19 105
4 105 59 14 19
5 61 100 114 105 59
4 9 118 18 6
5 92 77 60 9 118
4 9 60 31 6
4 57 28 50 43
4 43 50 90 14
5 16 14 43 57 91
4 24 4 1 38
4 4 52 110 24
5 38 89 76 110 24
4 58 41 38 10
5 10 38 98 116 87
4 41 31 98 38
4 89 0 19 90
4 19 22 70 90
5 90 70 97 102 89
4 18 12 29 50
4 12 16 67 18
5 12 29 114 77 16
4 48 86 15 49
4 90 73 48 86
5 90 86 15 109 7
4 4 41 40 28
4 97 28 40 76
5 92 68 41 40 76
5 111 23 20 9 41
4 9 17 101 20
4 17 69 41 9
5 101 17 69 37 113
4 42 21 55 11
4 55 11 58 105
5 21 98 3 105 55
4 100 34 2 52
4 52 55 26 2
4 21 54 35 106
5 106 12 59 45 21
4 21 45 62 54
4 18 111 108 10
4 108 10 61 77
5 51 79 77 108 111
4 64 67 102 34
4 106 64 67 86
5 56 89 72 44 119
4 78 30 56 89
4 89 72 98 78
4 20 103 116 23
5 30 32 103 116 95
4 23 111 95 116
4 15 66 0 26
5 24 26 15 44 70
4 66 87 44 15
5 57 114 74 83 45
4 74 37 75 114
4 75 114 57 109
4 64 95 30 0
4 32 30 0 59
4 84 10 63 83
4 10 12 43 84
4 3 98 96 34
5 83 96 34 91 119
4 98 21 83 96
4 37 35 2 69
4 70 35 37 113
4 42 65 5 20
4 65 42 93 37
5 5 65 37 40 29
5 44 23 38 68 11
4 69 115 11 68
4 69 78 38 68
4 27 119 117 28
4 28 117 46 24
4 53 49 20 6
4 49 53 30 115
5 6 53 30 108 38
4 45 86 50 33
4 17 45 33 60
5 17 45 86 65 16
4 91 34 7 109
4 109 91 119 15
5 29 51 48 45 9
4 48 93 95 51
4 95 51 29 75
4 107 1 55 44
5 116 110 53 55 44
4 71 116 44 107
5 42 116 51 6 25
4 116 100 61 42
4 116 51 114 100
4 16 63 100 91
5 63 100 81 21 72
4 100 91 57 81
4 87 10 59 119
5 22 81 119 59 26
4 116 87 119 81
5 104 5 68 17 49
4 17 102 97 49
4 68 17 102 89
4 74 28 60 77
4 113 74 77 92
4 107 11 80 113
4 80 113 73 79
5 15 57 27 102 47
4 96 110 27 102
4 96 102 47 72
4 76 56 10 71
4 79 32 56 76
4 61 62 74 63
4 65 118 61 63
4 83 70 28 62
5 14 106 70 83 47
4 47 83 62 17
4 32 80 48 33
4 80 32 58 92
4 97 27 56 87
4 99 53 27 97
4 0 14 47 56
4 14 0 3 106
4 108 38 72 63
4 38 72 21 6
4 3 64 85 51
4 64 3 8 16
5 51 3 8 32 81
4 35 22 81 74
4 22 35 7 26
4 25 21 85 65
4 25 9 33 21
5 25 9 8 108 65
4 13 26 25 11
4 13 26 3 30
5 36 3 26 25 72
4 57 29 40 27
4 29 57 15 5
4 15 104 53 13
5 40 36 23 104 53
4 104 23 107 15
4 104 51 79 49
4 51 104 5 111
4 7 2 13 68
4 2 110 36 7
5 36 7 68 47 113
4 85 106 104 48
4 106 85 37 7
5 8 57 104 106 7
4 68 92 42 25
4 25 6 41 68
4 83 72 36 74
4 83 45 25 72
4 110 34 63 116
4 53 8 34 110
4 56 80 45 59
4 56 108 12 59
4 119 56 8 57
4 119 57 104 44
5 80 81 104 25 47
4 81 114 77 80
4 81 114 29 104
4 44 81 32 11
4 81 51 23 44
4 34 16 17 27
4 34 36 65 16
4 89 76 80 47
4 89 38 25 47
4 63 36 23 42
4 40 77 63 36
4 74 80 44 70
4 74 70 24 40
4 45 48 113 47
4 68 47 45 9
4 9 49 27 8
4 76 27 8 108
5 1 39 78 31 4
5 67 96 54 117 84
4 78 39 67 96
5 41 13 11 107 38
4 88 107 38 98
5 52 103 88 98 31
5 33 20 18 111 31
4 37 94 31 111
5 67 37 94 62 101
5 69 109 4 28 94
5 14 89 96 70 46
4 69 109 14 89
5 96 98 19 0 112
5 61 59 43 21 83
4 83 96 112 61
5 11 9 6 23 42
4 31 6 23 73
5 73 31 60 115 93
5 62 48 50 29 60
4 7 69 60 29
5 102 113 90 7 69
5 69 27 49 15 68
4 15 68 38 46
5 46 38 78 110 99
5 0 38 72 87 56
4 21 72 87 103
5 103 21 6 105 32
5 21 18 64 95 54
5 45 118 16 77 62
4 95 77 62 54
5 102 96 35 2 91
5 26 106 72 47 59
4 47 59 91 102
5 80 17 9 104 48
4 41 24 104 9
5 24 73 76 69 41
5 21 25 10 63 116
4 116 21 33 79
5 79 33 9 58 77
5 27 34 89 47 119
5 53 55 25 38 3
4 55 119 47 25
5 62 114 35 85 83
4 8 114 62 17
5 8 17 47 65 7
5 74 63 47 45 81
4 53 81 45 9
5 40 53 9 68 108
5 60 41 5 20 49
4 78 41 5 90
5 90 88 97 94 78
5 98 6 1 10 71
5 82 61 93 54 33
4 71 98 54 93
5 2 78 89 66 13
5 98 72 84 55 22
4 84 72 89 66
5 94 54 50 19 75
5 83 86 14 16 102
4 94 75 16 102
5 72 64 34 100 83
5 45 32 8 12 25
4 100 32 45 83
5 102 74 28 57 17
5 89 36 24 26 68
4 68 17 57 26
5 42 85 51 33 45
4 40 51 33 60
5 17 92 37 40 60
5 56 80 44 25 68
4 44 99 6 25
5 79 30 41 6 99
5 71 73 99 20 107
5 94 52 82 66 112
4 94 73 99 52
5 67 90 19 109 66
4 66 109 60 115
5 19 46 117 52 2
4 46 107 101 117
5 39 69 115 101 107
4 1 20 50 19
5 115 58 1 20 103
4 0 19 4 13
5 99 4 13 115 97
4 2 35 50 4
5 4 82 101 88 50
5 19 105 82 84 18
4 84 87 115 82
5 115 30 78 71 87
5 112 39 18 88 93
5 117 43 109 91 62
4 117 62 93 88
5 14 84 119 91 0
4 119 91 94 97
5 91 61 67 64 75
4 31 52 91 75
5 88 46 1 66 87
5 54 22 105 91 100
4 46 88 54 22
5 35 64 14 43 22
4 14 43 82 66
5 58 92 71 111 41
4 88 71 92 101
5 37 73 50 5 39
4 97 102 37 73
5 117 15 66 102 97
4 66 69 76 87
4 39 41 30 112
5 90 24 4 15 107
4 110 96 90 24
5 110 52 119 87 96
5 90 35 28 117 86
4 90 39 118 86
5 60 75 39 118 82
4 1 0 64 18
5 52 30 0 1 55
4 19 35 85 18
4 64 34 2 19
5 118 43 50 85 67
5 95 112 58 105 31
4 58 118 67 112
5 10 112 100 103 84
4 112 100 110 78
5 57 119 83 70 22
4 70 83 67 90
4 13 2 28 49
5 28 73 113 101 49
4 1 11 49 4
5 49 79 76 92 11
4 4 20 48 28
5 20 118 92 93 48
5 114 33 43 12 75
4 84 43 33 103
5 10 59 105 3 64
4 59 119 52 105
5 34 114 57 59 16
4 54 117 57 114
5 95 71 42 103 79
4 60 82 103 79
5 7 14 15 57 2
4 101 62 57 15
4 52 55 44 97
5 76 97 44 107 89
5 55 99 116 87 11
4 31 99 55 105
5 0 26 22 110 34
4 26 15 117 22
5 35 37 16 109 29
4 109 29 33 82
4 17 92 107 15
5 68 92 113 23 5
4 97 113 23 99
5 48 79 40 111 23
4 115 79 40 69
5 18 12 58 61 42
5 100 116 98 3 30
4 61 100 30 58
5 56 100 81 55 59
4 100 81 70 96
5 57 29 106 86 45
4 86 45 61 67
5 75 111 85 93 77
4 111 6 105 75
5 106 70 74 34 7
4 106 43 109 7
5 44 119 13 26 46
4 46 26 3 98
4 20 11 10 18
5 10 108 30 32 11
4 0 56 27 2
5 27 97 70 24 2
4 50 85 74 28
5 114 95 63 61 32
4 98 22 114 95
5 12 106 85 63 16
4 12 105 91 16
5 3 106 21 81 114
4 14 106 21 84
5 86 5 109 17 101
4 24 5 86 70
4 9 58 39 5
5 49 44 23 24 53
4 78 24 53 30
4 119 44 113 102
5 23 38 108 76 116
4 115 76 116 103
4 17 101 93 77
4 28 35 34 27
4 50 18 42 48
4 13 56 10 1
5 13 53 110 76 56
4 64 85 42 10
4 64 35 74 63
4 10 63 34 0
5 7 40 28 104 5
4 89 7 40 76
5 65 111 29 9 118
4 113 65 111 73
4 107 71 108 68
5 36 110 81 44 72
4 72 14 7 36
4 38 71 95 3
5 65 37 74 48 86
4 65 37 75 12
4 113 37 16 47
5 47 113 70 104 15
5 95 108 12 6 51
4 108 92 93 95
4 89 87 116 36
5 3 8 56 63 36
4 8 57 22 3
4 12 59 55 6
5 8 77 74 51 29
4 21 43 29 51
5 8 26 104 81 27
4 81 104 86 83
4 32 61 118 9
4 32 81 110 30
4 49 48 74 27
4 13 27 80 11
5 27 40 36 113 80
4 20 49 80 42
5 80 77 108 65 42
4 110 53 104 70
4 5 104 45 118
5 53 32 80 116 51
4 58 32 53 41
4 25 59 16 65
5 104 25 65 36 51
4 72 106 51 116
4 77 114 3 108
4 34 56 80 74
4 48 85 63 80
4 56 11 42 63
4 36 106 29 40
4 38 108 8 26
4 23 111 12 25
4 44 47 65 23
4 8 77 92 68
4 76 79 51 36
5 37 35 50 86 67
5 2 69 66 15 4
5 87 119 13 0 89
5 88 117 4 19 90
5 37 40 28 48 113
5 20 107 39 41 4
5 14 106 35 34 16
5 17 27 28 104 15
5 18 118 61 93 85
5 35 94 91 109 19
5 11 87 71 38 1
5 24 73 97 49 4
5 5 9 49 48 23
5 8 27 74 36 7
5 2 22 46 14 0
5 27 56 47 44 81
5 96 64 0 91 100
5 88 18 1 82 103
5 18 39 75 31 50
5 77 92 42 48 79
5 64 12 59 61 63
5 62 74 35 29 57
5 23 116 80 11 25
5 26 13 27 110 24
5 10 18 98 95 112
5 99 20 11 115 79
5 81 114 34 63 83
5 10 84 55 105 0
5 80 32 8 108 63
5 33 48 85 111 29
5 63 95 51 21 42
5 53 30 56 11 55
5 7 2 28 70 90
5 68 13 49 44 107
5 19 78 112 66 1
5 50 73 93 101 20
5 102 34 2 57 119
5 64 19 43 84 67
5 77 16 65 85 74
5 60 28 50 5 109
5 114 75 64 85 54
5 103 32 58 10 42
5 59 26 3 34 56
5 74 80 45 104 51
5 49 53 40 76 80
5 111 71 42 20 6
5 10 72 116 100 56
5 46 1 13 52 99
5 102 94 28 117 101
5 78 89 107 46 24
5 109 17 102 37 7
5 89 69 27 97 113
5 14 109 57 117 86
5 66 107 88 97 115
5 97 70 46 15 119
5 113 101 15 5 90
5 78 96 97 52 2
5 67 39 109 82 101
5 48 86 118 17 62
5 39 69 94 73 90
5 83 67 16 91 62
5 60 62 93 37 75
5 62 54 50 43 82
5 66 102 96 90 14
5 16 75 29 43 118
5 13 115 76 78 41
5 47 102 74 70 86
5 68 5 24 40 69
5 96 83 117 22 35
5 47 89 7 26 15
5 92 69 60 49 101
5 29 104 86 65 7
5 66 91 52 117 84
5 94 31 4 82 115
5 92 37 111 5 118
5 94 112 67 88 54
5 85 106 43 45 83
5 113 44 104 24 36
5 87 44 99 110 76
5 73 23 107 92 76
5 20 118 58 60 33
5 75 105 82 61 112
5 77 114 33 45 61
5 31 99 88 71 78
5 45 57 8 16 47
5 72 89 34 110 70
5 87 96 98 46 84
5 59 91 114 22 43
5 17 9 29 40 77
5 56 68 38 36 76
5 99 23 38 41 53
5 98 54 52 105 19
5 71 93 115 58 39
5 84 21 54 100 61
5 45 9 12 65 42
5 41 60 79 73 111
5 12 106 51 114 8
5 83 119 59 14 72
5 30 112 87 103 52
5 70 81 57 26 106
5 33 103 93 95 31
5 111 12 58 77 95
5 18 21 33 105 12
5 65 113 80 17 68
5 38 72 44 55 26
5 110 98 38 0 30
5 22 55 119 100 110
5 8 68 25 104 53
5 108 92 11 9 41
5 64 3 22 21 72
5 40 108 65 23 51
5 106 36 63 47 25
5 1 6 31 30 58
5 105 32 100 95 3
5 6 51 79 32 9
5 21 25 59 32 81
5 3 36 116 81 53
5 71 108 30 79 116
5 103 116 98 6 55
5 6 25 10 108 3

# Cells
7 0 1 2 3 4 5 6
7 7 8 9 10 11 12 13
7 14 15 16 17 18 19 20
7 21 22 23 24 25 26 27
7 28 29 30 31 32 33 34
7 35 36 37 38 39 40 41
7 42 43 44 45 46 47 48
7 49 50 51 52 53 54 55
7 56 57 58 59 60 61 62
7 63 64 65 66 67 68 69
7 70 71 72 73 74 75 76
7 77 78 79 80 81 82 83
7 84 85 86 87 88 89 90
7 91 92 93 94 95 96 97
7 98 99 100 101 102 103 104
7 105 106 107 108 109 110 111
7 112 113 114 115 116 117 118
7 119 120 121 122 123 124 125
7 126 127 128 129 130 131 132
7 133 134 135 136 137 138 139
7 140 141 142 143 144 145 146
7 147 148 149 150 151 152 153
7 154 155 156 157 158 159 160
7 161 162 163 164 165 166 167
7 168 169 170 171 172 173 174
7 175 176 177 178 179 180 181
7 86 182 183 184 185 186 187
7 149 188 189 190 191 192 193
7 102 194 195 196 197 198 199
7 109 200 201 202 203 204 205
7 106 206 207 208 209 210 211
7 212 213 214 215 216 217 218
7 219 220 221 222 223 224 225
7 226 227 228 229 230 231 232
7 233 234 235 236 237 238 239
7 165 240 241 242 243 244 245
7 143 246 247 248 249 250 251
7 252 253 254 255 256 257 258
7 259 260 261 262 263 264 265
7 266 267 268 269 270 271 272
7 273 274 275 276 277 278 279
7 60 280 281 282 283 284 285
7 45 286 287 288 289 290 291
7 81 292 293 294 295 296 297
7 158 298 299 300 301 302 303
7 94 304 305 306 307 308 309
7 310 311 312 313 314 315 316
7 317 318 319 320 321 322 323
7 142 324 325 326 327 328 329
7 73 330 331 332 333 334 335
7 93 336 337 338 339 340 341
7 342 343 344 345 346 347 348
7 78 349 350 351 352 353 354
7 355 356 357 358 359 360 361
7 362 363 364 365 366 367 368
7 369 370 371 372 373 374 375
7 155 376 377 378 379 380 381
7 371 382 383 384 385 386 387
7 38 388 389 390 391 392 393
7 394 395 396 397 398 399 400
7 343 401 402 403 404 405 406
7 66 407 408 409 410 411 412
7 413 414 415 416 417 418 419
7 150 256 420 421 422 423 424
7 414 425 426 427 428 429 430
7 381 431 432 433 434 435 436
7 327 437 438 439 440 441 442
7 11 443 444 445 446 447 448
7 396 449 450 451 452 453 454
7 23 455 456 457 458 459 460
7 65 461 462 463 464 465 466
7 162 316 467 468 469 470 471
7 340 472 473 474 475 476 477
7 51 418 478 479 480 481 482
7 410 483 484 485 486 487 488
7 121 489 490 491 492 493 494
7 464 485 495 496 497 498 499
7 355 500 501 502 503 504 505
7 364 506 507 508 509 510 511
7 99 320 512 513 514 515 516
7 354 517 518 519 520 521 522
7 87 271 523 524 525 526 527
7 52 430 528 529 530 531 532
7 136 533 534 535 536 537 538
7 116 508 539 540 541 542 543
7 37 264 544 545 546 547 548
7 17 403 549 550 551 552 553
7 307 472 554 555 556 557 558
7 32 451 559 560 561 562 563
7 301 431 564 565 566 567 568
7 249 439 569 570 571 572 573
7 203 574 575 576 577 578 579
7 130 502 580 581 582 583 584
7 210 575 585 586 587 588 589
7 72 276 590 591 592 593 594
7 296 517 595 596 597 598 599
7 113 365 600 601 602 603 604
7 176 493 605 606 607 608 609
7 275 333 610 611 612 613 614
7 170 460 615 616 617 618 619
7 260 393 620 621 622 623 624
7 44 215 625 626 627 628 629
7 57 231 630 631 632 633 634
7 29 397 635 636 637 638 639
7 127 361 640 641 642 643 644
7 16 346 645 646 647 648 649
7 235 536 650 651 652 653 654
7 219 447 655 656 657 658 659
7 186 267 660 661 662 663 664
7 192 253 665 666 667 668 669
7 24 171 670 671 672 673 674
7 122 179 675 676 677 678 679
7 8 224 680 681 682 683 684
7 2 372 685 686 687 688 689
7 3 384 690 691 692 693 694
7 226 283 695 696 697 698 699
7 197 319 700 701 702 703 704
7 214 290 705 706 707 708 709
7 244 310 710 711 712 713 714
7 135 236 715 716 717 718 719
7 0 720 721 722 723 724 725
7 7 726 727 728 729 730 731
7 14 732 733 734 735 736 737
7 21 738 739 740 741 742 743
7 28 744 745 746 747 748 749
7 35 750 751 752 753 754 755
7 42 756 757 758 759 760 761
7 49 762 763 764 765 766 767
7 56 768 769 770 771 772 773
7 63 774 775 776 777 778 779
7 70 780 781 782 783 784 785
7 77 786 787 788 789 790 791
7 84 792 793 794 795 796 797
7 91 798 799 800 801 802 803
7 98 804 805 806 807 808 809
7 105 810 811 812 813 814 815
7 112 816 817 818 819 820 821
7 119 822 823 824 825 826 827
7 126 828 829 830 831 832 833
7 133 834 835 836 837 838 839
7 140 840 841 842 843 844 845
7 147 846 847 848 849 850 851
7 154 852 853 854 855 856 857
7 161 858 859 860 861 862 863
7 173 864 865 866 867 868 869
7 181 870 871 872 873 874 875
7 187 758 876 877 878 879 880
7 193 747 881 882 883 884 885
7 199 771 886 887 888 889 890
7 205 831 891 892 893 894 895
7 209 819 896 897 898 899 900
7 218 901 902 903 904 905 906
7 225 907 908 909 910 911 912
7 232 913 914 915 916 917 918
7 237 872 919 920 921 922 923
7 245 734 924 925 926 927 928
7 250 789 917 929 930 931 932
7 258 890 933 934 935 936 937
7 265 938 939 940 941 942 943
7 272 944 945 946 947 948 949
7 279 950 951 952 953 954 955
7 285 855 912 956 957 958 959
7 291 842 867 960 961 962 963
7 297 781 964 965 966 967 968
7 303 800 905 969 970 971 972
7 308 751 973 974 975 976 977
7 314 879 978 979 980 981 982
7 323 983 984 985 986 987 988
7 328 729 989 990 991 992 993
7 335 823 994 995 996 997 998
7 341 722 999 1000 1001 1002 1003
7 345 945 1004 1005 1006 1007 1008
7 352 721 1009 1010 1011 1012 1013
7 360 976 1014 1015 1016 1017 1018
7 366 968 1019 1020 1021 1022 1023
7 374 952 1024 1025 1026 1027 1028
7 380 739 1029 1030 1031 1032 1033
7 385 940 1034 1035 1036 1037 1038
7 392 836 1039 1040 1041 1042 1043
7 400 985 1044 1045 1046 1047 1048
7 405 866 1049 1050 1051 1052 1053
7 412 847 949 1054 1055 1056 1057
7 419 885 1058 1059 1060 1061 1062
7 423 726 1063 1064 1065 1066 1067
7 427 927 1068 1069 1070 1071 1072
7 434 1073 1074 1075 1076 1077 1078
7 441 1073 1079 1080 1081 1082 1083
7 448 775 1084 1085 1086 1087 1088
7 452 907 1089 1090 1091 1092 1093
7 459 776 1094 1095 1096 1097 1098
7 465 861 986 1099 1100 1101 1102
7 471 740 1103 1104 1105 1106 1107
7 475 899 1108 1109 1110 1111 1112
7 481 824 1113 1114 1115 1116 1117
7 486 913 1118 1119 1120 1121 1122
7 494 807 943 1123 1124 1125 1126
7 499 902 1127 1128 1129 1130 1131
7 505 1097 1132 1133 1134 1135 1136
7 510 1088 1134 1137 1138 1139 1140
7 515 764 1081 1141 1142 1143 1144
7 522 895 1145 1146 1147 1148 1149
7 526 763 1078 1150 1151 1152 1153
7 532 835 1154 1155 1156 1157 1158
7 537 793 953 1159 1160 1161 1162
7 542 804 1036 1163 1164 1165 1166
7 547 848 1007 1167 1168 1169 1170
7 552 810 921 1171 1172 1173 1174
7 558 997 1175 1176 1177 1178 1179
7 563 813 875 1180 1181 1182 1183
7 566 1021 1184 1185 1186 1187 1188
7 573 1014 1189 1190 1191 1192 1193
7 577 1032 1194 1195 1196 1197 1198
7 583 794 1027 1199 1200 1201 1202
7 589 993 1203 1204 1205 1206 1207
7 593 858 1046 1208 1209 1210 1211
7 597 1042 1212 1213 1214 1215 1216
7 603 744 1217 1218 1219 1220 1221
7 607 978 1222 1223 1224 1225 1226
7 612 1066 1203 1227 1228 1229 1230
7 617 1116 1176 1231 1232 1233 1234
7 622 1106 1194 1235 1236 1237 1238
7 628 828 1239 1240 1241 1242 1243
7 633 816 1244 1245 1246 1247 1248
7 638 752 1191 1249 1250 1251 1252
7 644 733 1253 1254 1255 1256 1257
7 649 782 1188 1258 1259 1260 1261
7 653 934 1262 1263 1264 1265 1266
7 657 1157 1213 1267 1268 1269 1270
7 663 1108 1247 1271 1272 1273 1274
7 667 1012 1275 1276 1277 1278 1279
7 673 768 1264 1280 1281 1282 1283
7 678 786 1121 1284 1285 1286 1287
7 683 757 1225 1288 1289 1290 1291
7 688 852 1091 1292 1293 1294 1295
7 694 841 1051 1296 1297 1298 1299
7 698 1068 1256 1300 1301 1302 1303
7 702 1145 1242 1304 1305 1306 1307
7 707 1059 1221 1308 1309 1310 1311
7 714 1003 1276 1312 1313 1314 1315
7 719 799 1129 1316 1317 1318 1319
7 278 772 1320 1321 1322 1323 1324
7 453 796 1325 1326 1327 1328 1329
7 174 748 1330 1331 1332 1333 1334
7 557 730 1335 1336 1337 1338 1339
7 322 803 1340 1341 1342 1343 1344
7 386 778 1345 1346 1347 1348 1349
7 417 724 1350 1351 1352 1353 1354
7 697 754 1355 1356 1357 1358 1359
7 487 815 1360 1361 1362 1363 1364
7 217 785 1365 1366 1367 1368 1369
7 588 767 1370 1371 1372 1373 1374
7 658 736 1375 1376 1377 1378 1379
7 348 809 1380 1381 1382 1383 1384
7 662 791 1385 1386 1387 1388 1389
7 521 743 1390 1391 1392 1393 1394
7 623 761 1395 1396 1397 1398 1399
7 504 826 1400 1401 1402 1403 1404
7 239 845 1405 1406 1407 1408 1409
7 571 863 1410 1411 1412 1413 1414
7 257 832 1415 1416 1417 1418 1419
7 435 851 1420 1421 1422 1423 1424
7 712 820 1425 1426 1427 1428 1429
7 368 839 1430 1431 1432 1433 1434
7 608 856 1435 1436 1437 1438 1439
7 379 1064 1440 1441 1442 1443 1444
7 261 960 1421 1445 1446 1447 1448
7 50 1034 1399 1449 1450 1451 1452
7 196 1111 1453 1454 1455 1456 1457
7 462 1197 1458 1459 1460 1461 1462
7 326 981 1463 1464 1465 1466 1467
7 128 1222 1427 1468 1469 1470 1471
7 185 1010 1472 1473 1474 1475 1476
7 507 1159 1381 1477 1478 1479 1480
7 221 1171 1396 1481 1482 1483 1484
7 391 1241 1485 1486 1487 1488 1489
7 22 1089 1379 1490 1491 1492 1493
7 10 1004 1388 1494 1495 1496 1497
7 411 898 1498 1499 1500 1501 1502
7 595 1094 1368 1503 1504 1505 1506
7 311 1163 1393 1507 1508 1509 1510
7 648 1142 1511 1512 1513 1514 1515
7 115 919 1439 1516 1517 1518 1519
7 300 1279 1520 1521 1522 1523 1524
7 201 1072 1525 1526 1527 1528 1529
7 524 1216 1530 1531 1532 1533 1534
7 4 1118 1359 1535 1536 1537 1538
7 425 1292 1432 1539 1540 1541 1542
7 492 1031 1543 1544 1545 1546 1547
7 636 947 1548 1549 1550 1551 1552
7 535 1082 1553 1554 1555 1556 1557
7 331 916 1558 1559 1560 1561 1562
7 243 1218 1548 1563 1564 1565 1566
7 71 1301 1351 1567 1568 1569 1570
7 370 1099 1436 1571 1572 1573 1574
7 211 1115 1575 1576 1577 1578 1579
7 402 886 1361 1580 1581 1582 1583
7 92 1267 1392 1584 1585 1586 1587
7 353 1281 1588 1589 1590 1591 1592
7 148 1133 1433 1593 1594 1595 1596
7 177 969 1387 1597 1598 1599 1600
7 565 881 1343 1601 1602 1603 1604
7 163 1019 1424 1529 1605 1606 1607
7 516 974 1574 1608 1609 1610 1611
7 31 1272 1336 1612 1613 1614 1615
7 615 1249 1348 1616 1617 1618 1619
7 284 1041 1553 1620 1621 1622 1623
7 228 1167 1428 1513 1624 1625 1626
7 43 951 1347 1627 1628 1629 1630
7 604 1318 1631 1632 1633 1634 1635
7 287 1229 1594 1636 1637 1638 1639
7 677 1187 1576 1640 1641 1642 1643
7 338 910 1631 1644 1645 1646 1647
7 356 1284 1376 1500 1648 1649 1650
7 137 1190 1402 1651 1652 1653 1654
7 446 1259 1558 1655 1656 1657 1658
7 79 865 1384 1523 1659 1660 1661
7 268 964 1372 1634 1662 1663 1664
7 629 1210 1600 1665 1666 1667 1668
7 705 994 1407 1669 1670 1671 1672
7 59 1235 1373 1647 1673 1674 1675
7 251 925 1618 1676 1677 1678 1679
7 631 942 1588 1680 1681 1682 1683
7 190 1017 1585 1684 1685 1686 1687
7 550 1307 1628 1677 1688 1689 1690
7 294 1234 1450 1691 1692 1693 1694
7 469 1140 1496 1665 1695 1696 1697
7 545 1311 1517 1608 1698 1699 1700
7 718 931 1483 1691 1701 1702 1703
7 39 901 1364 1533 1704 1705 1706
7 574 1154 1419 1656 1707 1708 1709
7 693 1056 1508 1684 1710 1711 1712
7 473 1288 1354 1545 1713 1714 1715
7 18 983 1328 1641 1716 1717 1718
7 562 877 1540 1637 1719 1720 1721
7 123 1074 1411 1682 1722 1723 1724
7 665 1253 1333 1621 1725 1726 1727
7 100 1177 1332 1555 1728 1729 1730
7 482 1298 1463 1603 1731 1732 1733
7 395 1150 1356 1442 1734 1735 1736
7 650 989 1327 1577 1737 1738 1739
7 309 1085 1458 1671 1740 1741 1742
7 141 1313 1416 1562 1743 1744 1745
7 642 874 1486 1615 1746 1747 1748
7 686 1131 1473 1652 1749 1750 1751
7 457 1047 1544 1569 1752 1753 1754
7 107 1060 1367 1456 1755 1756 1757
7 496 891 1414 1590 1758 1759 1760
7 424 1200 1530 1583 1761 1762 1763
7 584 1125 1453 1504 1764 1765 1766
7 610 1244 1403 1474 1767 1768 1769
7 67 1205 1322 1550 1770 1771 1772
7 681 1053 1441 1537 1773 1774 1775
7 529 1028 1470 1511 1776 1777 1778
7 541 1266 1491 1499 1779 1780 1781
7 157 935 1408 1460 1782 1783 1784
7 674 1181 1447 1525 1785 1786 1787
7 438 1103 1339 1487 1788 1789 1790
7 700 999 1323 1564 1791 1792 1793
7 594 958 1479 1520 1794 1795 1796
7 88 1147 1342 1467 1797 1798 1799
7 46 973 1320 1800 1801 1802 1803
7 25 929 1325 1804 1805 1806 1807
7 80 1199 1330 1808 1809 1810 1811
7 101 924 1335 1812 1813 1814 1815
7 15 1063 1340 1816 1817 1818 1819
7 53 1180 1345 1820 1821 1822 1823
7 108 1084 1350 1824 1825 1826 1827
7 74 876 1355 1828 1829 1830 1831
7 1 1141 1360 1832 1833 1834 1835
7 36 1280 1365 1836 1837 1838 1839
7 64 1009 1370 1840 1841 1842 1843
7 95 1123 1375 1844 1845 1846 1847
7 9 1316 1380 1848 1849 1850 1851
7 30 1029 1385 1852 1853 1854 1855
7 85 1217 1390 1856 1857 1858 1859
7 58 1258 1395 1860 1861 1862 1863
7 151 956 1400 1864 1865 1866 1867
7 114 1208 1405 1868 1869 1870 1871
7 134 896 1410 1872 1873 1874 1875
7 156 1113 1415 1876 1877 1878 1879
7 120 1239 1420 1880 1881 1882 1883
7 144 1039 1425 1884 1885 1886 1887
7 164 1296 1430 1888 1889 1890 1891
7 129 1054 1435 1892 1893 1894 1895
7 491 737 1443 1896 1897 1898 1899
7 634 1045 1448 1805 1900 1901 1902
7 586 906 1452 1877 1903 1904 1905
7 406 1156 1457 1906 1907 1908 1909
7 375 883 1462 1910 1911 1912 1913
7 654 965 1466 1914 1915 1916 1917
7 254 1023 1471 1809 1918 1919 1920
7 561 779 1475 1910 1921 1922 1923
7 470 915 1480 1829 1924 1925 1926
7 339 1080 1482 1872 1927 1928 1929
7 281 827 1488 1930 1931 1932 1933
7 519 1008 1493 1837 1934 1935 1936
7 555 1149 1497 1825 1937 1938 1939
7 691 838 1502 1940 1941 1942 1943
7 527 871 1506 1893 1917 1944 1945
7 329 1128 1509 1833 1946 1947 1948
7 445 725 1515 1936 1949 1950 1951
7 711 1076 1519 1857 1898 1952 1953
7 180 1095 1524 1954 1955 1956 1957
7 498 1164 1528 1926 1958 1959 1960
7 399 962 1534 1961 1962 1963 1964
7 415 1238 1538 1888 1932 1965 1966
7 204 946 1541 1853 1909 1967 1968
7 582 749 1547 1969 1970 1971 1972
7 618 893 1551 1970 1973 1974 1975
7 511 1000 1557 1940 1976 1977 1978
7 709 1104 1561 1948 1979 1980 1981
7 248 797 1565 1961 1982 1983 1984
7 213 1038 1570 1868 1985 1986 1987
7 531 1109 1572 1812 1988 1989 1990
7 408 857 1578 1954 1991 1992 1993
7 684 1015 1582 1864 1994 1995 1996
7 318 869 1587 1801 1997 1998 1999
7 184 755 1591 1939 2000 2001 2002
7 432 923 1595 1817 2003 2004 2005
7 643 1227 1598 1800 2006 2007 2008
7 679 1024 1604 1820 2009 2010 2011
7 569 936 1607 1813 2012 2013 2014
7 647 760 1611 2015 2016 2017 2018
7 169 1270 1614 1821 2019 2020 2021
7 295 980 1619 1884 1957 2022 2023
7 591 844 1622 1914 2024 2025 2026
7 334 1304 1625 1816 2027 2028 2029
7 620 1120 1629 1880 1942 2030 2031
7 242 731 1635 1920 2032 2033 2034
7 263 1255 1639 2015 2035 2036 2037
7 359 887 1643 1931 2038 2039 2040
7 703 1169 1645 1902 2041 2042 2043
7 191 1196 1649 1841 2036 2044 2045
7 362 1224 1653 1848 1971 2046 2047
7 305 773 1657 2021 2048 2049 2050
7 660 987 1660 1840 2018 2051 2052
7 639 1262 1663 1869 2053 2054 2055
7 389 821 1668 1905 2056 2057 2058
7 548 909 1672 1845 1964 2059 2060
7 274 1062 1675 1865 2061 2062 2063
7 717 808 1678 1906 2064 2065 2066
7 613 970 1681 2011 2049 2067 2068
7 567 1289 1686 1929 2069 2070 2071
7 223 996 1690 1897 2072 2073 2074
7 269 1294 1693 1990 2075 2076 2077
7 440 1172 1696 1996 2078 2079 2080
7 229 1161 1699 2001 2081 2082 2083
7 602 742 1703 2005 2084 2085 2086
7 695 1206 1705 1885 1992 2087 2088
7 466 1049 1708 1849 1974 2089 2090
7 479 833 1712 1987 2091 2092 2093
7 198 1185 1714 1881 1977 2094 2095
7 655 1273 1717 1860 1922 2096 2097
7 671 784 1721 1979 2098 2099 2100
7 501 1314 1724 1844 1983 2101 2102
7 302 939 1727 1861 1913 2103 2104
7 342 1092 1729 1832 2099 2105 2106
7 207 862 1732 2063 2079 2107 2108
7 458 1275 1735 1876 2109 2110 2111
7 543 1069 1739 1824 2082 2112 2113
7 513 814 1741 1958 2114 2115 2116
7 234 1136 1744 1804 2117 2118 2119
7 668 1151 1747 2055 2091 2120 2121
7 428 991 1750 1949 2122 2123 2124
7 598 1246 1753 2029 2084 2125 2126
7 483 955 1756 1873 2127 2128 2129
7 689 1231 1760 1808 2130 2131 2132
7 378 790 1762 2014 2075 2133 2134
7 422 802 1765 2041 2119 2135 2136
7 289 1214 1769 1856 2073 2137 2138
7 382 1302 1771 1892 2025 2139 2140
7 476 1101 1774 2032 2132 2141 2142
7 578 1285 1777 2008 2143 2144 2145
7 313 1250 1780 2056 2111 2146 2147
7 605 1192 1783 1852 2066 2148 2149
7 350 766 1787 1999 2143 2150 2151
7 538 1308 1789 1836 2123 2152 2153
7 553 1137 1793 1889 2039 2154 2155
7 626 850 1795 2069 2129 2156 2157
7 449 1178 1798 1828 2116 2158 2159
7 690 1044 1498 1933 2160 2161 2162
7 443 870 1512 2002 2163 2164 2165
7 645 1263 1609 1923 2166 2167 2168
7 670 1016 1719 1951 2169 2170 2171
7 559 1079 1472 2050 2172 2173 2174
7 388 1050 1666 1993 2175 2176 2177
7 625 1232 1794 1943 2178 2179 2180
7 478 908 1710 2058 2181 2182 2183
7 280 944 1485 2108 2184 2185 2186
7 407 1305 1575 2026 2187 2188 2189
7 590 1110 1620 2093 2190 2191 2192
7 349 1138 1785 2017 2193 2194 2195
7 182 1184 1589 2115 2196 2197 2198
7 304 979 1655 2151 2199 2200 2201
7 512 1277 1740 2100 2202 2203 2204
7 206 1212 1731 2157 2205 2206 2207
7 600 1025 1701 1899 2208 2209 2210
7 489 1127 1440 1984 2211 2212 2213
7 580 914 1543 2034 2214 2215 2216
7 715 1228 1676 1972 2217 2218 2219
7 246 1195 1563 2136 2220 2221 2222
7 420 1070 1764 2086 2223 2224 2225
7 376 1309 1761 2065 2226 2227 2228
7 240 938 1632 2134 2229 2230 2231
7 619 957 1552 1919 2232 2233 2234
7 676 1107 1601 1803 2177 2235 2236
7 661 834 1661 1911 2237 2238 2239
7 153 1148 1404 1927 2217 2240 2241
7 104 904 1338 1967 2172 2242 2243
7 111 1077 1352 1924 2190 2244 2245
7 585 732 1451 1955 2246 2247 2248
7 708 1201 1560 1935 2249 2250 2251
7 682 967 1580 1874 2210 2252 2253
7 632 1158 1445 1819 2165 2254 2255
7 652 975 1465 1986 2256 2257 2258
7 710 774 1518 1962 2233 2259 2260
7 570 759 1606 1907 2245 2261 2262
7 669 1086 1748 1904 2263 2264 2265
7 546 894 1669 1807 2195 2256 2266
7 525 1002 1503 1871 2231 2249 2267
7 614 926 1683 1998 2268 2269 2270
7 696 806 1706 1915 2271 2272 2273
7 48 1022 1321 2044 2187 2274 2275
7 83 1237 1331 1988 2202 2246 2276
7 159 1006 1418 2022 2220 2237 2277
7 554 853 1495 1959 2278 2279 2280
7 468 884 1477 1835 2183 2281 2282
7 704 1114 1646 2004 2235 2283 2284
7 145 988 1429 1944 2214 2285 2286
7 76 937 1358 1946 2160 2287 2288
7 97 1207 1378 1900 2169 2289 2290
7 404 1209 1455 2047 2281 2291 2292
7 518 822 1492 2081 2270 2293 2294
7 641 1166 1597 1842 2161 2295 2296
7 509 1182 1556 1966 2273 2297 2298
7 687 1170 1758 1814 2168 2299 2300
7 433 720 1596 2072 2275 2301 2302
7 373 930 1461 2020 2279 2303 2304
7 621 745 1630 2038 2265 2305 2306
7 637 1291 1662 1879 2212 2307 2308
7 551 1153 1791 1866 2228 2268 2309
7 484 741 1757 1976 2243 2310 2311
7 429 1124 1751 1938 2239 2312 2313
7 252 750 1469 2076 2314 2315 2316
7 530 963 1571 1854 2170 2317 2318
7 568 1282 1687 2031 2254 2319 2320
7 325 1257 1507 1839 2186 2321 2322
7 656 843 1718 2067 2250 2323 2324
7 398 897 1532 2118 2315 2325 2326
7 27 1061 1326 2027 2166 2327 2328
7 68 922 1374 2103 2184 2329 2330
7 167 1274 1431 1994 2223 2278 2331
7 337 1098 1481 1882 2215 2332 2333
7 413 792 1536 2078 2257 2334 2335
7 497 1065 1527 2106 2252 2336 2337
7 606 783 1784 1973 2330 2338 2339
7 463 1248 1707 1811 2198 2263 2340
7 358 878 1642 2062 2248 2341 2342
7 540 972 1737 1830 2180 2325 2343
7 317 817 1586 2035 2241 2344 2345
7 599 1297 1754 1953 2321 2338 2346
7 89 1122 1394 2059 2199 2271 2347
7 55 1315 1346 2006 2178 2314 2348
7 138 868 1413 2094 2211 2349 2350
7 117 1269 1406 2109 2226 2293 2351
7 40 1226 1366 2112 2205 2259 2352
7 19 1037 1341 2137 2196 2305 2353
7 477 1040 1775 2013 2302 2354 2355
7 450 849 1799 1980 2286 2356 2357
7 299 992 1725 1823 2207 2232 2358
7 442 1011 1697 2128 2299 2359 2360
7 202 998 1539 1851 2200 2297 2361
7 500 812 1723 2042 2291 2362 2363
7 579 1219 1778 2052 2307 2364 2365
7 273 788 1674 2070 2290 2366 2367
7 293 889 1616 1895 2224 2303 2368
7 363 769 1654 2141 2283 2369 2370
7 178 1143 1522 2140 2317 2366 2371
7 332 1295 1624 1858 2173 2372 2373
7 456 1174 1734 1886 2218 2374 2375
7 262 1317 1638 2097 2332 2356 2376
7 212 727 1568 2146 2328 2359 2377
7 61 1193 1398 2009 2181 2362 2378
7 33 954 1389 2089 2163 2379 2380
7 132 1179 1437 2053 2208 2381 2382
7 344 830 1730 2122 2350 2365 2383
7 534 1287 1788 1826 2188 2354 2384
7 222 1055 1689 2102 2261 2385 2386
7 270 1240 1694 2149 2295 2387 2388
7 189 1162 1648 1862 2191 2385 2389
7 168 860 1613 2144 2336 2382 2390
7 124 1093 1422 2154 2229 2323 2391
7 12 1303 1382 2130 2193 2334 2392
7 5 1135 1363 2152 2175 2369 2393
7 383 801 1772 2120 2319 2380 2394
7 230 1030 1700 2159 2344 2374 2395
7 195 1252 1713 1890 2221 2312 2396
7 288 1102 1767 1846 2204 2341 2397
7 315 1260 1781 2088 2310 2372 2398
7 233 765 1745 2125 2288 2388 2399
7 62 1018 1324 2051 2244 2400 2401
7 90 918 1329 2003 2242 2402 2403
7 34 1026 1334 2012 2289 2404 2405
7 13 1071 1337 2148 2347 2406 2407
7 96 1230 1344 1952 2276 2408 2409
7 69 873 1349 1997 2287 2410 2411
7 6 1139 1353 2158 2378 2412 2413
7 41 982 1357 2105 2329 2414 2415
7 110 1083 1362 1934 2274 2416 2417
7 75 1265 1369 1937 2348 2418 2419
7 54 1278 1371 2096 2352 2420 2421
7 20 941 1377 2117 2379 2422 2423
7 103 1130 1383 1918 2327 2424 2425
7 82 1198 1386 2046 2353 2426 2427
7 26 1310 1391 2101 2392 2428 2429
7 47 1186 1397 2019 2393 2430 2431
7 125 911 1401 2127 2285 2432 2433
7 146 1048 1409 1903 2240 2434 2435
7 166 1112 1412 2030 2277 2436 2437
7 131 1233 1417 2087 2331 2438 2439
7 152 1306 1423 1965 2351 2440 2441
7 118 1215 1426 2139 2391 2442 2443
7 139 1052 1434 2061 2381 2444 2445
7 160 948 1438 1985 2349 2446 2447
7 421 928 1444 2060 2238 2448 2449
7 286 984 1446 2085 2264 2411 2450
7 387 971 1449 1887 2171 2451 2452
7 474 837 1454 1975 2236 2439 2453
7 576 746 1459 2068 2253 2409 2454
7 312 780 1464 2121 2300 2421 2455
7 609 966 1468 1815 2162 2456 2457
7 351 1087 1476 2010 2272 2458 2459
7 533 1119 1478 2098 2284 2432 2460
7 549 1075 1484 1941 2251 2403 2461
7 627 1117 1489 1995 2260 2462 2463
7 454 1168 1490 1827 2219 2448 2464
7 347 892 1494 1831 2209 2455 2465
7 208 1043 1501 2155 2339 2466 2467
7 455 920 1505 2092 2269 2423 2463
7 539 903 1510 1950 2234 2447 2459
7 514 1013 1514 2113 2306 2468 2469
7 238 1152 1516 1847 2179 2470 2471
7 666 777 1521 1916 2255 2418 2472
7 426 805 1526 1981 2308 2429 2457
7 596 840 1531 2043 2296 2440 2452
7 488 1105 1535 1867 2167 2473 2474
7 685 1005 1542 1969 2258 2414 2475
7 377 1220 1546 2131 2324 2450 2476
7 266 829 1549 2142 2343 2436 2477
7 437 723 1554 2040 2266 2401 2478
7 227 738 1559 2124 2309 2407 2479
7 601 1202 1566 1901 2280 2475 2480
7 699 1165 1567 1878 2174 2468 2481
7 461 1271 1573 2064 2320 2400 2482
7 480 959 1579 1945 2262 2470 2483
7 194 1189 1581 2156 2364 2404 2484
7 659 961 1584 1843 2216 2472 2485
7 672 977 1592 1925 2247 2473 2486
7 503 1173 1593 1859 2192 2466 2487
7 298 1204 1599 2016 2346 2435 2488
7 188 950 1602 2150 2355 2444 2469
7 367 888 1605 1855 2182 2454 2489
7 306 880 1610 2104 2311 2451 2490
7 664 1155 1612 1802 2213 2491 2492
7 635 1223 1617 2024 2337 2406 2493
7 390 1299 1623 2054 2363 2461 2494
7 544 1146 1626 1896 2298 2417 2495
7 277 1286 1627 1891 2203 2458 2496
7 716 1067 1633 1989 2294 2491 2497
7 611 735 1636 1912 2267 2405 2498
7 564 770 1640 2080 2318 2416 2499
7 220 846 1644 2126 2384 2443 2474
7 675 1236 1650 1921 2292 2437 2500
7 572 1290 1651 1810 2189 2462 2501
7 646 1283 1658 2007 2335 2460 2502
7 172 1100 1659 1863 2225 2499 2503
7 292 933 1664 2057 2313 2425 2467
7 592 900 1667 2023 2301 2456 2504
7 330 1090 1670 2135 2360 2413 2497
7 624 882 1673 1875 2164 2453 2505
7 241 1126 1679 2090 2357 2495 2503
7 259 798 1680 2145 2375 2426 2471
7 357 756 1685 1978 2340 2412 2492
7 701 825 1688 1963 2282 2434 2506
7 616 854 1692 1908 2322 2445 2481
7 506 811 1695 2071 2373 2430 2464
7 706 795 1698 1960 2333 2424 2487
7 247 1033 1702 2138 2383 2485 2507
7 216 990 1704 1894 2194 2477 2508
7 528 864 1709 2033 2342 2431 2449
7 409 1243 1711 2110 2370 2484 2509
7 680 1020 1715 1930 2304 2427 2483
7 321 1245 1716 1822 2227 2480 2510
7 183 1261 1720 2153 2394 2488 2511
7 436 1001 1722 1806 2176 2479 2512
7 640 1035 1726 2048 2326 2442 2486
7 556 1293 1728 1838 2222 2476 2513
7 692 1211 1733 1928 2316 2493 2512
7 523 1312 1736 1991 2376 2408 2514
7 324 1300 1738 2114 2387 2438 2515
7 444 1183 1742 1947 2367 2500 2508
7 713 1096 1743 1818 2185 2498 2509
7 175 762 1746 2147 2397 2415 2510
7 495 728 1749 2083 2368 2402 2516
7 394 818 1752 2074 2358 2433 2517
7 416 1160 1755 1883 2201 2506 2511
7 200 1175 1759 2133 2398 2419 2507
7 581 932 1763 1968 2345 2465 2518
7 490 1319 1766 2028 2390 2482 2519
7 630 1268 1768 1982 2371 2420 2518
7 587 1254 1770 1870 2197 2502 2517
7 401 859 1773 2077 2389 2446 2496
7 369 787 1776 2037 2396 2422 2501
7 651 753 1779 1956 2361 2410 2513
7 255 1251 1782 1850 2206 2494 2516
7 560 1144 1786 2045 2377 2505 2515
7 467 1058 1790 2000 2386 2441 2490
7 336 1132 1792 2107 2395 2428 2504
7 282 1057 1796 2095 2399 2489 2514
7 520 995 1797 1834 2230 2478 2519
