# Generated using Miratope v0.5.0 (https://github.com/galoomba1/miratope-rs)
4OFF

# Vertices, Faces, Edges, Cells
120 2400 1200 720

# Vertices
0.0834626338555 0 0.3535533905933 0.5 
-0.4885987689621 0 0.2185080122244 0.3090169943749 
0.4370160244488 -0.3090169943749 -0 0.3090169943749 
0.4370160244488 0.3090169943749 -0 0.3090169943749 
-0.1350453783689 0.5 0.1350453783689 0.3090169943749 
-0.1350453783689 -0.5 0.1350453783689 0.3090169943749 
0.0834626338555 0.5 -0.3535533905933 0 
-0.4885987689621 0.3090169943749 -0.2185080122244 0 
0.4370160244488 -0 -0.4370160244488 0 
-0.1350453783689 -0 -0.5720614028177 -0.1909830056251 
0.0834626338555 -0.5 -0.3535533905933 0 
-0.4885987689621 -0.3090169943749 -0.2185080122244 0 
0.4370160244488 -0 0.4370160244488 -0 
-0.1350453783689 0.1909830056251 0.5720614028177 -0 
-0.1350453783689 -0.3090169943749 -0.1350453783689 0.5 
0.0834626338555 -0 0.3535533905933 -0.5 
-0.4885987689621 0 0.2185080122244 -0.3090169943749 
0.4370160244488 -0.3090169943749 -0 -0.3090169943749 
-0.1350453783689 -0.3090169943749 -0.1350453783689 -0.5 
0.4370160244488 0.3090169943749 -0 -0.3090169943749 
-0.1350453783689 0.5 0.1350453783689 -0.3090169943749 
-0.1350453783689 -0.5 0.1350453783689 -0.3090169943749 
-0.1350453783689 -0 -0.5720614028177 0.1909830056251 
-0.1350453783689 -0.1909830056251 0.5720614028177 -0 
-0.1350453783689 0.3090169943749 -0.1350453783689 0.5 
-0.1350453783689 0.3090169943749 -0.1350453783689 -0.5 
0.2185080122244 -0.3090169943749 0.4885987689621 -0 
0.2185080122244 0.1909830056251 -0.2185080122244 0.5 
0.2185080122244 0.1909830056251 -0.2185080122244 -0.5 
0.2185080122244 0.3090169943749 0.4885987689621 -0 
0.2185080122244 -0.1909830056251 -0.2185080122244 0.5 
0.2185080122244 -0.1909830056251 -0.2185080122244 -0.5 
0.2185080122244 0.5 0.2185080122244 0.1909830056251 
0.2185080122244 -0.5 0.2185080122244 0.1909830056251 
0.2185080122244 -0 -0.4885987689621 -0.3090169943749 
-0.3535533905933 -0 -0.0834626338555 0.5 
-0.3535533905933 -0 -0.0834626338555 -0.5 
0.2185080122244 0.5 0.2185080122244 -0.1909830056251 
0.2185080122244 -0.5 0.2185080122244 -0.1909830056251 
0.2185080122244 -0 -0.4885987689621 0.3090169943749 
-0.3535533905933 -0.3090169943749 0.3535533905933 0.1909830056251 
-0.3535533905933 0.1909830056251 -0.3535533905933 -0.3090169943749 
-0.3535533905933 -0.3090169943749 0.3535533905933 -0.1909830056251 
-0.3535533905933 0.1909830056251 -0.3535533905933 0.3090169943749 
-0.3535533905933 0.3090169943749 0.3535533905933 0.1909830056251 
-0.3535533905933 -0.1909830056251 -0.3535533905933 -0.3090169943749 
-0.3535533905933 0.3090169943749 0.3535533905933 -0.1909830056251 
-0.3535533905933 -0.1909830056251 -0.3535533905933 0.3090169943749 
0.5720614028177 -0 0.1350453783689 0.1909830056251 
-0 -0.3090169943749 -0.4370160244488 -0.3090169943749 
-0.3535533905933 0.5 0.0834626338555 -0 
-0.3535533905933 -0.5 0.0834626338555 -0 
0.5720614028177 -0 0.1350453783689 -0.1909830056251 
-0 -0.3090169943749 -0.4370160244488 0.3090169943749 
-0 0.3090169943749 -0.4370160244488 -0.3090169943749 
0.5720614028177 0.1909830056251 -0.1350453783689 -0 
-0 -0.6180339887499 -0 -0 
-0 0.3090169943749 -0.4370160244488 0.3090169943749 
-0 -0 0 -0.6180339887499 
0.5720614028177 -0.1909830056251 -0.1350453783689 -0 
-0 0.6180339887499 -0 -0 
-0 -0.3090169943749 0.4370160244488 -0.3090169943749 
-0 -0 0 0.6180339887499 
-0 0.3090169943749 0.4370160244488 -0.3090169943749 
-0.5720614028177 0.1909830056251 0.1350453783689 -0 
0.3535533905933 0.5 -0.0834626338555 -0 
-0 -0.3090169943749 0.4370160244488 0.3090169943749 
-0 0.3090169943749 0.4370160244488 0.3090169943749 
0.3535533905933 0.1909830056251 0.3535533905933 -0.3090169943749 
-0.5720614028177 -0.1909830056251 0.1350453783689 -0 
0.3535533905933 -0.5 -0.0834626338555 -0 
0.3535533905933 0.1909830056251 0.3535533905933 0.3090169943749 
0.3535533905933 -0.1909830056251 0.3535533905933 -0.3090169943749 
-0.5720614028177 0 -0.1350453783689 0.1909830056251 
0.3535533905933 -0.3090169943749 -0.3535533905933 0.1909830056251 
0.3535533905933 -0.1909830056251 0.3535533905933 0.3090169943749 
0.3535533905933 0.3090169943749 -0.3535533905933 0.1909830056251 
-0.2185080122244 0 0.4885987689621 -0.3090169943749 
-0.5720614028177 0 -0.1350453783689 -0.1909830056251 
0.3535533905933 -0.3090169943749 -0.3535533905933 -0.1909830056251 
0.3535533905933 -0 0.0834626338555 0.5 
-0.2185080122244 0 0.4885987689621 0.3090169943749 
0.3535533905933 0.3090169943749 -0.3535533905933 -0.1909830056251 
-0.2185080122244 0.5 -0.2185080122244 0.1909830056251 
0.3535533905933 -0 0.0834626338555 -0.5 
-0.2185080122244 0.1909830056251 0.2185080122244 0.5 
-0.2185080122244 0.5 -0.2185080122244 -0.1909830056251 
-0.2185080122244 -0.5 -0.2185080122244 0.1909830056251 
-0.2185080122244 0.1909830056251 0.2185080122244 -0.5 
-0.2185080122244 -0.1909830056251 0.2185080122244 0.5 
-0.2185080122244 -0.5 -0.2185080122244 -0.1909830056251 
-0.2185080122244 -0.1909830056251 0.2185080122244 -0.5 
0.1350453783689 -0.3090169943749 0.1350453783689 0.5 
-0.2185080122244 -0.3090169943749 -0.4885987689621 0 
-0.2185080122244 0.3090169943749 -0.4885987689621 0 
0.1350453783689 -0.3090169943749 0.1350453783689 -0.5 
0.1350453783689 0.3090169943749 0.1350453783689 0.5 
0.1350453783689 0.1909830056251 -0.5720614028177 0 
0.1350453783689 0.3090169943749 0.1350453783689 -0.5 
0.1350453783689 0 0.5720614028177 0.1909830056251 
0.1350453783689 -0.1909830056251 -0.5720614028177 0 
0.1350453783689 0.5 -0.1350453783689 -0.3090169943749 
0.1350453783689 0 0.5720614028177 -0.1909830056251 
0.1350453783689 -0.5 -0.1350453783689 -0.3090169943749 
-0.4370160244488 -0 -0.4370160244488 0 
0.1350453783689 0.5 -0.1350453783689 0.3090169943749 
0.1350453783689 -0.5 -0.1350453783689 0.3090169943749 
-0.4370160244488 -0.3090169943749 -0 -0.3090169943749 
-0.4370160244488 -0.3090169943749 -0 0.3090169943749 
-0.4370160244488 0.3090169943749 -0 -0.3090169943749 
-0.4370160244488 0.3090169943749 -0 0.3090169943749 
0.4885987689621 -0 -0.2185080122244 -0.3090169943749 
-0.4370160244488 0 0.4370160244488 -0 
0.4885987689621 -0 -0.2185080122244 0.3090169943749 
0.4885987689621 -0.3090169943749 0.2185080122244 -0 
0.4885987689621 0.3090169943749 0.2185080122244 -0 
-0.0834626338555 0.5 0.3535533905933 -0 
-0.0834626338555 -0.5 0.3535533905933 -0 
-0.0834626338555 -0 -0.3535533905933 0.5 
-0.0834626338555 -0 -0.3535533905933 -0.5 

# Faces
3 1 4 0
3 0 1 5
3 2 3 0
3 0 2 5
3 0 3 4
3 7 4 6
3 6 9 7
3 6 8 3
3 6 9 8
3 6 4 3
3 11 5 10
3 10 9 11
3 10 8 2
3 10 8 9
3 2 5 10
3 11 7 1
3 11 9 7
3 11 1 5
3 7 1 4
3 2 3 8
3 0 1 13
3 0 14 1
3 0 2 12
3 0 2 14
3 0 13 12
3 15 13 16
3 16 18 15
3 17 12 15
3 17 18 15
3 12 13 15
3 11 14 10
3 10 18 11
3 2 17 10
3 17 18 10
3 2 14 10
3 11 16 1
3 11 18 16
3 1 14 11
3 16 13 1
3 17 2 12
3 16 20 15
3 15 21 16
3 15 17 19
3 15 17 21
3 19 20 15
3 6 7 20
3 7 22 6
3 6 19 8
3 8 22 6
3 6 19 20
3 10 21 11
3 10 22 11
3 10 17 8
3 10 22 8
3 17 21 10
3 11 16 7
3 7 22 11
3 11 16 21
3 7 20 16
3 17 19 8
3 1 23 0
3 0 24 1
3 3 12 0
3 0 3 24
3 12 23 0
3 15 16 23
3 15 25 16
3 12 19 15
3 15 25 19
3 15 23 12
3 6 24 7
3 6 7 25
3 6 19 3
3 19 25 6
3 3 24 6
3 1 16 7
3 7 25 16
3 1 24 7
3 16 1 23
3 19 12 3
3 0 2 26
3 0 2 27
3 4 13 0
3 4 27 0
3 0 13 26
3 15 17 26
3 15 17 28
3 15 20 13
3 15 28 20
3 13 26 15
3 8 27 6
3 8 28 6
3 4 20 6
3 6 28 20
3 6 4 27
3 2 8 17
3 17 28 8
3 8 2 27
3 2 26 17
3 4 13 20
3 0 29 3
3 0 30 3
3 5 23 0
3 0 5 30
3 23 29 0
3 15 29 19
3 15 19 31
3 15 23 21
3 15 21 31
3 23 29 15
3 10 8 30
3 10 8 31
3 5 21 10
3 10 21 31
3 10 5 30
3 8 3 19
3 8 31 19
3 8 3 30
3 19 3 29
3 21 5 23
3 12 32 0
3 0 12 33
3 0 14 24
3 14 33 0
3 0 32 24
3 6 19 32
3 19 34 6
3 6 24 22
3 6 34 22
3 6 24 32
3 17 33 10
3 10 34 17
3 14 22 10
3 10 22 34
3 10 33 14
3 17 19 12
3 19 34 17
3 17 12 33
3 19 32 12
3 22 14 24
3 4 29 0
3 4 35 0
3 5 26 0
3 0 35 5
3 0 29 26
3 15 20 29
3 15 20 36
3 15 26 21
3 15 36 21
3 26 29 15
3 7 35 11
3 11 36 7
3 5 21 11
3 11 21 36
3 11 35 5
3 7 20 4
3 20 36 7
3 7 35 4
3 20 29 4
3 21 5 26
3 15 37 12
3 15 12 38
3 15 18 25
3 15 38 18
3 25 37 15
3 3 37 6
3 6 39 3
3 9 25 6
3 6 39 9
3 6 25 37
3 2 38 10
3 10 2 39
3 9 18 10
3 10 39 9
3 10 38 18
3 2 3 12
3 3 39 2
3 2 12 38
3 3 37 12
3 9 25 18
3 13 32 0
3 13 40 0
3 14 27 0
3 14 40 0
3 0 32 27
3 20 32 6
3 20 41 6
3 22 27 6
3 6 41 22
3 6 32 27
3 11 40 16
3 11 16 41
3 11 22 14
3 11 22 41
3 11 40 14
3 16 20 13
3 16 41 20
3 16 40 13
3 20 32 13
3 22 14 27
3 15 37 13
3 15 13 42
3 18 28 15
3 18 42 15
3 15 37 28
3 4 37 6
3 6 43 4
3 9 28 6
3 9 43 6
3 28 37 6
3 11 1 42
3 1 43 11
3 11 18 9
3 9 43 11
3 11 18 42
3 4 13 1
3 1 4 43
3 1 42 13
3 4 13 37
3 9 28 18
3 0 23 33
3 23 44 0
3 24 30 0
3 0 24 44
3 0 30 33
3 21 33 10
3 21 45 10
3 22 30 10
3 22 45 10
3 10 30 33
3 7 16 44
3 7 45 16
3 7 24 22
3 22 45 7
3 7 24 44
3 16 23 21
3 16 45 21
3 16 23 44
3 23 33 21
3 22 24 30
3 23 38 15
3 23 46 15
3 15 31 25
3 15 46 25
3 15 38 31
3 10 38 5
3 10 5 47
3 10 9 31
3 9 47 10
3 10 31 38
3 7 46 1
3 7 47 1
3 9 25 7
3 9 47 7
3 7 46 25
3 1 5 23
3 1 5 47
3 1 23 46
3 23 38 5
3 25 31 9
3 0 26 40
3 0 48 26
3 27 35 0
3 0 48 27
3 0 40 35
3 11 21 40
3 21 49 11
3 22 35 11
3 22 49 11
3 35 40 11
3 8 17 48
3 8 49 17
3 8 27 22
3 22 49 8
3 8 48 27
3 21 26 17
3 17 49 21
3 26 48 17
3 21 26 40
3 22 35 27
3 24 39 6
3 24 50 6
3 6 25 34
3 6 50 25
3 6 39 34
3 10 39 14
3 10 51 14
3 10 18 34
3 18 51 10
3 34 39 10
3 1 50 16
3 1 51 16
3 18 25 16
3 18 51 16
3 16 25 50
3 1 14 24
3 1 51 14
3 24 50 1
3 24 39 14
3 18 34 25
3 26 42 15
3 15 26 52
3 15 36 28
3 15 52 28
3 36 42 15
3 5 42 11
3 11 53 5
3 11 36 9
3 11 53 9
3 36 42 11
3 2 52 8
3 8 53 2
3 9 28 8
3 8 53 9
3 8 28 52
3 5 26 2
3 5 53 2
3 26 52 2
3 26 42 5
3 9 36 28
3 29 44 0
3 0 48 29
3 0 30 35
3 0 30 48
3 35 44 0
3 20 44 7
3 20 54 7
3 7 22 35
3 7 22 54
3 35 44 7
3 8 19 48
3 8 54 19
3 8 22 30
3 22 54 8
3 8 30 48
3 20 29 19
3 19 20 54
3 19 48 29
3 29 44 20
3 22 30 35
3 6 43 27
3 6 27 55
3 6 28 41
3 6 28 55
3 6 43 41
3 11 14 43
3 11 14 56
3 11 18 41
3 11 56 18
3 41 43 11
3 17 55 2
3 2 56 17
3 18 28 17
3 17 18 56
3 17 28 55
3 2 14 27
3 2 56 14
3 2 27 55
3 14 43 27
3 18 28 41
3 29 46 15
3 15 52 29
3 15 36 31
3 15 52 31
3 36 46 15
3 4 46 7
3 7 57 4
3 7 36 9
3 9 57 7
3 36 46 7
3 8 3 52
3 3 57 8
3 9 31 8
3 8 57 9
3 8 31 52
3 3 4 29
3 3 4 57
3 29 52 3
3 29 46 4
3 9 31 36
3 32 44 0
3 0 48 32
3 33 40 0
3 0 48 33
3 0 40 44
3 16 44 20
3 20 58 16
3 16 21 40
3 16 58 21
3 40 44 16
3 17 19 48
3 17 19 58
3 17 21 33
3 17 21 58
3 17 33 48
3 20 32 19
3 20 58 19
3 32 48 19
3 20 44 32
3 21 40 33
3 10 30 47
3 30 59 10
3 10 31 45
3 31 59 10
3 10 45 47
3 24 47 7
3 7 60 24
3 7 25 45
3 7 25 60
3 7 47 45
3 3 59 19
3 19 3 60
3 19 31 25
3 19 25 60
3 19 31 59
3 3 24 30
3 3 24 60
3 3 30 59
3 24 47 30
3 31 45 25
3 32 50 6
3 6 55 32
3 6 34 41
3 6 55 34
3 6 41 50
3 16 13 50
3 16 13 61
3 16 41 18
3 16 18 61
3 16 41 50
3 17 55 12
3 17 12 61
3 17 18 34
3 18 61 17
3 17 34 55
3 12 32 13
3 12 13 61
3 12 55 32
3 13 32 50
3 18 34 41
3 37 46 15
3 37 52 15
3 15 38 42
3 15 52 38
3 15 46 42
3 4 46 1
3 4 62 1
3 1 42 5
3 1 5 62
3 42 46 1
3 3 52 2
3 3 62 2
3 2 5 38
3 2 5 62
3 2 52 38
3 4 37 3
3 3 62 4
3 37 52 3
3 4 37 46
3 5 38 42
3 10 33 51
3 10 59 33
3 34 45 10
3 34 59 10
3 45 51 10
3 16 51 23
3 23 63 16
3 25 45 16
3 16 63 25
3 45 51 16
3 19 59 12
3 19 63 12
3 25 34 19
3 19 25 63
3 34 59 19
3 12 33 23
3 23 63 12
3 12 33 59
3 23 33 51
3 25 45 34
3 35 53 11
3 11 64 35
3 11 36 49
3 11 64 36
3 11 49 53
3 8 53 27
3 8 65 27
3 28 49 8
3 8 28 65
3 49 53 8
3 20 4 64
3 4 65 20
3 20 36 28
3 20 28 65
3 20 64 36
3 4 35 27
3 4 65 27
3 4 64 35
3 27 35 53
3 28 36 49
3 6 50 37
3 6 55 37
3 6 43 39
3 6 39 55
3 43 50 6
3 13 50 1
3 13 66 1
3 14 43 1
3 14 66 1
3 1 50 43
3 2 55 12
3 12 66 2
3 14 39 2
3 14 66 2
3 2 55 39
3 12 37 13
3 13 66 12
3 12 55 37
3 13 37 50
3 39 43 14
3 10 51 38
3 38 59 10
3 39 47 10
3 10 59 39
3 10 51 47
3 23 51 1
3 1 67 23
3 1 24 47
3 24 67 1
3 1 47 51
3 3 59 12
3 3 67 12
3 3 24 39
3 3 24 67
3 39 59 3
3 12 38 23
3 12 67 23
3 12 59 38
3 23 51 38
3 39 47 24
3 11 56 40
3 11 40 64
3 11 41 49
3 41 64 11
3 11 49 56
3 17 56 26
3 26 68 17
3 17 49 28
3 17 28 68
3 17 56 49
3 13 64 20
3 20 13 68
3 28 41 20
3 20 68 28
3 20 64 41
3 13 40 26
3 26 68 13
3 13 40 64
3 26 56 40
3 28 49 41
3 35 57 7
3 7 35 69
3 7 36 54
3 7 69 36
3 54 57 7
3 8 57 30
3 8 70 30
3 8 54 31
3 31 70 8
3 8 54 57
3 5 69 21
3 21 70 5
3 21 36 31
3 21 70 31
3 21 69 36
3 30 35 5
3 30 70 5
3 5 35 69
3 30 57 35
3 31 54 36
3 42 56 11
3 42 64 11
3 11 53 43
3 43 64 11
3 53 56 11
3 2 26 56
3 26 71 2
3 2 27 53
3 2 71 27
3 53 56 2
3 4 64 13
3 13 71 4
3 4 27 43
3 27 71 4
3 43 64 4
3 13 26 42
3 26 71 13
3 42 64 13
3 26 56 42
3 27 43 53
3 7 44 60
3 44 69 7
3 7 45 54
3 7 69 45
3 7 54 60
3 19 60 29
3 29 72 19
3 19 54 31
3 31 72 19
3 19 60 54
3 21 23 69
3 23 72 21
3 21 45 31
3 21 31 72
3 45 69 21
3 23 44 29
3 23 72 29
3 23 69 44
3 44 60 29
3 31 45 54
3 16 40 61
3 40 73 16
3 41 58 16
3 41 73 16
3 16 61 58
3 33 61 17
3 17 33 74
3 17 34 58
3 17 34 74
3 58 61 17
3 22 73 14
3 22 14 74
3 22 41 34
3 22 74 34
3 22 73 41
3 14 40 33
3 14 74 33
3 14 73 40
3 33 40 61
3 34 58 41
3 7 60 46
3 7 46 69
3 7 47 57
3 47 69 7
3 7 60 57
3 3 60 29
3 3 75 29
3 3 30 57
3 3 75 30
3 57 60 3
3 23 69 5
3 5 23 75
3 30 47 5
3 30 75 5
3 5 69 47
3 23 29 46
3 29 75 23
3 23 46 69
3 46 60 29
3 30 57 47
3 16 44 63
3 16 73 44
3 16 58 45
3 45 73 16
3 58 63 16
3 19 32 63
3 19 32 76
3 19 58 34
3 19 34 76
3 58 63 19
3 22 24 73
3 22 76 24
3 22 45 34
3 22 76 34
3 45 73 22
3 32 44 24
3 32 76 24
3 24 73 44
3 44 63 32
3 34 58 45
3 8 48 65
3 8 48 70
3 8 54 49
3 8 49 70
3 54 65 8
3 20 29 65
3 20 77 29
3 36 54 20
3 20 77 36
3 54 65 20
3 21 70 26
3 21 26 77
3 21 36 49
3 21 77 36
3 21 49 70
3 26 48 29
3 29 77 26
3 48 70 26
3 29 65 48
3 36 49 54
3 42 66 1
3 1 42 78
3 1 43 62
3 43 78 1
3 62 66 1
3 2 38 66
3 38 79 2
3 2 62 39
3 39 79 2
3 2 66 62
3 9 78 18
3 9 79 18
3 39 43 9
3 39 79 9
3 9 78 43
3 18 38 42
3 18 38 79
3 18 78 42
3 42 66 38
3 43 62 39
3 16 50 63
3 16 50 73
3 16 61 51
3 16 51 73
3 16 61 63
3 12 32 63
3 12 32 80
3 12 33 61
3 12 33 80
3 61 63 12
3 24 73 14
3 14 80 24
3 14 51 33
3 14 80 33
3 51 73 14
3 24 50 32
3 32 80 24
3 24 50 73
3 32 63 50
3 33 51 61
3 8 52 65
3 8 70 52
3 8 57 53
3 53 70 8
3 57 65 8
3 4 65 29
3 29 81 4
3 35 57 4
3 35 81 4
3 4 57 65
3 5 26 70
3 26 81 5
3 5 35 53
3 35 81 5
3 53 70 5
3 26 52 29
3 29 81 26
3 26 70 52
3 29 52 65
3 35 53 57
3 1 67 46
3 1 78 46
3 47 62 1
3 47 78 1
3 1 67 62
3 37 67 3
3 37 82 3
3 3 39 62
3 3 39 82
3 62 67 3
3 9 78 25
3 25 82 9
3 9 39 47
3 9 39 82
3 47 78 9
3 25 37 46
3 37 82 25
3 46 78 25
3 46 67 37
3 39 47 62
3 17 68 48
3 48 74 17
3 49 58 17
3 17 74 49
3 58 68 17
3 20 32 68
3 20 83 32
3 20 58 41
3 41 83 20
3 58 68 20
3 27 74 22
3 22 83 27
3 22 41 49
3 41 83 22
3 22 74 49
3 27 32 48
3 27 83 32
3 27 74 48
3 32 48 68
3 49 58 41
3 50 67 1
3 1 78 50
3 51 66 1
3 1 51 78
3 66 67 1
3 37 67 12
3 12 37 84
3 12 66 38
3 38 84 12
3 12 67 66
3 18 78 25
3 18 84 25
3 18 38 51
3 18 84 38
3 18 78 51
3 37 50 25
3 37 84 25
3 50 78 25
3 37 50 67
3 51 66 38
3 17 55 68
3 17 74 55
3 17 61 56
3 56 74 17
3 61 68 17
3 13 32 68
3 13 32 85
3 13 61 40
3 40 85 13
3 61 68 13
3 14 27 74
3 14 85 27
3 14 56 40
3 14 40 85
3 56 74 14
3 27 32 55
3 27 32 85
3 27 74 55
3 32 55 68
3 40 56 61
3 2 71 52
3 52 79 2
3 2 62 53
3 53 79 2
3 2 62 71
3 4 37 71
3 4 86 37
3 4 62 43
3 4 86 43
3 4 71 62
3 28 79 9
3 9 86 28
3 43 53 9
3 9 43 86
3 9 79 53
3 37 52 28
3 28 37 86
3 52 79 28
3 37 71 52
3 43 62 53
3 48 72 19
3 19 48 76
3 54 58 19
3 54 76 19
3 19 58 72
3 21 33 72
3 21 87 33
3 45 58 21
3 45 87 21
3 58 72 21
3 22 30 76
3 22 87 30
3 22 54 45
3 22 87 45
3 54 76 22
3 30 33 48
3 30 33 87
3 48 76 30
3 33 48 72
3 45 54 58
3 55 71 2
3 2 55 79
3 2 66 56
3 56 79 2
3 66 71 2
3 13 71 37
3 13 88 37
3 42 66 13
3 42 88 13
3 13 71 66
3 28 79 18
3 18 28 88
3 42 56 18
3 42 88 18
3 56 79 18
3 28 55 37
3 28 37 88
3 55 79 28
3 37 55 71
3 42 56 66
3 19 72 59
3 19 76 59
3 60 63 19
3 19 60 76
3 19 63 72
3 23 72 33
3 33 89 23
3 23 63 44
3 44 89 23
3 23 63 72
3 24 30 76
3 24 30 89
3 24 44 60
3 24 89 44
3 60 76 24
3 33 59 30
3 30 33 89
3 30 76 59
3 33 72 59
3 44 63 60
3 3 75 52
3 3 82 52
3 57 62 3
3 57 82 3
3 62 75 3
3 5 38 75
3 5 90 38
3 47 62 5
3 5 47 90
3 62 75 5
3 9 82 31
3 31 90 9
3 9 47 57
3 9 90 47
3 57 82 9
3 38 52 31
3 31 38 90
3 31 52 82
3 52 75 38
3 47 62 57
3 20 77 44
3 20 44 83
3 20 54 58
3 20 54 83
3 20 58 77
3 40 77 21
3 21 87 40
3 49 58 21
3 21 49 87
3 21 58 77
3 35 83 22
3 22 35 87
3 49 54 22
3 22 49 87
3 22 54 83
3 35 44 40
3 35 87 40
3 35 44 83
3 44 77 40
3 49 58 54
3 3 59 75
3 3 82 59
3 3 67 60
3 60 82 3
3 3 67 75
3 23 38 75
3 38 91 23
3 23 46 67
3 23 46 91
3 67 75 23
3 31 82 25
3 25 91 31
3 25 46 60
3 46 91 25
3 25 60 82
3 31 38 59
3 38 91 31
3 59 82 31
3 38 59 75
3 46 60 67
3 64 77 20
3 64 83 20
3 20 68 65
3 20 83 65
3 20 68 77
3 26 40 77
3 40 92 26
3 26 68 48
3 48 92 26
3 26 77 68
3 27 83 35
3 35 92 27
3 27 48 65
3 48 92 27
3 27 65 83
3 40 64 35
3 40 92 35
3 35 83 64
3 40 77 64
3 65 68 48
3 12 80 55
3 12 84 55
3 12 66 61
3 12 84 61
3 12 66 80
3 14 39 80
3 14 39 93
3 14 51 66
3 14 93 51
3 66 80 14
3 18 34 84
3 18 93 34
3 18 51 61
3 18 93 51
3 61 84 18
3 39 55 34
3 34 93 39
3 34 55 84
3 39 55 80
3 51 66 61
3 4 46 81
3 46 86 4
3 57 62 4
3 57 86 4
3 62 81 4
3 5 42 81
3 42 90 5
3 5 53 62
3 53 90 5
3 5 81 62
3 9 36 86
3 9 36 90
3 53 57 9
3 53 90 9
3 57 86 9
3 36 42 46
3 36 90 42
3 46 86 36
3 46 81 42
3 57 62 53
3 12 59 80
3 59 84 12
3 63 67 12
3 12 63 84
3 12 80 67
3 39 80 24
3 39 94 24
3 50 67 24
3 50 94 24
3 24 80 67
3 25 84 34
3 34 94 25
3 50 63 25
3 25 50 94
3 25 84 63
3 34 39 59
3 39 94 34
3 59 84 34
3 39 80 59
3 50 67 63
3 4 81 64
3 4 86 64
3 4 71 65
3 4 65 86
3 4 81 71
3 26 81 42
3 26 95 42
3 52 71 26
3 26 52 95
3 71 81 26
3 28 36 86
3 28 95 36
3 28 65 52
3 28 95 52
3 28 86 65
3 36 42 64
3 36 95 42
3 36 86 64
3 64 81 42
3 65 71 52
3 21 69 77
3 69 87 21
3 70 72 21
3 21 70 87
3 21 77 72
3 29 77 44
3 29 96 44
3 29 48 72
3 29 96 48
3 29 72 77
3 30 35 87
3 30 96 35
3 48 70 30
3 48 96 30
3 70 87 30
3 44 69 35
3 44 96 35
3 35 69 87
3 44 77 69
3 48 72 70
3 13 50 85
3 13 88 50
3 13 66 61
3 61 88 13
3 66 85 13
3 14 43 85
3 14 43 93
3 56 66 14
3 14 93 56
3 14 85 66
3 41 88 18
3 41 93 18
3 56 61 18
3 56 93 18
3 18 61 88
3 43 50 41
3 43 93 41
3 41 50 88
3 43 50 85
3 56 66 61
3 64 85 13
3 13 88 64
3 13 71 68
3 13 68 88
3 13 71 85
3 27 85 43
3 27 97 43
3 27 71 55
3 27 55 97
3 27 71 85
3 28 88 41
3 28 97 41
3 55 68 28
3 55 97 28
3 28 68 88
3 41 43 64
3 43 97 41
3 41 88 64
3 64 85 43
3 55 68 71
3 69 81 5
3 5 90 69
3 5 75 70
3 5 90 70
3 75 81 5
3 29 46 81
3 29 46 98
3 29 52 75
3 52 98 29
3 75 81 29
3 36 90 31
3 31 98 36
3 31 70 52
3 31 98 52
3 70 90 31
3 36 69 46
3 36 46 98
3 69 90 36
3 46 69 81
3 70 75 52
3 22 73 83
3 22 87 73
3 22 76 74
3 22 74 87
3 22 83 76
3 32 44 83
3 32 44 99
3 32 76 48
3 32 48 99
3 32 83 76
3 33 87 40
3 33 40 99
3 33 48 74
3 33 48 99
3 33 74 87
3 44 73 40
3 40 44 99
3 40 73 87
3 73 83 44
3 48 74 76
3 51 89 23
3 51 91 23
3 23 63 67
3 23 91 63
3 67 89 23
3 24 47 89
3 24 47 94
3 24 67 60
3 24 60 94
3 24 67 89
3 25 45 91
3 45 94 25
3 60 63 25
3 60 94 25
3 25 63 91
3 45 51 47
3 45 47 94
3 45 51 91
3 47 89 51
3 63 67 60
3 23 69 89
3 23 91 69
3 23 75 72
3 72 91 23
3 75 89 23
3 30 47 89
3 47 100 30
3 59 75 30
3 59 100 30
3 30 89 75
3 31 91 45
3 31 100 45
3 59 72 31
3 59 100 31
3 31 72 91
3 45 69 47
3 47 100 45
3 45 91 69
3 47 69 89
3 72 75 59
3 14 85 73
3 14 73 93
3 14 74 80
3 74 93 14
3 14 80 85
3 50 85 32
3 50 101 32
3 32 80 55
3 55 101 32
3 80 85 32
3 41 93 34
3 41 101 34
3 34 55 74
3 34 55 101
3 34 93 74
3 50 73 41
3 41 101 50
3 41 93 73
3 50 85 73
3 55 80 74
3 78 86 9
3 78 90 9
3 9 82 79
3 79 90 9
3 9 86 82
3 37 86 46
3 37 46 102
3 37 82 52
3 37 102 52
3 82 86 37
3 38 90 42
3 38 102 42
3 52 79 38
3 38 102 52
3 38 90 79
3 42 78 46
3 46 102 42
3 78 90 42
3 78 86 46
3 52 82 79
3 26 92 56
3 56 95 26
3 68 71 26
3 68 95 26
3 26 71 92
3 53 92 27
3 27 97 53
3 27 65 71
3 27 97 65
3 27 92 71
3 28 95 49
3 49 97 28
3 65 68 28
3 65 97 28
3 28 68 95
3 53 56 49
3 49 97 53
3 49 95 56
3 53 56 92
3 68 71 65
3 73 89 24
3 24 73 94
3 76 80 24
3 24 94 76
3 24 80 89
3 33 89 51
3 51 103 33
3 33 59 80
3 33 59 103
3 33 80 89
3 45 94 34
3 34 103 45
3 34 59 76
3 59 103 34
3 76 94 34
3 45 51 73
3 45 103 51
3 45 73 94
3 73 89 51
3 59 80 76
3 26 70 92
3 70 95 26
3 26 81 77
3 26 95 77
3 26 92 81
3 35 53 92
3 35 53 104
3 35 64 81
3 35 104 64
3 81 92 35
3 36 49 95
3 49 104 36
3 64 77 36
3 64 104 36
3 36 95 77
3 53 70 49
3 53 104 49
3 49 70 95
3 53 70 92
3 77 81 64
3 78 88 18
3 18 93 78
3 18 79 84
3 79 93 18
3 18 88 84
3 37 50 88
3 50 105 37
3 37 84 55
3 55 105 37
3 37 84 88
3 39 93 43
3 39 105 43
3 39 55 79
3 39 105 55
3 39 93 79
3 50 78 43
3 43 50 105
3 78 93 43
3 50 78 88
3 79 84 55
3 60 96 29
3 60 98 29
3 29 75 72
3 29 72 98
3 75 96 29
3 30 96 57
3 30 100 57
3 30 70 75
3 30 100 70
3 75 96 30
3 31 98 54
3 54 100 31
3 70 72 31
3 31 70 100
3 31 98 72
3 54 57 60
3 57 100 54
3 60 98 54
3 60 96 57
3 70 72 75
3 25 78 91
3 25 78 94
3 25 84 82
3 25 82 94
3 84 91 25
3 51 91 38
3 38 51 106
3 38 59 84
3 38 106 59
3 38 84 91
3 47 94 39
3 39 106 47
3 59 82 39
3 39 106 59
3 39 82 94
3 51 78 47
3 51 106 47
3 47 78 94
3 51 78 91
3 59 82 84
3 27 74 92
3 27 74 97
3 83 85 27
3 83 97 27
3 27 92 85
3 40 92 56
3 40 107 56
3 64 85 40
3 40 107 64
3 40 85 92
3 41 49 97
3 49 107 41
3 41 64 83
3 41 64 107
3 83 97 41
3 49 56 74
3 56 107 49
3 49 74 97
3 56 92 74
3 64 85 83
3 29 65 96
3 29 65 98
3 77 81 29
3 77 98 29
3 81 96 29
3 35 96 57
3 57 104 35
3 69 81 35
3 69 104 35
3 35 81 96
3 54 98 36
3 36 54 104
3 36 69 77
3 36 104 69
3 36 98 77
3 54 65 57
3 57 104 54
3 54 98 65
3 57 96 65
3 69 77 81
3 32 99 63
3 32 63 101
3 76 80 32
3 76 101 32
3 32 80 99
3 61 99 33
3 33 103 61
3 33 80 74
3 74 103 33
3 33 99 80
3 34 101 58
3 34 103 58
3 34 74 76
3 74 103 34
3 34 101 76
3 61 63 58
3 61 103 58
3 63 101 58
3 61 99 63
3 74 76 80
3 28 95 79
3 28 97 79
3 86 88 28
3 28 97 86
3 88 95 28
3 42 56 95
3 56 108 42
3 42 88 64
3 42 108 64
3 42 88 95
3 53 97 43
3 43 108 53
3 64 86 43
3 64 108 43
3 43 86 97
3 56 79 53
3 53 108 56
3 79 97 53
3 56 95 79
3 86 88 64
3 76 96 30
3 76 100 30
3 30 89 87
3 30 100 87
3 30 96 89
3 60 96 44
3 44 60 109
3 44 69 89
3 44 69 109
3 44 89 96
3 45 54 100
3 45 54 109
3 45 87 69
3 69 109 45
3 87 100 45
3 54 76 60
3 60 109 54
3 54 100 76
3 60 96 76
3 69 87 89
3 32 99 68
3 68 101 32
3 32 83 85
3 32 83 101
3 32 99 85
3 40 99 61
3 61 107 40
3 40 73 85
3 40 107 73
3 40 85 99
3 41 58 101
3 41 107 58
3 41 83 73
3 41 107 73
3 41 101 83
3 58 68 61
3 58 107 61
3 58 68 101
3 61 68 99
3 83 85 73
3 37 67 102
3 37 105 67
3 37 82 84
3 37 82 105
3 37 102 84
3 38 66 102
3 38 66 106
3 38 84 79
3 79 106 38
3 84 102 38
3 62 105 39
3 39 62 106
3 39 82 79
3 79 106 39
3 39 82 105
3 66 67 62
3 62 106 66
3 62 67 105
3 67 102 66
3 82 84 79
3 82 98 31
3 31 82 100
3 31 91 90
3 31 90 100
3 31 98 91
3 46 60 98
3 46 110 60
3 69 91 46
3 46 110 69
3 46 98 91
3 57 100 47
3 57 110 47
3 69 90 47
3 69 110 47
3 47 90 100
3 57 60 82
3 57 110 60
3 82 100 57
3 60 82 98
3 90 91 69
3 33 99 72
3 33 103 72
3 33 89 87
3 33 87 103
3 33 99 89
3 44 63 99
3 63 109 44
3 44 89 73
3 44 109 73
3 89 99 44
3 58 103 45
3 45 109 58
3 45 87 73
3 73 109 45
3 45 87 103
3 58 63 72
3 58 63 109
3 72 103 58
3 72 99 63
3 87 89 73
3 35 96 83
3 35 83 104
3 35 87 92
3 87 104 35
3 35 92 96
3 65 96 48
3 65 111 48
3 70 92 48
3 48 111 70
3 92 96 48
3 49 104 54
3 54 111 49
3 70 87 49
3 49 70 111
3 49 87 104
3 54 83 65
3 65 111 54
3 54 104 83
3 65 96 83
3 87 92 70
3 37 71 102
3 71 105 37
3 37 88 86
3 86 105 37
3 37 88 102
3 42 66 102
3 66 108 42
3 42 78 88
3 42 108 78
3 42 102 88
3 62 105 43
3 43 108 62
3 43 86 78
3 43 108 78
3 86 105 43
3 66 71 62
3 62 66 108
3 62 71 105
3 66 102 71
3 78 86 88
3 84 101 34
3 34 84 103
3 34 93 94
3 93 103 34
3 94 101 34
3 50 101 63
3 63 112 50
3 50 94 73
3 50 73 112
3 50 94 101
3 51 61 103
3 61 112 51
3 51 93 73
3 51 73 112
3 51 103 93
3 61 84 63
3 61 112 63
3 61 103 84
3 63 84 101
3 73 93 94
3 36 86 98
3 36 86 104
3 90 95 36
3 36 90 104
3 36 98 95
3 52 65 98
3 52 65 113
3 52 95 70
3 52 70 113
3 95 98 52
3 57 104 53
3 53 57 113
3 53 70 90
3 53 113 70
3 53 90 104
3 57 86 65
3 57 65 113
3 57 104 86
3 86 98 65
3 90 95 70
3 38 75 102
3 38 106 75
3 38 90 91
3 38 106 90
3 91 102 38
3 67 102 46
3 46 67 110
3 78 91 46
3 78 110 46
3 91 102 46
3 47 106 62
3 62 110 47
3 47 90 78
3 47 78 110
3 90 106 47
3 62 67 75
3 67 110 62
3 62 75 106
3 67 102 75
3 78 91 90
3 77 99 40
3 40 107 77
3 87 92 40
3 40 107 87
3 92 99 40
3 48 68 99
3 48 68 111
3 74 92 48
3 48 111 74
3 92 99 48
3 58 107 49
3 49 58 111
3 49 87 74
3 49 74 111
3 87 107 49
3 68 77 58
3 58 111 68
3 58 77 107
3 68 99 77
3 74 92 87
3 80 105 39
3 80 106 39
3 39 94 93
3 39 106 93
3 94 105 39
3 50 67 105
3 50 67 112
3 50 94 78
3 50 112 78
3 50 105 94
3 51 106 66
3 66 112 51
3 78 93 51
3 51 78 112
3 93 106 51
3 67 80 66
3 67 112 66
3 66 106 80
3 67 105 80
3 93 94 78
3 41 101 88
3 88 107 41
3 41 93 97
3 41 93 107
3 97 101 41
3 68 101 55
3 55 68 114
3 55 74 97
3 74 114 55
3 55 97 101
3 56 61 107
3 56 61 114
3 56 93 74
3 74 114 56
3 56 107 93
3 68 88 61
3 68 114 61
3 88 107 61
3 88 101 68
3 93 97 74
3 81 102 42
3 81 108 42
3 90 95 42
3 42 90 108
3 95 102 42
3 52 102 71
3 71 113 52
3 79 95 52
3 52 79 113
3 52 95 102
3 53 62 108
3 53 62 113
3 79 90 53
3 53 79 113
3 90 108 53
3 62 81 71
3 62 71 113
3 81 108 62
3 81 102 71
3 79 90 95
3 44 99 77
3 77 109 44
3 44 96 83
3 44 109 83
3 96 99 44
3 48 72 99
3 72 111 48
3 48 96 76
3 48 111 76
3 96 99 48
3 58 109 54
3 54 111 58
3 54 83 76
3 76 111 54
3 54 109 83
3 58 72 77
3 58 111 72
3 77 109 58
3 72 99 77
3 83 96 76
3 85 105 43
3 43 85 108
3 43 97 93
3 43 93 108
3 43 97 105
3 55 71 105
3 55 114 71
3 55 79 97
3 79 114 55
3 97 105 55
3 56 108 66
3 56 114 66
3 79 93 56
3 56 79 114
3 56 93 108
3 66 85 71
3 66 71 114
3 85 108 66
3 71 85 105
3 79 93 97
3 45 91 103
3 45 109 91
3 45 100 94
3 94 109 45
3 45 103 100
3 72 103 59
3 72 115 59
3 76 100 59
3 76 115 59
3 59 100 103
3 60 109 63
3 60 115 63
3 60 94 76
3 76 115 60
3 60 94 109
3 72 91 63
3 63 72 115
3 63 91 109
3 72 103 91
3 94 100 76
3 46 102 81
3 81 110 46
3 86 98 46
3 86 110 46
3 98 102 46
3 52 75 102
3 52 75 113
3 82 98 52
3 52 82 113
3 52 102 98
3 57 62 110
3 57 62 113
3 82 86 57
3 57 82 113
3 57 110 86
3 62 81 75
3 62 75 113
3 62 110 81
3 81 102 75
3 86 98 82
3 47 106 89
3 47 89 110
3 94 100 47
3 47 110 94
3 100 106 47
3 75 106 59
3 59 75 115
3 59 100 82
3 82 115 59
3 59 106 100
3 60 110 67
3 60 115 67
3 60 94 82
3 60 115 82
3 60 94 110
3 75 89 67
3 75 115 67
3 67 110 89
3 75 106 89
3 82 100 94
3 49 107 95
3 95 111 49
3 49 97 104
3 97 111 49
3 104 107 49
3 64 107 77
3 77 116 64
3 64 104 83
3 64 83 116
3 64 107 104
3 68 111 65
3 68 116 65
3 65 97 83
3 83 116 65
3 65 111 97
3 77 95 68
3 68 77 116
3 68 95 111
3 77 107 95
3 97 104 83
3 50 85 105
3 50 112 85
3 50 88 101
3 50 88 112
3 101 105 50
3 80 105 55
3 80 114 55
3 55 84 101
3 55 114 84
3 55 101 105
3 61 112 66
3 66 114 61
3 61 84 88
3 84 114 61
3 61 88 112
3 66 85 80
3 80 114 66
3 66 112 85
3 80 85 105
3 84 101 88
3 51 89 106
3 89 112 51
3 51 91 103
3 91 112 51
3 103 106 51
3 80 106 59
3 59 115 80
3 59 84 103
3 59 115 84
3 103 106 59
3 63 67 112
3 63 67 115
3 63 91 84
3 63 115 84
3 63 112 91
3 80 89 67
3 67 115 80
3 67 112 89
3 80 89 106
3 84 91 103
3 53 108 92
3 92 113 53
3 97 104 53
3 97 113 53
3 53 108 104
3 81 108 64
3 64 116 81
3 64 86 104
3 86 116 64
3 104 108 64
3 65 71 113
3 65 116 71
3 65 86 97
3 65 116 86
3 65 97 113
3 71 92 81
3 81 116 71
3 71 113 92
3 92 108 81
3 86 97 104
3 54 98 109
3 54 98 111
3 100 104 54
3 100 111 54
3 54 109 104
3 69 109 77
3 69 117 77
3 69 87 104
3 69 87 117
3 69 109 104
3 70 72 111
3 72 117 70
3 87 100 70
3 70 117 87
3 100 111 70
3 77 98 72
3 72 77 117
3 98 111 72
3 77 109 98
3 100 104 87
3 56 92 108
3 56 92 114
3 56 95 107
3 56 114 95
3 56 107 108
3 64 108 85
3 85 116 64
3 64 88 107
3 64 88 116
3 107 108 64
3 71 114 68
3 68 116 71
3 88 95 68
3 68 116 88
3 95 114 68
3 71 92 85
3 85 116 71
3 71 92 114
3 92 108 85
3 88 107 95
3 57 110 96
3 57 113 96
3 100 104 57
3 57 100 113
3 57 104 110
3 81 110 69
3 81 117 69
3 69 104 90
3 69 117 90
3 104 110 69
3 75 113 70
3 75 117 70
3 90 100 70
3 70 90 117
3 70 113 100
3 75 96 81
3 75 81 117
3 96 113 75
3 81 110 96
3 100 104 90
3 101 109 58
3 58 111 101
3 58 103 107
3 58 111 103
3 58 109 107
3 83 109 73
3 73 83 118
3 73 87 107
3 87 118 73
3 73 107 109
3 76 111 74
3 76 118 74
3 74 103 87
3 87 118 74
3 74 111 103
3 83 101 76
3 83 118 76
3 76 111 101
3 83 109 101
3 103 107 87
3 60 96 110
3 96 115 60
3 60 98 109
3 60 115 98
3 60 109 110
3 69 110 89
3 89 117 69
3 69 109 91
3 91 117 69
3 69 110 109
3 72 115 75
3 72 117 75
3 91 98 72
3 91 117 72
3 72 98 115
3 75 96 89
3 75 117 89
3 75 96 115
3 89 110 96
3 98 109 91
3 99 112 61
3 99 114 61
3 61 103 107
3 103 114 61
3 61 107 112
3 73 85 112
3 85 118 73
3 93 107 73
3 93 118 73
3 107 112 73
3 74 80 114
3 74 118 80
3 74 93 103
3 93 118 74
3 103 114 74
3 80 99 85
3 80 118 85
3 80 99 114
3 85 112 99
3 93 103 107
3 105 110 62
3 105 113 62
3 62 106 108
3 62 113 106
3 108 110 62
3 78 110 86
3 78 119 86
3 90 108 78
3 78 90 119
3 78 108 110
3 79 113 82
3 82 119 79
3 90 106 79
3 79 119 90
3 79 106 113
3 86 105 82
3 82 119 86
3 82 105 113
3 86 110 105
3 90 106 108
3 99 112 63
3 63 115 99
3 63 109 101
3 101 115 63
3 63 112 109
3 73 112 89
3 89 118 73
3 73 109 94
3 94 118 73
3 73 109 112
3 76 80 115
3 76 118 80
3 76 94 101
3 94 118 76
3 76 115 101
3 89 99 80
3 80 118 89
3 80 99 115
3 89 99 112
3 94 109 101
3 96 113 65
3 65 116 96
3 98 111 65
3 98 116 65
3 65 113 111
3 92 113 70
3 92 117 70
3 70 95 111
3 70 117 95
3 111 113 70
3 81 116 77
3 77 117 81
3 77 95 98
3 77 117 95
3 77 98 116
3 81 92 96
3 81 92 117
3 81 96 116
3 92 113 96
3 95 111 98
3 66 112 102
3 102 114 66
3 66 108 106
3 66 114 106
3 108 112 66
3 78 88 112
3 88 119 78
3 78 108 93
3 78 93 119
3 78 112 108
3 79 114 84
3 79 84 119
3 93 106 79
3 79 93 119
3 106 114 79
3 88 102 84
3 84 119 88
3 84 114 102
3 102 112 88
3 93 108 106
3 67 102 112
3 67 115 102
3 67 110 105
3 105 115 67
3 67 110 112
3 78 112 91
3 78 91 119
3 94 110 78
3 78 94 119
3 110 112 78
3 82 84 115
3 82 119 84
3 82 94 105
3 82 94 119
3 105 115 82
3 91 102 84
3 84 119 91
3 102 115 84
3 91 112 102
3 105 110 94
3 99 114 68
3 99 116 68
3 101 111 68
3 68 116 101
3 68 111 114
3 92 114 74
3 92 118 74
3 74 111 97
3 74 97 118
3 74 114 111
3 83 116 85
3 83 85 118
3 83 101 97
3 97 118 83
3 83 116 101
3 85 99 92
3 85 118 92
3 85 99 116
3 92 114 99
3 97 111 101
3 71 102 114
3 102 116 71
3 71 113 105
3 105 116 71
3 113 114 71
3 95 114 79
3 79 95 119
3 97 113 79
3 79 119 97
3 113 114 79
3 86 116 88
3 86 88 119
3 86 97 105
3 97 119 86
3 86 116 105
3 95 102 88
3 88 95 119
3 88 116 102
3 95 114 102
3 97 105 113
3 99 115 72
3 72 99 117
3 103 111 72
3 103 117 72
3 111 115 72
3 76 115 96
3 96 118 76
3 76 111 100
3 76 100 118
3 76 111 115
3 89 117 87
3 89 118 87
3 87 103 100
3 87 118 100
3 87 103 117
3 89 99 96
3 89 96 118
3 99 117 89
3 96 99 115
3 103 111 100
3 75 102 115
3 102 117 75
3 106 113 75
3 75 117 106
3 75 115 113
3 98 115 82
3 82 98 119
3 100 113 82
3 100 119 82
3 82 115 113
3 90 117 91
3 91 119 90
3 90 106 100
3 100 119 90
3 106 117 90
3 91 98 102
3 98 119 91
3 102 117 91
3 98 115 102
3 100 106 113
3 77 99 116
3 77 99 117
3 77 107 109
3 107 117 77
3 77 116 109
3 83 96 116
3 83 118 96
3 83 109 104
3 83 118 104
3 83 109 116
3 87 117 92
3 87 118 92
3 104 107 87
3 87 104 118
3 107 117 87
3 92 96 99
3 96 118 92
3 99 117 92
3 96 116 99
3 104 107 109
3 105 115 80
3 80 105 118
3 80 114 106
3 80 118 106
3 80 114 115
3 101 115 84
3 101 119 84
3 84 103 114
3 84 119 103
3 84 114 115
3 94 118 93
3 94 119 93
3 103 106 93
3 103 119 93
3 93 118 106
3 94 105 101
3 101 119 94
3 94 118 105
3 101 115 105
3 103 114 106
3 81 116 102
3 102 117 81
3 81 110 108
3 81 108 117
3 81 110 116
3 86 116 98
3 86 98 119
3 104 110 86
3 86 119 104
3 110 116 86
3 90 95 117
3 90 95 119
3 90 108 104
3 90 119 104
3 90 108 117
3 95 102 98
3 95 98 119
3 95 102 117
3 102 116 98
3 104 110 108
3 105 116 85
3 85 118 105
3 108 112 85
3 108 118 85
3 85 116 112
3 88 116 101
3 88 119 101
3 88 112 107
3 88 119 107
3 112 116 88
3 93 118 97
3 93 97 119
3 93 108 107
3 93 107 119
3 93 108 118
3 97 105 101
3 101 119 97
3 97 105 118
3 101 105 116
3 107 112 108
3 89 106 117
3 106 118 89
3 89 110 112
3 110 118 89
3 89 117 112
3 91 103 117
3 91 103 119
3 91 112 109
3 91 109 119
3 91 112 117
3 94 118 100
3 100 119 94
3 109 110 94
3 94 119 109
3 110 118 94
3 100 106 103
3 103 119 100
3 106 118 100
3 103 117 106
3 110 112 109
3 92 117 108
3 108 118 92
3 92 113 114
3 92 118 113
3 92 114 117
3 95 117 107
3 95 107 119
3 95 111 114
3 95 111 119
3 114 117 95
3 97 118 104
3 104 119 97
3 97 111 113
3 111 119 97
3 113 118 97
3 104 107 108
3 107 119 104
3 108 118 104
3 108 117 107
3 113 114 111
3 96 116 110
3 110 118 96
3 96 113 115
3 113 118 96
3 115 116 96
3 109 116 98
3 109 119 98
3 98 111 115
3 111 119 98
3 98 115 116
3 100 118 104
3 100 104 119
3 100 111 113
3 100 119 111
3 100 118 113
3 109 110 104
3 104 109 119
3 104 110 118
3 109 116 110
3 113 115 111
3 112 116 99
3 99 117 112
3 99 114 115
3 114 117 99
3 99 116 115
3 101 109 116
3 109 119 101
3 111 115 101
3 101 111 119
3 101 116 115
3 103 117 107
3 107 119 103
3 103 114 111
3 103 111 119
3 103 117 114
3 107 109 112
3 109 119 107
3 107 112 117
3 109 116 112
3 111 114 115
3 112 116 102
3 102 117 112
3 102 114 115
3 102 117 114
3 102 116 115
3 110 116 105
3 105 118 110
3 105 115 113
3 113 118 105
3 105 116 115
3 108 117 106
3 106 118 108
3 106 113 114
3 106 113 118
3 106 117 114
3 108 112 110
3 108 118 110
3 108 117 112
3 110 116 112
3 114 115 113

# Cells
20 0 1 2 3 4 5 6 7 8 9 10 11 12 13 14 15 16 17 18 19
20 20 21 22 23 24 25 26 27 28 29 30 31 32 33 34 35 36 37 38 39
20 40 41 42 43 44 45 46 47 48 49 50 51 52 53 54 55 56 57 58 59
20 60 61 62 63 64 65 66 67 68 69 70 71 72 73 74 75 76 77 78 79
20 80 81 82 83 84 85 86 87 88 89 90 91 92 93 94 95 96 97 98 99
20 100 101 102 103 104 105 106 107 108 109 110 111 112 113 114 115 116 117 118 119
20 120 121 122 123 124 125 126 127 128 129 130 131 132 133 134 135 136 137 138 139
20 140 141 142 143 144 145 146 147 148 149 150 151 152 153 154 155 156 157 158 159
20 160 161 162 163 164 165 166 167 168 169 170 171 172 173 174 175 176 177 178 179
20 180 181 182 183 184 185 186 187 188 189 190 191 192 193 194 195 196 197 198 199
20 200 201 202 203 204 205 206 207 208 209 210 211 212 213 214 215 216 217 218 219
20 220 221 222 223 224 225 226 227 228 229 230 231 232 233 234 235 236 237 238 239
20 240 241 242 243 244 245 246 247 248 249 250 251 252 253 254 255 256 257 258 259
20 260 261 262 263 264 265 266 267 268 269 270 271 272 273 274 275 276 277 278 279
20 280 281 282 283 284 285 286 287 288 289 290 291 292 293 294 295 296 297 298 299
20 300 301 302 303 304 305 306 307 308 309 310 311 312 313 314 315 316 317 318 319
20 320 321 322 323 324 325 326 327 328 329 330 331 332 333 334 335 336 337 338 339
20 340 341 342 343 344 345 346 347 348 349 350 351 352 353 354 355 356 357 358 359
20 360 361 362 363 364 365 366 367 368 369 370 371 372 373 374 375 376 377 378 379
20 380 381 382 383 384 385 386 387 388 389 390 391 392 393 394 395 396 397 398 399
20 400 401 402 403 404 405 406 407 408 409 410 411 412 413 414 415 416 417 418 419
20 420 421 422 423 424 425 426 427 428 429 430 431 432 433 434 435 436 437 438 439
20 440 441 442 443 444 445 446 447 448 449 450 451 452 453 454 455 456 457 458 459
20 460 461 462 463 464 465 466 467 468 469 470 471 472 473 474 475 476 477 478 479
20 480 481 482 483 484 485 486 487 488 489 490 491 492 493 494 495 496 497 498 499
20 500 501 502 503 504 505 506 507 508 509 510 511 512 513 514 515 516 517 518 519
20 520 521 522 523 524 525 526 527 528 529 530 531 532 533 534 535 536 537 538 539
20 540 541 542 543 544 545 546 547 548 549 550 551 552 553 554 555 556 557 558 559
20 560 561 562 563 564 565 566 567 568 569 570 571 572 573 574 575 576 577 578 579
20 580 581 582 583 584 585 586 587 588 589 590 591 592 593 594 595 596 597 598 599
20 600 601 602 603 604 605 606 607 608 609 610 611 612 613 614 615 616 617 618 619
20 620 621 622 623 624 625 626 627 628 629 630 631 632 633 634 635 636 637 638 639
20 640 641 642 643 644 645 646 647 648 649 650 651 652 653 654 655 656 657 658 659
20 660 661 662 663 664 665 666 667 668 669 670 671 672 673 674 675 676 677 678 679
20 680 681 682 683 684 685 686 687 688 689 690 691 692 693 694 695 696 697 698 699
20 700 701 702 703 704 705 706 707 708 709 710 711 712 713 714 715 716 717 718 719
20 720 721 722 723 724 725 726 727 728 729 730 731 732 733 734 735 736 737 738 739
20 740 741 742 743 744 745 746 747 748 749 750 751 752 753 754 755 756 757 758 759
20 760 761 762 763 764 765 766 767 768 769 770 771 772 773 774 775 776 777 778 779
20 780 781 782 783 784 785 786 787 788 789 790 791 792 793 794 795 796 797 798 799
20 800 801 802 803 804 805 806 807 808 809 810 811 812 813 814 815 816 817 818 819
20 820 821 822 823 824 825 826 827 828 829 830 831 832 833 834 835 836 837 838 839
20 840 841 842 843 844 845 846 847 848 849 850 851 852 853 854 855 856 857 858 859
20 860 861 862 863 864 865 866 867 868 869 870 871 872 873 874 875 876 877 878 879
20 880 881 882 883 884 885 886 887 888 889 890 891 892 893 894 895 896 897 898 899
20 900 901 902 903 904 905 906 907 908 909 910 911 912 913 914 915 916 917 918 919
20 920 921 922 923 924 925 926 927 928 929 930 931 932 933 934 935 936 937 938 939
20 940 941 942 943 944 945 946 947 948 949 950 951 952 953 954 955 956 957 958 959
20 960 961 962 963 964 965 966 967 968 969 970 971 972 973 974 975 976 977 978 979
20 980 981 982 983 984 985 986 987 988 989 990 991 992 993 994 995 996 997 998 999
20 1000 1001 1002 1003 1004 1005 1006 1007 1008 1009 1010 1011 1012 1013 1014 1015 1016 1017 1018 1019
20 1020 1021 1022 1023 1024 1025 1026 1027 1028 1029 1030 1031 1032 1033 1034 1035 1036 1037 1038 1039
20 1040 1041 1042 1043 1044 1045 1046 1047 1048 1049 1050 1051 1052 1053 1054 1055 1056 1057 1058 1059
20 1060 1061 1062 1063 1064 1065 1066 1067 1068 1069 1070 1071 1072 1073 1074 1075 1076 1077 1078 1079
20 1080 1081 1082 1083 1084 1085 1086 1087 1088 1089 1090 1091 1092 1093 1094 1095 1096 1097 1098 1099
20 1100 1101 1102 1103 1104 1105 1106 1107 1108 1109 1110 1111 1112 1113 1114 1115 1116 1117 1118 1119
20 1120 1121 1122 1123 1124 1125 1126 1127 1128 1129 1130 1131 1132 1133 1134 1135 1136 1137 1138 1139
20 1140 1141 1142 1143 1144 1145 1146 1147 1148 1149 1150 1151 1152 1153 1154 1155 1156 1157 1158 1159
20 1160 1161 1162 1163 1164 1165 1166 1167 1168 1169 1170 1171 1172 1173 1174 1175 1176 1177 1178 1179
20 1180 1181 1182 1183 1184 1185 1186 1187 1188 1189 1190 1191 1192 1193 1194 1195 1196 1197 1198 1199
20 1200 1201 1202 1203 1204 1205 1206 1207 1208 1209 1210 1211 1212 1213 1214 1215 1216 1217 1218 1219
20 1220 1221 1222 1223 1224 1225 1226 1227 1228 1229 1230 1231 1232 1233 1234 1235 1236 1237 1238 1239
20 1240 1241 1242 1243 1244 1245 1246 1247 1248 1249 1250 1251 1252 1253 1254 1255 1256 1257 1258 1259
20 1260 1261 1262 1263 1264 1265 1266 1267 1268 1269 1270 1271 1272 1273 1274 1275 1276 1277 1278 1279
20 1280 1281 1282 1283 1284 1285 1286 1287 1288 1289 1290 1291 1292 1293 1294 1295 1296 1297 1298 1299
20 1300 1301 1302 1303 1304 1305 1306 1307 1308 1309 1310 1311 1312 1313 1314 1315 1316 1317 1318 1319
20 1320 1321 1322 1323 1324 1325 1326 1327 1328 1329 1330 1331 1332 1333 1334 1335 1336 1337 1338 1339
20 1340 1341 1342 1343 1344 1345 1346 1347 1348 1349 1350 1351 1352 1353 1354 1355 1356 1357 1358 1359
20 1360 1361 1362 1363 1364 1365 1366 1367 1368 1369 1370 1371 1372 1373 1374 1375 1376 1377 1378 1379
20 1380 1381 1382 1383 1384 1385 1386 1387 1388 1389 1390 1391 1392 1393 1394 1395 1396 1397 1398 1399
20 1400 1401 1402 1403 1404 1405 1406 1407 1408 1409 1410 1411 1412 1413 1414 1415 1416 1417 1418 1419
20 1420 1421 1422 1423 1424 1425 1426 1427 1428 1429 1430 1431 1432 1433 1434 1435 1436 1437 1438 1439
20 1440 1441 1442 1443 1444 1445 1446 1447 1448 1449 1450 1451 1452 1453 1454 1455 1456 1457 1458 1459
20 1460 1461 1462 1463 1464 1465 1466 1467 1468 1469 1470 1471 1472 1473 1474 1475 1476 1477 1478 1479
20 1480 1481 1482 1483 1484 1485 1486 1487 1488 1489 1490 1491 1492 1493 1494 1495 1496 1497 1498 1499
20 1500 1501 1502 1503 1504 1505 1506 1507 1508 1509 1510 1511 1512 1513 1514 1515 1516 1517 1518 1519
20 1520 1521 1522 1523 1524 1525 1526 1527 1528 1529 1530 1531 1532 1533 1534 1535 1536 1537 1538 1539
20 1540 1541 1542 1543 1544 1545 1546 1547 1548 1549 1550 1551 1552 1553 1554 1555 1556 1557 1558 1559
20 1560 1561 1562 1563 1564 1565 1566 1567 1568 1569 1570 1571 1572 1573 1574 1575 1576 1577 1578 1579
20 1580 1581 1582 1583 1584 1585 1586 1587 1588 1589 1590 1591 1592 1593 1594 1595 1596 1597 1598 1599
20 1600 1601 1602 1603 1604 1605 1606 1607 1608 1609 1610 1611 1612 1613 1614 1615 1616 1617 1618 1619
20 1620 1621 1622 1623 1624 1625 1626 1627 1628 1629 1630 1631 1632 1633 1634 1635 1636 1637 1638 1639
20 1640 1641 1642 1643 1644 1645 1646 1647 1648 1649 1650 1651 1652 1653 1654 1655 1656 1657 1658 1659
20 1660 1661 1662 1663 1664 1665 1666 1667 1668 1669 1670 1671 1672 1673 1674 1675 1676 1677 1678 1679
20 1680 1681 1682 1683 1684 1685 1686 1687 1688 1689 1690 1691 1692 1693 1694 1695 1696 1697 1698 1699
20 1700 1701 1702 1703 1704 1705 1706 1707 1708 1709 1710 1711 1712 1713 1714 1715 1716 1717 1718 1719
20 1720 1721 1722 1723 1724 1725 1726 1727 1728 1729 1730 1731 1732 1733 1734 1735 1736 1737 1738 1739
20 1740 1741 1742 1743 1744 1745 1746 1747 1748 1749 1750 1751 1752 1753 1754 1755 1756 1757 1758 1759
20 1760 1761 1762 1763 1764 1765 1766 1767 1768 1769 1770 1771 1772 1773 1774 1775 1776 1777 1778 1779
20 1780 1781 1782 1783 1784 1785 1786 1787 1788 1789 1790 1791 1792 1793 1794 1795 1796 1797 1798 1799
20 1800 1801 1802 1803 1804 1805 1806 1807 1808 1809 1810 1811 1812 1813 1814 1815 1816 1817 1818 1819
20 1820 1821 1822 1823 1824 1825 1826 1827 1828 1829 1830 1831 1832 1833 1834 1835 1836 1837 1838 1839
20 1840 1841 1842 1843 1844 1845 1846 1847 1848 1849 1850 1851 1852 1853 1854 1855 1856 1857 1858 1859
20 1860 1861 1862 1863 1864 1865 1866 1867 1868 1869 1870 1871 1872 1873 1874 1875 1876 1877 1878 1879
20 1880 1881 1882 1883 1884 1885 1886 1887 1888 1889 1890 1891 1892 1893 1894 1895 1896 1897 1898 1899
20 1900 1901 1902 1903 1904 1905 1906 1907 1908 1909 1910 1911 1912 1913 1914 1915 1916 1917 1918 1919
20 1920 1921 1922 1923 1924 1925 1926 1927 1928 1929 1930 1931 1932 1933 1934 1935 1936 1937 1938 1939
20 1940 1941 1942 1943 1944 1945 1946 1947 1948 1949 1950 1951 1952 1953 1954 1955 1956 1957 1958 1959
20 1960 1961 1962 1963 1964 1965 1966 1967 1968 1969 1970 1971 1972 1973 1974 1975 1976 1977 1978 1979
20 1980 1981 1982 1983 1984 1985 1986 1987 1988 1989 1990 1991 1992 1993 1994 1995 1996 1997 1998 1999
20 2000 2001 2002 2003 2004 2005 2006 2007 2008 2009 2010 2011 2012 2013 2014 2015 2016 2017 2018 2019
20 2020 2021 2022 2023 2024 2025 2026 2027 2028 2029 2030 2031 2032 2033 2034 2035 2036 2037 2038 2039
20 2040 2041 2042 2043 2044 2045 2046 2047 2048 2049 2050 2051 2052 2053 2054 2055 2056 2057 2058 2059
20 2060 2061 2062 2063 2064 2065 2066 2067 2068 2069 2070 2071 2072 2073 2074 2075 2076 2077 2078 2079
20 2080 2081 2082 2083 2084 2085 2086 2087 2088 2089 2090 2091 2092 2093 2094 2095 2096 2097 2098 2099
20 2100 2101 2102 2103 2104 2105 2106 2107 2108 2109 2110 2111 2112 2113 2114 2115 2116 2117 2118 2119
20 2120 2121 2122 2123 2124 2125 2126 2127 2128 2129 2130 2131 2132 2133 2134 2135 2136 2137 2138 2139
20 2140 2141 2142 2143 2144 2145 2146 2147 2148 2149 2150 2151 2152 2153 2154 2155 2156 2157 2158 2159
20 2160 2161 2162 2163 2164 2165 2166 2167 2168 2169 2170 2171 2172 2173 2174 2175 2176 2177 2178 2179
20 2180 2181 2182 2183 2184 2185 2186 2187 2188 2189 2190 2191 2192 2193 2194 2195 2196 2197 2198 2199
20 2200 2201 2202 2203 2204 2205 2206 2207 2208 2209 2210 2211 2212 2213 2214 2215 2216 2217 2218 2219
20 2220 2221 2222 2223 2224 2225 2226 2227 2228 2229 2230 2231 2232 2233 2234 2235 2236 2237 2238 2239
20 2240 2241 2242 2243 2244 2245 2246 2247 2248 2249 2250 2251 2252 2253 2254 2255 2256 2257 2258 2259
20 2260 2261 2262 2263 2264 2265 2266 2267 2268 2269 2270 2271 2272 2273 2274 2275 2276 2277 2278 2279
20 2280 2281 2282 2283 2284 2285 2286 2287 2288 2289 2290 2291 2292 2293 2294 2295 2296 2297 2298 2299
20 2300 2301 2302 2303 2304 2305 2306 2307 2308 2309 2310 2311 2312 2313 2314 2315 2316 2317 2318 2319
20 2320 2321 2322 2323 2324 2325 2326 2327 2328 2329 2330 2331 2332 2333 2334 2335 2336 2337 2338 2339
20 2340 2341 2342 2343 2344 2345 2346 2347 2348 2349 2350 2351 2352 2353 2354 2355 2356 2357 2358 2359
20 2360 2361 2362 2363 2364 2365 2366 2367 2368 2369 2370 2371 2372 2373 2374 2375 2376 2377 2378 2379
20 2380 2381 2382 2383 2384 2385 2386 2387 2388 2389 2390 2391 2392 2393 2394 2395 2396 2397 2398 2399
4 0 20 82 215
4 25 40 87 195
4 5 45 92 155
4 41 65 107 235
4 10 50 112 152
4 1 60 102 255
4 21 61 122 295
4 30 51 132 192
4 46 70 127 232
4 6 71 167 252
4 26 66 162 292
4 11 31 172 212
4 27 42 67 135
4 7 47 72 115
4 2 22 62 175
4 3 80 142 315
4 43 85 147 275
4 48 90 187 272
4 23 81 182 355
4 28 86 202 352
4 8 91 207 312
4 12 32 52 95
4 44 105 145 335
4 4 100 140 375
4 63 101 222 415
4 53 110 227 332
4 13 111 247 372
4 68 106 242 412
4 24 120 180 435
4 49 125 185 395
4 54 130 225 392
4 64 121 220 475
4 73 126 282 472
4 33 131 287 432
4 15 35 55 75
4 56 150 267 327
4 83 141 262 495
4 88 146 302 492
4 16 151 307 367
4 9 165 205 455
4 29 160 200 515
4 69 161 240 535
4 14 170 245 452
4 34 171 285 512
4 74 166 280 532
4 84 181 260 555
4 57 190 265 387
4 36 191 347 427
4 93 186 342 552
4 103 143 322 575
4 108 148 362 572
4 17 210 305 447
4 89 201 300 595
4 94 206 340 592
4 37 211 345 507
4 58 230 325 385
4 104 221 320 615
4 113 226 402 612
4 76 231 407 467
4 123 183 382 635
4 128 188 422 632
4 109 241 360 655
4 18 250 365 445
4 77 251 405 527
4 114 246 400 652
4 124 223 380 675
4 133 228 462 672
4 144 261 321 695
4 59 270 330 390
4 96 271 487 547
4 153 266 482 692
4 163 203 442 715
4 168 208 502 712
4 38 290 425 505
4 129 281 420 735
4 134 286 460 732
4 78 291 465 525
4 19 310 370 450
4 149 301 361 755
4 154 306 480 752
4 97 311 485 587
4 164 243 440 775
4 173 248 522 772
4 184 263 381 795
4 193 268 542 792
4 156 326 562 687
4 116 331 567 607
4 169 283 500 815
4 174 288 520 812
4 189 341 421 835
4 39 350 430 510
4 98 351 545 585
4 194 346 540 832
4 117 371 565 647
4 157 366 560 747
4 204 303 441 855
4 213 308 582 852
4 224 323 383 875
4 233 328 602 872
4 136 391 627 667
4 196 386 622 787
4 209 343 501 895
4 214 348 580 892
4 79 410 470 530
4 229 401 461 915
4 234 406 600 912
4 118 411 605 645
4 197 426 620 827
4 137 431 625 727
4 244 363 443 935
4 253 368 642 932
4 236 388 662 867
4 264 324 384 955
4 273 333 682 952
4 216 446 702 847
4 176 451 707 767
4 249 403 521 975
4 254 408 640 972
4 138 471 665 725
4 237 466 660 907
4 269 481 541 995
4 99 490 550 590
4 158 491 685 745
4 274 486 680 992
4 177 511 705 807
4 217 506 700 887
4 284 423 503 1015
4 293 428 722 1012
4 304 364 444 1035
4 313 373 742 1032
4 256 448 762 927
4 276 393 782 947
4 289 463 523 1055
4 294 468 720 1052
4 309 483 581 1075
4 314 488 740 1072
4 257 526 760 967
4 178 531 765 805
4 277 546 780 987
4 198 551 785 825
4 119 570 610 650
4 329 561 601 1095
4 334 566 681 1092
4 159 571 690 750
4 296 508 802 1007
4 344 424 504 1115
4 353 433 822 1112
4 316 453 842 1027
4 336 396 862 942
4 297 528 800 1047
4 349 543 583 1135
4 354 548 820 1132
4 369 563 641 1155
4 374 568 741 1152
4 218 591 845 885
4 317 586 840 1067
4 238 611 865 905
4 337 606 860 1087
4 389 621 661 1175
4 139 630 670 730
4 199 631 790 830
4 394 626 781 1172
4 356 513 882 1107
4 404 464 524 1195
4 413 473 902 1192
4 376 456 922 1022
4 357 588 880 1127
4 409 603 643 1215
4 414 608 900 1212
4 429 623 721 1235
4 434 628 821 1232
4 377 646 920 1147
4 258 651 925 965
4 397 666 861 1167
4 239 671 870 910
4 338 686 940 1085
4 278 691 945 985
4 179 710 770 810
4 449 701 761 1255
4 454 706 841 1252
4 219 711 850 890
4 416 533 962 1187
4 484 544 584 1275
4 493 553 982 1272
4 436 516 1002 1102
4 417 648 960 1207
4 469 663 723 1295
4 474 668 901 1292
4 489 683 743 1315
4 494 688 980 1312
4 509 703 801 1335
4 514 708 881 1332
4 298 731 1005 1045
4 437 726 1000 1227
4 318 751 1025 1065
4 378 746 1020 1145
4 259 771 930 970
4 457 766 921 1247
4 279 791 950 990
4 398 786 941 1165
4 476 536 1042 1182
4 496 593 1062 1267
4 564 604 644 1355
4 573 613 1082 1352
4 477 728 1040 1287
4 497 748 1060 1307
4 529 763 803 1375
4 534 768 961 1372
4 549 783 823 1395
4 554 788 981 1392
4 569 684 744 1415
4 574 693 1080 1412
4 517 806 1001 1327
4 299 811 1010 1050
4 438 826 1100 1225
4 358 831 1105 1125
4 458 846 1021 1245
4 319 851 1030 1070
4 399 866 946 1170
4 339 871 951 1090
4 556 596 1122 1262
4 576 653 1142 1347
4 624 664 724 1435
4 633 673 1162 1432
4 537 808 1041 1367
4 557 828 1120 1387
4 577 753 1140 1407
4 589 843 883 1455
4 594 848 1061 1452
4 609 863 903 1475
4 614 868 1081 1472
4 629 784 824 1495
4 634 793 1160 1492
4 359 891 1110 1130
4 518 886 1101 1325
4 418 911 1185 1205
4 478 906 1180 1285
4 379 931 1031 1150
4 459 926 1026 1250
4 616 656 1202 1342
4 636 733 1222 1427
4 704 764 804 1515
4 713 773 1242 1512
4 597 888 1121 1447
4 617 908 1200 1467
4 637 833 1220 1487
4 649 923 963 1535
4 654 928 1141 1532
4 669 864 904 1555
4 674 873 1161 1552
4 689 943 983 1575
4 694 948 1083 1572
4 709 844 884 1595
4 714 853 1240 1592
4 538 966 1181 1365
4 419 971 1190 1210
4 558 986 1260 1385
4 498 991 1265 1305
4 519 1006 1106 1330
4 439 1011 1111 1230
4 676 736 1282 1422
4 696 756 1302 1402
4 716 813 1322 1507
4 657 968 1201 1527
4 677 913 1280 1547
4 697 988 1300 1567
4 717 893 1320 1587
4 729 1003 1043 1615
4 734 1008 1221 1612
4 749 1023 1063 1635
4 754 1028 1143 1632
4 769 924 964 1655
4 774 933 1241 1652
4 789 944 984 1675
4 794 953 1163 1672
4 479 1051 1191 1290
4 539 1046 1186 1370
4 499 1071 1270 1310
4 598 1066 1261 1445
4 578 1091 1345 1405
4 618 1086 1340 1465
4 776 816 1362 1502
4 796 836 1382 1482
4 737 1048 1281 1607
4 757 1068 1301 1627
4 777 973 1360 1647
4 797 993 1380 1667
4 698 1088 1400 1565
4 809 1004 1044 1695
4 814 1013 1321 1692
4 829 1103 1123 1715
4 834 1108 1223 1712
4 849 1024 1064 1735
4 854 1033 1243 1732
4 869 949 1084 1755
4 874 954 1164 1752
4 599 1126 1266 1450
4 559 1131 1271 1390
4 658 1146 1341 1525
4 579 1151 1350 1410
4 678 1166 1420 1545
4 638 1171 1425 1485
4 856 896 1442 1582
4 876 916 1462 1542
4 817 1053 1361 1687
4 837 1128 1381 1707
4 758 1148 1401 1625
4 857 1073 1440 1727
4 877 1093 1460 1747
4 798 1168 1480 1665
4 889 1104 1124 1775
4 894 1113 1323 1772
4 909 1183 1203 1795
4 914 1188 1283 1792
4 929 1029 1144 1815
4 934 1034 1244 1812
4 619 1211 1351 1470
4 659 1206 1346 1530
4 639 1231 1430 1490
4 738 1226 1421 1605
4 718 1251 1505 1585
4 778 1246 1500 1645
4 936 976 1522 1642
4 956 996 1562 1662
4 897 1133 1441 1767
4 917 1208 1461 1787
4 838 1228 1481 1705
4 937 1153 1520 1807
4 878 1173 1540 1745
4 957 1096 1560 1742
4 858 1248 1580 1725
4 969 1184 1204 1835
4 974 1193 1363 1832
4 989 1263 1303 1855
4 994 1268 1383 1852
4 1009 1109 1224 1875
4 1014 1114 1324 1872
4 739 1286 1426 1610
4 679 1291 1431 1550
4 759 1306 1406 1630
4 699 1311 1411 1570
4 818 1326 1501 1685
4 719 1331 1510 1590
4 1016 1056 1602 1682
4 1036 1076 1622 1722
4 977 1213 1521 1827
4 918 1288 1541 1785
4 997 1308 1561 1847
4 898 1328 1581 1765
4 1017 1233 1600 1867
4 1037 1156 1620 1802
4 938 1253 1640 1805
4 958 1176 1660 1740
4 1049 1189 1284 1895
4 1054 1194 1364 1892
4 1069 1264 1304 1915
4 1074 1273 1443 1912
4 1089 1343 1403 1935
4 1094 1348 1463 1932
4 779 1371 1511 1650
4 819 1366 1506 1690
4 799 1391 1491 1670
4 839 1386 1486 1710
4 1116 1136 1702 1762
4 1057 1293 1601 1887
4 1077 1313 1621 1907
4 978 1368 1641 1825
4 998 1388 1661 1845
4 1097 1408 1563 1927
4 1018 1333 1680 1865
4 1117 1236 1700 1862
4 1038 1256 1720 1800
4 1129 1269 1384 1955
4 1134 1274 1444 1952
4 1149 1344 1404 1975
4 1154 1353 1523 1972
4 1169 1423 1483 1995
4 1174 1428 1543 1992
4 899 1446 1586 1770
4 859 1451 1591 1730
4 919 1466 1546 1790
4 879 1471 1551 1750
4 1196 1216 1782 1822
4 1058 1373 1681 1885
4 1137 1393 1701 1947
4 1157 1413 1623 1967
4 1078 1448 1721 1905
4 1098 1468 1741 1925
4 1177 1488 1663 1987
4 1118 1336 1760 1860
4 1197 1296 1780 1882
4 1209 1349 1464 2015
4 1214 1354 1524 2012
4 1229 1424 1484 2035
4 1234 1433 1603 2032
4 1249 1503 1583 2055
4 1254 1508 1643 2052
4 939 1531 1651 1810
4 979 1526 1646 1830
4 959 1571 1671 1751
4 999 1566 1666 1850
4 1276 1316 1842 1902
4 1138 1453 1761 1945
4 1217 1473 1781 2007
4 1237 1493 1703 2027
4 1158 1528 1801 1965
4 1178 1548 1743 1985
4 1099 1568 1746 1930
4 1257 1588 1723 2047
4 1198 1376 1820 1880
4 1277 1396 1840 1942
4 1289 1429 1544 2075
4 1294 1434 1604 2072
4 1309 1409 1564 2095
4 1314 1414 1624 2092
4 1329 1504 1584 2115
4 1334 1513 1683 2112
4 1059 1606 1686 1890
4 1019 1611 1691 1870
4 1079 1626 1726 1910
4 1039 1631 1731 1811
4 1356 1416 1922 1962
4 1218 1533 1821 2005
4 1297 1553 1783 2067
4 1317 1573 1841 2087
4 1337 1593 1763 2107
4 1238 1608 1861 2025
4 1159 1628 1806 1970
4 1258 1648 1803 2045
4 1179 1668 1748 1990
4 1278 1456 1900 1940
4 1357 1476 1920 2002
4 1369 1509 1644 2135
4 1374 1514 1684 2132
4 1389 1489 1664 2155
4 1394 1494 1704 2152
4 1119 1711 1771 1871
4 1139 1706 1766 1950
4 1436 1496 1982 2022
4 1298 1613 1881 2065
4 1318 1633 1901 2085
4 1377 1653 1823 2127
4 1397 1673 1843 2147
4 1417 1576 1921 2082
4 1338 1688 1863 2105
4 1239 1708 1866 2030
4 1259 1728 1808 2050
4 1358 1536 1960 2000
4 1437 1556 1980 2062
4 1449 1589 1724 2175
4 1454 1594 1764 2172
4 1469 1549 1744 2195
4 1474 1554 1784 2192
4 1219 1786 1826 2010
4 1199 1791 1831 1891
4 1516 1596 2042 2102
4 1378 1693 1883 2125
4 1398 1713 1941 2145
4 1418 1636 1961 2080
4 1457 1733 1903 2167
4 1477 1753 1923 2187
4 1497 1676 1981 2142
4 1339 1768 1868 2110
4 1299 1788 1886 2070
4 1438 1616 2020 2060
4 1517 1656 2040 2122
4 1529 1649 1804 2215
4 1534 1654 1824 2212
4 1569 1669 1749 2235
4 1574 1674 1844 2232
4 1279 1851 1911 1951
4 1319 1846 1906 2090
4 1458 1773 1943 2165
4 1478 1793 2001 2185
4 1498 1716 2021 2140
4 1537 1813 1963 2207
4 1557 1756 1983 2182
4 1577 1754 1924 2227
4 1597 1736 2041 2162
4 1379 1828 1888 2130
4 1399 1848 1946 2150
4 1518 1696 2100 2120
4 1609 1689 1864 2255
4 1614 1694 1884 2252
4 1629 1729 1809 2275
4 1634 1734 1904 2272
4 1419 1926 1966 2091
4 1359 1931 1971 2011
4 1538 1833 2003 2205
4 1558 1796 2061 2180
4 1578 1853 2081 2225
4 1598 1776 2101 2160
4 1617 1873 2023 2247
4 1637 1814 1964 2267
4 1657 1816 2043 2202
4 1677 1757 1984 2222
4 1459 1908 1948 2170
4 1479 1928 2006 2190
4 1709 1769 1869 2295
4 1714 1774 1944 2292
4 1439 1991 2031 2071
4 1499 1986 2026 2151
4 1618 1893 2063 2245
4 1638 1913 2083 2265
4 1658 1836 2121 2200
4 1678 1856 2141 2220
4 1579 1933 2086 2230
4 1697 1876 2103 2242
4 1717 1874 2024 2287
4 1737 1817 2044 2262
4 1539 1968 2008 2210
4 1559 1988 2066 2191
4 1789 1829 1889 2315
4 1794 1834 2004 2312
4 1599 2046 2106 2171
4 1519 2051 2111 2131
4 1698 1896 2123 2240
4 1718 1953 2143 2285
4 1639 1973 2088 2270
4 1738 1916 2161 2260
4 1758 1936 2181 2221
4 1679 1993 2146 2231
4 1777 1877 2104 2282
4 1797 1894 2064 2307
4 1619 2028 2068 2250
4 1659 2048 2126 2211
4 1849 1909 1949 2335
4 1854 1914 2084 2332
4 1778 1956 2163 2280
4 1798 2013 2183 2305
4 1719 2033 2148 2290
4 1818 1976 2201 2261
4 1759 1996 2186 2226
4 1739 2053 2166 2271
4 1837 1897 2124 2302
4 1857 1954 2144 2327
4 1699 2108 2128 2251
4 1929 1969 2009 2355
4 1934 1974 2089 2352
4 1838 2016 2203 2300
4 1799 2073 2188 2310
4 1858 2093 2223 2325
4 1779 2113 2168 2291
4 1878 2036 2241 2281
4 1819 2056 2206 2266
4 1917 1957 2164 2322
4 1937 2014 2184 2347
4 1989 2029 2069 2375
4 1994 2034 2149 2372
4 1898 2076 2243 2301
4 1918 2096 2263 2320
4 1839 2133 2208 2311
4 1859 2153 2228 2330
4 1938 2094 2224 2345
4 1879 2116 2246 2286
4 1977 2017 2204 2342
4 1997 2074 2189 2367
4 2049 2109 2129 2395
4 2054 2114 2169 2392
4 1899 2136 2248 2306
4 1958 2156 2283 2321
4 1978 2097 2264 2340
4 1919 2173 2268 2331
4 1939 2193 2233 2350
4 1998 2154 2229 2365
4 2037 2077 2244 2362
4 2057 2134 2209 2387
4 1959 2176 2288 2326
4 2018 2196 2303 2341
4 2038 2157 2284 2360
4 1979 2213 2273 2351
4 1999 2194 2234 2370
4 2058 2174 2269 2385
4 2117 2137 2249 2382
4 2019 2216 2308 2346
4 2078 2197 2304 2361
4 2098 2236 2323 2343
4 2118 2177 2289 2380
4 2039 2253 2293 2371
4 2059 2214 2274 2390
4 2079 2256 2313 2366
4 2099 2276 2328 2348
4 2138 2217 2309 2381
4 2158 2237 2324 2363
4 2119 2254 2294 2391
4 2139 2257 2314 2386
4 2159 2296 2333 2368
4 2178 2277 2329 2383
4 2198 2238 2344 2364
4 2179 2297 2334 2388
4 2199 2316 2353 2373
4 2218 2278 2349 2384
4 2219 2317 2354 2393
4 2239 2336 2356 2376
4 2258 2298 2369 2389
4 2259 2318 2374 2394
4 2279 2337 2357 2396
4 2299 2338 2377 2397
4 2319 2358 2378 2398
4 2339 2359 2379 2399
