# Generated using Miratope v0.5.0 (https://github.com/galoomba1/miratope-rs)
4OFF

# Vertices, Faces, Edges, Cells
120 720 720 120

# Vertices
0.809016994375 0 0.3090169943749 0.5 
0.809016994375 0.5 0 0.3090169943749 
0.809016994375 -0.3090169943749 0.5 -0 
0.5 -0.3090169943749 0 0.8090169943749 
0.809016994375 -0 0.3090169943749 -0.5 
0.809016994375 0.5 0 -0.3090169943749 
0.5 -0.3090169943749 0 -0.8090169943749 
0.5 0.5 -0.5 -0.5 
0.5 0.5 -0.5 0.5 
0.5 -0.8090169943749 0.3090169943749 0 
0.309016994375 -0.8090169943749 0 0.5 
0.309016994375 -0.8090169943749 0 -0.5 
0.309016994375 0 -0.5 0.8090169943749 
0.309016994375 0.5 -0.8090169943749 0 
0.309016994375 0 -0.5 -0.8090169943749 
0 -0.8090169943749 -0.5 0.3090169943749 
0 -0.809016994375 -0.5 -0.3090169943749 
0 -0.3090169943749 -0.8090169943749 0.5 
0 0 -1 0 
0 -0.3090169943749 -0.8090169943749 -0.5 
0.809016994375 -0.5 0 0.3090169943749 
0.809016994375 0.3090169943749 0.5 -0 
0.5 0.3090169943749 0 0.8090169943749 
0.809016994375 -0.5 0 -0.3090169943749 
0.5 0.3090169943749 0 -0.8090169943749 
0.5 -0.5 -0.5 -0.5 
0.5 -0.5 -0.5 0.5 
0.5 0.8090169943749 0.3090169943749 0 
0.309016994375 0.8090169943749 0 0.5 
0.309016994375 0.8090169943749 0 -0.5 
0 0.8090169943749 -0.5 0.3090169943749 
0.309016994375 -0.5 -0.8090169943749 0 
0 0.809016994375 -0.5 -0.3090169943749 
0 0.3090169943749 -0.8090169943749 0.5 
0 0.3090169943749 -0.8090169943749 -0.5 
0.809016994375 0 -0.3090169943749 0.5 
0.5 -0.5 0.5 0.5 
0.809016994375 0.3090169943749 -0.5 0 
0.5 0 -0.8090169943749 -0.3090169943749 
0.5 0 0.8090169943749 -0.3090169943749 
0.309016994375 -0.5 0.8090169943749 0 
0.309016994375 0 0.5 -0.8090169943749 
0 -0.8090169943749 0.5 -0.3090169943749 
0 -1 0 0 
0 -0.5 0.3090169943749 -0.8090169943749 
0 -0.5 -0.3090169943749 -0.8090169943749 
0.809016994375 0 -0.3090169943749 -0.5 
0.5 -0.5 0.5 -0.5 
0.5 -0 -0.8090169943749 0.3090169943749 
0.5 0 0.8090169943749 0.3090169943749 
0.309016994375 0 0.5 0.8090169943749 
0 -0.8090169943749 0.5 0.3090169943749 
0 -0.5 0.3090169943749 0.8090169943749 
0 -0.5 -0.3090169943749 0.8090169943749 
0.5 0.5 0.5 0.5 
0.809016994375 -0.3090169943749 -0.5 0 
0.309016994375 0.5 0.8090169943749 0 
0 0.8090169943749 0.5 -0.3090169943749 
0 1 0 0 
0 0.5 0.3090169943749 -0.8090169943749 
0 0.5 -0.3090169943749 -0.8090169943749 
0.5 0.8090169943749 -0.3090169943749 0 
0.5 -0.8090169943749 -0.3090169943749 0 
0 0.5 -0.3090169943749 0.8090169943749 
0 0 0 1 
0.5 0.5 0.5 -0.5 
0 0.8090169943749 0.5 0.3090169943749 
0 0.5 0.3090169943749 0.8090169943749 
0 0.3090169943749 0.8090169943749 -0.5 
0 -0.3090169943749 0.809016994375 -0.5 
0 0 0 -1 
0 0 1 0 
0 -0.3090169943749 0.809016994375 0.5 
0 0.3090169943749 0.8090169943749 0.5 
-0.5 0 0.809016994375 0.3090169943749 
-0.5 0 0.809016994375 -0.3090169943749 
-0.5 0.5 0.5 0.5 
-0.5 0.809016994375 0.309016994375 0 
-0.5 0.5 0.5 -0.5 
1 -0 -0 0 
-0.3090169943749 0.5 0.809016994375 0 
-0.3090169943749 0.809016994375 0 0.5 
-0.3090169943749 0.809016994375 0 -0.5 
-0.3090169943749 -0.5 0.809016994375 0 
-0.3090169943749 0 0.5 -0.8090169943749 
-0.3090169943749 0 0.5 0.8090169943749 
-0.5 -0.5 0.5 0.5 
-0.5 -0.809016994375 0.309016994375 0 
-0.5 -0.5 0.5 -0.5 
-0.3090169943749 -0.809016994375 0 0.5 
-0.3090169943749 -0.809016994375 0 -0.5 
-0.5 0.309016994375 0 0.809016994375 
-0.5 0.5 -0.5 0.5 
-0.5 0.809016994375 -0.3090169943749 0 
-0.3090169943749 0 -0.5 0.809016994375 
-0.3090169943749 0.5 -0.809016994375 0 
-0.5 0.309016994375 0 -0.809016994375 
-0.5 0.5 -0.5 -0.5 
-0.3090169943749 0 -0.5 -0.809016994375 
-0.5 -0.309016994375 0 0.809016994375 
-0.5 -0.5 -0.5 0.5 
-0.5 -0.809016994375 -0.3090169943749 0 
-0.3090169943749 -0.5 -0.809016994375 0 
-0.5 -0.309016994375 0 -0.809016994375 
-0.5 -0.5 -0.5 -0.5 
-0.5 0 -0.809016994375 0.309016994375 
-0.8090169943749 0 0.309016994375 0.5 
-0.8090169943749 -0.309016994375 0.5 0 
-0.8090169943749 0.309016994375 0.5 0 
-0.5 0 -0.809016994375 -0.309016994375 
-0.8090169943749 0 0.309016994375 -0.5 
-0.8090169943749 0.5 0 0.309016994375 
-0.8090169943749 0.5 0 -0.309016994375 
-0.8090169943749 -0.5 0 0.309016994375 
-0.8090169943749 -0.5 0 -0.309016994375 
-0.8090169943749 0 -0.309016994375 0.5 
-0.8090169943749 0.309016994375 -0.5 0 
-0.8090169943749 0 -0.309016994375 -0.5 
-0.8090169943749 -0.309016994375 -0.5 0 
-1 0 0 0 

# Faces
5 5 1 0 2 4
5 0 1 8 12 3
5 9 2 0 3 10
5 5 7 14 6 4
5 2 9 11 6 4
5 1 5 7 13 8
5 9 11 16 15 10
5 12 8 13 18 17
5 7 13 18 19 14
5 12 3 10 15 17
5 6 11 16 19 14
5 17 18 19 16 15
5 23 20 0 21 4
5 20 0 22 12 26
5 21 0 22 28 27
5 23 25 14 24 4
5 27 21 4 24 29
5 26 20 23 25 31
5 28 30 32 29 27
5 22 12 33 30 28
5 26 31 18 33 12
5 24 14 34 32 29
5 25 31 18 34 14
5 30 33 18 34 32
5 37 35 0 21 5
5 39 21 0 36 40
5 35 0 36 10 26
5 5 24 14 38 37
5 5 24 41 39 21
5 31 38 37 35 26
5 41 39 40 42 44
5 36 10 43 42 40
5 26 10 43 16 31
5 14 45 44 41 24
5 14 38 31 16 45
5 43 16 45 44 42
5 21 1 37 46 4
5 4 47 40 49 21
5 46 25 11 47 4
5 37 1 22 12 48
5 21 49 50 22 1
5 37 48 31 25 46
5 40 51 52 50 49
5 47 11 43 51 40
5 12 53 52 50 22
5 11 25 31 15 43
5 31 48 12 53 15
5 51 43 15 53 52
5 23 2 0 35 55
5 2 39 56 54 0
5 35 8 28 54 0
5 39 2 23 6 41
5 14 6 23 55 38
5 39 41 59 57 56
5 13 38 55 35 8
5 56 54 28 58 57
5 8 28 58 32 13
5 14 60 59 41 6
5 38 13 32 60 14
5 58 57 59 60 32
5 5 21 2 23 46
5 28 61 5 21 54
5 46 38 13 61 5
5 23 2 36 10 62
5 23 46 38 31 62
5 54 21 2 36 50
5 50 54 28 63 64
5 10 36 50 64 53
5 28 63 33 13 61
5 10 53 17 31 62
5 38 31 17 33 13
5 63 33 17 53 64
5 2 20 55 46 4
5 49 2 4 65 56
5 4 65 29 7 46
5 20 3 50 49 2
5 12 48 55 20 3
5 50 49 56 66 67
5 55 48 13 7 46
5 29 65 56 66 58
5 7 13 30 58 29
5 12 63 67 50 3
5 48 13 30 63 12
5 58 66 67 63 30
5 20 0 1 37 55
5 1 27 56 49 0
5 49 0 20 9 40
5 27 1 37 7 29
5 20 9 11 25 55
5 14 7 37 55 25
5 40 49 56 68 69
5 27 56 68 59 29
5 11 44 69 40 9
5 14 70 59 29 7
5 11 25 14 70 44
5 69 68 59 70 44
5 21 1 35 20 2
5 29 61 1 21 65
5 13 48 35 1 61
5 47 2 20 62 11
5 2 47 41 65 21
5 31 48 35 20 62
5 29 60 70 41 65
5 47 11 45 70 41
5 13 61 29 60 34
5 31 62 11 45 19
5 31 19 34 13 48
5 70 45 19 34 60
5 5 46 55 35 1
5 56 65 5 1 54
5 41 65 5 46 6
5 50 3 35 1 54
5 3 35 55 62 10
5 55 62 11 6 46
5 56 71 72 50 54
5 41 65 56 71 69
5 3 50 72 51 10
5 62 11 42 51 10
5 6 11 42 69 41
5 72 71 69 42 51
5 5 4 23 55 37
5 5 27 56 39 4
5 4 39 40 9 23
5 28 27 5 37 8
5 10 9 23 55 26
5 8 37 55 26 12
5 39 40 72 73 56
5 56 27 28 67 73
5 10 9 40 72 52
5 8 28 67 64 12
5 12 64 52 10 26
5 73 72 52 64 67
5 23 46 37 35 20
5 36 20 23 47 40
5 41 47 23 46 24
5 22 35 20 36 50
5 37 61 28 22 35
5 29 24 46 37 61
5 36 50 73 71 40
5 47 40 71 68 41
5 28 66 73 50 22
5 29 61 28 66 57
5 29 24 41 68 57
5 73 71 68 57 66
5 0 50 67 28 1
5 72 50 0 2 40
5 4 41 59 29 5
5 40 2 4 41 69
5 1 28 58 29 5
5 40 72 74 75 69
5 67 28 58 77 76
5 58 77 78 59 29
5 67 76 74 72 50
5 41 59 78 75 69
5 74 76 77 78 75
5 39 49 0 79 4
5 73 49 0 22 67
5 22 8 37 79 0
5 59 24 4 39 68
5 24 7 37 79 4
5 37 7 32 30 8
5 49 39 68 80 73
5 22 8 30 81 67
5 7 24 59 82 32
5 67 81 77 80 73
5 59 68 80 77 82
5 30 81 77 82 32
5 0 79 5 27 54
5 36 9 23 79 0
5 73 54 0 36 72
5 59 24 5 27 57
5 5 79 23 6 24
5 44 6 23 9 42
5 80 57 27 54 73
5 9 42 83 72 36
5 24 6 44 84 59
5 72 73 80 75 83
5 57 59 84 75 80
5 44 42 83 75 84
5 27 65 4 79 1
5 4 79 20 9 47
5 68 65 4 47 69
5 1 27 66 67 22
5 1 22 3 20 79
5 3 52 51 9 20
5 68 65 27 66 80
5 9 47 69 83 51
5 22 3 52 85 67
5 69 68 80 74 83
5 67 66 80 74 85
5 52 85 74 83 51
5 5 65 39 2 79
5 61 8 35 79 5
5 5 61 58 57 65
5 71 39 2 36 72
5 2 79 35 3 36
5 39 65 57 80 71
5 35 8 63 64 3
5 3 36 72 85 64
5 8 63 81 58 61
5 80 71 72 85 76
5 57 58 81 76 80
5 81 63 64 85 76
5 1 79 2 49 54
5 1 61 7 46 79
5 58 61 1 54 66
5 2 47 69 71 49
5 6 47 2 79 46
5 66 54 49 71 80
5 70 6 46 7 60
5 6 47 69 84 70
5 58 82 60 7 61
5 71 80 78 84 69
5 66 58 82 78 80
5 70 84 78 82 60
5 39 65 27 54 49
5 39 47 9 36 49
5 39 47 6 24 65
5 49 36 3 22 54
5 22 54 27 61 8
5 7 24 65 27 61
5 3 36 9 62 26
5 47 9 62 25 6
5 8 48 26 3 22
5 8 48 38 7 61
5 6 24 7 38 25
5 62 25 38 48 26
5 52 50 0 20 10
5 73 50 0 21 56
5 23 11 44 41 4
5 4 41 68 56 21
5 10 20 23 11 43
5 74 73 56 68 75
5 43 87 86 52 10
5 50 52 86 74 73
5 41 44 88 75 68
5 11 43 87 88 44
5 74 75 88 87 86
5 3 52 72 49 0
5 0 3 26 55 79
5 4 6 44 69 39
5 55 79 4 6 25
5 83 72 49 39 69
5 16 25 55 26 15
5 3 26 15 89 52
5 25 6 44 90 16
5 52 89 87 83 72
5 44 69 83 87 90
5 16 15 89 87 90
5 23 79 21 39 47
5 35 79 23 62 26
5 23 62 43 42 47
5 21 54 73 71 39
5 39 47 42 83 71
5 22 54 21 79 35
5 35 26 53 64 22
5 73 85 64 22 54
5 43 62 26 53 89
5 73 71 83 86 85
5 42 43 89 86 83
5 53 64 85 86 89
5 36 49 21 79 20
5 20 62 25 46 79
5 43 62 20 36 51
5 71 49 21 65 68
5 65 24 46 79 21
5 49 71 83 51 36
5 25 45 70 24 46
5 70 24 65 68 84
5 25 62 43 90 45
5 68 84 88 83 71
5 43 90 88 83 51
5 45 70 84 88 90
5 50 0 35 12 64
5 37 13 32 29 5
5 21 56 57 29 5
5 12 35 37 13 33
5 57 77 76 73 56
5 29 32 93 77 57
5 50 64 91 76 73
5 33 12 64 91 92
5 32 13 33 92 93
5 76 91 92 93 77
5 0 54 67 64 3
5 7 32 58 27 5
5 5 7 38 55 79
5 55 26 17 18 38
5 81 67 54 27 58
5 32 95 18 38 7
5 3 64 94 17 26
5 81 67 64 94 92
5 58 81 92 95 32
5 17 94 92 95 18
5 26 48 37 79 20
5 20 36 52 53 26
5 61 27 21 79 37
5 30 61 37 48 33
5 73 49 21 27 66
5 49 73 85 52 36
5 30 61 27 66 81
5 26 53 94 33 48
5 73 66 81 91 85
5 52 53 94 91 85
5 81 30 33 94 91
5 21 65 57 66 54
5 46 79 35 48 38
5 35 48 33 63 22
5 60 24 46 38 34
5 63 22 54 66 81
5 82 57 65 24 60
5 38 34 95 33 48
5 57 82 93 81 66
5 33 95 93 81 63
5 82 60 34 95 93
5 4 41 70 14 46
5 37 13 30 28 1
5 21 56 66 28 1
5 34 14 46 37 13
5 78 68 56 66 77
5 28 30 93 77 66
5 41 70 96 78 68
5 30 93 97 34 13
5 14 34 97 96 70
5 93 77 78 96 97
5 4 6 70 59 65
5 58 27 1 8 30
5 1 79 55 48 8
5 55 25 19 18 48
5 82 58 27 65 59
5 8 48 18 95 30
5 25 6 70 98 19
5 30 58 82 97 95
5 82 59 70 98 97
5 18 19 98 97 95
5 37 38 25 23 79
5 44 47 23 25 45
5 34 38 37 61 32
5 27 57 68 39 21
5 84 68 39 47 44
5 27 57 82 32 61
5 25 45 98 34 38
5 82 57 68 84 96
5 44 84 96 98 45
5 82 32 34 98 96
5 23 11 42 40 2
5 55 31 16 11 23
5 17 31 55 35 12
5 40 42 87 86 72
5 64 50 72 86 99
5 16 11 42 87 101
5 12 17 100 99 64
5 31 17 100 101 16
5 87 86 99 100 101
5 0 36 52 64 22
5 16 25 23 9 43
5 33 8 37 38 18
5 89 52 36 9 43
5 8 33 94 64 22
5 38 25 16 102 18
5 64 94 100 89 52
5 16 102 100 89 43
5 33 18 102 100 94
5 1 8 63 67 54
5 9 51 72 49 2
5 62 9 2 79 55
5 54 67 85 72 49
5 17 48 55 62 15
5 51 89 15 62 9
5 8 63 94 17 48
5 51 72 85 99 89
5 63 94 99 85 67
5 17 15 89 99 94
5 2 36 51 42 47
5 17 48 35 3 53
5 45 6 46 38 19
5 3 53 89 51 36
5 47 42 90 45 6
5 48 17 102 19 38
5 42 51 89 101 90
5 17 102 101 89 53
5 90 45 19 102 101
5 46 14 60 29 5
5 45 11 23 46 14
5 71 40 2 21 56
5 75 71 56 57 78
5 88 42 40 71 75
5 78 57 29 60 96
5 11 42 88 103 45
5 14 45 103 96 60
5 88 75 78 96 103
5 59 65 5 7 60
5 69 39 2 9 42
5 65 59 84 69 39
5 55 38 19 16 62
5 9 62 16 90 42
5 60 98 19 38 7
5 42 90 103 84 69
5 59 84 103 98 60
5 16 19 98 103 90
5 40 2 20 10 51
5 10 20 55 31 15
5 14 46 55 31 19
5 40 69 88 87 51
5 10 51 87 101 15
5 70 103 88 69 41
5 70 14 19 104 103
5 31 15 101 104 19
5 88 87 101 104 103
5 44 47 4 24 70
5 43 9 20 26 15
5 48 18 34 7 37
5 44 47 9 43 90
5 24 7 34 98 70
5 26 15 102 18 48
5 43 90 104 102 15
5 44 70 98 104 90
5 34 98 104 102 18
5 18 13 37 55 31
5 28 30 92 91 67
5 15 100 99 52 10
5 67 50 52 99 91
5 13 18 105 92 30
5 31 18 105 100 15
5 92 105 100 99 91
5 1 22 63 30 61
5 15 62 20 3 53
5 46 25 19 34 7
5 3 53 94 63 22
5 95 30 61 7 34
5 62 15 102 19 25
5 63 94 105 95 30
5 94 53 15 102 105
5 95 34 19 102 105
5 39 69 75 80 56
5 76 80 56 54 67
5 10 89 87 42 9
5 10 89 99 64 3
5 42 69 75 107 87
5 64 99 106 76 67
5 75 107 106 76 80
5 89 99 106 107 87
5 75 68 39 40 83
5 28 81 77 57 27
5 52 36 40 83 86
5 22 64 91 81 28
5 57 68 75 108 77
5 64 52 86 106 91
5 83 75 108 106 86
5 91 81 77 108 106
5 35 12 63 28 1
5 53 10 20 35 12
5 76 66 56 71 74
5 40 51 86 74 71
5 76 66 28 63 91
5 10 53 99 86 51
5 12 63 91 99 53
5 74 86 99 91 76
5 54 66 76 85 50
5 41 84 78 57 65
5 36 50 85 86 51
5 88 42 47 41 84
5 66 76 108 78 57
5 42 88 107 86 51
5 85 76 108 107 86
5 78 84 88 107 108
5 28 58 93 92 63
5 93 58 29 60 97
5 17 105 92 63 12
5 14 19 109 97 60
5 17 105 109 19 31
5 93 97 109 105 92
5 60 24 5 61 32
5 45 6 23 62 16
5 26 17 33 8 35
5 95 33 8 61 32
5 16 62 26 17 102
5 6 45 98 60 24
5 17 102 109 95 33
5 32 60 98 109 95
5 45 98 109 102 16
5 72 49 56 80 74
5 78 59 65 56 80
5 9 51 87 90 11
5 11 90 103 70 6
5 51 72 74 107 87
5 78 59 70 103 110
5 78 80 74 107 110
5 90 87 107 110 103
5 49 73 74 83 40
5 77 66 27 29 82
5 40 83 88 44 47
5 96 70 24 29 82
5 73 66 77 108 74
5 70 96 110 88 44
5 83 88 110 108 74
5 96 82 77 108 110
5 29 59 96 97 32
5 44 103 96 59 41
5 11 16 104 103 44
5 18 109 97 32 13
5 31 18 109 104 16
5 103 96 97 109 104
5 56 80 77 58 27
5 8 12 94 92 30
5 12 94 99 52 3
5 52 72 74 106 99
5 30 92 111 77 58
5 77 111 106 74 80
5 92 111 106 99 94
5 50 85 74 71 49
5 29 82 78 68 65
5 50 85 91 63 22
5 61 29 82 93 30
5 68 78 108 74 71
5 63 30 93 111 91
5 74 108 111 91 85
5 93 82 78 108 111
5 43 101 100 53 10
5 104 45 11 43 101
5 12 53 100 105 33
5 13 34 109 105 33
5 34 109 104 45 14
5 100 101 104 109 105
5 92 63 8 13 95
5 7 13 95 97 60
5 63 67 76 111 92
5 78 59 60 97 112
5 76 111 112 78 80
5 92 111 112 97 95
5 39 71 75 84 41
5 28 81 76 73 54
5 61 32 93 81 28
5 24 41 84 96 60
5 73 76 108 75 71
5 60 32 93 112 96
5 76 81 93 112 108
5 84 75 108 112 96
5 7 32 97 98 14
5 6 14 98 103 44
5 69 44 103 110 75
5 32 58 77 112 97
5 80 77 112 110 75
5 98 103 110 112 97
5 43 9 40 83 87
5 22 12 94 91 67
5 94 12 26 15 100
5 67 73 74 106 91
5 43 87 113 100 15
5 74 83 87 113 106
5 94 91 106 113 100
5 11 90 88 69 47
5 85 50 3 53 99
5 62 15 101 90 11
5 88 69 71 74 107
5 99 53 15 101 113
5 74 85 99 113 107
5 88 90 101 113 107
5 106 85 72 83 107
5 110 84 69 83 107
5 81 111 106 85 67
5 81 111 112 82 58
5 110 84 59 82 112
5 107 110 112 111 106
5 26 53 100 102 31
5 31 102 104 45 25
5 100 53 52 86 113
5 45 104 114 88 44
5 86 113 114 88 83
5 102 100 113 114 104
5 36 72 86 89 10
5 62 16 101 89 10
5 45 6 41 84 103
5 72 71 75 107 86
5 101 16 45 103 114
5 89 101 114 107 86
5 84 103 114 107 75
5 24 59 96 98 14
5 14 98 104 16 25
5 68 59 96 110 75
5 43 16 104 114 87
5 83 87 114 110 75
5 98 104 114 110 96
5 8 33 92 81 28
5 10 89 100 17 26
5 72 86 106 76 73
5 33 92 115 100 17
5 76 81 92 115 106
5 100 89 86 106 115
5 93 58 61 13 95
5 95 13 48 17 105
5 93 58 66 76 111
5 17 105 115 99 53
5 85 76 111 115 99
5 95 105 115 111 93
5 73 85 106 108 80
5 108 80 68 84 110
5 113 89 52 85 106
5 43 89 113 114 90
5 44 84 110 114 90
5 108 110 114 113 106
5 109 34 38 31 102
5 100 53 64 91 115
5 34 109 116 93 32
5 81 93 116 115 91
5 100 115 116 109 102
5 97 34 7 29 82
5 48 18 105 94 12
5 66 77 111 91 67
5 34 97 116 105 18
5 77 82 97 116 111
5 94 91 111 116 105
5 38 18 109 98 14
5 57 59 96 112 77
5 33 92 116 109 18
5 77 81 92 116 112
5 109 98 96 112 116
5 25 19 104 90 11
5 69 68 78 110 88
5 19 104 117 97 34
5 82 97 117 110 78
5 88 110 117 104 90
5 38 13 95 109 19
5 57 78 112 93 58
5 45 19 109 117 103
5 84 103 117 112 78
5 93 112 117 109 95
5 102 31 62 43 101
5 31 102 105 33 48
5 51 43 101 113 86
5 105 33 63 91 115
5 91 85 86 113 115
5 101 113 115 105 102
5 57 82 112 108 80
5 106 85 64 94 115
5 94 115 116 95 33
5 32 82 112 116 95
5 108 106 115 116 112
5 33 105 116 93 30
5 104 45 70 96 117
5 93 82 96 117 116
5 104 117 116 105 102
5 63 92 115 99 64
5 101 16 19 109 118
5 101 89 99 115 118
5 92 115 118 109 95
5 51 52 99 113 87
5 18 105 118 104 19
5 90 87 113 118 104
5 99 94 105 118 113
5 44 42 87 114 103
5 18 17 100 118 109
5 89 100 118 114 87
5 98 109 118 114 103
5 42 43 101 114 88
5 109 34 60 96 117
5 84 96 117 114 88
5 101 102 109 117 114
5 80 108 107 83 71
5 111 81 66 80 108
5 113 89 51 83 107
5 111 81 63 94 115
5 53 89 113 115 94
5 107 108 111 115 113
5 30 95 116 111 81
5 84 110 117 98 70
5 34 98 117 116 95
5 110 108 111 116 117
5 83 107 114 90 42
5 94 115 118 102 17
5 16 102 118 114 90
5 107 106 115 118 114
5 60 70 103 117 97
5 15 17 105 118 101
5 90 103 117 118 101
5 95 105 118 117 97
5 75 107 119 112 78
5 107 86 99 115 119
5 93 92 115 119 112
5 78 77 111 119 110
5 88 110 119 113 87
5 99 113 119 111 91
5 32 97 116 92 30
5 15 16 104 118 100
5 94 100 118 116 92
5 97 98 104 118 116
5 77 76 106 119 112
5 87 114 119 106 86
5 103 96 112 119 114
5 60 82 112 117 98
5 114 90 45 98 117
5 107 108 112 117 114
5 89 15 102 118 113
5 19 98 117 118 102
5 107 110 117 118 113
5 95 116 118 102 18
5 106 111 116 118 113
5 76 108 119 115 91
5 114 88 75 108 119
5 115 100 101 114 119
5 76 111 119 107 74
5 88 103 117 119 107
5 93 111 119 117 97
5 74 106 119 110 75
5 92 91 106 119 116
5 110 96 97 116 119
5 112 117 118 115 111
5 86 74 108 119 113
5 108 78 96 117 119
5 101 113 119 117 104
5 112 110 114 118 116
5 77 108 119 116 93
5 113 100 105 116 119
5 100 118 119 106 99
5 103 110 119 118 104
5 116 115 113 114 117
5 115 105 109 117 119
5 109 116 119 114 104
5 101 87 107 119 118
5 92 105 118 119 111
5 97 112 119 118 109

# Cells
12 0 1 2 3 4 5 6 7 8 9 10 11
12 12 13 14 15 16 17 18 19 20 21 22 23
12 24 25 26 27 28 29 30 31 32 33 34 35
12 36 37 38 39 40 41 42 43 44 45 46 47
12 48 49 50 51 52 53 54 55 56 57 58 59
12 60 61 62 63 64 65 66 67 68 69 70 71
12 72 73 74 75 76 77 78 79 80 81 82 83
12 84 85 86 87 88 89 90 91 92 93 94 95
12 96 97 98 99 100 101 102 103 104 105 106 107
12 108 109 110 111 112 113 114 115 116 117 118 119
12 120 121 122 123 124 125 126 127 128 129 130 131
12 132 133 134 135 136 137 138 139 140 141 142 143
12 0 144 145 146 147 148 149 150 151 152 153 154
12 155 156 157 158 159 160 161 162 163 164 165 166
12 167 168 169 170 171 172 173 174 175 176 177 178
12 179 180 181 182 183 184 185 186 187 188 189 190
12 191 192 193 194 195 196 197 198 199 200 201 202
12 203 204 205 206 207 208 209 210 211 212 213 214
12 215 216 217 218 219 220 221 222 223 224 225 226
12 12 227 228 229 230 231 232 233 234 235 236 237
12 155 238 239 240 241 242 243 244 245 246 247 248
12 249 250 251 252 253 254 255 256 257 258 259 260
12 261 262 263 264 265 266 267 268 269 270 271 272
12 24 228 273 274 275 276 277 278 279 280 281 282
12 167 239 283 284 285 286 287 288 289 290 291 292
12 261 293 294 295 296 297 298 299 300 301 302 303
12 254 265 304 305 306 307 308 309 310 311 312 313
12 36 230 314 315 316 317 318 319 320 321 322 323
12 179 241 324 325 326 327 328 329 330 331 332 333
12 249 295 334 335 336 337 338 339 340 341 342 343
12 48 145 273 344 345 346 347 348 349 350 351 352
12 157 168 334 353 354 355 356 357 358 359 360 361
12 203 326 362 363 364 365 366 367 368 369 370 371
12 195 207 305 372 373 374 375 376 377 378 379 380
12 60 275 344 381 382 383 384 385 386 387 388 389
12 191 285 364 390 391 392 393 394 395 396 397 398
12 72 147 314 399 400 401 402 403 404 405 406 407
12 159 180 293 408 409 410 411 412 413 414 415 416
12 84 144 227 315 400 417 418 419 420 421 422 423
12 183 204 262 424 425 426 427 428 429 430 431 432
12 2 49 283 391 433 434 435 436 437 438 439 440
12 14 25 337 353 441 442 443 444 445 446 447 448
12 96 316 383 399 449 450 451 452 453 454 455 456
12 65 100 304 372 457 458 459 460 461 462 463 464
12 108 148 346 381 401 449 465 466 467 468 469 470
12 171 192 250 471 472 473 474 475 476 477 478 479
12 4 73 324 363 480 481 482 483 484 485 486 487
12 16 37 297 408 488 489 490 491 492 493 494 495
12 120 146 229 274 345 417 496 497 498 499 500 501
12 1 85 238 325 480 502 503 504 505 506 507 508
12 40 97 264 424 509 510 511 512 513 514 515 516
12 132 231 276 317 382 450 517 518 519 520 521 522
12 5 109 362 390 434 481 523 524 525 526 527 528
12 28 61 252 471 529 530 531 532 533 534 535 536
12 3 121 240 284 433 502 537 538 539 540 541 542
12 13 86 156 409 488 543 544 545 546 547 548 549
12 75 99 206 425 509 550 551 552 553 554 555 556
12 215 242 287 328 365 392 557 558 559 560 561 562
12 17 133 294 335 443 490 563 564 565 566 567 568
12 51 63 194 472 529 569 570 571 572 573 574 575
12 15 122 158 354 441 543 576 577 578 579 580 581
12 26 50 169 473 530 569 582 583 584 585 586 587
12 98 111 205 373 457 551 588 589 590 591 592 593
12 161 216 298 338 356 411 594 595 596 597 598 599
12 29 136 255 336 444 531 563 600 601 602 603 604
12 39 87 182 410 489 544 605 606 607 608 609 610
12 27 123 170 355 442 576 582 611 612 613 614 615
12 38 74 181 426 510 550 605 616 617 618 619 620
12 62 110 193 374 458 571 588 621 622 623 624 625
12 101 135 263 306 459 511 626 627 628 629 630 631
12 173 219 256 339 357 474 594 632 633 634 635 636
12 41 137 267 296 491 512 564 627 637 638 639 640
12 54 112 197 393 436 523 570 621 641 642 643 644
12 76 88 184 327 482 504 606 616 645 646 647 648
12 52 124 172 286 435 538 583 611 649 650 651 652
12 64 134 251 307 460 532 600 626 653 654 655 656
12 208 218 266 308 375 427 657 658 659 660 661 662
12 185 220 268 299 412 428 595 658 663 664 665 666
12 174 198 221 289 394 475 557 633 667 668 669 670
12 78 113 209 366 483 524 552 589 671 672 673 674
12 55 66 114 348 384 465 572 622 641 675 676 677
12 42 77 90 318 402 420 607 617 645 678 679 680
12 89 125 160 243 503 537 545 577 681 682 683 684
12 30 53 126 277 347 497 584 612 649 685 686 687
12 196 217 253 309 376 476 632 657 667 688 689 690
12 186 210 222 330 367 429 558 659 664 691 692 693
12 162 187 223 244 329 413 559 596 663 691 694 695
12 31 67 138 279 385 517 533 601 653 696 697 698
12 79 102 115 404 451 466 553 590 671 699 700 701
12 18 91 127 232 418 496 546 578 681 702 703 704
12 199 211 224 368 377 395 560 660 668 688 692 705
12 43 103 139 320 452 513 518 628 638 706 707 708
12 163 175 225 245 288 358 561 598 635 669 694 709
12 19 44 140 234 319 492 519 565 637 706 710 711
12 6 92 128 149 419 498 505 539 682 702 712 713
12 226 257 269 300 310 340 597 634 661 665 689 714
12 68 104 141 386 453 461 520 629 654 696 707 715
12 21 33 142 235 278 445 521 566 602 697 710 716
12 9 81 116 152 403 467 484 525 672 699 717 718
12 7 56 129 150 350 438 499 540 650 685 712 719
12 143 258 270 301 311 341 567 603 630 639 655 714
12 69 105 117 387 454 462 469 591 623 676 700 715
12 10 57 118 153 349 437 468 526 642 675 717 719
12 8 80 93 151 405 421 485 506 646 678 713 718
12 20 32 130 233 280 446 500 579 613 686 703 716
12 119 200 212 369 378 396 527 592 624 643 673 705
12 46 82 106 321 406 455 514 554 618 680 701 708
12 22 45 94 236 322 422 493 547 608 679 704 711
12 131 164 176 246 290 359 541 580 614 651 683 709
12 83 189 213 331 370 430 486 555 619 648 674 693
12 34 58 70 281 351 388 534 573 585 677 687 698
12 95 165 188 247 332 415 507 548 609 647 684 695
12 59 177 201 291 397 439 478 575 586 644 652 670
12 47 190 271 302 414 431 494 515 610 620 640 666
12 35 178 259 342 360 447 479 536 587 604 615 636
12 71 202 260 312 379 463 477 535 574 625 656 690
12 23 166 303 343 361 416 448 495 549 568 581 599
12 107 214 272 313 380 432 464 516 556 593 631 662
12 11 248 292 333 371 398 440 487 508 528 542 562
12 154 237 282 323 352 389 407 423 456 470 501 522
