# Generated using Miratope v0.5.0 (https://github.com/galoomba1/miratope-rs)
4OFF

# Vertices, Faces, Edges, Cells
120 2520 1200 720

# Vertices
0.809016994374945 -0.809016994374945 -0.809016994374945 0.809016994374945 
0 -1.61803398874989 0 0 
0 0 -1.61803398874989 0 
0.809016994374945 0 0.5 1.30901699437495 
-0.809016994374945 -0.809016994374945 -0.809016994374945 -0.809016994374945 
-1.30901699437495 0.5 0 -0.809016994374945 
0 -0.809016994374945 1.30901699437495 0.5 
-0.5 1.30901699437495 -0.809016994374945 0 
0 1.30901699437495 0.5 0.809016994374945 
-0.809016994374945 0.5 1.30901699437495 0 
0.809016994374945 -0.809016994374945 0.809016994374945 0.809016994374945 
-0.809016994374945 -0.809016994374945 0.809016994374945 0.809016994374945 
0.809016994374945 0.5 1.30901699437495 0 
-0.809016994374945 -0.809016994374945 -0.809016994374945 0.809016994374945 
0.809016994374945 0.5 -1.30901699437495 0 
-0.809016994374945 0.5 -1.30901699437495 0 
0.809016994374945 1.30901699437495 0 -0.5 
-0.809016994374945 1.30901699437495 0 -0.5 
0.809016994374945 -0.809016994374945 0.809016994374945 -0.809016994374945 
0.809016994374945 -0.809016994374945 -0.809016994374945 -0.809016994374945 
-0.809016994374945 -0.809016994374945 0.809016994374945 -0.809016994374945 
1.30901699437495 0 0.809016994374945 0.5 
1.30901699437495 0 -0.809016994374945 0.5 
-1.30901699437495 0 0.809016994374945 0.5 
-1.30901699437495 0 -0.809016994374945 0.5 
0 0.5 0.809016994374945 1.30901699437495 
0 0.5 -0.809016994374945 1.30901699437495 
-0.809016994374945 0.809016994374945 -0.809016994374945 0.809016994374945 
-0.809016994374945 0.809016994374945 -0.809016994374945 -0.809016994374945 
0 1.30901699437495 0.5 -0.809016994374945 
0 -1.30901699437495 0.5 0.809016994374945 
0 -1.30901699437495 0.5 -0.809016994374945 
0.5 0 1.30901699437495 0.809016994374945 
0.5 0 1.30901699437495 -0.809016994374945 
0.809016994374945 0.809016994374945 -0.809016994374945 0.809016994374945 
0.809016994374945 0.809016994374945 -0.809016994374945 -0.809016994374945 
-0.5 0.809016994374945 0 1.30901699437495 
-0.5 0.809016994374945 0 -1.30901699437495 
-0.5 -0.809016994374945 0 1.30901699437495 
-0.5 -0.809016994374945 0 -1.30901699437495 
-1.30901699437495 0.809016994374945 0.5 0 
-1.30901699437495 -0.809016994374945 0.5 0 
0 0 1.61803398874989 0 
1.30901699437495 0.5 0 -0.809016994374945 
-0.809016994374945 0 -0.5 1.30901699437495 
0.5 1.30901699437495 0.809016994374945 0 
0 -0.809016994374945 -1.30901699437495 0.5 
0 1.30901699437495 -0.5 0.809016994374945 
-0.809016994374945 0.809016994374945 0.809016994374945 -0.809016994374945 
-1.61803398874989 0 0 0 
0 0 0 -1.61803398874989 
0 0.809016994374945 1.30901699437495 0.5 
0.5 -1.30901699437495 -0.809016994374945 0 
-0.809016994374945 0 0.5 1.30901699437495 
1.30901699437495 -0.5 0 -0.809016994374945 
0.5 -0.809016994374945 0 1.30901699437495 
0 0 0 1.61803398874989 
0.5 1.30901699437495 -0.809016994374945 0 
0 -0.809016994374945 1.30901699437495 -0.5 
1.30901699437495 0.5 0 0.809016994374945 
-0.809016994374945 0 0.5 -1.30901699437495 
1.30901699437495 0 0.809016994374945 -0.5 
0.5 0.809016994374945 0 -1.30901699437495 
0.809016994374945 0.809016994374945 0.809016994374945 0.809016994374945 
1.61803398874989 0 0 0 
-0.5 1.30901699437495 0.809016994374945 0 
0 -0.809016994374945 -1.30901699437495 -0.5 
0.809016994374945 0 -0.5 -1.30901699437495 
-1.30901699437495 0.5 0 0.809016994374945 
-1.30901699437495 0 -0.809016994374945 -0.5 
0 0.809016994374945 -1.30901699437495 0.5 
-0.5 -1.30901699437495 0.809016994374945 0 
0.809016994374945 0 -0.5 1.30901699437495 
-1.30901699437495 -0.5 0 -0.809016994374945 
0 1.61803398874989 0 0 
0.809016994374945 0 0.5 -1.30901699437495 
-1.30901699437495 -0.5 0 0.809016994374945 
0 0.809016994374945 1.30901699437495 -0.5 
-0.5 -1.30901699437495 -0.809016994374945 0 
-0.809016994374945 -0.5 1.30901699437495 0 
-0.809016994374945 0.809016994374945 0.809016994374945 0.809016994374945 
0.5 0.809016994374945 0 1.30901699437495 
0.5 -0.809016994374945 0 -1.30901699437495 
1.30901699437495 0.809016994374945 -0.5 0 
1.30901699437495 -0.809016994374945 -0.5 0 
0.809016994374945 0.809016994374945 0.809016994374945 -0.809016994374945 
0 1.30901699437495 -0.5 -0.809016994374945 
0 -1.30901699437495 -0.5 0.809016994374945 
0 -1.30901699437495 -0.5 -0.809016994374945 
-0.5 0 -1.30901699437495 0.809016994374945 
-0.5 0 -1.30901699437495 -0.809016994374945 
1.30901699437495 0 -0.809016994374945 -0.5 
-1.30901699437495 0 0.809016994374945 -0.5 
0 -0.5 0.809016994374945 -1.30901699437495 
0 -0.5 -0.809016994374945 -1.30901699437495 
0.809016994374945 -0.5 1.30901699437495 0 
0.809016994374945 -0.5 -1.30901699437495 0 
-0.809016994374945 -0.5 -1.30901699437495 0 
0.809016994374945 -1.30901699437495 0 0.5 
-0.809016994374945 -1.30901699437495 0 0.5 
1.30901699437495 -0.5 0 0.809016994374945 
-0.809016994374945 0 -0.5 -1.30901699437495 
0 0.809016994374945 -1.30901699437495 -0.5 
0.5 -1.30901699437495 0.809016994374945 0 
-0.809016994374945 1.30901699437495 0 0.5 
1.30901699437495 -0.809016994374945 0.5 0 
0.809016994374945 1.30901699437495 0 0.5 
-1.30901699437495 -0.809016994374945 -0.5 0 
-0.5 0 1.30901699437495 0.809016994374945 
0 0.5 -0.809016994374945 -1.30901699437495 
0 -0.5 -0.809016994374945 1.30901699437495 
-0.5 0 1.30901699437495 -0.809016994374945 
0.809016994374945 -1.30901699437495 0 -0.5 
-1.30901699437495 0.809016994374945 -0.5 0 
1.30901699437495 0.809016994374945 0.5 0 
-0.809016994374945 -1.30901699437495 0 -0.5 
0 -0.5 0.809016994374945 1.30901699437495 
0.5 0 -1.30901699437495 -0.809016994374945 
0 0.5 0.809016994374945 -1.30901699437495 
0.5 0 -1.30901699437495 0.809016994374945 

# Faces
4 1 0 2 4
4 1 0 3 6
5 0 3 8 7 2
5 1 6 9 5 4
4 4 5 7 2
4 8 3 6 9
4 8 7 5 9
4 0 10 11 13
5 10 12 16 14 0
4 10 12 9 11
4 13 15 14 0
5 13 15 17 9 11
4 16 17 9 12
4 17 15 14 16
4 19 4 20 18
4 19 18 21 22
5 20 18 21 25 23
5 4 19 22 26 24
4 4 20 23 24
4 25 26 22 21
4 26 25 23 24
4 28 27 13 4
4 28 27 8 29
5 13 30 32 8 27
5 4 28 29 33 31
4 13 4 31 30
4 8 29 33 32
4 33 32 30 31
4 35 34 0 19
5 35 34 36 40 37
4 0 34 36 38
4 19 35 37 39
5 0 38 41 39 19
4 38 36 40 41
4 40 41 39 37
4 18 1 11 42
4 18 42 45 43
5 1 46 14 43 18
5 11 42 45 47 44
4 11 1 46 44
4 47 14 43 45
4 44 46 14 47
4 48 50 4 49
4 49 48 51 53
5 51 48 50 54 21
5 4 52 55 53 49
4 4 50 54 52
4 21 51 53 55
4 21 54 52 55
4 27 49 11 56
4 56 27 57 59
5 27 49 60 62 57
5 11 56 59 61 58
4 11 49 60 58
4 61 59 57 62
4 58 60 62 61
4 64 63 56 0
5 63 64 67 37 65
4 63 56 68 65
4 0 64 67 66
5 56 0 66 69 68
4 65 37 69 68
4 67 66 69 37
4 64 35 50 18
4 35 70 72 64
5 70 35 50 73 24
5 64 72 38 71 18
4 18 71 73 50
4 72 38 24 70
4 71 38 24 73
4 74 35 2 27
4 74 77 75 35
5 35 75 31 78 2
5 74 27 76 79 77
4 2 27 76 78
4 77 75 31 79
4 76 79 31 78
4 48 80 11 20
5 48 62 83 81 80
4 80 81 55 11
4 48 20 82 62
5 20 82 84 55 11
4 81 83 84 55
4 83 62 82 84
4 63 10 18 85
4 63 47 86 85
5 10 87 89 47 63
5 18 85 86 90 88
4 10 87 88 18
4 86 90 89 47
4 87 88 90 89
4 63 80 27 34
4 34 91 61 63
5 63 61 93 92 80
5 91 34 27 69 94
4 80 92 69 27
4 91 61 93 94
4 93 94 69 92
4 85 48 28 35
5 85 95 98 96 35
4 48 85 95 79
4 28 97 96 35
5 28 48 79 99 97
4 79 95 98 99
4 98 96 97 99
4 74 63 42 48
5 74 102 96 100 63
4 42 103 100 63
4 74 48 101 102
5 48 101 88 103 42
4 103 88 96 100
4 96 88 101 102
4 49 13 1 20
5 49 20 33 45 104
4 20 33 105 1
4 13 49 104 26
5 1 105 59 26 13
4 45 59 105 33
4 45 59 26 104
4 10 64 19 1
4 10 64 106 25
5 10 1 107 68 25
5 64 106 7 90 19
4 1 107 90 19
4 106 7 68 25
4 68 7 90 107
4 56 34 2 13
5 56 108 77 16 34
4 2 109 16 34
4 13 56 108 41
5 2 13 41 60 109
4 77 60 109 16
4 108 41 60 77
4 19 2 28 50
4 19 98 110 2
5 19 50 111 6 98
5 2 110 53 40 28
4 28 50 111 40
4 6 53 110 98
4 6 111 40 53
4 64 85 74 34
4 85 64 112 93
5 85 74 113 73 93
5 64 34 89 78 112
4 74 113 89 34
4 89 113 73 78
4 93 73 78 112
4 74 80 49 28
4 80 32 114 74
5 32 80 49 115 103
5 28 94 54 114 74
4 28 94 115 49
4 32 103 54 114
4 54 94 115 103
4 42 20 50 85
5 42 116 72 83 85
4 85 83 117 50
4 42 20 99 116
5 20 99 46 117 50
4 83 72 46 117
4 116 99 46 72
4 10 56 80 42
5 10 42 118 67 84
4 56 119 84 10
4 80 17 118 42
5 17 80 56 119 102
4 119 102 67 84
4 118 67 102 17
4 21 106 65 42
4 42 21 98 71
5 113 65 42 71 107
5 106 21 98 46 70
4 65 106 70 113
4 98 46 107 71
4 70 46 107 113
4 27 81 51 40
5 100 81 27 97 52
4 40 73 97 27
4 81 51 95 100
5 40 51 95 31 73
4 95 31 52 100
4 52 97 73 31
4 10 63 77 58
4 47 17 77 63
4 10 87 115 58
4 17 47 89 69
5 58 77 17 69 115
4 89 87 115 69
4 49 80 47 15
4 80 47 59 32
4 15 49 115 66
4 103 84 59 32
5 59 47 15 66 84
4 103 115 66 84
4 48 28 57 45
4 45 48 79 32
4 28 57 119 97
5 32 55 119 57 45
4 32 79 99 55
4 99 55 119 97
4 42 48 104 25
4 104 48 101 15
4 25 42 103 55
5 55 25 104 15 46
4 103 88 46 55
4 88 46 15 101
4 63 74 40 108
4 63 100 30 108
4 74 102 69 40
4 30 100 96 78
5 108 30 78 69 40
4 96 78 69 102
4 72 36 108 10
4 72 96 112 10
5 108 10 112 39 92
5 72 36 113 90 96
4 108 92 113 36
4 113 92 39 90
4 96 90 39 112
5 74 70 110 116 51
4 74 51 111 37
4 70 74 37 90
4 116 51 111 71
4 110 78 71 116
5 71 111 37 90 78
4 70 90 78 110
5 28 104 81 22 117
4 104 28 73 23
4 117 88 73 28
4 116 81 22 98
4 116 81 104 23
5 23 73 88 98 116
4 22 98 88 117
4 11 92 65 25
4 11 87 72 25
5 11 87 66 101 92
5 25 65 86 14 72
4 72 14 66 87
4 65 86 101 92
4 86 101 66 14
4 56 80 79 30
4 17 80 79 60
4 56 30 52 119
4 17 60 94 102
5 79 60 94 52 30
4 119 102 94 52
4 64 34 8 12
4 34 8 68 89
4 64 112 58 12
5 12 8 68 41 58
4 112 78 41 58
4 68 89 78 41
4 12 18 98 3
5 18 39 5 65 12
4 18 98 78 39
4 3 12 65 36
5 3 36 24 78 98
4 65 5 24 36
4 5 24 78 39
4 114 34 7 29
5 34 110 30 95 114
4 34 7 24 110
4 95 114 29 111
4 111 95 30 41
5 7 24 41 111 29
4 110 30 41 24
4 2 24 104 57
5 2 52 105 114 57
4 2 24 99 52
4 51 114 105 6
4 114 51 104 57
5 6 51 104 24 99
4 105 52 99 6
4 6 20 118 12
4 20 107 38 6
5 86 118 20 107 15
5 12 6 38 26 106
4 106 12 118 86
4 26 15 86 106
4 26 38 107 15
4 56 32 105 0
4 0 105 82 66
4 56 68 9 32
5 32 9 60 82 105
4 68 69 60 9
4 69 60 82 66
4 4 109 17 49
4 52 91 109 4
4 53 49 17 8
4 55 59 8 53
5 59 91 109 17 8
4 55 52 91 59
4 20 11 68 5
4 11 68 26 55
4 20 5 109 82
4 84 14 26 55
5 68 5 109 14 26
4 82 109 14 84
4 20 9 29 50
4 9 20 99 53
4 50 29 57 117
5 29 9 53 26 57
4 53 99 46 26
4 117 57 26 46
4 27 34 3 53
4 34 91 105 3
4 69 41 53 27
5 3 105 31 41 53
4 94 31 105 91
4 31 94 69 41
5 35 29 51 3 22
4 35 90 46 22
4 35 29 5 90
4 3 51 23 38
4 22 46 38 3
4 51 23 5 29
5 38 46 90 5 23
4 1 38 108 58
4 1 38 89 66
5 58 118 109 66 1
5 108 65 7 89 38
4 108 58 118 65
4 65 118 109 7
4 7 109 66 89
4 74 85 21 81
4 85 21 103 93
4 113 44 81 74
5 21 103 99 44 81
4 113 44 99 73
4 93 103 99 73
4 74 83 119 27
4 27 76 87 119
4 74 83 61 77
5 61 83 119 87 103
4 79 103 61 77
4 79 76 87 103
4 63 80 44 72
4 63 72 84 61
4 80 44 107 92
4 84 61 93 88
5 72 44 107 88 84
4 92 93 88 107
4 100 56 47 83
5 56 76 115 112 100
4 47 113 76 56
4 83 100 112 67
5 47 113 101 67 83
4 113 76 115 101
4 112 115 101 67
4 48 80 76 73
4 80 81 110 76
4 62 48 73 94
4 83 96 110 81
4 62 94 96 83
5 76 110 96 94 73
5 44 23 48 86 70
4 48 93 67 86
4 23 71 93 48
4 23 71 87 44
4 44 87 96 70
4 86 70 96 67
5 67 93 71 87 96
4 83 54 95 63
4 83 63 36 70
5 95 71 76 36 63
5 54 88 97 70 83
4 95 71 88 54
4 70 36 76 97
4 76 97 88 71
4 80 116 95 77
4 77 37 113 80
5 113 80 116 87 97
5 95 112 94 37 77
4 95 116 87 112
4 37 113 97 94
4 87 112 94 97
4 85 37 92 42
4 83 85 37 102
4 116 76 92 42
4 72 89 102 83
4 116 76 89 72
5 76 92 37 102 89
4 80 116 21 45
4 45 80 113 86
5 45 21 84 117 86
4 21 116 87 84
4 97 117 84 87
4 97 117 86 113
4 42 11 115 93
4 11 44 97 115
4 45 62 93 42
4 47 102 62 45
4 44 97 102 47
5 62 102 97 115 93
4 79 49 44 116
4 79 93 101 49
5 49 44 119 117 101
5 100 54 93 79 116
4 100 119 44 116
4 54 117 119 100
4 54 93 101 117
4 56 100 114 8
4 76 40 8 56
5 114 75 60 40 8
4 112 75 114 100
4 40 76 115 60
4 112 115 60 75
4 64 18 118 16
4 18 118 92 71
4 64 16 47 72
5 47 68 92 118 16
4 72 47 68 38
4 38 68 92 71
4 85 54 22 106
5 106 36 23 111 85
4 85 111 31 54
4 106 22 110 36
4 36 110 99 23
5 22 110 99 31 54
4 111 23 99 31
4 74 36 24 28
4 28 24 78 94
4 36 74 114 3
4 114 3 98 54
4 94 78 98 54
4 106 85 67 14
4 85 111 39 67
4 106 36 89 14
4 36 89 107 23
4 111 39 107 23
5 67 39 107 89 14
5 91 75 58 30 0
4 0 89 102 91
4 0 89 76 30
4 102 91 75 37
4 92 58 75 37
4 92 58 30 76
4 99 4 15 44
4 103 82 4 99
5 15 57 43 82 4
4 21 43 57 81
4 21 43 82 103
4 44 15 57 81
4 11 13 52 103
4 9 33 103 11
4 15 13 52 117
4 33 9 17 62
5 33 62 117 52 103
4 17 15 117 62
4 49 9 25 44
4 101 118 9 49
5 59 25 9 118 43
4 25 44 119 59
4 119 59 43 117
4 118 101 117 43
4 13 27 102 66
4 8 16 102 27
4 30 112 66 13
4 8 32 61 16
4 30 112 61 32
5 61 16 102 66 112
4 50 35 114 33
4 35 114 81 70
4 50 33 79 73
5 114 33 79 53 81
4 70 81 53 24
4 24 53 79 73
4 42 23 38 10
4 10 38 46 84
4 5 118 42 23
4 46 84 67 90
4 90 67 118 5
5 43 106 104 5 50
4 43 84 88 50
4 5 107 88 50
4 106 72 84 43
4 44 104 106 72
4 44 104 5 107
4 99 49 27 110
4 110 27 57 22
4 49 99 31 60
4 54 62 57 22
4 62 54 31 60
4 47 119 13 68
4 68 92 115 13
5 119 91 82 115 13
4 16 91 119 47
4 16 91 82 118
4 118 92 115 82
4 1 10 61 82
4 25 45 61 10
4 1 82 101 107
4 45 25 68 17
5 45 61 82 101 17
4 107 101 17 68
4 53 13 119 81
4 53 13 115 79
4 114 91 119 81
4 33 82 91 114
4 82 33 79 115
4 48 86 43 33
4 48 33 6 23
5 43 22 55 6 33
4 70 22 43 86
4 70 22 55 44
4 6 23 44 55
4 16 63 95 75
4 63 16 7 36
5 75 16 7 69 39
4 95 71 39 75
4 36 76 69 7
4 71 39 69 76
4 85 65 7 35
4 95 108 65 85
4 96 89 7 35
4 38 98 95 108
4 98 38 89 96
5 3 64 75 111 108
4 3 110 96 64
4 64 96 94 75
4 110 3 108 76
4 108 76 73 111
4 75 94 73 111
4 85 51 6 18
4 85 51 104 86
4 88 99 6 18
4 90 24 104 86
4 99 88 90 24
4 107 11 56 89
4 39 58 11 107
4 89 56 59 14
4 14 59 61 67
4 61 67 39 58
4 2 28 62 91
4 40 28 62 77
4 2 110 100 91
5 100 91 62 77 32
4 100 110 53 32
4 32 53 40 77
4 69 13 1 39
4 7 26 13 69
4 105 75 39 1
4 59 16 75 105
4 16 59 26 7
4 1 41 111 18
4 29 43 18 111
4 41 1 46 24
4 29 43 14 7
4 14 7 24 46
4 75 19 4 60
4 19 75 114 22
4 60 4 24 40
4 8 26 22 114
4 26 8 40 24
4 31 50 43 105
4 41 5 50 31
4 3 106 43 105
4 3 106 104 53
4 5 41 53 104
4 59 0 19 43
4 0 59 25 38
4 118 39 19 43
4 9 41 38 25
4 41 9 118 39
4 26 0 91 57
4 26 0 30 53
4 9 58 30 53
4 58 9 29 75
4 91 57 29 75
4 41 4 15 68
4 82 58 41 4
4 12 43 57 8
4 82 58 12 43
4 15 68 8 57
4 105 55 46 19
5 105 19 109 29 12
4 46 19 109 15
4 12 25 55 105
4 25 104 29 12
4 104 29 109 15
4 2 22 55 13
4 6 41 13 55
4 43 109 2 22
4 109 43 33 60
4 33 60 41 6
4 30 105 19 78
4 19 78 69 109
4 108 12 105 30
4 29 40 108 12
4 29 40 69 109
4 2 26 106 35
4 106 35 75 12
4 2 26 38 78
4 6 31 75 12
4 31 6 38 78
4 64 14 26 3
4 64 14 109 75
4 3 26 68 108
4 108 68 5 111
4 5 111 75 109
4 20 88 97 49
4 33 54 88 20
4 104 70 97 49
4 83 45 104 70
4 83 45 33 54
4 27 17 45 81
4 27 17 101 97
4 100 61 45 81
4 61 100 52 82
4 97 101 82 52
4 103 20 118 61
4 20 103 87 107
4 83 86 118 61
4 15 119 83 86
4 119 15 107 87
4 65 16 61 42
4 61 42 71 112
4 102 113 65 16
4 102 113 107 66
4 66 107 71 112
4 114 62 102 34
4 34 102 97 110
4 93 95 114 62
4 95 93 115 30
4 115 30 110 97
4 50 90 113 48
4 51 36 113 48
4 50 90 96 54
4 21 72 36 51
4 54 96 72 21
4 64 98 116 63
4 65 23 116 63
4 64 98 88 67
4 65 23 73 37
4 67 88 73 37
4 54 35 34 100
4 100 34 36 116
4 93 37 35 54
4 40 79 116 36
4 40 79 93 37
4 34 96 87 56
4 67 16 34 96
4 108 71 87 56
4 16 67 93 77
4 108 71 93 77
4 18 67 101 20
4 83 21 18 67
4 23 113 101 20
4 47 25 21 83
4 25 47 113 23
4 32 11 92 77
4 11 32 100 87
4 87 100 91 66
4 62 101 92 77
4 101 62 91 66
4 33 51 74 62
4 74 62 117 70
4 116 103 33 51
4 116 103 52 110
4 110 52 117 70
4 57 17 69 2
4 69 2 52 115
4 77 114 105 58
4 57 17 77 114
4 105 58 115 52
4 84 18 12 59
4 66 39 18 84
4 59 12 65 47
4 5 15 47 65
4 39 66 15 5
4 70 28 4 46
4 106 29 28 70
4 4 46 98 31
4 33 21 106 29
4 98 31 33 21
4 95 64 19 31
4 19 31 73 90
4 106 51 95 64
4 51 106 7 40
4 73 90 7 40
4 78 0 10 71
4 10 71 111 12
4 0 78 90 14
4 37 16 12 111
4 37 16 14 90
4 2 94 112 0
4 3 95 112 0
4 94 2 7 37
4 77 8 3 95
4 77 8 7 37
4 117 4 1 84
4 86 5 4 117
4 6 21 84 1
4 45 9 6 21
4 5 86 45 9
4 9 104 28 60
4 60 28 117 82
4 32 81 22 105
4 81 32 9 104
4 117 82 105 22
4 58 32 55 1
4 55 1 66 119
4 32 58 118 45
4 118 45 57 109
4 119 66 109 57
4 10 59 8 108
4 10 59 91 112
4 108 8 17 92
4 112 91 109 39
4 39 109 17 92
4 22 52 94 35
4 29 60 94 35
4 51 79 30 3
4 30 3 22 52
4 60 29 51 79
4 86 50 19 14
4 72 98 19 14
4 111 65 86 50
4 6 25 72 98
4 6 25 65 111
5 12 59 0 1 58
4 2 57 59 0
4 58 1 4 60
5 4 60 29 57 2
4 29 57 59 12
4 60 29 12 58
4 10 61 91 0
5 11 92 118 61 10
5 91 0 13 69 109
4 11 92 69 13
4 91 109 118 61
4 69 109 118 92
5 106 12 18 19 14
4 9 20 18 12
4 14 19 4 15
5 20 9 104 15 4
4 12 9 104 106
4 14 15 104 106
5 81 27 28 62 114
4 13 55 81 27
4 82 4 28 62
5 13 55 105 82 4
4 114 81 55 105
4 62 114 105 82
4 8 34 35 29
5 30 0 34 8 108
5 19 31 111 29 35
4 30 0 19 31
4 111 29 8 108
4 31 30 108 111
5 42 18 67 86 65
4 1 66 67 18
4 42 65 68 11
5 11 1 66 15 68
4 86 65 68 15
4 66 67 86 15
5 48 45 81 44 49
4 50 43 45 48
4 4 46 44 49
5 50 43 22 46 4
4 22 43 45 81
4 81 44 46 22
5 56 100 91 102 27
4 49 101 102 27
4 100 56 11 103
5 49 101 82 103 11
4 103 82 91 100
4 91 102 101 82
4 64 75 77 63
5 56 76 92 77 63
5 39 75 64 0 78
4 78 0 56 76
4 39 75 77 92
4 78 39 92 76
5 35 7 36 3 64
4 50 5 7 35
4 64 3 6 18
5 23 5 50 18 6
4 3 36 23 6
4 5 23 36 7
5 95 54 35 74 51
4 35 54 52 2
4 74 51 53 27
5 2 52 30 53 27
4 95 51 53 30
4 52 54 95 30
4 47 80 48 86
5 11 87 119 47 80
5 20 88 117 86 48
4 87 11 20 88
4 86 47 119 117
4 88 117 119 87
5 113 37 85 63 36
4 38 10 63 36
4 39 18 85 37
5 18 10 38 107 39
4 36 113 107 38
4 113 37 39 107
5 63 95 112 96 34
4 95 63 80 79
4 97 27 34 96
5 80 79 115 97 27
4 112 95 79 115
4 112 96 97 115
4 35 22 21 85
5 85 48 23 116 21
5 110 22 35 28 24
4 48 23 24 28
4 110 22 21 116
4 24 110 116 23
4 72 63 74 70
5 42 71 87 72 63
5 74 48 73 97 70
4 71 42 48 73
4 70 72 87 97
4 71 73 97 87
4 20 118 17 49
5 20 1 84 43 118
5 13 119 57 17 49
4 119 13 1 84
4 119 57 43 84
4 17 57 43 118
5 108 10 64 16 65
4 108 10 1 41
4 16 64 19 109
5 5 41 1 19 109
4 16 65 5 109
4 5 41 108 65
4 114 34 56 32
5 2 94 75 114 34
5 56 32 58 115 13
4 2 94 115 13
4 75 114 32 58
4 58 115 94 75
5 2 19 105 3 26
4 105 19 50 33
4 26 2 28 104
5 50 28 104 51 33
4 33 51 3 105
4 104 51 3 26
5 71 111 85 64 98
4 111 85 74 40
4 98 64 34 110
5 34 110 76 40 74
4 71 111 40 76
4 110 98 71 76
5 74 80 116 100 83
4 80 116 99 49
4 117 28 74 83
5 28 49 99 52 117
4 100 83 117 52
4 99 52 100 116
4 85 106 25 42
5 70 106 85 50 90
5 42 25 44 107 20
4 90 50 20 107
4 25 44 70 106
4 90 107 44 70
4 42 93 112 10
5 56 89 66 112 10
5 42 93 101 113 80
4 113 80 56 89
4 101 113 89 66
4 112 66 101 93
4 85 64 14 86
4 86 5 111 85
4 14 64 98 46
4 107 71 111 5
5 46 14 86 5 107
4 48 33 114 74
4 31 73 48 33
4 114 22 70 74
5 114 33 31 52 22
4 97 70 22 52
4 16 34 100 61
4 89 34 100 87
5 69 89 34 16 37
5 61 100 87 115 93
4 93 37 16 61
4 37 93 115 69
5 42 103 84 83 45
4 45 17 92 42
4 42 103 115 92
4 17 102 83 45
4 84 66 102 83
5 66 102 17 92 115
5 33 21 55 99 20
4 33 20 101 62
4 99 97 101 20
4 55 21 83 119
4 83 62 33 21
5 62 101 97 119 83
4 21 45 118 18
5 46 88 18 21 72
4 88 18 118 101
4 45 47 72 21
5 45 118 101 15 47
4 46 15 47 72
4 96 100 114 35
4 37 35 114 77
5 35 37 73 78 96
5 100 114 77 79 30
4 77 79 73 37
4 30 78 73 79
4 63 34 7 65
4 95 63 65 111
4 90 96 34 7
4 95 112 39 111
5 7 90 39 111 65
4 85 50 31 95
4 106 85 95 3
4 31 50 90 78
4 70 106 3 110
5 110 78 31 95 3
4 48 20 6 51
4 48 86 106 51
4 98 6 20 88
5 6 51 106 22 98
4 22 106 86 117
4 63 16 118 42
4 16 63 72 14
4 42 71 39 118
5 14 16 118 39 66
4 66 39 71 87
4 74 81 32 77
4 102 119 81 74
5 74 102 94 93 77
5 119 52 103 32 81
4 32 77 93 103
4 93 103 52 94
4 2 91 16 7
4 78 112 91 2
5 2 7 40 41 78
5 16 91 112 58 77
4 16 77 40 7
4 40 77 58 41
4 64 0 26 106
4 26 0 78 24
4 75 64 106 29
5 26 24 5 29 106
4 5 29 75 39
4 75 35 28 60
4 35 22 105 75
4 41 24 28 60
4 110 22 105 30
5 41 30 105 75 60
4 29 28 49 9
4 28 29 43 117
4 6 99 49 9
5 6 105 43 29 9
4 105 43 117 52
4 43 18 10 59
4 38 26 59 10
4 18 43 109 39
5 15 26 59 43 109
4 15 109 39 107
4 8 59 119 27
5 27 69 60 77 8
4 69 27 119 66
4 59 61 77 8
5 59 61 82 66 119
4 60 77 61 82
5 11 55 59 45 9
4 11 115 60 9
4 55 11 115 52
4 59 45 62 91
4 62 60 9 45
5 91 62 60 115 52
5 10 25 47 14 84
4 10 58 9 25
4 84 10 58 82
4 9 25 47 17
4 17 47 14 109
5 9 58 82 109 17
4 6 33 82 1
5 26 46 1 6 25
4 1 46 117 82
4 26 57 45 25
4 33 45 25 6
5 33 45 57 117 82
4 28 40 8 57
4 94 91 57 28
5 28 94 31 79 40
5 105 32 8 57 91
4 32 79 40 8
4 79 32 105 31
4 50 111 41 4
4 41 38 46 4
4 50 111 12 43
4 3 22 43 12
5 38 3 12 111 41
4 12 8 56 10
4 12 75 112 10
4 8 56 89 7
5 7 109 75 12 8
4 66 112 75 109
4 50 86 83 54
5 50 54 98 99 73
4 113 73 50 86
4 54 83 72 98
5 113 86 83 72 44
4 98 72 44 99
5 54 62 48 79 103
4 76 113 48 79
4 62 102 113 48
4 103 87 96 54
4 102 62 54 96
5 76 87 96 102 113
4 83 47 65 85
5 93 88 96 83 85
4 92 65 85 93
4 89 96 83 47
5 65 47 89 107 92
4 107 88 96 89
4 74 80 92 37
4 92 71 116 80
4 74 37 67 83
4 112 71 116 100
5 67 112 71 92 37
4 81 83 85 51
4 93 79 51 85
5 99 110 81 51 79
4 99 88 93 79
4 110 96 88 99
4 18 98 116 42
4 96 98 18 67
4 65 42 116 36
4 65 36 70 86
5 96 70 36 116 98
4 74 35 90 113
4 88 54 35 90
4 74 113 23 51
4 51 95 71 23
5 71 88 90 113 23
4 63 100 54 85
4 63 100 110 36
4 94 37 85 54
5 54 94 97 110 100
4 113 36 110 97
4 72 64 95 116
4 93 67 64 95
5 64 72 89 90 67
5 73 76 116 95 93
4 76 89 90 73
4 93 73 90 67
4 101 48 85 67
4 21 84 67 85
4 48 23 107 101
4 116 87 107 23
5 84 87 107 101 67
5 63 61 67 102 47
4 61 103 116 63
4 44 47 63 116
4 88 67 61 103
5 103 116 44 97 88
4 102 97 88 67
4 80 42 21 81
4 81 70 113 80
4 42 21 54 93
5 81 21 54 117 70
4 113 101 117 70
4 34 74 62 91
4 34 91 52 110
4 60 40 74 62
4 76 115 52 110
5 0 38 68 7 14
4 38 0 112 71
4 0 112 67 14
4 7 37 92 68
4 67 14 7 37
4 35 70 46 19
4 35 29 104 70
4 46 19 31 99
4 29 104 23 111
5 46 99 23 104 70
4 54 114 29 50
4 50 29 40 73
5 29 40 53 3 114
4 98 3 53 99
4 53 99 73 40
4 19 78 71 18
4 12 18 71 108
4 78 89 14 19
4 106 36 108 12
5 89 36 108 71 78
4 56 27 40 108
4 37 102 27 40
4 108 95 100 56
4 100 91 75 95
5 40 108 95 75 37
4 104 49 11 25
4 21 25 11 103
4 101 49 104 86
5 21 43 86 104 25
4 101 82 43 86
5 62 17 80 32 61
4 32 55 44 80
4 15 44 80 17
4 84 61 32 55
4 62 117 84 61
5 84 55 44 15 117
4 82 61 42 20
4 20 82 66 107
4 61 42 25 59
4 107 66 119 44
4 30 76 80 32
4 17 69 76 80
4 62 61 112 94
4 69 17 62 94
5 76 69 94 112 30
4 4 117 70 24
5 24 53 6 31 4
4 4 117 54 31
4 6 21 81 53
4 54 31 6 21
4 72 25 12 64
4 64 12 118 67
5 118 5 68 25 12
4 68 25 72 89
4 90 5 68 89
4 23 38 1 20
4 118 20 23 65
4 38 72 84 1
5 65 23 38 72 106
4 65 106 43 118
4 48 79 53 104
4 48 62 57 104
5 57 22 55 53 104
4 54 22 55 103
4 55 53 79 103
4 58 11 80 77
4 80 77 16 47
4 58 112 87 11
4 119 91 112 87
5 56 68 17 16 59
4 59 56 87 84
4 68 107 87 56
4 84 59 16 67
4 17 101 67 16
4 57 45 80 27
4 80 45 33 79
4 57 27 97 117
4 117 82 115 97
4 18 84 117 50
4 6 55 84 18
4 50 117 15 5
4 23 5 15 44
4 112 64 35 94
4 94 35 7 69
4 112 30 3 64
4 76 36 3 30
4 98 19 75 95
5 19 98 38 24 90
4 90 19 75 37
4 24 40 108 38
4 37 90 24 40
4 36 34 2 24
4 36 51 114 34
4 24 73 94 2
4 51 111 75 114
5 24 73 111 51 36
4 21 98 19 43
4 90 19 43 86
4 21 25 38 98
4 38 25 104 24
4 61 63 108 58
4 63 108 68 47
5 58 39 69 68 108
4 69 102 47 68
4 102 67 39 69
5 49 53 32 33 60
4 53 110 97 49
4 60 94 97 49
4 33 54 100 32
4 54 33 60 94
4 56 59 105 30
4 68 41 30 56
4 17 16 75 60
4 60 41 68 17
4 38 6 105 0
4 14 43 105 0
4 7 68 9 29
4 6 9 68 38
5 13 26 8 9 41
4 26 22 52 13
4 41 31 52 13
4 8 9 33 114
4 31 33 9 41
4 19 22 55 1
4 22 19 109 57
4 55 1 41 53
4 5 104 57 109
4 13 66 14 26
4 39 66 13 41
4 9 118 16 8
4 14 16 8 26
4 2 109 17 27
4 53 9 17 27
4 2 109 82 52
4 30 58 82 52
4 1 11 32 105
4 68 8 32 11
4 1 66 91 105
4 57 15 66 91
4 4 5 68 13
4 25 55 13 68
4 5 118 82 4
4 105 12 118 82
4 53 26 15 49
4 49 15 109 60
4 33 43 59 32
4 26 53 32 59
4 3 53 13 0
4 0 91 114 3
4 53 13 69 40
4 29 109 91 114
4 24 4 109 7
4 31 75 109 4
4 12 6 53 8
4 8 7 24 53
4 39 69 2 19
4 39 19 105 58
4 68 26 2 69
4 58 105 3 108
4 104 45 42 23
4 103 99 23 42
4 83 70 46 84
4 46 84 103 99
4 49 48 93 115
4 93 48 45 61
4 115 87 44 49
4 81 100 87 44
4 11 10 72 44
4 83 61 10 72
4 11 92 113 44
4 113 86 118 92
4 87 10 64 96
4 10 108 76 87
4 96 64 16 102
4 65 113 76 108
4 28 73 76 27
4 27 81 116 76
4 73 93 62 28
4 116 95 114 81
4 21 18 111 51
4 73 88 18 111
4 46 24 36 72
4 73 88 46 24
4 96 72 106 35
4 37 35 106 65
4 96 72 38 78
4 78 38 23 73
4 36 40 28 70
4 94 28 70 96
4 116 79 31 98
4 94 96 98 31
4 77 108 36 74
4 102 89 36 74
4 78 94 93 71
4 102 89 78 94
4 25 10 71 23
4 88 84 10 71
4 90 14 47 113
4 14 90 88 84
4 56 119 83 63
4 77 62 83 63
4 119 97 76 56
4 101 97 76 92
4 28 97 88 50
4 97 44 104 28
4 88 50 33 103
4 116 51 104 44
4 30 79 49 13
4 30 100 119 13
4 17 77 79 49
4 57 119 100 114
4 107 1 0 89
4 47 89 0 59
4 107 1 58 92
4 58 92 65 12
4 33 20 5 29
4 20 5 24 99
4 55 26 106 21
4 99 24 26 55
4 2 22 106 7
4 2 22 98 78
4 51 40 41 6
4 98 78 41 6
4 12 3 34 16
4 3 34 89 38
4 41 69 89 38
4 37 111 41 69
4 27 8 3 110
4 27 110 78 69
4 95 77 60 31
4 31 60 69 78
4 5 107 11 9
4 55 46 107 11
4 45 86 14 59
4 46 55 59 14
4 52 4 20 103
4 103 20 9 32
4 52 4 15 119
4 104 81 119 15
4 13 15 47 56
4 101 15 13 115
4 47 56 32 45
4 58 118 101 115
4 66 0 34 102
4 8 17 102 34
4 0 66 115 30
4 30 115 92 108
4 2 4 99 110
4 79 99 4 60
4 110 2 57 81
4 51 29 57 81
4 6 111 39 1
4 1 39 90 46
4 25 65 7 26
4 90 46 26 7
4 4 50 18 1
5 58 1 18 71 112
5 4 60 94 73 50
4 60 94 112 58
4 73 71 112 94
4 4 13 11 20
5 11 20 23 71 92
5 4 24 78 69 13
4 24 78 71 23
4 92 71 78 69
4 18 20 48 85
5 18 12 75 95 85
5 48 79 60 9 20
4 12 75 60 9
4 95 75 60 79
4 19 35 28 4
5 37 102 62 28 35
5 66 39 19 4 82
4 62 82 66 102
4 37 39 66 102
4 19 0 10 18
5 0 30 100 87 10
5 18 19 31 54 88
4 100 30 31 54
4 87 100 54 88
4 11 49 48 42
5 48 51 111 65 42
5 49 53 41 68 11
4 111 51 53 41
4 41 68 65 111
4 50 48 74 35
5 50 43 109 75 35
5 77 17 45 48 74
4 45 17 109 43
4 17 77 75 109
4 2 27 49 4
5 7 89 102 27 2
5 4 49 101 107 5
4 89 7 5 107
4 101 107 89 102
4 11 1 0 56
5 1 46 98 78 0
5 76 56 11 44 116
4 46 98 116 44
4 98 78 76 116
4 18 64 63 42
5 63 100 114 3 64
5 42 18 6 33 103
4 114 3 6 33
4 100 103 33 114
4 64 0 2 35
5 67 83 54 35 64
5 119 66 0 2 52
4 54 83 119 52
4 66 119 83 67
4 28 48 80 27
5 80 27 8 68 47
5 29 5 86 48 28
4 29 5 68 8
4 68 47 86 5
4 11 10 63 80
5 63 80 81 51 36
5 11 55 6 38 10
4 81 55 6 51
4 36 51 6 38
4 13 0 34 27
5 0 14 72 96 34
5 27 13 15 44 97
4 15 44 72 14
4 72 96 97 44
4 34 63 85 35
5 63 85 21 45 61
5 34 91 57 22 35
4 21 45 57 22
4 61 45 57 91
4 27 56 63 74
5 59 25 72 63 56
5 74 27 57 104 70
4 104 57 59 25
4 70 104 25 72
4 50 20 49 28
5 40 69 17 49 28
5 50 111 39 118 20
4 118 39 69 17
4 111 40 69 39
4 20 1 10 42
5 116 95 108 10 42
5 31 99 20 1 41
4 108 95 31 41
4 116 95 31 99
4 13 2 19 1
5 90 96 94 2 19
5 1 13 115 87 107
4 96 90 107 87
4 94 96 87 115
4 64 19 50 85
5 85 50 33 62 93
5 64 19 105 91 112
4 105 91 62 33
4 93 62 91 112
4 56 10 64 34
5 110 34 56 119 81
5 64 98 21 84 10
4 84 21 81 119
4 21 98 110 81
4 2 28 74 34
5 34 16 47 83 74
5 2 28 117 15 109
4 83 47 15 117
4 16 47 15 109
4 74 85 42 80
5 114 74 85 106 29
5 32 80 42 25 9
4 32 9 29 114
4 106 29 9 25
4 13 56 80 49
5 49 80 113 23 104
5 38 26 13 56 89
4 104 26 38 23
4 113 23 38 89
4 4 31 79 49
4 4 31 111 5
5 31 111 71 93 79
4 71 93 101 107
4 101 82 33 48
5 48 101 92 37 73
5 33 82 58 75 31
4 92 58 82 101
4 31 75 37 73
4 88 20 5 90
5 82 115 93 88 20
4 88 90 37 93
5 37 69 109 5 90
4 109 69 115 82
4 92 42 18 39
4 39 18 6 41
4 103 33 60 115
5 41 60 115 92 39
4 101 20 1 66
4 66 1 41 69
4 99 31 94 97
5 94 69 66 101 97
4 109 19 18 118
4 109 19 31 60
4 101 62 54 88
5 62 101 118 109 60
5 11 103 79 30 58
4 103 11 107 88
4 103 79 73 88
4 30 58 39 78
5 73 88 107 39 78
4 50 54 103 20
4 111 50 54 95
5 95 54 103 61 112
4 39 112 61 118
4 52 117 50 31
5 50 90 67 101 117
4 112 78 90 67
5 78 31 52 115 112
4 115 52 117 101
4 82 105 6 20
5 98 6 105 30 95
4 88 98 95 93
4 105 82 115 30
4 99 4 19 98
4 19 39 71 98
5 98 99 103 87 71
4 66 87 103 82
5 1 84 103 52 105
4 84 1 39 67
4 94 75 105 52
4 67 93 103 84
5 67 93 94 75 39
4 73 93 42 23
5 42 118 58 77 93
4 40 73 93 77
4 41 5 118 58
5 40 73 23 5 41
4 48 93 94 28
4 28 94 75 29
4 86 5 39 67
5 97 113 90 24 28
4 28 60 115 97
4 97 113 92 115
4 39 90 24 41
4 115 49 9 58
5 115 76 73 99 49
5 9 58 108 111 6
4 58 115 76 108
4 111 73 99 6
4 78 2 28 73
4 2 109 39 78
4 117 15 107 88
5 82 43 18 67 61
4 67 18 111 37
4 67 61 77 37
5 77 37 111 29 60
4 43 82 60 29
4 11 115 112 10
4 78 38 10 112
4 52 55 6 31
4 58 10 64 75
4 75 31 98 64
4 84 21 33 82
4 0 1 82 91
4 94 91 0 78
4 117 46 98 54
5 91 82 117 54 94
5 10 61 32 105 12
4 61 93 71 10
4 105 31 111 12
4 93 79 32 61
4 52 4 41 30
5 52 97 88 46 4
5 71 38 41 30 76
4 71 88 46 38
4 97 76 30 52
4 96 35 50 88
4 75 112 96 35
4 84 66 109 43
5 96 88 84 66 112
4 86 50 4 15
4 17 60 4 15
5 15 86 113 102 17
4 73 94 102 113
4 48 113 107 20
4 68 9 20 107
4 79 60 69 76
5 68 69 76 113 107
4 5 50 85 65
4 9 33 50 5
5 65 5 9 17 92
4 93 92 17 62
4 21 55 1 18
4 18 21 116 71
5 116 21 55 32 100
4 112 58 32 100
5 30 110 99 55 13
4 55 13 66 84
4 55 84 88 99
4 112 30 110 96
4 43 22 98 18
4 96 67 61 100
5 96 98 22 52 100
4 82 52 22 43
4 32 11 20 33
4 23 51 33 20
5 33 51 95 77 32
4 71 92 77 95
4 117 86 85 54
5 85 37 16 118 86
4 94 91 16 37
4 118 82 117 86
4 49 99 46 15
4 66 115 76 89
5 15 66 89 90 46
4 99 73 90 46
4 1 6 53 13
4 1 107 23 6
5 23 6 53 79 116
4 87 116 79 115
4 109 14 46 4
4 97 102 91 52
5 67 14 109 91 102
4 46 88 67 14
4 118 43 21 42
4 54 114 77 93
5 54 114 105 43 21
4 58 105 43 118
5 113 74 40 7 65
4 113 74 62 101
4 65 113 101 118
4 60 109 7 40
4 73 48 104 24
5 68 15 104 24 7
4 24 7 37 73
4 15 68 92 101
4 60 49 80 77
4 49 60 29 104
4 111 23 113 37
5 56 32 53 3 108
4 103 87 56 32
4 98 3 108 71
4 99 103 32 53
5 22 117 84 14 19
4 110 22 19 78
4 117 97 110 22
4 89 14 84 87
5 89 78 110 97 87
4 18 84 83 85
4 95 100 83 85
4 75 91 59 12
5 83 100 91 59 84
4 58 12 25 11
5 21 51 3 12 25
4 51 79 103 21
4 12 3 30 58
4 16 75 19 14
4 117 62 114 22
5 61 16 75 114 62
4 16 61 84 14
4 0 2 24 38
4 38 0 66 107
4 52 99 44 119
5 24 99 44 107 38
4 80 42 71 76
4 71 38 25 42
4 32 9 41 30
4 13 119 117 4
4 102 69 13 119
5 119 102 96 70 117
4 24 78 96 70
4 64 12 29 35
4 33 54 35 29
5 118 45 33 29 12
4 83 67 118 45
4 3 105 1 38
4 3 105 52 110
5 116 72 38 3 110
4 116 103 84 72
5 59 0 3 22 55
4 59 0 112 61
4 103 61 59 55
4 3 95 54 22
4 64 72 46 19
4 64 112 87 72
5 72 87 119 55 46
4 105 55 119 91
4 7 29 50 90
5 16 7 29 57 17
4 7 16 67 90
4 57 17 101 117
4 80 92 118 45
5 92 108 40 79 80
4 92 118 12 108
4 29 40 79 33
4 41 13 27 40
4 13 41 5 15
4 73 97 44 23
5 14 7 35 70 86
4 70 97 94 35
4 69 66 14 7
4 101 97 70 86
4 79 99 44 80
4 107 92 108 38
4 99 79 40 24
4 62 48 42 61
4 48 51 114 62
4 75 16 65 111
4 2 19 43 57
4 62 57 2 94
5 57 43 86 83 62
4 86 83 96 90
4 63 85 111 108
4 85 111 6 21
4 58 9 45 61
4 11 87 97 49
4 87 11 68 89
4 110 53 41 78
4 63 95 30 56
4 98 72 63 95
4 105 59 25 6
4 34 114 105 0
4 114 54 96 34
4 14 72 21 43
4 100 56 13 52
4 100 96 89 56
4 22 26 38 98
4 74 37 69 27
4 69 27 57 109
4 5 90 70 104
4 37 40 51 85
4 37 16 8 40
5 9 104 51 40 8
4 118 86 104 9
5 24 53 27 76 36
4 76 92 17 27
4 36 65 92 76
4 9 5 24 53
4 34 89 90 35
4 34 91 66 89
4 46 22 57 15
4 30 13 68 108
4 23 99 55 25
5 36 23 25 68 108
4 108 30 110 36
5 64 16 59 43 106
4 77 95 64 16
4 59 16 77 32
4 43 33 51 106
4 74 102 67 85
4 74 102 91 114
4 14 109 29 106
5 65 12 8 77 63
4 77 63 116 79
4 12 65 23 6
4 53 79 77 8
5 46 26 2 110 70
4 76 110 2 69
4 107 46 26 68
4 113 70 110 76
4 91 59 26 2
4 26 46 84 59
4 70 83 100 110
4 26 0 10 25
4 10 87 44 25
4 100 81 53 30
5 26 53 81 44 25
4 10 72 106 12
4 106 22 105 12
5 81 22 106 72 83
4 83 61 32 81
4 64 96 70 106
4 119 59 16 102
4 43 106 70 117
4 42 45 59 10
4 45 81 116 42
5 114 8 59 45 81
4 95 114 8 108
4 53 27 119 55
4 72 87 76 36
4 53 24 46 55
4 28 104 106 35
4 104 45 62 28
5 45 104 106 65 47
4 37 102 47 65
4 49 44 70 28
4 44 49 17 47
4 89 36 40 69
5 47 89 36 70 44
4 74 36 23 48
4 45 25 23 48
4 77 17 68 108
4 26 57 28 24
5 14 26 57 119 47
4 119 47 113 97
4 26 14 90 24
4 63 65 86 83
4 65 12 43 86
4 57 8 77 62
4 11 9 8 56
4 11 9 104 44
4 116 51 40 76
4 63 47 14 64
4 63 100 119 47
4 57 26 3 114
4 3 36 89 0
4 44 55 59 47
4 3 22 70 36
4 8 34 100 32
5 34 8 26 106 36
4 21 106 36 116
4 32 8 26 55
4 2 22 81 27
4 83 81 27 102
4 106 72 89 7
4 34 3 51 74
4 51 21 83 74
4 12 25 47 16
4 110 27 80 116
4 80 116 72 47
4 3 8 68 38
4 114 8 7 35
4 8 59 14 7
4 86 70 81 45
4 68 7 34 56
4 56 119 15 68
4 104 24 110 81
4 56 47 65 108
4 108 65 106 3
4 104 53 32 45
4 36 113 102 34
4 86 113 36 106
4 15 26 8 17
4 17 80 63 16
4 80 17 57 81
4 7 36 51 29
4 40 53 81 74
4 113 65 25 44
4 53 40 7 26
5 54 93 67 18 50
5 4 52 115 66 1
4 54 93 115 52
4 66 115 93 67
5 13 30 76 87 11
5 73 31 4 20 88
4 31 73 76 30
4 88 73 76 87
5 48 62 77 37 85
5 20 82 58 39 18
4 77 62 82 58
4 39 58 77 37
5 19 14 67 96 35
5 28 97 101 15 4
4 15 101 67 14
4 97 101 67 96
5 18 21 103 61 10
5 52 22 19 0 91
4 103 21 22 52
4 61 91 52 103
5 49 60 40 73 48
5 11 42 71 108 58
4 58 108 40 60
4 73 71 108 40
5 102 74 35 7 16
5 48 101 118 5 50
4 118 5 7 16
4 118 101 102 16
5 27 49 44 113 76
5 90 78 2 4 46
4 46 90 113 44
4 113 76 78 90
5 56 0 3 110 100
5 1 6 99 103 11
4 6 3 110 99
4 103 100 110 99
5 45 42 63 77 32
5 75 64 18 43 105
4 32 45 43 105
4 77 32 105 75
5 35 2 57 117 70
5 64 0 59 84 72
4 59 84 117 57
4 84 72 70 117
5 92 80 48 23 65
5 7 69 27 28 24
4 7 24 23 65
4 65 92 69 7
5 10 12 3 95 63
5 11 80 79 53 9
4 12 9 53 3
4 95 3 53 79
5 36 34 27 81 70
5 55 13 0 38 46
4 81 70 46 55
4 36 70 46 38
5 47 59 8 34 63
5 35 85 86 43 29
4 8 59 43 29
4 86 43 59 47
5 63 74 51 106 65
5 68 56 27 53 26
4 51 106 26 53
4 65 106 26 68
5 50 90 37 94 28
5 49 115 92 107 20
4 107 92 37 90
4 115 92 37 94
5 1 105 30 112 10
5 93 42 20 33 79
4 33 79 30 105
4 79 93 112 30
5 1 84 88 98 19
5 2 13 119 97 110
4 84 119 97 88
4 98 110 97 88
5 85 64 16 61 83
5 50 19 109 82 117
4 83 117 82 61
4 109 16 61 82
5 106 64 34 114 22
5 25 55 32 56 10
4 55 32 114 22
4 106 22 55 25
5 34 2 26 14 89
5 74 113 86 104 28
4 86 104 26 14
4 86 113 89 14
5 42 85 111 12 118
5 74 80 17 8 40
4 40 8 12 111
4 12 118 17 8
5 56 80 116 36 108
5 13 49 99 24 41
4 36 108 41 24
4 24 99 116 36
4 41 1 82 60
5 71 107 1 41 78
5 93 101 82 60 94
4 41 60 94 78
4 20 4 109 118
4 67 88 20 118
5 37 75 109 118 67
4 50 73 78 19
4 73 97 117 50
5 115 97 73 78 69
5 50 111 75 60 33
4 111 50 88 71
4 112 71 111 75
5 103 115 112 71 88
5 94 112 39 19 31
4 39 107 46 19
4 39 107 87 112
5 99 97 87 107 46
5 62 91 75 35 54
4 75 39 90 35
4 75 39 66 91
5 101 88 90 39 66
4 20 99 98 18
4 20 82 52 99
5 98 78 30 52 99
4 43 33 31 19
5 62 33 43 118 61
4 94 31 33 62
4 4 2 91 82
4 84 82 4 46
5 84 67 112 91 82
4 1 58 75 19
4 58 1 84 61
5 61 93 95 75 58
4 0 78 31 105
5 66 0 78 96 87
5 54 31 105 82 103
4 78 31 54 96
4 88 18 64 96
4 18 88 117 43
5 94 96 88 117 52
4 50 31 79 48
4 48 79 115 101
5 58 41 31 79 115
5 69 39 5 4 60
4 60 62 117 4
5 86 67 102 62 117
4 60 69 102 62
4 49 101 66 13
4 49 101 88 99
4 11 92 39 1
4 93 103 11 92
5 39 92 93 73 111
5 13 69 89 107 15
4 94 52 13 69
4 69 89 96 94
4 93 85 35 94
4 85 86 101 93
5 71 95 31 6 18
4 71 18 84 87
4 87 100 95 71
5 52 55 84 87 100
5 85 95 114 33 21
4 67 85 95 112
4 114 91 112 95
5 64 98 54 100 112
4 14 64 112 66
4 112 66 119 100
5 46 14 66 119 117
4 103 42 85 54
4 103 82 118 42
4 112 0 13 115
4 115 103 55 13
4 54 94 2 22
5 109 66 102 94 2
5 54 83 84 43 22
4 94 54 83 102
4 109 5 24 2
5 73 113 107 5 24
4 109 5 107 66
4 23 5 4 99
5 23 99 79 76 71
4 23 5 39 71
5 109 29 28 62 17
4 28 73 111 29
4 111 39 109 29
4 12 6 98 64
5 12 58 32 33 6
4 6 33 54 98
4 1 46 72 10
4 1 46 22 105
5 46 22 110 96 72
4 105 19 35 114
4 59 105 19 14
5 114 105 59 61 100
4 6 18 118 9
5 77 92 118 9 60
4 9 6 31 60
4 28 57 43 50
4 50 43 14 90
5 14 16 91 57 43
4 24 4 1 38
4 24 4 52 110
5 38 89 76 110 24
4 41 58 10 38
5 87 116 98 38 10
4 41 38 98 31
4 89 0 19 90
4 22 70 90 19
5 89 90 70 97 102
4 18 12 29 50
4 12 18 67 16
5 29 12 16 77 114
4 48 86 15 49
4 86 48 73 90
5 90 7 109 15 86
4 41 4 28 40
4 28 40 76 97
5 92 68 41 40 76
5 20 9 41 111 23
4 9 20 101 17
4 17 9 41 69
5 69 17 101 113 37
4 55 11 42 21
4 11 55 105 58
5 98 21 55 105 3
4 34 100 52 2
4 52 55 26 2
4 106 21 54 35
5 45 21 106 12 59
4 21 45 62 54
4 10 18 111 108
4 77 61 10 108
5 51 79 77 108 111
4 67 64 34 102
4 67 86 106 64
5 119 44 72 89 56
4 30 78 89 56
4 78 89 72 98
4 20 23 116 103
5 32 30 95 116 103
4 116 95 111 23
4 15 66 0 26
5 26 15 44 70 24
4 15 44 87 66
5 57 114 74 83 45
4 114 74 37 75
4 114 75 109 57
4 30 0 64 95
4 32 59 0 30
4 84 10 63 83
4 12 43 84 10
4 98 3 34 96
5 34 96 83 119 91
4 98 96 83 21
4 37 35 2 69
4 35 37 113 70
4 42 20 5 65
4 37 93 42 65
5 5 65 37 40 29
5 11 68 38 23 44
4 69 115 11 68
4 69 78 38 68
4 27 119 117 28
4 28 117 46 24
4 53 6 20 49
4 49 115 30 53
5 108 38 6 53 30
4 45 86 50 33
4 45 17 60 33
5 16 65 86 45 17
4 34 7 109 91
4 109 15 119 91
5 51 29 9 45 48
4 48 51 95 93
4 95 75 29 51
4 1 55 44 107
5 116 110 53 55 44
4 71 107 44 116
5 116 42 25 6 51
4 116 42 61 100
4 51 114 100 116
4 63 16 91 100
5 100 63 72 21 81
4 100 91 57 81
4 10 59 119 87
5 26 59 119 81 22
4 119 81 116 87
5 49 104 5 68 17
4 17 102 97 49
4 102 89 68 17
4 74 28 60 77
4 77 92 113 74
4 113 80 11 107
4 79 73 113 80
5 47 15 57 27 102
4 96 102 27 110
4 102 96 72 47
4 10 71 76 56
4 79 32 56 76
4 61 62 74 63
4 63 61 118 65
4 83 70 28 62
5 14 106 70 83 47
4 17 62 83 47
4 32 80 48 33
4 92 58 32 80
4 56 87 97 27
4 99 97 27 53
4 0 56 47 14
4 14 0 3 106
4 63 72 38 108
4 38 6 21 72
4 3 64 85 51
4 64 3 8 16
5 51 3 8 32 81
4 74 81 22 35
4 26 7 35 22
4 25 21 85 65
4 33 21 25 9
5 65 108 8 9 25
4 13 26 25 11
4 26 13 30 3
5 72 25 26 3 36
4 57 29 40 27
4 29 5 15 57
4 13 15 104 53
5 36 23 104 53 40
4 15 107 23 104
4 104 51 79 49
4 111 5 104 51
4 7 68 13 2
4 2 110 36 7
5 68 47 113 36 7
4 85 48 104 106
4 7 37 85 106
5 8 57 104 106 7
4 68 92 42 25
4 68 25 6 41
4 83 72 36 74
4 25 72 83 45
4 34 110 116 63
4 34 110 53 8
4 56 80 45 59
4 59 12 108 56
4 56 119 57 8
4 119 57 104 44
5 81 104 25 47 80
4 81 114 77 80
4 114 81 104 29
4 44 11 32 81
4 81 51 23 44
4 34 16 17 27
4 34 16 65 36
4 89 76 80 47
4 89 38 25 47
4 36 63 42 23
4 40 77 63 36
4 74 70 44 80
4 74 70 24 40
4 47 113 48 45
4 9 45 47 68
4 8 27 49 9
4 27 8 108 76
5 1 4 109 43 105
5 24 7 106 3 38
4 7 106 43 109
5 11 58 82 66 13
5 43 12 25 26 14
4 43 82 66 14
5 18 43 86 5 20
5 98 99 24 70 22
4 70 24 5 86
5 4 28 57 22 52
4 8 57 22 3
5 8 40 41 30 3
5 3 12 75 19 0
4 37 75 12 65
5 37 90 89 36 65
5 42 118 101 107 11
5 21 43 117 46 55
4 117 46 107 101
5 50 117 70 104 48
4 53 104 70 110
5 31 79 53 110 52
5 52 115 49 27 119
5 8 59 105 58 9
4 105 52 119 59
5 56 108 58 112 0
5 47 65 118 67 14
4 58 118 67 112
5 18 64 106 65 111
4 73 111 65 113
5 88 73 113 70 96
5 114 35 2 110 3
4 77 114 3 108
5 37 77 108 76 69
5 48 80 44 97 101
5 52 82 33 32 55
4 52 97 44 55
5 92 65 63 10 71
5 101 88 84 83 86
4 88 101 92 71
5 27 34 100 30 76
4 58 30 100 61
5 58 92 17 16 61
5 85 35 70 36 51
4 76 79 51 36
5 76 97 94 93 79
5 74 63 116 76 113
5 61 103 115 101 62
4 115 103 116 76
5 20 82 117 15 49
5 22 105 6 53 26
4 22 26 15 117
5 12 10 1 39 118
5 46 90 86 106 72
4 86 118 39 90
5 13 2 91 105 30
5 12 16 7 68 108
4 12 105 91 16
5 22 106 29 50 19
4 36 106 29 40
5 40 73 78 110 36
5 36 108 95 64 34
4 92 108 95 93
5 102 113 92 93 67
5 28 74 81 110 97
4 110 30 32 81
5 30 115 60 77 32
5 85 42 23 113 86
5 54 117 97 99 103
4 99 23 113 97
5 115 92 80 56 87
5 45 118 82 84 59
4 84 87 115 82
5 18 67 90 107 71
5 21 83 70 44 116
4 90 67 83 70
4 34 27 28 35
5 31 54 35 28 73
5 47 68 11 10 59
4 47 102 91 59
5 115 69 102 91 112
5 15 57 59 55 13
4 62 101 15 57
5 32 53 27 57 114
4 57 114 54 117
5 55 99 49 104 81
4 83 86 104 81
5 102 16 63 56 89
4 102 94 75 16
5 30 95 75 94 78
5 112 39 37 16 64
4 47 16 37 113
5 113 107 87 72 47
4 64 35 74 63
5 64 98 78 90 35
4 28 74 85 50
5 98 88 50 85 21
5 66 87 10 61 67
5 86 45 25 44 15
4 45 86 67 61
5 17 69 13 56 8
4 17 62 114 8
5 52 94 62 114 100
5 38 10 64 14 89
5 69 41 58 75 109
4 14 89 69 109
5 5 39 19 14 7
5 98 72 36 23 71
4 36 7 14 72
4 2 19 64 34
5 19 31 41 24 2
4 2 35 50 4
5 6 33 50 4 99
5 15 107 1 84 14
5 104 106 21 6 23
4 14 106 21 84
5 1 41 68 26 0
4 68 26 57 17
5 82 60 17 57 91
5 8 26 2 109 29
4 33 82 109 29
5 4 46 26 104 5
4 104 5 118 45
5 53 24 28 29 51
4 51 29 43 21
5 34 7 69 78 0
5 114 105 31 60 29
4 7 69 60 29
4 18 19 35 85
5 38 6 18 19 46
5 16 59 0 66 109
4 65 16 59 25
5 107 5 65 25 38
5 100 81 80 79 103
4 100 81 70 96
5 56 119 91 61 32
4 119 91 94 97
5 11 103 84 119 44
4 113 102 119 44
5 100 112 93 77 63
5 47 17 101 66 119
4 77 93 101 17
5 27 102 62 77 80
4 95 77 62 54
5 95 116 110 96 54
4 48 85 63 80
5 63 72 96 67 85
5 71 95 85 37 73
5 97 102 83 100 87
4 37 73 97 102
4 34 56 80 74
5 74 37 94 96 34
5 80 47 83 61 42
4 96 83 61 112
5 71 112 96 89 76
5 87 116 42 93 88
5 119 117 62 45 81
4 88 93 62 117
5 45 17 49 11 32
4 100 32 45 83
4 48 74 27 49
5 83 74 48 93 54
4 0 56 27 2
5 60 40 27 2 94
5 18 84 72 25 42
4 84 72 89 66
5 89 68 92 39 66
5 111 23 24 90 50
4 96 110 24 90
5 111 31 98 3 51
4 94 37 111 31
4 85 64 10 42
5 75 91 34 8 77
4 8 77 92 68
4 20 48 28 4
5 21 45 48 20 103
5 4 60 9 53 13
4 81 53 9 45
5 104 9 33 43 57
4 84 43 33 103
4 109 66 115 60
5 114 95 79 40 74
4 95 114 22 98
5 20 88 46 44 23
4 44 47 65 23
4 48 42 18 50
5 81 51 33 54 22
4 51 33 60 40
4 32 9 118 61
5 9 118 109 15 68
5 20 1 55 25 9
4 55 25 47 119
4 49 28 2 13
5 49 28 62 33 79
4 88 54 22 46
4 0 34 63 10
5 108 111 39 78 38
4 78 96 67 39
5 35 75 111 40 7
4 89 76 40 7
5 51 116 99 73 48
4 116 51 106 72
4 15 17 92 107
4 31 52 91 75
4 39 5 9 58
4 23 25 12 111
4 111 6 105 75
4 46 98 3 26
4 38 46 15 68
4 13 4 19 0
4 6 55 59 12
5 29 12 6 41 5
4 20 50 19 1
4 41 9 104 24
4 26 8 108 38
4 78 41 5 90
4 0 1 18 64
4 116 79 33 21
4 79 60 82 103
4 49 80 42 20
4 42 63 56 11
4 69 115 79 40
4 71 93 54 98
4 87 89 36 116
4 78 110 100 112
4 66 69 76 87
4 87 103 21 72
4 13 27 80 11
4 99 52 94 73
4 58 32 53 41
4 11 20 18 10
4 31 6 23 73
4 38 3 95 71
4 107 68 108 71
4 39 41 30 112
4 44 99 6 25
4 55 105 31 99
4 1 11 49 4
4 1 10 56 13
4 78 24 53 30
4 107 88 98 38
5 78 31 4 1 39
5 67 84 117 54 96
5 38 107 11 13 41
5 31 98 88 103 52
5 20 33 31 111 18
5 67 101 62 94 37
5 28 94 69 109 4
5 70 46 14 89 96
5 19 98 96 112 0
5 43 59 61 83 21
5 9 11 42 23 6
5 73 31 60 115 93
5 48 62 60 29 50
5 90 113 102 69 7
5 27 69 68 15 49
5 46 38 78 110 99
5 0 38 72 87 56
5 105 32 103 21 6
5 54 21 18 64 95
5 16 77 62 45 118
5 35 96 102 91 2
5 26 106 72 47 59
5 80 17 9 104 48
5 24 41 69 76 73
5 10 25 21 116 63
5 33 79 77 58 9
5 27 119 47 89 34
5 53 55 25 38 3
5 35 85 83 62 114
5 7 8 17 47 65
5 63 47 45 81 74
5 68 108 40 53 9
5 60 49 20 5 41
5 90 88 97 94 78
5 98 6 1 10 71
5 61 93 54 33 82
5 2 78 89 66 13
5 98 72 84 55 22
5 94 54 50 19 75
5 14 86 83 102 16
5 72 64 34 100 83
5 8 32 45 25 12
5 102 17 57 28 74
5 24 36 89 68 26
5 45 33 51 85 42
5 17 92 37 40 60
5 68 25 44 80 56
5 79 99 6 41 30
5 99 73 71 107 20
5 52 82 66 112 94
5 19 109 66 67 90
5 2 52 117 46 19
5 115 101 107 39 69
5 103 20 1 58 115
5 97 99 4 13 115
5 4 50 88 101 82
5 19 105 82 84 18
5 87 71 78 30 115
5 18 39 112 93 88
5 117 43 109 91 62
5 84 14 0 91 119
5 91 61 67 64 75
5 1 66 87 88 46
5 105 22 54 100 91
5 43 22 35 64 14
5 71 92 58 41 111
5 50 5 39 37 73
5 117 15 66 102 97
5 107 15 4 24 90
5 110 52 119 87 96
5 90 35 28 117 86
5 75 60 82 118 39
5 52 30 0 1 55
5 67 85 50 43 118
5 95 112 58 105 31
5 103 84 10 112 100
5 119 83 70 22 57
5 73 28 49 101 113
5 79 49 11 92 76
5 92 118 20 48 93
5 114 33 43 12 75
5 64 3 105 59 10
5 16 59 57 114 34
5 95 71 42 103 79
5 15 57 2 7 14
5 97 44 107 89 76
5 116 87 11 55 99
5 22 110 34 0 26
5 109 29 35 37 16
5 92 68 5 23 113
5 48 79 40 111 23
5 58 12 18 42 61
5 100 116 98 3 30
5 81 100 56 59 55
5 45 86 106 29 57
5 75 111 85 93 77
5 106 7 34 74 70
5 26 46 44 119 13
5 10 108 30 32 11
5 2 24 70 97 27
5 114 32 61 63 95
5 63 16 12 106 85
5 21 81 114 3 106
5 101 17 109 5 86
5 23 44 49 53 24
5 116 23 38 108 76
5 13 53 110 76 56
5 5 104 28 40 7
5 111 65 118 9 29
5 81 44 72 36 110
5 37 74 48 86 65
5 70 104 15 47 113
5 6 51 95 108 12
5 56 8 3 36 63
5 77 8 29 51 74
5 27 8 26 104 81
5 36 113 80 27 40
5 42 65 108 77 80
5 80 116 51 53 32
5 104 51 36 65 25

# Cells
7 0 1 2 3 4 5 6
7 7 8 9 10 11 12 13
7 14 15 16 17 18 19 20
7 21 22 23 24 25 26 27
7 28 29 30 31 32 33 34
7 35 36 37 38 39 40 41
7 42 43 44 45 46 47 48
7 49 50 51 52 53 54 55
7 56 57 58 59 60 61 62
7 63 64 65 66 67 68 69
7 70 71 72 73 74 75 76
7 77 78 79 80 81 82 83
7 84 85 86 87 88 89 90
7 91 92 93 94 95 96 97
7 98 99 100 101 102 103 104
7 105 106 107 108 109 110 111
7 112 113 114 115 116 117 118
7 119 120 121 122 123 124 125
7 126 127 128 129 130 131 132
7 133 134 135 136 137 138 139
7 140 141 142 143 144 145 146
7 147 148 149 150 151 152 153
7 154 155 156 157 158 159 160
7 161 162 163 164 165 166 167
7 168 169 170 171 172 173 174
7 175 176 177 178 179 180 181
7 86 182 183 184 185 186 187
7 149 188 189 190 191 192 193
7 102 194 195 196 197 198 199
7 109 200 201 202 203 204 205
7 106 206 207 208 209 210 211
7 212 213 214 215 216 217 218
7 219 220 221 222 223 224 225
7 226 227 228 229 230 231 232
7 233 234 235 236 237 238 239
7 165 240 241 242 243 244 245
7 143 246 247 248 249 250 251
7 252 253 254 255 256 257 258
7 259 260 261 262 263 264 265
7 266 267 268 269 270 271 272
7 273 274 275 276 277 278 279
7 60 280 281 282 283 284 285
7 45 286 287 288 289 290 291
7 81 292 293 294 295 296 297
7 158 298 299 300 301 302 303
7 94 304 305 306 307 308 309
7 310 311 312 313 314 315 316
7 317 318 319 320 321 322 323
7 142 324 325 326 327 328 329
7 73 330 331 332 333 334 335
7 93 336 337 338 339 340 341
7 342 343 344 345 346 347 348
7 78 349 350 351 352 353 354
7 355 356 357 358 359 360 361
7 362 363 364 365 366 367 368
7 369 370 371 372 373 374 375
7 155 376 377 378 379 380 381
7 371 382 383 384 385 386 387
7 38 388 389 390 391 392 393
7 394 395 396 397 398 399 400
7 343 401 402 403 404 405 406
7 66 407 408 409 410 411 412
7 413 414 415 416 417 418 419
7 150 256 420 421 422 423 424
7 414 425 426 427 428 429 430
7 381 431 432 433 434 435 436
7 327 437 438 439 440 441 442
7 11 443 444 445 446 447 448
7 396 449 450 451 452 453 454
7 23 455 456 457 458 459 460
7 65 461 462 463 464 465 466
7 162 316 467 468 469 470 471
7 340 472 473 474 475 476 477
7 51 418 478 479 480 481 482
7 410 483 484 485 486 487 488
7 121 489 490 491 492 493 494
7 464 485 495 496 497 498 499
7 355 500 501 502 503 504 505
7 364 506 507 508 509 510 511
7 99 320 512 513 514 515 516
7 354 517 518 519 520 521 522
7 87 271 523 524 525 526 527
7 52 430 528 529 530 531 532
7 136 533 534 535 536 537 538
7 116 508 539 540 541 542 543
7 37 264 544 545 546 547 548
7 17 403 549 550 551 552 553
7 307 472 554 555 556 557 558
7 32 451 559 560 561 562 563
7 301 431 564 565 566 567 568
7 249 439 569 570 571 572 573
7 203 574 575 576 577 578 579
7 130 502 580 581 582 583 584
7 210 575 585 586 587 588 589
7 72 276 590 591 592 593 594
7 296 517 595 596 597 598 599
7 113 365 600 601 602 603 604
7 176 493 605 606 607 608 609
7 275 333 610 611 612 613 614
7 170 460 615 616 617 618 619
7 260 393 620 621 622 623 624
7 44 215 625 626 627 628 629
7 57 231 630 631 632 633 634
7 29 397 635 636 637 638 639
7 127 361 640 641 642 643 644
7 16 346 645 646 647 648 649
7 235 536 650 651 652 653 654
7 219 447 655 656 657 658 659
7 186 267 660 661 662 663 664
7 192 253 665 666 667 668 669
7 24 171 670 671 672 673 674
7 122 179 675 676 677 678 679
7 8 224 680 681 682 683 684
7 2 372 685 686 687 688 689
7 3 384 690 691 692 693 694
7 226 283 695 696 697 698 699
7 197 319 700 701 702 703 704
7 214 290 705 706 707 708 709
7 244 310 710 711 712 713 714
7 135 236 715 716 717 718 719
7 0 720 721 722 723 724 725
7 7 726 727 728 729 730 731
7 14 732 733 734 735 736 737
7 21 738 739 740 741 742 743
7 28 744 745 746 747 748 749
7 35 750 751 752 753 754 755
7 42 756 757 758 759 760 761
7 49 762 763 764 765 766 767
7 56 768 769 770 771 772 773
7 63 774 775 776 777 778 779
7 70 780 781 782 783 784 785
7 77 786 787 788 789 790 791
7 84 792 793 794 795 796 797
7 91 798 799 800 801 802 803
7 98 804 805 806 807 808 809
7 105 810 811 812 813 814 815
7 112 816 817 818 819 820 821
7 119 822 823 824 825 826 827
7 126 828 829 830 831 832 833
7 133 834 835 836 837 838 839
7 140 840 841 842 843 844 845
7 147 846 847 848 849 850 851
7 154 852 853 854 855 856 857
7 161 858 859 860 861 862 863
7 173 840 864 865 866 867 868
7 181 812 869 870 871 872 873
7 187 874 875 876 877 878 879
7 193 880 881 882 883 884 885
7 199 886 887 888 889 890 891
7 205 892 893 894 895 896 897
7 209 898 899 900 901 902 903
7 218 798 904 905 906 907 908
7 225 853 909 910 911 912 913
7 232 788 914 915 916 917 918
7 237 811 919 920 921 922 923
7 245 924 925 926 927 928 929
7 250 930 931 932 933 934 935
7 258 770 936 937 938 939 940
7 265 806 941 942 943 944 945
7 272 849 946 947 948 949 950
7 279 795 951 952 953 954 955
7 285 956 957 958 959 960 961
7 291 962 963 964 965 966 967
7 297 968 969 970 971 972 973
7 303 974 975 976 977 978 979
7 308 980 981 982 983 984 985
7 314 759 986 987 988 989 990
7 323 859 991 992 993 994 995
7 328 996 997 998 999 1000 1001
7 335 1002 1003 1004 1005 1006 1007
7 341 1008 1009 1010 1011 1012 1013
7 345 846 1014 1015 1016 1017 1018
7 352 1009 1019 1020 1021 1022 1023
7 360 750 1024 1025 1026 1027 1028
7 366 780 1029 1030 1031 1032 1033
7 374 792 1034 1035 1036 1037 1038
7 380 1039 1040 1041 1042 1043 1044
7 385 805 1045 1046 1047 1048 1049
7 392 1050 1051 1052 1053 1054 1055
7 400 860 1056 1057 1058 1059 1060
7 405 843 967 1061 1062 1063 1064
7 412 1018 1065 1066 1067 1068 1069
7 419 746 1070 1071 1072 1073 1074
7 423 997 1075 1076 1077 1078 1079
7 427 732 1080 1081 1082 1083 1084
7 434 762 1085 1086 1087 1088 1089
7 441 765 1090 1091 1092 1093 1094
7 448 1095 1096 1097 1098 1099 1100
7 452 854 960 1101 1102 1103 1104
7 459 1095 1105 1106 1107 1108 1109
7 465 1059 1110 1111 1112 1113 1114
7 471 1041 1115 1116 1117 1118 1119
7 475 817 1120 1121 1122 1123 1124
7 481 1002 1125 1126 1127 1128 1129
7 486 787 933 1130 1131 1132 1133
7 494 1049 1134 1135 1136 1137 1138
7 499 801 979 1139 1140 1141 1142
7 505 777 1100 1143 1144 1145 1146
7 510 774 1109 1147 1148 1149 1150
7 515 1089 1151 1152 1153 1154 1155
7 522 829 1156 1157 1158 1159 1160
7 526 1093 1152 1161 1162 1163 1164
7 532 1050 1165 1166 1167 1168 1169
7 537 1037 1170 1171 1172 1173 1174
7 542 945 1134 1175 1176 1177 1178
7 547 949 1065 1179 1180 1181 1182
7 552 872 1183 1184 1185 1186 1187
7 558 825 1127 1188 1189 1190 1191
7 563 922 1183 1192 1193 1194 1195
7 566 783 973 1196 1197 1198 1199
7 573 753 983 1200 1201 1202 1203
7 577 741 1117 1204 1205 1206 1207
7 583 954 1170 1208 1209 1210 1211
7 589 728 1077 1212 1213 1214 1215
7 593 994 1111 1216 1217 1218 1219
7 597 834 1167 1220 1221 1222 1223
7 603 880 1074 1224 1225 1226 1227
7 607 756 877 1228 1229 1230 1231
7 612 727 1000 1232 1233 1234 1235
7 617 822 1007 1236 1237 1238 1239
7 622 738 1042 1240 1241 1242 1243
7 628 893 1160 1244 1245 1246 1247
7 633 900 1123 1248 1249 1250 1251
7 638 982 1028 1252 1253 1254 1255
7 644 926 1084 1256 1257 1258 1259
7 649 968 1033 1260 1261 1262 1263
7 653 769 891 1264 1265 1266 1267
7 657 837 1054 1268 1269 1270 1271
7 663 818 901 1272 1273 1274 1275
7 667 720 1012 1276 1277 1278 1279
7 673 886 939 1280 1281 1282 1283
7 678 917 932 1284 1285 1286 1287
7 683 876 990 1288 1289 1290 1291
7 688 913 957 1292 1293 1294 1295
7 694 868 962 1296 1297 1298 1299
7 698 735 927 1300 1301 1302 1303
7 702 830 896 1304 1305 1306 1307
7 707 745 885 1308 1309 1310 1311
7 714 723 1021 1312 1313 1314 1315
7 719 908 975 1316 1317 1318 1319
7 67 722 1320 1321 1322 1323 1324
7 18 729 1325 1326 1327 1328 1329
7 100 733 1330 1331 1332 1333 1334
7 31 740 1335 1336 1337 1338 1339
7 88 747 1340 1341 1342 1343 1344
7 43 752 1345 1346 1347 1348 1349
7 71 757 1350 1351 1352 1353 1354
7 4 763 1355 1356 1357 1358 1359
7 39 771 1360 1361 1362 1363 1364
7 107 776 1365 1366 1367 1368 1369
7 59 781 1370 1371 1372 1373 1374
7 22 786 1375 1376 1377 1378 1379
7 79 793 1380 1381 1382 1383 1384
7 10 800 1385 1386 1387 1388 1389
7 92 804 1390 1391 1392 1393 1394
7 50 810 1395 1396 1397 1398 1399
7 137 816 1400 1401 1402 1403 1404
7 157 823 1405 1406 1407 1408 1409
7 123 831 1410 1411 1412 1413 1414
7 141 835 1415 1416 1417 1418 1419
7 163 842 1420 1421 1422 1423 1424
7 128 848 1425 1426 1427 1428 1429
7 148 852 1430 1431 1432 1433 1434
7 115 861 1435 1436 1437 1438 1439
7 395 867 1357 1440 1441 1442 1443
7 435 870 1444 1445 1446 1447 1448
7 294 879 1449 1450 1451 1452 1453
7 584 882 1367 1454 1455 1456 1457
7 309 888 1407 1458 1459 1460 1461
7 482 894 1342 1462 1463 1464 1465
7 529 903 1466 1467 1468 1469 1470
7 610 907 1402 1471 1472 1473 1474
7 348 911 1475 1476 1477 1478 1479
7 623 916 1450 1480 1481 1482 1483
7 438 923 1337 1484 1485 1486 1487
7 541 929 1488 1489 1490 1491 1492
7 469 935 1493 1494 1495 1496 1497
7 356 940 1377 1492 1498 1499 1500
7 217 943 1457 1501 1502 1503 1504
7 521 948 1505 1506 1507 1508 1509
7 228 955 1427 1470 1510 1511 1512
7 545 961 1513 1514 1515 1516 1517
7 594 964 1382 1478 1518 1519 1520
7 674 970 1422 1446 1521 1522 1523
7 424 976 1361 1524 1525 1526 1527
7 681 985 1442 1528 1529 1530 1531
7 368 987 1532 1533 1534 1535 1536
7 473 995 1351 1537 1538 1539 1540
7 243 998 1322 1541 1542 1543 1544
7 284 1003 1332 1545 1546 1547 1548
7 446 1010 1416 1549 1550 1551 1552
7 700 1017 1321 1553 1554 1555 1556
7 457 1023 1540 1557 1558 1559 1560
7 608 1025 1513 1561 1562 1563 1564
7 650 1032 1326 1565 1566 1567 1568
7 487 1036 1527 1569 1570 1571 1572
7 190 1043 1506 1573 1574 1575 1576
7 496 1048 1412 1577 1578 1579 1580
7 287 1055 1533 1581 1582 1583 1584
7 662 1058 1494 1585 1586 1587 1588
7 322 1063 1465 1589 1590 1591 1592
7 201 1068 1445 1593 1594 1595 1596
7 370 1073 1436 1516 1597 1598 1599
7 642 1078 1486 1600 1601 1602 1603
7 386 1082 1604 1605 1606 1607 1608
7 665 1088 1331 1609 1610 1611 1612
7 712 1091 1466 1613 1614 1615 1616
7 550 1099 1604 1617 1618 1619 1620
7 268 1104 1372 1621 1622 1623 1624
7 562 1105 1432 1534 1625 1626 1627
7 211 1110 1327 1628 1629 1630 1631
7 604 1116 1371 1632 1633 1634 1635
7 658 1122 1488 1636 1637 1638 1639
7 686 1128 1473 1640 1641 1642 1643
7 574 1133 1417 1644 1645 1646 1647
7 300 1138 1476 1648 1649 1650 1651
7 588 1140 1634 1652 1653 1654 1655
7 177 1146 1387 1497 1656 1657 1658
7 239 1148 1461 1659 1660 1661 1662
7 338 1154 1624 1653 1663 1664 1665
7 615 1159 1346 1619 1666 1667 1668
7 353 1162 1411 1669 1670 1671 1672
7 693 1165 1391 1507 1673 1674 1675
7 251 1171 1347 1608 1676 1677 1678
7 718 1175 1396 1481 1679 1680 1681
7 629 1180 1386 1587 1682 1683 1684
7 516 1184 1437 1563 1685 1686 1687
7 221 1191 1397 1452 1688 1689 1690
7 524 1194 1570 1691 1692 1693 1694
7 257 1197 1551 1695 1696 1697 1698
7 311 1203 1392 1575 1699 1700 1701
7 417 1205 1557 1702 1703 1704 1705
7 677 1210 1567 1706 1707 1708 1709
7 425 1215 1431 1583 1710 1711 1712
7 631 1218 1579 1713 1714 1715 1716
7 174 1222 1548 1717 1718 1719 1720
7 535 1226 1612 1717 1721 1722 1723
7 565 1231 1341 1724 1725 1726 1727
7 697 1233 1528 1728 1729 1730 1731
7 453 1238 1630 1706 1732 1733 1734
7 705 1243 1406 1735 1736 1737 1738
7 331 1246 1646 1695 1739 1740 1741
7 391 1249 1336 1742 1743 1744 1745
7 185 1252 1401 1746 1747 1748 1749
7 492 1256 1352 1704 1750 1751 1752
7 196 1262 1501 1753 1754 1755 1756
7 571 1265 1671 1713 1757 1758 1759
7 402 1271 1362 1693 1760 1761 1762
7 595 1275 1366 1754 1763 1764 1765
7 504 1277 1640 1749 1766 1767 1768
7 636 1282 1555 1769 1770 1771 1772
7 379 1284 1356 1730 1773 1774 1775
7 648 1288 1426 1614 1776 1777 1778
7 411 1292 1376 1638 1779 1780 1781
7 462 1298 1659 1737 1782 1783 1784
7 261 1303 1421 1594 1785 1786 1787
7 557 1306 1600 1744 1788 1789 1790
7 278 1309 1543 1770 1791 1792 1793
7 507 1315 1381 1649 1794 1795 1796
7 326 1318 1589 1727 1797 1798 1799
7 46 751 1320 1800 1801 1802 1803
7 25 789 1325 1804 1805 1806 1807
7 80 794 1330 1808 1809 1810 1811
7 101 734 1335 1812 1813 1814 1815
7 15 726 1340 1816 1817 1818 1819
7 53 813 1345 1820 1821 1822 1823
7 108 775 1350 1824 1825 1826 1827
7 74 758 1355 1828 1829 1830 1831
7 1 764 1360 1832 1833 1834 1835
7 36 768 1365 1836 1837 1838 1839
7 64 721 1370 1840 1841 1842 1843
7 95 807 1375 1844 1845 1846 1847
7 9 799 1380 1848 1849 1850 1851
7 30 739 1385 1852 1853 1854 1855
7 85 744 1390 1856 1857 1858 1859
7 58 782 1395 1860 1861 1862 1863
7 151 855 1400 1864 1865 1866 1867
7 114 858 1405 1868 1869 1870 1871
7 134 819 1410 1872 1873 1874 1875
7 156 824 1415 1876 1877 1878 1879
7 120 828 1420 1880 1881 1882 1883
7 144 836 1425 1884 1885 1886 1887
7 164 841 1430 1888 1889 1890 1891
7 129 847 1435 1892 1893 1894 1895
7 491 1258 1443 1896 1897 1898 1899
7 634 1217 1448 1805 1900 1901 1902
7 586 1142 1453 1877 1903 1904 1905
7 406 1270 1456 1906 1907 1908 1909
7 375 1072 1460 1910 1911 1912 1913
7 654 1030 1464 1914 1915 1916 1917
7 254 1199 1469 1809 1918 1919 1920
7 561 1107 1474 1910 1921 1922 1923
7 470 931 1477 1829 1924 1925 1926
7 339 1151 1482 1872 1927 1928 1929
7 281 1005 1487 1930 1931 1932 1933
7 519 950 1490 1837 1934 1935 1936
7 555 1307 1496 1825 1937 1938 1939
7 691 1169 1500 1940 1941 1942 1943
7 527 1193 1504 1893 1917 1944 1945
7 329 1316 1509 1833 1946 1947 1948
7 445 1013 1512 1936 1949 1950 1951
7 711 1094 1517 1857 1898 1952 1953
7 180 1144 1520 1954 1955 1956 1957
7 498 1046 1523 1926 1958 1959 1960
7 399 866 1526 1961 1962 1963 1964
7 415 1207 1530 1888 1932 1965 1966
7 204 1066 1535 1853 1909 1967 1968
7 582 884 1539 1969 1970 1971 1972
7 618 1158 1544 1970 1973 1974 1975
7 511 1313 1547 1940 1976 1977 1978
7 709 1242 1552 1948 1979 1980 1981
7 248 1173 1556 1961 1982 1983 1984
7 213 944 1560 1868 1985 1986 1987
7 531 898 1562 1812 1988 1989 1990
7 408 1294 1568 1954 1991 1992 1993
7 684 981 1571 1864 1994 1995 1996
7 318 1064 1574 1801 1997 1998 1999
7 184 1254 1580 1939 2000 2001 2002
7 432 873 1582 1817 2003 2004 2005
7 643 1075 1586 1800 2006 2007 2008
7 679 1209 1592 1820 2009 2010 2011
7 569 1267 1596 1813 2012 2013 2014
7 647 1291 1599 2015 2016 2017 2018
7 169 1223 1602 1821 2019 2020 2021
7 295 875 1607 1884 1957 2022 2023
7 591 965 1611 1914 2024 2025 2026
7 334 1244 1615 1816 2027 2028 2029
7 620 918 1618 1880 1942 2030 2031
7 242 1001 1623 1920 2032 2033 2034
7 263 1301 1627 2015 2035 2036 2037
7 359 937 1631 1931 2038 2039 2040
7 703 1016 1635 1902 2041 2042 2043
7 191 1039 1639 1841 2036 2044 2045
7 362 989 1643 1848 1971 2046 2047
7 305 889 1647 2021 2048 2049 2050
7 660 1060 1651 1840 2018 2051 2052
7 639 1280 1655 1869 2053 2054 2055
7 389 1251 1658 1905 2056 2057 2058
7 548 958 1661 1845 1964 2059 2060
7 274 1311 1664 1865 2061 2062 2063
7 717 1177 1668 1906 2064 2065 2066
7 613 906 1672 2011 2049 2067 2068
7 567 1229 1675 1929 2069 2070 2071
7 223 1190 1678 1897 2072 2073 2074
7 269 1103 1681 1990 2075 2076 2077
7 440 920 1684 1996 2078 2079 2080
7 229 952 1687 2001 2081 2082 2083
7 602 1119 1690 2005 2084 2085 2086
7 695 1235 1694 1885 1992 2087 2088
7 466 1296 1698 1849 1974 2089 2090
7 479 897 1701 1987 2091 2092 2093
7 198 1260 1703 1881 1977 2094 2095
7 655 1124 1709 1860 1922 2096 2097
7 671 972 1712 1979 2098 2099 2100
7 501 1279 1715 1844 1983 2101 2102
7 302 1136 1719 1861 1913 2103 2104
7 342 912 1723 1832 2099 2105 2106
7 207 1113 1726 2063 2079 2107 2108
7 458 1019 1731 1876 2109 2110 2111
7 543 925 1733 1824 2082 2112 2113
7 513 1186 1738 1958 2114 2115 2116
7 234 1150 1740 1804 2117 2118 2119
7 668 1086 1745 2055 2091 2120 2121
7 428 1214 1748 1949 2122 2123 2124
7 598 1274 1752 2029 2084 2125 2126
7 483 1038 1755 1873 2127 2128 2129
7 689 1126 1759 1808 2130 2131 2132
7 378 1286 1762 2014 2075 2133 2134
7 422 977 1765 2041 2119 2135 2136
7 289 1052 1767 1856 2073 2137 2138
7 382 1083 1771 1892 2025 2139 2140
7 476 993 1775 2032 2132 2141 2142
7 578 1131 1778 2008 2143 2144 2145
7 313 1201 1781 2056 2111 2146 2147
7 605 1027 1784 1852 2066 2148 2149
7 350 1164 1787 1999 2143 2150 2151
7 538 1224 1790 1836 2123 2152 2153
7 553 1097 1793 1889 2039 2154 2155
7 626 1181 1796 2069 2129 2156 2157
7 449 1239 1798 1828 2116 2158 2159
7 556 1216 1636 1997 2160 2161 2162
7 572 1192 1613 2117 2163 2164 2165
7 503 1281 1561 1918 2166 2167 2168
7 713 980 1532 2012 2169 2170 2171
7 255 1153 1766 2003 2172 2173 2174
7 454 1297 1585 2019 2175 2176 2177
7 659 1125 1475 1937 2178 2179 2180
7 664 956 1505 2158 2181 2182 2183
7 321 1067 1788 2105 2184 2185 2186
7 172 1245 1732 1934 2187 2188 2189
7 520 899 1718 2051 2190 2191 2192
7 609 1096 1444 2101 2193 2194 2195
7 238 1261 1757 2046 2196 2197 2198
7 436 874 1696 2148 2199 2200 2201
7 367 1020 1660 1952 2202 2203 2204
7 347 1051 1590 2096 2205 2206 2207
7 699 1208 1480 2061 2208 2209 2210
7 277 1317 1728 1985 2211 2212 2213
7 587 930 1702 2127 2214 2215 2216
7 416 1076 1605 1903 2217 2218 2219
7 216 1040 1791 2030 2220 2221 2222
7 624 924 1502 2087 2223 2224 2225
7 387 1225 1569 1965 2226 2227 2228
7 488 1135 1652 2139 2229 2230 2231
7 646 857 1554 2074 2232 2233 2234
7 635 1240 1343 1806 2199 2235 2236
7 706 1168 1518 2057 2237 2238 2239
7 54 1305 1642 1968 2206 2240 2241
7 152 1141 1603 2104 2227 2242 2243
7 82 1092 1559 1945 2197 2244 2245
7 506 1259 1679 2033 2246 2247 2248
7 409 797 1645 1912 2249 2250 2251
7 630 1029 1364 1831 2205 2252 2253
7 324 1268 1424 1875 2223 2254 2255
7 490 755 1725 2040 2256 2257 2258
7 401 1108 1685 1950 2259 2260 2261
7 596 1290 1521 2000 2262 2263 2264
7 716 779 1485 1978 2265 2266 2267
7 675 1156 1408 1894 2220 2268 2269
7 461 1312 1368 1834 2190 2270 2271
7 692 737 1578 2124 2272 2273 2274
7 564 1178 1524 1896 2275 2276 2277
7 26 1198 1772 2023 2194 2278 2279
7 118 1206 1722 1925 2230 2280 2281
7 47 947 1741 2060 2176 2282 2283
7 259 1295 1682 1930 2284 2285 2286
7 523 1070 1384 1855 2202 2287 2288
7 560 826 1622 1975 2289 2290 2291
7 110 1057 1468 2090 2189 2292 2293
7 96 1266 1531 2095 2204 2294 2295
7 166 1234 1491 1947 2222 2296 2297
7 183 863 1764 1963 2298 2299 2300
7 369 1006 1779 2092 2301 2302 2303
7 336 1045 1389 1815 2193 2304 2305
7 377 815 1610 1956 2306 2307 2308
7 640 1014 1414 1867 2229 2309 2310
7 616 1011 1625 2150 2311 2312 2313
7 390 791 1736 2083 2314 2315 2316
7 651 883 1676 2085 2307 2317 2318
7 330 1228 1373 1802 2181 2319 2320
7 685 1085 1323 1822 2184 2321 2322
7 666 1118 1454 2133 2323 2324 2325
7 627 809 1472 2037 2303 2326 2327
7 220 1255 1776 2048 2310 2328 2329
7 467 864 1439 1887 2226 2262 2330
7 247 772 1700 1916 2325 2331 2332
7 194 1300 1393 1818 2169 2333 2334
7 495 966 1628 1941 2315 2335 2336
7 444 820 1761 2142 2296 2337 2338
7 131 1310 1708 2045 2225 2289 2339
7 103 871 1665 2155 2167 2340 2341
7 41 1121 1584 1901 2185 2342 2343
7 200 1143 1399 1843 2178 2323 2344
7 175 1174 1773 1969 2322 2345 2346
7 282 730 1786 2068 2294 2347 2348
7 701 971 1458 2016 2299 2349 2350
7 533 1272 1418 1870 2214 2351 2352
7 601 761 1566 2147 2342 2345 2353
7 680 904 1329 1847 2196 2284 2354
7 426 1250 1673 2107 2305 2355 2356
7 514 844 1538 1908 2313 2357 2358
7 160 915 1576 2010 2212 2359 2360
7 13 1278 1620 1928 2201 2272 2361
7 75 1062 1716 2138 2180 2331 2362
7 6 1221 1783 1989 2182 2265 2363
7 20 988 1756 1995 2164 2326 2364
7 139 942 1799 2113 2209 2357 2365
7 672 839 1441 2126 2280 2328 2366
7 576 1182 1462 1991 2288 2348 2367
7 549 1212 1333 1850 2172 2335 2368
7 581 724 1657 2121 2240 2369 2370
7 298 1188 1434 1883 2217 2349 2371
7 266 1187 1669 1921 2269 2337 2372
7 592 748 1511 1981 2278 2355 2373
7 312 1287 1632 1982 2253 2370 2374
7 544 936 1349 1863 2187 2275 2375
7 394 890 1746 2098 2233 2352 2376
7 241 766 1795 2080 2277 2292 2377
7 188 1101 1428 1878 2208 2311 2378
7 528 919 1359 1827 2175 2246 2379
7 208 802 1711 1960 2239 2340 2380
7 357 999 1750 2135 2266 2320 2381
7 90 1026 1451 2054 2174 2314 2382
7 146 1035 1495 2153 2219 2298 2383
7 62 1237 1515 2028 2192 2256 2384
7 611 895 1545 2156 2251 2334 2385
7 455 1130 1338 1810 2163 2301 2386
7 351 851 1667 2077 2261 2359 2387
7 306 832 1689 2043 2242 2263 2388
7 292 951 1379 1859 2166 2237 2389
7 227 1114 1742 2024 2236 2273 2390
7 69 910 1595 2131 2161 2306 2391
7 125 1081 1650 2007 2215 2232 2392
7 34 1149 1692 2110 2171 2249 2393
7 437 978 1541 2064 2257 2271 2394
7 480 742 1598 2145 2244 2285 2395
7 286 1200 1353 1838 2160 2317 2396
7 539 991 1403 1891 2211 2259 2397
7 421 784 1499 2071 2248 2282 2398
7 474 1163 1549 2114 2255 2291 2399
7 690 1112 1489 1933 2356 2400 2401
7 443 1185 1467 2002 2399 2402 2403
7 645 887 1514 1923 2329 2404 2405
7 670 1253 1581 1951 2264 2406 2407
7 559 1161 1641 2050 2312 2408 2409
7 388 963 1493 1993 2390 2410 2411
7 625 1004 1648 1943 2286 2412 2413
7 478 1293 1573 2058 2367 2414 2415
7 280 1179 1601 2108 2385 2416 2417
7 407 892 1707 2026 2302 2418 2419
7 590 1248 1721 2093 2238 2420 2421
7 349 1106 1593 2017 2372 2422 2423
7 182 969 1714 2115 2376 2424 2425
7 304 1289 1739 2151 2350 2426 2427
7 512 1008 1782 2100 2260 2428 2429
7 206 1166 1797 2157 2336 2430 2431
7 600 1172 1449 1899 2374 2432 2433
7 489 974 1529 1984 2381 2434 2435
7 580 1285 1558 2034 2324 2436 2437
7 715 996 1617 1972 2247 2438 2439
7 246 1115 1769 2136 2318 2440 2441
7 420 1257 1753 2086 2276 2442 2443
7 376 881 1691 2065 2346 2444 2445
7 240 1176 1663 2134 2394 2446 2447
7 619 1102 1324 1919 2387 2448 2449
7 676 1044 1463 1803 2339 2411 2450
7 661 1220 1479 1911 2177 2451 2452
7 153 833 1471 1927 2371 2438 2453
7 104 803 1484 1967 2368 2408 2454
7 111 767 1537 1924 2270 2420 2455
7 585 1080 1483 1955 2231 2456 2457
7 708 953 1419 1935 2316 2458 2459
7 682 1263 1525 1874 2295 2433 2460
7 632 1053 1522 1819 2362 2403 2461
7 652 1202 1344 1986 2353 2462 2463
7 710 1147 1564 1962 2165 2449 2464
7 570 986 1447 1907 2198 2455 2465
7 669 1145 1339 1904 2308 2466 2467
7 546 1247 1459 1807 2384 2423 2462
7 525 1022 1455 1871 2393 2447 2458
7 614 1302 1413 1998 2327 2468 2469
7 696 941 1572 1915 2213 2470 2471
7 48 785 1553 2044 2375 2418 2472
7 83 743 1609 1988 2287 2428 2456
7 159 850 1644 2022 2268 2440 2451
7 554 909 1588 1959 2186 2473 2474
7 468 1227 1519 1835 2383 2415 2475
7 704 1189 1374 2004 2234 2450 2476
7 145 862 1510 1944 2351 2436 2477
7 76 773 1440 1946 2396 2400 2478
7 97 731 1498 1900 2333 2406 2479
7 404 992 1369 2047 2338 2475 2480
7 518 1236 1637 2081 2183 2469 2481
7 641 1137 1683 1842 2243 2401 2482
7 509 921 1334 1966 2377 2471 2483
7 687 1069 1670 1814 2241 2405 2484
7 433 1276 1536 2072 2195 2472 2485
7 373 1132 1409 2020 2395 2474 2486
7 621 1308 1606 2038 2210 2467 2487
7 637 878 1633 1879 2279 2435 2488
7 551 1155 1542 1866 2361 2445 2468
7 484 1204 1503 1976 2228 2454 2489
7 429 1047 1404 1938 2380 2452 2490
7 252 1024 1616 2076 2200 2491 2492
7 530 1299 1686 1854 2293 2407 2493
7 568 938 1394 2031 2258 2461 2494
7 325 928 1674 1839 2365 2417 2495
7 656 1061 1734 2067 2162 2459 2496
7 398 1273 1363 2118 2366 2492 2497
7 27 749 1565 2027 2389 2404 2498
7 68 814 1621 2103 2321 2416 2499
7 167 821 1710 1994 2254 2442 2473
7 337 1098 1680 1882 2341 2437 2500
7 413 1034 1729 2078 2216 2463 2501
7 497 1213 1423 2106 2274 2460 2502
7 606 1196 1662 1973 2168 2499 2503
7 463 902 1550 1811 2363 2425 2466
7 358 1230 1328 2062 2398 2457 2504
7 540 1319 1629 1830 2297 2413 2497
7 317 1120 1508 2035 2207 2453 2505
7 599 865 1354 1953 2300 2495 2503
7 89 790 1699 2059 2235 2426 2470
7 55 725 1666 2006 2344 2412 2491
7 138 845 1577 2094 2397 2434 2506
7 117 838 1735 2109 2330 2444 2481
7 40 760 1763 2112 2252 2430 2464
7 19 808 1724 2137 2354 2424 2487
7 477 1269 1358 2013 2358 2485 2507
7 450 946 1591 1980 2188 2477 2508
7 299 1079 1546 1823 2392 2431 2448
7 442 1314 1388 2128 2267 2484 2509
7 202 1129 1626 1851 2391 2427 2483
7 500 869 1758 2042 2173 2480 2510
7 579 1071 1429 2052 2250 2488 2511
7 273 914 1654 2070 2221 2479 2512
7 293 1283 1677 1895 2382 2443 2486
7 363 1264 1768 2141 2170 2476 2513
7 178 1087 1383 2140 2369 2493 2512
7 332 959 1777 1858 2283 2409 2514
7 456 1195 1774 1886 2245 2439 2515
7 262 905 1433 2097 2347 2500 2508
7 212 1232 1705 2146 2224 2498 2509
7 61 754 1688 2009 2319 2414 2510
7 33 796 1656 2089 2386 2402 2516
7 132 827 1597 2053 2378 2432 2517
7 344 1304 1720 2122 2179 2506 2511
7 534 934 1743 1826 2281 2419 2507
7 222 1015 1348 2102 2388 2465 2518
7 270 1157 1398 2149 2290 2482 2519
7 189 1211 1780 1862 2360 2421 2518
7 168 1056 1789 2144 2191 2502 2517
7 124 856 1785 2154 2309 2446 2496
7 12 736 1794 2130 2304 2422 2501
7 5 778 1760 2152 2379 2410 2513
7 383 1139 1792 2120 2218 2494 2516
7 230 1241 1438 2159 2373 2505 2515
7 195 984 1751 1890 2364 2441 2490
7 288 1219 1747 1846 2343 2429 2504
7 315 1031 1378 2088 2332 2489 2514
7 233 1090 1697 2125 2203 2478 2519
