# Generated using Miratope v0.5.0 (https://github.com/galoomba1/miratope-rs)
4OFF

# Vertices, Faces, Edges, Cells
120 2520 1200 720

# Vertices
0.809016994374945 -0.809016994374945 -0.809016994374945 0.809016994374945 
0 -1.61803398874989 0 0 
0 0 -1.61803398874989 0 
1.30901699437495 0.5 0 0.809016994374945 
-0.809016994374945 -0.809016994374945 -0.809016994374945 -0.809016994374945 
-0.809016994374945 0 0.5 -1.30901699437495 
0 -0.809016994374945 1.30901699437495 -0.5 
0.5 1.30901699437495 -0.809016994374945 0 
0.809016994374945 0.5 1.30901699437495 0 
0 1.30901699437495 0.5 -0.809016994374945 
0.809016994374945 -0.809016994374945 0.809016994374945 0.809016994374945 
-0.809016994374945 -0.809016994374945 0.809016994374945 0.809016994374945 
1.30901699437495 0 0.809016994374945 -0.5 
-0.809016994374945 -0.809016994374945 -0.809016994374945 0.809016994374945 
1.30901699437495 0 -0.809016994374945 -0.5 
-1.30901699437495 0 0.809016994374945 -0.5 
-1.30901699437495 0 -0.809016994374945 -0.5 
0 0.5 0.809016994374945 -1.30901699437495 
0 0.5 -0.809016994374945 -1.30901699437495 
0.809016994374945 -0.809016994374945 0.809016994374945 -0.809016994374945 
0.809016994374945 -0.809016994374945 -0.809016994374945 -0.809016994374945 
-0.809016994374945 -0.809016994374945 0.809016994374945 -0.809016994374945 
0.809016994374945 0.5 -1.30901699437495 0 
-0.809016994374945 0.5 1.30901699437495 0 
-0.809016994374945 0.5 -1.30901699437495 0 
0.809016994374945 1.30901699437495 0 0.5 
-0.809016994374945 1.30901699437495 0 0.5 
-0.809016994374945 0.809016994374945 -0.809016994374945 0.809016994374945 
-0.809016994374945 0.809016994374945 -0.809016994374945 -0.809016994374945 
0.5 0.809016994374945 0 1.30901699437495 
0.5 0.809016994374945 0 -1.30901699437495 
0.5 -0.809016994374945 0 1.30901699437495 
0.5 -0.809016994374945 0 -1.30901699437495 
1.30901699437495 0.809016994374945 0.5 0 
1.30901699437495 -0.809016994374945 0.5 0 
0.809016994374945 0.809016994374945 -0.809016994374945 0.809016994374945 
0.809016994374945 0.809016994374945 -0.809016994374945 -0.809016994374945 
0 1.30901699437495 0.5 0.809016994374945 
0 -1.30901699437495 0.5 0.809016994374945 
0 -1.30901699437495 0.5 -0.809016994374945 
-0.5 0 1.30901699437495 0.809016994374945 
-0.5 0 1.30901699437495 -0.809016994374945 
0 0 1.61803398874989 0 
0.809016994374945 0 -0.5 -1.30901699437495 
-1.30901699437495 0.5 0 0.809016994374945 
-0.5 1.30901699437495 0.809016994374945 0 
0 -0.809016994374945 -1.30901699437495 -0.5 
0 1.30901699437495 -0.5 -0.809016994374945 
-0.809016994374945 0.809016994374945 0.809016994374945 -0.809016994374945 
-1.61803398874989 0 0 0 
0 0 0 -1.61803398874989 
0.5 1.30901699437495 0.809016994374945 0 
0 -0.809016994374945 -1.30901699437495 0.5 
-0.809016994374945 0 -0.5 1.30901699437495 
1.30901699437495 0.5 0 -0.809016994374945 
1.30901699437495 0 -0.809016994374945 0.5 
0 0 0 1.61803398874989 
0 0.809016994374945 -1.30901699437495 -0.5 
0.5 -1.30901699437495 0.809016994374945 0 
1.30901699437495 -0.5 0 0.809016994374945 
-0.809016994374945 0 -0.5 -1.30901699437495 
0.809016994374945 0.809016994374945 0.809016994374945 0.809016994374945 
1.61803398874989 0 0 0 
0 0.809016994374945 1.30901699437495 -0.5 
-0.5 -1.30901699437495 -0.809016994374945 0 
0.809016994374945 0 0.5 -1.30901699437495 
-1.30901699437495 -0.5 0 0.809016994374945 
-0.5 -0.809016994374945 0 -1.30901699437495 
-0.5 1.30901699437495 -0.809016994374945 0 
0 -0.809016994374945 1.30901699437495 0.5 
0.809016994374945 0 0.5 1.30901699437495 
-1.30901699437495 0.5 0 -0.809016994374945 
-0.5 0.809016994374945 0 1.30901699437495 
-1.30901699437495 0 0.809016994374945 0.5 
0 1.61803398874989 0 0 
1.30901699437495 -0.5 0 -0.809016994374945 
-0.809016994374945 0 0.5 1.30901699437495 
0 0.809016994374945 1.30901699437495 0.5 
0.5 -1.30901699437495 -0.809016994374945 0 
0.809016994374945 -0.5 1.30901699437495 0 
-0.809016994374945 0.809016994374945 0.809016994374945 0.809016994374945 
0 1.30901699437495 -0.5 0.809016994374945 
0 -1.30901699437495 -0.5 0.809016994374945 
0 -1.30901699437495 -0.5 -0.809016994374945 
0.5 0 -1.30901699437495 0.809016994374945 
0.5 0 -1.30901699437495 -0.809016994374945 
0.809016994374945 0.809016994374945 0.809016994374945 -0.809016994374945 
-0.5 0.809016994374945 0 -1.30901699437495 
-0.5 -0.809016994374945 0 1.30901699437495 
-1.30901699437495 0.809016994374945 -0.5 0 
-1.30901699437495 -0.809016994374945 -0.5 0 
0.809016994374945 -0.5 -1.30901699437495 0 
-0.809016994374945 -0.5 1.30901699437495 0 
-0.809016994374945 -0.5 -1.30901699437495 0 
0.809016994374945 -1.30901699437495 0 -0.5 
-0.809016994374945 -1.30901699437495 0 -0.5 
1.30901699437495 0 0.809016994374945 0.5 
-1.30901699437495 0 -0.809016994374945 0.5 
0 -0.5 0.809016994374945 1.30901699437495 
0 -0.5 -0.809016994374945 1.30901699437495 
0.809016994374945 0 -0.5 1.30901699437495 
-1.30901699437495 -0.5 0 -0.809016994374945 
0 0.809016994374945 -1.30901699437495 0.5 
-0.5 -1.30901699437495 0.809016994374945 0 
-0.809016994374945 1.30901699437495 0 -0.5 
1.30901699437495 -0.809016994374945 -0.5 0 
0.809016994374945 1.30901699437495 0 -0.5 
-1.30901699437495 -0.809016994374945 0.5 0 
0.5 0 1.30901699437495 0.809016994374945 
0 -0.5 -0.809016994374945 -1.30901699437495 
0 0.5 -0.809016994374945 1.30901699437495 
0.5 0 1.30901699437495 -0.809016994374945 
0.809016994374945 -1.30901699437495 0 0.5 
-1.30901699437495 0.809016994374945 0.5 0 
1.30901699437495 0.809016994374945 -0.5 0 
-0.809016994374945 -1.30901699437495 0 0.5 
0 0.5 0.809016994374945 1.30901699437495 
-0.5 0 -1.30901699437495 -0.809016994374945 
0 -0.5 0.809016994374945 -1.30901699437495 
-0.5 0 -1.30901699437495 0.809016994374945 

# Faces
4 0 2 4 1
5 0 1 6 8 3
4 0 3 7 2
4 4 5 6 1
5 4 5 9 7 2
4 3 7 9 8
4 8 6 5 9
4 10 0 13 11
4 0 10 12 14
5 11 15 17 12 10
5 13 16 18 14 0
4 11 13 16 15
4 14 18 17 12
4 15 17 18 16
4 19 21 4 20
5 19 8 25 22 20
4 21 23 8 19
4 4 24 22 20
5 4 24 26 23 21
4 25 8 23 26
4 26 25 22 24
4 28 4 13 27
5 28 30 33 29 27
4 27 29 31 13
4 28 4 32 30
5 4 13 31 34 32
4 33 34 31 29
4 34 32 30 33
4 35 0 20 36
4 35 37 9 36
5 35 0 38 40 37
5 36 20 39 41 9
4 20 0 38 39
4 37 9 41 40
4 40 38 39 41
4 19 42 11 1
5 42 19 43 47 45
4 1 46 43 19
4 42 45 44 11
5 44 11 1 46 24
4 47 24 44 45
4 47 24 46 43
4 48 50 4 49
5 49 53 29 51 48
4 50 54 51 48
4 4 49 53 52
5 50 54 55 52 4
4 51 29 55 54
4 55 52 53 29
4 56 27 49 11
5 56 27 57 14 59
4 27 49 60 57
4 56 59 58 11
5 11 58 32 60 49
4 59 58 32 14
4 14 57 60 32
4 62 0 56 61
4 61 62 65 63
5 61 56 66 15 63
5 65 62 0 64 67
4 56 66 64 0
4 63 15 67 65
4 66 64 67 15
4 36 50 19 62
5 36 62 70 72 68
4 36 68 71 50
4 62 19 69 70
5 50 71 73 69 19
4 72 73 69 70
4 68 72 73 71
4 36 74 27 2
5 74 77 79 75 36
4 36 2 78 75
4 74 27 76 77
5 76 27 2 78 38
4 79 38 76 77
4 75 78 38 79
4 80 11 21 48
4 48 80 81 47
5 80 11 82 84 81
5 48 21 83 85 47
4 21 11 82 83
4 81 84 85 47
4 84 82 83 85
4 86 61 10 19
5 86 61 72 89 87
4 61 72 88 10
4 86 87 67 19
5 88 10 19 67 90
4 72 88 90 89
4 87 67 90 89
4 61 80 27 35
5 35 61 79 94 91
4 61 79 92 80
4 27 35 91 93
5 27 80 92 95 93
4 92 79 94 95
4 94 95 93 91
4 86 36 28 48
4 86 96 55 36
5 86 48 73 98 96
5 36 28 97 99 55
4 48 28 97 73
4 96 55 99 98
4 98 73 97 99
4 61 42 48 74
4 61 100 102 74
5 100 61 42 103 82
5 74 48 101 93 102
4 48 42 103 101
4 102 100 82 93
4 82 103 101 93
4 21 49 13 1
4 21 17 104 49
5 1 105 54 17 21
5 104 49 13 84 7
4 13 84 105 1
4 54 105 84 7
4 54 7 104 17
4 62 10 1 20
5 10 62 106 45 40
4 1 107 40 10
4 62 20 18 106
5 1 20 18 71 107
4 45 106 18 71
4 45 40 107 71
4 56 13 2 35
4 35 56 108 33
5 35 33 65 109 2
5 13 56 108 6 95
4 13 2 109 95
4 33 65 6 108
4 65 6 95 109
4 20 50 28 2
5 34 20 2 110 70
4 50 20 34 111
4 28 2 110 26
5 28 26 77 111 50
4 77 70 34 111
4 70 110 26 77
4 62 35 74 86
5 41 86 62 112 103
4 86 41 113 74
4 62 35 99 112
5 74 35 99 66 113
4 113 66 103 41
4 99 66 103 112
4 74 80 49 28
5 80 74 114 59 98
4 80 98 115 49
4 74 114 85 28
5 115 49 28 85 78
4 59 78 85 114
4 98 115 78 59
4 86 42 21 50
4 42 86 25 116
5 86 25 102 117 50
5 21 90 53 116 42
4 50 117 90 21
4 25 102 53 116
4 53 90 117 102
4 42 80 56 10
4 10 94 118 42
5 56 10 94 46 119
5 80 42 118 60 89
4 56 119 89 80
4 119 89 60 46
4 118 60 46 94
4 86 47 22 62
4 41 86 47 71
4 112 52 22 62
4 41 103 90 71
5 71 47 22 52 90
4 112 52 90 103
4 74 48 111 33
4 48 111 39 101
4 74 33 55 102
5 55 78 39 111 33
4 102 93 78 55
4 101 39 78 93
4 35 59 12 106
4 59 82 119 35
5 35 119 16 87 106
5 12 59 82 95 118
4 12 118 87 106
4 87 16 95 118
4 82 119 16 95
5 114 51 42 58 105
4 51 104 15 42
4 58 95 15 42
4 114 57 104 51
4 105 46 57 114
4 58 95 46 105
5 104 15 95 46 57
5 111 96 31 115 21
4 111 30 60 21
4 115 21 60 93
4 114 96 31 84
4 96 111 30 114
5 114 30 60 93 84
4 84 93 115 31
4 19 96 51 17
5 19 83 52 100 96
4 19 83 60 17
4 96 51 81 100
5 17 51 81 24 60
4 100 81 24 52
4 24 52 83 60
4 36 91 59 33
4 36 33 63 87
5 91 64 101 87 36
5 59 38 92 63 33
4 59 38 64 91
4 63 92 101 87
4 38 92 101 64
4 35 68 45 61
4 61 45 41 79
4 91 117 68 35
4 79 94 67 41
5 68 117 67 41 45
4 91 117 67 94
4 50 86 79 39
4 25 86 79 70
4 117 64 39 50
4 102 99 70 25
5 79 70 99 64 39
4 102 99 64 117
4 48 21 69 77
4 47 25 77 48
4 83 112 69 21
5 25 55 112 69 77
4 47 25 55 85
4 83 112 55 85
4 61 106 17 42
4 100 22 106 61
4 42 103 67 17
5 106 22 46 67 17
4 82 46 22 100
4 103 67 46 82
4 29 74 63 108
4 74 57 84 29
5 57 74 63 118 109
5 29 108 58 78 84
4 108 63 118 58
4 118 58 78 109
4 57 109 78 84
4 14 106 68 2
4 14 94 64 2
5 113 68 2 64 107
5 14 106 63 6 94
4 106 68 113 63
4 6 63 113 107
4 6 107 64 94
4 0 110 25 62
4 0 110 97 64
4 25 62 65 9
5 25 110 97 71 9
4 65 67 71 9
4 71 67 64 97
4 28 36 65 5
4 55 34 65 36
4 28 97 107 5
4 55 99 38 34
5 65 5 107 38 34
4 97 107 38 99
4 28 9 23 49
4 85 54 9 28
4 23 49 115 69
5 9 54 34 69 23
4 85 54 34 78
4 78 34 69 115
4 19 54 3 10
4 10 3 110 88
4 67 18 54 19
5 54 18 24 110 3
4 88 110 24 90
4 18 67 90 24
4 27 84 3 37
5 27 37 63 5 16
4 84 46 16 27
4 3 37 63 12
5 12 3 84 46 32
4 12 32 5 63
4 5 16 46 32
5 23 51 3 31 11
4 11 95 5 23
4 11 95 78 31
4 3 14 30 51
4 31 78 14 3
4 23 5 30 51
5 14 30 5 95 78
5 116 10 105 22 81
4 10 6 23 116
4 10 6 32 105
4 116 81 104 23
4 104 81 22 18
5 6 23 104 18 32
4 105 32 18 22
4 69 111 32 1
5 116 69 1 52 110
4 32 1 52 85
4 116 110 7 51
4 51 116 69 111
5 7 51 111 32 85
4 110 52 85 7
4 7 37 113 28
4 28 109 14 7
5 28 109 39 92 113
5 108 34 14 7 37
4 37 113 92 108
4 108 92 39 34
4 34 39 109 14
4 50 41 107 4
4 52 88 107 4
4 50 41 8 54
4 8 54 55 70
5 70 88 107 41 8
4 55 52 88 70
4 56 37 8 10
4 10 94 65 8
4 56 119 68 37
5 37 68 18 65 8
4 46 18 68 119
4 94 65 18 46
4 75 114 47 50
5 75 50 101 115 112
4 50 101 89 47
4 114 100 112 75
5 114 47 89 53 100
4 100 53 115 112
4 89 53 115 101
5 48 92 58 75 30
4 92 48 89 66
4 30 57 89 48
4 58 82 91 75
4 30 75 91 57
4 92 58 82 66
5 89 57 91 82 66
4 114 86 45 81
5 114 91 83 118 86
4 86 45 15 118
4 114 91 119 81
5 81 45 15 90 119
4 118 83 90 15
4 119 91 83 90
4 80 74 87 15
4 80 15 103 98
4 114 43 87 74
4 59 114 43 94
4 98 103 94 59
5 94 103 15 87 43
4 86 77 29 114
4 86 77 92 118
5 77 29 99 115 92
4 114 29 99 91
4 83 115 92 118
4 99 91 83 115
4 19 42 98 112
4 112 19 43 91
4 42 98 72 45
4 45 47 102 72
5 98 72 102 91 112
4 47 102 91 43
4 36 117 89 74
4 36 117 83 75
4 74 89 73 77
4 79 77 73 103
4 75 83 103 79
5 73 103 83 117 89
4 86 61 59 75
4 61 59 99 72
4 87 109 75 86
5 59 75 109 93 99
4 72 89 93 99
4 89 87 109 93
4 79 98 100 62
4 62 43 118 79
5 62 100 119 117 43
5 66 98 79 118 101
4 100 119 66 98
4 66 101 117 119
4 43 117 101 118
4 48 60 43 86
4 86 96 105 43
4 48 73 90 60
4 98 96 105 82
4 73 98 82 90
5 105 82 90 60 43
5 61 12 43 57 81
4 61 12 58 98
4 61 98 53 81
4 12 58 83 43
4 53 93 57 81
5 53 93 83 58 98
4 43 83 93 57
4 80 29 96 42
4 80 29 102 89
4 42 96 75 118
5 29 102 85 75 96
4 60 85 75 118
4 60 85 102 89
4 35 14 30 74
4 99 78 14 35
4 74 30 5 113
4 95 66 99 78
4 66 95 5 113
5 44 88 0 22 68
4 88 103 94 0
4 94 0 22 43
4 15 44 68 87
4 43 22 68 87
4 15 44 88 103
4 36 102 52 20
4 9 26 102 36
4 20 52 115 39
4 26 9 41 73
5 26 102 52 115 73
4 39 115 73 41
4 50 9 33 75
4 50 9 113 101
5 70 76 113 9 33
4 112 70 33 75
4 112 70 76 115
4 113 101 115 76
4 20 19 103 64
4 19 103 40 8
4 22 20 64 119
4 25 8 40 72
4 72 25 22 119
5 72 119 64 103 40
4 56 27 113 40
4 27 57 87 113
4 56 59 79 40
4 59 14 65 79
5 79 65 87 113 40
4 57 87 65 14
4 49 26 116 11
4 58 96 116 11
4 60 47 26 49
5 96 116 26 47 54
4 58 96 54 32
4 60 47 54 32
5 80 108 12 30 104
4 80 53 31 108
4 104 80 53 24
4 108 12 105 31
4 12 105 85 30
5 105 31 53 24 85
4 104 24 85 30
4 42 12 32 21
4 46 90 21 32
4 116 3 12 42
4 84 53 116 3
4 53 84 46 90
4 80 108 38 66
4 80 104 16 66
4 12 108 38 94
4 30 109 94 12
4 104 30 109 16
5 38 94 109 16 66
4 97 102 85 4
5 97 76 69 39 4
4 75 39 4 85
4 29 76 69 96
4 69 96 75 39
4 29 76 97 102
4 62 100 116 8
4 8 62 43 17
5 116 8 17 71 44
4 119 44 116 100
4 119 117 71 44
4 43 117 71 17
4 1 88 73 21
4 21 73 45 17
4 1 105 100 88
5 100 88 73 45 25
4 100 105 54 25
4 17 45 25 54
4 48 26 76 92
4 30 7 26 48
5 55 31 76 26 7
4 7 30 75 55
4 58 31 55 75
4 31 58 92 76
4 6 11 80 63
4 63 80 81 106
4 6 11 82 94
4 106 81 84 14
4 94 82 84 14
5 56 3 106 104 44
4 56 82 105 3
4 82 56 44 90
4 105 3 106 43
4 43 106 104 60
4 104 60 90 44
4 51 80 27 7
4 51 80 92 111
4 93 85 7 27
4 32 95 92 111
4 93 85 32 95
4 105 19 50 85
4 31 69 19 105
4 50 85 24 71
4 73 53 31 69
4 71 24 53 73
4 109 36 62 94
4 16 68 36 109
4 70 38 94 62
4 38 70 72 66
4 16 68 72 66
4 65 20 112 79
5 20 117 97 88 112
4 65 87 117 20
4 79 40 88 112
4 113 97 88 40
4 87 117 97 113
4 35 2 97 72
4 33 77 72 35
4 109 101 97 2
4 65 41 77 33
5 77 72 97 101 41
4 65 41 101 109
4 54 20 112 96
4 117 47 54 20
4 112 96 116 88
4 26 97 88 116
4 26 97 117 47
4 12 6 40 61
4 40 61 81 44
4 12 43 67 6
5 44 40 6 67 16
4 81 44 16 57
4 57 43 67 16
5 76 108 111 5 49
4 49 93 99 76
4 93 49 5 109
4 59 108 76 99
4 108 59 75 111
4 111 75 109 5
4 3 34 38 56
4 44 107 38 56
4 106 65 34 3
4 106 65 5 104
4 44 107 5 104
4 0 34 69 88
4 54 22 0 34
4 9 68 22 54
4 68 9 23 44
4 69 88 44 23
5 37 110 13 107 23
4 55 110 13 78
4 78 13 107 39
4 37 33 55 110
4 111 23 37 33
4 111 39 107 23
4 20 55 31 1
4 55 20 18 7
4 31 1 107 76
4 71 26 76 107
4 18 7 26 71
4 22 110 13 46
4 67 107 13 46
4 106 37 23 17
4 22 110 37 106
4 67 107 23 17
4 18 2 27 104
4 104 27 76 23
4 2 18 32 78
4 38 6 23 76
4 32 78 38 6
4 1 34 108 11
4 44 37 108 11
4 34 1 46 14
4 37 44 24 7
4 24 7 14 46
4 4 71 44 13
4 116 31 13 44
4 17 32 4 71
4 31 116 8 34
4 34 8 17 32
4 76 110 24 49
4 24 49 5 18
4 54 111 108 3
4 3 108 76 110
4 18 5 111 54
4 76 13 0 70
4 70 0 14 33
4 76 13 16 113
4 14 33 9 18
4 18 9 113 16
4 97 68 18 4
4 65 39 4 18
4 8 69 76 37
4 69 8 65 39
4 76 37 68 97
4 20 67 16 2
4 67 20 34 6
4 16 2 110 44
4 40 70 34 6
4 70 40 44 110
4 73 42 51 26
4 42 73 115 58
4 114 102 26 51
4 114 102 52 105
4 105 52 115 58
4 95 49 48 118
4 12 51 48 118
4 49 95 82 53
4 29 59 12 51
4 53 82 59 29
4 53 11 10 100
4 10 100 114 12
4 15 89 53 11
4 12 114 47 17
4 17 47 89 15
4 91 62 10 82
4 40 66 82 10
4 106 57 91 62
4 57 106 45 89
4 89 45 40 66
4 27 66 101 28
4 27 66 98 29
4 101 28 30 118
4 79 33 29 98
4 118 30 33 79
4 96 77 41 19
4 101 83 19 41
4 77 96 100 72
4 100 72 97 52
4 83 101 97 52
4 91 100 25 36
4 87 45 25 36
4 88 64 91 100
4 73 101 87 45
4 64 88 73 101
4 28 102 72 113
4 91 109 28 102
4 113 72 98 92
4 39 112 98 92
4 109 91 112 39
4 74 72 40 63
4 74 72 119 57
4 40 63 118 103
4 109 64 103 118
4 109 64 119 57
4 10 103 73 116
4 83 105 10 103
4 73 116 81 89
4 89 81 22 117
4 105 83 117 22
4 61 114 84 56
4 63 30 114 61
4 56 84 93 66
4 15 60 30 63
4 60 15 66 93
4 93 28 50 83
4 28 93 53 26
4 58 111 50 83
4 53 26 77 98
4 77 98 58 111
4 38 13 49 92
4 84 59 38 13
4 104 63 92 49
4 7 33 59 84
4 63 104 7 33
4 90 1 0 119
4 0 119 81 3
4 90 1 6 15
4 81 3 8 45
4 8 45 15 6
4 111 9 71 21
4 97 115 21 71
4 25 96 31 110
4 9 111 96 25
4 115 97 110 31
4 25 68 2 55
4 64 112 55 2
4 25 68 113 77
4 77 113 107 69
4 69 107 64 112
4 8 106 35 70
4 119 88 70 35
4 41 87 106 8
4 16 107 88 119
4 16 107 41 87
4 37 70 99 27
4 27 99 64 16
4 79 63 37 70
4 5 39 79 63
4 16 64 39 5
4 71 23 11 90
4 31 52 90 11
4 51 47 22 3
4 52 31 3 22
4 71 23 51 47
4 78 4 21 58
4 21 58 108 23
4 78 4 24 84
4 29 26 23 108
4 26 29 84 24
4 24 13 56 81
4 13 24 60 95
4 81 56 108 51
4 51 108 6 17
4 6 17 60 95
4 57 35 0 46
4 57 35 37 104
4 38 95 46 0
4 104 37 40 15
4 15 40 38 95
4 4 115 99 2
4 4 115 92 5
4 2 99 29 7
4 7 29 77 9
4 77 9 5 92
4 69 41 67 1
4 1 67 117 52
4 69 41 45 116
4 68 110 116 45
4 68 110 52 117
5 0 94 82 105 1
4 2 109 94 0
4 4 85 105 1
5 2 109 93 85 4
4 82 93 85 105
4 93 82 94 109
4 10 103 64 0
5 103 10 11 58 98
5 99 64 0 13 78
4 58 11 13 78
4 99 78 58 98
4 98 103 64 99
5 19 43 94 65 20
4 19 43 60 21
4 5 65 20 4
5 5 4 21 60 95
4 94 65 5 95
4 94 43 60 95
5 28 102 89 57 27
4 27 57 46 13
4 4 28 102 52
5 90 52 4 13 46
4 90 52 102 89
4 57 89 90 46
4 35 59 75 36
5 35 0 3 84 59
5 20 54 85 75 36
4 3 54 20 0
4 85 84 3 54
4 59 84 85 75
5 41 19 42 118 79
4 1 107 41 19
4 11 95 118 42
5 11 1 107 38 95
4 79 41 107 38
4 38 95 118 79
5 49 104 15 89 48
4 48 50 117 89
4 4 18 104 49
5 50 4 18 67 117
4 15 67 18 104
4 117 67 15 89
5 99 27 56 119 72
4 27 99 115 49
4 11 90 119 56
5 90 11 49 115 73
4 73 115 99 72
4 73 90 119 72
4 61 98 112 62
5 61 56 108 29 98
5 112 62 0 34 55
4 108 56 0 34
4 29 55 34 108
4 112 55 29 98
5 36 62 106 14 33
4 111 50 36 33
4 19 62 106 17
5 50 111 32 17 19
4 33 14 32 111
4 17 32 14 106
5 36 25 47 114 74
4 110 2 36 25
4 114 74 27 84
5 27 2 110 24 84
4 24 110 25 47
4 24 84 114 47
4 48 80 66 101
5 44 40 66 80 11
5 21 71 41 101 48
4 44 71 21 11
4 40 44 71 41
4 101 41 40 66
5 63 33 77 86 61
4 61 63 6 10
4 19 86 77 69
5 19 69 34 6 10
4 34 69 77 33
4 33 34 6 63
5 35 70 25 100 61
4 80 53 100 61
4 27 76 70 35
5 76 27 80 53 26
4 70 25 26 76
4 100 25 26 53
4 68 45 86 36
5 51 17 45 86 48
5 68 18 7 28 36
4 48 28 7 51
4 18 7 51 17
4 45 17 18 68
4 61 40 113 74
5 42 61 40 8 116
5 48 26 9 113 74
4 116 42 48 26
4 8 116 26 9
4 9 8 40 113
4 21 83 93 49
5 21 83 103 67 1
5 49 13 16 66 93
4 13 16 67 1
4 103 67 16 66
4 103 83 93 66
5 10 12 59 79 62
4 12 10 1 32
4 39 20 62 79
5 1 20 39 78 32
4 59 12 32 78
4 78 39 79 59
4 91 82 56 35
5 55 2 35 91 102
5 13 31 53 82 56
4 13 31 55 2
4 102 55 31 53
4 82 53 102 91
5 20 2 14 46 22
4 22 47 50 20
4 2 28 30 14
5 28 30 60 47 50
4 30 60 46 14
4 60 47 22 46
5 86 62 8 54 96
4 74 86 96 29
4 37 8 62 35
5 37 7 29 74 35
4 96 54 7 29
4 7 37 8 54
5 81 80 74 72 45
4 81 24 49 80
4 97 28 74 72
5 28 97 71 24 49
4 45 72 97 71
4 24 71 45 81
4 87 15 42 86
5 86 50 9 65 87
5 42 21 23 6 15
4 23 21 50 9
4 9 65 6 23
4 87 65 6 15
4 10 88 73 42
5 88 10 56 38 70
5 77 92 80 42 73
4 80 56 38 92
4 77 73 88 70
4 38 70 77 92
4 13 38 39 4
4 94 46 13 38
4 52 4 39 112
5 103 94 38 39 112
4 103 94 46 90
4 20 117 90 1
4 101 39 20 117
4 60 32 1 90
4 93 60 32 78
5 93 101 117 90 60
4 78 2 97 115
5 119 117 97 2 16
4 2 16 95 78
4 83 82 119 117
5 83 115 78 95 82
4 83 115 97 117
5 112 19 105 58 75
4 19 105 46 67
4 67 19 112 64
4 109 75 112 64
4 95 58 75 109
5 67 46 95 109 64
5 115 31 1 88 112
4 84 46 1 31
4 1 88 119 46
4 91 119 88 112
4 115 93 91 112
5 93 84 46 119 91
4 52 20 18 24
5 83 91 64 20 52
4 16 64 20 18
4 57 91 64 16
4 57 91 83 60
5 18 24 60 57 16
4 31 52 20 34
4 20 64 38 34
5 31 58 59 38 34
4 91 59 58 83
4 83 52 31 58
4 50 75 78 4
4 18 4 78 14
4 117 91 75 50
5 75 91 94 14 78
4 94 14 18 67
4 0 22 24 13
4 0 64 117 22
4 85 24 13 78
4 99 78 85 102
5 24 85 102 117 22
4 43 62 0 46
4 32 34 0 46
4 62 112 83 43
4 32 85 55 34
5 46 32 85 83 43
4 112 20 2 99
4 22 20 112 100
4 14 59 99 2
4 59 14 46 82
5 112 100 82 59 99
4 55 52 117 36
4 55 36 109 78
5 117 36 109 57 43
5 55 52 105 84 78
4 84 105 43 57
4 105 43 117 52
5 64 107 4 115 101
4 6 32 4 107
4 32 4 115 58
5 58 118 94 6 32
4 118 101 115 58
4 94 64 101 118
4 109 28 49 95
4 28 109 64 97
4 24 46 95 49
4 46 67 71 24
4 52 1 11 53
4 95 93 53 11
4 1 52 97 107
5 53 93 99 97 52
4 95 38 99 93
4 19 83 82 10
4 95 82 10 6
4 19 69 115 83
4 6 34 78 95
4 66 27 2 64
4 82 66 27 84
4 110 88 64 2
5 88 64 66 82 90
4 84 24 90 82
4 5 28 85 32
5 87 16 5 28 101
4 83 101 28 85
4 43 87 101 83
4 46 16 87 43
5 96 31 3 10 100
4 94 14 3 10
4 94 91 100 10
4 100 91 75 96
4 78 31 96 75
4 65 18 22 62
5 62 91 114 105 22
4 62 91 109 65
4 32 105 114 30
4 30 114 91 109
5 30 109 65 18 32
4 0 14 7 110
5 0 119 100 52 110
4 14 57 119 0
4 57 119 100 114
4 114 100 52 85
5 114 57 14 7 85
4 50 54 34 39
4 50 83 105 54
5 118 109 39 50 83
5 54 34 14 12 105
4 12 105 83 118
4 118 12 14 109
4 10 105 84 56
4 88 10 105 52
4 78 84 56 38
4 78 55 70 38
4 91 36 28 93
4 36 91 119 68
4 7 84 93 28
4 84 46 18 7
4 24 4 107 44
4 4 115 53 24
5 24 53 89 119 44
4 119 64 107 44
4 119 64 101 89
5 92 58 21 69 39
4 90 21 69 88
4 58 21 90 82
4 69 39 64 88
4 64 66 92 39
4 50 71 107 39
4 50 83 90 71
4 16 109 118 15
5 15 90 71 107 16
4 109 39 107 16
4 96 19 20 55
4 114 43 19 96
4 33 55 20 65
5 55 96 114 59 33
4 65 94 59 33
4 70 62 22 110
4 99 70 62 91
5 70 110 31 29 99
4 29 114 105 31
4 105 22 110 31
4 35 106 18 2
4 35 106 43 91
4 55 2 18 54
5 106 43 47 54 18
4 102 55 54 47
4 111 21 1 34
4 83 21 111 75
4 65 34 1 67
5 79 65 34 111 75
4 65 79 103 67
4 71 4 2 68
4 47 85 4 71
4 109 2 68 87
5 89 47 71 68 87
4 47 85 93 89
4 38 76 110 0
4 0 119 66 38
4 98 100 52 115
5 115 76 38 66 98
4 52 110 76 115
4 69 1 0 70
4 94 0 70 79
4 105 1 69 96
5 70 79 98 96 69
4 79 98 82 94
4 97 68 35 99
5 35 57 81 22 68
4 99 35 57 93
4 53 81 22 52
4 52 97 68 22
4 20 67 87 36
4 87 36 75 118
4 54 17 67 20
4 17 60 85 54
5 60 17 67 87 118
4 97 4 21 73
4 60 21 73 89
4 5 4 97 113
5 66 113 97 73 89
4 89 60 95 66
5 88 97 76 13 44
4 92 76 13 95
4 95 13 44 15
4 76 92 101 97
5 95 15 103 101 92
4 88 103 101 97
4 11 6 5 49
4 11 90 67 6
4 115 39 5 49
4 67 41 73 90
5 6 67 41 39 5
4 8 3 105 19
4 19 8 70 112
5 108 3 8 70 33
4 58 108 33 75
4 58 105 3 108
4 3 56 27 7
4 7 55 99 27
4 56 119 22 3
5 3 22 25 55 7
4 55 25 72 99
4 50 85 114 86
4 57 87 86 114
4 9 50 85 7
4 7 9 65 14
4 62 94 118 86
4 118 86 96 58
4 6 94 62 8
4 8 54 32 6
4 102 74 30 85
5 30 74 87 106 104
4 102 74 87 117
4 24 104 106 22
4 106 22 117 87
4 88 0 35 72
4 98 59 35 72
4 0 3 116 88
5 72 88 116 53 98
4 98 59 84 53
5 96 42 12 108 111
4 103 112 96 42
4 42 12 94 103
4 111 96 112 39
4 39 111 108 38
4 84 29 76 13
4 81 44 13 84
5 81 100 102 29 84
4 88 100 81 44
4 102 100 88 97
4 9 71 117 36
4 36 9 5 109
5 9 71 17 104 5
4 57 104 17 43
4 109 57 104 5
4 61 12 14 35
4 61 12 105 100
4 70 35 14 34
4 34 54 25 70
4 25 55 75 86
4 22 43 86 25
5 30 12 43 86 75
4 3 7 30 12
4 12 3 22 43
4 62 100 102 36
4 33 36 102 29
4 81 106 62 100
4 29 84 14 33
5 68 113 27 104 44
4 60 93 27 104
4 93 101 113 27
4 68 113 101 117
4 117 68 44 90
4 103 19 50 101
4 15 103 19 17
4 92 111 50 101
4 15 17 32 95
4 13 107 40 56
4 13 31 69 107
4 103 40 56 82
5 73 103 40 107 69
4 82 53 73 103
4 110 13 49 26
4 16 13 110 68
4 102 93 49 26
5 72 102 26 110 68
4 102 93 66 72
4 6 1 31 108
4 1 6 40 88
4 31 108 92 115
5 79 92 108 6 40
4 79 112 115 92
4 32 21 48 30
4 48 30 109 101
4 18 71 21 32
4 18 71 41 65
4 2 7 26 97
4 7 104 16 2
5 104 81 47 26 7
4 119 81 104 16
4 81 119 117 47
4 41 86 75 39
4 86 43 67 41
4 30 5 6 12
4 75 30 5 39
5 69 116 11 108 76
4 11 108 59 82
4 82 100 116 11
4 112 100 116 69
4 99 76 69 112
5 114 61 106 3 51
4 79 61 114 75
4 79 61 106 65
4 111 51 3 34
4 114 51 111 75
4 35 68 9 33
4 33 35 57 30
5 33 9 54 51 30
4 81 51 54 22
4 51 81 57 30
4 59 33 37 56
5 116 81 56 37 110
4 59 56 81 114
4 114 81 116 96
4 55 110 116 96
4 15 80 27 16
4 53 80 15 90
4 27 16 107 76
4 53 26 71 90
5 113 92 49 23 107
4 60 49 23 17
4 60 49 92 118
4 92 118 87 113
4 107 67 87 113
4 21 115 98 42
4 21 23 76 115
4 66 98 42 15
4 66 15 6 38
4 74 89 119 35
4 37 44 119 35
4 53 29 74 89
4 29 7 24 53
4 58 42 61 59
4 38 59 61 40
4 116 31 58 42
4 38 34 8 40
4 47 48 111 54
5 63 118 48 111 5
4 47 48 118 43
4 63 106 43 118
4 106 63 5 18
4 48 60 57 74
4 60 24 26 48
4 113 16 57 74
4 24 18 9 26
4 17 8 69 21
4 17 21 58 12
5 12 63 65 8 17
4 92 58 12 63
4 65 39 92 63
4 31 11 80 29
4 99 29 80 66
4 44 11 31 110
4 99 70 40 66
4 61 114 102 72
4 72 68 106 61
4 110 26 51 3
4 110 68 106 3
4 10 116 25 62
4 10 116 51 12
4 77 25 62 79
5 116 51 29 77 25
4 77 29 59 79
4 63 74 36 65
4 65 8 25 36
4 114 12 63 74
4 25 8 17 47
4 28 9 37 27
4 27 37 106 57
4 25 102 28 9
5 9 25 45 106 37
4 102 89 45 25
4 42 51 54 19
4 9 41 19 54
4 42 118 30 51
4 9 41 79 33
4 37 3 10 40
4 40 10 100 72
4 31 3 37 76
4 31 76 77 96
5 77 72 40 37 76
4 28 26 23 5
4 26 73 101 28
5 23 44 45 73 26
4 16 44 45 87
4 16 5 23 44
4 53 116 23 49
4 49 92 98 53
4 107 23 116 88
4 72 113 107 88
4 73 48 111 69
4 73 48 118 103
4 107 5 63 40
4 5 111 69 107
4 56 37 113 66
4 56 81 89 66
4 110 37 113 97
4 110 97 73 116
4 113 28 50 41
4 113 28 30 63
4 45 47 50 41
5 15 45 41 113 63
4 47 60 15 45
4 23 11 10 8
4 103 10 8 41
4 11 58 111 23
5 8 41 77 111 23
4 103 98 77 41
4 86 47 81 61
4 81 61 63 104
4 77 86 47 26
4 26 7 33 77
4 33 74 80 108
4 108 80 81 3
4 70 33 74 72
4 72 70 8 45
4 45 42 96 25
4 45 106 12 42
4 106 37 108 12
4 108 37 9 111
4 27 104 51 29
4 27 113 77 29
4 68 25 116 44
4 104 44 116 51
4 111 77 74 30
4 74 77 41 87
4 104 23 8 106
4 30 104 23 111
5 37 23 51 80 63
4 96 51 80 98
4 80 98 79 63
4 23 51 96 69
4 70 37 23 69
4 80 89 47 51
4 87 89 80 63
4 87 68 37 63
4 37 68 71 23
4 61 45 44 56
4 61 98 73 45
4 44 56 108 23
4 73 98 29 26
4 86 79 92 48
4 86 45 40 79
4 48 92 108 51
4 45 17 6 40
4 77 48 49 76
4 48 89 72 77
4 49 76 37 104
4 72 89 15 40
4 42 17 104 80
4 80 92 5 104
4 73 42 17 71
4 71 73 77 9
4 11 108 63 15
4 15 11 116 45
4 108 76 113 63
4 113 76 69 41
4 1 4 50 19
5 1 19 8 116 88
4 8 19 50 9
4 1 88 97 4
5 9 50 4 97 26
4 4 13 11 21
5 17 21 11 116 51
4 13 110 116 11
4 17 21 4 18
5 4 18 7 110 13
4 21 19 86 48
5 19 112 100 25 86
4 25 86 48 26
4 19 112 115 21
5 115 21 48 26 53
4 4 28 36 20
4 34 20 36 33
5 36 28 113 77 33
5 20 34 69 107 4
4 4 107 113 28
4 10 19 20 0
5 10 40 44 119 0
4 19 41 40 10
4 0 119 117 20
5 20 117 71 41 19
4 11 49 48 42
5 48 42 96 114 47
4 49 24 47 48
4 31 11 42 96
5 49 11 31 84 24
4 48 74 36 50
4 55 36 74 29
5 50 36 55 112 39
5 48 74 29 98 92
4 50 48 92 39
4 4 2 27 49
4 27 49 23 37
5 37 27 2 14 33
5 49 4 32 111 23
4 4 32 14 2
4 1 11 56 0
4 22 0 56 81
5 18 67 1 0 22
5 104 15 11 56 81
4 15 11 1 67
4 61 42 19 62
5 61 72 119 91 62
4 72 73 42 61
4 62 91 83 19
5 42 73 90 83 19
4 62 0 2 36
5 79 62 36 87 41
4 36 87 16 2
4 0 62 79 38
5 0 2 16 107 38
4 28 48 80 27
4 80 108 111 48
5 80 27 84 59 108
5 28 48 111 75 85
4 28 85 84 27
4 10 61 80 11
4 105 10 61 114
5 80 61 114 57 89
5 46 105 10 11 90
4 11 90 89 80
4 13 27 35 0
5 35 0 94 65 106
4 35 106 104 27
4 94 0 13 95
5 13 27 104 5 95
4 35 61 86 36
5 98 61 86 118 103
4 35 99 98 61
4 36 109 118 86
5 35 36 109 64 99
4 56 27 74 61
4 61 12 30 74
5 61 56 82 94 12
5 27 93 109 30 74
4 56 82 93 27
4 50 21 49 28
5 49 76 29 7 28
4 50 28 7 54
4 69 21 49 76
5 54 50 21 69 96
4 1 10 42 21
5 42 45 81 100 10
4 100 10 1 52
4 45 42 21 71
5 1 52 24 71 21
4 13 2 20 1
4 1 20 65 6
5 2 20 65 9 68
5 6 1 13 44 23
4 2 13 44 68
4 62 86 50 20
4 70 62 86 77
5 77 86 50 101 73
5 70 88 64 20 62
4 50 101 64 20
4 56 10 62 35
4 43 62 35 57
5 66 16 57 35 56
5 62 10 103 67 43
4 56 10 103 66
4 35 74 28 2
5 74 35 59 79 63
4 2 78 59 35
4 74 28 5 63
5 78 39 5 28 2
4 86 42 80 74
5 74 102 91 75 86
4 42 58 75 86
4 102 53 80 74
5 42 80 53 82 58
4 49 13 56 80
4 56 3 51 80
5 49 80 51 30 60
5 13 46 14 3 56
4 49 13 46 60
4 118 86 47 60
5 90 60 47 81 53
4 90 53 98 103
4 103 118 60 90
4 33 74 87 65
5 66 101 87 74 72
5 39 65 33 70 38
4 101 87 65 39
4 101 39 38 66
5 95 32 12 108 11
4 16 44 11 95
5 16 18 106 37 44
4 12 106 18 32
4 16 18 32 95
4 13 95 58 31
5 51 29 31 58 111
4 51 111 5 104
4 5 95 58 111
4 27 93 115 76
5 77 76 115 39 111
4 39 109 30 111
4 109 93 115 39
4 49 115 83 60
4 51 30 75 96
5 98 96 75 83 115
4 60 83 75 30
5 37 63 6 38 56
4 119 64 38 56
4 87 67 6 63
5 67 87 68 119 64
4 67 64 38 6
4 61 12 17 45
4 12 94 67 17
5 45 17 67 90 44
4 90 82 94 67
4 79 86 43 94
5 117 89 45 86 43
5 79 40 66 64 94
4 66 64 117 89
4 64 94 43 117
4 79 77 48 118
5 118 48 89 93 83
5 99 112 79 77 72
4 83 112 79 118
4 99 112 83 93
4 58 42 17 32
5 17 32 46 24 104
4 24 53 82 46
4 58 82 46 32
5 34 108 76 13 78
4 78 13 16 109
4 63 65 34 108
5 63 113 16 109 65
4 65 34 78 109
5 10 6 17 106 3
4 6 10 88 107
4 17 71 68 106
5 88 107 71 68 110
4 71 17 6 107
4 47 25 62 43
5 73 116 25 47 71
4 47 71 67 43
4 103 73 71 67
5 72 97 117 36 25
4 65 36 117 67
5 40 8 65 67 107
4 107 40 72 97
4 117 97 107 67
4 9 41 101 28
5 99 115 101 28 102
5 69 41 9 25 70
4 70 99 115 69
4 69 41 101 115
4 83 85 54 19
5 24 85 54 51 26
4 24 26 73 90
4 85 24 90 83
5 1 31 3 54 32
4 5 107 1 32
4 9 54 3 37
5 107 5 9 37 76
4 5 32 54 9
4 78 2 110 31
5 69 23 26 110 31
4 23 69 39 5
4 78 39 69 31
4 32 105 52 4
4 96 116 23 111
5 53 52 105 96 116
4 111 32 105 96
4 97 52 85 28
4 69 111 75 112
5 69 112 52 97 73
4 52 85 75 112
5 0 34 8 37 110
4 0 34 39 64
4 113 41 8 37
4 41 8 34 39
5 39 64 97 113 41
4 41 50 83 103
5 47 50 83 52 102
5 41 103 88 72 45
4 72 102 52 88
4 52 88 103 83
4 105 54 8 10
5 8 54 18 71 23
4 54 105 46 18
4 18 71 90 46
4 92 80 89 101
4 114 75 109 57
5 75 79 92 101 109
4 89 57 109 101
4 66 92 108 56
5 33 30 5 92 108
4 16 66 92 5
4 16 57 30 5
4 11 15 118 58
5 59 114 30 118 58
4 114 81 104 30
4 15 118 30 104
4 15 6 108 80
4 108 59 94 6
4 94 59 84 46
5 94 6 15 16 46
5 92 38 99 27 113
4 57 91 99 27
4 94 38 92 118
4 38 94 91 99
5 118 94 91 57 87
4 59 98 42 12
5 43 60 15 42 12
4 91 59 12 43
5 93 66 98 59 91
4 93 91 43 60
4 15 89 74 63
4 82 59 79 103
4 15 63 79 103
5 103 15 89 119 82
4 14 106 61 59
5 106 61 40 15 87
5 14 109 95 38 59
4 106 14 109 87
4 15 95 109 87
4 119 81 80 66
5 118 95 66 80 63
5 119 46 43 106 81
4 119 66 95 46
4 46 95 118 43
4 48 92 95 60
4 82 84 29 98
4 92 98 82 95
5 60 95 82 84 57
4 104 49 93 57
5 93 49 92 58 78
5 12 14 57 104 63
4 12 58 78 14
4 93 57 14 78
4 33 63 80 29
5 78 99 29 33 75
4 63 33 75 118
4 118 75 78 95
5 35 70 40 113 68
4 68 18 14 35
4 5 113 40 6
5 14 18 5 6 34
4 113 5 18 68
4 42 15 44 116
5 24 22 3 116 44
4 44 15 60 24
4 24 60 43 22
4 87 89 102 36
4 73 41 79 98
5 102 89 73 98 100
4 89 73 41 87
4 35 70 112 91
4 103 40 70 112
4 103 101 113 40
5 101 117 91 112 103
5 22 105 19 17 47
4 82 105 19 103
4 119 22 105 82
4 47 89 119 22
4 40 8 3 56
4 8 65 14 3
4 67 46 14 65
4 26 77 92 49
5 55 102 26 77 96
4 58 96 77 92
4 55 78 58 96
5 55 31 115 4 85
4 5 30 85 4
4 108 31 55 33
4 33 55 85 30
4 78 32 21 115
4 84 53 26 7
5 7 30 32 78 84
4 78 115 53 84
4 0 38 108 3
5 104 7 3 108 23
4 38 108 23 107
4 104 23 107 16
4 74 113 97 102
4 64 91 75 39
4 91 64 97 102
4 21 17 43 83
4 114 100 116 51
4 114 51 17 43
5 82 100 114 43 83
4 98 58 21 73
5 21 58 105 85 60
4 105 100 98 58
4 102 85 105 100
5 70 76 97 2 55
4 109 75 55 2
4 70 79 75 55
4 79 70 76 92
4 31 11 6 34
4 34 31 84 14
4 14 84 24 18
4 23 21 60 104
4 7 3 105 85
4 7 104 60 85
4 7 27 113 9
5 7 55 34 111 9
4 92 111 34 38
4 113 9 111 92
4 101 93 85 50
4 77 29 53 73
5 29 114 85 93 53
4 93 101 73 53
5 62 22 68 45 8
4 62 94 46 22
4 45 15 16 68
4 22 46 16 68
4 100 88 40 61
5 100 88 90 117 22
4 90 15 40 88
4 90 15 87 117
4 45 72 35 106
4 106 65 41 45
4 94 103 41 65
4 48 101 117 47
4 96 112 91 114
4 117 47 114 91
4 6 12 105 1
5 84 105 12 51 81
4 23 51 12 6
4 81 51 23 44
4 37 76 99 35
4 64 107 76 99
4 107 64 109 5
4 22 3 34 20
4 116 69 34 3
4 116 69 107 44
4 50 54 22 117
4 96 54 22 100
4 96 100 88 69
4 36 55 110 68
4 110 55 112 88
4 107 39 112 88
4 102 55 20 117
4 77 41 71 26
4 117 71 26 102
4 19 69 23 17
4 23 26 47 17
4 110 22 47 26
4 18 2 97 71
4 70 8 23 76
4 97 76 23 71
4 55 52 1 34
4 55 52 24 7
4 7 24 71 9
4 73 115 4 71
4 116 31 55 25
4 31 116 73 115
4 39 20 54 111
5 25 54 20 52 110
4 111 54 25 77
4 77 25 110 76
4 22 0 70 25
4 22 18 9 25
4 41 9 18 67
4 62 8 69 112
4 73 69 8 45
4 68 97 73 45
4 90 52 20 67
4 45 25 110 44
4 52 90 44 110
4 30 28 102 114
4 99 59 114 102
4 115 58 59 99
4 76 38 95 49
4 76 29 59 38
4 14 59 29 7
4 53 11 108 29
4 108 12 114 29
4 114 12 32 85
4 84 3 10 82
4 3 84 57 106
4 60 17 106 57
4 40 37 27 66
4 37 33 79 40
4 94 14 33 79
4 74 72 100 114
4 82 100 72 66
4 82 83 101 66
4 42 45 87 118
4 81 57 91 100
4 45 87 57 81
4 63 113 72 61
4 119 72 113 16
4 119 91 109 16
4 10 40 63 12
4 104 63 40 44
4 104 44 119 57
4 51 48 89 81
4 84 93 89 81
4 84 93 83 105
4 37 7 84 56
4 63 30 7 37
4 32 6 63 30
4 66 93 28 113
4 59 98 77 33
4 113 77 98 66
4 110 13 38 70
4 70 110 7 33
4 65 33 7 18
4 53 90 1 31
4 3 81 47 54
4 3 81 53 31
4 36 75 96 25
4 98 72 25 96
4 115 97 72 98
4 86 25 68 87
4 119 100 25 68
4 112 64 119 100
4 19 43 106 8
4 116 81 106 8
4 81 119 88 116
4 62 106 37 70
4 88 44 37 70
4 44 88 64 16
4 50 47 51 111
4 51 47 102 29
4 29 102 52 31
4 99 78 4 97
4 33 9 26 29
4 99 29 26 97
4 26 76 13 24
4 54 34 108 51
4 76 108 51 26
4 46 0 110 24
4 37 104 17 8
4 24 104 37 110
4 72 68 2 99
4 77 9 65 79
4 68 9 77 72
4 96 116 45 86
4 53 89 45 116
4 89 53 52 117
4 1 31 96 19
5 47 50 19 96 25
5 4 24 110 31 1
4 24 4 50 47
4 21 111 108 11
5 11 13 84 3 108
5 21 111 54 85 4
4 85 4 13 84
4 105 19 86 114
5 86 114 102 89 48
5 21 19 105 52 90
4 89 48 21 90
5 70 112 20 36 25
4 36 25 26 28
4 20 112 115 4
5 76 26 28 4 115
4 10 116 110 0
5 17 19 10 116 45
5 0 20 18 68 110
4 20 18 17 19
4 30 48 42 12
5 30 48 49 93 85
5 42 12 105 82 11
4 11 49 93 82
5 74 72 99 91 36
4 50 83 91 36
4 72 74 48 73
5 50 83 115 73 48
5 29 108 92 49 27
4 27 29 55 2
4 49 92 39 4
5 4 39 34 55 2
5 0 14 106 37 56
4 14 0 1 32
4 56 37 23 11
5 23 11 1 32 17
4 22 62 61 81
5 61 81 89 15 42
5 19 67 117 22 62
4 19 67 15 42
4 36 9 8 62
5 9 36 2 97 113
5 0 88 40 8 62
4 2 97 88 0
5 118 48 80 98 58
4 80 98 99 27
4 109 28 48 118
5 109 28 27 99 78
5 61 106 43 94 10
4 61 106 104 80
4 94 10 11 95
5 11 95 60 104 80
4 33 35 0 34
5 35 33 63 113 27
5 13 107 6 34 0
4 13 107 113 27
4 41 86 61 40
5 35 61 40 66 119
5 36 117 101 41 86
4 35 119 117 36
5 61 79 118 87 74
4 79 61 56 38
4 27 16 87 74
5 27 16 95 38 56
4 53 49 28 102
5 50 75 55 102 28
5 53 49 21 58 31
4 21 58 75 50
4 10 42 51 3
5 10 1 46 22 3
5 42 51 47 60 21
4 1 21 60 46
5 8 69 1 20 54
4 2 7 54 20
4 69 1 13 76
5 2 7 37 76 13
5 62 100 72 45 86
4 71 50 86 45
4 20 52 100 62
5 71 97 52 20 50
5 68 35 62 65 87
4 35 68 44 56
4 65 6 10 62
5 56 44 15 6 10
4 77 74 35 70
5 64 2 35 70 38
5 74 28 101 92 77
4 2 64 101 28
4 74 57 43 86
5 42 103 83 43 86
5 74 57 93 66 80
4 103 42 80 66
5 56 59 12 63 80
4 63 80 49 5
4 56 13 78 59
5 13 78 32 5 49
4 118 12 10 103
5 103 10 100 119 90
5 118 60 57 114 12
4 119 57 60 90
4 65 39 112 62
4 101 97 68 87
5 99 97 101 39 112
4 18 7 27 16
5 32 18 7 3 34
4 32 95 38 34
5 33 7 28 5 111
4 95 5 28 93
4 33 59 58 111
5 58 95 93 84 59
5 33 79 39 109 36
4 102 93 109 36
5 93 115 98 29 102
4 79 98 115 39
5 74 30 75 59 29
4 60 30 74 89
4 83 82 59 75
5 89 53 82 83 60
4 67 64 2 18
4 70 8 6 38
5 18 106 8 6 67
4 0 94 12 3
5 119 0 94 67 16
5 12 17 104 81 3
4 104 17 67 16
4 10 88 64 94
4 117 43 106 68
5 68 72 88 64 117
4 79 112 100 61
5 102 100 112 83 117
4 87 117 83 118
4 108 58 82 56
5 57 46 82 56 81
5 30 51 108 58 32
4 30 57 46 32
4 109 28 9 65
5 9 65 34 70 37
4 34 78 99 70
4 71 24 13 107
4 17 6 34 54
5 24 71 17 54 22
4 43 105 1 67
5 88 1 67 71 44
5 43 47 81 100 105
4 71 47 81 44
4 19 67 107 69
5 69 107 97 110 70
4 97 110 22 117
4 96 69 41 86
5 55 52 115 69 96
4 101 115 52 117
5 81 116 11 90 24
4 11 90 83 58
5 85 114 96 58 83
4 114 81 24 85
4 26 9 5 49
5 54 55 110 26 9
4 55 78 32 54
5 50 39 69 77 9
4 39 78 85 50
4 69 31 29 77
5 78 31 29 7 85
5 111 96 29 26 48
4 32 111 48 60
4 84 29 96 105
5 60 24 84 105 32
5 77 98 112 75 86
4 85 75 86 47
4 52 53 98 112
5 85 52 53 26 47
4 39 4 71 41
4 8 34 55 25
5 71 41 8 25 68
4 42 103 88 116
5 25 22 52 88 116
4 52 83 43 22
4 31 105 46 13
5 18 46 13 44 104
5 54 105 31 116 51
4 51 104 18 54
5 59 94 109 57 35
4 89 72 35 57
5 103 101 89 72 98
4 103 94 109 101
5 5 16 2 14 65
4 16 66 99 2
5 92 66 99 59 79
4 5 92 79 65
5 27 104 30 14 84
4 66 27 104 15
4 94 118 30 14
5 66 82 94 118 15
4 35 37 108 59
5 5 104 37 108 6
4 5 109 94 6
4 91 36 65 94
4 38 40 72 99
5 65 94 38 40 63
4 56 59 91 119
4 63 87 43 12
5 89 87 43 91 119
4 106 63 79 62
5 64 103 79 62 91
5 63 15 16 57 106
4 16 64 103 15
4 14 0 64 109
4 113 87 106 37
5 64 109 87 113 66
4 119 46 14 35
5 95 6 12 14 46
4 6 40 66 95
5 98 82 91 114 61
4 63 92 98 61
5 95 109 30 63 92
4 95 82 91 109
4 14 33 74 57
5 78 14 33 108 38
4 38 78 93 66
4 35 33 75 91
4 118 63 113 101
5 93 91 75 118 101
4 20 18 5 39
4 68 110 76 113
5 38 76 113 5 39
4 24 84 56 44
4 60 15 6 32
5 41 19 112 88 73
4 19 43 87 41
4 89 73 88 119
4 103 112 20 67
4 40 70 25 45
5 40 103 67 87 45
4 82 11 44 119
4 106 22 105 12
5 45 44 119 22 106
4 110 2 14 3
5 3 8 23 44 110
4 8 65 5 23
4 74 114 96 77
4 92 101 83 58
4 77 33 30 48
5 77 33 55 99 76
4 99 93 85 55
5 51 80 53 84 114
4 53 80 92 115
4 84 78 75 114
5 75 111 92 115 78
4 38 107 4 78
5 4 18 9 23 107
4 23 108 33 9
4 25 102 91 62
5 25 77 73 97 102
4 97 73 103 64
4 17 15 80 51
4 43 114 84 46
5 15 17 43 46 90
4 81 100 98 80
4 105 43 118 58
4 75 50 41 79
5 72 113 41 79 70
4 72 102 55 70
4 84 27 76 31
5 111 34 31 76 23
4 111 34 14 30
4 104 80 29 7
4 78 95 60 85
4 36 9 111 75
4 92 115 97 113
5 96 42 73 53 100
4 42 118 101 73
4 93 53 100 91
4 1 107 16 46
4 3 22 68 37
5 40 107 16 68 37
4 88 90 46 0
4 15 40 8 17
4 20 65 106 22
5 107 64 20 65 41
4 44 107 41 45
4 47 114 61 45
5 90 73 45 47 117
4 91 117 90 82
5 23 49 24 7 51
4 23 6 95 49
4 51 12 14 7
4 64 99 55 20
4 107 76 77 41
5 26 116 69 21 71
4 34 69 21 32
4 7 26 116 3
4 42 17 54 96
4 22 24 53 100
4 54 19 112 55
4 26 73 88 110
4 21 71 117 83
4 100 116 26 102
4 11 23 26 53
4 85 32 17 47
4 50 111 23 71
4 76 97 52 31
4 49 24 52 115
4 96 51 7 55
4 48 73 116 51
4 31 105 83 115
4 77 111 21 73
4 25 54 85 102
4 52 22 18 4
4 25 116 23 9
4 69 1 90 73
4 54 47 45 8
4 21 23 44 90
4 3 105 52 110
4 86 114 59 79
4 66 99 102 89
4 113 74 29 76
4 39 75 59 38
4 29 114 57 27
4 118 92 108 12
4 16 57 84 13
4 106 63 108 3
4 68 36 33 37
4 40 79 39 107
4 100 62 94 82
4 45 15 66 72
4 45 40 56 81
4 57 87 67 46
4 72 70 0 119
4 41 113 16 67
4 38 13 44 40
4 18 65 63 104
4 84 59 61 81
4 93 89 15 95
4 7 30 109 2
4 63 92 76 37
4 87 113 77 86
4 64 112 98 66
4 110 97 28 7
4 70 33 111 69
4 53 81 104 49
4 3 31 58 12
4 98 103 19 96
4 89 47 25 72
4 25 100 10 8
4 68 71 90 119
4 11 6 8 116
4 106 81 24 18
4 70 34 1 88
4 71 9 37 44
4 42 51 29 98
4 93 102 47 60
4 48 101 97 26
4 99 112 96 29
4 28 26 51 30
4 115 58 108 76
4 5 104 24 4
4 108 31 110 37
4 50 9 68 117
4 88 69 77 72
4 116 10 82 53
4 89 45 17 60
5 54 18 4 1 34
5 88 70 25 68 97
4 18 54 25 68
5 11 6 32 46 13
5 116 8 54 22 110
4 22 54 32 46
5 19 54 47 71 21
5 55 112 115 97 102
4 71 47 102 97
5 28 7 55 78 4
4 37 70 55 7
5 113 37 70 38 107
5 8 65 20 0 70
4 8 45 87 65
5 117 119 72 45 87
5 17 42 11 90 60
5 31 52 85 54 96
4 90 60 85 52
5 85 50 48 26 102
4 99 76 26 102
5 39 78 99 76 92
5 49 95 78 84 27
5 23 37 3 34 6
4 78 34 3 84
5 6 40 56 0 94
5 81 45 17 43 22
4 94 43 17 6
5 62 25 45 41 19
4 89 45 41 101
5 91 83 101 89 102
5 99 2 36 33 70
4 63 40 70 33
5 66 16 87 63 40
5 93 60 48 80 53
5 31 108 111 32 78
4 93 78 31 53
5 45 61 10 103 15
5 83 105 114 47 60
4 103 83 60 15
5 35 59 38 66 27
4 59 12 6 38
5 104 106 12 6 15
5 72 77 86 36 102
4 66 72 77 92
5 109 118 92 66 93
5 89 74 61 98 66
5 60 95 58 12 30
4 95 66 98 58
5 85 32 21 49 24
5 34 55 110 76 69
4 85 24 110 55
5 67 1 10 8 17
5 47 25 100 52 117
4 117 47 17 67
5 13 38 34 14 2
5 106 8 40 44 68
4 34 14 106 8
5 25 55 20 50 9
4 9 25 72 113
5 101 113 72 99 64
5 62 35 72 40 79
4 15 40 79 118
5 15 89 57 43 118
5 74 29 99 93 28
4 99 29 108 38
5 108 63 5 95 38
5 86 42 73 89 47
5 75 58 115 93 85
4 93 89 73 115
5 82 56 80 15 95
5 32 17 51 3 105
4 32 95 82 105
5 117 43 19 103 90
5 96 114 102 53 98
4 102 114 43 117
4 28 36 35 27
5 36 28 101 39 75
5 11 10 3 81 44
4 57 81 3 14
5 94 14 57 16 95
5 31 3 7 24 13
4 30 7 24 60
5 33 7 27 76 108
4 7 33 75 85
5 115 31 29 26 49
4 47 26 29 114
5 56 61 106 57 119
4 65 109 57 106
5 65 79 38 64 109
5 67 87 106 62 94
4 89 81 106 87
5 82 90 89 81 100
4 61 74 36 62
5 36 117 64 112 62
4 28 74 86 50
5 86 96 112 83 50
5 12 43 46 82 10
5 53 24 47 51 116
4 12 43 47 51
5 13 16 104 37 56
4 30 33 37 104
5 59 33 30 109 78
5 22 62 10 88 119
5 6 65 18 16 107
4 16 119 22 18
5 71 67 20 22 68
5 112 100 72 73 103
4 68 22 100 72
4 2 20 62 35
5 39 107 97 2 20
4 50 4 2 36
5 115 4 50 111 69
5 24 22 105 1 90
5 69 73 26 25 96
4 25 96 105 22
5 0 110 44 107 1
4 7 104 44 110
5 14 7 104 5 32
5 37 110 2 18 9
4 32 18 9 111
5 26 110 52 4 71
4 17 71 26 51
5 77 9 28 97 76
4 96 54 9 77
5 0 35 68 16 64
5 9 33 34 39 5
4 5 9 68 16
4 19 20 36 86
5 52 20 19 69 88
5 3 106 18 46 0
4 116 45 106 3
5 71 90 88 116 45
5 80 29 59 58 92
4 91 102 29 59
5 14 12 108 56 84
4 93 109 14 84
5 84 53 11 58 105
4 53 84 57 89
5 118 63 61 59 94
5 60 104 81 84 46
4 60 118 63 104
5 27 80 63 30 57
4 75 79 63 30
5 98 79 75 91 99
4 86 48 80 61
5 61 86 43 91 100
5 103 79 86 87 101
5 114 59 82 93 57
4 93 101 87 57
4 35 56 80 74
5 74 35 91 109 87
5 81 80 42 12 114
4 94 12 114 91
5 103 94 91 119 66
5 42 98 82 83 118
5 51 30 85 84 29
4 83 118 30 85
5 104 49 11 108 51
4 114 51 108 59
4 27 49 48 74
5 75 114 74 48 118
4 2 27 56 0
5 113 27 2 109 5
5 100 116 42 19 105
4 119 100 105 46
5 67 46 119 44 15
5 73 41 50 117 97
4 91 99 97 117
5 39 112 70 77 41
4 41 87 109 39
4 86 62 10 42
5 35 14 65 63 37
4 15 44 37 63
4 4 28 48 21
5 48 21 58 96 51
5 4 13 76 23 5
4 51 23 76 29
5 54 111 23 26 7
4 105 58 111 54
4 46 95 5 18
5 92 113 74 33 79
4 33 79 112 55
5 53 73 21 83 52
4 45 81 53 73
4 19 50 48 42
5 77 29 55 75 111
4 111 5 113 77
4 12 108 23 17
5 24 18 17 23 44
5 23 116 31 1 21
4 81 116 31 84
4 49 28 2 13
5 30 111 92 49 28
4 52 55 75 83
4 0 35 61 10
5 40 41 67 64 88
4 67 43 91 64
5 36 68 113 41 65
4 66 119 68 113
5 101 115 98 77 48
4 100 25 77 98
4 15 90 24 104
4 78 39 65 14
4 6 67 71 23
4 41 8 116 73
4 34 69 41 65
4 112 70 110 52
4 24 44 88 52
4 20 0 13 4
4 8 69 31 3
5 71 9 8 69 107
4 1 21 50 20
4 97 26 23 107
4 40 88 110 37
4 64 107 71 117
4 1 19 62 0
4 111 96 98 92
4 32 5 92 58
4 49 80 42 21
4 42 61 56 11
4 92 113 16 95
4 103 118 75 112
4 98 82 119 72
4 64 99 59 94
4 46 82 66 16
4 100 82 58 96
4 13 11 80 27
4 115 101 109 78
4 108 76 107 6
4 11 21 19 10
4 101 73 69 39
4 79 103 88 70
4 90 103 40 44
4 107 67 94 38
4 115 53 116 69
4 31 115 39 34
4 1 4 49 11
4 13 56 10 1
4 38 64 97 76
4 88 112 83 90
5 25 36 50 41 77
5 2 110 76 107 4
5 0 3 37 44 13
5 20 54 9 71 4
5 48 77 29 102 28
5 4 52 31 69 21
5 36 65 79 70 35
5 28 5 92 76 27
5 86 45 73 103 19
5 64 20 36 68 97
5 11 1 105 3 116
5 49 4 85 7 26
5 115 49 48 111 58
5 59 33 74 27 99
5 65 18 2 0 34
5 27 104 63 108 56
5 0 119 68 106 62
5 90 1 19 17 71
5 52 117 50 19 112
5 48 89 53 98 42
5 61 40 103 94 62
5 36 109 101 113 74
5 11 80 51 12 58
5 14 78 13 27 7
5 19 43 22 100 10
5 21 11 53 24 60
5 61 35 57 87 63
5 10 0 46 67 6
5 59 61 80 66 82
5 83 101 48 86 75
5 43 118 42 61 114
5 56 84 46 95 11
5 33 9 28 2 55
5 13 49 23 108 31
5 88 1 20 22 110
5 50 47 26 73 21
5 113 37 35 2 16
5 67 20 62 8 41
5 86 74 72 98 79
5 28 97 115 39 50
5 91 62 86 87 117
5 42 10 82 90 15
5 56 38 94 14 35
5 80 74 30 118 92
5 84 93 49 80 29
5 83 105 96 42 21
5 12 10 56 81 106
5 18 32 1 13 24
5 48 51 114 85 60
5 52 100 116 73 90
5 99 93 101 92 98
5 56 119 16 15 40
5 18 22 3 8 17
5 5 18 7 37 23
5 63 5 109 14 33
5 111 108 29 7 30
5 66 72 35 91 64
5 106 45 15 67 43
5 42 17 47 81 116
5 117 67 103 88 119
5 73 101 117 102 72
5 53 102 85 83 115
5 23 51 54 32 21
5 90 46 22 81 44
5 27 66 95 109 57
5 37 106 65 6 40
5 64 107 40 70 0
5 45 25 22 117 71
5 100 96 86 47 102
5 71 97 88 69 41
5 77 113 97 99 70
5 55 78 115 76 29
5 111 96 55 85 50
5 24 110 116 23 71
5 13 38 6 5 16
5 9 68 110 70 8
5 107 113 9 65 39
5 69 111 9 26 76
5 33 77 92 39 75
5 2 99 38 39 109
5 68 72 40 41 87
5 25 55 52 97 26
5 25 54 19 69 116
5 44 68 18 67 107
5 59 84 57 30 12
5 46 14 106 104 16
5 51 3 84 24 104
5 11 6 17 104 44
5 82 94 43 57 119
5 91 114 74 89 93
5 15 95 94 12 63
5 43 83 90 89 47
5 60 15 80 81 57
5 83 103 98 100 91
5 103 118 87 89 66
5 119 100 61 45 89
5 17 60 46 105 12
5 49 95 32 30 104
5 114 105 82 53 81
5 32 6 108 3 14
5 82 58 118 60 93
5 38 66 113 63 79
5 88 44 45 8 10
5 47 54 105 52 24
5 77 96 112 115 73
5 75 112 99 102 36
5 64 16 87 65 94
5 32 85 84 31 58
5 34 38 76 37 33
5 34 111 5 4 78
5 91 109 118 79 59
5 51 96 31 53 26
5 30 75 78 93 28
5 107 23 8 34 1
5 31 110 7 54 34
5 95 78 59 108 92
5 62 112 88 72 25
5 101 41 79 112 64
5 58 75 114 29 98
5 69 39 20 55 70

# Cells
7 0 1 2 3 4 5 6
7 7 8 9 10 11 12 13
7 14 15 16 17 18 19 20
7 21 22 23 24 25 26 27
7 28 29 30 31 32 33 34
7 35 36 37 38 39 40 41
7 42 43 44 45 46 47 48
7 49 50 51 52 53 54 55
7 56 57 58 59 60 61 62
7 63 64 65 66 67 68 69
7 70 71 72 73 74 75 76
7 77 78 79 80 81 82 83
7 84 85 86 87 88 89 90
7 91 92 93 94 95 96 97
7 98 99 100 101 102 103 104
7 105 106 107 108 109 110 111
7 112 113 114 115 116 117 118
7 119 120 121 122 123 124 125
7 126 127 128 129 130 131 132
7 133 134 135 136 137 138 139
7 140 141 142 143 144 145 146
7 147 148 149 150 151 152 153
7 154 155 156 157 158 159 160
7 161 162 163 164 165 166 167
7 141 168 169 170 171 172 173
7 108 174 175 176 177 178 179
7 180 181 182 183 184 185 186
7 187 188 189 190 191 192 193
7 194 195 196 197 198 199 200
7 201 202 203 204 205 206 207
7 208 209 210 211 212 213 214
7 92 215 216 217 218 219 220
7 156 221 222 223 224 225 226
7 80 227 228 229 230 231 232
7 107 233 234 235 236 237 238
7 239 240 241 242 243 244 245
7 246 247 248 249 250 251 252
7 59 253 254 255 256 257 258
7 101 259 260 261 262 263 264
7 151 265 266 267 268 269 270
7 88 271 272 273 274 275 276
7 277 278 279 280 281 282 283
7 284 285 286 287 288 289 290
7 291 292 293 294 295 296 297
7 298 299 300 301 302 303 304
7 305 306 307 308 309 310 311
7 46 312 313 314 315 316 317
7 163 318 319 320 321 322 323
7 324 325 326 327 328 329 330
7 331 332 333 334 335 336 337
7 338 339 340 341 342 343 344
7 148 345 346 347 348 349 350
7 339 351 352 353 354 355 356
7 36 357 358 359 360 361 362
7 71 363 364 365 366 367 368
7 85 369 370 371 372 373 374
7 375 376 377 378 379 380 381
7 100 382 383 384 385 386 387
7 388 389 390 391 392 393 394
7 164 395 396 397 398 399 400
7 144 290 401 402 403 404 405
7 350 406 407 408 409 410 411
7 31 412 413 414 415 416 417
7 325 418 419 420 421 422 423
7 15 424 425 426 427 428 429
7 50 430 431 432 433 434 435
7 53 436 437 438 439 440 441
7 442 443 444 445 446 447 448
7 157 281 449 450 451 452 453
7 442 454 455 456 457 458 459
7 398 460 461 462 463 464 465
7 377 466 467 468 469 470 471
7 114 472 473 474 475 476 477
7 331 478 479 480 481 482 483
7 79 249 484 485 486 487 488
7 387 489 490 491 492 493 494
7 95 303 495 496 497 498 499
7 67 447 500 501 502 503 504
7 64 459 505 506 507 508 509
7 434 510 511 512 513 514 515
7 128 516 517 518 519 520 521
7 439 511 522 523 524 525 526
7 388 527 528 529 530 531 532
7 372 533 534 535 536 537 538
7 263 489 539 540 541 542 543
7 268 406 544 545 546 547 548
7 177 549 550 551 552 553 554
7 123 480 555 556 557 558 559
7 236 549 560 561 562 563 564
7 74 296 565 566 567 568 569
7 39 308 570 571 572 573 574
7 25 468 575 576 577 578 579
7 274 533 580 581 582 583 584
7 10 420 585 586 587 588 589
7 321 461 590 591 592 593 594
7 134 530 595 596 597 598 599
7 187 416 600 601 602 603 604
7 43 183 605 606 607 608 609
7 9 328 610 611 612 613 614
7 120 337 615 616 617 618 619
7 22 378 620 621 622 623 624
7 202 520 625 626 627 628 629
7 210 475 630 631 632 633 634
7 307 361 635 636 637 638 639
7 241 429 640 641 642 643 644
7 291 368 645 646 647 648 649
7 58 199 650 651 652 653 654
7 137 393 655 656 657 658 659
7 115 211 660 661 662 663 664
7 1 342 665 666 667 668 669
7 194 256 670 671 672 673 674
7 230 248 675 676 677 678 679
7 182 316 680 681 682 683 684
7 225 278 685 686 687 688 689
7 172 284 690 691 692 693 694
7 18 242 695 696 697 698 699
7 129 205 700 701 702 703 704
7 30 193 705 706 707 708 709
7 4 353 710 711 712 713 714
7 219 299 715 716 717 718 719
7 0 720 721 722 723 724 725
7 7 726 727 728 729 730 731
7 14 732 733 734 735 736 737
7 21 738 739 740 741 742 743
7 28 744 745 746 747 748 749
7 35 750 751 752 753 754 755
7 42 756 757 758 759 760 761
7 49 762 763 764 765 766 767
7 56 768 769 770 771 772 773
7 63 774 775 776 777 778 779
7 70 780 781 782 783 784 785
7 77 786 787 788 789 790 791
7 84 792 793 794 795 796 797
7 91 798 799 800 801 802 803
7 98 804 805 806 807 808 809
7 105 810 811 812 813 814 815
7 112 816 817 818 819 820 821
7 119 822 823 824 825 826 827
7 126 828 829 830 831 832 833
7 133 834 835 836 837 838 839
7 140 840 841 842 843 844 845
7 147 846 847 848 849 850 851
7 154 852 853 854 855 856 857
7 161 858 859 860 861 862 863
7 173 741 864 865 866 867 868
7 179 825 869 870 871 872 873
7 186 874 875 876 877 878 879
7 192 880 881 882 883 884 885
7 200 886 887 888 889 890 891
7 207 892 893 894 895 896 897
7 212 893 898 899 900 901 902
7 220 759 903 904 905 906 907
7 226 728 908 909 910 911 912
7 232 770 913 914 915 916 917
7 237 834 918 919 920 921 922
7 245 923 924 925 926 927 928
7 252 929 930 931 932 933 934
7 258 849 885 935 936 937 938
7 264 753 939 940 941 942 943
7 270 795 878 944 945 946 947
7 275 783 948 949 950 951 952
7 283 917 953 954 955 956 957
7 288 906 958 959 960 961 962
7 297 963 964 965 966 967 968
7 304 969 970 971 972 973 974
7 311 975 976 977 978 979 980
7 317 859 926 981 982 983 984
7 322 806 891 985 986 987 988
7 330 929 989 990 991 992 993
7 336 951 994 995 996 997 998
7 343 977 999 1000 1001 1002 1003
7 348 732 1004 1005 1006 1007 1008
7 354 964 1009 1010 1011 1012 1013
7 362 829 1014 1015 1016 1017 1018
7 367 817 1019 1020 1021 1022 1023
7 374 723 1024 1025 1026 1027 1028
7 379 970 1029 1030 1031 1032 1033
7 385 720 1034 1035 1036 1037 1038
7 392 942 1039 1040 1041 1042 1043
7 399 746 1044 1045 1046 1047 1048
7 405 735 1049 1050 1051 1052 1053
7 411 1054 1055 1056 1057 1058 1059
7 417 765 1060 1061 1062 1063 1064
7 421 880 1065 1066 1067 1068 1069
7 428 762 1070 1071 1072 1073 1074
7 435 853 974 1075 1076 1077 1078
7 440 840 932 1079 1080 1081 1082
7 448 912 1083 1084 1085 1086 1087
7 452 745 1088 1089 1090 1091 1092
7 456 867 1093 1094 1095 1096 1097
7 465 1054 1098 1099 1100 1101 1102
7 471 925 1103 1104 1105 1106 1107
7 476 798 978 1108 1109 1110 1111
7 481 1073 1112 1113 1114 1115 1116
7 487 774 1100 1117 1118 1119 1120
7 494 873 1121 1122 1123 1124 1125
7 498 777 1058 1126 1127 1128 1129
7 503 830 1130 1131 1132 1133 1134
7 509 818 1135 1136 1137 1138 1139
7 513 886 1140 1141 1142 1143 1144
7 521 788 968 1145 1146 1147 1148
7 526 875 1149 1150 1151 1152 1153
7 529 1064 1114 1154 1155 1156 1157
7 536 922 1158 1159 1160 1161 1162
7 541 1022 1163 1164 1165 1166 1167
7 546 1040 1168 1169 1170 1171 1172
7 552 1007 1173 1174 1175 1176 1177
7 558 801 1002 1178 1179 1180 1181
7 564 1048 1182 1183 1184 1185 1186
7 568 854 1032 1187 1188 1189 1190
7 573 843 991 1191 1192 1193 1194
7 578 811 900 1195 1196 1197 1198
7 584 1017 1199 1200 1201 1202 1203
7 589 812 897 1204 1205 1206 1207
7 593 994 1208 1209 1210 1211 1212
7 599 787 1011 1213 1214 1215 1216
7 602 1138 1163 1217 1218 1219 1220
7 608 822 1221 1222 1223 1224 1225
7 613 780 1210 1226 1227 1228 1229
7 618 738 1230 1231 1232 1233 1234
7 624 750 1170 1235 1236 1237 1238
7 627 958 1239 1240 1241 1242 1243
7 633 954 1244 1245 1246 1247 1248
7 637 1091 1182 1249 1250 1251 1252
7 642 1133 1200 1253 1254 1255 1256
7 647 1052 1174 1257 1258 1259 1260
7 653 837 1261 1262 1263 1264 1265
7 659 727 1266 1267 1268 1269 1270
7 664 792 1151 1271 1272 1273 1274
7 668 846 1067 1275 1276 1277 1278
7 673 1093 1233 1279 1280 1281 1282
7 677 1121 1224 1283 1284 1285 1286
7 682 1084 1269 1287 1288 1289 1290
7 687 1037 1291 1292 1293 1294 1295
7 694 1027 1291 1296 1297 1298 1299
7 698 769 1246 1300 1301 1302 1303
7 703 805 1143 1304 1305 1306 1307
7 708 756 1243 1308 1309 1310 1311
7 714 860 1105 1312 1313 1314 1315
7 717 1158 1264 1316 1317 1318 1319
7 525 814 1320 1321 1322 1323 1324
7 301 808 1325 1326 1327 1328 1329
7 329 803 1330 1331 1332 1333 1334
7 678 796 1335 1336 1337 1338 1339
7 470 790 1340 1341 1342 1343 1344
7 197 785 1345 1346 1347 1348 1349
7 638 773 1350 1351 1352 1353 1354
7 553 778 1355 1356 1357 1358 1359
7 295 760 1360 1361 1362 1363 1364
7 344 767 1365 1366 1367 1368 1369
7 684 754 1370 1371 1372 1373 1374
7 537 749 1375 1376 1377 1378 1379
7 191 743 1380 1381 1382 1383 1384
7 542 736 1385 1386 1387 1388 1389
7 643 731 1390 1391 1392 1393 1394
7 457 725 1395 1396 1397 1398 1399
7 463 844 1400 1401 1402 1403 1404
7 206 851 1405 1406 1407 1408 1409
7 547 856 1410 1411 1412 1413 1414
7 634 862 1415 1416 1417 1418 1419
7 532 820 1420 1421 1422 1423 1424
7 688 827 1425 1426 1427 1428 1429
7 334 833 1430 1431 1432 1433 1434
7 287 838 1435 1436 1437 1438 1439
7 390 1271 1391 1440 1441 1442 1443
7 508 1277 1444 1445 1446 1447 1448
7 571 1281 1449 1450 1451 1452 1453
7 23 1283 1389 1454 1455 1456 1457
7 73 1287 1398 1458 1459 1460 1461
7 149 1292 1437 1462 1463 1464 1465
7 320 1298 1466 1467 1468 1469 1470
7 491 1300 1397 1471 1472 1473 1474
7 619 1305 1475 1476 1477 1478 1479
7 373 1309 1480 1481 1482 1483 1484
7 444 1312 1434 1485 1486 1487 1488
7 587 1318 1489 1490 1491 1492 1493
7 272 1220 1494 1495 1496 1497 1498
7 645 1221 1423 1499 1500 1501 1502
7 427 1227 1503 1504 1505 1506 1507
7 224 1232 1508 1509 1510 1511 1512
7 600 1235 1369 1513 1514 1515 1516
7 557 1241 1517 1518 1519 1520 1521
7 136 1244 1429 1522 1523 1524 1525
7 45 1249 1358 1526 1527 1528 1529
7 102 1253 1378 1530 1531 1532 1533
7 254 1259 1534 1535 1536 1537 1538
7 360 1263 1539 1540 1541 1542 1543
7 690 1266 1383 1544 1545 1546 1547
7 93 1164 1382 1548 1549 1550 1551
7 127 1169 1422 1552 1553 1554 1555
7 52 1175 1363 1556 1557 1558 1559
7 279 1178 1377 1560 1561 1562 1563
7 431 1185 1564 1565 1566 1567 1568
7 654 1189 1569 1570 1571 1572 1573
7 181 1191 1426 1574 1575 1576 1577
7 709 1196 1578 1579 1580 1581 1582
7 485 1202 1583 1584 1585 1586 1587
7 240 1204 1353 1588 1589 1590 1591
7 662 1211 1592 1593 1594 1595 1596
7 404 1214 1584 1597 1598 1599 1600
7 598 1110 1601 1602 1603 1604 1605
7 451 1116 1570 1606 1607 1608 1609
7 375 1117 1371 1610 1611 1612 1613
7 217 1124 1601 1614 1615 1616 1617
7 614 1127 1577 1618 1619 1620 1621
7 561 1130 1438 1505 1622 1623 1624
7 178 1137 1593 1625 1626 1627 1628
7 711 1142 1553 1629 1630 1631 1632
7 479 1145 1334 1633 1634 1635 1636
7 2 1150 1374 1637 1638 1639 1640
7 142 1154 1431 1538 1641 1642 1643
7 81 1160 1326 1644 1645 1646 1647
7 400 1050 1612 1648 1649 1650 1651
7 518 1057 1550 1652 1653 1654 1655
7 581 1060 1349 1604 1656 1657 1658
7 696 1069 1638 1649 1659 1660 1661
7 262 1071 1564 1662 1663 1664 1665
7 351 1075 1417 1666 1667 1668 1669
7 669 1081 1563 1670 1671 1672 1673
7 234 1087 1579 1674 1675 1676 1677
7 407 1088 1386 1541 1678 1679 1680
7 109 1094 1346 1617 1681 1682 1683
7 116 1099 1413 1684 1685 1686 1687
7 29 1104 1394 1520 1688 1689 1690
7 17 989 1338 1607 1691 1692 1693
7 158 995 1404 1675 1694 1695 1696
7 65 999 1352 1497 1697 1698 1699
7 625 1004 1344 1626 1700 1701 1702
7 501 1013 1523 1618 1703 1704 1705
7 315 1016 1545 1652 1706 1707 1708
7 670 1019 1409 1663 1709 1710 1711
7 231 1025 1500 1629 1712 1713 1714
7 414 1033 1459 1715 1716 1717 1718
7 715 1034 1362 1510 1719 1720 1721
7 170 1043 1532 1670 1722 1723 1724
7 477 1046 1473 1716 1725 1726 1727
7 622 933 1509 1557 1728 1729 1730
7 306 935 1401 1580 1731 1732 1733
7 499 940 1449 1668 1734 1735 1736
7 704 945 1494 1591 1737 1738 1739
7 247 948 1357 1477 1740 1741 1742
7 347 956 1445 1647 1743 1744 1745
7 162 960 1406 1568 1746 1747 1748
7 57 965 1366 1492 1749 1750 1751
7 8 971 1341 1594 1752 1753 1754
7 606 979 1481 1685 1755 1756 1757
7 569 983 1466 1635 1758 1759 1760
7 208 985 1337 1572 1761 1762 1763
7 591 864 1329 1446 1764 1765 1766
7 441 871 1441 1517 1767 1768 1769
7 364 879 1464 1503 1770 1771 1772
7 87 882 1331 1469 1773 1774 1775
7 37 888 1321 1585 1776 1777 1778
7 122 894 1418 1451 1779 1780 1781
7 657 902 1455 1540 1782 1783 1784
7 418 903 1324 1598 1785 1786 1787
7 269 910 1489 1514 1788 1789 1790
7 579 914 1486 1534 1791 1792 1793
7 510 918 1412 1482 1794 1795 1796
7 383 928 1476 1528 1797 1798 1799
7 672 784 1320 1800 1801 1802 1803
7 582 748 1325 1804 1805 1806 1807
7 603 742 1330 1808 1809 1810 1811
7 422 802 1335 1812 1813 1814 1815
7 718 809 1340 1816 1817 1818 1819
7 446 724 1345 1820 1821 1822 1823
7 356 766 1350 1824 1825 1826 1827
7 310 772 1355 1828 1829 1830 1831
7 562 779 1360 1832 1833 1834 1835
7 648 761 1365 1836 1837 1838 1839
7 514 815 1370 1840 1841 1842 1843
7 244 730 1375 1844 1845 1846 1847
7 493 737 1380 1848 1849 1850 1851
7 251 797 1385 1852 1853 1854 1855
7 380 791 1390 1856 1857 1858 1859
7 185 755 1395 1860 1861 1862 1863
7 482 832 1400 1864 1865 1866 1867
7 692 839 1405 1868 1869 1870 1871
7 592 845 1410 1872 1873 1874 1875
7 628 850 1415 1876 1877 1878 1879
7 409 857 1420 1880 1881 1882 1883
7 214 863 1425 1884 1885 1886 1887
7 394 821 1430 1888 1889 1890 1891
7 282 826 1435 1892 1893 1894 1895
7 611 972 1443 1896 1897 1898 1899
7 143 1039 1447 1880 1900 1901 1902
7 539 1070 1453 1863 1903 1904 1905
7 663 987 1457 1906 1907 1908 1909
7 623 1118 1461 1910 1911 1912 1913
7 609 1193 1465 1914 1915 1916 1917
7 680 1014 1470 1885 1918 1919 1920
7 666 1152 1472 1921 1922 1923 1924
7 86 1218 1479 1848 1925 1926 1927
7 106 1085 1483 1860 1928 1929 1930
7 702 1172 1488 1931 1932 1933 1934
7 685 1230 1493 1847 1935 1936 1937
7 545 908 1498 1854 1938 1939 1940
7 474 1101 1501 1941 1942 1943 1944
7 66 1009 1507 1838 1945 1946 1947
7 99 923 1512 1858 1948 1949 1950
7 437 1176 1516 1951 1952 1953 1954
7 550 1135 1521 1895 1955 1956 1957
7 713 1077 1525 1958 1959 1960 1961
7 699 1205 1529 1962 1963 1964 1965
7 658 1273 1533 1966 1967 1968 1969
7 675 1024 1537 1831 1970 1971 1972
7 155 1113 1543 1889 1973 1974 1975
7 576 1286 1546 1976 1977 1978 1979
7 349 1089 1551 1980 1981 1982 1983
7 433 920 1554 1984 1985 1986 1987
7 488 949 1559 1988 1989 1990 1991
7 706 1107 1561 1980 1992 1993 1994
7 640 1226 1567 1824 1995 1996 1997
7 165 1297 1571 1892 1998 1999 2000
7 617 895 1576 2001 2002 2003 2004
7 60 1257 1581 1832 2005 2006 2007
7 527 1108 1586 1857 2008 2009 2010
7 651 967 1590 2011 2012 2013 2014
7 454 1275 1596 1890 2015 2016 2017
7 94 1123 1599 1853 2018 2019 2020
7 32 1029 1605 1818 2021 2022 2023
7 293 981 1608 1883 1965 2024 2025
7 358 889 1613 2000 2026 2027 2028
7 631 1044 1615 1812 2029 2030 2031
7 38 1280 1620 1822 2032 2033 2034
7 597 1248 1623 1984 2035 2036 2037
7 150 955 1627 1886 1953 2038 2039
7 534 1308 1632 1821 2040 2041 2042
7 496 1167 1636 2043 2044 2045 2046
7 588 904 1639 2016 2047 2048 2049
7 366 1223 1643 2002 2050 2051 2052
7 453 1179 1646 2043 2053 2054 2055
7 78 1201 1650 1844 1943 2056 2057
7 635 1261 1654 1865 2058 2059 2060
7 566 1290 1657 1988 2061 2062 2063
7 286 1213 1661 1851 1961 2064 2065
7 72 874 1665 1841 2046 2066 2067
7 397 961 1669 2020 2068 2069 2070
7 121 1239 1673 1869 2071 2072 2073
7 467 913 1676 1842 2055 2074 2075
7 426 992 1679 2034 2076 2077 2078
7 386 1301 1683 2011 2079 2080 2081
7 574 937 1686 2009 2082 2083 2084
7 519 1006 1689 2041 2077 2085 2086
7 559 1147 1692 1904 2087 2088 2089
7 504 1314 1695 1940 2068 2090 2091
7 415 1236 1698 1956 2026 2092 2093
7 229 1161 1702 1929 2087 2094 2095
7 300 939 1704 1835 1969 2096 2097
7 135 898 1708 1879 2062 2098 2099
7 267 1294 1710 1949 2082 2100 2101
7 44 976 1714 1827 1978 2102 2103
7 460 1049 1717 1806 2051 2104 2105
7 313 1251 1720 1974 2048 2106 2107
7 523 869 1723 1872 2080 2108 2109
7 16 1065 1727 1810 2036 2110 2111
7 332 1304 1729 1809 1986 2112 2113
7 403 1157 1732 1914 2023 2114 2115
7 51 1184 1735 1828 1898 2116 2117
7 11 1316 1738 1805 2003 2118 2119
7 506 1003 1741 1910 2073 2120 2121
7 340 1079 1744 1876 1991 2122 2123
7 238 1132 1748 1932 2031 2124 2125
7 218 1035 1750 1922 2059 2126 2127
7 323 865 1753 1977 1997 2128 2129
7 189 1195 1756 1837 1909 2130 2131
7 130 1055 1759 1875 2013 2132 2133
7 371 883 1763 1966 2007 2134 2135
7 261 1256 1765 1906 1946 2136 2137
7 113 1209 1769 1866 1923 2138 2139
7 326 1126 1771 1801 1982 2140 2141
7 171 1267 1774 1897 1972 2142 2143
7 276 1061 1777 1920 1951 2144 2145
7 257 1021 1780 1936 1942 2146 2147
7 196 1187 1783 1870 1912 2148 2149
7 175 1096 1787 1902 1962 2150 2151
7 24 931 1790 1815 1933 2152 2153
7 3 1140 1793 1802 1993 2154 2155
7 223 997 1796 1927 1958 2156 2157
7 203 944 1798 1817 1917 2158 2159
7 590 1111 1323 2146 2160 2161 2162
7 560 1082 1327 2144 2163 2164 2165
7 671 1018 1333 2092 2166 2167 2168
7 305 984 1339 2047 2169 2170 2171
7 512 1278 1343 2126 2172 2173 2174
7 691 1047 1348 2090 2175 2176 2177
7 478 911 1354 1959 2178 2179 2180
7 277 947 1356 2083 2181 2182 2183
7 408 1307 1361 2124 2184 2185 2186
7 626 1234 1368 2050 2187 2188 2189
7 209 1216 1372 1985 2190 2191 2192
7 443 872 1376 1963 2193 2194 2195
7 646 1265 1381 2079 2196 2197 2198
7 180 1190 1387 1989 2199 2200 2201
7 352 1139 1393 1911 2202 2203 2204
7 389 1053 1396 1915 2205 2206 2207
7 580 916 1403 2088 2208 2209 2210
7 716 1229 1407 2142 2211 2212 2213
7 246 1198 1414 2128 2214 2215 2216
7 419 1074 1419 2085 2217 2218 2219
7 376 1311 1421 1981 2220 2221 2222
7 239 943 1428 1907 2223 2224 2225
7 601 1028 1432 1967 2226 2227 2228
7 490 1129 1436 2053 2229 2230 2231
7 160 1005 1442 2140 2232 2233 2234
7 620 744 1448 2115 2199 2235 2236
7 531 959 1450 1850 2237 2238 2239
7 701 1115 1454 2139 2206 2240 2241
7 497 1068 1458 2153 2227 2242 2243
7 438 1012 1462 2103 2197 2244 2245
7 644 1165 1467 1861 2246 2247 2248
7 90 1119 1474 2122 2249 2250 2251
7 363 768 1478 2135 2205 2252 2253
7 655 841 1484 2151 2223 2254 2255
7 41 1222 1487 2158 2256 2257 2258
7 458 1173 1490 1894 2259 2260 2261
7 683 963 1495 1882 2262 2263 2264
7 69 919 1502 2029 2265 2266 2267
7 516 824 1506 2121 2220 2268 2269
7 710 775 1511 2137 2190 2270 2271
7 20 1036 1515 2108 2272 2273 2274
7 543 969 1518 1833 2275 2276 2277
7 567 1282 1522 2155 2194 2278 2279
7 577 1219 1526 2111 2230 2280 2281
7 266 1242 1530 2099 2176 2282 2283
7 689 1168 1535 1852 2284 2285 2286
7 412 794 1542 2157 2202 2287 2288
7 124 1090 1547 2074 2289 2290 2291
7 396 901 1548 2039 2189 2292 2293
7 652 980 1552 2117 2204 2294 2295
7 612 927 1556 2057 2222 2296 2297
7 167 1272 1562 2130 2298 2299 2300
7 335 1293 1565 1845 2301 2302 2303
7 382 799 1573 2070 2193 2304 2305
7 111 1076 1575 2112 2306 2307 2308
7 345 828 1582 2014 2229 2309 2310
7 341 1095 1583 1891 2311 2312 2313
7 83 1237 1589 2148 2314 2315 2316
7 190 1159 1592 1823 2307 2317 2318
7 605 782 1600 2045 2181 2319 2320
7 430 721 1603 1994 2184 2321 2322
7 469 881 1606 1839 2323 2324 2325
7 104 905 1611 2058 2303 2326 2327
7 639 1288 1614 1884 2310 2328 2329
7 168 858 1621 2028 2226 2262 2330
7 61 1192 1624 2008 2325 2331 2332
7 695 807 1628 2101 2169 2333 2334
7 289 1098 1630 1807 2315 2335 2336
7 117 1268 1634 2096 2296 2337 2338
7 707 1203 1637 2119 2225 2289 2339
7 176 1144 1641 2067 2167 2340 2341
7 473 1042 1644 1975 2185 2342 2343
7 500 813 1651 2095 2178 2323 2344
7 538 1284 1653 1829 2322 2345 2346
7 12 1302 1658 2024 2294 2347 2348
7 294 887 1659 1871 2299 2349 2350
7 660 836 1664 2063 2214 2351 2352
7 48 1020 1667 2104 2342 2345 2353
7 215 726 1672 2004 2196 2284 2354
7 632 1155 1674 1856 2305 2355 2356
7 145 986 1680 1995 2313 2357 2358
7 228 1031 1681 1950 2212 2359 2360
7 667 1086 1684 2033 2201 2272 2361
7 402 1212 1688 2133 2180 2331 2362
7 596 1299 1691 2072 2182 2265 2363
7 314 1260 1694 1947 2164 2326 2364
7 260 1319 1697 2022 2209 2357 2365
7 139 866 1701 1970 2280 2328 2366
7 548 892 1703 1819 2288 2348 2367
7 585 734 1707 2037 2172 2335 2368
7 5 1131 1711 1938 2240 2369 2370
7 555 855 1713 2107 2217 2349 2371
7 554 1149 1715 1873 2269 2337 2372
7 33 950 1721 1918 2278 2355 2373
7 679 1103 1722 1840 2253 2370 2374
7 253 751 1726 2078 2187 2275 2375
7 198 1250 1728 1864 2233 2352 2376
7 54 1313 1733 2064 2277 2292 2377
7 449 847 1736 1954 2208 2311 2378
7 233 764 1739 1899 2175 2246 2379
7 96 1206 1742 2015 2239 2340 2380
7 327 1254 1743 1826 2266 2320 2381
7 359 877 1746 1930 2174 2314 2382
7 370 934 1749 2019 2219 2298 2383
7 616 957 1752 1999 2192 2256 2384
7 204 996 1755 1811 2251 2334 2385
7 484 739 1760 1934 2163 2301 2386
7 153 1146 1762 2040 2261 2359 2387
7 131 1180 1766 1903 2242 2263 2388
7 271 789 1768 1944 2166 2237 2389
7 464 1245 1770 1813 2236 2273 2390
7 222 1059 1773 1901 2161 2306 2391
7 425 1125 1776 1926 2215 2232 2392
7 507 1186 1779 2006 2171 2249 2393
7 302 990 1782 1803 2257 2271 2394
7 26 1062 1786 1955 2244 2285 2395
7 570 758 1789 1979 2160 2317 2396
7 318 819 1792 1924 2211 2259 2397
7 75 936 1795 1935 2248 2282 2398
7 524 1000 1797 1877 2255 2291 2399
7 312 781 1718 2086 2270 2400 2401
7 575 747 1519 2147 2368 2402 2403
7 227 740 1784 1960 2333 2404 2405
7 259 800 1655 1987 2235 2406 2407
7 424 804 1724 2052 2287 2408 2409
7 436 722 1660 2089 2396 2410 2411
7 174 763 1730 1908 2319 2412 2413
7 565 771 1491 2129 2321 2414 2415
7 665 776 1496 2143 2375 2416 2417
7 357 757 1799 1968 2344 2418 2419
7 505 810 1616 1983 2252 2420 2421
7 495 729 1595 2084 2386 2422 2423
7 610 733 1609 2091 2389 2424 2425
7 705 793 1468 2125 2354 2426 2427
7 369 786 1745 1916 2304 2428 2429
7 650 752 1587 2054 2379 2430 2431
7 265 831 1631 2049 2351 2432 2433
7 472 835 1705 2093 2371 2434 2435
7 595 842 1536 2127 2268 2436 2437
7 221 848 1772 1913 2254 2438 2439
7 615 852 1677 2081 2330 2440 2441
7 401 861 1566 1990 2309 2442 2443
7 395 816 1757 1964 2378 2444 2445
7 700 823 1452 2145 2397 2446 2447
7 384 973 1645 2102 2177 2448 2449
7 213 1041 1392 2012 2308 2426 2450
7 13 1072 1622 2075 2264 2451 2452
7 285 988 1758 1834 2339 2431 2453
7 535 1120 1597 1893 2295 2444 2454
7 195 1194 1734 1804 2241 2425 2455
7 62 1015 1678 2123 2356 2456 2457
7 235 1153 1778 1973 2213 2458 2459
7 381 1217 1367 2069 2234 2430 2460
7 355 1083 1433 2044 2316 2443 2461
7 450 1171 1687 2110 2165 2462 2463
7 132 1231 1740 2010 2247 2464 2465
7 125 909 1719 2030 2374 2466 2467
7 169 1102 1696 1948 2168 2468 2469
7 515 1010 1416 2134 2327 2440 2470
7 423 924 1351 2114 2387 2421 2471
7 502 1177 1527 2098 2210 2472 2473
7 6 1136 1764 1919 2286 2474 2475
7 551 1078 1662 1855 2362 2423 2476
7 298 1207 1788 1874 2279 2447 2477
7 462 1274 1625 1830 2243 2411 2478
7 34 1026 1794 1996 2329 2479 2480
7 629 1112 1332 2150 2353 2429 2481
7 273 1285 1693 1945 2162 2482 2483
7 333 1092 1569 1820 2297 2419 2484
7 455 921 1578 1849 2384 2428 2485
7 188 952 1737 1868 2361 2441 2486
7 486 1106 1754 2032 2186 2487 2488
7 97 1228 1574 2131 2312 2489 2490
7 391 1296 1384 1952 2258 2422 2491
7 346 896 1747 2056 2198 2492 2493
7 184 1258 1424 1896 2250 2446 2494
7 166 1109 1471 2159 2324 2495 2496
7 607 966 1558 2138 2231 2497 2498
7 55 1276 1560 2025 2238 2492 2499
7 243 1122 1399 1931 2300 2415 2500
7 250 1030 1373 2001 2358 2416 2501
7 40 982 1544 2109 2367 2502 2503
7 365 890 1682 2038 2228 2489 2504
7 146 1045 1610 2113 2381 2494 2505
7 649 1279 1408 2094 2274 2445 2467
7 319 1247 1781 1925 2173 2502 2506
7 483 953 1379 2061 2377 2407 2507
7 27 1310 1731 1905 2260 2497 2508
7 697 1166 1456 2154 2183 2486 2509
7 540 907 1602 1881 2393 2442 2483
7 636 1225 1480 1846 2293 2404 2510
7 201 1181 1767 1800 2281 2417 2511
7 604 1199 1347 2100 2338 2412 2503
7 76 1262 1761 2017 2302 2501 2512
7 572 1289 1640 2071 2216 2485 2513
7 118 1215 1656 1939 2276 2487 2514
7 309 876 1427 1992 2380 2436 2515
7 656 962 1463 2152 2195 2511 2512
7 410 1240 1342 2027 2267 2424 2480
7 89 915 1499 2141 2399 2491 2516
7 216 993 1775 1928 2188 2495 2517
7 324 1303 1648 1867 2245 2435 2518
7 292 938 1791 1816 2363 2427 2473
7 686 1008 1444 1862 2383 2413 2506
7 544 1148 1706 1843 2365 2414 2469
7 522 1315 1712 1814 2283 2403 2504
7 676 1238 1508 1887 2341 2432 2517
7 413 1162 1531 2066 2179 2477 2505
7 19 941 1709 1971 2372 2481 2513
7 594 899 1336 2120 2398 2409 2508
7 556 1295 1524 2021 2170 2453 2519
7 674 975 1402 2136 2395 2439 2514
7 138 1051 1785 1937 2346 2470 2509
7 255 1252 1699 1900 2218 2476 2516
7 68 870 1700 2060 2390 2460 2519
7 719 1066 1322 2156 2366 2418 2475
7 152 1306 1588 2065 2318 2448 2515
7 661 1156 1555 2118 2200 2474 2484
7 445 1183 1439 1976 2347 2433 2496
7 492 1317 1364 1941 2290 2410 2457
7 432 1001 1751 1998 2221 2451 2510
7 110 1080 1440 2149 2385 2468 2500
7 338 1134 1619 1808 2343 2408 2498
7 641 1038 1475 1888 2382 2438 2488
7 528 868 1671 1836 2392 2420 2463
7 82 1197 1485 2097 2350 2458 2507
7 280 1056 1388 1921 2332 2402 2490
7 621 884 1549 2116 2207 2464 2518
7 586 1255 1690 2005 2191 2454 2466
7 693 1208 1328 2106 2369 2405 2452
7 103 1128 1666 2042 2376 2450 2472
7 630 1270 1539 1825 2360 2400 2493
7 466 1063 1725 1878 2364 2437 2449
7 681 1023 1504 1859 2391 2406 2459
7 47 1188 1633 1957 2336 2462 2471
7 712 1097 1460 2132 2224 2455 2479
7 583 930 1359 2035 2388 2401 2499
7 563 1141 1411 2076 2373 2434 2465
7 517 998 1642 2018 2203 2456 2478
7 159 946 1513 2105 2394 2461 2482
