# Generated using Miratope v0.5.0 (https://github.com/galoomba1/miratope-rs)
4OFF

# Vertices, Faces, Edges, Cells
24 96 72 24

# Vertices
0.809016994374945 0.809016994374945 0.809016994374945 0.809016994374945 
-0.809016994374945 0.809016994374945 0.809016994374945 -0.809016994374945 
0.809016994374945 0.809016994374945 -0.809016994374945 -0.809016994374945 
-0.809016994374945 0.8090169943749451 -0.809016994374945 0.809016994374945 
-0.809016994374945 0.809016994374945 0.809016994374945 0.809016994374945 
0.809016994374945 0.809016994374945 0.809016994374945 -0.809016994374945 
-0.809016994374945 0.809016994374945 -0.809016994374945 -0.809016994374945 
0.809016994374945 0.8090169943749451 -0.809016994374945 0.809016994374945 
-0.809016994374945 -0.809016994374945 0.809016994374945 -0.809016994374945 
0 0 1.61803398874989 0 
0 1.61803398874989 0 0 
0 0 0 -1.61803398874989 
-1.61803398874989 0 0 0 
0.809016994374945 -0.809016994374945 0.809016994374945 -0.809016994374945 
1.61803398874989 0 0 0 
0.809016994374945 -0.809016994374945 0.809016994374945 0.809016994374945 
0 0 0 1.61803398874989 
-0.809016994374945 -0.809016994374945 0.809016994374945 0.809016994374945 
0.809016994374945 -0.809016994374945 -0.809016994374945 -0.809016994374945 
0 0 -1.61803398874989 0 
-0.8090169943749451 -0.809016994374945 -0.809016994374945 -0.809016994374945 
0.809016994374945 -0.809016994374945 -0.809016994374945 0.809016994374945 
-0.809016994374945 -0.809016994374945 -0.809016994374945 0.809016994374945 
0 -1.61803398874989 0 0 

# Faces
3 0 2 1
3 0 1 3
3 0 3 2
3 5 6 4
3 4 5 7
3 6 7 4
3 1 2 3
3 5 7 6
3 4 5 8
3 6 8 4
3 10 11 9
3 9 10 12
3 11 12 9
3 5 8 6
3 10 11 12
3 1 13 0
3 2 13 0
3 9 14 10
3 11 14 9
3 1 13 2
3 10 11 14
3 5 15 4
3 7 15 4
3 9 10 16
3 9 14 16
3 7 15 5
3 10 14 16
3 1 17 0
3 0 17 3
3 9 16 12
3 1 17 3
3 10 12 16
3 0 17 13
3 4 15 8
3 1 17 13
3 8 15 5
3 5 18 6
3 5 18 7
3 11 19 10
3 14 19 10
3 6 7 18
3 11 19 14
3 2 20 1
3 1 3 20
3 12 19 10
3 2 20 3
3 12 19 11
3 1 13 20
3 5 18 8
3 13 20 2
3 8 18 6
3 2 21 0
3 0 21 3
3 16 19 10
3 3 21 2
3 16 19 14
3 0 21 13
3 5 15 18
3 2 21 13
3 7 18 15
3 6 22 4
3 4 22 7
3 7 22 6
3 16 19 12
3 17 21 0
3 4 22 15
3 15 22 7
3 17 21 3
3 4 8 22
3 1 20 17
3 6 22 8
3 3 20 17
3 20 21 2
3 18 22 6
3 7 18 22
3 3 21 20
3 14 16 23
3 19 23 14
3 19 23 16
3 15 18 22
3 14 23 11
3 19 11 23
3 13 20 21
3 16 23 12
3 19 23 12
3 17 21 20
3 14 23 9
3 16 9 23
3 17 21 13
3 12 9 23
3 15 8 22
3 11 9 23
3 11 23 12
3 13 17 20
3 8 22 18
3 15 18 8

# Cells
8 0 1 2 3 4 5 6 7
8 3 8 9 10 11 12 13 14
8 0 10 15 16 17 18 19 20
8 4 17 21 22 23 24 25 26
8 1 11 23 27 28 29 30 31
8 8 15 21 27 32 33 34 35
8 7 20 36 37 38 39 40 41
8 6 14 38 42 43 44 45 46
8 13 19 36 42 47 48 49 50
8 2 26 39 51 52 53 54 55
8 16 25 37 51 56 57 58 59
8 5 31 44 53 60 61 62 63
8 22 28 52 61 64 65 66 67
8 9 30 43 60 68 69 70 71
8 40 45 54 62 72 73 74 75
8 55 59 66 74 76 77 78 79
8 41 49 58 72 77 80 81 82
8 63 67 71 75 78 83 84 85
8 24 32 56 64 76 86 87 88
8 29 33 65 68 83 87 89 90
8 12 34 47 69 89 91 92 93
8 79 82 85 88 90 93 94 95
8 18 35 48 57 80 86 91 95
8 46 50 70 73 81 84 92 94
