# Generated using Miratope v0.5.0 (https://github.com/galoomba1/miratope-rs)
4OFF

# Vertices, Faces, Edges, Cells
120 2400 1200 720

# Vertices
0.809016994374945 0.809016994374945 0.809016994374945 0.809016994374945 
0.809016994374945 0.809016994374945 0.809016994374945 -0.809016994374945 
1.61803398874989 0 0 0 
1.30901699437495 0.809016994374945 -0.5 0 
1.30901699437495 0 0.809016994374945 -0.5 
0.809016994374945 1.30901699437495 0 -0.5 
1.30901699437495 0 0.809016994374945 0.5 
0.809016994374945 1.30901699437495 0 0.5 
0.809016994374945 0.5 1.30901699437495 0 
1.30901699437495 0.5 0 0.809016994374945 
0.5 1.30901699437495 0.809016994374945 0 
1.30901699437495 0.5 0 -0.809016994374945 
0.809016994374945 -0.809016994374945 0.809016994374945 0.809016994374945 
0.809016994374945 -0.809016994374945 -0.809016994374945 0.809016994374945 
0.809016994374945 0 -0.5 1.30901699437495 
1.30901699437495 -0.809016994374945 -0.5 0 
0.809016994374945 0 0.5 1.30901699437495 
1.30901699437495 -0.809016994374945 0.5 0 
0.809016994374945 -1.30901699437495 0 0.5 
0.5 -0.809016994374945 0 1.30901699437495 
1.30901699437495 0 -0.809016994374945 0.5 
0.809016994374945 -0.809016994374945 0.809016994374945 -0.809016994374945 
0 0 1.61803398874989 0 
0 -0.809016994374945 1.30901699437495 -0.5 
0 -0.809016994374945 1.30901699437495 0.5 
0.5 -1.30901699437495 0.809016994374945 0 
0.5 0 1.30901699437495 -0.809016994374945 
0.5 0 1.30901699437495 0.809016994374945 
-0.809016994374945 -0.809016994374945 0.809016994374945 0.809016994374945 
0 0 0 1.61803398874989 
0 0.5 0.809016994374945 1.30901699437495 
-0.5 0 1.30901699437495 0.809016994374945 
-0.5 -0.809016994374945 0 1.30901699437495 
0 -1.30901699437495 0.5 0.809016994374945 
-0.809016994374945 0 0.5 1.30901699437495 
-0.809016994374945 0.809016994374945 0.809016994374945 0.809016994374945 
-0.5 1.30901699437495 0.809016994374945 0 
0 0.809016994374945 1.30901699437495 -0.5 
0 1.30901699437495 0.5 0.809016994374945 
-0.809016994374945 0.5 1.30901699437495 0 
0.809016994374945 0.809016994374945 -0.809016994374945 0.809016994374945 
-0.5 0.809016994374945 0 1.30901699437495 
0 1.30901699437495 -0.5 0.809016994374945 
0 0.5 -0.809016994374945 1.30901699437495 
0 -0.5 -0.809016994374945 1.30901699437495 
0.5 0.809016994374945 0 1.30901699437495 
0 -0.5 0.809016994374945 1.30901699437495 
-0.809016994374945 0 -0.5 1.30901699437495 
-0.809016994374945 -0.5 1.30901699437495 0 
-1.30901699437495 0 0.809016994374945 0.5 
0 0.809016994374945 1.30901699437495 0.5 
0 1.61803398874989 0 0 
-0.809016994374945 1.30901699437495 0 0.5 
0.809016994374945 -0.5 1.30901699437495 0 
1.30901699437495 -0.5 0 0.809016994374945 
1.30901699437495 0.809016994374945 0.5 0 
0 1.30901699437495 0.5 -0.809016994374945 
-0.5 0 1.30901699437495 -0.809016994374945 
-1.30901699437495 0.809016994374945 0.5 0 
-1.30901699437495 0.5 0 0.809016994374945 
0.5 1.30901699437495 -0.809016994374945 0 
1.30901699437495 -0.5 0 -0.809016994374945 
1.30901699437495 0 -0.809016994374945 -0.5 
0.5 0 -1.30901699437495 0.809016994374945 
-0.809016994374945 0.809016994374945 0.809016994374945 -0.809016994374945 
-1.61803398874989 0 0 0 
-0.809016994374945 1.30901699437495 0 -0.5 
-1.30901699437495 0.809016994374945 -0.5 0 
-1.30901699437495 0 0.809016994374945 -0.5 
-1.30901699437495 0.5 0 -0.809016994374945 
-0.809016994374945 -0.809016994374945 0.809016994374945 -0.809016994374945 
-0.809016994374945 -0.809016994374945 -0.809016994374945 -0.809016994374945 
-1.30901699437495 -0.809016994374945 -0.5 0 
-0.809016994374945 0 -0.5 -1.30901699437495 
-1.30901699437495 -0.809016994374945 0.5 0 
-0.809016994374945 0 0.5 -1.30901699437495 
-0.809016994374945 -1.30901699437495 0 -0.5 
-1.30901699437495 0 -0.809016994374945 -0.5 
-0.5 -0.809016994374945 0 -1.30901699437495 
-0.5 -1.30901699437495 0.809016994374945 0 
0 0 0 -1.61803398874989 
0 0.5 0.809016994374945 -1.30901699437495 
0.5 -0.809016994374945 0 -1.30901699437495 
0 -1.30901699437495 0.5 -0.809016994374945 
0.809016994374945 0 0.5 -1.30901699437495 
-0.809016994374945 0.809016994374945 -0.809016994374945 -0.809016994374945 
0 1.30901699437495 -0.5 -0.809016994374945 
0.5 0.809016994374945 0 -1.30901699437495 
0 0.5 -0.809016994374945 -1.30901699437495 
-0.809016994374945 -0.809016994374945 -0.809016994374945 0.809016994374945 
-0.809016994374945 -1.30901699437495 0 0.5 
-1.30901699437495 0 -0.809016994374945 0.5 
-0.809016994374945 0.809016994374945 -0.809016994374945 0.809016994374945 
-0.809016994374945 0.5 -1.30901699437495 0 
-0.5 1.30901699437495 -0.809016994374945 0 
-0.5 0.809016994374945 0 -1.30901699437495 
0 -0.5 0.809016994374945 -1.30901699437495 
0 -0.5 -0.809016994374945 -1.30901699437495 
0.809016994374945 0 -0.5 -1.30901699437495 
-1.30901699437495 -0.5 0 -0.809016994374945 
0.809016994374945 -0.809016994374945 -0.809016994374945 -0.809016994374945 
0 0 -1.61803398874989 0 
0.809016994374945 0.5 -1.30901699437495 0 
0 -0.809016994374945 -1.30901699437495 -0.5 
0 -0.809016994374945 -1.30901699437495 0.5 
0.5 -1.30901699437495 -0.809016994374945 0 
0.5 0 -1.30901699437495 -0.809016994374945 
0.809016994374945 -1.30901699437495 0 -0.5 
0.809016994374945 0.809016994374945 -0.809016994374945 -0.809016994374945 
-0.5 0 -1.30901699437495 -0.809016994374945 
0 -1.30901699437495 -0.5 -0.809016994374945 
0 0.809016994374945 -1.30901699437495 0.5 
-1.30901699437495 -0.5 0 0.809016994374945 
0.809016994374945 -0.5 -1.30901699437495 0 
0 0.809016994374945 -1.30901699437495 -0.5 
-0.809016994374945 -0.5 -1.30901699437495 0 
-0.5 0 -1.30901699437495 0.809016994374945 
0 -1.30901699437495 -0.5 0.809016994374945 
-0.5 -1.30901699437495 -0.809016994374945 0 
0 -1.61803398874989 0 0 

# Faces
3 0 2 1
3 0 1 3
3 2 5 0
3 0 3 4
3 0 4 5
3 1 7 2
3 1 6 7
3 1 3 6
3 2 8 7
3 8 5 2
3 9 5 8
3 9 8 11
3 9 4 10
3 9 10 11
3 4 5 9
3 6 7 11
3 6 3 10
3 6 10 11
3 7 8 11
3 10 3 4
3 12 2 13
3 12 13 9
3 12 14 2
3 9 15 12
3 12 15 14
3 13 2 16
3 13 9 17
3 16 17 13
3 2 16 18
3 2 18 14
3 9 19 17
3 19 15 9
3 14 15 6
3 14 18 6
3 6 20 19
3 6 18 20
3 6 15 19
3 17 20 16
3 16 20 18
3 17 19 20
3 12 21 22
3 12 8 21
3 12 4 22
3 12 8 23
3 12 23 4
3 22 6 21
3 21 24 6
3 21 8 24
3 6 25 22
3 22 4 25
3 6 24 26
3 26 25 6
3 8 24 17
3 8 17 23
3 27 23 4
3 27 25 4
3 17 26 27
3 27 17 23
3 27 26 25
3 26 24 17
3 12 29 28
3 12 30 28
3 12 29 31
3 12 30 32
3 12 31 32
3 28 29 27
3 27 19 28
3 28 30 19
3 27 33 29
3 31 33 29
3 16 32 31
3 16 33 31
3 16 24 34
3 34 33 16
3 16 24 32
3 34 19 27
3 27 34 33
3 19 24 30
3 30 24 32
3 34 24 19
3 0 22 35
3 0 37 35
3 0 22 36
3 36 31 0
3 31 37 0
3 35 10 22
3 35 27 10
3 27 37 35
3 10 30 22
3 22 30 36
3 8 31 38
3 8 38 39
3 8 30 36
3 30 39 8
3 8 31 36
3 27 39 10
3 30 39 10
3 38 37 27
3 27 39 38
3 31 37 38
3 40 29 0
3 0 41 40
3 0 29 42
3 14 41 0
3 14 42 0
3 29 38 40
3 40 16 38
3 40 41 16
3 29 9 38
3 29 9 42
3 38 43 9
3 30 42 9
3 9 43 30
3 7 16 41
3 16 43 7
3 7 14 30
3 7 43 30
3 7 41 14
3 16 38 43
3 30 14 42
3 16 32 41
3 16 41 44
3 16 34 43
3 16 44 34
3 32 43 16
3 46 47 45
3 45 46 44
3 19 45 34
3 45 34 44
3 45 47 19
3 30 47 14
3 32 14 30
3 30 19 43
3 30 47 19
3 30 43 32
3 41 46 14
3 14 41 32
3 14 46 47
3 41 46 44
3 19 43 34
3 22 28 35
3 28 35 27
3 35 46 22
3 27 48 35
3 46 48 35
3 30 28 22
3 27 39 28
3 30 39 28
3 22 49 30
3 22 49 46
3 27 34 39
3 27 48 34
3 50 48 46
3 50 46 49
3 24 50 34
3 50 34 48
3 50 24 49
3 24 39 30
3 24 49 30
3 34 39 24
3 0 51 35
3 35 42 0
3 41 51 0
3 0 36 41
3 36 42 0
3 51 45 35
3 35 45 10
3 35 10 42
3 45 50 51
3 51 50 41
3 7 41 50
3 7 50 52
3 36 7 30
3 7 52 30
3 41 36 7
3 45 52 10
3 30 10 42
3 10 30 52
3 50 52 45
3 30 36 42
3 18 46 6
3 6 46 25
3 19 24 6
3 6 19 25
3 6 18 24
3 18 53 16
3 33 53 16
3 16 24 17
3 16 33 17
3 18 24 16
3 27 54 25
3 27 54 33
3 17 19 27
3 17 33 27
3 27 25 19
3 53 46 54
3 54 33 53
3 54 46 25
3 53 18 46
3 17 19 24
3 0 40 2
3 0 54 40
3 2 14 0
3 0 3 54
3 0 3 14
3 2 40 16
3 16 55 40
3 40 54 55
3 2 7 16
3 2 14 7
3 16 55 20
3 55 45 54
3 55 45 20
3 6 7 14
3 6 7 20
3 3 45 6
3 6 45 20
3 3 14 6
3 16 7 20
3 45 3 54
3 0 22 1
3 1 53 0
3 4 22 0
3 4 37 0
3 0 37 53
3 1 22 6
3 1 50 6
3 1 50 53
3 6 22 10
3 4 22 10
3 27 55 37
3 27 55 26
3 55 53 50
3 55 50 26
3 55 53 37
3 6 10 26
3 26 50 6
3 4 27 10
3 27 26 10
3 27 37 4
3 1 51 0
3 0 1 36
3 0 51 37
3 5 36 0
3 0 37 5
3 51 1 50
3 7 50 1
3 7 1 36
3 50 51 55
3 37 51 55
3 37 38 55
3 38 56 55
3 55 50 56
3 7 36 8
3 7 56 8
3 50 56 7
3 8 38 5
3 8 38 56
3 5 36 8
3 38 5 37
3 31 57 8
3 8 23 31
3 24 39 8
3 23 39 8
3 24 57 8
3 37 48 27
3 27 23 37
3 27 39 26
3 27 23 39
3 27 26 48
3 50 48 53
3 50 53 57
3 24 50 26
3 50 48 26
3 50 57 24
3 31 53 37
3 53 57 31
3 53 37 48
3 37 23 31
3 24 39 26
3 38 31 58
3 31 59 38
3 39 34 38
3 38 39 59
3 38 34 58
3 41 58 50
3 49 41 50
3 34 52 50
3 49 52 50
3 50 58 34
3 36 59 30
3 30 49 36
3 39 52 30
3 49 52 30
3 30 39 59
3 36 31 41
3 41 49 36
3 36 59 31
3 41 31 58
3 39 34 52
3 2 12 0
3 4 12 0
3 0 53 2
3 0 54 4
3 54 0 53
3 8 12 2
3 8 12 9
3 9 4 12
3 2 16 8
3 2 53 16
3 53 55 16
3 17 55 16
3 54 55 27
3 27 55 17
3 53 55 54
3 8 17 9
3 4 27 9
3 17 27 9
3 17 8 16
3 4 54 27
3 40 51 0
3 0 5 40
3 0 51 3
3 0 42 3
3 5 42 0
3 55 40 51
3 40 55 38
3 38 5 40
3 45 55 51
3 51 3 45
3 55 60 45
3 55 38 60
3 10 42 9
3 9 10 60
3 5 38 9
3 9 60 38
3 5 42 9
3 3 45 10
3 45 60 10
3 10 3 42
3 54 61 55
3 55 54 62
3 17 55 20
3 55 17 62
3 55 20 61
3 9 15 4
3 9 62 4
3 9 11 17
3 17 62 9
3 11 15 9
3 3 15 6
3 3 61 6
3 11 20 6
3 6 11 15
3 6 20 61
3 4 54 3
3 54 61 3
3 3 4 15
3 54 4 62
3 17 11 20
3 40 29 13
3 16 40 13
3 40 54 29
3 16 44 40
3 40 44 54
3 9 13 29
3 9 43 13
3 16 43 13
3 9 63 29
3 29 63 54
3 9 19 43
3 19 63 9
3 20 43 16
3 16 44 20
3 44 54 45
3 45 54 63
3 19 45 20
3 45 44 20
3 19 63 45
3 19 20 43
3 35 29 0
3 35 0 46
3 31 0 29
3 31 41 0
3 41 0 46
3 29 35 27
3 35 27 45
3 45 35 46
3 27 38 29
3 31 38 29
3 31 16 38
3 16 34 38
3 41 50 16
3 34 50 16
3 31 41 16
3 34 27 45
3 46 50 45
3 34 45 50
3 27 34 38
3 46 50 41
3 35 64 65
3 35 67 64
3 35 66 65
3 35 66 68
3 35 68 67
3 64 65 52
3 52 49 64
3 64 49 67
3 52 65 39
3 65 39 66
3 36 59 68
3 59 69 36
3 36 49 67
3 36 69 49
3 36 67 68
3 39 69 52
3 52 69 49
3 39 66 59
3 59 69 39
3 66 59 68
3 70 71 65
3 70 71 69
3 70 65 73
3 69 72 70
3 70 73 72
3 71 65 75
3 74 69 71
3 74 75 71
3 65 76 75
3 65 73 76
3 68 73 72
3 72 78 68
3 68 77 76
3 77 78 68
3 68 76 73
3 74 78 69
3 75 77 74
3 74 77 78
3 72 78 69
3 75 77 76
3 22 70 28
3 28 70 39
3 22 68 28
3 39 23 28
3 28 68 23
3 22 49 70
3 39 70 24
3 49 70 24
3 22 79 49
3 22 79 68
3 31 57 79
3 57 74 31
3 31 23 68
3 31 23 74
3 31 79 68
3 39 74 24
3 23 74 39
3 24 57 49
3 57 74 24
3 49 79 57
3 21 80 70
3 21 70 81
3 21 80 57
3 21 78 57
3 21 81 78
3 70 26 80
3 70 82 26
3 70 82 81
3 80 83 26
3 80 83 57
3 26 75 82
3 75 83 26
3 57 83 84
3 84 78 57
3 23 75 84
3 23 78 84
3 81 82 23
3 23 78 81
3 23 75 82
3 84 75 83
3 1 22 64
3 50 64 1
3 22 36 1
3 1 57 50
3 36 57 1
3 22 64 10
3 26 64 10
3 50 26 64
3 22 81 10
3 22 36 81
3 36 57 8
3 8 81 36
3 8 56 39
3 39 81 8
3 8 57 56
3 10 39 26
3 10 81 39
3 50 26 56
3 50 57 56
3 39 56 26
3 85 80 64
3 64 85 87
3 64 80 86
3 86 73 64
3 64 73 87
3 85 56 80
3 85 75 56
3 87 75 85
3 56 69 80
3 80 69 86
3 56 69 88
3 75 88 56
3 87 75 66
3 87 73 66
3 81 88 66
3 81 73 66
3 66 75 88
3 86 81 69
3 86 73 81
3 81 88 69
3 28 65 89
3 28 89 59
3 65 47 28
3 28 72 47
3 59 72 28
3 65 34 89
3 34 74 89
3 59 74 89
3 65 34 90
3 47 90 65
3 34 91 74
3 34 90 91
3 47 90 49
3 47 72 49
3 59 74 32
3 32 72 59
3 32 49 91
3 32 72 49
3 32 91 74
3 49 91 90
3 85 65 92
3 85 58 92
3 65 66 92
3 92 66 77
3 92 58 77
3 52 85 65
3 85 91 52
3 58 91 85
3 65 93 52
3 66 93 65
3 69 91 52
3 52 93 69
3 66 59 93
3 66 59 77
3 58 91 94
3 94 77 58
3 59 69 94
3 94 59 77
3 69 91 94
3 59 93 69
3 36 95 57
3 69 57 36
3 68 81 36
3 36 81 69
3 68 95 36
3 66 37 68
3 75 37 66
3 58 95 37
3 37 75 58
3 68 95 37
3 39 56 69
3 56 75 39
3 39 81 66
3 39 75 66
3 39 81 69
3 56 57 58
3 56 69 57
3 75 58 56
3 68 81 66
3 58 95 57
3 2 21 1
3 6 21 1
3 1 2 53
3 6 61 1
3 1 53 61
3 8 2 21
3 11 21 6
3 8 21 11
3 2 84 8
3 2 53 84
3 55 61 53
3 55 84 53
3 17 55 26
3 55 17 84
3 55 61 26
3 6 26 11
3 26 61 6
3 11 17 8
3 17 84 8
3 17 26 11
3 12 0 29
3 14 0 12
3 29 54 0
3 46 0 54
3 0 46 14
3 9 29 12
3 12 30 9
3 14 30 12
3 29 27 9
3 27 29 54
3 9 27 19
3 9 30 19
3 46 6 45
3 6 45 19
3 6 30 14
3 19 30 6
3 6 46 14
3 27 45 54
3 19 45 27
3 46 54 45
3 22 28 12
3 23 28 12
3 22 12 79
3 12 23 31
3 12 79 31
3 25 28 22
3 27 23 28
3 27 25 28
3 25 46 22
3 22 79 46
3 27 25 48
3 27 48 33
3 27 23 33
3 31 53 33
3 31 53 79
3 46 53 48
3 46 79 53
3 53 33 48
3 31 33 23
3 46 25 48
3 22 1 21
3 21 1 57
3 1 96 22
3 1 57 53
3 53 96 1
3 22 81 21
3 8 21 57
3 8 81 21
3 22 81 4
3 22 96 4
3 57 8 84
3 23 84 8
3 8 81 23
3 4 37 23
3 37 96 4
3 23 4 81
3 37 84 53
3 53 37 96
3 57 53 84
3 23 37 84
3 22 64 35
3 35 64 48
3 35 22 68
3 37 48 35
3 37 68 35
3 22 64 49
3 48 64 50
3 50 64 49
3 36 49 22
3 36 68 22
3 50 58 48
3 50 57 58
3 50 49 57
3 31 57 36
3 36 31 68
3 49 36 57
3 31 58 37
3 31 37 68
3 57 58 31
3 48 58 37
3 78 95 84
3 84 97 95
3 84 88 75
3 84 75 97
3 84 78 88
3 73 96 87
3 96 97 87
3 75 87 82
3 87 75 97
3 87 73 82
3 81 73 98
3 81 98 78
3 81 82 88
3 82 73 81
3 81 88 78
3 98 96 95
3 95 78 98
3 98 96 73
3 95 96 97
3 82 88 75
3 51 64 1
3 1 86 64
3 1 95 51
3 36 86 1
3 1 95 36
3 64 51 87
3 10 86 64
3 10 87 64
3 37 87 51
3 37 95 51
3 87 10 66
3 81 10 66
3 81 10 86
3 36 81 5
3 5 95 36
3 37 66 5
3 5 95 37
3 81 5 66
3 36 86 81
3 87 37 66
3 48 99 96
3 48 96 76
3 83 48 75
3 75 48 76
3 83 99 48
3 57 79 99
3 57 78 79
3 74 83 57
3 74 78 57
3 57 99 83
3 68 23 76
3 78 23 68
3 74 23 75
3 74 23 78
3 76 23 75
3 79 96 68
3 78 79 68
3 68 76 96
3 79 99 96
3 75 74 83
3 64 85 65
3 64 99 85
3 64 73 65
3 64 67 99
3 67 73 64
3 75 85 65
3 85 75 58
3 58 99 85
3 65 66 75
3 66 73 65
3 66 77 68
3 68 66 73
3 77 66 75
3 58 99 95
3 58 95 77
3 75 58 77
3 68 95 67
3 67 73 68
3 67 95 99
3 68 95 77
3 13 100 101
3 100 102 13
3 101 62 13
3 13 103 62
3 13 103 102
3 101 20 100
3 100 104 20
3 102 104 100
3 101 105 20
3 101 62 105
3 105 106 20
3 20 106 104
3 102 104 15
3 102 103 15
3 63 106 15
3 63 103 15
3 15 106 104
3 62 63 105
3 62 103 63
3 105 106 63
3 21 100 2
3 21 100 11
3 2 98 21
3 11 15 21
3 21 15 98
3 84 100 2
3 11 100 17
3 17 84 100
3 2 107 84
3 2 107 98
3 4 98 15
3 4 15 82
3 4 62 107
3 4 62 82
3 4 107 98
3 17 82 11
3 17 62 84
3 17 82 62
3 11 15 82
3 62 84 107
3 2 108 40
3 40 55 108
3 5 40 2
3 55 62 40
3 5 62 40
3 2 7 108
3 55 20 108
3 20 108 7
3 2 102 7
3 5 102 2
3 20 60 55
3 55 62 60
3 9 5 62
3 9 5 102
3 9 11 60
3 9 102 11
3 9 60 62
3 7 20 11
3 7 11 102
3 11 20 60
3 71 80 100
3 71 88 100
3 80 109 100
3 88 78 100
3 100 109 78
3 80 106 71
3 71 106 82
3 88 71 82
3 80 106 110
3 80 109 110
3 73 110 98
3 98 103 73
3 98 78 109
3 98 78 103
3 98 110 109
3 82 106 73
3 82 103 88
3 73 103 82
3 106 110 73
3 88 78 103
3 108 101 85
3 108 85 111
3 108 101 94
3 94 109 108
3 111 109 108
3 85 60 101
3 85 106 60
3 111 106 85
3 60 88 101
3 101 94 88
3 60 93 106
3 60 88 93
3 102 88 94
3 102 109 94
3 102 93 86
3 86 109 102
3 86 111 106
3 86 111 109
3 93 106 86
3 102 93 88
3 1 108 80
3 95 108 1
3 80 1 86
3 1 98 86
3 95 1 98
3 80 56 108
3 108 84 56
3 95 108 84
3 80 11 56
3 86 11 80
3 95 84 5
3 84 88 5
3 81 98 5
3 81 5 88
3 95 98 5
3 88 11 56
3 81 11 86
3 81 11 88
3 56 84 88
3 86 98 81
3 51 92 35
3 66 92 35
3 51 67 35
3 35 42 66
3 35 67 42
3 92 51 58
3 92 38 66
3 58 38 92
3 41 58 51
3 51 41 67
3 38 66 59
3 38 94 58
3 38 94 59
3 36 94 41
3 41 67 36
3 36 59 42
3 42 67 36
3 36 94 59
3 41 94 58
3 66 59 42
3 28 35 29
3 28 35 47
3 35 112 29
3 47 35 46
3 35 46 112
3 28 59 29
3 30 47 28
3 30 59 28
3 31 29 59
3 29 31 112
3 30 49 47
3 30 59 32
3 30 49 32
3 31 41 32
3 41 112 31
3 46 41 49
3 41 112 46
3 41 49 32
3 31 59 32
3 47 49 46
3 12 0 22
3 31 12 0
3 22 46 0
3 0 53 31
3 46 0 53
3 12 30 22
3 12 30 8
3 8 31 12
3 6 30 22
3 22 46 6
3 50 6 46
3 24 50 6
3 24 6 30
3 31 8 16
3 8 16 24
3 24 30 8
3 53 16 50
3 24 50 16
3 16 31 53
3 46 53 50
3 35 92 29
3 35 92 45
3 42 35 29
3 47 35 45
3 35 47 42
3 38 92 29
3 45 92 34
3 38 34 92
3 38 29 59
3 29 59 42
3 45 34 52
3 45 47 52
3 43 38 34
3 43 59 38
3 30 42 47
3 42 59 30
3 30 52 43
3 30 52 47
3 43 59 30
3 43 52 34
3 35 64 51
3 35 64 10
3 35 51 37
3 35 10 66
3 35 66 37
3 50 51 64
3 52 10 64
3 50 64 52
3 50 51 58
3 37 58 51
3 39 52 10
3 39 66 10
3 37 38 66
3 38 58 37
3 39 56 38
3 39 66 38
3 56 58 38
3 52 56 50
3 56 58 50
3 52 56 39
3 36 7 94
3 36 86 7
3 52 56 7
3 7 86 52
3 56 94 7
3 10 42 66
3 10 86 42
3 10 60 52
3 10 52 86
3 60 66 10
3 38 66 5
3 5 94 38
3 56 60 38
3 60 66 38
3 38 56 94
3 42 5 36
3 5 94 36
3 42 66 5
3 36 86 42
3 56 60 52
3 16 38 55
3 55 50 16
3 55 45 27
3 50 55 45
3 27 55 38
3 9 38 8
3 8 30 9
3 9 27 10
3 10 30 9
3 27 9 38
3 7 50 6
3 7 30 6
3 10 45 6
3 10 6 30
3 45 50 6
3 7 16 8
3 7 30 8
3 7 50 16
3 8 16 38
3 27 45 10
3 28 65 35
3 28 68 35
3 35 65 48
3 35 112 48
3 35 112 68
3 39 65 28
3 39 59 28
3 68 28 59
3 39 34 65
3 34 48 65
3 31 112 58
3 58 74 31
3 59 68 31
3 31 74 59
3 68 112 31
3 39 34 74
3 59 74 39
3 34 48 58
3 58 74 34
3 48 58 112
3 32 79 31
3 31 32 74
3 31 112 33
3 31 33 74
3 79 112 31
3 46 48 112
3 46 90 48
3 49 79 46
3 49 90 46
3 46 79 112
3 24 34 74
3 24 90 34
3 33 48 34
3 34 48 90
3 33 74 34
3 24 49 32
3 32 74 24
3 49 90 24
3 48 33 112
3 79 32 49
3 65 35 92
3 92 112 35
3 35 47 65
3 35 67 47
3 67 112 35
3 65 92 34
3 34 92 58
3 92 112 58
3 52 65 34
3 52 47 65
3 41 58 112
3 41 91 58
3 41 67 49
3 49 41 91
3 41 112 67
3 34 91 52
3 49 47 52
3 49 52 91
3 58 91 34
3 67 47 49
3 13 40 2
3 13 62 40
3 40 113 2
3 54 62 40
3 54 113 40
3 13 102 2
3 9 62 13
3 9 102 13
3 2 102 14
3 14 113 2
3 15 102 9
3 9 63 15
3 9 63 62
3 54 3 63
3 3 54 113
3 15 3 14
3 3 14 113
3 3 63 15
3 62 63 54
3 14 102 15
3 2 108 1
3 1 108 61
3 2 1 98
3 3 61 1
3 3 98 1
3 2 84 108
3 55 108 61
3 55 84 108
3 2 5 84
3 2 5 98
3 61 87 55
3 55 84 62
3 55 87 62
3 3 87 4
3 4 3 98
3 3 87 61
3 4 5 62
3 4 5 98
3 4 62 87
3 84 5 62
3 12 21 2
3 15 21 12
3 2 12 107
3 12 15 4
3 12 107 4
3 18 21 2
3 15 21 6
3 6 18 21
3 18 53 2
3 53 107 2
3 6 25 15
3 6 61 18
3 25 61 6
3 25 54 4
3 54 107 4
3 53 61 54
3 53 107 54
3 25 61 54
3 25 15 4
3 53 18 61
3 55 37 84
3 37 55 87
3 55 56 26
3 26 87 55
3 55 56 84
3 8 84 5
3 8 5 81
3 11 56 8
3 8 11 81
3 8 84 56
3 10 87 4
3 10 81 4
3 10 26 11
3 10 11 81
3 10 87 26
3 4 37 5
3 5 81 4
3 37 87 4
3 37 84 5
3 26 11 56
3 108 51 85
3 85 108 56
3 95 108 51
3 108 94 56
3 108 95 94
3 87 51 85
3 56 60 85
3 87 60 85
3 51 87 114
3 51 114 95
3 5 114 66
3 88 5 66
3 95 94 5
3 94 5 88
3 95 114 5
3 88 56 60
3 66 60 87
3 66 60 88
3 88 56 94
3 87 114 66
3 85 101 71
3 106 85 71
3 101 97 85
3 85 115 106
3 85 115 97
3 71 101 88
3 71 93 106
3 71 93 88
3 101 88 77
3 101 97 77
3 114 103 77
3 114 97 77
3 114 73 115
3 114 115 97
3 73 114 103
3 73 93 106
3 88 93 103
3 73 93 103
3 106 115 73
3 103 77 88
3 98 15 110
3 103 98 15
3 106 82 15
3 103 82 15
3 106 15 110
3 61 110 113
3 113 97 61
3 105 61 106
3 105 97 61
3 106 61 110
3 62 103 107
3 62 97 107
3 62 105 82
3 105 97 62
3 62 82 103
3 98 113 107
3 107 113 97
3 98 103 107
3 98 110 113
3 106 105 82
3 40 101 108
3 40 113 108
3 62 101 40
3 62 114 40
3 40 113 114
3 20 101 108
3 20 111 108
3 111 113 108
3 20 60 101
3 62 60 101
3 3 63 114
3 106 3 63
3 3 113 111
3 111 106 3
3 3 113 114
3 20 60 106
3 20 111 106
3 63 60 62
3 63 60 106
3 62 63 114
3 40 51 108
3 108 94 40
3 51 114 40
3 5 40 94
3 40 114 5
3 108 51 111
3 7 94 108
3 108 111 7
3 3 51 111
3 51 3 114
3 7 94 102
3 102 86 7
3 86 7 111
3 42 3 86
3 3 114 42
3 111 86 3
3 5 42 102
3 5 42 114
3 102 94 5
3 86 102 42
3 109 116 102
3 102 116 103
3 102 104 93
3 102 103 93
3 104 109 102
3 114 115 63
3 103 114 63
3 106 63 93
3 103 93 63
3 106 115 63
3 113 115 111
3 111 109 113
3 106 111 104
3 106 111 115
3 111 104 109
3 113 116 114
3 116 109 113
3 115 113 114
3 114 103 116
3 104 93 106
3 77 114 66
3 66 73 114
3 88 93 66
3 66 73 93
3 66 77 88
3 77 95 94
3 94 109 95
3 88 94 69
3 94 109 69
3 94 77 88
3 73 86 67
3 86 67 109
3 86 93 69
3 86 109 69
3 86 73 93
3 67 114 95
3 67 95 109
3 67 114 73
3 95 114 77
3 69 88 93
3 100 108 2
3 100 108 20
3 108 113 2
3 61 108 20
3 61 108 113
3 100 2 102
3 20 100 11
3 100 11 102
3 2 98 102
3 2 113 98
3 15 98 3
3 3 106 15
3 61 113 3
3 61 106 3
3 3 113 98
3 20 106 11
3 11 102 15
3 15 11 106
3 20 61 106
3 102 98 15
3 85 51 64
3 52 85 64
3 67 51 64
3 64 52 86
3 64 67 86
3 85 51 58
3 85 56 52
3 85 58 56
3 95 51 58
3 95 51 67
3 36 94 95
3 69 36 94
3 36 86 67
3 69 36 86
3 36 95 67
3 52 56 69
3 69 52 86
3 58 56 94
3 56 94 69
3 94 95 58
3 80 85 71
3 75 85 71
3 85 80 99
3 85 97 75
3 99 97 85
3 69 71 80
3 71 88 69
3 71 88 75
3 80 109 69
3 109 99 80
3 99 109 95
3 95 97 99
3 78 95 77
3 95 97 77
3 78 109 95
3 69 88 78
3 78 109 69
3 77 88 75
3 77 97 75
3 77 88 78
3 58 112 99
3 58 77 112
3 91 74 58
3 77 58 74
3 91 99 58
3 68 72 59
3 59 77 68
3 59 74 69
3 77 59 74
3 59 72 69
3 67 72 49
3 67 49 99
3 69 91 49
3 69 72 49
3 91 99 49
3 68 67 112
3 99 112 67
3 68 72 67
3 68 77 112
3 69 91 74
3 64 1 80
3 64 96 1
3 57 80 1
3 57 1 95
3 96 95 1
3 26 64 80
3 64 26 87
3 87 64 96
3 26 56 80
3 57 56 80
3 37 95 84
3 75 37 84
3 96 87 37
3 75 37 87
3 37 95 96
3 26 75 56
3 26 87 75
3 57 84 56
3 84 56 75
3 57 95 84
3 80 70 64
3 70 64 73
3 80 99 64
3 99 96 64
3 73 96 64
3 70 80 69
3 70 69 81
3 73 81 70
3 80 69 57
3 80 99 57
3 95 99 57
3 57 78 95
3 78 57 69
3 73 81 68
3 68 81 78
3 78 81 69
3 95 96 68
3 68 78 95
3 73 96 68
3 95 99 96
3 71 85 65
3 91 71 85
3 65 115 85
3 85 99 91
3 85 99 115
3 65 71 93
3 69 71 91
3 69 71 93
3 73 93 65
3 73 115 65
3 73 72 67
3 67 109 72
3 67 115 99
3 67 109 99
3 73 115 67
3 69 91 109
3 72 93 69
3 69 109 72
3 109 91 99
3 73 93 72
3 65 28 70
3 70 72 28
3 65 28 76
3 72 28 68
3 76 28 68
3 65 90 70
3 49 70 90
3 72 49 70
3 90 48 65
3 65 48 76
3 48 112 99
3 76 112 48
3 48 99 90
3 49 72 79
3 79 49 99
3 90 99 49
3 68 79 112
3 76 112 68
3 79 112 99
3 68 79 72
3 22 64 70
3 26 70 64
3 22 64 96
3 26 64 48
3 48 96 64
3 70 81 22
3 39 26 70
3 39 81 70
3 68 81 22
3 22 68 96
3 48 96 37
3 37 75 48
3 23 68 37
3 23 37 75
3 68 96 37
3 39 75 26
3 23 39 81
3 23 75 39
3 26 48 75
3 68 81 23
3 94 116 41
3 94 41 91
3 41 67 111
3 91 111 41
3 67 116 41
3 42 67 47
3 47 93 42
3 42 59 116
3 59 93 42
3 42 67 116
3 52 91 43
3 52 93 43
3 52 47 111
3 52 93 47
3 91 111 52
3 59 43 94
3 94 91 43
3 93 43 59
3 67 111 47
3 94 59 116
3 92 85 51
3 92 60 85
3 92 114 51
3 92 60 66
3 92 114 66
3 111 51 85
3 52 60 85
3 85 52 111
3 51 67 111
3 51 67 114
3 42 114 66
3 66 93 42
3 42 67 86
3 93 42 86
3 67 114 42
3 93 60 52
3 111 52 86
3 93 86 52
3 93 60 66
3 86 111 67
3 51 92 40
3 38 40 92
3 41 51 40
3 40 94 38
3 40 94 41
3 51 45 92
3 60 92 45
3 38 60 92
3 51 111 45
3 51 111 41
3 41 7 94
3 41 111 7
3 7 43 52
3 7 52 111
3 7 43 94
3 45 60 52
3 52 45 111
3 43 60 38
3 38 43 94
3 43 60 52
3 12 29 13
3 12 13 32
3 29 117 12
3 14 32 12
3 12 14 117
3 33 13 29
3 13 32 16
3 16 33 13
3 29 54 33
3 29 54 117
3 18 32 16
3 16 44 18
3 33 44 16
3 46 54 44
3 54 117 46
3 54 44 33
3 18 46 14
3 46 117 14
3 14 18 32
3 46 44 18
3 40 92 29
3 44 92 40
3 40 116 29
3 41 40 44
3 41 40 116
3 29 63 92
3 45 92 44
3 45 63 92
3 29 63 42
3 42 29 116
3 45 63 47
3 47 45 111
3 44 111 45
3 14 111 41
3 14 116 41
3 42 47 14
3 42 14 116
3 14 111 47
3 41 44 111
3 42 63 47
3 42 102 9
3 9 63 42
3 9 43 60
3 9 63 60
3 43 102 9
3 7 102 14
3 7 111 14
3 7 20 43
3 7 111 20
3 43 102 7
3 45 63 3
3 3 111 45
3 45 60 20
3 20 45 111
3 60 63 45
3 42 3 14
3 14 111 3
3 3 42 63
3 14 42 102
3 20 43 60
3 64 70 65
3 49 64 70
3 65 48 64
3 64 99 48
3 49 99 64
3 65 70 39
3 69 39 70
3 49 70 69
3 65 39 75
3 75 65 48
3 39 74 69
3 74 39 75
3 58 75 48
3 58 99 48
3 57 74 58
3 57 99 58
3 69 57 49
3 57 49 99
3 69 57 74
3 74 58 75
3 51 108 1
3 7 1 108
3 1 51 3
3 7 86 1
3 1 86 3
3 51 108 55
3 56 108 55
3 56 108 7
3 51 87 55
3 3 87 51
3 55 56 60
3 55 60 87
3 7 56 11
3 11 86 7
3 10 86 3
3 10 3 87
3 10 60 11
3 10 86 11
3 10 60 87
3 11 60 56
3 21 1 80
3 1 98 21
3 1 80 61
3 61 96 1
3 96 1 98
3 21 11 80
3 21 81 11
3 81 21 98
3 80 11 26
3 26 61 80
3 4 87 96
3 87 4 82
3 4 98 81
3 81 82 4
3 4 98 96
3 82 11 26
3 81 11 82
3 26 87 61
3 26 87 82
3 96 61 87
3 40 101 13
3 13 116 40
3 44 101 40
3 40 44 113
3 113 116 40
3 13 43 101
3 13 102 43
3 102 13 116
3 20 101 43
3 20 101 44
3 102 116 14
3 104 14 102
3 14 111 113
3 111 14 104
3 113 116 14
3 43 104 20
3 20 111 44
3 104 111 20
3 102 43 104
3 111 113 44
3 29 89 13
3 43 89 13
3 13 116 29
3 43 13 32
3 13 116 32
3 29 89 63
3 19 43 89
3 19 89 63
3 63 117 29
3 29 117 116
3 14 117 47
3 14 104 47
3 14 32 116
3 14 104 32
3 117 116 14
3 43 19 104
3 47 63 19
3 47 104 19
3 32 104 43
3 47 63 117
3 101 108 100
3 109 100 108
3 108 97 101
3 108 113 109
3 97 108 113
3 101 88 100
3 100 102 88
3 102 109 100
3 101 62 88
3 62 97 101
3 103 114 62
3 97 62 114
3 62 88 103
3 109 102 98
3 103 102 98
3 102 88 103
3 113 98 114
3 98 109 113
3 97 113 114
3 103 98 114
3 80 100 21
3 21 100 78
3 80 21 110
3 78 21 98
3 98 110 21
3 80 100 83
3 83 100 84
3 78 100 84
3 83 61 80
3 80 61 110
3 110 96 61
3 97 61 96
3 61 83 97
3 84 78 107
3 97 107 84
3 84 97 83
3 96 107 98
3 98 78 107
3 96 107 97
3 96 110 98
3 85 108 80
3 108 97 85
3 109 108 80
3 108 109 95
3 95 97 108
3 80 106 85
3 87 106 85
3 87 85 97
3 86 106 80
3 80 109 86
3 86 98 73
3 109 86 98
3 73 106 86
3 87 73 114
3 97 114 87
3 73 106 87
3 95 98 114
3 98 95 109
3 73 114 98
3 95 97 114
3 80 108 100
3 84 100 108
3 108 61 80
3 61 108 97
3 84 97 108
3 11 80 100
3 100 88 11
3 84 88 100
3 80 11 106
3 106 61 80
3 82 11 106
3 82 11 88
3 87 106 61
3 97 61 87
3 84 88 62
3 97 62 84
3 87 62 82
3 97 62 87
3 88 62 82
3 82 106 87
3 86 3 98
3 106 3 86
3 87 3 114
3 3 106 87
3 3 114 98
3 5 114 62
3 5 88 62
3 5 98 102
3 102 88 5
3 5 114 98
3 60 106 11
3 11 88 60
3 11 86 102
3 106 11 86
3 102 88 11
3 62 60 87
3 60 88 62
3 60 106 87
3 87 114 62
3 86 98 102
3 101 92 40
3 114 92 40
3 101 94 40
3 40 116 94
3 114 116 40
3 60 92 101
3 60 92 63
3 114 92 63
3 60 43 101
3 94 101 43
3 102 116 42
3 102 93 42
3 63 42 114
3 93 42 63
3 42 116 114
3 93 43 60
3 93 63 60
3 102 43 94
3 93 43 102
3 102 94 116
3 71 101 89
3 71 93 89
3 101 77 89
3 93 103 89
3 77 103 89
3 101 91 71
3 91 104 71
3 93 104 71
3 101 91 118
3 101 118 77
3 109 116 72
3 103 72 116
3 77 118 116
3 103 77 116
3 109 118 116
3 109 91 104
3 109 118 91
3 104 72 93
3 93 72 103
3 104 72 109
3 100 71 101
3 100 71 104
3 101 118 100
3 100 109 104
3 109 118 100
3 101 71 105
3 106 105 71
3 104 71 106
3 105 97 101
3 101 118 97
3 113 115 110
3 115 113 97
3 109 113 118
3 113 118 97
3 110 113 109
3 105 115 106
3 97 115 105
3 106 110 104
3 106 110 115
3 110 104 109
3 92 101 85
3 85 115 92
3 77 101 92
3 92 114 77
3 115 92 114
3 85 101 91
3 85 91 111
3 111 115 85
3 94 101 91
3 94 101 77
3 94 116 77
3 109 116 94
3 94 91 109
3 115 67 111
3 109 67 111
3 111 91 109
3 114 67 116
3 109 116 67
3 114 115 67
3 114 116 77
3 29 89 28
3 28 89 19
3 29 117 28
3 19 28 47
3 47 28 117
3 33 89 29
3 34 89 19
3 34 33 89
3 29 112 33
3 29 117 112
3 46 47 117
3 47 90 46
3 44 112 46
3 46 90 44
3 46 112 117
3 19 90 34
3 34 44 33
3 34 90 44
3 47 19 90
3 112 44 33
3 92 89 29
3 34 92 89
3 29 112 92
3 34 44 92
3 112 44 92
3 59 89 29
3 34 43 89
3 59 43 89
3 59 116 29
3 29 112 116
3 41 116 32
3 41 91 32
3 41 112 44
3 41 44 91
3 41 116 112
3 34 91 43
3 34 44 91
3 32 59 43
3 43 91 32
3 32 116 59
3 21 70 22
3 24 70 21
3 22 79 21
3 24 57 21
3 57 79 21
3 22 70 25
3 24 26 70
3 26 25 70
3 25 96 22
3 22 79 96
3 48 96 53
3 53 83 48
3 57 79 53
3 57 83 53
3 79 96 53
3 24 83 26
3 26 48 25
3 48 83 26
3 24 83 57
3 25 96 48
3 13 2 100
3 13 17 100
3 13 107 2
3 13 62 17
3 62 107 13
3 18 100 2
3 20 17 100
3 20 100 18
3 18 113 2
3 2 113 107
3 61 113 54
3 61 105 54
3 62 107 54
3 62 105 54
3 54 113 107
3 20 17 105
3 62 17 105
3 18 61 20
3 20 105 61
3 18 113 61
3 54 44 113
3 44 105 54
3 54 63 117
3 63 54 105
3 54 117 113
3 14 117 15
3 15 104 14
3 18 113 14
3 14 18 104
3 113 117 14
3 20 19 105
3 20 104 19
3 20 18 44
3 20 44 105
3 20 18 104
3 19 63 15
3 15 104 19
3 63 19 105
3 15 117 63
3 44 18 113
3 23 107 4
3 4 82 23
3 4 96 25
3 25 82 4
3 4 107 96
3 53 61 96
3 61 53 83
3 84 107 53
3 84 83 53
3 96 107 53
3 26 82 17
3 26 17 83
3 23 84 17
3 23 17 82
3 84 83 17
3 26 61 25
3 26 61 83
3 26 25 82
3 61 96 25
3 84 107 23
3 72 110 73
3 73 103 72
3 78 109 72
3 78 103 72
3 109 110 72
3 99 110 115
3 115 99 97
3 109 118 99
3 99 118 97
3 109 99 110
3 77 76 103
3 77 76 97
3 78 118 77
3 77 97 118
3 78 103 77
3 73 115 76
3 115 97 76
3 73 76 103
3 73 115 110
3 109 118 78
3 101 89 92
3 92 89 63
3 44 92 101
3 92 44 115
3 115 92 63
3 43 89 101
3 43 89 93
3 63 93 89
3 43 91 101
3 101 91 44
3 43 104 91
3 104 43 93
3 93 47 63
3 63 47 115
3 104 47 111
3 111 47 115
3 93 104 47
3 111 44 91
3 115 44 111
3 111 104 91
3 101 89 13
3 13 89 103
3 13 118 101
3 116 13 118
3 103 116 13
3 101 105 89
3 105 89 63
3 63 103 89
3 101 105 44
3 101 118 44
3 113 44 115
3 44 118 113
3 105 44 115
3 115 117 63
3 63 103 117
3 105 115 63
3 116 117 113
3 116 113 118
3 113 117 115
3 116 103 117
3 71 80 70
3 70 71 82
3 80 110 70
3 73 82 70
3 73 110 70
3 83 71 80
3 75 82 71
3 75 83 71
3 83 99 80
3 80 99 110
3 99 110 96
3 96 97 99
3 76 96 73
3 97 76 96
3 73 110 96
3 76 82 75
3 75 83 97
3 75 97 76
3 73 76 82
3 99 97 83
3 65 89 92
3 77 92 89
3 65 115 92
3 77 112 92
3 92 112 115
3 89 93 65
3 59 93 89
3 59 89 77
3 65 47 93
3 65 115 47
3 47 72 67
3 67 115 47
3 72 47 93
3 72 116 59
3 59 116 77
3 72 93 59
3 67 112 116
3 67 112 115
3 67 72 116
3 77 112 116
3 65 89 71
3 74 89 71
3 65 89 76
3 77 89 74
3 77 89 76
3 65 90 71
3 71 91 74
3 91 71 90
3 65 90 115
3 65 115 76
3 99 112 115
3 99 118 112
3 76 112 77
3 112 118 77
3 76 112 115
3 74 118 91
3 77 118 74
3 90 99 91
3 99 118 91
3 99 115 90
3 72 117 47
3 47 115 117
3 47 104 90
3 47 115 90
3 72 104 47
3 32 116 72
3 116 118 32
3 32 104 91
3 32 118 91
3 32 104 72
3 44 112 115
3 112 118 44
3 90 44 91
3 91 44 118
3 44 90 115
3 116 112 117
3 118 112 116
3 117 115 112
3 116 72 117
3 90 104 91
3 71 119 70
3 71 90 70
3 72 119 70
3 90 110 70
3 72 110 70
3 74 119 71
3 71 83 74
3 71 90 83
3 74 119 78
3 72 78 119
3 78 72 79
3 72 110 79
3 99 118 79
3 99 110 79
3 79 118 78
3 74 83 118
3 74 118 78
3 99 83 90
3 99 90 110
3 99 118 83
3 12 13 119
3 13 107 12
3 12 119 15
3 12 117 15
3 12 117 107
3 17 119 13
3 17 13 33
3 13 107 33
3 19 119 17
3 19 119 15
3 54 25 117
3 54 25 105
3 33 107 54
3 54 33 105
3 54 117 107
3 17 105 19
3 33 105 17
3 15 25 19
3 19 105 25
3 15 25 117
3 100 119 21
3 21 100 18
3 15 21 119
3 15 21 110
3 18 110 21
3 100 119 17
3 100 17 83
3 100 18 83
3 17 82 119
3 15 119 82
3 82 17 105
3 17 105 83
3 15 25 82
3 15 25 110
3 18 83 61
3 61 110 18
3 61 25 105
3 25 110 61
3 105 83 61
3 82 25 105
3 21 119 12
3 21 79 12
3 23 119 12
3 12 107 23
3 12 79 107
3 24 119 21
3 24 21 18
3 21 79 18
3 17 24 119
3 17 23 119
3 18 79 53
3 53 83 18
3 33 107 53
3 53 83 33
3 53 79 107
3 24 83 17
3 23 33 17
3 17 83 33
3 18 83 24
3 23 33 107
3 71 119 100
3 100 71 83
3 100 119 78
3 83 118 100
3 78 118 100
3 82 119 71
3 82 105 71
3 71 83 105
3 103 119 82
3 78 119 103
3 107 76 103
3 97 107 76
3 107 118 78
3 107 118 97
3 103 78 107
3 105 76 82
3 105 83 97
3 97 76 105
3 103 76 82
3 97 118 83
3 21 119 70
3 21 110 70
3 78 21 119
3 78 21 79
3 21 79 110
3 70 119 82
3 70 25 82
3 70 110 25
3 23 119 82
3 23 119 78
3 76 107 23
3 78 107 23
3 23 82 76
3 96 76 25
3 96 110 25
3 82 76 25
3 96 107 79
3 79 107 78
3 96 76 107
3 96 110 79
3 70 119 28
3 28 70 25
3 23 28 119
3 28 76 23
3 28 25 76
3 70 119 24
3 24 70 90
3 90 25 70
3 74 119 24
3 74 119 23
3 74 83 24
3 24 83 90
3 48 90 25
3 48 76 25
3 48 33 83
3 33 76 48
3 83 90 48
3 74 33 23
3 23 76 33
3 74 83 33
3 28 119 89
3 89 76 28
3 28 119 72
3 72 117 28
3 28 76 117
3 89 119 74
3 74 89 33
3 89 76 33
3 74 32 119
3 72 32 119
3 32 72 79
3 32 118 79
3 32 118 74
3 33 76 112
3 112 33 118
3 74 33 118
3 112 79 117
3 112 118 79
3 112 76 117
3 72 117 79
3 71 119 89
3 71 89 105
3 103 119 89
3 89 76 105
3 103 76 89
3 104 119 71
3 71 105 90
3 71 104 90
3 72 119 104
3 72 103 119
3 72 117 110
3 103 117 72
3 115 76 117
3 103 117 76
3 110 117 115
3 105 90 115
3 110 90 104
3 110 90 115
3 105 76 115
3 104 110 72
3 89 119 13
3 13 89 33
3 13 119 32
3 13 32 118
3 13 118 33
3 89 119 19
3 89 105 19
3 33 105 89
3 19 119 104
3 32 104 119
3 19 105 90
3 19 90 104
3 32 18 104
3 18 118 32
3 44 90 18
3 18 118 44
3 44 105 33
3 44 33 118
3 90 105 44
3 104 90 18
3 13 100 119
3 100 118 13
3 103 119 13
3 13 118 107
3 13 107 103
3 100 119 104
3 100 18 104
3 100 118 18
3 104 119 15
3 15 119 103
3 15 117 110
3 103 117 15
3 15 104 110
3 113 118 18
3 110 18 113
3 104 110 18
3 113 107 117
3 107 118 113
3 103 107 117
3 113 117 110
3 28 119 12
3 28 117 12
3 32 119 12
3 32 79 12
3 12 79 117
3 28 119 19
3 19 25 28
3 25 117 28
3 19 119 24
3 24 32 119
3 46 18 79
3 46 90 18
3 46 117 25
3 25 90 46
3 79 117 46
3 24 19 90
3 25 90 19
3 24 32 18
3 18 90 24
3 32 18 79
3 118 18 79
3 110 18 79
3 83 90 18
3 110 90 18
3 83 118 18
3 25 117 76
3 117 110 25
3 25 90 105
3 110 25 90
3 105 76 25
3 33 76 107
3 33 118 107
3 105 33 83
3 105 76 33
3 118 33 83
3 107 117 79
3 118 107 79
3 117 76 107
3 110 117 79
3 83 105 90

# Cells
20 0 1 2 3 4 5 6 7 8 9 10 11 12 13 14 15 16 17 18 19
20 20 21 22 23 24 25 26 27 28 29 30 31 32 33 34 35 36 37 38 39
20 40 41 42 43 44 45 46 47 48 49 50 51 52 53 54 55 56 57 58 59
20 60 61 62 63 64 65 66 67 68 69 70 71 72 73 74 75 76 77 78 79
20 80 81 82 83 84 85 86 87 88 89 90 91 92 93 94 95 96 97 98 99
20 100 101 102 103 104 105 106 107 108 109 110 111 112 113 114 115 116 117 118 119
20 120 121 122 123 124 125 126 127 128 129 130 131 132 133 134 135 136 137 138 139
20 140 141 142 143 144 145 146 147 148 149 150 151 152 153 154 155 156 157 158 159
20 160 161 162 163 164 165 166 167 168 169 170 171 172 173 174 175 176 177 178 179
20 180 181 182 183 184 185 186 187 188 189 190 191 192 193 194 195 196 197 198 199
20 200 201 202 203 204 205 206 207 208 209 210 211 212 213 214 215 216 217 218 219
20 220 221 222 223 224 225 226 227 228 229 230 231 232 233 234 235 236 237 238 239
20 240 241 242 243 244 245 246 247 248 249 250 251 252 253 254 255 256 257 258 259
20 260 261 262 263 264 265 266 267 268 269 270 271 272 273 274 275 276 277 278 279
20 280 281 282 283 284 285 286 287 288 289 290 291 292 293 294 295 296 297 298 299
20 300 301 302 303 304 305 306 307 308 309 310 311 312 313 314 315 316 317 318 319
20 320 321 322 323 324 325 326 327 328 329 330 331 332 333 334 335 336 337 338 339
20 340 341 342 343 344 345 346 347 348 349 350 351 352 353 354 355 356 357 358 359
20 360 361 362 363 364 365 366 367 368 369 370 371 372 373 374 375 376 377 378 379
20 380 381 382 383 384 385 386 387 388 389 390 391 392 393 394 395 396 397 398 399
20 400 401 402 403 404 405 406 407 408 409 410 411 412 413 414 415 416 417 418 419
20 420 421 422 423 424 425 426 427 428 429 430 431 432 433 434 435 436 437 438 439
20 440 441 442 443 444 445 446 447 448 449 450 451 452 453 454 455 456 457 458 459
20 460 461 462 463 464 465 466 467 468 469 470 471 472 473 474 475 476 477 478 479
20 480 481 482 483 484 485 486 487 488 489 490 491 492 493 494 495 496 497 498 499
20 500 501 502 503 504 505 506 507 508 509 510 511 512 513 514 515 516 517 518 519
20 520 521 522 523 524 525 526 527 528 529 530 531 532 533 534 535 536 537 538 539
20 540 541 542 543 544 545 546 547 548 549 550 551 552 553 554 555 556 557 558 559
20 560 561 562 563 564 565 566 567 568 569 570 571 572 573 574 575 576 577 578 579
20 580 581 582 583 584 585 586 587 588 589 590 591 592 593 594 595 596 597 598 599
20 600 601 602 603 604 605 606 607 608 609 610 611 612 613 614 615 616 617 618 619
20 620 621 622 623 624 625 626 627 628 629 630 631 632 633 634 635 636 637 638 639
20 640 641 642 643 644 645 646 647 648 649 650 651 652 653 654 655 656 657 658 659
20 660 661 662 663 664 665 666 667 668 669 670 671 672 673 674 675 676 677 678 679
20 680 681 682 683 684 685 686 687 688 689 690 691 692 693 694 695 696 697 698 699
20 700 701 702 703 704 705 706 707 708 709 710 711 712 713 714 715 716 717 718 719
20 720 721 722 723 724 725 726 727 728 729 730 731 732 733 734 735 736 737 738 739
20 740 741 742 743 744 745 746 747 748 749 750 751 752 753 754 755 756 757 758 759
20 760 761 762 763 764 765 766 767 768 769 770 771 772 773 774 775 776 777 778 779
20 780 781 782 783 784 785 786 787 788 789 790 791 792 793 794 795 796 797 798 799
20 800 801 802 803 804 805 806 807 808 809 810 811 812 813 814 815 816 817 818 819
20 820 821 822 823 824 825 826 827 828 829 830 831 832 833 834 835 836 837 838 839
20 840 841 842 843 844 845 846 847 848 849 850 851 852 853 854 855 856 857 858 859
20 860 861 862 863 864 865 866 867 868 869 870 871 872 873 874 875 876 877 878 879
20 880 881 882 883 884 885 886 887 888 889 890 891 892 893 894 895 896 897 898 899
20 900 901 902 903 904 905 906 907 908 909 910 911 912 913 914 915 916 917 918 919
20 920 921 922 923 924 925 926 927 928 929 930 931 932 933 934 935 936 937 938 939
20 940 941 942 943 944 945 946 947 948 949 950 951 952 953 954 955 956 957 958 959
20 960 961 962 963 964 965 966 967 968 969 970 971 972 973 974 975 976 977 978 979
20 980 981 982 983 984 985 986 987 988 989 990 991 992 993 994 995 996 997 998 999
20 1000 1001 1002 1003 1004 1005 1006 1007 1008 1009 1010 1011 1012 1013 1014 1015 1016 1017 1018 1019
20 1020 1021 1022 1023 1024 1025 1026 1027 1028 1029 1030 1031 1032 1033 1034 1035 1036 1037 1038 1039
20 1040 1041 1042 1043 1044 1045 1046 1047 1048 1049 1050 1051 1052 1053 1054 1055 1056 1057 1058 1059
20 1060 1061 1062 1063 1064 1065 1066 1067 1068 1069 1070 1071 1072 1073 1074 1075 1076 1077 1078 1079
20 1080 1081 1082 1083 1084 1085 1086 1087 1088 1089 1090 1091 1092 1093 1094 1095 1096 1097 1098 1099
20 1100 1101 1102 1103 1104 1105 1106 1107 1108 1109 1110 1111 1112 1113 1114 1115 1116 1117 1118 1119
20 1120 1121 1122 1123 1124 1125 1126 1127 1128 1129 1130 1131 1132 1133 1134 1135 1136 1137 1138 1139
20 1140 1141 1142 1143 1144 1145 1146 1147 1148 1149 1150 1151 1152 1153 1154 1155 1156 1157 1158 1159
20 1160 1161 1162 1163 1164 1165 1166 1167 1168 1169 1170 1171 1172 1173 1174 1175 1176 1177 1178 1179
20 1180 1181 1182 1183 1184 1185 1186 1187 1188 1189 1190 1191 1192 1193 1194 1195 1196 1197 1198 1199
20 1200 1201 1202 1203 1204 1205 1206 1207 1208 1209 1210 1211 1212 1213 1214 1215 1216 1217 1218 1219
20 1220 1221 1222 1223 1224 1225 1226 1227 1228 1229 1230 1231 1232 1233 1234 1235 1236 1237 1238 1239
20 1240 1241 1242 1243 1244 1245 1246 1247 1248 1249 1250 1251 1252 1253 1254 1255 1256 1257 1258 1259
20 1260 1261 1262 1263 1264 1265 1266 1267 1268 1269 1270 1271 1272 1273 1274 1275 1276 1277 1278 1279
20 1280 1281 1282 1283 1284 1285 1286 1287 1288 1289 1290 1291 1292 1293 1294 1295 1296 1297 1298 1299
20 1300 1301 1302 1303 1304 1305 1306 1307 1308 1309 1310 1311 1312 1313 1314 1315 1316 1317 1318 1319
20 1320 1321 1322 1323 1324 1325 1326 1327 1328 1329 1330 1331 1332 1333 1334 1335 1336 1337 1338 1339
20 1340 1341 1342 1343 1344 1345 1346 1347 1348 1349 1350 1351 1352 1353 1354 1355 1356 1357 1358 1359
20 1360 1361 1362 1363 1364 1365 1366 1367 1368 1369 1370 1371 1372 1373 1374 1375 1376 1377 1378 1379
20 1380 1381 1382 1383 1384 1385 1386 1387 1388 1389 1390 1391 1392 1393 1394 1395 1396 1397 1398 1399
20 1400 1401 1402 1403 1404 1405 1406 1407 1408 1409 1410 1411 1412 1413 1414 1415 1416 1417 1418 1419
20 1420 1421 1422 1423 1424 1425 1426 1427 1428 1429 1430 1431 1432 1433 1434 1435 1436 1437 1438 1439
20 1440 1441 1442 1443 1444 1445 1446 1447 1448 1449 1450 1451 1452 1453 1454 1455 1456 1457 1458 1459
20 1460 1461 1462 1463 1464 1465 1466 1467 1468 1469 1470 1471 1472 1473 1474 1475 1476 1477 1478 1479
20 1480 1481 1482 1483 1484 1485 1486 1487 1488 1489 1490 1491 1492 1493 1494 1495 1496 1497 1498 1499
20 1500 1501 1502 1503 1504 1505 1506 1507 1508 1509 1510 1511 1512 1513 1514 1515 1516 1517 1518 1519
20 1520 1521 1522 1523 1524 1525 1526 1527 1528 1529 1530 1531 1532 1533 1534 1535 1536 1537 1538 1539
20 1540 1541 1542 1543 1544 1545 1546 1547 1548 1549 1550 1551 1552 1553 1554 1555 1556 1557 1558 1559
20 1560 1561 1562 1563 1564 1565 1566 1567 1568 1569 1570 1571 1572 1573 1574 1575 1576 1577 1578 1579
20 1580 1581 1582 1583 1584 1585 1586 1587 1588 1589 1590 1591 1592 1593 1594 1595 1596 1597 1598 1599
20 1600 1601 1602 1603 1604 1605 1606 1607 1608 1609 1610 1611 1612 1613 1614 1615 1616 1617 1618 1619
20 1620 1621 1622 1623 1624 1625 1626 1627 1628 1629 1630 1631 1632 1633 1634 1635 1636 1637 1638 1639
20 1640 1641 1642 1643 1644 1645 1646 1647 1648 1649 1650 1651 1652 1653 1654 1655 1656 1657 1658 1659
20 1660 1661 1662 1663 1664 1665 1666 1667 1668 1669 1670 1671 1672 1673 1674 1675 1676 1677 1678 1679
20 1680 1681 1682 1683 1684 1685 1686 1687 1688 1689 1690 1691 1692 1693 1694 1695 1696 1697 1698 1699
20 1700 1701 1702 1703 1704 1705 1706 1707 1708 1709 1710 1711 1712 1713 1714 1715 1716 1717 1718 1719
20 1720 1721 1722 1723 1724 1725 1726 1727 1728 1729 1730 1731 1732 1733 1734 1735 1736 1737 1738 1739
20 1740 1741 1742 1743 1744 1745 1746 1747 1748 1749 1750 1751 1752 1753 1754 1755 1756 1757 1758 1759
20 1760 1761 1762 1763 1764 1765 1766 1767 1768 1769 1770 1771 1772 1773 1774 1775 1776 1777 1778 1779
20 1780 1781 1782 1783 1784 1785 1786 1787 1788 1789 1790 1791 1792 1793 1794 1795 1796 1797 1798 1799
20 1800 1801 1802 1803 1804 1805 1806 1807 1808 1809 1810 1811 1812 1813 1814 1815 1816 1817 1818 1819
20 1820 1821 1822 1823 1824 1825 1826 1827 1828 1829 1830 1831 1832 1833 1834 1835 1836 1837 1838 1839
20 1840 1841 1842 1843 1844 1845 1846 1847 1848 1849 1850 1851 1852 1853 1854 1855 1856 1857 1858 1859
20 1860 1861 1862 1863 1864 1865 1866 1867 1868 1869 1870 1871 1872 1873 1874 1875 1876 1877 1878 1879
20 1880 1881 1882 1883 1884 1885 1886 1887 1888 1889 1890 1891 1892 1893 1894 1895 1896 1897 1898 1899
20 1900 1901 1902 1903 1904 1905 1906 1907 1908 1909 1910 1911 1912 1913 1914 1915 1916 1917 1918 1919
20 1920 1921 1922 1923 1924 1925 1926 1927 1928 1929 1930 1931 1932 1933 1934 1935 1936 1937 1938 1939
20 1940 1941 1942 1943 1944 1945 1946 1947 1948 1949 1950 1951 1952 1953 1954 1955 1956 1957 1958 1959
20 1960 1961 1962 1963 1964 1965 1966 1967 1968 1969 1970 1971 1972 1973 1974 1975 1976 1977 1978 1979
20 1980 1981 1982 1983 1984 1985 1986 1987 1988 1989 1990 1991 1992 1993 1994 1995 1996 1997 1998 1999
20 2000 2001 2002 2003 2004 2005 2006 2007 2008 2009 2010 2011 2012 2013 2014 2015 2016 2017 2018 2019
20 2020 2021 2022 2023 2024 2025 2026 2027 2028 2029 2030 2031 2032 2033 2034 2035 2036 2037 2038 2039
20 2040 2041 2042 2043 2044 2045 2046 2047 2048 2049 2050 2051 2052 2053 2054 2055 2056 2057 2058 2059
20 2060 2061 2062 2063 2064 2065 2066 2067 2068 2069 2070 2071 2072 2073 2074 2075 2076 2077 2078 2079
20 2080 2081 2082 2083 2084 2085 2086 2087 2088 2089 2090 2091 2092 2093 2094 2095 2096 2097 2098 2099
20 2100 2101 2102 2103 2104 2105 2106 2107 2108 2109 2110 2111 2112 2113 2114 2115 2116 2117 2118 2119
20 2120 2121 2122 2123 2124 2125 2126 2127 2128 2129 2130 2131 2132 2133 2134 2135 2136 2137 2138 2139
20 2140 2141 2142 2143 2144 2145 2146 2147 2148 2149 2150 2151 2152 2153 2154 2155 2156 2157 2158 2159
20 2160 2161 2162 2163 2164 2165 2166 2167 2168 2169 2170 2171 2172 2173 2174 2175 2176 2177 2178 2179
20 2180 2181 2182 2183 2184 2185 2186 2187 2188 2189 2190 2191 2192 2193 2194 2195 2196 2197 2198 2199
20 2200 2201 2202 2203 2204 2205 2206 2207 2208 2209 2210 2211 2212 2213 2214 2215 2216 2217 2218 2219
20 2220 2221 2222 2223 2224 2225 2226 2227 2228 2229 2230 2231 2232 2233 2234 2235 2236 2237 2238 2239
20 2240 2241 2242 2243 2244 2245 2246 2247 2248 2249 2250 2251 2252 2253 2254 2255 2256 2257 2258 2259
20 2260 2261 2262 2263 2264 2265 2266 2267 2268 2269 2270 2271 2272 2273 2274 2275 2276 2277 2278 2279
20 2280 2281 2282 2283 2284 2285 2286 2287 2288 2289 2290 2291 2292 2293 2294 2295 2296 2297 2298 2299
20 2300 2301 2302 2303 2304 2305 2306 2307 2308 2309 2310 2311 2312 2313 2314 2315 2316 2317 2318 2319
20 2320 2321 2322 2323 2324 2325 2326 2327 2328 2329 2330 2331 2332 2333 2334 2335 2336 2337 2338 2339
20 2340 2341 2342 2343 2344 2345 2346 2347 2348 2349 2350 2351 2352 2353 2354 2355 2356 2357 2358 2359
20 2360 2361 2362 2363 2364 2365 2366 2367 2368 2369 2370 2371 2372 2373 2374 2375 2376 2377 2378 2379
20 2380 2381 2382 2383 2384 2385 2386 2387 2388 2389 2390 2391 2392 2393 2394 2395 2396 2397 2398 2399
4 0 221 302 582
4 37 210 311 342
4 55 190 319 1133
4 71 186 633 938
4 80 142 381 922
4 50 236 272 931
4 100 201 362 602
4 33 180 616 1556
4 75 127 395 618
4 97 230 250 1004
4 113 170 392 1017
4 16 215 337 1012
4 70 120 394 913
4 98 150 282 398
4 102 161 380 942
4 68 191 609 1548
4 112 132 370 611
4 22 202 300 601
4 84 224 275 923
4 61 145 620 925
4 52 187 318 934
4 106 206 326 1000
4 12 237 316 1007
4 92 172 253 1016
4 81 160 242 962
4 95 238 267 495
4 89 148 291 668
4 65 141 385 900
4 178 287 397 950
4 103 135 384 604
4 42 222 301 920
4 152 270 635 939
4 77 182 615 932
4 111 176 332 1008
4 211 312 617 1002
4 6 226 246 1010
4 2 200 321 802
4 32 217 350 1095
4 114 218 372 1587
4 21 365 605 1540
4 28 185 309 1128
4 11 315 347 597
4 90 390 933 1018
4 400 661 1022 1602
4 436 755 1363 1619
4 459 725 1454 1617
4 471 722 1478 1937
4 278 452 677 1472
4 480 642 1381 1462
4 500 741 1342 1402
4 434 737 1418 2072
4 473 680 1399 1411
4 498 575 671 978
4 512 566 719 1393
4 414 564 756 1334
4 522 901 1020 1062
4 454 1034 1044 1456
4 155 289 670 1037
4 544 1067 1361 2083
4 539 1374 1455 2117
4 430 757 1377 1430
4 428 723 1449 1609
4 579 753 1410 1615
4 445 665 1460 1601
4 403 565 664 964
4 296 412 894 1072
4 405 545 740 1321
4 54 239 266 653
4 82 220 241 482
4 17 235 595 1152
4 3 203 303 355
4 41 305 585 1120
4 30 192 317 610
4 48 181 628 929
4 62 382 600 921
4 93 157 262 935
4 86 166 386 1019
4 10 256 334 1005
4 115 213 614 1011
4 4 223 244 1155
4 56 231 313 592
4 227 271 483 643
4 87 143 265 663
4 83 163 295 383
4 91 257 492 974
4 168 248 328 1003
4 108 388 608 1009
4 8 208 308 1015
4 195 304 603 924
4 43 261 623 927
4 72 154 393 937
4 58 269 630 1936
4 263 493 652 1476
4 156 274 457 672
4 233 252 497 1142
4 45 225 581 640
4 396 612 930 1014
4 85 485 660 961
4 470 687 1396 1658
4 494 650 1149 1397
4 502 701 862 1380
4 469 729 1409 2068
4 422 742 1401 1600
4 519 694 1355 1415
4 273 487 666 1463
4 461 645 1465 1920
4 456 732 1477 1611
4 506 577 746 1327
4 413 561 675 1616
4 496 572 711 971
4 770 1207 1318 1958
4 357 790 1114 1310
4 800 1082 1221 1302
4 834 1218 1717 1854
4 778 1239 1266 1710
4 840 1182 1702 1741
4 860 1101 1642 1762
4 799 1211 1734 1775
4 689 835 1755 1779
4 856 1233 1255 1781
4 874 1174 1756 1789
4 811 1112 1631 1795
4 288 406 667 967
4 284 887 947 1066
4 147 294 907 1026
4 125 387 903 943
4 116 173 956 1532
4 167 883 963 985
4 88 228 928 1013
4 179 290 895 955
4 101 162 320 1522
4 171 255 977 982
4 232 310 936 1001
4 99 280 676 973
4 153 286 399 915
4 118 122 391 952
4 891 976 994 1337
4 245 481 700 965
4 94 260 490 673
4 165 880 941 1525
4 164 243 324 995
4 281 389 908 948
4 76 151 631 1052
4 140 442 662 1021
4 276 450 634 1932
4 144 904 1023 1045
4 293 910 957 1076
4 169 285 888 968
4 297 410 674 1032
4 146 268 443 626
4 78 158 912 1055
4 306 606 926 1006
4 96 177 292 970
4 404 1024 1064 1375
4 528 1029 1053 1448
4 451 678 1031 1614
4 69 909 1042 1888
4 536 917 1073 1911
4 149 448 629 1047
4 67 133 906 1883
4 534 918 1033 1041
4 902 940 1061 1902
4 299 408 1028 1068
4 7 351 583 1103
4 13 333 814 1636
4 104 204 323 1595
4 34 216 376 613
4 207 341 803 1083
4 23 307 345 1123
4 349 815 1090 1316
4 343 593 796 1111
4 35 354 1131 1957
4 212 330 810 1592
4 25 205 361 1080
4 5 805 1100 1621
4 1 240 322 1622
4 9 588 1108 1145
4 15 214 352 817
4 314 340 590 1135
4 505 865 1161 1740
4 858 1195 1294 1752
4 696 832 1354 1757
4 828 1209 1729 1769
4 692 877 1656 1771
4 785 1105 1300 1761
4 844 1227 1271 1703
4 821 1185 1705 1840
4 773 1201 1319 1714
4 863 1104 1624 1780
4 819 1235 1315 1790
4 852 1173 1258 1788
4 841 1160 1245 1505
4 850 1238 1267 1816
4 849 1188 1289 1869
4 875 1175 1639 1791
4 804 1223 1244 1785
4 1115 1313 1772 1783
4 765 1225 1301 1700
4 836 1214 1712 1778
4 1193 1277 1718 1851
4 825 1181 1340 1745
4 513 1179 1281 1753
4 681 867 1744 1764
4 516 752 1284 1357
4 504 685 1387 1404
4 421 1345 1405 2060
4 477 731 1414 1479
4 418 1036 1367 1610
4 517 563 718 1333
4 499 571 1395 1475
4 515 578 751 1413
4 555 754 1285 1339
4 425 745 1341 1420
4 432 1378 1457 2112
4 559 1369 1436 2095
4 530 1038 1078 1362
4 568 679 1471 1612
4 435 728 1412 1618
4 441 1025 1440 1605
4 402 542 881 1060
4 415 570 979 1335
4 411 556 897 1331
4 567 709 969 1328
4 489 562 669 1468
4 508 576 1389 1408
4 503 744 1290 1324
4 433 759 1352 1417
4 547 747 1364 1423
4 423 1373 1447 1607
4 720 1403 1464 1603
4 416 550 1077 1372
4 884 944 1063 1485
4 541 885 1325 1500
4 174 893 980 1530
4 298 914 1030 1070
4 706 966 988 1323
4 329 1248 1528 1591
4 1491 1515 1539 1815
4 105 945 1521 1560
4 251 331 992 1630
4 997 1170 1257 1510
4 283 417 890 975
4 327 991 1243 1523
4 247 703 981 1623
4 999 1166 1326 1506
4 889 1482 1508 1529
4 896 998 1332 1512
4 892 953 1495 1538
4 175 338 987 1535
4 259 715 972 990
4 134 911 958 1917
4 73 123 1552 1896
4 129 378 1570 1696
4 107 121 363 1563
4 63 131 607 1543
4 109 368 1568 1581
4 126 374 619 1553
4 119 130 954 1575
4 110 335 1537 1582
4 407 743 1371 1604
4 401 882 960 1322
4 409 573 748 1608
4 574 1406 1467 1606
4 159 455 1035 1050
4 524 1027 1365 1443
4 1039 1360 1450 1613
4 569 1394 1416 1474
4 419 553 750 1366
4 449 735 1469 1929
4 465 1385 1400 1461
4 484 560 704 1383
4 279 446 1466 1926
4 336 813 1256 1580
4 26 348 1086 1943
4 219 375 1093 1590
4 258 491 713 1146
4 19 1113 1150 1635
4 234 591 656 1140
4 18 254 1147 1632
4 229 488 648 1151
4 249 708 1141 1628
4 714 996 1172 1330
4 886 993 1503 1527
4 339 986 1253 1634
4 866 1107 1144 1626
4 587 647 1148 1646
4 486 707 1154 1386
4 712 876 1153 1637
4 501 705 1165 1320
4 984 1163 1246 1627
4 584 644 1643 1985
4 872 1117 1156 1652
4 51 596 1132 1995
4 580 782 1102 1641
4 344 806 1106 1303
4 358 792 1134 1952
4 353 586 783 1126
4 594 1110 1143 1657
4 53 598 651 1992
4 14 346 812 1116
4 816 1092 1237 1583
4 1576 1598 1670 1810
4 364 1084 1663 1960
4 124 367 1546 1683
4 377 1572 1593 1676
4 31 371 1091 1975
4 209 808 1088 1585
4 38 373 1551 1972
4 360 1562 1661 1682
4 128 946 1566 1903
4 137 1557 1690 1890
4 117 1531 1573 1586
4 710 989 1176 1638
4 462 641 1382 1640
4 855 1713 1751 1799
4 697 830 1739 2074
4 781 1645 1720 1765
4 467 693 1407 2063
4 507 688 1343 1747
4 684 823 1727 1767
4 474 659 1391 1473
4 793 1118 1651 1776
4 468 1649 1728 1996
4 514 717 873 1171
4 869 1748 1768 1793
4 686 1659 1731 1773
4 476 655 1653 1981
4 518 690 879 1750
4 871 1119 1774 1786
4 702 861 1162 1620
4 794 1654 1736 1984
4 1711 1754 1777 1798
4 479 683 1735 2076
4 716 870 1158 1390
4 695 864 1384 1644
4 809 1109 1308 1787
4 1168 1249 1629 1782
4 848 1229 1708 1796
4 843 1164 1286 1743
4 831 1194 1719 1758
4 1206 1304 1704 1763
4 1265 1807 1864 2024
4 771 1236 1272 1677
4 1276 1834 1852 2057
4 838 1198 1858 2018
4 1180 1421 1825 1865
4 1191 1298 1353 1759
4 1234 1314 1716 1784
4 769 1213 1709 1848
4 822 1701 1742 1760
4 857 1291 1519 1874
4 846 1167 1746 1797
4 842 1220 1241 1802
4 1186 1279 1827 1847
4 839 1199 1359 2014
4 1192 1297 1434 1878
4 509 1293 1348 1749
4 1307 1706 1766 1794
4 851 1177 1282 1518
4 853 1260 1819 1871
4 1169 1295 1329 1509
4 558 1288 1435 1872
4 845 1501 1805 1860
4 1190 1278 1833 1879
4 1184 1344 1424 2006
4 1561 1662 1800 2022
4 1489 1514 1814 1876
4 951 1492 1536 1571
4 1096 1232 1596 1672
4 551 1292 1336 1517
4 554 898 1071 1481
4 510 1178 1287 1338
4 549 749 1283 1428
4 983 1252 1516 1533
4 552 899 1488 1511
4 139 1686 1886 1906
4 949 1487 1569 1908
4 959 1075 1490 1915
4 138 916 1892 1912
4 1480 1524 1564 1803
4 1526 1567 1594 1806
4 136 1574 1692 1910
4 854 1259 1513 1811
4 807 1226 1247 1588
4 818 1251 1633 1792
4 1242 1502 1520 1801
4 325 801 1240 1625
4 1250 1534 1589 1817
4 1230 1254 1597 1812
4 366 1087 1584 1666
4 1228 1599 1668 1808
4 47 264 646 1923
4 277 657 1470 1930
4 654 1157 1392 1650
4 511 682 878 1398
4 868 1159 1388 1648
4 762 1081 1222 1660
4 356 1094 1312 1950
4 789 1215 1309 1949
4 777 1098 1953 1963
4 774 1097 1231 1311
4 29 1089 1948 1967
4 359 786 1306 1946
4 1224 1275 1664 1804
4 768 1669 1973 2048
4 1577 1673 1691 2034
4 369 1549 1688 1962
4 772 1099 1671 1966
4 761 1085 1305 1940
4 798 1202 1317 1770
4 589 788 1129 1987
4 599 795 1655 1990
4 464 691 1647 1723
4 438 1356 1437 2002
4 699 827 1347 2066
4 859 1196 1263 1715
4 540 1422 1861 2082
4 1197 1439 1838 2001
4 426 1379 1426 2106
4 439 1358 2011 2077
4 429 1429 2015 2109
4 1431 1830 1877 2098
4 847 1183 1273 1867
4 1189 1829 1849 2013
4 829 1349 2009 2069
4 543 1280 1504 1863
4 1187 1299 1346 1427
4 472 658 1933 1988
4 49 649 1928 1982
4 779 1269 1855 2055
4 1262 1678 1818 2031
4 767 1264 1707 1843
4 1270 1679 2038 2050
4 1486 1579 1813 2032
4 1268 1823 2027 2047
4 1496 1809 1868 2028
4 764 1261 1667 2044
4 1274 1835 1875 2039
4 379 1675 1695 1971
4 546 1494 1507 1866
4 698 1351 1419 2071
4 758 1296 1350 1433
4 548 1069 1493 2088
4 527 1368 2087 2103
4 1074 1484 1914 2096
4 521 905 1880 1905
4 533 1079 1370 2090
4 525 1065 1901 2080
4 532 919 1048 1891
4 1483 1578 1913 2037
4 1689 1889 1909 2135
4 531 1897 1916 2132
4 1497 1907 2026 2086
4 1822 1862 2020 2081
4 1438 1836 2007 2118
4 1498 1873 2035 2091
4 557 1499 1870 2094
4 1565 1685 1900 2021
4 1674 1694 1969 2056
4 1665 1681 2025 2040
4 1698 1918 2030 2127
4 1376 1432 2097 2110
4 529 2089 2108 2123
4 1425 1821 2085 2100
4 535 1919 2093 2125
4 1832 2099 2113 2136
4 1828 2029 2049 2133
4 1837 2036 2092 2124
4 1699 2033 2053 2121
4 526 1054 1887 2286
4 1697 1898 2122 2331
4 60 1542 1882 2361
4 27 188 1547 2166
4 20 1122 1942 2161
4 36 183 1130 2177
4 24 1544 1965 2163
4 39 1955 1970 2175
4 784 1200 1724 2183
4 797 1212 1956 2190
4 780 1125 1945 2181
4 787 1726 1994 2186
4 791 1138 1983 2192
4 46 184 1127 2206
4 40 622 1922 2201
4 57 193 632 2216
4 44 1124 1980 2203
4 59 1935 1991 2215
4 826 1219 1846 2226
4 820 1725 2065 2221
4 833 1217 1737 2234
4 824 1844 2019 2224
4 837 2017 2078 2238
4 420 1445 2105 2141
4 437 2012 2116 2156
4 431 736 1459 2150
4 424 2000 2064 2144
4 427 739 2067 2146
4 460 1722 2062 2241
4 475 1733 1999 2251
4 478 734 2075 2252
4 466 1927 1997 2246
4 463 726 1924 2243
4 440 625 1925 2261
4 444 730 1444 2263
4 458 727 1938 2270
4 447 1057 1446 2266
4 453 638 1043 2277
4 775 1978 2054 2351
4 766 1947 1974 2346
4 763 1210 1944 2344
4 776 1204 1857 2352
4 760 1842 2042 2341
4 1904 2023 2084 2130
4 1824 2010 2104 2304
4 538 2115 2128 2292
4 520 1442 2102 2281
4 2005 2119 2158 2317
4 1137 1951 2171 2196
4 1139 1986 2194 2211
4 196 1136 2172 2212
4 1208 1732 2198 2236
4 1738 2073 2231 2258
4 1730 1998 2197 2254
4 1934 1989 2214 2256
4 721 1939 2253 2273
4 637 1931 2213 2274
4 1826 2107 2139 2307
4 523 1884 2120 2283
4 1684 2043 2126 2323
4 66 194 627 2366
4 74 189 1550 2377
4 198 636 2210 2370
4 199 2168 2208 2368
4 197 1554 2170 2372
4 1121 2162 2182 2200
4 537 1059 1453 2290
4 79 1051 1895 2375
4 1899 2131 2294 2337
4 1458 2111 2152 2297
4 1831 2059 2138 2311
4 2101 2145 2285 2300
4 2129 2289 2308 2329
4 1049 1894 2296 2374
4 1545 1680 1885 2321
4 2114 2137 2298 2312
4 1839 1859 2004 2319
4 1820 1845 2045 2301
4 2052 2134 2315 2338
4 2008 2079 2159 2239
4 738 2070 2153 2259
4 1721 2180 2222 2242
4 2061 2140 2225 2245
4 1203 2189 2228 2349
4 1205 1959 2195 2354
4 1216 1853 2233 2357
4 2187 2223 2347 2384
4 1993 2188 2209 2248
4 2199 2235 2255 2389
4 1921 2205 2240 2265
4 2184 2207 2244 2381
4 1941 2165 2185 2340
4 1558 1693 1968 2332
4 1687 1977 2046 2326
4 1559 1893 2334 2371
4 1881 2280 2325 2365
4 2041 2302 2320 2342
4 2291 2333 2379 2380
4 1555 1961 2173 2336
4 1856 2016 2237 2318
4 2003 2149 2229 2309
4 2147 2227 2306 2399
4 1441 2142 2260 2282
4 2154 2232 2257 2396
4 724 1452 2157 2276
4 733 2148 2249 2269
4 2143 2247 2267 2388
4 2219 2250 2278 2390
4 639 1046 2272 2373
4 64 624 1040 2363
4 621 2202 2262 2360
4 2230 2313 2358 2397
4 2155 2279 2295 2394
4 1979 2051 2335 2353
4 2176 2191 2217 2392
4 1954 1964 2174 2356
4 1541 2160 2322 2362
4 1841 2220 2305 2345
4 2151 2299 2310 2398
4 2218 2271 2378 2382
4 1850 2058 2314 2359
4 2287 2303 2327 2393
4 1976 2169 2328 2348
4 2316 2339 2355 2383
4 2164 2204 2364 2395
4 1056 2268 2288 2369
4 1058 1451 2275 2293
4 2167 2324 2343 2391
4 2264 2284 2367 2385
4 2179 2193 2350 2386
4 2178 2330 2376 2387
