# Generated using Miratope v0.5.0 (https://github.com/galoomba1/miratope-rs)
4OFF

# Vertices, Faces, Edges, Cells
120 2520 1200 720

# Vertices
0.809016994374945 -0.809016994374945 -0.809016994374945 0.809016994374945 
0 -1.61803398874989 0 0 
0 0 -1.61803398874989 0 
1.30901699437495 0.5 0 0.809016994374945 
-0.809016994374945 -0.809016994374945 -0.809016994374945 -0.809016994374945 
-0.809016994374945 0 0.5 -1.30901699437495 
0 -0.809016994374945 1.30901699437495 -0.5 
0.5 1.30901699437495 -0.809016994374945 0 
0.809016994374945 0.5 1.30901699437495 0 
0 1.30901699437495 0.5 -0.809016994374945 
0.809016994374945 -0.809016994374945 0.809016994374945 0.809016994374945 
-0.809016994374945 -0.809016994374945 0.809016994374945 0.809016994374945 
1.30901699437495 0 0.809016994374945 -0.5 
-0.809016994374945 -0.809016994374945 -0.809016994374945 0.809016994374945 
1.30901699437495 0 -0.809016994374945 -0.5 
-1.30901699437495 0 0.809016994374945 -0.5 
-1.30901699437495 0 -0.809016994374945 -0.5 
0 0.5 0.809016994374945 -1.30901699437495 
0 0.5 -0.809016994374945 -1.30901699437495 
0.809016994374945 -0.809016994374945 0.809016994374945 -0.809016994374945 
0.809016994374945 -0.809016994374945 -0.809016994374945 -0.809016994374945 
-0.809016994374945 -0.809016994374945 0.809016994374945 -0.809016994374945 
0.809016994374945 0.5 -1.30901699437495 0 
-0.809016994374945 0.5 1.30901699437495 0 
-0.809016994374945 0.5 -1.30901699437495 0 
0.809016994374945 1.30901699437495 0 0.5 
-0.809016994374945 1.30901699437495 0 0.5 
-0.809016994374945 0.809016994374945 -0.809016994374945 0.809016994374945 
-0.809016994374945 0.809016994374945 -0.809016994374945 -0.809016994374945 
0.5 0.809016994374945 0 1.30901699437495 
0.5 0.809016994374945 0 -1.30901699437495 
0.5 -0.809016994374945 0 1.30901699437495 
0.5 -0.809016994374945 0 -1.30901699437495 
1.30901699437495 0.809016994374945 0.5 0 
1.30901699437495 -0.809016994374945 0.5 0 
0.809016994374945 0.809016994374945 -0.809016994374945 0.809016994374945 
0.809016994374945 0.809016994374945 -0.809016994374945 -0.809016994374945 
0 1.30901699437495 0.5 0.809016994374945 
0 -1.30901699437495 0.5 0.809016994374945 
0 -1.30901699437495 0.5 -0.809016994374945 
-0.5 0 1.30901699437495 0.809016994374945 
-0.5 0 1.30901699437495 -0.809016994374945 
0 0 1.61803398874989 0 
0.809016994374945 0 -0.5 -1.30901699437495 
-1.30901699437495 0.5 0 0.809016994374945 
-0.5 1.30901699437495 0.809016994374945 0 
0 -0.809016994374945 -1.30901699437495 -0.5 
0 1.30901699437495 -0.5 -0.809016994374945 
-0.809016994374945 0.809016994374945 0.809016994374945 -0.809016994374945 
-1.61803398874989 0 0 0 
0 0 0 -1.61803398874989 
0.5 1.30901699437495 0.809016994374945 0 
0 -0.809016994374945 -1.30901699437495 0.5 
-0.809016994374945 0 -0.5 1.30901699437495 
1.30901699437495 0.5 0 -0.809016994374945 
1.30901699437495 0 -0.809016994374945 0.5 
0 0 0 1.61803398874989 
0 0.809016994374945 -1.30901699437495 -0.5 
0.5 -1.30901699437495 0.809016994374945 0 
1.30901699437495 -0.5 0 0.809016994374945 
-0.809016994374945 0 -0.5 -1.30901699437495 
0.809016994374945 0.809016994374945 0.809016994374945 0.809016994374945 
1.61803398874989 0 0 0 
0 0.809016994374945 1.30901699437495 -0.5 
-0.5 -1.30901699437495 -0.809016994374945 0 
0.809016994374945 0 0.5 -1.30901699437495 
-1.30901699437495 -0.5 0 0.809016994374945 
-0.5 -0.809016994374945 0 -1.30901699437495 
-0.5 1.30901699437495 -0.809016994374945 0 
0 -0.809016994374945 1.30901699437495 0.5 
0.809016994374945 0 0.5 1.30901699437495 
-1.30901699437495 0.5 0 -0.809016994374945 
-0.5 0.809016994374945 0 1.30901699437495 
-1.30901699437495 0 0.809016994374945 0.5 
0 1.61803398874989 0 0 
1.30901699437495 -0.5 0 -0.809016994374945 
-0.809016994374945 0 0.5 1.30901699437495 
0 0.809016994374945 1.30901699437495 0.5 
0.5 -1.30901699437495 -0.809016994374945 0 
0.809016994374945 -0.5 1.30901699437495 0 
-0.809016994374945 0.809016994374945 0.809016994374945 0.809016994374945 
0 1.30901699437495 -0.5 0.809016994374945 
0 -1.30901699437495 -0.5 0.809016994374945 
0 -1.30901699437495 -0.5 -0.809016994374945 
0.5 0 -1.30901699437495 0.809016994374945 
0.5 0 -1.30901699437495 -0.809016994374945 
0.809016994374945 0.809016994374945 0.809016994374945 -0.809016994374945 
-0.5 0.809016994374945 0 -1.30901699437495 
-0.5 -0.809016994374945 0 1.30901699437495 
-1.30901699437495 0.809016994374945 -0.5 0 
-1.30901699437495 -0.809016994374945 -0.5 0 
0.809016994374945 -0.5 -1.30901699437495 0 
-0.809016994374945 -0.5 1.30901699437495 0 
-0.809016994374945 -0.5 -1.30901699437495 0 
0.809016994374945 -1.30901699437495 0 -0.5 
-0.809016994374945 -1.30901699437495 0 -0.5 
1.30901699437495 0 0.809016994374945 0.5 
-1.30901699437495 0 -0.809016994374945 0.5 
0 -0.5 0.809016994374945 1.30901699437495 
0 -0.5 -0.809016994374945 1.30901699437495 
0.809016994374945 0 -0.5 1.30901699437495 
-1.30901699437495 -0.5 0 -0.809016994374945 
0 0.809016994374945 -1.30901699437495 0.5 
-0.5 -1.30901699437495 0.809016994374945 0 
-0.809016994374945 1.30901699437495 0 -0.5 
1.30901699437495 -0.809016994374945 -0.5 0 
0.809016994374945 1.30901699437495 0 -0.5 
-1.30901699437495 -0.809016994374945 0.5 0 
0.5 0 1.30901699437495 0.809016994374945 
0 -0.5 -0.809016994374945 -1.30901699437495 
0 0.5 -0.809016994374945 1.30901699437495 
0.5 0 1.30901699437495 -0.809016994374945 
0.809016994374945 -1.30901699437495 0 0.5 
-1.30901699437495 0.809016994374945 0.5 0 
1.30901699437495 0.809016994374945 -0.5 0 
-0.809016994374945 -1.30901699437495 0 0.5 
0 0.5 0.809016994374945 1.30901699437495 
-0.5 0 -1.30901699437495 -0.809016994374945 
0 -0.5 0.809016994374945 -1.30901699437495 
-0.5 0 -1.30901699437495 0.809016994374945 

# Faces
4 0 2 4 1
5 3 0 1 6 8
4 0 2 7 3
4 4 1 6 5
5 4 5 9 7 2
4 3 7 9 8
4 8 9 5 6
4 10 0 13 11
4 0 10 12 14
5 10 12 17 15 11
5 13 16 18 14 0
4 11 15 16 13
4 14 12 17 18
4 17 15 16 18
4 20 19 21 4
5 8 19 20 22 25
4 21 23 8 19
4 20 22 24 4
5 23 21 4 24 26
4 25 8 23 26
4 25 26 24 22
4 28 4 13 27
5 28 27 29 33 30
4 13 31 29 27
4 28 4 32 30
5 13 31 34 32 4
4 29 31 34 33
4 34 32 30 33
4 36 20 0 35
4 35 37 9 36
5 0 35 37 40 38
5 36 20 39 41 9
4 0 38 39 20
4 40 41 9 37
4 41 39 38 40
4 42 11 1 19
5 42 19 43 47 45
4 1 46 43 19
4 42 11 44 45
5 1 46 24 44 11
4 45 44 24 47
4 47 43 46 24
4 48 50 4 49
5 49 48 51 29 53
4 48 51 54 50
4 49 4 52 53
5 4 52 55 54 50
4 51 29 55 54
4 55 52 53 29
4 56 27 49 11
5 56 27 57 14 59
4 49 60 57 27
4 11 56 59 58
5 11 58 32 60 49
4 59 14 32 58
4 14 32 60 57
4 61 62 0 56
4 61 62 65 63
5 56 61 63 15 66
5 0 62 65 67 64
4 0 56 66 64
4 63 15 67 65
4 66 64 67 15
4 62 36 50 19
5 70 62 36 68 72
4 36 50 71 68
4 19 69 70 62
5 50 19 69 73 71
4 72 73 69 70
4 72 73 71 68
4 74 36 2 27
5 74 77 79 75 36
4 36 2 78 75
4 74 77 76 27
5 2 78 38 76 27
4 79 38 76 77
4 75 78 38 79
4 48 80 11 21
4 80 81 47 48
5 80 81 84 82 11
5 48 47 85 83 21
4 11 82 83 21
4 81 47 85 84
4 84 85 83 82
4 86 61 10 19
5 61 72 89 87 86
4 61 10 88 72
4 86 87 67 19
5 19 67 90 88 10
4 88 90 89 72
4 87 89 90 67
4 35 27 80 61
5 35 91 94 79 61
4 80 92 79 61
4 35 91 93 27
5 80 92 95 93 27
4 79 92 95 94
4 91 93 95 94
4 36 28 48 86
4 36 86 96 55
5 86 96 98 73 48
5 28 97 99 55 36
4 28 97 73 48
4 96 98 99 55
4 98 73 97 99
4 74 48 42 61
4 74 102 100 61
5 42 103 82 100 61
5 74 102 93 101 48
4 48 101 103 42
4 102 100 82 93
4 82 93 101 103
4 49 13 1 21
4 49 104 17 21
5 21 1 105 54 17
5 49 13 84 7 104
4 13 84 105 1
4 7 54 105 84
4 54 7 104 17
4 10 62 20 1
5 106 62 10 40 45
4 1 107 40 10
4 62 106 18 20
5 20 1 107 71 18
4 106 45 71 18
4 40 107 71 45
4 35 56 13 2
4 56 35 33 108
5 35 33 65 109 2
5 56 13 95 6 108
4 2 109 95 13
4 108 6 65 33
4 6 95 109 65
4 20 50 28 2
5 20 34 70 110 2
4 20 34 111 50
4 28 2 110 26
5 28 50 111 77 26
4 70 77 111 34
4 70 77 26 110
4 62 35 74 86
5 62 112 103 41 86
4 86 41 113 74
4 62 35 99 112
5 35 99 66 113 74
4 113 66 103 41
4 99 66 103 112
4 80 49 28 74
5 80 98 59 114 74
4 49 80 98 115
4 74 114 85 28
5 28 85 78 115 49
4 114 85 78 59
4 59 98 115 78
4 86 50 21 42
4 86 42 116 25
5 86 25 102 117 50
5 116 42 21 90 53
4 50 117 90 21
4 25 116 53 102
4 102 53 90 117
4 42 10 56 80
4 42 118 94 10
5 10 56 119 46 94
5 42 118 60 89 80
4 56 119 89 80
4 119 89 60 46
4 118 60 46 94
4 86 47 22 62
4 41 71 47 86
4 112 52 22 62
4 103 90 71 41
5 71 47 22 52 90
4 112 52 90 103
4 74 48 111 33
4 48 101 39 111
4 33 74 102 55
5 111 33 55 78 39
4 93 78 55 102
4 39 101 93 78
4 59 12 106 35
4 59 35 119 82
5 87 106 35 119 16
5 12 118 95 82 59
4 106 12 118 87
4 87 118 95 16
4 119 16 95 82
5 114 51 42 58 105
4 42 15 104 51
4 58 42 15 95
4 114 57 104 51
4 114 105 46 57
4 58 105 46 95
5 104 57 46 95 15
5 96 111 21 115 31
4 21 60 30 111
4 21 115 93 60
4 96 31 84 114
4 96 111 30 114
5 84 114 30 60 93
4 31 84 93 115
4 19 96 51 17
5 100 96 19 83 52
4 19 17 60 83
4 96 51 81 100
5 81 51 17 60 24
4 81 24 52 100
4 24 52 83 60
4 33 59 91 36
4 36 87 63 33
5 36 91 64 101 87
5 59 38 92 63 33
4 38 64 91 59
4 63 92 101 87
4 38 92 101 64
4 61 35 68 45
4 79 41 45 61
4 91 117 68 35
4 94 67 41 79
5 45 68 117 67 41
4 94 67 117 91
4 86 50 39 79
4 86 25 70 79
4 39 50 117 64
4 25 102 99 70
5 70 79 39 64 99
4 102 99 64 117
4 21 48 77 69
4 47 25 77 48
4 21 69 112 83
5 25 55 112 69 77
4 47 25 55 85
4 83 112 55 85
4 42 17 106 61
4 100 22 106 61
4 103 67 17 42
5 17 106 22 46 67
4 82 46 22 100
4 82 103 67 46
4 29 74 63 108
4 29 84 57 74
5 63 74 57 109 118
5 29 84 78 58 108
4 108 58 118 63
4 118 109 78 58
4 84 78 109 57
4 2 68 106 14
4 14 94 64 2
5 2 64 107 113 68
5 106 63 6 94 14
4 106 63 113 68
4 63 113 107 6
4 94 64 107 6
4 0 62 25 110
4 64 97 110 0
4 65 9 25 62
5 110 25 9 71 97
4 65 9 71 67
4 64 97 71 67
4 28 5 65 36
4 55 36 65 34
4 97 28 5 107
4 55 34 38 99
5 65 34 38 107 5
4 38 99 97 107
4 49 23 9 28
4 28 85 54 9
4 115 69 23 49
5 54 34 69 23 9
4 34 78 85 54
4 78 34 69 115
4 10 19 54 3
4 88 110 3 10
4 54 19 67 18
5 3 54 18 24 110
4 90 24 110 88
4 24 90 67 18
4 37 27 84 3
5 27 37 63 5 16
4 84 46 16 27
4 3 37 63 12
5 3 84 46 32 12
4 12 63 5 32
4 5 32 46 16
5 51 23 11 31 3
4 23 5 95 11
4 31 78 95 11
4 51 3 14 30
4 31 78 14 3
4 51 23 5 30
5 30 5 95 78 14
5 116 10 105 22 81
4 116 10 6 23
4 10 105 32 6
4 81 104 23 116
4 104 18 22 81
5 23 104 18 32 6
4 22 105 32 18
4 69 1 32 111
5 1 52 110 116 69
4 32 85 52 1
4 51 116 110 7
4 51 116 69 111
5 7 51 111 32 85
4 7 85 52 110
4 7 37 113 28
4 28 109 14 7
5 28 109 39 92 113
5 108 34 14 7 37
4 108 92 113 37
4 108 34 39 92
4 34 39 109 14
4 4 107 41 50
4 52 88 107 4
4 50 41 8 54
4 8 54 55 70
5 70 88 107 41 8
4 55 52 88 70
4 10 8 37 56
4 10 8 65 94
4 56 37 68 119
5 8 37 68 18 65
4 68 119 46 18
4 94 46 18 65
4 50 47 114 75
5 75 50 101 115 112
4 47 89 101 50
4 100 112 75 114
5 100 114 47 89 53
4 53 115 112 100
4 53 115 101 89
5 92 58 75 30 48
4 48 89 66 92
4 48 89 57 30
4 58 82 91 75
4 30 57 91 75
4 92 66 82 58
5 66 89 57 91 82
4 114 86 45 81
5 114 86 118 83 91
4 86 118 15 45
4 81 114 91 119
5 81 119 90 15 45
4 15 90 83 118
4 119 90 83 91
4 80 15 87 74
4 80 98 103 15
4 114 43 87 74
4 59 94 43 114
4 98 103 94 59
5 43 87 15 103 94
4 86 114 29 77
4 86 118 92 77
5 29 77 92 115 99
4 91 99 29 114
4 92 118 83 115
4 91 83 115 99
4 19 42 98 112
4 19 43 91 112
4 42 45 72 98
4 72 45 47 102
5 98 72 102 91 112
4 47 102 91 43
4 74 89 117 36
4 75 36 117 83
4 77 73 89 74
4 77 73 103 79
4 75 79 103 83
5 89 73 103 83 117
4 61 86 75 59
4 59 61 72 99
4 86 87 109 75
5 99 59 75 109 93
4 89 93 99 72
4 89 93 109 87
4 62 100 98 79
4 62 79 118 43
5 62 43 117 119 100
5 98 66 101 118 79
4 98 100 119 66
4 119 66 101 117
4 43 117 101 118
4 48 60 43 86
4 86 96 105 43
4 48 73 90 60
4 98 96 105 82
4 98 82 90 73
5 43 60 90 82 105
5 61 12 43 57 81
4 61 98 58 12
4 81 53 98 61
4 58 12 43 83
4 53 81 57 93
5 53 93 83 58 98
4 57 93 83 43
4 42 80 29 96
4 80 89 102 29
4 42 96 75 118
5 96 29 102 85 75
4 118 75 85 60
4 89 60 85 102
4 14 35 74 30
4 99 78 14 35
4 113 5 30 74
4 99 78 95 66
4 66 95 5 113
5 0 22 68 44 88
4 103 88 0 94
4 94 0 22 43
4 68 87 15 44
4 87 68 22 43
4 103 88 44 15
4 20 36 102 52
4 36 9 26 102
4 20 39 115 52
4 26 9 41 73
5 26 102 52 115 73
4 39 115 73 41
4 50 75 33 9
4 50 9 113 101
5 33 70 76 113 9
4 70 112 75 33
4 112 70 76 115
4 101 113 76 115
4 19 103 64 20
4 8 19 103 40
4 22 119 64 20
4 8 25 72 40
4 25 72 119 22
5 40 103 64 119 72
4 27 56 40 113
4 27 57 87 113
4 59 56 40 79
4 79 59 14 65
5 40 79 65 87 113
4 57 87 65 14
4 11 116 26 49
4 58 96 116 11
4 49 60 47 26
5 116 96 54 47 26
4 54 32 58 96
4 54 32 60 47
5 80 108 12 30 104
4 80 53 31 108
4 80 104 24 53
4 12 105 31 108
4 12 105 85 30
5 53 31 105 85 24
4 30 104 24 85
4 32 21 42 12
4 21 32 46 90
4 116 3 12 42
4 3 116 53 84
4 90 46 84 53
4 80 66 38 108
4 80 66 16 104
4 108 38 94 12
4 12 94 109 30
4 104 16 109 30
5 94 38 66 16 109
4 102 97 4 85
5 4 39 69 76 97
4 4 85 75 39
4 29 96 69 76
4 69 96 75 39
4 102 97 76 29
4 62 8 116 100
4 43 17 8 62
5 44 116 8 17 71
4 100 116 44 119
4 117 71 44 119
4 17 43 117 71
4 21 73 88 1
4 21 73 45 17
4 105 100 88 1
5 25 100 88 73 45
4 54 25 100 105
4 17 45 25 54
4 26 48 92 76
4 30 7 26 48
5 7 26 76 31 55
4 75 55 7 30
4 55 75 58 31
4 31 58 92 76
4 80 63 6 11
4 80 63 106 81
4 6 11 82 94
4 14 84 81 106
4 82 94 14 84
5 106 3 56 44 104
4 105 3 56 82
4 90 44 56 82
4 43 106 3 105
4 60 104 106 43
4 90 44 104 60
4 27 7 51 80
4 92 111 51 80
4 93 85 7 27
4 95 32 111 92
4 85 93 95 32
4 105 19 50 85
4 105 19 69 31
4 71 24 85 50
4 69 31 53 73
4 53 73 71 24
4 109 36 62 94
4 68 16 109 36
4 70 38 94 62
4 38 70 72 66
4 68 16 66 72
4 79 112 20 65
5 20 117 97 88 112
4 20 65 87 117
4 40 79 112 88
4 40 113 97 88
4 87 113 97 117
4 35 72 97 2
4 35 72 77 33
4 2 109 101 97
4 33 65 41 77
5 77 41 101 97 72
4 109 101 41 65
4 112 96 54 20
4 117 47 54 20
4 88 116 96 112
4 88 116 26 97
4 47 117 97 26
4 61 40 6 12
4 81 44 40 61
4 6 12 43 67
5 40 6 67 16 44
4 81 44 16 57
4 43 67 16 57
5 76 49 5 111 108
4 93 49 76 99
4 93 49 5 109
4 59 108 76 99
4 75 111 108 59
4 111 75 109 5
4 38 56 3 34
4 107 44 56 38
4 34 3 106 65
4 65 106 104 5
4 104 5 107 44
4 34 0 88 69
4 0 34 54 22
4 9 68 22 54
4 23 44 68 9
4 44 23 69 88
5 13 107 23 37 110
4 78 13 110 55
4 13 78 39 107
4 55 110 37 33
4 33 111 23 37
4 111 23 107 39
4 20 55 31 1
4 18 7 55 20
4 107 76 31 1
4 76 107 71 26
4 71 26 7 18
4 110 22 46 13
4 13 46 67 107
4 37 106 17 23
4 106 37 110 22
4 17 23 107 67
4 2 18 104 27
4 104 27 76 23
4 2 18 32 78
4 76 23 6 38
4 78 32 6 38
4 108 11 1 34
4 44 37 108 11
4 34 1 46 14
4 7 24 44 37
4 24 7 14 46
4 4 71 44 13
4 116 31 13 44
4 71 4 32 17
4 34 8 116 31
4 32 17 8 34
4 110 76 49 24
4 24 49 5 18
4 111 54 3 108
4 3 108 76 110
4 54 111 5 18
4 70 0 13 76
4 70 0 14 33
4 76 13 16 113
4 18 9 33 14
4 18 9 113 16
4 68 97 4 18
4 18 4 39 65
4 37 76 69 8
4 65 39 69 8
4 76 37 68 97
4 67 20 2 16
4 67 20 34 6
4 110 44 16 2
4 40 70 34 6
4 44 110 70 40
4 51 26 73 42
4 58 115 73 42
4 102 114 51 26
4 102 114 105 52
4 105 52 115 58
4 48 118 95 49
4 51 12 118 48
4 53 82 95 49
4 12 51 29 59
4 59 29 53 82
4 53 11 10 100
4 114 12 10 100
4 11 53 89 15
4 12 114 47 17
4 89 15 17 47
4 10 82 91 62
4 82 10 40 66
4 91 62 106 57
4 106 57 89 45
4 45 89 66 40
4 27 66 101 28
4 29 98 66 27
4 118 30 28 101
4 98 29 33 79
4 79 33 30 118
4 19 41 77 96
4 19 41 101 83
4 100 72 77 96
4 52 97 72 100
4 83 101 97 52
4 100 91 36 25
4 87 45 25 36
4 91 100 88 64
4 101 73 45 87
4 73 101 64 88
4 102 28 113 72
4 109 91 102 28
4 72 113 92 98
4 92 98 112 39
4 109 91 112 39
4 72 74 63 40
4 57 119 72 74
4 40 63 118 103
4 64 109 118 103
4 57 119 64 109
4 10 103 73 116
4 105 83 103 10
4 81 89 73 116
4 81 89 117 22
4 105 83 117 22
4 61 114 84 56
4 114 61 63 30
4 56 84 93 66
4 15 60 30 63
4 15 60 93 66
4 93 28 50 83
4 28 93 53 26
4 83 50 111 58
4 26 53 98 77
4 111 58 98 77
4 13 38 92 49
4 38 13 84 59
4 49 92 63 104
4 59 84 7 33
4 33 7 104 63
4 90 1 0 119
4 119 0 3 81
4 6 15 90 1
4 3 81 45 8
4 8 45 15 6
4 9 111 21 71
4 71 21 115 97
4 31 110 25 96
4 111 9 25 96
4 97 115 31 110
4 55 2 68 25
4 64 112 55 2
4 113 77 25 68
4 107 69 77 113
4 112 64 107 69
4 70 35 106 8
4 35 70 88 119
4 41 87 106 8
4 119 88 107 16
4 16 107 41 87
4 99 27 37 70
4 64 16 27 99
4 37 70 79 63
4 5 39 79 63
4 16 64 39 5
4 11 90 71 23
4 11 90 52 31
4 47 51 3 22
4 3 22 52 31
4 51 47 71 23
4 21 58 78 4
4 108 23 21 58
4 84 24 4 78
4 23 108 29 26
4 84 24 26 29
4 13 24 81 56
4 60 95 13 24
4 108 51 81 56
4 51 108 6 17
4 6 17 60 95
4 46 0 35 57
4 37 104 57 35
4 0 46 95 38
4 104 37 40 15
4 95 38 40 15
4 99 2 4 115
4 5 92 115 4
4 2 99 29 7
4 9 77 29 7
4 92 5 9 77
4 69 41 67 1
4 117 52 1 67
4 41 69 116 45
4 116 45 68 110
4 117 52 110 68
5 0 1 105 82 94
4 0 94 109 2
4 1 4 85 105
5 2 4 85 93 109
4 93 85 105 82
4 109 93 82 94
4 10 103 64 0
5 10 103 98 58 11
5 0 64 99 78 13
4 11 58 78 13
4 99 78 58 98
4 99 64 103 98
5 19 20 65 94 43
4 21 60 43 19
4 4 20 65 5
5 5 95 60 21 4
4 94 65 5 95
4 94 43 60 95
5 89 57 27 28 102
4 13 46 57 27
4 28 102 52 4
5 52 4 13 46 90
4 90 89 102 52
4 46 90 89 57
4 36 35 59 75
5 3 0 35 59 84
5 36 20 54 85 75
4 3 54 20 0
4 85 84 3 54
4 75 85 84 59
5 19 41 79 118 42
4 107 1 19 41
4 42 118 95 11
5 1 11 95 38 107
4 79 41 107 38
4 95 38 79 118
5 48 49 104 15 89
4 50 117 89 48
4 4 18 104 49
5 50 4 18 67 117
4 15 104 18 67
4 67 117 89 15
5 72 119 56 27 99
4 27 99 115 49
4 11 90 119 56
5 73 115 49 11 90
4 73 115 99 72
4 90 73 72 119
4 62 112 98 61
5 56 61 98 29 108
5 62 112 55 34 0
4 56 0 34 108
4 55 29 108 34
4 29 98 112 55
5 36 33 14 106 62
4 50 111 33 36
4 19 62 106 17
5 50 19 17 32 111
4 111 32 14 33
4 32 17 106 14
5 25 36 74 114 47
4 36 25 110 2
4 74 114 84 27
5 27 84 24 110 2
4 47 24 110 25
4 24 84 114 47
4 48 101 66 80
5 44 11 80 66 40
5 21 71 41 101 48
4 44 11 21 71
4 41 71 44 40
4 41 101 66 40
5 63 61 86 77 33
4 63 6 10 61
4 69 77 86 19
5 19 10 6 34 69
4 34 69 77 33
4 33 34 6 63
5 61 100 25 70 35
4 61 80 53 100
4 27 35 70 76
5 27 80 53 26 76
4 25 70 76 26
4 25 100 53 26
4 36 86 45 68
5 48 86 45 17 51
5 68 36 28 7 18
4 51 7 28 48
4 18 7 51 17
4 18 68 45 17
4 61 40 113 74
5 42 61 40 8 116
5 48 26 9 113 74
4 48 26 116 42
4 26 9 8 116
4 9 113 40 8
4 83 21 49 93
5 21 83 103 67 1
5 13 49 93 66 16
4 13 16 67 1
4 66 16 67 103
4 66 93 83 103
5 10 62 79 59 12
4 12 32 1 10
4 39 20 62 79
5 39 78 32 1 20
4 78 32 12 59
4 78 59 79 39
4 35 56 82 91
5 102 91 35 2 55
5 13 31 53 82 56
4 13 2 55 31
4 53 102 55 31
4 102 91 82 53
5 22 46 14 2 20
4 20 50 47 22
4 28 30 14 2
5 28 30 60 47 50
4 30 60 46 14
4 22 46 60 47
5 86 62 8 54 96
4 96 29 74 86
4 37 8 62 35
5 37 7 29 74 35
4 54 96 29 7
4 54 8 37 7
5 80 74 72 45 81
4 80 81 24 49
4 28 74 72 97
5 71 97 28 49 24
4 71 97 72 45
4 71 24 81 45
4 86 42 15 87
5 87 65 9 50 86
5 42 21 23 6 15
4 21 50 9 23
4 6 23 9 65
4 87 65 6 15
4 10 42 73 88
5 10 56 38 70 88
5 80 92 77 73 42
4 92 38 56 80
4 70 77 73 88
4 92 77 70 38
4 4 39 38 13
4 46 94 38 13
4 52 112 39 4
5 103 112 39 38 94
4 46 90 103 94
4 90 1 20 117
4 39 101 117 20
4 32 1 90 60
4 78 32 60 93
5 117 101 93 60 90
4 78 115 97 2
5 119 117 97 2 16
4 2 16 95 78
4 82 119 117 83
5 83 115 78 95 82
4 115 97 117 83
5 75 58 105 19 112
4 19 105 46 67
4 67 19 112 64
4 109 75 112 64
4 95 109 75 58
5 109 64 67 46 95
5 115 31 1 88 112
4 84 46 1 31
4 1 46 119 88
4 91 119 88 112
4 93 91 112 115
5 119 91 93 84 46
4 52 20 18 24
5 64 20 52 83 91
4 20 18 16 64
4 91 64 16 57
4 57 91 83 60
5 18 24 60 57 16
4 34 31 52 20
4 38 34 20 64
5 59 38 34 31 58
4 59 58 83 91
4 83 58 31 52
4 4 78 75 50
4 14 78 4 18
4 50 75 91 117
5 91 75 78 14 94
4 94 14 18 67
4 0 22 24 13
4 0 22 117 64
4 85 78 13 24
4 85 102 99 78
5 102 117 22 24 85
4 43 62 0 46
4 32 46 0 34
4 112 83 43 62
4 32 85 55 34
5 43 83 85 32 46
4 99 2 20 112
4 20 112 100 22
4 59 99 2 14
4 82 59 14 46
5 99 59 82 100 112
4 55 52 117 36
4 78 55 36 109
5 109 36 117 43 57
5 55 52 105 84 78
4 105 43 57 84
4 43 117 52 105
5 101 115 4 107 64
4 6 32 4 107
4 32 4 115 58
5 58 118 94 6 32
4 118 101 115 58
4 118 101 64 94
4 95 49 28 109
4 97 64 109 28
4 24 46 95 49
4 67 46 24 71
4 11 53 52 1
4 95 93 53 11
4 1 52 97 107
5 52 97 99 93 53
4 38 95 93 99
4 19 83 82 10
4 95 82 10 6
4 19 69 115 83
4 95 78 34 6
4 27 66 64 2
4 84 27 66 82
4 110 88 64 2
5 64 88 90 82 66
4 84 24 90 82
4 5 28 85 32
5 28 101 87 16 5
4 85 28 101 83
4 87 101 83 43
4 16 46 43 87
5 96 100 10 3 31
4 94 14 3 10
4 91 100 10 94
4 91 100 96 75
4 78 31 96 75
4 62 65 18 22
5 114 91 62 22 105
4 65 109 91 62
4 114 30 32 105
4 114 91 109 30
5 65 18 32 30 109
4 14 7 110 0
5 0 119 100 52 110
4 14 57 119 0
4 114 100 119 57
4 52 85 114 100
5 14 7 85 114 57
4 50 39 34 54
4 54 105 83 50
5 118 83 50 39 109
5 12 105 54 34 14
4 118 83 105 12
4 12 14 109 118
4 84 56 10 105
4 88 10 105 52
4 78 84 56 38
4 55 78 38 70
4 91 36 28 93
4 68 119 91 36
4 84 7 28 93
4 84 7 18 46
4 24 44 107 4
4 24 53 115 4
5 24 53 89 119 44
4 119 64 107 44
4 64 119 89 101
5 21 58 92 39 69
4 90 21 69 88
4 21 58 82 90
4 39 64 88 69
4 66 92 39 64
4 71 50 39 107
4 71 90 83 50
4 109 16 15 118
5 107 16 15 90 71
4 39 109 16 107
4 19 96 55 20
4 43 114 96 19
4 65 20 55 33
5 55 33 59 114 96
4 33 59 94 65
4 62 70 110 22
4 62 91 99 70
5 70 110 31 29 99
4 114 29 31 105
4 105 31 110 22
4 35 106 18 2
4 35 91 43 106
4 18 54 55 2
5 18 106 43 47 54
4 55 54 47 102
4 111 21 1 34
4 21 83 75 111
4 67 1 34 65
5 79 65 34 111 75
4 67 103 79 65
4 2 68 71 4
4 85 47 71 4
4 2 68 87 109
5 89 47 71 68 87
4 47 85 93 89
4 0 110 76 38
4 0 119 66 38
4 100 98 115 52
5 98 66 38 76 115
4 115 52 110 76
4 0 70 69 1
4 94 79 70 0
4 105 1 69 96
5 96 69 70 79 98
4 94 82 98 79
4 99 35 68 97
5 81 57 35 68 22
4 99 93 57 35
4 53 81 22 52
4 52 97 68 22
4 67 20 36 87
4 75 118 87 36
4 17 54 20 67
4 17 54 85 60
5 60 118 87 67 17
4 73 21 4 97
4 89 73 21 60
4 5 4 97 113
5 66 113 97 73 89
4 60 95 66 89
5 88 97 76 13 44
4 92 76 13 95
4 13 44 15 95
4 92 76 97 101
5 95 15 103 101 92
4 103 101 97 88
4 11 6 5 49
4 67 6 11 90
4 49 115 39 5
4 67 41 73 90
5 39 5 6 67 41
4 3 8 19 105
4 8 19 112 70
5 8 3 108 33 70
4 108 33 75 58
4 58 105 3 108
4 7 27 56 3
4 55 7 27 99
4 56 3 22 119
5 22 3 7 55 25
4 55 99 72 25
4 114 86 50 85
4 114 86 87 57
4 7 85 50 9
4 7 14 65 9
4 118 86 62 94
4 96 58 118 86
4 8 62 94 6
4 8 6 32 54
4 102 74 30 85
5 87 106 104 30 74
4 74 87 117 102
4 22 24 104 106
4 106 22 117 87
4 0 88 72 35
4 59 98 72 35
4 0 88 116 3
5 72 98 53 116 88
4 98 53 84 59
5 111 108 12 42 96
4 42 96 112 103
4 42 103 94 12
4 111 39 112 96
4 38 39 111 108
4 84 13 76 29
4 84 13 44 81
5 81 100 102 29 84
4 81 44 88 100
4 100 88 97 102
4 36 117 71 9
4 36 9 5 109
5 9 5 104 17 71
4 17 43 57 104
4 104 5 109 57
4 14 35 61 12
4 100 105 12 61
4 34 70 35 14
4 70 25 54 34
4 25 55 75 86
4 25 22 43 86
5 75 86 43 12 30
4 12 3 7 30
4 43 12 3 22
4 62 100 102 36
4 29 102 36 33
4 106 81 100 62
4 29 33 14 84
5 68 44 104 27 113
4 93 60 104 27
4 101 93 27 113
4 68 113 101 117
4 68 117 90 44
4 50 101 103 19
4 17 19 103 15
4 92 111 50 101
4 95 15 17 32
4 13 107 40 56
4 13 31 69 107
4 82 56 40 103
5 40 103 73 69 107
4 82 53 73 103
4 26 49 13 110
4 13 110 68 16
4 102 93 49 26
5 68 110 26 102 72
4 102 93 66 72
4 1 31 108 6
4 1 6 40 88
4 31 108 92 115
5 108 92 79 40 6
4 115 92 79 112
4 21 32 30 48
4 101 109 30 48
4 18 32 21 71
4 18 71 41 65
4 7 26 97 2
4 7 2 16 104
5 47 26 7 104 81
4 104 16 119 81
4 81 47 117 119
4 41 39 75 86
4 41 86 43 67
4 5 6 12 30
4 30 5 39 75
5 116 69 76 108 11
4 82 59 108 11
4 82 11 116 100
4 69 112 100 116
4 69 112 99 76
5 51 3 106 61 114
4 79 75 114 61
4 61 79 65 106
4 34 3 51 111
4 114 75 111 51
4 35 68 9 33
4 33 35 57 30
5 30 51 54 9 33
4 81 51 54 22
4 30 51 81 57
4 59 33 37 56
5 81 56 37 110 116
4 59 114 81 56
4 96 116 81 114
4 116 96 55 110
4 27 16 15 80
4 15 90 53 80
4 76 107 16 27
4 90 71 26 53
5 23 107 113 92 49
4 49 60 17 23
4 118 60 49 92
4 118 92 113 87
4 87 113 107 67
4 98 42 21 115
4 21 115 76 23
4 15 42 98 66
4 66 15 6 38
4 119 35 74 89
4 35 119 44 37
4 53 89 74 29
4 53 29 7 24
4 42 58 59 61
4 40 61 59 38
4 116 31 58 42
4 40 38 34 8
4 48 47 54 111
5 118 48 111 5 63
4 43 118 48 47
4 63 118 43 106
4 63 106 18 5
4 60 48 74 57
4 26 48 60 24
4 113 16 57 74
4 26 24 18 9
4 17 21 69 8
4 17 12 58 21
5 65 8 17 12 63
4 63 12 58 92
4 65 39 92 63
4 11 31 29 80
4 99 29 80 66
4 44 110 31 11
4 99 66 40 70
4 61 114 102 72
4 72 61 106 68
4 26 51 3 110
4 106 3 110 68
4 25 62 10 116
4 12 51 116 10
4 79 62 25 77
5 29 77 25 116 51
4 77 29 59 79
4 63 74 36 65
4 8 65 36 25
4 74 63 12 114
4 8 25 47 17
4 9 28 27 37
4 27 37 106 57
4 25 9 28 102
5 9 25 45 106 37
4 102 89 45 25
4 42 51 54 19
4 41 19 54 9
4 42 118 30 51
4 41 79 33 9
4 40 37 3 10
4 10 40 72 100
4 3 37 76 31
4 96 77 76 31
5 40 37 76 77 72
4 26 23 5 28
4 28 101 73 26
5 26 73 45 44 23
4 16 44 45 87
4 5 16 44 23
4 49 23 116 53
4 49 92 98 53
4 107 23 116 88
4 72 113 107 88
4 69 111 48 73
4 73 48 118 103
4 107 40 63 5
4 69 107 5 111
4 66 113 37 56
4 56 81 89 66
4 110 37 113 97
4 97 110 116 73
4 28 113 41 50
4 63 30 28 113
4 45 41 50 47
5 113 63 15 45 41
4 45 15 60 47
4 23 11 10 8
4 103 10 8 41
4 23 11 58 111
5 77 41 8 23 111
4 41 77 98 103
4 81 61 86 47
4 81 61 63 104
4 86 77 26 47
4 77 33 7 26
4 33 74 80 108
4 108 80 81 3
4 72 74 33 70
4 70 8 45 72
4 45 25 96 42
4 106 45 42 12
4 12 108 37 106
4 37 108 111 9
4 51 29 27 104
4 29 27 113 77
4 116 44 68 25
4 116 51 104 44
4 74 30 111 77
4 74 77 41 87
4 23 104 106 8
4 111 23 104 30
5 51 80 63 37 23
4 96 51 80 98
4 98 79 63 80
4 51 23 69 96
4 69 23 37 70
4 80 89 47 51
4 87 63 80 89
4 87 68 37 63
4 68 71 23 37
4 45 61 56 44
4 45 73 98 61
4 56 108 23 44
4 73 26 29 98
4 86 79 92 48
4 45 86 79 40
4 92 48 51 108
4 40 45 17 6
4 76 49 48 77
4 72 77 48 89
4 104 37 76 49
4 72 89 15 40
4 17 42 80 104
4 104 80 92 5
4 17 71 73 42
4 71 73 77 9
4 15 63 108 11
4 11 116 45 15
4 63 113 76 108
4 76 113 41 69
4 4 1 19 50
4 19 96 31 1
5 25 96 19 50 47
5 4 1 31 110 24
4 4 24 47 50
4 11 21 4 13
4 111 21 11 108
5 11 108 3 84 13
5 4 85 54 111 21
4 84 13 4 85
4 21 19 86 48
4 86 114 105 19
5 86 48 89 102 114
5 19 105 52 90 21
4 89 48 21 90
4 20 4 28 36
5 70 112 20 36 25
4 26 28 36 25
4 20 112 115 4
5 28 4 115 76 26
4 19 10 0 20
4 0 110 116 10
5 10 19 17 45 116
5 20 0 110 68 18
4 17 19 20 18
4 42 48 49 11
4 48 42 12 30
5 30 48 49 93 85
5 42 12 105 82 11
4 82 11 49 93
4 48 74 36 50
5 74 72 99 91 36
4 50 83 91 36
4 72 74 48 73
5 115 73 48 50 83
4 4 2 27 49
5 29 108 92 49 27
4 29 55 2 27
4 39 4 49 92
5 34 55 2 4 39
4 0 56 11 1
5 0 14 106 37 56
4 14 0 1 32
4 56 11 23 37
5 11 23 17 32 1
4 19 62 61 42
4 62 22 81 61
5 42 15 89 81 61
5 62 22 117 67 19
4 42 15 67 19
4 2 36 62 0
4 36 9 8 62
5 36 9 113 97 2
5 40 88 0 62 8
4 88 0 2 97
4 28 48 80 27
5 48 118 58 98 80
4 80 98 99 27
4 118 48 28 109
5 28 109 78 99 27
4 10 11 80 61
5 10 94 43 106 61
4 61 106 104 80
4 94 10 11 95
5 104 80 11 95 60
4 13 27 35 0
4 34 0 35 33
5 35 33 63 113 27
5 6 34 0 13 107
4 27 113 107 13
4 36 86 61 35
4 40 61 86 41
5 35 119 66 40 61
5 36 117 101 41 86
4 36 35 119 117
4 27 56 61 74
5 87 74 61 79 118
4 56 38 79 61
4 27 16 87 74
5 95 38 56 27 16
4 49 28 50 21
4 49 53 102 28
5 55 75 50 28 102
5 49 21 58 31 53
4 50 75 58 21
4 21 1 10 42
4 10 42 51 3
5 10 1 46 22 3
5 60 21 42 51 47
4 1 21 60 46
4 1 13 2 20
5 8 69 1 20 54
4 7 2 20 54
4 13 76 69 1
5 2 7 37 76 13
4 62 86 50 20
5 62 100 72 45 86
4 71 45 86 50
4 100 62 20 52
5 71 97 52 20 50
4 10 56 35 62
5 68 35 62 65 87
4 35 68 44 56
4 65 6 10 62
5 15 6 10 56 44
4 2 28 74 35
4 77 70 35 74
5 2 64 38 70 35
5 77 92 101 28 74
4 28 101 64 2
4 86 42 80 74
4 86 74 57 43
5 86 42 103 83 43
5 80 66 93 57 74
4 103 66 80 42
4 49 80 56 13
5 12 59 56 80 63
4 80 63 5 49
4 56 13 78 59
5 5 49 13 78 32
4 12 118 103 10
5 103 10 100 119 90
5 57 114 12 118 60
4 60 90 103 118
4 60 90 119 57
4 62 65 39 112
4 87 101 97 68
5 39 112 99 97 101
4 101 39 65 87
4 16 27 7 18
5 3 34 32 18 7
4 34 38 95 32
4 18 32 95 16
5 28 5 111 33 7
4 95 5 28 93
4 59 33 111 58
5 59 84 93 95 58
4 58 111 5 95
5 79 33 36 109 39
4 93 109 36 102
5 115 93 102 29 98
4 98 79 39 115
4 115 39 109 93
5 29 59 75 30 74
4 89 74 30 60
4 83 75 59 82
4 30 75 83 60
5 89 53 82 83 60
4 64 2 18 67
4 8 70 38 6
5 8 106 18 67 6
4 67 64 38 6
4 0 3 12 94
5 119 0 94 67 16
5 17 12 3 81 104
4 17 67 94 12
4 17 104 16 67
4 94 10 88 64
4 117 68 106 43
5 68 117 64 88 72
4 64 94 43 117
4 100 61 79 112
4 83 112 79 118
5 102 117 83 112 100
4 118 87 117 83
4 108 56 82 58
5 46 57 81 56 82
5 32 58 108 51 30
4 46 32 58 82
4 30 57 46 32
4 65 9 28 109
5 9 37 70 34 65
4 70 34 78 99
4 109 78 34 65
4 71 24 13 107
4 17 6 34 54
5 54 22 24 71 17
4 107 6 17 71
4 1 67 43 105
5 88 44 71 67 1
5 43 105 100 81 47
4 81 44 71 47
4 47 43 67 71
4 69 107 67 19
5 70 110 97 107 69
4 97 110 22 117
4 97 117 67 107
4 86 41 69 96
5 52 115 69 96 55
4 69 41 101 115
4 101 115 52 117
5 24 81 116 11 90
4 11 90 83 58
5 85 83 58 96 114
4 85 24 81 114
4 90 83 85 24
4 9 26 49 5
5 110 55 54 9 26
4 55 78 32 54
4 9 5 32 54
5 50 39 69 77 9
4 78 85 50 39
4 29 77 69 31
5 85 7 29 31 78
4 78 31 69 39
5 96 111 48 26 29
4 32 111 48 60
4 84 105 96 29
4 96 105 32 111
5 60 24 84 105 32
5 86 75 112 98 77
4 85 75 86 47
4 52 53 98 112
5 47 26 53 52 85
4 112 52 85 75
4 41 71 4 39
4 25 55 34 8
5 68 25 8 41 71
4 41 8 34 39
4 42 116 88 103
5 22 52 88 116 25
4 83 103 88 52
4 52 83 43 22
4 105 31 13 46
5 104 44 13 46 18
5 54 105 31 116 51
4 51 54 18 104
4 105 54 18 46
5 59 94 109 57 35
4 72 35 57 89
5 101 89 72 98 103
4 89 57 109 101
4 94 103 101 109
5 14 65 5 16 2
4 66 16 2 99
5 99 59 79 92 66
4 5 92 79 65
4 16 66 92 5
5 14 84 27 104 30
4 15 104 27 66
4 118 30 14 94
4 104 30 118 15
5 118 15 66 82 94
4 37 35 59 108
5 108 6 5 104 37
4 108 59 94 6
4 6 5 109 94
4 36 91 94 65
4 38 99 72 40
5 65 63 40 38 94
4 91 99 38 94
4 59 91 119 56
4 59 91 43 12
4 63 12 43 87
5 87 43 91 119 89
4 62 106 63 79
5 91 62 79 103 64
5 63 15 16 57 106
4 63 79 103 15
4 15 16 64 103
4 0 14 109 64
4 87 113 37 106
4 106 14 109 87
5 87 113 66 64 109
4 35 119 46 14
5 12 6 95 46 14
4 95 6 40 66
4 119 46 95 66
5 91 82 98 61 114
4 61 98 92 63
5 109 95 92 63 30
4 95 82 98 92
4 95 109 91 82
4 14 33 74 57
5 108 38 78 14 33
4 14 78 93 57
4 78 93 66 38
4 91 75 33 35
4 63 118 75 33
4 118 101 113 63
5 93 101 118 75 91
4 20 39 5 18
4 113 76 110 68
5 113 76 38 39 5
4 113 68 18 5
4 24 84 56 44
4 60 15 6 32
4 44 15 60 24
5 112 88 73 41 19
4 43 87 41 19
4 73 89 119 88
4 89 87 41 73
4 103 67 20 112
4 40 70 25 45
4 103 112 70 40
5 67 87 45 40 103
4 11 82 119 44
4 106 22 105 12
5 106 45 44 119 22
4 119 22 105 82
4 110 3 14 2
5 3 110 44 23 8
4 8 65 14 3
4 8 65 5 23
4 74 77 96 114
4 58 92 77 96
4 101 83 58 92
4 33 77 48 30
5 99 76 77 33 55
4 33 30 85 55
4 99 55 85 93
5 51 80 53 84 114
4 53 80 92 115
4 75 114 84 78
5 78 115 92 111 75
4 115 78 84 53
4 78 4 107 38
5 23 107 4 18 9
4 33 9 23 108
4 107 23 108 38
4 25 62 91 102
5 73 77 25 102 97
4 97 64 103 73
4 91 102 97 64
4 17 15 80 51
4 114 43 17 51
4 114 43 46 84
5 15 17 43 46 90
4 80 98 100 81
4 58 98 100 105
4 118 58 105 43
4 41 79 75 50
5 72 113 41 79 70
4 79 75 55 70
4 72 102 55 70
4 76 31 84 27
5 111 34 31 76 23
4 34 14 84 31
4 30 111 34 14
4 7 29 80 104
4 104 60 85 7
4 85 60 95 78
4 36 9 111 75
4 92 111 9 113
4 92 115 97 113
5 96 42 73 53 100
4 42 118 101 73
4 93 53 100 91
4 93 53 73 101
4 46 1 107 16
4 37 68 22 3
5 37 68 16 107 40
4 46 22 68 16
4 90 88 0 46
4 15 40 8 17
4 90 15 40 88
4 22 106 65 20
5 20 64 107 41 65
4 45 41 65 106
4 45 44 107 41
4 47 45 61 114
4 91 114 47 117
5 47 117 90 73 45
4 90 82 91 117
5 23 51 7 24 49
4 6 23 49 95
4 51 12 6 23
4 7 14 12 51
4 55 20 64 99
4 77 41 107 76
4 64 99 76 107
5 69 21 71 26 116
4 34 69 21 32
4 34 3 116 69
4 7 26 116 3
4 42 17 54 96
4 96 54 22 100
4 22 100 53 24
4 55 54 19 112
4 88 112 55 110
4 26 73 88 110
4 117 83 21 71
4 102 26 116 100
4 117 71 26 102
4 26 53 11 23
4 23 17 47 26
4 32 85 47 17
4 50 111 23 71
4 97 71 23 76
4 97 52 31 76
4 49 24 52 115
4 55 7 51 96
4 52 24 7 55
4 48 51 116 73
4 31 116 73 115
4 115 83 105 31
4 77 111 21 73
4 77 111 54 25
4 54 25 102 85
4 52 4 18 22
4 25 9 23 116
4 25 22 18 9
4 69 1 90 73
4 54 47 45 8
4 73 69 8 45
4 21 23 44 90
4 110 52 105 3
4 90 44 110 52
4 59 79 86 114
4 114 102 99 59
4 66 99 102 89
4 113 76 29 74
4 76 29 59 38
4 38 59 75 39
4 27 29 114 57
4 29 114 12 108
4 108 12 118 92
4 13 84 57 16
4 108 3 106 63
4 84 3 106 57
4 68 37 33 36
4 37 40 79 33
4 79 40 107 39
4 100 62 94 82
4 82 100 72 66
4 15 66 72 45
4 40 56 81 45
4 45 87 57 81
4 67 46 57 87
4 72 119 0 70
4 16 113 72 119
4 67 41 113 16
4 38 13 44 40
4 104 63 40 44
4 104 63 65 18
4 84 59 61 81
4 81 89 93 84
4 93 89 15 95
4 7 30 109 2
4 63 92 76 37
4 37 63 30 7
4 87 113 77 86
4 66 98 77 113
4 98 66 64 112
4 97 28 7 110
4 70 33 7 110
4 70 33 111 69
4 53 81 104 49
4 3 31 58 12
4 31 53 81 3
4 98 103 19 96
4 72 98 96 25
4 47 89 72 25
4 8 10 100 25
4 119 100 25 68
4 68 71 90 119
4 116 8 6 11
4 81 106 8 116
4 18 24 81 106
4 70 88 1 34
4 44 88 70 37
4 37 44 71 9
4 42 51 29 98
4 47 51 29 102
4 93 60 47 102
4 101 48 26 97
4 99 29 96 112
4 97 26 29 99
4 28 26 51 30
4 26 51 108 76
4 115 58 108 76
4 5 104 24 4
4 37 110 31 108
4 110 24 104 37
4 50 9 68 117
4 68 9 77 72
4 88 69 77 72
4 116 10 82 53
4 116 45 89 53
4 60 17 45 89
5 19 50 75 118 43
5 1 4 78 95 46
4 78 95 118 75
4 95 46 43 118
5 11 13 38 66 82
5 21 83 101 39 4
4 101 39 38 66
4 82 66 101 83
5 86 87 63 30 48
5 19 21 32 6 67
4 32 6 63 30
4 67 6 63 87
5 20 22 43 91 36
5 4 24 60 93 28
4 22 43 60 24
4 91 93 60 43
5 12 58 96 19 10
5 14 78 55 20 0
4 96 58 78 55
4 78 14 12 58
5 49 5 113 101 48
5 103 42 11 6 40
4 113 5 6 40
4 101 113 40 103
5 74 36 68 106 57
5 50 71 17 60 48
4 17 71 68 106
4 17 60 57 106
5 49 53 89 66 27
5 4 52 117 64 2
4 89 53 52 117
4 66 89 117 64
5 59 99 70 0 56
5 69 1 11 58 115
4 69 115 99 70
4 58 115 99 59
5 61 63 108 51 42
5 65 34 54 19 62
4 54 51 108 34
4 65 63 108 34
5 7 2 36 102 85
5 0 62 100 105 3
4 85 7 3 105
4 85 102 100 105
5 80 15 45 73 48
5 28 27 16 68 97
4 73 45 68 97
4 68 16 15 45
5 61 79 70 8 10
5 80 92 76 23 11
4 8 23 76 70
4 79 70 76 92
5 27 35 72 102 29
5 52 31 13 0 88
4 29 102 52 31
4 72 102 52 88
5 37 3 81 61 35
5 36 9 54 47 86
4 9 54 3 37
4 47 54 3 81
5 77 25 45 61 74
5 56 44 110 76 27
4 76 110 25 77
4 25 45 44 110
5 109 28 50 117 87
5 95 49 21 90 15
4 90 117 87 15
4 15 95 109 87
5 1 34 38 94 10
5 118 42 21 111 92
4 38 34 111 92
4 94 38 92 118
5 1 105 83 112 20
5 13 2 99 93 84
4 105 83 93 84
4 99 112 83 93
5 86 62 106 12 114
5 18 32 85 50 20
4 85 32 12 114
4 18 32 12 106
5 35 33 55 25 62
5 108 56 10 116 31
4 33 108 31 55
4 25 116 31 55
5 35 119 22 110 2
5 26 47 89 74 28
4 47 26 110 22
4 89 47 22 119
5 86 41 8 17 42
5 74 80 104 37 113
4 41 113 37 8
4 8 17 104 37
5 98 80 56 40 72
5 49 115 97 107 13
4 107 97 72 40
4 115 97 72 98
4 1 32 5 107
5 103 64 107 1 90
5 60 32 5 109 118
4 107 64 109 5
4 17 21 4 18
4 83 43 17 21
5 18 17 43 87 65
4 50 101 64 20
4 93 85 50 101
5 93 95 16 64 101
5 50 111 5 65 41
4 41 50 83 103
4 41 65 94 103
5 94 95 58 83 103
5 94 109 39 20 67
4 67 20 52 90
4 90 82 94 67
5 93 115 52 90 82
5 36 65 14 30 75
4 67 65 36 117
4 67 46 14 65
5 60 83 117 67 46
4 115 21 19 112
4 78 32 21 115
5 115 78 38 64 112
4 39 111 54 20
5 17 12 30 111 54
4 111 30 109 39
4 4 2 14 32
4 4 32 105 52
5 32 14 94 43 105
4 1 6 65 20
4 1 105 12 6
5 65 79 118 12 6
4 64 39 34 0
5 64 91 82 46 0
5 58 32 34 39 75
4 64 91 75 39
4 83 19 62 91
4 83 19 54 85
5 83 85 78 109 91
4 48 92 39 50
4 92 48 60 95
5 95 92 39 107 6
5 4 71 67 16 5
4 5 30 85 4
5 43 57 30 85 47
4 16 57 30 5
4 49 13 46 60
4 49 115 83 60
4 11 1 67 15
4 11 58 118 15
5 67 41 101 118 15
5 24 13 16 119 90
4 78 13 16 109
4 16 119 91 109
4 118 86 36 109
4 86 118 60 47
5 39 69 19 103 79
4 82 105 19 103
4 103 79 59 82
5 78 59 82 105 31
5 111 96 86 79 33
4 94 43 86 79
4 79 33 14 94
5 62 94 59 75 112
4 94 62 22 46
4 94 46 84 59
5 52 85 84 46 22
4 42 86 75 58
4 58 42 17 32
4 94 0 13 95
4 13 31 58 95
4 109 75 55 2
5 109 57 46 18 2
5 105 54 55 75 114
4 57 109 75 114
4 18 2 97 71
5 71 90 89 101 97
4 71 18 46 90
4 71 4 115 73
5 103 73 115 92 66
4 73 103 67 71
5 104 30 28 9 18
4 41 9 28 101
4 67 41 9 18
4 112 62 8 69
5 6 108 111 69 8
4 112 69 111 75
4 100 10 1 52
4 55 34 1 52
5 52 55 99 91 100
4 36 33 34 20
4 22 3 34 20
5 12 59 33 34 3
4 69 19 17 23
5 15 17 23 5 63
4 23 5 39 69
4 50 28 7 54
4 50 117 22 54
5 106 22 54 7 14
4 1 4 97 88
4 99 97 4 78
5 97 88 119 66 99
4 107 88 10 6
5 112 88 10 82 98
4 88 107 39 112
4 0 119 117 20
4 102 117 20 55
5 102 93 57 119 117
4 8 19 50 9
4 43 19 8 106
5 63 106 8 9 33
4 48 47 24 49
4 101 48 47 117
5 24 18 68 117 47
4 113 28 4 107
4 66 93 28 113
5 15 44 107 113 66
5 107 23 21 73 41
4 23 104 60 21
4 23 107 16 104
5 87 16 104 60 89
4 96 42 11 31
4 34 6 11 31
5 31 96 112 70 34
4 2 78 59 35
4 78 2 110 31
4 75 36 25 96
5 8 3 51 96 25
4 51 30 75 96
4 40 10 19 41
4 12 63 40 10
5 92 63 40 41 77
4 62 43 57 35
4 47 25 62 43
5 119 100 53 84 56
4 38 56 119 64
4 112 64 119 100
4 98 58 21 73
5 108 38 79 98 58
4 98 79 41 73
4 46 0 110 24
5 97 102 53 24 110
4 24 46 82 53
5 114 74 33 7 51
4 33 74 87 65
4 65 33 7 18
4 38 79 62 0
4 38 0 3 108
4 105 10 61 114
4 105 54 8 10
4 35 70 112 91
5 35 91 114 84 14
4 96 112 91 114
4 2 16 87 36
4 87 89 102 36
4 45 71 21 42
4 118 42 45 87
5 71 9 113 87 45
5 73 88 44 11 53
4 11 95 16 44
4 44 88 64 16
4 84 27 28 85
4 28 97 52 85
4 49 76 69 21
4 38 95 49 76
5 38 40 88 69 76
4 50 111 51 47
4 104 5 111 51
5 104 106 45 47 51
4 68 18 14 35
4 18 14 84 24
5 48 51 23 9 77
4 79 118 48 77
4 79 65 9 77
4 53 90 1 31
5 99 76 31 53 98
4 90 103 98 53
5 77 98 42 116 69
4 98 59 12 42
4 98 77 33 59
4 59 61 106 14
5 100 61 59 29 96
4 14 7 29 59
4 84 3 10 82
5 110 55 29 84 3
4 82 84 29 98
5 71 26 49 104 44
4 104 57 93 49
4 44 104 57 119
4 74 28 5 63
4 15 89 74 63
4 90 11 80 89
4 92 80 89 101
5 81 57 27 7 24
4 57 91 99 27
4 91 100 81 57
4 56 10 103 66
4 108 56 66 92
4 61 12 30 74
4 12 61 45 17
4 30 28 102 114
5 22 81 114 102 25
4 81 114 30 104
4 48 111 108 80
4 80 108 6 15
4 93 27 56 82
4 27 76 115 93
4 81 56 0 22
4 22 0 70 25
4 100 61 40 88
4 96 100 88 69
4 62 86 77 70
4 70 37 106 62
5 70 37 108 29 77
4 74 29 55 36
4 36 68 110 55
4 96 116 45 86
4 23 111 96 116
5 37 23 116 45 40
4 13 110 116 11
4 70 38 13 110
5 72 100 116 110 70
4 9 7 27 113
4 7 24 71 9
4 26 24 13 76
5 76 26 73 72 113
4 24 26 73 90
4 77 26 49 92
4 26 71 41 77
4 2 13 44 68
4 68 2 99 72
5 68 44 81 89 72
4 48 26 25 86
4 86 87 68 25
5 37 68 25 26 7
4 42 15 44 116
4 116 69 107 44
4 100 114 74 72
4 51 116 100 114
4 61 98 99 35
4 35 37 76 99
4 51 80 56 3
4 3 56 40 8
4 84 56 37 7
4 7 26 53 84
5 116 81 80 29 26
4 29 80 63 33
4 9 33 29 26
4 53 11 108 29
4 29 53 73 77
4 106 35 27 104
4 106 35 72 45
4 80 66 119 81
4 81 119 88 116
4 72 61 42 73
4 61 63 113 72
4 102 74 80 53
4 102 97 113 74
4 48 89 81 51
4 51 81 44 23
4 27 49 23 37
4 37 27 66 40
5 54 34 1 4 18
5 97 88 70 25 68
4 18 68 25 54
5 11 6 32 46 13
5 54 8 116 110 22
4 22 54 32 46
5 19 54 47 71 21
5 55 102 97 115 112
4 71 97 102 47
5 55 7 28 4 78
4 7 55 70 37
5 113 107 38 70 37
5 20 65 8 70 0
4 8 45 87 65
5 72 119 117 87 45
5 11 90 60 17 42
5 85 52 31 96 54
4 52 85 60 90
5 48 26 102 85 50
4 99 76 26 102
5 39 78 99 76 92
5 78 95 49 27 84
5 37 23 6 34 3
4 78 84 3 34
5 94 0 56 40 6
5 81 45 17 43 22
4 6 17 43 94
5 62 25 45 41 19
4 101 41 45 89
5 83 101 89 102 91
5 70 33 36 2 99
4 33 70 40 63
5 87 16 66 40 63
5 48 60 93 53 80
5 31 108 111 32 78
4 78 93 53 31
5 61 45 15 103 10
5 114 105 83 60 47
4 60 15 103 83
5 27 66 38 59 35
4 59 12 6 38
5 106 104 15 6 12
5 86 36 102 72 77
4 92 77 72 66
5 118 92 66 93 109
5 89 74 61 98 66
5 95 60 30 12 58
4 58 98 66 95
5 21 32 85 24 49
5 34 69 76 110 55
4 110 55 85 24
5 67 1 10 8 17
5 52 117 47 25 100
4 117 47 17 67
5 2 13 38 34 14
5 40 44 68 106 8
4 14 106 8 34
5 55 20 50 9 25
4 9 113 72 25
5 64 99 72 113 101
5 62 35 72 40 79
4 118 79 40 15
5 57 43 118 15 89
5 99 29 74 28 93
4 99 29 108 38
5 108 38 95 5 63
5 47 86 42 73 89
5 58 115 93 85 75
4 115 73 89 93
5 80 15 95 82 56
5 17 32 105 3 51
4 82 105 32 95
5 90 103 19 43 117
5 96 98 53 102 114
4 43 117 102 114
4 27 35 36 28
5 36 75 39 101 28
5 10 11 44 81 3
4 14 3 81 57
5 95 16 57 14 94
5 7 24 13 31 3
4 30 7 24 60
5 27 7 33 108 76
4 7 33 75 85
5 29 26 49 115 31
4 47 26 29 114
5 61 56 119 57 106
4 109 57 106 65
5 65 79 38 64 109
5 67 94 62 106 87
4 106 87 89 81
5 89 81 100 82 90
4 62 61 74 36
5 117 36 62 112 64
4 50 86 74 28
5 83 50 86 96 112
5 10 82 46 43 12
5 24 53 116 51 47
4 47 51 12 43
5 16 104 37 56 13
4 30 104 37 33
5 78 59 33 30 109
5 62 10 88 119 22
5 6 107 16 18 65
4 16 18 22 119
5 22 68 71 67 20
5 72 100 112 103 73
4 22 68 72 100
4 20 2 35 62
5 39 107 97 2 20
4 50 4 2 36
5 50 4 115 69 111
5 24 90 1 105 22
5 26 73 69 96 25
4 25 96 105 22
5 0 1 107 44 110
4 104 7 110 44
5 32 14 7 104 5
5 2 110 37 9 18
4 32 18 9 111
5 52 110 26 71 4
4 17 51 26 71
5 76 97 28 9 77
4 54 96 77 9
5 0 64 16 68 35
5 5 39 34 33 9
4 5 16 68 9
4 20 36 86 19
5 52 20 19 69 88
5 106 3 0 46 18
4 116 45 106 3
5 71 90 88 116 45
5 80 92 58 59 29
4 59 29 102 91
5 108 12 14 84 56
4 84 14 109 93
5 58 105 84 53 11
4 89 57 84 53
5 61 59 94 118 63
5 81 104 60 46 84
4 118 63 104 60
5 57 30 63 80 27
4 30 75 79 63
5 79 98 99 91 75
4 80 61 86 48
5 86 43 91 100 61
5 86 79 103 101 87
5 93 57 114 59 82
4 93 101 87 57
4 74 35 56 80
5 35 74 87 109 91
5 81 114 12 42 80
4 94 91 114 12
5 66 119 91 94 103
5 118 83 82 98 42
5 51 30 85 84 29
4 85 30 118 83
5 49 104 51 108 11
4 59 114 51 108
4 48 74 27 49
5 74 48 118 75 114
4 56 0 2 27
5 5 109 2 27 113
5 19 105 100 116 42
4 119 46 105 100
5 119 44 15 67 46
5 73 41 50 117 97
4 91 99 97 117
5 70 77 41 39 112
4 109 39 41 87
4 10 42 86 62
5 63 37 35 14 65
4 63 15 44 37
4 4 28 48 21
5 51 96 58 21 48
5 4 13 76 23 5
4 51 23 76 29
5 26 7 54 111 23
4 54 105 58 111
4 46 95 5 18
5 92 113 74 33 79
4 112 55 33 79
5 53 73 21 83 52
4 45 81 53 73
4 19 50 48 42
5 55 75 111 77 29
4 111 5 113 77
4 12 17 23 108
5 18 24 44 23 17
5 1 21 23 116 31
4 81 84 31 116
4 13 49 28 2
5 111 30 28 49 92
4 83 52 55 75
4 0 35 61 10
5 41 67 64 88 40
4 91 64 67 43
5 113 68 36 65 41
4 113 68 119 66
5 101 115 98 77 48
4 98 77 25 100
4 24 104 15 90
4 78 14 65 39
4 71 23 6 67
4 41 73 116 8
4 65 41 69 34
4 70 112 52 110
4 44 88 52 24
4 4 13 0 20
4 3 8 69 31
5 9 71 107 69 8
4 1 20 50 21
4 107 23 26 97
4 37 110 88 40
4 64 107 71 117
4 0 62 19 1
4 96 111 92 98
4 58 92 5 32
4 21 49 80 42
4 11 56 61 42
4 95 16 113 92
4 75 112 103 118
4 98 82 119 72
4 94 64 99 59
4 46 82 66 16
4 100 96 58 82
4 13 27 80 11
4 115 101 109 78
4 108 6 107 76
4 19 10 11 21
4 39 69 73 101
4 70 88 103 79
4 90 44 40 103
4 67 107 38 94
4 69 116 53 115
4 34 39 115 31
4 1 11 49 4
4 1 10 56 13
4 38 76 97 64
4 88 112 83 90
5 64 67 1 4 39
5 43 91 75 85 105
5 88 90 11 13 107
5 83 58 78 39 112
5 39 41 19 21 111
5 87 109 30 60 43
5 28 109 16 18 4
5 91 102 52 22 119
5 20 112 91 94 0
5 3 12 114 96 54
5 11 23 69 73 42
5 95 118 101 39 5
5 50 9 5 30 48
5 89 117 68 16 57
5 49 24 44 16 27
5 99 115 52 88 64
5 0 88 100 82 56
5 108 34 69 96 58
5 62 79 75 96 19
5 51 30 63 106 17
5 36 2 14 57 91
5 25 100 81 3 110
5 80 104 23 26 48
5 107 16 66 101 97
5 96 116 10 61 98
5 92 111 23 6 63
5 35 119 81 84 27
5 88 70 76 31 116
5 36 33 30 114 86
5 68 37 104 81 45
5 74 29 51 81 61
5 113 40 44 23 76
5 71 21 49 5 107
5 93 83 117 64 109
5 112 69 1 10 103
5 12 32 111 75 118
5 119 64 2 13 46
5 105 100 112 55 31
5 50 20 65 109 75
5 47 114 57 106 22
5 114 59 35 62 100
5 116 8 37 108 51
5 7 28 74 57 104
5 119 44 110 97 72
5 42 51 111 77 86
5 113 87 15 104 5
5 80 53 116 44 56
5 38 107 69 115 92
5 103 90 21 115 101
5 109 94 46 32 78
5 20 117 43 46 18
5 2 20 52 85 78
5 90 67 16 95 60
5 1 21 58 95 6
5 4 115 93 95 13
5 4 32 60 83 50
5 34 20 19 105 32
5 38 95 82 103 64
5 118 83 19 67 94
5 18 54 85 30 14
5 105 84 14 0 22
5 65 14 12 43 62
5 83 52 1 46 82
5 14 34 55 75 59
5 62 22 54 55 36
5 107 41 103 15 6
5 50 101 87 67 71
5 24 46 57 93 85
5 4 24 90 117 97
5 82 91 99 78 84
5 85 28 36 117 47
5 67 65 5 32 17
5 0 38 78 31 1
5 86 50 54 17 43
5 79 94 6 34 39
5 59 94 10 105 58
5 55 7 84 114 102
5 49 28 101 89 60
5 11 15 66 92 49
5 15 118 48 21 17
5 33 111 54 8 65
5 62 70 34 3 10
5 7 33 35 106 3
5 42 103 79 92 58
5 7 24 22 68 2
5 90 119 66 93 53
5 98 82 11 31 115
5 99 35 0 110 55
5 9 18 106 87 36
5 44 71 73 89 15
5 48 92 113 41 73
5 8 19 42 12 6
5 112 98 59 38 70
5 29 59 56 3 31
5 9 25 47 51 7
5 65 41 86 118 63
5 74 35 68 25 102
5 53 84 13 110 52
5 10 40 38 108 11
5 102 93 27 2 97
5 61 12 108 33 79
5 86 25 8 106 61
5 25 96 29 33 70
5 18 71 47 60 104
5 49 76 97 73 53
5 98 66 40 88 73
5 66 56 13 76 99
5 68 113 28 26 71
5 9 41 45 17 23
5 29 99 72 100 53
5 74 48 47 45 87
5 24 26 102 89 81
5 79 40 8 69 77
5 61 72 70 37 56
5 74 77 9 37 63
5 27 37 110 26 29
5 27 80 89 72 113
5 45 42 80 63 40
5 98 77 76 108 80
5 26 116 45 72 77

# Cells
7 0 1 2 3 4 5 6
7 7 8 9 10 11 12 13
7 14 15 16 17 18 19 20
7 21 22 23 24 25 26 27
7 28 29 30 31 32 33 34
7 35 36 37 38 39 40 41
7 42 43 44 45 46 47 48
7 49 50 51 52 53 54 55
7 56 57 58 59 60 61 62
7 63 64 65 66 67 68 69
7 70 71 72 73 74 75 76
7 77 78 79 80 81 82 83
7 84 85 86 87 88 89 90
7 91 92 93 94 95 96 97
7 98 99 100 101 102 103 104
7 105 106 107 108 109 110 111
7 112 113 114 115 116 117 118
7 119 120 121 122 123 124 125
7 126 127 128 129 130 131 132
7 133 134 135 136 137 138 139
7 140 141 142 143 144 145 146
7 147 148 149 150 151 152 153
7 154 155 156 157 158 159 160
7 161 162 163 164 165 166 167
7 141 168 169 170 171 172 173
7 108 174 175 176 177 178 179
7 180 181 182 183 184 185 186
7 187 188 189 190 191 192 193
7 194 195 196 197 198 199 200
7 201 202 203 204 205 206 207
7 208 209 210 211 212 213 214
7 92 215 216 217 218 219 220
7 156 221 222 223 224 225 226
7 80 227 228 229 230 231 232
7 107 233 234 235 236 237 238
7 239 240 241 242 243 244 245
7 246 247 248 249 250 251 252
7 59 253 254 255 256 257 258
7 101 259 260 261 262 263 264
7 151 265 266 267 268 269 270
7 88 271 272 273 274 275 276
7 277 278 279 280 281 282 283
7 284 285 286 287 288 289 290
7 291 292 293 294 295 296 297
7 298 299 300 301 302 303 304
7 305 306 307 308 309 310 311
7 46 312 313 314 315 316 317
7 163 318 319 320 321 322 323
7 324 325 326 327 328 329 330
7 331 332 333 334 335 336 337
7 338 339 340 341 342 343 344
7 148 345 346 347 348 349 350
7 339 351 352 353 354 355 356
7 36 357 358 359 360 361 362
7 71 363 364 365 366 367 368
7 85 369 370 371 372 373 374
7 375 376 377 378 379 380 381
7 100 382 383 384 385 386 387
7 388 389 390 391 392 393 394
7 164 395 396 397 398 399 400
7 144 290 401 402 403 404 405
7 350 406 407 408 409 410 411
7 31 412 413 414 415 416 417
7 325 418 419 420 421 422 423
7 15 424 425 426 427 428 429
7 50 430 431 432 433 434 435
7 53 436 437 438 439 440 441
7 442 443 444 445 446 447 448
7 157 281 449 450 451 452 453
7 442 454 455 456 457 458 459
7 398 460 461 462 463 464 465
7 377 466 467 468 469 470 471
7 114 472 473 474 475 476 477
7 331 478 479 480 481 482 483
7 79 249 484 485 486 487 488
7 387 489 490 491 492 493 494
7 95 303 495 496 497 498 499
7 67 447 500 501 502 503 504
7 64 459 505 506 507 508 509
7 434 510 511 512 513 514 515
7 128 516 517 518 519 520 521
7 439 511 522 523 524 525 526
7 388 527 528 529 530 531 532
7 372 533 534 535 536 537 538
7 263 489 539 540 541 542 543
7 268 406 544 545 546 547 548
7 177 549 550 551 552 553 554
7 123 480 555 556 557 558 559
7 236 549 560 561 562 563 564
7 74 296 565 566 567 568 569
7 39 308 570 571 572 573 574
7 25 468 575 576 577 578 579
7 274 533 580 581 582 583 584
7 10 420 585 586 587 588 589
7 321 461 590 591 592 593 594
7 134 530 595 596 597 598 599
7 187 416 600 601 602 603 604
7 43 183 605 606 607 608 609
7 9 328 610 611 612 613 614
7 120 337 615 616 617 618 619
7 22 378 620 621 622 623 624
7 202 520 625 626 627 628 629
7 210 475 630 631 632 633 634
7 307 361 635 636 637 638 639
7 241 429 640 641 642 643 644
7 291 368 645 646 647 648 649
7 58 199 650 651 652 653 654
7 137 393 655 656 657 658 659
7 115 211 660 661 662 663 664
7 1 342 665 666 667 668 669
7 194 256 670 671 672 673 674
7 230 248 675 676 677 678 679
7 182 316 680 681 682 683 684
7 225 278 685 686 687 688 689
7 172 284 690 691 692 693 694
7 18 242 695 696 697 698 699
7 129 205 700 701 702 703 704
7 30 193 705 706 707 708 709
7 4 353 710 711 712 713 714
7 219 299 715 716 717 718 719
7 0 720 721 722 723 724 725
7 7 726 727 728 729 730 731
7 14 732 733 734 735 736 737
7 21 738 739 740 741 742 743
7 28 744 745 746 747 748 749
7 35 750 751 752 753 754 755
7 42 756 757 758 759 760 761
7 49 762 763 764 765 766 767
7 56 768 769 770 771 772 773
7 63 774 775 776 777 778 779
7 70 780 781 782 783 784 785
7 77 786 787 788 789 790 791
7 84 792 793 794 795 796 797
7 91 798 799 800 801 802 803
7 98 804 805 806 807 808 809
7 105 810 811 812 813 814 815
7 112 816 817 818 819 820 821
7 119 822 823 824 825 826 827
7 126 828 829 830 831 832 833
7 133 834 835 836 837 838 839
7 140 840 841 842 843 844 845
7 147 846 847 848 849 850 851
7 154 852 853 854 855 856 857
7 161 858 859 860 861 862 863
7 173 741 864 865 866 867 868
7 179 825 869 870 871 872 873
7 186 874 875 876 877 878 879
7 192 880 881 882 883 884 885
7 200 886 887 888 889 890 891
7 207 892 893 894 895 896 897
7 212 893 898 899 900 901 902
7 220 759 903 904 905 906 907
7 226 728 908 909 910 911 912
7 232 770 913 914 915 916 917
7 237 834 918 919 920 921 922
7 245 923 924 925 926 927 928
7 252 929 930 931 932 933 934
7 258 849 885 935 936 937 938
7 264 753 939 940 941 942 943
7 270 795 878 944 945 946 947
7 275 783 948 949 950 951 952
7 283 917 953 954 955 956 957
7 288 906 958 959 960 961 962
7 297 963 964 965 966 967 968
7 304 969 970 971 972 973 974
7 311 975 976 977 978 979 980
7 317 859 926 981 982 983 984
7 322 806 891 985 986 987 988
7 330 929 989 990 991 992 993
7 336 951 994 995 996 997 998
7 343 977 999 1000 1001 1002 1003
7 348 732 1004 1005 1006 1007 1008
7 354 964 1009 1010 1011 1012 1013
7 362 829 1014 1015 1016 1017 1018
7 367 817 1019 1020 1021 1022 1023
7 374 723 1024 1025 1026 1027 1028
7 379 970 1029 1030 1031 1032 1033
7 385 720 1034 1035 1036 1037 1038
7 392 942 1039 1040 1041 1042 1043
7 399 746 1044 1045 1046 1047 1048
7 405 735 1049 1050 1051 1052 1053
7 411 1054 1055 1056 1057 1058 1059
7 417 765 1060 1061 1062 1063 1064
7 421 880 1065 1066 1067 1068 1069
7 428 762 1070 1071 1072 1073 1074
7 435 853 974 1075 1076 1077 1078
7 440 840 932 1079 1080 1081 1082
7 448 912 1083 1084 1085 1086 1087
7 452 745 1088 1089 1090 1091 1092
7 456 867 1093 1094 1095 1096 1097
7 465 1054 1098 1099 1100 1101 1102
7 471 925 1103 1104 1105 1106 1107
7 476 798 978 1108 1109 1110 1111
7 481 1073 1112 1113 1114 1115 1116
7 487 774 1100 1117 1118 1119 1120
7 494 873 1121 1122 1123 1124 1125
7 498 777 1058 1126 1127 1128 1129
7 503 830 1130 1131 1132 1133 1134
7 509 818 1135 1136 1137 1138 1139
7 513 886 1140 1141 1142 1143 1144
7 521 788 968 1145 1146 1147 1148
7 526 875 1149 1150 1151 1152 1153
7 529 1064 1114 1154 1155 1156 1157
7 536 922 1158 1159 1160 1161 1162
7 541 1022 1163 1164 1165 1166 1167
7 546 1040 1168 1169 1170 1171 1172
7 552 1007 1173 1174 1175 1176 1177
7 558 801 1002 1178 1179 1180 1181
7 564 1048 1182 1183 1184 1185 1186
7 568 854 1032 1187 1188 1189 1190
7 573 843 991 1191 1192 1193 1194
7 578 811 900 1195 1196 1197 1198
7 584 1017 1199 1200 1201 1202 1203
7 589 812 897 1204 1205 1206 1207
7 593 994 1208 1209 1210 1211 1212
7 599 787 1011 1213 1214 1215 1216
7 602 1138 1163 1217 1218 1219 1220
7 608 822 1221 1222 1223 1224 1225
7 613 780 1210 1226 1227 1228 1229
7 618 738 1230 1231 1232 1233 1234
7 624 750 1170 1235 1236 1237 1238
7 627 958 1239 1240 1241 1242 1243
7 633 954 1244 1245 1246 1247 1248
7 637 1091 1182 1249 1250 1251 1252
7 642 1133 1200 1253 1254 1255 1256
7 647 1052 1174 1257 1258 1259 1260
7 653 837 1261 1262 1263 1264 1265
7 659 727 1266 1267 1268 1269 1270
7 664 792 1151 1271 1272 1273 1274
7 668 846 1067 1275 1276 1277 1278
7 673 1093 1233 1279 1280 1281 1282
7 677 1121 1224 1283 1284 1285 1286
7 682 1084 1269 1287 1288 1289 1290
7 687 1037 1291 1292 1293 1294 1295
7 694 1027 1291 1296 1297 1298 1299
7 698 769 1246 1300 1301 1302 1303
7 703 805 1143 1304 1305 1306 1307
7 708 756 1243 1308 1309 1310 1311
7 714 860 1105 1312 1313 1314 1315
7 717 1158 1264 1316 1317 1318 1319
7 672 784 1320 1321 1322 1323 1324
7 582 748 1325 1326 1327 1328 1329
7 603 742 1330 1331 1332 1333 1334
7 422 802 1335 1336 1337 1338 1339
7 718 809 1340 1341 1342 1343 1344
7 446 724 1345 1346 1347 1348 1349
7 356 766 1350 1351 1352 1353 1354
7 310 772 1355 1356 1357 1358 1359
7 562 779 1360 1361 1362 1363 1364
7 648 761 1365 1366 1367 1368 1369
7 514 815 1370 1371 1372 1373 1374
7 244 730 1375 1376 1377 1378 1379
7 493 737 1380 1381 1382 1383 1384
7 251 797 1385 1386 1387 1388 1389
7 380 791 1390 1391 1392 1393 1394
7 185 755 1395 1396 1397 1398 1399
7 482 832 1400 1401 1402 1403 1404
7 692 839 1405 1406 1407 1408 1409
7 592 845 1410 1411 1412 1413 1414
7 628 850 1415 1416 1417 1418 1419
7 409 857 1420 1421 1422 1423 1424
7 214 863 1425 1426 1427 1428 1429
7 394 821 1430 1431 1432 1433 1434
7 282 826 1435 1436 1437 1438 1439
7 611 972 1440 1441 1442 1443 1444
7 143 1039 1421 1445 1446 1447 1448
7 539 1070 1399 1449 1450 1451 1452
7 663 987 1453 1454 1455 1456 1457
7 623 1118 1458 1459 1460 1461 1462
7 609 1193 1463 1464 1465 1466 1467
7 680 1014 1427 1468 1469 1470 1471
7 666 1152 1472 1473 1474 1475 1476
7 86 1218 1381 1477 1478 1479 1480
7 106 1085 1396 1481 1482 1483 1484
7 702 1172 1485 1486 1487 1488 1489
7 685 1230 1379 1490 1491 1492 1493
7 545 908 1388 1494 1495 1496 1497
7 474 1101 1498 1499 1500 1501 1502
7 66 1009 1368 1503 1504 1505 1506
7 99 923 1393 1507 1508 1509 1510
7 437 1176 1511 1512 1513 1514 1515
7 550 1135 1439 1516 1517 1518 1519
7 713 1077 1520 1521 1522 1523 1524
7 699 1205 1525 1526 1527 1528 1529
7 658 1273 1530 1531 1532 1533 1534
7 675 1024 1359 1535 1536 1537 1538
7 155 1113 1432 1539 1540 1541 1542
7 576 1286 1543 1544 1545 1546 1547
7 349 1089 1548 1549 1550 1551 1552
7 433 920 1553 1554 1555 1556 1557
7 488 949 1558 1559 1560 1561 1562
7 706 1107 1548 1563 1564 1565 1566
7 640 1226 1351 1567 1568 1569 1570
7 165 1297 1436 1571 1572 1573 1574
7 617 895 1575 1576 1577 1578 1579
7 60 1257 1361 1580 1581 1582 1583
7 527 1108 1392 1584 1585 1586 1587
7 651 967 1588 1589 1590 1591 1592
7 454 1275 1433 1593 1594 1595 1596
7 94 1123 1387 1597 1598 1599 1600
7 32 1029 1343 1601 1602 1603 1604
7 293 981 1424 1529 1605 1606 1607
7 358 889 1574 1608 1609 1610 1611
7 631 1044 1336 1612 1613 1614 1615
7 38 1280 1348 1616 1617 1618 1619
7 597 1248 1553 1620 1621 1622 1623
7 150 955 1428 1513 1624 1625 1626
7 534 1308 1347 1627 1628 1629 1630
7 496 1167 1631 1632 1633 1634 1635
7 588 904 1594 1636 1637 1638 1639
7 366 1223 1576 1640 1641 1642 1643
7 453 1179 1631 1644 1645 1646 1647
7 78 1201 1376 1500 1648 1649 1650
7 635 1261 1402 1651 1652 1653 1654
7 566 1290 1558 1655 1656 1657 1658
7 286 1213 1384 1523 1659 1660 1661
7 72 874 1372 1634 1662 1663 1664
7 397 961 1600 1665 1666 1667 1668
7 121 1239 1407 1669 1670 1671 1672
7 467 913 1373 1647 1673 1674 1675
7 426 992 1618 1676 1677 1678 1679
7 386 1301 1588 1680 1681 1682 1683
7 574 937 1585 1684 1685 1686 1687
7 519 1006 1628 1677 1688 1689 1690
7 559 1147 1450 1691 1692 1693 1694
7 504 1314 1496 1665 1695 1696 1697
7 415 1236 1517 1608 1698 1699 1700
7 229 1161 1483 1691 1701 1702 1703
7 300 939 1364 1533 1704 1705 1706
7 135 898 1419 1656 1707 1708 1709
7 267 1294 1508 1684 1710 1711 1712
7 44 976 1354 1545 1713 1714 1715
7 460 1049 1328 1641 1716 1717 1718
7 313 1251 1540 1637 1719 1720 1721
7 523 869 1411 1682 1722 1723 1724
7 16 1065 1333 1621 1725 1726 1727
7 332 1304 1332 1555 1728 1729 1730
7 403 1157 1463 1603 1731 1732 1733
7 51 1184 1356 1442 1734 1735 1736
7 11 1316 1327 1577 1737 1738 1739
7 506 1003 1458 1671 1740 1741 1742
7 340 1079 1416 1562 1743 1744 1745
7 238 1132 1486 1615 1746 1747 1748
7 218 1035 1473 1652 1749 1750 1751
7 323 865 1544 1569 1752 1753 1754
7 189 1195 1367 1456 1755 1756 1757
7 130 1055 1414 1590 1758 1759 1760
7 371 883 1530 1583 1761 1762 1763
7 261 1256 1453 1504 1764 1765 1766
7 113 1209 1403 1474 1767 1768 1769
7 326 1126 1322 1550 1770 1771 1772
7 171 1267 1441 1537 1773 1774 1775
7 276 1061 1470 1511 1776 1777 1778
7 257 1021 1491 1499 1779 1780 1781
7 196 1187 1408 1460 1782 1783 1784
7 175 1096 1447 1525 1785 1786 1787
7 24 931 1339 1487 1788 1789 1790
7 3 1140 1323 1564 1791 1792 1793
7 223 997 1479 1520 1794 1795 1796
7 203 944 1342 1467 1797 1798 1799
7 37 903 1320 1800 1801 1802 1803
7 81 864 1325 1804 1805 1806 1807
7 87 1145 1330 1808 1809 1810 1811
7 17 985 1335 1812 1813 1814 1815
7 8 1004 1340 1816 1817 1818 1819
7 109 1060 1345 1820 1821 1822 1823
7 65 1204 1350 1824 1825 1826 1827
7 45 948 1355 1828 1829 1830 1831
7 52 1034 1360 1832 1833 1834 1835
7 57 1235 1365 1836 1837 1838 1839
7 2 1117 1370 1840 1841 1842 1843
7 102 1178 1375 1844 1845 1846 1847
7 93 1266 1380 1848 1849 1850 1851
7 23 1088 1385 1852 1853 1854 1855
7 29 1271 1390 1856 1857 1858 1859
7 73 1300 1395 1860 1861 1862 1863
7 158 935 1400 1864 1865 1866 1867
7 162 1019 1405 1868 1869 1870 1871
7 116 918 1410 1872 1873 1874 1875
7 122 1075 1415 1876 1877 1878 1879
7 127 1221 1420 1880 1881 1882 1883
7 136 1191 1425 1884 1885 1886 1887
7 142 1312 1430 1888 1889 1890 1891
7 149 1130 1435 1892 1893 1894 1895
7 643 871 1443 1896 1897 1898 1899
7 591 956 1448 1805 1900 1901 1902
7 499 894 1452 1877 1903 1904 1905
7 657 736 1457 1906 1907 1908 1909
7 414 725 1462 1910 1911 1912 1913
7 364 838 1466 1914 1915 1916 1917
7 569 882 1471 1809 1918 1919 1920
7 457 1046 1475 1910 1921 1922 1923
7 247 928 1480 1829 1924 1925 1926
7 510 979 1482 1872 1927 1928 1929
7 334 914 1488 1930 1931 1932 1933
7 269 965 1493 1837 1934 1935 1936
7 704 999 1497 1825 1937 1938 1939
7 532 1025 1502 1940 1941 1942 1943
7 561 879 1506 1893 1917 1944 1945
7 715 933 1509 1833 1946 1947 1948
7 344 910 1515 1936 1949 1950 1951
7 441 1104 1519 1857 1898 1952 1953
7 501 827 1524 1954 1955 1956 1957
7 383 778 1528 1926 1958 1959 1960
7 170 749 1534 1961 1962 1963 1964
7 579 1154 1538 1888 1932 1965 1966
7 407 902 1541 1853 1909 1967 1968
7 191 1016 1547 1969 1970 1971 1972
7 518 743 1551 1970 1973 1974 1975
7 711 820 1557 1940 1976 1977 1978
7 622 760 1561 1948 1979 1980 1981
7 537 1081 1565 1961 1982 1983 1984
7 262 960 1570 1868 1985 1986 1987
7 208 1116 1572 1812 1988 1989 1990
7 688 1127 1578 1954 1991 1992 1993
7 306 1087 1582 1864 1994 1995 1996
7 404 888 1587 1801 1997 1998 1999
7 638 945 1591 1939 2000 2001 2002
7 178 971 1595 1817 2003 2004 2005
7 418 1202 1598 1800 2006 2007 2008
7 581 1124 1604 1820 2009 2010 2011
7 654 989 1607 1813 2012 2013 2014
7 684 1050 1611 2015 2016 2017 2018
7 598 1094 1614 1821 2019 2020 2021
7 181 1013 1619 1884 1957 2022 2023
7 287 1227 1622 1914 2024 2025 2026
7 625 1211 1625 1816 2027 2028 2029
7 231 1169 1629 1880 1942 2030 2031
7 329 983 1635 1920 2032 2033 2034
7 696 754 1639 2015 2035 2036 2037
7 254 833 1643 1931 2038 2039 2040
7 347 808 1645 1902 2041 2042 2043
7 375 1069 1649 1841 2036 2044 2045
7 315 1164 1653 1848 1971 2046 2047
7 197 1110 1657 2021 2048 2049 2050
7 400 1150 1660 1840 2018 2051 2052
7 670 1185 1663 1869 2053 2054 2055
7 634 940 1668 1905 2056 2057 2058
7 279 1043 1672 1845 1964 2059 2060
7 709 995 1675 1865 2061 2062 2063
7 542 1263 1678 1906 2064 2065 2066
7 217 785 1681 2011 2049 2067 2068
7 606 856 1686 1929 2069 2070 2071
7 557 731 1690 1897 2072 2073 2074
7 451 796 1693 1990 2075 2076 2077
7 234 844 1696 1996 2078 2079 2080
7 272 773 1699 2001 2081 2082 2083
7 470 1137 1703 2005 2084 2085 2086
7 614 1244 1705 1885 1992 2087 2088
7 690 1057 1708 1849 1974 2089 2090
7 206 1071 1712 1987 2091 2092 2093
7 645 1142 1714 1881 1977 2094 2095
7 477 1287 1717 1860 1922 2096 2097
7 295 1232 1721 1979 2098 2099 2100
7 669 1253 1724 1844 1983 2101 2102
7 491 1033 1727 1861 1913 2103 2104
7 224 1175 1729 1832 2099 2105 2106
7 463 1196 1732 2063 2079 2107 2108
7 351 1281 1735 1876 2109 2110 2111
7 240 1220 1739 1824 2082 2112 2113
7 553 1305 1741 1958 2114 2115 2116
7 508 1160 1744 1804 2117 2118 2119
7 431 851 1747 2055 2091 2120 2121
7 587 767 1750 1949 2122 2123 2124
7 662 790 1753 2029 2084 2125 2126
7 373 1099 1756 1873 2127 2128 2129
7 479 1298 1760 1808 2130 2131 2132
7 678 1189 1762 2014 2075 2133 2134
7 301 1277 1765 2041 2119 2135 2136
7 390 1241 1769 1856 2073 2137 2138
7 427 1292 1771 1892 2025 2139 2140
7 320 803 1774 2032 2132 2141 2142
7 485 814 1777 2008 2143 2144 2145
7 571 862 1780 2056 2111 2146 2147
7 360 1283 1783 1852 2066 2148 2149
7 525 1214 1787 1999 2143 2150 2151
7 600 1318 1789 1836 2123 2152 2153
7 444 1259 1793 1889 2039 2154 2155
7 547 1309 1795 2069 2129 2156 2157
7 619 1249 1798 1828 2116 2158 2159
7 590 1111 1779 1997 2160 2161 2162
7 560 1082 1776 2117 2163 2164 2165
7 671 1018 1698 1918 2166 2167 2168
7 305 984 1636 2012 2169 2170 2171
7 512 1278 1749 2003 2172 2173 2174
7 691 1047 1695 2019 2175 2176 2177
7 478 911 1521 1937 2178 2179 2180
7 277 947 1685 2158 2181 2182 2183
7 408 1307 1746 2105 2184 2185 2186
7 626 1234 1640 1934 2187 2188 2189
7 209 1216 1554 2051 2190 2191 2192
7 443 872 1526 2101 2193 2194 2195
7 646 1265 1680 2046 2196 2197 2198
7 180 1190 1559 2148 2199 2200 2201
7 352 1139 1459 1952 2202 2203 2204
7 389 1053 1464 2096 2205 2206 2207
7 580 916 1692 2061 2208 2209 2210
7 716 1229 1773 1985 2211 2212 2213
7 246 1198 1752 2127 2214 2215 2216
7 419 1074 1688 1903 2217 2218 2219
7 376 1311 1549 2030 2220 2221 2222
7 239 943 1454 2087 2223 2224 2225
7 601 1028 1531 1965 2226 2227 2228
7 490 1129 1644 2139 2229 2230 2231
7 160 1005 1770 2074 2232 2233 2234
7 620 744 1733 1806 2199 2235 2236
7 531 959 1383 2057 2237 2238 2239
7 701 1115 1768 1968 2206 2240 2241
7 497 1068 1790 2104 2227 2242 2243
7 438 1012 1715 1945 2197 2244 2245
7 644 1165 1397 2033 2246 2247 2248
7 90 1119 1743 1912 2249 2250 2251
7 363 768 1763 1831 2205 2252 2253
7 655 841 1786 1875 2223 2254 2255
7 41 1222 1797 2040 2256 2257 2258
7 458 1173 1438 1950 2259 2260 2261
7 683 963 1423 2000 2262 2263 2264
7 69 919 1612 1978 2265 2266 2267
7 516 824 1742 1894 2220 2268 2269
7 710 775 1766 1834 2190 2270 2271
7 20 1036 1722 2124 2272 2273 2274
7 543 969 1362 1896 2275 2276 2277
7 567 1282 1792 2023 2194 2278 2279
7 577 1219 1726 1925 2230 2280 2281
7 266 1242 1709 2060 2176 2282 2283
7 689 1168 1386 1930 2284 2285 2286
7 412 794 1796 1855 2202 2287 2288
7 124 1090 1673 1975 2289 2290 2291
7 396 901 1626 2090 2189 2292 2293
7 652 980 1736 2095 2204 2294 2295
7 612 927 1650 1947 2222 2296 2297
7 167 1272 1755 1963 2298 2299 2300
7 335 1293 1377 2092 2301 2302 2303
7 382 799 1667 1815 2193 2304 2305
7 111 1076 1728 1956 2306 2307 2308
7 345 828 1592 1867 2229 2309 2310
7 341 1095 1434 2150 2311 2312 2313
7 83 1237 1782 2083 2314 2315 2316
7 190 1159 1349 2085 2307 2317 2318
7 605 782 1633 1802 2181 2319 2320
7 430 721 1566 1822 2184 2321 2322
7 469 881 1369 2133 2323 2324 2325
7 104 905 1651 2037 2303 2326 2327
7 639 1288 1426 2048 2310 2328 2329
7 168 858 1610 1887 2226 2262 2330
7 61 1192 1584 1916 2325 2331 2332
7 695 807 1711 1818 2169 2333 2334
7 289 1098 1329 1941 2315 2335 2336
7 117 1268 1704 2142 2296 2337 2338
7 707 1203 1738 2045 2225 2289 2339
7 176 1144 1664 2155 2167 2340 2341
7 473 1042 1542 1901 2185 2342 2343
7 500 813 1702 1843 2178 2323 2344
7 538 1284 1357 1969 2322 2345 2346
7 12 1302 1605 2068 2294 2347 2348
7 294 887 1409 2016 2299 2349 2350
7 660 836 1658 1870 2214 2351 2352
7 48 1020 1716 2147 2342 2345 2353
7 215 726 1579 1847 2196 2284 2354
7 632 1155 1391 2107 2305 2355 2356
7 145 986 1567 1908 2313 2357 2358
7 228 1031 1510 2010 2212 2359 2360
7 667 1086 1617 1928 2201 2272 2361
7 402 1212 1759 2138 2180 2331 2362
7 596 1299 1670 1989 2182 2265 2363
7 314 1260 1505 1995 2164 2326 2364
7 260 1319 1602 2113 2209 2357 2365
7 139 866 1535 2126 2280 2328 2366
7 548 892 1344 1991 2288 2348 2367
7 585 734 1623 1850 2172 2335 2368
7 5 1131 1494 2121 2240 2369 2370
7 555 855 1720 1883 2217 2349 2371
7 554 1149 1412 1921 2269 2337 2372
7 33 950 1468 1981 2278 2355 2373
7 679 1103 1371 1982 2253 2370 2374
7 253 751 1679 1863 2187 2275 2375
7 198 1250 1401 2098 2233 2352 2376
7 54 1313 1659 2080 2277 2292 2377
7 449 847 1514 1878 2208 2311 2378
7 233 764 1444 1827 2175 2246 2379
7 96 1206 1593 1960 2239 2340 2380
7 327 1254 1353 2135 2266 2320 2381
7 359 877 1484 2054 2174 2314 2382
7 370 934 1599 2153 2219 2298 2383
7 616 957 1573 2028 2192 2256 2384
7 204 996 1334 2156 2251 2334 2385
7 484 739 1489 1810 2163 2301 2386
7 153 1146 1627 2077 2261 2359 2387
7 131 1180 1449 2043 2242 2263 2388
7 271 789 1501 1859 2166 2237 2389
7 464 1245 1337 2024 2236 2273 2390
7 222 1059 1446 2131 2161 2306 2391
7 425 1125 1478 2007 2215 2232 2392
7 507 1186 1581 2110 2171 2249 2393
7 302 990 1324 2064 2257 2271 2394
7 26 1062 1516 2145 2244 2285 2395
7 570 758 1546 1838 2160 2317 2396
7 318 819 1476 1891 2211 2259 2397
7 75 936 1490 2071 2248 2282 2398
7 524 1000 1417 2114 2255 2291 2399
7 462 722 1498 1933 2356 2400 2401
7 551 729 1512 2002 2399 2402 2403
7 195 733 1609 1923 2329 2404 2405
7 636 740 1719 1951 2264 2406 2407
7 522 747 1472 2050 2312 2408 2409
7 285 752 1666 1993 2390 2410 2411
7 333 757 1794 1943 2286 2412 2413
7 686 763 1710 2058 2367 2414 2415
7 544 771 1485 2108 2385 2416 2417
7 201 776 1575 2026 2302 2418 2419
7 630 781 1620 2093 2238 2420 2421
7 455 786 1785 2017 2372 2422 2423
7 292 793 1589 2115 2376 2424 2425
7 681 800 1655 2151 2350 2426 2427
7 338 804 1740 2100 2260 2428 2429
7 528 810 1731 2157 2336 2430 2431
7 535 816 1701 1899 2374 2432 2433
7 298 823 1440 1984 2381 2434 2435
7 676 831 1543 2034 2324 2436 2437
7 324 835 1676 1972 2247 2438 2439
7 466 842 1563 2136 2318 2440 2441
7 641 848 1764 2086 2276 2442 2443
7 188 852 1761 2065 2346 2444 2445
7 540 861 1632 2134 2394 2446 2447
7 450 868 1552 1919 2387 2448 2449
7 381 870 1601 1803 2339 2411 2450
7 595 876 1661 1911 2177 2451 2452
7 132 884 1404 1927 2371 2438 2453
7 97 890 1338 1967 2368 2408 2454
7 55 896 1352 1924 2270 2420 2455
7 424 899 1451 1955 2231 2456 2457
7 273 907 1560 1935 2316 2458 2459
7 649 909 1580 1874 2295 2433 2460
7 391 915 1445 1819 2362 2403 2461
7 572 921 1465 1986 2353 2462 2463
7 505 924 1518 1962 2165 2449 2464
7 312 930 1606 1907 2198 2455 2465
7 502 938 1748 1904 2308 2466 2467
7 629 941 1669 1807 2384 2423 2462
7 355 946 1503 1871 2393 2447 2458
7 697 952 1683 1998 2327 2468 2469
7 259 953 1706 1915 2213 2470 2471
7 76 962 1321 2044 2375 2418 2472
7 27 966 1331 1988 2287 2428 2456
7 152 973 1418 2022 2268 2440 2451
7 221 975 1495 1959 2186 2473 2474
7 604 982 1477 1835 2383 2415 2475
7 556 988 1646 2004 2234 2450 2476
7 166 993 1429 1944 2351 2436 2477
7 62 998 1358 1946 2396 2400 2478
7 13 1001 1378 1900 2333 2406 2479
7 319 1008 1455 2047 2338 2475 2480
7 615 1010 1492 2081 2183 2469 2481
7 492 1015 1597 1842 2243 2401 2482
7 235 1023 1556 1966 2377 2471 2483
7 410 1026 1758 1814 2241 2405 2484
7 665 1030 1596 2072 2195 2472 2485
7 486 1038 1461 2020 2395 2474 2486
7 705 1041 1630 2038 2210 2467 2487
7 184 1045 1662 1879 2279 2435 2488
7 515 1051 1791 1866 2361 2445 2468
7 575 1056 1757 1976 2228 2454 2489
7 384 1063 1751 1938 2380 2452 2490
7 357 1066 1469 2076 2200 2491 2492
7 693 1072 1571 1854 2293 2407 2493
7 255 1078 1687 2031 2258 2461 2494
7 243 1080 1507 1839 2365 2417 2495
7 401 1083 1718 2067 2162 2459 2496
7 661 1092 1532 2118 2366 2492 2497
7 34 1097 1326 2027 2389 2404 2498
7 110 1102 1374 2103 2321 2416 2499
7 118 1106 1431 1994 2254 2442 2473
7 445 1109 1481 1882 2341 2437 2500
7 369 1112 1536 2078 2216 2463 2501
7 586 1120 1527 2106 2274 2460 2502
7 565 1122 1784 1973 2168 2499 2503
7 213 1128 1707 1811 2363 2425 2466
7 607 1134 1642 2062 2398 2457 2504
7 719 1136 1737 1830 2297 2413 2497
7 472 1141 1586 2035 2207 2453 2505
7 169 1148 1754 1953 2300 2495 2503
7 82 1153 1394 2059 2235 2426 2470
7 6 1156 1346 2006 2344 2412 2491
7 146 1162 1413 2094 2397 2434 2506
7 138 1166 1406 2109 2330 2444 2481
7 47 1171 1366 2112 2252 2430 2464
7 103 1177 1341 2137 2354 2424 2487
7 656 1181 1775 2013 2358 2485 2507
7 265 1183 1799 1980 2188 2477 2508
7 423 1188 1725 1823 2392 2431 2448
7 712 1194 1697 2128 2267 2484 2509
7 483 1197 1539 1851 2391 2427 2483
7 174 1199 1723 2042 2173 2480 2510
7 413 1207 1778 2052 2250 2488 2511
7 227 1208 1674 2070 2221 2479 2512
7 674 1215 1616 1895 2382 2443 2486
7 650 1217 1654 2141 2170 2476 2513
7 432 1225 1522 2140 2369 2493 2512
7 280 1228 1624 1858 2283 2409 2514
7 563 1231 1734 1886 2245 2439 2515
7 216 1238 1638 2097 2347 2500 2508
7 610 1240 1568 2146 2224 2498 2509
7 40 1247 1398 2009 2319 2414 2510
7 89 1252 1389 2089 2386 2402 2516
7 125 1255 1437 2053 2378 2432 2517
7 700 1258 1730 2122 2179 2506 2511
7 250 1262 1788 1826 2281 2419 2507
7 346 1270 1689 2102 2388 2465 2518
7 517 1274 1694 2149 2290 2482 2519
7 583 1276 1648 1862 2360 2421 2518
7 395 1279 1613 2144 2191 2502 2517
7 159 1285 1422 2154 2309 2446 2496
7 19 1289 1382 2130 2304 2422 2501
7 68 1295 1363 2152 2379 2410 2513
7 495 1296 1772 2120 2218 2494 2516
7 621 1303 1700 2159 2373 2505 2515
7 309 1306 1713 1890 2364 2441 2490
7 594 1310 1767 1846 2343 2429 2504
7 365 1315 1781 2088 2332 2489 2514
7 436 1317 1745 2125 2203 2478 2519
