# Generated using Miratope v0.5.0 (https://github.com/galoomba1/miratope-rs)
4OFF

# Vertices, Faces, Edges, Cells
120 3120 1200 720

# Vertices
1.3090169943749 0 0.8090169943749 0.5 
1.3090169943749 0.5 0 -0.8090169943749 
1.3090169943749 0.8090169943749 -0.5 0 
0.809016994375 -0.8090169943749 0.8090169943749 -0.8090169943749 
0.5 -1.3090169943749 0.8090169943749 0 
0.809016994375 0 -0.5 1.3090169943749 
0.5 -0.8090169943749 0 1.3090169943749 
1.3090169943749 -0 0.8090169943749 -0.5 
1.3090169943749 0.5 0 0.8090169943749 
0.809016994375 -0.8090169943749 0.8090169943749 0.8090169943749 
0.809016994375 0 -0.5 -1.3090169943749 
0.5 -0.8090169943749 0 -1.3090169943749 
0.809016994375 0.5 -1.3090169943749 0 
0.5 0 -1.3090169943749 0.8090169943749 
0.5 0 -1.3090169943749 -0.8090169943749 
0 -1.3090169943749 -0.5 0.8090169943749 
0 -1.6180339887499 0 0 
0 -1.3090169943749 -0.5 -0.8090169943749 
0 -0.8090169943749 -1.3090169943749 0.5 
0 -0.8090169943749 -1.3090169943749 -0.5 
1.3090169943749 -0.5 0 -0.8090169943749 
1.3090169943749 -0.8090169943749 -0.5 0 
0.809016994375 0.8090169943749 0.8090169943749 -0.8090169943749 
0.5 1.3090169943749 0.8090169943749 0 
0.5 0.8090169943749 0 1.3090169943749 
1.3090169943749 -0.5 0 0.8090169943749 
0.809016994375 0.8090169943749 0.8090169943749 0.8090169943749 
0.5 0.8090169943749 0 -1.3090169943749 
0.809016994375 -0.5 -1.3090169943749 0 
0 1.3090169943749 -0.5 0.8090169943749 
0 1.6180339887499 0 0 
0 1.3090169943749 -0.5 -0.8090169943749 
0 0.8090169943749 -1.3090169943749 0.5 
0 0.8090169943749 -1.3090169943749 -0.5 
1.3090169943749 0 -0.8090169943749 0.5 
0.809016994375 1.3090169943749 0 0.5 
0.5 0 1.3090169943749 -0.8090169943749 
1.3090169943749 -0.8090169943749 0.5 0 
0.809016994375 0.5 1.3090169943749 0 
0.5 1.3090169943749 -0.8090169943749 0 
0.809016994375 -0.8090169943749 -0.8090169943749 -0.8090169943749 
0 0.5 0.8090169943749 -1.3090169943749 
0 1.3090169943749 0.5 -0.8090169943749 
0 0 0 -1.6180339887499 
0 0.5 -0.8090169943749 -1.3090169943749 
1.3090169943749 0 -0.8090169943749 -0.5 
0.5 0 1.3090169943749 0.8090169943749 
0.809016994375 1.3090169943749 0 -0.5 
0.809016994375 -0.8090169943749 -0.8090169943749 0.8090169943749 
0 0.5 0.8090169943749 1.3090169943749 
0 1.3090169943749 0.5 0.8090169943749 
0 0 0 1.6180339887499 
0 0.5 -0.8090169943749 1.3090169943749 
0.809016994375 -1.3090169943749 0 0.5 
1.3090169943749 0.8090169943749 0.5 0 
0.809016994375 -0.5 1.3090169943749 0 
0.5 -1.3090169943749 -0.8090169943749 0 
0.809016994375 0.8090169943749 -0.8090169943749 -0.8090169943749 
0 -0.5 0.8090169943749 -1.3090169943749 
0 -1.3090169943749 0.5 -0.8090169943749 
0 -0.5 -0.8090169943749 -1.3090169943749 
0.809016994375 -1.3090169943749 0 -0.5 
0 0 1.6180339887499 0 
0 0.8090169943749 1.3090169943749 -0.5 
0 -0.8090169943749 1.3090169943749 -0.5 
0.809016994375 0.8090169943749 -0.8090169943749 0.8090169943749 
0 -0.5 0.8090169943749 1.3090169943749 
0 -1.3090169943749 0.5 0.8090169943749 
0 -0.5 -0.8090169943749 1.3090169943749 
0.809016994375 -0 0.5 1.3090169943749 
0 0 -1.6180339887499 0 
0 0.8090169943749 1.3090169943749 0.5 
0 -0.8090169943749 1.3090169943749 0.5 
0.809016994375 -0 0.5 -1.3090169943749 
-0.8090169943749 0.8090169943749 0.809016994375 0.8090169943749 
-0.8090169943749 0.5 1.309016994375 0 
-0.8090169943749 0.8090169943749 0.809016994375 -0.8090169943749 
-0.8090169943749 1.309016994375 0 0.5 
-0.8090169943749 1.309016994375 0 -0.5 
1.6180339887499 0 -0 0 
-0.5 1.3090169943749 0.809016994375 0 
-0.5 0 1.309016994375 -0.8090169943749 
-0.5 0.8090169943749 0 -1.3090169943749 
-0.5 0 1.309016994375 0.8090169943749 
-0.5 0.8090169943749 0 1.3090169943749 
-0.5 1.309016994375 -0.8090169943749 0 
-0.8090169943749 -0.8090169943749 0.809016994375 0.8090169943749 
-0.8090169943749 -0.5 1.309016994375 0 
-0.8090169943749 -0.8090169943749 0.809016994375 -0.8090169943749 
-0.8090169943749 -1.309016994375 0 0.5 
-0.8090169943749 -1.309016994375 0 -0.5 
-0.5 -1.3090169943749 0.809016994375 0 
-0.5 -0.8090169943749 0 -1.309016994375 
-0.5 -0.8090169943749 0 1.309016994375 
-0.5 -1.309016994375 -0.8090169943749 0 
-0.8090169943749 0 0.5 1.309016994375 
-0.8090169943749 0 -0.5 1.309016994375 
-0.8090169943749 -0.8090169943749 -0.8090169943749 0.809016994375 
-0.5 0 -1.3090169943749 0.809016994375 
-1.3090169943749 0 0.809016994375 0.5 
-1.3090169943749 0 0.809016994375 -0.5 
-0.8090169943749 0 0.5 -1.309016994375 
-1.3090169943749 0.809016994375 0.5 0 
-0.8090169943749 0 -0.5 -1.309016994375 
-0.8090169943749 -0.8090169943749 -0.8090169943749 -0.809016994375 
-0.5 0 -1.3090169943749 -0.809016994375 
-0.8090169943749 0.809016994375 -0.8090169943749 0.809016994375 
-1.3090169943749 0.5 0 0.809016994375 
-1.3090169943749 -0.809016994375 0.5 0 
-0.8090169943749 0.5 -1.309016994375 0 
-0.8090169943749 -0.5 -1.309016994375 0 
-0.8090169943749 0.809016994375 -0.8090169943749 -0.809016994375 
-1.3090169943749 0.5 0 -0.809016994375 
-1.3090169943749 -0.5 0 0.809016994375 
-1.3090169943749 0.809016994375 -0.5 0 
-1.3090169943749 -0.5 0 -0.809016994375 
-1.3090169943749 -0.809016994375 -0.5 0 
-1.3090169943749 -0 -0.809016994375 0.5 
-1.6180339887499 0 0 0 
-1.3090169943749 -0 -0.809016994375 -0.5 

# Faces
3 0 3 1
5 1 0 6 18 14
5 2 0 4 17 14
3 2 5 0
5 0 5 18 17 3
3 0 4 6
3 7 9 8
5 8 13 19 11 7
5 7 4 15 13 2
3 7 10 2
5 9 15 19 10 7
3 4 11 7
5 8 6 16 11 1
3 8 12 1
5 8 12 19 16 9
3 8 6 13
5 12 1 3 16 18
3 1 11 14
5 5 15 17 10 2
3 13 14 2
5 9 5 12 10 3
3 9 3 16
3 5 15 9
3 3 10 17
5 4 11 14 13 6
3 4 15 17
3 12 18 5
3 6 16 18
3 10 19 12
3 16 19 11
3 13 19 15
3 14 18 17
3 0 20 22
5 20 14 32 24 0
5 21 14 31 23 0
3 0 21 5
5 5 32 31 22 0
3 23 24 0
3 7 26 25
5 7 27 33 13 25
5 10 33 29 26 7
5 7 21 13 29 23
3 10 21 7
3 23 27 7
5 20 27 30 24 25
3 20 28 25
5 28 25 26 30 33
3 25 13 24
5 28 20 22 30 32
3 20 27 14
5 26 5 28 10 22
3 26 22 30
3 5 29 26
5 5 29 31 10 21
3 14 21 13
3 22 10 31
5 23 24 13 14 27
3 23 31 29
3 28 32 5
3 10 28 33
3 30 32 24
3 27 33 30
3 13 33 29
3 31 32 14
3 3 21 0
3 0 35 34
5 36 0 34 14 43
3 0 23 36
5 3 0 35 31 43
3 37 38 8
5 37 8 39 44 11
5 21 11 41 23 8
3 8 21 12
5 12 8 38 41 44
3 8 39 23
5 37 36 42 39 34
3 37 40 34
5 37 38 42 44 40
3 37 11 36
5 3 41 31 12 21
3 14 11 21
5 35 42 43 40 34
3 34 39 14
5 35 12 40 3 38
3 38 35 42
3 38 3 41
5 36 11 14 39 23
3 23 31 41
3 12 31 35
3 40 43 3
3 36 42 43
3 41 44 11
3 40 44 12
3 39 44 42
3 14 43 31
3 7 9 21
5 9 7 47 29 51
3 7 46 23
5 7 46 51 13 45
3 7 45 47
3 37 1 38
5 1 39 52 6 37
5 1 21 6 49 23
3 1 21 12
5 12 52 49 38 1
3 39 1 23
5 38 50 52 48 37
5 45 37 46 50 39
3 37 48 45
3 37 6 46
5 21 12 29 49 9
3 6 21 13
5 38 47 12 48 9
3 38 49 9
3 38 50 47
3 9 48 51
5 13 39 23 46 6
3 23 49 29
5 45 48 51 50 47
3 13 39 45
3 46 50 51
3 47 12 29
3 49 52 6
3 48 52 12
3 13 51 29
3 50 52 39
3 2 22 0
3 34 53 0
5 0 53 17 43 22
3 4 36 0
5 25 2 27 58 4
3 28 2 25
3 25 54 55
5 25 54 27 60 56
5 28 60 58 55 25
3 4 56 25
5 22 2 28 17 58
3 2 27 14
3 34 54 57
5 36 54 34 56 59
5 34 53 59 43 57
3 34 56 14
5 53 55 22 57 28
3 22 55 58
3 22 43 57
5 55 59 60 57 54
3 54 27 36
3 55 53 59
5 27 36 4 56 14
3 4 58 17
3 53 28 17
3 36 43 59
3 58 60 27
3 57 60 28
3 17 43 14
3 56 59 60
3 8 9 21
5 8 47 41 64 9
3 8 46 23
5 8 46 64 11 45
3 47 8 45
3 26 2 25
5 61 25 26 63 58
5 25 46 63 27 45
3 45 61 25
3 25 46 4
5 26 2 10 58 62
5 2 23 62 4 21
3 10 2 21
3 27 2 23
5 9 26 47 10 61
3 9 62 26
3 26 47 63
5 9 21 10 41 62
3 4 21 11
3 9 64 61
5 23 46 4 11 27
3 23 41 62
5 45 61 64 63 47
3 45 11 27
3 63 64 46
3 4 62 58
3 47 10 41
3 61 10 58
3 41 64 11
3 58 63 27
3 7 2 26
5 26 51 15 61 7
3 45 61 7
3 7 4 46
5 20 2 24 66 4
3 28 2 20
5 28 15 66 26 2
3 13 24 2
3 55 20 54
5 24 54 20 56 68
5 20 55 66 68 28
3 4 20 56
5 26 65 28 61 55
3 26 66 55
3 26 51 65
5 45 56 67 46 54
3 45 65 54
5 54 65 68 67 55
3 54 46 24
5 45 61 67 51 65
3 45 56 13
3 55 67 61
5 4 56 13 24 46
3 46 51 67
3 4 66 15
3 61 15 28
3 66 68 24
3 65 68 28
3 15 51 13
3 56 68 67
3 1 35 0
3 0 53 20
5 0 53 18 32 35
3 0 6 24
3 37 40 1
5 40 1 35 52 18
3 14 39 1
3 54 20 57
5 20 53 68 32 57
3 14 20 56
3 37 54 69
5 37 54 39 70 56
5 40 70 52 69 37
3 6 56 37
5 57 54 69 68 70
3 54 24 39
5 69 53 40 57 35
3 69 52 35
3 35 57 32
3 69 68 53
3 40 18 53
5 14 39 24 6 56
3 18 52 6
3 24 32 68
3 57 70 40
3 39 52 70
3 18 32 14
3 56 70 68
3 3 21 1
3 35 1 34
5 34 6 72 36 1
3 23 36 1
5 1 3 72 49 35
3 22 2 20
3 5 21 2
5 5 2 22 62 66
3 23 2 24
3 53 34 20
5 36 20 34 24 71
5 20 22 71 66 53
3 4 36 20
5 21 3 62 49 5
3 6 21 4
5 34 35 71 72 53
3 6 34 24
5 22 3 53 5 35
3 35 71 22
3 22 62 3
5 23 36 4 6 24
3 23 49 62
3 35 49 5
3 53 72 3
3 4 66 62
3 5 66 53
3 71 72 36
3 6 49 72
3 66 71 24
3 8 38 1
5 8 48 16 64 38
3 45 48 8
3 6 8 46
3 40 1 34
5 1 40 16 72 38
3 11 36 1
3 54 69 34
5 34 69 72 59 40
3 34 6 56
3 54 45 73
3 36 46 54
5 69 67 59 73 54
5 69 38 73 40 48
3 38 72 69
3 38 64 73
5 48 67 64 73 45
3 45 56 11
5 6 46 36 11 56
3 64 67 46
3 36 72 59
3 69 48 67
3 6 16 72
3 73 59 40
3 16 64 11
3 40 16 48
3 56 59 67
3 8 47 7
3 25 7 61
5 47 7 61 19 33
3 7 27 11
3 8 48 37
5 8 48 19 44 47
3 8 39 13
3 54 65 25
5 61 60 33 65 25
3 25 56 13
3 54 73 37
5 48 37 73 44 70
3 11 56 37
5 65 70 60 73 54
3 54 39 27
5 73 47 65 48 61
3 47 44 73
3 65 33 47
3 61 60 73
3 61 19 48
5 13 39 27 11 56
3 11 44 19
3 65 70 48
3 33 60 27
3 13 33 19
3 39 70 44
3 56 60 70
3 20 55 25
3 45 65 25
5 25 55 63 30 65
3 24 46 25
3 34 20 57
5 71 55 20 57 30
3 20 36 27
3 34 69 37
3 45 73 37
3 37 36 46
5 69 50 42 73 37
5 71 69 34 57 42
3 39 24 34
5 45 65 50 63 73
3 39 27 45
3 55 71 69
5 69 65 57 73 55
3 55 63 73
5 24 39 27 36 46
3 46 63 50
3 36 71 42
3 69 65 50
3 30 71 24
3 73 57 42
3 30 63 27
3 65 30 57
3 39 42 50
3 0 36 1
5 0 49 77 31 1
5 2 31 76 62 0
3 0 2 24
5 24 0 36 76 77
3 49 0 62
3 7 46 8
5 8 29 78 41 7
5 62 7 2 29 74
3 2 27 7
5 7 27 78 74 46
3 41 7 62
5 1 41 75 49 8
3 8 39 1
5 46 8 39 78 75
3 49 29 8
5 39 1 36 75 77
3 41 1 31
5 2 24 74 76 27
3 31 2 29
3 46 75 36
3 46 24 74
3 27 76 36
5 29 31 41 62 49
3 62 74 76
3 39 77 24
3 49 77 75
3 27 78 39
3 75 78 41
3 29 74 78
3 31 77 76
3 0 20 2
5 0 20 43 76 71
3 35 0 71
3 0 62 3
5 2 20 58 76 30
3 30 2 26
3 10 2 31
3 58 20 55
3 57 43 20
3 55 79 26
5 79 26 80 82 10
5 58 82 30 26 55
3 62 80 26
3 35 79 57
5 79 3 81 80 35
5 71 35 57 43 81
3 35 31 80
3 3 79 10
5 62 3 10 31 80
3 3 81 43
5 55 81 82 57 79
3 71 81 55
3 58 76 62
3 30 76 71
3 10 82 58
3 30 82 57
3 43 76 31
3 81 82 80
3 7 25 2
5 25 51 74 63 7
3 7 62 9
3 47 63 7
5 25 2 30 74 66
3 25 66 55
3 65 51 25
3 22 30 2
3 5 29 2
3 55 79 22
5 79 22 80 84 5
5 55 22 30 84 66
3 62 80 22
3 9 5 79
5 9 83 80 47 79
5 5 29 80 62 9
3 51 83 9
5 55 83 84 65 79
3 47 79 65
3 63 83 55
5 63 83 51 65 47
3 47 80 29
3 5 84 66
3 62 66 74
3 63 30 74
3 65 84 30
3 29 51 74
3 80 84 83
3 0 34 1
5 0 71 77 32 34
3 22 71 0
3 5 0 49
5 34 1 42 77 52
3 42 1 38
3 12 1 31
3 69 34 52
3 34 32 57
3 57 22 79
5 57 22 71 84 32
3 22 80 31
3 38 79 69
5 38 80 85 12 79
5 42 38 69 52 85
3 38 49 80
3 12 79 5
5 69 79 57 85 84
5 12 31 80 49 5
3 32 84 5
3 69 84 71
3 71 77 42
3 52 77 49
3 12 52 85
3 42 85 57
3 31 77 32
3 80 85 84
3 8 37 1
5 8 37 64 75 50
3 9 49 8
3 47 50 8
5 1 37 72 75 42
3 42 1 35
3 3 41 1
3 37 72 69
3 73 64 37
3 3 9 79
5 49 9 3 41 80
3 9 83 64
3 35 79 69
5 72 69 35 42 81
3 35 80 49
3 3 81 72
3 73 79 47
5 73 79 69 83 81
5 73 47 50 83 64
3 41 80 47
3 69 83 50
3 73 81 42
3 49 75 72
3 41 75 64
3 50 75 42
3 80 83 81
3 7 8 45
3 7 63 26
5 7 45 33 78 63
3 7 41 10
3 8 50 38
5 8 50 78 44 45
3 12 8 29
3 26 65 79
5 26 63 82 33 65
3 26 29 80
3 38 79 73
5 50 85 44 73 38
3 38 41 80
3 73 44 45
3 45 33 65
3 10 12 79
5 79 65 85 82 73
5 10 12 29 80 41
3 10 82 33
3 73 82 63
3 63 50 78
3 12 85 44
3 65 85 50
3 41 44 78
3 33 78 29
3 80 82 85
3 26 55 22
3 5 9 26
3 47 65 26
3 57 35 22
3 3 22 10
3 3 9 38
3 38 69 35
3 47 73 38
3 9 61 48
3 12 35 5
3 3 53 40
3 53 55 69
3 61 55 73
3 12 47 10
3 28 5 53
3 48 65 69
3 28 61 10
3 40 73 57
3 40 48 12
3 28 65 57
3 0 36 20
5 20 17 89 66 0
3 0 6 21
5 0 21 17 88 62
5 6 89 88 36 0
3 66 0 62
3 7 25 46
5 7 25 15 90 58
5 7 21 15 86 62
3 11 21 7
5 11 7 46 86 90
3 62 7 58
5 20 25 66 87 58
3 20 56 25
5 25 46 87 90 56
3 66 25 15
5 36 20 56 89 87
3 58 17 20
5 21 11 88 86 6
3 15 21 17
3 46 87 36
3 46 6 86
3 36 11 88
3 56 89 6
5 17 58 62 66 15
3 86 88 62
3 56 90 11
3 66 89 87
3 58 87 90
3 15 90 86
3 88 89 17
3 1 21 0
5 0 1 43 88 72
3 22 0 62
3 0 72 53
5 1 21 16 88 41
3 38 41 1
3 43 1 40
3 16 21 9
3 17 21 10
3 22 79 10
5 22 81 91 53 79
5 10 17 91 62 22
3 22 81 43
3 9 79 38
5 9 38 41 92 16
5 79 38 81 92 40
3 72 38 81
5 10 79 9 91 92
3 9 62 91
3 40 79 53
5 40 53 72 81 43
3 53 91 17
3 41 88 62
3 10 92 41
3 72 16 88
3 40 92 16
3 17 88 43
3 81 92 91
3 8 21 7
5 8 51 86 64 7
3 26 62 7
3 64 7 61
5 8 49 86 16 21
3 38 8 49
3 51 8 48
3 26 5 79
5 26 79 61 91 83
5 5 15 91 62 26
3 51 83 26
3 3 16 21
3 5 21 15
3 3 38 79
5 38 3 16 93 49
5 79 48 93 83 38
3 64 38 83
5 79 3 91 93 5
3 62 91 3
3 61 79 48
3 5 49 93
3 62 86 49
5 64 83 51 48 61
3 61 15 91
3 48 16 93
3 64 86 16
3 51 86 15
3 91 93 83
3 0 20 34
5 34 18 89 72 0
3 0 72 3
3 5 66 0
5 34 68 89 59 20
3 59 20 55
3 28 20 17
3 69 34 68
3 34 18 40
3 40 79 3
5 3 72 93 18 40
3 3 91 17
3 69 79 55
5 79 55 91 94 28
3 5 28 79
5 79 40 94 93 69
5 55 69 68 94 59
3 55 66 91
5 5 66 91 17 28
3 18 93 5
3 72 93 69
3 72 89 59
3 66 89 68
3 59 94 40
3 28 94 68
3 17 89 18
3 93 94 91
3 20 54 25
3 25 66 26
5 63 54 25 67 87
3 61 67 25
3 22 20 58
5 20 54 71 87 59
3 53 20 59
3 26 22 79
5 26 66 91 58 22
3 26 83 63
3 22 81 71
3 69 54 71
3 73 63 54
3 69 53 79
3 73 79 61
5 53 69 71 81 59
3 66 91 53
3 67 83 69
5 67 83 63 73 61
3 61 58 91
3 66 71 87
3 59 81 73
3 63 87 58
3 67 87 59
3 83 91 81
3 7 45 25
3 9 7 64
5 7 64 90 19 45
3 7 58 10
5 45 60 90 67 25
3 55 67 25
3 25 15 28
3 48 79 9
5 9 64 92 19 48
3 9 15 91
3 45 60 73
3 45 19 48
3 55 79 73
3 10 79 28
5 79 48 94 92 73
5 67 55 73 60 94
3 58 91 55
5 28 15 91 58 10
3 10 19 92
3 64 92 73
3 48 94 67
3 64 67 90
3 28 60 94
3 58 60 90
3 19 90 15
3 91 92 94
3 4 21 0
5 21 18 96 49 0
3 0 34 24
5 4 89 96 24 0
3 49 72 0
3 8 46 37
5 8 37 16 97 52
3 8 21 13
5 8 46 86 97 13
3 49 8 52
5 37 72 95 52 34
3 34 56 37
5 37 56 97 95 46
3 16 37 72
5 13 96 86 4 21
3 18 21 16
5 24 34 56 89 95
3 18 34 52
3 46 4 86
3 24 95 46
3 56 4 89
3 13 96 24
5 18 52 49 72 16
3 49 86 96
3 72 95 89
3 13 97 56
3 95 97 52
3 86 97 16
3 18 89 96
3 0 21 2
5 0 66 96 32 2
3 35 0 49
3 53 66 0
3 26 29 2
5 29 2 21 15 96
3 32 2 28
3 26 79 9
5 26 9 15 98 29
5 28 79 26 84 98
3 66 26 84
3 9 21 15
3 18 21 12
5 79 9 93 98 12
3 49 9 93
3 35 79 12
5 53 79 35 84 93
5 49 35 12 18 93
3 35 84 32
3 28 79 53
5 28 32 84 66 53
3 53 93 18
3 29 96 49
3 29 98 12
3 66 96 15
3 15 98 28
3 32 96 18
3 93 98 84
3 34 37 54
5 50 54 37 67 95
3 38 72 37
3 48 37 67
5 34 54 71 95 68
3 35 34 52
3 53 68 34
3 55 71 54
3 54 50 65
3 35 38 79
5 72 38 35 52 93
3 50 83 38
3 35 84 71
3 55 53 79
3 65 48 79
5 55 71 84 68 53
3 67 83 55
3 72 93 53
3 72 95 71
5 48 65 50 83 67
3 48 52 93
3 68 84 65
3 52 50 95
3 68 95 67
3 84 93 83
3 8 45 37
3 9 51 8
5 45 19 97 51 8
3 12 52 8
5 45 70 97 67 37
3 37 67 69
3 37 16 40
3 9 61 79
5 51 9 61 19 98
3 16 9 93
3 61 45 19
3 65 70 45
3 69 79 65
5 79 61 94 98 65
3 12 79 40
5 67 94 70 65 69
3 69 52 93
3 61 94 67
5 12 40 16 93 52
3 12 19 98
3 51 98 65
3 40 94 70
3 67 97 51
3 52 97 70
3 16 19 97
3 94 98 93
3 0 22 3
5 0 22 76 99 66
5 4 88 76 23 0
3 0 49 23
5 0 3 88 99 49
3 0 66 4
3 9 26 7
5 26 74 100 58 7
5 41 7 9 86 100
5 7 4 86 74 23
3 23 7 41
3 7 58 4
3 26 22 80
5 9 26 80 100 91
3 66 74 26
5 3 22 80 99 91
3 58 76 22
3 3 91 9
3 9 86 49
5 88 41 23 49 86
3 76 23 74
3 3 88 41
5 4 58 76 74 66
3 86 4 88
3 80 99 49
3 41 80 100
3 91 99 66
3 58 100 91
3 74 86 100
3 76 99 88
3 1 23 0
3 0 20 4
3 71 72 0
3 11 1 37
5 23 1 11 88 75
3 43 1 42
3 27 54 20
5 27 76 87 4 20
3 43 20 59
3 46 54 37
5 54 42 101 59 37
5 46 37 11 101 75
3 72 37 59
5 54 27 101 87 46
3 71 54 42
3 46 23 75
3 27 76 23
3 46 87 4
3 11 88 4
5 43 59 72 71 42
3 76 87 71
3 11 101 27
3 75 88 72
3 42 75 101
3 59 101 87
3 43 88 76
3 7 8 23
3 4 25 7
3 63 7 64
3 8 37 6
5 23 8 6 86 75
3 50 51 8
3 25 54 24
5 24 74 87 4 25
3 67 25 51
3 36 37 54
5 37 36 75 95 6
3 64 67 37
5 36 87 95 24 54
3 63 54 50
3 36 23 75
3 24 74 23
3 36 87 4
3 6 86 4
3 24 95 6
5 51 67 64 63 50
3 63 87 74
3 50 95 75
3 64 86 75
3 67 87 95
3 51 74 86
3 0 35 22
5 0 35 77 99 72
3 36 72 0
3 24 66 0
5 35 22 81 99 84
3 55 81 22
3 30 76 22
3 54 55 69
5 54 30 102 87 55
3 42 54 36
5 69 54 42 102 95
3 30 54 24
3 69 84 35
3 42 35 77
5 55 81 102 84 69
3 66 87 55
5 42 77 95 72 36
3 76 87 36
3 69 95 72
5 24 66 87 76 30
3 24 95 77
3 72 99 81
3 84 99 66
3 81 102 42
3 30 102 84
3 76 99 77
3 87 102 95
3 7 47 26
3 46 7 64
5 7 64 100 78 47
3 27 7 58
3 26 83 55
5 26 47 82 100 83
3 30 74 26
3 55 73 54
3 50 54 46
5 73 101 102 50 54
3 27 30 54
5 73 55 83 102 82
3 58 55 87
5 46 64 101 78 50
3 46 87 74
3 73 82 47
3 50 78 47
3 64 101 73
5 30 74 87 58 27
3 27 101 78
3 83 102 50
3 64 83 100
3 58 82 100
3 30 102 82
3 78 100 74
3 87 102 101
3 7 21 4
5 21 19 103 41 7
3 7 27 45
5 4 7 27 103 90
3 41 7 64
3 36 1 37
5 1 37 16 104 44
3 14 21 1
5 1 36 88 104 14
3 41 1 44
5 45 44 101 64 37
3 45 37 56
5 36 101 104 56 37
3 16 37 64
5 14 21 4 88 103
3 16 21 19
5 45 56 90 101 27
3 44 45 19
3 4 88 36
3 56 90 4
3 27 36 101
3 27 103 14
5 41 44 19 16 64
3 88 103 41
3 64 90 101
3 56 104 14
3 16 104 88
3 44 101 104
3 19 90 103
3 2 21 7
5 7 2 33 103 58
3 47 7 41
3 61 58 7
5 21 2 31 103 17
3 31 2 22
3 33 2 28
3 3 17 21
3 12 21 19
3 3 79 22
5 22 3 17 105 31
5 22 82 105 28 79
3 22 82 58
5 79 12 105 92 3
3 41 92 3
5 79 47 82 92 61
3 47 79 12
3 28 79 61
5 19 92 41 47 12
3 47 82 33
5 33 82 58 61 28
3 19 61 92
3 12 31 105
3 31 103 41
3 17 105 28
3 58 103 17
3 19 103 33
3 92 105 82
3 45 37 54
3 38 64 37
3 40 59 37
5 45 60 101 63 54
3 55 63 54
3 57 42 54
3 47 38 79
5 38 47 44 92 64
3 42 38 81
3 45 44 47
3 61 60 45
3 61 79 55
3 57 79 40
5 61 60 82 63 55
3 59 81 55
3 63 47 82
3 64 92 61
3 64 63 101
5 42 57 40 59 81
3 40 44 92
3 57 82 60
3 44 101 42
3 59 101 60
3 82 92 81
3 37 1 34
5 43 1 34 18 104
3 3 43 1
3 12 1 44
5 37 59 104 70 34
3 73 37 59
3 48 16 37
3 53 18 34
3 57 34 70
3 3 79 53
5 3 53 18 105 43
3 16 3 92
5 57 105 94 53 79
3 57 73 79
3 48 79 12
3 59 53 94
5 57 73 59 94 70
3 73 44 92
5 12 48 16 92 44
3 48 70 94
3 12 105 18
3 57 43 105
3 59 104 43
3 18 104 16
3 44 70 104
3 92 105 94
3 0 2 23
3 6 34 0
5 23 0 6 96 77
3 71 0 66
3 2 25 13
3 54 46 25
5 54 30 106 68 25
5 13 106 74 46 25
3 68 25 66
5 2 23 74 96 13
3 32 2 30
3 34 54 39
5 34 39 77 95 6
3 32 68 34
5 54 46 95 106 39
3 30 54 71
3 46 74 23
3 39 77 23
3 46 6 95
3 13 96 6
5 32 68 66 71 30
3 71 95 77
3 13 106 39
3 74 96 66
3 74 106 30
3 68 95 106
3 77 96 32
3 25 51 26
3 25 54 45
5 45 25 51 106 33
3 28 25 68
3 26 47 79
5 26 51 98 33 47
3 30 26 84
5 45 54 50 106 70
3 69 50 54
3 54 30 57
3 47 33 45
3 48 45 70
5 47 85 98 48 79
3 69 48 79
3 57 28 79
3 50 47 85
5 48 70 85 50 69
3 69 68 84
3 51 98 48
3 50 106 51
5 57 30 84 68 28
3 28 33 98
3 70 85 57
3 30 106 33
3 68 106 70
3 84 98 85
3 23 0 62
3 5 35 0
5 0 62 99 96 5
3 6 72 0
3 9 38 8
5 8 38 75 107 52
5 9 86 107 29 8
3 29 8 23
3 6 8 52
5 80 38 9 93 107
3 38 80 35
3 72 38 75
3 5 93 9
3 9 86 62
5 23 29 96 86 62
3 75 23 77
5 35 5 93 99 80
3 52 35 77
3 5 96 29
5 52 77 75 72 6
3 86 6 96
3 80 99 62
3 72 93 99
3 80 107 29
3 52 107 93
3 86 107 75
3 77 96 99
3 38 8 47
3 46 8 51
5 8 47 78 107 51
3 39 8 52
3 63 54 46
3 54 69 65
5 65 106 102 63 54
3 42 54 39
5 47 38 83 107 85
3 38 83 69
3 42 38 75
5 51 106 78 63 46
3 75 95 46
3 47 78 63
3 47 85 65
5 65 85 102 83 69
3 52 95 69
3 63 102 83
3 65 106 51
5 42 39 52 95 75
3 39 78 106
3 42 102 85
3 83 107 51
3 85 107 52
3 78 107 75
3 95 102 106
3 3 53 0
5 71 0 53 89 99
3 0 71 36
3 0 49 6
3 37 38 69
5 38 37 16 108 75
3 36 37 59
5 37 59 108 95 69
3 6 37 16
3 38 81 3
5 81 38 69 93 108
3 49 75 38
5 3 81 99 93 53
3 3 88 16
3 53 93 69
3 53 89 59
5 36 59 89 95 71
3 36 88 75
3 71 69 95
5 16 88 75 49 6
3 6 95 89
3 81 71 99
3 49 99 93
3 59 81 108
3 93 108 16
3 75 108 95
3 88 99 89
3 9 7 61
3 46 7 63
5 61 7 63 100 90
3 11 41 7
3 37 73 38
3 46 67 37
5 37 67 108 101 73
3 16 37 11
3 9 83 38
5 73 38 83 108 92
3 41 38 75
5 61 9 83 100 92
3 16 86 9
5 63 101 90 67 46
3 75 86 46
3 73 61 92
3 61 90 67
3 73 63 101
5 16 86 75 41 11
3 11 101 90
3 83 100 63
3 41 100 92
3 67 83 108
3 16 92 108
3 101 108 75
3 90 100 86
3 8 21 6
5 29 8 21 19 109
3 39 45 8
5 6 8 39 109 97
3 29 8 51
3 24 2 25
5 25 2 33 110 15
3 25 45 56
5 25 24 106 110 56
3 51 15 25
3 14 2 21
5 2 24 96 110 14
3 29 2 33
5 6 21 14 109 96
3 15 19 21
5 45 56 97 106 39
3 33 19 45
3 24 6 96
3 6 97 56
3 39 106 24
3 39 14 109
3 56 110 14
5 15 51 29 33 19
3 29 96 109
3 51 97 106
3 15 110 96
3 33 106 110
3 19 109 97
3 8 21 1
5 1 8 52 109 44
3 47 29 8
3 52 8 48
5 21 1 31 109 18
3 31 1 35
3 40 44 1
3 5 21 18
3 10 21 19
3 35 79 5
5 79 35 85 105 40
5 35 5 18 105 31
3 52 85 35
3 47 79 10
5 5 79 10 105 98
3 40 48 79
5 19 98 29 47 10
3 44 47 85
3 29 98 5
3 10 105 31
5 40 48 52 85 44
3 48 98 19
3 40 105 18
3 31 109 29
3 18 109 52
3 19 109 44
3 85 98 105
3 20 2 25
5 25 68 110 60 20
3 61 15 25
3 68 25 65
5 2 32 110 17 20
3 5 32 2
3 2 33 10
3 53 17 20
3 57 60 20
3 53 79 5
3 10 79 61
3 57 79 65
5 17 53 5 32 105
3 68 53 94
3 15 98 5
5 10 33 98 15 61
3 60 61 94
3 17 105 10
5 60 94 68 65 57
3 65 98 33
3 57 32 105
3 17 110 15
3 68 110 32
3 60 110 33
3 98 105 94
3 2 23 7
5 11 103 78 23 7
3 7 11 45
3 58 7 63
3 14 2 20
5 2 23 76 103 14
3 30 2 33
3 54 36 20
5 54 20 60 111 30
5 14 20 36 76 111
3 60 20 58
3 39 54 45
5 54 39 111 101 36
3 30 54 63
3 36 76 23
3 23 78 39
5 45 39 78 101 11
3 33 45 60
3 11 101 36
3 11 103 14
5 58 63 30 33 60
3 63 101 78
3 39 111 14
3 58 103 76
3 30 111 76
3 33 103 78
3 60 101 111
3 54 20 34
5 20 43 111 32 34
3 22 43 20
3 28 20 60
5 54 42 111 70 34
3 34 32 35
3 34 70 40
3 22 79 35
5 32 105 43 22 35
3 30 82 22
3 73 42 54
3 65 30 54
3 42 85 35
3 73 40 79
3 65 79 28
5 42 73 40 70 85
3 60 82 73
5 30 65 28 60 82
3 65 70 85
3 43 40 105
3 28 32 105
3 42 111 43
3 32 111 30
3 70 111 60
3 82 105 85
3 23 7 62
3 10 47 7
5 7 10 103 100 62
3 7 64 11
3 3 38 1
5 38 75 112 44 1
3 31 1 23
5 1 3 88 112 31
3 11 1 44
5 38 3 92 112 80
3 47 80 38
3 64 75 38
5 23 31 103 88 62
3 75 78 23
3 62 3 88
3 10 92 3
5 10 47 80 100 92
3 44 47 78
3 80 100 62
3 31 103 10
5 11 64 75 78 44
3 11 103 88
3 64 92 100
3 31 80 112
3 44 112 92
3 75 88 112
3 78 100 103
3 35 1 38
5 35 1 43 112 77
3 43 1 36
3 39 1 44
3 54 71 36
5 57 111 102 71 54
3 57 73 54
3 39 54 50
5 81 38 35 85 112
3 38 81 73
3 38 75 50
3 71 35 77
3 57 35 85
5 43 111 77 71 36
3 75 101 36
3 71 102 81
5 81 73 57 85 102
3 73 44 101
5 39 44 101 75 50
3 85 102 50
3 39 111 77
3 43 57 111
3 43 81 112
3 85 112 44
3 77 112 75
3 101 102 111
3 0 62 4
3 0 5 53
3 0 71 24
3 25 55 26
5 25 15 113 74 26
5 25 68 113 87 55
3 4 15 25
3 25 68 24
5 26 84 113 91 55
3 5 84 26
3 62 26 74
3 53 91 55
3 71 87 55
5 4 15 96 74 62
3 89 87 4
5 91 53 5 84 99
3 53 89 68
3 15 96 5
3 62 99 91
5 89 68 24 71 87
3 71 99 84
3 24 96 74
3 15 113 91
3 74 87 113
3 68 113 84
3 89 99 96
3 25 61 55
3 51 25 46
5 25 51 113 90 61
3 56 68 25
3 46 37 64
3 48 69 37
5 64 37 48 97 108
3 56 37 59
3 55 83 69
5 55 61 94 113 83
3 55 87 59
5 51 97 90 64 46
3 46 95 87
5 83 69 48 94 108
3 69 95 68
3 48 61 94
3 61 90 64
3 51 48 97
3 83 108 64
3 83 113 51
5 59 87 95 68 56
3 56 97 90
3 59 94 108
3 68 113 94
3 87 113 90
3 97 108 95
3 8 48 9
3 46 8 50
5 8 48 97 107 50
3 13 29 8
3 26 65 25
3 46 67 25
5 65 106 113 67 25
3 15 25 13
3 9 83 26
5 83 26 65 98 113
3 29 74 26
5 48 9 83 107 98
3 9 86 15
5 67 46 50 106 97
3 46 86 74
3 48 98 65
3 48 97 67
3 65 106 50
5 15 13 29 74 86
3 97 106 13
3 83 50 107
3 98 107 29
3 83 113 67
3 15 113 98
3 106 113 74
3 97 107 86
3 1 21 11
3 39 34 1
5 1 11 104 109 39
3 31 1 43
3 27 2 20
3 2 21 13
5 13 110 103 27 2
3 32 2 31
3 56 20 34
5 27 111 110 56 20
3 43 17 20
5 21 11 103 109 13
3 17 21 18
5 56 34 39 111 104
3 32 18 34
3 27 11 103
3 11 104 56
3 39 111 27
3 39 109 13
3 13 110 56
5 31 32 18 17 43
3 31 103 109
3 43 111 104
3 17 110 103
3 32 111 110
3 104 109 18
3 8 49 23
5 13 8 23 78 109
3 12 8 47
5 49 8 12 109 107
3 13 51 8
3 2 26 5
5 2 33 114 74 26
3 23 31 2
5 5 96 114 31 2
3 13 33 2
3 26 47 80
5 26 5 98 114 80
3 51 26 74
5 49 23 31 109 96
3 74 23 78
5 47 12 98 107 80
3 47 78 33
3 49 5 96
3 12 98 5
3 80 49 107
3 31 109 12
5 33 78 74 51 13
3 13 109 96
3 98 107 51
3 80 114 31
3 96 114 74
3 98 114 33
3 78 109 107
3 22 26 2
5 2 32 114 76 22
3 32 2 24
3 27 33 2
5 26 22 82 114 84
3 63 74 26
3 26 84 65
3 71 76 22
3 57 82 22
3 54 71 24
5 54 27 111 106 24
3 27 63 54
3 57 65 54
5 32 111 76 71 24
3 84 102 71
3 74 24 106
5 27 63 74 106 33
3 82 102 63
3 76 27 111
5 84 65 57 82 102
3 33 106 65
3 32 111 57
3 74 76 114
3 32 114 84
3 33 114 82
3 102 106 111
3 1 23 8
3 13 45 8
3 52 8 50
3 14 34 1
5 1 23 77 109 14
3 42 1 44
3 34 24 54
5 34 24 77 111 14
3 52 34 70
3 27 54 45
3 50 54 42
3 23 77 24
3 23 78 27
5 13 106 78 27 45
3 44 70 45
3 24 106 13
3 14 111 27
3 14 13 109
5 42 50 52 70 44
3 50 78 106
3 77 111 42
3 77 109 52
3 78 109 44
3 70 106 111
3 4 62 7
3 10 61 7
3 27 7 63
3 22 20 55
5 22 76 115 17 20
5 55 87 115 60 20
3 4 20 17
3 27 20 60
5 22 82 115 91 55
3 62 22 76
3 10 82 22
3 55 91 61
3 55 87 63
5 4 62 76 103 17
3 87 4 90
3 62 100 91
5 61 91 100 82 10
3 60 61 90
3 17 103 10
5 60 90 87 63 27
3 82 100 63
3 27 103 76
3 91 115 17
3 76 115 87
3 60 115 82
3 103 100 90
3 55 20 53
5 53 20 43 115 89
3 43 20 36
3 60 20 56
3 37 72 36
3 37 73 40
5 40 104 108 72 37
3 56 67 37
5 55 81 115 94 53
3 73 81 55
3 67 87 55
3 72 53 89
3 40 53 94
5 36 72 89 104 43
3 36 101 87
5 81 73 40 94 108
3 73 60 101
3 72 108 81
3 43 104 40
5 56 67 87 101 60
3 67 108 94
3 56 104 89
3 43 115 81
3 60 94 115
3 89 115 87
3 104 108 101
3 51 26 9
3 63 55 26
5 63 26 51 113 100
3 80 84 26
3 38 64 9
3 50 69 38
5 38 50 107 108 64
3 81 38 80
5 64 9 51 107 100
3 91 93 9
3 67 69 55
5 67 113 102 63 55
3 81 91 55
5 69 67 108 102 50
3 69 93 84
3 50 63 102
3 63 100 64
3 51 50 107
3 64 108 67
3 51 67 113
5 80 84 93 91 81
3 80 107 100
3 102 108 81
3 91 113 100
3 84 113 102
3 93 107 108
3 1 40 3
3 36 42 1
5 40 1 42 112 104
3 14 1 31
3 22 20 57
3 59 20 36
5 57 20 59 115 111
3 17 20 14
3 3 22 81
5 57 105 115 81 22
3 22 76 31
5 40 3 81 112 105
3 3 88 17
5 36 42 111 104 59
3 76 88 36
3 40 105 57
3 59 104 40
3 57 111 42
5 14 17 88 76 31
3 104 111 14
3 81 42 112
3 31 105 112
3 81 59 115
3 17 105 115
3 76 115 111
3 88 112 104
3 41 1 23
3 12 35 1
5 12 109 112 41 1
3 14 1 43
3 2 22 10
3 23 29 2
5 2 10 103 114 29
3 2 32 14
3 35 80 22
5 80 22 10 105 114
3 43 76 22
5 23 29 109 103 41
3 77 23 76
5 35 80 112 105 12
3 35 77 32
3 12 105 10
3 41 10 103
3 12 109 29
3 41 112 80
5 14 32 77 76 43
3 103 109 14
3 80 114 29
3 105 112 43
3 32 105 114
3 103 114 76
3 77 112 109
5 13 110 90 4 25
3 25 66 4
3 25 61 28
3 13 25 51
5 25 66 113 110 28
3 9 21 5
5 21 9 86 116 19
3 17 21 4
5 5 96 116 17 21
3 13 19 21
5 9 5 98 116 91
3 61 91 9
3 51 86 9
5 66 4 17 110 96
3 86 90 4
3 5 96 66
3 28 5 98
5 28 61 91 113 98
3 61 90 19
5 90 19 13 51 86
3 13 110 96
3 91 66 113
3 17 28 110
3 98 113 51
3 91 116 17
3 86 96 116
3 19 98 116
3 90 113 110
5 6 37 11 104 97
3 6 37 72
3 11 37 64
3 37 40 48
3 9 21 3
5 3 88 116 18 21
3 18 21 6
3 11 19 21
5 9 3 92 116 93
3 48 93 9
3 64 9 86
3 72 88 3
3 3 92 40
5 6 72 88 104 18
3 86 97 6
5 11 19 97 86 64
3 11 104 88
5 40 48 93 108 92
3 19 97 48
3 93 108 72
3 40 104 18
3 92 108 64
3 18 116 93
3 86 88 116
3 19 92 116
3 108 97 104
3 25 20 4
3 25 45 13
3 68 25 67
3 14 34 20
5 14 20 4 89 110
3 60 20 59
3 37 6 34
3 37 45 11
3 67 37 59
5 34 14 104 89 6
3 70 34 68
5 13 97 90 11 45
3 70 45 60
3 4 89 6
3 11 90 4
3 13 97 6
3 14 11 104
3 14 13 110
5 59 67 68 70 60
3 90 97 67
3 59 104 89
3 68 110 89
3 90 110 60
3 97 104 70
3 8 49 6
3 12 48 8
3 8 50 39
3 34 69 35
5 18 34 35 77 117
5 69 95 117 70 34
3 6 18 34
3 34 70 39
5 93 69 35 85 117
3 49 77 35
3 35 85 12
3 48 93 69
3 69 95 50
5 18 109 77 49 6
3 95 97 6
3 49 107 93
5 48 93 107 85 12
3 70 97 48
3 18 109 12
5 39 70 97 95 50
3 85 107 50
3 77 109 39
3 18 93 117
3 77 117 95
3 70 85 117
3 109 107 97
3 25 66 24
3 28 25 65
3 56 67 25
3 53 34 69
5 34 32 117 89 53
3 24 34 32
3 34 70 56
5 84 69 53 94 117
3 66 53 89
3 28 53 94
3 65 84 69
3 67 69 95
5 32 110 89 66 24
3 95 24 106
5 28 65 84 113 94
3 70 106 65
3 66 113 84
3 32 110 28
5 67 56 70 106 95
3 94 67 113
3 56 110 89
3 32 117 84
3 70 94 117
3 95 117 89
3 106 110 113
3 43 3 22
3 55 71 22
5 71 22 43 115 99
3 80 82 22
3 3 72 38
3 38 42 73
5 38 42 112 108 72
3 80 38 83
5 72 3 43 112 99
3 91 3 92
5 55 59 115 102 71
3 59 73 55
3 55 91 83
3 71 99 72
3 71 102 42
5 59 73 42 102 108
3 82 92 73
3 59 72 108
3 42 112 43
3 43 59 115
5 80 82 92 91 83
3 102 108 83
3 99 112 80
3 91 99 115
3 102 115 82
3 92 112 108
3 2 28 5
3 30 2 24
5 2 28 110 114 30
3 14 2 31
3 35 57 34
3 68 34 24
5 34 57 111 117 68
3 14 18 34
3 5 35 84
5 35 84 117 105 57
3 31 35 77
5 5 84 114 105 28
3 5 96 18
5 24 68 110 111 30
3 77 96 24
3 28 57 105
3 28 110 68
3 57 111 30
5 31 14 18 96 77
3 14 110 111
3 84 30 114
3 31 105 114
3 84 117 68
3 105 117 18
3 77 111 117
3 96 114 110
3 4 20 58
3 28 53 20
5 20 28 110 115 58
3 14 43 20
3 10 21 3
3 15 21 4
5 21 15 116 103 10
3 18 21 14
3 3 91 53
5 10 105 116 91 3
3 43 3 88
5 15 4 58 103 110
3 89 4 88
5 28 105 115 91 53
3 18 53 89
3 28 10 105
3 58 10 103
3 15 28 110
5 88 43 14 18 89
3 14 103 110
3 58 115 91
3 91 15 116
3 43 115 105
3 18 116 105
3 88 116 103
3 115 110 89
3 62 66 26
5 62 26 29 114 100
3 26 30 63
5 30 114 113 66 26
3 26 51 29
3 24 46 23
5 86 46 23 78 118
3 62 23 76
5 23 24 96 118 76
3 29 23 78
5 24 106 118 87 46
3 46 63 87
3 46 51 86
5 62 76 114 96 66
3 86 62 100
3 24 66 96
3 24 106 30
5 30 63 87 113 106
3 78 100 63
3 87 66 113
5 86 51 29 78 100
3 96 29 114
3 51 106 113
3 76 114 30
3 87 118 76
3 96 118 86
3 106 118 78
3 100 114 113
3 38 72 49
5 41 38 49 107 112
3 41 38 64
3 38 50 42
3 36 46 23
5 23 36 88 118 77
3 49 77 23
3 23 78 41
5 46 95 118 101 36
3 46 95 50
3 64 86 46
3 72 88 36
3 36 101 42
5 72 88 112 77 49
3 86 49 107
3 95 108 72
5 64 41 78 107 86
3 88 112 41
5 42 50 95 108 101
3 78 107 50
3 101 64 108
3 42 112 77
3 86 118 88
3 77 95 118
3 101 118 78
3 108 107 112
3 26 62 22
3 26 47 29
3 83 26 84
3 31 35 22
5 31 22 62 99 114
3 82 22 81
3 38 35 49
3 41 47 38
3 81 38 83
5 35 31 112 99 49
3 85 35 84
5 29 107 100 41 47
3 85 47 82
3 49 99 62
3 62 100 41
3 49 107 29
3 31 112 41
3 31 29 114
5 81 83 84 85 82
3 83 107 100
3 81 112 99
3 84 99 114
3 82 114 100
3 107 112 85
3 1 41 11
3 1 40 12
3 39 42 1
3 45 47 73
5 47 45 19 119 78
5 73 101 119 70 45
3 11 45 19
3 39 45 70
5 47 85 119 92 73
3 12 85 47
3 41 47 78
3 73 92 40
3 42 73 101
5 41 11 19 109 78
3 101 104 11
5 92 40 12 85 112
3 12 109 19
3 92 41 112
3 70 40 104
5 42 101 104 70 39
3 39 109 78
3 85 112 42
3 92 119 19
3 85 119 70
3 78 101 119
3 109 112 104
3 27 58 20
3 20 57 28
3 56 20 59
3 45 73 61
5 33 45 61 90 119
3 33 45 27
3 56 70 45
5 73 61 94 119 82
3 28 94 61
3 58 61 90
3 73 82 57
3 59 101 73
5 27 33 110 90 58
3 27 111 101
5 57 28 94 115 82
3 33 110 28
3 70 57 111
3 82 115 58
5 59 101 111 70 56
3 90 110 56
3 94 59 115
3 33 119 82
3 70 94 119
3 101 119 90
3 111 110 115
3 5 66 26
3 30 65 26
3 80 26 83
3 32 5 35
3 35 71 69
5 35 71 99 117 32
3 35 85 80
5 32 5 66 99 114
3 5 98 93
5 68 117 102 71 69
3 68 69 65
3 69 93 83
3 66 71 99
3 30 71 102
5 65 30 102 113 68
3 65 98 85
3 68 66 113
3 30 114 32
5 80 85 98 93 83
3 102 113 83
3 80 114 99
3 32 68 117
3 93 99 117
3 85 102 117
3 98 114 113
3 2 28 10
3 30 2 27
3 13 29 2
3 47 65 45
3 60 45 27
5 45 65 106 119 60
3 13 19 45
3 47 82 10
5 65 98 119 82 47
3 29 47 78
5 10 28 98 114 82
3 19 10 103
5 27 60 110 106 30
3 27 78 103
3 28 98 65
3 65 106 30
5 13 19 103 78 29
3 106 110 13
3 60 110 28
3 98 29 114
3 82 30 114
3 82 119 60
3 98 119 19
3 78 106 119
3 103 110 114
3 5 12 21
3 16 21 6
5 16 21 12 109 116
3 14 17 21
3 40 53 34
3 6 52 34
5 34 52 117 104 40
3 14 34 32
3 5 53 93
5 53 40 105 117 93
3 53 89 17
5 93 5 12 105 116
3 5 96 32
5 16 104 109 52 6
3 89 96 6
3 40 105 12
3 52 109 12
3 40 104 16
5 17 14 32 96 89
3 104 109 14
3 52 117 93
3 93 16 116
3 17 116 105
3 32 105 117
3 89 117 104
3 96 116 109
3 58 62 22
3 30 71 22
5 22 30 114 115 58
3 31 22 43
3 27 36 23
3 62 74 23
5 27 103 118 74 23
3 23 77 31
3 36 87 71
5 27 111 118 87 36
3 36 88 43
5 62 74 114 103 58
3 88 62 99
5 71 30 111 115 87
3 77 71 99
3 27 103 58
3 27 111 30
3 87 115 58
3 30 114 74
5 88 43 31 77 99
3 31 114 103
3 111 115 43
3 87 74 118
3 77 111 118
3 88 103 118
3 115 114 99
3 49 62 9
5 15 116 100 62 9
5 9 16 116 107 49
3 9 16 64
3 9 15 51
3 4 46 6
5 46 74 118 90 4
5 6 97 118 75 46
3 46 64 75
3 51 74 46
5 4 6 96 118 88
3 62 4 88
3 15 4 90
3 49 6 96
3 16 6 97
5 96 49 62 88 116
3 74 100 62
3 49 107 75
5 16 97 107 75 64
3 64 90 100
5 15 51 74 100 90
3 51 107 97
3 96 116 15
3 88 116 16
3 96 118 74
3 88 118 75
3 90 118 97
3 107 116 100
3 66 71 55
3 55 63 58
5 58 55 66 113 115
3 55 67 59
3 4 46 36
3 46 63 74
3 46 67 95
5 4 36 76 118 89
3 66 4 89
3 4 90 58
3 36 71 76
3 36 101 59
5 66 71 76 115 89
3 71 102 95
5 63 74 113 90 58
3 102 63 101
3 74 66 113
3 58 115 76
5 59 67 95 102 101
3 67 113 90
3 89 59 115
3 74 118 76
3 95 89 118
3 101 90 118
3 113 115 102
3 3 62 9
3 15 61 9
3 9 93 83
3 17 3 53
5 17 116 99 62 3
3 81 3 92
3 55 66 53
3 55 61 58
3 81 83 55
5 53 17 115 99 66
3 93 94 53
3 66 99 62
3 62 100 58
5 61 58 100 113 15
3 94 92 61
3 66 113 15
3 17 58 115
3 17 116 15
5 83 93 94 92 81
3 83 113 100
3 81 115 99
3 93 116 99
3 92 116 100
3 94 115 113
3 34 40 57
3 39 52 34
3 56 68 34
3 48 65 45
5 48 97 119 44 45
3 44 45 39
3 56 45 60
5 85 65 48 94 119
3 40 94 48
3 52 48 97
3 65 85 57
3 65 106 68
5 85 57 40 94 117
3 44 104 40
5 52 39 44 104 97
3 39 106 111
3 60 57 111
5 56 68 106 111 60
3 56 97 104
3 85 52 117
3 85 44 119
3 94 117 68
3 60 119 94
3 106 119 97
3 104 117 111
3 10 58 22
3 22 30 57
3 80 81 22
3 33 47 10
3 47 73 63
5 63 100 119 33 47
3 80 85 47
5 33 10 58 100 114
3 10 105 92
5 73 60 119 102 63
3 60 73 57
3 81 73 92
3 58 63 100
3 63 102 30
5 60 57 30 102 115
3 85 105 57
3 58 115 60
3 33 114 30
5 92 81 80 85 105
3 100 114 80
3 81 115 102
3 33 119 60
3 92 119 100
3 102 119 85
3 105 114 115
3 9 49 5
3 16 48 9
3 9 83 91
3 18 53 5
3 53 69 72
5 53 72 99 117 18
3 91 94 53
5 18 5 49 99 116
3 84 98 5
3 48 69 52
5 69 72 108 117 52
3 84 69 83
3 49 72 99
3 49 107 52
5 52 107 108 16 48
3 48 98 94
3 72 108 16
3 18 52 117
5 91 83 84 98 94
3 83 108 107
3 16 116 18
3 99 116 91
3 84 99 117
3 98 116 107
3 108 117 94
3 12 21 10
3 11 21 16
3 13 21 15
3 48 61 45
3 11 45 44
3 33 45 13
3 10 92 61
5 92 61 48 98 119
3 61 90 15
5 12 98 116 92 10
3 10 103 33
5 11 44 109 97 16
3 90 103 11
3 48 98 12
3 48 97 16
3 12 109 44
5 15 90 103 33 13
3 97 13 109
3 98 116 15
3 92 116 16
3 44 119 92
3 98 119 33
3 97 119 90
3 103 116 109
3 24 39 23
3 23 75 49
5 23 39 109 118 75
3 31 76 23
3 42 71 35
3 52 35 49
5 52 35 42 112 117
3 32 35 31
3 24 95 71
5 42 71 95 117 111
3 76 71 99
5 24 39 111 118 95
3 32 96 24
5 52 49 75 112 109
3 49 96 99
3 39 111 42
3 39 52 109
3 75 112 42
5 31 76 99 96 32
3 31 112 109
3 95 52 117
3 111 117 32
3 95 118 75
3 111 118 76
3 109 118 96
3 99 117 112
3 3 62 41
3 16 72 3
5 41 3 16 116 112
3 17 43 3
3 11 36 4
3 4 86 62
5 4 11 103 118 86
3 4 89 17
5 36 75 118 104 11
3 72 75 36
3 36 43 76
5 41 103 116 86 62
3 62 99 76
3 41 11 103
3 11 104 16
5 75 72 16 104 112
3 72 89 99
3 75 112 41
5 17 89 99 76 43
3 43 104 112
3 86 16 116
3 17 116 103
3 75 118 86
3 103 118 76
3 104 118 89
3 112 116 99
3 46 24 6
3 46 50 75
3 67 87 46
3 72 71 69
3 52 50 69
3 67 69 68
5 77 24 6 89 118
3 72 89 6
3 6 97 52
3 71 77 24
5 72 89 117 77 71
3 71 102 87
3 68 24 106
3 75 72 108
5 50 75 108 97 52
3 50 102 106
5 67 87 102 106 68
3 97 108 67
3 77 52 117
3 68 117 89
3 77 75 118
3 87 118 89
3 106 118 97
3 102 117 108
3 12 52 35
3 42 57 35
3 80 35 84
3 44 47 12
3 47 50 65
5 50 107 119 44 47
3 82 47 80
5 44 12 52 107 112
3 12 98 105
5 65 70 119 102 50
3 70 57 65
3 84 65 98
3 42 50 102
3 52 107 50
5 42 57 70 117 102
3 82 57 105
3 44 112 42
3 70 117 52
5 80 84 98 105 82
3 107 112 80
3 70 44 119
3 84 102 117
3 102 119 82
3 98 107 119
3 105 117 112
3 3 41 10
3 16 40 3
3 81 91 3
3 10 61 19
3 64 73 61
5 19 61 64 100 119
3 91 94 61
5 19 116 100 41 10
3 10 105 82
3 40 44 73
5 64 108 119 44 73
3 82 73 81
3 41 64 100
3 44 112 41
5 16 40 44 112 108
3 94 40 105
3 64 108 16
3 19 16 116
3 44 119 19
5 82 105 94 91 81
3 81 108 112
3 91 116 100
3 82 119 100
3 94 108 119
3 105 116 112
3 23 27 39
3 41 75 23
3 29 74 23
3 50 63 47
3 41 47 44
3 33 47 29
3 27 63 101
5 50 63 101 119 106
3 63 100 74
5 106 39 27 101 118
3 27 103 33
5 41 44 109 107 75
3 41 103 100
3 50 106 39
3 75 107 50
3 39 44 109
5 74 29 33 103 100
3 29 109 107
3 74 118 106
3 101 44 119
3 101 118 75
3 33 106 119
3 103 118 109
3 100 119 107
3 4 6 56
3 4 87 66
5 56 110 118 87 4
3 4 88 17
3 59 72 53
3 66 53 68
5 59 53 68 117 115
3 17 53 18
3 72 95 6
5 95 6 56 104 118
3 6 96 18
5 95 72 59 104 117
3 88 99 72
5 66 68 110 115 87
3 66 99 96
3 59 104 56
3 56 110 68
3 87 115 59
5 17 88 99 96 18
3 17 110 115
3 95 117 68
3 18 104 117
3 95 118 87
3 88 104 118
3 110 118 96
3 115 117 99
3 29 5 49
3 5 66 15
5 5 15 116 114 29
3 18 32 5
3 6 24 13
3 6 49 86
5 86 6 13 109 118
3 6 18 89
5 13 110 118 74 24
3 24 74 66
3 24 32 77
5 86 49 29 109 116
3 49 77 99
3 29 13 109
3 13 110 15
5 74 66 15 110 114
3 89 99 66
3 29 114 74
3 15 116 86
3 86 74 118
5 32 18 89 99 77
3 110 114 32
3 18 116 109
3 77 109 118
3 89 110 118
3 99 114 116
3 36 27 11
3 42 75 36
3 59 87 36
3 63 73 64
3 44 42 73
3 59 73 60
5 27 78 118 90 11
3 11 90 64
3 11 104 44
3 63 78 27
5 78 63 64 90 119
3 63 102 87
3 60 27 111
3 75 108 64
5 42 75 108 104 44
3 102 111 42
5 60 111 102 87 59
3 104 108 59
3 78 119 44
3 78 118 75
3 60 119 90
3 90 118 87
3 108 119 102
3 111 118 104
3 53 59 40
3 28 53 68
3 91 93 53
3 67 48 61
3 28 60 61
5 60 61 67 113 119
3 91 61 92
3 70 48 40
5 67 48 70 119 108
3 93 48 98
5 40 59 108 117 70
3 92 40 105
5 28 68 113 115 60
3 28 98 105
3 59 67 108
3 67 113 68
3 60 59 115
3 68 117 70
5 92 105 98 93 91
3 91 113 115
3 70 119 60
3 108 117 93
3 92 108 119
3 113 119 98
3 105 115 117
3 12 29 5
3 15 28 5
3 84 93 5
3 12 48 19
3 48 65 51
5 48 51 107 119 19
3 93 94 48
5 12 19 116 107 29
3 85 105 12
3 33 65 28
5 65 51 113 119 33
3 84 85 65
5 28 33 114 113 15
3 28 105 94
3 29 51 107
3 29 114 33
3 15 51 113
3 15 116 19
3 33 119 19
5 94 93 84 85 105
3 84 113 114
3 93 116 107
3 85 119 107
3 94 119 113
3 114 116 105
3 4 11 56
3 4 87 58
3 15 86 4
3 61 67 64
3 58 61 60
3 19 61 15
3 64 101 11
5 56 11 101 118 97
3 19 103 11
5 64 101 119 97 67
3 86 64 100
5 60 110 113 87 58
3 100 103 58
3 56 67 97
3 67 113 87
3 56 60 110
5 19 103 100 86 15
3 15 113 110
3 97 118 86
3 60 119 101
3 87 118 101
3 97 119 19
3 110 118 103
3 100 113 119
3 49 80 62
3 66 91 62
5 62 91 116 114 80
3 62 76 88
3 72 81 71
3 71 84 66
5 81 71 84 117 115
3 76 71 77
3 49 93 72
5 93 49 80 112 116
3 49 77 96
5 72 93 117 112 81
3 88 72 89
5 66 91 115 114 84
3 89 96 66
3 81 112 80
3 80 84 114
3 91 81 115
3 93 116 91
5 89 96 77 76 88
3 76 114 115
3 93 117 84
3 77 112 117
3 112 116 88
3 89 115 117
3 114 116 96
3 31 41 10
3 17 10 58
5 10 17 116 114 31
3 19 33 10
3 11 27 14
3 41 88 11
5 14 11 88 118 109
3 19 90 11
5 27 76 118 110 14
3 27 58 76
3 33 78 27
5 41 31 109 116 88
3 41 100 78
3 31 109 14
3 14 110 17
5 58 76 114 110 17
3 90 100 58
3 31 114 76
3 88 116 17
3 88 118 76
5 19 90 100 78 33
3 33 110 114
3 109 116 19
3 109 118 78
3 110 118 90
3 100 116 114
3 13 24 39
3 24 30 74
3 24 95 68
3 51 65 50
3 30 65 33
3 68 70 65
5 39 78 118 97 13
3 13 97 51
3 33 13 110
3 39 50 78
5 51 97 119 78 50
3 50 102 95
3 70 111 39
3 74 113 51
5 74 30 33 110 113
3 102 111 30
3 78 118 74
5 70 68 95 102 111
3 68 110 113
3 78 119 33
3 70 119 97
3 95 118 97
3 102 113 119
3 111 118 110
3 71 42 81
3 30 84 71
3 71 95 87
3 63 50 83
3 30 82 63
5 83 63 82 119 113
3 87 63 101
3 50 85 42
5 83 50 85 119 108
3 50 106 95
5 85 42 81 108 117
3 101 111 42
5 30 84 113 115 82
3 106 111 30
3 83 108 81
3 83 113 84
3 82 115 81
3 85 117 84
5 101 111 106 95 87
3 87 113 115
3 85 119 82
3 108 117 95
3 108 119 101
3 106 113 119
3 111 117 115
3 12 31 10
3 17 28 10
3 82 92 10
3 12 18 40
5 12 31 112 116 18
3 85 98 12
3 43 40 57
5 43 112 117 18 40
3 40 94 92
3 28 32 57
5 28 17 115 114 32
3 94 98 28
5 32 57 43 115 117
3 57 82 85
3 43 112 31
3 31 32 114
3 17 115 43
3 17 116 18
3 18 117 32
5 92 82 85 98 94
3 82 115 114
3 92 116 112
3 85 117 112
3 98 116 114
3 94 115 117
3 13 56 6
3 6 95 52
3 6 16 86
3 48 67 51
3 52 70 48
3 16 48 19
3 13 51 106
5 56 90 118 106 13
3 19 13 109
5 90 67 51 106 119
3 67 90 56
3 95 108 67
3 51 107 86
3 70 104 56
5 70 104 108 95 52
3 52 109 107
5 16 19 109 107 86
3 16 108 104
3 86 118 90
3 19 90 119
3 70 106 119
3 106 118 95
3 109 104 118
3 108 119 107
3 62 41 80
3 58 91 62
3 62 86 74
3 64 83 63
3 58 63 82
3 74 63 78
3 41 64 92
5 41 80 107 116 92
3 41 103 78
5 83 107 119 92 64
3 86 64 90
5 82 114 113 91 58
3 58 103 90
3 80 83 107
3 83 113 91
3 80 82 114
5 90 103 78 74 86
3 74 113 114
3 91 116 92
3 107 116 86
3 92 119 82
3 78 107 119
3 90 119 113
3 103 116 114
3 29 12 31
3 12 18 52
3 19 44 12
3 13 39 14
5 14 13 96 118 103
3 13 96 29
3 19 97 13
5 39 14 104 118 77
3 39 77 52
3 39 78 44
3 31 103 14
3 14 104 18
5 29 31 103 116 96
3 78 107 29
3 31 77 112
5 52 77 112 104 18
3 97 107 52
5 19 97 107 78 44
3 104 112 44
3 96 18 116
3 19 103 116
3 96 77 118
3 78 118 103
3 97 104 118
3 112 116 107
3 14 27 39
3 30 76 27
3 27 60 101
3 39 42 77
3 70 106 39
3 42 57 43
3 32 30 57
3 60 70 57
3 14 43 104
3 14 110 32
5 42 77 117 104 43
3 101 102 42
5 32 110 115 76 30
3 30 102 106
3 76 115 43
3 32 117 77
3 76 77 118
5 70 60 101 102 106
3 60 115 110
3 70 117 104
3 104 118 101
3 110 118 106
3 102 117 115
3 72 81 59
3 16 93 72
3 75 95 72
3 64 83 67
3 16 92 64
3 64 101 75
3 59 94 67
5 67 94 119 102 83
3 97 67 95
5 94 117 102 81 59
3 101 104 59
3 83 102 81
3 93 107 83
5 16 93 107 112 92
3 16 97 104
3 92 112 81
5 101 104 97 95 75
3 107 112 75
3 93 117 94
3 95 102 117
3 94 119 92
3 101 102 119
3 97 119 107
3 112 117 104
3 11 56 14
3 11 88 16
3 11 44 101
3 40 59 43
3 16 40 18
3 44 70 40
5 14 111 118 89 56
3 14 111 43
3 18 109 14
3 56 59 89
3 70 97 56
5 59 89 117 111 43
3 101 108 59
3 43 112 88
5 88 16 18 109 112
3 16 108 97
5 70 97 108 101 44
3 44 109 112
3 18 117 89
3 89 118 88
3 111 117 70
3 101 111 118
3 97 109 118
3 112 117 108
3 29 80 49
3 49 93 52
3 49 75 86
3 51 83 50
3 52 50 85
3 78 50 75
3 29 98 51
5 80 100 116 98 29
3 78 109 29
5 98 51 83 100 119
3 86 97 51
5 52 85 112 108 93
3 52 109 97
3 80 100 83
3 83 108 93
3 85 112 80
5 97 109 78 75 86
3 108 112 75
3 86 116 100
3 98 116 93
3 78 100 119
3 98 119 85
3 108 119 97
3 109 116 112
3 14 56 13
3 15 96 13
3 13 33 106
3 15 28 17
3 28 32 68
3 33 60 28
3 14 103 17
3 32 111 14
3 56 68 89
3 60 90 56
5 17 103 114 96 15
3 90 113 15
3 17 115 89
5 68 32 111 115 89
3 106 113 68
3 96 32 114
5 60 33 106 113 90
3 33 114 103
3 111 115 60
3 96 118 89
3 103 118 90
3 111 118 106
3 114 115 113
3 15 91 66
3 66 74 87
3 68 84 66
3 51 67 83
3 68 67 94
3 90 67 87
3 15 51 98
3 74 51 106
5 98 15 91 100 114
3 90 110 15
3 91 100 83
3 84 102 83
5 87 74 106 110 90
3 74 114 100
5 68 94 115 102 84
3 106 110 68
3 94 115 91
3 84 114 98
3 102 115 87
3 94 98 119
3 100 119 90
3 106 119 102
3 110 114 115
3 41 80 31
3 44 92 41
3 41 88 75
3 43 81 42
3 42 85 44
3 75 42 77
3 31 105 43
5 31 105 116 99 80
3 31 109 77
5 43 81 99 117 105
3 88 104 43
3 80 99 81
3 80 107 85
5 85 44 92 108 107
3 44 104 109
3 81 108 92
5 75 77 109 104 88
3 75 108 107
3 99 117 77
3 99 116 88
3 92 105 116
3 85 105 117
3 109 116 107
3 104 117 108
3 31 29 80
3 29 96 74
3 33 98 29
3 74 30 76
3 30 84 32
3 30 82 33
3 31 32 105
3 76 103 31
3 80 99 84
3 80 100 82
5 76 103 110 96 74
3 100 113 74
5 105 32 84 99 115
3 96 110 32
3 76 99 115
5 82 100 113 98 33
3 33 110 103
3 98 113 84
3 82 115 105
3 96 99 116
3 98 116 105
3 103 116 100
3 110 115 113
3 58 91 17
3 76 87 58
3 58 82 60
3 43 59 81
3 59 94 60
3 89 59 87
3 17 105 43
3 43 111 76
5 105 17 91 99 114
3 17 110 89
3 91 81 99
3 81 82 102
3 91 113 94
5 76 87 89 110 111
3 76 114 99
5 94 113 102 82 60
3 60 111 110
3 87 113 102
3 105 114 82
3 89 117 99
3 105 117 94
3 111 117 102
3 110 113 114
3 15 91 17
3 86 15 96
3 15 19 98
3 16 18 93
3 88 86 16
3 16 92 19
3 18 105 17
3 88 103 17
3 91 99 93
3 92 100 91
5 93 18 105 112 99
3 96 109 18
5 88 86 96 109 103
3 86 107 100
3 93 107 98
5 92 19 98 107 100
3 19 103 109
3 88 99 112
3 105 112 92
3 99 114 96
3 105 114 98
3 100 114 103
3 107 112 109
3 18 93 52
3 52 77 95
3 70 85 52
3 32 68 84
3 70 94 68
3 68 95 89
3 18 32 105
3 32 77 111
3 18 104 89
3 84 99 93
3 85 102 84
3 93 94 108
5 95 89 104 111 77
3 99 112 77
5 70 94 108 102 85
3 70 104 111
3 102 108 95
3 99 115 89
3 105 112 85
3 94 115 105
3 111 115 102
3 108 112 104
3 76 74 87
3 96 74 86
3 78 106 74
3 88 86 75
3 75 77 95
3 75 101 78
3 77 111 76
3 88 103 76
3 86 90 97
3 87 95 89
3 87 101 90
3 96 77 109
3 89 104 88
3 97 106 95
5 101 78 106 97 90
3 103 109 78
3 96 89 110
3 104 111 101
3 103 110 90
3 110 106 111
3 109 104 97
3 44 92 19
3 44 70 85
3 78 101 44
3 33 82 60
3 33 98 19
3 33 78 106
3 70 94 60
3 90 60 101
3 19 97 90
3 70 106 97
3 82 100 92
3 82 102 85
3 92 108 94
3 100 107 78
3 85 107 98
3 101 102 108
3 94 113 98
3 90 113 100
3 102 113 106
3 108 107 97

# Cells
32 0 1 2 3 4 5 6 7 8 9 10 11 12 13 14 15 16 17 18 19 20 21 22 23 24 25 26 27 28 29 30 31
32 32 33 34 35 36 37 38 39 40 41 42 43 44 45 46 47 48 49 50 51 52 53 54 55 56 57 58 59 60 61 62 63
32 34 64 65 66 67 68 69 70 71 72 73 74 75 76 77 78 79 80 81 82 83 84 85 86 87 88 89 90 91 92 93 94
32 41 95 96 97 98 99 100 101 102 103 104 105 106 107 108 109 110 111 112 113 114 115 116 117 118 119 120 121 122 123 124 125
32 2 66 126 127 128 129 130 131 132 133 134 135 136 137 138 139 140 141 142 143 144 145 146 147 148 149 150 151 152 153 154 155
32 71 130 156 157 158 159 160 161 162 163 164 165 166 167 168 169 170 171 172 173 174 175 176 177 178 179 180 181 182 183 184 185
32 8 98 186 187 188 189 190 191 192 193 194 195 196 197 198 199 200 201 202 203 204 205 206 207 208 209 210 211 212 213 214 215
32 1 33 101 195 216 217 218 219 220 221 222 223 224 225 226 227 228 229 230 231 232 233 234 235 236 237 238 239 240 241 242 243
32 102 167 190 244 245 246 247 248 249 250 251 252 253 254 255 256 257 258 259 260 261 262 263 264 265 266 267 268 269 270 271 272
32 12 139 159 201 246 273 274 275 276 277 278 279 280 281 282 283 284 285 286 287 288 289 290 291 292 293 294 295 296 297 298 299
32 7 39 70 133 227 300 301 302 303 304 305 306 307 308 309 310 311 312 313 314 315 316 317 318 319 320 321 322 323 324 325 326
32 44 75 107 163 254 327 328 329 330 331 332 333 334 335 336 337 338 339 340 341 342 343 344 345 346 347 348 349 350 351 352 353
32 345 354 355 356 357 358 359 360 361 362 363 364 365 366 367 368 369 370 371 372 373 374 375 376 377 378 379 380 381 382 383 384
32 68 166 332 356 385 386 387 388 389 390 391 392 393 394 395 396 397 398 399 400 401 402 403 404 405 406 407 408 409 410 411 412
32 96 251 329 362 413 414 415 416 417 418 419 420 421 422 423 424 425 426 427 428 429 430 431 432 433 434 435 436 437 438 439 440
32 36 104 338 355 423 441 442 443 444 445 446 447 448 449 450 451 452 453 454 455 456 457 458 459 460 461 462 463 464 465 466 467
32 157 248 337 366 399 427 468 469 470 471 472 473 474 475 476 477 478 479 480 481 482 483 484 485 486 487 488 489 490 491 492 493
32 40 73 340 361 395 454 494 495 496 497 498 499 500 501 502 503 504 505 506 507 508 509 510 511 512 513 514 515 516 517 518 519
32 20 50 83 112 142 170 198 232 261 286 315 343 520 521 522 523 524 525 526 527 528 529 530 531 532 533 534 535 536 537 538 539
32 291 540 541 542 543 544 545 546 547 548 549 550 551 552 553 554 555 556 557 558 559 560 561 562 563 564 565 566 567 568 569 570
32 128 173 278 543 571 572 573 574 575 576 577 578 579 580 581 582 583 584 585 586 587 588 589 590 591 592 593 594 595 596 597 598
32 187 257 274 548 599 600 601 602 603 604 605 606 607 608 609 610 611 612 613 614 615 616 617 618 619 620 621 622 623 624 625 626
32 4 196 281 541 616 627 628 629 630 631 632 633 634 635 636 637 638 639 640 641 642 643 644 645 646 647 648 649 650 651 652 653
32 162 255 285 485 552 581 607 654 655 656 657 658 659 660 661 662 663 664 665 666 667 668 669 670 671 672 673 674 675 676 677 678
32 10 134 289 547 588 640 679 680 681 682 683 684 685 686 687 688 689 690 691 692 693 694 695 696 697 698 699 700 701 702 703 704
32 208 603 628 705 706 707 708 709 710 711 712 713 714 715 716 717 718 719 720 721 722 723 724 725 726 727 728 729 730 731 732 733
32 110 192 218 706 734 735 736 737 738 739 740 741 742 743 744 745 746 747 748 749 750 751 752 753 754 755 756 757 758 759 760 761
32 106 203 259 430 614 715 750 762 763 764 765 766 767 768 769 770 771 772 773 774 775 776 777 778 779 780 781 782 783 784 785 786
32 14 205 228 642 711 747 787 788 789 790 791 792 793 794 795 796 797 798 799 800 801 802 803 804 805 806 807 808 809 810 811 812
32 478 662 813 814 815 816 817 818 819 820 821 822 823 824 825 826 827 828 829 830 831 832 833 834 835 836 837 838 839 840 841 842
32 176 386 472 572 659 815 843 844 845 846 847 848 849 850 851 852 853 854 855 856 857 858 859 860 861 862 863 864 865 866 867 868
32 264 414 469 600 656 763 822 869 870 871 872 873 874 875 876 877 878 879 880 881 882 883 884 885 886 887 888 889 890 891 892 893
32 358 424 481 814 881 894 895 896 897 898 899 900 901 902 903 904 905 906 907 908 909 910 911 912 913 914 915 916 917 918 919 920
32 364 396 486 820 856 902 921 922 923 924 925 926 927 928 929 930 931 932 933 934 935 936 937 938 939 940 941 942 943 944 945 946
32 148 575 681 947 948 949 950 951 952 953 954 955 956 957 958 959 960 961 962 963 964 965 966 967 968 969 970 971 972 973 974 975
32 79 136 302 948 976 977 978 979 980 981 982 983 984 985 986 987 988 989 990 991 992 993 994 995 996 997 998 999 1000 1001 1002 1003
32 77 145 178 405 586 853 957 991 1004 1005 1006 1007 1008 1009 1010 1011 1012 1013 1014 1015 1016 1017 1018 1019 1020 1021 1022 1023 1024 1025 1026 1027
32 16 140 311 693 953 989 1028 1029 1030 1031 1032 1033 1034 1035 1036 1037 1038 1039 1040 1041 1042 1043 1044 1045 1046 1047 1048 1049 1050 1051 1052 1053
32 116 417 442 735 766 1054 1055 1056 1057 1058 1059 1060 1061 1062 1063 1064 1065 1066 1067 1068 1069 1070 1071 1072 1073 1074 1075 1076 1077 1078 1079 1080
32 46 118 230 458 743 1060 1081 1082 1083 1084 1085 1086 1087 1088 1089 1090 1091 1092 1093 1094 1095 1096 1097 1098 1099 1100 1101 1102 1103 1104 1105 1106
32 428 772 873 895 1056 1107 1108 1109 1110 1111 1112 1113 1114 1115 1116 1117 1118 1119 1120 1121 1122 1123 1124 1125 1126 1127 1128 1129 1130 1131 1132 1133
32 368 433 455 904 1068 1112 1134 1135 1136 1137 1138 1139 1140 1141 1142 1143 1144 1145 1146 1147 1148 1149 1150 1151 1152 1153 1154 1155 1156 1157 1158 1159
32 544 613 669 817 879 1160 1161 1162 1163 1164 1165 1166 1167 1168 1169 1170 1171 1172 1173 1174 1175 1176 1177 1178 1179 1180 1181 1182 1183 1184 1185 1186
32 550 585 672 821 854 1165 1187 1188 1189 1190 1191 1192 1193 1194 1195 1196 1197 1198 1199 1200 1201 1202 1203 1204 1205 1206 1207 1208 1209 1210 1211 1212
32 237 739 789 1083 1213 1214 1215 1216 1217 1218 1219 1220 1221 1222 1223 1224 1225 1226 1227 1228 1229 1230 1231 1232 1233 1234 1235 1236 1237 1238 1239 1240
32 53 221 305 1093 1214 1241 1242 1243 1244 1245 1246 1247 1248 1249 1250 1251 1252 1253 1254 1255 1256 1257 1258 1259 1260 1261 1262 1263 1264 1265 1266 1267
32 18 224 308 800 1040 1219 1255 1268 1269 1270 1271 1272 1273 1274 1275 1276 1277 1278 1279 1280 1281 1282 1283 1284 1285 1286 1287 1288 1289 1290 1291 1292
32 86 389 496 977 1007 1293 1294 1295 1296 1297 1298 1299 1300 1301 1302 1303 1304 1305 1306 1307 1308 1309 1310 1311 1312 1313 1314 1315 1316 1317 1318 1319
32 48 81 313 510 987 1251 1301 1320 1321 1322 1323 1324 1325 1326 1327 1328 1329 1330 1331 1332 1333 1334 1335 1336 1337 1338 1339 1340 1341 1342 1343 1344
32 403 847 923 1011 1294 1345 1346 1347 1348 1349 1350 1351 1352 1353 1354 1355 1356 1357 1358 1359 1360 1361 1362 1363 1364 1365 1366 1367 1368 1369 1370 1371
32 370 400 505 930 1305 1350 1372 1373 1374 1375 1376 1377 1378 1379 1380 1381 1382 1383 1384 1385 1386 1387 1388 1389 1390 1391 1392 1393 1394 1395 1396 1397
32 608 708 777 876 1109 1161 1398 1399 1400 1401 1402 1403 1404 1405 1406 1407 1408 1409 1410 1411 1412 1413 1414 1415 1416 1417 1418 1419 1420 1421 1422 1423
32 554 621 643 717 1167 1403 1424 1425 1426 1427 1428 1429 1430 1431 1432 1433 1434 1435 1436 1437 1438 1439 1440 1441 1442 1443 1444 1445 1446 1447 1448 1449
32 713 742 781 1061 1113 1402 1450 1451 1452 1453 1454 1455 1456 1457 1458 1459 1460 1461 1462 1463 1464 1465 1466 1467 1468 1469 1470 1471 1472 1473 1474 1475
32 320 980 1029 1245 1272 1321 1476 1477 1478 1479 1480 1481 1482 1483 1484 1485 1486 1487 1488 1489 1490 1491 1492 1493 1494 1495 1496 1497 1498 1499 1500 1501
32 459 1063 1086 1136 1502 1503 1504 1505 1506 1507 1508 1509 1510 1511 1512 1513 1514 1515 1516 1517 1518 1519 1520 1521 1522 1523 1524 1525 1526 1527 1528 1529
32 372 451 502 1140 1377 1508 1530 1531 1532 1533 1534 1535 1536 1537 1538 1539 1540 1541 1542 1543 1544 1545 1546 1547 1548 1549 1550 1551 1552 1553 1554 1555
32 56 445 499 1088 1242 1324 1503 1540 1556 1557 1558 1559 1560 1561 1562 1563 1564 1565 1566 1567 1568 1569 1570 1571 1572 1573 1574 1575 1576 1577 1578 1579
32 582 850 950 1017 1189 1347 1580 1581 1582 1583 1584 1585 1586 1587 1588 1589 1590 1591 1592 1593 1594 1595 1596 1597 1598 1599 1600 1601 1602 1603 1604 1605
32 556 591 694 959 1193 1585 1606 1607 1608 1609 1610 1611 1612 1613 1614 1615 1616 1617 1618 1619 1620 1621 1622 1623 1624 1625 1626 1627 1628 1629 1630 1631
32 826 888 908 1116 1170 1406 1632 1633 1634 1635 1636 1637 1638 1639 1640 1641 1642 1643 1644 1645 1646 1647 1648 1649 1650 1651 1652 1653 1654 1655 1656 1657
32 955 986 1022 1302 1352 1584 1658 1659 1660 1661 1662 1663 1664 1665 1666 1667 1668 1669 1670 1671 1672 1673 1674 1675 1676 1677 1678 1679 1680 1681 1682 1683
32 511 1298 1328 1373 1531 1560 1684 1685 1686 1687 1688 1689 1690 1691 1692 1693 1694 1695 1696 1697 1698 1699 1700 1701 1702 1703 1704 1705 1706 1707 1708 1709
32 645 719 795 1426 1710 1711 1712 1713 1714 1715 1716 1717 1718 1719 1720 1721 1722 1723 1724 1725 1726 1727 1728 1729 1730 1731 1732 1733 1734 1735 1736 1737
32 558 637 687 1430 1612 1716 1738 1739 1740 1741 1742 1743 1744 1745 1746 1747 1748 1749 1750 1751 1752 1753 1754 1755 1756 1757 1758 1759 1760 1761 1762 1763
32 24 631 683 791 1032 1269 1710 1738 1764 1765 1766 1767 1768 1769 1770 1771 1772 1773 1774 1775 1776 1777 1778 1779 1780 1781 1782 1783 1784 1785 1786 1787
32 751 1066 1097 1216 1452 1505 1788 1789 1790 1791 1792 1793 1794 1795 1796 1797 1798 1799 1800 1801 1802 1803 1804 1805 1806 1807 1808 1809 1810 1811 1812 1813
32 721 754 802 1221 1456 1714 1793 1814 1815 1816 1817 1818 1819 1820 1821 1822 1823 1824 1825 1826 1827 1828 1829 1830 1831 1832 1833 1834 1835 1836 1837 1838
32 828 862 932 1196 1354 1588 1839 1840 1841 1842 1843 1844 1845 1846 1847 1848 1849 1850 1851 1852 1853 1854 1855 1856 1857 1858 1859 1860 1861 1862 1863 1864
32 1101 1224 1252 1510 1563 1792 1865 1866 1867 1868 1869 1870 1871 1872 1873 1874 1875 1876 1877 1878 1879 1880 1881 1882 1883 1884 1885 1886 1887 1888 1889 1890
32 696 961 1038 1607 1743 1768 1891 1892 1893 1894 1895 1896 1897 1898 1899 1900 1901 1902 1903 1904 1905 1906 1907 1908 1909 1910 1911 1912 1913 1914 1915 1916
32 913 1121 1145 1634 1917 1918 1919 1920 1921 1922 1923 1924 1925 1926 1927 1928 1929 1930 1931 1932 1933 1934 1935 1936 1937 1938 1939 1940 1941 1942 1943 1944
32 832 910 934 1638 1845 1923 1945 1946 1947 1948 1949 1950 1951 1952 1953 1954 1955 1956 1957 1958 1959 1960 1961 1962 1963 1964 1965 1966 1967 1968 1969 1970
32 377 898 926 1142 1380 1534 1918 1946 1971 1972 1973 1974 1975 1976 1977 1978 1979 1980 1981 1982 1983 1984 1985 1986 1987 1988 1989 1990 1991 1992 1993 1994
32 994 1309 1335 1478 1660 1686 1995 1996 1997 1998 1999 2000 2001 2002 2003 2004 2005 2006 2007 2008 2009 2010 2011 2012 2013 2014 2015 2016 2017 2018 2019 2020
32 963 996 1044 1485 1664 1893 2000 2021 2022 2023 2024 2025 2026 2027 2028 2029 2030 2031 2032 2033 2034 2035 2036 2037 2038 2039 2040 2041 2042 2043 2044 2045
32 1074 1123 1149 1459 1513 1796 1920 2046 2047 2048 2049 2050 2051 2052 2053 2054 2055 2056 2057 2058 2059 2060 2061 2062 2063 2064 2065 2066 2067 2068 2069 2070
32 1257 1337 1482 1569 1690 1867 1999 2071 2072 2073 2074 2075 2076 2077 2078 2079 2080 2081 2082 2083 2084 2085 2086 2087 2088 2089 2090 2091 2092 2093 2094 2095
32 805 1226 1280 1718 1773 1818 2096 2097 2098 2099 2100 2101 2102 2103 2104 2105 2106 2107 2108 2109 2110 2111 2112 2113 2114 2115 2116 2117 2118 2119 2120 2121
32 939 1357 1385 1841 1950 1975 2122 2123 2124 2125 2126 2127 2128 2129 2130 2131 2132 2133 2134 2135 2136 2137 2138 2139 2140 2141 2142 2143 2144 2145 2146 2147
32 1179 1411 1435 1640 2148 2149 2150 2151 2152 2153 2154 2155 2156 2157 2158 2159 2160 2161 2162 2163 2164 2165 2166 2167 2168 2169 2170 2171 2172 2173 2174 2175
32 835 1176 1200 1643 1849 1953 2154 2176 2177 2178 2179 2180 2181 2182 2183 2184 2185 2186 2187 2188 2189 2190 2191 2192 2193 2194 2195 2196 2197 2198 2199 2200
32 564 1172 1198 1433 1614 1746 2149 2178 2201 2202 2203 2204 2205 2206 2207 2208 2209 2210 2211 2212 2213 2214 2215 2216 2217 2218 2219 2220 2221 2222 2223 2224
32 1228 1261 1286 1489 1871 2076 2102 2225 2226 2227 2228 2229 2230 2231 2232 2233 2234 2235 2236 2237 2238 2239 2240 2241 2242 2243 2244 2245 2246 2247 2248 2249
32 1313 1361 1388 1667 1693 2003 2124 2250 2251 2252 2253 2254 2255 2256 2257 2258 2259 2260 2261 2262 2263 2264 2265 2266 2267 2268 2269 2270 2271 2272 2273 2274
32 727 1413 1437 1461 1720 1821 2150 2275 2276 2277 2278 2279 2280 2281 2282 2283 2284 2285 2286 2287 2288 2289 2290 2291 2292 2293 2294 2295 2296 2297 2298 2299
32 1046 1283 1487 1775 1897 2025 2098 2229 2300 2301 2302 2303 2304 2305 2306 2307 2308 2309 2310 2311 2312 2313 2314 2315 2316 2317 2318 2319 2320 2321 2322 2323
32 1153 1515 1543 1925 1980 2051 2324 2325 2326 2327 2328 2329 2330 2331 2332 2333 2334 2335 2336 2337 2338 2339 2340 2341 2342 2343 2344 2345 2346 2347 2348 2349
32 1205 1593 1619 1847 2183 2205 2350 2351 2352 2353 2354 2355 2356 2357 2358 2359 2360 2361 2362 2363 2364 2365 2366 2367 2368 2369 2370 2371 2372 2373 2374 2375
32 1126 1417 1463 1645 1927 2055 2155 2285 2376 2377 2378 2379 2380 2381 2382 2383 2384 2385 2386 2387 2388 2389 2390 2391 2392 2393 2394 2395 2396 2397 2398 2399
32 1517 1549 1574 1697 1874 2079 2330 2400 2401 2402 2403 2404 2405 2406 2407 2408 2409 2410 2411 2412 2413 2414 2415 2416 2417 2418 2419 2420 2421 2422 2423 2424
32 969 1596 1621 1669 1900 2028 2352 2425 2426 2427 2428 2429 2430 2431 2432 2433 2434 2435 2436 2437 2438 2439 2440 2441 2442 2443 2444 2445 2446 2447 2448 2449
32 1390 1546 1695 1982 2128 2255 2326 2405 2450 2451 2452 2453 2454 2455 2456 2457 2458 2459 2460 2461 2462 2463 2464 2465 2466 2467 2468 2469 2470 2471 2472 2473
32 1444 1723 1751 2158 2210 2280 2474 2475 2476 2477 2478 2479 2480 2481 2482 2483 2484 2485 2486 2487 2488 2489 2490 2491 2492 2493 2494 2495 2496 2497 2498 2499
32 1468 1801 1826 2053 2282 2382 2500 2501 2502 2503 2504 2505 2506 2507 2508 2509 2510 2511 2512 2513 2514 2515 2516 2517 2518 2519 2520 2521 2522 2523 2524 2525
32 1365 1599 1671 1854 2131 2259 2358 2435 2526 2527 2528 2529 2530 2531 2532 2533 2534 2535 2536 2537 2538 2539 2540 2541 2542 2543 2544 2545 2546 2547 2548 2549
32 1727 1755 1782 1904 2105 2307 2480 2550 2551 2552 2553 2554 2555 2556 2557 2558 2559 2560 2561 2562 2563 2564 2565 2566 2567 2568 2569 2570 2571 2572 2573 2574
32 1235 1804 1828 1876 2107 2232 2502 2575 2576 2577 2578 2579 2580 2581 2582 2583 2584 2585 2586 2587 2588 2589 2590 2591 2592 2593 2594 2595 2596 2597 2598 2599
32 1625 1753 1902 2214 2356 2430 2476 2555 2600 2601 2602 2603 2604 2605 2606 2607 2608 2609 2610 2611 2612 2613 2614 2615 2616 2617 2618 2619 2620 2621 2622 2623
32 1652 1930 1958 2163 2188 2386 2624 2625 2626 2627 2628 2629 2630 2631 2632 2633 2634 2635 2636 2637 2638 2639 2640 2641 2642 2643 2644 2645 2646 2647 2648 2649
32 1676 2008 2033 2257 2432 2532 2650 2651 2652 2653 2654 2655 2656 2657 2658 2659 2660 2661 2662 2663 2664 2665 2666 2667 2668 2669 2670 2671 2672 2673 2674 2675
32 1523 1807 1878 2060 2335 2409 2508 2585 2676 2677 2678 2679 2680 2681 2682 2683 2684 2685 2686 2687 2688 2689 2690 2691 2692 2693 2694 2695 2696 2697 2698 2699
32 1934 1963 1989 2135 2333 2457 2630 2700 2701 2702 2703 2704 2705 2706 2707 2708 2709 2710 2711 2712 2713 2714 2715 2716 2717 2718 2719 2720 2721 2722 2723 2724
32 1496 2010 2035 2081 2237 2309 2652 2725 2726 2727 2728 2729 2730 2731 2732 2733 2734 2735 2736 2737 2738 2739 2740 2741 2742 2743 2744 2745 2746 2747 2748 2749
32 1729 1832 2109 2289 2483 2506 2558 2580 2750 2751 2752 2753 2754 2755 2756 2757 2758 2759 2760 2761 2762 2763 2764 2765 2766 2767 2768 2769 2770 2771 2772 2773
32 1859 1961 2133 2190 2361 2536 2626 2705 2774 2775 2776 2777 2778 2779 2780 2781 2782 2783 2784 2785 2786 2787 2788 2789 2790 2791 2792 2793 2794 2795 2796 2797
32 1883 2087 2239 2407 2582 2682 2729 2798 2799 2800 2801 2802 2803 2804 2805 2806 2807 2808 2809 2810 2811 2812 2813 2814 2815 2816 2817 2818 2819 2820 2821 2822
32 1703 2014 2083 2264 2414 2459 2658 2737 2805 2823 2824 2825 2826 2827 2828 2829 2830 2831 2832 2833 2834 2835 2836 2837 2838 2839 2840 2841 2842 2843 2844 2845
32 2166 2194 2219 2365 2485 2609 2635 2783 2846 2847 2848 2849 2850 2851 2852 2853 2854 2855 2856 2857 2858 2859 2860 2861 2862 2863 2864 2865 2866 2867 2868 2869
32 1909 2039 2311 2439 2560 2607 2656 2732 2870 2871 2872 2873 2874 2875 2876 2877 2878 2879 2880 2881 2882 2883 2884 2885 2886 2887 2888 2889 2890 2891 2892 2893
32 1937 2064 2337 2390 2511 2633 2686 2708 2894 2895 2896 2897 2898 2899 2900 2901 2902 2903 2904 2905 2906 2907 2908 2909 2910 2911 2912 2913 2914 2915 2916 2917
32 2114 2242 2316 2562 2587 2735 2757 2802 2876 2918 2919 2920 2921 2922 2923 2924 2925 2926 2927 2928 2929 2930 2931 2932 2933 2934 2935 2936 2937 2938 2939 2940
32 2168 2293 2392 2487 2515 2637 2759 2853 2903 2941 2942 2943 2944 2945 2946 2947 2948 2949 2950 2951 2952 2953 2954 2955 2956 2957 2958 2959 2960 2961 2962 2963
32 2141 2268 2461 2540 2661 2710 2781 2833 2964 2965 2966 2967 2968 2969 2970 2971 2972 2973 2974 2975 2976 2977 2978 2979 2980 2981 2982 2983 2984 2985 2986 2987
32 2342 2418 2466 2690 2712 2810 2835 2901 2971 2988 2989 2990 2991 2992 2993 2994 2995 2996 2997 2998 2999 3000 3001 3002 3003 3004 3005 3006 3007 3008 3009 3010
32 2368 2444 2542 2611 2665 2785 2855 2881 2973 3011 3012 3013 3014 3015 3016 3017 3018 3019 3020 3021 3022 3023 3024 3025 3026 3027 3028 3029 3030 3031 3032 3033
32 2492 2568 2616 2766 2859 2884 2928 2949 3019 3034 3035 3036 3037 3038 3039 3040 3041 3042 3043 3044 3045 3046 3047 3048 3049 3050 3051 3052 3053 3054 3055 3056
32 2520 2594 2693 2764 2813 2905 2931 2955 3000 3044 3057 3058 3059 3060 3061 3062 3063 3064 3065 3066 3067 3068 3069 3070 3071 3072 3073 3074 3075 3076 3077 3078
32 2643 2718 2790 2862 2910 2953 2980 2998 3024 3046 3069 3079 3080 3081 3082 3083 3084 3085 3086 3087 3088 3089 3090 3091 3092 3093 3094 3095 3096 3097 3098 3099
32 2670 2744 2815 2840 2886 2934 2977 3003 3026 3049 3071 3093 3100 3101 3102 3103 3104 3105 3106 3107 3108 3109 3110 3111 3112 3113 3114 3115 3116 3117 3118 3119
4 0 64 244 571
4 9 42 168 976
4 13 72 103 1241
4 3 35 250 734
4 6 95 156 599
4 38 161 186 413
4 32 126 249 385
4 45 131 191 1268
4 65 216 245 441
4 76 220 277 1028
4 69 100 273 468
4 108 275 304 787
4 99 160 300 494
4 132 194 327 654
4 127 217 253 627
4 138 223 331 1320
4 164 188 301 679
4 202 307 328 1082
4 226 280 334 762
4 283 310 335 1004
4 97 158 360 869
4 67 247 354 843
4 43 169 363 1293
4 74 105 367 1556
4 37 252 357 1054
4 51 390 420 1530
4 84 446 473 1372
4 114 471 498 1134
4 262 387 443 894
4 398 450 523 1327
4 394 422 520 661
4 172 416 495 921
4 431 501 522 1085
4 453 480 526 771
4 484 504 527 1010
4 129 256 540 844
4 11 174 549 947
4 135 197 553 1764
4 5 258 542 705
4 165 189 546 870
4 21 578 610 1742
4 147 632 660 1606
4 207 657 684 1424
4 477 525 584 612
4 267 574 629 1160
4 530 590 636 1037
4 175 602 680 1187
4 528 618 686 794
4 531 639 667 775
4 532 668 691 1015
4 109 276 710 872
4 219 260 707 1055
4 15 111 712 1213
4 229 282 716 1770
4 22 611 745 1715
4 269 630 737 1399
4 426 521 606 741
4 534 641 753 1277
4 235 634 768 1817
4 294 765 792 1429
4 115 605 788 1450
4 535 776 799 1094
4 171 415 601 819
4 263 388 573 813
4 177 365 823 1345
4 397 425 825 1971
4 265 359 816 1107
4 374 858 883 1949
4 406 664 899 1840
4 432 663 925 1633
4 284 336 852 878
4 270 845 896 1162
4 347 857 903 1376
4 180 871 922 1188
4 346 882 929 1138
4 342 665 769 901
4 344 666 928 1008
4 179 303 949 1295
4 17 80 954 1476
4 290 312 958 1771
4 78 279 846 952
4 23 579 983 1895
4 402 524 580 985
4 536 692 993 1278
4 183 682 979 1581
4 318 689 1014 2024
4 296 1006 1033 1611
4 89 577 1030 1658
4 537 1016 1041 1333
4 47 193 1058 1218
4 231 339 1065 1562
4 204 330 875 1059
4 266 444 736 1108
4 52 421 738 1507
4 457 529 749 1250
4 233 448 767 1791
4 348 770 1089 1139
4 200 419 1081 1454
4 117 369 1114 1502
4 456 482 1117 1977
4 113 470 604 1111
4 375 884 1070 1922
4 272 897 1057 1400
4 349 905 1069 1539
4 461 774 906 2050
4 488 773 1143 1637
4 120 874 1135 1451
4 181 551 824 1580
4 589 617 830 2201
4 268 545 818 1398
4 560 860 885 2180
4 483 587 1169 1843
4 287 475 764 1164
4 293 855 1166 1610
4 479 615 1195 1636
4 288 476 1005 1191
4 292 880 1192 1428
4 206 309 1220 1765
4 19 54 1223 1481
4 119 306 1215 1557
4 26 746 1248 2096
4 123 790 1244 1789
4 538 801 1042 1256
4 322 798 1092 2228
4 58 740 1273 1865
4 539 1095 1279 1334
4 213 1084 1271 1815
4 146 333 849 1300
4 314 341 1304 1565
4 49 137 1297 1480
4 182 497 978 1346
4 509 533 992 1254
4 55 391 981 1688
4 316 507 1013 1998
4 350 1009 1330 1378
4 144 393 1322 1662
4 85 474 576 1349
4 487 506 1355 1978
4 87 371 1351 1684
4 376 859 1307 2126
4 185 924 1296 1582
4 351 931 1306 1541
4 513 936 1019 2254
4 489 1012 1381 1844
4 90 848 1374 1659
4 143 392 658 1583
4 199 418 655 1401
4 210 555 1404 1711
4 644 670 1409 2207
4 295 718 1168 1739
4 647 779 1174 2279
4 271 709 1110 1163
4 561 723 886 2153
4 671 778 1432 1642
4 209 877 1425 1455
4 122 714 1115 1788
4 619 748 1119 2275
4 212 1062 1405 1814
4 435 744 1407 2046
4 724 887 1072 2376
4 429 609 1458 1632
4 82 222 1477 1559
4 141 225 1484 1767
4 28 984 1249 2300
4 92 1031 1247 1996
4 240 1036 1326 2225
4 59 982 1274 2071
4 153 1276 1323 2022
4 121 500 1243 1504
4 434 503 1512 1972
4 57 373 1509 1689
4 379 1071 1567 2324
4 438 1087 1536 2047
4 60 1064 1532 1866
4 352 1090 1331 1542
4 353 1141 1379 1566
4 125 1137 1558 1790
4 516 1096 1148 2404
4 88 447 1246 1685
4 317 508 1091 2074
4 234 449 1325 1869
4 149 557 1586 1891
4 673 695 1591 2208
4 297 960 1194 1740
4 698 1020 1202 2429
4 184 951 1190 1348
4 562 861 965 2354
4 675 1018 1615 1850
4 151 851 1608 1663
4 436 827 1408 1917
4 674 909 1410 2176
4 490 1118 1171 1945
4 780 912 1178 2379
4 620 831 1120 2148
4 91 956 1353 1995
4 594 990 1360 2425
4 152 1303 1587 2021
4 409 988 1590 2250
4 864 967 1311 2526
4 404 583 1666 1839
4 401 452 1692 1974
4 381 1308 1568 2450
4 410 1329 1538 2251
4 61 1299 1533 2072
4 93 1375 1561 1997
4 465 1332 1384 2401
4 622 688 1721 2202
4 25 559 1717 1896
4 211 685 1270 1712
4 298 793 1034 1741
4 623 796 1747 2276
4 27 720 1744 2097
4 563 725 1777 2474
4 215 1427 1766 1816
4 299 1431 1613 1772
4 699 804 1439 2553
4 150 633 1275 1892
4 236 635 1035 2100
4 319 690 797 2303
4 782 803 1799 2284
4 238 722 1794 2101
4 239 1067 1819 1870
4 783 1098 1824 2056
4 214 1222 1457 1713
4 807 1099 1465 2579
4 124 1217 1453 1506
4 726 1073 1230 2504
4 676 933 1592 2177
4 407 829 1589 2122
4 593 834 1359 2350
4 491 1197 1356 1947
4 938 1021 1204 2529
4 62 1225 1511 2073
4 757 1259 1520 2575
4 1076 1232 1571 2676
4 241 1564 1795 2226
4 464 1253 1798 2400
4 460 752 1873 2049
4 592 638 1899 2204
4 596 1039 1750 2426
4 29 962 1745 2301
4 566 966 1778 2600
4 155 1609 1769 2023
4 650 1043 1618 2550
4 437 927 1535 1919
4 889 935 1928 2181
4 378 833 1924 2127
4 890 1146 1954 2377
4 380 1122 1951 2325
4 492 1144 1382 1948
4 837 1128 1984 2624
4 493 1639 1846 1979
4 440 1635 1973 2048
4 941 1151 1647 2703
4 408 900 1537 2123
4 462 907 1383 2328
4 514 937 1147 2453
4 321 964 2001 2304
4 1023 1045 2006 2434
4 1024 1336 2031 2260
4 323 1310 2026 2075
4 154 1486 1665 1894
4 1049 1339 1673 2731
4 94 1479 1661 1687
4 968 1312 1491 2654
4 463 1124 1797 2329
4 784 1150 1800 2380
4 439 1460 1514 1921
4 756 1125 1519 2500
4 1100 1152 1467 2679
4 63 1483 1691 1868
4 998 1260 1699 2725
4 1315 1493 1572 2823
4 325 1570 2002 2230
4 515 1258 2004 2403
4 512 995 2078 2253
4 30 1227 1719 2302
4 759 1282 1726 2576
4 646 755 2104 2278
4 730 1231 1779 2750
4 243 1774 1820 2227
4 651 1281 1823 2551
4 863 911 2130 2186
4 866 1386 1957 2527
4 382 1358 1952 2451
4 838 1363 1985 2774
4 917 1387 1853 2700
4 412 1842 1976 2252
4 891 1201 1955 2156
4 565 836 2159 2355
4 624 1199 1748 2151
4 677 1434 1616 2179
4 892 1436 2182 2378
4 567 1412 2184 2475
4 626 1641 2203 2277
4 839 1416 2212 2625
4 678 1644 1851 2209
4 1209 1442 1650 2849
4 595 1173 1749 2351
4 648 1175 1617 2478
4 700 1203 1440 2603
4 1102 1287 2085 2584
4 324 1229 2077 2305
4 1288 1340 1880 2734
4 242 1490 1872 2103
4 1103 1338 2235 2410
4 1233 1494 1573 2801
4 1025 1389 2007 2530
4 517 1362 2005 2454
4 999 1364 1700 2650
4 411 1668 1694 2125
4 1341 1393 1675 2828
4 785 1438 1825 2381
4 649 1414 1822 2479
4 758 1415 1725 2501
4 625 1462 1722 2152
4 809 1441 1466 2753
4 1000 1285 1906 2726
4 31 1488 1898 2099
4 697 997 2306 2428
4 972 1492 1780 2870
4 326 1776 2027 2231
4 701 1284 2029 2554
4 1078 1545 1933 2677
4 383 1516 1926 2452
4 914 1075 2332 2385
4 1130 1521 1986 2894
4 467 1981 2052 2402
4 918 1544 2059 2701
4 865 1177 1956 2359
4 867 1620 2187 2528
4 568 1594 2185 2601
4 598 1848 2206 2427
4 840 1595 2213 2775
4 1183 1623 1856 2846
4 893 1464 1929 2157
4 728 1127 2161 2505
4 729 1180 2383 2482
4 786 1646 2057 2286
4 1129 1182 2287 2632
4 1443 1472 1651 2944
4 915 1181 1852 2628
4 942 1207 1648 2777
4 806 1262 2313 2578
4 1048 1263 2111 2728
4 808 1047 2233 2557
4 1234 1495 1781 2918
4 1104 1550 2086 2680
4 518 1518 2080 2455
4 1342 1551 1882 2829
4 466 1698 1875 2331
4 1264 1522 1701 2798
4 702 1597 2030 2604
4 1026 1622 2032 2531
4 597 1670 1901 2353
4 1001 1598 1907 2651
4 1050 1624 1674 2873
4 916 1418 2058 2629
4 1077 1419 1932 2509
4 1156 1470 1649 2897
4 384 1696 2129 2327
4 1317 1548 2138 2824
4 940 1314 2456 2535
4 1368 1702 1987 2964
4 519 1983 2256 2406
4 944 1547 2263 2704
4 569 1724 2160 2602
4 732 1752 2162 2752
4 1420 1731 2216 2941
4 653 2211 2281 2552
4 1184 1757 2291 2847
4 731 1802 2384 2751
4 1079 1827 2388 2678
4 761 2054 2283 2577
4 1131 1803 2288 2895
4 1422 1830 2062 2943
4 868 1672 2132 2360
4 970 1366 2363 2655
4 971 1206 2533 2606
4 1027 1855 2261 2436
4 1208 1367 2437 2780
4 1628 1680 1858 3014
4 1154 1575 2463 2685
4 1392 1576 2339 2826
4 1155 1391 2412 2707
4 1526 1705 1988 2988
4 811 1756 2314 2755
4 703 1728 2308 2605
4 1051 1758 2113 2874
4 652 1905 2106 2481
4 1289 1732 1908 2921
4 1105 1829 2236 2681
4 810 1805 2234 2754
4 1265 1806 2112 2799
4 760 1877 2108 2503
4 1290 1831 1881 2922
4 943 1600 2262 2778
4 1316 1601 2137 2659
4 1394 1678 1857 2967
4 973 1754 2364 2871
4 570 1903 2357 2477
4 1602 1911 2217 3011
4 704 2215 2431 2556
4 1210 1759 2441 2850
4 1132 1959 2165 2896
4 841 1931 2164 2776
4 1421 1936 2192 2942
4 920 2189 2387 2702
4 1185 1960 2389 2848
4 1319 2034 2538 2825
4 974 2009 2534 2872
4 1369 2012 2438 2965
4 1003 2258 2433 2727
4 1604 2038 2266 3013
4 1080 1879 2336 2510
4 1236 1524 2513 2803
4 1237 1469 2683 2756
4 1106 2061 2411 2586
4 1471 1525 2589 2900
4 1835 1887 2067 3060
4 1445 1783 2613 2760
4 1627 1784 2489 2879
4 1446 1626 2564 2852
4 1734 1912 2218 3034
4 1158 1964 2464 2899
4 945 1935 2458 2779
4 1396 1966 2341 2969
4 919 2136 2334 2631
4 1552 1940 2140 2991
4 1052 2013 2238 2875
4 1343 2037 2241 2830
4 1291 2036 2089 2923
4 1002 2082 2310 2653
4 1266 2011 2315 2800
4 1157 1808 2413 2898
4 1577 1809 2340 2806
4 1553 1885 2063 2992
4 733 2110 2484 2507
4 1238 1730 2514 2919
4 1810 2116 2292 3057
4 812 2290 2559 2581
4 1473 1733 2591 2947
4 842 2134 2362 2627
4 1370 1962 2367 2966
4 1603 2139 2193 3012
4 946 2191 2537 2706
4 1211 1965 2539 2851
4 1239 2088 2684 2920
4 1579 2240 2688 2827
4 1267 2408 2583 2730
4 1528 2090 2590 2990
4 1812 2244 2417 3059
4 1318 2084 2460 2660
4 1497 1704 2663 2808
4 1498 1677 2831 2877
4 1344 2265 2415 2738
4 1679 1706 2739 2970
4 2042 2092 2271 3103
4 1447 1833 2565 2945
4 1785 1834 2490 2926
4 1760 2117 2295 3037
4 1653 1990 2787 2907
4 1861 1991 2639 2975
4 1654 1860 2714 2857
4 1941 2144 2197 3079
4 1448 2195 2614 2946
4 1212 2167 2610 2784
4 1186 2366 2486 2636
4 1630 2196 2491 3016
4 1761 2171 2370 3038
4 1395 2016 2416 2968
4 1578 2015 2465 2807
4 1554 2091 2267 2993
4 1499 1910 2664 2924
4 975 2312 2608 2657
4 2017 2320 2443 3100
4 1053 2440 2561 2733
4 1681 1913 2741 3017
4 1527 1938 2517 2989
4 1133 2338 2512 2634
4 1811 2344 2394 3058
4 1159 2391 2687 2709
4 1474 1939 2689 2948
4 1500 1884 2832 2925
4 1707 1886 2740 2994
4 2018 2245 2420 3101
4 1787 2243 2763 2880
4 1240 2317 2758 2804
4 1292 2563 2588 2736
4 1836 2246 2567 3061
4 1736 2318 2592 3036
4 1629 2041 2566 3015
4 1786 2040 2615 2927
4 1762 2319 2442 3039
4 1656 2065 2715 2952
4 1992 2066 2640 2996
4 1968 2346 2396 3083
4 1655 2220 2788 2951
4 1862 2221 2641 3021
4 1967 2173 2372 3082
4 1449 2393 2761 2854
4 1475 2169 2762 2904
4 1423 2488 2516 2638
4 1735 2170 2518 3035
4 1837 2395 2494 3062
4 1501 2115 2809 2878
4 2093 2321 2593 3104
4 1888 2119 2743 3063
4 1371 2462 2662 2782
4 1708 2142 2667 2995
4 2019 2469 2544 3102
4 1397 2541 2711 2834
4 1682 2143 2837 3018
4 2043 2247 2570 3106
4 1914 2118 2742 3040
4 1529 2467 2811 2902
4 1994 2419 2909 2976
4 2069 2421 2717 3067
4 1555 2691 2713 2836
4 1943 2468 2692 3081
4 1863 2270 2716 3022
4 1993 2269 2789 2997
4 1969 2470 2545 3084
4 1657 2294 2858 2908
4 2222 2296 2642 3042
4 2198 2397 2496 3088
4 2068 2297 2645 3066
4 1942 2172 2519 3080
4 1631 2543 2856 2882
4 1683 2369 2883 2974
4 1915 2371 2668 3041
4 1605 2612 2666 2786
4 2044 2546 2619 3107
4 1709 2343 2812 2972
4 2094 2471 2695 3105
4 1889 2345 2838 3064
4 2273 2422 2720 3111
4 2145 2347 2839 3085
4 2224 2569 2957 3023
4 1737 2617 2929 2950
4 1763 2767 2860 2885
4 2299 2571 2864 3068
4 2174 2618 2768 3087
4 1864 2445 2861 2979
4 2223 2446 2792 3043
4 2199 2547 2620 3089
4 2272 2447 2794 3110
4 2146 2373 2669 3086
4 1838 2694 2932 2956
4 1890 2521 2933 3001
4 1813 2765 2814 2906
4 2121 2522 2817 3045
4 2248 2696 2770 3109
4 1916 2493 2930 3020
4 2120 2495 2888 3065
4 2322 2621 2769 3108
4 2448 2572 2866 3112
4 2374 2497 2889 3091
4 1944 2791 2954 2999
4 2200 2719 2959 3028
4 2399 2721 2865 3073
4 1970 2863 2911 2981
4 2175 2793 2912 3047
4 2070 2595 2958 3005
4 2298 2596 2913 3048
4 2398 2697 2771 3092
4 2423 2597 2915 3114
4 2348 2523 2819 3090
4 2045 2841 2936 3027
4 2095 2671 2935 3004
4 2323 2672 2818 3050
4 2020 2816 2887 2978
4 2249 2842 2890 3072
4 2147 2644 3002 3025
4 2349 2646 2982 3070
4 2473 2795 2914 3113
4 2573 2598 2960 3116
4 2498 2524 2937 3095
4 2548 2722 2867 3115
4 2375 2647 2983 3051
4 2274 2745 3006 3029
4 2449 2746 2984 3052
4 2549 2843 2891 3096
4 2424 2747 2985 3075
4 2472 2673 2820 3094
4 2499 2648 3030 3074
4 2623 2796 2961 3117
4 2574 2749 3031 3076
4 2622 2674 2938 3097
4 2698 2723 2962 3118
4 2525 2649 3007 3053
4 2599 2748 3008 3054
4 2699 2844 2939 3098
4 2773 2868 2916 3119
4 2772 2821 2892 3099
4 2724 2845 3032 3077
4 2675 2797 3009 3055
4 2869 2893 2987 3078
4 2822 2917 2986 3056
4 2940 2963 3010 3033
