# Generated using Miratope v0.5.0 (https://github.com/galoomba1/miratope-rs)
4OFF

# Vertices, Faces, Edges, Cells
120 720 720 120

# Vertices
-0.809016994374945 -0.809016994374945 -0.809016994374945 0.809016994374945 
-1.30901699437495 0 -0.809016994374945 0.5 
-0.809016994374945 -1.30901699437495 0 0.5 
-0.809016994374945 -0.5 -1.30901699437495 0 
-0.5 -1.30901699437495 -0.809016994374945 0 
-1.61803398874989 0 0 0 
-1.30901699437495 -0.809016994374945 0.5 0 
-1.30901699437495 -0.5 0 -0.809016994374945 
-1.30901699437495 0 -0.809016994374945 -0.5 
-0.809016994374945 -1.30901699437495 0 -0.5 
-0.809016994374945 0.809016994374945 -0.809016994374945 0.809016994374945 
0 0.5 -0.809016994374945 1.30901699437495 
-1.30901699437495 0.5 0 0.809016994374945 
-0.5 0 -1.30901699437495 0.809016994374945 
0 0 0 1.61803398874989 
-0.809016994374945 0 0.5 1.30901699437495 
-0.5 -0.809016994374945 0 1.30901699437495 
0 -0.5 -0.809016994374945 1.30901699437495 
-1.30901699437495 -0.5 0 0.809016994374945 
-0.809016994374945 -0.809016994374945 0.809016994374945 0.809016994374945 
0 -0.809016994374945 1.30901699437495 0.5 
-0.809016994374945 -0.5 1.30901699437495 0 
0 -1.61803398874989 0 0 
0.5 -1.30901699437495 0.809016994374945 0 
0 -1.30901699437495 0.5 -0.809016994374945 
0 -0.809016994374945 1.30901699437495 -0.5 
-0.809016994374945 0.809016994374945 0.809016994374945 -0.809016994374945 
-0.809016994374945 1.30901699437495 0 -0.5 
-1.30901699437495 0.809016994374945 0.5 0 
-0.5 0.809016994374945 0 -1.30901699437495 
-0.809016994374945 0 0.5 -1.30901699437495 
-1.30901699437495 0.809016994374945 -0.5 0 
-0.809016994374945 0 -0.5 -1.30901699437495 
-0.809016994374945 -0.809016994374945 -0.809016994374945 -0.809016994374945 
-0.5 0 -1.30901699437495 -0.809016994374945 
0 -1.30901699437495 -0.5 -0.809016994374945 
0 -0.5 -0.809016994374945 -1.30901699437495 
0 0 -1.61803398874989 0 
0.809016994374945 -0.5 -1.30901699437495 0 
0.5 0 -1.30901699437495 -0.809016994374945 
0 -0.809016994374945 -1.30901699437495 0.5 
0.5 -1.30901699437495 -0.809016994374945 0 
0.809016994374945 -0.809016994374945 0.809016994374945 0.809016994374945 
0.5 0 1.30901699437495 0.809016994374945 
0.5 -0.809016994374945 0 1.30901699437495 
0 -1.30901699437495 0.5 0.809016994374945 
0 0.5 0.809016994374945 1.30901699437495 
-0.5 0 1.30901699437495 0.809016994374945 
-0.809016994374945 -0.809016994374945 0.809016994374945 -0.809016994374945 
-1.30901699437495 0 0.809016994374945 -0.5 
0 -0.5 0.809016994374945 -1.30901699437495 
0 0 1.61803398874989 0 
0 0.809016994374945 1.30901699437495 -0.5 
-0.809016994374945 0.5 1.30901699437495 0 
0.5 0 1.30901699437495 -0.809016994374945 
0 0.5 0.809016994374945 -1.30901699437495 
-0.809016994374945 0.809016994374945 0.809016994374945 0.809016994374945 
0 1.30901699437495 0.5 0.809016994374945 
-0.5 0.809016994374945 0 1.30901699437495 
0 1.61803398874989 0 0 
0 1.30901699437495 -0.5 0.809016994374945 
-0.5 1.30901699437495 -0.809016994374945 0 
0.809016994374945 0.809016994374945 -0.809016994374945 0.809016994374945 
0.809016994374945 0 -0.5 1.30901699437495 
1.30901699437495 0 -0.809016994374945 0.5 
0.809016994374945 0.5 -1.30901699437495 0 
0.809016994374945 -0.809016994374945 -0.809016994374945 -0.809016994374945 
1.30901699437495 -0.809016994374945 -0.5 0 
1.30901699437495 -0.5 0 -0.809016994374945 
0.5 -0.809016994374945 0 -1.30901699437495 
0.809016994374945 -1.30901699437495 0 0.5 
1.30901699437495 -0.809016994374945 0.5 0 
-0.809016994374945 0.809016994374945 -0.809016994374945 -0.809016994374945 
0 1.30901699437495 -0.5 -0.809016994374945 
0 0.809016994374945 -1.30901699437495 -0.5 
0 0 0 -1.61803398874989 
0.5 0.809016994374945 0 -1.30901699437495 
0.809016994374945 0 -0.5 -1.30901699437495 
0.809016994374945 0.809016994374945 0.809016994374945 0.809016994374945 
0.5 1.30901699437495 0.809016994374945 0 
-0.5 1.30901699437495 0.809016994374945 0 
0.809016994374945 -0.809016994374945 -0.809016994374945 0.809016994374945 
1.61803398874989 0 0 0 
1.30901699437495 0.5 0 0.809016994374945 
1.30901699437495 0 0.809016994374945 0.5 
0.809016994374945 0 0.5 1.30901699437495 
0.809016994374945 0.809016994374945 -0.809016994374945 -0.809016994374945 
1.30901699437495 0.809016994374945 -0.5 0 
0.809016994374945 1.30901699437495 0 -0.5 
0.809016994374945 1.30901699437495 0 0.5 
0 0.809016994374945 -1.30901699437495 0.5 
0.809016994374945 -0.809016994374945 0.809016994374945 -0.809016994374945 
1.30901699437495 0 0.809016994374945 -0.5 
1.30901699437495 0.5 0 -0.809016994374945 
0.809016994374945 0.809016994374945 0.809016994374945 -0.809016994374945 
0.809016994374945 0.5 1.30901699437495 0 
-1.30901699437495 0 0.809016994374945 0.5 
-0.809016994374945 0 -0.5 1.30901699437495 
-0.5 -1.30901699437495 0.809016994374945 0 
-1.30901699437495 -0.809016994374945 -0.5 0 
-1.30901699437495 0.5 0 -0.809016994374945 
0 -1.30901699437495 -0.5 0.809016994374945 
-0.809016994374945 0.5 -1.30901699437495 0 
-0.5 -0.809016994374945 0 -1.30901699437495 
0 -0.809016994374945 -1.30901699437495 -0.5 
-0.5 0 1.30901699437495 -0.809016994374945 
-0.809016994374945 1.30901699437495 0 0.5 
0 -0.5 0.809016994374945 1.30901699437495 
0.5 0 -1.30901699437495 0.809016994374945 
0.809016994374945 -1.30901699437495 0 -0.5 
0 0.5 -0.809016994374945 -1.30901699437495 
0 0.809016994374945 1.30901699437495 0.5 
1.30901699437495 -0.5 0 0.809016994374945 
0.5 1.30901699437495 -0.809016994374945 0 
0.809016994374945 0 0.5 -1.30901699437495 
1.30901699437495 0 -0.809016994374945 -0.5 
0 1.30901699437495 0.5 -0.809016994374945 
0.809016994374945 -0.5 1.30901699437495 0 
0.5 0.809016994374945 0 1.30901699437495 
1.30901699437495 0.809016994374945 0.5 0 

# Faces
5 0 2 6 5 1
3 1 3 0
3 0 4 2
3 0 3 4
3 5 6 7
3 5 8 1
3 7 8 5
3 2 9 6
3 7 9 6
3 1 3 8
3 2 9 4
5 8 7 9 4 3
5 10 12 15 14 11
3 10 11 13
3 12 1 10
3 10 1 13
3 14 16 15
3 14 17 11
3 14 17 16
3 15 18 16
3 15 18 12
3 17 13 11
5 17 13 1 18 16
3 12 18 1
3 20 21 19
5 19 2 22 23 20
3 21 6 19
3 6 2 19
3 22 24 23
3 9 22 2
3 22 9 24
3 20 25 21
3 25 23 20
5 9 24 25 21 6
3 23 24 25
3 26 28 27
3 26 29 27
5 28 5 7 30 26
3 26 29 30
3 5 28 31
3 5 8 31
3 28 31 27
5 27 29 32 8 31
3 29 30 32
3 30 7 32
3 7 8 32
5 33 4 40 37 34
3 4 35 33
3 33 36 34
3 33 35 36
3 37 38 39
3 38 40 37
3 37 39 34
5 38 41 35 36 39
3 41 40 38
3 41 40 4
3 41 35 4
3 34 36 39
5 42 44 14 46 43
3 42 43 20
3 42 44 45
3 42 45 20
3 15 46 14
3 14 16 44
3 46 47 43
3 43 47 20
3 47 15 46
5 47 15 16 45 20
3 16 45 44
3 21 49 48
5 54 50 48 21 51
3 48 49 30
3 50 30 48
3 51 53 52
3 51 54 52
3 53 21 51
5 52 53 49 30 55
3 54 55 52
3 53 49 21
3 54 55 50
3 55 50 30
3 56 58 57
5 57 59 27 28 56
3 58 12 56
3 56 12 28
3 59 57 60
3 59 60 61
3 59 27 61
3 58 60 57
5 60 61 31 12 58
3 31 61 27
3 31 12 28
3 63 64 62
3 62 63 11
3 62 65 64
5 11 62 65 37 13
3 37 65 38
3 37 40 13
5 38 64 63 17 40
3 11 17 63
3 65 38 64
3 17 40 13
3 66 67 68
5 22 35 66 67 70
3 68 69 66
3 69 35 66
3 22 70 23
3 22 24 35
3 71 68 67
3 71 70 67
5 68 69 24 23 71
3 70 23 71
3 69 35 24
3 72 29 73
3 72 74 73
5 36 75 29 72 34
3 74 34 72
3 75 76 77
3 75 29 76
3 75 77 36
3 76 29 73
5 76 73 74 39 77
3 39 36 77
3 39 34 74
5 52 79 78 43 51
3 78 57 79
3 43 46 78
3 57 46 78
3 47 51 43
3 51 53 47
3 79 57 80
3 79 52 80
5 80 57 46 47 53
3 53 80 52
3 63 44 81
5 81 63 83 82 67
3 81 70 44
3 67 81 70
3 82 83 84
3 84 71 82
3 71 82 67
3 83 84 85
3 83 85 63
5 85 84 71 70 44
3 85 44 63
3 86 88 87
3 87 65 86
5 86 88 59 61 74
3 86 65 74
3 59 89 88
3 59 89 60
3 87 88 89
5 89 60 90 65 87
3 60 90 61
3 61 74 90
3 65 74 90
3 91 54 92
3 92 68 91
3 50 91 54
5 68 77 75 50 91
3 75 76 55
3 55 75 50
5 55 76 93 92 54
3 92 68 93
3 68 77 93
3 76 77 93
3 94 79 95
3 95 92 94
3 79 88 94
5 94 88 87 82 92
3 82 83 87
3 82 92 84
5 89 83 84 95 79
3 89 83 87
3 95 92 84
3 88 79 89
5 53 21 19 15 56
3 56 53 28
3 15 56 12
3 18 19 15
3 19 18 6
3 49 28 53
3 21 6 49
5 18 6 49 28 12
5 16 0 40 81 44
3 81 70 41
3 41 40 81
3 0 2 16
3 4 40 0
3 44 70 45
3 45 2 16
5 70 41 4 2 45
3 90 10 61
5 61 10 1 8 72
3 13 90 10
3 72 61 74
3 34 8 72
5 74 90 13 3 34
3 3 13 1
3 8 34 3
3 50 24 48
3 30 48 7
5 35 33 7 48 24
3 7 33 32
3 33 36 32
5 30 32 36 69 50
3 24 50 69
3 36 69 35
3 87 93 86
3 77 86 93
5 86 65 38 66 77
3 66 38 67
3 68 77 66
5 93 68 67 64 87
3 65 64 87
3 38 67 64
3 79 94 52
3 94 88 76
5 29 26 52 94 76
3 52 26 80
3 26 80 27
5 80 27 73 88 79
3 76 88 73
3 29 73 27
3 43 84 42
5 91 23 42 84 92
3 23 42 20
3 91 54 25
3 25 23 91
3 84 43 95
5 20 25 54 95 43
3 92 95 54
3 85 78 83
5 60 62 83 78 57
3 46 85 78
3 63 62 83
3 11 60 62
5 85 63 11 58 46
3 57 58 46
3 58 11 60
5 16 97 12 96 19
3 19 16 2
3 19 96 6
3 16 97 0
3 0 1 97
3 12 96 5
3 1 5 12
3 5 96 6
3 1 97 12
3 21 98 48
5 49 48 9 99 5
3 98 9 48
3 5 96 18
3 5 49 96
3 5 99 18
3 49 96 21
5 18 96 21 98 2
3 18 2 99
3 2 98 9
3 2 99 9
3 28 31 100
3 49 100 28
3 1 31 12
5 31 1 99 7 100
3 18 6 99
3 1 99 18
3 6 49 7
3 49 7 100
3 6 7 99
5 18 19 45 101 0
3 45 98 19
3 19 98 6
3 18 0 99
3 0 4 101
3 4 99 0
3 22 98 45
3 45 101 22
5 99 4 22 98 6
3 101 4 22
5 5 31 10 97 18
3 13 97 10
3 31 102 10
3 10 13 102
3 0 97 18
3 0 97 13
5 0 13 102 8 99
3 8 99 5
3 8 102 31
3 48 30 103
3 9 103 48
3 99 8 33
3 99 9 33
5 30 103 33 8 100
3 33 103 9
3 49 100 5
3 8 100 5
3 49 30 100
3 16 17 101
3 16 18 2
3 16 101 2
3 17 40 101
3 13 40 3
5 2 101 40 3 99
3 1 3 99
3 98 48 6
3 48 98 24
3 6 48 7
3 33 99 7
3 4 33 99
3 24 98 22
3 4 22 35
3 31 72 100
3 31 102 72
3 72 100 32
5 33 3 102 72 32
3 99 3 33
3 1 102 31
3 32 100 7
3 1 102 3
5 33 9 22 41 104
3 33 3 104
3 2 101 22
3 101 41 22
3 40 41 101
3 41 40 104
3 3 104 40
3 40 0 13
3 34 33 8
3 13 37 102
3 37 34 102
3 34 102 8
3 7 103 9
3 32 103 7
3 8 34 32
3 4 9 35
3 9 103 35
3 3 104 4
3 34 104 3
5 34 32 103 35 104
3 4 35 104
3 47 96 15
3 20 21 47
3 21 47 96
3 15 96 18
3 21 20 98
3 45 98 20
3 45 98 2
3 26 53 105
3 28 53 26
3 26 105 30
5 48 6 96 53 105
3 48 105 30
3 28 96 5
3 53 28 96
3 10 106 58
3 10 97 58
3 10 31 106
5 15 58 106 28 96
3 15 97 58
3 28 31 106
3 15 97 18
3 19 15 107
3 45 107 19
3 0 17 97
3 101 0 17
5 15 97 17 44 107
3 45 107 44
3 101 44 17
3 45 101 44
3 10 61 106
3 12 106 10
3 61 72 27
3 72 100 27
3 8 100 72
5 5 100 27 106 12
3 61 106 27
3 21 105 25
3 49 105 21
3 105 50 25
5 49 105 50 103 7
3 24 50 25
3 50 103 24
3 24 103 9
3 81 17 108
3 17 81 101
3 108 38 81
5 81 101 4 104 38
5 108 17 0 3 37
3 38 108 37
3 37 104 38
3 104 37 3
3 109 41 66
5 24 109 66 36 103
3 41 66 104
3 66 36 104
3 36 103 33
3 36 104 33
3 22 109 41
3 24 109 22
3 74 102 72
3 72 110 74
3 72 32 110
3 37 102 74
5 37 74 110 36 104
3 3 37 102
3 32 110 36
3 23 45 70
3 70 23 109
3 41 70 109
3 45 98 23
5 109 35 9 98 23
3 41 109 35
3 37 90 108
3 102 90 37
3 17 11 97
5 11 97 1 102 90
3 17 11 108
3 11 90 108
3 72 29 100
3 30 75 29
3 30 103 75
3 36 75 103
3 30 29 100
3 56 80 106
5 26 49 96 56 80
3 56 106 12
3 12 96 56
3 26 100 27
3 49 26 100
3 27 80 106
5 58 14 107 47 56
3 96 47 56
3 19 107 47
3 96 19 47
3 19 16 107
3 97 14 58
3 16 107 14
3 16 14 97
3 12 58 97
5 19 47 51 25 98
3 105 48 25
3 48 98 25
3 53 105 51
3 105 25 51
3 53 96 47
3 67 81 38
3 81 101 70
3 66 104 38
3 66 104 35
3 70 101 22
3 90 65 108
5 108 40 104 39 65
3 74 39 65
3 90 108 13
3 40 108 13
3 34 39 104
5 69 66 39 110 75
3 66 39 104
3 75 103 69
3 32 75 110
3 103 32 75
3 69 103 35
3 39 110 34
3 32 34 110
3 42 107 20
5 101 70 42 107 16
3 70 42 23
3 20 107 19
3 26 105 55
3 26 49 105
5 75 32 100 26 55
3 50 75 103
3 55 105 50
3 11 97 58
3 60 90 11
3 90 102 61
3 31 102 61
3 81 63 108
3 81 40 108
3 14 63 44
5 13 97 14 63 108
3 61 73 27
5 34 102 61 73 110
3 73 29 110
3 29 110 32
5 25 48 103 69 91
3 23 109 91
3 109 69 91
3 23 98 25
3 69 109 35
3 56 111 80
3 56 47 111
3 26 105 52
3 80 52 111
5 47 21 105 52 111
3 80 57 106
3 57 106 58
3 46 58 15
3 106 80 28
3 53 28 80
3 56 111 46
3 56 53 111
3 46 56 15
3 51 53 111
5 20 51 111 46 107
3 21 20 51
3 46 107 15
3 64 112 63
3 44 112 63
3 64 112 67
5 44 101 41 67 112
3 63 17 44
3 41 67 38
3 86 73 113
5 39 86 113 90 37
3 110 86 73
3 39 86 110
3 61 113 73
3 90 113 61
3 91 109 68
3 109 24 91
3 50 91 24
3 66 109 68
3 77 36 66
3 42 112 71
3 44 112 42
5 42 71 109 22 45
3 67 112 71
3 71 67 109
3 109 67 41
5 55 29 110 77 114
3 50 114 55
3 77 69 114
3 50 114 69
3 30 29 55
3 36 77 69
3 36 77 110
3 62 113 60
3 62 113 65
3 11 60 10
5 102 10 60 113 74
3 65 74 37
3 65 74 113
3 42 85 112
3 42 107 85
3 70 112 42
5 17 81 112 85 14
3 81 112 70
3 14 85 107
3 10 106 60
5 31 72 73 59 106
3 59 106 60
3 59 113 60
3 113 73 59
3 73 113 74
3 91 114 54
3 69 114 91
5 105 30 75 114 54
3 75 114 69
3 54 105 25
3 81 64 108
5 41 66 115 64 81
3 66 39 115
3 64 65 115
3 65 64 108
3 39 115 65
5 109 67 115 77 69
3 67 38 115
3 39 38 115
3 77 115 39
3 86 110 77
3 74 110 86
3 80 52 116
5 100 28 80 116 29
3 52 116 55
3 55 29 116
3 51 117 43
3 25 117 51
5 107 43 117 23 45
3 47 107 43
3 25 23 117
5 56 106 60 118 46
3 14 46 118
3 14 11 118
3 11 118 60
3 106 80 59
3 116 59 80
3 73 116 59
3 73 116 29
3 46 85 107
3 85 107 44
3 91 54 117
5 24 98 20 117 91
3 51 54 117
3 51 20 117
3 26 27 116
3 55 116 26
5 72 110 76 116 27
3 75 76 110
3 76 116 55
3 71 117 42
3 20 42 117
3 91 71 117
3 109 71 91
3 63 118 62
5 10 90 62 118 58
3 63 108 62
3 108 90 62
3 14 118 63
3 14 118 58
3 64 81 112
3 66 68 115
3 112 82 64
5 70 112 82 68 109
3 115 82 64
3 82 115 68
5 68 114 76 86 115
3 39 115 86
3 110 76 86
3 75 76 114
3 69 68 114
3 62 87 113
5 38 115 87 62 108
3 90 62 113
3 86 113 87
3 86 115 87
3 57 111 56
5 26 116 79 111 53
3 59 79 57
3 116 79 59
3 27 116 59
3 79 111 57
3 43 111 95
3 111 95 52
3 54 95 52
3 43 111 47
3 52 105 54
3 14 118 85
5 118 57 111 43 85
3 107 43 85
3 58 57 118
3 88 76 86
3 59 88 116
3 76 116 88
3 85 83 118
3 85 112 83
5 108 64 83 118 11
3 112 64 83
3 117 71 92
5 25 117 92 114 50
3 68 71 92
3 68 114 92
3 23 71 117
3 52 94 54
3 54 114 94
3 76 114 94
3 84 85 43
3 43 117 84
3 71 84 117
3 118 89 62
3 62 113 89
3 118 57 89
5 57 106 61 113 89
5 88 113 65 115 93
3 76 88 93
3 73 113 88
3 77 115 93
3 83 87 62
3 87 115 82
3 67 115 82
5 82 93 114 91 71
3 82 93 115
3 77 114 93
5 93 94 116 73 86
3 114 93 94
3 55 94 116
3 114 55 94
3 84 112 42
3 82 112 84
3 92 82 68
3 83 118 89
3 87 64 83
3 60 89 118
5 105 55 94 95 51
3 79 94 116
3 111 95 51
3 79 95 111
3 118 78 89
5 89 78 111 80 59
3 78 118 46
3 78 111 46
5 78 85 42 117 95
3 95 78 111
3 51 95 117
3 79 89 57
3 89 113 88
3 92 114 94
3 95 117 92
5 63 112 84 78 118
3 78 84 43
5 62 89 119 82 64
3 82 119 93
3 89 119 88
3 93 119 88
3 87 119 83
5 112 71 92 119 83
3 93 119 87
3 92 119 93
3 94 119 79
3 94 119 93
5 59 79 119 87 113
5 54 94 119 84 117
3 82 119 84
3 84 119 78
3 89 78 119
3 95 119 92
5 116 88 119 95 52
3 83 78 119
3 78 119 79
3 78 95 119

# Cells
12 0 1 2 3 4 5 6 7 8 9 10 11
12 12 13 14 15 16 17 18 19 20 21 22 23
12 7 24 25 26 27 28 29 30 31 32 33 34
12 6 35 36 37 38 39 40 41 42 43 44 45
12 46 47 48 49 50 51 52 53 54 55 56 57
12 16 58 59 60 61 62 63 64 65 66 67 68
12 69 70 71 72 73 74 75 76 77 78 79 80
12 41 81 82 83 84 85 86 87 88 89 90 91
12 21 51 92 93 94 95 96 97 98 99 100 101
12 28 102 103 104 105 106 107 108 109 110 111 112
12 57 113 114 115 116 117 118 119 120 121 122 123
12 64 73 124 125 126 127 128 129 130 131 132 133
12 109 134 135 136 137 138 139 140 141 142 143 144
12 86 145 146 147 148 149 150 151 152 153 154 155
12 79 117 156 157 158 159 160 161 162 163 164 165
12 138 151 166 167 168 169 170 171 172 173 174 175
12 20 26 78 84 176 177 178 179 180 181 182 183
12 2 55 68 136 184 185 186 187 188 189 190 191
12 9 15 116 154 192 193 194 195 196 197 198 199
12 44 49 72 112 200 201 202 203 204 205 206 207
12 100 102 146 164 208 209 210 211 212 213 214 215
12 36 120 131 168 216 217 218 219 220 221 222 223
12 32 59 156 174 224 225 226 227 228 229 230 231
12 88 93 127 142 232 233 234 235 236 237 238 239
12 0 27 187 240 241 242 243 244 245 246 247 248
12 69 249 250 251 252 253 254 255 256 257 258 259
12 23 91 183 260 261 262 263 264 265 266 267 268
12 180 264 269 270 271 272 273 274 275 276 277 278
12 40 254 272 279 280 281 282 283 284 285 286 287
12 71 250 286 288 289 290 291 292 293 294 295 296
12 22 101 198 257 265 297 298 299 300 301 302 303
12 47 107 202 268 277 304 305 306 307 308 309 310
12 203 263 303 307 311 312 313 314 315 316 317 318
12 29 259 291 302 315 319 320 321 322 323 324 325
12 46 97 188 274 285 290 308 326 327 328 329 330
12 11 45 199 331 332 333 334 335 336 337 338 339
12 19 67 190 256 298 340 341 342 343 344 345 346
12 4 37 201 247 306 347 348 349 350 351 352 353
12 39 252 279 343 352 354 355 356 357 358 359 360
12 179 269 283 360 361 362 363 364 365 366 367 368
12 5 14 193 246 295 369 370 371 372 373 374 375
12 8 33 182 266 331 376 377 378 379 380 381 382
12 3 273 336 364 383 384 385 386 387 388 389 390
12 30 293 319 382 391 392 393 394 395 396 397 398
12 204 314 320 390 396 399 400 401 402 403 404 405
12 10 56 191 258 334 346 406 407 408 409 410 411
12 1 244 318 363 387 404 412 413 414 415 416 417
12 48 115 196 292 327 373 395 418 419 420 421 422
12 220 245 253 294 374 423 424 425 426 427 428 429
12 83 240 426 430 431 432 433 434 435 436 437 438
12 129 242 271 304 350 433 439 440 441 442 443 444
12 103 137 211 278 310 339 386 445 446 447 448 449
12 123 155 197 301 325 337 450 451 452 453 454 455
12 105 338 448 455 456 457 458 459 460 461 462 463
12 25 106 226 241 299 321 434 449 464 465 466 467
12 161 267 317 332 379 428 460 468 469 470 471 472
12 89 153 239 248 262 316 415 438 473 474 475 476
12 63 134 184 243 284 326 437 454 477 478 479 480
12 42 90 223 287 330 333 463 476 481 482 483 484
12 228 251 289 335 410 441 461 485 486 487 488 489
12 219 255 342 377 424 431 469 490 491 492 493 494
12 66 132 238 340 353 357 444 495 496 497 498 499
12 24 75 176 361 467 500 501 502 503 504 505 506
12 54 98 215 300 323 367 507 508 509 510 511 512
12 52 329 413 462 475 482 513 514 515 516 517 518
12 119 159 212 381 392 421 471 519 520 521 522 523
12 60 276 322 368 397 510 524 525 526 527 528 529
12 43 80 205 405 484 530 531 532 533 534 535 536
12 13 95 236 282 328 402 537 538 539 540 541 542
12 18 297 384 436 446 465 543 544 545 546 547 548
12 114 281 312 356 399 540 549 550 551 552 553 554
12 227 288 351 420 440 458 485 555 556 557 558 559
12 186 324 393 451 457 478 560 561 562 563 564 565
12 53 122 207 411 489 512 529 535 566 567 568 569
12 96 148 210 389 394 403 447 523 536 541 570 571
12 76 133 181 261 296 422 499 534 572 573 574 575
12 128 270 362 409 432 439 488 576 577 578 579 580
12 12 62 178 370 425 502 539 549 581 582 583 584
12 113 260 311 359 418 498 550 573 585 586 587 588
12 99 144 237 358 365 414 473 497 506 511 589 590
12 70 158 200 249 305 344 505 521 591 592 593 594
12 160 313 372 401 427 459 470 595 596 597 598 599
12 61 275 309 345 398 520 526 592 600 601 602 603
12 194 280 355 435 453 480 604 605 606 607 608 609
12 185 391 408 522 547 561 610 611 612 613 614 615
12 104 456 516 558 562 598 611 616 617 618 619 620
12 50 388 412 514 568 607 617 621 622 623 624 625
12 35 82 177 348 501 595 626 627 628 629 630 631
12 31 65 230 341 376 494 559 632 633 634 635 636
12 81 430 491 548 579 609 626 635 637 638 639 640
12 87 147 195 371 400 571 597 618 630 641 642 643
12 17 383 416 546 560 583 610 637 644 645 646 647
12 34 110 206 380 533 580 620 648 649 650 651 652
12 38 118 218 349 419 492 557 619 636 653 654 655
12 111 143 189 366 406 578 590 639 652 656 657 658
12 192 354 369 496 518 605 623 640 659 660 661 662
12 121 165 222 452 542 554 565 569 663 664 665 666
12 135 170 235 385 445 477 567 606 622 667 668 669
12 140 487 528 532 556 566 603 666 669 670 671 672
12 209 483 515 530 570 575 588 672 673 674 675 676
12 157 171 225 407 466 486 519 545 613 677 678 679
12 152 173 214 417 450 474 564 584 646 680 681 682
12 166 347 442 468 503 596 627 675 683 684 685 686
12 150 423 490 500 551 581 585 682 687 688 689 690
12 234 464 504 544 589 594 601 685 690 691 692 693
12 130 175 221 375 429 481 495 517 662 665 694 695
12 167 378 443 472 531 577 649 676 683 693 696 697
12 58 126 224 479 508 525 582 608 677 689 698 699
12 145 169 217 615 616 625 641 651 655 668 679 696
12 94 538 563 614 660 663 671 695 700 701 702 703
12 108 163 213 509 527 647 650 681 704 705 706 707
12 208 513 553 587 624 629 673 684 706 708 709 710
12 139 555 591 602 654 658 670 674 701 709 711 712
12 92 507 604 612 659 678 687 698 700 712 713 714
12 77 162 231 574 599 634 643 664 703 707 715 716
12 85 125 233 537 552 621 628 667 704 710 717 718
12 232 524 543 600 645 648 691 697 705 715 717 719
12 149 493 572 586 633 642 688 692 702 714 716 719
12 74 124 216 576 593 653 657 699 708 711 713 718
12 141 172 229 631 632 638 644 656 661 680 686 694
