# Generated using Miratope v0.5.0 (https://github.com/galoomba1/miratope-rs)
4OFF

# Vertices, Faces, Edges, Cells
120 1440 1080 120

# Vertices
0.809016994374945 0.809016994374945 -0.809016994374945 0.809016994374945 
0.809016994374945 -0.809016994374945 -0.809016994374945 -0.809016994374945 
-0.809016994374945 0.809016994374945 -0.809016994374945 -0.809016994374945 
-0.809016994374945 -0.809016994374945 -0.809016994374945 0.809016994374945 
0.809016994374945 0.809016994374945 -0.809016994374945 -0.809016994374945 
0.809016994374945 -0.809016994374945 -0.809016994374945 0.809016994374945 
-0.809016994374945 0.809016994374945 -0.809016994374945 0.809016994374945 
-0.809016994374945 -0.809016994374945 -0.809016994374945 -0.809016994374945 
0 0.5 -0.809016994374945 1.30901699437495 
0.5 -1.30901699437495 -0.809016994374945 0 
-1.30901699437495 0 -0.809016994374945 -0.5 
0.5 1.30901699437495 -0.809016994374945 0 
-1.30901699437495 0 -0.809016994374945 0.5 
0 -0.5 -0.809016994374945 -1.30901699437495 
1.30901699437495 0 -0.809016994374945 -0.5 
-0.5 -1.30901699437495 -0.809016994374945 0 
1.30901699437495 0 -0.809016994374945 0.5 
-0.5 1.30901699437495 -0.809016994374945 0 
-0.809016994374945 0.809016994374945 0.809016994374945 0.809016994374945 
-0.809016994374945 0 0.5 1.30901699437495 
-0.809016994374945 1.30901699437495 0 -0.5 
-0.809016994374945 -0.5 -1.30901699437495 0 
0 1.30901699437495 0.5 0.809016994374945 
0.5 0 -1.30901699437495 0.809016994374945 
-1.30901699437495 -0.5 0 0.809016994374945 
0 1.61803398874989 0 0 
0 0 0 1.61803398874989 
-1.61803398874989 0 0 0 
0 0 -1.61803398874989 0 
-1.30901699437495 0.809016994374945 0.5 0 
0 -0.5 -0.809016994374945 1.30901699437495 
0 0.809016994374945 -1.30901699437495 -0.5 
-0.809016994374945 -0.809016994374945 0.809016994374945 -0.809016994374945 
-0.809016994374945 -1.30901699437495 0 0.5 
-0.809016994374945 0.5 -1.30901699437495 0 
-0.809016994374945 0 0.5 -1.30901699437495 
-1.30901699437495 0.5 0 -0.809016994374945 
0.5 0 -1.30901699437495 -0.809016994374945 
0 -1.30901699437495 0.5 -0.809016994374945 
0 -1.61803398874989 0 0 
0 0 0 -1.61803398874989 
0 -0.809016994374945 -1.30901699437495 0.5 
0 0.5 -0.809016994374945 -1.30901699437495 
-1.30901699437495 -0.809016994374945 0.5 0 
0.809016994374945 0.809016994374945 0.809016994374945 -0.809016994374945 
1.30901699437495 0.809016994374945 0.5 0 
0 0.809016994374945 -1.30901699437495 0.5 
-0.5 0.809016994374945 0 -1.30901699437495 
1.61803398874989 0 0 0 
0.809016994374945 0 0.5 -1.30901699437495 
-0.5 0 -1.30901699437495 -0.809016994374945 
0.809016994374945 1.30901699437495 0 0.5 
1.30901699437495 -0.5 0 -0.809016994374945 
0.809016994374945 -0.809016994374945 0.809016994374945 0.809016994374945 
1.30901699437495 -0.809016994374945 0.5 0 
-0.5 -0.809016994374945 0 1.30901699437495 
0 -0.809016994374945 -1.30901699437495 -0.5 
0.809016994374945 0 0.5 1.30901699437495 
-0.5 0 -1.30901699437495 0.809016994374945 
1.30901699437495 0.5 0 0.809016994374945 
0.809016994374945 -1.30901699437495 0 -0.5 
-0.809016994374945 0.809016994374945 0.809016994374945 -0.809016994374945 
-0.809016994374945 -0.809016994374945 0.809016994374945 0.809016994374945 
-0.809016994374945 0.5 1.30901699437495 0 
-0.809016994374945 0 -0.5 -1.30901699437495 
-0.809016994374945 -0.5 1.30901699437495 0 
-0.809016994374945 0 -0.5 1.30901699437495 
0.809016994374945 -0.809016994374945 0.809016994374945 -0.809016994374945 
0 1.30901699437495 0.5 -0.809016994374945 
-1.30901699437495 -0.5 0 -0.809016994374945 
1.30901699437495 0.5 0 -0.809016994374945 
-0.5 0 1.30901699437495 -0.809016994374945 
0 -1.30901699437495 -0.5 -0.809016994374945 
0 1.30901699437495 -0.5 -0.809016994374945 
0.809016994374945 0.809016994374945 0.809016994374945 0.809016994374945 
0 0.809016994374945 1.30901699437495 0.5 
0.5 0.809016994374945 0 -1.30901699437495 
-1.30901699437495 0.809016994374945 -0.5 0 
0.5 0.809016994374945 0 1.30901699437495 
0 0.809016994374945 1.30901699437495 -0.5 
-0.5 0.809016994374945 0 1.30901699437495 
-1.30901699437495 0.5 0 0.809016994374945 
0 -1.30901699437495 0.5 0.809016994374945 
-0.5 0 1.30901699437495 0.809016994374945 
0 -1.30901699437495 -0.5 0.809016994374945 
1.30901699437495 -0.5 0 0.809016994374945 
0 1.30901699437495 -0.5 0.809016994374945 
0 -0.809016994374945 1.30901699437495 0.5 
0.5 -0.809016994374945 0 -1.30901699437495 
-1.30901699437495 -0.809016994374945 -0.5 0 
-0.5 -0.809016994374945 0 -1.30901699437495 
0.5 -0.809016994374945 0 1.30901699437495 
0 -0.809016994374945 1.30901699437495 -0.5 
0.809016994374945 -1.30901699437495 0 0.5 
0.809016994374945 0.5 -1.30901699437495 0 
0.809016994374945 0.5 1.30901699437495 0 
0.809016994374945 0 -0.5 -1.30901699437495 
0.809016994374945 1.30901699437495 0 -0.5 
0.809016994374945 -0.5 -1.30901699437495 0 
0.809016994374945 -0.5 1.30901699437495 0 
0.809016994374945 0 -0.5 1.30901699437495 
0.5 1.30901699437495 0.809016994374945 0 
-1.30901699437495 0 0.809016994374945 0.5 
0 -0.5 0.809016994374945 -1.30901699437495 
0 0 1.61803398874989 0 
0.5 0 1.30901699437495 -0.809016994374945 
-0.809016994374945 1.30901699437495 0 0.5 
0 0.5 0.809016994374945 1.30901699437495 
0.5 -1.30901699437495 0.809016994374945 0 
-1.30901699437495 0 0.809016994374945 -0.5 
-0.809016994374945 -1.30901699437495 0 -0.5 
0.5 0 1.30901699437495 0.809016994374945 
0 -0.5 0.809016994374945 1.30901699437495 
1.30901699437495 0.809016994374945 -0.5 0 
-0.5 1.30901699437495 0.809016994374945 0 
0 0.5 0.809016994374945 -1.30901699437495 
1.30901699437495 -0.809016994374945 -0.5 0 
-0.5 -1.30901699437495 0.809016994374945 0 
1.30901699437495 0 0.809016994374945 -0.5 
1.30901699437495 0 0.809016994374945 0.5 

# Faces
3 0 2 1
3 1 3 0
3 0 3 2
3 4 5 6
3 4 7 5
3 6 7 4
3 8 9 4
3 4 8 10
3 9 10 4
3 6 7 5
3 11 12 5
3 5 11 13
3 5 13 12
3 2 3 1
3 2 8 14
3 8 15 2
3 2 14 15
3 16 17 3
3 3 16 13
3 3 17 13
3 17 13 16
3 12 13 11
3 14 15 8
3 9 10 8
3 2 18 0
3 0 3 18
3 19 20 0
3 19 21 0
3 20 21 0
3 2 18 3
3 2 23 22
3 2 24 22
3 23 24 2
3 25 26 27
3 25 28 26
3 25 28 27
3 26 28 27
3 26 29 11
3 11 21 26
3 26 21 29
3 27 30 22
3 27 31 22
3 27 30 31
3 22 30 31
3 23 24 22
3 20 21 19
3 29 21 11
3 2 32 1
3 3 32 1
3 1 34 33
3 33 35 1
3 1 34 35
3 2 32 3
3 36 37 3
3 36 38 3
3 37 38 3
3 28 39 27
3 27 39 40
3 27 40 28
3 27 38 41
3 38 42 27
3 41 42 27
3 39 40 28
3 40 34 43
3 40 9 43
3 34 9 40
3 43 9 34
3 37 38 36
3 33 35 34
3 41 42 38
3 0 1 44
3 0 2 44
3 1 44 2
3 16 17 44
3 13 44 16
3 17 44 13
3 45 46 1
3 1 47 45
3 46 47 1
3 28 48 25
3 48 40 25
3 28 48 40
3 25 40 28
3 25 49 16
3 25 50 16
3 25 50 49
3 28 52 51
3 28 51 47
3 28 47 52
3 45 47 46
3 52 47 51
3 16 49 50
3 0 1 53
3 0 3 53
3 54 55 0
3 0 54 56
3 0 55 56
3 3 53 1
3 14 53 8
3 8 53 15
3 15 53 14
3 26 39 48
3 28 26 48
3 28 48 39
3 28 26 39
3 57 14 39
3 57 58 39
3 14 58 39
3 28 55 59
3 59 60 28
3 28 60 55
3 59 60 55
3 14 58 57
3 54 55 56
3 18 32 2
3 3 18 32
3 34 18 33
3 33 18 35
3 34 35 18
3 6 62 61
3 7 61 6
3 62 7 61
3 6 7 62
3 6 33 63
3 63 64 6
3 6 64 33
3 20 32 19
3 19 32 21
3 21 32 20
3 7 65 20
3 7 66 20
3 7 66 65
3 33 64 63
3 65 66 20
3 32 44 1
3 2 44 32
3 36 44 37
3 38 44 36
3 37 38 44
3 67 61 4
3 4 7 67
3 4 61 7
3 61 7 67
3 68 37 67
3 67 68 69
3 67 37 69
3 70 71 2
3 2 72 70
3 71 72 2
3 52 71 7
3 7 73 52
3 7 71 73
3 71 72 70
3 68 37 69
3 71 73 52
3 4 74 61
3 6 74 4
3 6 74 61
3 18 44 0
3 2 44 18
3 0 76 75
3 0 75 77
3 0 76 77
3 46 18 45
3 45 18 47
3 46 47 18
3 6 61 4
3 4 78 79
3 4 77 78
3 79 77 4
3 45 80 61
3 61 31 45
3 61 80 31
3 80 31 45
3 79 77 78
3 75 76 77
3 6 5 74
3 5 62 74
3 62 74 6
3 74 23 81
3 74 82 81
3 74 23 82
3 18 53 0
3 3 53 18
3 23 53 22
3 22 24 53
3 23 53 24
3 6 62 5
3 6 59 83
3 6 59 84
3 83 84 6
3 3 83 85
3 3 86 85
3 3 83 86
3 83 84 59
3 85 83 86
3 81 82 23
3 32 53 1
3 3 32 53
3 5 62 67
3 7 67 5
3 7 62 5
3 87 88 5
3 5 89 87
3 88 89 5
3 7 62 67
3 62 54 41
3 62 54 90
3 62 90 41
3 91 92 1
3 1 89 91
3 92 89 1
3 54 32 55
3 54 32 56
3 56 32 55
3 54 90 41
3 91 89 92
3 88 89 87
3 4 74 5
3 4 74 67
3 74 67 5
3 74 94 93
3 93 49 74
3 74 94 49
3 0 44 53
3 1 44 53
3 0 93 95
3 0 95 96
3 0 93 96
3 5 67 4
3 67 97 57
3 67 98 57
3 97 98 67
3 1 97 99
3 1 100 97
3 99 100 1
3 93 96 95
3 57 97 98
3 99 100 97
3 93 94 49
3 32 44 18
3 101 102 2
3 2 101 103
3 2 103 102
3 76 32 75
3 75 77 32
3 76 77 32
3 27 104 25
3 40 104 25
3 25 40 27
3 105 102 25
3 25 64 105
3 102 64 25
3 40 104 27
3 104 106 76
3 106 69 104
3 104 69 76
3 102 103 101
3 106 69 76
3 105 64 102
3 18 53 32
3 91 18 92
3 89 18 91
3 92 18 89
3 3 107 108
3 3 107 109
3 3 109 108
3 26 104 27
3 39 104 26
3 27 104 39
3 104 81 91
3 104 110 91
3 104 110 81
3 26 39 27
3 39 66 111
3 111 109 39
3 66 109 39
3 66 109 111
3 107 108 109
3 91 81 110
3 44 53 18
3 85 83 44
3 85 86 44
3 83 44 86
3 97 18 99
3 97 100 18
3 99 18 100
3 48 104 25
3 25 26 48
3 26 48 104
3 86 79 48
3 86 112 48
3 79 112 48
3 25 26 104
3 113 99 26
3 113 114 26
3 99 114 26
3 99 114 113
3 86 112 79
3 44 53 32
3 70 71 53
3 70 72 53
3 71 53 72
3 95 32 93
3 95 32 96
3 93 32 96
3 39 104 48
3 40 104 48
3 40 39 48
3 48 115 87
3 87 72 48
3 115 72 48
3 39 104 40
3 40 116 95
3 40 117 95
3 40 117 116
3 95 116 117
3 87 72 115
3 67 74 61
3 62 74 67
3 61 62 74
3 107 44 108
3 107 109 44
3 108 109 44
3 101 102 53
3 103 53 101
3 102 103 53
3 62 67 61
3 107 118 61
3 107 117 61
3 61 118 117
3 119 114 62
3 62 103 119
3 62 114 103
3 114 103 119
3 107 118 117
3 12 61 11
3 11 61 13
3 12 61 13
3 68 37 6
3 68 6 69
3 69 6 37
3 106 28 76
3 69 28 106
3 69 28 76
3 11 29 40
3 11 40 21
3 29 21 40
3 8 62 9
3 8 10 62
3 9 10 62
3 23 7 81
3 82 7 81
3 82 7 23
3 34 26 43
3 43 26 9
3 34 9 26
3 91 81 28
3 110 28 91
3 110 28 81
3 45 5 80
3 45 5 31
3 80 5 31
3 97 6 57
3 98 6 57
3 97 98 6
3 30 48 22
3 22 48 31
3 30 48 31
3 57 14 25
3 58 25 57
3 14 58 25
3 54 41 4
3 54 90 4
3 41 4 90
3 94 7 93
3 49 7 93
3 49 7 94
3 38 48 41
3 42 48 38
3 41 42 48
3 49 39 16
3 50 39 16
3 49 39 50
3 107 118 5
3 107 117 5
3 118 5 117
3 59 83 67
3 59 84 67
3 83 67 84
3 55 104 59
3 60 104 59
3 55 104 60
3 95 26 116
3 95 26 117
3 117 26 116
3 52 71 74
3 52 74 73
3 73 74 71
3 114 4 119
3 103 4 119
3 103 4 114
3 51 104 52
3 47 104 51
3 47 104 52
3 113 40 99
3 113 40 114
3 99 114 40
3 33 67 63
3 63 64 67
3 64 67 33
3 87 61 88
3 87 89 61
3 88 89 61
3 87 115 27
3 87 27 72
3 115 27 72
3 105 102 39
3 64 39 105
3 102 39 64
3 20 74 65
3 20 66 74
3 66 74 65
3 79 62 78
3 78 62 77
3 77 62 79
3 111 66 25
3 111 25 109
3 66 109 25
3 79 27 86
3 86 112 27
3 79 112 27
3 36 86 3
3 37 86 3
3 20 94 7
3 7 94 66
3 7 81 73
3 7 73 23
3 27 86 41
3 27 86 42
3 37 86 36
3 41 86 42
3 106 23 42
3 106 89 23
3 106 89 42
3 11 36 66
3 66 56 11
3 36 56 11
3 20 66 94
3 36 56 66
3 81 73 23
3 23 42 89
3 4 77 41
3 77 90 4
3 1 89 46
3 1 89 47
3 96 41 17
3 17 69 96
3 17 41 69
3 73 12 98
3 73 90 98
3 12 90 73
3 94 12 47
3 94 47 72
3 94 72 12
3 46 36 96
3 46 15 96
3 47 89 46
3 46 15 36
3 41 90 77
3 12 90 98
3 96 15 36
3 96 69 41
3 12 72 47
3 0 96 20
3 0 76 56
3 0 56 77
3 0 21 96
3 6 97 64
3 64 98 6
3 64 14 25
3 25 58 64
3 113 20 58
3 20 13 113
3 113 58 13
3 97 98 64
3 86 76 98
3 76 10 86
3 86 10 98
3 58 64 14
3 20 96 21
3 20 58 13
3 77 56 76
3 76 98 10
3 33 98 6
3 6 84 37
3 84 69 6
3 23 72 2
3 2 24 72
3 30 72 27
3 27 72 31
3 30 77 37
3 30 77 110
3 30 72 31
3 30 110 37
3 23 72 24
3 24 9 46
3 46 24 64
3 46 9 64
3 77 110 37
3 9 64 24
3 64 98 33
3 37 84 69
3 4 78 41
3 16 66 25
3 25 50 66
3 77 51 30
3 37 51 30
3 77 37 51
3 98 78 73
3 73 78 12
3 77 78 41
3 12 78 98
3 106 30 113
3 106 50 113
3 113 30 50
3 16 73 80
3 16 21 80
3 80 21 73
3 16 50 66
3 16 73 21
3 106 50 30
3 2 70 23
3 7 23 52
3 40 113 34
3 40 9 113
3 40 116 11
3 116 21 40
3 34 9 113
3 72 70 23
3 46 70 9
3 46 64 70
3 9 64 70
3 16 73 88
3 21 88 16
3 11 21 116
3 73 52 23
3 21 88 73
3 0 77 55
3 5 89 80
3 5 89 31
3 17 24 100
3 100 56 17
3 81 31 100
3 100 81 15
3 24 56 100
3 100 31 15
3 94 84 80
3 80 10 94
3 80 10 84
3 31 89 80
3 86 98 55
3 86 55 10
3 17 24 56
3 56 77 55
3 98 55 10
3 81 15 31
3 84 10 94
3 5 88 31
3 39 64 14
3 39 58 64
3 58 42 116
3 116 58 110
3 42 110 116
3 14 34 84
3 14 90 84
3 34 90 14
3 94 88 84
3 94 88 10
3 42 60 23
3 89 60 23
3 89 60 42
3 42 110 58
3 84 90 34
3 84 10 88
3 89 31 88
3 1 97 34
3 34 100 1
3 48 86 41
3 86 42 48
3 17 96 59
3 41 59 17
3 96 41 59
3 116 51 58
3 116 51 42
3 58 42 51
3 100 34 97
3 8 116 97
3 8 50 97
3 97 50 116
3 100 17 70
3 100 70 56
3 56 70 17
3 8 116 50
3 33 100 1
3 46 91 1
3 7 93 66
3 66 16 39
3 66 50 39
3 34 33 100
3 94 12 91
3 94 72 91
3 89 91 46
3 12 91 72
3 8 116 33
3 50 33 8
3 116 50 33
3 93 66 94
3 6 59 37
3 37 85 3
3 26 113 34
3 26 9 113
3 26 11 116
3 21 116 26
3 84 37 59
3 14 78 84
3 14 34 78
3 84 34 78
3 86 85 37
3 11 66 85
3 11 56 85
3 66 85 56
3 0 93 21
3 48 30 72
3 72 31 48
3 113 60 30
3 58 93 113
3 113 13 93
3 50 60 113
3 96 85 46
3 46 15 85
3 15 85 96
3 100 52 31
3 100 15 52
3 31 52 15
3 30 60 50
3 93 21 96
3 58 13 93
3 3 109 17
3 3 13 109
3 47 81 28
3 28 110 47
3 20 43 58
3 20 43 13
3 24 35 17
3 17 13 109
3 17 56 35
3 42 29 58
3 58 110 29
3 110 29 42
3 81 110 47
3 81 35 31
3 81 35 15
3 24 35 56
3 58 13 43
3 31 35 15
3 1 35 97
3 20 49 7
3 34 35 97
3 17 70 35
3 56 35 70
3 36 49 11
3 56 49 11
3 34 68 14
3 14 90 68
3 88 68 94
3 94 10 68
3 90 68 34
3 88 68 10
3 94 20 49
3 36 49 56
3 4 114 8
3 4 114 10
3 28 51 81
3 58 29 51
3 51 29 42
3 47 51 81
3 94 22 47
3 94 12 22
3 12 22 47
3 97 29 8
3 50 29 97
3 8 114 10
3 94 68 80
3 10 80 68
3 8 29 50
3 2 8 102
3 15 102 2
3 28 106 55
3 55 69 28
3 106 69 55
3 30 43 106
3 50 43 106
3 17 41 19
3 69 19 17
3 36 19 46
3 15 19 46
3 36 19 15
3 41 19 69
3 8 29 33
3 8 15 102
3 30 50 43
3 50 33 29
3 6 68 59
3 2 8 101
3 2 101 14
3 2 70 22
3 28 106 59
3 59 76 28
3 106 45 23
3 106 42 45
3 42 45 23
3 106 59 76
3 37 68 59
3 8 101 14
3 78 68 14
3 34 68 78
3 23 70 22
3 4 103 9
3 4 103 10
3 2 14 103
3 2 15 103
3 52 110 28
3 28 76 60
3 60 69 28
3 52 110 47
3 52 35 31
3 52 35 15
3 14 15 103
3 76 69 60
3 76 38 98
3 10 38 76
3 98 38 10
3 9 103 10
3 19 93 0
3 33 57 6
3 46 57 24
3 46 57 9
3 9 57 24
3 98 57 33
3 78 82 98
3 78 12 82
3 46 85 19
3 15 85 19
3 80 16 82
3 80 21 82
3 16 21 82
3 21 19 93
3 98 82 12
3 38 85 3
3 3 16 108
3 3 13 108
3 7 82 52
3 28 52 91
3 38 85 37
3 30 37 54
3 110 54 30
3 37 54 110
3 13 108 16
3 88 82 16
3 110 52 91
3 82 52 23
3 21 88 82
3 4 119 8
3 9 119 4
3 4 78 54
3 1 91 45
3 28 51 91
3 45 91 46
3 8 119 9
3 51 54 30
3 37 54 51
3 51 91 52
3 70 57 46
3 9 57 70
3 54 78 41
3 12 117 5
3 5 13 117
3 55 69 60
3 98 38 55
3 10 55 38
3 30 60 43
3 93 43 58
3 93 43 13
3 98 82 90
3 90 82 12
3 60 43 50
3 12 13 117
3 5 11 107
3 5 107 12
3 3 16 107
3 17 107 3
3 55 106 59
3 59 19 17
3 59 19 41
3 81 91 51
3 91 22 94
3 12 22 91
3 16 17 107
3 11 107 12
3 0 54 76
3 88 45 5
3 5 11 118
3 5 13 118
3 23 60 45
3 60 45 42
3 45 88 31
3 60 76 59
3 11 85 49
3 85 49 56
3 13 118 11
3 56 76 54
3 44 36 86
3 44 37 86
3 34 114 40
3 51 115 77
3 37 115 51
3 46 96 101
3 46 101 36
3 96 101 36
3 113 34 114
3 113 106 115
3 113 50 115
3 70 46 114
3 64 114 70
3 46 64 114
3 50 115 106
3 37 115 77
3 46 89 18
3 18 47 89
3 80 89 61
3 61 31 89
3 25 58 102
3 25 50 109
3 46 114 24
3 64 24 114
3 80 109 73
3 80 21 109
3 66 109 50
3 21 109 73
3 102 58 64
3 61 88 31
3 32 96 20
3 56 76 32
3 32 77 56
3 32 21 96
3 27 115 31
3 73 88 109
3 77 115 110
3 72 115 31
3 110 115 37
3 88 109 21
3 23 72 53
3 53 24 72
3 26 117 21
3 66 117 85
3 85 56 117
3 100 108 24
3 56 108 100
3 58 112 116
3 116 110 112
3 23 60 112
3 23 112 89
3 89 112 60
3 110 112 58
3 117 21 116
3 66 117 56
3 56 108 24
3 74 93 66
3 74 66 94
3 48 41 112
3 80 94 119
3 80 119 84
3 86 55 119
3 98 119 86
3 55 119 98
3 94 84 119
3 116 51 112
3 51 112 58
3 93 107 113
3 113 107 58
3 93 107 58
3 86 112 41
3 53 70 23
3 67 59 37
3 67 84 37
3 59 96 108
3 59 41 108
3 94 119 88
3 84 119 88
3 91 94 118
3 91 118 72
3 94 72 118
3 70 108 100
3 56 70 108
3 96 108 41
3 41 77 62
3 62 77 90
3 32 55 77
3 39 58 102
3 109 50 39
3 66 117 36
3 84 102 34
3 84 90 102
3 34 90 102
3 36 117 56
3 67 97 64
3 98 64 67
3 48 31 115
3 113 115 60
3 98 118 73
3 73 118 90
3 94 118 47
3 98 90 118
3 47 118 72
3 97 103 116
3 97 103 50
3 116 50 103
3 50 115 60
3 94 20 74
3 74 81 73
3 23 73 74
3 34 97 18
3 18 100 34
3 26 34 114
3 100 101 81
3 100 31 101
3 81 31 101
3 113 107 20
3 20 107 58
3 18 33 100
3 18 46 91
3 62 78 41
3 41 112 27
3 84 102 78
3 78 102 34
3 106 112 23
3 106 112 89
3 74 52 23
3 44 37 85
3 86 76 119
3 98 119 76
3 85 101 46
3 96 101 85
3 100 101 52
3 31 101 52
3 73 78 118
3 98 78 118
3 67 33 98
3 69 84 67
3 32 21 93
3 40 21 117
3 33 103 116
3 96 108 69
3 69 108 41
3 33 103 50
3 17 109 44
3 44 109 13
3 4 90 79
3 25 49 109
3 97 29 103
3 103 10 114
3 17 96 79
3 17 79 69
3 79 90 77
3 96 69 79
3 50 103 29
3 49 109 50
3 18 35 97
3 6 97 63
3 22 115 27
3 27 79 42
3 35 101 81
3 35 101 31
3 31 115 22
3 64 97 63
3 86 79 42
3 76 63 86
3 86 10 63
3 76 63 10
3 7 71 81
3 40 43 114
3 34 43 114
3 42 71 106
3 89 71 106
3 43 115 106
3 73 63 12
3 90 63 73
3 90 63 12
3 34 68 102
3 90 102 68
3 73 71 81
3 42 71 89
3 50 43 115
3 8 102 53
3 53 102 15
3 5 80 87
3 39 57 102
3 58 57 102
3 93 43 107
3 117 12 107
3 58 43 107
3 100 87 81
3 100 87 15
3 89 87 80
3 81 87 15
3 53 8 101
3 14 101 53
3 22 70 53
3 26 11 95
3 95 11 116
3 97 111 8
3 97 116 111
3 8 111 116
3 91 22 118
3 94 22 118
3 107 118 11
3 14 103 53
3 53 103 15
3 85 92 96
3 85 92 15
3 85 117 49
3 82 118 98
3 90 82 118
3 117 118 13
3 84 99 14
3 90 99 14
3 84 90 99
3 15 92 96
3 56 49 117
3 19 93 32
3 7 93 65
3 27 38 112
3 27 30 87
3 38 112 41
3 41 108 19
3 69 108 19
3 91 65 12
3 72 65 91
3 72 87 30
3 65 93 66
3 12 72 65
3 44 85 38
3 16 108 44
3 13 108 44
3 9 99 40
3 76 38 119
3 38 119 98
3 103 9 119
3 113 99 9
3 93 105 113
3 13 105 113
3 13 105 93
3 45 91 18
3 25 16 111
3 45 112 106
3 23 112 45
3 19 101 85
3 46 19 101
3 113 106 111
3 30 111 113
3 66 16 111
3 106 111 30
3 85 11 75
3 66 75 85
3 11 75 66
3 6 69 83
3 29 117 26
3 80 84 65
3 10 65 80
3 82 109 80
3 30 83 77
3 110 83 30
3 77 110 83
3 84 83 69
3 29 112 58
3 29 112 110
3 10 65 84
3 21 117 29
3 21 109 82
3 16 107 44
3 17 107 44
3 114 119 8
3 80 119 68
3 68 119 94
3 80 95 16
3 80 73 95
3 16 95 73
3 70 57 114
3 57 114 46
3 70 75 100
3 17 75 100
3 17 75 70
3 32 54 76
3 39 14 105
3 37 54 115
3 54 115 110
3 9 92 70
3 70 92 64
3 70 108 35
3 116 105 42
3 116 110 105
3 64 105 14
3 110 105 42
3 64 92 9
3 56 35 108
3 119 8 62
3 62 119 9
3 62 78 54
3 39 111 16
3 59 19 108
3 8 33 111
3 116 33 111
3 107 16 108
3 67 57 33
3 33 99 1
3 48 112 38
3 87 30 48
3 55 119 38
3 100 33 99
3 100 52 87
3 15 87 52
3 74 82 52
3 99 9 26
3 60 45 112
3 82 118 78
3 14 78 99
3 84 99 78
3 113 111 60
3 30 111 60
3 61 45 88
3 61 118 11
3 61 13 118
3 25 14 105
3 35 101 52
3 101 14 103
3 20 105 113
3 20 105 13
3 61 12 117
3 61 13 117
3 2 71 24
3 40 29 117
3 47 65 12
3 72 65 47
3 72 24 71
3 33 103 29
3 102 103 15
3 107 11 61
3 61 107 12
3 36 19 101
3 102 101 8
3 78 63 73
3 12 63 78
3 78 102 68
3 36 75 11
3 66 36 75
3 74 20 49
3 20 95 0
3 48 115 22
3 79 42 48
3 17 59 79
3 96 59 79
3 95 20 96
3 47 22 118
3 114 8 62
3 62 10 114
3 3 83 36
3 26 43 114
3 20 43 107
3 109 17 107
3 86 83 36
3 86 63 55
3 55 63 10
3 1 47 92
3 39 109 49
3 42 60 71
3 60 71 89
3 36 92 96
3 89 47 92
3 15 92 36
3 36 49 117
3 60 115 43
3 68 59 67
3 95 11 40
3 88 119 68
3 54 115 51
3 116 51 105
3 51 105 42
3 88 95 16
3 73 88 95
3 62 9 103
3 62 103 10
3 88 65 84
3 10 65 88
3 24 92 9
3 64 24 92
3 24 108 35
3 108 13 109
3 88 109 82
3 0 55 75
3 25 57 102
3 51 83 30
3 51 83 77
3 51 112 29
3 57 114 24
3 24 75 100
3 24 75 17
3 77 55 75
3 38 83 3
3 26 99 43
3 57 92 24
3 57 92 9
3 43 111 30
3 43 111 60
3 85 38 83
3 85 19 92
3 43 99 9
3 54 83 30
3 110 54 83
3 19 92 15
3 87 45 5
3 45 92 1
3 57 105 39
3 111 49 39
3 91 92 45
3 88 87 45
3 16 82 95
3 88 95 82
3 70 92 57
3 57 105 14
3 16 111 49
3 19 95 0
3 54 75 0
3 48 22 87
3 80 45 87
3 51 83 54
3 80 82 95
3 95 19 93
3 30 22 87
3 55 75 54
3 2 22 71
3 95 29 40
3 106 71 45
3 42 45 71
3 29 105 51
3 11 95 29
3 71 22 70
3 35 75 70
3 11 75 49
3 17 35 75
3 36 75 49
3 42 29 105
3 7 49 65
3 27 79 38
3 42 79 38
3 38 63 76
3 38 63 10
3 43 105 20
3 110 105 29
3 43 105 13
3 88 68 65
3 10 65 68
3 20 49 65
3 83 68 6
3 47 22 65
3 12 65 22
3 24 22 71
3 35 75 24
3 68 65 80
3 69 68 83
3 17 79 19
3 69 19 79
3 79 54 4
3 25 57 105
3 25 49 111
3 68 99 78
3 78 54 79
3 49 75 85
3 76 54 75
3 68 99 14
3 63 57 6
3 27 22 87
3 33 63 57
3 82 63 78
3 106 111 43
3 29 111 8
3 33 111 29
3 91 65 22
3 82 63 12
3 1 99 35
3 71 82 7
3 43 99 40
3 33 35 99
3 93 105 43
3 52 35 87
3 35 87 15
3 52 71 82
3 93 49 65
3 79 38 48
3 45 71 60
3 47 45 92
3 99 35 97
3 90 99 68
3 90 54 79
3 38 83 36
3 55 38 63
3 82 63 90
3 36 92 19
3 35 87 81
3 81 71 82
3 26 95 29
3 59 83 68
3 59 19 79
3 20 95 19
3 57 63 97
3 29 111 97
3 104 51 91
3 104 91 52
3 112 105 51
3 101 87 100
3 52 87 101
3 100 108 75
3 108 75 70
3 107 105 113
3 107 105 93
3 112 105 116
3 74 93 65
3 18 33 99
3 119 65 80
3 84 65 119
3 78 99 102
3 117 75 85
3 66 117 75
3 108 75 24
3 102 99 84
3 104 110 52
3 88 119 65
3 116 111 103
3 33 111 103
3 91 65 118
3 72 118 65
3 110 112 105
3 104 59 76
3 104 60 76
3 59 108 79
3 85 101 92
3 96 92 101
3 113 111 115
3 97 111 103
3 60 111 115
3 96 108 79
3 53 71 24
3 67 83 69
3 69 55 104
3 104 60 69
3 90 99 102
3 60 71 112
3 89 112 71
3 104 106 59
3 81 51 104
3 104 55 106
3 86 119 63
3 55 63 119
3 101 87 81
3 97 63 67
3 32 95 20
3 109 95 73
3 88 95 109
3 101 92 36
3 73 118 63
3 118 63 90
3 70 114 92
3 64 92 114
3 81 71 74
3 44 83 36
3 104 81 47
3 51 83 115
3 80 109 95
3 77 115 83
3 18 92 47
3 90 79 62
3 110 47 104
3 114 92 24
3 110 115 83
3 119 63 76
3 118 63 78
3 115 111 106
3 20 105 107
3 118 65 47
3 69 108 79
3 80 87 61
3 32 55 75
3 36 117 75
3 106 71 112
3 49 65 74
3 82 71 74
3 44 38 83
3 45 71 112
3 49 75 117
3 79 38 112
3 45 92 18
3 54 79 62
3 19 101 92
3 22 118 65
3 118 63 82
3 108 79 19
3 57 63 67
3 19 95 32
3 32 54 75
3 119 63 38
3 105 57 102
3 107 105 43
3 53 22 71
3 67 83 68
3 114 92 57
3 115 22 87
3 54 83 115
3 109 95 82
3 109 111 49
3 115 111 43
3 117 29 95
3 114 43 99
3 45 87 61
3 119 65 68
3 35 87 101
3 108 75 35
3 68 99 102
3 29 112 105
3 35 99 18
3 29 103 111

# Cells
24 0 1 2 3 4 5 6 7 8 9 10 11 12 13 14 15 16 17 18 19 20 21 22 23
24 2 24 25 26 27 28 29 30 31 32 33 34 35 36 37 38 39 40 41 42 43 44 45 46
24 13 47 48 49 50 51 52 53 54 55 56 57 58 59 60 61 62 63 64 65 66 67 68 69
24 0 20 70 71 72 73 74 75 76 77 78 79 80 81 82 83 84 85 86 87 88 89 90 91
24 1 22 92 93 94 95 96 97 98 99 100 101 102 103 104 105 106 107 108 109 110 111 112 113
24 29 45 52 68 114 115 116 117 118 119 120 121 122 123 124 125 126 127 128 129 130 131 132 133
24 47 67 72 134 135 136 137 138 139 140 141 142 143 144 145 146 147 148 149 150 151 152 153 154
24 24 71 89 155 156 157 158 159 160 161 162 163 164 165 166 167 168 169 170 171 172 173 174 175
24 25 44 93 176 177 178 179 180 181 182 183 184 185 186 187 188 189 190 191 192 193 194 195 196
24 48 97 113 197 198 199 200 201 202 203 204 205 206 207 208 209 210 211 212 213 214 215 216 217
24 70 92 218 219 220 221 222 223 224 225 226 227 228 229 230 231 232 233 234 235 236 237 238 239
24 114 135 159 175 240 241 242 243 244 245 246 247 248 249 250 251 252 253 254 255 256 257 258 259
24 115 183 198 216 260 261 262 263 264 265 266 267 268 269 270 271 272 273 274 275 276 277 278 279
24 158 182 195 224 238 280 281 282 283 284 285 286 287 288 289 290 291 292 293 294 295 296 297 298
24 134 152 197 225 236 299 300 301 302 303 304 305 306 307 308 309 310 311 312 313 314 315 316 317
24 240 257 260 278 280 299 318 319 320 321 322 323 324 325 326 327 328 329 330 331 332 333 334 335
24 5 21 35 46 58 82 120 141 153 166 249 258 336 337 338 339 340 341 342 343 344 345 346 347
24 9 23 36 56 66 104 122 187 196 201 273 279 348 349 350 351 352 353 354 355 356 357 358 359
24 3 34 43 79 102 112 156 173 176 218 237 288 360 361 362 363 364 365 366 367 368 369 370 371
24 4 62 69 81 91 103 140 200 215 229 239 308 372 373 374 375 376 377 378 379 380 381 382 383
24 101 111 177 194 199 220 268 289 306 316 319 335 384 385 386 387 388 389 390 391 392 393 394 395
24 80 90 139 154 155 219 248 287 297 307 318 334 396 397 398 399 400 401 402 403 404 405 406 407
24 57 121 132 142 205 217 253 259 269 312 317 327 408 409 410 411 412 413 414 415 416 417 418 419
24 33 119 133 157 174 178 247 267 277 293 298 320 420 421 422 423 424 425 426 427 428 429 430 431
24 53 61 130 351 432 433 434 435 436 437 438 439 440 441 442 443 444 445 446 447 448 449 450 451
24 78 374 452 453 454 455 456 457 458 459 460 461 462 463 464 465 466 467 468 469 470 471 472 473
24 28 162 365 371 474 475 476 477 478 479 480 481 482 483 484 485 486 487 488 489 490 491 492 493
24 32 42 125 341 479 494 495 496 497 498 499 500 501 502 503 504 505 506 507 508 509 510 511 512
24 84 168 452 459 501 513 514 515 516 517 518 519 520 521 522 523 524 525 526 527 528 529 530 531
24 65 147 150 346 437 497 508 530 532 533 534 535 536 537 538 539 540 541 542 543 544 545 546 547
24 96 362 476 488 548 549 550 551 552 553 554 555 556 557 558 559 560 561 562 563 564 565 566 567
24 107 204 451 489 550 567 568 569 570 571 572 573 574 575 576 577 578 579 580 581 582 583 584 585
24 234 380 441 456 552 571 586 587 588 589 590 591 592 593 594 595 596 597 598 599 600 601 602 603
24 49 210 375 382 435 454 464 529 587 603 604 605 606 607 608 609 610 611 612 613 614 615 616 617
24 38 189 192 356 433 446 495 538 545 574 618 619 620 621 622 623 624 625 626 627 628 629 630 631
24 228 368 466 477 484 503 525 556 632 633 634 635 636 637 638 639 640 641 642 643 644 645 646 647
24 19 359 491 563 566 582 648 649 650 651 652 653 654 655 656 657 658 659 660 661 662 663 664 665
24 51 377 434 447 576 578 586 602 656 666 667 668 669 670 671 672 673 674 675 676 677 678 679 680
24 7 87 462 558 595 598 650 657 676 681 682 683 684 685 686 687 688 689 690 691 692 693 694 695
24 15 343 458 468 531 615 695 696 697 698 699 700 701 702 703 704 705 706 707 708 709 710 711 712
24 14 30 339 342 442 532 618 626 673 713 714 715 716 717 718 719 720 721 722 723 724 725 726 727
24 8 16 88 344 493 644 651 665 728 729 730 731 732 733 734 735 736 737 738 739 740 741 742 743
24 27 364 494 506 522 527 632 640 706 744 745 746 747 748 749 750 751 752 753 754 755 756 757 758
24 18 55 353 358 504 533 544 619 732 756 759 760 761 762 763 764 765 766 767 768 769 770 771 772
24 6 76 86 372 513 517 540 605 747 763 765 773 774 775 776 777 778 779 780 781 782 783 784 785
24 12 110 470 565 645 647 664 699 711 734 742 758 786 787 788 789 790 791 792 793 794 795 796 797
24 10 17 108 357 591 610 683 688 698 703 717 777 798 799 800 801 802 803 804 805 806 807 808 809
24 11 95 109 361 475 568 579 630 672 718 721 733 810 811 812 813 814 815 816 817 818 819 820 821
24 136 406 440 465 518 524 534 541 822 823 824 825 826 827 828 829 830 831 832 833 834 835 836 837
24 165 172 252 428 467 481 507 515 528 560 835 838 839 840 841 842 843 844 845 846 847 848 849 850
24 128 246 413 416 490 492 500 509 547 585 837 841 849 851 852 853 854 855 856 857 858 859 860 861
24 186 395 505 555 572 580 623 631 862 863 864 865 866 867 868 869 870 871 872 873 874 875 876 877
24 221 291 557 561 588 593 617 636 869 878 879 880 881 882 883 884 885 886 887 888 889 890 891 892
24 301 388 539 577 592 601 611 624 862 868 886 893 894 895 896 897 898 899 900 901 902 903 904 905
24 208 214 276 419 449 469 564 570 583 608 848 850 854 876 906 907 908 909 910 911 912 913 914 915
24 232 311 460 463 485 599 634 638 832 859 902 916 917 918 919 920 921 922 923 924 925 926 927 928
24 179 285 295 421 448 450 482 553 596 620 830 879 890 929 930 931 932 933 934 935 936 937 938 939
24 116 262 424 430 438 443 521 609 612 627 838 872 892 906 912 933 940 941 942 943 944 945 946 947
24 282 397 486 519 546 628 639 642 823 827 884 920 931 936 948 949 950 951 952 953 954 955 956 957
24 145 305 315 410 472 511 512 537 616 646 855 875 895 905 917 927 958 959 960 961 962 963 964 965
24 75 85 169 401 453 457 655 682 691 729 843 926 966 967 968 969 970 971 972 973 974 975 976 977
24 41 118 124 429 439 478 487 661 668 856 932 937 978 979 980 981 982 983 984 985 986 987 988 989
24 63 151 436 444 461 677 702 824 836 914 990 991 992 993 994 995 996 997 998 999 1000 1001 1002 1003
24 99 106 203 385 549 554 710 786 792 799 891 909 1004 1005 1006 1007 1008 1009 1010 1011 1012 1013 1014 1015
24 98 184 384 393 597 622 724 727 798 806 812 893 900 1016 1017 1018 1019 1020 1021 1022 1023 1024 1025 1026
24 100 386 575 641 738 787 794 813 819 866 923 1027 1028 1029 1030 1031 1032 1033 1034 1035 1036 1037 1038 1039
24 59 127 131 415 499 606 613 708 757 943 960 964 1040 1041 1042 1043 1044 1045 1046 1047 1048 1049 1050 1051
24 74 138 400 405 535 637 728 740 764 768 774 949 951 1052 1053 1054 1055 1056 1057 1058 1059 1060 1061 1062
24 163 426 514 523 629 719 752 778 941 946 952 1063 1064 1065 1066 1067 1068 1069 1070 1071 1072 1073 1074 1075
24 39 190 496 502 559 658 755 847 864 874 1076 1077 1078 1079 1080 1081 1082 1083 1084 1085 1086 1087 1088 1089
24 73 399 526 600 681 693 773 783 808 833 881 1090 1091 1092 1093 1094 1095 1096 1097 1098 1099 1100 1101 1102
24 213 418 542 569 573 670 767 821 853 860 904 1103 1104 1105 1106 1107 1108 1109 1110 1111 1112 1113 1114 1115
24 206 264 274 348 607 614 760 779 785 800 804 897 942 1023 1045 1071 1116 1117 1118 1119 1120 1121 1122 1123
24 231 235 310 378 604 633 643 749 789 880 885 958 1013 1044 1049 1057 1124 1125 1126 1127 1128 1129 1130 1131
24 181 294 621 625 635 750 771 814 871 948 957 1032 1035 1059 1066 1070 1132 1133 1134 1135 1136 1137 1138 1139
24 171 242 251 337 480 483 715 730 736 816 820 851 955 983 1061 1112 1140 1141 1142 1143 1144 1145 1146 1147
24 148 243 338 347 473 498 697 712 731 797 961 965 976 1051 1088 1148 1149 1150 1151 1152 1153 1154 1155 1156
24 241 336 445 520 696 705 714 726 809 828 945 996 999 1068 1075 1157 1158 1159 1160 1161 1162 1163 1164 1165
24 223 227 290 367 474 589 590 679 687 918 922 929 972 984 986 1025 1166 1167 1168 1169 1170 1171 1172 1173
24 193 265 349 354 432 562 648 652 692 801 934 939 988 992 1011 1174 1175 1176 1177 1178 1179 1180 1181 1182
24 211 383 455 471 581 680 796 910 915 928 977 1002 1003 1038 1039 1183 1184 1185 1186 1187 1188 1189 1190 1191
24 143 313 536 543 594 675 723 781 826 894 898 1020 1094 1097 1105 1110 1192 1193 1194 1195 1196 1197 1198 1199
24 266 350 510 584 649 663 743 761 772 861 877 1087 1089 1114 1115 1200 1201 1202 1203 1204 1205 1206 1207 1208
24 161 370 516 548 551 684 746 842 844 888 1008 1081 1085 1099 1101 1209 1210 1211 1212 1213 1214 1215 1216 1217
24 191 355 748 753 759 766 791 1030 1082 1133 1139 1204 1218 1219 1220 1221 1222 1223 1224 1225 1226 1227 1228 1229
24 105 202 209 381 769 776 784 811 1104 1107 1119 1198 1221 1230 1231 1232 1233 1234 1235 1236 1237 1238 1239 1240
24 94 226 360 366 744 754 780 1006 1095 1127 1209 1211 1227 1230 1236 1241 1242 1243 1244 1245 1246 1247 1248 1249
24 146 345 669 671 685 716 720 993 1102 1164 1193 1197 1250 1251 1252 1253 1254 1255 1256 1257 1258 1259 1260 1261
24 60 129 653 659 667 678 741 981 989 1113 1147 1203 1261 1262 1263 1264 1265 1266 1267 1268 1269 1270 1271 1272
24 31 340 654 689 694 704 973 1076 1079 1150 1152 1216 1250 1259 1271 1273 1274 1275 1276 1277 1278 1279 1280 1281
24 83 160 167 369 725 775 810 818 1064 1073 1136 1143 1239 1240 1242 1258 1282 1283 1284 1285 1286 1287 1288 1289
24 40 123 701 709 745 751 807 1043 1047 1072 1121 1162 1222 1248 1275 1290 1291 1292 1293 1294 1295 1296 1297 1298
24 50 64 149 376 737 762 793 1041 1055 1062 1125 1131 1226 1262 1269 1299 1300 1301 1302 1303 1304 1305 1306 1307
24 77 233 373 379 666 674 815 968 1036 1169 1183 1185 1231 1253 1264 1282 1289 1299 1308 1309 1310 1311 1312 1313
24 54 352 662 707 790 795 990 998 1015 1176 1182 1189 1218 1229 1266 1298 1300 1305 1314 1315 1316 1317 1318 1319
24 26 37 188 363 690 713 803 979 1019 1021 1167 1170 1241 1255 1273 1280 1290 1295 1320 1321 1322 1323 1324 1325
24 321 402 782 887 889 903 954 1053 1060 1090 1100 1123 1130 1196 1326 1327 1328 1329 1330 1331 1332 1333 1334 1335
24 286 422 865 867 878 882 940 944 1050 1074 1078 1129 1137 1215 1331 1336 1337 1338 1339 1340 1341 1342 1343 1344
24 271 332 770 870 899 901 962 1048 1058 1111 1117 1122 1200 1202 1327 1335 1339 1345 1346 1347 1348 1349 1350 1351
24 325 391 817 896 919 925 953 1017 1022 1027 1029 1138 1145 1171 1347 1352 1353 1354 1355 1356 1357 1358 1359 1360
24 302 326 389 392 788 863 873 913 959 1005 1028 1037 1084 1154 1156 1186 1344 1361 1362 1363 1364 1365 1366 1367
24 270 324 331 390 802 805 883 935 1004 1012 1016 1092 1116 1160 1174 1181 1326 1329 1368 1369 1370 1371 1372 1373
24 304 409 829 834 852 857 916 921 985 997 1108 1172 1187 1199 1356 1374 1375 1376 1377 1378 1379 1380 1381 1382
24 283 322 398 403 686 822 825 846 930 966 1001 1091 1096 1179 1180 1212 1369 1376 1383 1384 1385 1386 1387 1388
24 263 272 333 425 660 839 845 858 907 971 974 1083 1175 1188 1201 1205 1382 1385 1388 1389 1390 1391 1392 1393
24 254 328 722 831 938 950 956 987 1026 1069 1141 1146 1157 1161 1333 1352 1357 1368 1371 1379 1394 1395 1396 1397
24 256 323 330 404 735 739 924 963 967 975 1034 1054 1142 1149 1153 1207 1345 1350 1353 1360 1364 1391 1398 1399
24 245 255 329 412 700 840 908 911 947 994 1010 1014 1148 1158 1165 1217 1342 1363 1367 1370 1400 1401 1402 1403
24 222 281 292 396 1031 1052 1126 1132 1134 1224 1287 1306 1307 1308 1309 1336 1341 1366 1404 1405 1406 1407 1408 1409
24 261 423 1024 1063 1067 1118 1120 1135 1225 1234 1286 1293 1297 1322 1349 1354 1355 1395 1410 1411 1412 1413 1414 1415
24 212 303 408 417 1007 1009 1040 1124 1128 1232 1247 1249 1292 1303 1315 1334 1372 1401 1416 1417 1418 1419 1420 1421
24 230 300 309 387 1018 1098 1168 1192 1195 1238 1243 1245 1256 1321 1324 1374 1381 1386 1416 1422 1423 1424 1425 1426
24 207 275 1033 1106 1184 1191 1208 1223 1228 1233 1237 1313 1316 1359 1377 1380 1390 1393 1411 1414 1426 1427 1428 1429
24 180 185 296 394 1077 1080 1177 1214 1219 1220 1246 1276 1319 1320 1361 1383 1387 1392 1405 1422 1424 1427 1430 1431
24 244 411 1056 1103 1109 1140 1144 1194 1235 1257 1265 1270 1288 1304 1330 1332 1346 1394 1418 1419 1432 1433 1434 1435
24 170 250 1065 1093 1163 1210 1213 1244 1252 1254 1278 1283 1285 1328 1338 1340 1400 1403 1407 1420 1432 1433 1436 1437
24 117 431 1042 1046 1086 1155 1206 1263 1268 1277 1281 1296 1302 1337 1343 1348 1351 1399 1409 1415 1435 1437 1438 1439
24 164 284 420 427 969 970 978 1166 1173 1272 1274 1284 1310 1311 1325 1358 1389 1398 1404 1410 1413 1428 1438 1439
24 137 144 314 407 991 1000 1151 1190 1251 1260 1279 1301 1312 1314 1362 1365 1384 1402 1406 1408 1423 1430 1431 1436
24 126 414 980 982 995 1159 1178 1267 1291 1294 1317 1318 1323 1373 1375 1378 1396 1397 1412 1417 1421 1425 1429 1434
