# Generated using Miratope v0.5.0 (https://github.com/galoomba1/miratope-rs)
4OFF

# Vertices, Faces, Edges, Cells
120 2520 1200 720

# Vertices
0.809016994374945 -0.809016994374945 -0.809016994374945 0.809016994374945 
0 -1.61803398874989 0 0 
0 0 -1.61803398874989 0 
-0.5 0 -1.30901699437495 0.809016994374945 
-0.809016994374945 -0.809016994374945 -0.809016994374945 -0.809016994374945 
-0.809016994374945 -1.30901699437495 0 0.5 
-1.30901699437495 -0.809016994374945 -0.5 0 
0 -0.5 -0.809016994374945 1.30901699437495 
0.809016994374945 -0.5 -1.30901699437495 0 
0 -1.30901699437495 -0.5 -0.809016994374945 
0.809016994374945 0.809016994374945 -0.809016994374945 0.809016994374945 
-0.809016994374945 0.809016994374945 -0.809016994374945 0.809016994374945 
-0.5 0.809016994374945 0 1.30901699437495 
-0.809016994374945 -0.809016994374945 -0.809016994374945 0.809016994374945 
-0.5 -0.809016994374945 0 1.30901699437495 
0.5 0.809016994374945 0 1.30901699437495 
0.5 -0.809016994374945 0 1.30901699437495 
0 0.809016994374945 -1.30901699437495 0.5 
0 -0.809016994374945 -1.30901699437495 0.5 
-0.809016994374945 -0.809016994374945 0.809016994374945 0.809016994374945 
-0.809016994374945 -0.809016994374945 0.809016994374945 -0.809016994374945 
-1.30901699437495 0 0.809016994374945 -0.5 
-1.30901699437495 0 0.809016994374945 0.5 
-1.30901699437495 0 -0.809016994374945 -0.5 
-1.30901699437495 0 -0.809016994374945 0.5 
-0.5 -1.30901699437495 0.809016994374945 0 
-0.5 -1.30901699437495 -0.809016994374945 0 
0.809016994374945 0.809016994374945 -0.809016994374945 -0.809016994374945 
0.809016994374945 -0.809016994374945 -0.809016994374945 -0.809016994374945 
-0.809016994374945 0.809016994374945 -0.809016994374945 -0.809016994374945 
0.809016994374945 0.5 -1.30901699437495 0 
-0.809016994374945 -0.5 -1.30901699437495 0 
-0.809016994374945 0.5 -1.30901699437495 0 
0.809016994374945 0 -0.5 -1.30901699437495 
-0.809016994374945 0 -0.5 -1.30901699437495 
0.809016994374945 -0.809016994374945 0.809016994374945 0.809016994374945 
0.809016994374945 -0.809016994374945 0.809016994374945 -0.809016994374945 
0 -1.30901699437495 -0.5 0.809016994374945 
0 -1.30901699437495 0.5 0.809016994374945 
0 -1.30901699437495 0.5 -0.809016994374945 
1.30901699437495 -0.5 0 0.809016994374945 
1.30901699437495 -0.5 0 -0.809016994374945 
0 0 0 1.61803398874989 
-1.61803398874989 0 0 0 
-1.30901699437495 0.809016994374945 0.5 0 
0 0.5 0.809016994374945 1.30901699437495 
-0.5 0 1.30901699437495 0.809016994374945 
-0.809016994374945 1.30901699437495 0 0.5 
-0.809016994374945 0.809016994374945 0.809016994374945 -0.809016994374945 
0 0 0 -1.61803398874989 
-1.30901699437495 0.809016994374945 -0.5 0 
0 0.5 -0.809016994374945 -1.30901699437495 
-0.809016994374945 1.30901699437495 0 -0.5 
-0.5 0 -1.30901699437495 -0.809016994374945 
-0.5 -0.809016994374945 0 -1.30901699437495 
0 1.61803398874989 0 0 
0.809016994374945 1.30901699437495 0 0.5 
0.5 0 -1.30901699437495 0.809016994374945 
1.30901699437495 0.809016994374945 -0.5 0 
0 0.5 -0.809016994374945 1.30901699437495 
0 1.30901699437495 -0.5 -0.809016994374945 
0.809016994374945 0.809016994374945 0.809016994374945 0.809016994374945 
1.61803398874989 0 0 0 
0 -0.5 0.809016994374945 1.30901699437495 
1.30901699437495 -0.809016994374945 0.5 0 
0.809016994374945 -1.30901699437495 0 0.5 
0.5 0 1.30901699437495 0.809016994374945 
1.30901699437495 0 -0.809016994374945 0.5 
0 0 1.61803398874989 0 
-0.5 0 1.30901699437495 -0.809016994374945 
-0.809016994374945 -1.30901699437495 0 -0.5 
0 -0.5 0.809016994374945 -1.30901699437495 
-1.30901699437495 -0.809016994374945 0.5 0 
0.809016994374945 -0.5 1.30901699437495 0 
0 -0.5 -0.809016994374945 -1.30901699437495 
1.30901699437495 -0.809016994374945 -0.5 0 
0.809016994374945 -1.30901699437495 0 -0.5 
0.5 0 -1.30901699437495 -0.809016994374945 
1.30901699437495 0 0.809016994374945 -0.5 
0.5 0.809016994374945 0 -1.30901699437495 
-0.809016994374945 0.809016994374945 0.809016994374945 0.809016994374945 
0 1.30901699437495 -0.5 0.809016994374945 
0 1.30901699437495 0.5 0.809016994374945 
0 1.30901699437495 0.5 -0.809016994374945 
-1.30901699437495 0.5 0 0.809016994374945 
-1.30901699437495 0.5 0 -0.809016994374945 
0.809016994374945 0.5 1.30901699437495 0 
-0.809016994374945 -0.5 1.30901699437495 0 
-0.809016994374945 0.5 1.30901699437495 0 
0.809016994374945 0 0.5 1.30901699437495 
-0.809016994374945 0 0.5 1.30901699437495 
0.809016994374945 0.809016994374945 0.809016994374945 -0.809016994374945 
1.30901699437495 0 0.809016994374945 0.5 
1.30901699437495 0 -0.809016994374945 -0.5 
0.5 1.30901699437495 0.809016994374945 0 
0.5 1.30901699437495 -0.809016994374945 0 
-0.5 0.809016994374945 0 -1.30901699437495 
0.5 -0.809016994374945 0 -1.30901699437495 
0 0.809016994374945 1.30901699437495 -0.5 
0 -0.809016994374945 1.30901699437495 -0.5 
0.809016994374945 1.30901699437495 0 -0.5 
0.5 0 1.30901699437495 -0.809016994374945 
1.30901699437495 0.809016994374945 0.5 0 
0 0.5 0.809016994374945 -1.30901699437495 
-0.809016994374945 0 -0.5 1.30901699437495 
-0.5 1.30901699437495 -0.809016994374945 0 
-1.30901699437495 -0.5 0 0.809016994374945 
0 -0.809016994374945 1.30901699437495 0.5 
0.809016994374945 0 -0.5 1.30901699437495 
0.5 -1.30901699437495 -0.809016994374945 0 
0 -0.809016994374945 -1.30901699437495 -0.5 
-1.30901699437495 -0.5 0 -0.809016994374945 
0.809016994374945 0 0.5 -1.30901699437495 
0.5 -1.30901699437495 0.809016994374945 0 
0 0.809016994374945 -1.30901699437495 -0.5 
1.30901699437495 0.5 0 -0.809016994374945 
-0.5 1.30901699437495 0.809016994374945 0 
-0.809016994374945 0 0.5 -1.30901699437495 
0 0.809016994374945 1.30901699437495 0.5 
1.30901699437495 0.5 0 0.809016994374945 

# Faces
4 0 2 4 1
4 0 3 6 1
5 0 2 7 8 3
5 1 6 9 5 4
4 4 5 7 2
4 8 9 5 7
4 3 6 9 8
4 0 10 11 13
4 10 12 14 0
5 11 15 17 12 10
5 16 13 0 14 18
4 13 16 15 11
4 15 16 18 17
4 12 14 18 17
4 20 19 13 4
5 19 21 25 22 20
4 19 21 23 13
4 4 24 22 20
5 24 4 13 23 26
4 25 26 24 22
4 21 23 26 25
4 27 29 4 28
5 27 8 33 30 28
4 27 29 31 8
4 4 28 30 32
5 4 29 31 34 32
4 30 33 34 32
4 33 8 31 34
4 0 35 36 28
5 35 37 40 38 0
4 35 37 9 36
4 28 0 38 39
5 36 9 41 39 28
4 41 40 38 39
4 41 9 37 40
4 42 11 43 19
4 42 11 44 46
5 47 43 11 44 24
5 19 45 14 46 42
4 19 43 47 45
4 47 24 14 45
4 46 14 24 44
4 48 49 4 43
5 43 48 50 21 52
4 48 49 53 50
4 4 43 52 51
5 49 53 54 51 4
4 52 21 54 51
4 50 21 54 53
4 55 11 2 27
5 27 56 60 58 55
4 27 2 59 56
4 55 11 57 58
5 11 2 59 32 57
4 56 60 32 59
4 58 60 32 57
4 61 62 0 42
4 62 65 63 61
5 42 61 63 15 66
5 62 0 64 67 65
4 42 66 64 0
4 15 67 64 66
4 15 63 65 67
4 36 68 19 1
5 36 68 71 73 69
4 1 72 69 36
4 19 68 71 70
5 72 1 19 70 38
4 73 38 72 69
4 38 70 71 73
4 62 27 49 36
4 62 76 74 27
5 49 27 74 79 77
5 75 36 62 76 78
4 49 77 75 36
4 75 77 79 78
4 78 79 74 76
4 48 29 11 80
4 48 80 81 60
5 80 81 84 82 11
5 29 83 85 60 48
4 29 83 82 11
4 82 84 85 83
4 81 84 85 60
4 35 61 80 19
5 35 61 73 89 86
4 80 87 73 61
4 35 19 88 86
5 19 88 90 87 80
4 89 90 88 86
4 73 89 90 87
4 61 10 27 91
5 91 92 94 78 61
4 61 78 93 10
4 91 92 67 27
5 10 27 67 95 93
4 92 94 95 67
4 94 78 93 95
4 36 91 48 20
4 36 54 96 91
5 48 91 96 98 79
5 20 97 99 54 36
4 20 48 79 97
4 98 99 97 79
4 99 98 96 54
4 55 48 68 61
5 61 100 82 102 55
4 68 61 100 103
4 48 55 102 101
5 48 101 88 103 68
4 82 88 101 102
4 100 103 88 82
4 29 2 13 43
4 29 17 104 43
5 2 29 17 53 105
5 43 13 84 6 104
4 2 13 84 105
4 104 6 53 17
4 84 105 53 6
4 35 42 13 1
4 35 25 106 42
5 1 107 65 25 35
5 42 106 7 90 13
4 1 107 90 13
4 107 90 7 65
4 7 65 25 106
4 10 2 28 62
5 62 108 58 40 10
4 2 109 40 10
4 62 108 18 28
5 109 2 28 18 77
4 58 40 109 77
4 58 77 18 108
4 1 20 49 28
5 1 28 26 76 110
4 28 26 111 49
4 1 110 34 20
5 49 20 34 71 111
4 71 111 26 76
4 76 110 34 71
4 91 62 35 68
5 62 112 102 41 91
4 91 41 113 68
4 35 62 112 99
5 68 35 99 66 113
4 102 66 113 41
4 66 99 112 102
4 55 29 49 91
4 91 55 114 33
5 49 115 103 33 91
5 55 114 52 95 29
4 29 95 115 49
4 115 103 52 95
4 52 114 33 103
4 68 20 43 80
5 68 80 98 46 116
4 80 98 117 43
4 68 20 85 116
5 43 20 85 72 117
4 46 116 85 72
4 46 72 117 98
4 55 10 42 80
4 10 89 118 55
5 10 89 59 119 42
5 80 94 47 118 55
4 80 42 119 94
4 119 59 47 94
4 89 118 47 59
4 11 106 26 2
4 11 57 37 106
4 2 26 14 59
4 59 14 6 32
5 106 26 14 6 37
4 37 57 32 6
4 5 18 32 43
5 43 5 111 106 70
4 43 70 110 32
4 106 3 53 111
4 106 70 110 3
5 3 53 18 32 110
4 18 53 111 5
4 13 57 77 4
4 23 114 57 13
4 4 24 17 77
5 17 77 57 114 8
4 8 26 24 17
4 26 8 114 23
4 1 18 104 19
4 19 104 31 70
4 72 24 18 1
5 104 31 7 24 18
4 38 72 24 7
4 70 31 7 38
4 59 13 109 67
4 59 13 110 30
5 37 110 13 109 31
5 108 17 67 59 30
4 30 110 37 108
4 108 17 31 37
4 67 109 31 17
4 2 28 54 23
4 28 18 6 54
4 109 70 23 2
4 77 34 70 109
4 77 18 6 34
5 34 70 23 54 6
4 57 109 38 42
5 104 57 42 3 108
4 38 42 3 26
4 108 104 5 65
4 65 26 3 108
4 104 57 109 5
5 109 5 65 26 38
4 13 72 39 109
4 110 54 72 13
4 37 25 111 31
4 37 25 54 110
5 25 111 39 72 54
4 31 111 39 109
5 75 30 0 93 57
4 93 74 26 0
4 30 0 26 53
4 75 9 53 30
4 57 75 9 31
4 57 31 74 93
5 31 74 26 53 9
4 13 70 76 0
4 14 25 76 0
4 13 70 113 16
4 113 16 18 9
4 18 9 25 14
5 113 70 76 25 9
4 28 1 16 67
4 28 67 7 26
4 110 57 16 1
5 40 57 16 67 7
4 7 26 76 40
4 57 110 76 40
5 97 4 39 74 70
4 4 97 75 18
4 39 4 18 65
4 75 97 70 37
5 75 18 65 8 37
4 8 74 39 65
4 37 8 74 70
4 90 72 23 11
4 90 11 31 5
5 50 31 11 23 3
5 22 5 90 72 14
4 14 3 50 22
4 3 23 72 14
4 22 5 31 50
4 2 24 85 51
4 2 24 111 74
5 2 51 110 114 74
4 50 114 110 6
4 50 111 74 114
5 85 6 50 111 24
4 85 6 110 51
4 7 10 105 24
5 10 114 81 30 105
4 10 7 31 114
4 104 18 30 81
4 31 114 81 104
4 24 105 30 18
4 16 19 84 59
5 19 37 63 5 16
4 19 37 3 84
4 12 63 37 3
4 63 12 24 5
5 3 84 59 24 12
4 59 16 5 24
4 3 10 27 53
4 93 110 3 10
4 27 53 18 67
4 67 18 32 95
4 95 32 110 93
4 43 31 9 20
4 53 85 20 9
4 74 117 43 31
4 26 72 85 53
4 72 26 74 117
5 1 75 113 109 64
4 64 89 14 1
4 75 108 14 1
4 89 7 109 64
5 14 108 63 7 89
4 108 63 113 75
4 7 109 113 63
4 36 65 5 20
4 65 36 54 26
4 20 5 109 97
4 109 97 99 38
4 38 99 54 26
4 62 33 110 0
4 64 97 110 0
4 65 9 33 62
4 67 64 97 77
4 65 9 77 67
5 97 110 33 9 77
5 107 39 87 113 20
4 20 6 14 107
4 113 37 6 20
4 26 39 107 14
4 113 37 106 87
4 106 87 39 26
4 42 37 8 10
4 8 10 89 65
4 75 119 42 37
4 119 75 18 59
4 59 18 65 89
4 49 4 109 41
4 51 93 109 4
4 49 41 8 53
5 41 109 93 76 8
4 51 93 76 54
4 54 76 8 53
4 23 51 95 11
4 11 31 77 95
5 30 51 95 77 60
4 30 3 50 60
4 50 31 77 60
4 3 23 51 30
4 42 81 32 13
4 13 90 47 32
4 81 42 106 50
5 81 50 17 47 32
4 90 47 17 7
4 7 106 50 17
4 4 72 44 29
4 44 29 31 106
4 4 72 84 32
5 44 72 84 21 106
4 21 34 32 84
4 106 31 34 21
4 16 64 99 19
4 19 99 76 37
4 63 73 76 37
4 63 73 39 5
5 64 39 73 76 99
4 16 5 39 64
5 119 16 92 108 35
4 119 93 76 35
4 8 108 35 76
4 109 16 119 93
4 108 8 41 92
4 92 41 109 16
4 64 112 54 1
4 1 75 33 54
4 109 74 112 64
4 75 113 71 33
5 112 54 33 71 74
4 71 113 109 74
4 13 38 87 43
4 13 38 46 84
4 43 104 63 87
4 84 46 25 6
5 46 25 63 87 38
4 63 104 6 25
4 97 117 29 77
5 29 117 23 96 111
4 9 111 29 77
4 33 9 111 96
4 110 23 96 33
4 97 110 23 117
4 2 0 119 95
4 0 3 81 119
4 95 2 7 15
5 119 95 15 58 81
4 58 8 7 15
4 8 58 81 3
4 35 45 59 0
4 37 104 45 35
4 0 38 90 59
4 38 90 15 40
4 15 40 37 104
5 90 59 45 104 15
4 2 67 115 51
4 74 41 67 2
5 75 115 67 41 58
4 114 58 75 110
4 74 41 58 114
4 115 51 110 75
4 1 99 117 4
4 5 4 117 87
4 99 1 6 21
4 87 5 9 71
5 87 71 21 99 117
4 9 71 21 6
4 11 114 34 43
4 44 11 114 96
4 47 43 34 60
4 60 47 24 53
5 114 34 60 53 96
4 24 53 96 44
4 12 55 29 24
4 29 24 59 95
4 114 3 12 55
4 59 95 52 84
4 84 52 114 3
4 52 32 104 80
4 80 106 23 52
5 12 106 80 104 22
4 105 85 22 12
4 12 106 23 105
5 52 32 85 105 23
4 104 32 85 22
4 19 113 40 42
4 45 92 113 19
4 46 73 40 42
4 92 45 14 65
5 92 113 40 73 65
4 46 14 65 73
4 27 102 64 28
4 8 40 102 27
4 28 64 119 30
5 102 64 119 78 40
4 33 78 119 30
4 40 8 33 78
5 49 69 112 117 101
4 101 113 9 49
4 9 49 69 25
4 113 101 117 70
4 25 69 112 76
4 70 117 112 76
4 68 22 14 35
4 14 35 99 72
4 22 68 113 5
4 90 66 99 72
4 113 5 90 66
4 36 28 51 103
4 36 9 34 103
4 39 28 51 117
4 39 117 79 41
4 79 41 9 34
5 51 117 79 34 103
4 89 0 93 102
4 30 56 89 0
5 102 89 56 92 15
4 57 15 102 93
4 75 92 56 30
4 57 15 92 75
4 104 16 66 80
4 106 38 66 80
4 22 107 89 12
4 12 89 38 106
5 66 38 89 107 16
4 104 16 107 22
5 62 56 115 119 100
4 56 17 8 62
4 8 62 100 114
4 100 114 57 119
4 119 57 77 115
4 56 17 77 115
4 4 85 103 97
4 39 69 85 4
5 103 85 69 96 21
4 69 39 74 96
4 97 103 21 70
4 74 96 21 70
4 89 62 36 107
4 75 16 107 36
4 38 76 62 89
4 78 66 16 75
4 38 76 78 66
4 1 97 78 35
4 25 71 78 35
4 107 1 97 101
5 71 41 101 97 78
4 107 65 41 101
4 65 25 71 41
4 115 92 65 28
5 115 28 112 93 97
4 65 28 112 73
4 115 92 113 97
4 40 73 112 93
4 40 113 97 93
4 85 49 27 105
4 27 105 23 74
4 85 49 77 32
4 79 52 32 77
4 23 74 79 52
4 6 19 80 50
4 80 50 111 87
4 19 6 85 88
4 24 90 88 85
4 87 111 24 90
4 42 82 95 57
4 82 42 3 105
4 104 47 56 108
4 108 3 105 56
5 56 47 95 82 105
4 47 104 57 95
4 2 29 79 93
4 29 79 58 17
4 105 100 93 2
5 58 33 100 93 79
4 58 17 53 33
4 53 33 100 105
4 7 11 80 63
4 80 63 108 81
4 89 82 11 7
4 82 89 14 84
4 84 14 108 81
5 87 44 69 22 48
4 34 48 87 70
4 6 22 48 34
4 23 44 87 70
4 23 44 69 54
4 54 69 22 6
4 60 115 28 53
4 112 96 53 28
4 34 97 115 60
4 114 93 112 96
4 93 114 34 97
4 5 107 88 43
4 43 88 99 70
5 69 107 88 99 46
4 106 46 69 111
4 70 99 46 106
4 111 69 107 5
4 40 7 12 61
4 40 61 81 57
5 56 12 61 81 45
4 16 45 56 67
4 12 7 67 56
4 81 57 16 45
5 36 86 64 101 92
4 63 92 36 25
4 46 86 36 25
4 63 87 101 92
4 38 64 86 46
4 101 87 38 64
4 91 73 39 49
4 91 73 76 33
4 39 49 115 64
4 103 99 64 115
4 76 33 103 99
4 61 58 75 35
4 61 58 41 73
4 86 115 75 35
4 89 67 115 86
4 89 67 41 73
4 47 83 27 17
5 27 83 51 100 96
4 50 96 27 17
4 100 81 50 96
4 81 100 51 32
4 47 83 51 32
4 29 47 88 117
4 29 111 22 47
5 84 88 47 22 116
4 84 23 96 116
4 96 116 22 111
4 117 88 84 23
4 15 90 44 55
4 104 50 55 15
5 116 50 55 44 105
4 45 59 105 116
4 45 104 50 116
4 90 59 105 44
4 30 62 91 60
4 77 41 91 60
4 62 30 51 112
4 102 95 77 41
4 102 95 51 112
4 119 82 46 35
4 35 46 12 108
4 16 90 82 119
4 92 108 12 118
4 92 118 90 16
5 12 46 82 90 118
4 111 48 68 25
4 101 39 111 48
4 54 103 68 25
4 88 72 39 101
4 88 72 54 103
4 29 74 71 48
4 60 33 71 48
4 29 74 112 83
4 54 85 83 112
4 60 33 54 85
5 45 107 118 63 68
4 84 45 68 21
4 106 63 68 21
4 63 106 44 118
4 72 107 118 44
4 107 72 84 45
4 17 55 61 108
4 61 108 30 100
4 102 67 17 55
4 67 102 82 59
4 82 59 30 100
4 92 58 33 36
4 36 33 100 86
4 79 101 92 58
4 64 93 100 86
4 101 79 93 64
4 119 45 68 78
4 78 68 63 40
4 63 40 102 118
4 64 107 118 102
4 45 119 64 107
4 107 20 103 86
4 113 78 103 20
4 86 107 39 112
5 86 112 98 78 103
4 98 87 113 78
4 87 39 112 98
4 27 41 101 83
4 71 96 27 41
4 78 100 96 71
4 78 100 51 97
4 83 101 97 51
4 20 101 66 19
4 21 98 66 19
4 20 101 118 22
5 98 73 118 101 66
4 22 118 73 25
4 25 73 98 21
4 10 82 86 62
4 40 66 82 10
4 62 86 45 108
5 86 82 66 94 45
4 58 94 66 40
4 58 94 45 108
4 79 55 44 117
4 79 55 50 34
4 103 116 105 51
4 50 34 103 116
4 51 105 44 117
4 11 52 100 10
4 10 100 116 12
4 11 52 94 15
4 17 60 94 15
5 52 100 116 60 94
4 12 116 60 17
4 90 43 48 118
4 48 118 12 50
4 90 43 52 82
4 21 46 82 52
4 21 46 12 50
4 105 83 102 10
4 10 102 79 114
5 102 83 115 94 79
4 81 94 115 30
4 81 94 79 114
4 115 30 105 83
4 20 88 83 49
4 20 34 52 88
4 49 83 44 111
5 52 88 83 44 98
4 34 52 98 71
4 111 44 98 71
4 61 116 84 42
4 61 116 22 63
4 66 88 84 42
4 88 66 15 47
4 63 22 47 15
4 68 94 115 36
4 69 83 115 36
4 68 94 79 71
4 102 73 69 83
4 102 73 71 79
4 62 73 118 56
4 62 73 98 100
4 100 98 66 119
4 101 115 119 66
4 118 56 115 101
4 91 69 46 61
4 61 46 99 78
4 91 69 107 92
4 92 107 88 94
4 99 78 94 88
4 27 112 98 55
4 27 112 86 56
4 55 98 78 58
4 103 60 56 86
4 58 78 103 60
5 86 116 91 118 83
4 118 87 71 91
4 91 71 21 116
4 21 116 86 99
4 83 117 99 86
4 117 83 118 87
4 80 15 92 68
4 102 98 80 15
4 116 56 92 68
4 102 98 46 89
4 46 89 56 116
4 94 101 49 60
4 49 60 116 69
4 94 101 117 52
4 69 116 100 112
4 100 112 117 52
4 58 91 118 15
4 116 81 58 91
4 119 86 116 81
4 83 95 119 86
4 95 83 118 15
4 94 48 87 66
4 45 22 48 94
4 82 44 69 86
4 22 45 86 69
4 82 44 87 66
4 91 56 47 48
4 91 56 105 96
4 48 47 95 79
4 98 82 95 79
4 96 105 82 98
4 21 80 55 96
4 94 103 21 80
4 118 69 96 55
4 85 47 94 103
4 69 118 47 85
4 44 12 61 98
4 61 98 52 81
4 83 56 45 88
4 12 44 83 56
4 81 52 88 45
5 1 75 37 76 0
4 76 0 2 74
4 77 4 1 75
5 2 74 31 77 4
4 75 37 31 77
4 74 31 37 76
5 30 0 10 8 108
4 11 31 8 10
4 30 0 13 32
5 31 11 13 32 104
4 32 104 108 30
4 31 8 108 104
4 19 37 9 20
5 13 19 37 106 38
5 20 9 111 39 4
4 38 13 4 39
4 38 106 111 39
4 37 9 111 106
4 28 54 96 27
5 29 79 114 96 27
5 4 28 54 110 97
4 29 79 97 4
4 97 110 114 79
4 96 114 110 54
4 0 93 78 35
5 113 78 35 36 92
5 28 67 109 93 0
4 67 28 36 92
4 109 67 92 113
4 109 93 78 113
5 42 11 7 12 3
4 5 43 11 7
4 19 6 3 42
5 19 6 22 5 43
4 5 22 12 7
4 3 6 22 12
4 70 43 48 71
5 49 48 71 96 69
5 43 4 72 23 70
4 72 4 49 69
4 72 69 96 23
4 71 96 23 70
4 27 53 50 55
5 2 51 30 53 27
5 81 52 11 55 50
4 52 11 2 51
4 81 52 51 30
4 30 53 50 81
5 92 58 61 62 56
4 57 42 61 58
4 56 62 0 59
5 57 42 0 59 16
4 59 16 92 56
4 57 16 92 58
4 36 65 63 68
5 39 64 1 36 65
5 63 68 19 66 87
4 64 1 19 66
4 87 66 64 39
4 65 39 87 63
5 27 102 93 100 62
4 49 101 102 27
4 100 62 36 103
5 36 49 101 97 103
4 102 101 97 93
4 103 100 93 97
5 22 48 80 21 116
4 21 80 11 23
4 48 22 24 29
5 24 29 11 23 105
4 24 105 116 22
4 23 105 116 21
4 14 35 61 12
5 80 15 118 12 61
5 107 16 19 35 14
4 19 16 15 80
4 16 107 118 15
4 12 118 107 14
4 91 60 81 61
5 119 82 10 61 81
5 91 60 115 83 27
4 83 27 10 82
4 115 83 82 119
4 81 119 115 60
5 112 86 36 91 73
4 73 91 48 87
4 88 20 36 86
5 48 87 117 88 20
4 88 117 112 86
4 87 117 112 73
4 61 46 44 55
5 68 61 46 86 45
5 83 44 55 48 47
4 68 45 47 48
4 45 47 83 86
4 46 86 83 44
5 43 34 50 111 29
4 2 26 111 29
4 13 110 34 43
5 2 13 110 3 26
4 26 111 50 3
4 3 110 34 50
5 108 35 42 40 63
4 35 108 18 1
4 42 40 109 13
5 18 1 13 109 5
4 109 5 63 40
4 108 63 5 18
4 114 10 62 33
5 2 95 57 114 10
5 62 33 75 115 28
4 95 2 28 115
4 75 115 95 57
4 114 57 75 33
4 112 28 1 99
5 112 28 49 41 74
5 1 20 113 70 99
4 49 41 113 20
4 113 70 74 41
4 112 74 70 99
4 62 89 118 91
5 118 91 68 94 101
5 35 62 89 64 119
4 35 119 94 68
4 119 94 101 64
4 118 101 64 89
5 116 91 55 98 100
4 85 49 91 116
4 29 117 98 55
5 49 85 51 117 29
4 51 85 116 100
4 98 100 51 117
4 80 106 25 68
5 80 106 44 90 43
5 25 68 20 107 69
4 107 20 43 90
4 107 69 44 90
4 25 106 44 69
5 55 17 56 105 10
4 10 105 84 42
4 104 80 55 17
5 42 84 45 104 80
4 56 105 84 45
4 104 45 56 17
5 4 24 53 6 32
4 24 7 109 4
4 57 32 4 109
4 7 8 53 24
5 57 109 7 8 37
4 6 53 8 37
4 23 54 1 13
4 23 74 109 13
4 18 53 54 1
4 5 109 74 111
5 54 53 111 74 23
4 18 32 51 28
5 9 18 28 26 8
4 26 23 51 28
4 114 8 9 34
5 114 34 32 51 23
4 18 32 34 9
5 7 38 0 14 65
4 14 0 110 6
4 70 38 0 110
4 6 9 65 14
4 65 9 31 7
5 9 31 70 110 6
4 0 28 53 3
4 3 0 93 114
4 53 28 67 17
4 31 114 93 109
5 53 17 31 114 3
4 77 109 39 49
5 53 33 34 77 49
4 53 26 39 49
4 34 33 76 70
4 26 53 33 76
5 70 76 26 39 109
4 13 2 67 16
4 16 75 110 13
4 2 67 65 26
5 65 67 16 75 108
4 108 3 110 75
4 5 65 28 4
4 65 28 54 25
4 5 113 97 4
5 25 65 5 113 37
4 110 37 113 97
4 2 27 41 109
4 9 53 27 41
4 2 51 97 109
4 30 75 97 51
5 9 41 109 97 75
4 18 28 64 16
4 28 64 38 26
5 16 64 38 40 113
4 9 8 40 113
4 26 38 40 8
4 65 62 30 18
5 41 65 62 76 40
4 76 62 30 110
4 77 41 40 57
4 77 41 65 18
5 77 57 110 30 18
4 110 1 36 33
4 33 36 65 8
4 1 110 93 64
4 74 39 64 93
5 33 110 93 74 8
4 43 104 18 4
4 18 4 72 14
4 104 37 70 43
5 18 14 3 37 104
4 70 37 3 23
4 29 49 9 31
4 29 31 70 117
4 6 9 49 85
4 110 51 117 70
4 11 29 77 57
4 11 57 110 23
4 18 24 29 77
4 30 110 23 105
4 106 42 0 26
4 26 0 59 24
4 106 31 57 42
4 31 5 16 57
5 26 106 31 5 24
5 60 17 29 95 32
4 93 95 29 74
4 17 8 74 29
4 33 60 17 8
4 110 32 60 33
4 72 1 97 117
5 6 25 26 72 1
4 6 34 97 1
4 34 6 25 71
4 25 71 74 26
5 117 74 71 34 97
4 35 62 8 37
4 37 35 119 57
4 7 8 62 89
4 57 119 64 109
4 97 99 35 75
4 35 75 9 25
5 25 73 38 99 35
4 73 41 109 38
4 41 9 25 73
4 67 64 112 27
5 77 67 27 8 58
4 8 76 112 27
4 78 58 8 76
4 77 97 78 58
5 64 97 78 76 112
4 19 35 76 70
4 26 76 35 14
4 19 16 109 70
4 39 109 16 107
4 59 119 93 2
5 7 17 18 59 2
4 2 93 40 7
5 40 93 119 75 58
4 58 17 7 40
4 75 18 17 58
4 54 51 115 36
4 36 115 77 9
5 71 9 36 54 76
5 51 115 77 79 93
4 76 71 79 93
4 77 79 71 9
4 2 4 85 105
4 85 4 77 60
4 2 105 96 74
5 85 60 50 96 105
4 31 50 96 74
4 59 84 23 2
4 2 23 106 7
4 84 6 18 59
5 6 50 106 23 84
4 17 50 6 18
4 85 20 5 24
5 20 34 21 54 85
4 31 5 20 34
4 26 54 21 106
4 26 54 85 24
4 1 107 89 0
4 76 73 89 0
4 1 75 92 107
5 89 73 63 92 107
4 75 37 63 92
4 0 10 102 64
4 102 10 8 41
4 64 115 30 0
5 102 64 115 92 41
4 30 115 92 108
4 28 39 73 62
4 28 115 101 39
4 73 62 33 71
5 113 71 73 39 101
4 113 75 115 101
4 72 1 16 90
4 6 1 16 104
5 7 63 104 16 90
4 25 63 7 26
4 90 72 26 7
4 4 20 103 51
4 33 9 20 103
4 4 51 112 39
4 96 111 39 112
5 33 96 112 51 103
4 67 27 105 59
4 8 27 105 3
4 58 81 32 77
5 81 32 59 105 3
4 32 77 67 59
5 10 40 15 67 89
4 10 3 14 89
4 37 3 10 40
4 18 14 89 67
4 15 104 18 67
4 30 60 49 28
4 28 112 100 30
4 58 41 49 60
5 60 58 114 100 30
4 74 114 100 112
4 36 107 72 54
4 36 9 5 107
5 38 72 107 5 87
4 76 38 87 71
4 54 72 38 76
4 24 4 117 44
4 32 52 117 4
4 6 21 52 32
5 52 117 44 96 21
4 6 21 96 53
5 47 85 84 52 43
4 17 47 43 31
4 114 52 43 31
4 53 85 47 17
4 85 53 3 84
4 11 44 72 13
4 31 11 44 111
4 72 13 32 85
4 104 31 111 22
5 85 72 44 111 22
4 0 14 45 119
4 38 66 119 0
5 92 15 66 119 45
4 7 65 92 15
4 66 38 7 15
4 41 91 56 67
4 30 33 91 56
5 91 41 79 78 33
4 79 95 119 78
5 30 119 95 67 56
4 41 67 95 79
4 97 78 68 20
4 97 64 107 20
4 76 78 68 25
4 112 64 107 69
5 42 66 90 89 46
4 113 66 42 37
4 46 25 37 42
4 65 25 46 89
4 90 5 65 89
4 39 69 91 41
4 54 33 91 69
4 79 117 99 78
4 99 78 33 54
5 99 117 39 69 54
4 27 17 108 62
4 27 17 15 102
4 108 62 100 81
5 15 17 108 81 57
4 57 81 100 93
4 19 13 59 45
4 19 37 108 45
4 13 59 89 38
5 89 12 108 45 59
4 37 106 12 108
4 93 10 55 79
4 93 10 105 51
4 77 17 55 79
4 115 51 105 56
4 36 25 111 49
4 25 36 103 21
4 49 101 87 111
4 70 97 101 87
5 21 25 111 87 70
5 66 78 61 73 102
4 78 61 108 75
4 65 73 61 108
4 16 66 102 67
4 65 73 102 67
4 62 86 107 65
4 76 99 86 62
5 66 101 107 86 99
4 101 41 40 66
4 99 76 40 66
4 75 58 91 36
4 58 91 73 40
4 75 36 86 119
4 93 119 86 112
5 60 103 52 79 48
4 111 48 60 53
4 74 79 48 111
4 23 52 103 54
4 53 60 103 54
5 13 90 24 14 84
4 13 90 87 70
4 84 13 70 21
4 21 25 14 84
4 111 24 14 25
4 10 12 24 2
4 10 114 50 12
4 47 95 2 24
5 47 24 12 50 104
4 57 114 50 104
4 49 77 95 83
4 53 105 83 49
5 105 100 52 95 83
4 100 33 34 52
4 52 34 77 95
4 90 15 57 13
4 84 13 57 81
4 15 17 24 90
4 24 17 108 14
4 43 19 99 117
4 99 54 6 19
4 5 43 117 39
4 39 5 22 69
4 27 91 71 74
4 34 60 91 71
4 27 83 117 74
4 117 83 115 97
4 22 20 1 14
4 22 63 113 20
4 46 99 1 14
5 14 22 63 106 46
4 70 113 63 106
4 11 95 119 42
4 95 67 7 11
4 119 30 3 42
4 30 3 12 56
4 113 68 61 40
4 40 61 46 38
4 113 68 45 16
4 16 64 86 45
4 68 92 115 103
4 71 41 92 68
5 68 103 99 98 71
4 99 64 102 98
4 71 41 102 98
4 89 10 100 86
4 40 78 100 10
5 78 100 86 115 94
4 78 40 15 94
4 67 15 94 115
4 48 34 114 55
4 32 34 48 47
4 114 23 44 55
4 51 23 44 83
4 50 6 20 48
4 50 106 87 48
4 6 84 88 20
4 106 23 117 87
4 81 32 43 80
4 106 80 81 3
4 32 43 90 59
4 106 3 105 44
5 95 102 55 58 94
4 102 112 96 55
4 55 96 33 58
4 103 94 58 33
4 95 51 103 94
4 10 61 63 7
4 81 61 63 104
4 90 7 10 82
4 119 81 104 16
4 88 101 113 19
5 46 21 19 88 72
4 21 71 113 19
4 73 46 21 71
4 72 46 73 39
4 83 101 20 85
4 34 79 101 20
5 79 101 83 112 98
4 54 21 98 112
4 79 34 21 98
4 87 38 42 80
4 5 87 80 104
4 38 72 84 42
4 104 45 107 5
5 11 82 59 47 15
4 15 11 114 58
4 82 100 114 11
4 58 15 47 60
4 59 30 60 47
4 62 61 98 112
4 79 58 61 98
4 112 62 56 83
4 92 56 83 101
4 86 82 42 35
4 35 108 56 86
4 42 82 102 40
5 118 102 82 86 56
4 63 108 56 118
4 36 35 46 69
4 78 98 46 35
4 69 118 92 36
4 113 87 118 92
5 87 98 46 69 118
4 48 94 115 49
4 78 71 48 94
4 115 86 69 49
4 69 86 100 96
4 35 99 88 45
4 22 45 35 25
4 73 118 90 38
5 118 90 88 45 22
4 88 99 38 90
4 102 89 12 55
4 58 108 12 55
4 59 89 102 95
4 95 59 45 94
4 43 29 83 88
4 111 29 83 69
4 88 43 34 103
5 83 88 103 116 69
4 50 116 69 111
4 29 44 82 95
4 17 12 44 29
4 95 82 84 32
5 84 116 12 44 82
4 60 116 84 32
4 19 104 47 88
4 19 104 50 21
4 24 72 46 12
4 24 47 88 72
4 29 47 56 27
4 27 56 116 96
4 94 79 29 47
5 47 94 81 116 56
4 114 81 116 96
4 85 103 68 22
4 71 111 22 68
4 98 44 72 99
4 85 103 99 72
4 11 106 63 15
4 106 11 82 46
4 46 82 59 14
4 59 14 22 47
4 103 78 61 116
4 73 61 116 69
4 102 66 88 83
4 88 66 78 103
4 91 92 15 55
4 92 91 116 45
4 66 15 55 98
4 100 116 45 119
5 98 82 88 94 80
4 94 92 63 80
4 80 63 73 98
4 73 98 82 89
4 107 88 82 89
4 48 60 56 118
4 48 118 102 79
4 82 52 79 102
4 52 82 86 103
4 48 101 66 80
4 66 80 21 99
4 22 48 101 107
4 107 86 116 22
4 66 42 81 94
4 46 116 81 42
4 89 56 47 90
4 47 94 66 90
4 96 91 68 21
4 96 91 118 44
4 52 94 68 21
4 118 101 117 44
4 80 52 100 61
4 100 105 12 61
4 95 15 80 52
4 12 105 83 118
4 19 84 116 68
4 84 19 66 82
4 116 12 63 68
4 12 44 87 63
4 80 50 60 94
4 98 80 50 96
4 60 94 88 85
4 88 85 105 82
4 43 87 118 47
4 43 87 98 52
4 46 98 52 84
4 85 84 46 69
4 55 118 90 11
4 88 52 11 90
4 22 118 55 50
4 50 81 45 22
4 2 4 49 27
5 27 56 118 69 49
5 90 59 2 4 72
4 90 59 56 118
4 72 90 118 69
4 11 29 4 13
5 11 13 38 66 82
5 29 83 101 39 4
4 101 83 82 66
4 39 38 66 101
4 28 4 20 36
5 30 28 36 86 56
5 47 32 4 20 88
4 56 86 88 47
4 30 56 47 32
4 29 48 91 27
5 91 48 22 63 92
5 24 29 27 67 7
4 67 7 63 92
4 22 63 7 24
4 0 28 27 10
5 96 27 10 12 44
5 28 0 14 72 54
4 12 44 72 14
4 96 44 72 54
4 1 19 43 4
5 43 19 66 94 52
5 4 51 115 64 1
4 66 64 115 94
4 51 52 94 115
4 49 36 68 48
5 36 68 45 108 75
5 49 77 17 47 48
4 17 47 45 108
4 77 17 108 75
4 11 55 48 43
5 43 48 101 113 5
5 55 11 7 40 102
4 102 40 113 101
4 5 113 40 7
4 0 42 11 2
5 0 42 46 99 76
5 11 2 74 117 44
4 44 117 99 46
4 74 76 99 117
4 0 62 36 1
5 0 62 100 105 3
5 6 85 103 36 1
4 105 100 103 85
4 6 3 105 85
4 62 27 55 61
5 50 55 61 63 106
5 26 65 62 27 53
4 63 106 26 65
4 50 106 26 53
4 48 20 19 80
5 15 80 48 79 58
5 97 20 19 16 75
4 15 58 75 16
4 79 58 75 97
4 13 0 35 19
5 21 19 35 78 103
5 0 13 23 51 93
4 51 93 78 103
4 51 23 21 103
4 11 10 61 80
5 61 10 8 76 73
5 11 31 70 87 80
4 70 87 73 76
4 31 8 76 70
4 36 91 61 35
5 37 35 61 81 3
5 9 36 91 60 53
4 3 81 60 53
4 53 9 37 3
4 42 19 68 61
5 33 71 68 61 58
5 19 70 110 57 42
4 58 33 110 57
4 110 70 71 33
4 49 29 43 20
5 29 43 90 15 95
5 49 20 107 92 115
4 115 92 15 95
4 90 15 92 107
4 2 13 1 28
5 105 83 112 28 2
5 13 84 88 99 1
4 99 112 83 88
4 105 84 88 83
4 29 55 10 2
5 26 2 10 89 38
5 55 118 87 111 29
4 87 118 89 38
4 38 26 111 87
4 62 91 49 28
5 108 12 116 91 62
5 18 28 49 85 24
4 18 24 12 108
4 85 116 12 24
4 62 35 42 10
5 42 10 114 23 106
5 35 62 33 54 25
4 25 54 23 106
4 114 33 54 23
4 91 68 80 55
5 91 41 8 17 55
5 37 113 68 80 104
4 37 113 41 8
4 17 104 37 8
4 1 20 68 35
5 1 110 30 119 35
5 60 34 20 68 94
4 94 60 30 119
4 110 34 60 30
4 43 80 42 13
5 80 42 40 78 98
5 109 13 43 117 97
4 109 97 78 40
4 98 78 97 117
4 19 45 86 99
5 19 6 32 81 45
4 81 100 86 45
5 54 99 86 100 51
4 32 51 54 6
4 61 12 22 68
4 17 12 61 58
5 17 53 111 22 12
4 111 71 33 53
4 42 66 102 10
4 66 87 106 42
5 117 79 102 66 87
4 114 79 117 23
4 80 94 95 11
4 80 94 101 87
5 94 101 97 77 95
4 70 97 77 31
4 5 20 68 63
4 15 94 68 63
5 15 17 31 5 63
4 31 34 60 17
4 43 88 45 104
5 104 57 77 34 43
5 88 45 119 115 103
4 104 45 119 57
4 115 77 34 103
4 55 98 46 12
5 55 98 71 74 114
5 26 3 12 46 25
4 98 71 25 46
4 26 74 114 3
5 93 112 98 82 10
4 84 3 10 82
4 84 21 98 82
4 110 54 112 93
5 21 84 3 110 54
5 100 96 21 46 61
4 46 61 108 14
4 53 30 100 96
5 53 30 108 14 6
4 6 14 46 21
4 22 20 103 116
5 22 104 18 9 20
4 104 81 116 22
5 33 103 116 81 30
4 30 18 9 33
4 19 88 82 42
4 19 70 117 88
5 51 95 82 88 117
4 110 51 95 57
4 48 111 106 80
4 106 7 15 80
4 74 8 58 79
5 106 7 8 74 111
4 102 27 105 82
5 74 39 73 102 27
4 46 82 102 73
5 72 23 105 82 46
4 39 74 23 72
4 89 59 30 62
5 69 112 62 89 46
4 59 84 46 89
5 30 51 85 84 59
4 69 85 51 112
4 73 91 56 89
5 96 111 25 73 91
5 24 105 56 89 14
4 73 25 14 89
4 24 111 96 105
4 36 91 118 107
4 118 91 60 47
5 5 24 47 118 107
4 5 9 53 24
4 16 13 72 107
5 32 13 16 119 95
4 16 107 86 119
5 85 83 86 107 72
4 95 83 85 32
4 15 67 2 11
4 15 118 44 11
5 15 118 101 41 67
4 117 101 41 74
4 48 87 39 49
4 87 90 47 48
5 109 7 90 87 39
4 77 109 7 17
4 43 47 59 13
4 43 117 83 47
5 47 83 115 67 59
4 67 115 97 109
4 5 22 85 4
5 4 77 67 16 5
5 60 85 22 45 56
4 56 67 77 60
4 22 45 16 5
4 55 44 69 91
4 44 24 17 55
4 39 26 8 41
5 24 26 39 69 44
5 107 45 59 18 1
4 1 54 69 107
4 107 45 116 69
5 53 105 116 69 54
4 105 59 18 53
4 89 0 13 90
4 23 13 90 44
5 90 44 83 102 89
4 93 102 83 51
4 19 104 108 35
4 108 58 78 35
5 60 58 108 104 50
4 50 21 103 60
4 78 79 55 61
4 63 113 78 61
5 70 34 79 78 113
4 106 50 34 70
4 80 81 119 66
5 80 21 34 114 81
5 97 93 119 66 99
4 119 81 114 93
4 97 34 21 99
5 57 11 52 79 93
4 21 106 11 52
4 57 93 76 37
4 52 79 71 21
5 71 21 106 37 76
4 25 21 80 63
4 114 81 108 8
5 63 25 9 8 108
4 21 34 9 25
5 84 42 119 100 52
4 84 42 37 6
4 119 100 33 75
5 34 6 37 75 33
4 84 52 34 6
4 68 116 100 78
5 68 25 6 50 116
5 110 76 78 100 114
4 50 116 100 114
4 110 76 25 6
4 42 80 50 3
4 42 3 8 40
4 33 96 98 78
5 8 33 96 50 3
4 35 99 98 61
4 35 99 70 37
4 23 52 81 3
5 98 52 23 70 99
4 103 52 80 68
4 103 97 113 68
5 110 97 103 52 32
4 110 37 104 32
4 19 37 31 43
4 37 19 66 40
4 58 114 52 94
5 31 37 40 58 114
4 50 48 94 81
5 50 31 9 71 48
5 57 75 78 94 81
4 9 75 78 71
4 31 57 81 50
4 41 27 10 40
4 12 10 40 63
5 87 63 40 41 71
4 44 87 71 96
4 119 64 38 42
4 119 64 112 100
5 72 117 112 64 38
4 72 84 52 117
4 35 45 56 62
4 60 33 62 56
4 25 54 85 22
5 36 65 14 22 69
4 36 33 96 69
4 8 65 14 3
4 22 69 96 50
4 72 46 35 1
4 1 110 23 72
4 105 82 119 30
4 11 23 96 55
4 23 11 7 26
4 40 102 112 76
5 26 76 112 96 23
4 60 48 43 32
4 48 101 115 60
5 18 32 60 115 75
4 18 75 113 5
4 29 47 104 31
5 31 109 41 79 29
5 92 94 47 104 16
4 92 94 79 41
4 31 109 16 104
4 4 109 113 20
4 66 88 20 113
5 66 113 109 57 15
4 32 57 15 47
4 79 29 44 98
4 79 98 73 41
5 38 106 44 98 73
4 31 106 38 109
4 65 92 68 25
5 18 17 56 92 65
4 50 116 56 17
4 65 18 6 25
5 0 64 86 82 59
4 110 32 59 0
4 97 103 86 64
4 32 52 82 59
4 20 85 84 19
4 97 51 85 20
4 59 30 75 16
5 111 5 65 41 49
4 111 50 60 49
4 108 65 41 58
4 5 111 50 104
4 43 29 74 70
4 70 38 90 43
4 95 15 40 93
5 38 70 74 93 40
4 11 57 16 90
5 64 101 88 90 16
4 57 93 64 16
4 88 52 79 101
4 58 55 29 77
4 118 55 58 92
5 113 9 77 58 92
4 113 9 111 87
4 16 1 36 92
4 103 94 92 36
4 6 85 47 104
4 38 73 62 0
4 3 106 38 0
4 44 105 100 98
5 14 35 86 116 84
4 35 76 112 86
4 112 86 116 96
4 14 26 23 84
4 105 10 61 116
4 53 8 10 105
4 54 69 73 76
4 14 35 75 18
4 115 60 116 86
4 18 32 84 14
5 109 64 102 95 2
4 52 23 2 95
4 52 95 102 98
4 70 99 64 109
4 71 48 118 73
5 7 12 118 73 65
4 9 71 73 65
4 7 31 50 12
4 29 117 112 27
4 72 24 29 117
4 64 38 7 67
4 4 1 14 24
4 4 51 105 24
4 89 64 115 56
5 39 107 89 67 28
4 28 53 111 39
4 12 89 67 17
4 111 22 107 39
4 67 115 36 65
4 59 67 65 14
4 69 83 47 22
4 95 67 28 51
4 95 82 89 67
4 39 117 88 107
4 41 49 83 102
4 102 89 65 41
4 5 111 44 90
4 109 5 24 2
4 47 118 102 95
4 109 5 107 64
4 28 49 101 64
4 101 49 85 88
4 18 16 90 24
4 17 29 4 18
4 17 29 83 56
4 65 92 101 39
4 2 7 65 28
4 105 2 7 12
4 112 73 118 83
4 27 62 86 83
4 85 53 27 83
4 26 65 107 72
4 64 39 26 0
4 39 69 86 64
4 24 44 82 59
4 6 19 113 9
4 81 45 92 58
4 6 32 77 9
4 71 87 43 34
4 104 63 40 57
4 71 41 77 34
4 34 70 13 32
4 16 113 78 119
4 34 32 95 79
4 13 110 114 11
4 13 110 76 38
4 100 78 66 82
4 96 114 58 91
4 40 37 25 73
4 31 111 96 114
4 21 68 36 54
4 54 36 75 110
4 3 108 45 84
4 0 30 81 42
4 30 0 76 33
4 99 46 116 103
4 76 71 91 62
4 108 62 76 37
4 106 21 116 12
4 61 40 93 100
4 74 93 100 96
4 70 21 46 38
4 1 75 57 13
4 78 99 1 75
4 81 94 88 84
4 114 55 15 57
4 66 113 71 98
4 114 74 109 57
4 91 33 34 48
4 92 75 33 91
4 37 63 22 6
4 27 17 31 74
4 63 73 102 15
4 74 31 5 39
4 4 97 93 2
4 4 97 99 72
4 59 119 66 90
4 49 20 6 53
4 53 49 115 30
4 108 92 107 14
4 28 26 25 36
4 26 28 30 3
4 12 46 86 56
4 10 100 51 2
4 51 2 26 54
4 89 38 99 86
4 8 62 112 74
4 106 7 89 46
4 74 112 69 111
4 18 1 97 77
4 107 45 94 101
4 18 59 95 77
4 41 101 20 9
4 15 118 22 104
4 9 18 67 41
4 77 4 117 79
4 77 79 102 67
4 5 87 66 16
4 7 10 93 109
4 87 90 82 98
4 109 39 112 93
4 27 8 9 49
4 8 108 56 27
4 25 63 118 69
4 28 115 119 0
4 103 54 28 115
4 45 88 72 14
5 7 89 102 27 2
5 101 49 4 5 107
4 89 102 101 107
4 7 5 107 89
5 11 15 102 79 29
5 13 4 97 64 16
4 16 64 102 15
4 79 102 64 97
5 92 36 20 22 45
5 4 28 67 59 24
4 67 92 45 59
4 22 45 59 24
5 27 91 73 65 8
5 5 31 29 48 87
4 73 65 5 87
4 5 31 8 65
5 46 38 0 10 82
5 39 28 27 83 69
4 82 46 69 83
4 39 69 46 38
5 1 19 45 119 75
5 43 4 77 95 47
4 95 47 45 119
4 75 77 95 119
5 18 53 49 36 65
5 104 50 48 68 63
4 63 104 18 65
4 50 104 18 53
5 55 48 71 41 58
5 70 43 11 57 109
4 57 109 41 58
4 70 109 41 71
5 0 64 112 51 2
5 11 42 66 98 52
4 112 64 66 98
4 51 112 98 52
5 0 59 84 72 1
5 62 36 69 116 56
4 59 56 116 84
4 84 72 69 116
5 76 62 61 46 25
5 27 55 44 111 74
4 46 25 111 44
4 76 25 111 74
5 80 81 57 37 19
5 20 48 60 77 9
4 57 81 60 77
4 37 9 77 57
5 35 0 30 100 86
5 32 13 19 88 52
4 100 86 88 52
4 30 32 52 100
5 80 21 71 78 61
5 11 10 93 74 23
4 93 74 71 78
4 23 74 71 21
5 96 91 61 12 50
5 6 54 36 35 14
4 12 50 6 14
4 54 6 50 96
5 42 61 100 114 3
5 68 103 34 6 19
4 114 100 103 34
4 34 6 3 114
5 29 49 41 67 17
5 43 104 16 113 20
4 41 67 16 113
4 104 16 67 17
5 107 86 115 28 1
5 2 95 82 90 13
4 95 115 86 82
4 90 107 86 82
5 40 73 98 55 10
5 2 109 39 117 29
4 109 39 73 40
4 73 98 117 39
5 49 91 118 22 111
5 14 26 28 62 89
4 89 14 22 118
4 26 111 22 14
5 10 105 96 112 62
5 84 42 35 99 21
4 84 21 96 105
4 99 112 96 21
5 91 68 25 9 33
5 114 31 106 80 55
4 31 106 25 9
4 31 114 33 9
5 68 116 81 108 35
5 20 85 32 18 1
4 18 108 81 32
4 81 116 85 32
5 80 94 79 34 43
5 13 42 119 93 110
4 94 79 93 119
4 110 93 79 34
4 119 35 36 115
4 119 35 14 59
5 59 32 51 115 119
4 108 62 73 63
5 3 108 62 33 53
5 73 71 111 106 63
4 108 3 106 63
4 38 13 57 40
5 23 13 38 99 117
5 79 114 57 40 78
4 40 38 99 78
4 19 66 15 104
5 70 97 78 66 19
4 15 58 78 66
5 104 15 58 77 31
5 108 92 91 60 17
4 113 92 91 71
4 108 37 113 92
5 31 34 71 113 37
4 19 16 92 68
4 16 18 6 19
5 18 77 115 92 16
4 38 42 61 73
4 61 73 112 100
5 38 73 112 74 26
4 42 13 72 46
4 42 46 86 119
5 46 86 112 54 72
4 35 25 26 0
4 86 69 25 35
5 26 53 96 69 25
4 68 45 56 91
4 25 14 45 68
5 30 18 14 45 56
4 1 99 66 16
5 1 110 51 103 99
5 57 95 94 66 16
4 99 103 94 66
5 8 37 63 61 58
4 63 87 98 61
5 79 98 87 70 74
4 37 63 87 70
4 11 90 89 10
4 10 89 64 93
5 90 72 39 64 89
4 2 24 14 0
4 0 64 107 14
5 14 24 85 69 107
4 62 65 7 10
4 62 65 39 112
5 39 65 7 24 111
4 41 27 56 92
5 56 12 24 53 27
4 56 12 63 92
5 9 5 63 92 41
4 1 64 101 20
4 64 1 18 67
5 67 95 83 101 64
5 117 101 66 90 43
4 90 43 31 7
4 7 90 66 40
5 31 74 41 40 7
4 55 79 101 118
5 55 17 7 63 118
4 113 63 118 101
5 79 101 113 109 77
4 90 5 20 88
5 20 88 94 115 97
4 88 94 15 90
5 67 15 90 5 109
4 20 107 118 48
4 20 107 65 9
5 67 56 118 107 65
4 118 12 10 102
5 10 8 26 106 12
5 39 41 102 118 87
4 106 12 118 87
4 49 83 86 36
4 36 86 89 65
5 105 59 89 86 83
4 109 38 72 4
5 4 72 88 83 51
5 38 66 102 93 109
4 72 38 66 88
5 36 75 30 60 103
4 36 25 37 75
4 75 37 3 30
5 21 25 37 3 50
4 40 42 81 58
5 76 70 106 42 40
4 58 33 76 40
5 33 58 81 50 34
4 35 75 57 42
4 32 57 42 84
5 75 57 32 34 97
4 80 98 99 19
4 80 98 100 81
5 76 99 98 100 93
4 68 35 76 71
4 68 116 96 71
5 76 8 114 96 71
4 19 1 54 21
4 19 21 116 45
5 54 21 116 100 33
4 81 61 62 30
4 81 84 46 61
5 81 30 110 6 84
5 110 37 35 78 33
4 37 35 46 106
5 96 98 46 106 23
4 37 110 23 106
4 78 119 0 76
5 0 76 54 23 3
5 103 78 119 81 52
4 78 103 54 76
4 35 78 94 45
5 45 104 32 60 94
4 33 78 94 60
5 113 75 58 94 68
4 68 21 70 113
4 110 75 113 70
5 21 70 110 114 52
4 104 80 61 108
4 104 6 21 80
5 104 6 9 75 108
5 38 7 11 44 87
4 7 11 114 8
4 8 76 38 7
4 1 0 93 97
4 93 95 59 0
5 95 52 117 97 93
4 30 28 65 108
5 105 30 28 54 85
5 25 65 108 12 22
4 105 30 108 12
4 27 91 116 105
4 46 116 91 73
5 14 46 116 105 3
4 54 28 64 99
5 64 99 88 82 119
4 88 99 54 85
4 42 82 44 106
5 102 82 44 117 112
4 70 106 44 117
4 94 68 22 47
4 17 47 94 58
5 17 18 5 22 47
4 80 63 5 43
4 5 43 34 9
5 92 101 48 47 15
4 48 34 97 101
4 97 101 92 75
4 102 66 80 55
4 102 93 114 55
4 8 62 36 9
4 9 36 69 111
5 8 17 50 111 9
4 84 13 4 85
4 13 84 45 16
5 85 84 45 86 103
4 88 107 36 103
5 107 16 59 47 88
4 88 47 60 103
4 55 12 22 48
4 25 22 48 71
5 15 80 87 113 40
4 87 80 52 117
4 117 87 113 97
4 19 113 109 13
4 109 13 32 77
4 17 50 80 15
4 17 8 40 15
5 49 115 56 47 85
4 49 9 75 115
4 75 108 56 115
4 76 93 2 26
5 26 2 105 44 72
4 26 72 99 76
4 28 62 100 51
4 100 62 89 82
5 84 23 51 100 82
4 0 89 12 3
5 69 44 12 89 73
4 23 44 12 3
4 1 6 53 28
4 1 107 22 6
5 22 6 53 60 116
4 82 11 43 88
4 11 82 119 57
4 91 41 40 61
4 96 74 41 91
4 11 44 83 95
4 87 44 83 101
4 72 85 49 39
4 72 85 47 90
4 29 49 69 44
4 73 41 49 69
4 17 27 28 18
4 28 18 5 39
4 59 2 29 47
4 2 59 16 109
4 15 55 27 67
4 27 74 109 67
4 43 87 39 4
4 41 77 4 39
5 83 118 90 24 29
4 29 83 115 77
4 115 92 118 83
4 24 47 48 111
4 24 7 15 47
4 24 29 74 26
4 26 24 90 38
4 105 2 67 56
4 105 44 118 56
4 28 112 117 4
4 112 28 67 102
4 34 20 36 33
4 22 50 34 20
4 79 78 68 48
4 50 48 79 114
4 52 103 20 43
4 52 81 104 43
4 70 19 84 23
4 70 23 51 97
4 10 3 50 55
4 21 98 55 50
4 33 62 86 103
4 85 103 33 53
4 1 14 3 110
4 3 110 51 105
4 33 100 10 8
4 33 54 26 8
4 10 114 110 0
4 114 52 82 10
4 110 97 20 6
4 97 110 30 115
4 42 37 31 11
4 31 34 52 11
4 58 60 116 61
4 8 58 60 53
4 29 111 106 11
4 29 111 71 79
4 117 43 32 51
4 115 101 117 51
4 85 69 91 60
4 85 24 17 60
4 53 54 112 27
4 72 54 53 24
4 23 105 59 13
4 117 83 105 23
4 27 96 23 2
4 27 96 98 102
4 32 60 49 4
4 4 5 104 32
4 49 77 58 91
4 111 49 77 31
4 48 94 95 29
4 29 31 57 95
4 13 70 74 2
4 74 79 95 2
4 53 96 55 17
4 53 26 7 17
4 4 51 30 18
4 30 51 83 56
5 4 39 64 67 2
4 64 86 56 67
5 85 105 56 86 69
5 13 109 93 95 11
4 112 93 95 83
5 39 112 83 44 72
5 18 4 20 107 16
5 30 119 86 103 51
4 18 30 119 16
5 29 111 39 41 27
5 92 107 22 47 56
4 39 107 92 41
5 0 89 86 112 28
4 89 86 116 12
5 53 96 116 12 3
5 57 32 43 19 16
5 93 64 99 117 51
4 93 57 32 51
5 9 49 48 22 5
5 75 16 45 94 115
4 9 75 16 5
5 74 31 11 55 79
5 5 39 101 118 90
4 74 39 101 79
5 42 82 100 93 0
4 44 82 100 96
5 44 106 26 74 96
5 14 1 36 86 45
4 45 81 3 14
5 33 110 3 81 100
5 69 73 62 27 96
4 73 63 22 69
5 17 50 22 63 108
5 48 34 31 104 80
5 97 109 16 66 101
4 31 34 97 109
5 84 19 35 119 81
4 84 23 114 81
5 70 23 114 93 76
5 61 98 96 114 10
4 96 111 87 98
5 7 63 87 111 31
5 22 116 91 36 25
5 81 104 37 75 58
4 25 22 104 37
5 61 81 50 21 68
5 31 70 113 40 57
4 50 31 70 21
5 43 5 109 77 29
5 115 64 107 88 83
4 77 109 64 115
5 1 13 59 119 64
4 119 59 105 100
5 23 54 112 100 105
5 102 10 2 74 112
4 112 69 118 102
5 24 111 69 118 12
5 107 69 49 28 65
5 116 60 30 108 45
4 107 45 108 65
5 62 100 116 46 35
4 106 46 116 50
5 37 8 114 50 106
5 111 71 91 55 50
5 104 15 92 113 5
4 111 71 113 5
5 20 6 104 45 68
5 57 119 78 97 110
4 104 6 110 57
5 114 52 80 42 57
4 114 52 117 74
5 117 87 38 109 74
5 1 75 30 32 6
4 78 100 30 75
5 21 52 100 78 99
5 60 48 68 92 58
4 65 92 58 8
5 65 8 53 111 25
5 55 44 87 73 102
4 76 93 102 73
5 95 102 101 117 29
4 40 57 95 102
5 20 43 47 94 101
4 41 101 94 58
5 9 31 17 58 41
5 77 34 20 113 75
5 95 52 88 66 119
4 75 113 66 119
4 91 62 10 55
5 76 62 10 3 26
4 10 61 35 0
5 0 110 54 99 35
4 36 62 61 68
5 62 30 53 54 36
5 18 9 36 92 108
4 108 92 94 81
5 34 32 81 94 103
5 82 98 117 23 11
4 119 78 98 82
5 15 118 48 29 17
4 40 73 118 15
5 71 74 8 40 73
4 0 2 27 62
5 0 38 72 23 2
4 28 1 35 62
5 72 85 51 28 1
4 27 91 36 28
5 26 28 27 105 24
5 60 115 36 20 85
4 115 67 17 60
5 17 67 65 5 24
5 95 32 4 97 115
5 82 84 72 99 86
4 97 115 86 99
5 27 67 89 118 83
4 109 38 89 67
5 24 47 83 49 4
4 15 47 83 102
5 109 41 102 15 7
5 2 51 83 82 59
4 59 16 66 82
5 49 101 92 67 77
4 92 101 88 45
5 59 45 88 85 32
5 49 53 17 56 91
4 89 56 17 7
5 26 7 89 73 39
5 18 59 56 115 28
4 115 56 116 103
5 84 6 54 103 116
5 10 89 46 44 105
4 64 99 46 89
5 19 113 78 94 80
4 9 113 78 33
5 6 50 60 33 9
5 48 87 113 41 79
4 41 8 114 79
5 34 21 19 37 110
5 93 79 98 66 40
4 37 110 93 40
4 11 42 61 55
5 42 61 78 76 37
4 80 61 91 48
5 33 91 61 108 8
4 35 42 80 68
5 68 35 75 33 103
5 3 6 25 35 108
5 71 34 114 58 78
4 108 58 114 3
5 80 55 58 40 63
4 76 40 63 25
5 96 21 25 76 33
5 70 106 80 98 71
4 33 100 98 71
5 43 70 97 79 52
4 81 52 79 58
5 43 11 15 66 87
4 66 87 71 78
5 37 9 71 68 63
5 79 94 15 57 77
4 57 15 63 37
5 91 118 63 65 41
4 26 65 41 74
5 51 110 13 84 52
5 46 38 76 112 98
4 76 112 51 110
4 18 75 33 53
5 18 14 22 85 53
5 62 56 12 14 65
4 60 56 12 50
5 46 21 23 3 42
4 103 86 46 21
5 7 12 55 27 8
4 7 12 46 38
4 15 95 32 104
5 95 47 90 16 67
4 16 90 87 113
5 90 13 4 117 88
4 117 88 94 79
4 11 29 27 10
5 40 10 11 106 38
4 49 91 68 20
4 19 1 0 42
5 88 19 1 97 103
4 84 45 94 52
4 118 63 104 47
5 77 60 47 104 18
5 2 29 44 90 7
4 90 66 98 44
5 90 82 102 64 38
4 70 38 64 97
4 7 67 77 31
4 77 97 103 60
5 73 25 106 12 61
4 112 54 25 73
5 14 84 105 30 0
4 30 33 96 105
4 14 26 8 108
5 26 14 46 69 54
4 36 20 19 35
4 13 2 10 42
5 66 99 70 13 42
4 55 48 49 27
4 105 24 90 82
4 14 84 88 107
4 83 118 22 85
4 4 1 36 49
4 0 28 4 13
4 2 29 49 28
5 89 107 72 24 59
4 117 101 107 72
4 85 47 95 51
4 5 18 59 90
4 72 14 65 39
4 59 30 53 24
4 51 83 69 54
4 43 19 68 48
4 43 80 55 29
4 11 80 19 13
4 21 99 38 106
4 17 12 106 31
4 60 34 21 116
4 6 37 76 54
4 53 9 71 96
4 3 8 74 23
4 70 34 103 99
4 70 106 7 109
4 77 17 50 34
4 24 44 87 5
4 23 52 88 72
4 6 32 47 22
4 6 85 69 25
4 3 84 72 26
4 105 44 111 53
4 13 1 20 43
4 4 29 48 20
4 2 11 43 4
4 26 39 117 23
4 24 18 9 111
4 32 110 54 85
5 49 60 56 92 36
5 1 4 32 59 16
5 0 119 82 84 13
5 85 4 28 115 83
5 33 36 35 108 30
5 32 104 19 20 34
5 20 113 92 94 48
5 67 109 4 29 95
5 27 17 12 118 91
5 18 28 36 107 14
5 1 54 51 30 0
5 19 21 52 81 42
5 48 79 77 31 43
5 75 37 19 68 78
5 82 11 2 93 102
5 88 43 4 97 101
5 27 83 44 24 2
5 14 0 62 86 46
5 62 8 3 12 61
5 36 9 6 22 68
5 49 39 65 67 27
5 55 15 63 87 48
5 80 98 79 114 11
5 13 110 97 99 19
5 35 25 21 116 61
5 10 105 23 26 0
5 73 89 10 27 112
5 87 117 29 11 90
5 40 61 80 106 37
5 41 91 48 111 9
5 73 71 96 55 61
5 42 38 70 23 11
5 1 20 103 115 75
5 43 13 57 95 52
5 6 84 45 35 1
5 62 56 105 53 28
5 59 89 64 28 2
5 49 101 118 47 29
5 68 63 108 58 91
5 18 77 49 20 5
5 65 25 69 91 62
5 106 44 55 10 7
5 80 66 113 70 43
5 102 41 74 29 55
5 76 35 42 3 110
5 68 71 34 50 80
5 46 98 100 10 42
5 13 72 117 51 2
5 62 76 54 96 100
5 6 50 81 108 37
5 5 111 29 17 7
5 113 40 58 79 71
5 64 39 117 83 102
5 64 119 95 51 97
5 15 40 109 31 11
5 97 78 94 52 34
5 35 99 103 100 119
5 34 114 57 37 70
5 65 26 24 12 89
5 25 54 53 3 14
5 17 108 65 9 53
5 61 81 114 33 78
5 31 104 63 113 9
5 112 51 105 82 86
5 2 74 39 38 7
5 101 66 15 95 79
5 85 72 14 59 105
5 85 6 18 30 60
5 24 18 67 56 47
5 43 47 15 16 5
5 58 75 9 34 60
5 85 54 36 86 116
5 119 81 32 110 75
5 67 115 101 107 16
5 64 109 13 90 66
5 94 115 77 32 47
5 115 30 59 45 86
5 81 60 103 68 45
5 16 57 77 97 113
5 90 24 4 39 107
5 17 77 41 92 15
5 50 116 91 33 53
5 104 45 92 75 18
5 69 107 89 56 83
5 55 50 31 8 58
5 70 76 78 98 21
5 109 70 117 79 93
5 112 93 0 38 99
5 114 3 106 21 96
5 76 73 46 106 26
5 7 63 73 41 8
5 8 37 25 71 33
5 10 114 74 76 40
5 63 25 111 50 12
5 8 26 111 96 27
5 40 102 98 87 38
5 112 74 23 44 98
5 110 23 52 100 93
5 99 117 52 82 66
5 78 66 42 57 93
5 31 106 87 71 74
5 5 87 101 41 109
5 69 72 26 28 112
5 84 116 100 30 3
5 104 17 60 48 22
5 65 5 22 118 92
5 105 96 69 46 12
5 7 67 102 118 90
5 19 88 94 119 16
5 103 51 32 84 88
5 72 44 82 89 38
5 103 21 6 110 33
5 94 58 57 104 80
5 88 90 59 95 83
5 1 64 86 88 72
5 111 44 118 73 39
5 14 108 56 116 22
5 53 24 22 69 49
5 54 99 46 84 23
5 47 85 20 107 45

# Cells
7 0 1 2 3 4 5 6
7 7 8 9 10 11 12 13
7 14 15 16 17 18 19 20
7 21 22 23 24 25 26 27
7 28 29 30 31 32 33 34
7 35 36 37 38 39 40 41
7 42 43 44 45 46 47 48
7 49 50 51 52 53 54 55
7 56 57 58 59 60 61 62
7 63 64 65 66 67 68 69
7 70 71 72 73 74 75 76
7 77 78 79 80 81 82 83
7 84 85 86 87 88 89 90
7 91 92 93 94 95 96 97
7 98 99 100 101 102 103 104
7 105 106 107 108 109 110 111
7 112 113 114 115 116 117 118
7 119 120 121 122 123 124 125
7 126 127 128 129 130 131 132
7 133 134 135 136 137 138 139
7 140 141 142 143 144 145 146
7 147 148 149 150 151 152 153
7 154 155 156 157 158 159 160
7 161 162 163 164 165 166 167
7 53 168 169 170 171 172 173
7 174 175 176 177 178 179 180
7 18 181 182 183 184 185 186
7 67 187 188 189 190 191 192
7 193 194 195 196 197 198 199
7 130 200 201 202 203 204 205
7 206 207 208 209 210 211 212
7 195 213 214 215 216 217 218
7 219 220 221 222 223 224 225
7 10 226 227 228 229 230 231
7 134 232 233 234 235 236 237
7 238 239 240 241 242 243 244
7 245 246 247 248 249 250 251
7 252 253 254 255 256 257 258
7 190 259 260 261 262 263 264
7 265 266 267 268 269 270 271
7 95 179 272 273 274 275 276
7 158 225 277 278 279 280 281
7 282 283 284 285 286 287 288
7 101 212 289 290 291 292 293
7 59 294 295 296 297 298 299
7 172 300 301 302 303 304 305
7 163 242 306 307 308 309 310
7 46 311 312 313 314 315 316
7 247 317 318 319 320 321 322
7 122 323 324 325 326 327 328
7 25 329 330 331 332 333 334
7 266 335 336 337 338 339 340
7 314 341 342 343 344 345 346
7 282 347 348 349 350 351 352
7 115 353 354 355 356 357 358
7 299 359 360 361 362 363 364
7 2 365 366 367 368 369 370
7 29 371 372 373 374 375 376
7 254 377 378 379 380 381 382
7 3 383 384 385 386 387 388
7 37 389 390 391 392 393 394
7 150 270 395 396 397 398 399
7 400 401 402 403 404 405 406
7 38 407 408 409 410 411 412
7 22 413 414 415 416 417 418
7 231 419 420 421 422 423 424
7 144 248 425 426 427 428 429
7 32 430 431 432 433 434 435
7 219 436 437 438 439 440 441
7 402 442 443 444 445 446 447
7 184 448 449 450 451 452 453
7 238 454 455 456 457 458 459
7 73 446 460 461 462 463 464
7 121 465 466 467 468 469 470
7 411 471 472 473 474 475 476
7 72 405 477 478 479 480 481
7 88 257 482 483 484 485 486
7 207 487 488 489 490 491 492
7 114 493 494 495 496 497 498
7 79 286 499 500 501 502 503
7 205 504 505 506 507 508 509
7 393 472 510 511 512 513 514
7 175 515 516 517 518 519 520
7 235 521 522 523 524 525 526
7 357 527 528 529 530 531 532
7 149 339 533 534 535 536 537
7 85 379 538 539 540 541 542
7 326 543 544 545 546 547 548
7 360 549 550 551 552 553 554
7 376 555 556 557 558 559 560
7 141 319 561 562 563 564 565
7 341 566 567 568 569 570 571
7 109 217 572 573 574 575 576
7 80 351 577 578 579 580 581
7 332 582 583 584 585 586 587
7 106 196 588 589 590 591 592
7 496 527 593 594 595 596 597
7 416 582 598 599 600 601 602
7 300 603 604 605 606 607 608
7 468 544 609 610 611 612 613
7 15 614 615 616 617 618 619
7 127 620 621 622 623 624 625
7 435 557 626 627 628 629 630
7 9 631 632 633 634 635 636
7 43 571 637 638 639 640 641
7 260 642 643 644 645 646 647
7 137 648 649 650 651 652 653
7 58 551 654 655 656 657 658
7 64 644 659 660 661 662 663
7 448 617 664 665 666 667 668
7 92 517 669 670 671 672 673
7 50 606 674 675 676 677 678
7 387 679 680 681 682 683 684
7 155 438 685 686 687 688 689
7 419 635 690 691 692 693 694
7 368 679 695 696 697 698 699
7 504 623 700 701 702 703 704
7 100 491 705 706 707 708 709
7 164 456 710 711 712 713 714
7 523 651 715 716 717 718 719
7 0 720 721 722 723 724 725
7 7 726 727 728 729 730 731
7 14 732 733 734 735 736 737
7 21 738 739 740 741 742 743
7 28 744 745 746 747 748 749
7 35 750 751 752 753 754 755
7 42 756 757 758 759 760 761
7 49 762 763 764 765 766 767
7 56 768 769 770 771 772 773
7 63 774 775 776 777 778 779
7 70 780 781 782 783 784 785
7 77 786 787 788 789 790 791
7 84 792 793 794 795 796 797
7 91 798 799 800 801 802 803
7 98 804 805 806 807 808 809
7 105 810 811 812 813 814 815
7 112 816 817 818 819 820 821
7 119 822 823 824 825 826 827
7 126 828 829 830 831 832 833
7 133 834 835 836 837 838 839
7 140 840 841 842 843 844 845
7 147 846 847 848 849 850 851
7 154 852 853 854 855 856 857
7 161 858 859 860 861 862 863
7 173 864 865 866 867 868 869
7 180 825 870 871 872 873 874
7 186 875 876 877 878 879 880
7 192 881 882 883 884 885 886
7 199 746 887 888 889 890 891
7 203 892 893 894 895 896 897
7 210 819 898 899 900 901 902
7 216 740 903 904 905 906 907
7 222 763 908 909 910 911 912
7 229 876 913 914 915 916 917
7 237 918 919 920 921 922 923
7 243 775 924 925 926 927 928
7 250 758 929 930 931 932 933
7 258 849 886 934 935 936 937
7 264 789 923 938 939 940 941
7 271 771 942 943 944 945 946
7 276 928 947 948 949 950 951
7 281 952 953 954 955 956 957
7 285 842 868 958 959 960 961
7 292 912 962 963 964 965 966
7 297 967 968 969 970 971 972
7 303 794 897 973 974 975 976
7 309 977 978 979 980 981 982
7 315 983 984 985 986 987 988
7 321 723 989 990 991 992 993
7 328 978 994 995 996 997 998
7 334 946 999 1000 1001 1002 1003
7 337 720 1004 1005 1006 1007 1008
7 345 726 1009 1010 1011 1012 1013
7 350 830 1014 1015 1016 1017 1018
7 358 953 1019 1020 1021 1022 1023
7 362 734 1024 1025 1026 1027 1028
7 370 968 1029 1030 1031 1032 1033
7 375 932 1034 1035 1036 1037 1038
7 381 835 1039 1040 1041 1042 1043
7 386 985 1044 1045 1046 1047 1048
7 394 864 1049 1050 1051 1052 1053
7 399 891 1054 1055 1056 1057 1058
7 406 729 1059 1060 1061 1062 1063
7 410 881 1064 1065 1066 1067 1068
7 417 1069 1070 1071 1072 1073 1074
7 423 854 972 1075 1076 1077 1078
7 429 906 1079 1080 1081 1082 1083
7 433 1071 1084 1085 1086 1087 1088
7 439 780 1089 1090 1091 1092 1093
7 445 733 1094 1095 1096 1097 1098
7 453 858 986 1099 1100 1101 1102
7 458 783 1103 1104 1105 1106 1107
7 463 901 1108 1109 1110 1111 1112
7 469 919 1113 1114 1115 1116 1117
7 475 804 980 1118 1119 1120 1121
7 481 874 1122 1123 1124 1125 1126
7 486 1107 1127 1128 1129 1130 1131
7 492 829 1132 1133 1134 1135 1136
7 498 893 1137 1138 1139 1140 1141
7 503 1092 1127 1142 1143 1144 1145
7 509 753 1088 1146 1147 1148 1149
7 512 800 957 1150 1151 1152 1153
7 519 836 1154 1155 1156 1157 1158
7 525 750 1073 1159 1160 1161 1162
7 531 811 915 1163 1164 1165 1166
7 536 1012 1167 1168 1169 1170 1171
7 541 1034 1172 1173 1174 1175 1176
7 548 812 879 1177 1178 1179 1180
7 554 807 997 1181 1182 1183 1184
7 560 853 1032 1185 1186 1187 1188
7 565 1028 1189 1190 1191 1192 1193
7 568 799 1021 1194 1195 1196 1197
7 575 1017 1198 1199 1200 1201 1202
7 580 1000 1203 1204 1205 1206 1207
7 587 861 1046 1208 1209 1210 1211
7 592 1042 1212 1213 1214 1215 1216
7 595 768 1205 1217 1218 1219 1220
7 600 822 1221 1222 1223 1224 1225
7 607 745 1226 1227 1228 1229 1230
7 611 757 1174 1231 1232 1233 1234
7 618 964 1235 1236 1237 1238 1239
7 625 1097 1189 1240 1241 1242 1243
7 629 816 1244 1245 1246 1247 1248
7 636 947 1249 1250 1251 1252 1253
7 641 1135 1199 1254 1255 1256 1257
7 646 739 1258 1259 1260 1261 1262
7 653 1063 1169 1263 1264 1265 1266
7 658 1157 1212 1267 1268 1269 1270
7 662 1108 1247 1271 1272 1273 1274
7 666 846 1066 1275 1276 1277 1278
7 672 1007 1279 1280 1281 1282 1283
7 677 1122 1224 1284 1285 1286 1287
7 682 786 1115 1288 1289 1290 1291
7 689 1079 1261 1292 1293 1294 1295
7 692 841 1052 1296 1297 1298 1299
7 699 793 1139 1300 1301 1302 1303
7 704 776 1252 1304 1305 1306 1307
7 709 992 1279 1308 1309 1310 1311
7 714 1054 1230 1312 1313 1314 1315
7 719 764 1238 1316 1317 1318 1319
7 51 759 1320 1321 1322 1323 1324
7 81 735 1325 1326 1327 1328 1329
7 24 806 1330 1331 1332 1333 1334
7 94 788 1335 1336 1337 1338 1339
7 8 738 1340 1341 1342 1343 1344
7 45 777 1345 1346 1347 1348 1349
7 74 813 1350 1351 1352 1353 1354
7 108 751 1355 1356 1357 1358 1359
7 36 721 1360 1361 1362 1363 1364
7 1 782 1365 1366 1367 1368 1369
7 57 762 1370 1371 1372 1373 1374
7 102 795 1375 1376 1377 1378 1379
7 16 744 1380 1381 1382 1383 1384
7 86 727 1385 1386 1387 1388 1389
7 30 798 1390 1391 1392 1393 1394
7 66 769 1395 1396 1397 1398 1399
7 151 855 1400 1401 1402 1403 1404
7 116 834 1405 1406 1407 1408 1409
7 162 817 1410 1411 1412 1413 1414
7 129 847 1415 1416 1417 1418 1419
7 120 828 1420 1421 1422 1423 1424
7 142 860 1425 1426 1427 1428 1429
7 136 843 1430 1431 1432 1433 1434
7 156 824 1435 1436 1437 1438 1439
7 547 1147 1440 1441 1442 1443 1444
7 497 1264 1396 1445 1446 1447 1448
7 643 1184 1421 1449 1450 1451 1452
7 318 1106 1387 1453 1454 1455 1456
7 634 1001 1432 1457 1458 1459 1460
7 452 1246 1461 1462 1463 1464 1465
7 397 956 1466 1467 1468 1469 1470
7 273 1206 1471 1472 1473 1474 1475
7 589 1053 1476 1477 1478 1479 1480
7 262 1025 1481 1482 1483 1484 1485
7 487 937 1397 1486 1487 1488 1489
7 369 1124 1376 1490 1491 1492 1493
7 478 1202 1494 1495 1496 1497 1498
7 563 1315 1499 1500 1501 1502 1503
7 706 1131 1504 1505 1506 1507 1508
7 392 1045 1392 1509 1510 1511 1512
7 698 1061 1513 1514 1515 1516 1517
7 378 1299 1362 1518 1519 1520 1521
7 327 892 1352 1522 1523 1524 1525
7 193 1153 1437 1526 1527 1528 1529
7 524 990 1530 1531 1532 1533 1534
7 185 1084 1426 1535 1536 1537 1538
7 558 872 1539 1540 1541 1542 1543
7 436 1180 1382 1544 1545 1546 1547
7 678 1255 1381 1548 1549 1550 1551
7 627 1158 1371 1552 1553 1554 1555
7 514 1289 1556 1557 1558 1559 1560
7 169 987 1561 1562 1563 1564 1565
7 500 878 1557 1566 1567 1568 1569
7 308 1140 1570 1571 1572 1573 1574
7 255 1077 1575 1576 1577 1578 1579
7 418 1309 1436 1580 1581 1582 1583
7 716 933 1391 1584 1585 1586 1587
7 400 907 1427 1588 1589 1590 1591
7 624 1056 1346 1592 1593 1594 1595
7 223 1232 1596 1597 1598 1599 1600
7 610 1307 1341 1601 1602 1603 1604
7 694 1210 1570 1605 1606 1607 1608
7 581 1236 1422 1532 1609 1610 1611
7 249 925 1583 1612 1613 1614 1615
7 566 941 1431 1497 1616 1617 1618
7 236 1190 1357 1619 1620 1621 1622
7 174 1018 1356 1623 1624 1625 1626
7 346 1260 1627 1628 1629 1630 1631
7 657 866 1332 1632 1633 1634 1635
7 330 965 1628 1636 1637 1638 1639
7 687 998 1576 1640 1641 1642 1643
7 295 1287 1590 1644 1645 1646 1647
7 265 911 1377 1502 1648 1649 1650
7 209 1041 1550 1651 1652 1653 1654
7 374 948 1401 1655 1656 1657 1658
7 597 1317 1561 1659 1660 1661 1662
7 361 1229 1412 1663 1664 1665 1666
7 713 1020 1367 1629 1667 1668 1669
7 665 1188 1366 1638 1670 1671 1672
7 552 974 1622 1673 1674 1675 1676
7 316 1272 1386 1542 1677 1678 1679
7 540 1253 1625 1673 1680 1681 1682
7 202 1170 1587 1683 1684 1685 1686
7 638 885 1597 1687 1688 1689 1690
7 191 967 1337 1607 1691 1692 1693
7 283 1102 1347 1506 1694 1695 1696
7 444 889 1447 1697 1698 1699 1700
7 660 1270 1528 1612 1701 1702 1703
7 432 1283 1488 1697 1704 1705 1706
7 650 1083 1546 1651 1707 1708 1709
7 601 1134 1511 1683 1710 1711 1712
7 485 913 1417 1660 1713 1714 1715
7 240 1220 1327 1641 1716 1717 1718
7 473 1303 1406 1688 1719 1720 1721
7 280 1113 1372 1516 1722 1723 1724
7 702 943 1538 1644 1725 1726 1727
7 408 1031 1441 1665 1728 1729 1730
7 355 921 1462 1603 1731 1732 1733
7 228 1072 1514 1554 1734 1735 1736
7 464 1214 1326 1577 1737 1738 1739
7 215 1119 1505 1595 1740 1741 1742
7 583 902 1351 1475 1743 1744 1745
7 537 1293 1361 1484 1746 1747 1748
7 681 1098 1416 1565 1749 1750 1751
7 459 1164 1476 1658 1752 1753 1754
7 673 1143 1407 1598 1755 1756 1757
7 352 1277 1467 1634 1758 1759 1760
7 506 1008 1336 1573 1761 1762 1763
7 338 1090 1459 1495 1764 1765 1766
7 428 977 1322 1558 1767 1768 1769
7 301 1013 1402 1479 1770 1771 1772
7 529 1162 1331 1468 1773 1774 1775
7 293 1172 1411 1443 1776 1777 1778
7 518 960 1493 1500 1779 1780 1781
7 467 1243 1455 1539 1782 1783 1784
7 616 1038 1482 1520 1785 1786 1787
7 384 1111 1451 1531 1788 1789 1790
7 608 1196 1471 1524 1791 1792 1793
7 421 1225 1321 1568 1794 1795 1796
7 576 1064 1342 1463 1797 1798 1799
7 4 781 1320 1800 1801 1802 1803
7 11 741 1325 1804 1805 1806 1807
7 17 747 1330 1808 1809 1810 1811
7 23 805 1335 1812 1813 1814 1815
7 31 801 1340 1816 1817 1818 1819
7 39 722 1345 1820 1821 1822 1823
7 44 774 1350 1824 1825 1826 1827
7 52 756 1355 1828 1829 1830 1831
7 60 765 1360 1832 1833 1834 1835
7 65 770 1365 1836 1837 1838 1839
7 71 810 1370 1840 1841 1842 1843
7 78 732 1375 1844 1845 1846 1847
7 87 728 1380 1848 1849 1850 1851
7 93 787 1385 1852 1853 1854 1855
7 99 792 1390 1856 1857 1858 1859
7 107 752 1395 1860 1861 1862 1863
7 113 837 1400 1864 1865 1866 1867
7 123 831 1405 1868 1869 1870 1871
7 128 848 1410 1872 1873 1874 1875
7 135 840 1415 1876 1877 1878 1879
7 143 859 1420 1880 1881 1882 1883
7 148 852 1425 1884 1885 1886 1887
7 157 823 1430 1888 1889 1890 1891
7 165 818 1435 1892 1893 1894 1895
7 171 983 1444 1857 1896 1897 1898
7 177 1016 1448 1899 1900 1901 1902
7 182 1086 1452 1903 1904 1905 1906
7 188 971 1456 1907 1908 1909 1910
7 198 1151 1460 1911 1912 1913 1914
7 204 1167 1465 1861 1915 1916 1917
7 208 1043 1470 1860 1918 1919 1920
7 214 1121 1474 1893 1921 1922 1923
7 221 1234 1478 1848 1924 1925 1926
7 230 1070 1485 1884 1927 1928 1929
7 234 1193 1489 1930 1931 1932 1933
7 244 1218 1492 1934 1935 1936 1937
7 245 927 1498 1853 1938 1939 1940
7 252 1078 1503 1832 1941 1942 1943
7 259 1027 1508 1880 1944 1945 1946
7 269 909 1512 1947 1948 1949 1950
7 275 1203 1517 1889 1951 1952 1953
7 279 1116 1521 1954 1955 1956 1957
7 288 1101 1525 1958 1959 1960 1961
7 291 1176 1529 1962 1963 1964 1965
7 298 1284 1533 1845 1966 1967 1968
7 305 1010 1537 1969 1970 1971 1972
7 310 1138 1543 1824 1973 1974 1975
7 312 1273 1547 1976 1977 1978 1979
7 320 1104 1551 1980 1981 1982 1983
7 325 895 1555 1984 1985 1986 1987
7 333 962 1560 1881 1988 1989 1990
7 336 1093 1563 1844 1991 1992 1993
7 343 1262 1567 1888 1994 1995 1996
7 348 1278 1572 1820 1997 1998 1999
7 356 920 1579 1840 2000 2001 2002
7 363 1227 1582 2003 2004 2005 2006
7 366 1125 1586 2007 2008 2009 2010
7 372 951 1591 2003 2011 2012 2013
7 380 1298 1594 2014 2015 2016 2017
7 388 1109 1599 1852 2018 2019 2020
7 390 1047 1604 1996 2021 2022 2023
7 398 952 1608 1836 2024 2025 2026
7 403 904 1611 2027 2028 2029 2030
7 412 1030 1614 1812 2031 2032 2033
7 415 1311 1618 2028 2034 2035 2036
7 424 1223 1621 1985 2037 2038 2039
7 427 982 1626 2014 2040 2041 2042
7 434 1280 1630 1892 1950 2043 2044
7 441 1178 1635 1990 2045 2046 2047
7 443 890 1639 1885 1978 2048 2049
7 449 1248 1642 1837 2050 2051 2052
7 454 1166 1646 1805 2053 2054 2055
7 461 1216 1650 1980 2056 2057 2058
7 470 1241 1653 1828 2029 2059 2060
7 476 1302 1657 2026 2061 2062 2063
7 480 1198 1662 1849 1961 2064 2065
7 483 916 1666 2052 2061 2066 2067
7 489 936 1669 2020 2068 2069 2070
7 495 1265 1672 1993 2071 2072 2073
7 502 877 1676 1877 2074 2075 2076
7 508 1005 1679 2008 2077 2078 2079
7 510 1291 1681 1868 2080 2081 2082
7 516 961 1686 1829 2035 2083 2084
7 521 993 1690 1856 1957 2085 2086
7 532 1160 1693 1953 2021 2087 2088
7 535 1294 1696 1940 2068 2089 2090
7 542 1250 1699 1864 2078 2091 2092
7 543 1149 1703 1817 2042 2093 2094
7 549 976 1706 1873 2057 2095 2096
7 555 873 1709 1841 1965 2097 2098
7 564 1312 1711 1821 1971 2099 2100
7 570 940 1715 1917 2101 2102 2103
7 573 1067 1718 1946 2045 2104 2105
7 579 1237 1721 1920 2101 2106 2107
7 586 900 1724 1968 2072 2108 2109
7 591 1049 1727 1809 2038 2110 2111
7 593 1319 1729 1808 1987 2112 2113
7 599 1136 1732 1825 1905 2114 2115
7 604 1197 1735 1865 2009 2116 2117
7 612 1305 1739 1908 2076 2118 2119
7 619 1036 1741 1872 1983 2120 2121
7 622 1058 1745 1900 2055 2122 2123
7 628 1156 1748 1931 2033 2124 2125
7 632 1002 1751 1970 1999 2126 2127
7 640 883 1754 1816 2017 2128 2129
7 645 1183 1757 1963 2002 2130 2131
7 652 1080 1759 1833 1914 2132 2133
7 655 869 1763 1934 2082 2134 2135
7 663 1267 1765 1804 1901 2136 2137
7 667 1187 1769 1898 1954 2138 2139
7 671 1145 1772 1911 1943 2140 2141
7 675 1256 1775 1923 1948 2142 2143
7 683 1096 1778 1904 1975 2144 2145
7 688 995 1780 1800 2005 2146 2147
7 690 1211 1783 1801 2012 2148 2149
7 695 1062 1786 1876 1910 2150 2151
7 700 945 1790 1813 1932 2152 2153
7 708 1128 1792 1869 1936 2154 2155
7 712 1022 1796 1926 1959 2156 2157
7 717 930 1799 1929 1977 2158 2159
7 455 989 1726 2108 2160 2161 2162
7 213 1059 1793 2087 2163 2164 2165
7 603 1024 1515 2158 2166 2167 2168
7 550 1258 1700 1947 2169 2170 2171
7 511 887 1675 2077 2172 2173 2174
7 335 1146 1661 2138 2175 2176 2177
7 701 1231 1534 2069 2178 2179 2180
7 246 1316 1766 1958 2181 2182 2183
7 220 942 1753 2037 2184 2185 2186
7 594 924 1442 2124 2187 2188 2189
7 545 1089 1615 1899 2190 2191 2192
7 442 1288 1631 2046 2193 2194 2195
7 342 973 1559 2118 2196 2197 2198
7 261 1194 1742 1935 2199 2200 2201
7 696 1118 1483 1981 2202 2203 2204
7 522 1163 1600 2015 2205 2206 2207
7 515 1244 1712 2102 2208 2209 2210
7 347 870 1606 2144 2211 2212 2213
7 253 1132 1781 1969 2214 2215 2216
7 691 1039 1541 2027 2217 2218 2219
7 450 958 1578 2004 2220 2221 2222
7 556 1275 1654 1912 2223 2224 2225
7 598 1075 1464 2130 2226 2227 2228
7 206 1208 1760 2062 2229 2230 2231
7 385 1051 1756 1851 2232 2233 2234
7 572 1123 1640 2135 2235 2236 2237
7 507 1179 1388 2049 2198 2238 2239
7 422 935 1358 2153 2206 2240 2241
7 277 1055 1785 2041 2242 2243 2244
7 649 1141 1633 1823 2245 2246 2247
7 138 820 1749 2120 2223 2248 2249
7 104 743 1584 2128 2199 2250 2251
7 48 767 1743 2000 2205 2252 2253
7 431 880 1668 1890 2254 2255 2256
7 364 939 1439 2084 2227 2257 2258
7 577 949 1687 2067 2259 2260 2261
7 68 760 1670 2146 2190 2262 2263
7 159 850 1616 2074 2220 2264 2265
7 19 790 1773 2031 2202 2266 2267
7 289 999 1701 2141 2268 2269 2270
7 331 1251 1768 1870 2271 2272 2273
7 684 1152 1413 2098 2231 2274 2275
7 311 865 1707 2105 2276 2277 2278
7 613 910 1328 2096 2194 2279 2280
7 479 1033 1714 1810 2281 2282 2283
7 533 894 1504 2157 2284 2285 2286
7 201 996 1798 1838 2287 2288 2289
7 630 1100 1363 1939 2176 2290 2291
7 482 1308 1728 2013 2292 2293 2294
7 304 1182 1428 2115 2222 2295 2296
7 615 1207 1593 1895 2297 2298 2299
7 76 725 1552 2132 2181 2300 2301
7 27 731 1761 2018 2193 2302 2303
7 153 833 1588 1988 2229 2304 2305
7 466 955 1549 1863 2306 2307 2308
7 710 1191 1566 1986 2309 2310 2311
7 178 1186 1399 1992 2189 2312 2313
7 241 931 1379 2117 2203 2314 2315
7 389 1213 1731 1909 2307 2316 2317
7 661 988 1458 1847 2318 2319 2320
7 585 1297 1373 2086 2186 2321 2322
7 354 1314 1738 1835 2323 2324 2325
7 425 1263 1680 2123 2305 2326 2327
7 296 884 1610 1858 2294 2328 2329
7 322 1161 1384 1922 2167 2330 2331
7 674 969 1466 2023 2324 2332 2333
7 474 905 1403 2149 2224 2271 2334
7 707 1074 1523 1866 2295 2335 2336
7 181 1142 1788 1964 2319 2337 2338
7 33 736 1601 2136 2169 2339 2340
7 117 863 1770 1927 2226 2284 2341
7 111 785 1486 2024 2184 2342 2343
7 382 899 1349 2054 2179 2323 2344
7 562 922 1510 1826 2321 2345 2346
7 493 979 1636 1956 2298 2347 2348
7 639 1286 1656 1807 2314 2349 2350
7 530 1105 1338 2151 2201 2281 2351
7 187 1254 1782 2058 2343 2346 2352
7 404 1301 1423 1919 2213 2353 2354
7 227 1130 1747 1882 2311 2355 2356
7 669 1085 1477 2127 2303 2357 2358
7 83 803 1648 1896 2196 2268 2359
7 146 839 1449 2154 2214 2360 2361
7 5 754 1794 2059 2178 2332 2362
7 413 914 1494 2107 2267 2349 2363
7 647 1011 1409 1942 2209 2355 2364
7 274 1037 1723 1878 2274 2327 2365
7 40 814 1694 1973 2187 2276 2366
7 89 808 1544 2110 2172 2337 2367
7 124 856 1719 2091 2217 2347 2368
7 396 1242 1692 1802 2240 2369 2370
7 232 1019 1704 2090 2265 2335 2371
7 668 1015 1323 2094 2182 2287 2372
7 718 1219 1343 1945 2165 2328 2373
7 460 1044 1499 2143 2253 2369 2374
7 170 1269 1777 1818 2279 2358 2375
7 55 773 1623 1915 2175 2235 2376
7 131 826 1663 2043 2208 2309 2377
7 97 749 1453 2064 2163 2292 2378
7 631 1173 1562 1906 2234 2340 2379
7 539 966 1446 1886 2244 2353 2380
7 197 1095 1434 1998 2218 2297 2381
7 654 1271 1571 2010 2289 2301 2382
7 268 1306 1394 1995 2174 2318 2383
7 409 1201 1581 1855 2261 2330 2384
7 323 1292 1734 1933 2256 2361 2385
7 686 1171 1491 1831 2278 2312 2386
7 287 1155 1354 2113 2192 2245 2387
7 590 1112 1536 1814 2238 2270 2388
7 365 1065 1684 1979 2246 2263 2389
7 440 1006 1334 2081 2170 2232 2390
7 490 1222 1369 1925 2162 2306 2391
7 620 1114 1472 2073 2249 2272 2392
7 307 1082 1678 1842 2237 2290 2393
7 166 844 1526 1951 2211 2242 2394
7 12 796 1716 1966 2166 2259 2395
7 61 778 1518 2099 2160 2316 2396
7 501 1282 1620 1875 2257 2286 2397
7 569 1228 1418 2051 2216 2254 2398
7 371 1235 1645 2036 2251 2283 2399
7 54 772 1667 2148 2366 2400 2401
7 82 802 1797 2053 2367 2402 2403
7 26 730 1548 2112 2359 2404 2405
7 96 748 1632 2152 2395 2406 2407
7 13 797 1509 2093 2266 2408 2409
7 47 766 1746 1997 2342 2410 2411
7 75 724 1592 2114 2376 2412 2413
7 110 784 1767 2083 2396 2414 2415
7 41 815 1722 1941 2262 2416 2417
7 6 755 1445 2050 2252 2418 2419
7 62 779 1522 2097 2362 2420 2421
7 103 742 1737 1991 2378 2422 2423
7 20 791 1677 1924 2250 2424 2425
7 90 809 1691 1938 2339 2426 2427
7 34 737 1490 2085 2302 2428 2429
7 69 761 1619 1918 2300 2430 2431
7 152 832 1755 2116 2394 2432 2433
7 118 862 1609 2080 2264 2434 2435
7 167 845 1713 2095 2368 2436 2437
7 132 827 1457 2150 2341 2438 2439
7 125 857 1535 1944 2248 2440 2441
7 145 838 1655 2048 2377 2442 2443
7 139 821 1580 1994 2304 2444 2445
7 160 851 1776 1921 2360 2446 2447
7 546 1091 1750 1859 2382 2448 2449
7 494 981 1359 2137 2225 2450 2451
7 642 1009 1725 2145 2397 2425 2452
7 317 1159 1605 2119 2350 2431 2453
7 633 1175 1438 2133 2195 2454 2455
7 451 959 1585 1862 2385 2456 2457
7 395 1240 1708 2106 2322 2443 2458
7 272 1035 1507 2142 2354 2426 2459
7 588 1110 1689 2156 2383 2430 2460
7 263 1195 1553 1887 2293 2461 2462
7 488 1221 1674 2125 2325 2444 2463
7 367 1068 1329 2155 2183 2464 2465
7 477 1029 1702 2089 2373 2420 2466
7 561 918 1643 2140 2391 2440 2467
7 705 1069 1787 2104 2398 2429 2468
7 391 1215 1378 2044 2180 2469 2470
7 697 1120 1744 1891 2399 2471 2472
7 377 898 1513 2139 2370 2447 2473
7 324 1295 1348 2065 2210 2474 2475
7 194 1094 1440 2131 2273 2423 2476
7 526 1165 1589 1846 2352 2477 2478
7 183 1144 1404 2100 2171 2479 2480
7 559 1276 1762 1827 2326 2481 2482
7 437 1004 1540 2159 2375 2410 2483
7 676 970 1389 2121 2207 2484 2485
7 626 1099 1791 2039 2386 2441 2486
7 513 888 1671 1883 2379 2487 2488
7 168 1268 1496 2071 2239 2414 2489
7 499 1281 1637 2022 2296 2422 2490
7 306 1081 1469 2126 2313 2446 2491
7 256 1133 1602 1843 2310 2492 2493
7 414 917 1414 2147 2200 2494 2495
7 715 1217 1779 2079 2384 2418 2496
7 401 1300 1752 2006 2299 2428 2497
7 621 1117 1364 2129 2230 2492 2498
7 224 944 1450 1854 2317 2499 2500
7 609 908 1710 2088 2388 2416 2501
7 693 1040 1774 1839 2392 2502 2503
7 578 950 1429 2060 2204 2491 2504
7 251 1318 1664 1815 2236 2484 2505
7 567 1226 1613 2030 2356 2404 2506
7 233 1023 1324 2111 2215 2502 2507
7 176 1185 1556 2016 2247 2442 2472
7 344 975 1487 1894 2338 2486 2508
7 656 1274 1383 1989 2177 2499 2509
7 329 1249 1705 1976 2275 2407 2510
7 685 1168 1733 2066 2387 2445 2480
7 294 882 1480 2122 2331 2417 2511
7 267 1304 1575 1982 2233 2413 2503
7 211 1209 1454 1830 2243 2501 2512
7 373 1239 1408 2025 2164 2487 2513
7 596 926 1617 1850 2389 2497 2514
7 359 938 1659 2063 2336 2427 2478
7 711 1192 1398 2019 2228 2511 2512
7 664 1014 1698 2109 2393 2435 2515
7 553 1259 1795 1879 2357 2494 2516
7 313 867 1339 2092 2191 2490 2517
7 538 963 1569 2134 2381 2424 2470
7 200 994 1501 2034 2291 2436 2518
7 637 1285 1789 1955 2351 2412 2507
7 189 1257 1333 1952 2161 2468 2514
7 284 1154 1481 2070 2288 2432 2516
7 447 1290 1624 1867 2269 2473 2504
7 659 984 1730 2040 2390 2419 2475
7 430 875 1682 2056 2364 2409 2509
7 648 1137 1784 1962 2372 2439 2513
7 602 1076 1649 1822 2371 2453 2519
7 484 1310 1433 1916 2168 2467 2508
7 239 929 1461 2047 2282 2415 2482
7 471 903 1530 2103 2365 2403 2505
7 278 1057 1353 1967 2219 2460 2519
7 703 1233 1771 1811 2374 2476 2517
7 407 1200 1564 1984 2315 2411 2451
7 353 1313 1685 1903 2241 2433 2495
7 226 1129 1473 2007 2258 2402 2485
7 462 1048 1344 2075 2185 2448 2510
7 218 1060 1519 1874 2260 2454 2515
7 584 1296 1740 1902 2308 2438 2488
7 534 896 1374 2032 2221 2481 2489
7 680 1150 1764 1972 2380 2408 2500
7 457 991 1720 1819 2333 2464 2506
7 670 1087 1424 2001 2197 2461 2518
7 349 871 1545 1834 2348 2474 2496
7 505 1177 1758 1937 2320 2421 2457
7 340 1148 1527 1806 2277 2452 2469
7 426 1266 1368 1897 2212 2456 2466
7 302 1181 1596 1913 2255 2406 2449
7 528 1103 1652 1949 2329 2400 2493
7 290 1003 1419 1974 2173 2458 2471
7 520 1245 1717 1803 2285 2450 2483
7 465 954 1574 2011 2344 2434 2455
7 614 1204 1736 1907 2334 2405 2465
7 383 1050 1647 1930 2280 2401 2498
7 605 1026 1695 1871 2363 2463 2479
7 420 934 1627 1960 2345 2437 2462
7 574 1126 1393 1928 2188 2459 2477
