# Generated using Miratope v0.5.0 (https://github.com/galoomba1/miratope-rs)
4OFF

# Vertices, Faces, Edges, Cells
120 3120 1200 720

# Vertices
1.3090169943749 0 0.8090169943749 0.5 
1.3090169943749 0.5 0 -0.8090169943749 
1.3090169943749 0.8090169943749 -0.5 0 
0.809016994375 -0.8090169943749 0.8090169943749 -0.8090169943749 
0.5 -1.3090169943749 0.8090169943749 0 
0.809016994375 0 -0.5 1.3090169943749 
0.5 -0.8090169943749 0 1.3090169943749 
1.3090169943749 -0 0.8090169943749 -0.5 
1.3090169943749 0.5 0 0.8090169943749 
0.809016994375 -0.8090169943749 0.8090169943749 0.8090169943749 
0.809016994375 0 -0.5 -1.3090169943749 
0.5 -0.8090169943749 0 -1.3090169943749 
0.809016994375 0.5 -1.3090169943749 0 
0.5 0 -1.3090169943749 0.8090169943749 
0.5 0 -1.3090169943749 -0.8090169943749 
0 -1.3090169943749 -0.5 0.8090169943749 
0 -1.6180339887499 0 0 
0 -1.3090169943749 -0.5 -0.8090169943749 
0 -0.8090169943749 -1.3090169943749 0.5 
0 -0.8090169943749 -1.3090169943749 -0.5 
1.3090169943749 -0.5 0 -0.8090169943749 
1.3090169943749 -0.8090169943749 -0.5 0 
0.809016994375 0.8090169943749 0.8090169943749 -0.8090169943749 
0.5 1.3090169943749 0.8090169943749 0 
0.5 0.8090169943749 0 1.3090169943749 
1.3090169943749 -0.5 0 0.8090169943749 
0.809016994375 0.8090169943749 0.8090169943749 0.8090169943749 
0.5 0.8090169943749 0 -1.3090169943749 
0.809016994375 -0.5 -1.3090169943749 0 
0 1.3090169943749 -0.5 0.8090169943749 
0 1.6180339887499 0 0 
0 1.3090169943749 -0.5 -0.8090169943749 
0 0.8090169943749 -1.3090169943749 0.5 
0 0.8090169943749 -1.3090169943749 -0.5 
1.3090169943749 0 -0.8090169943749 0.5 
0.809016994375 1.3090169943749 0 0.5 
0.5 0 1.3090169943749 -0.8090169943749 
1.3090169943749 -0.8090169943749 0.5 0 
0.809016994375 0.5 1.3090169943749 0 
0.5 1.3090169943749 -0.8090169943749 0 
0.809016994375 -0.8090169943749 -0.8090169943749 -0.8090169943749 
0 0.5 0.8090169943749 -1.3090169943749 
0 1.3090169943749 0.5 -0.8090169943749 
0 0 0 -1.6180339887499 
0 0.5 -0.8090169943749 -1.3090169943749 
1.3090169943749 0 -0.8090169943749 -0.5 
0.5 0 1.3090169943749 0.8090169943749 
0.809016994375 1.3090169943749 0 -0.5 
0.809016994375 -0.8090169943749 -0.8090169943749 0.8090169943749 
0 0.5 0.8090169943749 1.3090169943749 
0 1.3090169943749 0.5 0.8090169943749 
0 0 0 1.6180339887499 
0 0.5 -0.8090169943749 1.3090169943749 
0.809016994375 -1.3090169943749 0 0.5 
1.3090169943749 0.8090169943749 0.5 0 
0.809016994375 -0.5 1.3090169943749 0 
0.5 -1.3090169943749 -0.8090169943749 0 
0.809016994375 0.8090169943749 -0.8090169943749 -0.8090169943749 
0 -0.5 0.8090169943749 -1.3090169943749 
0 -1.3090169943749 0.5 -0.8090169943749 
0 -0.5 -0.8090169943749 -1.3090169943749 
0.809016994375 -1.3090169943749 0 -0.5 
0 0 1.6180339887499 0 
0 0.8090169943749 1.3090169943749 -0.5 
0 -0.8090169943749 1.3090169943749 -0.5 
0.809016994375 0.8090169943749 -0.8090169943749 0.8090169943749 
0 -0.5 0.8090169943749 1.3090169943749 
0 -1.3090169943749 0.5 0.8090169943749 
0 -0.5 -0.8090169943749 1.3090169943749 
0.809016994375 -0 0.5 1.3090169943749 
0 0 -1.6180339887499 0 
0 0.8090169943749 1.3090169943749 0.5 
0 -0.8090169943749 1.3090169943749 0.5 
0.809016994375 -0 0.5 -1.3090169943749 
-0.8090169943749 0.8090169943749 0.809016994375 0.8090169943749 
-0.8090169943749 0.5 1.309016994375 0 
-0.8090169943749 0.8090169943749 0.809016994375 -0.8090169943749 
-0.8090169943749 1.309016994375 0 0.5 
-0.8090169943749 1.309016994375 0 -0.5 
1.6180339887499 0 -0 0 
-0.5 1.3090169943749 0.809016994375 0 
-0.5 0 1.309016994375 -0.8090169943749 
-0.5 0.8090169943749 0 -1.3090169943749 
-0.5 0 1.309016994375 0.8090169943749 
-0.5 0.8090169943749 0 1.3090169943749 
-0.5 1.309016994375 -0.8090169943749 0 
-0.8090169943749 -0.8090169943749 0.809016994375 0.8090169943749 
-0.8090169943749 -0.5 1.309016994375 0 
-0.8090169943749 -0.8090169943749 0.809016994375 -0.8090169943749 
-0.8090169943749 -1.309016994375 0 0.5 
-0.8090169943749 -1.309016994375 0 -0.5 
-0.5 -1.3090169943749 0.809016994375 0 
-0.5 -0.8090169943749 0 -1.309016994375 
-0.5 -0.8090169943749 0 1.309016994375 
-0.5 -1.309016994375 -0.8090169943749 0 
-0.8090169943749 0 0.5 1.309016994375 
-0.8090169943749 0 -0.5 1.309016994375 
-0.8090169943749 -0.8090169943749 -0.8090169943749 0.809016994375 
-0.5 0 -1.3090169943749 0.809016994375 
-1.3090169943749 0 0.809016994375 0.5 
-1.3090169943749 0 0.809016994375 -0.5 
-0.8090169943749 0 0.5 -1.309016994375 
-1.3090169943749 0.809016994375 0.5 0 
-0.8090169943749 0 -0.5 -1.309016994375 
-0.8090169943749 -0.8090169943749 -0.8090169943749 -0.809016994375 
-0.5 0 -1.3090169943749 -0.809016994375 
-0.8090169943749 0.809016994375 -0.8090169943749 0.809016994375 
-1.3090169943749 0.5 0 0.809016994375 
-1.3090169943749 -0.809016994375 0.5 0 
-0.8090169943749 0.5 -1.309016994375 0 
-0.8090169943749 -0.5 -1.309016994375 0 
-0.8090169943749 0.809016994375 -0.8090169943749 -0.809016994375 
-1.3090169943749 0.5 0 -0.809016994375 
-1.3090169943749 -0.5 0 0.809016994375 
-1.3090169943749 0.809016994375 -0.5 0 
-1.3090169943749 -0.5 0 -0.809016994375 
-1.3090169943749 -0.809016994375 -0.5 0 
-1.3090169943749 -0 -0.809016994375 0.5 
-1.6180339887499 0 0 0 
-1.3090169943749 -0 -0.809016994375 -0.5 

# Faces
5 0 1 8 7 2
3 0 3 1
3 0 5 2
5 3 9 7 4 0
3 4 6 0
5 0 5 9 8 6
3 8 9 7
3 7 2 10
3 4 11 7
5 10 3 1 11 7
3 8 12 1
3 8 13 6
5 8 13 2 5 12
3 1 14 11
5 1 12 10 2 14
3 13 14 2
3 3 16 9
3 9 5 15
5 4 15 9 16 6
3 3 10 17
5 11 16 3 17 4
3 15 17 4
3 5 18 12
5 5 18 6 13 15
3 6 18 16
3 10 19 12
5 14 17 10 19 11
3 16 19 11
5 18 14 13 19 12
3 15 19 13
3 14 17 18
5 16 19 15 17 18
5 0 20 25 7 21
3 0 20 22
3 5 21 0
5 22 26 7 23 0
3 23 24 0
5 5 26 25 24 0
3 25 26 7
3 10 21 7
3 7 23 27
5 10 22 20 27 7
3 25 28 20
3 25 13 24
5 25 13 21 5 28
3 20 14 27
5 20 14 21 10 28
3 22 30 26
3 26 29 5
5 26 29 23 24 30
3 13 14 21
3 10 31 22
5 27 30 22 31 23
3 23 29 31
3 5 32 28
5 5 29 13 24 32
3 10 28 33
5 10 31 14 27 33
3 24 30 32
3 30 33 27
5 32 14 13 33 28
3 29 33 13
3 31 32 14
5 29 31 32 30 33
5 0 21 8 37 34
3 0 3 21
3 34 35 0
5 38 35 0 23 8
3 0 36 23
5 3 38 37 36 0
3 37 38 8
3 8 12 21
3 23 39 8
5 8 12 35 34 39
3 37 40 34
3 36 11 37
5 37 40 3 21 11
3 14 21 11
5 21 14 34 40 12
3 34 14 39
3 38 42 35
3 38 3 41
5 41 23 36 42 38
3 31 41 23
5 23 39 42 35 31
3 12 31 35
5 36 43 3 41 11
3 3 40 43
3 36 43 42
3 41 44 11
5 14 43 40 44 11
3 40 44 12
5 14 39 44 12 31
5 41 44 42 43 31
3 39 42 44
3 14 43 31
3 9 21 7
5 21 1 37 45 7
5 7 9 38 37 46
3 7 23 46
5 38 47 7 23 1
3 7 45 47
3 37 1 38
3 1 21 12
3 23 39 1
5 47 12 1 39 45
3 45 48 37
3 46 6 37
5 6 21 9 48 37
3 13 6 21
5 13 45 48 12 21
3 38 49 9
3 38 50 47
5 38 49 23 46 50
5 6 49 9 51 46
3 48 51 9
3 23 49 29
5 50 39 23 29 47
3 13 39 45
3 46 51 50
3 47 12 29
3 6 49 52
5 48 52 6 13 51
5 29 51 50 52 49
3 48 52 12
5 29 12 52 39 13
3 13 51 29
3 50 39 52
5 0 2 25 54 34
3 0 2 22
3 34 53 0
5 55 22 0 36 54
5 0 53 55 25 4
3 4 36 0
3 25 2 28
3 54 55 25
3 25 4 56
5 25 56 34 53 28
5 2 22 57 54 27
3 14 2 27
5 14 34 57 28 2
3 54 57 34
3 34 14 56
3 22 55 58
3 57 43 22
5 36 27 58 22 43
3 54 27 36
3 55 59 53
5 58 4 36 59 55
3 4 58 17
5 4 56 59 53 17
3 28 17 53
3 36 43 59
5 14 43 57 60 27
3 27 58 60
3 28 60 57
5 14 17 28 60 56
3 14 17 43
5 17 43 59 60 58
3 56 60 59
3 8 9 21
5 8 45 25 2 21
5 8 46 25 26 9
3 23 8 46
5 8 23 2 26 47
3 45 47 8
3 25 2 26
3 45 61 25
3 4 46 25
5 9 61 25 4 21
3 10 2 21
3 27 2 23
5 45 27 2 10 47
3 9 62 26
3 26 47 63
5 23 62 26 63 46
3 11 4 21
5 45 11 21 10 61
5 46 64 9 62 4
3 61 64 9
3 23 62 41
5 27 63 47 41 23
3 45 27 11
3 63 64 46
3 4 58 62
5 61 58 4 11 64
3 47 10 41
5 64 41 62 58 63
3 61 58 10
5 27 11 41 10 58
3 41 64 11
3 27 63 58
3 7 2 26
5 7 45 54 20 2
5 7 26 55 54 46
3 45 61 7
3 7 4 46
5 55 61 7 4 20
3 28 20 2
5 24 2 26 65 54
3 13 24 2
5 45 13 2 28 65
3 54 55 20
3 56 20 4
5 20 28 61 45 56
3 26 66 55
3 26 65 51
5 46 24 66 26 51
3 45 65 54
3 54 46 24
3 13 56 45
3 55 61 67
5 55 66 4 46 67
3 51 67 46
3 4 15 66
5 15 61 67 56 4
3 28 15 61
5 13 24 68 65 51
3 24 68 66
3 65 28 68
3 13 51 15
5 13 56 68 28 15
5 66 15 51 67 68
3 56 68 67
5 0 1 37 54 20
3 0 35 1
3 0 20 53
5 0 35 69 54 24
5 37 6 0 53 69
3 0 6 24
3 40 1 37
5 39 54 57 35 1
5 14 20 57 40 1
3 14 39 1
3 54 20 57
5 56 37 40 53 20
3 20 56 14
3 37 54 69
3 37 56 6
3 54 24 39
3 35 52 69
3 35 32 57
5 32 35 52 39 24
3 53 69 68
3 53 18 40
5 68 53 18 6 56
5 24 6 52 69 68
3 18 52 6
3 32 68 24
3 57 70 40
5 18 40 70 56 14
5 14 39 70 57 32
3 39 52 70
3 18 32 14
3 56 68 70
5 68 70 52 18 32
5 1 21 2 20 34
3 3 21 1
3 35 1 34
5 1 35 22 2 23
3 23 1 36
5 3 22 20 36 1
3 20 2 22
3 2 21 5
3 23 2 24
5 2 5 35 34 24
3 53 20 34
5 3 53 20 4 21
3 36 20 4
3 6 4 21
5 5 53 34 6 21
3 6 24 34
3 22 35 71
3 22 3 62
5 23 36 71 22 62
3 49 62 23
5 23 24 71 35 49
3 5 49 35
3 53 72 3
5 62 4 36 72 3
5 72 6 4 66 53
3 4 62 66
3 53 66 5
5 49 5 66 24 6
3 36 72 71
3 49 72 6
5 62 49 72 71 66
3 66 71 24
3 8 1 38
5 8 1 34 54 45
5 54 46 8 38 69
3 45 8 48
3 6 8 46
5 6 8 48 69 34
3 34 1 40
5 54 73 38 1 36
3 1 36 11
5 11 1 40 73 45
3 54 34 69
3 56 6 34
5 40 48 45 56 34
3 45 73 54
3 54 46 36
3 69 72 38
3 38 64 73
5 46 36 72 38 64
3 45 11 56
5 6 72 69 67 46
3 64 67 46
5 11 64 73 59 36
3 36 72 59
3 69 67 48
3 6 72 16
5 16 48 67 56 6
3 73 40 59
3 11 64 16
5 16 40 59 56 11
3 48 40 16
5 67 59 72 16 64
3 56 59 67
5 8 37 54 25 7
3 7 8 47
3 25 61 7
5 7 47 73 54 27
5 37 11 7 61 73
3 7 27 11
3 8 48 37
5 8 39 54 65 47
5 13 25 65 48 8
3 8 39 13
3 25 65 54
5 48 61 25 56 37
3 25 13 56
3 54 37 73
3 37 11 56
3 27 39 54
3 73 44 47
3 47 33 65
5 44 47 33 27 39
3 61 73 60
3 61 19 48
5 19 61 60 56 11
5 60 73 44 11 27
3 11 19 44
3 48 65 70
5 19 13 56 70 48
3 27 60 33
5 13 39 70 65 33
3 19 33 13
3 39 70 44
3 60 70 56
5 33 19 44 70 60
5 37 34 20 25 45
3 25 55 20
3 25 65 45
5 25 46 37 69 55
3 25 46 24
5 24 34 69 65 25
3 57 20 34
5 36 20 55 73 37
3 27 36 20
5 27 20 57 73 45
3 37 34 69
3 45 73 37
3 37 46 36
3 39 24 34
5 34 39 45 65 57
3 45 39 27
3 55 71 69
5 63 55 71 36 46
3 55 63 73
5 50 69 71 24 46
3 50 63 46
3 36 42 71
5 42 73 63 27 36
3 69 50 65
3 30 71 24
5 42 50 63 30 71
5 30 65 50 39 24
3 57 42 73
3 27 63 30
5 39 27 30 57 42
3 57 30 65
3 39 50 42
3 1 36 0
3 0 2 24
5 0 62 7 46 36
3 62 49 0
5 0 49 8 46 24
3 8 46 7
3 7 27 2
3 41 7 62
5 7 27 36 1 41
3 8 39 1
3 29 8 49
5 24 39 8 29 2
3 41 31 1
5 1 39 27 2 31
3 29 2 31
3 46 75 36
3 46 74 24
5 49 75 46 74 62
3 27 76 36
5 62 76 36 75 41
3 74 76 62
3 24 77 39
5 49 77 24 74 29
3 49 75 77
3 27 78 39
5 41 78 27 76 31
3 75 78 41
5 31 77 39 78 29
3 74 78 29
3 31 77 76
5 74 76 77 75 78
3 0 20 2
5 2 26 79 35 0
5 3 79 55 20 0
3 35 0 71
3 0 62 3
5 26 55 71 0 62
5 2 20 57 79 10
3 26 30 2
3 10 2 31
5 35 31 2 30 57
3 55 20 58
3 57 20 43
5 10 58 20 43 3
3 26 55 79
3 26 80 62
5 30 71 35 80 26
3 35 57 79
3 35 31 80
3 3 79 10
5 58 55 81 3 62
3 3 43 81
3 71 81 55
3 62 76 58
5 81 80 62 76 71
3 30 76 71
3 58 82 10
5 10 82 57 43 31
3 57 30 82
5 81 82 58 76 43
5 31 76 30 82 80
3 43 76 31
3 80 82 81
3 2 25 7
5 9 79 55 25 7
5 22 2 7 47 79
3 7 62 9
3 47 7 63
5 62 22 55 63 7
5 2 25 65 79 5
3 55 25 66
3 51 25 65
5 9 5 66 25 51
3 30 2 22
3 5 29 2
5 47 29 2 30 65
3 22 79 55
3 62 80 22
5 22 30 63 47 80
3 5 79 9
5 9 62 66 55 83
3 51 83 9
3 65 79 47
3 63 83 55
3 29 80 47
3 5 66 84
5 5 29 51 65 84
3 62 66 74
5 74 63 83 80 62
3 63 30 74
3 65 30 84
5 66 74 51 83 84
3 29 51 74
5 74 29 80 84 30
3 83 84 80
3 0 34 1
5 1 0 22 79 38
5 5 79 69 34 0
3 22 71 0
3 0 49 5
5 69 38 49 0 71
5 57 79 12 1 34
3 38 1 42
3 12 1 31
5 22 57 42 1 31
3 69 52 34
3 34 32 57
5 5 32 34 52 12
3 22 79 57
5 38 80 22 71 42
3 31 80 22
3 69 79 38
3 38 80 49
3 12 79 5
5 52 69 84 5 49
3 5 32 84
3 69 71 84
3 42 77 71
5 84 80 49 77 71
3 52 77 49
5 32 57 85 12 31
3 12 85 52
3 42 85 57
5 77 42 85 80 31
3 32 77 31
5 77 32 84 85 52
3 84 85 80
3 8 37 1
5 8 47 79 35 1
5 9 8 37 69 79
3 9 49 8
3 47 8 50
5 35 69 50 8 49
5 1 3 79 73 37
3 35 1 42
3 3 41 1
5 47 73 42 1 41
3 37 72 69
3 73 37 64
5 9 64 37 72 3
3 3 79 9
5 9 83 69 72 49
3 64 83 9
3 35 79 69
3 49 80 35
5 42 50 47 80 35
3 3 72 81
5 41 3 81 73 64
3 73 79 47
3 47 80 41
3 69 83 50
3 42 81 73
3 72 75 49
5 83 80 49 75 50
5 83 81 72 75 64
3 64 75 41
5 80 41 75 42 81
3 42 75 50
3 80 81 83
5 8 7 26 79 38
3 8 45 7
3 26 7 63
5 7 10 79 73 45
3 7 41 10
5 41 38 73 63 7
3 38 50 8
5 45 8 12 79 65
3 8 29 12
5 65 26 29 8 50
3 65 79 26
5 26 80 38 50 63
3 29 80 26
3 73 79 38
3 41 80 38
3 73 45 44
3 45 33 65
5 10 33 45 44 12
3 10 12 79
5 10 41 44 73 82
3 10 82 33
3 73 63 82
3 63 78 50
5 41 80 82 63 78
5 29 33 65 85 12
3 44 85 12
3 50 85 65
3 44 78 41
5 78 50 85 80 29
3 29 78 33
3 82 85 80
5 82 85 44 78 33
3 22 55 26
5 26 47 38 35 22
5 38 69 55 26 9
3 5 9 26
3 26 47 65
5 26 65 69 35 5
3 22 35 57
5 22 3 38 73 55
3 10 22 3
5 10 47 73 57 22
3 9 38 3
3 35 69 38
3 38 47 73
5 3 53 55 61 9
5 5 53 69 48 9
3 48 61 9
3 12 35 5
5 35 12 47 65 57
3 40 53 3
5 10 61 73 40 3
3 53 55 69
3 55 73 61
3 12 10 47
3 5 53 28
5 28 53 40 48 61
5 5 12 48 65 28
3 69 65 48
3 10 61 28
5 10 12 40 57 28
3 40 57 73
3 12 48 40
3 28 65 57
3 0 20 36
3 6 21 0
5 6 0 66 25 46
3 62 66 0
3 7 46 25
3 7 11 21
3 62 7 58
5 36 11 7 58 20
3 25 56 20
3 66 25 15
5 21 15 25 56 6
3 17 20 58
5 21 17 20 56 11
3 17 21 15
3 46 87 36
3 46 6 86
5 86 62 66 87 46
3 36 88 11
5 87 58 62 88 36
3 56 89 6
5 66 89 6 86 15
3 62 86 88
3 11 90 56
5 58 90 11 88 17
3 66 87 89
3 58 87 90
5 89 17 15 90 56
3 15 90 86
3 17 88 89
5 86 88 89 87 90
3 1 21 0
5 0 53 79 9 21
3 22 0 62
3 0 72 53
5 38 72 0 62 9
5 21 1 40 79 10
3 38 41 1
5 22 43 1 41 10
3 40 1 43
3 16 21 9
3 17 21 10
5 40 53 17 21 16
3 10 22 79
5 41 38 81 22 62
3 43 22 81
3 38 79 9
3 38 81 72
3 62 91 9
5 72 16 9 91 53
3 40 79 53
3 53 17 91
3 62 41 88
5 72 88 62 91 81
3 41 92 10
5 17 43 40 92 10
3 16 88 72
5 41 88 43 81 92
3 40 92 16
3 17 88 43
5 88 17 91 92 16
3 81 91 92
3 7 8 21
3 26 7 62
5 21 3 79 61 7
5 38 3 62 7 64
3 61 7 64
5 5 21 8 48 79
3 38 49 8
5 26 51 8 49 5
3 48 8 51
3 5 79 26
5 26 83 38 49 62
3 51 26 83
3 3 16 21
3 5 21 15
5 15 21 16 48 61
3 3 38 79
3 38 83 64
3 62 91 3
5 16 64 61 91 3
3 48 79 61
3 49 93 5
5 51 15 5 93 48
3 62 49 86
5 62 86 64 83 91
3 15 91 61
5 49 86 51 83 93
3 16 93 48
3 64 16 86
3 15 86 51
5 86 16 93 91 15
3 83 91 93
3 0 20 34
3 3 72 0
3 5 66 0
5 55 69 72 0 66
5 20 34 40 79 28
3 55 20 59
3 20 17 28
5 3 17 20 59 40
3 68 34 69
3 40 18 34
5 5 28 68 34 18
3 3 79 40
5 55 91 3 72 59
3 17 3 91
3 55 79 69
3 28 79 5
3 55 66 91
5 68 66 5 93 69
3 5 93 18
3 69 93 72
3 72 59 89
5 93 91 66 89 72
3 66 68 89
3 40 59 94
5 18 17 28 94 40
3 68 94 28
5 89 17 91 94 59
3 17 89 18
5 68 94 93 18 89
3 93 94 91
3 25 54 20
5 25 61 79 53 20
5 54 25 26 79 69
3 25 66 26
3 25 67 61
5 66 53 69 67 25
5 20 54 73 79 22
3 22 58 20
3 53 20 59
5 58 20 59 73 61
3 26 79 22
5 22 71 54 63 26
3 63 26 83
5 69 71 66 26 83
3 22 81 71
5 58 63 73 81 22
3 54 71 69
3 73 63 54
3 69 79 53
3 73 79 61
3 66 91 53
5 53 91 61 67 59
3 69 67 83
3 61 58 91
3 71 87 66
5 63 87 71 81 83
3 59 81 73
3 63 87 58
5 66 91 83 67 87
5 81 91 58 87 59
3 59 87 67
3 83 91 81
3 7 45 25
3 9 64 7
3 10 7 58
5 73 55 58 7 64
5 25 45 48 79 28
3 55 67 25
3 28 15 25
5 15 9 48 67 25
3 48 79 9
5 55 91 9 64 67
3 9 91 15
3 45 60 73
3 48 19 45
5 10 28 60 45 19
3 73 79 55
3 28 79 10
3 58 91 55
5 60 73 92 10 58
3 19 92 10
3 73 92 64
3 48 94 67
5 15 19 48 94 28
3 67 90 64
5 92 91 58 90 64
3 60 94 28
3 58 90 60
5 15 90 67 94 91
3 15 19 90
3 91 94 92
5 19 90 60 94 92
3 0 4 21
3 0 34 24
5 0 72 37 46 4
3 49 72 0
3 37 46 8
3 13 21 8
3 49 52 8
5 34 24 13 8 52
3 34 56 37
3 16 37 72
5 21 4 56 37 16
5 34 18 21 13 56
3 16 18 21
3 52 18 34
3 46 86 4
3 46 95 24
5 49 86 46 95 72
3 4 89 56
5 86 16 72 89 4
3 24 96 13
5 24 95 52 49 96
3 49 96 86
3 89 95 72
3 13 97 56
5 52 97 13 96 18
5 56 97 16 18 89
3 52 97 95
3 86 97 16
3 89 96 18
5 86 96 89 95 97
3 0 21 2
3 35 49 0
3 0 66 53
5 49 0 66 26 9
3 29 2 26
5 12 79 28 2 21
3 32 2 28
5 12 29 2 32 35
3 26 79 9
3 66 84 26
5 49 29 26 84 35
3 9 21 15
3 12 21 18
5 28 15 21 18 53
3 9 93 49
5 9 15 66 53 93
3 35 79 12
3 32 35 84
3 28 79 53
3 18 93 53
3 49 96 29
5 49 96 66 84 93
3 12 98 29
5 32 18 12 98 28
3 66 96 15
3 28 98 15
5 32 96 29 98 84
5 18 93 98 15 96
3 32 96 18
3 84 98 93
3 34 37 54
5 37 48 79 53 34
5 37 54 55 79 38
3 38 72 37
3 48 37 67
5 55 67 37 72 53
5 35 34 54 65 79
3 34 52 35
3 53 34 68
5 65 48 52 34 68
3 55 71 54
5 38 35 71 54 50
3 65 54 50
3 35 79 38
5 55 71 72 38 83
3 50 38 83
3 71 84 35
5 52 50 65 84 35
3 55 79 53
3 48 79 65
3 67 83 55
3 72 53 93
5 48 67 68 53 93
3 72 71 95
5 83 84 71 95 50
3 48 93 52
5 93 72 95 67 83
3 65 68 84
3 50 95 52
3 68 95 67
5 84 93 52 95 68
3 83 93 84
3 37 8 45
3 8 51 9
3 12 52 8
5 51 8 52 69 65
5 40 79 61 45 37
3 69 67 37
3 40 16 37
5 9 61 67 37 16
3 61 79 9
5 69 67 51 9 93
3 16 93 9
3 61 45 19
3 65 45 70
5 40 12 19 45 70
3 69 79 65
3 40 79 12
3 69 52 93
3 61 94 67
5 19 61 94 40 16
5 52 70 65 98 12
3 19 98 12
3 51 98 65
3 70 94 40
3 67 97 51
5 93 94 67 97 16
5 93 52 97 51 98
3 70 97 52
3 19 97 16
3 93 98 94
5 94 98 19 97 70
3 3 22 0
3 23 0 49
3 4 0 66
3 7 26 9
3 23 41 7
3 4 58 7
5 41 7 58 22 3
3 26 22 80
3 26 74 66
5 49 80 26 74 23
3 58 22 76
5 80 41 23 76 22
3 9 91 3
3 49 9 86
5 9 86 4 66 91
3 74 23 76
3 41 3 88
5 4 88 3 91 58
3 86 4 88
3 49 99 80
5 49 99 66 74 86
3 41 100 80
5 76 88 41 100 58
3 66 91 99
3 58 100 91
5 99 76 74 100 80
3 86 100 74
5 91 100 86 88 99
3 76 88 99
3 1 23 0
3 0 4 20
5 46 23 0 71 54
3 71 72 0
3 11 37 1
5 27 54 42 1 23
5 11 27 20 43 1
3 42 1 43
3 20 54 27
5 4 20 59 37 11
3 43 20 59
3 46 37 54
3 72 59 37
3 71 54 42
3 23 75 46
3 27 23 76
5 71 76 23 75 42
3 4 87 46
5 71 87 46 75 72
3 4 88 11
5 88 72 59 87 4
3 71 76 87
3 27 101 11
5 11 101 59 43 88
3 75 88 72
5 27 101 42 43 76
3 42 101 75
3 59 87 101
3 43 88 76
5 76 87 101 75 88
3 8 23 7
3 7 4 25
5 7 23 36 54 63
5 36 4 7 64 37
3 64 7 63
3 6 37 8
5 24 23 8 50 54
5 6 24 25 51 8
3 50 8 51
3 25 54 24
5 6 37 67 25 4
3 51 67 25
3 37 54 36
3 67 37 64
3 50 54 63
3 23 75 36
3 24 23 74
5 50 63 74 23 75
3 4 87 36
3 6 86 4
5 86 64 67 87 4
5 36 75 64 63 87
3 24 95 6
5 67 51 86 6 95
5 74 51 50 95 24
3 74 87 63
3 50 95 75
3 75 86 64
3 87 95 67
3 51 74 86
5 75 86 74 87 95
3 22 35 0
3 36 72 0
3 24 0 66
5 42 35 22 30 54
3 22 81 55
3 30 76 22
5 36 76 22 81 42
3 54 69 55
3 42 54 36
3 24 54 30
3 35 84 69
3 42 35 77
5 30 24 77 35 84
3 55 87 66
5 81 72 36 87 55
3 36 76 87
3 72 95 69
5 24 66 84 69 95
3 24 77 95
3 81 99 72
5 66 99 72 95 87
3 66 99 84
3 42 102 81
5 77 76 30 102 42
3 30 84 102
5 99 81 102 87 76
3 77 99 76
5 99 77 95 102 84
3 95 102 87
3 7 26 47
3 46 7 64
3 27 58 7
3 55 26 83
5 50 47 26 30 54
3 26 74 30
5 46 50 83 26 74
3 55 73 54
3 50 54 46
3 27 54 30
3 58 55 87
5 64 83 55 87 46
3 74 87 46
3 73 47 82
3 50 78 47
5 82 30 27 78 47
3 73 101 64
5 27 101 73 82 58
3 27 78 101
3 50 83 102
5 78 50 102 30 74
3 64 100 83
5 58 87 101 64 100
3 82 100 58
3 82 102 30
5 74 100 83 102 87
3 78 100 74
3 87 101 102
5 100 78 101 102 82
3 7 4 21
3 7 45 27
3 41 7 64
3 36 1 37
3 1 21 14
3 44 1 41
5 27 14 1 44 45
3 45 56 37
3 16 37 64
5 21 19 45 56 14
3 19 21 16
3 44 45 19
3 36 88 4
3 56 4 90
5 16 64 90 4 88
3 27 36 101
5 36 101 64 41 88
3 27 14 103
5 41 103 27 101 44
3 41 103 88
3 64 90 101
3 56 104 14
5 44 104 14 103 19
5 16 104 56 90 19
3 16 104 88
3 101 104 44
3 19 103 90
5 88 104 101 90 103
3 7 21 2
3 47 7 41
3 61 7 58
3 22 31 2
3 33 2 28
5 31 12 47 33 2
3 3 17 21
3 12 19 21
5 28 61 19 21 17
3 3 79 22
3 58 82 22
5 41 31 22 82 47
3 3 92 41
5 3 17 58 61 92
3 47 12 79
3 61 79 28
3 33 47 82
3 61 92 19
3 12 31 105
5 19 33 28 105 12
3 41 103 31
5 41 103 58 82 92
3 28 105 17
3 17 103 58
5 103 33 82 105 31
5 19 103 17 105 92
3 33 103 19
3 82 92 105
3 45 54 37
3 37 64 38
3 40 59 37
5 59 37 64 61 55
5 47 79 57 54 45
3 55 63 54
5 42 54 63 47 38
3 57 42 54
3 47 79 38
5 63 64 38 81 55
3 42 81 38
3 47 44 45
3 45 60 61
5 60 45 44 40 57
3 55 61 79
3 40 79 57
3 55 81 59
3 63 47 82
5 44 47 82 57 42
3 61 92 64
5 59 60 61 92 40
3 64 63 101
5 82 81 42 101 63
3 40 92 44
5 81 92 64 101 59
3 57 60 82
3 44 101 42
3 59 60 101
5 92 44 101 60 82
3 81 82 92
3 34 1 37
3 3 43 1
3 1 44 12
5 44 1 43 57 73
3 73 59 37
3 48 16 37
5 16 3 53 59 37
3 34 18 53
3 57 70 34
5 18 12 48 70 34
3 53 79 3
5 73 59 43 3 92
3 16 3 92
3 57 79 73
3 12 48 79
3 59 94 53
5 16 48 94 53 18
3 44 92 73
3 48 94 70
5 57 105 12 44 70
3 12 18 105
3 57 43 105
3 59 43 104
5 16 104 59 94 92
5 44 92 105 43 104
3 18 104 16
3 70 104 44
5 70 104 18 105 94
3 92 105 94
3 0 2 23
3 6 34 0
3 66 0 71
3 13 2 25
3 25 54 46
5 13 6 34 68 25
3 66 25 68
5 39 54 30 2 23
5 34 39 13 2 32
3 32 2 30
3 34 54 39
3 32 68 34
3 30 54 71
3 46 23 74
3 39 77 23
5 30 74 23 77 71
3 46 95 6
5 71 95 46 74 66
3 6 96 13
5 68 95 6 96 66
3 77 95 71
3 13 106 39
5 13 106 68 32 96
3 74 96 66
5 30 106 39 77 32
3 30 74 106
5 96 77 95 106 74
3 68 95 106
3 32 96 77
3 26 51 25
3 25 45 54
3 28 25 68
5 51 25 68 69 48
3 47 79 26
5 50 69 84 26 51
3 26 84 30
3 69 54 50
3 57 30 54
3 45 33 47
3 45 70 48
5 33 28 57 70 45
3 69 79 48
3 57 28 79
3 50 85 47
5 30 57 85 47 33
3 69 68 84
3 51 48 98
5 68 70 48 98 28
3 50 51 106
5 30 106 50 85 84
3 33 98 28
3 57 85 70
5 98 51 106 68 84
3 33 106 30
3 68 70 106
5 33 106 70 85 98
3 84 98 85
3 23 0 62
3 0 35 5
3 0 72 6
3 9 38 8
3 23 29 8
3 6 52 8
5 29 8 52 35 5
3 35 38 80
3 72 75 38
5 23 62 80 38 75
3 9 93 5
3 62 9 86
5 6 72 93 9 86
5 23 77 35 80 29
3 75 23 77
3 35 77 52
3 29 96 5
5 6 96 5 93 52
3 86 6 96
3 80 62 99
5 62 99 72 75 86
3 72 99 93
3 29 107 80
5 77 96 29 107 52
3 93 107 52
5 99 77 75 107 80
3 86 107 75
5 96 99 93 107 86
3 77 99 96
3 8 47 38
3 51 8 46
3 39 8 52
3 46 63 54
3 54 65 69
3 42 54 39
3 38 83 69
3 42 38 75
5 83 63 46 75 38
5 83 51 46 95 69
3 46 95 75
3 63 78 47
3 65 47 85
5 42 85 47 78 39
3 69 95 52
3 83 102 63
5 78 63 102 42 75
3 51 65 106
5 85 52 39 106 65
3 39 78 106
3 85 102 42
3 51 83 107
5 52 107 51 106 95
3 52 107 85
5 95 102 83 107 75
3 78 107 75
3 102 106 95
5 102 106 78 107 85
3 0 53 3
3 36 0 71
3 0 49 6
3 37 69 38
3 36 59 37
3 6 37 16
3 3 81 38
3 49 38 75
5 71 36 75 38 81
3 16 88 3
5 3 88 36 59 81
3 69 93 53
3 53 89 59
5 6 89 53 93 16
3 75 88 36
3 71 95 69
5 49 93 69 95 6
3 6 95 89
3 81 99 71
5 75 95 71 99 49
3 49 99 93
3 59 108 81
5 88 16 108 59 89
3 93 108 16
5 88 75 108 81 99
3 75 108 95
5 93 99 89 95 108
3 89 99 88
3 7 61 9
3 7 63 46
3 11 41 7
3 38 37 73
3 46 67 37
3 11 37 16
3 9 83 38
3 41 75 38
5 83 67 46 86 9
3 9 86 16
3 46 75 86
3 61 92 73
3 67 90 61
5 92 16 11 90 61
3 63 101 73
5 11 101 73 92 41
3 90 101 11
3 63 100 83
5 75 101 63 100 41
3 41 100 92
3 83 108 67
5 86 90 67 108 16
5 86 100 83 108 75
3 16 108 92
3 75 101 108
3 86 100 90
5 101 108 92 100 90
3 8 21 6
3 39 8 45
3 29 8 51
3 25 24 2
3 56 45 25
3 51 15 25
3 14 2 21
5 39 14 2 33 45
3 33 2 29
3 15 21 19
3 33 19 45
3 24 6 96
3 6 97 56
5 51 97 6 96 15
3 39 106 24
5 51 106 24 96 29
3 39 109 14
5 39 106 33 29 109
3 56 110 14
5 19 109 14 110 33
3 96 109 29
3 97 106 51
5 19 97 56 110 15
3 96 110 15
3 106 110 33
3 97 109 19
5 97 109 96 110 106
3 8 1 21
3 29 8 47
3 48 8 52
3 31 1 35
3 40 1 44
5 31 1 44 47 10
3 5 21 18
3 10 21 19
5 18 40 48 19 21
3 5 79 35
5 31 35 85 47 29
3 52 85 35
3 10 79 47
3 40 48 79
3 44 85 47
3 29 98 5
5 5 98 48 52 18
3 31 10 105
5 10 105 40 44 19
3 19 98 48
3 18 105 40
3 31 109 29
5 85 98 29 109 52
5 105 85 44 109 31
3 52 109 18
3 19 44 109
5 105 98 19 109 18
3 98 105 85
3 20 2 25
3 61 25 15
3 65 25 68
5 68 25 15 5 53
3 5 32 2
3 10 33 2
5 33 2 32 57 65
3 17 20 53
3 57 20 60
5 10 17 20 60 61
3 5 79 53
3 10 79 61
3 57 79 65
5 15 17 53 94 61
3 68 53 94
3 5 98 15
5 32 68 65 98 5
3 60 94 61
3 17 105 10
5 60 33 10 105 57
3 33 98 65
3 32 105 57
3 15 110 17
5 15 110 68 94 98
5 17 105 94 60 110
3 32 110 68
5 98 33 110 32 105
3 33 60 110
3 94 105 98
3 2 23 7
3 7 11 45
3 63 58 7
3 14 2 20
3 30 2 33
3 54 36 20
5 45 11 14 20 60
3 58 60 20
3 45 54 39
3 63 30 54
3 23 76 36
3 39 23 78
5 76 30 63 78 23
3 60 45 33
3 11 36 101
5 36 76 58 63 101
3 14 11 103
5 60 101 11 103 58
3 78 63 101
3 14 111 39
5 30 111 39 78 33
5 33 103 14 111 60
3 76 103 58
3 30 111 76
5 78 103 76 111 101
3 33 78 103
3 60 101 111
3 54 34 20
3 22 43 20
3 28 60 20
5 73 40 43 20 60
3 34 32 35
3 34 70 40
5 32 28 65 70 34
3 22 79 35
3 30 82 22
5 43 22 82 73 42
3 73 42 54
3 65 30 54
3 42 85 35
5 32 35 85 65 30
3 40 79 73
3 65 28 79
3 73 82 60
3 70 85 65
3 43 105 40
5 28 105 40 70 60
3 32 105 28
3 42 43 111
5 85 82 30 111 42
3 30 111 32
5 105 43 111 60 82
5 85 70 111 32 105
3 60 111 70
3 82 105 85
3 7 62 23
3 7 10 47
3 11 64 7
3 1 38 3
3 23 1 31
3 11 44 1
3 47 38 80
3 38 75 64
5 31 23 78 47 80
3 75 78 23
3 62 3 88
3 10 3 92
5 11 88 3 92 64
3 47 78 44
3 80 62 100
5 64 75 88 62 100
3 31 10 103
5 11 44 92 10 103
3 88 103 11
3 64 100 92
3 31 112 80
5 31 112 44 78 103
5 75 112 80 100 78
3 44 92 112
3 75 88 112
5 92 112 88 103 100
3 78 100 103
3 38 1 35
3 43 1 36
3 44 1 39
3 54 71 36
3 54 57 73
3 50 54 39
3 38 81 73
3 50 38 75
3 71 35 77
3 57 85 35
5 50 39 77 35 85
5 73 81 43 36 101
3 36 101 75
3 81 71 102
5 75 77 71 102 50
3 73 44 101
3 50 85 102
5 39 44 85 57 111
3 39 77 111
3 43 57 111
3 43 112 81
5 44 101 111 43 112
3 85 112 44
5 75 101 102 81 112
3 75 112 77
5 77 112 85 102 111
3 101 111 102
3 4 62 0
3 5 53 0
3 24 0 71
3 26 55 25
3 15 25 4
3 24 68 25
3 5 84 26
3 62 26 74
5 24 71 84 26 74
3 53 55 91
3 71 55 87
5 4 87 55 91 62
5 91 15 4 89 53
3 89 4 87
3 68 53 89
3 15 5 96
5 68 84 5 96 24
5 74 87 71 99 62
3 91 99 62
3 71 99 84
3 24 96 74
3 91 113 15
5 68 113 15 96 89
3 74 87 113
5 74 113 84 99 96
3 84 113 68
5 99 89 87 113 91
3 96 99 89
3 55 61 25
3 51 25 46
3 56 68 25
3 46 37 64
3 37 48 69
3 56 37 59
3 55 69 83
3 59 87 55
3 46 95 87
3 68 69 95
3 48 61 94
3 64 90 61
5 59 94 61 90 56
3 51 97 48
5 68 56 97 48 94
3 83 64 108
5 90 87 59 108 64
3 83 113 51
5 68 95 97 51 113
3 90 97 56
3 59 94 108
5 87 113 83 108 95
3 68 94 113
3 87 90 113
3 95 108 97
5 90 97 108 94 113
3 9 48 8
3 46 8 50
3 13 29 8
3 26 65 25
3 46 25 67
3 13 25 15
3 26 83 9
3 29 74 26
3 9 86 15
3 46 74 86
3 65 48 98
3 48 97 67
5 15 13 97 48 98
3 50 65 106
5 29 98 65 106 13
3 97 106 13
3 83 107 50
5 74 29 107 50 106
3 29 107 98
3 83 67 113
5 86 97 67 113 15
3 98 113 15
5 74 113 83 107 86
3 74 113 106
3 97 107 86
5 97 107 98 113 106
3 11 21 1
3 39 34 1
3 43 1 31
3 27 2 20
3 2 21 13
3 31 32 2
3 56 20 34
3 17 20 43
3 18 21 17
3 32 34 18
3 11 103 27
3 56 11 104
5 43 104 11 103 17
3 27 111 39
5 103 31 43 111 27
3 39 13 109
3 13 110 56
5 18 32 110 13 109
5 39 109 31 32 111
5 18 104 56 110 17
3 103 109 31
3 104 111 43
3 17 110 103
3 32 110 111
3 18 109 104
5 103 110 111 104 109
3 8 49 23
3 12 47 8
3 13 8 51
3 2 26 5
3 23 2 31
3 13 2 33
3 26 80 47
3 51 74 26
3 74 23 78
3 47 78 33
3 49 5 96
3 12 98 5
5 51 13 96 5 98
3 49 107 80
5 51 74 96 49 107
3 31 109 12
5 13 33 98 12 109
3 13 109 96
3 51 98 107
3 31 80 114
5 109 78 33 114 31
5 107 78 74 114 80
3 96 114 74
3 33 114 98
3 107 109 78
5 98 114 96 109 107
3 22 26 2
3 24 32 2
3 27 2 33
3 26 74 63
3 65 84 26
3 71 22 76
3 22 82 57
5 76 27 63 82 22
3 54 71 24
3 27 54 63
3 54 65 57
5 74 63 102 71 76
3 71 102 84
3 74 106 24
5 32 84 65 106 24
3 82 63 102
3 27 111 76
5 33 82 57 111 27
3 65 106 33
3 32 111 57
3 76 114 74
5 74 114 84 102 106
3 32 114 84
5 106 111 32 114 33
5 76 111 102 82 114
3 82 114 33
3 102 106 111
3 8 1 23
3 8 45 13
3 50 52 8
3 14 34 1
3 44 1 42
3 54 24 34
5 13 45 70 34 14
3 52 34 70
3 54 45 27
3 50 42 54
3 24 77 23
3 27 78 23
5 77 42 50 78 23
3 44 70 45
3 24 106 13
5 50 106 24 77 52
3 27 111 14
5 44 78 27 111 42
3 14 13 109
5 52 70 106 13 109
3 78 106 50
5 70 111 14 109 44
3 77 111 42
3 52 77 109
3 44 78 109
5 78 106 111 77 109
3 106 111 70
3 7 62 4
3 7 61 10
3 7 63 27
3 22 55 20
3 17 20 4
3 27 60 20
3 22 76 62
3 10 22 82
3 61 55 91
3 63 87 55
5 4 17 91 61 90
3 87 90 4
3 91 100 62
5 62 100 63 87 76
3 60 90 61
3 17 103 10
5 27 60 82 10 103
3 82 100 63
3 27 103 76
3 17 91 115
5 103 90 60 115 17
5 91 115 87 90 100
3 76 87 115
5 76 103 100 82 115
3 82 115 60
3 90 100 103
3 53 20 55
3 36 43 20
3 56 20 60
3 37 72 36
3 40 37 73
3 67 37 56
3 55 73 81
3 67 55 87
3 53 89 72
3 40 94 53
5 56 67 94 53 89
3 87 101 36
3 60 101 73
3 72 108 81
5 89 72 108 67 87
3 43 104 40
5 40 104 56 60 94
3 67 94 108
3 56 89 104
3 81 115 43
5 104 101 60 115 43
5 108 101 87 115 81
3 60 94 115
3 89 115 87
5 89 104 108 94 115
3 104 108 101
3 9 26 51
3 63 55 26
3 80 84 26
3 9 38 64
3 38 50 69
3 80 81 38
3 9 93 91
3 55 69 67
3 55 91 81
3 69 84 93
3 50 63 102
3 64 63 100
5 102 81 80 100 63
3 51 50 107
5 84 102 50 107 80
3 64 108 67
5 100 91 81 108 64
3 67 113 51
5 91 93 108 67 113
5 84 113 51 107 93
3 100 107 80
3 102 108 81
3 100 113 91
3 102 113 84
3 93 108 107
5 107 108 102 113 100
3 1 40 3
3 42 1 36
3 1 31 14
3 20 57 22
3 59 20 36
3 14 17 20
3 22 81 3
3 31 76 22
3 3 88 17
3 36 88 76
3 40 105 57
3 40 104 59
5 14 17 105 40 104
3 42 111 57
5 31 105 57 111 14
3 104 111 14
3 42 112 81
5 76 31 112 42 111
3 31 105 112
3 59 115 81
5 88 104 59 115 17
3 105 115 17
5 88 76 115 81 112
3 76 111 115
3 88 104 112
5 105 112 104 111 115
3 23 1 41
3 12 35 1
3 1 43 14
3 10 2 22
3 23 2 29
3 14 2 32
3 35 80 22
3 22 76 43
3 77 23 76
3 35 77 32
3 12 10 105
3 41 103 10
5 14 43 105 10 103
3 12 109 29
5 14 32 105 12 109
3 80 112 41
5 76 103 41 112 43
3 14 109 103
3 29 114 80
5 77 109 29 114 32
3 43 112 105
5 76 114 80 112 77
3 105 114 32
3 76 103 114
3 77 112 109
5 103 114 105 112 109
3 4 66 25
3 25 28 61
3 25 51 13
3 5 21 9
3 17 21 4
3 19 21 13
3 9 91 61
3 51 86 9
3 86 4 90
3 5 96 66
3 28 98 5
3 19 61 90
5 98 19 13 110 28
3 96 110 13
3 91 113 66
5 86 51 113 66 96
3 28 110 17
3 51 113 98
3 91 116 17
5 110 90 19 116 17
5 86 116 91 113 90
3 86 96 116
3 98 116 19
5 110 113 98 116 96
3 113 110 90
3 6 37 72
3 11 37 64
3 37 48 40
3 9 21 3
3 6 21 18
3 19 21 11
3 9 93 48
3 64 86 9
3 72 88 3
3 3 92 40
5 6 18 93 48 97
3 6 97 86
5 11 19 92 40 104
3 88 11 104
3 19 48 97
3 72 108 93
5 88 72 108 64 86
3 18 40 104
3 92 64 108
3 18 116 93
5 18 116 19 97 104
3 88 116 86
5 86 97 108 93 116
3 92 116 19
5 108 104 88 116 92
3 108 104 97
3 25 20 4
3 25 45 13
3 68 25 67
3 20 34 14
3 60 20 59
3 37 34 6
3 37 45 11
3 59 37 67
3 70 34 68
3 70 45 60
3 6 4 89
3 4 90 11
5 67 90 4 89 59
3 13 97 6
5 67 97 6 89 68
3 11 104 14
5 60 90 11 104 59
3 13 110 14
5 13 110 68 70 97
5 60 110 14 104 70
3 67 97 90
3 59 104 89
3 68 89 110
3 60 90 110
3 97 104 70
5 104 97 90 110 89
3 6 8 49
3 12 48 8
3 39 8 50
3 34 69 35
3 6 34 18
3 39 70 34
3 49 35 77
3 35 85 12
3 69 93 48
3 69 95 50
3 95 6 97
3 93 49 107
5 49 107 50 95 77
3 48 97 70
3 12 109 18
5 39 70 85 12 109
3 85 107 50
3 39 109 77
3 18 117 93
5 18 109 97 70 117
5 97 107 93 117 95
3 77 95 117
5 77 109 107 85 117
3 70 117 85
3 97 109 107
3 24 66 25
3 28 25 65
3 25 67 56
3 34 69 53
3 24 34 32
3 56 34 70
3 66 89 53
3 28 94 53
3 65 69 84
3 69 95 67
3 24 106 95
3 65 106 70
3 66 113 84
5 95 89 66 113 67
3 32 28 110
5 94 70 56 110 28
3 94 113 67
3 56 110 89
3 84 117 32
5 70 117 32 110 106
5 84 117 95 106 113
3 70 94 117
3 89 117 95
5 94 117 89 110 113
3 110 113 106
3 43 3 22
3 22 55 71
3 82 22 80
3 38 72 3
3 42 73 38
3 83 38 80
3 92 3 91
3 59 55 73
3 83 55 91
3 72 99 71
3 71 102 42
5 83 102 71 99 80
3 73 92 82
3 59 72 108
5 83 108 72 99 91
3 43 42 112
5 80 112 42 102 82
3 59 115 43
5 108 92 91 115 59
3 83 102 108
5 82 92 112 43 115
3 80 112 99
3 91 115 99
3 82 115 102
3 92 108 112
5 99 115 102 108 112
3 5 28 2
3 30 2 24
3 2 31 14
3 35 57 34
3 68 34 24
3 14 18 34
3 35 84 5
3 35 77 31
3 5 96 18
3 24 77 96
3 28 57 105
3 28 110 68
5 105 18 14 110 28
3 57 111 30
3 110 111 14
3 84 114 30
5 31 114 30 111 77
3 31 105 114
3 68 117 84
5 18 96 110 68 117
3 18 105 117
5 114 96 77 117 84
3 111 117 77
3 96 114 110
5 114 110 111 117 105
3 58 20 4
3 28 20 53
3 14 20 43
3 3 21 10
3 4 15 21
3 18 21 14
3 53 91 3
3 43 3 88
3 89 4 88
3 53 89 18
3 28 10 105
3 10 103 58
3 15 110 28
3 103 110 14
3 91 115 58
5 103 88 43 115 58
3 15 116 91
5 110 89 18 116 15
3 43 105 115
5 89 115 91 116 88
3 105 116 18
3 103 116 88
3 115 110 89
5 103 116 105 115 110
3 62 66 26
3 26 30 63
3 29 51 26
3 23 24 46
3 62 76 23
3 29 78 23
3 46 87 63
3 46 86 51
3 86 100 62
3 24 96 66
3 24 106 30
3 63 100 78
3 87 66 113
5 78 106 30 114 29
3 96 114 29
3 106 113 51
3 30 114 76
3 76 87 118
5 100 114 76 118 78
3 96 118 86
5 100 113 87 118 86
3 78 118 106
5 96 114 113 106 118
3 113 114 100
3 49 72 38
3 38 64 41
3 38 50 42
3 36 46 23
3 49 77 23
3 41 23 78
3 50 95 46
3 46 86 64
3 72 88 36
3 42 36 101
3 49 107 86
3 95 108 72
3 88 112 41
5 42 101 78 41 112
3 50 107 78
3 64 108 101
3 77 42 112
3 86 88 118
5 108 107 86 118 95
3 77 118 95
5 78 118 77 112 107
5 108 112 88 118 101
3 101 118 78
3 108 112 107
3 26 62 22
3 29 26 47
3 83 84 26
3 22 35 31
3 81 82 22
3 38 35 49
3 38 41 47
3 81 38 83
3 84 85 35
3 82 47 85
3 62 99 49
3 41 62 100
5 81 99 62 100 83
3 29 107 49
5 49 107 83 84 99
3 41 112 31
5 100 82 81 112 41
3 31 114 29
5 84 85 107 29 114
5 31 112 85 82 114
3 100 107 83
3 81 99 112
3 84 99 114
3 100 114 82
3 107 112 85
5 99 114 100 107 112
3 11 41 1
3 12 40 1
3 42 1 39
3 45 47 73
3 11 19 45
3 39 70 45
3 47 85 12
3 41 47 78
3 40 92 73
3 73 101 42
3 101 104 11
3 12 109 19
3 41 112 92
3 70 104 40
3 39 78 109
3 85 42 112
3 19 92 119
5 19 109 104 70 119
3 85 119 70
5 101 119 92 112 104
3 78 119 101
5 109 112 85 119 78
3 104 109 112
3 27 20 58
3 20 57 28
3 59 20 56
3 61 73 45
3 27 33 45
3 56 45 70
3 61 94 28
3 58 61 90
3 57 82 73
3 73 101 59
3 27 111 101
3 33 28 110
3 70 57 111
3 58 115 82
5 90 101 59 115 58
3 56 90 110
3 94 115 59
3 82 119 33
5 110 111 70 119 33
3 70 119 94
5 82 119 101 111 115
3 90 119 101
5 94 119 90 110 115
3 111 110 115
3 26 5 66
3 26 30 65
3 80 26 83
3 32 5 35
3 35 69 71
3 35 85 80
3 5 98 93
3 68 69 65
3 83 93 69
3 71 99 66
3 30 71 102
3 65 98 85
3 68 66 113
5 93 99 66 113 83
3 32 30 114
5 80 85 102 30 114
3 83 113 102
3 80 114 99
3 32 68 117
5 93 98 113 68 117
5 98 85 117 32 114
3 99 117 93
3 85 102 117
3 113 114 98
5 99 114 113 102 117
3 2 28 10
3 27 30 2
3 13 29 2
3 45 65 47
3 60 45 27
3 13 45 19
3 10 82 47
3 29 78 47
3 19 103 10
3 27 78 103
3 28 65 98
3 30 106 65
3 106 13 110
3 60 110 28
3 98 114 29
3 82 114 30
3 82 119 60
5 60 119 19 103 110
3 19 119 98
5 103 114 82 119 78
3 106 119 78
5 98 119 106 110 114
3 103 114 110
3 5 12 21
3 6 16 21
3 14 21 17
3 34 53 40
3 52 34 6
3 32 34 14
3 5 53 93
3 17 89 53
3 32 96 5
3 89 96 6
3 12 105 40
3 12 109 52
3 40 104 16
3 104 109 14
3 52 117 93
5 109 96 32 117 52
3 16 116 93
5 89 104 16 116 17
3 17 105 116
3 32 105 117
5 116 96 89 117 93
3 89 117 104
3 96 109 116
5 104 117 105 116 109
3 22 62 58
3 30 71 22
3 31 43 22
3 23 36 27
3 23 74 62
3 23 77 31
3 71 87 36
3 36 88 43
3 88 99 62
3 77 71 99
3 58 103 27
3 30 111 27
3 87 58 115
3 30 114 74
3 31 103 114
3 43 111 115
3 87 74 118
5 99 114 74 118 77
5 87 118 88 99 115
3 77 118 111
3 88 103 118
3 99 114 115
5 115 114 103 118 111
3 49 62 9
3 9 16 64
3 15 51 9
3 4 46 6
3 46 64 75
3 46 51 74
3 4 88 62
3 4 90 15
3 6 96 49
3 6 97 16
3 74 62 100
3 49 107 75
3 90 100 64
3 51 97 107
3 96 116 15
5 90 97 16 116 15
3 88 116 16
3 74 118 96
5 75 118 74 100 107
3 75 118 88
5 116 100 90 118 88
5 97 118 96 116 107
3 90 97 118
3 100 107 116
3 66 71 55
3 58 63 55
3 59 67 55
3 36 46 4
3 63 74 46
3 46 67 95
3 4 89 66
3 58 4 90
3 36 71 76
3 59 101 36
3 95 102 71
3 101 102 63
3 74 113 66
3 58 115 76
3 67 113 90
3 89 59 115
3 76 118 74
5 102 113 74 118 95
5 102 115 76 118 101
3 89 118 95
5 113 115 89 118 90
3 101 90 118
3 102 115 113
3 3 62 9
3 15 61 9
3 9 93 83
3 3 53 17
3 81 92 3
3 53 66 55
3 58 61 55
3 81 83 55
3 94 53 93
3 62 99 66
3 58 62 100
3 94 92 61
3 15 113 66
3 58 115 17
5 81 92 100 58 115
3 17 15 116
5 113 94 93 116 15
3 83 113 100
5 17 116 92 94 115
3 81 115 99
3 99 116 93
3 92 100 116
5 100 116 99 115 113
3 94 115 113
3 34 40 57
3 39 34 52
3 34 68 56
3 45 48 65
3 39 44 45
3 56 60 45
3 40 94 48
3 48 97 52
3 57 65 85
3 68 106 65
3 44 104 40
3 39 111 106
3 57 111 60
3 56 97 104
3 52 117 85
5 68 117 52 97 106
3 44 119 85
5 104 111 60 119 44
3 94 117 68
3 94 60 119
5 111 117 85 119 106
5 94 119 97 104 117
3 97 119 106
3 111 117 104
3 22 10 58
3 22 57 30
3 80 81 22
3 10 33 47
3 47 73 63
3 47 85 80
3 92 105 10
3 57 73 60
3 81 73 92
3 58 100 63
3 30 102 63
3 85 105 57
3 60 115 58
3 33 114 30
3 100 114 80
3 102 115 81
3 33 119 60
5 85 105 114 33 119
5 60 119 92 105 115
3 92 119 100
3 102 119 85
3 105 114 115
5 115 114 100 119 102
3 9 5 49
3 9 16 48
3 9 91 83
3 18 5 53
3 69 72 53
3 91 53 94
3 84 5 98
3 52 48 69
3 84 83 69
3 72 99 49
3 52 49 107
3 94 48 98
3 72 108 16
3 18 52 117
5 84 117 52 107 98
3 107 108 83
3 18 16 116
5 91 116 16 108 94
3 91 99 116
5 18 116 98 94 117
3 84 117 99
3 98 107 116
5 107 116 99 117 108
3 108 117 94
3 10 12 21
3 16 21 11
3 15 21 13
3 45 61 48
3 11 45 44
3 33 45 13
3 61 92 10
3 15 90 61
3 33 103 10
3 11 103 90
3 48 98 12
3 16 48 97
3 44 12 109
3 97 13 109
3 98 116 15
3 92 16 116
3 44 119 92
5 103 109 44 119 33
3 33 98 119
5 116 103 90 119 92
5 97 119 98 116 109
3 97 119 90
3 103 109 116
3 24 39 23
3 23 75 49
3 31 23 76
3 42 71 35
3 49 35 52
3 31 35 32
3 71 95 24
3 76 71 99
3 24 96 32
3 49 99 96
3 39 42 111
3 52 109 39
3 42 112 75
3 31 112 109
3 95 52 117
3 32 117 111
3 75 118 95
5 76 118 75 112 99
3 111 118 76
5 117 99 96 118 95
3 109 118 96
3 99 117 112
5 111 117 112 109 118
3 41 62 3
3 3 16 72
3 3 43 17
3 11 4 36
3 62 86 4
3 17 89 4
3 36 75 72
3 36 43 76
3 76 62 99
3 11 103 41
3 16 104 11
3 72 99 89
3 41 112 75
3 43 112 104
3 86 116 16
3 17 116 103
3 86 118 75
3 76 118 103
5 86 116 99 89 118
3 89 118 104
3 99 116 112
5 103 118 104 112 116
3 46 6 24
3 46 50 75
3 67 87 46
3 72 69 71
3 50 69 52
3 68 69 67
3 72 89 6
3 52 97 6
3 71 77 24
3 87 102 71
3 24 106 68
3 75 108 72
3 50 106 102
3 67 108 97
3 52 117 77
3 89 68 117
3 77 118 75
5 102 108 75 118 87
3 89 118 87
5 106 118 77 117 102
5 89 118 97 108 117
3 97 118 106
3 108 117 102
3 12 35 52
3 42 57 35
3 80 35 84
3 44 47 12
3 50 65 47
3 80 82 47
3 98 105 12
3 57 65 70
3 84 65 98
3 42 50 102
3 52 50 107
3 57 105 82
3 44 112 42
3 70 52 117
3 107 112 80
3 44 119 70
5 44 119 82 105 112
3 102 117 84
5 98 119 70 117 105
3 82 102 119
3 98 107 119
3 105 117 112
5 107 119 102 117 112
3 10 41 3
3 3 16 40
3 81 3 91
3 19 61 10
3 64 61 73
3 61 94 91
3 82 10 105
3 44 73 40
3 81 73 82
3 41 100 64
3 44 41 112
3 94 105 40
3 16 64 108
3 19 16 116
3 19 119 44
3 81 112 108
3 100 116 91
5 94 119 19 116 105
3 82 119 100
3 108 119 94
3 112 116 105
5 112 116 100 119 108
3 27 39 23
3 41 75 23
3 29 74 23
3 47 63 50
3 41 47 44
3 29 47 33
3 63 101 27
3 74 100 63
3 27 103 33
3 100 103 41
3 39 106 50
3 75 107 50
3 39 109 44
3 29 109 107
3 106 118 74
3 101 119 44
3 101 118 75
3 106 119 33
5 100 119 101 118 103
3 103 109 118
5 106 119 107 109 118
3 100 119 107
3 4 6 56
3 4 87 66
3 17 4 88
3 59 72 53
3 68 66 53
3 17 53 18
3 6 95 72
3 6 96 18
3 88 72 99
3 66 99 96
3 56 59 104
3 68 110 56
3 59 115 87
3 17 115 110
3 95 117 68
3 18 104 117
3 87 118 95
3 104 118 88
3 96 118 110
3 99 115 117
5 104 118 110 115 117
3 29 49 5
3 15 66 5
3 18 32 5
3 6 24 13
3 6 49 86
3 6 89 18
3 66 74 24
3 24 77 32
3 49 77 99
3 29 109 13
3 15 13 110
3 66 99 89
3 74 114 29
3 15 116 86
3 86 118 74
3 32 110 114
3 18 109 116
3 77 109 118
3 110 118 89
3 114 116 99
5 109 116 114 110 118
3 36 11 27
3 36 75 42
3 36 87 59
3 64 73 63
3 44 73 42
3 59 73 60
3 64 90 11
3 44 11 104
3 63 78 27
3 87 102 63
3 27 111 60
3 75 108 64
3 42 102 111
3 59 108 104
3 78 44 119
3 75 118 78
3 60 119 90
3 87 90 118
5 111 118 78 119 102
5 90 119 108 104 118
3 102 108 119
3 104 118 111
3 59 40 53
3 53 68 28
3 53 93 91
3 61 48 67
3 60 61 28
3 91 61 92
3 40 48 70
3 93 48 98
3 92 40 105
3 98 105 28
3 59 108 67
3 68 113 67
3 60 59 115
3 68 117 70
3 91 115 113
3 60 119 70
3 108 117 93
3 92 108 119
3 98 113 119
3 105 115 117
5 115 117 108 119 113
3 5 12 29
3 5 28 15
3 84 93 5
3 19 48 12
3 48 65 51
3 93 94 48
3 85 105 12
3 33 65 28
3 84 65 85
3 94 105 28
3 51 107 29
3 33 29 114
3 15 113 51
3 15 116 19
3 19 33 119
3 113 114 84
3 107 116 93
3 85 119 107
3 94 119 113
3 105 116 114
5 114 116 107 119 113
3 11 56 4
3 58 87 4
3 15 86 4
3 64 67 61
3 58 60 61
3 15 61 19
3 11 64 101
3 19 103 11
3 86 100 64
3 58 103 100
3 67 97 56
3 87 113 67
3 60 110 56
3 15 110 113
3 97 118 86
3 60 119 101
3 87 101 118
3 19 119 97
3 110 118 103
5 97 118 110 113 119
3 113 119 100
3 49 80 62
3 62 91 66
3 76 88 62
3 71 72 81
3 71 84 66
3 76 71 77
3 72 93 49
3 49 77 96
3 89 72 88
3 89 66 96
3 80 81 112
3 80 114 84
3 81 115 91
3 91 93 116
3 76 115 114
3 93 117 84
3 112 117 77
3 88 116 112
3 115 117 89
3 114 116 96
5 112 116 114 115 117
3 31 41 10
3 17 10 58
3 10 19 33
3 14 11 27
3 41 88 11
3 11 19 90
3 27 76 58
3 33 78 27
3 78 100 41
3 31 109 14
3 14 17 110
3 58 100 90
3 31 76 114
3 88 116 17
3 88 118 76
3 110 114 33
3 19 109 116
3 78 118 109
3 110 118 90
3 114 116 100
3 13 39 24
3 30 74 24
3 24 95 68
3 51 50 65
3 33 30 65
3 65 70 68
3 13 97 51
3 33 13 110
3 50 78 39
3 50 102 95
3 39 70 111
3 51 113 74
3 30 102 111
3 74 118 78
3 110 113 68
3 78 119 33
3 70 97 119
3 95 97 118
3 113 119 102
3 110 118 111
3 42 81 71
3 30 71 84
3 71 95 87
3 63 50 83
3 63 82 30
3 87 101 63
3 42 50 85
3 50 106 95
3 101 111 42
3 30 111 106
3 81 83 108
3 84 83 113
3 82 81 115
3 84 117 85
3 87 115 113
3 82 119 85
3 108 117 95
3 108 119 101
3 106 119 113
3 111 117 115
3 10 12 31
3 10 17 28
3 10 92 82
3 18 40 12
3 85 98 12
3 43 57 40
3 92 94 40
3 32 57 28
3 28 94 98
3 57 82 85
3 31 112 43
3 32 114 31
3 17 43 115
3 18 116 17
3 18 32 117
3 114 115 82
3 92 116 112
3 85 117 112
3 98 114 116
3 115 117 94
3 6 56 13
3 6 95 52
3 6 16 86
3 48 67 51
3 48 70 52
3 19 48 16
3 13 106 51
3 19 13 109
3 67 90 56
3 67 108 95
3 86 107 51
3 56 70 104
3 52 107 109
3 16 108 104
3 86 118 90
3 19 90 119
3 106 119 70
3 95 118 106
3 109 118 104
3 108 119 107
3 62 80 41
3 58 91 62
3 74 86 62
3 64 83 63
3 63 82 58
3 74 63 78
3 41 64 92
3 78 103 41
3 90 64 86
3 90 103 58
3 80 107 83
3 91 113 83
3 80 114 82
3 74 113 114
3 91 116 92
3 107 116 86
3 92 82 119
3 78 107 119
3 90 113 119
3 103 116 114
3 31 12 29
3 12 18 52
3 19 44 12
3 13 39 14
3 29 96 13
3 19 97 13
3 52 77 39
3 39 44 78
3 14 31 103
3 18 104 14
3 78 107 29
3 31 112 77
3 52 107 97
3 44 112 104
3 18 116 96
3 103 116 19
3 96 118 77
3 78 118 103
3 97 118 104
3 112 116 107
3 14 27 39
3 27 76 30
3 27 101 60
3 42 77 39
3 70 106 39
3 43 42 57
3 30 57 32
3 57 60 70
3 43 104 14
3 14 110 32
3 42 102 101
3 30 106 102
3 43 115 76
3 77 117 32
3 76 77 118
3 60 115 110
3 104 117 70
3 101 118 104
3 106 110 118
3 115 117 102
3 59 81 72
3 16 93 72
3 75 95 72
3 64 67 83
3 16 64 92
3 64 101 75
3 59 67 94
3 97 67 95
3 101 104 59
3 83 102 81
3 83 107 93
3 16 104 97
3 92 81 112
3 75 112 107
3 93 94 117
3 102 117 95
3 94 119 92
3 101 102 119
3 97 119 107
3 104 117 112
3 11 56 14
3 11 88 16
3 44 101 11
3 43 40 59
3 18 40 16
3 40 44 70
3 43 111 14
3 14 18 109
3 56 89 59
3 56 97 70
3 59 101 108
3 88 43 112
3 16 108 97
3 44 109 112
3 89 117 18
3 88 118 89
3 70 111 117
3 101 111 118
3 97 118 109
3 108 117 112
3 29 80 49
3 49 52 93
3 49 75 86
3 50 83 51
3 52 85 50
3 75 78 50
3 29 98 51
3 78 109 29
3 51 97 86
3 97 109 52
3 83 100 80
3 93 83 108
3 85 112 80
3 75 112 108
3 100 116 86
3 98 116 93
3 100 119 78
3 98 119 85
3 97 108 119
3 109 116 112
3 14 13 56
3 13 15 96
3 33 106 13
3 15 28 17
3 32 68 28
3 33 60 28
3 14 17 103
3 14 111 32
3 68 89 56
3 60 90 56
3 15 90 113
3 17 89 115
3 68 113 106
3 96 114 32
3 33 103 114
3 60 111 115
3 89 118 96
3 90 118 103
3 106 118 111
3 113 115 114
3 66 91 15
3 66 87 74
3 68 84 66
3 67 83 51
3 68 67 94
3 87 67 90
3 15 51 98
3 74 51 106
3 15 90 110
3 83 100 91
3 83 102 84
3 74 114 100
3 68 110 106
3 91 94 115
3 84 114 98
3 87 102 115
3 98 119 94
3 90 100 119
3 106 119 102
3 110 114 115
3 31 41 80
3 41 44 92
3 41 75 88
3 43 42 81
3 44 85 42
3 75 42 77
3 43 105 31
3 31 109 77
3 88 104 43
3 80 81 99
3 85 107 80
3 44 104 109
3 92 108 81
3 75 108 107
3 77 117 99
3 88 99 116
3 92 105 116
3 105 117 85
3 109 116 107
3 104 108 117
3 29 80 31
3 29 96 74
3 33 98 29
3 76 30 74
3 30 84 32
3 33 82 30
3 31 32 105
3 31 103 76
3 80 84 99
3 80 82 100
3 74 100 113
3 32 110 96
3 99 115 76
3 33 110 103
3 84 98 113
3 105 115 82
3 99 116 96
3 98 116 105
3 103 100 116
3 113 115 110
3 58 91 17
3 76 87 58
3 58 82 60
3 59 81 43
3 60 94 59
3 87 59 89
3 43 105 17
3 76 43 111
3 17 110 89
3 91 81 99
3 81 82 102
3 91 113 94
3 76 114 99
3 110 111 60
3 87 102 113
3 105 114 82
3 89 99 117
3 94 117 105
3 111 117 102
3 113 114 110
3 17 15 91
3 86 15 96
3 15 19 98
3 16 93 18
3 86 16 88
3 16 92 19
3 17 105 18
3 17 103 88
3 93 99 91
3 91 92 100
3 96 109 18
3 86 100 107
3 93 107 98
3 19 109 103
3 88 112 99
3 105 112 92
3 99 114 96
3 98 114 105
3 103 114 100
3 109 112 107
3 52 93 18
3 77 95 52
3 52 70 85
3 68 84 32
3 68 70 94
3 89 68 95
3 32 105 18
3 32 111 77
3 18 104 89
3 84 99 93
3 84 102 85
3 93 108 94
3 77 99 112
3 70 104 111
3 102 108 95
3 99 115 89
3 105 112 85
3 94 115 105
3 111 115 102
3 104 108 112
3 76 74 87
3 86 96 74
3 74 78 106
3 86 75 88
3 77 95 75
3 78 101 75
3 76 111 77
3 76 103 88
3 90 97 86
3 87 95 89
3 87 90 101
3 77 109 96
3 88 89 104
3 95 97 106
3 78 109 103
3 96 110 89
3 101 104 111
3 90 110 103
3 106 111 110
3 109 104 97
3 44 92 19
3 44 70 85
3 78 44 101
3 33 82 60
3 19 33 98
3 78 106 33
3 60 94 70
3 90 101 60
3 19 90 97
3 97 106 70
3 82 92 100
3 82 85 102
3 92 108 94
3 78 100 107
3 85 98 107
3 102 108 101
3 98 113 94
3 100 113 90
3 106 113 102
3 97 108 107

# Cells
32 0 1 2 3 4 5 6 7 8 9 10 11 12 13 14 15 16 17 18 19 20 21 22 23 24 25 26 27 28 29 30 31
32 32 33 34 35 36 37 38 39 40 41 42 43 44 45 46 47 48 49 50 51 52 53 54 55 56 57 58 59 60 61 62 63
32 64 65 66 67 68 69 70 71 72 73 74 75 76 77 78 79 80 81 82 83 84 85 86 87 88 89 90 91 92 93 94 95
32 96 97 98 99 100 101 102 103 104 105 106 107 108 109 110 111 112 113 114 115 116 117 118 119 120 121 122 123 124 125 126 127
32 128 129 130 131 132 133 134 135 136 137 138 139 140 141 142 143 144 145 146 147 148 149 150 151 152 153 154 155 156 157 158 159
32 160 161 162 163 164 165 166 167 168 169 170 171 172 173 174 175 176 177 178 179 180 181 182 183 184 185 186 187 188 189 190 191
32 192 193 194 195 196 197 198 199 200 201 202 203 204 205 206 207 208 209 210 211 212 213 214 215 216 217 218 219 220 221 222 223
32 224 225 226 227 228 229 230 231 232 233 234 235 236 237 238 239 240 241 242 243 244 245 246 247 248 249 250 251 252 253 254 255
32 256 257 258 259 260 261 262 263 264 265 266 267 268 269 270 271 272 273 274 275 276 277 278 279 280 281 282 283 284 285 286 287
32 288 289 290 291 292 293 294 295 296 297 298 299 300 301 302 303 304 305 306 307 308 309 310 311 312 313 314 315 316 317 318 319
32 320 321 322 323 324 325 326 327 328 329 330 331 332 333 334 335 336 337 338 339 340 341 342 343 344 345 346 347 348 349 350 351
32 352 353 354 355 356 357 358 359 360 361 362 363 364 365 366 367 368 369 370 371 372 373 374 375 376 377 378 379 380 381 382 383
32 0 384 385 386 387 388 389 390 391 392 393 394 395 396 397 398 399 400 401 402 403 404 405 406 407 408 409 410 411 412 413 414
32 415 416 417 418 419 420 421 422 423 424 425 426 427 428 429 430 431 432 433 434 435 436 437 438 439 440 441 442 443 444 445 446
32 447 448 449 450 451 452 453 454 455 456 457 458 459 460 461 462 463 464 465 466 467 468 469 470 471 472 473 474 475 476 477 478
32 479 480 481 482 483 484 485 486 487 488 489 490 491 492 493 494 495 496 497 498 499 500 501 502 503 504 505 506 507 508 509 510
32 511 512 513 514 515 516 517 518 519 520 521 522 523 524 525 526 527 528 529 530 531 532 533 534 535 536 537 538 539 540 541 542
32 543 544 545 546 547 548 549 550 551 552 553 554 555 556 557 558 559 560 561 562 563 564 565 566 567 568 569 570 571 572 573 574
32 575 576 577 578 579 580 581 582 583 584 585 586 587 588 589 590 591 592 593 594 595 596 597 598 599 600 601 602 603 604 605 606
32 32 386 607 608 609 610 611 612 613 614 615 616 617 618 619 620 621 622 623 624 625 626 627 628 629 630 631 632 633 634 635 636
32 480 637 638 639 640 641 642 643 644 645 646 647 648 649 650 651 652 653 654 655 656 657 658 659 660 661 662 663 664 665 666 667
32 543 668 669 670 671 672 673 674 675 676 677 678 679 680 681 682 683 684 685 686 687 688 689 690 691 692 693 694 695 696 697 698
32 417 481 699 700 701 702 703 704 705 706 707 708 709 710 711 712 713 714 715 716 717 718 719 720 721 722 723 724 725 726 727 728
32 729 730 731 732 733 734 735 736 737 738 739 740 741 742 743 744 745 746 747 748 749 750 751 752 753 754 755 756 757 758 759 760
32 448 546 761 762 763 764 765 766 767 768 769 770 771 772 773 774 775 776 777 778 779 780 781 782 783 784 785 786 787 788 789 790
32 64 388 791 792 793 794 795 796 797 798 799 800 801 802 803 804 805 806 807 808 809 810 811 812 813 814 815 816 817 818 819 820
32 416 638 821 822 823 824 825 826 827 828 829 830 831 832 833 834 835 836 837 838 839 840 841 842 843 844 845 846 847 848 849 850
32 851 852 853 854 855 856 857 858 859 860 861 862 863 864 865 866 867 868 869 870 871 872 873 874 875 876 877 878 879 880 881 882
32 513 550 883 884 885 886 887 888 889 890 891 892 893 894 895 896 897 898 899 900 901 902 903 904 905 906 907 908 909 910 911 912
32 3 35 824 913 914 915 916 917 918 919 920 921 922 923 924 925 926 927 928 929 930 931 932 933 934 935 936 937 938 939 940 941
32 224 793 942 943 944 945 946 947 948 949 950 951 952 953 954 955 956 957 958 959 960 961 962 963 964 965 966 967 968 969 970 971
32 320 972 973 974 975 976 977 978 979 980 981 982 983 984 985 986 987 988 989 990 991 992 993 994 995 996 997 998 999 1000 1001 1002
32 131 227 702 1003 1004 1005 1006 1007 1008 1009 1010 1011 1012 1013 1014 1015 1016 1017 1018 1019 1020 1021 1022 1023 1024 1025 1026 1027 1028 1029 1030 1031
32 194 323 764 1032 1033 1034 1035 1036 1037 1038 1039 1040 1041 1042 1043 1044 1045 1046 1047 1048 1049 1050 1051 1052 1053 1054 1055 1056 1057 1058 1059 1060
32 97 392 801 975 1061 1062 1063 1064 1065 1066 1067 1068 1069 1070 1071 1072 1073 1074 1075 1076 1077 1078 1079 1080 1081 1082 1083 1084 1085 1086 1087 1088
32 449 670 826 919 1089 1090 1091 1092 1093 1094 1095 1096 1097 1098 1099 1100 1101 1102 1103 1104 1105 1106 1107 1108 1109 1110 1111 1112 1113 1114 1115 1116
32 853 887 1117 1118 1119 1120 1121 1122 1123 1124 1125 1126 1127 1128 1129 1130 1131 1132 1133 1134 1135 1136 1137 1138 1139 1140 1141 1142 1143 1144 1145 1146
32 485 517 852 1147 1148 1149 1150 1151 1152 1153 1154 1155 1156 1157 1158 1159 1160 1161 1162 1163 1164 1165 1166 1167 1168 1169 1170 1171 1172 1173 1174 1175
32 128 609 944 1176 1177 1178 1179 1180 1181 1182 1183 1184 1185 1186 1187 1188 1189 1190 1191 1192 1193 1194 1195 1196 1197 1198 1199 1200 1201 1202 1203 1204
32 731 765 1036 1121 1205 1206 1207 1208 1209 1210 1211 1212 1213 1214 1215 1216 1217 1218 1219 1220 1221 1222 1223 1224 1225 1226 1227 1228 1229 1230 1231 1232
32 5 67 641 1233 1234 1235 1236 1237 1238 1239 1240 1241 1242 1243 1244 1245 1246 1247 1248 1249 1250 1251 1252 1253 1254 1255 1256 1257 1258 1259 1260 1261
32 290 327 886 1123 1262 1263 1264 1265 1266 1267 1268 1269 1270 1271 1272 1273 1274 1275 1276 1277 1278 1279 1280 1281 1282 1283 1284 1285 1286 1287 1288 1289
32 69 228 484 1153 1290 1291 1292 1293 1294 1295 1296 1297 1298 1299 1300 1301 1302 1303 1304 1305 1306 1307 1308 1309 1310 1311 1312 1313 1314 1315 1316 1317
32 98 324 548 890 1270 1318 1319 1320 1321 1322 1323 1324 1325 1326 1327 1328 1329 1330 1331 1332 1333 1334 1335 1336 1337 1338 1339 1340 1341 1342 1343 1344
32 161 395 617 979 1070 1345 1346 1347 1348 1349 1350 1351 1352 1353 1354 1355 1356 1357 1358 1359 1360 1361 1362 1363 1364 1365 1366 1367 1368 1369 1370 1371
32 512 642 673 1239 1372 1373 1374 1375 1376 1377 1378 1379 1380 1381 1382 1383 1384 1385 1386 1387 1388 1389 1390 1391 1392 1393 1394 1395 1396 1397 1398 1399
32 421 453 730 1400 1401 1402 1403 1404 1405 1406 1407 1408 1409 1410 1411 1412 1413 1414 1415 1416 1417 1418 1419 1420 1421 1422 1423 1424 1425 1426 1427 1428
32 193 614 974 1183 1352 1429 1430 1431 1432 1433 1434 1435 1436 1437 1438 1439 1440 1441 1442 1443 1444 1445 1446 1447 1448 1449 1450 1451 1452 1453 1454 1455
32 703 735 857 1006 1456 1457 1458 1459 1460 1461 1462 1463 1464 1465 1466 1467 1468 1469 1470 1471 1472 1473 1474 1475 1476 1477 1478 1479 1480 1481 1482 1483
32 9 100 671 1242 1377 1484 1485 1486 1487 1488 1489 1490 1491 1492 1493 1494 1495 1496 1497 1498 1499 1500 1501 1502 1503 1504 1505 1506 1507 1508 1509 1510
32 231 295 862 1150 1298 1511 1512 1513 1514 1515 1516 1517 1518 1519 1520 1521 1522 1523 1524 1525 1526 1527 1528 1529 1530 1531 1532 1533 1534 1535 1536 1537
32 37 132 420 1403 1538 1539 1540 1541 1542 1543 1544 1545 1546 1547 1548 1549 1550 1551 1552 1553 1554 1555 1556 1557 1558 1559 1560 1561 1562 1563 1564 1565
32 331 355 1043 1120 1208 1271 1566 1567 1568 1569 1570 1571 1572 1573 1574 1575 1576 1577 1578 1579 1580 1581 1582 1583 1584 1585 1586 1587 1588 1589 1590 1591
32 162 328 552 768 1038 1326 1592 1593 1594 1595 1596 1597 1598 1599 1600 1601 1602 1603 1604 1605 1606 1607 1608 1609 1610 1611 1612 1613 1614 1615 1616 1617
32 256 397 619 802 948 1184 1618 1619 1620 1621 1622 1623 1624 1625 1626 1627 1628 1629 1630 1631 1632 1633 1634 1635 1636 1637 1638 1639 1640 1641 1642 1643
32 12 164 675 922 1094 1492 1644 1645 1646 1647 1648 1649 1650 1651 1652 1653 1654 1655 1656 1657 1658 1659 1660 1661 1662 1663 1664 1665 1666 1667 1668 1669
32 138 199 740 1406 1546 1670 1671 1672 1673 1674 1675 1676 1677 1678 1679 1680 1681 1682 1683 1684 1685 1686 1687 1688 1689 1690 1691 1692 1693 1694 1695 1696
32 289 798 947 978 1067 1697 1698 1699 1700 1701 1702 1703 1704 1705 1706 1707 1708 1709 1710 1711 1712 1713 1714 1715 1716 1717 1718 1719 1720 1721 1722 1723
32 41 197 452 1409 1549 1677 1724 1725 1726 1727 1728 1729 1730 1731 1732 1733 1734 1735 1736 1737 1738 1739 1740 1741 1742 1743 1744 1745 1746 1747 1748 1749
32 235 359 856 1017 1459 1522 1750 1751 1752 1753 1754 1755 1756 1757 1758 1759 1760 1761 1762 1763 1764 1765 1766 1767 1768 1769 1770 1771 1772 1773 1774 1775
32 554 577 770 892 1126 1210 1776 1777 1778 1779 1780 1781 1782 1783 1784 1785 1786 1787 1788 1789 1790 1791 1792 1793 1794 1795 1796 1797 1798 1799 1800 1801
32 232 261 488 706 1009 1300 1802 1803 1804 1805 1806 1807 1808 1809 1810 1811 1812 1813 1814 1815 1816 1817 1818 1819 1820 1821 1822 1823 1824 1825 1826 1827
32 14 259 644 828 924 1246 1828 1829 1830 1831 1832 1833 1834 1835 1836 1837 1838 1839 1840 1841 1842 1843 1844 1845 1846 1847 1848 1849 1850 1851 1852 1853
32 44 169 456 927 1097 1656 1734 1854 1855 1856 1857 1858 1859 1860 1861 1862 1863 1864 1865 1866 1867 1868 1869 1870 1871 1872 1873 1874 1875 1876 1877 1878
32 76 108 523 1245 1380 1496 1879 1880 1881 1882 1883 1884 1885 1886 1887 1888 1889 1890 1891 1892 1893 1894 1895 1896 1897 1898 1899 1900 1901 1902 1903 1904
32 352 951 982 1181 1435 1703 1905 1906 1907 1908 1909 1910 1911 1912 1913 1914 1915 1916 1917 1918 1919 1920 1921 1922 1923 1924 1925 1926 1927 1928 1929 1930
32 73 293 516 1156 1306 1521 1889 1931 1932 1933 1934 1935 1936 1937 1938 1939 1940 1941 1942 1943 1944 1945 1946 1947 1948 1949 1950 1951 1952 1953 1954 1955
32 137 357 734 1020 1462 1684 1760 1956 1957 1958 1959 1960 1961 1962 1963 1964 1965 1966 1967 1968 1969 1970 1971 1972 1973 1974 1975 1976 1977 1978 1979 1980
32 493 582 711 865 1158 1465 1981 1982 1983 1984 1985 1986 1987 1988 1989 1990 1991 1992 1993 1994 1995 1996 1997 1998 1999 2000 2001 2002 2003 2004 2005 2006
32 140 265 424 709 1015 1554 1816 2007 2008 2009 2010 2011 2012 2013 2014 2015 2016 2017 2018 2019 2020 2021 2022 2023 2024 2025 2026 2027 2028 2029 2030 2031
32 46 267 427 834 930 1550 1840 2019 2032 2033 2034 2035 2036 2037 2038 2039 2040 2041 2042 2043 2044 2045 2046 2047 2048 2049 2050 2051 2052 2053 2054 2055
32 49 175 207 623 1360 1441 1737 1869 2056 2057 2058 2059 2060 2061 2062 2063 2064 2065 2066 2067 2068 2069 2070 2071 2072 2073 2074 2075 2076 2077 2078 2079
32 82 113 305 807 1077 1709 1895 1943 2080 2081 2082 2083 2084 2085 2086 2087 2088 2089 2090 2091 2092 2093 2094 2095 2096 2097 2098 2099 2100 2101 2102 2103
32 576 650 678 831 1100 1382 2104 2105 2106 2107 2108 2109 2110 2111 2112 2113 2114 2115 2116 2117 2118 2119 2120 2121 2122 2123 2124 2125 2126 2127 2128 2129
32 105 297 520 896 1275 1333 1891 1946 2093 2130 2131 2132 2133 2134 2135 2136 2137 2138 2139 2140 2141 2142 2143 2144 2145 2146 2147 2148 2149 2150 2151 2152
32 204 361 738 1049 1216 1578 1687 1971 2153 2154 2155 2156 2157 2158 2159 2160 2161 2162 2163 2164 2165 2166 2167 2168 2169 2170 2171 2172 2173 2174 2175 2176
32 430 580 716 742 1416 1469 1992 2177 2178 2179 2180 2181 2182 2183 2184 2185 2186 2187 2188 2189 2190 2191 2192 2193 2194 2195 2196 2197 2198 2199 2200 2201
32 172 201 459 774 1047 1606 1740 1866 2069 2202 2203 2204 2205 2206 2207 2208 2209 2210 2211 2212 2213 2214 2215 2216 2217 2218 2219 2220 2221 2222 2223 2224
32 78 270 491 648 1250 1303 1814 1842 2225 2226 2227 2228 2229 2230 2231 2232 2233 2234 2235 2236 2237 2238 2239 2240 2241 2242 2243 2244 2245 2246 2247 2248
32 52 145 274 625 1191 1555 1632 2023 2047 2249 2250 2251 2252 2253 2254 2255 2256 2257 2258 2259 2260 2261 2262 2263 2264 2265 2266 2267 2268 2269 2270 2271
32 18 114 178 401 1075 1358 1499 1658 2272 2273 2274 2275 2276 2277 2278 2279 2280 2281 2282 2283 2284 2285 2286 2287 2288 2289 2290 2291 2292 2293 2294 2295
32 148 212 369 1193 1444 1681 1917 1969 2167 2296 2297 2298 2299 2300 2301 2302 2303 2304 2305 2306 2307 2308 2309 2310 2311 2312 2313 2314 2315 2316 2317 2318
32 434 464 588 836 1102 1413 2116 2190 2319 2320 2321 2322 2323 2324 2325 2326 2327 2328 2329 2330 2331 2332 2333 2334 2335 2336 2337 2338 2339 2340 2341 2342
32 300 366 860 1130 1280 1528 1580 1766 2343 2344 2345 2346 2347 2348 2349 2350 2351 2352 2353 2354 2355 2356 2357 2358 2359 2360 2361 2362 2363 2364 2365 2366
32 462 584 744 778 1220 1419 1788 2192 2333 2367 2368 2369 2370 2371 2372 2373 2374 2375 2376 2377 2378 2379 2380 2381 2382 2383 2384 2385 2386 2387 2388 2389
32 498 525 589 655 1163 1388 1995 2118 2390 2391 2392 2393 2394 2395 2396 2397 2398 2399 2400 2401 2402 2403 2404 2405 2406 2407 2408 2409 2410 2411 2412 2413
32 110 177 560 682 1331 1501 1604 1660 2287 2414 2415 2416 2417 2418 2419 2420 2421 2422 2423 2424 2425 2426 2427 2428 2429 2430 2431 2432 2433 2434 2435 2436
32 84 242 276 811 958 1309 1636 1819 2240 2437 2438 2439 2440 2441 2442 2443 2444 2445 2446 2447 2448 2449 2450 2451 2452 2453 2454 2455 2456 2457 2458 2459
32 20 86 279 403 809 1253 1630 1844 2242 2454 2460 2461 2462 2463 2464 2465 2466 2467 2468 2469 2470 2471 2472 2473 2474 2475 2476 2477 2478 2479 2480 2481
32 246 307 371 960 1525 1712 1764 1919 2358 2482 2483 2484 2485 2486 2487 2488 2489 2490 2491 2492 2493 2494 2495 2496 2497 2498 2499 2500 2501 2502 2503 2504
32 529 592 868 902 1135 1166 1790 1997 2404 2505 2506 2507 2508 2509 2510 2511 2512 2513 2514 2515 2516 2517 2518 2519 2520 2521 2522 2523 2524 2525 2526 2527
32 531 562 594 686 901 1390 1792 2120 2407 2521 2528 2529 2530 2531 2532 2533 2534 2535 2536 2537 2538 2539 2540 2541 2542 2543 2544 2545 2546 2547 2548 2549
32 117 181 338 989 1079 1336 1362 1609 2290 2431 2550 2551 2552 2553 2554 2555 2556 2557 2558 2559 2560 2561 2562 2563 2564 2565 2566 2567 2568 2569 2570 2571
32 150 245 280 962 1023 1195 1637 1822 2026 2267 2456 2572 2573 2574 2575 2576 2577 2578 2579 2580 2581 2582 2583 2584 2585 2586 2587 2588 2589 2590 2591 2592
32 23 55 283 406 627 933 1635 1847 2049 2266 2478 2593 2594 2595 2596 2597 2598 2599 2600 2601 2602 2603 2604 2605 2606 2607 2608 2609 2610 2611 2612 2613
32 309 342 374 993 1278 1582 1714 1921 2360 2499 2614 2615 2616 2617 2618 2619 2620 2621 2622 2623 2624 2625 2626 2627 2628 2629 2630 2631 2632 2633 2634 2635
32 599 750 873 1137 1223 1475 1794 1999 2196 2385 2523 2636 2637 2638 2639 2640 2641 2642 2643 2644 2645 2646 2647 2648 2649 2650 2651 2652 2653 2654 2655 2656
32 470 567 600 689 782 1108 1795 2122 2335 2384 2545 2657 2658 2659 2660 2661 2662 2663 2664 2665 2666 2667 2668 2669 2670 2671 2672 2673 2674 2675 2676 2677
32 185 215 341 992 1054 1367 1446 1612 2076 2219 2568 2678 2679 2680 2681 2682 2683 2684 2685 2686 2687 2688 2689 2690 2691 2692 2693 2694 2695 2696 2697 2698
32 286 438 502 659 720 842 1824 1849 2028 2051 2245 2699 2700 2701 2702 2703 2704 2705 2706 2707 2708 2709 2710 2711 2712 2713 2714 2715 2716 2717 2718 2719
32 26 57 189 409 630 935 1364 1664 1873 2074 2292 2613 2720 2721 2722 2723 2724 2725 2726 2727 2728 2729 2730 2731 2732 2733 2734 2735 2736 2737 2738 2739
32 217 347 378 996 1052 1449 1584 1923 2171 2313 2632 2697 2740 2741 2742 2743 2744 2745 2746 2747 2748 2749 2750 2751 2752 2753 2754 2755 2756 2757 2758 2759
32 377 754 875 1139 1225 1478 1587 1771 1976 2173 2363 2656 2760 2761 2762 2763 2764 2765 2766 2767 2768 2769 2770 2771 2772 2773 2774 2775 2776 2777 2778 2779
32 441 504 603 661 723 844 2001 2123 2197 2337 2409 2719 2780 2781 2782 2783 2784 2785 2786 2787 2788 2789 2790 2791 2792 2793 2794 2795 2796 2797 2798 2799
32 122 313 345 995 1084 1284 1339 1716 2098 2147 2570 2633 2800 2801 2802 2803 2804 2805 2806 2807 2808 2809 2810 2811 2812 2813 2814 2815 2816 2817 2818 2819
32 187 472 566 691 784 1110 1614 1665 1874 2221 2433 2677 2820 2821 2822 2823 2824 2825 2826 2827 2828 2829 2830 2831 2832 2833 2834 2835 2836 2837 2838 2839
32 28 92 125 411 815 1083 1256 1505 1899 2100 2293 2481 2840 2841 2842 2843 2844 2845 2846 2847 2848 2849 2850 2851 2852 2853 2854 2855 2856 2857 2858 2859
32 153 251 381 967 1026 1200 1770 1924 1975 2314 2501 2592 2860 2861 2862 2863 2864 2865 2866 2867 2868 2869 2870 2871 2872 2873 2874 2875 2876 2877 2878 2879
32 318 538 877 907 1141 1170 1286 1534 1951 2149 2364 2527 2880 2881 2882 2883 2884 2885 2886 2887 2888 2889 2890 2891 2892 2893 2894 2895 2896 2897 2898 2899
32 90 250 316 816 965 1312 1532 1718 1950 2101 2459 2502 2900 2901 2902 2903 2904 2905 2906 2907 2908 2909 2910 2911 2912 2913 2914 2915 2916 2917 2918 2919
32 123 537 571 693 908 1340 1394 1506 1901 2151 2434 2549 2920 2921 2922 2923 2924 2925 2926 2927 2928 2929 2930 2931 2932 2933 2934 2935 2936 2937 2938 2939
32 60 156 221 633 1198 1450 1560 1693 1744 2078 2271 2316 2940 2941 2942 2943 2944 2945 2946 2947 2948 2949 2950 2951 2952 2953 2954 2955 2956 2957 2958 2959
32 222 475 757 787 1057 1228 1423 1691 1745 2175 2223 2389 2960 2961 2962 2963 2964 2965 2966 2967 2968 2969 2970 2971 2972 2973 2974 2975 2976 2977 2978 2979
32 93 507 540 663 1171 1258 1314 1395 1903 1953 2248 2412 2980 2981 2982 2983 2984 2985 2986 2987 2988 2989 2990 2991 2992 2993 2994 2995 2996 2997 2998 2999
32 63 444 477 847 938 1113 1426 1562 1747 1877 2055 2341 3000 3001 3002 3003 3004 3005 3006 3007 3008 3009 3010 3011 3012 3013 3014 3015 3016 3017 3018 3019
32 158 443 725 758 1028 1424 1480 1564 1694 1979 2031 2201 3020 3021 3022 3023 3024 3025 3026 3027 3028 3029 3030 3031 3032 3033 3034 3035 3036 3037 3038 3039
32 31 666 697 848 940 1114 1260 1398 1509 1669 1853 2129 3040 3041 3042 3043 3044 3045 3046 3047 3048 3049 3050 3051 3052 3053 3054 3055 3056 3057 3058 3059
32 255 509 727 881 1030 1174 1316 1481 1536 1774 1827 2006 3060 3061 3062 3063 3064 3065 3066 3067 3068 3069 3070 3071 3072 3073 3074 3075 3076 3077 3078 3079
32 414 636 820 971 1002 1088 1202 1371 1453 1643 1722 1930 3080 3081 3082 3083 3084 3085 3086 3087 3088 3089 3090 3091 3092 3093 3094 3095 3096 3097 3098 3099
32 351 574 790 912 1060 1145 1231 1289 1344 1591 1617 1801 3100 3101 3102 3103 3104 3105 3106 3107 3108 3109 3110 3111 3112 3113 3114 3115 3116 3117 3118 3119
4 1 65 257 637
4 7 39 170 1089
4 10 71 103 1372
4 2 34 263 821
4 6 96 160 668
4 38 166 192 447
4 33 129 262 415
4 42 134 198 1400
4 66 225 258 479
4 74 230 294 1147
4 70 102 288 511
4 106 291 326 883
4 101 165 321 544
4 135 202 353 729
4 130 226 266 699
4 141 234 358 1456
4 167 195 322 761
4 208 330 354 1206
4 237 298 362 851
4 301 333 363 1117
4 99 163 389 972
4 68 260 384 942
4 40 171 390 1429
4 72 104 393 1697
4 36 264 385 1176
4 47 422 457 1670
4 80 486 518 1511
4 112 515 549 1262
4 272 418 482 1003
4 431 492 581 1463
4 428 460 575 739
4 174 451 545 1032
4 466 553 579 1209
4 495 527 586 864
4 532 556 587 1125
4 133 268 607 943
4 8 176 612 1061
4 136 203 615 1905
4 4 269 608 791
4 168 196 611 973
4 16 646 680 1882
4 147 704 737 1750
4 211 733 766 1566
4 524 585 652 683
4 278 640 700 1290
4 593 656 710 1157
4 179 672 762 1318
4 590 687 769 891
4 595 713 747 869
4 596 748 775 1131
4 107 292 795 977
4 229 271 792 1177
4 11 109 796 1345
4 238 299 799 1910
4 17 681 832 1857
4 282 701 823 1539
4 463 578 677 829
4 598 714 839 1410
4 243 707 859 1959
4 311 855 888 1570
4 115 676 884 1592
4 601 870 897 1217
4 173 450 669 916
4 273 419 639 913
4 180 391 917 1484
4 429 461 920 2104
4 275 387 914 1233
4 399 956 987 2083
4 436 743 1007 1982
4 467 741 1035 1777
4 302 364 953 984
4 284 945 1004 1291
4 373 955 1011 1514
4 183 976 1033 1319
4 372 986 1040 1265
4 368 745 861 1010
4 370 746 1039 1122
4 182 325 1062 1430
4 13 77 1065 1618
4 306 334 1068 1911
4 75 296 946 1064
4 19 647 1095 2035
4 433 583 649 1098
4 602 776 1104 1411
4 188 763 1091 1725
4 339 772 1129 2156
4 314 1119 1151 1754
4 87 645 1148 1802
4 604 1132 1160 1470
4 43 200 1179 1348
4 239 365 1186 1702
4 209 356 981 1180
4 277 483 822 1234
4 48 458 825 1647
4 497 591 837 1381
4 240 489 858 1934
4 375 863 1212 1266
4 206 455 1205 1595
4 116 394 1237 1644
4 496 528 1240 2109
4 111 514 674 1236
4 400 988 1189 2059
4 287 1005 1178 1540
4 376 1012 1188 1678
4 500 867 1013 2181
4 534 866 1268 1780
4 119 980 1263 1593
4 184 613 918 1724
4 654 685 925 2319
4 281 610 915 1538
4 621 959 990 2299
4 530 653 1296 1984
4 303 521 854 1293
4 310 954 1294 1753
4 526 684 1324 1779
4 304 522 1118 1321
4 308 985 1322 1569
4 210 332 1349 1906
4 15 50 1351 1622
4 118 329 1346 1698
4 22 833 1378 2225
4 124 885 1374 1932
4 605 898 1161 1385
4 344 895 1215 2346
4 54 827 1404 2007
4 606 1218 1412 1471
4 219 1207 1402 1957
4 146 360 950 1434
4 335 367 1437 1705
4 45 139 1432 1621
4 186 547 1090 1485
4 561 597 1103 1384
4 51 423 1092 1831
4 336 558 1128 2133
4 379 1124 1466 1515
4 144 426 1457 1805
4 81 519 643 1487
4 533 557 1490 2110
4 83 396 1488 1828
4 402 957 1439 2252
4 191 1034 1431 1726
4 380 1041 1438 1679
4 564 1045 1134 2371
4 535 1127 1517 1985
4 88 949 1512 1803
4 143 425 736 1727
4 205 454 732 1541
4 214 616 1542 1854
4 715 749 1547 2324
4 312 800 1295 1879
4 718 872 1301 2394
4 285 794 1235 1292
4 622 805 991 2275
4 751 871 1572 1783
4 213 983 1567 1596
4 121 797 1238 1931
4 688 835 1243 2390
4 218 1182 1543 1956
4 469 830 1544 2177
4 806 994 1192 2482
4 465 679 1598 1776
4 79 233 1619 1700
4 142 236 1624 1908
4 25 1096 1379 2414
4 91 1149 1376 2131
4 249 1155 1461 2343
4 56 1093 1405 2202
4 155 1408 1458 2154
4 120 551 1373 1645
4 468 555 1650 2105
4 53 398 1648 1832
4 405 1190 1707 2437
4 474 1211 1674 2178
4 58 1185 1671 2008
4 382 1213 1467 1680
4 383 1267 1516 1706
4 127 1264 1699 1933
4 569 1219 1274 2509
4 85 487 1375 1829
4 337 559 1214 2205
4 241 490 1460 2010
4 149 618 1728 2032
4 752 777 1732 2325
4 315 1069 1323 1880
4 780 1136 1329 2532
4 190 1063 1320 1486
4 624 961 1073 2463
4 755 1133 1756 1988
4 152 952 1751 1806
4 471 921 1545 2056
4 753 1016 1548 2296
4 536 1241 1297 2080
4 874 1019 1305 2485
4 690 926 1244 2272
4 89 1066 1489 2130
4 660 1101 1495 2528
4 154 1436 1729 2153
4 440 1099 1731 2367
4 964 1076 1443 2614
4 435 651 1808 1981
4 432 494 1834 2107
4 408 1440 1708 2550
4 442 1464 1676 2368
4 59 1433 1672 2203
4 94 1513 1701 2132
4 506 1468 1520 2506
4 692 771 1860 2320
4 21 620 1858 2036
4 216 767 1401 1855
4 317 889 1152 1881
4 694 893 1885 2391
4 24 803 1883 2226
4 626 808 1915 2572
4 223 1568 1907 1958
4 319 1571 1755 1912
4 781 900 1576 2639
4 151 705 1407 2033
4 244 708 1154 2228
4 340 773 894 2417
4 876 899 1939 2397
4 247 804 1935 2229
4 248 1187 1960 2011
4 878 1221 1964 2184
4 220 1350 1597 1856
4 904 1222 1602 2661
4 126 1347 1594 1646
4 810 1194 1356 2596
4 756 1042 1733 2297
4 437 923 1730 2249
4 658 929 1494 2460
4 539 1325 1491 2081
4 1048 1138 1332 2617
4 61 1353 1649 2204
4 843 1387 1655 2657
4 1197 1359 1711 2740
4 252 1704 1936 2344
4 505 1383 1938 2505
4 499 838 2013 2180
4 657 712 2038 2322
4 664 1159 1888 2529
4 27 1071 1884 2415
4 629 1074 1916 2678
4 159 1752 1909 2155
4 722 1162 1759 2636
4 473 1037 1673 2057
4 997 1044 2062 2300
4 404 928 2060 2253
4 998 1272 2086 2483
4 407 1247 2084 2438
4 541 1269 1518 2082
4 932 1252 2114 2699
4 542 1781 1986 2111
4 478 1778 2106 2179
4 1051 1277 1786 2763
4 439 1008 1675 2250
4 501 1014 1519 2440
4 565 1046 1273 2553
4 343 1072 2134 2418
4 1140 1164 2138 2535
4 1142 1472 2161 2374
4 346 1442 2157 2206
4 157 1625 1807 2034
4 1168 1474 1812 2785
4 95 1620 1804 1830
4 1078 1445 1628 2723
4 503 1248 1937 2441
4 879 1276 1940 2486
4 476 1599 1651 2058
4 841 1249 1654 2593
4 1224 1279 1605 2743
4 62 1623 1833 2009
4 1107 1389 1838 2780
4 1448 1631 1713 2860
4 349 1710 2135 2347
4 568 1386 2136 2508
4 563 1105 2208 2370
4 29 1354 1859 2416
4 846 1415 1864 2658
4 717 840 2231 2393
4 814 1357 1918 2800
4 254 1913 1961 2345
4 724 1414 1963 2637
4 963 1018 2255 2304
4 968 1523 2089 2615
4 410 1493 2085 2551
4 934 1498 2115 2820
4 1025 1524 1991 2760
4 446 1983 2108 2369
4 999 1328 2087 2276
4 628 931 2278 2464
4 695 1327 1886 2273
4 759 1573 1757 2298
4 1000 1574 2301 2484
4 631 1551 2302 2573
4 698 1782 2321 2392
4 936 1556 2328 2700
4 760 1784 1989 2326
4 1338 1581 1791 2883
4 662 1299 1887 2461
4 719 1302 1758 2575
4 783 1330 1577 2681
4 1226 1420 2212 2664
4 348 1355 2207 2419
4 1421 1476 2017 2787
4 253 1627 2012 2230
4 1227 1473 2351 2512
4 1361 1633 1715 2843
4 1143 1526 2139 2618
4 570 1497 2137 2554
4 1109 1500 1839 2720
4 445 1809 1835 2251
4 1477 1530 1815 2865
4 880 1575 1965 2487
4 721 1552 1962 2576
4 845 1553 1863 2594
4 696 1600 1861 2274
4 906 1579 1603 2803
4 1111 1418 2042 2781
4 30 1626 2037 2227
4 779 1106 2420 2531
4 1082 1629 1920 2900
4 350 1914 2158 2348
4 785 1417 2159 2640
4 1201 1683 2066 2741
4 412 1652 2061 2552
4 1021 1196 2443 2490
4 1255 1657 2117 2920
4 510 2112 2182 2507
4 1027 1682 2187 2761
4 966 1304 2088 2466
4 969 1761 2305 2616
4 632 1735 2303 2679
4 667 1987 2323 2530
4 937 1736 2329 2821
4 1311 1763 1994 2880
4 1001 1601 2063 2277
4 812 1251 2280 2597
4 813 1307 2488 2578
4 882 1785 2185 2398
4 1254 1310 2399 2705
4 1583 1611 1793 2963
4 1022 1308 1990 2702
4 1053 1335 1787 2823
4 903 1391 2424 2660
4 1167 1392 2235 2783
4 905 1165 2349 2642
4 1363 1634 1922 2940
4 1229 1688 2213 2744
4 572 1653 2209 2555
4 1479 1689 2020 2866
4 508 1837 2014 2442
4 1393 1659 1841 2840
4 786 1738 2160 2682
4 1144 1762 2162 2619
4 665 1810 2039 2462
4 1112 1739 2043 2721
4 1169 1765 1813 2903
4 1024 1557 2186 2703
4 1199 1558 2065 2599
4 1283 1608 1789 2923
4 413 1836 2254 2439
4 1452 1686 2260 2861
4 1050 1447 2556 2622
4 1504 1843 2119 2980
4 573 2113 2372 2510
4 1056 1685 2377 2764
4 634 1862 2279 2680
4 818 1890 2281 2802
4 1559 1868 2331 2960
4 728 2327 2395 2638
4 1313 1894 2402 2881
4 817 1941 2489 2801
4 1203 1966 2492 2742
4 850 2183 2396 2659
4 1257 1942 2400 2921
4 1563 1968 2189 2962
4 970 1811 2256 2467
4 1080 1502 2469 2724
4 1081 1334 2620 2684
4 1146 1993 2375 2536
4 1337 1503 2537 2826
4 1769 1821 1998 3023
4 1281 1717 2560 2748
4 1529 1719 2447 2863
4 1282 1527 2514 2766
4 1663 1846 2121 3000
4 910 1893 2425 2805
4 788 1865 2421 2683
4 1172 1896 2237 2904
4 726 2041 2232 2577
4 1422 1870 2044 2943
4 1230 1967 2352 2745
4 909 1944 2350 2804
4 1396 1945 2236 2841
4 849 2015 2233 2595
4 1425 1970 2018 2944
4 1055 1741 2376 2824
4 1451 1742 2259 2726
4 1531 1818 1996 2983
4 1085 1892 2470 2901
4 635 2040 2465 2574
4 1743 2046 2332 3020
4 789 2330 2533 2641
4 1341 1897 2540 2884
4 1259 2090 2283 2922
4 939 2064 2282 2822
4 1561 2068 2308 2961
4 1031 2306 2491 2762
4 1315 2091 2493 2882
4 1455 2163 2624 2862
4 1086 2140 2621 2902
4 1507 2142 2538 2981
4 1116 2373 2534 2782
4 1748 2166 2379 3022
4 1204 2016 2445 2600
4 1365 1661 2602 2844
4 1366 1607 2746 2806
4 1232 2188 2513 2665
4 1610 1662 2667 2926
4 1974 2025 2195 3063
4 1585 1925 2688 2808
4 1768 1926 2582 2908
4 1586 1767 2646 2886
4 1872 2048 2334 3040
4 1287 2094 2561 2925
4 1058 2067 2557 2825
4 1535 2096 2449 2985
4 1029 2258 2444 2704
4 1690 2072 2262 3003
4 1173 2143 2353 2905
4 1482 2165 2355 2867
4 1427 2164 2215 2945
4 1115 2210 2422 2722
4 1397 2141 2426 2842
4 1285 1947 2515 2924
4 1720 1948 2448 2846
4 1692 2022 2191 3004
4 819 2234 2579 2598
4 1368 1867 2603 2941
4 1949 2239 2403 3060
4 911 2401 2643 2662
4 1613 1871 2669 2966
4 941 2257 2468 2701
4 1508 2092 2472 2982
4 1746 2261 2309 3021
4 1059 2307 2623 2765
4 1342 2095 2625 2885
4 1369 2214 2747 2942
4 1723 2354 2750 2864
4 1399 2511 2663 2784
4 1667 2216 2668 3002
4 1954 2357 2518 3062
4 1454 2211 2558 2727
4 1638 1845 2729 2848
4 1639 1817 2868 2906
4 1483 2378 2516 2789
4 1820 1848 2790 2986
4 2170 2218 2383 3103
4 1588 1972 2647 2964
4 1927 1973 2583 2948
4 1898 2241 2406 3043
4 1796 2124 2830 2930
4 2002 2125 2709 2989
4 1797 2000 2770 2889
4 2073 2265 2312 3080
4 1589 2310 2689 2965
4 1343 2284 2686 2828
4 1317 2471 2580 2707
4 1773 2311 2584 3025
4 1900 2288 2474 3044
4 1533 2145 2517 2984
4 1721 2144 2562 2847
4 1695 2217 2380 3005
4 1640 2045 2730 2946
4 1087 2423 2685 2725
4 2146 2430 2542 3100
4 1175 2539 2644 2786
4 1823 2050 2792 3026
4 1666 2070 2605 3001
4 1261 2446 2601 2706
4 1952 2451 2496 3061
4 1288 2494 2749 2767
4 1615 2071 2751 2967
4 1641 2021 2869 2947
4 1850 2024 2791 3006
4 2148 2359 2520 3101
4 1929 2356 2811 2909
4 1370 2427 2807 2845
4 1428 2645 2666 2788
4 1977 2361 2649 3064
4 1876 2428 2670 3042
4 1772 2169 2648 3024
4 1928 2168 2690 2949
4 1902 2429 2541 3045
4 1799 2193 2771 2970
4 2126 2194 2710 3008
4 2099 2453 2498 3084
4 1798 2336 2831 2969
4 2003 2338 2711 3029
4 2097 2291 2476 3083
4 1590 2495 2809 2887
4 1616 2285 2810 2928
4 1565 2581 2604 2708
4 1875 2286 2606 3041
4 1978 2497 2586 3065
4 1642 2238 2849 2907
4 2220 2432 2671 3104
4 2027 2244 2794 3066
4 1510 2559 2728 2827
4 1851 2263 2732 3007
4 2150 2565 2628 3102
4 1537 2626 2768 2870
4 1825 2264 2872 3027
4 2172 2362 2651 3106
4 2052 2243 2793 3046
4 1668 2563 2850 2927
4 2128 2519 2932 2990
4 2199 2522 2773 3070
4 1696 2752 2769 2871
4 2077 2564 2753 3082
4 2004 2382 2772 3030
4 2127 2381 2832 3009
4 2102 2566 2629 3085
4 1800 2405 2890 2931
4 2339 2408 2712 3048
4 2315 2500 2588 3089
4 2198 2410 2714 3069
4 2075 2289 2607 3081
4 1775 2627 2888 2910
4 1826 2473 2911 2988
4 2053 2475 2733 3047
4 1749 2687 2731 2829
4 2174 2630 2693 3107
4 1852 2450 2851 2987
4 2222 2567 2755 3105
4 2029 2452 2873 3067
4 2387 2524 2775 3111
4 2268 2455 2874 3086
4 2342 2650 2973 3031
4 1878 2691 2950 2968
4 1904 2813 2891 2912
4 2413 2652 2894 3071
4 2294 2692 2814 3088
4 2005 2543 2892 2992
4 2340 2544 2834 3049
4 2317 2631 2694 3090
4 2386 2546 2836 3110
4 2269 2477 2734 3087
4 1980 2754 2952 2972
4 2030 2608 2953 3011
4 1955 2812 2852 2929
4 2247 2609 2854 3050
4 2365 2756 2816 3109
4 2054 2585 2951 3028
4 2246 2587 2914 3068
4 2435 2695 2815 3108
4 2547 2653 2896 3112
4 2479 2589 2915 3092
4 2079 2833 2971 3010
4 2318 2774 2975 3034
4 2504 2776 2895 3074
4 2103 2893 2933 2993
4 2295 2835 2934 3051
4 2200 2672 2974 3014
4 2411 2673 2935 3052
4 2503 2757 2817 3093
4 2525 2674 2937 3114
4 2457 2610 2856 3091
4 2176 2875 2955 3033
4 2224 2735 2954 3013
4 2436 2736 2855 3053
4 2152 2853 2913 2991
4 2366 2876 2916 3073
4 2270 2713 3012 3032
4 2458 2715 2994 3072
4 2571 2837 2936 3113
4 2654 2675 2976 3116
4 2590 2611 2956 3095
4 2634 2777 2897 3115
4 2480 2716 2995 3054
4 2388 2795 3015 3035
4 2548 2796 2996 3055
4 2635 2877 2917 3096
4 2526 2797 2997 3076
4 2569 2737 2857 3094
4 2591 2717 3036 3075
4 2698 2838 2977 3117
4 2655 2799 3037 3077
4 2696 2738 2957 3097
4 2758 2778 2978 3118
4 2612 2718 3016 3056
4 2676 2798 3017 3057
4 2759 2878 2958 3098
4 2819 2898 2938 3119
4 2818 2858 2918 3099
4 2779 2879 3038 3078
4 2739 2839 3018 3058
4 2899 2919 2999 3079
4 2859 2939 2998 3059
4 2959 2979 3019 3039
