# Generated using Miratope v0.5.0 (https://github.com/galoomba1/miratope-rs)
4OFF

# Vertices, Faces, Edges, Cells
120 720 720 120

# Vertices
-0.809016994374945 -0.809016994374945 -0.809016994374945 0.809016994374945 
-0.809016994374945 0.5 1.30901699437495 0 
0 -0.809016994374945 1.30901699437495 -0.5 
-0.809016994374945 0 0.5 -1.30901699437495 
-0.809016994374945 -0.809016994374945 -0.809016994374945 -0.809016994374945 
-0.809016994374945 0 0.5 1.30901699437495 
0 -0.809016994374945 1.30901699437495 0.5 
0 -1.61803398874989 0 0 
-1.30901699437495 0.5 0 0.809016994374945 
-1.30901699437495 0.5 0 -0.809016994374945 
-0.5 0 1.30901699437495 0.809016994374945 
-1.30901699437495 0 -0.809016994374945 -0.5 
-0.5 -1.30901699437495 -0.809016994374945 0 
-0.5 -0.809016994374945 0 -1.30901699437495 
0 -1.30901699437495 0.5 -0.809016994374945 
-1.30901699437495 0 -0.809016994374945 0.5 
-0.5 -0.809016994374945 0 1.30901699437495 
-0.5 0 1.30901699437495 -0.809016994374945 
-1.30901699437495 0.809016994374945 0.5 0 
0 -1.30901699437495 0.5 0.809016994374945 
0.809016994374945 -0.809016994374945 -0.809016994374945 0.809016994374945 
-1.30901699437495 -0.809016994374945 0.5 0 
0.5 0 1.30901699437495 0.809016994374945 
1.30901699437495 -0.809016994374945 0.5 0 
0 0 0 1.61803398874989 
0.809016994374945 -1.30901699437495 0 -0.5 
-0.809016994374945 -1.30901699437495 0 -0.5 
0.809016994374945 0 0.5 1.30901699437495 
0.5 -1.30901699437495 -0.809016994374945 0 
1.30901699437495 -0.5 0 0.809016994374945 
-0.809016994374945 -0.5 1.30901699437495 0 
-1.30901699437495 -0.5 0 0.809016994374945 
0.809016994374945 -0.5 1.30901699437495 0 
0 -0.5 -0.809016994374945 1.30901699437495 
-0.809016994374945 -0.809016994374945 0.809016994374945 0.809016994374945 
0.5 1.30901699437495 0.809016994374945 0 
-0.809016994374945 1.30901699437495 0 -0.5 
0 0.5 0.809016994374945 -1.30901699437495 
-0.809016994374945 -0.809016994374945 0.809016994374945 -0.809016994374945 
0 0.5 0.809016994374945 1.30901699437495 
-0.809016994374945 1.30901699437495 0 0.5 
-1.61803398874989 0 0 0 
0.5 0 1.30901699437495 -0.809016994374945 
0.809016994374945 0.5 1.30901699437495 0 
0 1.30901699437495 0.5 0.809016994374945 
0 1.30901699437495 0.5 -0.809016994374945 
-0.809016994374945 0.809016994374945 -0.809016994374945 -0.809016994374945 
-0.809016994374945 -1.30901699437495 0 0.5 
0 0.5 -0.809016994374945 1.30901699437495 
0 0 -1.61803398874989 0 
-0.5 0.809016994374945 0 1.30901699437495 
-1.30901699437495 -0.5 0 -0.809016994374945 
-0.5 0 -1.30901699437495 -0.809016994374945 
0 -0.809016994374945 -1.30901699437495 0.5 
-0.5 1.30901699437495 -0.809016994374945 0 
-1.30901699437495 0 0.809016994374945 0.5 
0 0.809016994374945 -1.30901699437495 0.5 
0.809016994374945 -0.809016994374945 0.809016994374945 -0.809016994374945 
-1.30901699437495 -0.809016994374945 -0.5 0 
0.809016994374945 -0.809016994374945 -0.809016994374945 -0.809016994374945 
0 0.5 -0.809016994374945 -1.30901699437495 
0 -0.809016994374945 -1.30901699437495 -0.5 
0.809016994374945 0 0.5 -1.30901699437495 
-1.30901699437495 0 0.809016994374945 -0.5 
0.809016994374945 0 -0.5 -1.30901699437495 
-0.5 0.809016994374945 0 -1.30901699437495 
-0.5 -1.30901699437495 0.809016994374945 0 
-0.809016994374945 0.809016994374945 0.809016994374945 0.809016994374945 
1.30901699437495 0 0.809016994374945 -0.5 
0.5 -1.30901699437495 0.809016994374945 0 
1.30901699437495 0.5 0 0.809016994374945 
0 0.809016994374945 1.30901699437495 -0.5 
1.30901699437495 0.809016994374945 0.5 0 
0.5 -0.809016994374945 0 1.30901699437495 
0.5 0.809016994374945 0 1.30901699437495 
-0.809016994374945 0.809016994374945 0.809016994374945 -0.809016994374945 
-0.809016994374945 0 -0.5 1.30901699437495 
0 0.809016994374945 1.30901699437495 0.5 
0.5 1.30901699437495 -0.809016994374945 0 
0.809016994374945 1.30901699437495 0 0.5 
-0.809016994374945 0.5 -1.30901699437495 0 
0 1.30901699437495 -0.5 -0.809016994374945 
0.809016994374945 0.809016994374945 -0.809016994374945 0.809016994374945 
-0.809016994374945 0.809016994374945 -0.809016994374945 0.809016994374945 
-0.809016994374945 -0.5 -1.30901699437495 0 
0.809016994374945 -1.30901699437495 0 0.5 
0.809016994374945 -0.5 -1.30901699437495 0 
0 -0.5 0.809016994374945 1.30901699437495 
1.30901699437495 0 -0.809016994374945 0.5 
0.809016994374945 -0.809016994374945 0.809016994374945 0.809016994374945 
1.61803398874989 0 0 0 
0 -0.5 0.809016994374945 -1.30901699437495 
0 -0.5 -0.809016994374945 -1.30901699437495 
0 -1.30901699437495 -0.5 0.809016994374945 
1.30901699437495 0 -0.809016994374945 -0.5 
-0.5 1.30901699437495 0.809016994374945 0 
1.30901699437495 0.5 0 -0.809016994374945 
0 0 1.61803398874989 0 
-0.809016994374945 0 -0.5 -1.30901699437495 
0.5 -0.809016994374945 0 -1.30901699437495 
0.809016994374945 1.30901699437495 0 -0.5 
0.809016994374945 0.809016994374945 -0.809016994374945 -0.809016994374945 
0 0 0 -1.61803398874989 
0 -1.30901699437495 -0.5 -0.809016994374945 
0.809016994374945 0.5 -1.30901699437495 0 
-1.30901699437495 0.809016994374945 -0.5 0 
-0.5 0 -1.30901699437495 0.809016994374945 
1.30901699437495 0.809016994374945 -0.5 0 
0.5 0 -1.30901699437495 0.809016994374945 
0 1.61803398874989 0 0 
1.30901699437495 0 0.809016994374945 0.5 
0.809016994374945 0.809016994374945 0.809016994374945 0.809016994374945 
1.30901699437495 -0.809016994374945 -0.5 0 
0.5 0.809016994374945 0 -1.30901699437495 
0 0.809016994374945 -1.30901699437495 -0.5 
0.809016994374945 0 -0.5 1.30901699437495 
1.30901699437495 -0.5 0 -0.809016994374945 
0.809016994374945 0.809016994374945 0.809016994374945 -0.809016994374945 
0.5 0 -1.30901699437495 -0.809016994374945 
0 1.30901699437495 -0.5 0.809016994374945 

# Faces
5 0 1 7 8 2
5 0 1 4 5 3
5 0 3 19 11 2
5 1 4 6 9 7
5 5 14 15 6 4
5 7 8 13 16 9
5 18 12 10 11 19
5 10 13 8 2 11
5 10 12 17 16 13
5 18 14 5 3 19
5 9 16 17 15 6
5 17 15 14 18 12
5 20 2 24 25 10
5 21 20 10 12 27
5 0 23 21 20 2
5 0 22 28 5 23
5 24 2 0 22 26
5 29 26 24 25 31
5 14 27 21 23 5
5 27 12 32 33 14
5 29 26 22 28 30
5 29 31 32 33 30
5 32 12 10 25 31
5 33 14 5 28 30
5 34 36 22 41 35
5 34 37 39 38 35
5 36 2 8 37 34
5 41 35 38 40 42
5 39 9 6 40 38
5 41 22 3 5 42
5 43 8 2 44 21
5 43 9 39 37 8
5 9 43 21 45 6
5 22 3 44 2 36
5 3 44 21 45 5
5 40 42 5 45 6
5 49 5 46 33 18
5 5 46 47 40 4
5 46 47 56 51 33
5 40 53 9 48 4
5 5 4 48 21 49
5 21 49 18 12 54
5 18 33 51 50 12
5 50 51 56 55 52
5 50 12 54 16 52
5 55 53 40 47 56
5 9 48 21 54 16
5 55 52 16 9 53
5 7 37 58 57 9
5 57 52 17 59 9
5 64 58 57 52 66
5 17 59 21 62 12
5 59 9 7 60 21
5 37 61 2 60 7
5 17 52 66 65 12
5 21 60 2 11 62
5 2 61 63 25 11
5 62 11 25 65 12
5 58 64 63 61 37
5 64 63 25 65 66
5 29 71 24 68 67
5 29 30 74 69 67
5 67 69 35 34 68
5 34 35 73 1 70
5 24 68 34 70 2
5 24 71 19 44 2
5 42 74 30 72 5
5 23 44 19 72 5
5 29 30 72 19 71
5 1 23 44 2 70
5 74 69 35 73 42
5 5 42 73 1 23
5 41 74 75 76 35
5 75 74 46 77 56
5 75 56 55 81 76
5 46 5 78 41 74
5 45 15 77 46 5
5 78 41 35 80 1
5 39 9 79 55 81
5 55 79 15 77 56
5 9 48 45 15 79
5 35 76 81 39 80
5 39 80 1 48 9
5 78 5 45 48 1
5 29 31 82 19 83
5 12 82 19 49 27
5 50 12 82 31 86
5 74 28 83 29 84
5 19 49 5 28 83
5 5 88 15 27 49
5 27 15 85 50 12
5 28 74 47 88 5
5 56 87 84 74 47
5 87 84 29 31 86
5 85 56 87 86 50
5 88 47 56 85 15
5 66 90 13 89 64
5 93 64 89 61 68
5 2 20 13 89 61
5 2 20 62 19 94
5 20 62 12 90 13
5 32 12 90 66 86
5 93 91 29 26 68
5 32 92 29 91 86
5 26 94 19 92 29
5 61 68 26 94 2
5 32 92 19 62 12
5 66 86 91 93 64
5 81 57 95 64 97
5 57 9 43 13 95
5 38 81 57 9 96
5 38 35 99 1 96
5 38 35 98 97 81
5 64 63 68 98 97
5 1 60 43 9 96
5 60 2 100 13 43
5 35 99 36 68 98
5 36 68 63 100 2
5 64 63 100 13 95
5 36 99 1 60 2
5 56 51 101 15 102
5 101 12 54 59 15
5 51 86 65 12 101
5 54 59 9 104 13
5 9 53 102 15 59
5 102 56 103 81 53
5 12 65 106 13 54
5 53 81 58 104 9
5 64 105 103 81 58
5 58 64 106 13 104
5 86 51 56 103 105
5 86 65 106 64 105
5 67 107 87 109 29
5 76 107 67 108 35
5 83 29 67 108 22
5 5 78 22 83 72
5 109 29 83 72 33
5 56 77 33 109 87
5 5 72 33 77 88
5 73 40 110 76 35
5 77 56 110 40 88
5 56 110 76 107 87
5 78 73 35 108 22
5 5 88 40 73 78
5 111 64 89 100 25
5 71 25 111 91 29
5 97 64 111 91 107
5 2 100 89 37 70
5 64 89 37 112 97
5 97 112 35 69 107
5 2 70 99 22 94
5 35 112 37 70 99
5 69 113 22 99 35
5 94 71 29 113 22
5 91 107 69 113 29
5 94 71 25 100 2
5 82 25 106 90 12
5 25 114 29 92 82
5 82 12 101 33 92
5 33 116 56 85 101
5 12 101 85 52 90
5 90 106 64 115 52
5 93 114 29 84 107
5 64 115 103 107 93
5 56 116 84 107 103
5 116 84 29 92 33
5 56 85 52 115 103
5 93 114 25 106 64
5 56 75 107 105 117
5 56 117 52 79 102
5 105 64 95 52 117
5 75 118 35 98 107
5 102 56 75 118 40
5 79 9 96 40 102
5 9 79 52 95 104
5 35 118 40 96 80
5 37 80 35 98 119
5 107 105 64 119 98
5 64 119 37 104 95
5 9 96 80 37 104
5 115 64 111 86 117
5 29 114 111 86 109
5 64 111 114 68 119
5 110 81 115 117 56
5 116 109 86 117 56
5 109 116 74 113 29
5 35 112 81 110 118
5 56 110 118 74 116
5 119 112 35 108 68
5 35 108 113 74 118
5 29 114 68 108 113
5 115 64 119 112 81
5 22 83 30 74 41
5 19 83 22 0 44
5 18 33 30 83 19
5 0 1 73 41 22
5 21 48 1 0 44
5 47 74 41 73 40
5 21 44 19 18 27
5 77 33 18 27 15
5 21 27 15 6 48
5 30 74 47 77 33
5 15 6 40 47 77
5 40 73 1 48 6
5 34 37 89 63 68
5 7 43 13 89 37
5 13 89 63 25 10
5 68 26 22 99 34
5 7 37 34 99 1
5 1 23 21 43 7
5 10 62 21 43 13
5 3 23 1 99 22
5 3 22 26 71 19
5 63 68 26 71 25
5 19 71 25 10 62
5 19 62 21 23 3
5 11 20 21 49 19
5 21 20 13 16 59
5 20 11 25 106 13
5 15 59 16 52 85
5 49 14 15 59 21
5 33 92 19 49 14
5 16 52 66 106 13
5 14 15 85 51 33
5 51 86 31 92 33
5 52 85 51 86 66
5 25 11 19 92 31
5 31 86 66 106 25
5 40 102 55 81 38
5 1 4 40 38 80
5 37 58 81 38 80
5 40 102 15 45 4
5 45 4 1 60 21
5 55 102 15 17 52
5 37 8 13 95 58
5 52 55 81 58 95
5 13 54 17 52 95
5 80 37 8 60 1
5 21 54 17 15 45
5 8 60 21 54 13
5 90 65 86 117 52
5 107 91 86 117 103
5 57 81 103 117 52
5 112 81 57 104 37
5 57 104 13 90 52
5 13 100 25 65 90
5 68 98 107 91 114
5 81 103 107 98 112
5 25 114 68 61 100
5 61 68 98 112 37
5 61 100 13 104 37
5 91 114 25 65 86
5 86 109 33 101 50
5 15 101 50 52 79
5 88 46 33 101 15
5 40 88 46 74 118
5 46 33 109 84 74
5 86 105 107 84 109
5 15 88 40 53 79
5 52 79 53 81 115
5 76 118 74 84 107
5 81 76 107 105 115
5 86 50 52 115 105
5 76 118 40 53 81
5 67 107 97 119 68
5 67 113 74 75 107
5 68 36 22 113 67
5 42 40 110 75 74
5 81 110 75 107 97
5 39 81 97 119 37
5 1 70 36 22 78
5 1 96 39 37 70
5 36 70 37 119 68
5 110 81 39 96 40
5 74 113 22 78 42
5 78 42 40 96 1
5 86 111 25 82 32
5 24 25 111 93 68
5 86 87 107 93 111
5 19 72 33 32 82
5 25 82 19 94 24
5 22 108 68 24 94
5 28 72 33 116 74
5 19 94 22 28 72
5 69 107 87 116 74
5 69 108 22 28 74
5 68 108 69 107 93
5 86 32 33 116 87
5 89 8 2 24 63
5 7 39 58 89 8
5 93 63 89 58 97
5 67 69 76 97 93
5 22 26 67 69 41
5 67 26 24 63 93
5 38 73 1 7 39
5 76 38 39 58 97
5 73 38 76 69 41
5 76 75 87 105 97
5 77 47 75 87 51
5 76 38 40 47 75
5 58 97 105 66 95
5 51 77 15 17 50
5 95 16 9 39 58
5 17 16 95 66 50
5 105 66 50 51 87
5 93 105 87 84 67
5 26 83 30 84 67
5 24 11 19 83 26
5 10 106 63 24 11
5 12 10 106 66 50
5 33 51 87 84 30
5 66 106 63 93 105
5 87 91 67 69 75
5 26 71 31 91 67
5 75 69 41 42 47
5 77 14 5 42 47
5 18 32 51 77 14
5 31 71 19 18 32
5 87 91 31 32 51
5 4 73 38 53 6
5 55 103 76 38 53
5 41 28 5 4 73
5 28 41 69 84 30
5 51 87 103 55 85
5 87 84 69 76 103
5 53 6 15 85 55
5 36 26 67 98 34
5 67 98 76 75 84
5 30 46 47 75 84
5 3 83 30 46 5
5 0 36 26 83 3
5 0 36 34 80 1
5 80 34 98 76 38
5 58 89 13 16 57
5 16 17 85 55 57
5 58 57 55 103 97
5 93 97 103 87 91
5 51 32 12 17 85
5 31 91 93 63 25
5 98 67 91 105 97
5 37 58 97 98 34
5 13 95 66 65 10
5 10 11 71 31 65
5 2 36 26 71 11
5 66 65 31 91 105
5 34 61 8 7 80
5 98 93 63 61 34
5 38 53 9 7 80
5 105 103 76 98 93
5 61 8 13 106 63
5 105 66 52 55 103
5 102 6 9 57 55
5 97 103 75 69 98
5 47 102 55 103 75
5 34 99 41 69 98
5 42 4 1 99 41
5 47 102 6 4 42
5 0 99 34 61 2
5 41 28 3 0 99
5 28 3 19 92 30
5 84 91 31 92 30
5 84 91 93 98 69
5 75 103 105 91 84
5 46 14 18 92 30
5 46 14 15 102 47
5 18 92 31 65 12
5 71 24 63 111 31
5 31 111 66 50 32
5 95 89 63 111 66
5 8 43 16 95 89
5 16 43 21 27 17
5 50 32 18 27 17
5 24 36 34 119 63
5 80 34 119 58 39
5 0 36 24 11 44
5 44 11 10 54 21
5 106 95 16 54 10
5 63 119 58 95 106
5 10 20 8 89 106
5 58 115 66 106 89
5 21 48 7 8 20
5 39 53 6 48 7
5 58 115 55 53 39
5 50 85 55 115 66
5 16 43 7 39 57
5 38 39 57 55 110
5 38 73 42 47 110
5 77 85 55 110 47
5 14 77 85 17 27
5 20 8 61 24 11
5 83 28 41 108 26
5 34 108 41 73 80
5 34 108 26 24 61
5 80 73 4 48 7
5 31 109 30 83 71
5 44 11 71 83 3
5 46 77 51 109 30
5 31 65 50 51 109
5 17 54 10 65 50
5 17 85 102 6 59
5 23 4 6 59 21
5 3 23 4 42 28
5 51 116 47 102 85
5 92 30 116 51 32
5 42 28 30 116 47
5 46 42 41 113 30
5 4 45 14 46 42
5 99 41 113 26 36
5 62 18 92 71 11
5 30 92 71 26 113
5 21 62 18 14 45
5 41 28 46 47 118
5 14 49 3 28 46
5 38 118 41 99 80
5 102 47 118 38 53
5 49 3 0 60 21
5 7 60 0 99 80
5 95 57 55 117 66
5 55 102 77 51 117
5 66 117 51 32 65
5 6 45 14 77 102
5 10 62 18 32 65
5 89 61 34 112 58
5 59 6 53 57 16
5 57 53 38 112 58
5 34 99 73 38 112
5 0 23 4 73 99
5 83 92 18 49 3
5 83 92 31 114 26
5 0 60 8 61 36
5 36 61 63 114 26
5 106 65 31 114 63
5 67 93 119 34 108
5 41 108 67 84 74
5 40 53 39 80 73
5 56 55 115 105 87
5 105 93 119 58 115
5 29 31 111 93 67
5 93 97 115 66 111
5 110 55 115 97 76
5 110 47 74 69 76
5 85 77 33 32 50
5 109 31 111 105 87
5 63 119 97 105 111
5 87 75 74 30 109
5 71 83 22 36 24
5 97 76 35 34 119
5 66 117 103 97 64
5 103 117 51 116 75
5 30 113 69 75 116
5 26 113 69 98 68
5 92 71 25 65 32
5 102 85 52 57 53
5 98 112 38 118 69
5 58 112 98 93 64
5 116 47 118 69 84
5 91 84 116 51 86
5 41 118 75 84 113
5 81 38 118 75 103
5 99 80 37 61 36
5 26 114 91 84 113
5 64 63 114 91 105
5 67 91 111 63 68
5 111 66 117 87 91
5 75 87 117 55 110
5 57 39 37 89 95
5 110 38 35 69 75
5 84 109 31 114 67
5 98 67 114 63 119
5 51 109 84 75 56
5 52 95 106 65 50
5 76 98 119 58 81
5 25 106 89 61 24
5 108 69 76 112 34
5 29 84 69 108 26
5 86 66 115 103 87
5 115 103 76 112 58
5 68 93 97 112 34
5 112 38 110 103 97
5 110 103 87 116 47
5 28 42 73 99 22
5 87 91 29 30 116
5 83 92 33 46 28
5 76 118 41 108 98
5 76 103 56 47 118
5 26 114 93 98 108
5 86 105 93 114 31
5 81 55 117 105 97
5 51 117 105 91 109
5 109 91 67 113 30
5 41 113 67 98 35
5 42 46 77 102 40
5 106 111 105 115 95
5 10 82 31 111 106
5 18 82 10 54 27
5 18 82 31 109 33
5 79 16 95 115 55
5 15 27 54 16 79
5 93 111 106 89 119
5 20 44 19 82 10
5 34 119 89 8 70
5 0 70 8 20 44
5 0 70 34 108 22
5 97 115 95 89 119
5 70 8 43 48 1
5 6 79 55 110 40
5 6 79 16 43 48
5 85 117 66 90 17
5 85 117 103 110 102
5 7 43 59 6 96
5 59 43 13 90 17
5 102 110 38 96 6
5 96 7 37 112 38
5 0 60 20 11 94
5 13 104 7 60 20
5 99 108 26 94 0
5 58 104 7 80 112
5 112 80 99 108 98
5 26 114 25 11 94
5 101 17 52 117 51
5 18 101 17 54 62
5 18 101 51 109 92
5 71 114 91 109 92
5 100 11 71 114 63
5 11 100 13 54 62
5 102 110 75 116 77
5 72 3 22 113 30
5 77 116 30 72 14
5 14 72 3 23 45
5 1 96 6 45 23
5 15 45 49 18 101
5 41 113 83 3 78
5 83 113 84 109 92
5 78 4 40 118 41
5 45 49 3 78 4
5 0 94 19 49 23
5 49 23 4 88 14
5 4 88 47 118 73
5 88 14 33 116 47
5 69 118 73 99 108
5 90 10 25 111 66
5 77 116 87 117 85
5 27 62 10 90 17
5 72 14 27 62 19
5 7 48 59 16 104
5 15 59 48 4 88
5 58 115 52 16 104
5 76 118 73 80 112
5 83 113 67 114 71
5 44 60 1 78 3
5 44 60 8 100 11
5 8 100 63 119 37
5 4 96 38 118 42
5 4 96 7 60 23
5 2 60 23 3 94
5 42 118 69 113 28
5 26 94 3 28 113
5 17 101 14 45 59
5 51 101 14 46 116
5 75 116 46 42 118
5 59 45 4 96 9
5 14 101 12 62 49
5 28 113 84 116 46
5 3 94 11 62 49
5 49 44 11 82 18
5 31 82 11 24 114
5 24 114 67 108 36
5 44 49 5 78 0
5 41 108 36 0 78
5 50 117 87 109 32
5 55 117 50 17 79
5 32 109 30 72 18
5 45 27 18 72 5
5 6 45 27 17 79
5 7 70 34 112 39
5 48 23 0 70 7
5 39 112 76 110 53
5 53 110 47 88 6
5 6 88 5 23 48
5 12 54 20 11 82
5 16 54 20 8 104
5 114 24 61 119 93
5 104 8 61 119 58
5 16 90 10 20 43
5 20 43 7 70 2
5 97 115 57 39 112
5 57 115 66 90 16
5 65 111 105 117 50
5 65 111 63 100 10
5 9 79 17 54 43
5 8 100 10 54 43
5 4 78 0 60 48
5 98 119 61 36 108
5 9 48 60 8 104
5 65 111 91 109 32
5 44 62 18 72 3
5 62 44 2 100 10
5 103 115 57 53 110
5 14 27 59 6 88
5 16 90 12 27 59
5 90 65 32 101 17
5 14 72 92 32 101
5 60 23 45 59 43
5 94 3 72 92 71
5 54 62 49 45 59
5 4 96 80 99 78
5 61 100 11 94 36
5 99 78 3 94 36
5 88 102 85 101 14
5 20 62 49 23 60
5 96 53 57 104 7
5 88 102 53 96 4
5 20 54 27 49 44
5 73 80 70 0 78
5 80 70 8 104 39
5 16 79 53 39 104
5 82 71 24 100 10
5 72 18 82 71 83
5 70 8 100 24 36
5 54 43 48 45 27
5 82 32 50 90 10
5 43 20 44 23 48
5 16 90 50 85 79
5 88 6 79 85 77
5 92 82 11 94 83
5 54 20 60 48 59
5 0 94 83 28 78
5 46 88 4 78 28
5 59 27 62 20 43
5 7 70 99 73 96
5 72 14 88 42 28
5 42 88 6 96 73
5 79 17 101 77 102
5 77 101 18 72 46
5 42 78 3 72 46
5 43 54 62 44 60
5 101 18 82 65 50
5 106 100 11 82 65
5 48 60 44 49 45
5 100 106 95 104 8
5 89 95 90 10 100
5 39 57 79 6 96
5 17 90 95 57 79
5 62 44 23 45 27
5 106 89 104 16 90
5 7 70 61 89 104
5 27 59 48 23 49
5 24 61 70 0 94
5 56 102 88 46 116
5 107 98 108 113 84
5 80 112 81 53 96
5 113 108 99 78 28
5 86 32 101 85 117
5 110 118 42 88 102
5 72 92 29 113 28
5 69 118 110 103 107
5 116 75 107 91 109
5 109 116 46 72 92
5 42 118 35 99 78
5 68 36 94 71 114
5 86 109 92 82 65
5 113 83 94 36 108
5 106 100 61 119 64
5 95 90 65 111 64
5 109 116 77 101 32
5 79 57 81 110 102
5 64 89 104 57 115
5 70 61 68 108 99
5 118 73 96 53 110
5 114 67 107 105 111
5 114 111 106 100 24
5 35 80 70 36 108
5 81 115 95 104 39
5 86 111 106 90 50
5 112 39 104 89 119
5 85 79 53 110 56
5 119 93 107 76 112
5 115 95 90 50 117
5 117 87 107 97 115
5 32 109 29 71 82
5 89 119 68 24 100
5 24 114 29 83 94
5 112 119 61 70 80
5 74 118 73 78 28
5 71 114 111 65 82
5 50 117 56 77 101
5 74 46 72 83 113
5 115 117 85 79 57
5 73 96 39 112 35
5 74 116 77 88 42
5 65 90 54 62 82
5 49 72 92 82 62
5 79 59 45 88 102
5 52 90 54 59 79
5 46 88 45 49 72
5 62 82 25 100 20
5 61 70 60 20 100
5 49 72 28 78 23
5 60 70 99 78 23
5 57 79 59 43 104
5 37 70 60 43 104
5 78 23 45 88 42
5 106 100 20 54 90
5 79 59 48 96 53
5 48 96 80 70 60
5 62 82 71 94 44
5 104 43 54 90 95
5 60 70 36 94 44
5 32 101 27 62 82
5 43 104 89 100 20
5 85 101 27 59 79
5 83 72 49 44 94
5 40 96 48 45 88
5 33 101 27 49 72
5 23 78 73 96 48
5 27 101 77 88 45
5 22 94 44 23 78
5 27 101 50 90 54
5 44 94 24 100 20
5 39 96 48 43 104

# Cells
12 0 1 2 3 4 5 6 7 8 9 10 11
12 12 13 14 15 16 17 18 19 20 21 22 23
12 24 25 26 27 28 29 30 31 32 33 34 35
12 36 37 38 39 40 41 42 43 44 45 46 47
12 48 49 50 51 52 53 54 55 56 57 58 59
12 60 61 62 63 64 65 66 67 68 69 70 71
12 72 73 74 75 76 77 78 79 80 81 82 83
12 84 85 86 87 88 89 90 91 92 93 94 95
12 96 97 98 99 100 101 102 103 104 105 106 107
12 108 109 110 111 112 113 114 115 116 117 118 119
12 120 121 122 123 124 125 126 127 128 129 130 131
12 132 133 134 135 136 137 138 139 140 141 142 143
12 144 145 146 147 148 149 150 151 152 153 154 155
12 156 157 158 159 160 161 162 163 164 165 166 167
12 168 169 170 171 172 173 174 175 176 177 178 179
12 180 181 182 183 184 185 186 187 188 189 190 191
12 192 193 194 195 196 197 198 199 200 201 202 203
12 204 205 206 207 208 209 210 211 212 213 214 215
12 216 217 218 219 220 221 222 223 224 225 226 227
12 228 229 230 231 232 233 234 235 236 237 238 239
12 240 241 242 243 244 245 246 247 248 249 250 251
12 252 253 254 255 256 257 258 259 260 261 262 263
12 264 265 266 267 268 269 270 271 272 273 274 275
12 276 277 278 279 280 281 282 283 284 285 286 287
12 0 16 195 288 289 290 291 292 293 294 295 296
12 10 28 202 295 297 298 299 300 301 302 303 304
12 6 42 194 293 304 305 306 307 308 309 310 311
12 9 29 212 292 298 312 313 314 315 316 317 318
12 4 23 223 296 310 319 320 321 322 323 324 325
12 1 37 229 299 306 326 327 328 329 330 331 332
12 8 22 206 290 318 323 333 334 335 336 337 338
12 7 26 234 300 313 326 339 340 341 342 343 344
12 5 47 222 311 320 332 345 346 347 348 349 350
12 3 48 208 314 335 340 351 352 353 354 355 356
12 2 56 226 322 338 346 354 357 358 359 360 361
12 11 54 233 328 344 350 353 360 362 363 364 365
12 30 65 198 288 303 317 366 367 368 369 370 371
12 46 82 196 302 308 331 372 373 374 375 376 377
12 13 90 200 289 309 325 378 379 380 381 382 383
12 18 71 209 294 315 334 370 384 385 386 387 388
12 40 88 216 307 321 345 380 389 390 391 392 393
12 34 76 238 301 329 342 375 394 395 396 397 398
12 51 106 215 337 356 359 399 400 401 402 403 404
12 55 119 232 343 355 363 405 406 407 408 409 410
12 52 124 220 347 358 364 411 412 413 414 415 416
12 32 109 210 316 341 351 410 417 418 419 420 421
12 14 98 217 319 333 357 400 422 423 424 425 426
12 41 126 239 330 349 365 415 427 428 429 430 431
12 45 92 197 305 373 382 391 432 433 434 435 436
12 21 61 201 291 367 383 387 437 438 439 440 441
12 24 72 192 297 366 372 394 442 443 444 445 446
12 59 113 213 352 403 409 419 447 448 449 450 451
12 50 107 225 361 402 414 424 452 453 454 455 456
12 58 128 230 362 407 413 430 457 458 459 460 461
12 25 62 204 312 368 385 417 462 463 464 465 466
12 43 74 235 327 377 397 431 467 468 469 470 471
12 17 93 227 324 379 392 422 472 473 474 475 476
12 20 102 207 336 386 404 425 477 478 479 480 481
12 38 130 224 348 390 411 428 482 483 484 485 486
12 27 112 228 339 396 405 418 487 488 489 490 491
12 79 137 199 376 435 442 492 493 494 495 496 497
12 84 134 193 378 432 437 493 498 499 500 501 502
12 63 139 203 369 439 446 496 500 503 504 505 506
12 96 148 205 399 447 478 507 508 509 510 511 512
12 129 167 218 416 454 485 513 514 515 516 517 518
12 118 170 236 408 461 488 519 520 521 522 523 524
12 111 152 211 420 449 466 511 525 526 527 528 529
12 120 172 231 427 457 469 521 530 531 532 533 534
12 104 165 221 426 455 474 515 535 536 537 538 539
12 68 145 214 388 463 481 507 527 540 541 542 543
12 95 166 219 393 476 484 516 537 544 545 546 547
12 77 176 237 395 468 490 523 531 548 549 550 551
12 53 105 249 401 450 453 512 552 553 554 555 556
12 49 110 242 406 448 458 519 552 557 558 559 560
12 57 122 251 412 456 460 518 556 558 561 562 563
12 36 75 256 374 433 467 495 564 565 566 567 568
12 35 66 267 371 444 464 505 569 570 571 572 573
12 15 91 285 381 440 473 502 574 575 576 577 578
12 44 86 262 389 436 486 546 565 579 580 581 582
12 12 64 277 384 438 477 540 574 583 584 585 586
12 31 78 269 398 443 487 551 570 587 588 589 590
12 39 127 263 429 471 483 533 568 582 591 592 593
12 33 117 266 421 462 489 526 571 588 594 595 596
12 19 101 287 423 475 479 538 577 586 597 598 599
12 115 155 245 451 510 528 554 557 600 601 602 603
12 123 179 250 459 524 534 560 563 604 605 606 607
12 100 160 244 452 514 536 553 561 608 609 610 611
12 89 143 258 434 497 501 567 580 612 613 614 615
12 83 135 270 445 494 504 572 590 616 617 618 619
12 67 138 279 441 499 506 578 583 620 621 622 623
12 121 158 254 482 513 545 579 591 624 625 626 627
12 99 150 283 480 509 543 584 598 628 629 630 631
12 114 173 275 491 520 549 589 595 632 633 634 635
12 80 174 253 470 530 550 564 593 636 637 638 639
12 69 147 271 465 529 542 573 596 640 641 642 643
12 85 156 280 472 535 544 575 599 644 645 646 647
12 125 164 247 517 562 605 611 627 648 649 650 651
12 103 154 241 508 555 601 608 630 652 653 654 655
12 116 171 246 522 559 603 607 634 656 657 658 659
12 131 177 257 532 592 606 624 637 649 660 661 662
12 108 146 268 525 594 600 632 642 656 663 664 665
12 97 163 286 539 597 610 629 645 655 666 667 668
12 81 133 261 492 566 614 618 639 669 670 671 672
12 94 141 278 498 576 615 622 644 673 674 675 676
12 60 132 264 503 569 616 620 640 677 678 679 680
12 87 162 260 547 581 613 626 647 676 681 682 683
12 73 168 265 548 587 617 633 636 669 684 685 686
12 70 149 284 541 585 623 631 641 678 687 688 689
12 169 184 240 604 648 657 660 690 691 692 693 694
12 157 190 248 609 651 654 667 691 695 696 697 698
12 151 186 243 602 653 658 665 692 698 699 700 701
12 161 191 259 625 650 662 682 693 696 702 703 704
12 178 182 272 635 659 663 684 690 700 705 706 707
12 144 180 276 628 652 666 687 695 699 708 709 710
12 175 189 255 638 661 671 686 694 704 707 711 712
12 159 187 282 646 668 675 683 697 703 710 713 714
12 153 185 274 643 664 679 689 701 705 708 715 716
12 136 181 252 612 670 673 681 702 711 713 717 718
12 140 183 273 619 672 677 685 706 712 715 717 719
12 142 188 281 621 674 680 688 709 714 716 718 719
