# Generated using Miratope v0.5.0 (https://github.com/galoomba1/miratope-rs)
4OFF

# Vertices, Faces, Edges, Cells
120 2520 1200 720

# Vertices
0.809016994374945 -0.809016994374945 -0.809016994374945 0.809016994374945 
0 -1.61803398874989 0 0 
0 0 -1.61803398874989 0 
0.809016994374945 0 0.5 1.30901699437495 
-0.809016994374945 -0.809016994374945 -0.809016994374945 -0.809016994374945 
-1.30901699437495 0.5 0 -0.809016994374945 
0 -0.809016994374945 1.30901699437495 0.5 
-0.5 1.30901699437495 -0.809016994374945 0 
0 1.30901699437495 0.5 0.809016994374945 
-0.809016994374945 0.5 1.30901699437495 0 
0.809016994374945 0.809016994374945 -0.809016994374945 0.809016994374945 
-0.809016994374945 0.809016994374945 -0.809016994374945 0.809016994374945 
1.30901699437495 0.809016994374945 0.5 0 
-0.809016994374945 -0.809016994374945 -0.809016994374945 0.809016994374945 
1.30901699437495 -0.809016994374945 0.5 0 
-1.30901699437495 0.809016994374945 0.5 0 
-1.30901699437495 -0.809016994374945 0.5 0 
0 0.809016994374945 1.30901699437495 -0.5 
0 -0.809016994374945 1.30901699437495 -0.5 
-0.809016994374945 -0.809016994374945 0.809016994374945 0.809016994374945 
-0.809016994374945 -0.809016994374945 0.809016994374945 -0.809016994374945 
0 0.5 0.809016994374945 1.30901699437495 
0 0.5 0.809016994374945 -1.30901699437495 
0 0.5 -0.809016994374945 1.30901699437495 
0 0.5 -0.809016994374945 -1.30901699437495 
0.5 1.30901699437495 0.809016994374945 0 
0.5 1.30901699437495 -0.809016994374945 0 
0.809016994374945 0.809016994374945 -0.809016994374945 -0.809016994374945 
0.809016994374945 -0.809016994374945 -0.809016994374945 -0.809016994374945 
-0.809016994374945 0.809016994374945 -0.809016994374945 -0.809016994374945 
0.809016994374945 1.30901699437495 0 0.5 
0.809016994374945 -1.30901699437495 0 0.5 
-0.809016994374945 1.30901699437495 0 0.5 
-0.809016994374945 -1.30901699437495 0 0.5 
-0.809016994374945 0 0.5 1.30901699437495 
0.809016994374945 -0.809016994374945 0.809016994374945 0.809016994374945 
0.809016994374945 -0.809016994374945 0.809016994374945 -0.809016994374945 
-0.5 0 1.30901699437495 0.809016994374945 
-0.5 0 -1.30901699437495 0.809016994374945 
-0.5 0 1.30901699437495 -0.809016994374945 
-0.5 0 -1.30901699437495 -0.809016994374945 
-1.30901699437495 0.5 0 0.809016994374945 
0 0 0 1.61803398874989 
-1.61803398874989 0 0 0 
1.30901699437495 0.5 0 0.809016994374945 
-0.809016994374945 0 0.5 -1.30901699437495 
1.30901699437495 0 0.809016994374945 -0.5 
0.5 0.809016994374945 0 -1.30901699437495 
-0.809016994374945 0.809016994374945 0.809016994374945 -0.809016994374945 
0 0 0 -1.61803398874989 
0 -0.809016994374945 -1.30901699437495 0.5 
-0.809016994374945 0 -0.5 1.30901699437495 
1.30901699437495 0.5 0 -0.809016994374945 
0.5 0.809016994374945 0 1.30901699437495 
1.30901699437495 0 -0.809016994374945 0.5 
0 1.61803398874989 0 0 
1.30901699437495 -0.5 0 -0.809016994374945 
0 0.809016994374945 1.30901699437495 0.5 
0.5 -1.30901699437495 -0.809016994374945 0 
0.809016994374945 -0.5 1.30901699437495 0 
0 -1.30901699437495 0.5 0.809016994374945 
0.809016994374945 0.809016994374945 0.809016994374945 0.809016994374945 
1.61803398874989 0 0 0 
-0.5 -1.30901699437495 -0.809016994374945 0 
0.809016994374945 0 0.5 -1.30901699437495 
-1.30901699437495 -0.5 0 0.809016994374945 
-1.30901699437495 0 0.809016994374945 -0.5 
-0.5 -0.809016994374945 0 -1.30901699437495 
0 0 1.61803398874989 0 
0.809016994374945 0 -0.5 -1.30901699437495 
-0.5 1.30901699437495 0.809016994374945 0 
0 -0.809016994374945 -1.30901699437495 -0.5 
0 1.30901699437495 -0.5 -0.809016994374945 
-0.809016994374945 0.5 -1.30901699437495 0 
0 0.809016994374945 -1.30901699437495 0.5 
-0.5 -1.30901699437495 0.809016994374945 0 
0.809016994374945 0 -0.5 1.30901699437495 
-1.30901699437495 -0.5 0 -0.809016994374945 
-0.5 -0.809016994374945 0 1.30901699437495 
-1.30901699437495 0 -0.809016994374945 0.5 
-0.809016994374945 0.809016994374945 0.809016994374945 0.809016994374945 
0.5 0 1.30901699437495 0.809016994374945 
0.5 0 1.30901699437495 -0.809016994374945 
0.5 0 -1.30901699437495 0.809016994374945 
0.5 0 -1.30901699437495 -0.809016994374945 
1.30901699437495 -0.5 0 0.809016994374945 
0.809016994374945 1.30901699437495 0 -0.5 
0.809016994374945 -1.30901699437495 0 -0.5 
-0.809016994374945 1.30901699437495 0 -0.5 
-0.809016994374945 -1.30901699437495 0 -0.5 
-0.809016994374945 0 -0.5 -1.30901699437495 
0.809016994374945 0.809016994374945 0.809016994374945 -0.809016994374945 
0 -0.5 0.809016994374945 1.30901699437495 
0 -0.5 0.809016994374945 -1.30901699437495 
0 -0.5 -0.809016994374945 1.30901699437495 
0 -0.5 -0.809016994374945 -1.30901699437495 
1.30901699437495 0.809016994374945 -0.5 0 
1.30901699437495 -0.809016994374945 -0.5 0 
-1.30901699437495 0.809016994374945 -0.5 0 
-1.30901699437495 -0.809016994374945 -0.5 0 
0 0.809016994374945 -1.30901699437495 -0.5 
0.5 -1.30901699437495 0.809016994374945 0 
0.809016994374945 -0.5 -1.30901699437495 0 
0 -1.30901699437495 -0.5 -0.809016994374945 
0 1.30901699437495 0.5 -0.809016994374945 
0.5 -0.809016994374945 0 1.30901699437495 
0.809016994374945 0.5 1.30901699437495 0 
-1.30901699437495 0 -0.809016994374945 -0.5 
-0.5 0.809016994374945 0 1.30901699437495 
0 -1.30901699437495 0.5 -0.809016994374945 
0.809016994374945 0.5 -1.30901699437495 0 
-1.30901699437495 0 0.809016994374945 0.5 
-0.5 0.809016994374945 0 -1.30901699437495 
0 -1.30901699437495 -0.5 0.809016994374945 
1.30901699437495 0 0.809016994374945 0.5 
-0.809016994374945 -0.5 -1.30901699437495 0 
0 1.30901699437495 -0.5 0.809016994374945 
0.5 -0.809016994374945 0 -1.30901699437495 
1.30901699437495 0 -0.809016994374945 -0.5 
-0.809016994374945 -0.5 1.30901699437495 0 

# Faces
4 0 2 4 1
4 0 1 6 3
5 3 0 2 7 8
5 6 1 4 5 9
4 2 4 5 7
4 8 3 6 9
4 8 7 5 9
4 0 10 11 13
4 10 0 14 12
5 11 10 12 17 15
5 0 13 16 18 14
4 11 15 16 13
4 12 14 18 17
4 18 17 15 16
4 20 4 13 19
5 20 22 25 21 19
4 13 23 21 19
4 4 24 22 20
5 13 23 26 24 4
4 21 25 26 23
4 26 25 22 24
4 28 27 29 4
5 27 28 31 3 30
4 29 32 30 27
4 4 33 31 28
5 29 32 34 33 4
4 3 30 32 34
4 34 33 31 3
4 35 0 28 36
5 35 0 38 41 37
4 35 36 39 37
4 28 0 38 40
5 36 28 40 5 39
4 39 5 41 37
4 38 40 5 41
4 42 19 43 11
4 42 11 26 44
5 43 45 47 26 11
5 44 42 19 18 46
4 43 19 18 45
4 44 46 47 26
4 18 46 47 45
4 43 4 49 48
5 43 48 25 53 51
4 48 49 52 25
4 4 50 51 43
5 4 50 54 52 49
4 53 25 52 54
4 53 54 50 51
4 55 27 2 11
5 27 56 59 57 55
4 27 2 58 56
4 55 57 34 11
5 2 58 60 34 11
4 57 59 60 34
4 59 60 58 56
4 62 0 42 61
4 61 17 64 62
5 42 61 17 66 65
5 62 64 67 63 0
4 42 65 63 0
4 64 17 66 67
4 65 63 67 66
4 68 36 1 19
5 68 70 72 69 36
4 36 69 71 1
4 19 41 70 68
5 1 19 41 73 71
4 72 73 41 70
4 69 72 73 71
4 27 49 36 62
4 27 74 76 62
5 49 77 79 74 27
5 62 36 75 78 76
4 36 75 77 49
4 78 79 74 76
4 78 75 77 79
4 48 80 11 29
4 80 81 82 48
5 11 83 85 81 80
5 29 84 56 82 48
4 11 83 84 29
4 85 56 82 81
4 85 56 84 83
4 61 80 19 35
5 35 87 69 86 61
4 80 61 86 88
4 35 87 89 19
5 19 89 90 88 80
4 86 69 90 88
4 87 69 90 89
4 61 91 27 10
5 91 61 92 75 93
4 10 94 92 61
4 27 95 93 91
5 10 94 63 95 27
4 92 94 63 75
4 75 93 95 63
4 91 48 20 36
4 91 36 97 96
5 48 91 96 74 98
5 20 36 97 50 99
4 20 99 98 48
4 96 74 50 97
4 98 99 50 74
4 55 61 68 48
5 61 55 100 102 85
4 61 85 101 68
4 55 48 90 100
5 101 68 48 90 103
4 101 103 102 85
4 102 100 90 103
4 29 2 13 43
4 43 29 104 9
5 2 29 104 12 54
5 43 9 81 105 13
4 13 105 54 2
4 12 54 105 81
4 12 104 9 81
4 35 1 13 42
4 42 8 106 35
5 35 1 67 22 106
5 8 42 13 107 88
4 1 13 107 67
4 8 88 22 106
4 88 22 67 107
4 10 62 28 2
5 62 59 37 108 10
4 10 108 79 2
4 28 62 59 109
5 28 109 16 79 2
4 37 59 109 16
4 108 79 16 37
4 28 49 20 1
5 28 110 23 78 1
4 28 110 72 49
4 1 20 111 78
5 20 49 72 32 111
4 32 72 110 23
4 23 78 111 32
4 91 62 35 68
5 102 62 91 112 40
4 91 112 66 68
4 35 113 102 62
5 68 66 99 113 35
4 112 40 99 66
4 113 99 40 102
4 55 91 49 29
4 55 53 114 91
5 91 49 103 31 114
5 29 55 53 94 115
4 29 49 103 115
4 53 94 31 114
4 94 31 103 115
4 80 43 20 68
5 68 46 96 116 80
4 80 116 73 43
4 68 46 117 20
5 73 43 20 117 84
4 46 117 84 96
4 116 73 84 96
4 10 55 80 42
4 10 55 47 118
5 118 10 42 60 87
5 80 119 93 47 55
4 80 42 60 119
4 47 93 87 118
4 60 119 93 87
4 68 35 44 25
4 35 113 83 44
4 66 88 25 68
5 44 25 88 73 83
4 99 73 88 66
4 113 83 73 99
4 48 57 30 72
5 48 77 33 92 57
4 48 77 40 72
4 30 57 92 76
5 76 50 40 72 30
4 76 50 33 92
4 50 40 77 33
4 61 37 15 55
4 85 60 37 61
4 15 55 100 107
4 85 60 63 102
5 37 15 107 63 60
4 102 63 107 100
4 29 45 17 55
4 115 89 45 29
4 55 17 81 53
4 53 94 60 81
5 17 81 60 89 45
4 60 94 115 89
4 43 32 57 119
4 43 32 74 115
5 119 43 115 58 101
5 57 32 74 54 114
4 114 101 119 57
4 114 101 58 54
4 54 58 115 74
4 19 80 53 105
4 80 88 26 53
4 89 58 105 19
5 53 105 58 84 26
4 88 90 84 26
4 89 58 84 90
4 61 76 31 59
4 61 59 39 70
5 76 61 70 98 38
5 59 39 77 63 31
4 76 31 63 38
4 39 77 98 70
4 98 77 63 38
4 42 116 70 37
4 42 37 75 113
5 42 113 71 100 116
5 75 37 70 112 67
4 116 70 112 100
4 75 113 71 67
4 112 67 71 100
5 116 21 35 97 110
4 21 111 75 35
4 97 35 75 103
4 116 21 111 98
4 116 98 40 110
4 97 110 40 103
5 111 75 103 40 98
4 68 21 32 48
4 48 32 73 90
4 21 68 101 105
5 21 32 73 50 105
4 103 50 105 101
4 90 73 50 103
4 11 107 66 80
4 81 18 66 80
4 11 83 71 107
4 85 87 18 81
4 85 87 71 83
5 66 107 71 87 18
4 15 108 74 29
5 15 119 109 95 29
4 74 29 95 102
4 108 15 119 92
5 31 92 108 74 102
4 119 109 31 92
4 31 109 95 102
4 10 3 106 86
4 3 78 38 10
5 112 86 10 38 107
5 106 39 16 78 3
4 106 86 112 39
4 38 78 16 107
4 39 112 107 16
4 44 0 78 21
5 44 0 71 24 86
4 0 78 99 71
4 21 44 86 70
5 78 21 70 5 99
4 86 70 5 24
4 5 24 71 99
4 106 6 31 62
5 106 62 110 7 70
4 31 50 110 62
4 106 6 111 70
4 7 79 111 70
5 6 111 79 50 31
4 7 79 50 110
4 20 82 104 5
5 114 82 20 33 105
4 5 20 33 79
4 114 105 23 30
4 114 30 104 82
5 104 5 79 23 30
4 23 79 33 105
4 1 19 81 14
4 19 41 8 81
4 71 118 14 1
5 8 26 118 14 81
4 8 41 73 26
4 73 26 118 71
4 27 10 8 104
4 8 10 94 34
4 104 27 95 45
5 34 16 45 104 8
4 94 63 16 34
4 63 16 45 95
4 4 79 15 45
4 4 58 94 79
5 45 82 14 58 4
4 57 3 14 82
5 3 57 15 79 94
4 14 3 94 58
4 82 57 15 45
4 11 2 24 88
4 34 11 88 9
4 58 2 24 117
4 60 18 9 34
5 9 88 24 117 18
4 58 117 18 60
4 43 34 6 20
4 20 6 14 117
4 73 23 34 43
5 54 23 34 6 14
4 84 54 14 117
4 73 23 54 84
5 49 109 6 57 104
4 104 7 40 49
4 109 49 40 63
4 108 7 104 57
4 108 78 6 57
5 7 40 63 78 108
4 78 6 109 63
4 20 36 106 9
4 36 106 44 97
4 20 9 41 99
5 9 106 44 23 41
4 97 44 23 50
4 99 41 23 50
4 10 7 41 42
4 118 24 7 10
4 41 42 60 16
4 118 87 67 24
5 41 16 67 24 7
4 60 87 67 16
4 80 92 114 25
4 25 72 98 80
5 98 80 92 113 115
5 114 25 72 84 97
4 114 97 113 92
4 113 115 84 97
4 72 98 115 84
4 91 59 119 48
4 91 59 85 96
4 48 119 65 98
4 96 85 94 74
5 119 59 85 94 65
4 74 94 65 98
4 42 61 96 83
4 61 17 47 96
4 65 115 83 42
5 83 96 47 90 115
4 17 66 90 47
4 65 66 90 115
4 17 80 92 59
4 98 112 17 80
5 87 59 17 112 95
4 113 87 59 92
4 98 112 95 115
4 113 87 95 115
5 68 114 76 51 111
4 68 93 56 114
4 68 93 77 111
4 114 56 102 76
4 51 76 102 115
5 56 102 115 77 93
4 111 77 115 51
5 19 101 97 83 51
4 19 66 98 51
4 101 93 66 19
4 101 93 69 97
4 97 83 100 69
4 51 98 100 83
5 100 98 66 93 69
4 61 91 72 116
4 116 61 92 51
4 93 90 72 91
5 72 116 51 99 90
4 51 92 75 99
4 93 75 99 90
4 96 55 108 76
4 55 96 69 112
5 55 108 65 77 112
5 96 69 103 113 76
4 76 108 65 113
4 65 77 103 113
4 112 69 103 77
4 80 68 75 65
4 80 116 38 65
4 46 87 75 68
4 46 87 102 96
4 116 96 102 38
5 65 38 102 87 75
4 43 89 93 48
4 25 48 93 46
4 43 51 113 89
4 25 46 85 53
4 51 113 85 53
5 46 85 113 89 93
4 11 65 92 53
4 11 100 96 53
5 65 11 100 95 89
5 96 53 92 101 56
4 96 56 95 100
4 101 89 65 92
4 101 89 95 56
4 55 80 51 74
4 119 33 51 80
4 55 47 84 74
4 93 119 33 103
5 51 74 84 103 33
4 47 84 103 93
4 3 62 91 57
4 15 112 91 57
4 3 62 102 94
4 94 102 40 79
4 79 40 112 15
4 35 46 118 0
4 35 37 17 46
4 118 0 38 100
5 46 118 100 88 17
4 37 41 88 17
4 88 41 38 100
4 114 68 22 52
4 111 68 22 5
4 76 110 52 114
4 51 76 110 73
5 52 22 5 73 110
4 51 111 5 73
4 5 49 91 70
4 21 114 91 70
4 49 5 99 103
4 31 78 21 114
4 31 78 99 103
4 19 99 38 42
4 18 19 99 67
4 42 38 110 44
4 44 46 69 110
4 46 69 67 18
5 69 67 99 38 110
5 27 64 39 15 7
4 7 38 102 27
4 27 102 87 64
4 7 38 65 15
4 65 15 39 75
4 87 64 39 75
4 29 47 117 4
4 32 29 47 25
4 33 4 117 101
4 34 81 25 32
5 25 47 117 101 81
4 81 34 33 101
4 43 11 94 33
4 11 26 54 94
4 45 109 33 43
4 54 26 47 56
5 94 54 56 109 33
4 56 47 45 109
4 13 83 53 34
4 34 119 89 13
5 83 13 89 117 118
5 12 82 119 34 53
4 53 83 118 12
4 82 117 118 12
4 119 82 117 89
4 55 12 3 108
4 12 55 112 64
5 12 64 109 60 3
4 108 65 60 3
4 112 64 109 77
4 77 109 60 65
5 52 30 21 6 36
4 52 84 103 36
4 36 103 33 6
4 21 51 74 30
4 52 84 74 30
4 6 33 51 21
4 13 41 116 83
4 13 89 66 41
4 116 83 118 86
5 41 116 86 22 66
4 117 22 86 118
4 22 117 89 66
4 43 90 71 13
4 105 97 71 13
4 43 90 22 9
4 9 22 46 81
4 46 81 105 97
5 46 97 71 90 22
4 29 79 111 48
4 111 48 82 6
4 79 29 84 50
4 31 56 82 6
4 56 31 50 84
4 94 2 118 85
5 2 107 45 64 118
4 2 94 65 107
4 85 118 64 59
4 59 119 45 64
4 119 45 107 65
4 42 85 58 13
4 13 58 95 107
4 8 42 85 12
4 8 12 47 88
5 12 47 95 58 85
4 107 95 47 88
4 49 82 12 27
4 53 74 27 12
4 49 82 119 77
4 34 79 74 53
4 34 79 77 119
4 51 32 9 19
4 19 101 82 9
5 32 26 52 82 9
4 52 97 83 26
4 97 52 82 101
4 32 51 83 26
4 78 35 61 108
4 61 108 7 86
4 87 63 78 35
4 86 7 40 69
4 87 63 40 69
4 86 62 36 22
4 22 36 75 66
4 76 116 86 62
4 78 41 116 76
4 75 66 41 78
5 91 39 111 108 30
4 110 30 91 69
4 69 91 39 67
4 110 30 108 38
4 99 111 108 38
4 99 111 39 67
5 105 44 52 117 1
4 1 99 51 105
4 1 99 90 117
4 72 52 44 116
4 116 51 105 44
4 52 72 90 117
4 11 65 37 8
4 11 100 86 8
5 86 64 18 37 8
4 100 86 64 95
4 65 37 18 89
4 95 64 18 89
4 54 30 91 56
4 56 91 39 109
4 108 94 54 30
4 111 33 94 108
4 39 109 33 111
5 28 14 106 104 24
4 14 60 63 28
4 28 63 107 24
4 37 106 14 60
4 106 37 15 104
4 15 104 24 107
4 0 110 73 13
4 0 110 52 14
4 16 5 73 13
4 18 22 52 14
4 5 16 18 22
4 4 16 39 49
4 78 50 4 16
4 39 49 52 106
4 52 106 3 54
4 3 54 50 78
4 14 105 50 28
4 73 24 28 50
4 105 14 106 21
4 32 104 106 21
4 104 32 73 24
4 23 2 118 44
4 41 107 2 23
4 64 106 44 118
4 45 9 106 64
4 45 9 41 107
4 54 27 7 23
4 14 64 27 54
4 64 14 6 39
4 34 15 39 6
4 23 7 15 34
4 13 60 109 4
4 13 60 3 23
4 109 4 24 64
4 23 3 12 26
4 12 26 24 64
4 34 105 1 16
4 117 45 16 1
4 8 44 52 104
4 44 8 34 105
4 117 45 104 52
4 26 2 28 52
4 82 109 28 52
4 79 32 26 2
4 79 32 9 16
4 82 109 16 9
4 0 23 30 62
4 0 23 79 63
4 62 30 104 64
4 67 5 104 64
4 67 5 79 63
4 24 52 36 67
4 6 16 67 36
4 7 30 21 41
4 24 52 30 7
4 16 6 21 41
4 64 28 1 18
4 28 64 86 110
4 78 37 18 1
4 110 86 8 23
4 78 37 8 23
4 82 47 90 20
4 33 115 90 20
4 96 114 105 83
4 114 96 47 82
4 33 115 83 105
4 57 12 47 48
4 48 47 95 77
4 85 92 57 12
4 85 92 33 58
4 58 33 77 95
4 17 119 43 88
4 115 100 88 43
4 119 17 46 101
4 101 46 118 58
4 115 100 118 58
4 10 85 46 86
4 113 38 10 85
4 93 112 86 46
4 112 93 89 107
4 89 107 38 113
4 55 98 40 27
4 27 40 103 56
4 111 57 55 98
4 57 111 75 59
4 56 103 75 59
4 113 19 20 103
4 113 19 21 76
4 20 103 69 22
4 76 21 25 96
4 22 69 96 25
4 76 97 46 61
4 61 46 22 70
4 38 71 97 76
4 90 98 70 22
4 38 71 90 98
4 68 92 31 36
4 36 31 102 69
4 70 108 92 68
4 70 108 74 72
4 102 69 72 74
4 100 10 62 69
4 108 98 100 10
4 62 69 93 59
4 59 93 66 37
4 37 66 98 108
4 25 116 42 81
4 81 42 113 101
4 25 116 100 47
4 117 71 113 101
4 71 117 47 100
4 11 115 102 10
4 12 56 102 10
4 115 11 15 77
4 12 56 93 17
4 93 17 15 77
4 20 101 56 49
4 101 20 111 92
4 49 56 96 72
4 53 32 72 96
4 32 53 92 111
4 29 77 63 2
4 77 29 104 39
4 31 54 2 63
4 12 59 31 54
4 12 59 39 104
4 44 81 60 0
4 71 89 60 0
4 17 86 44 81
4 45 24 86 17
4 89 71 24 45
4 97 1 4 84
4 84 4 5 72
4 1 97 114 6
4 25 9 6 114
4 9 25 72 5
4 35 76 50 1
4 106 30 76 35
4 40 67 1 50
4 30 106 22 72
4 67 40 72 22
4 62 87 18 106
4 110 71 87 62
4 18 106 70 66
4 66 70 7 107
4 107 7 110 71
4 112 27 28 67
4 30 70 112 27
4 75 31 28 67
4 37 3 30 70
4 31 75 37 3
4 88 45 4 73
4 4 73 83 58
4 44 14 82 25
4 58 83 44 14
4 25 82 45 88
4 26 104 49 84
4 58 109 49 84
4 104 26 53 57
4 105 6 57 53
4 109 58 105 6
4 8 15 29 26
4 118 95 29 26
4 8 15 119 81
4 119 81 14 109
4 118 95 109 14
4 95 2 0 87
4 59 3 0 87
4 7 112 95 2
4 8 17 59 3
4 7 112 17 8
4 28 54 114 36
4 57 39 36 114
4 74 40 28 54
4 32 5 39 57
4 40 74 32 5
4 18 35 21 9
4 117 97 35 18
4 116 88 9 21
4 116 88 24 110
4 24 110 97 117
5 1 18 106 44 0
4 0 44 26 2
4 4 45 18 1
5 4 45 104 26 2
4 44 106 104 26
4 45 18 106 104
5 10 0 87 64 86
4 10 86 88 11
4 89 13 0 87
5 11 13 89 45 88
4 86 64 45 88
4 87 89 45 64
4 81 19 20 82
5 19 13 83 44 81
5 52 82 20 4 84
4 84 4 13 83
4 52 82 81 44
4 84 83 44 52
4 28 14 12 27
5 29 27 12 57 15
5 4 16 6 14 28
4 16 4 29 15
4 6 14 12 57
4 15 57 6 16
4 21 35 0 23
5 35 36 22 70 21
5 7 23 0 28 24
4 36 22 24 28
4 70 21 23 7
4 70 22 24 7
5 11 42 85 118 100
4 43 90 100 11
4 19 101 85 42
5 19 43 90 117 101
4 101 117 118 85
4 100 90 117 118
4 48 57 34 43
5 48 57 114 56 49
5 4 58 105 34 43
4 4 58 56 49
4 34 105 114 57
4 56 114 105 58
4 17 55 27 64
5 27 2 63 109 64
5 55 11 65 119 17
4 63 2 11 65
4 17 119 109 64
4 109 63 65 119
5 61 70 112 69 62
4 61 70 41 42
4 71 0 62 69
5 0 71 107 41 42
4 41 107 112 70
4 107 71 69 112
4 25 68 36 52
5 50 1 36 52 110
5 68 25 116 51 19
4 50 1 19 51
4 52 110 116 25
4 51 116 110 50
5 62 27 7 108 3
4 49 5 7 27
4 3 62 36 6
5 111 5 49 36 6
4 3 108 111 6
4 7 108 111 5
5 48 93 101 92 80
4 11 94 92 80
4 93 48 29 95
5 58 95 29 11 94
4 94 58 101 92
4 101 93 95 58
4 61 96 97 35
5 80 61 96 100 98
5 35 97 71 99 19
4 80 98 99 19
4 100 96 97 71
4 100 98 99 71
4 61 37 39 91
5 61 10 38 65 37
5 40 27 91 39 77
4 38 10 27 40
4 37 65 77 39
4 38 65 77 40
5 30 91 36 31 76
4 32 48 91 30
4 36 31 33 20
5 48 32 51 33 20
4 30 76 51 32
4 76 31 33 51
4 61 76 74 55
5 75 68 61 76 113
5 48 77 115 74 55
4 68 75 77 48
4 74 115 113 76
4 77 115 113 75
5 43 29 47 82 119
4 2 118 47 29
4 43 119 60 13
5 13 60 14 118 2
4 118 14 82 47
4 119 82 14 60
5 42 35 46 86 116
4 117 1 35 46
4 73 13 42 116
5 117 1 13 73 24
4 86 46 117 24
4 116 86 24 73
4 10 8 106 62
5 10 2 107 15 8
5 39 67 28 62 106
4 2 107 67 28
4 39 106 8 15
4 107 15 39 67
4 28 54 105 1
5 49 104 30 54 28
5 20 9 21 105 1
4 104 49 20 9
4 21 105 54 30
4 30 104 9 21
4 110 62 91 72
5 68 111 98 72 91
5 62 35 78 38 110
4 35 78 111 68
4 111 98 38 78
4 98 72 110 38
5 108 55 91 59 92
4 109 49 91 59
4 79 29 55 108
5 49 109 33 79 29
4 59 92 33 109
4 33 79 108 92
4 80 53 114 68
5 115 43 80 53 83
5 97 114 68 20 103
4 20 103 115 43
4 114 53 83 97
4 103 115 83 97
5 55 112 95 102 10
4 113 42 10 102
4 112 55 80 66
5 42 113 89 66 80
4 66 89 95 112
4 102 95 89 113
4 22 20 101 46
4 99 113 101 20
5 73 99 20 22 72
4 96 72 22 46
5 113 101 46 96 83
4 72 96 83 73
4 114 91 27 54
4 91 39 6 114
4 54 27 40 50
5 50 33 6 114 54
4 33 6 39 77
4 62 86 17 59
4 100 86 62 102
5 75 59 62 102 63
5 107 66 17 86 100
4 17 59 75 66
4 75 66 107 63
5 10 94 60 59 12
4 10 12 47 100
4 115 94 10 100
4 47 12 59 93
4 60 89 93 59
5 93 89 115 100 47
4 48 82 12 55
4 77 48 82 109
4 54 12 55 74
5 12 54 58 109 82
4 115 77 109 58
4 48 119 81 25
5 25 96 84 90 48
4 90 48 119 89
4 81 25 96 85
5 85 58 89 119 81
4 96 85 58 84
4 91 36 67 112
4 91 112 7 30
4 63 31 36 67
4 30 7 38 76
5 63 67 112 7 38
4 61 68 22 86
4 86 110 76 61
4 67 22 68 75
5 67 71 110 86 22
4 113 71 110 76
4 68 20 5 70
4 40 5 20 103
4 70 30 114 68
4 114 97 110 30
5 40 110 30 70 5
4 72 25 82 49
4 49 103 101 82
5 49 72 74 50 103
5 53 105 101 82 25
4 53 25 72 74
4 53 74 50 105
4 85 83 116 61
5 17 93 87 85 61
4 61 116 88 17
5 90 71 83 116 88
4 90 88 17 93
4 87 93 90 71
4 55 10 3 57
4 31 102 10 3
4 112 55 57 39
5 31 109 39 57 3
4 95 112 39 109
4 64 62 35 18
4 78 16 18 35
4 64 62 110 24
5 18 16 107 24 64
4 107 38 110 24
4 35 106 9 19
4 35 106 52 97
4 5 9 19 99
5 106 9 5 24 52
4 71 24 52 97
4 39 16 1 36
4 39 104 52 36
4 16 79 50 1
4 110 52 104 7
5 16 79 7 104 39
4 52 26 29 49
4 26 29 79 23
4 49 52 14 109
5 23 26 52 14 105
4 105 33 109 14
5 43 73 26 25 9
4 43 9 18 89
4 73 43 89 71
4 18 46 25 9
4 25 46 118 26
5 18 46 118 71 89
4 0 118 12 3
5 0 3 37 16 63
4 0 118 95 63
4 17 37 3 12
5 12 17 45 95 118
4 37 17 45 16
4 29 104 8 11
4 8 11 94 3
4 104 64 95 29
5 3 14 64 104 8
4 14 64 95 58
4 8 42 83 26
5 8 17 18 60 42
4 42 60 58 83
4 47 26 8 17
4 17 18 117 47
5 26 47 117 58 83
4 32 9 45 29
5 32 53 54 84 29
4 84 117 45 29
4 53 81 14 54
4 81 53 32 9
5 14 81 9 45 117
4 27 30 23 2
4 64 27 30 106
4 23 78 63 2
5 6 78 23 30 106
4 6 106 64 109
4 4 117 22 5
5 5 32 23 50 4
4 50 97 117 4
4 44 23 32 25
5 22 117 97 44 25
4 25 32 5 22
4 37 35 44 8
4 35 44 118 87
5 37 66 67 87 35
5 24 88 8 44 118
4 8 37 66 88
4 66 67 24 88
4 101 56 91 68
4 56 91 72 84
4 101 33 111 68
5 84 56 101 33 115
4 98 115 33 111
5 56 31 94 74 27
4 27 112 93 56
4 74 27 112 98
4 56 93 75 31
4 94 65 75 31
5 93 112 98 65 75
4 85 46 68 92
5 68 46 69 90 66
4 66 65 92 68
4 102 69 46 85
5 115 102 85 92 65
4 115 90 69 102
4 100 55 91 69
4 59 87 69 91
4 55 108 38 100
4 92 113 38 108
5 87 69 100 38 113
4 98 48 49 40
4 48 57 108 98
4 40 102 56 49
4 114 76 108 57
5 76 102 40 98 108
4 80 116 72 48
4 92 80 116 76
4 69 93 48 72
5 72 116 76 97 69
4 101 92 76 97
4 69 36 114 96
4 36 114 92 75
5 69 40 99 75 36
5 74 51 92 114 96
4 96 74 40 69
4 40 74 51 99
4 61 62 31 92
4 61 92 111 70
4 103 69 62 31
4 112 77 111 70
5 31 103 77 111 92
4 91 70 116 96
5 102 96 91 93 103
4 93 91 70 66
5 66 70 116 38 99
4 66 99 103 93
4 102 103 99 38
5 53 85 56 47 55
4 51 98 55 53
4 47 55 98 90
4 56 103 113 85
4 47 90 103 56
5 98 90 103 113 51
4 80 61 59 119
4 56 96 61 59
4 80 98 77 119
5 56 95 77 119 59
4 98 77 95 100
4 91 96 53 57
4 93 91 57 119
5 57 53 94 33 119
4 102 94 53 96
4 103 33 94 102
4 28 64 59 31
5 79 40 28 31 78
4 40 112 64 28
4 59 37 78 31
5 37 15 112 64 59
4 79 15 37 78
5 19 41 88 22 18
4 87 18 19 113
4 41 19 113 38
4 100 88 22 69
4 87 18 22 69
4 36 49 84 97
4 36 6 105 97
4 73 84 49 5
4 111 51 105 6
5 97 84 73 51 105
4 31 28 52 114
4 40 72 52 28
5 32 72 52 114 21
4 32 79 78 21
4 72 32 79 40
4 44 21 68 46
4 66 68 21 41
5 73 41 21 44 110
4 90 73 41 66
4 90 69 110 73
4 0 78 108 10
4 86 10 108 70
4 75 87 0 78
4 39 64 86 70
5 75 39 70 108 78
5 11 34 81 12 26
4 34 33 115 11
4 84 26 11 115
4 56 12 81 101
4 84 56 12 26
4 55 53 34 15
4 47 55 15 45
4 60 85 53 34
4 85 56 109 60
5 45 15 34 60 109
4 45 43 80 17
4 53 12 17 80
4 43 45 95 115
4 115 95 118 83
4 95 27 62 87
4 27 7 107 95
4 3 60 87 62
4 108 65 107 7
5 60 65 107 95 87
4 20 111 79 4
4 20 111 57 82
4 79 4 84 74
4 57 82 52 30
5 74 30 57 111 79
4 42 80 25 44
4 22 66 80 25
4 44 42 113 97
4 97 117 89 113
5 81 46 47 88 80
4 81 80 51 105
4 88 80 51 73
4 46 97 84 47
4 73 84 47 88
4 56 82 104 27
4 74 32 104 27
5 34 6 82 104 32
4 34 94 74 32
4 94 31 6 34
4 15 37 42 11
4 15 112 100 11
4 37 42 85 59
4 112 64 118 100
4 80 81 60 65
4 80 65 107 88
4 60 81 46 87
4 46 87 95 47
5 2 79 34 3 54
4 56 54 2 95
4 77 79 2 95
4 56 59 3 54
4 3 59 119 34
4 20 48 47 117
4 47 48 32 26
4 20 117 58 33
4 33 51 83 58
4 36 106 86 69
4 75 37 106 36
5 41 37 106 86 7
4 41 37 75 99
4 99 41 7 40
4 76 97 1 78
4 1 97 69 67
5 5 67 1 78 41
4 5 72 116 41
4 67 69 72 5
4 62 76 50 28
4 50 28 67 99
4 62 106 21 76
4 39 111 21 106
5 50 99 111 21 76
4 19 43 32 21
4 19 101 114 21
4 32 72 90 43
4 114 52 117 101
4 10 61 46 118
4 18 37 61 46
4 10 38 71 118
4 65 89 71 38
4 49 28 63 77
4 63 94 54 28
4 77 15 104 49
4 104 15 108 30
5 63 94 108 15 77
4 2 13 41 7
4 37 60 13 41
4 2 118 86 7
4 118 86 106 14
4 19 18 14 105
4 105 19 41 23
4 88 22 52 26
4 26 23 41 88
4 2 54 52 24
4 24 2 79 5
4 3 106 9 34
4 5 79 34 9
4 1 6 34 13
4 34 32 73 13
4 1 117 82 6
4 104 24 117 82
4 14 81 42 0
4 0 71 117 14
4 9 41 42 81
4 45 107 71 117
4 28 109 60 0
4 34 23 0 60
4 109 45 24 28
4 15 7 24 45
4 11 34 16 107
4 24 107 11 26
4 81 18 64 12
4 18 16 34 81
4 24 4 43 88
4 4 24 118 58
4 8 88 43 34
4 105 44 118 58
5 16 9 8 23 13
4 54 23 13 58
4 13 58 109 16
4 12 8 23 54
4 9 82 12 8
4 78 3 14 1
4 67 1 14 64
4 3 8 41 78
4 5 41 8 104
4 4 73 110 28
4 110 44 14 28
4 41 16 4 73
4 44 14 6 21
4 13 23 110 71
4 16 67 71 13
4 22 9 8 86
4 67 16 9 22
4 29 43 51 74
4 74 29 47 96
4 43 51 92 119
4 114 92 119 82
4 29 115 102 27
4 85 102 27 12
4 29 115 65 15
4 57 92 65 15
4 55 96 83 11
4 83 113 65 11
4 96 55 17 46
4 119 65 113 101
4 42 35 75 65
4 93 46 35 75
4 42 116 98 65
4 112 98 116 86
4 57 30 62 59
4 74 102 62 30
4 63 79 111 75
4 79 63 102 74
4 25 48 111 21
4 90 48 111 99
4 50 84 96 76
4 84 50 99 90
4 35 113 103 36
4 113 35 21 51
4 90 103 36 22
4 98 51 21 70
4 70 72 49 39
4 103 49 39 75
4 108 74 50 78
4 103 75 78 50
4 35 76 108 37
4 87 102 76 35
4 98 66 67 40
4 40 67 87 102
4 19 89 93 68
4 115 89 19 51
4 25 47 93 68
4 51 116 100 115
4 85 94 108 61
4 15 108 61 17
4 94 85 87 63
4 87 63 77 93
4 32 111 77 29
4 29 77 103 84
4 92 53 54 31
4 103 84 54 31
4 12 10 7 104
4 94 79 7 10
4 59 60 16 39
4 60 16 79 94
4 19 66 107 13
4 66 19 81 17
4 13 83 100 107
4 44 83 100 86
4 43 9 6 33
4 73 50 33 43
4 114 25 26 54
4 50 73 26 54
4 22 20 6 106
4 20 99 78 6
4 73 23 30 72
4 99 78 23 73
4 1 99 38 0
4 0 44 116 38
4 99 66 18 1
4 106 70 116 44
4 0 110 30 3
4 40 63 0 110
4 16 5 70 37
4 16 5 40 63
4 11 53 105 13
4 53 11 88 25
4 105 101 89 13
4 45 89 101 82
4 2 94 33 4
4 33 4 45 119
4 94 2 26 53
4 104 57 119 45
4 58 85 10 2
4 81 8 10 85
4 58 89 107 2
4 119 15 107 89
4 8 42 38 7
4 63 60 42 38
4 112 17 18 67
4 60 63 67 18
4 5 4 109 39
4 4 109 31 50
4 32 57 3 23
4 3 23 50 31
4 1 20 90 71
4 9 88 90 20
4 71 1 105 83
4 21 116 83 105
4 2 4 49 27
5 27 49 39 57 30
5 2 23 34 16 4
4 57 34 23 30
4 57 39 16 34
4 13 4 29 11
5 81 60 13 11 8
5 29 4 109 82 104
4 82 81 8 104
4 82 109 60 81
4 20 36 28 4
5 28 110 30 106 36
5 4 73 32 9 20
4 30 106 9 32
4 30 110 73 32
4 29 48 91 27
5 48 111 92 114 91
5 27 54 94 79 29
4 54 94 92 114
4 79 94 92 111
4 10 27 28 0
5 10 108 15 112 27
5 0 78 16 67 28
4 15 108 78 16
4 15 112 67 16
4 43 4 1 19
5 43 88 25 81 19
5 14 1 4 24 52
4 81 25 52 14
4 25 52 24 88
4 68 48 49 36
5 68 36 97 76 21
5 49 84 74 32 48
4 74 76 21 32
4 76 97 84 74
4 43 11 55 48
5 48 82 101 33 43
5 94 11 55 12 85
4 85 12 82 101
4 101 33 94 85
4 0 42 11 2
5 0 87 18 37 42
5 11 2 95 45 15
4 37 18 45 15
4 18 45 95 87
4 1 0 62 36
5 38 0 62 86 7
5 5 22 36 1 99
4 7 86 22 5
4 7 38 99 5
4 61 55 27 62
5 61 92 65 98 55
5 31 62 27 40 63
4 63 31 92 65
4 98 65 63 40
4 80 19 20 48
5 48 47 96 53 80
5 19 105 97 117 20
4 105 97 96 53
4 96 97 117 47
4 0 13 19 35
5 35 46 22 66 19
5 13 0 118 24 107
4 22 46 118 24
4 22 66 107 24
4 11 80 61 10
5 61 59 87 102 10
5 80 11 115 89 119
4 119 89 87 59
4 89 115 102 87
4 35 61 91 36
5 116 61 35 113 38
5 40 103 36 91 72
4 38 116 72 40
4 40 38 113 103
4 42 19 68 61
5 61 68 93 69 96
5 42 83 71 89 19
4 71 69 96 83
4 69 71 89 93
4 43 20 49 29
5 29 26 53 34 43
5 52 49 20 6 114
4 114 52 26 53
4 53 34 6 114
4 2 28 1 13
5 7 2 28 64 104
5 9 41 13 1 18
4 9 18 64 104
4 9 41 7 104
4 2 29 55 10
5 60 3 10 2 63
5 55 29 77 119 57
4 60 3 57 119
4 119 77 63 60
4 62 28 49 91
5 62 76 108 70 91
5 28 50 79 5 49
4 108 76 50 79
4 79 5 70 108
4 10 42 35 62
5 107 65 42 10 100
5 67 69 62 35 75
4 107 65 75 67
4 107 100 69 67
4 91 55 80 68
5 74 55 91 56 102
5 68 101 113 51 80
4 102 113 101 56
4 102 113 51 74
4 1 20 68 35
5 35 1 71 110 44
5 20 90 72 25 68
4 44 110 72 25
4 72 110 71 90
4 43 80 42 13
5 42 85 46 17 80
5 43 13 58 117 45
4 46 85 58 117
4 45 117 46 17
4 19 21 106 18
5 116 21 19 99 73
4 116 86 106 21
5 86 106 18 67 24
4 24 73 99 67
4 61 108 111 68
4 74 96 61 108
5 77 111 108 74 40
4 40 69 93 77
4 12 81 42 10
4 42 81 119 65
5 45 47 12 81 119
4 45 107 100 47
4 25 80 11 26
4 119 82 25 80
5 26 84 117 82 25
4 84 115 89 117
4 68 92 33 20
4 25 53 92 68
5 92 53 74 115 33
4 90 115 74 72
4 51 21 9 43
5 51 83 84 90 43
5 52 44 21 9 22
4 44 83 51 21
4 84 52 22 90
4 17 37 108 55
5 55 100 95 93 17
5 75 37 108 38 63
4 75 37 17 93
4 63 95 100 38
5 17 8 10 118 64
4 38 41 8 10
4 17 8 41 66
4 67 71 118 64
5 38 71 67 66 41
5 86 112 66 37 61
4 61 76 78 37
4 112 86 110 40
5 78 99 40 110 76
4 99 78 37 66
4 111 20 22 70
5 50 51 111 20 103
4 116 51 111 70
5 110 116 70 22 69
4 103 69 110 50
4 9 19 42 8
4 19 9 45 89
5 9 45 24 26 8
4 83 26 24 71
4 48 77 65 80
4 94 65 80 53
4 102 96 47 95
5 102 94 65 77 95
4 7 8 12 27
5 27 95 109 59 12
4 12 59 37 8
5 8 37 16 107 7
4 16 107 95 109
4 110 62 3 23
5 64 39 37 3 62
4 37 3 23 41
5 5 41 23 110 24
4 5 39 64 24
4 30 91 59 3
5 112 77 75 59 91
5 79 7 30 3 78
4 75 78 3 59
4 77 79 7 112
4 36 6 57 91
4 32 57 91 72
5 33 6 57 32 79
4 40 79 33 103
4 13 105 6 16
5 44 105 13 73 26
4 106 44 105 6
5 6 16 5 104 106
4 104 26 73 5
4 54 2 11 53
4 11 53 57 15
5 82 57 53 54 56
4 82 45 95 56
4 119 48 49 109
4 48 32 34 119
5 119 34 94 58 109
4 84 74 94 58
4 23 13 43 32
4 43 45 104 32
5 23 54 52 104 32
4 54 52 117 58
4 4 33 111 5
5 105 33 4 84 54
5 72 5 111 21 30
4 54 30 72 84
4 21 105 33 111
4 91 39 15 55
4 79 15 55 74
4 102 63 109 56
5 63 79 15 39 109
5 1 50 23 21 6
4 6 39 67 1
4 70 39 6 21
5 39 70 7 40 67
4 50 40 7 23
4 3 34 13 0
4 107 15 34 13
5 104 15 34 3 12
4 118 12 104 24
4 51 19 35 76
4 96 76 35 46
5 76 96 72 98 51
4 98 66 22 72
4 61 46 47 55
4 92 61 46 101
5 47 90 89 101 46
4 98 90 89 65
4 81 44 116 80
5 80 66 90 100 116
5 81 44 118 117 18
4 100 118 44 116
4 66 90 117 18
5 83 118 47 88 11
4 66 65 11 88
4 83 118 87 113
4 47 88 66 93
5 87 113 65 66 93
4 80 92 75 66
4 102 76 116 100
5 103 75 92 76 102
4 103 90 66 75
5 44 86 88 41 42
4 113 42 41 99
4 86 44 97 69
5 90 99 113 97 69
4 99 90 88 41
4 68 46 86 70
5 68 75 99 98 70
5 71 100 86 46 87
4 70 98 100 86
4 87 75 99 71
4 38 42 80 98
4 102 85 42 38
4 112 69 46 17
5 38 98 112 69 102
4 17 61 35 18
4 113 89 18 35
4 107 88 116 38
5 18 89 107 88 17
4 88 80 68 22
4 68 22 117 101
5 73 88 22 117 71
4 71 73 51 113
4 43 115 113 19
4 85 81 19 113
4 88 100 96 25
5 96 85 113 115 100
4 48 98 116 25
5 98 115 103 93 48
5 25 116 83 97 46
4 93 103 97 46
4 116 83 115 98
4 27 56 85 10
4 10 85 92 108
5 85 92 119 93 56
4 119 15 112 93
4 44 14 60 42
4 86 64 14 44
5 45 64 14 60 16
4 41 16 45 88
4 62 30 21 35
4 72 30 62 69
4 111 75 67 5
5 36 31 78 111 39
4 39 36 69 112
4 102 38 78 31
4 98 112 39 111
4 35 37 16 1
4 1 16 107 71
4 110 7 8 44
4 11 55 112 107
4 63 107 11 94
4 87 64 12 85
5 107 63 87 64 112
4 72 48 43 73
4 82 52 72 48
5 73 50 97 52 72
4 97 50 33 101
4 115 29 32 51
5 56 47 29 115 58
5 25 114 105 51 32
4 114 56 47 25
4 115 51 105 58
4 20 101 58 4
4 9 81 101 20
5 53 81 101 58 83
4 73 32 53 83
4 17 47 29 15
4 47 56 59 17
5 59 17 15 65 60
4 58 115 65 60
4 114 68 75 31
5 74 30 114 31 50
4 98 74 30 70
4 50 31 75 99
5 0 23 8 106 14
4 73 23 0 71
4 117 22 106 14
4 73 88 8 23
4 41 19 20 5
4 20 5 24 117
4 23 105 97 110
5 33 77 49 56 31
4 77 98 72 49
4 31 56 96 76
4 77 98 51 33
4 43 89 95 29
4 60 89 43 34
4 53 85 118 26
5 85 118 95 89 60
4 34 11 83 105
5 9 82 14 105 34
4 14 105 83 118
4 88 9 82 47
4 29 84 96 55
4 57 55 96 114
5 84 103 101 114 96
4 101 119 77 103
4 36 114 105 1
4 22 36 114 25
4 99 51 32 5
4 62 59 60 0
4 38 65 60 0
4 15 17 86 7
5 41 78 35 106 70
4 35 87 64 106
4 70 106 64 112
4 107 41 78 63
4 61 10 7 70
4 40 7 10 102
4 67 39 59 87
4 97 50 78 35
4 72 70 106 52
4 73 50 78 41
5 12 26 2 58 14
4 107 2 26 88
4 17 88 26 12
4 14 58 89 18
4 57 48 93 59
5 57 108 94 31 59
4 103 93 59 31
4 94 115 98 108
4 27 29 45 64
4 79 29 45 16
4 14 60 94 54
4 1 78 79 4
4 4 79 7 24
4 30 52 14 3
5 6 109 28 54 3
4 40 28 109 77
4 74 108 3 54
4 111 77 109 6
4 54 31 36 52
4 23 78 31 54
4 32 104 39 111
4 24 28 54 26
4 8 26 54 3
4 109 6 9 45
4 104 49 56 12
4 31 56 12 3
4 33 77 15 34
4 58 33 79 2
4 32 57 12 26
4 6 14 58 33
4 28 14 82 49
4 9 82 49 5
4 50 79 34 105
4 50 4 29 74
4 29 104 30 74
4 114 82 109 31
4 28 31 94 2
4 7 2 94 108
4 59 57 104 64
4 27 104 106 62
4 104 5 40 27
4 63 16 6 31
4 0 14 109 63
4 106 14 109 39
4 79 15 8 23
4 103 99 19 101
4 116 21 114 96
4 84 73 99 103
4 93 119 43 90
4 51 83 85 92
4 84 56 93 90
4 89 13 73 90
4 105 44 46 101
4 26 73 90 47
4 11 100 71 13
4 87 71 13 60
4 8 81 46 86
4 96 100 112 91
4 59 75 113 85
4 100 115 77 112
4 66 68 36 67
4 36 67 71 97
4 38 41 21 76
4 116 42 0 110
4 69 87 0 110
4 37 70 22 18
4 91 93 87 62
4 62 87 113 76
4 65 66 70 108
4 61 85 118 86
4 86 118 95 112
4 60 89 66 37
4 1 97 83 13
4 46 97 1 18
4 41 116 25 9
4 55 53 83 100
4 17 93 101 81
4 100 83 58 95
4 90 48 91 69
4 97 114 91 69
4 113 99 111 92
4 74 115 95 27
4 92 59 12 53
4 109 95 115 33
4 4 117 118 2
4 18 117 4 16
4 34 81 44 23
4 20 99 40 49
4 49 40 110 52
4 76 114 6 78
4 36 75 63 28
4 63 28 110 38
4 37 106 30 108
4 10 86 24 2
4 63 2 24 67
4 3 60 18 106
4 102 62 64 95
4 65 94 3 37
4 39 64 95 77
4 117 1 50 84
4 21 25 82 6
4 26 84 50 23
4 82 20 103 56
4 111 51 53 57
4 50 103 56 54
4 45 4 84 47
4 54 12 47 84
4 105 81 119 33
4 10 94 58 118
4 34 8 17 119
4 64 118 58 109
4 27 102 103 49
4 30 27 102 76
4 92 57 39 75
4 44 0 28 52
4 22 52 28 67
4 78 16 9 21
5 94 2 27 12 3
5 6 33 4 49 82
4 12 3 6 82
4 6 33 94 3
5 11 53 12 47 29
5 14 105 13 4 117
4 53 12 14 105
4 117 14 12 47
5 20 111 21 114 36
5 23 54 28 4 79
4 23 54 114 21
4 21 23 79 111
5 59 91 27 102 31
5 119 48 29 115 33
4 33 119 59 31
4 33 115 102 31
5 10 0 60 37 8
5 28 109 39 104 27
4 37 8 104 39
4 60 37 39 109
5 44 21 19 1 97
5 43 4 84 26 32
4 21 44 26 32
4 44 97 84 26
5 50 31 36 49 40
5 51 98 48 68 92
4 51 92 31 50
4 40 50 51 98
5 48 93 56 96 55
5 43 89 58 83 11
4 58 83 96 56
4 58 56 93 89
5 0 14 64 24 2
5 11 88 17 81 42
4 17 64 14 81
4 64 24 88 17
5 41 23 0 1 16
5 39 70 30 62 36
4 23 41 70 30
4 70 41 16 39
5 62 87 75 37 61
5 55 15 77 95 27
4 15 77 75 37
4 77 95 87 75
5 83 116 80 19 113
5 20 103 84 72 48
4 84 72 116 83
4 84 103 113 83
5 0 35 106 86 110
5 13 73 88 9 19
4 86 106 9 88
4 88 86 110 73
5 93 66 80 61 46
5 10 11 107 95 118
4 95 118 46 93
4 66 93 95 107
5 61 108 98 112 91
5 36 67 99 78 35
4 98 108 78 99
4 99 67 112 98
5 42 38 100 86 61
5 68 19 99 90 22
4 100 86 22 90
4 90 99 38 100
5 54 56 49 29 74
5 101 20 43 51 105
4 105 54 56 101
4 54 105 51 74
5 1 28 52 106 6
5 13 34 8 26 2
4 26 8 106 52
4 106 8 34 6
5 85 10 55 17 59
5 45 29 2 58 109
4 109 58 85 59
4 59 17 45 109
5 77 49 91 57 111
5 3 62 28 63 78
4 111 57 3 78
4 63 78 111 77
5 62 64 112 7 10
5 42 35 18 66 41
4 66 41 7 112
4 112 66 18 64
5 103 69 91 68 75
5 55 100 115 65 80
4 103 75 65 115
4 100 115 103 69
5 68 35 76 116 70
5 1 50 73 5 20
4 116 76 50 73
4 116 70 5 73
5 43 90 47 25 80
5 71 13 42 44 118
4 44 118 47 25
4 47 118 71 90
4 35 44 52 36
4 78 35 44 23
5 23 44 52 24 73
4 62 76 92 59
5 40 38 76 62 69
5 77 93 59 92 65
4 76 38 65 92
4 85 60 13 83
5 18 60 13 107 45
5 83 100 47 46 85
4 18 60 85 46
4 81 53 51 19
5 19 81 46 117 89
4 46 81 53 96
5 84 96 53 51 115
5 91 72 74 76 114
4 91 93 101 114
4 76 114 101 113
5 115 113 101 93 90
4 68 114 105 19
4 50 105 19 99
5 52 114 105 50 84
4 59 61 42 60
4 61 59 64 86
5 59 64 95 63 60
4 13 16 37 42
4 44 106 37 42
5 67 16 37 106 64
4 63 0 35 75
4 35 75 39 106
5 112 39 75 63 40
4 68 91 30 21
4 78 21 68 75
5 50 78 21 30 110
4 81 18 1 105
5 24 71 1 18 22
5 25 81 105 83 26
4 25 81 18 22
5 113 92 61 96 102
4 92 61 17 119
5 89 119 17 47 95
4 92 113 89 119
4 3 10 11 34
4 118 10 3 14
5 3 14 109 16 34
4 2 79 78 0
4 14 0 78 6
5 5 79 78 6 39
4 94 10 62 31
4 109 64 62 31
5 79 94 31 109 77
4 30 27 56 114
5 30 108 79 40 27
4 92 114 30 108
5 92 114 56 103 33
4 20 82 14 1
4 1 50 54 14
5 82 14 54 26 104
5 45 82 81 34 43
4 94 115 43 34
4 94 85 81 34
5 85 94 115 95 56
4 57 55 47 82
5 94 74 55 57 92
4 57 92 101 82
5 101 82 47 84 58
4 33 34 9 20
5 20 117 52 25 9
4 9 25 53 34
5 33 58 54 53 34
4 48 57 6 20
4 6 31 103 20
5 57 6 31 54 30
4 108 10 12 57
5 65 108 10 102 63
5 57 119 109 56 12
4 119 65 108 57
4 49 36 106 104
4 3 31 36 106
5 104 106 3 23 7
4 58 60 16 4
5 104 24 4 16 9
5 81 60 58 118 12
4 81 9 16 60
5 36 97 110 72 22
4 75 113 97 36
4 97 113 38 110
5 98 66 75 113 38
4 116 42 85 96
5 65 89 87 85 42
4 85 87 69 96
5 116 96 69 90 98
4 35 97 83 42
4 41 42 83 73
5 90 73 83 97 117
4 18 19 80 17
4 80 116 86 17
5 118 87 18 17 86
4 35 87 93 68
4 68 70 112 93
5 93 112 100 102 87
4 67 1 19 66
4 21 19 66 70
5 69 67 66 70 86
4 61 116 110 62
4 41 116 61 37
5 116 41 99 71 110
5 71 113 35 46 69
4 113 35 37 65
5 112 17 37 65 107
4 113 71 107 65
4 44 0 87 46
5 107 38 0 87 67
5 22 46 44 116 88
4 22 46 87 67
4 21 35 46 25
5 25 72 73 51 21
4 69 46 25 72
5 68 25 96 97 101
4 68 66 89 101
4 101 97 71 89
5 66 88 100 71 89
4 80 51 76 61
4 99 51 80 66
5 97 76 51 99 103
5 15 119 60 94 11
4 102 94 11 100
4 60 94 102 87
4 0 118 117 1
4 26 23 0 118
5 118 26 88 45 117
4 31 28 110 76
5 28 67 5 7 110
5 76 31 75 111 108
4 110 76 108 7
4 7 27 91 70
4 37 70 91 59
5 37 78 38 7 70
4 14 18 67 28
5 18 9 8 44 14
4 9 18 67 5
4 65 42 8 15
5 12 8 15 45 64
4 89 65 15 45
4 111 68 25 32
4 96 25 32 74
5 50 74 32 111 33
4 92 80 43 33
4 103 33 43 90
5 114 82 48 32 53
4 82 117 90 48
4 82 114 97 117
4 81 12 55 80
4 100 118 12 55
4 62 102 103 36
4 36 103 77 39
5 103 77 98 74 102
4 5 4 13 41
4 105 13 41 21
5 106 21 41 5 22
4 6 36 22 9
5 32 9 6 105 23
4 22 72 32 9
4 55 108 111 48
4 93 48 111 75
5 80 53 85 101 119
4 80 88 45 119
4 101 119 45 117
4 101 19 13 58
4 84 58 13 73
4 98 80 53 74
4 85 102 74 53
5 49 5 32 30 52
4 52 97 103 49
4 30 52 97 76
4 118 2 63 87
5 7 15 16 63 2
4 16 63 87 18
4 24 28 62 86
4 3 62 86 8
5 24 107 41 8 86
4 3 0 38 108
5 108 3 59 39 15
4 107 38 108 15
4 40 28 1 99
4 1 99 111 6
5 72 40 99 111 70
4 9 43 11 8
4 83 44 8 11
4 61 85 56 91
4 95 112 91 56
4 15 11 26 104
4 15 104 82 119
4 109 16 5 49
4 34 32 5 16
4 29 15 39 49
4 56 49 39 59
4 27 74 50 28
4 109 33 50 28
4 29 2 23 32
4 58 2 23 105
4 53 55 27 54
4 58 95 27 54
4 43 4 109 119
4 84 4 109 56
5 29 79 34 57 104
4 29 104 52 84
4 114 52 104 57
4 48 77 79 32
4 79 94 53 32
4 95 63 79 29
4 60 63 79 34
4 2 54 30 7
4 30 7 15 57
4 28 64 45 4
4 54 28 64 12
4 36 20 90 69
4 111 98 90 20
4 47 48 68 46
4 48 98 100 47
4 20 22 88 43
4 51 43 88 116
4 41 107 89 19
4 117 89 107 24
4 10 38 98 55
4 17 55 98 66
4 22 69 62 106
4 5 22 69 40
4 71 38 78 1
4 71 38 7 24
4 69 102 10 86
4 67 63 102 69
4 10 100 71 0
4 88 100 10 8
4 20 117 71 99
4 110 71 117 52
4 42 113 115 11
4 88 11 115 90
4 70 72 96 61
4 40 72 96 102
4 65 11 29 77
4 47 93 77 29
4 43 45 24 73
4 52 82 45 24
4 39 91 72 5
4 74 79 5 72
4 27 64 67 40
4 79 40 67 16
4 23 13 107 7
4 45 107 7 104
4 27 112 107 2
4 12 27 112 17
4 73 4 49 72
4 33 51 73 4
4 91 49 84 96
4 49 84 115 77
4 48 25 26 29
4 29 26 83 115
4 89 13 2 95
4 47 95 2 26
4 40 74 55 112
4 63 40 74 94
4 24 110 50 4
4 104 30 110 24
5 4 109 14 54 2
4 14 54 30 106
5 7 30 106 39 5
5 11 13 58 118 26
4 118 26 104 64
5 15 104 64 109 16
5 4 20 6 105 50
5 106 22 24 110 44
4 105 44 110 50
5 27 56 109 77 29
5 32 30 114 6 111
4 109 56 114 6
5 106 3 0 28 64
4 3 108 70 106
5 40 112 70 108 38
5 43 73 83 105 19
5 18 14 118 24 45
4 118 83 73 24
5 49 103 33 111 48
5 105 21 25 52 97
4 103 33 105 97
5 11 115 95 47 55
5 33 109 82 57 34
4 95 47 82 109
5 42 0 118 86 8
4 86 112 15 8
5 95 63 65 15 112
5 36 106 21 78 1
4 21 78 38 116
5 116 86 69 71 38
5 62 59 39 112 27
4 59 39 111 92
5 76 92 111 98 74
5 48 80 51 115 90
5 81 82 117 58 105
4 58 117 90 115
5 19 35 44 116 41
4 107 41 116 100
5 107 89 87 118 100
5 112 17 61 10 100
4 17 119 77 112
5 94 115 77 119 92
5 75 111 70 91 36
5 97 96 116 51 113
4 75 111 51 113
5 98 66 68 61 116
5 85 83 115 89 101
4 89 66 98 115
5 29 43 33 58 84
5 14 6 9 104 52
4 84 58 14 52
5 13 23 44 14 1
4 86 7 23 44
5 86 64 67 107 7
5 64 12 10 2 95
4 64 39 57 12
5 77 79 108 57 39
5 31 28 49 39 6
5 110 72 70 21 76
4 31 6 21 76
5 37 70 86 62 35
4 70 37 65 98
5 100 98 65 113 102
5 98 55 91 93 77
5 114 53 51 33 101
4 77 93 101 33
5 68 20 99 51 21
5 44 83 71 117 46
4 83 51 99 71
5 80 42 83 100 88
4 45 88 100 95
5 60 119 45 95 58
5 110 73 99 1 97
4 97 46 86 110
5 86 46 18 66 88
5 48 72 96 114 68
4 102 31 114 96
5 77 40 102 31 75
5 15 119 59 12 55
4 87 59 12 118
5 45 29 26 12 82
4 83 85 12 26
5 32 43 20 82 25
4 96 56 82 25
5 96 74 115 103 56
5 90 20 101 97 84
5 81 44 26 88 9
4 101 97 44 81
4 62 10 55 91
5 63 87 62 10 38
4 35 0 10 61
5 67 18 35 0 71
4 36 62 61 68
5 62 110 40 67 36
5 76 50 103 36 114
4 114 76 116 25
5 25 116 73 90 22
5 107 45 17 8 11
4 46 17 8 44
5 48 29 74 53 57
4 85 59 57 53
5 102 95 93 59 85
4 2 0 62 27
5 16 60 0 2 107
4 35 62 28 1
5 24 28 1 16 5
4 27 91 36 28
5 27 7 79 63 28
5 52 36 20 5 72
4 54 74 72 52
5 33 79 74 54 31
5 117 52 26 73 4
5 16 41 8 106 18
4 117 18 106 52
5 104 57 3 54 27
4 58 60 3 54
5 4 79 32 104 49
4 12 104 32 53
5 56 12 53 94 58
5 104 24 2 23 8
4 81 8 23 105
5 82 114 54 84 49
4 82 114 21 9
5 23 21 9 5 73
5 74 40 49 91 30
4 3 30 74 94
5 94 63 109 59 3
5 23 30 52 28 50
4 22 52 30 70
5 67 99 41 70 22
5 10 3 37 15 7
4 14 3 37 18
5 80 25 46 101 19
4 103 69 46 101
5 69 72 98 99 103
5 119 101 56 47 48
4 102 100 47 56
5 90 71 113 19 66
5 47 17 81 85 118
4 113 85 118 71
4 42 11 55 61
5 61 46 87 113 42
4 80 61 91 48
5 76 61 91 69 102
4 35 68 80 42
5 68 22 69 97 35
5 38 99 75 35 76
5 100 96 46 93 90
4 96 76 38 100
5 80 92 85 96 55
4 87 75 92 85
5 66 75 87 69 112
5 93 17 80 65 89
4 86 17 93 69
5 47 88 43 89 117
4 96 116 88 47
5 43 11 53 81 119
4 93 46 81 119
5 92 68 93 103 113
5 84 83 53 25 47
4 83 53 92 113
5 57 91 56 31 92
4 95 63 31 56
5 88 24 71 13 41
5 60 37 17 64 87
4 71 87 64 24
4 97 69 40 50
5 40 50 78 111 5
5 31 78 108 30 62
4 72 98 108 30
5 66 37 42 38 107
4 106 37 66 22
5 94 108 55 27 102
4 108 94 60 37
4 53 51 73 26
5 105 34 32 26 54
4 119 34 105 101
5 34 13 4 45 9
4 47 45 9 25
4 29 11 10 27
5 60 65 11 10 85
4 91 49 20 68
4 1 19 42 0
5 22 9 19 1 117
4 88 25 21 41
4 92 57 32 51
5 50 84 72 32 51
5 94 2 29 15 34
4 17 15 34 81
5 14 60 34 8 12
4 89 117 14 60
4 94 54 84 115
4 117 84 72 22
5 65 75 59 61 108
4 67 64 59 75
5 0 110 7 41 78
4 110 69 112 7
4 76 102 63 78
5 63 67 39 37 78
4 35 19 20 36
4 13 2 10 42
5 81 42 13 89 18
4 27 49 48 55
4 7 79 34 8
4 9 6 78 41
4 104 5 111 57
4 1 36 49 4
4 13 0 28 4
4 28 2 29 49
5 3 23 79 16 6
4 45 16 6 82
4 26 32 5 24
4 34 23 50 33
4 109 16 78 31
4 110 23 79 40
4 67 24 104 39
4 43 19 68 48
4 43 80 55 29
4 13 11 80 19
4 65 60 18 66
4 115 74 108 65
4 66 70 72 90
4 113 87 67 99
4 112 93 103 40
4 95 107 38 102
4 90 22 18 89
4 58 94 65 89
4 74 84 90 98
4 79 15 119 33
4 88 9 16 107
4 99 111 32 73
4 5 99 75 39
4 41 16 63 38
4 40 7 15 77
4 43 20 1 13
4 20 48 29 4
4 4 43 11 2
4 63 109 45 107
4 77 103 50 79
4 71 67 5 73
5 4 50 40 63 2
5 69 97 117 118 87
5 79 23 13 11 94
5 102 100 71 110 40
5 20 4 16 67 99
5 60 58 101 113 87
5 27 40 72 84 29
5 67 64 45 117 22
5 31 102 87 0 28
5 114 96 46 44 52
5 16 41 19 43 34
5 94 63 38 113 115
5 22 90 48 49 5
5 119 109 16 18 89
5 26 32 74 55 11
5 5 40 112 107 24
5 3 94 85 42 0
5 96 116 110 30 74
5 18 1 36 75 87
5 85 92 114 105 81
5 96 56 27 62 69
5 25 82 104 106 22
5 48 80 88 9 32
5 16 79 77 65 107
5 37 60 81 19 35
5 53 51 76 108 94
5 10 61 96 53 12
5 7 70 72 32 104
5 93 46 22 36 91
5 6 57 119 81 9
5 68 61 17 81 25
5 34 15 108 111 32
5 79 29 43 73 5
5 67 63 95 89 71
5 13 60 63 78 1
5 102 85 83 97 76
5 2 54 74 102 10
5 72 69 86 24 52
5 28 67 69 103 49
5 18 46 101 82 14
5 62 59 85 46 35
5 25 53 57 30 21
5 91 72 25 47 55
5 5 9 45 15 39
5 66 18 9 20 68
5 33 92 65 60 34
5 8 34 53 80 42
5 79 74 98 38 7
5 107 13 73 99 38
5 103 84 58 95 102
5 28 109 58 117 1
5 115 77 40 99 90
5 2 107 100 115 29
5 4 13 89 115 33
5 118 95 27 28 24
5 50 73 83 115 74
5 90 71 24 4 84
5 56 93 87 64 109
5 54 28 110 97 84
5 97 101 56 31 36
5 117 52 49 56 47
5 103 113 71 1 50
5 14 54 56 85 118
5 83 58 2 0 71
5 62 64 14 52 36
5 93 103 20 117 89
5 78 99 51 33 79
5 73 110 7 2 26
5 95 47 90 69 112
5 49 77 95 45 4
5 10 62 110 44 118
5 31 50 105 58 94
5 46 86 64 12 47
5 35 0 14 105 97
5 75 63 109 33 103
5 50 76 38 0 23
5 96 100 118 26 84
5 72 98 100 88 73
5 43 11 65 98 51
5 107 45 43 90 66
5 54 3 62 76 114
5 30 52 26 12 27
5 91 59 12 82 114
5 99 19 89 65 75
5 36 20 82 109 39
5 11 83 116 38 10
5 105 51 113 42 13
5 112 91 49 104 64
5 59 31 6 14 60
5 48 98 112 15 29
5 15 7 41 88 11
5 5 111 98 66 41
5 92 113 35 78 31
5 54 53 83 44 23
5 35 68 114 6 106
5 1 19 101 33 6
5 39 106 18 17 59
5 55 100 86 7 27
5 29 47 88 24 104
5 119 101 68 75 59
5 3 12 81 44 106
5 61 86 106 30 91
5 39 67 66 93 77
5 20 43 119 77 111
5 32 51 116 41 23
5 42 41 78 108 65
5 82 45 17 93 48
5 44 21 76 61 42
5 116 25 26 8 86
5 112 70 22 88 17
5 105 34 3 78 21
5 37 75 111 6 16
5 10 108 30 23 8
5 57 104 8 17 55
5 61 37 3 57 92
5 48 68 70 39 57
5 116 80 55 108 70
5 80 66 37 15 119
5 80 19 21 111 92
5 37 8 9 21 70

# Cells
7 0 1 2 3 4 5 6
7 7 8 9 10 11 12 13
7 14 15 16 17 18 19 20
7 21 22 23 24 25 26 27
7 28 29 30 31 32 33 34
7 35 36 37 38 39 40 41
7 42 43 44 45 46 47 48
7 49 50 51 52 53 54 55
7 56 57 58 59 60 61 62
7 63 64 65 66 67 68 69
7 70 71 72 73 74 75 76
7 77 78 79 80 81 82 83
7 84 85 86 87 88 89 90
7 91 92 93 94 95 96 97
7 98 99 100 101 102 103 104
7 105 106 107 108 109 110 111
7 112 113 114 115 116 117 118
7 119 120 121 122 123 124 125
7 126 127 128 129 130 131 132
7 133 134 135 136 137 138 139
7 140 141 142 143 144 145 146
7 147 148 149 150 151 152 153
7 154 155 156 157 158 159 160
7 161 162 163 164 165 166 167
7 144 168 169 170 171 172 173
7 174 175 176 177 178 179 180
7 106 181 182 183 184 185 186
7 150 187 188 189 190 191 192
7 193 194 195 196 197 198 199
7 88 200 201 202 203 204 205
7 206 207 208 209 210 211 212
7 213 214 215 216 217 218 219
7 220 221 222 223 224 225 226
7 109 227 228 229 230 231 232
7 79 233 234 235 236 237 238
7 239 240 241 242 243 244 245
7 246 247 248 249 250 251 252
7 253 254 255 256 257 258 259
7 260 261 262 263 264 265 266
7 267 268 269 270 271 272 273
7 67 274 275 276 277 278 279
7 95 280 281 282 283 284 285
7 286 287 288 289 290 291 292
7 53 293 294 295 296 297 298
7 158 299 300 301 302 303 304
7 305 306 307 308 309 310 311
7 101 312 313 314 315 316 317
7 163 318 319 320 321 322 323
7 324 325 326 327 328 329 330
7 100 331 332 333 334 335 336
7 58 337 338 339 340 341 342
7 326 343 344 345 346 347 348
7 349 350 351 352 353 354 355
7 356 357 358 359 360 361 362
7 92 363 364 365 366 367 368
7 369 370 371 372 373 374 375
7 155 376 377 378 379 380 381
7 43 382 383 384 385 386 387
7 388 389 390 391 392 393 394
7 164 395 396 397 398 399 400
7 141 290 401 402 403 404 405
7 29 406 407 408 409 410 411
7 349 412 413 414 415 416 417
7 149 257 418 419 420 421 422
7 38 423 424 425 426 427 428
7 381 429 430 431 432 433 434
7 25 435 436 437 438 439 440
7 37 441 442 443 444 445 446
7 447 448 449 450 451 452 453
7 371 454 455 456 457 458 459
7 399 460 461 462 463 464 465
7 449 466 467 468 469 470 471
7 115 472 473 474 475 476 477
7 80 265 478 479 480 481 482
7 335 483 484 485 486 487 488
7 122 489 490 491 492 493 494
7 72 450 495 496 497 498 499
7 356 500 501 502 503 504 505
7 85 310 506 507 508 509 510
7 73 469 511 512 513 514 515
7 428 516 517 518 519 520 521
7 366 522 523 524 525 526 527
7 390 528 529 530 531 532 533
7 445 516 534 535 536 537 538
7 185 539 540 541 542 543 544
7 10 416 545 546 547 548 549
7 46 249 550 551 552 553 554
7 230 539 555 556 557 558 559
7 315 484 560 561 562 563 564
7 302 429 565 566 567 568 569
7 18 456 570 571 572 573 574
7 283 522 575 576 577 578 579
7 130 502 580 581 582 583 584
7 59 272 585 586 587 588 589
7 322 460 590 591 592 593 594
7 134 530 595 596 597 598 599
7 268 340 600 601 602 603 604
7 175 493 605 606 607 608 609
7 195 409 610 611 612 613 614
7 248 387 615 616 617 618 619
7 50 226 620 621 622 623 624
7 15 372 625 626 627 628 629
7 208 477 630 631 632 633 634
7 64 243 635 636 637 638 639
7 127 362 640 641 642 643 644
7 215 439 645 646 647 648 649
7 9 354 650 651 652 653 654
7 137 391 655 656 657 658 659
7 114 209 660 661 662 663 664
7 191 254 665 666 667 668 669
7 3 327 670 671 672 673 674
7 121 178 675 676 677 678 679
7 238 261 680 681 682 683 684
7 22 216 685 686 687 688 689
7 171 288 690 691 692 693 694
7 203 305 695 696 697 698 699
7 240 277 700 701 702 703 704
7 2 345 705 706 707 708 709
7 32 196 710 711 712 713 714
7 220 297 715 716 717 718 719
7 0 720 721 722 723 724 725
7 7 726 727 728 729 730 731
7 14 732 733 734 735 736 737
7 21 738 739 740 741 742 743
7 28 744 745 746 747 748 749
7 35 750 751 752 753 754 755
7 42 756 757 758 759 760 761
7 49 762 763 764 765 766 767
7 56 768 769 770 771 772 773
7 63 774 775 776 777 778 779
7 70 780 781 782 783 784 785
7 77 786 787 788 789 790 791
7 84 792 793 794 795 796 797
7 91 798 799 800 801 802 803
7 98 804 805 806 807 808 809
7 105 810 811 812 813 814 815
7 112 816 817 818 819 820 821
7 119 822 823 824 825 826 827
7 126 828 829 830 831 832 833
7 133 834 835 836 837 838 839
7 140 840 841 842 843 844 845
7 147 846 847 848 849 850 851
7 154 852 853 854 855 856 857
7 161 858 859 860 861 862 863
7 173 864 865 866 867 868 869
7 180 800 870 871 872 873 874
7 186 875 876 877 878 879 880
7 192 881 882 883 884 885 886
7 199 812 887 888 889 890 891
7 205 892 893 894 895 896 897
7 210 804 898 899 900 901 902
7 218 811 903 904 905 906 907
7 225 854 908 909 910 911 912
7 231 913 914 915 916 917 918
7 237 919 920 921 922 923 924
7 245 858 925 926 927 928 929
7 251 842 930 931 932 933 934
7 259 794 935 936 937 938 939
7 266 775 940 941 942 943 944
7 273 849 945 946 947 948 949
7 279 950 951 952 953 954 955
7 285 956 957 958 959 960 961
7 291 789 962 963 964 965 966
7 298 967 968 969 970 971 972
7 303 973 974 975 976 977 978
7 311 763 979 980 981 982 983
7 316 984 985 986 987 988 989
7 321 990 991 992 993 994 995
7 330 841 996 997 998 999 1000
7 336 1001 1002 1003 1004 1005 1006
7 342 1007 1008 1009 1010 1011 1012
7 346 846 1013 1014 1015 1016 1017
7 352 757 1018 1019 1020 1021 1022
7 359 786 1023 1024 1025 1026 1027
7 367 1028 1029 1030 1031 1032 1033
7 375 768 1034 1035 1036 1037 1038
7 380 1039 1040 1041 1042 1043 1044
7 386 1045 1046 1047 1048 1049 1050
7 392 793 1051 1052 1053 1054 1055
7 398 1040 1056 1057 1058 1059 1060
7 405 1061 1062 1063 1064 1065 1066
7 411 1017 1067 1068 1069 1070 1071
7 417 783 1072 1073 1074 1075 1076
7 421 1062 1077 1078 1079 1080 1081
7 426 1008 1082 1083 1084 1085 1086
7 434 726 1087 1088 1089 1090 1091
7 440 999 1092 1093 1094 1095 1096
7 446 1045 1097 1098 1099 1100 1101
7 451 853 960 1102 1103 1104 1105
7 457 780 1106 1107 1108 1109 1110
7 464 734 1111 1112 1113 1114 1115
7 471 861 988 1116 1117 1118 1119
7 476 1076 1120 1121 1122 1123 1124
7 481 1001 1125 1126 1127 1128 1129
7 486 750 1065 1130 1131 1132 1133
7 494 1110 1120 1134 1135 1136 1137
7 499 1054 1138 1139 1140 1141 1142
7 505 807 972 1143 1144 1145 1146
7 509 1030 1147 1148 1149 1150 1151
7 514 1026 1152 1153 1154 1155 1156
7 521 830 1157 1158 1159 1160 1161
7 527 753 1079 1162 1163 1164 1165
7 532 799 955 1166 1167 1168 1169
7 536 835 1170 1171 1172 1173 1174
7 542 819 1149 1175 1176 1177 1178
7 548 948 1067 1179 1180 1181 1182
7 553 938 1138 1183 1184 1185 1186
7 559 825 1127 1187 1188 1189 1190
7 564 771 978 1191 1192 1193 1194
7 569 746 1101 1195 1196 1197 1198
7 574 933 1092 1199 1200 1201 1202
7 578 758 993 1203 1204 1205 1206
7 584 890 1207 1208 1209 1210 1211
7 588 965 1154 1212 1213 1214 1215
7 594 740 1084 1216 1217 1218 1219
7 598 906 1207 1220 1221 1222 1223
7 603 816 1031 1224 1225 1226 1227
7 607 739 1011 1228 1229 1230 1231
7 612 764 868 1232 1233 1234 1235
7 617 822 1006 1236 1237 1238 1239
7 623 877 1115 1240 1241 1242 1243
7 628 893 1161 1244 1245 1246 1247
7 633 745 1050 1248 1249 1250 1251
7 638 915 1091 1252 1253 1254 1255
7 644 992 1022 1256 1257 1258 1259
7 647 776 886 1260 1261 1262 1263
7 654 920 1174 1264 1265 1266 1267
7 659 974 1038 1268 1269 1270 1271
7 664 881 944 1272 1273 1274 1275
7 667 733 878 1276 1277 1278 1279
7 673 873 950 1280 1281 1282 1283
7 678 866 982 1284 1285 1286 1287
7 682 720 1042 1288 1289 1290 1291
7 688 912 957 1292 1293 1294 1295
7 694 729 916 1296 1297 1298 1299
7 697 723 1058 1300 1301 1302 1303
7 702 829 896 1304 1305 1306 1307
7 709 902 968 1308 1309 1310 1311
7 713 928 985 1312 1313 1314 1315
7 717 836 922 1316 1317 1318 1319
7 550 979 1320 1321 1322 1323 1324
7 570 962 1325 1326 1327 1328 1329
7 312 1216 1330 1331 1332 1333 1334
7 478 870 1335 1336 1337 1338 1339
7 685 1087 1340 1341 1342 1343 1344
7 274 1203 1345 1346 1347 1348 1349
7 227 1072 1350 1351 1352 1353 1354
7 441 887 1355 1356 1357 1358 1359
7 705 1130 1360 1361 1362 1363 1364
7 511 1288 1365 1366 1367 1368 1369
7 620 1034 1370 1371 1372 1373 1374
7 200 1143 1375 1376 1377 1378 1379
7 406 1276 1380 1381 1382 1383 1384
7 650 1051 1385 1386 1387 1388 1389
7 363 1248 1390 1391 1392 1393 1394
7 337 1260 1395 1396 1397 1398 1399
7 299 945 1400 1401 1402 1403 1404
7 595 1175 1405 1406 1407 1408 1409
7 660 925 1410 1411 1412 1413 1414
7 418 1157 1415 1416 1417 1418 1419
7 640 1236 1420 1421 1422 1423 1424
7 395 996 1425 1426 1427 1428 1429
7 168 1316 1430 1431 1432 1433 1434
7 489 1102 1435 1436 1437 1438 1439
7 424 827 1440 1441 1442 1443 1444
7 351 1032 1396 1445 1446 1447 1448
7 488 882 1421 1449 1450 1451 1452
7 453 1094 1387 1453 1454 1455 1456
7 601 917 1432 1457 1458 1459 1460
7 474 737 1461 1462 1463 1464 1465
7 97 1015 1466 1467 1468 1469 1470
7 61 1168 1471 1472 1473 1474 1475
7 145 904 1476 1477 1478 1479 1480
7 627 779 1481 1482 1483 1484 1485
7 669 967 1397 1486 1487 1488 1489
7 606 1059 1376 1490 1491 1492 1493
7 131 1107 1494 1495 1496 1497 1498
7 33 932 1499 1500 1501 1502 1503
7 76 899 1504 1505 1506 1507 1508
7 462 1081 1392 1509 1510 1511 1512
7 547 724 1513 1514 1515 1516 1517
7 292 1139 1362 1518 1519 1520 1521
7 696 1128 1352 1522 1523 1524 1525
7 579 1208 1437 1526 1527 1528 1529
7 671 838 1530 1531 1532 1533 1534
7 535 1243 1426 1535 1536 1537 1538
7 677 748 1539 1540 1541 1542 1543
7 544 956 1382 1544 1545 1546 1547
7 357 867 1381 1548 1549 1550 1551
7 393 1047 1371 1552 1553 1554 1555
7 234 755 1556 1557 1558 1559 1560
7 166 1233 1561 1562 1563 1564 1565
7 111 1024 1557 1566 1567 1568 1569
7 89 1118 1570 1571 1572 1573 1574
7 378 797 1575 1576 1577 1578 1579
7 344 1010 1436 1580 1581 1582 1583
7 619 921 1391 1584 1585 1586 1587
7 648 1122 1427 1588 1589 1590 1591
7 611 895 1346 1592 1593 1594 1595
7 383 857 1596 1597 1598 1599 1600
7 242 1002 1341 1601 1602 1603 1604
7 320 730 1570 1605 1606 1607 1608
7 221 1156 1422 1532 1609 1610 1611
7 636 844 1583 1612 1613 1614 1615
7 684 990 1431 1497 1616 1617 1618
7 455 1266 1357 1619 1620 1621 1622
7 504 1281 1356 1623 1624 1625 1626
7 436 761 1627 1628 1629 1630 1631
7 691 977 1332 1632 1633 1634 1635
7 55 1230 1628 1636 1637 1638 1639
7 104 910 1576 1640 1641 1642 1643
7 124 1192 1590 1644 1645 1646 1647
7 719 1180 1377 1502 1648 1649 1650
7 657 809 1550 1651 1652 1653 1654
7 701 1099 1401 1655 1656 1657 1658
7 294 820 1561 1659 1660 1661 1662
7 197 1269 1412 1663 1664 1665 1666
7 523 989 1367 1629 1667 1668 1669
7 432 875 1366 1638 1670 1671 1672
7 508 772 1622 1673 1674 1675 1676
7 207 1259 1386 1542 1677 1678 1679
7 68 936 1625 1673 1680 1681 1682
7 12 1306 1587 1683 1684 1685 1686
7 153 1019 1597 1687 1688 1689 1690
7 566 1275 1337 1607 1691 1692 1693
7 593 1212 1347 1506 1694 1695 1696
7 712 784 1447 1697 1698 1699 1700
7 139 941 1528 1612 1701 1702 1703
7 5 1197 1488 1697 1704 1705 1706
7 27 1172 1546 1651 1707 1708 1709
7 582 742 1511 1683 1710 1711 1712
7 555 1186 1417 1660 1713 1714 1715
7 271 1313 1327 1641 1716 1717 1718
7 308 1061 1406 1688 1719 1720 1721
7 260 1295 1372 1516 1722 1723 1724
7 586 832 1538 1644 1725 1726 1727
7 160 1163 1441 1665 1728 1729 1730
7 83 1226 1462 1603 1731 1732 1733
7 40 1298 1514 1554 1734 1735 1736
7 529 1136 1326 1577 1737 1738 1739
7 332 815 1505 1595 1740 1741 1742
7 632 1083 1351 1475 1743 1744 1745
7 213 1071 1361 1484 1746 1747 1748
7 373 1041 1416 1565 1749 1750 1751
7 182 862 1476 1658 1752 1753 1754
7 466 953 1407 1598 1755 1756 1757
7 189 791 1467 1634 1758 1759 1760
7 328 1245 1336 1573 1761 1762 1763
7 496 850 1459 1495 1764 1765 1766
7 560 1202 1322 1558 1767 1768 1769
7 414 1285 1402 1479 1770 1771 1772
7 519 1148 1331 1468 1773 1774 1775
7 246 1311 1411 1443 1776 1777 1778
7 403 802 1493 1500 1779 1780 1781
7 19 1189 1455 1539 1782 1783 1784
7 48 1112 1482 1520 1785 1786 1787
7 117 1301 1451 1531 1788 1789 1790
7 281 766 1471 1524 1791 1792 1793
7 177 1253 1321 1568 1794 1795 1796
7 253 1223 1342 1463 1797 1798 1799
7 495 1300 1320 1800 1801 1802 1803
7 435 1296 1325 1804 1805 1806 1807
7 710 1111 1330 1808 1809 1810 1811
7 331 1228 1335 1812 1813 1814 1815
7 280 1195 1340 1816 1817 1818 1819
7 670 1162 1345 1820 1821 1822 1823
7 635 1018 1350 1824 1825 1826 1827
7 382 1232 1355 1828 1829 1830 1831
7 293 1191 1360 1832 1833 1834 1835
7 585 940 1365 1836 1837 1838 1839
7 181 1106 1370 1840 1841 1842 1843
7 625 1023 1375 1844 1845 1846 1847
7 545 935 1380 1848 1849 1850 1851
7 233 1166 1385 1852 1853 1854 1855
7 506 898 1390 1856 1857 1858 1859
7 423 903 1395 1860 1861 1862 1863
7 655 1224 1400 1864 1865 1866 1867
7 580 1187 1405 1868 1869 1870 1871
7 187 1304 1410 1872 1873 1874 1875
7 401 1170 1415 1876 1877 1878 1879
7 318 930 1420 1880 1881 1882 1883
7 376 1013 1425 1884 1885 1886 1887
7 675 908 1430 1888 1889 1890 1891
7 472 1116 1435 1892 1893 1894 1895
7 590 1287 1444 1857 1896 1897 1898
7 642 803 1448 1899 1900 1901 1902
7 41 1278 1452 1903 1904 1905 1906
7 159 1261 1456 1907 1908 1909 1910
7 365 814 1460 1911 1912 1913 1914
7 412 1247 1465 1861 1915 1916 1917
7 531 1309 1470 1860 1918 1919 1920
7 562 1221 1474 1893 1921 1922 1923
7 250 1293 1478 1848 1924 1925 1926
7 517 1255 1485 1884 1927 1928 1929
7 20 1318 1489 1930 1931 1932 1933
7 338 863 1492 1934 1935 1936 1937
7 704 1199 1498 1853 1938 1939 1940
7 567 1184 1503 1832 1941 1942 1943
7 458 1273 1508 1880 1944 1945 1946
7 621 851 1512 1947 1948 1949 1950
7 267 1283 1517 1889 1951 1952 1953
7 82 1104 1521 1954 1955 1956 1957
7 397 790 1525 1958 1959 1960 1961
7 47 1145 1529 1962 1963 1964 1965
7 174 1271 1533 1845 1966 1967 1968
7 651 767 1537 1969 1970 1971 1972
7 306 1315 1543 1824 1973 1974 1975
7 118 1204 1547 1976 1977 1978 1979
7 512 845 1551 1980 1981 1982 1983
7 90 1238 1555 1984 1985 1986 1987
7 716 1085 1560 1881 1988 1989 1990
7 468 1068 1563 1844 1991 1992 1993
7 217 1257 1567 1888 1994 1995 1996
7 256 1153 1572 1820 1997 1998 1999
7 681 1150 1579 1840 2000 2001 2002
7 407 773 1582 2003 2004 2005 2006
7 125 1289 1586 2007 2008 2009 2010
7 69 1249 1591 2003 2011 2012 2013
7 170 796 1594 2014 2015 2016 2017
7 630 1043 1599 1852 2018 2019 2020
7 167 1131 1604 1996 2021 2022 2023
7 576 1182 1608 1836 2024 2025 2026
7 687 785 1611 2027 2028 2029 2030
7 430 1064 1614 1812 2031 2032 2033
7 6 1217 1618 2028 2034 2035 2036
7 491 731 1621 1985 2037 2038 2039
7 103 998 1626 2014 2040 2041 2042
7 324 1049 1630 1892 1950 2043 2044
7 228 856 1635 1990 2045 2046 2047
7 614 1134 1639 1885 1978 2048 2049
7 211 1241 1642 1837 2050 2051 2052
7 557 984 1646 1805 2053 2054 2055
7 138 1073 1650 1980 2056 2057 2058
7 369 1004 1653 1828 2029 2059 2060
7 201 754 1657 2026 2061 2062 2063
7 501 1124 1662 1849 1961 2064 2065
7 110 1053 1666 2052 2061 2066 2067
7 420 808 1669 2020 2068 2069 2070
7 13 1177 1672 1993 2071 2072 2073
7 541 1214 1676 1877 2074 2075 2076
7 706 833 1679 2008 2077 2078 2079
7 263 1078 1681 1868 2080 2081 2082
7 693 951 1686 1829 2035 2083 2084
7 347 1264 1690 1856 1957 2085 2086
7 442 821 1693 1953 2021 2087 2088
7 26 947 1696 1940 2068 2089 2090
7 239 1141 1699 1864 2078 2091 2092
7 538 1126 1703 1817 2042 2093 2094
7 699 973 1706 1873 2057 2095 2096
7 609 1097 1709 1841 1965 2097 2098
7 193 1096 1711 1821 1971 2099 2100
7 480 760 1715 1917 2101 2102 2103
7 152 888 1718 1946 2045 2104 2105
7 54 964 1721 1920 2101 2106 2107
7 662 743 1724 1968 2072 2108 2109
7 286 1210 1727 1809 2038 2110 2111
7 223 1028 1729 1808 1987 2112 2113
7 361 1007 1732 1825 1905 2114 2115
7 526 864 1735 1865 2009 2116 2117
7 275 826 1739 1908 2076 2118 2119
7 616 879 1741 1872 1983 2120 2121
7 34 1159 1745 1900 2055 2122 2123
7 597 749 1748 1931 2033 2124 2125
7 62 1088 1751 1970 1999 2126 2127
7 666 994 1754 1816 2017 2128 2129
7 314 778 1757 1963 2002 2130 2131
7 646 923 1759 1833 1914 2132 2133
7 146 1035 1763 1934 2082 2134 2135
7 388 884 1765 1804 1901 2136 2137
7 301 736 1769 1898 1954 2138 2139
7 75 871 1772 1911 1943 2140 2141
7 132 980 1775 1923 1948 2142 2143
7 571 725 1778 1904 1975 2144 2145
7 485 959 1780 1800 2005 2146 2147
7 465 913 1783 1801 2012 2148 2149
7 355 1056 1786 1876 1910 2150 2151
7 604 892 1790 1813 1932 2152 2153
7 448 970 1792 1869 1936 2154 2155
7 96 927 1796 1926 1959 2156 2157
7 551 839 1799 1929 1977 2158 2159
7 4 1312 1726 2108 2160 2161 2162
7 11 1209 1793 2087 2163 2164 2165
7 17 1284 1515 2158 2166 2167 2168
7 23 1268 1700 1947 2169 2170 2171
7 31 1063 1675 2077 2172 2173 2174
7 39 1179 1661 2138 2175 2176 2177
7 44 1244 1534 2069 2178 2179 2180
7 52 1093 1766 1958 2181 2182 2183
7 60 958 1753 2037 2184 2185 2186
7 65 1147 1442 2124 2187 2188 2189
7 71 1003 1615 1899 2190 2191 2192
7 78 1121 1631 2046 2193 2194 2195
7 87 991 1559 2118 2196 2197 2198
7 93 883 1742 1935 2199 2200 2201
7 99 1039 1483 1981 2202 2203 2204
7 107 919 1600 2015 2205 2206 2207
7 113 1280 1712 2102 2208 2209 2210
7 123 1213 1606 2144 2211 2212 2213
7 128 1140 1781 1969 2214 2215 2216
7 135 1252 1541 2027 2217 2218 2219
7 143 876 1578 2004 2220 2221 2222
7 148 1046 1654 1912 2223 2224 2225
7 157 1082 1464 2130 2226 2227 2228
7 165 969 1760 2062 2229 2230 2231
7 172 1290 1756 1851 2232 2233 2234
7 176 813 1640 2135 2235 2236 2237
7 183 1307 1388 2049 2198 2238 2239
7 188 1299 1358 2153 2206 2240 2241
7 194 855 1785 2041 2242 2243 2244
7 204 1317 1633 1823 2245 2246 2247
7 212 1267 1749 2120 2223 2248 2249
7 219 1310 1584 2128 2199 2250 2251
7 224 1258 1743 2000 2205 2252 2253
7 232 1250 1668 1890 2254 2255 2256
7 235 1194 1439 2084 2227 2257 2258
7 241 788 1687 2067 2259 2260 2261
7 252 1274 1670 2146 2190 2262 2263
7 258 1294 1616 2074 2220 2264 2265
7 264 1242 1773 2031 2202 2266 2267
7 269 806 1701 2141 2268 2269 2270
7 278 1218 1768 1870 2271 2272 2273
7 282 1303 1413 2098 2231 2274 2275
7 287 759 1707 2105 2276 2277 2278
7 295 1190 1328 2096 2194 2279 2280
7 304 1074 1714 1810 2281 2282 2283
7 307 847 1504 2157 2284 2285 2286
7 317 1158 1798 1838 2287 2288 2289
7 319 1198 1363 1939 2176 2290 2291
7 325 795 1728 2013 2292 2293 2294
7 333 1235 1428 2115 2222 2295 2296
7 341 1277 1593 1895 2297 2298 2299
7 348 1137 1552 2132 2181 2300 2301
7 353 1012 1761 2018 2193 2302 2303
7 360 1070 1588 1988 2229 2304 2305
7 368 1237 1549 1863 2306 2307 2308
7 370 860 1566 1986 2309 2310 2311
7 377 1169 1399 1992 2189 2312 2313
7 384 1119 1379 2117 2203 2314 2315
7 389 751 1731 1909 2307 2316 2317
7 400 1262 1458 1847 2318 2319 2320
7 402 1231 1373 2086 2186 2321 2322
7 410 1176 1738 1835 2323 2324 2325
7 413 843 1680 2123 2305 2326 2327
7 422 1036 1610 1858 2294 2328 2329
7 425 934 1384 1922 2167 2330 2331
7 431 762 1466 2023 2324 2332 2333
7 437 1165 1403 2149 2224 2271 2334
7 444 1144 1523 1866 2295 2335 2336
7 447 735 1788 1964 2319 2337 2338
7 459 1100 1601 2136 2169 2339 2340
7 463 1033 1770 1927 2226 2284 2341
7 470 1222 1486 2024 2184 2342 2343
7 473 939 1349 2054 2179 2323 2344
7 482 997 1510 1826 2321 2345 2346
7 483 817 1636 1956 2298 2347 2348
7 492 1205 1656 1807 2314 2349 2350
7 497 1227 1338 2151 2201 2281 2351
7 500 777 1782 2058 2343 2346 2352
7 507 1109 1423 1919 2213 2353 2354
7 515 1089 1747 1882 2311 2355 2356
7 518 798 1477 2127 2303 2357 2358
7 525 1155 1648 1896 2196 2268 2359
7 533 1201 1449 2154 2214 2360 2361
7 537 1060 1794 2059 2178 2332 2362
7 540 738 1494 2107 2267 2349 2363
7 546 943 1409 1942 2209 2355 2364
7 554 872 1723 1878 2274 2327 2365
7 558 1080 1694 1973 2187 2276 2366
7 563 1185 1544 2110 2172 2337 2367
7 568 1129 1719 2091 2217 2347 2368
7 573 946 1692 1802 2240 2369 2370
7 575 834 1704 2090 2265 2335 2371
7 581 1114 1323 2094 2182 2287 2372
7 587 1173 1343 1945 2165 2328 2373
7 591 782 1499 2143 2253 2369 2374
7 599 981 1777 1818 2279 2358 2375
7 602 869 1623 1915 2175 2235 2376
7 608 897 1663 2043 2208 2309 2377
7 613 954 1453 2064 2163 2292 2378
7 615 727 1562 1906 2234 2340 2379
7 624 1052 1446 1886 2244 2353 2380
7 626 907 1434 1998 2218 2297 2381
7 631 769 1571 2010 2289 2301 2382
7 637 1016 1394 1995 2174 2318 2383
7 643 1132 1581 1855 2261 2330 2384
7 645 824 1734 1933 2256 2361 2385
7 653 1103 1491 1831 2278 2312 2386
7 656 1027 1354 2113 2192 2245 2387
7 663 889 1536 1814 2238 2270 2388
7 665 721 1684 1979 2246 2263 2389
7 672 911 1334 2081 2170 2232 2390
7 676 901 1369 1925 2162 2306 2391
7 680 828 1472 2073 2249 2272 2392
7 689 926 1678 1842 2237 2290 2393
7 692 987 1526 1951 2211 2242 2394
7 698 918 1716 1966 2166 2259 2395
7 703 976 1518 2099 2160 2316 2396
7 708 963 1620 1875 2257 2286 2397
7 711 1021 1418 2051 2216 2254 2398
7 715 744 1645 2036 2251 2283 2399
7 510 986 1767 2071 2326 2400 2401
7 404 1220 1737 2022 2374 2402 2403
7 323 865 1632 1976 2382 2404 2405
7 679 975 1691 2142 2352 2406 2407
7 379 1077 1797 2007 2236 2408 2409
7 284 1069 1592 1955 2392 2410 2411
7 549 894 1522 2089 2385 2412 2413
7 714 1200 1619 2156 2371 2414 2415
7 334 1292 1746 1984 2285 2416 2417
7 236 1029 1667 1930 2310 2418 2419
7 629 1125 1722 2122 2243 2420 2421
7 583 1135 1490 2104 2389 2422 2423
7 190 1256 1548 1907 2333 2424 2425
7 658 1272 1677 2134 2277 2426 2427
7 475 1057 1509 2056 2317 2428 2429
7 438 1265 1445 2040 2348 2430 2431
7 589 952 1655 2106 2399 2432 2433
7 184 1152 1755 1903 2357 2434 2435
7 639 1183 1776 2126 2269 2436 2437
7 427 914 1713 2034 2293 2438 2439
7 385 1240 1609 2011 2260 2440 2441
7 674 1098 1535 2140 2338 2442 2443
7 296 1009 1457 1962 2379 2444 2445
7 498 1308 1580 2066 2363 2446 2447
7 490 1044 1730 2065 2384 2448 2449
7 524 891 1698 2080 2195 2450 2451
7 151 831 1424 1887 2368 2438 2452
7 24 728 1389 1815 2367 2408 2453
7 556 1105 1764 2093 2177 2454 2455
7 572 924 1733 2100 2325 2456 2457
7 329 1171 1774 1982 2351 2411 2458
7 394 900 1744 2016 2322 2433 2459
7 649 1020 1771 2131 2296 2403 2460
7 276 1048 1787 1952 2299 2461 2462
7 51 770 1398 1830 2262 2420 2463
7 461 966 1779 2050 2210 2449 2464
7 374 942 1617 2006 2398 2423 2461
7 618 909 1649 2119 2383 2415 2465
7 634 1113 1695 2125 2387 2447 2456
7 255 1146 1710 1941 2228 2463 2466
7 707 1086 1736 2155 2356 2467 2468
7 74 722 1364 1843 2366 2418 2469
7 262 1206 1791 1944 2168 2470 2471
7 129 823 1438 1874 2264 2440 2450
7 596 1123 1789 2111 2233 2458 2472
7 222 949 1725 1924 2180 2473 2474
7 408 1246 1784 2025 2308 2475 2476
7 94 747 1383 1854 2266 2428 2454
7 690 1055 1652 2148 2230 2469 2477
7 45 765 1374 1827 2396 2400 2478
7 443 880 1569 2044 2397 2474 2479
7 198 1108 1750 1913 2275 2405 2480
7 503 1229 1795 2070 2241 2435 2481
7 452 1014 1762 2047 2239 2401 2482
7 202 1005 1643 1916 2386 2471 2483
7 600 929 1613 2112 2183 2468 2484
7 81 801 1393 1846 2339 2406 2485
7 116 859 1429 1867 2360 2436 2486
7 695 1133 1740 2150 2164 2476 2487
7 300 885 1689 1967 2350 2465 2488
7 102 741 1344 1859 2395 2404 2489
7 652 1151 1574 2133 2393 2451 2490
7 467 1000 1530 2053 2207 2453 2491
7 169 1270 1702 1897 2320 2492 2493
7 162 840 1433 1894 2248 2442 2470
7 350 983 1674 1994 2171 2457 2494
7 1 752 1359 1803 2342 2416 2495
7 552 971 1637 2092 2273 2460 2496
7 565 1279 1758 2097 2212 2493 2497
7 179 1196 1671 1902 2372 2445 2475
7 718 1225 1717 2159 2315 2417 2498
7 487 905 1589 2063 2354 2407 2499
7 8 792 1378 1806 2250 2426 2473
7 313 1095 1708 1974 2247 2459 2500
7 534 1178 1752 2085 2161 2462 2501
7 661 995 1564 2137 2375 2498 2502
7 136 818 1414 1879 2394 2434 2503
7 561 1263 1627 2095 2197 2452 2504
7 108 781 1368 1862 2362 2412 2497
7 339 1254 1682 1989 2380 2455 2505
7 358 874 1540 1997 2225 2495 2502
7 668 1025 1624 2139 2313 2437 2506
7 244 931 1585 1937 2373 2413 2492
7 415 1302 1720 2030 2334 2425 2467
7 206 1219 1605 1918 2219 2488 2507
7 57 774 1348 1834 2252 2430 2464
7 513 1282 1705 2075 2255 2480 2508
7 683 1164 1527 2145 2381 2427 2479
7 433 937 1487 2039 2391 2443 2483
7 520 1188 1545 2079 2390 2431 2448
7 686 1181 1685 2147 2288 2481 2509
7 247 1319 1659 1938 2188 2485 2510
7 30 732 1329 1819 2359 2424 2484
7 142 837 1408 1883 2341 2444 2487
7 214 1075 1513 1921 2204 2486 2511
7 641 1286 1647 2129 2329 2477 2512
7 577 1234 1664 2103 2258 2409 2513
7 270 1305 1602 1949 2280 2419 2512
7 289 1167 1553 1960 2291 2439 2514
7 605 1090 1575 2114 2215 2472 2515
7 229 1142 1507 1928 2336 2499 2510
7 36 810 1353 1822 2300 2414 2507
7 610 1037 1481 2116 2200 2503 2509
7 156 848 1419 1891 2377 2432 2516
7 396 1066 1480 2019 2388 2466 2517
7 700 1239 1596 2152 2185 2489 2508
7 479 961 1469 2060 2370 2506 2511
7 16 787 1339 1811 2378 2402 2518
7 419 1211 1496 2032 2282 2482 2519
7 454 1291 1556 2048 2173 2500 2516
7 120 852 1404 1871 2304 2446 2494
7 86 805 1333 1850 2302 2422 2501
7 343 1160 1440 1991 2191 2496 2518
7 364 1314 1501 2001 2345 2504 2514
7 543 1117 1454 2088 2331 2421 2517
7 592 1297 1519 2109 2344 2441 2490
7 309 1193 1450 1972 2364 2429 2505
7 622 1215 1473 2121 2365 2491 2513
7 66 756 1324 1839 2376 2410 2515
7 528 1251 1461 2083 2221 2478 2519
