# Generated using Miratope v0.5.0 (https://github.com/galoomba1/miratope-rs)
4OFF

# Vertices, Faces, Edges, Cells
120 2520 1200 720

# Vertices
0.809016994374945 -0.809016994374945 -0.809016994374945 0.809016994374945 
0 -1.61803398874989 0 0 
0 0 -1.61803398874989 0 
1.30901699437495 0.5 0 0.809016994374945 
-0.809016994374945 -0.809016994374945 -0.809016994374945 -0.809016994374945 
-0.809016994374945 0 0.5 -1.30901699437495 
0 -0.809016994374945 1.30901699437495 -0.5 
0.5 1.30901699437495 -0.809016994374945 0 
0.809016994374945 0.5 1.30901699437495 0 
0 1.30901699437495 0.5 -0.809016994374945 
0.809016994374945 -0.809016994374945 0.809016994374945 0.809016994374945 
-0.809016994374945 -0.809016994374945 0.809016994374945 0.809016994374945 
1.30901699437495 0 0.809016994374945 -0.5 
-0.809016994374945 -0.809016994374945 -0.809016994374945 0.809016994374945 
1.30901699437495 0 -0.809016994374945 -0.5 
-1.30901699437495 0 0.809016994374945 -0.5 
-1.30901699437495 0 -0.809016994374945 -0.5 
0 0.5 0.809016994374945 -1.30901699437495 
0 0.5 -0.809016994374945 -1.30901699437495 
0.809016994374945 -0.809016994374945 0.809016994374945 -0.809016994374945 
0.809016994374945 -0.809016994374945 -0.809016994374945 -0.809016994374945 
-0.809016994374945 -0.809016994374945 0.809016994374945 -0.809016994374945 
0.809016994374945 0.5 -1.30901699437495 0 
-0.809016994374945 0.5 1.30901699437495 0 
-0.809016994374945 0.5 -1.30901699437495 0 
0.809016994374945 1.30901699437495 0 0.5 
-0.809016994374945 1.30901699437495 0 0.5 
-0.809016994374945 0.809016994374945 -0.809016994374945 0.809016994374945 
-0.809016994374945 0.809016994374945 -0.809016994374945 -0.809016994374945 
0.5 0.809016994374945 0 1.30901699437495 
0.5 0.809016994374945 0 -1.30901699437495 
0.5 -0.809016994374945 0 1.30901699437495 
0.5 -0.809016994374945 0 -1.30901699437495 
1.30901699437495 0.809016994374945 0.5 0 
1.30901699437495 -0.809016994374945 0.5 0 
0.809016994374945 0.809016994374945 -0.809016994374945 0.809016994374945 
0.809016994374945 0.809016994374945 -0.809016994374945 -0.809016994374945 
0 1.30901699437495 0.5 0.809016994374945 
0 -1.30901699437495 0.5 0.809016994374945 
0 -1.30901699437495 0.5 -0.809016994374945 
-0.5 0 1.30901699437495 0.809016994374945 
-0.5 0 1.30901699437495 -0.809016994374945 
0 0 1.61803398874989 0 
0.809016994374945 0 -0.5 -1.30901699437495 
-1.30901699437495 0.5 0 0.809016994374945 
-0.5 1.30901699437495 0.809016994374945 0 
0 -0.809016994374945 -1.30901699437495 -0.5 
0 1.30901699437495 -0.5 -0.809016994374945 
-0.809016994374945 0.809016994374945 0.809016994374945 -0.809016994374945 
-1.61803398874989 0 0 0 
0 0 0 -1.61803398874989 
0.5 1.30901699437495 0.809016994374945 0 
0 -0.809016994374945 -1.30901699437495 0.5 
-0.809016994374945 0 -0.5 1.30901699437495 
1.30901699437495 0.5 0 -0.809016994374945 
1.30901699437495 0 -0.809016994374945 0.5 
0 0 0 1.61803398874989 
0 0.809016994374945 -1.30901699437495 -0.5 
0.5 -1.30901699437495 0.809016994374945 0 
1.30901699437495 -0.5 0 0.809016994374945 
-0.809016994374945 0 -0.5 -1.30901699437495 
0.809016994374945 0.809016994374945 0.809016994374945 0.809016994374945 
1.61803398874989 0 0 0 
0 0.809016994374945 1.30901699437495 -0.5 
-0.5 -1.30901699437495 -0.809016994374945 0 
0.809016994374945 0 0.5 -1.30901699437495 
-1.30901699437495 -0.5 0 0.809016994374945 
-0.5 -0.809016994374945 0 -1.30901699437495 
-0.5 1.30901699437495 -0.809016994374945 0 
0 -0.809016994374945 1.30901699437495 0.5 
0.809016994374945 0 0.5 1.30901699437495 
-1.30901699437495 0.5 0 -0.809016994374945 
-0.5 0.809016994374945 0 1.30901699437495 
-1.30901699437495 0 0.809016994374945 0.5 
0 1.61803398874989 0 0 
1.30901699437495 -0.5 0 -0.809016994374945 
-0.809016994374945 0 0.5 1.30901699437495 
0 0.809016994374945 1.30901699437495 0.5 
0.5 -1.30901699437495 -0.809016994374945 0 
0.809016994374945 -0.5 1.30901699437495 0 
-0.809016994374945 0.809016994374945 0.809016994374945 0.809016994374945 
0 1.30901699437495 -0.5 0.809016994374945 
0 -1.30901699437495 -0.5 0.809016994374945 
0 -1.30901699437495 -0.5 -0.809016994374945 
0.5 0 -1.30901699437495 0.809016994374945 
0.5 0 -1.30901699437495 -0.809016994374945 
0.809016994374945 0.809016994374945 0.809016994374945 -0.809016994374945 
-0.5 0.809016994374945 0 -1.30901699437495 
-0.5 -0.809016994374945 0 1.30901699437495 
-1.30901699437495 0.809016994374945 -0.5 0 
-1.30901699437495 -0.809016994374945 -0.5 0 
0.809016994374945 -0.5 -1.30901699437495 0 
-0.809016994374945 -0.5 1.30901699437495 0 
-0.809016994374945 -0.5 -1.30901699437495 0 
0.809016994374945 -1.30901699437495 0 -0.5 
-0.809016994374945 -1.30901699437495 0 -0.5 
1.30901699437495 0 0.809016994374945 0.5 
-1.30901699437495 0 -0.809016994374945 0.5 
0 -0.5 0.809016994374945 1.30901699437495 
0 -0.5 -0.809016994374945 1.30901699437495 
0.809016994374945 0 -0.5 1.30901699437495 
-1.30901699437495 -0.5 0 -0.809016994374945 
0 0.809016994374945 -1.30901699437495 0.5 
-0.5 -1.30901699437495 0.809016994374945 0 
-0.809016994374945 1.30901699437495 0 -0.5 
1.30901699437495 -0.809016994374945 -0.5 0 
0.809016994374945 1.30901699437495 0 -0.5 
-1.30901699437495 -0.809016994374945 0.5 0 
0.5 0 1.30901699437495 0.809016994374945 
0 -0.5 -0.809016994374945 -1.30901699437495 
0 0.5 -0.809016994374945 1.30901699437495 
0.5 0 1.30901699437495 -0.809016994374945 
0.809016994374945 -1.30901699437495 0 0.5 
-1.30901699437495 0.809016994374945 0.5 0 
1.30901699437495 0.809016994374945 -0.5 0 
-0.809016994374945 -1.30901699437495 0 0.5 
0 0.5 0.809016994374945 1.30901699437495 
-0.5 0 -1.30901699437495 -0.809016994374945 
0 -0.5 0.809016994374945 -1.30901699437495 
-0.5 0 -1.30901699437495 0.809016994374945 

# Faces
4 0 2 4 1
5 0 3 8 6 1
4 0 3 7 2
4 4 1 6 5
5 7 2 4 5 9
4 8 3 7 9
4 8 9 5 6
4 10 11 13 0
4 0 10 12 14
5 11 10 12 17 15
5 0 13 16 18 14
4 11 15 16 13
4 12 17 18 14
4 17 18 16 15
4 20 19 21 4
5 19 20 22 25 8
4 19 21 23 8
4 20 4 24 22
5 4 24 26 23 21
4 25 26 23 8
4 26 24 22 25
4 27 13 4 28
5 27 29 33 30 28
4 27 13 31 29
4 28 30 32 4
5 13 31 34 32 4
4 33 34 31 29
4 33 34 32 30
4 36 20 0 35
4 36 35 37 9
5 37 35 0 38 40
5 36 9 41 39 20
4 0 20 39 38
4 40 37 9 41
4 41 40 38 39
4 19 1 11 42
5 42 19 43 47 45
4 19 1 46 43
4 11 44 45 42
5 11 44 24 46 1
4 47 45 44 24
4 47 43 46 24
4 49 4 50 48
5 49 48 51 29 53
4 50 54 51 48
4 49 53 52 4
5 50 54 55 52 4
4 51 54 55 29
4 29 53 52 55
4 27 56 11 49
5 27 56 59 14 57
4 49 27 57 60
4 56 11 58 59
5 58 11 49 60 32
4 14 32 58 59
4 57 14 32 60
4 62 0 56 61
4 62 65 63 61
5 63 61 56 66 15
5 62 0 64 67 65
4 0 64 66 56
4 65 67 15 63
4 66 15 67 64
4 62 19 50 36
5 70 62 36 68 72
4 50 71 68 36
4 62 70 69 19
5 69 19 50 71 73
4 70 72 73 69
4 68 71 73 72
4 36 2 27 74
5 36 74 77 79 75
4 2 78 75 36
4 27 74 77 76
5 2 78 38 76 27
4 77 79 38 76
4 75 78 38 79
4 80 48 21 11
4 80 81 47 48
5 11 82 84 81 80
5 21 83 85 47 48
4 11 21 83 82
4 81 84 85 47
4 84 85 83 82
4 86 61 10 19
5 86 61 72 89 87
4 10 88 72 61
4 19 86 87 67
5 19 67 90 88 10
4 72 89 90 88
4 89 90 67 87
4 61 80 27 35
5 61 79 94 91 35
4 80 61 79 92
4 35 91 93 27
5 92 80 27 93 95
4 92 79 94 95
4 94 91 93 95
4 36 28 48 86
4 86 96 55 36
5 48 86 96 98 73
5 28 97 99 55 36
4 48 73 97 28
4 96 55 99 98
4 99 98 73 97
4 61 74 48 42
4 74 102 100 61
5 61 42 103 82 100
5 74 102 93 101 48
4 42 48 101 103
4 100 82 93 102
4 82 103 101 93
4 21 1 13 49
4 21 49 104 17
5 21 17 54 105 1
5 49 104 7 84 13
4 13 1 105 84
4 7 54 105 84
4 7 104 17 54
4 62 20 1 10
5 10 40 45 106 62
4 1 107 40 10
4 62 106 18 20
5 20 18 71 107 1
4 45 106 18 71
4 40 45 71 107
4 35 2 13 56
4 56 108 33 35
5 2 35 33 65 109
5 56 13 95 6 108
4 2 13 95 109
4 108 33 65 6
4 6 65 109 95
4 2 28 50 20
5 2 110 70 34 20
4 20 50 111 34
4 28 26 110 2
5 28 50 111 77 26
4 70 34 111 77
4 77 26 110 70
4 86 74 35 62
5 62 112 103 41 86
4 86 74 113 41
4 35 62 112 99
5 74 35 99 66 113
4 113 41 103 66
4 112 99 66 103
4 74 80 49 28
5 80 98 59 114 74
4 80 98 115 49
4 74 114 85 28
5 49 115 78 85 28
4 59 78 85 114
4 98 59 78 115
4 42 86 50 21
4 42 86 25 116
5 25 86 50 117 102
5 116 42 21 90 53
4 21 90 117 50
4 25 102 53 116
4 102 117 90 53
4 10 42 80 56
4 42 118 94 10
5 56 119 46 94 10
5 42 80 89 60 118
4 80 89 119 56
4 89 60 46 119
4 118 60 46 94
4 86 47 22 62
4 41 86 47 71
4 112 62 22 52
4 103 41 71 90
5 71 47 22 52 90
4 112 103 90 52
4 48 74 33 111
4 48 101 39 111
4 74 33 55 102
5 55 33 111 39 78
4 93 78 55 102
4 39 101 93 78
4 35 106 12 59
4 35 59 82 119
5 35 106 87 16 119
5 59 82 95 118 12
4 106 12 118 87
4 118 95 16 87
4 82 95 16 119
5 114 51 42 58 105
4 42 15 104 51
4 58 95 15 42
4 114 57 104 51
4 114 57 46 105
4 105 58 95 46
5 104 15 95 46 57
5 96 111 21 115 31
4 111 30 60 21
4 21 60 93 115
4 96 31 84 114
4 96 114 30 111
5 114 30 60 93 84
4 84 93 115 31
4 19 96 51 17
5 19 96 100 52 83
4 19 83 60 17
4 51 81 100 96
5 51 17 60 24 81
4 81 100 52 24
4 24 60 83 52
4 33 36 91 59
4 33 36 87 63
5 91 36 87 101 64
5 33 59 38 92 63
4 59 91 64 38
4 63 92 101 87
4 38 64 101 92
4 35 68 45 61
4 61 45 41 79
4 35 91 117 68
4 41 79 94 67
5 68 45 41 67 117
4 94 67 117 91
4 86 79 39 50
4 86 79 70 25
4 50 39 64 117
4 102 99 70 25
5 70 99 64 39 79
4 99 102 117 64
4 21 69 77 48
4 77 48 47 25
4 21 69 112 83
5 55 25 77 69 112
4 25 47 85 55
4 83 112 55 85
4 42 61 106 17
4 61 100 22 106
4 42 17 67 103
5 106 22 46 67 17
4 82 46 22 100
4 103 67 46 82
4 29 74 63 108
4 29 74 57 84
5 57 74 63 118 109
5 29 84 78 58 108
4 108 63 118 58
4 118 109 78 58
4 57 109 78 84
4 14 2 68 106
4 2 14 94 64
5 2 64 107 113 68
5 106 63 6 94 14
4 63 106 68 113
4 6 63 113 107
4 6 94 64 107
4 0 110 25 62
4 110 0 64 97
4 65 9 25 62
5 25 110 97 71 9
4 67 71 9 65
4 67 71 97 64
4 28 36 65 5
4 55 36 65 34
4 97 28 5 107
4 34 55 99 38
5 38 34 65 5 107
4 97 107 38 99
4 49 23 9 28
4 28 85 54 9
4 49 115 69 23
5 54 34 69 23 9
4 78 34 54 85
4 69 115 78 34
4 19 10 3 54
4 88 110 3 10
4 54 19 67 18
5 110 3 54 18 24
4 88 110 24 90
4 24 90 67 18
4 37 27 84 3
5 27 37 63 5 16
4 27 16 46 84
4 37 3 12 63
5 3 84 46 32 12
4 12 32 5 63
4 5 16 46 32
5 23 51 3 31 11
4 23 11 95 5
4 11 95 78 31
4 3 51 30 14
4 3 14 78 31
4 23 51 30 5
5 30 5 95 78 14
5 116 10 105 22 81
4 10 6 23 116
4 10 6 32 105
4 116 81 104 23
4 104 18 22 81
5 23 6 32 18 104
4 22 18 32 105
4 69 1 32 111
5 1 52 110 116 69
4 1 32 85 52
4 116 110 7 51
4 51 111 69 116
5 51 111 32 85 7
4 110 52 85 7
4 28 7 37 113
4 28 7 14 109
5 113 28 109 39 92
5 37 108 34 14 7
4 37 113 92 108
4 108 34 39 92
4 34 39 109 14
4 4 50 41 107
4 4 107 88 52
4 50 41 8 54
4 70 55 54 8
5 70 88 107 41 8
4 52 88 70 55
4 56 10 8 37
4 10 94 65 8
4 37 56 119 68
5 8 37 68 18 65
4 46 18 68 119
4 94 46 18 65
4 75 114 47 50
5 75 112 115 101 50
4 50 101 89 47
4 114 75 112 100
5 114 47 89 53 100
4 100 53 115 112
4 89 101 115 53
5 48 30 75 58 92
4 48 89 66 92
4 30 57 89 48
4 58 82 91 75
4 75 91 57 30
4 58 82 66 92
5 66 82 91 57 89
4 86 114 81 45
5 114 86 118 83 91
4 86 118 15 45
4 81 114 91 119
5 81 119 90 15 45
4 15 90 83 118
4 91 83 90 119
4 80 74 87 15
4 80 15 103 98
4 114 74 87 43
4 114 43 94 59
4 98 59 94 103
5 103 94 43 87 15
4 114 29 77 86
4 118 92 77 86
5 29 77 92 115 99
4 114 29 99 91
4 92 118 83 115
4 91 99 115 83
4 42 19 112 98
4 19 43 91 112
4 45 42 98 72
4 45 72 102 47
5 72 102 91 112 98
4 47 43 91 102
4 36 117 89 74
4 36 75 83 117
4 77 73 89 74
4 77 79 103 73
4 75 79 103 83
5 89 117 83 103 73
4 86 61 59 75
4 61 72 99 59
4 86 75 109 87
5 75 109 93 99 59
4 89 93 99 72
4 89 87 109 93
4 79 98 100 62
4 62 79 118 43
5 100 62 43 117 119
5 66 98 79 118 101
4 100 119 66 98
4 119 117 101 66
4 118 101 117 43
4 48 60 43 86
4 86 43 105 96
4 48 60 90 73
4 96 98 82 105
4 98 73 90 82
5 43 105 82 90 60
5 12 43 57 81 61
4 61 98 58 12
4 61 81 53 98
4 12 43 83 58
4 81 53 93 57
5 53 93 83 58 98
4 57 43 83 93
4 42 96 29 80
4 89 102 29 80
4 42 118 75 96
5 96 75 85 102 29
4 118 75 85 60
4 89 60 85 102
4 30 74 35 14
4 14 35 99 78
4 30 74 113 5
4 66 95 78 99
4 113 5 95 66
5 0 88 44 68 22
4 0 94 103 88
4 43 22 0 94
4 15 44 68 87
4 68 87 43 22
4 15 44 88 103
4 36 102 52 20
4 9 36 102 26
4 20 39 115 52
4 26 9 41 73
5 73 115 52 102 26
4 41 39 115 73
4 9 50 75 33
4 50 101 113 9
5 70 33 9 113 76
4 70 112 75 33
4 70 112 115 76
4 76 115 101 113
4 19 103 64 20
4 19 8 40 103
4 22 119 64 20
4 8 40 72 25
4 72 25 22 119
5 72 40 103 64 119
4 56 27 113 40
4 113 27 57 87
4 56 59 79 40
4 59 79 65 14
5 79 65 87 113 40
4 14 57 87 65
4 49 26 116 11
4 11 116 96 58
4 60 47 26 49
5 116 96 54 47 26
4 54 32 58 96
4 54 32 60 47
5 80 108 12 30 104
4 80 108 31 53
4 104 24 53 80
4 12 108 31 105
4 12 105 85 30
5 31 105 85 24 53
4 104 30 85 24
4 12 42 21 32
4 90 46 32 21
4 42 12 3 116
4 84 53 116 3
4 90 46 84 53
4 80 66 38 108
4 80 66 16 104
4 108 12 94 38
4 30 12 94 109
4 104 16 109 30
5 94 38 66 16 109
4 102 97 4 85
5 4 97 76 69 39
4 75 39 4 85
4 96 29 76 69
4 96 69 39 75
4 102 97 76 29
4 100 116 8 62
4 62 8 17 43
5 8 17 71 44 116
4 116 100 119 44
4 44 119 117 71
4 43 117 71 17
4 21 1 88 73
4 17 45 73 21
4 105 1 88 100
5 45 25 100 88 73
4 25 54 105 100
4 45 17 54 25
4 26 48 92 76
4 26 48 30 7
5 26 7 55 31 76
4 30 7 55 75
4 75 55 31 58
4 76 92 58 31
4 6 11 80 63
4 80 63 106 81
4 11 6 94 82
4 14 84 81 106
4 82 94 14 84
5 106 3 56 44 104
4 3 105 82 56
4 90 44 56 82
4 105 3 106 43
4 60 104 106 43
4 104 60 90 44
4 7 27 80 51
4 92 111 51 80
4 27 7 85 93
4 111 92 95 32
4 85 93 95 32
4 105 19 50 85
4 19 105 31 69
4 85 50 71 24
4 69 31 53 73
4 71 24 53 73
4 62 94 109 36
4 16 68 36 109
4 62 94 38 70
4 38 70 72 66
4 16 68 72 66
4 65 20 112 79
5 112 20 117 97 88
4 65 20 117 87
4 79 112 88 40
4 40 88 97 113
4 113 97 117 87
4 35 2 97 72
4 35 72 77 33
4 2 109 101 97
4 65 41 77 33
5 41 77 72 97 101
4 41 65 109 101
4 54 20 112 96
4 47 117 20 54
4 88 116 96 112
4 26 97 88 116
4 117 47 26 97
4 61 12 6 40
4 61 81 44 40
4 12 43 67 6
5 6 40 44 16 67
4 57 16 44 81
4 57 43 67 16
5 49 5 111 108 76
4 93 49 76 99
4 109 5 49 93
4 99 76 108 59
4 59 108 111 75
4 109 5 111 75
4 34 3 56 38
4 38 56 44 107
4 65 106 3 34
4 104 5 65 106
4 104 5 107 44
4 34 0 88 69
4 34 0 22 54
4 9 68 22 54
4 9 68 44 23
4 23 44 88 69
5 13 110 37 23 107
4 55 110 13 78
4 78 13 107 39
4 55 110 37 33
4 37 33 111 23
4 23 111 39 107
4 1 31 55 20
4 18 7 55 20
4 31 1 107 76
4 26 71 107 76
4 71 26 7 18
4 22 110 13 46
4 46 13 107 67
4 106 37 23 17
4 106 37 110 22
4 107 67 17 23
4 104 27 2 18
4 27 104 23 76
4 2 18 32 78
4 6 38 76 23
4 32 78 38 6
4 34 1 11 108
4 11 108 37 44
4 14 46 1 34
4 24 7 37 44
4 14 46 24 7
4 4 71 44 13
4 44 13 31 116
4 17 32 4 71
4 31 116 8 34
4 34 8 17 32
4 24 49 76 110
4 5 18 24 49
4 108 3 54 111
4 110 76 108 3
4 111 54 18 5
4 0 70 76 13
4 14 33 70 0
4 113 16 13 76
4 18 9 33 14
4 113 16 18 9
4 18 4 97 68
4 39 65 18 4
4 8 69 76 37
4 65 39 69 8
4 68 97 76 37
4 20 67 16 2
4 20 67 6 34
4 44 110 2 16
4 70 40 6 34
4 70 40 44 110
4 73 42 51 26
4 58 115 73 42
4 51 26 102 114
4 102 114 105 52
4 105 52 115 58
4 118 48 49 95
4 118 48 51 12
4 82 53 49 95
4 12 51 29 59
4 53 82 59 29
4 53 11 10 100
4 12 114 100 10
4 89 15 11 53
4 47 17 12 114
4 47 17 15 89
4 10 82 91 62
4 10 82 66 40
4 106 57 91 62
4 57 106 45 89
4 66 40 45 89
4 27 66 101 28
4 29 98 66 27
4 101 28 30 118
4 29 98 79 33
4 79 33 30 118
4 96 77 41 19
4 83 101 41 19
4 72 100 96 77
4 52 97 72 100
4 83 101 97 52
4 100 91 36 25
4 25 36 87 45
4 91 100 88 64
4 101 73 45 87
4 101 73 88 64
4 113 72 102 28
4 91 109 28 102
4 113 72 98 92
4 92 98 112 39
4 109 91 112 39
4 72 74 63 40
4 72 74 57 119
4 118 103 40 63
4 118 103 64 109
4 109 64 119 57
4 10 103 73 116
4 105 83 103 10
4 73 116 81 89
4 22 117 89 81
4 22 117 83 105
4 61 114 84 56
4 61 114 30 63
4 56 84 93 66
4 15 60 30 63
4 93 66 15 60
4 50 83 93 28
4 28 93 53 26
4 111 58 83 50
4 26 53 98 77
4 77 98 58 111
4 38 13 49 92
4 13 38 59 84
4 49 92 63 104
4 33 7 84 59
4 7 33 63 104
4 0 119 90 1
4 3 81 119 0
4 1 90 15 6
4 8 45 81 3
4 8 45 15 6
4 71 21 111 9
4 21 71 97 115
4 96 25 110 31
4 111 9 25 96
4 115 97 110 31
4 2 55 25 68
4 2 55 112 64
4 25 68 113 77
4 77 113 107 69
4 69 107 64 112
4 8 106 35 70
4 70 35 119 88
4 87 41 8 106
4 107 16 119 88
4 87 41 107 16
4 37 70 99 27
4 16 64 99 27
4 63 79 70 37
4 39 5 63 79
4 16 64 39 5
4 71 23 11 90
4 52 31 11 90
4 3 22 47 51
4 52 31 3 22
4 51 47 71 23
4 4 78 58 21
4 21 58 108 23
4 84 24 4 78
4 29 26 23 108
4 24 84 29 26
4 81 56 13 24
4 95 60 24 13
4 56 81 51 108
4 17 6 108 51
4 95 60 17 6
4 0 46 57 35
4 35 57 104 37
4 46 0 38 95
4 40 15 104 37
4 95 38 40 15
4 115 4 2 99
4 115 4 5 92
4 99 2 7 29
4 77 9 7 29
4 92 5 9 77
4 41 69 1 67
4 67 1 52 117
4 69 41 45 116
4 116 45 68 110
4 117 52 110 68
5 105 1 0 94 82
4 2 109 94 0
4 1 105 85 4
5 4 85 93 109 2
4 82 105 85 93
4 93 109 94 82
4 0 64 103 10
5 98 58 11 10 103
5 0 64 99 78 13
4 11 13 78 58
4 99 78 58 98
4 99 64 103 98
5 19 43 94 65 20
4 21 60 43 19
4 4 20 65 5
5 5 95 60 21 4
4 5 95 94 65
4 94 43 60 95
5 89 57 27 28 102
4 27 57 46 13
4 4 28 102 52
5 4 13 46 90 52
4 90 89 102 52
4 57 89 90 46
4 36 35 59 75
5 0 3 84 59 35
5 20 54 85 75 36
4 0 20 54 3
4 85 84 3 54
4 85 75 59 84
5 42 118 79 41 19
4 107 1 19 41
4 42 118 95 11
5 107 1 11 95 38
4 79 38 107 41
4 95 38 79 118
5 48 89 15 104 49
4 48 89 117 50
4 4 18 104 49
5 50 4 18 67 117
4 67 15 104 18
4 15 89 117 67
5 56 27 99 72 119
4 49 27 99 115
4 119 56 11 90
5 73 115 49 11 90
4 73 115 99 72
4 119 72 73 90
4 112 62 61 98
5 61 98 29 108 56
5 62 0 34 55 112
4 56 0 34 108
4 29 55 34 108
4 55 112 98 29
5 36 33 14 106 62
4 50 36 33 111
4 19 62 106 17
5 19 17 32 111 50
4 32 111 33 14
4 14 106 17 32
5 74 114 47 25 36
4 2 36 25 110
4 27 84 114 74
5 110 2 27 84 24
4 24 110 25 47
4 114 47 24 84
4 48 80 66 101
5 80 11 44 40 66
5 71 21 48 101 41
4 11 44 71 21
4 41 40 44 71
4 101 41 40 66
5 86 61 63 33 77
4 61 63 6 10
4 19 86 77 69
5 69 19 10 6 34
4 77 33 34 69
4 33 63 6 34
5 25 100 61 35 70
4 100 61 80 53
4 76 70 35 27
5 76 27 80 53 26
4 26 76 70 25
4 25 100 53 26
4 68 36 86 45
5 48 51 17 45 86
5 28 36 68 18 7
4 51 7 28 48
4 17 51 7 18
4 45 17 18 68
4 74 61 40 113
5 8 116 42 61 40
5 48 26 9 113 74
4 48 26 116 42
4 9 8 116 26
4 9 8 40 113
4 21 83 93 49
5 83 103 67 1 21
5 13 16 66 93 49
4 13 16 67 1
4 66 103 67 16
4 66 93 83 103
5 12 10 62 79 59
4 10 1 32 12
4 20 62 79 39
5 20 39 78 32 1
4 59 12 32 78
4 59 79 39 78
4 91 82 56 35
5 55 2 35 91 102
5 31 13 56 82 53
4 13 2 55 31
4 102 55 31 53
4 102 91 82 53
5 2 20 22 46 14
4 22 20 50 47
4 30 14 2 28
5 30 60 47 50 28
4 60 30 14 46
4 60 47 22 46
5 96 54 8 62 86
4 86 74 29 96
4 35 62 8 37
5 35 37 7 29 74
4 29 7 54 96
4 54 8 37 7
5 80 81 45 72 74
4 81 24 49 80
4 97 28 74 72
5 97 71 24 49 28
4 45 72 97 71
4 71 24 81 45
4 87 15 42 86
5 87 65 9 50 86
5 21 42 15 6 23
4 23 9 50 21
4 65 9 23 6
4 87 65 6 15
4 10 42 73 88
5 10 56 38 70 88
5 80 92 77 73 42
4 92 80 56 38
4 70 88 73 77
4 92 77 70 38
4 4 39 38 13
4 46 13 38 94
4 4 52 112 39
5 103 94 38 39 112
4 103 94 46 90
4 90 1 20 117
4 39 101 117 20
4 60 90 1 32
4 32 78 93 60
5 101 117 90 60 93
4 2 78 115 97
5 119 16 2 97 117
4 95 78 2 16
4 83 82 119 117
5 115 83 82 95 78
4 115 97 117 83
5 58 75 112 19 105
4 67 46 105 19
4 67 19 112 64
4 75 112 64 109
4 95 58 75 109
5 109 64 67 46 95
5 88 112 115 31 1
4 31 1 46 84
4 46 1 88 119
4 119 88 112 91
4 93 115 112 91
5 93 91 119 46 84
4 24 18 20 52
5 52 20 64 91 83
4 16 64 20 18
4 91 57 16 64
4 60 83 91 57
5 60 24 18 16 57
4 20 34 31 52
4 34 38 64 20
5 58 31 34 38 59
4 59 58 83 91
4 83 58 31 52
4 75 50 4 78
4 18 4 78 14
4 50 75 91 117
5 91 75 78 14 94
4 14 94 67 18
4 24 13 0 22
4 0 22 117 64
4 78 13 24 85
4 99 78 85 102
5 102 85 24 22 117
4 43 62 0 46
4 32 46 0 34
4 62 43 83 112
4 32 85 55 34
5 46 43 83 85 32
4 99 2 20 112
4 100 22 20 112
4 14 59 99 2
4 59 14 46 82
5 112 100 82 59 99
4 52 117 36 55
4 55 36 109 78
5 109 36 117 43 57
5 52 105 84 78 55
4 105 84 57 43
4 43 105 52 117
5 64 101 115 4 107
4 32 6 107 4
4 32 58 115 4
5 94 6 32 58 118
4 118 101 115 58
4 118 101 64 94
4 109 28 49 95
4 28 97 64 109
4 46 95 49 24
4 46 24 71 67
4 11 53 52 1
4 95 11 53 93
4 1 107 97 52
5 53 93 99 97 52
4 38 95 93 99
4 10 82 83 19
4 95 6 10 82
4 19 69 115 83
4 6 34 78 95
4 27 66 64 2
4 82 84 27 66
4 110 2 64 88
5 88 64 66 82 90
4 90 82 84 24
4 5 28 85 32
5 16 5 28 101 87
4 28 85 83 101
4 101 83 43 87
4 46 16 87 43
5 31 3 10 100 96
4 10 3 14 94
4 94 10 100 91
4 75 96 100 91
4 75 96 31 78
4 62 22 18 65
5 114 91 62 22 105
4 62 65 109 91
4 105 32 30 114
4 30 114 91 109
5 109 30 32 18 65
4 0 110 7 14
5 110 52 100 119 0
4 14 57 119 0
4 100 114 57 119
4 100 114 85 52
5 85 7 14 57 114
4 50 54 34 39
4 54 50 83 105
5 39 109 118 83 50
5 14 34 54 105 12
4 118 83 105 12
4 118 12 14 109
4 56 84 105 10
4 88 52 105 10
4 38 56 84 78
4 38 70 55 78
4 28 93 91 36
4 36 91 119 68
4 84 93 28 7
4 46 84 7 18
4 4 107 44 24
4 24 53 115 4
5 119 44 24 53 89
4 64 107 44 119
4 119 64 101 89
5 92 58 21 69 39
4 88 69 21 90
4 90 82 58 21
4 64 88 69 39
4 64 39 92 66
4 71 107 39 50
4 90 71 50 83
4 118 15 16 109
5 71 107 16 15 90
4 39 107 16 109
4 20 55 96 19
4 43 114 96 19
4 65 20 55 33
5 55 96 114 59 33
4 33 59 94 65
4 62 22 110 70
4 70 62 91 99
5 31 110 70 99 29
4 105 31 29 114
4 105 31 110 22
4 18 2 35 106
4 35 91 43 106
4 54 55 2 18
5 43 106 18 54 47
4 102 55 54 47
4 111 21 1 34
4 21 111 75 83
4 67 1 34 65
5 79 65 34 111 75
4 103 67 65 79
4 68 2 4 71
4 85 47 71 4
4 2 68 87 109
5 87 68 71 47 89
4 47 85 93 89
4 38 76 110 0
4 66 38 0 119
4 98 100 52 115
5 98 66 38 76 115
4 52 115 76 110
4 69 1 0 70
4 94 0 70 79
4 105 96 69 1
5 96 69 70 79 98
4 94 82 98 79
4 99 35 68 97
5 35 57 81 22 68
4 99 93 57 35
4 52 22 81 53
4 22 52 97 68
4 67 20 36 87
4 75 118 87 36
4 54 20 67 17
4 17 54 85 60
5 67 17 60 118 87
4 4 97 73 21
4 89 60 21 73
4 4 97 113 5
5 66 113 97 73 89
4 60 95 66 89
5 44 13 76 97 88
4 95 92 76 13
4 13 44 15 95
4 101 97 76 92
5 92 101 103 15 95
4 88 103 101 97
4 6 11 49 5
4 11 90 67 6
4 115 49 5 39
4 90 73 41 67
5 6 67 41 39 5
4 8 19 105 3
4 19 8 70 112
5 33 70 8 3 108
4 58 108 33 75
4 58 105 3 108
4 3 56 27 7
4 55 7 27 99
4 56 3 22 119
5 7 55 25 22 3
4 99 72 25 55
4 50 85 114 86
4 57 87 86 114
4 7 85 50 9
4 9 7 14 65
4 62 94 118 86
4 86 118 58 96
4 6 8 62 94
4 8 6 32 54
4 102 85 30 74
5 30 74 87 106 104
4 102 117 87 74
4 24 104 106 22
4 87 106 22 117
4 88 0 35 72
4 59 98 72 35
4 3 0 88 116
5 72 98 53 116 88
4 53 98 59 84
5 12 42 96 111 108
4 103 112 96 42
4 103 94 12 42
4 39 112 96 111
4 39 38 108 111
4 84 13 76 29
4 81 84 13 44
5 102 29 84 81 100
4 100 88 44 81
4 100 88 97 102
4 9 71 117 36
4 5 109 36 9
5 104 5 9 71 17
4 17 43 57 104
4 57 104 5 109
4 14 35 61 12
4 61 12 105 100
4 34 70 35 14
4 34 54 25 70
4 86 25 55 75
4 25 22 43 86
5 86 75 30 12 43
4 12 3 7 30
4 12 3 22 43
4 102 36 62 100
4 29 33 36 102
4 106 81 100 62
4 84 29 33 14
5 113 27 104 44 68
4 27 104 60 93
4 101 93 27 113
4 117 68 113 101
4 117 90 44 68
4 50 101 103 19
4 17 19 103 15
4 92 111 50 101
4 15 95 32 17
4 40 56 13 107
4 13 107 69 31
4 40 103 82 56
5 73 103 40 107 69
4 103 82 53 73
4 110 13 49 26
4 16 68 110 13
4 102 26 49 93
5 72 68 110 26 102
4 72 102 93 66
4 1 31 108 6
4 1 88 40 6
4 92 115 31 108
5 108 92 79 40 6
4 115 92 79 112
4 30 48 21 32
4 101 109 30 48
4 18 71 21 32
4 18 71 41 65
4 7 26 97 2
4 104 7 2 16
5 7 26 47 81 104
4 16 104 81 119
4 81 47 117 119
4 41 86 75 39
4 41 67 43 86
4 5 6 12 30
4 5 39 75 30
5 116 11 108 76 69
4 82 59 108 11
4 11 116 100 82
4 112 69 116 100
4 112 69 76 99
5 114 61 106 3 51
4 75 114 61 79
4 61 79 65 106
4 111 51 3 34
4 114 51 111 75
4 35 33 9 68
4 33 30 57 35
5 54 9 33 30 51
4 81 51 54 22
4 81 57 30 51
4 59 56 37 33
5 116 110 37 56 81
4 59 114 81 56
4 116 96 114 81
4 116 96 55 110
4 80 15 16 27
4 90 15 80 53
4 76 107 16 27
4 71 90 53 26
5 113 107 23 49 92
4 49 23 17 60
4 118 60 49 92
4 118 92 113 87
4 113 87 67 107
4 98 42 21 115
4 23 76 115 21
4 42 15 66 98
4 66 38 6 15
4 35 119 89 74
4 35 37 44 119
4 53 29 74 89
4 53 29 7 24
4 61 59 58 42
4 59 38 40 61
4 42 58 31 116
4 40 8 34 38
4 47 54 111 48
5 48 118 63 5 111
4 47 48 118 43
4 118 43 106 63
4 63 106 18 5
4 74 57 60 48
4 24 26 48 60
4 74 113 16 57
4 26 24 18 9
4 17 8 69 21
4 17 21 58 12
5 65 8 17 12 63
4 63 12 58 92
4 65 39 92 63
4 29 80 11 31
4 99 66 80 29
4 44 110 31 11
4 99 70 40 66
4 61 114 102 72
4 61 72 68 106
4 3 110 26 51
4 106 3 110 68
4 62 25 116 10
4 10 116 51 12
4 77 79 62 25
5 29 77 25 116 51
4 79 59 29 77
4 74 63 65 36
4 65 8 25 36
4 74 114 12 63
4 8 17 47 25
4 27 37 9 28
4 57 106 37 27
4 102 28 9 25
5 9 37 106 45 25
4 25 45 89 102
4 54 19 42 51
4 41 19 54 9
4 51 42 118 30
4 41 9 33 79
4 40 10 3 37
4 40 10 100 72
4 3 37 76 31
4 31 76 77 96
5 40 72 77 76 37
4 26 23 5 28
4 28 101 73 26
5 45 73 26 23 44
4 87 45 44 16
4 5 16 44 23
4 53 49 23 116
4 53 49 92 98
4 88 116 23 107
4 88 107 113 72
4 73 48 111 69
4 48 118 103 73
4 107 40 63 5
4 111 5 107 69
4 56 37 113 66
4 89 66 56 81
4 97 113 37 110
4 73 116 110 97
4 28 113 41 50
4 28 113 63 30
4 47 50 41 45
5 41 45 15 63 113
4 45 47 60 15
4 23 11 10 8
4 8 41 103 10
4 23 11 58 111
5 111 23 8 41 77
4 41 103 98 77
4 81 61 86 47
4 81 61 63 104
4 77 86 47 26
4 26 77 33 7
4 80 108 33 74
4 81 3 108 80
4 70 33 74 72
4 70 8 45 72
4 45 25 96 42
4 106 45 42 12
4 12 108 37 106
4 37 9 111 108
4 29 51 104 27
4 29 77 113 27
4 44 116 25 68
4 51 104 44 116
4 74 30 111 77
4 74 87 41 77
4 8 106 104 23
4 30 104 23 111
5 23 37 63 80 51
4 96 51 80 98
4 98 80 63 79
4 23 51 96 69
4 70 37 23 69
4 80 89 47 51
4 89 87 63 80
4 63 37 68 87
4 37 68 71 23
4 61 45 44 56
4 45 73 98 61
4 108 23 44 56
4 98 29 26 73
4 86 79 92 48
4 45 86 79 40
4 92 48 51 108
4 40 6 17 45
4 49 76 77 48
4 89 48 77 72
4 76 49 104 37
4 89 15 40 72
4 80 104 17 42
4 104 80 92 5
4 73 42 17 71
4 71 9 77 73
4 15 11 108 63
4 11 116 45 15
4 108 76 113 63
4 113 76 69 41
4 1 4 50 19
5 8 19 1 88 116
4 8 9 50 19
4 1 4 97 88
5 50 9 26 97 4
4 21 11 13 4
5 17 21 11 116 51
4 13 110 116 11
4 18 4 21 17
5 4 18 7 110 13
4 21 48 86 19
5 100 25 86 19 112
4 25 86 48 26
4 19 112 115 21
5 48 21 115 53 26
4 4 28 36 20
4 20 34 33 36
5 28 36 33 77 113
5 20 4 107 69 34
4 107 4 28 113
4 10 19 20 0
5 10 0 119 44 40
4 41 19 10 40
4 20 117 119 0
5 41 19 20 117 71
4 49 11 42 48
5 48 47 114 96 42
4 48 47 24 49
4 11 31 96 42
5 49 24 84 31 11
4 50 48 74 36
4 29 74 36 55
5 50 39 112 55 36
5 74 48 92 98 29
4 48 92 39 50
4 4 2 27 49
4 27 49 23 37
5 2 14 33 37 27
5 32 4 49 23 111
4 2 14 32 4
4 1 0 56 11
4 22 0 56 81
5 1 67 18 22 0
5 11 15 104 81 56
4 11 1 67 15
4 42 61 62 19
5 62 91 119 72 61
4 61 72 73 42
4 83 19 62 91
5 42 73 90 83 19
4 0 62 36 2
5 79 62 36 87 41
4 36 87 16 2
4 0 62 79 38
5 2 0 38 107 16
4 27 80 48 28
4 48 111 108 80
5 80 108 59 84 27
5 28 48 111 75 85
4 28 85 84 27
4 11 10 61 80
4 114 61 10 105
5 114 61 80 89 57
5 105 10 11 90 46
4 89 80 11 90
4 0 13 27 35
5 65 106 35 0 94
4 27 104 106 35
4 0 94 95 13
5 13 95 5 104 27
4 86 36 35 61
5 86 61 98 103 118
4 99 35 61 98
4 86 118 109 36
5 36 109 64 99 35
4 56 27 74 61
4 74 61 12 30
5 61 56 82 94 12
5 27 93 109 30 74
4 56 82 93 27
4 50 21 49 28
5 29 7 28 49 76
4 50 54 7 28
4 49 76 69 21
5 54 96 69 21 50
4 21 42 10 1
5 42 10 100 81 45
4 10 100 52 1
4 42 21 71 45
5 24 71 21 1 52
4 13 2 20 1
4 6 1 20 65
5 9 68 2 20 65
5 6 1 13 44 23
4 68 2 13 44
4 20 62 86 50
4 70 62 86 77
5 50 101 73 77 86
5 70 88 64 20 62
4 20 64 101 50
4 62 35 56 10
4 62 43 57 35
5 66 16 57 35 56
5 103 10 62 43 67
4 56 10 103 66
4 2 28 74 35
5 74 63 79 59 35
4 78 59 35 2
4 28 74 63 5
5 2 78 39 5 28
4 86 42 80 74
5 75 86 74 102 91
4 42 58 75 86
4 74 102 53 80
5 42 58 82 53 80
4 49 80 56 13
4 80 51 3 56
5 60 30 51 80 49
5 56 3 14 46 13
4 60 46 13 49
4 47 60 118 86
5 90 60 47 81 53
4 90 103 98 53
4 90 60 118 103
4 33 65 87 74
5 87 101 66 72 74
5 33 65 39 38 70
4 87 101 39 65
4 39 101 66 38
5 32 95 11 108 12
4 16 44 11 95
5 18 16 44 37 106
4 106 18 32 12
4 18 16 95 32
4 13 95 58 31
5 29 51 111 58 31
4 111 51 104 5
4 95 58 111 5
4 27 93 115 76
5 77 111 39 115 76
4 39 111 30 109
4 109 93 115 39
4 60 49 115 83
4 51 30 75 96
5 98 96 75 83 115
4 30 75 83 60
5 63 6 38 56 37
4 64 119 56 38
4 87 67 6 63
5 68 87 67 64 119
4 67 6 38 64
4 12 61 45 17
4 67 17 12 94
5 67 17 45 44 90
4 90 67 94 82
4 79 94 43 86
5 45 89 117 43 86
5 66 40 79 94 64
4 66 89 117 64
4 64 117 43 94
4 77 79 118 48
5 83 93 89 48 118
5 79 112 99 72 77
4 83 112 79 118
4 112 99 93 83
4 42 58 32 17
5 46 24 104 17 32
4 46 82 53 24
4 32 46 82 58
5 34 108 76 13 78
4 109 16 13 78
4 65 63 108 34
5 65 109 16 113 63
4 65 34 78 109
5 10 6 17 106 3
4 107 88 10 6
4 71 17 106 68
5 68 110 88 107 71
4 71 17 6 107
4 25 47 43 62
5 71 47 25 116 73
4 47 43 67 71
4 73 103 67 71
5 117 97 72 25 36
4 65 67 117 36
5 67 107 40 8 65
4 107 40 72 97
4 107 67 117 97
4 41 101 28 9
5 101 28 102 99 115
5 70 69 41 9 25
4 70 99 115 69
4 69 41 101 115
4 83 19 54 85
5 51 26 24 85 54
4 26 73 90 24
4 83 90 24 85
5 54 32 1 31 3
4 107 5 32 1
4 9 54 3 37
5 9 37 76 107 5
4 9 5 32 54
4 78 2 110 31
5 23 26 110 31 69
4 69 39 5 23
4 39 78 31 69
4 32 4 52 105
4 96 116 23 111
5 96 116 53 52 105
4 111 32 105 96
4 97 52 85 28
4 112 69 111 75
5 52 97 73 69 112
4 52 85 75 112
5 0 34 8 37 110
4 0 34 39 64
4 41 113 37 8
4 39 34 8 41
5 39 64 97 113 41
4 41 103 83 50
5 83 50 47 102 52
5 72 45 41 103 88
4 88 52 102 72
4 52 83 103 88
4 54 105 10 8
5 23 71 18 54 8
4 54 18 46 105
4 18 46 90 71
4 92 101 89 80
4 57 109 75 114
5 92 79 75 109 101
4 109 101 89 57
4 108 56 66 92
5 33 108 92 5 30
4 16 66 92 5
4 5 16 57 30
4 11 15 118 58
5 114 59 58 118 30
4 104 30 114 81
4 104 30 118 15
4 80 108 6 15
4 108 59 94 6
4 46 84 59 94
5 46 16 15 6 94
5 38 92 113 27 99
4 91 57 27 99
4 38 94 118 92
4 38 94 91 99
5 94 91 57 87 118
4 59 12 42 98
5 15 60 43 12 42
4 12 43 91 59
5 93 66 98 59 91
4 91 93 60 43
4 15 89 74 63
4 103 79 59 82
4 103 15 63 79
5 89 15 103 82 119
4 106 14 59 61
5 61 106 87 15 40
5 109 14 59 38 95
4 106 14 109 87
4 15 95 109 87
4 80 66 119 81
5 95 66 80 63 118
5 46 43 106 81 119
4 46 95 66 119
4 46 95 118 43
4 95 60 48 92
4 82 98 29 84
4 82 95 92 98
5 84 57 60 95 82
4 104 49 93 57
5 58 78 93 49 92
5 12 14 57 104 63
4 12 58 78 14
4 57 93 78 14
4 33 29 80 63
5 29 99 78 75 33
4 63 33 75 118
4 78 95 118 75
5 35 70 40 113 68
4 14 35 68 18
4 6 40 113 5
5 18 5 6 34 14
4 113 5 18 68
4 116 44 15 42
5 3 22 24 44 116
4 44 15 60 24
4 24 60 43 22
4 87 89 102 36
4 73 41 79 98
5 73 98 100 102 89
4 87 41 73 89
4 35 70 112 91
4 112 70 40 103
4 103 101 113 40
5 101 117 91 112 103
5 22 105 19 17 47
4 103 82 105 19
4 119 22 105 82
4 119 22 47 89
4 8 3 56 40
4 3 14 65 8
4 67 46 14 65
4 77 26 49 92
5 26 102 55 96 77
4 92 58 96 77
4 55 78 58 96
5 55 31 115 4 85
4 4 85 30 5
4 33 108 31 55
4 33 30 85 55
4 78 32 21 115
4 84 53 26 7
5 30 7 84 78 32
4 78 115 53 84
4 38 0 3 108
5 3 108 23 104 7
4 107 23 108 38
4 23 107 16 104
4 74 113 97 102
4 91 75 39 64
4 91 64 97 102
4 83 21 17 43
4 51 114 100 116
4 51 114 43 17
5 82 100 114 43 83
4 98 58 21 73
5 21 58 105 85 60
4 98 58 105 100
4 102 85 105 100
5 76 70 55 2 97
4 75 109 2 55
4 75 55 70 79
4 79 70 76 92
4 34 6 11 31
4 31 84 14 34
4 18 14 84 24
4 23 104 60 21
4 85 7 3 105
4 85 7 104 60
4 7 27 113 9
5 9 111 34 55 7
4 111 92 38 34
4 113 92 111 9
4 93 85 50 101
4 77 29 53 73
5 53 93 85 114 29
4 53 93 101 73
5 62 8 45 68 22
4 94 62 22 46
4 68 16 15 45
4 22 68 16 46
4 61 40 88 100
5 90 117 22 100 88
4 88 90 15 40
4 90 15 87 117
4 45 72 35 106
4 45 106 65 41
4 94 103 41 65
4 101 48 47 117
4 91 114 96 112
4 91 114 47 117
4 1 105 12 6
5 81 51 12 105 84
4 51 12 6 23
4 51 23 44 81
4 35 37 76 99
4 99 64 107 76
4 107 5 109 64
4 22 3 34 20
4 34 3 116 69
4 116 69 107 44
4 50 54 22 117
4 100 96 54 22
4 96 100 88 69
4 68 110 55 36
4 112 88 110 55
4 88 112 39 107
4 117 20 55 102
4 77 41 71 26
4 102 117 71 26
4 69 19 17 23
4 23 17 47 26
4 110 22 47 26
4 71 97 2 18
4 8 70 76 23
4 97 76 23 71
4 52 55 34 1
4 55 7 24 52
4 7 24 71 9
4 73 71 4 115
4 25 55 31 116
4 31 116 73 115
4 39 111 54 20
5 110 52 20 54 25
4 77 25 54 111
4 25 77 76 110
4 25 70 0 22
4 25 9 18 22
4 9 18 67 41
4 112 62 8 69
4 69 73 45 8
4 68 97 73 45
4 90 52 20 67
4 110 44 45 25
4 52 110 44 90
4 28 102 114 30
4 102 114 59 99
4 59 99 115 58
4 38 95 49 76
4 76 38 59 29
4 14 7 29 59
4 53 11 108 29
4 29 108 12 114
4 85 32 12 114
4 10 82 84 3
4 84 3 106 57
4 57 106 17 60
4 37 27 66 40
4 37 33 79 40
4 79 33 14 94
4 74 72 100 114
4 66 82 100 72
4 82 83 101 66
4 45 87 118 42
4 100 91 57 81
4 81 45 87 57
4 63 61 72 113
4 16 113 72 119
4 16 109 91 119
4 10 12 63 40
4 44 104 63 40
4 57 119 44 104
4 48 89 81 51
4 84 93 89 81
4 84 93 83 105
4 37 7 84 56
4 63 30 7 37
4 32 6 63 30
4 113 28 93 66
4 33 59 98 77
4 66 113 77 98
4 110 70 38 13
4 70 110 7 33
4 65 33 7 18
4 31 53 90 1
4 54 47 81 3
4 53 31 3 81
4 75 36 25 96
4 72 98 96 25
4 72 98 115 97
4 86 87 68 25
4 100 119 68 25
4 119 100 112 64
4 8 106 43 19
4 116 8 106 81
4 116 88 119 81
4 62 70 37 106
4 70 37 44 88
4 44 16 64 88
4 111 51 47 50
4 51 47 102 29
4 29 31 52 102
4 99 97 4 78
4 9 33 29 26
4 97 26 29 99
4 24 13 76 26
4 54 51 108 34
4 76 108 51 26
4 24 110 0 46
4 37 104 17 8
4 110 37 104 24
4 68 2 99 72
4 79 65 9 77
4 72 77 9 68
4 96 86 45 116
4 89 53 116 45
4 52 117 89 53
4 19 96 31 1
5 19 96 25 47 50
5 24 4 1 31 110
4 24 47 50 4
4 11 108 111 21
5 11 108 3 84 13
5 85 4 21 111 54
4 4 85 84 13
4 86 114 105 19
5 86 114 102 89 48
5 19 21 90 52 105
4 90 21 48 89
5 36 25 70 112 20
4 26 28 36 25
4 115 4 20 112
5 4 115 76 26 28
4 10 116 110 0
5 17 19 10 116 45
5 18 20 0 110 68
4 17 19 20 18
4 30 48 42 12
5 49 93 85 30 48
5 42 12 105 82 11
4 11 49 93 82
5 99 91 36 74 72
4 91 36 50 83
4 73 72 74 48
5 48 73 115 83 50
5 27 29 108 92 49
4 27 2 55 29
4 4 39 92 49
5 34 39 4 2 55
5 0 56 37 106 14
4 1 32 14 0
4 11 56 37 23
5 1 11 23 17 32
4 61 81 22 62
5 42 15 89 81 61
5 19 67 117 22 62
4 67 19 42 15
4 9 8 62 36
5 36 2 97 113 9
5 8 62 0 88 40
4 0 88 97 2
5 118 48 80 98 58
4 27 99 98 80
4 118 48 28 109
5 28 109 78 99 27
5 61 106 43 94 10
4 61 80 104 106
4 10 94 95 11
5 104 80 11 95 60
4 0 34 33 35
5 33 35 27 113 63
5 13 107 6 34 0
4 107 13 27 113
4 41 86 61 40
5 61 40 66 119 35
5 36 117 101 41 86
4 35 36 117 119
5 87 74 61 79 118
4 56 38 79 61
4 74 87 16 27
5 16 27 56 38 95
4 53 49 28 102
5 55 75 50 28 102
5 49 53 31 58 21
4 21 58 75 50
4 10 3 51 42
5 46 1 10 3 22
5 21 60 47 51 42
4 46 1 21 60
5 20 54 8 69 1
4 7 54 20 2
4 69 1 13 76
5 2 7 37 76 13
5 62 86 45 72 100
4 71 45 86 50
4 20 52 100 62
5 71 97 52 20 50
5 62 65 87 68 35
4 56 44 68 35
4 62 10 6 65
5 10 56 44 15 6
4 77 74 35 70
5 38 70 35 2 64
5 92 77 74 28 101
4 2 64 101 28
4 86 74 57 43
5 103 83 43 86 42
5 74 57 93 66 80
4 103 66 80 42
5 56 80 63 12 59
4 80 63 5 49
4 56 13 78 59
5 32 78 13 49 5
4 118 12 10 103
5 119 90 103 10 100
5 118 60 57 114 12
4 57 119 90 60
4 62 112 39 65
4 101 97 68 87
5 97 101 39 112 99
4 18 7 27 16
5 32 34 3 7 18
4 32 34 38 95
5 33 7 28 5 111
4 95 5 28 93
4 111 58 59 33
5 58 95 93 84 59
5 79 33 36 109 39
4 93 109 36 102
5 102 29 98 115 93
4 39 115 98 79
5 75 30 74 29 59
4 89 74 30 60
4 83 82 59 75
5 83 60 89 53 82
4 64 2 18 67
4 6 38 70 8
5 18 106 8 6 67
4 0 3 12 94
5 94 0 119 16 67
5 17 104 81 3 12
4 17 104 16 67
4 88 64 94 10
4 68 106 43 117
5 68 117 64 88 72
4 61 100 112 79
5 83 117 102 100 112
4 118 83 117 87
4 58 108 56 82
5 57 81 56 82 46
5 58 32 30 51 108
4 30 57 46 32
4 9 65 109 28
5 9 65 34 70 37
4 70 99 78 34
4 71 107 13 24
4 34 54 17 6
5 22 54 17 71 24
4 105 43 67 1
5 44 71 67 1 88
5 81 47 43 105 100
4 71 47 81 44
4 19 67 107 69
5 97 110 70 69 107
4 97 110 22 117
4 96 86 41 69
5 115 52 55 96 69
4 101 115 52 117
5 24 81 116 11 90
4 58 83 90 11
5 85 114 96 58 83
4 24 85 114 81
4 9 26 49 5
5 26 9 54 55 110
4 54 32 78 55
5 77 9 50 39 69
4 85 50 39 78
4 31 69 77 29
5 85 7 29 31 78
5 48 26 29 96 111
4 32 111 48 60
4 84 29 96 105
5 32 105 84 24 60
5 112 98 77 86 75
4 85 75 86 47
4 53 98 112 52
5 47 26 53 52 85
4 41 39 4 71
4 55 25 8 34
5 71 41 8 25 68
4 42 116 88 103
5 52 22 25 116 88
4 83 52 22 43
4 31 105 46 13
5 18 46 13 44 104
5 54 51 116 31 105
4 51 104 18 54
5 35 57 109 94 59
4 72 35 57 89
5 89 101 103 98 72
4 103 101 109 94
5 14 65 5 16 2
4 66 16 2 99
5 66 92 79 59 99
4 79 65 5 92
5 84 14 30 104 27
4 15 104 27 66
4 118 30 14 94
5 118 15 66 82 94
4 37 108 59 35
5 6 108 37 104 5
4 5 109 94 6
4 91 94 65 36
4 38 40 72 99
5 65 63 40 38 94
4 56 59 91 119
4 87 63 12 43
5 87 43 91 119 89
4 106 63 79 62
5 79 62 91 64 103
5 63 15 16 57 106
4 15 16 64 103
4 14 0 64 109
4 113 87 106 37
5 64 109 87 113 66
4 119 35 14 46
5 12 6 95 46 14
4 95 66 40 6
5 82 91 114 61 98
4 61 63 92 98
5 95 109 30 63 92
4 109 91 82 95
4 14 33 74 57
5 108 38 78 14 33
4 78 38 66 93
4 91 75 33 35
4 118 101 113 63
5 91 93 101 118 75
4 18 20 39 5
4 113 76 110 68
5 38 76 113 5 39
4 44 56 84 24
4 32 6 15 60
5 73 41 19 112 88
4 43 87 41 19
4 119 88 73 89
4 112 103 67 20
4 45 25 70 40
5 67 103 40 45 87
4 11 82 119 44
4 12 105 22 106
5 45 106 22 119 44
4 110 2 14 3
5 8 23 44 110 3
4 65 8 23 5
4 74 77 96 114
4 92 101 83 58
4 33 77 48 30
5 99 76 77 33 55
4 55 85 93 99
5 114 51 80 53 84
4 92 115 53 80
4 78 84 114 75
5 78 75 111 92 115
4 107 38 78 4
5 107 23 9 18 4
4 108 23 9 33
4 25 62 91 102
5 25 102 97 73 77
4 73 103 64 97
4 17 51 80 15
4 46 84 114 43
5 15 17 43 46 90
4 81 80 98 100
4 58 105 43 118
4 79 75 50 41
5 113 72 70 79 41
4 72 102 55 70
4 84 27 76 31
5 31 34 111 23 76
4 34 14 30 111
4 7 29 80 104
4 78 95 60 85
4 75 36 9 111
4 92 115 97 113
5 100 53 73 42 96
4 118 42 73 101
4 91 100 53 93
4 1 107 16 46
4 37 68 22 3
5 37 68 16 107 40
4 88 90 46 0
4 17 8 40 15
4 20 65 106 22
5 64 20 65 41 107
4 41 45 44 107
4 45 61 114 47
5 117 47 45 73 90
4 91 117 90 82
5 49 24 7 51 23
4 95 49 23 6
4 14 7 51 12
4 99 55 20 64
4 77 41 107 76
5 21 71 26 116 69
4 21 32 34 69
4 7 26 116 3
4 42 17 54 96
4 22 100 53 24
4 54 55 112 19
4 26 73 88 110
4 83 117 71 21
4 102 100 116 26
4 23 26 53 11
4 85 32 17 47
4 50 71 23 111
4 97 76 31 52
4 52 115 49 24
4 96 55 7 51
4 51 48 73 116
4 31 105 83 115
4 111 21 73 77
4 25 54 85 102
4 4 18 22 52
4 25 9 23 116
4 73 90 1 69
4 54 47 45 8
4 90 21 23 44
4 3 105 52 110
4 59 79 86 114
4 66 99 102 89
4 74 113 76 29
4 39 75 59 38
4 57 27 29 114
4 12 108 92 118
4 13 84 57 16
4 106 63 108 3
4 68 36 33 37
4 40 79 39 107
4 82 94 62 100
4 66 72 45 15
4 40 56 81 45
4 87 57 46 67
4 72 119 0 70
4 113 16 67 41
4 40 44 13 38
4 18 65 63 104
4 84 59 61 81
4 95 15 89 93
4 7 30 109 2
4 63 37 76 92
4 86 87 113 77
4 66 98 112 64
4 97 110 7 28
4 70 33 111 69
4 49 104 81 53
4 12 3 31 58
4 96 98 103 19
4 25 72 89 47
4 25 100 10 8
4 71 90 119 68
4 6 11 116 8
4 106 81 24 18
4 70 34 1 88
4 9 37 44 71
4 42 51 29 98
4 93 60 47 102
4 48 26 97 101
4 99 112 96 29
4 28 26 51 30
4 115 58 108 76
4 4 24 104 5
4 37 108 31 110
4 50 117 68 9
4 88 69 77 72
4 116 53 82 10
4 17 60 89 45
5 4 39 64 67 1
5 91 43 105 85 75
4 64 91 43 67
5 88 107 13 11 90
4 83 90 88 112
5 112 39 78 58 83
5 39 41 19 21 111
4 41 87 109 39
5 87 109 30 60 43
5 28 4 18 16 109
5 52 102 91 119 22
4 16 18 22 119
5 0 94 91 112 20
5 3 12 114 96 54
4 94 12 114 91
5 11 23 69 73 42
4 101 73 69 39
5 118 101 39 5 95
5 5 9 50 48 30
4 5 9 68 16
5 68 16 57 89 117
5 24 49 27 16 44
4 24 44 88 52
5 88 64 99 115 52
5 100 88 0 56 82
4 82 58 96 100
5 69 96 58 108 34
5 19 62 79 75 96
5 17 106 63 30 51
4 75 30 63 79
5 14 2 36 91 57
5 100 25 110 3 81
4 57 14 3 81
5 26 48 80 104 23
4 97 26 23 107
5 101 97 107 16 66
5 96 116 10 61 98
4 98 92 111 96
5 6 63 92 111 23
5 84 27 35 119 81
5 76 70 88 116 31
4 81 116 31 84
5 33 36 86 114 30
4 33 37 104 30
5 68 45 81 104 37
5 51 29 74 61 81
4 51 29 76 23
5 113 76 23 44 40
5 107 5 49 21 71
4 71 117 64 107
5 117 64 109 93 83
5 10 103 112 69 1
5 12 118 75 111 32
4 103 118 75 112
5 46 13 2 64 119
5 31 55 112 100 105
4 119 100 105 46
5 50 75 109 65 20
5 22 47 114 57 106
4 109 65 106 57
5 114 59 35 62 100
5 108 51 116 8 37
4 59 108 51 114
5 7 28 74 57 104
5 97 72 119 44 110
4 7 110 44 104
5 86 77 111 51 42
4 111 5 113 77
5 104 5 113 87 15
5 80 53 116 44 56
4 115 53 116 69
5 115 92 38 107 69
5 101 115 21 90 103
5 46 32 78 109 94
4 78 109 101 115
5 43 46 18 20 117
4 95 5 18 46
5 2 20 52 85 78
4 90 52 85 60
5 67 16 95 60 90
4 1 21 50 20
5 95 6 1 21 58
4 4 13 0 20
5 4 115 93 95 13
4 50 4 2 36
5 32 4 50 83 60
5 32 105 19 20 34
4 105 82 95 32
5 82 95 38 64 103
5 19 83 118 94 67
5 54 18 14 30 85
4 83 118 30 85
5 14 84 105 22 0
4 84 14 109 93
5 14 65 62 43 12
4 78 14 65 39
5 82 46 1 52 83
5 14 34 55 75 59
4 52 55 75 83
5 62 22 54 55 36
4 22 54 32 46
5 103 15 6 107 41
4 60 15 103 83
5 50 101 87 67 71
4 93 101 87 57
5 24 85 93 57 46
4 82 66 16 46
4 94 38 107 67
5 90 24 4 97 117
4 97 117 91 99
5 82 91 99 78 84
5 28 85 47 117 36
4 67 117 47 17
5 67 65 5 32 17
4 1 19 62 0
5 0 38 78 31 1
4 19 20 36 86
4 2 20 62 35
5 86 50 54 17 43
5 94 79 39 34 6
4 6 17 43 94
5 58 105 10 94 59
4 99 59 94 64
5 84 114 102 55 7
4 117 43 114 102
4 13 2 28 49
5 49 60 89 101 28
4 1 11 49 4
5 11 15 66 92 49
4 21 48 28 4
5 15 17 21 48 118
5 33 111 54 8 65
4 105 58 111 54
5 62 10 3 34 70
4 78 84 3 34
5 35 106 3 7 33
4 85 75 33 7
5 92 58 42 103 79
4 32 58 92 5
5 22 68 2 7 24
4 30 7 24 60
4 78 31 53 93
5 90 119 66 93 53
5 82 98 115 31 11
4 34 31 115 39
5 0 35 99 55 110
4 24 85 55 110
5 106 18 9 36 87
4 32 111 9 18
4 104 24 90 15
5 71 44 15 89 73
4 93 89 73 115
5 41 73 48 92 113
4 95 16 113 92
5 8 19 42 12 6
5 59 98 112 70 38
4 59 38 6 12
5 31 29 59 56 3
4 59 29 102 91
5 25 9 7 51 47
4 12 43 47 51
5 86 118 63 65 41
4 65 34 69 41
5 35 74 102 25 68
4 18 54 25 68
5 52 110 13 84 53
4 110 52 112 70
4 19 10 11 21
5 10 40 38 108 11
4 27 2 0 56
5 27 2 97 102 93
4 74 28 50 86
5 61 12 108 33 79
4 112 55 33 79
5 61 86 25 8 106
4 34 14 106 8
5 29 33 70 25 96
4 25 96 105 22
5 47 71 18 104 60
4 47 71 97 102
4 23 71 67 6
5 53 73 97 76 49
4 64 38 76 97
4 89 57 84 53
5 98 66 40 88 73
4 98 58 95 66
4 60 118 63 104
4 36 28 27 35
4 42 48 50 19
4 13 56 10 1
5 66 99 76 13 56
4 62 86 42 10
4 36 62 61 74
4 10 61 35 0
5 71 26 28 113 68
4 66 119 68 113
5 45 41 9 23 17
4 89 45 41 101
4 103 40 44 90
5 29 53 100 72 99
4 22 68 72 100
4 79 70 88 103
5 48 47 45 87 74
4 65 87 45 8
4 87 106 81 89
5 89 81 24 26 102
5 77 69 8 40 79
4 118 15 40 79
4 119 72 98 82
5 56 61 72 70 37
4 55 7 37 70
4 3 31 69 8
5 9 77 74 63 37
4 54 96 77 9
5 29 26 110 37 27
4 47 26 29 114
4 12 17 23 108
4 108 38 99 29
4 49 48 74 27
4 13 27 80 11
5 27 113 72 89 80
4 49 21 42 80
5 42 80 63 40 45
4 102 99 76 26
4 71 17 51 26
5 98 77 76 108 80
4 108 76 107 6
4 106 3 116 45
5 77 72 45 116 26
4 100 25 77 98
4 63 40 70 33
4 56 80 74 35
4 61 80 48 86
4 11 42 61 56
4 25 72 113 9
4 110 37 40 88
4 41 73 116 8
4 45 81 53 73
4 63 15 44 37
4 92 66 72 77
5 50 47 43 87 36
5 2 16 46 24 4
5 82 84 13 0 119
5 20 117 83 85 4
5 48 89 87 113 28
5 21 90 67 107 4
5 35 106 22 25 36
5 24 104 27 28 26
5 86 118 12 17 19
5 14 109 36 20 18
5 1 88 103 82 11
5 93 49 4 97 101
5 49 48 73 71 23
5 27 74 72 68 37
5 52 22 0 2 55
5 27 56 81 53 29
5 14 59 91 62 0
5 19 1 32 58 83
5 50 19 67 65 39
5 48 92 63 15 42
5 8 62 61 12 3
5 9 7 30 74 36
5 73 116 11 80 98
5 13 110 97 99 27
5 10 94 79 112 19
5 21 115 92 95 11
5 29 33 35 61 114
5 0 34 31 105 10
5 61 40 37 108 80
5 9 111 48 86 41
5 61 79 77 96 42
5 56 38 76 31 11
5 117 102 28 2 68
5 53 90 44 13 49
5 46 94 64 20 1
5 118 101 50 21 60
5 7 2 35 57 84
5 62 20 54 105 43
5 74 63 106 45 86
5 71 18 5 28 50
5 62 86 75 33 65
5 6 10 42 58 108
5 35 70 110 3 56
5 74 80 51 26 77
5 66 80 49 76 113
5 42 21 69 41 103
5 59 56 10 100 98
5 78 13 1 52 115
5 28 109 57 60 85
5 90 119 64 97 52
5 68 18 104 57 87
5 27 16 119 89 93
5 85 7 18 22 47
5 83 93 95 46 90
5 93 102 52 24 84
5 60 89 117 71 24
5 93 78 2 64 91
5 60 43 67 18 32
5 47 17 104 30 48
5 109 101 117 67 16
5 114 30 14 106 43
5 5 65 87 118 30
5 30 75 50 54 32
5 91 57 46 22 117
5 65 106 17 54 9
5 13 107 64 66 95
5 81 57 74 102 47
5 97 113 16 44 71
5 36 91 114 85 55
5 119 81 24 110 68
5 15 60 49 5 16
5 45 47 26 9 68
5 85 105 46 14 78
5 32 95 109 39 4
5 15 87 41 71 17
5 94 109 75 83 43
5 54 25 86 114 51
5 97 72 89 53 26
5 66 99 115 53 82
5 90 15 66 101 73
5 21 111 5 6 17
5 65 34 32 12 94
5 33 111 51 12 63
5 83 103 64 39 115
5 51 7 37 106 81
5 35 99 102 100 119
5 112 91 82 105 52
5 3 54 55 33 14
5 63 104 23 9 113
5 56 44 88 72 66
5 115 73 88 107 76
5 75 112 20 34 78
5 6 67 103 118 95
5 59 12 105 96 75
5 23 51 42 45 8
5 101 41 107 5 92
5 25 8 37 33 77
5 84 3 22 100 114
5 38 78 58 82 94
5 102 25 110 7 29
5 111 58 118 79 39
5 6 8 41 79 63
5 111 96 19 8 34
5 80 89 45 44 104
5 53 100 88 110 31
5 0 38 99 112 88
5 84 59 99 55 31
5 116 26 76 37 44
5 107 23 11 15 40
5 70 55 96 100 62
5 40 113 77 73 45
5 116 81 61 72 25
5 6 38 39 69 1
5 79 70 34 108 59
5 69 23 108 92 77
5 108 3 116 96 29
5 72 70 76 29 98
5 40 103 98 92 38
5 112 69 31 58 98
5 10 40 70 69 116

# Cells
7 0 1 2 3 4 5 6
7 7 8 9 10 11 12 13
7 14 15 16 17 18 19 20
7 21 22 23 24 25 26 27
7 28 29 30 31 32 33 34
7 35 36 37 38 39 40 41
7 42 43 44 45 46 47 48
7 49 50 51 52 53 54 55
7 56 57 58 59 60 61 62
7 63 64 65 66 67 68 69
7 70 71 72 73 74 75 76
7 77 78 79 80 81 82 83
7 84 85 86 87 88 89 90
7 91 92 93 94 95 96 97
7 98 99 100 101 102 103 104
7 105 106 107 108 109 110 111
7 112 113 114 115 116 117 118
7 119 120 121 122 123 124 125
7 126 127 128 129 130 131 132
7 133 134 135 136 137 138 139
7 140 141 142 143 144 145 146
7 147 148 149 150 151 152 153
7 154 155 156 157 158 159 160
7 161 162 163 164 165 166 167
7 141 168 169 170 171 172 173
7 108 174 175 176 177 178 179
7 180 181 182 183 184 185 186
7 187 188 189 190 191 192 193
7 194 195 196 197 198 199 200
7 201 202 203 204 205 206 207
7 208 209 210 211 212 213 214
7 92 215 216 217 218 219 220
7 156 221 222 223 224 225 226
7 80 227 228 229 230 231 232
7 107 233 234 235 236 237 238
7 239 240 241 242 243 244 245
7 246 247 248 249 250 251 252
7 59 253 254 255 256 257 258
7 101 259 260 261 262 263 264
7 151 265 266 267 268 269 270
7 88 271 272 273 274 275 276
7 277 278 279 280 281 282 283
7 284 285 286 287 288 289 290
7 291 292 293 294 295 296 297
7 298 299 300 301 302 303 304
7 305 306 307 308 309 310 311
7 46 312 313 314 315 316 317
7 163 318 319 320 321 322 323
7 324 325 326 327 328 329 330
7 331 332 333 334 335 336 337
7 338 339 340 341 342 343 344
7 148 345 346 347 348 349 350
7 339 351 352 353 354 355 356
7 36 357 358 359 360 361 362
7 71 363 364 365 366 367 368
7 85 369 370 371 372 373 374
7 375 376 377 378 379 380 381
7 100 382 383 384 385 386 387
7 388 389 390 391 392 393 394
7 164 395 396 397 398 399 400
7 144 290 401 402 403 404 405
7 350 406 407 408 409 410 411
7 31 412 413 414 415 416 417
7 325 418 419 420 421 422 423
7 15 424 425 426 427 428 429
7 50 430 431 432 433 434 435
7 53 436 437 438 439 440 441
7 442 443 444 445 446 447 448
7 157 281 449 450 451 452 453
7 442 454 455 456 457 458 459
7 398 460 461 462 463 464 465
7 377 466 467 468 469 470 471
7 114 472 473 474 475 476 477
7 331 478 479 480 481 482 483
7 79 249 484 485 486 487 488
7 387 489 490 491 492 493 494
7 95 303 495 496 497 498 499
7 67 447 500 501 502 503 504
7 64 459 505 506 507 508 509
7 434 510 511 512 513 514 515
7 128 516 517 518 519 520 521
7 439 511 522 523 524 525 526
7 388 527 528 529 530 531 532
7 372 533 534 535 536 537 538
7 263 489 539 540 541 542 543
7 268 406 544 545 546 547 548
7 177 549 550 551 552 553 554
7 123 480 555 556 557 558 559
7 236 549 560 561 562 563 564
7 74 296 565 566 567 568 569
7 39 308 570 571 572 573 574
7 25 468 575 576 577 578 579
7 274 533 580 581 582 583 584
7 10 420 585 586 587 588 589
7 321 461 590 591 592 593 594
7 134 530 595 596 597 598 599
7 187 416 600 601 602 603 604
7 43 183 605 606 607 608 609
7 9 328 610 611 612 613 614
7 120 337 615 616 617 618 619
7 22 378 620 621 622 623 624
7 202 520 625 626 627 628 629
7 210 475 630 631 632 633 634
7 307 361 635 636 637 638 639
7 241 429 640 641 642 643 644
7 291 368 645 646 647 648 649
7 58 199 650 651 652 653 654
7 137 393 655 656 657 658 659
7 115 211 660 661 662 663 664
7 1 342 665 666 667 668 669
7 194 256 670 671 672 673 674
7 230 248 675 676 677 678 679
7 182 316 680 681 682 683 684
7 225 278 685 686 687 688 689
7 172 284 690 691 692 693 694
7 18 242 695 696 697 698 699
7 129 205 700 701 702 703 704
7 30 193 705 706 707 708 709
7 4 353 710 711 712 713 714
7 219 299 715 716 717 718 719
7 0 720 721 722 723 724 725
7 7 726 727 728 729 730 731
7 14 732 733 734 735 736 737
7 21 738 739 740 741 742 743
7 28 744 745 746 747 748 749
7 35 750 751 752 753 754 755
7 42 756 757 758 759 760 761
7 49 762 763 764 765 766 767
7 56 768 769 770 771 772 773
7 63 774 775 776 777 778 779
7 70 780 781 782 783 784 785
7 77 786 787 788 789 790 791
7 84 792 793 794 795 796 797
7 91 798 799 800 801 802 803
7 98 804 805 806 807 808 809
7 105 810 811 812 813 814 815
7 112 816 817 818 819 820 821
7 119 822 823 824 825 826 827
7 126 828 829 830 831 832 833
7 133 834 835 836 837 838 839
7 140 840 841 842 843 844 845
7 147 846 847 848 849 850 851
7 154 852 853 854 855 856 857
7 161 858 859 860 861 862 863
7 173 741 864 865 866 867 868
7 179 825 869 870 871 872 873
7 186 874 875 876 877 878 879
7 192 880 881 882 883 884 885
7 200 886 887 888 889 890 891
7 207 892 893 894 895 896 897
7 212 893 898 899 900 901 902
7 220 759 903 904 905 906 907
7 226 728 908 909 910 911 912
7 232 770 913 914 915 916 917
7 237 834 918 919 920 921 922
7 245 923 924 925 926 927 928
7 252 929 930 931 932 933 934
7 258 849 885 935 936 937 938
7 264 753 939 940 941 942 943
7 270 795 878 944 945 946 947
7 275 783 948 949 950 951 952
7 283 917 953 954 955 956 957
7 288 906 958 959 960 961 962
7 297 963 964 965 966 967 968
7 304 969 970 971 972 973 974
7 311 975 976 977 978 979 980
7 317 859 926 981 982 983 984
7 322 806 891 985 986 987 988
7 330 929 989 990 991 992 993
7 336 951 994 995 996 997 998
7 343 977 999 1000 1001 1002 1003
7 348 732 1004 1005 1006 1007 1008
7 354 964 1009 1010 1011 1012 1013
7 362 829 1014 1015 1016 1017 1018
7 367 817 1019 1020 1021 1022 1023
7 374 723 1024 1025 1026 1027 1028
7 379 970 1029 1030 1031 1032 1033
7 385 720 1034 1035 1036 1037 1038
7 392 942 1039 1040 1041 1042 1043
7 399 746 1044 1045 1046 1047 1048
7 405 735 1049 1050 1051 1052 1053
7 411 1054 1055 1056 1057 1058 1059
7 417 765 1060 1061 1062 1063 1064
7 421 880 1065 1066 1067 1068 1069
7 428 762 1070 1071 1072 1073 1074
7 435 853 974 1075 1076 1077 1078
7 440 840 932 1079 1080 1081 1082
7 448 912 1083 1084 1085 1086 1087
7 452 745 1088 1089 1090 1091 1092
7 456 867 1093 1094 1095 1096 1097
7 465 1054 1098 1099 1100 1101 1102
7 471 925 1103 1104 1105 1106 1107
7 476 798 978 1108 1109 1110 1111
7 481 1073 1112 1113 1114 1115 1116
7 487 774 1100 1117 1118 1119 1120
7 494 873 1121 1122 1123 1124 1125
7 498 777 1058 1126 1127 1128 1129
7 503 830 1130 1131 1132 1133 1134
7 509 818 1135 1136 1137 1138 1139
7 513 886 1140 1141 1142 1143 1144
7 521 788 968 1145 1146 1147 1148
7 526 875 1149 1150 1151 1152 1153
7 529 1064 1114 1154 1155 1156 1157
7 536 922 1158 1159 1160 1161 1162
7 541 1022 1163 1164 1165 1166 1167
7 546 1040 1168 1169 1170 1171 1172
7 552 1007 1173 1174 1175 1176 1177
7 558 801 1002 1178 1179 1180 1181
7 564 1048 1182 1183 1184 1185 1186
7 568 854 1032 1187 1188 1189 1190
7 573 843 991 1191 1192 1193 1194
7 578 811 900 1195 1196 1197 1198
7 584 1017 1199 1200 1201 1202 1203
7 589 812 897 1204 1205 1206 1207
7 593 994 1208 1209 1210 1211 1212
7 599 787 1011 1213 1214 1215 1216
7 602 1138 1163 1217 1218 1219 1220
7 608 822 1221 1222 1223 1224 1225
7 613 780 1210 1226 1227 1228 1229
7 618 738 1230 1231 1232 1233 1234
7 624 750 1170 1235 1236 1237 1238
7 627 958 1239 1240 1241 1242 1243
7 633 954 1244 1245 1246 1247 1248
7 637 1091 1182 1249 1250 1251 1252
7 642 1133 1200 1253 1254 1255 1256
7 647 1052 1174 1257 1258 1259 1260
7 653 837 1261 1262 1263 1264 1265
7 659 727 1266 1267 1268 1269 1270
7 664 792 1151 1271 1272 1273 1274
7 668 846 1067 1275 1276 1277 1278
7 673 1093 1233 1279 1280 1281 1282
7 677 1121 1224 1283 1284 1285 1286
7 682 1084 1269 1287 1288 1289 1290
7 687 1037 1291 1292 1293 1294 1295
7 694 1027 1291 1296 1297 1298 1299
7 698 769 1246 1300 1301 1302 1303
7 703 805 1143 1304 1305 1306 1307
7 708 756 1243 1308 1309 1310 1311
7 714 860 1105 1312 1313 1314 1315
7 717 1158 1264 1316 1317 1318 1319
7 525 814 1320 1321 1322 1323 1324
7 301 808 1325 1326 1327 1328 1329
7 329 803 1330 1331 1332 1333 1334
7 678 796 1335 1336 1337 1338 1339
7 470 790 1340 1341 1342 1343 1344
7 197 785 1345 1346 1347 1348 1349
7 638 773 1350 1351 1352 1353 1354
7 553 778 1355 1356 1357 1358 1359
7 295 760 1360 1361 1362 1363 1364
7 344 767 1365 1366 1367 1368 1369
7 684 754 1370 1371 1372 1373 1374
7 537 749 1375 1376 1377 1378 1379
7 191 743 1380 1381 1382 1383 1384
7 542 736 1385 1386 1387 1388 1389
7 643 731 1390 1391 1392 1393 1394
7 457 725 1395 1396 1397 1398 1399
7 463 844 1400 1401 1402 1403 1404
7 206 851 1405 1406 1407 1408 1409
7 547 856 1410 1411 1412 1413 1414
7 634 862 1415 1416 1417 1418 1419
7 532 820 1420 1421 1422 1423 1424
7 688 827 1425 1426 1427 1428 1429
7 334 833 1430 1431 1432 1433 1434
7 287 838 1435 1436 1437 1438 1439
7 390 1271 1391 1440 1441 1442 1443
7 508 1277 1444 1445 1446 1447 1448
7 571 1281 1449 1450 1451 1452 1453
7 23 1283 1389 1454 1455 1456 1457
7 73 1287 1398 1458 1459 1460 1461
7 149 1292 1437 1462 1463 1464 1465
7 320 1298 1466 1467 1468 1469 1470
7 491 1300 1397 1471 1472 1473 1474
7 619 1305 1475 1476 1477 1478 1479
7 373 1309 1480 1481 1482 1483 1484
7 444 1312 1434 1485 1486 1487 1488
7 587 1318 1489 1490 1491 1492 1493
7 272 1220 1494 1495 1496 1497 1498
7 645 1221 1423 1499 1500 1501 1502
7 427 1227 1503 1504 1505 1506 1507
7 224 1232 1508 1509 1510 1511 1512
7 600 1235 1369 1513 1514 1515 1516
7 557 1241 1517 1518 1519 1520 1521
7 136 1244 1429 1522 1523 1524 1525
7 45 1249 1358 1526 1527 1528 1529
7 102 1253 1378 1530 1531 1532 1533
7 254 1259 1534 1535 1536 1537 1538
7 360 1263 1539 1540 1541 1542 1543
7 690 1266 1383 1544 1545 1546 1547
7 93 1164 1382 1548 1549 1550 1551
7 127 1169 1422 1552 1553 1554 1555
7 52 1175 1363 1556 1557 1558 1559
7 279 1178 1377 1560 1561 1562 1563
7 431 1185 1564 1565 1566 1567 1568
7 654 1189 1569 1570 1571 1572 1573
7 181 1191 1426 1574 1575 1576 1577
7 709 1196 1578 1579 1580 1581 1582
7 485 1202 1583 1584 1585 1586 1587
7 240 1204 1353 1588 1589 1590 1591
7 662 1211 1592 1593 1594 1595 1596
7 404 1214 1584 1597 1598 1599 1600
7 598 1110 1601 1602 1603 1604 1605
7 451 1116 1570 1606 1607 1608 1609
7 375 1117 1371 1610 1611 1612 1613
7 217 1124 1601 1614 1615 1616 1617
7 614 1127 1577 1618 1619 1620 1621
7 561 1130 1438 1505 1622 1623 1624
7 178 1137 1593 1625 1626 1627 1628
7 711 1142 1553 1629 1630 1631 1632
7 479 1145 1334 1633 1634 1635 1636
7 2 1150 1374 1637 1638 1639 1640
7 142 1154 1431 1538 1641 1642 1643
7 81 1160 1326 1644 1645 1646 1647
7 400 1050 1612 1648 1649 1650 1651
7 518 1057 1550 1652 1653 1654 1655
7 581 1060 1349 1604 1656 1657 1658
7 696 1069 1638 1649 1659 1660 1661
7 262 1071 1564 1662 1663 1664 1665
7 351 1075 1417 1666 1667 1668 1669
7 669 1081 1563 1670 1671 1672 1673
7 234 1087 1579 1674 1675 1676 1677
7 407 1088 1386 1541 1678 1679 1680
7 109 1094 1346 1617 1681 1682 1683
7 116 1099 1413 1684 1685 1686 1687
7 29 1104 1394 1520 1688 1689 1690
7 17 989 1338 1607 1691 1692 1693
7 158 995 1404 1675 1694 1695 1696
7 65 999 1352 1497 1697 1698 1699
7 625 1004 1344 1626 1700 1701 1702
7 501 1013 1523 1618 1703 1704 1705
7 315 1016 1545 1652 1706 1707 1708
7 670 1019 1409 1663 1709 1710 1711
7 231 1025 1500 1629 1712 1713 1714
7 414 1033 1459 1715 1716 1717 1718
7 715 1034 1362 1510 1719 1720 1721
7 170 1043 1532 1670 1722 1723 1724
7 477 1046 1473 1716 1725 1726 1727
7 622 933 1509 1557 1728 1729 1730
7 306 935 1401 1580 1731 1732 1733
7 499 940 1449 1668 1734 1735 1736
7 704 945 1494 1591 1737 1738 1739
7 247 948 1357 1477 1740 1741 1742
7 347 956 1445 1647 1743 1744 1745
7 162 960 1406 1568 1746 1747 1748
7 57 965 1366 1492 1749 1750 1751
7 8 971 1341 1594 1752 1753 1754
7 606 979 1481 1685 1755 1756 1757
7 569 983 1466 1635 1758 1759 1760
7 208 985 1337 1572 1761 1762 1763
7 591 864 1329 1446 1764 1765 1766
7 441 871 1441 1517 1767 1768 1769
7 364 879 1464 1503 1770 1771 1772
7 87 882 1331 1469 1773 1774 1775
7 37 888 1321 1585 1776 1777 1778
7 122 894 1418 1451 1779 1780 1781
7 657 902 1455 1540 1782 1783 1784
7 418 903 1324 1598 1785 1786 1787
7 269 910 1489 1514 1788 1789 1790
7 579 914 1486 1534 1791 1792 1793
7 510 918 1412 1482 1794 1795 1796
7 383 928 1476 1528 1797 1798 1799
7 672 784 1320 1800 1801 1802 1803
7 582 748 1325 1804 1805 1806 1807
7 603 742 1330 1808 1809 1810 1811
7 422 802 1335 1812 1813 1814 1815
7 718 809 1340 1816 1817 1818 1819
7 446 724 1345 1820 1821 1822 1823
7 356 766 1350 1824 1825 1826 1827
7 310 772 1355 1828 1829 1830 1831
7 562 779 1360 1832 1833 1834 1835
7 648 761 1365 1836 1837 1838 1839
7 514 815 1370 1840 1841 1842 1843
7 244 730 1375 1844 1845 1846 1847
7 493 737 1380 1848 1849 1850 1851
7 251 797 1385 1852 1853 1854 1855
7 380 791 1390 1856 1857 1858 1859
7 185 755 1395 1860 1861 1862 1863
7 482 832 1400 1864 1865 1866 1867
7 692 839 1405 1868 1869 1870 1871
7 592 845 1410 1872 1873 1874 1875
7 628 850 1415 1876 1877 1878 1879
7 409 857 1420 1880 1881 1882 1883
7 214 863 1425 1884 1885 1886 1887
7 394 821 1430 1888 1889 1890 1891
7 282 826 1435 1892 1893 1894 1895
7 611 972 1443 1896 1897 1898 1899
7 143 1039 1447 1880 1900 1901 1902
7 539 1070 1453 1863 1903 1904 1905
7 663 987 1457 1906 1907 1908 1909
7 623 1118 1461 1910 1911 1912 1913
7 609 1193 1465 1914 1915 1916 1917
7 680 1014 1470 1885 1918 1919 1920
7 666 1152 1472 1921 1922 1923 1924
7 86 1218 1479 1848 1925 1926 1927
7 106 1085 1483 1860 1928 1929 1930
7 702 1172 1488 1931 1932 1933 1934
7 685 1230 1493 1847 1935 1936 1937
7 545 908 1498 1854 1938 1939 1940
7 474 1101 1501 1941 1942 1943 1944
7 66 1009 1507 1838 1945 1946 1947
7 99 923 1512 1858 1948 1949 1950
7 437 1176 1516 1951 1952 1953 1954
7 550 1135 1521 1895 1955 1956 1957
7 713 1077 1525 1958 1959 1960 1961
7 699 1205 1529 1962 1963 1964 1965
7 658 1273 1533 1966 1967 1968 1969
7 675 1024 1537 1831 1970 1971 1972
7 155 1113 1543 1889 1973 1974 1975
7 576 1286 1546 1976 1977 1978 1979
7 349 1089 1551 1980 1981 1982 1983
7 433 920 1554 1984 1985 1986 1987
7 488 949 1559 1988 1989 1990 1991
7 706 1107 1561 1980 1992 1993 1994
7 640 1226 1567 1824 1995 1996 1997
7 165 1297 1571 1892 1998 1999 2000
7 617 895 1576 2001 2002 2003 2004
7 60 1257 1581 1832 2005 2006 2007
7 527 1108 1586 1857 2008 2009 2010
7 651 967 1590 2011 2012 2013 2014
7 454 1275 1596 1890 2015 2016 2017
7 94 1123 1599 1853 2018 2019 2020
7 32 1029 1605 1818 2021 2022 2023
7 293 981 1608 1883 1965 2024 2025
7 358 889 1613 2000 2026 2027 2028
7 631 1044 1615 1812 2029 2030 2031
7 38 1280 1620 1822 2032 2033 2034
7 597 1248 1623 1984 2035 2036 2037
7 150 955 1627 1886 1953 2038 2039
7 534 1308 1632 1821 2040 2041 2042
7 496 1167 1636 2043 2044 2045 2046
7 588 904 1639 2016 2047 2048 2049
7 366 1223 1643 2002 2050 2051 2052
7 453 1179 1646 2043 2053 2054 2055
7 78 1201 1650 1844 1943 2056 2057
7 635 1261 1654 1865 2058 2059 2060
7 566 1290 1657 1988 2061 2062 2063
7 286 1213 1661 1851 1961 2064 2065
7 72 874 1665 1841 2046 2066 2067
7 397 961 1669 2020 2068 2069 2070
7 121 1239 1673 1869 2071 2072 2073
7 467 913 1676 1842 2055 2074 2075
7 426 992 1679 2034 2076 2077 2078
7 386 1301 1683 2011 2079 2080 2081
7 574 937 1686 2009 2082 2083 2084
7 519 1006 1689 2041 2077 2085 2086
7 559 1147 1692 1904 2087 2088 2089
7 504 1314 1695 1940 2068 2090 2091
7 415 1236 1698 1956 2026 2092 2093
7 229 1161 1702 1929 2087 2094 2095
7 300 939 1704 1835 1969 2096 2097
7 135 898 1708 1879 2062 2098 2099
7 267 1294 1710 1949 2082 2100 2101
7 44 976 1714 1827 1978 2102 2103
7 460 1049 1717 1806 2051 2104 2105
7 313 1251 1720 1974 2048 2106 2107
7 523 869 1723 1872 2080 2108 2109
7 16 1065 1727 1810 2036 2110 2111
7 332 1304 1729 1809 1986 2112 2113
7 403 1157 1732 1914 2023 2114 2115
7 51 1184 1735 1828 1898 2116 2117
7 11 1316 1738 1805 2003 2118 2119
7 506 1003 1741 1910 2073 2120 2121
7 340 1079 1744 1876 1991 2122 2123
7 238 1132 1748 1932 2031 2124 2125
7 218 1035 1750 1922 2059 2126 2127
7 323 865 1753 1977 1997 2128 2129
7 189 1195 1756 1837 1909 2130 2131
7 130 1055 1759 1875 2013 2132 2133
7 371 883 1763 1966 2007 2134 2135
7 261 1256 1765 1906 1946 2136 2137
7 113 1209 1769 1866 1923 2138 2139
7 326 1126 1771 1801 1982 2140 2141
7 171 1267 1774 1897 1972 2142 2143
7 276 1061 1777 1920 1951 2144 2145
7 257 1021 1780 1936 1942 2146 2147
7 196 1187 1783 1870 1912 2148 2149
7 175 1096 1787 1902 1962 2150 2151
7 24 931 1790 1815 1933 2152 2153
7 3 1140 1793 1802 1993 2154 2155
7 223 997 1796 1927 1958 2156 2157
7 203 944 1798 1817 1917 2158 2159
7 462 722 1642 1941 2160 2161 2162
7 551 729 1699 1952 2163 2164 2165
7 195 733 1460 2027 2166 2167 2168
7 636 740 1751 2106 2169 2170 2171
7 522 747 1682 1921 2172 2173 2174
7 285 752 1524 2069 2175 2176 2177
7 333 757 1555 2156 2178 2179 2180
7 686 763 1781 2100 2181 2182 2183
7 544 771 1696 1931 2184 2185 2186
7 201 776 1463 2001 2187 2188 2189
7 630 781 1747 2035 2190 2191 2192
7 455 786 1640 2150 2193 2194 2195
7 292 793 1527 2012 2196 2197 2198
7 681 800 1778 2061 2199 2200 2201
7 338 804 1558 2120 2202 2203 2204
7 528 810 1687 2114 2205 2206 2207
7 535 816 1690 2094 2208 2209 2210
7 298 823 1531 1896 2211 2212 2213
7 676 831 1775 1976 2214 2215 2216
7 324 835 1549 2076 2217 2218 2219
7 466 842 1645 1992 2220 2221 2222
7 641 848 1754 2136 2223 2224 2225
7 188 852 1456 2134 2226 2227 2228
7 540 861 1693 2044 2229 2230 2231
7 450 868 1633 1983 2232 2233 2234
7 381 870 1587 2021 2177 2235 2236
7 595 876 1725 2065 2237 2238 2239
7 132 884 1411 1867 2217 2240 2241
7 97 890 1388 1814 2172 2242 2243
7 55 896 1359 1825 2190 2244 2245
7 424 899 1619 1905 2246 2247 2248
7 273 907 1513 1990 2249 2250 2251
7 649 909 1757 2005 2210 2252 2253
7 391 915 1595 1900 2165 2254 2255
7 572 921 1709 1916 2256 2257 2258
7 505 924 1671 1957 2233 2259 2260
7 312 930 1539 2025 2245 2261 2262
7 502 938 1666 2125 2263 2264 2265
7 629 941 1745 2071 2195 2256 2266
7 355 946 1566 1945 2231 2249 2267
7 697 952 1785 2081 2268 2269 2270
7 259 953 1504 2097 2271 2272 2273
7 76 962 1373 1800 2187 2274 2275
7 27 966 1336 1808 2202 2246 2276
7 152 973 1427 1878 2220 2237 2277
7 221 975 1475 1939 2278 2279 2280
7 604 982 1730 1925 2183 2281 2282
7 556 988 1700 2054 2235 2283 2284
7 166 993 1439 1887 2214 2285 2286
7 62 998 1364 1830 2160 2287 2288
7 13 1001 1328 1846 2169 2289 2290
7 319 1008 1544 1908 2281 2291 2292
7 615 1010 1737 1937 2270 2293 2294
7 492 1015 1660 2018 2161 2295 2296
7 235 1023 1485 1987 2273 2297 2298
7 410 1026 1609 2132 2168 2299 2300
7 665 1030 1767 2017 2275 2301 2302
7 486 1038 1656 1913 2279 2303 2304
7 705 1041 1791 2042 2265 2305 2306
7 184 1045 1452 2066 2212 2307 2308
7 515 1051 1677 2154 2228 2268 2309
7 575 1056 1712 2131 2243 2310 2311
7 384 1063 1588 2127 2239 2312 2313
7 357 1066 1569 1919 2314 2315 2316
7 693 1072 1784 1998 2170 2317 2318
7 255 1078 1499 2084 2254 2319 2320
7 243 1080 1491 1948 2186 2321 2322
7 401 1083 1602 2105 2250 2323 2324
7 661 1092 1764 1968 2315 2325 2326
7 34 1097 1342 1804 2166 2327 2328
7 110 1102 1399 1843 2184 2329 2330
7 118 1106 1402 1888 2223 2278 2331
7 445 1109 1631 1928 2215 2332 2333
7 369 1112 1578 1971 2257 2334 2335
7 586 1120 1719 1964 2252 2336 2337
7 565 1122 1706 2149 2330 2338 2339
7 213 1128 1468 2098 2198 2263 2340
7 607 1134 1731 2052 2248 2341 2342
7 719 1136 1799 2118 2180 2325 2343
7 472 1141 1648 2010 2241 2344 2345
7 169 1148 1440 2129 2321 2338 2346
7 82 1153 1379 1859 2199 2271 2347
7 6 1156 1322 1820 2178 2314 2348
7 146 1162 1424 1874 2211 2349 2350
7 138 1166 1416 1868 2226 2293 2351
7 47 1171 1351 1836 2205 2259 2352
7 103 1177 1392 1816 2196 2305 2353
7 656 1181 1761 2143 2302 2354 2355
7 265 1183 1508 2159 2286 2356 2357
7 423 1188 1616 2110 2207 2232 2358
7 712 1194 1794 2091 2299 2359 2360
7 483 1197 1655 1973 2200 2297 2361
7 174 1199 1444 2109 2291 2362 2363
7 413 1207 1610 2145 2307 2364 2365
7 227 1208 1480 2075 2290 2366 2367
7 674 1215 1772 2032 2224 2303 2368
7 650 1217 1758 2060 2283 2369 2370
7 432 1225 1622 1960 2317 2366 2371
7 280 1228 1519 2038 2173 2372 2373
7 563 1231 1705 2116 2218 2374 2375
7 216 1238 1471 2049 2332 2356 2376
7 610 1240 1734 1996 2328 2359 2377
7 40 1247 1347 1862 2181 2362 2378
7 89 1252 1384 1855 2163 2379 2380
7 125 1255 1408 1893 2208 2381 2382
7 700 1258 1788 2113 2350 2365 2383
7 250 1262 1496 2152 2188 2354 2384
7 346 1270 1560 2086 2261 2385 2386
7 517 1274 1678 2089 2295 2387 2388
7 583 1276 1718 2056 2191 2385 2389
7 395 1279 1597 2030 2336 2382 2390
7 159 1285 1433 1881 2229 2323 2391
7 19 1289 1332 1849 2193 2334 2392
7 68 1295 1367 1834 2175 2369 2393
7 495 1296 1662 2141 2319 2380 2394
7 621 1303 1740 2093 2344 2374 2395
7 309 1306 1536 2102 2221 2312 2396
7 594 1310 1724 2138 2204 2341 2397
7 365 1315 1574 2147 2310 2372 2398
7 436 1317 1625 2123 2288 2388 2399
7 41 957 1372 1803 2244 2400 2401
7 83 877 1343 1807 2242 2402 2403
7 90 1186 1339 1811 2289 2404 2405
7 20 1086 1387 1813 2347 2406 2407
7 12 980 1393 1819 2276 2408 2409
7 111 1059 1323 1823 2287 2410 2411
7 69 1299 1356 1826 2378 2412 2413
7 48 1042 1361 1829 2329 2414 2415
7 54 901 1368 1833 2274 2416 2417
7 61 1212 1354 1839 2348 2418 2419
7 5 1115 1396 1840 2352 2420 2421
7 104 1260 1327 1845 2379 2422 2423
7 96 1144 1333 1850 2327 2424 2425
7 26 1012 1381 1852 2353 2426 2427
7 33 1282 1376 1856 2392 2428 2429
7 75 1242 1348 1861 2393 2430 2431
7 160 1125 1414 1864 2285 2432 2433
7 167 934 1419 1871 2240 2434 2435
7 117 927 1421 1873 2277 2436 2437
7 124 1203 1428 1877 2331 2438 2439
7 131 1068 1432 1882 2351 2440 2441
7 139 1219 1436 1884 2391 2442 2443
7 145 1319 1403 1891 2381 2444 2445
7 153 1031 1407 1894 2349 2446 2447
7 644 936 1530 1899 2238 2448 2449
7 590 758 1592 1901 2264 2411 2450
7 497 1028 1621 1903 2171 2451 2452
7 655 1000 1547 1907 2236 2439 2453
7 412 892 1658 1911 2253 2409 2454
7 363 1103 1711 1915 2300 2421 2455
7 567 872 1573 1918 2162 2456 2457
7 458 1146 1681 1924 2272 2458 2459
7 246 836 1728 1926 2284 2432 2460
7 512 734 1630 1930 2251 2403 2461
7 335 905 1694 1934 2260 2462 2463
7 266 1047 1739 1935 2219 2448 2464
7 701 1053 1478 1938 2209 2455 2465
7 531 1206 1641 1944 2339 2466 2467
7 560 739 1565 1947 2269 2423 2463
7 716 819 1490 1950 2234 2447 2459
7 341 986 1697 1954 2306 2468 2469
7 438 1265 1672 1955 2179 2470 2471
7 500 881 1624 1959 2255 2418 2472
7 382 1155 1721 1963 2308 2429 2457
7 168 963 1766 1967 2296 2440 2452
7 577 1129 1582 1970 2167 2473 2474
7 408 721 1653 1975 2258 2414 2475
7 190 1076 1773 1979 2324 2450 2476
7 516 1149 1634 1981 2343 2436 2477
7 710 990 1487 1985 2266 2401 2478
7 620 1245 1515 1989 2309 2407 2479
7 538 1020 1644 1994 2280 2475 2480
7 260 916 1736 1995 2174 2468 2481
7 209 775 1782 1999 2320 2400 2482
7 689 1062 1462 2004 2262 2470 2483
7 305 807 1755 2006 2364 2404 2484
7 402 911 1651 2008 2216 2472 2485
7 639 866 1526 2014 2247 2473 2486
7 176 1018 1768 2015 2192 2466 2487
7 419 855 1659 2019 2346 2435 2488
7 580 847 1583 2022 2355 2444 2469
7 652 1139 1542 2024 2182 2454 2489
7 683 1180 1458 2028 2311 2451 2490
7 596 947 1600 2029 2213 2491 2492
7 180 744 1770 2033 2337 2406 2493
7 289 1237 1746 2037 2363 2461 2494
7 626 751 1518 2039 2298 2417 2495
7 228 1229 1792 2040 2203 2458 2496
7 327 919 1691 2045 2294 2491 2497
7 695 996 1474 2047 2267 2405 2498
7 253 969 1733 2050 2318 2416 2499
7 345 1288 1701 2053 2384 2443 2474
7 376 824 1715 2057 2292 2437 2500
7 314 1082 1760 2058 2189 2462 2501
7 198 1005 1776 2063 2335 2460 2502
7 396 1234 1726 2064 2225 2499 2503
7 671 789 1450 2067 2313 2425 2467
7 632 950 1522 2070 2301 2456 2504
7 277 782 1743 2072 2360 2413 2497
7 707 943 1484 2074 2164 2453 2505
7 543 1313 1548 2078 2357 2495 2503
7 215 1168 1786 2079 2375 2426 2471
7 605 1254 1502 2083 2340 2412 2492
7 555 887 1562 2085 2282 2434 2506
7 449 1095 1680 2088 2322 2445 2481
7 233 1165 1795 2090 2373 2430 2464
7 271 959 1742 2092 2333 2424 2487
7 469 1192 1688 2095 2383 2485 2507
7 612 1311 1506 2096 2194 2477 2508
7 691 764 1467 2099 2342 2431 2449
7 204 1119 1779 2101 2370 2484 2509
7 646 726 1535 2103 2304 2427 2483
7 473 1307 1603 2104 2227 2480 2510
7 294 1272 1749 2107 2394 2488 2511
7 667 1190 1448 2108 2176 2479 2512
7 490 828 1614 2111 2326 2442 2486
7 222 1111 1789 2112 2222 2476 2513
7 464 1036 1684 2115 2316 2493 2512
7 352 794 1703 2117 2376 2408 2514
7 239 841 1797 2119 2387 2438 2515
7 554 1268 1556 2121 2367 2500 2508
7 507 984 1628 2122 2185 2498 2509
7 430 1284 1667 2124 2397 2415 2510
7 585 1098 1589 2126 2368 2402 2516
7 660 1250 1442 2128 2358 2433 2517
7 370 1074 1713 2130 2201 2506 2511
7 478 813 1606 2133 2398 2419 2507
7 679 1131 1454 2135 2345 2465 2518
7 302 1222 1752 2137 2390 2482 2519
7 389 768 1722 2139 2371 2420 2518
7 425 1198 1664 2140 2197 2502 2517
7 318 1173 1762 2142 2389 2446 2496
7 484 1293 1611 2144 2396 2422 2501
7 570 1159 1575 2146 2361 2410 2513
7 359 1278 1707 2148 2206 2494 2516
7 524 1090 1637 2151 2377 2505 2515
7 601 858 1495 2153 2386 2441 2490
7 443 799 1674 2155 2395 2428 2504
7 548 1302 1552 2157 2399 2489 2514
7 616 1216 1511 2158 2230 2478 2519
