# Generated using Miratope v0.5.0 (https://github.com/galoomba1/miratope-rs)
4OFF

# Vertices, Faces, Edges, Cells
120 1200 720 600

# Vertices
-0.809016994374945 -0.809016994374945 -0.809016994374945 -0.809016994374945 
-1.30901699437495 -0.809016994374945 -0.5 0 
-1.30901699437495 -0.5 0 -0.809016994374945 
-1.30901699437495 0 -0.809016994374945 -0.5 
-0.809016994374945 -0.809016994374945 -0.809016994374945 0.809016994374945 
-0.809016994374945 0 -0.5 1.30901699437495 
-0.5 0 -1.30901699437495 0.809016994374945 
-1.30901699437495 0 -0.809016994374945 0.5 
-0.809016994374945 -0.809016994374945 0.809016994374945 -0.809016994374945 
-0.809016994374945 -0.5 1.30901699437495 0 
-0.5 -1.30901699437495 0.809016994374945 0 
-1.30901699437495 -0.809016994374945 0.5 0 
-0.809016994374945 0.809016994374945 -0.809016994374945 -0.809016994374945 
-0.809016994374945 1.30901699437495 0 -0.5 
-0.5 0.809016994374945 0 -1.30901699437495 
-1.30901699437495 0.5 0 -0.809016994374945 
0.809016994374945 -0.809016994374945 -0.809016994374945 -0.809016994374945 
0 -1.30901699437495 -0.5 -0.809016994374945 
0 -0.809016994374945 -1.30901699437495 -0.5 
0 -0.5 -0.809016994374945 -1.30901699437495 
-0.809016994374945 -0.809016994374945 0.809016994374945 0.809016994374945 
0 -0.5 0.809016994374945 1.30901699437495 
-0.809016994374945 0 0.5 1.30901699437495 
-0.5 -0.809016994374945 0 1.30901699437495 
-0.809016994374945 0.809016994374945 0.809016994374945 -0.809016994374945 
0 0.809016994374945 1.30901699437495 -0.5 
-0.809016994374945 0.5 1.30901699437495 0 
-0.5 0 1.30901699437495 -0.809016994374945 
-0.809016994374945 0.809016994374945 -0.809016994374945 0.809016994374945 
0 1.30901699437495 -0.5 0.809016994374945 
-0.809016994374945 1.30901699437495 0 0.5 
-0.5 1.30901699437495 -0.809016994374945 0 
0.809016994374945 -0.809016994374945 -0.809016994374945 0.809016994374945 
0.5 0 -1.30901699437495 0.809016994374945 
0.809016994374945 -0.5 -1.30901699437495 0 
0 -0.809016994374945 -1.30901699437495 0.5 
0.809016994374945 -0.809016994374945 0.809016994374945 -0.809016994374945 
0.5 -1.30901699437495 0.809016994374945 0 
0.809016994374945 -1.30901699437495 0 -0.5 
0 -1.30901699437495 0.5 -0.809016994374945 
0.809016994374945 0.809016994374945 -0.809016994374945 -0.809016994374945 
0.5 0.809016994374945 0 -1.30901699437495 
0.809016994374945 0 -0.5 -1.30901699437495 
0 0.5 -0.809016994374945 -1.30901699437495 
-0.809016994374945 0.809016994374945 0.809016994374945 0.809016994374945 
0 1.30901699437495 0.5 0.809016994374945 
0 0.809016994374945 1.30901699437495 0.5 
0 0.5 0.809016994374945 1.30901699437495 
0.809016994374945 -0.809016994374945 0.809016994374945 0.809016994374945 
1.30901699437495 -0.5 0 0.809016994374945 
0.5 -0.809016994374945 0 1.30901699437495 
0.809016994374945 -1.30901699437495 0 0.5 
0.809016994374945 0.809016994374945 -0.809016994374945 0.809016994374945 
1.30901699437495 0.809016994374945 -0.5 0 
0.5 1.30901699437495 -0.809016994374945 0 
0.809016994374945 0.5 -1.30901699437495 0 
0.809016994374945 0.809016994374945 0.809016994374945 -0.809016994374945 
1.30901699437495 0 0.809016994374945 -0.5 
0.5 0 1.30901699437495 -0.809016994374945 
0.809016994374945 0 0.5 -1.30901699437495 
0.809016994374945 0.809016994374945 0.809016994374945 0.809016994374945 
1.30901699437495 0.809016994374945 0.5 0 
1.30901699437495 0.5 0 0.809016994374945 
1.30901699437495 0 0.809016994374945 0.5 
-1.61803398874989 0 0 0 
-1.30901699437495 0.809016994374945 0.5 0 
-1.30901699437495 0.5 0 0.809016994374945 
-1.30901699437495 0 0.809016994374945 0.5 
0 -1.61803398874989 0 0 
0 -1.30901699437495 -0.5 0.809016994374945 
-0.809016994374945 -1.30901699437495 0 0.5 
-0.5 -1.30901699437495 -0.809016994374945 0 
0 0 -1.61803398874989 0 
0 0.809016994374945 -1.30901699437495 -0.5 
-0.809016994374945 0.5 -1.30901699437495 0 
-0.5 0 -1.30901699437495 -0.809016994374945 
0 0 0 -1.61803398874989 
0 -0.5 0.809016994374945 -1.30901699437495 
-0.809016994374945 0 0.5 -1.30901699437495 
-0.5 -0.809016994374945 0 -1.30901699437495 
1.61803398874989 0 0 0 
1.30901699437495 -0.809016994374945 -0.5 0 
1.30901699437495 -0.5 0 -0.809016994374945 
1.30901699437495 0 -0.809016994374945 -0.5 
0 1.61803398874989 0 0 
0.5 1.30901699437495 0.809016994374945 0 
0.809016994374945 1.30901699437495 0 -0.5 
0 1.30901699437495 0.5 -0.809016994374945 
0 0 1.61803398874989 0 
0.5 0 1.30901699437495 0.809016994374945 
0.809016994374945 -0.5 1.30901699437495 0 
0 -0.809016994374945 1.30901699437495 0.5 
0 0 0 1.61803398874989 
0.5 0.809016994374945 0 1.30901699437495 
0.809016994374945 0 -0.5 1.30901699437495 
0 0.5 -0.809016994374945 1.30901699437495 
-1.30901699437495 -0.5 0 0.809016994374945 
-1.30901699437495 0 0.809016994374945 -0.5 
-1.30901699437495 0.809016994374945 -0.5 0 
-0.809016994374945 -1.30901699437495 0 -0.5 
-0.809016994374945 -0.5 -1.30901699437495 0 
-0.809016994374945 0 -0.5 -1.30901699437495 
0.5 -1.30901699437495 -0.809016994374945 0 
0.5 -0.809016994374945 0 -1.30901699437495 
0.5 0 -1.30901699437495 -0.809016994374945 
0 -1.30901699437495 0.5 0.809016994374945 
0 0.5 0.809016994374945 -1.30901699437495 
0 0.809016994374945 -1.30901699437495 0.5 
0 -0.5 -0.809016994374945 1.30901699437495 
0 1.30901699437495 -0.5 -0.809016994374945 
0 -0.809016994374945 1.30901699437495 -0.5 
-0.5 1.30901699437495 0.809016994374945 0 
-0.5 0.809016994374945 0 1.30901699437495 
-0.5 0 1.30901699437495 0.809016994374945 
1.30901699437495 -0.809016994374945 0.5 0 
1.30901699437495 0.5 0 -0.809016994374945 
1.30901699437495 0 -0.809016994374945 0.5 
0.809016994374945 1.30901699437495 0 0.5 
0.809016994374945 0.5 1.30901699437495 0 
0.809016994374945 0 0.5 1.30901699437495 

# Faces
3 1 2 0
3 0 1 3
3 0 2 3
3 1 3 2
3 4 5 6
3 4 7 5
3 4 7 6
3 5 6 7
3 8 9 10
3 8 11 9
3 10 11 8
3 10 11 9
3 12 14 13
3 12 15 13
3 14 15 12
3 13 14 15
3 16 17 18
3 17 19 16
3 16 18 19
3 17 19 18
3 21 22 20
3 20 23 21
3 22 23 20
3 21 23 22
3 24 26 25
3 24 27 25
3 24 26 27
3 25 26 27
3 29 30 28
3 29 31 28
3 30 31 28
3 29 31 30
3 33 34 32
3 32 35 33
3 34 35 32
3 34 35 33
3 36 38 37
3 37 39 36
3 36 39 38
3 37 38 39
3 40 42 41
3 40 41 43
3 40 42 43
3 41 42 43
3 44 46 45
3 44 45 47
3 44 46 47
3 45 47 46
3 49 50 48
3 48 51 49
3 48 50 51
3 49 51 50
3 52 53 54
3 53 55 52
3 52 54 55
3 53 55 54
3 57 58 56
3 56 59 57
3 56 59 58
3 58 59 57
3 60 62 61
3 61 63 60
3 60 62 63
3 61 62 63
3 64 65 66
3 65 67 64
3 66 67 64
3 66 67 65
3 68 70 69
3 68 71 69
3 68 70 71
3 70 71 69
3 72 74 73
3 73 75 72
3 72 74 75
3 73 74 75
3 76 78 77
3 76 79 77
3 78 79 76
3 77 79 78
3 80 82 81
3 80 83 81
3 80 83 82
3 81 82 83
3 84 85 86
3 84 87 85
3 84 86 87
3 85 87 86
3 89 90 88
3 88 91 89
3 88 91 90
3 89 91 90
3 92 93 94
3 93 95 92
3 92 94 95
3 93 95 94
3 96 7 64
3 64 1 96
3 64 1 7
3 7 1 96
3 97 11 64
3 64 97 2
3 64 2 11
3 97 2 11
3 64 15 98
3 98 3 64
3 64 3 15
3 98 3 15
3 11 70 1
3 70 99 11
3 11 1 99
3 70 99 1
3 74 3 7
3 74 100 7
3 7 100 3
3 74 3 100
3 78 2 15
3 15 78 101
3 15 101 2
3 78 2 101
3 4 100 1
3 4 71 1
3 100 71 4
3 100 71 1
3 8 2 99
3 8 2 79
3 8 79 99
3 2 79 99
3 12 3 101
3 12 3 75
3 12 101 75
3 3 75 101
3 99 71 0
3 0 99 17
3 71 17 0
3 99 17 71
3 0 75 100
3 0 18 100
3 0 18 75
3 75 18 100
3 0 101 79
3 0 19 101
3 0 19 79
3 79 19 101
3 67 96 20
3 67 11 20
3 20 11 96
3 67 11 96
3 24 65 97
3 24 65 15
3 97 15 24
3 65 15 97
3 28 66 98
3 66 7 28
3 28 98 7
3 98 7 66
3 4 23 96
3 23 70 4
3 96 70 4
3 96 70 23
3 12 31 98
3 12 74 31
3 12 98 74
3 98 74 31
3 27 97 8
3 8 78 27
3 8 78 97
3 97 78 27
3 35 71 102
3 35 18 102
3 71 18 102
3 35 71 18
3 103 39 79
3 103 39 17
3 79 17 103
3 79 17 39
3 43 75 104
3 43 19 104
3 104 75 19
3 43 19 75
3 68 39 10
3 68 10 99
3 68 39 99
3 10 39 99
3 6 35 72
3 6 100 72
3 72 100 35
3 6 100 35
3 76 43 14
3 14 101 76
3 76 101 43
3 43 101 14
3 30 65 13
3 30 13 98
3 65 98 30
3 13 65 98
3 5 66 22
3 22 96 5
3 66 96 22
3 5 96 66
3 26 9 67
3 9 97 26
3 26 67 97
3 67 97 9
3 38 102 68
3 68 17 38
3 102 17 68
3 102 17 38
3 34 104 72
3 72 18 34
3 72 104 18
3 104 18 34
3 76 103 42
3 42 19 76
3 76 103 19
3 103 19 42
3 20 10 105
3 105 70 20
3 20 70 10
3 105 10 70
3 24 106 14
3 24 106 78
3 24 78 14
3 106 14 78
3 107 6 28
3 28 74 107
3 6 74 28
3 107 6 74
3 108 69 4
3 4 108 35
3 69 35 4
3 69 35 108
3 12 73 109
3 109 43 12
3 12 43 73
3 109 73 43
3 8 77 110
3 110 39 8
3 8 39 77
3 110 39 77
3 44 111 26
3 111 65 44
3 44 26 65
3 111 26 65
3 44 30 112
3 112 66 44
3 44 30 66
3 112 66 30
3 44 22 113
3 44 113 67
3 44 22 67
3 113 67 22
3 32 69 51
3 32 51 102
3 69 102 32
3 51 69 102
3 40 73 55
3 40 104 55
3 73 104 40
3 73 104 55
3 59 77 36
3 36 59 103
3 36 103 77
3 59 103 77
3 68 37 51
3 68 105 51
3 68 105 37
3 51 105 37
3 76 41 59
3 59 106 76
3 41 106 76
3 41 106 59
3 72 55 33
3 72 107 55
3 72 107 33
3 33 107 55
3 50 105 23
3 23 69 50
3 50 69 105
3 105 69 23
3 31 107 54
3 31 73 54
3 54 107 73
3 31 107 73
3 58 27 106
3 58 77 27
3 106 77 58
3 106 77 27
3 16 34 81
3 16 81 102
3 16 34 102
3 81 34 102
3 16 82 38
3 82 103 16
3 16 38 103
3 38 103 82
3 16 83 42
3 16 83 104
3 16 42 104
3 83 42 104
3 111 87 24
3 24 111 13
3 87 13 24
3 87 13 111
3 20 113 91
3 113 9 20
3 20 9 91
3 113 9 91
3 28 95 112
3 112 5 28
3 95 5 28
3 112 5 95
3 13 31 84
3 84 13 109
3 84 109 31
3 13 31 109
3 5 23 92
3 92 5 108
3 92 23 108
3 23 108 5
3 88 27 9
3 9 110 88
3 27 110 88
3 27 110 9
3 87 109 41
3 87 14 109
3 87 14 41
3 109 41 14
3 110 37 91
3 110 10 91
3 37 10 91
3 110 37 10
3 95 33 108
3 108 6 95
3 95 6 33
3 33 6 108
3 81 51 114
3 114 81 38
3 114 38 51
3 51 38 81
3 115 82 59
3 115 82 42
3 59 42 115
3 59 42 82
3 116 55 83
3 116 83 34
3 116 34 55
3 55 34 83
3 45 111 84
3 84 30 45
3 84 30 111
3 111 30 45
3 88 46 113
3 88 26 46
3 88 26 113
3 113 26 46
3 92 47 112
3 92 22 47
3 92 112 22
3 112 22 47
3 86 54 40
3 86 109 40
3 40 54 109
3 86 109 54
3 32 94 50
3 94 108 32
3 50 108 32
3 50 108 94
3 36 58 90
3 36 110 90
3 58 110 36
3 90 110 58
3 25 87 56
3 56 25 106
3 87 106 56
3 25 106 87
3 48 21 91
3 48 105 21
3 48 105 91
3 21 105 91
3 52 95 29
3 52 29 107
3 95 107 52
3 29 95 107
3 53 115 40
3 40 83 53
3 40 83 115
3 53 115 83
3 32 116 49
3 32 81 49
3 32 116 81
3 116 81 49
3 36 57 114
3 36 82 57
3 114 82 36
3 57 114 82
3 56 86 115
3 86 41 56
3 115 41 56
3 86 115 41
3 48 90 114
3 48 90 37
3 48 114 37
3 90 37 114
3 52 116 94
3 94 33 52
3 116 33 52
3 94 33 116
3 85 111 46
3 85 46 25
3 111 25 85
3 46 111 25
3 45 112 93
3 93 29 45
3 93 112 29
3 45 112 29
3 47 113 89
3 89 21 47
3 89 113 21
3 47 21 113
3 117 29 84
3 117 54 84
3 84 29 54
3 117 29 54
3 88 118 25
3 88 58 118
3 88 58 25
3 25 58 118
3 119 21 92
3 119 50 92
3 92 50 21
3 119 21 50
3 80 57 61
3 80 61 115
3 80 115 57
3 61 57 115
3 62 53 80
3 62 116 80
3 80 53 116
3 62 116 53
3 80 49 63
3 80 63 114
3 49 114 80
3 63 49 114
3 61 53 117
3 61 86 117
3 61 53 86
3 117 53 86
3 118 57 63
3 118 90 63
3 63 90 57
3 57 90 118
3 119 49 62
3 62 94 119
3 49 94 62
3 49 94 119
3 61 118 56
3 56 61 85
3 56 85 118
3 61 118 85
3 62 117 52
3 52 62 93
3 52 117 93
3 117 93 62
3 48 63 119
3 48 63 89
3 48 119 89
3 119 89 63
3 60 85 117
3 60 45 117
3 85 45 60
3 117 45 85
3 60 89 118
3 118 46 60
3 89 46 60
3 118 89 46
3 119 93 60
3 119 47 60
3 60 47 93
3 93 47 119
3 0 101 2
3 3 0 101
3 2 101 3
3 4 6 100
3 7 4 100
3 6 100 7
3 9 97 8
3 11 97 8
3 11 9 97
3 12 109 13
3 14 109 12
3 13 109 14
3 17 103 16
3 19 103 16
3 19 103 17
3 20 96 22
3 23 96 20
3 23 96 22
3 24 25 111
3 26 24 111
3 26 111 25
3 29 107 28
3 28 107 31
3 31 29 107
3 34 102 32
3 35 32 102
3 35 34 102
3 36 110 37
3 36 110 39
3 37 110 39
3 40 115 41
3 42 115 40
3 41 115 42
3 45 112 44
3 44 112 47
3 45 112 47
3 48 105 50
3 51 48 105
3 50 105 51
3 52 116 53
3 52 116 55
3 55 53 116
3 57 56 118
3 56 118 58
3 57 118 58
3 60 119 62
3 63 60 119
3 62 63 119
3 64 65 98
3 64 66 98
3 65 98 66
3 68 99 70
3 71 68 99
3 70 71 99
3 72 73 104
3 75 72 104
3 75 104 73
3 76 77 106
3 78 106 76
3 77 106 78
3 81 114 80
3 82 80 114
3 82 114 81
3 85 117 84
3 84 117 86
3 86 85 117
3 88 113 89
3 91 113 88
3 91 113 89
3 92 94 108
3 92 108 95
3 95 94 108
3 64 3 7
3 1 64 3
3 3 7 1
3 97 15 64
3 2 15 64
3 2 15 97
3 15 98 12
3 3 12 98
3 12 3 15
3 2 1 11
3 2 99 11
3 2 99 1
3 75 3 74
3 75 100 74
3 100 75 3
3 15 78 14
3 14 101 15
3 101 14 78
3 1 100 0
3 1 0 71
3 71 100 0
3 2 78 8
3 78 8 79
3 78 79 2
3 101 43 12
3 12 43 75
3 101 43 75
3 99 79 0
3 17 79 0
3 99 79 17
3 0 75 19
3 18 19 0
3 19 75 18
3 79 76 101
3 101 19 76
3 79 19 76
3 64 96 67
3 64 11 67
3 64 11 96
3 65 24 13
3 15 13 24
3 13 65 15
3 98 74 28
3 74 28 7
3 7 74 98
3 1 96 4
3 70 4 1
3 96 70 1
3 12 73 31
3 73 12 74
3 74 73 31
3 27 97 24
3 27 24 78
3 24 78 97
3 17 102 71
3 18 17 102
3 17 71 18
3 103 77 39
3 77 103 79
3 77 39 79
3 42 104 43
3 19 42 104
3 43 19 42
3 10 39 8
3 10 99 8
3 99 39 8
3 35 18 72
3 100 72 18
3 18 100 35
3 76 41 14
3 41 76 43
3 43 14 41
3 30 13 31
3 30 98 31
3 98 31 13
3 7 5 66
3 7 5 96
3 7 66 96
3 65 26 67
3 97 26 65
3 67 97 65
3 39 68 38
3 17 68 39
3 39 38 17
3 34 16 104
3 18 16 34
3 18 104 16
3 42 59 76
3 76 59 103
3 103 59 42
3 11 10 20
3 11 20 70
3 11 10 70
3 106 87 24
3 14 87 24
3 14 106 87
3 6 107 72
3 74 72 107
3 72 6 74
3 69 4 71
3 71 4 35
3 69 35 71
3 73 109 40
3 43 109 40
3 43 40 73
3 8 110 27
3 27 77 8
3 77 27 110
3 44 111 30
3 65 30 44
3 65 111 30
3 30 112 28
3 66 112 28
3 28 30 66
3 66 44 22
3 67 44 66
3 66 67 22
3 69 68 51
3 102 68 51
3 69 102 68
3 55 40 83
3 104 83 40
3 55 83 104
3 58 36 59
3 36 58 77
3 58 77 59
3 68 10 37
3 10 68 105
3 10 37 105
3 59 56 41
3 59 106 56
3 106 41 56
3 72 55 34
3 34 72 33
3 34 55 33
3 70 105 23
3 70 69 23
3 70 69 105
3 54 107 55
3 55 54 73
3 55 73 107
3 27 58 25
3 58 25 106
3 27 25 106
3 81 38 16
3 102 38 16
3 102 81 38
3 36 82 38
3 36 82 103
3 38 103 36
3 83 16 82
3 16 42 82
3 83 42 82
3 87 84 111
3 13 111 84
3 87 84 13
3 67 113 20
3 67 9 20
3 9 113 67
3 28 6 95
3 6 28 5
3 5 6 95
3 31 84 54
3 84 54 109
3 31 54 109
3 5 23 4
3 4 108 5
3 23 108 4
3 9 88 26
3 27 26 88
3 27 9 26
3 86 109 87
3 87 86 41
3 109 86 41
3 9 110 91
3 10 91 9
3 9 10 110
3 33 108 35
3 6 108 35
3 35 6 33
3 51 114 37
3 38 37 114
3 37 51 38
3 115 57 82
3 59 115 57
3 59 82 57
3 83 81 116
3 81 116 34
3 81 34 83
3 45 84 29
3 30 29 84
3 29 45 30
3 46 113 44
3 44 46 26
3 26 113 44
3 5 112 92
3 5 92 22
3 5 22 112
3 40 86 53
3 53 40 54
3 53 86 54
3 32 50 69
3 69 108 32
3 108 50 69
3 88 58 90
3 88 110 90
3 110 88 58
3 56 85 25
3 85 56 87
3 87 25 85
3 21 91 20
3 20 21 105
3 20 91 105
3 95 33 52
3 107 52 33
3 33 107 95
3 53 80 115
3 83 80 53
3 83 115 80
3 51 32 49
3 32 81 51
3 51 49 81
3 36 90 57
3 90 114 36
3 114 90 57
3 56 61 86
3 115 61 56
3 115 86 61
3 91 90 48
3 91 37 48
3 90 37 91
3 94 116 32
3 32 94 33
3 32 116 33
3 45 85 46
3 111 85 45
3 45 111 46
3 95 112 93
3 93 29 95
3 112 29 95
3 22 47 113
3 21 47 22
3 21 113 22
3 29 117 52
3 52 117 54
3 52 54 29
3 88 118 46
3 88 25 46
3 25 46 118
3 23 21 92
3 50 92 23
3 23 50 21
3 63 80 61
3 80 63 57
3 63 57 61
3 62 49 80
3 49 80 116
3 116 49 62
3 48 63 49
3 114 63 48
3 48 114 49
3 61 117 62
3 61 53 62
3 53 117 62
3 63 118 89
3 89 63 90
3 90 118 89
3 49 119 50
3 94 119 50
3 49 94 50
3 61 118 60
3 61 85 60
3 85 60 118
3 94 52 62
3 94 93 52
3 94 93 62
3 21 119 48
3 21 89 48
3 89 119 21
3 117 93 60
3 45 60 93
3 45 117 93
3 47 60 89
3 46 60 47
3 46 89 47
3 92 119 93
3 47 119 92
3 92 93 47
3 1 99 0
3 0 99 2
3 4 96 5
3 4 96 7
3 9 110 8
3 8 110 10
3 12 14 101
3 15 101 12
3 17 16 102
3 18 102 16
3 21 113 20
3 20 113 22
3 24 25 106
3 27 106 24
3 28 30 98
3 28 31 98
3 33 108 32
3 35 108 32
3 36 37 114
3 38 114 36
3 40 104 42
3 43 104 40
3 45 111 44
3 44 46 111
3 48 119 49
3 50 48 119
3 54 107 52
3 55 52 107
3 56 115 57
3 59 115 56
3 60 117 61
3 62 117 60
3 65 97 64
3 64 97 67
3 68 105 69
3 70 68 105
3 74 100 72
3 72 100 75
3 76 77 103
3 79 76 103
3 81 80 116
3 83 80 116
3 84 86 109
3 87 109 84
3 88 89 118
3 88 118 90
3 92 112 93
3 95 92 112
3 64 11 1
3 1 11 96
3 97 8 2
3 11 2 8
3 2 64 3
3 3 2 15
3 10 99 11
3 99 70 10
3 1 100 7
3 1 100 3
3 78 101 79
3 2 101 79
3 71 70 4
3 71 1 70
3 79 39 8
3 79 99 39
3 3 0 75
3 101 0 75
3 17 68 99
3 71 17 68
3 0 71 18
3 100 18 71
3 17 19 0
3 19 17 79
3 9 20 11
3 9 67 11
3 15 78 24
3 15 78 97
3 66 7 64
3 64 98 7
3 23 20 70
3 20 70 96
3 3 74 12
3 3 98 74
3 78 8 77
3 77 27 78
3 102 69 35
3 71 102 69
3 39 103 38
3 17 38 103
3 75 104 18
3 19 104 18
3 39 68 37
3 37 10 39
3 6 4 35
3 100 35 4
3 43 19 76
3 101 43 19
3 15 13 98
3 15 65 98
3 67 22 96
3 66 96 67
3 27 26 97
3 97 9 27
3 68 51 38
3 102 51 38
3 35 72 34
3 35 18 34
3 42 16 103
3 16 42 19
3 20 10 91
3 10 91 105
3 76 106 14
3 76 14 78
3 7 6 28
3 6 74 7
3 23 69 4
3 108 23 69
3 75 12 73
3 73 43 75
3 110 36 77
3 36 77 39
3 65 111 24
3 24 65 26
3 65 44 66
3 65 30 66
3 26 44 67
3 26 113 67
3 51 50 32
3 51 50 69
3 73 72 55
3 104 55 72
3 59 82 36
3 103 82 59
3 51 37 48
3 105 48 37
3 42 41 76
3 41 59 42
3 6 33 72
3 107 33 6
3 105 21 50
3 21 105 23
3 31 107 74
3 73 107 74
3 58 106 59
3 59 106 77
3 32 81 34
3 102 32 81
3 81 16 82
3 82 81 38
3 16 83 34
3 34 83 104
3 13 24 14
3 13 87 14
3 9 88 113
3 91 88 9
3 66 5 28
3 5 112 66
3 12 31 13
3 12 31 109
3 23 92 22
3 23 5 22
3 27 88 58
3 27 110 58
3 41 109 43
3 43 14 109
3 91 90 110
3 110 90 37
3 95 108 5
3 5 6 108
3 114 49 81
3 51 114 49
3 83 115 82
3 42 83 115
3 33 116 55
3 33 116 34
3 13 84 30
3 30 111 13
3 25 88 26
3 26 46 25
3 47 22 44
3 44 22 112
3 73 40 54
3 109 54 73
3 94 50 92
3 92 50 108
3 58 36 57
3 58 57 90
3 41 56 87
3 106 87 41
3 91 48 89
3 91 89 21
3 28 29 95
3 107 95 28
3 53 40 55
3 55 83 53
3 94 49 32
3 116 49 94
3 57 80 114
3 82 80 57
3 86 115 40
3 40 41 86
3 90 48 63
3 114 63 90
3 95 52 94
3 95 94 33
3 87 85 111
3 87 111 25
3 112 45 30
3 30 29 112
3 113 89 46
3 46 47 113
3 31 84 29
3 31 29 54
3 56 118 25
3 56 25 58
3 47 21 92
3 21 119 47
3 80 53 61
3 115 61 53
3 53 62 52
3 116 62 52
3 62 80 63
3 63 49 62
3 54 53 117
3 54 117 86
3 63 118 61
3 61 118 57
3 62 119 93
3 93 119 94
3 86 56 85
3 85 61 86
3 29 93 52
3 29 93 117
3 63 60 89
3 119 60 89
3 84 45 117
3 85 45 84
3 85 60 46
3 85 118 46
3 45 60 47
3 45 93 47
3 2 79 0
3 7 4 1
3 8 27 9
3 12 43 14
3 17 16 38
3 20 67 22
3 25 87 24
3 31 74 28
3 32 69 35
3 36 90 37
3 40 83 42
3 44 30 45
3 50 21 48
3 55 52 33
3 57 56 61
3 60 93 62
3 64 65 15
3 68 10 70
3 75 18 72
3 77 76 59
3 81 49 80
3 86 54 84
3 89 46 88
3 95 5 92
3 1 64 2
3 97 78 2
3 15 3 101
3 11 99 8
3 3 100 0
3 78 101 76
3 99 71 1
3 79 77 8
3 101 19 75
3 17 39 99
3 18 0 17
3 19 103 79
3 11 97 67
3 15 14 24
3 3 7 98
3 11 70 96
3 75 12 74
3 78 27 106
3 71 68 102
3 39 103 36
3 19 104 16
3 39 10 110
3 71 100 35
3 42 76 43
3 13 98 12
3 66 96 64
3 24 97 26
3 38 68 37
3 102 34 18
3 103 42 82
3 10 9 20
3 106 41 14
3 74 6 100
3 70 69 4
3 43 104 73
3 110 58 77
3 65 111 13
3 98 66 30
3 67 44 65
3 69 105 51
3 34 55 104
3 59 36 57
3 105 91 37
3 59 115 41
3 33 72 35
3 23 105 20
3 73 107 72
3 58 56 106
3 102 81 51
3 38 114 82
3 83 16 81
3 13 87 109
3 9 26 113
3 5 28 7
3 73 109 31
3 96 5 23
3 27 25 88
3 40 109 41
3 88 110 91
3 4 108 6
3 48 114 51
3 80 115 82
3 32 116 34
3 30 84 31
3 111 46 26
3 66 112 22
3 55 40 54
3 50 108 23
3 58 90 118
3 87 56 86
3 91 21 113
3 6 107 95
3 116 53 83
3 49 32 50
3 114 63 57
3 115 86 53
3 89 48 90
3 108 33 94
3 84 111 85
3 29 112 28
3 44 47 113
3 107 29 54
3 25 118 85
3 22 21 92
3 61 62 80
3 94 62 116
3 49 63 119
3 53 52 117
3 63 118 60
3 92 119 94
3 61 117 85
3 95 52 93
3 89 47 119
3 45 117 29
3 45 46 60
3 47 93 112

# Cells
4 0 1 2 3
4 4 5 6 7
4 8 9 10 11
4 12 13 14 15
4 16 17 18 19
4 20 21 22 23
4 24 25 26 27
4 28 29 30 31
4 32 33 34 35
4 36 37 38 39
4 40 41 42 43
4 44 45 46 47
4 48 49 50 51
4 52 53 54 55
4 56 57 58 59
4 60 61 62 63
4 64 65 66 67
4 68 69 70 71
4 72 73 74 75
4 76 77 78 79
4 80 81 82 83
4 84 85 86 87
4 88 89 90 91
4 92 93 94 95
4 96 97 98 99
4 100 101 102 103
4 104 105 106 107
4 108 109 110 111
4 112 113 114 115
4 116 117 118 119
4 120 121 122 123
4 124 125 126 127
4 128 129 130 131
4 132 133 134 135
4 136 137 138 139
4 140 141 142 143
4 144 145 146 147
4 148 149 150 151
4 152 153 154 155
4 156 157 158 159
4 160 161 162 163
4 164 165 166 167
4 168 169 170 171
4 172 173 174 175
4 176 177 178 179
4 180 181 182 183
4 184 185 186 187
4 188 189 190 191
4 192 193 194 195
4 196 197 198 199
4 200 201 202 203
4 204 205 206 207
4 208 209 210 211
4 212 213 214 215
4 216 217 218 219
4 220 221 222 223
4 224 225 226 227
4 228 229 230 231
4 232 233 234 235
4 236 237 238 239
4 240 241 242 243
4 244 245 246 247
4 248 249 250 251
4 252 253 254 255
4 256 257 258 259
4 260 261 262 263
4 264 265 266 267
4 268 269 270 271
4 272 273 274 275
4 276 277 278 279
4 280 281 282 283
4 284 285 286 287
4 288 289 290 291
4 292 293 294 295
4 296 297 298 299
4 300 301 302 303
4 304 305 306 307
4 308 309 310 311
4 312 313 314 315
4 316 317 318 319
4 320 321 322 323
4 324 325 326 327
4 328 329 330 331
4 332 333 334 335
4 336 337 338 339
4 340 341 342 343
4 344 345 346 347
4 348 349 350 351
4 352 353 354 355
4 356 357 358 359
4 360 361 362 363
4 364 365 366 367
4 368 369 370 371
4 372 373 374 375
4 376 377 378 379
4 380 381 382 383
4 384 385 386 387
4 388 389 390 391
4 392 393 394 395
4 396 397 398 399
4 400 401 402 403
4 404 405 406 407
4 408 409 410 411
4 412 413 414 415
4 416 417 418 419
4 420 421 422 423
4 424 425 426 427
4 428 429 430 431
4 432 433 434 435
4 436 437 438 439
4 440 441 442 443
4 444 445 446 447
4 448 449 450 451
4 452 453 454 455
4 456 457 458 459
4 460 461 462 463
4 464 465 466 467
4 468 469 470 471
4 472 473 474 475
4 476 477 478 479
4 2 480 481 482
4 6 483 484 485
4 9 486 487 488
4 12 489 490 491
4 17 492 493 494
4 22 495 496 497
4 24 498 499 500
4 29 501 502 503
4 34 504 505 506
4 37 507 508 509
4 40 510 511 512
4 45 513 514 515
4 50 516 517 518
4 53 519 520 521
4 56 522 523 524
4 62 525 526 527
4 64 528 529 530
4 70 531 532 533
4 73 534 535 536
4 76 537 538 539
4 80 540 541 542
4 84 543 544 545
4 89 546 547 548
4 94 549 550 551
4 98 552 553 554
4 101 555 556 557
4 107 558 559 560
4 110 561 562 563
4 115 564 565 566
4 117 567 568 569
4 123 570 571 572
4 125 573 574 575
4 130 576 577 578
4 133 579 580 581
4 138 582 583 584
4 143 585 586 587
4 147 588 589 590
4 149 591 592 593
4 154 594 595 596
4 158 597 598 599
4 161 600 601 602
4 167 603 604 605
4 170 606 607 608
4 172 609 610 611
4 177 612 613 614
4 183 615 616 617
4 186 618 619 620
4 188 621 622 623
4 193 624 625 626
4 199 627 628 629
4 202 630 631 632
4 205 633 634 635
4 211 636 637 638
4 212 639 640 641
4 218 642 643 644
4 220 645 646 647
4 227 648 649 650
4 230 651 652 653
4 235 654 655 656
4 236 657 658 659
4 241 660 661 662
4 247 663 664 665
4 250 666 667 668
4 255 669 670 671
4 257 672 673 674
4 260 675 676 677
4 266 678 679 680
4 271 681 682 683
4 272 684 685 686
4 279 687 688 689
4 282 690 691 692
4 284 693 694 695
4 289 696 697 698
4 295 699 700 701
4 296 702 703 704
4 303 705 706 707
4 305 708 709 710
4 310 711 712 713
4 314 714 715 716
4 319 717 718 719
4 320 720 721 722
4 324 723 724 725
4 329 726 727 728
4 335 729 730 731
4 338 732 733 734
4 340 735 736 737
4 345 738 739 740
4 349 741 742 743
4 355 744 745 746
4 358 747 748 749
4 360 750 751 752
4 366 753 754 755
4 371 756 757 758
4 372 759 760 761
4 379 762 763 764
4 382 765 766 767
4 387 768 769 770
4 389 771 772 773
4 392 774 775 776
4 396 777 778 779
4 401 780 781 782
4 407 783 784 785
4 408 786 787 788
4 414 789 790 791
4 419 792 793 794
4 423 795 796 797
4 424 798 799 800
4 430 801 802 803
4 432 804 805 806
4 437 807 808 809
4 443 810 811 812
4 444 813 814 815
4 449 816 817 818
4 455 819 820 821
4 459 822 823 824
4 461 825 826 827
4 466 828 829 830
4 469 831 832 833
4 474 834 835 836
4 479 837 838 839
4 0 563 840 841
4 5 628 842 843
4 8 728 844 845
4 14 568 846 847
4 16 607 848 849
4 20 794 850 851
4 25 695 852 853
4 30 625 854 855
4 33 729 856 857
4 36 733 858 859
4 42 612 860 861
4 44 788 862 863
4 48 819 864 865
4 54 690 866 867
4 57 736 868 869
4 60 813 870 871
4 65 632 872 873
4 68 689 874 875
4 74 565 876 877
4 77 610 878 879
4 81 738 880 881
4 86 723 882 883
4 88 818 884 885
4 93 789 886 887
4 97 590 888 889
4 103 487 890 891
4 106 556 892 893
4 109 644 894 895
4 114 554 896 897
4 119 575 898 899
4 121 598 900 901
4 126 617 902 903
4 131 481 904 905
4 135 532 906 907
4 137 572 908 909
4 142 580 910 911
4 145 709 912 913
4 150 605 914 915
4 155 529 916 917
4 159 496 918 919
4 162 559 920 921
4 165 658 922 923
4 168 653 924 925
4 173 635 926 927
4 178 584 928 929
4 180 678 930 931
4 187 483 932 933
4 190 586 934 935
4 195 593 936 937
4 198 668 938 939
4 201 722 940 941
4 204 670 942 943
4 209 618 944 945
4 215 493 946 947
4 216 764 948 949
4 223 538 950 951
4 226 595 952 953
4 228 719 954 955
4 234 577 956 957
4 239 508 958 959
4 243 499 960 961
4 246 661 962 963
4 249 746 964 965
4 252 753 966 967
4 259 534 968 969
4 261 700 970 971
4 267 517 972 973
4 268 639 974 975
4 274 648 976 977
4 276 803 978 979
4 283 602 980 981
4 286 677 982 983
4 291 504 984 985
4 292 696 986 987
4 297 636 988 989
4 302 646 990 991
4 307 547 992 993
4 309 664 994 995
4 315 489 996 997
4 316 748 998 999
4 322 758 1000 1001
4 327 623 1002 1003
4 328 782 1004 1005
4 333 713 1006 1007
4 336 773 1008 1009
4 341 704 1010 1011
4 346 686 1012 1013
4 350 706 1014 1015
4 353 799 1016 1017
4 359 514 1018 1019
4 362 654 1020 1021
4 367 549 1022 1023
4 368 774 1024 1025
4 374 683 1026 1027
4 376 829 1028 1029
4 383 501 1030 1031
4 385 672 1032 1033
4 388 783 1034 1035
4 395 541 1036 1037
4 399 510 1038 1039
4 400 811 1040 1041
4 405 765 1042 1043
4 410 761 1044 1045
4 415 743 1046 1047
4 416 836 1048 1049
4 422 714 1050 1051
4 427 523 1052 1053
4 428 838 1054 1055
4 433 768 1056 1057
4 439 519 1058 1059
4 440 807 1060 1061
4 447 752 1062 1063
4 448 806 1064 1065
4 453 827 1066 1067
4 457 777 1068 1069
4 462 795 1070 1071
4 467 526 1072 1073
4 471 543 1074 1075
4 473 824 1076 1077
4 478 832 1078 1079
4 140 480 899 1080
4 120 484 896 1081
4 164 486 941 1082
4 233 490 1003 1083
4 294 492 927 1084
4 144 495 938 1085
4 300 498 1045 1086
4 225 502 980 1087
4 254 505 924 1088
4 369 507 1005 1089
4 386 511 1011 1090
4 244 513 1046 1091
4 377 516 978 1092
4 406 520 1012 1093
4 456 522 1065 1094
4 476 525 1066 1095
4 104 528 937 1096
4 181 531 895 1097
4 210 535 928 1098
4 269 537 983 1099
4 442 540 1008 1100
4 421 544 1063 1101
4 352 546 1048 1102
4 317 550 1006 1103
4 3 553 892 1104
4 116 557 915 1105
4 128 560 847 1106
4 124 562 891 1107
4 136 566 904 1108
4 189 569 951 1109
4 132 571 840 1110
4 79 574 922 1111
4 179 578 935 1112
4 175 581 903 1113
4 19 583 910 1114
4 214 587 879 1115
4 100 589 873 1116
4 15 592 990 1117
4 112 596 921 1118
4 108 599 889 1119
4 75 601 956 1120
4 221 604 853 1121
4 206 606 907 1122
4 262 609 959 1123
4 298 613 947 1124
4 237 615 845 1125
4 171 620 909 1126
4 43 622 974 1127
4 160 626 996 1128
4 96 629 916 1129
4 148 631 961 1130
4 39 633 930 1131
4 290 637 849 1132
4 343 641 971 1133
4 11 642 912 1134
4 326 647 1027 1135
4 185 650 876 1136
4 71 651 900 1137
4 258 656 861 1138
4 285 659 1001 1139
4 192 662 1015 1140
4 152 665 854 1141
4 67 667 962 1142
4 265 669 874 1143
4 347 674 989 1144
4 59 675 1024 1145
4 330 680 949 1146
4 398 681 869 1147
4 35 685 944 1148
4 217 687 918 1149
4 273 692 968 1150
4 373 694 1053 1151
4 339 698 943 1152
4 394 699 859 1153
4 83 702 986 1154
4 313 707 883 1155
4 200 710 965 1156
4 7 712 952 1157
4 281 716 1021 1158
4 156 717 842 1159
4 27 721 1016 1160
4 361 725 1039 1161
4 321 726 993 1162
4 229 730 932 1163
4 402 732 972 1164
4 434 735 1037 1165
4 390 739 984 1166
4 31 742 1050 1167
4 240 745 863 1168
4 196 749 995 1169
4 55 751 1032 1170
4 277 755 955 1171
4 425 756 885 1172
4 87 760 1068 1173
4 304 762 850 1174
4 334 767 977 1175
4 438 769 881 1176
4 51 771 966 1177
4 450 776 1041 1178
4 446 779 1057 1179
4 91 780 1028 1180
4 365 784 856 1181
4 348 787 1075 1182
4 308 791 1030 1183
4 248 792 1018 1184
4 381 797 866 1185
4 409 800 1077 1186
4 23 801 998 1187
4 63 804 1060 1188
4 454 809 1035 1189
4 464 810 864 1190
4 460 815 1058 1191
4 472 816 1072 1192
4 429 820 1022 1193
4 468 823 870 1194
4 95 826 1042 1195
4 417 830 1055 1196
4 413 833 1071 1197
4 47 835 1078 1198
4 356 839 886 1199
4 127 579 841 1080
4 99 597 843 1081
4 323 657 844 1082
4 191 576 846 1083
4 207 697 848 1084
4 251 708 851 1085
4 375 645 852 1086
4 163 594 855 1087
4 231 754 857 1088
4 403 775 858 1089
4 299 673 860 1090
4 351 660 862 1091
4 431 828 865 1092
4 275 766 867 1093
4 435 778 868 1094
4 463 831 871 1095
4 151 555 872 1096
4 219 679 875 1097
4 139 619 877 1098
4 263 640 878 1099
4 391 808 880 1100
4 363 715 882 1101
4 475 798 884 1102
4 311 747 887 1103
4 102 561 888 1104
4 166 573 890 1105
4 118 482 893 1106
4 10 616 894 1107
4 1 570 897 1108
4 78 585 898 1109
4 111 533 901 1110
4 238 611 902 1111
4 141 582 905 1112
4 182 634 906 1113
4 134 608 908 1114
4 174 494 911 1115
4 203 488 913 1116
4 222 567 914 1117
4 105 552 917 1118
4 146 643 919 1119
4 129 564 920 1120
4 287 539 923 1121
4 69 671 925 1122
4 38 701 926 1123
4 18 638 929 1124
4 331 509 931 1125
4 122 652 933 1126
4 213 614 934 1127
4 13 558 936 1128
4 66 588 939 1129
4 26 603 940 1130
4 264 734 942 1131
4 169 506 945 1132
4 293 703 946 1133
4 306 727 948 1134
4 270 621 950 1135
4 113 485 953 1136
4 157 688 954 1137
4 176 536 957 1138
4 370 676 958 1139
4 301 591 960 1140
4 194 530 963 1141
4 242 630 964 1142
4 278 518 967 1143
4 208 684 969 1144
4 393 737 970 1145
4 378 781 973 1146
4 342 512 975 1147
4 184 731 976 1148
4 21 763 979 1149
4 72 649 981 1150
4 58 682 982 1151
4 253 772 985 1152
4 337 542 987 1153
4 288 740 988 1154
4 325 491 991 1155
4 354 720 992 1156
4 153 627 994 1157
4 232 600 997 1158
4 197 497 999 1159
4 426 693 1000 1160
4 41 655 1002 1161
4 90 757 1004 1162
4 4 718 1007 1163
4 49 812 1009 1164
4 82 770 1010 1165
4 32 785 1013 1166
4 312 624 1014 1167
4 411 500 1017 1168
4 245 666 1019 1169
4 256 691 1020 1170
4 318 802 1023 1171
4 451 524 1025 1172
4 397 724 1026 1173
4 418 548 1029 1174
4 224 711 1031 1175
4 344 521 1033 1176
4 364 821 1034 1177
4 441 805 1036 1178
4 384 750 1038 1179
4 465 817 1040 1180
4 332 551 1043 1181
4 85 705 1044 1182
4 28 663 1047 1183
4 46 744 1049 1184
4 280 503 1051 1185
4 458 759 1052 1186
4 357 793 1054 1187
4 436 814 1056 1188
4 404 825 1059 1189
4 452 527 1061 1190
4 52 796 1062 1191
4 61 822 1064 1192
4 92 837 1067 1193
4 445 545 1069 1194
4 380 790 1070 1195
4 477 834 1073 1196
4 420 741 1074 1197
4 470 786 1076 1198
4 412 515 1079 1199
