# Generated using Miratope v0.5.0 (https://github.com/galoomba1/miratope-rs)
4OFF

# Vertices, Faces, Edges, Cells
120 2520 1200 720

# Vertices
0.809016994374945 -0.809016994374945 -0.809016994374945 0.809016994374945 
0 -1.61803398874989 0 0 
0 0 -1.61803398874989 0 
0.809016994374945 0 0.5 1.30901699437495 
-0.809016994374945 -0.809016994374945 -0.809016994374945 -0.809016994374945 
-1.30901699437495 0.5 0 -0.809016994374945 
0 -0.809016994374945 1.30901699437495 0.5 
-0.5 1.30901699437495 -0.809016994374945 0 
0 1.30901699437495 0.5 0.809016994374945 
-0.809016994374945 0.5 1.30901699437495 0 
0.809016994374945 0.809016994374945 -0.809016994374945 0.809016994374945 
-0.809016994374945 0.809016994374945 -0.809016994374945 0.809016994374945 
1.30901699437495 0.809016994374945 0.5 0 
-0.809016994374945 -0.809016994374945 -0.809016994374945 0.809016994374945 
1.30901699437495 -0.809016994374945 0.5 0 
-1.30901699437495 0.809016994374945 0.5 0 
-1.30901699437495 -0.809016994374945 0.5 0 
0 0.809016994374945 1.30901699437495 -0.5 
0 -0.809016994374945 1.30901699437495 -0.5 
-0.809016994374945 -0.809016994374945 0.809016994374945 0.809016994374945 
-0.809016994374945 -0.809016994374945 0.809016994374945 -0.809016994374945 
0 0.5 0.809016994374945 1.30901699437495 
0 0.5 0.809016994374945 -1.30901699437495 
0 0.5 -0.809016994374945 1.30901699437495 
0 0.5 -0.809016994374945 -1.30901699437495 
0.5 1.30901699437495 0.809016994374945 0 
0.5 1.30901699437495 -0.809016994374945 0 
0.809016994374945 0.809016994374945 -0.809016994374945 -0.809016994374945 
0.809016994374945 -0.809016994374945 -0.809016994374945 -0.809016994374945 
-0.809016994374945 0.809016994374945 -0.809016994374945 -0.809016994374945 
0.809016994374945 1.30901699437495 0 0.5 
0.809016994374945 -1.30901699437495 0 0.5 
-0.809016994374945 1.30901699437495 0 0.5 
-0.809016994374945 -1.30901699437495 0 0.5 
-0.809016994374945 0 0.5 1.30901699437495 
0.809016994374945 -0.809016994374945 0.809016994374945 0.809016994374945 
0.809016994374945 -0.809016994374945 0.809016994374945 -0.809016994374945 
-0.5 0 1.30901699437495 0.809016994374945 
-0.5 0 -1.30901699437495 0.809016994374945 
-0.5 0 1.30901699437495 -0.809016994374945 
-0.5 0 -1.30901699437495 -0.809016994374945 
-1.30901699437495 0.5 0 0.809016994374945 
0 0 0 1.61803398874989 
-1.61803398874989 0 0 0 
1.30901699437495 0.5 0 0.809016994374945 
-0.809016994374945 0 0.5 -1.30901699437495 
1.30901699437495 0 0.809016994374945 -0.5 
0.5 0.809016994374945 0 -1.30901699437495 
-0.809016994374945 0.809016994374945 0.809016994374945 -0.809016994374945 
0 0 0 -1.61803398874989 
0 -0.809016994374945 -1.30901699437495 0.5 
-0.809016994374945 0 -0.5 1.30901699437495 
1.30901699437495 0.5 0 -0.809016994374945 
0.5 0.809016994374945 0 1.30901699437495 
1.30901699437495 0 -0.809016994374945 0.5 
0 1.61803398874989 0 0 
1.30901699437495 -0.5 0 -0.809016994374945 
0 0.809016994374945 1.30901699437495 0.5 
0.5 -1.30901699437495 -0.809016994374945 0 
0.809016994374945 -0.5 1.30901699437495 0 
0 -1.30901699437495 0.5 0.809016994374945 
0.809016994374945 0.809016994374945 0.809016994374945 0.809016994374945 
1.61803398874989 0 0 0 
-0.5 -1.30901699437495 -0.809016994374945 0 
0.809016994374945 0 0.5 -1.30901699437495 
-1.30901699437495 -0.5 0 0.809016994374945 
-1.30901699437495 0 0.809016994374945 -0.5 
-0.5 -0.809016994374945 0 -1.30901699437495 
0 0 1.61803398874989 0 
0.809016994374945 0 -0.5 -1.30901699437495 
-0.5 1.30901699437495 0.809016994374945 0 
0 -0.809016994374945 -1.30901699437495 -0.5 
0 1.30901699437495 -0.5 -0.809016994374945 
-0.809016994374945 0.5 -1.30901699437495 0 
0 0.809016994374945 -1.30901699437495 0.5 
-0.5 -1.30901699437495 0.809016994374945 0 
0.809016994374945 0 -0.5 1.30901699437495 
-1.30901699437495 -0.5 0 -0.809016994374945 
-0.5 -0.809016994374945 0 1.30901699437495 
-1.30901699437495 0 -0.809016994374945 0.5 
-0.809016994374945 0.809016994374945 0.809016994374945 0.809016994374945 
0.5 0 1.30901699437495 0.809016994374945 
0.5 0 1.30901699437495 -0.809016994374945 
0.5 0 -1.30901699437495 0.809016994374945 
0.5 0 -1.30901699437495 -0.809016994374945 
1.30901699437495 -0.5 0 0.809016994374945 
0.809016994374945 1.30901699437495 0 -0.5 
0.809016994374945 -1.30901699437495 0 -0.5 
-0.809016994374945 1.30901699437495 0 -0.5 
-0.809016994374945 -1.30901699437495 0 -0.5 
-0.809016994374945 0 -0.5 -1.30901699437495 
0.809016994374945 0.809016994374945 0.809016994374945 -0.809016994374945 
0 -0.5 0.809016994374945 1.30901699437495 
0 -0.5 0.809016994374945 -1.30901699437495 
0 -0.5 -0.809016994374945 1.30901699437495 
0 -0.5 -0.809016994374945 -1.30901699437495 
1.30901699437495 0.809016994374945 -0.5 0 
1.30901699437495 -0.809016994374945 -0.5 0 
-1.30901699437495 0.809016994374945 -0.5 0 
-1.30901699437495 -0.809016994374945 -0.5 0 
0 0.809016994374945 -1.30901699437495 -0.5 
0.5 -1.30901699437495 0.809016994374945 0 
0.809016994374945 -0.5 -1.30901699437495 0 
0 -1.30901699437495 -0.5 -0.809016994374945 
0 1.30901699437495 0.5 -0.809016994374945 
0.5 -0.809016994374945 0 1.30901699437495 
0.809016994374945 0.5 1.30901699437495 0 
-1.30901699437495 0 -0.809016994374945 -0.5 
-0.5 0.809016994374945 0 1.30901699437495 
0 -1.30901699437495 0.5 -0.809016994374945 
0.809016994374945 0.5 -1.30901699437495 0 
-1.30901699437495 0 0.809016994374945 0.5 
-0.5 0.809016994374945 0 -1.30901699437495 
0 -1.30901699437495 -0.5 0.809016994374945 
1.30901699437495 0 0.809016994374945 0.5 
-0.809016994374945 -0.5 -1.30901699437495 0 
0 1.30901699437495 -0.5 0.809016994374945 
0.5 -0.809016994374945 0 -1.30901699437495 
1.30901699437495 0 -0.809016994374945 -0.5 
-0.809016994374945 -0.5 1.30901699437495 0 

# Faces
4 0 1 4 2
4 1 0 3 6
5 2 0 3 8 7
5 4 5 9 6 1
4 4 2 7 5
4 8 3 6 9
4 8 9 5 7
4 10 0 13 11
4 10 12 14 0
5 10 12 17 15 11
5 14 0 13 16 18
4 13 16 15 11
4 12 14 18 17
4 18 17 15 16
4 19 20 4 13
5 19 21 25 22 20
4 13 19 21 23
4 20 22 24 4
5 4 24 26 23 13
4 25 26 23 21
4 26 24 22 25
4 28 4 29 27
5 28 31 3 30 27
4 29 27 30 32
4 28 4 33 31
5 4 33 34 32 29
4 30 3 34 32
4 3 34 33 31
4 0 28 36 35
5 0 38 41 37 35
4 35 36 39 37
4 0 28 40 38
5 28 36 39 5 40
4 37 39 5 41
4 41 5 40 38
4 11 42 19 43
4 11 42 44 26
5 11 43 45 47 26
5 42 19 18 46 44
4 19 43 45 18
4 46 44 26 47
4 18 45 47 46
4 48 49 4 43
5 43 48 25 53 51
4 49 52 25 48
4 4 43 51 50
5 52 49 4 50 54
4 25 52 54 53
4 54 53 51 50
4 27 2 11 55
5 27 55 57 59 56
4 2 27 56 58
4 11 34 57 55
5 11 34 60 58 2
4 57 59 60 34
4 59 60 58 56
4 61 62 0 42
4 62 61 17 64
5 17 61 42 65 66
5 0 62 64 67 63
4 42 0 63 65
4 64 17 66 67
4 65 66 67 63
4 36 1 19 68
5 70 68 36 69 72
4 1 36 69 71
4 19 41 70 68
5 1 71 73 41 19
4 70 72 73 41
4 69 71 73 72
4 27 49 36 62
4 62 27 74 76
5 74 27 49 77 79
5 36 75 78 76 62
4 36 75 77 49
4 78 76 74 79
4 78 79 77 75
4 80 11 29 48
4 48 80 81 82
5 80 81 85 83 11
5 48 82 56 84 29
4 11 29 84 83
4 81 82 56 85
4 56 84 83 85
4 61 35 19 80
5 61 35 87 69 86
4 61 86 88 80
4 19 89 87 35
5 19 80 88 90 89
4 88 90 69 86
4 87 69 90 89
4 91 61 10 27
5 61 91 93 75 92
4 61 10 94 92
4 91 27 95 93
5 27 95 63 94 10
4 94 63 75 92
4 75 63 95 93
4 36 91 48 20
4 91 96 97 36
5 96 91 48 98 74
5 36 20 99 50 97
4 20 99 98 48
4 97 50 74 96
4 98 74 50 99
4 55 61 68 48
5 55 61 85 102 100
4 61 85 101 68
4 48 90 100 55
5 48 68 101 103 90
4 85 102 103 101
4 102 100 90 103
4 29 43 13 2
4 29 104 9 43
5 29 104 12 54 2
5 13 105 81 9 43
4 13 2 54 105
4 12 81 105 54
4 81 12 104 9
4 42 13 1 35
4 42 8 106 35
5 1 67 22 106 35
5 42 13 107 88 8
4 13 107 67 1
4 8 106 22 88
4 88 107 67 22
4 62 10 2 28
5 62 59 37 108 10
4 2 79 108 10
4 62 59 109 28
5 28 109 16 79 2
4 59 37 16 109
4 108 79 16 37
4 1 28 49 20
5 28 1 78 23 110
4 28 49 72 110
4 1 20 111 78
5 20 49 72 32 111
4 32 72 110 23
4 32 23 78 111
4 91 68 35 62
5 62 102 40 112 91
4 91 112 66 68
4 35 62 102 113
5 35 113 99 66 68
4 66 99 40 112
4 102 40 99 113
4 91 55 29 49
4 91 114 53 55
5 49 103 31 114 91
5 29 115 94 53 55
4 29 115 103 49
4 114 53 94 31
4 94 115 103 31
4 80 68 20 43
5 80 68 46 96 116
4 43 80 116 73
4 68 46 117 20
5 43 73 84 117 20
4 96 46 117 84
4 116 73 84 96
4 10 55 80 42
4 55 10 118 47
5 42 60 87 118 10
5 119 80 55 47 93
4 42 80 119 60
4 47 118 87 93
4 60 87 93 119
4 68 25 44 35
4 113 83 44 35
4 68 66 88 25
5 44 25 88 73 83
4 66 99 73 88
4 113 99 73 83
4 57 30 72 48
5 92 57 48 77 33
4 48 77 40 72
4 57 30 76 92
5 76 30 72 40 50
4 92 33 50 76
4 33 77 40 50
4 55 15 37 61
4 85 61 37 60
4 55 100 107 15
4 102 63 60 85
5 15 107 63 60 37
4 102 63 107 100
4 55 17 45 29
4 115 89 45 29
4 53 81 17 55
4 53 81 60 94
5 81 17 45 89 60
4 94 115 89 60
4 43 32 57 119
4 43 115 74 32
5 43 119 101 58 115
5 54 114 57 32 74
4 114 57 119 101
4 54 114 101 58
4 74 54 58 115
4 80 53 105 19
4 80 88 26 53
4 19 105 58 89
5 26 84 58 105 53
4 26 88 90 84
4 90 84 58 89
4 59 31 76 61
4 61 59 39 70
5 61 76 38 98 70
5 59 39 77 63 31
4 76 31 63 38
4 39 77 98 70
4 38 98 77 63
4 42 37 70 116
4 37 75 113 42
5 42 113 71 100 116
5 37 75 67 112 70
4 116 100 112 70
4 75 113 71 67
4 100 112 67 71
5 21 116 110 97 35
4 21 35 75 111
4 35 75 103 97
4 21 116 98 111
4 116 110 40 98
4 97 103 40 110
5 111 75 103 40 98
4 48 68 21 32
4 90 73 32 48
4 68 21 105 101
5 21 32 73 50 105
4 101 103 50 105
4 73 90 103 50
4 80 11 107 66
4 81 18 66 80
4 83 71 107 11
4 85 87 18 81
4 83 85 87 71
5 66 107 71 87 18
4 29 15 108 74
5 119 15 29 95 109
4 74 102 95 29
4 92 119 15 108
5 108 74 102 31 92
4 119 109 31 92
4 102 31 109 95
4 10 86 106 3
4 10 3 78 38
5 112 86 10 38 107
5 78 3 106 39 16
4 106 39 112 86
4 38 78 16 107
4 112 107 16 39
4 44 21 78 0
5 44 0 71 24 86
4 78 0 71 99
4 44 86 70 21
5 21 70 5 99 78
4 70 86 24 5
4 24 5 99 71
4 106 6 31 62
5 62 110 7 70 106
4 31 50 110 62
4 70 106 6 111
4 7 79 111 70
5 111 79 50 31 6
4 110 50 79 7
4 20 5 104 82
5 20 82 114 105 33
4 20 5 79 33
4 114 105 23 30
4 30 114 82 104
5 104 5 79 23 30
4 23 105 33 79
4 1 14 81 19
4 19 41 8 81
4 1 14 118 71
5 81 14 118 26 8
4 26 73 41 8
4 26 73 71 118
4 27 104 8 10
4 94 34 8 10
4 95 45 104 27
5 8 34 16 45 104
4 63 16 34 94
4 95 45 16 63
4 79 15 45 4
4 79 94 58 4
5 4 58 14 82 45
4 3 14 82 57
5 3 57 15 79 94
4 14 3 94 58
4 57 15 45 82
4 2 24 88 11
4 34 9 88 11
4 2 58 117 24
4 34 9 18 60
5 9 88 24 117 18
4 58 117 18 60
4 43 34 6 20
4 6 20 117 14
4 73 23 34 43
5 54 14 6 34 23
4 14 117 84 54
4 54 84 73 23
5 49 109 6 57 104
4 49 104 7 40
4 109 63 40 49
4 57 104 7 108
4 57 108 78 6
5 7 108 78 63 40
4 78 63 109 6
4 20 36 106 9
4 97 44 106 36
4 20 99 41 9
5 106 9 41 23 44
4 97 44 23 50
4 99 41 23 50
4 10 42 41 7
4 118 10 7 24
4 42 41 16 60
4 87 118 24 67
5 41 7 24 67 16
4 87 60 16 67
4 25 80 92 114
4 80 25 72 98
5 92 113 115 98 80
5 114 97 84 72 25
4 114 97 113 92
4 97 84 115 113
4 72 98 115 84
4 48 119 59 91
4 91 96 85 59
4 98 65 119 48
4 85 96 74 94
5 59 85 94 65 119
4 98 65 94 74
4 42 61 96 83
4 96 61 17 47
4 65 115 83 42
5 96 83 115 90 47
4 17 66 90 47
4 65 66 90 115
4 17 80 92 59
4 17 80 98 112
5 87 59 17 112 95
4 113 87 59 92
4 98 115 95 112
4 113 115 95 87
5 114 76 51 111 68
4 68 93 56 114
4 68 111 77 93
4 114 76 102 56
4 76 51 115 102
5 56 93 77 115 102
4 111 77 115 51
5 19 101 97 83 51
4 19 66 98 51
4 101 93 66 19
4 97 69 93 101
4 83 100 69 97
4 51 83 100 98
5 100 98 66 93 69
4 61 116 72 91
4 116 61 92 51
4 93 90 72 91
5 51 99 90 72 116
4 75 99 51 92
4 93 90 99 75
4 96 55 108 76
4 55 112 69 96
5 55 112 77 65 108
5 76 96 69 103 113
4 108 76 113 65
4 113 103 77 65
4 112 77 103 69
4 68 80 65 75
4 116 38 65 80
4 68 46 87 75
4 46 87 102 96
4 96 116 38 102
5 75 87 102 38 65
4 48 93 89 43
4 25 46 93 48
4 43 89 113 51
4 25 46 85 53
4 53 85 113 51
5 113 85 46 93 89
4 11 53 92 65
4 53 96 100 11
5 65 89 95 100 11
5 53 92 101 56 96
4 56 95 100 96
4 92 65 89 101
4 56 95 89 101
4 55 74 51 80
4 119 80 51 33
4 47 84 74 55
4 119 33 103 93
5 51 74 84 103 33
4 93 103 84 47
4 3 62 91 57
4 91 57 15 112
4 102 94 3 62
4 94 102 40 79
4 40 79 15 112
4 0 35 46 118
4 35 37 17 46
4 38 100 118 0
5 46 17 88 100 118
4 37 17 88 41
4 88 41 38 100
4 114 68 22 52
4 68 22 5 111
4 114 76 110 52
4 51 76 110 73
5 22 52 110 73 5
4 111 5 73 51
4 70 91 49 5
4 21 114 91 70
4 99 103 49 5
4 31 78 21 114
4 99 103 31 78
4 19 99 38 42
4 18 67 99 19
4 44 110 38 42
4 46 69 110 44
4 46 18 67 69
5 69 67 99 38 110
5 15 7 27 64 39
4 7 38 102 27
4 87 64 27 102
4 15 65 38 7
4 75 39 15 65
4 39 75 87 64
4 29 4 117 47
4 29 47 25 32
4 33 101 117 4
4 81 34 32 25
5 25 81 101 117 47
4 81 34 33 101
4 11 94 33 43
4 26 54 94 11
4 33 43 45 109
4 26 54 56 47
5 56 54 94 33 109
4 56 47 45 109
4 34 13 83 53
4 13 89 119 34
5 83 13 89 117 118
5 53 12 82 119 34
4 53 12 118 83
4 82 117 118 12
4 82 119 89 117
4 55 108 3 12
4 55 112 64 12
5 64 12 3 60 109
4 108 65 60 3
4 112 64 109 77
4 60 65 77 109
5 21 6 36 52 30
4 84 52 36 103
4 6 33 103 36
4 51 21 30 74
4 74 30 52 84
4 21 51 33 6
4 41 13 83 116
4 13 41 66 89
4 83 116 86 118
5 41 116 86 22 66
4 118 117 22 86
4 89 66 22 117
4 43 13 71 90
4 13 71 97 105
4 9 43 90 22
4 9 22 46 81
4 105 97 46 81
5 22 46 97 71 90
4 48 111 79 29
4 6 82 48 111
4 29 79 50 84
4 6 82 56 31
4 56 31 50 84
4 118 85 94 2
5 2 107 45 64 118
4 2 94 65 107
4 85 59 64 118
4 119 59 64 45
4 65 119 45 107
4 13 58 85 42
4 13 58 95 107
4 42 85 12 8
4 88 47 12 8
5 85 58 95 47 12
4 107 95 47 88
4 82 49 27 12
4 53 74 27 12
4 77 119 82 49
4 53 74 79 34
4 79 34 119 77
4 9 19 51 32
4 19 9 82 101
5 52 82 9 32 26
4 97 52 26 83
4 52 97 101 82
4 26 83 51 32
4 61 108 78 35
4 61 108 7 86
4 87 63 78 35
4 69 40 7 86
4 40 69 87 63
4 36 22 86 62
4 36 22 66 75
4 86 62 76 116
4 116 76 78 41
4 66 75 78 41
5 30 91 39 111 108
4 91 69 110 30
4 67 39 91 69
4 38 108 30 110
4 108 38 99 111
4 67 39 111 99
5 1 105 44 52 117
4 51 105 1 99
4 117 90 99 1
4 116 44 52 72
4 116 51 105 44
4 72 52 117 90
4 8 11 65 37
4 100 86 8 11
5 86 64 18 37 8
4 100 86 64 95
4 37 65 89 18
4 95 64 18 89
4 56 91 30 54
4 91 56 109 39
4 94 108 30 54
4 111 33 94 108
4 109 39 111 33
5 28 24 104 106 14
4 63 28 14 60
4 107 24 28 63
4 37 60 14 106
4 37 15 104 106
4 104 15 107 24
4 73 13 0 110
4 0 110 52 14
4 73 13 16 5
4 52 14 18 22
4 22 18 16 5
4 4 16 39 49
4 4 16 78 50
4 52 106 39 49
4 52 106 3 54
4 54 3 78 50
4 50 28 14 105
4 73 24 28 50
4 105 14 106 21
4 104 32 21 106
4 73 24 104 32
4 23 2 118 44
4 23 2 107 41
4 118 44 106 64
4 9 45 64 106
4 45 9 41 107
4 23 7 27 54
4 64 14 54 27
4 64 14 6 39
4 39 6 34 15
4 23 7 15 34
4 4 109 60 13
4 13 60 3 23
4 24 64 109 4
4 12 26 23 3
4 64 24 26 12
4 1 16 34 105
4 117 45 16 1
4 8 44 52 104
4 34 105 44 8
4 45 117 52 104
4 28 52 26 2
4 82 109 28 52
4 32 79 2 26
4 32 79 16 9
4 109 82 9 16
4 0 23 30 62
4 23 0 63 79
4 64 104 30 62
4 5 67 64 104
4 67 5 79 63
4 24 52 36 67
4 16 6 36 67
4 41 21 30 7
4 24 52 30 7
4 21 41 16 6
4 28 64 18 1
4 86 110 28 64
4 18 1 78 37
4 110 86 8 23
4 78 37 8 23
4 90 20 82 47
4 115 33 20 90
4 96 114 105 83
4 47 82 114 96
4 33 115 83 105
4 47 48 57 12
4 77 95 47 48
4 12 57 92 85
4 85 92 33 58
4 33 58 95 77
4 88 43 119 17
4 115 100 88 43
4 46 101 119 17
4 58 118 46 101
4 118 58 115 100
4 10 85 46 86
4 113 38 10 85
4 46 86 112 93
4 107 89 93 112
4 113 38 107 89
4 98 55 27 40
4 40 27 56 103
4 111 57 55 98
4 59 75 111 57
4 103 56 59 75
4 20 103 113 19
4 113 19 21 76
4 22 69 103 20
4 76 21 25 96
4 25 96 69 22
4 46 61 76 97
4 61 46 22 70
4 76 97 71 38
4 98 90 22 70
4 71 38 98 90
4 36 31 92 68
4 36 31 102 69
4 92 68 70 108
4 70 108 74 72
4 72 74 102 69
4 69 62 10 100
4 10 100 98 108
4 62 69 93 59
4 59 93 66 37
4 108 98 66 37
4 42 81 25 116
4 81 42 113 101
4 47 100 116 25
4 101 113 71 117
4 71 117 47 100
4 11 115 102 10
4 12 56 102 10
4 11 115 77 15
4 12 56 93 17
4 15 77 93 17
4 101 20 49 56
4 20 101 92 111
4 96 72 49 56
4 72 96 53 32
4 32 53 92 111
4 29 77 63 2
4 104 39 77 29
4 31 54 2 63
4 54 31 59 12
4 104 39 59 12
4 0 60 81 44
4 89 71 0 60
4 44 81 17 86
4 45 24 86 17
4 71 89 45 24
4 1 97 84 4
4 5 72 84 4
4 1 97 114 6
4 9 25 114 6
4 72 5 9 25
4 76 35 1 50
4 76 35 106 30
4 50 1 67 40
4 106 30 72 22
4 72 22 67 40
4 106 18 87 62
4 62 87 71 110
4 66 70 106 18
4 7 107 66 70
4 110 71 107 7
4 112 27 28 67
4 30 70 112 27
4 67 28 31 75
4 30 70 37 3
4 31 75 37 3
4 45 88 73 4
4 83 58 4 73
4 82 25 44 14
4 58 83 44 14
4 25 82 45 88
4 104 26 84 49
4 84 49 109 58
4 104 26 53 57
4 53 57 6 105
4 109 58 105 6
4 15 8 26 29
4 29 26 118 95
4 81 119 15 8
4 81 119 109 14
4 95 118 14 109
4 95 2 0 87
4 0 87 59 3
4 112 7 2 95
4 17 8 3 59
4 7 112 17 8
4 36 114 54 28
4 39 57 114 36
4 40 74 54 28
4 57 39 5 32
4 5 32 74 40
4 21 9 18 35
4 117 97 35 18
4 88 116 21 9
4 116 88 24 110
4 24 110 97 117
4 0 1 99 38
5 0 38 102 94 2
5 4 33 103 99 1
4 4 33 94 2
4 103 33 94 102
4 103 102 38 99
4 0 10 108 78
5 10 11 53 74 108
5 0 13 105 50 78
4 13 105 53 11
4 50 105 53 74
4 74 50 78 108
5 111 20 19 66 75
4 107 13 19 66
4 4 79 111 20
5 4 79 63 107 13
4 111 75 63 79
4 63 75 66 107
5 28 27 102 69 110
4 29 115 102 27
4 110 28 4 73
5 90 115 29 4 73
4 90 69 110 73
4 69 102 115 90
5 35 113 85 60 0
4 113 35 36 103
4 109 28 0 60
5 28 109 56 103 36
4 56 109 60 85
4 56 103 113 85
4 11 42 37 15
5 43 11 15 79 32
5 21 78 37 42 19
4 19 21 32 43
4 79 32 21 78
4 15 79 78 37
5 48 98 66 88 43
4 48 98 40 49
4 4 24 88 43
5 24 67 40 49 4
4 66 88 24 67
4 67 40 98 66
5 30 72 96 55 27
4 30 23 2 27
4 55 96 83 11
5 11 83 73 23 2
4 72 73 23 30
4 73 72 96 83
4 62 31 92 61
5 81 42 61 92 53
5 14 0 62 31 54
4 14 81 42 0
4 53 81 14 54
4 54 31 92 53
5 68 36 39 59 93
4 36 39 16 1
4 68 19 89 93
5 1 16 60 89 19
4 59 60 16 39
4 60 59 93 89
4 95 27 62 87
5 27 49 84 47 95
5 62 87 46 97 36
4 97 36 49 84
4 84 47 46 97
4 47 95 87 46
4 48 72 116 80
5 80 116 41 8 11
5 104 29 48 72 5
4 29 104 8 11
4 5 104 8 41
4 116 41 5 72
5 35 61 59 3 106
4 80 119 59 61
4 106 35 19 9
5 34 119 80 19 9
4 3 106 9 34
4 119 34 3 59
5 91 114 25 46 61
4 10 61 46 118
4 27 54 114 91
5 26 118 10 27 54
4 114 25 26 54
4 25 46 118 26
4 36 67 112 91
5 91 112 17 47 48
5 20 36 67 18 117
4 20 48 47 117
4 18 117 47 17
4 112 17 18 67
5 61 86 8 12 55
4 61 68 22 86
4 82 12 55 48
5 22 68 48 82 9
4 8 12 82 9
4 22 9 8 86
4 51 74 29 43
5 7 2 29 74 40
5 41 13 43 51 99
4 7 2 13 41
4 99 40 74 51
4 40 7 41 99
4 35 42 65 75
5 35 1 6 31 75
5 34 13 42 65 94
4 6 34 13 1
4 31 6 34 94
4 65 94 31 75
5 62 76 96 85 10
4 2 10 85 58
4 76 50 28 62
5 84 58 2 28 50
4 96 84 58 85
4 76 96 84 50
5 87 71 1 28 63
4 49 77 63 28
4 71 90 20 1
5 77 49 20 90 93
4 93 77 63 87
4 93 90 71 87
5 64 12 56 91 62
4 68 101 56 91
4 62 35 18 64
5 68 101 81 18 35
4 101 81 12 56
4 12 81 18 64
4 100 69 91 55
5 91 49 52 22 69
5 55 29 26 88 100
4 49 52 26 29
4 22 88 26 52
4 100 88 22 69
5 70 68 80 17 37
4 43 80 17 45
4 68 70 5 20
5 20 43 45 16 5
4 37 70 5 16
4 37 17 45 16
4 55 57 3 10
5 42 44 23 3 10
5 80 55 57 32 25
4 42 80 25 44
4 23 44 25 32
4 23 3 57 32
4 63 2 11 65
4 11 65 113 83
4 23 2 63 78
4 78 99 73 23
5 65 113 99 78 63
4 43 33 50 73
5 77 33 43 89 65
4 73 43 89 71
4 40 77 65 38
4 38 71 89 65
5 38 71 73 50 40
4 13 83 84 4
4 107 100 83 13
4 79 4 84 74
5 83 100 102 74 84
4 74 102 63 79
4 51 19 1 50
4 89 19 51 115
4 16 79 50 1
5 115 51 50 79 94
4 79 94 60 16
4 13 58 54 23
4 23 13 71 110
5 115 113 71 13 58
5 74 76 110 23 54
4 113 76 110 71
4 74 76 113 115
4 67 28 2 107
4 99 50 28 67
4 58 89 107 2
4 99 90 84 50
5 107 89 90 99 67
4 60 58 83 42
5 38 42 83 51 76
4 63 60 42 38
4 33 51 76 31
4 51 83 58 33
5 33 58 60 63 31
4 16 13 58 109
4 13 71 67 16
4 77 115 113 75
5 16 67 75 77 109
4 77 115 58 109
5 97 83 118 0 110
4 63 0 118 95
4 0 110 40 63
4 115 83 97 103
4 115 95 118 83
5 63 40 103 115 95
4 13 89 87 0
4 75 87 0 78
4 101 105 13 89
4 103 75 78 50
5 89 101 103 75 87
4 105 1 28 54
4 63 94 54 28
4 1 71 83 105
5 83 105 54 94 85
4 85 94 63 87
5 109 4 117 89 95
4 50 97 117 4
4 31 50 4 109
4 97 117 89 113
5 113 97 50 31 102
4 102 113 89 95
4 11 34 16 107
4 33 115 11 34
5 11 115 98 38 107
5 33 111 78 16 34
4 38 78 111 98
4 111 98 115 33
4 24 2 79 5
4 79 2 95 77
5 24 71 100 95 2
4 71 99 98 100
4 98 100 95 77
5 79 5 99 98 77
4 7 10 94 79
5 100 10 7 110 116
4 94 115 100 10
4 110 50 51 116
4 115 100 116 51
4 19 105 23 41
5 92 113 19 105 33
4 41 38 113 19
4 108 38 113 92
4 92 108 79 33
5 79 108 38 41 23
4 10 38 40 27
4 118 10 38 71
4 54 50 40 27
4 50 73 26 54
4 115 43 20 103
4 40 103 20 5
4 45 43 115 95
4 5 16 63 40
5 14 58 101 97 1
4 1 14 3 78
4 78 1 97 76
5 76 92 94 3 78
4 97 76 92 101
4 101 92 94 58
4 36 31 33 20
4 67 36 31 63
4 117 58 33 20
4 60 63 67 18
4 71 0 62 69
4 0 14 117 71
4 103 69 62 31
4 54 31 103 84
5 69 103 84 117 71
5 119 101 20 6 109
4 99 20 6 78
4 113 99 20 101
4 65 119 101 113
4 119 65 63 109
4 42 113 102 10
4 3 31 102 10
4 44 97 113 42
4 31 50 23 3
4 4 58 56 49
4 24 4 58 118
4 102 40 49 56
5 118 58 56 102 87
4 87 102 40 67
4 24 107 11 26
4 11 115 84 26
5 26 84 72 110 24
4 72 98 38 110
4 107 38 110 24
4 42 116 73 13
4 32 34 13 73
4 42 65 98 116
5 116 98 74 32 73
4 32 34 94 74
4 16 4 29 15
4 115 29 15 65
4 41 16 4 73
5 66 41 16 15 65
4 73 41 66 90
4 18 19 105 14
4 87 18 19 113
4 109 33 92 59
5 18 14 109 59 87
4 105 14 109 33
5 105 44 35 76 114
4 35 44 118 87
4 102 87 35 76
4 58 118 44 105
4 56 114 105 58
4 64 14 1 67
4 69 67 1 97
4 14 64 95 58
5 93 95 64 67 69
4 101 93 95 58
4 43 119 60 13
4 41 37 60 13
4 43 51 92 119
4 41 99 75 37
5 60 119 92 75 37
4 29 45 117 84
5 107 45 29 77 112
4 77 29 84 103
4 71 69 112 107
4 71 117 45 107
4 2 26 44 0
4 0 44 116 38
4 53 94 2 26
5 26 44 116 96 53
4 53 96 102 94
4 21 35 0 23
4 35 113 51 21
4 34 23 0 60
4 34 53 85 60
5 23 21 51 53 34
4 52 24 2 54
4 2 95 56 54
5 96 56 54 52 97
4 100 96 97 71
4 71 97 52 24
4 4 45 18 1
4 33 119 45 4
4 99 1 18 66
5 45 119 93 66 18
4 66 93 103 99
4 43 90 100 11
4 112 15 11 100
4 72 90 43 32
4 72 32 79 40
5 90 72 40 112 100
4 79 29 55 108
4 23 79 29 26
4 55 100 38 108
4 26 23 41 88
4 88 73 51 80
4 80 65 107 88
5 108 111 51 80 65
4 7 5 111 108
4 108 65 107 7
5 88 73 5 7 107
4 101 19 42 85
4 114 21 19 101
4 59 85 42 37
5 31 114 101 85 59
4 59 31 78 37
4 12 27 28 14
4 85 12 27 102
4 110 44 14 28
5 46 44 14 12 85
4 46 85 102 69
5 64 45 82 49 39
4 49 103 101 82
4 75 103 49 39
4 89 101 82 45
4 89 45 64 87
4 111 68 35 78
4 16 78 35 18
4 101 33 111 68
4 16 18 81 34
4 24 28 36 22
4 103 36 22 90
4 109 28 24 45
4 90 103 56 47
5 45 24 22 90 47
4 3 12 118 0
4 30 3 0 110
5 53 12 3 30 114
4 114 97 110 30
4 97 114 53 83
4 81 80 51 105
4 81 60 65 80
4 3 6 111 108
5 81 60 3 6 105
4 6 105 51 111
5 86 44 52 30 62
4 102 74 30 62
4 62 102 100 86
4 83 100 86 44
4 83 84 52 44
4 5 4 117 22
4 5 39 109 4
5 39 112 66 22 5
4 39 109 95 112
4 66 89 95 112
4 62 3 6 36
4 97 36 6 105
4 87 62 3 60
4 60 81 46 87
4 46 35 1 117
4 75 35 46 93
4 6 82 117 1
5 46 93 56 82 117
4 93 75 31 56
4 31 28 52 114
5 117 52 28 64 118
4 31 28 64 59
4 114 101 117 52
4 85 118 117 101
4 5 49 27 7
4 95 27 7 107
4 5 73 84 49
4 84 47 88 73
4 98 80 19 99
4 98 80 119 77
4 99 5 9 19
4 9 34 79 5
4 8 26 83 42
4 8 42 38 7
4 30 32 51 76
4 30 7 38 76
5 30 7 8 26 32
4 29 47 118 2
4 96 74 29 47
4 2 118 86 7
5 69 96 47 118 86
4 96 69 40 74
4 92 80 11 94
4 92 80 116 76
4 3 8 11 94
4 8 41 78 3
5 119 48 111 39 15
4 90 48 119 89
4 90 99 111 48
4 119 15 107 89
4 107 15 39 67
4 72 40 28 52
4 112 40 28 64
4 100 112 64 118
4 100 118 117 90
4 9 6 33 43
4 43 9 18 89
5 9 18 37 39 6
4 39 77 65 37
4 33 77 39 6
4 61 108 94 85
4 83 116 61 85
5 21 30 108 61 116
4 21 105 54 30
4 116 83 105 21
5 106 14 82 114 36
4 75 92 114 36
4 75 36 106 37
4 82 119 92 114
4 14 60 119 82
4 91 59 109 49
4 69 91 59 87
4 52 14 109 49
4 69 22 18 87
4 61 96 97 35
4 61 59 56 96
4 106 52 97 35
4 56 54 3 59
4 27 74 32 104
5 86 24 104 27 112
4 74 98 112 27
4 86 116 98 112
4 86 116 73 24
4 29 45 9 32
4 29 77 111 32
5 70 111 32 9 41
4 70 112 107 41
4 70 111 77 112
4 53 34 15 55
4 53 55 98 51
5 15 7 70 98 55
4 23 7 70 21
4 98 51 21 70
4 72 91 62 110
4 84 72 91 56
4 62 110 24 64
4 84 56 12 26
4 35 44 8 37
4 108 37 35 76
4 57 114 76 108
4 57 114 105 34
5 57 108 37 8 34
4 77 48 68 75
4 82 109 77 48
4 22 68 75 67
4 67 16 9 22
4 93 48 29 95
4 72 48 93 69
4 104 64 95 29
4 72 5 67 69
5 92 68 21 6 57
4 68 21 41 66
4 66 68 92 65
4 57 92 65 15
4 15 16 6 57
4 76 61 55 74
4 61 76 110 86
4 12 55 74 54
4 12 54 23 8
4 96 69 36 114
4 36 106 86 69
4 86 118 14 106
4 118 14 82 47
4 46 68 21 44
4 46 85 92 68
4 12 57 6 14
4 44 14 6 21
4 22 20 6 106
4 22 46 101 20
4 109 6 106 64
5 17 64 106 22 46
4 119 17 64 109
4 27 104 82 56
4 27 112 93 56
4 46 86 24 117
4 24 104 82 117
4 82 20 19 81
4 17 81 19 66
4 111 57 82 20
5 57 82 81 17 59
4 17 59 75 66
4 106 62 10 8
4 81 85 10 8
4 62 106 21 76
5 106 21 25 81 8
4 81 25 96 85
4 47 55 15 45
4 47 55 98 90
4 70 22 24 7
4 15 7 24 45
4 86 10 11 88
4 108 70 86 10
4 25 53 11 88
4 25 72 74 53
5 88 25 72 70 86
4 43 34 57 48
4 57 48 98 108
4 8 88 43 34
4 8 88 66 37
4 12 10 7 104
4 12 10 100 47
5 104 52 25 47 12
4 25 116 110 52
4 110 7 104 52
4 104 49 20 9
4 9 88 90 20
4 49 104 15 77
5 15 104 9 88 17
4 90 88 17 93
4 61 70 41 42
4 61 92 111 70
4 9 41 42 81
4 81 53 32 9
4 25 68 36 52
4 36 39 104 52
4 68 93 47 25
4 47 12 59 93
4 59 57 30 62
4 62 59 17 86
4 82 81 44 52
4 57 30 52 82
4 91 39 37 61
4 37 18 46 61
4 114 6 39 91
4 46 25 9 18
4 55 17 64 27
4 27 30 106 64
4 96 55 17 46
4 96 46 22 72
5 106 104 57 91 70
4 93 91 57 119
4 93 66 70 91
4 45 104 106 18
4 57 104 45 119
4 114 68 80 53
4 12 53 80 17
4 68 114 30 70
4 17 37 3 12
4 72 49 82 25
4 72 49 39 70
4 70 86 64 39
4 45 88 86 64
4 96 91 57 53
4 96 91 70 116
4 70 106 44 116
4 44 26 104 106
4 25 81 119 48
4 21 111 48 25
4 8 15 39 106
4 106 21 111 39
4 48 32 30 91
4 91 30 7 112
4 48 47 26 32
4 47 26 8 17
4 112 55 80 66
4 80 25 22 66
4 39 57 55 112
4 25 32 5 22
4 17 61 108 15
4 61 17 88 116
4 104 30 21 9
4 30 108 15 104
4 2 4 49 27
5 30 27 49 39 57
5 16 4 2 23 34
4 34 23 30 57
4 34 16 39 57
4 4 13 11 29
5 81 8 11 13 60
5 29 104 82 109 4
4 81 82 104 8
4 81 60 109 82
4 4 20 36 28
5 36 106 30 110 28
5 32 9 20 4 73
4 32 9 106 30
4 32 73 110 30
4 27 91 48 29
5 48 91 114 92 111
5 79 29 27 54 94
4 94 54 114 92
4 111 92 94 79
4 10 27 28 0
5 10 108 15 112 27
5 78 0 28 67 16
4 15 108 78 16
4 67 16 15 112
4 43 4 1 19
5 19 43 88 25 81
5 4 24 52 14 1
4 14 52 25 81
4 25 88 24 52
4 68 48 49 36
5 36 68 21 76 97
5 32 48 49 84 74
4 74 32 21 76
4 76 97 84 74
4 11 55 48 43
5 48 43 33 101 82
5 55 11 94 85 12
4 82 101 85 12
4 85 94 33 101
4 11 2 0 42
5 42 37 18 87 0
5 11 2 95 45 15
4 15 45 18 37
4 45 95 87 18
4 1 36 62 0
5 7 38 0 62 86
5 36 22 5 99 1
4 7 86 22 5
4 5 99 38 7
4 55 61 62 27
5 65 92 61 55 98
5 27 40 63 31 62
4 65 92 31 63
4 65 98 40 63
4 19 80 48 20
5 48 47 96 53 80
5 20 19 105 97 117
4 96 53 105 97
4 47 96 97 117
4 13 0 35 19
5 19 66 22 46 35
5 13 107 24 118 0
4 118 24 22 46
4 24 107 66 22
4 11 80 61 10
5 10 102 87 59 61
5 89 119 80 11 115
4 119 89 87 59
4 89 115 102 87
4 35 61 91 36
5 61 35 113 38 116
5 91 72 40 103 36
4 40 72 116 38
4 40 103 113 38
4 42 19 68 61
5 68 93 69 96 61
5 42 83 71 89 19
4 71 83 96 69
4 71 89 93 69
4 49 29 43 20
5 29 26 53 34 43
5 52 49 20 6 114
4 53 26 52 114
4 114 6 34 53
4 13 1 28 2
5 2 28 64 104 7
5 13 41 9 18 1
4 18 9 104 64
4 9 41 7 104
4 29 2 10 55
5 2 63 60 3 10
5 57 55 29 77 119
4 57 119 60 3
4 119 77 63 60
4 28 49 91 62
5 76 108 70 91 62
5 79 5 49 28 50
4 108 76 50 79
4 79 5 70 108
4 10 42 35 62
5 65 107 100 10 42
5 67 75 35 62 69
4 107 65 75 67
4 100 107 67 69
4 91 55 80 68
5 55 74 102 56 91
5 68 101 113 51 80
4 102 113 101 56
4 102 113 51 74
4 1 35 68 20
5 71 110 44 35 1
5 25 68 20 90 72
4 72 25 44 110
4 110 71 90 72
4 43 13 42 80
5 85 42 80 17 46
5 43 13 58 117 45
4 117 58 85 46
4 117 45 17 46
4 19 18 106 21
5 19 99 73 116 21
4 21 106 86 116
5 86 24 67 18 106
4 73 24 67 99
4 68 61 108 111
4 96 74 108 61
5 77 111 108 74 40
4 77 93 69 40
4 12 10 42 81
4 42 81 119 65
5 47 12 81 119 45
4 47 100 107 45
4 25 80 11 26
4 119 80 25 82
5 84 26 25 82 117
4 115 84 117 89
4 92 68 20 33
4 25 68 92 53
5 33 115 74 53 92
4 115 74 72 90
4 43 9 21 51
5 51 83 84 90 43
5 44 52 22 9 21
4 83 44 21 51
4 52 84 90 22
4 55 108 37 17
5 95 100 55 17 93
5 108 38 63 75 37
4 93 17 37 75
4 95 63 38 100
5 17 8 10 118 64
4 41 38 10 8
4 41 66 17 8
4 67 71 118 64
5 41 66 67 71 38
5 61 86 112 66 37
4 76 61 37 78
4 40 110 86 112
5 76 110 40 99 78
4 99 66 37 78
4 22 70 111 20
5 51 111 20 103 50
4 70 111 51 116
5 69 110 116 70 22
4 50 103 69 110
4 9 19 42 8
4 89 19 9 45
5 26 8 9 45 24
4 24 71 83 26
4 77 48 80 65
4 94 53 80 65
4 95 47 96 102
5 95 77 65 94 102
4 7 27 12 8
5 109 95 27 12 59
4 8 37 59 12
5 8 37 16 107 7
4 109 95 107 16
4 110 62 3 23
5 64 39 37 3 62
4 41 37 3 23
5 5 24 110 23 41
4 39 64 24 5
4 30 91 59 3
5 75 59 91 112 77
5 79 78 3 30 7
4 78 75 59 3
4 77 112 7 79
4 57 91 36 6
4 32 57 91 72
5 57 32 79 33 6
4 40 79 33 103
4 13 105 6 16
5 26 73 13 105 44
4 106 44 105 6
5 106 104 5 16 6
4 5 73 26 104
4 53 11 2 54
4 15 57 53 11
5 82 56 54 53 57
4 82 45 95 56
4 49 109 119 48
4 32 48 119 34
5 94 58 109 119 34
4 94 58 84 74
4 23 32 43 13
4 45 104 32 43
5 32 23 54 52 104
4 54 52 117 58
4 4 33 111 5
5 33 105 54 84 4
5 111 21 30 72 5
4 54 30 72 84
4 21 111 33 105
4 91 39 15 55
4 74 55 15 79
4 102 63 109 56
5 79 63 109 39 15
5 23 50 1 6 21
4 6 39 67 1
4 21 70 39 6
5 39 70 7 40 67
4 40 50 23 7
4 3 34 13 0
4 13 34 15 107
5 12 3 34 15 104
4 118 12 104 24
4 19 51 76 35
4 46 35 76 96
5 76 96 72 98 51
4 66 98 72 22
4 47 55 61 46
4 101 92 61 46
5 89 90 47 46 101
4 89 65 98 90
4 81 44 116 80
5 80 66 90 100 116
5 81 44 118 117 18
4 100 116 44 118
4 66 18 117 90
5 83 118 47 88 11
4 66 65 11 88
4 113 87 118 83
4 66 93 47 88
5 87 93 66 65 113
4 80 92 75 66
4 102 100 116 76
5 103 75 92 76 102
4 90 66 75 103
5 44 86 88 41 42
4 113 42 41 99
4 44 86 69 97
5 99 90 69 97 113
4 41 88 90 99
4 70 86 46 68
5 68 75 99 98 70
5 71 100 86 46 87
4 70 98 100 86
4 87 75 99 71
4 98 80 42 38
4 102 38 42 85
4 17 112 69 46
5 38 102 69 112 98
4 17 61 35 18
4 113 35 18 89
4 38 107 88 116
5 18 17 88 107 89
4 88 22 68 80
4 68 101 117 22
5 22 88 73 71 117
4 73 51 113 71
4 43 115 113 19
4 81 19 113 85
4 88 100 96 25
5 113 85 96 100 115
4 48 98 116 25
5 115 98 48 93 103
5 25 116 83 97 46
4 97 46 93 103
4 98 116 83 115
4 56 27 10 85
4 108 10 85 92
5 119 93 56 85 92
4 93 112 15 119
4 44 14 60 42
4 64 86 44 14
5 16 60 14 64 45
4 45 88 41 16
4 62 30 21 35
4 72 69 62 30
4 75 67 5 111
5 36 31 78 111 39
4 36 39 112 69
4 38 102 31 78
4 112 98 111 39
4 35 1 16 37
4 71 1 16 107
4 110 7 8 44
4 11 107 112 55
4 63 107 11 94
4 87 85 12 64
5 107 112 64 87 63
4 48 72 73 43
4 48 82 52 72
5 72 52 97 50 73
4 97 50 33 101
4 29 32 51 115
5 56 47 29 115 58
5 105 51 32 25 114
4 25 114 56 47
4 58 105 51 115
4 4 58 101 20
4 81 9 20 101
5 58 83 53 81 101
4 83 53 32 73
4 15 29 47 17
4 17 59 56 47
5 17 59 60 65 15
4 115 58 60 65
4 68 114 31 75
5 114 30 74 50 31
4 98 70 30 74
4 50 99 75 31
5 0 23 8 106 14
4 71 0 23 73
4 117 22 106 14
4 88 8 23 73
4 20 5 41 19
4 117 24 5 20
4 23 110 97 105
5 31 33 77 49 56
4 77 98 72 49
4 76 96 56 31
4 33 51 98 77
4 29 43 89 95
4 60 34 43 89
4 26 53 85 118
5 60 85 118 95 89
4 34 105 83 11
5 34 105 14 82 9
4 14 105 83 118
4 88 47 82 9
4 84 29 55 96
4 55 96 114 57
5 101 103 84 96 114
4 101 103 77 119
4 105 1 36 114
4 22 25 114 36
4 99 51 32 5
4 0 60 59 62
4 65 38 0 60
4 15 7 86 17
5 35 106 70 41 78
4 87 64 106 35
4 112 64 106 70
4 107 41 78 63
4 61 70 7 10
4 102 10 7 40
4 59 87 67 39
4 50 78 35 97
4 72 52 106 70
4 73 50 78 41
5 2 26 12 14 58
4 107 2 26 88
4 17 88 26 12
4 89 18 14 58
4 48 57 59 93
5 57 108 94 31 59
4 31 103 93 59
4 115 98 108 94
4 27 64 45 29
4 45 16 79 29
4 94 54 14 60
4 78 1 4 79
4 4 79 7 24
4 3 14 52 30
5 6 109 28 54 3
4 28 40 77 109
4 74 54 3 108
4 111 77 109 6
4 36 52 54 31
4 78 23 54 31
4 32 104 39 111
4 24 26 54 28
4 3 54 26 8
4 6 9 45 109
4 104 12 56 49
4 3 31 56 12
4 33 77 15 34
4 58 33 79 2
4 57 12 26 32
4 58 33 6 14
4 49 82 14 28
4 5 49 82 9
4 105 34 79 50
4 4 29 74 50
4 104 30 74 29
4 114 31 109 82
4 31 28 2 94
4 7 2 94 108
4 59 64 104 57
4 27 62 106 104
4 5 40 27 104
4 63 16 6 31
4 63 0 14 109
4 106 14 109 39
4 23 79 15 8
4 103 101 19 99
4 96 114 21 116
4 84 73 99 103
4 93 90 43 119
4 51 83 85 92
4 84 90 93 56
4 89 13 73 90
4 46 101 105 44
4 26 73 90 47
4 13 71 100 11
4 87 60 13 71
4 81 46 86 8
4 91 96 100 112
4 85 113 75 59
4 115 100 112 77
4 66 68 36 67
4 36 67 71 97
4 41 38 76 21
4 42 116 110 0
4 69 110 0 87
4 37 70 22 18
4 93 87 62 91
4 76 113 87 62
4 65 108 70 66
4 86 118 85 61
4 112 95 118 86
4 60 37 66 89
4 1 97 83 13
4 18 46 97 1
4 41 9 25 116
4 55 53 83 100
4 17 93 101 81
4 83 58 95 100
4 69 91 48 90
4 114 97 69 91
4 113 92 111 99
4 27 74 115 95
4 92 53 12 59
4 109 95 115 33
4 117 4 2 118
4 117 18 16 4
4 34 81 44 23
4 20 49 40 99
4 40 49 52 110
4 78 6 114 76
4 28 63 75 36
4 63 28 110 38
4 108 30 106 37
4 86 10 2 24
4 2 63 67 24
4 18 106 3 60
4 62 102 95 64
4 94 3 37 65
4 39 64 95 77
4 84 117 1 50
4 21 6 82 25
4 23 50 84 26
4 56 103 20 82
4 51 111 57 53
4 50 54 56 103
4 47 84 4 45
4 12 47 84 54
4 105 81 119 33
4 10 118 58 94
4 8 17 119 34
4 109 58 118 64
4 103 49 27 102
4 76 30 27 102
4 92 57 39 75
4 28 52 44 0
4 52 22 67 28
4 78 16 9 21
5 94 2 27 12 3
5 33 6 82 49 4
4 12 3 6 82
4 3 94 33 6
5 11 53 12 47 29
5 14 105 13 4 117
4 12 53 105 14
4 14 12 47 117
5 20 111 21 114 36
5 79 4 28 54 23
4 21 114 54 23
4 23 79 111 21
5 91 59 31 102 27
5 29 115 33 119 48
4 33 119 59 31
4 31 102 115 33
5 0 60 37 8 10
5 28 109 39 104 27
4 37 8 104 39
4 37 60 109 39
5 19 1 97 44 21
5 84 4 43 32 26
4 44 21 32 26
4 44 97 84 26
5 36 31 50 40 49
5 98 51 92 68 48
4 50 31 92 51
4 51 98 40 50
5 55 48 93 56 96
5 58 83 11 43 89
4 56 96 83 58
4 58 89 93 56
5 2 0 14 64 24
5 17 88 11 42 81
4 81 17 64 14
4 17 88 24 64
5 0 23 41 16 1
5 36 39 70 30 62
4 41 23 30 70
4 70 41 16 39
5 62 87 75 37 61
5 55 15 77 95 27
4 75 37 15 77
4 95 77 75 87
5 80 116 83 113 19
5 48 20 103 84 72
4 84 83 116 72
4 84 103 113 83
5 106 35 0 110 86
5 88 9 19 13 73
4 88 86 106 9
4 88 73 110 86
5 61 46 93 66 80
5 10 11 107 95 118
4 95 118 46 93
4 93 66 107 95
5 61 108 98 112 91
5 99 78 35 36 67
4 98 108 78 99
4 67 99 98 112
5 61 42 38 100 86
5 68 19 99 90 22
4 100 86 22 90
4 100 38 99 90
5 54 74 29 49 56
5 105 51 43 20 101
4 54 56 101 105
4 74 54 105 51
5 1 28 52 106 6
5 13 34 8 26 2
4 8 106 52 26
4 106 6 34 8
5 59 17 55 10 85
5 58 109 45 29 2
4 85 59 109 58
4 45 109 59 17
5 91 49 77 111 57
5 28 63 78 3 62
4 3 78 111 57
4 63 78 111 77
5 62 64 112 7 10
5 42 35 18 66 41
4 7 112 66 41
4 66 18 64 112
5 103 69 91 68 75
5 55 80 65 115 100
4 115 103 75 65
4 69 103 115 100
5 70 116 76 35 68
5 50 1 20 5 73
4 116 76 50 73
4 70 116 73 5
5 80 43 90 47 25
5 42 13 71 118 44
4 47 25 44 118
4 118 47 90 71
4 36 52 44 35
4 44 23 78 35
5 73 23 44 52 24
4 76 62 59 92
5 76 38 40 69 62
5 93 59 92 65 77
4 76 38 65 92
4 83 85 60 13
5 13 60 18 45 107
5 46 85 83 100 47
4 85 46 18 60
4 51 19 81 53
5 117 89 19 81 46
4 96 53 81 46
5 53 96 84 115 51
5 74 72 91 114 76
4 93 101 114 91
4 114 76 113 101
5 113 101 93 90 115
4 68 114 105 19
4 50 105 19 99
5 105 114 52 84 50
4 60 42 61 59
4 61 59 64 86
5 59 60 63 95 64
4 13 42 37 16
4 44 106 37 42
5 64 106 37 16 67
4 35 75 63 0
4 35 106 39 75
5 112 39 75 63 40
4 68 91 30 21
4 21 78 75 68
5 21 30 110 50 78
4 105 1 18 81
5 71 24 22 18 1
5 26 83 105 81 25
4 18 22 25 81
5 61 96 102 113 92
4 61 17 119 92
5 47 95 89 119 17
4 113 92 119 89
4 10 3 34 11
4 10 118 14 3
5 34 16 109 14 3
4 2 79 78 0
4 14 0 78 6
5 39 6 78 79 5
4 10 94 31 62
4 64 109 31 62
5 79 94 31 109 77
4 30 27 56 114
5 108 30 27 40 79
4 92 114 30 108
5 92 33 103 56 114
4 1 20 82 14
4 54 14 1 50
5 14 82 104 26 54
5 82 45 43 34 81
4 94 115 43 34
4 85 94 34 81
5 115 95 56 85 94
4 55 57 82 47
5 55 74 94 92 57
4 92 101 82 57
5 101 82 47 84 58
4 33 34 9 20
5 20 9 25 52 117
4 9 25 53 34
5 33 58 54 53 34
4 48 57 6 20
4 31 6 20 103
5 30 54 31 6 57
4 108 10 12 57
5 65 108 10 102 63
5 57 119 109 56 12
4 119 57 108 65
4 36 49 104 106
4 31 36 106 3
5 3 23 7 104 106
4 58 4 16 60
5 104 24 4 16 9
5 58 118 12 81 60
4 81 60 16 9
5 36 97 110 72 22
4 75 113 97 36
4 110 38 113 97
5 98 38 113 75 66
4 116 42 85 96
5 65 89 87 85 42
4 69 96 85 87
5 96 69 90 98 116
4 42 35 97 83
4 41 42 83 73
5 90 73 83 97 117
4 18 19 80 17
4 80 17 86 116
5 118 87 18 17 86
4 87 35 68 93
4 70 68 93 112
5 100 102 87 93 112
4 1 67 66 19
4 19 21 70 66
5 67 69 86 70 66
4 62 110 116 61
4 37 61 116 41
5 99 41 116 110 71
5 35 113 71 69 46
4 113 35 37 65
5 107 65 37 17 112
4 71 107 65 113
4 46 44 0 87
5 38 107 67 87 0
5 46 22 88 116 44
4 67 87 46 22
4 25 21 35 46
5 25 72 73 51 21
4 69 46 25 72
5 96 25 68 101 97
4 68 66 89 101
4 101 97 71 89
5 66 89 71 100 88
4 61 76 51 80
4 66 80 51 99
5 103 99 51 76 97
5 60 119 15 11 94
4 102 94 11 100
4 60 94 102 87
4 0 118 117 1
4 26 118 0 23
5 26 118 117 45 88
4 28 31 76 110
5 7 110 28 67 5
5 75 31 76 108 111
4 108 7 110 76
4 7 27 91 70
4 59 37 70 91
5 38 7 70 37 78
4 14 28 67 18
5 8 44 14 18 9
4 18 9 5 67
4 42 65 15 8
5 45 64 12 8 15
4 45 15 65 89
4 68 111 32 25
4 74 32 25 96
5 74 32 111 33 50
4 80 92 33 43
4 103 33 43 90
5 114 82 48 32 53
4 48 90 117 82
4 82 114 97 117
4 81 80 55 12
4 118 100 55 12
4 62 102 103 36
4 77 39 36 103
5 98 74 102 103 77
4 5 4 13 41
4 105 13 41 21
5 106 21 41 5 22
4 6 9 22 36
5 23 32 9 6 105
4 32 9 22 72
4 55 48 111 108
4 93 48 111 75
5 80 53 85 101 119
4 88 45 119 80
4 119 101 117 45
4 13 58 101 19
4 84 73 13 58
4 80 98 74 53
4 102 74 53 85
5 32 5 49 52 30
4 103 49 52 97
4 52 30 76 97
4 118 2 63 87
5 7 15 16 63 2
4 18 87 63 16
4 86 62 28 24
4 8 86 62 3
5 8 86 24 107 41
4 3 108 38 0
5 15 39 59 3 108
4 15 107 38 108
4 40 99 1 28
4 6 111 99 1
5 72 40 99 111 70
4 11 8 9 43
4 83 44 8 11
4 61 85 56 91
4 91 56 95 112
4 11 26 104 15
4 104 15 119 82
4 16 5 49 109
4 34 16 5 32
4 49 39 15 29
4 59 56 49 39
4 28 50 74 27
4 109 33 50 28
4 29 2 23 32
4 2 23 105 58
4 27 54 53 55
4 95 58 54 27
4 4 109 119 43
4 56 109 4 84
5 29 79 34 57 104
4 84 52 104 29
4 57 104 52 114
4 77 48 32 79
4 79 94 53 32
4 63 79 29 95
4 60 63 79 34
4 54 2 7 30
4 30 7 15 57
4 45 4 28 64
4 12 64 28 54
4 69 90 20 36
4 111 98 90 20
4 47 48 68 46
4 98 100 47 48
4 22 20 43 88
4 43 88 116 51
4 19 41 107 89
4 24 107 89 117
4 98 55 10 38
4 17 66 98 55
4 22 106 62 69
4 5 40 69 22
4 71 38 78 1
4 24 7 38 71
4 86 10 102 69
4 67 63 102 69
4 100 10 0 71
4 88 8 10 100
4 20 99 71 117
4 52 117 71 110
4 11 115 113 42
4 90 88 11 115
4 61 70 72 96
4 40 72 96 102
4 77 29 11 65
4 93 77 29 47
4 73 43 45 24
4 45 24 52 82
4 5 72 91 39
4 74 79 5 72
4 67 40 27 64
4 16 67 40 79
4 13 23 7 107
4 104 7 107 45
4 2 107 112 27
4 12 17 112 27
4 73 4 49 72
4 4 73 51 33
4 91 49 84 96
4 49 84 115 77
4 26 29 48 25
4 115 83 26 29
4 13 89 95 2
4 26 2 95 47
4 112 55 74 40
4 63 94 74 40
4 4 50 110 24
4 104 30 110 24
5 2 4 109 14 54
4 54 14 106 30
5 7 30 106 39 5
5 11 13 58 118 26
4 118 64 104 26
5 16 15 104 64 109
5 50 4 20 6 105
5 24 110 44 106 22
4 50 110 44 105
5 27 29 77 109 56
5 32 30 114 6 111
4 56 109 6 114
5 0 28 64 106 3
4 3 106 70 108
5 40 112 70 108 38
5 73 43 19 105 83
5 18 45 24 118 14
4 24 73 83 118
5 48 111 33 103 49
5 21 105 97 52 25
4 97 105 33 103
5 55 11 115 95 47
5 34 57 82 109 33
4 109 82 47 95
5 42 8 86 118 0
4 112 15 8 86
5 63 95 112 15 65
5 36 1 78 21 106
4 21 78 38 116
5 116 86 69 71 38
5 62 27 112 39 59
4 39 111 92 59
5 74 98 111 92 76
5 115 90 48 80 51
5 58 105 81 82 117
4 115 90 117 58
5 41 116 44 35 19
4 100 107 41 116
5 100 118 87 89 107
5 61 17 112 100 10
4 112 77 119 17
5 115 94 92 119 77
5 36 91 70 111 75
5 97 96 116 51 113
4 113 51 111 75
5 68 61 116 98 66
5 89 101 85 83 115
4 89 66 98 115
5 29 84 58 33 43
5 9 104 52 14 6
4 58 14 52 84
5 13 23 44 14 1
4 86 7 23 44
5 86 64 67 107 7
5 64 12 10 2 95
4 64 39 57 12
5 79 77 39 57 108
5 31 28 49 39 6
5 72 110 76 21 70
4 6 31 76 21
5 35 62 86 70 37
4 98 65 37 70
5 102 100 98 65 113
5 91 55 98 77 93
5 53 114 101 33 51
4 93 77 33 101
5 20 99 51 21 68
5 46 117 71 83 44
4 83 51 99 71
5 80 88 100 83 42
4 95 100 88 45
5 95 58 60 119 45
5 73 110 97 1 99
4 97 110 86 46
5 86 46 18 66 88
5 48 72 96 114 68
4 31 102 96 114
5 40 77 75 31 102
5 55 12 59 119 15
4 118 12 59 87
5 45 29 26 12 82
4 85 83 26 12
5 20 43 32 25 82
4 56 82 25 96
5 115 74 96 56 103
5 90 20 101 97 84
5 26 88 9 81 44
4 44 81 101 97
4 91 62 10 55
5 10 38 63 87 62
4 0 10 61 35
5 67 71 0 35 18
4 62 36 68 61
5 36 67 40 110 62
5 76 50 103 36 114
4 25 116 76 114
5 25 116 73 90 22
5 17 8 11 107 45
4 44 8 17 46
5 29 48 57 53 74
4 59 85 53 57
5 95 102 85 59 93
4 2 0 62 27
5 2 107 16 60 0
4 1 28 62 35
5 1 16 5 24 28
4 27 91 36 28
5 27 7 79 63 28
5 20 5 72 52 36
4 54 52 72 74
5 31 54 74 79 33
5 73 4 117 52 26
5 16 41 8 106 18
4 117 18 106 52
5 57 104 27 54 3
4 60 3 54 58
5 104 49 4 79 32
4 104 32 53 12
5 53 94 58 56 12
5 2 24 104 8 23
4 105 81 8 23
5 54 84 49 82 114
4 114 21 9 82
5 9 21 23 73 5
5 30 91 49 40 74
4 3 30 74 94
5 94 63 109 59 3
5 30 52 28 50 23
4 22 70 30 52
5 41 70 22 67 99
5 10 3 37 15 7
4 18 37 3 14
5 19 80 25 46 101
4 103 101 46 69
5 72 98 99 103 69
5 101 119 48 47 56
4 56 102 100 47
5 90 71 113 19 66
5 118 85 81 17 47
4 113 85 118 71
4 11 42 61 55
5 87 113 42 61 46
4 48 91 61 80
5 61 91 69 102 76
4 68 35 42 80
5 35 68 22 69 97
5 76 35 75 99 38
5 100 96 46 93 90
4 76 96 100 38
5 85 92 80 55 96
4 75 87 85 92
5 87 69 112 66 75
5 80 17 93 89 65
4 86 17 93 69
5 117 89 43 88 47
4 116 88 47 96
5 43 11 53 81 119
4 93 46 81 119
5 92 68 93 103 113
5 83 53 25 47 84
4 83 53 92 113
5 31 92 57 91 56
4 63 31 56 95
5 24 88 41 13 71
5 60 87 64 17 37
4 71 87 64 24
4 97 50 40 69
5 40 50 78 111 5
5 31 78 108 30 62
4 72 98 108 30
5 42 38 107 66 37
4 106 37 66 22
5 94 108 55 27 102
4 108 94 60 37
4 53 51 73 26
5 54 26 32 34 105
4 101 105 34 119
5 9 45 4 13 34
4 47 25 9 45
4 10 27 29 11
5 60 65 11 10 85
4 68 20 49 91
4 42 0 1 19
5 22 117 1 19 9
4 25 21 41 88
4 57 32 51 92
5 72 32 51 50 84
5 94 2 29 15 34
4 17 81 34 15
5 12 8 34 60 14
4 14 60 89 117
4 54 94 115 84
4 84 117 22 72
5 59 75 65 108 61
4 64 59 75 67
5 7 110 0 78 41
4 110 69 112 7
4 102 76 78 63
5 63 67 39 37 78
4 35 19 20 36
4 2 10 42 13
5 13 89 18 81 42
4 55 48 49 27
4 7 79 34 8
4 6 78 41 9
4 104 57 111 5
4 1 36 49 4
4 13 0 28 4
4 29 49 28 2
5 3 23 79 16 6
4 45 16 6 82
4 24 26 32 5
4 33 34 23 50
4 16 78 31 109
4 110 40 79 23
4 24 104 39 67
4 19 68 48 43
4 43 80 55 29
4 13 19 80 11
4 66 18 60 65
4 74 108 65 115
4 70 66 90 72
4 99 67 87 113
4 103 40 112 93
4 102 38 107 95
4 89 90 22 18
4 94 58 89 65
4 84 74 98 90
4 33 119 15 79
4 88 9 16 107
4 73 32 111 99
4 5 39 75 99
4 38 41 16 63
4 77 15 7 40
4 13 1 20 43
4 20 48 29 4
4 43 4 2 11
4 63 109 45 107
4 50 79 77 103
4 71 73 5 67
5 49 36 114 30 72
5 4 73 23 105 1
5 0 44 8 41 13
5 5 4 28 52 104
5 110 69 36 35 76
5 90 20 19 51 73
5 25 114 101 20 48
5 29 26 54 58 4
5 108 74 27 91 57
5 28 50 78 6 36
5 1 0 110 24 67
5 19 66 88 116 42
5 84 115 43 48 47
5 68 19 113 97 46
5 118 2 11 8 12
5 43 9 82 117 4
5 27 2 79 15 104
5 0 62 106 37 78
5 62 61 108 38 102
5 103 36 68 111 99
5 31 54 27 49 109
5 92 53 55 48 119
5 11 100 47 17 80
5 13 19 18 117 71
5 61 35 75 66 70
5 10 7 107 63 0
5 10 27 64 59 3
5 34 119 45 29 11
5 80 65 113 85 61
5 48 91 56 103 77
5 112 55 61 59 93
5 60 42 11 107 89
5 20 1 97 52 22
5 88 43 13 83 26
5 35 1 99 41 21
5 40 7 30 62 28
5 14 28 2 23 3
5 32 57 82 49 29
5 96 76 92 68 91
5 20 33 50 84 49
5 91 39 75 31 62
5 55 10 94 65 15
5 80 43 89 101 81
5 55 29 95 56 12
5 35 42 38 71 87
5 80 98 90 93 68
5 10 42 37 17 86
5 16 45 24 2 13
5 86 112 67 87 62
5 99 113 76 116 98
5 74 29 77 33 94
5 101 93 47 96 85
5 12 14 109 45 104
5 26 24 117 14 44
5 115 11 53 85 58
5 117 90 88 25 46
5 86 44 35 18 22
5 90 100 83 113 89
5 108 3 31 63 79
5 75 67 40 38 78
5 76 31 103 40 74
5 100 116 61 46 69
5 51 115 103 101 92
5 8 7 24 64 106
5 95 2 94 60 109
5 47 82 81 53 26
5 7 23 78 16 5
5 110 50 99 5 72
5 32 79 50 54 30
5 53 32 43 33 105
5 97 103 90 72 96
5 5 70 106 36 67
5 97 71 73 116 44
5 52 82 6 105 54
5 34 81 14 58 13
5 52 84 73 32 25
5 52 110 23 21 106
5 21 116 72 22 68
5 84 117 101 105 83
5 6 34 79 4 109
5 84 74 53 114 56
5 70 98 40 69 91
5 50 51 21 114 97
5 3 6 39 104 30
5 55 98 115 102 96
5 17 46 87 89 66
5 45 89 58 118 47
5 18 64 118 0 60
5 65 66 112 100 38
5 59 37 65 63 87
5 59 92 94 102 56
5 93 75 113 102 69
5 95 87 85 10 100
5 75 92 108 98 77
5 102 63 77 112 27
5 60 119 17 12 85
5 107 15 17 64 95
5 88 86 118 71 107
5 8 81 18 45 88
5 46 81 42 83 118
5 93 119 65 115 95
5 58 33 119 82 56
5 16 63 28 64 39
5 38 41 70 86 110
5 51 111 48 72 74
5 33 31 114 57 111
5 108 37 39 112 7
5 34 94 54 12 57
5 44 105 19 9 25
5 41 73 24 22 9
5 16 15 8 3 60
5 71 99 66 22 69
5 83 96 25 80 51
5 23 34 9 104 26
5 106 14 1 16 9
5 59 109 77 15 57
5 78 111 70 30 76
5 40 79 111 39 49
5 67 18 37 41 107
5 21 6 20 5 32

# Cells
7 0 1 2 3 4 5 6
7 7 8 9 10 11 12 13
7 14 15 16 17 18 19 20
7 21 22 23 24 25 26 27
7 28 29 30 31 32 33 34
7 35 36 37 38 39 40 41
7 42 43 44 45 46 47 48
7 49 50 51 52 53 54 55
7 56 57 58 59 60 61 62
7 63 64 65 66 67 68 69
7 70 71 72 73 74 75 76
7 77 78 79 80 81 82 83
7 84 85 86 87 88 89 90
7 91 92 93 94 95 96 97
7 98 99 100 101 102 103 104
7 105 106 107 108 109 110 111
7 112 113 114 115 116 117 118
7 119 120 121 122 123 124 125
7 126 127 128 129 130 131 132
7 133 134 135 136 137 138 139
7 140 141 142 143 144 145 146
7 147 148 149 150 151 152 153
7 154 155 156 157 158 159 160
7 161 162 163 164 165 166 167
7 144 168 169 170 171 172 173
7 174 175 176 177 178 179 180
7 106 181 182 183 184 185 186
7 150 187 188 189 190 191 192
7 193 194 195 196 197 198 199
7 88 200 201 202 203 204 205
7 206 207 208 209 210 211 212
7 213 214 215 216 217 218 219
7 220 221 222 223 224 225 226
7 109 227 228 229 230 231 232
7 79 233 234 235 236 237 238
7 239 240 241 242 243 244 245
7 246 247 248 249 250 251 252
7 253 254 255 256 257 258 259
7 260 261 262 263 264 265 266
7 267 268 269 270 271 272 273
7 67 274 275 276 277 278 279
7 95 280 281 282 283 284 285
7 286 287 288 289 290 291 292
7 53 293 294 295 296 297 298
7 158 299 300 301 302 303 304
7 305 306 307 308 309 310 311
7 101 312 313 314 315 316 317
7 163 318 319 320 321 322 323
7 324 325 326 327 328 329 330
7 100 331 332 333 334 335 336
7 58 337 338 339 340 341 342
7 326 343 344 345 346 347 348
7 349 350 351 352 353 354 355
7 356 357 358 359 360 361 362
7 92 363 364 365 366 367 368
7 369 370 371 372 373 374 375
7 155 376 377 378 379 380 381
7 43 382 383 384 385 386 387
7 388 389 390 391 392 393 394
7 164 395 396 397 398 399 400
7 141 290 401 402 403 404 405
7 29 406 407 408 409 410 411
7 349 412 413 414 415 416 417
7 149 257 418 419 420 421 422
7 38 423 424 425 426 427 428
7 381 429 430 431 432 433 434
7 25 435 436 437 438 439 440
7 37 441 442 443 444 445 446
7 447 448 449 450 451 452 453
7 371 454 455 456 457 458 459
7 399 460 461 462 463 464 465
7 449 466 467 468 469 470 471
7 115 472 473 474 475 476 477
7 80 265 478 479 480 481 482
7 335 483 484 485 486 487 488
7 122 489 490 491 492 493 494
7 72 450 495 496 497 498 499
7 356 500 501 502 503 504 505
7 85 310 506 507 508 509 510
7 73 469 511 512 513 514 515
7 428 516 517 518 519 520 521
7 366 522 523 524 525 526 527
7 390 528 529 530 531 532 533
7 445 516 534 535 536 537 538
7 185 539 540 541 542 543 544
7 10 416 545 546 547 548 549
7 46 249 550 551 552 553 554
7 230 539 555 556 557 558 559
7 315 484 560 561 562 563 564
7 302 429 565 566 567 568 569
7 18 456 570 571 572 573 574
7 283 522 575 576 577 578 579
7 130 502 580 581 582 583 584
7 59 272 585 586 587 588 589
7 322 460 590 591 592 593 594
7 134 530 595 596 597 598 599
7 268 340 600 601 602 603 604
7 175 493 605 606 607 608 609
7 195 409 610 611 612 613 614
7 248 387 615 616 617 618 619
7 50 226 620 621 622 623 624
7 15 372 625 626 627 628 629
7 208 477 630 631 632 633 634
7 64 243 635 636 637 638 639
7 127 362 640 641 642 643 644
7 215 439 645 646 647 648 649
7 9 354 650 651 652 653 654
7 137 391 655 656 657 658 659
7 114 209 660 661 662 663 664
7 191 254 665 666 667 668 669
7 3 327 670 671 672 673 674
7 121 178 675 676 677 678 679
7 238 261 680 681 682 683 684
7 22 216 685 686 687 688 689
7 171 288 690 691 692 693 694
7 203 305 695 696 697 698 699
7 240 277 700 701 702 703 704
7 2 345 705 706 707 708 709
7 32 196 710 711 712 713 714
7 220 297 715 716 717 718 719
7 0 720 721 722 723 724 725
7 7 726 727 728 729 730 731
7 14 732 733 734 735 736 737
7 21 738 739 740 741 742 743
7 28 744 745 746 747 748 749
7 35 750 751 752 753 754 755
7 42 756 757 758 759 760 761
7 49 762 763 764 765 766 767
7 56 768 769 770 771 772 773
7 63 774 775 776 777 778 779
7 70 780 781 782 783 784 785
7 77 786 787 788 789 790 791
7 84 792 793 794 795 796 797
7 91 798 799 800 801 802 803
7 98 804 805 806 807 808 809
7 105 810 811 812 813 814 815
7 112 816 817 818 819 820 821
7 119 822 823 824 825 826 827
7 126 828 829 830 831 832 833
7 133 834 835 836 837 838 839
7 140 840 841 842 843 844 845
7 147 846 847 848 849 850 851
7 154 852 853 854 855 856 857
7 161 858 859 860 861 862 863
7 173 765 864 865 866 867 868
7 180 869 870 871 872 873 874
7 186 735 875 876 877 878 879
7 192 777 880 881 882 883 884
7 199 885 886 887 888 889 890
7 205 831 891 892 893 894 895
7 210 896 897 898 899 900 901
7 218 887 902 903 904 905 906
7 225 907 908 909 910 911 912
7 231 728 913 914 915 916 917
7 237 834 918 919 920 921 922
7 245 923 924 925 926 927 928
7 251 929 930 931 932 933 934
7 259 935 936 937 938 939 940
7 266 883 941 942 943 944 945
7 273 946 947 948 949 950 951
7 279 801 874 952 953 954 955
7 285 855 912 956 957 958 959
7 291 960 961 962 963 964 965
7 298 806 901 966 967 968 969
7 303 770 970 971 972 973 974
7 311 868 975 976 977 978 979
7 316 859 927 980 981 982 983
7 321 759 984 985 986 987 988
7 330 931 989 990 991 992 993
7 336 824 994 995 996 997 998
7 342 741 999 1000 1001 1002 1003
7 346 947 1004 1005 1006 1007 1008
7 352 987 1009 1010 1011 1012 1013
7 359 960 1014 1015 1016 1017 1018
7 367 818 1019 1020 1021 1022 1023
7 375 974 1024 1025 1026 1027 1028
7 380 721 1029 1030 1031 1032 1033
7 386 744 1034 1035 1036 1037 1038
7 392 937 1039 1040 1041 1042 1043
7 398 722 1044 1045 1046 1047 1048
7 405 751 1049 1050 1051 1052 1053
7 411 848 951 1054 1055 1056 1057
7 417 1058 1059 1060 1061 1062 1063
7 421 752 1064 1065 1066 1067 1068
7 426 738 1069 1070 1071 1072 1073
7 434 917 1074 1075 1076 1077 1078
7 440 843 932 1079 1080 1081 1082
7 446 747 1083 1084 1085 1086 1087
7 451 907 1088 1089 1090 1091 1092
7 457 1060 1093 1094 1095 1096 1097
7 464 878 1098 1099 1100 1101 1102
7 471 923 1103 1104 1105 1106 1107
7 476 782 1096 1108 1109 1110 1111
7 481 823 1112 1113 1114 1115 1116
7 486 1067 1117 1118 1119 1120 1121
7 494 781 1063 1122 1123 1124 1125
7 499 795 940 1126 1127 1128 1129
7 505 897 1130 1131 1132 1133 1134
7 509 817 1135 1136 1137 1138 1139
7 514 787 963 1140 1141 1142 1143
7 521 895 1144 1145 1146 1147 1148
7 527 1053 1118 1149 1150 1151 1152
7 532 870 1153 1154 1155 1156 1157
7 536 921 1158 1159 1160 1161 1162
7 542 1023 1163 1164 1165 1166 1167
7 548 847 1007 1168 1169 1170 1171
7 553 792 1041 1172 1173 1174 1175
7 559 997 1176 1177 1178 1179 1180
7 564 1025 1181 1182 1183 1184 1185
7 569 1038 1186 1187 1188 1189 1190
7 574 840 991 1191 1192 1193 1194
7 578 1009 1195 1196 1197 1198 1199
7 584 813 905 1200 1201 1202 1203
7 588 788 1017 1204 1205 1206 1207
7 594 1002 1208 1209 1210 1211 1212
7 598 810 888 1213 1214 1215 1216
7 603 1138 1163 1217 1218 1219 1220
7 607 1072 1208 1221 1222 1223 1224
7 612 975 1225 1226 1227 1228 1229
7 617 1115 1177 1230 1231 1232 1233
7 623 732 1234 1235 1236 1237 1238
7 628 828 1239 1240 1241 1242 1243
7 633 1087 1188 1244 1245 1246 1247
7 638 727 1248 1249 1250 1251 1252
7 644 756 1199 1253 1254 1255 1256
7 647 942 1257 1258 1259 1260 1261
7 654 837 1262 1263 1264 1265 1266
7 659 769 1183 1267 1268 1269 1270
7 664 774 1259 1271 1272 1273 1274
7 667 1098 1237 1275 1276 1277 1278
7 673 798 1155 1279 1280 1281 1282
7 678 762 1228 1283 1284 1285 1286
7 682 1047 1287 1288 1289 1290 1291
7 688 852 1090 1292 1293 1294 1295
7 694 1074 1252 1296 1297 1298 1299
7 697 1032 1287 1300 1301 1302 1303
7 702 1144 1242 1304 1305 1306 1307
7 709 805 1134 1308 1309 1310 1311
7 713 860 1105 1312 1313 1314 1315
7 717 1160 1265 1316 1317 1318 1319
7 550 763 1320 1321 1322 1323 1324
7 570 789 1325 1326 1327 1328 1329
7 312 740 1330 1331 1332 1333 1334
7 478 800 1335 1336 1337 1338 1339
7 685 726 1340 1341 1342 1343 1344
7 274 758 1345 1346 1347 1348 1349
7 227 783 1350 1351 1352 1353 1354
7 441 812 1355 1356 1357 1358 1359
7 705 750 1360 1361 1362 1363 1364
7 511 720 1365 1366 1367 1368 1369
7 620 768 1370 1371 1372 1373 1374
7 200 807 1375 1376 1377 1378 1379
7 406 733 1380 1381 1382 1383 1384
7 650 793 1385 1386 1387 1388 1389
7 363 745 1390 1391 1392 1393 1394
7 337 776 1395 1396 1397 1398 1399
7 299 849 1400 1401 1402 1403 1404
7 595 819 1405 1406 1407 1408 1409
7 660 858 1410 1411 1412 1413 1414
7 418 830 1415 1416 1417 1418 1419
7 640 822 1420 1421 1422 1423 1424
7 395 841 1425 1426 1427 1428 1429
7 168 836 1430 1431 1432 1433 1434
7 489 853 1435 1436 1437 1438 1439
7 424 1180 1440 1441 1442 1443 1444
7 351 1139 1396 1445 1446 1447 1448
7 488 1258 1421 1449 1450 1451 1452
7 453 990 1387 1453 1454 1455 1456
7 601 1251 1432 1457 1458 1459 1460
7 474 1102 1461 1462 1463 1464 1465
7 97 1056 1466 1467 1468 1469 1470
7 61 953 1471 1472 1473 1474 1475
7 145 1214 1476 1477 1478 1479 1480
7 627 944 1481 1482 1483 1484 1485
7 669 1130 1397 1486 1487 1488 1489
7 606 1033 1376 1490 1491 1492 1493
7 131 1123 1494 1495 1496 1497 1498
7 33 1193 1499 1500 1501 1502 1503
7 76 1309 1504 1505 1506 1507 1508
7 462 1052 1392 1509 1510 1511 1512
7 547 1303 1513 1514 1515 1516 1517
7 292 1040 1362 1518 1519 1520 1521
7 696 998 1352 1522 1523 1524 1525
7 579 885 1437 1526 1527 1528 1529
7 671 1161 1530 1531 1532 1533 1534
7 535 879 1426 1535 1536 1537 1538
7 677 1189 1539 1540 1541 1542 1543
7 544 1088 1382 1544 1545 1546 1547
7 357 1286 1381 1548 1549 1550 1551
7 393 1245 1371 1552 1553 1554 1555
7 234 1152 1556 1557 1558 1559 1560
7 166 865 1561 1562 1563 1564 1565
7 111 1141 1557 1566 1567 1568 1569
7 89 982 1570 1571 1572 1573 1574
7 378 938 1575 1576 1577 1578 1579
7 344 1073 1436 1580 1581 1582 1583
7 619 1317 1391 1584 1585 1586 1587
7 648 1058 1427 1588 1589 1590 1591
7 611 1243 1346 1592 1593 1594 1595
7 383 910 1596 1597 1598 1599 1600
7 242 1231 1341 1601 1602 1603 1604
7 320 1299 1570 1605 1606 1607 1608
7 221 1207 1422 1532 1609 1610 1611
7 636 933 1583 1612 1613 1614 1615
7 684 1195 1431 1497 1616 1617 1618
7 455 922 1357 1619 1620 1621 1622
7 504 869 1356 1623 1624 1625 1626
7 436 1013 1627 1628 1629 1630 1631
7 691 1270 1332 1632 1633 1634 1635
7 55 1000 1628 1636 1637 1638 1639
7 104 1294 1576 1640 1641 1642 1643
7 124 971 1590 1644 1645 1646 1647
7 719 946 1377 1502 1648 1649 1650
7 657 899 1550 1651 1652 1653 1654
7 701 1037 1401 1655 1656 1657 1658
7 294 1220 1561 1659 1660 1661 1662
7 197 1026 1412 1663 1664 1665 1666
7 523 1315 1367 1629 1667 1668 1669
7 432 1276 1366 1638 1670 1671 1672
7 508 1184 1622 1673 1674 1675 1676
7 207 988 1386 1542 1677 1678 1679
7 68 1174 1625 1673 1680 1681 1682
7 12 893 1587 1683 1684 1685 1686
7 153 1254 1597 1687 1688 1689 1690
7 566 884 1337 1607 1691 1692 1693
7 593 961 1347 1506 1694 1695 1696
7 712 1095 1447 1697 1698 1699 1700
7 139 1272 1528 1612 1701 1702 1703
7 5 1085 1488 1697 1704 1705 1706
7 27 1264 1546 1651 1707 1708 1709
7 582 1223 1511 1683 1710 1711 1712
7 555 1129 1417 1660 1713 1714 1715
7 271 925 1327 1641 1716 1717 1718
7 308 1119 1406 1688 1719 1720 1721
7 260 959 1372 1516 1722 1723 1724
7 586 1306 1538 1644 1725 1726 1727
7 160 1065 1441 1665 1728 1729 1730
7 83 1021 1462 1603 1731 1732 1733
7 40 915 1514 1554 1734 1735 1736
7 529 1111 1326 1577 1737 1738 1739
7 332 904 1505 1595 1740 1741 1742
7 632 1209 1351 1475 1743 1744 1745
7 213 1171 1361 1484 1746 1747 1748
7 373 1289 1416 1565 1749 1750 1751
7 182 1107 1476 1658 1752 1753 1754
7 466 1282 1407 1598 1755 1756 1757
7 189 1018 1467 1634 1758 1759 1760
7 328 1146 1336 1573 1761 1762 1763
7 496 1006 1459 1495 1764 1765 1766
7 560 1082 1322 1558 1767 1768 1769
7 414 976 1402 1479 1770 1771 1772
7 519 1165 1331 1468 1773 1774 1775
7 246 969 1411 1443 1776 1777 1778
7 403 1156 1493 1500 1779 1780 1781
7 19 1114 1455 1539 1782 1783 1784
7 48 1236 1482 1520 1785 1786 1787
7 117 1045 1451 1531 1788 1789 1790
7 281 1229 1471 1524 1791 1792 1793
7 177 1076 1321 1568 1794 1795 1796
7 253 1203 1342 1463 1797 1798 1799
7 495 723 1320 1800 1801 1802 1803
7 435 729 1325 1804 1805 1806 1807
7 710 734 1330 1808 1809 1810 1811
7 331 739 1335 1812 1813 1814 1815
7 280 746 1340 1816 1817 1818 1819
7 670 753 1345 1820 1821 1822 1823
7 635 757 1350 1824 1825 1826 1827
7 382 764 1355 1828 1829 1830 1831
7 293 771 1360 1832 1833 1834 1835
7 585 775 1365 1836 1837 1838 1839
7 181 780 1370 1840 1841 1842 1843
7 625 786 1375 1844 1845 1846 1847
7 545 794 1380 1848 1849 1850 1851
7 233 799 1385 1852 1853 1854 1855
7 506 804 1390 1856 1857 1858 1859
7 423 811 1395 1860 1861 1862 1863
7 655 816 1400 1864 1865 1866 1867
7 580 825 1405 1868 1869 1870 1871
7 187 829 1410 1872 1873 1874 1875
7 401 835 1415 1876 1877 1878 1879
7 318 842 1420 1880 1881 1882 1883
7 376 846 1425 1884 1885 1886 1887
7 675 854 1430 1888 1889 1890 1891
7 472 861 1435 1892 1893 1894 1895
7 590 867 1444 1857 1896 1897 1898
7 642 872 1448 1899 1900 1901 1902
7 41 876 1452 1903 1904 1905 1906
7 159 881 1456 1907 1908 1909 1910
7 365 890 1460 1911 1912 1913 1914
7 412 894 1465 1861 1915 1916 1917
7 531 898 1470 1860 1918 1919 1920
7 562 903 1474 1893 1921 1922 1923
7 250 909 1478 1848 1924 1925 1926
7 517 916 1485 1884 1927 1928 1929
7 20 920 1489 1930 1931 1932 1933
7 338 928 1492 1934 1935 1936 1937
7 704 929 1498 1853 1938 1939 1940
7 567 935 1503 1832 1941 1942 1943
7 458 941 1508 1880 1944 1945 1946
7 621 950 1512 1947 1948 1949 1950
7 267 955 1517 1889 1951 1952 1953
7 82 958 1521 1954 1955 1956 1957
7 397 965 1525 1958 1959 1960 1961
7 47 968 1529 1962 1963 1964 1965
7 174 973 1533 1845 1966 1967 1968
7 651 979 1537 1969 1970 1971 1972
7 306 983 1543 1824 1973 1974 1975
7 118 985 1547 1976 1977 1978 1979
7 512 992 1551 1980 1981 1982 1983
7 90 996 1555 1984 1985 1986 1987
7 716 1003 1560 1881 1988 1989 1990
7 468 1005 1563 1844 1991 1992 1993
7 217 1011 1567 1888 1994 1995 1996
7 256 1015 1572 1820 1997 1998 1999
7 681 1022 1579 1840 2000 2001 2002
7 407 1027 1582 2003 2004 2005 2006
7 125 1030 1586 2007 2008 2009 2010
7 69 1035 1591 2003 2011 2012 2013
7 170 1042 1594 2014 2015 2016 2017
7 630 1048 1599 1852 2018 2019 2020
7 167 1050 1604 1996 2021 2022 2023
7 576 1057 1608 1836 2024 2025 2026
7 687 1061 1611 2027 2028 2029 2030
7 430 1068 1614 1812 2031 2032 2033
7 6 1071 1618 2028 2034 2035 2036
7 491 1078 1621 1985 2037 2038 2039
7 103 1081 1626 2014 2040 2041 2042
7 324 1086 1630 1892 1950 2043 2044
7 228 1092 1635 1990 2045 2046 2047
7 614 1094 1639 1885 1978 2048 2049
7 211 1099 1642 1837 2050 2051 2052
7 557 1103 1646 1805 2053 2054 2055
7 138 1109 1650 1980 2056 2057 2058
7 369 1116 1653 1828 2029 2059 2060
7 201 1121 1657 2026 2061 2062 2063
7 501 1125 1662 1849 1961 2064 2065
7 110 1127 1666 2052 2061 2066 2067
7 420 1132 1669 2020 2068 2069 2070
7 13 1137 1672 1993 2071 2072 2073
7 541 1143 1676 1877 2074 2075 2076
7 706 1148 1679 2008 2077 2078 2079
7 263 1149 1681 1868 2080 2081 2082
7 693 1154 1686 1829 2035 2083 2084
7 347 1158 1690 1856 1957 2085 2086
7 442 1167 1693 1953 2021 2087 2088
7 26 1170 1696 1940 2068 2089 2090
7 239 1175 1699 1864 2078 2091 2092
7 538 1176 1703 1817 2042 2093 2094
7 699 1181 1706 1873 2057 2095 2096
7 609 1186 1709 1841 1965 2097 2098
7 193 1194 1711 1821 1971 2099 2100
7 480 1198 1715 1917 2101 2102 2103
7 152 1201 1718 1946 2045 2104 2105
7 54 1206 1721 1920 2101 2106 2107
7 662 1212 1724 1968 2072 2108 2109
7 286 1216 1727 1809 2038 2110 2111
7 223 1217 1729 1808 1987 2112 2113
7 361 1222 1732 1825 1905 2114 2115
7 526 1226 1735 1865 2009 2116 2117
7 275 1232 1739 1908 2076 2118 2119
7 616 1238 1741 1872 1983 2120 2121
7 34 1241 1745 1900 2055 2122 2123
7 597 1246 1748 1931 2033 2124 2125
7 62 1249 1751 1970 1999 2126 2127
7 666 1256 1754 1816 2017 2128 2129
7 314 1260 1757 1963 2002 2130 2131
7 646 1266 1759 1833 1914 2132 2133
7 146 1268 1763 1934 2082 2134 2135
7 388 1274 1765 1804 1901 2136 2137
7 301 1277 1769 1898 1954 2138 2139
7 75 1281 1772 1911 1943 2140 2141
7 132 1284 1775 1923 1948 2142 2143
7 571 1290 1778 1904 1975 2144 2145
7 485 1295 1780 1800 2005 2146 2147
7 465 1296 1783 1801 2012 2148 2149
7 355 1300 1786 1876 1910 2150 2151
7 604 1304 1790 1813 1932 2152 2153
7 448 1311 1792 1869 1936 2154 2155
7 96 1314 1796 1926 1959 2156 2157
7 551 1318 1799 1929 1977 2158 2159
7 4 1104 1726 2108 2160 2161 2162
7 11 902 1793 2087 2163 2164 2165
7 17 1225 1515 2158 2166 2167 2168
7 23 1182 1700 1947 2169 2170 2171
7 31 1150 1675 2077 2172 2173 2174
7 39 1004 1661 2138 2175 2176 2177
7 44 1305 1534 2069 2178 2179 2180
7 52 930 1766 1958 2181 2182 2183
7 60 908 1753 2037 2184 2185 2186
7 65 1218 1442 2124 2187 2188 2189
7 71 1178 1615 1899 2190 2191 2192
7 78 1093 1631 2046 2193 2194 2195
7 87 1010 1559 2118 2196 2197 2198
7 93 943 1742 1935 2199 2200 2201
7 99 1301 1483 1981 2202 2203 2204
7 107 1159 1600 2015 2205 2206 2207
7 113 1153 1712 2102 2208 2209 2210
7 123 1014 1606 2144 2211 2212 2213
7 128 936 1781 1969 2214 2215 2216
7 135 1297 1541 2027 2217 2218 2219
7 143 1100 1578 2004 2220 2221 2222
7 148 1187 1654 1912 2223 2224 2225
7 157 1221 1464 2130 2226 2227 2228
7 165 896 1760 2062 2229 2230 2231
7 172 1046 1756 1851 2232 2233 2234
7 176 1200 1640 2135 2235 2236 2237
7 183 1147 1388 2049 2198 2238 2239
7 188 1077 1358 2153 2206 2240 2241
7 194 956 1785 2041 2242 2243 2244
7 204 1263 1633 1823 2245 2246 2247
7 212 838 1749 2120 2223 2248 2249
7 219 809 1584 2128 2199 2250 2251
7 224 761 1743 2000 2205 2252 2253
7 232 1084 1668 1890 2254 2255 2256
7 235 1028 1439 2084 2227 2257 2258
7 241 1204 1687 2067 2259 2260 2261
7 252 778 1670 2146 2190 2262 2263
7 258 856 1616 2074 2220 2264 2265
7 264 736 1773 2031 2202 2266 2267
7 269 966 1701 2141 2268 2269 2270
7 278 1001 1768 1870 2271 2272 2273
7 282 1291 1413 2098 2231 2274 2275
7 287 984 1707 2105 2276 2277 2278
7 295 1233 1328 2096 2194 2279 2280
7 304 1124 1714 1810 2281 2282 2283
7 307 1168 1504 2157 2284 2285 2286
7 317 892 1798 1838 2287 2288 2289
7 319 1247 1363 1939 2176 2290 2291
7 325 1126 1728 2013 2292 2293 2294
7 333 978 1428 2115 2222 2295 2296
7 341 1235 1593 1895 2297 2298 2299
7 348 785 1552 2132 2181 2300 2301
7 353 743 1761 2018 2193 2302 2303
7 360 851 1588 1988 2229 2304 2305
7 368 1113 1549 1863 2306 2307 2308
7 370 1312 1566 1986 2309 2310 2311
7 377 873 1399 1992 2189 2312 2313
7 384 926 1379 2117 2203 2314 2315
7 389 1049 1731 1909 2307 2316 2317
7 400 1273 1458 1847 2318 2319 2320
7 402 1211 1373 2086 2186 2321 2322
7 410 1020 1738 1835 2323 2324 2325
7 413 1079 1680 2123 2305 2326 2327
7 422 972 1610 1858 2294 2328 2329
7 425 993 1384 1922 2167 2330 2331
7 431 1283 1466 2023 2324 2332 2333
7 437 1120 1403 2149 2224 2271 2334
7 444 1310 1523 1866 2295 2335 2336
7 447 875 1788 1964 2319 2337 2338
7 459 748 1601 2136 2169 2339 2340
7 463 820 1770 1927 2226 2284 2341
7 470 815 1486 2024 2184 2342 2343
7 473 1043 1349 2054 2179 2323 2344
7 482 1192 1510 1826 2321 2345 2346
7 483 1135 1636 1956 2298 2347 2348
7 492 1255 1656 1807 2314 2349 2350
7 497 1166 1338 2151 2201 2281 2351
7 500 880 1782 2058 2343 2346 2352
7 507 1062 1423 1919 2213 2353 2354
7 515 914 1747 1882 2311 2355 2356
7 518 1279 1477 2127 2303 2357 2358
7 525 791 1648 1896 2196 2268 2359
7 533 845 1449 2154 2214 2360 2361
7 537 724 1794 2059 2178 2332 2362
7 540 1069 1494 2107 2267 2349 2363
7 546 1261 1409 1942 2209 2355 2364
7 554 954 1723 1878 2274 2327 2365
7 558 754 1694 1973 2187 2276 2366
7 563 796 1544 2110 2172 2337 2367
7 568 826 1719 2091 2217 2347 2368
7 573 1055 1692 1802 2240 2369 2370
7 575 918 1704 2090 2265 2335 2371
7 581 1278 1323 2094 2182 2287 2372
7 587 1319 1343 1945 2165 2328 2373
7 591 1108 1499 2143 2253 2369 2374
7 599 866 1777 1818 2279 2358 2375
7 602 767 1623 1915 2175 2235 2376
7 608 832 1663 2043 2208 2309 2377
7 613 803 1453 2064 2163 2292 2378
7 615 1248 1562 1906 2234 2340 2379
7 624 1173 1446 1886 2244 2353 2380
7 626 889 1434 1998 2218 2297 2381
7 631 1267 1571 2010 2289 2301 2382
7 637 949 1394 1995 2174 2318 2383
7 643 1066 1581 1855 2261 2330 2384
7 645 994 1734 1933 2256 2361 2385
7 653 1293 1491 1831 2278 2312 2386
7 656 964 1354 2113 2192 2245 2387
7 663 1215 1536 1814 2238 2270 2388
7 665 1029 1684 1979 2246 2263 2389
7 672 1091 1334 2081 2170 2232 2390
7 676 1133 1369 1925 2162 2306 2391
7 680 1239 1472 2073 2249 2272 2392
7 689 981 1678 1842 2237 2290 2393
7 692 862 1526 1951 2211 2242 2394
7 698 730 1716 1966 2166 2259 2395
7 703 772 1518 2099 2160 2316 2396
7 708 1142 1620 1875 2257 2286 2397
7 711 1197 1418 2051 2216 2254 2398
7 715 1034 1645 2036 2251 2283 2399
7 270 766 1667 2148 2366 2400 2401
7 577 790 1797 2053 2367 2402 2403
7 415 742 1548 2112 2359 2404 2405
7 198 802 1632 2152 2395 2406 2407
7 309 731 1509 2093 2266 2408 2409
7 718 760 1746 1997 2342 2410 2411
7 329 784 1592 2114 2376 2412 2413
7 452 814 1767 2083 2396 2414 2415
7 543 755 1722 1941 2262 2416 2417
7 520 725 1445 2050 2252 2418 2419
7 244 773 1522 2097 2362 2420 2421
7 649 808 1737 1991 2378 2422 2423
7 683 737 1677 1924 2250 2424 2425
7 487 797 1691 1938 2339 2426 2427
7 374 749 1490 2085 2302 2428 2429
7 618 779 1619 1918 2300 2430 2431
7 503 850 1755 2116 2394 2432 2433
7 592 821 1609 2080 2264 2434 2435
7 289 863 1713 2095 2368 2436 2437
7 179 833 1457 2150 2341 2438 2439
7 433 827 1535 1944 2248 2440 2441
7 394 844 1655 2048 2377 2442 2443
7 634 839 1580 1994 2304 2444 2445
7 668 857 1776 1921 2360 2446 2447
7 513 1179 1750 1859 2382 2448 2449
7 334 1136 1359 2137 2225 2450 2451
7 8 1257 1725 2145 2397 2425 2452
7 36 989 1605 2119 2350 2431 2453
7 385 1250 1438 2133 2195 2454 2455
7 169 1101 1585 1862 2385 2456 2457
7 454 1054 1708 2106 2322 2443 2458
7 247 952 1507 2142 2354 2426 2459
7 206 1213 1689 2156 2383 2430 2460
7 364 945 1553 1887 2293 2461 2462
7 120 1131 1674 2125 2325 2444 2463
7 190 1031 1329 2155 2183 2464 2465
7 565 1122 1702 2089 2373 2420 2466
7 262 1191 1643 2140 2391 2440 2467
7 534 1308 1787 2104 2398 2429 2468
7 658 1051 1378 2044 2180 2469 2470
7 313 1302 1744 1891 2399 2471 2472
7 116 1039 1513 2139 2370 2447 2473
7 438 995 1348 2065 2210 2474 2475
7 16 886 1440 2131 2273 2423 2476
7 229 1162 1589 1846 2352 2477 2478
7 498 877 1404 2100 2171 2479 2480
7 419 1190 1762 1827 2326 2481 2482
7 1 1089 1540 2159 2375 2410 2483
7 379 1285 1389 2121 2207 2484 2485
7 162 1244 1791 2039 2386 2441 2486
7 408 1151 1671 1883 2379 2487 2488
7 528 864 1496 2071 2239 2414 2489
7 343 1140 1637 2022 2296 2422 2490
7 214 980 1469 2126 2313 2446 2491
7 641 939 1602 1843 2310 2492 2493
7 184 1070 1414 2147 2200 2494 2495
7 57 1316 1779 2079 2384 2418 2496
7 86 1059 1752 2006 2299 2428 2497
7 236 1240 1364 2129 2230 2492 2498
7 339 911 1450 1854 2317 2499 2500
7 51 1230 1710 2088 2388 2416 2501
7 596 1298 1774 1839 2392 2502 2503
7 639 1205 1429 2060 2204 2491 2504
7 622 934 1664 1815 2236 2484 2505
7 30 1196 1613 2030 2356 2404 2506
7 284 919 1324 2111 2215 2502 2507
7 156 871 1556 2016 2247 2442 2472
7 202 1012 1487 1894 2338 2486 2508
7 475 1269 1383 1989 2177 2499 2509
7 700 999 1705 1976 2275 2407 2510
7 350 1292 1733 2066 2387 2445 2480
7 255 970 1480 2122 2331 2417 2511
7 66 948 1575 1982 2233 2413 2503
7 396 900 1454 1830 2243 2501 2512
7 296 1036 1408 2025 2164 2487 2513
7 276 1219 1617 1850 2389 2497 2514
7 81 1024 1659 2063 2336 2427 2478
7 629 1313 1398 2019 2228 2511 2512
7 129 1275 1698 2109 2393 2435 2515
7 686 1185 1795 1879 2357 2494 2516
7 404 986 1339 2092 2191 2490 2517
7 222 1172 1569 2134 2381 2424 2470
7 561 891 1501 2034 2291 2436 2518
7 605 1253 1789 1955 2351 2412 2507
7 583 882 1333 1952 2161 2468 2514
7 136 962 1481 2070 2288 2432 2516
7 479 1097 1624 1867 2269 2473 2504
7 461 1271 1730 2040 2390 2419 2475
7 556 1083 1682 2056 2364 2409 2509
7 695 1262 1784 1962 2372 2439 2513
7 300 1224 1649 1822 2371 2453 2519
7 674 1128 1433 1916 2168 2467 2508
7 45 924 1461 2047 2282 2415 2482
7 24 1117 1530 2103 2365 2403 2505
7 714 957 1353 1967 2219 2460 2519
7 552 1307 1771 1811 2374 2476 2517
7 358 1064 1564 1984 2315 2411 2451
7 610 1019 1685 1903 2241 2433 2495
7 467 913 1473 2007 2258 2402 2485
7 323 1110 1344 2075 2185 2448 2510
7 652 906 1519 1874 2260 2454 2515
7 142 1210 1740 1902 2308 2438 2488
7 510 1169 1374 2032 2221 2481 2489
7 94 1288 1764 1972 2380 2408 2500
7 707 1106 1720 1819 2333 2464 2506
7 427 1280 1424 2001 2197 2461 2518
7 490 1016 1545 1834 2348 2474 2496
7 108 1145 1758 1937 2320 2421 2457
7 443 1008 1527 1806 2277 2452 2469
7 549 1080 1368 1897 2212 2456 2466
7 102 977 1596 1913 2255 2406 2449
7 74 1164 1652 1949 2329 2400 2493
7 589 967 1419 1974 2173 2458 2471
7 661 1157 1717 1803 2285 2450 2483
7 524 1112 1574 2011 2344 2434 2455
7 600 1234 1736 1907 2334 2405 2465
7 690 1044 1647 1930 2280 2401 2498
7 572 1227 1695 1871 2363 2463 2479
7 151 1075 1627 1960 2345 2437 2462
7 679 1202 1393 1928 2188 2459 2477
