# Generated using Miratope v0.5.0 (https://github.com/galoomba1/miratope-rs)
4OFF

# Vertices, Faces, Edges, Cells
24 72 96 24

# Vertices
0.5 0.5 0.5 0.5 
0.5 0.5 0.5 -0.5 
0.5 0.5 -0.5 0.5 
0.5 -0.5 0.5 0.5 
0.5 0.5 -0.5 -0.5 
0.5 -0.5 0.5 -0.5 
0.5 -0.5 -0.5 0.5 
0.5 -0.5 -0.5 -0.5 
0 0 0 1 
0 1 0 0 
0 0 -1 0 
-0.5 0.5 0.5 0.5 
-1 0 0 0 
-0.5 -0.5 -0.5 0.5 
-0.5 0.5 -0.5 -0.5 
-0.5 -0.5 0.5 0.5 
0 0 1 0 
0 -1 0 0 
-0.5 0.5 0.5 -0.5 
0 0 0 -1 
-0.5 -0.5 -0.5 -0.5 
1 0 0 0 
-0.5 -0.5 0.5 -0.5 
-0.5 0.5 -0.5 0.5 

# Faces
4 1 4 2 0
4 1 0 3 5
4 2 0 3 6
4 1 5 7 4
4 4 2 6 7
4 3 6 7 5
4 8 11 9 2
4 8 2 10 13
4 9 14 10 2
4 11 12 13 8
4 11 9 14 12
4 13 10 14 12
4 16 15 12 18
4 15 17 5 16
4 15 17 20 12
4 18 19 5 16
4 12 18 19 20
4 5 17 20 19
4 21 1 16 3
4 21 1 19 7
4 1 16 22 19
4 21 7 17 3
4 16 3 17 22
4 7 19 22 17
4 2 23 11 0
4 0 11 15 3
4 6 13 23 2
4 6 13 15 3
4 15 11 23 13
4 19 4 9 18
4 9 4 10 23
4 19 20 10 4
4 9 18 12 23
4 12 23 10 20
4 0 21 6 8
4 21 5 16 0
4 0 16 15 8
4 21 5 17 6
4 15 8 6 17
4 15 22 18 11
4 11 18 14 23
4 15 13 20 22
4 18 22 20 14
4 23 13 20 14
4 21 2 9 1
4 1 9 14 19
4 2 21 7 10
4 19 14 10 7
4 4 21 0 9
4 23 8 0 9
4 6 10 4 21
4 8 23 10 6
4 11 16 3 8
4 3 8 13 17
4 12 22 16 11
4 13 17 22 12
4 4 14 18 1
4 1 18 22 5
4 14 4 7 20
4 5 22 20 7
4 0 1 18 11
4 15 3 5 22
4 5 19 4 21
4 17 6 10 20
4 23 2 4 14
4 6 7 20 13
4 11 16 1 9
4 2 21 3 8
4 18 16 0 9
4 12 15 8 23
4 13 17 7 10
4 22 12 14 19

# Cells
6 0 1 2 3 4 5
6 6 7 8 9 10 11
6 12 13 14 15 16 17
6 18 19 20 21 22 23
6 2 24 25 26 27 28
6 16 29 30 31 32 33
6 13 34 35 36 37 38
6 28 39 40 41 42 43
6 8 19 44 45 46 47
6 30 34 48 49 50 51
6 9 22 52 53 54 55
6 3 42 56 57 58 59
6 1 25 39 57 60 61
6 17 31 37 50 62 63
6 4 26 43 58 64 65
6 6 18 44 52 66 67
6 12 32 36 49 68 69
6 11 23 47 55 70 71
6 7 21 46 53 67 70
6 10 20 45 54 66 71
6 14 33 38 51 63 69
6 15 29 35 48 62 68
6 0 24 40 56 60 64
6 5 27 41 59 61 65
