# Generated using Miratope v0.5.0 (https://github.com/galoomba1/miratope-rs)
4OFF

# Vertices, Faces, Edges, Cells
120 1200 720 120

# Vertices
0.809016994374945 0.809016994374945 0.809016994374945 0.809016994374945 
1.30901699437495 0.809016994374945 0.5 0 
1.30901699437495 0.5 0 0.809016994374945 
0.809016994374945 0.5 1.30901699437495 0 
0.809016994374945 0 0.5 1.30901699437495 
0.5 0 1.30901699437495 0.809016994374945 
0.809016994374945 -0.809016994374945 0.809016994374945 0.809016994374945 
1.30901699437495 -0.5 0 0.809016994374945 
0.809016994374945 -0.5 1.30901699437495 0 
1.30901699437495 -0.809016994374945 0.5 0 
1.61803398874989 0 0 0 
1.30901699437495 0 0.809016994374945 -0.5 
1.30901699437495 0 0.809016994374945 0.5 
0 0.809016994374945 1.30901699437495 0.5 
0 0.5 0.809016994374945 1.30901699437495 
0 -0.5 0.809016994374945 1.30901699437495 
0 -0.809016994374945 1.30901699437495 0.5 
0 0 1.61803398874989 0 
-0.5 0 1.30901699437495 0.809016994374945 
0.5 0.809016994374945 0 1.30901699437495 
0.5 -0.809016994374945 0 1.30901699437495 
0 0 0 1.61803398874989 
0.809016994374945 0 -0.5 1.30901699437495 
0.809016994374945 1.30901699437495 0 0.5 
0.5 1.30901699437495 0.809016994374945 0 
0 1.30901699437495 0.5 0.809016994374945 
-0.809016994374945 0.809016994374945 0.809016994374945 0.809016994374945 
-0.5 0.809016994374945 0 1.30901699437495 
-0.809016994374945 0 0.5 1.30901699437495 
-0.5 1.30901699437495 0.809016994374945 0 
-0.809016994374945 0.5 1.30901699437495 0 
0 0.809016994374945 1.30901699437495 -0.5 
0.809016994374945 0.809016994374945 -0.809016994374945 0.809016994374945 
1.30901699437495 0.809016994374945 -0.5 0 
1.30901699437495 0 -0.809016994374945 0.5 
-0.809016994374945 0.809016994374945 0.809016994374945 -0.809016994374945 
-0.5 0 1.30901699437495 -0.809016994374945 
-1.30901699437495 0.809016994374945 0.5 0 
-1.30901699437495 0.5 0 -0.809016994374945 
-0.809016994374945 0 0.5 -1.30901699437495 
-0.809016994374945 -0.809016994374945 0.809016994374945 -0.809016994374945 
-0.809016994374945 -0.5 1.30901699437495 0 
-1.30901699437495 -0.809016994374945 0.5 0 
-1.30901699437495 -0.5 0 -0.809016994374945 
-1.61803398874989 0 0 0 
-1.30901699437495 0 0.809016994374945 0.5 
0 0.5 0.809016994374945 -1.30901699437495 
-1.30901699437495 0 0.809016994374945 -0.5 
0 -0.809016994374945 1.30901699437495 -0.5 
0 -0.5 0.809016994374945 -1.30901699437495 
0.5 0 1.30901699437495 -0.809016994374945 
-0.5 0.809016994374945 0 -1.30901699437495 
-0.5 -0.809016994374945 0 -1.30901699437495 
0 0 0 -1.61803398874989 
-0.809016994374945 0 -0.5 -1.30901699437495 
0 1.30901699437495 0.5 -0.809016994374945 
-0.809016994374945 1.30901699437495 0 -0.5 
-1.30901699437495 0.5 0 0.809016994374945 
-0.809016994374945 -0.809016994374945 0.809016994374945 0.809016994374945 
-1.30901699437495 -0.5 0 0.809016994374945 
-1.30901699437495 0.809016994374945 -0.5 0 
-1.30901699437495 0 -0.809016994374945 0.5 
-1.30901699437495 0 -0.809016994374945 -0.5 
-1.30901699437495 -0.809016994374945 -0.5 0 
-0.809016994374945 1.30901699437495 0 0.5 
0.809016994374945 0.809016994374945 0.809016994374945 -0.809016994374945 
0.809016994374945 0 0.5 -1.30901699437495 
0.5 0.809016994374945 0 -1.30901699437495 
0.809016994374945 0.809016994374945 -0.809016994374945 -0.809016994374945 
1.30901699437495 0.5 0 -0.809016994374945 
0.809016994374945 0.5 -1.30901699437495 0 
0.809016994374945 0 -0.5 -1.30901699437495 
0.5 0 -1.30901699437495 -0.809016994374945 
0.809016994374945 -0.809016994374945 -0.809016994374945 -0.809016994374945 
1.30901699437495 -0.809016994374945 -0.5 0 
1.30901699437495 -0.5 0 -0.809016994374945 
0.809016994374945 -0.5 -1.30901699437495 0 
1.30901699437495 0 -0.809016994374945 -0.5 
0 0.809016994374945 -1.30901699437495 -0.5 
0 0.5 -0.809016994374945 -1.30901699437495 
0 -0.809016994374945 -1.30901699437495 -0.5 
0 -0.5 -0.809016994374945 -1.30901699437495 
0 0 -1.61803398874989 0 
-0.5 0 -1.30901699437495 -0.809016994374945 
0.5 -0.809016994374945 0 -1.30901699437495 
0.809016994374945 1.30901699437495 0 -0.5 
0.5 1.30901699437495 -0.809016994374945 0 
0 1.30901699437495 -0.5 -0.809016994374945 
0 1.61803398874989 0 0 
0 1.30901699437495 -0.5 0.809016994374945 
-0.5 -0.809016994374945 0 1.30901699437495 
-0.809016994374945 0 -0.5 1.30901699437495 
-0.809016994374945 0.809016994374945 -0.809016994374945 -0.809016994374945 
-0.5 1.30901699437495 -0.809016994374945 0 
-0.809016994374945 0.5 -1.30901699437495 0 
0 0.809016994374945 -1.30901699437495 0.5 
-0.809016994374945 0.809016994374945 -0.809016994374945 0.809016994374945 
0 0.5 -0.809016994374945 1.30901699437495 
0 -0.5 -0.809016994374945 1.30901699437495 
0.809016994374945 -0.809016994374945 0.809016994374945 -0.809016994374945 
0.5 0 -1.30901699437495 0.809016994374945 
0.809016994374945 -0.809016994374945 -0.809016994374945 0.809016994374945 
-0.5 0 -1.30901699437495 0.809016994374945 
0 -0.809016994374945 -1.30901699437495 0.5 
-0.809016994374945 -0.5 -1.30901699437495 0 
-0.809016994374945 -0.809016994374945 -0.809016994374945 -0.809016994374945 
-0.809016994374945 -0.809016994374945 -0.809016994374945 0.809016994374945 
0 -1.30901699437495 0.5 0.809016994374945 
-0.809016994374945 -1.30901699437495 0 0.5 
0 -1.30901699437495 -0.5 0.809016994374945 
0.809016994374945 -1.30901699437495 0 0.5 
0.809016994374945 -1.30901699437495 0 -0.5 
0.5 -1.30901699437495 0.809016994374945 0 
0 -1.30901699437495 -0.5 -0.809016994374945 
-0.809016994374945 -1.30901699437495 0 -0.5 
0 -1.30901699437495 0.5 -0.809016994374945 
-0.5 -1.30901699437495 0.809016994374945 0 
0.5 -1.30901699437495 -0.809016994374945 0 
-0.5 -1.30901699437495 -0.809016994374945 0 
0 -1.61803398874989 0 0 

# Faces
3 0 2 1
3 1 3 0
3 0 2 4
3 0 5 3
3 4 5 0
3 6 5 4
3 6 4 7
3 5 8 6
3 7 9 6
3 6 9 8
3 1 2 10
3 10 1 11
3 10 7 2
3 7 9 10
3 10 11 9
3 1 11 3
3 4 7 2
3 5 8 3
3 11 8 3
3 11 9 8
3 3 12 0
3 0 12 4
3 3 13 0
3 4 14 0
3 13 14 0
3 4 12 6
3 8 12 6
3 6 15 4
3 8 16 6
3 6 16 15
3 17 3 13
3 3 8 17
3 13 18 17
3 17 8 16
3 17 16 18
3 8 12 3
3 4 15 14
3 13 18 14
3 14 15 18
3 15 16 18
3 0 2 12
3 0 2 19
3 0 5 12
3 14 19 0
3 0 5 14
3 6 5 12
3 6 7 12
3 5 15 6
3 6 7 20
3 6 15 20
3 21 19 14
3 19 22 21
3 14 21 15
3 22 20 21
3 15 20 21
3 2 12 7
3 19 22 2
3 2 7 22
3 14 5 15
3 22 20 7
3 1 12 2
3 2 23 1
3 1 12 3
3 1 23 24
3 1 3 24
3 4 2 12
3 19 23 2
3 2 4 19
3 3 5 12
3 5 12 4
3 23 24 25
3 19 25 23
3 3 13 24
3 5 13 3
3 14 4 19
3 4 5 14
3 25 13 24
3 19 14 25
3 13 5 14
3 13 25 14
3 4 19 0
3 19 25 0
3 5 13 0
3 0 25 13
3 13 26 25
3 26 27 25
3 13 26 18
3 27 28 26
3 26 18 28
3 19 4 21
3 4 21 15
3 21 27 19
3 21 28 27
3 21 15 28
3 4 5 15
3 25 27 19
3 13 5 18
3 18 5 15
3 18 28 15
3 3 0 24
3 24 0 25
3 14 0 25
3 25 26 14
3 26 25 29
3 18 14 26
3 26 29 30
3 18 30 26
3 3 17 5
3 17 31 3
3 18 5 17
3 18 30 17
3 17 30 31
3 24 31 3
3 24 25 29
3 24 29 31
3 14 18 5
3 29 31 30
3 0 1 12
3 0 23 1
3 19 23 0
3 23 32 19
3 32 33 23
3 19 32 22
3 32 34 33
3 32 22 34
3 10 12 1
3 10 33 1
3 7 10 12
3 33 34 10
3 7 34 10
3 23 33 1
3 4 12 7
3 19 22 4
3 7 22 4
3 22 34 7
3 35 36 30
3 35 37 30
3 36 39 35
3 37 38 35
3 35 39 38
3 40 41 36
3 40 42 41
3 40 36 39
3 42 43 40
3 39 43 40
3 37 45 44
3 37 38 44
3 45 42 44
3 44 42 43
3 44 43 38
3 30 36 41
3 30 45 41
3 30 45 37
3 41 42 45
3 39 43 38
3 31 35 30
3 35 31 46
3 35 47 30
3 35 46 39
3 39 47 35
3 41 48 40
3 41 47 40
3 40 48 49
3 39 47 40
3 40 39 49
3 17 31 50
3 30 17 41
3 17 50 48
3 17 48 41
3 31 46 50
3 41 47 30
3 50 48 49
3 50 46 49
3 46 49 39
3 35 36 46
3 36 47 35
3 35 51 46
3 35 38 47
3 35 38 51
3 40 47 36
3 40 49 36
3 43 47 40
3 40 49 52
3 43 52 40
3 46 51 53
3 49 53 46
3 53 51 54
3 49 52 53
3 53 52 54
3 49 36 46
3 38 47 43
3 51 54 38
3 43 54 38
3 43 54 52
3 29 31 55
3 30 29 37
3 29 56 55
3 56 37 29
3 30 31 36
3 31 55 46
3 46 36 31
3 30 36 47
3 30 47 37
3 56 51 55
3 46 51 55
3 38 56 37
3 51 38 56
3 39 46 36
3 39 47 36
3 37 47 38
3 46 51 39
3 38 47 39
3 38 39 51
3 26 37 30
3 28 57 26
3 37 57 26
3 18 28 58
3 58 18 41
3 58 28 59
3 42 58 41
3 58 42 59
3 44 57 37
3 37 44 47
3 57 59 44
3 44 59 42
3 44 42 47
3 30 18 41
3 28 57 59
3 42 47 41
3 37 57 45
3 57 60 37
3 37 45 47
3 37 38 60
3 57 59 45
3 60 61 57
3 59 61 57
3 42 45 59
3 42 45 47
3 60 62 38
3 61 62 60
3 59 63 42
3 59 63 61
3 43 47 42
3 43 63 42
3 38 62 43
3 63 62 61
3 63 62 43
3 29 64 26
3 57 64 26
3 30 45 26
3 57 26 45
3 30 35 29
3 29 35 56
3 38 56 35
3 44 57 45
3 44 60 57
3 45 47 44
3 38 44 60
3 44 47 38
3 29 64 56
3 64 60 56
3 57 60 64
3 30 47 45
3 56 60 38
3 1 24 0
3 0 24 13
3 1 24 65
3 11 65 1
3 31 65 24
3 65 11 50
3 31 65 50
3 13 5 17
3 8 17 5
3 13 31 17
3 8 50 17
3 11 12 1
3 8 12 5
3 11 12 8
3 24 31 13
3 11 8 50
3 13 31 3
3 3 50 8
3 31 50 3
3 5 16 8
3 16 5 18
3 18 30 13
3 31 30 13
3 50 48 8
3 8 16 48
3 16 41 18
3 31 36 50
3 50 36 48
3 48 16 41
3 36 48 41
3 55 65 31
3 50 66 65
3 65 67 55
3 65 66 67
3 35 55 31
3 35 31 36
3 51 35 55
3 39 51 35
3 66 67 53
3 49 66 53
3 53 51 67
3 53 39 51
3 49 39 53
3 49 50 36
3 49 66 50
3 51 67 55
3 36 49 39
3 68 69 33
3 68 33 70
3 68 71 69
3 68 72 70
3 68 71 72
3 73 75 74
3 73 74 76
3 73 71 75
3 73 72 76
3 73 71 72
3 10 33 69
3 10 75 69
3 10 74 34
3 10 75 74
3 34 70 33
3 69 71 75
3 74 76 34
3 70 76 34
3 76 72 70
3 70 77 68
3 68 77 71
3 68 78 70
3 68 71 79
3 68 78 79
3 73 76 77
3 71 77 73
3 73 80 76
3 71 81 73
3 80 81 73
3 70 76 82
3 82 70 78
3 82 76 80
3 82 78 83
3 82 80 83
3 76 77 70
3 71 81 79
3 78 79 83
3 79 81 83
3 83 81 80
3 68 77 69
3 68 69 67
3 72 77 68
3 68 67 79
3 68 79 72
3 75 77 73
3 73 84 75
3 73 72 77
3 73 81 84
3 73 81 72
3 53 66 84
3 67 79 53
3 84 81 53
3 81 53 79
3 69 77 75
3 69 75 66
3 67 69 66
3 75 84 66
3 81 72 79
3 33 69 85
3 33 86 85
3 69 33 77
3 33 86 70
3 70 77 33
3 69 67 85
3 85 86 87
3 85 67 87
3 71 69 77
3 71 67 69
3 86 78 87
3 70 78 86
3 70 77 72
3 71 77 72
3 67 79 87
3 78 79 87
3 72 78 70
3 79 71 67
3 71 79 72
3 79 72 78
3 25 29 13
3 25 27 14
3 29 64 25
3 27 64 25
3 30 13 29
3 28 14 27
3 14 28 18
3 29 37 64
3 64 57 27
3 28 57 27
3 18 45 30
3 28 45 18
3 57 64 37
3 28 45 57
3 23 0 24
3 14 26 13
3 26 29 13
3 26 27 14
3 27 64 26
3 24 88 23
3 88 89 23
3 24 88 29
3 29 88 64
3 88 89 64
3 23 89 19
3 13 29 24
3 19 27 14
3 27 89 19
3 27 89 64
3 26 25 64
3 26 30 13
3 26 64 37
3 56 55 35
3 37 56 35
3 24 25 88
3 24 55 88
3 64 88 25
3 56 88 64
3 56 88 55
3 24 55 31
3 56 64 37
3 26 14 28
3 26 45 28
3 15 58 28
3 15 16 58
3 58 45 28
3 58 16 41
3 45 58 41
3 17 16 5
3 17 13 30
3 16 41 17
3 15 5 16
3 15 28 14
3 27 57 26
3 26 18 45
3 18 58 15
3 58 45 18
3 15 90 58
3 59 90 58
3 59 45 58
3 14 27 21
3 21 27 91
3 21 90 15
3 21 91 90
3 27 57 91
3 90 59 91
3 59 91 57
3 2 0 23
3 24 65 3
3 11 65 3
3 65 24 85
3 11 69 65
3 69 65 85
3 2 12 10
3 10 2 33
3 11 12 10
3 10 69 11
3 23 33 2
3 3 11 12
3 24 85 23
3 23 85 33
3 2 33 1
3 33 69 1
3 11 69 1
3 33 34 2
3 2 34 7
3 7 12 9
3 11 12 9
3 34 77 33
3 9 74 7
3 34 74 7
3 9 75 11
3 75 11 69
3 74 9 75
3 34 77 74
3 74 77 75
3 67 87 68
3 78 87 68
3 71 67 68
3 68 72 78
3 92 87 51
3 78 92 87
3 51 92 54
3 78 92 83
3 92 54 83
3 67 53 71
3 81 71 53
3 53 81 54
3 67 51 87
3 71 81 72
3 83 72 78
3 83 72 81
3 83 81 54
3 87 68 86
3 70 86 68
3 79 87 68
3 87 93 92
3 92 93 94
3 87 92 79
3 92 83 94
3 83 92 79
3 70 95 82
3 70 82 72
3 95 94 82
3 83 94 82
3 83 82 72
3 87 93 86
3 86 95 93
3 86 95 70
3 95 94 93
3 83 72 79
3 35 56 51
3 35 47 37
3 60 92 56
3 56 92 51
3 62 92 60
3 92 62 54
3 44 60 37
3 62 44 60
3 43 47 44
3 43 62 44
3 37 60 56
3 43 47 39
3 51 54 39
3 39 54 43
3 43 54 62
3 29 37 26
3 89 96 27
3 27 57 96
3 96 93 89
3 96 93 60
3 60 96 57
3 29 25 88
3 89 25 88
3 56 88 29
3 89 93 88
3 88 93 56
3 25 89 27
3 56 60 93
3 32 86 23
3 19 97 32
3 86 32 95
3 32 95 97
3 64 96 27
3 96 27 97
3 96 93 64
3 96 95 97
3 95 96 93
3 23 88 25
3 88 86 23
3 88 93 64
3 86 88 93
3 19 97 27
3 23 25 89
3 86 23 85
3 23 86 89
3 24 85 55
3 29 24 55
3 64 25 89
3 85 87 55
3 64 93 89
3 93 86 89
3 64 93 56
3 56 87 55
3 93 87 56
3 20 4 22
3 4 20 15
3 19 22 97
3 22 98 20
3 97 98 22
3 27 91 28
3 27 97 91
3 15 28 90
3 15 90 20
3 91 28 90
3 90 98 20
3 97 91 98
3 91 90 98
3 25 0 23
3 23 2 32
3 22 32 2
3 23 89 32
3 32 97 22
3 32 89 97
3 14 4 21
3 21 22 4
3 21 97 22
3 27 97 21
3 2 4 22
3 89 97 27
3 45 26 37
3 29 35 31
3 37 29 35
3 18 41 17
3 31 17 36
3 41 36 17
3 31 13 29
3 41 45 18
3 36 47 41
3 41 47 45
3 34 2 32
3 34 32 70
3 86 70 32
3 69 68 85
3 86 68 85
3 1 69 10
3 2 34 10
3 69 77 10
3 10 77 34
3 23 85 1
3 69 1 85
3 70 77 34
3 3 65 1
3 65 1 85
3 3 65 31
3 65 85 55
3 23 85 88
3 55 85 88
3 29 55 88
3 24 1 85
3 11 50 3
3 69 11 66
3 11 66 50
3 55 85 67
3 50 66 46
3 46 67 55
3 66 46 67
3 65 85 67
3 46 65 31
3 67 46 65
3 88 85 24
3 87 88 85
3 56 88 87
3 56 87 51
3 51 67 46
3 65 69 1
3 65 3 50
3 66 69 65
3 9 99 8
3 8 99 50
3 75 99 9
3 50 66 99
3 75 99 66
3 9 12 10
3 9 75 10
3 8 12 9
3 22 34 2
3 23 86 33
3 89 97 19
3 34 100 22
3 97 100 22
3 86 95 89
3 95 89 97
3 34 70 100
3 97 95 100
3 70 95 100
3 19 2 32
3 32 100 34
3 32 100 97
3 7 101 34
3 20 101 7
3 100 101 34
3 98 101 20
3 98 100 101
3 21 4 20
3 21 97 19
3 20 98 21
3 98 21 97
3 7 20 4
3 97 98 100
3 55 46 65
3 65 46 66
3 85 68 87
3 53 66 46
3 53 66 71
3 71 53 79
3 53 79 51
3 69 71 66
3 55 87 51
3 87 79 51
3 67 66 71
3 46 66 49
3 66 71 84
3 66 84 49
3 67 51 79
3 81 84 71
3 51 54 79
3 49 39 52
3 49 52 84
3 52 39 54
3 84 81 52
3 81 79 54
3 52 81 54
3 67 69 65
3 50 46 65
3 11 99 50
3 75 99 11
3 49 99 50
3 75 84 99
3 84 99 49
3 53 46 67
3 84 71 53
3 49 84 53
3 71 84 75
3 70 76 100
3 70 95 78
3 100 102 95
3 76 103 100
3 100 103 102
3 95 102 94
3 94 78 95
3 76 72 80
3 76 103 80
3 102 94 104
3 102 104 103
3 83 78 94
3 94 104 83
3 83 72 80
3 103 104 80
3 83 80 104
3 78 94 92
3 78 92 79
3 92 62 94
3 92 79 54
3 62 104 105
3 62 105 54
3 80 105 104
3 81 105 54
3 81 105 80
3 82 94 78
3 82 72 78
3 94 104 82
3 82 72 80
3 80 104 82
3 104 62 94
3 81 80 72
3 87 93 78
3 93 60 94
3 94 78 93
3 62 60 94
3 54 62 38
3 94 62 83
3 79 54 83
3 54 62 83
3 86 89 32
3 32 100 70
3 89 97 96
3 96 97 102
3 93 94 96
3 94 96 102
3 70 82 100
3 100 102 82
3 94 102 82
3 86 93 78
3 100 102 97
3 33 32 70
3 32 95 89
3 70 32 95
3 33 68 85
3 87 88 93
3 93 89 95
3 95 78 93
3 29 55 35
3 93 60 92
3 60 38 92
3 51 92 38
3 88 87 55
3 60 93 64
3 60 64 37
3 89 96 64
3 57 64 96
3 97 91 96
3 57 91 96
3 14 28 21
3 28 91 21
3 91 21 97
3 19 25 89
3 28 91 57
3 33 32 2
3 32 89 19
3 32 86 33
3 86 88 85
3 89 86 88
3 33 85 1
3 24 55 65
3 46 55 35
3 17 50 3
3 30 17 36
3 50 36 17
3 46 50 36
3 22 100 32
3 22 101 7
3 7 74 101
3 100 22 101
3 76 101 74
3 100 76 101
3 33 77 10
3 10 74 7
3 74 77 10
3 76 74 77
3 34 101 22
3 98 22 101
3 76 101 34
3 101 98 103
3 76 103 101
3 82 102 95
3 82 103 76
3 102 103 82
3 97 102 98
3 95 97 102
3 103 98 102
3 65 11 66
3 68 77 33
3 68 85 67
3 11 75 10
3 10 77 75
3 66 11 75
3 71 75 77
3 71 66 75
3 92 79 51
3 62 38 92
3 83 62 92
3 62 43 105
3 52 105 43
3 105 83 62
3 52 105 81
3 81 105 83
3 52 39 53
3 53 52 81
3 39 52 43
3 92 60 94
3 54 92 38
3 43 63 105
3 105 104 63
3 43 105 54
3 104 105 83
3 83 105 54
3 61 44 60
3 61 44 63
3 43 44 63
3 60 94 61
3 94 61 104
3 61 104 63
3 78 68 86
3 92 56 93
3 92 78 93
3 8 11 99
3 66 11 99
3 8 99 48
3 48 99 49
3 66 99 49
3 17 8 48
3 48 36 17
3 49 48 36
3 32 100 95
3 33 68 86
3 95 82 100
3 82 100 76
3 78 95 82
3 72 82 76
3 34 77 76
3 34 100 76
3 86 95 78
3 76 77 72
3 87 88 86
3 55 87 67
3 96 95 89
3 60 64 96
3 95 94 96
3 60 94 96
3 92 56 87
3 56 92 38
3 46 53 39
3 54 39 53
3 53 54 79
3 38 39 54
3 91 96 27
3 96 91 61
3 61 96 60
3 44 59 45
3 59 61 44
3 28 91 59
3 59 28 45
3 61 91 59
3 57 61 96
3 96 61 102
3 90 106 98
3 90 59 106
3 98 102 106
3 61 106 59
3 106 102 61
3 28 90 21
3 90 98 21
3 28 90 59
3 95 102 96
3 104 102 82
3 82 104 83
3 104 102 61
3 61 104 62
3 104 62 83
3 96 91 102
3 21 98 22
3 91 98 21
3 98 100 22
3 98 91 102
3 98 102 100
3 96 61 94
3 57 44 61
3 38 44 62
3 62 44 61
3 62 94 61
3 59 91 106
3 102 106 91
3 59 106 63
3 102 104 106
3 63 104 106
3 59 44 63
3 62 63 44
3 62 63 104
3 98 106 91
3 61 91 106
3 98 106 103
3 61 104 106
3 104 103 106
3 103 82 100
3 103 82 104
3 98 103 100
3 15 107 58
3 58 108 107
3 58 108 59
3 106 98 109
3 59 108 106
3 109 108 106
3 15 107 20
3 20 109 98
3 107 109 20
3 107 109 108
3 9 12 6
3 6 20 4
3 6 110 9
3 6 110 20
3 20 22 101
3 74 101 34
3 20 110 101
3 101 110 74
3 9 74 10
3 74 110 9
3 11 99 9
3 99 9 111
3 84 99 66
3 99 84 111
3 73 74 77
3 73 111 74
3 73 84 111
3 73 84 71
3 74 111 9
3 6 5 16
3 9 112 6
3 16 112 6
3 9 112 99
3 48 99 50
3 99 112 48
3 17 48 16
3 48 112 16
3 73 113 84
3 73 72 80
3 80 113 73
3 54 105 52
3 105 113 52
3 80 83 105
3 105 80 113
3 53 52 84
3 84 52 113
3 42 47 40
3 42 114 40
3 40 39 52
3 40 114 52
3 63 105 62
3 105 114 63
3 105 114 52
3 42 44 63
3 63 114 42
3 99 115 48
3 84 115 99
3 36 48 40
3 40 48 115
3 40 52 115
3 84 115 52
3 16 58 18
3 58 16 116
3 45 58 42
3 58 42 116
3 40 116 48
3 40 42 116
3 16 48 116
3 101 74 117
3 100 101 103
3 101 117 103
3 73 117 74
3 73 80 117
3 82 103 80
3 103 117 80
3 91 102 97
3 61 91 57
3 61 91 102
3 94 61 102
3 106 108 118
3 106 118 104
3 105 43 114
3 114 118 105
3 105 118 104
3 42 108 59
3 114 108 42
3 42 43 114
3 114 118 108
3 6 110 7
3 6 112 8
3 6 110 112
3 99 112 8
3 99 111 75
3 111 112 99
3 74 110 7
3 75 111 74
3 74 110 111
3 112 111 110
3 99 115 111
3 99 115 49
3 75 111 73
3 73 113 111
3 81 113 73
3 111 115 113
3 52 115 49
3 113 115 52
3 52 81 113
3 99 112 115
3 40 41 116
3 40 116 115
3 40 49 115
3 16 112 8
3 16 116 41
3 16 116 112
3 112 116 115
3 90 109 98
3 90 108 59
3 109 108 90
3 98 103 109
3 59 108 63
3 109 118 108
3 103 118 109
3 108 63 118
3 103 118 104
3 104 118 63
3 7 110 9
3 20 7 110
3 9 112 8
3 16 107 15
3 9 112 110
3 20 107 110
3 16 107 112
3 110 112 107
3 58 90 28
3 90 108 58
3 58 42 108
3 90 106 91
3 106 108 90
3 63 106 61
3 106 63 108
3 42 108 63
3 103 106 102
3 106 118 103
3 106 118 63
3 105 118 63
3 80 118 105
3 80 118 103
3 40 114 115
3 40 114 43
3 105 114 113
3 81 113 105
3 84 49 115
3 113 115 84
3 84 113 81
3 115 114 113
3 111 117 74
3 74 117 76
3 75 111 84
3 111 117 113
3 111 113 84
3 80 117 76
3 113 117 80
3 81 113 80
3 73 113 117
3 112 119 110
3 119 117 110
3 115 119 112
3 117 113 119
3 115 119 113
3 110 117 74
3 48 112 8
3 9 75 111
3 9 111 112
3 112 115 48
3 49 115 48
3 112 115 111
3 111 115 84
3 20 109 101
3 103 109 101
3 90 109 106
3 106 109 103
3 21 20 90
3 90 109 20
3 101 110 117
3 110 107 119
3 107 119 108
3 108 119 118
3 119 117 118
3 20 90 107
3 108 107 90
3 117 118 103
3 63 114 43
3 63 118 114
3 43 114 52
3 114 113 118
3 52 114 113
3 80 118 104
3 80 118 113
3 113 118 105
3 119 116 108
3 115 119 116
3 119 113 118
3 42 116 108
3 48 41 116
3 41 116 42
3 48 116 115
3 42 114 116
3 116 114 115
3 52 115 114
3 58 107 16
3 112 107 119
3 108 119 114
3 115 114 119
3 6 107 20
3 6 107 16
3 58 107 90
3 58 108 116
3 110 109 119
3 116 119 112
3 108 109 119
3 20 110 109
3 112 107 6
3 117 109 101
3 112 119 111
3 109 119 107
3 117 119 111
3 119 117 109
3 109 110 107
3 110 117 111
3 117 109 110
3 112 116 107
3 107 116 108
3 114 116 108
3 118 117 109
3 117 118 113
3 101 109 110
3 111 119 110
3 113 111 119
3 118 119 109
3 98 101 109
3 76 117 101
3 106 118 109
3 80 118 117
3 73 117 111
3 111 119 115
3 118 114 119
3 107 116 58
3 119 107 116
3 119 114 116
3 109 90 107
3 15 107 6
3 58 116 41
3 48 112 116
3 101 110 7
3 73 76 117
3 9 111 110
3 110 6 107
3 15 107 90
3 40 114 116
3 114 119 113
3 76 117 103
3 63 108 114
3 103 109 117
3 16 107 116

# Cells
20 0 1 2 3 4 5 6 7 8 9 10 11 12 13 14 15 16 17 18 19
20 20 21 22 23 24 25 26 27 28 29 30 31 32 33 34 35 36 37 38 39
20 40 41 42 43 44 45 46 47 48 49 50 51 52 53 54 55 56 57 58 59
20 60 61 62 63 64 65 66 67 68 69 70 71 72 73 74 75 76 77 78 79
20 4 80 81 82 83 84 85 86 87 88 89 90 91 92 93 94 95 96 97 98
20 3 44 99 100 101 102 103 104 105 106 107 108 109 110 111 112 113 114 115 116
20 21 80 117 118 119 120 121 122 123 124 125 126 127 128 129 130 131 132 133 134
20 135 136 137 138 139 140 141 142 143 144 145 146 147 148 149 150 151 152 153 154
20 111 155 156 157 158 159 160 161 162 163 164 165 166 167 168 169 170 171 172 173
20 174 175 176 177 178 179 180 181 182 183 184 185 186 187 188 189 190 191 192 193
20 116 194 195 196 197 198 199 200 201 202 203 204 205 206 207 208 209 210 211 212
20 88 106 170 202 213 214 215 216 217 218 219 220 221 222 223 224 225 226 227 228
20 190 209 229 230 231 232 233 234 235 236 237 238 239 240 241 242 243 244 245 246
20 105 157 177 247 248 249 250 251 252 253 254 255 256 257 258 259 260 261 262 263
20 42 82 117 165 264 265 266 267 268 269 270 271 272 273 274 275 276 277 278 279
20 17 73 96 150 198 226 280 281 282 283 284 285 286 287 288 289 290 291 292 293
20 137 270 290 294 295 296 297 298 299 300 301 302 303 304 305 306 307 308 309 310
20 128 311 312 313 314 315 316 317 318 319 320 321 322 323 324 325 326 327 328 329
20 330 331 332 333 334 335 336 337 338 339 340 341 342 343 344 345 346 347 348 349
20 302 350 351 352 353 354 355 356 357 358 359 360 361 362 363 364 365 366 367 368
20 369 370 371 372 373 374 375 376 377 378 379 380 381 382 383 384 385 386 387 388
20 37 79 152 195 229 285 389 390 391 392 393 394 395 396 397 398 399 400 401 402
20 24 43 119 247 265 403 404 405 406 407 408 409 410 411 412 413 414 415 416 417
20 76 84 136 155 213 278 286 298 418 419 420 421 422 423 424 425 426 427 428 429
20 58 78 151 166 249 271 404 419 430 431 432 433 434 435 436 437 438 439 440 441
20 38 52 104 233 250 406 442 443 444 445 446 447 448 449 450 451 452 453 454 455
20 20 40 99 321 369 403 456 457 458 459 460 461 462 463 464 465 466 467 468 469
20 55 60 275 364 371 470 471 472 473 474 475 476 477 478 479 480 481 482 483 484
20 186 304 315 485 486 487 488 489 490 491 492 493 494 495 496 497 498 499 500 501
20 314 354 502 503 504 505 506 507 508 509 510 511 512 513 514 515 516 517 518 519
20 159 222 301 422 491 520 521 522 523 524 525 526 527 528 529 530 531 532 533 534
20 85 103 197 215 230 442 530 535 536 537 538 539 540 541 542 543 544 545 546 547
20 71 95 120 392 425 516 548 549 550 551 552 553 554 555 556 557 558 559 560 561
20 70 113 196 259 375 391 468 515 562 563 564 565 566 567 568 569 570 571 572 573
20 36 74 132 394 415 441 561 574 575 576 577 578 579 580 581 582 583 584 585 586
20 2 23 101 390 449 456 546 562 587 588 589 590 591 592 593 594 595 596 597 598
20 32 86 175 231 273 299 405 443 521 535 599 600 601 602 603 604 605 606 607 608
20 10 61 330 350 503 548 563 588 609 610 611 612 613 614 615 616 617 618 619 620
20 1 22 83 118 194 280 294 389 541 557 587 605 618 621 622 623 624 625 626 627
20 15 64 112 169 199 282 366 374 428 472 565 619 628 629 630 631 632 633 634 635
20 114 156 176 252 268 376 410 459 497 520 543 600 636 637 638 639 640 641 642 643
20 35 62 125 281 295 322 365 614 621 644 645 646 647 648 649 650 651 652 653 654
20 56 66 325 372 413 466 473 517 564 576 655 656 657 658 659 660 661 662 663 664
20 16 67 89 474 549 609 665 666 667 668 669 670 671 672 673 674 675 676 677 678
20 184 204 313 333 461 504 568 612 624 646 679 680 681 682 683 684 685 686 687 688
20 173 210 346 386 532 635 643 689 690 691 692 693 694 695 696 697 698 699 700 701
20 172 185 269 326 378 460 481 494 638 702 703 704 705 706 707 708 709 710 711 712
20 329 385 499 664 713 714 715 716 717 718 719 720 721 722 723 724 725 726 727 728
20 368 388 525 700 729 730 731 732 733 734 735 736 737 738 739 740 741 742 743 744
20 191 206 238 263 347 384 547 573 642 688 695 724 745 746 747 748 749 750 751 752
20 341 380 538 570 592 611 667 738 747 753 754 755 756 757 758 759 760 761 762 763
20 121 312 332 409 469 486 544 590 625 640 681 714 745 764 765 766 767 768 769 770
20 138 178 232 300 396 411 489 505 559 601 627 687 768 771 772 773 774 775 776 777
20 50 77 102 214 248 418 430 567 657 674 755 778 779 780 781 782 783 784 785 786
20 0 41 81 100 264 370 423 470 542 628 639 665 753 785 787 788 789 790 791 792
20 30 72 135 174 251 393 414 438 457 566 645 679 703 771 793 794 795 796 797 798
20 12 57 345 373 463 589 713 754 764 787 799 800 801 802 803 804 805 806 807 808
20 124 328 340 510 551 578 591 610 766 809 810 811 812 813 814 815 816 817 818 819
20 11 126 267 297 331 487 622 636 689 767 792 805 820 821 822 823 824 825 826 827
20 154 212 244 305 348 363 509 685 774 828 829 830 831 832 833 834 835 836 837 838
20 149 192 257 493 508 725 773 839 840 841 842 843 844 845 846 847 848 849 850 851
20 203 309 334 353 427 523 545 560 613 626 632 693 730 762 790 822 828 852 853 854
20 18 31 108 189 200 458 603 623 637 680 690 820 855 856 857 858 859 860 861 862
20 123 352 477 488 550 666 739 789 821 852 863 864 865 866 867 868 869 870 871 872
20 63 130 266 296 311 351 408 424 471 485 502 558 644 656 702 775 793 864 873 874
20 260 379 412 426 490 522 641 660 719 729 778 791 839 871 873 875 876 877 878 879
20 139 158 253 361 383 421 507 572 634 709 732 794 840 874 879 880 881 882 883 884
20 87 145 407 420 431 526 552 579 599 777 846 876 885 886 887 888 889 890 891 892
20 92 227 235 398 537 553 596 676 756 817 893 894 895 896 897 898 899 900 901 902
20 239 343 492 524 539 556 770 772 814 830 854 867 887 894 903 904 905 906 907 908
20 51 91 122 416 450 536 715 765 788 799 863 875 885 903 909 910 911 912 913 914
20 146 205 221 401 429 506 554 571 731 757 779 829 853 880 893 915 916 917 918 919
20 223 255 455 527 540 722 743 748 758 781 878 909 920 921 922 923 924 925 926 927
20 512 555 585 663 678 740 780 850 865 877 886 915 928 929 930 931 932 933 934 935
20 54 93 218 432 675 783 890 911 920 928 936 937 938 939 940 941 942 943 944 945
20 25 65 323 462 574 597 615 652 655 809 946 947 948 949 950 951 952 953 954 955
20 14 336 377 465 616 630 686 691 807 856 954 956 957 958 959 960 961 962 963 964
20 45 68 107 167 437 467 476 629 704 795 946 956 965 966 967 968 969 970 971 972
20 188 320 387 519 684 710 726 751 845 883 963 973 974 975 976 977 978 979 980 981
20 163 211 225 258 698 734 749 884 917 926 976 982 983 984 985 986 987 988 989 990
20 142 207 291 360 633 650 682 798 836 881 958 969 980 984 991 992 993 994 995 996
20 34 110 179 201 237 262 399 445 796 861 971 982 993 997 998 999 1000 1001 1002 1003
20 357 381 483 511 620 662 670 741 759 933 951 960 974 1004 1005 1006 1007 1008 1009 1010
20 234 261 397 417 453 518 569 580 598 661 718 746 769 776 818 849 1011 1012 1013 1014
20 148 224 529 733 831 889 898 907 918 931 940 1015 1016 1017 1018 1019 1020 1021 1022 1023
20 26 46 127 277 324 464 705 806 823 855 1024 1025 1026 1027 1028 1029 1030 1031 1032 1033
20 187 303 318 338 495 651 683 827 837 859 1028 1034 1035 1036 1037 1038 1039 1040 1041 1042
20 33 140 180 274 307 439 604 648 706 797 1027 1035 1043 1044 1045 1046 1047 1048 1049 1050
20 241 454 586 723 819 851 892 906 913 1013 1051 1052 1053 1054 1055 1056 1057 1058 1059 1060
20 69 94 131 276 283 440 475 575 654 677 942 1047 1061 1062 1063 1064 1065 1066 1067 1068
20 147 254 402 434 583 786 847 916 929 989 999 1012 1069 1070 1071 1072 1073 1074 1075 1076
20 245 344 513 750 761 816 833 899 919 978 986 1009 1014 1074 1077 1078 1079 1080 1081 1082
20 144 164 306 362 496 533 711 736 843 882 1017 1046 1083 1084 1085 1086 1087 1088 1089 1090
20 382 484 498 694 712 720 744 808 826 872 1031 1089 1091 1092 1093 1094 1095 1096 1097 1098
20 316 356 482 649 707 955 968 973 992 1007 1043 1065 1088 1099 1100 1101 1102 1103 1104 1105
20 19 171 279 287 308 367 480 631 692 825 1063 1087 1093 1106 1107 1108 1109 1110 1111 1112
20 53 452 595 659 717 763 784 802 921 950 1005 1011 1072 1077 1113 1114 1115 1116 1117 1118
20 584 671 812 895 930 952 1006 1015 1066 1073 1078 1101 1119 1120 1121 1122 1123 1124 1125 1126
20 193 246 349 501 534 701 728 752 908 927 1042 1060 1098 1127 1128 1129 1130 1131 1132 1133
20 143 183 243 832 841 977 995 1002 1041 1045 1058 1076 1080 1104 1122 1134 1135 1136 1137 1138
20 208 228 242 293 310 531 607 696 838 862 1022 1040 1110 1129 1139 1140 1141 1142 1143 1144
20 141 160 219 292 435 937 972 983 994 1021 1067 1071 1083 1102 1109 1121 1145 1146 1147 1148
20 5 75 115 216 284 395 593 673 782 900 947 965 997 1069 1117 1124 1145 1149 1150 1151
20 29 49 433 446 582 949 967 998 1026 1049 1053 1070 1100 1118 1135 1152 1153 1154 1155 1156
20 8 48 478 669 801 944 964 966 1004 1091 1108 1113 1146 1149 1157 1158 1159 1160 1161 1162
20 945 1023 1033 1039 1050 1056 1068 1090 1094 1111 1130 1143 1163 1164 1165 1166 1167 1168 1169 1170
20 317 337 721 803 813 953 961 975 1032 1037 1057 1082 1114 1133 1137 1153 1171 1172 1173 1174
20 342 672 742 760 804 866 897 904 914 923 939 1016 1096 1132 1158 1169 1175 1176 1177 1178
20 339 358 699 737 834 962 988 996 1008 1018 1081 1112 1123 1144 1148 1161 1178 1179 1180 1181
20 220 240 447 896 922 990 1000 1079 1115 1128 1142 1151 1160 1174 1177 1181 1182 1183 1184 1185
20 7 47 97 109 168 217 272 444 602 860 936 1025 1106 1139 1157 1166 1182 1186 1187 1188
20 13 129 335 355 617 653 668 811 824 869 1036 1061 1107 1119 1164 1176 1179 1189 1190 1191
20 6 27 90 133 451 594 800 810 901 910 1024 1051 1163 1171 1175 1185 1186 1189 1192 1193
20 162 182 697 708 858 959 970 981 985 1001 1029 1095 1131 1154 1159 1173 1184 1188 1194 1195
20 319 359 500 514 815 835 844 868 905 934 1019 1038 1059 1086 1099 1126 1134 1170 1190 1196
20 161 181 256 436 448 528 608 848 888 925 938 1044 1055 1084 1127 1152 1168 1187 1194 1197
20 59 134 327 479 577 658 716 870 912 935 943 1030 1054 1062 1092 1105 1156 1165 1196 1198
20 9 28 288 647 857 948 957 991 1003 1034 1120 1136 1141 1150 1172 1180 1183 1191 1192 1199
20 727 735 842 924 932 941 979 987 1010 1075 1085 1097 1103 1116 1147 1155 1162 1195 1197 1198
20 39 98 153 236 289 400 581 606 891 902 1020 1048 1052 1064 1125 1138 1140 1167 1193 1199
