# Generated using Miratope v0.5.0 (https://github.com/galoomba1/miratope-rs)
4OFF

# Vertices, Faces, Edges, Cells
120 720 720 120

# Vertices
-0.809016994374945 -0.809016994374945 -0.809016994374945 -0.809016994374945 
-0.809016994374945 1.30901699437495 0 0.5 
-0.809016994374945 0.5 1.30901699437495 0 
0.5 -0.809016994374945 0 1.30901699437495 
0 -0.809016994374945 1.30901699437495 0.5 
0 -1.61803398874989 0 0 
0 0.5 0.809016994374945 1.30901699437495 
-1.30901699437495 0.5 0 -0.809016994374945 
-0.809016994374945 0.5 -1.30901699437495 0 
0 -0.809016994374945 -1.30901699437495 0.5 
-0.809016994374945 -0.809016994374945 0.809016994374945 0.809016994374945 
0.5 1.30901699437495 0.809016994374945 0 
-0.809016994374945 1.30901699437495 0 -0.5 
0.5 0 -1.30901699437495 0.809016994374945 
-0.809016994374945 -0.809016994374945 -0.809016994374945 0.809016994374945 
0.5 0 1.30901699437495 0.809016994374945 
0.5 1.30901699437495 -0.809016994374945 0 
0.809016994374945 -0.809016994374945 0.809016994374945 -0.809016994374945 
0.809016994374945 0 -0.5 1.30901699437495 
-1.30901699437495 0 0.809016994374945 0.5 
-1.30901699437495 -0.809016994374945 -0.5 0 
-0.809016994374945 -0.809016994374945 0.809016994374945 -0.809016994374945 
1.30901699437495 0 0.809016994374945 0.5 
1.30901699437495 -0.809016994374945 -0.5 0 
-0.809016994374945 0 -0.5 1.30901699437495 
0 -1.30901699437495 -0.5 -0.809016994374945 
-0.809016994374945 0.809016994374945 -0.809016994374945 -0.809016994374945 
0 0.809016994374945 1.30901699437495 0.5 
0.5 0 1.30901699437495 -0.809016994374945 
-0.809016994374945 -1.30901699437495 0 0.5 
0 -1.30901699437495 0.5 -0.809016994374945 
0 1.30901699437495 0.5 -0.809016994374945 
-1.30901699437495 0 -0.809016994374945 0.5 
0.809016994374945 -0.809016994374945 -0.809016994374945 0.809016994374945 
-1.30901699437495 0.5 0 0.809016994374945 
-1.30901699437495 -0.809016994374945 0.5 0 
0 0.5 -0.809016994374945 -1.30901699437495 
-0.5 -0.809016994374945 0 -1.30901699437495 
0.809016994374945 -0.809016994374945 -0.809016994374945 -0.809016994374945 
0 0.5 -0.809016994374945 1.30901699437495 
-0.5 -0.809016994374945 0 1.30901699437495 
0.809016994374945 0.5 -1.30901699437495 0 
1.30901699437495 0 0.809016994374945 -0.5 
0 1.30901699437495 -0.5 0.809016994374945 
0 0 1.61803398874989 0 
1.30901699437495 0.809016994374945 -0.5 0 
0 -1.30901699437495 -0.5 0.809016994374945 
0.5 -1.30901699437495 0.809016994374945 0 
-0.809016994374945 0.809016994374945 0.809016994374945 -0.809016994374945 
0 -0.5 0.809016994374945 1.30901699437495 
1.30901699437495 -0.5 0 -0.809016994374945 
0 0 0 -1.61803398874989 
0.809016994374945 -1.30901699437495 0 0.5 
-1.30901699437495 -0.5 0 -0.809016994374945 
-0.809016994374945 0.809016994374945 -0.809016994374945 0.809016994374945 
1.30901699437495 0.809016994374945 0.5 0 
-0.809016994374945 -0.5 1.30901699437495 0 
0.5 0.809016994374945 0 -1.30901699437495 
-0.809016994374945 0 0.5 -1.30901699437495 
-1.61803398874989 0 0 0 
0.5 0.809016994374945 0 1.30901699437495 
-0.809016994374945 0 0.5 1.30901699437495 
0 1.30901699437495 0.5 0.809016994374945 
-1.30901699437495 0 -0.809016994374945 -0.5 
0 0 0 1.61803398874989 
1.30901699437495 0 -0.809016994374945 -0.5 
0 -0.809016994374945 -1.30901699437495 -0.5 
1.30901699437495 0.5 0 0.809016994374945 
1.61803398874989 0 0 0 
-0.5 -1.30901699437495 0.809016994374945 0 
-0.5 0 -1.30901699437495 0.809016994374945 
0.809016994374945 0 -0.5 -1.30901699437495 
0.809016994374945 0.809016994374945 -0.809016994374945 -0.809016994374945 
-0.5 0 1.30901699437495 -0.809016994374945 
-0.5 -1.30901699437495 -0.809016994374945 0 
0 0 -1.61803398874989 0 
0.809016994374945 0 0.5 -1.30901699437495 
-0.5 1.30901699437495 -0.809016994374945 0 
-0.809016994374945 0.809016994374945 0.809016994374945 0.809016994374945 
1.30901699437495 -0.5 0 0.809016994374945 
0 -0.5 0.809016994374945 -1.30901699437495 
0.809016994374945 0.809016994374945 0.809016994374945 0.809016994374945 
0.809016994374945 -1.30901699437495 0 -0.5 
0 0.809016994374945 -1.30901699437495 -0.5 
0.809016994374945 -0.809016994374945 0.809016994374945 0.809016994374945 
0.809016994374945 1.30901699437495 0 -0.5 
0.809016994374945 0.809016994374945 -0.809016994374945 0.809016994374945 
-1.30901699437495 0.809016994374945 0.5 0 
0 -0.5 -0.809016994374945 -1.30901699437495 
0.809016994374945 0.809016994374945 0.809016994374945 -0.809016994374945 
0.809016994374945 -0.5 -1.30901699437495 0 
-0.5 0 -1.30901699437495 -0.809016994374945 
0.809016994374945 -0.5 1.30901699437495 0 
-0.5 0.809016994374945 0 -1.30901699437495 
0 1.61803398874989 0 0 
0 0.809016994374945 1.30901699437495 -0.5 
-1.30901699437495 0.809016994374945 -0.5 0 
-0.5 1.30901699437495 0.809016994374945 0 
0.809016994374945 0 0.5 1.30901699437495 
-0.5 0.809016994374945 0 1.30901699437495 
0 -1.30901699437495 0.5 0.809016994374945 
-0.809016994374945 -1.30901699437495 0 -0.5 
0 -0.809016994374945 1.30901699437495 -0.5 
-0.809016994374945 -0.5 -1.30901699437495 0 
0.5 -1.30901699437495 -0.809016994374945 0 
0 0.809016994374945 -1.30901699437495 0.5 
0 -0.5 -0.809016994374945 1.30901699437495 
-0.809016994374945 0 -0.5 -1.30901699437495 
-0.5 0 1.30901699437495 0.809016994374945 
-1.30901699437495 0 0.809016994374945 -0.5 
1.30901699437495 -0.809016994374945 0.5 0 
0.809016994374945 0.5 1.30901699437495 0 
0.809016994374945 1.30901699437495 0 0.5 
0 0.5 0.809016994374945 -1.30901699437495 
0 1.30901699437495 -0.5 -0.809016994374945 
0.5 -0.809016994374945 0 -1.30901699437495 
1.30901699437495 0 -0.809016994374945 0.5 
0.5 0 -1.30901699437495 -0.809016994374945 
-1.30901699437495 -0.5 0 0.809016994374945 
1.30901699437495 0.5 0 -0.809016994374945 

# Faces
3 0 3 1
3 0 1 4
3 0 3 2
5 0 2 5 7 4
3 5 6 7
3 6 8 5
3 2 8 5
3 6 9 7
5 3 8 6 9 1
3 4 9 1
3 3 8 2
3 4 9 7
3 10 13 11
3 10 11 8
3 12 13 10
5 10 8 2 14 12
3 14 15 16
3 14 12 15
3 14 2 16
5 11 13 15 16 3
3 8 11 3
3 15 13 12
3 2 16 3
5 22 19 17 6 21
3 17 6 20
3 17 19 18
3 18 20 17
3 22 24 21
3 21 23 6
3 23 24 21
3 22 25 24
3 22 25 19
3 23 20 6
3 18 25 19
5 18 20 23 24 25
3 27 29 26
3 26 27 30
3 26 29 28
5 0 28 26 30 31
3 0 1 28
3 0 4 31
5 4 32 27 29 1
3 32 30 27
3 1 28 29
3 31 32 4
3 31 32 30
3 34 36 33
3 33 37 34
3 33 35 36
5 38 35 33 37 40
3 39 35 38
3 38 39 7
3 38 7 40
3 35 36 39
5 39 7 41 34 36
3 40 41 7
3 40 37 41
3 41 37 34
5 43 10 11 24 44
3 10 43 42
3 13 42 10
3 44 24 45
3 44 45 46
3 44 43 46
3 11 24 47
3 11 47 13
3 45 47 24
5 45 46 42 13 47
3 42 46 43
5 22 51 27 50 48
3 22 25 48
3 48 50 49
3 49 25 48
3 22 51 19
3 27 52 51
3 19 52 51
3 27 50 53
3 52 53 27
3 50 53 49
5 19 25 49 53 52
3 55 56 54
3 55 58 54
3 56 57 54
5 54 58 16 59 57
3 59 60 28
3 59 60 57
3 16 28 59
5 61 28 60 56 55
3 55 58 61
3 56 57 60
3 61 28 16
3 61 16 58
3 33 36 62
3 33 63 62
5 33 63 64 66 34
3 64 12 65
3 64 65 63
3 64 66 12
5 67 12 65 62 36
3 67 66 12
3 34 67 36
3 67 66 34
3 62 65 63
5 17 18 69 68 40
3 40 41 17
3 20 41 17
3 37 68 40
3 68 69 70
3 68 70 37
3 18 71 69
3 18 71 20
5 70 37 41 20 71
3 69 70 71
3 72 73 32
3 73 74 72
3 32 72 30
5 75 30 72 74 76
3 31 35 75
3 31 75 30
3 75 35 76
5 73 32 31 35 77
3 73 74 77
3 76 35 77
3 76 74 77
5 60 48 45 78 57
3 45 80 78
3 78 79 57
3 79 80 78
3 48 50 60
3 48 49 45
3 60 50 56
3 45 80 49
3 57 79 56
5 49 80 79 56 50
3 81 82 70
3 82 83 81
5 70 84 43 46 81
3 46 83 81
3 85 70 84
3 84 66 85
3 43 66 84
3 42 43 66
3 42 83 46
5 42 83 82 85 66
3 85 70 82
3 87 76 86
3 86 88 87
3 86 76 63
5 65 63 86 88 54
3 54 55 88
3 54 65 58
5 62 58 55 87 76
3 55 87 88
3 62 58 65
3 63 76 62
5 89 90 92 72 52
3 89 91 52
3 89 69 90
3 89 91 69
3 74 92 72
3 72 73 52
3 92 90 93
3 92 74 93
3 73 91 52
5 73 91 69 93 74
3 90 69 93
3 82 93 81
3 90 93 81
5 94 90 81 83 79
3 79 88 94
3 92 94 90
3 92 88 94
3 95 83 79
3 79 88 95
5 92 88 95 82 93
3 82 95 83
3 21 22 1
5 1 21 11 59 28
3 21 11 24
3 11 47 59
3 59 47 60
3 29 22 1
5 22 24 47 60 29
3 29 60 28
3 84 20 43
5 34 5 6 20 84
3 34 84 66
3 67 5 34
3 5 67 8
5 67 66 43 23 8
3 6 8 23
3 20 43 23
3 14 2 36
3 16 58 14
5 35 75 58 14 36
3 31 61 75
3 61 75 58
5 2 39 31 61 16
3 39 2 36
3 35 39 31
5 52 51 4 38 73
3 7 38 4
3 38 73 40
3 9 51 4
3 51 19 9
3 73 40 91
5 40 7 9 19 91
3 19 91 52
3 76 86 74
3 63 82 86
5 68 74 86 82 70
3 77 68 74
3 37 77 68
3 82 63 85
3 37 85 70
5 76 77 37 85 63
5 26 55 88 94 50
3 26 55 30
3 27 26 50
3 94 53 92
3 53 94 50
3 87 30 55
5 27 30 87 92 53
3 87 92 88
5 45 44 18 89 49
3 69 89 18
3 89 49 90
3 71 44 18
3 44 46 71
3 45 46 80
3 80 90 49
5 69 71 46 80 90
3 79 83 78
3 57 13 78
5 13 78 83 64 12
3 65 95 64
3 95 83 64
3 12 15 65
5 65 95 79 57 15
3 15 57 13
3 81 69 96
3 81 96 46
3 69 81 70
3 84 70 97
3 84 97 20
3 44 20 43
3 44 46 96
5 97 20 44 96 69
3 69 70 97
3 87 98 30
3 87 74 98
3 30 98 32
5 99 74 98 32 52
3 27 52 32
3 53 99 92
3 74 99 92
3 74 87 92
3 53 99 52
5 15 14 62 100 54
3 15 101 54
3 54 95 100
3 54 95 101
3 14 102 62
3 12 102 14
3 15 101 12
3 62 63 102
3 62 63 100
3 95 63 100
5 12 101 95 63 102
3 78 101 79
3 79 103 78
5 15 59 47 78 101
3 78 47 103
3 15 104 54
5 54 104 60 103 79
3 54 101 79
3 59 60 104
3 59 15 104
3 60 103 47
3 48 105 49
3 48 103 49
3 48 29 105
5 48 29 26 56 103
3 26 106 27
3 26 56 106
5 106 94 49 105 27
3 94 103 49
3 94 56 106
3 94 103 56
3 29 105 27
3 78 47 107
5 103 78 46 96 49
3 78 107 46
3 103 47 48
5 48 25 44 107 47
3 44 96 25
3 44 46 107
3 49 25 96
5 33 77 98 75 62
3 108 77 33
3 33 63 108
3 98 87 75
3 62 100 75
3 75 100 87
3 77 98 74
3 77 74 108
5 74 108 63 100 87
3 37 84 34
5 109 82 108 37 84
3 66 109 84
3 33 108 37
3 109 82 64
3 64 109 66
3 64 82 63
3 63 108 82
5 97 40 77 108 70
3 40 97 91
3 91 97 69
3 108 93 70
3 74 108 93
3 77 40 73
3 69 70 93
3 19 91 18
5 90 96 18 91 99
3 25 18 96
3 91 99 52
3 99 90 53
3 49 90 96
3 53 90 49
3 78 107 13
3 83 46 78
3 12 10 66
3 13 107 10
5 107 46 109 66 10
3 64 109 83
3 83 109 46
5 106 87 75 61 26
3 26 61 104
3 26 104 56
3 75 100 58
3 61 104 58
3 106 88 56
5 104 58 100 88 56
3 88 106 87
3 88 100 87
5 14 67 5 39 110
3 14 67 102
3 62 110 14
3 5 111 39
3 5 111 34
3 34 102 67
3 39 35 111
5 111 34 102 62 35
3 62 35 110
3 39 110 35
3 84 97 37
3 7 17 6
5 7 17 97 37 111
3 20 17 97
3 5 111 7
3 37 111 34
5 39 4 112 40 111
3 4 32 112
3 40 73 112
3 32 112 73
3 40 111 77
3 35 77 111
3 4 39 31
3 9 22 1
3 29 105 22
5 52 105 22 9 112
3 9 112 4
3 52 112 32
3 52 105 27
3 10 43 113
3 10 113 8
3 11 21 8
3 24 114 21
5 21 8 113 20 114
3 44 114 24
3 20 114 44
3 43 113 20
3 0 2 110
3 0 110 61
5 104 59 3 0 61
3 59 115 15
3 3 115 59
3 104 58 15
5 110 58 15 115 2
3 58 110 61
3 3 115 2
5 26 116 1 117 60
3 60 26 104
3 26 116 61
3 1 116 0
3 61 116 0
3 59 60 117
3 59 117 3
3 3 117 1
5 3 21 23 10 115
3 10 23 107
3 10 13 115
3 117 21 3
3 24 117 21
3 59 13 115
5 117 59 13 107 24
3 23 24 107
5 48 24 114 19 105
3 117 48 24
3 48 29 117
3 21 114 9
5 117 29 51 9 21
3 51 19 105
3 29 51 105
3 19 114 9
3 38 98 35
3 98 32 38
5 116 32 38 39 0
3 110 0 39
5 110 61 30 98 35
3 116 30 61
3 30 116 32
5 6 114 18 97 41
3 6 114 9
3 7 6 41
3 91 18 97
3 19 18 114
3 40 97 41
3 10 66 113
3 14 102 36
3 5 36 2
3 5 113 8
5 5 36 102 66 113
3 12 66 102
3 81 96 80
5 99 69 81 118 92
3 118 80 81
3 89 69 99
3 53 89 99
3 69 96 89
5 94 53 89 96 80
3 94 118 92
3 94 80 118
5 86 100 55 106 92
3 92 118 86
3 95 100 86
3 86 118 95
3 54 100 55
5 56 94 118 95 54
3 94 106 92
3 56 106 55
3 81 82 118
3 81 109 82
5 78 42 109 81 80
3 78 101 42
3 109 42 64
3 42 101 64
5 101 64 82 118 79
3 80 79 118
3 86 118 82
3 86 118 88
3 88 79 54
3 54 65 101
3 64 65 101
3 88 118 79
5 86 93 99 72 87
3 118 93 86
3 99 72 53
3 87 72 106
3 72 53 106
3 90 93 99
5 106 53 90 118 88
3 93 118 90
3 80 90 118
5 93 70 109 83 118
3 80 83 118
3 70 109 71
3 46 71 109
3 46 83 80
3 92 86 74
3 68 99 69
3 74 99 68
3 82 93 108
3 95 88 100
3 82 95 63
5 64 95 86 108 85
3 108 86 93
3 64 85 109
3 70 85 108
3 70 109 85
3 83 118 95
3 81 90 96
3 79 94 103
3 90 94 49
3 54 101 57
3 94 103 80
3 95 101 83
3 57 103 56
5 83 101 57 103 80
3 79 56 88
3 56 50 106
3 53 50 106
3 55 30 61
3 87 98 76
3 35 98 76
3 62 110 58
3 76 62 35
5 42 10 67 102 64
3 10 113 67
3 64 102 85
3 34 113 67
3 43 109 42
3 102 85 34
5 43 109 85 34 113
3 18 89 19
5 112 19 89 99 73
3 40 17 112
3 17 112 19
3 99 73 68
3 68 73 40
5 68 91 112 38 77
3 112 38 32
3 98 77 38
3 99 91 68
3 52 91 112
3 34 85 37
3 109 71 43
3 20 43 71
3 34 41 113
3 20 41 113
5 33 102 65 100 76
3 36 33 102
3 33 76 35
3 14 102 65
3 58 65 14
3 75 100 76
3 58 65 100
3 22 25 105
3 50 29 60
3 50 103 60
3 24 25 45
3 47 103 45
5 103 50 105 25 45
3 105 29 50
3 48 117 47
3 26 104 28
3 29 28 117
5 47 117 28 104 57
3 57 104 56
3 103 47 57
3 45 107 78
3 60 117 48
3 45 48 24
3 59 13 57
3 45 107 24
3 54 104 55
3 14 110 16
5 75 110 16 104 55
3 75 55 100
3 62 75 110
3 16 104 15
3 19 89 105
3 89 53 105
3 73 99 72
5 51 32 72 53 105
3 51 112 19
3 112 51 32
5 71 84 113 23 44
3 66 84 113
3 84 71 109
3 10 113 23
3 44 23 107
5 43 107 45 96 71
3 25 45 96
3 18 96 71
3 43 107 23
3 72 106 30
3 32 116 51
3 51 29 116
5 50 106 30 116 29
3 53 105 50
3 14 115 16
5 101 13 115 14 65
3 59 115 16
3 13 101 57
3 107 42 78
3 59 11 115
3 47 11 107
5 11 115 12 42 107
3 15 115 12
3 101 12 42
3 30 106 55
3 61 28 116
3 29 28 116
3 89 105 49
3 44 114 18
3 37 111 77
3 85 102 63
5 33 85 84 41 111
3 97 84 41
3 77 33 111
3 108 33 85
3 41 111 40
3 33 108 76
3 38 73 98
5 73 98 76 108 68
3 68 108 37
3 25 89 96
5 91 17 114 25 89
3 97 91 17
3 20 114 17
3 44 25 114
3 10 115 67
3 67 115 14
3 65 102 64
3 42 101 13
5 72 27 116 31 98
3 98 72 87
3 106 27 72
3 26 116 27
3 31 98 75
3 31 116 61
3 110 16 0
5 16 0 119 8 115
3 0 119 39
3 5 119 39
3 5 119 8
3 67 115 8
3 114 9 17
5 17 9 119 5 41
3 21 119 8
3 21 119 9
3 113 41 5
3 7 112 38
3 1 119 0
5 112 51 1 119 7
3 1 51 116
3 39 7 119
3 17 112 7
3 21 119 6
3 21 1 119
3 51 1 22
3 6 119 7
3 3 119 21
5 119 2 67 113 6
3 2 67 115
3 23 113 6
3 2 3 119
3 2 119 39
5 119 3 28 116 4
3 39 119 4
3 31 116 4
3 16 28 3
3 28 0 16
3 11 115 8
3 1 22 117
5 22 114 23 11 117
3 9 114 22
3 3 117 11
3 8 11 23
3 6 114 23
3 51 116 4
3 9 119 4
3 117 28 3
5 31 38 111 36 110
3 7 111 38
3 4 38 31
3 0 110 31
3 5 36 111
3 36 110 2
3 9 17 112
3 111 5 41
3 67 2 36
3 41 113 6
3 105 25 89
3 94 50 103
3 80 96 45
3 45 103 80
3 55 104 26
3 50 26 60
3 42 101 83
3 47 57 13
3 12 42 66
3 85 102 66
3 76 100 86
3 72 106 92
3 75 55 30
3 96 71 81
5 81 71 97 68 93
3 91 68 97
3 99 93 68
3 71 97 18
3 109 71 81
3 97 71 84
3 68 97 37
3 108 68 93
3 86 76 108
3 73 72 98
3 102 85 33
3 95 100 65
3 43 42 107
3 65 15 58
3 15 104 57
3 52 89 105
3 27 72 52
3 31 110 75
3 28 16 104
3 67 115 12
3 107 23 11
3 112 91 17
3 25 114 22
3 111 38 77
3 113 84 41
3 36 111 33
3 98 38 31
3 62 110 36
3 22 117 48
3 114 23 44
3 11 117 47
3 27 116 51

# Cells
12 0 1 2 3 4 5 6 7 8 9 10 11
12 10 12 13 14 15 16 17 18 19 20 21 22
12 23 24 25 26 27 28 29 30 31 32 33 34
12 1 35 36 37 38 39 40 41 42 43 44 45
12 46 47 48 49 50 51 52 53 54 55 56 57
12 12 58 59 60 61 62 63 64 65 66 67 68
12 31 69 70 71 72 73 74 75 76 77 78 79
12 80 81 82 83 84 85 86 87 88 89 90 91
12 46 92 93 94 95 96 97 98 99 100 101 102
12 26 56 103 104 105 106 107 108 109 110 111 112
12 45 113 114 115 116 117 118 119 120 121 122 123
12 71 89 124 125 126 127 128 129 130 131 132 133
12 68 134 135 136 137 138 139 140 141 142 143 144
12 81 102 145 146 147 148 149 150 151 152 153 154
12 114 155 156 157 158 159 160 161 162 163 164 165
12 135 161 166 167 168 169 170 171 172 173 174 175
12 27 43 64 84 176 177 178 179 180 181 182 183
12 5 32 101 140 184 185 186 187 188 189 190 191
12 18 53 91 117 192 193 194 195 196 197 198 199
12 11 52 75 163 200 201 202 203 204 205 206 207
12 108 123 144 147 208 209 210 211 212 213 214 215
12 36 76 152 171 216 217 218 219 220 221 222 223
12 62 109 131 157 224 225 226 227 228 229 230 231
12 21 95 126 172 232 233 234 235 236 237 238 239
12 63 136 184 240 241 242 243 244 245 246 247 248
12 42 77 222 249 250 251 252 253 254 255 256 257
12 17 258 259 260 261 262 263 264 265 266 267 268
12 180 259 269 270 271 272 273 274 275 276 277 278
12 35 279 280 281 282 283 284 285 286 287 288 289
12 72 246 272 280 290 291 292 293 294 295 296 297
12 93 250 266 298 299 300 301 302 303 304 305 306
12 47 94 186 300 307 308 309 310 311 312 313 314
12 121 164 205 248 305 315 316 317 318 319 320 321
12 33 79 207 257 297 322 323 324 325 326 327 328
12 14 97 234 292 312 329 330 331 332 333 334 335
12 196 284 303 336 337 338 339 340 341 342 343 344
12 187 262 345 346 347 348 349 350 351 352 353 354
12 4 24 185 244 307 349 355 356 357 358 359 360
12 44 120 199 320 351 361 362 363 364 365 366 367
12 9 41 181 253 289 362 368 369 370 371 372 373
12 13 58 178 245 374 375 376 377 378 379 380 381
12 2 277 340 382 383 384 385 386 387 388 389 390
12 0 276 337 384 391 392 393 394 395 396 397 398
12 29 332 386 397 399 400 401 402 403 404 405 406
12 204 281 377 403 407 408 409 410 411 412 413 414
12 50 251 354 383 395 415 416 417 418 419 420 421
12 7 55 206 316 322 414 422 423 424 425 426 427
12 6 15 192 263 331 375 428 429 430 431 432 433
12 219 240 254 434 435 436 437 438 439 440 441 442
12 80 260 287 441 443 444 445 446 447 448 449 450
12 127 269 311 436 451 452 453 454 455 456 457 458
12 96 148 209 275 313 457 459 460 461 462 463 464
12 146 326 343 460 465 466 467 468 469 470 471 472
12 112 165 231 321 335 472 473 474 475 476 477 478
12 107 134 210 242 255 435 444 451 459 479 480 481
12 162 174 223 256 267 306 314 319 344 482 483 484
12 236 318 334 446 466 474 485 486 487 488 489 490
12 137 168 232 241 270 286 291 327 330 491 492 493
12 82 261 288 442 448 475 490 494 495 496 497 498
12 78 133 230 328 341 458 464 471 473 499 500 501
12 88 151 221 249 353 389 419 502 503 504 505 506
12 59 350 374 455 487 507 508 509 510 511 512 513
12 25 103 225 363 437 480 514 515 516 517 518 519
12 211 252 304 325 372 416 481 520 521 522 523 524
12 57 111 214 381 476 489 513 525 526 527 528 529
12 48 119 194 339 429 530 531 532 533 534 535 536
12 30 66 182 278 369 537 538 539 540 541 542 543
12 37 282 293 338 409 497 544 545 546 547 548 549
12 85 124 233 329 396 405 408 550 551 552 553 554
12 16 258 273 302 347 447 555 556 557 558 559 560
12 113 364 412 438 467 515 561 562 563 564 565 566
12 228 296 309 333 400 428 477 567 568 569 570 571
12 34 110 191 324 406 527 540 554 572 573 574 575
12 115 413 421 469 501 543 564 576 577 578 579 580
12 83 150 193 404 462 494 534 553 581 582 583 584
12 179 264 271 290 385 454 585 586 587 588 589 590
12 87 130 183 420 450 500 502 538 579 591 592 593
12 61 129 224 279 379 407 426 514 552 561 594 595
12 122 154 215 265 352 360 366 506 512 525 596 597
12 138 243 299 315 365 427 488 598 599 600 601 602
12 49 106 202 310 415 504 519 532 603 604 605 606
12 158 247 295 317 358 380 439 607 608 609 610 611
12 60 346 401 456 463 507 533 582 612 613 614 615
12 195 283 301 336 393 468 616 617 618 619 620 621
12 188 345 418 556 581 613 622 623 624 625 626 627
12 105 378 410 431 529 610 626 628 629 630 631 632
12 51 394 417 521 566 577 624 633 634 635 636 637
12 23 73 176 356 517 565 635 638 639 640 641 642
12 28 390 399 508 570 612 639 643 644 645 646 647
12 22 90 197 367 592 621 647 648 649 650 651 652
12 39 86 177 376 583 586 623 630 634 640 653 654
12 8 20 190 368 398 423 655 656 657 658 659 660
12 203 402 411 546 578 593 631 643 649 661 662 663
12 3 40 201 359 382 430 664 665 666 667 668 669
12 104 348 361 371 516 602 625 629 650 662 670 671
12 54 100 198 424 510 528 637 642 644 648 672 673
12 220 440 495 542 562 573 580 607 674 675 676 677
12 149 169 216 274 392 461 492 539 555 675 678 679
12 67 142 229 478 498 541 549 584 615 677 680 681
12 143 175 213 268 433 484 496 590 597 680 682 683
12 116 159 208 443 479 535 558 576 591 684 685 686
12 167 323 425 470 491 523 574 687 688 689 690 691
12 166 308 355 452 482 569 606 688 692 693 694 695
12 145 465 486 503 518 563 605 617 690 695 696 697
12 235 445 485 509 530 601 603 614 684 696 698 699
12 125 434 453 511 526 550 572 585 676 687 692 700
12 132 173 238 342 387 483 499 536 548 699 701 702
12 155 170 226 285 373 449 493 594 618 685 703 704
12 38 118 217 545 557 622 653 667 678 686 705 706
12 99 141 189 575 588 627 654 659 682 700 707 708
12 156 370 524 537 608 628 657 670 674 703 709 710
12 212 357 520 596 609 633 638 665 689 694 709 711
12 139 432 531 568 598 632 668 671 683 698 712 713
12 92 298 522 559 600 620 664 705 711 713 714 715
12 70 294 544 571 587 611 656 708 710 716 717 718
12 69 128 218 391 551 619 636 641 655 679 716 719
12 19 65 239 547 560 652 658 663 681 702 706 718
12 98 153 237 388 505 589 645 669 672 701 707 715
12 74 160 200 604 616 651 661 666 697 704 714 719
12 227 422 567 595 599 646 660 673 691 693 712 717
