# Generated using Miratope v0.5.0 (https://github.com/galoomba1/miratope-rs)
4OFF

# Vertices, Faces, Edges, Cells
120 2520 1200 720

# Vertices
0.809016994374945 -0.809016994374945 -0.809016994374945 0.809016994374945 
0 -1.61803398874989 0 0 
0 0 -1.61803398874989 0 
1.30901699437495 0.5 0 0.809016994374945 
-0.809016994374945 -0.809016994374945 -0.809016994374945 -0.809016994374945 
-0.809016994374945 0 0.5 -1.30901699437495 
0 -0.809016994374945 1.30901699437495 -0.5 
0.5 1.30901699437495 -0.809016994374945 0 
0.809016994374945 0.5 1.30901699437495 0 
0 1.30901699437495 0.5 -0.809016994374945 
0.809016994374945 0.809016994374945 -0.809016994374945 0.809016994374945 
-0.809016994374945 0.809016994374945 -0.809016994374945 0.809016994374945 
0.809016994374945 1.30901699437495 0 -0.5 
-0.809016994374945 -0.809016994374945 -0.809016994374945 0.809016994374945 
0.809016994374945 -1.30901699437495 0 -0.5 
-0.809016994374945 1.30901699437495 0 -0.5 
-0.809016994374945 -1.30901699437495 0 -0.5 
0.809016994374945 0 0.5 -1.30901699437495 
-0.809016994374945 -0.809016994374945 0.809016994374945 0.809016994374945 
-0.809016994374945 -0.809016994374945 0.809016994374945 -0.809016994374945 
0.5 0 1.30901699437495 0.809016994374945 
0.5 0 1.30901699437495 -0.809016994374945 
0.5 0 -1.30901699437495 0.809016994374945 
0.5 0 -1.30901699437495 -0.809016994374945 
1.30901699437495 0.5 0 -0.809016994374945 
0.809016994374945 0.809016994374945 -0.809016994374945 -0.809016994374945 
0.809016994374945 -0.809016994374945 -0.809016994374945 -0.809016994374945 
-0.809016994374945 0.809016994374945 -0.809016994374945 -0.809016994374945 
1.30901699437495 0.809016994374945 0.5 0 
1.30901699437495 -0.809016994374945 0.5 0 
-1.30901699437495 0.809016994374945 0.5 0 
-1.30901699437495 -0.809016994374945 0.5 0 
0 0.809016994374945 1.30901699437495 0.5 
0 -0.809016994374945 1.30901699437495 0.5 
0.809016994374945 -0.809016994374945 0.809016994374945 0.809016994374945 
0.809016994374945 -0.809016994374945 0.809016994374945 -0.809016994374945 
0 0.5 0.809016994374945 1.30901699437495 
0 0.5 -0.809016994374945 1.30901699437495 
0 0.5 0.809016994374945 -1.30901699437495 
0 0.5 -0.809016994374945 -1.30901699437495 
-0.5 1.30901699437495 0.809016994374945 0 
-0.5 1.30901699437495 -0.809016994374945 0 
0 0 0 1.61803398874989 
-1.61803398874989 0 0 0 
0 0.809016994374945 -1.30901699437495 -0.5 
0.5 -1.30901699437495 0.809016994374945 0 
1.30901699437495 -0.5 0 0.809016994374945 
-0.809016994374945 0 -0.5 -1.30901699437495 
1.30901699437495 0 -0.809016994374945 -0.5 
0.5 -0.809016994374945 0 -1.30901699437495 
-0.809016994374945 0.809016994374945 0.809016994374945 -0.809016994374945 
0 0 0 -1.61803398874989 
0.5 -1.30901699437495 -0.809016994374945 0 
-0.809016994374945 0 0.5 1.30901699437495 
1.30901699437495 -0.5 0 -0.809016994374945 
1.30901699437495 0 0.809016994374945 0.5 
0.5 -0.809016994374945 0 1.30901699437495 
0 1.61803398874989 0 0 
-1.30901699437495 -0.5 0 0.809016994374945 
0 0.809016994374945 1.30901699437495 -0.5 
-0.5 -1.30901699437495 -0.809016994374945 0 
-0.809016994374945 -0.5 1.30901699437495 0 
0 -1.30901699437495 0.5 -0.809016994374945 
0.809016994374945 0.809016994374945 0.809016994374945 0.809016994374945 
1.61803398874989 0 0 0 
0 -0.809016994374945 -1.30901699437495 -0.5 
0.809016994374945 0 -0.5 -1.30901699437495 
-1.30901699437495 0.5 0 0.809016994374945 
-0.5 0.809016994374945 0 -1.30901699437495 
-1.30901699437495 0 -0.809016994374945 -0.5 
0 0 1.61803398874989 0 
-0.809016994374945 0 -0.5 1.30901699437495 
0.5 1.30901699437495 0.809016994374945 0 
0 -0.809016994374945 -1.30901699437495 0.5 
0 1.30901699437495 -0.5 0.809016994374945 
0.809016994374945 0.5 -1.30901699437495 0 
0.809016994374945 0 0.5 1.30901699437495 
-1.30901699437495 0.5 0 -0.809016994374945 
-0.5 0.809016994374945 0 1.30901699437495 
-1.30901699437495 0 0.809016994374945 0.5 
-0.809016994374945 0.809016994374945 0.809016994374945 0.809016994374945 
0 -0.5 0.809016994374945 1.30901699437495 
0 -0.5 0.809016994374945 -1.30901699437495 
0 -0.5 -0.809016994374945 1.30901699437495 
0 -0.5 -0.809016994374945 -1.30901699437495 
1.30901699437495 0.809016994374945 -0.5 0 
1.30901699437495 -0.809016994374945 -0.5 0 
-1.30901699437495 0.809016994374945 -0.5 0 
-1.30901699437495 -0.809016994374945 -0.5 0 
0.809016994374945 0.809016994374945 0.809016994374945 -0.809016994374945 
-0.5 0 1.30901699437495 0.809016994374945 
-0.5 0 1.30901699437495 -0.809016994374945 
-0.5 0 -1.30901699437495 0.809016994374945 
-0.5 0 -1.30901699437495 -0.809016994374945 
-1.30901699437495 -0.5 0 -0.809016994374945 
0.809016994374945 1.30901699437495 0 0.5 
0.809016994374945 -1.30901699437495 0 0.5 
-0.809016994374945 1.30901699437495 0 0.5 
-0.809016994374945 -1.30901699437495 0 0.5 
0.809016994374945 0 -0.5 1.30901699437495 
0 0.809016994374945 -1.30901699437495 0.5 
-0.5 -1.30901699437495 0.809016994374945 0 
0 -1.30901699437495 -0.5 0.809016994374945 
-0.809016994374945 -0.5 -1.30901699437495 0 
0.5 0.809016994374945 0 -1.30901699437495 
0 -1.30901699437495 0.5 0.809016994374945 
1.30901699437495 0 0.809016994374945 -0.5 
-0.809016994374945 0.5 -1.30901699437495 0 
0 1.30901699437495 0.5 0.809016994374945 
-0.5 -0.809016994374945 0 -1.30901699437495 
1.30901699437495 0 -0.809016994374945 0.5 
-0.809016994374945 0.5 1.30901699437495 0 
0 1.30901699437495 -0.5 -0.809016994374945 
-0.5 -0.809016994374945 0 1.30901699437495 
0.809016994374945 -0.5 1.30901699437495 0 
-1.30901699437495 0 -0.809016994374945 0.5 
0.5 0.809016994374945 0 1.30901699437495 
0 -1.30901699437495 -0.5 -0.809016994374945 
0.809016994374945 -0.5 -1.30901699437495 0 
-1.30901699437495 0 0.809016994374945 -0.5 

# Faces
4 0 2 4 1
5 0 1 6 8 3
4 2 0 3 7
4 4 1 6 5
5 7 2 4 5 9
4 8 9 7 3
4 8 9 5 6
4 0 13 11 10
5 12 10 0 14 17
4 10 11 15 12
4 0 14 16 13
5 11 15 5 16 13
4 12 15 5 17
4 17 14 16 5
4 18 13 4 19
4 18 19 21 20
5 18 20 3 22 13
5 21 19 4 23 24
4 13 4 23 22
4 20 3 24 21
4 3 22 23 24
4 25 26 4 27
4 25 26 29 28
5 27 25 28 32 30
5 26 4 31 33 29
4 27 4 31 30
4 28 32 33 29
4 33 32 30 31
4 34 0 26 35
4 34 36 37 0
5 34 35 38 40 36
5 0 37 41 39 26
4 35 26 39 38
4 36 40 41 37
4 41 40 38 39
4 42 18 43 11
5 46 42 11 44 48
4 11 44 47 43
4 42 46 45 18
5 18 43 47 49 45
4 46 45 49 48
4 48 49 47 44
4 43 4 51 50
4 43 50 32 53
5 51 54 55 32 50
5 43 53 56 52 4
4 51 54 52 4
4 32 53 56 55
4 56 52 54 55
4 57 11 2 25
4 25 17 59 57
5 2 60 62 17 25
5 57 59 61 58 11
4 2 11 58 60
4 59 61 62 17
4 61 62 60 58
4 64 0 42 63
5 64 66 68 40 63
4 42 67 40 63
4 64 66 65 0
5 67 42 0 65 69
4 40 68 69 67
4 68 66 65 69
4 35 1 18 70
4 35 24 72 70
5 35 1 73 75 24
5 70 72 74 71 18
4 1 73 71 18
4 74 72 24 75
4 74 75 73 71
4 25 64 35 51
5 64 76 78 41 25
4 25 41 77 51
4 64 35 33 76
5 35 51 77 79 33
4 76 33 79 78
4 41 77 79 78
4 80 11 27 50
5 80 50 82 45 81
4 11 80 81 83
4 50 27 84 82
5 11 27 84 52 83
4 83 52 45 81
4 45 52 84 82
4 34 63 80 18
4 63 85 86 34
5 85 63 80 87 44
5 34 18 88 65 86
4 18 80 87 88
4 85 44 65 86
4 87 44 65 88
4 63 89 25 10
4 63 90 91 89
5 10 92 58 90 63
5 91 89 25 93 94
4 10 25 93 92
4 91 94 58 90
4 58 92 93 94
4 89 50 19 35
5 89 35 96 99 95
4 50 89 95 97
4 35 19 98 96
5 50 19 98 71 97
4 95 99 71 97
4 71 99 96 98
4 57 63 70 50
4 57 100 99 63
5 70 63 99 102 101
5 57 50 94 103 100
4 70 50 94 101
4 99 100 103 102
4 101 102 103 94
4 27 43 13 2
5 27 43 61 21 104
4 27 104 48 2
4 43 61 105 13
5 48 2 13 105 29
4 29 21 104 48
4 29 105 61 21
4 42 34 1 13
5 42 34 106 12 74
4 1 34 106 49
4 42 13 107 74
5 1 49 39 107 13
4 106 12 39 49
4 12 74 107 39
4 64 26 2 10
4 64 10 108 8
5 2 10 108 30 69
5 26 64 8 91 109
4 2 69 109 26
4 8 91 30 108
4 91 30 69 109
4 26 1 19 51
4 1 26 110 56
5 26 110 95 9 51
5 1 56 36 111 19
4 19 51 9 111
4 95 110 56 36
4 36 111 9 95
4 64 89 70 34
4 64 75 112 89
5 70 79 87 112 89
5 34 113 92 75 64
4 70 79 113 34
4 79 87 92 113
4 112 75 92 87
4 89 51 27 57
5 57 78 81 114 89
4 51 62 114 89
4 57 27 115 78
5 115 27 51 62 98
4 114 62 98 81
4 81 78 115 98
4 70 19 43 80
4 70 80 116 55
5 80 43 103 22 116
5 70 19 117 86 55
4 19 43 103 117
4 116 55 86 22
4 86 117 103 22
4 10 57 80 42
5 10 57 68 84 118
4 42 102 118 10
4 80 119 68 57
5 80 119 16 102 42
4 119 16 84 68
4 118 84 16 102
4 19 45 106 38
4 45 102 88 19
5 19 88 107 112 38
4 85 112 38 106
5 85 106 45 102 22
4 85 22 107 112
4 102 88 107 22
4 89 25 110 55
4 89 55 33 91
4 110 25 93 73
5 55 33 98 73 110
4 91 33 98 94
4 94 98 73 93
4 64 114 59 12
4 64 118 44 12
5 64 114 101 60 118
5 119 59 12 44 69
4 59 114 101 119
4 119 101 60 69
4 44 118 60 69
5 114 28 10 83 105
4 28 10 44 104
4 10 44 103 83
4 114 82 104 28
4 114 82 16 105
4 105 16 103 83
5 104 82 16 103 44
4 57 50 21 28
4 50 21 62 94
4 57 28 110 100
5 110 52 62 21 28
4 100 110 52 103
4 62 94 103 52
4 50 72 20 61
5 72 85 23 47 50
4 50 61 16 47
4 20 72 85 46
5 20 61 16 52 46
4 85 46 52 23
4 23 47 16 52
4 35 109 68 89
4 89 68 41 95
4 96 60 109 35
4 99 95 41 92
4 96 99 92 60
5 92 41 68 109 60
4 63 70 38 12
4 63 12 75 99
4 70 101 109 38
5 75 65 109 38 12
4 99 75 65 102
4 101 109 65 102
4 19 70 40 77
4 19 117 93 77
4 70 55 95 40
4 95 55 86 75
5 40 77 93 75 95
4 117 93 75 86
4 21 51 112 72
4 21 45 117 51
5 112 51 117 73 100
5 56 116 72 21 45
4 116 100 112 72
4 116 56 73 100
4 56 45 117 73
4 46 22 74 63
5 63 59 82 14 46
4 63 59 15 74
4 46 22 65 14
5 22 74 15 47 65
4 15 59 82 47
4 14 65 47 82
4 10 57 32 76
4 10 118 96 76
4 32 57 68 91
5 32 91 62 96 76
4 91 68 84 62
4 96 118 84 62
4 34 6 17 64
4 34 6 31 113
4 64 17 39 75
4 113 31 69 92
5 17 6 31 69 39
4 92 75 39 69
4 34 18 111 8
4 34 8 24 86
4 111 18 88 77
5 8 111 77 39 24
4 24 86 65 39
4 39 65 88 77
4 1 31 91 35
4 35 91 9 24
4 1 31 115 73
4 24 9 41 75
5 9 91 31 115 41
4 73 115 41 75
4 27 51 24 7
4 115 37 7 27
4 51 24 29 62
5 24 7 37 56 29
4 62 29 56 98
4 98 56 37 115
5 43 107 7 72 111
4 43 16 6 111
4 107 43 16 65
4 72 106 6 111
4 106 72 7 48
5 106 6 16 65 48
4 48 7 107 65
4 0 48 28 76
5 76 90 31 60 0
4 48 84 60 0
4 76 90 59 28
5 28 48 84 5 59
4 90 31 5 59
4 5 31 60 84
4 11 27 9 108
4 83 76 108 11
4 9 27 84 17
5 29 76 108 9 17
4 52 29 76 83
4 52 29 17 84
4 108 7 22 42
5 42 108 59 6 105
4 22 42 105 52
4 108 7 104 59
4 6 59 104 49
5 7 104 49 52 22
4 105 52 49 6
4 97 111 5 27
5 97 116 110 23 27
4 27 5 49 23
4 116 110 29 20
4 20 116 97 111
5 20 29 49 5 111
4 110 23 49 29
4 2 25 95 37
4 25 17 8 95
4 60 113 37 2
5 95 37 113 33 8
4 62 33 8 17
4 33 62 60 113
4 77 38 49 4
5 77 97 37 73 4
4 4 49 86 73
4 3 72 97 37
5 3 72 38 49 86
4 37 73 86 3
4 72 38 77 97
4 34 3 108 90
4 3 48 14 34
5 90 119 109 14 34
5 108 3 48 39 15
4 90 119 15 108
4 48 14 109 39
4 15 119 109 39
4 70 45 54 89
4 112 23 54 89
4 79 98 45 70
5 54 23 103 98 45
4 112 87 103 23
4 79 98 103 87
5 25 100 83 96 54
4 25 54 82 68
4 100 87 68 25
4 54 82 101 96
4 96 83 58 101
4 83 58 87 100
5 87 68 82 101 58
4 106 46 81 70
5 119 70 106 66 47
4 70 119 58 81
4 46 118 66 106
5 46 81 58 103 118
4 58 103 47 119
4 118 66 47 103
4 89 57 44 66
4 89 114 14 66
4 78 57 44 92
4 114 14 102 81
4 81 102 92 78
5 66 14 102 92 44
4 50 87 93 51
4 50 87 78 32
4 54 118 93 51
4 55 32 78 99
4 55 54 118 99
5 78 87 93 118 99
4 80 50 112 74
4 80 74 99 81
4 50 82 66 112
5 99 86 66 112 74
4 81 99 86 45
4 45 82 66 86
4 55 85 66 35
4 35 101 81 55
5 66 93 88 101 35
5 85 100 71 81 55
4 85 66 93 100
4 81 71 88 101
4 100 93 88 71
4 64 96 81 63
4 63 40 79 81
4 64 96 117 66
4 40 79 94 68
5 81 96 117 94 79
4 68 94 117 66
4 89 40 74 85
5 89 85 118 117 82
4 89 82 119 40
4 85 118 92 74
5 40 119 88 92 74
4 82 117 88 119
4 92 88 117 118
5 116 46 54 104 57
4 57 116 71 87
4 57 87 47 104
4 116 71 102 46
4 46 54 117 102
4 104 54 117 47
5 71 102 117 47 87
4 63 80 61 114
4 85 54 114 63
4 80 87 94 61
4 85 54 84 44
5 114 54 84 94 61
4 87 44 84 94
4 89 32 116 85
4 82 61 32 89
5 61 32 116 83 98
4 116 85 118 83
4 61 82 117 98
4 83 118 117 98
4 96 26 17 114
5 96 113 115 93 26
4 17 26 93 68
4 90 114 96 113
5 30 90 114 17 68
4 113 90 30 115
4 68 93 115 30
5 18 6 38 15 67
4 102 18 6 14
4 92 67 18 102
4 92 67 15 44
4 44 15 38 66
4 6 14 66 38
4 51 23 86 35
4 33 56 86 35
4 77 51 23 107
4 56 33 79 71
5 56 86 23 107 71
4 79 77 107 71
4 96 55 24 26
4 26 24 112 93
5 36 97 112 24 55
4 96 55 36 113
4 97 115 113 36
4 97 115 93 112
4 36 70 106 3
4 119 67 36 70
5 67 36 3 75 107
4 106 3 75 66
4 67 119 47 107
4 47 107 75 66
4 10 78 113 0
4 10 12 40 78
4 0 113 101 14
4 12 17 91 40
5 40 78 113 101 91
4 14 101 91 17
5 11 53 20 28 7
4 53 98 103 11
4 103 11 7 23
4 54 28 20 45
4 54 28 7 23
4 98 53 20 45
4 57 116 53 30
4 57 30 5 104
4 116 46 105 53
4 46 105 62 54
5 30 5 62 105 53
4 54 62 5 104
4 80 59 5 43
4 80 59 28 116
4 43 5 84 103
4 22 48 28 116
4 103 84 48 22
4 25 84 14 64
4 41 69 84 25
4 64 76 105 14
4 76 78 58 105
4 41 78 58 69
5 105 58 69 84 14
4 4 19 79 115
4 19 79 32 21
4 4 23 100 115
4 32 21 24 95
5 32 95 100 115 79
4 95 24 23 100
4 42 3 72 80
4 72 80 119 38
4 86 102 42 3
4 86 102 16 49
4 49 16 119 38
5 80 20 106 104 15
4 20 56 71 80
4 107 15 80 71
4 106 86 56 20
4 86 23 104 106
4 23 104 15 107
4 25 54 21 9
4 25 100 97 9
5 97 9 21 33 53
4 83 53 97 100
4 33 96 83 53
4 96 33 21 54
4 90 42 11 30
4 11 30 68 44
4 42 90 114 46
4 46 114 17 48
4 68 44 48 17
4 20 105 58 80
4 15 69 58 80
4 20 105 14 106
4 14 106 104 84
4 84 104 15 69
5 110 2 115 53 76
4 84 2 110 54
4 115 94 84 2
4 114 76 110 54
4 114 76 53 61
4 53 61 94 115
4 104 50 19 49
4 104 50 97 7
4 98 52 49 19
4 7 97 71 22
4 52 98 71 22
4 35 8 12 66
4 35 8 90 101
5 12 41 67 90 8
4 93 41 12 66
4 101 90 67 88
4 88 67 41 93
4 1 86 99 113
4 86 1 109 66
5 113 67 77 109 1
4 99 113 67 74
4 112 77 67 74
4 66 112 77 109
4 64 99 73 26
4 26 109 88 73
4 8 36 99 64
4 8 36 79 91
5 99 73 88 79 36
4 91 79 88 109
4 18 36 97 43
4 55 45 18 36
4 97 43 47 112
4 55 45 49 24
4 112 47 49 24
4 10 48 106 63
4 106 63 90 6
4 92 65 48 10
4 6 90 58 16
4 58 16 65 92
4 51 26 60 94
4 26 60 83 110
4 51 94 30 9
4 110 83 78 95
4 78 95 9 30
5 30 78 83 60 94
4 13 67 41 2
4 105 90 67 13
4 41 2 48 12
4 29 8 12 48
4 8 29 105 90
4 56 18 6 29
4 67 37 56 18
4 6 29 24 38
4 7 15 38 24
4 7 15 67 37
4 39 2 110 24
4 2 39 77 115
4 24 110 76 8
4 111 53 76 8
4 111 53 115 77
4 53 13 1 33
4 13 53 97 107
4 49 21 33 1
4 39 9 97 107
4 39 9 21 49
4 29 0 42 20
4 49 65 0 29
4 111 67 42 20
4 69 5 111 67
4 65 49 5 69
4 62 26 0 105
4 53 37 0 105
4 39 5 62 26
4 30 41 37 53
4 41 30 5 39
4 69 11 53 31
4 11 69 39 7
4 17 28 20 6
4 39 7 28 17
4 20 6 31 53
4 39 4 43 15
4 52 48 39 4
4 108 53 43 15
4 3 56 53 108
4 52 48 3 56
5 108 37 13 31 111
4 52 13 37 110
4 31 62 52 13
4 28 108 37 110
4 28 108 111 21
4 21 111 31 62
4 29 1 113 76
4 109 17 29 1
4 108 67 113 76
4 77 9 108 67
4 17 109 77 9
4 26 75 107 4
4 26 75 3 29
4 107 4 31 67
4 29 3 36 33
4 36 33 31 67
4 65 13 37 75
4 13 65 109 31
4 111 38 12 108
4 108 12 75 37
4 31 109 38 111
4 43 71 100 27
4 85 104 27 100
4 61 81 71 43
4 55 21 104 85
4 21 55 81 61
4 25 118 103 27
4 118 25 28 46
4 30 58 103 27
4 28 46 81 32
4 32 81 58 30
4 11 22 85 57
4 58 102 22 11
4 57 85 106 59
4 106 59 61 45
4 58 102 45 61
4 42 58 101 34
4 34 101 82 106
4 87 74 42 58
4 68 12 106 82
4 68 12 74 87
4 114 32 95 64
4 100 118 64 95
4 101 79 32 114
4 101 79 115 60
4 60 115 100 118
4 79 50 72 36
4 79 50 47 88
4 85 99 36 72
4 85 99 73 23
4 47 88 73 23
4 117 35 34 102
4 36 71 102 34
4 47 38 35 117
4 71 36 40 87
4 38 47 87 40
4 51 91 40 112
4 117 101 91 51
4 112 40 78 100
4 100 78 113 73
4 101 117 73 113
4 34 99 78 90
4 99 34 14 118
4 119 87 78 90
4 87 119 109 93
4 14 118 93 109
4 70 82 16 18
4 18 16 103 71
4 82 70 72 104
4 44 74 72 104
4 71 103 44 74
4 63 78 83 46
4 59 30 78 63
4 46 83 60 14
4 59 30 94 82
4 94 82 14 60
4 27 94 79 97
4 94 27 23 117
4 110 96 81 116
4 116 81 79 97
4 117 23 110 96
4 28 9 41 10
4 115 83 10 41
4 91 114 28 9
4 114 91 31 105
4 115 83 105 31
4 13 69 119 18
4 18 119 59 20
4 44 22 13 69
4 12 3 20 59
4 44 22 3 12
4 98 43 111 33
4 107 73 98 43
4 55 72 7 110
4 33 111 72 55
4 107 73 110 7
4 19 33 8 38
4 33 19 88 113
4 112 95 8 38
4 37 107 112 95
4 113 88 107 37
4 0 92 88 1
4 92 0 3 74
4 6 119 88 1
4 74 3 8 40
4 119 6 8 40
4 76 95 75 0
4 75 0 60 93
4 95 76 90 40
4 77 31 90 40
4 93 60 31 77
4 116 11 13 56
4 116 11 15 72
4 56 13 16 45
4 72 15 5 21
4 5 21 45 16
4 98 4 2 83
4 4 98 61 5
4 83 2 7 116
4 9 32 116 7
4 9 32 61 5
4 46 10 2 52
4 20 108 10 46
4 69 16 52 2
4 61 30 108 20
4 16 69 30 61
4 42 92 41 108
4 105 60 92 42
4 41 108 59 68
4 6 109 68 59
4 105 60 109 6
4 77 91 62 4
4 73 96 62 4
4 37 76 32 97
4 76 37 73 96
4 77 91 32 97
4 47 19 1 65
4 111 15 47 19
4 22 56 1 65
4 111 15 74 36
4 56 22 74 36
5 102 14 0 1 86
4 0 14 84 2
4 23 4 1 86
5 4 23 103 84 2
4 102 86 23 103
4 103 102 14 84
5 75 0 10 118 99
4 11 103 118 10
4 0 75 107 13
5 13 11 103 71 107
4 71 107 75 99
4 99 118 103 71
4 19 117 102 18
5 18 102 58 105 13
5 19 117 94 62 4
4 13 4 62 105
4 62 94 58 105
4 94 58 102 117
4 25 68 109 26
5 27 104 44 68 25
5 26 4 49 65 109
4 4 49 104 27
4 44 65 49 104
4 65 109 68 44
4 0 48 106 34
5 34 35 55 45 106
5 26 110 52 48 0
4 35 55 110 26
4 45 55 110 52
4 45 52 48 106
5 11 42 92 78 83
4 11 83 98 43
4 42 92 88 18
5 79 88 18 43 98
4 79 78 83 98
4 78 92 88 79
4 50 82 16 43
5 50 51 91 68 82
5 31 69 16 43 4
4 4 51 91 31
4 68 69 31 91
4 69 16 82 68
4 25 93 87 57
5 25 2 39 75 93
5 15 74 87 57 11
4 15 39 2 11
4 74 75 39 15
4 75 93 87 74
5 63 85 55 95 64
4 63 42 22 85
4 0 64 95 37
5 37 0 42 22 56
4 56 55 95 37
4 56 22 85 55
4 70 81 96 35
5 35 96 62 29 1
5 20 61 81 70 18
4 18 20 29 1
4 61 62 29 20
4 62 61 81 96
5 28 48 12 64 25
4 28 25 51 21
4 35 64 12 38
5 35 38 49 21 51
4 48 28 21 49
4 48 12 38 49
5 50 79 40 119 80
4 80 11 69 119
4 27 115 79 50
5 115 27 11 69 41
4 40 41 115 79
4 119 40 41 69
4 34 113 78 63
5 32 116 80 63 78
5 113 34 18 56 33
4 80 116 56 18
4 56 33 32 116
4 32 33 113 78
4 63 89 112 74
5 10 108 3 74 63
5 89 112 24 9 25
4 108 10 25 9
4 24 3 108 9
4 74 3 24 112
5 8 35 89 114 17
4 50 89 114 61
4 111 19 35 8
5 19 111 5 61 50
4 111 5 17 8
4 114 17 5 61
4 90 63 57 30
5 90 8 36 70 63
5 97 50 57 30 9
4 97 50 70 36
4 8 36 97 9
4 8 90 30 9
5 43 47 87 94 27
4 60 2 27 94
4 47 65 13 43
5 2 13 65 92 60
4 87 92 60 94
4 92 65 47 87
5 81 46 42 34 99
4 73 99 34 1
4 42 13 52 46
5 73 1 13 52 98
4 98 52 46 81
4 98 73 99 81
4 64 66 44 10
5 2 7 22 44 10
5 24 26 64 66 86
4 7 24 26 2
4 22 7 24 86
4 66 86 22 44
4 6 17 26 1
5 51 26 17 84 54
5 6 16 45 19 1
4 51 19 45 54
4 84 54 45 16
4 17 84 16 6
4 64 76 32 89
5 70 72 21 32 89
5 76 29 3 34 64
4 70 72 3 34
4 21 29 3 72
4 32 21 29 76
5 57 59 12 40 89
4 51 77 40 89
4 57 59 5 27
5 51 27 5 39 77
4 39 77 40 12
4 12 39 5 59
4 101 70 80 58
5 53 43 80 58 30
5 101 91 33 19 70
4 53 43 19 33
4 91 33 53 30
4 58 30 91 101
5 41 10 57 100 95
4 67 42 10 41
4 100 57 80 71
5 67 36 71 80 42
4 36 95 41 67
4 71 36 95 100
5 88 93 115 4 107
4 4 115 83 52
4 52 22 107 4
4 118 93 115 83
5 102 22 52 83 118
4 102 88 93 118
4 109 1 13 69
4 84 52 13 69
4 1 109 93 73
4 94 84 52 98
5 94 84 69 109 93
4 26 39 107 73
5 73 117 118 60 26
4 26 60 69 39
4 44 118 117 47
5 107 47 44 69 39
4 117 47 107 73
5 113 96 83 105 0
4 65 0 113 88
4 0 105 16 65
4 117 96 113 88
4 117 96 83 103
5 88 117 103 16 65
4 26 93 92 0
4 48 0 92 44
4 110 100 93 26
4 44 103 52 48
5 92 44 103 100 93
4 52 62 51 23
5 51 23 47 66 93
4 62 51 93 60
4 14 66 47 16
4 14 60 93 66
5 14 60 62 52 16
4 13 56 110 2
4 86 65 13 56
4 2 60 96 110
5 99 96 110 56 86
4 86 99 92 65
4 26 96 98 4
4 109 26 96 101
4 45 98 4 49
5 102 101 96 98 45
4 45 49 65 102
4 2 52 54 25
4 93 117 54 25
4 49 52 2 39
4 49 86 75 39
5 117 54 52 49 86
4 56 29 26 73
4 29 105 60 26
5 46 105 29 56 45
4 46 45 117 118
4 46 118 60 105
4 64 75 73 96
5 96 64 14 46 54
4 65 75 64 14
4 23 54 46 22
4 23 73 96 54
5 22 65 75 73 23
4 35 66 65 1
4 96 118 66 35
4 29 1 65 48
4 62 29 48 84
5 84 48 65 66 118
4 4 73 71 43
4 31 4 73 113
4 16 102 71 43
5 92 102 71 73 113
4 16 69 92 102
4 51 117 103 27
4 16 103 27 5
4 77 88 117 51
4 39 5 16 65
4 23 27 11 22
4 65 69 11 22
4 115 27 23 73
4 75 65 69 41
4 58 42 0 60
4 0 37 115 60
4 22 103 58 42
4 22 56 98 103
5 58 103 98 115 60
5 27 100 112 107 7
4 27 84 48 7
4 27 84 118 100
4 118 100 112 66
4 107 65 66 112
4 31 1 49 5
5 101 88 1 31 60
4 49 1 88 47
4 82 47 88 101
4 60 84 82 101
5 84 82 47 49 5
4 64 118 102 34
4 3 34 102 22
4 64 118 83 76
4 22 52 29 3
4 34 6 49 86
4 86 34 101 117
5 6 105 114 101 34
4 52 105 114 54
4 101 117 54 114
4 25 110 29 17
5 110 23 85 118 25
4 17 25 118 14
4 85 118 14 106
4 49 23 85 106
5 17 29 49 106 14
4 34 14 16 18
4 113 34 14 60
4 56 18 16 52
4 52 56 33 62
4 37 2 48 3
5 73 37 2 83 100
4 46 83 2 48
5 86 85 46 48 3
4 100 85 46 83
4 86 73 100 85
4 35 109 39 24
4 24 23 117 35
5 14 109 35 117 82
5 48 39 24 23 104
4 104 82 14 48
4 104 23 117 82
4 4 77 41 2
4 4 77 112 23
4 84 2 41 68
5 41 68 87 112 77
4 84 103 87 68
4 67 37 2 69
4 2 83 58 69
4 67 37 73 88
5 67 88 87 58 69
4 88 73 100 87
4 98 19 77 115
5 109 77 19 47 119
4 103 98 19 47
4 109 60 58 119
4 60 115 77 109
4 0 76 33 1
4 0 76 114 14
4 86 55 33 1
5 76 114 81 55 33
4 55 81 102 86
4 29 0 10 28
4 118 10 28 54
4 29 24 75 0
5 28 54 55 24 29
4 75 99 55 24
4 26 62 114 64
4 24 21 62 26
4 114 64 66 82
5 82 114 62 21 45
4 24 21 45 86
4 56 1 31 53
4 71 56 1 88
5 81 83 53 56 71
4 81 101 60 83
4 83 60 31 53
4 19 38 39 4
4 19 38 66 117
4 17 39 4 62
4 62 94 68 17
5 68 17 39 38 66
4 41 37 110 25
4 25 118 92 41
4 85 74 107 23
5 41 92 74 107 37
4 23 110 37 107
5 116 110 76 10 46
4 92 10 76 113
4 92 10 46 102
4 110 76 113 73
4 71 116 110 73
4 26 75 112 51
4 17 12 75 26
4 51 112 85 54
5 75 12 44 85 112
4 12 44 84 17
4 35 33 31 109
4 33 98 117 35
5 105 31 33 98 61
4 61 82 14 105
4 14 109 31 105
4 5 30 115 4
4 5 15 107 4
4 88 119 15 107
5 15 119 68 30 5
4 68 93 88 119
5 77 67 15 43 97
4 100 97 43 103
4 103 44 15 43
4 77 97 100 93
4 93 77 67 92
4 31 13 11 30
4 94 30 11 103
4 13 107 77 31
4 94 103 71 79
5 77 31 30 94 79
4 36 3 0 113
4 3 0 105 20
5 3 36 55 116 20
4 83 116 55 96
4 116 83 105 20
4 95 110 54 89
4 95 89 66 75
5 89 66 106 104 54
4 3 7 104 106
5 7 110 95 75 3
4 104 54 110 7
4 19 49 106 70
4 29 33 19 49
4 101 70 106 14
4 33 29 17 91
5 53 76 90 42 20
4 42 20 45 102
4 102 42 90 101
4 76 90 101 96
4 96 98 53 76
4 91 62 54 89
4 91 109 66 89
4 6 5 104 106
4 106 66 109 6
5 6 109 91 62 5
4 99 64 25 100
4 28 116 100 25
4 12 74 99 64
5 116 100 99 74 22
4 74 22 48 12
4 18 36 37 13
4 102 18 36 99
4 13 105 76 37
5 76 37 36 99 78
4 99 102 58 78
4 57 104 48 10
4 39 48 10 41
4 100 57 104 23
4 41 95 24 39
4 101 35 51 94
4 101 35 38 119
4 21 51 94 61
4 21 49 16 61
5 16 119 101 94 61
5 20 28 114 63 106
4 63 106 86 99
4 99 96 114 63
4 56 20 28 110
4 114 96 110 28
4 8 64 96 33
4 6 14 64 8
5 8 33 21 20 6
4 20 21 54 46
4 20 6 14 46
4 86 35 89 85
4 85 89 114 46
4 3 86 35 8
4 8 17 48 3
5 112 50 104 15 38
4 94 50 112 93
4 84 94 50 104
4 38 109 69 15
4 112 93 109 38
5 113 115 53 13 67
4 16 61 53 13
4 119 16 13 67
4 119 67 113 101
4 113 101 94 115
4 10 78 115 2
4 87 44 10 78
4 97 7 2 115
5 97 115 78 87 71
4 87 44 22 71
4 9 7 23 51
4 51 9 41 93
5 9 41 12 15 7
4 15 47 66 12
4 47 23 7 15
4 22 116 53 13
4 13 67 74 22
4 116 100 115 53
4 115 100 99 113
4 18 6 5 43
4 18 6 109 88
4 5 62 98 43
4 98 79 91 62
4 82 89 25 84
4 89 82 47 112
4 9 25 84 5
4 5 9 24 49
4 1 113 79 19
4 81 79 19 45
4 1 113 90 6
5 58 90 113 79 81
4 45 16 58 81
4 7 11 42 3
4 11 7 110 83
4 92 42 3 75
4 75 92 78 95
4 45 70 63 46
4 63 90 105 46
4 56 45 70 36
4 56 36 8 29
4 70 55 24 38
4 54 82 70 55
5 82 70 38 6 59
4 29 6 59 28
4 82 54 28 59
4 10 12 8 76
4 106 12 10 46
5 72 106 12 8 24
4 72 106 46 116
4 72 116 110 24
4 44 57 50 47
4 50 47 107 97
4 69 30 57 44
4 30 69 39 9
4 50 87 88 19
4 58 87 50 61
4 111 67 88 19
4 69 58 61 5
4 107 43 80 74
4 58 80 74 92
4 43 107 37 53
4 92 58 30 41
5 72 7 28 57 85
4 57 28 17 68
4 66 85 57 68
4 85 66 38 72
4 72 38 39 7
4 63 81 83 10
4 71 81 63 74
4 83 10 108 53
4 71 56 3 74
4 45 18 111 21
5 18 119 90 31 111
4 18 119 82 45
4 82 119 90 114
4 62 31 90 114
4 21 9 77 19
4 21 19 47 104
5 59 104 21 9 17
4 59 119 109 17
4 59 104 47 119
4 42 105 61 80
4 61 98 71 80
4 67 31 105 42
4 33 98 71 36
5 11 116 97 37 108
4 44 85 116 11
4 11 108 12 44
4 116 85 112 97
4 112 97 37 75
4 63 59 17 64
4 63 85 104 59
4 17 9 95 64
4 9 95 55 21
4 8 34 42 108
4 99 34 8 95
4 42 108 28 46
5 8 95 32 28 108
4 99 81 32 95
4 34 90 91 35
4 59 106 34 90
4 55 35 91 32
4 32 61 45 55
5 91 90 59 61 32
4 51 24 72 50
4 50 72 106 82
4 91 51 24 8
4 91 68 12 8
4 34 6 111 36
4 36 79 101 34
4 53 105 114 32
5 32 79 36 111 53
4 6 111 53 105
4 78 57 28 76
4 57 85 99 78
4 37 76 28 7
4 37 7 72 36
4 43 111 9 27
4 91 9 27 94
4 47 38 111 43
5 40 91 9 111 38
4 94 87 40 91
4 30 108 7 27
4 30 78 100 27
4 7 108 67 107
5 40 67 108 30 78
4 67 107 112 40
4 18 111 97 71
4 71 87 119 18
4 115 31 90 78
4 115 97 111 31
4 27 97 95 25
4 40 95 25 68
4 104 72 97 27
5 72 97 95 40 74
4 68 40 74 44
4 79 77 38 70
4 70 82 94 79
4 6 31 30 59
4 38 6 31 77
4 58 11 116 81
4 58 90 108 11
4 37 108 90 113
4 79 97 37 113
4 38 40 63 106
4 63 114 91 40
4 111 20 28 9
4 20 106 38 111
4 116 57 89 55
4 89 40 36 55
4 59 20 116 57
4 40 36 3 12
5 72 80 59 108 111
4 81 80 72 55
4 81 80 59 114
4 59 108 76 114
4 76 33 111 108
4 32 50 112 95
4 32 50 104 28
4 28 108 15 104
4 8 38 15 108
4 80 20 21 50
4 119 6 20 80
4 21 33 79 50
4 33 79 40 8
4 74 42 20 72
4 74 42 90 40
4 97 53 76 95
4 20 53 97 72
4 70 119 68 89
4 30 68 89 32
4 70 119 15 72
4 30 5 21 32
4 63 12 15 80
4 63 78 41 12
4 116 7 15 80
4 78 32 9 41
4 70 40 67 18
4 67 18 20 108
4 81 70 40 78
4 81 61 30 78
4 87 80 72 112
4 80 59 68 87
4 72 111 77 112
4 41 108 111 77
4 43 97 32 61
4 59 61 43 15
4 15 67 90 59
4 90 67 77 91
4 53 11 57 32
4 15 111 53 11
4 79 32 57 87
4 79 87 74 36
4 2 4 51 25
5 28 76 83 2 25
5 98 4 51 21 33
4 21 33 76 28
4 76 83 98 33
4 11 27 4 13
5 27 104 28 116 11
5 29 49 4 13 56
4 28 116 56 29
4 104 28 29 49
4 19 35 26 4
5 35 19 79 36 55
5 26 110 37 115 4
4 55 36 37 110
4 37 36 79 115
4 25 89 50 27
5 118 25 89 114 96
5 103 27 50 61 98
4 114 96 98 61
4 98 96 118 103
4 26 0 10 25
5 108 10 0 105 90
5 62 26 25 9 91
4 91 9 108 90
4 91 62 105 90
4 1 18 43 4
5 18 36 3 86 1
5 4 23 7 97 43
4 97 7 3 36
4 86 3 7 23
4 35 51 50 70
5 51 93 73 96 35
5 70 50 87 71 81
4 73 96 81 71
4 73 71 87 93
4 43 50 57 11
5 54 82 50 57 85
5 43 16 52 22 11
4 52 22 85 54
4 54 82 16 52
4 2 11 42 0
5 0 29 17 39 2
5 11 42 20 59 15
4 29 17 59 20
4 17 39 15 59
4 1 0 64 35
5 37 0 1 31 67
5 35 91 40 95 64
4 95 40 67 37
4 40 91 31 67
4 25 64 63 57
5 63 64 14 101 90
5 94 30 57 25 84
4 101 90 30 94
4 94 84 14 101
4 19 50 80 18
5 18 102 22 74 80
5 19 50 112 23 117
4 22 74 112 23
4 22 102 117 23
4 13 18 34 0
5 0 75 12 8 34
5 13 107 15 111 18
4 15 111 8 12
4 12 15 107 75
4 11 80 63 10
5 63 106 82 119 80
5 11 69 84 48 10
4 84 48 106 82
4 82 119 69 84
4 63 34 35 89
5 87 68 89 63 78
5 35 34 113 88 109
4 88 113 78 87
4 87 68 109 88
4 18 42 63 70
5 63 12 44 92 42
5 18 70 38 47 88
4 44 12 38 47
4 92 44 47 88
4 19 43 27 51
5 100 27 51 54 110
5 45 19 43 71 56
4 45 56 110 54
4 100 110 56 71
4 2 26 1 13
5 24 26 1 33 8
5 2 7 108 53 13
4 8 108 7 24
4 108 53 33 8
4 2 10 57 27
5 59 114 46 10 57
5 2 52 62 5 27
4 52 62 114 46
4 114 59 5 62
4 26 64 89 51
5 89 32 79 94 51
5 113 76 64 26 60
4 113 76 32 79
4 79 94 60 113
4 34 64 10 42
5 64 17 68 41 10
5 42 34 6 119 67
4 68 41 67 119
4 68 17 6 119
4 70 89 57 80
5 70 89 66 117 101
5 44 57 80 58 103
4 117 101 58 103
4 44 103 117 66
4 1 34 70 19
5 74 40 70 34 99
5 1 19 77 107 73
4 107 73 99 74
4 107 77 40 74
4 43 80 42 13
5 47 104 72 80 43
5 65 13 42 3 48
4 3 48 104 72
4 47 104 48 65
4 35 24 3 34
4 113 37 3 34
5 24 39 107 37 3
4 39 109 88 107
4 114 64 99 81
5 93 66 64 99 92
5 114 82 94 58 81
4 58 92 99 81
4 82 94 93 66
4 22 13 105 46
5 6 105 13 69 5
5 46 22 44 104 106
4 106 46 105 6
4 44 104 5 69
4 18 71 116 20
5 49 16 18 20 106
4 106 20 116 85
5 23 103 71 116 85
4 16 49 23 103
5 99 55 89 112 100
4 89 82 45 55
4 99 55 45 102
4 103 100 112 47
5 102 45 82 47 103
4 70 55 56 18
4 88 73 56 18
5 24 55 56 73 23
4 24 23 47 38
4 105 42 63 114
4 63 12 17 114
5 60 105 114 17 84
4 92 60 84 44
4 13 31 90 42
4 42 3 8 90
5 31 109 17 8 90
4 48 65 109 17
4 101 34 0 60
4 91 8 34 101
4 12 68 93 75
5 60 93 68 91 101
4 95 89 70 36
4 113 101 70 36
5 73 113 36 95 75
4 73 117 66 75
4 1 56 20 6
5 6 38 39 65 1
5 72 20 56 22 7
4 72 20 6 38
4 22 65 39 7
5 118 85 63 81 102
4 61 81 63 59
4 118 85 104 84
5 16 61 59 104 84
4 16 61 81 102
4 10 11 53 76
4 76 29 48 10
5 29 62 31 53 76
4 62 31 69 84
4 2 115 113 0
4 33 29 0 113
5 91 77 115 113 33
4 39 77 91 17
4 64 96 83 10
4 17 62 96 64
4 41 68 94 115
5 94 62 96 83 115
4 55 95 25 54
5 25 93 115 78 95
4 95 78 81 55
5 54 117 98 81 55
4 98 117 93 115
4 19 21 29 1
4 73 110 29 1
5 29 21 9 7 110
4 7 9 77 107
5 43 53 20 21 5
4 53 83 103 43
4 46 83 53 20
5 46 83 103 84 54
4 84 54 21 5
4 32 21 104 57
5 57 100 83 81 32
4 21 45 81 32
5 52 45 21 104 23
4 83 100 23 52
4 98 53 111 19
5 111 72 24 49 19
4 72 111 53 116
5 98 52 110 116 53
4 110 24 49 52
4 32 33 19 50
4 117 96 33 19
5 110 96 33 32 95
4 23 110 95 112
4 32 28 10 78
5 60 118 10 78 58
5 32 61 62 54 28
4 78 58 61 32
4 60 118 54 62
4 9 51 35 8
4 96 76 8 35
5 9 41 37 76 8
4 37 73 93 41
4 52 4 31 105
5 111 31 4 39 9
5 28 20 105 52 48
4 28 9 39 48
4 20 111 31 105
5 38 112 75 86 35
4 35 101 102 86
4 92 75 86 102
4 112 87 119 38
5 102 92 87 119 101
4 46 85 74 42
5 46 14 16 58 42
4 85 66 14 46
5 47 87 74 85 66
4 16 58 87 47
4 34 86 22 42
4 107 67 42 22
5 86 49 47 107 22
4 49 47 119 6
4 6 18 80 59
4 74 80 59 12
5 59 6 14 48 12
4 102 14 48 22
4 34 14 82 70
4 40 70 82 68
4 44 74 99 118
5 14 118 44 68 82
4 109 1 18 119
4 36 18 119 40
4 86 66 12 3
5 12 40 119 109 66
4 64 75 74 63
4 90 67 74 63
5 75 65 88 67 74
4 65 14 101 88
5 66 106 34 102 65
4 58 90 34 102
4 68 59 106 66
5 58 69 68 59 90
4 69 65 102 58
4 3 106 14 0
5 14 109 69 92 0
5 106 3 74 15 38
4 106 14 109 38
4 92 74 15 69
4 34 36 72 106
5 107 112 72 36 71
4 106 72 112 66
4 102 71 107 65
5 70 45 86 85 72
4 16 45 70 119
4 44 15 72 85
4 65 86 45 16
5 119 16 65 44 15
4 99 63 80 71
4 119 88 71 80
4 117 86 106 82
5 99 86 117 88 71
5 83 105 61 30 11
4 44 118 83 11
4 68 82 61 30
4 83 105 14 118
4 49 1 0 48
4 7 37 0 48
5 5 49 48 7 15
4 5 15 67 31
4 99 75 26 96
5 109 77 41 75 26
5 96 99 78 79 101
4 78 99 75 41
4 79 101 109 77
4 40 89 25 41
4 114 90 40 89
5 113 92 41 40 90
4 92 118 96 113
4 29 6 109 26
5 6 29 3 108 111
4 108 41 75 3
4 77 111 6 109
4 30 108 42 58
5 17 5 30 108 28
4 14 17 28 46
4 5 30 58 16
4 72 97 79 70
4 85 100 97 72
5 98 73 100 97 79
4 98 45 86 73
4 81 98 43 80
4 47 117 98 43
4 54 104 72 55
5 55 21 50 97 116
4 47 50 21 49
4 86 55 21 49
4 116 22 107 97
4 80 20 28 57
4 44 57 28 48
4 103 58 105 52
4 35 117 118 64
4 91 35 117 94
4 87 40 95 100
5 94 87 100 118 117
4 4 77 67 13
4 56 13 67 36
5 67 77 38 8 36
4 49 38 8 29
4 35 33 111 38
5 97 37 56 33 111
4 112 97 111 38
4 37 75 86 56
4 79 50 57 78
4 82 50 79 101
4 54 96 99 85
5 46 116 80 61 45
4 15 80 61 5
4 48 46 116 7
4 45 61 5 49
4 18 45 52 13
4 23 107 13 52
4 21 104 15 111
4 80 116 100 87
4 118 100 116 46
4 94 117 45 61
5 77 97 95 24 51
4 86 24 51 117
4 99 86 24 95
4 77 97 71 88
4 60 14 48 2
5 2 60 31 30 41
4 59 30 41 12
4 6 14 60 31
4 26 64 12 39
4 64 76 108 12
5 39 69 67 108 12
4 67 113 60 69
4 76 78 92 0
5 30 78 76 114 91
4 91 114 14 109
4 69 30 78 92
4 93 26 1 88
4 33 79 88 1
4 8 40 112 24
5 79 88 93 112 40
4 11 108 111 43
4 3 108 11 22
4 52 16 6 29
4 89 54 46 63
4 84 54 89 68
4 103 83 78 87
4 7 11 30 9
4 105 29 110 83
4 21 61 30 9
4 77 31 62 51
4 29 24 95 76
4 97 77 31 53
4 27 51 91 30
4 51 54 114 91
4 76 110 100 78
4 25 100 73 26
4 98 62 26 73
4 91 9 97 79
4 27 97 37 2
4 56 52 2 37
4 62 5 111 33
4 25 57 116 110
4 25 84 52 110
4 98 53 30 94
4 43 61 62 4
4 23 4 62 54
4 28 7 97 32
5 27 115 53 32 9
4 24 23 27 9
4 32 9 24 55
4 73 56 53 115
4 97 115 94 50
4 21 55 96 62
4 97 115 83 116
4 27 84 60 115
4 17 114 32 9
4 115 53 105 60
4 95 110 2 41
4 95 32 30 41
4 33 96 60 31
4 4 5 17 26
4 26 110 28 17
4 37 108 30 115
4 19 47 66 35
4 87 79 19 47
4 85 74 36 55
4 70 50 104 106
4 87 44 104 50
4 22 71 81 46
4 38 19 43 15
4 15 74 71 43
4 45 56 3 106
4 67 69 16 18
4 106 12 108 20
4 49 16 69 39
4 92 10 57 87
4 59 119 87 57
4 102 46 114 101
4 64 66 38 8
4 92 99 36 67
4 77 38 66 93
4 113 1 65 92
4 38 6 90 40
4 39 41 92 65
4 10 12 66 118
4 58 78 40 119
4 118 66 109 60
4 0 10 44 65
4 108 10 44 15
4 16 105 90 119
4 65 49 19 88
4 72 111 67 74
4 75 65 49 24
4 103 11 42 102
4 47 15 11 103
4 82 59 20 45
4 63 85 112 40
4 112 93 118 85
4 88 79 81 102
4 58 94 27 11
4 104 27 94 82
4 28 114 81 116
4 39 5 43 107
4 20 53 37 3
4 39 24 21 5
4 112 89 91 77
4 55 33 113 99
4 100 115 77 112
4 25 17 109 93
4 95 8 90 78
4 115 93 109 31
4 41 37 13 69
4 8 76 105 6
4 9 5 69 41
4 68 25 2 69
4 28 59 68 25
4 58 83 76 90
4 107 4 51 112
4 98 4 107 71
4 21 72 36 33
4 85 89 51 23
4 94 51 23 103
4 116 71 79 32
4 50 72 7 27
4 103 27 7 22
4 98 61 20 56
4 16 13 2 84
4 104 7 2 84
4 61 53 108 59
4 100 93 68 57
4 81 32 91 101
4 83 60 93 100
4 75 39 4 73
4 75 95 9 39
4 113 36 111 31
5 44 48 2 25 118
4 51 25 118 117
4 4 49 48 2
5 51 117 47 49 4
5 87 44 11 27 100
4 44 11 13 65
4 100 27 4 73
5 65 13 4 73 88
4 35 101 60 26
5 82 101 35 19 45
5 4 52 84 60 26
4 52 4 19 45
5 17 25 89 66 12
4 50 89 66 47
4 17 25 27 5
5 50 47 15 5 27
4 10 46 54 25
5 22 3 0 10 46
5 24 26 25 54 23
4 0 26 24 3
4 43 103 102 18
5 1 113 101 102 18
5 43 103 94 115 4
4 4 115 113 1
4 109 35 70 119
5 62 51 35 109 17
5 50 61 59 119 70
4 62 51 50 61
5 40 112 50 57 68
4 43 107 112 50
4 68 57 11 69
5 43 107 67 69 11
4 0 75 74 42
5 73 75 0 2 110
5 71 74 42 11 116
4 11 116 110 2
4 64 0 105 114
5 52 56 1 0 105
5 35 55 54 114 64
4 56 1 35 55
5 8 64 63 106 3
4 104 57 63 106
4 64 8 9 25
5 9 25 57 104 7
4 80 58 94 50
5 18 80 58 90 67
5 94 50 19 77 91
4 19 77 67 18
5 96 99 34 0 76
4 71 99 34 18
4 76 0 13 53
5 13 53 98 71 18
4 41 10 63 40
5 80 63 40 36 72
5 10 41 37 7 11
4 11 7 72 80
5 32 89 63 59 28
4 63 34 6 59
4 32 89 35 33
5 33 35 34 6 29
4 70 79 78 63
5 63 78 76 108 42
5 70 79 33 111 18
4 18 111 108 42
4 84 16 43 27
5 51 27 84 68 93
5 43 16 119 88 19
4 51 19 88 93
5 117 86 1 26 96
4 96 26 2 83
4 13 22 86 1
5 103 22 13 2 83
5 12 10 57 85 74
4 10 2 39 12
4 57 85 23 27
5 107 23 27 2 39
4 89 82 14 64
5 21 51 89 82 104
5 26 64 14 48 29
4 29 21 51 26
5 10 28 110 95 64
4 28 10 42 20
4 36 95 64 34
5 56 36 34 42 20
4 89 57 30 91
5 89 70 38 8 91
5 80 15 108 30 57
4 70 38 15 80
5 34 70 81 114 90
4 31 1 34 90
4 19 70 81 98
5 19 1 31 62 98
4 80 87 92 42
5 87 80 43 97 79
5 113 37 13 42 92
4 97 43 13 37
4 60 109 39 2
4 107 88 117 23
5 60 94 117 88 109
4 94 62 26 93
5 66 65 39 26 93
4 16 65 66 82
5 62 5 16 82 94
5 4 77 109 69 5
4 4 5 104 23
5 104 23 112 66 44
4 69 109 66 44
4 73 23 49 1
5 14 16 49 1 109
4 16 103 118 14
5 93 118 103 23 73
5 25 100 112 75 41
4 100 25 84 103
4 65 75 112 47
5 65 47 103 84 69
4 26 109 38 24
4 23 47 82 54
5 47 38 109 68 82
4 60 92 75 26
5 92 75 107 22 44
4 84 44 22 52
4 109 65 86 35
5 23 86 65 48 52
4 62 17 48 52
4 75 24 51 93
5 75 12 48 7 24
4 84 48 12 68
4 0 75 66 14
4 73 110 54 117
5 54 117 66 14 84
4 26 39 7 110
5 22 7 110 100 85
4 66 85 22 65
5 75 86 85 118 64
4 118 84 17 64
4 85 104 49 86
5 39 49 104 84 17
4 69 31 1 65
4 98 103 84 62
4 39 77 19 49
4 91 17 84 94
4 41 115 4 39
5 39 15 44 68 41
4 103 94 68 44
4 98 115 2 52
5 92 69 2 115 93
4 93 117 102 92
5 16 102 117 98 52
4 93 25 9 77
4 7 107 47 104
5 77 93 87 47 107
5 21 5 6 38 19
4 21 54 117 19
4 5 6 14 84
4 10 83 52 48
5 92 99 100 83 10
4 99 100 23 86
4 24 110 96 35
5 24 49 106 66 35
4 106 46 52 49
5 52 110 96 118 46
4 64 66 112 95
4 28 110 23 104
4 60 0 29 62
5 0 60 118 102 65
5 49 29 62 54 45
4 102 45 54 118
4 118 93 41 10
4 7 37 73 23
4 51 54 28 9
5 9 39 38 112 51
5 106 85 54 28 48
4 106 38 39 48
4 112 87 94 51
5 94 30 69 119 87
4 38 119 69 39
5 13 31 60 58 16
4 16 13 107 47
4 58 60 93 87
4 4 49 6 31
5 6 119 101 91 31
4 119 47 117 101
4 102 99 64 14
5 102 22 56 73 99
4 48 22 56 29
4 95 25 118 99
5 37 95 99 74 3
4 48 3 74 44
4 89 55 86 66
4 17 29 3 12
5 55 86 3 29 110
4 105 14 65 13
5 62 105 14 101 96
4 96 73 88 101
4 68 91 35 66
4 49 5 59 106
5 91 9 5 59 68
4 69 2 7 15
5 112 74 15 7 97
4 93 112 74 92
4 65 0 37 107
5 115 100 71 107 37
4 71 102 118 100
5 72 24 95 89 85
4 85 89 68 44
4 24 72 15 39
4 6 106 86 1
5 6 106 82 114 17
4 82 117 96 114
5 61 30 31 111 43
4 43 61 82 47
4 109 31 30 68
4 27 5 31 115
4 47 88 67 15
5 67 31 115 79 88
4 77 4 98 79
5 58 61 98 79 101
4 109 69 58 101
4 46 118 92 42
4 113 96 110 37
4 28 25 41 108
5 116 72 3 108 28
4 72 112 75 3
4 34 14 17 8
5 34 14 46 45 86
4 45 21 28 46
5 8 24 21 28 17
4 86 73 113 34
4 45 46 83 98
5 60 83 98 73 113
4 38 72 55 35
5 12 59 104 72 38
4 59 104 54 114
5 97 95 78 57 116
4 116 57 44 22
4 97 107 75 95
4 58 105 0 92
4 56 52 103 71
5 58 103 71 88 92
4 95 100 27 9
5 40 95 9 108 12
4 44 87 40 12
4 45 70 38 49
4 91 8 29 62
4 64 76 37 75
5 56 116 83 76 37
4 86 56 116 85
4 106 34 99 85
4 96 76 28 54
4 12 48 46 63
5 63 46 116 55 99
4 24 55 116 7
4 77 51 21 111
5 40 119 15 111 77
4 82 119 15 104
5 45 61 105 6 18
4 18 88 117 45
4 61 105 60 94
5 77 97 27 30 41
4 97 27 103 71
4 77 41 92 88
4 104 27 30 59
4 12 41 77 38
4 11 69 60 83
4 113 67 107 73
4 109 1 33 91
5 91 114 61 21 33
4 16 61 114 14
4 21 50 112 24
4 17 68 40 8
4 102 34 6 16
4 29 33 98 52
4 41 2 83 78
5 41 67 74 87 78
4 103 22 74 87
4 105 42 3 29
5 102 81 83 105 42
4 110 83 81 55
4 89 114 76 95
5 29 20 46 114 76
4 24 72 20 29
4 63 78 100 85
4 76 110 7 108
4 9 5 43 97
4 79 91 68 87
4 16 18 111 5
4 94 79 33 62
4 30 53 13 69
4 98 71 87 94
4 112 89 32 97
4 28 59 15 7
4 53 56 22 11
5 78 58 11 53 115
4 115 78 99 73
5 20 106 70 55 21
4 101 70 55 96
4 21 62 105 20
5 32 9 111 72 50
4 32 114 82 50
4 17 9 111 6
4 33 31 13 56
5 45 56 33 96 81
4 60 96 81 58
4 57 30 115 100
4 108 15 107 37
4 55 32 57 85
5 55 32 76 8 36
4 74 36 8 12
4 78 10 46 81
4 22 3 36 71
5 81 78 113 36 71
4 45 81 63 106
4 33 8 3 56
4 106 70 40 12
4 108 20 21 9
4 18 102 46 20
4 101 114 76 113
4 92 10 108 67
5 97 36 67 108 53
4 100 97 36 99
4 38 19 79 40
5 40 90 30 32 79
4 5 30 90 6
4 15 119 58 11
4 40 78 115 77
4 43 16 105 53
5 105 90 113 33 53
4 90 119 88 113
4 72 50 87 74
4 111 67 41 9
4 19 45 20 111
5 8 90 59 20 111
4 82 59 90 101
4 42 67 88 102
4 83 115 79 81
4 72 116 81 70
4 108 28 114 90
4 74 3 20 80
5 53 32 81 80 20
4 37 53 32 95
4 90 113 99 63
4 55 33 53 116
4 57 78 90 59
4 8 95 97 111
4 6 8 36 18
4 105 76 32 61
4 83 116 80 58
4 90 76 37 67
4 61 21 72 80
4 40 91 33 36
4 32 116 11 30
4 79 71 74 40
4 61 58 42 20
4 56 98 79 36
4 97 53 61 50
4 119 59 108 67
4 81 101 119 80
4 32 91 31 53
4 43 111 36 71
4 31 30 78 113
5 29 110 2 4 62
4 110 95 8 29
5 77 91 8 95 41
5 48 52 13 11 7
4 7 48 17 9
5 17 62 31 30 9
5 4 73 56 33 19
5 8 38 39 75 3
4 75 3 56 73
5 25 27 94 62 54
5 33 55 95 97 79
4 33 55 54 62
5 0 76 8 17 26
4 78 76 8 40
5 40 78 92 93 68
5 18 56 22 107 43
5 6 29 48 39 5
4 107 39 48 22
5 79 50 51 117 98
5 24 86 56 36 72
4 86 56 98 117
5 57 104 84 103 11
5 53 98 62 21 32
4 62 21 104 84
5 42 0 48 12 108
4 30 68 12 108
5 84 60 58 30 68
5 113 1 35 8 36
4 92 74 36 113
5 12 66 65 92 74
5 25 68 91 114 64
4 114 91 79 81
5 87 100 99 81 79
5 50 80 71 103 47
5 52 49 21 20 56
4 52 49 47 103
5 18 34 3 74 67
4 69 44 74 67
5 14 48 44 69 16
5 44 10 63 59 68
4 61 94 68 59
5 83 103 94 61 81
5 35 89 40 79 101
5 86 102 71 74 85
4 101 79 71 102
5 63 74 87 119 70
5 103 22 46 45 16
4 103 16 119 87
5 43 98 52 23 27
5 9 111 33 29 24
4 23 52 29 24
5 13 37 3 29 1
4 41 12 3 37
5 69 109 17 12 41
5 10 2 84 17 28
4 91 32 28 17
5 94 115 78 32 91
5 33 96 26 51 91
5 75 112 40 36 99
4 99 96 33 36
5 34 90 40 12 64
4 58 90 40 87
5 118 44 87 58 102
5 57 87 94 82 89
5 98 45 55 116 71
4 82 94 98 45
5 88 19 70 36 71
5 106 3 22 65 49
4 65 22 71 88
5 42 80 15 44 22
4 5 84 44 15
5 84 52 105 61 5
5 75 107 88 1 86
4 12 106 86 75
5 15 119 6 106 12
5 70 50 112 85 55
4 85 118 96 55
5 118 93 94 101 96
5 57 28 114 61 30
4 28 48 14 114
5 27 7 28 21 5
4 22 46 28 7
5 19 21 72 97 43
4 72 85 54 21
5 103 117 54 85 100
5 45 19 47 23 86
5 3 7 15 111 20
4 3 86 45 20
4 89 64 10 57
5 64 10 92 60 14
4 34 0 10 63
5 65 0 34 6 109
4 64 35 70 63
5 64 35 109 93 75
5 55 99 73 117 35
4 55 72 74 99
5 74 107 47 38 72
5 11 69 5 59 108
4 108 3 106 59
5 32 116 100 27 50
4 116 32 114 46
5 118 84 82 114 46
4 2 0 64 25
5 2 0 105 31 69
4 34 64 26 1
5 39 77 31 1 26
4 26 35 89 25
5 25 26 60 115 41
5 24 35 19 77 112
4 100 112 24 110
5 100 115 98 96 110
5 4 107 7 24 49
5 8 6 31 67 108
4 8 24 49 6
5 25 110 76 32 9
4 110 76 105 52
5 51 4 115 97 9
4 116 28 9 97
5 83 52 54 28 116
5 2 37 108 9 39
4 37 108 20 56
5 110 23 51 21 55
4 111 36 55 21
5 37 107 77 111 36
5 51 89 95 100 93
4 100 83 76 95
5 62 60 83 76 114
5 37 95 24 26 73
4 95 40 38 24
5 67 40 38 109 88
5 10 41 30 90 76
4 76 29 6 90
5 106 45 18 80 72
4 106 66 117 45
5 66 112 87 88 117
5 54 45 61 50 104
4 44 104 54 118
5 102 65 47 119 18
5 48 104 59 20 46
4 46 102 65 48
4 42 63 57 11
5 102 42 63 106 14
4 50 89 63 80
5 89 66 118 99 63
4 34 70 80 42
5 70 34 86 66 38
5 101 34 99 92 88
5 44 85 106 82 47
4 44 92 99 85
5 80 81 46 85 57
4 14 101 81 46
5 68 66 14 101 119
5 16 58 80 59 82
4 82 59 12 66
5 104 49 16 43 15
4 15 104 85 74
5 43 11 116 20 61
4 20 106 82 61
5 70 82 117 102 81
5 23 104 72 116 22
4 116 81 102 22
5 89 32 81 96 54
4 60 84 54 96
5 39 65 13 67 15
5 17 14 105 90 59
4 14 65 39 17
4 73 93 66 86
5 79 113 73 93 77
5 64 95 78 113 96
4 87 78 95 112
5 69 92 42 90 119
4 119 38 8 90
5 83 78 57 25 118
4 105 90 78 83
4 71 107 7 116
5 56 53 97 7 110
4 56 45 61 53
5 5 111 53 13 4
4 111 72 104 5
4 27 11 10 25
5 105 58 11 10 46
4 89 51 19 70
4 18 1 0 42
5 18 111 38 49 1
4 67 36 72 15
4 81 71 97 32
5 71 73 23 112 97
5 30 27 2 83 53
4 20 59 30 53
5 28 108 53 105 29
4 105 16 49 29
4 103 23 110 83
4 38 49 23 112
5 101 114 63 78 58
4 114 17 109 101
5 75 0 113 67 41
4 66 75 41 68
4 60 118 99 113
5 60 109 91 90 113
4 19 35 34 18
4 2 10 42 13
5 42 13 16 6 20
4 57 50 51 25
4 115 53 108 41
4 33 111 67 113
4 79 32 9 77
4 1 4 51 35
4 4 13 0 26
4 2 26 51 27
5 33 76 37 115 31
4 31 33 21 5
4 77 39 7 97
4 73 98 53 37
4 96 113 31 62
4 115 93 75 37
4 109 39 9 91
4 18 70 50 43
4 43 80 57 27
4 11 13 18 80
4 119 6 105 58
4 100 78 58 103
4 47 112 40 119
4 102 14 109 88
4 68 93 117 82
4 118 92 69 84
4 6 16 47 38
4 83 52 16 58
4 100 23 47 87
4 98 115 30 61
4 31 111 15 69
4 107 88 79 97
4 88 77 91 101
4 92 67 31 60
4 94 30 41 93
4 13 1 19 43
4 19 50 27 4
4 2 11 43 4
4 62 5 69 60
4 117 73 115 94
4 109 77 107 65
5 4 73 93 60 2
5 49 86 66 14 48
5 13 37 115 83 11
5 44 118 93 75 65
5 19 88 109 31 4
5 45 52 105 14 102
5 25 27 23 112 93
5 109 17 5 49 38
5 0 14 118 96 26
5 85 106 3 24 55
5 53 43 18 67 31
5 103 102 92 60 83
5 51 50 47 38 77
5 62 31 6 16 61
5 11 7 97 100 57
5 68 93 77 39 69
5 76 0 42 46 83
5 100 95 75 74 85
5 1 6 14 101 35
5 46 81 55 56 20
5 66 85 54 25 64
5 72 38 8 9 21
5 97 50 80 15 111
5 31 115 94 58 69
5 18 20 105 90 34
5 71 116 83 78 99
5 10 63 85 116 28
5 40 112 97 9 41
5 35 38 106 82 89
5 33 111 20 61 32
5 70 72 20 59 63
5 78 30 53 97 79
5 107 43 27 115 77
5 109 65 16 84 60
5 105 60 113 1 13
5 22 86 99 118 46
5 2 110 100 118 10
5 112 24 39 12 66
5 51 26 109 66 117
5 29 6 106 45 21
5 34 106 46 114 64
5 116 32 95 36 72
5 57 89 112 72 104
5 91 77 111 5 30
5 70 19 111 6 119
5 81 98 53 105 58
5 116 80 42 108 53
5 92 41 115 100 87
5 92 88 107 13 69
5 118 84 52 23 117
5 62 26 1 49 52
5 94 103 47 88 93
5 69 2 27 103 44
5 13 16 103 98 4
5 26 39 48 84 25
5 22 103 100 73 107
5 23 4 39 65 47
5 17 62 54 82 14
5 110 26 75 86 23
5 96 54 45 86 35
5 51 54 104 49 24
5 73 117 102 65 1
5 29 48 46 54 110
5 22 65 0 2 52
5 64 35 24 29 17
5 82 117 19 49 16
5 71 88 113 115 98
5 41 2 7 107 75
5 68 84 104 47 66
5 4 51 94 84 5
5 64 10 48 3 75
5 56 52 83 96 73
5 28 17 12 106 104
5 0 29 56 86 34
5 62 98 117 101 60
5 37 73 99 92 0
5 85 44 48 7 23
5 44 15 107 112 87
5 43 71 87 58 11
5 69 5 43 47 119
5 110 76 64 99 55
5 24 95 25 28 7
5 114 28 21 55 89
5 88 101 58 16 18
5 19 21 62 91 35
5 22 11 10 92 74
5 102 42 13 56 71
5 51 89 68 17 9
5 33 96 114 105 29
5 27 30 68 87 50
5 67 15 11 30 41
5 79 87 119 67 77
5 81 96 113 34 102
5 3 22 116 110 37
5 34 8 33 55 70
5 18 1 33 98 45
5 8 91 114 59 6
5 12 41 25 57 44
5 104 15 39 9 27
5 70 101 114 61 45
5 28 20 3 8 76
5 89 63 12 8 95
5 91 94 82 119 109
5 79 19 43 61 94
5 71 74 67 37 97
5 78 113 67 42 58
5 50 82 59 5 21
5 36 99 63 42 3
5 72 7 108 12 74
5 15 38 40 68 59
5 56 53 76 113 36
5 33 31 90 101 79
5 108 37 95 78 10
5 108 59 57 32 9
5 63 90 76 32 81
5 50 70 40 91 32
5 78 40 74 80 57
5 119 90 30 61 80
5 80 18 36 79 81
5 36 40 90 108 111

# Cells
7 0 1 2 3 4 5 6
7 7 8 9 10 11 12 13
7 14 15 16 17 18 19 20
7 21 22 23 24 25 26 27
7 28 29 30 31 32 33 34
7 35 36 37 38 39 40 41
7 42 43 44 45 46 47 48
7 49 50 51 52 53 54 55
7 56 57 58 59 60 61 62
7 63 64 65 66 67 68 69
7 70 71 72 73 74 75 76
7 77 78 79 80 81 82 83
7 84 85 86 87 88 89 90
7 91 92 93 94 95 96 97
7 98 99 100 101 102 103 104
7 105 106 107 108 109 110 111
7 112 113 114 115 116 117 118
7 119 120 121 122 123 124 125
7 126 127 128 129 130 131 132
7 133 134 135 136 137 138 139
7 140 141 142 143 144 145 146
7 147 148 149 150 151 152 153
7 154 155 156 157 158 159 160
7 161 162 163 164 165 166 167
7 168 169 170 171 172 173 174
7 94 175 176 177 178 179 180
7 181 182 183 184 185 186 187
7 188 189 190 191 192 193 194
7 108 195 196 197 198 199 200
7 201 202 203 204 205 206 207
7 99 208 209 210 211 212 213
7 107 214 215 216 217 218 219
7 157 220 221 222 223 224 225
7 226 227 228 229 230 231 232
7 233 234 235 236 237 238 239
7 162 240 241 242 243 244 245
7 143 246 247 248 249 250 251
7 87 252 253 254 255 256 257
7 65 258 259 260 261 262 263
7 151 264 265 266 267 268 269
7 270 271 272 273 274 275 276
7 277 278 279 280 281 282 283
7 81 284 285 286 287 288 289
7 290 291 292 293 294 295 296
7 297 298 299 300 301 302 303
7 51 304 305 306 307 308 309
7 310 311 312 313 314 315 316
7 317 318 319 320 321 322 323
7 142 324 325 326 327 328 329
7 330 331 332 333 334 335 336
7 337 338 339 340 341 342 343
7 148 344 345 346 347 348 349
7 44 350 351 352 353 354 355
7 78 356 357 358 359 360 361
7 362 363 364 365 366 367 368
7 57 369 370 371 372 373 374
7 375 376 377 378 379 380 381
7 382 383 384 385 386 387 388
7 86 389 390 391 392 393 394
7 376 395 396 397 398 399 400
7 401 402 403 404 405 406 407
7 349 408 409 410 411 412 413
7 74 414 415 416 417 418 419
7 402 420 421 422 423 424 425
7 338 426 427 428 429 430 431
7 8 432 433 434 435 436 437
7 327 438 439 440 441 442 443
7 382 444 445 446 447 448 449
7 156 281 450 451 452 453 454
7 71 455 456 457 458 459 460
7 17 461 462 463 464 465 466
7 165 314 467 468 469 470 471
7 418 472 473 474 475 476 477
7 330 478 479 480 481 482 483
7 36 405 484 485 486 487 488
7 460 472 489 490 491 492 493
7 393 494 495 496 497 498 499
7 102 295 500 501 502 503 504
7 364 505 506 507 508 509 510
7 359 511 512 513 514 515 516
7 129 517 518 519 520 521 522
7 39 422 523 524 525 526 527
7 93 275 528 529 530 531 532
7 135 533 534 535 536 537 538
7 116 507 539 540 541 542 543
7 267 408 544 545 546 547 548
7 255 494 549 550 551 552 553
7 123 480 554 555 556 557 558
7 60 302 559 560 561 562 563
7 31 448 564 565 566 567 568
7 250 438 569 570 571 572 573
7 45 320 574 575 576 577 578
7 198 579 580 581 582 583 584
7 287 513 585 586 587 588 589
7 24 428 590 591 592 593 594
7 217 579 595 596 597 598 599
7 113 365 600 601 602 603 604
7 23 341 605 606 607 608 609
7 52 172 610 611 612 613 614
7 120 336 615 616 617 618 619
7 183 465 620 621 622 623 624
7 202 521 625 626 627 628 629
7 30 388 630 631 632 633 634
7 228 436 635 636 637 638 639
7 319 355 640 641 642 643 644
7 66 194 645 646 647 648 649
7 234 538 650 651 652 653 654
7 298 373 655 656 657 658 659
7 188 262 660 661 662 663 664
7 16 184 665 666 667 668 669
7 178 270 670 671 672 673 674
7 170 307 675 676 677 678 679
7 1 379 680 681 682 683 684
7 224 278 685 686 687 688 689
7 11 229 690 691 692 693 694
7 4 397 695 696 697 698 699
7 128 205 700 701 702 703 704
7 213 291 705 706 707 708 709
7 243 311 710 711 712 713 714
7 136 237 715 716 717 718 719
7 0 720 721 722 723 724 725
7 7 726 727 728 729 730 731
7 14 732 733 734 735 736 737
7 21 738 739 740 741 742 743
7 28 744 745 746 747 748 749
7 35 750 751 752 753 754 755
7 42 756 757 758 759 760 761
7 49 762 763 764 765 766 767
7 56 768 769 770 771 772 773
7 63 774 775 776 777 778 779
7 70 780 781 782 783 784 785
7 77 786 787 788 789 790 791
7 84 792 793 794 795 796 797
7 91 798 799 800 801 802 803
7 98 804 805 806 807 808 809
7 105 810 811 812 813 814 815
7 112 816 817 818 819 820 821
7 119 822 823 824 825 826 827
7 126 828 829 830 831 832 833
7 133 834 835 836 837 838 839
7 140 840 841 842 843 844 845
7 147 846 847 848 849 850 851
7 154 852 853 854 855 856 857
7 161 858 859 860 861 862 863
7 174 864 865 866 867 868 869
7 180 825 870 871 872 873 874
7 187 875 876 877 878 879 880
7 193 881 882 883 884 885 886
7 199 746 887 888 889 890 891
7 207 892 893 894 895 896 897
7 212 819 898 899 900 901 902
7 219 740 903 904 905 906 907
7 225 763 908 909 910 911 912
7 232 876 913 914 915 916 917
7 236 918 919 920 921 922 923
7 245 775 924 925 926 927 928
7 249 758 929 930 931 932 933
7 257 849 886 934 935 936 937
7 263 789 923 938 939 940 941
7 269 771 942 943 944 945 946
7 276 928 947 948 949 950 951
7 283 952 953 954 955 956 957
7 288 842 868 958 959 960 961
7 296 912 962 963 964 965 966
7 303 967 968 969 970 971 972
7 309 794 897 973 974 975 976
7 315 977 978 979 980 981 982
7 322 983 984 985 986 987 988
7 328 723 989 990 991 992 993
7 335 978 994 995 996 997 998
7 342 946 999 1000 1001 1002 1003
7 347 720 1004 1005 1006 1007 1008
7 354 726 1009 1010 1011 1012 1013
7 361 830 1014 1015 1016 1017 1018
7 367 953 1019 1020 1021 1022 1023
7 374 734 1024 1025 1026 1027 1028
7 378 968 1029 1030 1031 1032 1033
7 385 932 1034 1035 1036 1037 1038
7 392 835 1039 1040 1041 1042 1043
7 399 985 1044 1045 1046 1047 1048
7 407 864 1049 1050 1051 1052 1053
7 411 891 1054 1055 1056 1057 1058
7 419 729 1059 1060 1061 1062 1063
7 423 881 1064 1065 1066 1067 1068
7 429 1069 1070 1071 1072 1073 1074
7 437 854 972 1075 1076 1077 1078
7 443 906 1079 1080 1081 1082 1083
7 449 1071 1084 1085 1086 1087 1088
7 453 780 1089 1090 1091 1092 1093
7 458 733 1094 1095 1096 1097 1098
7 466 858 986 1099 1100 1101 1102
7 471 783 1103 1104 1105 1106 1107
7 475 901 1108 1109 1110 1111 1112
7 483 919 1113 1114 1115 1116 1117
7 487 804 980 1118 1119 1120 1121
7 493 874 1122 1123 1124 1125 1126
7 499 1107 1127 1128 1129 1130 1131
7 503 829 1132 1133 1134 1135 1136
7 508 893 1137 1138 1139 1140 1141
7 514 1092 1127 1142 1143 1144 1145
7 522 753 1088 1146 1147 1148 1149
7 527 800 957 1150 1151 1152 1153
7 531 836 1154 1155 1156 1157 1158
7 536 750 1073 1159 1160 1161 1162
7 543 811 915 1163 1164 1165 1166
7 546 1012 1167 1168 1169 1170 1171
7 551 1034 1172 1173 1174 1175 1176
7 557 812 879 1177 1178 1179 1180
7 562 807 997 1181 1182 1183 1184
7 567 853 1032 1185 1186 1187 1188
7 572 1028 1189 1190 1191 1192 1193
7 577 799 1021 1194 1195 1196 1197
7 584 1017 1198 1199 1200 1201 1202
7 589 1000 1203 1204 1205 1206 1207
7 594 861 1046 1208 1209 1210 1211
7 598 1042 1212 1213 1214 1215 1216
7 603 768 1205 1217 1218 1219 1220
7 608 822 1221 1222 1223 1224 1225
7 613 745 1226 1227 1228 1229 1230
7 618 757 1174 1231 1232 1233 1234
7 622 964 1235 1236 1237 1238 1239
7 627 1097 1189 1240 1241 1242 1243
7 634 816 1244 1245 1246 1247 1248
7 637 947 1249 1250 1251 1252 1253
7 642 1135 1199 1254 1255 1256 1257
7 648 739 1258 1259 1260 1261 1262
7 653 1063 1169 1263 1264 1265 1266
7 658 1157 1212 1267 1268 1269 1270
7 662 1108 1247 1271 1272 1273 1274
7 668 846 1066 1275 1276 1277 1278
7 673 1007 1279 1280 1281 1282 1283
7 677 1122 1224 1284 1285 1286 1287
7 684 786 1115 1288 1289 1290 1291
7 687 1079 1261 1292 1293 1294 1295
7 693 841 1052 1296 1297 1298 1299
7 698 793 1139 1300 1301 1302 1303
7 703 776 1252 1304 1305 1306 1307
7 707 992 1279 1308 1309 1310 1311
7 714 1054 1230 1312 1313 1314 1315
7 718 764 1238 1316 1317 1318 1319
7 695 781 1320 1321 1322 1323 1324
7 690 741 1325 1326 1327 1328 1329
7 461 747 1330 1331 1332 1333 1334
7 605 805 1335 1336 1337 1338 1339
7 564 801 1340 1341 1342 1343 1344
7 523 722 1345 1346 1347 1348 1349
7 350 774 1350 1351 1352 1353 1354
7 610 756 1355 1356 1357 1358 1359
7 559 765 1360 1361 1362 1363 1364
7 258 770 1365 1366 1367 1368 1369
7 455 810 1370 1371 1372 1373 1374
7 356 732 1375 1376 1377 1378 1379
7 252 728 1380 1381 1382 1383 1384
7 528 787 1385 1386 1387 1388 1389
7 208 792 1390 1391 1392 1393 1394
7 214 752 1395 1396 1397 1398 1399
7 600 837 1400 1401 1402 1403 1404
7 554 831 1405 1406 1407 1408 1409
7 700 848 1410 1411 1412 1413 1414
7 533 840 1415 1416 1417 1418 1419
7 246 859 1420 1421 1422 1423 1424
7 344 852 1425 1426 1427 1428 1429
7 220 823 1430 1431 1432 1433 1434
7 467 818 1435 1436 1437 1438 1439
7 679 983 1392 1440 1441 1442 1443
7 97 1016 1444 1445 1446 1447 1448
7 667 1086 1449 1450 1451 1452 1453
7 646 971 1454 1455 1456 1457 1458
7 110 1151 1459 1460 1461 1462 1463
7 629 1167 1397 1464 1465 1466 1467
7 706 1043 1396 1468 1469 1470 1471
7 596 1121 1437 1472 1473 1474 1475
7 686 1234 1381 1476 1477 1478 1479
7 639 1070 1426 1480 1481 1482 1483
7 717 1193 1484 1485 1486 1487 1488
7 167 1218 1489 1490 1491 1492 1493
7 569 927 1387 1494 1495 1496 1497
7 550 1078 1361 1498 1499 1500 1501
7 661 1027 1421 1502 1503 1504 1505
7 153 909 1506 1507 1508 1509 1510
7 674 1203 1432 1511 1512 1513 1514
7 452 1116 1515 1516 1517 1518 1519
7 82 1101 1520 1521 1522 1523 1524
7 502 1176 1525 1526 1527 1528 1529
7 659 1284 1377 1530 1531 1532 1533
7 55 1010 1534 1535 1536 1537 1538
7 713 1138 1351 1539 1540 1541 1542
7 575 1273 1543 1544 1545 1546 1547
7 146 1104 1548 1549 1550 1551 1552
7 617 895 1553 1554 1555 1556 1557
7 430 962 1422 1558 1559 1560 1561
7 409 1093 1376 1562 1563 1564 1565
7 641 1262 1431 1566 1567 1568 1569
7 512 1278 1346 1570 1571 1572 1573
7 509 920 1371 1574 1575 1576 1577
7 62 1227 1578 1579 1580 1581 1582
7 681 1125 1583 1584 1585 1586 1587
7 631 951 1578 1588 1589 1590 1591
7 89 1298 1592 1593 1594 1595 1596
7 380 1109 1386 1597 1598 1599 1600
7 485 1047 1569 1601 1602 1603 1604
7 548 952 1366 1605 1606 1607 1608
7 76 904 1609 1610 1611 1612 1613
7 404 1030 1336 1614 1615 1616 1617
7 591 1311 1610 1618 1619 1620 1621
7 13 1223 1554 1622 1623 1624 1625
7 326 982 1592 1626 1627 1628 1629
7 387 1280 1436 1509 1630 1631 1632
7 159 1178 1560 1633 1634 1635 1636
7 489 890 1427 1545 1637 1638 1639
7 621 1248 1367 1640 1641 1642 1643
7 310 1166 1327 1644 1645 1646 1647
7 415 1216 1548 1648 1649 1650 1651
7 333 1241 1356 1611 1652 1653 1654
7 40 1302 1607 1655 1656 1657 1658
7 477 1198 1382 1523 1659 1660 1661
7 391 916 1643 1655 1662 1663 1664
7 103 936 1600 1665 1666 1667 1668
7 541 1265 1564 1669 1670 1671 1672
7 587 877 1417 1673 1674 1675 1676
7 132 1005 1584 1677 1678 1679 1680
7 421 1291 1406 1681 1682 1683 1684
7 271 961 1357 1619 1685 1686 1687
7 650 993 1391 1518 1688 1689 1690
7 118 1160 1513 1601 1691 1692 1693
7 266 1294 1496 1665 1694 1695 1696
7 497 1250 1401 1678 1697 1698 1699
7 479 1149 1342 1628 1700 1701 1702
7 297 976 1412 1649 1703 1704 1705
7 444 873 1372 1528 1706 1707 1708
7 442 1312 1347 1536 1709 1710 1711
7 47 940 1466 1712 1713 1714 1715
7 196 1067 1505 1633 1716 1717 1718
7 286 1237 1470 1712 1719 1720 1721
7 27 900 1532 1670 1722 1723 1724
7 582 1049 1332 1623 1725 1726 1727
7 362 1319 1331 1556 1728 1729 1730
7 337 1136 1352 1451 1731 1732 1733
7 168 1197 1402 1585 1734 1735 1736
7 124 1305 1455 1675 1737 1738 1739
7 185 1036 1411 1552 1740 1741 1742
7 519 1058 1445 1646 1743 1744 1745
7 34 1156 1485 1616 1746 1747 1748
7 433 1002 1535 1573 1749 1750 1751
7 321 883 1341 1596 1752 1753 1754
7 68 1183 1526 1576 1755 1756 1757
7 238 1080 1362 1463 1758 1759 1760
7 370 869 1489 1684 1761 1762 1763
7 191 1267 1326 1446 1764 1765 1766
7 19 1187 1442 1515 1767 1768 1769
7 176 1145 1459 1500 1770 1771 1772
7 305 1256 1474 1507 1773 1774 1775
7 6 1096 1450 1541 1776 1777 1778
7 280 995 1321 1581 1779 1780 1781
7 226 1211 1322 1589 1782 1783 1784
7 395 1062 1416 1457 1785 1786 1787
7 201 945 1337 1486 1788 1789 1790
7 293 1128 1407 1492 1791 1792 1793
7 242 1022 1479 1521 1794 1795 1796
7 139 930 1482 1544 1797 1798 1799
7 41 878 1320 1800 1801 1802 1803
7 90 998 1325 1804 1805 1806 1807
7 83 956 1330 1808 1809 1810 1811
7 12 1140 1335 1812 1813 1814 1815
7 20 921 1340 1816 1817 1818 1819
7 111 1131 1345 1820 1821 1822 1823
7 54 1206 1350 1824 1825 1826 1827
7 61 1253 1355 1828 1829 1830 1831
7 69 1038 1360 1832 1833 1834 1835
7 48 965 1365 1836 1837 1838 1839
7 5 1072 1370 1840 1841 1842 1843
7 96 1315 1375 1844 1845 1846 1847
7 104 1083 1380 1848 1849 1850 1851
7 33 1243 1385 1852 1853 1854 1855
7 26 1170 1390 1856 1857 1858 1859
7 75 1283 1395 1860 1861 1862 1863
7 166 1053 1400 1864 1865 1866 1867
7 160 885 1405 1868 1869 1870 1871
7 125 1031 1410 1872 1873 1874 1875
7 117 987 1415 1876 1877 1878 1879
7 138 1111 1420 1880 1881 1882 1883
7 131 1287 1425 1884 1885 1886 1887
7 152 1202 1430 1888 1889 1890 1891
7 145 1270 1435 1892 1893 1894 1895
7 656 817 1443 1875 1896 1897 1898
7 566 937 1448 1899 1900 1901 1902
7 516 990 1453 1903 1904 1905 1906
7 644 872 1458 1907 1908 1909 1910
7 456 941 1462 1911 1912 1913 1914
7 331 738 1467 1818 1915 1916 1917
7 590 866 1471 1810 1918 1919 1920
7 414 892 1475 1825 1921 1922 1923
7 264 948 1478 1865 1924 1925 1926
7 495 721 1483 1833 1927 1928 1929
7 366 889 1488 1900 1930 1931 1932
7 248 911 1491 1933 1934 1935 1936
7 715 1001 1497 1891 1914 1937 1938
7 500 1124 1501 1846 1936 1939 1940
7 574 1056 1504 1822 1941 1942 1943
7 702 933 1510 1944 1945 1946 1947
7 384 762 1514 1843 1948 1949 1950
7 413 1025 1519 1929 1951 1952 1953
7 530 902 1524 1922 1954 1955 1956
7 340 925 1529 1957 1958 1959 1960
7 189 828 1533 1880 1905 1961 1962
7 560 907 1538 1963 1964 1965 1966
7 440 727 1542 1854 1910 1967 1968
7 171 1041 1546 1969 1970 1971 1972
7 535 1180 1551 1970 1973 1974 1975
7 689 1061 1557 1950 1976 1977 1978
7 636 759 1561 1803 1979 1980 1981
7 517 913 1565 1878 1982 1983 1984
7 304 977 1568 1800 1985 1986 1987
7 175 967 1572 1812 1988 1989 1990
7 711 735 1577 1807 1991 1992 1993
7 259 1153 1580 1958 1994 1995 1996
7 425 1134 1587 1945 1997 1998 1999
7 624 943 1591 1964 2000 2001 2002
7 209 1102 1594 1942 2003 2004 2005
7 401 834 1599 1868 2006 2007 2008
7 599 1246 1603 1917 2009 2010 2011
7 626 788 1608 1815 2012 2013 2014
7 696 1184 1613 1903 2015 2016 2017
7 580 824 1617 1894 1960 2018 2019
7 230 1090 1620 1911 2020 2021 2022
7 253 1018 1624 2023 2024 2025 2026
7 652 974 1629 2024 2027 2028 2029
7 181 782 1632 1838 2030 2031 2032
7 346 1162 1636 1919 2033 2034 2035
7 680 1020 1639 1837 2036 2037 2038
7 284 1214 1642 1804 2039 2040 2041
7 324 1084 1647 1885 1965 2042 2043
7 398 960 1651 1933 2044 2045 2046
7 277 744 1654 1848 1971 2047 2048
7 215 1013 1657 1925 2049 2050 2051
7 377 847 1661 1877 2052 2053 2054
7 709 1147 1664 1898 2055 2056 2057
7 607 1188 1668 2038 2058 2059 2060
7 316 1260 1671 2031 2058 2061 2062
7 671 751 1676 1831 2029 2063 2064
7 556 1106 1679 1908 2065 2066 2067
7 195 1190 1683 1828 2026 2068 2069
7 630 1045 1687 1859 1947 2070 2071
7 539 1143 1690 1871 2072 2073 2074
7 469 1008 1692 1990 2075 2076 2077
7 204 1119 1695 2003 2078 2079 2080
7 290 769 1699 1861 1931 2081 2082
7 450 1309 1702 1893 1996 2083 2084
7 645 1264 1705 1862 1902 2085 2086
7 665 1255 1708 1851 1974 2087 2088
7 235 798 1711 1856 1998 2089 2090
7 611 1098 1715 1983 2091 2092 2093
7 491 1077 1717 1992 2094 2095 2096
7 273 1232 1720 2007 2097 2098 2099
7 692 1158 1724 1976 2100 2101 2102
7 474 860 1727 1886 2001 2103 2104
7 240 1172 1730 1872 2105 2106 2107
7 432 1064 1733 1817 2108 2109 2110
7 369 1113 1736 1840 2101 2111 2112
7 222 1220 1738 2040 2094 2113 2114
7 585 777 1742 1821 2079 2115 2116
7 481 1196 1744 1955 2117 2118 2119
7 462 1299 1747 1951 2120 2121 2122
7 553 1317 1750 2053 2092 2123 2124
7 676 855 1754 1866 2125 2126 2127
7 351 1303 1756 2073 2097 2128 2129
7 506 806 1760 1809 2130 2131 2132
7 664 1210 1763 2014 2076 2133 2134
7 317 843 1766 1888 2021 2135 2136
7 357 1225 1768 1986 2137 2138 2139
7 446 1164 1771 2050 2126 2140 2141
7 301 1277 1774 2033 2131 2142 2143
7 524 1229 1777 2055 2106 2144 2145
7 545 795 1781 1845 2045 2146 2147
7 389 1272 1784 1853 2066 2148 2149
7 484 1293 1787 1834 2121 2150 2151
7 615 1236 1790 1883 2016 2152 2153
7 427 813 1793 1826 2118 2154 2155
7 573 1289 1795 1980 2138 2156 2157
7 602 1307 1799 2009 2110 2158 2159
7 710 989 1722 2043 2160 2161 2162
7 581 1059 1691 1923 2163 2164 2165
7 675 1024 1797 2112 2166 2167 2168
7 655 1258 1506 2086 2169 2170 2171
7 403 887 1677 2069 2172 2173 2174
7 544 1146 1767 1984 2175 2176 2177
7 625 1231 1666 2153 2178 2179 2180
7 439 1316 1520 1938 2181 2182 2183
7 279 942 1622 1926 2184 2185 2186
7 505 924 1746 2107 2187 2188 2189
7 332 1089 1444 2084 2190 2191 2192
7 473 1288 1634 2037 2193 2194 2195
7 318 973 1737 1987 2196 2197 2198
7 190 1194 1490 1943 2199 2200 2201
7 375 1118 1549 2151 2202 2203 2204
7 233 1163 1593 2074 2205 2206 2207
7 670 1244 1713 2071 2208 2209 2210
7 586 870 1776 1989 2211 2212 2213
7 496 1132 1534 1940 2214 2215 2216
7 635 1039 1609 2149 2217 2218 2219
7 182 958 1579 2041 2220 2221 2222
7 383 1275 1460 2088 2223 2224 2225
7 426 1075 1755 2109 2226 2227 2228
7 292 1208 1656 1920 2229 2230 2231
7 682 1051 1384 2006 2232 2233 2234
7 109 1123 1762 2095 2235 2236 2237
7 704 1179 1638 2067 2198 2238 2239
7 694 935 1789 2025 2206 2240 2241
7 158 1055 1627 1952 2242 2243 2244
7 716 1141 1349 2130 2245 2246 2247
7 654 820 1740 1876 2223 2248 2249
7 708 743 1752 1857 2199 2250 2251
7 643 767 1574 1824 2205 2252 2253
7 632 880 1433 2030 2254 2255 2256
7 563 939 1686 1995 2227 2257 2258
7 80 949 1663 2098 2259 2260 2261
7 663 760 1779 1836 2190 2262 2263
7 688 850 1673 1889 2220 2264 2265
7 623 790 1614 1808 2202 2266 2267
7 101 999 1772 1957 2268 2269 2270
7 592 1251 1408 1979 2271 2272 2273
7 699 1152 1707 2145 2231 2274 2275
7 46 865 1718 1969 2276 2277 2278
7 558 910 1704 2114 2194 2279 2280
7 416 1033 1333 2052 2281 2282 2283
7 149 894 1796 2078 2284 2285 2286
7 518 996 1368 1915 2287 2288 2289
7 568 1100 1495 2122 2176 2290 2291
7 88 1308 1590 2056 2292 2293 2294
7 614 1182 1732 1966 2222 2295 2296
7 666 1207 1439 2115 2297 2298 2299
7 492 725 1758 1841 2181 2300 2301
7 343 731 1597 1813 2193 2302 2303
7 412 833 1558 1887 2229 2304 2305
7 616 955 1399 2047 2306 2307 2308
7 164 1191 1555 2156 2309 2310 2311
7 532 1186 1563 1901 2189 2312 2313
7 470 931 1735 1935 2203 2314 2315
7 37 1213 1456 2010 2307 2316 2317
7 647 988 1379 2135 2318 2319 2320
7 609 1297 1689 2102 2186 2321 2322
7 540 1314 1364 1991 2323 2324 2325
7 144 1263 1745 2027 2305 2326 2327
7 371 884 1393 1961 2294 2328 2329
7 251 1161 1473 1975 2167 2330 2331
7 50 969 1604 2142 2324 2332 2333
7 526 905 1783 2051 2224 2271 2334
7 501 1074 1403 2154 2295 2335 2336
7 18 1142 1527 1904 2319 2337 2338
7 447 736 1764 1816 2169 2339 2340
7 368 863 1480 1867 2226 2284 2341
7 597 785 1605 1863 2184 2342 2343
7 256 899 1645 2005 2179 2323 2344
7 325 922 1353 2089 2321 2345 2346
7 114 979 1517 2061 2298 2347 2348
7 576 1286 1329 2125 2314 2349 2350
7 604 1105 1786 2077 2201 2281 2351
7 67 1254 1650 1907 2343 2346 2352
7 459 1301 1469 2017 2213 2353 2354
7 434 1130 1423 1927 2311 2355 2356
7 92 1085 1751 2140 2303 2357 2358
7 515 803 1440 1847 2196 2268 2359
7 571 839 1791 1881 2214 2360 2361
7 400 754 1652 1801 2178 2332 2362
7 22 914 1721 2020 2267 2349 2363
7 261 1011 1499 2129 2209 2355 2364
7 177 1037 1418 1948 2274 2327 2365
7 424 814 1539 1823 2187 2276 2366
7 552 808 1725 1850 2172 2337 2367
7 482 856 1697 1869 2217 2347 2368
7 265 1242 1323 2012 2240 2369 2370
7 134 1019 1696 1930 2265 2335 2371
7 464 1015 1701 2139 2182 2287 2372
7 537 1219 1503 2159 2165 2328 2373
7 73 1044 1775 2044 2253 2369 2374
7 306 1269 1343 1896 2279 2358 2375
7 173 773 1464 1829 2175 2235 2376
7 206 826 1630 1874 2208 2309 2377
7 274 749 1659 1855 2163 2292 2378
7 9 1173 1452 2123 2234 2340 2379
7 390 966 1428 2081 2244 2353 2380
7 218 1095 1571 1913 2218 2297 2381
7 58 1271 1586 2133 2289 2301 2382
7 348 1306 1567 1946 2174 2318 2383
7 486 1201 1389 2018 2261 2330 2384
7 122 1292 1487 1977 2256 2361 2385
7 451 1171 1359 2146 2278 2312 2386
7 360 1155 1729 1956 2192 2245 2387
7 197 1112 1338 2103 2238 2270 2388
7 2 1065 1547 1997 2246 2263 2389
7 223 1006 1682 2035 2170 2232 2390
7 211 1222 1477 2060 2162 2306 2391
7 127 1114 1672 2117 2249 2272 2392
7 241 1082 1373 1967 2237 2290 2393
7 313 844 1511 1895 2211 2242 2394
7 231 796 1530 1806 2166 2259 2395
7 300 778 1709 1835 2160 2316 2396
7 285 1282 1414 2063 2257 2286 2397
7 353 1228 1641 2093 2216 2254 2398
7 29 1235 1621 2000 2251 2283 2399
7 312 896 1669 1802 2326 2400 2401
7 595 867 1602 1805 2374 2402 2403
7 169 1048 1543 1811 2382 2404 2405
7 299 1126 1773 1814 2352 2406 2407
7 420 970 1583 1819 2236 2408 2409
7 410 1023 1516 1820 2392 2410 2411
7 203 1266 1694 1827 2385 2412 2413
7 570 1057 1794 1830 2371 2414 2415
7 685 981 1553 1832 2285 2416 2417
7 363 1117 1484 1839 2310 2418 2419
7 478 1192 1743 1842 2243 2420 2421
7 490 1257 1716 1844 2389 2422 2423
7 640 1068 1454 1849 2333 2424 2425
7 660 1215 1761 1852 2277 2426 2427
7 396 1274 1648 1858 2317 2428 2429
7 651 1295 1626 1860 2348 2430 2431
7 272 1003 1719 1864 2399 2432 2433
7 511 917 1449 1870 2357 2434 2435
7 549 950 1749 1873 2269 2436 2437
7 227 1087 1618 1879 2293 2438 2439
7 620 1175 1588 1882 2260 2440 2441
7 445 1310 1770 1884 2338 2442 2443
7 339 1239 1525 1890 2379 2444 2445
7 705 1144 1662 1892 2363 2446 2447
7 381 871 1660 1897 2384 2448 2449
7 200 954 1681 1899 2195 2450 2451
7 130 934 1429 1906 2368 2438 2452
7 10 903 1339 1909 2367 2408 2453
7 454 875 1700 1912 2177 2454 2455
7 239 1026 1710 1916 2325 2456 2457
7 534 724 1550 1918 2351 2411 2458
7 210 838 1595 1921 2322 2433 2459
7 352 742 1757 1924 2296 2403 2460
7 386 926 1512 1928 2299 2461 2462
7 59 908 1358 1932 2262 2420 2463
7 289 984 1640 1934 2210 2449 2464
7 260 737 1582 1937 2398 2423 2461
7 221 761 1739 1939 2383 2415 2465
7 463 821 1748 1941 2387 2447 2456
7 504 882 1498 1944 2228 2463 2466
7 431 991 1792 1949 2356 2467 2468
7 3 1103 1374 1953 2366 2418 2469
7 578 918 1502 1954 2168 2470 2471
7 121 1014 1413 1959 2264 2440 2450
7 476 1040 1726 1962 2233 2458 2472
7 268 963 1476 1963 2180 2473 2474
7 628 888 1606 1968 2308 2475 2476
7 32 1150 1388 1972 2266 2428 2454
7 394 1050 1782 1973 2230 2469 2477
7 53 929 1354 1978 2396 2400 2478
7 186 1148 1631 1981 2397 2474 2479
7 457 748 1461 1982 2275 2405 2480
7 606 832 1667 1985 2241 2435 2481
7 345 784 1635 1988 2239 2401 2482
7 334 975 1465 1993 2386 2471 2483
7 244 1204 1728 1994 2183 2468 2484
7 95 938 1378 1999 2339 2406 2485
7 163 898 1404 2002 2360 2436 2486
7 488 1137 1785 2004 2164 2476 2487
7 192 1076 1531 2008 2350 2465 2488
7 25 1181 1394 2011 2395 2404 2489
7 510 1060 1759 2013 2393 2451 2490
7 329 1129 1644 2015 2207 2453 2491
7 657 959 1441 2019 2320 2492 2493
7 141 1099 1438 2022 2248 2442 2470
7 308 1168 1566 2023 2171 2457 2494
7 38 1004 1324 2028 2342 2416 2495
7 294 1233 1698 2032 2273 2460 2496
7 669 1029 1706 2034 2212 2493 2497
7 565 827 1447 2036 2372 2445 2475
7 601 766 1798 2039 2315 2417 2498
7 216 809 1658 2042 2354 2407 2499
7 85 1009 1328 2046 2250 2426 2473
7 441 1120 1540 2048 2247 2459 2500
7 542 1069 1688 2049 2161 2462 2501
7 323 1245 1765 2054 2375 2498 2502
7 115 1154 1419 2057 2394 2434 2503
7 649 994 1703 2059 2197 2452 2504
7 72 1177 1398 2062 2362 2412 2497
7 638 944 1559 2064 2380 2455 2505
7 179 1200 1570 2065 2225 2495 2502
7 358 851 1769 2068 2313 2437 2506
7 247 779 1493 2070 2373 2413 2492
7 697 730 1612 2072 2334 2425 2467
7 593 1110 1468 2075 2219 2488 2507
7 64 1217 1363 2080 2252 2430 2464
7 672 1091 1674 2082 2255 2480 2508
7 525 791 1778 2083 2381 2427 2479
7 254 857 1625 2085 2391 2443 2483
7 555 755 1680 2087 2390 2431 2448
7 547 1259 1780 2090 2288 2481 2509
7 719 1035 1494 2091 2188 2485 2510
7 15 1226 1344 2096 2359 2424 2484
7 137 1296 1424 2099 2341 2444 2487
7 417 1081 1472 2100 2204 2486 2511
7 678 1133 1753 2104 2329 2477 2512
7 612 802 1714 2105 2258 2409 2513
7 701 772 1508 2108 2280 2419 2512
7 529 845 1522 2111 2291 2439 2514
7 435 1285 1731 2113 2215 2472 2515
7 498 1165 1481 2116 2336 2499 2510
7 106 1159 1348 2119 2300 2414 2507
7 372 1313 1734 2120 2200 2503 2509
7 150 1185 1434 2124 2377 2432 2516
7 406 1209 1598 2127 2388 2466 2517
7 619 1249 1788 2128 2185 2489 2508
7 282 1290 1653 2132 2370 2506 2511
7 79 1094 1334 2134 2378 2402 2518
7 583 1276 1615 2136 2282 2482 2519
7 683 1240 1637 2137 2173 2500 2516
7 155 1221 1409 2141 2304 2446 2494
7 100 1300 1383 2143 2302 2422 2501
7 520 1281 1562 2144 2191 2496 2518
7 712 1195 1575 2147 2345 2504 2514
7 468 815 1693 2148 2331 2421 2517
7 691 862 1723 2150 2344 2441 2490
7 561 797 1537 2152 2364 2429 2505
7 588 1318 1741 2155 2365 2491 2513
7 43 1304 1369 2157 2376 2410 2515
7 633 1268 1685 2158 2221 2478 2519
