# Generated using Miratope v0.5.0 (https://github.com/galoomba1/miratope-rs)
4OFF

# Vertices, Faces, Edges, Cells
120 3720 1200 1320

# Vertices
0.809016994374945 -0.809016994374945 -0.809016994374945 0.809016994374945 
0 -1.61803398874989 0 0 
0 0 -1.61803398874989 0 
-0.5 -0.809016994374945 0 1.30901699437495 
-0.809016994374945 -0.809016994374945 -0.809016994374945 -0.809016994374945 
-1.30901699437495 0 -0.809016994374945 0.5 
0.809016994374945 0.809016994374945 -0.809016994374945 0.809016994374945 
-0.809016994374945 0.809016994374945 -0.809016994374945 0.809016994374945 
0.809016994374945 0 0.5 1.30901699437495 
-0.809016994374945 -0.809016994374945 -0.809016994374945 0.809016994374945 
-0.809016994374945 0 0.5 1.30901699437495 
-0.809016994374945 -0.809016994374945 0.809016994374945 0.809016994374945 
-0.809016994374945 -0.809016994374945 0.809016994374945 -0.809016994374945 
-1.30901699437495 0.5 0 0.809016994374945 
-1.30901699437495 0.5 0 -0.809016994374945 
0.809016994374945 0.809016994374945 -0.809016994374945 -0.809016994374945 
0.809016994374945 -0.809016994374945 -0.809016994374945 -0.809016994374945 
-0.809016994374945 0.809016994374945 -0.809016994374945 -0.809016994374945 
0 0.809016994374945 -1.30901699437495 0.5 
0 -0.809016994374945 -1.30901699437495 0.5 
0.809016994374945 -0.809016994374945 0.809016994374945 0.809016994374945 
0.809016994374945 -0.809016994374945 0.809016994374945 -0.809016994374945 
-0.5 -1.30901699437495 0.809016994374945 0 
-0.5 -1.30901699437495 -0.809016994374945 0 
0 0 0 1.61803398874989 
-1.61803398874989 0 0 0 
0 1.30901699437495 0.5 0.809016994374945 
-0.809016994374945 0.5 1.30901699437495 0 
-0.809016994374945 0.809016994374945 0.809016994374945 -0.809016994374945 
0 0 0 -1.61803398874989 
0 1.30901699437495 -0.5 -0.809016994374945 
-0.809016994374945 0.5 -1.30901699437495 0 
0 1.61803398874989 0 0 
1.30901699437495 0 -0.809016994374945 0.5 
0.5 0.809016994374945 0 1.30901699437495 
0.809016994374945 0.809016994374945 0.809016994374945 0.809016994374945 
1.61803398874989 0 0 0 
0.809016994374945 -0.5 1.30901699437495 0 
0 -1.30901699437495 0.5 0.809016994374945 
0 0 1.61803398874989 0 
-0.5 -0.809016994374945 0 -1.30901699437495 
-1.30901699437495 0 0.809016994374945 -0.5 
0.809016994374945 -0.5 -1.30901699437495 0 
0 -1.30901699437495 -0.5 -0.809016994374945 
-0.809016994374945 0.809016994374945 0.809016994374945 0.809016994374945 
0.5 1.30901699437495 0.809016994374945 0 
0.5 1.30901699437495 -0.809016994374945 0 
0 0.809016994374945 1.30901699437495 -0.5 
0 -0.809016994374945 1.30901699437495 -0.5 
0.809016994374945 0.809016994374945 0.809016994374945 -0.809016994374945 
1.30901699437495 -0.5 0 0.809016994374945 
1.30901699437495 -0.5 0 -0.809016994374945 
0.809016994374945 0 -0.5 -1.30901699437495 
-0.809016994374945 0 -0.5 -1.30901699437495 
1.30901699437495 0 0.809016994374945 -0.5 
0.5 0.809016994374945 0 -1.30901699437495 
-0.809016994374945 1.30901699437495 0 0.5 
0 0.5 -0.809016994374945 1.30901699437495 
-0.5 0 1.30901699437495 0.809016994374945 
-1.30901699437495 -0.809016994374945 0.5 0 
0 -0.5 -0.809016994374945 1.30901699437495 
0.809016994374945 -1.30901699437495 0 0.5 
-0.5 0 -1.30901699437495 -0.809016994374945 
-1.30901699437495 -0.809016994374945 -0.5 0 
0 -0.5 0.809016994374945 -1.30901699437495 
0.809016994374945 -1.30901699437495 0 -0.5 
1.30901699437495 0.809016994374945 -0.5 0 
0.5 0 -1.30901699437495 -0.809016994374945 
-0.809016994374945 1.30901699437495 0 -0.5 
0 0.5 0.809016994374945 -1.30901699437495 
1.30901699437495 0.809016994374945 0.5 0 
0.5 0 1.30901699437495 0.809016994374945 
0.5 0 -1.30901699437495 0.809016994374945 
0 -1.30901699437495 -0.5 0.809016994374945 
-0.809016994374945 0 -0.5 1.30901699437495 
-1.30901699437495 0.809016994374945 -0.5 0 
-0.809016994374945 -1.30901699437495 0 0.5 
-1.30901699437495 -0.5 0 -0.809016994374945 
0 0.809016994374945 -1.30901699437495 -0.5 
-1.30901699437495 0 -0.809016994374945 -0.5 
-0.809016994374945 -1.30901699437495 0 -0.5 
-0.809016994374945 -0.5 -1.30901699437495 0 
0.5 -0.809016994374945 0 1.30901699437495 
0.5 -1.30901699437495 -0.809016994374945 0 
0.809016994374945 0 -0.5 1.30901699437495 
0 -0.5 0.809016994374945 1.30901699437495 
-0.5 0 -1.30901699437495 0.809016994374945 
-1.30901699437495 -0.5 0 0.809016994374945 
0 -0.809016994374945 -1.30901699437495 -0.5 
1.30901699437495 -0.809016994374945 -0.5 0 
0.809016994374945 0.5 -1.30901699437495 0 
0.5 -1.30901699437495 0.809016994374945 0 
0 -1.30901699437495 0.5 -0.809016994374945 
0 -0.5 -0.809016994374945 -1.30901699437495 
-0.5 0.809016994374945 0 1.30901699437495 
-1.30901699437495 0.809016994374945 0.5 0 
-0.5 1.30901699437495 -0.809016994374945 0 
0 0.5 -0.809016994374945 -1.30901699437495 
0 0.5 0.809016994374945 1.30901699437495 
-1.30901699437495 0 0.809016994374945 0.5 
1.30901699437495 0 -0.809016994374945 -0.5 
-0.809016994374945 0 0.5 -1.30901699437495 
1.30901699437495 -0.809016994374945 0.5 0 
0 -0.809016994374945 1.30901699437495 0.5 
0.5 -0.809016994374945 0 -1.30901699437495 
1.30901699437495 0.5 0 0.809016994374945 
0 1.30901699437495 -0.5 0.809016994374945 
-0.809016994374945 -0.5 1.30901699437495 0 
1.30901699437495 0 0.809016994374945 0.5 
-0.5 0.809016994374945 0 -1.30901699437495 
-0.5 1.30901699437495 0.809016994374945 0 
-0.5 0 1.30901699437495 -0.809016994374945 
0.809016994374945 0 0.5 -1.30901699437495 
0 0.809016994374945 1.30901699437495 0.5 
0.809016994374945 1.30901699437495 0 0.5 
1.30901699437495 0.5 0 -0.809016994374945 
0.5 0 1.30901699437495 -0.809016994374945 
0.809016994374945 1.30901699437495 0 -0.5 
0.809016994374945 0.5 1.30901699437495 0 
0 1.30901699437495 0.5 -0.809016994374945 

# Faces
4 0 1 4 2
3 0 1 3
4 2 0 3 5
4 4 5 3 1
3 2 5 4
4 0 9 7 6
3 0 8 6
4 7 6 8 10
4 9 10 8 0
3 7 9 10
4 12 4 9 11
4 12 14 13 11
3 11 9 13
3 12 4 14
4 4 14 13 9
4 15 16 4 17
4 15 16 19 18
3 15 17 18
3 16 4 19
4 4 17 18 19
4 20 0 16 21
4 20 0 23 22
3 21 22 20
3 16 23 0
4 21 16 23 22
4 7 24 11 25
3 7 24 26
4 7 25 27 26
4 24 26 27 11
3 25 27 11
4 28 29 4 25
4 28 25 31 30
3 29 30 28
3 25 31 4
4 29 4 31 30
4 32 15 2 7
4 32 34 33 15
3 15 33 2
3 32 34 7
4 7 2 33 34
4 36 35 24 0
3 35 36 37
4 24 38 37 35
4 0 36 37 38
3 0 24 38
4 21 39 11 1
4 21 40 41 39
3 21 40 1
3 11 39 41
4 11 1 40 41
4 15 36 21 29
3 15 36 42
4 15 29 43 42
4 21 36 42 43
3 29 43 21
4 44 28 17 7
3 44 28 45
4 44 7 46 45
4 17 28 45 46
3 7 17 46
4 35 20 11 44
4 20 35 47 48
3 44 47 35
3 20 48 11
4 11 44 47 48
4 49 35 6 15
4 35 50 51 49
3 35 6 50
3 15 51 49
4 6 50 51 15
4 49 28 12 21
3 49 52 21
4 28 53 52 49
4 21 12 53 52
3 12 53 28
4 32 35 39 28
4 35 54 55 32
3 39 54 35
3 28 55 32
4 39 54 55 28
4 25 17 2 9
3 17 25 56
4 2 57 56 17
4 9 25 56 57
3 9 2 57
4 24 9 1 20
3 24 58 20
4 1 59 58 20
4 24 58 59 9
3 9 59 1
4 6 36 16 2
4 6 36 61 60
3 2 60 6
3 36 61 16
4 2 16 61 60
4 16 29 12 1
4 1 16 62 63
3 16 62 29
3 12 63 1
4 29 62 63 12
4 36 20 39 49
4 49 64 65 36
3 49 39 64
3 20 65 36
4 20 65 64 39
4 32 49 29 17
3 49 32 66
4 49 66 67 29
4 32 66 67 17
3 29 67 17
4 44 25 12 39
4 44 68 69 39
3 44 25 68
3 39 69 12
4 25 68 69 12
4 6 32 44 24
3 32 70 6
4 24 71 70 6
4 44 32 70 71
3 44 24 71
4 24 72 31 13
4 24 73 63 13
3 72 73 24
3 13 31 63
4 73 63 31 72
4 74 76 77 75
4 74 75 62 19
3 76 19 74
3 77 62 75
4 76 77 62 19
4 60 7 78 42
4 7 79 23 60
3 78 79 7
3 42 23 60
4 78 42 23 79
4 25 80 38 10
4 10 60 81 25
3 80 81 25
3 10 60 38
4 38 60 81 80
4 82 74 18 33
3 33 82 83
4 18 33 83 81
4 82 83 81 74
3 74 18 81
4 9 83 67 31
4 31 9 80 53
3 83 80 9
3 31 53 67
4 67 83 80 53
3 85 61 84
4 84 85 87 86
4 84 86 23 61
4 85 87 23 61
3 86 23 87
3 87 22 73
4 22 40 79 87
4 87 79 88 73
4 73 88 40 22
3 79 40 88
4 90 89 73 86
4 89 43 62 90
3 89 73 43
3 86 62 90
4 73 43 62 86
3 11 82 91
4 11 82 19 63
4 91 43 63 11
4 82 91 43 19
3 19 43 63
4 9 72 50 38
3 9 72 88
4 9 88 65 38
4 72 50 65 88
3 50 65 38
4 61 42 81 76
4 42 93 92 61
3 76 92 61
3 81 93 42
4 92 93 81 76
4 94 95 59 3
3 3 86 94
4 94 95 79 86
4 86 3 59 79
3 59 79 95
4 86 96 14 63
4 96 86 88 97
3 96 97 14
3 86 63 88
4 14 97 88 63
4 84 90 96 94
4 94 84 19 5
3 84 19 90
3 94 5 96
4 96 5 19 90
3 98 57 82
4 82 76 99 98
4 98 57 5 99
4 57 5 76 82
3 5 76 99
4 57 46 100 0
4 0 57 31 88
3 0 88 100
3 46 31 57
4 46 100 88 31
4 5 59 101 17
4 5 17 93 23
3 17 101 93
3 5 23 59
4 101 93 23 59
3 102 103 8
4 8 60 83 102
4 103 76 60 8
4 103 102 83 76
3 60 76 83
4 4 83 38 59
4 59 48 104 4
3 83 104 4
3 38 59 48
4 48 38 83 104
3 1 102 104
4 1 102 33 19
4 104 67 19 1
4 102 33 67 104
3 33 67 19
3 3 99 103
4 3 103 92 23
4 103 99 77 92
4 3 99 77 23
3 92 77 23
3 20 89 105
4 105 20 3 57
4 89 19 3 20
4 105 89 19 57
3 3 19 57
3 100 97 2
4 100 2 23 65
4 2 97 40 23
4 100 97 40 65
3 65 40 23
4 30 67 72 106
3 106 75 30
4 106 72 81 75
4 75 81 67 30
3 72 67 81
4 34 44 75 18
4 44 87 60 34
3 44 75 87
3 60 18 34
4 60 18 75 87
4 68 41 87 7
4 68 7 81 53
3 7 81 87
3 68 53 41
4 41 53 81 87
3 37 107 85
4 85 37 65 73
4 107 80 65 37
4 85 107 80 73
3 73 80 65
4 84 42 51 108
4 84 108 91 73
3 51 91 108
3 84 42 73
4 91 73 42 51
4 91 64 52 89
4 89 91 80 88
3 89 88 52
3 91 64 80
4 64 80 88 52
3 85 74 44
4 44 85 22 41
4 44 74 63 41
4 85 74 63 22
3 22 63 41
3 52 109 78
4 109 52 43 77
4 52 43 81 78
4 78 109 77 81
3 81 43 77
4 24 106 66 50
4 50 24 86 42
3 24 86 106
3 50 42 66
4 106 86 42 66
4 71 34 74 11
4 11 73 50 71
3 11 73 74
3 71 50 34
4 50 34 74 73
4 51 83 72 66
4 51 93 78 66
3 66 72 78
3 51 83 93
4 72 78 93 83
3 25 76 107
4 107 25 53 64
4 76 43 53 25
4 107 76 43 64
3 53 43 64
4 32 18 5 95
3 95 109 32
4 32 109 62 18
4 109 62 5 95
3 18 62 5
4 26 13 86 6
4 6 26 68 78
3 6 78 86
3 26 13 68
4 68 78 86 13
4 106 110 99 74
4 106 31 14 110
3 110 14 99
3 74 31 106
4 99 74 31 14
3 108 98 39
4 108 61 22 39
4 39 98 3 22
4 98 3 61 108
3 3 22 61
3 0 90 105
4 105 54 65 0
4 90 52 65 0
4 54 52 90 105
3 65 52 54
4 112 111 22 65
4 112 93 77 111
3 111 22 77
3 112 65 93
4 22 65 93 77
4 27 71 91 12
4 12 76 10 27
3 91 76 12
3 71 10 27
4 10 76 91 71
4 101 55 67 4
3 101 92 4
4 4 67 51 92
3 55 67 51
4 55 101 92 51
4 70 34 82 102
4 34 70 100 72
3 70 100 102
3 34 72 82
4 82 102 100 72
3 113 94 8
4 8 113 107 38
4 8 38 87 94
4 113 107 87 94
3 107 87 38
4 114 84 89 115
3 114 18 84
4 114 115 67 18
4 84 18 67 89
3 89 67 115
4 69 41 80 104
4 41 69 97 79
3 104 97 69
3 41 79 80
4 104 80 79 97
3 82 89 1
4 82 71 48 1
4 1 48 54 89
4 71 82 89 54
3 71 54 48
3 12 116 103
4 116 12 43 51
4 12 103 61 43
4 116 51 61 103
3 61 43 51
4 37 112 100 50
4 50 83 92 37
3 100 83 50
3 37 112 92
4 112 100 83 92
4 46 68 79 2
4 46 2 93 55
3 79 93 2
3 46 55 68
4 68 79 93 55
4 56 10 107 28
4 28 56 5 77
3 28 107 77
3 56 5 10
4 10 107 77 5
4 98 56 46 105
4 98 74 72 105
3 46 72 105
3 98 56 74
4 56 46 72 74
3 6 117 96
4 117 52 42 6
4 6 96 62 42
4 117 52 62 96
3 42 62 52
4 35 84 3 58
3 35 106 84
4 35 106 13 58
4 106 13 3 84
3 58 13 3
4 111 99 75 109
4 111 40 63 99
3 111 109 40
3 99 63 75
4 109 40 63 75
3 30 90 115
4 30 53 104 115
4 90 88 104 115
4 30 53 88 90
3 104 53 88
4 58 95 101 48
4 58 87 80 48
3 95 87 58
3 48 101 80
4 95 101 80 87
4 108 114 94 85
3 108 33 114
4 85 60 33 108
4 114 94 60 33
3 94 60 85
4 118 58 38 102
3 58 111 118
4 118 111 92 102
4 111 58 38 92
3 38 92 102
3 16 115 102
4 16 40 48 102
4 115 16 40 69
4 102 48 69 115
3 48 40 69
3 118 115 21
4 21 118 8 61
4 115 21 61 33
4 118 8 33 115
3 8 61 33
3 56 119 114
4 114 90 31 56
4 114 119 97 90
4 119 56 31 97
3 90 97 31
4 27 119 96 13
3 119 101 27
4 27 13 79 101
4 96 79 101 119
3 96 79 13
4 114 113 10 57
4 113 114 96 95
3 114 57 96
3 113 10 95
4 57 96 95 10
4 16 33 70 112
4 16 97 46 33
3 16 97 112
3 70 33 46
4 70 46 97 112
3 118 26 105
4 118 105 82 103
4 105 26 10 82
4 26 118 103 10
3 10 103 82
4 116 27 14 29
3 29 92 116
4 14 59 92 29
4 27 116 92 59
3 27 59 14
3 15 112 119
4 15 119 14 62
4 15 112 40 62
4 112 119 14 40
3 14 62 40
4 98 110 111 103
3 110 13 98
4 103 98 13 59
4 110 13 59 111
3 111 59 103
4 36 117 26 8
4 36 90 57 8
3 36 117 90
3 8 57 26
4 117 26 57 90
4 108 66 55 116
3 66 89 108
4 108 116 104 89
4 66 89 104 55
3 116 104 55
4 113 85 50 70
3 70 116 113
4 50 70 116 91
4 85 91 116 113
3 85 91 50
4 54 91 107 47
4 54 104 101 47
3 54 104 91
3 47 101 107
4 107 91 104 101
3 54 100 117
4 54 64 109 117
4 54 64 93 100
4 117 109 93 100
3 109 93 64
3 113 99 28
4 28 64 37 113
4 99 28 64 22
4 113 99 22 37
3 37 64 22
4 98 20 54 45
3 98 84 20
4 54 66 84 20
4 98 84 66 45
3 66 54 45
3 117 69 110
4 110 75 78 117
4 117 78 53 69
4 69 110 75 53
3 78 53 75
4 35 66 30 110
4 66 18 94 35
3 110 94 35
3 30 18 66
4 110 94 18 30
4 94 32 47 58
3 32 75 94
4 47 41 75 32
4 94 58 41 75
3 58 47 41
3 105 45 106
4 105 45 55 100
4 106 78 100 105
4 45 55 78 106
3 100 78 55
4 17 95 47 55
3 95 77 17
4 17 77 64 55
4 95 77 64 47
3 47 55 64
4 39 85 34 45
4 45 56 99 39
3 85 99 39
3 34 56 45
4 34 56 99 85
4 29 119 70 51
3 119 111 29
4 51 29 111 37
4 70 119 111 37
3 37 51 70
4 105 71 47 117
3 71 102 105
4 117 112 102 105
4 47 71 102 112
3 117 112 47
3 21 103 108
4 21 108 45 69
4 21 103 27 69
4 108 103 27 45
3 45 69 27
3 36 114 118
4 36 114 30 52
4 118 69 52 36
4 118 69 30 114
3 30 52 69
4 110 41 48 118
4 110 109 112 118
3 48 112 118
3 110 109 41
4 48 41 109 112
4 114 49 37 8
3 49 114 110
4 49 110 58 37
4 8 114 110 58
3 37 58 8
3 115 116 45
4 45 68 97 115
4 45 68 101 116
4 115 97 101 116
3 101 97 68
3 108 113 34
4 34 46 115 108
4 113 119 115 108
4 34 46 119 113
3 115 119 46
4 26 119 116 71
4 71 107 95 26
3 116 107 71
3 26 95 119
4 119 116 107 95
4 15 70 26 96
4 70 47 109 15
3 96 109 15
3 70 47 26
4 26 96 109 47
3 49 111 113
4 113 49 30 56
4 111 49 30 14
4 56 113 111 14
3 30 14 56
4 98 118 117 106
3 118 27 98
4 117 118 27 68
4 106 68 27 98
3 117 68 106
4 0 100 104 1
3 0 2 100
3 4 104 1
4 2 100 104 4
4 6 78 88 0
3 7 78 6
3 0 88 9
4 7 78 88 9
3 12 91 11
4 11 9 83 91
4 12 4 83 91
3 4 83 9
3 16 15 112
4 15 17 101 112
4 4 101 112 16
3 17 101 4
3 20 105 0
4 20 105 115 21
4 16 0 105 115
3 21 115 16
4 7 81 73 24
3 25 7 81
3 11 73 24
4 11 25 81 73
3 25 28 107
4 28 29 92 107
4 25 4 92 107
3 4 92 29
3 32 15 109
4 2 15 109 79
4 7 32 109 79
3 2 79 7
4 36 90 106 35
3 35 106 24
3 0 36 90
4 24 106 90 0
3 21 108 39
4 1 82 108 21
4 39 108 82 11
3 11 82 1
4 15 119 118 36
3 15 29 119
3 21 36 118
4 29 21 118 119
4 28 44 87 77
3 44 7 87
3 17 77 28
4 17 7 87 77
3 35 84 20
4 44 35 84 74
4 11 20 84 74
3 44 11 74
3 49 110 35
4 6 96 110 35
4 49 110 96 15
3 6 96 15
4 49 21 103 113
3 49 113 28
3 12 21 103
4 12 103 113 28
3 35 32 94
4 35 39 99 94
4 32 28 99 94
3 28 99 39
4 17 93 80 25
3 17 2 93
3 25 9 80
4 2 93 80 9
4 20 24 72 89
3 20 89 1
3 9 72 24
4 1 89 72 9
3 6 36 117
4 6 2 97 117
4 16 36 117 97
3 16 97 2
3 1 102 16
4 16 102 116 29
4 12 1 102 116
3 29 116 12
3 36 114 49
4 39 98 114 49
4 20 98 114 36
3 39 98 20
4 32 49 111 95
3 49 111 29
3 32 17 95
4 17 95 111 29
3 39 85 44
4 44 25 76 85
4 12 39 85 76
3 25 12 76
4 32 6 86 75
3 6 86 24
3 44 32 75
4 24 86 75 44
4 73 72 67 43
3 31 67 72
3 73 43 63
4 63 43 67 31
4 19 16 92 76
4 62 77 92 16
3 19 62 16
3 77 92 76
3 78 42 52
4 42 52 40 23
4 78 52 40 79
3 79 40 23
4 60 42 65 38
3 42 81 60
3 80 65 38
4 81 80 65 42
3 15 33 18
4 15 93 83 33
4 18 81 93 15
3 83 93 81
4 83 51 64 80
4 53 67 51 64
3 83 51 67
3 80 64 53
4 61 84 90 16
3 16 23 61
4 86 23 16 90
3 86 90 84
4 21 89 73 22
4 88 40 21 89
3 22 40 21
3 73 89 88
4 62 90 115 29
4 29 115 89 43
3 43 62 29
3 90 115 89
4 82 91 51 33
3 82 33 19
4 19 43 51 33
3 91 43 51
3 50 66 72
4 50 66 52 65
4 88 52 66 72
3 65 52 88
4 36 112 92 61
3 36 42 61
4 42 93 112 36
3 93 92 112
3 1 3 59
4 3 86 88 1
4 79 59 1 88
3 79 86 88
4 12 104 97 14
3 12 63 14
4 63 88 104 12
3 97 88 104
3 4 5 19
4 4 97 96 5
4 19 90 97 4
3 97 90 96
3 2 57 5
4 83 2 57 82
4 2 83 76 5
3 82 83 76
3 46 100 55
4 31 46 55 53
4 88 53 55 100
3 31 53 88
4 59 48 65 23
4 93 65 48 101
3 59 48 101
3 23 65 93
4 6 100 102 8
3 8 60 6
4 83 60 6 100
3 83 100 102
4 48 38 50 54
4 83 50 54 104
3 38 83 50
3 104 54 48
3 102 70 33
4 104 102 70 55
4 33 70 55 67
3 67 55 104
4 0 102 103 3
4 23 92 102 0
3 0 23 3
3 103 92 102
3 46 105 57
4 89 105 46 67
4 57 19 67 46
3 67 89 19
4 97 100 54 69
3 100 54 65
4 65 54 69 40
3 97 40 69
3 29 67 30
4 30 75 77 29
4 67 81 77 29
3 75 81 77
4 18 60 23 62
3 60 87 23
3 75 62 18
4 62 23 87 75
3 87 22 41
4 87 22 43 81
4 41 53 43 22
3 53 43 81
4 85 37 36 84
3 37 65 36
4 36 84 73 65
3 85 73 84
4 51 108 114 15
4 15 114 84 42
3 15 51 42
3 84 108 114
4 52 49 108 89
4 64 91 108 49
3 52 64 49
3 91 89 108
4 74 85 61 19
3 85 61 22
3 19 74 63
4 63 19 61 22
4 52 21 111 109
4 21 111 77 43
3 21 43 52
3 77 109 111
3 106 66 30
4 66 42 62 30
4 86 106 30 62
3 62 42 86
4 34 50 42 18
3 18 34 74
3 42 73 50
4 42 18 74 73
3 49 51 66
4 66 78 109 49
4 51 93 109 49
3 109 93 78
4 107 76 61 37
3 37 64 107
4 64 43 61 37
3 76 61 43
4 59 40 109 95
3 59 95 5
3 62 40 109
4 59 40 62 5
4 63 53 68 13
3 68 78 53
3 63 86 13
4 63 53 78 86
4 76 4 14 99
3 4 31 14
4 31 74 76 4
3 74 99 76
4 108 98 57 33
3 61 33 108
3 57 98 3
4 3 57 33 61
3 54 105 45
4 105 45 30 90
4 54 52 30 45
3 90 30 52
4 20 118 112 65
4 22 20 118 111
3 22 65 20
3 111 112 118
4 60 50 71 10
3 71 91 50
4 76 60 50 91
3 60 76 10
4 55 47 37 51
4 92 101 47 37
3 51 37 92
3 101 55 47
3 32 34 70
4 70 100 78 32
4 72 34 32 78
3 72 100 78
3 0 38 8
4 94 8 0 86
4 0 86 87 38
3 86 94 87
4 18 114 119 17
4 67 115 119 17
3 17 67 18
3 115 119 114
4 69 104 91 39
4 41 80 91 39
3 39 69 41
3 80 91 104
4 54 71 34 66
3 34 71 82
4 34 66 89 82
3 54 66 89
4 8 70 116 103
4 61 8 70 51
3 116 51 70
3 8 61 103
4 100 50 35 117
3 37 50 35
4 112 37 35 117
3 100 117 112
4 41 64 55 68
3 68 79 41
3 93 55 64
4 93 79 41 64
3 38 10 107
4 5 10 38 23
4 77 107 38 23
3 23 77 5
3 17 46 56
4 81 17 56 74
4 81 17 46 72
3 74 72 81
4 96 117 69 14
3 52 69 117
3 14 62 96
4 52 62 14 69
4 84 106 31 19
3 84 3 19
3 31 106 13
4 13 3 19 31
4 99 63 1 103
4 40 111 103 1
3 40 63 1
3 99 111 103
4 30 28 116 115
4 53 104 116 28
3 30 53 28
3 115 116 104
3 20 48 58
4 58 87 73 20
4 20 73 80 48
3 73 80 87
4 33 2 96 114
3 33 60 2
4 60 94 96 2
3 96 114 94
4 118 58 24 105
4 38 24 105 102
3 38 58 24
3 118 102 105
4 115 45 71 102
4 48 69 45 71
3 69 115 45
3 48 102 71
3 8 26 118
4 115 46 26 118
4 33 46 26 8
3 115 46 33
3 25 31 56
4 119 56 25 101
4 25 101 97 31
3 119 101 97
3 13 27 11
4 80 11 27 101
4 13 79 80 11
3 80 101 79
3 10 57 9
4 95 10 9 79
4 96 57 9 79
3 79 95 96
4 46 70 47 68
3 112 47 70
4 97 112 47 68
3 68 97 46
3 7 26 10
4 7 72 105 26
4 7 72 82 10
3 72 105 82
3 27 116 71
4 59 27 71 38
4 92 38 71 116
3 38 59 92
4 27 48 112 119
3 27 14 119
4 27 48 40 14
3 40 48 112
4 13 98 82 9
4 9 82 103 59
3 9 59 13
3 82 98 103
3 68 117 26
4 26 57 31 68
4 31 68 117 90
3 57 90 31
4 32 113 108 66
4 55 32 113 116
3 32 55 66
3 116 113 108
3 50 70 6
4 70 113 94 6
4 6 94 85 50
3 94 113 85
3 35 54 47
4 91 54 35 85
4 107 47 35 85
3 85 91 107
4 54 39 110 117
3 54 64 39
4 64 109 110 39
3 109 110 117
3 8 37 113
4 8 3 99 113
4 3 8 37 22
3 3 22 99
3 98 45 56
4 66 45 56 18
4 56 18 84 98
3 18 66 84
4 110 69 12 99
4 75 53 12 99
3 53 69 12
3 99 75 110
4 14 5 94 110
3 14 30 110
3 94 18 5
4 18 5 14 30
3 3 58 94
4 94 75 63 3
4 41 58 3 63
3 41 75 63
3 45 55 28
4 45 106 75 28
4 28 75 78 55
3 75 106 78
3 58 95 47
4 22 58 47 64
4 58 22 77 95
3 22 64 77
3 34 85 60
4 34 56 5 60
4 60 5 99 85
3 99 56 5
4 37 70 26 58
3 119 26 70
4 58 26 119 111
3 111 37 58
4 44 106 105 71
3 47 71 44
4 47 117 106 44
3 105 117 106
3 45 34 108
4 10 34 108 103
4 34 10 27 45
3 27 103 10
4 114 118 27 56
3 114 30 56
3 69 118 27
4 27 56 30 69
4 118 48 11 98
4 98 11 41 110
3 41 48 11
3 110 98 118
3 57 8 114
4 57 13 110 114
4 13 57 8 58
3 13 110 58
3 44 68 45
4 116 45 44 107
4 107 44 68 101
3 101 116 107
3 34 46 7
4 7 95 113 34
4 46 7 95 119
3 113 95 119
3 26 71 24
4 24 87 107 71
4 95 26 24 87
3 107 95 87
4 13 41 47 26
3 26 96 13
3 41 109 47
4 96 109 41 13
3 10 113 56
4 59 10 113 111
4 14 56 10 59
3 14 111 59
3 25 68 27
4 98 27 25 74
4 68 106 74 25
3 74 98 106
4 4 29 15 2
3 15 96 2
4 96 15 29 14
4 4 2 96 14
3 14 29 4
4 7 17 4 9
3 17 7 95
4 9 59 95 7
4 95 17 4 59
3 9 4 59
4 4 12 21 16
4 16 97 69 21
3 12 21 69
3 4 97 16
4 4 97 69 12
4 15 49 28 17
3 15 114 49
4 56 28 49 114
4 15 114 56 17
3 17 28 56
4 0 16 15 6
4 62 15 6 86
3 6 86 0
3 15 62 16
4 0 86 62 16
4 4 25 11 1
4 11 25 101 48
3 11 48 1
3 4 101 25
4 1 4 101 48
4 21 29 28 39
4 39 21 115 45
3 21 115 29
3 28 45 39
4 29 115 45 28
4 7 25 28 32
3 28 113 32
4 25 10 113 28
4 10 113 32 7
3 10 25 7
4 7 2 0 24
4 23 87 24 0
3 0 23 2
3 7 87 24
4 2 23 87 7
4 1 21 36 0
4 0 36 52 88
3 0 88 1
3 36 52 21
4 52 21 1 88
4 36 15 32 35
3 35 84 36
4 35 84 18 32
4 18 84 36 15
3 18 32 15
4 28 12 11 44
4 28 116 71 44
3 11 71 44
3 12 116 28
4 11 12 116 71
4 0 9 11 20
3 0 65 20
4 20 65 80 11
4 9 0 65 80
3 9 80 11
4 6 35 44 7
4 6 35 85 60
3 44 35 85
3 6 7 60
4 7 60 85 44
4 21 49 35 20
3 49 66 35
4 35 66 89 20
4 49 21 89 66
3 21 89 20
4 24 11 39 35
4 35 50 91 39
3 35 50 24
3 39 91 11
4 24 50 91 11
4 29 17 25 12
4 27 119 17 25
3 17 119 29
3 25 27 12
4 12 29 119 27
4 9 1 16 2
3 1 40 16
4 16 40 79 2
4 40 1 9 79
3 9 79 2
4 2 17 32 6
3 32 94 6
4 5 94 6 2
4 5 17 32 94
3 2 5 17
4 16 29 49 36
4 36 90 30 49
3 30 49 29
3 16 90 36
4 29 16 90 30
4 6 24 20 36
3 36 6 42
4 6 42 73 24
4 36 20 73 42
3 24 20 73
4 39 49 32 44
4 34 32 49 108
3 49 108 39
3 32 44 34
4 39 108 34 44
4 20 1 12 39
3 54 20 39
4 20 54 104 1
4 39 54 104 12
3 1 104 12
4 25 9 24 44
4 38 24 44 107
3 44 107 25
3 24 38 9
4 25 9 38 107
4 68 31 63 41
4 40 97 68 41
3 97 68 31
3 40 63 41
4 31 97 40 63
4 30 52 64 28
4 77 28 30 62
3 77 64 28
3 52 30 62
4 64 77 62 52
4 32 95 101 55
4 95 79 78 32
3 55 78 32
3 95 101 79
4 55 78 79 101
4 67 17 101 104
4 17 81 80 101
3 67 81 17
3 80 101 104
4 67 81 80 104
4 25 81 18 56
4 53 25 56 30
3 81 53 25
3 30 56 18
4 53 81 18 30
4 69 115 46 68
3 67 46 115
4 53 69 115 67
4 67 46 68 53
3 68 53 69
3 86 75 78
4 86 75 77 23
4 78 75 77 93
4 86 78 93 23
3 93 77 23
4 112 109 78 100
4 88 40 112 100
3 100 88 78
3 40 112 109
4 88 78 109 40
3 117 106 90
4 106 117 109 75
4 90 62 109 117
4 75 106 90 62
3 62 75 109
4 53 31 90 52
4 43 52 90 19
3 90 19 31
3 52 53 43
4 53 43 19 31
3 46 72 7
4 46 97 79 7
4 79 7 72 88
4 88 97 46 72
3 88 79 97
4 55 17 18 66
3 93 55 17
4 93 17 18 42
4 42 66 55 93
3 66 18 42
4 79 109 111 59
4 93 109 111 92
3 111 59 92
3 93 109 79
4 93 79 59 92
4 110 111 112 117
4 14 110 117 97
3 112 117 97
3 14 111 110
4 14 111 112 97
4 99 5 96 110
3 109 96 110
4 77 109 110 99
4 96 109 77 5
3 5 77 99
4 5 14 12 76
4 14 62 43 12
3 43 12 76
3 5 14 62
4 76 43 62 5
3 119 26 46
4 31 46 26 13
4 14 119 26 13
4 46 119 14 31
3 13 31 14
4 51 116 119 15
4 101 93 15 119
3 51 93 15
3 101 116 119
4 51 93 101 116
4 4 83 60 5
4 4 5 18 67
3 83 4 67
3 18 60 5
4 83 67 18 60
3 33 83 2
4 33 2 97 115
4 104 97 2 83
4 104 83 33 115
3 104 115 97
3 114 57 33
4 67 33 114 30
4 31 57 114 30
4 31 57 33 67
3 31 67 30
3 92 51 29
4 62 42 51 29
4 23 62 29 92
4 42 23 92 51
3 42 23 62
3 96 13 57
4 19 57 96 62
4 63 19 57 13
4 63 62 96 13
3 62 63 19
3 70 6 100
4 6 70 119 96
4 97 100 6 96
4 100 70 119 97
3 97 96 119
4 45 30 75 44
4 41 44 45 69
3 44 41 75
3 69 45 30
4 30 69 41 75
4 75 28 107 87
4 53 28 107 80
3 53 28 75
3 107 87 80
4 80 87 75 53
4 48 104 55 47
3 48 41 47
4 53 55 47 41
4 48 41 53 104
3 53 55 104
4 73 65 100 72
4 93 100 72 81
3 100 93 65
3 72 73 81
4 81 73 65 93
3 106 84 74
4 42 84 106 78
4 81 74 84 42
4 81 74 106 78
3 42 78 81
4 89 52 117 105
4 78 117 105 72
3 89 72 105
3 52 78 117
4 89 72 78 52
3 65 22 64
4 63 88 65 22
4 65 64 53 88
4 53 63 22 64
3 88 63 53
4 32 47 54 66
4 32 109 52 66
3 32 47 109
3 52 66 54
4 52 54 47 109
3 68 106 44
4 87 86 106 44
4 44 87 79 68
4 86 79 68 106
3 87 79 86
3 31 74 25
4 25 74 73 80
4 25 31 88 80
4 88 31 74 73
3 73 80 88
4 34 45 68 7
4 7 78 66 34
3 78 68 7
3 45 34 66
4 66 45 68 78
4 54 89 67 55
4 43 89 54 64
3 55 64 54
3 89 43 67
4 64 55 67 43
4 113 95 109 49
4 64 49 113 107
3 64 109 49
3 113 95 107
4 64 109 95 107
4 68 47 58 13
4 59 58 47 101
3 58 13 59
3 101 68 47
4 59 13 68 101
4 69 14 99 39
3 22 39 99
4 22 39 69 40
4 99 22 40 14
3 40 14 69
4 61 3 86 42
4 3 63 43 61
3 86 63 3
3 42 61 43
4 63 43 42 86
3 24 105 26
4 90 86 24 105
4 26 96 86 24
4 90 105 26 96
3 86 96 90
3 112 70 15
4 15 70 50 42
4 112 15 42 65
4 50 70 112 65
3 65 42 50
4 104 91 76 4
3 19 76 4
4 19 4 104 89
3 91 104 89
4 19 76 91 89
4 108 45 46 33
4 51 55 45 108
3 108 33 51
3 46 55 45
4 55 51 33 46
4 72 9 10 34
4 10 9 31 56
3 31 9 72
3 10 34 56
4 72 31 56 34
4 83 38 87 81
4 87 77 92 38
3 38 92 83
3 81 77 87
4 92 83 81 77
3 110 114 98
4 74 98 114 18
4 75 110 114 18
4 74 98 110 75
3 74 18 75
4 102 118 117 100
3 117 118 69
4 102 104 69 118
4 117 69 104 100
3 102 104 100
3 57 9 82
4 88 9 82 89
4 9 57 90 88
4 82 89 90 57
3 90 88 89
4 66 84 61 51
4 19 67 66 84
3 66 51 67
3 61 19 84
4 19 61 51 67
3 100 46 2
4 60 34 46 2
4 100 2 60 50
4 46 34 50 100
3 60 50 34
4 116 27 26 70
4 68 55 70 26
3 116 55 70
3 27 68 26
4 55 116 27 68
4 29 77 107 116
4 43 91 116 29
3 43 77 29
3 91 107 116
4 91 107 77 43
4 74 11 27 56
4 11 27 14 63
3 63 11 74
3 14 56 27
4 63 74 56 14
4 96 94 35 117
3 35 117 47
4 35 94 95 47
4 96 95 47 117
3 94 95 96
4 41 13 3 22
4 3 23 79 13
3 23 22 3
3 41 13 79
4 23 22 41 79
3 37 111 49
4 65 52 49 37
4 40 52 49 111
4 40 111 37 65
3 40 52 65
4 118 110 106 105
3 118 105 115
4 106 30 115 105
4 115 118 110 30
3 30 110 106
3 102 112 48
4 80 83 102 48
4 83 93 112 102
4 112 48 80 93
3 80 93 83
4 76 60 94 99
4 81 60 94 75
3 99 94 75
3 60 76 81
4 81 76 99 75
3 33 16 102
4 102 16 23 38
4 60 23 16 33
4 102 38 60 33
3 23 38 60
3 0 102 8
4 0 8 114 90
4 0 102 115 90
4 115 102 8 114
3 115 90 114
4 18 94 8 33
3 3 8 94
4 33 8 3 19
4 94 18 19 3
3 18 33 19
4 98 118 119 56
4 111 99 98 118
3 111 118 119
3 98 56 99
4 111 119 56 99
3 118 27 103
4 112 101 27 118
4 103 118 112 92
4 103 27 101 92
3 101 112 92
4 103 10 95 111
3 103 10 76
4 77 95 10 76
4 76 103 111 77
3 111 95 77
3 8 70 113
4 46 70 8 57
4 46 56 113 70
4 8 57 56 113
3 57 46 56
4 59 10 82 1
3 19 1 82
4 1 19 5 59
4 19 82 10 5
3 5 10 59
4 16 115 108 61
4 116 115 16 92
3 61 16 92
3 108 115 116
4 92 61 108 116
4 113 37 36 114
4 119 112 36 114
3 37 112 36
3 114 113 119
4 37 112 119 113
3 103 21 61
4 40 59 103 21
4 61 21 40 23
4 23 61 103 59
3 23 59 40
4 57 26 58 3
3 95 26 58
4 57 5 95 26
4 3 58 95 5
3 5 57 3
4 66 108 98 106
3 98 108 82
4 66 108 82 72
4 98 106 72 82
3 106 66 72
4 72 74 85 50
4 83 50 85 76
3 50 83 72
3 74 85 76
4 83 76 74 72
4 82 105 54 91
3 54 100 105
4 82 83 100 105
4 83 91 54 100
3 82 91 83
4 50 71 26 6
3 6 26 117
4 6 50 54 117
4 117 54 71 26
3 71 54 50
3 50 37 51
4 22 37 50 73
4 50 73 43 51
4 43 22 37 51
3 22 43 73
3 13 11 98
4 84 98 11 73
4 13 86 73 11
4 13 86 84 98
3 86 73 84
4 35 110 69 54
4 54 35 58 48
3 35 110 58
3 48 54 69
4 58 110 69 48
4 85 94 110 39
3 41 110 39
4 85 39 41 87
4 41 110 94 87
3 85 94 87
3 37 58 38
4 41 64 37 58
4 80 38 37 64
4 38 58 41 80
3 80 64 41
4 71 45 106 24
4 24 71 27 13
3 13 106 24
3 71 45 27
4 106 13 27 45
3 70 47 71
4 91 71 70 51
4 70 47 64 51
4 64 91 71 47
3 91 51 64
4 85 91 12 99
3 12 99 63
4 63 12 91 73
4 63 73 85 99
3 73 91 85
4 37 70 34 85
3 33 70 34
4 33 61 37 70
4 33 61 85 34
3 61 37 85
3 57 105 0
4 0 38 71 105
4 38 0 57 10
4 10 57 105 71
3 10 38 71
4 89 108 103 1
3 3 1 103
4 1 89 84 3
4 103 108 84 3
3 84 108 89
4 114 84 20 118
3 58 118 20
4 58 94 84 20
4 114 118 58 94
3 84 94 114
3 8 36 118
4 65 48 118 36
4 36 8 38 65
4 38 8 118 48
3 38 48 65
4 60 87 58 8
4 22 58 8 61
3 60 61 8
3 87 22 58
4 22 61 60 87
3 98 45 105
4 105 102 116 45
4 105 102 103 98
4 103 98 45 116
3 103 102 116
4 82 103 113 34
4 74 99 113 34
3 74 82 34
3 103 113 99
4 103 82 74 99
3 82 71 102
4 102 92 107 71
4 76 82 71 107
4 82 76 92 102
3 76 92 107
4 26 47 37 8
3 8 26 10
4 8 37 107 10
4 107 10 26 47
3 107 37 47
4 113 108 21 111
4 22 85 108 21
3 22 111 21
3 85 113 108
4 22 111 113 85
3 3 98 20
4 20 98 27 48
4 3 20 48 59
4 3 59 27 98
3 59 27 48
4 51 15 2 83
3 15 51 29
3 4 2 83
4 83 4 29 51
4 67 17 7 72
3 9 72 7
3 17 67 4
4 4 67 72 9
3 16 61 21
4 12 76 61 21
4 16 61 76 4
3 12 76 4
4 49 64 93 15
3 49 64 28
3 17 15 93
4 93 17 28 64
3 15 70 6
4 6 0 102 70
4 16 102 70 15
3 16 0 102
3 11 25 74
4 74 11 1 19
4 19 74 25 4
3 4 1 19
3 21 39 22
4 21 29 77 22
4 22 39 28 77
3 28 29 77
4 28 32 78 53
3 28 25 53
3 7 78 32
4 7 78 53 25
3 0 24 105
4 0 2 46 105
4 24 105 46 7
3 2 46 7
3 0 36 8
4 0 1 103 8
4 8 36 21 103
3 1 103 21
4 35 36 112 47
3 47 32 35
3 15 36 112
4 32 47 112 15
3 44 75 28
4 44 75 63 11
4 12 28 75 63
3 11 63 12
4 98 20 0 57
3 11 98 20
3 0 57 9
4 9 57 98 11
3 6 117 35
4 44 68 117 35
4 6 7 68 117
3 44 68 7
4 49 111 58 35
3 20 58 35
3 49 21 111
4 21 111 58 20
3 35 110 39
4 35 110 13 24
4 11 39 110 13
3 13 24 11
3 17 81 25
4 29 17 81 43
4 25 12 43 81
3 29 43 12
4 33 16 1 82
3 33 16 2
3 9 82 1
4 2 9 82 33
4 32 6 100 55
3 2 6 100
3 32 17 55
4 2 100 55 17
3 36 49 37
4 92 29 49 37
4 36 16 92 37
3 29 92 16
4 6 36 118 26
3 26 6 24
3 36 118 20
4 24 26 118 20
3 49 109 32
4 41 39 49 109
4 32 109 41 44
3 39 44 41
4 20 3 99 39
3 1 3 20
3 12 99 39
4 3 1 12 99
3 44 106 24
4 25 31 106 44
4 9 31 106 24
3 25 9 31
4 97 16 19 31
4 19 63 40 16
3 40 16 97
3 63 31 19
3 64 65 52
4 65 52 62 23
4 77 64 65 23
3 62 23 77
4 104 88 78 55
3 101 104 55
3 79 78 88
4 79 101 104 88
4 73 89 104 80
4 67 89 73 81
3 104 89 67
3 80 81 73
4 52 30 18 42
3 53 30 52
3 81 18 42
4 53 81 42 52
3 69 21 115
4 115 21 43 67
4 43 53 69 21
3 53 43 67
4 0 86 78 100
4 0 100 93 23
3 23 86 0
3 78 100 93
4 40 112 102 1
4 102 100 88 1
3 40 1 88
3 100 102 112
4 117 112 16 90
3 16 90 62
4 16 112 109 62
3 117 112 109
4 61 19 90 36
4 43 61 36 52
3 52 36 90
3 19 61 43
4 115 46 72 89
3 46 115 97
4 88 89 115 97
3 72 89 88
3 55 54 66
4 54 66 42 65
4 54 55 93 65
3 42 65 93
4 9 83 92 59
3 59 79 9
4 83 9 79 93
3 93 92 83
4 4 92 111 14
3 14 4 97
4 4 97 112 92
3 112 111 92
3 5 2 96
4 2 96 109 93
4 93 2 5 77
3 109 93 77
4 60 5 62 42
4 43 76 60 42
3 5 60 76
3 43 62 42
3 29 119 14
4 119 29 67 46
4 31 67 29 14
3 31 46 67
3 51 91 116
4 80 101 116 91
4 51 91 80 93
3 93 80 101
4 50 60 18 66
4 67 83 50 66
3 67 18 66
3 83 50 60
3 108 115 33
4 91 104 115 108
4 83 91 108 33
3 104 91 83
4 33 51 49 114
3 30 49 114
4 67 51 49 30
3 67 33 51
4 50 51 92 38
3 50 42 51
4 42 50 38 23
3 92 38 23
4 96 15 33 57
4 19 33 15 62
3 96 15 62
3 33 57 19
3 70 119 116
4 70 116 104 100
4 97 119 116 104
3 97 100 104
4 69 30 62 40
3 75 30 62
3 41 69 40
4 41 75 62 40
3 87 75 86
4 88 53 75 86
4 88 86 87 80
3 80 88 53
3 104 1 48
4 63 41 48 1
4 1 63 53 104
3 53 63 41
4 20 105 100 65
4 73 20 105 72
3 65 20 73
3 72 105 100
4 117 106 84 36
4 42 78 117 36
3 42 84 36
3 78 117 106
4 118 105 89 21
4 52 117 118 21
3 52 21 89
3 105 117 118
4 3 0 65 22
4 3 63 88 0
3 65 0 88
3 22 3 63
3 48 54 47
4 54 48 40 52
4 40 48 47 109
3 109 40 52
4 90 106 68 97
3 90 106 86
3 79 68 97
4 79 86 90 97
4 31 90 84 74
3 84 74 73
4 90 88 73 84
3 88 90 31
4 69 45 66 52
3 69 68 45
3 78 66 52
4 69 52 78 68
3 89 54 20
4 54 20 22 64
4 20 89 43 22
3 64 43 22
4 79 80 107 95
3 107 64 80
3 95 109 79
4 80 64 109 79
4 31 13 59 4
3 59 101 4
4 101 4 31 68
3 31 68 13
4 99 22 23 5
3 99 14 5
3 22 40 23
4 40 23 5 14
4 8 61 42 6
4 8 3 86 6
3 86 6 42
3 61 8 3
4 119 26 105 115
3 90 115 105
3 119 26 96
4 90 96 119 115
3 71 50 70
4 71 70 112 48
4 65 48 71 50
3 65 48 112
4 89 84 85 91
4 85 76 19 84
3 19 84 89
3 76 85 91
3 108 45 39
4 64 51 108 39
4 64 55 45 39
3 51 64 55
4 30 56 34 66
3 72 34 66
4 72 31 30 66
3 30 56 31
4 24 38 83 72
4 72 24 87 81
3 38 24 87
3 83 72 81
3 15 114 18
4 109 110 114 15
4 18 75 109 15
3 75 110 109
4 12 69 118 103
4 103 102 104 12
3 12 104 69
3 102 103 118
4 82 108 114 57
4 90 114 108 89
3 89 108 82
3 114 57 90
4 37 51 66 35
3 84 66 35
4 37 61 84 35
3 61 37 51
4 50 54 45 34
3 45 34 46
4 46 45 54 100
3 100 54 50
3 12 27 116
4 53 68 27 12
4 116 12 53 55
3 68 53 55
4 73 87 107 91
3 107 87 77
3 43 73 91
4 43 73 87 77
3 74 56 18
4 14 62 18 56
4 62 18 74 63
3 63 14 62
4 47 101 97 117
3 96 97 117
3 101 95 47
4 96 95 101 97
4 2 57 13 79
4 23 2 57 3
3 23 2 79
3 3 57 13
4 38 59 111 37
3 38 65 37
3 40 59 111
4 38 59 40 65
4 111 118 115 29
3 30 115 29
4 29 111 110 30
3 118 110 111
4 48 102 82 11
4 82 11 80 83
3 48 11 80
3 83 102 82
3 60 94 6
4 78 75 94 6
4 60 81 78 6
3 75 78 81
4 34 33 102 71
4 60 34 71 38
3 34 60 33
3 102 71 38
3 113 114 8
4 113 114 115 116
4 102 116 113 8
3 102 116 115
4 70 8 94 32
4 70 33 18 32
3 18 32 94
3 8 70 33
3 56 119 17
4 56 99 77 17
4 77 111 119 17
3 99 111 77
4 103 27 25 76
3 27 25 101
4 92 76 25 101
3 92 103 76
3 7 95 10
4 81 7 10 76
4 81 7 95 77
3 77 81 76
3 28 56 113
4 70 55 28 113
4 55 46 56 28
3 46 70 55
3 82 34 10
4 18 5 10 34
4 19 82 34 18
3 19 18 5
4 107 116 108 85
3 85 108 61
4 85 107 92 61
3 116 107 92
3 37 113 107
4 107 101 119 113
4 37 107 101 112
3 119 101 112
4 60 10 103 61
3 103 59 10
4 23 60 10 59
3 61 23 60
4 95 17 46 26
4 46 57 5 17
3 17 95 5
3 46 26 57
3 49 108 66
4 108 49 110 98
4 49 110 106 66
3 110 106 98
4 50 35 106 72
3 35 85 50
4 74 106 35 85
3 106 74 72
4 39 98 105 54
4 82 91 39 98
3 39 91 54
3 98 82 105
3 27 26 71
4 71 27 69 54
4 27 69 117 26
3 117 54 69
4 24 50 37 58
3 24 50 73
4 24 58 22 73
3 22 58 37
3 84 98 114
4 13 98 114 96
4 86 84 114 96
3 86 96 13
4 59 14 110 58
3 14 69 110
3 58 48 59
4 59 14 69 48
3 96 110 94
4 41 110 96 79
4 94 87 79 96
3 87 41 79
4 13 58 38 9
4 80 9 13 41
3 80 38 9
3 13 41 58
3 106 30 45
4 27 45 30 14
4 14 30 106 13
3 14 27 13
3 91 71 11
4 11 71 47 41
4 91 11 41 64
3 47 64 41
3 85 99 94
4 73 86 94 85
4 86 94 99 63
3 73 63 86
4 47 70 34 44
3 44 85 34
4 37 47 44 85
3 70 37 47
3 105 45 71
4 57 105 45 56
4 10 71 45 56
3 56 57 10
4 94 84 108 113
3 103 113 108
4 3 94 113 103
3 94 3 84
3 119 118 114
4 95 119 114 94
4 58 118 119 95
3 94 58 95
4 10 27 118 8
3 48 27 118
3 10 8 38
4 10 27 48 38
4 7 26 8 60
4 7 26 58 87
3 60 7 87
3 26 58 8
3 45 116 28
4 45 98 99 28
4 99 28 116 103
3 99 103 98
3 34 113 32
4 75 32 34 74
4 99 113 32 75
3 75 99 74
3 44 107 71
4 44 74 82 71
4 74 76 107 44
3 74 82 76
4 68 26 10 25
3 25 107 10
4 25 107 47 68
3 26 47 68
4 85 113 95 87
3 113 95 111
3 87 22 85
4 87 95 111 22
3 98 56 27
4 3 98 56 5
4 5 59 27 56
3 5 59 3
3 97 96 2
4 2 97 14 5
3 14 5 96
4 7 10 59 79
3 79 95 7
3 95 10 59
4 14 69 104 4
3 104 4 97
3 14 69 97
3 114 15 119
4 56 18 15 119
3 114 56 18
3 90 86 0
4 90 0 23 62
3 86 62 23
4 25 27 48 80
3 25 101 80
3 48 27 101
3 29 115 116
4 30 45 116 29
3 115 30 45
4 95 32 34 10
3 95 32 113
3 113 10 34
4 23 38 24 86
3 87 24 86
3 87 38 23
4 1 89 52 40
3 88 1 89
3 40 52 88
3 84 36 114
4 36 114 18 42
3 84 42 18
4 107 28 45 71
3 28 116 107
3 116 45 71
4 48 65 73 11
3 73 80 11
3 65 48 80
4 35 94 60 50
3 94 35 85
3 60 50 85
3 89 21 108
4 52 66 108 21
3 89 66 52
4 85 39 54 50
3 91 39 85
3 91 50 54
4 56 27 101 17
3 101 119 17
3 119 56 27
4 40 59 9 88
3 88 9 79
3 79 40 59
3 96 6 94
4 6 96 5 60
3 5 60 94
3 115 16 90
4 115 16 62 30
3 90 30 62
4 65 42 84 20
3 84 20 73
3 73 42 65
3 108 49 113
4 34 66 49 113
3 66 34 108
4 12 69 54 91
3 91 104 12
3 104 69 54
4 71 38 87 44
3 87 107 44
3 107 71 38
3 68 41 13
3 53 31 68
4 31 53 41 13
4 29 28 75 62
3 30 28 75
3 29 62 30
3 32 95 7
4 78 109 95 7
3 109 32 78
3 25 101 17
3 93 17 81
4 81 93 101 25
4 18 17 25 74
3 17 18 56
3 25 74 56
3 46 68 31
3 67 46 55
4 67 55 68 31
3 77 87 75
3 62 75 86
4 87 77 62 86
4 79 109 52 88
3 52 88 78
3 78 79 109
3 106 90 30
3 106 75 86
4 75 86 90 30
3 67 31 19
3 63 53 31
4 63 53 67 19
3 9 79 7
3 7 72 78
4 79 9 72 78
4 15 42 81 17
3 15 18 42
3 18 17 81
3 109 95 111
4 40 111 95 79
3 79 109 40
3 117 96 110
3 97 117 69
4 69 97 96 110
3 110 99 94
3 14 110 96
4 96 94 99 14
4 4 12 99 5
3 12 99 14
3 4 5 14
3 68 26 46
3 26 57 13
4 46 68 13 57
3 17 119 15
3 112 15 93
4 93 17 119 112
4 2 4 76 60
3 5 76 4
3 2 60 5
3 4 97 2
4 97 4 83 100
3 100 83 2
3 46 57 33
4 46 33 19 31
3 57 31 19
4 23 16 29 77
3 23 62 16
3 29 77 62
4 31 63 3 57
3 13 57 31
3 13 63 3
3 6 2 96
3 117 6 100
4 96 2 100 117
4 30 28 44 106
3 45 44 106
3 28 30 45
3 28 44 107
4 75 77 107 44
3 77 28 75
3 55 47 68
4 53 68 47 64
3 64 55 53
3 81 73 42
4 80 93 42 73
3 81 93 80
3 74 84 18
4 81 73 84 18
3 74 81 73
3 72 89 66
4 66 89 88 78
3 72 78 88
4 43 64 41 63
3 41 64 53
3 43 63 53
4 49 32 78 52
3 52 66 49
3 66 32 78
3 24 87 44
3 75 106 44
4 75 106 24 87
3 11 80 25
4 81 80 11 74
3 25 74 81
4 32 7 72 66
3 34 7 72
3 34 66 32
4 53 55 51 43
3 67 43 51
3 67 53 55
3 32 113 49
3 111 49 109
4 111 109 32 113
3 58 26 47
4 68 26 58 41
3 41 68 47
4 14 12 39 110
3 12 14 69
3 69 110 39
4 3 19 43 22
3 63 3 19
3 43 22 63
3 0 86 24
4 105 106 86 0
3 106 24 105
4 36 65 93 15
3 42 93 15
3 42 65 36
3 12 104 4
4 76 83 104 12
3 76 4 83
3 33 51 70
4 70 51 67 46
3 33 67 46
4 7 34 82 9
3 7 34 10
3 10 82 9
4 23 87 107 92
3 77 92 107
3 23 77 87
3 56 114 98
4 56 114 84 74
3 74 84 98
4 104 54 117 97
3 104 100 54
3 100 117 97
3 9 88 1
3 72 9 82
4 72 82 1 88
4 67 43 61 33
3 19 61 33
3 19 43 67
4 50 83 2 6
3 50 60 6
3 60 83 2
3 70 46 26
3 55 70 47
4 55 47 26 46
3 28 116 29
4 77 92 116 28
3 92 29 77
4 25 56 98 11
3 27 98 11
3 27 56 25
3 6 94 35
3 110 35 117
4 117 6 94 110
4 63 22 58 13
3 41 58 22
3 13 41 63
4 40 109 49 21
3 49 109 52
3 21 52 40
3 45 115 105
3 90 106 105
4 45 115 90 106
4 80 101 112 65
3 101 112 93
3 80 93 65
4 94 5 76 85
3 5 99 94
3 76 85 99
4 38 0 16 92
3 0 38 23
3 16 92 23
3 0 16 90
3 105 0 102
4 105 102 16 90
3 3 8 57
4 61 19 57 8
3 3 19 61
3 114 98 118
4 114 98 27 119
3 27 118 119
4 48 101 119 118
3 119 118 112
3 101 112 48
3 111 103 113
4 95 113 103 59
3 59 111 95
3 8 70 26
4 26 70 33 57
3 33 57 8
4 9 10 103 1
3 10 59 9
3 1 103 59
3 16 115 29
3 92 16 102
4 92 29 115 102
3 36 15 114
4 114 15 112 118
3 118 36 112
4 59 1 21 111
3 21 111 40
3 1 40 59
4 13 3 8 26
3 3 8 58
3 13 58 26
3 34 82 108
4 72 89 108 34
3 82 72 89
4 83 91 85 60
3 76 85 60
3 76 83 91
4 50 100 104 91
3 50 83 91
3 83 104 100
4 35 54 100 6
3 35 50 54
3 50 100 6
4 22 61 51 64
3 43 51 64
3 61 43 22
3 20 73 11
4 74 98 20 73
3 74 98 11
4 39 69 117 35
3 54 117 35
3 39 69 54
3 39 35 85
4 99 85 35 110
3 99 39 110
4 41 47 37 22
3 64 47 37
3 41 64 22
4 45 105 24 44
3 44 45 71
3 71 24 105
4 37 64 55 70
3 51 70 55
3 64 51 37
3 12 91 39
3 99 12 76
4 99 76 91 39
4 33 51 37 8
3 8 61 37
3 51 33 61
4 0 102 71 24
3 0 102 38
3 24 71 38
3 1 21 89
4 82 89 21 103
3 82 103 1
3 36 84 20
3 98 118 20
4 98 118 36 84
4 48 112 36 20
3 20 48 65
3 65 112 36
4 58 3 61 37
3 22 61 37
3 3 58 22
4 116 71 105 115
3 102 105 115
3 71 116 102
4 10 82 108 113
3 82 108 103
3 10 113 103
4 107 116 102 38
3 92 102 116
3 107 92 38
3 70 8 37
4 58 8 70 47
3 58 47 37
3 21 108 49
4 111 103 108 49
3 103 111 21
4 11 27 118 20
3 20 118 48
3 11 27 48
4 4 29 21 1
3 29 111 21
3 1 59 4
4 29 111 59 4
4 0 16 4 9
3 9 38 0
3 4 16 92
4 4 92 38 9
4 12 21 20 11
3 20 118 21
4 21 12 27 118
3 11 27 12
4 4 12 28 17
4 99 28 17 5
3 12 99 28
3 4 5 17
4 15 16 21 49
3 15 49 109
4 16 40 109 15
3 21 16 40
4 1 11 24 0
3 1 102 0
3 11 71 24
4 11 71 102 1
4 11 25 28 39
4 28 56 98 39
3 28 56 25
3 11 98 39
4 4 25 7 2
4 7 25 76 60
3 7 60 2
3 25 76 4
4 2 0 36 15
3 2 93 15
3 36 0 65
4 0 2 93 65
4 35 39 21 36
3 35 117 36
4 36 117 69 21
3 39 21 69
4 15 29 28 32
4 75 32 15 62
3 29 15 62
3 32 75 28
4 9 7 44 11
3 34 44 7
4 11 44 34 82
3 11 82 9
4 0 6 35 20
3 35 20 54
3 0 100 6
4 20 54 100 0
4 7 17 15 6
3 42 6 15
4 7 81 42 6
3 7 17 81
4 44 28 49 35
4 106 35 49 30
3 44 106 35
3 28 49 30
4 7 24 35 32
3 32 66 35
4 35 66 72 24
3 24 7 72
4 25 12 1 9
4 25 10 103 12
3 1 103 12
3 9 25 10
4 36 20 1 16
3 20 1 48
3 16 112 36
4 1 48 112 16
4 2 17 29 16
3 16 2 23
4 77 17 2 23
3 29 77 17
4 12 39 49 29
3 39 110 49
4 49 110 14 29
3 12 14 29
4 6 32 49 36
3 49 36 52
4 6 78 52 36
3 6 78 32
4 17 32 44 25
4 44 74 18 32
3 44 74 25
3 17 32 18
4 24 44 39 20
4 20 105 45 39
3 20 105 24
3 45 39 44
4 9 24 6 2
3 6 24 50
4 24 50 83 9
3 9 83 2
4 63 11 48 40
3 63 73 11
3 40 48 65
4 63 40 65 73
4 64 77 99 39
3 64 39 91
3 76 99 77
4 77 64 91 76
4 87 107 101 79
3 101 107 92
3 23 79 87
4 92 23 79 101
3 102 116 104
4 80 104 102 38
4 107 116 104 80
3 38 107 80
4 53 81 76 12
3 12 104 53
3 83 76 81
4 81 83 104 53
4 27 69 53 25
3 25 53 80
3 69 48 27
4 48 80 53 69
4 61 51 93 23
3 93 64 51
3 23 22 61
4 23 22 64 93
3 37 47 112
4 40 112 37 22
4 41 47 112 40
3 40 22 41
3 64 41 109
4 62 109 41 63
4 43 64 109 62
3 63 43 62
3 91 12 43
4 43 12 69 52
4 91 54 52 43
3 52 69 54
4 88 97 112 65
3 112 101 97
3 65 80 88
4 80 88 97 101
3 28 116 55
4 28 77 93 55
4 93 55 116 92
3 92 77 93
4 58 37 92 59
3 61 37 92
3 59 3 58
4 59 92 61 3
4 14 111 58 13
3 111 22 58
4 63 14 111 22
3 14 63 13
4 3 22 77 5
3 5 3 19
3 77 22 43
4 43 19 5 77
4 43 76 103 21
3 21 89 43
3 76 82 103
4 43 76 82 89
4 31 9 59 14
3 9 31 88
3 14 40 59
4 40 14 31 88
3 116 103 113
4 95 101 116 113
4 103 59 101 116
3 95 101 59
3 29 115 67
4 67 83 92 29
4 67 115 102 83
3 83 92 102
3 118 119 115
4 115 104 48 118
4 115 119 101 104
3 104 101 48
4 14 30 67 4
3 104 4 67
3 30 69 14
4 104 67 30 69
3 49 108 51
4 51 49 111 92
4 92 51 108 103
3 103 111 92
3 1 89 19
4 62 40 1 19
4 89 19 62 52
3 62 52 40
3 119 111 95
4 40 97 119 111
4 95 119 97 79
3 79 97 40
4 41 75 74 11
3 41 11 80
3 75 81 74
4 80 41 75 81
3 87 85 60
4 91 85 87 80
4 83 60 87 80
3 83 91 80
4 71 48 41 44
3 44 41 87
3 48 38 71
4 87 38 48 41
4 100 70 37 65
3 100 70 55
3 65 37 64
4 100 65 64 55
4 42 51 55 78
3 43 51 42
3 78 55 53
4 42 78 53 43
3 117 68 47
4 52 64 47 117
4 52 117 68 53
3 52 53 64
4 54 39 22 65
3 22 39 85
3 65 50 54
4 85 50 65 22
3 47 44 107
4 75 44 47 109
4 107 77 109 47
3 75 109 77
3 73 86 42
4 42 86 79 93
4 86 79 80 73
3 80 93 79
4 73 50 100 88
3 91 50 73
3 88 100 104
4 88 73 91 104
3 68 101 25
4 25 81 78 68
4 101 68 78 93
3 81 78 93
4 28 64 54 45
3 64 28 107
3 54 45 71
4 54 64 107 71
4 94 85 107 95
3 94 95 5
3 107 85 76
4 76 107 95 5
4 24 13 59 38
3 13 86 24
4 23 59 13 86
3 59 38 23
4 22 99 98 20
3 22 20 73
3 99 98 74
4 73 22 99 74
3 61 21 108
4 42 52 21 61
4 61 42 66 108
3 42 66 52
4 52 90 96 109
4 79 96 90 88
3 96 109 79
3 52 88 90
3 70 113 32
4 70 32 109 112
4 111 113 70 112
3 111 109 112
4 89 105 71 91
3 89 105 115
3 91 71 116
4 91 116 115 89
4 45 56 17 55
3 101 17 55
3 45 56 27
4 101 27 45 55
4 4 31 72 83
3 4 97 31
3 83 100 72
4 31 97 100 72
3 37 8 38
4 83 38 8 33
4 38 37 51 83
3 83 33 51
4 53 75 18 67
4 18 75 63 19
3 19 67 18
3 75 63 53
3 118 58 26
4 69 118 26 68
4 69 118 58 41
3 68 69 41
4 89 54 117 90
3 89 54 104
3 97 117 90
4 97 90 89 104
3 116 29 51
4 66 30 29 51
4 66 45 116 51
3 45 30 66
3 46 17 119
4 46 100 93 17
4 100 112 119 46
3 112 93 100
4 7 68 27 10
3 7 68 79
3 10 59 27
4 79 59 27 68
4 91 107 113 108
3 91 82 108
3 113 10 107
4 107 91 82 10
4 82 1 63 74
3 63 88 1
3 82 72 74
4 88 63 74 72
4 86 96 95 87
4 77 95 96 62
3 86 62 96
3 95 87 77
3 3 20 84
4 65 23 3 20
4 42 23 3 84
3 23 65 42
4 111 37 35 110
3 37 85 35
4 85 99 111 37
3 99 111 110
4 30 110 13 31
4 53 30 110 41
3 13 41 110
3 31 53 30
3 8 70 102
4 47 70 102 48
4 8 58 48 102
3 47 58 48
3 60 61 33
4 67 81 60 33
4 60 61 43 81
3 81 67 43
3 33 15 114
4 15 112 102 33
4 33 102 118 114
3 118 112 102
4 115 69 110 114
3 114 110 96
4 97 115 114 96
3 69 97 115
3 115 16 33
4 33 16 62 18
4 33 115 30 18
3 18 30 62
4 99 56 57 3
3 57 31 56
4 63 31 56 99
3 99 3 63
4 27 103 8 26
3 103 3 8
3 26 27 13
4 3 13 27 103
3 8 57 10
4 8 61 76 10
4 19 76 10 57
3 76 19 61
4 2 46 56 5
3 97 46 2
4 46 97 14 56
3 56 5 14
4 19 82 102 16
3 16 90 19
3 82 102 105
4 19 90 105 82
3 108 98 114
4 108 116 119 114
4 98 27 116 108
3 119 116 27
4 94 113 119 96
3 94 99 113
4 14 119 113 99
3 96 119 14
4 103 61 36 118
3 61 84 36
3 103 98 118
4 61 84 98 103
3 57 90 0
4 5 23 0 57
4 5 62 90 57
3 23 62 5
4 68 106 66 55
4 66 106 31 67
3 67 55 66
3 31 68 106
4 72 50 70 46
3 50 70 51
4 50 72 67 51
3 72 46 67
4 54 105 26 47
3 105 46 26
4 55 46 105 54
3 54 47 55
3 26 95 7
4 7 78 117 26
4 95 26 117 109
3 109 78 117
3 37 113 49
4 49 37 50 66
4 50 37 113 34
3 66 34 50
3 89 84 66
4 84 66 78 86
4 86 84 89 88
3 86 78 88
4 58 110 106 24
3 58 87 24
4 87 58 110 75
3 106 75 110
3 84 18 94
4 94 87 73 84
4 81 87 94 18
3 87 73 81
4 50 38 58 35
3 58 94 35
3 60 50 38
4 38 58 94 60
4 9 72 106 13
3 13 79 9
4 79 13 106 78
3 72 106 78
4 32 47 71 34
3 32 95 47
3 34 10 71
4 71 47 95 10
3 85 34 108
4 89 108 85 73
4 72 34 85 73
3 73 89 72
3 119 70 15
4 15 70 34 18
4 34 56 119 70
3 34 56 18
4 57 2 100 105
3 2 96 57
4 117 105 57 96
3 100 105 117
4 84 108 45 106
3 108 115 45
4 84 108 115 90
3 84 90 106
4 94 75 30 114
4 86 94 114 90
3 30 114 90
3 86 75 94
4 8 118 117 6
3 8 94 6
4 8 94 110 118
3 110 117 118
3 36 114 8
4 42 60 8 36
4 8 114 18 60
3 42 18 60
4 98 45 46 57
4 13 98 45 68
3 46 68 45
3 98 57 13
3 34 46 33
4 74 34 33 19
4 46 34 74 31
3 74 31 19
3 71 70 26
4 71 82 33 70
4 82 57 26 71
3 82 33 57
3 6 26 96
4 6 60 10 26
4 96 26 10 5
3 10 60 5
4 84 114 113 85
3 114 113 56
4 74 56 113 85
3 85 74 84
4 0 3 98 105
3 3 86 0
3 98 106 105
4 86 3 98 106
4 29 67 89 21
4 4 1 89 67
3 29 67 4
4 9 0 90 31
4 16 90 31 4
3 4 9 31
4 21 20 73 43
3 21 43 12
4 73 11 12 43
3 17 55 28
4 28 55 104 12
4 104 4 17 55
4 15 33 108 49
3 15 16 33
4 33 16 21 108
4 1 63 86 0
4 11 24 86 63
3 1 63 11
3 39 64 28
4 80 25 28 64
4 11 80 64 39
3 25 68 7
4 7 2 97 68
4 4 97 68 25
4 15 114 57 2
4 0 36 114 57
3 2 0 57
4 35 85 61 36
3 36 21 61
4 61 21 39 85
3 32 70 15
4 29 116 70 15
4 32 70 116 28
4 44 41 79 7
3 11 44 41
4 11 41 79 9
4 35 94 3 20
4 3 94 6 0
3 0 20 3
4 15 119 26 6
3 7 6 26
4 7 17 119 26
3 35 37 49
4 35 44 107 37
4 28 107 37 49
4 32 95 58 35
3 24 58 35
4 24 58 95 7
3 12 53 25
4 53 12 1 88
4 25 53 88 9
4 19 1 20 84
4 19 84 36 16
3 19 1 16
4 16 2 46 115
3 17 2 46
4 17 46 115 29
4 49 39 91 51
3 49 51 29
4 12 91 51 29
4 36 8 113 49
3 8 36 6
4 8 113 32 6
3 44 32 47
4 47 101 25 44
4 32 47 101 17
3 20 39 22
4 20 24 87 22
4 22 39 44 87
4 6 96 13 24
3 13 24 9
4 13 9 2 96
4 65 42 62 40
4 63 62 42 73
3 63 62 40
4 83 91 64 93
3 93 64 77
4 76 83 93 77
4 16 92 101 97
4 23 16 97 79
3 79 101 97
4 88 104 102 0
4 38 80 88 0
3 88 104 80
4 83 100 78 81
4 53 78 100 104
3 81 53 78
4 52 69 48 65
3 53 69 52
4 52 65 80 53
4 33 61 23 2
4 93 2 33 51
3 93 2 23
4 112 16 61 37
4 40 16 61 22
3 16 112 40
4 109 15 51 64
4 15 62 43 51
3 109 15 62
4 50 54 52 42
4 42 43 91 50
3 43 52 42
4 90 36 112 97
4 65 88 90 36
3 88 97 90
4 55 100 102 116
4 93 100 102 92
3 93 100 55
3 4 92 59
4 4 59 3 19
4 61 19 4 92
3 29 14 111
4 111 29 43 22
4 43 29 14 63
4 5 17 67 19
3 5 77 17
4 77 17 67 43
4 76 81 72 82
4 43 81 72 89
3 81 43 76
4 14 30 52 40
4 31 88 52 30
3 31 14 30
4 116 104 1 103
4 59 101 104 1
3 104 101 116
4 102 105 72 83
4 67 72 105 115
3 67 72 83
4 115 89 20 118
4 48 20 89 104
3 115 89 104
4 54 69 30 66
4 67 66 54 104
3 67 66 30
4 108 82 83 51
4 103 82 83 92
3 51 92 83
4 19 18 66 89
4 18 66 52 62
3 18 62 19
4 111 21 115 119
4 40 97 115 21
3 97 115 119
3 75 41 109
4 93 109 75 81
4 41 109 93 80
4 2 79 87 60
4 80 79 2 83
3 79 87 80
4 40 48 38 23
3 40 48 41
4 40 23 87 41
4 0 8 70 100
4 37 8 0 65
3 0 65 100
4 51 70 6 42
4 70 55 78 6
3 42 6 78
4 37 47 117 36
3 52 36 117
4 37 64 52 36
4 60 50 65 23
4 23 60 85 22
3 22 65 23
4 92 107 47 112
3 112 109 47
4 77 92 112 109
4 42 86 96 15
4 93 15 96 79
3 86 96 79
4 50 73 86 6
4 86 6 100 88
3 73 88 86
4 112 101 68 117
3 68 117 78
4 78 117 112 93
4 65 54 71 38
3 65 54 64
4 64 65 38 107
4 5 4 101 95
4 107 101 4 76
3 101 107 95
4 62 14 13 86
3 14 13 59
4 23 62 14 59
4 81 77 99 74
3 77 99 22
4 77 22 73 81
4 61 108 34 60
4 60 34 66 42
3 60 42 61
4 49 114 90 52
4 114 49 109 96
3 90 114 96
4 70 102 103 113
3 70 102 112
4 102 112 111 103
4 73 89 105 24
4 24 71 91 73
3 73 91 89
4 48 27 45 54
3 54 45 55
4 55 54 48 101
4 106 117 100 72
4 106 117 97 31
3 72 106 31
4 9 38 8 57
4 57 33 83 9
3 9 38 83
4 55 67 18 32
4 75 32 55 53
3 18 75 32
3 21 69 118
4 58 22 21 118
4 22 21 69 41
4 84 35 54 89
4 84 90 117 35
3 90 89 84
4 66 45 71 50
4 51 116 71 50
3 51 66 50
4 105 46 119 118
4 112 118 105 100
3 46 105 100
3 68 27 69
4 69 27 59 40
4 69 40 79 68
4 10 107 80 9
4 9 82 91 80
3 80 107 91
4 75 78 72 74
3 75 63 74
4 88 78 75 63
4 29 77 95 119
4 62 29 119 96
3 96 95 119
4 5 18 84 3
3 5 3 23
4 5 23 42 18
4 37 92 76 85
3 92 37 111
4 99 76 92 111
3 30 49 110
4 110 49 64 41
4 53 64 49 30
4 102 1 3 8
3 102 48 1
4 1 48 58 3
4 7 60 33 46
4 67 46 7 81
3 60 81 7
4 33 114 98 82
4 82 102 118 98
3 33 102 82
4 108 39 110 114
4 69 39 108 115
3 115 108 114
4 34 45 115 33
4 34 18 30 45
3 33 18 34
3 28 99 56
4 53 28 56 31
4 63 53 28 99
3 27 103 12
4 63 12 27 13
4 3 63 12 103
3 25 10 76
4 31 57 10 25
4 25 76 19 31
3 46 56 45
4 45 69 14 56
4 46 97 69 45
4 74 82 105 106
4 19 74 106 90
3 19 82 74
4 108 91 11 98
4 11 91 116 27
3 108 91 116
4 116 113 99 12
4 14 12 116 119
3 113 116 119
4 74 76 103 98
4 61 76 74 84
3 76 61 103
4 57 90 30 56
3 56 5 57
4 62 30 56 5
3 106 35 66
4 47 55 66 35
4 47 68 106 35
4 26 70 50 24
4 24 72 46 26
3 72 50 24
3 20 54 105
4 58 26 105 20
4 20 54 47 58
3 26 117 118
4 26 118 111 95
4 109 117 118 111
4 38 50 34 10
4 37 113 10 38
3 38 37 50
4 66 84 94 32
4 94 32 78 86
3 86 94 84
3 58 110 111
4 75 110 111 77
4 111 58 87 77
4 95 17 18 94
4 95 87 81 17
3 95 87 94
4 5 59 58 94
3 58 38 59
4 60 5 59 38
3 106 13 110
4 109 110 106 78
4 79 109 110 13
3 48 71 47
4 71 48 59 10
4 48 59 95 47
4 85 34 7 87
4 73 87 7 72
3 87 85 73
3 71 70 34
4 71 27 119 70
4 71 27 56 34
4 110 98 105 117
3 57 98 105
4 98 110 96 57
4 44 85 108 45
4 85 44 106 84
3 84 85 108
4 28 113 114 30
4 94 113 28 75
3 94 113 114
3 8 103 118
4 99 110 118 103
4 103 8 94 99
4 8 114 56 10
3 8 60 10
4 60 18 56 10
3 98 45 39
4 41 39 45 68
4 41 13 98 39
4 44 68 46 34
3 34 74 44
4 74 44 68 31
3 11 82 71
4 11 71 26 13
4 11 13 57 82
3 27 10 26
4 26 96 14 27
4 27 14 5 10
4 25 107 113 56
4 85 74 25 107
3 107 85 113
4 106 98 99 75
3 98 3 99
4 3 99 75 86
3 1 19 3
3 0 57 8
3 13 11 63
3 19 4 67
3 22 61 21
3 24 13 26
3 31 53 25
3 2 46 33
3 37 8 36
3 41 22 39
3 43 51 29
3 7 46 68
3 35 58 47
3 51 15 70
3 53 28 64
3 32 47 55
3 9 31 57
3 20 58 3
3 61 16 33
3 63 43 12
3 64 49 37
3 17 55 67
3 44 41 68
3 6 26 70
3 73 86 24
3 74 81 76
3 60 23 2
3 9 38 10
3 83 72 82
3 9 80 88
3 61 60 85
3 23 87 22
3 43 73 42
3 91 11 73
3 38 0 65
3 92 83 76
3 3 5 94
3 62 63 86
3 19 84 18
3 74 98 82
3 0 88 90
3 4 59 5
3 102 82 103
3 1 48 59
3 104 89 1
3 76 99 103
3 89 84 20
3 23 40 16
3 72 78 81
3 7 34 60
3 79 87 7
3 37 38 107
3 51 50 91
3 64 80 65
3 87 44 85
3 93 77 81
3 6 42 50
3 24 71 50
3 83 93 100
3 80 25 107
3 17 18 5
3 86 96 6
3 75 74 106
3 108 39 85
3 65 52 36
3 77 92 111
3 11 71 27
3 104 101 4
3 100 105 102
3 8 113 10
3 67 89 66
3 41 79 40
3 48 20 54
3 12 116 91
3 92 112 102
3 2 79 97
3 56 10 25
3 106 105 72
3 42 15 62
3 84 35 94
3 75 99 77
3 53 88 52
3 59 58 95
3 33 108 34
3 111 103 118
3 40 21 69
3 21 108 115
3 31 90 30
3 14 96 13
3 56 57 114
3 115 97 16
3 105 118 98
3 12 14 27
3 29 14 62
3 99 110 98
3 114 36 90
3 55 54 104
3 71 116 70
3 48 101 47
3 93 109 112
3 113 28 107
3 54 35 66
3 109 75 78
3 32 66 18
3 95 32 94
3 100 78 117
3 17 95 101
3 44 45 34
3 116 119 29
3 112 117 118
3 39 69 45
3 49 30 52
3 111 109 110
3 114 49 113
3 69 97 68
3 46 115 45
3 26 119 27
3 96 15 119
3 28 56 30
3 110 106 117
3 4 14 59
3 59 38 9
3 12 27 69
3 17 5 56
3 16 62 40
3 11 71 48
3 28 45 56
3 7 60 10
3 23 65 0
3 21 52 69
3 18 15 62
3 44 34 71
3 65 20 54
3 60 42 6
3 66 30 49
3 50 66 35
3 27 10 25
3 1 48 40
3 2 23 5
3 30 14 29
3 42 52 36
3 34 18 32
3 39 45 54
3 38 24 50
3 11 41 63
3 99 28 77
3 87 95 79
3 80 101 107
3 81 25 76
3 25 53 68
3 23 77 22
3 40 109 41
3 62 75 63
3 53 43 12
3 79 80 88
3 17 77 93
3 58 111 59
3 13 110 14
3 5 3 99
3 76 12 103
3 13 9 31
3 101 119 95
3 4 83 92
3 104 97 101
3 31 67 4
3 111 29 92
3 1 19 63
3 96 79 97
3 75 44 74
3 85 87 107
3 47 41 44
3 65 93 64
3 42 43 81
3 53 78 52
3 39 64 22
3 109 32 75
3 86 73 87
3 73 91 80
3 7 81 78
3 28 55 64
3 94 113 95
3 24 58 13
3 98 99 39
3 43 21 61
3 86 90 88
3 112 109 15
3 116 91 104
3 46 17 55
3 9 83 72
3 37 92 38
3 19 74 18
3 68 117 69
3 89 104 88
3 67 29 51
3 2 93 100
3 7 68 26
3 107 116 113
3 82 74 11
3 86 94 96
3 20 22 3
3 111 49 110
3 31 106 30
3 48 112 47
3 61 76 60
3 16 102 112
3 90 115 97
3 19 16 33
3 56 98 57
3 26 27 118
3 8 10 103
3 57 46 2
3 102 82 1
3 116 119 115
3 119 114 96
3 118 103 21
3 0 57 3
3 67 66 72
3 50 83 51
3 54 55 100
3 78 117 6
3 51 49 37
3 73 89 84
3 110 35 106
3 84 94 85
3 35 58 37
3 24 106 72
3 70 47 32
3 108 85 91
3 33 70 15
3 0 100 105
3 89 108 115
3 90 114 84
3 117 118 36
3 61 8 36
3 46 105 45
3 34 82 33
3 70 71 102
3 6 8 26
3 114 108 113
3 20 98 105
3 19 61 16
3 2 33 57
3 3 63 1
3 43 67 29
3 37 61 36
3 9 13 57
3 12 63 53
3 17 67 46
3 6 8 70
3 20 22 58
3 51 64 49
3 25 68 31
3 24 58 26
3 32 55 70
3 39 41 64
3 44 47 68
3 19 31 4
3 0 8 3
3 15 51 33
3 22 43 21
3 35 47 37
3 53 55 28
3 11 41 13
3 7 26 46
3 88 0 86
3 73 81 43
3 93 2 83
3 82 9 83
3 72 89 67
3 104 88 1
3 42 60 50
3 38 23 65
3 65 42 52
3 73 20 89
3 0 102 100
3 51 83 91
3 60 5 23
3 40 23 62
3 62 42 18
3 19 84 74
3 97 16 90
3 92 76 4
3 82 108 33
3 102 1 103
3 115 21 89
3 61 76 85
3 84 36 90
3 92 16 112
3 53 78 88
3 81 7 72
3 80 79 9
3 50 38 71
3 66 50 54
3 54 48 65
3 73 87 24
3 64 80 93
3 78 6 100
3 24 105 72
3 55 100 104
3 91 11 80
3 81 17 77
3 79 2 96
3 63 75 86
3 85 35 84
3 117 112 36
3 37 92 107
3 82 11 98
3 116 12 104
3 46 115 105
3 10 34 60
3 66 52 30
3 59 40 48
3 20 118 105
3 108 91 39
3 102 116 70
3 101 97 4
3 76 74 25
3 106 90 31
3 109 93 15
3 86 6 94
3 22 87 77
3 69 40 52
3 38 10 59
3 18 66 34
3 8 103 113
3 118 21 111
3 114 49 108
3 14 30 62
3 5 14 59
3 5 18 56
3 119 29 115
3 57 114 98
3 103 99 12
3 111 77 29
3 3 99 94
3 96 114 15
3 45 54 69
3 34 71 45
3 71 48 27
3 101 112 47
3 85 44 107
3 106 35 117
3 79 109 41
3 78 32 75
3 7 95 87
3 97 117 68
3 25 101 107
3 74 106 44
3 113 28 116
3 26 119 118
3 98 110 39
3 109 49 110
3 58 95 111
3 94 32 113
3 27 69 14
3 56 30 45
3 27 56 10
3 17 119 95
3 99 28 75
3 13 110 96

# Cells
5 0 1 2 3 4
5 5 6 7 8 9
5 10 11 12 13 14
5 15 16 17 18 19
5 20 21 22 23 24
5 25 26 27 28 29
5 30 31 32 33 34
5 35 36 37 38 39
5 40 41 42 43 44
5 45 46 47 48 49
5 50 51 52 53 54
5 55 56 57 58 59
5 60 61 62 63 64
5 65 66 67 68 69
5 70 71 72 73 74
5 75 76 77 78 79
5 80 81 82 83 84
5 85 86 87 88 89
5 90 91 92 93 94
5 95 96 97 98 99
5 100 101 102 103 104
5 105 106 107 108 109
5 110 111 112 113 114
5 115 116 117 118 119
5 120 121 122 123 124
5 125 126 127 128 129
5 130 131 132 133 134
5 135 136 137 138 139
5 140 141 142 143 144
5 145 146 147 148 149
5 150 151 152 153 154
5 155 156 157 158 159
5 160 161 162 163 164
5 165 166 167 168 169
5 170 171 172 173 174
5 175 176 177 178 179
5 180 181 182 183 184
5 185 186 187 188 189
5 190 191 192 193 194
5 195 196 197 198 199
5 200 201 202 203 204
5 205 206 207 208 209
5 210 211 212 213 214
5 215 216 217 218 219
5 220 221 222 223 224
5 225 226 227 228 229
5 230 231 232 233 234
5 235 236 237 238 239
5 240 241 242 243 244
5 245 246 247 248 249
5 250 251 252 253 254
5 255 256 257 258 259
5 260 261 262 263 264
5 265 266 267 268 269
5 270 271 272 273 274
5 275 276 277 278 279
5 280 281 282 283 284
5 285 286 287 288 289
5 290 291 292 293 294
5 295 296 297 298 299
5 300 301 302 303 304
5 305 306 307 308 309
5 310 311 312 313 314
5 315 316 317 318 319
5 320 321 322 323 324
5 325 326 327 328 329
5 330 331 332 333 334
5 335 336 337 338 339
5 340 341 342 343 344
5 345 346 347 348 349
5 350 351 352 353 354
5 355 356 357 358 359
5 360 361 362 363 364
5 365 366 367 368 369
5 370 371 372 373 374
5 375 376 377 378 379
5 380 381 382 383 384
5 385 386 387 388 389
5 390 391 392 393 394
5 395 396 397 398 399
5 400 401 402 403 404
5 405 406 407 408 409
5 410 411 412 413 414
5 415 416 417 418 419
5 420 421 422 423 424
5 425 426 427 428 429
5 430 431 432 433 434
5 435 436 437 438 439
5 440 441 442 443 444
5 445 446 447 448 449
5 450 451 452 453 454
5 455 456 457 458 459
5 460 461 462 463 464
5 465 466 467 468 469
5 470 471 472 473 474
5 475 476 477 478 479
5 480 481 482 483 484
5 485 486 487 488 489
5 490 491 492 493 494
5 495 496 497 498 499
5 500 501 502 503 504
5 505 506 507 508 509
5 510 511 512 513 514
5 515 516 517 518 519
5 520 521 522 523 524
5 525 526 527 528 529
5 530 531 532 533 534
5 535 536 537 538 539
5 540 541 542 543 544
5 545 546 547 548 549
5 550 551 552 553 554
5 555 556 557 558 559
5 560 561 562 563 564
5 565 566 567 568 569
5 570 571 572 573 574
5 575 576 577 578 579
5 580 581 582 583 584
5 585 586 587 588 589
5 590 591 592 593 594
5 595 596 597 598 599
5 0 600 601 602 603
5 5 604 605 606 607
5 10 608 609 610 611
5 15 612 613 614 615
5 20 616 617 618 619
5 25 620 621 622 623
5 30 624 625 626 627
5 35 628 629 630 631
5 40 632 633 634 635
5 45 636 637 638 639
5 50 640 641 642 643
5 55 644 645 646 647
5 60 648 649 650 651
5 65 652 653 654 655
5 70 656 657 658 659
5 75 660 661 662 663
5 80 664 665 666 667
5 85 668 669 670 671
5 90 672 673 674 675
5 95 676 677 678 679
5 100 680 681 682 683
5 105 684 685 686 687
5 110 688 689 690 691
5 115 692 693 694 695
5 124 696 697 698 699
5 129 700 701 702 703
5 134 704 705 706 707
5 139 708 709 710 711
5 142 712 713 714 715
5 149 716 717 718 719
5 152 720 721 722 723
5 158 724 725 726 727
5 161 728 729 730 731
5 168 732 733 734 735
5 173 736 737 738 739
5 176 740 741 742 743
5 183 744 745 746 747
5 189 748 749 750 751
5 194 752 753 754 755
5 198 756 757 758 759
5 204 760 761 762 763
5 209 764 765 766 767
5 211 768 769 770 771
5 219 772 773 774 775
5 223 776 777 778 779
5 226 780 781 782 783
5 233 784 785 786 787
5 238 788 789 790 791
5 243 792 793 794 795
5 249 796 797 798 799
5 254 800 801 802 803
5 256 804 805 806 807
5 260 808 809 810 811
5 265 812 813 814 815
5 273 816 817 818 819
5 276 820 821 822 823
5 284 824 825 826 827
5 289 828 829 830 831
5 291 832 833 834 835
5 298 836 837 838 839
5 303 840 841 842 843
5 309 844 845 846 847
5 314 848 849 850 851
5 318 852 853 854 855
5 323 856 857 858 859
5 325 860 861 862 863
5 334 864 865 866 867
5 339 868 869 870 871
5 341 872 873 874 875
5 347 876 877 878 879
5 352 880 881 882 883
5 355 884 885 886 887
5 363 888 889 890 891
5 368 892 893 894 895
5 370 896 897 898 899
5 379 900 901 902 903
5 384 904 905 906 907
5 389 908 909 910 911
5 393 912 913 914 915
5 398 916 917 918 919
5 401 920 921 922 923
5 406 924 925 926 927
5 411 928 929 930 931
5 418 932 933 934 935
5 420 936 937 938 939
5 428 940 941 942 943
5 433 944 945 946 947
5 438 948 949 950 951
5 442 952 953 954 955
5 449 956 957 958 959
5 454 960 961 962 963
5 457 964 965 966 967
5 463 968 969 970 971
5 468 972 973 974 975
5 472 976 977 978 979
5 479 980 981 982 983
5 480 984 985 986 987
5 485 988 989 990 991
5 490 992 993 994 995
5 496 996 997 998 999
5 503 1000 1001 1002 1003
5 508 1004 1005 1006 1007
5 513 1008 1009 1010 1011
5 519 1012 1013 1014 1015
5 523 1016 1017 1018 1019
5 528 1020 1021 1022 1023
5 533 1024 1025 1026 1027
5 539 1028 1029 1030 1031
5 543 1032 1033 1034 1035
5 545 1036 1037 1038 1039
5 553 1040 1041 1042 1043
5 558 1044 1045 1046 1047
5 560 1048 1049 1050 1051
5 568 1052 1053 1054 1055
5 572 1056 1057 1058 1059
5 578 1060 1061 1062 1063
5 581 1064 1065 1066 1067
5 589 1068 1069 1070 1071
5 593 1072 1073 1074 1075
5 598 1076 1077 1078 1079
5 1080 1081 1082 1083 1084
5 1085 1086 1087 1088 1089
5 1090 1091 1092 1093 1094
5 1095 1096 1097 1098 1099
5 1100 1101 1102 1103 1104
5 1105 1106 1107 1108 1109
5 1110 1111 1112 1113 1114
5 1115 1116 1117 1118 1119
5 1120 1121 1122 1123 1124
5 1125 1126 1127 1128 1129
5 1130 1131 1132 1133 1134
5 1135 1136 1137 1138 1139
5 1140 1141 1142 1143 1144
5 1145 1146 1147 1148 1149
5 1150 1151 1152 1153 1154
5 1155 1156 1157 1158 1159
5 1160 1161 1162 1163 1164
5 1165 1166 1167 1168 1169
5 1170 1171 1172 1173 1174
5 1175 1176 1177 1178 1179
5 1180 1181 1182 1183 1184
5 1185 1186 1187 1188 1189
5 1190 1191 1192 1193 1194
5 1195 1196 1197 1198 1199
5 1200 1201 1202 1203 1204
5 1205 1206 1207 1208 1209
5 1210 1211 1212 1213 1214
5 1215 1216 1217 1218 1219
5 1220 1221 1222 1223 1224
5 1225 1226 1227 1228 1229
5 1230 1231 1232 1233 1234
5 1235 1236 1237 1238 1239
5 1240 1241 1242 1243 1244
5 1245 1246 1247 1248 1249
5 1250 1251 1252 1253 1254
5 1255 1256 1257 1258 1259
5 1260 1261 1262 1263 1264
5 1265 1266 1267 1268 1269
5 1270 1271 1272 1273 1274
5 1275 1276 1277 1278 1279
5 1280 1281 1282 1283 1284
5 1285 1286 1287 1288 1289
5 1290 1291 1292 1293 1294
5 1295 1296 1297 1298 1299
5 1300 1301 1302 1303 1304
5 1305 1306 1307 1308 1309
5 1310 1311 1312 1313 1314
5 1315 1316 1317 1318 1319
5 1320 1321 1322 1323 1324
5 1325 1326 1327 1328 1329
5 1330 1331 1332 1333 1334
5 1335 1336 1337 1338 1339
5 1340 1341 1342 1343 1344
5 1345 1346 1347 1348 1349
5 1350 1351 1352 1353 1354
5 1355 1356 1357 1358 1359
5 1360 1361 1362 1363 1364
5 1365 1366 1367 1368 1369
5 1370 1371 1372 1373 1374
5 1375 1376 1377 1378 1379
5 1380 1381 1382 1383 1384
5 1385 1386 1387 1388 1389
5 1390 1391 1392 1393 1394
5 1395 1396 1397 1398 1399
5 1400 1401 1402 1403 1404
5 1405 1406 1407 1408 1409
5 1410 1411 1412 1413 1414
5 1415 1416 1417 1418 1419
5 1420 1421 1422 1423 1424
5 1425 1426 1427 1428 1429
5 1430 1431 1432 1433 1434
5 1435 1436 1437 1438 1439
5 1440 1441 1442 1443 1444
5 1445 1446 1447 1448 1449
5 1450 1451 1452 1453 1454
5 1455 1456 1457 1458 1459
5 1460 1461 1462 1463 1464
5 1465 1466 1467 1468 1469
5 1470 1471 1472 1473 1474
5 1475 1476 1477 1478 1479
5 1480 1481 1482 1483 1484
5 1485 1486 1487 1488 1489
5 1490 1491 1492 1493 1494
5 1495 1496 1497 1498 1499
5 1500 1501 1502 1503 1504
5 1505 1506 1507 1508 1509
5 1510 1511 1512 1513 1514
5 1515 1516 1517 1518 1519
5 1520 1521 1522 1523 1524
5 1525 1526 1527 1528 1529
5 1530 1531 1532 1533 1534
5 1535 1536 1537 1538 1539
5 1540 1541 1542 1543 1544
5 1545 1546 1547 1548 1549
5 1550 1551 1552 1553 1554
5 1555 1556 1557 1558 1559
5 1560 1561 1562 1563 1564
5 1565 1566 1567 1568 1569
5 1570 1571 1572 1573 1574
5 1575 1576 1577 1578 1579
5 1580 1581 1582 1583 1584
5 1585 1586 1587 1588 1589
5 1590 1591 1592 1593 1594
5 1595 1596 1597 1598 1599
5 1600 1601 1602 1603 1604
5 1605 1606 1607 1608 1609
5 1610 1611 1612 1613 1614
5 1615 1616 1617 1618 1619
5 1620 1621 1622 1623 1624
5 1625 1626 1627 1628 1629
5 1630 1631 1632 1633 1634
5 1635 1636 1637 1638 1639
5 1640 1641 1642 1643 1644
5 1645 1646 1647 1648 1649
5 1650 1651 1652 1653 1654
5 1655 1656 1657 1658 1659
5 1660 1661 1662 1663 1664
5 1665 1666 1667 1668 1669
5 1670 1671 1672 1673 1674
5 1675 1676 1677 1678 1679
5 1080 1680 1681 1682 1683
5 1085 1684 1685 1686 1687
5 1090 1688 1689 1690 1691
5 1095 1692 1693 1694 1695
5 1100 1696 1697 1698 1699
5 1105 1700 1701 1702 1703
5 1110 1704 1705 1706 1707
5 1115 1708 1709 1710 1711
5 1120 1712 1713 1714 1715
5 1125 1716 1717 1718 1719
5 1130 1720 1721 1722 1723
5 1135 1724 1725 1726 1727
5 1140 1728 1729 1730 1731
5 1145 1732 1733 1734 1735
5 1150 1736 1737 1738 1739
5 1155 1740 1741 1742 1743
5 1160 1744 1745 1746 1747
5 1165 1748 1749 1750 1751
5 1170 1752 1753 1754 1755
5 1175 1756 1757 1758 1759
5 1180 1760 1761 1762 1763
5 1185 1764 1765 1766 1767
5 1190 1768 1769 1770 1771
5 1195 1772 1773 1774 1775
5 1204 1776 1777 1778 1779
5 1209 1780 1781 1782 1783
5 1214 1784 1785 1786 1787
5 1219 1788 1789 1790 1791
5 1224 1792 1793 1794 1795
5 1227 1796 1797 1798 1799
5 1233 1800 1801 1802 1803
5 1236 1804 1805 1806 1807
5 1242 1808 1809 1810 1811
5 1246 1812 1813 1814 1815
5 1253 1816 1817 1818 1819
5 1258 1820 1821 1822 1823
5 1264 1824 1825 1826 1827
5 1269 1828 1829 1830 1831
5 1273 1832 1833 1834 1835
5 1279 1836 1837 1838 1839
5 1283 1840 1841 1842 1843
5 1289 1844 1845 1846 1847
5 1294 1848 1849 1850 1851
5 1298 1852 1853 1854 1855
5 1301 1856 1857 1858 1859
5 1308 1860 1861 1862 1863
5 1311 1864 1865 1866 1867
5 1318 1868 1869 1870 1871
5 1324 1872 1873 1874 1875
5 1329 1876 1877 1878 1879
5 1333 1880 1881 1882 1883
5 1335 1884 1885 1886 1887
5 1341 1888 1889 1890 1891
5 1345 1892 1893 1894 1895
5 1351 1896 1897 1898 1899
5 1359 1900 1901 1902 1903
5 1363 1904 1905 1906 1907
5 1368 1908 1909 1910 1911
5 1374 1912 1913 1914 1915
5 1376 1916 1917 1918 1919
5 1384 1920 1921 1922 1923
5 1389 1924 1925 1926 1927
5 1393 1928 1929 1930 1931
5 1395 1932 1933 1934 1935
5 1403 1936 1937 1938 1939
5 1408 1940 1941 1942 1943
5 1414 1944 1945 1946 1947
5 1416 1948 1949 1950 1951
5 1424 1952 1953 1954 1955
5 1425 1956 1957 1958 1959
5 1432 1960 1961 1962 1963
5 1437 1964 1965 1966 1967
5 1443 1968 1969 1970 1971
5 1445 1972 1973 1974 1975
5 1453 1976 1977 1978 1979
5 1459 1980 1981 1982 1983
5 1464 1984 1985 1986 1987
5 1469 1988 1989 1990 1991
5 1473 1992 1993 1994 1995
5 1476 1996 1997 1998 1999
5 1483 2000 2001 2002 2003
5 1488 2004 2005 2006 2007
5 1491 2008 2009 2010 2011
5 1496 2012 2013 2014 2015
5 1503 2016 2017 2018 2019
5 1508 2020 2021 2022 2023
5 1510 2024 2025 2026 2027
5 1519 2028 2029 2030 2031
5 1523 2032 2033 2034 2035
5 1527 2036 2037 2038 2039
5 1532 2040 2041 2042 2043
5 1538 2044 2045 2046 2047
5 1544 2048 2049 2050 2051
5 1549 2052 2053 2054 2055
5 1553 2056 2057 2058 2059
5 1557 2060 2061 2062 2063
5 1560 2064 2065 2066 2067
5 1565 2068 2069 2070 2071
5 1570 2072 2073 2074 2075
5 1578 2076 2077 2078 2079
5 1581 2080 2081 2082 2083
5 1588 2084 2085 2086 2087
5 1594 2088 2089 2090 2091
5 1598 2092 2093 2094 2095
5 1603 2096 2097 2098 2099
5 1609 2100 2101 2102 2103
5 1613 2104 2105 2106 2107
5 1618 2108 2109 2110 2111
5 1620 2112 2113 2114 2115
5 1628 2116 2117 2118 2119
5 1633 2120 2121 2122 2123
5 1638 2124 2125 2126 2127
5 1643 2128 2129 2130 2131
5 1645 2132 2133 2134 2135
5 1653 2136 2137 2138 2139
5 1656 2140 2141 2142 2143
5 1662 2144 2145 2146 2147
5 1668 2148 2149 2150 2151
5 1674 2152 2153 2154 2155
5 1678 2156 2157 2158 2159
7 4 753 1083 1829 2160 2161 2162
7 9 957 1087 1825 2163 2164 2165
7 13 748 1094 1966 2166 2167 2168
7 17 880 1098 2028 2169 2170 2171
7 23 722 1104 1809 2172 2173 2174
7 29 953 1106 2010 2175 2176 2177
7 32 924 1114 2136 2178 2179 2180
7 38 1061 1118 2036 2181 2182 2183
7 44 878 1121 1802 2184 2185 2186
7 47 725 1129 1894 2187 2188 2189
7 51 809 1133 1960 2190 2191 2192
7 56 1057 1136 2144 2193 2194 2195
7 63 930 1142 1886 2196 2197 2198
7 67 990 1146 2012 2199 2200 2201
7 71 812 1153 2064 2202 2203 2204
7 77 993 1156 2069 2205 2206 2207
7 81 949 1161 2033 2208 2209 2210
7 89 746 1168 1806 2211 2212 2213
7 92 934 1172 1832 2214 2215 2216
7 97 728 1179 2005 2217 2218 2219
7 103 806 1183 1890 2220 2221 2222
7 106 984 1186 2140 2223 2224 2225
7 113 884 1193 2074 2226 2227 2228
7 119 1065 1196 1958 2229 2230 2231
7 123 844 1200 1883 2232 2233 2234
7 128 793 1206 1707 2235 2236 2237
7 132 630 1211 1922 2238 2239 2240
7 137 664 1216 1847 2241 2242 2243
7 144 909 1220 1744 2244 2245 2246
7 148 761 1228 1983 2247 2248 2249
7 154 799 1231 1783 2250 2251 2252
7 159 706 1239 1903 2253 2254 2255
7 163 826 1243 1873 2256 2257 2258
7 169 699 1249 1799 2259 2260 2261
7 171 607 1252 1786 2262 2263 2264
7 178 714 1257 1694 2265 2266 2267
7 184 840 1260 2002 2268 2269 2270
7 187 912 1266 2089 2271 2272 2273
7 193 1012 1270 1929 2274 2275 2276
7 199 848 1275 1691 2277 2278 2279
7 203 981 1281 1927 2280 2281 2282
7 207 613 1286 2055 2283 2284 2285
7 214 758 1290 1682 2286 2287 2288
7 217 603 1297 1871 2289 2290 2291
7 224 786 1303 1843 2292 2293 2294
7 229 701 1307 1759 2295 2296 2297
7 234 919 1312 1779 2298 2299 2300
7 235 673 1317 1993 2301 2302 2303
7 241 1021 1320 1724 2304 2305 2306
7 247 644 1325 1985 2307 2308 2309
7 253 900 1332 2107 2310 2311 2312
7 259 711 1339 1823 2313 2314 2315
7 263 831 1342 1794 2316 2317 2318
7 267 738 1349 1914 2319 2320 2321
7 274 802 1353 1919 2322 2323 2324
7 275 833 1356 1764 2325 2326 2327
7 282 695 1361 1876 2328 2329 2330
7 287 623 1366 1791 2331 2332 2333
7 292 874 1371 1710 2334 2335 2336
7 299 717 1379 1951 2337 2338 2339
7 301 684 1380 2153 2340 2341 2342
7 308 1068 1385 2099 2343 2344 2345
7 312 1008 1390 1770 2346 2347 2348
7 319 819 1396 1815 2349 2350 2351
7 320 635 1401 1905 2352 2353 2354
7 328 742 1407 1722 2355 2356 2357
7 332 610 1410 1855 2358 2359 2360
7 338 778 1419 2043 2361 2362 2363
7 343 966 1420 1685 2364 2365 2366
7 349 906 1426 1863 2367 2368 2369
7 351 1006 1431 1988 2370 2371 2372
7 357 788 1438 2079 2373 2374 2375
7 360 671 1441 1819 2376 2377 2378
7 369 734 1449 1859 2379 2380 2381
7 372 770 1452 1753 2382 2383 2384
7 378 960 1456 2151 2385 2386 2387
7 382 625 1460 2051 2388 2389 2390
7 388 1077 1465 1700 2391 2392 2393
7 390 653 1470 2092 2394 2395 2396
7 399 1018 1475 1899 2397 2398 2399
7 402 820 1482 1738 2400 2401 2402
7 405 857 1487 2100 2403 2404 2405
7 413 765 1493 1943 2406 2407 2408
7 419 1030 1495 1838 2409 2410 2411
7 424 781 1501 1699 2412 2413 2414
7 425 618 1507 1937 2415 2416 2417
7 434 855 1512 1867 2418 2419 2420
7 435 1044 1515 2156 2421 2422 2423
7 441 972 1521 2129 2424 2425 2426
7 448 1073 1525 2057 2427 2428 2429
7 453 946 1531 2063 2430 2431 2432
7 459 977 1535 1750 2433 2434 2435
7 461 677 1541 2023 2436 2437 2438
7 465 640 1546 2124 2439 2440 2441
7 474 921 1551 1719 2442 2443 2444
7 478 1054 1555 1999 2445 2446 2447
7 481 890 1562 1953 2448 2449 2450
7 489 866 1566 1851 2451 2452 2453
7 492 773 1573 1979 2454 2455 2456
7 495 896 1577 1732 2457 2458 2459
7 504 838 1583 1975 2460 2461 2462
7 506 650 1586 1909 2463 2464 2465
7 510 996 1590 1740 2466 2467 2468
7 517 661 1595 2108 2469 2470 2471
7 524 1025 1601 2083 2472 2473 2474
7 525 1036 1605 1772 2475 2476 2477
7 534 868 1612 2115 2478 2479 2480
7 537 690 1615 1947 2481 2482 2483
7 544 893 1622 2027 2484 2485 2486
7 546 937 1626 1712 2487 2488 2489
7 550 637 1630 1970 2490 2491 2492
7 555 682 1635 2084 2493 2494 2495
7 562 860 1641 1762 2496 2497 2498
7 569 1002 1646 1935 2499 2500 2501
7 570 940 1651 2116 2502 2503 2504
7 575 1041 1655 2044 2505 2506 2507
7 582 970 1661 2019 2508 2509 2510
7 588 1032 1665 2135 2511 2512 2513
7 590 656 1670 2121 2514 2515 2516
7 596 1048 1676 1729 2517 2518 2519
5 2442 2520 2521 2522 2523
5 2412 2524 2525 2526 2527
5 2517 2528 2529 2530 2531
5 2277 2532 2533 2534 2535
5 2400 2536 2537 2538 2539
5 2487 2540 2541 2542 2543
5 2391 2544 2545 2546 2547
5 2286 2548 2549 2550 2551
5 2355 2552 2553 2554 2555
5 2466 2556 2557 2558 2559
5 2235 2560 2561 2562 2563
5 2364 2564 2565 2566 2567
5 2457 2568 2569 2570 2571
5 2265 2572 2573 2574 2575
5 2304 2576 2577 2578 2579
5 2334 2580 2581 2582 2583
5 2433 2584 2585 2586 2587
5 2496 2588 2589 2590 2591
5 2295 2592 2593 2594 2595
5 2346 2596 2597 2598 2599
5 2325 2600 2601 2602 2603
5 2244 2604 2605 2606 2607
5 2475 2608 2609 2610 2611
5 2382 2612 2613 2614 2615
5 2196 2616 2617 2618 2619
5 2483 2620 2621 2622 2623
5 2367 2624 2625 2626 2627
5 2508 2628 2629 2630 2631
5 2359 2632 2633 2634 2635
5 2175 2636 2637 2638 2639
5 2460 2640 2641 2642 2643
5 2472 2644 2645 2646 2647
5 2322 2648 2649 2650 2651
5 2226 2652 2653 2654 2655
5 2406 2656 2657 2658 2659
5 2389 2660 2661 2662 2663
5 2499 2664 2665 2666 2667
5 2397 2668 2669 2670 2671
5 2349 2672 2673 2674 2675
5 2491 2676 2677 2678 2679
5 2211 2680 2681 2682 2683
5 2428 2684 2685 2686 2687
5 2438 2688 2689 2690 2691
5 2424 2692 2693 2694 2695
5 2166 2696 2697 2698 2699
5 2515 2700 2701 2702 2703
5 2187 2704 2705 2706 2707
5 2269 2708 2709 2710 2711
5 2332 2712 2713 2714 2715
5 2451 2716 2717 2718 2719
5 2229 2720 2721 2722 2723
5 2478 2724 2725 2726 2727
5 2337 2728 2729 2730 2731
5 2311 2732 2733 2734 2735
5 2205 2736 2737 2738 2739
5 2308 2740 2741 2742 2743
5 2314 2744 2745 2746 2747
5 2454 2748 2749 2750 2751
5 2243 2752 2753 2754 2755
5 2193 2756 2757 2758 2759
5 2409 2760 2761 2762 2763
5 2184 2764 2765 2766 2767
5 2464 2768 2769 2770 2771
5 2203 2772 2773 2774 2775
5 2253 2776 2777 2778 2779
5 2342 2780 2781 2782 2783
5 2502 2784 2785 2786 2787
5 2208 2788 2789 2790 2791
5 2290 2792 2793 2794 2795
5 2484 2796 2797 2798 2799
5 2261 2800 2801 2802 2803
5 2344 2804 2805 2806 2807
5 2373 2808 2809 2810 2811
5 2179 2812 2813 2814 2815
5 2285 2816 2817 2818 2819
5 2163 2820 2821 2822 2823
5 2505 2824 2825 2826 2827
5 2378 2828 2829 2830 2831
5 2252 2832 2833 2834 2835
5 2220 2836 2837 2838 2839
5 2470 2840 2841 2842 2843
5 2234 2844 2845 2846 2847
5 2512 2848 2849 2850 2851
5 2379 2852 2853 2854 2855
5 2440 2856 2857 2858 2859
5 2273 2860 2861 2862 2863
5 2218 2864 2865 2866 2867
5 2298 2868 2869 2870 2871
5 2445 2872 2873 2874 2875
5 2419 2876 2877 2878 2879
5 2161 2880 2881 2882 2883
5 2417 2884 2885 2886 2887
5 2422 2888 2889 2890 2891
5 2276 2892 2893 2894 2895
5 2495 2896 2897 2898 2899
5 2173 2900 2901 2902 2903
5 2249 2904 2905 2906 2907
5 2362 2908 2909 2910 2911
5 2387 2912 2913 2914 2915
5 2239 2916 2917 2918 2919
5 2224 2920 2921 2922 2923
5 2320 2924 2925 2926 2927
5 2330 2928 2929 2930 2931
5 2317 2932 2933 2934 2935
5 2199 2936 2937 2938 2939
5 2264 2940 2941 2942 2943
5 2181 2944 2945 2946 2947
5 2449 2948 2949 2950 2951
5 2170 2952 2953 2954 2955
5 2303 2956 2957 2958 2959
5 2405 2960 2961 2962 2963
5 2258 2964 2965 2966 2967
5 2396 2968 2969 2970 2971
5 2191 2972 2973 2974 2975
5 2282 2976 2977 2978 2979
5 2293 2980 2981 2982 2983
5 2431 2984 2985 2986 2987
5 2215 2988 2989 2990 2991
5 2371 2992 2993 2994 2995
5 2353 2996 2997 2998 2999
5 2490 2520 3000 3001 3002
5 2415 2524 3003 3004 3005
5 2463 2528 3006 3007 3008
5 2358 2532 3009 3010 3011
5 2514 2536 3012 3013 3014
5 2352 2540 3015 3016 3017
5 2331 2544 3018 3019 3020
5 2289 2548 3021 3022 3023
5 2439 2552 3024 3025 3026
5 2469 2556 3027 3028 3029
5 2388 2560 3030 3031 3032
5 2262 2564 3033 3034 3035
5 2394 2568 3036 3037 3038
5 2283 2572 3039 3040 3041
5 2307 2576 3042 3043 3044
5 2238 2580 3045 3046 3047
5 2376 2584 3048 3049 3050
5 2493 2588 3051 3052 3053
5 2436 2592 3054 3055 3056
5 2481 2596 3057 3058 3059
5 2340 2600 3060 3061 3062
5 2241 2604 3063 3064 3065
5 2328 2608 3066 3067 3068
5 2301 2612 3069 3070 3071
5 2222 2619 3072 3073 3074
5 2453 2623 3075 3076 3077
5 2414 2627 3078 3079 3080
5 2488 2629 3081 3082 3083
5 2456 2635 3084 3085 3086
5 2198 2639 3087 3088 3089
5 2486 2640 3090 3091 3092
5 2500 2645 3093 3094 3095
5 2461 2650 3096 3097 3098
5 2207 2654 3099 3100 3101
5 2498 2656 3102 3103 3104
5 2509 2662 3105 3106 3107
5 2420 2667 3108 3109 3110
5 2351 2670 3111 3112 3113
5 2381 2675 3114 3115 3116
5 2450 2679 3117 3118 3119
5 2189 2683 3120 3121 3122
5 2435 2686 3123 3124 3125
5 2503 2690 3126 3127 3128
5 2518 2693 3129 3130 3131
5 2228 2699 3132 3133 3134
5 2506 2702 3135 3136 3137
5 2204 2706 3138 3139 3140
5 2443 2709 3141 3142 3143
5 2315 2715 3144 3145 3146
5 2384 2718 3147 3148 3149
5 2186 2723 3150 3151 3152
5 2511 2724 3153 3154 3155
5 2479 2728 3156 3157 3158
5 2473 2733 3159 3160 3161
5 2201 2739 3162 3163 3164
5 2368 2742 3165 3166 3167
5 2356 2745 3168 3169 3170
5 2459 2748 3171 3172 3173
5 2407 2754 3174 3175 3176
5 2231 2759 3177 3178 3179
5 2287 2763 3180 3181 3182
5 2174 2766 3183 3184 3185
5 2318 2771 3186 3187 3188
5 2225 2774 3189 3190 3191
5 2401 2776 3192 3193 3194
5 2427 2782 3195 3196 3197
5 2477 2784 3198 3199 3200
5 2177 2791 3201 3202 3203
5 2375 2795 3204 3205 3206
5 2432 2797 3207 3208 3209
5 2339 2800 3210 3211 3212
5 2398 2806 3213 3214 3215
5 2467 2808 3216 3217 3218
5 2195 2814 3219 3220 3221
5 2425 2818 3222 3223 3224
5 2213 2823 3225 3226 3227
5 2366 2827 3228 3229 3230
5 2321 2831 3231 3232 3233
5 2297 2833 3234 3235 3236
5 2192 2838 3237 3238 3239
5 2411 2842 3240 3241 3242
5 2323 2845 3243 3244 3245
5 2446 2850 3246 3247 3248
5 2363 2853 3249 3250 3251
5 2421 2858 3252 3253 3254
5 2348 2860 3255 3256 3257
5 2180 2866 3258 3259 3260
5 2260 2870 3261 3262 3263
5 2300 2875 3264 3265 3266
5 2294 2878 3267 3268 3269
5 2168 2882 3270 3271 3272
5 2404 2887 3273 3274 3275
5 2392 2890 3276 3277 3278
5 2278 2894 3279 3280 3281
5 2372 2899 3282 3283 3284
5 2219 2902 3285 3286 3287
5 2310 2904 3288 3289 3290
5 2385 2908 3291 3292 3293
5 2343 2912 3294 3295 3296
5 2268 2918 3297 3298 3299
5 2183 2922 3300 3301 3302
5 2327 2925 3303 3304 3305
5 2250 2930 3306 3307 3308
5 2267 2934 3309 3310 3311
5 2216 2939 3312 3313 3314
5 2255 2942 3315 3316 3317
5 2165 2947 3318 3319 3320
5 2335 2950 3321 3322 3323
5 2210 2954 3324 3325 3326
5 2271 2958 3327 3328 3329
5 2305 2960 3330 3331 3332
5 2236 2964 3333 3334 3335
5 2274 2970 3336 3337 3338
5 2171 2974 3339 3340 3341
5 2232 2977 3342 3343 3344
5 2247 2982 3345 3346 3347
5 2281 2986 3348 3349 3350
5 2162 2990 3351 3352 3353
5 2246 2994 3354 3355 3356
5 2257 2999 3357 3358 3359
7 3 752 1537 2159 2522 3109 3360
7 8 956 1627 2130 2525 3207 3361
7 11 749 1466 2103 2531 3265 3362
7 19 882 1291 2047 2535 3114 3363
7 24 721 1552 1930 2539 3094 3364
7 28 952 1606 2076 2542 3349 3365
7 31 926 1221 1955 2546 3262 3366
7 39 1060 1451 2018 2550 3249 3367
7 43 876 1642 2001 2554 3154 3368
7 46 726 1392 1874 2559 3215 3369
7 52 810 1306 1839 2562 3097 3370
7 57 1056 1370 1977 2565 3345 3371
7 61 928 1591 1900 2569 3296 3372
7 69 988 1406 1861 2573 3156 3373
7 72 814 1205 1793 2579 3245 3374
7 76 992 1355 1820 2581 3289 3375
7 83 948 1421 2119 2587 3268 3376
7 87 744 1677 2090 2589 3248 3377
7 94 933 1502 2059 2593 3090 3378
7 99 730 1276 1991 2599 3113 3379
7 101 805 1481 1780 2601 3161 3380
7 108 986 1255 1850 2607 3210 3381
7 111 886 1321 1913 2611 3343 3382
7 117 1064 1575 1940 2613 3291 3383
7 121 846 1587 1743 2617 3016 3384
7 125 795 1499 2143 2622 3186 3385
7 131 631 1124 2134 2626 3147 3386
7 135 666 1199 2149 2631 3228 3387
7 143 911 1569 2147 2634 3117 3388
7 146 763 1367 1775 2637 3050 3389
7 153 797 1649 2154 2642 3163 3390
7 156 707 1479 2095 2647 3152 3391
7 164 827 1399 2111 2651 3073 3392
7 167 698 1617 1727 2652 3008 3393
7 172 606 1143 2098 2658 3082 3394
7 179 715 1429 2039 2663 3077 3395
7 180 841 1558 2127 2666 3312 3396
7 185 914 1313 2087 2671 3183 3397
7 191 1014 1513 2123 2673 3237 3398
7 196 851 1659 2139 2678 3282 3399
7 201 983 1442 1730 2681 3003 3400
7 205 615 1088 2062 2687 3180 3401
7 213 759 1663 2035 2691 3136 3402
7 216 602 1109 1925 2695 3124 3403
7 222 787 1412 1703 2697 3001 3404
7 227 703 1528 2031 2703 3242 3405
7 232 917 1632 1769 2704 3051 3406
7 237 675 1167 1998 2711 3079 3407
7 242 1023 1343 2071 2714 3231 3408
7 246 645 1149 2113 2716 3321 3409
7 250 901 1362 1735 2721 3033 3410
7 257 710 1602 1921 2726 3179 3411
7 264 830 1582 1986 2729 3100 3412
7 269 739 1352 1879 2735 3089 3413
7 271 800 1597 1767 2737 3068 3414
7 278 835 1232 2015 2743 3145 3415
7 281 693 1182 2081 2744 3171 3416
7 286 622 1159 2104 2749 3199 3417
7 294 875 1336 1959 2755 3084 3418
7 296 719 1326 1709 2757 3019 3419
7 300 686 1173 2026 2761 3309 3420
7 305 1069 1402 1761 2765 3069 3421
7 310 1011 1433 2067 2770 3357 3422
7 316 817 1671 1704 2772 3029 3423
7 322 634 1126 1898 2779 3103 3424
7 326 743 1261 1835 2783 3167 3425
7 330 608 1139 1980 2786 3277 3426
7 335 779 1215 1686 2789 3011 3427
7 344 967 1572 2011 2794 3126 3428
7 346 904 1667 2052 2796 3301 3429
7 353 1007 1446 1946 2802 3138 3430
7 356 791 1201 1906 2807 3227 3431
7 362 669 1192 1880 2809 3130 3432
7 366 735 1461 1747 2812 3059 3433
7 374 771 1492 1827 2819 3106 3434
7 375 963 1251 1715 2821 3022 3435
7 380 624 1117 2040 2826 3354 3436
7 386 1079 1563 2075 2830 3273 3437
7 392 655 1101 1934 2834 3168 3438
7 395 1016 1637 1737 2836 3036 3439
7 400 823 1272 1963 2843 3307 3440
7 408 859 1245 1911 2847 3121 3441
7 410 766 1386 1994 2851 3320 3442
7 417 1028 1623 2049 2852 3189 3443
7 422 783 1522 1831 2859 3197 3444
7 427 619 1091 1778 2863 3142 3445
7 432 853 1540 1688 2864 3014 3446
7 436 1045 1302 1971 2869 3285 3447
7 440 973 1282 1938 2874 3352 3448
7 445 1072 1533 2020 2876 3339 3449
7 451 947 1296 1749 2881 3054 3450
7 456 979 1652 1967 2886 3253 3451
7 460 679 1164 1840 2891 3280 3452
7 466 641 1082 1866 2895 3235 3453
7 470 923 1516 2007 2898 3337 3454
7 476 1052 1506 1716 2900 3025 3455
7 483 891 1375 1790 2906 3133 3456
7 487 865 1611 1844 2909 3220 3457
7 491 775 1330 1785 2915 3203 3458
7 498 899 1235 1803 2919 3176 3459
7 501 837 1381 1693 2920 3044 3460
7 507 648 1152 1916 2924 3216 3461
7 511 999 1241 1891 2931 3316 3462
7 516 660 1132 1973 2932 3303 3463
7 520 1024 1472 1721 2937 3045 3464
7 527 1039 1346 1887 2943 3204 3465
7 530 871 1210 1754 2945 3065 3466
7 535 688 1189 1948 2948 3330 3467
7 540 894 1285 1681 2952 3031 3468
7 547 939 1435 1807 2959 3223 3469
7 551 636 1111 1796 2961 3256 3470
7 556 680 1176 1814 2966 3192 3471
7 561 863 1265 1811 2971 3299 3472
7 565 1000 1545 1756 2972 3060 3473
7 571 942 1225 1817 2978 3272 3474
7 576 1040 1415 1852 2980 3258 3475
7 580 968 1455 1868 2984 3325 3476
7 585 1033 1316 1696 2988 3039 3477
7 591 657 1097 1857 2993 3333 3478
7 595 1051 1485 1895 2998 3327 3479
7 462 627 1262 1828 2523 3111 3480
7 215 611 1427 1824 2527 3108 3481
7 552 658 1520 1964 2530 3213 3482
7 381 646 1274 2029 2533 3261 3483
7 467 612 1238 1810 2538 3098 3484
7 361 639 1660 2008 2543 3247 3485
7 536 663 1518 2137 2545 3342 3486
7 136 621 1498 2037 2549 3267 3487
7 236 601 1337 1801 2555 3092 3488
7 557 642 1436 1893 2558 3160 3489
7 302 628 1244 1962 2561 3212 3490
7 285 651 1657 2145 2566 3348 3491
7 321 616 1571 1884 2571 3155 3492
7 130 605 1344 2014 2574 3251 3493
7 515 652 1489 2066 2577 3288 3494
7 280 633 1564 2068 2582 3293 3495
7 331 691 1526 2032 2585 3264 3496
7 426 676 1490 1804 2591 3095 3497
7 206 665 1234 1834 2594 3115 3498
7 592 685 1268 2006 2598 3243 3499
7 391 672 1348 1889 2602 3158 3500
7 245 694 1434 2141 2605 3346 3501
7 505 683 1650 2072 2609 3294 3502
7 170 670 1567 1956 2614 3209 3503
7 49 922 1107 1881 2616 3151 3504
7 502 1027 1391 1706 2620 3018 3505
7 414 955 1328 1920 2624 3182 3506
7 494 887 1463 1845 2630 3125 3507
7 297 803 1277 1746 2632 3048 3508
7 114 1010 1163 1981 2636 3225 3509
7 329 767 1350 1782 2643 3076 3510
7 564 975 1331 1902 2646 3166 3511
7 404 842 1203 1875 2649 3144 3512
7 73 822 1092 1798 2653 3088 3513
7 359 751 1218 1787 2659 3080 3514
7 532 902 1207 1695 2661 3009 3515
7 423 971 1600 2000 2664 3241 3516
7 473 1075 1387 2088 2668 3306 3517
7 228 907 1477 1928 2672 3187 3518
7 367 839 1550 1689 2676 3007 3519
7 14 849 1089 1924 2680 3184 3520
7 584 1059 1383 2053 2685 3281 3521
7 337 718 1305 1683 2689 3002 3522
7 573 927 1288 1870 2694 3143 3523
7 34 792 1084 1842 2696 3122 3524
7 542 870 1480 1757 2701 3058 3525
7 96 702 1166 1777 2705 3074 3526
7 443 951 1213 1995 2710 3236 3527
7 272 1019 1467 1725 2712 3034 3528
7 258 931 1619 1984 2717 3230 3529
7 64 1050 1137 2105 2720 3318 3530
7 497 789 1377 1822 2727 3107 3531
7 277 704 1248 1795 2731 3086 3532
7 512 913 1229 1915 2734 3175 3533
7 104 862 1191 1917 2736 3178 3534
7 522 1070 1322 1766 2741 3063 3535
7 157 747 1369 1878 2746 3149 3536
7 266 727 1413 1788 2751 3083 3537
7 251 845 1222 1711 2753 3021 3538
7 79 997 1113 1950 2756 3202 3539
7 348 1067 1599 2152 2760 3356 3540
7 88 978 1198 2096 2764 3313 3541
7 317 1003 1675 1768 2768 3066 3542
7 53 741 1128 1813 2773 3101 3543
7 186 755 1254 1907 2777 3170 3544
7 586 961 1357 1723 2781 3030 3545
7 482 815 1543 1853 2787 3131 3546
7 58 1020 1099 2042 2788 3270 3547
7 145 697 1292 1687 2792 3005 3548
7 371 774 1580 1860 2798 3137 3549
7 126 798 1314 1990 2801 3232 3550
7 597 1046 1458 2078 2805 3297 3551
7 407 731 1299 1818 2811 3104 3552
7 107 832 1177 1858 2813 3134 3553
7 376 760 1256 1755 2817 3055 3554
7 27 1076 1119 2148 2820 3351 3555
7 488 995 1673 2048 2824 3278 3556
7 166 818 1536 1701 2828 3017 3557
7 182 959 1364 2094 2832 3311 3558
7 21 782 1141 1896 2837 3164 3559
7 567 1035 1592 1736 2840 3042 3560
7 311 1013 1284 2102 2844 3315 3561
7 548 943 1610 1941 2849 3196 3562
7 175 709 1398 1837 2854 3119 3563
7 450 776 1405 1698 2857 3013 3564
7 437 883 1319 1939 2862 3194 3565
7 16 712 1103 1865 2865 3140 3566
7 197 1031 1559 2157 2868 3358 3567
7 458 1043 1666 2128 2872 3336 3568
7 212 867 1647 2056 2877 3284 3569
7 82 908 1174 2061 2880 3286 3570
7 221 733 1500 1748 2884 3053 3571
7 577 987 1548 2021 2889 3257 3572
7 446 1063 1474 2125 2892 3335 3573
7 431 895 1640 1718 2896 3028 3574
7 2 756 1122 1997 2901 3238 3575
7 240 824 1304 1954 2905 3206 3576
7 290 736 1447 1849 2910 3128 3577
7 526 856 1418 1978 2914 3224 3578
7 306 980 1372 1734 2917 3040 3579
7 66 897 1151 1972 2921 3221 3580
7 160 723 1444 1910 2926 3173 3581
7 397 1055 1607 1741 2928 3046 3582
7 151 879 1589 2109 2933 3323 3583
7 42 938 1157 2080 2936 3302 3584
7 120 918 1422 1774 2940 3070 3585
7 118 1037 1188 2112 2944 3324 3586
7 261 807 1634 1944 2949 3200 3587
7 36 872 1134 2025 2953 3260 3588
7 200 784 1450 1713 2956 3026 3589
7 350 811 1509 1969 2962 3218 3590
7 190 935 1404 2086 2965 3305 3591
7 475 944 1576 1760 2968 3061 3592
7 91 769 1181 1932 2973 3191 3593
7 385 1004 1534 2117 2976 3328 3594
7 140 829 1514 2046 2981 3275 3595
7 340 889 1621 2016 2985 3254 3596
7 7 964 1148 2132 2989 3340 3597
7 415 991 1639 2120 2992 3332 3598
7 231 854 1625 1728 2996 3038 3599
7 177 700 1411 1690 2526 3110 3600
7 141 757 1440 1751 2615 3208 3601
7 225 920 1616 1771 2586 3266 3602
7 279 794 1217 1745 2595 3116 3603
7 373 740 1542 1758 2590 3093 3604
7 195 976 1585 1731 2567 3350 3605
7 403 1009 1327 1726 2534 3263 3606
7 244 910 1250 1684 2575 3250 3607
7 342 768 1505 1697 2570 3153 3608
7 421 861 1672 1739 2529 3214 3609
7 499 834 1287 1692 2537 3096 3610
7 313 1078 1360 1773 2606 3347 3611
7 455 936 1636 1763 2610 3295 3612
7 529 873 1315 1752 2603 3157 3613
7 563 998 1382 1765 2597 3244 3614
7 599 1038 1471 1733 2578 3290 3615
7 127 850 1365 1702 2551 3269 3616
7 210 780 1631 1717 2541 3246 3617
7 293 713 1295 1680 2553 3091 3618
7 327 821 1462 1705 2521 3112 3619
7 549 898 1547 1720 2557 3159 3620
7 514 1022 1212 1708 2563 3211 3621
7 471 1049 1596 1742 2547 3344 3622
7 387 965 1400 1714 2583 3292 3623
7 1 745 1397 1897 2829 3015 3624
7 155 801 1428 1987 2674 3188 3625
7 147 667 1169 1826 2747 3148 3626
7 165 609 1144 2009 2719 3229 3627
7 162 696 1338 1789 2855 3118 3628
7 98 750 1354 1882 2633 3049 3629
7 174 708 1504 1862 2839 3162 3630
7 218 764 1554 2003 2618 3150 3631
7 239 705 1309 1781 2707 3072 3632
7 22 724 1584 1918 2677 3006 3633
7 220 600 1127 1805 2750 3081 3634
7 268 716 1494 1846 2641 3075 3635
7 138 905 1539 2058 2767 3314 3636
7 208 843 1278 1931 2682 3185 3637
7 133 796 1293 1836 2903 3239 3638
7 150 816 1568 1945 2879 3283 3639
7 18 754 1247 1776 2793 3004 3640
7 295 626 1108 2034 2625 3181 3641
7 262 732 1574 1854 2799 3135 3642
7 365 678 1194 1965 2628 3123 3643
7 54 729 1378 1797 2688 3000 3644
7 255 836 1664 2050 2665 3240 3645
7 93 720 1448 1812 2885 3052 3646
7 336 614 1093 1830 2657 3078 3647
7 188 847 1230 1877 2803 3233 3648
7 122 620 1123 1957 2935 3322 3649
7 12 954 1478 2097 2713 3035 3650
7 364 772 1644 1942 2738 3177 3651
7 324 737 1409 1821 2775 3099 3652
7 429 790 1484 1901 2655 3087 3653
7 86 929 1648 2082 2769 3067 3654
7 358 903 1263 1923 2648 3146 3655
7 202 604 1102 1800 2927 3172 3656
7 230 668 1184 1885 2951 3198 3657
7 409 762 1237 1784 2730 3085 3658
7 48 885 1604 2106 2621 3020 3659
7 252 647 1086 2038 2835 3310 3660
7 84 958 1310 1996 2941 3071 3661
7 181 1017 1497 2110 2871 3359 3662
7 41 804 1624 1974 2897 3027 3663
7 452 674 1178 1808 2810 3102 3664
7 493 869 1524 2054 2644 3165 3665
7 315 638 1158 2073 2825 3276 3666
7 74 925 1334 1982 2660 3010 3667
7 354 785 1347 1816 2911 3127 3668
7 288 864 1629 2017 2938 3300 3669
7 394 825 1259 1792 2867 3139 3670
7 464 974 1394 2091 2638 3226 3671
7 430 617 1154 1892 2785 3129 3672
7 102 813 1614 1949 2700 3057 3673
7 484 777 1439 1869 2725 3105 3674
7 33 950 1202 1926 2752 3023 3675
7 270 689 1197 2146 2762 3355 3676
7 192 916 1340 1908 2983 3274 3677
7 377 629 1081 1833 2778 3169 3678
7 6 877 1511 1933 2997 3037 3679
7 412 1026 1529 2155 2669 3308 3680
7 469 915 1208 1872 2698 3120 3681
7 333 969 1679 2131 2722 3319 3682
7 283 828 1454 1848 2975 3190 3683
7 486 892 1654 2022 2848 3195 3684
7 541 643 1112 2004 2692 3141 3685
7 68 808 1417 1856 2856 3012 3686
7 304 1015 1223 1989 2883 3287 3687
7 383 1074 1468 2158 2822 3353 3688
7 248 1029 1423 2045 2991 3341 3689
7 109 881 1226 1841 2816 3056 3690
7 416 852 1561 1968 2987 3252 3691
7 500 659 1138 2138 2684 3279 3692
7 531 687 1162 2030 2708 3234 3693
7 345 1001 1658 2122 2873 3338 3694
7 37 932 1300 1864 2957 3024 3695
7 559 858 1358 1912 2815 3132 3696
7 509 888 1579 1976 2923 3219 3697
7 554 941 1593 2077 2758 3201 3698
7 574 962 1267 1992 2732 3174 3699
7 62 994 1669 2114 2841 3043 3700
7 477 632 1131 1888 2963 3217 3701
7 444 1071 1271 2093 2846 3317 3702
7 307 692 1171 2013 2967 3304 3703
7 26 1066 1556 2133 2929 3047 3704
7 439 982 1240 1904 2907 3205 3705
7 112 1058 1388 2150 2740 3064 3706
7 396 649 1147 2070 2995 3331 3707
7 78 985 1457 2041 2780 3032 3708
7 579 945 1486 1936 2913 3222 3709
7 566 681 1187 2065 2888 3255 3710
7 587 654 1096 1961 2861 3193 3711
7 583 1034 1517 2126 2804 3298 3712
7 116 989 1530 2024 2969 3062 3713
7 594 1047 1323 2101 2790 3271 3714
7 518 1005 1373 1952 2955 3259 3715
7 538 1042 1608 2118 2946 3326 3716
7 59 1062 1280 2060 2916 3041 3717
7 521 662 1116 2142 2893 3334 3718
7 447 1053 1430 2085 2979 3329 3719
4 2279 3401 3480 3688
4 2434 3387 3481 3682
4 2347 3452 3482 3714
4 2245 3420 3483 3689
4 2296 3407 3484 3637
4 2519 3426 3485 3698
4 2306 3478 3486 3715
4 2365 3409 3487 3669
4 2413 3394 3488 3631
4 2402 3445 3489 3681
4 2266 3438 3490 3638
4 2476 3467 3491 3697
4 2497 3432 3492 3653
4 2383 3416 3493 3630
4 2326 3471 3494 3670
4 2458 3461 3495 3652
4 2393 3436 3496 3716
4 2444 3403 3497 3671
4 2288 3386 3498 3636
4 2237 3453 3499 3687
4 2357 3424 3500 3632
4 2336 3463 3501 3683
4 2468 3470 3502 3696
4 2489 3417 3503 3651
4 2399 3362 3504 3622
4 2309 3440 3505 3718
4 2164 3410 3506 3704
4 2176 3419 3507 3706
4 2333 3385 3508 3676
4 2233 3366 3509 3611
4 2369 3391 3510 3680
4 2270 3431 3511 3702
4 2251 3397 3512 3662
4 2324 3379 3513 3606
4 2212 3389 3514 3650
4 2242 3415 3515 3660
4 2429 3442 3516 3712
4 2275 3448 3517 3719
4 2410 3396 3518 3694
4 2482 3405 3519 3692
4 2299 3376 3520 3605
4 2209 3466 3521 3717
4 2360 3395 3522 3641
4 2167 3427 3523 3675
4 2259 3363 3524 3616
4 2390 3425 3525 3693
4 2350 3360 3526 3602
4 2160 3435 3527 3661
4 2329 3422 3528 3707
4 2230 3414 3529 3700
4 2345 3382 3530 3615
4 2408 3413 3531 3655
4 2313 3392 3532 3625
4 2254 3441 3533 3648
4 2474 3369 3534 3614
4 2240 3462 3535 3703
4 2185 3384 3536 3654
4 2197 3393 3537 3659
4 2263 3408 3538 3649
4 2312 3374 3539 3621
4 2182 3464 3540 3713
4 2447 3365 3541 3612
4 2471 3454 3542 3710
4 2462 3364 3543 3619
4 2172 3400 3544 3624
4 2284 3459 3545 3678
4 2227 3433 3546 3667
4 2248 3381 3547 3607
4 2377 3388 3548 3627
4 2510 3411 3549 3665
4 2316 3398 3550 3639
4 2272 3474 3551 3705
4 2188 3404 3552 3629
4 2338 3370 3553 3603
4 2291 3418 3554 3626
4 2280 3371 3555 3623
4 2194 3460 3556 3708
4 2465 3399 3557 3666
4 2214 3421 3558 3679
4 2501 3377 3559 3609
4 2341 3472 3560 3711
4 2256 3447 3561 3677
4 2426 3458 3562 3699
4 2452 3390 3563 3645
4 2437 3434 3564 3647
4 2217 3450 3565 3640
4 2380 3378 3566 3600
4 2370 3449 3567 3691
4 2423 3476 3568 3709
4 2507 3429 3569 3684
4 2292 3367 3570 3601
4 2492 3402 3571 3643
4 2178 3468 3572 3690
4 2169 3477 3573 3695
4 2516 3444 3574 3685
4 2418 3361 3575 3617
4 2319 3430 3576 3628
4 2455 3412 3577 3635
4 2374 3456 3578 3658
4 2302 3465 3579 3656
4 2480 3380 3580 3610
4 2221 3406 3581 3633
4 2395 3479 3582 3701
4 2200 3439 3583 3663
4 2513 3372 3584 3620
4 2354 3437 3585 3657
4 2386 3375 3586 3613
4 2206 3423 3587 3673
4 2361 3373 3588 3618
4 2416 3428 3589 3634
4 2202 3446 3590 3644
4 2190 3455 3591 3646
4 2441 3469 3592 3664
4 2485 3368 3593 3604
4 2403 3475 3594 3668
4 2448 3443 3595 3642
4 2504 3457 3596 3674
4 2430 3383 3597 3608
4 2223 3473 3598 3686
4 2494 3451 3599 3672
