# Generated using Miratope v0.5.0 (https://github.com/galoomba1/miratope-rs)
4OFF

# Vertices, Faces, Edges, Cells
120 480 480 120

# Vertices
-0.809016994374945 -0.809016994374945 -0.809016994374945 -0.809016994374945 
0 -1.61803398874989 0 0 
-1.30901699437495 -0.809016994374945 0.5 0 
-1.30901699437495 0 -0.809016994374945 0.5 
0 -0.809016994374945 -1.30901699437495 0.5 
-0.5 -0.809016994374945 0 1.30901699437495 
-0.809016994374945 -0.809016994374945 0.809016994374945 0.809016994374945 
-0.809016994374945 -0.809016994374945 -0.809016994374945 0.809016994374945 
0 0.5 0.809016994374945 1.30901699437495 
0.5 -0.809016994374945 0 1.30901699437495 
-1.30901699437495 0.5 0 0.809016994374945 
0 0.5 -0.809016994374945 1.30901699437495 
0.809016994374945 -0.809016994374945 0.809016994374945 -0.809016994374945 
-0.809016994374945 -0.809016994374945 0.809016994374945 -0.809016994374945 
0 -0.809016994374945 1.30901699437495 0.5 
0.809016994374945 -1.30901699437495 0 0.5 
0 -1.30901699437495 -0.5 -0.809016994374945 
-0.809016994374945 -1.30901699437495 0 0.5 
-0.809016994374945 0.809016994374945 -0.809016994374945 -0.809016994374945 
-1.30901699437495 0.809016994374945 0.5 0 
-0.809016994374945 0 0.5 -1.30901699437495 
0.809016994374945 -0.809016994374945 -0.809016994374945 0.809016994374945 
0.809016994374945 -0.809016994374945 -0.809016994374945 -0.809016994374945 
0.809016994374945 0.5 -1.30901699437495 0 
-0.5 0 -1.30901699437495 0.809016994374945 
-0.5 -1.30901699437495 -0.809016994374945 0 
-0.5 0 -1.30901699437495 -0.809016994374945 
0 0 1.61803398874989 0 
0.5 -1.30901699437495 0.809016994374945 0 
1.30901699437495 0 0.809016994374945 0.5 
-0.809016994374945 0.809016994374945 0.809016994374945 -0.809016994374945 
0 0 0 -1.61803398874989 
0.5 0 1.30901699437495 -0.809016994374945 
-0.809016994374945 -0.5 1.30901699437495 0 
-1.30901699437495 -0.5 0 -0.809016994374945 
0 -1.30901699437495 0.5 -0.809016994374945 
-0.809016994374945 0.809016994374945 -0.809016994374945 0.809016994374945 
-1.61803398874989 0 0 0 
0 1.30901699437495 0.5 0.809016994374945 
-0.809016994374945 0 0.5 1.30901699437495 
-0.809016994374945 1.30901699437495 0 -0.5 
-0.809016994374945 0.5 1.30901699437495 0 
0 0 0 1.61803398874989 
1.30901699437495 0.5 0 0.809016994374945 
0 1.30901699437495 -0.5 0.809016994374945 
1.61803398874989 0 0 0 
0.809016994374945 0 -0.5 -1.30901699437495 
0.809016994374945 -0.5 -1.30901699437495 0 
0.809016994374945 0.809016994374945 -0.809016994374945 -0.809016994374945 
0 0 -1.61803398874989 0 
-0.5 1.30901699437495 -0.809016994374945 0 
-0.5 0.809016994374945 0 -1.30901699437495 
0 -0.5 -0.809016994374945 -1.30901699437495 
-1.30901699437495 0 -0.809016994374945 -0.5 
-0.809016994374945 0.809016994374945 0.809016994374945 0.809016994374945 
0.5 1.30901699437495 0.809016994374945 0 
0.5 0 1.30901699437495 0.809016994374945 
0.809016994374945 0.809016994374945 0.809016994374945 0.809016994374945 
0.809016994374945 -0.809016994374945 0.809016994374945 0.809016994374945 
1.30901699437495 0.809016994374945 -0.5 0 
1.30901699437495 0 0.809016994374945 -0.5 
0.809016994374945 0 -0.5 1.30901699437495 
1.30901699437495 -0.809016994374945 -0.5 0 
0.809016994374945 0.809016994374945 -0.809016994374945 0.809016994374945 
0.809016994374945 1.30901699437495 0 -0.5 
0 0.809016994374945 -1.30901699437495 -0.5 
0.809016994374945 0.809016994374945 0.809016994374945 -0.809016994374945 
1.30901699437495 -0.5 0 -0.809016994374945 
0 -0.5 0.809016994374945 -1.30901699437495 
0 1.61803398874989 0 0 
0 0.809016994374945 1.30901699437495 -0.5 
0.5 0.809016994374945 0 -1.30901699437495 
0 -0.5 0.809016994374945 1.30901699437495 
-0.809016994374945 0 -0.5 1.30901699437495 
-1.30901699437495 0 0.809016994374945 0.5 
-0.5 -1.30901699437495 0.809016994374945 0 
0 -1.30901699437495 -0.5 0.809016994374945 
-1.30901699437495 -0.809016994374945 -0.5 0 
0 -1.30901699437495 0.5 0.809016994374945 
-1.30901699437495 -0.5 0 0.809016994374945 
-1.30901699437495 0 0.809016994374945 -0.5 
-0.809016994374945 -1.30901699437495 0 -0.5 
0.5 -1.30901699437495 -0.809016994374945 0 
0 -0.5 -0.809016994374945 1.30901699437495 
-0.809016994374945 -0.5 -1.30901699437495 0 
-0.809016994374945 0 -0.5 -1.30901699437495 
0.809016994374945 -1.30901699437495 0 -0.5 
-0.5 -0.809016994374945 0 -1.30901699437495 
0 -0.809016994374945 -1.30901699437495 -0.5 
-1.30901699437495 0.809016994374945 -0.5 0 
0.5 0 -1.30901699437495 0.809016994374945 
-0.809016994374945 0.5 -1.30901699437495 0 
-0.5 0 1.30901699437495 0.809016994374945 
0 -0.809016994374945 1.30901699437495 -0.5 
-0.5 0 1.30901699437495 -0.809016994374945 
-1.30901699437495 0.5 0 -0.809016994374945 
-0.5 0.809016994374945 0 1.30901699437495 
0.809016994374945 0 0.5 1.30901699437495 
-0.809016994374945 1.30901699437495 0 0.5 
0.5 -0.809016994374945 0 -1.30901699437495 
1.30901699437495 0 -0.809016994374945 0.5 
0.5 0 -1.30901699437495 -0.809016994374945 
0 0.809016994374945 -1.30901699437495 0.5 
1.30901699437495 -0.809016994374945 0.5 0 
0 0.5 -0.809016994374945 -1.30901699437495 
1.30901699437495 -0.5 0 0.809016994374945 
1.30901699437495 0 -0.809016994374945 -0.5 
0.809016994374945 -0.5 1.30901699437495 0 
0.5 0.809016994374945 0 1.30901699437495 
-0.5 1.30901699437495 0.809016994374945 0 
0 0.809016994374945 1.30901699437495 0.5 
0 1.30901699437495 -0.5 -0.809016994374945 
0.809016994374945 0 0.5 -1.30901699437495 
0.5 1.30901699437495 -0.809016994374945 0 
0 0.5 0.809016994374945 -1.30901699437495 
1.30901699437495 0.5 0 -0.809016994374945 
0.809016994374945 1.30901699437495 0 0.5 
0 1.30901699437495 0.5 -0.809016994374945 
0.809016994374945 0.5 1.30901699437495 0 
1.30901699437495 0.809016994374945 0.5 0 

# Faces
3 0 1 2
3 0 4 1
3 0 2 3
3 3 4 0
3 5 2 1
3 1 5 4
3 5 3 2
3 3 4 5
3 7 9 6
3 7 10 6
3 8 9 6
3 8 10 6
3 7 11 9
3 7 11 10
3 8 9 11
3 8 11 10
3 12 14 13
3 13 16 12
3 12 15 14
3 15 16 12
3 13 17 14
3 17 16 13
3 14 17 15
3 15 17 16
3 0 3 18
3 18 20 0
3 19 3 18
3 18 20 19
3 2 20 0
3 3 19 2
3 2 20 19
3 22 23 21
3 22 25 21
3 23 24 21
3 24 25 21
3 23 26 22
3 22 26 25
3 23 26 24
3 25 26 24
3 6 27 8
3 6 28 27
3 6 9 28
3 29 8 27
3 27 28 29
3 9 29 8
3 9 28 29
3 30 31 32
3 30 34 31
3 30 32 33
3 33 34 30
3 31 32 35
3 31 35 34
3 32 35 33
3 33 35 34
3 36 37 39
3 36 37 40
3 36 39 38
3 36 38 40
3 41 39 37
3 37 40 41
3 38 39 41
3 38 40 41
3 21 42 43
3 24 42 21
3 21 43 23
3 42 43 44
3 44 24 42
3 44 23 43
3 23 44 24
3 12 45 15
3 12 46 45
3 12 16 46
3 45 47 15
3 45 47 46
3 15 16 47
3 46 16 47
3 48 49 50
3 49 52 48
3 50 51 48
3 51 52 48
3 50 53 49
3 49 53 52
3 50 51 53
3 51 53 52
3 54 55 30
3 33 54 30
3 55 56 54
3 56 33 54
3 30 32 55
3 55 32 56
3 33 56 32
3 58 60 57
3 57 61 58
3 59 60 57
3 57 59 61
3 60 62 58
3 61 62 58
3 59 60 62
3 59 61 62
3 36 38 63
3 36 65 63
3 38 64 63
3 63 65 64
3 36 65 40
3 40 64 38
3 64 65 40
3 66 48 67
3 48 66 51
3 66 67 68
3 66 51 68
3 48 52 67
3 67 52 68
3 52 68 51
3 57 69 59
3 57 69 70
3 57 70 60
3 69 71 59
3 70 71 69
3 59 71 60
3 70 71 60
3 37 13 41
3 13 37 17
3 13 41 14
3 37 17 39
3 41 14 39
3 17 39 14
3 62 1 58
3 1 58 5
3 58 61 5
3 4 62 1
3 61 62 4
3 5 61 4
3 7 49 11
3 49 53 7
3 7 53 10
3 50 11 49
3 10 50 11
3 50 53 10
3 31 35 22
3 26 31 22
3 25 35 22
3 31 26 34
3 34 25 35
3 26 34 25
3 64 45 63
3 45 63 47
3 63 65 47
3 45 46 64
3 64 65 46
3 47 65 46
3 18 19 69
3 69 18 71
3 18 20 71
3 69 70 19
3 19 70 20
3 70 71 20
3 29 66 27
3 68 27 66
3 67 29 66
3 28 68 27
3 28 67 29
3 67 68 28
3 56 42 54
3 42 54 44
3 54 55 44
3 42 56 43
3 55 43 56
3 43 55 44
3 72 73 74
3 73 76 72
3 74 75 72
3 72 76 75
3 74 77 73
3 73 77 76
3 74 75 77
3 75 76 77
3 33 79 78
3 33 78 35
3 33 34 79
3 78 25 79
3 35 25 78
3 34 79 25
3 6 81 7
3 6 10 80
3 6 80 81
3 7 53 81
3 10 80 53
3 53 81 80
3 6 28 81
3 9 82 7
3 81 82 7
3 9 82 28
3 28 82 81
3 37 84 36
3 39 83 36
3 36 84 83
3 17 84 37
3 17 83 39
3 17 84 83
3 13 37 85
3 13 16 85
3 37 85 84
3 17 84 16
3 84 16 85
3 21 78 42
3 25 78 21
3 78 79 42
3 24 79 42
3 25 24 79
3 76 86 75
3 86 87 75
3 86 76 88
3 86 88 87
3 75 77 87
3 76 88 77
3 77 87 88
3 79 24 89
3 79 89 34
3 24 26 89
3 26 89 34
3 47 83 15
3 17 83 15
3 83 84 47
3 16 84 47
3 73 76 90
3 90 91 73
3 77 91 73
3 76 90 88
3 90 88 91
3 77 91 88
3 7 82 49
3 49 82 52
3 82 52 81
3 53 52 81
3 1 93 58
3 58 92 5
3 58 93 92
3 1 2 93
3 2 92 5
3 92 93 2
3 75 94 74
3 94 74 95
3 75 94 87
3 95 87 94
3 74 77 95
3 77 87 95
3 5 96 92
3 92 19 96
3 5 3 96
3 19 96 3
3 19 92 2
3 39 97 14
3 39 83 97
3 15 97 14
3 15 97 83
3 74 98 73
3 73 98 91
3 95 98 74
3 98 95 91
3 77 95 91
3 0 99 1
3 20 99 0
3 93 99 1
3 20 93 2
3 93 20 99
3 49 100 11
3 82 100 49
3 11 100 9
3 9 82 100
3 99 101 0
3 0 4 101
3 1 99 62
3 62 99 101
3 62 101 4
3 0 18 101
3 18 3 102
3 18 101 102
3 4 102 3
3 101 102 4
3 21 22 103
3 78 103 21
3 22 35 103
3 78 103 35
3 61 96 5
3 61 102 96
3 4 102 61
3 96 102 3
3 91 104 95
3 95 87 104
3 88 104 91
3 87 104 88
3 30 89 54
3 33 79 54
3 89 79 54
3 34 89 30
3 42 79 54
3 56 78 42
3 56 78 33
3 27 80 6
3 27 68 80
3 28 68 81
3 80 81 68
3 105 90 106
3 105 106 86
3 76 105 90
3 86 105 76
3 90 88 106
3 86 88 106
3 36 83 63
3 63 83 47
3 36 84 65
3 65 84 47
3 46 65 85
3 16 46 85
3 84 65 85
3 105 72 107
3 105 86 107
3 72 105 76
3 72 107 75
3 86 107 75
3 68 80 51
3 51 80 53
3 52 81 68
3 54 44 89
3 24 89 44
3 72 108 105
3 90 108 105
3 73 108 72
3 73 108 90
3 37 85 40
3 40 85 65
3 28 82 67
3 67 82 52
3 93 70 92
3 70 92 19
3 70 93 20
3 27 8 109
3 27 80 109
3 10 109 8
3 10 109 80
3 107 110 72
3 110 94 107
3 72 74 110
3 74 110 94
3 75 94 107
3 63 97 45
3 97 63 83
3 15 45 97
3 44 111 23
3 44 111 89
3 23 26 111
3 89 26 111
3 106 86 112
3 106 112 104
3 88 106 104
3 86 112 87
3 104 112 87
3 9 100 29
3 67 100 29
3 100 67 82
3 18 101 71
3 20 99 71
3 99 71 101
3 98 113 108
3 73 108 98
3 90 113 108
3 98 113 91
3 90 91 113
3 21 43 103
3 56 103 43
3 78 103 56
3 18 102 69
3 69 96 19
3 96 102 69
3 12 114 13
3 12 114 46
3 13 114 85
3 85 114 46
3 59 102 61
3 59 101 62
3 101 59 102
3 49 100 48
3 67 100 48
3 106 113 90
3 106 113 104
3 91 104 113
3 41 114 13
3 41 40 114
3 85 114 40
3 56 103 32
3 32 103 35
3 72 108 110
3 108 98 110
3 74 110 98
3 10 109 50
3 51 109 50
3 80 109 51
3 57 92 58
3 61 96 57
3 92 57 96
3 107 112 94
3 86 107 112
3 87 94 112
3 30 111 31
3 89 30 111
3 26 31 111
3 58 60 93
3 60 99 62
3 93 60 99
3 63 38 97
3 39 97 38
3 103 115 22
3 23 115 22
3 103 115 43
3 43 115 23
3 22 115 31
3 111 115 31
3 111 115 23
3 100 116 48
3 48 116 50
3 100 11 116
3 50 116 11
3 110 117 98
3 110 117 94
3 98 95 117
3 94 95 117
3 12 14 118
3 12 114 118
3 41 14 118
3 41 118 114
3 97 38 118
3 14 97 118
3 41 38 118
3 98 117 113
3 113 117 104
3 95 104 117
3 29 116 8
3 100 116 29
3 11 8 116
3 32 115 31
3 32 115 103
3 112 117 94
3 112 117 104
3 12 118 45
3 97 45 118
3 8 109 116
3 50 116 109
3 69 102 59
3 71 101 59
3 108 119 105
3 108 113 119
3 105 119 106
3 113 106 119
3 60 99 71
3 40 114 64
3 46 114 64
3 107 119 105
3 112 119 107
3 112 119 106
3 69 57 96
3 27 66 109
3 66 109 51
3 70 57 92
3 70 93 60
3 55 111 30
3 55 111 44
3 108 110 119
3 110 119 107
3 113 119 117
3 112 119 117
3 43 55 115
3 115 55 111
3 66 116 48
3 66 116 29
3 109 116 66
3 45 118 64
3 114 64 118
3 38 118 64
3 55 115 32
3 117 119 110

# Cells
8 0 1 2 3 4 5 6 7
8 8 9 10 11 12 13 14 15
8 16 17 18 19 20 21 22 23
8 2 24 25 26 27 28 29 30
8 31 32 33 34 35 36 37 38
8 10 39 40 41 42 43 44 45
8 46 47 48 49 50 51 52 53
8 54 55 56 57 58 59 60 61
8 33 62 63 64 65 66 67 68
8 19 69 70 71 72 73 74 75
8 76 77 78 79 80 81 82 83
8 48 84 85 86 87 88 89 90
8 91 92 93 94 95 96 97 98
8 57 99 100 101 102 103 104 105
8 79 106 107 108 109 110 111 112
8 93 113 114 115 116 117 118 119
8 20 58 120 121 122 123 124 125
8 5 96 126 127 128 129 130 131
8 13 80 132 133 134 135 136 137
8 36 51 138 139 140 141 142 143
8 73 102 144 145 146 147 148 149
8 27 117 150 151 152 153 154 155
8 43 108 156 157 158 159 160 161
8 65 86 162 163 164 165 166 167
8 168 169 170 171 172 173 174 175
8 53 142 176 177 178 179 180 181
8 9 134 182 183 184 185 186 187
8 8 41 182 188 189 190 191 192
8 54 123 193 194 195 196 197 198
8 21 121 196 199 200 201 202 203
8 34 63 179 204 205 206 207 208
8 175 209 210 211 212 213 214 215
8 38 143 181 208 216 217 218 219
8 23 74 198 202 220 221 222 223
8 173 214 224 225 226 227 228 229
8 81 133 185 190 230 231 232 233
8 4 127 234 235 236 237 238 239
8 174 213 240 241 242 243 244 245
8 6 29 238 246 247 248 249 250
8 22 125 197 221 251 252 253 254
8 172 226 244 255 256 257 258 259
8 0 28 237 260 261 262 263 264
8 12 132 189 230 265 266 267 268
8 1 129 260 269 270 271 272 273
8 3 24 270 274 275 276 277 278
8 32 140 180 205 279 280 281 282
8 7 131 248 277 283 284 285 286
8 215 229 245 259 287 288 289 290
8 49 85 178 217 291 292 293 294
8 87 162 176 206 292 295 296 297
8 40 159 184 188 298 299 300 301
8 211 227 302 303 304 305 306 307
8 100 146 195 222 308 309 310 311
8 75 149 203 223 311 312 313 314
8 171 209 305 315 316 317 318 319
8 83 112 187 233 301 320 321 322
8 66 163 207 216 293 295 323 324
8 169 224 304 317 325 326 327 328
8 55 103 193 201 310 314 329 330
8 111 161 192 232 300 322 331 332
8 30 154 239 250 263 333 334 335
8 11 39 183 298 336 337 338 339
8 170 240 318 340 341 342 343 344
8 72 145 220 254 309 345 346 347
8 37 68 218 324 348 349 350 351
8 212 290 307 352 353 354 355 356
8 45 160 191 268 331 357 358 359
8 25 152 261 269 274 360 361 362
8 225 256 328 363 364 365 366 367
8 62 165 204 280 296 368 369 370
8 26 150 249 275 286 371 372 373
8 17 71 200 313 374 375 376 377
8 98 130 273 278 285 378 379 380
8 77 110 231 266 332 359 381 382
8 228 289 306 354 367 383 384 385
8 59 120 199 329 376 386 387 388
8 52 90 177 282 297 370 389 390
8 168 255 327 342 364 391 392 393
8 82 137 186 321 339 394 395 396
8 92 128 235 246 283 397 398 399
8 210 242 319 344 355 400 401 402
8 47 141 219 294 351 403 404 405
8 95 126 234 262 271 406 407 408
8 56 99 194 252 308 346 409 410
8 31 64 279 368 411 412 413 414
8 35 139 350 405 412 415 416 417
8 76 135 265 381 418 419 420 421
8 241 257 343 393 422 423 424 425
8 16 122 374 386 426 427 428 429
8 60 124 251 410 428 430 431 432
8 258 287 366 385 424 433 434 435
8 14 44 267 357 420 436 437 438
8 50 138 281 390 411 415 439 440
8 243 288 356 402 425 435 441 442
8 18 69 253 347 426 431 443 444
8 15 136 338 394 421 438 445 446
8 116 151 276 360 371 380 447 448
8 302 326 365 383 449 450 451 452
8 97 118 272 362 379 407 448 453
8 105 148 312 330 377 388 454 455
8 303 316 352 401 451 456 457 458
8 94 113 284 373 378 398 447 459
8 109 157 299 320 337 396 460 461
8 114 153 247 334 372 399 459 462
8 91 115 236 333 397 406 462 463
8 84 164 291 323 349 404 464 465
8 119 155 264 335 361 408 453 463
8 315 325 340 391 449 456 466 467
8 353 384 434 442 452 458 468 469
8 67 167 348 414 417 465 470 471
8 106 158 358 382 418 437 472 473
8 78 107 395 419 446 461 472 474
8 70 147 375 427 443 455 475 476
8 101 144 345 409 430 444 475 477
8 46 88 403 416 439 464 471 478
8 363 392 422 433 450 466 468 479
8 89 166 369 389 413 440 470 478
8 61 104 387 429 432 454 476 477
8 341 400 423 441 457 467 469 479
8 42 156 336 436 445 460 473 474
