# Generated using Miratope v0.5.0 (https://github.com/galoomba1/miratope-rs)
4OFF

# Vertices, Faces, Edges, Cells
120 720 720 120

# Vertices
-0.809016994374945 -0.809016994374945 -0.809016994374945 0.809016994374945 
-1.30901699437495 -0.5 0 0.809016994374945 
-1.30901699437495 0 -0.809016994374945 0.5 
-0.809016994374945 -1.30901699437495 0 0.5 
-0.809016994374945 -0.5 -1.30901699437495 0 
-0.5 -1.30901699437495 -0.809016994374945 0 
-0.809016994374945 -0.809016994374945 -0.809016994374945 -0.809016994374945 
-1.30901699437495 -0.5 0 -0.809016994374945 
-1.30901699437495 0 -0.809016994374945 -0.5 
-0.809016994374945 -1.30901699437495 0 -0.5 
-1.61803398874989 0 0 0 
-1.30901699437495 -0.809016994374945 0.5 0 
-0.809016994374945 0.809016994374945 -0.809016994374945 0.809016994374945 
-0.5 0.809016994374945 0 1.30901699437495 
0 0.5 -0.809016994374945 1.30901699437495 
-1.30901699437495 0.5 0 0.809016994374945 
-0.5 0 -1.30901699437495 0.809016994374945 
-0.5 -0.809016994374945 0 1.30901699437495 
0 -0.5 -0.809016994374945 1.30901699437495 
0 0 0 1.61803398874989 
-0.809016994374945 0 0.5 1.30901699437495 
-0.809016994374945 -0.809016994374945 0.809016994374945 0.809016994374945 
0 -0.809016994374945 1.30901699437495 0.5 
-0.809016994374945 -0.5 1.30901699437495 0 
0 -1.30901699437495 0.5 0.809016994374945 
-0.809016994374945 -0.809016994374945 0.809016994374945 -0.809016994374945 
0 -0.809016994374945 1.30901699437495 -0.5 
0 -1.30901699437495 0.5 -0.809016994374945 
0 -1.61803398874989 0 0 
0.5 -1.30901699437495 0.809016994374945 0 
-0.809016994374945 0.809016994374945 0.809016994374945 -0.809016994374945 
-0.809016994374945 1.30901699437495 0 -0.5 
-1.30901699437495 0.809016994374945 0.5 0 
-1.30901699437495 0 0.809016994374945 -0.5 
-0.5 0.809016994374945 0 -1.30901699437495 
-0.809016994374945 0 0.5 -1.30901699437495 
-0.809016994374945 0.809016994374945 -0.809016994374945 -0.809016994374945 
-1.30901699437495 0.809016994374945 -0.5 0 
-0.809016994374945 0 -0.5 -1.30901699437495 
0.809016994374945 -0.809016994374945 -0.809016994374945 -0.809016994374945 
0.809016994374945 -0.5 -1.30901699437495 0 
0.5 -1.30901699437495 -0.809016994374945 0 
0.5 0 -1.30901699437495 -0.809016994374945 
0 -1.30901699437495 -0.5 -0.809016994374945 
0 -0.5 -0.809016994374945 -1.30901699437495 
-0.5 0 -1.30901699437495 -0.809016994374945 
0 0 -1.61803398874989 0 
0 -0.809016994374945 -1.30901699437495 0.5 
0.809016994374945 -0.809016994374945 0.809016994374945 0.809016994374945 
0.809016994374945 0 0.5 1.30901699437495 
0.5 0 1.30901699437495 0.809016994374945 
0.5 -0.809016994374945 0 1.30901699437495 
-0.5 0 1.30901699437495 0.809016994374945 
0 0.5 0.809016994374945 1.30901699437495 
0 0.809016994374945 1.30901699437495 -0.5 
-0.809016994374945 0.5 1.30901699437495 0 
0 0.5 0.809016994374945 -1.30901699437495 
0 -0.5 0.809016994374945 -1.30901699437495 
0 0 1.61803398874989 0 
0.5 0 1.30901699437495 -0.809016994374945 
-0.809016994374945 0.809016994374945 0.809016994374945 0.809016994374945 
0 1.30901699437495 0.5 0.809016994374945 
-0.5 1.30901699437495 0.809016994374945 0 
0 1.30901699437495 -0.5 0.809016994374945 
-0.5 1.30901699437495 -0.809016994374945 0 
0 1.61803398874989 0 0 
0.809016994374945 0.809016994374945 -0.809016994374945 0.809016994374945 
0.809016994374945 0 -0.5 1.30901699437495 
1.30901699437495 0 -0.809016994374945 0.5 
0.809016994374945 0.5 -1.30901699437495 0 
0 0.809016994374945 -1.30901699437495 0.5 
0.809016994374945 -0.809016994374945 -0.809016994374945 0.809016994374945 
0.809016994374945 -0.809016994374945 0.809016994374945 -0.809016994374945 
1.30901699437495 -0.809016994374945 0.5 0 
1.30901699437495 -0.5 0 -0.809016994374945 
0.5 -0.809016994374945 0 -1.30901699437495 
1.30901699437495 -0.809016994374945 -0.5 0 
0.809016994374945 -1.30901699437495 0 0.5 
0.809016994374945 0.809016994374945 -0.809016994374945 -0.809016994374945 
0 1.30901699437495 -0.5 -0.809016994374945 
0.5 0.809016994374945 0 -1.30901699437495 
0.809016994374945 0 -0.5 -1.30901699437495 
0 0.809016994374945 -1.30901699437495 -0.5 
0 0 0 -1.61803398874989 
0.809016994374945 0.809016994374945 0.809016994374945 0.809016994374945 
0.809016994374945 0.5 1.30901699437495 0 
0.5 1.30901699437495 0.809016994374945 0 
1.30901699437495 0 0.809016994374945 0.5 
1.61803398874989 0 0 0 
1.30901699437495 0.5 0 0.809016994374945 
0.809016994374945 1.30901699437495 0 0.5 
1.30901699437495 0.809016994374945 -0.5 0 
0.809016994374945 1.30901699437495 0 -0.5 
0.809016994374945 0.809016994374945 0.809016994374945 -0.809016994374945 
1.30901699437495 0 0.809016994374945 -0.5 
1.30901699437495 0.5 0 -0.809016994374945 
-1.30901699437495 0 0.809016994374945 0.5 
-0.809016994374945 0 -0.5 1.30901699437495 
-1.30901699437495 -0.809016994374945 -0.5 0 
-0.5 -1.30901699437495 0.809016994374945 0 
-1.30901699437495 0.5 0 -0.809016994374945 
0 -1.30901699437495 -0.5 0.809016994374945 
-0.809016994374945 0.5 -1.30901699437495 0 
-0.5 -0.809016994374945 0 -1.30901699437495 
0 -0.809016994374945 -1.30901699437495 -0.5 
0 -0.5 0.809016994374945 1.30901699437495 
-0.5 0 1.30901699437495 -0.809016994374945 
-0.809016994374945 1.30901699437495 0 0.5 
0.5 0 -1.30901699437495 0.809016994374945 
0.809016994374945 -1.30901699437495 0 -0.5 
0 0.5 -0.809016994374945 -1.30901699437495 
0 0.809016994374945 1.30901699437495 0.5 
1.30901699437495 -0.5 0 0.809016994374945 
0.5 1.30901699437495 -0.809016994374945 0 
0.809016994374945 0 0.5 -1.30901699437495 
1.30901699437495 0 -0.809016994374945 -0.5 
0 1.30901699437495 0.5 -0.809016994374945 
0.809016994374945 -0.5 1.30901699437495 0 
0.5 0.809016994374945 0 1.30901699437495 
1.30901699437495 0.809016994374945 0.5 0 

# Faces
5 0 4 8 10 1
5 1 11 9 5 0
5 10 2 0 3 11
5 2 8 6 5 0
5 6 4 0 3 9
5 7 10 2 4 6
5 3 5 6 7 11
5 6 9 11 10 8
5 10 1 3 9 7
5 2 1 11 7 8
5 3 1 2 4 5
5 7 9 5 4 8
5 12 13 19 18 16
5 13 20 1 2 12
5 14 19 20 15 12
5 0 2 12 14 18
5 1 15 12 16 0
5 0 17 19 14 16
5 20 17 0 2 15
5 20 1 0 18 19
5 17 19 13 15 1
5 20 13 14 18 17
5 13 14 16 2 15
5 18 17 1 2 16
5 21 11 25 26 22
5 21 3 28 29 22
5 26 23 21 24 29
5 23 25 9 3 21
5 11 21 24 28 9
5 25 27 29 22 23
5 25 9 28 29 26
5 11 3 28 27 25
5 22 24 28 27 26
5 22 24 3 11 23
5 23 11 9 27 26
5 24 3 9 27 29
5 31 37 10 33 30
5 31 30 35 38 36
5 30 32 37 36 34
5 32 10 7 35 30
5 30 34 38 7 33
5 8 36 31 32 10
5 36 38 7 10 37
5 7 35 34 36 8
5 8 38 35 33 10
5 31 34 35 33 32
5 31 34 38 8 37
5 8 37 32 33 7
5 40 39 43 5 47
5 39 40 46 45 44
5 39 41 47 46 42
5 6 44 39 41 5
5 39 43 6 45 42
5 41 43 6 4 47
5 4 46 42 44 6
5 46 45 6 5 47
5 5 41 40 46 4
5 40 42 44 43 41
5 42 40 47 4 45
5 4 5 43 44 45
5 48 49 53 52 22
5 19 49 48 24 17
5 48 51 19 53 50
5 21 24 48 50 52
5 48 22 21 17 51
5 17 21 52 53 19
5 21 22 50 53 20
5 20 21 24 51 19
5 19 49 50 52 20
5 49 51 24 22 50
5 49 53 20 17 51
5 20 17 24 22 52
5 30 54 58 23 33
5 35 57 59 54 30
5 30 55 58 59 56
5 23 55 30 35 25
5 33 25 57 56 30
5 25 57 59 58 23
5 25 33 55 58 26
5 26 25 35 56 59
5 54 58 26 57 56
5 26 59 54 55 23
5 55 33 35 56 54
5 26 57 35 33 23
5 32 60 61 65 31
5 12 63 61 60 15
5 60 13 63 65 62
5 60 15 37 31 62
5 13 60 32 37 12
5 12 13 61 65 64
5 12 37 31 65 63
5 12 64 31 32 15
5 37 64 65 62 32
5 62 61 13 15 32
5 63 61 62 31 64
5 64 63 13 15 37
5 66 67 71 40 69
5 66 67 18 16 70
5 66 14 18 71 68
5 68 40 46 70 66
5 16 46 69 66 14
5 71 47 16 14 67
5 71 47 46 69 68
5 46 16 18 71 40
5 18 47 46 70 14
5 67 68 69 70 14
5 67 68 40 47 18
5 47 16 70 69 40
5 72 75 39 76 73
5 28 27 72 73 77
5 74 72 29 77 76
5 43 27 72 74 39
5 29 28 43 75 72
5 77 76 39 43 28
5 74 39 41 77 73
5 28 41 39 75 27
5 29 73 76 41 28
5 73 29 27 75 74
5 74 75 43 41 76
5 29 77 41 43 27
5 81 78 79 34 83
5 79 78 42 45 36
5 78 80 34 36 82
5 80 83 44 42 78
5 81 44 45 82 78
5 38 83 80 79 36
5 36 45 44 83 34
5 42 82 36 38 44
5 45 38 83 81 42
5 80 81 42 82 79
5 38 45 82 79 34
5 38 44 81 80 34
5 61 84 85 54 62
5 85 58 52 53 84
5 58 50 84 86 54
5 84 53 60 62 86
5 50 84 61 60 52
5 55 60 61 86 54
5 55 60 53 50 58
5 58 52 60 62 54
5 58 55 62 86 85
5 85 50 53 61 86
5 50 52 55 54 85
5 53 61 62 55 52
5 48 51 67 89 87
5 76 88 87 48 77
5 88 73 48 49 89
5 48 77 71 67 49
5 73 48 51 71 76
5 67 89 88 76 71
5 49 51 71 68 89
5 73 88 68 71 77
5 87 49 67 68 88
5 76 68 89 87 73
5 51 77 73 87 49
5 76 68 67 51 77
5 69 78 92 90 66
5 66 70 64 65 90
5 63 66 91 92 65
5 66 91 78 82 70
5 66 63 64 82 69
5 78 91 90 65 79
5 82 64 65 92 78
5 70 64 79 78 69
5 63 65 79 82 70
5 69 91 90 63 70
5 64 79 92 90 63
5 82 69 91 92 79
5 80 93 94 74 81
5 94 93 56 57 72
5 93 59 72 74 95
5 93 56 83 81 95
5 59 93 80 83 57
5 75 81 95 94 72
5 56 83 75 72 59
5 72 74 81 83 57
5 83 75 74 95 80
5 95 94 59 56 80
5 57 75 74 94 59
5 56 80 81 75 57
5 89 84 85 94 88
5 86 92 91 89 84
5 88 91 90 84 87
5 84 86 93 94 87
5 85 84 90 92 93
5 95 88 87 85 93
5 91 95 93 86 90
5 92 93 94 88 91
5 89 90 92 95 88
5 89 90 86 85 87
5 89 87 94 95 91
5 95 92 86 85 94
5 33 23 52 60 32
5 15 60 52 21 1
5 55 23 21 20 60
5 33 55 60 15 10
5 32 10 1 20 60
5 11 33 55 52 21
5 11 21 20 15 10
5 10 33 23 21 1
5 11 10 32 55 23
5 52 20 15 32 55
5 1 11 23 52 20
5 1 15 32 33 11
5 51 24 28 41 71
5 17 0 47 71 51
5 18 71 77 24 17
5 5 41 71 18 0
5 47 71 77 28 5
5 0 17 24 28 5
5 0 18 51 24 3
5 41 28 3 0 47
5 28 3 17 51 77
5 77 41 47 18 51
5 18 47 5 3 17
5 3 24 77 41 5
5 12 16 46 82 64
5 2 8 36 64 12
5 37 12 70 82 36
5 4 2 12 70 46
5 8 37 12 16 4
5 46 45 36 64 70
5 4 45 36 37 2
5 8 36 82 46 4
5 2 16 46 45 8
5 64 70 16 2 37
5 45 8 37 64 82
5 16 4 45 82 70
5 57 83 38 7 25
5 43 9 25 57 75
5 27 25 35 83 75
5 6 38 35 25 9
5 6 43 27 25 7
5 7 6 44 83 35
5 9 6 44 75 27
5 83 75 43 6 38
5 43 27 57 83 44
5 35 57 75 44 38
5 7 9 27 57 35
5 7 38 44 43 9
5 91 78 81 74 88
5 40 42 78 91 68
5 88 68 69 78 95
5 39 74 95 78 42
5 40 69 78 81 39
5 76 39 81 95 88
5 39 76 68 69 42
5 40 39 74 88 68
5 40 76 88 91 69
5 76 68 91 95 74
5 42 69 91 95 81
5 42 40 76 74 81
5 79 80 93 86 65
5 62 30 56 93 86
5 65 62 54 93 92
5 34 56 93 92 79
5 34 80 93 54 30
5 65 79 34 30 62
5 30 31 65 86 54
5 30 31 79 80 56
5 31 34 80 92 65
5 62 31 79 92 86
5 86 54 56 80 92
5 34 56 54 62 31
5 22 58 85 87 48
5 29 48 87 94 72
5 50 85 94 73 48
5 29 48 50 58 26
5 72 26 22 48 73
5 58 85 94 72 26
5 87 73 72 59 85
5 59 72 29 22 58
5 58 50 87 94 59
5 29 22 50 87 73
5 50 22 26 59 85
5 29 26 59 94 73
5 61 63 66 89 84
5 53 84 89 67 19
5 66 90 84 49 67
5 63 90 84 53 13
5 19 13 61 84 49
5 19 14 66 89 49
5 14 13 61 90 66
5 67 19 13 63 66
5 61 53 19 14 63
5 89 49 53 61 90
5 67 89 90 63 14
5 13 53 49 67 14
5 3 21 20 97 0
5 21 96 15 97 17
5 17 21 11 98 0
5 10 96 21 3 98
5 0 97 15 10 98
5 20 96 10 2 97
5 20 17 3 11 96
5 3 98 2 97 17
5 11 96 15 2 98
5 33 96 21 99 25
5 21 99 9 98 1
5 25 7 10 96 23
5 25 33 10 98 9
5 7 98 3 99 25
5 3 99 23 96 1
5 7 33 23 99 9
5 1 98 7 33 96
5 8 100 32 15 2
5 2 37 32 96 1
5 96 11 7 100 32
5 96 15 37 100 33
5 1 15 37 8 98
5 37 100 7 98 2
5 100 33 11 98 8
5 21 99 28 101 17
5 21 1 0 101 24
5 9 98 0 101 28
5 28 99 11 98 5
5 11 99 24 17 1
5 1 17 101 5 98
5 9 99 24 101 5
5 10 37 12 97 1
5 0 97 12 102 4
5 15 10 8 102 12
5 98 0 16 102 8
5 37 10 98 4 102
5 37 15 97 16 102
5 1 97 16 4 98
5 33 100 38 103 25
5 10 100 35 25 11
5 11 25 103 6 98
5 98 6 38 100 10
5 100 8 6 103 35
5 35 33 11 9 103
5 9 98 8 38 103
5 17 97 16 47 101
5 18 97 1 3 101
5 4 47 18 97 2
5 4 16 18 101 5
5 47 16 2 98 5
5 3 98 4 47 101
5 25 103 43 28 99
5 3 98 6 43 28
5 6 5 28 27 103
5 11 99 27 103 7
5 5 3 99 27 43
5 43 103 7 98 5
5 10 2 102 36 100
5 6 7 100 36 45
5 4 6 38 36 102
5 2 102 45 6 98
5 100 38 45 102 37
5 7 98 4 45 38
5 0 101 41 104 4
5 98 0 47 104 6
5 9 28 41 104 6
5 43 104 47 101 28
5 3 9 43 41 101
5 43 104 4 98 9
5 0 16 46 104 5
5 47 0 2 102 46
5 8 6 104 46 102
5 16 47 104 45 102
5 45 104 5 98 8
5 7 8 45 44 103
5 4 8 38 44 104
5 9 5 104 44 103
5 43 103 38 45 104
5 23 52 105 24 99
5 1 17 105 52 96
5 52 96 11 99 22
5 22 105 20 96 23
5 1 20 105 24 3
5 105 17 3 99 22
5 96 55 30 100 10
5 32 96 23 106 30
5 7 25 106 30 100
5 11 25 106 55 96
5 55 32 100 35 106
5 11 7 35 106 23
5 13 97 1 96 60
5 60 107 12 97 20
5 10 96 60 107 37
5 2 12 107 32 10
5 20 13 107 32 96
5 107 37 2 97 13
5 21 1 97 19 105
5 21 105 51 101 3
5 19 97 0 101 51
5 18 101 24 105 19
5 51 105 20 97 18
5 102 36 31 107 12
5 36 100 32 107 64
5 10 15 107 31 100
5 2 15 107 64 102
5 100 31 64 102 8
5 27 99 23 106 57
5 106 33 11 99 26
5 27 103 35 106 26
5 106 33 7 103 57
5 99 26 57 103 9
5 71 101 0 16 108
5 71 41 104 46 108
5 71 101 5 104 40
5 4 46 108 18 0
5 41 101 18 108 40
5 108 16 4 104 40
5 5 104 39 109 28
5 103 44 39 109 27
5 6 103 75 39 104
5 28 9 103 75 109
5 44 104 41 109 75
5 5 9 27 109 41
5 36 102 46 42 110
5 8 36 110 44 6
5 6 104 42 110 38
5 82 110 44 104 46
5 42 104 4 102 82
5 8 38 110 82 102
5 29 99 3 101 77
5 99 24 77 109 27
5 43 109 77 101 5
5 24 101 41 109 29
5 9 99 29 109 43
5 12 102 46 108 14
5 70 108 18 97 12
5 0 97 14 108 47
5 97 14 70 102 2
5 108 47 4 102 70
5 83 110 36 100 35
5 83 103 6 45 110
5 100 34 83 103 7
5 100 8 45 110 34
5 35 103 44 110 34
5 33 96 60 62 30
5 31 107 60 55 30
5 30 100 37 107 62
5 15 107 62 55 96
5 31 100 33 55 62
5 15 97 19 53 60
5 21 96 60 53 105
5 13 60 52 105 19
5 52 96 15 13 53
5 53 105 17 97 13
5 58 52 21 99 26
5 55 96 21 22 58
5 99 22 58 106 25
5 58 106 33 96 52
5 26 106 55 52 22
5 101 71 76 109 28
5 39 104 47 71 76
5 39 109 77 71 40
5 77 101 47 40 76
5 40 104 43 109 76
5 69 108 16 102 82
5 104 42 69 108 47
5 69 42 45 102 70
5 45 82 69 40 104
5 42 40 108 70 82
5 39 81 83 103 43
5 45 110 81 39 104
5 42 110 83 75 39
5 75 81 42 104 43
5 103 75 81 110 38
5 101 77 48 105 17
5 48 105 21 99 29
5 29 48 51 101 28
5 28 99 22 48 77
5 77 29 22 105 51
5 30 34 83 57 106
5 56 83 38 100 30
5 83 103 25 106 56
5 56 106 33 100 34
5 38 103 57 56 34
5 13 97 16 70 63
5 13 107 64 70 14
5 15 107 63 14 97
5 37 107 63 70 102
5 14 63 64 102 16
5 19 67 71 101 17
5 19 51 71 108 14
5 19 97 16 108 67
5 14 97 17 51 67
5 47 108 67 51 101
5 31 34 110 82 64
5 79 31 37 102 82
5 38 110 79 31 100
5 79 64 37 100 34
5 45 110 79 64 102
5 72 109 28 99 26
5 26 72 75 103 25
5 25 99 29 72 57
5 43 109 72 57 103
5 75 57 26 29 109
5 60 32 30 54 111
5 60 96 23 58 111
5 30 62 111 58 106
5 32 96 52 111 62
5 23 52 111 54 106
5 62 32 33 106 54
5 13 20 52 111 61
5 32 55 111 61 107
5 20 15 107 61 53
5 13 53 111 62 107
5 53 111 55 96 20
5 60 111 50 105 20
5 23 21 105 50 58
5 58 22 105 53 111
5 55 23 22 50 111
5 40 108 67 112 76
5 101 18 67 112 77
5 18 51 112 68 108
5 41 77 112 68 40
5 76 112 51 101 41
5 76 41 47 108 68
5 42 78 113 70 46
5 78 110 36 64 113
5 46 45 110 78 69
5 36 102 70 113 79
5 46 69 113 64 102
5 42 110 79 113 69
5 72 109 39 81 114
5 72 114 83 103 27
5 39 44 83 114 74
5 27 109 74 114 57
5 81 44 43 109 74
5 44 81 114 57 103
5 76 109 29 48 112
5 24 48 112 71 101
5 24 28 109 73 48
5 41 71 112 73 109
5 24 51 112 73 29
5 57 35 34 80 114
5 114 75 44 110 80
5 110 34 56 114 81
5 35 56 114 75 103
5 35 38 110 80 56
5 16 12 63 66 108
5 14 12 64 113 66
5 46 82 113 66 108
5 102 12 63 113 82
5 14 63 113 69 108
5 67 112 48 105 19
5 19 49 112 71 18
5 24 77 112 49 105
5 18 67 49 105 17
5 12 107 65 113 70
5 36 82 113 65 31
5 36 79 65 107 37
5 79 113 63 107 31
5 27 25 106 59 72
5 26 106 56 114 72
5 83 35 106 59 114
5 75 27 26 59 114
5 41 71 68 115 39
5 76 71 108 69 115
5 46 104 39 115 69
5 46 108 68 115 42
5 41 104 42 115 76
5 75 81 115 76 109
5 40 115 74 109 41
5 42 115 74 75 44
5 44 81 115 40 104
5 82 46 40 115 78
5 44 110 78 115 39
5 110 82 69 115 81
5 106 55 62 116 56
5 62 116 34 100 32
5 32 55 54 116 31
5 106 35 34 116 54
5 100 35 56 116 31
5 48 105 52 58 117
5 24 48 117 26 99
5 23 99 29 117 58
5 23 52 50 117 26
5 24 105 50 117 29
5 61 118 19 20 60
5 60 53 118 63 107
5 12 97 19 118 63
5 107 12 14 118 61
5 53 118 14 97 20
5 30 32 107 65 116
5 79 116 30 100 36
5 64 36 34 116 65
5 62 107 64 79 116
5 49 105 20 13 118
5 14 18 51 49 118
5 67 118 53 105 51
5 18 97 13 118 67
5 57 72 117 58 106
5 72 27 99 22 117
5 59 106 23 22 117
5 57 27 29 117 59
5 83 35 30 116 80
5 31 36 110 80 116
5 83 110 79 116 56
5 48 77 109 72 117
5 24 77 73 117 22
5 27 26 117 73 109
5 19 118 66 108 18
5 13 118 66 70 12
5 70 108 67 118 63
5 112 71 40 115 88
5 73 109 39 115 88
5 77 109 74 88 112
5 73 112 68 115 74
5 83 110 78 95 114
5 78 115 74 114 80
5 115 39 75 114 95
5 95 115 42 110 80
5 40 108 66 91 115
5 68 115 78 113 66
5 68 108 70 113 91
5 42 82 113 91 115
5 107 65 86 111 60
5 55 30 116 86 111
5 61 111 54 116 65
5 61 107 31 116 86
5 52 111 85 117 22
5 85 111 55 106 59
5 85 117 26 106 54
5 54 59 117 50 111
5 49 105 52 111 84
5 19 105 50 84 118
5 118 13 60 111 84
5 61 111 50 49 118
5 34 116 92 78 110
5 78 80 116 65 113
5 31 116 92 113 64
5 110 80 92 113 82
5 71 112 89 66 108
5 68 112 49 118 66
5 118 19 51 112 89
5 14 108 68 89 118
5 29 109 74 94 117
5 57 26 117 94 114
5 94 114 75 109 73
5 74 114 59 117 73
5 54 106 57 114 93
5 30 106 59 93 116
5 34 83 114 93 116
5 114 59 54 116 80
5 105 49 87 117 22
5 105 50 87 112 51
5 29 77 112 87 117
5 50 117 73 112 49
5 61 118 66 113 65
5 107 65 90 118 13
5 70 113 90 118 14
5 64 107 61 90 113
5 81 115 91 92 80
5 80 79 113 91 95
5 69 115 95 92 113
5 81 95 92 79 110
5 66 89 88 115 69
5 67 66 91 88 112
5 76 112 89 91 115
5 89 91 69 108 67
5 88 94 72 109 76
5 72 73 88 95 114
5 81 115 88 94 114
5 95 115 76 73 94
5 78 81 114 93 92
5 78 95 93 116 79
5 95 114 56 116 92
5 112 88 94 117 48
5 72 117 87 88 74
5 74 94 87 112 76
5 68 89 90 113 69
5 91 113 63 118 89
5 68 91 90 118 67
5 62 111 85 93 116
5 93 85 58 106 56
5 58 59 93 86 111
5 86 116 56 59 85
5 62 65 90 84 111
5 86 65 63 118 84
5 111 86 90 118 53
5 86 90 63 107 62
5 58 117 87 84 111
5 84 87 48 105 53
5 85 117 48 49 84
5 53 49 87 85 111
5 79 113 90 86 116
5 90 61 62 116 92
5 86 61 63 113 92
5 93 114 72 117 85
5 54 93 94 117 58
5 56 114 94 85 54
5 48 112 89 84 50
5 84 118 67 112 87
5 89 118 53 50 87
5 74 88 119 93 114
5 78 80 93 119 91
5 88 115 78 92 119
5 91 115 74 94 119
5 92 119 94 114 80
5 92 113 66 89 119
5 68 66 90 119 88
5 95 119 90 113 78
5 115 68 89 119 95
5 112 73 94 119 89
5 91 68 112 87 119
5 74 73 87 119 95
5 65 90 119 93 116
5 65 113 91 119 86
5 80 116 86 119 95
5 93 119 87 117 59
5 88 73 117 85 119
5 114 59 85 119 95
5 84 119 88 112 49
5 91 66 118 84 119
5 90 118 49 87 119
5 116 54 85 119 92
5 59 54 86 119 94
5 65 61 84 119 92
5 86 119 89 118 61
5 50 117 94 119 84
5 50 85 119 89 49
5 111 54 93 119 84
5 90 119 85 111 61
5 87 50 111 86 119

# Cells
12 0 1 2 3 4 5 6 7 8 9 10 11
12 12 13 14 15 16 17 18 19 20 21 22 23
12 24 25 26 27 28 29 30 31 32 33 34 35
12 36 37 38 39 40 41 42 43 44 45 46 47
12 48 49 50 51 52 53 54 55 56 57 58 59
12 60 61 62 63 64 65 66 67 68 69 70 71
12 72 73 74 75 76 77 78 79 80 81 82 83
12 84 85 86 87 88 89 90 91 92 93 94 95
12 96 97 98 99 100 101 102 103 104 105 106 107
12 108 109 110 111 112 113 114 115 116 117 118 119
12 120 121 122 123 124 125 126 127 128 129 130 131
12 132 133 134 135 136 137 138 139 140 141 142 143
12 144 145 146 147 148 149 150 151 152 153 154 155
12 156 157 158 159 160 161 162 163 164 165 166 167
12 168 169 170 171 172 173 174 175 176 177 178 179
12 180 181 182 183 184 185 186 187 188 189 190 191
12 192 193 194 195 196 197 198 199 200 201 202 203
12 204 205 206 207 208 209 210 211 212 213 214 215
12 216 217 218 219 220 221 222 223 224 225 226 227
12 228 229 230 231 232 233 234 235 236 237 238 239
12 240 241 242 243 244 245 246 247 248 249 250 251
12 252 253 254 255 256 257 258 259 260 261 262 263
12 264 265 266 267 268 269 270 271 272 273 274 275
12 276 277 278 279 280 281 282 283 284 285 286 287
12 2 18 198 288 289 290 291 292 293 294 295 296
12 8 27 199 291 297 298 299 300 301 302 303 304
12 9 47 203 296 304 305 306 307 308 309 310 311
12 1 28 209 290 298 312 313 314 315 316 317 318
12 0 16 220 292 309 319 320 321 322 323 324 325
12 7 44 231 300 311 326 327 328 329 330 331 332
12 10 23 214 295 317 325 333 334 335 336 337 338
12 6 31 232 301 315 328 339 340 341 342 343 344
12 5 42 222 310 323 329 345 346 347 348 349 350
12 4 53 211 314 338 340 351 352 353 354 355 356
12 3 55 224 322 337 348 352 357 358 359 360 361
12 11 59 239 332 344 350 356 361 362 363 364 365
12 33 71 202 294 302 316 366 367 368 369 370 371
12 39 75 200 299 307 327 372 373 374 375 376 377
12 13 88 196 293 306 319 378 379 380 381 382 383
12 19 67 210 288 313 334 370 384 385 386 387 388
12 41 91 217 305 321 345 381 389 390 391 392 393
12 34 83 238 303 331 342 377 394 395 396 397 398
12 56 103 207 336 351 357 399 400 401 402 403 404
12 51 115 234 341 353 364 405 406 407 408 409 410
12 54 127 223 347 359 363 411 412 413 414 415 416
12 35 119 215 318 343 355 410 417 418 419 420 421
12 15 104 219 320 335 358 402 422 423 424 425 426
12 43 126 233 330 346 362 412 427 428 429 430 431
12 36 87 195 308 372 380 391 432 433 434 435 436
12 20 65 193 289 367 378 384 437 438 439 440 441
12 24 78 197 297 368 375 395 442 443 444 445 446
12 48 113 208 354 401 405 419 447 448 449 450 451
12 58 107 227 360 404 415 426 452 453 454 455 456
12 52 128 235 365 407 413 428 457 458 459 460 461
12 25 64 212 312 371 385 417 462 463 464 465 466
12 40 76 228 326 374 397 429 467 468 469 470 471
12 22 95 225 324 383 392 425 472 473 474 475 476
12 17 101 205 333 386 399 424 477 478 479 480 481
12 46 130 226 349 393 416 430 482 483 484 485 486
12 30 112 229 339 398 408 421 487 488 489 490 491
12 72 139 192 373 432 445 492 493 494 495 496 497
12 93 143 201 382 435 440 495 498 499 500 501 502
12 66 138 194 369 438 443 493 502 503 504 505 506
12 106 155 213 403 450 481 507 508 509 510 511 512
12 121 163 221 411 454 486 513 514 515 516 517 518
12 111 175 236 406 457 490 519 520 521 522 523 524
12 116 148 204 420 447 464 511 525 526 527 528 529
12 131 179 237 431 461 471 524 530 531 532 533 534
12 100 160 216 422 452 476 517 535 536 537 538 539
12 61 147 206 387 462 477 508 526 540 541 542 543
12 90 164 218 389 475 483 516 538 544 545 546 547
12 79 174 230 396 469 488 520 533 548 549 550 551
12 50 102 246 400 448 453 512 552 553 554 555 556
12 57 118 251 409 451 460 523 556 557 558 559 560
12 49 124 244 414 455 458 515 554 560 561 562 563
12 45 82 263 376 436 470 497 564 565 566 567 568
12 26 63 267 366 442 463 504 569 570 571 572 573
12 14 85 284 379 437 474 500 574 575 576 577 578
12 38 92 257 390 434 485 546 565 579 580 581 582
12 21 70 287 388 441 480 543 578 583 584 585 586
12 29 77 271 394 444 489 548 571 587 588 589 590
12 37 125 259 427 468 484 534 568 580 591 592 593
12 32 109 268 418 465 487 527 570 588 594 595 596
12 12 97 283 423 472 479 535 576 586 597 598 599
12 114 151 247 449 510 528 552 558 600 601 602 603
12 123 176 243 459 521 531 559 562 604 605 606 607
12 99 159 241 456 513 537 555 561 608 609 610 611
12 84 137 258 433 492 499 566 579 612 613 614 615
12 81 142 274 446 496 506 572 589 616 617 618 619
12 68 136 280 439 498 503 574 583 620 621 622 623
12 122 162 260 482 514 545 581 592 624 625 626 627
12 98 150 281 478 509 541 584 597 628 629 630 631
12 117 178 275 491 522 551 590 596 632 633 634 635
12 73 172 256 467 530 550 567 591 636 637 638 639
12 69 154 273 466 529 542 573 595 640 641 642 643
12 89 157 282 473 536 544 577 598 644 645 646 647
12 129 167 250 518 563 607 611 627 648 649 650 651
12 96 149 248 507 553 600 608 628 652 653 654 655
12 108 173 245 519 557 601 606 634 656 657 658 659
12 120 171 255 532 593 604 624 638 651 660 661 662
12 110 145 265 525 594 602 632 642 656 663 664 665
12 105 165 286 539 599 610 631 646 655 666 667 668
12 74 140 253 494 564 613 617 637 669 670 671 672
12 86 135 279 501 575 612 622 645 673 674 675 676
12 60 133 264 505 569 616 620 640 677 678 679 680
12 94 166 261 547 582 615 626 647 676 681 682 683
12 80 169 269 549 587 618 633 636 670 684 685 686
12 62 144 277 540 585 621 630 641 678 687 688 689
12 168 187 240 605 648 658 660 690 691 692 693 694
12 156 188 242 609 650 652 666 692 695 696 697 698
12 153 190 249 603 654 659 665 693 698 699 700 701
12 161 186 252 625 649 661 681 691 697 702 703 704
12 170 185 270 635 657 664 684 690 701 705 706 707
12 152 182 278 629 653 668 688 696 700 708 709 710
12 177 191 262 639 662 672 686 694 704 707 711 712
12 158 181 276 644 667 674 683 695 703 709 713 714
12 146 180 266 643 663 679 687 699 706 708 715 716
12 132 184 254 614 669 673 682 702 711 713 717 718
12 134 183 272 619 671 677 685 705 712 715 717 719
12 141 189 285 623 675 680 689 710 714 716 718 719
