# Generated using Miratope v0.5.0 (https://github.com/galoomba1/miratope-rs)
4OFF

# Vertices, Faces, Edges, Cells
120 360 480 120

# Vertices
0.809016994374945 0.809016994374945 -0.809016994374945 -0.809016994374945 
1.30901699437495 0 -0.809016994374945 0.5 
0.809016994374945 0 0.5 -1.30901699437495 
-0.5 0 -1.30901699437495 -0.809016994374945 
0 -1.61803398874989 0 0 
1.30901699437495 -0.809016994374945 0.5 0 
0 -0.809016994374945 -1.30901699437495 0.5 
-0.5 -0.809016994374945 0 -1.30901699437495 
0.809016994374945 -0.809016994374945 -0.809016994374945 0.809016994374945 
0 0.5 -0.809016994374945 1.30901699437495 
1.30901699437495 0 -0.809016994374945 -0.5 
-0.5 -1.30901699437495 -0.809016994374945 0 
-0.809016994374945 0.809016994374945 -0.809016994374945 -0.809016994374945 
0.5 1.30901699437495 -0.809016994374945 0 
-1.30901699437495 0 -0.809016994374945 0.5 
0 -0.5 -0.809016994374945 -1.30901699437495 
-0.809016994374945 -0.809016994374945 0.809016994374945 0.809016994374945 
0.5 -0.809016994374945 0 1.30901699437495 
0 -0.809016994374945 1.30901699437495 -0.5 
-1.30901699437495 -0.809016994374945 -0.5 0 
0.809016994374945 -0.809016994374945 -0.809016994374945 -0.809016994374945 
0.809016994374945 0.809016994374945 0.809016994374945 -0.809016994374945 
1.30901699437495 -0.5 0 -0.809016994374945 
-0.5 0 1.30901699437495 -0.809016994374945 
0 1.30901699437495 -0.5 -0.809016994374945 
-0.809016994374945 -0.809016994374945 -0.809016994374945 -0.809016994374945 
-1.30901699437495 0.5 0 -0.809016994374945 
0.5 0 -1.30901699437495 -0.809016994374945 
0 -1.30901699437495 0.5 -0.809016994374945 
0.809016994374945 0.809016994374945 -0.809016994374945 0.809016994374945 
0.809016994374945 0 0.5 1.30901699437495 
0.809016994374945 1.30901699437495 0 -0.5 
0.809016994374945 -0.5 -1.30901699437495 0 
0.809016994374945 -0.809016994374945 0.809016994374945 -0.809016994374945 
0.809016994374945 0.5 1.30901699437495 0 
0.809016994374945 -1.30901699437495 0 0.5 
0.809016994374945 0 -0.5 -1.30901699437495 
-1.30901699437495 -0.809016994374945 0.5 0 
-0.809016994374945 0.5 -1.30901699437495 0 
0.5 -1.30901699437495 -0.809016994374945 0 
0 0 0 1.61803398874989 
-1.30901699437495 0.5 0 0.809016994374945 
0.5 0 -1.30901699437495 0.809016994374945 
0 -1.30901699437495 0.5 0.809016994374945 
0 -0.809016994374945 1.30901699437495 0.5 
0 0.5 0.809016994374945 -1.30901699437495 
0 -1.30901699437495 -0.5 -0.809016994374945 
-1.61803398874989 0 0 0 
-0.809016994374945 0.5 1.30901699437495 0 
-0.809016994374945 -1.30901699437495 0 0.5 
-0.809016994374945 0 -0.5 -1.30901699437495 
-0.809016994374945 0.809016994374945 0.809016994374945 -0.809016994374945 
-0.809016994374945 1.30901699437495 0 0.5 
0.5 0.809016994374945 0 -1.30901699437495 
-1.30901699437495 -0.5 0 -0.809016994374945 
0 0 -1.61803398874989 0 
-0.809016994374945 0.809016994374945 -0.809016994374945 0.809016994374945 
0 1.30901699437495 0.5 0.809016994374945 
0 -0.5 -0.809016994374945 1.30901699437495 
0 0.809016994374945 -1.30901699437495 -0.5 
1.61803398874989 0 0 0 
1.30901699437495 0.5 0 0.809016994374945 
-0.5 -0.809016994374945 0 1.30901699437495 
0.809016994374945 -1.30901699437495 0 -0.5 
0 0 1.61803398874989 0 
0 0.5 0.809016994374945 1.30901699437495 
1.30901699437495 0 0.809016994374945 -0.5 
-0.5 -1.30901699437495 0.809016994374945 0 
0.809016994374945 0.809016994374945 0.809016994374945 0.809016994374945 
1.30901699437495 0.809016994374945 -0.5 0 
0.809016994374945 -0.5 1.30901699437495 0 
-0.5 1.30901699437495 0.809016994374945 0 
0 0 0 -1.61803398874989 
-0.809016994374945 0 0.5 1.30901699437495 
-0.809016994374945 1.30901699437495 0 -0.5 
-0.809016994374945 -0.5 -1.30901699437495 0 
-0.809016994374945 -0.809016994374945 0.809016994374945 -0.809016994374945 
1.30901699437495 -0.5 0 0.809016994374945 
-0.5 0 1.30901699437495 0.809016994374945 
0 1.30901699437495 -0.5 0.809016994374945 
-0.809016994374945 -0.809016994374945 -0.809016994374945 0.809016994374945 
-0.809016994374945 0.809016994374945 0.809016994374945 0.809016994374945 
0.5 0.809016994374945 0 1.30901699437495 
0 0.809016994374945 1.30901699437495 -0.5 
-1.30901699437495 0.809016994374945 -0.5 0 
1.30901699437495 0.809016994374945 0.5 0 
0 0.809016994374945 -1.30901699437495 0.5 
-0.5 0.809016994374945 0 -1.30901699437495 
0.809016994374945 -0.809016994374945 0.809016994374945 0.809016994374945 
0.5 1.30901699437495 0.809016994374945 0 
-1.30901699437495 0 0.809016994374945 0.5 
0 -0.5 0.809016994374945 -1.30901699437495 
0.5 0 1.30901699437495 0.809016994374945 
-0.809016994374945 0 -0.5 1.30901699437495 
-1.30901699437495 0 0.809016994374945 -0.5 
0 1.61803398874989 0 0 
1.30901699437495 -0.809016994374945 -0.5 0 
0.809016994374945 0.5 -1.30901699437495 0 
0 -1.30901699437495 -0.5 0.809016994374945 
0.5 -0.809016994374945 0 -1.30901699437495 
-0.5 0 -1.30901699437495 0.809016994374945 
0 0.5 -0.809016994374945 -1.30901699437495 
-1.30901699437495 0 -0.809016994374945 -0.5 
-0.809016994374945 -1.30901699437495 0 -0.5 
1.30901699437495 0.5 0 -0.809016994374945 
0.5 0 1.30901699437495 -0.809016994374945 
0.5 -1.30901699437495 0.809016994374945 0 
-0.809016994374945 0 0.5 -1.30901699437495 
0 -0.809016994374945 -1.30901699437495 -0.5 
1.30901699437495 0 0.809016994374945 0.5 
0.809016994374945 0 -0.5 1.30901699437495 
0 1.30901699437495 0.5 -0.809016994374945 
-0.5 1.30901699437495 -0.809016994374945 0 
0.809016994374945 1.30901699437495 0 0.5 
-0.809016994374945 -0.5 1.30901699437495 0 
-1.30901699437495 -0.5 0 0.809016994374945 
0 -0.5 0.809016994374945 1.30901699437495 
-1.30901699437495 0.809016994374945 0.5 0 
-0.5 0.809016994374945 0 1.30901699437495 
0 0.809016994374945 1.30901699437495 0.5 

# Faces
4 1 0 2 5
4 1 6 3 0
4 0 3 7 2
4 5 1 6 4
4 4 7 2 5
4 4 6 3 7
4 9 13 10 8
4 9 14 11 8
4 10 8 11 15
4 12 13 9 14
4 12 15 10 13
4 12 14 11 15
4 16 17 5 18
4 16 19 6 17
4 16 19 7 18
4 20 5 17 6
4 5 20 7 18
4 20 7 19 6
4 22 28 23 21
4 22 21 24 27
4 21 23 26 24
4 25 26 24 27
4 25 26 23 28
4 25 28 22 27
4 30 34 31 29
4 29 30 35 32
4 29 32 36 31
4 34 33 35 30
4 34 31 36 33
4 35 32 36 33
4 25 37 41 38
4 25 39 43 37
4 38 42 39 25
4 40 42 38 41
4 41 37 43 40
4 42 39 43 40
4 44 48 45 33
4 44 33 46 49
4 45 50 46 33
4 48 44 49 47
4 47 48 45 50
4 47 49 46 50
4 51 52 13 53
4 51 52 14 54
4 51 54 15 53
4 13 55 14 52
4 13 55 15 53
4 55 15 54 14
4 56 57 30 58
4 57 56 59 31
4 58 56 59 32
4 30 57 31 60
4 30 58 32 60
4 60 31 59 32
4 61 65 62 8
4 61 66 63 8
4 62 67 63 8
4 64 66 61 65
4 65 64 67 62
4 66 64 67 63
4 69 68 70 22
4 69 68 71 24
4 70 68 71 23
4 72 22 70 23
4 22 72 24 69
4 23 72 24 71
4 73 56 74 48
4 73 56 75 49
4 74 56 75 50
4 76 48 73 49
4 76 48 74 50
4 49 76 50 75
4 77 43 78 68
4 68 77 42 79
4 78 41 79 68
4 41 79 42 80
4 80 43 78 41
4 80 43 77 42
4 81 82 85 83
4 82 81 84 86
4 81 84 87 83
4 0 85 82 86
4 0 85 83 87
4 86 84 87 0
4 88 65 89 66
4 65 88 67 90
4 88 66 91 67
4 89 51 90 65
4 51 89 66 91
4 51 91 67 90
4 16 93 82 92
4 92 83 94 16
4 93 16 94 84
4 95 83 92 82
4 95 82 93 84
4 83 95 84 94
4 80 37 26 38
4 37 80 39 28
4 80 39 27 38
4 72 27 38 26
4 72 28 37 26
4 72 28 39 27
4 88 61 9 62
4 88 63 10 61
4 88 62 11 63
4 55 10 61 9
4 9 62 11 55
4 10 55 11 63
4 20 2 85 1
4 1 20 3 86
4 20 3 87 2
4 85 1 86 95
4 85 95 87 2
4 86 3 87 95
4 44 76 45 34
4 76 44 35 46
4 45 36 46 76
4 60 35 44 34
4 34 60 36 45
4 60 36 46 35
4 21 70 77 69
4 69 21 71 79
4 21 71 78 70
4 77 40 78 70
4 40 79 69 77
4 78 71 79 40
4 12 53 89 52
4 52 12 54 90
4 53 91 54 12
4 89 52 90 64
4 89 64 91 53
4 90 64 91 54
4 92 17 93 81
4 92 18 94 81
4 81 94 19 93
4 4 17 92 18
4 4 17 93 19
4 4 19 94 18
4 29 57 73 58
4 57 74 59 29
4 29 59 75 58
4 73 47 74 57
4 47 75 58 73
4 47 74 59 75
4 96 97 100 98
4 97 101 99 96
4 98 96 99 103
4 100 102 101 97
4 100 98 103 102
4 99 103 102 101
4 35 49 76 33
4 50 36 33 76
4 49 35 32 75
4 50 36 32 75
4 10 53 12 55
4 12 55 11 54
4 53 10 63 91
4 63 91 54 11
4 42 27 25 80
4 28 43 80 25
4 77 22 27 42
4 28 43 77 22
4 38 24 72 25
4 39 22 72 25
4 22 39 42 69
4 42 69 24 38
4 104 105 106 96
4 104 101 107 105
4 96 108 101 104
4 106 103 107 105
4 96 108 103 106
4 101 107 103 108
4 29 60 35 58
4 60 29 59 36
4 35 58 75 46
4 75 46 36 59
4 10 66 88 8
4 11 67 88 8
4 15 91 66 10
4 11 67 91 15
4 31 45 33 60
4 33 60 32 46
4 45 31 59 50
4 46 32 59 50
4 109 110 97 104
4 110 98 106 109
4 109 104 99 106
4 97 108 98 110
4 97 108 99 104
4 98 106 99 108
4 8 55 13 61
4 63 15 55 8
4 13 61 66 53
4 66 53 15 63
4 72 21 69 27
4 72 21 70 28
4 27 69 77 39
4 77 39 28 70
4 14 62 8 55
4 62 14 54 67
4 54 67 63 15
4 2 18 4 20
4 20 4 19 3
4 2 18 94 87
4 3 19 94 87
4 86 6 20 0
4 20 0 87 7
4 86 6 19 84
4 7 87 84 19
4 17 1 20 4
4 86 93 17 1
4 3 19 93 86
4 111 104 97 112
4 99 107 111 104
4 112 102 107 111
4 108 102 112 97
4 107 99 108 102
4 37 23 72 25
4 43 70 22 39
4 43 70 23 37
4 0 20 5 85
4 5 85 82 17
4 6 86 82 17
4 1 17 92 85
4 85 92 18 2
4 113 109 105 111
4 109 96 97 113
4 96 109 105 99
4 101 111 113 97
4 101 111 105 99
4 44 30 60 33
4 44 30 58 49
4 46 32 58 49
4 104 113 110 96
4 113 112 100 110
4 101 112 113 104
4 96 110 100 108
4 108 100 112 101
4 83 18 5 85
4 7 87 83 18
4 45 74 47 76
4 75 46 76 47
4 45 74 59 36
4 47 56 58 49
4 56 47 50 59
4 98 115 114 106
4 99 107 114 106
4 115 102 107 114
4 108 102 115 98
4 42 69 68 40
4 43 70 68 40
4 77 22 21 68
4 21 68 79 24
4 27 42 79 24
4 61 89 64 88
4 88 64 91 63
4 10 53 89 61
4 96 106 116 110
4 110 100 115 116
4 106 116 115 103
4 108 103 115 100
4 53 66 64 51
4 51 64 67 54
4 31 74 56 29
4 75 32 29 56
4 74 31 36 50
4 79 38 80 40
4 39 77 40 80
4 38 79 69 27
4 89 13 12 51
4 15 91 51 12
4 89 13 10 66
4 109 105 114 116
4 96 98 116 109
4 114 103 98 116
4 99 103 114 105
4 12 51 90 14
4 11 67 90 14
4 112 117 115 100
4 107 117 112 101
4 115 103 107 117
4 4 16 93 6
4 7 94 16 4
4 93 6 3 84
4 3 84 94 7
4 109 113 118 116
4 97 100 118 113
4 116 98 100 118
4 29 60 34 57
4 45 74 57 34
4 23 78 68 21
4 28 43 78 23
4 5 92 16 4
4 1 82 92 5
4 82 1 6 93
4 109 104 111 119
4 106 109 119 114
4 111 107 114 119
4 55 12 52 9
4 89 61 9 52
4 29 56 73 30
4 35 49 73 30
4 71 26 72 21
4 38 79 71 26
4 92 5 2 83
4 94 7 2 83
4 9 65 88 8
4 65 9 13 89
4 113 119 116 110
4 105 119 113 104
4 106 116 119 105
4 0 95 82 1
4 2 83 95 0
4 105 114 117 111
4 111 101 102 117
4 102 117 114 103
4 73 44 76 47
4 35 58 73 44
4 26 41 80 25
4 26 41 79 24
4 84 3 0 95
4 110 97 112 118
4 98 115 118 110
4 102 115 118 112
4 62 90 64 88
4 62 90 54 11
4 33 76 48 34
4 48 34 31 74
4 78 37 80 40
4 70 28 37 78
4 57 34 44 73
4 57 48 44 30
4 31 45 48 57
4 109 110 118 119
4 111 119 118 112
4 41 71 23 37
4 24 38 41 71
4 26 41 78 23
4 90 62 9 52
4 113 112 117 119
4 107 117 119 105
4 52 65 61 13
4 52 65 62 14
4 30 73 48 34
4 37 78 71 26
4 90 14 9 65
4 111 113 118 117
4 100 102 117 118
4 51 64 65 52
4 92 85 95 81
4 81 95 86 93
4 82 17 16 81
4 18 83 81 16
4 81 95 87 94
4 115 118 119 114
4 71 41 40 68
4 19 84 81 16
4 116 114 117 118
4 48 57 56 47
4 116 115 117 119

# Cells
6 0 1 2 3 4 5
6 6 7 8 9 10 11
6 12 13 14 15 16 17
6 18 19 20 21 22 23
6 24 25 26 27 28 29
6 30 31 32 33 34 35
6 36 37 38 39 40 41
6 42 43 44 45 46 47
6 48 49 50 51 52 53
6 54 55 56 57 58 59
6 60 61 62 63 64 65
6 66 67 68 69 70 71
6 72 73 74 75 76 77
6 78 79 80 81 82 83
6 84 85 86 87 88 89
6 90 91 92 93 94 95
6 96 97 98 99 100 101
6 102 103 104 105 106 107
6 108 109 110 111 112 113
6 114 115 116 117 118 119
6 120 121 122 123 124 125
6 126 127 128 129 130 131
6 132 133 134 135 136 137
6 138 139 140 141 142 143
6 144 145 146 147 148 149
6 29 71 150 151 152 153
6 107 128 154 155 156 157
6 23 77 158 159 160 161
6 32 64 162 163 164 165
6 166 167 168 169 170 171
6 119 140 172 173 174 175
6 8 86 176 177 178 179
6 38 53 180 181 182 183
6 184 185 186 187 188 189
6 46 55 190 191 192 193
6 101 120 194 195 196 197
6 47 56 191 198 199 200
6 110 137 201 202 203 204
6 17 83 205 206 207 208
6 109 136 202 209 210 211
6 188 212 213 214 215 216
6 31 63 163 217 218 219
6 15 81 205 220 221 222
6 108 135 201 209 223 224
6 145 225 226 227 228 229
6 37 52 181 230 231 232
6 168 233 234 235 236 237
6 16 82 206 220 238 239
6 116 143 175 240 241 242
6 41 50 183 232 243 244
6 189 216 245 246 247 248
6 35 60 164 218 249 250
6 19 73 160 251 252 253
6 103 130 156 254 255 256
6 170 236 257 258 259 260
6 44 59 193 200 261 262
6 26 68 153 263 264 265
6 98 124 196 266 267 268
6 10 88 178 269 270 271
6 146 227 272 273 274 275
6 11 89 179 270 276 277
6 171 237 260 278 279 280
6 5 92 281 282 283 284
6 144 226 273 285 286 287
6 118 139 173 242 288 289
6 18 72 161 251 290 291
6 3 90 281 292 293 294
6 186 213 246 295 296 297
6 105 126 154 256 298 299
6 25 67 152 264 300 301
6 99 121 194 268 302 303
6 4 91 282 292 304 305
6 6 84 176 271 306 307
6 166 233 257 308 309 310
6 0 93 293 304 311 312
6 149 229 275 313 314 315
6 115 142 174 241 316 317
6 21 75 158 253 318 319
6 2 95 284 305 312 320
6 187 215 248 321 322 323
6 104 131 157 255 324 325
6 28 70 151 265 326 327
6 97 123 197 267 328 329
6 1 94 283 294 311 320
6 117 138 172 288 317 330
6 36 51 180 230 331 332
6 184 212 295 321 333 334
6 30 65 162 217 335 336
6 22 76 159 291 318 337
6 106 127 155 298 325 338
6 167 235 279 309 339 340
6 45 54 190 198 341 342
6 27 69 150 301 326 343
6 100 122 195 302 329 344
6 7 85 177 277 306 345
6 147 228 286 314 346 347
6 42 57 192 261 341 348
6 111 132 210 223 349 350
6 12 78 221 238 351 352
6 112 133 203 224 349 353
6 185 245 296 322 333 354
6 33 61 165 249 336 355
6 14 80 208 239 352 356
6 113 134 204 211 350 353
6 148 274 287 315 347 357
6 40 49 182 244 332 358
6 169 259 280 310 340 359
6 13 79 207 222 351 356
6 225 272 285 313 346 357
6 24 66 263 300 327 343
6 102 129 254 299 324 338
6 20 74 252 290 319 337
6 34 62 219 250 335 355
6 234 258 278 308 339 359
6 114 141 240 289 316 330
6 9 87 269 276 307 345
6 39 48 231 243 331 358
6 214 247 297 323 334 354
6 43 58 199 262 342 348
6 96 125 266 303 328 344
