# Generated using Miratope v0.5.0 (https://github.com/galoomba1/miratope-rs)
4OFF

# Vertices, Faces, Edges, Cells
120 1200 720 120

# Vertices
0.809016994375 0 0.3090169943749 0.5 
0.809016994375 0.5 0 0.3090169943749 
0.809016994375 -0.3090169943749 0.5 -0 
0.809016994375 -0.5 0 0.3090169943749 
0.809016994375 0.3090169943749 0.5 -0 
0.809016994375 0 -0.3090169943749 0.5 
0.809016994375 -0 0.3090169943749 -0.5 
0.809016994375 0.5 0 -0.3090169943749 
0.809016994375 -0.5 0 -0.3090169943749 
0.809016994375 0 -0.3090169943749 -0.5 
0.809016994375 0.3090169943749 -0.5 0 
0.809016994375 -0.3090169943749 -0.5 0 
0.5 0 0.8090169943749 0.3090169943749 
1 -0 -0 0 
0.5 0.5 0.5 0.5 
0.5 0 0.8090169943749 -0.3090169943749 
0.5 0.5 0.5 -0.5 
0.5 0.8090169943749 0.3090169943749 0 
0.309016994375 0.5 0.8090169943749 0 
0.5 -0.5 0.5 0.5 
0.5 -0.5 0.5 -0.5 
0.5 -0.8090169943749 0.3090169943749 0 
0.309016994375 -0.5 0.8090169943749 0 
0.5 0.3090169943749 0 0.8090169943749 
0.5 0.8090169943749 -0.3090169943749 0 
0.5 0.5 -0.5 0.5 
0.309016994375 0.8090169943749 0 0.5 
0.5 0.3090169943749 0 -0.8090169943749 
0.5 0.5 -0.5 -0.5 
0.309016994375 0.8090169943749 0 -0.5 
0.5 -0.3090169943749 0 0.8090169943749 
0.5 -0.8090169943749 -0.3090169943749 0 
0.5 -0.5 -0.5 0.5 
0.309016994375 -0.8090169943749 0 0.5 
0.5 -0.3090169943749 0 -0.8090169943749 
0.309016994375 0 0.5 -0.8090169943749 
0.5 -0.5 -0.5 -0.5 
0.309016994375 -0.8090169943749 0 -0.5 
0.5 -0 -0.8090169943749 0.3090169943749 
0.309016994375 0 -0.5 0.8090169943749 
0.309016994375 0 0.5 0.8090169943749 
0 0 1 0 
0 0.3090169943749 0.8090169943749 0.5 
0 -0.3090169943749 0.809016994375 0.5 
0.5 0 -0.8090169943749 -0.3090169943749 
0.309016994375 0.5 -0.8090169943749 0 
0 0.3090169943749 0.8090169943749 -0.5 
0 -0.3090169943749 0.809016994375 -0.5 
0.309016994375 0 -0.5 -0.8090169943749 
0 0.8090169943749 0.5 0.3090169943749 
0 0.5 0.3090169943749 0.8090169943749 
0.309016994375 -0.5 -0.8090169943749 0 
0 0.8090169943749 0.5 -0.3090169943749 
0 1 0 0 
0 0.5 0.3090169943749 -0.8090169943749 
0 -0.8090169943749 0.5 0.3090169943749 
0 -0.5 0.3090169943749 0.8090169943749 
-0.3090169943749 0.5 0.809016994375 0 
0 -0.8090169943749 0.5 -0.3090169943749 
0 -1 0 0 
0 -0.5 0.3090169943749 -0.8090169943749 
0 0.5 -0.3090169943749 0.8090169943749 
0 0 0 1 
-0.3090169943749 -0.5 0.809016994375 0 
0 0.8090169943749 -0.5 0.3090169943749 
0 0.3090169943749 -0.8090169943749 0.5 
0 0.809016994375 -0.5 -0.3090169943749 
0 0.5 -0.3090169943749 -0.8090169943749 
0 0 0 -1 
0 -0.5 -0.3090169943749 0.8090169943749 
-0.3090169943749 0.809016994375 0 0.5 
0 0.3090169943749 -0.8090169943749 -0.5 
0 -0.8090169943749 -0.5 0.3090169943749 
0 -0.3090169943749 -0.8090169943749 0.5 
0 -0.809016994375 -0.5 -0.3090169943749 
0 -0.5 -0.3090169943749 -0.8090169943749 
-0.3090169943749 0 0.5 0.8090169943749 
-0.3090169943749 0.809016994375 0 -0.5 
-0.3090169943749 -0.809016994375 0 0.5 
0 -0.3090169943749 -0.8090169943749 -0.5 
-0.5 0 0.809016994375 0.3090169943749 
-0.5 0.5 0.5 0.5 
0 0 -1 0 
-0.5 0 0.809016994375 -0.3090169943749 
-0.3090169943749 0 0.5 -0.8090169943749 
-0.3090169943749 -0.809016994375 0 -0.5 
-0.3090169943749 0 -0.5 0.809016994375 
-0.5 -0.5 0.5 0.5 
-0.5 0.5 0.5 -0.5 
-0.5 0.809016994375 0.309016994375 0 
-0.3090169943749 0.5 -0.809016994375 0 
-0.5 -0.5 0.5 -0.5 
-0.3090169943749 0 -0.5 -0.809016994375 
-0.5 0.309016994375 0 0.809016994375 
-0.5 -0.809016994375 0.309016994375 0 
-0.3090169943749 -0.5 -0.809016994375 0 
-0.5 0.809016994375 -0.3090169943749 0 
-0.5 0.309016994375 0 -0.809016994375 
-0.5 -0.309016994375 0 0.809016994375 
-0.5 0.5 -0.5 0.5 
-0.8090169943749 0.309016994375 0.5 0 
-0.5 -0.809016994375 -0.3090169943749 0 
-0.5 -0.309016994375 0 -0.809016994375 
-0.5 0.5 -0.5 -0.5 
-0.5 -0.5 -0.5 0.5 
-0.8090169943749 -0.309016994375 0.5 0 
-0.5 0 -0.809016994375 0.309016994375 
-0.5 -0.5 -0.5 -0.5 
-0.8090169943749 0 0.309016994375 0.5 
-0.8090169943749 0.5 0 0.309016994375 
-0.5 0 -0.809016994375 -0.309016994375 
-0.8090169943749 0 0.309016994375 -0.5 
-0.8090169943749 0.5 0 -0.309016994375 
-0.8090169943749 -0.5 0 0.309016994375 
-0.8090169943749 -0.5 0 -0.309016994375 
-0.8090169943749 0 -0.309016994375 0.5 
-0.8090169943749 0.309016994375 -0.5 0 
-0.8090169943749 0 -0.309016994375 -0.5 
-0.8090169943749 -0.309016994375 -0.5 0 
-1 0 0 0 

# Faces
3 1 4 0
3 0 5 1
3 2 3 0
3 2 4 0
3 0 5 3
3 6 7 4
3 6 7 9
3 8 2 6
3 8 9 6
3 6 2 4
3 1 10 7
3 7 4 1
3 7 10 9
3 10 5 1
3 8 3 2
3 3 11 8
3 8 11 9
3 3 11 5
3 10 11 5
3 11 9 10
3 0 1 13
3 0 14 1
3 0 2 12
3 0 13 2
3 12 14 0
3 7 13 6
3 7 16 6
3 6 2 15
3 2 13 6
3 15 16 6
3 7 1 17
3 7 13 1
3 7 16 17
3 17 14 1
3 15 12 2
3 15 18 12
3 15 16 18
3 12 14 18
3 14 18 17
3 17 16 18
3 3 13 0
3 0 19 3
3 0 12 4
3 4 13 0
3 0 19 12
3 8 13 6
3 8 20 6
3 6 15 4
3 6 15 20
3 6 13 4
3 8 13 3
3 8 3 21
3 8 21 20
3 3 21 19
3 12 4 15
3 15 22 12
3 15 22 20
3 12 22 19
3 21 19 22
3 21 20 22
3 0 14 4
3 5 13 0
3 0 23 5
3 0 14 23
3 7 10 13
3 7 10 24
3 7 17 4
3 7 4 13
3 17 24 7
3 10 13 5
3 5 25 10
3 10 25 24
3 17 14 4
3 25 23 5
3 17 26 14
3 26 24 17
3 14 26 23
3 25 23 26
3 25 26 24
3 6 4 16
3 6 9 13
3 9 27 6
3 6 27 16
3 1 13 10
3 10 1 24
3 1 17 4
3 1 13 4
3 1 24 17
3 10 9 13
3 10 9 28
3 10 24 28
3 17 4 16
3 17 29 16
3 17 24 29
3 28 27 9
3 27 29 16
3 28 24 29
3 28 27 29
3 2 19 0
3 0 30 5
3 0 19 30
3 2 13 8
3 8 21 2
3 11 13 8
3 11 31 8
3 8 21 31
3 19 2 21
3 5 13 11
3 11 32 5
3 32 30 5
3 11 31 32
3 21 19 33
3 21 31 33
3 19 30 33
3 32 30 33
3 33 31 32
3 7 4 16
3 7 9 13
3 7 27 9
3 16 27 7
3 8 20 2
3 9 13 8
3 8 34 9
3 8 34 20
3 2 4 15
3 2 20 15
3 2 13 4
3 16 4 15
3 16 35 15
3 20 35 15
3 9 27 34
3 16 35 27
3 20 34 35
3 27 34 35
3 6 20 2
3 9 6 34
3 20 34 6
3 2 3 13
3 2 21 3
3 21 20 2
3 3 13 11
3 11 3 31
3 3 31 21
3 11 13 9
3 11 9 36
3 11 36 31
3 34 36 9
3 21 20 37
3 31 37 21
3 34 37 20
3 36 37 34
3 36 37 31
3 0 1 23
3 0 30 3
3 0 23 30
3 10 1 25
3 23 1 25
3 11 32 3
3 32 3 30
3 11 13 10
3 11 38 10
3 10 38 25
3 32 38 11
3 25 23 39
3 39 38 25
3 23 30 39
3 32 39 30
3 32 39 38
3 0 40 14
3 0 19 40
3 2 22 15
3 19 22 2
3 15 4 18
3 15 41 18
3 15 41 22
3 14 4 18
3 14 42 18
3 14 40 42
3 42 41 18
3 19 22 43
3 40 43 19
3 43 41 22
3 42 40 43
3 42 41 43
3 1 14 4
3 1 5 13
3 5 1 23
3 14 23 1
3 2 19 3
3 2 12 4
3 12 2 19
3 3 5 13
3 5 30 3
3 19 3 30
3 12 14 4
3 5 23 30
3 14 12 40
3 19 40 12
3 23 40 14
3 19 40 30
3 23 40 30
3 7 24 1
3 9 28 7
3 24 28 7
3 1 25 5
3 24 25 1
3 11 5 38
3 5 38 25
3 11 44 9
3 11 44 38
3 9 44 28
3 25 45 24
3 38 45 25
3 28 45 24
3 28 45 44
3 38 45 44
3 16 6 35
3 20 6 35
3 12 2 22
3 20 2 22
3 12 4 18
3 16 4 18
3 12 41 18
3 22 12 41
3 16 46 18
3 41 46 18
3 35 46 16
3 22 47 20
3 41 47 22
3 20 47 35
3 46 47 35
3 46 41 47
3 7 27 6
3 8 34 6
3 27 6 34
3 10 28 7
3 27 7 28
3 11 36 8
3 34 36 8
3 11 44 10
3 28 10 44
3 36 44 11
3 28 27 48
3 28 44 48
3 27 34 48
3 34 48 36
3 36 44 48
3 12 40 0
3 0 23 40
3 1 26 17
3 23 26 1
3 18 4 17
3 18 12 42
3 42 12 40
3 17 49 18
3 26 49 17
3 18 42 49
3 23 26 50
3 23 40 50
3 26 49 50
3 42 40 50
3 50 49 42
3 8 31 3
3 9 8 36
3 31 8 36
3 5 32 3
3 31 3 32
3 10 38 5
3 9 44 10
3 10 44 38
3 5 38 32
3 36 44 9
3 31 51 32
3 32 38 51
3 31 51 36
3 36 44 51
3 38 51 44
3 16 29 7
3 24 29 7
3 14 1 26
3 24 1 26
3 14 49 18
3 26 49 14
3 18 52 16
3 18 49 52
3 29 52 16
3 26 24 53
3 26 53 49
3 29 53 24
3 29 53 52
3 49 53 52
3 15 6 35
3 27 6 35
3 17 7 29
3 27 29 7
3 18 15 46
3 15 46 35
3 18 17 52
3 29 52 17
3 46 52 18
3 27 29 54
3 27 54 35
3 52 54 29
3 35 46 54
3 46 54 52
3 30 40 0
3 21 22 2
3 21 3 33
3 33 3 30
3 12 43 22
3 43 12 40
3 21 55 22
3 21 55 33
3 22 43 55
3 30 33 56
3 30 40 56
3 33 55 56
3 40 43 56
3 56 55 43
3 15 41 12
3 16 15 46
3 41 46 15
3 12 42 14
3 41 42 12
3 17 49 14
3 16 52 17
3 49 17 52
3 42 14 49
3 46 52 16
3 41 57 42
3 49 57 42
3 41 57 46
3 52 57 46
3 52 49 57
3 8 37 20
3 8 37 31
3 19 3 33
3 31 3 33
3 22 19 55
3 19 55 33
3 22 20 58
3 22 55 58
3 20 58 37
3 33 59 31
3 33 55 59
3 31 37 59
3 37 58 59
3 58 59 55
3 34 6 35
3 21 37 8
3 34 8 37
3 22 47 15
3 15 47 35
3 21 58 22
3 37 58 21
3 47 58 22
3 34 60 35
3 34 37 60
3 47 60 35
3 37 58 60
3 58 60 47
3 26 1 25
3 5 39 25
3 30 5 39
3 14 50 26
3 40 50 14
3 26 61 25
3 25 61 39
3 26 50 61
3 40 62 30
3 30 62 39
3 40 50 62
3 62 61 39
3 62 61 50
3 15 47 20
3 41 15 47
3 19 43 12
3 41 43 12
3 21 19 55
3 21 58 20
3 55 21 58
3 43 55 19
3 47 58 20
3 43 63 41
3 55 63 43
3 41 63 47
3 47 63 58
3 55 63 58
3 24 10 45
3 38 45 10
3 23 5 39
3 38 39 5
3 26 23 61
3 23 61 39
3 24 64 26
3 61 64 26
3 24 64 45
3 38 65 39
3 61 65 39
3 38 45 65
3 45 65 64
3 64 61 65
3 28 7 29
3 25 10 45
3 28 45 10
3 26 17 53
3 29 17 53
3 26 25 64
3 45 25 64
3 26 64 53
3 29 66 28
3 28 66 45
3 53 66 29
3 45 66 64
3 53 64 66
3 9 48 28
3 34 9 48
3 16 54 29
3 16 54 35
3 28 29 67
3 28 67 48
3 29 67 54
3 34 35 68
3 48 68 34
3 35 68 54
3 68 67 48
3 54 67 68
3 33 3 32
3 32 39 5
3 19 56 33
3 19 56 40
3 23 62 40
3 39 23 62
3 33 69 32
3 32 69 39
3 33 69 56
3 40 56 62
3 62 69 39
3 56 62 69
3 17 53 24
3 17 53 49
3 14 50 23
3 49 14 50
3 25 61 23
3 24 25 64
3 61 64 25
3 23 61 50
3 24 64 53
3 50 70 49
3 61 70 50
3 49 53 70
3 64 70 53
3 61 70 64
3 44 10 45
3 9 48 27
3 44 9 48
3 29 66 24
3 45 66 24
3 29 67 27
3 48 67 27
3 66 67 29
3 44 45 71
3 48 71 44
3 66 71 45
3 48 71 67
3 66 71 67
3 31 11 51
3 38 51 11
3 30 69 33
3 30 69 39
3 31 72 33
3 33 72 69
3 51 72 31
3 39 73 38
3 69 73 39
3 38 51 73
3 72 73 51
3 72 73 69
3 36 8 37
3 32 11 51
3 36 11 51
3 33 21 59
3 37 59 21
3 33 72 32
3 51 72 32
3 59 72 33
3 37 74 36
3 36 74 51
3 59 74 37
3 72 74 51
3 72 74 59
3 9 48 36
3 35 20 60
3 20 60 37
3 27 68 35
3 48 27 68
3 36 37 75
3 36 48 75
3 35 68 60
3 37 75 60
3 48 75 68
3 68 75 60
3 42 43 12
3 42 50 14
3 19 56 30
3 43 19 56
3 23 62 30
3 23 62 50
3 56 62 30
3 42 76 43
3 50 76 42
3 43 76 56
3 50 62 76
3 56 62 76
3 53 17 52
3 16 54 27
3 16 54 52
3 24 66 28
3 28 67 27
3 28 66 67
3 53 66 24
3 27 67 54
3 52 53 77
3 52 77 54
3 53 77 66
3 54 77 67
3 67 77 66
3 31 59 21
3 21 59 55
3 56 19 55
3 32 69 30
3 31 72 32
3 69 32 72
3 56 30 69
3 31 59 72
3 55 78 56
3 69 78 56
3 59 78 55
3 72 78 59
3 69 78 72
3 44 11 51
3 37 75 34
3 34 75 48
3 37 74 31
3 31 74 51
3 37 74 75
3 44 48 79
3 51 79 44
3 75 79 48
3 51 79 74
3 74 75 79
3 41 18 57
3 18 57 49
3 43 76 40
3 50 40 76
3 43 80 41
3 43 80 76
3 41 57 80
3 50 81 49
3 50 76 81
3 57 81 49
3 57 81 80
3 76 81 80
3 39 65 25
3 45 25 65
3 32 73 39
3 51 32 73
3 39 73 65
3 44 82 45
3 51 82 44
3 45 65 82
3 51 73 82
3 73 82 65
3 46 47 15
3 42 57 18
3 18 57 46
3 43 63 22
3 47 63 22
3 43 42 80
3 42 80 57
3 43 63 80
3 47 83 46
3 46 57 83
3 47 83 63
3 80 83 57
3 63 80 83
3 16 54 46
3 34 60 20
3 47 20 60
3 34 27 68
3 54 27 68
3 34 68 60
3 46 84 47
3 54 84 46
3 47 60 84
3 54 84 68
3 68 84 60
3 59 21 58
3 58 20 60
3 36 34 75
3 60 75 34
3 31 74 36
3 36 74 75
3 59 74 31
3 58 59 85
3 58 60 85
3 59 85 74
3 75 85 60
3 75 85 74
3 38 65 25
3 25 65 61
3 61 62 23
3 38 32 73
3 32 73 69
3 62 30 69
3 38 65 73
3 61 86 62
3 62 69 86
3 61 86 65
3 65 86 73
3 73 86 69
3 41 22 63
3 55 63 22
3 42 40 76
3 41 80 42
3 76 42 80
3 40 76 56
3 41 63 80
3 56 87 55
3 56 87 76
3 55 63 87
3 80 87 63
3 76 87 80
3 28 71 45
3 28 71 48
3 48 36 79
3 51 79 36
3 45 38 82
3 38 82 51
3 45 82 71
3 48 79 71
3 79 82 51
3 71 82 79
3 52 57 18
3 47 84 35
3 54 84 35
3 47 41 83
3 41 83 57
3 47 84 83
3 54 88 52
3 57 88 52
3 84 88 54
3 57 88 83
3 83 84 88
3 26 70 50
3 26 70 53
3 42 81 50
3 57 81 42
3 50 70 81
3 52 89 53
3 52 57 89
3 53 70 89
3 81 89 57
3 81 89 70
3 65 25 64
3 28 71 44
3 66 71 28
3 64 66 24
3 44 38 82
3 44 71 82
3 65 38 82
3 64 90 65
3 64 90 66
3 65 82 90
3 66 90 71
3 71 90 82
3 58 63 22
3 46 35 84
3 35 84 60
3 46 83 41
3 46 84 83
3 41 83 63
3 58 60 91
3 58 63 91
3 60 84 91
3 83 91 63
3 83 84 91
3 67 71 28
3 67 27 68
3 34 75 68
3 36 79 44
3 75 36 79
3 71 79 44
3 67 92 68
3 75 92 68
3 71 92 67
3 71 79 92
3 75 92 79
3 26 70 49
3 26 70 61
3 49 42 81
3 76 81 42
3 62 76 40
3 70 81 49
3 61 93 62
3 76 93 62
3 61 93 70
3 81 93 70
3 76 93 81
3 29 77 53
3 54 77 29
3 46 88 54
3 57 46 88
3 53 89 49
3 57 49 89
3 77 89 53
3 54 88 77
3 57 88 89
3 88 89 77
3 33 78 56
3 59 33 78
3 56 87 43
3 63 43 87
3 56 78 87
3 58 59 94
3 63 94 58
3 59 78 94
3 63 94 87
3 87 94 78
3 72 73 32
3 36 79 74
3 72 74 31
3 79 82 44
3 38 82 73
3 73 95 72
3 72 95 74
3 82 95 73
3 74 95 79
3 79 82 95
3 26 70 64
3 52 77 29
3 66 77 29
3 52 89 49
3 77 89 52
3 70 89 49
3 64 96 66
3 64 96 70
3 77 96 66
3 70 96 89
3 77 96 89
3 67 29 77
3 68 35 84
3 46 88 52
3 84 88 46
3 77 88 52
3 68 67 97
3 84 97 68
3 67 77 97
3 77 88 97
3 84 97 88
3 33 78 55
3 33 78 69
3 43 87 55
3 76 87 43
3 55 87 78
3 62 69 98
3 62 98 76
3 69 78 98
3 76 98 87
3 78 98 87
3 59 37 85
3 60 85 37
3 60 47 91
3 47 91 63
3 55 94 59
3 63 55 94
3 85 94 59
3 60 91 85
3 63 91 94
3 91 94 85
3 62 39 86
3 39 86 65
3 50 93 62
3 70 93 50
3 62 86 93
3 65 99 64
3 70 99 64
3 86 99 65
3 70 99 93
3 86 99 93
3 80 81 42
3 83 46 88
3 80 83 41
3 52 88 89
3 81 89 49
3 81 100 80
3 80 83 100
3 81 100 89
3 88 100 83
3 88 89 100
3 72 78 33
3 58 85 37
3 74 85 37
3 58 94 55
3 58 94 85
3 78 55 94
3 72 101 74
3 72 78 101
3 74 85 101
3 78 94 101
3 85 101 94
3 75 85 37
3 47 91 58
3 47 91 84
3 85 91 58
3 75 102 68
3 84 102 68
3 75 85 102
3 84 102 91
3 85 91 102
3 61 86 39
3 39 86 69
3 61 93 50
3 50 93 76
3 69 98 56
3 56 98 76
3 61 86 93
3 69 98 86
3 76 93 98
3 93 98 86
3 65 45 90
3 66 90 45
3 66 96 53
3 70 96 53
3 65 99 61
3 70 99 61
3 65 99 90
3 90 96 66
3 70 99 96
3 90 99 96
3 68 48 92
3 71 92 48
3 54 97 68
3 77 97 54
3 66 71 103
3 66 77 103
3 92 97 68
3 92 103 71
3 77 97 103
3 97 103 92
3 73 39 86
3 62 56 98
3 56 98 78
3 62 86 98
3 72 104 73
3 78 104 72
3 73 104 86
3 78 104 98
3 98 104 86
3 80 43 87
3 83 91 47
3 58 94 91
3 55 94 87
3 80 83 105
3 80 87 105
3 91 105 83
3 87 105 94
3 91 105 94
3 64 45 90
3 45 90 82
3 64 99 61
3 64 99 90
3 86 99 61
3 73 106 82
3 73 106 86
3 82 106 90
3 86 99 106
3 90 99 106
3 71 45 90
3 53 96 64
3 53 96 77
3 64 96 90
3 71 67 103
3 67 103 77
3 90 103 71
3 77 103 96
3 90 96 103
3 48 92 67
3 48 92 75
3 54 97 67
3 84 54 97
3 75 102 60
3 60 102 84
3 67 97 92
3 75 102 92
3 84 97 102
3 92 97 102
3 73 51 95
3 74 95 51
3 59 101 74
3 78 59 101
3 73 104 69
3 69 104 78
3 73 104 95
3 95 101 74
3 101 104 78
3 95 101 104
3 79 48 92
3 68 60 102
3 85 60 102
3 68 102 92
3 74 79 107
3 85 107 74
3 79 107 92
3 85 102 107
3 92 107 102
3 50 93 81
3 56 98 87
3 62 98 93
3 80 81 108
3 80 108 87
3 81 108 93
3 98 108 87
3 93 108 98
3 53 96 89
3 64 99 96
3 93 61 99
3 81 89 109
3 93 109 81
3 89 109 96
3 93 99 109
3 96 109 99
3 66 67 103
3 66 103 90
3 92 67 103
3 82 110 79
3 92 110 79
3 90 110 82
3 90 103 110
3 103 110 92
3 72 95 51
3 82 51 95
3 82 65 106
3 86 65 106
3 72 69 104
3 95 104 72
3 69 104 86
3 82 106 95
3 86 106 104
3 95 104 106
3 51 95 79
3 59 101 72
3 85 101 59
3 72 101 95
3 75 107 79
3 85 75 107
3 95 107 79
3 85 101 107
3 95 107 101
3 81 57 100
3 83 100 57
3 83 63 105
3 87 63 105
3 76 108 81
3 87 76 108
3 100 108 81
3 83 100 105
3 87 108 105
3 100 105 108
3 88 97 54
3 60 102 91
3 97 102 68
3 88 111 83
3 91 111 83
3 88 111 97
3 91 111 102
3 97 111 102
3 66 103 96
3 97 67 103
3 89 112 88
3 97 112 88
3 96 112 89
3 103 112 96
3 97 103 112
3 59 101 94
3 72 101 104
3 69 104 98
3 94 113 87
3 98 113 87
3 94 113 101
3 98 104 113
3 104 113 101
3 82 110 71
3 92 110 71
3 74 75 107
3 74 95 107
3 92 107 75
3 82 110 95
3 92 110 107
3 95 107 110
3 80 100 57
3 57 100 89
3 89 70 109
3 93 109 70
3 80 76 108
3 80 100 108
3 76 108 93
3 89 109 100
3 108 109 93
3 108 109 100
3 73 106 65
3 90 65 106
3 71 110 79
3 90 110 71
3 95 106 73
3 79 95 110
3 106 110 90
3 106 110 95
3 88 57 100
3 80 105 63
3 91 105 63
3 100 105 80
3 88 111 84
3 91 111 84
3 88 100 111
3 105 111 91
3 100 105 111
3 101 107 74
3 102 75 107
3 91 114 94
3 102 114 91
3 101 114 94
3 107 114 101
3 102 114 107
3 65 106 99
3 104 106 73
3 93 98 115
3 99 115 93
3 98 115 104
3 106 115 99
3 104 106 115
3 94 105 63
3 80 108 105
3 98 108 76
3 94 78 113
3 78 113 98
3 105 113 94
3 98 108 113
3 105 113 108
3 89 77 112
3 97 112 77
3 83 111 84
3 100 111 83
3 84 111 97
3 100 112 89
3 97 112 111
3 100 111 112
3 81 109 70
3 96 109 70
3 77 112 88
3 77 112 96
3 100 109 81
3 88 100 112
3 96 112 109
3 109 112 100
3 103 110 71
3 106 110 82
3 96 116 99
3 96 103 116
3 99 106 116
3 103 116 110
3 106 110 116
3 83 105 111
3 102 84 111
3 94 85 114
3 102 85 114
3 94 114 105
3 102 111 114
3 111 114 105
3 79 110 107
3 102 117 97
3 103 117 97
3 102 107 117
3 103 110 117
3 110 117 107
3 70 109 99
3 108 109 81
3 86 115 98
3 99 86 115
3 108 115 98
3 109 115 99
3 108 109 115
3 78 113 87
3 101 78 113
3 91 114 85
3 101 114 85
3 87 113 105
3 91 114 105
3 101 114 113
3 105 114 113
3 104 118 101
3 107 118 101
3 104 106 118
3 106 118 110
3 110 118 107
3 103 112 77
3 109 112 89
3 99 116 90
3 90 116 103
3 99 109 116
3 103 112 116
3 112 116 109
3 88 112 111
3 102 117 92
3 92 117 103
3 102 111 117
3 103 117 112
3 112 117 111
3 104 78 113
3 93 115 86
3 104 115 86
3 87 108 113
3 108 115 93
3 104 113 115
3 113 115 108
3 86 115 106
3 90 116 96
3 106 90 116
3 93 109 115
3 109 116 96
3 106 115 116
3 109 116 115
3 105 119 108
3 111 119 105
3 109 119 108
3 109 119 112
3 111 112 119
3 85 114 107
3 94 114 113
3 95 118 104
3 107 95 118
3 113 118 104
3 114 118 107
3 113 118 114
3 111 114 91
3 97 92 117
3 107 117 92
3 111 117 97
3 114 117 107
3 111 114 117
3 110 90 116
3 92 117 110
3 112 116 96
3 97 117 112
3 110 117 116
3 112 116 117
3 101 118 95
3 106 118 95
3 98 115 113
3 113 118 101
3 106 118 115
3 113 115 118
3 108 100 119
3 111 119 100
3 113 119 108
3 114 119 111
3 113 114 119
3 95 118 110
3 115 116 99
3 104 118 115
3 116 118 110
3 115 118 116
3 114 118 101
3 114 117 102
3 110 118 117
3 118 117 114
3 105 119 100
3 100 119 109
3 113 119 105
3 115 119 109
3 113 115 119
3 100 119 112
3 108 119 115
3 116 119 112
3 116 119 115
3 116 117 103
3 106 116 118
3 107 118 117
3 116 117 118
3 105 119 114
3 112 117 119
3 114 119 117
3 116 119 109
3 111 119 117
3 117 119 116
3 114 118 119
3 115 118 119
3 113 118 119
3 118 119 117
3 116 118 119

# Cells
20 0 1 2 3 4 5 6 7 8 9 10 11 12 13 14 15 16 17 18 19
20 20 21 22 23 24 25 26 27 28 29 30 31 32 33 34 35 36 37 38 39
20 40 41 42 43 44 45 46 47 48 49 50 51 52 53 54 55 56 57 58 59
20 43 60 61 62 63 64 65 66 67 68 69 70 71 72 73 74 75 76 77 78
20 49 79 80 81 82 83 84 85 86 87 88 89 90 91 92 93 94 95 96 97
20 23 61 98 99 100 101 102 103 104 105 106 107 108 109 110 111 112 113 114 115
20 67 101 116 117 118 119 120 121 122 123 124 125 126 127 128 129 130 131 132 133
20 28 80 134 135 136 137 138 139 140 141 142 143 144 145 146 147 148 149 150 151
20 20 40 83 140 152 153 154 155 156 157 158 159 160 161 162 163 164 165 166 167
20 3 60 98 124 168 169 170 171 172 173 174 175 176 177 178 179 180 181 182 183
20 86 126 137 184 185 186 187 188 189 190 191 192 193 194 195 196 197 198 199 200
20 31 107 117 143 185 201 202 203 204 205 206 207 208 209 210 211 212 213 214 215
20 9 79 134 189 216 217 218 219 220 221 222 223 224 225 226 227 228 229 230 231
20 25 45 64 103 159 232 233 234 235 236 237 238 239 240 241 242 243 244 245 246
20 0 42 85 152 220 247 248 249 250 251 252 253 254 255 256 257 258 259 260 261
20 50 69 88 121 191 262 263 264 265 266 267 268 269 270 271 272 273 274 275 276
20 11 116 175 184 201 221 277 278 279 280 281 282 283 284 285 286 287 288 289 290
20 5 47 66 172 232 251 291 292 293 294 295 296 297 298 299 300 301 302 303 304
20 2 22 138 153 218 247 305 306 307 308 309 310 311 312 313 314 315 316 317 318
20 54 72 91 127 194 319 320 321 322 323 324 325 326 327 328 329 330 331 332 333
20 14 120 171 188 219 262 334 335 336 337 338 339 340 341 342 343 344 345 346 347
20 7 27 102 170 233 291 306 348 349 350 351 352 353 354 355 356 357 358 359 360
20 1 21 99 168 204 279 305 361 362 363 364 365 366 367 368 369 370 371 372 373
20 34 106 125 139 190 319 374 375 376 377 378 379 380 381 382 383 384 385 386 387
20 13 84 186 250 267 280 388 389 390 391 392 393 394 395 396 397 398 399 400 401
20 10 30 155 235 249 293 361 402 403 404 405 406 407 408 409 410 411 412 413 414
20 6 26 135 202 216 277 348 402 415 416 417 418 419 420 421 422 423 424 425 426
20 4 41 62 169 248 265 336 390 427 428 429 430 431 432 433 434 435 436 437 438
20 33 87 156 187 205 324 439 440 441 442 443 444 445 446 447 448 449 450 451 452
20 12 65 118 268 278 294 388 453 454 455 456 457 458 459 460 461 462 463 464 465
20 17 141 192 206 308 337 363 391 466 467 468 469 470 471 472 473 474 475 476 477
20 15 51 157 237 307 349 427 478 479 480 481 482 483 484 485 486 487 488 489 490
20 8 46 81 217 263 292 334 454 478 491 492 493 494 495 496 497 498 499 500 501
20 24 44 63 100 154 322 376 441 502 503 504 505 506 507 508 509 510 511 512 513
20 32 68 119 203 236 325 439 514 515 516 517 518 519 520 521 522 523 524 525 526
20 53 142 158 193 266 378 504 527 528 529 530 531 532 533 534 535 536 537 538 539
20 16 104 122 208 335 350 416 455 466 540 541 542 543 544 545 546 547 548 549 550
20 37 196 222 281 310 365 377 442 551 552 553 554 555 556 557 558 559 560 561 562
20 18 70 108 239 362 403 428 453 479 540 563 564 565 566 567 568 569 570 571 572
20 35 55 252 295 309 351 502 573 574 575 576 577 578 579 580 581 582 583 584 585
20 29 48 82 136 234 320 374 515 573 586 587 588 589 590 591 592 593 594 595 596
20 52 105 123 238 264 379 527 587 597 598 599 600 601 602 603 604 605 606 607 608
20 73 109 195 207 270 443 506 530 609 610 611 612 613 614 615 616 617 618 619 620
20 57 197 223 253 323 338 430 529 621 622 623 624 625 626 627 628 629 630 631 632
20 19 89 144 160 389 404 415 467 480 491 633 634 635 636 637 638 639 640 641 642
20 36 128 173 283 352 375 418 516 551 643 644 645 646 647 648 649 650 651 652 653
20 38 74 176 297 364 405 503 514 574 643 654 655 656 657 658 659 660 661 662 663
20 71 90 161 240 269 444 517 609 664 665 666 667 668 669 670 671 672 673 674 675
20 56 129 174 296 321 340 492 598 621 676 677 678 679 680 681 682 683 684 685 686
20 94 130 146 210 271 518 589 599 665 687 688 689 690 691 692 693 694 695 696 697
20 76 177 198 282 327 392 431 611 623 698 699 700 701 702 703 704 705 706 707 708
20 39 92 224 254 406 417 440 552 575 586 709 710 711 712 713 714 715 716 717 718
20 58 111 179 353 429 481 505 576 597 676 719 720 721 722 723 724 725 726 727 728
20 110 145 162 209 241 531 601 612 668 690 729 730 731 732 733 734 735 736 737 738
20 75 93 255 298 326 394 456 667 698 739 740 741 742 743 744 745 746 747 748 749
20 95 131 226 285 328 458 494 677 688 740 750 751 752 753 754 755 756 757 758 759
20 113 180 199 339 369 381 468 553 614 702 760 761 762 763 764 765 766 767 768 769
20 59 147 227 311 482 493 528 577 588 622 770 771 772 773 774 775 776 777 778 779
20 77 163 257 407 432 507 563 654 664 739 780 781 782 783 784 785 786 787 788 789
20 178 225 256 284 299 624 679 700 742 752 790 791 792 793 794 795 796 797 798 799
20 112 148 312 354 380 470 543 731 760 800 801 802 803 804 805 806 807 808 809 810
20 132 149 229 342 382 422 541 644 689 751 801 811 812 813 814 815 816 817 818 819
20 165 200 258 315 393 446 469 533 554 626 820 821 822 823 824 825 826 827 828 829
20 78 211 286 366 457 520 564 610 655 699 830 831 832 833 834 835 836 837 838 839
20 97 242 300 410 495 590 634 666 710 741 840 841 842 843 844 845 846 847 848 849
20 114 166 314 370 483 508 565 719 729 780 800 850 851 852 853 854 855 856 857 858
20 181 228 313 341 355 555 646 762 792 803 812 859 860 861 862 863 864 865 866 867
20 164 212 367 408 445 473 637 733 820 850 868 869 870 871 872 873 874 875 876 877
20 96 213 288 396 419 447 633 687 709 750 868 878 879 880 881 882 883 884 885 886
20 133 244 301 356 459 521 542 600 645 678 887 888 889 890 891 892 893 894 895 896
20 115 272 343 433 544 566 603 613 720 761 897 898 899 900 901 902 903 904 905 906
20 150 245 357 423 486 591 635 730 771 802 840 907 908 909 910 911 912 913 914 915
20 182 260 317 371 436 578 656 721 782 790 851 859 916 917 918 919 920 921 922 923
20 259 287 368 395 409 558 713 794 822 870 879 916 924 925 926 927 928 929 930 931
20 214 243 411 420 519 546 568 732 831 869 887 907 932 933 934 935 936 937 938 939
20 167 273 397 434 484 532 638 670 781 821 940 941 942 943 944 945 946 947 948 949
20 151 274 345 472 496 534 636 691 770 811 940 950 951 952 953 954 955 956 957 958
20 183 329 383 509 647 657 681 701 722 763 959 960 961 962 963 964 965 966 967 968
20 230 303 358 424 498 581 711 772 791 842 860 908 969 970 971 972 973 974 975 976
20 289 302 412 421 460 649 659 793 832 889 924 932 969 977 978 979 980 981 982 983
20 316 344 435 471 485 628 774 824 862 917 944 951 984 985 986 987 988 989 990 991
20 246 275 462 487 497 569 602 669 841 888 898 941 992 993 994 995 996 997 998 999
20 261 330 448 510 579 625 714 744 783 823 1000 1001 1002 1003 1004 1005 1006 1007 1008 1009
20 215 276 399 461 475 547 615 692 830 878 897 950 1010 1011 1012 1013 1014 1015 1016 1017
20 231 331 385 557 592 627 712 753 773 813 1000 1018 1019 1020 1021 1022 1023 1024 1025 1026
20 346 359 488 499 545 682 724 861 891 899 970 984 994 1027 1028 1029 1030 1031 1032 1033
20 372 398 437 474 567 704 765 834 901 918 926 986 1010 1034 1035 1036 1037 1038 1039 1040
20 318 384 511 535 556 580 775 805 825 852 1004 1019 1041 1042 1043 1044 1045 1046 1047 1048
20 304 332 523 582 593 660 680 743 843 890 960 1001 1049 1050 1051 1052 1053 1054 1055 1056
20 290 333 450 522 560 650 703 754 833 880 959 1018 1057 1058 1059 1060 1061 1062 1063 1064
20 400 413 463 570 639 745 785 844 925 942 977 992 1034 1065 1066 1067 1068 1069 1070 1071
20 360 386 583 594 605 648 725 804 892 909 961 1041 1051 1072 1073 1074 1075 1076 1077 1078
20 425 464 500 548 640 755 815 882 954 971 978 1012 1028 1065 1079 1080 1081 1082 1083 1084
20 373 449 512 559 616 658 766 835 853 872 963 1043 1057 1085 1086 1087 1088 1089 1090 1091
20 347 387 537 604 630 683 764 814 900 952 962 1020 1092 1093 1094 1095 1096 1097 1098 1099
20 476 489 549 571 641 806 854 873 911 935 985 1027 1035 1066 1079 1100 1101 1102 1103 1104
20 414 451 524 661 672 715 786 845 871 933 1002 1049 1085 1105 1106 1107 1108 1109 1110 1111
20 426 525 595 651 693 716 816 883 910 934 1022 1059 1073 1105 1112 1113 1114 1115 1116 1117
20 438 513 536 617 629 705 723 784 902 946 964 1006 1092 1118 1119 1120 1121 1122 1123 1124
20 401 452 618 671 706 746 826 881 943 1003 1011 1058 1119 1125 1126 1127 1128 1129 1130 1131
20 561 584 652 662 717 863 919 927 972 979 1042 1072 1086 1106 1112 1132 1133 1134 1135 1136
20 490 538 606 726 735 776 855 912 945 995 1044 1074 1118 1137 1138 1139 1140 1141 1142 1143
20 501 596 607 684 694 756 777 846 955 996 1023 1053 1094 1137 1144 1145 1146 1147 1148 1149
20 465 526 674 695 747 757 837 893 993 1013 1050 1060 1126 1145 1150 1151 1152 1153 1154 1155
20 477 539 620 734 767 807 827 874 953 1014 1045 1087 1093 1125 1156 1157 1158 1159 1160 1161
20 585 631 685 727 778 796 920 973 987 1005 1029 1052 1121 1138 1144 1162 1163 1164 1165 1166
20 572 619 673 736 787 836 856 903 937 997 1088 1107 1120 1139 1150 1167 1168 1169 1170 1171
20 550 608 697 737 808 817 894 904 936 1015 1075 1095 1113 1151 1156 1167 1172 1173 1174 1175
20 562 632 708 768 795 828 864 928 988 1021 1036 1061 1096 1128 1158 1176 1177 1178 1179 1180
20 663 707 748 788 797 838 921 965 981 1037 1054 1067 1122 1152 1162 1168 1181 1182 1183 1184
20 642 675 696 738 847 875 884 913 947 956 1108 1114 1127 1140 1146 1157 1185 1186 1187 1188
20 653 686 759 798 818 865 895 966 980 1030 1062 1080 1097 1153 1173 1176 1181 1189 1190 1191
20 718 749 758 799 848 885 929 974 1007 1024 1068 1081 1129 1147 1163 1177 1185 1192 1193 1194
20 728 769 809 857 866 905 922 967 1031 1038 1076 1089 1100 1132 1169 1172 1182 1189 1195 1196
20 779 810 819 867 914 957 975 989 1025 1046 1082 1101 1115 1133 1159 1178 1187 1193 1197 1198
20 789 829 858 876 923 930 948 990 1008 1047 1069 1102 1109 1134 1141 1164 1186 1192 1197 1199
20 839 877 886 931 938 982 1016 1039 1063 1083 1090 1103 1116 1135 1160 1174 1179 1190 1196 1198
20 849 896 915 939 976 983 998 1033 1055 1070 1077 1104 1110 1136 1142 1165 1170 1183 1195 1199
20 906 949 958 991 999 1017 1032 1040 1071 1084 1098 1123 1130 1148 1154 1166 1180 1184 1191 1194
20 968 1009 1026 1048 1056 1064 1078 1091 1099 1111 1117 1124 1131 1143 1149 1155 1161 1171 1175 1188
