# Generated using Miratope v0.5.0 (https://github.com/galoomba1/miratope-rs)
4OFF

# Vertices, Faces, Edges, Cells
120 720 720 120

# Vertices
0.809016994374945 0.809016994374945 0.809016994374945 0.809016994374945 
1.30901699437495 0.809016994374945 0.5 0 
0.809016994374945 0 0.5 1.30901699437495 
0 1.30901699437495 0.5 0.809016994374945 
0.809016994374945 0.809016994374945 -0.809016994374945 -0.809016994374945 
0.809016994374945 1.30901699437495 0 -0.5 
1.30901699437495 0 -0.809016994374945 -0.5 
0 0.809016994374945 -1.30901699437495 -0.5 
0.809016994374945 -0.809016994374945 -0.809016994374945 0.809016994374945 
1.30901699437495 -0.5 0 0.809016994374945 
0 -0.5 -0.809016994374945 1.30901699437495 
0.809016994374945 -0.5 -1.30901699437495 0 
-0.809016994374945 0.809016994374945 -0.809016994374945 0.809016994374945 
-0.5 0.809016994374945 0 1.30901699437495 
-0.5 1.30901699437495 -0.809016994374945 0 
-0.5 0 -1.30901699437495 0.809016994374945 
1.61803398874989 0 0 0 
0 1.61803398874989 0 0 
0 0 0 1.61803398874989 
0 0 -1.61803398874989 0 
0.5 -1.30901699437495 -0.809016994374945 0 
-0.809016994374945 -0.809016994374945 -0.809016994374945 0.809016994374945 
-1.30901699437495 -0.5 0 0.809016994374945 
-0.5 -1.30901699437495 -0.809016994374945 0 
-0.809016994374945 0 0.5 1.30901699437495 
0.5 0 1.30901699437495 0.809016994374945 
0.809016994374945 -0.5 1.30901699437495 0 
-0.5 0 1.30901699437495 0.809016994374945 
1.30901699437495 -0.809016994374945 0.5 0 
0 -0.809016994374945 1.30901699437495 -0.5 
-0.809016994374945 -0.5 1.30901699437495 0 
0.809016994374945 -1.30901699437495 0 -0.5 
-1.30901699437495 -0.809016994374945 0.5 0 
0 -1.30901699437495 0.5 -0.809016994374945 
-0.809016994374945 -1.30901699437495 0 -0.5 
-0.809016994374945 0.809016994374945 0.809016994374945 0.809016994374945 
-1.30901699437495 0.809016994374945 0.5 0 
-0.809016994374945 1.30901699437495 0 -0.5 
1.30901699437495 0 0.809016994374945 -0.5 
0.809016994374945 0 0.5 -1.30901699437495 
0.5 0.809016994374945 0 -1.30901699437495 
-0.5 0.809016994374945 0 -1.30901699437495 
-1.30901699437495 0 0.809016994374945 -0.5 
0 -0.5 0.809016994374945 -1.30901699437495 
-0.809016994374945 0 0.5 -1.30901699437495 
0.809016994374945 1.30901699437495 0 0.5 
0 0.809016994374945 1.30901699437495 0.5 
0.809016994374945 0.809016994374945 -0.809016994374945 0.809016994374945 
0.809016994374945 0 -0.5 1.30901699437495 
0 0.809016994374945 -1.30901699437495 0.5 
-0.5 1.30901699437495 0.809016994374945 0 
0 -0.5 0.809016994374945 1.30901699437495 
-1.30901699437495 0 0.809016994374945 0.5 
-0.5 -0.809016994374945 0 1.30901699437495 
-1.30901699437495 0.809016994374945 -0.5 0 
-1.30901699437495 0 -0.809016994374945 0.5 
1.30901699437495 0 0.809016994374945 0.5 
1.30901699437495 0.809016994374945 -0.5 0 
0 1.30901699437495 -0.5 -0.809016994374945 
0.809016994374945 0 -0.5 -1.30901699437495 
0.809016994374945 -0.809016994374945 0.809016994374945 -0.809016994374945 
1.30901699437495 -0.5 0 -0.809016994374945 
-0.809016994374945 0.809016994374945 0.809016994374945 -0.809016994374945 
-0.5 0 1.30901699437495 -0.809016994374945 
0 0 1.61803398874989 0 
0 0 0 -1.61803398874989 
0.809016994374945 -0.809016994374945 -0.809016994374945 -0.809016994374945 
0 -1.30901699437495 -0.5 -0.809016994374945 
1.30901699437495 0 -0.809016994374945 0.5 
0 -0.809016994374945 1.30901699437495 0.5 
-0.5 -1.30901699437495 0.809016994374945 0 
-0.809016994374945 -1.30901699437495 0 0.5 
0 -0.809016994374945 -1.30901699437495 0.5 
0.5 1.30901699437495 0.809016994374945 0 
0.5 0.809016994374945 0 1.30901699437495 
0 0.809016994374945 1.30901699437495 -0.5 
0 1.30901699437495 -0.5 0.809016994374945 
-0.809016994374945 0 -0.5 1.30901699437495 
-0.809016994374945 -0.809016994374945 0.809016994374945 0.809016994374945 
-1.61803398874989 0 0 0 
0.809016994374945 0.809016994374945 0.809016994374945 -0.809016994374945 
1.30901699437495 -0.809016994374945 -0.5 0 
0.5 0 -1.30901699437495 0.809016994374945 
0.5 0 -1.30901699437495 -0.809016994374945 
-0.809016994374945 -0.809016994374945 0.809016994374945 -0.809016994374945 
0.5 0 1.30901699437495 -0.809016994374945 
0.5 -0.809016994374945 0 1.30901699437495 
0 -1.30901699437495 -0.5 0.809016994374945 
0.5 -0.809016994374945 0 -1.30901699437495 
-0.809016994374945 1.30901699437495 0 0.5 
0 0.5 -0.809016994374945 1.30901699437495 
-0.809016994374945 0.5 1.30901699437495 0 
0 -1.30901699437495 0.5 0.809016994374945 
1.30901699437495 0.5 0 -0.809016994374945 
0.5 1.30901699437495 -0.809016994374945 0 
0.809016994374945 -1.30901699437495 0 0.5 
0 1.30901699437495 0.5 -0.809016994374945 
0.5 -1.30901699437495 0.809016994374945 0 
1.30901699437495 0.5 0 0.809016994374945 
0.809016994374945 -0.809016994374945 0.809016994374945 0.809016994374945 
0 0.5 0.809016994374945 -1.30901699437495 
0 0.5 0.809016994374945 1.30901699437495 
-1.30901699437495 0.5 0 0.809016994374945 
-1.30901699437495 -0.809016994374945 -0.5 0 
0 -1.61803398874989 0 0 
0.809016994374945 0.5 -1.30901699437495 0 
-0.809016994374945 0.5 -1.30901699437495 0 
0.809016994374945 0.5 1.30901699437495 0 
-1.30901699437495 0.5 0 -0.809016994374945 
-1.30901699437495 -0.5 0 -0.809016994374945 
-0.809016994374945 0.809016994374945 -0.809016994374945 -0.809016994374945 
0 -0.809016994374945 -1.30901699437495 -0.5 
0 0.5 -0.809016994374945 -1.30901699437495 
-0.809016994374945 -0.809016994374945 -0.809016994374945 -0.809016994374945 
-0.809016994374945 -0.5 -1.30901699437495 0 
0 -0.5 -0.809016994374945 -1.30901699437495 
-0.809016994374945 0 -0.5 -1.30901699437495 
-1.30901699437495 0 -0.809016994374945 -0.5 
-0.5 0 -1.30901699437495 -0.809016994374945 
-0.5 -0.809016994374945 0 -1.30901699437495 

# Faces
5 0 2 9 16 1
5 0 3 17 5 1
5 2 18 13 3 0
5 4 5 1 16 6
5 4 5 17 14 7
5 4 7 19 11 6
5 18 10 8 9 2
5 8 9 16 6 11
5 8 10 15 19 11
5 3 13 12 14 17
5 13 18 10 15 12
5 12 15 19 7 14
5 9 28 31 20 8
5 10 21 23 20 8
5 18 10 21 22 24
5 21 22 32 34 23
5 18 2 25 27 24
5 2 25 26 28 9
5 27 25 26 29 30
5 28 26 29 33 31
5 24 27 30 32 22
5 30 32 34 33 29
5 20 31 33 34 23
5 1 38 26 25 0
5 0 25 27 35 3
5 17 37 36 35 3
5 27 35 36 42 30
5 37 17 5 40 41
5 1 38 39 40 5
5 29 43 39 38 26
5 37 41 44 42 36
5 29 30 42 44 43
5 40 41 44 43 39
5 45 0 2 48 47
5 0 45 17 50 46
5 46 0 2 51 27
5 47 45 17 14 49
5 47 49 15 10 48
5 14 17 50 36 54
5 51 2 48 10 53
5 46 27 52 36 50
5 51 53 22 52 27
5 14 49 15 55 54
5 10 15 55 22 53
5 36 52 22 55 54
5 45 57 16 56 0
5 46 64 26 56 0
5 17 58 4 57 45
5 4 57 16 61 59
5 4 59 65 41 58
5 16 61 60 26 56
5 60 43 63 64 26
5 60 43 65 59 61
5 46 64 63 62 50
5 62 50 17 58 41
5 62 63 43 65 41
5 69 26 60 33 70
5 61 60 33 67 66
5 61 66 11 68 16
5 66 67 23 72 11
5 16 68 48 2 56
5 26 56 2 51 69
5 10 72 11 68 48
5 53 51 69 70 71
5 10 72 23 71 53
5 70 33 67 23 71
5 73 0 74 76 17
5 64 25 0 73 75
5 18 74 0 25 51
5 62 37 17 73 75
5 62 42 30 64 75
5 37 54 79 42 62
5 76 74 18 77 12
5 37 54 12 76 17
5 77 22 79 54 12
5 78 30 64 25 51
5 78 51 18 77 22
5 78 30 42 79 22
5 80 73 0 56 38
5 0 74 48 9 56
5 17 73 80 40 58
5 38 61 59 40 80
5 17 58 7 49 76
5 38 56 9 81 61
5 76 49 82 48 74
5 48 82 11 81 9
5 81 61 59 83 11
5 58 40 59 83 7
5 49 82 11 83 7
5 51 78 71 87 86
5 78 71 34 84 30
5 30 84 43 85 64
5 88 43 84 34 67
5 64 85 38 56 25
5 51 86 9 56 25
5 9 81 20 87 86
5 61 38 85 43 88
5 61 88 67 20 81
5 87 71 34 67 20
5 89 3 74 90 12
5 12 89 36 79 55
5 12 55 21 10 90
5 21 10 86 92 71
5 79 55 21 71 32
5 32 79 36 91 30
5 2 74 3 46 25
5 86 2 74 90 10
5 25 69 92 86 2
5 25 69 30 91 46
5 3 89 36 91 46
5 30 32 71 92 69
5 1 93 4 94 45
5 61 93 4 83 66
5 4 94 49 19 83
5 61 66 20 95 28
5 19 83 66 20 72
5 49 90 10 72 19
5 2 74 45 1 56
5 56 1 93 61 28
5 56 28 95 86 2
5 94 45 74 90 49
5 72 20 95 86 10
5 91 46 73 96 62
5 62 91 30 84 44
5 96 40 65 44 62
5 84 33 97 69 30
5 65 44 84 33 88
5 65 88 61 93 40
5 25 46 73 1 56
5 93 1 73 96 40
5 25 69 97 28 56
5 61 28 97 33 88
5 98 0 73 5 57
5 25 99 9 98 0
5 25 99 97 29 64
5 9 81 31 97 99
5 64 29 43 100 75
5 98 9 81 6 57
5 75 100 40 5 73
5 40 5 57 6 59
5 31 81 6 59 88
5 29 97 31 88 43
5 40 100 43 88 59
5 99 86 18 101 25
5 87 104 97 99 86
5 35 101 25 64 91
5 101 18 77 102 35
5 79 102 35 91 42
5 64 29 84 42 91
5 34 104 97 29 84
5 42 84 34 103 79
5 77 21 87 86 18
5 21 103 79 102 77
5 87 21 103 34 104
5 101 0 98 48 18
5 73 50 35 101 0
5 37 50 35 102 54
5 82 15 77 18 48
5 82 105 57 98 48
5 5 73 50 37 58
5 58 5 57 105 7
5 54 106 7 58 37
5 54 102 77 15 106
5 105 7 106 15 82
5 80 107 0 45 5
5 2 0 107 26 99
5 60 39 80 107 26
5 5 4 59 39 80
5 4 105 47 45 5
5 8 48 47 105 11
5 48 8 95 99 2
5 26 99 95 31 60
5 4 59 66 11 105
5 66 11 8 95 31
5 60 31 66 59 39
5 45 76 13 101 0
5 64 107 0 101 27
5 107 64 63 100 80
5 58 5 80 100 41
5 63 64 27 52 42
5 5 45 76 14 58
5 13 102 52 27 101
5 54 102 13 76 14
5 58 14 54 108 41
5 100 41 108 42 63
5 102 54 108 42 52
5 101 2 99 69 27
5 95 99 69 70 104
5 48 8 72 15 90
5 8 72 23 104 95
5 70 104 23 103 32
5 48 90 13 101 2
5 13 90 15 55 102
5 69 27 52 32 70
5 32 52 102 55 103
5 55 15 72 23 103
5 8 86 2 98 68
5 66 20 8 68 6
5 92 104 20 8 86
5 66 88 39 93 6
5 88 66 20 104 33
5 29 69 92 104 33
5 2 98 1 107 25
5 93 6 68 98 1
5 1 107 85 39 93
5 25 69 29 85 107
5 33 29 85 39 88
5 69 78 24 101 25
5 78 32 79 102 24
5 84 32 78 69 29
5 84 44 100 85 29
5 84 32 79 108 44
5 102 89 37 108 79
5 107 25 101 3 73
5 96 100 85 107 73
5 73 3 89 37 96
5 89 102 24 101 3
5 100 96 37 108 44
5 72 19 105 68 8
5 72 21 53 86 8
5 102 55 21 53 24
5 19 72 21 55 106
5 19 106 14 94 105
5 101 2 98 45 3
5 94 105 68 98 45
5 94 14 89 3 45
5 24 101 2 86 53
5 102 89 14 106 55
5 0 74 47 57 1
5 18 74 47 82 10
5 6 57 47 82 11
5 10 18 51 92 87
5 38 1 57 6 61
5 25 51 92 97 26
5 38 61 31 97 26
5 20 11 6 61 31
5 82 10 87 20 11
5 20 31 97 92 87
5 35 46 25 51 24
5 36 62 75 46 35
5 22 79 36 35 24
5 62 44 43 85 75
5 79 109 44 62 36
5 22 71 34 109 79
5 26 85 75 46 25
5 85 26 97 33 43
5 22 71 92 51 24
5 33 97 92 71 34
5 43 33 34 109 44
5 1 80 75 46 0
5 46 35 13 74 0
5 40 4 57 1 80
5 41 62 75 80 40
5 49 12 13 74 47
5 7 49 47 57 4
5 12 54 36 35 13
5 41 40 4 7 110
5 54 110 41 62 36
5 12 49 7 110 54
5 0 101 51 99 56
5 16 81 95 99 56
5 95 87 53 51 99
5 57 16 81 11 105
5 57 105 49 76 45
5 13 77 53 51 101
5 49 15 77 13 76
5 11 72 87 95 81
5 53 77 15 72 87
5 72 15 49 105 11
5 62 108 54 89 50
5 62 63 84 109 108
5 69 64 63 84 70
5 70 71 103 109 84
5 51 101 46 64 69
5 46 101 13 89 50
5 54 89 13 77 55
5 53 77 55 103 71
5 108 54 55 103 109
5 78 71 21 77 24
5 97 69 78 71 104
5 77 90 82 72 21
5 20 104 71 21 72
5 97 28 81 20 104
5 56 98 74 101 25
5 28 56 98 68 81
5 68 98 74 90 82
5 24 101 74 90 77
5 20 72 82 68 81
5 108 62 91 52 79
5 96 58 110 108 62
5 94 58 110 106 49
5 108 79 55 106 110
5 79 52 24 77 55
5 45 73 46 101 74
5 96 58 94 45 73
5 46 101 24 52 91
5 90 77 55 106 49
5 73 50 62 100 80
5 38 60 43 100 80
5 99 56 38 60 97
5 97 70 78 51 99
5 35 52 78 51 101
5 62 42 52 35 50
5 43 84 70 97 60
5 42 84 43 100 62
5 42 52 78 70 84
5 86 48 98 56 99
5 60 88 59 93 38
5 97 104 67 88 60
5 87 72 111 67 104
5 56 98 57 93 38
5 57 105 83 59 93
5 48 86 87 72 82
5 105 82 72 111 83
5 88 59 83 111 67
5 107 0 3 50 75
5 99 2 18 53 92
5 29 26 99 92 70
5 13 102 22 53 18
5 26 107 75 63 29
5 13 102 36 50 3
5 42 36 50 75 63
5 53 22 32 70 92
5 32 42 63 29 70
5 36 102 22 32 42
5 0 107 38 16 98
5 98 0 3 76 47
5 47 105 6 16 98
5 7 14 76 47 105
5 16 38 39 59 6
5 75 100 39 38 107
5 50 3 76 14 37
5 75 50 37 41 100
5 59 6 105 7 112
5 41 37 14 7 112
5 59 112 41 100 39
5 2 98 47 90 18
5 47 90 15 19 105
5 99 2 98 16 28
5 31 104 92 99 28
5 16 28 31 66 6
5 19 111 66 6 105
5 23 111 66 31 104
5 21 15 90 18 53
5 21 53 92 104 23
5 19 15 21 23 111
5 56 107 85 60 28
5 95 104 33 60 28
5 60 85 63 84 33
5 52 91 63 84 32
5 32 84 33 104 71
5 71 104 95 86 53
5 56 107 46 101 2
5 107 46 91 63 85
5 71 53 24 52 32
5 28 60 88 66 81
5 85 60 88 65 100
5 66 81 68 105 83
5 66 88 65 112 83
5 100 65 112 58 96
5 98 56 107 73 45
5 105 83 112 58 94
5 4 40 96 17 94
5 65 115 83 4 40
5 36 62 96 17 89
5 89 17 94 49 12
5 12 49 19 114 55
5 79 55 114 113 109
5 44 109 113 115 65
5 19 114 113 115 83
5 61 39 65 115 66
5 23 113 115 66 20
5 23 113 109 32 71
5 65 39 85 63 44
5 85 26 28 61 39
5 26 69 92 95 28
5 85 26 69 30 63
5 32 109 44 63 30
5 23 71 92 95 20
5 26 85 80 1 56
5 45 1 80 96 17
5 63 85 80 96 62
5 52 30 63 62 36
5 13 74 45 17 89
5 2 51 24 13 74
5 52 24 13 89 36
5 24 51 69 30 52
5 110 37 62 44 116
5 7 94 17 37 110
5 110 7 83 115 116
5 73 1 57 94 17
5 38 1 73 75 85
5 7 94 57 6 83
5 83 6 61 88 115
5 44 43 88 115 116
5 97 29 30 78 92
5 22 21 87 92 78
5 22 21 114 117 79
5 87 20 111 114 21
5 42 44 116 117 79
5 31 20 111 115 88
5 114 111 115 116 117
5 17 76 13 35 50
5 35 52 22 77 13
5 41 116 109 42 62
5 15 77 22 103 114
5 58 41 116 118 7
5 52 42 109 103 22
5 49 7 118 114 15
5 103 114 118 116 109
5 51 99 26 64 27
5 60 43 119 67 31
5 53 22 103 23 87
5 42 63 43 119 109
5 95 87 23 67 31
5 109 103 23 67 119
5 112 4 5 96 41
5 4 6 66 115 112
5 33 119 115 66 31
5 26 107 1 16 28
5 5 96 75 107 1
5 75 96 41 44 63
5 29 33 119 44 63
5 112 41 44 119 115
5 14 37 36 102 12
5 22 21 15 12 102
5 19 7 112 115 111
5 32 42 44 119 34
5 111 23 34 119 115
5 3 74 47 94 17
5 19 82 47 94 7
5 18 24 35 3 74
5 37 110 117 79 36
5 19 114 117 110 7
5 114 21 10 82 19
5 17 50 75 80 5
5 43 63 75 80 39
5 7 118 115 59 4
5 14 54 117 118 7
5 42 109 117 54 36
5 119 43 39 59 115
5 109 117 118 115 119
5 79 52 30 84 109
5 33 84 109 113 67
5 20 72 114 113 67
5 86 10 77 24 51
5 69 51 86 95 97
5 77 10 72 114 55
5 33 67 20 95 97
5 62 100 40 58 37
5 79 103 114 106 54
5 83 111 114 106 7
5 34 67 111 114 103
5 74 101 35 89 76
5 54 79 52 35 89
5 71 103 79 52 78
5 51 86 48 74 101
5 49 106 54 89 76
5 49 106 114 72 82
5 87 72 114 103 71
5 9 98 47 82 8
5 15 82 47 76 12
5 99 25 27 78 92
5 9 8 87 92 99
5 12 102 35 3 76
5 27 78 22 102 35
5 87 8 82 15 21
5 25 107 38 28 99
5 42 32 78 27 91
5 34 104 92 78 32
5 88 119 34 104 31
5 27 25 107 75 91
5 31 28 38 39 88
5 44 100 75 91 42
5 39 100 44 119 88
5 16 93 80 107 56
5 59 93 80 100 65
5 64 69 99 56 107
5 81 66 59 93 16
5 67 104 95 81 66
5 65 119 67 66 59
5 100 63 84 119 65
5 70 84 119 67 104
5 93 4 112 65 39
5 94 4 112 110 14
5 89 14 110 108 36
5 108 44 65 112 110
5 46 107 1 45 3
5 91 63 44 108 36
5 50 96 80 107 46
5 39 65 41 96 80
5 60 33 119 65 39
5 41 108 109 119 65
5 26 107 46 27 69
5 36 108 41 96 50
5 109 32 52 36 108
5 109 32 70 33 119
5 46 73 17 89 35
5 24 77 12 89 35
5 82 49 12 77 10
5 1 56 9 68 57
5 82 68 57 94 49
5 86 9 68 82 10
5 80 85 64 46 73
5 43 85 80 40 65
5 46 64 30 52 35
5 17 89 54 110 58
5 58 110 116 65 40
5 54 110 116 109 79
5 43 65 116 109 84
5 58 96 80 93 4
5 16 93 4 105 68
5 4 105 49 14 58
5 68 105 49 90 48
5 14 89 50 96 58
5 14 49 90 13 89
5 81 8 86 99 28
5 90 18 86 8 82
5 6 105 82 8 81
5 3 101 18 90 76
5 93 5 73 107 38
5 5 73 3 76 94
5 81 28 38 93 6
5 6 105 94 5 93
5 82 105 94 76 90
5 64 29 60 38 107
5 29 60 88 119 84
5 84 119 116 108 42
5 73 107 64 91 50
5 5 93 59 112 58
5 37 108 42 91 50
5 58 112 116 108 37
5 88 59 112 116 119
5 80 93 57 45 73
5 62 108 116 65 100
5 59 83 118 116 65
5 76 89 50 73 45
5 49 105 83 118 106
5 54 106 118 116 108
5 91 62 37 89 35
5 30 91 35 24 78
5 12 106 110 37 89
5 77 21 114 106 12
5 110 106 114 113 116
5 84 34 113 116 44
5 34 113 114 21 71
5 85 100 62 91 64
5 57 94 76 74 98
5 58 94 57 93 40
5 85 100 40 93 38
5 37 58 94 76 89
5 104 34 113 111 20
5 112 83 111 113 116
5 38 28 97 29 85
5 83 6 93 40 112
5 81 6 83 111 20
5 100 44 116 112 40
5 113 23 21 55 117
5 108 117 113 119 44
5 23 104 33 119 113
5 91 27 24 102 36
5 69 27 91 63 29
5 24 27 69 92 53
5 102 55 117 108 36
5 99 69 29 60 28
5 39 93 16 28 60
5 39 100 63 29 60
5 45 5 93 16 98
5 3 45 5 96 50
5 101 3 50 91 27
5 93 5 96 100 39
5 63 100 96 50 91
5 111 66 88 119 113
5 113 111 19 106 117
5 94 5 96 37 14
5 106 117 108 37 14
5 11 68 57 4 83
5 4 83 118 110 58
5 55 114 118 110 54
5 57 68 48 74 45
5 48 10 77 13 74
5 11 83 118 114 72
5 60 97 95 81 61
5 70 71 87 95 97
5 16 38 26 99 9
5 11 111 23 87 8
5 11 111 115 59 6
5 119 43 29 70 34
5 34 70 92 87 23
5 2 9 68 47 74
5 4 6 68 47 94
5 4 40 39 61 6
5 17 3 46 75 96
5 6 61 28 9 68
5 40 96 75 85 39
5 34 113 115 88 33
5 83 6 68 82 19
5 28 97 92 86 9
5 7 106 12 76 94
5 86 18 74 98 9
5 85 60 61 93 80
5 97 60 85 64 69
5 81 68 57 93 61
5 95 86 48 68 81
5 73 3 35 91 75
5 79 102 12 106 117
5 112 40 5 94 7
5 117 106 7 112 116
5 16 98 48 8 81
5 18 53 87 8 48
5 87 104 31 81 8
5 31 81 16 38 60
5 104 31 60 29 70
5 18 101 27 78 53
5 78 27 64 29 70
5 70 104 87 53 78
5 103 21 53 78 32
5 15 21 103 117 106
5 15 106 14 76 90
5 108 42 32 103 117
5 16 61 39 80 1
5 31 61 16 9 95
5 92 51 2 9 95
5 75 46 27 30 63
5 27 51 92 70 30
5 31 33 43 39 61
5 33 43 63 30 70
5 33 31 95 92 70
5 22 24 13 12 55
5 117 55 12 14 110
5 14 110 41 96 17
5 110 41 44 109 117
5 27 24 13 3 46
5 32 22 55 117 109
5 27 64 75 50 35
5 103 22 78 70 34
5 116 41 37 54 117
5 54 117 103 22 102
5 41 100 43 119 116
5 116 119 34 103 117
5 26 64 30 70 97
5 56 26 97 95 9
5 48 10 87 95 9
5 70 30 52 22 71
5 87 10 77 22 71
5 1 45 47 68 16
5 47 90 13 3 45
5 8 68 47 90 10
5 16 28 95 8 68
5 8 95 92 53 10
5 90 10 53 24 13
5 4 112 118 19 105
5 19 118 117 55 15
5 41 108 117 118 112
5 13 35 27 51 18
5 114 15 12 54 117
5 42 109 34 70 30
5 10 87 23 114 15
5 117 109 34 23 114
5 38 16 57 5 80
5 38 26 64 75 80
5 16 57 47 48 9
5 5 17 76 47 57
5 47 76 13 18 48
5 9 99 51 18 48
5 14 49 19 118 110
5 109 113 118 110 108
5 72 23 113 118 19
5 90 12 106 19 82
5 96 40 112 110 37
5 106 19 83 112 110
5 3 73 1 98 74
5 65 43 33 67 115
5 95 9 68 11 20
5 83 115 67 20 11
5 1 98 47 94 5
5 111 20 8 82 19
5 9 98 1 38 28
5 39 40 112 115 88
5 14 12 90 47 94
5 24 18 90 12 102
5 96 37 36 91 75
5 11 68 47 49 19
5 19 118 115 66 11
5 65 41 110 118 115
5 99 86 53 78 69
5 78 52 91 64 69
5 52 102 77 53 78
5 45 98 48 90 76
5 90 77 53 86 48
5 102 89 50 91 52
5 89 102 77 90 76
5 72 8 81 66 111
5 66 59 112 118 111
5 14 58 112 118 106
5 106 118 111 72 15
5 118 111 23 103 117
5 72 21 103 113 111
5 103 113 116 108 79
5 34 109 116 115 67
5 116 119 67 111 118
5 59 115 67 31 61
5 97 31 67 34 70
5 41 116 115 59 40
5 67 66 83 118 113
5 82 11 111 114 15
5 84 32 103 113 119
5 103 113 118 106 55
5 119 65 112 118 113
5 24 18 86 92 78
5 29 85 75 91 30
5 19 114 23 20 11
5 55 114 23 71 22
5 117 113 115 112 110
5 32 34 113 117 79
5 67 104 71 103 113
5 88 65 116 113 67
5 118 114 23 67 115
5 67 31 81 11 111
5 105 7 118 111 11

# Cells
12 0 1 2 3 4 5 6 7 8 9 10 11
12 6 12 13 14 15 16 17 18 19 20 21 22
12 1 18 23 24 25 26 27 28 29 30 31 32
12 33 34 35 36 37 38 39 40 41 42 43 44
12 34 45 46 47 48 49 50 51 52 53 54 55
12 39 50 56 57 58 59 60 61 62 63 64 65
12 66 67 68 69 70 71 72 73 74 75 76 77
12 66 78 79 80 81 82 83 84 85 86 87 88
12 75 83 89 90 91 92 93 94 95 96 97 98
12 99 100 101 102 103 104 105 106 107 108 109 110
12 106 111 112 113 114 115 116 117 118 119 120 121
12 108 118 122 123 124 125 126 127 128 129 130 131
12 67 132 133 134 135 136 137 138 139 140 141 142
12 134 143 144 145 146 147 148 149 150 151 152 153
12 132 146 154 155 156 157 158 159 160 161 162 163
12 33 164 165 166 167 168 169 170 171 172 173 174
12 164 175 176 177 178 179 180 181 182 183 184 185
12 170 181 186 187 188 189 190 191 192 193 194 195
12 107 196 197 198 199 200 201 202 203 204 205 206
12 205 207 208 209 210 211 212 213 214 215 216 217
12 196 216 218 219 220 221 222 223 224 225 226 227
12 23 68 228 229 230 231 232 233 234 235 236 237
12 233 238 239 240 241 242 243 244 245 246 247 248
12 228 239 249 250 251 252 253 254 255 256 257 258
12 45 175 259 260 261 262 263 264 265 266 267 268
12 53 63 264 269 270 271 272 273 274 275 276 277
12 130 207 278 279 280 281 282 283 284 285 286 287
12 120 122 286 288 289 290 291 292 293 294 295 296
12 78 155 259 297 298 299 300 301 302 303 304 305
12 144 158 299 306 307 308 309 310 311 312 313 314
12 2 165 315 316 317 318 319 320 321 322 323 324
12 315 325 326 327 328 329 330 331 332 333 334 335
12 316 327 336 337 338 339 340 341 342 343 344 345
12 119 226 295 346 347 348 349 350 351 352 353 354
12 214 224 284 294 346 355 356 357 358 359 360 361
12 100 113 124 242 362 363 364 365 366 367 368 369
12 110 114 368 370 371 372 373 374 375 376 377 378
12 61 117 364 376 379 380 381 382 383 384 385 386
12 69 96 232 241 387 388 389 390 391 392 393 394
12 31 77 141 237 394 395 396 397 398 399 400 401
12 54 82 265 302 402 403 404 405 406 407 408 409
12 41 51 171 179 261 407 410 411 412 413 414 415
12 3 19 319 340 416 417 418 419 420 421 422 423
12 11 15 30 324 334 345 423 424 425 426 427 428
12 14 25 229 240 388 397 429 430 431 432 433 434
12 4 38 167 321 413 435 436 437 438 439 440 441
12 121 125 292 367 386 442 443 444 445 446 447 448
12 71 87 92 142 150 161 304 314 449 450 451 452
12 84 89 301 312 450 453 454 455 456 457 458 459
12 24 133 326 396 425 460 461 462 463 464 465 466
12 330 339 427 462 467 468 469 470 471 472 473 474
12 177 187 260 271 475 476 477 478 479 480 481 482
12 109 111 204 225 353 373 483 484 485 486 487 488
12 40 56 166 193 489 490 491 492 493 494 495 496
12 94 128 238 365 390 445 497 498 499 500 501 502
12 80 91 442 454 497 503 504 505 506 507 508 509
12 60 191 274 352 475 489 510 511 512 513 514 515
12 143 213 467 516 517 518 519 520 521 522 523 524
12 148 159 307 520 525 526 527 528 529 530 531 532
12 263 269 297 311 457 476 533 534 535 536 537 538
12 90 123 278 387 498 539 540 541 542 543 544 545
12 93 145 283 310 449 453 539 546 547 548 549 550
12 149 210 282 522 544 549 551 552 553 554 555 556
12 201 220 344 422 488 557 558 559 560 561 562 563
12 186 223 338 561 564 565 566 567 568 569 570 571
12 199 217 222 341 474 523 558 570 572 573 574 575
12 47 62 275 383 447 506 576 577 578 579 580 581
12 52 86 266 272 303 409 459 509 535 581 582 583
12 7 29 317 329 428 440 463 584 585 586 587 588
12 17 105 244 362 374 429 589 590 591 592 593 594
12 102 131 247 369 393 434 502 545 593 595 596 597
12 72 95 137 151 392 398 451 542 547 555 598 599
12 273 293 446 456 503 533 579 582 600 601 602 603
12 138 147 399 464 473 521 556 598 604 605 606 607
12 154 176 325 525 608 609 610 611 612 613 614 615
12 331 343 468 519 530 569 575 613 616 617 618 619
12 0 35 249 436 620 621 622 623 624 625 626 627
12 9 20 377 421 592 623 628 629 630 631 632 633
12 136 156 332 465 587 614 634 635 636 637 638 639
12 46 79 250 403 505 580 583 640 641 642 643 644
12 375 419 487 493 562 632 645 646 647 648 649 650
12 168 192 320 337 416 494 563 568 646 651 652 653
12 10 26 231 255 439 588 624 654 655 656 657 658
12 402 410 435 584 634 654 659 660 661 662 663 664
12 64 116 354 372 385 485 495 515 650 665 666 667
12 99 129 203 215 285 541 554 596 668 669 670 671
12 245 251 363 379 448 500 504 576 641 672 673 674
12 12 28 400 426 430 460 472 606 675 676 677 678
12 16 202 336 420 424 471 560 574 675 679 680 681
12 36 58 370 380 490 620 630 645 665 682 683 684
12 306 360 477 528 536 685 686 687 688 689 690 691
12 180 188 478 529 567 608 618 688 692 693 694 695
12 103 115 126 200 211 221 281 291 350 358 486 670
12 174 184 190 323 335 342 566 612 619 653 693 696
12 152 212 280 313 361 524 531 550 552 691 697 698
12 74 88 98 236 243 258 389 499 508 644 674 699
12 162 185 267 305 309 482 527 538 615 687 695 700
12 70 81 234 252 404 640 656 660 699 701 702 703
12 57 112 270 289 348 381 443 510 577 600 666 704
12 27 73 139 230 401 461 586 636 655 662 703 705
12 194 227 349 359 481 514 571 690 694 706 707 708
12 391 395 431 540 553 597 599 604 671 677 709 710
12 246 253 366 378 384 589 622 628 673 682 711 712
12 21 104 206 432 594 595 669 678 681 710 713 714
12 279 288 308 356 455 534 546 601 686 698 715 716
12 44 55 65 257 382 578 626 643 672 684 712 717
12 160 178 262 298 406 411 611 638 659 700 718 719
12 37 48 254 408 414 437 621 642 657 661 701 717
12 169 182 318 328 412 438 585 609 637 663 696 719
12 76 85 135 157 300 405 452 635 664 702 705 718
12 140 153 163 333 466 470 518 532 607 610 617 639
12 97 127 287 290 444 458 501 507 543 548 602 716
12 189 218 347 483 491 511 559 565 648 651 667 708
12 5 22 32 235 248 256 433 591 625 631 658 711
12 42 49 59 172 183 195 268 277 415 480 492 512
12 13 101 197 371 417 484 557 590 629 647 679 713
12 8 43 173 322 418 441 496 627 633 649 652 683
12 276 296 351 357 479 513 537 603 689 704 707 715
12 198 208 469 517 551 573 605 668 676 680 709 714
12 209 219 355 516 526 564 572 616 685 692 697 706
