# Generated using Miratope v0.5.0 (https://github.com/galoomba1/miratope-rs)
4OFF

# Vertices, Faces, Edges, Cells
120 2520 1200 720

# Vertices
0.0834626338555 0 0.3535533905933 0.5 
-0.4885987689621 0 0.2185080122244 0.3090169943749 
0.4370160244488 -0.3090169943749 -0 0.3090169943749 
0.2185080122244 0.3090169943749 0.4885987689621 -0 
0.0834626338555 -0.5 -0.3535533905933 0 
-0.4885987689621 -0.3090169943749 -0.2185080122244 0 
0.2185080122244 -0.1909830056251 -0.2185080122244 -0.5 
-0.3535533905933 -0 -0.0834626338555 -0.5 
-0.3535533905933 0.3090169943749 0.3535533905933 -0.1909830056251 
0.5720614028177 -0 0.1350453783689 -0.1909830056251 
0.0834626338555 -0 0.3535533905933 -0.5 
-0.4885987689621 0 0.2185080122244 -0.3090169943749 
0.4370160244488 -0.3090169943749 -0 -0.3090169943749 
0.2185080122244 0.5 0.2185080122244 -0.1909830056251 
0.2185080122244 -0 -0.4885987689621 0.3090169943749 
-0.3535533905933 0.1909830056251 -0.3535533905933 0.3090169943749 
-0.3535533905933 0.5 0.0834626338555 -0 
0.5720614028177 0.1909830056251 -0.1350453783689 -0 
0.0834626338555 0.5 -0.3535533905933 0 
-0.4885987689621 0.3090169943749 -0.2185080122244 0 
0.4370160244488 -0 -0.4370160244488 0 
0.2185080122244 0.5 0.2185080122244 0.1909830056251 
0.2185080122244 -0.5 0.2185080122244 0.1909830056251 
-0.3535533905933 -0.3090169943749 0.3535533905933 0.1909830056251 
-0.3535533905933 0.3090169943749 0.3535533905933 0.1909830056251 
0.5720614028177 -0 0.1350453783689 0.1909830056251 
0.4370160244488 0.3090169943749 -0 -0.3090169943749 
0.2185080122244 -0.3090169943749 0.4885987689621 -0 
0.2185080122244 0.1909830056251 -0.2185080122244 0.5 
-0.3535533905933 -0 -0.0834626338555 0.5 
0.2185080122244 -0.5 0.2185080122244 -0.1909830056251 
-0.3535533905933 -0.3090169943749 0.3535533905933 -0.1909830056251 
0.4370160244488 0.3090169943749 -0 0.3090169943749 
0.2185080122244 -0 -0.4885987689621 -0.3090169943749 
-0.3535533905933 -0.1909830056251 -0.3535533905933 -0.3090169943749 
-0.3535533905933 -0.5 0.0834626338555 -0 
0.5720614028177 -0.1909830056251 -0.1350453783689 -0 
0.4370160244488 -0 0.4370160244488 -0 
0.2185080122244 0.1909830056251 -0.2185080122244 -0.5 
-0.3535533905933 0.1909830056251 -0.3535533905933 -0.3090169943749 
0.2185080122244 -0.1909830056251 -0.2185080122244 0.5 
-0.3535533905933 -0.1909830056251 -0.3535533905933 0.3090169943749 
-0.1350453783689 0.5 0.1350453783689 0.3090169943749 
-0.1350453783689 -0.1909830056251 0.5720614028177 -0 
-0.1350453783689 0.3090169943749 -0.1350453783689 -0.5 
-0.1350453783689 0.5 0.1350453783689 -0.3090169943749 
-0 -0.3090169943749 -0.4370160244488 0.3090169943749 
-0 -0.6180339887499 -0 -0 
-0.5720614028177 0.1909830056251 0.1350453783689 -0 
-0.1350453783689 0.3090169943749 -0.1350453783689 0.5 
-0.1350453783689 0.1909830056251 0.5720614028177 -0 
-0 -0.3090169943749 -0.4370160244488 -0.3090169943749 
-0.1350453783689 -0.5 0.1350453783689 -0.3090169943749 
-0.1350453783689 -0.3090169943749 -0.1350453783689 0.5 
-0.1350453783689 -0.5 0.1350453783689 0.3090169943749 
-0 0.3090169943749 -0.4370160244488 -0.3090169943749 
-0 0.6180339887499 -0 -0 
-0.5720614028177 -0.1909830056251 0.1350453783689 -0 
-0.1350453783689 -0.3090169943749 -0.1350453783689 -0.5 
-0 0.3090169943749 -0.4370160244488 0.3090169943749 
-0.1350453783689 -0 -0.5720614028177 -0.1909830056251 
-0.1350453783689 -0 -0.5720614028177 0.1909830056251 
-0 -0.3090169943749 0.4370160244488 -0.3090169943749 
-0 0.3090169943749 0.4370160244488 -0.3090169943749 
-0.5720614028177 0 -0.1350453783689 0.1909830056251 
-0 -0 0 -0.6180339887499 
0.3535533905933 0.5 -0.0834626338555 -0 
0.3535533905933 -0.5 -0.0834626338555 -0 
-0 -0 0 0.6180339887499 
-0 0.3090169943749 0.4370160244488 0.3090169943749 
-0.5720614028177 0 -0.1350453783689 -0.1909830056251 
-0 -0.3090169943749 0.4370160244488 0.3090169943749 
0.3535533905933 0.1909830056251 0.3535533905933 -0.3090169943749 
0.3535533905933 -0.3090169943749 -0.3535533905933 0.1909830056251 
0.3535533905933 0.1909830056251 0.3535533905933 0.3090169943749 
0.3535533905933 -0.3090169943749 -0.3535533905933 -0.1909830056251 
0.3535533905933 -0.1909830056251 0.3535533905933 -0.3090169943749 
0.3535533905933 0.3090169943749 -0.3535533905933 0.1909830056251 
0.3535533905933 -0.1909830056251 0.3535533905933 0.3090169943749 
0.3535533905933 0.3090169943749 -0.3535533905933 -0.1909830056251 
-0.2185080122244 0 0.4885987689621 -0.3090169943749 
-0.2185080122244 0.5 -0.2185080122244 0.1909830056251 
0.3535533905933 -0 0.0834626338555 0.5 
0.3535533905933 -0 0.0834626338555 -0.5 
-0.2185080122244 0 0.4885987689621 0.3090169943749 
-0.2185080122244 0.5 -0.2185080122244 -0.1909830056251 
-0.2185080122244 -0.5 -0.2185080122244 0.1909830056251 
-0.2185080122244 0.1909830056251 0.2185080122244 0.5 
-0.2185080122244 0.1909830056251 0.2185080122244 -0.5 
-0.2185080122244 -0.5 -0.2185080122244 -0.1909830056251 
-0.2185080122244 -0.1909830056251 0.2185080122244 0.5 
-0.2185080122244 -0.1909830056251 0.2185080122244 -0.5 
-0.2185080122244 -0.3090169943749 -0.4885987689621 0 
-0.2185080122244 0.3090169943749 -0.4885987689621 0 
0.1350453783689 -0.3090169943749 0.1350453783689 0.5 
0.1350453783689 -0.3090169943749 0.1350453783689 -0.5 
0.1350453783689 0.1909830056251 -0.5720614028177 0 
0.1350453783689 0.3090169943749 0.1350453783689 0.5 
0.1350453783689 0.3090169943749 0.1350453783689 -0.5 
0.1350453783689 -0.1909830056251 -0.5720614028177 0 
0.1350453783689 0 0.5720614028177 0.1909830056251 
0.1350453783689 0.5 -0.1350453783689 -0.3090169943749 
0.1350453783689 -0.5 -0.1350453783689 -0.3090169943749 
-0.4370160244488 -0 -0.4370160244488 0 
0.1350453783689 0 0.5720614028177 -0.1909830056251 
0.1350453783689 0.5 -0.1350453783689 0.3090169943749 
0.1350453783689 -0.5 -0.1350453783689 0.3090169943749 
-0.4370160244488 -0.3090169943749 -0 -0.3090169943749 
-0.4370160244488 -0.3090169943749 -0 0.3090169943749 
-0.4370160244488 0.3090169943749 -0 -0.3090169943749 
-0.4370160244488 0.3090169943749 -0 0.3090169943749 
0.4885987689621 -0 -0.2185080122244 -0.3090169943749 
-0.4370160244488 0 0.4370160244488 -0 
0.4885987689621 -0 -0.2185080122244 0.3090169943749 
0.4885987689621 -0.3090169943749 0.2185080122244 -0 
0.4885987689621 0.3090169943749 0.2185080122244 -0 
-0.0834626338555 0.5 0.3535533905933 -0 
-0.0834626338555 -0.5 0.3535533905933 -0 
-0.0834626338555 -0 -0.3535533905933 0.5 
-0.0834626338555 -0 -0.3535533905933 -0.5 

# Faces
5 0 2 4 5 1
4 0 3 8 1
4 0 2 9 3
4 4 6 7 5
4 2 9 6 4
4 1 8 7 5
5 3 8 7 6 9
5 4 12 10 11 5
4 10 11 16 13
4 10 13 17 12
4 4 14 15 5
4 4 12 17 14
4 5 11 16 15
5 16 15 14 17 13
5 18 19 5 4 20
4 18 19 24 21
4 18 21 25 20
4 4 22 23 5
4 20 4 22 25
4 19 24 23 5
5 24 23 22 25 21
5 11 19 18 26 10
4 10 27 23 11
4 26 25 27 10
4 18 19 29 28
4 18 26 25 28
4 11 23 29 19
5 27 23 29 28 25
4 18 13 8 19
4 20 9 13 18
4 5 4 30 31
4 4 20 9 30
4 19 8 31 5
5 30 9 13 8 31
5 0 32 18 19 1
4 1 35 22 0
4 32 0 22 36
4 19 18 33 34
4 32 36 33 18
4 1 35 34 19
5 22 35 34 33 36
5 1 11 10 37 0
4 0 28 15 1
4 37 17 28 0
4 10 11 39 38
4 10 37 17 38
4 11 1 15 39
5 39 15 28 17 38
4 10 3 24 11
4 12 25 3 10
4 4 40 29 5
4 12 25 40 4
4 5 29 24 11
5 3 24 29 40 25
4 11 35 30 10
4 26 36 30 10
4 19 41 14 18
4 18 26 36 14
4 19 11 35 41
5 30 35 41 14 36
4 0 27 31 1
4 32 9 27 0
4 18 38 7 19
4 18 32 9 38
4 19 7 31 1
5 27 31 7 38 9
4 0 1 41 40
4 0 40 36 37
4 10 6 34 11
4 37 36 6 10
4 11 34 41 1
5 41 34 6 36 40
4 0 21 16 1
4 0 21 17 2
4 4 33 39 5
4 4 33 17 2
4 5 39 16 1
5 33 17 21 16 39
5 2 20 18 42 0
4 2 30 43 0
4 0 43 8 42
4 20 6 44 18
4 18 44 8 42
4 20 6 30 2
5 30 6 44 8 43
5 12 20 18 45 10
4 12 10 31 47
4 45 48 31 10
4 20 46 15 18
4 18 45 48 15
4 20 12 47 46
5 46 47 31 48 15
4 12 22 43 10
4 10 45 24 43
4 18 49 40 20
4 45 24 49 18
4 20 40 22 12
5 43 22 40 49 24
5 12 2 0 50 10
4 2 46 29 0
4 0 50 48 29
4 12 51 7 10
4 50 10 7 48
4 2 12 51 46
5 51 46 29 48 7
4 2 14 49 0
4 50 16 49 0
4 10 44 33 12
4 10 44 16 50
4 12 33 14 2
5 49 14 33 44 16
4 2 47 23 0
4 42 48 23 0
4 20 51 39 18
4 42 48 39 18
4 20 51 47 2
5 47 51 39 48 23
5 10 52 4 20 26
4 26 21 50 10
4 10 50 23 52
4 4 20 28 53
4 4 52 23 53
4 26 20 28 21
5 21 28 53 23 50
5 32 20 4 54 0
4 0 32 56 24
4 0 24 57 54
4 4 34 55 20
4 54 57 34 4
4 32 20 55 56
5 24 57 34 55 56
5 32 26 10 43 0
4 0 32 14 53
4 0 43 35 53
4 26 33 58 10
4 43 35 58 10
4 33 26 32 14
5 14 33 58 35 53
4 10 26 56 8
4 10 8 57 52
4 20 59 41 4
4 52 4 41 57
4 26 20 59 56
5 8 57 41 59 56
4 32 0 50 13
4 50 31 54 0
4 4 20 38 58
4 54 4 58 31
4 32 20 38 13
5 58 31 50 13 38
4 0 32 59 29
4 43 57 29 0
4 10 7 55 26
4 43 10 7 57
4 26 32 59 55
5 29 59 55 7 57
4 37 13 42 0
5 0 53 4 12 37
4 42 15 53 0
4 4 12 38 60
4 53 15 60 4
4 37 13 38 12
5 38 60 15 42 13
5 26 12 4 61 18
4 26 18 16 63
4 18 61 64 16
4 12 62 35 4
4 4 61 64 35
4 26 63 62 12
5 16 64 35 62 63
4 18 42 3 26
4 42 29 61 18
4 4 54 27 12
4 4 54 29 61
4 12 27 3 26
5 3 27 54 29 42
5 18 26 37 0 49
4 37 0 23 62
4 0 23 64 49
4 26 18 39 65
4 49 64 39 18
4 37 26 65 62
5 62 65 39 64 23
4 0 54 30 37
4 49 41 54 0
4 26 6 60 18
4 60 18 49 41
4 26 6 30 37
5 6 30 54 41 60
4 0 37 63 24
4 0 24 64 53
4 4 34 65 12
4 53 64 34 4
4 12 65 63 37
5 63 65 34 64 24
5 19 42 0 54 5
4 19 44 58 5
4 5 54 30 58
4 13 44 19 42
5 37 30 58 44 13
5 10 45 19 5 52
4 10 9 66 45
4 52 10 9 67
4 5 46 59 19
4 52 67 46 5
4 45 19 59 66
5 46 67 9 66 59
4 10 45 21 37
4 10 52 22 37
4 19 5 53 49
4 52 22 53 5
4 19 45 21 49
5 49 21 37 22 53
5 27 10 45 42 0
4 40 59 42 0
4 27 67 40 0
4 45 10 6 55
4 10 6 67 27
4 59 42 45 55
5 59 40 67 6 55
4 0 53 47 27
4 45 10 58 39
4 10 27 47 58
4 39 45 42 15
5 15 53 47 58 39
4 42 66 25 0
4 54 67 25 0
4 19 5 51 55
4 5 51 67 54
4 42 19 55 66
5 25 67 51 55 66
4 18 45 3 32
5 32 2 4 60 18
4 45 18 60 7
4 2 27 52 4
4 4 52 7 60
4 27 2 32 3
5 27 3 45 7 52
5 4 58 10 37 2
4 10 8 69 37
4 58 70 8 10
4 2 68 41 4
4 41 70 58 4
4 37 69 68 2
5 41 70 8 69 68
5 10 44 18 32 37
4 10 52 34 44
4 18 61 40 32
4 18 61 34 44
4 37 22 40 32
5 40 61 34 52 22
4 32 18 16 69
4 60 18 16 70
4 4 2 71 35
4 60 4 35 70
4 32 69 71 2
5 69 71 35 70 16
4 4 2 28 61
4 4 58 39 61
4 21 28 2 37
5 45 21 28 61 39
4 37 10 31 71
4 44 10 31 70
4 18 15 68 32
4 44 70 15 18
4 32 37 71 68
5 71 68 15 70 31
5 18 61 5 11 45
4 5 54 43 11
4 54 40 61 5
4 3 43 11 45
5 54 40 32 3 43
5 11 50 0 53 5
4 50 0 25 72
4 53 73 25 0
4 5 51 65 11
4 5 51 73 53
4 50 72 65 11
5 25 73 51 65 72
5 28 18 45 50 0
4 28 46 54 0
4 28 46 60 18
4 31 50 45 7
5 7 60 46 54 31
4 45 18 17 72
4 61 73 17 18
4 5 47 62 11
4 61 73 47 5
4 45 11 62 72
5 17 72 62 47 73
4 11 44 60 5
4 53 14 60 5
4 13 44 11 50
5 32 13 44 60 14
4 0 22 62 50
4 22 73 28 0
4 18 33 65 45
4 28 18 33 73
4 50 62 65 45
5 62 65 33 73 22
5 3 10 52 54 0
4 0 3 56 49
4 10 3 56 44
4 34 41 54 52
5 34 44 56 49 41
4 28 0 3 66
4 10 38 51 52
4 10 3 66 38
4 54 46 51 52
5 46 28 66 38 51
5 50 1 5 58 10
4 5 61 49 1
4 58 33 61 5
4 50 1 49 21
5 21 49 61 33 26
5 18 60 5 1 42
4 18 42 74 17
4 18 60 75 17
4 5 47 71 1
4 5 47 75 60
4 1 42 74 71
5 17 74 71 47 75
4 1 5 52 43
4 6 52 5 60
4 3 42 1 43
5 26 6 52 43 3
5 10 50 42 18 38
4 30 71 50 10
4 38 75 30 10
4 14 68 42 18
4 14 75 38 18
4 68 42 50 71
5 30 71 68 14 75
4 38 51 61 18
4 29 42 50 23
5 23 52 51 61 29
4 10 9 74 50
4 10 58 75 9
4 1 5 46 68
4 5 46 75 58
4 50 1 68 74
5 9 74 68 46 75
5 19 49 0 43 11
4 19 60 58 11
4 49 14 60 19
4 30 43 11 58
5 30 2 14 60 58
5 52 11 19 61 4
4 52 76 36 4
4 61 4 36 77
4 19 56 63 11
4 61 19 56 77
4 11 63 76 52
5 76 63 56 77 36
4 11 19 42 50
4 42 28 61 19
4 50 27 52 11
5 2 28 42 50 27
5 0 40 4 52 43
4 0 43 63 21
4 0 21 77 40
4 33 65 52 4
4 40 77 33 4
4 63 43 52 65
5 65 33 77 21 63
4 40 4 60 59
5 8 42 59 60 7
4 8 7 52 43
4 43 76 25 0
4 49 77 25 0
4 19 55 65 11
4 49 77 55 19
4 11 43 76 65
5 55 77 25 76 65
5 21 0 53 61 18
4 0 27 72 21
4 18 38 72 21
4 51 47 53 61
5 47 27 72 38 51
4 21 63 44 18
4 35 34 61 53
5 43 35 34 44 63
5 4 54 1 19 60
4 45 19 1 50
4 38 45 19 60
4 50 27 54 1
5 45 38 12 27 50
5 19 44 10 43 1
4 43 10 9 78
4 44 10 9 79
4 1 19 59 68
4 44 19 59 79
4 1 68 78 43
5 9 78 68 59 79
5 6 10 43 54 4
4 4 61 55 6
5 45 24 29 61 55
4 24 43 54 29
4 4 54 78 36
4 4 36 79 60
4 1 19 56 69
4 19 56 79 60
4 54 78 69 1
5 78 69 56 79 36
4 19 1 53 61
4 44 19 61 33
4 43 22 53 1
5 12 33 61 53 22
4 43 10 13 69
4 10 13 79 6
4 14 4 54 68
4 6 79 14 4
4 54 68 69 43
5 68 14 79 13 69
5 4 61 49 0 22
4 4 22 62 58
5 16 50 62 58 39
4 39 61 49 16
4 0 22 76 3
4 6 76 22 4
4 56 55 61 49
5 55 56 3 76 6
5 12 52 5 61 20
4 12 37 32 20
4 32 49 61 20
5 49 32 37 43 1
4 52 12 37 43
5 12 27 0 28 20
4 27 80 24 0
4 28 0 24 81
4 20 55 65 12
4 28 20 55 81
4 12 65 80 27
5 80 65 55 81 24
5 5 29 0 27 52
4 5 60 59 29
5 32 9 6 60 59
4 9 27 52 6
4 52 5 48 80
4 5 48 81 61
4 12 20 66 72
4 20 61 81 66
4 12 52 80 72
5 48 80 72 66 81
4 20 60 58 12
4 28 15 60 20
5 1 15 60 58 31
4 27 31 58 12
4 0 29 81 21
4 39 5 52 65
4 29 81 39 5
4 65 52 27 72
5 72 65 39 81 21
5 13 10 58 60 18
4 13 69 49 18
5 35 41 49 69 43
4 41 60 58 35
4 13 74 27 10
4 18 13 74 28
4 47 58 60 46
5 46 47 27 74 28
5 18 49 1 11 44
4 1 54 52 11
4 6 44 11 52
5 20 6 52 54 40
4 49 1 54 40
5 53 1 11 58 4
4 53 82 36 4
4 58 83 36 4
4 11 1 69 63
4 58 83 63 11
4 69 82 53 1
5 82 69 63 83 36
4 42 1 11 45
4 58 11 45 38
5 42 28 20 38 45
4 42 28 53 1
5 18 49 53 4 33
4 13 83 33 18
4 30 4 53 71
4 4 30 83 33
4 49 69 71 53
5 69 13 83 30 71
5 24 23 52 65 45
4 24 23 53 49
4 18 49 82 17
4 44 83 17 18
4 1 71 62 11
4 11 62 83 44
4 49 1 71 82
5 62 83 17 82 71
5 20 38 10 27 2
5 11 39 61 53 23
4 53 2 20 61
4 38 20 61 39
4 27 23 53 2
5 5 60 20 2 54
4 5 54 84 48
4 60 5 48 85
4 2 74 66 20
4 66 85 60 20
4 2 54 84 74
5 84 74 66 85 48
5 26 44 11 43 37
4 20 26 37 2
4 60 20 26 44
4 54 2 37 43
5 7 10 27 54 5
4 10 7 85 13
4 5 15 68 54
4 5 15 85 7
4 54 68 74 27
5 15 85 13 74 68
4 7 55 61 5
5 25 40 61 55 26
4 25 40 54 27
4 10 27 84 8
4 10 8 85 38
4 2 20 59 68
4 20 38 85 59
4 27 2 68 84
5 59 85 8 84 68
5 30 4 60 44 10
4 3 10 30 78
4 40 4 30 78
4 56 44 60 59
5 59 56 3 78 40
5 15 16 50 71 53
4 15 16 44 60
5 28 61 5 23 0
4 3 80 23 0
4 5 7 80 23
4 66 28 61 55
5 55 66 3 80 7
4 5 58 62 23
5 17 33 58 62 37
4 17 28 61 33
5 0 3 26 20 40
4 41 60 20 40
5 8 44 60 41 1
4 8 44 26 3
5 26 45 19 61 20
4 19 57 80 45
4 19 61 86 57
4 20 67 76 26
4 61 86 67 20
4 26 45 80 76
5 80 76 67 86 57
5 2 53 1 50 37
4 50 37 26 45
5 19 29 0 3 45
4 22 0 29 86
4 19 34 65 45
4 29 19 34 86
4 3 76 65 45
5 65 34 86 22 76
4 19 60 46 29
5 2 9 38 60 46
4 3 45 38 9
4 40 0 23 86
4 20 26 65 51
4 20 40 86 51
4 26 3 80 65
5 80 65 51 86 23
5 14 4 58 44 18
5 31 8 42 68 54
4 8 31 58 44
4 18 14 82 21
4 4 22 82 14
4 62 58 44 63
5 21 63 62 22 82
5 12 58 5 53 2
5 19 44 26 32 49
4 26 12 2 32
4 44 26 12 58
4 49 32 2 53
5 12 38 18 28 2
4 28 87 16 18
4 38 88 16 18
4 2 12 62 71
4 12 38 88 62
4 71 87 28 2
5 87 71 62 88 16
5 28 53 5 39 18
5 22 52 65 26 25
4 25 22 53 28
4 53 87 48 5
4 58 5 48 88
4 12 72 74 2
4 72 88 58 12
4 53 2 74 87
5 74 87 48 88 72
5 29 19 7 52 54
4 52 12 2 54
4 38 12 52 7
4 28 29 54 2
4 13 18 39 88
4 5 31 71 53
4 5 39 88 31
4 28 74 71 53
5 13 74 71 31 88
5 19 42 32 20 60
5 11 58 12 37 50
4 42 32 37 50
5 20 6 10 3 32
4 10 3 84 31
4 6 89 31 10
4 32 20 46 68
4 6 89 46 20
4 3 84 68 32
5 68 84 31 89 46
5 10 7 19 42 3
4 7 19 61 51
5 12 25 28 61 51
4 25 3 42 28
4 42 19 57 84
4 60 19 57 89
4 32 20 67 78
4 60 20 67 89
4 42 84 78 32
5 67 89 57 84 78
5 34 11 24 49 61
4 6 34 61 20
4 3 24 49 32
4 10 7 89 30
4 19 41 68 42
4 19 7 89 41
4 42 3 78 68
5 30 78 68 41 89
5 38 60 5 31 10
5 37 17 14 53 71
4 17 14 60 38
4 5 31 84 29
4 60 59 66 38
5 3 66 59 29 84
5 0 24 19 61 40
4 19 44 63 24
5 33 36 37 63 44
4 36 33 61 40
4 24 80 7 19
4 67 51 61 40
5 51 67 27 80 7
5 11 52 12 26 45
5 2 54 1 42 32
4 32 42 45 26
5 22 12 26 21 0
4 12 26 55 51
4 12 22 86 51
4 26 55 81 21
5 81 55 51 86 29
5 21 45 11 23 0
4 23 47 58 11
5 38 17 2 47 58
4 21 17 38 45
4 45 81 64 11
4 52 86 64 11
4 26 12 73 77
4 12 52 86 73
4 26 77 81 45
5 64 81 77 73 86
5 1 16 44 58 35
4 35 58 12 22
4 16 21 26 44
4 34 11 45 55
4 23 86 34 11
4 45 21 77 55
5 40 86 34 55 77
5 5 58 38 18 15
4 18 15 87 21
4 15 87 23 5
4 72 38 58 62
5 21 72 62 23 87
5 30 54 68 32 9
4 38 9 30 58
5 32 40 4 6 26
5 29 5 7 45 42
4 7 45 26 6
4 40 32 42 29
4 19 49 90 57
4 19 44 91 57
4 32 78 76 26
4 26 44 91 76
4 49 90 78 32
5 78 90 57 91 76
5 40 4 34 19 49
4 30 91 34 4
4 19 8 69 49
4 8 91 34 19
4 49 69 78 40
5 8 91 30 78 69
5 25 21 45 65 12
4 25 21 49 40
4 4 35 90 40
4 4 6 91 35
4 32 69 63 26
4 26 63 91 6
4 32 69 90 40
5 63 91 35 90 69
5 21 37 12 33 18
5 24 43 52 34 19
4 34 33 12 52
4 24 21 37 43
4 50 11 64 87
4 11 64 92 58
4 12 73 82 37
4 58 92 73 12
4 50 87 82 37
5 87 82 73 92 64
5 39 18 21 50 11
4 14 18 39 92
4 35 71 50 11
4 39 11 35 92
4 50 21 82 71
5 71 82 14 92 35
4 11 52 51 39
5 25 27 52 51 20
4 25 27 50 21
4 33 18 15 92
4 37 12 47 71
4 47 92 33 12
4 37 71 87 21
5 71 87 15 92 47
5 6 10 8 19 60
4 19 29 84 8
4 60 46 67 6
5 46 67 27 84 29
5 14 36 37 69 49
4 36 6 60 14
5 24 0 22 52 11
4 11 24 81 39
4 22 73 51 52
5 51 73 28 81 39
4 11 44 56 24
5 6 36 32 56 44
4 36 6 52 22
5 29 61 20 25 0
4 25 76 6 20
4 57 29 61 34
5 34 6 76 43 57
4 20 38 72 25
5 48 39 38 72 50
4 48 39 61 29
5 30 10 13 32 2
5 11 16 49 53 35
4 30 2 53 35
4 13 32 49 16
4 1 70 85 42
4 54 1 70 89
4 32 79 75 2
4 54 89 75 2
4 32 42 85 79
5 75 89 70 85 79
5 13 10 31 1 42
4 41 59 42 1
4 1 31 89 41
4 42 13 79 59
5 6 79 59 41 89
4 1 53 47 31
5 17 28 53 47 12
4 13 17 28 42
4 59 46 2 32
4 46 2 30 89
4 13 85 59 32
5 46 89 7 85 59
5 4 41 19 44 6
5 2 68 42 13 9
4 9 6 44 13
4 4 22 90 41
4 24 19 41 90
4 63 44 6 76
5 24 90 22 76 63
5 4 33 26 37 22
4 4 33 93 41
4 56 69 37 26
4 33 93 56 26
4 69 37 22 90
5 90 69 56 93 41
5 34 4 22 43 11
5 20 25 3 45 55
4 25 22 43 3
4 11 64 90 43
4 11 64 93 44
4 37 82 77 26
4 44 26 77 93
4 43 90 82 37
5 64 93 77 82 90
5 23 5 39 45 50
4 33 26 45 39
4 23 22 37 50
4 14 93 34 4
4 16 69 43 11
4 16 93 34 11
4 69 43 22 82
5 16 93 14 82 69
4 29 94 47 5
4 5 7 95 47
4 45 72 74 42
4 45 7 95 72
4 42 74 94 29
5 74 94 47 95 72
5 29 28 20 51 5
5 24 21 26 65 11
4 21 28 29 24
4 20 67 94 28
4 38 20 67 95
4 45 80 84 42
4 45 80 95 38
4 28 42 84 94
5 84 94 67 95 80
4 31 95 51 5
4 20 28 74 9
4 20 51 95 9
4 29 84 74 28
5 74 84 31 95 9
5 18 14 2 37 13
4 62 47 2 37
4 2 14 92 47
4 37 62 88 13
5 62 88 39 92 47
5 13 18 15 1 50
5 20 9 27 54 46
4 15 46 54 1
4 9 27 50 13
4 50 88 70 1
4 53 1 70 92
4 37 83 75 2
4 2 53 92 75
4 37 83 88 50
5 88 83 75 92 70
5 41 19 8 43 54
4 14 2 54 41
4 8 43 37 13
4 35 1 50 62
4 1 15 92 35
4 50 62 83 13
5 35 62 83 33 92
5 18 16 11 58 33
5 32 69 43 30 36
4 36 30 58 33
4 16 87 23 11
4 47 58 33 73
5 47 23 87 28 73
5 7 60 20 9 10
5 15 28 74 50 48
4 48 15 60 7
4 9 78 40 20
5 41 57 43 78 40
4 41 57 7 60
5 30 54 1 8 10
4 8 1 49 56
5 36 40 49 56 26
4 36 30 54 40
4 8 85 15 1
4 54 30 75 46
5 15 46 75 38 85
5 12 52 23 0 25
4 25 66 38 12
5 38 66 42 48 7
4 48 23 52 7
4 25 77 33 12
4 64 23 52 34
5 49 77 33 34 64
5 4 35 11 44 33
4 11 35 90 24
4 33 77 56 44
5 56 24 90 40 77
5 17 2 71 50 13
4 17 13 44 33
5 46 5 7 38 20
4 5 46 94 23
4 20 46 94 25
4 38 72 80 7
5 80 72 25 94 23
5 8 1 68 32 13
4 7 38 13 8
5 4 14 32 37 30
5 31 5 15 42 50
4 14 32 42 15
4 31 50 37 30
4 43 91 70 1
4 1 49 93 70
4 32 37 83 79
4 32 49 93 79
4 37 83 91 43
5 70 93 79 83 91
5 41 4 30 43 1
4 16 1 43 63
4 41 1 16 93
4 43 63 83 30
5 63 16 93 33 83
5 3 42 59 20 9
4 30 9 3 43
4 56 63 37 32
4 32 56 93 14
4 37 30 91 63
5 56 63 91 34 93
4 27 12 73 94
4 38 12 73 96
4 45 81 87 50
4 45 38 96 81
4 50 87 94 27
5 94 87 81 96 73
5 5 51 12 27 23
4 5 15 96 51
4 17 12 27 74
4 17 96 51 12
4 27 74 87 23
5 74 87 15 96 17
5 55 19 24 3 26
4 24 3 27 23
4 39 5 46 96
4 66 74 50 45
4 66 96 39 45
4 50 23 94 74
5 66 96 46 94 74
4 20 40 97 66
4 20 66 98 6
4 54 84 80 52
4 52 80 98 6
4 54 40 97 84
5 97 84 80 98 66
5 29 19 55 20 40
4 19 55 98 8
4 9 20 55 98
4 29 84 78 40
5 9 98 8 84 78
5 22 23 11 65 12
4 23 22 40 29
4 29 19 56 97
4 7 19 56 98
4 52 54 78 76
4 52 7 98 76
4 54 29 97 78
5 56 98 76 78 97
5 14 18 16 1 53
4 16 1 31 88
4 14 75 47 53
5 38 75 47 31 88
5 22 43 63 26 36
4 22 53 14 36
5 12 58 39 18 17
4 12 22 82 17
5 49 64 35 22 82
4 35 64 39 58
5 42 48 31 27 74
4 48 31 58 39
5 9 10 31 54 2
4 2 14 79 9
4 41 54 31 70
5 44 70 41 14 79
4 9 2 28 66
5 45 66 28 29 48
4 31 54 29 48
5 24 45 26 25 0
4 26 25 73 33
4 24 64 39 45
5 39 64 53 73 33
4 25 67 6 26
4 24 45 7 57
5 54 67 6 7 57
5 4 35 1 49 14
5 17 21 50 62 12
4 14 49 21 17
4 8 91 35 1
4 14 79 56 49
5 56 8 91 6 79
5 39 5 47 12 38
5 37 13 16 1 71
4 38 13 16 39
4 25 94 47 12
4 38 39 81 66
5 66 81 29 94 25
5 6 20 59 19 7
5 30 31 1 68 2
4 6 30 31 7
4 24 97 59 19
4 25 97 59 20
4 6 7 80 76
5 24 97 25 76 80
4 72 66 42 50
4 15 96 66 42
4 50 72 95 31
5 66 96 51 95 72
5 31 27 2 46 5
5 32 3 8 19 59
4 8 3 27 31
4 27 95 75 2
4 2 75 96 28
4 42 50 88 85
4 42 28 96 85
4 27 50 88 95
5 75 95 88 85 96
4 17 2 27 72
4 2 17 96 46
4 27 72 88 31
5 72 88 39 96 17
4 34 19 59 99
4 67 78 43 52
4 52 34 99 67
4 43 78 97 24
5 78 97 59 99 67
4 3 26 77 97
4 6 99 77 26
4 43 90 86 52
4 52 6 99 86
4 3 43 90 97
5 86 99 77 97 90
4 41 19 55 99
4 36 26 3 78
4 26 36 99 55
4 24 90 78 3
5 78 36 99 41 90
4 23 11 63 100
4 11 39 101 63
4 77 82 53 61
4 61 77 101 39
4 53 23 100 82
5 63 101 77 82 100
4 12 22 100 72
4 12 33 101 72
4 53 87 81 61
4 61 81 101 33
4 22 53 87 100
5 72 100 87 81 101
4 11 16 101 65
4 12 17 101 65
4 23 22 82 87
5 87 82 17 101 16
5 15 18 17 2 53
5 27 72 45 48 23
4 15 53 23 48
4 17 83 30 2
4 53 15 70 35
5 35 30 83 44 70
5 26 44 34 4 36
5 54 78 3 8 57
4 8 57 34 44
4 26 36 82 21
5 21 82 53 64 16
4 16 64 34 44
5 9 10 8 42 32
4 32 40 67 9
4 8 42 29 57
5 52 67 40 29 57
4 32 14 75 9
4 42 15 70 8
5 15 70 58 75 14
5 15 5 47 2 28
4 47 2 9 95
4 28 66 85 15
5 7 85 66 9 95
5 11 62 37 21 16
4 15 16 21 28
5 34 6 26 56 19
4 26 25 97 56
4 6 67 86 34
5 67 86 29 97 25
5 30 35 1 69 37
4 35 30 6 34
5 11 62 12 33 39
4 11 24 100 62
4 25 100 62 12
4 33 39 81 77
5 25 100 24 81 77
5 15 14 2 71 1
4 39 15 14 33
4 32 3 98 79
4 32 79 99 40
4 43 91 89 54
4 40 99 89 54
4 43 3 98 91
5 98 91 89 99 79
4 32 36 76 3
4 36 99 59 32
4 8 91 76 3
5 91 76 36 99 34
4 43 54 67 76
4 54 67 99 41
4 43 76 98 8
5 67 76 98 55 99
4 21 100 76 26
4 33 102 76 26
4 61 86 90 49
4 61 86 102 33
4 49 21 100 90
5 76 100 90 86 102
4 11 35 102 65
4 36 102 65 26
4 24 90 82 21
5 36 102 35 90 82
4 11 34 102 62
4 61 49 82 73
4 61 34 102 73
4 82 49 24 100
5 62 100 82 73 102
4 45 3 97 81
4 7 103 81 45
4 52 86 94 27
4 7 103 86 52
4 27 94 97 3
5 81 103 86 94 97
4 20 46 103 55
4 48 84 3 45
4 48 103 55 45
4 3 84 94 25
5 84 48 103 46 94
4 20 59 103 51
4 57 84 27 52
4 52 51 103 57
4 27 25 97 84
5 59 97 84 57 103
4 2 74 104 30
4 2 14 105 74
4 60 85 88 58
4 60 14 105 85
4 58 30 104 88
5 85 105 74 104 88
4 16 105 68 1
4 17 2 68 105
4 31 30 83 88
5 16 105 17 83 88
4 31 1 69 104
4 1 69 105 15
4 60 58 83 79
4 60 79 105 15
4 58 83 104 31
5 104 83 79 105 69
5 36 4 41 49 32
4 36 32 13 83
4 49 41 70 16
5 58 70 16 13 83
5 3 76 52 57 24
4 57 24 49 41
5 48 5 51 38 45
4 45 48 87 21
5 53 87 21 17 73
4 38 51 73 17
5 54 67 9 3 84
4 9 38 51 67
5 16 50 37 17 18
4 17 37 30 75
4 16 70 31 50
5 60 70 31 30 75
4 17 73 22 37
4 50 23 64 16
5 61 64 23 22 73
5 41 40 32 56 19
5 22 37 63 11 35
4 22 40 41 35
4 32 56 98 9
4 40 41 89 67
5 67 89 7 98 9
5 34 33 26 63 11
5 14 41 1 69 32
4 33 14 41 34
4 25 100 63 26
4 33 34 86 73
5 73 86 23 100 25
5 51 7 45 66 20
5 47 2 74 50 31
4 31 7 51 47
4 66 45 24 97
5 24 97 40 86 57
4 57 7 51 86
4 8 104 71 1
4 2 9 104 71
4 15 14 79 85
5 9 104 8 85 79
4 53 49 77 73
4 35 53 73 102
4 16 101 77 49
5 73 102 65 101 77
4 37 21 101 83
4 37 83 102 22
4 49 93 92 53
4 53 22 102 92
4 49 93 101 21
5 101 93 92 102 83
4 37 21 77 36
4 37 36 102 62
4 16 93 77 21
5 77 93 34 102 36
4 57 80 27 54
4 54 46 103 57
4 27 9 98 80
5 80 57 103 55 98
4 42 3 98 85
4 42 29 103 85
4 27 95 89 54
4 54 29 103 89
4 3 98 95 27
5 85 103 89 95 98
4 48 42 3 80
4 48 103 59 42
4 3 9 95 80
5 80 48 103 51 95
4 41 106 71 1
4 44 83 75 60
4 41 60 75 106
4 8 104 83 44
5 75 106 71 104 83
4 32 78 104 13
4 32 78 106 14
4 44 60 89 91
4 14 60 89 106
4 44 91 104 13
5 104 91 89 106 78
4 35 106 68 1
4 32 68 106 36
4 13 8 91 83
5 83 91 35 106 36
4 51 107 62 12
4 28 61 64 87
4 61 51 107 64
4 28 25 100 87
5 64 107 62 100 87
4 45 80 100 21
4 45 80 107 39
4 28 94 86 61
4 61 86 107 39
4 21 28 94 100
5 80 100 94 86 107
4 47 107 65 12
4 45 48 107 65
4 25 21 87 94
5 48 107 47 94 87
5 36 4 35 43 37
5 21 77 61 64 24
4 24 64 35 43
4 36 79 13 37
4 43 35 70 8
5 70 8 13 79 60
5 46 28 42 48 5
5 52 80 3 25 67
4 28 46 67 25
4 42 13 88 48
5 58 75 17 13 88
4 17 75 46 28
5 52 6 55 19 57
5 27 84 42 66 9
4 6 9 66 55
4 57 90 22 52
5 77 36 22 90 49
4 36 77 55 6
4 17 101 63 37
4 22 35 92 73
5 92 73 17 101 39
5 46 29 42 66 20
4 8 98 66 42
5 6 89 57 8 98
4 46 89 57 29
5 23 47 12 72 50
4 47 23 29 46
4 9 104 69 32
4 14 41 89 75
5 9 104 31 89 75
5 51 12 72 45 39
4 45 72 100 24
5 24 100 22 86 64
4 51 86 64 39
5 46 2 74 42 15
4 39 51 46 15
5 55 7 52 67 20
4 23 94 67 52
5 23 94 28 81 48
4 7 48 81 55
5 56 8 43 78 32
4 55 7 8 56
4 37 13 105 82
4 30 106 82 37
4 58 44 93 92
4 30 58 92 106
4 44 13 105 93
5 82 105 93 92 106
4 37 71 106 36
4 13 79 93 16
5 41 106 36 79 93
4 44 79 75 58
4 58 75 106 35
4 44 79 105 16
5 75 79 105 68 106
4 21 50 88 101
4 50 23 107 88
4 53 28 96 92
4 53 23 107 92
4 21 28 96 101
5 88 101 96 92 107
4 48 81 21 50
4 48 107 62 50
4 21 81 96 17
5 96 81 48 107 51
4 53 28 81 64
4 64 107 47 53
4 28 81 101 17
5 101 81 64 107 65
4 13 42 84 104
4 15 42 84 108
4 60 89 95 38
4 15 60 89 108
4 13 38 95 104
5 104 95 89 108 84
4 2 47 108 68
4 42 48 108 68
4 13 88 95 9
5 47 108 48 88 95
4 2 46 108 71
4 38 88 70 60
4 60 70 108 46
4 38 9 104 88
5 104 88 70 108 71
4 22 100 80 52
4 52 34 109 80
4 61 40 97 81
4 34 61 81 109
4 22 40 97 100
5 81 109 80 100 97
4 56 109 65 26
4 57 109 65 52
4 25 22 90 97
5 56 109 57 90 97
4 55 109 63 26
4 61 64 90 40
4 61 55 109 64
4 25 40 90 100
5 64 109 63 100 90
5 48 5 47 27 50
4 50 13 85 48
5 13 85 60 75 9
4 47 27 9 75
5 25 21 81 61 73
4 27 25 73 47
5 59 19 57 54 40
4 54 57 91 30
5 44 91 30 36 79
4 40 59 79 36
5 25 66 45 80 27
4 25 66 59 40
5 64 11 65 33 61
5 36 76 43 90 40
4 36 33 65 76
5 50 87 28 17 72
4 17 72 65 33
4 17 37 69 105
4 30 75 92 35
5 75 92 15 105 17
4 50 72 101 16
5 64 16 101 33 92
4 23 47 92 64
5 54 29 59 20 67
5 56 24 43 76 26
4 29 59 56 24
4 54 67 95 31
5 48 31 95 38 85
4 48 85 59 29
4 42 74 104 8
5 89 70 8 104 30
4 46 89 70 15
5 34 55 26 76 52
5 41 59 32 78 54
4 34 41 59 55
4 23 100 76 52
5 64 81 21 100 23
4 55 34 64 81
5 65 12 73 61 39
5 63 16 49 82 37
4 16 63 65 39
4 61 73 94 29
5 29 48 80 27 94
4 39 48 80 65
4 58 38 85 70
4 58 70 108 47
4 17 105 85 38
5 68 105 85 70 108
4 13 50 87 105
4 50 87 108 31
4 38 96 92 58
4 58 31 108 92
4 13 105 96 38
5 92 108 87 105 96
4 48 108 71 50
4 13 85 96 17
5 96 85 48 108 46
4 49 40 86 64
4 49 64 109 56
4 40 86 102 36
5 64 109 65 102 86
4 43 91 102 22
4 24 109 91 43
4 49 40 99 93
4 24 109 93 49
4 22 102 99 40
5 91 102 99 93 109
4 43 57 86 22
4 43 63 109 57
4 36 99 86 22
5 86 99 55 109 57
4 59 32 69 110
4 60 6 91 70
4 60 59 110 70
4 6 91 104 9
5 69 110 70 91 104
4 54 30 104 84
4 54 84 110 41
4 6 98 85 60
4 60 85 110 41
4 6 98 104 30
5 85 110 84 104 98
4 56 32 68 110
4 54 57 110 68
4 30 91 98 9
5 57 110 56 98 91
4 45 72 111 55
4 73 111 55 61
4 29 24 100 94
5 94 100 72 111 73
4 52 76 111 51
4 61 77 97 29
4 61 51 111 77
4 29 97 100 23
5 77 111 76 100 97
4 45 65 111 66
4 65 52 67 111
4 23 94 97 24
5 67 111 66 97 94
5 3 43 57 19 56
5 61 77 25 22 86
4 3 56 77 25
4 30 89 57 43
5 9 79 60 89 30
4 3 56 79 9
5 62 22 53 64 11
5 25 72 45 81 28
4 25 22 62 72
4 14 93 64 53
5 36 83 44 93 14
4 36 83 62 22
5 68 14 60 70 1
5 17 74 50 88 38
4 14 17 74 68
5 43 91 6 36 78
4 14 36 78 68
4 74 50 16 105
5 92 70 16 105 14
4 47 92 70 31
4 76 43 35 102
5 33 102 35 64 93
4 24 64 93 56
5 53 73 12 62 23
4 53 73 96 15
5 88 48 15 96 38
4 48 88 62 23
5 63 24 49 77 26
4 62 23 24 63
4 31 54 78 104
5 13 104 31 70 85
4 59 85 70 41
5 61 34 65 26 77
5 57 80 3 97 29
4 57 80 65 34
5 35 62 37 82 53
4 34 65 62 35
5 52 51 55 45 80
5 73 77 21 100 22
4 51 55 77 73
5 46 59 42 84 54
4 46 59 55 51
5 68 15 60 75 2
4 60 75 95 7
5 7 95 27 84 48
4 15 68 84 48
5 16 69 37 83 44
4 68 15 16 69
4 43 90 106 30
4 43 8 110 90
4 44 6 99 93
4 8 44 93 110
4 6 30 106 99
5 90 106 99 93 110
4 43 69 110 57
4 36 99 89 30
5 59 99 89 57 110
4 6 44 70 89
4 70 110 56 44
4 36 106 89 6
5 70 110 68 106 89
4 27 95 107 23
4 27 25 111 95
4 29 28 96 103
4 28 25 111 96
4 29 23 107 103
5 95 111 96 103 107
4 23 86 67 27
4 27 67 111 72
4 86 23 48 103
5 67 111 55 103 86
4 28 73 86 29
4 73 111 66 28
4 29 86 107 48
5 73 111 65 107 86
4 53 14 105 87
4 35 53 87 112
4 58 33 101 88
4 58 88 112 35
4 14 33 101 105
5 101 105 87 112 88
4 37 71 112 63
4 53 71 112 64
4 14 93 101 17
5 93 101 63 112 64
4 37 69 112 62
4 58 70 93 33
4 58 62 112 70
4 17 33 93 105
5 69 112 70 93 105
4 54 46 113 78
4 7 98 79 60
4 60 46 113 79
4 7 98 104 31
5 79 113 78 104 98
4 42 66 113 68
4 67 113 68 54
4 8 98 95 31
5 95 98 66 113 67
4 59 42 74 113
4 60 75 113 59
4 8 7 95 104
5 74 113 75 95 104
5 11 64 49 21 63
4 14 92 64 49
5 58 92 14 17 83
4 21 63 83 17
5 52 86 40 25 76
4 76 25 21 63
5 3 27 67 20 66
5 60 89 31 8 85
4 31 89 67 27
4 66 3 8 85
5 61 81 24 23 86
4 24 81 66 3
5 58 70 1 71 30
5 33 93 49 82 36
4 30 36 82 71
5 74 9 38 85 42
4 71 30 9 74
4 35 106 78 43
5 35 106 14 93 70
4 8 70 93 56
4 77 49 41 99
5 6 91 57 41 99
4 24 63 91 57
4 47 107 80 27
5 47 107 39 96 73
4 25 66 96 73
5 58 31 71 2 75
5 44 79 32 69 8
4 8 69 71 31
4 58 75 96 39
5 87 48 39 96 28
4 48 87 71 31
4 15 53 82 105
5 88 70 15 105 13
4 62 88 70 35
5 75 79 13 104 30
4 46 59 79 75
5 41 68 32 79 60
5 35 71 37 83 58
4 41 35 71 68
5 57 84 3 98 7
4 41 68 84 57
5 65 51 61 81 45
5 53 87 50 62 47
4 62 47 51 65
5 40 97 3 76 67
4 65 51 67 76
4 33 92 70 44
4 44 70 112 63
4 36 106 92 33
5 70 112 71 106 92
4 14 49 90 106
4 49 16 112 90
4 44 33 102 91
4 44 91 112 16
4 33 14 106 102
5 106 102 91 112 90
4 49 69 112 64
4 14 92 102 36
5 102 92 64 112 62
4 7 89 75 38
4 38 75 113 66
4 48 108 89 7
5 89 108 68 113 75
4 27 31 108 94
4 27 94 113 9
4 38 96 103 7
4 38 9 113 96
4 31 108 103 7
5 94 113 96 103 108
4 27 67 113 74
4 48 103 89 31
5 89 103 59 113 67
4 40 77 81 29
4 40 67 111 77
4 81 29 57 109
5 77 81 109 65 111
4 24 109 98 3
4 25 111 98 3
4 40 29 103 99
4 25 111 99 40
4 24 29 103 109
5 98 109 103 99 111
4 76 3 66 111
4 81 24 57 103
5 81 66 111 51 103
4 62 114 74 50
4 62 58 75 114
4 39 96 105 16
5 105 96 75 114 74
4 47 53 82 114
4 58 39 101 83
4 47 58 83 114
4 39 101 105 15
5 105 101 83 114 82
4 72 114 71 50
4 73 114 71 53
4 16 101 96 15
5 101 96 73 114 72
5 1 70 44 13 69
5 9 6 89 54 78
4 13 69 78 9
5 82 17 33 92 53
4 69 13 17 82
5 21 72 12 73 28
5 29 24 80 52 86
4 21 24 80 72
5 88 16 15 92 58
4 15 92 73 28
4 16 21 72 88
4 49 82 106 41
5 41 106 30 91 70
4 63 16 70 91
4 47 108 84 27
5 15 96 75 47 108
4 9 75 96 66
4 34 99 79 44
5 34 99 40 90 57
4 57 90 69 8
4 28 46 103 81
5 7 103 46 67 95
4 72 25 67 95
4 3 80 109 56
5 77 99 34 109 56
4 67 99 77 25
5 87 64 39 101 21
4 71 35 64 87
5 13 105 14 75 83
4 47 62 83 75
5 68 46 60 85 42
5 78 67 6 98 3
4 67 78 68 46
5 47 58 88 50 71
4 47 71 68 46
5 52 86 61 55 65
5 27 94 28 66 72
4 72 66 55 65
5 56 49 90 43 63
4 56 63 65 55
4 28 94 108 15
4 17 28 94 114
4 38 95 107 39
4 17 38 95 114
4 39 107 108 15
5 107 108 94 114 95
4 28 74 114 73
4 15 48 107 92
5 62 114 73 92 107
4 38 75 92 39
4 38 72 114 75
4 39 92 108 48
5 71 114 75 92 108
4 8 110 97 3
4 3 97 113 9
4 7 103 99 6
4 6 99 113 9
4 8 110 103 7
5 99 113 97 110 103
4 3 66 113 78
4 57 8 85 103
5 103 85 66 113 46
4 6 79 85 7
4 6 79 113 67
4 7 85 110 57
5 85 110 68 113 79
4 24 109 101 21
4 21 101 111 25
4 23 107 102 22
4 22 25 111 102
4 24 109 107 23
5 102 111 101 109 107
4 21 72 111 77
4 24 80 107 64
5 80 107 51 111 72
4 23 80 76 22
4 73 111 76 22
4 80 23 64 109
5 109 80 76 111 55
4 49 82 115 56
4 34 102 83 44
4 56 115 83 44
4 41 106 102 34
5 83 115 82 106 102
4 43 76 115 69
4 69 49 77 115
4 41 99 102 35
5 76 102 99 77 115
4 63 115 78 43
4 63 44 79 115
4 35 106 99 34
5 99 106 78 115 79
5 38 13 74 2 75
5 16 39 92 53 87
4 16 87 74 13
5 84 8 7 89 54
4 13 8 84 74
5 40 77 26 76 22
5 91 35 41 93 44
4 40 77 93 41
4 35 91 76 22
5 29 23 80 45 81
5 22 102 34 64 90
4 69 16 64 90
4 28 87 108 46
5 46 75 95 31 108
4 72 95 75 17
4 84 3 56 110
5 56 110 41 99 79
4 67 99 79 9
4 51 103 85 38
5 51 67 94 29 103
4 67 94 74 9
4 40 59 103 86
5 59 103 7 98 66
4 66 25 76 98
4 63 109 81 21
5 63 109 34 102 76
4 73 102 76 25
5 73 82 21 101 33
4 71 47 73 82
5 83 79 14 106 30
4 63 83 79 56
5 59 60 89 54 68
5 44 56 69 43 91
4 59 68 69 56
5 38 95 27 74 66
4 66 74 68 59
4 34 93 79 6
4 79 115 76 6
4 57 110 93 34
5 69 110 93 79 115
4 41 110 97 40
4 36 115 97 40
4 6 34 109 98
4 6 36 115 98
4 41 110 109 34
5 109 110 97 115 98
4 40 77 115 78
4 41 93 109 57
5 77 93 109 63 115
4 33 39 88 83
4 33 73 114 83
4 64 112 88 39
5 83 88 112 71 114
4 21 16 112 100
4 17 21 100 114
4 33 39 107 102
4 33 102 114 17
4 16 112 107 39
5 100 114 102 107 112
4 82 21 72 114
4 64 16 88 107
5 47 107 88 72 114
4 30 31 84 78
4 75 113 78 30
4 70 31 84 110
5 59 113 78 84 110
4 13 8 110 105
4 13 9 113 105
4 30 106 108 31
4 9 113 106 30
4 8 31 108 110
5 108 110 105 113 106
4 79 13 74 113
4 8 70 108 84
5 46 108 84 74 113
4 72 27 84 116
4 72 116 85 38
4 51 47 108 103
5 84 108 103 85 116
4 28 87 116 66
4 38 88 107 51
4 38 66 116 88
4 51 46 108 107
5 87 116 88 107 108
4 80 116 74 27
4 74 28 81 116
4 46 47 107 103
5 81 116 80 107 103
5 6 79 32 78 30
5 7 85 42 84 31
5 49 93 34 35 90
4 30 35 90 78
5 47 95 38 96 46
4 29 81 96 46
4 23 80 95 47
5 51 107 23 94 73
4 17 74 94 73
4 59 110 90 40
5 79 98 8 110 59
4 36 79 98 76
4 63 112 87 21
5 63 112 35 102 83
4 17 73 102 83
4 6 89 103 55
5 97 66 55 103 29
4 9 78 97 66
4 62 22 86 107
5 101 72 62 107 39
4 25 77 101 72
5 98 56 59 99 6
4 59 99 86 29
4 24 56 98 80
4 13 69 110 85
5 78 106 41 110 69
4 9 78 106 75
5 77 82 22 102 33
4 56 69 82 77
5 85 88 31 108 15
4 72 66 85 88
5 58 92 53 71 62
5 38 96 28 74 72
4 72 74 71 62
5 49 93 44 63 69
4 62 71 69 63
4 22 35 112 100
4 22 100 115 36
4 33 101 109 34
4 36 115 101 33
4 34 109 112 35
5 109 112 100 115 101
4 22 82 115 76
4 35 64 109 91
5 91 109 56 115 76
4 34 91 83 33
4 33 77 115 83
4 34 91 112 64
5 112 91 83 115 69
4 46 113 97 29
4 48 29 97 116
4 51 111 98 7
4 7 48 116 98
4 51 46 113 111
5 113 111 98 116 97
4 81 116 84 29
4 46 96 111 67
5 72 116 81 96 111
4 51 96 85 7
4 7 85 116 80
4 51 67 113 96
5 96 113 74 116 85
4 16 13 104 112
4 13 17 114 104
4 15 14 106 108
4 17 14 106 114
4 16 112 108 15
5 108 112 104 114 106
4 74 13 83 114
4 16 70 108 87
5 74 114 47 108 87
4 15 14 82 87
4 75 114 82 14
4 70 112 87 15
5 112 87 82 114 62
4 67 117 90 40
4 55 109 91 6
4 67 117 91 6
4 59 110 109 55
5 90 110 109 91 117
4 3 78 117 80
4 78 40 86 117
4 59 56 109 103
5 86 117 80 109 103
4 76 3 84 117
4 76 6 89 117
4 56 55 103 110
5 89 117 84 110 103
5 33 14 82 37 83
5 90 41 34 91 43
4 41 90 82 14
5 87 15 39 88 50
5 47 51 96 28 94
4 47 94 84 31
5 24 109 55 77 97
4 36 77 97 78
4 62 22 90 112
5 83 101 16 112 62
4 77 36 83 101
4 29 59 113 94
5 59 85 98 9 113
4 80 98 85 48
4 88 13 69 112
5 82 106 35 112 69
4 75 106 82 17
4 65 107 92 33
5 65 72 100 23 107
4 72 100 82 17
5 97 56 55 99 40
4 55 7 89 99
4 56 97 84 8
4 89 30 71 108
5 15 105 74 71 108
4 9 79 105 74
5 33 101 63 62 102
4 23 62 102 86
4 63 101 81 24
5 6 76 78 40 99
4 63 69 78 76
5 81 87 23 107 39
4 66 81 87 74
5 41 110 8 91 89
4 67 76 91 89
4 79 115 82 14
4 70 41 90 112
5 112 90 82 115 63
4 30 104 112 35
4 30 104 115 36
4 14 41 110 105
4 36 115 105 14
4 35 112 110 41
5 104 115 105 110 112
4 83 115 78 30
4 70 35 90 110
5 90 110 56 115 78
4 39 51 95 88
4 39 81 116 88
4 73 51 95 114
5 74 116 88 95 114
4 47 114 100 23
4 48 23 100 116
4 51 39 101 111
4 48 116 101 39
4 51 47 114 111
5 101 116 100 114 111
4 87 23 80 116
4 73 47 95 111
5 95 111 66 116 80
4 80 117 89 7
4 66 113 99 55
5 78 117 89 99 113
4 57 117 94 29
4 55 111 95 7
4 7 57 117 95
4 55 59 113 111
5 94 113 111 95 117
4 86 29 84 117
4 59 99 111 66
5 76 117 86 99 111
4 21 87 118 77
4 33 92 118 77
4 63 65 107 112
5 107 112 87 118 92
4 73 22 90 118
4 33 93 109 65
4 73 118 93 33
4 65 109 112 62
5 90 118 93 109 112
4 21 82 118 81
4 22 86 118 82
4 62 63 109 107
5 107 109 81 118 86
5 51 46 94 27 95
4 46 94 87 15
5 24 109 65 76 100
4 36 82 100 76
5 55 111 25 97 81
4 84 48 81 97
4 71 112 91 30
5 16 112 71 82 105
4 36 82 105 79
4 62 114 94 23
5 62 114 17 101 88
4 48 81 101 88
5 46 113 9 95 89
4 80 95 89 57
4 68 14 92 108
5 104 74 68 108 31
4 17 74 104 83
5 100 63 65 102 22
4 39 92 102 65
4 16 63 100 87
5 105 69 71 106 14
4 71 31 89 106
4 69 105 85 8
5 7 103 29 84 80
4 84 80 72 74
5 34 109 24 90 86
4 67 78 90 86
5 92 93 16 112 35
4 77 93 92 73
4 47 114 104 31
4 48 116 104 31
4 46 15 105 113
4 48 15 105 116
4 46 113 114 47
5 105 116 104 114 113
4 31 84 116 88
4 75 113 94 47
5 66 116 84 94 113
4 15 85 116 87
4 46 75 114 94
5 87 116 72 114 94
4 24 56 115 100
4 24 100 117 57
4 55 111 102 34
4 34 102 117 57
4 55 111 115 56
5 100 115 111 102 117
4 24 90 117 80
4 77 111 98 56
5 111 98 80 117 67
4 55 34 91 98
4 86 117 91 34
4 77 55 98 115
5 98 115 78 117 91
4 64 23 94 118
4 65 39 96 111
4 39 96 118 64
4 65 111 114 62
5 114 111 96 118 94
4 87 23 86 118
4 72 111 102 62
5 77 111 102 86 118
4 92 39 81 118
4 65 72 114 102
5 82 118 92 102 114
4 30 91 119 75
4 14 93 110 68
4 14 93 119 75
4 68 110 112 71
5 91 119 93 110 112
4 13 83 119 85
4 30 89 119 83
4 69 110 108 71
5 108 110 85 119 89
4 13 88 119 79
4 79 14 92 119
4 68 69 112 108
5 88 112 108 92 119
5 55 59 97 3 98
4 59 41 90 97
5 78 104 8 110 68
4 36 83 104 78
5 100 80 65 111 25
4 48 80 100 87
5 51 111 25 94 86
4 84 57 86 94
4 71 114 95 31
5 71 114 17 105 87
4 48 85 105 87
4 24 63 115 97
5 102 91 63 115 36
4 86 102 91 57
5 92 96 17 114 47
4 81 96 92 64
5 30 106 68 69 104
4 68 15 92 106
4 69 104 88 16
5 65 62 100 21 101
4 34 65 101 93
4 62 35 90 100
4 84 80 76 78
4 82 73 86 90
4 75 92 93 79
4 89 117 90 41
4 59 97 115 79
5 115 97 90 117 76
4 8 56 115 104
4 8 104 117 57
4 41 59 113 106
4 41 106 117 57
4 56 115 113 59
5 113 115 104 117 106
4 8 91 117 84
4 79 113 97 56
5 97 113 67 117 84
4 86 118 93 34
4 65 101 115 76
5 82 118 93 101 115
4 64 118 97 24
4 34 65 111 99
4 64 118 99 34
4 65 63 115 111
5 115 111 99 118 97
4 24 81 118 90
4 63 101 111 76
5 101 111 73 118 81
4 51 55 98 95
4 86 117 95 51
4 55 98 116 81
5 98 116 84 117 95
4 25 100 116 66
4 25 67 117 100
4 51 107 109 55
4 51 67 117 107
4 55 66 116 109
5 109 116 100 117 107
4 25 94 117 76
4 81 66 98 109
5 57 117 76 98 109
4 85 119 92 15
4 74 68 106 114
5 114 106 92 119 83
4 70 119 95 31
4 15 96 113 68
4 15 70 119 96
4 68 71 114 113
5 114 113 96 119 95
4 88 119 89 31
4 74 71 106 113
5 89 106 113 79 119
4 46 94 97 59
5 9 113 68 84 104
4 84 104 88 48
4 80 100 90 57
4 64 86 94 87
4 8 69 115 98
5 90 106 36 115 69
4 57 90 106 89
5 56 93 99 36 115
4 86 64 93 99
4 25 72 116 97
5 72 116 48 107 95
4 86 67 95 107
4 70 92 96 85
5 104 71 68 105 13
4 41 93 105 68
4 35 71 104 91
4 65 101 96 51
4 62 100 94 47
4 87 81 77 82
4 75 89 91 83
4 63 115 105 16
4 64 16 105 118
4 62 114 106 35
4 35 106 118 64
4 63 115 114 62
5 115 114 106 118 105
4 87 118 93 16
4 83 114 100 63
5 87 100 114 73 118
4 92 35 90 118
4 62 83 115 100
5 100 115 77 118 90
4 9 104 116 66
4 9 104 117 67
4 46 108 110 59
4 67 117 108 46
4 59 110 116 66
5 104 116 110 108 117
4 78 117 95 9
4 85 110 97 66
5 57 117 78 97 110
4 46 89 117 94
4 59 97 116 85
5 80 117 94 97 116
4 8 98 119 70
4 68 113 99 41
4 70 119 99 41
4 68 113 115 69
5 115 113 99 119 98
4 85 119 91 8
4 69 105 113 78
5 113 105 85 119 75
4 93 41 89 119
4 78 68 105 115
5 83 119 93 105 115
4 25 73 118 97
4 65 51 103 109
4 51 103 118 73
4 65 109 116 72
5 103 118 97 116 109
4 25 77 118 94
4 72 101 109 80
5 77 101 109 64 118
4 51 86 118 96
4 65 101 116 80
5 96 118 87 116 101
4 91 57 84 104
4 64 90 97 81
4 76 100 94 67
4 70 89 95 88
4 69 115 101 16
4 92 106 90 64
4 74 9 98 116
5 94 108 48 116 74
4 67 94 108 89
4 89 99 93 70
5 103 96 66 116 48
4 86 103 96 73
4 46 68 105 96
4 71 47 95 104
4 55 99 102 65
4 56 97 100 63
4 85 88 83 79
4 35 91 119 92
4 71 82 115 104
5 91 119 79 115 104
4 70 16 101 119
4 71 114 102 35
4 35 102 119 70
4 69 115 114 71
5 101 119 102 114 115
4 16 88 119 93
4 69 104 114 82
5 104 114 75 119 88
4 47 94 118 92
4 62 100 116 88
5 81 116 100 94 118
4 72 17 105 116
4 17 105 118 73
4 62 47 108 112
4 73 118 108 47
4 72 116 112 62
5 108 118 105 116 112
4 17 82 118 96
4 72 100 112 88
5 112 100 82 118 64
4 46 96 119 89
4 68 84 116 105
5 88 119 96 105 116
4 9 98 119 75
4 46 103 110 68
4 75 119 103 46
4 68 110 116 74
5 116 110 103 119 98
4 79 119 95 9
4 84 110 105 74
5 79 119 70 110 105
4 55 99 118 81
4 80 65 102 117
5 117 102 99 118 90
4 65 55 103 107
4 77 55 103 118
4 76 65 107 117
5 117 107 103 118 94
5 73 102 107 64 118
4 80 107 102 76
4 64 93 105 87
4 67 78 104 95
4 85 98 91 70
4 77 97 94 73
4 72 66 97 100
4 70 92 102 91
4 74 116 101 17
4 73 94 108 92
4 75 89 103 96
5 99 103 57 117 67
4 77 81 103 99
4 59 68 106 99
4 69 56 98 104
4 17 101 119 75
4 47 107 112 71
4 47 107 119 75
4 71 74 116 112
5 112 116 101 119 107
4 17 83 119 96
4 87 74 104 112
5 70 119 83 104 112
4 92 119 95 47
4 71 87 116 104
5 104 116 85 119 95
4 36 106 117 76
4 77 118 106 36
4 56 63 112 110
4 56 77 118 110
4 63 76 117 112
5 112 117 106 118 110
4 36 99 118 82
4 76 100 112 91
4 56 97 118 93
4 63 100 117 91
5 117 100 97 118 86
4 68 59 103 108
4 79 119 103 59
4 68 78 117 108
5 117 108 103 119 95
5 70 119 75 106 108
4 78 106 108 84
4 59 85 119 99
4 84 68 106 117
5 99 119 91 117 106
4 88 101 93 70
4 73 96 105 82
4 66 98 104 74
4 79 75 95 98
4 75 92 107 95
4 36 102 117 78
4 93 110 97 77
4 85 103 99 79
4 62 71 106 102
4 63 69 105 101
4 56 93 119 98
4 69 90 117 104
5 98 119 89 117 104
4 36 102 119 79
4 56 109 112 69
4 79 56 109 119
4 69 112 117 78
5 112 117 102 119 109
4 83 36 99 119
4 90 112 104 78
4 66 97 118 96
4 72 95 117 100
4 80 48 108 117
4 81 118 108 48
4 72 66 113 114
4 66 113 118 81
4 80 117 114 72
5 117 114 113 118 108
4 87 48 103 118
4 80 95 114 100
4 88 119 102 62
4 71 106 118 87
5 93 118 106 102 119
4 71 108 107 62
4 62 107 119 83
4 71 82 118 108
5 96 119 107 108 118
4 82 106 108 87
4 83 101 96 75
4 77 82 106 99
4 72 101 105 74
4 79 98 109 93
4 48 84 117 107
4 96 113 97 81
4 83 88 107 102
4 69 63 109 110
4 83 119 109 63
4 82 69 110 118
5 99 118 110 109 119
4 90 82 105 110
4 91 63 101 119
4 90 69 105 118
5 101 119 92 118 105
4 48 85 119 107
4 66 74 114 111
4 85 66 111 119
4 74 114 117 84
5 111 119 107 117 114
4 88 119 103 48
4 84 104 114 94
4 96 66 98 119
4 94 74 104 117
4 80 57 110 116
4 86 118 110 57
4 76 67 113 115
4 67 113 118 86
4 80 76 115 116
5 110 116 115 113 118
4 57 90 118 103
4 98 80 100 115
4 94 118 99 67
4 98 116 100 76
4 79 99 102 83
4 78 106 102 76
4 81 87 108 103
4 91 109 101 83
4 96 111 98 85
4 57 84 116 109
4 86 94 113 99
4 95 72 101 119
4 74 105 118 94
4 74 113 111 72
4 72 111 119 88
4 74 87 118 113
5 118 113 111 119 103
4 87 105 113 94
4 95 67 99 119
4 78 97 116 104
4 89 119 109 57
4 78 115 111 67
4 67 89 119 111
4 78 115 116 84
5 109 116 115 111 119
4 91 119 103 57
4 84 104 115 97
4 94 117 102 73
4 97 77 101 116
4 81 64 112 116
4 86 64 112 117
4 73 77 115 114
4 73 114 117 86
4 77 81 116 115
5 112 117 114 115 116
4 90 64 107 117
4 97 81 101 115
4 85 88 107 103
4 80 107 108 84
4 86 90 110 103
4 88 101 111 95
4 95 89 99 111
4 87 116 109 64
4 102 114 94 86
4 76 78 113 111
4 91 76 111 119
4 90 78 113 118
4 97 113 106 90
4 98 119 102 76
4 78 97 118 106
4 92 64 109 119
4 82 115 111 73
4 73 111 119 92
4 87 82 115 116
4 64 107 119 93
4 100 115 105 87
4 73 96 119 102
4 82 105 116 100
4 70 85 116 112
4 89 117 112 70
4 79 115 114 75
4 89 117 114 75
4 79 115 116 85
4 70 91 117 108
4 85 98 115 105
4 95 75 106 117
4 79 98 116 105
4 89 91 109 103
4 80 84 110 109
4 86 107 112 90
4 98 91 102 111
4 92 96 111 102
4 70 110 116 88
4 89 95 114 106
4 77 101 119 99
4 82 100 117 106
4 77 111 114 82
4 77 93 119 111
4 90 82 114 117
4 100 114 106 90
4 98 80 107 119
4 97 118 108 84
4 80 109 119 95
4 94 118 110 84
4 97 110 108 94
4 75 96 118 106
4 101 83 104 116
4 92 118 110 70
4 83 115 113 75
4 92 75 113 118
4 88 83 115 116
4 70 108 118 93
4 88 104 115 101
4 92 93 109 107
4 81 87 112 109
4 91 112 108 89
4 93 99 111 101
4 95 107 109 98
4 92 106 113 96
4 83 79 113 114
4 79 113 118 93
4 83 114 117 91
4 91 102 114 104
4 99 118 105 79
4 104 117 102 83
4 96 81 109 119
4 87 112 117 94
4 94 100 112 108
4 81 101 119 103
4 100 87 108 117
4 93 92 108 110
4 88 85 110 112
4 93 99 113 105
4 96 103 109 101
4 85 105 118 103
4 104 88 107 117
4 85 110 118 96
4 88 95 117 112
4 104 112 107 95
4 102 119 103 86
4 90 110 116 100
4 86 99 119 107
4 97 116 112 90
4 100 112 110 97
4 103 96 105 110
4 103 99 102 107
4 89 108 118 99
4 98 91 112 116
4 98 109 112 104
4 106 89 103 118
4 104 91 109 116
4 94 97 115 114
4 97 113 114 100
4 100 115 113 94
4 106 108 103 99
4 92 107 117 106
4 93 109 116 105
4 102 92 108 117
4 101 116 110 93
4 105 110 109 101
4 104 115 111 95
4 95 114 115 98
4 104 114 111 98
4 106 108 107 102
4 101 115 113 96
4 101 105 113 111
4 105 96 111 115
4 99 106 114 111
4 102 114 113 99
4 106 113 111 102
4 103 107 112 110
4 107 109 110 108
4 103 109 112 108

# Cells
7 0 1 2 3 4 5 6
7 7 8 9 10 11 12 13
7 14 15 16 17 18 19 20
7 21 22 23 24 25 26 27
7 14 28 29 30 31 32 33
7 34 35 36 37 38 39 40
7 41 42 43 44 45 46 47
7 7 48 49 50 51 52 53
7 21 54 55 56 57 58 59
7 34 60 61 62 63 64 65
7 41 66 67 68 69 70 71
7 0 72 73 74 75 76 77
7 78 79 80 81 82 83 84
7 85 86 87 88 89 90 91
7 85 92 93 94 95 96 97
7 98 99 100 101 102 103 104
7 98 105 106 107 108 109 110
7 78 111 112 113 114 115 116
7 117 118 119 120 121 122 123
7 124 125 126 127 128 129 130
7 131 132 133 134 135 136 137
7 117 138 139 140 141 142 143
7 124 144 145 146 147 148 149
7 131 150 151 152 153 154 155
7 156 157 158 159 160 161 162
7 163 164 165 166 167 168 169
7 163 170 171 172 173 174 175
7 176 177 178 179 180 181 182
7 176 183 184 185 186 187 188
7 157 189 190 191 192 193 194
7 156 183 195 196 197 198 199
7 200 201 202 203 204 205 206
7 200 207 208 209 210 211 212
7 213 214 215 216 217 218 219
7 158 213 220 221 222 223 224
7 195 225 226 227 228 229 230
7 231 232 233 234 235 236 237
7 238 239 240 241 242 243 244
7 208 245 246 247 248 249 250
7 232 251 252 253 254 255 256
7 207 221 238 257 258 259 260
7 245 261 262 263 264 265 266
7 231 247 267 268 269 270 271
7 272 273 274 275 276 277 278
7 145 233 279 280 281 282 283
7 267 284 285 286 287 288 289
7 132 144 272 290 291 292 293
7 279 294 295 296 297 298 299
7 184 246 300 301 302 303 304
7 280 300 305 306 307 308 309
7 118 134 310 311 312 313 314
7 315 316 317 318 319 320 321
7 170 185 315 322 323 324 325
7 326 327 328 329 330 331 332
7 119 171 306 326 333 334 335
7 310 336 337 338 339 340 341
7 79 105 342 343 344 345 346
7 347 348 349 350 351 352 353
7 234 257 347 354 355 356 357
7 358 359 360 361 362 363 364
7 80 214 235 358 365 366 367
7 342 368 369 370 371 372 373
7 220 333 374 375 376 377 378
7 133 248 359 374 379 380 381
7 159 172 382 383 384 385 386
7 387 388 389 390 391 392 393
7 93 173 216 394 395 396 397
7 382 398 399 400 401 402 403
7 92 107 387 404 405 406 407
7 394 408 409 410 411 412 413
7 106 258 294 414 415 416 417
7 301 395 414 418 419 420 421
7 311 322 422 423 424 425 426
7 427 428 429 430 431 432 433
7 61 150 323 434 435 436 437
7 422 438 439 440 441 442 443
7 42 60 427 444 445 446 447
7 375 434 448 449 450 451 452
7 135 186 408 453 454 455 456
7 222 281 453 457 458 459 460
7 81 94 461 462 463 464 465
7 466 467 468 469 470 471 472
7 120 146 466 473 474 475 476
7 454 477 478 479 480 481 482
7 95 121 296 361 477 483 484
7 461 485 486 487 488 489 490
7 22 44 491 492 493 494 495
7 496 497 498 499 500 501 502
7 268 290 496 503 504 505 506
7 457 507 508 509 510 511 512
7 23 152 269 507 513 514 515
7 491 516 517 518 519 520 521
7 302 365 522 523 524 525 526
7 108 160 327 479 522 527 528
7 305 513 529 530 531 532 533
7 43 177 312 529 534 535 536
7 1 66 505 537 538 539 540
7 541 542 543 544 545 546 547
7 383 404 493 504 541 548 549
7 418 550 551 552 553 554 555
7 2 99 384 550 556 557 558
7 530 537 559 560 561 562 563
7 82 147 329 410 564 565 566
7 379 415 564 567 568 569 570
7 196 209 571 572 573 574 575
7 576 577 578 579 580 581 582
7 25 179 210 449 583 584 585
7 571 586 587 588 589 590 591
7 24 62 576 592 593 594 595
7 458 583 596 597 598 599 600
7 343 354 423 444 601 602 603
7 604 605 606 607 608 609 610
7 49 101 355 611 612 613 614
7 601 615 616 617 618 619 620
7 48 68 424 604 621 622 623
7 523 611 624 625 626 627 628
7 45 261 291 597 629 630 631
7 307 435 605 629 632 633 634
7 67 189 405 635 636 637 638
7 215 428 612 635 639 640 641
7 462 473 573 593 642 643 644
7 448 551 645 646 647 648 649
7 73 111 474 650 651 652 653
7 642 654 655 656 657 658 659
7 35 72 574 645 660 661 662
7 360 559 650 663 664 665 666
7 376 534 667 668 669 670 671
7 63 197 263 509 667 672 673
7 3 50 644 674 675 676 677
7 572 678 679 680 681 682 683
7 524 684 685 686 687 688 689
7 51 191 211 552 684 690 691
7 674 692 693 694 695 696 697
7 15 37 426 698 699 700 701
7 602 702 703 704 705 706 707
7 567 708 709 710 711 712 713
7 16 113 356 708 714 715 716
7 668 698 717 718 719 720 721
7 217 516 556 722 723 724 725
7 69 239 344 686 722 726 727
7 295 429 714 728 729 730 731
7 36 125 463 728 732 733 734
7 151 368 622 735 736 737 738
7 100 273 494 735 739 740 741
7 8 54 575 742 743 744 745
7 643 746 747 748 749 750 751
7 409 606 752 753 754 755 756
7 9 86 476 752 757 758 759
7 508 624 742 760 761 762 763
7 4 198 241 625 764 765 766
7 419 636 764 767 768 769 770
7 767 771 772 773 774 775 776
7 18 127 270 663 777 778 779
7 503 780 781 782 783 784 785
7 17 74 549 771 786 787 788
7 568 777 789 790 791 792 793
7 675 794 795 796 797 798 799
7 52 122 275 560 800 801 802
7 475 803 804 805 806 807 808
7 632 800 809 810 811 812 813
7 596 709 814 815 816 817 818
7 29 88 385 819 820 821 822
7 548 823 824 825 826 827 828
7 28 56 506 814 829 830 831
7 478 717 819 832 833 834 835
7 38 251 345 790 836 837 838
7 297 577 651 836 839 840 841
7 102 336 445 810 842 843 844
7 153 388 538 842 845 846 847
7 55 138 465 848 849 850 851
7 328 517 821 848 852 853 854
7 112 225 594 855 856 857 858
7 178 369 700 855 859 860 861
7 362 692 732 862 863 864 865
7 75 253 292 710 862 866 867
7 531 739 868 869 870 871 872
7 5 148 338 607 868 873 874
7 10 30 603 875 876 877 878
7 425 879 880 881 882 883 884
7 480 772 885 886 887 888 889
7 31 140 324 753 885 890 891
7 685 789 875 892 893 894 895
7 386 896 897 898 899 900 901
7 669 902 903 904 905 906 907
7 19 174 227 646 902 908 909
7 786 869 910 911 912 913 914
7 464 915 916 917 918 919 920
7 723 845 921 922 923 924 925
7 26 96 370 430 921 926 927
7 592 928 929 930 931 932 933
7 330 578 757 934 935 936 937
7 57 164 406 886 934 938 939
7 180 485 661 940 941 942 943
7 114 316 447 904 940 944 945
7 262 389 830 946 947 948 949
7 87 201 595 946 950 951 952
7 190 274 787 953 954 955 956
7 126 226 676 953 957 958 959
7 11 166 313 832 960 961 962
7 411 693 849 960 963 964 965
7 76 161 318 718 966 967 968
7 450 794 856 966 969 970 971
7 64 83 390 518 972 973 974
7 639 736 972 975 976 977 978
7 809 876 903 979 980 981 982
7 32 203 236 760 983 984 985
7 357 986 987 988 989 990 991
7 598 910 983 992 993 994 995
7 699 975 996 997 998 999 1000
7 325 1001 1002 1003 1004 1005 1006
7 768 908 1007 1008 1009 1010 1011
7 492 1012 1013 1014 1015 1016 1017
7 407 1018 1019 1020 1021 1022 1023
7 839 926 941 1024 1025 1026 1027
7 89 284 495 992 1028 1029 1030
7 264 486 744 1028 1031 1032 1033
7 128 398 540 1008 1034 1035 1036
7 192 467 662 1034 1037 1038 1039
7 139 202 677 1040 1041 1042 1043
7 240 337 877 1040 1044 1045 1046
7 510 795 950 1047 1048 1049 1050
7 12 259 286 815 1047 1051 1052
7 553 928 957 1053 1054 1055 1056
7 39 187 400 773 1053 1057 1058
7 729 859 1059 1060 1061 1062 1063
7 46 109 487 579 1059 1064 1065
7 271 1066 1067 1068 1069 1070 1071
7 687 984 996 1072 1073 1074 1075
7 829 922 1007 1076 1077 1078 1079
7 314 1080 1081 1082 1083 1084 1085
7 801 863 1037 1086 1087 1088 1089
7 621 1060 1090 1091 1092 1093 1094
7 237 1095 1096 1097 1098 1099 1100
7 778 870 1101 1102 1103 1104 1105
7 715 976 1106 1107 1108 1109 1110
7 346 1111 1112 1113 1114 1115 1116
7 935 973 1031 1117 1118 1119 1120
7 446 1121 1122 1123 1124 1125 1126
7 242 468 745 1127 1128 1129 1130
7 141 348 623 1072 1127 1131 1132
7 276 586 653 1133 1134 1135 1136
7 228 497 558 1102 1133 1137 1138
7 252 317 878 1139 1140 1141 1142
7 165 285 788 1139 1143 1144 1145
7 58 249 350 892 1146 1147 1148
7 626 929 1041 1146 1149 1150 1151
7 70 136 469 694 1152 1153 1154
7 664 954 1012 1152 1155 1156 1157
7 115 282 499 911 1158 1159 1160
7 561 915 958 1158 1161 1162 1163
7 852 947 1064 1164 1165 1166 1167
7 743 1024 1086 1168 1169 1170 1171
7 212 1172 1173 1174 1175 1176 1177
7 791 1051 1090 1178 1179 1180 1181
7 820 923 1101 1182 1183 1184 1185
7 175 1186 1187 1188 1189 1190 1191
7 811 890 1106 1192 1193 1194 1195
7 539 1164 1196 1197 1198 1199 1200
7 293 1201 1202 1203 1204 1205 1206
7 873 963 1128 1207 1208 1209 1210
7 613 1061 1211 1212 1213 1214 1215
7 260 1216 1217 1218 1219 1220 1221
7 690 969 1134 1222 1223 1224 1225
7 167 349 701 1178 1226 1227 1228
7 254 399 831 1226 1229 1230 1231
7 204 438 614 1192 1232 1233 1234
7 339 587 759 1232 1235 1236 1237
7 229 437 615 1107 1238 1239 1240
7 371 678 734 1238 1241 1242 1243
7 711 1013 1143 1147 1244 1245 1246
7 608 916 1042 1247 1248 1249 1250
7 90 334 440 979 1247 1251 1252
7 754 1044 1121 1153 1253 1254 1255
7 647 955 1018 1256 1257 1258 1259
7 103 223 588 796 1256 1260 1261
7 431 803 858 1262 1263 1264 1265
7 129 367 617 997 1262 1266 1267
7 199 1268 1269 1270 1271 1272 1273
7 887 967 1196 1229 1274 1275 1276
7 660 1117 1207 1277 1278 1279 1280
7 123 1281 1282 1283 1284 1285 1286
7 905 961 1211 1287 1288 1289 1290
7 758 1025 1222 1291 1292 1293 1294
7 162 1295 1296 1297 1298 1299 1300
7 765 1048 1235 1301 1302 1303 1304
7 557 1165 1305 1306 1307 1308 1309
7 250 1310 1311 1312 1313 1314 1315
7 584 1054 1241 1316 1317 1318 1319
7 514 1155 1320 1321 1322 1323 1324
7 319 498 822 1325 1326 1327 1328
7 287 439 716 1287 1325 1329 1330
7 391 679 851 1331 1332 1333 1334
7 205 515 542 1182 1331 1335 1336
7 372 638 780 1321 1337 1338 1339
7 277 536 702 1212 1337 1340 1341
7 833 1057 1122 1140 1342 1343 1344
7 719 1019 1144 1251 1345 1346 1347
7 142 397 544 1076 1348 1349 1350
7 519 804 952 1348 1351 1352 1353
7 761 1045 1111 1260 1354 1355 1356
7 154 303 680 930 1357 1358 1359
7 648 860 1080 1357 1360 1361 1362
7 193 417 704 1091 1363 1364 1365
7 432 741 896 1363 1366 1367 1368
7 652 1118 1301 1369 1370 1371 1372
7 149 1373 1374 1375 1376 1377 1378
7 866 993 1305 1326 1379 1380 1381
7 850 1087 1316 1382 1383 1384 1385
7 97 1386 1387 1388 1389 1390 1391
7 938 1009 1320 1392 1393 1394 1395
7 436 1253 1396 1397 1398 1399 1400
7 188 1401 1402 1403 1404 1405 1406
7 672 1149 1332 1407 1408 1409 1410
7 396 1257 1366 1411 1412 1413 1414
7 335 1360 1415 1416 1417 1418 1419
7 483 1161 1263 1420 1421 1422 1423
7 351 543 779 1392 1424 1425 1426
7 401 616 891 1424 1427 1428 1429
7 288 585 654 1291 1430 1431 1432
7 488 781 939 1430 1433 1434 1435
7 340 631 823 1306 1436 1437 1438
7 392 727 879 1397 1436 1439 1440
7 816 1112 1141 1159 1441 1442 1443
7 774 1081 1228 1349 1444 1445 1446
7 580 897 1030 1447 1448 1449 1450
7 168 484 656 1168 1447 1451 1452
7 762 948 1201 1358 1453 1454 1455
7 562 737 1001 1416 1456 1457 1458
7 181 380 782 1014 1456 1459 1460
7 665 730 1216 1310 1461 1462 1463
7 218 308 805 917 1461 1464 1465
7 520 844 986 1466 1467 1468 1469
7 243 528 825 1197 1466 1470 1471
7 84 1472 1473 1474 1475 1476 1477
7 837 1073 1396 1427 1478 1479 1480
7 733 1208 1407 1481 1482 1483 1484
7 27 1485 1486 1487 1488 1489 1490
7 1029 1103 1411 1491 1492 1493 1494
7 951 1223 1420 1495 1496 1497 1498
7 137 1499 1500 1501 1502 1503 1504
7 630 1244 1433 1505 1506 1507 1508
7 535 1342 1509 1510 1511 1512 1513
7 283 1453 1514 1515 1516 1517 1518
7 565 1248 1351 1519 1520 1521 1522
7 366 1354 1467 1523 1524 1525 1526
7 470 703 962 1527 1528 1529 1530
7 352 655 691 1382 1527 1531 1532
7 500 618 985 1533 1534 1535 1536
7 441 545 909 1491 1533 1537 1538
7 489 838 880 1510 1539 1540 1541
7 320 673 746 1369 1539 1542 1543
7 893 1202 1230 1266 1544 1545 1546
7 695 1002 1132 1451 1547 1548 1549
7 912 1217 1330 1335 1550 1551 1552
7 255 566 748 1277 1553 1554 1555
7 581 945 987 1553 1556 1557 1558
7 817 1032 1268 1459 1559 1560 1561
7 755 853 1295 1401 1464 1562 1563
7 265 456 881 1123 1564 1565 1566
7 609 847 1066 1515 1564 1567 1568
7 298 377 898 1020 1569 1570 1571
7 554 640 1095 1312 1569 1572 1573
7 637 1274 1505 1574 1575 1576 1577
7 110 1578 1579 1580 1581 1582 1583
7 726 1179 1509 1528 1584 1585 1586
7 857 1302 1519 1587 1588 1589 1590
7 65 1591 1592 1593 1594 1595 1596
7 944 1193 1523 1535 1597 1598 1599
7 1043 1317 1421 1600 1601 1602 1603
7 53 1604 1605 1606 1607 1608 1609
7 1108 1131 1415 1538 1610 1611 1612
7 416 1441 1556 1613 1614 1615 1616
7 224 1559 1617 1618 1619 1620 1621
7 527 1345 1448 1622 1623 1624 1625
7 402 747 766 1481 1626 1627 1628
7 471 824 867 1574 1626 1629 1630
7 442 657 802 1495 1631 1632 1633
7 589 705 1052 1631 1634 1635 1636
7 894 1129 1269 1364 1637 1638 1639
7 980 1239 1296 1328 1640 1641 1642
7 696 1036 1067 1554 1643 1644 1645
7 797 1096 1234 1431 1646 1647 1648
7 998 1233 1311 1426 1649 1650 1651
7 720 943 1172 1565 1618 1652 1653
7 834 936 1373 1499 1570 1654 1655
7 627 724 1186 1403 1656 1657 1658
7 331 459 988 1113 1656 1659 1660
7 451 532 1097 1218 1661 1662 1663
7 363 420 1003 1082 1661 1664 1665
7 47 1666 1667 1668 1669 1670 1671
7 843 1288 1613 1635 1672 1673 1674
7 740 1379 1622 1675 1676 1677 1678
7 6 1679 1680 1681 1682 1683 1684
7 1035 1183 1514 1536 1685 1686 1687
7 959 1408 1520 1688 1689 1690 1691
7 20 1692 1693 1694 1695 1696 1697
7 1213 1227 1417 1633 1698 1699 1700
7 1145 1322 1412 1701 1702 1703 1704
7 304 1637 1705 1706 1707 1708 1709
7 455 1444 1547 1710 1711 1712 1713
7 381 1544 1643 1714 1715 1716 1717
7 590 826 968 1675 1718 1719 1720
7 501 749 874 1587 1718 1721 1722
7 681 783 1148 1723 1724 1725 1726
7 546 658 927 1600 1701 1723 1727
7 775 1039 1173 1470 1706 1728 1729
7 981 1237 1340 1374 1730 1731 1732
7 1077 1137 1402 1429 1733 1734 1735
7 798 1138 1187 1542 1736 1737 1738
7 931 1098 1336 1531 1739 1740 1741
7 1092 1313 1329 1532 1742 1743 1744
7 712 840 1281 1501 1659 1745 1746
7 888 964 1472 1578 1664 1747 1748
7 412 525 1068 1203 1749 1750 1751
7 511 633 1188 1297 1749 1752 1753
7 738 1478 1710 1754 1755 1756 1757
7 71 1758 1759 1760 1761 1762 1763
7 846 1393 1714 1725 1764 1765 1766
7 956 1506 1623 1767 1768 1769 1770
7 77 1771 1772 1773 1774 1775 1776
7 1038 1292 1617 1636 1777 1778 1779
7 1142 1398 1524 1780 1781 1782 1783
7 33 1784 1785 1786 1787 1788 1789
7 1231 1307 1516 1722 1790 1791 1792
7 378 1640 1736 1793 1794 1795 1796
7 309 1730 1797 1798 1799 1800 1801
7 460 1550 1646 1802 1803 1804 1805
7 619 750 974 1688 1780 1806 1807
7 682 882 1058 1754 1806 1808 1809
7 806 899 1252 1727 1810 1811 1812
7 913 1136 1282 1437 1798 1813 1814
7 1078 1334 1338 1473 1815 1816 1817
7 1135 1169 1500 1530 1818 1819 1820
7 932 1189 1240 1627 1821 1822 1823
7 1015 1219 1425 1432 1824 1825 1826
7 918 1004 1350 1632 1827 1828 1829
7 1198 1327 1404 1628 1830 1831 1832
7 792 864 1386 1580 1750 1833 1834
7 994 1049 1591 1662 1666 1835 1836
7 599 670 1283 1375 1837 1838 1839
7 481 569 1174 1270 1837 1840 1841
7 40 1842 1843 1844 1845 1846 1847
7 942 1383 1705 1726 1848 1849 1850
7 861 1584 1711 1851 1852 1853 1854
7 104 1855 1856 1857 1858 1859 1860
7 725 1492 1793 1811 1861 1862 1863
7 641 1597 1802 1864 1865 1866 1867
7 13 1868 1869 1870 1871 1872 1873
7 1130 1370 1619 1720 1874 1875 1876
7 1046 1511 1614 1877 1878 1879 1880
7 219 1815 1881 1882 1883 1884 1885
7 526 1649 1739 1886 1887 1888 1889
7 421 1733 1821 1890 1891 1892 1893
7 784 883 1154 1851 1894 1895 1896
7 706 827 1065 1767 1877 1894 1897
7 807 989 1160 1807 1864 1898 1899
7 999 1243 1387 1439 1882 1900 1901
7 1170 1242 1435 1579 1902 1903 1904
7 1184 1353 1367 1592 1905 1906 1907
7 1236 1278 1502 1630 1908 1909 1910
7 1016 1284 1341 1629 1911 1912 1913
7 919 1069 1267 1721 1914 1915 1916
7 1124 1298 1428 1543 1917 1918 1919
7 1021 1083 1452 1537 1920 1921 1922
7 688 769 1388 1474 1840 1923 1924
7 906 970 1485 1668 1752 1925 1926
7 1074 1150 1572 1679 1758 1927 1928
7 949 1575 1715 1896 1929 1930 1931
7 59 1932 1933 1934 1935 1936 1937
7 1033 1482 1707 1809 1938 1939 1940
7 731 1672 1803 1941 1942 1943 1944
7 116 1945 1946 1947 1948 1949 1950
7 841 1496 1797 1812 1951 1952 1953
7 533 1685 1886 1915 1954 1955 1956
7 155 1905 1957 1958 1959 1960 1961
7 634 1610 1828 1890 1962 1963 1964
7 364 1818 1911 1965 1966 1967 1968
7 299 1902 1969 1970 1971 1972 1973
7 570 1742 1824 1974 1975 1976 1977
7 900 990 1261 1897 1941 1978 1979
7 1093 1339 1389 1540 1970 1980 1981
7 1109 1265 1468 1486 1958 1982 1983
7 1279 1333 1541 1581 1984 1985 1986
7 1264 1293 1450 1667 1987 1988 1989
7 1194 1250 1457 1680 1855 1990 1991
7 1125 1376 1438 1529 1992 1993 1994
7 1022 1175 1365 1719 1995 1996 1997
7 1114 1204 1534 1555 1998 1999 2000
7 812 871 1487 1593 1838 2001 2002
7 1010 1055 1604 1657 1760 2003 2004
7 1180 1245 1462 1771 1842 2005 2006
7 91 2007 2008 2009 2010 2011 2012
7 937 1588 1799 1899 2013 2014 2015
7 854 1676 1794 1979 2016 2017 2018
7 130 2019 2020 2021 2022 2023 2024
7 865 1601 1829 1881 2025 2026 2027
7 666 1764 1887 2028 2029 2030 2031
7 182 1987 2032 2033 2034 2035 2036
7 671 1698 1921 1965 2037 2038 2039
7 452 1777 1974 1996 2040 2041 2042
7 332 1984 2043 2044 2045 2046 2047
7 482 1830 1917 2048 2049 2050 2051
7 413 1908 1992 2052 2053 2054 2055
7 1005 1070 1359 1895 2028 2056 2057
7 1199 1434 1440 1475 2044 2058 2059
7 1214 1368 1488 1557 2033 2060 2061
7 1104 1163 1567 1605 1857 2062 2063
7 1352 1371 1558 1669 2064 2065 2066
7 1162 1384 1549 1759 2067 2068 2069
7 1289 1347 1361 1772 1945 2070 2071
7 1115 1271 1471 1634 2072 2073 2074
7 1084 1176 1460 1808 2075 2076 2077
7 924 977 1606 1681 1923 2001 2078
7 1088 1156 1692 1745 1844 2003 2079
7 1275 1343 1562 1868 1932 2005 2080
7 756 1755 1891 2057 2081 2082 2083
7 143 2084 2085 2086 2087 2088 2089
7 965 1689 1883 1916 2090 2091 2092
7 555 1848 1975 2076 2093 2094 2095
7 194 2067 2096 2097 2098 2099 2100
7 770 1702 1922 1969 2101 2102 2103
7 649 1861 1962 2104 2105 2106 2107
7 230 2108 2109 2110 2111 2112 2113
7 971 1602 1741 1957 2114 2115 2116
7 512 1874 2048 2073 2117 2118 2119
7 266 2064 2120 2121 2122 2123 2124
7 600 1790 1999 2052 2125 2126 2127
7 1099 1190 1465 1978 2056 2104 2128
7 1308 1449 1469 1594 2121 2129 2130
7 1323 1458 1607 1644 2060 2097 2131
7 1224 1259 1652 1693 1947 2062 2132
7 1249 1483 1645 1761 2133 2134 2135
7 1258 1394 1446 1843 2019 2136 2137
7 1056 1497 1648 1856 2138 2139 2140
7 1380 1443 1454 1869 2007 2070 2141
7 1205 1272 1566 1724 2142 2143 2144
7 1220 1285 1571 1898 2075 2145 2146
7 1026 1062 1694 1773 1833 1925 2147
7 1209 1254 1654 1784 1927 1934 2148
7 169 2149 2150 2151 2152 2153 2154
7 889 1768 1971 1997 2155 2156 2157
7 835 1852 1966 2077 2158 2159 2160
7 206 2161 2162 2163 2164 2165 2166
7 1050 1690 1823 1959 2167 2168 2169
7 763 1865 1954 2128 2170 2171 2172
7 244 2133 2173 2174 2175 2176 2177
7 689 1781 2000 2043 2178 2179 2180
7 628 1938 2049 2143 2181 2182 2183
7 278 2138 2184 2185 2186 2187 2188
7 872 1703 1826 2032 2189 2190 2191
7 563 1951 2037 2145 2192 2193 2194
7 1399 1548 1568 1682 2129 2174 2195
7 1318 1362 1695 1728 1982 2021 2196
7 1413 1573 1608 1737 1980 2185 2197
7 1303 1356 1560 1785 1990 2009 2198
7 1346 1576 1729 1845 2134 2199 2200
7 1151 1589 1738 1858 2201 2202 2203
7 1355 1479 1546 1933 2084 2136 2204
7 1157 1493 1552 1946 2108 2205 2206
7 1299 1377 1660 1810 2142 2207 2208
7 1314 1390 1665 1914 1995 2209 2210
7 1119 1166 1747 1786 1835 1870 2211
7 713 1929 2053 2144 2212 2213 2214
7 256 2199 2215 2216 2217 2218 2219
7 793 1878 2045 2074 2220 2221 2222
7 818 1942 2040 2146 2223 2224 2225
7 289 2226 2227 2228 2229 2230 2231
7 995 1769 1913 2034 2232 2233 2234
7 610 2013 2125 2207 2235 2236 2237
7 341 2201 2238 2239 2240 2241 2242
7 813 1782 1919 2120 2243 2244 2245
7 433 2025 2101 2209 2246 2247 2248
7 373 2114 2189 2249 2250 2251 2252
7 978 1699 1744 2096 2184 2253 2254
7 1445 1512 1653 1774 2065 2216 2255
7 1525 1647 1658 1683 2058 2239 2256
7 1409 1455 1638 1787 1906 2086 2257
7 1422 1463 1696 1813 1900 2110 2258
7 1418 1489 1663 1822 1912 2249 2259
7 1442 1585 1639 1935 2068 2149 2260
7 1246 1677 1814 1948 2202 2261 2262
7 1255 1598 1642 2008 2161 2205 2263
7 1063 1611 1651 2020 2109 2264 2265
7 1405 1476 1751 1827 2072 2266 2267
7 321 2261 2268 2269 2270 2271 2272
7 907 1879 1994 2122 2273 2274 2275
7 721 2016 2117 2208 2276 2277 2278
7 353 2279 2280 2281 2282 2283 2284
7 1075 1853 1981 2098 2234 2285 2286
7 895 2029 2093 2210 2287 2288 2289
7 393 2167 2243 2290 2291 2292 2293
7 925 1791 1832 2173 2238 2294 2295
7 521 2090 2178 2266 2296 2297 2298
7 1507 1545 1561 1871 1988 2151 2299
7 1551 1615 1746 1775 1985 2269 2300
7 1517 1595 1740 1753 1993 2290 2301
7 1521 1563 1731 1788 1816 2163 2302
7 1344 1673 1732 2010 2139 2226 2303
7 1181 1756 1901 2022 2169 2304 2305
7 1167 1686 1735 2085 2162 2264 2306
7 1503 1582 1841 1920 1998 2307 2308
7 776 2081 2181 2267 2309 2310 2311
7 403 2304 2312 2313 2314 2315 2316
7 1011 1930 2059 2175 2275 2317 2318
7 982 2105 2192 2259 2289 2319 2320
7 443 2321 2322 2323 2324 2325 2326
7 1195 1943 2061 2157 2186 2327 2328
7 582 2155 2220 2307 2329 2330 2331
7 490 2232 2273 2332 2333 2334 2335
7 1027 1875 1910 2215 2268 2294 2336
7 1624 1641 1655 1872 1903 2228 2337
7 1650 1716 1834 1846 1909 2313 2338
7 1620 1670 1825 1839 1918 2332 2339
7 1276 1765 1817 2087 2116 2279 2340
7 1290 1866 1983 2092 2111 2341 2342
7 1120 1778 1820 2150 2227 2253 2343
7 472 2285 2317 2344 2345 2346 2347
7 1089 1939 1986 2217 2245 2312 2348
7 697 2158 2212 2308 2349 2350 2351
7 502 2341 2352 2353 2354 2355 2356
7 1105 2017 2130 2222 2240 2357 2358
7 914 2170 2235 2301 2311 2359 2360
7 547 2361 2362 2363 2364 2365 2366
7 1185 2030 2131 2160 2250 2367 2368
7 1079 2106 2197 2225 2246 2369 2370
7 1712 1734 1748 1819 1936 2281 2371
7 1708 1743 1762 1831 1924 2344 2372
7 1612 1795 1876 1926 1949 2353 2373
7 1210 1849 1904 2152 2191 2280 2374
7 1381 1862 1907 2027 2164 2321 2375
7 1395 1955 2015 2063 2112 2376 2377
7 799 2223 2276 2339 2351 2378 2379
7 591 2327 2357 2380 2381 2382 2383
7 1225 2014 2066 2180 2270 2352 2384
7 1000 2171 2256 2278 2296 2385 2386
7 620 2376 2387 2388 2389 2390 2391
7 1110 2082 2195 2214 2291 2392 2393
7 1171 2172 2193 2247 2258 2394 2395
7 659 2396 2397 2398 2399 2400 2401
7 1294 2083 2094 2196 2251 2402 2403
7 1687 1779 1804 1836 2011 2323 2404
7 1700 1792 1800 1859 2002 2380 2405
7 1494 1892 1940 2004 2023 2388 2406
7 1304 1952 1989 2103 2229 2322 2407
7 1480 1953 1963 1991 2165 2361 2408
7 1385 2018 2041 2132 2187 2409 2410
7 683 2367 2383 2392 2411 2412 2413
7 1319 2091 2127 2135 2314 2387 2414
7 933 2287 2309 2331 2372 2415 2416
7 707 2391 2409 2417 2418 2419 2420
7 1215 2159 2183 2255 2333 2421 2422
7 1094 2224 2237 2300 2329 2423 2424
7 751 2401 2425 2426 2427 2428 2429
7 1372 2031 2182 2257 2292 2430 2431
7 1280 2107 2236 2297 2302 2432 2433
7 1599 1850 1888 1928 2088 2363 2434
7 1704 1783 1884 1960 2078 2411 2435
7 1498 1931 1967 2079 2099 2418 2436
7 1410 2026 2039 2069 2282 2362 2437
7 1586 1863 2038 2071 2230 2396 2438
7 1484 1944 2118 2198 2241 2439 2440
7 1017 2288 2298 2338 2349 2441 2442
7 785 2356 2402 2421 2443 2444 2445
7 1324 2119 2156 2200 2345 2417 2446
7 920 2319 2335 2359 2405 2447 2448
7 808 2347 2369 2385 2435 2449 2450
7 1423 2051 2168 2203 2354 2389 2451
7 1200 2194 2277 2330 2337 2452 2453
7 828 2366 2439 2454 2455 2456 2457
7 1309 2095 2213 2299 2334 2458 2459
7 1674 1766 1976 2006 2153 2398 2460
7 1603 1880 1972 2035 2147 2443 2461
7 1590 1854 2054 2148 2176 2455 2462
7 1508 1964 2102 2137 2283 2397 2463
7 1522 1977 2115 2140 2324 2364 2464
7 1577 1867 2126 2141 2271 2425 2465
7 884 2326 2430 2458 2466 2467 2468
7 1400 2042 2221 2260 2346 2454 2469
7 1126 2248 2310 2350 2371 2470 2471
7 901 2316 2394 2423 2461 2472 2473
7 1414 2055 2233 2262 2381 2419 2474
7 1023 2293 2320 2373 2378 2475 2476
7 1678 1757 2050 2080 2218 2427 2477
7 1691 1770 2046 2123 2211 2466 2478
7 1513 1956 2179 2204 2315 2426 2479
7 1625 1889 2190 2206 2325 2399 2480
7 1116 2252 2360 2379 2404 2481 2482
7 991 2284 2432 2452 2478 2483 2484
7 1526 1968 2274 2303 2382 2456 2485
7 1085 2242 2370 2406 2415 2486 2487
7 1006 2272 2395 2436 2441 2488 2489
7 1419 2047 2286 2305 2412 2444 2490
7 1616 1893 2244 2263 2355 2428 2491
7 1713 1805 2254 2265 2365 2400 2492
7 1071 2231 2433 2462 2470 2493 2494
7 1518 1973 2318 2340 2413 2467 2495
7 1206 2188 2386 2416 2434 2496 2497
7 1100 2219 2403 2410 2475 2486 2498
7 1315 2124 2328 2342 2449 2472 2499
7 1221 2177 2368 2377 2447 2488 2500
7 1717 1796 2295 2306 2390 2429 2501
7 1273 2113 2424 2442 2460 2502 2503
7 1177 2166 2453 2471 2477 2504 2505
7 1621 1885 2348 2374 2445 2468 2506
7 1300 2100 2393 2408 2448 2493 2507
7 1191 2154 2431 2440 2481 2496 2508
7 1406 2036 2358 2375 2450 2483 2509
7 1709 1801 2336 2343 2420 2457 2510
7 1286 2089 2459 2465 2482 2502 2511
7 1504 1961 2384 2407 2473 2484 2512
7 1378 2024 2422 2438 2476 2504 2513
7 1477 1950 2446 2463 2487 2505 2514
7 1391 2012 2469 2479 2497 2503 2515
7 1583 1860 2414 2437 2489 2494 2516
7 1490 1937 2485 2491 2507 2513 2517
7 1671 1763 2451 2464 2498 2508 2518
7 1596 1847 2474 2480 2500 2511 2519
7 1684 1776 2490 2492 2499 2515 2517
7 1609 1873 2495 2501 2509 2514 2519
7 1697 1789 2506 2510 2512 2516 2518
