# Generated using Miratope v0.5.0 (https://github.com/galoomba1/miratope-rs)
4OFF

# Vertices, Faces, Edges, Cells
600 720 1200 120

# Vertices
2.61803398874989 2.61803398874989 0 0 
2.92705098312484 2.11803398874989 0 0.809016994374945 
2.11803398874989 2.92705098312484 0.809016994374945 0 
2.92705098312484 2.11803398874989 0 -0.809016994374945 
2.92705098312484 1.30901699437495 1.30901699437495 1.30901699437495 
3.42705098312484 0.809016994374945 0.809016994374945 0.809016994374945 
2.61803398874989 1.30901699437495 2.11803398874989 0.809016994374945 
2.61803398874989 2.11803398874989 0.809016994374945 1.30901699437495 
2.92705098312484 1.30901699437495 1.30901699437495 -1.30901699437495 
3.42705098312484 0.809016994374945 0.809016994374945 -0.809016994374945 
2.61803398874989 1.30901699437495 2.11803398874989 -0.809016994374945 
2.61803398874989 2.11803398874989 0.809016994374945 -1.30901699437495 
2.11803398874989 2.11803398874989 2.11803398874989 0.5 
2.11803398874989 2.11803398874989 2.11803398874989 -0.5 
2.11803398874989 2.61803398874989 1.30901699437495 0.809016994374945 
2.11803398874989 2.61803398874989 1.30901699437495 -0.809016994374945 
3.42705098312484 0.5 1.30901699437495 0 
3.42705098312484 1.30901699437495 0 0.5 
3.42705098312484 1.30901699437495 0 -0.5 
2.92705098312484 0.809016994374945 2.11803398874989 0 
2.61803398874989 0 2.61803398874989 0 
2.11803398874989 0 2.92705098312484 0.809016994374945 
2.92705098312484 -0.809016994374945 2.11803398874989 0 
2.61803398874989 0.809016994374945 1.30901699437495 2.11803398874989 
2.92705098312484 -1.30901699437495 1.30901699437495 1.30901699437495 
3.42705098312484 -0.809016994374945 0.809016994374945 0.809016994374945 
2.61803398874989 -0.809016994374945 1.30901699437495 2.11803398874989 
2.61803398874989 -1.30901699437495 2.11803398874989 0.809016994374945 
2.11803398874989 0.5 2.11803398874989 2.11803398874989 
2.11803398874989 -0.5 2.11803398874989 2.11803398874989 
2.11803398874989 0.809016994374945 2.61803398874989 1.30901699437495 
2.11803398874989 -0.809016994374945 2.61803398874989 1.30901699437495 
3.42705098312484 0 0.5 1.30901699437495 
3.42705098312484 -0.5 1.30901699437495 0 
2.92705098312484 0 0.809016994374945 2.11803398874989 
2.11803398874989 2.92705098312484 -0.809016994374945 0 
2.92705098312484 1.30901699437495 -1.30901699437495 1.30901699437495 
3.42705098312484 0.809016994374945 -0.809016994374945 0.809016994374945 
2.61803398874989 2.11803398874989 -0.809016994374945 1.30901699437495 
2.61803398874989 1.30901699437495 -2.11803398874989 0.809016994374945 
2.92705098312484 1.30901699437495 -1.30901699437495 -1.30901699437495 
3.42705098312484 0.809016994374945 -0.809016994374945 -0.809016994374945 
2.61803398874989 1.30901699437495 -2.11803398874989 -0.809016994374945 
2.61803398874989 2.11803398874989 -0.809016994374945 -1.30901699437495 
2.11803398874989 2.11803398874989 -2.11803398874989 0.5 
2.11803398874989 2.11803398874989 -2.11803398874989 -0.5 
2.11803398874989 2.61803398874989 -1.30901699437495 0.809016994374945 
2.11803398874989 2.61803398874989 -1.30901699437495 -0.809016994374945 
3.42705098312484 0.5 -1.30901699437495 0 
2.92705098312484 0.809016994374945 -2.11803398874989 0 
2.61803398874989 0 -2.61803398874989 0 
2.92705098312484 -0.809016994374945 -2.11803398874989 0 
2.11803398874989 0 -2.92705098312484 0.809016994374945 
2.61803398874989 0.809016994374945 -1.30901699437495 2.11803398874989 
2.92705098312484 -1.30901699437495 -1.30901699437495 1.30901699437495 
3.42705098312484 -0.809016994374945 -0.809016994374945 0.809016994374945 
2.61803398874989 -0.809016994374945 -1.30901699437495 2.11803398874989 
2.61803398874989 -1.30901699437495 -2.11803398874989 0.809016994374945 
2.11803398874989 0.5 -2.11803398874989 2.11803398874989 
2.11803398874989 -0.5 -2.11803398874989 2.11803398874989 
2.11803398874989 0.809016994374945 -2.61803398874989 1.30901699437495 
2.11803398874989 -0.809016994374945 -2.61803398874989 1.30901699437495 
3.42705098312484 0 -0.5 1.30901699437495 
3.42705098312484 -0.5 -1.30901699437495 0 
2.92705098312484 0 -0.809016994374945 2.11803398874989 
2.61803398874989 0 0 2.61803398874989 
2.11803398874989 -0.809016994374945 0 2.92705098312484 
2.61803398874989 -2.11803398874989 0.809016994374945 1.30901699437495 
2.61803398874989 -2.11803398874989 -0.809016994374945 1.30901699437495 
2.11803398874989 -2.11803398874989 0.5 2.11803398874989 
2.11803398874989 -2.11803398874989 -0.5 2.11803398874989 
2.11803398874989 -1.30901699437495 0.809016994374945 2.61803398874989 
2.11803398874989 -1.30901699437495 -0.809016994374945 2.61803398874989 
3.42705098312484 -1.30901699437495 0 0.5 
2.92705098312484 -2.11803398874989 0 0.809016994374945 
2.11803398874989 0 2.92705098312484 -0.809016994374945 
1.30901699437495 -1.30901699437495 2.92705098312484 1.30901699437495 
0.809016994374945 -0.809016994374945 3.42705098312484 0.809016994374945 
1.30901699437495 -2.11803398874989 2.61803398874989 0.809016994374945 
1.30901699437495 -1.30901699437495 2.92705098312484 -1.30901699437495 
0.809016994374945 -0.809016994374945 3.42705098312484 -0.809016994374945 
1.30901699437495 -2.11803398874989 2.61803398874989 -0.809016994374945 
2.11803398874989 -0.809016994374945 2.61803398874989 -1.30901699437495 
2.11803398874989 -2.11803398874989 2.11803398874989 0.5 
2.11803398874989 -2.11803398874989 2.11803398874989 -0.5 
2.61803398874989 -1.30901699437495 2.11803398874989 -0.809016994374945 
1.30901699437495 0 3.42705098312484 0.5 
0.5 -1.30901699437495 3.42705098312484 0 
1.30901699437495 0 3.42705098312484 -0.5 
0.809016994374945 -2.11803398874989 2.92705098312484 0 
2.61803398874989 -2.61803398874989 0 0 
2.11803398874989 -2.92705098312484 0.809016994374945 0 
2.11803398874989 -2.92705098312484 -0.809016994374945 0 
1.30901699437495 -2.92705098312484 1.30901699437495 1.30901699437495 
0.809016994374945 -3.42705098312484 0.809016994374945 0.809016994374945 
1.30901699437495 -2.61803398874989 0.809016994374945 2.11803398874989 
2.11803398874989 -2.61803398874989 1.30901699437495 0.809016994374945 
1.30901699437495 -2.92705098312484 -1.30901699437495 1.30901699437495 
0.809016994374945 -3.42705098312484 -0.809016994374945 0.809016994374945 
1.30901699437495 -2.61803398874989 -0.809016994374945 2.11803398874989 
2.11803398874989 -2.61803398874989 -1.30901699437495 0.809016994374945 
0.5 -3.42705098312484 0 1.30901699437495 
1.30901699437495 -3.42705098312484 0.5 0 
1.30901699437495 -3.42705098312484 -0.5 0 
0.809016994374945 -2.92705098312484 0 2.11803398874989 
0 -2.61803398874989 2.61803398874989 0 
0 -2.92705098312484 2.11803398874989 0.809016994374945 
0 -2.92705098312484 2.11803398874989 -0.809016994374945 
0.809016994374945 -2.61803398874989 2.11803398874989 1.30901699437495 
1.30901699437495 -2.92705098312484 1.30901699437495 -1.30901699437495 
0.809016994374945 -3.42705098312484 0.809016994374945 -0.809016994374945 
2.11803398874989 -2.61803398874989 1.30901699437495 -0.809016994374945 
0.809016994374945 -2.61803398874989 2.11803398874989 -1.30901699437495 
0 -3.42705098312484 1.30901699437495 0.5 
0 -3.42705098312484 1.30901699437495 -0.5 
2.11803398874989 0 -2.92705098312484 -0.809016994374945 
1.30901699437495 -1.30901699437495 -2.92705098312484 1.30901699437495 
0.809016994374945 -0.809016994374945 -3.42705098312484 0.809016994374945 
1.30901699437495 -2.11803398874989 -2.61803398874989 0.809016994374945 
1.30901699437495 -1.30901699437495 -2.92705098312484 -1.30901699437495 
0.809016994374945 -0.809016994374945 -3.42705098312484 -0.809016994374945 
1.30901699437495 -2.11803398874989 -2.61803398874989 -0.809016994374945 
2.11803398874989 -0.809016994374945 -2.61803398874989 -1.30901699437495 
2.11803398874989 -2.11803398874989 -2.11803398874989 0.5 
2.11803398874989 -2.11803398874989 -2.11803398874989 -0.5 
2.61803398874989 -1.30901699437495 -2.11803398874989 -0.809016994374945 
1.30901699437495 0 -3.42705098312484 0.5 
0.5 -1.30901699437495 -3.42705098312484 0 
1.30901699437495 0 -3.42705098312484 -0.5 
0.809016994374945 -2.11803398874989 -2.92705098312484 0 
0 -2.61803398874989 -2.61803398874989 0 
0 -2.92705098312484 -2.11803398874989 0.809016994374945 
0 -2.92705098312484 -2.11803398874989 -0.809016994374945 
0.809016994374945 -2.61803398874989 -2.11803398874989 1.30901699437495 
1.30901699437495 -2.92705098312484 -1.30901699437495 -1.30901699437495 
0.809016994374945 -3.42705098312484 -0.809016994374945 -0.809016994374945 
2.11803398874989 -2.61803398874989 -1.30901699437495 -0.809016994374945 
0.809016994374945 -2.61803398874989 -2.11803398874989 -1.30901699437495 
0 -3.42705098312484 -1.30901699437495 0.5 
0 -3.42705098312484 -1.30901699437495 -0.5 
0 0 2.61803398874989 -2.61803398874989 
0 0.809016994374945 2.92705098312484 -2.11803398874989 
0 -0.809016994374945 2.92705098312484 -2.11803398874989 
0.809016994374945 0 2.11803398874989 -2.92705098312484 
1.30901699437495 1.30901699437495 2.92705098312484 -1.30901699437495 
0.809016994374945 0.809016994374945 3.42705098312484 -0.809016994374945 
0.809016994374945 1.30901699437495 2.61803398874989 -2.11803398874989 
2.11803398874989 0.809016994374945 2.61803398874989 -1.30901699437495 
0.809016994374945 -1.30901699437495 2.61803398874989 -2.11803398874989 
2.11803398874989 0.5 2.11803398874989 -2.11803398874989 
2.11803398874989 -0.5 2.11803398874989 -2.11803398874989 
1.30901699437495 0.809016994374945 2.11803398874989 -2.61803398874989 
1.30901699437495 -0.809016994374945 2.11803398874989 -2.61803398874989 
0 0.5 3.42705098312484 -1.30901699437495 
0 -0.5 3.42705098312484 -1.30901699437495 
-0.809016994374945 0 2.11803398874989 -2.92705098312484 
1.30901699437495 -1.30901699437495 1.30901699437495 -2.92705098312484 
0.809016994374945 -0.809016994374945 0.809016994374945 -3.42705098312484 
0.809016994374945 -2.11803398874989 1.30901699437495 -2.61803398874989 
-1.30901699437495 -1.30901699437495 1.30901699437495 -2.92705098312484 
-0.809016994374945 -0.809016994374945 0.809016994374945 -3.42705098312484 
-0.809016994374945 -2.11803398874989 1.30901699437495 -2.61803398874989 
-1.30901699437495 -0.809016994374945 2.11803398874989 -2.61803398874989 
0.5 -2.11803398874989 2.11803398874989 -2.11803398874989 
-0.5 -2.11803398874989 2.11803398874989 -2.11803398874989 
-0.809016994374945 -1.30901699437495 2.61803398874989 -2.11803398874989 
0.5 0 1.30901699437495 -3.42705098312484 
0 -1.30901699437495 0.5 -3.42705098312484 
-0.5 0 1.30901699437495 -3.42705098312484 
0 -2.11803398874989 0.809016994374945 -2.92705098312484 
0 -2.61803398874989 0 -2.61803398874989 
0.809016994374945 -2.92705098312484 0 -2.11803398874989 
-0.809016994374945 -2.92705098312484 0 -2.11803398874989 
1.30901699437495 -2.61803398874989 0.809016994374945 -2.11803398874989 
-1.30901699437495 -2.92705098312484 1.30901699437495 -1.30901699437495 
-0.809016994374945 -3.42705098312484 0.809016994374945 -0.809016994374945 
-0.809016994374945 -2.61803398874989 2.11803398874989 -1.30901699437495 
-1.30901699437495 -2.61803398874989 0.809016994374945 -2.11803398874989 
0.5 -3.42705098312484 0 -1.30901699437495 
-0.5 -3.42705098312484 0 -1.30901699437495 
2.61803398874989 0.809016994374945 -1.30901699437495 -2.11803398874989 
1.30901699437495 2.92705098312484 -1.30901699437495 -1.30901699437495 
1.30901699437495 2.61803398874989 -0.809016994374945 -2.11803398874989 
0.809016994374945 2.61803398874989 -2.11803398874989 -1.30901699437495 
1.30901699437495 1.30901699437495 -2.92705098312484 -1.30901699437495 
1.30901699437495 2.11803398874989 -2.61803398874989 -0.809016994374945 
0.809016994374945 1.30901699437495 -2.61803398874989 -2.11803398874989 
2.11803398874989 0.809016994374945 -2.61803398874989 -1.30901699437495 
1.30901699437495 1.30901699437495 -1.30901699437495 -2.92705098312484 
2.11803398874989 1.30901699437495 -0.809016994374945 -2.61803398874989 
1.30901699437495 0.809016994374945 -2.11803398874989 -2.61803398874989 
0.809016994374945 2.11803398874989 -1.30901699437495 -2.61803398874989 
2.11803398874989 2.11803398874989 -0.5 -2.11803398874989 
2.11803398874989 0.5 -2.11803398874989 -2.11803398874989 
0.5 2.11803398874989 -2.11803398874989 -2.11803398874989 
0 0 -2.61803398874989 -2.61803398874989 
0.809016994374945 0 -2.11803398874989 -2.92705098312484 
0 0.809016994374945 -2.92705098312484 -2.11803398874989 
0 -0.809016994374945 -2.92705098312484 -2.11803398874989 
0.809016994374945 0.809016994374945 -3.42705098312484 -0.809016994374945 
0.809016994374945 -1.30901699437495 -2.61803398874989 -2.11803398874989 
2.11803398874989 -0.5 -2.11803398874989 -2.11803398874989 
1.30901699437495 -0.809016994374945 -2.11803398874989 -2.61803398874989 
0 0.5 -3.42705098312484 -1.30901699437495 
0 -0.5 -3.42705098312484 -1.30901699437495 
2.61803398874989 0.809016994374945 1.30901699437495 -2.11803398874989 
1.30901699437495 2.11803398874989 2.61803398874989 -0.809016994374945 
1.30901699437495 2.92705098312484 1.30901699437495 -1.30901699437495 
1.30901699437495 2.61803398874989 0.809016994374945 -2.11803398874989 
0.809016994374945 2.61803398874989 2.11803398874989 -1.30901699437495 
1.30901699437495 1.30901699437495 1.30901699437495 -2.92705098312484 
2.11803398874989 1.30901699437495 0.809016994374945 -2.61803398874989 
0.809016994374945 2.11803398874989 1.30901699437495 -2.61803398874989 
2.11803398874989 2.11803398874989 0.5 -2.11803398874989 
0.5 2.11803398874989 2.11803398874989 -2.11803398874989 
0 2.61803398874989 0 -2.61803398874989 
0.809016994374945 2.92705098312484 0 -2.11803398874989 
0 2.11803398874989 0.809016994374945 -2.92705098312484 
0 2.11803398874989 -0.809016994374945 -2.92705098312484 
0.809016994374945 0.809016994374945 0.809016994374945 -3.42705098312484 
0.809016994374945 0.809016994374945 -0.809016994374945 -3.42705098312484 
1.30901699437495 0.5 0 -3.42705098312484 
0 1.30901699437495 0.5 -3.42705098312484 
0 1.30901699437495 -0.5 -3.42705098312484 
2.11803398874989 0.809016994374945 0 -2.92705098312484 
1.30901699437495 -0.5 0 -3.42705098312484 
0.5 0 -1.30901699437495 -3.42705098312484 
-0.809016994374945 0.809016994374945 0.809016994374945 -3.42705098312484 
-1.30901699437495 0.5 0 -3.42705098312484 
0.809016994374945 -0.809016994374945 -0.809016994374945 -3.42705098312484 
0 -1.30901699437495 -0.5 -3.42705098312484 
-0.809016994374945 0.809016994374945 -0.809016994374945 -3.42705098312484 
-0.5 0 -1.30901699437495 -3.42705098312484 
-1.30901699437495 -0.5 0 -3.42705098312484 
-0.809016994374945 -0.809016994374945 -0.809016994374945 -3.42705098312484 
0 -2.11803398874989 -0.809016994374945 -2.92705098312484 
1.30901699437495 -2.61803398874989 -0.809016994374945 -2.11803398874989 
-1.30901699437495 -2.92705098312484 -1.30901699437495 -1.30901699437495 
-0.809016994374945 -3.42705098312484 -0.809016994374945 -0.809016994374945 
-1.30901699437495 -2.61803398874989 -0.809016994374945 -2.11803398874989 
-0.809016994374945 -2.61803398874989 -2.11803398874989 -1.30901699437495 
0.5 -2.11803398874989 -2.11803398874989 -2.11803398874989 
-0.5 -2.11803398874989 -2.11803398874989 -2.11803398874989 
0.809016994374945 -2.11803398874989 -1.30901699437495 -2.61803398874989 
-0.809016994374945 -2.11803398874989 -1.30901699437495 -2.61803398874989 
-0.809016994374945 0 -2.11803398874989 -2.92705098312484 
1.30901699437495 -1.30901699437495 -1.30901699437495 -2.92705098312484 
-1.30901699437495 -1.30901699437495 -1.30901699437495 -2.92705098312484 
-1.30901699437495 -0.809016994374945 -2.11803398874989 -2.61803398874989 
-0.809016994374945 -1.30901699437495 -2.61803398874989 -2.11803398874989 
-1.30901699437495 1.30901699437495 1.30901699437495 -2.92705098312484 
-0.809016994374945 2.11803398874989 1.30901699437495 -2.61803398874989 
-1.30901699437495 0.809016994374945 2.11803398874989 -2.61803398874989 
-0.5 2.11803398874989 2.11803398874989 -2.11803398874989 
-0.809016994374945 1.30901699437495 2.61803398874989 -2.11803398874989 
2.11803398874989 -1.30901699437495 0.809016994374945 -2.61803398874989 
2.11803398874989 -1.30901699437495 -0.809016994374945 -2.61803398874989 
2.11803398874989 -2.11803398874989 0.5 -2.11803398874989 
2.11803398874989 -2.11803398874989 -0.5 -2.11803398874989 
2.11803398874989 -0.809016994374945 0 -2.92705098312484 
2.61803398874989 0 0 -2.61803398874989 
2.92705098312484 0 -0.809016994374945 -2.11803398874989 
2.61803398874989 -0.809016994374945 -1.30901699437495 -2.11803398874989 
-3.42705098312484 0.809016994374945 0.809016994374945 0.809016994374945 
-3.42705098312484 0.5 1.30901699437495 0 
-3.42705098312484 1.30901699437495 0 0.5 
-3.42705098312484 0 0.5 1.30901699437495 
-3.42705098312484 0.809016994374945 0.809016994374945 -0.809016994374945 
-3.42705098312484 0 0.5 -1.30901699437495 
-3.42705098312484 1.30901699437495 0 -0.5 
-3.42705098312484 0.809016994374945 -0.809016994374945 0.809016994374945 
-3.42705098312484 0.5 -1.30901699437495 0 
-3.42705098312484 0 -0.5 1.30901699437495 
-3.42705098312484 -0.809016994374945 0.809016994374945 0.809016994374945 
-3.42705098312484 -1.30901699437495 0 0.5 
-3.42705098312484 -0.5 1.30901699437495 0 
-3.42705098312484 0.809016994374945 -0.809016994374945 -0.809016994374945 
-3.42705098312484 0 -0.5 -1.30901699437495 
-3.42705098312484 -0.809016994374945 -0.809016994374945 0.809016994374945 
-3.42705098312484 -0.5 -1.30901699437495 0 
-3.42705098312484 -0.809016994374945 0.809016994374945 -0.809016994374945 
-3.42705098312484 -1.30901699437495 0 -0.5 
-3.42705098312484 -0.809016994374945 -0.809016994374945 -0.809016994374945 
-2.61803398874989 0 2.61803398874989 0 
-2.11803398874989 0 2.92705098312484 -0.809016994374945 
-2.92705098312484 0.809016994374945 2.11803398874989 0 
-2.92705098312484 -0.809016994374945 2.11803398874989 0 
-2.92705098312484 1.30901699437495 1.30901699437495 -1.30901699437495 
-2.61803398874989 1.30901699437495 2.11803398874989 -0.809016994374945 
-2.61803398874989 0.809016994374945 1.30901699437495 -2.11803398874989 
-2.92705098312484 -1.30901699437495 1.30901699437495 -1.30901699437495 
-2.61803398874989 -0.809016994374945 1.30901699437495 -2.11803398874989 
-2.61803398874989 -1.30901699437495 2.11803398874989 -0.809016994374945 
-2.11803398874989 0.5 2.11803398874989 -2.11803398874989 
-2.11803398874989 -0.5 2.11803398874989 -2.11803398874989 
-2.11803398874989 0.809016994374945 2.61803398874989 -1.30901699437495 
-2.11803398874989 -0.809016994374945 2.61803398874989 -1.30901699437495 
-2.92705098312484 0 0.809016994374945 -2.11803398874989 
-2.61803398874989 -2.61803398874989 0 0 
-2.92705098312484 -2.11803398874989 0 0.809016994374945 
-2.92705098312484 -2.11803398874989 0 -0.809016994374945 
-2.11803398874989 -2.92705098312484 -0.809016994374945 0 
-2.92705098312484 -1.30901699437495 -1.30901699437495 1.30901699437495 
-2.61803398874989 -2.11803398874989 -0.809016994374945 1.30901699437495 
-2.61803398874989 -1.30901699437495 -2.11803398874989 0.809016994374945 
-2.92705098312484 -1.30901699437495 -1.30901699437495 -1.30901699437495 
-2.61803398874989 -1.30901699437495 -2.11803398874989 -0.809016994374945 
-2.61803398874989 -2.11803398874989 -0.809016994374945 -1.30901699437495 
-2.11803398874989 -2.11803398874989 -2.11803398874989 0.5 
-2.11803398874989 -2.11803398874989 -2.11803398874989 -0.5 
-2.11803398874989 -2.61803398874989 -1.30901699437495 0.809016994374945 
-2.11803398874989 -2.61803398874989 -1.30901699437495 -0.809016994374945 
-2.92705098312484 -0.809016994374945 -2.11803398874989 0 
-2.11803398874989 -2.92705098312484 0.809016994374945 0 
-2.11803398874989 -2.61803398874989 1.30901699437495 -0.809016994374945 
-2.11803398874989 -2.11803398874989 0.5 -2.11803398874989 
-2.11803398874989 -2.11803398874989 -0.5 -2.11803398874989 
-2.61803398874989 -2.11803398874989 0.809016994374945 -1.30901699437495 
-1.30901699437495 -3.42705098312484 0.5 0 
-1.30901699437495 -3.42705098312484 -0.5 0 
-1.30901699437495 -1.30901699437495 2.92705098312484 -1.30901699437495 
-1.30901699437495 -2.11803398874989 2.61803398874989 -0.809016994374945 
-2.11803398874989 -1.30901699437495 0.809016994374945 -2.61803398874989 
-2.11803398874989 -2.11803398874989 2.11803398874989 -0.5 
-1.30901699437495 2.92705098312484 1.30901699437495 -1.30901699437495 
-2.11803398874989 2.61803398874989 1.30901699437495 -0.809016994374945 
-0.809016994374945 2.61803398874989 2.11803398874989 -1.30901699437495 
-1.30901699437495 2.61803398874989 0.809016994374945 -2.11803398874989 
-1.30901699437495 1.30901699437495 2.92705098312484 -1.30901699437495 
-1.30901699437495 2.11803398874989 2.61803398874989 -0.809016994374945 
-2.61803398874989 2.11803398874989 0.809016994374945 -1.30901699437495 
-2.11803398874989 1.30901699437495 0.809016994374945 -2.61803398874989 
-2.11803398874989 2.11803398874989 2.11803398874989 -0.5 
-2.11803398874989 2.11803398874989 0.5 -2.11803398874989 
-2.61803398874989 2.61803398874989 0 0 
-2.11803398874989 2.92705098312484 0.809016994374945 0 
-2.11803398874989 2.92705098312484 -0.809016994374945 0 
-2.92705098312484 2.11803398874989 0 -0.809016994374945 
-0.809016994374945 3.42705098312484 0.809016994374945 -0.809016994374945 
-1.30901699437495 2.92705098312484 -1.30901699437495 -1.30901699437495 
-0.809016994374945 3.42705098312484 -0.809016994374945 -0.809016994374945 
-1.30901699437495 2.61803398874989 -0.809016994374945 -2.11803398874989 
-2.11803398874989 2.61803398874989 -1.30901699437495 -0.809016994374945 
-2.11803398874989 2.11803398874989 -0.5 -2.11803398874989 
-2.61803398874989 2.11803398874989 -0.809016994374945 -1.30901699437495 
-1.30901699437495 3.42705098312484 0.5 0 
-0.5 3.42705098312484 0 -1.30901699437495 
-1.30901699437495 3.42705098312484 -0.5 0 
-0.809016994374945 2.92705098312484 0 -2.11803398874989 
-2.92705098312484 2.11803398874989 0 0.809016994374945 
-2.92705098312484 1.30901699437495 -1.30901699437495 1.30901699437495 
-2.61803398874989 2.11803398874989 -0.809016994374945 1.30901699437495 
-2.61803398874989 1.30901699437495 -2.11803398874989 0.809016994374945 
-2.92705098312484 1.30901699437495 -1.30901699437495 -1.30901699437495 
-2.61803398874989 1.30901699437495 -2.11803398874989 -0.809016994374945 
-2.11803398874989 2.11803398874989 -2.11803398874989 0.5 
-2.11803398874989 2.11803398874989 -2.11803398874989 -0.5 
-2.11803398874989 2.61803398874989 -1.30901699437495 0.809016994374945 
-2.92705098312484 0.809016994374945 -2.11803398874989 0 
-2.61803398874989 0 -2.61803398874989 0 
-2.11803398874989 0 -2.92705098312484 0.809016994374945 
-2.11803398874989 0 -2.92705098312484 -0.809016994374945 
-1.30901699437495 -1.30901699437495 -2.92705098312484 1.30901699437495 
-0.809016994374945 -0.809016994374945 -3.42705098312484 0.809016994374945 
-2.11803398874989 -0.809016994374945 -2.61803398874989 1.30901699437495 
-1.30901699437495 -2.11803398874989 -2.61803398874989 0.809016994374945 
-1.30901699437495 -1.30901699437495 -2.92705098312484 -1.30901699437495 
-0.809016994374945 -0.809016994374945 -3.42705098312484 -0.809016994374945 
-1.30901699437495 -2.11803398874989 -2.61803398874989 -0.809016994374945 
-2.11803398874989 -0.809016994374945 -2.61803398874989 -1.30901699437495 
-1.30901699437495 0 -3.42705098312484 0.5 
-0.5 -1.30901699437495 -3.42705098312484 0 
-1.30901699437495 0 -3.42705098312484 -0.5 
-0.809016994374945 -2.11803398874989 -2.92705098312484 0 
-1.30901699437495 1.30901699437495 -2.92705098312484 1.30901699437495 
-0.809016994374945 0.809016994374945 -3.42705098312484 0.809016994374945 
-2.11803398874989 0.809016994374945 -2.61803398874989 1.30901699437495 
-1.30901699437495 2.11803398874989 -2.61803398874989 0.809016994374945 
-1.30901699437495 1.30901699437495 -2.92705098312484 -1.30901699437495 
-0.809016994374945 0.809016994374945 -3.42705098312484 -0.809016994374945 
-1.30901699437495 2.11803398874989 -2.61803398874989 -0.809016994374945 
-2.11803398874989 0.809016994374945 -2.61803398874989 -1.30901699437495 
-0.5 1.30901699437495 -3.42705098312484 0 
-0.809016994374945 2.11803398874989 -2.92705098312484 0 
0.809016994374945 3.42705098312484 -0.809016994374945 -0.809016994374945 
-0.809016994374945 2.61803398874989 -2.11803398874989 -1.30901699437495 
-0.5 2.11803398874989 -2.11803398874989 -2.11803398874989 
-0.809016994374945 2.11803398874989 -1.30901699437495 -2.61803398874989 
0.5 3.42705098312484 0 -1.30901699437495 
0 3.42705098312484 -1.30901699437495 -0.5 
0 2.92705098312484 -2.11803398874989 -0.809016994374945 
0 2.61803398874989 -2.61803398874989 0 
0.809016994374945 2.11803398874989 -2.92705098312484 0 
-0.809016994374945 1.30901699437495 -2.61803398874989 -2.11803398874989 
0.5 1.30901699437495 -3.42705098312484 0 
0 0 2.61803398874989 2.61803398874989 
0.809016994374945 0 2.11803398874989 2.92705098312484 
0 0.809016994374945 2.92705098312484 2.11803398874989 
0 -0.809016994374945 2.92705098312484 2.11803398874989 
1.30901699437495 1.30901699437495 2.92705098312484 1.30901699437495 
0.809016994374945 0.809016994374945 3.42705098312484 0.809016994374945 
0.809016994374945 1.30901699437495 2.61803398874989 2.11803398874989 
0.809016994374945 -1.30901699437495 2.61803398874989 2.11803398874989 
1.30901699437495 0.809016994374945 2.11803398874989 2.61803398874989 
1.30901699437495 -0.809016994374945 2.11803398874989 2.61803398874989 
0 0.5 3.42705098312484 1.30901699437495 
0 -0.5 3.42705098312484 1.30901699437495 
-0.809016994374945 0 2.11803398874989 2.92705098312484 
1.30901699437495 -1.30901699437495 1.30901699437495 2.92705098312484 
0.809016994374945 -0.809016994374945 0.809016994374945 3.42705098312484 
0.809016994374945 -2.11803398874989 1.30901699437495 2.61803398874989 
-1.30901699437495 -1.30901699437495 1.30901699437495 2.92705098312484 
-0.809016994374945 -0.809016994374945 0.809016994374945 3.42705098312484 
-0.809016994374945 -2.11803398874989 1.30901699437495 2.61803398874989 
-1.30901699437495 -0.809016994374945 2.11803398874989 2.61803398874989 
0.5 -2.11803398874989 2.11803398874989 2.11803398874989 
-0.5 -2.11803398874989 2.11803398874989 2.11803398874989 
-0.809016994374945 -1.30901699437495 2.61803398874989 2.11803398874989 
0.5 0 1.30901699437495 3.42705098312484 
0 -1.30901699437495 0.5 3.42705098312484 
-0.5 0 1.30901699437495 3.42705098312484 
0 -2.11803398874989 0.809016994374945 2.92705098312484 
0 -2.61803398874989 0 2.61803398874989 
-0.809016994374945 -2.92705098312484 0 2.11803398874989 
-1.30901699437495 -2.92705098312484 1.30901699437495 1.30901699437495 
-0.809016994374945 -3.42705098312484 0.809016994374945 0.809016994374945 
-0.809016994374945 -2.61803398874989 2.11803398874989 1.30901699437495 
-1.30901699437495 -2.61803398874989 0.809016994374945 2.11803398874989 
-0.5 -3.42705098312484 0 1.30901699437495 
0 -2.11803398874989 -0.809016994374945 2.92705098312484 
-1.30901699437495 -2.92705098312484 -1.30901699437495 1.30901699437495 
-0.809016994374945 -3.42705098312484 -0.809016994374945 0.809016994374945 
-0.809016994374945 -2.61803398874989 -2.11803398874989 1.30901699437495 
-1.30901699437495 -2.61803398874989 -0.809016994374945 2.11803398874989 
0.5 -2.11803398874989 -2.11803398874989 2.11803398874989 
-0.5 -2.11803398874989 -2.11803398874989 2.11803398874989 
0.809016994374945 -2.11803398874989 -1.30901699437495 2.61803398874989 
-0.809016994374945 -2.11803398874989 -1.30901699437495 2.61803398874989 
0 0 -2.61803398874989 2.61803398874989 
0.809016994374945 0 -2.11803398874989 2.92705098312484 
-0.809016994374945 0 -2.11803398874989 2.92705098312484 
0 -0.809016994374945 -2.92705098312484 2.11803398874989 
1.30901699437495 -1.30901699437495 -1.30901699437495 2.92705098312484 
0.809016994374945 -0.809016994374945 -0.809016994374945 3.42705098312484 
1.30901699437495 -0.809016994374945 -2.11803398874989 2.61803398874989 
-1.30901699437495 -1.30901699437495 -1.30901699437495 2.92705098312484 
-0.809016994374945 -0.809016994374945 -0.809016994374945 3.42705098312484 
-1.30901699437495 -0.809016994374945 -2.11803398874989 2.61803398874989 
0.809016994374945 -1.30901699437495 -2.61803398874989 2.11803398874989 
-0.809016994374945 -1.30901699437495 -2.61803398874989 2.11803398874989 
0.5 0 -1.30901699437495 3.42705098312484 
0 -1.30901699437495 -0.5 3.42705098312484 
-0.5 0 -1.30901699437495 3.42705098312484 
0.809016994374945 0.809016994374945 0.809016994374945 3.42705098312484 
1.30901699437495 0.5 0 3.42705098312484 
0 1.30901699437495 0.5 3.42705098312484 
1.30901699437495 -0.5 0 3.42705098312484 
0.809016994374945 0.809016994374945 -0.809016994374945 3.42705098312484 
0 1.30901699437495 -0.5 3.42705098312484 
-0.809016994374945 0.809016994374945 0.809016994374945 3.42705098312484 
-1.30901699437495 0.5 0 3.42705098312484 
-0.809016994374945 0.809016994374945 -0.809016994374945 3.42705098312484 
-1.30901699437495 -0.5 0 3.42705098312484 
1.30901699437495 2.92705098312484 1.30901699437495 1.30901699437495 
1.30901699437495 2.61803398874989 0.809016994374945 2.11803398874989 
0.809016994374945 2.61803398874989 2.11803398874989 1.30901699437495 
1.30901699437495 2.11803398874989 2.61803398874989 0.809016994374945 
1.30901699437495 1.30901699437495 1.30901699437495 2.92705098312484 
2.11803398874989 1.30901699437495 0.809016994374945 2.61803398874989 
0.809016994374945 2.11803398874989 1.30901699437495 2.61803398874989 
2.11803398874989 2.11803398874989 0.5 2.11803398874989 
0.5 2.11803398874989 2.11803398874989 2.11803398874989 
0 2.61803398874989 0 2.61803398874989 
0.809016994374945 2.92705098312484 0 2.11803398874989 
0 2.11803398874989 0.809016994374945 2.92705098312484 
0 2.11803398874989 -0.809016994374945 2.92705098312484 
1.30901699437495 1.30901699437495 -1.30901699437495 2.92705098312484 
2.11803398874989 1.30901699437495 -0.809016994374945 2.61803398874989 
0.809016994374945 2.11803398874989 -1.30901699437495 2.61803398874989 
2.11803398874989 2.11803398874989 -0.5 2.11803398874989 
1.30901699437495 2.61803398874989 -0.809016994374945 2.11803398874989 
2.11803398874989 0.809016994374945 0 2.92705098312484 
2.92705098312484 -1.30901699437495 1.30901699437495 -1.30901699437495 
3.42705098312484 -0.809016994374945 0.809016994374945 -0.809016994374945 
2.61803398874989 -0.809016994374945 1.30901699437495 -2.11803398874989 
3.42705098312484 0 0.5 -1.30901699437495 
2.92705098312484 0 0.809016994374945 -2.11803398874989 
2.92705098312484 -1.30901699437495 -1.30901699437495 -1.30901699437495 
3.42705098312484 -0.809016994374945 -0.809016994374945 -0.809016994374945 
3.42705098312484 0 -0.5 -1.30901699437495 
2.61803398874989 -2.11803398874989 0.809016994374945 -1.30901699437495 
2.61803398874989 -2.11803398874989 -0.809016994374945 -1.30901699437495 
3.42705098312484 -1.30901699437495 0 -0.5 
2.92705098312484 -2.11803398874989 0 -0.809016994374945 
0 0.809016994374945 -2.92705098312484 2.11803398874989 
1.30901699437495 1.30901699437495 -2.92705098312484 1.30901699437495 
0.809016994374945 0.809016994374945 -3.42705098312484 0.809016994374945 
0.809016994374945 1.30901699437495 -2.61803398874989 2.11803398874989 
1.30901699437495 0.809016994374945 -2.11803398874989 2.61803398874989 
0 0.5 -3.42705098312484 1.30901699437495 
0 -0.5 -3.42705098312484 1.30901699437495 
1.30901699437495 2.92705098312484 -1.30901699437495 1.30901699437495 
0.809016994374945 2.61803398874989 -2.11803398874989 1.30901699437495 
1.30901699437495 2.11803398874989 -2.61803398874989 0.809016994374945 
0.5 2.11803398874989 -2.11803398874989 2.11803398874989 
-2.11803398874989 -1.30901699437495 0.809016994374945 2.61803398874989 
-2.11803398874989 -1.30901699437495 -0.809016994374945 2.61803398874989 
-2.11803398874989 -2.11803398874989 0.5 2.11803398874989 
-2.11803398874989 -2.11803398874989 -0.5 2.11803398874989 
-2.11803398874989 -0.809016994374945 0 2.92705098312484 
-0.809016994374945 -2.11803398874989 2.92705098312484 0 
-0.809016994374945 -0.809016994374945 3.42705098312484 -0.809016994374945 
-0.5 -1.30901699437495 3.42705098312484 0 
0.5 1.30901699437495 3.42705098312484 0 
-0.809016994374945 0.809016994374945 3.42705098312484 0.809016994374945 
-1.30901699437495 0 3.42705098312484 0.5 
-0.5 1.30901699437495 3.42705098312484 0 
-0.809016994374945 -0.809016994374945 3.42705098312484 0.809016994374945 
-0.809016994374945 0.809016994374945 3.42705098312484 -0.809016994374945 
-1.30901699437495 0 3.42705098312484 -0.5 
-2.11803398874989 -2.61803398874989 1.30901699437495 0.809016994374945 
-2.11803398874989 -2.11803398874989 2.11803398874989 0.5 
-1.30901699437495 -2.11803398874989 2.61803398874989 0.809016994374945 
-1.30901699437495 -1.30901699437495 2.92705098312484 1.30901699437495 
-2.11803398874989 -0.809016994374945 2.61803398874989 1.30901699437495 
-2.92705098312484 -1.30901699437495 1.30901699437495 1.30901699437495 
-2.61803398874989 -0.809016994374945 1.30901699437495 2.11803398874989 
-2.61803398874989 -2.11803398874989 0.809016994374945 1.30901699437495 
-2.61803398874989 -1.30901699437495 2.11803398874989 0.809016994374945 
-2.11803398874989 -0.5 2.11803398874989 2.11803398874989 
-1.30901699437495 1.30901699437495 2.92705098312484 1.30901699437495 
-0.809016994374945 1.30901699437495 2.61803398874989 2.11803398874989 
-2.11803398874989 0.809016994374945 2.61803398874989 1.30901699437495 
-2.11803398874989 0.5 2.11803398874989 2.11803398874989 
-1.30901699437495 0.809016994374945 2.11803398874989 2.61803398874989 
-2.11803398874989 0 2.92705098312484 0.809016994374945 
-1.30901699437495 1.30901699437495 1.30901699437495 2.92705098312484 
-0.809016994374945 2.11803398874989 1.30901699437495 2.61803398874989 
-0.5 2.11803398874989 2.11803398874989 2.11803398874989 
0.809016994374945 2.11803398874989 2.92705098312484 0 
-2.61803398874989 0 0 -2.61803398874989 
-2.11803398874989 0.809016994374945 0 -2.92705098312484 
-2.92705098312484 0 -0.809016994374945 -2.11803398874989 
-2.61803398874989 0.809016994374945 -1.30901699437495 -2.11803398874989 
-2.11803398874989 1.30901699437495 -0.809016994374945 -2.61803398874989 
-1.30901699437495 1.30901699437495 -1.30901699437495 -2.92705098312484 
-1.30901699437495 0.809016994374945 -2.11803398874989 -2.61803398874989 
-2.11803398874989 0.5 -2.11803398874989 -2.11803398874989 
-2.11803398874989 -0.809016994374945 0 -2.92705098312484 
-2.61803398874989 -0.809016994374945 -1.30901699437495 -2.11803398874989 
-2.11803398874989 -1.30901699437495 -0.809016994374945 -2.61803398874989 
-2.11803398874989 -0.5 -2.11803398874989 -2.11803398874989 
0.809016994374945 3.42705098312484 0.809016994374945 -0.809016994374945 
0 3.42705098312484 1.30901699437495 -0.5 
0 2.92705098312484 2.11803398874989 -0.809016994374945 
-2.92705098312484 1.30901699437495 1.30901699437495 1.30901699437495 
-2.61803398874989 1.30901699437495 2.11803398874989 0.809016994374945 
-2.61803398874989 2.11803398874989 0.809016994374945 1.30901699437495 
-2.11803398874989 2.11803398874989 2.11803398874989 0.5 
-2.11803398874989 2.61803398874989 1.30901699437495 0.809016994374945 
-2.61803398874989 0.809016994374945 1.30901699437495 2.11803398874989 
-2.92705098312484 0 0.809016994374945 2.11803398874989 
-2.61803398874989 0.809016994374945 -1.30901699437495 2.11803398874989 
-2.61803398874989 -0.809016994374945 -1.30901699437495 2.11803398874989 
-2.11803398874989 0.5 -2.11803398874989 2.11803398874989 
-2.11803398874989 -0.5 -2.11803398874989 2.11803398874989 
-2.92705098312484 0 -0.809016994374945 2.11803398874989 
-2.61803398874989 0 0 2.61803398874989 
-2.11803398874989 0.809016994374945 0 2.92705098312484 
-2.11803398874989 1.30901699437495 0.809016994374945 2.61803398874989 
-1.30901699437495 1.30901699437495 -1.30901699437495 2.92705098312484 
-2.11803398874989 1.30901699437495 -0.809016994374945 2.61803398874989 
-1.30901699437495 0.809016994374945 -2.11803398874989 2.61803398874989 
-0.809016994374945 2.11803398874989 -1.30901699437495 2.61803398874989 
-0.5 2.11803398874989 -2.11803398874989 2.11803398874989 
-0.809016994374945 1.30901699437495 -2.61803398874989 2.11803398874989 
-2.11803398874989 2.11803398874989 0.5 2.11803398874989 
-2.11803398874989 2.11803398874989 -0.5 2.11803398874989 
-0.809016994374945 2.92705098312484 0 2.11803398874989 
-1.30901699437495 2.61803398874989 0.809016994374945 2.11803398874989 
-1.30901699437495 2.61803398874989 -0.809016994374945 2.11803398874989 
0 2.61803398874989 2.61803398874989 0 
0 2.92705098312484 2.11803398874989 0.809016994374945 
-0.809016994374945 2.11803398874989 2.92705098312484 0 
-1.30901699437495 2.11803398874989 2.61803398874989 0.809016994374945 
-0.809016994374945 2.61803398874989 2.11803398874989 1.30901699437495 
0.809016994374945 3.42705098312484 0.809016994374945 0.809016994374945 
-1.30901699437495 2.92705098312484 1.30901699437495 1.30901699437495 
-0.809016994374945 3.42705098312484 0.809016994374945 0.809016994374945 
0.5 3.42705098312484 0 1.30901699437495 
0 3.42705098312484 1.30901699437495 0.5 
-0.5 3.42705098312484 0 1.30901699437495 
0.809016994374945 3.42705098312484 -0.809016994374945 0.809016994374945 
1.30901699437495 3.42705098312484 0.5 0 
1.30901699437495 3.42705098312484 -0.5 0 
-1.30901699437495 2.92705098312484 -1.30901699437495 1.30901699437495 
-0.809016994374945 3.42705098312484 -0.809016994374945 0.809016994374945 
0 2.92705098312484 -2.11803398874989 0.809016994374945 
-0.809016994374945 2.61803398874989 -2.11803398874989 1.30901699437495 
0 3.42705098312484 -1.30901699437495 0.5 

# Faces
5 2 0 1 7 14
5 0 3 18 17 1
5 2 15 11 3 0
5 16 5 4 6 19
5 4 7 1 17 5
5 4 7 14 12 6
5 8 10 19 16 9
5 18 9 8 11 3
5 10 8 11 15 13
5 12 13 10 19 6
5 12 13 15 2 14
5 5 17 18 9 16
5 19 6 30 21 20
5 16 33 22 20 19
5 21 31 27 22 20
5 4 23 34 32 5
5 23 4 6 30 28
5 25 24 26 34 32
5 33 25 24 27 22
5 24 26 29 31 27
5 28 29 26 34 23
5 28 30 21 31 29
5 5 16 33 25 32
5 1 38 46 35 0
5 0 35 47 43 3
5 17 37 36 38 1
5 37 36 39 49 48
5 36 38 46 44 39
5 41 48 49 42 40
5 3 43 40 41 18
5 40 43 47 45 42
5 44 39 49 42 45
5 45 47 35 46 44
5 18 41 48 37 17
5 48 49 50 51 63
5 50 49 39 60 52
5 50 51 57 61 52
5 36 37 62 64 53
5 39 60 58 53 36
5 55 54 56 64 62
5 54 55 63 51 57
5 54 56 59 61 57
5 58 53 64 56 59
5 59 61 52 60 58
5 37 62 55 63 48
5 32 62 64 65 34
5 34 26 71 66 65
5 64 65 66 72 56
5 73 25 24 67 74
5 24 26 71 69 67
5 54 55 73 74 68
5 68 54 56 72 70
5 70 68 74 67 69
5 69 70 72 66 71
5 32 62 55 73 25
5 21 86 88 75 20
5 22 85 82 75 20
5 21 86 77 76 31
5 76 77 87 89 78
5 31 76 78 83 27
5 80 79 81 89 87
5 80 88 75 82 79
5 84 81 79 82 85
5 83 78 89 81 84
5 83 27 22 85 84
5 86 88 80 87 77
5 74 90 91 96 67
5 90 74 68 100 92
5 102 91 90 92 103
5 93 94 101 104 95
5 102 94 93 96 91
5 69 95 93 96 67
5 98 101 104 99 97
5 98 103 92 100 97
5 70 99 97 100 68
5 69 70 99 104 95
5 94 101 98 103 102
5 89 105 106 108 78
5 107 105 89 81 112
5 105 107 114 113 106
5 94 93 108 106 113
5 93 108 78 83 96
5 109 110 102 91 111
5 110 109 112 107 114
5 81 112 109 111 84
5 84 111 91 96 83
5 94 102 110 114 113
5 50 51 125 122 115
5 50 52 126 128 115
5 61 116 117 126 52
5 117 116 118 129 127
5 116 61 57 123 118
5 119 121 129 127 120
5 120 128 115 122 119
5 125 122 119 121 124
5 124 123 57 51 125
5 124 121 129 118 123
5 126 128 120 127 117
5 129 130 131 133 118
5 129 130 132 137 121
5 130 132 139 138 131
5 97 98 138 131 133
5 118 133 97 100 123
5 135 103 92 136 134
5 139 135 134 137 132
5 124 136 134 137 121
5 92 136 124 123 100
5 103 135 139 138 98
5 141 153 154 142 140
5 140 143 151 146 141
5 143 140 142 148 152
5 153 145 144 146 141
5 144 147 75 88 145
5 144 146 151 149 147
5 80 154 142 148 79
5 82 150 152 148 79
5 75 147 149 150 82
5 150 149 151 143 152
5 88 145 153 154 80
5 142 140 155 162 165
5 168 155 140 143 166
5 143 166 157 156 152
5 156 157 167 169 158
5 156 152 148 163 158
5 159 160 167 169 161
5 159 162 155 168 160
5 164 161 159 162 165
5 142 165 164 163 148
5 164 161 169 158 163
5 157 167 160 168 166
5 158 173 171 170 169
5 171 178 179 172 170
5 161 177 172 170 169
5 110 109 173 171 178
5 163 112 109 173 158
5 107 176 174 175 114
5 174 175 179 172 177
5 164 176 174 177 161
5 163 112 107 176 164
5 110 178 179 175 114
5 180 40 42 187 193
5 43 192 189 180 40
5 181 47 43 192 182
5 183 181 182 191 194
5 45 47 181 183 185
5 184 186 194 183 185
5 184 187 42 45 185
5 193 187 184 186 190
5 188 190 193 180 189
5 189 192 182 191 188
5 186 190 188 191 194
5 196 190 186 197 195
5 196 195 198 200 202
5 197 203 204 198 195
5 184 199 203 197 186
5 128 199 184 187 115
5 120 119 200 198 204
5 201 122 119 200 202
5 193 201 202 196 190
5 122 201 193 187 115
5 128 199 203 204 120
5 149 205 8 10 147
5 11 8 205 211 213
5 144 146 214 209 206
5 13 206 144 147 10
5 207 15 11 213 208
5 13 15 207 209 206
5 214 209 207 208 212
5 210 151 149 205 211
5 146 151 210 212 214
5 210 211 213 208 212
5 215 216 208 212 217
5 191 218 215 216 182
5 222 217 215 218 223
5 219 210 211 224 221
5 210 212 217 222 219
5 189 224 221 220 188
5 188 220 223 218 191
5 192 213 208 216 182
5 211 213 192 189 224
5 221 220 223 222 219
5 221 225 157 166 219
5 168 227 222 219 166
5 157 225 229 230 167
5 229 226 220 221 225
5 220 223 231 232 226
5 228 227 222 223 231
5 160 168 227 228 233
5 229 230 234 232 226
5 234 232 231 228 233
5 233 160 167 230 234
5 171 170 235 243 236
5 235 170 172 239 244
5 134 236 171 178 135
5 137 241 243 236 134
5 172 239 237 238 179
5 139 238 237 240 132
5 240 237 239 244 242
5 137 241 242 240 132
5 241 243 235 244 242
5 179 178 135 139 238
5 232 245 195 196 226
5 245 195 198 249 248
5 202 246 229 226 196
5 229 230 235 243 246
5 241 200 202 246 243
5 247 234 232 245 248
5 230 235 244 247 234
5 248 249 242 244 247
5 242 249 198 200 241
5 140 141 254 252 155
5 210 151 143 166 219
5 222 227 250 251 217
5 168 155 252 250 227
5 253 251 250 252 254
5 253 214 146 141 254
5 214 253 251 217 212
5 167 230 235 170 169
5 157 156 255 259 225
5 156 255 257 173 158
5 225 259 256 246 229
5 243 236 258 256 246
5 173 257 258 236 171
5 255 257 258 256 259
5 180 261 260 224 189
5 261 262 256 259 260
5 224 221 225 259 260
5 190 196 226 220 188
5 246 202 201 262 256
5 180 193 201 262 261
5 264 263 265 269 267
5 263 266 273 275 264
5 263 266 272 270 265
5 267 268 280 275 264
5 267 269 276 277 268
5 265 269 276 271 270
5 270 271 279 278 272
5 273 266 272 278 274
5 280 275 273 274 281
5 271 279 282 277 276
5 278 274 281 282 279
5 280 268 277 282 281
5 283 284 295 288 285
5 283 286 292 296 284
5 264 285 283 286 275
5 287 267 264 285 288
5 267 287 289 297 268
5 287 288 295 293 289
5 268 280 290 291 297
5 290 280 275 286 292
5 294 291 290 292 296
5 293 294 296 284 295
5 293 289 297 291 294
5 298 300 281 274 299
5 298 299 303 310 301
5 300 298 301 311 307
5 274 299 303 302 278
5 302 278 279 312 304
5 308 304 302 303 310
5 282 279 312 306 305
5 282 305 307 300 281
5 309 306 305 307 311
5 308 304 312 306 309
5 310 308 309 311 301
5 313 298 300 317 314
5 301 319 318 313 298
5 174 314 313 318 175
5 174 177 315 317 314
5 311 237 238 319 301
5 237 311 307 316 239
5 307 316 315 317 300
5 172 177 315 316 239
5 238 179 175 318 319
5 321 320 296 292 323
5 320 165 164 176 321
5 165 320 296 294 162
5 291 322 315 317 290
5 290 317 314 323 292
5 174 176 321 323 314
5 159 322 315 177 161
5 291 322 159 162 294
5 332 325 324 326 329
5 324 327 333 330 325
5 326 253 251 327 324
5 253 326 329 328 254
5 254 328 295 293 252
5 329 328 295 288 332
5 325 330 287 288 332
5 287 330 333 331 289
5 333 331 250 251 327
5 252 293 289 331 250
5 334 335 345 347 336
5 335 325 330 337 334
5 334 336 342 344 337
5 324 325 335 345 338
5 324 338 346 348 327
5 339 340 346 348 341
5 340 347 336 342 339
5 341 339 342 344 343
5 343 333 327 348 341
5 330 337 344 343 333
5 338 345 347 340 346
5 336 357 351 349 334
5 334 337 269 265 349
5 265 270 350 351 349
5 270 350 352 358 271
5 351 357 355 352 350
5 276 353 354 358 271
5 337 269 276 353 344
5 344 353 354 356 342
5 355 357 336 342 356
5 355 356 354 358 352
5 359 312 304 364 360
5 360 370 372 361 359
5 312 306 369 361 359
5 363 370 360 364 362
5 363 371 373 365 362
5 304 364 362 365 308
5 367 366 368 373 371
5 366 367 372 361 369
5 366 368 309 306 369
5 308 365 373 368 309
5 371 363 370 372 367
5 358 359 360 376 352
5 358 359 361 381 354
5 375 370 360 376 374
5 375 382 383 377 374
5 376 352 355 377 374
5 378 379 382 383 380
5 378 381 361 372 379
5 356 380 378 381 354
5 355 356 380 383 377
5 370 375 382 379 372
5 346 348 215 216 388
5 218 387 341 348 215
5 181 182 216 388 384
5 181 183 390 389 384
5 340 339 385 390 389
5 385 339 341 387 386
5 194 386 385 390 183
5 191 218 387 386 194
5 340 389 384 388 346
5 390 183 185 392 391
5 390 391 383 380 385
5 382 383 391 392 394
5 185 392 394 199 184
5 379 203 197 393 378
5 378 393 386 385 380
5 194 186 197 393 386
5 382 394 199 203 379
5 371 127 129 130 373
5 130 373 368 240 132
5 119 121 137 241 200
5 367 204 198 249 366
5 242 240 368 366 249
5 127 371 367 204 120
5 396 395 397 401 403
5 395 398 402 404 396
5 397 405 406 398 395
5 21 30 399 400 86
5 400 405 397 401 399
5 30 399 401 403 28
5 406 77 76 402 398
5 29 31 76 402 404
5 403 28 29 404 396
5 86 400 405 406 77
5 395 407 420 418 396
5 398 417 414 407 395
5 396 418 409 408 404
5 408 409 419 421 410
5 404 408 410 415 402
5 411 413 421 419 412
5 412 411 414 407 420
5 411 414 417 416 413
5 416 415 410 421 413
5 416 417 398 402 415
5 412 419 409 418 420
5 95 410 421 422 104
5 422 421 413 427 423
5 101 104 422 423 428
5 410 95 93 108 415
5 424 425 113 106 426
5 425 428 423 427 424
5 416 426 424 427 413
5 108 415 416 426 106
5 101 428 425 113 94
5 104 422 429 436 99
5 422 423 433 437 429
5 97 133 434 436 99
5 430 431 138 131 432
5 431 428 423 433 430
5 430 432 435 437 433
5 435 434 436 429 437
5 434 133 131 432 435
5 98 138 431 428 101
5 452 440 438 439 450
5 439 438 441 448 444
5 438 441 449 447 440
5 442 443 450 439 444
5 442 436 429 451 443
5 444 448 434 436 442
5 452 446 445 447 440
5 446 445 437 429 451
5 435 449 447 445 437
5 434 435 449 441 448
5 450 452 446 451 443
5 418 453 454 456 409
5 453 418 420 459 455
5 453 455 458 457 454
5 419 451 443 456 409
5 457 450 443 456 454
5 450 452 461 458 457
5 460 459 455 458 461
5 459 420 412 462 460
5 446 462 460 461 452
5 419 451 446 462 412
5 470 7 4 23 468
5 7 14 463 464 470
5 471 465 463 464 469
5 12 14 463 465 466
5 6 12 466 399 30
5 465 466 399 401 471
5 28 23 468 467 403
5 403 467 469 471 401
5 470 468 467 469 464
5 472 473 464 469 474
5 472 473 480 478 475
5 455 474 472 475 458
5 454 453 467 468 481
5 467 453 455 474 469
5 476 457 454 481 477
5 458 475 478 476 457
5 479 477 476 478 480
5 470 479 480 473 464
5 470 479 477 481 468
5 19 10 147 75 20
5 8 9 485 486 205
5 483 482 484 486 485
5 33 483 482 85 22
5 482 85 82 150 484
5 149 205 486 484 150
5 16 33 483 485 9
5 42 187 115 50 49
5 40 41 489 261 180
5 51 63 488 487 125
5 261 489 488 487 262
5 125 487 262 201 122
5 63 48 41 489 488
5 261 260 486 485 489
5 259 260 486 484 255
5 483 482 490 493 492
5 482 484 255 257 490
5 487 491 493 492 488
5 258 491 487 262 256
5 258 257 490 493 491
5 483 492 488 489 485
5 91 90 493 490 111
5 92 90 493 491 136
5 173 109 111 490 257
5 258 236 134 136 491
5 103 135 178 110 102
5 438 439 498 497 494
5 500 441 438 494 499
5 52 126 496 495 60
5 499 496 495 497 494
5 495 60 58 498 497
5 448 116 117 500 441
5 61 116 448 444 59
5 58 498 439 444 59
5 117 126 496 499 500
5 479 38 36 53 477
5 478 504 502 501 480
5 38 479 480 501 46
5 501 46 44 503 502
5 58 498 476 477 53
5 478 504 497 498 476
5 60 39 44 503 495
5 495 503 502 504 497
5 34 65 481 468 23
5 64 65 481 477 53
5 7 1 38 479 470
5 17 37 62 32 5
5 9 18 41 489 485
5 33 483 492 73 25
5 63 55 73 492 488
5 456 66 65 481 454
5 450 457 476 498 439
5 442 72 66 456 443
5 59 444 442 72 56
5 54 68 100 123 57
5 72 442 436 99 70
5 118 116 448 434 133
5 493 90 74 73 492
5 125 487 491 136 124
5 429 422 421 419 451
5 462 412 411 505 509
5 411 413 427 507 505
5 446 462 509 506 445
5 437 433 508 506 445
5 507 508 506 509 505
5 508 433 423 427 507
5 87 512 510 105 89
5 176 107 105 510 321
5 81 112 163 148 79
5 320 321 510 512 511
5 142 165 320 511 154
5 80 87 512 511 154
5 86 400 513 145 88
5 400 405 514 516 513
5 145 513 516 518 153
5 87 512 517 406 77
5 514 405 406 517 515
5 514 516 518 519 515
5 515 519 511 512 517
5 154 153 518 519 511
5 510 105 106 426 522
5 318 425 424 520 313
5 521 520 424 426 522
5 323 321 510 522 521
5 521 323 314 313 520
5 114 113 425 318 175
5 524 523 417 414 529
5 524 528 521 522 523
5 417 416 426 522 523
5 414 529 526 505 411
5 507 527 525 526 505
5 526 529 524 528 525
5 520 527 525 528 521
5 424 520 527 507 427
5 395 397 531 534 407
5 530 514 405 397 531
5 515 535 532 530 514
5 532 530 531 534 533
5 523 517 515 535 524
5 406 517 523 417 398
5 524 535 532 533 529
5 529 414 407 534 533
5 418 396 403 467 453
5 455 474 537 536 459
5 407 534 536 459 420
5 531 538 537 536 534
5 401 471 538 531 397
5 471 469 474 537 538
5 482 85 84 111 490
5 156 152 150 484 255
5 428 425 318 319 431
5 139 238 319 431 138
5 513 400 399 466 539
5 144 206 539 513 145
5 12 13 206 539 466
5 297 289 331 541 540
5 268 297 540 542 277
5 540 541 544 543 542
5 269 337 330 287 267
5 353 276 277 542 543
5 343 544 543 353 344
5 331 333 343 544 541
5 339 385 380 356 342
5 354 381 547 543 353
5 341 343 544 545 387
5 543 547 546 545 544
5 386 393 546 545 387
5 547 381 378 393 546
5 291 297 540 548 322
5 540 542 549 550 548
5 280 281 300 317 290
5 277 542 549 305 282
5 305 549 550 316 307
5 315 322 548 550 316
5 306 305 549 551 369
5 309 368 240 237 311
5 248 249 366 369 551
5 550 247 248 551 549
5 244 239 316 550 247
5 197 393 546 245 195
5 245 546 547 551 248
5 381 361 369 551 547
5 203 379 372 367 204
5 141 254 328 518 153
5 519 284 295 328 518
5 511 320 296 284 519
5 162 294 293 252 155
5 217 251 327 348 215
5 216 208 207 552 388
5 552 207 209 554 553
5 326 554 553 338 324
5 214 209 554 326 253
5 552 388 346 338 553
5 205 486 260 224 211
5 3 43 192 213 11
5 331 250 227 228 541
5 544 545 231 228 541
5 387 218 223 231 545
5 334 349 557 559 335
5 263 555 556 285 264
5 263 555 557 349 265
5 556 558 559 557 555
5 332 558 559 335 325
5 285 556 558 332 288
5 535 283 285 556 532
5 524 528 286 283 535
5 263 555 560 561 266
5 555 560 533 532 556
5 273 525 526 561 266
5 273 525 528 286 275
5 529 526 561 560 533
5 279 312 359 358 271
5 270 272 566 562 350
5 352 350 562 564 376
5 272 566 563 302 278
5 364 304 302 563 565
5 360 364 565 564 376
5 565 563 566 562 564
5 509 567 561 526 505
5 566 567 509 506 563
5 266 561 567 566 272
5 527 299 274 273 525
5 302 303 508 506 563
5 303 508 507 527 299
5 284 519 515 535 283
5 510 522 523 517 512
5 292 323 521 528 286
5 299 527 520 313 298
5 301 319 431 430 310
5 433 430 310 303 508
5 130 373 365 432 131
5 432 365 308 310 430
5 27 83 96 67 24
5 76 402 415 108 78
5 460 568 567 509 462
5 561 567 568 569 560
5 536 459 460 568 569
5 533 560 569 536 534
5 566 562 571 568 567
5 460 568 571 570 461
5 461 452 440 572 570
5 571 562 564 572 570
5 445 506 563 565 447
5 564 565 447 440 572
5 449 362 364 565 447
5 365 432 435 449 362
5 441 500 363 362 449
5 363 500 117 127 371
5 438 494 575 572 440
5 461 570 573 475 458
5 574 573 570 572 575
5 574 504 478 475 573
5 497 504 574 575 494
5 404 29 26 71 408
5 69 95 410 408 71
5 66 456 409 408 71
5 560 555 557 576 569
5 351 577 571 562 350
5 577 571 568 569 576
5 577 351 349 557 576
5 374 575 494 499 375
5 572 564 376 374 575
5 363 500 499 375 370
5 472 474 537 579 578
5 475 573 580 578 472
5 569 536 537 579 576
5 570 573 580 577 571
5 576 577 580 578 579
5 466 539 581 582 465
5 581 539 513 516 583
5 583 581 582 585 584
5 514 516 583 584 530
5 530 584 585 538 531
5 471 538 585 582 465
5 532 556 558 584 530
5 516 518 328 329 583
5 584 558 332 329 583
5 591 578 472 473 589
5 464 473 589 586 463
5 463 465 582 590 586
5 588 590 582 585 587
5 579 587 588 591 578
5 538 537 579 587 585
5 589 591 588 590 586
5 0 2 593 594 35
5 2 593 586 463 14
5 480 501 592 589 473
5 46 35 594 592 501
5 586 589 592 594 593
5 559 587 585 584 558
5 557 576 579 587 559
5 231 545 546 245 232
5 542 549 551 547 543
5 539 206 209 554 581
5 326 329 583 581 554
5 160 159 322 548 233
5 233 548 550 247 234
5 588 345 335 559 587
5 578 591 596 595 580
5 347 596 595 357 336
5 580 577 351 357 595
5 591 596 347 345 588
5 390 391 597 599 389
5 377 598 597 391 383
5 599 596 595 598 597
5 595 357 355 377 598
5 347 596 599 389 340
5 582 590 553 554 581
5 345 588 590 553 338
5 233 548 540 541 228
5 580 573 574 598 595
5 374 575 574 598 377
5 495 496 394 392 503
5 44 503 392 185 45
5 199 128 126 496 394
5 207 15 2 593 552
5 35 594 384 181 47
5 388 384 594 593 552
5 502 597 391 392 503
5 502 597 598 574 504
5 382 375 499 496 394
5 590 553 552 593 586
5 501 592 599 597 502
5 389 384 594 592 599
5 591 596 599 592 589

# Cells
12 0 1 2 3 4 5 6 7 8 9 10 11
12 3 12 13 14 15 16 17 18 19 20 21 22
12 1 23 24 25 26 27 28 29 30 31 32 33
12 26 34 35 36 37 38 39 40 41 42 43 44
12 17 39 45 46 47 48 49 50 51 52 53 54
12 14 55 56 57 58 59 60 61 62 63 64 65
12 52 66 67 68 69 70 71 72 73 74 75 76
12 63 70 77 78 79 80 81 82 83 84 85 86
12 36 87 88 89 90 91 92 93 94 95 96 97
12 73 96 98 99 100 101 102 103 104 105 106 107
12 61 108 109 110 111 112 113 114 115 116 117 118
12 110 119 120 121 122 123 124 125 126 127 128 129
12 83 128 130 131 132 133 134 135 136 137 138 139
12 30 140 141 142 143 144 145 146 147 148 149 150
12 93 147 151 152 153 154 155 156 157 158 159 160
12 8 113 161 162 163 164 165 166 167 168 169 170
12 149 170 171 172 173 174 175 176 177 178 179 180
12 129 180 181 182 183 184 185 186 187 188 189 190
12 104 131 191 192 193 194 195 196 197 198 199 200
12 152 188 199 201 202 203 204 205 206 207 208 209
12 109 120 169 175 182 210 211 212 213 214 215 216
12 122 130 183 191 204 217 218 219 220 221 222 223
12 148 158 176 184 203 220 224 225 226 227 228 229
12 230 231 232 233 234 235 236 237 238 239 240 241
12 233 242 243 244 245 246 247 248 249 250 251 252
12 240 253 254 255 256 257 258 259 260 261 262 263
12 136 195 255 264 265 266 267 268 269 270 271 272
12 126 137 250 267 273 274 275 276 277 278 279 280
12 214 247 281 282 283 284 285 286 287 288 289 290
12 282 291 292 293 294 295 296 297 298 299 300 301
12 235 293 302 303 304 305 306 307 308 309 310 311
12 262 312 313 314 315 316 317 318 319 320 321 322
12 311 313 323 324 325 326 327 328 329 330 331 332
12 143 172 296 333 334 335 336 337 338 339 340 341
12 145 154 328 339 342 343 344 345 346 347 348 349
12 92 99 156 198 209 318 350 351 352 353 354 355
12 21 57 356 357 358 359 360 361 362 363 364 365
12 357 366 367 368 369 370 371 372 373 374 375 376
12 69 80 374 377 378 379 380 381 382 383 384 385
12 72 101 379 386 387 388 389 390 391 392 393 394
12 392 395 396 397 398 399 400 401 402 403 404 405
12 376 405 406 407 408 409 410 411 412 413 414 415
12 5 16 361 416 417 418 419 420 421 422 423 424
12 408 424 425 426 427 428 429 430 431 432 433 434
12 6 13 56 116 161 435 436 437 438 439 440 441
12 28 34 87 140 159 229 442 443 444 445 446 447
12 223 225 437 445 448 449 450 451 452 453 454 455
12 68 82 103 133 193 222 454 456 457 458 459 460
12 43 89 396 461 462 463 464 465 466 467 468 469
12 27 38 432 465 470 471 472 473 474 475 476 477
12 4 15 25 37 45 416 434 470 478 479 480 481
12 11 22 33 44 54 441 447 455 481 482 483 484
12 42 47 398 410 430 468 474 479 485 486 487 488
12 41 51 74 91 102 388 400 467 488 489 490 491
12 40 50 67 95 106 444 452 457 484 489 492 493
12 371 378 387 402 415 494 495 496 497 498 499 500
12 60 78 114 127 138 274 501 502 503 504 505 506
12 65 118 365 506 507 508 509 510 511 512 513 514
12 79 135 266 278 381 502 515 516 517 518 519 520
12 373 383 496 517 521 522 523 524 525 526 527 528
12 358 367 511 521 529 530 531 532 533 534 535 536
12 356 366 407 423 429 529 537 538 539 540 541 542
12 62 84 115 123 134 219 439 451 458 503 543 544
12 76 86 107 139 200 272 385 394 460 520 545 546
12 9 12 55 112 164 359 420 435 507 547 548 549
12 234 246 288 300 308 550 551 552 553 554 555 556
12 298 309 330 338 347 555 557 558 559 560 561 562
12 241 248 260 270 276 551 563 564 565 566 567 568
12 197 208 261 269 320 354 567 569 570 571 572 573
12 153 202 319 329 346 353 562 571 574 575 576 577
12 108 119 210 251 275 285 505 514 578 579 580 581
12 167 171 216 283 295 333 582 583 584 585 586 587
12 7 29 141 162 179 224 436 443 448 482 588 589
12 94 105 157 194 205 221 228 352 446 453 459 493
12 173 186 212 289 299 334 556 559 582 590 591 592
12 230 245 287 292 303 553 593 594 595 596 597 598
12 231 244 526 535 594 599 600 601 602 603 604 605
12 236 257 305 312 323 606 607 608 609 610 611 612
12 237 256 499 525 603 609 613 614 615 616 617 618
12 243 273 504 513 518 522 533 580 600 619 620 621
12 254 265 382 390 500 516 528 545 618 622 623 624
12 100 196 263 268 321 351 389 546 570 623 625 626
12 18 48 64 66 85 438 450 456 483 492 543 627
12 58 77 362 375 384 501 510 515 523 534 620 628
12 372 413 495 524 536 539 605 613 629 630 631 632
12 401 414 497 612 614 629 633 634 635 636 637 638
12 258 317 391 403 498 610 617 624 626 637 639 640
12 90 98 316 350 393 404 466 491 625 640 641 642
12 395 411 431 461 475 486 635 643 644 645 646 647
12 19 49 59 71 81 363 370 380 627 628 648 649
12 20 46 364 368 406 422 428 478 485 537 648 650
12 238 249 253 264 277 519 527 565 604 616 621 622
12 232 304 595 601 607 615 630 633 651 652 653 654
12 315 325 397 462 611 638 639 641 643 655 656 657
12 412 427 538 631 634 644 653 658 659 660 661 662
12 53 75 369 377 386 399 409 487 490 494 649 650
12 360 421 508 530 541 547 663 664 665 666 667 668
12 242 286 512 531 579 598 599 619 666 669 670 671
12 418 425 542 658 668 672 673 674 675 676 677 678
12 0 23 417 433 472 480 673 679 680 681 682 683
12 532 540 596 602 632 651 660 667 669 677 684 685
12 150 151 177 185 201 227 340 348 561 574 592 686
12 239 259 307 314 324 554 558 566 569 576 606 687
12 117 121 168 174 181 211 218 226 440 449 544 588
12 111 163 215 284 509 548 578 586 664 670 688 689
12 124 132 190 192 207 217 271 279 568 573 690 691
12 291 302 593 654 662 676 685 692 693 694 695 696
12 297 310 331 337 343 557 694 697 698 699 700 701
12 281 294 585 597 665 671 675 684 689 692 702 703
12 189 206 552 560 564 572 575 591 686 687 691 704
12 125 187 213 252 280 290 550 563 581 590 690 704
12 306 327 608 636 645 652 656 661 695 700 705 706
12 31 35 88 146 155 345 442 463 476 707 708 709
12 2 24 142 165 178 335 583 589 679 710 711 712
12 326 344 464 477 647 655 698 706 707 713 714 715
12 97 160 322 332 349 355 469 577 642 657 709 715
12 10 166 419 549 584 663 674 680 688 702 710 716
12 32 144 336 342 473 682 697 708 711 713 717 718
12 426 471 646 659 672 681 693 699 705 714 717 719
12 301 341 587 678 683 696 701 703 712 716 718 719
