# Generated using Miratope v0.5.0 (https://github.com/galoomba1/miratope-rs)
4OFF

# Vertices, Faces, Edges, Cells
600 720 1200 120

# Vertices
2.61803398874989 2.61803398874989 0 0 
2.92705098312484 2.11803398874989 0 0.809016994374945 
2.11803398874989 2.92705098312484 0.809016994374945 0 
2.92705098312484 2.11803398874989 0 -0.809016994374945 
2.92705098312484 1.30901699437495 1.30901699437495 1.30901699437495 
3.42705098312484 0.809016994374945 0.809016994374945 0.809016994374945 
2.61803398874989 1.30901699437495 2.11803398874989 0.809016994374945 
2.61803398874989 2.11803398874989 0.809016994374945 1.30901699437495 
2.92705098312484 1.30901699437495 1.30901699437495 -1.30901699437495 
3.42705098312484 0.809016994374945 0.809016994374945 -0.809016994374945 
2.61803398874989 1.30901699437495 2.11803398874989 -0.809016994374945 
2.61803398874989 2.11803398874989 0.809016994374945 -1.30901699437495 
2.11803398874989 2.11803398874989 2.11803398874989 0.5 
2.11803398874989 2.11803398874989 2.11803398874989 -0.5 
2.11803398874989 2.61803398874989 1.30901699437495 0.809016994374945 
2.11803398874989 2.61803398874989 1.30901699437495 -0.809016994374945 
3.42705098312484 0.5 1.30901699437495 0 
3.42705098312484 1.30901699437495 0 0.5 
3.42705098312484 1.30901699437495 0 -0.5 
2.92705098312484 0.809016994374945 2.11803398874989 0 
2.61803398874989 0 2.61803398874989 0 
2.11803398874989 0 2.92705098312484 0.809016994374945 
2.92705098312484 -0.809016994374945 2.11803398874989 0 
2.61803398874989 0.809016994374945 1.30901699437495 2.11803398874989 
2.92705098312484 -1.30901699437495 1.30901699437495 1.30901699437495 
3.42705098312484 -0.809016994374945 0.809016994374945 0.809016994374945 
2.61803398874989 -0.809016994374945 1.30901699437495 2.11803398874989 
2.61803398874989 -1.30901699437495 2.11803398874989 0.809016994374945 
2.11803398874989 0.5 2.11803398874989 2.11803398874989 
2.11803398874989 -0.5 2.11803398874989 2.11803398874989 
2.11803398874989 0.809016994374945 2.61803398874989 1.30901699437495 
2.11803398874989 -0.809016994374945 2.61803398874989 1.30901699437495 
3.42705098312484 0 0.5 1.30901699437495 
3.42705098312484 -0.5 1.30901699437495 0 
2.92705098312484 0 0.809016994374945 2.11803398874989 
2.11803398874989 2.92705098312484 -0.809016994374945 0 
2.92705098312484 1.30901699437495 -1.30901699437495 1.30901699437495 
3.42705098312484 0.809016994374945 -0.809016994374945 0.809016994374945 
2.61803398874989 2.11803398874989 -0.809016994374945 1.30901699437495 
2.61803398874989 1.30901699437495 -2.11803398874989 0.809016994374945 
2.92705098312484 1.30901699437495 -1.30901699437495 -1.30901699437495 
3.42705098312484 0.809016994374945 -0.809016994374945 -0.809016994374945 
2.61803398874989 1.30901699437495 -2.11803398874989 -0.809016994374945 
2.61803398874989 2.11803398874989 -0.809016994374945 -1.30901699437495 
2.11803398874989 2.11803398874989 -2.11803398874989 0.5 
2.11803398874989 2.11803398874989 -2.11803398874989 -0.5 
2.11803398874989 2.61803398874989 -1.30901699437495 0.809016994374945 
2.11803398874989 2.61803398874989 -1.30901699437495 -0.809016994374945 
3.42705098312484 0.5 -1.30901699437495 0 
2.92705098312484 0.809016994374945 -2.11803398874989 0 
2.61803398874989 0 -2.61803398874989 0 
2.92705098312484 -0.809016994374945 -2.11803398874989 0 
2.11803398874989 0 -2.92705098312484 0.809016994374945 
2.61803398874989 0.809016994374945 -1.30901699437495 2.11803398874989 
2.92705098312484 -1.30901699437495 -1.30901699437495 1.30901699437495 
3.42705098312484 -0.809016994374945 -0.809016994374945 0.809016994374945 
2.61803398874989 -0.809016994374945 -1.30901699437495 2.11803398874989 
2.61803398874989 -1.30901699437495 -2.11803398874989 0.809016994374945 
2.11803398874989 0.5 -2.11803398874989 2.11803398874989 
2.11803398874989 -0.5 -2.11803398874989 2.11803398874989 
2.11803398874989 0.809016994374945 -2.61803398874989 1.30901699437495 
2.11803398874989 -0.809016994374945 -2.61803398874989 1.30901699437495 
3.42705098312484 0 -0.5 1.30901699437495 
3.42705098312484 -0.5 -1.30901699437495 0 
2.92705098312484 0 -0.809016994374945 2.11803398874989 
2.61803398874989 0 0 2.61803398874989 
2.11803398874989 -0.809016994374945 0 2.92705098312484 
2.61803398874989 -2.11803398874989 0.809016994374945 1.30901699437495 
2.61803398874989 -2.11803398874989 -0.809016994374945 1.30901699437495 
2.11803398874989 -2.11803398874989 0.5 2.11803398874989 
2.11803398874989 -2.11803398874989 -0.5 2.11803398874989 
2.11803398874989 -1.30901699437495 0.809016994374945 2.61803398874989 
2.11803398874989 -1.30901699437495 -0.809016994374945 2.61803398874989 
3.42705098312484 -1.30901699437495 0 0.5 
2.92705098312484 -2.11803398874989 0 0.809016994374945 
2.11803398874989 0 2.92705098312484 -0.809016994374945 
1.30901699437495 -1.30901699437495 2.92705098312484 1.30901699437495 
0.809016994374945 -0.809016994374945 3.42705098312484 0.809016994374945 
1.30901699437495 -2.11803398874989 2.61803398874989 0.809016994374945 
1.30901699437495 -1.30901699437495 2.92705098312484 -1.30901699437495 
0.809016994374945 -0.809016994374945 3.42705098312484 -0.809016994374945 
1.30901699437495 -2.11803398874989 2.61803398874989 -0.809016994374945 
2.11803398874989 -0.809016994374945 2.61803398874989 -1.30901699437495 
2.11803398874989 -2.11803398874989 2.11803398874989 0.5 
2.11803398874989 -2.11803398874989 2.11803398874989 -0.5 
2.61803398874989 -1.30901699437495 2.11803398874989 -0.809016994374945 
1.30901699437495 0 3.42705098312484 0.5 
0.5 -1.30901699437495 3.42705098312484 0 
1.30901699437495 0 3.42705098312484 -0.5 
0.809016994374945 -2.11803398874989 2.92705098312484 0 
2.61803398874989 -2.61803398874989 0 0 
2.11803398874989 -2.92705098312484 0.809016994374945 0 
2.11803398874989 -2.92705098312484 -0.809016994374945 0 
1.30901699437495 -2.92705098312484 1.30901699437495 1.30901699437495 
0.809016994374945 -3.42705098312484 0.809016994374945 0.809016994374945 
1.30901699437495 -2.61803398874989 0.809016994374945 2.11803398874989 
2.11803398874989 -2.61803398874989 1.30901699437495 0.809016994374945 
1.30901699437495 -2.92705098312484 -1.30901699437495 1.30901699437495 
0.809016994374945 -3.42705098312484 -0.809016994374945 0.809016994374945 
1.30901699437495 -2.61803398874989 -0.809016994374945 2.11803398874989 
2.11803398874989 -2.61803398874989 -1.30901699437495 0.809016994374945 
0.5 -3.42705098312484 0 1.30901699437495 
1.30901699437495 -3.42705098312484 0.5 0 
1.30901699437495 -3.42705098312484 -0.5 0 
0.809016994374945 -2.92705098312484 0 2.11803398874989 
0 -2.61803398874989 2.61803398874989 0 
0 -2.92705098312484 2.11803398874989 0.809016994374945 
0 -2.92705098312484 2.11803398874989 -0.809016994374945 
0.809016994374945 -2.61803398874989 2.11803398874989 1.30901699437495 
1.30901699437495 -2.92705098312484 1.30901699437495 -1.30901699437495 
0.809016994374945 -3.42705098312484 0.809016994374945 -0.809016994374945 
2.11803398874989 -2.61803398874989 1.30901699437495 -0.809016994374945 
0.809016994374945 -2.61803398874989 2.11803398874989 -1.30901699437495 
0 -3.42705098312484 1.30901699437495 0.5 
0 -3.42705098312484 1.30901699437495 -0.5 
2.11803398874989 0 -2.92705098312484 -0.809016994374945 
1.30901699437495 -1.30901699437495 -2.92705098312484 1.30901699437495 
0.809016994374945 -0.809016994374945 -3.42705098312484 0.809016994374945 
1.30901699437495 -2.11803398874989 -2.61803398874989 0.809016994374945 
1.30901699437495 -1.30901699437495 -2.92705098312484 -1.30901699437495 
0.809016994374945 -0.809016994374945 -3.42705098312484 -0.809016994374945 
1.30901699437495 -2.11803398874989 -2.61803398874989 -0.809016994374945 
2.11803398874989 -0.809016994374945 -2.61803398874989 -1.30901699437495 
2.11803398874989 -2.11803398874989 -2.11803398874989 0.5 
2.11803398874989 -2.11803398874989 -2.11803398874989 -0.5 
2.61803398874989 -1.30901699437495 -2.11803398874989 -0.809016994374945 
1.30901699437495 0 -3.42705098312484 0.5 
0.5 -1.30901699437495 -3.42705098312484 0 
1.30901699437495 0 -3.42705098312484 -0.5 
0.809016994374945 -2.11803398874989 -2.92705098312484 0 
0 -2.61803398874989 -2.61803398874989 0 
0 -2.92705098312484 -2.11803398874989 0.809016994374945 
0 -2.92705098312484 -2.11803398874989 -0.809016994374945 
0.809016994374945 -2.61803398874989 -2.11803398874989 1.30901699437495 
1.30901699437495 -2.92705098312484 -1.30901699437495 -1.30901699437495 
0.809016994374945 -3.42705098312484 -0.809016994374945 -0.809016994374945 
2.11803398874989 -2.61803398874989 -1.30901699437495 -0.809016994374945 
0.809016994374945 -2.61803398874989 -2.11803398874989 -1.30901699437495 
0 -3.42705098312484 -1.30901699437495 0.5 
0 -3.42705098312484 -1.30901699437495 -0.5 
0 0 2.61803398874989 -2.61803398874989 
0 0.809016994374945 2.92705098312484 -2.11803398874989 
0 -0.809016994374945 2.92705098312484 -2.11803398874989 
0.809016994374945 0 2.11803398874989 -2.92705098312484 
1.30901699437495 1.30901699437495 2.92705098312484 -1.30901699437495 
0.809016994374945 0.809016994374945 3.42705098312484 -0.809016994374945 
0.809016994374945 1.30901699437495 2.61803398874989 -2.11803398874989 
2.11803398874989 0.809016994374945 2.61803398874989 -1.30901699437495 
0.809016994374945 -1.30901699437495 2.61803398874989 -2.11803398874989 
2.11803398874989 0.5 2.11803398874989 -2.11803398874989 
2.11803398874989 -0.5 2.11803398874989 -2.11803398874989 
1.30901699437495 0.809016994374945 2.11803398874989 -2.61803398874989 
1.30901699437495 -0.809016994374945 2.11803398874989 -2.61803398874989 
0 0.5 3.42705098312484 -1.30901699437495 
0 -0.5 3.42705098312484 -1.30901699437495 
-0.809016994374945 0 2.11803398874989 -2.92705098312484 
1.30901699437495 -1.30901699437495 1.30901699437495 -2.92705098312484 
0.809016994374945 -0.809016994374945 0.809016994374945 -3.42705098312484 
0.809016994374945 -2.11803398874989 1.30901699437495 -2.61803398874989 
-1.30901699437495 -1.30901699437495 1.30901699437495 -2.92705098312484 
-0.809016994374945 -0.809016994374945 0.809016994374945 -3.42705098312484 
-0.809016994374945 -2.11803398874989 1.30901699437495 -2.61803398874989 
-1.30901699437495 -0.809016994374945 2.11803398874989 -2.61803398874989 
0.5 -2.11803398874989 2.11803398874989 -2.11803398874989 
-0.5 -2.11803398874989 2.11803398874989 -2.11803398874989 
-0.809016994374945 -1.30901699437495 2.61803398874989 -2.11803398874989 
0.5 0 1.30901699437495 -3.42705098312484 
0 -1.30901699437495 0.5 -3.42705098312484 
-0.5 0 1.30901699437495 -3.42705098312484 
0 -2.11803398874989 0.809016994374945 -2.92705098312484 
0 -2.61803398874989 0 -2.61803398874989 
0.809016994374945 -2.92705098312484 0 -2.11803398874989 
-0.809016994374945 -2.92705098312484 0 -2.11803398874989 
1.30901699437495 -2.61803398874989 0.809016994374945 -2.11803398874989 
-1.30901699437495 -2.92705098312484 1.30901699437495 -1.30901699437495 
-0.809016994374945 -3.42705098312484 0.809016994374945 -0.809016994374945 
-0.809016994374945 -2.61803398874989 2.11803398874989 -1.30901699437495 
-1.30901699437495 -2.61803398874989 0.809016994374945 -2.11803398874989 
0.5 -3.42705098312484 0 -1.30901699437495 
-0.5 -3.42705098312484 0 -1.30901699437495 
2.61803398874989 0.809016994374945 -1.30901699437495 -2.11803398874989 
1.30901699437495 2.92705098312484 -1.30901699437495 -1.30901699437495 
1.30901699437495 2.61803398874989 -0.809016994374945 -2.11803398874989 
0.809016994374945 2.61803398874989 -2.11803398874989 -1.30901699437495 
1.30901699437495 1.30901699437495 -2.92705098312484 -1.30901699437495 
1.30901699437495 2.11803398874989 -2.61803398874989 -0.809016994374945 
0.809016994374945 1.30901699437495 -2.61803398874989 -2.11803398874989 
2.11803398874989 0.809016994374945 -2.61803398874989 -1.30901699437495 
1.30901699437495 1.30901699437495 -1.30901699437495 -2.92705098312484 
2.11803398874989 1.30901699437495 -0.809016994374945 -2.61803398874989 
1.30901699437495 0.809016994374945 -2.11803398874989 -2.61803398874989 
0.809016994374945 2.11803398874989 -1.30901699437495 -2.61803398874989 
2.11803398874989 2.11803398874989 -0.5 -2.11803398874989 
2.11803398874989 0.5 -2.11803398874989 -2.11803398874989 
0.5 2.11803398874989 -2.11803398874989 -2.11803398874989 
0 0 -2.61803398874989 -2.61803398874989 
0.809016994374945 0 -2.11803398874989 -2.92705098312484 
0 0.809016994374945 -2.92705098312484 -2.11803398874989 
0 -0.809016994374945 -2.92705098312484 -2.11803398874989 
0.809016994374945 0.809016994374945 -3.42705098312484 -0.809016994374945 
0.809016994374945 -1.30901699437495 -2.61803398874989 -2.11803398874989 
2.11803398874989 -0.5 -2.11803398874989 -2.11803398874989 
1.30901699437495 -0.809016994374945 -2.11803398874989 -2.61803398874989 
0 0.5 -3.42705098312484 -1.30901699437495 
0 -0.5 -3.42705098312484 -1.30901699437495 
2.61803398874989 0.809016994374945 1.30901699437495 -2.11803398874989 
1.30901699437495 2.11803398874989 2.61803398874989 -0.809016994374945 
1.30901699437495 2.92705098312484 1.30901699437495 -1.30901699437495 
1.30901699437495 2.61803398874989 0.809016994374945 -2.11803398874989 
0.809016994374945 2.61803398874989 2.11803398874989 -1.30901699437495 
1.30901699437495 1.30901699437495 1.30901699437495 -2.92705098312484 
2.11803398874989 1.30901699437495 0.809016994374945 -2.61803398874989 
0.809016994374945 2.11803398874989 1.30901699437495 -2.61803398874989 
2.11803398874989 2.11803398874989 0.5 -2.11803398874989 
0.5 2.11803398874989 2.11803398874989 -2.11803398874989 
0 2.61803398874989 0 -2.61803398874989 
0.809016994374945 2.92705098312484 0 -2.11803398874989 
0 2.11803398874989 0.809016994374945 -2.92705098312484 
0 2.11803398874989 -0.809016994374945 -2.92705098312484 
0.809016994374945 0.809016994374945 0.809016994374945 -3.42705098312484 
0.809016994374945 0.809016994374945 -0.809016994374945 -3.42705098312484 
1.30901699437495 0.5 0 -3.42705098312484 
0 1.30901699437495 0.5 -3.42705098312484 
0 1.30901699437495 -0.5 -3.42705098312484 
2.11803398874989 0.809016994374945 0 -2.92705098312484 
1.30901699437495 -0.5 0 -3.42705098312484 
0.5 0 -1.30901699437495 -3.42705098312484 
-0.809016994374945 0.809016994374945 0.809016994374945 -3.42705098312484 
-1.30901699437495 0.5 0 -3.42705098312484 
0.809016994374945 -0.809016994374945 -0.809016994374945 -3.42705098312484 
0 -1.30901699437495 -0.5 -3.42705098312484 
-0.809016994374945 0.809016994374945 -0.809016994374945 -3.42705098312484 
-0.5 0 -1.30901699437495 -3.42705098312484 
-1.30901699437495 -0.5 0 -3.42705098312484 
-0.809016994374945 -0.809016994374945 -0.809016994374945 -3.42705098312484 
0 -2.11803398874989 -0.809016994374945 -2.92705098312484 
1.30901699437495 -2.61803398874989 -0.809016994374945 -2.11803398874989 
-1.30901699437495 -2.92705098312484 -1.30901699437495 -1.30901699437495 
-0.809016994374945 -3.42705098312484 -0.809016994374945 -0.809016994374945 
-1.30901699437495 -2.61803398874989 -0.809016994374945 -2.11803398874989 
-0.809016994374945 -2.61803398874989 -2.11803398874989 -1.30901699437495 
0.5 -2.11803398874989 -2.11803398874989 -2.11803398874989 
-0.5 -2.11803398874989 -2.11803398874989 -2.11803398874989 
0.809016994374945 -2.11803398874989 -1.30901699437495 -2.61803398874989 
-0.809016994374945 -2.11803398874989 -1.30901699437495 -2.61803398874989 
-0.809016994374945 0 -2.11803398874989 -2.92705098312484 
1.30901699437495 -1.30901699437495 -1.30901699437495 -2.92705098312484 
-1.30901699437495 -1.30901699437495 -1.30901699437495 -2.92705098312484 
-1.30901699437495 -0.809016994374945 -2.11803398874989 -2.61803398874989 
-0.809016994374945 -1.30901699437495 -2.61803398874989 -2.11803398874989 
-1.30901699437495 1.30901699437495 1.30901699437495 -2.92705098312484 
-0.809016994374945 2.11803398874989 1.30901699437495 -2.61803398874989 
-1.30901699437495 0.809016994374945 2.11803398874989 -2.61803398874989 
-0.5 2.11803398874989 2.11803398874989 -2.11803398874989 
-0.809016994374945 1.30901699437495 2.61803398874989 -2.11803398874989 
2.11803398874989 -1.30901699437495 0.809016994374945 -2.61803398874989 
2.11803398874989 -1.30901699437495 -0.809016994374945 -2.61803398874989 
2.11803398874989 -2.11803398874989 0.5 -2.11803398874989 
2.11803398874989 -2.11803398874989 -0.5 -2.11803398874989 
2.11803398874989 -0.809016994374945 0 -2.92705098312484 
2.61803398874989 0 0 -2.61803398874989 
2.92705098312484 0 -0.809016994374945 -2.11803398874989 
2.61803398874989 -0.809016994374945 -1.30901699437495 -2.11803398874989 
-3.42705098312484 0.809016994374945 0.809016994374945 0.809016994374945 
-3.42705098312484 0.5 1.30901699437495 0 
-3.42705098312484 1.30901699437495 0 0.5 
-3.42705098312484 0 0.5 1.30901699437495 
-3.42705098312484 0.809016994374945 0.809016994374945 -0.809016994374945 
-3.42705098312484 0 0.5 -1.30901699437495 
-3.42705098312484 1.30901699437495 0 -0.5 
-3.42705098312484 0.809016994374945 -0.809016994374945 0.809016994374945 
-3.42705098312484 0.5 -1.30901699437495 0 
-3.42705098312484 0 -0.5 1.30901699437495 
-3.42705098312484 -0.809016994374945 0.809016994374945 0.809016994374945 
-3.42705098312484 -1.30901699437495 0 0.5 
-3.42705098312484 -0.5 1.30901699437495 0 
-3.42705098312484 0.809016994374945 -0.809016994374945 -0.809016994374945 
-3.42705098312484 0 -0.5 -1.30901699437495 
-3.42705098312484 -0.809016994374945 -0.809016994374945 0.809016994374945 
-3.42705098312484 -0.5 -1.30901699437495 0 
-3.42705098312484 -0.809016994374945 0.809016994374945 -0.809016994374945 
-3.42705098312484 -1.30901699437495 0 -0.5 
-3.42705098312484 -0.809016994374945 -0.809016994374945 -0.809016994374945 
-2.61803398874989 0 2.61803398874989 0 
-2.11803398874989 0 2.92705098312484 -0.809016994374945 
-2.92705098312484 0.809016994374945 2.11803398874989 0 
-2.92705098312484 -0.809016994374945 2.11803398874989 0 
-2.92705098312484 1.30901699437495 1.30901699437495 -1.30901699437495 
-2.61803398874989 1.30901699437495 2.11803398874989 -0.809016994374945 
-2.61803398874989 0.809016994374945 1.30901699437495 -2.11803398874989 
-2.92705098312484 -1.30901699437495 1.30901699437495 -1.30901699437495 
-2.61803398874989 -0.809016994374945 1.30901699437495 -2.11803398874989 
-2.61803398874989 -1.30901699437495 2.11803398874989 -0.809016994374945 
-2.11803398874989 0.5 2.11803398874989 -2.11803398874989 
-2.11803398874989 -0.5 2.11803398874989 -2.11803398874989 
-2.11803398874989 0.809016994374945 2.61803398874989 -1.30901699437495 
-2.11803398874989 -0.809016994374945 2.61803398874989 -1.30901699437495 
-2.92705098312484 0 0.809016994374945 -2.11803398874989 
-2.61803398874989 -2.61803398874989 0 0 
-2.92705098312484 -2.11803398874989 0 0.809016994374945 
-2.92705098312484 -2.11803398874989 0 -0.809016994374945 
-2.11803398874989 -2.92705098312484 -0.809016994374945 0 
-2.92705098312484 -1.30901699437495 -1.30901699437495 1.30901699437495 
-2.61803398874989 -2.11803398874989 -0.809016994374945 1.30901699437495 
-2.61803398874989 -1.30901699437495 -2.11803398874989 0.809016994374945 
-2.92705098312484 -1.30901699437495 -1.30901699437495 -1.30901699437495 
-2.61803398874989 -1.30901699437495 -2.11803398874989 -0.809016994374945 
-2.61803398874989 -2.11803398874989 -0.809016994374945 -1.30901699437495 
-2.11803398874989 -2.11803398874989 -2.11803398874989 0.5 
-2.11803398874989 -2.11803398874989 -2.11803398874989 -0.5 
-2.11803398874989 -2.61803398874989 -1.30901699437495 0.809016994374945 
-2.11803398874989 -2.61803398874989 -1.30901699437495 -0.809016994374945 
-2.92705098312484 -0.809016994374945 -2.11803398874989 0 
-2.11803398874989 -2.92705098312484 0.809016994374945 0 
-2.11803398874989 -2.61803398874989 1.30901699437495 -0.809016994374945 
-2.11803398874989 -2.11803398874989 0.5 -2.11803398874989 
-2.11803398874989 -2.11803398874989 -0.5 -2.11803398874989 
-2.61803398874989 -2.11803398874989 0.809016994374945 -1.30901699437495 
-1.30901699437495 -3.42705098312484 0.5 0 
-1.30901699437495 -3.42705098312484 -0.5 0 
-1.30901699437495 -1.30901699437495 2.92705098312484 -1.30901699437495 
-1.30901699437495 -2.11803398874989 2.61803398874989 -0.809016994374945 
-2.11803398874989 -1.30901699437495 0.809016994374945 -2.61803398874989 
-2.11803398874989 -2.11803398874989 2.11803398874989 -0.5 
-1.30901699437495 2.92705098312484 1.30901699437495 -1.30901699437495 
-2.11803398874989 2.61803398874989 1.30901699437495 -0.809016994374945 
-0.809016994374945 2.61803398874989 2.11803398874989 -1.30901699437495 
-1.30901699437495 2.61803398874989 0.809016994374945 -2.11803398874989 
-1.30901699437495 1.30901699437495 2.92705098312484 -1.30901699437495 
-1.30901699437495 2.11803398874989 2.61803398874989 -0.809016994374945 
-2.61803398874989 2.11803398874989 0.809016994374945 -1.30901699437495 
-2.11803398874989 1.30901699437495 0.809016994374945 -2.61803398874989 
-2.11803398874989 2.11803398874989 2.11803398874989 -0.5 
-2.11803398874989 2.11803398874989 0.5 -2.11803398874989 
-2.61803398874989 2.61803398874989 0 0 
-2.11803398874989 2.92705098312484 0.809016994374945 0 
-2.11803398874989 2.92705098312484 -0.809016994374945 0 
-2.92705098312484 2.11803398874989 0 -0.809016994374945 
-0.809016994374945 3.42705098312484 0.809016994374945 -0.809016994374945 
-1.30901699437495 2.92705098312484 -1.30901699437495 -1.30901699437495 
-0.809016994374945 3.42705098312484 -0.809016994374945 -0.809016994374945 
-1.30901699437495 2.61803398874989 -0.809016994374945 -2.11803398874989 
-2.11803398874989 2.61803398874989 -1.30901699437495 -0.809016994374945 
-2.11803398874989 2.11803398874989 -0.5 -2.11803398874989 
-2.61803398874989 2.11803398874989 -0.809016994374945 -1.30901699437495 
-1.30901699437495 3.42705098312484 0.5 0 
-0.5 3.42705098312484 0 -1.30901699437495 
-1.30901699437495 3.42705098312484 -0.5 0 
-0.809016994374945 2.92705098312484 0 -2.11803398874989 
-2.92705098312484 2.11803398874989 0 0.809016994374945 
-2.92705098312484 1.30901699437495 -1.30901699437495 1.30901699437495 
-2.61803398874989 2.11803398874989 -0.809016994374945 1.30901699437495 
-2.61803398874989 1.30901699437495 -2.11803398874989 0.809016994374945 
-2.92705098312484 1.30901699437495 -1.30901699437495 -1.30901699437495 
-2.61803398874989 1.30901699437495 -2.11803398874989 -0.809016994374945 
-2.11803398874989 2.11803398874989 -2.11803398874989 0.5 
-2.11803398874989 2.11803398874989 -2.11803398874989 -0.5 
-2.11803398874989 2.61803398874989 -1.30901699437495 0.809016994374945 
-2.92705098312484 0.809016994374945 -2.11803398874989 0 
-2.61803398874989 0 -2.61803398874989 0 
-2.11803398874989 0 -2.92705098312484 0.809016994374945 
-2.11803398874989 0 -2.92705098312484 -0.809016994374945 
-1.30901699437495 -1.30901699437495 -2.92705098312484 1.30901699437495 
-0.809016994374945 -0.809016994374945 -3.42705098312484 0.809016994374945 
-2.11803398874989 -0.809016994374945 -2.61803398874989 1.30901699437495 
-1.30901699437495 -2.11803398874989 -2.61803398874989 0.809016994374945 
-1.30901699437495 -1.30901699437495 -2.92705098312484 -1.30901699437495 
-0.809016994374945 -0.809016994374945 -3.42705098312484 -0.809016994374945 
-1.30901699437495 -2.11803398874989 -2.61803398874989 -0.809016994374945 
-2.11803398874989 -0.809016994374945 -2.61803398874989 -1.30901699437495 
-1.30901699437495 0 -3.42705098312484 0.5 
-0.5 -1.30901699437495 -3.42705098312484 0 
-1.30901699437495 0 -3.42705098312484 -0.5 
-0.809016994374945 -2.11803398874989 -2.92705098312484 0 
-1.30901699437495 1.30901699437495 -2.92705098312484 1.30901699437495 
-0.809016994374945 0.809016994374945 -3.42705098312484 0.809016994374945 
-2.11803398874989 0.809016994374945 -2.61803398874989 1.30901699437495 
-1.30901699437495 2.11803398874989 -2.61803398874989 0.809016994374945 
-1.30901699437495 1.30901699437495 -2.92705098312484 -1.30901699437495 
-0.809016994374945 0.809016994374945 -3.42705098312484 -0.809016994374945 
-1.30901699437495 2.11803398874989 -2.61803398874989 -0.809016994374945 
-2.11803398874989 0.809016994374945 -2.61803398874989 -1.30901699437495 
-0.5 1.30901699437495 -3.42705098312484 0 
-0.809016994374945 2.11803398874989 -2.92705098312484 0 
0.809016994374945 3.42705098312484 -0.809016994374945 -0.809016994374945 
-0.809016994374945 2.61803398874989 -2.11803398874989 -1.30901699437495 
-0.5 2.11803398874989 -2.11803398874989 -2.11803398874989 
-0.809016994374945 2.11803398874989 -1.30901699437495 -2.61803398874989 
0.5 3.42705098312484 0 -1.30901699437495 
0 3.42705098312484 -1.30901699437495 -0.5 
0 2.92705098312484 -2.11803398874989 -0.809016994374945 
0 2.61803398874989 -2.61803398874989 0 
0.809016994374945 2.11803398874989 -2.92705098312484 0 
-0.809016994374945 1.30901699437495 -2.61803398874989 -2.11803398874989 
0.5 1.30901699437495 -3.42705098312484 0 
0 0 2.61803398874989 2.61803398874989 
0.809016994374945 0 2.11803398874989 2.92705098312484 
0 0.809016994374945 2.92705098312484 2.11803398874989 
0 -0.809016994374945 2.92705098312484 2.11803398874989 
1.30901699437495 1.30901699437495 2.92705098312484 1.30901699437495 
0.809016994374945 0.809016994374945 3.42705098312484 0.809016994374945 
0.809016994374945 1.30901699437495 2.61803398874989 2.11803398874989 
0.809016994374945 -1.30901699437495 2.61803398874989 2.11803398874989 
1.30901699437495 0.809016994374945 2.11803398874989 2.61803398874989 
1.30901699437495 -0.809016994374945 2.11803398874989 2.61803398874989 
0 0.5 3.42705098312484 1.30901699437495 
0 -0.5 3.42705098312484 1.30901699437495 
-0.809016994374945 0 2.11803398874989 2.92705098312484 
1.30901699437495 -1.30901699437495 1.30901699437495 2.92705098312484 
0.809016994374945 -0.809016994374945 0.809016994374945 3.42705098312484 
0.809016994374945 -2.11803398874989 1.30901699437495 2.61803398874989 
-1.30901699437495 -1.30901699437495 1.30901699437495 2.92705098312484 
-0.809016994374945 -0.809016994374945 0.809016994374945 3.42705098312484 
-0.809016994374945 -2.11803398874989 1.30901699437495 2.61803398874989 
-1.30901699437495 -0.809016994374945 2.11803398874989 2.61803398874989 
0.5 -2.11803398874989 2.11803398874989 2.11803398874989 
-0.5 -2.11803398874989 2.11803398874989 2.11803398874989 
-0.809016994374945 -1.30901699437495 2.61803398874989 2.11803398874989 
0.5 0 1.30901699437495 3.42705098312484 
0 -1.30901699437495 0.5 3.42705098312484 
-0.5 0 1.30901699437495 3.42705098312484 
0 -2.11803398874989 0.809016994374945 2.92705098312484 
0 -2.61803398874989 0 2.61803398874989 
-0.809016994374945 -2.92705098312484 0 2.11803398874989 
-1.30901699437495 -2.92705098312484 1.30901699437495 1.30901699437495 
-0.809016994374945 -3.42705098312484 0.809016994374945 0.809016994374945 
-0.809016994374945 -2.61803398874989 2.11803398874989 1.30901699437495 
-1.30901699437495 -2.61803398874989 0.809016994374945 2.11803398874989 
-0.5 -3.42705098312484 0 1.30901699437495 
0 -2.11803398874989 -0.809016994374945 2.92705098312484 
-1.30901699437495 -2.92705098312484 -1.30901699437495 1.30901699437495 
-0.809016994374945 -3.42705098312484 -0.809016994374945 0.809016994374945 
-0.809016994374945 -2.61803398874989 -2.11803398874989 1.30901699437495 
-1.30901699437495 -2.61803398874989 -0.809016994374945 2.11803398874989 
0.5 -2.11803398874989 -2.11803398874989 2.11803398874989 
-0.5 -2.11803398874989 -2.11803398874989 2.11803398874989 
0.809016994374945 -2.11803398874989 -1.30901699437495 2.61803398874989 
-0.809016994374945 -2.11803398874989 -1.30901699437495 2.61803398874989 
0 0 -2.61803398874989 2.61803398874989 
0.809016994374945 0 -2.11803398874989 2.92705098312484 
-0.809016994374945 0 -2.11803398874989 2.92705098312484 
0 -0.809016994374945 -2.92705098312484 2.11803398874989 
1.30901699437495 -1.30901699437495 -1.30901699437495 2.92705098312484 
0.809016994374945 -0.809016994374945 -0.809016994374945 3.42705098312484 
1.30901699437495 -0.809016994374945 -2.11803398874989 2.61803398874989 
-1.30901699437495 -1.30901699437495 -1.30901699437495 2.92705098312484 
-0.809016994374945 -0.809016994374945 -0.809016994374945 3.42705098312484 
-1.30901699437495 -0.809016994374945 -2.11803398874989 2.61803398874989 
0.809016994374945 -1.30901699437495 -2.61803398874989 2.11803398874989 
-0.809016994374945 -1.30901699437495 -2.61803398874989 2.11803398874989 
0.5 0 -1.30901699437495 3.42705098312484 
0 -1.30901699437495 -0.5 3.42705098312484 
-0.5 0 -1.30901699437495 3.42705098312484 
0.809016994374945 0.809016994374945 0.809016994374945 3.42705098312484 
1.30901699437495 0.5 0 3.42705098312484 
0 1.30901699437495 0.5 3.42705098312484 
1.30901699437495 -0.5 0 3.42705098312484 
0.809016994374945 0.809016994374945 -0.809016994374945 3.42705098312484 
0 1.30901699437495 -0.5 3.42705098312484 
-0.809016994374945 0.809016994374945 0.809016994374945 3.42705098312484 
-1.30901699437495 0.5 0 3.42705098312484 
-0.809016994374945 0.809016994374945 -0.809016994374945 3.42705098312484 
-1.30901699437495 -0.5 0 3.42705098312484 
1.30901699437495 2.92705098312484 1.30901699437495 1.30901699437495 
1.30901699437495 2.61803398874989 0.809016994374945 2.11803398874989 
0.809016994374945 2.61803398874989 2.11803398874989 1.30901699437495 
1.30901699437495 2.11803398874989 2.61803398874989 0.809016994374945 
1.30901699437495 1.30901699437495 1.30901699437495 2.92705098312484 
2.11803398874989 1.30901699437495 0.809016994374945 2.61803398874989 
0.809016994374945 2.11803398874989 1.30901699437495 2.61803398874989 
2.11803398874989 2.11803398874989 0.5 2.11803398874989 
0.5 2.11803398874989 2.11803398874989 2.11803398874989 
0 2.61803398874989 0 2.61803398874989 
0.809016994374945 2.92705098312484 0 2.11803398874989 
0 2.11803398874989 0.809016994374945 2.92705098312484 
0 2.11803398874989 -0.809016994374945 2.92705098312484 
1.30901699437495 1.30901699437495 -1.30901699437495 2.92705098312484 
2.11803398874989 1.30901699437495 -0.809016994374945 2.61803398874989 
0.809016994374945 2.11803398874989 -1.30901699437495 2.61803398874989 
2.11803398874989 2.11803398874989 -0.5 2.11803398874989 
1.30901699437495 2.61803398874989 -0.809016994374945 2.11803398874989 
2.11803398874989 0.809016994374945 0 2.92705098312484 
2.92705098312484 -1.30901699437495 1.30901699437495 -1.30901699437495 
3.42705098312484 -0.809016994374945 0.809016994374945 -0.809016994374945 
2.61803398874989 -0.809016994374945 1.30901699437495 -2.11803398874989 
3.42705098312484 0 0.5 -1.30901699437495 
2.92705098312484 0 0.809016994374945 -2.11803398874989 
2.92705098312484 -1.30901699437495 -1.30901699437495 -1.30901699437495 
3.42705098312484 -0.809016994374945 -0.809016994374945 -0.809016994374945 
3.42705098312484 0 -0.5 -1.30901699437495 
2.61803398874989 -2.11803398874989 0.809016994374945 -1.30901699437495 
2.61803398874989 -2.11803398874989 -0.809016994374945 -1.30901699437495 
3.42705098312484 -1.30901699437495 0 -0.5 
2.92705098312484 -2.11803398874989 0 -0.809016994374945 
0 0.809016994374945 -2.92705098312484 2.11803398874989 
1.30901699437495 1.30901699437495 -2.92705098312484 1.30901699437495 
0.809016994374945 0.809016994374945 -3.42705098312484 0.809016994374945 
0.809016994374945 1.30901699437495 -2.61803398874989 2.11803398874989 
1.30901699437495 0.809016994374945 -2.11803398874989 2.61803398874989 
0 0.5 -3.42705098312484 1.30901699437495 
0 -0.5 -3.42705098312484 1.30901699437495 
1.30901699437495 2.92705098312484 -1.30901699437495 1.30901699437495 
0.809016994374945 2.61803398874989 -2.11803398874989 1.30901699437495 
1.30901699437495 2.11803398874989 -2.61803398874989 0.809016994374945 
0.5 2.11803398874989 -2.11803398874989 2.11803398874989 
-2.11803398874989 -1.30901699437495 0.809016994374945 2.61803398874989 
-2.11803398874989 -1.30901699437495 -0.809016994374945 2.61803398874989 
-2.11803398874989 -2.11803398874989 0.5 2.11803398874989 
-2.11803398874989 -2.11803398874989 -0.5 2.11803398874989 
-2.11803398874989 -0.809016994374945 0 2.92705098312484 
-0.809016994374945 -2.11803398874989 2.92705098312484 0 
-0.809016994374945 -0.809016994374945 3.42705098312484 -0.809016994374945 
-0.5 -1.30901699437495 3.42705098312484 0 
0.5 1.30901699437495 3.42705098312484 0 
-0.809016994374945 0.809016994374945 3.42705098312484 0.809016994374945 
-1.30901699437495 0 3.42705098312484 0.5 
-0.5 1.30901699437495 3.42705098312484 0 
-0.809016994374945 -0.809016994374945 3.42705098312484 0.809016994374945 
-0.809016994374945 0.809016994374945 3.42705098312484 -0.809016994374945 
-1.30901699437495 0 3.42705098312484 -0.5 
-2.11803398874989 -2.61803398874989 1.30901699437495 0.809016994374945 
-2.11803398874989 -2.11803398874989 2.11803398874989 0.5 
-1.30901699437495 -2.11803398874989 2.61803398874989 0.809016994374945 
-1.30901699437495 -1.30901699437495 2.92705098312484 1.30901699437495 
-2.11803398874989 -0.809016994374945 2.61803398874989 1.30901699437495 
-2.92705098312484 -1.30901699437495 1.30901699437495 1.30901699437495 
-2.61803398874989 -0.809016994374945 1.30901699437495 2.11803398874989 
-2.61803398874989 -2.11803398874989 0.809016994374945 1.30901699437495 
-2.61803398874989 -1.30901699437495 2.11803398874989 0.809016994374945 
-2.11803398874989 -0.5 2.11803398874989 2.11803398874989 
-1.30901699437495 1.30901699437495 2.92705098312484 1.30901699437495 
-0.809016994374945 1.30901699437495 2.61803398874989 2.11803398874989 
-2.11803398874989 0.809016994374945 2.61803398874989 1.30901699437495 
-2.11803398874989 0.5 2.11803398874989 2.11803398874989 
-1.30901699437495 0.809016994374945 2.11803398874989 2.61803398874989 
-2.11803398874989 0 2.92705098312484 0.809016994374945 
-1.30901699437495 1.30901699437495 1.30901699437495 2.92705098312484 
-0.809016994374945 2.11803398874989 1.30901699437495 2.61803398874989 
-0.5 2.11803398874989 2.11803398874989 2.11803398874989 
0.809016994374945 2.11803398874989 2.92705098312484 0 
-2.61803398874989 0 0 -2.61803398874989 
-2.11803398874989 0.809016994374945 0 -2.92705098312484 
-2.92705098312484 0 -0.809016994374945 -2.11803398874989 
-2.61803398874989 0.809016994374945 -1.30901699437495 -2.11803398874989 
-2.11803398874989 1.30901699437495 -0.809016994374945 -2.61803398874989 
-1.30901699437495 1.30901699437495 -1.30901699437495 -2.92705098312484 
-1.30901699437495 0.809016994374945 -2.11803398874989 -2.61803398874989 
-2.11803398874989 0.5 -2.11803398874989 -2.11803398874989 
-2.11803398874989 -0.809016994374945 0 -2.92705098312484 
-2.61803398874989 -0.809016994374945 -1.30901699437495 -2.11803398874989 
-2.11803398874989 -1.30901699437495 -0.809016994374945 -2.61803398874989 
-2.11803398874989 -0.5 -2.11803398874989 -2.11803398874989 
0.809016994374945 3.42705098312484 0.809016994374945 -0.809016994374945 
0 3.42705098312484 1.30901699437495 -0.5 
0 2.92705098312484 2.11803398874989 -0.809016994374945 
-2.92705098312484 1.30901699437495 1.30901699437495 1.30901699437495 
-2.61803398874989 1.30901699437495 2.11803398874989 0.809016994374945 
-2.61803398874989 2.11803398874989 0.809016994374945 1.30901699437495 
-2.11803398874989 2.11803398874989 2.11803398874989 0.5 
-2.11803398874989 2.61803398874989 1.30901699437495 0.809016994374945 
-2.61803398874989 0.809016994374945 1.30901699437495 2.11803398874989 
-2.92705098312484 0 0.809016994374945 2.11803398874989 
-2.61803398874989 0.809016994374945 -1.30901699437495 2.11803398874989 
-2.61803398874989 -0.809016994374945 -1.30901699437495 2.11803398874989 
-2.11803398874989 0.5 -2.11803398874989 2.11803398874989 
-2.11803398874989 -0.5 -2.11803398874989 2.11803398874989 
-2.92705098312484 0 -0.809016994374945 2.11803398874989 
-2.61803398874989 0 0 2.61803398874989 
-2.11803398874989 0.809016994374945 0 2.92705098312484 
-2.11803398874989 1.30901699437495 0.809016994374945 2.61803398874989 
-1.30901699437495 1.30901699437495 -1.30901699437495 2.92705098312484 
-2.11803398874989 1.30901699437495 -0.809016994374945 2.61803398874989 
-1.30901699437495 0.809016994374945 -2.11803398874989 2.61803398874989 
-0.809016994374945 2.11803398874989 -1.30901699437495 2.61803398874989 
-0.5 2.11803398874989 -2.11803398874989 2.11803398874989 
-0.809016994374945 1.30901699437495 -2.61803398874989 2.11803398874989 
-2.11803398874989 2.11803398874989 0.5 2.11803398874989 
-2.11803398874989 2.11803398874989 -0.5 2.11803398874989 
-0.809016994374945 2.92705098312484 0 2.11803398874989 
-1.30901699437495 2.61803398874989 0.809016994374945 2.11803398874989 
-1.30901699437495 2.61803398874989 -0.809016994374945 2.11803398874989 
0 2.61803398874989 2.61803398874989 0 
0 2.92705098312484 2.11803398874989 0.809016994374945 
-0.809016994374945 2.11803398874989 2.92705098312484 0 
-1.30901699437495 2.11803398874989 2.61803398874989 0.809016994374945 
-0.809016994374945 2.61803398874989 2.11803398874989 1.30901699437495 
0.809016994374945 3.42705098312484 0.809016994374945 0.809016994374945 
-1.30901699437495 2.92705098312484 1.30901699437495 1.30901699437495 
-0.809016994374945 3.42705098312484 0.809016994374945 0.809016994374945 
0.5 3.42705098312484 0 1.30901699437495 
0 3.42705098312484 1.30901699437495 0.5 
-0.5 3.42705098312484 0 1.30901699437495 
0.809016994374945 3.42705098312484 -0.809016994374945 0.809016994374945 
1.30901699437495 3.42705098312484 0.5 0 
1.30901699437495 3.42705098312484 -0.5 0 
-1.30901699437495 2.92705098312484 -1.30901699437495 1.30901699437495 
-0.809016994374945 3.42705098312484 -0.809016994374945 0.809016994374945 
0 2.92705098312484 -2.11803398874989 0.809016994374945 
-0.809016994374945 2.61803398874989 -2.11803398874989 1.30901699437495 
0 3.42705098312484 -1.30901699437495 0.5 

# Faces
5 1 0 2 14 7
5 18 3 0 1 17
5 2 15 11 3 0
5 4 5 16 19 6
5 5 17 1 7 4
5 12 6 4 7 14
5 8 9 16 19 10
5 9 8 11 3 18
5 8 10 13 15 11
5 6 12 13 10 19
5 13 12 14 2 15
5 5 16 9 18 17
5 6 30 21 20 19
5 16 33 22 20 19
5 20 21 31 27 22
5 32 5 4 23 34
5 6 30 28 23 4
5 25 24 26 34 32
5 24 25 33 22 27
5 24 26 29 31 27
5 28 23 34 26 29
5 30 28 29 31 21
5 5 32 25 33 16
5 1 0 35 46 38
5 0 35 47 43 3
5 17 37 36 38 1
5 48 37 36 39 49
5 39 36 38 46 44
5 41 48 49 42 40
5 41 18 3 43 40
5 42 45 47 43 40
5 45 42 49 39 44
5 45 47 35 46 44
5 17 18 41 48 37
5 49 50 51 63 48
5 52 50 49 39 60
5 51 57 61 52 50
5 37 62 64 53 36
5 53 36 39 60 58
5 55 54 56 64 62
5 55 63 51 57 54
5 59 56 54 57 61
5 58 59 56 64 53
5 58 60 52 61 59
5 48 63 55 62 37
5 34 32 62 64 65
5 65 34 26 71 66
5 66 65 64 56 72
5 24 67 74 73 25
5 26 71 69 67 24
5 55 73 74 68 54
5 54 68 70 72 56
5 69 67 74 68 70
5 70 69 71 66 72
5 62 32 25 73 55
5 20 75 88 86 21
5 75 20 22 85 82
5 76 31 21 86 77
5 87 77 76 78 89
5 31 27 83 78 76
5 87 80 79 81 89
5 88 80 79 82 75
5 81 84 85 82 79
5 83 84 81 89 78
5 84 85 22 27 83
5 80 87 77 86 88
5 74 90 91 96 67
5 92 90 74 68 100
5 102 91 90 92 103
5 93 95 104 101 94
5 94 102 91 96 93
5 67 96 93 95 69
5 97 98 101 104 99
5 97 100 92 103 98
5 68 100 97 99 70
5 95 69 70 99 104
5 101 94 102 103 98
5 106 105 89 78 108
5 89 105 107 112 81
5 106 113 114 107 105
5 94 93 108 106 113
5 83 96 93 108 78
5 91 111 109 110 102
5 114 110 109 112 107
5 111 84 81 112 109
5 84 83 96 91 111
5 102 94 113 114 110
5 50 115 122 125 51
5 126 52 50 115 128
5 117 126 52 61 116
5 116 117 127 129 118
5 57 123 118 116 61
5 119 121 129 127 120
5 120 119 122 115 128
5 119 121 124 125 122
5 124 123 57 51 125
5 123 118 129 121 124
5 117 127 120 128 126
5 130 129 118 133 131
5 129 121 137 132 130
5 130 131 138 139 132
5 97 98 138 131 133
5 97 133 118 123 100
5 92 136 134 135 103
5 135 139 132 137 134
5 134 137 121 124 136
5 124 136 92 100 123
5 103 98 138 139 135
5 153 141 140 142 154
5 143 140 141 146 151
5 142 148 152 143 140
5 144 146 141 153 145
5 75 147 144 145 88
5 144 146 151 149 147
5 80 154 142 148 79
5 82 150 152 148 79
5 82 150 149 147 75
5 150 152 143 151 149
5 80 154 153 145 88
5 140 155 162 165 142
5 168 155 140 143 166
5 152 156 157 166 143
5 167 157 156 158 169
5 148 163 158 156 152
5 160 167 169 161 159
5 160 159 162 155 168
5 159 162 165 164 161
5 164 163 148 142 165
5 163 164 161 169 158
5 166 168 160 167 157
5 170 169 158 173 171
5 178 171 170 172 179
5 170 169 161 177 172
5 109 110 178 171 173
5 158 173 109 112 163
5 174 175 114 107 176
5 175 179 172 177 174
5 161 177 174 176 164
5 107 176 164 163 112
5 175 114 110 178 179
5 42 187 193 180 40
5 40 43 192 189 180
5 43 192 182 181 47
5 181 183 194 191 182
5 45 47 181 183 185
5 184 186 194 183 185
5 42 187 184 185 45
5 184 186 190 193 187
5 189 180 193 190 188
5 188 189 192 182 191
5 194 191 188 190 186
5 195 196 190 186 197
5 196 202 200 198 195
5 195 197 203 204 198
5 203 199 184 186 197
5 184 187 115 128 199
5 120 204 198 200 119
5 119 200 202 201 122
5 190 196 202 201 193
5 122 201 193 187 115
5 199 128 120 204 203
5 8 10 147 149 205
5 8 11 213 211 205
5 214 146 144 206 209
5 147 10 13 206 144
5 207 15 11 213 208
5 13 15 207 209 206
5 208 212 214 209 207
5 151 149 205 211 210
5 146 214 212 210 151
5 213 211 210 212 208
5 216 208 212 217 215
5 216 182 191 218 215
5 223 218 215 217 222
5 219 210 211 224 221
5 210 212 217 222 219
5 189 224 221 220 188
5 223 220 188 191 218
5 208 216 182 192 213
5 211 224 189 192 213
5 221 219 222 223 220
5 166 219 221 225 157
5 168 227 222 219 166
5 229 225 157 167 230
5 220 221 225 229 226
5 223 220 226 232 231
5 222 227 228 231 223
5 168 227 228 233 160
5 226 232 234 230 229
5 231 228 233 234 232
5 167 230 234 233 160
5 170 171 236 243 235
5 172 239 244 235 170
5 134 236 171 178 135
5 137 134 236 243 241
5 179 238 237 239 172
5 139 238 237 240 132
5 239 244 242 240 237
5 137 241 242 240 132
5 241 242 244 235 243
5 135 178 179 238 139
5 195 196 226 232 245
5 195 198 249 248 245
5 226 196 202 246 229
5 229 246 243 235 230
5 241 200 202 246 243
5 234 232 245 248 247
5 234 230 235 244 247
5 242 249 248 247 244
5 200 241 242 249 198
5 141 254 252 155 140
5 143 166 219 210 151
5 217 251 250 227 222
5 250 227 168 155 252
5 250 251 253 254 252
5 253 214 146 141 254
5 212 217 251 253 214
5 167 230 235 170 169
5 157 156 255 259 225
5 158 156 255 257 173
5 225 229 246 256 259
5 243 246 256 258 236
5 173 257 258 236 171
5 257 258 256 259 255
5 180 261 260 224 189
5 256 262 261 260 259
5 225 221 224 260 259
5 220 188 190 196 226
5 201 202 246 256 262
5 201 193 180 261 262
5 263 264 267 269 265
5 264 275 273 266 263
5 265 270 272 266 263
5 267 268 280 275 264
5 268 277 276 269 267
5 270 271 276 269 265
5 270 272 278 279 271
5 274 273 266 272 278
5 275 273 274 281 280
5 279 271 276 277 282
5 282 279 278 274 281
5 268 277 282 281 280
5 284 295 288 285 283
5 284 296 292 286 283
5 283 285 264 275 286
5 264 285 288 287 267
5 287 267 268 297 289
5 288 295 293 289 287
5 280 290 291 297 268
5 275 286 292 290 280
5 296 292 290 291 294
5 293 295 284 296 294
5 294 293 289 297 291
5 298 300 281 274 299
5 299 298 301 310 303
5 298 300 307 311 301
5 278 302 303 299 274
5 278 302 304 312 279
5 302 303 310 308 304
5 279 312 306 305 282
5 282 281 300 307 305
5 305 306 309 311 307
5 308 309 306 312 304
5 308 309 311 301 310
5 298 300 317 314 313
5 301 319 318 313 298
5 175 318 313 314 174
5 315 177 174 314 317
5 311 237 238 319 301
5 239 316 307 311 237
5 315 317 300 307 316
5 177 315 316 239 172
5 175 318 319 238 179
5 296 320 321 323 292
5 165 320 321 176 164
5 296 320 165 162 294
5 315 322 291 290 317
5 290 317 314 323 292
5 321 176 174 314 323
5 177 161 159 322 315
5 294 162 159 322 291
5 324 326 329 332 325
5 325 330 333 327 324
5 326 253 251 327 324
5 328 254 253 326 329
5 295 328 254 252 293
5 329 332 288 295 328
5 288 332 325 330 287
5 331 289 287 330 333
5 327 251 250 331 333
5 250 331 289 293 252
5 335 345 347 336 334
5 335 325 330 337 334
5 334 337 344 342 336
5 325 335 345 338 324
5 346 338 324 327 348
5 339 340 346 348 341
5 340 347 336 342 339
5 341 339 342 344 343
5 327 333 343 341 348
5 333 330 337 344 343
5 346 338 345 347 340
5 334 336 357 351 349
5 334 337 269 265 349
5 350 270 265 349 351
5 270 271 358 352 350
5 350 351 357 355 352
5 271 358 354 353 276
5 344 353 276 269 337
5 342 344 353 354 356
5 355 356 342 336 357
5 356 355 352 358 354
5 312 359 360 364 304
5 360 370 372 361 359
5 312 306 369 361 359
5 363 362 364 360 370
5 362 365 373 371 363
5 308 365 362 364 304
5 367 371 373 368 366
5 366 369 361 372 367
5 366 368 309 306 369
5 309 368 373 365 308
5 370 372 367 371 363
5 352 376 360 359 358
5 361 359 358 354 381
5 374 375 370 360 376
5 375 382 383 377 374
5 352 376 374 377 355
5 379 378 380 383 382
5 378 379 372 361 381
5 378 380 356 354 381
5 377 355 356 380 383
5 375 370 372 379 382
5 346 388 216 215 348
5 348 215 218 387 341
5 182 216 388 384 181
5 384 181 183 390 389
5 340 389 390 385 339
5 339 385 386 387 341
5 194 386 385 390 183
5 194 191 218 387 386
5 384 389 340 346 388
5 391 390 183 185 392
5 383 391 390 385 380
5 391 383 382 394 392
5 184 185 392 394 199
5 378 393 197 203 379
5 380 385 386 393 378
5 386 194 186 197 393
5 203 379 382 394 199
5 129 127 371 373 130
5 132 240 368 373 130
5 119 121 137 241 200
5 198 204 367 366 249
5 368 240 242 249 366
5 367 204 120 127 371
5 395 396 403 401 397
5 395 398 402 404 396
5 395 398 406 405 397
5 400 86 21 30 399
5 399 400 405 397 401
5 30 399 401 403 28
5 76 402 398 406 77
5 29 404 402 76 31
5 29 28 403 396 404
5 400 86 77 406 405
5 395 407 420 418 396
5 395 407 414 417 398
5 408 404 396 418 409
5 408 409 419 421 410
5 410 408 404 402 415
5 419 412 411 413 421
5 411 412 420 407 414
5 411 414 417 416 413
5 410 415 416 413 421
5 398 417 416 415 402
5 412 419 409 418 420
5 95 410 421 422 104
5 421 413 427 423 422
5 101 104 422 423 428
5 93 108 415 410 95
5 113 425 424 426 106
5 424 425 428 423 427
5 424 427 413 416 426
5 108 415 416 426 106
5 94 101 428 425 113
5 104 99 436 429 422
5 423 433 437 429 422
5 99 436 434 133 97
5 431 138 131 432 430
5 423 433 430 431 428
5 430 433 437 435 432
5 434 435 437 429 436
5 435 434 133 131 432
5 138 98 101 428 431
5 439 450 452 440 438
5 439 438 441 448 444
5 441 438 440 447 449
5 450 443 442 444 439
5 442 436 429 451 443
5 442 436 434 448 444
5 446 445 447 440 452
5 437 445 446 451 429
5 435 449 447 445 437
5 435 449 441 448 434
5 443 451 446 452 450
5 418 409 456 454 453
5 418 453 455 459 420
5 453 454 457 458 455
5 409 456 443 451 419
5 454 456 443 450 457
5 452 461 458 457 450
5 459 455 458 461 460
5 460 462 412 420 459
5 446 462 460 461 452
5 451 419 412 462 446
5 4 7 470 468 23
5 14 463 464 470 7
5 463 464 469 471 465
5 463 14 12 466 465
5 6 30 399 466 12
5 401 471 465 466 399
5 28 403 467 468 23
5 403 467 469 471 401
5 467 469 464 470 468
5 473 464 469 474 472
5 472 473 480 478 475
5 472 474 455 458 475
5 467 453 454 481 468
5 453 467 469 474 455
5 457 476 477 481 454
5 476 457 458 475 478
5 476 477 479 480 478
5 464 473 480 479 470
5 470 479 477 481 468
5 75 20 19 10 147
5 8 9 485 486 205
5 482 483 485 486 484
5 482 85 22 33 483
5 85 482 484 150 82
5 150 484 486 205 149
5 485 9 16 33 483
5 42 49 50 115 187
5 41 489 261 180 40
5 63 488 487 125 51
5 488 487 262 261 489
5 122 201 262 487 125
5 48 63 488 489 41
5 485 489 261 260 486
5 255 484 486 260 259
5 482 483 492 493 490
5 482 484 255 257 490
5 487 488 492 493 491
5 256 262 487 491 258
5 258 257 490 493 491
5 488 492 483 485 489
5 91 111 490 493 90
5 92 90 493 491 136
5 111 490 257 173 109
5 258 236 134 136 491
5 102 110 178 135 103
5 438 439 498 497 494
5 441 500 499 494 438
5 60 495 496 126 52
5 496 495 497 494 499
5 60 58 498 497 495
5 116 448 441 500 117
5 448 116 61 59 444
5 439 498 58 59 444
5 117 126 496 499 500
5 479 38 36 53 477
5 502 501 480 478 504
5 479 38 46 501 480
5 46 501 502 503 44
5 58 498 476 477 53
5 478 476 498 497 504
5 495 60 39 44 503
5 495 497 504 502 503
5 34 65 481 468 23
5 53 477 481 65 64
5 470 7 1 38 479
5 37 17 5 32 62
5 9 485 489 41 18
5 25 73 492 483 33
5 488 63 55 73 492
5 454 456 66 65 481
5 450 439 498 476 457
5 72 442 443 456 66
5 444 59 56 72 442
5 57 54 68 100 123
5 99 70 72 442 436
5 118 133 434 448 116
5 492 73 74 90 493
5 124 125 487 491 136
5 421 422 429 451 419
5 411 412 462 509 505
5 411 413 427 507 505
5 445 506 509 462 446
5 437 445 506 508 433
5 508 506 509 505 507
5 423 433 508 507 427
5 89 87 512 510 105
5 107 176 321 510 105
5 79 148 163 112 81
5 321 510 512 511 320
5 165 142 154 511 320
5 87 512 511 154 80
5 86 400 513 145 88
5 405 400 513 516 514
5 145 513 516 518 153
5 406 77 87 512 517
5 405 406 517 515 514
5 514 515 519 518 516
5 511 519 515 517 512
5 518 153 154 511 519
5 106 105 510 522 426
5 318 425 424 520 313
5 522 426 424 520 521
5 323 321 510 522 521
5 313 520 521 323 314
5 114 175 318 425 113
5 524 529 414 417 523
5 524 528 521 522 523
5 417 523 522 426 416
5 411 505 526 529 414
5 505 526 525 527 507
5 526 529 524 528 525
5 520 527 525 528 521
5 427 507 527 520 424
5 395 407 534 531 397
5 530 514 405 397 531
5 514 515 535 532 530
5 532 530 531 534 533
5 524 535 515 517 523
5 398 406 517 523 417
5 532 533 529 524 535
5 533 529 414 407 534
5 396 403 467 453 418
5 455 459 536 537 474
5 407 420 459 536 534
5 536 534 531 538 537
5 401 397 531 538 471
5 469 474 537 538 471
5 84 85 482 490 111
5 150 484 255 156 152
5 318 425 428 431 319
5 139 238 319 431 138
5 513 400 399 466 539
5 145 513 539 206 144
5 12 13 206 539 466
5 289 331 541 540 297
5 277 542 540 297 268
5 540 541 544 543 542
5 267 269 337 330 287
5 277 542 543 353 276
5 353 344 343 544 543
5 333 343 544 541 331
5 339 342 356 380 385
5 353 543 547 381 354
5 341 343 544 545 387
5 544 543 547 546 545
5 387 545 546 393 386
5 378 381 547 546 393
5 297 540 548 322 291
5 548 540 542 549 550
5 280 290 317 300 281
5 282 305 549 542 277
5 307 316 550 549 305
5 316 550 548 322 315
5 549 305 306 369 551
5 309 311 237 240 368
5 369 551 248 249 366
5 549 550 247 248 551
5 316 239 244 247 550
5 197 195 245 546 393
5 547 551 248 245 546
5 361 369 551 547 381
5 372 367 204 203 379
5 153 141 254 328 518
5 518 328 295 284 519
5 511 320 296 284 519
5 155 162 294 293 252
5 217 251 327 348 215
5 208 216 388 552 207
5 552 207 209 554 553
5 324 338 553 554 326
5 209 214 253 326 554
5 338 553 552 388 346
5 211 205 486 260 224
5 3 11 213 192 43
5 250 227 228 541 331
5 544 541 228 231 545
5 223 218 387 545 231
5 335 559 557 349 334
5 264 285 556 555 263
5 265 349 557 555 263
5 558 556 555 557 559
5 332 325 335 559 558
5 558 332 288 285 556
5 285 283 535 532 556
5 524 535 283 286 528
5 555 263 266 561 560
5 556 532 533 560 555
5 266 561 526 525 273
5 525 273 275 286 528
5 529 533 560 561 526
5 279 271 358 359 312
5 272 566 562 350 270
5 350 352 376 564 562
5 302 278 272 566 563
5 304 302 563 565 364
5 564 376 360 364 565
5 564 565 563 566 562
5 509 567 561 526 505
5 506 563 566 567 509
5 266 561 567 566 272
5 525 273 274 299 527
5 303 508 506 563 302
5 299 527 507 508 303
5 283 535 515 519 284
5 510 522 523 517 512
5 292 286 528 521 323
5 298 313 520 527 299
5 301 310 430 431 319
5 310 430 433 508 303
5 131 130 373 365 432
5 308 310 430 432 365
5 24 27 83 96 67
5 76 402 415 108 78
5 509 462 460 568 567
5 568 567 561 560 569
5 459 460 568 569 536
5 533 534 536 569 560
5 566 562 571 568 567
5 461 570 571 568 460
5 452 461 570 572 440
5 571 562 564 572 570
5 445 506 563 565 447
5 564 565 447 440 572
5 364 362 449 447 565
5 362 449 435 432 365
5 363 500 441 449 362
5 117 500 363 371 127
5 494 438 440 572 575
5 461 458 475 573 570
5 574 573 570 572 575
5 574 504 478 475 573
5 494 575 574 504 497
5 29 26 71 408 404
5 69 95 410 408 71
5 71 408 409 456 66
5 560 555 557 576 569
5 350 562 571 577 351
5 576 569 568 571 577
5 349 557 576 577 351
5 375 499 494 575 374
5 376 564 572 575 374
5 370 375 499 500 363
5 474 537 579 578 472
5 578 472 475 573 580
5 569 536 537 579 576
5 570 573 580 577 571
5 577 580 578 579 576
5 581 539 466 465 582
5 513 539 581 583 516
5 581 583 584 585 582
5 530 514 516 583 584
5 530 531 538 585 584
5 465 582 585 538 471
5 558 584 530 532 556
5 516 518 328 329 583
5 584 558 332 329 583
5 472 473 589 591 578
5 464 463 586 589 473
5 465 463 586 590 582
5 587 585 582 590 588
5 587 579 578 591 588
5 538 585 587 579 537
5 586 589 591 588 590
5 594 35 0 2 593
5 14 2 593 586 463
5 480 473 589 592 501
5 46 501 592 594 35
5 589 586 593 594 592
5 585 587 559 558 584
5 559 587 579 576 557
5 232 231 545 546 245
5 542 549 551 547 543
5 206 209 554 581 539
5 326 554 581 583 329
5 159 322 548 233 160
5 550 247 234 233 548
5 335 345 588 587 559
5 578 591 596 595 580
5 336 357 595 596 347
5 351 357 595 580 577
5 591 596 347 345 588
5 390 391 597 599 389
5 597 391 383 377 598
5 595 598 597 599 596
5 357 355 377 598 595
5 340 347 596 599 389
5 581 554 553 590 582
5 590 553 338 345 588
5 540 548 233 228 541
5 573 574 598 595 580
5 574 598 377 374 575
5 495 503 392 394 496
5 185 45 44 503 392
5 199 128 126 496 394
5 2 15 207 552 593
5 35 594 384 181 47
5 388 552 593 594 384
5 503 392 391 597 502
5 598 574 504 502 597
5 375 499 496 394 382
5 552 593 586 590 553
5 597 502 501 592 599
5 389 384 594 592 599
5 591 589 592 599 596

# Cells
12 0 1 2 3 4 5 6 7 8 9 10 11
12 3 12 13 14 15 16 17 18 19 20 21 22
12 1 23 24 25 26 27 28 29 30 31 32 33
12 26 34 35 36 37 38 39 40 41 42 43 44
12 17 39 45 46 47 48 49 50 51 52 53 54
12 14 55 56 57 58 59 60 61 62 63 64 65
12 52 66 67 68 69 70 71 72 73 74 75 76
12 63 70 77 78 79 80 81 82 83 84 85 86
12 36 87 88 89 90 91 92 93 94 95 96 97
12 73 96 98 99 100 101 102 103 104 105 106 107
12 61 108 109 110 111 112 113 114 115 116 117 118
12 110 119 120 121 122 123 124 125 126 127 128 129
12 83 128 130 131 132 133 134 135 136 137 138 139
12 30 140 141 142 143 144 145 146 147 148 149 150
12 93 147 151 152 153 154 155 156 157 158 159 160
12 8 113 161 162 163 164 165 166 167 168 169 170
12 149 170 171 172 173 174 175 176 177 178 179 180
12 129 180 181 182 183 184 185 186 187 188 189 190
12 104 131 191 192 193 194 195 196 197 198 199 200
12 152 188 199 201 202 203 204 205 206 207 208 209
12 109 120 169 175 182 210 211 212 213 214 215 216
12 122 130 183 191 204 217 218 219 220 221 222 223
12 148 158 176 184 203 220 224 225 226 227 228 229
12 230 231 232 233 234 235 236 237 238 239 240 241
12 233 242 243 244 245 246 247 248 249 250 251 252
12 240 253 254 255 256 257 258 259 260 261 262 263
12 136 195 255 264 265 266 267 268 269 270 271 272
12 126 137 250 267 273 274 275 276 277 278 279 280
12 214 247 281 282 283 284 285 286 287 288 289 290
12 282 291 292 293 294 295 296 297 298 299 300 301
12 235 293 302 303 304 305 306 307 308 309 310 311
12 262 312 313 314 315 316 317 318 319 320 321 322
12 311 313 323 324 325 326 327 328 329 330 331 332
12 143 172 296 333 334 335 336 337 338 339 340 341
12 145 154 328 339 342 343 344 345 346 347 348 349
12 92 99 156 198 209 318 350 351 352 353 354 355
12 21 57 356 357 358 359 360 361 362 363 364 365
12 357 366 367 368 369 370 371 372 373 374 375 376
12 69 80 374 377 378 379 380 381 382 383 384 385
12 72 101 379 386 387 388 389 390 391 392 393 394
12 392 395 396 397 398 399 400 401 402 403 404 405
12 376 405 406 407 408 409 410 411 412 413 414 415
12 5 16 361 416 417 418 419 420 421 422 423 424
12 408 424 425 426 427 428 429 430 431 432 433 434
12 6 13 56 116 161 435 436 437 438 439 440 441
12 28 34 87 140 159 229 442 443 444 445 446 447
12 223 225 437 445 448 449 450 451 452 453 454 455
12 68 82 103 133 193 222 454 456 457 458 459 460
12 43 89 396 461 462 463 464 465 466 467 468 469
12 27 38 432 465 470 471 472 473 474 475 476 477
12 4 15 25 37 45 416 434 470 478 479 480 481
12 11 22 33 44 54 441 447 455 481 482 483 484
12 42 47 398 410 430 468 474 479 485 486 487 488
12 41 51 74 91 102 388 400 467 488 489 490 491
12 40 50 67 95 106 444 452 457 484 489 492 493
12 371 378 387 402 415 494 495 496 497 498 499 500
12 60 78 114 127 138 274 501 502 503 504 505 506
12 65 118 365 506 507 508 509 510 511 512 513 514
12 79 135 266 278 381 502 515 516 517 518 519 520
12 373 383 496 517 521 522 523 524 525 526 527 528
12 358 367 511 521 529 530 531 532 533 534 535 536
12 356 366 407 423 429 529 537 538 539 540 541 542
12 62 84 115 123 134 219 439 451 458 503 543 544
12 76 86 107 139 200 272 385 394 460 520 545 546
12 9 12 55 112 164 359 420 435 507 547 548 549
12 234 246 288 300 308 550 551 552 553 554 555 556
12 298 309 330 338 347 555 557 558 559 560 561 562
12 241 248 260 270 276 551 563 564 565 566 567 568
12 197 208 261 269 320 354 567 569 570 571 572 573
12 153 202 319 329 346 353 562 571 574 575 576 577
12 108 119 210 251 275 285 505 514 578 579 580 581
12 167 171 216 283 295 333 582 583 584 585 586 587
12 7 29 141 162 179 224 436 443 448 482 588 589
12 94 105 157 194 205 221 228 352 446 453 459 493
12 173 186 212 289 299 334 556 559 582 590 591 592
12 230 245 287 292 303 553 593 594 595 596 597 598
12 231 244 526 535 594 599 600 601 602 603 604 605
12 236 257 305 312 323 606 607 608 609 610 611 612
12 237 256 499 525 603 609 613 614 615 616 617 618
12 243 273 504 513 518 522 533 580 600 619 620 621
12 254 265 382 390 500 516 528 545 618 622 623 624
12 100 196 263 268 321 351 389 546 570 623 625 626
12 18 48 64 66 85 438 450 456 483 492 543 627
12 58 77 362 375 384 501 510 515 523 534 620 628
12 372 413 495 524 536 539 605 613 629 630 631 632
12 401 414 497 612 614 629 633 634 635 636 637 638
12 258 317 391 403 498 610 617 624 626 637 639 640
12 90 98 316 350 393 404 466 491 625 640 641 642
12 395 411 431 461 475 486 635 643 644 645 646 647
12 19 49 59 71 81 363 370 380 627 628 648 649
12 20 46 364 368 406 422 428 478 485 537 648 650
12 238 249 253 264 277 519 527 565 604 616 621 622
12 232 304 595 601 607 615 630 633 651 652 653 654
12 315 325 397 462 611 638 639 641 643 655 656 657
12 412 427 538 631 634 644 653 658 659 660 661 662
12 53 75 369 377 386 399 409 487 490 494 649 650
12 360 421 508 530 541 547 663 664 665 666 667 668
12 242 286 512 531 579 598 599 619 666 669 670 671
12 418 425 542 658 668 672 673 674 675 676 677 678
12 0 23 417 433 472 480 673 679 680 681 682 683
12 532 540 596 602 632 651 660 667 669 677 684 685
12 150 151 177 185 201 227 340 348 561 574 592 686
12 239 259 307 314 324 554 558 566 569 576 606 687
12 117 121 168 174 181 211 218 226 440 449 544 588
12 111 163 215 284 509 548 578 586 664 670 688 689
12 124 132 190 192 207 217 271 279 568 573 690 691
12 291 302 593 654 662 676 685 692 693 694 695 696
12 297 310 331 337 343 557 694 697 698 699 700 701
12 281 294 585 597 665 671 675 684 689 692 702 703
12 189 206 552 560 564 572 575 591 686 687 691 704
12 125 187 213 252 280 290 550 563 581 590 690 704
12 306 327 608 636 645 652 656 661 695 700 705 706
12 31 35 88 146 155 345 442 463 476 707 708 709
12 2 24 142 165 178 335 583 589 679 710 711 712
12 326 344 464 477 647 655 698 706 707 713 714 715
12 97 160 322 332 349 355 469 577 642 657 709 715
12 10 166 419 549 584 663 674 680 688 702 710 716
12 32 144 336 342 473 682 697 708 711 713 717 718
12 426 471 646 659 672 681 693 699 705 714 717 719
12 301 341 587 678 683 696 701 703 712 716 718 719
