# Generated using Miratope v0.5.0 (https://github.com/galoomba1/miratope-rs)
4OFF

# Vertices, Faces, Edges, Cells
120 2520 1200 720

# Vertices
0.809016994374945 -0.809016994374945 -0.809016994374945 0.809016994374945 
0 -1.61803398874989 0 0 
0 0 -1.61803398874989 0 
1.30901699437495 0.5 0 0.809016994374945 
-0.809016994374945 -0.809016994374945 -0.809016994374945 -0.809016994374945 
-0.809016994374945 0 0.5 -1.30901699437495 
0 -0.809016994374945 1.30901699437495 -0.5 
0.5 1.30901699437495 -0.809016994374945 0 
0.809016994374945 0.5 1.30901699437495 0 
0 1.30901699437495 0.5 -0.809016994374945 
0.809016994374945 -0.809016994374945 0.809016994374945 0.809016994374945 
-0.809016994374945 -0.809016994374945 0.809016994374945 0.809016994374945 
1.30901699437495 0 0.809016994374945 -0.5 
-0.809016994374945 -0.809016994374945 -0.809016994374945 0.809016994374945 
1.30901699437495 0 -0.809016994374945 -0.5 
-1.30901699437495 0 0.809016994374945 -0.5 
-1.30901699437495 0 -0.809016994374945 -0.5 
0 0.5 0.809016994374945 -1.30901699437495 
0 0.5 -0.809016994374945 -1.30901699437495 
0.809016994374945 -0.809016994374945 0.809016994374945 -0.809016994374945 
0.809016994374945 -0.809016994374945 -0.809016994374945 -0.809016994374945 
-0.809016994374945 -0.809016994374945 0.809016994374945 -0.809016994374945 
0.809016994374945 0.5 -1.30901699437495 0 
-0.809016994374945 0.5 1.30901699437495 0 
-0.809016994374945 0.5 -1.30901699437495 0 
0.809016994374945 1.30901699437495 0 0.5 
-0.809016994374945 1.30901699437495 0 0.5 
-0.809016994374945 0.809016994374945 -0.809016994374945 0.809016994374945 
-0.809016994374945 0.809016994374945 -0.809016994374945 -0.809016994374945 
0.5 0.809016994374945 0 1.30901699437495 
0.5 0.809016994374945 0 -1.30901699437495 
0.5 -0.809016994374945 0 1.30901699437495 
0.5 -0.809016994374945 0 -1.30901699437495 
1.30901699437495 0.809016994374945 0.5 0 
1.30901699437495 -0.809016994374945 0.5 0 
0.809016994374945 0.809016994374945 -0.809016994374945 0.809016994374945 
0.809016994374945 0.809016994374945 -0.809016994374945 -0.809016994374945 
0 1.30901699437495 0.5 0.809016994374945 
0 -1.30901699437495 0.5 0.809016994374945 
0 -1.30901699437495 0.5 -0.809016994374945 
-0.5 0 1.30901699437495 0.809016994374945 
-0.5 0 1.30901699437495 -0.809016994374945 
0 0 1.61803398874989 0 
0.809016994374945 0 -0.5 -1.30901699437495 
-1.30901699437495 0.5 0 0.809016994374945 
-0.5 1.30901699437495 0.809016994374945 0 
0 -0.809016994374945 -1.30901699437495 -0.5 
0 1.30901699437495 -0.5 -0.809016994374945 
-0.809016994374945 0.809016994374945 0.809016994374945 -0.809016994374945 
-1.61803398874989 0 0 0 
0 0 0 -1.61803398874989 
0.5 1.30901699437495 0.809016994374945 0 
0 -0.809016994374945 -1.30901699437495 0.5 
-0.809016994374945 0 -0.5 1.30901699437495 
1.30901699437495 0.5 0 -0.809016994374945 
1.30901699437495 0 -0.809016994374945 0.5 
0 0 0 1.61803398874989 
0 0.809016994374945 -1.30901699437495 -0.5 
0.5 -1.30901699437495 0.809016994374945 0 
1.30901699437495 -0.5 0 0.809016994374945 
-0.809016994374945 0 -0.5 -1.30901699437495 
0.809016994374945 0.809016994374945 0.809016994374945 0.809016994374945 
1.61803398874989 0 0 0 
0 0.809016994374945 1.30901699437495 -0.5 
-0.5 -1.30901699437495 -0.809016994374945 0 
0.809016994374945 0 0.5 -1.30901699437495 
-1.30901699437495 -0.5 0 0.809016994374945 
-0.5 -0.809016994374945 0 -1.30901699437495 
-0.5 1.30901699437495 -0.809016994374945 0 
0 -0.809016994374945 1.30901699437495 0.5 
0.809016994374945 0 0.5 1.30901699437495 
-1.30901699437495 0.5 0 -0.809016994374945 
-0.5 0.809016994374945 0 1.30901699437495 
-1.30901699437495 0 0.809016994374945 0.5 
0 1.61803398874989 0 0 
1.30901699437495 -0.5 0 -0.809016994374945 
-0.809016994374945 0 0.5 1.30901699437495 
0 0.809016994374945 1.30901699437495 0.5 
0.5 -1.30901699437495 -0.809016994374945 0 
0.809016994374945 -0.5 1.30901699437495 0 
-0.809016994374945 0.809016994374945 0.809016994374945 0.809016994374945 
0 1.30901699437495 -0.5 0.809016994374945 
0 -1.30901699437495 -0.5 0.809016994374945 
0 -1.30901699437495 -0.5 -0.809016994374945 
0.5 0 -1.30901699437495 0.809016994374945 
0.5 0 -1.30901699437495 -0.809016994374945 
0.809016994374945 0.809016994374945 0.809016994374945 -0.809016994374945 
-0.5 0.809016994374945 0 -1.30901699437495 
-0.5 -0.809016994374945 0 1.30901699437495 
-1.30901699437495 0.809016994374945 -0.5 0 
-1.30901699437495 -0.809016994374945 -0.5 0 
0.809016994374945 -0.5 -1.30901699437495 0 
-0.809016994374945 -0.5 1.30901699437495 0 
-0.809016994374945 -0.5 -1.30901699437495 0 
0.809016994374945 -1.30901699437495 0 -0.5 
-0.809016994374945 -1.30901699437495 0 -0.5 
1.30901699437495 0 0.809016994374945 0.5 
-1.30901699437495 0 -0.809016994374945 0.5 
0 -0.5 0.809016994374945 1.30901699437495 
0 -0.5 -0.809016994374945 1.30901699437495 
0.809016994374945 0 -0.5 1.30901699437495 
-1.30901699437495 -0.5 0 -0.809016994374945 
0 0.809016994374945 -1.30901699437495 0.5 
-0.5 -1.30901699437495 0.809016994374945 0 
-0.809016994374945 1.30901699437495 0 -0.5 
1.30901699437495 -0.809016994374945 -0.5 0 
0.809016994374945 1.30901699437495 0 -0.5 
-1.30901699437495 -0.809016994374945 0.5 0 
0.5 0 1.30901699437495 0.809016994374945 
0 -0.5 -0.809016994374945 -1.30901699437495 
0 0.5 -0.809016994374945 1.30901699437495 
0.5 0 1.30901699437495 -0.809016994374945 
0.809016994374945 -1.30901699437495 0 0.5 
-1.30901699437495 0.809016994374945 0.5 0 
1.30901699437495 0.809016994374945 -0.5 0 
-0.809016994374945 -1.30901699437495 0 0.5 
0 0.5 0.809016994374945 1.30901699437495 
-0.5 0 -1.30901699437495 -0.809016994374945 
0 -0.5 0.809016994374945 -1.30901699437495 
-0.5 0 -1.30901699437495 0.809016994374945 

# Faces
4 1 4 2 0
5 1 0 3 8 6
4 0 3 7 2
4 4 1 6 5
5 4 2 7 9 5
4 3 7 9 8
4 8 6 5 9
4 10 0 13 11
4 10 12 14 0
5 10 12 17 15 11
5 0 13 16 18 14
4 11 13 16 15
4 14 12 17 18
4 15 16 18 17
4 19 21 4 20
5 19 8 25 22 20
4 19 8 23 21
4 4 20 22 24
5 21 23 26 24 4
4 25 26 23 8
4 26 24 22 25
4 28 27 13 4
5 28 27 29 33 30
4 27 29 31 13
4 28 30 32 4
5 13 31 34 32 4
4 29 31 34 33
4 34 33 30 32
4 35 0 20 36
4 36 9 37 35
5 37 35 0 38 40
5 20 39 41 9 36
4 20 0 38 39
4 40 37 9 41
4 40 41 39 38
4 42 19 1 11
5 19 43 47 45 42
4 1 46 43 19
4 42 11 44 45
5 1 46 24 44 11
4 47 24 44 45
4 47 43 46 24
4 48 50 4 49
5 48 51 29 53 49
4 48 50 54 51
4 4 52 53 49
5 54 50 4 52 55
4 51 29 55 54
4 29 55 52 53
4 56 27 49 11
5 56 27 57 14 59
4 27 49 60 57
4 56 59 58 11
5 49 60 32 58 11
4 14 59 58 32
4 14 32 60 57
4 62 61 56 0
4 62 65 63 61
5 61 56 66 15 63
5 0 64 67 65 62
4 0 64 66 56
4 65 63 15 67
4 66 64 67 15
4 62 19 50 36
5 62 70 72 68 36
4 36 50 71 68
4 19 62 70 69
5 69 19 50 71 73
4 72 73 69 70
4 72 73 71 68
4 36 74 27 2
5 74 36 75 79 77
4 2 78 75 36
4 74 77 76 27
5 27 2 78 38 76
4 79 38 76 77
4 79 38 78 75
4 80 11 21 48
4 48 80 81 47
5 81 80 11 82 84
5 21 83 85 47 48
4 21 11 82 83
4 81 47 85 84
4 84 85 83 82
4 86 19 10 61
5 72 61 86 87 89
4 10 88 72 61
4 86 19 67 87
5 19 67 90 88 10
4 88 72 89 90
4 89 90 67 87
4 35 27 80 61
5 61 79 94 91 35
4 61 80 92 79
4 35 91 93 27
5 80 92 95 93 27
4 79 94 95 92
4 91 93 95 94
4 36 28 48 86
4 86 36 55 96
5 86 96 98 73 48
5 36 55 99 97 28
4 48 73 97 28
4 96 98 99 55
4 98 73 97 99
4 61 74 48 42
4 74 102 100 61
5 42 61 100 82 103
5 74 102 93 101 48
4 48 101 103 42
4 100 102 93 82
4 103 82 93 101
4 21 1 13 49
4 49 21 17 104
5 21 17 54 105 1
5 49 13 84 7 104
4 13 84 105 1
4 7 54 105 84
4 7 104 17 54
4 62 10 1 20
5 10 40 45 106 62
4 1 107 40 10
4 62 106 18 20
5 20 18 71 107 1
4 45 106 18 71
4 45 71 107 40
4 56 13 2 35
4 56 108 33 35
5 2 35 33 65 109
5 56 13 95 6 108
4 2 13 95 109
4 33 108 6 65
4 65 109 95 6
4 2 28 50 20
5 20 2 110 70 34
4 50 111 34 20
4 28 2 110 26
5 50 111 77 26 28
4 70 77 111 34
4 70 77 26 110
4 86 62 35 74
5 86 41 103 112 62
4 86 41 113 74
4 62 112 99 35
5 99 35 74 113 66
4 41 103 66 113
4 112 103 66 99
4 80 74 28 49
5 80 74 114 59 98
4 49 115 98 80
4 74 114 85 28
5 49 28 85 78 115
4 114 85 78 59
4 98 115 78 59
4 86 50 21 42
4 42 86 25 116
5 50 86 25 102 117
5 116 42 21 90 53
4 50 117 90 21
4 25 116 53 102
4 102 117 90 53
4 42 80 56 10
4 42 10 94 118
5 10 56 119 46 94
5 42 118 60 89 80
4 80 56 119 89
4 119 46 60 89
4 118 60 46 94
4 62 86 47 22
4 86 41 71 47
4 112 62 22 52
4 103 90 71 41
5 22 52 90 71 47
4 112 52 90 103
4 48 111 33 74
4 48 111 39 101
4 102 55 33 74
5 33 111 39 78 55
4 55 102 93 78
4 39 101 93 78
4 59 35 106 12
4 59 35 119 82
5 35 119 16 87 106
5 12 59 82 95 118
4 12 106 87 118
4 87 118 95 16
4 119 16 95 82
5 114 51 42 58 105
4 51 104 15 42
4 42 58 95 15
4 114 51 104 57
4 105 114 57 46
4 105 46 95 58
5 104 15 95 46 57
5 31 115 21 111 96
4 21 111 30 60
4 21 60 93 115
4 96 114 84 31
4 114 30 111 96
5 84 114 30 60 93
4 31 115 93 84
4 19 17 51 96
5 96 19 83 52 100
4 17 60 83 19
4 96 51 81 100
5 17 51 81 24 60
4 81 100 52 24
4 24 60 83 52
4 36 91 59 33
4 33 36 87 63
5 91 64 101 87 36
5 63 33 59 38 92
4 59 38 64 91
4 63 92 101 87
4 92 38 64 101
4 35 61 45 68
4 61 79 41 45
4 68 35 91 117
4 79 94 67 41
5 68 117 67 41 45
4 94 91 117 67
4 50 39 79 86
4 25 70 79 86
4 39 50 117 64
4 25 102 99 70
5 70 79 39 64 99
4 117 64 99 102
4 21 69 77 48
4 47 25 77 48
4 21 69 112 83
5 55 25 77 69 112
4 47 25 55 85
4 85 55 112 83
4 61 42 17 106
4 106 61 100 22
4 103 67 17 42
5 106 22 46 67 17
4 100 82 46 22
4 82 103 67 46
4 74 29 108 63
4 74 29 84 57
5 63 74 57 109 118
5 29 84 78 58 108
4 63 108 58 118
4 58 118 109 78
4 57 109 78 84
4 2 14 106 68
4 2 14 94 64
5 68 2 64 107 113
5 63 6 94 14 106
4 106 63 113 68
4 63 113 107 6
4 6 107 64 94
4 0 62 25 110
4 64 97 110 0
4 65 9 25 62
5 9 71 97 110 25
4 65 9 71 67
4 67 71 97 64
4 36 28 5 65
4 55 36 65 34
4 97 28 5 107
4 99 38 34 55
5 65 34 38 107 5
4 99 38 107 97
4 49 28 9 23
4 85 54 9 28
4 115 69 23 49
5 34 54 9 23 69
4 85 54 34 78
4 34 78 115 69
4 19 10 3 54
4 10 88 110 3
4 67 18 54 19
5 54 3 110 24 18
4 110 88 90 24
4 67 18 24 90
4 27 37 3 84
5 27 37 63 5 16
4 84 27 16 46
4 37 63 12 3
5 3 12 32 46 84
4 12 63 5 32
4 32 46 16 5
5 3 31 11 23 51
4 23 5 95 11
4 11 31 78 95
4 51 30 14 3
4 3 31 78 14
4 23 5 30 51
5 14 78 95 5 30
5 10 116 81 22 105
4 10 116 23 6
4 10 105 32 6
4 116 23 104 81
4 104 18 22 81
5 23 6 32 18 104
4 105 32 18 22
4 69 111 32 1
5 116 69 1 52 110
4 32 85 52 1
4 116 51 7 110
4 116 51 111 69
5 7 85 32 111 51
4 7 85 52 110
4 28 7 37 113
4 7 14 109 28
5 28 109 39 92 113
5 37 7 14 34 108
4 37 108 92 113
4 108 92 39 34
4 14 109 39 34
4 50 4 107 41
4 52 88 107 4
4 50 41 8 54
4 8 54 55 70
5 8 70 88 107 41
4 55 52 88 70
4 56 10 8 37
4 94 65 8 10
4 56 37 68 119
5 8 65 18 68 37
4 68 119 46 18
4 46 18 65 94
4 75 114 47 50
5 50 101 115 112 75
4 47 50 101 89
4 100 112 75 114
5 100 53 89 47 114
4 53 115 112 100
4 53 89 101 115
5 75 30 48 92 58
4 92 66 89 48
4 48 30 57 89
4 58 75 91 82
4 75 30 57 91
4 92 58 82 66
5 89 57 91 82 66
4 86 114 81 45
5 86 118 83 91 114
4 86 118 15 45
4 114 81 119 91
5 45 15 90 119 81
4 118 83 90 15
4 119 90 83 91
4 80 74 87 15
4 80 98 103 15
4 114 74 87 43
4 59 114 43 94
4 98 59 94 103
5 94 103 15 87 43
4 86 114 29 77
4 118 92 77 86
5 92 77 29 99 115
4 29 114 91 99
4 118 83 115 92
4 91 83 115 99
4 42 98 112 19
4 19 43 91 112
4 45 72 98 42
4 45 47 102 72
5 72 102 91 112 98
4 43 91 102 47
4 74 89 117 36
4 75 36 117 83
4 74 89 73 77
4 79 103 73 77
4 75 83 103 79
5 89 117 83 103 73
4 61 86 75 59
4 61 72 99 59
4 87 109 75 86
5 59 75 109 93 99
4 89 93 99 72
4 87 89 93 109
4 62 79 98 100
4 62 43 118 79
5 62 43 117 119 100
5 66 98 79 118 101
4 100 98 66 119
4 119 117 101 66
4 43 118 101 117
4 86 43 60 48
4 86 96 105 43
4 73 90 60 48
4 98 82 105 96
4 98 73 90 82
5 105 43 60 90 82
5 81 61 12 43 57
4 12 61 98 58
4 61 98 53 81
4 58 83 43 12
4 53 81 57 93
5 53 98 58 83 93
4 43 83 93 57
4 80 29 96 42
4 89 102 29 80
4 42 96 75 118
5 96 75 85 102 29
4 118 75 85 60
4 89 102 85 60
4 30 74 35 14
4 35 14 78 99
4 113 5 30 74
4 66 95 78 99
4 113 5 95 66
5 0 22 68 44 88
4 88 103 94 0
4 0 94 43 22
4 15 44 68 87
4 68 87 43 22
4 88 103 15 44
4 36 20 52 102
4 9 26 102 36
4 20 39 115 52
4 9 26 73 41
5 26 102 52 115 73
4 39 115 73 41
4 50 9 33 75
4 9 50 101 113
5 33 70 76 113 9
4 33 75 112 70
4 115 76 70 112
4 115 76 113 101
4 19 20 64 103
4 19 103 40 8
4 22 119 64 20
4 8 25 72 40
4 25 22 119 72
5 72 40 103 64 119
4 27 56 40 113
4 27 113 87 57
4 59 56 40 79
4 59 14 65 79
5 79 40 113 87 65
4 57 87 65 14
4 11 49 26 116
4 58 96 116 11
4 49 60 47 26
5 54 96 116 26 47
4 58 96 54 32
4 54 32 60 47
5 108 80 104 30 12
4 80 108 31 53
4 80 53 24 104
4 108 12 105 31
4 12 30 85 105
5 53 31 105 85 24
4 104 30 85 24
4 21 32 12 42
4 21 32 46 90
4 116 3 12 42
4 116 3 84 53
4 46 90 53 84
4 108 38 66 80
4 80 104 16 66
4 12 94 38 108
4 30 12 94 109
4 30 109 16 104
5 38 66 16 109 94
4 85 4 97 102
5 4 97 76 69 39
4 85 75 39 4
4 96 29 76 69
4 96 75 39 69
4 29 76 97 102
4 100 116 8 62
4 43 17 8 62
5 116 44 71 17 8
4 100 116 44 119
4 119 44 71 117
4 43 17 71 117
4 21 1 88 73
4 21 17 45 73
4 105 100 88 1
5 25 100 88 73 45
4 105 100 25 54
4 45 17 54 25
4 48 26 76 92
4 48 26 7 30
5 26 7 55 31 76
4 30 7 55 75
4 55 75 58 31
4 92 76 31 58
4 80 63 6 11
4 80 63 106 81
4 82 94 6 11
4 14 84 81 106
4 94 82 84 14
5 56 44 104 106 3
4 3 105 82 56
4 56 82 90 44
4 3 105 43 106
4 106 43 60 104
4 44 90 60 104
4 80 51 7 27
4 111 92 80 51
4 27 7 85 93
4 95 32 111 92
4 93 85 32 95
4 85 50 19 105
4 69 31 105 19
4 71 24 85 50
4 53 73 69 31
4 71 24 53 73
4 109 36 62 94
4 68 16 109 36
4 62 94 38 70
4 38 70 72 66
4 66 72 68 16
4 79 112 20 65
5 20 112 88 97 117
4 65 20 117 87
4 79 112 88 40
4 40 113 97 88
4 113 97 117 87
4 2 97 72 35
4 35 72 77 33
4 109 101 97 2
4 65 41 77 33
5 72 77 41 101 97
4 65 109 101 41
4 96 112 20 54
4 117 47 54 20
4 116 88 112 96
4 88 116 26 97
4 117 47 26 97
4 12 61 40 6
4 61 40 44 81
4 12 6 67 43
5 44 40 6 67 16
4 81 57 16 44
4 57 16 67 43
5 76 49 5 111 108
4 99 76 49 93
4 93 49 5 109
4 59 108 76 99
4 75 111 108 59
4 111 75 109 5
4 3 34 38 56
4 107 44 56 38
4 106 65 34 3
4 106 65 5 104
4 104 5 107 44
4 0 34 69 88
4 0 34 54 22
4 9 68 22 54
4 68 9 23 44
4 23 44 88 69
5 23 107 13 110 37
4 110 55 78 13
4 13 78 39 107
4 55 110 37 33
4 111 23 37 33
4 39 107 23 111
4 20 55 31 1
4 20 55 7 18
4 76 107 1 31
4 76 107 71 26
4 7 18 71 26
4 46 13 110 22
4 107 67 46 13
4 23 17 106 37
4 37 106 22 110
4 67 107 23 17
4 104 27 2 18
4 104 27 76 23
4 78 32 18 2
4 6 38 76 23
4 32 78 38 6
4 11 108 34 1
4 108 11 44 37
4 46 14 34 1
4 44 37 7 24
4 24 7 14 46
4 44 13 4 71
4 13 44 116 31
4 17 32 4 71
4 116 31 34 8
4 32 17 8 34
4 76 110 24 49
4 24 49 5 18
4 3 108 111 54
4 110 76 108 3
4 18 5 111 54
4 70 0 13 76
4 0 70 33 14
4 16 113 76 13
4 14 33 9 18
4 16 113 9 18
4 4 18 68 97
4 65 39 4 18
4 8 69 76 37
4 65 39 69 8
4 68 97 76 37
4 16 2 20 67
4 34 6 67 20
4 44 110 2 16
4 70 40 6 34
4 70 40 44 110
4 42 73 26 51
4 115 58 42 73
4 102 114 51 26
4 52 105 114 102
4 105 52 115 58
4 49 95 118 48
4 51 12 118 48
4 95 49 53 82
4 12 51 29 59
4 82 53 29 59
4 53 11 10 100
4 100 10 12 114
4 15 89 53 11
4 47 17 12 114
4 15 89 47 17
4 10 82 91 62
4 40 66 82 10
4 57 106 62 91
4 89 45 106 57
4 45 89 66 40
4 28 101 66 27
4 66 27 29 98
4 101 28 30 118
4 79 33 29 98
4 118 30 33 79
4 19 41 77 96
4 19 41 101 83
4 77 96 100 72
4 72 100 52 97
4 83 101 97 52
4 91 100 25 36
4 36 25 45 87
4 100 91 64 88
4 101 73 45 87
4 88 64 101 73
4 72 113 28 102
4 109 91 102 28
4 113 72 98 92
4 39 112 98 92
4 91 109 39 112
4 72 74 63 40
4 57 119 72 74
4 40 63 118 103
4 64 109 118 103
4 57 119 64 109
4 116 73 103 10
4 83 105 10 103
4 81 89 73 116
4 117 22 81 89
4 105 83 117 22
4 61 114 84 56
4 30 63 61 114
4 93 66 56 84
4 63 30 60 15
4 66 93 60 15
4 50 83 93 28
4 26 53 93 28
4 111 58 83 50
4 77 98 53 26
4 111 58 98 77
4 38 13 49 92
4 13 38 59 84
4 104 63 92 49
4 84 59 33 7
4 33 7 104 63
4 1 90 119 0
4 3 81 119 0
4 1 90 15 6
4 81 3 8 45
4 6 15 45 8
4 111 9 71 21
4 21 71 97 115
4 110 31 96 25
4 25 96 111 9
4 31 110 97 115
4 25 68 2 55
4 64 112 55 2
4 68 25 77 113
4 77 113 107 69
4 69 107 64 112
4 70 35 106 8
4 70 35 119 88
4 8 106 87 41
4 16 107 88 119
4 87 41 107 16
4 37 70 99 27
4 27 99 64 16
4 70 37 63 79
4 5 39 79 63
4 16 64 39 5
4 23 71 90 11
4 90 11 31 52
4 3 22 47 51
4 3 22 52 31
4 23 71 47 51
4 58 21 4 78
4 108 23 21 58
4 84 24 4 78
4 23 108 29 26
4 24 84 29 26
4 81 56 13 24
4 60 95 13 24
4 56 81 51 108
4 17 6 108 51
4 95 60 17 6
4 46 0 35 57
4 37 104 57 35
4 0 46 95 38
4 15 40 37 104
4 15 40 38 95
4 2 99 115 4
4 4 115 92 5
4 2 99 29 7
4 77 9 7 29
4 9 77 92 5
4 67 1 69 41
4 1 67 117 52
4 45 116 69 41
4 68 110 116 45
4 117 52 110 68
5 105 1 0 94 82
4 0 2 109 94
4 1 4 85 105
5 4 85 93 109 2
4 82 93 85 105
4 93 82 94 109
4 0 64 103 10
5 11 58 98 103 10
5 0 13 78 99 64
4 11 13 78 58
4 99 78 58 98
4 98 99 64 103
5 19 20 65 94 43
4 19 43 60 21
4 5 65 20 4
5 21 4 5 95 60
4 95 5 65 94
4 94 43 60 95
5 27 57 89 102 28
4 57 27 13 46
4 52 4 28 102
5 13 46 90 52 4
4 89 102 52 90
4 90 46 57 89
4 35 59 75 36
5 0 35 59 84 3
5 85 75 36 20 54
4 0 20 54 3
4 85 54 3 84
4 85 75 59 84
5 41 19 42 118 79
4 1 19 41 107
4 118 42 11 95
5 107 1 11 95 38
4 38 79 41 107
4 118 79 38 95
5 49 104 15 89 48
4 50 117 89 48
4 49 4 18 104
5 50 4 18 67 117
4 67 18 104 15
4 67 15 89 117
5 99 27 56 119 72
4 49 115 99 27
4 56 119 90 11
5 11 90 73 115 49
4 72 99 115 73
4 72 119 90 73
4 112 62 61 98
5 61 98 29 108 56
5 112 62 0 34 55
4 56 0 34 108
4 29 108 34 55
4 112 55 29 98
5 62 36 33 14 106
4 50 36 33 111
4 19 17 106 62
5 19 17 32 111 50
4 14 33 111 32
4 32 17 106 14
5 47 114 74 36 25
4 2 36 25 110
4 74 27 84 114
5 27 2 110 24 84
4 47 25 110 24
4 24 84 114 47
4 80 66 101 48
5 11 80 66 40 44
5 21 71 41 101 48
4 11 44 71 21
4 40 44 71 41
4 40 66 101 41
5 61 63 33 77 86
4 63 6 10 61
4 19 69 77 86
5 69 34 6 10 19
4 69 34 33 77
4 63 33 34 6
5 61 100 25 70 35
4 100 61 80 53
4 27 35 70 76
5 76 27 80 53 26
4 26 76 70 25
4 100 25 26 53
4 68 45 86 36
5 51 17 45 86 48
5 68 18 7 28 36
4 48 51 7 28
4 17 51 7 18
4 17 45 68 18
4 74 61 40 113
5 42 116 8 40 61
5 9 113 74 48 26
4 42 116 26 48
4 26 9 8 116
4 8 40 113 9
4 21 83 93 49
5 67 1 21 83 103
5 13 16 66 93 49
4 16 67 1 13
4 103 66 16 67
4 83 103 66 93
5 10 12 59 79 62
4 10 1 32 12
4 39 79 62 20
5 20 1 32 78 39
4 12 59 78 32
4 78 39 79 59
4 91 82 56 35
5 35 91 102 55 2
5 13 31 53 82 56
4 31 13 2 55
4 53 102 55 31
4 91 102 53 82
5 22 46 14 2 20
4 20 22 47 50
4 28 2 14 30
5 28 30 60 47 50
4 46 14 30 60
4 22 46 60 47
5 86 62 8 54 96
4 86 74 29 96
4 35 62 8 37
5 37 7 29 74 35
4 96 54 7 29
4 7 37 8 54
5 45 81 80 74 72
4 80 81 24 49
4 97 28 74 72
5 71 97 28 49 24
4 45 72 97 71
4 81 45 71 24
4 42 86 87 15
5 65 87 86 50 9
5 23 21 42 15 6
4 21 23 9 50
4 65 6 23 9
4 65 87 15 6
4 88 10 42 73
5 88 70 38 56 10
5 92 80 42 73 77
4 80 92 38 56
4 70 88 73 77
4 92 77 70 38
4 39 4 13 38
4 46 13 38 94
4 52 112 39 4
5 112 39 38 94 103
4 46 90 103 94
4 1 90 117 20
4 39 101 117 20
4 60 90 1 32
4 93 60 32 78
5 93 60 90 117 101
4 78 115 97 2
5 16 2 97 117 119
4 78 95 16 2
4 82 83 117 119
5 82 95 78 115 83
4 115 97 117 83
5 112 19 105 58 75
4 105 19 67 46
4 67 19 112 64
4 75 112 64 109
4 95 109 75 58
5 95 109 64 67 46
5 115 31 1 88 112
4 1 31 84 46
4 1 88 119 46
4 112 91 119 88
4 91 112 115 93
5 119 91 93 84 46
4 20 52 24 18
5 52 20 64 91 83
4 18 20 64 16
4 64 16 57 91
4 57 91 83 60
5 60 57 16 18 24
4 31 52 20 34
4 20 64 38 34
5 58 31 34 38 59
4 91 59 58 83
4 83 58 31 52
4 75 50 4 78
4 18 14 78 4
4 50 117 91 75
5 91 75 78 14 94
4 14 94 67 18
4 13 24 22 0
4 0 22 117 64
4 78 13 24 85
4 85 102 99 78
5 102 117 22 24 85
4 0 46 43 62
4 34 32 46 0
4 112 62 43 83
4 85 32 34 55
5 46 43 83 85 32
4 2 99 112 20
4 22 20 112 100
4 59 99 2 14
4 14 46 82 59
5 100 112 99 59 82
4 55 36 117 52
4 55 36 109 78
5 57 43 117 36 109
5 55 78 84 105 52
4 105 43 57 84
4 117 52 105 43
5 101 64 107 4 115
4 107 4 32 6
4 58 32 4 115
5 118 58 32 6 94
4 58 115 101 118
4 94 64 101 118
4 28 109 95 49
4 97 64 109 28
4 46 95 49 24
4 24 71 67 46
4 1 52 53 11
4 95 93 53 11
4 107 97 52 1
5 97 52 53 93 99
4 93 99 38 95
4 82 10 19 83
4 95 82 10 6
4 19 69 115 83
4 34 6 95 78
4 2 64 66 27
4 82 66 27 84
4 2 110 88 64
5 66 82 90 88 64
4 90 82 84 24
4 28 85 32 5
5 16 5 28 101 87
4 85 83 101 28
4 43 87 101 83
4 16 46 43 87
5 31 3 10 100 96
4 94 14 3 10
4 94 10 100 91
4 96 75 91 100
4 31 78 75 96
4 62 65 18 22
5 114 105 22 62 91
4 62 91 109 65
4 32 105 114 30
4 30 114 91 109
5 109 30 32 18 65
4 0 14 7 110
5 100 52 110 0 119
4 14 0 119 57
4 57 119 100 114
4 114 100 52 85
5 85 114 57 14 7
4 50 54 34 39
4 50 83 105 54
5 39 109 118 83 50
5 54 105 12 14 34
4 118 83 105 12
4 118 12 14 109
4 105 10 56 84
4 10 88 52 105
4 78 84 56 38
4 55 78 38 70
4 91 36 28 93
4 36 91 119 68
4 84 93 28 7
4 84 7 18 46
4 24 4 107 44
4 53 24 4 115
5 119 44 24 53 89
4 64 107 44 119
4 119 64 101 89
5 21 58 92 39 69
4 21 90 88 69
4 90 82 58 21
4 39 64 88 69
4 64 39 92 66
4 71 107 39 50
4 90 71 50 83
4 118 15 16 109
5 16 107 71 90 15
4 39 107 16 109
4 55 20 19 96
4 114 43 19 96
4 33 55 20 65
5 59 33 55 96 114
4 65 94 59 33
4 62 70 110 22
4 99 70 62 91
5 31 110 70 99 29
4 29 114 105 31
4 105 31 110 22
4 35 106 18 2
4 91 43 106 35
4 54 18 2 55
5 43 106 18 54 47
4 55 102 47 54
4 111 21 1 34
4 83 75 111 21
4 65 67 1 34
5 79 65 34 111 75
4 65 79 103 67
4 4 71 68 2
4 85 4 71 47
4 2 68 87 109
5 71 47 89 87 68
4 47 89 93 85
4 0 110 76 38
4 119 0 38 66
4 52 115 98 100
5 98 66 38 76 115
4 52 115 76 110
4 70 0 1 69
4 94 79 70 0
4 1 69 96 105
5 70 79 98 96 69
4 79 98 82 94
4 99 35 68 97
5 35 57 81 22 68
4 35 57 93 99
4 52 53 81 22
4 22 68 97 52
4 87 36 20 67
4 36 87 118 75
4 17 67 20 54
4 17 60 85 54
5 118 87 67 17 60
4 73 21 4 97
4 60 89 73 21
4 5 113 97 4
5 113 97 73 89 66
4 66 89 60 95
5 44 13 76 97 88
4 92 95 13 76
4 95 15 44 13
4 76 92 101 97
5 101 92 95 15 103
4 103 88 97 101
4 5 49 11 6
4 11 90 67 6
4 49 115 39 5
4 67 41 73 90
5 41 67 6 5 39
4 8 19 105 3
4 8 19 112 70
5 3 108 33 70 8
4 33 75 58 108
4 58 108 3 105
4 7 27 56 3
4 7 55 99 27
4 56 3 22 119
5 3 22 25 55 7
4 55 99 72 25
4 50 85 114 86
4 87 57 114 86
4 7 85 50 9
4 7 14 65 9
4 62 94 118 86
4 86 118 58 96
4 8 62 94 6
4 6 8 54 32
4 74 30 85 102
5 74 87 106 104 30
4 74 87 117 102
4 24 22 106 104
4 87 117 22 106
4 72 35 0 88
4 98 72 35 59
4 0 88 116 3
5 53 98 72 88 116
4 98 59 84 53
5 108 111 96 42 12
4 42 103 112 96
4 103 94 12 42
4 111 96 112 39
4 38 39 111 108
4 84 29 76 13
4 81 84 13 44
5 100 81 84 29 102
4 81 44 88 100
4 102 97 88 100
4 9 71 117 36
4 5 109 36 9
5 17 71 9 5 104
4 104 57 43 17
4 57 109 5 104
4 61 12 14 35
4 61 12 105 100
4 70 35 14 34
4 34 70 25 54
4 86 25 55 75
4 25 86 43 22
5 86 75 30 12 43
4 3 12 30 7
4 12 43 22 3
4 36 102 100 62
4 29 33 36 102
4 62 100 81 106
4 29 33 14 84
5 68 113 27 104 44
4 27 104 60 93
4 27 113 101 93
4 117 68 113 101
4 117 68 44 90
4 101 50 19 103
4 17 19 103 15
4 111 92 101 50
4 15 95 32 17
4 40 56 13 107
4 31 13 107 69
4 103 40 56 82
5 107 69 73 103 40
4 103 73 53 82
4 26 49 13 110
4 13 110 68 16
4 26 102 93 49
5 110 68 72 102 26
4 72 102 93 66
4 6 108 31 1
4 88 1 6 40
4 92 115 31 108
5 79 92 108 6 40
4 112 79 92 115
4 30 48 21 32
4 48 30 109 101
4 18 32 21 71
4 71 41 65 18
4 7 2 97 26
4 7 104 16 2
5 81 104 7 26 47
4 104 16 119 81
4 119 81 47 117
4 41 86 75 39
4 41 86 43 67
4 30 5 6 12
4 30 75 39 5
5 116 69 76 108 11
4 59 82 11 108
4 11 116 100 82
4 112 100 116 69
4 112 69 76 99
5 114 61 106 3 51
4 79 61 114 75
4 61 79 65 106
4 3 34 111 51
4 114 51 111 75
4 33 9 68 35
4 33 35 57 30
5 51 30 33 9 54
4 81 51 54 22
4 51 81 57 30
4 56 59 33 37
5 116 110 37 56 81
4 59 56 81 114
4 114 81 116 96
4 110 55 96 116
4 27 16 15 80
4 90 15 80 53
4 27 16 107 76
4 90 71 26 53
5 113 107 23 49 92
4 60 17 23 49
4 60 49 92 118
4 87 113 92 118
4 113 87 67 107
4 42 98 115 21
4 21 115 76 23
4 42 15 66 98
4 66 15 6 38
4 89 74 35 119
4 37 44 119 35
4 53 89 74 29
4 53 24 7 29
4 61 59 58 42
4 38 40 61 59
4 58 42 116 31
4 38 40 8 34
4 47 54 111 48
5 118 48 111 5 63
4 47 48 118 43
4 118 63 106 43
4 106 63 5 18
4 57 74 48 60
4 60 24 26 48
4 74 57 16 113
4 24 18 9 26
4 21 69 8 17
4 12 58 21 17
5 12 63 65 8 17
4 63 92 58 12
4 63 92 39 65
4 11 31 29 80
4 99 29 80 66
4 11 44 110 31
4 66 40 70 99
4 102 72 61 114
4 72 68 106 61
4 110 3 51 26
4 106 3 110 68
4 116 10 62 25
4 10 12 51 116
4 77 25 62 79
5 29 77 25 116 51
4 77 29 59 79
4 65 36 74 63
4 25 36 65 8
4 74 114 12 63
4 25 8 17 47
4 37 27 28 9
4 37 27 57 106
4 25 9 28 102
5 106 37 9 25 45
4 25 45 89 102
4 42 51 54 19
4 54 9 41 19
4 118 30 51 42
4 41 9 33 79
4 10 40 37 3
4 10 100 72 40
4 3 31 76 37
4 77 96 31 76
5 37 76 77 72 40
4 23 5 28 26
4 26 73 101 28
5 45 73 26 23 44
4 45 87 16 44
4 5 23 44 16
4 49 23 116 53
4 49 92 98 53
4 88 116 23 107
4 107 88 72 113
4 73 69 111 48
4 48 118 103 73
4 40 63 5 107
4 69 107 5 111
4 66 113 37 56
4 56 81 89 66
4 110 37 113 97
4 110 97 73 116
4 28 113 41 50
4 30 63 113 28
4 47 50 41 45
5 15 45 41 113 63
4 47 60 15 45
4 8 10 11 23
4 41 103 10 8
4 11 23 111 58
5 111 23 8 41 77
4 103 98 77 41
4 61 81 47 86
4 63 104 81 61
4 77 86 47 26
4 26 7 33 77
4 108 80 74 33
4 80 81 3 108
4 74 72 70 33
4 72 45 8 70
4 45 25 96 42
4 106 45 42 12
4 108 12 106 37
4 37 9 111 108
4 51 29 27 104
4 27 29 77 113
4 68 25 116 44
4 51 116 44 104
4 111 77 74 30
4 77 74 87 41
4 8 106 104 23
4 30 104 23 111
5 37 23 51 80 63
4 98 80 51 96
4 98 79 63 80
4 96 69 23 51
4 23 69 70 37
4 80 51 47 89
4 89 87 63 80
4 37 63 87 68
4 68 71 23 37
4 56 44 45 61
4 61 98 73 45
4 56 108 23 44
4 73 26 29 98
4 86 79 92 48
4 79 40 45 86
4 108 51 48 92
4 45 17 6 40
4 48 77 76 49
4 77 72 89 48
4 49 76 37 104
4 89 15 40 72
4 104 80 42 17
4 80 104 5 92
4 42 73 71 17
4 73 77 9 71
4 15 11 108 63
4 11 116 45 15
4 63 108 76 113
4 113 41 69 76
4 4 50 19 1
4 31 1 19 96
5 19 50 47 25 96
5 1 31 110 24 4
4 4 50 47 24
4 13 4 21 11
4 21 111 108 11
5 13 11 108 3 84
5 21 4 85 54 111
4 4 85 84 13
4 19 86 48 21
4 114 86 19 105
5 86 114 102 89 48
5 90 21 19 105 52
4 21 90 89 48
4 4 20 36 28
5 20 112 70 25 36
4 26 28 36 25
4 4 115 112 20
5 76 26 28 4 115
4 19 10 0 20
4 10 0 110 116
5 19 10 116 45 17
5 20 18 68 110 0
4 18 20 19 17
4 48 42 11 49
4 48 30 12 42
5 48 49 93 85 30
5 11 42 12 105 82
4 49 93 82 11
4 50 36 74 48
5 36 74 72 99 91
4 50 83 91 36
4 73 72 74 48
5 83 50 48 73 115
4 4 49 27 2
5 29 108 92 49 27
4 27 2 55 29
4 49 92 39 4
5 34 39 4 2 55
4 1 11 56 0
5 14 0 56 37 106
4 14 0 1 32
4 56 11 23 37
5 1 32 17 23 11
4 62 19 42 61
4 62 22 81 61
5 42 15 89 81 61
5 62 19 67 117 22
4 67 19 42 15
4 62 0 2 36
4 8 62 36 9
5 113 9 36 2 97
5 0 62 8 40 88
4 88 0 2 97
4 27 80 48 28
5 80 98 58 118 48
4 80 98 99 27
4 48 118 109 28
5 109 28 27 99 78
4 11 10 61 80
5 10 61 106 43 94
4 61 106 104 80
4 11 95 94 10
5 80 104 60 95 11
4 0 35 27 13
4 35 33 34 0
5 35 27 113 63 33
5 0 34 6 107 13
4 113 27 13 107
4 35 61 86 36
4 86 41 40 61
5 61 40 66 119 35
5 86 36 117 101 41
4 35 119 117 36
4 27 74 61 56
5 79 118 87 74 61
4 56 38 79 61
4 74 87 16 27
5 27 16 95 38 56
4 28 49 21 50
4 49 53 102 28
5 102 28 50 75 55
5 53 31 58 21 49
4 50 75 58 21
4 1 10 42 21
4 42 10 3 51
5 10 1 46 22 3
5 42 51 47 60 21
4 46 60 21 1
4 13 2 20 1
5 1 69 8 54 20
4 7 2 20 54
4 69 1 13 76
5 7 2 13 76 37
4 62 86 50 20
5 62 86 45 72 100
4 71 45 86 50
4 20 52 100 62
5 71 97 52 20 50
4 56 10 62 35
5 62 35 68 87 65
4 35 56 44 68
4 65 6 10 62
5 10 56 44 15 6
4 2 35 74 28
4 77 70 35 74
5 35 70 38 64 2
5 74 28 101 92 77
4 64 2 28 101
4 86 74 80 42
4 74 57 43 86
5 103 83 43 86 42
5 57 74 80 66 93
4 103 66 80 42
4 13 56 80 49
5 56 80 63 12 59
4 80 63 5 49
4 56 13 78 59
5 49 5 32 78 13
4 118 12 10 103
5 103 10 100 119 90
5 118 60 57 114 12
4 90 60 118 103
4 119 57 60 90
4 62 112 39 65
4 87 101 97 68
5 97 101 39 112 99
4 39 65 87 101
4 18 7 27 16
5 3 34 32 18 7
4 34 32 95 38
4 16 95 32 18
5 5 111 33 7 28
4 95 5 28 93
4 58 111 33 59
5 93 95 58 59 84
4 95 5 111 58
5 79 33 36 109 39
4 102 36 109 93
5 115 93 102 29 98
4 98 79 39 115
4 115 39 109 93
5 75 59 29 74 30
4 89 74 30 60
4 83 82 59 75
4 60 83 75 30
5 60 83 82 53 89
4 67 18 2 64
4 6 38 70 8
5 8 106 18 67 6
4 64 38 6 67
4 0 94 12 3
5 67 16 119 0 94
5 12 3 81 104 17
4 17 67 94 12
4 17 67 16 104
4 88 64 94 10
4 117 43 106 68
5 72 88 64 117 68
4 64 117 43 94
4 61 100 112 79
4 83 118 79 112
5 102 117 83 112 100
4 83 118 87 117
4 58 108 56 82
5 46 57 81 56 82
5 32 30 51 108 58
4 32 46 82 58
4 32 46 57 30
4 109 28 9 65
5 9 65 34 70 37
4 70 34 78 99
4 65 34 78 109
4 107 13 24 71
4 54 34 6 17
5 22 54 17 71 24
4 107 71 17 6
4 105 1 67 43
5 44 71 67 1 88
5 81 47 43 105 100
4 71 47 81 44
4 47 43 67 71
4 67 19 69 107
5 70 110 97 107 69
4 110 97 117 22
4 117 97 107 67
4 86 96 69 41
5 55 96 69 115 52
4 101 115 69 41
4 115 52 117 101
5 81 24 90 11 116
4 83 58 11 90
5 85 83 58 96 114
4 24 85 114 81
4 90 83 85 24
4 9 26 49 5
5 26 9 54 55 110
4 55 78 32 54
4 9 54 32 5
5 39 69 77 9 50
4 39 78 85 50
4 31 69 77 29
5 78 31 29 7 85
4 39 78 31 69
5 111 96 29 26 48
4 60 48 111 32
4 84 105 96 29
4 32 111 96 105
5 84 24 60 32 105
5 112 75 86 77 98
4 85 75 86 47
4 53 98 112 52
5 53 26 47 85 52
4 52 112 75 85
4 41 39 4 71
4 55 25 8 34
5 71 68 25 8 41
4 39 34 8 41
4 103 42 116 88
5 22 25 116 88 52
4 83 103 88 52
4 22 43 83 52
4 13 46 105 31
5 18 104 44 13 46
5 54 105 31 116 51
4 54 18 104 51
4 54 105 46 18
5 57 35 59 94 109
4 89 72 35 57
5 103 98 72 89 101
4 89 57 109 101
4 103 94 109 101
5 5 65 14 2 16
4 66 16 2 99
5 99 66 92 79 59
4 5 92 79 65
4 66 16 5 92
5 30 14 84 27 104
4 15 104 27 66
4 118 30 14 94
4 104 30 118 15
5 66 15 118 94 82
4 37 108 59 35
5 6 108 37 104 5
4 108 59 94 6
4 5 109 94 6
4 91 36 65 94
4 38 40 72 99
5 65 94 38 40 63
4 91 99 38 94
4 59 91 119 56
4 91 59 12 43
4 87 43 12 63
5 119 89 87 43 91
4 106 62 79 63
5 64 103 79 62 91
5 16 15 63 106 57
4 15 103 79 63
4 16 64 103 15
4 14 109 64 0
4 37 106 87 113
4 106 14 109 87
5 109 64 66 113 87
4 46 14 35 119
5 12 6 95 46 14
4 95 66 40 6
4 46 95 66 119
5 91 82 98 61 114
4 61 98 92 63
5 95 109 30 63 92
4 92 98 82 95
4 82 95 109 91
4 14 33 74 57
5 78 38 108 33 14
4 57 93 78 14
4 78 38 66 93
4 91 75 33 35
4 63 118 75 33
4 63 113 101 118
5 91 93 101 118 75
4 18 20 39 5
4 113 68 110 76
5 39 5 113 76 38
4 68 113 5 18
4 44 56 84 24
4 32 60 15 6
4 24 44 15 60
5 112 88 73 41 19
4 19 41 87 43
4 89 73 88 119
4 89 87 41 73
4 103 67 20 112
4 40 70 25 45
4 112 103 40 70
5 40 103 67 87 45
4 11 82 119 44
4 12 105 22 106
5 45 44 119 22 106
4 119 22 105 82
4 2 14 3 110
5 3 8 23 44 110
4 8 3 14 65
4 8 65 5 23
4 114 74 77 96
4 58 92 77 96
4 58 92 101 83
4 30 48 77 33
5 76 99 55 33 77
4 33 55 85 30
4 55 85 93 99
5 80 51 114 84 53
4 92 115 53 80
4 84 78 75 114
5 78 115 92 111 75
4 115 78 84 53
4 107 38 78 4
5 23 107 4 18 9
4 9 33 108 23
4 38 108 23 107
4 102 25 62 91
5 97 102 25 77 73
4 97 73 103 64
4 64 91 102 97
4 15 17 51 80
4 51 114 43 17
4 84 46 43 114
5 46 90 15 17 43
4 80 98 100 81
4 58 98 100 105
4 105 43 118 58
4 41 79 75 50
5 70 79 41 113 72
4 79 70 55 75
4 55 70 72 102
4 31 76 27 84
5 111 34 31 76 23
4 31 34 14 84
4 111 34 14 30
4 80 104 7 29
4 7 104 60 85
4 85 60 95 78
4 36 9 111 75
4 113 9 111 92
4 92 113 97 115
5 53 100 96 42 73
4 42 73 101 118
4 91 100 53 93
4 101 73 53 93
4 1 107 16 46
4 68 37 3 22
5 40 107 16 68 37
4 46 16 68 22
4 90 46 0 88
4 8 17 15 40
4 88 90 15 40
4 22 106 65 20
5 107 64 20 65 41
4 106 65 41 45
4 45 44 107 41
4 45 47 114 61
4 117 47 114 91
5 47 117 90 73 45
4 117 91 82 90
5 51 23 49 24 7
4 6 23 49 95
4 23 51 12 6
4 51 12 14 7
4 64 99 55 20
4 107 76 77 41
4 64 99 76 107
5 26 116 69 21 71
4 32 21 69 34
4 69 34 3 116
4 3 116 26 7
4 42 17 54 96
4 96 54 22 100
4 24 53 100 22
4 55 112 19 54
4 88 112 55 110
4 26 73 88 110
4 21 71 117 83
4 102 26 116 100
4 117 102 26 71
4 23 26 53 11
4 23 26 47 17
4 47 17 32 85
4 50 71 23 111
4 71 23 76 97
4 76 97 52 31
4 49 24 52 115
4 96 55 7 51
4 55 7 24 52
4 51 48 73 116
4 31 116 73 115
4 115 83 105 31
4 77 73 21 111
4 111 54 25 77
4 25 54 85 102
4 52 22 18 4
4 9 25 116 23
4 25 9 18 22
4 69 1 90 73
4 45 8 54 47
4 73 69 8 45
4 23 44 90 21
4 110 52 105 3
4 52 110 44 90
4 86 114 59 79
4 99 59 114 102
4 99 66 89 102
4 74 113 76 29
4 76 29 59 38
4 59 38 39 75
4 27 57 114 29
4 29 108 12 114
4 12 108 92 118
4 16 57 84 13
4 108 3 106 63
4 84 3 106 57
4 36 33 37 68
4 40 79 33 37
4 107 39 79 40
4 82 100 62 94
4 100 72 66 82
4 15 45 72 66
4 40 56 81 45
4 57 81 45 87
4 46 67 87 57
4 70 72 119 0
4 16 119 72 113
4 67 41 113 16
4 40 44 13 38
4 104 63 40 44
4 18 65 63 104
4 81 61 59 84
4 84 81 89 93
4 95 15 89 93
4 109 2 7 30
4 92 63 37 76
4 37 63 30 7
4 87 113 77 86
4 98 66 113 77
4 66 98 112 64
4 28 7 110 97
4 70 33 7 110
4 69 111 33 70
4 49 104 81 53
4 3 31 58 12
4 3 81 53 31
4 96 98 103 19
4 96 25 72 98
4 25 72 89 47
4 25 8 10 100
4 119 68 25 100
4 68 119 90 71
4 116 8 6 11
4 116 8 106 81
4 81 106 18 24
4 70 34 1 88
4 88 70 37 44
4 9 37 44 71
4 51 42 98 29
4 29 102 47 51
4 102 47 60 93
4 101 97 26 48
4 112 96 29 99
4 99 29 26 97
4 30 28 26 51
4 76 26 51 108
4 108 76 115 58
4 24 4 5 104
4 37 110 31 108
4 24 110 37 104
4 50 9 68 117
4 68 72 77 9
4 88 69 77 72
4 53 116 10 82
4 89 53 116 45
4 17 60 89 45
5 50 19 43 118 75
5 95 46 1 4 78
4 118 75 78 95
4 118 43 46 95
5 11 13 38 66 82
5 21 83 101 39 4
4 38 66 101 39
4 82 83 101 66
5 86 48 30 63 87
5 19 67 6 32 21
4 6 32 30 63
4 87 63 6 67
5 22 43 91 36 20
5 93 28 4 24 60
4 24 22 43 60
4 91 43 60 93
5 10 19 96 58 12
5 78 14 0 20 55
4 55 78 58 96
4 14 78 58 12
5 113 101 48 49 5
5 103 42 11 6 40
4 113 5 6 40
4 101 113 40 103
5 68 106 57 74 36
5 48 60 17 71 50
4 106 68 71 17
4 60 17 106 57
5 53 49 27 66 89
5 64 2 4 52 117
4 52 117 89 53
4 64 66 89 117
5 56 0 70 99 59
5 69 1 11 58 115
4 69 70 99 115
4 115 58 59 99
5 61 63 108 51 42
5 62 19 54 34 65
4 54 34 108 51
4 63 108 34 65
5 2 36 102 85 7
5 0 3 105 100 62
4 7 85 105 3
4 85 102 100 105
5 45 73 48 80 15
5 28 27 16 68 97
4 73 45 68 97
4 16 68 45 15
5 70 79 61 10 8
5 80 92 76 23 11
4 8 70 76 23
4 79 70 76 92
5 27 35 72 102 29
5 13 31 52 88 0
4 29 102 52 31
4 88 52 102 72
5 61 35 37 3 81
5 36 86 47 54 9
4 37 3 54 9
4 3 81 47 54
5 74 77 25 45 61
5 27 76 110 44 56
4 77 76 110 25
4 45 25 110 44
5 50 28 109 87 117
5 49 95 15 90 21
4 90 15 87 117
4 95 109 87 15
5 10 94 38 34 1
5 21 42 118 92 111
4 111 92 38 34
4 92 118 94 38
5 105 83 112 20 1
5 13 2 99 93 84
4 84 105 83 93
4 112 83 93 99
5 62 86 114 12 106
5 18 32 85 50 20
4 85 32 12 114
4 106 18 32 12
5 33 35 62 25 55
5 10 56 108 31 116
4 108 31 55 33
4 55 25 116 31
5 35 2 110 22 119
5 89 74 28 26 47
4 110 22 47 26
4 119 22 47 89
5 86 41 8 17 42
5 74 113 37 104 80
4 41 113 37 8
4 8 17 104 37
5 98 72 40 56 80
5 49 115 97 107 13
4 107 97 72 40
4 98 72 97 115
4 1 32 5 107
5 107 1 90 103 64
5 60 32 5 109 118
4 5 107 64 109
4 18 4 21 17
4 21 17 43 83
5 18 65 87 43 17
4 64 20 50 101
4 101 50 85 93
5 93 101 64 16 95
5 50 111 5 65 41
4 41 50 83 103
4 65 41 103 94
5 94 103 83 58 95
5 94 109 39 20 67
4 52 90 67 20
4 67 90 82 94
5 52 115 93 82 90
5 30 75 36 65 14
4 67 65 36 117
4 65 14 46 67
5 60 83 117 67 46
4 21 19 112 115
4 78 32 21 115
5 38 78 115 112 64
4 39 20 54 111
5 12 30 111 54 17
4 111 39 109 30
4 32 4 2 14
4 4 32 105 52
5 94 14 32 105 43
4 6 65 20 1
4 1 6 12 105
5 6 12 118 79 65
4 0 34 39 64
5 46 0 64 91 82
5 32 58 75 39 34
4 91 75 39 64
4 83 19 62 91
4 83 19 54 85
5 83 91 109 78 85
4 48 92 39 50
4 95 60 48 92
5 6 95 92 39 107
5 4 71 67 16 5
4 5 4 85 30
5 30 85 47 43 57
4 30 5 16 57
4 60 46 13 49
4 49 115 83 60
4 11 1 67 15
4 15 118 58 11
5 118 15 67 41 101
5 13 24 90 119 16
4 16 109 78 13
4 16 119 91 109
4 36 109 118 86
4 86 118 60 47
5 39 69 19 103 79
4 82 103 19 105
4 82 59 79 103
5 78 59 82 105 31
5 86 79 33 111 96
4 79 94 43 86
4 14 94 79 33
5 112 75 59 94 62
4 46 22 62 94
4 46 84 59 94
5 84 46 22 52 85
4 86 75 58 42
4 32 17 42 58
4 94 0 13 95
4 13 95 58 31
4 109 75 55 2
5 46 57 109 2 18
5 105 54 55 75 114
4 57 109 75 114
4 71 18 2 97
5 89 101 97 71 90
4 18 71 90 46
4 71 4 115 73
5 103 73 115 92 66
4 67 71 73 103
5 18 9 28 30 104
4 41 9 28 101
4 9 18 67 41
4 62 8 69 112
5 69 8 6 108 111
4 69 112 75 111
4 100 10 1 52
4 55 34 1 52
5 55 52 100 91 99
4 34 20 36 33
4 34 20 22 3
5 34 3 12 59 33
4 69 19 17 23
5 15 63 5 23 17
4 69 39 5 23
4 54 50 28 7
4 54 22 117 50
5 106 22 54 7 14
4 1 88 97 4
4 99 78 4 97
5 99 97 88 119 66
4 88 107 6 10
5 112 88 10 82 98
4 107 39 112 88
4 119 0 20 117
4 117 20 55 102
5 93 102 117 119 57
4 9 50 19 8
4 43 19 8 106
5 63 33 9 8 106
4 47 48 49 24
4 48 101 117 47
5 24 18 68 117 47
4 28 113 107 4
4 113 28 93 66
5 15 66 113 107 44
5 23 107 41 73 21
4 23 21 60 104
4 104 23 107 16
5 87 16 104 60 89
4 31 11 42 96
4 11 31 34 6
5 31 96 112 70 34
4 78 59 35 2
4 78 31 110 2
4 36 75 96 25
5 3 51 96 25 8
4 96 75 30 51
4 40 10 19 41
4 12 10 40 63
5 40 63 92 77 41
4 62 35 57 43
4 47 43 62 25
5 100 119 56 84 53
4 119 64 38 56
4 112 64 119 100
4 98 58 21 73
5 108 38 79 98 58
4 73 41 79 98
4 46 0 110 24
5 110 97 102 53 24
4 46 82 53 24
5 74 114 51 7 33
4 33 74 87 65
4 65 18 7 33
4 38 0 62 79
4 0 3 108 38
4 61 114 105 10
4 54 8 10 105
4 91 35 70 112
5 84 14 35 91 114
4 114 91 112 96
4 2 16 87 36
4 89 87 36 102
4 42 45 71 21
4 45 87 118 42
5 113 9 71 45 87
5 73 88 44 11 53
4 44 16 95 11
4 88 64 16 44
4 27 84 85 28
4 28 85 52 97
4 49 76 69 21
4 76 38 95 49
5 76 38 40 88 69
4 111 50 47 51
4 51 111 5 104
5 51 47 45 106 104
4 18 68 35 14
4 18 14 84 24
5 51 23 9 77 48
4 77 48 118 79
4 9 77 79 65
4 53 31 1 90
5 99 76 31 53 98
4 90 103 98 53
5 42 116 69 77 98
4 98 59 12 42
4 98 77 33 59
4 14 106 61 59
5 100 96 29 59 61
4 59 14 7 29
4 3 84 82 10
5 110 55 29 84 3
4 82 84 29 98
5 49 26 71 44 104
4 49 93 57 104
4 104 44 119 57
4 74 63 5 28
4 63 15 89 74
4 80 89 90 11
4 80 89 101 92
5 27 57 81 24 7
4 57 27 99 91
4 100 91 57 81
4 66 103 10 56
4 108 56 66 92
4 74 61 12 30
4 45 17 12 61
4 30 28 102 114
5 22 81 114 102 25
4 30 104 81 114
4 48 111 108 80
4 6 15 80 108
4 27 56 82 93
4 76 115 93 27
4 56 81 22 0
4 25 22 0 70
4 100 88 40 61
4 96 69 88 100
4 70 62 86 77
4 106 62 70 37
5 77 29 108 37 70
4 55 36 74 29
4 68 110 55 36
4 86 96 116 45
4 116 96 111 23
5 116 45 40 37 23
4 11 116 110 13
4 70 110 13 38
5 70 110 116 100 72
4 7 27 113 9
4 7 24 71 9
4 24 13 76 26
5 113 72 73 26 76
4 26 73 90 24
4 77 26 49 92
4 41 77 26 71
4 2 13 44 68
4 68 2 99 72
5 44 68 72 89 81
4 25 86 48 26
4 87 86 25 68
5 26 7 37 68 25
4 42 15 44 116
4 116 69 107 44
4 74 72 100 114
4 51 116 100 114
4 61 98 99 35
4 99 35 37 76
4 51 80 56 3
4 8 40 56 3
4 84 56 37 7
4 7 84 53 26
5 80 29 26 116 81
4 29 80 63 33
4 33 9 26 29
4 29 108 11 53
4 53 73 77 29
4 35 106 104 27
4 106 35 72 45
4 81 80 66 119
4 116 81 119 88
4 72 73 42 61
4 61 63 113 72
4 74 102 53 80
4 102 97 113 74
4 51 48 89 81
4 81 51 23 44
4 49 27 37 23
4 40 37 27 66
5 1 34 54 18 4
5 97 88 70 25 68
4 18 68 25 54
5 46 13 11 6 32
5 8 116 110 22 54
4 46 32 54 22
5 21 71 47 54 19
5 112 55 102 97 115
4 47 71 97 102
5 78 4 28 7 55
4 55 7 37 70
5 107 38 70 37 113
5 0 70 8 65 20
4 65 87 45 8
5 45 87 117 119 72
5 60 17 42 11 90
5 54 96 31 52 85
4 52 85 60 90
5 85 50 48 26 102
4 102 26 76 99
5 78 99 76 92 39
5 27 84 78 95 49
5 37 23 6 34 3
4 78 34 3 84
5 94 0 56 40 6
5 22 81 45 17 43
4 6 17 43 94
5 62 25 45 41 19
4 45 89 101 41
5 91 83 101 89 102
5 99 2 36 33 70
4 70 33 63 40
5 16 87 63 40 66
5 93 60 48 80 53
5 31 78 32 111 108
4 93 53 31 78
5 15 45 61 10 103
5 105 83 60 47 114
4 15 60 83 103
5 27 66 38 59 35
4 59 38 6 12
5 106 104 15 6 12
5 72 77 86 36 102
4 92 66 72 77
5 66 93 109 118 92
5 66 89 74 61 98
5 58 12 30 60 95
4 95 66 98 58
5 85 24 49 21 32
5 69 34 55 110 76
4 55 110 24 85
5 10 1 67 17 8
5 100 25 47 117 52
4 117 47 17 67
5 13 38 34 14 2
5 68 44 40 8 106
4 34 14 106 8
5 50 9 25 55 20
4 25 9 113 72
5 64 101 113 72 99
5 72 35 62 79 40
4 118 79 40 15
5 89 15 118 43 57
5 74 28 93 99 29
4 108 38 99 29
5 63 5 95 38 108
5 86 42 73 89 47
5 75 85 93 115 58
4 93 89 73 115
5 80 15 95 82 56
5 17 32 105 3 51
4 105 82 95 32
5 19 103 90 117 43
5 96 114 102 53 98
4 102 114 43 117
4 36 28 27 35
5 75 39 101 28 36
5 10 3 81 44 11
4 14 57 81 3
5 95 94 14 57 16
5 7 24 13 31 3
4 60 24 7 30
5 76 108 33 7 27
4 85 75 33 7
5 31 115 49 26 29
4 114 47 26 29
5 61 106 57 119 56
4 109 65 106 57
5 38 79 65 109 64
5 67 94 62 106 87
4 87 89 81 106
5 100 82 90 89 81
4 36 62 61 74
5 64 112 62 36 117
4 28 74 86 50
5 83 50 86 96 112
5 46 43 12 10 82
5 24 53 116 51 47
4 43 12 51 47
5 16 13 56 37 104
4 33 37 104 30
5 30 109 78 59 33
5 22 62 10 88 119
5 6 65 18 16 107
4 16 18 22 119
5 68 22 20 67 71
5 73 103 112 100 72
4 72 100 22 68
4 35 62 20 2
5 39 107 97 2 20
4 4 50 36 2
5 50 111 69 115 4
5 105 22 24 90 1
5 73 26 25 96 69
4 25 96 105 22
5 107 1 0 110 44
4 7 104 44 110
5 32 14 7 104 5
5 37 110 2 18 9
4 32 18 9 111
5 52 110 26 71 4
4 51 26 71 17
5 97 76 77 9 28
4 9 77 96 54
5 35 68 16 64 0
5 34 33 9 5 39
4 16 5 9 68
4 19 86 36 20
5 52 20 19 69 88
5 3 106 18 46 0
4 45 116 3 106
5 90 71 45 116 88
5 59 29 80 92 58
4 59 29 102 91
5 14 12 108 56 84
4 14 84 93 109
5 105 58 11 53 84
4 57 89 53 84
5 61 59 94 118 63
5 46 84 81 104 60
4 60 104 63 118
5 80 27 57 30 63
4 79 63 30 75
5 98 79 75 91 99
4 48 86 61 80
5 43 86 61 100 91
5 103 79 86 87 101
5 59 82 93 57 114
4 93 101 87 57
4 56 80 74 35
5 91 109 87 74 35
5 80 42 12 114 81
4 94 12 114 91
5 66 119 91 94 103
5 42 118 83 82 98
5 51 29 84 85 30
4 85 30 118 83
5 104 49 11 108 51
4 114 59 108 51
4 48 74 27 49
5 114 74 48 118 75
4 27 2 0 56
5 5 109 2 27 113
5 100 116 42 19 105
4 119 100 105 46
5 67 46 119 44 15
5 50 117 97 73 41
4 117 97 99 91
5 39 112 70 77 41
4 39 41 87 109
4 10 42 86 62
5 35 14 65 63 37
4 15 63 37 44
4 21 48 28 4
5 51 48 21 58 96
5 5 4 13 76 23
4 29 51 23 76
5 7 26 23 111 54
4 54 105 58 111
4 46 95 5 18
5 92 113 74 33 79
4 112 55 33 79
5 21 73 53 52 83
4 45 81 53 73
4 50 19 42 48
5 55 75 111 77 29
4 77 113 5 111
4 12 108 23 17
5 17 23 44 24 18
5 23 116 31 1 21
4 84 81 116 31
4 49 28 2 13
5 30 28 49 92 111
4 55 75 83 52
4 0 35 61 10
5 64 88 40 41 67
4 64 91 43 67
5 36 68 113 41 65
4 113 68 119 66
5 48 101 115 98 77
4 100 25 77 98
4 15 90 24 104
4 14 78 39 65
4 71 23 6 67
4 8 41 73 116
4 34 65 41 69
4 70 112 52 110
4 24 44 88 52
4 0 20 4 13
4 8 69 31 3
5 8 69 107 71 9
4 21 50 20 1
4 97 26 23 107
4 40 88 110 37
4 64 107 71 117
4 0 62 19 1
4 96 111 92 98
4 32 5 92 58
4 21 42 80 49
4 56 11 42 61
4 92 95 16 113
4 112 75 118 103
4 98 82 119 72
4 99 59 94 64
4 46 82 66 16
4 100 82 58 96
4 13 27 80 11
4 115 78 109 101
4 108 6 107 76
4 10 19 21 11
4 73 101 39 69
4 79 103 88 70
4 103 40 44 90
4 94 38 107 67
4 116 69 115 53
4 31 115 39 34
4 1 4 49 11
4 13 56 10 1
4 64 38 76 97
4 83 90 88 112
5 77 41 50 36 25
5 4 107 76 110 2
5 3 0 13 44 37
5 4 71 9 54 20
5 28 102 29 77 48
5 4 52 31 69 21
5 79 65 36 35 70
5 28 27 76 92 5
5 103 19 86 45 73
5 97 68 36 20 64
5 1 105 3 116 11
5 49 26 7 85 4
5 115 49 48 111 58
5 74 27 99 59 33
5 2 18 65 34 0
5 108 56 27 104 63
5 0 119 68 106 62
5 19 17 71 90 1
5 52 117 50 19 112
5 42 98 53 89 48
5 62 94 103 40 61
5 113 74 36 109 101
5 11 80 51 12 58
5 78 13 27 7 14
5 22 43 19 10 100
5 21 60 24 53 11
5 63 61 35 57 87
5 67 6 10 0 46
5 61 59 82 66 80
5 48 101 83 75 86
5 42 61 114 43 118
5 56 84 46 95 11
5 28 2 55 33 9
5 31 108 23 49 13
5 88 1 20 22 110
5 50 47 26 73 21
5 113 37 35 2 16
5 20 67 41 8 62
5 74 72 98 79 86
5 28 50 39 115 97
5 87 117 91 62 86
5 15 42 10 82 90
5 94 38 56 35 14
5 80 74 30 118 92
5 84 29 80 49 93
5 96 42 21 83 105
5 10 12 106 81 56
5 13 24 18 32 1
5 48 51 114 85 60
5 52 90 73 116 100
5 101 93 99 98 92
5 119 16 15 40 56
5 3 22 18 17 8
5 7 37 23 5 18
5 63 5 109 14 33
5 30 7 29 108 111
5 66 72 35 91 64
5 106 43 67 15 45
5 116 81 47 17 42
5 67 117 119 88 103
5 73 101 117 102 72
5 53 115 83 85 102
5 54 51 23 21 32
5 22 46 90 44 81
5 27 66 95 109 57
5 40 6 65 106 37
5 40 70 0 64 107
5 25 45 71 117 22
5 86 47 102 100 96
5 97 71 41 69 88
5 70 99 97 113 77
5 55 78 115 76 29
5 50 85 55 96 111
5 24 71 23 116 110
5 16 5 6 38 13
5 9 68 110 70 8
5 65 39 107 113 9
5 111 9 26 76 69
5 92 77 33 75 39
5 2 99 38 39 109
5 72 40 41 87 68
5 55 25 26 97 52
5 25 54 19 69 116
5 18 68 44 107 67
5 59 84 57 30 12
5 106 104 16 46 14
5 3 51 104 24 84
5 11 44 104 17 6
5 43 57 119 82 94
5 114 91 93 89 74
5 15 95 94 12 63
5 90 83 43 47 89
5 81 57 60 15 80
5 98 103 83 91 100
5 87 118 103 66 89
5 89 45 61 100 119
5 17 60 46 105 12
5 30 104 49 95 32
5 105 114 81 53 82
5 32 6 108 3 14
5 118 60 93 82 58
5 38 66 113 63 79
5 88 44 45 8 10
5 24 52 105 54 47
5 115 73 77 96 112
5 99 112 75 36 102
5 16 64 94 65 87
5 32 85 84 31 58
5 33 37 76 38 34
5 111 5 4 78 34
5 59 79 118 109 91
5 31 96 51 26 53
5 30 75 78 93 28
5 8 34 1 107 23
5 54 34 31 110 7
5 92 95 78 59 108
5 62 112 88 72 25
5 101 41 79 112 64
5 75 114 29 98 58
5 70 55 20 39 69

# Cells
7 0 1 2 3 4 5 6
7 7 8 9 10 11 12 13
7 14 15 16 17 18 19 20
7 21 22 23 24 25 26 27
7 28 29 30 31 32 33 34
7 35 36 37 38 39 40 41
7 42 43 44 45 46 47 48
7 49 50 51 52 53 54 55
7 56 57 58 59 60 61 62
7 63 64 65 66 67 68 69
7 70 71 72 73 74 75 76
7 77 78 79 80 81 82 83
7 84 85 86 87 88 89 90
7 91 92 93 94 95 96 97
7 98 99 100 101 102 103 104
7 105 106 107 108 109 110 111
7 112 113 114 115 116 117 118
7 119 120 121 122 123 124 125
7 126 127 128 129 130 131 132
7 133 134 135 136 137 138 139
7 140 141 142 143 144 145 146
7 147 148 149 150 151 152 153
7 154 155 156 157 158 159 160
7 161 162 163 164 165 166 167
7 141 168 169 170 171 172 173
7 108 174 175 176 177 178 179
7 180 181 182 183 184 185 186
7 187 188 189 190 191 192 193
7 194 195 196 197 198 199 200
7 201 202 203 204 205 206 207
7 208 209 210 211 212 213 214
7 92 215 216 217 218 219 220
7 156 221 222 223 224 225 226
7 80 227 228 229 230 231 232
7 107 233 234 235 236 237 238
7 239 240 241 242 243 244 245
7 246 247 248 249 250 251 252
7 59 253 254 255 256 257 258
7 101 259 260 261 262 263 264
7 151 265 266 267 268 269 270
7 88 271 272 273 274 275 276
7 277 278 279 280 281 282 283
7 284 285 286 287 288 289 290
7 291 292 293 294 295 296 297
7 298 299 300 301 302 303 304
7 305 306 307 308 309 310 311
7 46 312 313 314 315 316 317
7 163 318 319 320 321 322 323
7 324 325 326 327 328 329 330
7 331 332 333 334 335 336 337
7 338 339 340 341 342 343 344
7 148 345 346 347 348 349 350
7 339 351 352 353 354 355 356
7 36 357 358 359 360 361 362
7 71 363 364 365 366 367 368
7 85 369 370 371 372 373 374
7 375 376 377 378 379 380 381
7 100 382 383 384 385 386 387
7 388 389 390 391 392 393 394
7 164 395 396 397 398 399 400
7 144 290 401 402 403 404 405
7 350 406 407 408 409 410 411
7 31 412 413 414 415 416 417
7 325 418 419 420 421 422 423
7 15 424 425 426 427 428 429
7 50 430 431 432 433 434 435
7 53 436 437 438 439 440 441
7 442 443 444 445 446 447 448
7 157 281 449 450 451 452 453
7 442 454 455 456 457 458 459
7 398 460 461 462 463 464 465
7 377 466 467 468 469 470 471
7 114 472 473 474 475 476 477
7 331 478 479 480 481 482 483
7 79 249 484 485 486 487 488
7 387 489 490 491 492 493 494
7 95 303 495 496 497 498 499
7 67 447 500 501 502 503 504
7 64 459 505 506 507 508 509
7 434 510 511 512 513 514 515
7 128 516 517 518 519 520 521
7 439 511 522 523 524 525 526
7 388 527 528 529 530 531 532
7 372 533 534 535 536 537 538
7 263 489 539 540 541 542 543
7 268 406 544 545 546 547 548
7 177 549 550 551 552 553 554
7 123 480 555 556 557 558 559
7 236 549 560 561 562 563 564
7 74 296 565 566 567 568 569
7 39 308 570 571 572 573 574
7 25 468 575 576 577 578 579
7 274 533 580 581 582 583 584
7 10 420 585 586 587 588 589
7 321 461 590 591 592 593 594
7 134 530 595 596 597 598 599
7 187 416 600 601 602 603 604
7 43 183 605 606 607 608 609
7 9 328 610 611 612 613 614
7 120 337 615 616 617 618 619
7 22 378 620 621 622 623 624
7 202 520 625 626 627 628 629
7 210 475 630 631 632 633 634
7 307 361 635 636 637 638 639
7 241 429 640 641 642 643 644
7 291 368 645 646 647 648 649
7 58 199 650 651 652 653 654
7 137 393 655 656 657 658 659
7 115 211 660 661 662 663 664
7 1 342 665 666 667 668 669
7 194 256 670 671 672 673 674
7 230 248 675 676 677 678 679
7 182 316 680 681 682 683 684
7 225 278 685 686 687 688 689
7 172 284 690 691 692 693 694
7 18 242 695 696 697 698 699
7 129 205 700 701 702 703 704
7 30 193 705 706 707 708 709
7 4 353 710 711 712 713 714
7 219 299 715 716 717 718 719
7 0 720 721 722 723 724 725
7 7 726 727 728 729 730 731
7 14 732 733 734 735 736 737
7 21 738 739 740 741 742 743
7 28 744 745 746 747 748 749
7 35 750 751 752 753 754 755
7 42 756 757 758 759 760 761
7 49 762 763 764 765 766 767
7 56 768 769 770 771 772 773
7 63 774 775 776 777 778 779
7 70 780 781 782 783 784 785
7 77 786 787 788 789 790 791
7 84 792 793 794 795 796 797
7 91 798 799 800 801 802 803
7 98 804 805 806 807 808 809
7 105 810 811 812 813 814 815
7 112 816 817 818 819 820 821
7 119 822 823 824 825 826 827
7 126 828 829 830 831 832 833
7 133 834 835 836 837 838 839
7 140 840 841 842 843 844 845
7 147 846 847 848 849 850 851
7 154 852 853 854 855 856 857
7 161 858 859 860 861 862 863
7 173 741 864 865 866 867 868
7 179 825 869 870 871 872 873
7 186 874 875 876 877 878 879
7 192 880 881 882 883 884 885
7 200 886 887 888 889 890 891
7 207 892 893 894 895 896 897
7 212 893 898 899 900 901 902
7 220 759 903 904 905 906 907
7 226 728 908 909 910 911 912
7 232 770 913 914 915 916 917
7 237 834 918 919 920 921 922
7 245 923 924 925 926 927 928
7 252 929 930 931 932 933 934
7 258 849 885 935 936 937 938
7 264 753 939 940 941 942 943
7 270 795 878 944 945 946 947
7 275 783 948 949 950 951 952
7 283 917 953 954 955 956 957
7 288 906 958 959 960 961 962
7 297 963 964 965 966 967 968
7 304 969 970 971 972 973 974
7 311 975 976 977 978 979 980
7 317 859 926 981 982 983 984
7 322 806 891 985 986 987 988
7 330 929 989 990 991 992 993
7 336 951 994 995 996 997 998
7 343 977 999 1000 1001 1002 1003
7 348 732 1004 1005 1006 1007 1008
7 354 964 1009 1010 1011 1012 1013
7 362 829 1014 1015 1016 1017 1018
7 367 817 1019 1020 1021 1022 1023
7 374 723 1024 1025 1026 1027 1028
7 379 970 1029 1030 1031 1032 1033
7 385 720 1034 1035 1036 1037 1038
7 392 942 1039 1040 1041 1042 1043
7 399 746 1044 1045 1046 1047 1048
7 405 735 1049 1050 1051 1052 1053
7 411 1054 1055 1056 1057 1058 1059
7 417 765 1060 1061 1062 1063 1064
7 421 880 1065 1066 1067 1068 1069
7 428 762 1070 1071 1072 1073 1074
7 435 853 974 1075 1076 1077 1078
7 440 840 932 1079 1080 1081 1082
7 448 912 1083 1084 1085 1086 1087
7 452 745 1088 1089 1090 1091 1092
7 456 867 1093 1094 1095 1096 1097
7 465 1054 1098 1099 1100 1101 1102
7 471 925 1103 1104 1105 1106 1107
7 476 798 978 1108 1109 1110 1111
7 481 1073 1112 1113 1114 1115 1116
7 487 774 1100 1117 1118 1119 1120
7 494 873 1121 1122 1123 1124 1125
7 498 777 1058 1126 1127 1128 1129
7 503 830 1130 1131 1132 1133 1134
7 509 818 1135 1136 1137 1138 1139
7 513 886 1140 1141 1142 1143 1144
7 521 788 968 1145 1146 1147 1148
7 526 875 1149 1150 1151 1152 1153
7 529 1064 1114 1154 1155 1156 1157
7 536 922 1158 1159 1160 1161 1162
7 541 1022 1163 1164 1165 1166 1167
7 546 1040 1168 1169 1170 1171 1172
7 552 1007 1173 1174 1175 1176 1177
7 558 801 1002 1178 1179 1180 1181
7 564 1048 1182 1183 1184 1185 1186
7 568 854 1032 1187 1188 1189 1190
7 573 843 991 1191 1192 1193 1194
7 578 811 900 1195 1196 1197 1198
7 584 1017 1199 1200 1201 1202 1203
7 589 812 897 1204 1205 1206 1207
7 593 994 1208 1209 1210 1211 1212
7 599 787 1011 1213 1214 1215 1216
7 602 1138 1163 1217 1218 1219 1220
7 608 822 1221 1222 1223 1224 1225
7 613 780 1210 1226 1227 1228 1229
7 618 738 1230 1231 1232 1233 1234
7 624 750 1170 1235 1236 1237 1238
7 627 958 1239 1240 1241 1242 1243
7 633 954 1244 1245 1246 1247 1248
7 637 1091 1182 1249 1250 1251 1252
7 642 1133 1200 1253 1254 1255 1256
7 647 1052 1174 1257 1258 1259 1260
7 653 837 1261 1262 1263 1264 1265
7 659 727 1266 1267 1268 1269 1270
7 664 792 1151 1271 1272 1273 1274
7 668 846 1067 1275 1276 1277 1278
7 673 1093 1233 1279 1280 1281 1282
7 677 1121 1224 1283 1284 1285 1286
7 682 1084 1269 1287 1288 1289 1290
7 687 1037 1291 1292 1293 1294 1295
7 694 1027 1291 1296 1297 1298 1299
7 698 769 1246 1300 1301 1302 1303
7 703 805 1143 1304 1305 1306 1307
7 708 756 1243 1308 1309 1310 1311
7 714 860 1105 1312 1313 1314 1315
7 717 1158 1264 1316 1317 1318 1319
7 672 784 1320 1321 1322 1323 1324
7 582 748 1325 1326 1327 1328 1329
7 603 742 1330 1331 1332 1333 1334
7 422 802 1335 1336 1337 1338 1339
7 718 809 1340 1341 1342 1343 1344
7 446 724 1345 1346 1347 1348 1349
7 356 766 1350 1351 1352 1353 1354
7 310 772 1355 1356 1357 1358 1359
7 562 779 1360 1361 1362 1363 1364
7 648 761 1365 1366 1367 1368 1369
7 514 815 1370 1371 1372 1373 1374
7 244 730 1375 1376 1377 1378 1379
7 493 737 1380 1381 1382 1383 1384
7 251 797 1385 1386 1387 1388 1389
7 380 791 1390 1391 1392 1393 1394
7 185 755 1395 1396 1397 1398 1399
7 482 832 1400 1401 1402 1403 1404
7 692 839 1405 1406 1407 1408 1409
7 592 845 1410 1411 1412 1413 1414
7 628 850 1415 1416 1417 1418 1419
7 409 857 1420 1421 1422 1423 1424
7 214 863 1425 1426 1427 1428 1429
7 394 821 1430 1431 1432 1433 1434
7 282 826 1435 1436 1437 1438 1439
7 611 972 1440 1441 1442 1443 1444
7 143 1039 1421 1445 1446 1447 1448
7 539 1070 1399 1449 1450 1451 1452
7 663 987 1453 1454 1455 1456 1457
7 623 1118 1458 1459 1460 1461 1462
7 609 1193 1463 1464 1465 1466 1467
7 680 1014 1427 1468 1469 1470 1471
7 666 1152 1472 1473 1474 1475 1476
7 86 1218 1381 1477 1478 1479 1480
7 106 1085 1396 1481 1482 1483 1484
7 702 1172 1485 1486 1487 1488 1489
7 685 1230 1379 1490 1491 1492 1493
7 545 908 1388 1494 1495 1496 1497
7 474 1101 1498 1499 1500 1501 1502
7 66 1009 1368 1503 1504 1505 1506
7 99 923 1393 1507 1508 1509 1510
7 437 1176 1511 1512 1513 1514 1515
7 550 1135 1439 1516 1517 1518 1519
7 713 1077 1520 1521 1522 1523 1524
7 699 1205 1525 1526 1527 1528 1529
7 658 1273 1530 1531 1532 1533 1534
7 675 1024 1359 1535 1536 1537 1538
7 155 1113 1432 1539 1540 1541 1542
7 576 1286 1543 1544 1545 1546 1547
7 349 1089 1548 1549 1550 1551 1552
7 433 920 1553 1554 1555 1556 1557
7 488 949 1558 1559 1560 1561 1562
7 706 1107 1548 1563 1564 1565 1566
7 640 1226 1351 1567 1568 1569 1570
7 165 1297 1436 1571 1572 1573 1574
7 617 895 1575 1576 1577 1578 1579
7 60 1257 1361 1580 1581 1582 1583
7 527 1108 1392 1584 1585 1586 1587
7 651 967 1588 1589 1590 1591 1592
7 454 1275 1433 1593 1594 1595 1596
7 94 1123 1387 1597 1598 1599 1600
7 32 1029 1343 1601 1602 1603 1604
7 293 981 1424 1529 1605 1606 1607
7 358 889 1574 1608 1609 1610 1611
7 631 1044 1336 1612 1613 1614 1615
7 38 1280 1348 1616 1617 1618 1619
7 597 1248 1553 1620 1621 1622 1623
7 150 955 1428 1513 1624 1625 1626
7 534 1308 1347 1627 1628 1629 1630
7 496 1167 1631 1632 1633 1634 1635
7 588 904 1594 1636 1637 1638 1639
7 366 1223 1576 1640 1641 1642 1643
7 453 1179 1631 1644 1645 1646 1647
7 78 1201 1376 1500 1648 1649 1650
7 635 1261 1402 1651 1652 1653 1654
7 566 1290 1558 1655 1656 1657 1658
7 286 1213 1384 1523 1659 1660 1661
7 72 874 1372 1634 1662 1663 1664
7 397 961 1600 1665 1666 1667 1668
7 121 1239 1407 1669 1670 1671 1672
7 467 913 1373 1647 1673 1674 1675
7 426 992 1618 1676 1677 1678 1679
7 386 1301 1588 1680 1681 1682 1683
7 574 937 1585 1684 1685 1686 1687
7 519 1006 1628 1677 1688 1689 1690
7 559 1147 1450 1691 1692 1693 1694
7 504 1314 1496 1665 1695 1696 1697
7 415 1236 1517 1608 1698 1699 1700
7 229 1161 1483 1691 1701 1702 1703
7 300 939 1364 1533 1704 1705 1706
7 135 898 1419 1656 1707 1708 1709
7 267 1294 1508 1684 1710 1711 1712
7 44 976 1354 1545 1713 1714 1715
7 460 1049 1328 1641 1716 1717 1718
7 313 1251 1540 1637 1719 1720 1721
7 523 869 1411 1682 1722 1723 1724
7 16 1065 1333 1621 1725 1726 1727
7 332 1304 1332 1555 1728 1729 1730
7 403 1157 1463 1603 1731 1732 1733
7 51 1184 1356 1442 1734 1735 1736
7 11 1316 1327 1577 1737 1738 1739
7 506 1003 1458 1671 1740 1741 1742
7 340 1079 1416 1562 1743 1744 1745
7 238 1132 1486 1615 1746 1747 1748
7 218 1035 1473 1652 1749 1750 1751
7 323 865 1544 1569 1752 1753 1754
7 189 1195 1367 1456 1755 1756 1757
7 130 1055 1414 1590 1758 1759 1760
7 371 883 1530 1583 1761 1762 1763
7 261 1256 1453 1504 1764 1765 1766
7 113 1209 1403 1474 1767 1768 1769
7 326 1126 1322 1550 1770 1771 1772
7 171 1267 1441 1537 1773 1774 1775
7 276 1061 1470 1511 1776 1777 1778
7 257 1021 1491 1499 1779 1780 1781
7 196 1187 1408 1460 1782 1783 1784
7 175 1096 1447 1525 1785 1786 1787
7 24 931 1339 1487 1788 1789 1790
7 3 1140 1323 1564 1791 1792 1793
7 223 997 1479 1520 1794 1795 1796
7 203 944 1342 1467 1797 1798 1799
7 37 903 1320 1800 1801 1802 1803
7 81 864 1325 1804 1805 1806 1807
7 87 1145 1330 1808 1809 1810 1811
7 17 985 1335 1812 1813 1814 1815
7 8 1004 1340 1816 1817 1818 1819
7 109 1060 1345 1820 1821 1822 1823
7 65 1204 1350 1824 1825 1826 1827
7 45 948 1355 1828 1829 1830 1831
7 52 1034 1360 1832 1833 1834 1835
7 57 1235 1365 1836 1837 1838 1839
7 2 1117 1370 1840 1841 1842 1843
7 102 1178 1375 1844 1845 1846 1847
7 93 1266 1380 1848 1849 1850 1851
7 23 1088 1385 1852 1853 1854 1855
7 29 1271 1390 1856 1857 1858 1859
7 73 1300 1395 1860 1861 1862 1863
7 158 935 1400 1864 1865 1866 1867
7 162 1019 1405 1868 1869 1870 1871
7 116 918 1410 1872 1873 1874 1875
7 122 1075 1415 1876 1877 1878 1879
7 127 1221 1420 1880 1881 1882 1883
7 136 1191 1425 1884 1885 1886 1887
7 142 1312 1430 1888 1889 1890 1891
7 149 1130 1435 1892 1893 1894 1895
7 643 871 1443 1896 1897 1898 1899
7 591 956 1448 1805 1900 1901 1902
7 499 894 1452 1877 1903 1904 1905
7 657 736 1457 1906 1907 1908 1909
7 414 725 1462 1910 1911 1912 1913
7 364 838 1466 1914 1915 1916 1917
7 569 882 1471 1809 1918 1919 1920
7 457 1046 1475 1910 1921 1922 1923
7 247 928 1480 1829 1924 1925 1926
7 510 979 1482 1872 1927 1928 1929
7 334 914 1488 1930 1931 1932 1933
7 269 965 1493 1837 1934 1935 1936
7 704 999 1497 1825 1937 1938 1939
7 532 1025 1502 1940 1941 1942 1943
7 561 879 1506 1893 1917 1944 1945
7 715 933 1509 1833 1946 1947 1948
7 344 910 1515 1936 1949 1950 1951
7 441 1104 1519 1857 1898 1952 1953
7 501 827 1524 1954 1955 1956 1957
7 383 778 1528 1926 1958 1959 1960
7 170 749 1534 1961 1962 1963 1964
7 579 1154 1538 1888 1932 1965 1966
7 407 902 1541 1853 1909 1967 1968
7 191 1016 1547 1969 1970 1971 1972
7 518 743 1551 1970 1973 1974 1975
7 711 820 1557 1940 1976 1977 1978
7 622 760 1561 1948 1979 1980 1981
7 537 1081 1565 1961 1982 1983 1984
7 262 960 1570 1868 1985 1986 1987
7 208 1116 1572 1812 1988 1989 1990
7 688 1127 1578 1954 1991 1992 1993
7 306 1087 1582 1864 1994 1995 1996
7 404 888 1587 1801 1997 1998 1999
7 638 945 1591 1939 2000 2001 2002
7 178 971 1595 1817 2003 2004 2005
7 418 1202 1598 1800 2006 2007 2008
7 581 1124 1604 1820 2009 2010 2011
7 654 989 1607 1813 2012 2013 2014
7 684 1050 1611 2015 2016 2017 2018
7 598 1094 1614 1821 2019 2020 2021
7 181 1013 1619 1884 1957 2022 2023
7 287 1227 1622 1914 2024 2025 2026
7 625 1211 1625 1816 2027 2028 2029
7 231 1169 1629 1880 1942 2030 2031
7 329 983 1635 1920 2032 2033 2034
7 696 754 1639 2015 2035 2036 2037
7 254 833 1643 1931 2038 2039 2040
7 347 808 1645 1902 2041 2042 2043
7 375 1069 1649 1841 2036 2044 2045
7 315 1164 1653 1848 1971 2046 2047
7 197 1110 1657 2021 2048 2049 2050
7 400 1150 1660 1840 2018 2051 2052
7 670 1185 1663 1869 2053 2054 2055
7 634 940 1668 1905 2056 2057 2058
7 279 1043 1672 1845 1964 2059 2060
7 709 995 1675 1865 2061 2062 2063
7 542 1263 1678 1906 2064 2065 2066
7 217 785 1681 2011 2049 2067 2068
7 606 856 1686 1929 2069 2070 2071
7 557 731 1690 1897 2072 2073 2074
7 451 796 1693 1990 2075 2076 2077
7 234 844 1696 1996 2078 2079 2080
7 272 773 1699 2001 2081 2082 2083
7 470 1137 1703 2005 2084 2085 2086
7 614 1244 1705 1885 1992 2087 2088
7 690 1057 1708 1849 1974 2089 2090
7 206 1071 1712 1987 2091 2092 2093
7 645 1142 1714 1881 1977 2094 2095
7 477 1287 1717 1860 1922 2096 2097
7 295 1232 1721 1979 2098 2099 2100
7 669 1253 1724 1844 1983 2101 2102
7 491 1033 1727 1861 1913 2103 2104
7 224 1175 1729 1832 2099 2105 2106
7 463 1196 1732 2063 2079 2107 2108
7 351 1281 1735 1876 2109 2110 2111
7 240 1220 1739 1824 2082 2112 2113
7 553 1305 1741 1958 2114 2115 2116
7 508 1160 1744 1804 2117 2118 2119
7 431 851 1747 2055 2091 2120 2121
7 587 767 1750 1949 2122 2123 2124
7 662 790 1753 2029 2084 2125 2126
7 373 1099 1756 1873 2127 2128 2129
7 479 1298 1760 1808 2130 2131 2132
7 678 1189 1762 2014 2075 2133 2134
7 301 1277 1765 2041 2119 2135 2136
7 390 1241 1769 1856 2073 2137 2138
7 427 1292 1771 1892 2025 2139 2140
7 320 803 1774 2032 2132 2141 2142
7 485 814 1777 2008 2143 2144 2145
7 571 862 1780 2056 2111 2146 2147
7 360 1283 1783 1852 2066 2148 2149
7 525 1214 1787 1999 2143 2150 2151
7 600 1318 1789 1836 2123 2152 2153
7 444 1259 1793 1889 2039 2154 2155
7 547 1309 1795 2069 2129 2156 2157
7 619 1249 1798 1828 2116 2158 2159
7 590 1111 1779 1997 2160 2161 2162
7 560 1082 1776 2117 2163 2164 2165
7 671 1018 1698 1918 2166 2167 2168
7 305 984 1636 2012 2169 2170 2171
7 512 1278 1749 2003 2172 2173 2174
7 691 1047 1695 2019 2175 2176 2177
7 478 911 1521 1937 2178 2179 2180
7 277 947 1685 2158 2181 2182 2183
7 408 1307 1746 2105 2184 2185 2186
7 626 1234 1640 1934 2187 2188 2189
7 209 1216 1554 2051 2190 2191 2192
7 443 872 1526 2101 2193 2194 2195
7 646 1265 1680 2046 2196 2197 2198
7 180 1190 1559 2148 2199 2200 2201
7 352 1139 1459 1952 2202 2203 2204
7 389 1053 1464 2096 2205 2206 2207
7 580 916 1692 2061 2208 2209 2210
7 716 1229 1773 1985 2211 2212 2213
7 246 1198 1752 2127 2214 2215 2216
7 419 1074 1688 1903 2217 2218 2219
7 376 1311 1549 2030 2220 2221 2222
7 239 943 1454 2087 2223 2224 2225
7 601 1028 1531 1965 2226 2227 2228
7 490 1129 1644 2139 2229 2230 2231
7 160 1005 1770 2074 2232 2233 2234
7 620 744 1733 1806 2199 2235 2236
7 531 959 1383 2057 2237 2238 2239
7 701 1115 1768 1968 2206 2240 2241
7 497 1068 1790 2104 2227 2242 2243
7 438 1012 1715 1945 2197 2244 2245
7 644 1165 1397 2033 2246 2247 2248
7 90 1119 1743 1912 2249 2250 2251
7 363 768 1763 1831 2205 2252 2253
7 655 841 1786 1875 2223 2254 2255
7 41 1222 1797 2040 2256 2257 2258
7 458 1173 1438 1950 2259 2260 2261
7 683 963 1423 2000 2262 2263 2264
7 69 919 1612 1978 2265 2266 2267
7 516 824 1742 1894 2220 2268 2269
7 710 775 1766 1834 2190 2270 2271
7 20 1036 1722 2124 2272 2273 2274
7 543 969 1362 1896 2275 2276 2277
7 567 1282 1792 2023 2194 2278 2279
7 577 1219 1726 1925 2230 2280 2281
7 266 1242 1709 2060 2176 2282 2283
7 689 1168 1386 1930 2284 2285 2286
7 412 794 1796 1855 2202 2287 2288
7 124 1090 1673 1975 2289 2290 2291
7 396 901 1626 2090 2189 2292 2293
7 652 980 1736 2095 2204 2294 2295
7 612 927 1650 1947 2222 2296 2297
7 167 1272 1755 1963 2298 2299 2300
7 335 1293 1377 2092 2301 2302 2303
7 382 799 1667 1815 2193 2304 2305
7 111 1076 1728 1956 2306 2307 2308
7 345 828 1592 1867 2229 2309 2310
7 341 1095 1434 2150 2311 2312 2313
7 83 1237 1782 2083 2314 2315 2316
7 190 1159 1349 2085 2307 2317 2318
7 605 782 1633 1802 2181 2319 2320
7 430 721 1566 1822 2184 2321 2322
7 469 881 1369 2133 2323 2324 2325
7 104 905 1651 2037 2303 2326 2327
7 639 1288 1426 2048 2310 2328 2329
7 168 858 1610 1887 2226 2262 2330
7 61 1192 1584 1916 2325 2331 2332
7 695 807 1711 1818 2169 2333 2334
7 289 1098 1329 1941 2315 2335 2336
7 117 1268 1704 2142 2296 2337 2338
7 707 1203 1738 2045 2225 2289 2339
7 176 1144 1664 2155 2167 2340 2341
7 473 1042 1542 1901 2185 2342 2343
7 500 813 1702 1843 2178 2323 2344
7 538 1284 1357 1969 2322 2345 2346
7 12 1302 1605 2068 2294 2347 2348
7 294 887 1409 2016 2299 2349 2350
7 660 836 1658 1870 2214 2351 2352
7 48 1020 1716 2147 2342 2345 2353
7 215 726 1579 1847 2196 2284 2354
7 632 1155 1391 2107 2305 2355 2356
7 145 986 1567 1908 2313 2357 2358
7 228 1031 1510 2010 2212 2359 2360
7 667 1086 1617 1928 2201 2272 2361
7 402 1212 1759 2138 2180 2331 2362
7 596 1299 1670 1989 2182 2265 2363
7 314 1260 1505 1995 2164 2326 2364
7 260 1319 1602 2113 2209 2357 2365
7 139 866 1535 2126 2280 2328 2366
7 548 892 1344 1991 2288 2348 2367
7 585 734 1623 1850 2172 2335 2368
7 5 1131 1494 2121 2240 2369 2370
7 555 855 1720 1883 2217 2349 2371
7 554 1149 1412 1921 2269 2337 2372
7 33 950 1468 1981 2278 2355 2373
7 679 1103 1371 1982 2253 2370 2374
7 253 751 1679 1863 2187 2275 2375
7 198 1250 1401 2098 2233 2352 2376
7 54 1313 1659 2080 2277 2292 2377
7 449 847 1514 1878 2208 2311 2378
7 233 764 1444 1827 2175 2246 2379
7 96 1206 1593 1960 2239 2340 2380
7 327 1254 1353 2135 2266 2320 2381
7 359 877 1484 2054 2174 2314 2382
7 370 934 1599 2153 2219 2298 2383
7 616 957 1573 2028 2192 2256 2384
7 204 996 1334 2156 2251 2334 2385
7 484 739 1489 1810 2163 2301 2386
7 153 1146 1627 2077 2261 2359 2387
7 131 1180 1449 2043 2242 2263 2388
7 271 789 1501 1859 2166 2237 2389
7 464 1245 1337 2024 2236 2273 2390
7 222 1059 1446 2131 2161 2306 2391
7 425 1125 1478 2007 2215 2232 2392
7 507 1186 1581 2110 2171 2249 2393
7 302 990 1324 2064 2257 2271 2394
7 26 1062 1516 2145 2244 2285 2395
7 570 758 1546 1838 2160 2317 2396
7 318 819 1476 1891 2211 2259 2397
7 75 936 1490 2071 2248 2282 2398
7 524 1000 1417 2114 2255 2291 2399
7 312 781 1689 1862 2270 2400 2401
7 575 747 1781 1858 2368 2402 2403
7 227 740 1522 1854 2333 2404 2405
7 259 800 1556 1851 2235 2406 2407
7 424 804 1642 1846 2287 2408 2409
7 436 722 1694 1842 2396 2410 2411
7 174 763 1455 1835 2319 2412 2413
7 565 771 1754 1839 2321 2414 2415
7 665 776 1775 1826 2375 2416 2417
7 357 757 1532 1830 2344 2418 2419
7 505 810 1552 1823 2252 2420 2421
7 495 729 1687 1819 2386 2422 2423
7 610 733 1697 1814 2389 2424 2425
7 705 793 1748 1811 2354 2426 2427
7 369 786 1465 1807 2304 2428 2429
7 650 752 1646 1803 2379 2430 2431
7 265 831 1638 1882 2351 2432 2433
7 472 835 1700 1886 2371 2434 2435
7 595 842 1751 1890 2268 2436 2437
7 221 848 1461 1895 2254 2438 2439
7 615 852 1683 1866 2330 2440 2441
7 401 861 1560 1871 2309 2442 2443
7 395 816 1527 1874 2378 2444 2445
7 700 823 1778 1879 2397 2446 2447
7 384 973 1713 2136 2177 2448 2449
7 213 1041 1589 2137 2308 2426 2450
7 13 1072 1674 2140 2264 2451 2452
7 285 988 1363 2141 2339 2431 2453
7 535 1120 1437 2144 2295 2444 2454
7 195 1194 1326 2146 2241 2425 2455
7 62 1015 1745 2149 2356 2456 2457
7 235 1153 1539 2151 2213 2458 2459
7 381 1217 1666 2152 2234 2430 2460
7 355 1083 1632 2154 2316 2443 2461
7 450 1171 1725 2157 2165 2462 2463
7 132 1231 1586 2159 2247 2464 2465
7 125 909 1613 2106 2374 2466 2467
7 169 1102 1507 2108 2168 2468 2469
7 515 1010 1761 2109 2327 2440 2470
7 423 924 1731 2112 2387 2421 2471
7 502 1177 1707 2115 2210 2472 2473
7 6 1136 1469 2118 2286 2474 2475
7 551 1078 1389 2120 2362 2423 2476
7 298 1207 1413 2122 2279 2447 2477
7 462 1274 1358 2125 2243 2411 2478
7 34 1026 1568 2128 2329 2479 2480
7 629 1112 1785 2130 2353 2429 2481
7 273 1285 1503 2134 2162 2482 2483
7 333 1092 1346 2076 2297 2419 2484
7 455 921 1382 2078 2384 2428 2485
7 188 952 1406 2081 2361 2441 2486
7 486 1106 1616 2086 2186 2487 2488
7 97 1228 1757 2088 2312 2489 2490
7 391 1296 1512 2089 2258 2422 2491
7 346 896 1648 2093 2198 2492 2493
7 184 1258 1440 2094 2250 2446 2494
7 166 1109 1799 2097 2324 2495 2496
7 607 966 1767 2100 2231 2497 2498
7 55 1276 1606 2102 2238 2492 2499
7 243 1122 1485 2103 2300 2415 2500
7 250 1030 1575 2044 2358 2416 2501
7 40 982 1723 2047 2367 2502 2503
7 365 890 1624 2050 2228 2489 2504
7 146 1045 1730 2052 2381 2494 2505
7 649 1279 1701 2053 2274 2445 2467
7 319 1247 1477 2058 2173 2502 2506
7 483 953 1655 2059 2377 2407 2507
7 27 1310 1451 2062 2260 2497 2508
7 697 1166 1791 2065 2183 2486 2509
7 540 907 1422 2067 2393 2442 2483
7 636 1225 1378 2070 2293 2404 2510
7 201 1181 1321 2072 2281 2417 2511
7 604 1199 1710 2009 2338 2412 2503
7 76 1262 1596 2013 2302 2501 2512
7 572 1289 1669 2017 2216 2485 2513
7 118 1215 1495 2020 2276 2487 2514
7 309 876 1563 2022 2380 2436 2515
7 656 962 1788 2026 2195 2511 2512
7 410 1240 1609 2027 2267 2424 2480
7 89 915 1772 2031 2399 2491 2516
7 216 993 1481 2034 2188 2495 2517
7 324 1303 1404 2035 2245 2435 2518
7 292 938 1341 2038 2363 2427 2473
7 686 1008 1398 2042 2383 2413 2506
7 544 1148 1374 1973 2365 2414 2469
7 522 1315 1338 1976 2283 2403 2504
7 676 1238 1429 1980 2341 2432 2517
7 413 1162 1662 1984 2179 2477 2505
7 19 941 1536 1986 2372 2481 2513
7 594 899 1740 1988 2398 2409 2508
7 556 1295 1601 1993 2170 2453 2519
7 674 975 1764 1994 2395 2439 2514
7 138 1051 1492 1998 2346 2470 2509
7 255 1252 1445 2002 2218 2476 2516
7 68 870 1654 2004 2390 2460 2519
7 719 1066 1794 2006 2366 2418 2475
7 152 1306 1661 1938 2318 2448 2515
7 661 1156 1737 1943 2200 2474 2484
7 445 1183 1543 1944 2347 2433 2496
7 492 1317 1498 1946 2290 2410 2457
7 432 1001 1571 1951 2221 2451 2510
7 110 1080 1784 1953 2385 2468 2500
7 338 1134 1331 1955 2343 2408 2498
7 641 1038 1431 1959 2382 2438 2488
7 528 868 1366 1962 2392 2420 2463
7 82 1197 1706 1966 2350 2458 2507
7 280 1056 1472 1967 2332 2402 2490
7 621 884 1734 1972 2207 2464 2518
7 586 1255 1580 1899 2191 2454 2466
7 693 1208 1719 1900 2369 2405 2452
7 103 1128 1630 1904 2376 2450 2472
7 630 1270 1352 1907 2360 2400 2493
7 466 1063 1418 1911 2364 2437 2449
7 681 1023 1394 1915 2391 2406 2459
7 47 1188 1518 1919 2336 2462 2471
7 712 1097 1758 1923 2224 2455 2479
7 583 930 1620 1924 2388 2401 2499
7 563 1141 1676 1927 2373 2434 2465
7 517 998 1597 1933 2203 2456 2478
7 159 946 1718 1935 2394 2461 2482
