# Generated using Miratope v0.5.0 (https://github.com/galoomba1/miratope-rs)
4OFF

# Vertices, Faces, Edges, Cells
120 2520 1200 720

# Vertices
0.809016994374945 -0.809016994374945 -0.809016994374945 0.809016994374945 
0 -1.61803398874989 0 0 
0 0 -1.61803398874989 0 
0.809016994374945 0 0.5 1.30901699437495 
-0.809016994374945 -0.809016994374945 -0.809016994374945 -0.809016994374945 
-1.30901699437495 0.5 0 -0.809016994374945 
0 -0.809016994374945 1.30901699437495 0.5 
-0.5 1.30901699437495 -0.809016994374945 0 
0 1.30901699437495 0.5 0.809016994374945 
-0.809016994374945 0.5 1.30901699437495 0 
0.809016994374945 -0.809016994374945 0.809016994374945 0.809016994374945 
-0.809016994374945 -0.809016994374945 0.809016994374945 0.809016994374945 
0.809016994374945 0.5 1.30901699437495 0 
-0.809016994374945 -0.809016994374945 -0.809016994374945 0.809016994374945 
0.809016994374945 0.5 -1.30901699437495 0 
-0.809016994374945 0.5 -1.30901699437495 0 
0.809016994374945 1.30901699437495 0 -0.5 
-0.809016994374945 1.30901699437495 0 -0.5 
0.809016994374945 -0.809016994374945 0.809016994374945 -0.809016994374945 
0.809016994374945 -0.809016994374945 -0.809016994374945 -0.809016994374945 
-0.809016994374945 -0.809016994374945 0.809016994374945 -0.809016994374945 
1.30901699437495 0 0.809016994374945 0.5 
1.30901699437495 0 -0.809016994374945 0.5 
-1.30901699437495 0 0.809016994374945 0.5 
-1.30901699437495 0 -0.809016994374945 0.5 
0 0.5 0.809016994374945 1.30901699437495 
0 0.5 -0.809016994374945 1.30901699437495 
-0.809016994374945 0.809016994374945 -0.809016994374945 0.809016994374945 
-0.809016994374945 0.809016994374945 -0.809016994374945 -0.809016994374945 
0 1.30901699437495 0.5 -0.809016994374945 
0 -1.30901699437495 0.5 0.809016994374945 
0 -1.30901699437495 0.5 -0.809016994374945 
0.5 0 1.30901699437495 0.809016994374945 
0.5 0 1.30901699437495 -0.809016994374945 
0.809016994374945 0.809016994374945 -0.809016994374945 0.809016994374945 
0.809016994374945 0.809016994374945 -0.809016994374945 -0.809016994374945 
-0.5 0.809016994374945 0 1.30901699437495 
-0.5 0.809016994374945 0 -1.30901699437495 
-0.5 -0.809016994374945 0 1.30901699437495 
-0.5 -0.809016994374945 0 -1.30901699437495 
-1.30901699437495 0.809016994374945 0.5 0 
-1.30901699437495 -0.809016994374945 0.5 0 
0 0 1.61803398874989 0 
1.30901699437495 0.5 0 -0.809016994374945 
-0.809016994374945 0 -0.5 1.30901699437495 
0.5 1.30901699437495 0.809016994374945 0 
0 -0.809016994374945 -1.30901699437495 0.5 
0 1.30901699437495 -0.5 0.809016994374945 
-0.809016994374945 0.809016994374945 0.809016994374945 -0.809016994374945 
-1.61803398874989 0 0 0 
0 0 0 -1.61803398874989 
0 0.809016994374945 1.30901699437495 0.5 
0.5 -1.30901699437495 -0.809016994374945 0 
-0.809016994374945 0 0.5 1.30901699437495 
1.30901699437495 -0.5 0 -0.809016994374945 
0.5 -0.809016994374945 0 1.30901699437495 
0 0 0 1.61803398874989 
0.5 1.30901699437495 -0.809016994374945 0 
0 -0.809016994374945 1.30901699437495 -0.5 
1.30901699437495 0.5 0 0.809016994374945 
-0.809016994374945 0 0.5 -1.30901699437495 
1.30901699437495 0 0.809016994374945 -0.5 
0.5 0.809016994374945 0 -1.30901699437495 
0.809016994374945 0.809016994374945 0.809016994374945 0.809016994374945 
1.61803398874989 0 0 0 
-0.5 1.30901699437495 0.809016994374945 0 
0 -0.809016994374945 -1.30901699437495 -0.5 
0.809016994374945 0 -0.5 -1.30901699437495 
-1.30901699437495 0.5 0 0.809016994374945 
-1.30901699437495 0 -0.809016994374945 -0.5 
0 0.809016994374945 -1.30901699437495 0.5 
-0.5 -1.30901699437495 0.809016994374945 0 
0.809016994374945 0 -0.5 1.30901699437495 
-1.30901699437495 -0.5 0 -0.809016994374945 
0 1.61803398874989 0 0 
0.809016994374945 0 0.5 -1.30901699437495 
-1.30901699437495 -0.5 0 0.809016994374945 
0 0.809016994374945 1.30901699437495 -0.5 
-0.5 -1.30901699437495 -0.809016994374945 0 
-0.809016994374945 -0.5 1.30901699437495 0 
-0.809016994374945 0.809016994374945 0.809016994374945 0.809016994374945 
0.5 0.809016994374945 0 1.30901699437495 
0.5 -0.809016994374945 0 -1.30901699437495 
1.30901699437495 0.809016994374945 -0.5 0 
1.30901699437495 -0.809016994374945 -0.5 0 
0.809016994374945 0.809016994374945 0.809016994374945 -0.809016994374945 
0 1.30901699437495 -0.5 -0.809016994374945 
0 -1.30901699437495 -0.5 0.809016994374945 
0 -1.30901699437495 -0.5 -0.809016994374945 
-0.5 0 -1.30901699437495 0.809016994374945 
-0.5 0 -1.30901699437495 -0.809016994374945 
1.30901699437495 0 -0.809016994374945 -0.5 
-1.30901699437495 0 0.809016994374945 -0.5 
0 -0.5 0.809016994374945 -1.30901699437495 
0 -0.5 -0.809016994374945 -1.30901699437495 
0.809016994374945 -0.5 1.30901699437495 0 
0.809016994374945 -0.5 -1.30901699437495 0 
-0.809016994374945 -0.5 -1.30901699437495 0 
0.809016994374945 -1.30901699437495 0 0.5 
-0.809016994374945 -1.30901699437495 0 0.5 
1.30901699437495 -0.5 0 0.809016994374945 
-0.809016994374945 0 -0.5 -1.30901699437495 
0 0.809016994374945 -1.30901699437495 -0.5 
0.5 -1.30901699437495 0.809016994374945 0 
-0.809016994374945 1.30901699437495 0 0.5 
1.30901699437495 -0.809016994374945 0.5 0 
0.809016994374945 1.30901699437495 0 0.5 
-1.30901699437495 -0.809016994374945 -0.5 0 
-0.5 0 1.30901699437495 0.809016994374945 
0 0.5 -0.809016994374945 -1.30901699437495 
0 -0.5 -0.809016994374945 1.30901699437495 
-0.5 0 1.30901699437495 -0.809016994374945 
0.809016994374945 -1.30901699437495 0 -0.5 
-1.30901699437495 0.809016994374945 -0.5 0 
1.30901699437495 0.809016994374945 0.5 0 
-0.809016994374945 -1.30901699437495 0 -0.5 
0 -0.5 0.809016994374945 1.30901699437495 
0.5 0 -1.30901699437495 -0.809016994374945 
0 0.5 0.809016994374945 -1.30901699437495 
0.5 0 -1.30901699437495 0.809016994374945 

# Faces
4 0 1 4 2
4 0 1 6 3
5 2 0 3 8 7
5 4 5 9 6 1
4 4 5 7 2
4 8 9 6 3
4 8 7 5 9
4 0 13 11 10
5 12 10 0 14 16
4 11 9 12 10
4 0 14 15 13
5 11 9 17 15 13
4 16 17 9 12
4 17 15 14 16
4 18 20 4 19
4 19 18 21 22
5 21 18 20 23 25
5 4 19 22 26 24
4 4 24 23 20
4 21 25 26 22
4 26 24 23 25
4 28 27 13 4
4 27 28 29 8
5 27 13 30 32 8
5 28 4 31 33 29
4 13 4 31 30
4 8 32 33 29
4 33 31 30 32
4 34 0 19 35
5 35 34 36 40 37
4 0 38 36 34
4 35 19 39 37
5 19 39 41 38 0
4 38 41 40 36
4 37 39 41 40
4 18 42 11 1
4 42 45 43 18
5 43 18 1 46 14
5 42 45 47 44 11
4 11 1 46 44
4 45 43 14 47
4 47 14 46 44
4 48 50 4 49
4 48 51 53 49
5 48 50 54 21 51
5 4 49 53 55 52
4 50 4 52 54
4 51 53 55 21
4 21 55 52 54
4 56 11 49 27
4 27 56 59 57
5 49 60 62 57 27
5 11 58 61 59 56
4 11 49 60 58
4 59 61 62 57
4 61 62 60 58
4 63 56 0 64
5 63 65 37 67 64
4 63 65 68 56
4 0 64 67 66
5 56 68 69 66 0
4 68 69 37 65
4 67 37 69 66
4 35 50 18 64
4 64 35 70 72
5 35 70 24 73 50
5 18 71 38 72 64
4 18 71 73 50
4 38 72 70 24
4 71 38 24 73
4 35 2 27 74
4 74 77 75 35
5 35 2 78 31 75
5 27 74 77 79 76
4 2 78 76 27
4 79 31 75 77
4 79 31 78 76
4 80 11 20 48
5 48 80 81 83 62
4 11 80 81 55
4 48 62 82 20
5 11 55 84 82 20
4 83 84 55 81
4 84 82 62 83
4 85 63 10 18
4 63 47 86 85
5 63 10 87 89 47
5 18 85 86 90 88
4 18 10 87 88
4 86 47 89 90
4 89 87 88 90
4 63 80 27 34
4 34 63 61 91
5 63 61 93 92 80
5 27 34 91 94 69
4 27 69 92 80
4 61 91 94 93
4 92 93 94 69
4 35 85 48 28
5 85 95 98 96 35
4 85 95 79 48
4 28 97 96 35
5 48 79 99 97 28
4 79 99 98 95
4 98 96 97 99
4 63 42 48 74
5 74 102 96 100 63
4 42 103 100 63
4 48 74 102 101
5 42 103 88 101 48
4 103 88 96 100
4 102 101 88 96
4 20 49 13 1
5 49 20 33 45 104
4 1 105 33 20
4 13 49 104 26
5 1 13 26 59 105
4 59 105 33 45
4 59 26 104 45
4 64 19 1 10
4 10 25 106 64
5 10 1 107 68 25
5 19 64 106 7 90
4 19 90 107 1
4 25 106 7 68
4 68 107 90 7
4 56 34 2 13
5 56 108 77 16 34
4 2 34 16 109
4 13 56 108 41
5 13 41 60 109 2
4 16 109 60 77
4 77 60 41 108
4 19 2 28 50
4 19 98 110 2
5 111 50 19 98 6
5 28 2 110 53 40
4 28 40 111 50
4 53 6 98 110
4 53 6 111 40
4 64 34 74 85
4 85 64 112 93
5 85 93 73 113 74
5 112 64 34 89 78
4 34 89 113 74
4 89 78 73 113
4 112 93 73 78
4 80 74 28 49
4 74 114 32 80
5 80 32 103 115 49
5 74 114 54 94 28
4 49 115 94 28
4 114 54 103 32
4 103 115 94 54
4 42 85 50 20
5 42 116 72 83 85
4 85 83 117 50
4 42 20 99 116
5 50 20 99 46 117
4 83 72 46 117
4 116 99 46 72
4 10 42 80 56
5 10 42 118 67 84
4 10 84 119 56
4 42 118 17 80
5 56 80 17 102 119
4 119 84 67 102
4 118 17 102 67
4 21 106 65 42
4 42 71 98 21
5 42 65 113 107 71
5 21 106 70 46 98
4 65 106 70 113
4 98 46 107 71
4 70 46 107 113
4 81 51 40 27
5 100 81 27 97 52
4 40 27 97 73
4 51 95 100 81
5 51 40 73 31 95
4 95 100 52 31
4 52 31 73 97
4 10 63 77 58
4 63 77 17 47
4 87 115 58 10
4 47 89 69 17
5 77 58 115 69 17
4 87 89 69 115
4 80 47 15 49
4 32 80 47 59
4 49 15 66 115
4 59 32 103 84
5 84 59 47 15 66
4 84 103 115 66
4 48 45 57 28
4 48 79 32 45
4 97 119 57 28
5 32 45 57 119 55
4 79 32 55 99
4 97 119 55 99
4 42 25 104 48
4 101 15 104 48
4 42 25 55 103
5 104 15 46 55 25
4 103 55 46 88
4 101 15 46 88
4 74 63 108 40
4 63 108 30 100
4 102 69 40 74
4 96 78 30 100
5 40 69 78 30 108
4 102 69 78 96
4 10 72 36 108
4 72 10 112 96
5 10 108 92 39 112
5 36 113 90 96 72
4 36 113 92 108
4 113 92 39 90
4 96 90 39 112
5 116 51 74 70 110
4 51 74 37 111
4 70 90 37 74
4 116 71 111 51
4 110 116 71 78
5 111 71 78 90 37
4 110 70 90 78
5 104 81 22 117 28
4 28 73 23 104
4 28 117 88 73
4 116 98 22 81
4 116 81 104 23
5 116 23 73 88 98
4 98 22 117 88
4 11 92 65 25
4 11 87 72 25
5 11 87 66 101 92
5 65 25 72 14 86
4 14 72 87 66
4 65 86 101 92
4 14 66 101 86
4 56 30 79 80
4 17 80 79 60
4 56 119 52 30
4 102 94 60 17
5 79 30 52 94 60
4 102 119 52 94
4 34 64 12 8
4 34 89 68 8
4 64 12 58 112
5 12 8 68 41 58
4 112 58 41 78
4 78 41 68 89
4 18 12 3 98
5 18 39 5 65 12
4 18 39 78 98
4 12 3 36 65
5 36 24 78 98 3
4 65 5 24 36
4 5 39 78 24
4 34 7 29 114
5 95 114 34 110 30
4 7 24 110 34
4 114 29 111 95
4 111 95 30 41
5 111 29 7 24 41
4 110 30 41 24
4 57 104 24 2
5 105 52 2 57 114
4 24 99 52 2
4 51 114 105 6
4 114 57 104 51
5 104 51 6 99 24
4 105 6 99 52
4 6 20 118 12
4 6 20 107 38
5 118 86 15 107 20
5 12 6 38 26 106
4 12 106 86 118
4 106 86 15 26
4 38 107 15 26
4 56 32 105 0
4 0 66 82 105
4 56 68 9 32
5 32 9 60 82 105
4 68 9 60 69
4 82 66 69 60
4 4 109 17 49
4 52 4 109 91
4 53 49 17 8
4 55 59 8 53
5 59 91 109 17 8
4 55 52 91 59
4 11 20 5 68
4 11 55 26 68
4 5 20 82 109
4 26 55 84 14
5 68 5 109 14 26
4 82 109 14 84
4 50 20 9 29
4 99 53 9 20
4 50 29 57 117
5 53 9 29 57 26
4 53 99 46 26
4 26 46 117 57
4 27 34 3 53
4 3 34 91 105
4 69 41 53 27
5 53 3 105 31 41
4 94 31 105 91
4 69 41 31 94
5 3 22 35 29 51
4 22 35 90 46
4 29 5 90 35
4 51 3 38 23
4 22 3 38 46
4 51 23 5 29
5 5 23 38 46 90
4 1 38 108 58
4 1 38 89 66
5 1 66 109 118 58
5 65 108 38 89 7
4 108 65 118 58
4 65 118 109 7
4 89 66 109 7
4 85 21 81 74
4 93 103 21 85
4 74 113 44 81
5 81 21 103 99 44
4 73 99 44 113
4 93 103 99 73
4 27 119 83 74
4 27 119 87 76
4 77 61 83 74
5 61 103 87 119 83
4 61 77 79 103
4 79 76 87 103
4 80 44 72 63
4 61 84 72 63
4 80 92 107 44
4 84 61 93 88
5 72 84 88 107 44
4 93 92 107 88
4 100 56 47 83
5 56 100 112 115 76
4 47 56 76 113
4 100 112 67 83
5 47 113 101 67 83
4 113 101 115 76
4 67 101 115 112
4 80 48 73 76
4 81 110 76 80
4 62 94 73 48
4 81 83 96 110
4 62 94 96 83
5 110 76 73 94 96
5 86 70 44 23 48
4 86 67 93 48
4 23 48 93 71
4 44 23 71 87
4 44 70 96 87
4 70 86 67 96
5 67 96 87 71 93
4 63 95 54 83
4 63 36 70 83
5 95 71 76 36 63
5 54 88 97 70 83
4 95 71 88 54
4 70 36 76 97
4 76 71 88 97
4 77 80 116 95
4 77 37 113 80
5 80 116 87 97 113
5 77 95 112 94 37
4 95 116 87 112
4 37 94 97 113
4 87 112 94 97
4 85 42 92 37
4 83 85 37 102
4 42 116 76 92
4 83 102 89 72
4 72 116 76 89
5 37 92 76 89 102
4 116 21 45 80
4 45 80 113 86
5 45 21 84 117 86
4 87 84 21 116
4 97 117 84 87
4 97 117 86 113
4 42 11 115 93
4 44 11 115 97
4 45 62 93 42
4 47 102 62 45
4 47 44 97 102
5 102 97 115 93 62
4 79 116 44 49
4 79 93 101 49
5 49 101 117 119 44
5 116 79 93 54 100
4 100 119 44 116
4 54 100 119 117
4 93 101 117 54
4 56 8 114 100
4 56 76 40 8
5 40 8 114 75 60
4 100 114 75 112
4 115 60 40 76
4 112 115 60 75
4 18 64 16 118
4 18 118 92 71
4 64 16 47 72
5 16 118 92 68 47
4 38 68 47 72
4 71 92 68 38
4 106 22 54 85
5 85 111 23 36 106
4 85 54 31 111
4 106 22 110 36
4 36 110 99 23
5 54 31 99 110 22
4 23 111 31 99
4 28 24 36 74
4 28 24 78 94
4 36 74 114 3
4 54 98 3 114
4 98 54 94 78
4 106 14 67 85
4 85 111 39 67
4 106 14 89 36
4 36 23 107 89
4 111 39 107 23
5 14 89 107 39 67
5 0 30 58 75 91
4 102 91 0 89
4 0 89 76 30
4 75 37 102 91
4 37 75 58 92
4 92 58 30 76
4 99 44 15 4
4 103 82 4 99
5 57 15 4 82 43
4 21 43 57 81
4 103 82 43 21
4 81 57 15 44
4 11 13 52 103
4 9 11 103 33
4 13 52 117 15
4 33 9 17 62
5 62 33 103 52 117
4 15 117 62 17
4 9 49 44 25
4 49 101 118 9
5 25 9 118 43 59
4 59 119 44 25
4 117 43 59 119
4 43 117 101 118
4 27 102 66 13
4 8 27 102 16
4 13 30 112 66
4 8 16 61 32
4 61 32 30 112
5 61 112 66 102 16
4 35 114 33 50
4 114 35 70 81
4 73 79 33 50
5 81 114 33 79 53
4 81 70 24 53
4 73 79 53 24
4 38 10 42 23
4 46 84 10 38
4 5 118 42 23
4 67 90 46 84
4 118 5 90 67
5 50 5 104 106 43
4 43 84 88 50
4 88 50 5 107
4 106 72 84 43
4 72 44 104 106
4 107 5 104 44
4 27 110 99 49
4 57 22 110 27
4 60 31 99 49
4 22 57 62 54
4 60 31 54 62
4 13 68 47 119
4 13 68 92 115
5 119 91 82 115 13
4 47 16 91 119
4 16 91 82 118
4 118 82 115 92
4 10 61 82 1
4 25 10 61 45
4 107 101 82 1
4 68 17 45 25
5 61 45 17 101 82
4 17 68 107 101
4 53 13 119 81
4 115 79 53 13
4 119 81 114 91
4 82 33 114 91
4 115 79 33 82
4 86 43 33 48
4 23 6 33 48
5 55 22 43 33 6
4 86 43 22 70
4 55 44 70 22
4 55 44 23 6
4 63 16 75 95
4 16 63 36 7
5 16 7 69 39 75
4 71 39 75 95
4 36 76 69 7
4 71 76 69 39
4 85 65 7 35
4 95 108 65 85
4 96 89 7 35
4 95 108 38 98
4 38 98 96 89
5 108 3 64 75 111
4 3 110 96 64
4 75 94 96 64
4 76 108 3 110
4 108 76 73 111
4 94 75 111 73
4 6 18 85 51
4 85 51 104 86
4 18 6 99 88
4 90 24 104 86
4 24 90 88 99
4 89 56 11 107
4 58 39 107 11
4 59 14 89 56
4 67 61 59 14
4 58 39 67 61
4 2 91 62 28
4 28 62 77 40
4 91 2 110 100
5 77 32 100 91 62
4 32 53 110 100
4 53 32 77 40
4 13 69 39 1
4 7 26 13 69
4 1 39 75 105
4 59 16 75 105
4 7 26 59 16
4 1 41 111 18
4 43 29 111 18
4 24 46 1 41
4 29 43 14 7
4 14 7 24 46
4 19 75 60 4
4 22 114 75 19
4 4 60 40 24
4 114 22 26 8
4 24 40 8 26
4 105 43 50 31
4 41 5 50 31
4 3 106 43 105
4 53 104 106 3
4 53 104 5 41
4 19 43 59 0
4 38 25 59 0
4 39 118 43 19
4 41 9 25 38
4 9 41 39 118
4 91 57 26 0
4 0 26 53 30
4 53 30 58 9
4 58 9 29 75
4 91 57 29 75
4 15 68 41 4
4 82 58 41 4
4 12 43 57 8
4 12 43 82 58
4 8 57 15 68
4 105 55 46 19
5 19 109 29 12 105
4 46 19 109 15
4 25 12 105 55
4 104 29 12 25
4 104 29 109 15
4 2 22 55 13
4 13 55 6 41
4 22 2 109 43
4 109 43 33 60
4 33 60 41 6
4 105 30 78 19
4 19 78 69 109
4 105 30 108 12
4 12 108 40 29
4 109 69 40 29
4 35 106 26 2
4 106 35 75 12
4 2 26 38 78
4 31 6 12 75
4 38 78 31 6
4 26 3 64 14
4 64 14 109 75
4 26 3 108 68
4 111 5 68 108
4 109 75 111 5
4 88 20 49 97
4 20 88 54 33
4 104 70 97 49
4 45 83 70 104
4 45 83 54 33
4 81 45 17 27
4 27 17 101 97
4 61 100 81 45
4 61 100 52 82
4 82 52 97 101
4 61 118 20 103
4 103 20 107 87
4 118 61 83 86
4 15 119 83 86
4 15 119 87 107
4 61 42 65 16
4 42 61 112 71
4 113 102 16 65
4 66 107 113 102
4 112 71 107 66
4 62 114 34 102
4 34 102 97 110
4 114 62 93 95
4 115 30 95 93
4 110 97 115 30
4 113 48 50 90
4 48 113 36 51
4 50 90 96 54
4 51 36 72 21
4 72 21 54 96
4 63 116 98 64
4 23 65 63 116
4 67 88 98 64
4 23 65 37 73
4 73 37 67 88
4 35 54 100 34
4 34 100 116 36
4 54 35 37 93
4 36 116 79 40
4 37 93 79 40
4 34 96 87 56
4 16 67 96 34
4 71 108 56 87
4 67 16 77 93
4 77 93 71 108
4 67 18 20 101
4 21 83 67 18
4 113 23 20 101
4 83 21 25 47
4 25 47 113 23
4 11 32 77 92
4 11 32 100 87
4 66 91 100 87
4 77 92 101 62
4 91 66 101 62
4 51 33 62 74
4 74 62 117 70
4 103 116 51 33
4 116 103 52 110
4 110 52 117 70
4 57 17 69 2
4 2 69 115 52
4 58 105 114 77
4 57 17 77 114
4 115 52 105 58
4 18 84 59 12
4 18 84 66 39
4 59 12 65 47
4 15 5 65 47
4 66 39 5 15
4 4 46 70 28
4 28 70 106 29
4 4 46 98 31
4 33 21 106 29
4 31 98 21 33
4 95 64 19 31
4 31 19 90 73
4 106 51 95 64
4 106 51 40 7
4 73 90 7 40
4 78 0 10 71
4 111 12 10 71
4 90 14 0 78
4 16 37 111 12
4 14 90 37 16
4 0 112 94 2
4 3 95 112 0
4 7 37 94 2
4 8 77 95 3
4 8 77 37 7
4 84 1 4 117
4 117 4 5 86
4 6 21 84 1
4 9 45 21 6
4 5 86 45 9
4 9 104 28 60
4 28 60 82 117
4 22 105 32 81
4 104 9 32 81
4 22 105 82 117
4 55 1 58 32
4 66 119 55 1
4 45 118 58 32
4 45 118 109 57
4 119 66 109 57
4 108 8 59 10
4 91 112 10 59
4 8 108 92 17
4 112 91 109 39
4 109 39 92 17
4 35 94 52 22
4 94 35 29 60
4 79 51 3 30
4 22 52 30 3
4 51 79 60 29
4 86 50 19 14
4 72 98 19 14
4 50 86 65 111
4 98 72 25 6
4 6 25 65 111
4 1 107 89 0
5 2 110 96 89 0
5 1 107 88 99 4
4 4 99 110 2
4 110 96 88 99
4 88 107 89 96
5 0 3 98 72 10
4 11 10 72 44
4 3 53 13 0
5 11 13 53 99 44
4 99 53 3 98
4 99 44 72 98
4 19 78 71 18
5 93 71 18 20 103
5 19 78 94 52 4
4 4 20 103 52
4 93 94 52 103
4 71 93 94 78
4 28 27 76 73
5 68 13 27 76 89
5 4 28 73 90 5
4 5 68 13 4
4 89 90 5 68
4 76 89 90 73
5 35 34 102 83 70
4 66 0 34 102
4 70 35 19 46
5 0 66 84 46 19
4 84 46 70 83
4 83 102 66 84
4 42 116 98 18
5 18 1 105 31 98
5 79 116 42 11 32
4 1 105 32 11
4 31 105 32 79
4 79 116 98 31
4 49 48 93 115
5 50 111 37 93 48
5 4 41 69 115 49
4 111 50 4 41
4 69 41 111 37
4 37 93 115 69
4 27 40 108 56
5 49 27 40 24 104
5 108 56 11 25 38
4 11 25 104 49
4 25 38 24 104
4 38 108 40 24
5 64 63 83 21 106
4 56 119 83 63
4 64 0 26 106
5 56 0 26 55 119
4 55 26 106 21
4 119 55 21 83
4 112 64 35 94
5 50 117 62 94 35
5 18 84 61 112 64
4 50 117 84 18
4 61 62 117 84
4 61 112 94 62
4 35 90 113 74
5 2 35 90 14 109
5 47 113 74 27 17
4 2 27 17 109
4 47 14 109 17
4 113 47 14 90
5 80 48 51 40 77
4 58 77 80 11
4 48 20 6 51
5 11 20 6 41 58
4 51 40 41 6
4 41 58 77 40
4 63 100 54 85
5 63 100 32 59 10
5 18 43 33 54 85
4 18 10 59 43
4 32 59 43 33
4 100 32 33 54
4 34 63 65 7
5 63 65 25 45 80
5 57 27 34 7 26
4 27 57 45 80
4 26 57 45 25
4 65 25 26 7
5 85 35 75 16 67
4 85 67 101 48
4 75 60 28 35
5 48 28 60 17 101
4 17 60 75 16
4 101 17 16 67
5 74 114 8 16 63
4 63 16 118 42
4 74 48 33 114
5 33 48 42 118 9
4 8 9 33 114
4 9 118 16 8
5 20 23 73 79 49
4 23 20 1 38
4 30 79 49 13
5 13 1 38 78 30
4 78 30 79 73
4 23 73 78 38
4 87 10 64 96
5 103 87 10 1 55
5 64 19 22 54 96
4 19 22 55 1
4 54 103 55 22
4 87 103 54 96
5 34 56 47 72 36
4 34 36 24 2
4 15 47 56 13
5 13 2 24 46 15
4 46 24 36 72
4 15 46 72 47
4 19 39 69 2
5 39 67 88 50 19
5 28 2 69 102 97
4 97 88 50 28
4 102 67 39 69
4 67 88 97 102
4 86 14 64 85
5 86 85 74 62 45
5 34 91 59 14 64
4 34 74 62 91
4 45 59 91 62
4 14 59 45 86
4 80 74 37 92
5 80 49 9 68 92
5 28 74 37 7 29
4 28 29 9 49
4 68 7 29 9
4 7 37 92 68
5 61 42 85 95 77
4 95 85 50 31
4 82 20 42 61
5 82 20 50 31 60
4 77 60 82 61
4 95 77 60 31
5 10 12 6 21 42
4 12 10 56 8
4 80 81 21 42
5 8 56 80 81 53
4 6 21 81 53
4 6 12 8 53
4 107 11 55 46
4 55 52 115 11
5 115 11 107 71 76
5 110 52 55 46 98
4 110 76 71 98
4 76 115 52 110
4 31 41 13 52
4 41 13 66 39
5 97 87 66 13 52
4 73 97 87 71
4 66 39 71 87
5 39 71 73 31 41
4 49 44 46 4
4 41 38 46 4
4 87 115 49 44
5 46 38 89 87 44
4 41 69 89 38
4 31 19 0 30
4 66 115 30 0
4 99 46 19 31
4 99 103 84 46
5 31 99 103 115 30
4 78 0 56 76
4 24 26 0 78
4 119 56 76 97
4 24 99 55 26
5 78 24 99 97 76
4 94 2 13 115
4 15 13 115 101
4 73 94 2 24
4 73 88 46 24
5 115 101 88 73 94
4 119 13 1 84
4 30 13 119 100
4 72 84 1 38
5 119 100 96 72 84
4 96 72 38 78
4 46 1 82 117
5 39 1 82 115 112
4 46 90 39 1
4 96 112 115 97
5 97 117 46 90 96
4 97 117 82 115
5 119 44 70 110 27
4 78 69 27 110
4 27 69 66 119
4 44 119 66 107
4 90 107 44 70
5 90 78 69 66 107
5 22 2 91 119 117
4 78 98 22 2
4 2 78 112 91
4 119 87 112 91
5 112 87 88 98 78
4 87 119 117 88
4 26 13 52 22
4 66 13 26 14
5 22 70 72 14 26
4 72 87 97 70
4 70 97 52 22
4 4 15 14 19
4 78 19 14 89
4 52 119 15 4
5 119 15 14 89 102
4 102 89 78 94
4 87 11 20 88
4 11 87 112 58
4 6 20 88 98
4 78 98 6 41
4 20 5 24 99
5 39 92 101 20 5
4 97 99 20 101
4 92 76 97 101
4 78 39 92 76
4 56 68 41 30
4 68 107 87 56
5 110 30 56 87 116
4 23 116 110 24
4 116 23 107 87
5 23 107 68 41 24
4 0 105 6 38
5 100 52 105 0 112
4 38 71 112 0
4 116 100 112 71
4 52 99 116 100
5 99 116 71 38 6
4 49 15 26 53
4 53 49 97 110
5 107 15 49 97 113
5 36 110 53 26 38
4 36 113 107 38
4 113 97 110 36
4 20 107 90 50
4 82 20 107 66
4 31 50 90 78
4 69 78 31 60
4 98 64 34 110
4 91 34 110 52
4 46 98 64 14
4 55 46 14 59
4 52 2 35 54
4 90 88 54 35
4 2 52 82 109
4 84 88 90 14
5 84 88 54 52 82
4 34 96 97 27
4 7 34 96 90
4 27 57 117 97
4 46 90 7 26
4 1 66 67 18
4 98 96 67 18
4 105 91 66 1
5 67 96 94 91 66
4 98 31 94 96
5 81 22 3 34 100
4 34 89 38 3
4 89 87 100 34
4 100 87 44 81
4 44 81 22 46
4 24 4 117 70
4 4 24 7 109
5 4 117 101 66 109
5 70 113 89 7 24
4 101 113 70 117
4 101 113 89 66
4 11 92 69 13
4 92 11 44 113
4 40 53 13 69
4 53 40 73 99
5 113 92 69 40 73
4 41 1 10 108
4 87 76 108 10
4 53 55 1 41
5 108 76 79 53 41
4 103 55 53 79
4 4 60 58 1
4 99 79 60 4
4 107 1 58 92
4 79 93 88 99
5 60 58 92 93 79
4 14 0 105 43
4 67 14 0 112
4 52 117 83 100
5 14 67 83 117 43
4 52 105 43 117
4 59 0 2 57
4 89 0 59 47
4 110 81 57 2
5 59 47 83 81 57
4 47 83 96 89
5 86 15 57 28 70
4 94 91 57 28
4 94 28 70 96
4 15 57 91 66
4 15 66 67 86
4 84 10 58 82
4 84 88 71 10
5 58 30 95 71 10
4 52 54 95 30
4 58 30 52 82
4 60 109 15 49
4 60 94 97 49
4 39 107 113 37
5 37 94 60 109 39
4 107 39 109 15
4 81 27 13 55
4 76 116 81 27
4 68 13 55 25
5 55 25 72 116 81
4 68 25 72 89
4 56 59 105 30
4 59 84 87 56
5 21 84 59 105 22
4 22 110 116 21
4 30 105 22 110
4 2 26 104 28
4 28 104 44 97
4 68 26 2 69
5 26 104 44 47 68
4 69 102 47 68
4 117 4 31 54
4 4 109 75 31
5 93 112 75 31 54
4 112 66 109 75
4 112 66 101 93
4 9 5 107 11
4 9 11 115 60
5 40 60 9 5 111
4 111 40 76 71
4 107 71 111 5
4 80 116 99 49
4 92 71 116 80
4 6 99 49 9
4 6 9 68 38
4 103 99 23 42
5 92 108 111 23 42
4 103 115 92 42
4 31 111 108 30
4 108 30 115 92
4 10 61 91 0
4 83 61 10 72
4 3 114 91 0
5 91 114 54 83 61
4 83 54 98 72
5 81 104 106 36 74
4 102 119 81 74
4 74 36 89 102
4 15 104 106 14
4 15 119 81 104
5 75 19 43 82 91
4 90 19 43 86
4 90 19 75 37
4 86 43 82 101
4 102 91 82 101
5 101 86 90 37 102
4 21 98 19 43
4 95 75 19 98
5 98 95 100 103 21
4 95 75 91 100
4 82 103 100 91
4 35 7 5 50
4 69 94 35 7
4 117 15 5 50
4 94 69 17 62
5 17 69 7 5 15
4 3 110 27 8
4 27 8 59 119
5 8 59 25 106 3
4 110 70 106 3
4 25 44 70 106
4 3 64 18 6
4 84 18 6 55
4 112 64 3 30
5 6 55 32 30 3
4 84 55 32 61
4 89 56 80 113
4 113 80 81 70
4 7 89 56 8
4 8 53 24 7
4 62 28 4 82
4 73 28 62 93
4 4 82 118 5
5 62 93 67 118 82
4 67 93 73 90
5 43 57 114 35 106
4 96 100 114 35
4 72 96 35 106
4 57 119 100 114
4 119 57 43 84
4 16 64 19 109
4 19 109 57 22
4 96 64 16 102
5 62 57 109 16 102
4 62 102 96 54
4 106 7 2 22
4 2 91 16 7
4 117 86 106 22
5 7 16 47 86 106
4 86 47 119 117
4 24 28 48 23
4 48 101 107 23
4 24 41 60 28
4 41 60 17 68
4 1 82 33 6
4 6 1 39 111
5 79 33 6 111 95
4 79 115 112 95
4 112 95 111 39
4 32 55 44 80
4 32 80 76 30
5 80 76 36 23 44
4 3 36 23 6
4 36 3 30 76
4 80 17 15 44
4 17 69 76 80
4 23 5 7 36
4 23 5 15 44
4 103 11 56 100
4 25 11 103 21
4 100 56 108 95
4 98 21 25 38
5 118 58 75 111 18
4 88 73 111 18
4 18 88 101 118
4 115 94 75 58
4 115 101 118 58
4 102 27 49 101
4 40 27 102 37
4 101 49 104 86
4 40 24 90 37
4 105 19 50 33
4 39 19 105 58
4 103 88 50 33
5 61 58 105 33 103
4 61 103 88 67
4 10 38 36 63
4 36 63 100 110
4 38 26 59 10
4 59 32 53 26
4 21 85 35 22
4 67 85 21 84
4 35 22 105 75
4 84 59 16 67
4 83 74 28 117
4 117 28 29 43
4 67 83 74 37
4 67 14 7 37
4 70 74 63 72
4 14 72 63 16
4 114 22 70 74
4 16 8 26 14
4 79 53 104 48
5 65 5 104 48 113
4 76 79 48 113
4 113 76 108 65
4 5 41 108 65
4 73 48 42 71
4 73 31 33 48
4 42 71 39 118
4 31 41 9 33
4 25 10 58 9
4 25 10 71 23
4 51 95 30 53
4 23 51 95 71
5 25 9 53 51 23
4 28 40 8 57
4 36 70 28 40
5 68 8 40 36 65
4 86 65 36 70
4 68 15 86 65
5 95 64 12 105 114
4 64 12 25 72
4 72 64 95 116
4 95 116 81 114
4 114 81 55 105
4 18 39 37 85
4 94 54 85 37
4 18 39 109 43
4 94 60 33 54
5 118 109 29 50 86
4 73 40 29 50
4 73 113 86 50
4 113 86 118 92
4 118 92 69 109
4 112 10 42 93
4 12 75 112 10
4 21 54 93 42
4 31 54 21 6
4 63 108 68 47
5 116 63 108 3 51
4 47 44 116 63
4 51 104 26 3
4 51 116 44 104
4 8 34 35 29
4 102 34 8 17
4 70 104 29 35
4 102 83 45 17
5 8 29 104 45 17
4 12 16 34 3
4 61 16 34 100
4 3 12 43 22
5 16 61 45 43 12
4 43 22 81 45
4 50 29 114 54
4 54 83 86 50
4 114 91 109 29
4 91 109 118 61
4 57 104 48 62
4 62 48 113 102
4 5 109 16 65
4 109 57 104 5
4 64 67 118 12
4 93 67 64 95
4 114 62 82 105
4 118 82 105 12
4 34 114 32 56
4 34 114 51 36
4 45 47 56 32
5 51 114 32 45 21
4 45 47 72 21
4 20 118 17 49
4 20 23 65 118
4 79 49 17 77
5 37 77 17 118 65
4 77 79 73 37
4 11 68 65 42
4 8 68 11 32
4 65 42 116 36
4 32 8 40 79
4 12 18 20 9
4 12 18 71 108
4 103 20 9 32
5 77 32 9 12 108
4 32 103 93 77
4 53 27 74 51
4 9 53 27 17
4 51 74 113 23
4 17 47 25 9
4 33 29 5 20
4 20 33 62 101
5 29 75 77 62 33
4 92 77 75 39
4 5 29 75 39
4 63 61 58 108
4 61 63 116 103
4 33 51 3 105
4 58 105 3 108
4 35 37 77 114
4 35 106 65 37
4 118 65 106 43
4 57 17 118 43
4 83 85 51 81
5 29 12 65 85 51
4 83 85 65 47
4 59 12 29 57
4 57 81 51 29
4 77 63 64 75
4 83 63 77 62
4 64 106 29 75
4 62 83 21 33
4 48 86 47 80
4 80 77 16 47
4 48 86 106 51
4 16 77 40 7
4 48 45 43 50
4 93 48 45 61
4 50 111 12 43
4 93 37 16 61
4 106 85 42 25
4 95 3 106 85
4 59 25 42 61
4 61 77 8 59
4 85 111 40 74
4 111 85 86 5
4 74 62 60 40
4 62 45 9 60
4 77 74 81 32
4 77 108 36 74
4 36 106 12 108
4 12 106 104 9
4 21 51 111 18
4 18 21 45 118
4 114 32 58 75
4 51 114 75 111
4 104 45 42 23
4 42 45 17 92
4 111 29 8 108
4 29 104 23 111
4 93 85 51 79
4 92 65 85 93
4 92 58 12 65
4 58 60 29 12
4 95 63 80 79
4 65 111 95 63
4 79 33 45 80
4 45 33 6 25
4 4 50 18 1
5 38 1 18 12 25
4 50 18 12 29
4 24 4 1 38
5 50 4 24 104 29
4 11 20 4 13
5 20 118 45 25 11
4 13 26 25 11
4 4 20 118 109
5 13 4 109 57 26
4 18 20 48 85
5 18 98 72 106 85
4 48 104 106 85
4 99 20 18 98
5 20 48 104 44 99
4 4 19 35 28
4 114 35 19 105
5 51 40 28 35 114
5 4 19 105 6 41
4 4 41 40 28
4 19 0 10 18
5 10 108 68 89 0
4 108 10 18 111
4 89 0 19 90
5 19 18 111 5 90
4 49 11 42 48
5 86 48 42 21 83
4 49 48 86 15
4 11 55 21 42
5 11 55 119 15 49
4 35 50 48 74
4 81 74 35 22
5 35 22 98 31 50
5 79 116 81 74 48
4 48 79 31 50
4 4 49 27 2
4 8 9 49 27
5 27 8 114 91 2
5 9 49 4 82 33
4 82 4 2 91
4 1 0 56 11
4 14 47 56 0
5 14 0 1 39 109
5 56 47 17 92 11
4 39 1 11 92
4 64 18 42 63
5 89 36 63 64 96
4 36 63 42 23
4 64 96 88 18
5 18 88 107 23 42
4 2 35 64 0
5 37 35 64 95 111
4 35 2 69 37
4 30 0 64 95
5 0 30 41 69 2
4 48 28 27 80
4 80 32 33 48
5 80 27 119 100 32
5 48 33 54 117 28
4 27 28 117 119
4 11 10 63 80
4 84 10 63 83
5 80 63 83 102 113
5 11 107 66 84 10
4 107 11 80 113
4 0 34 27 13
5 75 16 34 0 112
4 16 34 27 17
4 115 13 0 112
5 13 115 60 17 27
4 85 35 34 63
5 85 93 71 116 63
4 63 116 110 34
4 94 35 85 93
5 34 110 78 94 35
4 27 56 63 74
4 63 61 62 74
5 112 61 63 56 87
5 94 97 27 74 62
4 27 56 87 97
4 50 20 49 28
5 57 28 49 53 81
4 50 43 57 28
4 49 53 6 20
5 43 50 20 6 21
4 20 42 10 1
5 42 65 47 72 10
4 1 46 72 10
4 20 5 65 42
5 20 1 46 15 5
4 1 13 2 19
4 1 19 75 58
5 2 7 29 75 19
5 68 13 1 58 9
4 2 13 68 7
4 19 64 85 50
4 3 64 85 51
5 50 73 23 51 85
5 19 64 3 38 78
4 50 19 78 73
4 34 64 10 56
4 67 102 34 64
5 56 34 102 69 76
5 64 67 39 71 10
4 56 76 71 10
4 34 74 28 2
5 74 77 95 100 34
4 100 34 2 52
4 77 74 28 60
5 31 52 2 28 60
4 74 85 42 80
5 85 54 96 70 74
4 103 54 85 42
4 74 70 44 80
5 103 87 44 80 42
4 49 13 56 80
4 59 45 80 56
5 80 45 62 101 49
5 59 56 13 66 91
4 49 101 66 13
4 85 93 101 86
5 44 47 86 101 107
4 107 71 116 44
4 93 71 107 101
4 74 114 75 37
5 76 73 37 74 36
5 31 30 3 114 75
4 75 37 73 31
4 31 30 76 73
5 11 32 61 82 115
4 68 69 115 11
5 109 69 68 8 16
4 16 61 82 109
4 109 69 115 82
4 103 55 13 115
5 81 45 33 103 55
4 45 17 60 33
4 115 103 33 60
4 99 53 27 97
5 53 99 31 33 51
4 31 33 62 94
4 99 31 94 97
4 101 88 99 49
4 54 62 45 21
5 54 21 116 99 88
4 101 62 54 88
5 58 30 56 8 77
4 78 30 56 89
4 37 77 58 39
5 78 39 37 7 89
4 30 78 39 58
4 63 61 118 65
4 39 112 61 118
5 107 68 65 118 39
4 112 39 107 87
4 67 85 95 112
5 67 90 113 65 85
5 112 78 76 108 95
4 78 90 113 76
4 112 67 90 78
4 48 51 95 93
5 93 88 97 113 48
5 95 98 110 36 51
4 88 98 95 93
4 98 88 97 110
4 42 118 82 103
5 17 118 82 66 15
4 66 15 44 87
4 66 87 103 82
5 13 52 105 32 53
4 52 94 69 13
4 77 32 105 75
5 69 40 77 75 94
4 52 105 75 94
5 58 118 16 59 10
4 41 58 10 38
4 7 16 118 5
5 38 26 7 5 41
4 118 58 41 5
4 64 106 86 67
5 25 106 86 5 23
4 39 67 86 5
4 39 71 23 5
5 36 106 35 90 24
4 75 39 90 35
5 41 108 12 75 39
4 41 24 36 108
4 39 90 24 41
4 29 28 73 111
5 73 28 70 110 99
5 111 6 3 106 29
4 6 99 110 3
4 99 6 111 73
4 18 88 117 43
5 45 43 117 15 104
4 15 107 23 104
4 15 117 88 107
5 82 1 55 59 43
4 60 41 1 82
4 59 8 29 43
5 29 60 41 53 8
4 43 82 60 29
4 52 55 26 2
5 9 104 26 55 6
4 60 9 6 31
4 55 52 31 6
4 82 4 46 84
4 9 25 21 33
5 46 84 21 25 44
4 82 33 21 84
4 28 117 46 24
4 6 33 54 98
5 98 6 23 24 46
4 46 117 54 98
5 105 12 8 26 0
4 78 0 105 31
4 111 12 8 40
4 31 105 12 111
5 78 31 111 40 24
4 71 111 50 88
5 70 86 50 88 46
5 71 38 36 65 111
4 38 46 70 36
4 71 88 46 38
4 84 10 12 43
5 9 5 109 43 12
4 66 84 43 109
4 5 109 66 107
4 73 79 80 113
4 94 54 83 102
5 95 54 94 73 79
4 73 94 102 113
4 32 79 76 56
5 60 79 32 114 62
4 79 60 69 76
4 60 69 102 62
4 92 93 103 11
5 83 100 103 93 62
4 47 83 62 17
4 92 17 62 93
4 92 58 32 80
4 112 58 32 100
4 100 112 66 119
5 112 66 69 92 58
5 30 79 40 27 110
4 96 110 27 102
4 79 93 112 30
4 30 112 96 110
5 102 96 112 93 37
4 100 116 42 61
5 101 92 42 61 67
4 96 67 61 100
5 96 100 116 76 97
4 97 101 67 96
4 113 74 77 92
4 95 71 87 100
4 71 92 77 95
5 89 113 92 71 87
4 63 16 91 100
5 108 92 37 16 63
5 94 91 100 30 115
4 94 37 16 91
4 94 37 92 115
4 89 76 80 47
5 115 93 77 80 76
5 89 66 67 16 47
4 115 66 89 76
4 67 93 115 66
4 48 101 115 79
4 119 81 116 87
4 116 87 115 79
5 87 119 102 101 115
4 102 97 49 17
5 79 49 97 52 103
5 91 102 17 77 61
4 61 103 52 91
4 97 102 91 52
4 80 77 114 81
5 81 114 54 52 110
4 54 93 77 114
4 115 52 54 93
5 7 40 108 3 34
4 34 91 109 7
4 58 108 40 60
5 60 109 91 105 58
4 109 7 40 60
4 68 92 42 25
5 14 59 25 68 15
4 92 101 15 68
4 15 101 67 14
4 70 35 37 113
4 116 95 111 23
5 72 116 23 113 70
4 111 23 113 37
4 98 96 34 3
4 3 98 71 108
4 73 71 108 40
5 71 98 96 90 73
5 14 84 18 118 86
4 18 84 87 71
4 89 14 84 87
4 113 86 14 89
4 56 59 12 108
4 91 59 12 75
4 75 39 66 91
4 104 51 79 49
5 22 70 104 51 21
4 21 51 79 103
4 103 21 22 52
5 117 4 99 55 22
4 60 4 117 62
4 55 32 114 22
4 22 114 62 117
4 82 52 99 20
4 119 57 104 44
5 57 62 82 52 119
4 52 99 44 119
4 32 59 0 30
5 57 17 9 32 59
4 32 9 41 30
4 9 41 69 17
4 24 40 74 70
4 78 96 54 31
4 96 70 24 78
4 118 67 88 20
4 83 45 25 72
4 83 67 118 45
5 72 87 88 67 83
4 20 23 116 103
5 84 117 101 20 103
4 84 72 116 103
4 70 117 84 72
5 3 53 24 2 22
4 54 94 2 22
4 3 95 54 22
4 79 53 3 95
4 11 58 105 55
4 105 55 119 91
4 109 15 119 91
4 9 20 101 17
4 59 84 117 57
4 117 57 17 101
4 57 29 40 27
5 29 33 105 22 57
4 105 30 79 33
4 29 33 79 40
4 50 117 97 73
4 51 81 44 23
5 83 117 97 44 81
4 97 44 23 73
5 12 65 7 14 64
4 64 14 66 112
4 65 92 69 7
4 66 69 7 14
4 108 38 72 63
5 72 14 90 107 38
4 107 92 108 38
4 90 37 92 107
4 34 16 65 36
4 16 65 111 75
4 71 112 75 111
4 48 86 90 73
4 98 21 83 96
4 96 90 86 83
4 58 61 84 1
5 119 47 45 61 84
4 61 58 9 45
4 45 9 68 47
4 53 8 34 110
4 78 110 53 41
4 41 78 94 60
4 105 59 14 19
4 105 6 25 59
4 25 6 41 68
4 50 43 14 90
4 43 21 72 14
4 72 38 6 21
4 22 26 7 35
4 22 98 38 26
4 41 31 98 38
4 22 70 90 19
4 111 5 104 51
4 5 90 70 104
4 118 9 6 18
4 118 86 104 9
4 14 26 104 86
4 24 2 109 5
4 12 9 53 3
4 5 9 53 24
4 1 46 22 105
4 46 15 57 22
4 57 15 5 29
4 23 5 4 99
4 106 22 55 25
4 25 55 99 23
4 33 43 19 31
5 106 43 19 46 26
4 43 33 51 106
4 51 106 26 53
4 0 3 106 14
4 109 29 106 14
4 29 111 39 109
4 98 64 12 6
4 12 65 23 6
4 24 7 65 23
4 39 107 46 19
4 68 26 106 65
4 68 107 46 26
4 83 70 28 62
4 70 83 100 110
4 100 110 99 103
4 49 115 30 53
4 100 30 53 81
4 81 57 91 100
4 44 81 32 11
4 61 83 81 32
4 117 82 61 83
4 87 119 59 10
4 119 59 16 102
4 102 16 118 101
4 8 108 76 27
4 114 8 108 95
4 114 91 112 95
4 83 72 36 74
4 87 72 36 76
4 87 76 73 88
4 65 37 93 42
4 96 102 47 72
4 102 37 65 47
4 40 77 63 36
4 40 69 89 36
4 69 94 96 89
4 108 77 61 10
4 77 17 68 108
4 68 17 102 89
4 45 48 113 47
4 113 97 119 47
4 84 88 97 119
4 119 57 8 56
4 62 57 8 77
4 82 58 77 62
4 97 28 40 76
4 51 116 100 114
4 40 76 116 51
4 26 13 30 3
4 57 114 3 26
4 114 57 109 75
4 1 55 44 107
4 59 47 86 43
4 47 44 55 59
4 21 106 35 54
4 106 36 116 21
4 36 116 99 24
4 7 37 85 106
4 7 106 72 89
4 78 98 72 89
4 12 18 67 16
4 12 16 47 25
4 89 38 25 47
4 16 8 3 64
4 8 3 38 68
4 69 78 38 68
4 45 33 50 86
4 70 86 45 81
4 55 46 70 81
4 24 110 52 4
4 29 104 81 114
4 81 110 24 104
4 15 104 53 13
4 45 32 105 43
4 45 32 53 104
4 15 66 0 26
4 12 118 17 8
4 17 15 26 8
4 2 7 36 110
4 95 75 29 51
4 29 51 36 7
4 25 65 85 21
4 65 25 44 113
4 46 90 113 44
5 112 71 18 1 58
5 94 73 50 4 60
4 58 60 94 112
4 94 73 71 112
5 23 20 11 92 71
5 4 24 78 69 13
4 23 71 78 24
4 78 69 92 71
5 18 12 75 95 85
5 79 48 20 9 60
4 9 12 75 60
4 79 60 75 95
5 37 35 28 62 102
5 4 82 66 39 19
4 62 102 66 82
4 39 66 102 37
5 100 87 10 0 30
5 88 18 19 31 54
4 100 30 31 54
4 88 54 100 87
5 48 42 65 111 51
5 49 53 41 68 11
4 51 111 41 53
4 65 111 41 68
5 43 50 35 75 109
5 74 77 17 45 48
4 17 45 43 109
4 77 17 109 75
5 2 27 102 89 7
5 5 107 101 49 4
4 7 5 107 89
4 102 101 107 89
5 0 78 98 46 1
5 76 56 11 44 116
4 46 98 116 44
4 76 116 98 78
5 100 63 64 3 114
5 18 6 33 103 42
4 6 33 114 3
4 100 114 33 103
5 67 64 35 54 83
5 2 52 119 66 0
4 119 52 54 83
4 67 83 119 66
5 27 80 47 68 8
5 29 5 86 48 28
4 29 5 68 8
4 5 86 47 68
5 81 51 36 63 80
5 11 55 6 38 10
4 51 81 55 6
4 36 51 6 38
5 14 72 96 34 0
5 13 15 44 97 27
4 14 15 44 72
4 97 44 72 96
5 63 85 21 45 61
5 35 34 91 57 22
4 45 21 22 57
4 91 57 45 61
5 59 25 72 63 56
5 27 74 70 104 57
4 57 104 25 59
4 72 25 104 70
5 28 49 17 69 40
5 111 39 118 20 50
4 118 39 69 17
4 111 40 69 39
5 116 42 10 108 95
5 20 99 31 41 1
4 95 108 41 31
4 95 116 99 31
5 90 96 94 2 19
5 1 13 115 87 107
4 90 107 87 96
4 94 115 87 96
5 62 93 85 50 33
5 105 19 64 112 91
4 105 91 62 33
4 93 112 91 62
5 56 34 110 81 119
5 98 64 10 84 21
4 81 119 84 21
4 98 110 81 21
5 34 74 83 47 16
5 2 28 117 15 109
4 117 15 47 83
4 15 109 16 47
5 74 114 29 106 85
5 32 9 25 42 80
4 32 114 29 9
4 29 106 25 9
5 80 49 104 23 113
5 13 56 89 38 26
4 26 38 23 104
4 113 23 38 89
4 31 79 49 4
4 5 111 31 4
5 71 111 31 79 93
4 48 33 82 101
5 101 48 73 37 92
5 31 33 82 58 75
4 101 92 58 82
4 20 88 90 5
5 88 20 82 115 93
4 90 88 93 37
5 69 109 5 90 37
4 18 39 92 42
4 41 6 18 39
5 39 41 60 115 92
4 1 66 101 20
4 69 66 1 41
5 69 94 97 101 66
4 118 18 19 109
4 60 109 19 31
5 118 109 60 62 101
5 79 103 11 58 30
4 88 103 11 107
4 103 79 73 88
5 78 39 107 88 73
4 54 50 20 103
4 111 50 54 95
5 54 103 61 112 95
4 117 52 31 50
5 50 90 67 101 117
5 31 52 115 112 78
4 115 52 117 101
4 82 105 6 20
5 98 95 30 105 6
4 105 82 115 30
4 4 99 98 19
4 19 39 71 98
5 98 99 103 87 71
5 84 1 105 52 103
4 67 84 1 39
4 103 84 67 93
5 39 67 93 94 75
4 93 42 23 73
5 58 118 42 93 77
4 73 40 77 93
5 40 41 5 23 73
4 93 48 28 94
4 28 29 75 94
5 97 113 90 24 28
4 97 115 60 28
4 97 113 92 115
4 115 49 9 58
5 73 76 115 49 99
5 6 9 58 108 111
4 58 108 76 115
4 78 73 28 2
4 2 109 39 78
5 43 18 67 61 82
4 37 111 18 67
4 77 37 67 61
5 60 29 111 37 77
4 11 115 112 10
4 78 38 10 112
4 10 58 75 64
4 75 64 98 31
4 1 82 91 0
4 91 0 78 94
5 91 82 117 54 94
5 105 12 10 61 32
4 93 71 10 61
4 79 93 61 32
4 4 41 30 52
5 88 97 52 4 46
5 41 30 76 71 38
4 52 97 76 30
4 96 35 50 88
4 96 35 75 112
5 96 112 66 84 88
4 4 15 86 50
4 15 17 60 4
5 15 86 113 102 17
4 48 113 107 20
4 68 107 20 9
5 113 107 68 69 76
4 5 50 85 65
4 9 33 50 5
5 5 65 92 17 9
4 21 55 1 18
4 71 18 21 116
5 55 32 100 116 21
5 13 55 99 110 30
4 66 84 55 13
4 55 84 88 99
4 22 43 18 98
5 98 22 52 100 96
4 43 22 52 82
4 33 20 11 32
4 23 20 33 51
5 51 33 32 77 95
4 86 117 54 85
5 86 85 37 16 118
4 118 82 117 86
4 46 15 49 99
5 15 46 90 89 66
4 46 90 73 99
4 1 13 53 6
4 107 1 6 23
5 6 23 116 79 53
4 109 14 46 4
5 102 91 109 14 67
4 14 67 88 46
4 42 118 43 21
5 54 114 105 43 21
4 43 118 58 105
5 113 65 7 40 74
4 113 101 62 74
4 113 101 118 65
4 24 104 48 73
5 68 15 104 24 7
4 24 7 37 73
4 60 77 80 49
4 49 104 29 60
5 56 32 53 3 108
4 103 32 56 87
4 99 103 32 53
5 22 117 84 14 19
4 22 110 78 19
4 22 117 97 110
5 89 87 97 110 78
4 85 83 84 18
4 85 95 100 83
5 83 84 59 91 100
4 11 25 12 58
5 25 12 3 51 21
4 58 30 3 12
4 75 16 14 19
5 61 16 75 114 62
4 16 61 84 14
4 0 2 24 38
4 0 66 107 38
5 24 99 44 107 38
4 42 71 76 80
4 71 38 25 42
4 117 4 13 119
4 102 69 13 119
5 119 102 96 70 117
4 64 35 29 12
4 29 33 54 35
5 12 29 33 45 118
4 105 3 38 1
4 3 105 52 110
5 72 116 110 3 38
5 3 22 55 59 0
4 61 59 0 112
4 59 55 103 61
4 72 46 19 64
4 72 64 112 87
5 119 87 72 46 55
4 7 29 50 90
5 17 57 29 7 16
4 7 16 67 90
4 80 92 118 45
5 80 92 108 40 79
4 118 92 108 12
4 41 13 27 40
4 13 15 5 41
5 35 7 14 86 70
4 35 94 97 70
4 86 70 97 101
4 99 79 80 44
4 99 24 40 79
4 61 42 48 62
4 48 51 114 62
4 57 2 19 43
4 57 62 94 2
5 57 62 83 86 43
4 63 108 111 85
4 111 85 21 6
4 11 87 97 49
4 87 89 68 11
4 63 95 30 56
4 95 63 72 98
4 0 105 114 34
4 114 54 96 34
4 100 56 13 52
4 100 56 89 96
4 74 37 69 27
4 57 109 69 27
4 37 40 51 85
4 8 40 37 16
5 9 104 51 40 8
5 76 36 24 53 27
4 27 17 92 76
4 65 36 76 92
4 89 34 35 90
4 89 34 91 66
4 30 108 68 13
5 36 23 25 68 108
4 108 36 110 30
5 43 106 64 16 59
4 16 77 95 64
4 32 77 16 59
4 102 74 85 67
4 74 102 91 114
5 65 12 8 77 63
4 77 63 116 79
4 79 53 8 77
5 46 70 110 2 26
4 110 76 69 2
4 113 76 110 70
4 59 26 2 91
4 59 26 46 84
4 0 26 25 10
4 87 10 25 44
5 26 25 44 81 53
4 10 12 106 72
4 106 22 105 12
5 81 83 72 106 22
4 64 96 70 106
4 43 106 70 117
4 42 10 59 45
4 45 81 116 42
5 45 81 114 8 59
4 55 53 27 119
4 55 46 24 53
4 35 106 104 28
4 45 62 28 104
5 47 65 106 104 45
4 49 44 70 28
4 17 47 44 49
5 70 44 47 89 36
4 48 74 36 23
4 48 23 25 45
4 28 24 26 57
5 14 47 119 57 26
4 26 14 90 24
4 63 83 86 65
4 65 12 43 86
4 11 9 8 56
4 9 104 44 11
4 47 63 64 14
4 63 47 119 100
4 36 3 0 89
4 36 70 22 3
4 32 8 34 100
5 34 36 106 26 8
4 55 32 8 26
4 27 81 22 2
4 83 102 27 81
4 74 51 3 34
4 74 51 21 83
4 80 116 110 27
4 80 116 72 47
4 7 35 114 8
4 8 7 14 59
4 68 7 34 56
4 56 119 15 68
4 56 108 65 47
4 65 108 3 106
4 34 102 113 36
4 113 86 106 36
4 80 17 16 63
4 80 17 57 81
4 53 81 74 40
4 26 53 40 7
5 4 109 43 105 1
5 38 24 7 106 3
4 7 109 43 106
5 66 13 11 58 82
5 26 14 43 12 25
4 14 43 82 66
5 20 18 43 86 5
5 24 99 98 22 70
4 70 24 5 86
5 28 57 22 52 4
4 8 57 22 3
5 41 30 3 8 40
5 0 19 75 12 3
4 37 65 12 75
5 65 36 89 90 37
5 11 107 101 118 42
5 46 55 21 43 117
4 117 46 107 101
5 50 117 70 104 48
4 53 110 70 104
5 31 79 53 110 52
5 27 119 52 115 49
5 9 8 59 105 58
4 59 119 52 105
5 112 0 56 108 58
5 118 65 47 14 67
4 112 67 118 58
5 18 64 106 65 111
4 73 111 65 113
5 96 70 113 73 88
5 3 110 2 35 114
4 108 3 114 77
5 37 77 108 76 69
5 48 101 97 44 80
5 32 55 52 82 33
4 55 44 97 52
5 65 63 10 71 92
5 83 86 101 88 84
4 88 71 92 101
5 100 34 27 76 30
4 61 100 30 58
5 17 92 58 61 16
5 35 85 51 36 70
4 76 36 51 79
5 93 79 76 97 94
5 74 113 76 116 63
5 115 101 62 61 103
4 115 103 116 76
5 20 82 117 15 49
5 6 105 22 26 53
4 22 117 15 26
5 12 118 39 1 10
5 86 106 72 46 90
4 86 118 39 90
5 105 30 13 2 91
5 12 16 7 68 108
4 16 91 105 12
5 19 22 106 29 50
4 36 106 29 40
5 78 73 40 36 110
5 108 36 34 64 95
4 93 95 108 92
5 92 113 102 67 93
5 97 110 81 74 28
4 30 110 81 32
5 30 115 60 77 32
5 42 85 86 113 23
5 97 99 103 54 117
4 99 97 113 23
5 80 92 115 87 56
5 84 59 45 118 82
4 84 87 115 82
5 18 67 90 107 71
5 44 116 21 83 70
4 70 83 67 90
4 35 28 27 34
5 73 28 35 54 31
5 10 59 47 68 11
4 47 59 91 102
5 115 112 91 102 69
5 13 55 59 57 15
4 57 15 101 62
5 27 57 114 32 53
4 114 54 117 57
5 104 81 55 99 49
4 81 104 86 83
5 102 16 63 56 89
4 102 16 75 94
5 78 30 95 75 94
5 112 39 37 16 64
4 113 47 16 37
5 107 87 72 47 113
4 64 63 74 35
5 35 90 78 98 64
4 50 85 74 28
5 98 88 50 85 21
5 10 61 67 66 87
5 15 44 25 45 86
4 86 67 61 45
5 56 8 17 69 13
4 8 17 62 114
5 100 114 62 94 52
5 38 10 64 14 89
5 58 75 109 69 41
4 109 69 89 14
5 7 5 39 19 14
5 71 98 72 36 23
4 36 72 14 7
4 2 19 64 34
5 24 2 19 31 41
4 50 4 2 35
5 99 4 50 33 6
5 1 84 14 15 107
5 104 106 21 6 23
4 106 14 84 21
5 0 26 68 41 1
4 68 17 57 26
5 91 82 60 17 57
5 29 109 2 26 8
4 109 29 33 82
5 5 104 26 46 4
4 104 5 118 45
5 29 51 53 24 28
4 21 51 29 43
5 0 78 69 7 34
5 29 60 31 105 114
4 29 60 69 7
4 18 19 35 85
5 6 18 19 46 38
5 109 66 0 59 16
4 59 25 65 16
5 65 5 107 38 25
5 80 81 100 103 79
4 96 70 81 100
5 91 119 56 32 61
4 119 91 94 97
5 44 119 84 103 11
4 119 44 113 102
5 100 112 93 77 63
5 66 119 47 17 101
4 17 101 93 77
5 27 102 62 77 80
4 95 54 62 77
5 110 116 95 54 96
4 85 48 80 63
5 96 67 85 63 72
5 85 95 71 73 37
5 100 87 97 102 83
4 37 73 97 102
4 74 34 56 80
5 34 96 94 37 74
5 61 42 80 47 83
4 112 61 83 96
5 96 89 76 71 112
5 87 116 42 93 88
5 45 81 119 117 62
4 93 88 117 62
5 32 11 49 17 45
4 45 83 100 32
4 49 27 74 48
5 48 74 83 54 93
4 56 0 2 27
5 94 2 27 40 60
5 72 25 42 18 84
4 84 66 89 72
5 39 66 89 68 92
5 23 111 50 90 24
4 110 96 90 24
5 111 31 98 3 51
4 111 31 94 37
4 64 10 42 85
5 75 91 34 8 77
4 68 8 77 92
4 4 28 48 20
5 20 103 21 45 48
5 60 4 13 53 9
4 81 53 9 45
5 57 104 9 33 43
4 84 103 33 43
4 66 109 60 115
5 95 114 74 40 79
4 98 22 114 95
5 23 44 46 88 20
4 44 23 65 47
4 48 42 18 50
5 81 51 33 54 22
4 40 60 33 51
4 9 118 61 32
5 9 118 109 15 68
5 1 55 25 9 20
4 119 55 25 47
4 2 13 49 28
5 49 28 62 33 79
4 46 22 54 88
4 10 0 34 63
5 39 111 108 38 78
4 96 67 39 78
5 111 75 35 7 40
4 7 40 76 89
5 99 73 48 51 116
4 72 116 51 106
4 107 15 17 92
4 52 31 75 91
4 5 39 58 9
4 25 12 111 23
4 111 75 105 6
4 46 98 3 26
4 38 46 15 68
4 13 4 19 0
4 55 6 12 59
5 6 41 5 29 12
4 20 50 19 1
4 41 9 104 24
4 38 108 8 26
4 78 41 5 90
4 0 1 18 64
4 116 21 33 79
4 79 103 82 60
4 20 42 80 49
4 11 56 63 42
4 69 40 79 115
4 93 71 98 54
4 87 89 36 116
4 78 110 100 112
4 87 66 69 76
4 21 72 87 103
4 13 27 80 11
4 52 99 73 94
4 53 41 58 32
4 20 11 10 18
4 73 31 6 23
4 71 95 3 38
4 68 108 71 107
4 41 30 112 39
4 99 44 25 6
4 31 99 55 105
4 4 49 11 1
4 13 56 10 1
4 30 53 24 78
4 88 107 38 98
5 78 31 4 1 39
5 67 84 117 54 96
5 13 41 38 107 11
5 52 103 88 98 31
5 20 33 31 111 18
5 62 101 67 37 94
5 28 94 69 109 4
5 46 70 96 89 14
5 96 112 0 19 98
5 43 59 61 83 21
5 9 6 23 42 11
5 73 31 60 115 93
5 50 29 60 62 48
5 102 113 90 7 69
5 49 15 68 69 27
5 46 38 78 110 99
5 0 38 72 87 56
5 6 21 103 32 105
5 21 18 64 95 54
5 16 118 45 62 77
5 35 2 91 102 96
5 47 59 26 106 72
5 17 80 48 104 9
5 73 24 41 69 76
5 21 116 63 10 25
5 79 33 9 58 77
5 27 119 47 89 34
5 53 55 25 38 3
5 83 85 35 114 62
5 7 65 47 17 8
5 74 63 47 45 81
5 53 9 68 108 40
5 20 49 60 41 5
5 90 88 97 94 78
5 1 6 98 71 10
5 61 93 54 33 82
5 2 78 89 66 13
5 55 22 98 72 84
5 50 54 94 75 19
5 14 86 83 102 16
5 64 34 100 83 72
5 32 45 25 12 8
5 28 74 102 17 57
5 24 36 89 68 26
5 42 45 33 51 85
5 17 92 37 40 60
5 56 80 44 25 68
5 99 79 30 41 6
5 73 99 20 107 71
5 94 52 82 66 112
5 19 109 66 67 90
5 46 19 2 52 117
5 115 101 107 39 69
5 115 103 20 1 58
5 97 115 13 4 99
5 50 88 101 82 4
5 19 105 82 84 18
5 115 30 78 71 87
5 112 93 88 18 39
5 117 43 109 91 62
5 14 84 119 91 0
5 64 75 91 61 67
5 1 66 87 88 46
5 54 22 105 91 100
5 64 14 43 22 35
5 111 41 58 92 71
5 39 5 50 73 37
5 97 102 66 15 117
5 107 15 4 24 90
5 52 110 96 87 119
5 28 117 86 90 35
5 82 118 39 75 60
5 1 55 52 30 0
5 118 43 50 85 67
5 95 112 58 105 31
5 103 84 10 112 100
5 119 83 70 22 57
5 113 101 49 28 73
5 49 79 76 92 11
5 20 48 93 92 118
5 114 75 12 43 33
5 105 3 64 10 59
5 16 59 57 114 34
5 103 79 95 71 42
5 2 7 14 15 57
5 107 89 76 97 44
5 116 87 11 55 99
5 0 26 22 110 34
5 35 37 16 109 29
5 5 68 92 113 23
5 48 23 111 40 79
5 61 42 18 12 58
5 98 116 100 30 3
5 81 100 56 59 55
5 106 29 57 45 86
5 77 93 85 111 75
5 7 34 74 70 106
5 46 26 13 119 44
5 32 11 10 108 30
5 24 2 27 97 70
5 114 95 63 61 32
5 16 63 85 106 12
5 3 106 21 81 114
5 101 17 109 5 86
5 23 44 49 53 24
5 116 23 38 108 76
5 110 76 56 13 53
5 7 40 28 104 5
5 65 111 29 9 118
5 81 44 72 36 110
5 74 37 65 86 48
5 15 47 113 70 104
5 51 6 12 108 95
5 3 36 63 56 8
5 8 77 74 51 29
5 27 81 104 26 8
5 36 113 80 27 40
5 42 80 77 108 65
5 53 32 80 116 51
5 25 65 36 51 104

# Cells
7 0 1 2 3 4 5 6
7 7 8 9 10 11 12 13
7 14 15 16 17 18 19 20
7 21 22 23 24 25 26 27
7 28 29 30 31 32 33 34
7 35 36 37 38 39 40 41
7 42 43 44 45 46 47 48
7 49 50 51 52 53 54 55
7 56 57 58 59 60 61 62
7 63 64 65 66 67 68 69
7 70 71 72 73 74 75 76
7 77 78 79 80 81 82 83
7 84 85 86 87 88 89 90
7 91 92 93 94 95 96 97
7 98 99 100 101 102 103 104
7 105 106 107 108 109 110 111
7 112 113 114 115 116 117 118
7 119 120 121 122 123 124 125
7 126 127 128 129 130 131 132
7 133 134 135 136 137 138 139
7 140 141 142 143 144 145 146
7 147 148 149 150 151 152 153
7 154 155 156 157 158 159 160
7 161 162 163 164 165 166 167
7 168 169 170 171 172 173 174
7 175 176 177 178 179 180 181
7 86 182 183 184 185 186 187
7 149 188 189 190 191 192 193
7 102 194 195 196 197 198 199
7 109 200 201 202 203 204 205
7 106 206 207 208 209 210 211
7 212 213 214 215 216 217 218
7 219 220 221 222 223 224 225
7 226 227 228 229 230 231 232
7 233 234 235 236 237 238 239
7 165 240 241 242 243 244 245
7 143 246 247 248 249 250 251
7 252 253 254 255 256 257 258
7 259 260 261 262 263 264 265
7 266 267 268 269 270 271 272
7 273 274 275 276 277 278 279
7 60 280 281 282 283 284 285
7 45 286 287 288 289 290 291
7 81 292 293 294 295 296 297
7 158 298 299 300 301 302 303
7 94 304 305 306 307 308 309
7 310 311 312 313 314 315 316
7 317 318 319 320 321 322 323
7 142 324 325 326 327 328 329
7 73 330 331 332 333 334 335
7 93 336 337 338 339 340 341
7 342 343 344 345 346 347 348
7 78 349 350 351 352 353 354
7 355 356 357 358 359 360 361
7 362 363 364 365 366 367 368
7 369 370 371 372 373 374 375
7 155 376 377 378 379 380 381
7 371 382 383 384 385 386 387
7 38 388 389 390 391 392 393
7 394 395 396 397 398 399 400
7 343 401 402 403 404 405 406
7 66 407 408 409 410 411 412
7 413 414 415 416 417 418 419
7 150 256 420 421 422 423 424
7 414 425 426 427 428 429 430
7 381 431 432 433 434 435 436
7 327 437 438 439 440 441 442
7 11 443 444 445 446 447 448
7 396 449 450 451 452 453 454
7 23 455 456 457 458 459 460
7 65 461 462 463 464 465 466
7 162 316 467 468 469 470 471
7 340 472 473 474 475 476 477
7 51 418 478 479 480 481 482
7 410 483 484 485 486 487 488
7 121 489 490 491 492 493 494
7 464 485 495 496 497 498 499
7 355 500 501 502 503 504 505
7 364 506 507 508 509 510 511
7 99 320 512 513 514 515 516
7 354 517 518 519 520 521 522
7 87 271 523 524 525 526 527
7 52 430 528 529 530 531 532
7 136 533 534 535 536 537 538
7 116 508 539 540 541 542 543
7 37 264 544 545 546 547 548
7 17 403 549 550 551 552 553
7 307 472 554 555 556 557 558
7 32 451 559 560 561 562 563
7 301 431 564 565 566 567 568
7 249 439 569 570 571 572 573
7 203 574 575 576 577 578 579
7 130 502 580 581 582 583 584
7 210 575 585 586 587 588 589
7 72 276 590 591 592 593 594
7 296 517 595 596 597 598 599
7 113 365 600 601 602 603 604
7 176 493 605 606 607 608 609
7 275 333 610 611 612 613 614
7 170 460 615 616 617 618 619
7 260 393 620 621 622 623 624
7 44 215 625 626 627 628 629
7 57 231 630 631 632 633 634
7 29 397 635 636 637 638 639
7 127 361 640 641 642 643 644
7 16 346 645 646 647 648 649
7 235 536 650 651 652 653 654
7 219 447 655 656 657 658 659
7 186 267 660 661 662 663 664
7 192 253 665 666 667 668 669
7 24 171 670 671 672 673 674
7 122 179 675 676 677 678 679
7 8 224 680 681 682 683 684
7 2 372 685 686 687 688 689
7 3 384 690 691 692 693 694
7 226 283 695 696 697 698 699
7 197 319 700 701 702 703 704
7 214 290 705 706 707 708 709
7 244 310 710 711 712 713 714
7 135 236 715 716 717 718 719
7 0 720 721 722 723 724 725
7 7 726 727 728 729 730 731
7 14 732 733 734 735 736 737
7 21 738 739 740 741 742 743
7 28 744 745 746 747 748 749
7 35 750 751 752 753 754 755
7 42 756 757 758 759 760 761
7 49 762 763 764 765 766 767
7 56 768 769 770 771 772 773
7 63 774 775 776 777 778 779
7 70 780 781 782 783 784 785
7 77 786 787 788 789 790 791
7 84 792 793 794 795 796 797
7 91 798 799 800 801 802 803
7 98 804 805 806 807 808 809
7 105 810 811 812 813 814 815
7 112 816 817 818 819 820 821
7 119 822 823 824 825 826 827
7 126 828 829 830 831 832 833
7 133 834 835 836 837 838 839
7 140 840 841 842 843 844 845
7 147 846 847 848 849 850 851
7 154 852 853 854 855 856 857
7 161 858 859 860 861 862 863
7 173 864 865 866 867 868 869
7 181 870 871 872 873 874 875
7 187 758 876 877 878 879 880
7 193 747 881 882 883 884 885
7 199 771 886 887 888 889 890
7 205 831 891 892 893 894 895
7 209 819 896 897 898 899 900
7 218 901 902 903 904 905 906
7 225 907 908 909 910 911 912
7 232 913 914 915 916 917 918
7 237 872 919 920 921 922 923
7 245 734 924 925 926 927 928
7 250 789 917 929 930 931 932
7 258 890 933 934 935 936 937
7 265 938 939 940 941 942 943
7 272 944 945 946 947 948 949
7 279 950 951 952 953 954 955
7 285 855 912 956 957 958 959
7 291 842 867 960 961 962 963
7 297 781 964 965 966 967 968
7 303 800 905 969 970 971 972
7 308 751 973 974 975 976 977
7 314 879 978 979 980 981 982
7 323 983 984 985 986 987 988
7 328 729 989 990 991 992 993
7 335 823 994 995 996 997 998
7 341 722 999 1000 1001 1002 1003
7 345 945 1004 1005 1006 1007 1008
7 352 721 1009 1010 1011 1012 1013
7 360 976 1014 1015 1016 1017 1018
7 366 968 1019 1020 1021 1022 1023
7 374 952 1024 1025 1026 1027 1028
7 380 739 1029 1030 1031 1032 1033
7 385 940 1034 1035 1036 1037 1038
7 392 836 1039 1040 1041 1042 1043
7 400 985 1044 1045 1046 1047 1048
7 405 866 1049 1050 1051 1052 1053
7 412 847 949 1054 1055 1056 1057
7 419 885 1058 1059 1060 1061 1062
7 423 726 1063 1064 1065 1066 1067
7 427 927 1068 1069 1070 1071 1072
7 434 1073 1074 1075 1076 1077 1078
7 441 1073 1079 1080 1081 1082 1083
7 448 775 1084 1085 1086 1087 1088
7 452 907 1089 1090 1091 1092 1093
7 459 776 1094 1095 1096 1097 1098
7 465 861 986 1099 1100 1101 1102
7 471 740 1103 1104 1105 1106 1107
7 475 899 1108 1109 1110 1111 1112
7 481 824 1113 1114 1115 1116 1117
7 486 913 1118 1119 1120 1121 1122
7 494 807 943 1123 1124 1125 1126
7 499 902 1127 1128 1129 1130 1131
7 505 1097 1132 1133 1134 1135 1136
7 510 1088 1134 1137 1138 1139 1140
7 515 764 1081 1141 1142 1143 1144
7 522 895 1145 1146 1147 1148 1149
7 526 763 1078 1150 1151 1152 1153
7 532 835 1154 1155 1156 1157 1158
7 537 793 953 1159 1160 1161 1162
7 542 804 1036 1163 1164 1165 1166
7 547 848 1007 1167 1168 1169 1170
7 552 810 921 1171 1172 1173 1174
7 558 997 1175 1176 1177 1178 1179
7 563 813 875 1180 1181 1182 1183
7 566 1021 1184 1185 1186 1187 1188
7 573 1014 1189 1190 1191 1192 1193
7 577 1032 1194 1195 1196 1197 1198
7 583 794 1027 1199 1200 1201 1202
7 589 993 1203 1204 1205 1206 1207
7 593 858 1046 1208 1209 1210 1211
7 597 1042 1212 1213 1214 1215 1216
7 603 744 1217 1218 1219 1220 1221
7 607 978 1222 1223 1224 1225 1226
7 612 1066 1203 1227 1228 1229 1230
7 617 1116 1176 1231 1232 1233 1234
7 622 1106 1194 1235 1236 1237 1238
7 628 828 1239 1240 1241 1242 1243
7 633 816 1244 1245 1246 1247 1248
7 638 752 1191 1249 1250 1251 1252
7 644 733 1253 1254 1255 1256 1257
7 649 782 1188 1258 1259 1260 1261
7 653 934 1262 1263 1264 1265 1266
7 657 1157 1213 1267 1268 1269 1270
7 663 1108 1247 1271 1272 1273 1274
7 667 1012 1275 1276 1277 1278 1279
7 673 768 1264 1280 1281 1282 1283
7 678 786 1121 1284 1285 1286 1287
7 683 757 1225 1288 1289 1290 1291
7 688 852 1091 1292 1293 1294 1295
7 694 841 1051 1296 1297 1298 1299
7 698 1068 1256 1300 1301 1302 1303
7 702 1145 1242 1304 1305 1306 1307
7 707 1059 1221 1308 1309 1310 1311
7 714 1003 1276 1312 1313 1314 1315
7 719 799 1129 1316 1317 1318 1319
7 578 766 1320 1321 1322 1323 1324
7 703 802 1325 1326 1327 1328 1329
7 476 731 1330 1331 1332 1333 1334
7 269 790 1335 1336 1337 1338 1339
7 598 742 1340 1341 1342 1343 1344
7 613 773 1345 1346 1347 1348 1349
7 229 755 1350 1351 1352 1353 1354
7 498 814 1355 1356 1357 1358 1359
7 709 784 1360 1361 1362 1363 1364
7 428 725 1365 1366 1367 1368 1369
7 263 760 1370 1371 1372 1373 1374
7 399 797 1375 1376 1377 1378 1379
7 618 749 1380 1381 1382 1383 1384
7 406 808 1385 1386 1387 1388 1389
7 223 737 1390 1391 1392 1393 1394
7 375 779 1395 1396 1397 1398 1399
7 440 862 1400 1401 1402 1403 1404
7 668 833 1405 1406 1407 1408 1409
7 567 850 1410 1411 1412 1413 1414
7 313 821 1415 1416 1417 1418 1419
7 511 838 1420 1421 1422 1423 1424
7 180 857 1425 1426 1427 1428 1429
7 359 827 1430 1431 1432 1433 1434
7 654 844 1435 1436 1437 1438 1439
7 85 1214 1391 1440 1441 1442 1443
7 422 1136 1444 1445 1446 1447 1448
7 458 1250 1449 1450 1451 1452 1453
7 605 1029 1389 1454 1455 1456 1457
7 655 1258 1398 1458 1459 1460 1461
7 382 1054 1437 1462 1463 1464 1465
7 689 1101 1466 1467 1468 1469 1470
7 58 939 1397 1471 1472 1473 1474
7 513 1178 1475 1476 1477 1478 1479
7 626 955 1480 1481 1482 1483 1484
7 164 1137 1434 1485 1486 1487 1488
7 538 991 1489 1490 1491 1492 1493
7 543 1161 1494 1495 1496 1497 1498
7 120 1185 1423 1499 1500 1501 1502
7 591 1302 1503 1504 1505 1506 1507
7 671 1092 1508 1509 1510 1511 1512
7 36 1308 1369 1513 1514 1515 1516
7 289 996 1517 1518 1519 1520 1521
7 695 1039 1429 1522 1523 1524 1525
7 449 876 1358 1526 1527 1528 1529
7 501 1123 1378 1530 1531 1532 1533
7 553 887 1534 1535 1536 1537 1538
7 717 1192 1539 1540 1541 1542 1543
7 9 1049 1383 1544 1545 1546 1547
7 362 1316 1382 1548 1549 1550 1551
7 620 1239 1422 1552 1553 1554 1555
7 342 1141 1363 1556 1557 1558 1559
7 95 909 1377 1560 1561 1562 1563
7 639 1151 1564 1565 1566 1567 1568
7 378 936 1569 1570 1571 1572 1573
7 144 980 1426 1574 1575 1576 1577
7 207 1062 1578 1579 1580 1581 1582
7 643 1285 1583 1584 1585 1586 1587
7 108 1069 1353 1588 1589 1590 1591
7 334 1246 1592 1593 1594 1595 1596
7 350 869 1584 1597 1598 1599 1600
7 305 1270 1601 1602 1603 1604 1605
7 531 1294 1570 1606 1607 1608 1609
7 64 1196 1371 1610 1611 1612 1613
7 679 970 1601 1614 1615 1616 1617
7 408 1206 1577 1618 1619 1620 1621
7 129 871 1438 1505 1622 1623 1624
7 602 923 1593 1625 1626 1627 1628
7 198 1000 1553 1629 1630 1631 1632
7 80 1231 1334 1633 1634 1635 1636
7 660 1009 1374 1637 1638 1639 1640
7 415 1296 1431 1538 1641 1642 1643
7 234 929 1326 1644 1645 1646 1647
7 647 987 1612 1648 1649 1650 1651
7 466 893 1550 1652 1653 1654 1655
7 53 1024 1349 1604 1656 1657 1658
7 191 1255 1638 1649 1659 1660 1661
7 479 1038 1564 1662 1663 1664 1665
7 156 1275 1417 1666 1667 1668 1669
7 248 1314 1563 1670 1671 1672 1673
7 684 1172 1579 1674 1675 1676 1677
7 30 946 1386 1541 1678 1679 1680
7 169 1180 1346 1617 1681 1682 1683
7 483 896 1413 1684 1685 1686 1687
7 711 1217 1394 1520 1688 1689 1690
7 569 924 1338 1607 1691 1692 1693
7 274 956 1404 1675 1694 1695 1696
7 555 1084 1352 1497 1697 1698 1699
7 15 1304 1344 1626 1700 1701 1702
7 295 1095 1523 1618 1703 1704 1705
7 582 1224 1545 1652 1706 1707 1708
7 114 1262 1409 1663 1709 1710 1711
7 691 1120 1500 1629 1712 1713 1714
7 302 883 1459 1715 1716 1717 1718
7 1 1128 1362 1510 1719 1720 1721
7 548 962 1532 1670 1722 1723 1724
7 561 1273 1473 1716 1725 1726 1727
7 329 1104 1509 1557 1728 1729 1730
7 151 1015 1401 1580 1731 1732 1733
7 389 906 1449 1668 1734 1735 1736
7 184 1149 1494 1591 1737 1738 1739
7 74 915 1357 1477 1740 1741 1742
7 634 1169 1445 1647 1743 1744 1745
7 213 1208 1406 1568 1746 1747 1748
7 519 1280 1366 1492 1749 1750 1751
7 432 1063 1341 1594 1752 1753 1754
7 339 1289 1481 1685 1755 1756 1757
7 242 1023 1466 1635 1758 1759 1760
7 101 1109 1337 1572 1761 1762 1763
7 25 1045 1329 1446 1764 1765 1766
7 491 1076 1441 1517 1767 1768 1769
7 527 965 1464 1503 1770 1771 1772
7 254 1199 1331 1469 1773 1774 1775
7 318 973 1321 1585 1776 1777 1778
7 586 1113 1418 1451 1779 1780 1781
7 204 1156 1455 1540 1782 1783 1784
7 46 1227 1324 1598 1785 1786 1787
7 445 1008 1489 1514 1788 1789 1790
7 281 1238 1486 1534 1791 1792 1793
7 134 1080 1412 1482 1794 1795 1796
7 470 1164 1476 1528 1797 1798 1799
7 67 999 1320 1800 1801 1802 1803
7 18 989 1325 1804 1805 1806 1807
7 100 1253 1330 1808 1809 1810 1811
7 31 1103 1335 1812 1813 1814 1815
7 88 881 1340 1816 1817 1818 1819
7 43 1249 1345 1820 1821 1822 1823
7 71 1288 1350 1824 1825 1826 1827
7 4 1150 1355 1828 1829 1830 1831
7 39 886 1360 1832 1833 1834 1835
7 107 1094 1365 1836 1837 1838 1839
7 59 964 1370 1840 1841 1842 1843
7 22 1284 1375 1844 1845 1846 1847
7 79 1159 1380 1848 1849 1850 1851
7 10 969 1385 1852 1853 1854 1855
7 92 1163 1390 1856 1857 1858 1859
7 50 1171 1395 1860 1861 1862 1863
7 137 1244 1400 1864 1865 1866 1867
7 157 994 1405 1868 1869 1870 1871
7 123 891 1410 1872 1873 1874 1875
7 141 1154 1415 1876 1877 1878 1879
7 163 960 1420 1880 1881 1882 1883
7 128 1167 1425 1884 1885 1886 1887
7 148 1292 1430 1888 1889 1890 1891
7 115 1099 1435 1892 1893 1894 1895
7 395 1053 1443 1829 1896 1897 1898
7 435 1181 1447 1899 1900 1901 1902
7 294 761 1453 1903 1904 1905 1906
7 584 1060 1457 1837 1907 1908 1909
7 309 935 1461 1869 1910 1911 1912
7 482 1147 1465 1817 1913 1914 1915
7 529 820 1470 1916 1917 1918 1919
7 610 1131 1472 1865 1920 1921 1922
7 348 958 1479 1923 1924 1925 1926
7 623 931 1483 1904 1927 1928 1929
7 438 874 1488 1813 1930 1931 1932
7 541 736 1493 1933 1934 1935 1936
7 469 791 1498 1937 1938 1939 1940
7 356 1266 1501 1845 1936 1941 1942
7 217 1125 1507 1909 1943 1944 1945
7 521 1056 1512 1946 1947 1948 1949
7 228 1028 1516 1885 1919 1950 1951
7 545 856 1521 1952 1953 1954 1955
7 594 865 1525 1849 1925 1956 1957
7 674 1019 1529 1881 1901 1958 1959
7 424 901 1533 1832 1960 1961 1962
7 681 754 1537 1898 1963 1964 1965
7 368 877 1543 1966 1967 1968 1969
7 473 1047 1546 1824 1970 1971 1972
7 243 1205 1551 1801 1973 1974 1975
7 284 1177 1554 1809 1976 1977 1978
7 446 1313 1559 1876 1979 1980 1981
7 700 947 1561 1800 1982 1983 1984
7 457 724 1567 1972 1985 1986 1987
7 608 974 1571 1952 1988 1989 1990
7 650 1187 1576 1804 1991 1992 1993
7 487 1200 1581 1962 1994 1995 1996
7 190 743 1586 1947 1997 1998 1999
7 496 942 1590 1873 2000 2001 2002
7 287 839 1596 1967 2003 2004 2005
7 662 1210 1599 1938 2006 2007 2008
7 322 1298 1605 1915 2009 2010 2011
7 201 851 1608 1900 2012 2013 2014
7 370 1311 1613 1892 1955 2015 2016
7 642 730 1615 1932 2017 2018 2019
7 386 925 1620 2020 2021 2022 2023
7 665 1082 1623 1808 2024 2025 2026
7 712 1142 1627 1916 2027 2028 2029
7 550 778 1632 2020 2030 2031 2032
7 268 910 1636 1841 2033 2034 2035
7 562 1133 1639 1889 1968 2036 2037
7 211 983 1643 1805 2038 2039 2040
7 604 1235 1646 1840 2041 2042 2043
7 658 898 1650 1933 2044 2045 2046
7 686 826 1654 1922 2047 2048 2049
7 574 916 1657 1877 2050 2051 2052
7 300 809 1661 1924 2053 2054 2055
7 588 1318 1665 2043 2056 2057 2058
7 177 1140 1669 1853 1940 2059 2060
7 239 1085 1673 1912 2061 2062 2063
7 338 767 1676 2035 2057 2064 2065
7 615 1307 1679 1820 2031 2066 2067
7 353 1074 1683 1872 2068 2069 2070
7 693 1267 1686 1856 1948 2071 2072
7 251 951 1689 1821 2023 2073 2074
7 718 1034 1692 1860 1928 2075 2076
7 629 1004 1695 1852 2007 2077 2078
7 516 919 1698 1893 1989 2079 2080
7 221 1234 1702 1861 1906 2081 2082
7 524 815 1704 1995 2083 2084 2085
7 257 1259 1708 1981 2086 2087 2088
7 311 1017 1710 1857 1998 2089 2090
7 417 1031 1714 1985 2091 2092 2093
7 677 796 1717 1993 2094 2095 2096
7 425 1229 1720 1888 2004 2097 2098
7 631 863 1723 2002 2099 2100 2101
7 174 1041 1727 1978 2102 2103 2104
7 535 748 1729 2026 2102 2105 2106
7 565 981 1732 1816 2107 2108 2109
7 697 1064 1735 1963 2110 2111 2112
7 453 1115 1738 2040 2094 2113 2114
7 705 1197 1741 1868 2115 2116 2117
7 331 832 1744 2052 2086 2118 2119
7 391 1272 1748 1812 2120 2121 2122
7 185 1190 1750 1864 2123 2124 2125
7 492 1301 1753 1825 2092 2126 2127
7 196 785 1756 1943 2128 2129 2130
7 571 1281 1759 2070 2099 2131 2132
7 402 1216 1763 1833 2085 2133 2134
7 595 1111 1765 1836 2129 2135 2136
7 504 1010 1769 2047 2125 2137 2138
7 636 772 1771 1984 2139 2140 2141
7 379 1118 1774 1828 2112 2142 2143
7 648 1222 1777 1884 2028 2144 2145
7 411 1089 1780 1844 2046 2146 2147
7 462 845 1783 2061 2117 2148 2149
7 261 1072 1787 1880 2013 2150 2151
7 557 1241 1790 2017 2122 2152 2153
7 278 1218 1793 1975 2140 2154 2155
7 507 1279 1796 1848 2054 2156 2157
7 326 803 1798 2009 2109 2158 2159
7 556 984 1323 2044 2160 2161 2162
7 572 920 1327 2027 2163 2164 2165
7 503 933 1333 1988 2166 2167 2168
7 713 1189 1339 1966 2169 2170 2171
7 255 1075 1343 2137 2172 2173 2174
7 454 864 1348 2006 2175 2176 2177
7 659 1175 1354 1923 2178 2179 2180
7 664 1090 1356 1946 2181 2182 2183
7 321 1005 1361 2152 2184 2185 2186
7 172 1146 1368 2113 2187 2188 2189
7 520 1271 1372 2103 2190 2191 2192
7 609 1132 1376 1899 2193 2194 2195
7 238 1020 1381 2131 2196 2197 2198
7 436 1223 1387 2087 2199 2200 2201
7 367 1312 1393 2062 2202 2203 2204
7 347 1268 1396 2010 2205 2206 2207
7 699 950 1403 1927 2208 2209 2210
7 277 903 1407 2110 2211 2212 2213
7 587 1119 1414 2091 2214 2215 2216
7 416 1204 1419 2021 2217 2218 2219
7 216 1236 1421 2154 2220 2221 2222
7 624 1300 1428 1944 2223 2224 2225
7 387 1058 1432 1994 2226 2227 2228
7 488 1035 1436 2056 2229 2230 2231
7 646 911 1442 1983 2232 2233 2234
7 635 738 1448 1818 2199 2235 2236
7 706 1043 1450 1956 2237 2238 2239
7 54 892 1454 2049 2206 2240 2241
7 152 971 1458 2019 2227 2242 2243
7 82 1152 1462 1987 2197 2244 2245
7 506 928 1467 2075 2246 2247 2248
7 409 1026 1474 2051 2249 2250 2251
7 630 780 1478 1835 2205 2252 2253
7 324 837 1484 1883 2223 2254 2255
7 490 1018 1487 2108 2256 2257 2258
7 401 1087 1490 2079 2259 2260 2261
7 596 880 1495 1958 2262 2263 2264
7 716 1139 1502 1931 2265 2266 2267
7 675 829 1506 1870 2220 2268 2269
7 461 723 1511 1838 2190 2270 2271
7 692 1071 1515 2001 2272 2273 2274
7 564 1126 1518 1960 2275 2276 2277
7 26 966 1522 2141 2194 2278 2279
7 118 1105 1526 2106 2230 2280 2281
7 47 1168 1530 2119 2176 2282 2283
7 259 959 1535 2077 2284 2285 2286
7 523 746 1542 1851 2202 2287 2288
7 560 1233 1547 2034 2289 2290 2291
7 110 1100 1548 1918 2189 2292 2293
7 96 888 1552 1965 2204 2294 2295
7 166 990 1556 1935 2222 2296 2297
7 183 1048 1562 2136 2298 2299 2300
7 369 1117 1565 2146 2301 2302 2303
7 336 805 1573 1855 2193 2304 2305
7 377 873 1575 2025 2306 2307 2308
7 640 846 1582 1875 2229 2309 2310
7 616 1013 1583 2036 2311 2312 2313
7 390 918 1589 2116 2314 2315 2316
7 651 1220 1592 2073 2307 2317 2318
7 330 756 1600 1842 2181 2319 2320
7 685 762 1603 1802 2184 2321 2322
7 666 1033 1606 1907 2323 2324 2325
7 627 941 1611 1921 2303 2326 2327
7 220 977 1614 2144 2310 2328 2329
7 467 840 1621 1895 2226 2262 2330
7 247 1265 1624 2090 2325 2331 2332
7 194 735 1628 1858 2169 2333 2334
7 495 1299 1630 2038 2315 2335 2336
7 444 1112 1634 2134 2296 2337 2338
7 131 882 1637 2096 2225 2289 2339
7 103 1173 1641 2065 2167 2340 2341
7 41 1245 1644 2005 2185 2342 2343
7 200 777 1651 1863 2178 2323 2344
7 175 1202 1653 2142 2322 2345 2346
7 282 1230 1658 2151 2294 2347 2348
7 701 1261 1659 1910 2299 2349 2350
7 533 818 1664 1878 2214 2351 2352
7 601 982 1667 1992 2342 2345 2353
7 680 798 1672 1807 2196 2284 2354
7 426 900 1674 2071 2305 2355 2356
7 514 1052 1680 1971 2313 2357 2358
7 160 1286 1681 1999 2212 2359 2360
7 13 1001 1684 2032 2201 2272 2361
7 75 961 1688 2101 2180 2331 2362
7 6 1155 1691 2149 2182 2265 2363
7 20 1290 1694 2130 2164 2326 2364
7 139 1165 1697 2159 2209 2357 2365
7 672 1215 1701 1897 2280 2328 2366
7 576 1057 1703 1913 2288 2348 2367
7 549 728 1707 1810 2172 2335 2368
7 581 1278 1711 2060 2240 2369 2370
7 298 825 1713 1891 2217 2349 2371
7 266 1183 1715 2068 2269 2337 2372
7 592 1310 1721 1951 2278 2355 2373
7 312 932 1722 2041 2253 2370 2374
7 544 770 1726 1823 2187 2275 2375
7 394 1283 1728 2123 2233 2352 2376
7 241 1083 1733 2157 2277 2292 2377
7 188 854 1736 1886 2208 2311 2378
7 528 811 1739 1831 2175 2246 2379
7 208 1130 1742 2098 2239 2340 2380
7 357 1067 1743 2126 2266 2320 2381
7 90 1251 1746 1905 2174 2314 2382
7 146 1160 1749 1939 2219 2298 2383
7 62 995 1752 1954 2192 2256 2384
7 611 1243 1755 1976 2251 2334 2385
7 455 787 1760 1814 2163 2301 2386
7 351 948 1762 2067 2261 2359 2387
7 306 1306 1766 2082 2242 2263 2388
7 292 795 1768 1847 2166 2237 2389
7 227 1211 1770 2120 2236 2273 2390
7 69 1293 1773 2014 2161 2306 2391
7 125 1254 1776 2055 2215 2232 2392
7 34 1096 1779 2084 2171 2249 2393
7 437 1319 1782 1973 2257 2271 2394
7 480 1198 1786 2016 2244 2285 2395
7 286 753 1789 1826 2160 2317 2396
7 539 859 1792 1866 2211 2259 2397
7 421 1186 1795 1942 2248 2282 2398
7 474 1144 1797 1979 2255 2291 2399
7 690 1044 1642 1934 2356 2400 2401
7 443 870 1699 1917 2399 2402 2403
7 645 1263 1460 1953 2329 2404 2405
7 670 1016 1751 2003 2264 2406 2407
7 559 1079 1682 2048 2312 2408 2409
7 388 1050 1524 1937 2390 2410 2411
7 625 1232 1555 2053 2286 2412 2413
7 478 908 1781 1997 2367 2414 2415
7 280 944 1696 2018 2385 2416 2417
7 407 1305 1463 2095 2302 2418 2419
7 590 1110 1747 2105 2238 2420 2421
7 349 1138 1640 2012 2372 2422 2423
7 182 1184 1527 2100 2376 2424 2425
7 304 979 1778 2118 2350 2426 2427
7 512 1277 1558 2148 2260 2428 2429
7 206 1212 1687 2158 2336 2430 2431
7 600 1025 1690 1903 2374 2432 2433
7 489 1127 1531 1964 2381 2434 2435
7 580 914 1775 1986 2324 2436 2437
7 715 1228 1549 2030 2247 2438 2439
7 246 1195 1645 2139 2318 2440 2441
7 420 1070 1754 2128 2276 2442 2443
7 376 1309 1456 2083 2346 2444 2445
7 240 938 1693 2064 2394 2446 2447
7 619 957 1633 1803 2387 2448 2449
7 676 1107 1587 1914 2339 2411 2450
7 661 834 1725 1926 2177 2451 2452
7 153 1148 1411 1920 2371 2438 2453
7 104 904 1388 1930 2368 2408 2454
7 111 1077 1359 1970 2270 2420 2455
7 585 732 1619 1929 2231 2456 2457
7 708 1201 1513 1879 2316 2458 2459
7 682 967 1757 1961 2295 2433 2460
7 632 1158 1595 1959 2362 2403 2461
7 652 975 1709 1819 2353 2462 2463
7 710 774 1671 1990 2165 2449 2464
7 570 759 1539 1902 2198 2455 2465
7 669 1086 1666 1815 2308 2466 2467
7 546 894 1745 1911 2384 2423 2462
7 525 1002 1566 1908 2393 2447 2458
7 614 926 1785 1874 2327 2468 2469
7 696 806 1504 1996 2213 2470 2471
7 48 1022 1373 1982 2375 2418 2472
7 83 1237 1336 2024 2287 2428 2456
7 159 1006 1427 2050 2268 2440 2451
7 554 853 1475 2008 2186 2473 2474
7 468 884 1730 1957 2383 2415 2475
7 704 1114 1700 1843 2234 2450 2476
7 145 988 1439 1950 2351 2436 2477
7 76 937 1364 1896 2396 2400 2478
7 97 1207 1328 1941 2333 2406 2479
7 404 1209 1544 1839 2338 2475 2480
7 518 822 1737 2045 2183 2469 2481
7 641 1166 1660 2078 2243 2401 2482
7 509 1182 1485 1811 2377 2471 2483
7 687 1170 1609 2069 2241 2405 2484
7 433 720 1767 1969 2195 2472 2485
7 373 930 1656 1871 2395 2474 2486
7 621 745 1791 2022 2210 2467 2487
7 637 1291 1452 2042 2279 2435 2488
7 551 1153 1677 1974 2361 2445 2468
7 484 741 1712 1945 2228 2454 2489
7 429 1124 1588 1867 2380 2452 2490
7 252 750 1569 2029 2200 2491 2492
7 530 963 1784 2080 2293 2407 2493
7 568 1282 1499 1859 2258 2461 2494
7 325 1257 1491 2072 2365 2417 2495
7 656 843 1602 2114 2162 2459 2496
7 398 897 1764 1834 2366 2492 2497
7 27 1061 1342 1991 2389 2404 2498
7 68 922 1399 2033 2321 2416 2499
7 167 1274 1402 2097 2254 2442 2473
7 337 1098 1631 2076 2341 2437 2500
7 413 792 1578 2111 2216 2463 2501
7 497 1065 1719 1882 2274 2460 2502
7 606 783 1706 2063 2168 2499 2503
7 463 1248 1468 1980 2363 2425 2466
7 358 878 1731 1806 2398 2457 2504
7 540 972 1799 2039 2297 2413 2497
7 317 817 1648 1949 2207 2453 2505
7 599 1297 1440 1827 2300 2495 2503
7 89 1122 1379 2089 2235 2426 2470
7 55 1315 1322 2066 2344 2412 2491
7 138 868 1424 2000 2397 2434 2506
7 117 1269 1416 2115 2330 2444 2481
7 40 1226 1351 2135 2252 2430 2464
7 19 1037 1392 2107 2354 2424 2487
7 477 1040 1761 1830 2358 2485 2507
7 450 849 1508 2011 2188 2477 2508
7 299 992 1616 1977 2392 2431 2448
7 442 1011 1794 1854 2267 2484 2509
7 202 998 1655 2037 2391 2427 2483
7 500 812 1444 2132 2173 2480 2510
7 579 1219 1610 1887 2250 2488 2511
7 273 788 1480 2058 2221 2479 2512
7 293 889 1772 2074 2382 2443 2486
7 363 769 1758 2138 2170 2476 2513
7 178 1143 1622 1850 2369 2493 2512
7 332 1295 1519 2145 2283 2409 2514
7 456 1174 1705 2143 2245 2439 2515
7 262 1317 1471 1890 2347 2500 2508
7 212 727 1734 2093 2224 2498 2509
7 61 1193 1347 2081 2319 2414 2510
7 33 954 1384 2059 2386 2402 2516
7 132 1179 1408 2015 2378 2432 2517
7 344 830 1788 2104 2179 2506 2511
7 534 1287 1496 2121 2281 2419 2507
7 222 1055 1560 1822 2388 2465 2518
7 270 1240 1678 1862 2290 2482 2519
7 189 1162 1718 2147 2360 2421 2518
7 168 860 1597 2153 2191 2502 2517
7 124 1093 1433 2150 2309 2446 2496
7 12 1303 1332 2156 2304 2422 2501
7 5 1135 1367 2133 2379 2410 2513
7 383 801 1662 2155 2218 2494 2516
7 230 1030 1740 1894 2373 2505 2515
7 195 1252 1536 2127 2364 2441 2490
7 288 1102 1724 2124 2343 2429 2504
7 315 1260 1574 1846 2332 2489 2514
7 233 765 1625 2088 2203 2478 2519
