# Generated using Miratope v0.5.0 (https://github.com/galoomba1/miratope-rs)
4OFF

# Vertices, Faces, Edges, Cells
96 240 288 48

# Vertices
0 0.707106781186548 0.707106781186548 1.4142135623731 
0 0.707106781186548 1.4142135623731 0.707106781186548 
0 1.4142135623731 0.707106781186548 0.707106781186548 
0.707106781186548 0.707106781186548 0 1.4142135623731 
0.707106781186548 0 0.707106781186548 1.4142135623731 
0.707106781186548 0 1.4142135623731 0.707106781186548 
0.707106781186548 0.707106781186548 1.4142135623731 0 
0.707106781186548 1.4142135623731 0.707106781186548 0 
0.707106781186548 1.4142135623731 0 0.707106781186548 
1.4142135623731 0 0.707106781186548 0.707106781186548 
1.4142135623731 0.707106781186548 0 0.707106781186548 
1.4142135623731 0.707106781186548 0.707106781186548 0 
0 1.4142135623731 0.707106781186548 -0.707106781186548 
0.707106781186548 1.4142135623731 0 -0.707106781186548 
0.707106781186548 0 1.4142135623731 -0.707106781186548 
0 0.707106781186548 1.4142135623731 -0.707106781186548 
1.4142135623731 0.707106781186548 0 -0.707106781186548 
1.4142135623731 0 0.707106781186548 -0.707106781186548 
0 0.707106781186548 0.707106781186548 -1.4142135623731 
0.707106781186548 0.707106781186548 0 -1.4142135623731 
0.707106781186548 0 0.707106781186548 -1.4142135623731 
0 0.707106781186548 -0.707106781186548 -1.4142135623731 
0.707106781186548 0 -0.707106781186548 -1.4142135623731 
0.707106781186548 0.707106781186548 -1.4142135623731 0 
0.707106781186548 1.4142135623731 -0.707106781186548 0 
0.707106781186548 0 -1.4142135623731 -0.707106781186548 
1.4142135623731 0.707106781186548 -0.707106781186548 0 
0 0.707106781186548 -1.4142135623731 -0.707106781186548 
0 1.4142135623731 -0.707106781186548 -0.707106781186548 
1.4142135623731 0 -0.707106781186548 -0.707106781186548 
0 0.707106781186548 -0.707106781186548 1.4142135623731 
0.707106781186548 0 -0.707106781186548 1.4142135623731 
0 1.4142135623731 -0.707106781186548 0.707106781186548 
1.4142135623731 0 -0.707106781186548 0.707106781186548 
0 0.707106781186548 -1.4142135623731 0.707106781186548 
0.707106781186548 0 -1.4142135623731 0.707106781186548 
-0.707106781186548 0 0.707106781186548 1.4142135623731 
-0.707106781186548 0.707106781186548 0 1.4142135623731 
0.707106781186548 -0.707106781186548 0 1.4142135623731 
0 -0.707106781186548 0.707106781186548 1.4142135623731 
-0.707106781186548 0 -0.707106781186548 1.4142135623731 
0 -0.707106781186548 -0.707106781186548 1.4142135623731 
-0.707106781186548 -0.707106781186548 0 1.4142135623731 
-0.707106781186548 0.707106781186548 -1.4142135623731 0 
-0.707106781186548 0 -1.4142135623731 0.707106781186548 
0 -0.707106781186548 -1.4142135623731 0.707106781186548 
0.707106781186548 -0.707106781186548 -1.4142135623731 0 
-0.707106781186548 -0.707106781186548 -1.4142135623731 0 
0 -0.707106781186548 -1.4142135623731 -0.707106781186548 
-0.707106781186548 0 -1.4142135623731 -0.707106781186548 
0 -1.4142135623731 -0.707106781186548 0.707106781186548 
-0.707106781186548 -1.4142135623731 0 0.707106781186548 
-1.4142135623731 -0.707106781186548 0 0.707106781186548 
-0.707106781186548 -1.4142135623731 -0.707106781186548 0 
-1.4142135623731 0 -0.707106781186548 0.707106781186548 
-1.4142135623731 -0.707106781186548 -0.707106781186548 0 
0 -0.707106781186548 -0.707106781186548 -1.4142135623731 
0 -1.4142135623731 -0.707106781186548 -0.707106781186548 
-0.707106781186548 -0.707106781186548 0 -1.4142135623731 
-0.707106781186548 0 -0.707106781186548 -1.4142135623731 
-0.707106781186548 -1.4142135623731 0 -0.707106781186548 
-1.4142135623731 0 -0.707106781186548 -0.707106781186548 
-1.4142135623731 -0.707106781186548 0 -0.707106781186548 
-0.707106781186548 0 0.707106781186548 -1.4142135623731 
-0.707106781186548 0.707106781186548 0 -1.4142135623731 
0.707106781186548 -0.707106781186548 0 -1.4142135623731 
0 -0.707106781186548 0.707106781186548 -1.4142135623731 
0 -1.4142135623731 0.707106781186548 0.707106781186548 
0 -0.707106781186548 1.4142135623731 0.707106781186548 
-0.707106781186548 -1.4142135623731 0.707106781186548 0 
-1.4142135623731 0 0.707106781186548 0.707106781186548 
-1.4142135623731 -0.707106781186548 0.707106781186548 0 
-0.707106781186548 0 1.4142135623731 0.707106781186548 
-0.707106781186548 -0.707106781186548 1.4142135623731 0 
-0.707106781186548 0.707106781186548 1.4142135623731 0 
0.707106781186548 -0.707106781186548 1.4142135623731 0 
0 -0.707106781186548 1.4142135623731 -0.707106781186548 
-0.707106781186548 0 1.4142135623731 -0.707106781186548 
0 -1.4142135623731 0.707106781186548 -0.707106781186548 
-1.4142135623731 0 0.707106781186548 -0.707106781186548 
-1.4142135623731 0.707106781186548 0 0.707106781186548 
-0.707106781186548 1.4142135623731 0 0.707106781186548 
-1.4142135623731 0.707106781186548 -0.707106781186548 0 
-0.707106781186548 1.4142135623731 -0.707106781186548 0 
-0.707106781186548 1.4142135623731 0.707106781186548 0 
-1.4142135623731 0.707106781186548 0.707106781186548 0 
-1.4142135623731 0.707106781186548 0 -0.707106781186548 
0.707106781186548 -1.4142135623731 0 -0.707106781186548 
1.4142135623731 -0.707106781186548 0 -0.707106781186548 
0.707106781186548 -1.4142135623731 -0.707106781186548 0 
1.4142135623731 -0.707106781186548 -0.707106781186548 0 
1.4142135623731 -0.707106781186548 0.707106781186548 0 
1.4142135623731 -0.707106781186548 0 0.707106781186548 
0.707106781186548 -1.4142135623731 0.707106781186548 0 
-0.707106781186548 1.4142135623731 0 -0.707106781186548 
0.707106781186548 -1.4142135623731 0 0.707106781186548 

# Faces
3 1 2 0
4 0 4 5 1
4 0 3 8 2
3 0 3 4
4 2 7 6 1
3 5 6 1
3 2 8 7
3 5 4 9
4 6 11 9 5
4 4 9 10 3
3 8 10 3
3 7 11 6
4 8 10 11 7
3 10 11 9
4 6 7 12 15
4 7 13 16 11
3 12 13 7
4 6 11 17 14
3 6 15 14
3 11 17 16
3 18 20 19
4 19 13 12 18
4 18 15 14 20
3 12 15 18
4 19 20 17 16
3 19 13 16
3 20 17 14
4 19 22 29 16
4 21 19 13 28
3 19 21 22
3 23 24 26
4 24 28 27 23
4 25 23 26 29
3 25 27 23
4 16 26 24 13
3 24 28 13
3 16 29 26
4 27 25 22 21
3 27 28 21
3 25 29 22
4 8 3 30 32
4 3 10 33 31
3 3 31 30
4 26 10 8 24
3 8 24 32
3 33 26 10
3 34 23 35
4 34 35 31 30
4 23 34 32 24
3 34 32 30
4 35 23 26 33
3 35 33 31
4 3 0 37 30
4 4 0 36 39
3 0 37 36
4 4 38 31 3
3 4 39 38
3 30 37 40
4 30 40 41 31
4 38 41 42 39
3 38 41 31
3 39 42 36
4 36 37 40 42
3 42 40 41
4 35 34 44 45
4 27 43 34 23
3 34 43 44
4 25 46 35 23
3 45 46 35
3 45 44 47
4 46 45 47 48
4 25 27 49 48
3 25 48 46
3 43 49 27
4 44 43 49 47
3 48 49 47
3 45 50 41
4 45 47 53 50
4 41 45 44 40
4 42 51 50 41
3 51 53 50
3 51 42 52
4 51 53 55 52
3 54 40 44
4 47 55 54 44
4 42 52 54 40
3 54 52 55
3 47 55 53
3 56 48 57
4 48 56 59 49
4 57 56 58 60
3 56 58 59
4 47 53 57 48
3 57 60 53
3 59 61 49
4 47 55 61 49
4 59 58 62 61
3 58 62 60
4 53 60 62 55
3 62 55 61
4 19 21 64 18
4 20 66 63 18
3 18 64 63
4 19 22 65 20
3 20 65 66
3 64 59 21
4 56 22 21 59
4 58 66 65 56
3 65 22 56
3 63 66 58
4 58 63 64 59
3 67 68 39
4 67 69 73 68
4 42 39 67 51
3 67 69 51
3 70 72 36
4 42 52 70 36
4 71 73 72 70
3 71 52 70
4 68 39 36 72
3 72 73 68
4 51 69 71 52
3 71 69 73
4 5 68 72 1
4 6 1 74 15
3 1 74 72
4 6 14 75 5
3 5 75 68
4 68 75 76 73
4 15 14 76 77
3 14 75 76
3 74 77 15
4 74 72 73 77
3 77 73 76
3 78 76 66
4 58 60 78 66
4 73 76 78 69
3 78 69 60
4 77 63 66 76
3 63 79 77
4 62 79 63 58
4 60 69 71 62
4 71 79 77 73
3 79 62 71
4 30 40 44 34
4 34 43 83 32
3 80 37 81
4 81 83 82 80
4 40 37 80 54
3 80 54 82
4 32 81 37 30
3 32 83 81
4 43 44 54 82
3 43 82 83
4 0 36 72 1
4 2 81 37 0
4 2 1 74 84
3 2 81 84
3 70 85 80
4 37 80 70 36
4 72 74 85 70
4 80 81 84 85
3 85 84 74
4 52 70 80 54
4 70 71 79 85
4 85 80 82 86
3 85 86 79
4 55 54 82 61
4 62 79 86 61
3 86 61 82
4 55 52 71 62
4 25 22 56 48
4 25 29 90 46
4 65 22 29 88
3 65 88 87
4 65 56 57 87
3 89 90 46
4 46 89 57 48
4 89 87 88 90
3 89 57 87
3 88 90 29
4 9 92 33 10
4 11 17 91 9
3 91 92 9
4 10 26 16 11
3 33 90 92
4 29 90 33 26
4 29 16 17 88
3 91 17 88
4 88 91 92 90
3 93 75 91
4 88 91 93 87
4 76 75 93 78
3 93 87 78
4 14 76 66 20
4 20 17 88 65
4 17 91 75 14
4 66 65 87 78
4 21 59 49 27
4 64 21 28 94
4 27 28 83 43
4 49 43 82 61
3 64 94 86
4 59 64 86 61
4 82 83 94 86
3 28 94 83
4 64 18 12 94
4 15 18 63 77
4 77 74 85 79
4 86 85 84 94
4 12 84 74 15
3 12 94 84
4 79 63 64 86
4 39 4 5 68
4 9 91 75 5
4 4 9 92 38
3 93 95 67
4 75 68 67 93
4 39 38 95 67
4 91 92 95 93
3 38 92 95
4 33 90 46 35
4 31 35 45 41
4 41 50 95 38
4 90 89 95 92
3 89 50 95
4 31 33 92 38
4 46 45 50 89
4 69 67 93 78
4 51 67 95 50
4 87 93 95 89
4 57 87 78 60
4 53 57 89 50
4 53 51 69 60
4 2 84 12 7
4 2 81 32 8
4 13 7 8 24
4 12 94 28 13
4 28 83 32 24
4 83 94 84 81

# Cells
14 0 1 2 3 4 5 6 7 8 9 10 11 12 13
14 11 14 15 16 17 18 19 20 21 22 23 24 25 26
14 25 27 28 29 30 31 32 33 34 35 36 37 38 39
14 10 30 40 41 42 43 44 45 46 47 48 49 50 51
14 3 42 52 53 54 55 56 57 58 59 60 61 62 63
14 33 46 64 65 66 67 68 69 70 71 72 73 74 75
14 63 69 76 77 78 79 80 81 82 83 84 85 86 87
14 75 87 88 89 90 91 92 93 94 95 96 97 98 99
14 20 29 91 100 101 102 103 104 105 106 107 108 109 110
14 61 81 111 112 113 114 115 116 117 118 119 120 121 122
14 5 18 120 123 124 125 126 127 128 129 130 131 132 133
14 97 109 122 133 134 135 136 137 138 139 140 141 142 143
14 49 57 66 83 144 145 146 147 148 149 150 151 152 153
14 0 54 115 125 146 154 155 156 157 158 159 160 161 162
14 86 99 118 143 149 158 163 164 165 166 167 168 169 170
14 39 72 88 108 171 172 173 174 175 176 177 178 179 180
14 13 19 36 45 180 181 182 183 184 185 186 187 188 189
14 26 104 130 134 174 188 190 191 192 193 194 195 196 197
14 38 73 94 105 153 169 198 199 200 201 202 203 204 205
14 23 102 131 139 162 166 202 206 207 208 209 210 211 212
14 7 56 111 127 183 190 213 214 215 216 217 218 219 220
14 51 60 68 76 176 185 220 221 222 223 224 225 226 227
14 80 93 114 137 179 193 216 225 228 229 230 231 232 233
14 6 16 35 44 151 157 205 211 234 235 236 237 238 239
6 1 53 119 123 154 213
6 22 101 129 138 194 207
6 37 71 89 106 171 198
6 47 58 64 78 144 222
6 12 15 34 43 184 236
6 82 98 121 141 170 233
6 8 17 126 182 196 214
6 32 50 67 172 186 221
6 74 84 95 152 167 201
6 117 132 142 160 164 208
6 2 40 52 150 155 235
6 90 107 135 175 197 231
6 21 28 100 199 206 237
6 59 79 113 218 223 229
6 62 85 116 148 159 163
6 31 48 65 145 200 238
6 24 27 103 173 187 195
6 112 128 136 192 217 228
6 70 77 92 177 227 232
6 4 14 124 156 210 234
6 9 41 55 181 215 226
6 96 110 140 168 203 212
6 178 189 191 219 224 230
6 147 161 165 204 209 239
