# Generated using Miratope v0.5.0 (https://github.com/galoomba1/miratope-rs)
4OFF

# Vertices, Faces, Edges, Cells
120 2520 1200 720

# Vertices
0.809016994374945 -0.809016994374945 -0.809016994374945 0.809016994374945 
0 -1.61803398874989 0 0 
0 0 -1.61803398874989 0 
-0.5 0 -1.30901699437495 0.809016994374945 
-0.809016994374945 -0.809016994374945 -0.809016994374945 -0.809016994374945 
-0.809016994374945 -1.30901699437495 0 0.5 
-1.30901699437495 -0.809016994374945 -0.5 0 
0 -0.5 -0.809016994374945 1.30901699437495 
0.809016994374945 -0.5 -1.30901699437495 0 
0 -1.30901699437495 -0.5 -0.809016994374945 
0.809016994374945 0.809016994374945 -0.809016994374945 0.809016994374945 
-0.809016994374945 0.809016994374945 -0.809016994374945 0.809016994374945 
-0.5 0.809016994374945 0 1.30901699437495 
-0.809016994374945 -0.809016994374945 -0.809016994374945 0.809016994374945 
-0.5 -0.809016994374945 0 1.30901699437495 
0.5 0.809016994374945 0 1.30901699437495 
0.5 -0.809016994374945 0 1.30901699437495 
0 0.809016994374945 -1.30901699437495 0.5 
0 -0.809016994374945 -1.30901699437495 0.5 
-0.809016994374945 -0.809016994374945 0.809016994374945 0.809016994374945 
-0.809016994374945 -0.809016994374945 0.809016994374945 -0.809016994374945 
-1.30901699437495 0 0.809016994374945 -0.5 
-1.30901699437495 0 0.809016994374945 0.5 
-1.30901699437495 0 -0.809016994374945 -0.5 
-1.30901699437495 0 -0.809016994374945 0.5 
-0.5 -1.30901699437495 0.809016994374945 0 
-0.5 -1.30901699437495 -0.809016994374945 0 
0.809016994374945 0.809016994374945 -0.809016994374945 -0.809016994374945 
0.809016994374945 -0.809016994374945 -0.809016994374945 -0.809016994374945 
-0.809016994374945 0.809016994374945 -0.809016994374945 -0.809016994374945 
0.809016994374945 0.5 -1.30901699437495 0 
-0.809016994374945 -0.5 -1.30901699437495 0 
-0.809016994374945 0.5 -1.30901699437495 0 
0.809016994374945 0 -0.5 -1.30901699437495 
-0.809016994374945 0 -0.5 -1.30901699437495 
0.809016994374945 -0.809016994374945 0.809016994374945 0.809016994374945 
0.809016994374945 -0.809016994374945 0.809016994374945 -0.809016994374945 
0 -1.30901699437495 -0.5 0.809016994374945 
0 -1.30901699437495 0.5 0.809016994374945 
0 -1.30901699437495 0.5 -0.809016994374945 
1.30901699437495 -0.5 0 0.809016994374945 
1.30901699437495 -0.5 0 -0.809016994374945 
0 0 0 1.61803398874989 
-1.61803398874989 0 0 0 
-1.30901699437495 0.809016994374945 0.5 0 
0 0.5 0.809016994374945 1.30901699437495 
-0.5 0 1.30901699437495 0.809016994374945 
-0.809016994374945 1.30901699437495 0 0.5 
-0.809016994374945 0.809016994374945 0.809016994374945 -0.809016994374945 
0 0 0 -1.61803398874989 
-1.30901699437495 0.809016994374945 -0.5 0 
0 0.5 -0.809016994374945 -1.30901699437495 
-0.809016994374945 1.30901699437495 0 -0.5 
-0.5 0 -1.30901699437495 -0.809016994374945 
-0.5 -0.809016994374945 0 -1.30901699437495 
0 1.61803398874989 0 0 
0.809016994374945 1.30901699437495 0 0.5 
0.5 0 -1.30901699437495 0.809016994374945 
1.30901699437495 0.809016994374945 -0.5 0 
0 0.5 -0.809016994374945 1.30901699437495 
0 1.30901699437495 -0.5 -0.809016994374945 
0.809016994374945 0.809016994374945 0.809016994374945 0.809016994374945 
1.61803398874989 0 0 0 
0 -0.5 0.809016994374945 1.30901699437495 
1.30901699437495 -0.809016994374945 0.5 0 
0.809016994374945 -1.30901699437495 0 0.5 
0.5 0 1.30901699437495 0.809016994374945 
1.30901699437495 0 -0.809016994374945 0.5 
0 0 1.61803398874989 0 
-0.5 0 1.30901699437495 -0.809016994374945 
-0.809016994374945 -1.30901699437495 0 -0.5 
0 -0.5 0.809016994374945 -1.30901699437495 
-1.30901699437495 -0.809016994374945 0.5 0 
0.809016994374945 -0.5 1.30901699437495 0 
0 -0.5 -0.809016994374945 -1.30901699437495 
1.30901699437495 -0.809016994374945 -0.5 0 
0.809016994374945 -1.30901699437495 0 -0.5 
0.5 0 -1.30901699437495 -0.809016994374945 
1.30901699437495 0 0.809016994374945 -0.5 
0.5 0.809016994374945 0 -1.30901699437495 
-0.809016994374945 0.809016994374945 0.809016994374945 0.809016994374945 
0 1.30901699437495 -0.5 0.809016994374945 
0 1.30901699437495 0.5 0.809016994374945 
0 1.30901699437495 0.5 -0.809016994374945 
-1.30901699437495 0.5 0 0.809016994374945 
-1.30901699437495 0.5 0 -0.809016994374945 
0.809016994374945 0.5 1.30901699437495 0 
-0.809016994374945 -0.5 1.30901699437495 0 
-0.809016994374945 0.5 1.30901699437495 0 
0.809016994374945 0 0.5 1.30901699437495 
-0.809016994374945 0 0.5 1.30901699437495 
0.809016994374945 0.809016994374945 0.809016994374945 -0.809016994374945 
1.30901699437495 0 0.809016994374945 0.5 
1.30901699437495 0 -0.809016994374945 -0.5 
0.5 1.30901699437495 0.809016994374945 0 
0.5 1.30901699437495 -0.809016994374945 0 
-0.5 0.809016994374945 0 -1.30901699437495 
0.5 -0.809016994374945 0 -1.30901699437495 
0 0.809016994374945 1.30901699437495 -0.5 
0 -0.809016994374945 1.30901699437495 -0.5 
0.809016994374945 1.30901699437495 0 -0.5 
0.5 0 1.30901699437495 -0.809016994374945 
1.30901699437495 0.809016994374945 0.5 0 
0 0.5 0.809016994374945 -1.30901699437495 
-0.809016994374945 0 -0.5 1.30901699437495 
-0.5 1.30901699437495 -0.809016994374945 0 
-1.30901699437495 -0.5 0 0.809016994374945 
0 -0.809016994374945 1.30901699437495 0.5 
0.809016994374945 0 -0.5 1.30901699437495 
0.5 -1.30901699437495 -0.809016994374945 0 
0 -0.809016994374945 -1.30901699437495 -0.5 
-1.30901699437495 -0.5 0 -0.809016994374945 
0.809016994374945 0 0.5 -1.30901699437495 
0.5 -1.30901699437495 0.809016994374945 0 
0 0.809016994374945 -1.30901699437495 -0.5 
1.30901699437495 0.5 0 -0.809016994374945 
-0.5 1.30901699437495 0.809016994374945 0 
-0.809016994374945 0 0.5 -1.30901699437495 
0 0.809016994374945 1.30901699437495 0.5 
1.30901699437495 0.5 0 0.809016994374945 

# Faces
4 0 1 4 2
4 1 6 3 0
5 2 0 3 8 7
5 4 1 6 9 5
4 4 5 7 2
4 7 8 9 5
4 8 3 6 9
4 10 0 13 11
4 0 14 12 10
5 15 11 10 12 17
5 13 16 18 14 0
4 13 11 15 16
4 16 18 17 15
4 12 17 18 14
4 20 19 13 4
5 19 21 25 22 20
4 19 21 23 13
4 4 24 22 20
5 13 4 24 26 23
4 22 24 26 25
4 25 21 23 26
4 28 27 29 4
5 27 28 30 33 8
4 29 31 8 27
4 4 28 30 32
5 4 32 34 31 29
4 30 32 34 33
4 33 8 31 34
4 0 28 36 35
5 35 0 38 40 37
4 35 36 9 37
4 0 28 39 38
5 36 9 41 39 28
4 41 39 38 40
4 40 41 9 37
4 42 11 43 19
4 11 44 46 42
5 47 43 11 44 24
5 19 42 46 14 45
4 19 45 47 43
4 45 14 24 47
4 14 24 44 46
4 48 49 4 43
5 48 43 52 21 50
4 48 49 53 50
4 43 4 51 52
5 4 49 53 54 51
4 52 51 54 21
4 21 54 53 50
4 27 55 11 2
5 27 56 60 58 55
4 2 27 56 59
4 11 57 58 55
5 2 11 57 32 59
4 56 60 32 59
4 60 58 57 32
4 62 0 42 61
4 61 63 65 62
5 42 61 63 15 66
5 62 65 67 64 0
4 0 42 66 64
4 15 67 64 66
4 63 65 67 15
4 68 36 1 19
5 36 69 73 71 68
4 36 1 72 69
4 19 68 71 70
5 1 19 70 38 72
4 73 38 72 69
4 38 70 71 73
4 27 49 36 62
4 62 76 74 27
5 27 74 79 77 49
5 36 62 76 78 75
4 49 36 75 77
4 75 77 79 78
4 78 76 74 79
4 80 11 29 48
4 80 81 60 48
5 11 82 84 81 80
5 48 29 83 85 60
4 29 83 82 11
4 83 85 84 82
4 81 84 85 60
4 35 19 80 61
5 35 61 73 89 86
4 61 73 87 80
4 35 19 88 86
5 19 80 87 90 88
4 86 88 90 89
4 89 73 87 90
4 91 61 10 27
5 61 91 92 94 78
4 61 10 93 78
4 27 67 92 91
5 10 93 95 67 27
4 92 94 95 67
4 94 78 93 95
4 91 36 20 48
4 91 96 54 36
5 91 48 79 98 96
5 97 20 36 54 99
4 20 48 79 97
4 98 79 97 99
4 98 96 54 99
4 61 55 48 68
5 102 55 61 100 82
4 61 68 103 100
4 55 102 101 48
5 48 101 88 103 68
4 102 82 88 101
4 100 82 88 103
4 29 43 13 2
4 43 29 17 104
5 29 2 105 53 17
5 13 84 6 104 43
4 2 13 84 105
4 104 17 53 6
4 84 105 53 6
4 35 42 13 1
4 35 25 106 42
5 1 107 65 25 35
5 13 90 7 106 42
4 13 1 107 90
4 90 7 65 107
4 7 106 25 65
4 62 10 2 28
5 62 10 40 58 108
4 2 109 40 10
4 28 62 108 18
5 109 2 28 18 77
4 40 58 77 109
4 58 108 18 77
4 28 49 20 1
5 1 28 26 76 110
4 28 49 111 26
4 1 110 34 20
5 49 20 34 71 111
4 76 26 111 71
4 71 34 110 76
4 91 62 35 68
5 41 91 62 112 102
4 91 68 113 41
4 35 99 112 62
5 68 113 66 99 35
4 66 113 41 102
4 66 102 112 99
4 55 29 49 91
4 55 114 33 91
5 115 49 91 33 103
5 55 29 95 52 114
4 29 95 115 49
4 95 52 103 115
4 103 33 114 52
4 80 68 20 43
5 80 98 46 116 68
4 80 98 117 43
4 68 20 85 116
5 43 117 72 85 20
4 46 72 85 116
4 98 46 72 117
4 10 42 80 55
4 55 118 89 10
5 42 119 59 89 10
5 55 118 47 94 80
4 80 94 119 42
4 119 59 47 94
4 89 118 47 59
4 11 2 26 106
4 11 57 37 106
4 59 2 26 14
4 59 14 6 32
5 6 37 106 26 14
4 57 37 6 32
4 5 18 32 43
5 43 5 111 106 70
4 43 32 110 70
4 3 53 111 106
4 3 110 70 106
5 32 110 3 53 18
4 18 5 111 53
4 4 13 57 77
4 13 23 114 57
4 4 24 17 77
5 114 8 17 77 57
4 17 24 26 8
4 23 114 8 26
4 1 18 104 19
4 19 104 31 70
4 1 72 24 18
5 18 24 7 31 104
4 7 38 72 24
4 38 7 31 70
4 59 67 109 13
4 59 13 110 30
5 109 31 37 110 13
5 67 17 108 30 59
4 108 30 110 37
4 108 37 31 17
4 67 109 31 17
4 2 23 54 28
4 18 28 54 6
4 2 23 70 109
4 77 109 70 34
4 18 77 34 6
5 70 34 6 54 23
4 57 109 38 42
5 104 57 42 3 108
4 38 26 3 42
4 108 65 5 104
4 108 3 26 65
4 57 104 5 109
5 109 5 65 26 38
4 13 72 39 109
4 110 54 72 13
4 31 111 25 37
4 37 110 54 25
5 111 39 72 54 25
4 109 31 111 39
5 93 57 75 30 0
4 93 0 26 74
4 30 0 26 53
4 75 9 53 30
4 75 9 31 57
4 57 31 74 93
5 53 9 31 74 26
4 13 0 76 70
4 0 14 25 76
4 16 113 70 13
4 16 18 9 113
4 14 25 9 18
5 70 76 25 9 113
4 1 16 67 28
4 28 67 7 26
4 110 57 16 1
5 16 57 40 7 67
4 7 26 76 40
4 110 57 40 76
5 97 4 39 74 70
4 97 75 18 4
4 4 18 65 39
4 75 37 70 97
5 75 37 8 65 18
4 8 74 39 65
4 8 74 70 37
4 90 11 23 72
4 11 31 5 90
5 11 23 3 50 31
5 72 14 22 5 90
4 14 3 50 22
4 3 14 72 23
4 50 31 5 22
4 24 85 51 2
4 24 2 74 111
5 2 51 110 114 74
4 50 6 110 114
4 50 111 74 114
5 85 6 50 111 24
4 51 110 6 85
4 24 105 10 7
5 81 114 10 105 30
4 7 31 114 10
4 81 104 18 30
4 81 104 31 114
4 18 30 105 24
4 16 19 84 59
5 63 37 19 16 5
4 19 84 3 37
4 63 37 3 12
4 63 12 24 5
5 12 24 59 84 3
4 59 16 5 24
4 53 27 10 3
4 10 3 110 93
4 67 18 53 27
4 95 32 18 67
4 95 32 110 93
4 20 9 31 43
4 85 53 9 20
4 117 74 31 43
4 26 72 85 53
4 72 26 74 117
5 1 75 113 109 64
4 64 89 14 1
4 1 14 108 75
4 64 89 7 109
5 14 108 63 7 89
4 108 63 113 75
4 63 113 109 7
4 20 5 65 36
4 36 65 26 54
4 109 97 20 5
4 109 97 99 38
4 99 38 26 54
4 0 110 33 62
4 0 110 97 64
4 62 33 9 65
4 67 64 97 77
4 67 77 9 65
5 9 77 97 110 33
5 20 107 39 87 113
4 20 6 14 107
4 6 20 113 37
4 14 26 39 107
4 113 37 106 87
4 26 39 87 106
4 37 42 10 8
4 65 89 10 8
4 37 42 119 75
4 18 59 119 75
4 65 89 59 18
4 4 109 41 49
4 4 109 93 51
4 49 41 8 53
5 76 8 41 109 93
4 76 54 51 93
4 53 8 76 54
4 11 95 51 23
4 11 95 77 31
5 95 77 60 30 51
4 50 60 30 3
4 50 31 77 60
4 3 30 51 23
4 42 81 32 13
4 90 13 32 47
4 81 42 106 50
5 50 17 47 32 81
4 90 7 17 47
4 106 50 17 7
4 29 4 72 44
4 31 106 44 29
4 4 72 84 32
5 44 106 21 84 72
4 84 32 34 21
4 31 106 21 34
4 16 64 99 19
4 99 19 37 76
4 73 63 37 76
4 5 39 73 63
5 76 99 64 39 73
4 16 64 39 5
5 108 35 119 16 92
4 93 119 35 76
4 35 76 8 108
4 93 119 16 109
4 41 92 108 8
4 109 16 92 41
4 64 1 54 112
4 75 33 54 1
4 64 109 74 112
4 75 113 71 33
5 33 54 112 74 71
4 71 113 109 74
4 13 38 87 43
4 84 13 38 46
4 43 87 63 104
4 46 84 6 25
5 38 87 63 25 46
4 6 25 63 104
4 29 77 97 117
5 111 29 117 23 96
4 77 9 111 29
4 33 96 111 9
4 33 110 23 96
4 117 97 110 23
4 2 95 119 0
4 0 119 81 3
4 95 2 7 15
5 119 81 58 15 95
4 15 7 8 58
4 58 8 3 81
4 0 59 45 35
4 35 45 104 37
4 38 90 59 0
4 40 38 90 15
4 37 104 15 40
5 59 90 15 104 45
4 51 115 67 2
4 2 74 41 67
5 58 75 115 67 41
4 110 75 58 114
4 74 41 58 114
4 51 115 75 110
4 1 99 117 4
4 5 87 117 4
4 99 1 6 21
4 71 9 5 87
5 71 21 99 117 87
4 9 71 21 6
4 43 11 114 34
4 11 114 96 44
4 47 60 34 43
4 47 24 53 60
5 114 34 60 53 96
4 96 44 24 53
4 55 12 24 29
4 59 95 29 24
4 114 3 12 55
4 52 84 59 95
4 3 114 52 84
4 52 80 104 32
4 80 106 23 52
5 80 106 12 22 104
4 105 85 22 12
4 105 23 106 12
5 52 32 85 105 23
4 22 85 32 104
4 42 40 113 19
4 19 113 92 45
4 46 73 40 42
4 45 14 65 92
5 73 65 92 113 40
4 14 65 73 46
4 28 64 102 27
4 27 8 40 102
4 64 28 30 119
5 119 64 102 40 78
4 119 30 33 78
4 40 8 33 78
5 101 49 69 112 117
4 9 49 101 113
4 49 9 25 69
4 113 70 117 101
4 76 112 69 25
4 70 117 112 76
4 14 35 68 22
4 72 99 35 14
4 113 5 22 68
4 66 90 72 99
4 5 113 66 90
4 28 36 103 51
4 36 103 34 9
4 28 39 117 51
4 39 117 79 41
4 79 41 9 34
5 103 34 79 117 51
4 0 93 102 89
4 89 0 30 56
5 92 15 102 89 56
4 102 93 57 15
4 75 92 56 30
4 15 57 75 92
4 80 104 16 66
4 66 80 106 38
4 12 22 107 89
4 89 12 106 38
5 16 107 89 38 66
4 22 107 16 104
5 100 62 56 115 119
4 17 56 62 8
4 62 8 114 100
4 100 114 57 119
4 57 119 115 77
4 56 17 77 115
4 97 103 85 4
4 4 85 69 39
5 21 96 69 85 103
4 69 39 74 96
4 103 97 70 21
4 70 21 96 74
4 89 62 36 107
4 107 36 75 16
4 38 76 62 89
4 75 16 66 78
4 66 78 76 38
4 1 97 78 35
4 35 25 71 78
4 107 101 97 1
5 71 41 101 97 78
4 107 65 41 101
4 65 25 71 41
4 115 92 65 28
5 115 28 112 93 97
4 73 112 28 65
4 92 115 97 113
4 40 73 112 93
4 93 40 113 97
4 27 105 85 49
4 74 23 105 27
4 85 49 77 32
4 32 77 79 52
4 23 74 79 52
4 80 50 6 19
4 111 87 80 50
4 6 19 88 85
4 90 24 85 88
4 111 87 90 24
4 42 82 95 57
4 42 3 105 82
4 108 56 47 104
4 108 3 105 56
5 56 47 95 82 105
4 95 57 104 47
4 2 93 79 29
4 29 79 58 17
4 2 93 100 105
5 58 79 93 100 33
4 53 33 58 17
4 53 33 100 105
4 7 11 80 63
4 63 80 81 108
4 7 11 82 89
4 89 82 84 14
4 84 14 108 81
5 48 22 69 44 87
4 48 34 70 87
4 48 34 6 22
4 44 23 70 87
4 54 69 44 23
4 22 6 54 69
4 28 53 60 115
4 28 53 96 112
4 97 34 60 115
4 93 114 96 112
4 34 97 93 114
4 5 107 88 43
4 43 70 99 88
5 107 69 46 99 88
4 106 46 69 111
4 99 70 106 46
4 107 5 111 69
4 40 61 12 7
4 57 81 61 40
5 56 12 61 81 45
4 67 56 45 16
4 12 7 67 56
4 45 16 57 81
5 92 101 64 86 36
4 63 92 36 25
4 36 25 46 86
4 63 87 101 92
4 38 64 86 46
4 87 101 64 38
4 91 73 39 49
4 91 73 76 33
4 39 49 115 64
4 115 64 99 103
4 33 76 99 103
4 75 35 61 58
4 61 58 41 73
4 86 115 75 35
4 89 67 115 86
4 41 73 89 67
4 27 17 47 83
5 83 51 100 96 27
4 27 17 50 96
4 100 81 50 96
4 32 51 100 81
4 47 83 51 32
4 117 88 47 29
4 29 111 22 47
5 116 84 88 47 22
4 84 23 96 116
4 22 111 96 116
4 88 117 23 84
4 90 44 55 15
4 55 15 104 50
5 55 44 105 116 50
4 45 59 105 116
4 104 50 116 45
4 59 105 44 90
4 91 60 30 62
4 41 77 60 91
4 112 51 30 62
4 41 77 95 102
4 112 51 95 102
4 35 119 82 46
4 35 46 12 108
4 16 90 82 119
4 108 12 118 92
4 92 118 90 16
5 82 46 12 118 90
4 68 25 111 48
4 48 111 39 101
4 54 103 68 25
4 72 88 101 39
4 103 54 72 88
4 48 71 74 29
4 71 48 60 33
4 83 112 74 29
4 85 54 112 83
4 33 60 85 54
5 68 63 118 107 45
4 45 84 21 68
4 21 68 63 106
4 44 118 63 106
4 107 72 44 118
4 45 84 72 107
4 61 108 17 55
4 30 100 61 108
4 102 67 17 55
4 59 82 102 67
4 100 30 59 82
4 58 92 36 33
4 36 33 100 86
4 79 101 92 58
4 64 93 100 86
4 79 101 64 93
4 45 119 78 68
4 68 78 40 63
4 102 118 63 40
4 107 64 102 118
4 119 45 107 64
4 107 20 103 86
4 20 113 78 103
4 107 86 112 39
5 86 103 78 98 112
4 113 78 98 87
4 39 112 98 87
4 101 83 27 41
4 27 41 71 96
4 100 78 71 96
4 100 78 97 51
4 83 101 97 51
4 19 66 101 20
4 21 98 66 19
4 22 118 101 20
5 98 73 118 101 66
4 73 25 22 118
4 21 98 73 25
4 62 10 82 86
4 82 10 40 66
4 86 62 108 45
5 86 82 66 94 45
4 40 66 94 58
4 45 108 58 94
4 117 44 55 79
4 79 55 50 34
4 105 51 103 116
4 50 34 103 116
4 44 117 51 105
4 11 52 100 10
4 12 116 100 10
4 11 15 94 52
4 17 60 94 15
5 94 52 100 116 60
4 12 17 60 116
4 118 48 43 90
4 50 12 118 48
4 52 82 90 43
4 46 21 52 82
4 21 46 12 50
4 10 102 83 105
4 10 114 79 102
5 83 115 94 79 102
4 81 94 115 30
4 114 79 94 81
4 115 30 105 83
4 20 49 83 88
4 20 34 52 88
4 83 49 111 44
5 52 88 83 44 98
4 52 34 71 98
4 71 98 44 111
4 61 116 84 42
4 22 63 61 116
4 88 66 42 84
4 47 15 66 88
4 22 63 15 47
4 115 36 68 94
4 69 83 115 36
4 79 71 68 94
4 102 73 69 83
4 71 79 102 73
4 56 118 73 62
4 100 98 73 62
4 66 119 100 98
4 115 101 66 119
4 101 115 56 118
4 46 61 91 69
4 61 46 99 78
4 91 69 107 92
4 92 107 88 94
4 78 99 88 94
4 55 98 112 27
4 56 86 112 27
4 55 98 78 58
4 60 103 86 56
4 103 60 58 78
5 91 116 86 83 118
4 71 91 118 87
4 71 91 116 21
4 86 99 21 116
4 99 86 83 117
4 117 83 118 87
4 15 80 68 92
4 80 15 102 98
4 68 92 56 116
4 102 98 46 89
4 46 89 56 116
4 94 101 49 60
4 116 69 49 60
4 117 52 94 101
4 116 69 112 100
4 112 100 52 117
4 91 58 15 118
4 81 116 91 58
4 86 119 81 116
4 83 95 119 86
4 118 15 95 83
4 66 87 48 94
4 48 94 45 22
4 82 44 69 86
4 22 45 86 69
4 44 82 66 87
4 48 47 56 91
4 96 105 56 91
4 48 47 95 79
4 79 95 82 98
4 96 105 82 98
4 21 80 55 96
4 103 94 80 21
4 55 96 69 118
4 94 103 85 47
4 69 118 47 85
4 12 44 98 61
4 98 61 81 52
4 83 56 45 88
4 44 12 56 83
4 81 52 88 45
5 1 75 37 76 0
4 76 0 2 74
4 75 1 4 77
5 2 74 31 77 4
4 77 31 37 75
4 76 37 31 74
5 108 8 10 0 30
4 11 31 8 10
4 0 30 32 13
5 11 31 104 32 13
4 30 108 104 32
4 31 8 108 104
4 19 37 9 20
5 37 19 13 38 106
5 111 9 20 4 39
4 13 38 39 4
4 38 106 111 39
4 106 37 9 111
4 96 27 28 54
5 27 96 114 79 29
5 54 28 4 97 110
4 29 79 97 4
4 97 110 114 79
4 54 96 114 110
4 35 78 93 0
5 113 78 35 36 92
5 0 93 109 67 28
4 92 36 28 67
4 67 109 113 92
4 113 78 93 109
5 42 11 7 12 3
4 5 43 11 7
4 42 3 6 19
5 19 6 22 5 43
4 22 5 7 12
4 3 12 22 6
4 48 71 70 43
5 69 49 48 71 96
5 43 4 72 23 70
4 49 69 72 4
4 72 69 96 23
4 71 96 23 70
4 50 55 27 53
5 2 51 30 53 27
5 55 50 81 52 11
4 2 51 52 11
4 30 51 52 81
4 30 53 50 81
5 61 58 92 56 62
4 58 61 42 57
4 62 56 59 0
5 16 57 42 0 59
4 16 59 56 92
4 58 92 16 57
4 63 68 36 65
5 1 64 39 65 36
5 19 66 87 63 68
4 64 1 19 66
4 66 87 39 64
4 65 63 87 39
5 62 100 93 102 27
4 101 49 27 102
4 36 103 100 62
5 36 49 101 97 103
4 101 97 93 102
4 103 97 93 100
5 116 22 48 80 21
4 80 21 23 11
4 48 22 24 29
5 29 24 105 23 11
4 22 116 105 24
4 23 105 116 21
4 61 12 14 35
5 61 80 15 118 12
5 107 16 19 35 14
4 15 80 19 16
4 16 107 118 15
4 12 118 107 14
4 81 61 91 60
5 119 81 61 10 82
5 115 83 27 91 60
4 10 82 83 27
4 119 82 83 115
4 81 60 115 119
5 112 86 36 91 73
4 87 48 91 73
4 88 20 36 86
5 87 48 20 88 117
4 88 117 112 86
4 73 112 117 87
4 44 55 61 46
5 61 46 86 45 68
5 83 44 55 48 47
4 68 45 47 48
4 47 83 86 45
4 46 86 83 44
5 50 34 43 29 111
4 29 111 26 2
4 110 13 43 34
5 110 13 2 26 3
4 26 3 50 111
4 34 50 3 110
5 108 35 42 40 63
4 1 18 108 35
4 109 13 42 40
5 13 1 18 5 109
4 109 40 63 5
4 18 108 63 5
4 33 62 10 114
5 57 95 2 10 114
5 62 33 75 115 28
4 115 28 2 95
4 115 75 57 95
4 114 57 75 33
4 1 99 112 28
5 28 112 74 41 49
5 113 20 1 99 70
4 49 41 113 20
4 70 113 41 74
4 74 112 99 70
4 62 89 118 91
5 91 118 101 94 68
5 89 62 35 119 64
4 119 35 68 94
4 94 101 64 119
4 64 89 118 101
5 116 91 55 98 100
4 49 85 116 91
4 117 29 55 98
5 29 117 51 85 49
4 51 85 116 100
4 98 100 51 117
4 106 80 68 25
5 44 106 80 43 90
5 20 68 25 69 107
4 90 43 20 107
4 107 69 44 90
4 25 106 44 69
5 55 17 56 105 10
4 105 10 42 84
4 55 17 104 80
5 104 80 42 84 45
4 105 56 45 84
4 17 56 45 104
5 6 32 4 24 53
4 4 109 7 24
4 32 57 109 4
4 7 24 53 8
5 8 37 57 109 7
4 53 8 37 6
4 23 54 1 13
4 13 109 74 23
4 53 18 1 54
4 111 74 109 5
5 53 111 74 23 54
4 18 28 51 32
5 9 18 28 26 8
4 26 28 51 23
4 8 114 34 9
5 34 114 23 51 32
4 34 9 18 32
5 0 38 7 65 14
4 6 14 0 110
4 38 70 110 0
4 9 65 14 6
4 7 31 9 65
5 6 110 70 31 9
4 3 0 28 53
4 0 3 114 93
4 17 53 28 67
4 109 93 114 31
5 53 3 114 31 17
4 77 109 39 49
5 33 53 49 77 34
4 53 49 39 26
4 34 33 76 70
4 26 76 33 53
5 70 76 26 39 109
4 13 16 67 2
4 13 16 75 110
4 26 65 67 2
5 108 65 67 16 75
4 3 110 75 108
4 4 5 65 28
4 25 54 28 65
4 5 4 97 113
5 25 37 113 5 65
4 110 37 113 97
4 27 41 109 2
4 53 9 41 27
4 2 109 97 51
4 75 30 51 97
5 41 109 97 75 9
4 16 64 28 18
4 26 28 64 38
5 113 40 38 64 16
4 9 113 40 8
4 8 40 38 26
4 62 30 18 65
5 62 76 40 41 65
4 76 110 30 62
4 40 57 77 41
4 18 65 41 77
5 18 30 110 57 77
4 1 36 33 110
4 8 65 36 33
4 110 1 64 93
4 74 39 64 93
5 93 110 33 8 74
4 43 104 18 4
4 18 14 72 4
4 104 37 70 43
5 3 14 18 104 37
4 23 3 37 70
4 31 9 49 29
4 31 29 117 70
4 9 49 85 6
4 70 110 51 117
4 11 57 77 29
4 11 57 110 23
4 77 18 24 29
4 30 110 23 105
4 0 26 106 42
4 24 59 0 26
4 42 57 31 106
4 31 57 16 5
5 5 24 26 106 31
5 29 95 32 60 17
4 95 29 74 93
4 29 74 8 17
4 33 60 17 8
4 32 60 33 110
4 72 1 97 117
5 6 25 26 72 1
4 1 6 34 97
4 34 6 25 71
4 26 25 71 74
5 117 74 71 34 97
4 37 8 62 35
4 35 37 57 119
4 7 89 62 8
4 109 57 119 64
4 97 99 35 75
4 25 9 75 35
5 35 25 73 38 99
4 109 38 73 41
4 9 25 73 41
4 67 27 112 64
5 27 67 77 58 8
4 8 76 112 27
4 76 78 58 8
4 77 58 78 97
5 76 112 64 97 78
4 70 76 35 19
4 76 26 14 35
4 19 70 109 16
4 39 109 16 107
4 59 2 93 119
5 7 17 18 59 2
4 7 2 93 40
5 58 75 119 93 40
4 58 17 7 40
4 18 75 58 17
4 51 115 36 54
4 9 77 115 36
5 71 9 36 54 76
5 51 115 77 79 93
4 93 76 71 79
4 79 71 9 77
4 2 105 85 4
4 4 85 60 77
4 105 96 74 2
5 60 50 96 105 85
4 31 50 96 74
4 59 2 23 84
4 7 106 23 2
4 6 18 59 84
5 6 50 106 23 84
4 18 6 50 17
4 85 24 5 20
5 21 34 20 85 54
4 31 34 20 5
4 26 54 21 106
4 26 24 85 54
4 0 1 107 89
4 76 73 89 0
4 1 107 92 75
5 73 63 92 107 89
4 37 75 92 63
4 10 102 64 0
4 102 10 8 41
4 64 115 30 0
5 102 41 92 115 64
4 30 115 92 108
4 28 62 73 39
4 28 115 101 39
4 33 71 73 62
5 113 71 73 39 101
4 75 113 101 115
4 1 16 90 72
4 1 6 104 16
5 104 63 7 90 16
4 25 63 7 26
4 7 26 72 90
4 4 20 103 51
4 103 20 9 33
4 4 39 112 51
4 111 96 112 39
5 103 33 96 112 51
4 67 59 105 27
4 3 105 27 8
4 58 81 32 77
5 32 59 105 3 81
4 67 59 32 77
5 67 89 10 40 15
4 89 14 3 10
4 37 3 10 40
4 14 89 67 18
4 67 18 104 15
4 30 60 49 28
4 30 100 112 28
4 60 49 41 58
5 60 58 114 100 30
4 114 100 112 74
4 54 36 107 72
4 9 5 107 36
5 38 87 5 107 72
4 76 38 87 71
4 54 72 38 76
4 4 24 44 117
4 4 32 52 117
4 32 52 21 6
5 21 96 44 117 52
4 53 96 21 6
5 43 52 84 85 47
4 43 31 17 47
4 52 114 31 43
4 53 85 47 17
4 3 84 85 53
4 11 13 72 44
4 111 44 11 31
4 72 13 32 85
4 31 104 22 111
5 85 22 111 44 72
4 0 14 45 119
4 38 0 119 66
5 15 92 45 119 66
4 65 92 15 7
4 66 38 7 15
4 41 91 56 67
4 30 56 91 33
5 41 79 78 33 91
4 95 79 78 119
5 95 67 56 30 119
4 95 79 41 67
4 20 97 78 68
4 97 64 107 20
4 78 68 25 76
4 64 107 69 112
5 90 66 42 46 89
4 42 37 113 66
4 42 37 25 46
4 25 46 89 65
4 89 65 5 90
4 41 91 69 39
4 33 54 69 91
4 99 78 79 117
4 33 54 99 78
5 54 69 39 117 99
4 108 62 27 17
4 17 27 102 15
4 62 100 81 108
5 15 57 81 108 17
4 57 81 100 93
4 13 59 45 19
4 19 37 108 45
4 59 13 38 89
5 59 89 12 108 45
4 106 12 108 37
4 10 55 79 93
4 93 51 105 10
4 77 79 55 17
4 115 56 105 51
4 111 49 36 25
4 36 25 21 103
4 49 111 87 101
4 97 101 87 70
5 21 25 111 87 70
5 61 78 66 102 73
4 75 108 61 78
4 73 65 108 61
4 102 67 16 66
4 65 67 102 73
4 62 86 107 65
4 76 62 86 99
5 107 101 66 99 86
4 41 101 66 40
4 66 40 76 99
4 36 75 58 91
4 40 73 91 58
4 36 75 119 86
4 119 86 112 93
5 60 103 52 79 48
4 60 53 111 48
4 74 111 48 79
4 54 103 52 23
4 54 53 60 103
5 24 90 13 84 14
4 87 70 13 90
4 84 13 70 21
4 25 14 84 21
4 25 14 24 111
4 10 12 24 2
4 12 50 114 10
4 47 95 2 24
5 24 12 50 104 47
4 114 57 104 50
4 49 83 95 77
4 49 83 105 53
5 100 52 95 83 105
4 33 100 52 34
4 34 52 95 77
4 13 57 15 90
4 84 13 57 81
4 17 15 90 24
4 24 14 108 17
4 19 99 117 43
4 99 54 6 19
4 43 5 39 117
4 5 39 69 22
4 27 91 71 74
4 34 71 91 60
4 74 27 83 117
4 97 117 83 115
4 22 14 1 20
4 63 22 20 113
4 14 46 99 1
5 14 22 63 106 46
4 70 106 63 113
4 11 42 119 95
4 67 95 11 7
4 119 30 3 42
4 12 56 30 3
4 61 40 113 68
4 40 61 46 38
4 113 16 45 68
4 16 64 86 45
4 103 115 92 68
4 71 41 92 68
5 99 103 68 71 98
4 64 99 98 102
4 41 102 98 71
4 89 10 100 86
4 40 78 100 10
5 86 115 94 78 100
4 94 15 40 78
4 15 67 115 94
4 114 55 48 34
4 32 47 48 34
4 114 23 44 55
4 23 51 83 44
4 50 6 20 48
4 48 87 106 50
4 6 84 88 20
4 106 23 117 87
4 80 43 32 81
4 81 3 106 80
4 59 32 43 90
4 3 105 44 106
5 58 94 95 102 55
4 102 112 96 55
4 33 58 55 96
4 33 103 94 58
4 95 94 103 51
4 61 10 7 63
4 63 104 81 61
4 7 90 82 10
4 119 81 104 16
4 88 19 113 101
5 72 88 19 21 46
4 113 19 21 71
4 71 73 46 21
4 39 72 46 73
4 83 101 20 85
4 34 79 101 20
5 79 101 83 112 98
4 54 112 98 21
4 21 98 79 34
4 80 42 38 87
4 80 104 5 87
4 38 72 84 42
4 104 45 107 5
5 47 15 11 82 59
4 15 11 114 58
4 82 11 114 100
4 58 60 47 15
4 59 30 60 47
4 61 98 112 62
4 98 61 58 79
4 62 56 83 112
4 92 101 83 56
4 35 86 82 42
4 35 86 56 108
4 102 40 42 82
5 118 102 82 86 56
4 108 63 118 56
4 36 69 46 35
4 78 98 46 35
4 69 118 92 36
4 92 113 87 118
5 87 98 46 69 118
4 115 49 48 94
4 78 71 48 94
4 115 86 69 49
4 96 69 86 100
4 99 88 45 35
4 22 45 35 25
4 38 90 118 73
5 90 118 22 45 88
4 38 90 88 99
4 102 55 12 89
4 58 55 12 108
4 89 102 95 59
4 45 94 95 59
4 29 83 88 43
4 83 69 111 29
4 34 103 88 43
5 103 116 69 83 88
4 50 111 69 116
4 29 44 82 95
4 29 17 12 44
4 84 32 95 82
5 82 44 12 116 84
4 32 84 116 60
4 88 47 104 19
4 19 21 50 104
4 24 72 46 12
4 24 72 88 47
4 27 56 47 29
4 27 96 116 56
4 47 29 79 94
5 94 81 116 56 47
4 81 116 96 114
4 103 85 22 68
4 68 71 111 22
4 44 98 99 72
4 72 85 103 99
4 15 11 106 63
4 82 46 106 11
4 14 46 82 59
4 59 14 22 47
4 103 78 61 116
4 73 69 116 61
4 83 102 66 88
4 103 78 66 88
4 92 15 55 91
4 91 116 45 92
4 66 15 55 98
4 119 45 116 100
5 82 98 80 94 88
4 94 92 63 80
4 73 98 80 63
4 89 82 98 73
4 88 107 89 82
4 60 48 118 56
4 118 48 79 102
4 79 102 82 52
4 103 52 82 86
4 80 66 101 48
4 99 21 80 66
4 107 101 48 22
4 22 116 86 107
4 66 42 81 94
4 42 81 116 46
4 89 90 47 56
4 47 94 66 90
4 96 91 68 21
4 44 96 91 118
4 21 52 94 68
4 44 117 101 118
4 80 61 100 52
4 61 12 105 100
4 95 15 80 52
4 105 83 118 12
4 19 68 116 84
4 84 82 66 19
4 63 68 116 12
4 12 44 87 63
4 80 50 60 94
4 80 98 96 50
4 85 60 94 88
4 82 105 85 88
4 43 47 118 87
4 43 87 98 52
4 46 98 52 84
4 84 46 69 85
4 55 118 90 11
4 88 52 11 90
4 55 50 22 118
4 50 22 45 81
4 4 49 27 2
5 27 49 69 118 56
5 2 4 72 90 59
4 59 90 118 56
4 90 72 69 118
4 13 11 29 4
5 11 82 66 38 13
5 39 4 29 83 101
4 83 101 66 82
4 38 66 101 39
4 4 28 36 20
5 28 30 56 86 36
5 4 20 88 47 32
4 56 86 88 47
4 30 32 47 56
4 27 29 48 91
5 92 91 48 22 63
5 27 29 24 7 67
4 92 63 7 67
4 22 63 7 24
4 10 27 28 0
5 10 27 96 44 12
5 14 72 54 28 0
4 14 72 44 12
4 72 54 96 44
4 4 43 19 1
5 43 52 94 66 19
5 1 64 115 51 4
4 64 66 94 115
4 51 115 94 52
4 48 68 36 49
5 36 75 108 45 68
5 48 47 17 77 49
4 108 45 47 17
4 75 108 17 77
4 43 11 55 48
5 43 5 113 101 48
5 55 11 7 40 102
4 101 113 40 102
4 40 7 5 113
4 0 42 11 2
5 0 42 46 99 76
5 11 2 74 117 44
4 117 44 46 99
4 76 74 117 99
4 0 62 36 1
5 3 0 62 100 105
5 6 1 36 103 85
4 103 85 105 100
4 6 85 105 3
4 62 27 55 61
5 63 106 50 55 61
5 26 65 62 27 53
4 26 65 63 106
4 26 53 50 106
4 20 48 80 19
5 48 79 58 15 80
5 20 97 75 16 19
4 15 58 75 16
4 97 79 58 75
4 0 35 19 13
5 21 19 35 78 103
5 13 0 93 51 23
4 93 51 103 78
4 21 103 51 23
4 11 10 61 80
5 61 10 8 76 73
5 70 87 80 11 31
4 76 73 87 70
4 31 70 76 8
4 61 35 36 91
5 35 61 81 3 37
5 9 36 91 60 53
4 3 81 60 53
4 9 53 3 37
4 19 68 61 42
5 71 33 58 61 68
5 42 19 70 110 57
4 57 110 33 58
4 71 33 110 70
4 43 20 49 29
5 29 43 90 15 95
5 20 107 92 115 49
4 115 92 15 95
4 90 15 92 107
4 13 1 28 2
5 2 28 112 83 105
5 13 1 99 88 84
4 99 112 83 88
4 84 105 83 88
4 2 29 55 10
5 2 10 89 38 26
5 29 111 87 118 55
4 87 118 89 38
4 111 87 38 26
4 62 91 49 28
5 108 12 116 91 62
5 18 28 49 85 24
4 18 24 12 108
4 24 85 116 12
4 35 62 10 42
5 106 23 114 10 42
5 25 35 62 33 54
4 106 23 54 25
4 114 33 54 23
4 91 55 80 68
5 91 55 17 8 41
5 37 113 68 80 104
4 113 37 8 41
4 104 37 8 17
4 35 1 20 68
5 35 119 30 110 1
5 20 68 94 60 34
4 30 119 94 60
4 30 110 34 60
4 43 13 42 80
5 80 42 40 78 98
5 43 117 97 109 13
4 109 40 78 97
4 117 97 78 98
4 45 19 99 86
5 32 6 19 45 81
4 100 81 45 86
5 54 99 86 100 51
4 54 6 32 51
4 12 61 68 22
4 12 17 58 61
5 17 12 22 111 53
4 111 71 33 53
4 42 66 102 10
4 66 87 106 42
5 117 79 102 66 87
4 114 79 117 23
4 11 95 94 80
4 80 94 101 87
5 77 95 94 101 97
4 97 70 31 77
4 5 20 68 63
4 63 15 94 68
5 17 15 63 5 31
4 31 17 60 34
4 43 88 45 104
5 43 34 77 57 104
5 119 115 103 88 45
4 57 104 45 119
4 115 77 34 103
4 98 55 12 46
5 71 74 114 55 98
5 26 3 12 46 25
4 46 98 71 25
4 26 3 114 74
5 93 10 82 98 112
4 82 10 3 84
4 84 82 98 21
4 110 54 112 93
5 3 110 54 21 84
5 96 100 61 46 21
4 46 61 108 14
4 53 96 100 30
5 6 14 108 30 53
4 46 21 6 14
4 22 20 103 116
5 18 104 22 20 9
4 81 116 22 104
5 103 33 30 81 116
4 18 30 33 9
4 19 88 82 42
4 70 117 88 19
5 51 95 82 88 117
4 51 110 57 95
4 106 80 48 111
4 7 15 80 106
4 8 74 79 58
5 8 74 111 106 7
4 82 105 27 102
5 74 39 73 102 27
4 73 102 82 46
5 46 82 105 23 72
4 72 39 74 23
4 59 30 62 89
5 69 112 62 89 46
4 89 46 84 59
5 84 59 30 51 85
4 69 85 51 112
4 89 56 91 73
5 111 96 91 73 25
5 24 14 89 56 105
4 73 25 14 89
4 24 105 96 111
4 36 107 118 91
4 118 91 60 47
5 24 47 118 107 5
4 5 9 53 24
4 13 16 107 72
5 13 32 95 119 16
4 119 86 107 16
5 85 72 107 86 83
4 83 95 32 85
4 15 11 2 67
4 11 15 118 44
5 67 15 118 101 41
4 117 101 41 74
4 39 49 48 87
4 90 47 48 87
5 87 39 109 7 90
4 77 17 7 109
4 47 43 13 59
4 43 47 83 117
5 59 67 115 83 47
4 109 67 115 97
4 5 22 85 4
5 4 77 67 16 5
5 60 85 22 45 56
4 60 77 67 56
4 16 5 22 45
4 91 69 44 55
4 24 17 55 44
4 39 26 8 41
5 24 26 39 69 44
5 1 107 45 59 18
4 1 107 69 54
4 107 45 116 69
5 54 69 116 105 53
4 53 18 59 105
4 90 13 0 89
4 23 44 90 13
5 90 44 83 102 89
4 93 102 83 51
4 35 108 104 19
4 35 108 58 78
5 58 108 104 50 60
4 50 60 103 21
4 78 61 55 79
4 63 61 78 113
5 78 113 70 34 79
4 70 34 50 106
4 80 81 119 66
5 81 80 21 34 114
5 119 66 99 97 93
4 119 81 114 93
4 97 34 21 99
5 79 93 57 11 52
4 52 11 106 21
4 57 37 76 93
4 21 71 79 52
5 76 37 106 21 71
4 25 63 80 21
4 114 8 108 81
5 9 25 63 108 8
4 25 21 34 9
5 42 84 52 100 119
4 84 42 37 6
4 75 33 100 119
5 33 75 37 6 34
4 84 52 34 6
4 78 68 116 100
5 50 116 68 25 6
5 114 110 76 78 100
4 114 100 116 50
4 110 76 25 6
4 80 50 3 42
4 3 42 40 8
4 33 96 98 78
5 33 8 3 50 96
4 61 98 99 35
4 35 37 70 99
4 3 81 52 23
5 23 70 99 98 52
4 68 103 52 80
4 103 68 113 97
5 110 97 103 52 32
4 110 37 104 32
4 37 19 43 31
4 19 37 40 66
4 114 52 94 58
5 40 37 31 114 58
4 48 94 81 50
5 31 50 48 71 9
5 78 94 81 57 75
4 75 9 71 78
4 31 50 81 57
4 10 40 41 27
4 12 10 40 63
5 63 40 41 71 87
4 96 71 87 44
4 119 42 38 64
4 64 119 100 112
5 72 117 112 64 38
4 84 72 117 52
4 62 35 45 56
4 62 56 60 33
4 25 54 85 22
5 36 69 22 14 65
4 96 69 36 33
4 8 65 14 3
4 96 50 22 69
4 1 72 46 35
4 1 110 23 72
4 105 82 119 30
4 55 96 23 11
4 26 7 11 23
4 76 112 102 40
5 26 76 112 96 23
4 32 43 48 60
4 60 48 101 115
5 18 32 60 115 75
4 18 5 113 75
4 31 104 47 29
5 41 109 31 29 79
5 94 47 104 16 92
4 92 94 79 41
4 104 16 109 31
4 4 109 113 20
4 113 20 88 66
5 66 15 57 109 113
4 57 32 47 15
4 98 44 29 79
4 98 73 41 79
5 106 38 73 98 44
4 31 106 38 109
4 65 25 68 92
5 17 56 92 65 18
4 17 56 116 50
4 18 65 25 6
5 0 64 86 82 59
4 32 110 0 59
4 97 64 86 103
4 32 59 82 52
4 19 84 85 20
4 20 85 51 97
4 30 59 16 75
5 111 5 65 41 49
4 50 111 49 60
4 108 58 41 65
4 5 104 50 111
4 43 29 74 70
4 38 70 43 90
4 95 93 40 15
5 40 93 74 70 38
4 57 16 90 11
5 90 16 64 101 88
4 57 16 64 93
4 79 101 88 52
4 55 58 77 29
4 55 58 92 118
5 58 92 113 9 77
4 9 113 87 111
4 1 36 92 16
4 92 36 103 94
4 6 104 47 85
4 0 38 73 62
4 3 106 38 0
4 105 100 98 44
5 35 86 116 84 14
4 86 112 76 35
4 96 112 86 116
4 26 14 84 23
4 61 116 105 10
4 53 8 10 105
4 76 73 69 54
4 14 18 75 35
4 60 115 86 116
4 14 84 32 18
5 64 109 2 95 102
4 2 95 52 23
4 95 102 98 52
4 70 99 64 109
4 71 73 118 48
5 65 7 12 118 73
4 73 65 9 71
4 7 12 50 31
4 27 112 117 29
4 72 24 29 117
4 38 64 67 7
4 24 4 1 14
4 24 4 51 105
4 89 56 115 64
5 107 39 28 67 89
4 39 111 53 28
4 17 12 89 67
4 111 22 107 39
4 65 36 115 67
4 65 14 59 67
4 69 83 47 22
4 67 28 51 95
4 82 95 67 89
4 39 117 88 107
4 102 83 49 41
4 65 41 102 89
4 5 90 44 111
4 2 24 5 109
4 118 102 95 47
4 109 64 107 5
4 49 101 64 28
4 101 49 85 88
4 18 16 90 24
4 4 18 17 29
4 29 17 56 83
4 39 101 92 65
4 2 7 65 28
4 105 2 7 12
4 73 112 83 118
4 62 86 83 27
4 85 53 27 83
4 26 65 107 72
4 0 64 39 26
4 39 64 86 69
4 44 82 59 24
4 9 113 19 6
4 58 92 45 81
4 9 6 32 77
4 34 43 87 71
4 57 40 63 104
4 71 34 77 41
4 32 13 70 34
4 16 113 78 119
4 32 34 79 95
4 13 11 114 110
4 110 13 38 76
4 100 78 66 82
4 91 58 114 96
4 40 37 25 73
4 111 31 114 96
4 36 54 21 68
4 54 36 75 110
4 3 84 45 108
4 0 42 81 30
4 0 30 33 76
4 99 46 116 103
4 76 62 91 71
4 62 108 37 76
4 106 12 116 21
4 100 93 40 61
4 93 100 96 74
4 70 21 46 38
4 13 1 75 57
4 75 1 99 78
4 81 94 88 84
4 114 57 15 55
4 113 66 98 71
4 57 109 74 114
4 34 48 91 33
4 92 75 33 91
4 37 63 22 6
4 31 74 27 17
4 15 102 73 63
4 31 5 39 74
4 4 97 93 2
4 97 4 72 99
4 59 90 66 119
4 49 53 6 20
4 53 30 115 49
4 108 92 107 14
4 28 26 25 36
4 30 3 26 28
4 86 56 12 46
4 2 10 100 51
4 54 26 2 51
4 99 86 89 38
4 74 112 62 8
4 7 89 46 106
4 112 74 111 69
4 18 1 97 77
4 107 101 94 45
4 18 77 95 59
4 41 9 20 101
4 15 118 22 104
4 18 9 41 67
4 77 79 117 4
4 79 102 67 77
4 16 5 87 66
4 10 7 109 93
4 90 82 98 87
4 109 93 112 39
4 8 9 49 27
4 8 108 56 27
4 63 25 69 118
4 28 115 119 0
4 54 103 115 28
4 14 72 88 45
5 2 27 102 89 7
5 101 49 4 5 107
4 101 107 89 102
4 7 5 107 89
5 15 11 29 79 102
5 13 4 97 64 16
4 15 102 64 16
4 64 97 79 102
5 92 36 20 22 45
5 59 24 4 28 67
4 67 92 45 59
4 22 45 59 24
5 27 91 73 65 8
5 29 31 5 87 48
4 87 5 65 73
4 31 5 65 8
5 46 38 0 10 82
5 27 83 69 39 28
4 69 83 82 46
4 39 38 46 69
5 1 19 45 119 75
5 43 4 77 95 47
4 45 119 95 47
4 77 95 119 75
5 53 18 65 36 49
5 104 50 48 68 63
4 18 65 63 104
4 50 104 18 53
5 55 58 41 71 48
5 43 70 109 57 11
4 58 41 109 57
4 71 41 109 70
5 2 51 112 64 0
5 66 42 11 52 98
4 112 64 66 98
4 52 98 112 51
5 1 0 59 84 72
5 36 69 116 56 62
4 59 56 116 84
4 72 84 116 69
5 25 76 62 61 46
5 27 74 111 44 55
4 25 46 44 111
4 74 111 25 76
5 81 57 37 19 80
5 48 60 77 9 20
4 57 81 60 77
4 37 9 77 57
5 0 30 100 86 35
5 19 88 52 32 13
4 86 100 52 88
4 32 52 100 30
5 71 78 61 80 21
5 10 11 23 74 93
4 78 71 74 93
4 21 71 74 23
5 61 12 50 96 91
5 36 35 14 6 54
4 12 50 6 14
4 96 50 6 54
5 3 42 61 100 114
5 68 103 34 6 19
4 103 34 114 100
4 6 3 114 34
5 17 29 49 41 67
5 16 104 43 20 113
4 41 67 16 113
4 17 67 16 104
5 1 28 115 86 107
5 2 95 82 90 13
4 115 95 82 86
4 107 90 82 86
5 40 10 55 98 73
5 29 117 39 109 2
4 40 73 39 109
4 73 98 117 39
5 111 22 118 91 49
5 28 26 14 89 62
4 118 22 14 89
4 26 14 22 111
5 112 62 10 105 96
5 35 42 84 21 99
4 84 105 96 21
4 99 112 96 21
5 25 68 91 33 9
5 114 31 106 80 55
4 106 31 9 25
4 33 9 31 114
5 68 116 81 108 35
5 1 18 32 85 20
4 108 81 32 18
4 85 32 81 116
5 34 43 80 94 79
5 13 42 119 93 110
4 119 93 79 94
4 34 79 93 110
4 119 35 36 115
4 119 35 14 59
5 59 32 51 115 119
4 108 63 73 62
5 62 108 3 53 33
5 73 71 111 106 63
4 3 106 63 108
4 40 57 13 38
5 13 38 99 117 23
5 79 114 57 40 78
4 40 78 99 38
4 15 104 19 66
5 19 66 78 97 70
4 15 58 78 66
5 58 15 104 31 77
5 91 92 108 17 60
4 113 92 91 71
4 37 113 92 108
5 37 31 34 71 113
4 68 92 16 19
4 18 6 19 16
5 77 18 16 92 115
4 42 38 73 61
4 73 112 100 61
5 74 26 38 73 112
4 46 72 13 42
4 42 119 86 46
5 46 86 112 54 72
4 25 35 0 26
4 25 35 86 69
5 25 26 53 96 69
4 91 56 45 68
4 14 45 68 25
5 30 18 14 45 56
4 16 66 99 1
5 1 110 51 103 99
5 94 66 16 57 95
4 66 99 103 94
5 8 37 63 61 58
4 63 87 98 61
5 79 74 70 87 98
4 70 87 63 37
4 11 90 89 10
4 89 10 93 64
5 90 72 39 64 89
4 14 0 2 24
4 0 64 107 14
5 24 14 107 69 85
4 65 62 10 7
4 62 65 39 112
5 65 39 111 24 7
4 41 27 56 92
5 12 56 27 53 24
4 56 12 63 92
5 9 41 92 63 5
4 20 101 64 1
4 67 18 1 64
5 101 64 67 95 83
5 43 90 66 101 117
4 7 90 43 31
4 90 7 40 66
5 7 40 41 74 31
4 55 79 101 118
5 7 17 55 118 63
4 113 63 118 101
5 79 101 113 109 77
4 90 5 20 88
5 97 20 88 94 115
4 15 90 88 94
5 67 15 90 5 109
4 20 48 118 107
4 107 20 9 65
5 107 65 67 56 118
4 118 12 10 102
5 12 106 26 8 10
5 39 41 102 118 87
4 106 87 118 12
4 49 36 86 83
4 86 36 65 89
5 105 59 89 86 83
4 38 72 4 109
5 4 51 83 88 72
5 109 38 66 102 93
4 72 88 66 38
5 36 103 60 30 75
4 36 25 37 75
4 75 37 3 30
5 21 25 37 3 50
4 40 42 81 58
5 70 106 42 40 76
4 40 76 33 58
5 81 50 34 33 58
4 42 35 75 57
4 32 57 42 84
5 34 97 75 57 32
4 98 80 19 99
4 81 100 98 80
5 93 100 98 99 76
4 68 71 76 35
4 71 96 116 68
5 71 96 114 8 76
4 21 19 1 54
4 21 116 45 19
5 100 33 54 21 116
4 30 62 61 81
4 81 61 46 84
5 30 81 84 6 110
5 37 35 78 33 110
4 37 106 46 35
5 96 98 46 106 23
4 37 106 23 110
4 76 0 119 78
5 3 23 54 76 0
5 81 52 103 78 119
4 78 103 54 76
4 78 35 45 94
5 104 32 60 94 45
4 33 78 94 60
5 75 113 68 94 58
4 113 70 21 68
4 70 113 75 110
5 21 70 110 114 52
4 108 61 80 104
4 104 80 21 6
5 6 9 75 108 104
5 44 87 38 7 11
4 7 11 114 8
4 7 8 76 38
4 0 93 97 1
4 93 95 59 0
5 97 93 95 52 117
4 28 65 108 30
5 30 28 54 85 105
5 25 22 12 108 65
4 30 108 12 105
4 91 116 105 27
4 46 116 91 73
5 3 14 46 116 105
4 99 64 28 54
5 82 119 64 99 88
4 85 54 99 88
4 106 42 82 44
5 102 112 117 44 82
4 106 70 117 44
4 22 47 94 68
4 47 17 58 94
5 17 47 22 5 18
4 43 80 63 5
4 43 5 9 34
5 15 47 48 101 92
4 101 48 34 97
4 97 101 92 75
4 102 55 80 66
4 55 102 93 114
4 9 8 62 36
4 36 69 111 9
5 111 9 8 17 50
4 84 13 4 85
4 13 16 45 84
5 84 85 103 86 45
4 88 107 36 103
5 47 88 107 16 59
4 103 60 47 88
4 12 55 48 22
4 25 22 48 71
5 87 113 40 15 80
4 87 80 52 117
4 117 87 113 97
4 19 113 109 13
4 109 13 32 77
4 15 80 50 17
4 15 17 8 40
5 115 56 47 85 49
4 9 49 115 75
4 75 115 56 108
4 26 76 93 2
5 26 2 105 44 72
4 76 26 72 99
4 62 100 51 28
4 62 100 82 89
5 84 23 51 100 82
4 0 89 12 3
5 73 69 44 12 89
4 23 3 12 44
4 6 53 28 1
4 1 6 22 107
5 6 53 60 116 22
4 11 43 88 82
4 11 82 119 57
4 61 40 41 91
4 96 74 41 91
4 11 44 83 95
4 101 87 44 83
4 85 49 39 72
4 85 47 90 72
4 49 69 44 29
4 69 49 41 73
4 27 17 18 28
4 18 28 39 5
4 2 59 47 29
4 2 59 16 109
4 67 27 55 15
4 27 67 109 74
4 39 4 43 87
4 77 41 39 4
5 29 83 118 90 24
4 29 77 115 83
4 115 83 118 92
4 111 24 47 48
4 24 7 15 47
4 24 29 74 26
4 24 90 38 26
4 105 56 67 2
4 105 44 118 56
4 28 112 117 4
4 102 67 28 112
4 34 20 36 33
4 20 34 50 22
4 79 48 68 78
4 50 48 79 114
4 43 52 103 20
4 43 52 81 104
4 70 19 84 23
4 23 70 97 51
4 3 10 55 50
4 21 98 55 50
4 33 103 86 62
4 85 103 33 53
4 3 110 1 14
4 3 105 51 110
4 33 100 10 8
4 8 26 54 33
4 0 110 114 10
4 52 82 10 114
4 6 20 97 110
4 30 115 97 110
4 42 37 31 11
4 11 31 34 52
4 60 116 61 58
4 8 58 60 53
4 11 106 111 29
4 111 71 79 29
4 117 51 32 43
4 117 51 115 101
4 85 60 91 69
4 85 24 17 60
4 54 53 27 112
4 72 54 53 24
4 13 23 105 59
4 105 23 117 83
4 27 96 23 2
4 98 102 27 96
4 32 60 49 4
4 5 104 32 4
4 77 58 91 49
4 77 31 111 49
4 29 95 94 48
4 31 57 95 29
4 2 74 70 13
4 79 95 2 74
4 53 17 55 96
4 53 17 7 26
4 51 30 18 4
4 51 83 56 30
5 2 26 53 18 4
5 75 97 93 76 33
4 53 33 75 18
5 24 59 13 11 7
4 30 53 24 59
5 110 114 8 53 30
5 4 72 54 6 20
5 109 38 76 37 113
4 37 76 54 6
5 27 53 60 77 29
4 77 97 103 60
5 117 112 54 103 97
5 0 76 8 65 28
5 119 78 58 92 115
4 65 8 58 92
5 19 84 72 90 43
5 7 26 3 37 31
4 3 26 72 84
5 49 85 103 34 48
5 39 72 99 70 87
4 34 103 99 70
5 17 55 11 95 47
4 95 51 85 47
5 51 23 96 53 85
5 0 89 7 40 42
4 7 89 56 17
5 30 56 17 58 81
5 76 99 1 36 25
5 16 66 40 63 92
4 25 63 40 76
5 58 33 62 27 41
5 101 94 103 86 83
4 41 101 94 58
5 48 47 88 52 80
4 72 88 52 23
5 111 24 72 23 106
5 35 46 38 66 19
5 108 12 7 15 104
4 38 7 12 46
5 10 102 15 58 61
4 83 102 15 47
5 47 60 116 105 83
5 71 91 36 103 78
4 78 71 87 66
5 88 66 87 118 107
5 66 98 61 68 94
4 90 44 98 66
5 12 44 90 47 22
5 43 32 85 24 29
4 32 85 54 110
5 70 74 26 54 110
5 14 1 13 38 26
5 57 75 108 8 40
4 14 108 8 26
5 17 67 2 10 8
5 115 60 33 100 51
4 67 17 60 115
5 28 54 33 9 49
5 113 101 64 99 78
4 9 33 78 113
5 62 73 40 78 35
5 56 45 94 15 118
4 15 118 73 40
5 91 60 94 79 55
4 117 88 94 79
5 69 44 117 88 85
5 68 21 99 88 20
5 38 90 5 63 106
4 38 106 21 99
5 80 15 90 82 42
4 24 105 82 90
5 24 17 50 3 105
5 23 3 6 32 13
4 8 3 23 74
5 9 77 109 74 8
5 39 28 1 97 109
4 109 31 34 97
5 53 6 34 31 111
4 2 29 49 28
5 29 2 23 114 31
4 13 4 28 0
5 4 13 70 31 5
5 27 28 51 93 74
4 57 93 51 32
5 57 31 17 18 32
5 4 51 110 34 77
5 71 41 39 112 76
4 110 76 112 51
5 28 30 75 77 67
4 31 77 67 7
5 113 75 36 65 41
4 26 65 41 74
5 49 41 79 97 115
4 114 79 41 8
5 9 18 1 110 37
5 40 41 67 64 93
4 37 110 93 40
4 2 27 62 0
5 2 109 57 110 0
5 62 112 64 115 36
4 77 109 64 115
4 18 24 111 9
5 71 9 20 97 70
4 9 53 96 71
4 77 34 50 17
4 104 6 110 57
5 14 6 104 5 24
5 2 95 32 30 105
4 33 96 105 30
5 33 34 79 74 96
4 4 1 36 49
5 4 117 74 111 49
5 10 93 119 30 62
4 16 119 30 18
5 7 65 18 16 109
4 1 28 62 35
5 79 102 112 100 78
4 75 30 100 78
5 0 35 75 16 64
4 9 5 16 75
5 5 39 26 25 9
5 18 108 3 0 59
4 58 114 3 108
5 58 77 95 93 114
4 27 91 36 28
5 60 50 114 52 32
4 74 114 52 117
4 43 4 2 11
5 11 43 104 50 106
5 117 23 21 34 43
4 23 117 39 26
5 62 89 67 92 108
4 38 109 67 89
5 95 102 27 56 115
4 40 57 95 102
5 91 92 101 102 73
4 93 102 73 76
5 106 70 19 6 25
4 106 7 109 70
5 39 69 36 20 101
4 74 39 101 79
4 11 29 27 10
5 10 3 81 57 11
4 2 10 42 13
5 37 42 13 16 104
5 91 49 83 112 96
4 93 112 83 95
5 73 65 107 64 38
4 38 64 97 70
4 20 48 29 4
5 50 96 44 29 48
5 84 105 44 11 52
4 105 44 111 53
5 50 21 84 85 22
4 31 50 21 70
5 35 14 65 63 37
5 15 57 119 59 67
4 63 37 57 15
4 91 62 10 55
5 35 86 107 92 68
4 41 39 107 92
4 0 42 19 1
5 1 107 5 113 19
4 115 97 99 86
5 69 86 99 98 73
5 27 105 100 114 55
4 119 100 105 59
4 5 90 59 18
5 51 83 29 79 52
4 81 52 79 58
5 68 113 87 73 25
4 112 54 25 73
4 0 10 61 35
5 86 119 66 102 89
4 66 119 75 113
5 100 61 91 56 86
4 67 56 86 64
4 54 51 83 69
5 21 71 111 69 54
4 13 43 20 1
5 20 43 87 111 22
5 59 84 81 104 47
4 23 84 81 114
4 49 27 55 48
5 14 84 42 106 12
4 12 106 31 17
4 111 71 113 5
5 48 101 117 98 71
4 33 71 98 100
4 72 14 65 39
4 32 104 15 95
5 61 108 45 119 42
4 65 108 45 107
4 61 68 36 62
4 92 94 81 108
5 100 81 94 95 82
4 60 34 21 116
4 25 6 85 69
4 32 6 22 47
4 115 56 116 103
5 98 52 103 116 96
5 89 14 45 16 90
4 14 45 81 3
4 19 35 36 20
4 20 68 91 49
5 46 25 22 107 72
4 25 37 104 22
5 59 56 12 10 82
4 60 56 12 50
5 118 83 82 98 55
4 78 119 82 98
4 16 59 82 66
5 89 46 61 63 118
4 64 99 46 89
5 116 68 48 118 69
4 112 69 118 102
4 113 87 90 16
4 42 61 55 11
4 98 87 111 96
4 29 55 80 43
5 80 81 116 12 55
5 44 87 80 21 46
4 24 5 87 44
4 44 82 100 96
4 117 101 107 72
4 13 19 80 11
5 19 80 63 22 45
4 101 92 45 88
5 88 45 116 46 82
4 12 89 86 116
4 42 80 68 35
4 48 91 61 80
4 69 73 63 22
4 63 118 47 104
4 86 103 21 46
4 52 94 45 84
4 14 84 88 107
4 85 83 118 22
4 43 48 68 19
4 116 50 106 46
5 36 33 71 41 49
5 110 1 4 109 70
5 37 3 0 13 57
5 4 28 53 9 77
5 36 35 76 73 65
5 19 20 5 87 70
5 48 71 21 103 20
5 23 51 4 29 74
5 79 102 27 91 58
5 28 64 97 75 36
5 26 0 1 18 65
5 19 42 106 63 104
5 43 48 111 44 117
5 25 68 19 99 46
5 2 11 114 3 105
5 6 34 43 4 85
5 27 17 77 95 2
5 62 108 75 119 0
5 62 89 102 40 61
5 68 36 107 101 113
5 51 115 49 27 112
5 94 48 55 98 52
5 44 12 50 80 11
5 19 6 14 72 13
5 45 35 61 63 92
5 59 0 10 7 67
5 30 56 27 10 100
5 32 52 11 29 47
5 46 61 80 66 82
5 91 69 83 101 48
5 61 55 118 56 116
5 84 42 11 90 59
5 20 9 25 54 1
5 31 43 13 23 106
5 16 1 35 37 113
5 41 67 28 62 8
5 28 2 93 110 30
5 34 60 49 29 79
5 91 73 98 78 68
5 20 49 39 117 97
5 115 92 91 62 86
5 55 15 95 82 10
5 80 21 84 88 43
5 105 83 29 55 96
5 42 38 89 14 35
5 80 87 118 22 68
5 10 42 81 108 12
5 13 32 18 24 2
5 28 54 76 74 39
5 37 31 5 18 6
5 26 72 4 5 111
5 71 113 97 99 76
5 53 26 23 110 6
5 25 37 70 38 26
5 2 109 31 8 26
5 51 97 34 33 54
5 112 69 36 103 99
5 70 74 111 9 34
5 74 93 97 77 41
5 112 73 41 101 64
5 117 112 96 71 79
5 62 112 93 78 33
5 9 65 39 109 113
5 110 75 9 8 76
5 79 101 115 103 78
5 69 39 87 71 25
5 7 38 13 16 5
5 49 111 96 54 85
5 110 32 77 31 114
5 21 70 117 72 54
5 64 109 40 76 0
5 30 115 77 58 33
5 96 100 103 60 91
5 38 39 107 1 99
5 40 78 75 92 41
5 114 74 27 53 33
5 109 57 75 18 67
5 29 24 53 50 31
5 106 7 24 14 3
5 21 106 111 22 6
5 119 115 67 102 93
5 114 79 95 51 100
5 86 83 102 98 100
5 5 107 14 25 63
5 101 88 99 98 87
5 17 8 3 30 18
5 40 7 65 108 37
5 103 85 83 117 52
5 66 78 35 86 64
5 24 85 84 23 44
5 3 50 104 32 84
5 43 90 24 22 104
5 10 93 57 58 8
5 89 65 92 16 64
5 92 118 102 66 94
5 66 38 73 63 113
5 116 86 88 94 68
5 105 51 32 60 53
5 50 96 23 52 34
5 46 73 118 107 86
5 61 58 94 119 100
5 95 94 60 56 83
5 72 69 22 20 88
5 87 106 46 72 90
5 17 104 57 11 7
5 108 14 59 16 104
5 21 116 69 44 98
5 67 56 108 58 15
5 60 17 55 114 81
5 48 47 85 116 50
5 16 119 42 40 15
5 19 66 90 107 45
5 59 30 81 57 95
5 105 116 81 52 82
5 56 45 119 82 89
5 118 47 88 82 44
5 12 17 47 59 105
5 46 12 22 45 84
5 15 90 89 12 63
5 80 15 47 45 81

# Cells
7 0 1 2 3 4 5 6
7 7 8 9 10 11 12 13
7 14 15 16 17 18 19 20
7 21 22 23 24 25 26 27
7 28 29 30 31 32 33 34
7 35 36 37 38 39 40 41
7 42 43 44 45 46 47 48
7 49 50 51 52 53 54 55
7 56 57 58 59 60 61 62
7 63 64 65 66 67 68 69
7 70 71 72 73 74 75 76
7 77 78 79 80 81 82 83
7 84 85 86 87 88 89 90
7 91 92 93 94 95 96 97
7 98 99 100 101 102 103 104
7 105 106 107 108 109 110 111
7 112 113 114 115 116 117 118
7 119 120 121 122 123 124 125
7 126 127 128 129 130 131 132
7 133 134 135 136 137 138 139
7 140 141 142 143 144 145 146
7 147 148 149 150 151 152 153
7 154 155 156 157 158 159 160
7 161 162 163 164 165 166 167
7 53 168 169 170 171 172 173
7 174 175 176 177 178 179 180
7 18 181 182 183 184 185 186
7 67 187 188 189 190 191 192
7 193 194 195 196 197 198 199
7 130 200 201 202 203 204 205
7 206 207 208 209 210 211 212
7 195 213 214 215 216 217 218
7 219 220 221 222 223 224 225
7 10 226 227 228 229 230 231
7 134 232 233 234 235 236 237
7 238 239 240 241 242 243 244
7 245 246 247 248 249 250 251
7 252 253 254 255 256 257 258
7 190 259 260 261 262 263 264
7 265 266 267 268 269 270 271
7 95 179 272 273 274 275 276
7 158 225 277 278 279 280 281
7 282 283 284 285 286 287 288
7 101 212 289 290 291 292 293
7 59 294 295 296 297 298 299
7 172 300 301 302 303 304 305
7 163 242 306 307 308 309 310
7 46 311 312 313 314 315 316
7 247 317 318 319 320 321 322
7 122 323 324 325 326 327 328
7 25 329 330 331 332 333 334
7 266 335 336 337 338 339 340
7 314 341 342 343 344 345 346
7 282 347 348 349 350 351 352
7 115 353 354 355 356 357 358
7 299 359 360 361 362 363 364
7 2 365 366 367 368 369 370
7 29 371 372 373 374 375 376
7 254 377 378 379 380 381 382
7 3 383 384 385 386 387 388
7 37 389 390 391 392 393 394
7 150 270 395 396 397 398 399
7 400 401 402 403 404 405 406
7 38 407 408 409 410 411 412
7 22 413 414 415 416 417 418
7 231 419 420 421 422 423 424
7 144 248 425 426 427 428 429
7 32 430 431 432 433 434 435
7 219 436 437 438 439 440 441
7 402 442 443 444 445 446 447
7 184 448 449 450 451 452 453
7 238 454 455 456 457 458 459
7 73 446 460 461 462 463 464
7 121 465 466 467 468 469 470
7 411 471 472 473 474 475 476
7 72 405 477 478 479 480 481
7 88 257 482 483 484 485 486
7 207 487 488 489 490 491 492
7 114 493 494 495 496 497 498
7 79 286 499 500 501 502 503
7 205 504 505 506 507 508 509
7 393 472 510 511 512 513 514
7 175 515 516 517 518 519 520
7 235 521 522 523 524 525 526
7 357 527 528 529 530 531 532
7 149 339 533 534 535 536 537
7 85 379 538 539 540 541 542
7 326 543 544 545 546 547 548
7 360 549 550 551 552 553 554
7 376 555 556 557 558 559 560
7 141 319 561 562 563 564 565
7 341 566 567 568 569 570 571
7 109 217 572 573 574 575 576
7 80 351 577 578 579 580 581
7 332 582 583 584 585 586 587
7 106 196 588 589 590 591 592
7 496 527 593 594 595 596 597
7 416 582 598 599 600 601 602
7 300 603 604 605 606 607 608
7 468 544 609 610 611 612 613
7 15 614 615 616 617 618 619
7 127 620 621 622 623 624 625
7 435 557 626 627 628 629 630
7 9 631 632 633 634 635 636
7 43 571 637 638 639 640 641
7 260 642 643 644 645 646 647
7 137 648 649 650 651 652 653
7 58 551 654 655 656 657 658
7 64 644 659 660 661 662 663
7 448 617 664 665 666 667 668
7 92 517 669 670 671 672 673
7 50 606 674 675 676 677 678
7 387 679 680 681 682 683 684
7 155 438 685 686 687 688 689
7 419 635 690 691 692 693 694
7 368 679 695 696 697 698 699
7 504 623 700 701 702 703 704
7 100 491 705 706 707 708 709
7 164 456 710 711 712 713 714
7 523 651 715 716 717 718 719
7 0 720 721 722 723 724 725
7 7 726 727 728 729 730 731
7 14 732 733 734 735 736 737
7 21 738 739 740 741 742 743
7 28 744 745 746 747 748 749
7 35 750 751 752 753 754 755
7 42 756 757 758 759 760 761
7 49 762 763 764 765 766 767
7 56 768 769 770 771 772 773
7 63 774 775 776 777 778 779
7 70 780 781 782 783 784 785
7 77 786 787 788 789 790 791
7 84 792 793 794 795 796 797
7 91 798 799 800 801 802 803
7 98 804 805 806 807 808 809
7 105 810 811 812 813 814 815
7 112 816 817 818 819 820 821
7 119 822 823 824 825 826 827
7 126 828 829 830 831 832 833
7 133 834 835 836 837 838 839
7 140 840 841 842 843 844 845
7 147 846 847 848 849 850 851
7 154 852 853 854 855 856 857
7 161 858 859 860 861 862 863
7 173 864 865 866 867 868 869
7 180 825 870 871 872 873 874
7 186 875 876 877 878 879 880
7 192 881 882 883 884 885 886
7 199 746 887 888 889 890 891
7 203 892 893 894 895 896 897
7 210 819 898 899 900 901 902
7 216 740 903 904 905 906 907
7 222 763 908 909 910 911 912
7 229 876 913 914 915 916 917
7 237 918 919 920 921 922 923
7 243 775 924 925 926 927 928
7 250 758 929 930 931 932 933
7 258 849 886 934 935 936 937
7 264 789 923 938 939 940 941
7 271 771 942 943 944 945 946
7 276 928 947 948 949 950 951
7 281 952 953 954 955 956 957
7 285 842 868 958 959 960 961
7 292 912 962 963 964 965 966
7 297 967 968 969 970 971 972
7 303 794 897 973 974 975 976
7 309 977 978 979 980 981 982
7 315 983 984 985 986 987 988
7 321 723 989 990 991 992 993
7 328 978 994 995 996 997 998
7 334 946 999 1000 1001 1002 1003
7 337 720 1004 1005 1006 1007 1008
7 345 726 1009 1010 1011 1012 1013
7 350 830 1014 1015 1016 1017 1018
7 358 953 1019 1020 1021 1022 1023
7 362 734 1024 1025 1026 1027 1028
7 370 968 1029 1030 1031 1032 1033
7 375 932 1034 1035 1036 1037 1038
7 381 835 1039 1040 1041 1042 1043
7 386 985 1044 1045 1046 1047 1048
7 394 864 1049 1050 1051 1052 1053
7 399 891 1054 1055 1056 1057 1058
7 406 729 1059 1060 1061 1062 1063
7 410 881 1064 1065 1066 1067 1068
7 417 1069 1070 1071 1072 1073 1074
7 423 854 972 1075 1076 1077 1078
7 429 906 1079 1080 1081 1082 1083
7 433 1071 1084 1085 1086 1087 1088
7 439 780 1089 1090 1091 1092 1093
7 445 733 1094 1095 1096 1097 1098
7 453 858 986 1099 1100 1101 1102
7 458 783 1103 1104 1105 1106 1107
7 463 901 1108 1109 1110 1111 1112
7 469 919 1113 1114 1115 1116 1117
7 475 804 980 1118 1119 1120 1121
7 481 874 1122 1123 1124 1125 1126
7 486 1107 1127 1128 1129 1130 1131
7 492 829 1132 1133 1134 1135 1136
7 498 893 1137 1138 1139 1140 1141
7 503 1092 1127 1142 1143 1144 1145
7 509 753 1088 1146 1147 1148 1149
7 512 800 957 1150 1151 1152 1153
7 519 836 1154 1155 1156 1157 1158
7 525 750 1073 1159 1160 1161 1162
7 531 811 915 1163 1164 1165 1166
7 536 1012 1167 1168 1169 1170 1171
7 541 1034 1172 1173 1174 1175 1176
7 548 812 879 1177 1178 1179 1180
7 554 807 997 1181 1182 1183 1184
7 560 853 1032 1185 1186 1187 1188
7 565 1028 1189 1190 1191 1192 1193
7 568 799 1021 1194 1195 1196 1197
7 575 1017 1198 1199 1200 1201 1202
7 580 1000 1203 1204 1205 1206 1207
7 587 861 1046 1208 1209 1210 1211
7 592 1042 1212 1213 1214 1215 1216
7 595 768 1205 1217 1218 1219 1220
7 600 822 1221 1222 1223 1224 1225
7 607 745 1226 1227 1228 1229 1230
7 611 757 1174 1231 1232 1233 1234
7 618 964 1235 1236 1237 1238 1239
7 625 1097 1189 1240 1241 1242 1243
7 629 816 1244 1245 1246 1247 1248
7 636 947 1249 1250 1251 1252 1253
7 641 1135 1199 1254 1255 1256 1257
7 646 739 1258 1259 1260 1261 1262
7 653 1063 1169 1263 1264 1265 1266
7 658 1157 1212 1267 1268 1269 1270
7 662 1108 1247 1271 1272 1273 1274
7 666 846 1066 1275 1276 1277 1278
7 672 1007 1279 1280 1281 1282 1283
7 677 1122 1224 1284 1285 1286 1287
7 682 786 1115 1288 1289 1290 1291
7 689 1079 1261 1292 1293 1294 1295
7 692 841 1052 1296 1297 1298 1299
7 699 793 1139 1300 1301 1302 1303
7 704 776 1252 1304 1305 1306 1307
7 709 992 1279 1308 1309 1310 1311
7 714 1054 1230 1312 1313 1314 1315
7 719 764 1238 1316 1317 1318 1319
7 51 759 1320 1321 1322 1323 1324
7 81 735 1325 1326 1327 1328 1329
7 24 806 1330 1331 1332 1333 1334
7 94 788 1335 1336 1337 1338 1339
7 8 738 1340 1341 1342 1343 1344
7 45 777 1345 1346 1347 1348 1349
7 74 813 1350 1351 1352 1353 1354
7 108 751 1355 1356 1357 1358 1359
7 36 721 1360 1361 1362 1363 1364
7 1 782 1365 1366 1367 1368 1369
7 57 762 1370 1371 1372 1373 1374
7 102 795 1375 1376 1377 1378 1379
7 16 744 1380 1381 1382 1383 1384
7 86 727 1385 1386 1387 1388 1389
7 30 798 1390 1391 1392 1393 1394
7 66 769 1395 1396 1397 1398 1399
7 151 855 1400 1401 1402 1403 1404
7 116 834 1405 1406 1407 1408 1409
7 162 817 1410 1411 1412 1413 1414
7 129 847 1415 1416 1417 1418 1419
7 120 828 1420 1421 1422 1423 1424
7 142 860 1425 1426 1427 1428 1429
7 136 843 1430 1431 1432 1433 1434
7 156 824 1435 1436 1437 1438 1439
7 547 1147 1440 1441 1442 1443 1444
7 497 1264 1396 1445 1446 1447 1448
7 643 1184 1421 1449 1450 1451 1452
7 318 1106 1387 1453 1454 1455 1456
7 634 1001 1432 1457 1458 1459 1460
7 452 1246 1461 1462 1463 1464 1465
7 397 956 1466 1467 1468 1469 1470
7 273 1206 1471 1472 1473 1474 1475
7 589 1053 1476 1477 1478 1479 1480
7 262 1025 1481 1482 1483 1484 1485
7 487 937 1397 1486 1487 1488 1489
7 369 1124 1376 1490 1491 1492 1493
7 478 1202 1494 1495 1496 1497 1498
7 563 1315 1499 1500 1501 1502 1503
7 706 1131 1504 1505 1506 1507 1508
7 392 1045 1392 1509 1510 1511 1512
7 698 1061 1513 1514 1515 1516 1517
7 378 1299 1362 1518 1519 1520 1521
7 327 892 1352 1522 1523 1524 1525
7 193 1153 1437 1526 1527 1528 1529
7 524 990 1530 1531 1532 1533 1534
7 185 1084 1426 1535 1536 1537 1538
7 558 872 1539 1540 1541 1542 1543
7 436 1180 1382 1544 1545 1546 1547
7 678 1255 1381 1548 1549 1550 1551
7 627 1158 1371 1552 1553 1554 1555
7 514 1289 1556 1557 1558 1559 1560
7 169 987 1561 1562 1563 1564 1565
7 500 878 1557 1566 1567 1568 1569
7 308 1140 1570 1571 1572 1573 1574
7 255 1077 1575 1576 1577 1578 1579
7 418 1309 1436 1580 1581 1582 1583
7 716 933 1391 1584 1585 1586 1587
7 400 907 1427 1588 1589 1590 1591
7 624 1056 1346 1592 1593 1594 1595
7 223 1232 1596 1597 1598 1599 1600
7 610 1307 1341 1601 1602 1603 1604
7 694 1210 1570 1605 1606 1607 1608
7 581 1236 1422 1532 1609 1610 1611
7 249 925 1583 1612 1613 1614 1615
7 566 941 1431 1497 1616 1617 1618
7 236 1190 1357 1619 1620 1621 1622
7 174 1018 1356 1623 1624 1625 1626
7 346 1260 1627 1628 1629 1630 1631
7 657 866 1332 1632 1633 1634 1635
7 330 965 1628 1636 1637 1638 1639
7 687 998 1576 1640 1641 1642 1643
7 295 1287 1590 1644 1645 1646 1647
7 265 911 1377 1502 1648 1649 1650
7 209 1041 1550 1651 1652 1653 1654
7 374 948 1401 1655 1656 1657 1658
7 597 1317 1561 1659 1660 1661 1662
7 361 1229 1412 1663 1664 1665 1666
7 713 1020 1367 1629 1667 1668 1669
7 665 1188 1366 1638 1670 1671 1672
7 552 974 1622 1673 1674 1675 1676
7 316 1272 1386 1542 1677 1678 1679
7 540 1253 1625 1673 1680 1681 1682
7 202 1170 1587 1683 1684 1685 1686
7 638 885 1597 1687 1688 1689 1690
7 191 967 1337 1607 1691 1692 1693
7 283 1102 1347 1506 1694 1695 1696
7 444 889 1447 1697 1698 1699 1700
7 660 1270 1528 1612 1701 1702 1703
7 432 1283 1488 1697 1704 1705 1706
7 650 1083 1546 1651 1707 1708 1709
7 601 1134 1511 1683 1710 1711 1712
7 485 913 1417 1660 1713 1714 1715
7 240 1220 1327 1641 1716 1717 1718
7 473 1303 1406 1688 1719 1720 1721
7 280 1113 1372 1516 1722 1723 1724
7 702 943 1538 1644 1725 1726 1727
7 408 1031 1441 1665 1728 1729 1730
7 355 921 1462 1603 1731 1732 1733
7 228 1072 1514 1554 1734 1735 1736
7 464 1214 1326 1577 1737 1738 1739
7 215 1119 1505 1595 1740 1741 1742
7 583 902 1351 1475 1743 1744 1745
7 537 1293 1361 1484 1746 1747 1748
7 681 1098 1416 1565 1749 1750 1751
7 459 1164 1476 1658 1752 1753 1754
7 673 1143 1407 1598 1755 1756 1757
7 352 1277 1467 1634 1758 1759 1760
7 506 1008 1336 1573 1761 1762 1763
7 338 1090 1459 1495 1764 1765 1766
7 428 977 1322 1558 1767 1768 1769
7 301 1013 1402 1479 1770 1771 1772
7 529 1162 1331 1468 1773 1774 1775
7 293 1172 1411 1443 1776 1777 1778
7 518 960 1493 1500 1779 1780 1781
7 467 1243 1455 1539 1782 1783 1784
7 616 1038 1482 1520 1785 1786 1787
7 384 1111 1451 1531 1788 1789 1790
7 608 1196 1471 1524 1791 1792 1793
7 421 1225 1321 1568 1794 1795 1796
7 576 1064 1342 1463 1797 1798 1799
7 4 781 1320 1800 1801 1802 1803
7 11 741 1325 1804 1805 1806 1807
7 17 747 1330 1808 1809 1810 1811
7 23 805 1335 1812 1813 1814 1815
7 31 801 1340 1816 1817 1818 1819
7 39 722 1345 1820 1821 1822 1823
7 44 774 1350 1824 1825 1826 1827
7 52 756 1355 1828 1829 1830 1831
7 60 765 1360 1832 1833 1834 1835
7 65 770 1365 1836 1837 1838 1839
7 71 810 1370 1840 1841 1842 1843
7 78 732 1375 1844 1845 1846 1847
7 87 728 1380 1848 1849 1850 1851
7 93 787 1385 1852 1853 1854 1855
7 99 792 1390 1856 1857 1858 1859
7 107 752 1395 1860 1861 1862 1863
7 113 837 1400 1864 1865 1866 1867
7 123 831 1405 1868 1869 1870 1871
7 128 848 1410 1872 1873 1874 1875
7 135 840 1415 1876 1877 1878 1879
7 143 859 1420 1880 1881 1882 1883
7 148 852 1425 1884 1885 1886 1887
7 157 823 1430 1888 1889 1890 1891
7 165 818 1435 1892 1893 1894 1895
7 171 983 1444 1857 1896 1897 1898
7 177 1016 1448 1899 1900 1901 1902
7 182 1086 1452 1903 1904 1905 1906
7 188 971 1456 1907 1908 1909 1910
7 198 1151 1460 1911 1912 1913 1914
7 204 1167 1465 1861 1915 1916 1917
7 208 1043 1470 1860 1918 1919 1920
7 214 1121 1474 1893 1921 1922 1923
7 221 1234 1478 1848 1924 1925 1926
7 230 1070 1485 1884 1927 1928 1929
7 234 1193 1489 1930 1931 1932 1933
7 244 1218 1492 1934 1935 1936 1937
7 245 927 1498 1853 1938 1939 1940
7 252 1078 1503 1832 1941 1942 1943
7 259 1027 1508 1880 1944 1945 1946
7 269 909 1512 1947 1948 1949 1950
7 275 1203 1517 1889 1951 1952 1953
7 279 1116 1521 1954 1955 1956 1957
7 288 1101 1525 1958 1959 1960 1961
7 291 1176 1529 1962 1963 1964 1965
7 298 1284 1533 1845 1966 1967 1968
7 305 1010 1537 1969 1970 1971 1972
7 310 1138 1543 1824 1973 1974 1975
7 312 1273 1547 1976 1977 1978 1979
7 320 1104 1551 1980 1981 1982 1983
7 325 895 1555 1984 1985 1986 1987
7 333 962 1560 1881 1988 1989 1990
7 336 1093 1563 1844 1991 1992 1993
7 343 1262 1567 1888 1994 1995 1996
7 348 1278 1572 1820 1997 1998 1999
7 356 920 1579 1840 2000 2001 2002
7 363 1227 1582 2003 2004 2005 2006
7 366 1125 1586 2007 2008 2009 2010
7 372 951 1591 2003 2011 2012 2013
7 380 1298 1594 2014 2015 2016 2017
7 388 1109 1599 1852 2018 2019 2020
7 390 1047 1604 1996 2021 2022 2023
7 398 952 1608 1836 2024 2025 2026
7 403 904 1611 2027 2028 2029 2030
7 412 1030 1614 1812 2031 2032 2033
7 415 1311 1618 2028 2034 2035 2036
7 424 1223 1621 1985 2037 2038 2039
7 427 982 1626 2014 2040 2041 2042
7 434 1280 1630 1892 1950 2043 2044
7 441 1178 1635 1990 2045 2046 2047
7 443 890 1639 1885 1978 2048 2049
7 449 1248 1642 1837 2050 2051 2052
7 454 1166 1646 1805 2053 2054 2055
7 461 1216 1650 1980 2056 2057 2058
7 470 1241 1653 1828 2029 2059 2060
7 476 1302 1657 2026 2061 2062 2063
7 480 1198 1662 1849 1961 2064 2065
7 483 916 1666 2052 2061 2066 2067
7 489 936 1669 2020 2068 2069 2070
7 495 1265 1672 1993 2071 2072 2073
7 502 877 1676 1877 2074 2075 2076
7 508 1005 1679 2008 2077 2078 2079
7 510 1291 1681 1868 2080 2081 2082
7 516 961 1686 1829 2035 2083 2084
7 521 993 1690 1856 1957 2085 2086
7 532 1160 1693 1953 2021 2087 2088
7 535 1294 1696 1940 2068 2089 2090
7 542 1250 1699 1864 2078 2091 2092
7 543 1149 1703 1817 2042 2093 2094
7 549 976 1706 1873 2057 2095 2096
7 555 873 1709 1841 1965 2097 2098
7 564 1312 1711 1821 1971 2099 2100
7 570 940 1715 1917 2101 2102 2103
7 573 1067 1718 1946 2045 2104 2105
7 579 1237 1721 1920 2101 2106 2107
7 586 900 1724 1968 2072 2108 2109
7 591 1049 1727 1809 2038 2110 2111
7 593 1319 1729 1808 1987 2112 2113
7 599 1136 1732 1825 1905 2114 2115
7 604 1197 1735 1865 2009 2116 2117
7 612 1305 1739 1908 2076 2118 2119
7 619 1036 1741 1872 1983 2120 2121
7 622 1058 1745 1900 2055 2122 2123
7 628 1156 1748 1931 2033 2124 2125
7 632 1002 1751 1970 1999 2126 2127
7 640 883 1754 1816 2017 2128 2129
7 645 1183 1757 1963 2002 2130 2131
7 652 1080 1759 1833 1914 2132 2133
7 655 869 1763 1934 2082 2134 2135
7 663 1267 1765 1804 1901 2136 2137
7 667 1187 1769 1898 1954 2138 2139
7 671 1145 1772 1911 1943 2140 2141
7 675 1256 1775 1923 1948 2142 2143
7 683 1096 1778 1904 1975 2144 2145
7 688 995 1780 1800 2005 2146 2147
7 690 1211 1783 1801 2012 2148 2149
7 695 1062 1786 1876 1910 2150 2151
7 700 945 1790 1813 1932 2152 2153
7 708 1128 1792 1869 1936 2154 2155
7 712 1022 1796 1926 1959 2156 2157
7 717 930 1799 1929 1977 2158 2159
7 239 896 1767 2071 2160 2161 2162
7 194 867 1737 2022 2163 2164 2165
7 302 1048 1632 1976 2166 2167 2168
7 359 1126 1691 2142 2169 2170 2171
7 471 970 1797 2007 2172 2173 2174
7 267 1023 1592 1955 2175 2176 2177
7 505 1266 1522 2089 2178 2179 2180
7 317 1057 1619 2156 2181 2182 2183
7 437 981 1746 1984 2184 2185 2186
7 528 1117 1667 1930 2187 2188 2189
7 609 1192 1722 2122 2190 2191 2192
7 401 1257 1490 2104 2193 2194 2195
7 567 1068 1548 1907 2196 2197 2198
7 642 1215 1677 2134 2199 2200 2201
7 680 1274 1509 2056 2202 2203 2204
7 715 1295 1445 2040 2205 2206 2207
7 176 1003 1655 2106 2208 2209 2210
7 284 917 1755 1903 2211 2212 2213
7 377 950 1776 2126 2214 2215 2216
7 420 1087 1713 2034 2217 2218 2219
7 664 1175 1609 2011 2220 2221 2222
7 626 1310 1535 2140 2223 2224 2225
7 584 1239 1457 1962 2226 2227 2228
7 488 1144 1580 2066 2229 2230 2231
7 6 871 1730 2065 2232 2233 2234
7 218 954 1698 2080 2235 2236 2237
7 200 934 1424 1887 2217 2238 2239
7 226 903 1389 1815 2172 2240 2241
7 224 875 1764 2093 2242 2243 2244
7 139 1026 1733 2100 2245 2246 2247
7 233 724 1774 1982 2176 2248 2249
7 290 838 1744 2016 2210 2250 2251
7 313 742 1771 2131 2165 2252 2253
7 34 926 1787 1952 2254 2255 2256
7 294 908 1398 1830 2190 2257 2258
7 349 984 1779 2050 2234 2259 2260
7 189 737 1617 2006 2195 2254 2261
7 278 761 1649 2119 2183 2262 2263
7 183 821 1695 2125 2231 2245 2264
7 211 882 1710 1941 2258 2265 2266
7 26 991 1736 2155 2267 2268 2269
7 383 1103 1364 1843 2187 2270 2271
7 344 918 1791 1944 2272 2273 2274
7 465 1014 1438 1874 2220 2235 2275
7 75 1040 1789 2111 2248 2276 2277
7 340 963 1725 1924 2278 2279 2280
7 132 888 1784 2025 2281 2282 2283
7 430 1150 1383 1854 2202 2242 2284
7 256 1050 1652 2148 2271 2285 2286
7 168 929 1374 1827 2160 2287 2288
7 20 1148 1569 2044 2280 2289 2290
7 462 748 1750 1913 2167 2291 2292
7 414 832 1795 2070 2212 2293 2294
7 534 784 1762 2047 2161 2295 2296
7 125 975 1643 1916 2274 2297 2298
7 457 1204 1613 2112 2269 2299 2300
7 272 938 1393 1846 2169 2301 2302
7 306 898 1429 1867 2214 2303 2304
7 513 1137 1740 2150 2283 2305 2306
7 69 1076 1689 1967 2262 2307 2308
7 329 1181 1344 1859 2166 2309 2310
7 118 1060 1574 2133 2237 2311 2312
7 251 1129 1530 2053 2241 2313 2314
7 62 959 1702 1897 2315 2316 2317
7 561 1099 1433 1894 2223 2272 2318
7 605 1168 1674 1994 2246 2319 2320
7 407 1004 1359 1803 2184 2321 2322
7 103 1233 1637 2092 2252 2323 2324
7 451 1029 1758 2097 2316 2325 2326
7 373 827 1671 1902 2227 2281 2327
7 494 766 1717 2159 2186 2328 2329
7 574 809 1589 2063 2171 2330 2331
7 538 1009 1378 1806 2199 2278 2332
7 145 1120 1708 1974 2250 2333 2334
7 596 1069 1752 2085 2255 2335 2336
7 47 1245 1564 2137 2328 2337 2338
7 353 1154 1414 1879 2211 2339 2340
7 263 994 1627 2095 2239 2341 2342
7 477 1177 1368 1862 2178 2325 2343
7 13 944 1682 1989 2244 2344 2345
7 520 1200 1540 1997 2322 2338 2346
7 578 851 1624 2139 2215 2347 2348
7 426 779 1585 1937 2179 2315 2349
7 367 730 1720 2030 2197 2267 2350
7 602 1110 1605 1918 2307 2351 2352
7 659 1217 1348 1834 2205 2259 2353
7 96 1091 1705 2075 2291 2354 2355
7 391 791 1527 2145 2201 2289 2356
7 484 857 1487 2039 2225 2297 2357
7 324 755 1545 2079 2207 2232 2358
7 152 1259 1685 2147 2293 2359 2360
7 526 1035 1659 1938 2302 2361 2362
7 614 1226 1329 1819 2196 2299 2363
7 648 1296 1408 1883 2226 2305 2364
7 447 1081 1513 1921 2304 2365 2366
7 54 1133 1647 2129 2285 2367 2368
7 676 802 1664 2103 2173 2369 2370
7 621 772 1602 1949 2188 2367 2371
7 670 845 1553 1960 2218 2372 2373
7 693 1285 1575 2114 2276 2374 2375
7 90 1165 1507 1928 2330 2361 2376
7 588 1159 1353 1822 2181 2351 2377
7 553 1313 1481 2116 2340 2360 2378
7 395 1185 1419 1891 2208 2379 2380
7 41 1209 1480 2019 2266 2381 2382
7 546 1249 1596 2152 2310 2355 2383
7 160 1290 1469 2060 2347 2365 2384
7 499 1094 1339 1811 2163 2385 2386
7 110 1276 1496 2032 2295 2387 2388
7 697 1240 1556 2048 2333 2380 2389
7 685 1221 1404 1871 2229 2319 2390
7 705 1300 1333 1850 2193 2335 2391
7 703 1281 1440 1991 2324 2386 2392
7 167 1195 1501 2001 2341 2372 2393
7 711 815 1454 2088 2191 2381 2394
7 633 862 1519 2109 2221 2311 2395
7 656 797 1450 1972 2204 2344 2396
7 82 1318 1473 2121 2313 2369 2397
7 637 1304 1324 1839 2175 2374 2398
7 559 1268 1461 2083 2288 2388 2399
7 311 924 1399 1831 2270 2400 2401
7 181 887 1394 1847 2240 2402 2403
7 289 973 1388 1814 2363 2404 2405
7 577 1024 1384 1855 2309 2406 2407
7 413 1118 1379 1807 2284 2408 2409
7 187 942 1373 1826 2321 2410 2411
7 572 1146 1363 1842 2398 2412 2413
7 389 989 1369 1863 2287 2414 2415
7 365 1089 1354 1823 2257 2416 2417
7 460 1163 1358 1802 2353 2418 2419
7 674 1231 1349 1835 2343 2420 2421
7 482 1059 1343 1858 2385 2422 2423
7 371 1194 1338 1810 2332 2424 2425
7 631 1258 1334 1851 2301 2426 2427
7 669 1288 1328 1818 2391 2428 2429
7 654 1316 1323 1838 2377 2430 2431
7 277 870 1423 1886 2339 2432 2433
7 232 958 1428 1866 2275 2434 2435
7 493 1039 1434 1895 2238 2436 2437
7 533 1075 1439 1875 2364 2438 2439
7 620 1275 1403 1870 2318 2440 2441
7 710 1244 1409 1882 2379 2442 2443
7 425 1208 1413 1878 2390 2444 2445
7 323 1132 1418 1890 2303 2446 2447
7 201 725 1766 2094 2168 2448 2449
7 138 905 1768 2073 2346 2450 2451
7 364 894 1770 2130 2290 2439 2452
7 241 914 1773 1981 2308 2409 2453
7 27 910 1777 2127 2236 2454 2455
7 431 839 1781 2051 2180 2456 2457
7 220 922 1782 2024 2251 2410 2458
7 347 966 1785 1951 2331 2432 2459
7 511 988 1788 2110 2263 2403 2460
7 296 749 1793 1945 2219 2461 2462
7 382 969 1794 2069 2247 2420 2463
7 76 1015 1798 2010 2300 2448 2464
7 213 884 1728 2064 2349 2423 2462
7 455 955 1731 2099 2357 2415 2465
7 253 880 1734 2154 2261 2447 2457
7 5 899 1738 2023 2279 2463 2466
7 479 743 1742 2151 2209 2467 2468
7 422 1044 1743 2015 2384 2419 2469
7 131 1011 1747 1986 2260 2470 2471
7 474 1114 1749 1912 2323 2440 2451
7 562 785 1753 2086 2170 2458 2472
7 33 1006 1756 1906 2320 2473 2474
7 274 833 1760 2098 2162 2475 2476
7 613 1085 1761 2046 2337 2429 2455
7 48 935 1692 2143 2314 2469 2477
7 178 865 1694 2124 2298 2401 2478
7 385 736 1700 2081 2228 2473 2479
7 342 1112 1701 1896 2296 2404 2480
7 450 1074 1704 2074 2253 2435 2481
7 594 1171 1707 1973 2348 2400 2482
7 227 826 1712 1942 2189 2470 2483
7 104 1105 1714 2036 2378 2467 2484
7 322 949 1716 2158 2233 2407 2485
7 197 979 1719 2027 2256 2436 2486
7 153 1152 1723 2123 2286 2475 2487
7 466 778 1726 1925 2203 2465 2488
7 507 999 1648 2118 2382 2405 2489
7 331 820 1654 2149 2177 2450 2490
7 19 931 1656 2107 2366 2453 2491
7 307 773 1661 1939 2174 2492 2493
7 647 1191 1663 2102 2268 2443 2471
7 146 1228 1668 1933 2375 2456 2494
7 287 1065 1670 1899 2334 2417 2495
7 661 808 1675 1995 2224 2460 2496
7 55 1100 1678 2135 2243 2492 2497
7 206 1037 1680 1988 2292 2444 2476
7 545 1141 1684 2146 2264 2416 2498
7 603 1201 1687 1966 2394 2406 2499
7 440 1173 1601 1947 2277 2426 2474
7 539 844 1606 1919 2192 2459 2500
7 97 1219 1610 2013 2306 2461 2501
7 649 760 1615 2113 2194 2498 2502
7 304 1019 1616 2004 2376 2434 2503
7 117 939 1620 2157 2265 2452 2504
7 630 1123 1623 2138 2312 2412 2497
7 170 731 1631 2096 2213 2454 2505
7 68 1155 1633 1979 2392 2495 2502
7 691 1207 1636 2091 2356 2437 2506
7 335 1082 1640 1915 2373 2413 2493
7 261 1033 1645 2128 2249 2425 2468
7 61 1222 1549 1909 2336 2488 2507
7 668 1271 1552 1958 2359 2430 2464
7 590 803 1559 2049 2216 2480 2508
7 550 1051 1562 2136 2358 2427 2479
7 515 1130 1566 2043 2396 2442 2483
7 246 996 1571 2132 2327 2431 2449
7 707 850 1578 2115 2182 2481 2509
7 12 1161 1581 2067 2273 2485 2510
7 530 1235 1584 1935 2387 2424 2484
7 684 1263 1588 2062 2397 2445 2487
7 124 1095 1593 1956 2352 2486 2511
7 396 767 1600 2153 2164 2477 2512
7 696 1286 1494 2031 2329 2408 2513
7 522 1242 1499 2000 2294 2418 2512
7 598 1282 1504 1927 2370 2438 2514
7 111 1297 1510 2058 2383 2472 2515
7 409 796 1515 1922 2222 2499 2510
7 490 1213 1518 2108 2282 2414 2507
7 159 1182 1523 2090 2399 2503 2509
7 404 1055 1526 2144 2345 2433 2516
7 354 754 1534 2054 2198 2466 2517
7 83 1179 1536 2141 2342 2489 2508
7 615 856 1541 1998 2206 2506 2511
7 268 1142 1544 2077 2317 2402 2518
7 686 814 1442 1992 2200 2482 2519
7 166 1301 1446 2041 2326 2500 2516
7 569 1292 1449 1969 2354 2446 2494
7 718 1308 1453 2087 2368 2422 2501
7 89 1306 1458 1964 2389 2496 2518
7 501 863 1464 2084 2185 2504 2514
7 701 1314 1466 2059 2395 2421 2517
7 556 1251 1472 2120 2350 2441 2490
7 442 1269 1477 2018 2371 2428 2505
7 639 790 1483 2117 2230 2491 2513
7 585 1254 1486 2037 2393 2411 2515
7 40 1186 1491 2105 2362 2478 2519
