# Generated using Miratope v0.5.0 (https://github.com/galoomba1/miratope-rs)
4OFF

# Vertices, Faces, Edges, Cells
120 840 1200 240

# Vertices
0.809016994374945 -0.809016994374945 0.809016994374945 -0.809016994374945 
0 -1.61803398874989 0 0 
0 0 0 -1.61803398874989 
1.30901699437495 0 0.809016994374945 0.5 
-0.809016994374945 -0.809016994374945 -0.809016994374945 -0.809016994374945 
-0.809016994374945 0.5 -1.30901699437495 0 
0.5 -0.809016994374945 0 1.30901699437495 
0 1.30901699437495 -0.5 -0.809016994374945 
0.809016994374945 1.30901699437495 0 0.5 
0 0.5 -0.809016994374945 1.30901699437495 
-0.809016994374945 -0.809016994374945 0.809016994374945 0.809016994374945 
-0.809016994374945 -0.809016994374945 0.809016994374945 -0.809016994374945 
-0.809016994374945 -0.809016994374945 -0.809016994374945 0.809016994374945 
0.5 0 1.30901699437495 0.809016994374945 
0.5 0 1.30901699437495 -0.809016994374945 
0.5 0 -1.30901699437495 0.809016994374945 
0.5 0 -1.30901699437495 -0.809016994374945 
1.30901699437495 0.5 0 0.809016994374945 
1.30901699437495 0.5 0 -0.809016994374945 
0.809016994374945 0.809016994374945 0.809016994374945 -0.809016994374945 
-0.809016994374945 0.809016994374945 0.809016994374945 -0.809016994374945 
1.30901699437495 0.809016994374945 -0.5 0 
1.30901699437495 -0.809016994374945 -0.5 0 
-1.30901699437495 0.809016994374945 -0.5 0 
-1.30901699437495 -0.809016994374945 -0.5 0 
0 0.809016994374945 -1.30901699437495 0.5 
0 -0.809016994374945 -1.30901699437495 0.5 
0.809016994374945 0.809016994374945 -0.809016994374945 -0.809016994374945 
0.809016994374945 -0.809016994374945 -0.809016994374945 -0.809016994374945 
-0.809016994374945 0.809016994374945 -0.809016994374945 -0.809016994374945 
0.809016994374945 -1.30901699437495 0 0.5 
-0.809016994374945 1.30901699437495 0 0.5 
-0.809016994374945 -1.30901699437495 0 0.5 
0.809016994374945 0 0.5 1.30901699437495 
-0.809016994374945 0 0.5 1.30901699437495 
0.809016994374945 -0.809016994374945 0.809016994374945 0.809016994374945 
0.809016994374945 -0.809016994374945 -0.809016994374945 0.809016994374945 
0 0.5 0.809016994374945 1.30901699437495 
0 0.5 0.809016994374945 -1.30901699437495 
0 0.5 -0.809016994374945 -1.30901699437495 
-0.5 1.30901699437495 0.809016994374945 0 
-0.5 1.30901699437495 -0.809016994374945 0 
0 0 1.61803398874989 0 
-1.61803398874989 0 0 0 
0.5 0.809016994374945 0 -1.30901699437495 
0 -1.30901699437495 -0.5 0.809016994374945 
1.30901699437495 0 0.809016994374945 -0.5 
-0.809016994374945 -0.5 -1.30901699437495 0 
0 1.61803398874989 0 0 
0.809016994374945 -0.5 -1.30901699437495 0 
-1.30901699437495 0 0.809016994374945 0.5 
-0.5 0.809016994374945 0 1.30901699437495 
0 -1.30901699437495 -0.5 -0.809016994374945 
0 -0.5 -0.809016994374945 1.30901699437495 
-0.809016994374945 0.809016994374945 -0.809016994374945 0.809016994374945 
0 0 -1.61803398874989 0 
0.5 0.809016994374945 0 1.30901699437495 
0 -1.30901699437495 0.5 -0.809016994374945 
-0.809016994374945 -0.5 1.30901699437495 0 
1.30901699437495 0 -0.809016994374945 0.5 
1.30901699437495 -0.809016994374945 0.5 0 
0 0 0 1.61803398874989 
1.30901699437495 0 -0.809016994374945 -0.5 
-0.809016994374945 0.5 1.30901699437495 0 
0 1.30901699437495 0.5 0.809016994374945 
0.5 -0.809016994374945 0 -1.30901699437495 
0.809016994374945 1.30901699437495 0 -0.5 
0.809016994374945 0.809016994374945 0.809016994374945 0.809016994374945 
1.61803398874989 0 0 0 
0 1.30901699437495 -0.5 0.809016994374945 
-0.5 -0.809016994374945 0 -1.30901699437495 
0.809016994374945 0.5 -1.30901699437495 0 
-1.30901699437495 0 0.809016994374945 -0.5 
-0.5 0 -1.30901699437495 -0.809016994374945 
0 1.30901699437495 0.5 -0.809016994374945 
-0.5 -0.809016994374945 0 1.30901699437495 
0.809016994374945 0.5 1.30901699437495 0 
-1.30901699437495 0 -0.809016994374945 0.5 
-0.5 0 1.30901699437495 0.809016994374945 
-1.30901699437495 0.809016994374945 0.5 0 
-0.809016994374945 0.809016994374945 0.809016994374945 0.809016994374945 
0 -0.5 0.809016994374945 1.30901699437495 
0 -0.5 0.809016994374945 -1.30901699437495 
0 -0.5 -0.809016994374945 -1.30901699437495 
0.5 -1.30901699437495 0.809016994374945 0 
0.5 -1.30901699437495 -0.809016994374945 0 
0.809016994374945 -1.30901699437495 0 -0.5 
-0.809016994374945 1.30901699437495 0 -0.5 
-0.809016994374945 -1.30901699437495 0 -0.5 
0.809016994374945 0 -0.5 -1.30901699437495 
-0.809016994374945 0 -0.5 -1.30901699437495 
0.809016994374945 0.809016994374945 -0.809016994374945 0.809016994374945 
1.30901699437495 0.809016994374945 0.5 0 
-1.30901699437495 -0.809016994374945 0.5 0 
0 0.809016994374945 1.30901699437495 -0.5 
0 -0.809016994374945 1.30901699437495 -0.5 
-0.5 0 1.30901699437495 -0.809016994374945 
-0.5 0 -1.30901699437495 0.809016994374945 
-1.30901699437495 -0.5 0 0.809016994374945 
-1.30901699437495 -0.5 0 -0.809016994374945 
0.809016994374945 -0.5 1.30901699437495 0 
-1.30901699437495 0 -0.809016994374945 -0.5 
-0.5 0.809016994374945 0 -1.30901699437495 
0 -1.30901699437495 0.5 0.809016994374945 
-0.809016994374945 0 -0.5 1.30901699437495 
1.30901699437495 -0.5 0 -0.809016994374945 
0.5 1.30901699437495 0.809016994374945 0 
0 -0.809016994374945 -1.30901699437495 -0.5 
0 -0.809016994374945 1.30901699437495 0.5 
0.5 1.30901699437495 -0.809016994374945 0 
0.809016994374945 0 -0.5 1.30901699437495 
-1.30901699437495 0.5 0 -0.809016994374945 
0.809016994374945 0 0.5 -1.30901699437495 
-1.30901699437495 0.5 0 0.809016994374945 
0 0.809016994374945 1.30901699437495 0.5 
-0.5 -1.30901699437495 -0.809016994374945 0 
0 0.809016994374945 -1.30901699437495 -0.5 
-0.5 -1.30901699437495 0.809016994374945 0 
1.30901699437495 -0.5 0 0.809016994374945 
-0.809016994374945 0 0.5 -1.30901699437495 

# Faces
4 0 2 4 1
4 0 3 6 1
5 3 0 2 7 8
5 4 5 9 6 1
4 4 2 7 5
4 8 9 6 3
4 9 8 7 5
4 11 10 12 4
4 10 13 14 11
5 10 12 15 17 13
5 4 16 18 14 11
4 12 4 16 15
4 13 14 18 17
4 18 16 15 17
4 0 11 20 19
4 0 19 21 22
5 19 21 25 23 20
5 22 0 11 24 26
4 20 11 24 23
4 21 22 26 25
4 23 24 26 25
4 28 27 29 4
5 27 28 30 33 8
4 29 31 8 27
4 4 32 30 28
5 31 29 4 32 34
4 33 8 31 34
4 34 33 30 32
4 36 35 0 28
4 35 37 9 36
5 0 38 40 37 35
5 36 28 39 41 9
4 28 39 38 0
4 40 41 9 37
4 41 39 38 40
4 42 20 43 10
4 20 42 46 44
5 43 47 16 44 20
5 42 46 22 45 10
4 43 47 45 10
4 46 44 16 22
4 45 47 16 22
4 27 2 20 48
5 51 48 27 49 53
4 2 52 49 27
4 48 51 50 20
5 20 50 32 52 2
4 51 53 32 50
4 49 52 32 53
4 43 4 55 54
5 54 43 58 13 56
4 55 54 56 59
4 4 43 58 57
5 4 55 59 60 57
4 13 60 59 56
4 13 60 57 58
4 61 36 1 10
5 61 64 66 62 36
4 36 1 65 62
4 10 61 64 63
5 10 1 65 38 63
4 64 66 38 63
4 62 66 38 65
4 67 42 0 68
4 67 68 71 69
5 67 69 23 72 42
5 0 68 71 73 70
4 42 72 70 0
4 71 73 23 69
4 23 73 70 72
4 27 68 36 55
4 27 68 76 74
5 27 55 77 79 74
5 76 68 36 75 78
4 36 55 77 75
4 76 74 79 78
4 78 75 77 79
4 20 29 54 80
5 20 80 81 84 82
4 54 53 81 80
4 29 20 82 83
5 29 54 53 85 83
4 81 53 85 84
4 84 85 83 82
4 67 35 10 80
5 66 67 35 86 89
4 67 80 87 66
4 10 35 86 88
5 87 80 10 88 90
4 66 89 90 87
4 89 86 88 90
4 36 91 54 12
4 36 91 92 60
5 91 54 79 94 92
5 12 36 60 95 93
4 12 54 79 93
4 94 92 60 95
4 94 95 93 79
4 19 67 91 27
4 19 67 78 96
5 91 97 98 78 67
5 96 19 27 73 99
4 91 97 73 27
4 96 99 98 78
4 98 97 73 99
4 48 54 61 67
5 67 100 82 102 48
4 67 100 103 61
4 54 48 102 101
5 61 103 88 101 54
4 103 88 82 100
4 82 102 101 88
4 29 43 11 2
4 29 43 104 25
5 2 29 25 59 105
5 43 11 84 6 104
4 11 84 105 2
4 6 59 105 84
4 6 59 25 104
4 35 1 11 42
4 42 106 17 35
5 35 17 71 107 1
5 11 42 106 7 90
4 1 11 90 107
4 17 71 7 106
4 71 107 90 7
4 28 55 12 1
5 28 1 108 76 18
4 28 55 109 18
4 12 34 108 1
5 55 109 64 34 12
4 64 109 18 76
4 76 64 34 108
4 19 2 28 68
5 110 68 19 40 51
4 19 40 111 2
4 68 110 26 28
5 28 26 77 111 2
4 51 110 26 77
4 40 111 77 51
4 91 61 35 68
5 91 68 112 102 41
4 91 41 113 61
4 35 95 112 68
5 35 95 72 113 61
4 113 41 102 72
4 112 95 72 102
4 91 55 29 48
4 48 114 33 91
5 55 115 103 33 91
5 114 48 29 99 58
4 55 29 99 115
4 114 33 103 58
4 103 58 99 115
4 48 80 42 19
4 48 116 89 19
5 42 117 52 89 19
5 80 98 47 116 48
4 42 117 98 80
4 98 117 52 47
4 89 52 47 116
4 61 12 43 80
5 118 61 80 94 46
4 43 80 94 119
4 12 61 118 85
5 43 119 65 85 12
4 118 85 65 46
4 46 65 119 94
4 35 110 21 46
4 35 117 82 46
5 35 117 24 97 110
5 46 82 90 116 21
4 21 116 97 110
4 117 82 90 24
4 97 116 90 24
4 68 91 53 30
4 91 53 77 41
4 112 57 30 68
4 102 41 77 99
5 53 77 99 57 30
4 102 99 57 112
4 54 109 17 61
4 54 101 39 109
4 17 61 103 60
5 17 60 65 39 109
4 103 88 65 60
4 39 101 88 65
5 109 92 14 119 29
4 109 29 47 15
4 119 29 47 88
4 118 15 109 92
4 92 118 84 14
5 15 118 84 88 47
4 14 119 88 84
4 27 25 56 92
5 100 92 27 83 57
4 25 27 83 47
4 56 92 100 81
5 56 81 32 47 25
4 81 32 57 100
4 57 83 47 32
5 118 56 48 44 105
4 56 48 23 104
4 48 44 90 23
4 118 56 104 45
4 105 118 45 52
4 44 105 52 90
5 45 104 23 90 52
4 91 66 39 55
4 91 66 76 33
4 55 115 70 39
4 103 95 76 33
5 76 95 70 39 66
4 103 115 70 95
4 17 46 86 36
4 36 17 69 97
5 36 86 70 101 97
5 17 69 87 38 46
4 38 70 86 46
4 69 97 101 87
4 87 101 70 38
4 35 75 51 67
4 66 41 51 67
4 75 35 86 115
4 66 89 73 41
5 75 51 41 73 115
4 89 73 115 86
4 48 67 110 25
4 67 100 30 110
4 48 25 73 102
4 100 30 52 82
5 25 110 30 52 73
4 102 73 52 82
4 13 106 69 61
4 61 13 84 45
5 69 116 107 45 61
5 13 84 65 44 106
4 69 116 44 106
4 84 65 107 45
4 116 44 65 107
4 29 54 64 74
4 54 53 33 64
4 29 74 112 83
5 33 64 74 112 60
4 85 60 33 53
4 85 60 112 83
4 12 5 71 36
4 60 18 71 36
4 93 12 5 111
4 18 60 95 38
5 71 5 111 38 18
4 38 95 93 111
4 22 1 75 110
4 22 89 70 1
5 113 75 1 70 111
5 22 110 69 7 89
4 69 113 75 110
4 7 69 113 111
4 89 7 111 70
4 68 0 108 33
4 0 70 93 108
4 71 9 33 68
5 9 33 108 93 77
4 71 9 77 73
4 93 70 73 77
4 27 19 3 59
4 19 96 108 3
4 27 59 26 73
5 3 108 32 26 59
4 96 108 32 99
4 32 99 73 26
4 37 10 84 3
5 10 37 69 5 24
4 10 24 52 84
4 3 21 69 37
5 3 84 52 16 21
4 21 16 5 69
4 5 16 52 24
4 43 31 9 12
4 9 12 85 59
4 43 119 74 31
5 18 74 31 9 59
4 18 65 85 59
4 65 18 74 119
4 74 109 16 2
5 2 57 108 114 74
4 16 85 57 2
4 114 56 109 74
4 114 108 6 56
5 6 56 109 16 85
4 6 108 57 85
5 31 56 3 14 20
4 20 31 5 90
4 20 14 65 90
4 3 56 15 22
4 14 65 22 3
4 31 5 15 56
5 22 15 5 90 65
5 81 114 19 105 30
4 114 19 7 31
4 19 105 16 7
4 81 114 31 104
4 81 30 26 104
5 104 26 16 7 31
4 105 30 26 16
4 55 4 111 41
4 4 111 96 57
4 59 8 41 55
4 59 8 76 60
5 76 96 111 41 8
4 76 60 57 96
4 42 19 8 37
4 8 19 89 71
4 42 117 75 37
5 8 71 26 75 37
4 52 26 75 117
4 89 52 26 71
4 6 12 113 37
4 12 107 22 6
5 12 107 39 87 113
5 37 6 22 18 106
4 37 113 87 106
4 18 39 87 106
4 22 18 39 107
4 91 118 81 51
5 91 116 83 86 118
4 51 23 116 91
4 81 117 86 118
5 51 81 117 99 23
4 116 83 99 23
4 117 86 83 99
4 55 53 118 62
5 62 112 119 101 55
4 53 98 101 55
4 100 112 62 118
5 100 58 98 53 118
4 58 119 112 100
4 98 101 119 58
5 62 15 54 87 44
4 54 87 72 98
4 15 45 98 54
4 62 86 82 44
4 15 62 86 45
4 44 87 72 82
5 98 45 86 82 72
4 118 13 64 91
4 91 116 87 64
5 13 64 87 119 95
4 118 13 95 86
4 116 83 119 87
4 83 119 95 86
4 27 112 94 48
4 112 27 49 86
4 51 48 94 78
4 53 103 78 51
5 94 112 86 103 78
4 49 86 103 53
4 61 80 23 97
4 80 23 102 94
4 61 97 49 118
4 46 89 49 118
4 46 89 102 94
5 49 97 23 102 89
4 66 68 100 94
4 68 66 116 49
5 68 49 115 117 100
5 94 72 101 116 66
4 100 94 72 117
4 117 115 101 72
4 49 115 101 116
4 61 36 115 98
4 36 115 83 62
4 61 64 79 98
4 64 66 102 79
4 66 102 83 62
5 79 102 83 115 98
4 91 67 46 62
4 46 67 78 95
4 91 62 107 97
5 62 107 88 95 46
4 98 88 95 78
4 98 97 107 88
4 21 44 94 67
5 67 81 45 49 21
4 94 58 81 67
4 21 44 83 49
5 94 58 88 83 44
4 81 45 88 58
4 45 88 83 49
4 80 13 92 48
4 13 80 98 103
4 92 48 116 62
5 13 92 62 85 103
4 47 85 62 116
4 47 85 103 98
4 91 49 47 54
4 92 105 49 91
4 79 99 47 54
4 92 105 82 94
4 94 79 99 82
5 105 49 47 99 82
4 36 28 57 103
4 36 103 34 9
4 57 28 39 119
4 34 9 41 79
5 79 34 103 57 119
4 79 41 39 119
4 61 15 22 35
4 65 95 35 22
4 15 61 113 5
4 72 90 65 95
4 113 5 90 72
5 0 30 75 50 96
4 0 89 102 96
4 0 89 49 30
4 23 50 75 97
4 49 30 75 97
4 102 96 50 23
4 28 27 102 70
4 8 40 102 27
4 28 30 117 70
4 33 8 40 78
4 33 30 117 78
5 78 40 102 70 117
4 42 10 113 40
4 113 10 45 97
4 46 66 40 42
4 22 71 66 46
5 66 71 97 113 40
4 22 45 97 71
4 55 9 17 62
4 55 9 113 101
5 17 76 63 113 9
4 76 112 62 17
4 112 76 63 119
4 119 63 113 101
4 29 16 21 48
4 29 16 52 99
4 21 48 114 3
4 84 58 114 3
4 99 52 84 58
4 20 43 34 114
4 20 114 92 44
4 34 43 47 53
5 114 92 59 53 34
4 59 16 44 92
4 47 53 59 16
4 80 106 14 58
5 80 104 15 21 106
4 58 32 104 80
4 21 106 14 105
4 21 15 85 105
5 105 85 32 58 14
4 104 15 85 32
4 4 85 103 93
5 63 93 4 39 74
4 62 39 4 85
4 92 74 63 13
4 62 39 74 92
4 103 93 63 13
4 8 68 100 114
4 8 68 49 25
5 50 114 8 25 77
4 100 114 50 117
4 117 50 77 115
4 49 25 77 115
4 106 80 72 38
4 80 104 24 72
4 106 21 89 38
4 21 15 107 89
4 15 107 24 104
5 72 24 107 89 38
4 69 80 20 7
4 110 81 80 69
4 82 89 7 20
4 22 84 81 110
4 89 82 84 22
4 2 96 79 29
4 29 25 51 79
4 105 100 96 2
5 33 100 96 79 51
4 100 105 59 33
4 59 33 51 25
4 54 87 63 34
4 54 34 6 15
5 6 34 63 14 60
4 6 15 62 60
4 60 62 44 14
4 63 87 44 14
4 10 6 56 80
4 56 80 87 109
4 10 6 85 88
4 87 109 16 90
4 16 90 88 85
4 27 105 85 55
4 14 74 27 105
4 85 55 77 32
4 74 14 58 79
4 77 32 58 79
5 3 42 50 104 110
4 3 105 82 42
4 82 42 50 99
4 110 49 105 3
4 49 110 104 47
4 99 50 104 47
4 1 93 78 35
4 17 64 78 35
4 1 107 101 93
4 64 17 71 41
5 78 64 41 101 93
4 41 71 107 101
4 36 107 89 68
4 36 107 24 75
4 76 38 89 68
4 38 76 78 72
4 78 72 24 75
4 28 71 66 112
4 71 28 115 97
5 96 112 28 115 93
4 40 66 112 96
4 113 93 96 40
4 113 93 115 97
4 21 67 40 7
4 40 67 81 50
4 21 7 73 49
5 40 50 24 73 7
4 50 81 45 24
4 49 45 24 73
5 43 5 109 106 63
4 95 63 43 88
4 88 43 5 107
4 46 95 63 106
4 106 46 62 109
4 109 62 107 5
4 59 28 112 92
4 28 59 53 115
4 92 112 96 114
4 93 34 114 96
4 53 115 93 34
5 31 111 11 108 37
4 65 11 108 60
4 65 11 111 39
4 37 17 60 108
4 109 31 37 17
4 109 39 111 31
4 18 3 42 38
4 111 50 42 38
4 71 110 3 18
4 71 110 104 5
4 111 50 104 5
4 18 0 96 74
4 0 18 59 30
4 9 75 30 59
4 31 50 96 74
4 50 31 9 75
4 30 108 11 52
4 73 111 11 52
4 110 37 31 25
4 30 108 37 110
4 111 73 25 31
4 26 1 10 104
4 10 104 31 63
4 26 1 65 16
4 63 31 7 38
4 65 16 7 38
4 14 2 28 60
4 26 6 60 28
4 111 63 14 2
4 63 111 77 34
4 34 77 26 6
4 43 32 108 63
4 32 43 5 26
4 106 3 59 109
4 106 3 108 63
4 26 5 109 59
4 106 20 2 18
4 106 20 50 37
4 18 2 52 22
4 32 6 37 50
4 6 32 52 22
4 50 11 4 77
4 11 50 114 14
4 77 4 16 25
4 18 8 114 14
4 18 8 25 16
4 26 4 93 75
4 4 26 71 39
4 74 8 37 63
4 8 74 39 71
4 93 75 37 63
4 1 24 73 28
4 28 73 7 18
4 1 24 50 108
4 18 7 40 76
4 50 108 76 40
4 76 0 11 63
4 22 17 76 0
4 24 113 63 11
4 9 26 22 17
4 9 26 24 113
4 58 20 19 100
4 21 118 100 19
4 23 98 58 20
4 21 118 53 25
4 98 23 25 53
4 34 56 48 79
4 44 119 79 48
4 118 103 34 56
4 118 103 57 105
4 119 44 105 57
4 54 116 90 43
4 56 21 116 54
4 90 43 58 82
4 13 46 21 56
4 58 82 46 13
4 10 72 101 12
4 13 94 72 10
4 116 15 12 101
4 66 17 13 94
4 66 17 15 116
4 64 92 27 41
4 27 41 101 83
4 100 78 64 92
4 93 57 100 78
4 57 93 101 83
4 68 86 82 19
4 82 19 40 72
4 110 45 86 68
4 51 98 45 110
4 72 40 51 98
4 69 40 78 61
4 78 61 45 117
4 116 102 40 69
4 107 70 117 45
4 70 107 116 102
4 36 33 100 86
4 51 97 36 33
4 86 100 96 70
4 51 97 101 79
4 70 96 79 101
4 113 78 103 12
4 103 12 107 86
4 78 113 87 94
4 112 39 87 94
4 112 39 107 86
4 118 67 42 84
4 69 15 118 67
4 72 88 84 42
4 23 47 15 69
4 88 72 23 47
4 88 12 55 83
4 88 12 34 58
4 44 109 55 83
4 94 64 34 58
4 109 44 94 64
4 79 114 19 102
4 83 105 19 102
4 79 114 81 98
4 30 115 98 81
4 105 83 115 30
4 109 9 77 29
4 77 29 119 93
4 33 92 109 9
4 14 108 33 92
4 108 14 119 93
4 11 38 87 43
4 84 46 38 11
4 69 104 43 87
4 17 6 84 46
4 69 104 6 17
4 99 2 0 117
4 3 81 117 0
4 99 2 7 23
4 81 3 8 51
4 7 23 51 8
4 35 76 8 110
4 96 117 35 76
4 110 8 41 97
4 97 41 111 24
4 24 111 96 117
4 95 10 37 76
4 24 70 95 10
4 37 76 66 69
4 39 5 69 66
4 70 24 5 39
4 33 75 1 60
4 112 70 1 60
4 75 33 64 113
4 111 74 64 113
4 111 74 112 70
4 42 81 32 11
4 11 32 47 90
4 106 56 81 42
4 106 56 25 7
4 7 25 47 90
4 31 77 99 20
4 99 20 14 57
4 53 56 3 30
4 3 30 57 14
4 56 53 77 31
4 29 44 65 4
4 106 31 29 44
4 84 32 4 65
4 34 13 106 31
4 32 84 13 34
4 4 119 95 1
4 87 5 4 119
4 1 95 13 6
4 6 13 64 9
4 87 5 9 64
4 73 2 74 41
4 73 2 57 115
4 114 51 41 74
4 51 114 108 75
4 57 115 75 108
4 0 52 45 35
4 35 45 104 37
4 0 52 90 38
4 40 23 104 37
4 38 90 23 40
5 0 117 86 95 1
5 99 2 4 119 83
5 117 72 10 11 50
5 101 12 4 77 115
5 112 76 0 19 100
5 119 58 20 11 63
5 27 102 116 44 29
5 107 70 28 4 65
5 36 103 118 45 35
5 105 57 28 0 52
5 40 42 20 114 96
5 113 10 43 34 93
5 39 112 27 2 18
5 48 20 106 87 94
5 55 54 116 97 41
5 4 43 90 24 111
5 30 115 36 1 26
5 61 10 104 81 98
5 67 118 92 33 68
5 0 108 14 84 42
5 68 89 21 105 27
5 36 107 15 85 55
5 113 64 54 80 69
5 7 20 29 74 111
5 67 80 56 114 51
5 10 6 108 75 35
5 36 71 110 49 91
5 47 54 12 5 104
5 19 67 46 106 3
5 27 59 109 62 91
5 67 110 37 17 61
5 109 54 48 25 31
5 29 43 87 101 79
5 11 38 70 96 2
5 100 78 35 42 81
5 11 32 57 93 1
5 83 55 28 73 49
5 45 88 12 1 24
5 19 82 44 14 2
5 68 86 62 60 28
5 56 53 91 61 15
5 3 30 68 35 22
5 91 66 69 21 48
5 16 29 55 39 5
5 48 19 8 74 92
5 80 42 37 63 13
5 23 80 43 31 50
5 61 12 9 75 97
5 58 82 117 96 57
5 72 90 20 99 102
5 14 57 112 95 65
5 65 88 82 52 11
5 102 101 39 111 73
5 70 93 119 88 72
5 107 101 83 47 90
5 38 90 44 119 39
5 10 95 103 58 84
5 99 52 24 70 115
5 84 46 86 100 105
5 90 16 2 73 89
5 86 88 85 57 115
5 100 30 108 60 103
5 30 32 84 45 117
5 1 60 85 84 22
5 83 82 89 70 112
5 94 95 38 42 82
5 93 79 99 50 111
5 73 23 47 29 77
5 98 99 32 43 88
5 96 108 63 95 78
5 89 46 65 18 0
5 119 94 102 96 74
5 65 16 105 83 62
5 35 76 60 13 46
5 52 47 85 4 26
5 117 75 93 103 98
5 22 52 49 86 107
5 23 7 5 87 116
5 98 23 24 113 101
5 72 40 111 63 87
5 118 13 6 3 81
5 12 103 53 32 6
5 118 49 30 59 85
5 100 114 14 13 94
5 19 102 66 38 7
5 107 97 73 26 5
5 81 58 34 108 50
5 89 71 39 62 116
5 92 105 3 18 60
5 48 79 41 40 23
5 113 5 31 77 41
5 33 78 61 13 34
5 71 22 16 59 28
5 45 97 115 53 47
5 62 17 22 21 118
5 37 76 33 114 3
5 44 92 112 66 46
5 77 32 104 24 75
5 16 25 49 116 15
5 74 14 106 38 76
5 110 81 53 33 75
5 6 17 36 33 59
5 15 6 26 110 45
5 109 87 66 41 74
5 80 72 78 79 58
5 7 25 27 41 71
5 21 7 18 109 44
5 64 63 31 114 79
5 54 34 77 51 98
5 51 50 37 113 78
5 68 8 18 17 66
5 76 40 67 94 64
5 26 9 55 53 25
5 104 37 9 34 56
5 56 21 110 8 59
5 92 64 17 106 56
5 69 40 8 31 106
5 97 51 25 104 69
5 71 69 15 109 9
5 91 51 8 9 64

# Cells
7 0 1 2 3 4 5 6
7 7 8 9 10 11 12 13
7 14 15 16 17 18 19 20
7 21 22 23 24 25 26 27
7 28 29 30 31 32 33 34
7 35 36 37 38 39 40 41
7 42 43 44 45 46 47 48
7 49 50 51 52 53 54 55
7 56 57 58 59 60 61 62
7 63 64 65 66 67 68 69
7 70 71 72 73 74 75 76
7 77 78 79 80 81 82 83
7 84 85 86 87 88 89 90
7 91 92 93 94 95 96 97
7 98 99 100 101 102 103 104
7 105 106 107 108 109 110 111
7 112 113 114 115 116 117 118
7 119 120 121 122 123 124 125
7 126 127 128 129 130 131 132
7 133 134 135 136 137 138 139
7 140 141 142 143 144 145 146
7 147 148 149 150 151 152 153
7 154 155 156 157 158 159 160
7 161 162 163 164 165 166 167
7 168 169 170 171 172 173 174
7 141 175 176 177 178 179 180
7 109 181 182 183 184 185 186
7 187 188 189 190 191 192 193
7 194 195 196 197 198 199 200
7 201 202 203 204 205 206 207
7 149 208 209 210 211 212 213
7 214 215 216 217 218 219 220
7 85 221 222 223 224 225 226
7 106 227 228 229 230 231 232
7 233 234 235 236 237 238 239
7 81 240 241 242 243 244 245
7 94 246 247 248 249 250 251
7 252 253 254 255 256 257 258
7 66 259 260 261 262 263 264
7 101 265 266 267 268 269 270
7 271 272 273 274 275 276 277
7 165 278 279 280 281 282 283
7 284 285 286 287 288 289 290
7 291 292 293 294 295 296 297
7 298 299 300 301 302 303 304
7 53 305 306 307 308 309 310
7 156 311 312 313 314 315 316
7 317 318 319 320 321 322 323
7 324 325 326 327 328 329 330
7 331 332 333 334 335 336 337
7 338 339 340 341 342 343 344
7 325 345 346 347 348 349 350
7 43 351 352 353 354 355 356
7 162 357 358 359 360 361 362
7 363 364 365 366 367 368 369
7 57 370 371 372 373 374 375
7 100 376 377 378 379 380 381
7 382 383 384 385 386 387 388
7 157 389 390 391 392 393 394
7 93 395 396 397 398 399 400
7 31 401 402 403 404 405 406
7 144 297 407 408 409 410 411
7 362 412 413 414 415 416 417
7 22 418 419 420 421 422 423
7 38 424 425 426 427 428 429
7 332 430 431 432 433 434 435
7 150 275 436 437 438 439 440
7 37 441 442 443 444 445 446
7 447 448 449 450 451 452 453
7 392 454 455 456 457 458 459
7 365 460 461 462 463 464 465
7 448 466 467 468 469 470 471
7 78 255 472 473 474 475 476
7 114 477 478 479 480 481 482
7 338 483 484 485 486 487 488
7 88 289 489 490 491 492 493
7 72 452 494 495 496 497 498
7 400 499 500 501 502 503 504
7 121 505 506 507 508 509 510
7 73 471 511 512 513 514 515
7 428 516 517 518 519 520 521
7 383 522 523 524 525 526 527
7 379 528 529 530 531 532 533
7 444 518 534 535 536 537 538
7 184 539 540 541 542 543 544
7 250 499 545 546 547 548 549
7 281 412 550 551 552 553 554
7 231 539 555 556 557 558 559
7 60 303 560 561 562 563 564
7 137 485 565 566 567 568 569
7 268 528 570 571 572 573 574
7 46 320 575 576 577 578 579
7 10 462 580 581 582 583 584
7 314 455 585 586 587 588 589
7 127 525 590 591 592 593 594
7 17 432 595 596 597 598 599
7 16 335 600 601 602 603 604
7 201 405 605 606 607 608 609
7 50 171 610 611 612 613 614
7 9 366 615 616 617 618 619
7 195 509 620 621 622 623 624
7 134 344 625 626 627 628 629
7 235 423 630 631 632 633 634
7 216 480 635 636 637 638 639
7 319 355 640 641 642 643 644
7 65 192 645 646 647 648 649
7 130 386 650 651 652 653 654
7 298 375 655 656 657 658 659
7 187 262 660 661 662 663 664
7 115 217 665 666 667 668 669
7 2 328 670 671 672 673 674
7 170 309 675 676 677 678 679
7 212 272 680 681 682 683 684
7 243 254 685 686 687 688 689
7 122 198 690 691 692 693 694
7 179 291 695 696 697 698 699
7 25 236 700 701 702 703 704
7 3 347 705 706 707 708 709
7 225 285 710 711 712 713 714
7 30 207 715 716 717 718 719
7 0 330 350 670 705 720 721
7 7 368 464 580 615 722 723
7 14 336 434 595 600 724 725
7 21 239 418 634 700 726 727
7 28 205 401 608 715 728 729
7 35 424 441 520 537 730 731
7 42 322 351 575 643 732 733
7 49 174 305 610 678 734 735
7 56 302 370 560 658 736 737
7 63 191 259 645 663 738 739
7 70 451 469 494 511 740 741
7 77 240 257 472 688 742 743
7 84 221 288 489 713 744 745
7 91 246 395 503 548 746 747
7 98 265 376 532 572 748 749
7 105 181 227 543 557 750 751
7 112 220 477 639 665 752 753
7 119 199 505 623 690 754 755
7 126 388 527 590 650 756 757
7 133 341 487 565 625 758 759
7 140 175 294 407 697 760 761
7 147 208 276 436 683 762 763
7 154 311 389 457 587 764 765
7 161 278 357 415 554 766 767
7 52 173 306 612 679 735 768
7 146 180 293 410 696 769 770
7 111 186 232 541 556 771 772
7 67 193 260 647 664 739 773
7 123 200 507 624 691 755 774
7 32 206 403 609 717 729 775
7 153 213 273 440 681 776 777
7 116 218 479 637 666 753 778
7 90 226 286 493 711 779 780
7 110 185 230 540 555 771 781
7 24 238 420 633 702 727 782
7 83 245 253 476 686 783 784
7 97 251 399 501 546 785 786
7 80 242 258 474 689 743 784
7 69 189 264 649 661 773 787
7 103 269 380 529 570 788 789
7 151 210 277 437 684 763 777
7 167 283 361 413 550 790 791
7 87 223 290 491 714 745 780
7 143 177 295 408 698 761 770
7 58 304 371 562 659 736 792
7 55 169 310 614 676 768 793
7 159 315 394 454 585 794 795
7 44 323 352 577 644 732 796
7 4 329 349 672 706 721 797
7 18 337 435 597 602 725 798
7 135 343 488 567 626 758 799
7 1 327 348 671 707 720 800
7 48 318 356 579 641 796 801
7 166 282 360 414 551 790 802
7 8 367 463 581 616 722 803
7 62 300 374 564 656 792 804
7 104 270 381 530 571 788 805
7 129 387 526 592 651 757 806
7 160 316 393 456 586 794 807
7 96 249 398 500 545 785 808
7 34 203 406 606 719 775 809
7 145 178 292 411 695 769 810
7 163 280 358 417 553 766 791
7 27 234 422 631 704 782 811
7 41 429 446 517 535 812 813
7 15 334 433 596 601 724 814
7 152 211 271 439 680 776 815
7 40 427 445 516 534 812 816
7 74 453 470 496 512 741 817
7 158 313 390 459 589 765 795
7 11 369 465 582 617 723 818
7 71 450 468 495 513 740 819
7 82 244 252 475 685 783 820
7 117 214 481 635 668 778 821
7 136 342 486 566 627 759 822
7 89 224 284 492 710 779 823
7 75 447 466 497 514 819 824
7 95 248 397 504 549 747 786
7 125 196 510 621 694 774 825
7 76 449 467 498 515 817 824
7 36 426 442 519 536 730 816
7 128 385 524 591 652 756 826
7 99 266 377 531 573 748 789
7 39 425 443 521 538 731 813
7 107 183 228 542 558 750 781
7 92 247 396 502 547 746 808
7 164 279 359 416 552 767 802
7 108 182 229 544 559 751 772
7 61 299 373 563 655 804 827
7 139 339 483 568 629 799 828
7 102 267 378 533 574 749 805
7 47 317 354 578 640 801 829
7 12 363 460 583 618 803 830
7 155 312 391 458 588 764 807
7 132 384 523 594 653 806 831
7 20 333 431 599 604 798 832
7 19 331 430 598 603 814 832
7 29 204 402 607 716 728 833
7 54 168 308 613 675 793 834
7 13 364 461 584 619 818 830
7 120 197 506 622 692 754 835
7 138 340 484 569 628 822 828
7 23 237 419 632 701 726 836
7 113 219 478 638 667 752 837
7 45 321 353 576 642 733 829
7 68 188 263 648 660 787 838
7 131 382 522 593 654 826 831
7 59 301 372 561 657 737 827
7 64 190 261 646 662 738 838
7 118 215 482 636 669 821 837
7 5 324 345 673 708 800 839
7 51 172 307 611 677 734 834
7 148 209 274 438 682 762 815
7 79 241 256 473 687 742 820
7 124 194 508 620 693 825 835
7 142 176 296 409 699 760 810
7 26 233 421 630 703 811 836
7 6 326 346 674 709 797 839
7 86 222 287 490 712 744 823
7 33 202 404 605 718 809 833
