# Generated using Miratope v0.5.0 (https://github.com/galoomba1/miratope-rs)
4OFF

# Vertices, Faces, Edges, Cells
120 720 720 120

# Vertices
-0.809016994374945 0.809016994374945 -0.809016994374945 -0.809016994374945 
-1.30901699437495 0.809016994374945 -0.5 0 
-1.30901699437495 0.5 0 -0.809016994374945 
-0.809016994374945 0.5 -1.30901699437495 0 
-0.809016994374945 0 -0.5 -1.30901699437495 
-0.809016994374945 -0.809016994374945 -0.809016994374945 -0.809016994374945 
-1.30901699437495 -0.809016994374945 -0.5 0 
-1.30901699437495 -0.5 0 -0.809016994374945 
-0.809016994374945 -0.5 -1.30901699437495 0 
-1.30901699437495 0 -0.809016994374945 0.5 
-0.809016994374945 -0.809016994374945 -0.809016994374945 0.809016994374945 
-0.809016994374945 0 -0.5 1.30901699437495 
-0.5 -0.809016994374945 0 1.30901699437495 
-0.809016994374945 -1.30901699437495 0 0.5 
-1.61803398874989 0 0 0 
-1.30901699437495 0.5 0 0.809016994374945 
-1.30901699437495 0 0.809016994374945 0.5 
-1.30901699437495 -0.809016994374945 0.5 0 
-0.809016994374945 0 0.5 1.30901699437495 
-0.809016994374945 -0.809016994374945 0.809016994374945 -0.809016994374945 
-0.5 0 1.30901699437495 -0.809016994374945 
-1.30901699437495 0 0.809016994374945 -0.5 
0 -0.5 0.809016994374945 -1.30901699437495 
0 0 0 -1.61803398874989 
0 0.5 0.809016994374945 -1.30901699437495 
-0.5 0.809016994374945 0 -1.30901699437495 
-0.809016994374945 1.30901699437495 0 -0.5 
0 0.809016994374945 -1.30901699437495 -0.5 
0 1.61803398874989 0 0 
0 1.30901699437495 -0.5 0.809016994374945 
-0.809016994374945 1.30901699437495 0 0.5 
0.5 1.30901699437495 -0.809016994374945 0 
0 0.809016994374945 -1.30901699437495 0.5 
0.809016994374945 -0.809016994374945 -0.809016994374945 -0.809016994374945 
0.5 -1.30901699437495 -0.809016994374945 0 
0.5 0 -1.30901699437495 -0.809016994374945 
0 -1.30901699437495 -0.5 -0.809016994374945 
0 -0.5 -0.809016994374945 -1.30901699437495 
0 0 -1.61803398874989 0 
0 -0.809016994374945 -1.30901699437495 0.5 
-0.5 0 -1.30901699437495 -0.809016994374945 
-0.5 -1.30901699437495 -0.809016994374945 0 
-0.809016994374945 -0.809016994374945 0.809016994374945 0.809016994374945 
-0.5 0 1.30901699437495 0.809016994374945 
0 -0.809016994374945 1.30901699437495 0.5 
-0.5 -1.30901699437495 0.809016994374945 0 
0 -0.809016994374945 1.30901699437495 -0.5 
-0.809016994374945 0.5 1.30901699437495 0 
0.809016994374945 0.809016994374945 0.809016994374945 -0.809016994374945 
0.5 1.30901699437495 0.809016994374945 0 
0.809016994374945 1.30901699437495 0 -0.5 
0 0.809016994374945 1.30901699437495 -0.5 
0.5 0.809016994374945 0 -1.30901699437495 
-0.809016994374945 0.809016994374945 0.809016994374945 -0.809016994374945 
-0.5 1.30901699437495 0.809016994374945 0 
0 1.30901699437495 -0.5 -0.809016994374945 
-0.809016994374945 0.809016994374945 0.809016994374945 0.809016994374945 
0 1.30901699437495 0.5 0.809016994374945 
0 0.5 0.809016994374945 1.30901699437495 
-0.809016994374945 0.809016994374945 -0.809016994374945 0.809016994374945 
0 0.5 -0.809016994374945 1.30901699437495 
0.5 0.809016994374945 0 1.30901699437495 
0.809016994374945 -0.809016994374945 -0.809016994374945 0.809016994374945 
0.5 -0.809016994374945 0 1.30901699437495 
0.809016994374945 -1.30901699437495 0 0.5 
0 -1.30901699437495 0.5 0.809016994374945 
0.809016994374945 -0.809016994374945 0.809016994374945 -0.809016994374945 
1.30901699437495 -0.5 0 -0.809016994374945 
0.809016994374945 0 0.5 -1.30901699437495 
0 -1.30901699437495 0.5 -0.809016994374945 
0.809016994374945 0 -0.5 -1.30901699437495 
-0.5 -0.809016994374945 0 -1.30901699437495 
0.809016994374945 0.809016994374945 -0.809016994374945 0.809016994374945 
1.30901699437495 0 -0.809016994374945 0.5 
0.5 0 -1.30901699437495 0.809016994374945 
0.809016994374945 0.809016994374945 -0.809016994374945 -0.809016994374945 
1.30901699437495 0 -0.809016994374945 -0.5 
0.809016994374945 -0.5 -1.30901699437495 0 
0 0 1.61803398874989 0 
0.809016994374945 0.5 1.30901699437495 0 
0.5 0 1.30901699437495 0.809016994374945 
0.809016994374945 -0.809016994374945 0.809016994374945 0.809016994374945 
0.809016994374945 -0.5 1.30901699437495 0 
1.30901699437495 -0.809016994374945 0.5 0 
0 -1.61803398874989 0 0 
0.809016994374945 -1.30901699437495 0 -0.5 
1.30901699437495 0.5 0 0.809016994374945 
0 0 0 1.61803398874989 
0.809016994374945 0 0.5 1.30901699437495 
0 -0.5 -0.809016994374945 1.30901699437495 
1.30901699437495 -0.5 0 0.809016994374945 
1.30901699437495 0.809016994374945 0.5 0 
1.61803398874989 0 0 0 
1.30901699437495 0.809016994374945 -0.5 0 
0.809016994374945 0.809016994374945 0.809016994374945 0.809016994374945 
1.30901699437495 0 0.809016994374945 -0.5 
-1.30901699437495 0.809016994374945 0.5 0 
-1.30901699437495 -0.5 0 0.809016994374945 
-0.809016994374945 0 0.5 -1.30901699437495 
-1.30901699437495 0 -0.809016994374945 -0.5 
-0.5 1.30901699437495 -0.809016994374945 0 
-0.809016994374945 -1.30901699437495 0 -0.5 
-0.5 0 -1.30901699437495 0.809016994374945 
0 0.5 -0.809016994374945 -1.30901699437495 
0 -0.809016994374945 -1.30901699437495 -0.5 
-0.809016994374945 -0.5 1.30901699437495 0 
0 1.30901699437495 0.5 -0.809016994374945 
-0.5 0.809016994374945 0 1.30901699437495 
0 -1.30901699437495 -0.5 0.809016994374945 
0.5 -0.809016994374945 0 -1.30901699437495 
0.809016994374945 0.5 -1.30901699437495 0 
0 0.809016994374945 1.30901699437495 0.5 
0.5 -1.30901699437495 0.809016994374945 0 
0.809016994374945 0 -0.5 1.30901699437495 
1.30901699437495 0.5 0 -0.809016994374945 
1.30901699437495 -0.809016994374945 -0.5 0 
0.809016994374945 1.30901699437495 0 0.5 
0.5 0 1.30901699437495 -0.809016994374945 
0 -0.5 0.809016994374945 1.30901699437495 
1.30901699437495 0 0.809016994374945 0.5 

# Faces
3 0 2 1
3 0 1 3
3 0 2 4
5 0 4 5 8 3
3 6 7 5
3 6 8 5
3 5 4 7
5 1 2 7 6 9
3 9 3 1
3 2 4 7
3 9 8 3
3 9 8 6
3 11 12 10
5 10 11 15 14 6
3 10 13 12
3 10 13 6
3 15 16 14
3 14 17 16
3 14 6 17
3 18 12 11
3 18 15 11
5 18 16 17 13 12
3 18 16 15
3 17 13 6
3 19 21 20
3 20 22 19
3 21 7 19
5 7 19 22 23 4
3 23 24 25
3 24 22 23
3 23 25 4
5 24 25 2 21 20
3 24 22 20
3 7 21 2
3 4 25 2
3 1 26 0
5 31 27 0 26 28
3 0 3 27
3 28 30 29
3 28 31 29
3 30 26 28
5 3 32 29 30 1
3 29 32 31
3 26 1 30
3 32 27 31
3 32 3 27
5 34 39 38 35 33
3 33 34 36
3 33 37 35
3 33 37 36
3 35 40 38
3 39 8 38
3 38 40 8
3 39 41 34
3 34 41 36
3 35 40 37
3 39 8 41
5 40 8 41 36 37
3 43 44 42
3 43 16 42
3 42 44 45
5 19 45 42 16 21
3 19 20 46
3 19 46 45
5 47 43 44 46 20
3 47 16 43
3 20 47 21
3 47 21 16
3 44 45 46
3 48 49 50
3 48 51 49
3 50 52 48
5 48 52 25 53 51
3 53 54 51
3 54 26 53
3 53 26 25
5 54 49 50 55 26
3 49 51 54
3 55 52 50
3 55 25 26
3 55 52 25
3 56 57 58
5 59 15 56 57 29
3 56 58 18
3 15 56 18
3 29 60 59
3 60 11 59
3 11 59 15
3 61 58 57
3 61 29 57
5 11 60 61 58 18
3 29 60 61
3 62 64 63
5 10 39 62 63 12
3 62 34 64
3 39 62 34
3 13 41 10
3 39 10 41
3 63 65 12
3 64 65 63
3 12 65 13
5 41 13 65 64 34
3 67 68 66
5 67 33 36 69 66
3 66 22 68
3 66 69 22
3 67 70 33
3 37 70 33
3 68 70 67
5 70 37 71 22 68
3 22 71 69
3 69 36 71
3 37 71 36
5 31 72 73 76 75
3 73 74 72
3 31 32 72
3 72 74 32
3 31 27 75
3 75 35 76
3 27 35 75
3 76 77 73
3 73 77 74
3 76 35 77
5 27 35 77 74 32
3 56 54 57
3 56 43 58
5 54 51 78 43 56
3 79 80 78
3 79 51 78
3 80 43 78
5 49 57 58 80 79
3 49 79 51
3 54 57 49
3 80 58 43
3 82 83 81
3 81 82 44
3 83 64 81
5 44 45 84 64 81
3 84 64 85
3 84 85 69
3 84 69 45
5 82 46 69 85 83
3 46 82 44
3 83 64 85
3 46 69 45
3 73 86 72
5 87 60 72 86 88
3 72 74 60
3 88 63 87
3 87 89 63
3 87 60 89
3 86 88 90
3 86 73 90
3 88 63 90
5 63 90 73 74 89
3 60 74 89
3 48 91 50
5 48 68 67 92 91
3 48 68 52
3 92 93 91
3 92 76 93
3 67 76 92
3 91 93 50
5 50 52 70 76 93
3 70 76 67
3 70 52 68
3 94 86 91
3 94 79 91
3 88 94 86
5 82 79 94 88 81
3 90 81 88
3 81 90 83
5 90 86 91 95 83
3 91 79 95
3 79 95 82
3 82 83 95
3 54 47 53
3 47 21 53
5 26 53 21 14 1
3 15 1 14
3 16 21 14
5 54 47 16 15 30
3 26 30 54
3 1 15 30
5 5 6 13 84 36
3 5 7 71
3 71 36 5
3 84 13 45
3 69 36 84
3 13 45 17
5 71 7 17 45 69
3 6 7 17
5 74 60 59 3 38
3 11 9 59
3 9 59 3
3 39 74 38
3 8 38 3
3 11 89 60
5 9 11 89 39 8
3 89 39 74
3 55 52 75
3 75 27 55
5 35 75 52 23 37
3 23 52 25
3 23 4 37
5 25 4 40 27 55
3 35 27 40
3 40 37 4
5 64 62 73 92 83
3 73 62 77
3 34 77 62
3 92 83 67
3 76 73 92
3 83 67 85
5 76 77 34 85 67
3 64 85 34
5 94 91 50 28 57
3 94 86 61
3 61 57 94
3 28 57 29
3 31 50 28
3 93 86 91
5 31 93 86 61 29
3 50 31 93
3 95 82 66
3 68 95 66
5 20 78 82 66 22
3 79 82 78
3 51 20 78
5 51 24 68 95 79
3 20 24 51
3 22 24 68
5 42 43 58 87 12
3 42 44 65
3 12 65 42
3 87 88 58
3 63 87 12
3 80 58 88
5 63 65 44 80 88
3 44 80 43
3 15 1 96
5 96 15 97 17 21
3 2 96 1
3 21 2 96
3 9 15 1
3 15 9 97
3 17 97 6
3 9 6 97
3 7 21 17
3 53 98 21
3 25 98 53
3 26 25 0
3 1 99 0
5 0 25 98 7 99
3 14 99 1
3 21 7 14
3 14 7 99
3 21 7 98
3 59 100 30
5 9 14 96 30 59
3 3 100 59
3 2 14 96
3 14 2 99
3 99 9 14
3 26 100 30
3 30 26 96
5 26 100 3 99 2
3 96 2 26
3 9 3 99
5 17 19 98 2 14
3 19 17 101
3 19 98 71
3 19 101 71
3 6 99 14
3 6 101 17
3 2 4 98
3 2 4 99
3 4 71 98
5 101 6 99 4 71
3 11 102 59
3 15 59 1
5 102 59 1 99 8
3 10 11 102
3 102 8 10
3 6 10 8
3 6 8 99
3 55 100 26
3 25 2 26
3 55 27 100
3 27 100 3
3 27 40 3
3 99 40 3
3 4 99 40
3 97 9 10
3 13 97 10
5 99 9 10 41 5
3 7 99 5
3 5 101 7
3 5 101 41
3 9 14 97
5 97 14 7 101 13
3 13 101 41
3 0 103 25
3 0 40 103
3 99 40 0
3 99 40 5
5 5 40 103 23 71
3 25 98 23
3 25 103 23
3 71 23 98
3 7 71 98
3 100 32 59
3 59 100 1
3 102 32 59
3 0 1 100
5 38 40 0 100 32
3 32 102 38
3 8 102 38
3 8 40 99
3 101 41 6
3 6 41 8
3 36 101 41
3 71 101 36
3 71 4 37
3 10 102 9
3 39 102 10
3 5 41 104
3 40 104 5
3 9 3 102
5 40 104 39 102 3
3 39 104 41
3 0 103 27
3 4 103 0
3 5 104 8
3 4 37 5
3 5 104 37
3 27 38 3
5 103 27 38 104 37
3 38 104 8
3 37 103 4
5 53 20 105 16 96
3 53 98 20
3 2 53 96
3 98 53 2
3 19 20 105
3 19 17 105
3 20 98 19
3 16 96 14
3 17 105 16
3 53 54 106
3 53 96 54
5 0 2 53 106 55
3 100 0 55
3 28 106 54
5 54 96 1 100 28
3 106 55 28
3 100 28 55
3 107 30 56
5 107 56 16 97 11
3 30 56 96
3 96 16 56
3 30 107 59
3 59 107 11
3 14 97 16
3 9 11 97
3 16 97 42
3 97 13 42
3 45 13 42
3 45 101 19
3 19 101 7
3 13 101 45
3 30 107 29
3 29 60 107
3 15 107 30
5 60 102 9 15 107
3 32 60 29
3 32 102 60
3 3 102 32
3 53 24 106
3 53 98 24
3 0 103 55
3 52 106 55
3 106 24 52
3 55 103 52
5 24 98 4 103 52
3 10 13 108
5 10 108 34 104 8
3 36 104 5
3 84 13 108
3 84 108 34
3 36 84 34
3 34 104 36
3 23 109 70
3 23 103 70
3 71 109 23
5 36 109 70 35 104
3 70 35 103
3 71 109 36
3 40 35 103
3 40 104 35
3 32 102 74
3 74 77 39
3 39 102 74
3 77 104 35
3 104 77 39
3 22 19 69
3 101 69 19
5 109 37 5 101 69
3 22 109 23
3 23 37 109
3 22 109 69
3 11 89 12
3 11 12 97
3 12 108 89
5 97 12 108 41 6
3 39 108 89
3 39 41 108
3 38 32 110
3 38 35 110
3 55 31 100
3 32 31 100
5 55 103 35 110 31
3 31 32 110
3 56 96 54
3 56 96 15
3 59 29 100
3 57 54 28
3 28 100 29
5 56 47 105 42 18
3 56 47 96
3 42 18 97
3 105 42 17
3 97 42 17
3 47 21 105
3 47 96 21
3 15 97 18
3 17 105 21
5 26 106 51 47 96
3 20 51 47
3 24 51 106
3 26 25 106
3 25 106 24
3 85 109 33
5 104 33 85 84 41
3 37 33 109
3 37 104 33
3 69 84 101
3 41 84 101
3 69 109 85
5 62 77 38 102 89
3 89 108 62
3 62 108 34
3 10 102 89
3 108 10 89
3 104 38 77
3 77 104 34
5 70 75 110 77 33
3 27 110 75
3 103 75 70
3 27 103 75
3 104 77 33
3 38 110 77
3 38 27 110
3 37 103 70
5 21 105 46 22 98
3 45 105 46
3 17 105 45
3 69 22 46
3 22 98 71
3 31 50 75
5 25 106 50 75 103
3 28 50 106
3 28 26 106
5 97 10 89 87 18
3 87 107 18
3 87 107 60
3 18 107 15
3 89 102 60
3 12 97 42
5 101 17 42 65 84
3 84 108 65
3 108 41 84
3 12 65 108
3 60 72 29
5 100 29 72 110 27
3 74 110 72
3 74 110 38
3 52 24 68
3 52 103 70
3 24 22 98
5 30 28 49 111 56
3 56 47 111
3 106 49 28
3 49 111 51
3 49 106 51
3 51 47 111
3 54 111 57
5 57 107 18 43 111
3 54 57 30
3 107 57 30
3 47 111 54
3 43 111 47
3 16 18 43
3 16 56 43
3 53 20 51
3 43 105 78
3 78 105 20
3 16 105 43
3 64 65 112
3 85 112 64
3 112 65 45
5 85 36 101 45 112
3 13 65 45
3 34 85 36
3 62 113 73
3 62 113 89
5 60 113 73 110 32
3 60 113 89
3 77 110 73
3 75 76 114
3 75 114 52
5 114 76 33 109 68
3 35 76 33
3 68 23 52
3 23 68 109
3 52 114 68
3 66 46 112
5 19 46 66 109 71
3 85 66 112
3 109 66 85
3 45 46 112
3 109 36 85
3 93 110 31
3 93 76 110
3 55 31 50
3 35 76 110
3 76 70 35
3 62 113 63
3 113 74 62
3 62 74 39
3 87 63 113
5 102 74 113 87 11
3 12 87 11
3 44 105 42
5 105 19 69 112 44
3 84 112 65
3 84 112 69
3 65 44 112
3 72 61 113
5 72 32 59 107 61
3 74 72 113
3 113 61 87
3 87 61 107
3 107 87 11
3 50 114 48
3 50 106 48
5 24 48 114 70 23
3 106 48 24
3 75 50 114
3 75 70 114
3 85 115 33
3 77 115 33
3 64 108 84
3 85 115 64
5 39 77 115 64 108
3 85 109 67
3 70 67 109
5 74 110 76 115 62
3 62 115 34
3 33 115 76
3 34 115 33
3 49 116 57
3 49 50 116
5 30 57 116 31 100
3 50 31 116
5 53 24 117 78 47
3 47 78 105
3 117 46 78
3 105 78 46
3 22 117 46
3 22 117 24
3 56 107 58
3 87 58 107
3 61 116 72
3 72 116 31
3 61 116 57
3 61 107 57
3 43 18 118
5 43 105 45 65 118
3 18 118 12
3 65 118 12
3 48 117 51
3 48 117 68
5 23 68 117 20 98
3 20 117 51
3 116 93 72
3 72 116 29
3 110 72 93
5 55 28 116 93 75
3 110 93 75
3 28 29 116
3 46 117 66
3 68 117 66
3 66 109 68
3 46 117 20
3 42 118 18
5 13 42 118 63 108
3 18 87 118
3 87 63 118
3 89 108 63
3 67 83 66
3 66 112 83
3 69 112 66
3 33 67 115
5 84 112 83 115 34
3 67 115 83
3 75 93 114
5 93 114 67 115 73
3 110 73 93
3 70 114 67
3 73 115 77
3 73 90 115
3 64 90 63
3 115 64 90
3 64 108 63
3 116 49 94
5 29 107 58 94 116
3 49 94 111
3 94 58 111
3 56 58 111
3 49 116 28
3 48 117 79
5 106 48 79 111 54
3 24 48 117
3 79 111 78
3 78 117 79
3 47 78 111
3 42 44 118
5 111 78 44 118 58
3 78 44 105
3 18 118 58
3 61 86 113
3 86 93 73
3 86 113 73
3 61 113 60
3 63 81 118
3 44 81 118
3 63 81 64
3 114 95 48
3 48 117 95
3 114 67 95
5 109 22 117 95 67
3 116 91 49
3 91 116 93
5 106 49 91 114 52
3 91 114 93
3 66 112 82
3 82 78 44
3 44 82 112
3 61 88 58
3 61 113 88
3 58 88 118
5 89 113 88 118 12
5 92 93 72 113 90
3 113 90 62
3 115 90 62
3 90 92 115
3 76 115 92
5 81 65 108 62 90
3 83 81 112
3 112 65 81
3 83 115 90
5 66 85 115 92 95
3 95 114 92
3 92 114 76
3 95 114 68
3 72 116 86
5 50 114 92 86 116
3 86 92 73
3 82 117 95
3 83 67 95
3 82 117 46
3 81 118 88
3 118 81 65
3 88 90 113
3 94 111 79
3 57 94 111
3 91 79 48
5 61 87 118 80 94
3 94 111 80
3 43 111 80
3 43 118 80
5 111 80 82 117 51
3 82 80 44
3 94 86 116
3 88 58 94
3 79 49 91
3 91 114 95
3 118 80 81
5 80 81 112 46 78
3 81 119 83
5 113 63 81 119 86
3 86 119 92
3 83 119 92
3 92 119 90
3 95 119 92
5 64 112 82 119 90
3 95 119 82
3 92 119 91
5 116 91 119 88 61
3 88 119 90
5 83 66 117 79 119
3 79 119 91
3 88 119 80
3 80 119 82
3 86 94 119
5 95 48 49 94 119
3 80 94 119
3 80 119 81
3 80 119 79

# Cells
12 0 1 2 3 4 5 6 7 8 9 10 11
12 12 13 14 15 16 17 18 19 20 21 22 23
12 9 24 25 26 27 28 29 30 31 32 33 34
12 1 35 36 37 38 39 40 41 42 43 44 45
12 46 47 48 49 50 51 52 53 54 55 56 57
12 24 58 59 60 61 62 63 64 65 66 67 68
12 69 70 71 72 73 74 75 76 77 78 79 80
12 20 81 82 83 84 85 86 87 88 89 90 91
12 14 53 92 93 94 95 96 97 98 99 100 101
12 49 102 103 104 105 106 107 108 109 110 111 112
12 44 113 114 115 116 117 118 119 120 121 122 123
12 77 81 124 125 126 127 128 129 130 131 132 133
12 68 134 135 136 137 138 139 140 141 142 143 144
12 114 145 146 147 148 149 150 151 152 153 154 155
12 71 108 156 157 158 159 160 161 162 163 164 165
12 134 151 166 167 168 169 170 171 172 173 174 175
12 16 43 67 74 176 177 178 179 180 181 182 183
12 4 23 111 140 184 185 186 187 188 189 190 191
12 10 51 86 155 192 193 194 195 196 197 198 199
12 30 55 80 119 200 201 202 203 204 205 206 207
12 94 120 143 161 208 209 210 211 212 213 214 215
12 39 89 162 166 216 217 218 219 220 221 222 223
12 32 104 128 174 224 225 226 227 228 229 230 231
12 58 98 133 148 232 233 234 235 236 237 238 239
12 7 33 191 240 241 242 243 244 245 246 247 248
12 35 75 178 249 250 251 252 253 254 255 256 257
12 194 258 259 260 261 262 263 264 265 266 267 268
12 18 262 269 270 271 272 273 274 275 276 277 278
12 13 87 179 254 273 279 280 281 282 283 284 285
12 34 79 205 266 276 286 287 288 289 290 291 292
12 96 256 263 293 294 295 296 297 298 299 300 301
12 185 253 296 302 303 304 305 306 307 308 309 310
12 52 252 281 304 311 312 313 314 315 316 317 318
12 57 112 207 278 285 292 318 319 320 321 322 323
12 97 268 291 295 305 324 325 326 327 328 329 330
12 3 37 196 331 332 333 334 335 336 337 338 339
12 17 261 269 340 341 342 343 344 345 346 347 348
12 0 242 314 342 349 350 351 352 353 354 355 356
12 193 259 299 347 357 358 359 360 361 362 363 364
12 26 61 180 255 300 363 365 366 367 368 369 370
12 8 41 183 244 328 371 372 373 374 375 376 377
12 2 275 332 343 351 378 379 380 381 382 383 384
12 5 15 184 284 333 385 386 387 388 389 390 391
12 186 306 327 387 392 393 394 395 396 397 398 399
12 45 123 206 290 329 377 399 400 401 402 403 404
12 6 27 204 297 334 369 405 406 407 408 409 410
12 11 56 198 247 320 364 411 412 413 414 415 416
12 50 303 315 352 380 398 417 418 419 420 421 422
12 82 124 219 240 280 312 354 423 424 425 426 427
12 84 241 424 428 429 430 431 432 433 434 435 436
12 31 66 230 243 267 287 434 437 438 439 440 441
12 139 298 326 335 407 442 443 444 445 446 447 448
12 210 283 317 338 386 449 450 451 452 453 454 455
12 107 337 445 454 456 457 458 459 460 461 462 463
12 110 144 190 248 257 310 436 464 465 466 467 468
12 36 117 220 251 302 331 440 459 469 470 471 472
12 150 245 293 324 374 435 452 473 474 475 476 477
12 234 246 274 319 414 432 447 478 479 480 481 482
12 85 147 192 260 289 336 425 462 483 484 485 486
12 109 165 231 277 323 339 384 463 468 487 488 489
12 40 265 359 429 437 472 490 491 492 493 494 495
12 22 65 181 373 476 496 497 498 499 500 501 502
12 73 126 228 340 350 360 423 503 504 505 506 507
12 54 101 215 301 321 370 508 509 510 511 512 513
12 209 316 376 417 449 461 477 514 515 516 517 518
12 48 118 202 409 444 519 520 521 522 523 524 525
12 63 272 322 368 397 511 526 527 528 529 530 531
12 78 163 223 383 396 421 488 532 533 534 535 536
12 12 93 236 282 325 402 537 538 539 540 541 542
12 233 270 345 406 431 446 479 543 544 545 546 547
12 116 279 313 362 400 541 548 549 550 551 552 553
12 28 308 393 441 458 470 554 555 556 557 558 559
12 138 330 404 416 443 460 481 560 561 562 563 564
12 122 164 214 391 395 403 455 513 531 536 565 566
12 46 95 195 418 486 522 535 539 567 568 569 570
12 76 132 182 264 286 419 498 534 571 572 573 574
12 177 249 379 433 464 489 575 576 577 578 579 580
12 59 125 232 358 365 412 478 503 542 553 581 582
12 115 258 311 361 420 499 549 573 583 584 585 586
12 21 100 189 348 466 502 507 512 587 588 589 590
12 72 158 203 250 307 341 504 523 591 592 593 594
12 201 288 356 427 457 484 595 596 597 598 599 600
12 62 271 309 346 394 524 527 593 601 602 603 604
12 149 294 366 385 430 453 473 605 606 607 608 609
12 47 103 188 390 546 570 610 611 612 613 614 615
12 106 456 518 559 561 599 613 616 617 618 619 620
12 121 154 199 401 415 564 609 620 621 622 623 624
12 38 357 371 490 581 600 625 626 627 628 629 630
12 176 349 378 500 557 575 631 632 633 634 635 636
12 83 428 491 543 576 605 629 636 637 638 639 640
12 42 91 222 375 422 516 532 618 641 642 643 644
12 60 137 187 367 388 562 606 624 637 645 646 647
12 29 392 408 556 566 580 619 633 648 649 650 651
12 200 355 381 492 520 598 616 630 652 653 654 655
12 25 105 226 344 405 506 544 612 639 656 657 658
12 19 90 197 411 517 589 640 644 659 660 661 662
12 160 485 533 538 550 567 597 663 664 665 666 667
12 171 389 451 480 545 568 614 665 668 669 670 671
12 225 442 521 529 560 569 603 667 672 673 674 675
12 113 145 212 469 519 558 574 584 674 676 677 678
12 141 175 213 410 448 467 565 579 651 679 680 681
12 170 413 450 482 515 590 662 664 668 682 683 684
12 156 167 216 353 426 471 496 555 632 685 686 687
12 218 474 497 552 586 587 607 686 688 689 690 691
12 64 142 239 438 495 501 594 604 681 690 692 693
12 146 168 235 372 475 483 582 596 626 676 694 695
12 131 173 229 382 439 487 494 525 654 675 696 697
12 129 465 505 510 530 578 588 670 683 691 698 699
12 152 172 221 615 617 621 642 650 655 671 680 697
12 92 136 208 514 537 643 647 678 700 701 702 703
12 224 509 528 563 623 656 666 672 704 705 706 707
12 159 548 583 595 653 660 663 684 704 708 709 710
12 102 157 211 592 602 610 631 687 703 708 711 712
12 99 153 238 508 547 622 658 693 706 710 713 714
12 69 554 572 625 648 673 677 694 702 705 715 716
12 217 540 551 608 641 645 688 698 701 715 717 718
12 127 526 577 601 611 635 669 699 700 711 718 719
12 88 130 237 571 585 652 659 696 709 712 713 719
12 70 493 591 627 649 679 689 692 707 714 716 717
12 135 169 227 628 634 638 646 657 661 682 685 695
