# Generated using Miratope v0.5.0 (https://github.com/galoomba1/miratope-rs)
4OFF

# Vertices, Faces, Edges, Cells
24 96 72 24

# Vertices
0.5 0.5 0.5 0.5 
0.5 0.5 -0.5 -0.5 
0.5 -0.5 -0.5 0.5 
0.5 -0.5 0.5 -0.5 
0.5 0.5 0.5 -0.5 
0.5 0.5 -0.5 0.5 
0.5 -0.5 0.5 0.5 
0.5 -0.5 -0.5 -0.5 
-0.5 0.5 0.5 0.5 
-0.5 -0.5 -0.5 0.5 
-0.5 0.5 -0.5 -0.5 
0 0 0 1 
0 1 0 0 
-1 0 0 0 
0 0 -1 0 
-0.5 -0.5 0.5 0.5 
-0.5 0.5 0.5 -0.5 
-0.5 -0.5 -0.5 -0.5 
0 0 1 0 
0 0 0 -1 
0 -1 0 0 
-0.5 -0.5 0.5 -0.5 
1 0 0 0 
-0.5 0.5 -0.5 0.5 

# Faces
3 0 1 2
3 1 3 0
3 2 3 0
3 5 6 4
3 4 7 5
3 4 6 7
3 5 6 7
3 1 2 3
3 5 9 8
3 8 10 5
3 9 10 5
3 8 10 9
3 12 13 11
3 11 12 14
3 11 14 13
3 13 14 12
3 15 3 16
3 15 17 16
3 15 3 17
3 3 17 16
3 13 19 18
3 13 20 18
3 18 20 19
3 13 20 19
3 4 21 6
3 7 21 4
3 7 21 6
3 18 19 22
3 20 22 18
3 20 22 19
3 2 15 0
3 2 23 0
3 15 23 0
3 6 8 5
3 5 9 6
3 8 9 6
3 15 23 2
3 1 23 16
3 17 1 16
3 1 17 23
3 16 17 23
3 13 12 19
3 12 14 19
3 13 14 19
3 3 0 15
3 2 15 3
3 22 11 18
3 20 11 22
3 20 11 18
3 8 9 21
3 10 21 8
3 16 23 15
3 15 17 23
3 10 21 9
3 4 10 5
3 4 7 10
3 5 10 7
3 19 12 22
3 12 14 22
3 19 22 14
3 0 1 23
3 2 1 23
3 12 22 11
3 11 22 14
3 6 21 8
3 6 9 21
3 13 18 11
3 11 20 13
3 21 4 10
3 1 16 3
3 1 17 3
3 21 7 10
3 16 0 15
3 3 0 16
3 6 8 4
3 21 8 4
3 2 17 1
3 3 2 17
3 22 14 20
3 20 14 19
3 7 9 5
3 23 2 17
3 10 9 7
3 4 8 5
3 22 18 12
3 12 18 11
3 23 16 0
3 13 18 12
3 21 9 7
3 13 20 14
3 7 9 6
3 11 20 14
3 10 8 4
3 18 12 19
3 15 17 2
3 1 16 0

# Cells
8 0 1 2 3 4 5 6 7
8 8 9 10 11 12 13 14 15
8 16 17 18 19 20 21 22 23
8 5 22 24 25 26 27 28 29
8 8 30 31 32 33 34 35 36
8 15 37 38 39 40 41 42 43
8 2 28 30 44 45 46 47 48
8 11 17 40 49 50 51 52 53
8 4 42 54 55 56 57 58 59
8 0 13 31 58 60 61 62 63
8 21 35 48 49 64 65 66 67
8 19 25 38 55 68 69 70 71
8 16 24 44 64 72 73 74 75
8 7 29 59 70 76 77 78 79
8 10 39 56 61 76 80 81 82
8 3 33 46 62 74 83 84 85
8 12 32 51 66 72 85 86 87
8 23 43 53 71 79 82 88 89
8 6 34 47 63 78 80 90 91
8 20 41 50 68 75 87 92 93
8 14 36 52 67 81 89 91 94
8 1 27 57 69 73 84 93 95
8 9 37 54 60 83 86 92 95
8 18 26 45 65 77 88 90 94
