# Generated using Miratope v0.5.0 (https://github.com/galoomba1/miratope-rs)
4OFF

# Vertices, Faces, Edges, Cells
120 2400 1800 120

# Vertices
0.809016994374945 0.809016994374945 0.809016994374945 0.809016994374945 
0.809016994374945 0.809016994374945 -0.809016994374945 -0.809016994374945 
0.809016994374945 -0.809016994374945 -0.809016994374945 0.809016994374945 
0.809016994374945 -0.809016994374945 0.809016994374945 -0.809016994374945 
0.809016994374945 -1.30901699437495 0 0.5 
0.809016994374945 0.5 -1.30901699437495 0 
0.809016994374945 0 0.5 -1.30901699437495 
0.809016994374945 0.809016994374945 0.809016994374945 -0.809016994374945 
0.809016994374945 0.809016994374945 -0.809016994374945 0.809016994374945 
0.809016994374945 -0.809016994374945 0.809016994374945 0.809016994374945 
0.809016994374945 -0.809016994374945 -0.809016994374945 -0.809016994374945 
0.809016994374945 0 0.5 1.30901699437495 
0.809016994374945 -1.30901699437495 0 -0.5 
0.809016994374945 0.5 1.30901699437495 0 
0.809016994374945 0 -0.5 -1.30901699437495 
0.809016994374945 1.30901699437495 0 0.5 
0.809016994374945 -0.5 -1.30901699437495 0 
0.809016994374945 0 -0.5 1.30901699437495 
0.809016994374945 -0.5 1.30901699437495 0 
0.809016994374945 1.30901699437495 0 -0.5 
1.30901699437495 0.809016994374945 0.5 0 
0.5 0 1.30901699437495 0.809016994374945 
1.30901699437495 0.5 0 -0.809016994374945 
0 -0.809016994374945 1.30901699437495 0.5 
0.5 -0.809016994374945 0 -1.30901699437495 
0 -1.30901699437495 0.5 -0.809016994374945 
1.30901699437495 0.5 0 0.809016994374945 
0.5 -0.809016994374945 0 1.30901699437495 
0.5 0 1.30901699437495 -0.809016994374945 
0 -0.809016994374945 1.30901699437495 -0.5 
0 -1.30901699437495 0.5 0.809016994374945 
0 -1.61803398874989 0 0 
1.30901699437495 0 -0.809016994374945 0.5 
1.30901699437495 0 -0.809016994374945 -0.5 
0.5 -1.30901699437495 -0.809016994374945 0 
1.30901699437495 -0.809016994374945 -0.5 0 
0.5 -1.30901699437495 0.809016994374945 0 
0.5 0.809016994374945 0 -1.30901699437495 
0 0.5 0.809016994374945 -1.30901699437495 
0.5 1.30901699437495 0.809016994374945 0 
1.30901699437495 0.809016994374945 -0.5 0 
0 0.809016994374945 1.30901699437495 -0.5 
0 -0.5 0.809016994374945 -1.30901699437495 
0 0 1.61803398874989 0 
1.30901699437495 -0.5 0 0.809016994374945 
-0.5 -0.809016994374945 0 1.30901699437495 
-0.5 0 1.30901699437495 -0.809016994374945 
-1.30901699437495 0.809016994374945 0.5 0 
-1.30901699437495 0.5 0 0.809016994374945 
0 1.30901699437495 0.5 0.809016994374945 
-0.5 0.809016994374945 0 1.30901699437495 
-1.30901699437495 -0.5 0 0.809016994374945 
-1.30901699437495 -0.809016994374945 0.5 0 
0 0 0 1.61803398874989 
-0.5 1.30901699437495 0.809016994374945 0 
-0.5 -1.30901699437495 0.809016994374945 0 
-1.30901699437495 0 0.809016994374945 -0.5 
-0.809016994374945 0.809016994374945 0.809016994374945 -0.809016994374945 
-0.809016994374945 -0.809016994374945 0.809016994374945 0.809016994374945 
-1.30901699437495 0 0.809016994374945 0.5 
-0.809016994374945 0.809016994374945 0.809016994374945 0.809016994374945 
-0.809016994374945 -0.809016994374945 0.809016994374945 -0.809016994374945 
0 0.5 0.809016994374945 1.30901699437495 
1.30901699437495 0 0.809016994374945 0.5 
0 -0.5 0.809016994374945 1.30901699437495 
1.30901699437495 0 0.809016994374945 -0.5 
0 0.809016994374945 1.30901699437495 0.5 
-0.809016994374945 0.5 1.30901699437495 0 
-0.809016994374945 -1.30901699437495 0 0.5 
1.30901699437495 -0.809016994374945 0.5 0 
-0.809016994374945 0 0.5 1.30901699437495 
-0.809016994374945 0.809016994374945 -0.809016994374945 0.809016994374945 
0.5 0 -1.30901699437495 0.809016994374945 
-0.809016994374945 -0.809016994374945 -0.809016994374945 0.809016994374945 
0 -1.30901699437495 -0.5 0.809016994374945 
-0.5 0 -1.30901699437495 0.809016994374945 
0 1.30901699437495 -0.5 0.809016994374945 
-0.5 0 1.30901699437495 0.809016994374945 
-0.809016994374945 0 -0.5 1.30901699437495 
0 0.809016994374945 -1.30901699437495 0.5 
0 -0.809016994374945 -1.30901699437495 0.5 
1.61803398874989 0 0 0 
0.5 0.809016994374945 0 1.30901699437495 
0 0.5 -0.809016994374945 1.30901699437495 
0 1.30901699437495 0.5 -0.809016994374945 
-0.809016994374945 1.30901699437495 0 -0.5 
0.5 1.30901699437495 -0.809016994374945 0 
-0.5 1.30901699437495 -0.809016994374945 0 
-0.809016994374945 1.30901699437495 0 0.5 
0 1.30901699437495 -0.5 -0.809016994374945 
0 -0.5 -0.809016994374945 1.30901699437495 
-1.30901699437495 0.809016994374945 -0.5 0 
-1.30901699437495 0 -0.809016994374945 0.5 
0 1.61803398874989 0 0 
-0.809016994374945 -0.5 1.30901699437495 0 
-1.61803398874989 0 0 0 
1.30901699437495 -0.5 0 -0.809016994374945 
-0.5 0.809016994374945 0 -1.30901699437495 
-0.809016994374945 0 0.5 -1.30901699437495 
-1.30901699437495 0.5 0 -0.809016994374945 
0 0.809016994374945 -1.30901699437495 -0.5 
0 0 -1.61803398874989 0 
0.5 0 -1.30901699437495 -0.809016994374945 
-0.809016994374945 0.809016994374945 -0.809016994374945 -0.809016994374945 
-0.809016994374945 0.5 -1.30901699437495 0 
-0.809016994374945 -0.809016994374945 -0.809016994374945 -0.809016994374945 
-0.809016994374945 -1.30901699437495 0 -0.5 
-0.809016994374945 0 -0.5 -1.30901699437495 
-0.809016994374945 -0.5 -1.30901699437495 0 
-0.5 -0.809016994374945 0 -1.30901699437495 
-1.30901699437495 0 -0.809016994374945 -0.5 
-0.5 -1.30901699437495 -0.809016994374945 0 
-1.30901699437495 -0.809016994374945 -0.5 0 
-1.30901699437495 -0.5 0 -0.809016994374945 
0 0 0 -1.61803398874989 
0 -1.30901699437495 -0.5 -0.809016994374945 
-0.5 0 -1.30901699437495 -0.809016994374945 
0 -0.809016994374945 -1.30901699437495 -0.5 
0 0.5 -0.809016994374945 -1.30901699437495 
0 -0.5 -0.809016994374945 -1.30901699437495 

# Faces
3 0 1 2
3 0 1 3
3 2 3 0
3 0 4 5
3 4 6 0
3 0 5 6
3 7 8 9
3 7 10 8
3 9 10 7
3 11 5 7
3 7 5 12
3 8 9 10
3 13 4 8
3 4 14 8
3 9 15 6
3 9 16 6
3 1 3 2
3 1 13 12
3 2 15 14
3 3 16 11
3 2 23 20
3 2 24 20
3 2 22 21
3 2 21 25
3 22 25 2
3 2 23 24
3 10 20 27
3 20 29 10
3 10 26 28
3 10 30 26
3 28 30 10
3 31 11 28
3 31 32 21
3 31 21 6
3 31 28 33
3 20 29 27
3 23 24 20
3 26 6 23
3 11 28 33
3 32 24 30
3 35 29 0
3 0 37 35
3 0 36 33
3 0 33 38
3 29 37 0
3 36 38 0
3 9 39 33
3 9 41 40
3 9 40 24
3 41 24 9
3 9 42 33
3 43 37 26
3 43 44 24
3 19 24 43
3 37 12 43
3 26 41 36
3 37 12 26
3 39 33 42
3 40 38 12
3 35 37 29
3 29 45 0
3 0 47 45
3 0 48 46
3 46 30 0
3 0 47 29
3 48 30 0
3 49 46 9
3 9 50 41
3 9 50 52
3 9 52 41
3 46 51 9
3 53 47 13
3 53 52 18
3 53 54 52
3 47 55 53
3 30 50 13
3 47 55 13
3 49 51 46
3 54 51 29
3 45 29 47
3 0 3 57
3 3 58 0
3 0 58 57
3 0 59 36
3 0 38 59
3 9 60 7
3 9 61 7
3 7 60 61
3 62 36 7
3 36 56 7
3 60 61 9
3 39 59 9
3 9 59 42
3 60 38 63
3 38 55 60
3 3 57 58
3 39 56 3
3 62 55 57
3 63 42 58
3 11 67 3
3 11 68 3
3 3 27 66
3 66 52 3
3 3 68 67
3 3 27 52
3 13 70 61
3 13 4 61
3 61 66 69
3 66 45 61
3 70 4 61
3 63 70 31
3 31 59 11
3 70 46 31
3 67 45 63
3 70 46 63
3 4 70 13
3 11 68 67
3 46 68 69
3 2 71 0
3 2 58 0
3 0 58 71
3 0 48 72
3 30 72 0
3 8 60 9
3 9 73 8
3 8 60 73
3 21 48 8
3 48 74 8
3 60 73 9
3 49 72 9
3 9 51 72
3 26 30 60
3 60 30 75
3 2 71 58
3 2 21 51
3 71 26 74
3 58 75 49
3 0 45 35
3 0 35 79
3 0 4 78
3 0 78 5
3 0 79 45
3 9 78 15
3 9 50 40
3 9 80 40
3 9 80 50
3 16 78 9
3 62 79 81
3 81 80 76
3 64 80 81
3 79 74 81
3 15 35 64
3 15 78 16
3 79 74 62
3 5 74 50
3 45 79 35
3 58 63 83
3 58 63 34
3 82 69 58
3 58 82 80
3 69 80 58
3 58 83 34
3 73 23 82
3 73 35 82
3 62 32 73
3 62 36 73
3 73 36 32
3 31 63 72
3 32 78 31
3 63 72 70
3 63 34 83
3 23 35 82
3 21 35 83
3 70 36 80
3 13 8 70
3 8 85 13
3 21 84 8
3 70 85 8
3 8 48 84
3 71 84 26
3 11 19 71
3 67 71 11
3 19 67 71
3 71 84 77
3 53 67 20
3 53 13 86
3 67 87 53
3 20 77 85
3 20 87 67
3 77 84 26
3 26 87 70
3 13 85 70
3 7 88 11
3 62 7 32
3 7 87 62
3 32 87 7
3 7 5 88
3 54 1 63
3 63 1 83
3 13 88 1
3 1 88 17
3 1 54 83
3 81 83 66
3 81 62 84
3 81 83 89
3 63 54 83
3 5 84 63
3 54 79 11
3 11 5 88
3 66 83 89
3 26 60 28
3 60 26 89
3 63 86 60
3 38 86 60
3 60 89 28
3 21 76 57
3 21 22 57
3 57 62 86
3 57 65 86
3 57 76 22
3 26 88 43
3 82 22 43
3 43 22 85
3 37 88 26
3 26 89 28
3 63 37 76
3 21 76 22
3 21 88 38
3 0 87 90
3 0 87 59
3 0 59 90
3 0 79 47
3 45 8 66
3 54 8 64
3 8 92 54
3 8 64 92
3 8 91 45
3 11 93 59
3 93 92 17
3 77 92 93
3 59 75 93
3 11 75 59
3 45 91 66
3 77 90 91
3 87 59 90
3 11 71 68
3 66 71 27
3 66 71 52
3 68 71 67
3 27 52 71
3 11 73 88
3 73 11 94
3 73 47 82
3 73 23 47
3 49 23 95
3 66 95 83
3 66 30 95
3 95 90 23
3 11 94 88
3 67 30 82
3 49 23 90
3 88 52 90
3 0 57 71
3 85 94 0
3 78 85 0
3 78 94 0
3 57 71 58
3 21 57 51
3 76 57 51
3 39 64 71
3 56 71 39
3 64 56 71
3 82 41 58
3 82 91 58
3 58 41 91
3 93 53 43
3 93 95 43
3 53 95 93
3 53 95 43
3 72 96 0
3 0 30 96
3 33 90 0
3 0 90 36
3 8 21 96
3 64 65 8
3 65 34 8
3 64 34 8
3 8 74 96
3 53 20 36
3 53 34 40
3 53 18 34
3 53 36 16
3 64 72 20
3 36 16 20
3 21 96 74
3 30 16 65
3 30 96 72
3 0 96 46
3 4 94 0
3 0 94 6
3 11 7 94
3 44 77 7
3 44 25 7
3 7 25 77
3 12 94 7
3 66 30 81
3 81 25 41
3 81 25 64
3 81 42 30
3 41 96 11
3 11 12 94
3 30 42 66
3 77 42 4
3 30 96 46
3 66 69 8
3 66 37 8
3 8 69 37
3 8 84 96
3 82 69 1
3 49 1 44
3 1 28 49
3 44 28 1
3 41 69 1
3 28 93 11
3 21 93 32
3 21 93 6
3 33 93 28
3 82 41 69
3 82 84 33
3 21 96 84
3 0 85 6
3 37 47 0
3 29 60 20
3 19 60 18
3 19 98 60
3 60 18 98
3 60 97 29
3 65 98 93
3 93 98 77
3 93 6 56
3 20 97 29
3 6 56 21
3 65 97 94
3 94 6 85
3 13 58 88
3 58 98 13
3 49 58 28
3 58 99 49
3 58 98 88
3 28 99 58
3 61 85 13
3 21 61 84
3 21 61 48
3 48 61 84
3 49 38 95
3 84 95 62
3 84 29 95
3 13 98 88
3 49 23 38
3 29 99 70
3 0 87 38
3 0 89 46
3 0 89 48
3 76 7 77
3 77 99 7
3 7 99 76
3 56 87 7
3 15 48 43
3 43 19 99
3 43 99 50
3 43 97 48
3 77 38 15
3 15 97 48
3 62 56 87
3 56 89 50
3 59 87 38
3 2 58 3
3 62 2 65
3 62 2 55
3 65 2 55
3 77 3 26
3 26 74 3
3 77 74 3
3 13 17 58
3 13 12 58
3 17 58 12
3 43 53 81
3 43 31 81
3 81 31 53
3 43 31 53
3 39 83 9
3 9 49 22
3 9 22 72
3 33 83 9
3 62 2 86
3 65 86 2
3 2 76 22
3 53 39 69
3 53 39 5
3 53 35 86
3 33 76 13
3 13 86 35
3 39 33 83
3 0 71 1
3 0 33 87
3 2 1 71
3 49 75 1
3 44 75 1
3 20 50 2
3 20 100 2
3 2 50 100
3 16 71 11
3 19 16 71
3 93 81 53
3 93 101 81
3 53 101 81
3 93 101 53
3 0 89 96
3 0 89 72
3 0 79 37
3 82 35 7
3 76 7 44
3 7 44 102
3 7 76 102
3 7 100 35
3 63 93 72
3 93 65 102
3 93 102 17
3 93 14 72
3 72 14 63
3 82 100 35
3 44 14 79
3 37 79 35
3 63 34 1
3 80 1 82
3 69 1 80
3 34 1 83
3 20 79 10
3 63 10 86
3 10 90 63
3 10 79 27
3 101 15 27
3 82 101 22
3 101 82 4
3 101 96 27
3 27 79 20
3 83 4 20
3 15 96 27
3 22 79 34
3 63 60 90
3 17 60 18
3 60 18 68
3 17 68 60
3 60 90 55
3 82 4 43
3 43 44 68
3 43 50 68
3 43 4 51
3 63 50 94
3 63 90 55
3 82 4 51
3 44 78 55
3 78 94 4
3 82 23 7
3 82 47 7
3 7 94 88
3 47 7 23
3 20 57 23
3 18 57 15
3 57 70 15
3 57 18 70
3 57 23 50
3 63 70 93
3 70 46 93
3 20 50 23
3 20 46 88
3 60 61 103
3 60 73 103
3 60 73 61
3 60 104 68
3 98 68 60
3 60 104 98
3 57 105 71
3 57 105 58
3 57 70 104
3 104 106 57
3 71 105 58
3 71 68 107
3 58 98 108
3 103 73 61
3 103 67 106
3 70 108 61
3 88 107 73
3 73 99 77
3 73 25 77
3 73 23 109
3 47 109 73
3 99 25 73
3 47 105 45
3 46 48 105
3 46 30 105
3 29 47 105
3 30 105 48
3 92 31 77
3 77 31 98
3 31 110 46
3 77 99 25
3 77 92 98
3 45 25 110
3 57 92 62
3 57 112 50
3 57 112 23
3 55 92 57
3 61 91 66
3 54 92 61
3 61 92 64
3 61 91 45
3 88 45 43
3 45 113 43
3 66 55 99
3 62 91 68
3 62 55 92
3 50 68 99
3 24 57 20
3 25 57 21
3 22 57 25
3 24 57 23
3 96 61 21
3 61 37 66
3 69 37 61
3 67 114 20
3 20 114 36
3 39 114 69
3 69 94 114
3 20 36 67
3 39 23 96
3 25 37 67
3 6 67 9
3 67 106 9
3 9 6 106
3 24 52 9
3 58 41 69
3 58 41 109
3 58 12 98
3 98 31 65
3 31 56 6
3 13 24 56
3 13 98 12
3 21 12 52
3 41 24 52
3 7 10 103
3 7 10 61
3 61 103 7
3 99 102 7
3 25 99 7
3 7 102 25
3 3 1 57
3 1 3 105
3 57 1 105
3 28 1 99
3 99 115 1
3 3 105 57
3 84 102 3
3 3 102 113
3 57 25 116
3 61 10 103
3 10 28 113
3 103 22 115
3 61 116 84
3 104 14 57
3 57 14 106
3 24 100 57
3 57 100 112
3 112 24 57
3 61 14 85
3 91 37 61
3 61 117 37
3 61 117 91
3 61 108 14
3 95 117 89
3 38 100 95
3 100 115 95
3 95 117 42
3 85 108 14
3 42 112 85
3 89 42 117
3 24 108 89
3 104 14 106
3 3 118 56
3 3 111 56
3 52 97 3
3 3 117 97
3 52 117 3
3 118 111 3
3 29 97 10
3 55 10 38
3 10 38 110
3 10 55 110
3 10 112 97
3 31 116 56
3 110 14 31
3 46 110 14
3 46 118 112
3 29 111 14
3 29 97 112
3 56 111 118
3 13 1 98
3 49 1 99
3 1 98 88
3 103 67 15
3 6 103 15
3 22 103 49
3 46 103 49
3 67 6 103
3 13 86 114
3 47 114 13
3 67 87 114
3 15 67 6
3 87 98 22
3 19 104 60
3 60 110 86
3 38 60 110
3 71 118 39
3 71 107 19
3 56 71 118
3 95 76 118
3 95 41 118
3 56 39 118
3 39 98 100
3 49 38 100
3 56 49 104
3 98 104 19
3 9 61 73
3 78 9 67
3 78 106 9
3 29 27 60
3 60 112 27
3 29 60 112
3 21 74 61
3 48 61 74
3 62 56 73
3 36 56 73
3 43 95 31
3 53 31 95
3 71 111 56
3 52 97 71
3 97 71 117
3 52 71 117
3 118 111 71
3 87 73 56
3 73 100 47
3 73 56 119
3 109 100 73
3 101 85 109
3 97 101 48
3 51 109 101
3 101 106 97
3 85 109 51
3 85 119 52
3 51 117 87
3 87 56 119
3 52 103 50
3 80 103 50
3 103 59 83
3 83 111 103
3 103 59 111
3 52 80 103
3 59 105 87
3 45 79 105
3 59 105 90
3 47 105 79
3 50 101 99
3 50 101 68
3 88 45 101
3 45 101 113
3 52 80 50
3 80 113 87
3 58 80 91
3 58 109 91
3 58 99 75
3 75 115 58
3 99 115 58
3 80 109 58
3 48 116 61
3 61 116 74
3 31 116 78
3 59 31 75
3 75 107 31
3 78 116 56
3 99 78 117
3 45 117 91
3 45 115 56
3 80 109 91
3 41 103 52
3 24 103 41
3 106 6 103
3 52 24 103
3 85 105 6
3 6 105 94
3 37 105 29
3 47 37 105
3 41 25 95
3 95 29 119
3 41 25 118
3 7 109 23
3 47 109 7
3 3 97 66
3 84 3 77
3 3 77 113
3 18 52 114
3 52 114 54
3 47 114 55
3 25 97 13
3 52 97 66
3 3 105 58
3 3 107 67
3 68 107 3
3 28 115 58
3 36 105 59
3 38 105 59
3 38 105 36
3 43 95 114
3 43 114 31
3 31 114 95
3 57 15 104
3 57 86 92
3 78 15 103
3 39 103 83
3 59 39 103
3 79 95 62
3 83 89 95
3 78 15 67
3 15 104 70
3 70 79 39
3 67 89 92
3 1 57 0
3 42 1 63
3 54 1 42
3 3 66 40
3 3 97 40
3 15 14 57
3 18 57 14
3 93 81 43
3 93 114 81
3 43 114 81
3 43 114 93
3 20 27 60
3 20 60 79
3 60 90 86
3 79 60 27
3 39 32 71
3 71 40 27
3 71 32 64
3 78 93 32
3 39 32 64
3 30 28 60
3 28 60 113
3 60 30 113
3 57 106 18
3 57 51 25
3 95 25 64
3 30 95 42
3 21 51 25
3 21 42 68
3 66 98 51
3 98 68 18
3 69 8 45
3 8 70 4
3 2 70 15
3 18 70 2
3 23 50 2
3 49 23 81
3 90 81 23
3 20 100 57
3 65 119 57
3 57 86 119
3 39 103 33
3 42 103 39
3 24 40 103
3 33 103 42
3 93 107 33
3 20 24 100
3 20 102 42
3 65 98 102
3 41 1 109
3 69 109 1
3 12 1 98
3 20 97 10
3 19 98 10
3 18 98 10
3 41 118 81
3 84 81 29
3 29 119 81
3 20 118 12
3 57 116 51
3 57 119 55
3 92 119 57
3 51 103 46
3 59 103 42
3 103 51 115
3 111 42 103
3 94 111 114
3 91 111 114
3 114 108 55
3 91 111 94
3 92 115 94
3 91 119 46
3 51 115 46
3 25 116 51
3 66 97 71
3 77 71 113
3 84 71 113
3 49 103 51
3 46 93 110
3 49 92 97
3 9 115 22
3 72 115 9
3 24 80 9
3 3 102 26
3 3 40 27
3 117 40 3
3 74 102 3
3 31 102 65
3 31 102 17
3 72 14 31
3 14 80 26
3 74 102 26
3 63 24 74
3 40 80 24
3 1 91 80
3 109 1 91
3 75 99 1
3 1 115 75
3 80 1 109
3 89 75 10
3 79 97 10
3 79 112 10
3 113 75 10
3 87 112 114
3 114 5 91
3 114 112 16
3 16 112 87
3 89 109 16
3 89 75 113
3 14 104 2
3 14 106 2
3 2 100 24
3 2 112 100
3 104 2 106
3 24 112 2
3 35 100 73
3 5 12 73
3 73 107 5
3 73 12 107
3 31 107 33
3 75 106 35
3 100 109 35
3 33 107 75
3 104 33 109
3 10 8 103
3 8 10 73
3 73 103 8
3 8 92 34
3 8 118 92
3 8 118 34
3 1 2 105
3 1 105 71
3 34 110 1
3 71 2 105
3 86 2 92
3 92 119 2
3 71 32 118
3 103 10 73
3 86 110 10
3 73 119 32
3 61 34 65
3 65 118 61
3 61 69 117
3 34 61 118
3 37 35 105
3 33 105 36
3 33 105 38
3 65 118 34
3 102 38 69
3 29 34 107
3 88 7 107
3 7 107 5
3 57 116 76
3 39 5 114
3 40 104 114
3 114 54 104
3 91 102 15
3 14 15 104
3 91 5 39
3 39 14 99
3 76 99 102
3 0 85 5
3 54 65 8
3 8 118 65
3 54 118 8
3 8 85 14
3 49 81 38
3 76 118 81
3 100 81 38
3 13 85 14
3 54 100 6
3 38 33 87
3 71 102 26
3 84 71 102
3 72 103 49
3 22 72 103
3 88 101 26
3 26 37 101
3 22 101 85
3 84 102 26
3 88 72 118
3 58 54 83
3 58 54 110
3 58 110 83
3 62 87 73
3 73 99 76
3 54 53 104
3 87 112 53
3 49 75 99
3 52 75 62
3 54 104 52
3 7 8 60
3 7 103 8
3 60 103 7
3 7 47 100
3 60 103 8
3 91 37 8
3 97 79 60
3 71 57 1
3 91 1 82
3 19 60 17
3 17 104 60
3 75 89 60
3 53 104 40
3 53 91 5
3 26 54 78
3 75 89 26
3 40 75 85
3 78 85 5
3 9 67 15
3 46 22 9
3 26 84 3
3 3 19 67
3 36 32 7
3 35 23 7
3 39 32 3
3 64 3 32
3 15 43 27
3 27 96 43
3 94 7 107
3 89 60 113
3 93 114 95
3 58 28 44
3 94 69 53
3 55 110 60
3 97 60 112
3 42 110 58
3 43 109 85
3 51 109 43
3 43 106 97
3 42 110 54
3 112 79 60
3 88 17 58
3 58 108 17
3 80 95 76
3 80 95 64
3 79 95 74
3 82 80 91
3 82 104 74
3 68 17 104
3 59 83 9
3 9 111 83
3 59 9 111
3 52 80 9
3 62 92 2
3 2 112 50
3 2 92 55
3 17 31 92
3 11 55 80
3 90 110 60
3 60 113 75
3 64 111 71
3 71 113 74
3 94 111 53
3 91 111 53
3 55 108 53
3 77 113 74
3 94 110 74
3 90 110 55
3 39 118 3
3 118 3 32
3 26 89 10
3 63 10 38
3 86 10 38
3 86 114 35
3 88 45 26
3 69 8 117
3 8 117 37
3 65 2 119
3 24 101 44
3 24 101 19
3 37 12 101
3 34 100 26
3 7 119 32
3 36 119 7
3 44 115 1
3 34 42 1
3 34 114 40
3 18 114 34
3 16 114 36
3 63 25 16
3 42 34 63
3 44 25 102
3 88 108 1
3 108 1 98
3 102 71 113
3 79 37 105
3 93 101 95
3 101 114 93
3 114 101 95
3 7 119 87
3 56 7 119
3 100 7 109
3 1 54 110
3 1 110 42
3 56 93 116
3 14 93 110
3 96 116 8
3 8 108 4
3 8 108 14
3 74 116 8
3 17 108 1
3 1 12 108
3 81 90 115
3 81 119 74
3 100 115 81
3 75 115 44
3 96 74 116
3 90 116 12
3 100 115 90
3 15 103 16
3 40 103 80
3 16 103 78
3 93 116 78
3 82 16 92
3 92 102 17
3 76 73 102
3 88 5 73
3 99 102 73
3 85 5 105
3 78 105 5
3 48 105 89
3 89 105 72
3 48 72 105
3 76 118 80
3 84 116 8
3 48 116 8
3 15 101 48
3 99 101 19
3 15 75 118
3 92 118 54
3 3 105 2
3 22 2 116
3 25 2 116
3 3 32 111
3 4 105 5
3 4 105 6
3 6 5 105
3 81 31 101
3 31 81 114
3 81 101 114
3 114 101 31
3 75 107 93
3 50 112 100
3 113 100 78
3 12 7 107
3 43 106 96
3 43 113 12
3 55 119 65
3 96 107 55
3 97 96 106
3 94 12 107
3 19 107 3
3 13 14 61
3 61 118 54
3 24 99 19
3 92 118 61
3 87 105 38
3 70 108 8
3 8 108 85
3 72 103 51
3 82 73 100
3 95 101 53
3 15 2 104
3 70 104 2
3 11 5 73
3 45 104 32
3 68 16 71
3 44 68 101
3 4 101 51
3 11 34 51
3 16 68 11
3 92 34 64
3 6 103 16
3 76 2 116
3 26 10 75
3 19 104 10
3 10 104 17
3 81 117 89
3 35 109 7
3 10 61 9
3 9 115 46
3 55 10 63
3 4 14 61
3 45 117 8
3 10 73 9
3 33 9 111
3 10 75 30
3 12 73 11
3 53 31 101
3 117 40 71
3 27 117 71
3 74 102 71
3 44 102 73
3 53 108 35
3 40 104 34
3 3 107 16
3 42 117 81
3 97 40 117
3 98 104 10
3 8 117 91
3 71 107 16
3 97 108 33
3 103 16 106
3 101 96 106
3 101 12 113
3 98 96 111
3 33 111 42
3 98 108 12
3 115 72 103
3 103 24 80
3 79 35 105
3 72 105 96
3 114 35 108
3 17 10 68
3 27 112 10
3 104 10 68
3 4 105 78
3 35 116 68
3 51 116 2
3 16 112 53
3 73 10 61
3 68 10 98
3 61 34 92
3 73 102 25
3 95 101 31
3 90 115 95
3 95 119 74
3 78 16 106
3 102 90 106
3 107 16 68
3 2 105 58
3 70 2 106
3 34 58 110
3 30 105 72
3 18 2 106
3 2 25 51
3 44 73 25
3 94 12 73
3 18 52 34
3 61 34 64
3 4 108 61
3 4 105 94
3 90 105 36
3 80 25 64
3 51 115 9
3 9 106 16
3 58 115 44
3 58 12 108
3 55 108 35
3 64 111 3
3 16 68 3
3 18 68 10
3 90 55 10
3 9 111 42
3 2 119 55
3 29 119 74
3 42 34 58
3 74 61 96
3 24 68 44
3 3 74 113
3 73 36 119
3 30 113 10
3 30 105 96
3 12 113 45
3 19 16 11
3 15 18 14
3 13 12 17
3 9 16 15
3 7 11 12
3 13 14 8
3 18 17 19
3 15 16 6
3 4 14 13
3 1 13 17
3 3 16 19
3 11 12 5
3 2 18 15
3 1 12 17
3 11 19 3
3 2 14 18
3 5 6 4
3 10 18 19
3 10 17 19
3 10 17 18
3 32 30 13
3 26 34 6
3 13 27 33
3 11 29 34
3 31 32 6
3 10 27 29
3 11 34 22
3 13 25 33
3 13 32 24
3 11 33 31
3 23 34 6
3 27 25 13
3 26 34 23
3 13 24 30
3 29 34 22
3 26 30 28
3 21 25 22
3 22 29 11
3 21 6 32
3 27 33 25
3 43 26 12
3 44 14 39
3 40 12 21
3 26 14 41
3 21 19 42
3 9 39 42
3 19 35 21
3 44 19 43
3 36 14 26
3 38 12 21
3 44 14 29
3 40 38 21
3 21 35 42
3 39 29 14
3 41 36 14
3 39 44 29
3 19 24 44
3 40 41 24
3 35 42 19
3 33 36 38
3 53 55 13
3 11 51 54
3 13 50 56
3 11 41 55
3 49 56 18
3 9 49 51
3 29 54 11
3 53 18 54
3 48 55 11
3 13 56 30
3 45 56 18
3 11 41 48
3 11 51 29
3 49 56 45
3 30 56 50
3 49 18 45
3 18 54 52
3 50 52 41
3 41 55 48
3 46 48 30
3 63 54 42
3 65 55 62
3 64 56 39
3 63 55 60
3 62 56 7
3 65 64 54
3 38 55 63
3 39 42 59
3 3 64 39
3 57 55 65
3 62 56 36
3 63 54 58
3 3 56 64
3 62 65 57
3 58 42 54
3 38 59 36
3 61 65 54
3 61 54 64
3 61 65 64
3 69 46 62
3 63 45 25
3 62 4 28
3 13 25 59
3 31 59 28
3 61 69 45
3 62 52 28
3 31 46 63
3 63 67 25
3 62 68 46
3 27 25 59
3 62 69 68
3 62 52 4
3 67 25 45
3 13 27 59
3 11 59 28
3 66 45 69
3 66 52 27
3 4 52 28
3 49 75 44
3 77 74 26
3 21 51 76
3 60 75 26
3 8 74 21
3 77 76 44
3 30 75 26
3 49 72 51
3 71 77 26
3 2 51 76
3 21 74 48
3 21 76 2
3 58 44 75
3 58 44 49
3 71 74 77
3 48 72 30
3 44 77 73
3 73 44 76
3 73 76 77
3 62 74 81
3 63 16 76
3 50 74 63
3 62 75 40
3 15 75 64
3 45 76 63
3 76 64 81
3 63 74 5
3 4 75 62
3 35 75 64
3 63 50 5
3 35 75 15
3 63 16 45
3 40 75 4
3 62 40 4
3 40 50 80
3 64 80 76
3 76 45 16
3 4 78 5
3 26 23 78
3 21 35 68
3 36 70 26
3 68 72 62
3 73 23 35
3 70 72 31
3 21 83 68
3 34 78 26
3 26 70 80
3 31 78 21
3 69 68 72
3 26 80 36
3 83 35 68
3 21 32 78
3 82 80 69
3 36 32 62
3 62 69 72
3 34 78 23
3 77 83 20
3 26 87 41
3 41 86 11
3 53 86 47
3 19 47 83
3 20 83 85
3 20 87 53
3 21 47 83
3 41 86 48
3 41 87 70
3 41 70 26
3 21 83 19
3 83 85 77
3 21 19 47
3 13 47 86
3 11 67 19
3 11 86 48
3 21 84 48
3 50 84 63
3 17 22 66
3 13 89 50
3 79 84 81
3 22 79 54
3 81 89 66
3 22 79 11
3 22 87 66
3 32 89 50
3 50 5 84
3 13 32 50
3 11 22 54
3 22 87 17
3 17 88 13
3 32 89 13
3 17 87 66
3 62 87 32
3 79 84 62
3 82 67 65
3 62 85 40
3 21 88 40
3 76 67 37
3 43 88 37
3 43 85 82
3 63 37 67
3 82 67 89
3 40 85 28
3 38 88 40
3 67 76 63
3 62 40 28
3 65 67 89
3 82 85 22
3 38 86 63
3 82 89 65
3 65 86 62
3 62 28 85
3 93 11 75
3 15 77 91
3 17 51 66
3 66 91 8
3 15 77 90
3 93 77 17
3 75 47 15
3 51 79 11
3 17 87 51
3 15 64 47
3 15 91 90
3 87 51 66
3 51 79 54
3 77 92 17
3 64 92 54
3 64 47 75
3 47 79 45
3 30 92 82
3 21 90 88
3 49 94 92
3 88 94 73
3 83 30 95
3 27 92 49
3 21 90 52
3 49 90 95
3 67 92 30
3 21 88 52
3 82 67 92
3 21 68 47
3 27 94 92
3 82 23 47
3 27 94 49
3 66 83 30
3 83 68 47
3 82 91 41
3 93 56 21
3 53 91 39
3 43 82 51
3 94 78 85
3 41 64 95
3 93 78 56
3 21 93 78
3 95 41 76
3 53 94 91
3 39 94 53
3 64 95 76
3 43 51 85
3 76 64 41
3 39 94 91
3 82 51 85
3 21 56 78
3 65 16 82
3 20 64 12
3 20 16 53
3 82 74 18
3 82 18 33
3 18 40 53
3 20 72 12
3 82 30 16
3 40 12 90
3 65 30 82
3 82 74 33
3 21 90 12
3 72 12 64
3 21 90 40
3 40 34 18
3 65 34 64
3 18 33 74
3 33 36 90
3 81 42 66
3 44 55 66
3 20 77 42
3 20 46 64
3 64 81 41
3 20 4 42
3 66 6 55
3 41 96 55
3 20 4 77
3 20 12 46
3 55 96 11
3 44 6 55
3 66 44 6
3 44 25 77
3 64 25 41
3 64 46 12
3 6 94 4
3 49 32 18
3 41 1 82
3 44 6 86
3 32 93 6
3 86 96 11
3 11 93 33
3 66 86 6
3 32 37 18
3 18 33 84
3 82 18 84
3 44 86 66
3 18 37 49
3 86 96 41
3 49 44 28
3 49 37 32
3 66 37 69
3 65 97 49
3 60 20 97
3 94 65 49
3 93 77 65
3 49 56 37
3 21 47 42
3 77 42 85
3 20 42 85
3 94 97 49
3 19 42 47
3 19 98 18
3 65 98 77
3 18 37 56
3 37 47 29
3 39 48 23
3 21 52 38
3 29 70 39
3 62 85 52
3 70 61 85
3 95 23 38
3 29 99 39
3 39 98 23
3 95 62 29
3 38 52 88
3 48 98 39
3 70 99 39
3 28 85 52
3 49 28 99
3 62 84 29
3 23 48 98
3 13 97 76
3 15 97 43
3 62 91 19
3 19 50 43
3 13 59 97
3 91 38 15
3 19 46 91
3 59 76 13
3 13 56 89
3 62 46 91
3 77 38 91
3 62 19 46
3 19 99 50
3 77 99 76
3 76 59 97
3 46 48 89
3 35 45 29
3 53 13 35
3 17 77 31
3 81 74 29
3 62 29 81
3 65 17 31
3 43 12 45
3 43 26 45
3 65 77 31
3 55 35 53
3 17 65 77
3 55 35 13
3 12 45 26
3 74 29 62
3 13 27 76
3 69 19 62
3 65 5 27
3 53 5 69
3 27 5 49
3 69 72 19
3 35 19 83
3 27 65 49
3 62 19 72
3 27 33 76
3 65 5 49
3 39 5 69
3 49 72 22
3 20 100 50
3 81 100 49
3 90 33 87
3 19 50 101
3 81 90 100
3 90 81 49
3 44 19 101
3 87 16 53
3 44 50 101
3 75 33 93
3 19 44 50
3 20 16 87
3 11 33 75
3 49 90 100
3 93 14 63
3 17 100 39
3 7 82 100
3 39 96 17
3 93 17 65
3 16 37 63
3 39 79 14
3 65 16 89
3 39 79 44
3 96 100 39
3 89 16 82
3 76 16 37
3 65 102 17
3 44 102 76
3 96 100 17
3 96 89 72
3 4 102 20
3 90 102 15
3 101 22 4
3 10 90 86
3 101 96 15
3 69 102 15
3 11 80 96
3 4 102 83
3 11 86 80
3 20 102 83
3 34 79 11
3 69 90 102
3 86 90 63
3 90 69 15
3 82 4 22
3 96 80 86
3 66 78 44
3 43 50 44
3 51 36 66
3 82 59 74
3 50 94 74
3 17 36 66
3 74 94 63
3 66 78 55
3 74 59 18
3 82 59 18
3 17 68 18
3 50 68 44
3 51 36 17
3 36 90 59
3 15 28 64
3 50 57 20
3 59 93 28
3 84 59 18
3 63 84 94
3 63 46 93
3 84 59 82
3 47 28 64
3 46 88 64
3 20 88 64
3 50 94 84
3 18 70 15
3 15 47 28
3 88 107 94
3 70 108 85
3 67 106 78
3 58 108 88
3 57 70 106
3 71 107 67
3 98 108 88
3 67 68 107
3 103 67 78
3 85 108 61
3 70 104 106
3 78 106 103
3 94 107 73
3 68 98 104
3 85 105 94
3 78 105 94
3 85 105 78
3 45 110 67
3 70 29 111
3 29 105 45
3 48 111 98
3 31 98 92
3 99 111 70
3 92 109 67
3 23 111 98
3 67 110 25
3 31 70 110
3 23 111 48
3 67 30 109
3 99 111 29
3 23 47 109
3 70 46 110
3 30 109 92
3 66 78 99
3 54 78 113
3 43 68 99
3 46 68 91
3 43 113 88
3 88 46 112
3 78 113 23
3 78 99 55
3 23 54 78
3 46 112 64
3 54 113 23
3 88 112 64
3 23 112 50
3 88 45 113
3 39 96 98
3 66 98 36
3 96 61 84
3 114 36 67
3 94 24 63
3 39 114 94
3 22 36 98
3 22 98 66
3 63 37 25
3 63 24 84
3 23 98 96
3 94 69 39
3 66 22 36
3 84 24 94
3 77 38 69
3 21 31 56
3 30 109 65
3 58 69 109
3 65 30 67
3 38 106 77
3 24 56 30
3 69 106 38
3 38 12 52
3 65 109 67
3 69 109 41
3 77 69 106
3 106 6 67
3 96 116 84
3 46 115 22
3 28 113 89
3 57 116 22
3 3 113 84
3 1 28 115
3 96 89 46
3 25 116 22
3 84 113 102
3 103 22 46
3 89 113 10
3 28 115 99
3 28 89 10
3 96 116 61
3 46 115 103
3 99 25 102
3 46 96 105
3 89 105 96
3 89 105 46
3 38 91 102
3 56 115 37
3 85 102 42
3 89 56 108
3 38 115 95
3 56 24 89
3 89 42 95
3 106 102 38
3 104 115 56
3 42 112 102
3 102 112 85
3 56 104 37
3 102 106 91
3 24 108 56
3 91 117 37
3 38 91 106
3 38 100 115
3 37 115 104
3 24 112 100
3 29 14 99
3 46 12 112
3 55 6 99
3 38 116 12
3 10 112 29
3 31 6 116
3 12 118 46
3 46 14 31
3 6 117 99
3 52 116 12
3 111 14 99
3 55 117 99
3 12 118 112
3 6 116 56
3 52 116 38
3 6 117 55
3 38 55 110
3 97 52 117
3 20 118 46
3 47 118 15
3 47 114 86
3 66 99 86
3 87 114 20
3 20 118 88
3 87 98 66
3 28 118 47
3 15 118 28
3 66 6 99
3 88 118 46
3 49 22 46
3 86 99 6
3 39 48 100
3 49 100 95
3 48 107 41
3 37 104 49
3 37 110 76
3 98 100 48
3 86 107 48
3 37 110 67
3 67 19 107
3 41 107 86
3 41 118 76
3 76 110 67
3 38 110 86
3 29 112 27
3 48 27 43
3 53 112 36
3 67 36 53
3 62 95 74
3 48 106 43
3 27 106 43
3 78 31 56
3 67 112 53
3 29 95 74
3 67 36 112
3 27 48 106
3 75 106 47
3 87 98 51
3 85 119 75
3 106 101 48
3 73 119 87
3 85 52 75
3 51 101 85
3 51 117 98
3 75 106 118
3 87 117 98
3 75 118 47
3 75 119 52
3 98 111 100
3 48 106 97
3 47 118 106
3 48 100 111
3 47 100 109
3 87 113 70
3 90 116 88
3 70 79 99
3 87 105 90
3 47 116 68
3 99 101 68
3 52 116 88
3 83 116 68
3 80 113 70
3 88 113 101
3 83 116 47
3 111 79 70
3 70 87 80
3 90 116 52
3 59 111 83
3 99 79 111
3 74 104 59
3 55 107 48
3 45 104 56
3 55 78 117
3 59 107 31
3 61 45 117
3 59 104 109
3 55 80 107
3 104 45 115
3 48 55 80
3 74 104 109
3 75 107 59
3 48 80 107
3 48 116 74
3 74 109 59
3 115 75 99
3 84 110 94
3 85 119 28
3 110 37 25
3 95 25 118
3 24 110 84
3 52 119 28
3 118 106 28
3 95 119 84
3 47 28 106
3 94 110 24
3 29 119 84
3 55 114 13
3 113 6 54
3 18 114 54
3 23 54 6
3 18 109 59
3 6 113 23
3 84 109 59
3 59 97 25
3 84 109 18
3 84 77 113
3 23 24 112
3 24 99 43
3 36 112 114
3 24 68 43
3 95 115 23
3 114 112 67
3 31 107 28
3 59 107 28
3 38 115 23
3 99 24 68
3 39 79 99
3 79 95 84
3 89 92 82
3 82 84 104
3 66 95 89
3 59 82 104
3 99 78 86
3 39 83 59
3 86 92 62
3 86 78 66
3 59 84 104
3 97 40 66
3 18 40 114
3 93 46 14
3 43 96 15
3 81 89 42
3 114 40 54
3 97 96 43
3 18 54 40
3 15 97 96
3 46 14 63
3 66 42 89
3 44 70 39
3 66 40 71
3 72 93 70
3 64 72 88
3 72 88 20
3 44 78 86
3 44 70 79
3 88 90 40
3 27 40 66
3 36 70 41
3 66 42 95
3 47 106 64
3 41 113 36
3 68 42 47
3 36 113 70
3 36 98 51
3 70 18 106
3 28 106 64
3 70 41 113
3 28 113 30
3 83 30 81
3 32 50 30
3 45 32 49
3 77 69 90
3 77 83 4
3 15 77 69
3 45 32 18
3 41 40 103
3 41 107 96
3 93 98 102
3 20 85 102
3 28 93 107
3 96 107 86
3 96 98 100
3 40 119 85
3 65 119 86
3 28 40 119
3 33 107 28
3 19 46 119
3 25 81 118
3 25 97 33
3 81 119 84
3 84 33 109
3 69 46 119
3 13 33 97
3 46 69 19
3 18 33 109
3 69 119 19
3 97 108 59
3 94 115 97
3 114 108 47
3 94 97 92
3 91 114 94
3 68 119 91
3 25 108 97
3 46 68 119
3 97 115 92
3 68 116 42
3 47 55 108
3 59 25 108
3 47 116 42
3 59 111 42
3 55 119 92
3 50 103 41
3 50 110 94
3 93 98 92
3 93 110 70
3 87 41 113
3 84 110 50
3 63 14 31
3 36 117 17
3 3 117 27
3 63 24 5
3 17 22 36
3 65 115 5
3 14 80 36
3 36 117 22
3 27 5 115
3 74 24 5
3 17 117 22
3 27 117 40
3 65 115 27
3 22 72 115
3 16 92 89
3 87 113 14
3 92 5 97
3 79 111 14
3 114 5 111
3 80 14 87
3 16 114 87
3 115 92 5
3 109 16 92
3 92 109 89
3 14 99 79
3 113 14 80
3 91 111 5
3 115 97 5
3 97 112 79
3 75 35 118
3 74 109 33
3 12 72 118
3 5 110 74
3 72 110 31
3 35 109 73
3 33 104 74
3 33 31 75
3 118 72 112
3 110 74 24
3 106 35 118
3 12 112 72
3 5 12 107
3 72 110 14
3 110 5 24
3 87 32 119
3 33 111 83
3 90 110 86
3 71 111 32
3 83 110 1
3 2 119 86
3 118 111 32
3 86 92 119
3 111 33 103
3 83 34 110
3 73 87 32
3 90 110 10
3 33 103 83
3 92 118 34
3 33 105 87
3 90 105 33
3 106 35 28
3 22 107 29
3 35 105 29
3 31 102 98
3 34 107 22
3 69 102 106
3 98 22 117
3 69 117 37
3 118 35 28
3 98 36 117
3 91 114 39
3 40 116 38
3 54 79 107
3 38 102 15
3 79 107 22
3 88 116 38
3 40 116 88
3 22 116 76
3 54 104 40
3 54 107 22
3 88 107 5
3 54 100 26
3 76 41 81
3 26 6 100
3 49 5 97
3 76 33 97
3 26 54 6
3 26 14 87
3 65 5 97
3 65 118 54
3 41 87 14
3 5 85 6
3 82 104 33
3 88 101 37
3 85 101 82
3 37 104 32
3 49 104 32
3 72 118 20
3 33 104 84
3 39 32 118
3 83 102 85
3 45 67 76
3 85 112 77
3 53 104 52
3 49 45 104
3 85 112 83
3 62 85 75
3 45 110 76
3 54 110 83
3 77 112 83
3 87 112 67
3 40 50 41
3 20 79 97
3 91 37 66
3 41 91 1
3 82 47 100
3 97 40 71
3 100 57 50
3 79 37 47
3 40 103 50
3 53 54 40
3 62 91 72
3 54 100 78
3 26 78 100
3 100 17 48
3 39 17 48
3 17 104 19
3 19 91 72
3 48 89 72
3 26 54 23
3 23 81 38
3 15 38 69
3 22 54 29
3 4 28 40
3 22 4 43
3 35 28 15
3 96 23 17
3 39 23 17
3 64 35 28
3 43 37 113
3 59 93 107
3 88 113 37
3 27 65 94
3 44 70 29
3 91 106 77
3 54 107 51
3 51 107 29
3 29 107 54
3 42 77 112
3 41 107 55
3 91 109 41
3 59 76 108
3 59 76 27
3 72 112 64
3 112 72 88
3 59 108 27
3 68 72 91
3 88 17 108
3 76 108 27
3 79 112 27
3 48 23 17
3 11 31 75
3 77 4 112
3 23 2 112
3 11 48 80
3 48 111 17
3 4 75 52
3 83 112 4
3 111 17 23
3 53 108 47
3 56 108 50
3 30 108 50
3 90 106 91
3 77 106 90
3 50 110 74
3 64 106 75
3 64 111 56
3 30 108 56
3 30 113 75
3 24 89 13
3 69 114 5
3 15 35 118
3 13 114 35
3 84 5 24
3 24 89 32
3 15 48 27
3 26 101 12
3 72 119 19
3 44 117 6
3 72 119 69
3 6 86 117
3 34 100 6
3 86 117 44
3 20 114 16
3 37 115 18
3 40 119 4
3 37 16 25
3 37 115 32
3 4 119 28
3 42 102 4
3 18 32 115
3 44 115 28
3 36 119 32
3 93 102 92
3 113 37 101
3 95 79 119
3 114 86 108
3 47 86 108
3 84 79 119
3 98 102 92
3 6 93 116
3 41 14 113
3 42 116 19
3 19 116 47
3 6 100 113
3 113 100 54
3 19 91 119
3 81 119 79
3 79 44 111
3 75 119 40
3 17 111 100
3 90 116 40
3 96 111 100
3 96 111 17
3 44 111 14
3 12 40 116
3 12 108 17
3 14 4 108
3 4 119 75
3 74 119 79
3 93 116 32
3 32 108 89
3 90 91 102
3 89 50 108
3 32 108 50
3 32 116 78
3 117 86 78
3 86 48 80
3 95 80 118
3 99 86 117
3 83 112 102
3 112 118 88
3 86 80 107
3 95 117 83
3 89 117 83
3 15 101 97
3 5 110 50
3 49 92 5
3 84 110 5
3 83 19 116
3 84 116 48
3 69 109 80
3 81 118 80
3 101 4 109
3 81 25 80
3 32 116 31
3 114 111 69
3 101 109 22
3 69 111 5
3 4 109 22
3 32 116 6
3 118 80 25
3 97 108 76
3 76 116 51
3 79 51 107
3 65 115 97
3 65 115 94
3 56 18 115
3 14 18 106
3 36 113 14
3 12 113 37
3 56 119 36
3 89 109 65
3 43 22 109
3 67 109 89
3 85 109 22
3 114 104 52
3 109 84 104
3 82 101 51
3 93 110 72
3 95 100 90
3 53 86 108
3 70 110 72
3 26 80 87
3 27 101 48
3 45 101 26
3 27 5 92
3 51 34 79
3 30 32 108
3 30 92 16
3 70 111 44
3 32 111 64
3 70 4 108
3 101 96 97
3 17 117 87
3 81 117 83
3 87 117 22
3 83 35 116
3 19 35 116
3 38 81 115
3 35 109 23
3 4 109 43
3 23 115 81
3 55 114 35
3 5 111 53
3 45 117 69
3 81 117 30
3 45 12 101
3 53 111 69
3 30 117 83
3 33 108 76
3 53 104 34
3 78 34 100
3 33 108 27
3 78 117 44
3 86 108 35
3 42 35 116
3 65 16 109
3 19 107 16
3 99 101 24
3 16 110 76
3 91 119 72
3 37 110 16
3 34 113 100
3 25 33 108
3 110 16 25
3 6 34 113
3 6 106 16
3 110 42 34
3 34 79 107
3 104 34 114
3 115 32 104
3 24 108 32
3 80 96 107
3 45 115 32
3 35 105 45
3 92 102 31
3 92 27 115
3 102 4 112
3 45 16 110
3 51 117 17
3 52 24 80
3 114 34 52
3 95 25 80
3 101 24 68
3 104 34 52
3 78 113 34
3 34 51 107
3 72 115 51
3 72 119 68
3 113 74 102
3 52 27 117
3 53 34 52
3 95 117 30
3 27 106 101
3 44 111 29
3 52 12 90
3 69 90 106
3 34 51 29
3 69 111 94
3 94 115 27
3 80 113 36
3 34 113 23
3 27 108 25
3 23 90 115
3 12 112 64
3 44 117 55
3 64 106 35
3 51 117 36
3 36 112 16
3 45 18 115
3 96 55 80
3 23 96 111
3 25 16 45
3 18 109 74
3 30 16 109
3 42 30 117
3 94 24 74
3 42 68 35
3 96 106 27
3 42 4 112
3 24 108 30
3 52 4 119
3 69 119 68
3 51 109 4

# Cells
40 0 1 2 3 4 5 6 7 8 9 10 11 12 13 14 15 16 17 18 19 1200 1201 1202 1203 1204 1205 1206 1207 1208 1209 1210 1211 1212 1213 1214 1215 1216 1217 1218 1219
40 20 21 22 23 24 25 26 27 28 29 30 31 32 33 34 35 36 37 38 39 1220 1221 1222 1223 1224 1225 1226 1227 1228 1229 1230 1231 1232 1233 1234 1235 1236 1237 1238 1239
40 40 41 42 43 44 45 46 47 48 49 50 51 52 53 54 55 56 57 58 59 1240 1241 1242 1243 1244 1245 1246 1247 1248 1249 1250 1251 1252 1253 1254 1255 1256 1257 1258 1259
40 60 61 62 63 64 65 66 67 68 69 70 71 72 73 74 75 76 77 78 79 1260 1261 1262 1263 1264 1265 1266 1267 1268 1269 1270 1271 1272 1273 1274 1275 1276 1277 1278 1279
40 45 80 81 82 83 84 85 86 87 88 89 90 91 92 93 94 95 96 97 98 1245 1280 1281 1282 1283 1284 1285 1286 1287 1288 1289 1290 1291 1292 1293 1294 1295 1296 1297 1298
40 31 99 100 101 102 103 104 105 106 107 108 109 110 111 112 113 114 115 116 117 1231 1299 1300 1301 1302 1303 1304 1305 1306 1307 1308 1309 1310 1311 1312 1313 1314 1315 1316 1317
40 65 118 119 120 121 122 123 124 125 126 127 128 129 130 131 132 133 134 135 136 1265 1318 1319 1320 1321 1322 1323 1324 1325 1326 1327 1328 1329 1330 1331 1332 1333 1334 1335 1336
40 3 137 138 139 140 141 142 143 144 145 146 147 148 149 150 151 152 153 154 155 1203 1337 1338 1339 1340 1341 1342 1343 1344 1345 1346 1347 1348 1349 1350 1351 1352 1353 1354 1355
40 32 110 156 157 158 159 160 161 162 163 164 165 166 167 168 169 170 171 172 173 1232 1310 1356 1357 1358 1359 1360 1361 1362 1363 1364 1365 1366 1367 1368 1369 1370 1371 1372 1373
40 71 126 174 175 176 177 178 179 180 181 182 183 184 185 186 187 188 189 190 191 1271 1326 1374 1375 1376 1377 1378 1379 1380 1381 1382 1383 1384 1385 1386 1387 1388 1389 1390 1391
40 9 147 192 193 194 195 196 197 198 199 200 201 202 203 204 205 206 207 208 209 1209 1347 1392 1393 1394 1395 1396 1397 1398 1399 1400 1401 1402 1403 1404 1405 1406 1407 1408 1409
40 51 93 210 211 212 213 214 215 216 217 218 219 220 221 222 223 224 225 226 227 1251 1293 1410 1411 1412 1413 1414 1415 1416 1417 1418 1419 1420 1421 1422 1423 1424 1425 1426 1427
40 61 141 207 228 229 230 231 232 233 234 235 236 237 238 239 240 241 242 243 244 1261 1341 1407 1428 1429 1430 1431 1432 1433 1434 1435 1436 1437 1438 1439 1440 1441 1442 1443 1444
40 116 162 181 245 246 247 248 249 250 251 252 253 254 255 256 257 258 259 260 261 1316 1362 1381 1445 1446 1447 1448 1449 1450 1451 1452 1453 1454 1455 1456 1457 1458 1459 1460 1461
40 82 120 215 262 263 264 265 266 267 268 269 270 271 272 273 274 275 276 277 278 1282 1320 1415 1462 1463 1464 1465 1466 1467 1468 1469 1470 1471 1472 1473 1474 1475 1476 1477 1478
40 42 122 279 280 281 282 283 284 285 286 287 288 289 290 291 292 293 294 295 296 1242 1322 1479 1480 1481 1482 1483 1484 1485 1486 1487 1488 1489 1490 1491 1492 1493 1494 1495 1496
40 4 63 280 297 298 299 300 301 302 303 304 305 306 307 308 309 310 311 312 313 1204 1263 1480 1497 1498 1499 1500 1501 1502 1503 1504 1505 1506 1507 1508 1509 1510 1511 1512 1513
40 38 176 283 309 314 315 316 317 318 319 320 321 322 323 324 325 326 327 328 329 1238 1376 1483 1509 1514 1515 1516 1517 1518 1519 1520 1521 1522 1523 1524 1525 1526 1527 1528 1529
40 44 64 187 263 299 325 330 331 332 333 334 335 336 337 338 339 340 341 342 343 1244 1264 1387 1463 1499 1525 1530 1531 1532 1533 1534 1535 1536 1537 1538 1539 1540 1541 1542 1543
40 105 191 227 254 344 345 346 347 348 349 350 351 352 353 354 355 356 357 358 359 1305 1391 1427 1454 1544 1545 1546 1547 1548 1549 1550 1551 1552 1553 1554 1555 1556 1557 1558 1559
40 62 84 194 229 360 361 362 363 364 365 366 367 368 369 370 371 372 373 374 375 1262 1284 1394 1429 1560 1561 1562 1563 1564 1565 1566 1567 1568 1569 1570 1571 1572 1573 1574 1575
40 2 40 60 81 119 137 376 377 378 379 380 381 382 383 384 385 386 387 388 389 1202 1240 1260 1281 1319 1337 1576 1577 1578 1579 1580 1581 1582 1583 1584 1585 1586 1587 1588 1589
40 22 46 129 172 185 226 377 390 391 392 393 394 395 396 397 398 399 400 401 402 1222 1246 1329 1372 1385 1426 1577 1590 1591 1592 1593 1594 1595 1596 1597 1598 1599 1600 1601 1602
40 0 118 180 228 281 319 403 404 405 406 407 408 409 410 411 412 413 414 415 416 1200 1318 1380 1428 1481 1519 1603 1604 1605 1606 1607 1608 1609 1610 1611 1612 1613 1614 1615 1616
40 41 138 225 279 417 418 419 420 421 422 423 424 425 426 427 428 429 430 431 432 1241 1338 1425 1479 1617 1618 1619 1620 1621 1622 1623 1624 1625 1626 1627 1628 1629 1630 1631 1632
40 26 170 198 318 433 434 435 436 437 438 439 440 441 442 443 444 445 446 447 448 1226 1370 1398 1518 1633 1634 1635 1636 1637 1638 1639 1640 1641 1642 1643 1644 1645 1646 1647 1648
40 83 139 230 265 282 298 449 450 451 452 453 454 455 456 457 458 459 460 461 462 1283 1339 1430 1465 1482 1498 1649 1650 1651 1652 1653 1654 1655 1656 1657 1658 1659 1660 1661 1662
40 114 192 237 258 300 323 458 463 464 465 466 467 468 469 470 471 472 473 474 475 1314 1392 1437 1458 1500 1523 1658 1663 1664 1665 1666 1667 1668 1669 1670 1671 1672 1673 1674 1675
40 248 266 348 476 477 478 479 480 481 482 483 484 485 486 487 488 489 490 491 492 1448 1466 1548 1676 1677 1678 1679 1680 1681 1682 1683 1684 1685 1686 1687 1688 1689 1690 1691 1692
40 79 112 253 359 493 494 495 496 497 498 499 500 501 502 503 504 505 506 507 508 1279 1312 1453 1559 1693 1694 1695 1696 1697 1698 1699 1700 1701 1702 1703 1704 1705 1706 1707 1708
40 97 108 242 369 456 471 509 510 511 512 513 514 515 516 517 518 519 520 521 522 1297 1308 1442 1569 1656 1671 1709 1710 1711 1712 1713 1714 1715 1716 1717 1718 1719 1720 1721 1722
40 36 107 216 329 351 467 523 524 525 526 527 528 529 530 531 532 533 534 535 536 1236 1307 1416 1529 1551 1667 1723 1724 1725 1726 1727 1728 1729 1730 1731 1732 1733 1734 1735 1736
40 33 49 69 341 345 384 504 537 538 539 540 541 542 543 544 545 546 547 548 549 1233 1249 1269 1541 1545 1584 1704 1737 1738 1739 1740 1741 1742 1743 1744 1745 1746 1747 1748 1749
40 525 550 551 552 553 554 555 556 557 558 559 560 561 562 563 564 565 566 567 568 1725 1750 1751 1752 1753 1754 1755 1756 1757 1758 1759 1760 1761 1762 1763 1764 1765 1766 1767 1768
40 485 569 570 571 572 573 574 575 576 577 578 579 580 581 582 583 584 585 586 587 1685 1769 1770 1771 1772 1773 1774 1775 1776 1777 1778 1779 1780 1781 1782 1783 1784 1785 1786 1787
40 505 545 588 589 590 591 592 593 594 595 596 597 598 599 600 601 602 603 604 605 1705 1745 1788 1789 1790 1791 1792 1793 1794 1795 1796 1797 1798 1799 1800 1801 1802 1803 1804 1805
40 188 199 320 357 475 530 559 606 607 608 609 610 611 612 613 614 615 616 617 618 1388 1399 1520 1557 1675 1730 1759 1806 1807 1808 1809 1810 1811 1812 1813 1814 1815 1816 1817 1818
40 182 213 270 334 354 481 580 619 620 621 622 623 624 625 626 627 628 629 630 631 1382 1413 1470 1534 1554 1681 1780 1819 1820 1821 1822 1823 1824 1825 1826 1827 1828 1829 1830 1831
40 90 128 165 278 352 389 478 538 632 633 634 635 636 637 638 639 640 641 642 643 1290 1328 1365 1478 1552 1589 1678 1738 1832 1833 1834 1835 1836 1837 1838 1839 1840 1841 1842 1843
40 496 605 624 644 645 646 647 648 649 650 651 652 653 654 655 656 657 658 659 660 1696 1805 1824 1844 1845 1846 1847 1848 1849 1850 1851 1852 1853 1854 1855 1856 1857 1858 1859 1860
40 244 261 498 522 661 662 663 664 665 666 667 668 669 670 671 672 673 674 675 676 1444 1461 1698 1722 1861 1862 1863 1864 1865 1866 1867 1868 1869 1870 1871 1872 1873 1874 1875 1876
40 516 577 599 639 677 678 679 680 681 682 683 684 685 686 687 688 689 690 691 692 1716 1777 1799 1839 1877 1878 1879 1880 1881 1882 1883 1884 1885 1886 1887 1888 1889 1890 1891 1892
40 343 356 490 501 536 549 613 626 658 693 694 695 696 697 698 699 700 701 702 703 1543 1556 1690 1701 1736 1749 1813 1826 1858 1893 1894 1895 1896 1897 1898 1899 1900 1901 1902 1903
40 76 102 303 364 466 506 519 554 590 615 704 705 706 707 708 709 710 711 712 713 1276 1302 1503 1564 1666 1706 1719 1754 1790 1815 1904 1905 1906 1907 1908 1909 1910 1911 1912 1913
40 95 103 349 483 511 526 561 573 642 681 714 715 716 717 718 719 720 721 722 723 1295 1303 1549 1683 1711 1726 1761 1773 1842 1881 1914 1915 1916 1917 1918 1919 1920 1921 1922 1923
40 209 217 255 355 469 484 509 609 663 724 725 726 727 728 729 730 731 732 733 734 1409 1417 1455 1555 1669 1684 1709 1809 1863 1924 1925 1926 1927 1928 1929 1930 1931 1932 1933 1934
40 1 80 197 297 361 417 468 556 706 735 736 737 738 739 740 741 742 743 744 745 1201 1280 1397 1497 1561 1617 1668 1756 1906 1935 1936 1937 1938 1939 1940 1941 1942 1943 1944 1945
40 169 212 246 269 292 324 425 445 449 472 733 746 747 748 749 750 751 752 753 754 1369 1412 1446 1469 1492 1524 1625 1645 1649 1672 1933 1946 1947 1948 1949 1950 1951 1952 1953 1954
40 256 267 311 335 451 470 480 524 701 755 756 757 758 759 760 761 762 763 764 765 1456 1467 1511 1535 1651 1670 1680 1724 1901 1955 1956 1957 1958 1959 1960 1961 1962 1963 1964 1965
40 12 20 75 115 174 202 232 260 305 314 408 446 474 766 767 768 769 770 771 772 1212 1220 1275 1315 1374 1402 1432 1460 1505 1514 1608 1646 1674 1966 1967 1968 1969 1970 1971 1972
40 57 218 326 337 426 523 571 628 694 773 774 775 776 777 778 779 780 781 782 783 1257 1418 1526 1537 1626 1723 1771 1828 1894 1973 1974 1975 1976 1977 1978 1979 1980 1981 1982 1983
40 17 27 306 322 340 547 594 606 703 712 784 785 786 787 788 789 790 791 792 793 1217 1227 1506 1522 1540 1747 1794 1806 1903 1912 1984 1985 1986 1987 1988 1989 1990 1991 1992 1993
40 512 564 665 711 759 794 795 796 797 798 799 800 801 802 803 804 805 806 807 808 1712 1764 1865 1911 1959 1994 1995 1996 1997 1998 1999 2000 2001 2002 2003 2004 2005 2006 2007 2008
40 77 183 239 247 338 473 507 612 645 661 693 713 764 797 809 810 811 812 813 814 1277 1383 1439 1447 1538 1673 1707 1812 1845 1861 1893 1913 1964 1997 2009 2010 2011 2012 2013 2014
40 48 144 167 381 392 429 815 816 817 818 819 820 821 822 823 824 825 826 827 828 1248 1344 1367 1581 1592 1629 2015 2016 2017 2018 2019 2020 2021 2022 2023 2024 2025 2026 2027 2028
40 560 598 676 692 802 829 830 831 832 833 834 835 836 837 838 839 840 841 842 843 1760 1798 1876 1892 2002 2029 2030 2031 2032 2033 2034 2035 2036 2037 2038 2039 2040 2041 2042 2043
40 587 600 652 687 824 844 845 846 847 848 849 850 851 852 853 854 855 856 857 858 1787 1800 1852 1887 2024 2044 2045 2046 2047 2048 2049 2050 2051 2052 2053 2054 2055 2056 2057 2058
40 405 436 648 664 859 860 861 862 863 864 865 866 867 868 869 870 871 872 873 874 1605 1636 1848 1864 2059 2060 2061 2062 2063 2064 2065 2066 2067 2068 2069 2070 2071 2072 2073 2074
40 34 59 529 544 576 699 720 783 822 854 875 876 877 878 879 880 881 882 883 884 1234 1259 1729 1744 1776 1899 1920 1983 2022 2054 2075 2076 2077 2078 2079 2080 2081 2082 2083 2084
40 196 219 365 423 553 569 724 740 839 885 886 887 888 889 890 891 892 893 894 895 1396 1419 1565 1623 1753 1769 1924 1940 2039 2085 2086 2087 2088 2089 2090 2091 2092 2093 2094 2095
40 5 43 175 330 360 400 404 629 790 896 897 898 899 900 901 902 903 904 905 906 1205 1243 1375 1530 1560 1600 1604 1829 1990 2096 2097 2098 2099 2100 2101 2102 2103 2104 2105 2106
40 179 223 328 402 442 611 622 727 750 776 871 907 908 909 910 911 912 913 914 915 1379 1423 1528 1602 1642 1811 1822 1927 1950 1976 2071 2107 2108 2109 2110 2111 2112 2113 2114 2115
40 73 136 186 347 373 493 630 640 649 679 916 917 918 919 920 921 922 923 924 925 1273 1336 1386 1547 1573 1693 1830 1840 1849 1879 2116 2117 2118 2119 2120 2121 2122 2123 2124 2125
40 231 262 315 331 403 419 464 735 747 773 809 926 927 928 929 930 931 932 933 934 1431 1462 1515 1531 1603 1619 1664 1935 1947 1973 2009 2126 2127 2128 2129 2130 2131 2132 2133 2134
40 121 140 211 264 362 398 418 619 893 896 921 935 936 937 938 939 940 941 942 943 1321 1340 1411 1464 1562 1598 1618 1819 2093 2096 2121 2135 2136 2137 2138 2139 2140 2141 2142 2143
40 14 37 66 99 189 203 358 371 380 391 537 617 707 771 791 901 944 945 946 947 1214 1237 1266 1299 1389 1403 1558 1571 1580 1591 1737 1817 1907 1971 1991 2101 2144 2145 2146 2147
40 88 101 151 171 193 221 420 447 454 463 535 738 754 819 948 949 950 951 952 953 1288 1301 1351 1371 1393 1421 1620 1647 1654 1663 1735 1938 1954 2019 2148 2149 2150 2151 2152 2153
40 87 214 276 465 476 513 528 552 575 721 728 745 756 777 798 885 928 954 955 956 1287 1414 1476 1665 1676 1713 1728 1752 1775 1921 1928 1945 1956 1977 1998 2085 2128 2154 2155 2156
40 35 55 131 158 184 210 259 272 288 327 332 346 397 534 541 635 746 755 957 958 1235 1255 1331 1358 1384 1410 1459 1472 1488 1527 1532 1546 1597 1734 1741 1835 1946 1955 2157 2158
40 78 94 274 336 370 542 584 604 621 637 657 678 917 959 960 961 962 963 964 965 1278 1294 1474 1536 1570 1742 1784 1804 1821 1837 1857 1878 2117 2159 2160 2161 2162 2163 2164 2165
40 153 159 273 452 479 520 636 677 729 749 936 966 967 968 969 970 971 972 973 974 1353 1359 1473 1652 1679 1720 1836 1877 1929 1949 2136 2166 2167 2168 2169 2170 2171 2172 2173 2174
40 68 111 145 241 378 503 521 675 686 770 924 975 976 977 978 979 980 981 982 983 1268 1311 1345 1441 1578 1703 1721 1875 1886 1970 2124 2175 2176 2177 2178 2179 2180 2181 2182 2183
40 74 132 243 271 453 644 757 804 810 959 984 985 986 987 988 989 990 991 992 993 1274 1332 1443 1471 1653 1844 1957 2004 2010 2159 2184 2185 2186 2187 2188 2189 2190 2191 2192 2193
40 6 47 67 85 123 143 233 275 284 301 333 363 386 413 421 450 742 897 926 935 1206 1247 1267 1285 1323 1343 1433 1475 1484 1501 1533 1563 1586 1613 1621 1650 1942 2097 2126 2135
40 28 206 224 401 438 532 562 614 818 883 888 914 946 950 994 995 996 997 998 999 1228 1406 1424 1601 1638 1732 1762 1814 2018 2083 2088 2114 2146 2150 2194 2195 2196 2197 2198 2199
40 91 113 142 156 205 220 344 367 383 390 517 633 731 916 940 944 952 967 975 1000 1291 1313 1342 1356 1405 1420 1544 1567 1583 1590 1717 1833 1931 2116 2140 2144 2152 2167 2175 2200
40 21 56 285 316 395 409 781 793 846 864 882 898 912 1001 1002 1003 1004 1005 1006 1007 1221 1256 1485 1516 1595 1609 1981 1993 2046 2064 2082 2098 2112 2201 2202 2203 2204 2205 2206 2207
40 293 302 321 422 433 531 555 736 782 948 1008 1009 1010 1011 1012 1013 1014 1015 1016 1017 1493 1502 1521 1622 1633 1731 1755 1936 1982 2148 2208 2209 2210 2211 2212 2213 2214 2215 2216 2217
40 482 558 608 670 700 725 775 796 811 866 908 933 956 1018 1019 1020 1021 1022 1023 1024 1682 1758 1808 1870 1900 1925 1975 1996 2011 2066 2108 2133 2156 2218 2219 2220 2221 2222 2223 2224
40 339 366 601 660 705 737 784 806 813 830 905 929 965 1025 1026 1027 1028 1029 1030 1031 1539 1566 1801 1860 1905 1937 1984 2006 2013 2030 2105 2129 2165 2225 2226 2227 2228 2229 2230 2231
40 13 150 287 407 431 832 1010 1032 1033 1034 1035 1036 1037 1038 1039 1040 1041 1042 1043 1044 1213 1350 1487 1607 1631 2032 2210 2232 2233 2234 2235 2236 2237 2238 2239 2240 2241 2242 2243 2244
40 152 200 238 427 434 662 726 753 829 891 934 972 1018 1036 1045 1046 1047 1048 1049 1050 1352 1400 1438 1627 1634 1862 1926 1953 2029 2091 2134 2172 2218 2236 2245 2246 2247 2248 2249 2250
40 492 579 625 689 730 852 895 915 920 943 969 1051 1052 1053 1054 1055 1056 1057 1058 1059 1692 1779 1825 1889 1930 2052 2095 2115 2120 2143 2169 2251 2252 2253 2254 2255 2256 2257 2258 2259
40 178 201 234 372 406 607 654 671 814 831 863 899 923 1028 1060 1061 1062 1063 1064 1065 1378 1401 1434 1572 1606 1807 1854 1871 2014 2031 2063 2099 2123 2228 2260 2261 2262 2263 2264 2265
40 16 24 435 557 593 785 833 865 995 1066 1067 1068 1069 1070 1071 1072 1073 1074 1075 1076 1216 1224 1635 1757 1793 1985 2033 2065 2195 2266 2267 2268 2269 2270 2271 2272 2273 2274 2275 2276
40 240 268 374 510 572 688 794 843 887 932 937 955 960 966 985 1030 1048 1077 1078 1079 1440 1468 1574 1710 1772 1888 1994 2043 2087 2132 2137 2155 2160 2166 2185 2230 2248 2277 2278 2279
40 54 89 304 342 570 741 758 774 795 954 964 1009 1026 1080 1081 1082 1083 1084 1085 1086 1254 1289 1504 1542 1770 1941 1958 1974 1995 2154 2164 2209 2226 2280 2281 2282 2283 2284 2285 2286
40 53 96 222 350 368 546 574 588 627 715 876 894 904 947 962 994 1087 1088 1089 1090 1253 1296 1422 1550 1568 1746 1774 1788 1827 1915 2076 2094 2104 2147 2162 2194 2287 2288 2289 2290
40 353 375 499 514 568 602 616 667 683 710 719 734 838 890 925 1056 1065 1089 1091 1092 1553 1575 1699 1714 1768 1802 1816 1867 1883 1910 1919 1934 2038 2090 2125 2256 2265 2289 2291 2292
40 125 177 252 277 416 477 620 650 748 812 861 909 930 984 1022 1093 1094 1095 1096 1097 1325 1377 1452 1477 1616 1677 1820 1850 1948 2012 2061 2109 2130 2184 2222 2293 2294 2295 2296 2297
40 164 190 208 250 394 441 673 732 768 869 911 919 979 1000 1052 1062 1098 1099 1100 1101 1364 1390 1408 1450 1594 1641 1873 1932 1968 2069 2111 2119 2179 2200 2252 2262 2298 2299 2300 2301
40 235 245 286 411 443 460 672 752 767 862 986 1033 1049 1093 1102 1103 1104 1105 1106 1107 1435 1445 1486 1611 1643 1660 1872 1952 1967 2062 2186 2233 2249 2293 2302 2303 2304 2305 2306 2307
40 7 195 317 414 437 550 610 743 787 835 859 927 1008 1023 1025 1032 1045 1060 1075 1108 1207 1395 1517 1614 1637 1750 1810 1943 1987 2035 2059 2127 2208 2223 2225 2232 2245 2260 2275 2308
40 18 148 204 396 825 834 844 892 902 941 996 1059 1064 1067 1098 1109 1110 1111 1112 1113 1218 1348 1404 1596 2025 2034 2044 2092 2102 2141 2196 2259 2264 2267 2298 2309 2310 2311 2312 2313
40 8 86 106 387 551 595 704 722 744 815 945 949 997 1074 1088 1114 1115 1116 1117 1118 1208 1286 1306 1587 1751 1795 1904 1922 1944 2015 2145 2149 2197 2274 2288 2314 2315 2316 2317 2318
40 11 29 124 388 393 415 766 851 860 976 1001 1073 1100 1110 1119 1120 1121 1122 1123 1124 1211 1229 1324 1588 1593 1615 1966 2051 2060 2176 2201 2273 2300 2310 2319 2320 2321 2322 2323 2324
40 135 163 289 399 430 751 826 850 907 938 973 1007 1051 1096 1125 1126 1127 1128 1129 1130 1335 1363 1489 1599 1630 1951 2026 2050 2107 2138 2173 2207 2251 2296 2325 2326 2327 2328 2329 2330
40 10 58 424 585 591 739 820 842 856 886 903 1027 1040 1080 1087 1113 1114 1131 1132 1133 1210 1258 1624 1785 1791 1939 2020 2042 2056 2086 2103 2227 2240 2280 2287 2313 2314 2331 2332 2333
40 596 618 631 653 697 788 858 873 881 906 913 998 1005 1054 1063 1072 1090 1092 1111 1134 1796 1818 1831 1853 1897 1988 2058 2073 2081 2106 2113 2198 2205 2254 2263 2272 2290 2292 2311 2334
40 412 428 583 623 646 780 857 900 931 942 1002 1031 1034 1077 1094 1125 1133 1135 1136 1137 1612 1628 1783 1823 1846 1980 2057 2100 2131 2142 2202 2231 2234 2277 2294 2325 2333 2335 2336 2337
40 656 695 779 786 800 867 1006 1011 1019 1029 1037 1085 1108 1137 1138 1139 1140 1141 1142 1143 1856 1895 1979 1986 2000 2067 2206 2211 2219 2229 2237 2285 2308 2337 2338 2339 2340 2341 2342 2343
40 432 448 567 586 778 828 879 889 910 999 1012 1021 1046 1057 1130 1144 1145 1146 1147 1148 1632 1648 1767 1786 1978 2028 2079 2089 2110 2199 2212 2221 2246 2257 2330 2344 2345 2346 2347 2348
40 155 168 440 668 685 823 836 974 982 1050 1055 1070 1101 1112 1146 1149 1150 1151 1152 1153 1355 1368 1640 1868 1885 2023 2036 2174 2182 2250 2255 2270 2301 2312 2346 2349 2350 2351 2352 2353
40 127 154 236 410 659 690 841 847 922 939 980 989 1035 1061 1078 1109 1119 1135 1154 1155 1327 1354 1436 1610 1859 1890 2041 2047 2122 2139 2180 2189 2235 2261 2278 2309 2319 2335 2354 2355
40 489 497 565 666 696 723 872 878 1024 1053 1076 1091 1134 1145 1151 1156 1157 1158 1159 1160 1689 1697 1765 1866 1896 1923 2072 2078 2224 2253 2276 2291 2334 2345 2351 2356 2357 2358 2359 2360
40 487 581 799 971 987 1020 1044 1047 1079 1095 1102 1127 1136 1138 1144 1161 1162 1163 1164 1165 1687 1781 1999 2171 2187 2220 2244 2247 2279 2295 2302 2327 2336 2338 2344 2361 2362 2363 2364 2365
40 133 161 249 486 502 643 647 848 868 918 1058 1097 1099 1124 1126 1160 1166 1167 1168 1169 1333 1361 1449 1686 1702 1843 1847 2048 2068 2118 2258 2297 2299 2324 2326 2360 2366 2367 2368 2369
40 23 72 134 251 290 310 494 548 762 769 958 988 1105 1123 1167 1170 1171 1172 1173 1174 1223 1272 1334 1451 1490 1510 1694 1748 1962 1969 2158 2188 2305 2323 2367 2370 2371 2372 2373 2374
40 109 173 257 462 491 515 669 718 760 805 970 1107 1152 1158 1161 1175 1176 1177 1178 1179 1309 1373 1457 1662 1691 1715 1869 1918 1960 2005 2170 2307 2352 2358 2361 2375 2376 2377 2378 2379
40 130 146 291 385 461 634 680 816 855 968 990 1041 1129 1155 1163 1180 1181 1182 1183 1184 1330 1346 1491 1585 1661 1834 1880 2016 2055 2168 2190 2241 2329 2355 2363 2380 2381 2382 2383 2384
40 19 100 149 307 439 459 772 951 983 1015 1038 1069 1106 1117 1149 1179 1185 1186 1187 1188 1219 1300 1349 1507 1639 1659 1972 2151 2183 2215 2238 2269 2306 2317 2349 2379 2385 2386 2387 2388
40 15 50 295 308 379 539 603 792 845 1003 1039 1083 1121 1132 1142 1170 1181 1189 1190 1191 1215 1250 1495 1508 1579 1739 1803 1992 2045 2203 2239 2283 2321 2332 2342 2370 2381 2389 2390 2391
40 52 98 157 294 455 527 638 717 763 827 875 953 957 1016 1081 1175 1182 1192 1193 1194 1252 1298 1357 1494 1655 1727 1838 1917 1963 2027 2075 2153 2157 2216 2281 2375 2382 2392 2393 2394
40 563 578 684 716 803 821 840 1014 1042 1084 1118 1131 1148 1153 1165 1176 1184 1186 1193 1195 1763 1778 1884 1916 2003 2021 2040 2214 2242 2284 2318 2331 2348 2353 2365 2376 2384 2386 2393 2395
40 488 543 582 641 651 702 761 853 884 961 992 1086 1143 1162 1168 1173 1183 1191 1192 1196 1688 1743 1782 1841 1851 1902 1961 2053 2084 2161 2192 2286 2343 2362 2368 2373 2383 2391 2392 2396
40 30 117 313 500 533 566 698 709 765 789 801 1013 1071 1141 1157 1174 1177 1187 1197 1198 1230 1317 1513 1700 1733 1766 1898 1909 1965 1989 2001 2213 2271 2341 2357 2374 2377 2387 2397 2398
40 70 92 312 382 457 518 589 691 708 807 963 977 991 1082 1116 1180 1185 1189 1195 1199 1270 1292 1512 1582 1657 1718 1789 1891 1908 2007 2163 2177 2191 2282 2316 2380 2385 2389 2395 2399
40 39 166 296 444 874 880 1004 1017 1103 1128 1139 1147 1159 1164 1169 1172 1178 1194 1196 1198 1239 1366 1496 1644 2074 2080 2204 2217 2303 2328 2339 2347 2359 2364 2369 2372 2378 2394 2396 2398
40 508 597 655 674 808 837 870 981 993 1043 1068 1104 1122 1140 1154 1171 1188 1190 1197 1199 1708 1797 1855 1874 2008 2037 2070 2181 2193 2243 2268 2304 2322 2340 2354 2371 2388 2390 2397 2399
40 25 104 160 376 495 540 592 632 682 714 817 849 877 978 1066 1115 1120 1150 1156 1166 1225 1304 1360 1576 1695 1740 1792 1832 1882 1914 2017 2049 2077 2178 2266 2315 2320 2350 2356 2366
