# Generated using Miratope v0.5.0 (https://github.com/galoomba1/miratope-rs)
4OFF

# Vertices, Faces, Edges, Cells
96 288 384 96

# Vertices
0 0.5 0.809016994374945 1.30901699437495 
0.5 1.30901699437495 0.809016994374945 0 
-1.30901699437495 0.5 0 0.809016994374945 
0 -0.809016994374945 1.30901699437495 0.5 
0.5 0 1.30901699437495 -0.809016994374945 
-0.809016994374945 1.30901699437495 0 -0.5 
-1.30901699437495 -0.809016994374945 0.5 0 
-0.809016994374945 0 0.5 -1.30901699437495 
0 0.809016994374945 1.30901699437495 0.5 
1.30901699437495 0.809016994374945 0.5 0 
-0.809016994374945 1.30901699437495 0 0.5 
0 -0.5 0.809016994374945 1.30901699437495 
0.5 1.30901699437495 -0.809016994374945 0 
1.30901699437495 -0.5 0 0.809016994374945 
0.5 0 -1.30901699437495 0.809016994374945 
-0.809016994374945 0 -0.5 1.30901699437495 
0.809016994374945 0 0.5 1.30901699437495 
1.30901699437495 -0.809016994374945 0.5 0 
-0.5 0 1.30901699437495 0.809016994374945 
0 -0.5 -0.809016994374945 1.30901699437495 
0.5 -1.30901699437495 -0.809016994374945 0 
0 -0.809016994374945 1.30901699437495 -0.5 
-0.809016994374945 -1.30901699437495 0 -0.5 
-1.30901699437495 -0.5 0 0.809016994374945 
0.5 0 1.30901699437495 0.809016994374945 
1.30901699437495 0.5 0 0.809016994374945 
-0.809016994374945 0 0.5 1.30901699437495 
0 0.809016994374945 1.30901699437495 -0.5 
0 0.5 -0.809016994374945 1.30901699437495 
0.809016994374945 1.30901699437495 0 -0.5 
-1.30901699437495 0.809016994374945 0.5 0 
-0.5 1.30901699437495 -0.809016994374945 0 
1.30901699437495 0.809016994374945 -0.5 0 
1.30901699437495 -0.5 0 -0.809016994374945 
0 -0.5 -0.809016994374945 -1.30901699437495 
0 0.809016994374945 -1.30901699437495 -0.5 
0.809016994374945 1.30901699437495 0 0.5 
0 0.809016994374945 -1.30901699437495 0.5 
1.30901699437495 0.5 0 -0.809016994374945 
0.5 0 -1.30901699437495 -0.809016994374945 
0.5 -1.30901699437495 0.809016994374945 0 
-0.809016994374945 -1.30901699437495 0 0.5 
0 -0.5 0.809016994374945 -1.30901699437495 
-1.30901699437495 -0.5 0 -0.809016994374945 
-0.5 0 1.30901699437495 -0.809016994374945 
0.809016994374945 0 0.5 -1.30901699437495 
0 0.5 -0.809016994374945 -1.30901699437495 
-1.30901699437495 0.5 0 -0.809016994374945 
0 0.5 0.809016994374945 -1.30901699437495 
-0.809016994374945 0 -0.5 -1.30901699437495 
1.30901699437495 -0.809016994374945 -0.5 0 
0 -0.809016994374945 -1.30901699437495 0.5 
0 -0.809016994374945 -1.30901699437495 -0.5 
0.809016994374945 -1.30901699437495 0 -0.5 
0.809016994374945 -1.30901699437495 0 0.5 
-0.5 -1.30901699437495 -0.809016994374945 0 
0.809016994374945 0.5 -1.30901699437495 0 
-0.5 0 -1.30901699437495 -0.809016994374945 
0.5 -0.809016994374945 0 1.30901699437495 
-1.30901699437495 0 -0.809016994374945 0.5 
0 -1.30901699437495 -0.5 -0.809016994374945 
-1.30901699437495 0 0.809016994374945 0.5 
-1.30901699437495 -0.809016994374945 -0.5 0 
0.809016994374945 -0.5 1.30901699437495 0 
0 -1.30901699437495 -0.5 0.809016994374945 
-0.5 -0.809016994374945 0 -1.30901699437495 
0.809016994374945 0.5 1.30901699437495 0 
1.30901699437495 0 -0.809016994374945 0.5 
-0.5 0.809016994374945 0 1.30901699437495 
0 -1.30901699437495 0.5 0.809016994374945 
0 -1.30901699437495 0.5 -0.809016994374945 
0.809016994374945 -0.5 -1.30901699437495 0 
-0.5 -0.809016994374945 0 1.30901699437495 
-1.30901699437495 0 -0.809016994374945 -0.5 
-0.5 0 -1.30901699437495 0.809016994374945 
0 1.30901699437495 0.5 -0.809016994374945 
-0.809016994374945 0.5 -1.30901699437495 0 
0 1.30901699437495 -0.5 -0.809016994374945 
-0.809016994374945 -0.5 -1.30901699437495 0 
-1.30901699437495 0.809016994374945 -0.5 0 
1.30901699437495 0 0.809016994374945 0.5 
0 1.30901699437495 -0.5 0.809016994374945 
0 1.30901699437495 0.5 0.809016994374945 
-0.5 0.809016994374945 0 -1.30901699437495 
0.5 0.809016994374945 0 1.30901699437495 
-0.809016994374945 0.5 1.30901699437495 0 
-0.809016994374945 -0.5 1.30901699437495 0 
-1.30901699437495 0 0.809016994374945 -0.5 
0.5 -0.809016994374945 0 -1.30901699437495 
0.5 0.809016994374945 0 -1.30901699437495 
1.30901699437495 0 0.809016994374945 -0.5 
1.30901699437495 0 -0.809016994374945 -0.5 
0.809016994374945 0 -0.5 1.30901699437495 
-0.5 -1.30901699437495 0.809016994374945 0 
-0.5 1.30901699437495 0.809016994374945 0 
0.809016994374945 0 -0.5 -1.30901699437495 

# Faces
4 0 2 5 1
4 1 0 3 4
4 0 3 6 2
4 4 7 5 1
4 6 7 5 2
4 3 4 7 6
4 9 12 10 8
4 9 13 11 8
4 10 8 11 15
4 9 13 14 12
4 12 14 15 10
4 14 13 11 15
4 17 21 18 16
4 17 16 19 20
4 16 19 23 18
4 17 21 22 20
4 19 20 22 23
4 23 22 21 18
4 24 26 28 25
4 24 27 29 25
4 24 27 30 26
4 28 31 29 25
4 30 31 28 26
4 27 29 31 30
4 1 32 33 4
4 1 32 35 5
4 4 33 34 7
4 7 34 35 5
4 32 35 34 33
4 36 16 17 38
4 19 37 36 16
4 36 37 39 38
4 20 39 37 19
4 17 38 39 20
4 24 40 41 26
4 27 42 40 24
4 41 43 42 40
4 30 43 41 26
4 27 42 43 30
4 9 45 44 8
4 8 10 47 44
4 45 9 12 46
4 46 47 44 45
4 10 12 46 47
4 38 17 21 48
4 38 39 49 48
4 21 22 49 48
4 39 20 22 49
4 24 25 50 40
4 25 28 51 50
4 41 40 50 51
4 26 28 51 41
4 13 53 45 9
4 12 46 52 14
4 14 52 53 13
4 45 46 52 53
4 3 4 33 54
4 3 6 55 54
4 34 55 54 33
4 6 7 34 55
4 28 56 50 58
4 28 59 57 56
4 56 50 60 57
4 28 59 41 58
4 41 58 50 60
4 41 60 57 59
4 11 61 44 63
4 61 11 64 62
4 61 44 65 62
4 63 11 64 53
4 63 44 65 53
4 53 65 62 64
4 66 17 67 36
4 36 66 18 68
4 66 18 69 17
4 67 19 68 36
4 69 17 67 19
4 69 18 68 19
4 54 71 34 70
4 54 70 6 72
4 54 71 74 72
4 6 70 34 73
4 6 72 74 73
4 74 71 34 73
4 61 44 75 10
4 61 10 76 62
4 75 46 76 10
4 65 46 75 44
4 46 65 62 76
4 67 39 77 36
4 36 68 79 77
4 39 67 19 78
4 39 78 79 77
4 79 68 19 78
4 80 0 81 32
4 72 0 80 54
4 74 81 0 72
4 54 80 32 71
4 81 74 71 32
4 28 82 30 59
4 30 82 29 83
4 28 82 29 56
4 56 29 83 57
4 30 59 57 83
4 75 9 84 10
4 11 84 9 63
4 61 11 84 10
4 63 9 75 44
4 80 4 85 0
4 72 0 85 6
4 54 70 4 80
4 85 6 70 4
4 30 59 41 86
4 83 30 86 42
4 41 60 42 86
4 60 42 83 57
4 66 36 77 48
4 66 48 87 18
4 79 87 48 77
4 18 87 79 68
4 17 69 22 88
4 69 22 78 19
4 67 17 88 39
4 88 39 78 22
4 81 5 89 32
4 71 34 89 32
4 34 89 5 73
4 74 73 5 81
4 58 24 82 28
4 82 29 90 24
4 58 24 90 50
4 50 90 29 56
4 9 91 14 84
4 11 84 14 64
4 9 63 53 91
4 64 14 91 53
4 81 5 85 0
4 32 89 4 80
4 89 4 85 5
4 66 48 88 17
4 88 48 87 22
4 69 22 87 18
4 10 84 14 76
4 75 9 91 46
4 46 91 14 76
4 30 86 24 82
4 24 86 42 90
4 83 29 90 42
4 77 48 88 39
4 78 79 87 22
4 64 14 76 62
4 65 53 91 46
4 41 86 24 58
4 50 60 42 90
4 70 4 89 34
4 6 73 5 85
4 85 3 72 2
4 85 7 73 2
4 2 73 55 72
4 3 70 7 85
4 70 55 72 3
4 7 70 55 73
4 8 61 15 84
4 84 12 75 8
4 8 61 47 75
4 84 12 76 15
4 61 15 76 47
4 75 12 76 47
4 69 16 67 20
4 16 68 23 69
4 16 68 37 67
4 67 37 78 20
4 37 78 23 68
4 69 23 78 20
4 82 26 58 25
4 82 25 56 31
4 82 26 59 31
4 25 56 51 58
4 56 51 59 31
4 58 26 59 51
4 8 63 13 84
4 75 45 63 8
4 12 91 13 84
4 45 75 12 91
4 45 91 13 63
4 3 72 92 80
4 70 33 80 3
4 92 80 33 71
4 33 70 55 71
4 72 92 71 55
4 26 86 40 58
4 51 60 40 58
4 40 60 43 86
4 26 86 43 59
4 59 43 60 51
4 16 66 21 69
4 16 66 38 67
4 66 21 88 38
4 20 88 21 69
4 38 67 20 88
4 8 61 93 63
4 75 47 65 45
4 63 45 65 93
4 61 93 65 47
4 82 26 86 27
4 82 27 83 31
4 59 43 83 31
4 86 27 83 43
4 68 94 66 16
4 38 66 94 77
4 37 67 38 77
4 37 77 94 68
4 80 33 89 1
4 3 80 1 85
4 85 1 89 7
4 7 70 33 89
4 92 81 1 80
4 1 81 35 89
4 89 33 71 35
4 92 71 35 81
4 51 56 95 60
4 56 31 83 95
4 43 83 95 60
4 37 77 49 78
4 68 23 87 94
4 77 49 87 94
4 78 49 87 23
4 85 1 81 2
4 2 81 92 72
4 13 84 15 64
4 93 61 15 64
4 63 93 64 13
4 25 90 95 56
4 25 90 40 58
4 60 40 90 95
4 38 77 49 88
4 20 78 49 88
4 76 52 65 47
4 76 52 64 15
4 64 93 65 52
4 21 87 94 66
4 21 87 49 88
4 45 91 52 65
4 13 91 52 64
4 69 21 87 23
4 73 35 81 2
4 71 55 73 35
4 82 25 90 27
4 27 90 95 83
4 76 52 91 12
4 86 27 90 40
4 73 35 89 7
4 14 52 62 15
4 47 10 15 62
4 47 46 52 62
4 18 94 48 21
4 49 79 94 48
4 18 23 79 94
4 23 79 49 22
4 6 2 74 55
4 5 2 74 35
4 34 35 74 55
4 29 95 50 25
4 31 57 51 28
4 51 57 95 50
4 31 57 95 29
4 0 1 32 92
4 2 0 92 74
4 32 92 74 35
4 18 94 36 16
4 36 94 48 38
4 53 45 44 93
4 44 47 62 93
4 52 62 93 53
4 40 42 95 50
4 29 95 42 27
4 43 57 51 41
4 57 43 42 95
4 37 79 94 36
4 49 39 37 79
4 19 37 79 23
4 3 54 92 0
4 33 54 92 32
4 13 53 93 11
4 11 93 62 15
4 74 55 54 92
4 31 57 43 30
4 11 93 44 8

# Cells
6 0 1 2 3 4 5
6 6 7 8 9 10 11
6 12 13 14 15 16 17
6 18 19 20 21 22 23
6 3 24 25 26 27 28
6 13 29 30 31 32 33
6 20 34 35 36 37 38
6 6 39 40 41 42 43
6 15 33 44 45 46 47
6 18 34 48 49 50 51
6 9 41 52 53 54 55
6 5 26 56 57 58 59
6 60 61 62 63 64 65
6 66 67 68 69 70 71
6 72 73 74 75 76 77
6 78 79 80 81 82 83
6 68 84 85 86 87 88
6 75 89 90 91 92 93
6 80 94 95 96 97 98
6 61 99 100 101 102 103
6 66 84 104 105 106 107
6 79 95 108 109 110 111
6 65 103 112 113 114 115
6 73 90 116 117 118 119
6 76 91 120 121 122 123
6 83 98 124 125 126 127
6 60 101 128 129 130 131
6 69 105 132 133 134 135
6 94 108 124 136 137 138
6 74 117 120 139 140 141
6 86 104 132 142 143 144
6 100 113 129 145 146 147
6 92 118 123 140 148 149
6 71 88 135 144 150 151
6 64 114 130 146 152 153
6 81 111 126 138 154 155
6 156 157 158 159 160 161
6 162 163 164 165 166 167
6 168 169 170 171 172 173
6 174 175 176 177 178 179
6 163 180 181 182 183 184
6 160 185 186 187 188 189
6 179 190 191 192 193 194
6 168 195 196 197 198 199
6 164 181 200 201 202 203
6 176 193 204 205 206 207
6 170 196 208 209 210 211
6 159 186 212 213 214 215
6 187 212 216 217 218 219
6 178 194 206 220 221 222
6 172 211 223 224 225 226
6 156 185 213 216 227 228
6 162 180 200 229 230 231
6 177 191 220 232 233 234
6 171 199 210 223 235 236
6 166 203 230 237 238 239
6 197 209 225 235 240 241
6 184 202 231 239 242 243
6 173 198 226 236 241 244
6 158 189 219 228 245 246
6 175 205 221 232 247 248
6 165 182 229 238 243 249
6 192 207 222 234 248 250
6 157 214 217 227 245 251
6 10 43 53 252 253 254
6 17 46 255 256 257 258
6 4 27 59 259 260 261
6 21 49 262 263 264 265
6 0 25 260 266 267 268
6 12 29 44 255 269 270
6 42 55 254 271 272 273
6 19 35 48 262 274 275
6 36 50 264 274 276 277
6 31 45 256 270 278 279
6 16 32 47 258 279 280
6 1 24 56 266 281 282
6 11 54 252 273 283 284
6 28 58 261 268 282 285
6 14 30 257 269 278 280
6 2 57 259 267 281 285
6 23 38 265 275 277 286
6 8 40 253 272 284 287
6 62 102 115 131 147 153
6 70 87 107 134 143 151
6 77 93 119 121 141 149
6 82 96 109 127 136 155
6 167 183 201 237 242 249
6 174 190 204 233 247 250
6 72 89 116 122 139 148
6 63 99 112 128 145 152
6 78 97 110 125 137 154
6 67 85 106 133 142 150
6 7 39 52 271 283 287
6 169 195 208 224 240 244
6 161 188 215 218 246 251
6 22 37 51 263 276 286
