# Generated using Miratope v0.5.0 (https://github.com/galoomba1/miratope-rs)
4OFF

# Vertices, Faces, Edges, Cells
120 720 720 120

# Vertices
0.809016994374945 0.809016994374945 0.809016994374945 0.809016994374945 
1.30901699437495 0.809016994374945 0.5 0 
0.809016994374945 0 0.5 1.30901699437495 
0 1.30901699437495 0.5 0.809016994374945 
0.809016994374945 0.809016994374945 -0.809016994374945 -0.809016994374945 
0.809016994374945 1.30901699437495 0 -0.5 
1.30901699437495 0 -0.809016994374945 -0.5 
0 0.809016994374945 -1.30901699437495 -0.5 
0.809016994374945 -0.809016994374945 -0.809016994374945 0.809016994374945 
1.30901699437495 -0.5 0 0.809016994374945 
0 -0.5 -0.809016994374945 1.30901699437495 
0.809016994374945 -0.5 -1.30901699437495 0 
-0.809016994374945 0.809016994374945 -0.809016994374945 0.809016994374945 
-0.5 0.809016994374945 0 1.30901699437495 
-0.5 1.30901699437495 -0.809016994374945 0 
-0.5 0 -1.30901699437495 0.809016994374945 
1.61803398874989 0 0 0 
0 1.61803398874989 0 0 
0 0 0 1.61803398874989 
0 0 -1.61803398874989 0 
0.5 -1.30901699437495 -0.809016994374945 0 
-0.809016994374945 -0.809016994374945 -0.809016994374945 0.809016994374945 
-1.30901699437495 -0.5 0 0.809016994374945 
-0.5 -1.30901699437495 -0.809016994374945 0 
-0.809016994374945 0 0.5 1.30901699437495 
0.5 0 1.30901699437495 0.809016994374945 
0.809016994374945 -0.5 1.30901699437495 0 
-0.5 0 1.30901699437495 0.809016994374945 
1.30901699437495 -0.809016994374945 0.5 0 
0 -0.809016994374945 1.30901699437495 -0.5 
-0.809016994374945 -0.5 1.30901699437495 0 
0.809016994374945 -1.30901699437495 0 -0.5 
-1.30901699437495 -0.809016994374945 0.5 0 
0 -1.30901699437495 0.5 -0.809016994374945 
-0.809016994374945 -1.30901699437495 0 -0.5 
-0.809016994374945 0.809016994374945 0.809016994374945 0.809016994374945 
-1.30901699437495 0.809016994374945 0.5 0 
-0.809016994374945 1.30901699437495 0 -0.5 
1.30901699437495 0 0.809016994374945 -0.5 
0.809016994374945 0 0.5 -1.30901699437495 
0.5 0.809016994374945 0 -1.30901699437495 
-0.5 0.809016994374945 0 -1.30901699437495 
-1.30901699437495 0 0.809016994374945 -0.5 
0 -0.5 0.809016994374945 -1.30901699437495 
-0.809016994374945 0 0.5 -1.30901699437495 
0.809016994374945 1.30901699437495 0 0.5 
0 0.809016994374945 1.30901699437495 0.5 
0.809016994374945 0.809016994374945 -0.809016994374945 0.809016994374945 
0.809016994374945 0 -0.5 1.30901699437495 
0 0.809016994374945 -1.30901699437495 0.5 
-0.5 1.30901699437495 0.809016994374945 0 
0 -0.5 0.809016994374945 1.30901699437495 
-1.30901699437495 0 0.809016994374945 0.5 
-0.5 -0.809016994374945 0 1.30901699437495 
-1.30901699437495 0.809016994374945 -0.5 0 
-1.30901699437495 0 -0.809016994374945 0.5 
1.30901699437495 0 0.809016994374945 0.5 
1.30901699437495 0.809016994374945 -0.5 0 
0 1.30901699437495 -0.5 -0.809016994374945 
0.809016994374945 0 -0.5 -1.30901699437495 
0.809016994374945 -0.809016994374945 0.809016994374945 -0.809016994374945 
1.30901699437495 -0.5 0 -0.809016994374945 
-0.809016994374945 0.809016994374945 0.809016994374945 -0.809016994374945 
-0.5 0 1.30901699437495 -0.809016994374945 
0 0 1.61803398874989 0 
0 0 0 -1.61803398874989 
0.809016994374945 -0.809016994374945 -0.809016994374945 -0.809016994374945 
0 -1.30901699437495 -0.5 -0.809016994374945 
1.30901699437495 0 -0.809016994374945 0.5 
0 -0.809016994374945 1.30901699437495 0.5 
-0.5 -1.30901699437495 0.809016994374945 0 
-0.809016994374945 -1.30901699437495 0 0.5 
0 -0.809016994374945 -1.30901699437495 0.5 
0.5 1.30901699437495 0.809016994374945 0 
0.5 0.809016994374945 0 1.30901699437495 
0 0.809016994374945 1.30901699437495 -0.5 
0 1.30901699437495 -0.5 0.809016994374945 
-0.809016994374945 0 -0.5 1.30901699437495 
-0.809016994374945 -0.809016994374945 0.809016994374945 0.809016994374945 
-1.61803398874989 0 0 0 
0.809016994374945 0.809016994374945 0.809016994374945 -0.809016994374945 
1.30901699437495 -0.809016994374945 -0.5 0 
0.5 0 -1.30901699437495 0.809016994374945 
0.5 0 -1.30901699437495 -0.809016994374945 
-0.809016994374945 -0.809016994374945 0.809016994374945 -0.809016994374945 
0.5 0 1.30901699437495 -0.809016994374945 
0.5 -0.809016994374945 0 1.30901699437495 
0 -1.30901699437495 -0.5 0.809016994374945 
0.5 -0.809016994374945 0 -1.30901699437495 
-0.809016994374945 1.30901699437495 0 0.5 
0 0.5 -0.809016994374945 1.30901699437495 
-0.809016994374945 0.5 1.30901699437495 0 
0 -1.30901699437495 0.5 0.809016994374945 
1.30901699437495 0.5 0 -0.809016994374945 
0.5 1.30901699437495 -0.809016994374945 0 
0.809016994374945 -1.30901699437495 0 0.5 
0 1.30901699437495 0.5 -0.809016994374945 
0.5 -1.30901699437495 0.809016994374945 0 
1.30901699437495 0.5 0 0.809016994374945 
0.809016994374945 -0.809016994374945 0.809016994374945 0.809016994374945 
0 0.5 0.809016994374945 -1.30901699437495 
0 0.5 0.809016994374945 1.30901699437495 
-1.30901699437495 0.5 0 0.809016994374945 
-1.30901699437495 -0.809016994374945 -0.5 0 
0 -1.61803398874989 0 0 
0.809016994374945 0.5 -1.30901699437495 0 
-0.809016994374945 0.5 -1.30901699437495 0 
0.809016994374945 0.5 1.30901699437495 0 
-1.30901699437495 0.5 0 -0.809016994374945 
-1.30901699437495 -0.5 0 -0.809016994374945 
-0.809016994374945 0.809016994374945 -0.809016994374945 -0.809016994374945 
0 -0.809016994374945 -1.30901699437495 -0.5 
0 0.5 -0.809016994374945 -1.30901699437495 
-0.809016994374945 -0.809016994374945 -0.809016994374945 -0.809016994374945 
-0.809016994374945 -0.5 -1.30901699437495 0 
0 -0.5 -0.809016994374945 -1.30901699437495 
-0.809016994374945 0 -0.5 -1.30901699437495 
-1.30901699437495 0 -0.809016994374945 -0.5 
-0.5 0 -1.30901699437495 -0.809016994374945 
-0.5 -0.809016994374945 0 -1.30901699437495 

# Faces
5 16 1 0 2 9
5 0 3 17 5 1
5 2 18 13 3 0
5 1 5 4 6 16
5 17 5 4 7 14
5 4 6 11 19 7
5 8 9 2 18 10
5 9 16 6 11 8
5 8 11 19 15 10
5 12 14 17 3 13
5 13 18 10 15 12
5 19 15 12 14 7
5 8 9 28 31 20
5 8 10 21 23 20
5 18 10 21 22 24
5 22 21 23 34 32
5 18 2 25 27 24
5 2 9 28 26 25
5 26 25 27 30 29
5 26 28 31 33 29
5 30 27 24 22 32
5 30 32 34 33 29
5 20 31 33 34 23
5 1 38 26 25 0
5 3 35 27 25 0
5 3 17 37 36 35
5 27 30 42 36 35
5 5 40 41 37 17
5 1 38 39 40 5
5 38 26 29 43 39
5 42 36 37 41 44
5 30 42 44 43 29
5 40 39 43 44 41
5 0 2 48 47 45
5 45 17 50 46 0
5 0 46 27 51 2
5 47 49 14 17 45
5 47 49 15 10 48
5 17 50 36 54 14
5 2 48 10 53 51
5 46 50 36 52 27
5 53 51 27 52 22
5 54 14 49 15 55
5 10 53 22 55 15
5 36 54 55 22 52
5 45 57 16 56 0
5 0 46 64 26 56
5 4 58 17 45 57
5 4 57 16 61 59
5 4 58 41 65 59
5 60 61 16 56 26
5 60 26 64 63 43
5 60 61 59 65 43
5 50 62 63 64 46
5 17 58 41 62 50
5 63 43 65 41 62
5 60 26 69 70 33
5 61 60 33 67 66
5 61 66 11 68 16
5 11 66 67 23 72
5 2 56 16 68 48
5 2 56 26 69 51
5 10 48 68 11 72
5 69 51 53 71 70
5 53 71 23 72 10
5 71 70 33 67 23
5 0 74 76 17 73
5 25 0 73 75 64
5 25 51 18 74 0
5 37 62 75 73 17
5 62 42 30 64 75
5 79 42 62 37 54
5 12 76 74 18 77
5 37 54 12 76 17
5 12 54 79 22 77
5 78 30 64 25 51
5 78 51 18 77 22
5 78 30 42 79 22
5 0 56 38 80 73
5 74 0 56 9 48
5 73 17 58 40 80
5 80 40 59 61 38
5 17 58 7 49 76
5 9 81 61 38 56
5 74 48 82 49 76
5 9 81 11 82 48
5 61 81 11 83 59
5 40 58 7 83 59
5 82 49 7 83 11
5 51 78 71 87 86
5 30 78 71 34 84
5 30 84 43 85 64
5 43 88 67 34 84
5 38 85 64 25 56
5 9 86 51 25 56
5 86 9 81 20 87
5 38 85 43 88 61
5 81 20 67 88 61
5 87 71 34 67 20
5 3 89 12 90 74
5 36 89 12 55 79
5 12 90 10 21 55
5 21 71 92 86 10
5 32 71 21 55 79
5 32 79 36 91 30
5 74 2 25 46 3
5 74 2 86 10 90
5 86 2 25 69 92
5 46 25 69 30 91
5 3 46 91 36 89
5 92 69 30 32 71
5 45 94 4 93 1
5 93 61 66 83 4
5 94 49 19 83 4
5 61 66 20 95 28
5 20 72 19 83 66
5 72 19 49 90 10
5 56 1 45 74 2
5 1 56 28 61 93
5 28 56 2 86 95
5 90 49 94 45 74
5 10 86 95 20 72
5 46 91 62 96 73
5 91 30 84 44 62
5 62 96 40 65 44
5 30 69 97 33 84
5 44 84 33 88 65
5 88 65 40 93 61
5 1 56 25 46 73
5 1 93 40 96 73
5 25 69 97 28 56
5 61 28 97 33 88
5 73 5 57 98 0
5 0 25 99 9 98
5 99 25 64 29 97
5 81 9 99 97 31
5 29 64 75 100 43
5 57 6 81 9 98
5 73 5 40 100 75
5 40 5 57 6 59
5 81 31 88 59 6
5 43 88 31 97 29
5 40 100 43 88 59
5 99 25 101 18 86
5 86 99 97 104 87
5 35 91 64 25 101
5 35 101 18 77 102
5 91 42 79 102 35
5 64 29 84 42 91
5 84 29 97 104 34
5 84 42 79 103 34
5 87 21 77 18 86
5 77 102 79 103 21
5 87 104 34 103 21
5 18 101 0 98 48
5 0 101 35 50 73
5 37 50 35 102 54
5 48 18 77 15 82
5 48 98 57 105 82
5 73 5 58 37 50
5 7 105 57 5 58
5 58 37 54 106 7
5 102 77 15 106 54
5 105 7 106 15 82
5 80 107 0 45 5
5 2 0 107 26 99
5 60 39 80 107 26
5 4 59 39 80 5
5 47 45 5 4 105
5 47 48 8 11 105
5 48 2 99 95 8
5 60 31 95 99 26
5 59 66 11 105 4
5 66 11 8 95 31
5 66 31 60 39 59
5 0 101 13 76 45
5 107 0 101 27 64
5 80 100 63 64 107
5 58 41 100 80 5
5 63 42 52 27 64
5 5 45 76 14 58
5 52 102 13 101 27
5 54 102 13 76 14
5 41 108 54 14 58
5 63 42 108 41 100
5 54 102 52 42 108
5 2 101 27 69 99
5 70 104 95 99 69
5 48 90 15 72 8
5 23 104 95 8 72
5 104 23 103 32 70
5 2 101 13 90 48
5 102 55 15 90 13
5 70 32 52 27 69
5 52 102 55 103 32
5 23 103 55 15 72
5 2 98 68 8 86
5 66 20 8 68 6
5 20 104 92 86 8
5 93 6 66 88 39
5 88 66 20 104 33
5 92 104 33 29 69
5 2 98 1 107 25
5 1 98 68 6 93
5 1 107 85 39 93
5 85 107 25 69 29
5 33 29 85 39 88
5 25 69 78 24 101
5 79 102 24 78 32
5 29 69 78 32 84
5 44 100 85 29 84
5 44 108 79 32 84
5 102 89 37 108 79
5 101 3 73 107 25
5 85 107 73 96 100
5 3 73 96 37 89
5 3 101 24 102 89
5 96 37 108 44 100
5 19 72 8 68 105
5 21 72 8 86 53
5 55 21 53 24 102
5 55 106 19 72 21
5 94 105 19 106 14
5 101 3 45 98 2
5 94 105 68 98 45
5 3 45 94 14 89
5 2 101 24 53 86
5 89 102 55 106 14
5 0 1 57 47 74
5 47 74 18 10 82
5 57 6 11 82 47
5 18 10 87 92 51
5 1 57 6 61 38
5 51 25 26 97 92
5 38 26 97 31 61
5 6 61 31 20 11
5 20 11 82 10 87
5 31 20 87 92 97
5 25 51 24 35 46
5 35 36 62 75 46
5 22 79 36 35 24
5 75 85 43 44 62
5 62 36 79 109 44
5 22 71 34 109 79
5 26 85 75 46 25
5 85 26 97 33 43
5 22 71 92 51 24
5 34 71 92 97 33
5 34 109 44 43 33
5 1 0 46 75 80
5 0 46 35 13 74
5 4 40 80 1 57
5 41 40 80 75 62
5 47 49 12 13 74
5 4 57 47 49 7
5 12 54 36 35 13
5 40 4 7 110 41
5 62 36 54 110 41
5 54 12 49 7 110
5 0 56 99 51 101
5 16 81 95 99 56
5 53 87 95 99 51
5 81 16 57 105 11
5 76 45 57 105 49
5 13 101 51 53 77
5 49 15 77 13 76
5 81 11 72 87 95
5 15 72 87 53 77
5 72 15 49 105 11
5 108 62 50 89 54
5 63 62 108 109 84
5 64 69 70 84 63
5 71 70 84 109 103
5 46 101 51 69 64
5 50 46 101 13 89
5 77 55 54 89 13
5 55 77 53 71 103
5 55 103 109 108 54
5 21 71 78 24 77
5 97 69 78 71 104
5 77 90 82 72 21
5 20 72 21 71 104
5 81 28 97 104 20
5 25 101 74 98 56
5 28 56 98 68 81
5 90 82 68 98 74
5 24 101 74 90 77
5 81 68 82 72 20
5 108 62 91 52 79
5 62 96 58 110 108
5 94 58 110 106 49
5 79 55 106 110 108
5 79 52 24 77 55
5 46 73 45 74 101
5 96 58 94 45 73
5 91 52 24 101 46
5 55 77 90 49 106
5 62 100 80 73 50
5 60 38 80 100 43
5 99 56 38 60 97
5 78 51 99 97 70
5 78 52 35 101 51
5 62 42 52 35 50
5 60 97 70 84 43
5 42 84 43 100 62
5 42 84 70 78 52
5 99 86 48 98 56
5 60 88 59 93 38
5 97 60 88 67 104
5 87 104 67 111 72
5 38 93 57 98 56
5 59 93 57 105 83
5 87 72 82 48 86
5 105 82 72 111 83
5 83 59 88 67 111
5 107 0 3 50 75
5 2 99 92 53 18
5 29 70 92 99 26
5 13 102 22 53 18
5 26 107 75 63 29
5 13 102 36 50 3
5 42 63 75 50 36
5 53 22 32 70 92
5 63 42 32 70 29
5 36 42 32 22 102
5 98 16 38 107 0
5 98 0 3 76 47
5 47 98 16 6 105
5 14 7 105 47 76
5 38 16 6 59 39
5 39 100 75 107 38
5 14 37 50 3 76
5 100 41 37 50 75
5 59 6 105 7 112
5 7 112 41 37 14
5 39 100 41 112 59
5 2 98 47 90 18
5 19 105 47 90 15
5 99 2 98 16 28
5 28 99 92 104 31
5 16 28 31 66 6
5 105 6 66 111 19
5 66 31 104 23 111
5 15 21 53 18 90
5 21 53 92 104 23
5 19 111 23 21 15
5 107 56 28 60 85
5 33 104 95 28 60
5 60 33 84 63 85
5 52 32 84 63 91
5 71 104 33 84 32
5 86 53 71 104 95
5 2 56 107 46 101
5 107 46 91 63 85
5 71 32 52 24 53
5 28 60 88 66 81
5 88 65 100 85 60
5 68 81 66 83 105
5 83 112 65 88 66
5 96 100 65 112 58
5 73 45 98 56 107
5 105 83 112 58 94
5 94 17 96 40 4
5 65 115 83 4 40
5 89 17 96 62 36
5 12 49 94 17 89
5 55 114 19 49 12
5 109 79 55 114 113
5 44 65 115 113 109
5 114 19 83 115 113
5 66 115 65 39 61
5 20 66 115 113 23
5 109 32 71 23 113
5 39 65 44 63 85
5 28 26 85 39 61
5 26 69 92 95 28
5 26 85 63 30 69
5 109 32 30 63 44
5 23 20 95 92 71
5 26 85 80 1 56
5 17 96 80 1 45
5 62 63 85 80 96
5 36 62 63 30 52
5 17 89 13 74 45
5 2 74 13 24 51
5 36 89 13 24 52
5 51 24 52 30 69
5 62 44 116 110 37
5 17 37 110 7 94
5 7 83 115 116 110
5 17 94 57 1 73
5 73 1 38 85 75
5 6 83 7 94 57
5 61 88 115 83 6
5 44 116 115 88 43
5 97 29 30 78 92
5 21 87 92 78 22
5 21 22 79 117 114
5 87 21 114 111 20
5 44 42 79 117 116
5 31 88 115 111 20
5 116 117 114 111 115
5 50 35 13 76 17
5 22 77 13 35 52
5 41 62 42 109 116
5 77 15 114 103 22
5 58 7 118 116 41
5 52 42 109 103 22
5 15 49 7 118 114
5 109 116 118 114 103
5 51 99 26 64 27
5 43 60 31 67 119
5 22 103 23 87 53
5 63 42 109 119 43
5 23 87 95 31 67
5 23 103 109 119 67
5 4 112 41 96 5
5 4 6 66 115 112
5 33 119 115 66 31
5 16 28 26 107 1
5 5 1 107 75 96
5 41 96 75 63 44
5 29 63 44 119 33
5 41 44 119 115 112
5 37 14 12 102 36
5 12 102 22 21 15
5 19 7 112 115 111
5 44 42 32 34 119
5 23 111 115 119 34
5 74 3 17 94 47
5 19 82 47 94 7
5 18 24 35 3 74
5 36 79 117 110 37
5 7 19 114 117 110
5 10 21 114 19 82
5 17 50 75 80 5
5 80 39 43 63 75
5 7 4 59 115 118
5 7 118 117 54 14
5 36 54 117 109 42
5 43 39 59 115 119
5 117 109 119 115 118
5 79 109 84 30 52
5 109 84 33 67 113
5 67 113 114 72 20
5 86 51 24 77 10
5 69 51 86 95 97
5 77 10 72 114 55
5 33 67 20 95 97
5 62 100 40 58 37
5 54 106 114 103 79
5 7 106 114 111 83
5 111 67 34 103 114
5 76 89 35 101 74
5 54 89 35 52 79
5 79 52 78 71 103
5 48 86 51 101 74
5 76 89 54 106 49
5 82 72 114 106 49
5 87 71 103 114 72
5 8 82 47 98 9
5 82 15 12 76 47
5 99 25 27 78 92
5 9 8 87 92 99
5 35 102 12 76 3
5 78 27 35 102 22
5 82 8 87 21 15
5 99 25 107 38 28
5 78 27 91 42 32
5 34 32 78 92 104
5 34 119 88 31 104
5 27 25 107 75 91
5 39 88 31 28 38
5 42 91 75 100 44
5 44 119 88 39 100
5 56 107 80 93 16
5 65 100 80 93 59
5 107 56 99 69 64
5 16 93 59 66 81
5 104 67 66 81 95
5 67 66 59 65 119
5 63 84 119 65 100
5 104 70 84 119 67
5 93 4 112 65 39
5 94 14 110 112 4
5 89 14 110 108 36
5 44 108 110 112 65
5 45 3 46 107 1
5 108 36 91 63 44
5 80 107 46 50 96
5 41 96 80 39 65
5 60 33 119 65 39
5 41 108 109 119 65
5 46 107 26 69 27
5 41 108 36 50 96
5 52 32 109 108 36
5 32 70 33 119 109
5 17 73 46 35 89
5 24 77 12 89 35
5 49 12 77 10 82
5 57 1 56 9 68
5 49 82 68 57 94
5 86 10 82 68 9
5 64 85 80 73 46
5 80 85 43 65 40
5 35 46 64 30 52
5 54 89 17 58 110
5 58 110 116 65 40
5 79 109 116 110 54
5 43 65 116 109 84
5 58 96 80 93 4
5 93 16 68 105 4
5 4 105 49 14 58
5 48 90 49 105 68
5 89 14 58 96 50
5 49 14 89 13 90
5 99 28 81 8 86
5 18 90 82 8 86
5 6 105 82 8 81
5 18 90 76 3 101
5 73 5 93 38 107
5 5 73 3 76 94
5 6 81 28 38 93
5 93 5 94 105 6
5 82 90 76 94 105
5 64 107 38 60 29
5 60 29 84 119 88
5 84 119 116 108 42
5 50 91 64 107 73
5 5 93 59 112 58
5 50 91 42 108 37
5 37 58 112 116 108
5 59 88 119 116 112
5 80 93 57 45 73
5 62 108 116 65 100
5 65 116 118 83 59
5 73 45 76 89 50
5 49 105 83 118 106
5 106 118 116 108 54
5 37 62 91 35 89
5 91 30 78 24 35
5 89 12 106 110 37
5 12 106 114 21 77
5 114 106 110 116 113
5 84 44 116 113 34
5 71 21 114 113 34
5 85 64 91 62 100
5 57 94 76 74 98
5 40 93 57 94 58
5 38 93 40 100 85
5 58 37 89 76 94
5 34 113 111 20 104
5 83 111 113 116 112
5 85 29 97 28 38
5 93 6 83 112 40
5 81 6 83 111 20
5 100 40 112 116 44
5 21 55 117 113 23
5 108 117 113 119 44
5 23 113 119 33 104
5 36 102 24 27 91
5 29 69 27 91 63
5 24 27 69 92 53
5 102 55 117 108 36
5 69 29 60 28 99
5 39 60 28 16 93
5 39 100 63 29 60
5 16 98 45 5 93
5 5 45 3 50 96
5 101 3 50 91 27
5 96 5 93 39 100
5 96 100 63 91 50
5 66 88 119 113 111
5 113 111 19 106 117
5 96 37 14 94 5
5 108 37 14 106 117
5 68 57 4 83 11
5 4 58 110 118 83
5 55 54 110 118 114
5 68 57 45 74 48
5 10 77 13 74 48
5 11 72 114 118 83
5 81 61 60 97 95
5 71 87 95 97 70
5 38 16 9 99 26
5 11 111 23 87 8
5 115 59 6 11 111
5 43 119 34 70 29
5 92 87 23 34 70
5 9 2 74 47 68
5 4 94 47 68 6
5 4 40 39 61 6
5 3 17 96 75 46
5 28 9 68 6 61
5 40 39 85 75 96
5 33 88 115 113 34
5 6 83 19 82 68
5 86 9 28 97 92
5 106 12 76 94 7
5 74 98 9 86 18
5 61 93 80 85 60
5 64 69 97 60 85
5 81 68 57 93 61
5 86 48 68 81 95
5 73 3 35 91 75
5 102 79 117 106 12
5 40 112 7 94 5
5 7 106 117 116 112
5 98 16 81 8 48
5 18 53 87 8 48
5 87 8 81 31 104
5 31 60 38 16 81
5 31 104 70 29 60
5 18 101 27 78 53
5 29 70 78 27 64
5 104 87 53 78 70
5 103 21 53 78 32
5 106 15 21 103 117
5 106 14 76 90 15
5 32 42 108 117 103
5 1 80 39 61 16
5 9 95 31 61 16
5 51 2 9 95 92
5 75 46 27 30 63
5 30 70 92 51 27
5 39 61 31 33 43
5 63 30 70 33 43
5 31 95 92 70 33
5 22 24 13 12 55
5 117 55 12 14 110
5 110 14 17 96 41
5 44 41 110 117 109
5 3 46 27 24 13
5 32 109 117 55 22
5 35 27 64 75 50
5 78 70 34 103 22
5 37 54 117 116 41
5 102 54 117 103 22
5 41 100 43 119 116
5 34 119 116 117 103
5 26 97 70 30 64
5 56 9 95 97 26
5 10 87 95 9 48
5 22 71 70 30 52
5 71 22 77 10 87
5 45 1 16 68 47
5 13 90 47 45 3
5 10 8 68 47 90
5 95 8 68 16 28
5 53 10 8 95 92
5 53 24 13 90 10
5 4 105 19 118 112
5 15 55 117 118 19
5 41 108 117 118 112
5 18 51 27 35 13
5 117 54 12 15 114
5 109 42 30 70 34
5 10 87 23 114 15
5 34 23 114 117 109
5 16 38 80 5 57
5 38 80 75 64 26
5 9 48 47 57 16
5 17 76 47 57 5
5 13 76 47 48 18
5 48 18 51 99 9
5 49 19 118 110 14
5 108 109 113 118 110
5 72 19 118 113 23
5 90 82 19 106 12
5 40 112 110 37 96
5 19 83 112 110 106
5 3 73 1 98 74
5 43 33 67 115 65
5 68 11 20 95 9
5 83 115 67 20 11
5 1 5 94 47 98
5 19 82 8 20 111
5 38 28 9 98 1
5 39 88 115 112 40
5 14 94 47 90 12
5 18 90 12 102 24
5 37 96 75 91 36
5 11 68 47 49 19
5 11 66 115 118 19
5 65 115 118 110 41
5 86 53 78 69 99
5 64 69 78 52 91
5 77 53 78 52 102
5 98 45 76 90 48
5 53 77 90 48 86
5 52 102 89 50 91
5 77 90 76 89 102
5 72 111 66 81 8
5 66 111 118 112 59
5 58 14 106 118 112
5 106 118 111 72 15
5 103 117 118 111 23
5 21 103 113 111 72
5 116 108 79 103 113
5 67 115 116 109 34
5 111 118 116 119 67
5 59 61 31 67 115
5 97 31 67 34 70
5 116 41 40 59 115
5 66 67 113 118 83
5 114 15 82 11 111
5 103 113 119 84 32
5 106 55 103 113 118
5 112 118 113 119 65
5 24 78 92 86 18
5 29 30 91 75 85
5 20 11 19 114 23
5 23 114 55 22 71
5 113 117 110 112 115
5 34 32 79 117 113
5 71 103 113 67 104
5 67 113 116 65 88
5 67 115 118 114 23
5 11 111 67 31 81
5 7 118 111 11 105

# Cells
12 0 1 2 3 4 5 6 7 8 9 10 11
12 6 12 13 14 15 16 17 18 19 20 21 22
12 1 18 23 24 25 26 27 28 29 30 31 32
12 33 34 35 36 37 38 39 40 41 42 43 44
12 34 45 46 47 48 49 50 51 52 53 54 55
12 39 50 56 57 58 59 60 61 62 63 64 65
12 66 67 68 69 70 71 72 73 74 75 76 77
12 66 78 79 80 81 82 83 84 85 86 87 88
12 75 83 89 90 91 92 93 94 95 96 97 98
12 99 100 101 102 103 104 105 106 107 108 109 110
12 106 111 112 113 114 115 116 117 118 119 120 121
12 108 118 122 123 124 125 126 127 128 129 130 131
12 67 132 133 134 135 136 137 138 139 140 141 142
12 134 143 144 145 146 147 148 149 150 151 152 153
12 132 146 154 155 156 157 158 159 160 161 162 163
12 33 164 165 166 167 168 169 170 171 172 173 174
12 164 175 176 177 178 179 180 181 182 183 184 185
12 170 181 186 187 188 189 190 191 192 193 194 195
12 107 196 197 198 199 200 201 202 203 204 205 206
12 205 207 208 209 210 211 212 213 214 215 216 217
12 196 216 218 219 220 221 222 223 224 225 226 227
12 23 68 228 229 230 231 232 233 234 235 236 237
12 233 238 239 240 241 242 243 244 245 246 247 248
12 228 239 249 250 251 252 253 254 255 256 257 258
12 45 175 259 260 261 262 263 264 265 266 267 268
12 53 63 264 269 270 271 272 273 274 275 276 277
12 130 207 278 279 280 281 282 283 284 285 286 287
12 120 122 286 288 289 290 291 292 293 294 295 296
12 78 155 259 297 298 299 300 301 302 303 304 305
12 144 158 299 306 307 308 309 310 311 312 313 314
12 2 165 315 316 317 318 319 320 321 322 323 324
12 315 325 326 327 328 329 330 331 332 333 334 335
12 316 327 336 337 338 339 340 341 342 343 344 345
12 119 226 295 346 347 348 349 350 351 352 353 354
12 214 224 284 294 346 355 356 357 358 359 360 361
12 100 113 124 242 362 363 364 365 366 367 368 369
12 110 114 368 370 371 372 373 374 375 376 377 378
12 61 117 364 376 379 380 381 382 383 384 385 386
12 69 96 232 241 387 388 389 390 391 392 393 394
12 31 77 141 237 394 395 396 397 398 399 400 401
12 54 82 265 302 402 403 404 405 406 407 408 409
12 41 51 171 179 261 407 410 411 412 413 414 415
12 3 19 319 340 416 417 418 419 420 421 422 423
12 11 15 30 324 334 345 423 424 425 426 427 428
12 14 25 229 240 388 397 429 430 431 432 433 434
12 4 38 167 321 413 435 436 437 438 439 440 441
12 121 125 292 367 386 442 443 444 445 446 447 448
12 71 87 92 142 150 161 304 314 449 450 451 452
12 84 89 301 312 450 453 454 455 456 457 458 459
12 24 133 326 396 425 460 461 462 463 464 465 466
12 330 339 427 462 467 468 469 470 471 472 473 474
12 177 187 260 271 475 476 477 478 479 480 481 482
12 109 111 204 225 353 373 483 484 485 486 487 488
12 40 56 166 193 489 490 491 492 493 494 495 496
12 94 128 238 365 390 445 497 498 499 500 501 502
12 80 91 442 454 497 503 504 505 506 507 508 509
12 60 191 274 352 475 489 510 511 512 513 514 515
12 143 213 467 516 517 518 519 520 521 522 523 524
12 148 159 307 520 525 526 527 528 529 530 531 532
12 263 269 297 311 457 476 533 534 535 536 537 538
12 90 123 278 387 498 539 540 541 542 543 544 545
12 93 145 283 310 449 453 539 546 547 548 549 550
12 149 210 282 522 544 549 551 552 553 554 555 556
12 201 220 344 422 488 557 558 559 560 561 562 563
12 186 223 338 561 564 565 566 567 568 569 570 571
12 199 217 222 341 474 523 558 570 572 573 574 575
12 47 62 275 383 447 506 576 577 578 579 580 581
12 52 86 266 272 303 409 459 509 535 581 582 583
12 7 29 317 329 428 440 463 584 585 586 587 588
12 17 105 244 362 374 429 589 590 591 592 593 594
12 102 131 247 369 393 434 502 545 593 595 596 597
12 72 95 137 151 392 398 451 542 547 555 598 599
12 273 293 446 456 503 533 579 582 600 601 602 603
12 138 147 399 464 473 521 556 598 604 605 606 607
12 154 176 325 525 608 609 610 611 612 613 614 615
12 331 343 468 519 530 569 575 613 616 617 618 619
12 0 35 249 436 620 621 622 623 624 625 626 627
12 9 20 377 421 592 623 628 629 630 631 632 633
12 136 156 332 465 587 614 634 635 636 637 638 639
12 46 79 250 403 505 580 583 640 641 642 643 644
12 375 419 487 493 562 632 645 646 647 648 649 650
12 168 192 320 337 416 494 563 568 646 651 652 653
12 10 26 231 255 439 588 624 654 655 656 657 658
12 402 410 435 584 634 654 659 660 661 662 663 664
12 64 116 354 372 385 485 495 515 650 665 666 667
12 99 129 203 215 285 541 554 596 668 669 670 671
12 245 251 363 379 448 500 504 576 641 672 673 674
12 12 28 400 426 430 460 472 606 675 676 677 678
12 16 202 336 420 424 471 560 574 675 679 680 681
12 36 58 370 380 490 620 630 645 665 682 683 684
12 306 360 477 528 536 685 686 687 688 689 690 691
12 180 188 478 529 567 608 618 688 692 693 694 695
12 103 115 126 200 211 221 281 291 350 358 486 670
12 174 184 190 323 335 342 566 612 619 653 693 696
12 152 212 280 313 361 524 531 550 552 691 697 698
12 74 88 98 236 243 258 389 499 508 644 674 699
12 162 185 267 305 309 482 527 538 615 687 695 700
12 70 81 234 252 404 640 656 660 699 701 702 703
12 57 112 270 289 348 381 443 510 577 600 666 704
12 27 73 139 230 401 461 586 636 655 662 703 705
12 194 227 349 359 481 514 571 690 694 706 707 708
12 391 395 431 540 553 597 599 604 671 677 709 710
12 246 253 366 378 384 589 622 628 673 682 711 712
12 21 104 206 432 594 595 669 678 681 710 713 714
12 279 288 308 356 455 534 546 601 686 698 715 716
12 44 55 65 257 382 578 626 643 672 684 712 717
12 160 178 262 298 406 411 611 638 659 700 718 719
12 37 48 254 408 414 437 621 642 657 661 701 717
12 169 182 318 328 412 438 585 609 637 663 696 719
12 76 85 135 157 300 405 452 635 664 702 705 718
12 140 153 163 333 466 470 518 532 607 610 617 639
12 97 127 287 290 444 458 501 507 543 548 602 716
12 189 218 347 483 491 511 559 565 648 651 667 708
12 5 22 32 235 248 256 433 591 625 631 658 711
12 42 49 59 172 183 195 268 277 415 480 492 512
12 13 101 197 371 417 484 557 590 629 647 679 713
12 8 43 173 322 418 441 496 627 633 649 652 683
12 276 296 351 357 479 513 537 603 689 704 707 715
12 198 208 469 517 551 573 605 668 676 680 709 714
12 209 219 355 516 526 564 572 616 685 692 697 706
