# Generated using Miratope v0.5.0 (https://github.com/galoomba1/miratope-rs)
4OFF

# Vertices, Faces, Edges, Cells
120 1920 1440 120

# Vertices
0.809016994374945 0.809016994374945 -0.809016994374945 0.809016994374945 
0.809016994374945 -0.809016994374945 -0.809016994374945 -0.809016994374945 
-0.809016994374945 0.809016994374945 -0.809016994374945 -0.809016994374945 
-0.809016994374945 -0.809016994374945 -0.809016994374945 0.809016994374945 
-1.30901699437495 0 -0.809016994374945 0.5 
0.5 -1.30901699437495 -0.809016994374945 0 
0 0.5 -0.809016994374945 -1.30901699437495 
0.809016994374945 0.809016994374945 -0.809016994374945 -0.809016994374945 
0.809016994374945 -0.809016994374945 -0.809016994374945 0.809016994374945 
-0.809016994374945 0.809016994374945 -0.809016994374945 0.809016994374945 
-0.809016994374945 -0.809016994374945 -0.809016994374945 -0.809016994374945 
0 0.5 -0.809016994374945 1.30901699437495 
-1.30901699437495 0 -0.809016994374945 -0.5 
0.5 1.30901699437495 -0.809016994374945 0 
0 -0.5 -0.809016994374945 -1.30901699437495 
1.30901699437495 0 -0.809016994374945 -0.5 
-0.5 -1.30901699437495 -0.809016994374945 0 
1.30901699437495 0 -0.809016994374945 0.5 
-0.5 1.30901699437495 -0.809016994374945 0 
0 -0.5 -0.809016994374945 1.30901699437495 
-0.809016994374945 0.809016994374945 0.809016994374945 0.809016994374945 
-0.809016994374945 0 0.5 1.30901699437495 
-0.809016994374945 1.30901699437495 0 -0.5 
-0.809016994374945 -0.5 -1.30901699437495 0 
0 1.30901699437495 0.5 0.809016994374945 
0.5 0 -1.30901699437495 0.809016994374945 
-1.30901699437495 -0.5 0 0.809016994374945 
0.5 0.809016994374945 0 1.30901699437495 
-1.30901699437495 0.809016994374945 0.5 0 
0 0.809016994374945 -1.30901699437495 -0.5 
0 1.61803398874989 0 0 
0 0 0 1.61803398874989 
-1.61803398874989 0 0 0 
0 0 -1.61803398874989 0 
-0.809016994374945 -0.809016994374945 0.809016994374945 -0.809016994374945 
-0.809016994374945 -1.30901699437495 0 0.5 
-0.809016994374945 0.5 -1.30901699437495 0 
-0.809016994374945 0 0.5 -1.30901699437495 
-1.30901699437495 0.5 0 -0.809016994374945 
0.5 0 -1.30901699437495 -0.809016994374945 
0 -1.30901699437495 0.5 -0.809016994374945 
0 -1.61803398874989 0 0 
0 0 0 -1.61803398874989 
0 -0.809016994374945 -1.30901699437495 0.5 
0.5 -0.809016994374945 0 -1.30901699437495 
-1.30901699437495 -0.809016994374945 0.5 0 
0.809016994374945 0.809016994374945 0.809016994374945 -0.809016994374945 
1.30901699437495 0.809016994374945 0.5 0 
0 0.809016994374945 -1.30901699437495 0.5 
-0.5 0.809016994374945 0 -1.30901699437495 
0.809016994374945 1.30901699437495 0 0.5 
0.809016994374945 0 0.5 -1.30901699437495 
0.809016994374945 -0.5 -1.30901699437495 0 
1.61803398874989 0 0 0 
0 1.30901699437495 0.5 -0.809016994374945 
-0.5 0 -1.30901699437495 -0.809016994374945 
1.30901699437495 -0.5 0 -0.809016994374945 
0.809016994374945 -0.809016994374945 0.809016994374945 0.809016994374945 
1.30901699437495 -0.809016994374945 0.5 0 
-0.5 -0.809016994374945 0 1.30901699437495 
0 -0.809016994374945 -1.30901699437495 -0.5 
1.30901699437495 0.5 0 0.809016994374945 
0 -1.30901699437495 0.5 0.809016994374945 
-0.5 0 -1.30901699437495 0.809016994374945 
0.809016994374945 0.5 -1.30901699437495 0 
0.809016994374945 0 0.5 1.30901699437495 
0.809016994374945 -1.30901699437495 0 -0.5 
-0.809016994374945 0.809016994374945 0.809016994374945 -0.809016994374945 
-0.809016994374945 -0.809016994374945 0.809016994374945 0.809016994374945 
-0.809016994374945 0.5 1.30901699437495 0 
-0.809016994374945 0 -0.5 -1.30901699437495 
-0.809016994374945 1.30901699437495 0 0.5 
-0.809016994374945 0 -0.5 1.30901699437495 
-0.809016994374945 -1.30901699437495 0 -0.5 
-0.809016994374945 -0.5 1.30901699437495 0 
0.809016994374945 -0.809016994374945 0.809016994374945 -0.809016994374945 
-1.30901699437495 -0.5 0 -0.809016994374945 
1.30901699437495 0.5 0 -0.809016994374945 
0.5 0 1.30901699437495 -0.809016994374945 
0 1.30901699437495 -0.5 -0.809016994374945 
-0.5 0 1.30901699437495 -0.809016994374945 
0 -1.30901699437495 -0.5 -0.809016994374945 
0.809016994374945 0.809016994374945 0.809016994374945 0.809016994374945 
0 0.809016994374945 1.30901699437495 0.5 
0.5 0.809016994374945 0 -1.30901699437495 
-1.30901699437495 0.809016994374945 -0.5 0 
0 0.809016994374945 1.30901699437495 -0.5 
-0.5 0.809016994374945 0 1.30901699437495 
1.30901699437495 0.809016994374945 -0.5 0 
-1.30901699437495 0.5 0 0.809016994374945 
0.5 0 1.30901699437495 0.809016994374945 
0 1.30901699437495 -0.5 0.809016994374945 
-0.5 0 1.30901699437495 0.809016994374945 
0 -1.30901699437495 -0.5 0.809016994374945 
1.30901699437495 -0.5 0 0.809016994374945 
0 -0.809016994374945 1.30901699437495 0.5 
-1.30901699437495 -0.809016994374945 -0.5 0 
0.5 -0.809016994374945 0 1.30901699437495 
-0.5 -0.809016994374945 0 -1.30901699437495 
0 -0.809016994374945 1.30901699437495 -0.5 
1.30901699437495 -0.809016994374945 -0.5 0 
0.809016994374945 -1.30901699437495 0 0.5 
0.809016994374945 0.5 1.30901699437495 0 
0.809016994374945 0 -0.5 -1.30901699437495 
0.809016994374945 0 -0.5 1.30901699437495 
0.809016994374945 1.30901699437495 0 -0.5 
0.809016994374945 -0.5 1.30901699437495 0 
0.5 1.30901699437495 0.809016994374945 0 
-1.30901699437495 0 0.809016994374945 0.5 
0 -0.5 0.809016994374945 -1.30901699437495 
0 0 1.61803398874989 0 
0 0.5 0.809016994374945 1.30901699437495 
0.5 -1.30901699437495 0.809016994374945 0 
-1.30901699437495 0 0.809016994374945 -0.5 
1.30901699437495 0 0.809016994374945 -0.5 
-0.5 1.30901699437495 0.809016994374945 0 
0 -0.5 0.809016994374945 1.30901699437495 
0 0.5 0.809016994374945 -1.30901699437495 
1.30901699437495 0 0.809016994374945 0.5 
-0.5 -1.30901699437495 0.809016994374945 0 

# Faces
3 1 2 0
3 1 3 0
3 2 3 0
3 4 5 0
3 0 6 4
3 5 6 0
3 8 9 7
3 7 8 10
3 7 9 10
3 7 5 11
3 7 11 12
3 7 5 12
3 8 9 10
3 8 4 13
3 8 13 14
3 4 14 8
3 2 3 1
3 11 15 2
3 2 16 11
3 15 16 2
3 3 18 17
3 3 17 14
3 3 18 14
3 10 15 18
3 10 19 15
3 10 18 19
3 18 14 17
3 13 4 14
3 11 16 15
3 11 12 5
3 15 18 19
3 5 6 4
3 0 2 20
3 3 20 0
3 0 21 22
3 0 21 23
3 0 22 23
3 2 20 3
3 24 25 2
3 24 26 2
3 25 26 2
3 27 28 3
3 27 29 3
3 3 29 28
3 31 32 30
3 31 33 30
3 32 33 30
3 30 25 21
3 30 12 21
3 30 12 25
3 31 33 32
3 31 13 28
3 13 23 31
3 31 23 28
3 32 19 24
3 32 24 29
3 32 19 29
3 27 28 29
3 19 29 24
3 24 25 26
3 21 23 22
3 25 12 21
3 13 23 28
3 2 34 1
3 1 3 34
3 35 36 1
3 35 37 1
3 36 37 1
3 3 34 2
3 5 34 4
3 6 34 4
3 6 34 5
3 3 38 39
3 3 40 38
3 3 40 39
3 32 41 33
3 41 42 32
3 32 33 42
3 32 43 40
3 40 6 32
3 43 6 32
3 41 42 33
3 33 38 35
3 33 38 44
3 33 44 35
3 45 36 42
3 45 5 42
3 42 36 5
3 36 5 45
3 38 35 44
3 38 39 40
3 36 37 35
3 40 43 6
3 0 1 46
3 2 46 0
3 1 46 2
3 18 46 17
3 14 46 17
3 18 46 14
3 1 48 47
3 1 49 47
3 48 49 1
3 50 51 2
3 2 52 50
3 2 52 51
3 30 33 53
3 30 42 53
3 33 53 42
3 53 48 54
3 54 14 53
3 48 14 53
3 33 30 42
3 30 51 17
3 30 17 55
3 30 51 55
3 33 50 56
3 33 50 49
3 33 49 56
3 48 49 47
3 56 49 50
3 51 52 50
3 17 51 55
3 54 14 48
3 0 57 1
3 3 57 0
3 0 59 58
3 58 60 0
3 0 59 60
3 1 3 57
3 11 57 15
3 11 16 57
3 16 57 15
3 1 61 62
3 1 61 63
3 1 62 63
3 53 41 31
3 31 53 33
3 33 41 53
3 33 41 31
3 31 58 64
3 31 58 16
3 31 16 64
3 41 15 65
3 41 65 63
3 41 63 15
3 61 59 33
3 33 61 66
3 33 59 66
3 61 59 66
3 61 63 62
3 65 15 63
3 59 60 58
3 64 16 58
3 20 34 2
3 3 34 20
3 36 20 35
3 35 37 20
3 36 20 37
3 9 68 67
3 9 10 67
3 67 10 68
3 10 68 9
3 9 69 35
3 9 69 70
3 9 70 35
3 68 37 71
3 71 23 68
3 68 23 37
3 2 72 69
3 2 69 73
3 2 72 73
3 21 22 34
3 21 23 34
3 22 34 23
3 10 74 22
3 10 22 72
3 10 72 74
3 37 23 71
3 69 72 73
3 69 35 70
3 22 74 72
3 1 46 34
3 2 46 34
3 38 46 39
3 38 46 40
3 39 40 46
3 7 75 67
3 7 75 10
3 10 7 67
3 10 75 67
3 75 54 39
3 54 76 75
3 75 39 76
3 77 40 67
3 67 77 55
3 40 55 67
3 78 79 1
3 78 76 1
3 1 79 76
3 2 77 80
3 2 77 81
3 2 80 81
3 10 80 56
3 10 56 79
3 10 80 79
3 80 81 77
3 40 55 77
3 79 76 78
3 54 76 39
3 56 79 80
3 67 82 7
3 7 9 82
3 67 9 82
3 0 20 46
3 2 46 20
3 28 46 27
3 27 46 29
3 28 46 29
3 0 84 83
3 83 85 0
3 0 85 84
3 48 20 47
3 47 20 49
3 49 20 48
3 9 67 7
3 7 27 86
3 7 27 85
3 7 86 85
3 67 87 47
3 47 29 67
3 67 29 87
3 9 88 83
3 83 49 9
3 9 88 49
3 87 29 47
3 86 85 27
3 83 88 49
3 84 85 83
3 9 8 82
3 8 68 82
3 68 82 9
3 82 89 25
3 82 89 62
3 82 62 25
3 20 57 0
3 20 57 3
3 24 57 25
3 26 57 24
3 25 26 57
3 61 20 62
3 61 63 20
3 63 20 62
3 8 68 9
3 8 90 91
3 8 90 26
3 8 26 91
3 61 92 9
3 9 61 93
3 92 93 9
3 94 92 3
3 3 91 94
3 3 91 92
3 92 93 61
3 91 26 90
3 94 91 92
3 25 62 89
3 1 34 57
3 34 57 3
3 8 75 68
3 8 75 10
3 10 68 8
3 8 44 95
3 8 95 96
3 44 96 8
3 68 75 10
3 97 45 75
3 75 60 97
3 75 45 60
3 68 58 43
3 58 98 68
3 68 98 43
3 1 99 97
3 1 96 97
3 1 99 96
3 59 34 58
3 60 34 58
3 59 60 34
3 3 100 95
3 3 95 98
3 3 100 98
3 58 98 43
3 97 99 96
3 97 45 60
3 95 100 98
3 95 96 44
3 7 8 82
3 7 82 75
3 8 75 82
3 82 101 64
3 82 51 101
3 82 64 51
3 0 57 46
3 1 57 46
3 0 102 101
3 102 103 0
3 0 103 101
3 51 57 50
3 52 57 50
3 51 52 57
3 7 75 8
3 102 104 7
3 102 66 7
3 7 66 104
3 65 105 75
3 65 52 75
3 105 52 75
3 1 106 105
3 1 104 105
3 1 104 106
3 102 104 66
3 102 101 103
3 65 52 105
3 105 106 104
3 101 64 51
3 34 46 20
3 78 79 20
3 76 20 78
3 79 76 20
3 2 107 108
3 2 109 107
3 2 108 109
3 83 34 84
3 83 34 85
3 84 34 85
3 30 32 110
3 30 110 42
3 32 42 30
3 78 108 30
3 78 70 30
3 108 70 30
3 32 42 110
3 110 71 84
3 110 71 76
3 84 76 110
3 42 107 74
3 42 107 85
3 74 85 42
3 74 85 107
3 108 109 107
3 71 76 84
3 108 70 78
3 20 57 34
3 69 72 57
3 69 57 73
3 72 57 73
3 97 99 20
3 96 20 97
3 99 96 20
3 111 112 3
3 111 113 3
3 112 113 3
3 31 110 32
3 41 110 31
3 41 110 32
3 97 89 110
3 110 97 73
3 89 73 110
3 31 41 32
3 111 99 32
3 111 93 32
3 32 93 99
3 41 90 72
3 90 113 41
3 41 113 72
3 90 72 113
3 99 93 111
3 111 112 113
3 97 73 89
3 20 46 57
3 94 92 46
3 94 46 91
3 92 46 91
3 0 114 115
3 114 116 0
3 0 116 115
3 105 20 106
3 105 20 104
3 104 20 106
3 53 110 30
3 30 53 31
3 31 110 53
3 53 86 91
3 53 116 91
3 53 116 86
3 31 110 30
3 110 105 94
3 110 94 87
3 110 105 87
3 31 106 88
3 31 88 115
3 31 115 106
3 88 106 115
3 94 105 87
3 115 116 114
3 86 116 91
3 46 57 34
3 100 46 95
3 95 46 98
3 100 46 98
3 80 57 77
3 77 57 81
3 80 57 81
3 101 34 102
3 102 34 103
3 101 34 103
3 41 53 110
3 53 110 42
3 42 53 41
3 95 117 53
3 53 95 81
3 117 81 53
3 42 41 110
3 41 80 118
3 41 103 118
3 41 103 80
3 42 102 100
3 102 119 42
3 100 119 42
3 80 103 118
3 102 100 119
3 117 81 95
3 67 75 82
3 68 82 75
3 67 82 68
3 82 112 108
3 82 117 108
3 82 112 117
3 111 46 112
3 111 113 46
3 113 46 112
3 107 57 108
3 109 57 107
3 109 57 108
3 68 75 67
3 111 114 67
3 111 119 67
3 67 119 114
3 68 115 118
3 68 118 109
3 115 109 68
3 115 34 114
3 114 116 34
3 116 34 115
3 118 115 109
3 111 119 114
3 108 117 112
3 71 37 7
3 71 23 7
3 37 7 23
3 13 4 67
3 13 14 67
3 4 67 14
3 54 9 39
3 76 9 54
3 76 9 39
3 48 32 54
3 14 32 54
3 48 14 32
3 84 33 71
3 76 33 71
3 84 33 76
3 13 42 28
3 23 42 13
3 23 42 28
3 97 45 9
3 60 9 97
3 60 9 45
3 5 68 11
3 12 68 11
3 5 68 12
3 25 10 89
3 62 10 89
3 62 10 25
3 36 31 45
3 45 31 5
3 36 5 31
3 21 41 25
3 21 12 41
3 12 41 25
3 97 33 89
3 97 33 73
3 89 33 73
3 15 82 18
3 15 19 82
3 18 82 19
3 87 8 47
3 47 29 8
3 29 8 87
3 65 105 9
3 65 52 9
3 52 9 105
3 24 53 19
3 24 53 29
3 19 29 53
3 15 30 65
3 63 30 65
3 63 30 15
3 105 33 94
3 94 87 33
3 105 33 87
3 58 43 7
3 98 7 58
3 43 98 7
3 77 8 40
3 77 55 8
3 55 8 40
3 101 10 64
3 101 51 10
3 64 10 51
3 40 53 43
3 6 53 40
3 43 6 53
3 51 41 17
3 17 55 41
3 51 41 55
3 58 64 42
3 58 16 42
3 64 42 16
3 111 114 8
3 111 119 8
3 114 119 8
3 61 75 92
3 93 75 61
3 93 75 92
3 104 68 102
3 66 68 102
3 66 68 104
3 111 53 99
3 111 93 53
3 99 93 53
3 59 110 61
3 61 66 110
3 66 110 59
3 102 100 31
3 119 31 102
3 119 31 100
3 56 80 82
3 56 82 79
3 80 82 79
3 118 7 115
3 109 7 118
3 109 7 115
3 88 75 83
3 49 75 83
3 88 49 75
3 118 30 80
3 118 30 103
3 80 30 103
3 56 110 50
3 50 49 110
3 49 110 56
3 106 42 88
3 115 42 88
3 115 42 106
3 35 75 69
3 69 75 70
3 70 75 35
3 95 44 67
3 95 67 96
3 96 67 44
3 112 10 108
3 108 10 117
3 112 10 117
3 38 110 35
3 44 110 38
3 35 44 110
3 95 117 32
3 95 32 81
3 81 32 117
3 78 41 108
3 70 41 78
3 70 41 108
3 22 74 82
3 22 82 72
3 74 82 72
3 90 91 67
3 90 67 26
3 91 26 67
3 86 68 27
3 27 68 85
3 85 68 86
3 90 30 72
3 90 30 113
3 72 113 30
3 74 31 107
3 107 85 31
3 74 31 85
3 86 32 91
3 91 116 32
3 86 116 32
3 38 91 3
3 3 39 91
3 22 64 10
3 10 72 64
3 79 89 10
3 10 79 25
3 32 91 43
3 32 6 91
3 38 91 39
3 43 91 6
3 25 6 71
3 71 25 96
3 71 96 6
3 72 38 13
3 13 72 60
3 13 43 89
3 89 70 13
3 38 60 13
3 43 70 13
3 11 39 22
3 11 96 22
3 11 96 39
3 72 64 22
3 22 39 96
3 72 38 60
3 25 79 89
3 89 43 70
3 25 6 96
3 85 43 7
3 85 98 7
3 63 79 1
3 1 48 96
3 1 96 49
3 1 76 63
3 42 64 85
3 85 16 42
3 103 43 18
3 103 76 18
3 18 43 76
3 52 4 79
3 79 52 98
3 79 63 76
3 4 98 79
3 16 85 64
3 64 4 49
3 49 81 64
3 64 81 4
3 48 103 38
3 103 16 48
3 49 96 48
3 48 38 16
3 98 85 43
3 52 4 98
3 103 16 38
3 103 76 43
3 4 81 49
3 0 22 103
3 0 60 84
3 0 85 60
3 23 103 0
3 88 60 9
3 70 105 9
3 9 70 52
3 9 60 49
3 30 70 15
3 25 103 30
3 30 12 103
3 30 63 70
3 22 63 88
3 88 14 22
3 88 49 60
3 88 14 63
3 52 70 105
3 84 52 91
3 91 12 84
3 91 12 52
3 15 63 70
3 22 103 23
3 22 14 63
3 84 60 85
3 84 12 52
3 12 103 25
3 35 52 9
3 9 93 39
3 93 76 9
3 2 52 72
3 2 25 81
3 2 26 81
3 52 73 2
3 32 19 81
3 32 48 93
3 93 14 32
3 32 81 29
3 72 73 52
3 85 39 19
3 19 73 85
3 19 29 81
3 19 39 73
3 26 81 25
3 26 5 48
3 48 26 70
3 48 14 93
3 48 70 5
3 85 73 39
3 26 70 5
3 70 35 52
3 39 76 93
3 7 27 43
3 104 71 7
3 7 23 104
3 2 50 72
3 30 17 72
3 30 55 72
3 52 50 72
3 19 85 50
3 19 39 50
3 39 50 85
3 79 52 27
3 4 27 79
3 85 43 27
3 52 27 4
3 71 19 88
3 88 55 71
3 19 55 88
3 23 104 71
3 87 79 17
3 87 23 17
3 87 23 79
3 55 72 17
3 17 79 23
3 71 55 19
3 25 77 2
3 10 25 56
3 42 88 36
3 42 88 5
3 42 100 13
3 42 23 100
3 36 88 5
3 77 25 81
3 5 77 48
3 48 77 70
3 70 77 5
3 79 44 17
3 17 36 84
3 84 81 17
3 36 81 17
3 17 44 23
3 13 100 23
3 43 56 13
3 13 56 70
3 79 25 56
3 43 70 56
3 79 23 44
3 84 81 36
3 0 59 85
3 8 87 96
3 91 55 8
3 8 26 55
3 8 96 29
3 64 85 31
3 31 85 16
3 104 18 26
3 18 60 104
3 104 29 89
3 104 16 89
3 104 26 60
3 104 29 16
3 87 64 93
3 64 12 87
3 87 93 12
3 87 29 96
3 52 59 91
3 91 12 59
3 91 26 55
3 18 60 26
3 60 85 59
3 52 59 12
3 29 16 89
3 93 12 64
3 8 29 44
3 3 100 29
3 3 29 98
3 41 15 70
3 41 25 103
3 103 12 41
3 63 70 41
3 63 6 100
3 63 73 100
3 100 29 98
3 100 73 6
3 15 36 93
3 93 98 15
3 15 36 98
3 93 44 64
3 64 44 12
3 25 66 6
3 25 66 96
3 6 96 66
3 6 73 63
3 93 36 98
3 93 44 12
3 96 29 44
3 91 77 8
3 1 61 79
3 1 105 36
3 36 104 1
3 53 91 43
3 53 6 91
3 18 61 103
3 18 43 61
3 61 79 63
3 103 61 43
3 100 50 63
3 6 50 100
3 63 6 50
3 104 36 105
3 105 11 100
3 105 55 11
3 105 100 55
3 104 18 77
3 60 77 104
3 55 77 91
3 18 77 60
3 11 100 55
3 35 104 1
3 48 97 1
3 72 101 10
3 41 17 72
3 41 55 72
3 36 104 35
3 17 36 59
3 81 59 17
3 4 97 64
3 64 81 97
3 96 48 97
3 4 97 81
3 11 35 100
3 39 101 11
3 96 101 11
3 11 55 35
3 55 35 100
3 64 101 72
3 81 59 36
3 39 96 101
3 9 61 39
3 9 97 88
3 3 100 27
3 39 94 3
3 88 36 31
3 31 88 5
3 31 100 13
3 31 100 23
3 61 39 93
3 29 27 100
3 93 27 15
3 15 27 36
3 93 27 36
3 97 88 60
3 94 39 91
3 13 94 72
3 13 94 60
3 72 94 60
3 0 101 23
3 7 23 66
3 53 81 19
3 53 48 93
3 53 93 14
3 53 29 81
3 19 66 88
3 88 63 101
3 88 14 101
3 88 66 55
3 48 103 94
3 16 94 48
3 103 16 94
3 29 56 104
3 104 16 56
3 66 23 104
3 29 56 16
3 55 66 19
3 103 23 101
3 63 101 14
3 9 45 49
3 18 113 3
3 3 28 98
3 3 113 14
3 49 89 33
3 49 73 33
3 22 63 45
3 22 14 45
3 18 37 26
3 18 14 113
3 18 37 60
3 6 28 63
3 63 28 73
3 28 98 29
3 6 28 73
3 89 49 73
3 89 37 29
3 89 16 37
3 60 37 26
3 60 49 45
3 14 45 63
3 16 37 29
3 37 105 1
3 15 117 10
3 22 51 10
3 10 18 117
3 33 38 105
3 44 105 33
3 44 105 38
3 37 105 36
3 18 77 37
3 60 37 77
3 38 51 13
3 13 60 51
3 15 54 36
3 15 54 98
3 44 54 64
3 64 12 54
3 36 54 98
3 44 54 12
3 18 117 15
3 64 22 51
3 38 60 51
3 0 115 4
3 0 6 115
3 7 11 115
3 12 115 7
3 33 50 89
3 38 87 33
3 50 28 63
3 6 50 28
3 49 50 89
3 64 49 24
3 64 4 24
3 49 24 4
3 105 38 87
3 105 11 28
3 105 55 28
3 12 115 11
3 4 6 115
3 64 54 87
3 12 87 54
3 11 55 28
3 2 108 11
3 16 108 2
3 10 18 108
3 10 108 19
3 33 87 35
3 33 71 59
3 33 76 59
3 38 35 87
3 71 76 59
3 19 45 71
3 71 55 45
3 18 21 43
3 18 21 76
3 48 38 21
3 48 16 21
3 38 21 16
3 76 21 43
3 11 35 28
3 11 16 108
3 18 19 108
3 19 55 45
3 35 28 55
3 61 54 9
3 2 11 107
3 15 107 2
3 2 77 24
3 33 71 61
3 33 84 61
3 71 25 47
3 71 6 47
3 11 47 22
3 11 47 39
3 22 39 47
3 6 47 25
3 71 84 61
3 39 61 54
3 11 15 107
3 15 54 27
3 27 54 36
3 25 24 77
3 84 24 17
3 17 24 36
3 36 24 84
3 7 37 66
3 7 109 5
3 7 12 109
3 2 109 15
3 51 73 2
3 2 16 109
3 33 73 56
3 66 84 33
3 66 76 33
3 49 73 56
3 56 37 29
3 16 37 56
3 16 109 15
3 52 73 51
3 84 76 66
3 52 40 84
3 84 40 12
3 23 66 37
3 52 12 40
3 5 109 12
3 4 116 0
3 5 116 0
3 21 101 0
3 9 35 65
3 35 94 33
3 48 65 26
3 5 65 48
3 26 5 65
3 52 65 35
3 27 62 52
3 4 62 27
3 87 35 94
3 48 94 21
3 94 21 16
3 87 62 17
3 87 23 62
3 5 116 4
3 17 62 23
3 21 101 23
3 52 4 62
3 40 94 3
3 3 112 17
3 3 14 112
3 10 56 62
3 10 112 15
3 10 112 19
3 44 94 33
3 56 97 33
3 35 94 44
3 39 94 40
3 19 39 58
3 19 58 73
3 73 58 39
3 17 112 14
3 17 62 44
3 73 56 97
3 25 56 62
3 15 19 112
3 23 62 44
3 7 11 118
3 5 118 7
3 7 27 58
3 1 97 47
3 33 97 50
3 48 47 97
3 11 101 47
3 101 47 39
3 11 5 118
3 19 50 58
3 50 58 39
3 50 97 56
3 77 65 48
3 5 65 77
3 13 65 56
3 13 65 43
3 56 43 65
3 58 27 43
3 26 40 8
3 8 4 119
3 8 14 119
3 62 76 1
3 66 76 59
3 52 59 40
3 12 40 59
3 19 45 66
3 63 101 45
3 101 45 14
3 98 62 52
3 62 76 63
3 4 98 62
3 55 40 26
3 66 45 55
3 4 14 119
3 13 111 8
3 8 111 4
3 17 111 3
3 3 18 111
3 61 71 59
3 18 21 61
3 43 61 21
3 97 50 89
3 13 89 65
3 89 65 43
3 59 24 17
3 64 24 97
3 97 24 4
3 59 24 36
3 17 111 18
3 13 111 4
3 5 114 0
3 6 114 0
3 58 84 0
3 8 47 44
3 8 114 13
3 14 114 8
3 66 47 25
3 6 66 47
3 47 44 29
3 61 84 66
3 94 44 105
3 94 51 13
3 60 51 94
3 13 114 14
3 5 114 6
3 60 84 58
3 46 91 38
3 39 91 46
3 77 91 67
3 67 91 55
3 107 64 42
3 42 115 36
3 50 85 117
3 39 117 50
3 107 64 85
3 48 103 107
3 48 38 107
3 103 107 38
3 115 36 88
3 71 117 88
3 88 117 55
3 48 115 77
3 77 70 115
3 48 115 70
3 71 117 55
3 85 39 117
3 20 63 79
3 20 48 96
3 20 96 49
3 20 76 63
3 67 87 96
3 67 26 55
3 67 29 96
3 108 63 30
3 55 113 30
3 48 115 26
3 26 115 70
3 87 79 113
3 87 23 113
3 113 55 72
3 79 113 23
3 70 108 63
3 67 29 44
3 34 22 103
3 60 84 34
3 60 85 34
3 34 103 23
3 32 29 117
3 39 109 22
3 22 96 109
3 79 44 113
3 36 113 84
3 84 81 113
3 85 117 73
3 81 29 117
3 39 117 73
3 36 81 113
3 44 113 23
3 96 109 39
3 57 72 52
3 57 81 25
3 57 81 26
3 57 73 52
3 23 104 68
3 23 66 68
3 31 119 23
3 94 119 72
3 94 119 60
3 26 112 104
3 104 112 60
3 63 116 100
3 73 116 100
3 25 66 116
3 96 116 25
3 66 116 96
3 73 116 63
3 119 23 100
3 72 60 119
3 26 112 60
3 101 72 82
3 64 72 82
3 50 72 57
3 53 111 48
3 116 43 53
3 87 64 118
3 87 118 93
3 91 118 59
3 91 52 118
3 59 52 118
3 93 118 64
3 100 116 50
3 63 50 116
3 101 111 88
3 88 111 63
3 63 111 101
3 93 48 111
3 116 43 91
3 25 77 57
3 75 61 39
3 97 88 75
3 75 88 60
3 75 93 39
3 41 118 25
3 103 112 61
3 61 43 112
3 44 118 64
3 118 25 103
3 93 118 44
3 64 114 97
3 81 114 97
3 64 81 114
3 104 77 112
3 60 77 112
3 43 112 103
3 43 85 68
3 68 98 85
3 34 85 59
3 41 63 108
3 41 113 55
3 72 119 38
3 59 113 36
3 81 113 59
3 89 119 43
3 89 70 119
3 93 108 36
3 93 108 98
3 36 108 98
3 38 119 60
3 70 119 43
3 46 100 29
3 29 98 46
3 75 105 70
3 75 70 52
3 75 60 49
3 53 29 117
3 66 117 88
3 79 114 52
3 79 114 98
3 49 114 64
3 52 98 114
3 81 49 114
3 105 100 109
3 105 109 55
3 100 109 55
3 55 66 117
3 82 22 64
3 89 79 82
3 25 79 82
3 20 61 79
3 36 105 20
3 36 104 20
3 31 64 107
3 31 115 36
3 104 89 107
3 104 29 107
3 89 107 29
3 22 111 88
3 22 111 63
3 20 35 104
3 20 97 48
3 68 27 43
3 71 104 68
3 32 48 111
3 32 116 43
3 27 108 93
3 36 27 108
3 71 116 25
3 96 71 116
3 25 56 82
3 46 100 27
3 46 39 94
3 25 118 30
3 91 84 118
3 84 118 52
3 48 94 107
3 103 94 107
3 56 107 104
3 56 107 29
3 79 114 27
3 52 114 27
3 75 52 35
3 76 93 75
3 23 101 34
3 119 23 42
3 100 109 35
3 43 56 119
3 56 119 70
3 39 109 101
3 96 101 109
3 76 112 103
3 43 76 112
3 35 109 55
3 18 113 46
3 46 28 98
3 46 14 113
3 7 86 98
3 30 12 80
3 30 51 113
3 105 109 28
3 115 12 109
3 18 86 103
3 18 86 76
3 86 98 85
3 103 86 76
3 80 12 103
3 55 109 28
3 55 51 113
3 37 105 20
3 9 105 69
3 24 117 32
3 6 86 32
3 89 107 37
3 29 107 37
3 84 113 24
3 24 117 29
3 36 24 113
3 69 105 70
3 91 86 6
3 91 69 84
3 91 69 12
3 89 86 13
3 13 70 86
3 89 86 70
3 12 69 84
3 4 115 34
3 34 115 6
3 10 89 80
3 45 115 42
3 36 45 115
3 6 80 71
3 96 80 71
3 45 117 71
3 4 69 79
3 98 69 79
3 98 69 4
3 54 108 36
3 98 54 108
3 108 18 117
3 79 89 80
3 6 80 96
3 55 117 45
3 57 11 108
3 57 108 16
3 8 87 95
3 41 65 108
3 89 65 119
3 65 108 63
3 43 119 65
3 101 111 45
3 119 111 4
3 45 111 63
3 104 95 89
3 104 16 95
3 95 87 96
3 11 92 101
3 11 96 92
3 101 92 96
3 89 95 16
3 11 107 57
3 57 15 107
3 57 24 77
3 8 90 77
3 31 102 13
3 31 58 107
3 102 13 100
3 64 107 58
3 11 90 105
3 105 100 90
3 90 77 91
3 11 90 100
3 24 114 97
3 64 114 24
3 111 114 13
3 57 109 15
3 57 73 51
3 16 109 57
3 53 14 99
3 94 103 99
3 94 16 99
3 94 119 51
3 52 114 62
3 98 62 114
3 119 114 14
3 93 106 15
3 98 106 15
3 98 106 93
3 103 16 99
3 99 14 93
3 51 119 60
3 34 4 116
3 34 116 5
3 34 101 21
3 10 74 101
3 32 40 116
3 19 95 32
3 40 116 43
3 21 112 43
3 76 112 21
3 97 74 4
3 81 74 97
3 81 19 95
3 72 74 101
3 81 74 4
3 108 112 19
3 46 94 40
3 46 112 17
3 14 112 46
3 5 106 42
3 101 47 109
3 47 109 39
3 84 40 118
3 40 118 52
3 118 5 109
3 88 106 5
3 101 78 88
3 88 14 78
3 17 84 106
3 17 81 106
3 84 106 81
3 101 78 14
3 20 47 97
3 9 83 97
3 21 118 30
3 30 90 17
3 71 47 116
3 25 47 116
3 21 118 25
3 94 21 107
3 21 107 48
3 88 71 90
3 88 19 90
3 72 17 90
3 19 90 71
3 88 97 83
3 94 83 13
3 94 83 72
3 13 72 83
3 20 76 62
3 9 76 92
3 31 74 16
3 31 119 28
3 87 93 74
3 87 12 74
3 87 62 113
3 19 92 85
3 19 73 92
3 73 92 85
3 92 76 93
3 28 116 63
3 73 116 28
3 74 16 85
3 93 74 12
3 23 28 119
3 23 62 113
3 17 111 46
3 46 111 18
3 7 102 71
3 54 111 53
3 118 11 115
3 54 118 87
3 64 118 54
3 104 102 71
3 87 102 17
3 87 79 102
3 17 79 102
3 65 115 77
3 48 115 65
3 104 83 77
3 104 83 18
3 77 83 18
3 48 111 54
3 34 5 114
3 34 114 6
3 58 84 34
3 41 78 15
3 39 117 58
3 73 117 58
3 5 99 77
3 77 70 99
3 37 112 77
3 100 78 6
3 73 78 100
3 78 15 70
3 6 73 78
3 117 112 15
3 70 99 5
3 60 37 112
3 118 11 68
3 68 5 118
3 58 27 68
3 3 95 27
3 41 21 118
3 41 17 90
3 21 112 61
3 100 95 27
3 35 90 11
3 35 90 100
3 111 17 112
3 75 65 35
3 1 106 35
3 53 116 40
3 53 95 19
3 40 118 59
3 65 119 56
3 106 35 104
3 17 59 106
3 81 106 59
3 104 95 56
3 16 95 56
3 82 56 62
3 82 15 112
3 82 19 112
3 106 5 31
3 66 47 116
3 62 114 27
3 27 106 15
3 93 27 106
3 88 90 66
3 66 90 19
3 116 5 114
3 47 44 67
3 67 114 13
3 67 114 14
3 30 15 78
3 47 109 22
3 56 107 37
3 107 109 15
3 88 78 22
3 13 56 86
3 56 86 70
3 14 78 22
3 67 26 40
3 119 4 67
3 119 14 67
3 2 26 80
3 42 16 74
3 42 28 119
3 49 74 4
3 81 49 74
3 81 80 26
3 35 109 28
3 109 16 108
3 67 111 13
3 67 4 111
3 50 69 2
3 32 111 54
3 69 50 72
3 38 107 21
3 107 11 108
3 27 69 79
3 4 27 69
3 54 108 27
3 13 38 83
3 38 83 72
3 82 15 117
3 82 22 51
3 82 117 18
3 0 22 102
3 53 117 24
3 86 6 53
3 61 86 18
3 103 61 86
3 103 22 102
3 24 114 49
3 115 114 6
3 68 115 11
3 68 12 115
3 3 38 92
3 31 115 45
3 59 113 24
3 45 111 22
3 113 18 111
3 92 38 91
3 11 92 22
3 22 92 96
3 59 69 91
3 59 69 12
3 45 49 75
3 1 49 99
3 41 12 80
3 113 51 41
3 6 66 80
3 96 66 80
3 103 38 99
3 96 49 99
3 38 99 16
3 51 119 38
3 66 45 117
3 75 61 54
3 1 78 61
3 102 13 42
3 42 107 58
3 79 61 78
3 54 118 44
3 50 117 58
3 50 78 100
3 50 78 6
3 44 102 17
3 44 102 79
3 68 37 66
3 109 5 68
3 68 12 109
3 32 14 99
3 93 44 74
3 12 74 44
3 5 26 99
3 70 99 26
3 26 37 112
3 113 14 112
3 44 113 62
3 108 18 82
3 82 19 108
3 59 83 0
3 30 65 108
3 19 50 92
3 85 92 50
3 28 116 50
3 26 65 115
3 104 26 83
3 26 83 18
3 85 83 59
3 116 4 115
3 8 40 90
3 40 92 3
3 31 45 106
3 31 74 58
3 65 99 26
3 5 99 65
3 45 90 19
3 90 40 26
3 66 90 45
3 94 92 40
3 94 99 21
3 45 106 5
3 19 92 58
3 73 58 92
3 58 74 16
3 16 21 99
3 8 47 95
3 47 99 1
3 1 78 62
3 65 78 41
3 41 51 90
3 99 47 97
3 44 47 95
3 61 62 78
3 62 102 17
3 62 102 44
3 77 99 65
3 15 78 65
3 77 90 40
3 51 90 17
3 0 21 102
3 58 83 0
3 95 24 53
3 47 95 87
3 11 92 47
3 101 92 47
3 58 92 50
3 87 102 62
3 101 21 102
3 17 106 24
3 59 24 106
3 19 24 95
3 58 83 59
3 7 102 37
3 24 80 2
3 2 69 51
3 102 28 42
3 71 80 47
3 47 80 6
3 50 69 51
3 28 78 50
3 37 102 71
3 13 28 102
3 77 80 24
3 77 83 37
3 13 51 83
3 18 37 83
3 38 83 51
3 28 78 6
3 10 51 74
3 40 86 32
3 32 99 54
3 6 86 40
3 73 51 69
3 40 69 84
3 12 69 40
3 45 78 22
3 28 78 73
3 14 45 78
3 44 54 74
3 12 74 54
3 54 99 14
3 74 51 22
3 9 83 45
3 9 54 92
3 30 21 80
3 49 74 24
3 24 74 4
3 24 80 26
3 37 83 26
3 49 45 83
3 54 74 87
3 54 92 76
3 18 86 21
3 21 86 76
3 12 80 21
3 7 58 86
3 78 65 30
3 30 51 90
3 65 86 13
3 56 65 86
3 27 106 54
3 27 86 58
3 84 106 24
3 51 83 94
3 84 58 83
3 15 54 106
3 9 69 65
3 3 95 28
3 24 95 32
3 69 65 35
3 62 69 27
3 28 95 27
3 71 90 45
3 11 90 28
3 35 28 90
3 97 24 74
3 97 83 45
3 4 69 62
3 37 106 1
3 80 62 10
3 42 106 45
3 42 74 58
3 35 106 37
3 101 78 45
3 76 78 62
3 56 37 95
3 37 95 16
3 80 62 56
3 51 74 101
3 53 40 86
3 54 99 53
3 66 47 80
3 49 99 47
3 102 37 66
3 106 37 105
3 98 106 54
3 98 86 58
3 80 21 41
3 40 92 38
3 59 40 69
3 62 69 98
3 38 21 99
3 95 28 98
3 37 95 89
3 89 80 62
3 28 102 31
3 47 92 22
3 92 54 61
3 61 21 86
3 21 102 22
3 105 65 69
3 89 65 86
3 105 28 90
3 46 27 95
3 75 97 83
3 110 50 97
3 110 97 56
3 116 78 50
3 104 107 95
3 56 95 107
3 104 112 83
3 77 83 112
3 111 78 88
3 101 111 78
3 116 78 100
3 82 74 101
3 20 106 35
3 110 94 35
3 87 35 110
3 87 118 74
3 93 74 118
3 27 108 106
3 119 83 94
3 72 83 119
3 112 83 26
3 93 108 106
3 110 94 44
3 110 73 56
3 44 74 118
3 109 90 100
3 35 109 90
3 114 74 97
3 81 74 114
3 116 78 73
3 110 61 84
3 110 105 44
3 84 66 110
3 61 112 86
3 94 99 107
3 103 107 99
3 88 117 90
3 105 90 109
3 66 90 117
3 112 86 103
3 26 80 57
3 75 92 76
3 110 59 76
3 110 76 66
3 113 106 59
3 108 106 98
3 81 106 113
3 109 92 101
3 109 92 96
3 116 80 66
3 96 116 80
3 57 50 69
3 68 102 71
3 110 71 61
3 110 89 50
3 71 59 110
3 91 118 69
3 59 69 118
3 107 95 89
3 105 69 75
3 34 22 102
3 110 105 38
3 79 102 113
3 113 102 44
3 38 107 99
3 114 69 79
3 98 69 114
3 115 99 77
3 115 99 70
3 82 89 80
3 46 38 92
3 110 38 87
3 110 49 89
3 50 92 117
3 113 102 87
3 117 92 85
3 20 99 49
3 68 86 98
3 110 49 73
3 26 115 99
3 22 109 92
3 73 92 117
3 89 119 86
3 70 86 119
3 61 78 20
3 67 77 90
3 118 69 84
3 27 114 69
3 117 90 71
3 22 111 78
3 49 114 74
3 84 106 113
3 119 86 56
3 76 112 86
3 87 95 67
3 34 59 83
3 38 119 83
3 116 80 71
3 82 51 74
3 62 80 82
3 46 92 40
3 47 109 92
3 116 80 47
3 65 119 86
3 51 119 83
3 116 40 86
3 47 99 20
3 20 78 62
3 68 86 58
3 107 58 74
3 107 99 21
3 24 74 114
3 114 69 62
3 112 86 21
3 75 65 69
3 75 45 83
3 21 102 34
3 34 58 83
3 40 69 118
3 118 80 21
3 108 65 78
3 111 78 45
3 24 80 57
3 57 69 51
3 75 54 92
3 65 115 99
3 95 24 117
3 111 99 54
3 58 117 92
3 68 37 102
3 62 102 113
3 90 51 113
3 117 90 45
3 119 28 102
3 113 106 24
3 106 45 115
3 67 47 95
3 40 90 67
3 54 74 118
3 37 95 107
3 37 83 112
3 46 28 95
3 54 108 106
3 28 116 78
3 37 106 20
3 28 109 90

# Cells
32 0 1 2 3 4 5 6 7 8 9 10 11 12 13 14 15 16 17 18 19 20 21 22 23 24 25 26 27 28 29 30 31
32 2 32 33 34 35 36 37 38 39 40 41 42 43 44 45 46 47 48 49 50 51 52 53 54 55 56 57 58 59 60 61 62
32 16 31 63 64 65 66 67 68 69 70 71 72 73 74 75 76 77 78 79 80 81 82 83 84 85 86 87 88 89 90 91 92
32 0 26 93 94 95 96 97 98 99 100 101 102 103 104 105 106 107 108 109 110 111 112 113 114 115 116 117 118 119 120 121 122
32 1 28 123 124 125 126 127 128 129 130 131 132 133 134 135 136 137 138 139 140 141 142 143 144 145 146 147 148 149 150 151 152
32 37 60 68 91 153 154 155 156 157 158 159 160 161 162 163 164 165 166 167 168 169 170 171 172 173 174 175 176 177 178 179 180
32 63 90 95 181 182 183 184 185 186 187 188 189 190 191 192 193 194 195 196 197 198 199 200 201 202 203 204 205 206 207 208 209
32 32 57 94 118 210 211 212 213 214 215 216 217 218 219 220 221 222 223 224 225 226 227 228 229 230 231 232 233 234 235 236 237
32 33 59 124 149 238 239 240 241 242 243 244 245 246 247 248 249 250 251 252 253 254 255 256 257 258 259 260 261 262 263 264 265
32 64 128 151 266 267 268 269 270 271 272 273 274 275 276 277 278 279 280 281 282 283 284 285 286 287 288 289 290 291 292 293 294
32 93 120 123 295 296 297 298 299 300 301 302 303 304 305 306 307 308 309 310 311 312 313 314 315 316 317 318 319 320 321 322 323
32 153 182 207 214 237 324 325 326 327 328 329 330 331 332 333 334 335 336 337 338 339 340 341 342 343 344 345 346 347 348 349 350
32 154 178 245 267 291 351 352 353 354 355 356 357 358 359 360 361 362 363 364 365 366 367 368 369 370 371 372 373 374 375 376 377
32 213 244 264 301 322 378 379 380 381 382 383 384 385 386 387 388 389 390 391 392 393 394 395 396 397 398 399 400 401 402 403 404
32 181 205 266 293 302 320 405 406 407 408 409 410 411 412 413 414 415 416 417 418 419 420 421 422 423 424 425 426 427 428 429 430
32 324 348 351 376 378 403 405 431 432 433 434 435 436 437 438 439 440 441 442 443 444 445 446 447 448 449 450 451 452 453 454 455
32 8 27 46 62 77 111 122 159 177 188 208 224 336 349 456 457 458 459 460 461 462 463 464 465 466 467 468 469 470 471 472 473
32 12 29 50 61 75 88 138 161 252 265 270 292 367 377 474 475 476 477 478 479 480 481 482 483 484 485 486 487 488 489 490 491
32 6 30 45 58 105 136 150 211 234 238 295 321 389 402 492 493 494 495 496 497 498 499 500 501 502 503 504 505 506 507 508 509
32 7 81 92 107 121 137 152 187 206 269 290 309 323 417 510 511 512 513 514 515 516 517 518 519 520 521 522 523 524 525 526 527
32 135 148 239 262 268 297 319 362 375 390 415 429 432 454 528 529 530 531 532 533 534 535 536 537 538 539 540 541 542 543 544 545
32 106 119 186 209 210 236 296 335 388 401 416 428 431 453 546 547 548 549 550 551 552 553 554 555 556 557 558 559 560 561 562 563
32 76 89 160 179 189 274 294 340 350 363 421 430 443 455 564 565 566 567 568 569 570 571 572 573 574 575 576 577 578 579 580 581
32 44 158 180 212 235 240 263 334 347 361 374 394 404 433 582 583 584 585 586 587 588 589 590 591 592 593 594 595 596 597 598 599
32 72 80 175 480 600 601 602 603 604 605 606 607 608 609 610 611 612 613 614 615 616 617 618 619 620 621 622 623 624 625 626 627
32 101 198 512 527 628 629 630 631 632 633 634 635 636 637 638 639 640 641 642 643 644 645 646 647 648 649 650 651 652 653 654 655
32 36 49 220 233 500 506 656 657 658 659 660 661 662 663 664 665 666 667 668 669 670 671 672 673 674 675 676 677 678 679 680 681
32 40 56 164 170 464 467 662 682 683 684 685 686 687 688 689 690 691 692 693 694 695 696 697 698 699 700 701 702 703 704 705 706
32 103 113 226 457 628 639 685 694 707 708 709 710 711 712 713 714 715 716 717 718 719 720 721 722 723 724 725 726 727 728 729 730
32 87 200 203 472 605 618 686 702 729 731 732 733 734 735 736 737 738 739 740 741 742 743 744 745 746 747 748 749 750 751 752 753
32 127 141 255 497 643 658 675 754 755 756 757 758 759 760 761 762 763 764 765 766 767 768 769 770 771 772 773 774 775 776 777 778
32 144 273 289 488 627 676 681 758 778 779 780 781 782 783 784 785 786 787 788 789 790 791 792 793 794 795 796 797 798 799 800 801
32 133 317 514 521 609 630 636 756 762 786 802 803 804 805 806 807 808 809 810 811 812 813 814 815 816 817 818 819 820 821 822 823
32 65 282 516 523 603 621 631 646 728 745 805 823 824 825 826 827 828 829 830 831 832 833 834 835 836 837 838 839 840 841 842 843
32 42 52 257 260 475 485 601 614 660 683 737 747 780 790 844 845 846 847 848 849 850 851 852 853 854 855 856 857 858 859 860 861
32 110 305 312 503 648 659 671 696 701 709 723 766 862 863 864 865 866 867 868 869 870 871 872 873 874 875 876 877 878 879 880 881
32 22 43 476 491 663 678 774 777 781 798 882 883 884 885 886 887 888 889 890 891 892 893 894 895 896 897 898 899 900 901 902 903
32 23 67 83 518 602 617 792 794 804 822 892 904 905 906 907 908 909 910 911 912 913 914 915 916 917 918 919 920 921 922 923 924
32 4 10 116 509 644 768 814 817 886 893 908 919 925 926 927 928 929 930 931 932 933 934 935 936 937 938 939 940 941 942 943 944
32 18 25 82 469 638 650 730 839 930 944 945 946 947 948 949 950 951 952 953 954 955 956 957 958 959 960 961 962 963 964 965 966
32 17 38 462 468 610 619 731 743 844 855 916 967 968 969 970 971 972 973 974 975 976 977 978 979 980 981 982 983 984 985 986 987
32 11 19 104 117 458 470 680 688 863 878 887 903 988 989 990 991 992 993 994 995 996 997 998 999 1000 1001 1002 1003 1004 1005 1006 1007
32 3 35 499 508 682 699 720 726 862 873 949 959 1008 1009 1010 1011 1012 1013 1014 1015 1016 1017 1018 1019 1020 1021 1022 1023 1024 1025 1026 1027
32 21 24 74 84 482 490 697 732 746 847 994 1012 1025 1028 1029 1030 1031 1032 1033 1034 1035 1036 1037 1038 1039 1040 1041 1042 1043 1044 1045 1046
32 9 99 115 510 707 715 739 748 825 837 976 1014 1035 1038 1047 1048 1049 1050 1051 1052 1053 1054 1055 1056 1057 1058 1059 1060 1061 1062 1063 1064
32 15 134 147 515 633 652 757 776 879 881 902 951 965 996 1006 1027 1065 1066 1067 1068 1069 1070 1071 1072 1073 1074 1075 1076 1077 1078 1079 1080
32 13 20 145 489 615 809 830 832 929 935 950 956 971 986 1051 1062 1081 1082 1083 1084 1085 1086 1087 1088 1089 1090 1091 1092 1093 1094 1095 1096
32 5 14 126 146 496 507 657 779 795 860 909 915 972 978 995 1034 1097 1098 1099 1100 1101 1102 1103 1104 1105 1106 1107 1108 1109 1110 1111 1112
32 183 194 345 562 608 634 647 716 722 733 740 821 1113 1114 1115 1116 1117 1118 1119 1120 1121 1122 1123 1124 1125 1126 1127 1128 1129 1130 1131 1132
32 223 230 327 339 587 593 641 649 667 700 712 727 770 773 1116 1130 1133 1134 1135 1136 1137 1138 1139 1140 1141 1142 1143 1144 1145 1146 1147 1148
32 173 333 569 578 623 677 679 692 703 752 753 801 1132 1139 1147 1149 1150 1151 1152 1153 1154 1155 1156 1157 1158 1159 1160 1161 1162 1163 1164 1165
32 248 354 536 545 693 698 765 787 796 851 861 877 1166 1167 1168 1169 1170 1171 1172 1173 1174 1175 1176 1177 1178 1179 1180 1181 1182 1183 1184 1185
32 298 307 392 538 713 767 771 806 812 841 865 869 1166 1177 1186 1187 1188 1189 1190 1191 1192 1193 1194 1195 1196 1197 1198 1199 1200 1201 1202 1203
32 276 410 423 532 738 783 793 811 820 833 852 857 1167 1176 1196 1204 1205 1206 1207 1208 1209 1210 1211 1212 1213 1214 1215 1216 1217 1218 1219 1220
32 280 286 373 581 624 626 651 775 785 799 828 842 1146 1148 1152 1163 1184 1221 1222 1223 1224 1225 1226 1227 1228 1229 1230 1231 1232 1233 1234 1235
32 315 408 420 554 640 645 670 672 788 818 867 871 1127 1161 1207 1217 1236 1237 1238 1239 1240 1241 1242 1243 1244 1245 1246 1247 1248 1249 1250 1251
32 241 250 386 399 583 595 622 625 668 759 763 810 815 848 1121 1125 1133 1187 1200 1252 1253 1254 1255 1256 1257 1258 1259 1260 1261 1262 1263 1264
32 155 166 356 369 589 598 606 611 690 719 724 829 834 856 1134 1170 1180 1202 1203 1221 1231 1257 1265 1266 1267 1268 1269 1270 1271 1272 1273 1274
32 216 380 547 556 665 673 717 750 853 858 872 875 1114 1122 1194 1213 1236 1243 1254 1261 1275 1276 1277 1278 1279 1280 1281 1282 1283 1284 1285 1286
32 192 414 427 566 654 705 706 736 751 840 843 880 1153 1165 1183 1208 1220 1235 1239 1250 1287 1288 1289 1290 1291 1292 1293 1294 1295 1296 1297 1298
32 98 114 217 227 551 557 629 637 666 891 895 928 939 990 1141 1237 1249 1299 1300 1301 1302 1303 1304 1305 1306 1307 1308 1309 1310 1311 1312 1313
32 55 157 163 597 607 616 661 674 898 911 987 1154 1158 1256 1262 1314 1315 1316 1317 1318 1319 1320 1321 1322 1323 1324 1325 1326 1327 1328 1329 1330
32 70 85 204 571 604 612 642 907 920 941 947 955 1118 1131 1233 1331 1332 1333 1334 1335 1336 1337 1338 1339 1340 1341 1342 1343 1344 1345 1346 1347
32 130 143 272 529 755 764 838 963 1066 1073 1082 1090 1201 1224 1229 1348 1349 1350 1351 1352 1353 1354 1355 1356 1357 1358 1359 1360 1361 1362 1363 1364
32 129 139 246 253 528 543 802 816 850 981 984 1081 1092 1101 1204 1215 1258 1365 1366 1367 1368 1369 1370 1371 1372 1373 1374 1375 1376 1377 1378 1379
32 131 308 530 539 791 866 874 1000 1001 1067 1075 1102 1109 1169 1174 1246 1380 1381 1382 1383 1384 1385 1386 1387 1388 1389 1390 1391 1392 1393 1394 1395
32 69 78 172 176 570 577 689 826 835 948 961 1024 1026 1033 1270 1289 1297 1396 1397 1398 1399 1400 1401 1402 1403 1404 1405 1406 1407 1408 1409 1410
32 97 185 550 561 734 744 870 989 1003 1037 1041 1048 1054 1277 1280 1294 1411 1412 1413 1414 1415 1416 1417 1418 1419 1420 1421 1422 1423 1424 1425 1426
32 47 221 231 591 711 721 845 859 973 1020 1052 1266 1273 1278 1281 1427 1428 1429 1430 1431 1432 1433 1434 1435 1436 1437 1438 1439 1440 1441 1442 1443
32 53 251 258 596 684 695 760 769 894 1023 1076 1136 1145 1172 1182 1444 1445 1446 1447 1448 1449 1450 1451 1452 1453 1454 1455 1456 1457 1458 1459 1460
32 96 108 310 549 708 725 819 927 942 1047 1059 1095 1128 1189 1191 1461 1462 1463 1464 1465 1466 1467 1468 1469 1470 1471 1472 1473 1474 1475 1476 1477
32 71 285 572 580 741 782 789 905 913 1032 1040 1111 1112 1151 1162 1219 1478 1479 1480 1481 1482 1483 1484 1485 1486 1487 1488 1489 1490 1491 1492 1493
32 278 287 358 371 477 486 827 836 846 1029 1055 1064 1083 1087 1209 1211 1267 1376 1403 1433 1438 1494 1495 1496 1497 1498 1499 1500 1501 1502 1503 1504
32 314 318 419 519 824 831 864 876 1016 1063 1070 1190 1195 1287 1292 1354 1359 1402 1407 1418 1424 1505 1506 1507 1508 1509 1510 1511 1512 1513 1514 1515
32 243 383 398 493 849 854 868 1009 1017 1044 1045 1097 1103 1179 1275 1286 1387 1390 1420 1432 1437 1516 1517 1518 1519 1520 1521 1522 1523 1524 1525 1526
32 229 329 338 460 664 669 749 969 977 991 998 1105 1110 1149 1155 1284 1319 1328 1416 1422 1489 1527 1528 1529 1530 1531 1532 1533 1534 1535 1536 1537
32 195 201 330 346 461 473 635 655 687 946 966 993 1078 1080 1138 1290 1298 1312 1409 1457 1459 1538 1539 1540 1541 1542 1543 1544 1545 1546 1547 1548
32 168 328 459 465 613 710 718 945 958 968 983 1096 1123 1269 1272 1339 1342 1435 1443 1477 1549 1550 1551 1552 1553 1554 1555 1556 1557 1558 1559 1560
32 300 304 382 391 492 502 656 807 808 922 923 926 934 1098 1241 1245 1252 1307 1321 1324 1378 1561 1562 1563 1564 1565 1566 1567 1568 1569 1570 1571
32 261 359 478 483 600 620 772 883 888 940 1084 1094 1227 1259 1264 1322 1326 1335 1357 1362 1572 1573 1574 1575 1576 1577 1578 1579 1580 1581 1582 1583
32 277 283 424 524 632 653 784 797 901 924 1079 1225 1234 1240 1251 1311 1313 1346 1347 1393 1395 1584 1585 1586 1587 1588 1589 1590 1591 1592 1593 1594
32 190 196 425 525 735 742 803 813 918 980 1057 1117 1120 1205 1212 1371 1372 1467 1471 1482 1487 1595 1596 1597 1598 1599 1600 1601 1602 1603 1604 1605
32 167 360 370 479 691 704 800 885 900 1005 1007 1030 1046 1164 1171 1185 1394 1458 1460 1492 1493 1606 1607 1608 1609 1610 1611 1612 1613 1614 1615 1616
32 219 384 494 505 714 754 761 925 931 964 1008 1013 1140 1142 1198 1353 1451 1455 1473 1475 1617 1618 1619 1620 1621 1622 1623 1624 1625 1626 1627 1628
32 140 254 259 484 1015 1021 1028 1039 1065 1072 1385 1446 1452 1519 1525 1612 1629 1630 1631 1632 1633 1634 1635 1636 1637 1638 1639 1640 1641 1642 1643 1644
32 132 142 271 281 513 522 1042 1050 1060 1100 1368 1481 1484 1499 1596 1604 1629 1634 1645 1646 1647 1648 1649 1650 1651 1652 1653 1654 1655 1656 1657 1658
32 125 303 495 501 1010 1022 1053 1056 1091 1350 1361 1469 1508 1512 1619 1621 1641 1645 1653 1659 1660 1661 1662 1663 1664 1665 1666 1667 1668 1669 1670 1671
32 102 199 456 471 912 914 932 970 974 1336 1463 1476 1551 1559 1597 1603 1672 1673 1674 1675 1676 1677 1678 1679 1680 1681 1682 1683 1684 1685 1686 1687
32 79 169 174 466 889 896 906 921 992 1004 1317 1330 1490 1537 1609 1611 1674 1687 1688 1689 1690 1691 1692 1693 1694 1695 1696 1697 1698 1699 1700 1701
32 39 48 232 463 882 890 936 943 957 1303 1308 1445 1449 1541 1544 1626 1673 1685 1699 1702 1703 1704 1705 1706 1707 1708 1709 1710 1711 1712 1713 1714
32 112 218 225 504 982 985 1049 1061 1099 1108 1423 1430 1441 1522 1530 1535 1656 1658 1660 1668 1684 1715 1716 1717 1718 1719 1720 1721 1722 1723 1724 1725
32 41 54 162 474 954 962 1011 1018 1093 1401 1405 1428 1439 1497 1502 1557 1635 1670 1702 1706 1726 1727 1728 1729 1730 1731 1732 1733 1734 1735 1736 1737
32 66 86 197 202 517 526 999 1031 1068 1074 1399 1414 1426 1506 1515 1542 1640 1643 1647 1688 1697 1738 1739 1740 1741 1742 1743 1744 1745 1746 1747 1748
32 100 109 311 316 511 520 904 917 988 1104 1302 1383 1391 1566 1585 1588 1646 1672 1677 1691 1700 1715 1725 1738 1749 1750 1751 1752 1753 1754 1755 1756
32 73 288 481 487 884 899 960 1071 1077 1333 1341 1364 1574 1583 1586 1592 1630 1644 1694 1714 1727 1737 1739 1746 1757 1758 1759 1760 1761 1762 1763 1764
32 34 51 256 498 938 967 975 1086 1089 1315 1327 1369 1373 1564 1567 1580 1659 1663 1681 1703 1712 1718 1726 1733 1765 1766 1767 1768 1769 1770 1771 1772
32 406 437 552 558 1058 1197 1199 1206 1218 1276 1283 1412 1421 1440 1461 1474 1501 1504 1514 1602 1773 1774 1775 1776 1777 1778 1779 1780 1781 1782 1783 1784
32 387 396 434 584 1019 1173 1175 1186 1192 1265 1271 1408 1410 1442 1448 1511 1518 1523 1618 1625 1780 1785 1786 1787 1788 1789 1790 1791 1792 1793 1794 1795
32 365 448 451 575 1036 1043 1178 1214 1216 1291 1397 1406 1419 1478 1488 1495 1503 1526 1607 1610 1776 1784 1787 1790 1796 1797 1798 1799 1800 1801 1802 1803
32 395 436 441 541 1106 1107 1210 1242 1248 1282 1366 1374 1380 1384 1491 1517 1524 1533 1561 1568 1796 1799 1804 1805 1806 1807 1808 1809 1810 1811 1812 1813
32 411 442 533 542 1069 1168 1181 1228 1232 1288 1295 1349 1363 1382 1392 1454 1513 1546 1548 1589 1795 1814 1815 1816 1817 1818 1819 1820 1821 1822 1823 1824
32 352 364 440 447 534 540 1085 1088 1188 1193 1260 1268 1348 1358 1365 1465 1468 1494 1553 1555 1572 1582 1775 1778 1825 1826 1827 1828 1829 1830 1831 1832
32 413 450 565 574 910 1124 1129 1150 1157 1238 1244 1323 1332 1340 1479 1485 1569 1571 1590 1605 1805 1809 1833 1834 1835 1836 1837 1838 1839 1840 1841 1842
32 381 397 435 438 548 559 933 937 1113 1119 1144 1253 1299 1344 1345 1462 1470 1563 1578 1579 1617 1622 1828 1835 1836 1843 1844 1845 1846 1847 1848 1849
32 357 366 449 590 897 1135 1143 1156 1160 1222 1230 1306 1309 1329 1453 1573 1581 1591 1608 1613 1822 1842 1846 1849 1850 1851 1852 1853 1854 1855 1856 1857
32 325 341 444 585 979 1115 1126 1255 1263 1279 1285 1325 1375 1379 1436 1528 1534 1549 1556 1599 1782 1804 1810 1827 1830 1839 1858 1859 1860 1861 1862 1863
32 343 439 446 560 997 1002 1159 1247 1293 1296 1301 1310 1389 1413 1425 1529 1536 1540 1545 1615 1797 1802 1806 1813 1817 1820 1852 1857 1864 1865 1866 1867
32 332 342 445 452 568 573 952 953 1137 1223 1226 1274 1331 1337 1356 1360 1396 1539 1550 1560 1627 1628 1788 1793 1816 1824 1829 1845 1868 1869 1870 1871
32 299 379 393 546 1386 1411 1415 1507 1510 1516 1520 1638 1664 1719 1723 1747 1748 1749 1751 1785 1792 1821 1823 1866 1872 1873 1874 1875 1876 1877 1878 1879
32 249 355 588 594 1370 1377 1427 1434 1496 1500 1521 1632 1639 1650 1652 1721 1730 1735 1768 1801 1807 1808 1858 1861 1880 1881 1882 1883 1884 1885 1886 1887
32 275 284 412 422 564 579 1351 1355 1398 1498 1505 1509 1648 1667 1671 1729 1736 1743 1757 1759 1774 1783 1831 1869 1888 1889 1890 1891 1892 1893 1894 1895
32 306 313 409 418 531 537 1367 1464 1472 1565 1595 1601 1655 1661 1665 1678 1682 1750 1767 1770 1825 1833 1841 1847 1888 1896 1897 1898 1899 1900 1901 1902
32 279 353 372 535 1381 1388 1483 1587 1594 1606 1616 1637 1642 1649 1654 1692 1753 1756 1760 1812 1837 1840 1851 1855 1882 1886 1897 1902 1903 1904 1905 1906
32 242 247 400 544 1352 1447 1450 1575 1576 1624 1631 1633 1666 1669 1707 1764 1765 1771 1814 1818 1843 1848 1853 1856 1873 1877 1896 1899 1904 1907 1908 1909
32 193 331 344 567 1417 1480 1486 1527 1532 1598 1600 1651 1657 1683 1693 1698 1724 1741 1745 1779 1781 1798 1859 1860 1883 1891 1892 1910 1911 1912 1913 1914
32 215 228 337 555 1429 1431 1466 1558 1620 1623 1662 1676 1679 1704 1710 1716 1720 1731 1773 1777 1789 1791 1868 1871 1876 1893 1894 1910 1912 1915 1916 1917
32 156 326 586 599 1400 1404 1444 1456 1538 1547 1614 1636 1689 1696 1708 1713 1734 1742 1744 1786 1794 1800 1803 1867 1879 1881 1887 1911 1914 1917 1918 1919
32 222 385 582 592 1304 1305 1314 1320 1531 1562 1570 1701 1705 1717 1722 1752 1754 1766 1772 1811 1850 1854 1864 1865 1872 1875 1880 1885 1905 1908 1918 1919
32 184 191 407 426 553 563 1300 1334 1343 1543 1584 1593 1675 1686 1709 1711 1740 1755 1758 1762 1815 1819 1844 1870 1874 1878 1889 1898 1907 1909 1915 1916
32 165 171 368 576 1316 1318 1338 1552 1554 1577 1680 1690 1695 1728 1732 1761 1763 1769 1826 1832 1834 1838 1862 1863 1884 1890 1895 1900 1901 1903 1906 1913
