# Generated using Miratope v0.5.0 (https://github.com/galoomba1/miratope-rs)
4OFF

# Vertices, Faces, Edges, Cells
120 720 1200 120

# Vertices
1.3090169943749 0 0.8090169943749 0.5 
1.3090169943749 0.5 0 -0.8090169943749 
1.3090169943749 -0.8090169943749 -0.5 0 
0.5 1.3090169943749 0.8090169943749 0 
0.5 -0.8090169943749 0 1.3090169943749 
0 0.5 0.8090169943749 1.3090169943749 
0.5 0 -1.3090169943749 -0.8090169943749 
0 1.3090169943749 -0.5 -0.8090169943749 
0 -0.8090169943749 -1.3090169943749 0.5 
-0.8090169943749 1.309016994375 0 0.5 
-0.8090169943749 0 -0.5 1.309016994375 
-0.8090169943749 0.5 -1.309016994375 0 
1.3090169943749 -0 0.8090169943749 -0.5 
1.3090169943749 0.8090169943749 -0.5 0 
0.5 -1.3090169943749 0.8090169943749 0 
0 0 1.6180339887499 0 
0.5 0 -1.3090169943749 0.8090169943749 
0 1.3090169943749 -0.5 0.8090169943749 
0 -1.3090169943749 -0.5 0.8090169943749 
-0.8090169943749 0.8090169943749 0.809016994375 0.8090169943749 
-0.8090169943749 -0.8090169943749 0.809016994375 0.8090169943749 
1.3090169943749 0.5 0 0.8090169943749 
0.5 -0.8090169943749 0 -1.3090169943749 
0 0.5 0.8090169943749 -1.3090169943749 
0 -1.6180339887499 0 0 
-0.8090169943749 0.5 1.309016994375 0 
-0.8090169943749 -0.8090169943749 0.809016994375 -0.8090169943749 
0 -1.3090169943749 -0.5 -0.8090169943749 
-0.8090169943749 0.8090169943749 0.809016994375 -0.8090169943749 
-0.8090169943749 0 -0.5 -1.309016994375 
0 -0.8090169943749 -1.3090169943749 -0.5 
-0.8090169943749 1.309016994375 0 -0.5 
1.3090169943749 -0.5 0 0.8090169943749 
0.5 0.8090169943749 0 -1.3090169943749 
0 -0.5 0.8090169943749 -1.3090169943749 
0 0.8090169943749 -1.3090169943749 -0.5 
-0.8090169943749 -1.309016994375 0 -0.5 
-0.8090169943749 -0.5 -1.309016994375 0 
1.3090169943749 -0.5 0 -0.8090169943749 
0.5 0.8090169943749 0 1.3090169943749 
0 -0.5 0.8090169943749 1.3090169943749 
0 0.8090169943749 -1.3090169943749 0.5 
-0.8090169943749 -1.309016994375 0 0.5 
0 1.6180339887499 0 0 
-0.8090169943749 -0.5 1.309016994375 0 
1.3090169943749 0 -0.8090169943749 0.5 
0.5 0 1.3090169943749 -0.8090169943749 
0 -0.8090169943749 1.3090169943749 0.5 
0 0 0 -1.6180339887499 
-0.8090169943749 -0.8090169943749 -0.8090169943749 -0.809016994375 
1.3090169943749 -0.8090169943749 0.5 0 
0.5 1.3090169943749 -0.8090169943749 0 
0 1.3090169943749 0.5 -0.8090169943749 
0 0.5 -0.8090169943749 1.3090169943749 
-0.8090169943749 0 0.5 1.309016994375 
0 0.5 -0.8090169943749 -1.3090169943749 
-0.8090169943749 -0.8090169943749 -0.8090169943749 0.809016994375 
1.3090169943749 0 -0.8090169943749 -0.5 
0.5 0 1.3090169943749 0.8090169943749 
0 1.3090169943749 0.5 0.8090169943749 
0 -0.8090169943749 1.3090169943749 -0.5 
-0.8090169943749 0 0.5 -1.309016994375 
0 0 0 1.6180339887499 
1.3090169943749 0.8090169943749 0.5 0 
0.5 -1.3090169943749 -0.8090169943749 0 
0 -0.5 -0.8090169943749 1.3090169943749 
0 -0.5 -0.8090169943749 -1.3090169943749 
-0.8090169943749 0.809016994375 -0.8090169943749 0.809016994375 
-0.8090169943749 0.809016994375 -0.8090169943749 -0.809016994375 
0 0.8090169943749 1.3090169943749 0.5 
0 -1.3090169943749 0.5 -0.8090169943749 
0 0.8090169943749 1.3090169943749 -0.5 
0 -1.3090169943749 0.5 0.8090169943749 
0 0 -1.6180339887499 0 
0.809016994375 0.8090169943749 0.8090169943749 -0.8090169943749 
0.809016994375 0 -0.5 1.3090169943749 
-1.3090169943749 0 0.809016994375 0.5 
-1.3090169943749 0.809016994375 -0.5 0 
0.809016994375 0.8090169943749 0.8090169943749 0.8090169943749 
0.809016994375 0 -0.5 -1.3090169943749 
0.809016994375 -0.5 -1.3090169943749 0 
-0.5 -1.3090169943749 0.809016994375 0 
-1.3090169943749 0 0.809016994375 -0.5 
0.809016994375 0.5 1.3090169943749 0 
0.809016994375 0.5 -1.3090169943749 0 
-1.3090169943749 0.5 0 0.809016994375 
-1.3090169943749 0.5 0 -0.809016994375 
0.809016994375 1.3090169943749 0 0.5 
0.809016994375 -0.8090169943749 0.8090169943749 -0.8090169943749 
0.809016994375 -0.8090169943749 -0.8090169943749 -0.8090169943749 
-0.5 -0.8090169943749 0 1.309016994375 
0.809016994375 -0.8090169943749 0.8090169943749 0.8090169943749 
0.809016994375 1.3090169943749 0 -0.5 
0.809016994375 -0.8090169943749 -0.8090169943749 0.8090169943749 
-0.5 -0.8090169943749 0 -1.309016994375 
0.809016994375 -1.3090169943749 0 0.5 
-0.5 0 -1.3090169943749 -0.809016994375 
1.6180339887499 0 -0 0 
-0.5 1.3090169943749 0.809016994375 0 
-0.5 0 1.309016994375 -0.8090169943749 
-0.5 0.8090169943749 0 1.3090169943749 
-0.5 0.8090169943749 0 -1.3090169943749 
-0.5 0 -1.3090169943749 0.809016994375 
0.809016994375 -1.3090169943749 0 -0.5 
-0.5 0 1.309016994375 0.8090169943749 
-0.5 1.309016994375 -0.8090169943749 0 
-1.3090169943749 -0.809016994375 -0.5 0 
-1.3090169943749 -0.5 0 -0.809016994375 
0.809016994375 -0.5 1.3090169943749 0 
0.809016994375 0.8090169943749 -0.8090169943749 -0.8090169943749 
-1.3090169943749 -0.5 0 0.809016994375 
0.809016994375 0.8090169943749 -0.8090169943749 0.8090169943749 
-0.5 -1.309016994375 -0.8090169943749 0 
0.809016994375 -0 0.5 1.3090169943749 
-1.3090169943749 -0.809016994375 0.5 0 
-1.3090169943749 -0 -0.809016994375 0.5 
0.809016994375 -0 0.5 -1.3090169943749 
-1.6180339887499 0 0 0 
-1.3090169943749 0.809016994375 0.5 0 
-1.3090169943749 -0 -0.809016994375 -0.5 

# Faces
5 0 1 6 8 4
5 5 0 1 7 9
5 3 0 2 6 7
5 2 0 5 10 8
5 0 4 10 9 3
5 1 3 5 4 2
5 1 7 11 8 2
5 3 9 11 6 1
5 2 6 11 10 4
5 5 3 7 11 10
5 5 9 11 8 4
5 6 8 10 9 7
5 12 14 18 16 13
5 15 12 13 17 19
5 3 12 2 16 17
5 2 18 20 15 12
5 3 12 14 20 19
5 2 13 3 15 14
5 2 18 10 17 13
5 3 13 16 10 19
5 2 14 20 10 16
5 15 20 10 17 3
5 15 19 10 18 14
5 16 18 20 19 17
5 1 22 24 4 21
5 21 1 23 25 5
5 2 22 23 3 21
5 21 5 20 24 2
5 3 25 20 4 21
5 1 23 26 24 2
5 3 25 26 22 1
5 2 4 20 26 22
5 3 23 26 20 5
5 4 5 25 26 24
5 23 22 24 20 25
5 0 13 6 27 14
5 13 7 28 15 0
5 15 0 2 27 26
5 0 3 28 26 14
5 2 27 29 7 13
5 3 13 6 29 28
5 2 6 29 26 14
5 3 15 26 29 7
5 14 15 28 29 27
5 7 28 26 27 6
5 12 21 16 30 22
5 12 21 17 31 23
5 12 2 30 29 23
5 22 12 3 31 29
5 17 21 2 30 11
5 21 3 31 11 16
5 22 2 16 11 29
5 3 23 29 11 17
5 23 31 11 30 22
5 16 17 31 29 30
5 12 32 16 35 33
5 32 12 34 36 18
5 13 35 29 34 12
5 33 12 14 36 29
5 32 14 34 33 13
5 13 32 18 37 35
5 14 32 16 37 36
5 13 16 37 29 33
5 18 14 34 29 37
5 34 36 37 35 33
5 18 36 29 35 16
5 0 40 10 41 13
5 0 39 41 6 38
5 0 40 42 27 38
5 0 14 42 10 39
5 38 14 40 39 13
5 38 27 37 41 13
5 13 39 10 37 6
5 38 6 37 42 14
5 14 27 37 10 40
5 41 39 40 42 37
5 41 6 27 42 10
5 13 32 40 19 43
5 32 39 43 33 38
5 32 40 44 34 38
5 39 32 14 44 19
5 34 38 13 43 28
5 13 39 19 28 33
5 14 44 28 33 38
5 14 40 19 28 34
5 40 44 28 43 39
5 34 44 19 43 33
5 0 1 48 26 47
5 45 6 48 46 0
5 0 47 42 8 45
5 0 46 26 42 4
5 45 1 46 47 4
5 48 1 45 8 49
5 6 49 26 46 1
5 6 45 4 42 49
5 47 42 49 48 46
5 4 47 26 49 8
5 8 6 48 26 42
5 4 50 1 51 53
5 1 52 25 47 50
5 1 45 53 9 52
5 51 1 46 25 9
5 50 46 52 51 45
5 45 50 47 54 53
5 50 46 25 54 4
5 45 51 9 54 4
5 46 47 54 9 52
5 53 4 47 25 9
5 51 52 25 54 53
5 1 21 53 11 55
5 50 21 51 55 22
5 21 50 24 56 53
5 51 21 4 56 11
5 24 50 1 55 49
5 51 1 22 49 11
5 4 50 22 49 56
5 53 4 24 49 11
5 22 55 11 56 24
5 51 55 49 56 53
5 50 60 25 59 21
5 58 21 57 22 60
5 21 57 55 31 59
5 51 31 25 58 21
5 57 50 58 59 51
5 57 55 61 60 50
5 50 22 61 25 58
5 22 57 51 31 61
5 59 31 61 60 58
5 55 31 25 60 22
5 59 51 55 61 25
5 60 12 21 62 20
5 58 12 57 16 62
5 12 60 36 30 57
5 58 12 22 36 20
5 21 57 30 56 62
5 21 16 56 20 58
5 22 57 16 56 36
5 60 36 56 62 58
5 22 60 20 56 30
5 16 30 36 20 62
5 32 65 37 66 38
5 63 33 66 64 32
5 43 63 32 65 67
5 39 67 37 64 32
5 63 39 65 64 38
5 38 63 43 68 66
5 38 33 68 37 64
5 63 39 67 68 33
5 39 65 37 68 43
5 43 33 66 37 67
5 64 65 67 68 66
5 69 0 38 48 28
5 45 41 9 69 0
5 46 0 39 9 28
5 45 38 46 69 39
5 38 48 68 41 45
5 46 38 6 68 28
5 6 45 39 9 68
5 48 68 9 69 46
5 39 41 68 28 69
5 48 6 41 9 28
5 38 70 42 65 45
5 63 38 70 44 69
5 64 38 46 44 42
5 63 45 64 70 46
5 63 69 54 65 45
5 45 64 42 54 39
5 39 54 44 46 63
5 69 54 42 70 46
5 65 42 44 69 39
5 64 65 54 44 70
5 71 12 32 62 19
5 12 71 31 35 57
5 58 12 33 31 19
5 58 32 57 33 71
5 32 62 67 35 57
5 32 16 67 19 58
5 16 57 33 31 67
5 71 58 62 67 31
5 33 71 19 67 35
5 16 35 31 19 62
5 63 71 44 72 32
5 32 72 36 66 57
5 32 58 44 36 64
5 63 57 64 72 58
5 63 57 66 61 71
5 63 33 61 44 58
5 57 64 36 61 33
5 58 72 36 61 71
5 66 33 71 44 36
5 72 64 66 61 44
5 70 50 45 73 49
5 51 63 50 64 73
5 63 50 70 61 52
5 64 50 46 61 49
5 45 63 52 68 73
5 51 68 49 64 45
5 51 63 46 61 68
5 46 70 49 68 52
5 51 52 61 49 73
5 70 61 68 73 64
5 50 63 59 54 72
5 57 73 56 72 50
5 58 50 64 56 54
5 57 73 67 59 63
5 51 63 58 54 67
5 64 57 51 67 56
5 58 72 56 67 59
5 73 51 59 54 56
5 73 64 72 54 67
5 0 74 7 41 75
5 0 74 28 76 40
5 0 15 76 10 75
5 13 75 40 15 74
5 41 77 28 74 13
5 7 77 10 75 13
5 15 76 77 7 74
5 40 76 77 41 75
5 15 40 10 77 28
5 10 76 28 7 41
5 13 78 15 34 79
5 40 78 13 80 18
5 80 13 74 34 27
5 13 79 27 18 75
5 74 79 80 75 78
5 78 40 81 34 74
5 78 15 81 18 75
5 15 81 27 79 74
5 75 40 81 27 80
5 40 15 34 27 18
5 79 34 81 18 80
5 78 17 35 79 12
5 78 12 34 82 19
5 12 79 29 82 15
5 19 78 13 35 77
5 13 17 77 29 79
5 15 78 17 77 82
5 19 15 34 29 77
5 79 34 82 77 35
5 19 82 29 35 17
5 21 83 23 55 84
5 83 21 53 85 25
5 21 84 11 85 5
5 83 1 84 53 5
5 1 55 86 25 83
5 1 84 11 86 23
5 5 83 23 86 85
5 25 86 11 53 5
5 84 55 86 85 53
5 55 23 25 85 11
5 88 0 87 7 48
5 0 47 76 9 87
5 0 5 76 26 88
5 1 88 47 5 87
5 48 86 9 87 1
5 7 86 26 88 1
5 87 5 76 86 7
5 88 48 86 76 47
5 26 86 9 5 47
5 9 76 26 48 7
5 1 89 24 47 83
5 1 89 8 53 87
5 84 1 88 24 8
5 87 83 88 89 84
5 47 83 87 53 90
5 83 88 24 90 5
5 87 5 90 8 84
5 88 89 8 90 47
5 47 5 53 8 24
5 84 89 24 90 53
5 91 12 92 17 62
5 12 91 20 82 23
5 12 60 82 31 92
5 91 60 23 92 21
5 17 85 20 91 21
5 62 21 92 31 85
5 62 91 60 82 85
5 23 82 85 17 92
5 20 60 23 31 85
5 20 62 17 31 82
5 83 60 24 93 21
5 21 91 24 30 84
5 92 55 30 93 21
5 83 92 84 93 91
5 83 23 94 24 91
5 92 83 60 94 55
5 91 60 94 30 93
5 92 23 94 30 84
5 55 94 24 93 84
5 24 60 23 55 30
5 74 48 27 95 0
5 87 41 8 95 0
5 75 0 88 27 8
5 87 75 95 88 74
5 74 48 96 41 87
5 74 88 27 96 7
5 87 75 8 96 7
5 48 88 95 8 96
5 75 41 96 27 95
5 7 48 27 8 41
5 87 74 99 76 100
5 98 74 88 81 76
5 97 74 98 100 75
5 97 74 99 81 95
5 97 88 99 98 87
5 97 95 90 100 87
5 75 90 76 98 87
5 97 75 90 81 88
5 88 95 90 76 99
5 75 100 76 81 95
5 99 81 90 100 98
5 78 74 101 77 100
5 97 79 101 98 78
5 97 78 100 102 80
5 78 98 77 102 75
5 97 74 101 96 80
5 79 96 77 98 74
5 75 102 96 79 97
5 80 96 77 100 75
5 80 79 101 77 102
5 98 100 102 96 101
5 78 12 103 18 62
5 79 30 18 91 12
5 103 12 92 35 30
5 78 91 103 79 92
5 91 78 17 102 18
5 92 78 62 102 35
5 62 102 30 103 91
5 92 17 102 30 79
5 35 102 18 103 79
5 18 62 17 35 30
5 78 91 81 82 98
5 97 103 81 104 78
5 92 101 82 104 78
5 97 92 98 104 91
5 79 97 91 81 94
5 103 94 82 104 91
5 97 92 101 94 103
5 92 79 94 82 98
5 79 103 81 82 101
5 104 98 101 94 81
5 87 83 99 86 105
5 88 94 86 98 83
5 83 98 105 84 97
5 97 83 99 94 89
5 97 87 105 96 89
5 87 84 96 86 98
5 97 84 96 94 88
5 88 99 86 96 89
5 84 89 94 86 105
5 98 99 94 96 105
5 83 98 85 90 91
5 97 93 90 104 83
5 92 105 85 104 83
5 97 91 90 102 84
5 93 102 85 104 91
5 97 93 102 105 92
5 98 92 84 102 85
5 93 84 105 85 90
5 98 104 90 102 105
5 2 91 15 23 79
5 91 2 30 106 20
5 2 79 29 106 18
5 82 106 18 91 15
5 29 106 20 15 23
5 30 106 82 23 79
5 20 82 29 30 18
5 2 75 5 15 88
5 88 2 8 106 26
5 27 106 10 75 2
5 88 15 76 106 27
5 8 106 76 5 75
5 5 15 26 106 10
5 10 76 26 27 8
5 91 5 17 84 2
5 88 23 7 84 2
5 2 79 7 17 75
5 91 75 84 79 88
5 91 5 98 23 88
5 91 15 98 17 75
5 15 88 79 7 98
5 84 75 5 98 7
5 15 23 7 17 5
5 79 23 98 17 84
5 69 0 95 42 76
5 38 74 69 40 95
5 38 74 28 107 27
5 38 48 107 42 95
5 74 48 107 76 69
5 27 107 76 40 95
5 69 40 42 107 28
5 27 48 28 76 42
5 74 43 41 80 38
5 40 108 38 80 65
5 108 38 109 43 69
5 109 38 95 65 41
5 74 108 95 80 109
5 40 108 74 43 100
5 74 109 41 100 69
5 108 95 65 100 69
5 80 95 40 100 41
5 40 65 41 43 69
5 80 65 100 43 109
5 80 32 108 34 66
5 108 32 65 110 44
5 40 32 80 37 110
5 66 107 44 108 38
5 34 38 80 37 107
5 40 108 34 107 110
5 40 65 37 107 44
5 65 80 66 107 110
5 34 66 37 110 44
5 32 78 71 34 103
5 32 78 43 35 80
5 108 71 43 111 32
5 32 103 66 35 111
5 78 108 103 80 111
5 34 108 78 43 101
5 71 101 35 111 78
5 108 71 101 66 103
5 80 35 101 34 103
5 66 35 43 71 34
5 66 101 43 111 80
5 103 12 71 82 36
5 78 32 18 110 19
5 103 32 62 110 36
5 62 110 82 71 78
5 103 34 82 110 18
5 19 71 34 36 110
5 19 82 36 18 62
5 88 91 90 106 94
5 91 75 102 106 81
5 81 88 79 96 106
5 84 75 90 106 96
5 102 106 94 79 84
5 81 94 96 102 90
5 101 107 81 108 74
5 74 99 107 96 109
5 80 112 81 108 97
5 97 108 99 101 109
5 97 109 96 112 95
5 95 112 107 99 108
5 96 107 81 95 80
5 101 109 80 112 107
5 81 99 101 96 112
5 108 78 100 110 81
5 104 78 111 102 110
5 97 108 104 100 111
5 97 111 102 112 103
5 108 103 112 110 104
5 102 110 81 103 80
5 80 112 110 100 111
5 100 104 81 112 102
5 24 2 84 11 106
5 85 106 24 91 5
5 20 5 17 11 106
5 85 106 30 84 17
5 30 24 20 85 11
5 113 50 89 73 53
5 70 114 54 113 50
5 47 114 49 89 50
5 45 89 70 47 113
5 45 113 54 115 73
5 45 53 115 49 89
5 47 113 53 115 114
5 54 47 70 49 115
5 70 114 115 73 89
5 73 53 54 114 49
5 45 95 47 69 87
5 8 115 9 87 45
5 45 95 42 115 41
5 41 87 69 76 115
5 95 47 76 115 8
5 9 69 47 42 115
5 9 76 42 8 41
5 89 48 52 87 45
5 45 95 70 48 109
5 45 113 69 52 109
5 87 109 89 95 113
5 113 47 99 52 87
5 87 109 48 99 69
5 113 95 70 99 69
5 47 95 89 48 99
5 47 69 52 48 70
5 109 89 70 99 52
5 59 85 56 93 21
5 50 83 59 53 93
5 24 50 83 25 114
5 93 50 60 114 56
5 60 83 59 85 114
5 93 53 85 114 24
5 53 59 25 114 56
5 56 85 25 60 24
5 50 83 52 55 89
5 116 50 113 59 52
5 93 50 116 55 73
5 83 116 89 93 113
5 113 83 52 105 53
5 59 105 55 116 83
5 113 59 105 73 93
5 52 116 89 73 105
5 93 89 55 105 53
5 53 59 52 55 73
5 87 105 115 90 113
5 109 87 100 115 96
5 97 113 90 112 89
5 113 97 109 105 100
5 95 113 100 115 112
5 90 95 89 96 115
5 109 105 115 112 89
5 100 105 96 112 90
5 83 99 114 90 113
5 116 83 104 114 94
5 113 104 99 116 97
5 97 93 112 94 116
5 113 93 112 114 104
5 116 99 114 112 89
5 94 114 90 93 89
5 94 112 90 104 99
5 3 39 4 14 46
5 9 3 46 26 117
5 28 3 39 10 117
5 14 46 28 117 42
5 26 117 10 4 14
5 9 39 4 42 117
5 28 9 10 42 26
5 58 3 33 22 14
5 3 51 16 4 58
5 46 22 6 51 3
5 3 39 16 6 33
5 58 39 16 64 14
5 46 22 64 4 58
5 58 39 51 33 46
5 14 46 33 6 64
5 22 14 4 16 6
5 39 4 64 6 51
5 33 22 64 16 51
5 58 3 31 117 20
5 3 33 29 117 19
5 58 14 36 117 19
5 22 14 20 117 29
5 31 117 36 22 33
5 20 36 29 31 19
5 43 78 40 110 77
5 43 74 34 107 77
5 100 40 81 107 77
5 77 110 81 34 101
5 110 100 43 101 107
5 54 58 46 61 117
5 44 117 67 39 58
5 44 117 68 33 46
5 68 117 54 39 51
5 51 33 61 117 67
5 44 61 68 67 54
5 109 38 70 107 68
5 63 109 66 70 108
5 63 108 44 118 43
5 109 63 69 118 68
5 70 108 69 118 107
5 68 107 44 69 43
5 43 118 107 66 109
5 68 118 44 70 66
5 72 32 111 67 110
5 63 108 72 65 111
5 71 63 111 67 118
5 72 108 71 118 110
5 44 110 67 43 71
5 65 111 43 118 110
5 65 72 44 118 67
5 24 88 23 86 106
5 8 84 7 86 106
5 26 23 7 11 106
5 11 86 26 24 8
5 92 57 103 60 71
5 30 57 92 31 119
5 35 57 103 36 119
5 35 92 71 82 119
5 82 119 30 103 60
5 36 119 31 71 60
5 31 82 36 30 35
5 92 59 62 93 57
5 57 111 62 72 103
5 57 93 72 60 116
5 116 57 111 59 71
5 103 116 92 111 93
5 116 92 59 104 60
5 71 104 62 111 92
5 116 103 72 104 71
5 103 60 104 62 93
5 59 111 93 72 104
5 60 72 62 59 71
5 50 72 114 61 116
5 116 57 73 119 61
5 57 93 56 119 55
5 55 116 60 114 119
5 93 72 114 119 73
5 61 119 56 72 60
5 61 114 56 73 55
5 52 86 49 89 1
5 52 83 47 114 86
5 25 86 49 24 47
5 89 55 86 114 24
5 52 55 49 114 25
5 116 97 111 105 101
5 116 92 105 119 94
5 101 92 111 102 119
5 101 116 103 112 119
5 94 119 102 93 103
5 93 111 105 119 112
5 102 105 101 94 112
5 13 43 77 37 80
5 37 77 19 40 18
5 18 110 77 35 80
5 43 35 37 110 19
5 65 45 109 68 115
5 109 63 113 65 73
5 54 118 52 63 113
5 65 113 69 118 115
5 68 115 54 69 52
5 109 73 115 118 52
5 73 65 54 118 68
5 116 63 113 72 70
5 111 73 66 116 63
5 116 108 113 111 109
5 70 112 65 113 108
5 108 116 66 112 72
5 72 113 111 73 112
5 73 112 70 116 109
5 65 112 66 109 111
5 66 73 65 72 70
5 99 118 100 113 108
5 101 118 104 108 116
5 104 113 111 105 118
5 109 116 99 118 105
5 109 111 100 118 101
5 99 104 100 105 101
5 25 3 51 11 117
5 56 117 25 58 4
5 20 117 11 16 4
5 31 117 56 16 51
5 31 25 20 56 11
5 53 115 86 52 87
5 90 115 86 99 47
5 114 99 52 105 115
5 90 114 86 105 53
5 116 63 59 118 61
5 114 118 59 113 72
5 52 116 70 114 118
5 52 59 54 114 61
5 54 72 70 61 118
5 86 106 90 5 98
5 23 98 85 106 94
5 86 94 24 90 85
5 25 46 22 49 117
5 4 64 49 117 54
5 56 117 61 22 64
5 56 54 25 61 49
5 18 75 17 77 106
5 77 106 27 79 7
5 29 7 17 10 106
5 10 18 27 29 77
5 57 111 67 119 66
5 72 103 66 119 110
5 35 111 62 110 119
5 67 119 36 72 62
5 67 110 36 66 35
5 55 119 85 59 92
5 93 62 85 119 30
5 31 119 56 62 59
5 31 85 56 30 55
5 80 41 77 107 27
5 37 77 28 34 27
5 41 43 28 107 37
5 118 119 66 116 71
5 71 59 67 119 61
5 59 111 73 119 118
5 61 118 67 73 66
5 6 22 26 117 11
5 51 6 49 117 9
5 26 25 9 11 49
5 104 59 105 119 114
5 60 104 85 119 94
5 105 55 94 114 85
5 44 117 37 64 14
5 16 39 19 117 37
5 16 64 36 117 67
5 36 44 19 67 37
5 65 115 107 70 95
5 100 69 99 107 115
5 112 70 99 118 115
5 107 112 65 100 118
5 81 15 98 77 106
5 82 98 17 102 106
5 81 82 77 102 18
5 48 89 8 115 86
5 52 48 49 115 9
5 9 86 49 8 53
5 107 115 41 109 48
5 48 70 42 115 68
5 68 107 42 65 41
5 6 33 28 117 37
5 6 16 10 117 29
5 19 28 29 37 10
5 110 119 101 71 104
5 104 62 102 119 82
5 102 110 82 101 35
5 42 117 68 6 64
5 37 42 44 28 68
5 72 112 119 118 104
5 110 112 66 101 118
5 96 106 76 98 7
5 27 96 77 76 81
5 76 115 96 48 99
5 41 100 76 107 96
5 20 10 11 29 26
5 85 102 30 94 82
5 42 54 9 68 49
5 112 73 105 118 114
5 90 76 86 96 8
5 56 67 31 61 36

# Cells
12 0 1 2 3 4 5 6 7 8 9 10 11
12 12 13 14 15 16 17 18 19 20 21 22 23
12 5 24 25 26 27 28 29 30 31 32 33 34
12 2 17 35 36 37 38 39 40 41 42 43 44
12 14 26 45 46 47 48 49 50 51 52 53 54
12 12 55 56 57 58 59 60 61 62 63 64 65
12 35 66 67 68 69 70 71 72 73 74 75 76
12 59 70 77 78 79 80 81 82 83 84 85 86
12 0 87 88 89 90 91 92 93 94 95 96 97
12 91 98 99 100 101 102 103 104 105 106 107 108
12 24 98 109 110 111 112 113 114 115 116 117 118
12 110 119 120 121 122 123 124 125 126 127 128 129
12 45 120 130 131 132 133 134 135 136 137 138 139
12 78 140 141 142 143 144 145 146 147 148 149 150
12 67 88 151 152 153 154 155 156 157 158 159 160
12 144 154 161 162 163 164 165 166 167 168 169 170
12 55 131 171 172 173 174 175 176 177 178 179 180
12 141 174 181 182 183 184 185 186 187 188 189 190
12 102 164 191 192 193 194 195 196 197 198 199 200
12 123 184 192 201 202 203 204 205 206 207 208 209
12 36 66 210 211 212 213 214 215 216 217 218 219
12 213 220 221 222 223 224 225 226 227 228 229 230
12 13 57 220 231 232 233 234 235 236 237 238 239
12 25 109 240 241 242 243 244 245 246 247 248 249
12 1 87 250 251 252 253 254 255 256 257 258 259
12 243 253 260 261 262 263 264 265 266 267 268 269
12 46 130 270 271 272 273 274 275 276 277 278 279
12 240 273 280 281 282 283 284 285 286 287 288 289
12 210 250 290 291 292 293 294 295 296 297 298 299
12 293 300 301 302 303 304 305 306 307 308 309 310
12 224 302 311 312 313 314 315 316 317 318 319 320
12 231 270 321 322 323 324 325 326 327 328 329 330
12 312 324 331 332 333 334 335 336 337 338 339 340
12 263 304 341 342 343 344 345 346 347 348 349 350
12 283 334 343 351 352 353 354 355 356 357 358 359
12 15 47 233 271 322 360 361 362 363 364 365 366
12 3 37 212 252 292 367 368 369 370 371 372 373
12 360 367 374 375 376 377 378 379 380 381 382 383
12 68 151 211 290 384 385 386 387 388 389 390 391
12 385 392 393 394 395 396 397 398 399 400 401 402
12 79 140 393 403 404 405 406 407 408 409 410 411
12 403 412 413 414 415 416 417 418 419 420 421 422
12 56 171 232 321 412 423 424 425 426 427 428 429
12 307 317 335 347 354 377 430 431 432 433 434 435
12 303 315 396 436 437 438 439 440 441 442 443 444
12 313 332 416 438 445 446 447 448 449 450 451 452
12 27 49 242 274 281 361 374 453 454 455 456 457
12 103 191 458 459 460 461 462 463 464 465 466 467
12 89 152 251 291 384 468 469 470 471 472 473 474
12 461 468 475 476 477 478 479 480 481 482 483 484
12 111 119 241 280 485 486 487 488 489 490 491 492
12 458 486 493 494 495 496 497 498 499 500 501 502
12 305 345 440 478 503 504 505 506 507 508 509 510
12 344 352 496 505 511 512 513 514 515 516 517 518
12 4 38 69 90 153 519 520 521 522 523 524 525
12 519 526 527 528 529 530 531 532 533 534 535 536
12 16 48 58 133 173 526 537 538 539 540 541 542
12 225 311 397 408 417 436 445 543 544 545 546 547
12 147 167 186 197 205 532 548 549 550 551 552 553
12 145 162 394 406 554 555 556 557 558 559 560 561
12 142 181 404 414 556 562 563 564 565 566 567 568
12 6 29 245 255 262 368 375 453 569 570 571 572
12 132 172 272 323 423 573 574 575 576 577 578 579
12 573 580 581 582 583 584 585 586 587 588 589 590
12 124 202 488 495 582 591 592 593 594 595 596 597
12 99 113 244 260 460 487 493 598 599 600 601 602
12 337 356 448 514 584 603 604 605 606 607 608 609
12 60 77 221 234 405 413 424 543 610 611 612 613
12 165 195 462 477 557 614 615 616 617 618 619 620
12 555 563 615 621 622 623 624 625 626 627 628 629
12 439 447 506 513 603 623 630 631 632 633 634 635
12 28 50 112 122 135 527 537 636 637 638 639 640
12 264 341 464 479 497 503 511 599 641 642 643 644
12 193 201 459 494 591 616 621 645 646 647 648 649
12 246 265 284 342 351 378 430 454 569 650 651 652
12 104 115 125 194 203 531 548 637 653 654 655 656
12 18 39 215 223 235 362 369 376 657 658 659 660
12 175 182 415 425 562 575 581 661 662 663 664 665
12 121 134 275 282 485 574 580 593 666 667 668 669
12 71 81 214 222 386 392 407 544 610 670 671 672
12 185 204 564 583 592 622 645 661 673 674 675 676
12 7 30 93 101 114 520 528 636 653 677 678 679
12 285 353 489 498 512 585 594 604 666 680 681 682
12 61 80 143 176 183 530 539 549 683 684 685 686
12 399 441 481 507 558 617 624 630 687 688 689 690
12 226 236 314 325 331 363 379 431 657 691 692 693
12 92 100 254 261 463 469 475 598 641 694 695 696
12 155 161 387 395 470 476 554 614 687 697 698 699
12 19 40 62 72 82 521 529 538 684 700 701 702
12 326 333 418 426 446 576 586 605 663 703 704 705
12 73 83 146 156 163 522 533 550 683 700 706 707
12 419 449 565 587 606 625 631 662 673 703 708 709
12 216 227 295 301 316 370 380 432 658 691 710 711
12 294 300 388 398 437 471 480 504 688 697 712 713
12 8 20 31 41 51 523 534 540 638 677 701 714
12 276 286 327 336 355 577 588 607 667 681 704 715
12 94 105 157 166 196 524 535 551 654 678 706 716
12 499 515 589 595 608 626 632 646 675 680 708 717
12 256 266 296 306 346 371 381 433 570 650 710 718
12 257 267 297 308 348 472 482 508 642 694 712 718
12 9 21 32 42 52 364 372 382 455 571 659 714
12 127 137 178 188 207 578 590 596 664 668 674 719
12 126 136 177 187 206 536 541 552 639 655 685 719
12 466 484 500 509 516 619 627 633 643 647 689 717
12 277 287 328 338 357 365 383 434 456 651 692 715
12 217 228 298 309 318 389 400 442 545 670 711 713
12 95 106 158 168 198 465 473 483 618 695 698 716
12 22 43 63 74 84 218 229 237 611 660 671 702
12 402 410 422 443 451 547 560 567 628 634 690 709
12 230 238 319 329 339 420 427 450 546 612 693 705
12 75 85 148 159 169 390 401 409 559 672 699 707
12 10 33 96 107 116 247 258 268 572 600 679 696
12 248 269 288 349 358 490 501 517 601 644 652 682
12 64 86 149 179 189 411 421 428 566 613 665 686
12 34 53 117 128 138 249 278 289 457 492 640 669
12 108 118 129 199 208 467 491 502 597 602 648 656
12 23 54 65 139 180 239 279 330 366 429 542 579
12 150 170 190 200 209 553 561 568 620 629 649 676
12 11 44 76 97 160 219 259 299 373 391 474 525
12 310 320 340 350 359 435 444 452 510 518 609 635
