# Generated using Miratope v0.5.0 (https://github.com/galoomba1/miratope-rs)
4OFF

# Vertices, Faces, Edges, Cells
216 1440 1440 216

# Vertices
0.809016994374945 0.809016994374945 0.809016994374945 0.809016994374945 
-1.30901699437495 0.809016994374945 0 -0.5 
-0.5000000000000024 -0.0000000000000024424906541753444 0.8090169943749475 -1.3090169943749475 
-0.5 0.809016994374945 -1.30901699437495 0 
0.8090169943749475 -0.0000000000000024424906541753444 -1.3090169943749475 -0.5000000000000024 
0.8090169943749475 -0.5000000000000024 -0.0000000000000024424906541753444 -1.3090169943749475 
0.809016994374945 0.8090169943749451 -0.809016994374945 0.809016994374945 
0.8090169943749475 -0.0000000000000024424906541753444 1.3090169943749475 -0.5000000000000024 
-0.5000000000000024 -0.0000000000000024424906541753444 -0.8090169943749475 -1.3090169943749475 
-0.5 0.809016994374945 1.30901699437495 0 
1.61803398874989 0 0 0 
-0.5000000000000024 1.3090169943749475 -0.0000000000000024424906541753444 0.8090169943749475 
-0.809016994374945 0.809016994374945 0.809016994374945 0.809016994374945 
1.30901699437495 0.809016994374945 0 -0.5 
0.5000000000000024 -0.0000000000000024424906541753444 0.8090169943749475 -1.3090169943749475 
0.5 0.809016994374945 -1.30901699437495 0 
-0.8090169943749475 -0.0000000000000024424906541753444 -1.3090169943749475 -0.5000000000000024 
-0.8090169943749475 -0.5000000000000024 -0.0000000000000024424906541753444 -1.3090169943749475 
-0.809016994374945 0.8090169943749451 -0.809016994374945 0.809016994374945 
-0.8090169943749475 -0.0000000000000024424906541753444 1.3090169943749475 -0.5000000000000024 
0.5000000000000024 -0.0000000000000024424906541753444 -0.8090169943749475 -1.3090169943749475 
0.5 0.809016994374945 1.30901699437495 0 
-1.61803398874989 0 0 0 
0.5000000000000024 1.3090169943749475 -0.0000000000000024424906541753444 0.8090169943749475 
0 0 1.61803398874989 0 
-0.8090169943749475 1.3090169943749475 -0.5000000000000024 0.0000000000000024424906541753444 
0.8090169943749475 1.3090169943749475 -0.5000000000000024 0.0000000000000024424906541753444 
1.3090169943749475 -0.0000000000000024424906541753444 -0.5000000000000024 -0.8090169943749475 
-1.3090169943749475 -0.0000000000000024424906541753444 -0.5000000000000024 -0.8090169943749475 
-0.0000000000000024424906541753444 -0.8090169943749475 -0.5000000000000024 -1.3090169943749475 
-0.809016994374945 -0.809016994374945 0.809016994374945 -0.809016994374945 
1.30901699437495 0.5 0.809016994374945 0 
0 0.5 -1.30901699437495 -0.809016994374945 
-0.0000000000000024424906541753444 1.3090169943749475 0.8090169943749475 0.5000000000000024 
0.809016994374945 -0.809016994374945 0.809016994374945 -0.809016994374945 
-1.30901699437495 0.5 0.809016994374945 0 
0 0.809016994374945 -1.30901699437495 -0.5 
1.3090169943749475 -0.0000000000000024424906541753444 0.8090169943749475 -0.5000000000000024 
0.5 0.809016994374945 0 -1.30901699437495 
0.5000000000000024 -0.0000000000000024424906541753444 -1.3090169943749475 0.8090169943749475 
1.3090169943749475 -0.5000000000000024 0.0000000000000024424906541753444 0.8090169943749475 
0.5000000000000024 -0.0000000000000024424906541753444 1.3090169943749475 0.8090169943749475 
0 0.809016994374945 1.30901699437495 -0.5 
1.3090169943749475 -0.0000000000000024424906541753444 -0.8090169943749475 -0.5000000000000024 
0 0 0 1.61803398874989 
-0.8090169943749475 1.3090169943749475 -0.0000000000000024424906541753444 -0.5000000000000024 
0.8090169943749475 -0.0000000000000024424906541753444 -0.5000000000000024 -1.3090169943749475 
-0.0000000000000024424906541753444 1.3090169943749475 -0.5000000000000024 0.8090169943749475 
-0.0000000000000024424906541753444 1.3090169943749475 -0.5000000000000024 -0.8090169943749475 
0.8090169943749475 -0.0000000000000024424906541753444 -0.5000000000000024 1.3090169943749475 
1.3090169943749475 -0.8090169943749475 -0.5000000000000024 -0.0000000000000024424906541753444 
0.809016994374945 -0.809016994374945 0.809016994374945 0.809016994374945 
0 0.5 0.809016994374945 -1.30901699437495 
-0.5000000000000024 1.3090169943749475 0.8090169943749475 0.0000000000000024424906541753444 
0.809016994374945 0.5 -1.30901699437495 0 
0 0.5 0.809016994374945 1.30901699437495 
-0.809016994374945 0.809016994374945 0.809016994374945 -0.809016994374945 
0.5 0.809016994374945 0 1.30901699437495 
1.3090169943749475 -0.0000000000000024424906541753444 0.8090169943749475 0.5000000000000024 
0 0.809016994374945 -1.30901699437495 0.5 
0.5000000000000024 -0.0000000000000024424906541753444 -1.3090169943749475 -0.8090169943749475 
1.3090169943749475 -0.5000000000000024 0.0000000000000024424906541753444 -0.8090169943749475 
-0.809016994374945 0.809016994374945 -0.809016994374945 -0.809016994374945 
0.5000000000000024 -0.0000000000000024424906541753444 1.3090169943749475 -0.8090169943749475 
1.3090169943749475 -0.0000000000000024424906541753444 -0.8090169943749475 0.5000000000000024 
0 0.809016994374945 1.30901699437495 0.5 
0 0 0 -1.61803398874989 
-0.8090169943749475 1.3090169943749475 -0.0000000000000024424906541753444 0.5000000000000024 
0.5000000000000024 -0.0000000000000024424906541753444 0.8090169943749475 1.3090169943749475 
1.30901699437495 0.809016994374945 0 0.5 
-0.8090169943749475 -0.0000000000000024424906541753444 -1.3090169943749475 0.5000000000000024 
-0.8090169943749475 -0.5000000000000024 0.0000000000000024424906541753444 1.3090169943749475 
-0.8090169943749475 -0.0000000000000024424906541753444 1.3090169943749475 0.5000000000000024 
0.5000000000000024 -0.0000000000000024424906541753444 -0.8090169943749475 1.3090169943749475 
0.5000000000000024 1.3090169943749475 -0.0000000000000024424906541753444 -0.8090169943749475 
1.3090169943749475 -0.0000000000000024424906541753444 -0.5000000000000024 0.8090169943749475 
-1.3090169943749475 -0.0000000000000024424906541753444 -0.5000000000000024 0.8090169943749475 
-0.0000000000000024424906541753444 -0.8090169943749475 -0.5000000000000024 1.3090169943749475 
-0.0000000000000024424906541753444 1.3090169943749475 0.8090169943749475 -0.5000000000000024 
0 0.5 -1.30901699437495 0.809016994374945 
-0.809016994374945 -0.809016994374945 0.809016994374945 0.809016994374945 
0.809016994374945 0.809016994374945 0.809016994374945 -0.809016994374945 
-1.30901699437495 0.809016994374945 0 0.5 
-0.5000000000000024 -0.0000000000000024424906541753444 0.8090169943749475 1.3090169943749475 
0.8090169943749475 -0.0000000000000024424906541753444 -1.3090169943749475 0.5000000000000024 
0.8090169943749475 -0.5000000000000024 0.0000000000000024424906541753444 1.3090169943749475 
0.809016994374945 0.809016994374945 -0.809016994374945 -0.809016994374945 
0.8090169943749475 -0.0000000000000024424906541753444 1.3090169943749475 0.5000000000000024 
-0.5000000000000024 -0.0000000000000024424906541753444 -0.8090169943749475 1.3090169943749475 
-0.5000000000000024 1.3090169943749475 -0.0000000000000024424906541753444 -0.8090169943749475 
-1.3090169943749475 -0.0000000000000024424906541753444 0.8090169943749475 -0.5000000000000024 
-0.5 0.809016994374945 0 -1.30901699437495 
-0.5000000000000024 -0.0000000000000024424906541753444 -1.3090169943749475 0.8090169943749475 
-1.3090169943749475 -0.5000000000000024 -0.0000000000000024424906541753444 0.8090169943749475 
-0.5000000000000024 -0.0000000000000024424906541753444 1.3090169943749475 0.8090169943749475 
-1.3090169943749475 -0.0000000000000024424906541753444 -0.8090169943749475 -0.5000000000000024 
0.8090169943749475 1.3090169943749475 -0.0000000000000024424906541753444 -0.5000000000000024 
-0.8090169943749475 -0.0000000000000024424906541753444 -0.5000000000000024 -1.3090169943749475 
-0.8090169943749475 -0.0000000000000024424906541753444 -0.5000000000000024 1.3090169943749475 
-1.3090169943749475 -0.8090169943749475 -0.5000000000000024 -0.0000000000000024424906541753444 
0.5000000000000024 1.3090169943749475 0.8090169943749475 0.0000000000000024424906541753444 
-0.809016994374945 0.5 -1.30901699437495 0 
-1.3090169943749475 -0.0000000000000024424906541753444 0.8090169943749475 0.5000000000000024 
-0.5 0.809016994374945 0 1.30901699437495 
-0.5000000000000024 -0.0000000000000024424906541753444 -1.3090169943749475 -0.8090169943749475 
-1.3090169943749475 -0.5000000000000024 -0.0000000000000024424906541753444 -0.8090169943749475 
-0.5000000000000024 -0.0000000000000024424906541753444 1.3090169943749475 -0.8090169943749475 
-1.3090169943749475 -0.0000000000000024424906541753444 -0.8090169943749475 0.5000000000000024 
0.8090169943749475 1.3090169943749475 -0.0000000000000024424906541753444 0.5000000000000024 
-0.5 -1.30901699437495 0 0.809016994374945 
0 -1.30901699437495 0.809016994374945 -0.5 
-1.3090169943749475 -0.8090169943749475 -0.0000000000000024424906541753444 -0.5000000000000024 
0 -1.30901699437495 0.809016994374945 0.5 
-0.5000000000000024 -1.3090169943749475 -0.0000000000000024424906541753444 -0.8090169943749475 
-1.3090169943749475 -0.8090169943749475 -0.0000000000000024424906541753444 0.5000000000000024 
0 1.61803398874989 0 0 
-1.3090169943749475 -0.5000000000000024 -0.8090169943749475 -0.0000000000000024424906541753444 
0.0000000000000024424906541753444 -0.5000000000000024 1.3090169943749475 -0.8090169943749475 
0.0000000000000024424906541753444 -0.5000000000000024 1.3090169943749475 0.8090169943749475 
0 0.809016994374945 0.5 1.30901699437495 
-0.809016994374945 -1.30901699437495 0.5 0 
0 0.809016994374945 0.5 -1.30901699437495 
0.809016994374945 -1.30901699437495 0 0.5 
-0.5 -1.30901699437495 0.809016994374945 0 
-0.5000000000000024 -0.8090169943749475 0.0000000000000024424906541753444 1.3090169943749475 
-0.809016994374945 -1.30901699437495 0 0.5 
0.5000000000000024 -1.3090169943749475 0.8090169943749475 -0.0000000000000024424906541753444 
0.5000000000000024 -0.8090169943749475 0.0000000000000024424906541753444 1.3090169943749475 
-0.0000000000000024424906541753444 -0.5000000000000024 -0.8090169943749475 1.3090169943749475 
0.8090169943749475 -0.5000000000000024 1.3090169943749475 -0.0000000000000024424906541753444 
-0.8090169943749475 -0.5000000000000024 1.3090169943749475 -0.0000000000000024424906541753444 
-1.30901699437495 0.809016994374945 0.5 0 
0 -1.30901699437495 0.5 0.809016994374945 
1.30901699437495 0.809016994374945 0.5 0 
0.5 -1.30901699437495 0 0.809016994374945 
1.3090169943749475 -0.8090169943749475 0.0000000000000024424906541753444 -0.5000000000000024 
0.5 -1.30901699437495 0 -0.809016994374945 
1.3090169943749475 -0.8090169943749475 0.0000000000000024424906541753444 0.5000000000000024 
1.3090169943749475 -0.5000000000000024 -0.8090169943749475 -0.0000000000000024424906541753444 
0.8090169943749475 -1.3090169943749475 0.5000000000000024 -0.0000000000000024424906541753444 
0.809016994374945 -1.30901699437495 0 -0.5 
-0.5000000000000024 -0.8090169943749475 -0.0000000000000024424906541753444 -1.3090169943749475 
-0.8090169943749475 -1.3090169943749475 -0.0000000000000024424906541753444 -0.5000000000000024 
0.5000000000000024 -0.8090169943749475 -0.0000000000000024424906541753444 -1.3090169943749475 
-0.0000000000000024424906541753444 -0.5000000000000024 -0.8090169943749475 -1.3090169943749475 
0 -1.30901699437495 0.5 -0.809016994374945 
0.8090169943749475 -0.0000000000000024424906541753444 0.5000000000000024 1.3090169943749475 
0.8090169943749475 -0.0000000000000024424906541753444 0.5000000000000024 -1.3090169943749475 
-0.5000000000000024 1.3090169943749475 -0.8090169943749475 0.0000000000000024424906541753444 
-0.8090169943749475 -0.0000000000000024424906541753444 0.5000000000000024 1.3090169943749475 
-0.8090169943749475 -0.0000000000000024424906541753444 0.5000000000000024 -1.3090169943749475 
0.5000000000000024 1.3090169943749475 -0.8090169943749475 0.0000000000000024424906541753444 
0.0000000000000024424906541753444 -0.8090169943749475 1.3090169943749475 0.5000000000000024 
1.30901699437495 0.5 0 -0.809016994374945 
-1.30901699437495 0.5 0 -0.809016994374945 
1.3090169943749475 -0.0000000000000024424906541753444 0.5000000000000024 -0.8090169943749475 
1.3090169943749475 -0.0000000000000024424906541753444 0.5000000000000024 0.8090169943749475 
0 0 -1.61803398874989 0 
-0.8090169943749475 1.3090169943749475 0.5000000000000024 0.0000000000000024424906541753444 
-0.0000000000000024424906541753444 1.3090169943749475 -0.8090169943749475 0.5000000000000024 
0.809016994374945 -0.809016994374945 -0.809016994374945 -0.809016994374945 
0 0.5 1.30901699437495 -0.809016994374945 
0.809016994374945 0.5 0 1.30901699437495 
0 0.809016994374945 -0.5 -1.30901699437495 
1.3090169943749475 -0.5000000000000024 0.8090169943749475 -0.0000000000000024424906541753444 
0 0.809016994374945 -0.5 1.30901699437495 
-1.3090169943749475 -0.0000000000000024424906541753444 0.5000000000000024 -0.8090169943749475 
-1.3090169943749475 -0.0000000000000024424906541753444 0.5000000000000024 0.8090169943749475 
0.8090169943749475 1.3090169943749475 0.5000000000000024 0.0000000000000024424906541753444 
-0.809016994374945 0.5 0 1.30901699437495 
-0.8090169943749451 -0.809016994374945 -0.809016994374945 -0.809016994374945 
-1.3090169943749475 -0.5000000000000024 0.8090169943749475 -0.0000000000000024424906541753444 
1.30901699437495 0.809016994374945 -0.5 0 
-0.8090169943749475 -0.5000000000000024 -1.3090169943749475 -0.0000000000000024424906541753444 
-0.0000000000000024424906541753444 -0.8090169943749475 -1.3090169943749475 0.5000000000000024 
-0.0000000000000024424906541753444 1.3090169943749475 0.5000000000000024 -0.8090169943749475 
0 0.5 -0.809016994374945 1.30901699437495 
-1.30901699437495 0.809016994374945 -0.5 0 
0.8090169943749475 -0.5000000000000024 -1.3090169943749475 -0.0000000000000024424906541753444 
-0.0000000000000024424906541753444 -1.3090169943749475 -0.5000000000000024 -0.8090169943749475 
0.5 -1.30901699437495 -0.809016994374945 0 
1.3090169943749475 -0.8090169943749475 0.5000000000000024 -0.0000000000000024424906541753444 
-0.0000000000000024424906541753444 -0.5000000000000024 0.8090169943749475 -1.3090169943749475 
-0.5000000000000024 -0.8090169943749475 1.3090169943749475 -0.0000000000000024424906541753444 
0.5000000000000024 -0.8090169943749475 1.3090169943749475 -0.0000000000000024424906541753444 
0.809016994374945 -1.30901699437495 -0.5 0 
-0.5000000000000024 -0.8090169943749475 -1.3090169943749475 -0.0000000000000024424906541753444 
-0.8090169943749475 -1.3090169943749475 -0.5000000000000024 -0.0000000000000024424906541753444 
0.5000000000000024 -0.8090169943749475 -1.3090169943749475 -0.0000000000000024424906541753444 
-0.0000000000000024424906541753444 -0.5000000000000024 -1.3090169943749475 0.8090169943749475 
-0.0000000000000024424906541753444 -1.3090169943749475 -0.8090169943749475 -0.5000000000000024 
-0.5000000000000024 -1.3090169943749475 -0.8090169943749475 -0.0000000000000024424906541753444 
-1.3090169943749475 -0.8090169943749475 0.5000000000000024 -0.0000000000000024424906541753444 
-0.0000000000000024424906541753444 1.3090169943749475 -0.8090169943749475 -0.5000000000000024 
0.809016994374945 0.5 0 -1.30901699437495 
-0.0000000000000024424906541753444 1.3090169943749475 0.5000000000000024 0.8090169943749475 
0.809016994374945 0.5 1.30901699437495 0 
0.809016994374945 -0.809016994374945 -0.809016994374945 0.809016994374945 
-1.30901699437495 0.5 0 0.809016994374945 
-0.0000000000000024424906541753444 -0.5000000000000024 0.8090169943749475 1.3090169943749475 
-1.30901699437495 0.5 -0.809016994374945 0 
-0.0000000000000024424906541753444 -0.5000000000000024 -1.3090169943749475 -0.8090169943749475 
0 -1.30901699437495 -0.5 0.809016994374945 
-0.0000000000000024424906541753444 -0.8090169943749475 -1.3090169943749475 -0.5000000000000024 
0 -1.30901699437495 -0.809016994374945 0.5 
-0.0000000000000024424906541753444 -0.8090169943749475 0.5000000000000024 1.3090169943749475 
-0.0000000000000024424906541753444 -0.8090169943749475 0.5000000000000024 -1.3090169943749475 
0.0000000000000024424906541753444 -0.8090169943749475 1.3090169943749475 -0.5000000000000024 
1.30901699437495 0.5 0 0.809016994374945 
0 0.5 1.30901699437495 0.809016994374945 
-0.809016994374945 -0.809016994374945 -0.809016994374945 0.809016994374945 
-0.809016994374945 0.5 0 -1.30901699437495 
0 0.5 -0.809016994374945 -1.30901699437495 
-0.809016994374945 0.5 1.30901699437495 0 
1.30901699437495 0.5 -0.809016994374945 0 
0 -1.61803398874989 0 0 

# Faces
5 0 2 11 7 1
5 1 6 9 3 0
5 10 2 0 5 9
5 3 10 11 4 0
5 4 7 6 5 0
5 6 9 10 11 7
5 6 1 4 11 8
5 6 5 3 10 8
5 10 8 7 4 2
5 2 3 9 8 11
5 8 7 1 5 9
5 2 4 1 5 3
5 12 14 23 19 13
5 18 13 12 15 21
5 12 14 22 21 17
5 22 15 12 16 23
5 12 17 18 19 16
5 18 19 23 22 21
5 18 20 23 16 13
5 20 18 17 15 22
5 19 20 22 14 16
5 23 20 21 15 14
5 20 19 13 17 21
5 14 16 13 17 15
5 24 25 31 35 26
5 24 28 33 30 25
5 26 24 27 33 34
5 24 27 30 31 29
5 24 28 34 35 29
5 31 35 34 33 30
5 32 30 25 29 35
5 32 34 28 27 30
5 31 32 34 26 29
5 25 27 33 32 31
5 35 32 33 28 26
5 25 27 28 26 29
5 12 36 42 18 38
5 45 39 12 36 44
5 37 45 41 38 12
5 12 37 44 42 40
5 12 39 41 18 40
5 18 42 44 45 41
5 45 43 18 38 39
5 36 40 18 43 44
5 44 43 41 39 37
5 37 36 42 43 45
5 41 38 40 42 43
5 36 37 39 38 40
5 46 53 34 48 24
5 24 50 52 51 46
5 47 52 55 48 24
5 51 47 24 49 53
5 24 50 55 34 49
5 55 52 51 53 34
5 34 54 51 46 49
5 51 47 50 55 54
5 34 48 50 52 54
5 48 49 53 54 55
5 47 46 53 54 52
5 47 46 49 48 50
5 56 57 63 67 58
5 62 57 56 59 65
5 56 61 65 66 58
5 66 59 56 60 67
5 62 61 56 60 63
5 67 63 62 65 66
5 62 57 60 67 64
5 64 66 59 61 62
5 64 66 58 60 63
5 58 67 64 65 59
5 63 57 61 65 64
5 58 60 57 61 59
5 21 62 69 56 15
5 15 22 74 70 56
5 56 68 74 72 69
5 21 71 56 68 22
5 56 70 72 62 71
5 22 74 72 62 21
5 62 69 70 74 73
5 15 71 62 73 22
5 68 70 72 73 22
5 74 68 15 21 73
5 72 69 71 21 73
5 68 15 71 69 70
5 25 80 78 76 24
5 24 75 78 51 26
5 75 80 31 77 24
5 24 77 35 51 76
5 35 31 80 78 51
5 51 79 31 77 26
5 75 76 51 79 80
5 80 79 35 77 25
5 25 31 79 78 75
5 35 79 78 76 26
5 26 77 25 75 76
5 82 87 89 83 81
5 82 86 9 3 81
5 10 83 81 85 9
5 3 10 89 84 81
5 81 85 86 87 84
5 9 86 87 89 10
5 89 88 86 82 84
5 88 10 3 85 86
5 87 88 10 83 84
5 9 88 89 83 3
5 82 85 9 88 87
5 83 84 82 85 3
5 36 42 6 91 0
5 44 36 0 92 96
5 96 90 0 91 94
5 42 93 0 90 44
5 0 92 94 6 93
5 6 42 44 96 94
5 6 91 92 96 95
5 6 95 44 36 93
5 44 90 92 94 95
5 42 95 96 90 36
5 94 91 93 42 95
5 90 92 91 93 36
5 24 48 30 100 97
5 80 97 24 99 52
5 24 47 80 100 98
5 30 98 24 99 55
5 52 80 100 30 55
5 97 98 30 101 80
5 101 80 47 99 55
5 48 99 52 101 30
5 48 98 100 101 55
5 52 101 100 97 47
5 97 47 99 48 98
5 59 81 103 86 65
5 81 59 66 108 104
5 81 102 108 106 103
5 81 105 65 66 102
5 106 104 81 105 86
5 106 108 66 65 86
5 86 103 104 108 107
5 107 66 59 105 86
5 107 66 102 104 106
5 65 107 108 102 59
5 106 107 65 105 103
5 102 104 103 105 59
5 78 44 1 0 76
5 78 110 0 2 51
5 76 51 11 109 0
5 109 7 44 110 0
5 78 44 7 11 51
5 1 109 11 111 44
5 76 110 44 111 51
5 51 111 7 109 2
5 78 111 11 2 76
5 1 7 111 78 110
5 109 2 76 110 1
5 33 66 82 81 28
5 83 34 33 112 81
5 81 28 34 89 113
5 112 66 87 113 81
5 89 34 33 66 87
5 82 113 89 114 66
5 28 112 66 114 34
5 34 83 113 87 114
5 89 114 33 28 83
5 87 114 33 112 82
5 82 113 83 28 112
5 71 115 116 119 62
5 18 118 115 71 21
5 18 17 115 116 121
5 115 117 119 121 118
5 117 62 21 17 115
5 21 62 119 121 18
5 17 71 62 120 18
5 117 116 121 120 62
5 116 118 18 120 119
5 71 117 119 120 21
5 121 118 17 21 120
5 117 116 118 17 71
5 103 10 53 49 81
5 81 49 34 108 122
5 53 123 81 102 34
5 81 122 106 10 123
5 34 108 106 10 53
5 10 103 122 108 124
5 49 123 10 124 34
5 34 102 122 106 124
5 108 124 53 49 102
5 106 124 53 123 103
5 49 123 103 122 102
5 56 98 100 22 57
5 58 30 100 126 56
5 98 56 125 67 30
5 56 126 22 63 125
5 30 67 63 22 100
5 127 22 57 125 67
5 30 127 22 126 98
5 58 125 63 127 30
5 58 98 100 127 67
5 57 126 100 127 63
5 57 125 58 98 126
5 40 115 128 133 18
5 42 40 115 129 6
5 93 115 128 131 6
5 115 93 42 18 130
5 129 131 133 130 115
5 18 42 6 131 133
5 6 93 40 18 132
5 6 129 128 133 132
5 18 132 131 128 130
5 42 132 133 130 40
5 42 132 131 129 93
5 40 93 129 128 130
5 13 44 78 75 12
5 12 110 78 80 14
5 75 12 134 23 80
5 12 110 44 19 134
5 19 44 78 80 23
5 135 44 13 134 23
5 44 110 75 80 135
5 80 14 134 19 135
5 78 135 23 14 75
5 13 110 78 135 19
5 13 134 14 75 110
5 27 56 69 66 33
5 30 74 136 56 27
5 68 30 33 112 56
5 56 112 66 72 136
5 72 66 33 30 74
5 137 66 69 136 74
5 30 137 66 112 27
5 72 137 30 68 136
5 27 68 74 137 33
5 69 112 33 137 72
5 68 136 69 112 27
5 115 85 86 119 138
5 9 85 115 118 6
5 5 115 138 121 6
5 9 5 115 117 86
5 9 6 121 119 86
5 6 139 86 85 5
5 117 138 121 139 86
5 138 118 6 139 119
5 119 139 9 85 117
5 9 139 121 118 5
5 117 85 5 118 138
5 91 10 53 46 0
5 51 46 0 140 96
5 90 51 53 123 0
5 123 10 94 140 0
5 53 10 94 96 51
5 140 91 10 141 96
5 51 141 10 123 46
5 140 90 51 141 94
5 96 141 53 46 90
5 123 91 94 141 53
5 90 46 123 91 140
5 100 22 38 12 97
5 80 45 142 12 97
5 100 126 12 37 80
5 22 41 142 12 126
5 100 22 41 45 80
5 45 143 22 38 142
5 97 126 22 143 80
5 142 37 80 143 41
5 97 37 45 143 100
5 126 38 41 143 100
5 97 126 38 142 37
5 61 115 129 86 65
5 62 133 144 115 61
5 130 62 65 105 115
5 105 115 144 131 86
5 62 133 131 86 65
5 86 145 62 61 105
5 86 145 133 144 129
5 130 144 131 145 62
5 133 145 65 61 130
5 131 145 65 105 129
5 105 129 144 130 61
5 106 148 147 131 86
5 91 103 86 131 6
5 106 86 129 91 10
5 103 86 146 148 10
5 129 86 146 147 6
5 6 131 146 148 94
5 94 10 103 129 6
5 6 91 10 148 147
5 10 106 146 147 94
5 91 129 131 147 94
5 129 103 106 146 131
5 94 148 106 103 91
5 62 133 150 151 63
5 62 133 18 38 57
5 22 63 62 130 38
5 62 57 22 151 149
5 62 130 18 150 149
5 41 18 133 149 151
5 22 41 18 130 57
5 18 150 151 22 38
5 63 149 150 41 22
5 38 130 133 150 41
5 133 149 63 57 130
5 38 57 63 151 41
5 67 153 154 108 66
5 48 102 66 67 30
5 66 108 34 48 58
5 66 58 30 153 152
5 34 102 66 152 154
5 55 154 152 67 30
5 34 55 30 58 102
5 48 30 153 154 34
5 55 34 108 152 153
5 55 153 67 58 48
5 108 152 67 58 102
5 48 102 108 154 55
5 119 62 73 158 157
5 21 62 155 158 20
5 138 62 155 157 121
5 20 73 62 138 18
5 20 158 157 121 18
5 18 156 158 73 21
5 119 157 156 18 138
5 157 156 20 73 155
5 119 121 156 158 155
5 21 138 119 155 73
5 21 138 121 156 20
5 87 66 137 161 160
5 33 66 159 161 32
5 66 84 89 160 159
5 34 84 66 137 32
5 89 34 32 161 160
5 162 160 87 84 34
5 32 162 160 159 137
5 34 162 161 137 33
5 87 159 161 162 89
5 89 84 33 32 162
5 84 33 137 159 87
5 25 14 12 163 24
5 68 14 12 164 56
5 15 12 75 25 68
5 15 56 165 163 12
5 24 165 164 12 75
5 24 165 56 68 25
5 27 24 75 14 68
5 27 24 163 164 56
5 14 25 27 56 15
5 27 165 163 75 25
5 15 164 163 75 14
5 27 68 15 164 165
5 119 86 88 168 157
5 86 116 6 8 88
5 86 9 8 168 166
5 166 157 121 116 86
5 121 6 8 168 157
5 9 6 167 168 88
5 119 116 6 167 157
5 166 88 8 167 157
5 166 119 121 167 168
5 9 116 119 166 88
5 8 167 121 116 9
5 170 72 66 114 161
5 70 66 159 170 74
5 32 114 66 70 30
5 32 161 170 74 30
5 30 33 114 161 169
5 169 170 72 70 30
5 170 169 32 114 159
5 159 72 74 169 161
5 33 70 74 169 32
5 72 159 114 33 70
5 24 163 0 2 26
5 81 171 0 2 83
5 0 76 26 83 3
5 3 81 165 163 0
5 76 24 165 171 0
5 81 165 24 26 83
5 28 83 2 76 24
5 28 24 163 171 81
5 3 2 26 28 81
5 163 76 26 28 165
5 3 171 163 76 2
5 83 28 165 171 3
5 12 97 98 56 173
5 57 38 12 172 56
5 98 172 12 39 100
5 57 173 12 39 22
5 56 172 97 100 60
5 56 60 22 38 173
5 22 60 98 97 39
5 60 57 38 39 100
5 39 97 172 173 38
5 60 57 173 172 98
5 67 66 107 175 170
5 66 108 160 175 64
5 66 174 153 170 64
5 66 174 154 160 107
5 160 108 174 153 176
5 160 154 153 170 175
5 170 176 160 107 64
5 176 170 67 174 154
5 64 67 153 176 175
5 67 174 108 107 64
5 108 107 175 176 154
5 49 81 178 0 46
5 0 91 103 81 177
5 0 177 49 53 92
5 92 10 103 178 0
5 53 104 81 177 46
5 10 104 81 178 91
5 10 104 49 46 92
5 91 103 104 53 92
5 91 178 177 46 92
5 103 104 49 177 178
5 24 97 126 56 179
5 48 58 56 172 24
5 100 50 24 172 126
5 50 30 58 179 24
5 56 60 30 48 179
5 97 50 30 60 126
5 60 58 48 50 100
5 172 179 48 50 97
5 126 60 58 179 172
5 64 175 157 133 62
5 62 145 175 170 63
5 64 170 151 180 62
5 157 145 62 180 150
5 180 133 157 181 151
5 170 151 150 157 175
5 170 181 157 145 64
5 63 180 150 181 170
5 145 175 181 150 133
5 145 64 63 180 133
5 151 63 64 175 181
5 36 0 178 115 40
5 0 91 129 115 182
5 140 6 129 178 0
5 0 140 42 40 182
5 91 6 144 115 178
5 144 42 36 182 115
5 36 140 6 144 40
5 144 129 91 140 42
5 91 178 182 36 140
5 129 144 40 182 178
5 87 160 168 139 86
5 89 113 86 166 160
5 10 113 86 139 8
5 10 89 160 168 8
5 9 139 168 183 10
5 87 160 183 10 113
5 166 139 8 183 160
5 89 183 168 166 87
5 8 183 89 113 9
5 87 113 9 139 166
5 62 120 158 170 72
5 74 136 62 155 170
5 120 20 22 136 62
5 74 22 20 158 170
5 22 184 158 120 21
5 72 170 184 22 136
5 155 120 20 184 170
5 74 72 155 158 184
5 136 21 20 184 74
5 120 155 72 136 21
5 0 163 12 13 1
5 118 1 0 171 115
5 5 0 163 164 115
5 0 110 12 164 171
5 0 110 13 118 5
5 115 164 12 13 118
5 163 12 17 115 171
5 17 12 110 1 118
5 5 115 17 13 1
5 163 110 13 17 164
5 171 5 1 110 163
5 118 17 164 171 5
5 81 84 34 26 185
5 81 185 2 10 113
5 34 89 10 2 26
5 10 186 26 185 3
5 10 113 84 34 186
5 34 28 185 2 186
5 84 28 26 186 89
5 3 113 89 186 2
5 3 185 28 84 113
5 25 187 56 70 30
5 22 136 56 187 14
5 14 25 30 74 22
5 188 22 15 187 25
5 70 136 22 188 30
5 30 27 187 14 188
5 27 70 74 188 25
5 136 15 14 188 74
5 15 136 70 27 187
5 13 189 115 138 18
5 116 6 1 189 115
5 1 13 18 121 6
5 18 190 6 116 138
5 6 190 13 189 5
5 1 190 18 17 189
5 17 138 121 190 13
5 5 116 121 190 1
5 17 138 116 5 189
5 123 46 24 179 81
5 102 48 24 177 81
5 53 99 24 177 123
5 102 179 24 99 34
5 104 34 48 179 81
5 104 123 46 99 34
5 104 53 99 48 102
5 177 179 48 99 46
5 123 104 102 179 177
5 86 107 175 157 131
5 106 160 175 145 86
5 107 86 191 148 160
5 86 145 157 147 191
5 131 191 148 192 157
5 175 160 148 147 157
5 160 192 157 145 107
5 106 191 147 192 160
5 131 147 192 175 145
5 107 145 131 191 106
5 106 148 192 175 107
5 36 12 173 115 93
5 130 38 12 182 115
5 130 173 12 142 18
5 12 142 42 93 182
5 115 173 38 18 144
5 93 144 18 142 36
5 130 38 142 42 144
5 182 173 38 142 36
5 130 144 93 182 173
5 7 6 121 156 193
5 6 118 13 44 7
5 6 167 193 44 1
5 6 118 18 156 167
5 19 18 121 167 193
5 44 19 18 118 1
5 13 44 193 156 18
5 44 19 156 167 7
5 7 193 19 13 1
5 121 118 1 7 167
5 19 156 121 118 13
5 10 11 194 162 89
5 11 51 26 83 10
5 2 51 194 183 10
5 10 83 34 162 183
5 11 51 35 162 183
5 35 34 83 2 51
5 34 162 194 51 26
5 34 35 194 183 89
5 11 194 35 26 2
5 11 183 89 83 2
5 26 83 89 162 35
5 86 119 155 159 87
5 86 119 62 69 82
5 87 66 69 117 86
5 82 66 159 166 86
5 117 62 155 166 86
5 119 62 72 159 166
5 72 66 82 117 62
5 66 69 62 155 159
5 87 66 72 155 166
5 69 117 119 155 72
5 119 166 87 82 117
5 87 159 72 69 82
5 131 6 95 195 157
5 42 43 195 147 6
5 133 157 147 6 144
5 43 95 6 144 18
5 157 133 18 43 195
5 42 18 150 195 95
5 18 144 131 157 150
5 147 157 150 43 95
5 133 131 147 195 150
5 43 150 133 144 42
5 131 144 42 95 147
5 10 141 196 160 106
5 10 53 54 196 148
5 104 10 148 160 108
5 10 104 34 54 141
5 34 108 160 196 54
5 154 160 106 104 34
5 160 154 54 141 148
5 34 53 141 196 154
5 108 154 196 148 106
5 104 53 54 154 108
5 53 104 106 148 141
5 47 37 36 0 46
5 36 0 177 172 12
5 24 172 182 0 46
5 47 90 0 177 24
5 0 90 37 12 182
5 12 97 47 90 36
5 24 177 182 12 97
5 12 172 24 47 37
5 24 46 90 37 97
5 97 37 36 182 172
5 36 182 177 46 90
5 46 177 172 97 47
5 65 86 146 175 64
5 146 157 133 128 86
5 86 107 64 62 128
5 107 65 62 149 175
5 149 157 131 128 62
5 64 149 157 146 107
5 146 131 133 149 175
5 128 65 64 149 133
5 131 128 65 107 146
5 94 10 124 196 197
5 96 197 148 10 92
5 51 92 10 124 54
5 54 196 197 96 51
5 94 197 198 51 92
5 197 198 54 124 148
5 198 51 53 124 196
5 96 94 148 196 198
5 92 53 54 198 96
5 92 53 124 148 94
5 24 98 58 102 49
5 24 49 81 199 172
5 24 177 199 56 98
5 56 199 81 102 58
5 98 56 59 102 48
5 56 59 81 177 172
5 48 58 59 81 49
5 48 49 177 172 98
5 58 98 172 199 59
5 102 49 177 199 59
5 75 12 189 0 76
5 4 78 75 163 0
5 44 4 0 189 13
5 12 163 76 78 16
5 1 44 16 12 189
5 75 16 44 4 76
5 16 78 4 1 13
5 75 16 13 189 163
5 163 189 1 4 76
5 11 197 168 88 10
5 8 197 194 186 10
5 10 88 160 162 186
5 11 186 162 200 197
5 160 162 194 197 168
5 88 8 197 200 160
5 200 160 89 186 194
5 11 8 168 200 194
5 11 186 89 88 8
5 89 88 168 200 162
5 56 27 28 81 201
5 56 165 81 82 69
5 28 165 56 70 33
5 56 201 82 66 70
5 27 165 81 84 33
5 84 66 69 201 81
5 28 84 66 70 27
5 69 82 84 33 70
5 70 27 165 201 69
5 82 84 28 165 201
5 92 51 47 202 0
5 44 140 0 202 37
5 47 37 44 96 51
5 36 44 203 47 202
5 92 140 44 203 51
5 203 51 46 202 37
5 96 92 46 47 203
5 37 203 96 140 36
5 36 140 92 46 202
5 58 179 81 122 66
5 66 59 179 48 174
5 34 174 66 122 104
5 34 174 58 179 49
5 104 49 48 174 108
5 59 122 108 174 58
5 49 179 59 122 104
5 40 38 57 61 115
5 128 62 57 173 115
5 38 180 62 61 173
5 180 18 144 128 62
5 173 40 18 180 57
5 133 180 57 61 128
5 133 144 40 38 180
5 61 173 40 144 128
5 27 112 81 185 24
5 24 165 112 33 77
5 77 34 83 185 24
5 34 77 27 112 84
5 77 33 84 83 26
5 26 185 165 27 77
5 84 83 185 165 112
5 160 88 86 204 159
5 86 204 155 157 139
5 157 205 159 204 119
5 157 168 160 159 155
5 160 205 157 139 88
5 87 204 155 205 160
5 139 168 205 155 119
5 88 139 119 204 87
5 168 88 87 159 205
5 15 12 189 115 71
5 12 189 118 18 134
5 21 134 12 164 71
5 21 138 115 164 15
5 71 138 18 134 15
5 13 134 15 164 189
5 138 118 13 134 21
5 189 118 138 71 164
5 26 185 0 4 51
5 24 75 110 0 185
5 110 163 24 29 78
5 2 51 29 24 185
5 110 4 51 29 75
5 26 2 4 78 29
5 26 185 163 75 29
5 2 185 163 110 4
5 6 7 197 168 139
5 6 8 197 193 190
5 156 190 6 139 157
5 157 206 193 190 121
5 156 193 197 168 157
5 8 139 157 206 197
5 7 190 156 206 197
5 7 193 206 168 8
5 8 139 121 190 7
5 121 139 168 206 156
5 15 17 115 201 56
5 69 117 115 164 56
5 136 62 117 201 56
5 136 21 17 164 56
5 62 138 115 201 69
5 17 138 62 136 15
5 138 21 136 69 117
5 164 201 69 136 15
5 117 201 164 17 138
5 197 94 6 132 195
5 147 197 96 140 6
5 6 132 43 44 140
5 96 44 43 195 197
5 42 132 195 207 44
5 140 94 197 207 44
5 207 197 147 132 43
5 147 94 96 207 195
5 43 207 96 140 42
5 94 147 132 42 140
5 122 86 146 160 108
5 66 64 145 86 122
5 145 65 66 152 175
5 122 66 152 160 106
5 146 145 64 152 160
5 146 106 108 152 175
5 122 65 64 152 108
5 106 146 145 65 122
5 40 115 199 172 12
5 40 130 57 126 12
5 56 199 182 12 126
5 56 57 130 115 199
5 56 61 115 182 172
5 56 61 130 38 126
5 57 126 172 199 61
5 38 126 172 182 40
5 40 182 199 61 130
5 44 45 208 198 96
5 44 90 47 80 45
5 44 207 208 80 37
5 90 51 198 207 44
5 51 96 207 208 52
5 51 52 80 37 90
5 47 51 198 208 80
5 80 52 198 207 45
5 47 37 45 208 52
5 96 90 37 45 207
5 90 47 52 198 96
5 197 7 44 135 209
5 78 44 193 209 79
5 11 4 44 193 197
5 51 4 44 135 79
5 51 11 197 209 79
5 51 4 7 197 194
5 197 193 135 79 194
5 51 194 209 135 78
5 193 7 11 194 209
5 78 4 11 194 79
5 4 78 135 193 7
5 19 44 111 209 210
5 193 210 23 16 44
5 80 16 44 111 79
5 23 80 79 209 210
5 19 210 211 80 16
5 193 210 211 79 111
5 211 80 78 111 209
5 19 193 209 211 23
5 78 16 23 211 79
5 78 16 19 193 111
5 45 210 195 95 44
5 44 43 210 208 203
5 197 95 44 203 198
5 197 212 208 203 96
5 197 195 210 208 198
5 95 43 210 212 197
5 45 210 212 198 203
5 43 195 212 208 45
5 96 95 43 45 203
5 96 198 212 195 95
5 0 185 83 10 109
5 51 186 10 109 4
5 51 186 83 185 76
5 11 186 26 76 4
5 11 186 83 3 109
5 185 76 4 109 3
5 16 80 25 187 12
5 68 187 12 134 22
5 23 80 25 68 22
5 80 188 22 134 16
5 75 80 188 68 187
5 23 188 25 75 16
5 68 188 23 134 15
5 187 75 16 134 15
5 82 201 115 116 86
5 69 82 85 115 71
5 201 85 86 204 69
5 86 116 138 62 204
5 62 71 201 82 204
5 69 204 119 138 71
5 119 116 85 82 204
5 201 71 138 116 85
5 80 39 12 202 47
5 12 126 98 24 202
5 37 202 24 50 80
5 39 126 98 50 80
5 47 37 39 100 50
5 98 50 47 202 172
5 37 39 126 172 202
5 132 18 41 210 195
5 18 180 151 210 43
5 149 180 18 132 157
5 151 210 195 157 149
5 181 210 43 132 157
5 210 181 149 180 41
5 132 133 149 181 195
5 132 43 41 180 133
5 43 195 181 151 41
5 59 61 115 178 81
5 129 103 81 199 115
5 81 122 86 129 178
5 61 199 81 122 65
5 103 178 115 128 86
5 59 65 128 115 199
5 61 128 86 122 59
5 129 103 122 65 128
5 103 122 59 199 178
5 129 128 61 199 178
5 24 202 0 123 49
5 24 99 51 90 202
5 123 92 51 99 49
5 92 53 99 47 90
5 177 202 47 99 49
5 90 92 123 177 202
5 95 197 148 191 6
5 146 191 6 132 157
5 146 157 195 197 148
5 157 132 95 197 192
5 192 197 94 191 146
5 131 132 195 192 146
5 132 95 94 191 131
5 95 195 192 148 94
5 59 105 115 173 56
5 130 173 56 125 62
5 105 199 56 125 65
5 62 128 105 59 125
5 59 125 57 173 199
5 130 57 125 65 128
5 173 130 128 105 199
5 11 197 167 6 109
5 6 109 10 88 139
5 10 109 7 197 183
5 197 167 139 88 183
5 168 167 7 11 183
5 88 183 11 109 9
5 7 167 139 9 109
5 19 210 158 120 18
5 134 18 156 210 23
5 120 73 22 134 18
5 23 210 158 73 22
5 19 134 22 184 210
5 210 184 73 120 156
5 158 156 19 23 184
5 23 184 73 21 134
5 19 134 21 120 156
5 71 56 165 171 115
5 112 56 71 117 82
5 81 112 56 164 171
5 117 82 81 171 115
5 81 165 164 115 85
5 81 85 117 69 112
5 71 164 165 112 69
5 171 85 82 112 165
5 71 164 171 85 117
5 23 211 169 74 22
5 80 14 22 184 211
5 68 22 184 169 30
5 80 31 169 184 23
5 80 31 30 68 14
5 80 25 30 169 211
5 30 31 211 184 74
5 31 211 23 14 25
5 23 184 74 68 14
5 25 68 74 169 31
5 170 63 22 143 213
5 22 100 101 213 151
5 67 170 151 22 60
5 101 143 22 60 30
5 170 67 30 101 213
5 100 143 213 153 30
5 63 170 153 30 60
5 153 101 143 151 170
5 63 67 153 213 151
5 67 153 101 100 60
5 100 60 63 151 143
5 41 22 127 213 210
5 39 22 151 210 45
5 101 127 22 39 80
5 80 101 213 210 45
5 208 210 41 39 80
5 208 210 151 127 101
5 100 127 213 208 80
5 45 41 151 213 208
5 100 39 45 208 101
5 41 151 127 100 39
5 20 210 211 188 22
5 22 73 170 169 188
5 23 210 214 169 188
5 170 169 211 210 158
5 20 210 214 170 73
5 74 188 211 214 170
5 158 20 23 211 214
5 20 73 74 188 23
5 74 73 158 214 169
5 28 24 187 56 112
5 77 30 68 187 24
5 28 77 30 70 112
5 77 33 70 68 25
5 77 28 165 187 25
5 112 70 68 187 165
5 170 73 62 204 159
5 166 204 62 120 157
5 170 158 157 166 159
5 120 157 205 170 73
5 72 170 205 166 204
5 120 119 166 205 158
5 73 120 119 204 72
5 159 72 73 158 205
5 115 85 3 0 189
5 109 6 118 189 0
5 9 109 0 171 85
5 9 116 115 171 3
5 6 109 3 85 116
5 3 109 1 189 171
5 1 118 116 9 109
5 118 116 85 171 189
5 142 18 150 210 45
5 18 132 95 44 142
5 207 210 41 142 44
5 132 150 210 207 95
5 45 207 195 150 41
5 42 142 45 207 95
5 41 150 132 42 142
5 67 170 149 62 125
5 145 107 66 125 62
5 152 170 63 125 66
5 170 149 145 107 152
5 63 67 152 175 149
5 67 125 65 107 152
5 145 149 63 125 65
5 0 177 199 115 93
5 0 123 103 129 93
5 123 81 199 182 0
5 81 105 115 182 177
5 81 105 129 91 123
5 93 115 105 103 91
5 103 123 177 199 105
5 91 93 182 177 123
5 93 129 105 199 182
5 90 202 12 142 44
5 44 142 39 80 203
5 97 202 90 203 80
5 45 203 47 97 39
5 142 36 90 203 45
5 142 39 97 202 36
5 102 179 56 125 66
5 66 174 30 60 125
5 179 98 30 174 102
5 48 174 67 60 98
5 125 59 102 174 67
5 59 179 98 60 125
5 86 128 144 6 191
5 178 105 86 191 91
5 6 93 178 103 191
5 105 128 131 191 103
5 91 191 131 144 93
5 128 144 93 178 105
5 76 110 12 187 24
5 14 187 24 29 80
5 76 29 80 16 110
5 14 25 29 78 16
5 76 29 25 187 163
5 14 187 163 110 16
5 20 210 193 190 18
5 18 120 157 167 190
5 167 157 158 210 193
5 206 210 20 120 157
5 210 206 167 190 19
5 121 167 206 158 120
5 20 120 121 190 19
5 19 20 158 206 193
5 5 3 81 201 115
5 86 113 81 201 117
5 113 9 5 171 81
5 116 5 3 113 86
5 82 113 3 171 201
5 113 9 116 117 82
5 117 201 171 5 116
5 157 168 200 214 158
5 155 170 214 206 157
5 166 157 206 200 160
5 161 160 168 206 214
5 161 170 155 166 160
5 160 200 214 170 159
5 158 170 161 200 206
5 161 214 158 155 159
5 166 155 158 206 168
5 161 200 168 166 159
5 147 157 181 212 197
5 195 157 175 176 212
5 181 176 160 146 157
5 160 176 212 197 148
5 196 197 147 146 160
5 197 196 176 181 195
5 160 196 212 181 175
5 195 147 148 196 212
5 176 196 148 146 175
5 147 146 175 181 195
5 156 157 205 214 210
5 167 197 200 205 157
5 168 197 209 214 205
5 197 200 214 210 193
5 209 197 167 156 210
5 209 210 158 205 200
5 156 193 209 214 158
5 168 205 158 156 167
5 193 167 168 200 209
5 157 150 210 212 192
5 157 192 176 170 149
5 170 151 210 212 176
5 213 170 149 150 210
5 213 210 195 192 176
5 170 175 192 212 213
5 151 213 212 195 150
5 149 175 176 213 151
5 175 149 150 195 192
5 190 44 16 134 18
5 135 210 156 190 44
5 16 135 210 20 134
5 23 135 193 156 20
5 13 190 193 135 16
5 134 20 156 190 13
5 136 70 66 204 62
5 155 170 137 66 204
5 170 73 136 70 137
5 73 74 137 159 155
5 159 137 70 69 204
5 73 136 69 204 155
5 189 164 165 185 0
5 81 85 5 0 185
5 81 201 164 163 185
5 165 163 189 115 201
5 85 201 165 185 3
5 5 3 185 163 189
5 164 189 5 85 201
5 10 191 86 122 104
5 10 191 146 160 124
5 122 107 160 124 104
5 148 124 108 107 146
5 148 191 103 104 124
5 103 191 146 107 122
5 180 22 60 125 62
5 149 170 127 22 180
5 60 127 170 64 125
5 151 127 67 64 149
5 57 180 151 127 60
5 149 180 57 125 64
5 0 178 199 172 202
5 0 202 12 40 93
5 199 173 12 202 177
5 178 115 173 172 177
5 172 202 36 40 173
5 177 202 36 93 178
5 199 173 40 93 178
5 44 190 6 109 4
5 167 190 44 111 197
5 109 8 197 111 4
5 11 8 167 193 111
5 1 190 193 111 4
5 167 190 1 109 8
5 113 84 66 204 86
5 66 204 166 160 114
5 160 114 84 113 88
5 114 89 88 166 159
5 82 204 159 114 84
5 88 113 82 204 166
5 12 187 165 171 189
5 56 71 17 12 187
5 171 201 56 187 163
5 15 71 201 165 187
5 15 17 189 163 187
5 17 189 171 201 71
5 140 92 10 191 6
5 147 191 10 141 197
5 140 95 197 141 92
5 96 141 148 147 95
5 191 91 92 141 148
5 147 191 91 140 95
5 39 142 18 180 22
5 143 210 150 180 22
5 210 43 142 39 143
5 150 43 45 143 151
5 151 143 39 38 180
5 142 43 150 180 38
5 105 61 56 179 81
5 173 56 179 177 182
5 81 179 172 182 178
5 61 173 172 179 59
5 178 105 59 179 177
5 105 178 182 173 61
5 162 215 214 205 160
5 32 215 200 160 114
5 205 170 137 114 160
5 170 137 32 215 214
5 162 215 169 137 114
5 170 169 215 200 205
5 32 162 200 214 169
5 137 169 214 205 159
5 159 205 200 162 114
5 153 152 160 196 215
5 124 160 176 215 54
5 152 174 34 124 160
5 34 55 215 196 124
5 215 176 152 174 55
5 153 174 34 54 215
5 55 174 108 124 54
5 196 124 108 152 176
5 55 153 176 196 54
5 197 207 208 215 196
5 141 197 212 215 54
5 141 197 207 203 51
5 51 141 196 215 52
5 54 215 208 203 51
5 215 212 207 203 52
5 96 203 52 54 141
5 196 141 96 207 212
5 52 208 212 196 54
5 66 204 117 201 112
5 87 84 112 69 204
5 113 85 117 204 87
5 201 112 84 113 85
5 170 205 206 210 184
5 20 184 214 206 156
5 73 155 205 214 184
5 156 120 155 205 206
5 118 190 44 110 189
5 13 110 4 7 190
5 7 190 118 5 109
5 110 189 5 109 4
5 197 206 214 215 194
5 79 215 200 197 111
5 210 206 197 111 135
5 211 215 200 206 210
5 214 215 79 135 210
5 211 215 194 111 135
5 193 206 214 211 135
5 206 200 194 111 193
5 79 194 200 214 211
5 122 105 61 125 66
5 59 122 107 64 125
5 145 128 61 125 64
5 128 145 107 122 105
5 34 99 51 141 124
5 92 141 54 99 46
5 124 104 49 99 54
5 92 123 104 124 141
5 93 140 44 142 40
5 95 140 36 142 43
5 43 142 40 144 132
5 144 132 95 140 93
5 176 181 210 208 215
5 143 210 212 215 101
5 170 127 143 210 181
5 153 215 208 143 127
5 153 170 181 212 215
5 127 170 176 215 101
5 153 127 151 181 176
5 181 212 208 143 151
5 176 212 208 101 153
5 184 210 209 215 169
5 184 188 80 135 210
5 31 215 209 135 80
5 188 80 79 215 169
5 31 215 214 184 188
5 135 79 31 188 23
5 23 135 209 214 184
5 169 31 79 209 214
5 197 183 162 215 209
5 51 186 183 197 111
5 51 111 209 215 35
5 51 186 162 215 79
5 35 215 200 183 186
5 11 186 35 79 111
5 111 11 183 200 209
5 162 35 79 209 200
5 173 126 22 180 130
5 41 180 57 126 39
5 41 180 130 40 142
5 173 126 39 142 40
5 192 181 170 152 160
5 64 149 181 176 152
5 107 152 176 192 146
5 145 149 181 192 146
5 123 178 129 191 10
5 123 92 94 191 103
5 93 140 94 191 129
5 92 123 178 93 140
5 176 192 197 198 215
5 192 160 124 141 197
5 192 160 154 215 212
5 124 154 215 198 141
5 154 124 148 192 176
5 198 141 148 192 212
5 54 154 176 212 198
5 71 136 22 134 17
5 15 134 20 73 136
5 20 134 17 138 120
5 120 138 71 136 73
5 51 29 80 135 111
5 79 29 75 16 135
5 4 111 79 29 76
5 4 110 16 135 111
5 5 109 10 113 85
5 88 113 3 109 8
5 8 139 116 5 109
5 88 139 116 85 113
5 51 29 31 215 194
5 34 77 29 51 186
5 77 34 162 215 31
5 34 32 215 194 186
5 215 32 77 29 79
5 32 31 79 194 162
5 26 77 32 162 186
5 186 26 29 79 194
5 55 215 198 51 99
5 203 80 50 99 51
5 50 80 208 215 55
5 101 215 198 203 80
5 54 99 50 101 215
5 198 54 55 101 208
5 47 203 208 101 50
5 99 54 198 203 47
5 210 207 197 192 181
5 213 215 198 207 210
5 181 213 215 196 192
5 207 195 181 213 208
5 195 207 198 196 192
5 198 196 176 213 208
5 171 185 24 187 164
5 76 185 165 187 75
5 75 187 164 189 110
5 76 185 171 189 110
5 114 160 183 186 34
5 87 88 183 162 114
5 84 83 186 162 114
5 183 186 83 113 88
5 138 120 157 139 116
5 120 156 167 139 119
5 156 190 118 138 120
5 167 139 116 118 190
5 183 197 206 205 160
5 183 160 161 215 194
5 215 209 206 205 161
5 161 205 168 183 162
5 168 183 194 209 206
5 161 162 194 209 214
5 199 179 24 202 182
5 172 202 46 49 179
5 182 202 46 123 178
5 49 179 199 178 123
5 210 143 80 203 207
5 207 43 41 143 208
5 39 143 208 203 37
5 37 142 43 207 203
5 157 132 144 128 145
5 132 147 146 145 133
5 129 191 147 132 144
5 128 145 146 191 129
5 211 184 170 161 215
5 158 184 169 161 205
5 158 206 209 211 184
5 169 211 209 200 161
5 170 137 30 188 184
5 72 73 184 169 137
5 70 137 169 188 68
5 68 136 73 184 188
5 131 132 150 149 145
5 150 180 130 144 132
5 149 145 128 130 180
5 94 141 198 207 95
5 198 141 92 90 203
5 90 203 207 95 140
5 177 202 97 98 179
5 126 173 182 202 97
5 126 173 199 179 98
5 80 29 35 215 211
5 188 30 77 29 80
5 32 30 188 211 215
5 169 30 77 35 215
5 79 35 32 169 211
5 77 32 169 188 25
5 25 188 211 79 29
5 30 127 213 215 55
5 30 174 154 215 101
5 170 127 30 174 152
5 154 152 170 213 215
5 55 174 67 127 101
5 67 152 176 213 127
5 55 154 176 213 101
5 137 30 31 215 161
5 114 137 30 77 34
5 34 114 161 215 35
5 161 162 35 31 169
5 77 33 137 169 31
5 77 33 114 162 35
5 122 65 125 58 102
5 58 125 61 199 179
5 105 122 102 179 199
5 127 213 181 149 63
5 143 127 63 180 41
5 143 41 150 181 213
5 142 42 140 90 37
5 40 142 37 202 182
5 90 202 182 93 140
5 35 31 211 209 194
5 29 78 135 211 31
5 111 194 35 29 78
5 82 204 72 70 112
5 136 71 117 204 72
5 70 112 201 71 136
5 28 77 35 186 83
5 29 76 2 186 35
5 28 185 76 29 77
5 16 110 1 190 19
5 134 17 118 190 19
5 16 134 17 189 110
5 52 215 213 143 80
5 45 143 101 52 203
5 45 143 213 212 207
5 52 101 213 212 198
5 154 215 52 99 34
5 55 154 196 198 52
5 53 99 55 154 124
5 52 198 141 53 99
5 50 99 34 174 30
5 50 98 58 174 55
5 49 99 55 174 102
5 50 99 49 179 98
5 109 9 113 83 2
5 171 185 2 109 5
5 85 113 83 185 171
5 167 7 111 209 206
5 7 190 19 135 111
5 135 19 156 206 209
5 136 21 134 14 68
5 14 134 17 164 187
5 71 136 68 187 164
5 30 50 80 143 127
5 52 215 153 30 50
5 153 55 52 208 213
5 127 153 55 50 100
5 50 100 143 208 52
5 106 146 192 196 124
5 124 141 94 191 106
5 94 147 192 196 141
5 68 27 77 31 188
5 14 188 31 29 75
5 27 77 29 75 187
5 8 183 200 206 167
5 166 88 183 200 205
5 166 205 206 167 139
5 97 50 101 143 39
5 98 50 101 127 60
5 60 126 39 143 127
5 154 153 213 212 196
5 175 152 153 213 181
5 175 152 154 196 192
5 64 152 153 127 63
5 60 127 153 174 58
5 58 174 152 64 125
5 139 121 120 155 166
5 155 120 138 117 204
5 166 204 117 116 139
5 8 7 111 194 183
5 2 4 111 194 186
5 183 186 2 109 8
5 27 187 163 185 28
5 112 201 164 187 27
5 28 185 171 201 112
5 54 154 153 101 52
5 153 101 50 48 174
5 154 174 48 99 54
5 106 124 154 152 107
5 174 102 104 124 154
5 102 174 152 107 122
5 184 20 19 135 211
5 14 188 211 135 16
5 20 134 14 188 184
5 137 32 31 188 74
5 161 137 74 184 214
5 211 31 32 161 214
5 87 166 205 161 114
5 137 114 87 204 72
5 72 155 205 161 137
5 60 126 38 180 63
5 130 180 63 125 61
5 173 126 60 125 61
5 52 203 37 97 50
5 90 46 99 52 203
5 50 99 46 202 97
5 106 191 91 123 104
5 122 105 129 191 106
5 178 123 104 122 105
5 32 114 89 186 35
5 114 161 200 183 89
5 35 32 161 200 194
5 95 147 192 212 207
5 192 181 150 132 147
5 150 181 212 207 43
5 137 70 27 77 32
5 28 84 114 32 77
5 84 114 137 70 112

# Cells
12 0 1 2 3 4 5 6 7 8 9 10 11
12 12 13 14 15 16 17 18 19 20 21 22 23
12 24 25 26 27 28 29 30 31 32 33 34 35
12 36 37 38 39 40 41 42 43 44 45 46 47
12 48 49 50 51 52 53 54 55 56 57 58 59
12 60 61 62 63 64 65 66 67 68 69 70 71
12 72 73 74 75 76 77 78 79 80 81 82 83
12 24 84 85 86 87 88 89 90 91 92 93 94
12 95 96 97 98 99 100 101 102 103 104 105 106
12 107 108 109 110 111 112 113 114 115 116 117 118
12 50 119 120 121 122 123 124 125 126 127 128 129
12 130 131 132 133 134 135 136 137 138 139 140 141
12 0 142 143 144 145 146 147 148 149 150 151 152
12 95 153 154 155 156 157 158 159 160 161 162 163
12 164 165 166 167 168 169 170 171 172 173 174 175
12 132 176 177 178 179 180 181 182 183 184 185 186
12 60 187 188 189 190 191 192 193 194 195 196 197
12 198 199 200 201 202 203 204 205 206 207 208 209
12 12 210 211 212 213 214 215 216 217 218 219 220
12 74 221 222 223 224 225 226 227 228 229 230 231
12 167 232 233 234 235 236 237 238 239 240 241 242
12 109 243 244 245 246 247 248 249 250 251 252 253
12 38 254 255 256 257 258 259 260 261 262 263 264
12 202 265 266 267 268 269 270 271 272 273 274 275
12 276 277 278 279 280 281 282 283 284 285 286 287
12 288 289 290 291 292 293 294 295 296 297 298 299
12 300 301 302 303 304 305 306 307 308 309 310 311
12 169 312 313 314 315 316 317 318 319 320 321 322
12 157 323 324 325 326 327 328 329 330 331 332 333
12 334 335 336 337 338 339 340 341 342 343 344 345
12 236 346 347 348 349 350 351 352 353 354 355 356
12 225 324 357 358 359 360 361 362 363 364 365 366
12 367 368 369 370 371 372 373 374 375 376 377 378
12 187 254 379 380 381 382 383 384 385 386 387 388
12 300 389 390 391 392 393 394 395 396 397 398 399
12 176 243 400 401 402 403 404 405 406 407 408 409
12 119 188 383 410 411 412 413 414 415 416 417 418
12 288 419 420 421 422 423 424 425 426 427 428 429
12 107 199 430 431 432 433 434 435 436 437 438 439
12 100 348 440 441 442 443 444 445 446 447 448 449
12 77 313 450 451 452 453 454 455 456 457 458 459
12 460 461 462 463 464 465 466 467 468 469 470 471
12 98 155 375 472 473 474 475 476 477 478 479 480
12 73 222 342 481 482 483 484 485 486 487 488 489
12 166 234 468 490 491 492 493 494 495 496 497 498
12 48 178 404 499 500 501 502 503 504 505 506 507
12 276 508 509 510 511 512 513 514 515 516 517 518
12 36 201 435 519 520 521 522 523 524 525 526 527
12 492 528 529 530 531 532 533 534 535 536 537 538
12 474 539 540 541 542 543 544 545 546 547 548 549
12 550 551 552 553 554 555 556 557 558 559 560 561
12 203 562 563 564 565 566 567 568 569 570 571 572
12 180 573 574 575 576 577 578 579 580 581 582 583
12 584 585 586 587 588 589 590 591 592 593 594 595
12 269 419 508 596 597 598 599 600 601 602 603 604
12 247 574 605 606 607 608 609 610 611 612 613 614
12 411 500 615 616 617 618 619 620 621 622 623 624
12 142 210 460 625 626 627 628 629 630 631 632 633
12 443 539 634 635 636 637 638 639 640 641 642 643
12 153 221 644 645 646 647 648 649 650 651 652 653
12 108 244 584 654 655 656 657 658 659 660 661 662
12 131 177 302 503 621 663 664 665 666 667 668 669
12 198 266 289 523 670 671 672 673 674 675 676 677
12 26 154 372 472 648 678 679 680 681 682 683 684
12 346 440 550 685 686 687 688 689 690 691 692 693
12 13 165 465 490 694 695 696 697 698 699 700 701
12 85 143 367 626 702 703 704 705 706 707 708 709
12 350 528 710 711 712 713 714 715 716 717 718 719
12 72 168 697 720 721 722 723 724 725 726 727 728
12 112 563 729 730 731 732 733 734 735 736 737 738
12 135 390 509 596 739 740 741 742 743 744 745 746
12 380 520 670 747 748 749 750 751 752 753 754 755
12 656 756 757 758 759 760 761 762 763 764 765 766
12 146 767 768 769 770 771 772 773 774 775 776 777
12 214 768 778 779 780 781 782 783 784 785 786 787
12 732 756 788 789 790 791 792 793 794 795 796 797
12 3 144 369 475 540 702 798 799 800 801 802 803
12 15 212 336 484 804 805 806 807 808 809 810 811
12 164 232 551 724 812 813 814 815 816 817 818 819
12 121 256 381 412 591 820 821 822 823 824 825 826
12 293 423 566 827 828 829 830 831 832 833 834 835
12 130 265 836 837 838 839 840 841 842 843 844 845
12 51 245 402 501 587 654 846 847 848 849 850 851
12 281 512 562 729 852 853 854 855 856 857 858 859
12 61 267 671 750 841 860 861 862 863 864 865 866
12 5 351 444 634 710 867 868 869 870 871 872 873
12 17 317 454 874 875 876 877 878 879 880 881 882
12 645 721 813 883 884 885 886 887 888 889 890 891
12 483 806 892 893 894 895 896 897 898 899 900 901
12 191 902 903 904 905 906 907 908 909 910 911 912
12 258 903 913 914 915 916 917 918 919 920 921 922
12 453 877 892 923 924 925 926 927 928 929 930 931
12 25 223 339 481 646 679 932 933 934 935 936 937
12 312 450 555 687 938 939 940 941 942 943 944 945
12 1 233 461 491 946 947 948 949 950 951 952 953
12 41 567 733 788 827 954 955 956 957 958 959 960
12 65 389 420 599 741 961 962 963 964 965 966 967
12 401 431 837 968 969 970 971 972 973 974 975 976
12 37 255 589 657 757 820 977 978 979 980 981 982
12 63 189 301 414 619 664 983 984 985 986 987 988
12 200 268 277 434 840 973 989 990 991 992 993 994
12 84 211 334 628 704 804 995 996 997 998 999 1000
12 316 532 713 874 1001 1002 1003 1004 1005 1006 1007 1008
12 96 235 812 886 949 1009 1010 1011 1012 1013 1014 1015
12 688 940 1016 1017 1018 1019 1020 1021 1022 1023 1024 1025
12 513 854 1026 1027 1028 1029 1030 1031 1032 1033 1034 1035
12 714 1003 1016 1036 1037 1038 1039 1040 1041 1042 1043 1044
12 424 830 1027 1045 1046 1047 1048 1049 1050 1051 1052 1053
12 18 215 534 779 875 1001 1054 1055 1056 1057 1058 1059
12 78 226 358 451 557 938 1060 1061 1062 1063 1064 1065
12 370 462 887 946 1009 1066 1067 1068 1069 1070 1071 1072
12 136 181 279 510 575 739 1073 1074 1075 1076 1077 1078
12 66 192 291 421 904 961 1079 1080 1081 1082 1083 1084
12 430 519 585 747 968 1085 1086 1087 1088 1089 1090 1091
12 6 147 530 711 769 867 1092 1093 1094 1095 1096 1097
12 101 158 325 441 553 685 1098 1099 1100 1101 1102 1103
12 337 466 694 720 883 1069 1104 1105 1106 1107 1108 1109
12 113 248 283 606 730 852 1110 1111 1112 1113 1114 1115
12 42 259 295 828 914 954 1116 1117 1118 1119 1120 1121
12 620 751 836 860 971 1088 1122 1123 1124 1125 1126 1127
12 329 363 1021 1128 1129 1130 1131 1132 1133 1134 1135 1136
12 308 393 577 1137 1138 1139 1140 1141 1142 1143 1144 1145
12 608 760 791 1146 1147 1148 1149 1150 1151 1152 1153 1154
12 99 156 552 649 814 888 1010 1098 1155 1156 1157 1158
12 319 456 879 927 941 1004 1017 1036 1159 1160 1161 1162
12 4 145 464 494 529 627 947 1092 1163 1164 1165 1166
12 773 783 1039 1167 1168 1169 1170 1171 1172 1173 1174 1175
12 67 137 270 598 740 842 863 962 1176 1177 1178 1179
12 54 182 249 406 504 576 607 848 1180 1181 1182 1183
12 43 114 204 436 524 565 731 955 1184 1185 1186 1187
12 909 918 1047 1188 1189 1190 1191 1192 1193 1194 1195 1196
12 781 895 925 1171 1197 1198 1199 1200 1201 1202 1203 1204
12 543 637 771 1168 1205 1206 1207 1208 1209 1210 1211 1212
12 40 257 294 382 521 674 748 1116 1213 1214 1215 1216
12 395 425 514 601 743 964 1028 1046 1217 1218 1219 1220
12 111 246 282 403 432 969 991 1110 1221 1222 1223 1224
12 579 610 1029 1138 1147 1225 1226 1227 1228 1229 1230 1231
12 19 79 170 315 452 698 725 876 1232 1233 1234 1235
12 90 148 216 630 706 770 780 997 1236 1237 1238 1239
12 7 102 237 347 442 868 950 1012 1240 1241 1242 1243
12 32 89 545 1208 1244 1245 1246 1247 1248 1249 1250 1251
12 55 125 762 1150 1252 1253 1254 1255 1256 1257 1258 1259
12 792 1031 1049 1146 1188 1225 1260 1261 1262 1263 1264 1265
12 338 371 463 625 703 995 1066 1104 1266 1267 1268 1269
12 103 160 328 445 476 542 636 1100 1270 1271 1272 1273
12 172 239 318 352 493 531 712 1002 1274 1275 1276 1277
12 638 1019 1038 1128 1167 1205 1278 1279 1280 1281 1282 1283
12 400 499 586 616 846 970 1085 1124 1284 1285 1286 1287
12 44 261 758 789 917 956 978 1118 1288 1289 1290 1291
12 205 271 280 511 564 597 853 989 1292 1293 1294 1295
12 926 1022 1041 1133 1159 1170 1197 1280 1296 1297 1298 1299
12 80 228 362 455 485 894 924 1062 1300 1301 1302 1303
12 206 272 292 422 568 600 673 829 1292 1304 1305 1306
12 115 250 609 658 734 759 790 1112 1148 1307 1308 1309
12 379 410 590 617 749 821 1087 1123 1284 1310 1311 1312
12 30 91 897 1200 1248 1313 1314 1315 1316 1317 1318 1319
12 305 396 906 1141 1193 1320 1321 1322 1323 1324 1325 1326
12 29 330 361 1132 1246 1316 1327 1328 1329 1330 1331 1332
12 62 133 618 663 839 862 983 1122 1176 1333 1334 1335
12 296 426 832 902 913 1048 1080 1117 1190 1336 1337 1338
12 39 110 433 522 588 655 977 1086 1184 1339 1340 1341
12 88 774 784 1172 1199 1207 1236 1244 1313 1342 1343 1344
12 76 224 556 647 722 816 884 1060 1155 1345 1346 1347
12 28 87 373 477 544 680 705 800 1245 1348 1349 1350
12 16 213 467 495 533 629 695 1054 1163 1351 1352 1353
12 763 794 916 1151 1189 1255 1261 1288 1354 1355 1356 1357
12 53 580 611 1140 1149 1180 1228 1252 1358 1359 1360 1361
12 52 122 306 413 502 615 666 985 1362 1363 1364 1365
12 2 97 368 473 798 948 1011 1067 1240 1366 1367 1368
12 535 716 767 778 1005 1040 1055 1093 1169 1369 1370 1371
12 14 75 335 482 696 723 805 1105 1232 1372 1373 1374
12 123 907 919 1191 1254 1320 1354 1375 1376 1377 1378 1379
12 284 515 573 605 856 1030 1074 1111 1226 1380 1381 1382
12 27 86 340 486 808 896 933 996 1314 1383 1384 1385
12 353 446 639 689 715 870 1018 1037 1278 1386 1387 1388
12 124 193 260 385 415 823 905 915 1375 1389 1390 1391
12 394 1032 1050 1137 1192 1217 1227 1262 1323 1392 1393 1394
12 68 194 303 391 908 963 984 1081 1322 1395 1396 1397
12 171 238 314 349 554 686 815 939 1274 1398 1399 1400
12 8 149 541 635 772 799 869 1094 1206 1401 1402 1403
12 341 374 644 678 885 932 1068 1106 1266 1404 1405 1406
12 56 126 307 1142 1256 1321 1358 1362 1376 1407 1408 1409
12 138 183 304 392 578 665 742 1075 1139 1410 1411 1412
12 20 217 782 807 878 893 923 1056 1198 1413 1414 1415
12 360 898 928 1131 1201 1296 1300 1315 1327 1416 1417 1418
12 323 357 558 690 942 1020 1061 1099 1130 1419 1420 1421
12 64 190 290 384 672 752 861 1079 1213 1422 1423 1424
12 49 120 592 659 761 822 847 979 1253 1425 1426 1427
12 134 179 278 405 838 972 990 1073 1221 1428 1429 1430
12 327 546 640 1129 1209 1247 1270 1279 1329 1431 1432 1433
12 569 735 793 831 855 957 1026 1045 1260 1434 1435 1436
12 31 159 227 326 359 650 681 934 1328 1437 1438 1439
24 320 354 427 516 570 602 691 719 833 857 943 1006 1024 1035 1043 1053 1162 1220 1275 1293 1304 1388 1398 1435
24 364 397 429 457 910 931 945 965 1023 1052 1063 1082 1135 1161 1194 1218 1297 1301 1325 1336 1393 1395 1417 1421
24 331 399 447 518 581 643 693 744 1025 1034 1076 1101 1136 1144 1219 1229 1271 1281 1380 1387 1394 1410 1419 1432
24 612 641 717 736 775 797 859 871 1033 1044 1095 1113 1153 1174 1211 1230 1264 1282 1307 1369 1382 1386 1401 1434
24 785 795 835 880 920 929 958 1008 1042 1051 1057 1119 1160 1173 1195 1203 1263 1289 1298 1338 1356 1371 1413 1436
24 1134 1145 1154 1175 1196 1204 1212 1231 1249 1257 1265 1283 1299 1317 1326 1330 1342 1357 1359 1377 1392 1407 1418 1433
24 45 116 151 219 536 631 661 737 765 777 787 796 959 981 1058 1096 1164 1185 1239 1291 1309 1339 1351 1370
24 92 128 218 262 764 786 809 824 899 921 980 998 1202 1237 1258 1290 1319 1343 1355 1379 1384 1389 1414 1425
24 58 93 150 251 547 613 660 707 766 776 801 849 1152 1181 1210 1238 1251 1259 1308 1344 1349 1361 1402 1426
24 21 81 196 263 299 386 458 488 810 881 900 912 922 930 1083 1120 1214 1233 1303 1337 1372 1391 1415 1422
24 33 127 195 229 309 365 416 487 901 911 935 986 1302 1318 1324 1331 1363 1378 1383 1390 1396 1408 1416 1437
24 69 139 162 230 310 333 366 398 561 651 668 745 966 987 1064 1102 1156 1177 1333 1345 1397 1412 1420 1439
24 34 57 161 184 311 332 478 505 549 582 667 682 1143 1182 1250 1272 1332 1348 1360 1364 1409 1411 1431 1438
24 9 104 185 252 287 407 448 479 548 583 614 642 802 872 1077 1114 1183 1222 1241 1273 1366 1381 1403 1428
24 35 59 94 129 343 376 417 506 595 622 683 708 825 850 936 999 1267 1285 1310 1350 1365 1385 1404 1427
24 71 83 197 231 345 388 418 489 623 652 727 753 864 889 937 988 1107 1125 1312 1334 1347 1374 1405 1424
24 23 47 220 264 344 387 469 526 593 632 699 754 811 826 982 1000 1089 1108 1216 1268 1311 1340 1353 1373
24 106 141 163 186 378 409 480 507 624 653 669 684 844 890 974 1013 1070 1126 1158 1287 1335 1368 1406 1430
24 70 82 173 273 298 321 428 459 559 603 675 726 817 865 944 967 1065 1084 1178 1235 1306 1346 1399 1423
24 105 140 240 274 286 355 449 517 560 604 692 746 818 843 992 1014 1078 1103 1157 1179 1243 1295 1400 1429
24 10 117 208 241 285 356 437 497 537 572 718 738 858 873 952 993 1097 1115 1165 1187 1223 1242 1277 1294
24 175 209 242 275 439 471 498 527 677 701 728 755 819 845 866 891 953 976 994 1015 1072 1091 1109 1127
24 22 46 174 207 297 322 496 525 538 571 676 700 834 882 960 1007 1059 1121 1186 1215 1234 1276 1305 1352
24 11 118 152 253 377 408 438 470 594 633 662 709 803 851 951 975 1071 1090 1166 1224 1269 1286 1341 1367
