# Generated using Miratope v0.5.0 (https://github.com/galoomba1/miratope-rs)
4OFF

# Vertices, Faces, Edges, Cells
120 720 1200 120

# Vertices
0.809016994374945 0.809016994374945 0.809016994374945 0.809016994374945 
0.809016994374945 0.809016994374945 0.809016994374945 -0.809016994374945 
1.61803398874989 0 0 0 
1.30901699437495 0.809016994374945 -0.5 0 
1.30901699437495 0 0.809016994374945 -0.5 
0.809016994374945 1.30901699437495 0 -0.5 
1.30901699437495 0 0.809016994374945 0.5 
0.809016994374945 1.30901699437495 0 0.5 
0.809016994374945 0.5 1.30901699437495 0 
1.30901699437495 0.5 0 0.809016994374945 
0.5 1.30901699437495 0.809016994374945 0 
1.30901699437495 0.5 0 -0.809016994374945 
0.809016994374945 -0.809016994374945 0.809016994374945 0.809016994374945 
0.809016994374945 -0.809016994374945 -0.809016994374945 0.809016994374945 
0.809016994374945 0 -0.5 1.30901699437495 
1.30901699437495 -0.809016994374945 -0.5 0 
0.809016994374945 0 0.5 1.30901699437495 
1.30901699437495 -0.809016994374945 0.5 0 
0.809016994374945 -1.30901699437495 0 0.5 
0.5 -0.809016994374945 0 1.30901699437495 
1.30901699437495 0 -0.809016994374945 0.5 
0.809016994374945 -0.809016994374945 0.809016994374945 -0.809016994374945 
0 0 1.61803398874989 0 
0 -0.809016994374945 1.30901699437495 -0.5 
0 -0.809016994374945 1.30901699437495 0.5 
0.5 -1.30901699437495 0.809016994374945 0 
0.5 0 1.30901699437495 -0.809016994374945 
0.5 0 1.30901699437495 0.809016994374945 
-0.809016994374945 0.809016994374945 0.809016994374945 0.809016994374945 
-0.5 1.30901699437495 0.809016994374945 0 
-0.5 0 1.30901699437495 0.809016994374945 
0 0.809016994374945 1.30901699437495 -0.5 
0 0.5 0.809016994374945 1.30901699437495 
0 1.30901699437495 0.5 0.809016994374945 
-0.809016994374945 0.5 1.30901699437495 0 
-0.809016994374945 -0.809016994374945 0.809016994374945 0.809016994374945 
0 0 0 1.61803398874989 
-0.5 -0.809016994374945 0 1.30901699437495 
0 -1.30901699437495 0.5 0.809016994374945 
-0.809016994374945 0 0.5 1.30901699437495 
0.809016994374945 0.809016994374945 -0.809016994374945 0.809016994374945 
-0.5 0.809016994374945 0 1.30901699437495 
0 1.30901699437495 -0.5 0.809016994374945 
0 0.5 -0.809016994374945 1.30901699437495 
0 1.61803398874989 0 0 
0.5 0.809016994374945 0 1.30901699437495 
0 0.809016994374945 1.30901699437495 0.5 
-0.809016994374945 1.30901699437495 0 0.5 
0 -0.5 -0.809016994374945 1.30901699437495 
0 -0.5 0.809016994374945 1.30901699437495 
-0.809016994374945 0 -0.5 1.30901699437495 
-0.809016994374945 -0.5 1.30901699437495 0 
-1.30901699437495 0 0.809016994374945 0.5 
1.30901699437495 -0.5 0 0.809016994374945 
1.30901699437495 0.809016994374945 0.5 0 
0.809016994374945 -0.5 1.30901699437495 0 
0 1.30901699437495 0.5 -0.809016994374945 
-0.5 0 1.30901699437495 -0.809016994374945 
-1.30901699437495 0.809016994374945 0.5 0 
-1.30901699437495 0.5 0 0.809016994374945 
0.5 1.30901699437495 -0.809016994374945 0 
0.5 0 -1.30901699437495 0.809016994374945 
1.30901699437495 -0.5 0 -0.809016994374945 
1.30901699437495 0 -0.809016994374945 -0.5 
-0.809016994374945 0.809016994374945 0.809016994374945 -0.809016994374945 
-1.61803398874989 0 0 0 
-0.809016994374945 1.30901699437495 0 -0.5 
-1.30901699437495 0.809016994374945 -0.5 0 
-1.30901699437495 0 0.809016994374945 -0.5 
-1.30901699437495 0.5 0 -0.809016994374945 
-0.809016994374945 -0.809016994374945 0.809016994374945 -0.809016994374945 
-0.809016994374945 -0.809016994374945 -0.809016994374945 -0.809016994374945 
-1.30901699437495 -0.809016994374945 -0.5 0 
-0.809016994374945 0 -0.5 -1.30901699437495 
-1.30901699437495 -0.809016994374945 0.5 0 
-0.809016994374945 0 0.5 -1.30901699437495 
-0.809016994374945 -1.30901699437495 0 -0.5 
-1.30901699437495 0 -0.809016994374945 -0.5 
-0.5 -0.809016994374945 0 -1.30901699437495 
-0.5 -1.30901699437495 0.809016994374945 0 
0 0.5 0.809016994374945 -1.30901699437495 
0 0 0 -1.61803398874989 
0.5 -0.809016994374945 0 -1.30901699437495 
0 -1.30901699437495 0.5 -0.809016994374945 
0.809016994374945 0 0.5 -1.30901699437495 
-0.809016994374945 0.809016994374945 -0.809016994374945 -0.809016994374945 
0 1.30901699437495 -0.5 -0.809016994374945 
0.5 0.809016994374945 0 -1.30901699437495 
0 0.5 -0.809016994374945 -1.30901699437495 
-0.809016994374945 -0.809016994374945 -0.809016994374945 0.809016994374945 
-0.809016994374945 -1.30901699437495 0 0.5 
-1.30901699437495 0 -0.809016994374945 0.5 
-0.809016994374945 0.809016994374945 -0.809016994374945 0.809016994374945 
-0.809016994374945 0.5 -1.30901699437495 0 
-0.5 1.30901699437495 -0.809016994374945 0 
-0.5 0.809016994374945 0 -1.30901699437495 
0 -0.5 0.809016994374945 -1.30901699437495 
0 -0.5 -0.809016994374945 -1.30901699437495 
0.809016994374945 0 -0.5 -1.30901699437495 
-1.30901699437495 -0.5 0 -0.809016994374945 
0.809016994374945 0.809016994374945 -0.809016994374945 -0.809016994374945 
0.809016994374945 0.5 -1.30901699437495 0 
0.809016994374945 -0.809016994374945 -0.809016994374945 -0.809016994374945 
0 0 -1.61803398874989 0 
0 -0.809016994374945 -1.30901699437495 -0.5 
0 -0.809016994374945 -1.30901699437495 0.5 
0.5 -1.30901699437495 -0.809016994374945 0 
0.5 0 -1.30901699437495 -0.809016994374945 
0.809016994374945 -1.30901699437495 0 -0.5 
0 0.809016994374945 -1.30901699437495 0.5 
-0.5 0 -1.30901699437495 -0.809016994374945 
0 -1.30901699437495 -0.5 -0.809016994374945 
-1.30901699437495 -0.5 0 0.809016994374945 
0.809016994374945 -0.5 -1.30901699437495 0 
0 0.809016994374945 -1.30901699437495 -0.5 
-0.809016994374945 -0.5 -1.30901699437495 0 
-0.5 0 -1.30901699437495 0.809016994374945 
0 -1.30901699437495 -0.5 0.809016994374945 
-0.5 -1.30901699437495 -0.809016994374945 0 
0 -1.61803398874989 0 0 

# Faces
5 1 6 10 4 0
5 1 7 8 5 0
5 0 3 6 7 2
5 2 8 9 4 0
5 0 5 9 10 3
5 2 8 11 6 1
5 1 3 4 5 2
5 7 11 10 3 1
5 9 5 2 7 11
5 9 8 7 6 10
5 4 3 6 11 9
5 4 5 8 11 10
5 16 13 12 14 18
5 17 13 12 15 19
5 9 12 2 16 17
5 15 12 2 18 6
5 12 9 19 6 14
5 13 2 14 15 9
5 2 13 17 20 18
5 16 13 9 19 20
5 6 14 2 16 20
5 20 17 9 15 6
5 6 18 16 17 19
5 14 18 20 19 15
5 12 21 6 25 4
5 12 23 17 24 21
5 22 12 8 24 6
5 12 22 25 27 23
5 12 4 27 17 8
5 21 22 4 23 8
5 22 25 26 24 21
5 6 21 8 17 26
5 4 22 6 26 27
5 6 25 27 17 24
5 26 24 8 23 27
5 26 25 4 23 17
5 28 10 32 29 0
5 0 30 33 27 28
5 22 32 8 30 0
5 0 22 10 27 31
5 29 8 33 31 0
5 22 28 27 34 32
5 28 31 30 29 22
5 10 28 31 33 34
5 10 34 8 29 22
5 8 33 27 10 32
5 8 34 27 31 30
5 33 30 29 32 34
5 12 35 27 38 30
5 35 12 37 24 19
5 12 36 27 19 32
5 37 12 36 38 16
5 30 12 32 24 16
5 35 32 37 30 36
5 36 35 19 39 38
5 27 35 32 24 39
5 36 27 39 16 30
5 19 39 16 37 32
5 16 38 27 19 24
5 24 37 30 38 39
5 40 0 14 7 16
5 40 33 9 42 0
5 36 9 32 14 0
5 33 36 0 41 16
5 32 42 0 41 7
5 36 40 16 43 9
5 41 40 36 42 14
5 40 41 7 43 33
5 33 43 32 42 36
5 9 33 16 7 32
5 42 14 7 43 9
5 41 14 32 43 16
5 45 28 0 41 46
5 0 44 46 7 29
5 0 42 10 45 44
5 28 10 47 46 44
5 44 28 42 29 41
5 45 28 42 32 47
5 44 41 7 47 45
5 32 7 46 45 10
5 29 42 10 47 7
5 32 47 46 41 29
5 16 41 49 45 39
5 43 19 45 48 16
5 37 14 49 48 16
5 19 45 49 14 32
5 45 50 32 43 39
5 45 50 14 41 48
5 32 50 49 41 37
5 14 37 43 19 50
5 41 48 39 43 37
5 50 19 39 48 49
5 32 35 28 49 52
5 28 51 39 34 35
5 51 28 22 52 46
5 49 28 27 39 46
5 35 27 51 49 22
5 22 52 24 34 35
5 49 22 32 24 46
5 24 34 27 51 46
5 34 39 46 52 32
5 49 52 24 39 51
5 0 3 45 54 40
5 0 53 54 16 2
5 6 45 53 0 14
5 2 40 54 20 7
5 2 40 53 3 14
5 16 40 53 45 20
5 6 45 54 16 7
5 54 20 6 3 53
5 14 3 45 20 7
5 19 6 49 53 27
5 24 16 55 49 6
5 53 25 6 18 55
5 27 17 16 55 53
5 53 38 16 18 49
5 25 49 55 38 27
5 53 25 19 17 38
5 17 38 55 18 24
5 19 25 49 18 24
5 0 31 54 46 1
5 22 6 46 55 0
5 0 4 27 54 55
5 10 26 46 1 22
5 4 31 55 1 22
5 55 1 6 26 54
5 6 46 54 27 10
5 10 26 54 31 4
5 26 46 55 31 27
5 5 33 54 44 0
5 1 7 56 54 44
5 44 1 29 5 31
5 1 29 8 56 46
5 31 44 46 56 33
5 46 7 8 33 54
5 8 56 54 31 5
5 7 29 5 33 56
5 24 46 55 30 8
5 46 57 8 34 26
5 8 57 55 31 23
5 27 51 55 30 23
5 51 31 30 57 46
5 55 57 24 26 51
5 57 24 34 23 30
5 31 23 34 26 51
5 41 30 33 39 46
5 47 34 33 58 46
5 33 59 32 47 39
5 41 58 33 59 29
5 46 58 30 29 52
5 32 52 41 30 59
5 47 52 29 59 34
5 39 58 41 52 47
5 58 39 34 59 30
5 53 27 9 12 0
5 12 0 55 16 8
5 12 2 55 53 4
5 8 17 54 55 2
5 8 16 54 27 9
5 9 4 53 54 17
5 33 60 45 44 40
5 44 40 5 42 3
5 54 40 5 9 60
5 10 60 54 44 3
5 10 45 54 33 9
5 3 42 9 60 45
5 5 42 10 60 33
5 53 61 9 13 40
5 13 40 48 20 43
5 48 40 36 61 45
5 13 36 53 48 16
5 36 61 19 43 13
5 19 9 36 53 45
5 43 20 45 61 9
5 48 20 19 61 53
5 54 62 6 11 17
5 54 63 9 11 20
5 54 62 3 4 63
5 9 15 3 53 63
5 15 4 53 62 6
5 3 15 11 20 62
5 62 20 17 63 53
5 15 11 17 63 4
5 27 45 49 0 36
5 30 16 46 49 0
5 33 39 45 28 36
5 30 41 49 28 36
5 46 16 33 27 45
5 47 64 28 66 34
5 28 64 52 29 68
5 65 47 52 67 28
5 28 68 59 34 65
5 28 66 59 29 67
5 34 65 64 52 69
5 66 65 64 67 68
5 64 67 29 69 47
5 65 47 69 59 66
5 29 69 34 66 68
5 68 67 52 69 59
5 74 71 70 72 78
5 75 71 70 73 76
5 69 70 65 75 74
5 65 76 68 72 70
5 70 73 68 78 69
5 65 71 74 77 76
5 65 73 72 69 71
5 69 78 77 75 71
5 77 75 65 73 68
5 74 77 68 72 69
5 76 75 74 78 68
5 72 73 76 77 78
5 70 24 74 23 35
5 35 68 79 52 70
5 22 79 30 23 35
5 35 68 30 74 34
5 70 34 23 68 22
5 22 70 24 57 79
5 70 52 57 74 34
5 30 68 22 52 57
5 30 74 24 52 79
5 23 74 57 79 68
5 29 80 10 64 1
5 64 1 57 56 26
5 22 80 8 57 1
5 29 57 46 64 22
5 64 26 34 80 22
5 46 64 10 34 56
5 26 56 8 80 10
5 29 57 56 34 80
5 70 21 57 83 26
5 82 70 21 78 23
5 81 21 80 82 26
5 21 78 84 83 81
5 21 57 84 23 80
5 81 57 78 80 70
5 70 82 75 83 81
5 80 70 26 75 23
5 81 57 84 75 26
5 26 82 23 84 83
5 83 75 23 78 57
5 80 78 84 75 82
5 56 85 64 86 69
5 75 85 64 73 66
5 81 64 87 75 56
5 81 69 80 73 64
5 87 64 86 80 66
5 85 81 86 73 87
5 81 85 75 88 69
5 85 56 88 66 87
5 56 88 80 86 81
5 66 75 56 69 80
5 66 88 69 86 73
5 80 73 87 75 88
5 35 89 39 90 50
5 89 74 37 72 35
5 35 65 39 74 59
5 65 35 72 52 90
5 35 59 37 52 50
5 65 89 59 72 50
5 89 65 90 91 74
5 89 39 91 37 59
5 39 65 50 52 91
5 74 37 52 90 39
5 50 72 37 91 90
5 91 74 59 72 52
5 47 85 92 66 93
5 85 91 94 77 92
5 65 92 58 91 47
5 92 65 93 59 77
5 66 92 58 94 59
5 66 65 85 58 77
5 65 85 91 69 93
5 85 47 69 94 58
5 59 93 47 91 94
5 66 93 69 94 77
5 58 91 69 59 77
5 29 57 58 31 68
5 80 66 31 95 29
5 29 95 58 56 69
5 66 31 58 56 34
5 31 75 34 80 68
5 57 95 31 75 56
5 69 57 58 75 34
5 68 95 58 75 66
5 80 68 95 57 69
5 8 21 1 55 84
5 1 62 26 11 21
5 2 1 62 54 84
5 55 62 6 21 2
5 11 21 2 84 17
5 8 84 54 26 11
5 26 62 55 84 17
5 12 0 49 6 32
5 12 14 49 53 36
5 6 32 9 27 45
5 25 35 12 79 49
5 22 49 55 30 12
5 38 23 12 79 55
5 35 23 38 51 25
5 25 51 55 79 22
5 51 38 30 79 49
5 28 31 58 46 64
5 28 68 30 58 51
5 68 31 51 64 22
5 64 51 58 57 52
5 80 4 96 1 21
5 57 84 31 96 1
5 22 21 57 55 96
5 31 96 22 80 23
5 4 80 8 84 31
5 4 23 84 55 96
5 64 1 95 31 87
5 44 1 86 10 87
5 80 86 1 95 5
5 44 64 10 66 31
5 86 29 95 44 64
5 87 44 95 5 66
5 10 66 5 29 86
5 10 87 31 5 80
5 87 75 84 95 96
5 80 88 84 95 98
5 82 88 84 97 87
5 84 78 98 96 97
5 87 82 80 98 96
5 87 97 95 98 73
5 80 78 95 96 73
5 98 78 88 82 73
5 88 78 95 97 75
5 82 73 96 97 75
5 67 95 58 85 64
5 65 75 58 99 64
5 73 68 95 99 64
5 99 85 65 73 67
5 99 85 75 77 95
5 66 73 67 95 77
5 67 99 58 77 68
5 68 96 51 75 23
5 57 79 96 51 83
5 51 75 74 57 99
5 51 76 23 74 83
5 76 51 99 79 68
5 78 57 99 96 68
5 96 76 23 78 79
5 78 79 99 83 74
5 99 83 75 76 96
5 7 100 40 5 101
5 100 40 63 60 20
5 63 40 2 101 9
5 63 5 2 100 54
5 11 101 2 100 20
5 7 100 54 60 11
5 7 101 9 60 20
5 11 101 5 63 60
5 102 13 63 106 20
5 102 105 15 104 13
5 103 13 101 105 20
5 103 106 61 104 13
5 63 61 15 101 13
5 103 102 101 104 63
5 102 105 107 106 103
5 20 102 101 15 107
5 103 63 61 107 20
5 15 105 20 106 61
5 15 104 63 106 107
5 101 104 61 107 105
5 21 102 17 82 15
5 102 84 108 98 21
5 2 108 4 15 21
5 98 21 11 82 4
5 17 102 2 108 63
5 102 11 15 98 2
5 11 82 63 84 102
5 63 84 2 98 4
5 84 108 4 82 17
5 15 82 63 108 98
5 85 100 94 88 60
5 85 100 110 86 107
5 103 60 107 109 100
5 100 110 101 88 103
5 94 101 86 109 100
5 94 103 85 109 110
5 85 107 93 88 103
5 85 109 86 93 60
5 94 103 60 93 101
5 107 86 101 88 60
5 94 110 86 93 88
5 101 110 109 107 93
5 102 71 82 104 78
5 71 102 110 111 107
5 82 107 81 102 88
5 81 111 98 78 102
5 88 104 98 110 102
5 81 71 82 73 111
5 78 110 81 71 88
5 107 71 88 104 73
5 81 110 98 73 107
5 107 111 98 104 82
5 73 111 110 78 104
5 1 100 56 11 86
5 1 98 5 84 100
5 98 1 81 11 80
5 95 1 81 56 84
5 100 84 88 11 81
5 81 86 98 95 100
5 95 100 56 88 5
5 5 84 56 11 80
5 86 98 5 88 11
5 35 59 30 112 28
5 50 28 36 59 32
5 52 50 28 112 41
5 36 35 50 49 112
5 37 59 36 112 41
5 52 37 30 112 49
5 42 59 33 92 28
5 28 92 58 41 67
5 44 58 33 66 28
5 33 92 44 41 94
5 44 92 66 42 67
5 29 94 58 44 67
5 29 94 33 66 42
5 94 41 67 42 59
5 32 6 46 16 8
5 28 50 47 39 92
5 42 50 45 92 36
5 36 92 39 43 59
5 33 92 45 47 43
5 42 50 47 43 59
5 64 47 56 58 44
5 10 47 56 33 66
5 33 94 7 47 60
5 7 86 10 60 56
5 5 94 7 86 42
5 5 66 60 56 94
5 56 94 29 86 47
5 42 66 60 47 86
5 65 39 58 112 28
5 51 65 35 68 112
5 34 74 58 51 65
5 51 112 30 74 39
5 59 74 58 112 68
5 50 67 112 92 65
5 91 41 112 92 39
5 91 41 67 50 47
5 67 112 58 91 52
5 39 38 112 49 90
5 79 37 24 90 49
5 74 38 51 90 24
5 52 79 112 51 90
5 74 38 112 79 37
5 40 13 101 14 113
5 63 40 113 3 61
5 53 113 2 13 63
5 15 101 2 113 3
5 3 61 9 101 14
5 53 113 14 15 61
5 12 108 55 18 21
5 12 108 53 25 15
5 21 15 25 62 18
5 2 18 62 53 108
5 55 108 4 25 62
5 3 87 54 100 1
5 4 98 1 62 87
5 100 62 3 98 2
5 84 100 62 87 63
5 84 5 4 87 54
5 63 87 3 98 5
5 10 87 54 56 11
5 4 87 26 11 80
5 26 87 31 84 56
5 87 85 100 95 114
5 44 100 56 60 87
5 44 100 94 5 114
5 60 66 114 44 85
5 95 94 56 85 44
5 88 5 114 87 60
5 66 114 95 94 88
5 85 115 73 93 71
5 88 71 85 97 77
5 85 115 114 77 103
5 107 85 97 114 73
5 93 71 103 77 104
5 107 115 97 103 71
5 103 97 114 104 88
5 77 88 93 73 114
5 114 115 107 93 104
5 104 73 115 97 77
5 15 107 62 113 98
5 15 82 106 62 111
5 15 104 108 113 111
5 62 106 63 108 113
5 62 107 82 63 97
5 111 98 108 97 62
5 104 63 97 113 98
5 104 108 97 106 82
5 111 107 106 97 113
5 100 109 3 114 40
5 20 103 40 113 109
5 103 60 61 114 40
5 63 103 100 113 114
5 3 107 20 100 113
5 61 60 20 109 3
5 63 114 3 107 60
5 107 61 114 113 109
5 7 109 44 40 94
5 101 42 114 40 94
5 7 86 3 44 100
5 86 42 114 44 109
5 3 42 101 7 109
5 5 101 86 3 114
5 93 61 114 116 101
5 109 105 101 116 113
5 104 101 110 113 114
5 61 93 105 109 115
5 113 115 61 104 116
5 114 115 109 110 116
5 105 110 113 115 107
5 93 104 116 110 105
5 93 86 67 114 66
5 67 86 69 94 95
5 77 94 110 67 114
5 86 73 114 95 110
5 93 73 67 110 69
5 69 110 95 77 88
5 62 107 11 102 100
5 101 98 113 100 102
5 20 62 113 2 102
5 101 98 3 107 11
5 47 85 44 67 86
5 85 71 69 110 99
5 97 85 81 110 95
5 75 97 99 81 71
5 78 69 81 99 95
5 110 78 77 97 99
5 52 99 58 74 69
5 67 72 59 77 112
5 72 68 112 99 52
5 69 72 67 99 91
5 99 91 74 77 112
5 81 1 96 87 26
5 95 57 81 64 96
5 26 64 96 31 75
5 85 115 67 110 91
5 71 91 99 115 65
5 71 91 110 72 93
5 67 115 65 93 72
5 73 72 110 99 115
5 80 68 96 64 70
5 69 70 64 99 57
5 96 73 70 81 99
5 51 90 70 35 76
5 35 72 79 112 76
5 70 65 51 99 52
5 72 79 99 90 70
5 65 76 112 99 90
5 64 70 34 75 51
5 26 70 22 96 51
5 94 43 47 109 41
5 109 50 42 116 41
5 41 91 43 59 116
5 67 109 47 93 42
5 42 116 94 43 93
5 43 93 50 109 91
5 67 116 59 93 50
5 91 109 67 116 94
5 92 114 67 109 85
5 60 92 44 109 47
5 60 93 42 114 92
5 45 109 41 40 92
5 94 43 60 92 40
5 7 109 45 60 43
5 13 38 53 117 12
5 12 37 18 49 117
5 36 13 37 14 117
5 18 37 13 38 48
5 38 48 49 117 36
5 48 18 14 117 53
5 40 116 42 61 92
5 14 116 40 48 109
5 41 48 92 36 116
5 92 61 50 109 48
5 61 50 14 116 36
5 45 61 42 14 109
5 43 101 14 109 20
5 42 61 60 43 101
5 60 87 3 86 11
5 96 62 81 21 98
5 82 11 81 62 87
5 96 62 26 82 4
5 101 43 103 40 116
5 113 48 103 13 116
5 14 116 13 43 105
5 109 105 43 103 48
5 20 48 113 14 105
5 19 89 13 37 105
5 61 89 13 116 117
5 117 50 19 89 36
5 36 116 37 43 89
5 50 105 43 89 61
5 14 105 19 61 117
5 50 117 116 37 105
5 102 100 97 63 88
5 110 98 114 97 100
5 103 102 110 113 97
5 101 98 114 63 88
5 111 21 102 83 62
5 21 111 96 108 78
5 84 102 81 62 97
5 97 83 102 78 108
5 81 111 96 97 83
5 84 108 96 62 83
5 81 107 87 97 100
5 114 98 86 107 87
5 63 88 11 107 87
5 43 93 61 92 103
5 114 92 103 94 116
5 71 89 77 118 91
5 71 89 104 72 105
5 89 93 105 91 103
5 89 104 116 118 103
5 72 116 77 89 93
5 103 71 105 110 118
5 110 91 103 77 116
5 105 72 116 118 91
5 104 72 110 118 77
5 71 106 97 118 102
5 105 111 113 118 102
5 106 71 105 111 115
5 106 115 113 118 103
5 110 111 115 97 118
5 109 91 103 92 115
5 67 116 77 92 115
5 38 89 35 117 112
5 90 19 35 117 49
5 39 48 112 36 89
5 38 89 19 90 48
5 90 48 112 117 50
5 92 89 43 91 48
5 59 89 92 112 116
5 112 116 37 91 48
5 21 79 96 25 70
5 55 83 24 21 79
5 51 25 70 24 83
5 25 96 55 83 26
5 13 108 113 18 102
5 53 106 17 13 108
5 102 18 62 106 17
5 18 113 53 106 20
5 53 117 15 19 106
5 18 105 19 106 48
5 113 117 15 105 18
5 106 48 113 117 61
5 17 83 55 108 23
5 17 83 62 25 82
5 82 25 96 108 23
5 99 111 72 78 118
5 115 111 72 104 76
5 77 118 99 115 76
5 97 76 73 111 99
5 78 118 97 76 104
5 93 89 92 115 50
5 115 48 103 89 61
5 105 50 115 48 91
5 48 118 13 89 106
5 113 118 13 104 117
5 115 117 104 89 106
5 115 117 116 118 48
5 71 83 99 111 70
5 82 76 96 111 70
5 71 83 97 76 82
5 89 77 112 115 65
5 72 50 115 112 116
5 71 90 115 76 89
5 76 89 74 118 112
5 71 90 99 118 74
5 90 115 112 118 91
5 48 90 105 37 118
5 72 117 112 118 37
5 72 117 115 90 105
5 83 90 70 119 74
5 79 111 70 119 78
5 111 90 71 119 72
5 83 118 78 119 71
5 118 79 72 119 74
5 79 111 90 83 118
5 108 38 17 119 12
5 12 119 19 25 117
5 19 119 13 38 106
5 13 119 15 117 108
5 15 119 17 106 25
5 25 106 38 108 117
5 83 18 21 119 17
5 111 25 82 119 21
5 102 119 15 111 18
5 82 119 102 83 106
5 106 83 18 111 25
5 24 119 12 79 18
5 108 79 21 119 23
5 83 38 23 119 24
5 38 83 18 79 108
5 118 108 104 119 102
5 76 106 71 119 104
5 78 119 82 76 108
5 76 106 83 118 108
5 76 25 70 119 23
5 108 79 111 25 76
5 25 90 24 119 35
5 38 76 35 119 74
5 25 90 83 38 76
5 117 79 37 119 35
5 89 38 118 37 119
5 72 119 89 76 117
5 38 118 79 117 76
5 105 119 89 106 90
5 104 117 111 105 119
5 106 90 111 117 76
5 13 119 105 18 118
5 18 90 19 119 37
5 90 106 38 118 18
5 111 117 108 118 18
5 79 117 25 90 18

# Cells
12 0 1 2 3 4 5 6 7 8 9 10 11
12 12 13 14 15 16 17 18 19 20 21 22 23
12 24 25 26 27 28 29 30 31 32 33 34 35
12 36 37 38 39 40 41 42 43 44 45 46 47
12 48 49 50 51 52 53 54 55 56 57 58 59
12 60 61 62 63 64 65 66 67 68 69 70 71
12 36 64 72 73 74 75 76 77 78 79 80 81
12 57 71 82 83 84 85 86 87 88 89 90 91
12 41 55 92 93 94 95 96 97 98 99 100 101
12 2 20 60 102 103 104 105 106 107 108 109 110
12 22 33 58 111 112 113 114 115 116 117 118 119
12 0 32 39 120 121 122 123 124 125 126 127 128
12 1 40 73 120 129 130 131 132 133 134 135 136
12 34 46 99 128 137 138 139 140 141 142 143 144
12 47 81 100 145 146 147 148 149 150 151 152 153
12 3 14 28 103 114 122 154 155 156 157 158 159
12 4 61 74 102 129 160 161 162 163 164 165 166
12 19 65 83 107 167 168 169 170 171 172 173 174
12 10 21 109 159 175 176 177 178 179 180 181 182
12 37 56 63 72 82 95 145 183 184 185 186 187
12 151 188 189 190 191 192 193 194 195 196 197 198
12 199 200 201 202 203 204 205 206 207 208 209 210
12 97 143 211 212 213 214 215 216 217 218 219 220
12 44 123 132 138 221 222 223 224 225 226 227 228
12 229 230 231 232 233 234 235 236 237 238 239 240
12 241 242 243 244 245 246 247 248 249 250 251 252
12 253 254 255 256 257 258 259 260 261 262 263 264
12 196 265 266 267 268 269 270 271 272 273 274 275
12 197 228 250 276 277 278 279 280 281 282 283 284
12 5 31 125 157 175 285 286 287 288 289 290 291
12 16 50 62 85 104 111 154 172 183 292 293 294
12 27 48 96 116 140 213 295 296 297 298 299 300
12 42 94 141 149 189 218 224 276 301 302 303 304
12 29 124 139 223 233 285 305 306 307 308 309 310
12 131 221 245 277 311 312 313 314 315 316 317 318
12 240 252 319 320 321 322 323 324 325 326 327 328
12 194 207 242 270 283 329 330 331 332 333 334 335
12 209 220 239 336 337 338 339 340 341 342 343 344
12 8 105 162 176 345 346 347 348 349 350 351 352
12 353 354 355 356 357 358 359 360 361 362 363 364
12 182 289 365 366 367 368 369 370 371 372 373 374
12 375 376 377 378 379 380 381 382 383 384 385 386
12 326 387 388 389 390 391 392 393 394 395 396 397
12 249 313 320 398 399 400 401 402 403 404 405 406
12 53 88 92 150 186 257 407 408 409 410 411 412
12 76 148 192 269 413 414 415 416 417 418 419 420
12 26 38 52 98 112 121 137 155 184 292 296 421
12 68 77 86 147 185 408 413 422 423 424 425 426
12 43 75 133 146 188 226 279 301 314 415 427 428
12 80 136 166 317 419 428 429 430 431 432 433 434
12 9 45 69 79 108 126 134 158 164 187 294 421
12 93 153 191 214 255 302 407 435 436 437 438 439
12 152 190 261 267 409 414 422 435 440 441 442 443
12 59 101 219 262 300 412 438 444 445 446 447 448
12 17 106 167 178 347 357 449 450 451 452 453 454
12 15 24 113 156 179 288 367 455 456 457 458 459
12 6 177 287 348 372 399 460 461 462 463 464 465
12 11 127 135 227 290 309 318 405 464 466 467 468
12 248 316 375 404 432 469 470 471 472 473 474 475
12 381 394 476 477 478 479 480 481 482 483 484 485
12 363 374 396 486 487 488 489 490 491 492 493 494
12 346 361 377 450 495 496 497 498 499 500 501 502
12 161 345 379 431 471 495 503 504 505 506 507 508
12 364 386 484 502 509 510 511 512 513 514 515 516
12 251 274 334 385 475 483 517 518 519 520 521 522
12 180 349 360 370 452 462 486 499 523 524 525 526
12 195 241 272 278 315 329 418 427 433 473 518 527
12 206 247 327 333 393 477 522 528 529 530 531 532
12 198 208 264 275 335 439 443 533 534 535 536 537
12 222 237 243 281 306 311 319 401 468 538 539 540
12 205 271 332 476 521 528 536 541 542 543 544 545
12 203 234 244 284 325 331 341 531 539 546 547 548
12 202 212 256 340 436 447 535 549 550 551 552 553
12 144 215 225 236 280 303 308 336 540 546 554 555
12 273 420 426 442 556 557 558 559 560 561 562 563
12 265 382 417 434 472 506 517 527 559 564 565 566
12 67 78 160 416 425 429 503 556 565 567 568 569
12 12 51 84 115 170 293 570 571 572 573 574 575
12 66 87 169 423 557 567 576 577 578 579 580 581
12 70 110 165 173 351 453 500 507 569 581 582 583
12 193 201 217 282 304 330 338 437 533 547 551 554
12 7 130 163 312 350 398 430 460 466 470 505 584
12 231 286 305 323 368 400 461 467 538 585 586 587
12 168 355 449 496 510 577 582 588 589 590 591 592
12 89 171 572 580 590 593 594 595 596 597 598 599
12 358 378 391 482 492 498 511 524 600 601 602 603
12 232 322 366 390 491 585 604 605 606 607 608 609
12 246 324 376 395 403 469 479 520 529 601 610 611
12 321 371 389 402 463 490 523 586 600 606 610 612
12 352 384 406 465 474 501 508 526 584 603 611 612
12 383 497 504 509 560 566 568 576 583 588 613 614
12 480 516 543 615 616 617 618 619 620 621 622 623
12 359 388 481 494 515 602 620 624 625 626 627 628
12 266 380 478 514 519 541 563 564 614 621 629 630
12 54 91 253 410 444 574 595 631 632 633 634 635
12 90 260 411 424 441 558 578 596 633 636 637 638
12 30 142 216 229 299 307 337 555 639 640 641 642
12 18 181 353 369 451 458 489 525 643 644 645 646
12 23 174 362 454 575 592 598 646 647 648 649 650
12 35 238 291 310 373 459 587 609 642 651 652 653
12 210 397 485 532 545 623 628 654 655 656 657 658
12 512 561 579 591 597 613 617 629 636 659 660 661
12 356 513 589 594 618 627 650 660 662 663 664 665
12 200 235 328 344 392 530 548 608 657 666 667 668
12 258 268 440 534 544 562 619 630 637 659 669 670
12 204 259 537 542 553 615 656 669 671 672 673 674
12 263 599 622 635 638 661 665 670 674 675 676 677
12 199 343 552 654 666 673 678 679 680 681 682 683
12 13 117 456 570 644 647 684 685 686 687 688 689
12 365 457 487 604 645 652 688 690 691 692 693 694
12 25 118 297 455 640 651 684 690 695 696 697 698
12 387 493 607 624 658 668 681 693 699 700 701 702
12 230 342 605 639 653 667 679 691 696 701 703 704
12 211 298 339 446 549 641 678 697 703 705 706 707
12 254 448 550 631 672 676 682 706 708 709 710 711
12 616 626 655 664 671 677 680 700 710 712 713 714
12 573 593 634 648 662 675 686 709 712 715 716 717
12 354 488 625 643 649 663 687 692 699 713 715 718
12 49 119 295 445 571 632 685 695 705 708 716 719
12 683 689 694 698 702 704 707 711 714 717 718 719
