# Generated using Miratope v0.5.0 (https://github.com/galoomba1/miratope-rs)
4OFF

# Vertices, Faces, Edges, Cells
96 336 288 48

# Vertices
0 0.707106781186548 0.707106781186548 1.4142135623731 
0 0.707106781186548 1.4142135623731 0.707106781186548 
0 1.4142135623731 0.707106781186548 0.707106781186548 
0.707106781186548 0.707106781186548 0 1.4142135623731 
0.707106781186548 0 0.707106781186548 1.4142135623731 
0.707106781186548 0 1.4142135623731 0.707106781186548 
0.707106781186548 0.707106781186548 1.4142135623731 0 
0.707106781186548 1.4142135623731 0.707106781186548 0 
0.707106781186548 1.4142135623731 0 0.707106781186548 
1.4142135623731 0 0.707106781186548 0.707106781186548 
1.4142135623731 0.707106781186548 0 0.707106781186548 
1.4142135623731 0.707106781186548 0.707106781186548 0 
0 1.4142135623731 0.707106781186548 -0.707106781186548 
0.707106781186548 1.4142135623731 0 -0.707106781186548 
0.707106781186548 0 1.4142135623731 -0.707106781186548 
0 0.707106781186548 1.4142135623731 -0.707106781186548 
1.4142135623731 0.707106781186548 0 -0.707106781186548 
1.4142135623731 0 0.707106781186548 -0.707106781186548 
0 0.707106781186548 0.707106781186548 -1.4142135623731 
0.707106781186548 0.707106781186548 0 -1.4142135623731 
0.707106781186548 0 0.707106781186548 -1.4142135623731 
0 0.707106781186548 -0.707106781186548 -1.4142135623731 
0.707106781186548 0 -0.707106781186548 -1.4142135623731 
0.707106781186548 0.707106781186548 -1.4142135623731 0 
0.707106781186548 1.4142135623731 -0.707106781186548 0 
0.707106781186548 0 -1.4142135623731 -0.707106781186548 
1.4142135623731 0.707106781186548 -0.707106781186548 0 
0 0.707106781186548 -1.4142135623731 -0.707106781186548 
0 1.4142135623731 -0.707106781186548 -0.707106781186548 
1.4142135623731 0 -0.707106781186548 -0.707106781186548 
0 0.707106781186548 -0.707106781186548 1.4142135623731 
0.707106781186548 0 -0.707106781186548 1.4142135623731 
0 1.4142135623731 -0.707106781186548 0.707106781186548 
1.4142135623731 0 -0.707106781186548 0.707106781186548 
0 0.707106781186548 -1.4142135623731 0.707106781186548 
0.707106781186548 0 -1.4142135623731 0.707106781186548 
-0.707106781186548 0 0.707106781186548 1.4142135623731 
-0.707106781186548 0.707106781186548 0 1.4142135623731 
0.707106781186548 -0.707106781186548 0 1.4142135623731 
0 -0.707106781186548 0.707106781186548 1.4142135623731 
-0.707106781186548 0 -0.707106781186548 1.4142135623731 
0 -0.707106781186548 -0.707106781186548 1.4142135623731 
-0.707106781186548 -0.707106781186548 0 1.4142135623731 
-0.707106781186548 0.707106781186548 -1.4142135623731 0 
-0.707106781186548 0 -1.4142135623731 0.707106781186548 
0 -0.707106781186548 -1.4142135623731 0.707106781186548 
0.707106781186548 -0.707106781186548 -1.4142135623731 0 
-0.707106781186548 -0.707106781186548 -1.4142135623731 0 
0 -0.707106781186548 -1.4142135623731 -0.707106781186548 
-0.707106781186548 0 -1.4142135623731 -0.707106781186548 
0 -1.4142135623731 -0.707106781186548 0.707106781186548 
-0.707106781186548 -1.4142135623731 0 0.707106781186548 
-1.4142135623731 -0.707106781186548 0 0.707106781186548 
-0.707106781186548 -1.4142135623731 -0.707106781186548 0 
-1.4142135623731 0 -0.707106781186548 0.707106781186548 
-1.4142135623731 -0.707106781186548 -0.707106781186548 0 
0 -0.707106781186548 -0.707106781186548 -1.4142135623731 
0 -1.4142135623731 -0.707106781186548 -0.707106781186548 
-0.707106781186548 -0.707106781186548 0 -1.4142135623731 
-0.707106781186548 0 -0.707106781186548 -1.4142135623731 
-0.707106781186548 -1.4142135623731 0 -0.707106781186548 
-1.4142135623731 0 -0.707106781186548 -0.707106781186548 
-1.4142135623731 -0.707106781186548 0 -0.707106781186548 
-0.707106781186548 0 0.707106781186548 -1.4142135623731 
-0.707106781186548 0.707106781186548 0 -1.4142135623731 
0.707106781186548 -0.707106781186548 0 -1.4142135623731 
0 -0.707106781186548 0.707106781186548 -1.4142135623731 
0 -1.4142135623731 0.707106781186548 0.707106781186548 
0 -0.707106781186548 1.4142135623731 0.707106781186548 
-0.707106781186548 -1.4142135623731 0.707106781186548 0 
-1.4142135623731 0 0.707106781186548 0.707106781186548 
-1.4142135623731 -0.707106781186548 0.707106781186548 0 
-0.707106781186548 0 1.4142135623731 0.707106781186548 
-0.707106781186548 -0.707106781186548 1.4142135623731 0 
-0.707106781186548 0.707106781186548 1.4142135623731 0 
0.707106781186548 -0.707106781186548 1.4142135623731 0 
0 -0.707106781186548 1.4142135623731 -0.707106781186548 
-0.707106781186548 0 1.4142135623731 -0.707106781186548 
0 -1.4142135623731 0.707106781186548 -0.707106781186548 
-1.4142135623731 0 0.707106781186548 -0.707106781186548 
-1.4142135623731 0.707106781186548 0 0.707106781186548 
-0.707106781186548 1.4142135623731 0 0.707106781186548 
-1.4142135623731 0.707106781186548 -0.707106781186548 0 
-0.707106781186548 1.4142135623731 -0.707106781186548 0 
-0.707106781186548 1.4142135623731 0.707106781186548 0 
-1.4142135623731 0.707106781186548 0.707106781186548 0 
-1.4142135623731 0.707106781186548 0 -0.707106781186548 
0.707106781186548 -1.4142135623731 0 -0.707106781186548 
1.4142135623731 -0.707106781186548 0 -0.707106781186548 
0.707106781186548 -1.4142135623731 -0.707106781186548 0 
1.4142135623731 -0.707106781186548 -0.707106781186548 0 
1.4142135623731 -0.707106781186548 0.707106781186548 0 
1.4142135623731 -0.707106781186548 0 0.707106781186548 
0.707106781186548 -1.4142135623731 0.707106781186548 0 
-0.707106781186548 1.4142135623731 0 -0.707106781186548 
0.707106781186548 -1.4142135623731 0 0.707106781186548 

# Faces
3 0 1 2
4 1 0 4 5
4 0 3 8 2
3 0 3 4
4 2 7 6 1
3 1 5 6
3 7 8 2
3 4 9 5
4 5 9 11 6
4 3 4 9 10
3 3 10 8
3 6 11 7
4 8 7 11 10
3 10 11 9
4 6 7 12 15
4 7 13 16 11
3 12 13 7
4 11 17 14 6
3 6 14 15
3 16 17 11
3 19 20 18
4 18 19 13 12
4 20 18 15 14
3 18 12 15
4 20 19 16 17
3 16 13 19
3 14 17 20
4 19 22 29 16
4 19 21 28 13
3 21 22 19
3 24 26 23
4 24 28 27 23
4 25 23 26 29
3 25 27 23
4 24 13 16 26
3 24 28 13
3 26 29 16
4 21 22 25 27
3 27 28 21
3 25 29 22
4 8 32 30 3
4 10 33 31 3
3 3 31 30
4 26 10 8 24
3 24 32 8
3 10 33 26
3 35 23 34
4 35 34 30 31
4 24 32 34 23
3 34 32 30
4 26 33 35 23
3 35 33 31
4 0 3 30 37
4 0 36 39 4
3 36 37 0
4 3 31 38 4
3 38 39 4
3 30 40 37
4 31 30 40 41
4 39 38 41 42
3 38 41 31
3 36 39 42
4 37 40 42 36
3 42 40 41
4 35 45 44 34
4 34 23 27 43
3 34 43 44
4 23 25 46 35
3 45 46 35
3 45 44 47
4 45 47 48 46
4 25 48 49 27
3 25 46 48
3 27 49 43
4 43 49 47 44
3 49 47 48
3 50 41 45
4 50 45 47 53
4 44 40 41 45
4 50 41 42 51
3 51 50 53
3 52 42 51
4 52 55 53 51
3 54 40 44
4 47 55 54 44
4 42 52 54 40
3 54 55 52
3 53 55 47
3 56 57 48
4 56 48 49 59
4 57 60 58 56
3 56 58 59
4 48 47 53 57
3 53 60 57
3 49 61 59
4 49 47 55 61
4 58 62 61 59
3 58 62 60
4 55 62 60 53
3 62 55 61
4 18 64 21 19
4 20 18 63 66
3 18 63 64
4 20 19 22 65
3 20 66 65
3 21 64 59
4 56 22 21 59
4 56 65 66 58
3 22 56 65
3 63 58 66
4 63 58 59 64
3 67 39 68
4 67 69 73 68
4 39 67 51 42
3 67 69 51
3 36 72 70
4 42 52 70 36
4 71 70 72 73
3 70 52 71
4 68 39 36 72
3 72 73 68
4 69 51 52 71
3 71 69 73
4 1 72 68 5
4 1 6 15 74
3 1 72 74
4 5 6 14 75
3 5 75 68
4 68 75 76 73
4 15 77 76 14
3 14 76 75
3 74 15 77
4 72 74 77 73
3 76 77 73
3 78 76 66
4 66 58 60 78
4 69 78 76 73
3 78 69 60
4 77 63 66 76
3 79 77 63
4 62 79 63 58
4 62 71 69 60
4 71 79 77 73
3 71 62 79
4 30 34 44 40
4 34 43 83 32
3 80 37 81
4 81 80 82 83
4 54 40 37 80
3 54 82 80
4 32 81 37 30
3 32 83 81
4 43 44 54 82
3 82 83 43
4 1 72 36 0
4 0 37 81 2
4 2 1 74 84
3 2 84 81
3 70 85 80
4 37 80 70 36
4 70 72 74 85
4 80 85 84 81
3 74 84 85
4 52 54 80 70
4 70 85 79 71
4 85 80 82 86
3 85 79 86
4 55 54 82 61
4 61 86 79 62
3 82 61 86
4 52 55 62 71
4 22 56 48 25
4 46 25 29 90
4 29 88 65 22
3 87 88 65
4 56 57 87 65
3 46 90 89
4 46 89 57 48
4 87 88 90 89
3 89 87 57
3 29 90 88
4 9 92 33 10
4 9 91 17 11
3 91 92 9
4 11 10 26 16
3 33 92 90
4 29 90 33 26
4 16 29 88 17
3 17 88 91
4 90 92 91 88
3 93 75 91
4 88 91 93 87
4 75 93 78 76
3 78 87 93
4 14 76 66 20
4 20 65 88 17
4 14 17 91 75
4 66 65 87 78
4 27 49 59 21
4 28 94 64 21
4 27 43 83 28
4 49 61 82 43
3 86 64 94
4 59 61 86 64
4 82 86 94 83
3 28 94 83
4 64 18 12 94
4 18 15 77 63
4 77 79 85 74
4 85 84 94 86
4 74 15 12 84
3 12 84 94
4 63 64 86 79
4 4 39 68 5
4 5 9 91 75
4 4 9 92 38
3 93 95 67
4 68 67 93 75
4 39 67 95 38
4 93 91 92 95
3 95 92 38
4 33 90 46 35
4 31 35 45 41
4 41 38 95 50
4 90 92 95 89
3 95 50 89
4 33 92 38 31
4 46 89 50 45
4 78 69 67 93
4 67 51 50 95
4 89 95 93 87
4 60 57 87 78
4 57 53 50 89
4 51 69 60 53
4 2 7 12 84
4 8 2 81 32
4 13 7 8 24
4 28 13 12 94
4 24 28 83 32
4 83 94 84 81
6 0 1 6 11 10 3
6 36 0 3 31 41 42
6 6 14 76 73 72 1
6 10 11 17 88 90 33
6 14 17 88 87 78 76
6 42 51 69 73 72 36
6 31 41 50 89 90 33
6 50 89 87 78 69 51
6 73 77 15 6 5 68
6 67 95 92 9 5 68
6 6 15 18 19 16 11
6 9 92 90 29 16 11
6 19 22 56 58 63 18
6 67 95 89 57 60 69
6 56 22 29 90 89 57
6 73 69 60 58 63 77
6 23 35 45 47 49 27
6 35 33 92 95 50 45
6 20 66 58 59 21 19
6 26 16 19 21 27 23
6 93 78 60 53 50 95
6 66 20 17 91 93 78
6 17 91 92 33 26 16
6 47 49 59 58 60 53
6 4 39 42 40 30 3
6 23 34 30 3 10 26
6 9 91 93 67 39 4
6 26 10 9 91 88 29
6 23 34 44 47 48 25
6 51 67 93 87 57 53
6 48 25 29 88 87 57
6 44 40 42 51 53 47
6 4 5 6 7 8 3
6 5 4 38 95 93 75
6 24 8 3 31 35 23
6 19 13 7 6 14 20
6 35 31 38 95 89 46
6 19 13 24 23 25 22
6 20 14 75 93 87 65
6 25 46 89 87 65 22
6 39 68 75 91 92 38
6 39 42 52 71 73 68
6 38 92 90 46 45 41
6 65 66 76 75 91 88
6 52 42 41 45 47 55
6 46 48 56 65 88 90
6 58 66 76 73 71 62
6 47 55 62 58 56 48
6 35 46 48 49 43 34
6 37 30 34 43 82 80
6 70 36 39 67 69 71
6 61 82 80 70 71 62
6 38 31 30 37 36 39
6 48 49 61 62 60 57
6 1 74 85 80 37 0
6 0 37 40 41 38 4
6 1 74 77 76 75 5
6 80 54 55 62 79 85
6 60 78 76 77 79 62
6 40 41 50 53 55 54
6 1 5 9 10 8 2
6 70 80 81 2 1 72
6 35 33 10 8 32 34
6 32 81 80 54 44 34
6 67 51 52 70 72 68
6 45 50 51 52 54 44
6 27 21 64 86 82 43
6 21 22 65 66 63 64
6 27 43 44 45 46 25
6 63 66 78 69 71 79
6 79 71 52 54 82 86
6 18 20 65 56 59 64
6 18 15 74 85 86 64
6 55 61 86 85 70 52
6 72 74 15 14 75 68
6 55 61 59 56 57 53
6 12 13 16 17 14 15
6 15 12 94 86 79 77
6 27 28 13 16 29 25
6 49 27 28 94 86 61
6 36 37 81 84 74 72
6 64 63 77 74 84 94
6 81 37 40 44 43 83
6 59 49 43 83 94 64
6 18 12 84 85 79 63
6 81 32 24 13 12 84
6 7 8 32 83 94 12
6 54 40 30 32 83 82
6 36 0 2 84 85 70
6 28 94 84 2 8 24
6 83 28 13 7 2 81
6 82 61 59 21 28 83
6 24 26 29 22 21 28
6 11 7 12 18 20 17
6 4 0 2 7 11 9
6 30 31 33 26 24 32

# Cells
14 0 1 2 3 4 5 6 7 8 9 10 11 12 13
14 11 14 15 16 17 18 19 20 21 22 23 24 25 26
14 25 27 28 29 30 31 32 33 34 35 36 37 38 39
14 10 30 40 41 42 43 44 45 46 47 48 49 50 51
14 3 42 52 53 54 55 56 57 58 59 60 61 62 63
14 33 46 64 65 66 67 68 69 70 71 72 73 74 75
14 63 69 76 77 78 79 80 81 82 83 84 85 86 87
14 75 87 88 89 90 91 92 93 94 95 96 97 98 99
14 20 29 91 100 101 102 103 104 105 106 107 108 109 110
14 61 81 111 112 113 114 115 116 117 118 119 120 121 122
14 5 18 120 123 124 125 126 127 128 129 130 131 132 133
14 97 109 122 133 134 135 136 137 138 139 140 141 142 143
14 49 57 66 83 144 145 146 147 148 149 150 151 152 153
14 0 54 115 125 146 154 155 156 157 158 159 160 161 162
14 86 99 118 143 149 158 163 164 165 166 167 168 169 170
14 39 72 88 108 171 172 173 174 175 176 177 178 179 180
14 13 19 36 45 180 181 182 183 184 185 186 187 188 189
14 26 104 130 134 174 188 190 191 192 193 194 195 196 197
14 38 73 94 105 153 169 198 199 200 201 202 203 204 205
14 23 102 131 139 162 166 202 206 207 208 209 210 211 212
14 7 56 111 127 183 190 213 214 215 216 217 218 219 220
14 51 60 68 76 176 185 220 221 222 223 224 225 226 227
14 80 93 114 137 179 193 216 225 228 229 230 231 232 233
14 6 16 35 44 151 157 205 211 234 235 236 237 238 239
14 17 41 79 136 154 178 240 241 242 243 244 245 246 247
14 8 27 90 112 207 224 248 249 250 251 252 253 254 255
14 24 50 77 135 198 219 256 257 258 259 260 261 262 263
14 9 32 92 113 144 191 264 265 266 267 268 269 270 271
14 55 67 103 126 230 236 272 273 274 275 276 277 278 279
14 59 70 107 128 170 189 280 281 282 283 284 285 286 287
14 47 141 159 177 201 218 253 276 288 289 290 291 292 293
14 1 98 148 192 208 223 260 273 294 295 296 297 298 299
14 64 123 163 181 229 235 249 257 300 301 302 303 304 305
14 37 121 152 197 212 227 247 279 305 306 307 308 309 310
14 22 82 160 175 203 217 269 278 304 311 312 313 314 315
14 71 129 168 187 231 237 244 270 293 298 316 317 318 319
14 62 74 110 132 233 239 245 255 263 271 320 321 322 323
14 21 48 84 140 161 171 252 268 277 287 297 303 324 325
14 52 65 100 124 165 184 240 250 259 265 289 294 306 312
14 14 40 85 142 204 213 248 264 272 281 310 317 326 327
14 2 31 95 116 209 222 241 256 274 284 313 319 328 329
14 4 28 96 117 147 194 242 258 275 286 291 301 330 331
14 43 138 156 173 199 214 267 283 296 300 307 321 329 332
14 12 89 145 195 206 221 243 285 288 302 311 323 326 333
14 53 101 164 182 228 234 261 266 290 309 324 328 333 334
14 34 119 150 196 210 226 262 280 292 314 316 320 325 335
14 15 78 155 172 200 215 251 282 295 308 318 322 330 334
14 58 106 167 186 232 238 246 254 299 315 327 331 332 335
