# Generated using Miratope v0.5.0 (https://github.com/galoomba1/miratope-rs)
4OFF

# Vertices, Faces, Edges, Cells
120 1440 1200 120

# Vertices
1.3090169943749 0 0.8090169943749 0.5 
1.3090169943749 0.5 0 -0.8090169943749 
1.3090169943749 0.8090169943749 -0.5 0 
0.809016994375 -0.8090169943749 0.8090169943749 -0.8090169943749 
0.5 -1.3090169943749 0.8090169943749 0 
0.809016994375 0 -0.5 1.3090169943749 
0.5 -0.8090169943749 0 1.3090169943749 
1.3090169943749 -0 0.8090169943749 -0.5 
1.3090169943749 0.5 0 0.8090169943749 
0.809016994375 -0.8090169943749 0.8090169943749 0.8090169943749 
0.809016994375 0 -0.5 -1.3090169943749 
0.5 -0.8090169943749 0 -1.3090169943749 
0.809016994375 0.5 -1.3090169943749 0 
0.5 0 -1.3090169943749 0.8090169943749 
0.5 0 -1.3090169943749 -0.8090169943749 
0 -1.3090169943749 -0.5 0.8090169943749 
0 -1.6180339887499 0 0 
0 -1.3090169943749 -0.5 -0.8090169943749 
0 -0.8090169943749 -1.3090169943749 0.5 
0 -0.8090169943749 -1.3090169943749 -0.5 
1.3090169943749 -0.5 0 -0.8090169943749 
1.3090169943749 -0.8090169943749 -0.5 0 
0.809016994375 0.8090169943749 0.8090169943749 -0.8090169943749 
0.5 1.3090169943749 0.8090169943749 0 
0.5 0.8090169943749 0 1.3090169943749 
1.3090169943749 -0.5 0 0.8090169943749 
0.809016994375 0.8090169943749 0.8090169943749 0.8090169943749 
0.5 0.8090169943749 0 -1.3090169943749 
0.809016994375 -0.5 -1.3090169943749 0 
0 1.3090169943749 -0.5 0.8090169943749 
0 1.6180339887499 0 0 
0 1.3090169943749 -0.5 -0.8090169943749 
0 0.8090169943749 -1.3090169943749 0.5 
0 0.8090169943749 -1.3090169943749 -0.5 
1.3090169943749 0 -0.8090169943749 0.5 
0.809016994375 1.3090169943749 0 0.5 
0.5 0 1.3090169943749 -0.8090169943749 
1.3090169943749 -0.8090169943749 0.5 0 
0.809016994375 0.5 1.3090169943749 0 
0.5 1.3090169943749 -0.8090169943749 0 
0.809016994375 -0.8090169943749 -0.8090169943749 -0.8090169943749 
0 0.5 0.8090169943749 -1.3090169943749 
0 1.3090169943749 0.5 -0.8090169943749 
0 0 0 -1.6180339887499 
0 0.5 -0.8090169943749 -1.3090169943749 
1.3090169943749 0 -0.8090169943749 -0.5 
0.5 0 1.3090169943749 0.8090169943749 
0.809016994375 1.3090169943749 0 -0.5 
0.809016994375 -0.8090169943749 -0.8090169943749 0.8090169943749 
0 0.5 0.8090169943749 1.3090169943749 
0 1.3090169943749 0.5 0.8090169943749 
0 0 0 1.6180339887499 
0 0.5 -0.8090169943749 1.3090169943749 
0.809016994375 -1.3090169943749 0 0.5 
1.3090169943749 0.8090169943749 0.5 0 
0.809016994375 -0.5 1.3090169943749 0 
0.5 -1.3090169943749 -0.8090169943749 0 
0.809016994375 0.8090169943749 -0.8090169943749 -0.8090169943749 
0 -0.5 0.8090169943749 -1.3090169943749 
0 -1.3090169943749 0.5 -0.8090169943749 
0 -0.5 -0.8090169943749 -1.3090169943749 
0.809016994375 -1.3090169943749 0 -0.5 
0 0 1.6180339887499 0 
0 0.8090169943749 1.3090169943749 -0.5 
0 -0.8090169943749 1.3090169943749 -0.5 
0.809016994375 0.8090169943749 -0.8090169943749 0.8090169943749 
0 -0.5 0.8090169943749 1.3090169943749 
0 -1.3090169943749 0.5 0.8090169943749 
0 -0.5 -0.8090169943749 1.3090169943749 
0.809016994375 -0 0.5 1.3090169943749 
0 0 -1.6180339887499 0 
0 0.8090169943749 1.3090169943749 0.5 
0 -0.8090169943749 1.3090169943749 0.5 
0.809016994375 -0 0.5 -1.3090169943749 
-0.8090169943749 0.8090169943749 0.809016994375 0.8090169943749 
-0.8090169943749 0.5 1.309016994375 0 
-0.8090169943749 0.8090169943749 0.809016994375 -0.8090169943749 
-0.8090169943749 1.309016994375 0 0.5 
-0.8090169943749 1.309016994375 0 -0.5 
1.6180339887499 0 -0 0 
-0.5 1.3090169943749 0.809016994375 0 
-0.5 0 1.309016994375 -0.8090169943749 
-0.5 0.8090169943749 0 -1.3090169943749 
-0.5 0 1.309016994375 0.8090169943749 
-0.5 0.8090169943749 0 1.3090169943749 
-0.5 1.309016994375 -0.8090169943749 0 
-0.8090169943749 -0.8090169943749 0.809016994375 0.8090169943749 
-0.8090169943749 -0.5 1.309016994375 0 
-0.8090169943749 -0.8090169943749 0.809016994375 -0.8090169943749 
-0.8090169943749 -1.309016994375 0 0.5 
-0.8090169943749 -1.309016994375 0 -0.5 
-0.5 -1.3090169943749 0.809016994375 0 
-0.5 -0.8090169943749 0 -1.309016994375 
-0.5 -0.8090169943749 0 1.309016994375 
-0.5 -1.309016994375 -0.8090169943749 0 
-0.8090169943749 0 0.5 1.309016994375 
-0.8090169943749 0 -0.5 1.309016994375 
-0.8090169943749 -0.8090169943749 -0.8090169943749 0.809016994375 
-0.5 0 -1.3090169943749 0.809016994375 
-1.3090169943749 0 0.809016994375 0.5 
-1.3090169943749 0 0.809016994375 -0.5 
-0.8090169943749 0 0.5 -1.309016994375 
-1.3090169943749 0.809016994375 0.5 0 
-0.8090169943749 0 -0.5 -1.309016994375 
-0.8090169943749 -0.8090169943749 -0.8090169943749 -0.809016994375 
-0.5 0 -1.3090169943749 -0.809016994375 
-0.8090169943749 0.809016994375 -0.8090169943749 0.809016994375 
-1.3090169943749 0.5 0 0.809016994375 
-1.3090169943749 -0.809016994375 0.5 0 
-0.8090169943749 0.5 -1.309016994375 0 
-0.8090169943749 -0.5 -1.309016994375 0 
-0.8090169943749 0.809016994375 -0.8090169943749 -0.809016994375 
-1.3090169943749 0.5 0 -0.809016994375 
-1.3090169943749 -0.5 0 0.809016994375 
-1.3090169943749 0.809016994375 -0.5 0 
-1.3090169943749 -0.5 0 -0.809016994375 
-1.3090169943749 -0.809016994375 -0.5 0 
-1.3090169943749 -0 -0.809016994375 0.5 
-1.6180339887499 0 0 0 
-1.3090169943749 -0 -0.809016994375 -0.5 

# Faces
5 7 2 0 1 8
5 0 6 18 14 1
5 0 4 17 14 2
5 9 3 0 4 7
5 3 17 18 5 0
5 5 9 8 6 0
5 8 13 19 11 7
5 7 2 13 15 4
5 10 7 9 15 19
5 7 11 1 3 10
5 8 1 11 16 6
5 8 9 16 19 12
5 5 12 8 13 2
5 12 1 3 16 18
5 12 10 2 14 1
5 2 10 17 15 5
5 3 9 5 12 10
5 9 16 6 4 15
5 3 16 11 4 17
5 11 4 6 13 14
5 13 15 5 18 6
5 14 17 10 19 11
5 18 14 13 19 12
5 17 18 16 19 15
5 20 25 7 21 0
5 0 20 14 32 24
5 0 23 31 14 21
5 22 26 7 23 0
5 22 0 5 32 31
5 5 26 25 24 0
5 7 25 13 33 27
5 26 7 10 33 29
5 7 21 13 29 23
5 22 10 7 27 20
5 20 25 24 30 27
5 28 25 26 30 33
5 13 21 5 28 25
5 20 22 30 32 28
5 21 14 20 28 10
5 26 22 10 28 5
5 23 29 26 30 24
5 5 29 31 10 21
5 22 31 23 27 30
5 23 27 14 13 24
5 5 32 24 13 29
5 31 14 27 33 10
5 28 33 13 14 32
5 29 33 30 32 31
5 21 8 37 34 0
5 34 0 36 43 14
5 8 23 0 35 38
5 3 43 31 35 0
5 0 3 38 37 36
5 8 39 44 11 37
5 8 21 11 41 23
5 8 38 41 44 12
5 8 12 35 34 39
5 37 36 42 39 34
5 40 37 38 42 44
5 37 11 21 3 40
5 12 21 3 41 31
5 14 34 40 12 21
5 35 42 43 40 34
5 38 3 40 12 35
5 38 41 23 36 42
5 11 36 23 39 14
5 23 31 35 42 39
5 41 11 36 43 3
5 11 14 43 40 44
5 31 12 44 39 14
5 41 31 43 42 44
5 7 45 37 1 21
5 7 46 37 38 9
5 7 9 51 29 47
5 38 47 7 23 1
5 45 7 46 51 13
5 37 6 52 39 1
5 21 1 23 49 6
5 38 1 12 52 49
5 1 12 47 45 39
5 37 38 50 52 48
5 37 45 39 50 46
5 37 48 9 21 6
5 49 9 21 12 29
5 21 13 45 48 12
5 38 47 12 48 9
5 38 49 23 46 50
5 46 51 9 49 6
5 23 46 6 13 39
5 23 29 47 50 39
5 45 47 50 51 48
5 6 13 51 48 52
5 50 52 49 29 51
5 29 12 52 39 13
5 0 2 25 54 34
5 22 0 53 17 43
5 0 36 54 55 22
5 4 25 55 53 0
5 2 25 4 58 27
5 54 27 60 56 25
5 25 55 58 60 28
5 25 56 34 53 28
5 22 2 27 54 57
5 2 28 17 58 22
5 2 14 34 57 28
5 34 56 59 36 54
5 34 53 59 43 57
5 22 55 53 28 57
5 36 27 58 22 43
5 54 57 60 59 55
5 58 4 36 59 55
5 4 36 27 14 56
5 59 56 4 17 53
5 14 43 57 60 27
5 17 14 56 60 28
5 17 43 59 60 58
5 21 2 25 45 8
5 9 26 25 46 8
5 47 8 9 64 41
5 8 47 26 2 23
5 8 46 64 11 45
5 25 26 63 58 61
5 46 25 45 27 63
5 21 4 25 61 9
5 10 58 62 26 2
5 2 21 4 62 23
5 2 10 47 45 27
5 9 61 10 47 26
5 26 62 23 46 63
5 21 10 41 62 9
5 61 10 21 11 45
5 62 4 46 64 9
5 23 27 11 4 46
5 23 41 47 63 27
5 47 45 61 64 63
5 11 64 61 58 4
5 62 41 64 63 58
5 41 10 58 27 11
5 7 45 54 20 2
5 55 26 7 46 54
5 26 51 15 61 7
5 7 61 55 20 4
5 2 24 66 4 20
5 24 2 26 65 54
5 2 26 66 15 28
5 45 13 2 28 65
5 20 56 68 24 54
5 20 28 68 66 55
5 61 28 20 56 45
5 26 65 28 61 55
5 66 24 46 51 26
5 45 56 67 46 54
5 55 54 65 68 67
5 45 65 51 67 61
5 55 66 4 46 67
5 4 56 13 24 46
5 4 56 67 61 15
5 24 68 65 51 13
5 13 15 28 68 56
5 67 68 66 15 51
5 0 20 54 37 1
5 35 0 53 18 32
5 24 0 35 69 54
5 6 37 69 53 0
5 1 40 18 52 35
5 39 54 57 35 1
5 20 14 1 40 57
5 57 20 53 68 32
5 20 53 40 37 56
5 54 37 56 70 39
5 37 40 70 52 69
5 57 54 69 68 70
5 35 57 40 53 69
5 32 35 52 39 24
5 56 6 18 53 68
5 52 6 24 68 69
5 39 24 6 56 14
5 40 18 14 56 70
5 14 39 70 57 32
5 18 32 68 70 52
5 2 21 1 34 20
5 34 1 36 72 6
5 22 35 1 23 2
5 35 1 3 72 49
5 1 3 22 20 36
5 5 2 22 62 66
5 35 5 2 24 34
5 36 20 34 24 71
5 20 22 71 66 53
5 4 21 3 53 20
5 21 3 62 49 5
5 5 53 34 6 21
5 35 34 53 72 71
5 22 3 53 5 35
5 23 62 22 71 36
5 24 6 4 36 23
5 23 49 35 71 24
5 4 62 3 72 36
5 4 66 53 72 6
5 49 6 24 66 5
5 62 66 71 72 49
5 8 45 54 34 1
5 54 46 8 38 69
5 38 64 16 48 8
5 6 34 69 48 8
5 36 1 38 73 54
5 1 40 16 72 38
5 1 40 73 45 11
5 72 69 34 40 59
5 34 56 45 48 40
5 73 54 69 67 59
5 38 73 40 48 69
5 46 36 72 38 64
5 48 45 73 64 67
5 6 56 11 36 46
5 6 72 69 67 46
5 36 11 64 73 59
5 56 6 16 48 67
5 59 40 16 11 56
5 64 16 72 59 67
5 7 25 54 37 8
5 7 47 33 19 61
5 27 54 73 47 7
5 37 11 7 61 73
5 48 8 47 44 19
5 39 54 65 47 8
5 13 8 48 65 25
5 25 65 33 60 61
5 37 56 25 61 48
5 48 70 44 73 37
5 65 70 60 73 54
5 61 73 47 65 48
5 44 47 33 27 39
5 19 61 60 56 11
5 44 73 60 27 11
5 39 27 11 56 13
5 13 19 48 70 56
5 39 13 33 65 70
5 60 70 44 19 33
5 37 45 25 20 34
5 55 69 37 46 25
5 55 63 30 65 25
5 25 24 34 69 65
5 37 73 55 20 36
5 55 71 30 57 20
5 27 20 57 73 45
5 69 50 42 73 37
5 69 34 57 42 71
5 39 34 57 65 45
5 73 45 65 50 63
5 73 55 69 65 57
5 71 55 63 46 36
5 36 46 24 39 27
5 24 46 50 69 71
5 36 27 63 73 42
5 71 42 50 63 30
5 24 39 50 65 30
5 39 27 30 57 42
5 1 31 77 49 0
5 2 0 62 76 31
5 0 36 46 7 62
5 0 24 77 76 36
5 0 49 8 46 24
5 8 29 78 41 7
5 62 7 2 29 74
5 27 7 46 74 78
5 7 41 1 36 27
5 8 1 41 75 49
5 46 8 39 78 75
5 8 29 2 24 39
5 39 1 36 75 77
5 39 27 2 31 1
5 27 2 24 74 76
5 74 62 49 75 46
5 36 75 41 62 76
5 29 31 41 62 49
5 29 74 24 77 49
5 27 76 31 41 78
5 39 78 29 31 77
5 76 77 75 78 74
5 26 2 0 35 79
5 3 0 20 55 79
5 0 20 43 76 71
5 55 26 62 0 71
5 10 79 57 20 2
5 20 2 30 76 58
5 35 31 2 30 57
5 58 10 3 43 20
5 26 79 10 82 80
5 26 55 58 82 30
5 35 80 26 30 71
5 79 35 80 81 3
5 57 35 71 81 43
5 10 31 80 62 3
5 3 62 58 55 81
5 55 81 82 57 79
5 76 71 81 80 62
5 10 31 43 57 82
5 58 82 81 43 76
5 31 80 82 30 76
5 7 25 55 79 9
5 25 7 63 74 51
5 22 2 7 47 79
5 22 62 7 63 55
5 5 2 25 65 79
5 2 30 74 66 25
5 5 9 51 25 66
5 47 29 2 30 65
5 79 5 84 80 22
5 30 84 66 55 22
5 30 63 47 80 22
5 9 83 80 47 79
5 62 9 5 29 80
5 9 83 55 66 62
5 79 65 84 83 55
5 65 47 63 83 51
5 29 5 84 65 51
5 62 80 83 63 74
5 83 84 66 74 51
5 29 74 30 84 80
5 1 38 79 22 0
5 0 34 69 79 5
5 0 71 77 32 34
5 49 38 69 71 0
5 12 79 57 34 1
5 34 52 77 42 1
5 31 22 57 42 1
5 5 32 34 52 12
5 57 32 84 71 22
5 71 42 38 80 22
5 38 79 12 85 80
5 69 38 42 85 52
5 79 69 84 85 57
5 12 5 49 80 31
5 49 5 84 69 52
5 77 71 84 80 49
5 12 31 32 57 85
5 31 77 42 85 80
5 52 77 32 84 85
5 1 35 79 47 8
5 37 8 9 79 69
5 37 8 50 75 64
5 69 50 8 49 35
5 1 37 73 79 3
5 37 1 42 75 72
5 47 41 1 42 73
5 9 64 37 72 3
5 9 49 80 41 3
5 9 83 69 72 49
5 42 81 72 69 35
5 50 42 35 80 47
5 41 64 73 81 3
5 79 73 81 83 69
5 50 83 64 73 47
5 83 50 75 49 80
5 72 81 83 64 75
5 75 42 81 80 41
5 8 7 26 79 38
5 10 7 45 73 79
5 7 45 33 78 63
5 41 7 63 73 38
5 8 12 79 65 45
5 45 8 50 78 44
5 26 65 50 8 29
5 63 26 65 33 82
5 26 80 38 50 63
5 50 38 73 44 85
5 12 10 33 45 44
5 79 65 85 82 73
5 12 10 41 80 29
5 10 41 44 73 82
5 82 63 78 41 80
5 33 65 85 12 29
5 29 80 85 50 78
5 78 33 82 85 44
5 22 35 38 47 26
5 9 26 55 69 38
5 26 5 35 69 65
5 38 73 55 22 3
5 10 47 73 57 22
5 9 3 53 55 61
5 5 53 69 48 9
5 35 57 65 47 12
5 3 40 73 61 10
5 53 28 61 48 40
5 12 48 65 28 5
5 12 10 28 57 40
5 66 0 20 17 89
5 0 21 17 88 62
5 0 6 89 88 36
5 6 0 66 25 46
5 7 58 90 15 25
5 7 62 86 15 21
5 11 7 46 86 90
5 20 36 11 7 58
5 20 25 66 87 58
5 56 25 46 87 90
5 6 56 25 15 21
5 20 36 87 89 56
5 20 56 11 21 17
5 21 11 88 86 6
5 46 87 66 62 86
5 58 87 36 88 62
5 6 86 15 66 89
5 58 17 15 66 62
5 17 88 11 90 58
5 15 90 56 89 17
5 89 88 86 90 87
5 1 43 88 72 0
5 9 21 0 53 79
5 38 9 62 0 72
5 21 16 88 41 1
5 21 1 40 79 10
5 22 10 41 1 43
5 17 53 40 16 21
5 79 53 91 81 22
5 17 91 62 22 10
5 41 38 81 22 62
5 41 38 9 16 92
5 79 40 92 81 38
5 9 79 10 92 91
5 16 72 53 91 9
5 43 40 53 72 81
5 62 88 72 81 91
5 43 17 10 92 40
5 41 92 81 43 88
5 88 17 91 92 16
5 7 8 51 86 64
5 7 21 3 79 61
5 3 62 7 64 38
5 8 21 16 86 49
5 21 8 48 79 5
5 5 26 51 8 49
5 26 83 91 61 79
5 5 26 62 91 15
5 38 83 26 62 49
5 16 21 15 61 48
5 16 93 49 38 3
5 79 48 93 83 38
5 79 5 93 91 3
5 64 16 3 91 61
5 5 15 51 48 93
5 86 64 83 91 62
5 61 48 51 83 64
5 86 51 83 93 49
5 15 86 16 93 91
5 34 18 89 72 0
5 72 0 66 55 69
5 34 20 28 79 40
5 34 20 59 89 68
5 3 40 59 20 17
5 5 18 34 68 28
5 40 18 93 72 3
5 3 91 55 59 72
5 55 79 28 94 91
5 40 79 69 93 94
5 68 94 59 55 69
5 5 28 17 91 66
5 68 69 93 5 66
5 93 91 66 89 72
5 18 40 94 28 17
5 59 89 17 91 94
5 18 89 68 94 93
5 20 53 79 61 25
5 54 25 26 79 69
5 63 54 25 67 87
5 69 67 25 66 53
5 54 20 22 79 73
5 54 71 87 59 20
5 58 61 73 59 20
5 22 26 63 54 71
5 66 26 22 58 91
5 66 71 69 83 26
5 63 58 22 81 73
5 71 69 53 59 81
5 61 91 53 59 67
5 67 83 63 73 61
5 71 87 63 83 81
5 83 67 87 66 91
5 81 59 87 58 91
5 64 7 45 19 90
5 55 73 64 7 58
5 48 79 28 25 45
5 45 60 90 67 25
5 15 9 48 67 25
5 48 9 64 92 19
5 64 67 55 91 9
5 19 45 60 28 10
5 48 79 73 92 94
5 60 94 67 55 73
5 10 58 91 15 28
5 58 60 73 92 10
5 15 28 94 48 19
5 90 64 92 91 58
5 91 15 90 67 94
5 60 90 19 92 94
5 0 49 96 18 21
5 0 4 89 96 24
5 37 72 0 4 46
5 8 37 16 97 52
5 13 8 46 86 97
5 8 52 34 24 13
5 37 34 52 95 72
5 46 37 56 97 95
5 21 4 56 37 16
5 4 21 13 96 86
5 21 18 34 56 13
5 34 24 95 89 56
5 46 86 49 72 95
5 16 72 89 4 86
5 24 95 52 49 96
5 49 72 16 18 52
5 13 96 18 52 97
5 16 97 56 89 18
5 95 97 86 96 89
5 2 32 96 66 0
5 9 49 0 66 26
5 21 2 28 79 12
5 21 2 29 96 15
5 29 12 35 32 2
5 29 98 15 9 26
5 26 79 28 98 84
5 26 29 49 35 84
5 53 18 21 15 28
5 9 93 98 12 79
5 15 9 93 53 66
5 53 79 35 84 93
5 35 12 18 93 49
5 53 28 32 84 66
5 84 93 49 96 66
5 12 18 32 28 98
5 32 96 29 98 84
5 96 18 93 98 15
5 53 34 37 48 79
5 38 79 55 54 37
5 54 50 95 67 37
5 53 55 67 37 72
5 35 79 65 54 34
5 54 71 95 68 34
5 48 65 68 34 52
5 35 38 50 54 71
5 35 52 93 72 38
5 72 71 55 83 38
5 52 50 65 84 35
5 55 53 68 84 71
5 67 68 53 93 48
5 84 71 95 50 83
5 48 65 50 83 67
5 93 83 67 95 72
5 84 68 95 52 93
5 45 19 97 51 8
5 52 8 51 65 69
5 40 79 61 45 37
5 37 45 70 97 67
5 9 61 67 37 16
5 51 9 61 19 98
5 9 93 69 67 51
5 19 45 70 40 12
5 61 79 65 98 94
5 67 94 70 65 69
5 16 40 94 61 19
5 16 40 12 52 93
5 52 12 98 65 70
5 16 97 67 94 93
5 98 51 97 52 93
5 98 94 70 97 19
5 66 0 22 76 99
5 0 4 88 76 23
5 0 49 99 88 3
5 26 74 100 58 7
5 7 41 100 86 9
5 7 4 86 74 23
5 22 3 41 7 58
5 26 9 91 100 80
5 23 74 26 80 49
5 22 3 91 99 80
5 80 41 23 76 22
5 91 66 4 86 9
5 41 88 86 49 23
5 58 91 3 88 4
5 4 66 74 76 58
5 74 86 49 99 66
5 41 100 58 76 88
5 76 99 80 100 74
5 88 99 91 100 86
5 23 0 71 54 46
5 1 23 75 88 11
5 27 23 1 42 54
5 27 11 1 43 20
5 20 4 87 76 27
5 11 37 59 20 4
5 37 59 101 42 54
5 11 37 46 75 101
5 27 54 46 87 101
5 42 75 23 76 71
5 46 87 71 72 75
5 59 87 4 88 72
5 71 42 43 59 72
5 11 101 59 43 88
5 76 43 42 101 27
5 88 76 87 101 75
5 36 23 7 63 54
5 7 64 37 36 4
5 6 86 75 23 8
5 23 24 54 50 8
5 6 24 25 51 8
5 4 25 24 74 87
5 4 25 67 37 6
5 36 37 6 95 75
5 36 87 95 24 54
5 50 75 23 74 63
5 67 64 86 4 87
5 75 64 63 87 36
5 67 51 86 6 95
5 50 95 24 74 51
5 51 67 64 63 50
5 86 74 87 95 75
5 0 72 99 77 35
5 35 22 30 54 42
5 22 35 84 99 81
5 81 42 36 76 22
5 30 54 55 87 102
5 54 42 102 95 69
5 30 24 77 35 84
5 69 55 81 102 84
5 55 87 36 72 81
5 36 42 77 95 72
5 66 24 95 69 84
5 24 66 87 76 30
5 95 87 66 99 72
5 77 76 30 102 42
5 99 76 87 102 81
5 95 102 84 99 77
5 47 78 100 64 7
5 30 54 50 47 26
5 26 83 100 82 47
5 50 83 26 74 46
5 54 73 101 102 50
5 83 55 73 82 102
5 46 87 55 83 64
5 50 78 101 64 46
5 30 82 47 78 27
5 27 101 73 82 58
5 27 58 87 74 30
5 74 30 102 50 78
5 87 101 64 100 58
5 100 83 102 87 74
5 82 102 101 78 100
5 7 21 19 103 41
5 7 4 90 103 27
5 37 1 44 104 16
5 36 1 14 104 88
5 14 1 44 45 27
5 64 37 45 44 101
5 36 101 104 56 37
5 14 21 4 88 103
5 14 56 45 19 21
5 45 27 101 90 56
5 16 88 4 90 64
5 64 101 36 88 41
5 44 101 27 103 41
5 41 44 19 16 64
5 14 103 19 44 104
5 16 104 56 90 19
5 88 103 90 101 104
5 7 58 103 33 2
5 21 17 103 31 2
5 47 12 31 2 33
5 28 17 21 19 61
5 31 22 3 17 105
5 22 79 28 105 82
5 41 31 22 82 47
5 79 3 92 105 12
5 17 58 61 92 3
5 47 79 61 92 82
5 19 92 41 47 12
5 28 61 58 82 33
5 12 105 28 33 19
5 92 82 58 103 41
5 82 105 31 103 33
5 19 103 17 105 92
5 64 37 59 55 61
5 45 54 63 101 60
5 45 54 57 79 47
5 42 54 63 47 38
5 47 44 92 64 38
5 63 64 38 81 55
5 44 45 60 57 40
5 61 55 63 82 60
5 44 47 82 57 42
5 59 60 61 92 40
5 81 42 101 63 82
5 57 42 81 59 40
5 81 92 64 101 59
5 82 60 101 44 92
5 1 34 18 104 43
5 73 57 43 1 44
5 59 37 34 70 104
5 3 53 59 37 16
5 12 48 70 34 18
5 53 3 43 105 18
5 3 92 73 59 43
5 79 53 94 105 57
5 16 48 94 53 18
5 73 57 70 94 59
5 48 12 44 92 16
5 12 105 57 70 44
5 59 104 16 92 94
5 104 43 105 92 44
5 105 94 70 104 18
5 0 6 96 77 23
5 54 30 106 68 25
5 25 46 74 106 13
5 6 34 68 25 13
5 2 23 74 96 13
5 39 54 30 2 23
5 39 13 2 32 34
5 6 34 39 77 95
5 54 46 95 106 39
5 71 30 74 23 77
5 46 95 71 66 74
5 95 68 66 96 6
5 68 32 30 71 66
5 96 32 68 106 13
5 39 106 30 32 77
5 95 106 74 96 77
5 45 33 106 51 25
5 51 48 69 68 25
5 26 47 33 98 51
5 51 50 69 84 26
5 54 45 70 106 50
5 33 45 70 57 28
5 47 79 48 98 85
5 57 30 33 47 85
5 48 69 50 85 70
5 70 68 28 98 48
5 30 106 50 85 84
5 57 30 84 68 28
5 98 84 68 106 51
5 98 85 70 106 33
5 5 96 99 62 0
5 8 52 107 75 38
5 29 8 9 86 107
5 5 35 52 8 29
5 38 80 107 93 9
5 23 75 38 80 62
5 72 6 86 9 93
5 62 23 29 96 86
5 80 29 23 77 35
5 5 93 99 80 35
5 52 93 5 96 6
5 6 52 77 75 72
5 72 99 62 86 75
5 96 77 52 107 29
5 80 107 75 77 99
5 96 99 93 107 86
5 8 51 107 78 47
5 54 63 102 106 65
5 38 47 85 107 83
5 46 63 83 38 75
5 51 106 78 63 46
5 83 51 46 95 69
5 42 85 47 78 39
5 69 65 85 102 83
5 78 63 102 42 75
5 52 39 106 65 85
5 42 75 95 52 39
5 52 107 51 106 95
5 95 102 83 107 75
5 78 106 102 85 107
5 71 0 53 89 99
5 37 16 108 75 38
5 69 37 59 108 95
5 38 81 108 93 69
5 36 75 38 81 71
5 81 3 53 93 99
5 36 88 3 81 59
5 6 89 53 93 16
5 89 59 36 71 95
5 49 6 95 69 93
5 49 6 16 88 75
5 75 95 71 99 49
5 59 89 88 16 108
5 99 88 75 108 81
5 95 108 93 99 89
5 61 90 100 63 7
5 73 37 67 108 101
5 38 83 108 92 73
5 61 9 83 100 92
5 83 67 46 86 9
5 46 67 90 101 63
5 11 90 61 92 16
5 92 41 11 101 73
5 16 11 41 75 86
5 41 75 101 63 100
5 90 67 108 16 86
5 86 75 108 83 100
5 101 108 92 100 90
5 21 19 109 29 8
5 39 8 6 97 109
5 2 25 15 110 33
5 25 24 106 110 56
5 2 14 110 96 24
5 2 33 45 39 14
5 6 21 14 109 96
5 39 45 56 97 106
5 15 51 97 6 96
5 96 29 51 106 24
5 29 109 39 106 33
5 33 110 14 109 19
5 19 33 29 51 15
5 19 97 56 110 15
5 97 109 96 110 106
5 1 8 52 109 44
5 1 21 18 109 31
5 31 10 47 44 1
5 48 40 18 21 19
5 35 79 40 105 85
5 18 105 31 35 5
5 29 47 85 35 31
5 5 79 10 105 98
5 19 98 29 47 10
5 48 52 18 5 98
5 19 44 40 105 10
5 52 48 40 44 85
5 29 109 52 85 98
5 31 105 85 44 109
5 98 105 18 109 19
5 68 25 20 60 110
5 15 5 53 68 25
5 20 17 110 32 2
5 57 65 33 2 32
5 10 61 60 20 17
5 32 105 17 53 5
5 15 61 94 53 17
5 5 98 65 68 32
5 10 33 98 15 61
5 60 33 10 105 57
5 57 65 68 94 60
5 15 98 94 68 110
5 105 94 60 110 17
5 98 105 32 110 33
5 7 23 78 103 11
5 2 23 76 103 14
5 54 20 60 111 30
5 14 111 76 36 20
5 11 14 20 60 45
5 54 36 101 111 39
5 76 30 63 78 23
5 39 45 11 101 78
5 63 101 36 76 58
5 60 101 11 103 58
5 58 60 33 30 63
5 33 78 39 111 30
5 103 33 60 111 14
5 101 111 76 103 78
5 20 43 111 32 34
5 40 43 20 60 73
5 42 54 34 70 111
5 28 32 34 70 65
5 35 22 43 105 32
5 42 43 22 82 73
5 32 35 85 65 30
5 40 70 85 42 73
5 28 65 30 82 60
5 40 105 28 60 70
5 30 111 42 85 82
5 82 105 43 111 60
5 85 70 111 32 105
5 10 103 100 62 7
5 1 38 75 112 44
5 3 88 112 31 1
5 3 38 80 112 92
5 88 62 23 31 103
5 80 31 23 78 47
5 64 92 3 88 11
5 10 92 100 80 47
5 64 100 62 88 75
5 11 44 92 10 103
5 11 44 78 75 64
5 78 103 31 112 44
5 75 112 80 100 78
5 92 112 88 103 100
5 35 77 112 43 1
5 54 57 111 102 71
5 81 38 35 85 112
5 39 77 35 85 50
5 43 36 71 77 111
5 43 81 73 101 36
5 77 75 50 102 71
5 73 57 85 102 81
5 39 44 101 75 50
5 39 111 57 85 44
5 101 44 112 43 111
5 81 112 75 101 102
5 111 102 85 112 77
5 26 74 113 15 25
5 25 55 87 113 68
5 55 91 113 84 26
5 71 24 74 26 84
5 62 4 87 55 91
5 62 4 15 96 74
5 91 15 4 89 53
5 91 53 5 84 99
5 68 84 5 96 24
5 62 99 71 87 74
5 87 71 24 68 89
5 89 96 15 113 68
5 84 113 74 96 99
5 87 113 91 99 89
5 25 51 113 90 61
5 37 48 97 108 64
5 61 55 83 113 94
5 51 46 64 90 97
5 48 94 108 83 69
5 94 59 56 90 61
5 94 68 56 97 48
5 90 64 108 59 87
5 95 97 51 113 68
5 59 87 95 68 56
5 87 95 108 83 113
5 90 113 94 108 97
5 8 50 107 97 48
5 25 67 113 106 65
5 83 26 65 98 113
5 9 83 107 98 48
5 50 46 67 97 106
5 13 15 98 48 97
5 98 29 13 106 65
5 13 29 74 86 15
5 74 29 107 50 106
5 15 113 67 97 86
5 74 113 83 107 86
5 107 97 106 113 98
5 1 11 104 109 39
5 2 13 110 103 27
5 20 27 111 110 56
5 11 21 13 109 103
5 39 111 104 56 34
5 17 103 11 104 43
5 43 31 103 27 111
5 32 110 13 109 18
5 39 109 31 32 111
5 56 104 18 17 110
5 18 32 31 43 17
5 103 109 104 111 110
5 8 13 109 78 23
5 8 12 109 107 49
5 26 74 114 33 2
5 2 5 96 114 31
5 5 26 80 114 98
5 23 31 109 96 49
5 80 47 12 98 107
5 51 98 5 96 13
5 51 74 96 49 107
5 98 33 13 109 12
5 13 51 74 78 33
5 33 114 31 109 78
5 78 107 80 114 74
5 98 114 96 109 107
5 2 32 114 76 22
5 26 22 82 114 84
5 63 27 76 22 82
5 24 54 27 111 106
5 24 71 76 111 32
5 74 76 71 102 63
5 65 106 24 32 84
5 27 33 106 74 63
5 57 82 33 27 111
5 57 65 84 102 82
5 102 106 74 114 84
5 33 106 111 32 114
5 82 114 76 111 102
5 14 1 23 77 109
5 24 34 14 111 77
5 45 13 14 34 70
5 42 77 23 78 50
5 27 45 13 106 78
5 52 77 24 106 50
5 42 44 78 27 111
5 13 109 52 70 106
5 52 70 44 42 50
5 70 111 14 109 44
5 111 106 78 109 77
5 20 22 76 115 17
5 20 55 87 115 60
5 22 55 91 115 82
5 17 4 62 76 103
5 17 4 90 61 91
5 62 100 63 87 76
5 10 61 91 100 82
5 60 82 10 103 27
5 27 63 87 90 60
5 90 103 17 115 60
5 100 90 87 115 91
5 82 115 76 103 100
5 20 53 89 115 43
5 37 72 108 104 40
5 53 55 81 115 94
5 56 89 53 94 67
5 72 36 43 104 89
5 73 81 108 94 40
5 89 72 108 67 87
5 56 60 94 40 104
5 60 101 87 67 56
5 104 43 115 60 101
5 81 115 87 101 108
5 94 115 89 104 108
5 51 26 63 100 113
5 50 107 108 64 38
5 9 51 107 100 64
5 55 67 113 102 63
5 69 50 102 108 67
5 81 102 63 100 80
5 84 80 107 50 102
5 100 91 81 108 64
5 93 108 67 113 91
5 107 93 84 113 51
5 91 81 80 84 93
5 107 108 102 113 100
5 1 40 104 112 42
5 20 57 111 115 59
5 57 105 115 81 22
5 81 3 40 105 112
5 36 42 111 104 59
5 105 17 14 104 40
5 31 105 57 111 14
5 17 88 76 31 14
5 76 31 112 42 111
5 88 104 59 115 17
5 88 112 81 115 76
5 112 104 111 115 105
5 12 1 41 112 109
5 2 10 103 114 29
5 22 80 114 105 10
5 23 41 103 109 29
5 80 35 12 105 112
5 14 103 10 105 43
5 14 32 105 12 109
5 41 112 43 76 103
5 14 43 76 77 32
5 32 77 109 29 114
5 80 114 76 77 112
5 109 112 105 114 103
5 13 110 90 4 25
5 25 66 113 110 28
5 21 19 116 86 9
5 5 96 116 17 21
5 91 9 5 98 116
5 4 66 96 110 17
5 28 61 91 113 98
5 86 51 13 19 90
5 13 19 98 28 110
5 86 96 66 113 51
5 17 110 90 19 116
5 91 116 86 90 113
5 110 113 98 116 96
5 6 37 11 104 97
5 21 18 116 88 3
5 3 9 93 116 92
5 6 18 104 88 72
5 6 18 93 48 97
5 86 64 11 19 97
5 40 104 11 19 92
5 93 48 40 92 108
5 88 86 64 108 72
5 97 104 18 116 19
5 86 97 108 93 116
5 104 108 92 116 88
5 14 110 89 4 20
5 6 34 14 104 89
5 13 45 11 90 97
5 89 59 67 90 4
5 6 97 67 68 89
5 90 60 59 104 11
5 13 110 68 70 97
5 14 104 70 60 110
5 59 67 68 70 60
5 90 110 89 104 97
5 34 35 77 117 18
5 69 34 70 117 95
5 93 69 35 85 117
5 49 6 18 109 77
5 49 107 50 95 77
5 48 93 107 85 12
5 39 70 85 12 109
5 39 50 95 97 70
5 70 117 18 109 97
5 95 117 93 107 97
5 85 117 77 109 107
5 53 34 32 117 89
5 69 84 117 94 53
5 32 110 89 66 24
5 65 84 113 94 28
5 89 66 113 67 95
5 56 110 28 94 70
5 56 67 95 106 70
5 106 110 32 117 70
5 106 113 84 117 95
5 94 117 89 110 113
5 22 71 99 115 43
5 38 72 108 112 42
5 3 72 99 112 43
5 59 115 102 71 55
5 99 80 83 102 71
5 73 42 102 108 59
5 99 91 83 108 72
5 80 82 102 42 112
5 91 115 59 108 92
5 82 92 91 83 80
5 82 92 112 43 115
5 99 115 102 108 112
5 2 30 114 110 28
5 57 111 117 68 34
5 35 84 117 105 57
5 5 28 105 114 84
5 68 24 30 111 110
5 28 110 14 18 105
5 31 14 18 96 77
5 30 114 31 77 111
5 96 18 117 68 110
5 77 117 84 114 96
5 105 114 110 111 117
5 20 58 115 110 28
5 10 103 116 15 21
5 3 91 116 105 10
5 15 110 103 58 4
5 53 91 115 105 28
5 88 43 14 18 89
5 88 43 115 58 103
5 18 89 110 15 116
5 115 89 88 116 91
5 110 115 105 116 103
5 29 114 100 62 26
5 30 26 66 113 114
5 23 78 118 86 46
5 24 96 118 76 23
5 24 46 87 118 106
5 66 96 114 76 62
5 30 106 113 87 63
5 29 78 100 86 51
5 29 78 106 30 114
5 100 114 76 118 78
5 87 118 86 100 113
5 106 118 96 114 113
5 41 112 107 49 38
5 23 77 118 88 36
5 46 95 118 101 36
5 72 88 112 77 49
5 64 86 107 78 41
5 42 101 78 41 112
5 50 95 108 101 42
5 108 107 86 118 95
5 107 112 77 118 78
5 101 118 88 112 108
5 22 31 114 99 62
5 35 49 99 112 31
5 47 29 107 100 41
5 81 83 100 62 99
5 83 107 49 99 84
5 82 100 41 112 81
5 84 114 29 107 85
5 31 114 82 85 112
5 81 83 84 85 82
5 112 107 100 114 99
5 45 19 119 78 47
5 70 45 73 101 119
5 47 85 119 92 73
5 11 41 78 109 19
5 92 40 12 85 112
5 39 70 104 101 42
5 109 104 70 119 19
5 101 119 92 112 104
5 109 112 85 119 78
5 61 45 33 119 90
5 73 61 94 119 82
5 27 33 110 90 58
5 57 28 94 115 82
5 59 115 58 90 101
5 101 59 56 70 111
5 70 111 110 33 119
5 111 115 82 119 101
5 90 119 94 115 110
5 71 35 32 117 99
5 5 32 114 99 66
5 68 117 102 71 69
5 30 65 68 113 102
5 83 93 99 66 113
5 80 85 102 30 114
5 80 85 98 93 83
5 93 98 113 68 117
5 98 85 117 32 114
5 99 114 113 102 117
5 45 65 106 119 60
5 65 47 82 119 98
5 28 98 114 82 10
5 30 106 110 60 27
5 19 103 78 29 13
5 110 103 19 119 60
5 103 114 82 119 78
5 110 114 98 119 106
5 12 109 116 16 21
5 34 52 117 104 40
5 53 93 117 105 40
5 12 5 93 116 105
5 16 104 109 52 6
5 17 89 96 32 14
5 32 96 109 52 117
5 16 116 17 89 104
5 96 116 93 117 89
5 117 104 109 116 105
5 30 114 115 58 22
5 23 27 103 118 74
5 36 87 118 111 27
5 58 62 74 114 103
5 30 71 87 115 111
5 31 77 99 88 43
5 114 99 77 118 74
5 99 115 87 118 88
5 103 114 115 111 118
5 9 62 100 116 15
5 9 49 107 116 16
5 4 46 74 118 90
5 6 46 75 118 97
5 4 88 118 96 6
5 96 49 62 88 116
5 16 64 75 107 97
5 51 74 100 90 15
5 16 116 15 90 97
5 74 118 75 107 100
5 88 118 90 100 116
5 97 118 96 116 107
5 55 66 113 115 58
5 36 4 89 118 76
5 76 71 66 89 115
5 58 90 113 74 63
5 67 95 102 101 59
5 113 102 95 118 74
5 102 115 76 118 101
5 90 113 115 89 118
5 17 116 99 62 3
5 17 115 99 66 53
5 61 15 113 100 58
5 92 100 58 115 81
5 94 113 15 116 93
5 83 93 94 92 81
5 17 115 94 92 116
5 100 113 115 99 116
5 48 45 44 119 97
5 65 48 94 119 85
5 57 40 94 117 85
5 44 39 52 97 104
5 60 111 106 68 56
5 106 97 52 117 68
5 60 119 44 104 111
5 117 111 106 119 85
5 97 119 94 117 104
5 33 47 63 100 119
5 10 33 114 100 58
5 60 119 102 63 73
5 60 57 30 102 115
5 81 80 85 105 92
5 33 119 85 105 114
5 60 119 92 105 115
5 100 114 115 102 119
5 53 18 117 99 72
5 5 18 116 99 49
5 69 72 108 117 52
5 48 52 107 108 16
5 52 117 84 98 107
5 83 84 98 94 91
5 108 94 91 116 16
5 116 98 94 117 18
5 107 116 99 117 108
5 61 48 98 119 92
5 10 92 116 98 12
5 16 97 109 44 11
5 90 15 13 33 103
5 109 103 33 119 44
5 116 103 90 119 92
5 98 119 97 109 116
5 23 39 109 118 75
5 42 112 117 52 35
5 95 71 42 111 117
5 39 111 118 95 24
5 52 49 75 112 109
5 32 31 76 99 96
5 75 118 76 99 112
5 95 118 96 99 117
5 111 117 112 109 118
5 16 3 41 112 116
5 4 11 103 118 86
5 75 36 11 104 118
5 41 62 86 116 103
5 16 72 75 112 104
5 17 43 76 99 89
5 116 99 89 118 86
5 116 112 104 118 103
5 77 24 6 89 118
5 71 77 117 89 72
5 50 75 108 97 52
5 87 67 68 106 102
5 87 102 108 75 118
5 102 117 77 118 106
5 97 118 89 117 108
5 47 44 119 107 50
5 44 12 52 107 112
5 50 65 70 119 102
5 70 117 102 42 57
5 82 80 84 98 105
5 44 119 82 105 112
5 98 119 70 117 105
5 117 112 107 119 102
5 64 100 119 19 61
5 19 116 100 41 10
5 73 44 119 108 64
5 44 40 16 108 112
5 81 91 94 105 82
5 105 116 19 119 94
5 100 116 112 108 119
5 101 63 50 106 119
5 27 101 118 106 39
5 44 109 107 75 41
5 74 29 33 103 100
5 118 103 100 119 101
5 106 119 107 109 118
5 56 110 118 87 4
5 59 115 117 68 53
5 6 56 104 118 95
5 59 104 117 95 72
5 68 110 115 87 66
5 18 96 99 88 17
5 115 117 104 118 110
5 15 5 29 114 116
5 86 6 13 109 118
5 13 24 74 118 110
5 49 86 116 109 29
5 66 15 110 114 74
5 32 77 99 89 18
5 114 116 109 118 110
5 11 27 78 118 90
5 78 63 64 90 119
5 75 42 44 104 108
5 59 87 102 111 60
5 111 118 78 119 102
5 119 108 104 118 90
5 67 113 119 60 61
5 70 48 67 108 119
5 70 117 108 59 40
5 68 28 60 115 113
5 92 91 93 98 105
5 115 117 108 119 113
5 48 19 119 107 51
5 19 12 29 107 116
5 33 65 51 113 119
5 33 28 15 113 114
5 85 105 94 93 84
5 114 116 107 119 113
5 56 11 101 118 97
5 101 64 67 97 119
5 58 60 110 113 87
5 15 19 103 100 86
5 110 118 97 119 113
5 80 114 116 91 62
5 71 84 117 115 81
5 93 49 80 112 116
5 81 112 117 93 72
5 91 66 84 114 115
5 89 96 77 76 88
5 115 117 112 116 114
5 10 31 114 116 17
5 11 88 118 109 14
5 27 76 118 110 14
5 31 109 116 88 41
5 58 17 110 114 76
5 19 90 100 78 33
5 39 78 118 97 13
5 51 50 78 119 97
5 33 110 113 74 30
5 70 68 95 102 111
5 83 63 82 119 113
5 85 50 83 108 119
5 85 42 81 108 117
5 82 115 113 84 30
5 101 87 95 106 111
5 12 18 116 112 31
5 18 40 43 112 117
5 28 32 114 115 17
5 32 57 43 115 117
5 92 82 85 98 94
5 56 90 118 106 13
5 67 51 106 119 90
5 52 95 108 104 70
5 16 86 107 109 19
5 41 92 116 107 80
5 83 64 92 119 107
5 82 58 91 113 114
5 78 103 90 86 74
5 13 96 118 103 14
5 77 39 14 104 118
5 31 103 116 96 29
5 18 104 112 77 52
5 44 19 97 107 78
5 42 77 117 104 43
5 32 110 115 76 30
5 60 101 102 106 70
5 83 67 94 119 102
5 81 59 94 117 102
5 16 92 112 107 93
5 75 95 97 104 101
5 56 14 111 118 89
5 59 43 111 117 89
5 16 18 109 112 88
5 44 101 108 97 70
5 29 80 100 116 98
5 51 83 100 119 98
5 85 112 108 93 52
5 75 86 97 109 78
5 96 15 17 103 114
5 32 111 115 89 68
5 60 90 113 106 33
5 15 91 100 114 98
5 106 74 87 90 110
5 94 115 102 84 68
5 31 80 99 116 105
5 43 105 117 99 81
5 44 85 107 108 92
5 88 75 77 109 104
5 76 74 96 110 103
5 32 84 99 115 105
5 82 33 98 113 100
5 17 91 99 114 105
5 76 87 89 110 111
5 60 82 102 113 94
5 105 18 93 99 112
5 88 103 109 96 86
5 92 100 107 98 19
5 95 77 111 104 89
5 70 85 102 108 94
5 78 106 97 90 101

# Cells
24 0 1 2 3 4 5 6 7 8 9 10 11 12 13 14 15 16 17 18 19 20 21 22 23
24 24 25 26 27 28 29 30 31 32 33 34 35 36 37 38 39 40 41 42 43 44 45 46 47
24 26 48 49 50 51 52 53 54 55 56 57 58 59 60 61 62 63 64 65 66 67 68 69 70
24 32 71 72 73 74 75 76 77 78 79 80 81 82 83 84 85 86 87 88 89 90 91 92 93
24 2 49 94 95 96 97 98 99 100 101 102 103 104 105 106 107 108 109 110 111 112 113 114 115
24 54 98 116 117 118 119 120 121 122 123 124 125 126 127 128 129 130 131 132 133 134 135 136 137
24 7 75 138 139 140 141 142 143 144 145 146 147 148 149 150 151 152 153 154 155 156 157 158 159
24 1 25 76 146 160 161 162 163 164 165 166 167 168 169 170 171 172 173 174 175 176 177 178 179
24 77 125 142 180 181 182 183 184 185 186 187 188 189 190 191 192 193 194 195 196 197 198 199 200
24 10 105 120 151 181 201 202 203 204 205 206 207 208 209 210 211 212 213 214 215 216 217 218 219
24 6 30 53 99 169 220 221 222 223 224 225 226 227 228 229 230 231 232 233 234 235 236 237 238
24 34 57 81 122 187 239 240 241 242 243 244 245 246 247 248 249 250 251 252 253 254 255 256 257
24 0 252 258 259 260 261 262 263 264 265 266 267 268 269 270 271 272 273 274 275 276 277 278 279
24 51 124 244 259 280 281 282 283 284 285 286 287 288 289 290 291 292 293 294 295 296 297 298 299
24 73 185 241 264 300 301 302 303 304 305 306 307 308 309 310 311 312 313 314 315 316 317 318 319
24 28 78 247 258 308 320 321 322 323 324 325 326 327 328 329 330 331 332 333 334 335 336 337 338
24 118 183 246 267 291 311 339 340 341 342 343 344 345 346 347 348 349 350 351 352 353 354 355 356
24 31 55 249 263 288 330 357 358 359 360 361 362 363 364 365 366 367 368 369 370 371 372 373 374
24 16 39 63 85 107 127 149 172 193 211 231 250 375 376 377 378 379 380 381 382 383 384 385 386
24 24 214 260 387 388 389 390 391 392 393 394 395 396 397 398 399 400 401 402 403 404 405 406 407
24 95 129 206 320 388 408 409 410 411 412 413 414 415 416 417 418 419 420 421 422 423 424 425 426
24 140 190 203 357 392 427 428 429 430 431 432 433 434 435 436 437 438 439 440 441 442 443 444 445
24 4 147 208 281 321 387 439 446 447 448 449 450 451 452 453 454 455 456 457 458 459 460 461 462
24 121 188 210 352 395 415 433 463 464 465 466 467 468 469 470 471 472 473 474 475 476 477 478 479
24 8 100 213 300 358 391 420 454 480 481 482 483 484 485 486 487 488 489 490 491 492 493 494 495
24 48 155 262 430 446 496 497 498 499 500 501 502 503 504 505 506 507 508 509 510 511 512 513 514
24 83 144 161 280 409 496 515 516 517 518 519 520 521 522 523 524 525 526 527 528 529 530 531 532
24 80 152 192 314 438 502 526 533 534 535 536 537 538 539 540 541 542 543 544 545 546 547 548 549
24 11 153 170 340 361 455 499 524 550 551 552 553 554 555 556 557 558 559 560 561 562 563 564 565
24 3 27 347 471 516 566 567 568 569 570 571 572 573 574 575 576 577 578 579 580 581 582 583 584
24 132 160 282 344 408 468 498 567 585 586 587 588 589 590 591 592 593 594 595 596 597 598 599 600
24 195 220 301 341 427 465 535 571 601 602 603 604 605 606 607 608 609 610 611 612 613 614 615 616
24 96 162 261 309 349 447 566 609 617 618 619 620 621 622 623 624 625 626 627 628 629 630 631 632
24 139 222 265 289 353 481 569 593 621 633 634 635 636 637 638 639 640 641 642 643 644 645 646 647
24 71 111 266 411 480 504 602 648 649 650 651 652 653 654 655 656 657 658 659 660 661 662 663 664
24 60 103 221 302 428 517 572 648 665 666 667 668 669 670 671 672 673 674 675 676 677 678 679 680
24 58 109 134 295 419 534 552 591 653 674 681 682 683 684 685 686 687 688 689 690 691 692 693 694
24 13 106 229 324 343 488 533 650 672 695 696 697 698 699 700 701 702 703 704 705 706 707 708 709
24 88 94 305 322 390 515 538 585 710 711 712 713 714 715 716 717 718 719 720 721 722 723 724 725
24 35 90 171 332 464 482 521 634 683 711 726 727 728 729 730 731 732 733 734 735 736 737 738 739
24 5 50 312 410 541 603 617 710 740 741 742 743 744 745 746 747 748 749 750 751 752 753 754 755
24 202 225 268 315 331 551 622 684 718 741 756 757 758 759 760 761 762 763 764 765 766 767 768 769
24 52 163 323 389 437 474 568 608 698 770 771 772 773 774 775 776 777 778 779 780 781 782 783 784
24 72 223 360 393 418 476 554 570 592 759 771 785 786 787 788 789 790 791 792 793 794 795 796 797
24 116 176 269 397 518 550 605 656 726 798 799 800 801 802 803 804 805 806 807 808 809 810 811 812
24 41 164 224 339 412 431 732 743 798 813 814 815 816 817 818 819 820 821 822 823 824 825 826 827
24 15 167 227 284 304 463 558 702 800 820 828 829 830 831 832 833 834 835 836 837 838 839 840 841
24 65 138 285 359 394 601 665 682 715 803 842 843 844 845 846 847 848 849 850 851 852 853 854 855
24 37 62 230 368 448 467 537 618 670 817 844 856 857 858 859 860 861 862 863 864 865 866 867 868
24 9 74 293 429 586 633 685 745 815 842 869 870 871 872 873 874 875 876 877 878 879 880 881 882
24 165 205 270 292 366 540 637 696 774 847 870 883 884 885 886 887 888 889 890 891 892 893 894 895
24 29 97 283 434 497 544 606 740 770 829 896 897 898 899 900 901 902 903 904 905 906 907 908 909
24 228 240 396 443 456 503 639 681 727 761 772 897 910 911 912 913 914 915 916 917 918 919 920 921
24 117 226 363 484 500 520 547 636 712 742 789 896 922 923 924 925 926 927 928 929 930 931 932 933
24 180 235 271 399 506 588 666 695 716 814 830 856 934 935 936 937 938 939 940 941 942 943 944 945
24 12 119 333 432 574 667 714 728 756 874 946 947 948 949 950 951 952 953 954 955 956 957 958 959
24 102 143 272 328 364 470 757 831 884 899 948 960 961 962 963 964 965 966 967 968 969 970 971 972
24 43 201 325 362 501 587 604 652 730 813 858 946 963 973 974 975 976 977 978 979 980 981 982 983
24 33 141 303 416 589 649 688 785 832 869 900 962 984 985 986 987 988 989 990 991 992 993 994 995
24 168 243 398 422 489 536 625 654 786 857 888 985 996 997 998 999 1000 1001 1002 1003 1004 1005 1006 1007
24 365 376 486 556 573 615 624 686 729 744 773 898 1008 1009 1010 1011 1012 1013 1014 1015 1016 1017 1018 1019
24 166 184 326 450 620 651 669 692 776 845 871 984 1020 1021 1022 1023 1024 1025 1026 1027 1028 1029 1030 1031
24 14 182 369 413 519 576 748 843 860 883 960 973 1032 1033 1034 1035 1036 1037 1038 1039 1040 1041 1042 1043
24 36 123 306 457 505 555 577 668 910 953 988 1044 1045 1046 1047 1048 1049 1050 1051 1052 1053 1054 1055 1056
24 59 82 346 400 452 485 746 816 875 911 997 1046 1057 1058 1059 1060 1061 1062 1063 1064 1065 1066 1067 1068
24 19 239 449 483 553 590 607 697 713 828 846 975 1044 1057 1069 1070 1071 1072 1073 1074 1075 1076 1077 1078
24 56 204 342 527 699 717 734 779 799 886 922 947 1061 1079 1080 1081 1082 1083 1084 1085 1086 1087 1088 1089
24 101 242 466 507 528 559 627 801 859 923 966 999 1045 1080 1090 1091 1092 1093 1094 1095 1096 1097 1098 1099
24 329 378 453 542 575 597 638 701 787 861 872 986 1100 1101 1102 1103 1104 1105 1106 1107 1108 1109 1110 1111
24 104 186 286 451 623 737 802 818 904 949 974 1026 1079 1112 1113 1114 1115 1116 1117 1118 1119 1120 1121 1122
24 38 189 287 490 523 579 655 700 902 996 1037 1058 1069 1117 1123 1124 1125 1126 1127 1128 1129 1130 1131 1132
24 40 128 150 401 628 747 760 807 848 989 1008 1053 1133 1134 1135 1136 1137 1138 1139 1140 1141 1142 1143 1144
24 64 86 212 508 578 626 640 659 976 1009 1065 1083 1101 1135 1145 1146 1147 1148 1149 1150 1151 1152 1153 1154
24 275 375 417 435 522 619 635 671 758 819 885 961 1133 1145 1155 1156 1157 1158 1159 1160 1161 1162 1163 1164
24 79 207 345 557 675 762 792 849 863 934 1020 1032 1063 1085 1150 1165 1166 1167 1168 1169 1170 1171 1172 1173
24 148 245 469 642 657 676 704 731 915 936 968 1021 1095 1123 1166 1174 1175 1176 1177 1178 1179 1180 1181 1182
24 290 377 458 472 722 749 763 835 862 924 950 1081 1104 1134 1183 1184 1185 1186 1187 1188 1189 1190 1191 1192
24 126 145 307 487 641 821 864 928 935 977 991 1033 1052 1112 1141 1165 1193 1194 1195 1196 1197 1198 1199 1200
24 61 191 327 414 561 750 777 804 833 1025 1038 1047 1070 1090 1201 1202 1203 1204 1205 1206 1207 1208 1209 1210
24 42 108 194 402 643 719 873 887 905 940 1100 1119 1129 1146 1155 1211 1212 1213 1214 1215 1216 1217 1218 1219
24 17 87 131 273 658 780 806 877 901 913 954 1010 1220 1221 1222 1223 1224 1225 1226 1227 1228 1229 1230 1231
24 110 154 251 580 720 778 790 850 965 1011 1072 1094 1103 1147 1178 1222 1232 1233 1234 1235 1236 1237 1238 1239
24 294 313 380 404 525 673 775 788 834 912 998 1059 1158 1187 1220 1232 1240 1241 1242 1243 1244 1245 1246 1247
24 209 248 539 687 765 805 824 838 892 916 938 1003 1113 1193 1202 1248 1249 1250 1251 1252 1253 1254 1255 1256
24 310 379 473 491 733 837 852 876 890 1013 1022 1034 1167 1188 1211 1243 1257 1258 1259 1260 1261 1262 1263 1264
24 334 348 381 421 511 703 822 903 914 925 1048 1091 1106 1159 1221 1265 1266 1267 1268 1269 1270 1271 1272 1273
24 84 130 367 436 705 791 836 878 927 937 955 1071 1124 1174 1201 1228 1248 1274 1275 1276 1277 1278 1279 1280
24 66 173 196 510 594 766 781 942 951 964 1028 1136 1156 1183 1207 1281 1282 1283 1284 1285 1286 1287 1288 1289
24 18 67 197 274 509 752 793 939 987 1000 1039 1102 1208 1233 1240 1287 1290 1291 1292 1293 1294 1295 1296 1297
24 175 215 253 595 751 889 906 926 978 1002 1012 1073 1137 1185 1223 1253 1267 1298 1299 1300 1301 1302 1303 1304
24 350 382 543 562 689 706 952 969 981 1014 1036 1107 1114 1194 1269 1282 1305 1306 1307 1308 1309 1310 1311 1312
24 351 370 383 440 560 661 823 990 1001 1015 1023 1125 1160 1175 1271 1290 1310 1313 1314 1315 1316 1317 1318 1319
24 89 133 232 610 660 794 808 891 930 967 1035 1157 1212 1229 1257 1278 1281 1305 1320 1321 1322 1323 1324 1325
24 112 174 198 596 629 721 919 943 1029 1049 1060 1120 1218 1224 1241 1265 1288 1326 1327 1328 1329 1330 1331 1332
24 20 44 199 276 403 581 929 941 1041 1082 1092 1130 1184 1217 1266 1296 1298 1333 1334 1335 1336 1337 1338 1339
24 216 234 254 612 764 879 917 979 992 1024 1074 1105 1213 1254 1259 1292 1302 1315 1340 1341 1342 1343 1344 1345
24 384 475 545 690 735 865 1016 1050 1064 1077 1108 1127 1190 1203 1263 1274 1311 1327 1346 1347 1348 1349 1350 1351
24 316 372 385 441 492 677 810 1017 1084 1093 1115 1161 1204 1244 1249 1262 1318 1333 1352 1353 1354 1355 1356 1357
24 135 156 233 611 645 811 851 931 1004 1062 1126 1143 1198 1242 1291 1313 1324 1326 1346 1358 1359 1360 1361 1362
24 200 296 335 423 459 529 1018 1030 1042 1121 1131 1138 1148 1209 1225 1234 1299 1363 1364 1365 1366 1367 1368 1369
24 21 45 137 277 405 582 809 957 1027 1054 1142 1168 1176 1230 1258 1314 1339 1340 1370 1371 1372 1373 1374 1375
24 157 237 256 614 644 853 918 956 1075 1086 1116 1180 1186 1237 1284 1307 1335 1344 1354 1362 1376 1377 1378 1379
24 255 477 546 691 736 866 920 1006 1098 1139 1151 1163 1181 1215 1255 1283 1320 1351 1364 1380 1381 1382 1383 1384
24 297 336 386 424 460 530 944 1110 1162 1169 1177 1191 1195 1246 1250 1272 1275 1369 1370 1385 1386 1387 1388 1389
24 91 217 236 613 663 767 795 980 1051 1096 1152 1171 1205 1268 1325 1328 1334 1345 1347 1352 1390 1391 1392 1393
24 136 317 371 442 493 678 932 958 1055 1109 1149 1199 1214 1235 1279 1293 1341 1357 1363 1380 1394 1395 1396 1397
24 22 69 93 278 512 662 753 880 1066 1118 1153 1197 1231 1251 1297 1306 1353 1376 1385 1398 1399 1400 1401 1402
24 113 178 257 599 630 724 1005 1040 1076 1097 1170 1196 1238 1260 1303 1308 1321 1332 1372 1388 1399 1403 1404 1405
24 219 355 548 563 693 707 768 894 1088 1172 1226 1236 1245 1256 1294 1312 1329 1359 1366 1395 1406 1407 1408 1409
24 68 177 218 513 598 782 893 982 1087 1128 1154 1179 1276 1289 1304 1316 1348 1358 1371 1386 1410 1411 1412 1413
24 92 354 373 444 564 796 825 881 1067 1140 1173 1189 1280 1285 1300 1319 1336 1365 1377 1381 1414 1415 1416 1417
24 46 114 158 406 723 854 907 971 993 1144 1206 1219 1239 1252 1277 1349 1355 1387 1390 1398 1410 1418 1419 1420
24 159 318 478 494 646 738 839 970 994 1182 1200 1227 1264 1270 1301 1330 1337 1367 1391 1406 1415 1421 1422 1423
24 70 337 356 425 708 754 783 826 1068 1089 1210 1216 1261 1273 1322 1342 1373 1382 1394 1403 1424 1425 1426 1427
24 47 299 319 531 583 679 841 908 995 1056 1132 1247 1286 1309 1323 1378 1383 1400 1404 1414 1424 1428 1429 1430
24 115 298 461 479 631 840 867 909 972 1099 1122 1192 1295 1317 1343 1360 1374 1396 1407 1411 1425 1431 1432 1433
24 23 426 445 532 584 680 755 827 882 959 1043 1164 1331 1350 1361 1393 1408 1412 1418 1421 1431 1434 1435 1436
24 179 338 462 549 632 709 784 868 895 1007 1031 1111 1338 1356 1379 1392 1401 1416 1419 1423 1429 1434 1437 1438
24 279 407 514 600 616 664 725 812 855 945 983 1078 1368 1384 1397 1409 1417 1422 1427 1428 1432 1435 1437 1439
24 238 374 495 565 647 694 739 769 797 921 933 1019 1375 1389 1402 1405 1413 1420 1426 1430 1433 1436 1438 1439
