# Generated using Miratope v0.5.0 (https://github.com/galoomba1/miratope-rs)
4OFF

# Vertices, Faces, Edges, Cells
120 360 480 120

# Vertices
0.809016994374945 -0.809016994374945 -0.809016994374945 0.809016994374945 
1.30901699437495 -0.809016994374945 0.5 0 
0.809016994374945 0.5 -1.30901699437495 0 
-0.5 -1.30901699437495 -0.809016994374945 0 
0 0 0 -1.61803398874989 
1.30901699437495 0.5 0 -0.809016994374945 
0 -1.30901699437495 0.5 -0.809016994374945 
-0.5 0 -1.30901699437495 -0.809016994374945 
0.809016994374945 0.809016994374945 -0.809016994374945 0.809016994374945 
1.30901699437495 0 -0.809016994374945 -0.5 
-0.5 1.30901699437495 -0.809016994374945 0 
0 -0.5 -0.809016994374945 1.30901699437495 
-0.809016994374945 -0.809016994374945 -0.809016994374945 -0.809016994374945 
-1.30901699437495 0 -0.809016994374945 0.5 
0.5 -1.30901699437495 -0.809016994374945 0 
0 0.5 -0.809016994374945 -1.30901699437495 
0.809016994374945 -0.809016994374945 0.809016994374945 -0.809016994374945 
0 -0.809016994374945 1.30901699437495 0.5 
1.30901699437495 -0.809016994374945 -0.5 0 
-0.5 -0.809016994374945 0 -1.30901699437495 
-0.809016994374945 -0.809016994374945 -0.809016994374945 0.809016994374945 
0.5 -0.809016994374945 0 1.30901699437495 
-1.30901699437495 -0.809016994374945 0.5 0 
0 -0.809016994374945 -1.30901699437495 -0.5 
-0.809016994374945 0.809016994374945 0.809016994374945 -0.809016994374945 
0.5 0 1.30901699437495 -0.809016994374945 
0 1.30901699437495 -0.5 -0.809016994374945 
-1.30901699437495 -0.5 0 -0.809016994374945 
0.809016994374945 -0.809016994374945 -0.809016994374945 -0.809016994374945 
0.809016994374945 -0.809016994374945 0.809016994374945 0.809016994374945 
0.809016994374945 0.5 1.30901699437495 0 
0.809016994374945 0 -0.5 1.30901699437495 
0.809016994374945 -1.30901699437495 0 -0.5 
0.809016994374945 0.809016994374945 -0.809016994374945 -0.809016994374945 
0.809016994374945 1.30901699437495 0 0.5 
0.809016994374945 0 0.5 -1.30901699437495 
0.809016994374945 -0.5 -1.30901699437495 0 
-0.809016994374945 0.809016994374945 -0.809016994374945 0.809016994374945 
-0.809016994374945 0 0.5 1.30901699437495 
0.5 0 -1.30901699437495 0.809016994374945 
-1.30901699437495 0 -0.809016994374945 -0.5 
0 -1.61803398874989 0 0 
-1.30901699437495 0.5 0 -0.809016994374945 
-0.809016994374945 -1.30901699437495 0 0.5 
0.5 -0.809016994374945 0 -1.30901699437495 
0 0 1.61803398874989 0 
-1.30901699437495 0 0.809016994374945 0.5 
0.5 -1.30901699437495 0.809016994374945 0 
0 0.5 0.809016994374945 -1.30901699437495 
0 1.30901699437495 0.5 -0.809016994374945 
0 0.809016994374945 -1.30901699437495 0.5 
0 -0.5 -0.809016994374945 -1.30901699437495 
-1.61803398874989 0 0 0 
-0.809016994374945 1.30901699437495 0 0.5 
-0.809016994374945 0 0.5 -1.30901699437495 
-0.809016994374945 -0.5 -1.30901699437495 0 
0.809016994374945 0.809016994374945 0.809016994374945 0.809016994374945 
1.30901699437495 -0.5 0 0.809016994374945 
0.809016994374945 1.30901699437495 0 -0.5 
-0.5 0.809016994374945 0 1.30901699437495 
0 0 -1.61803398874989 0 
-0.809016994374945 -0.809016994374945 0.809016994374945 0.809016994374945 
0 0.5 0.809016994374945 1.30901699437495 
0 -0.809016994374945 1.30901699437495 -0.5 
0 -1.30901699437495 -0.5 0.809016994374945 
1.61803398874989 0 0 0 
1.30901699437495 0 0.809016994374945 0.5 
-0.5 0 1.30901699437495 -0.809016994374945 
0.809016994374945 0 -0.5 -1.30901699437495 
0 1.61803398874989 0 0 
0 0.809016994374945 1.30901699437495 0.5 
1.30901699437495 0.809016994374945 -0.5 0 
-0.5 0.809016994374945 0 -1.30901699437495 
-0.809016994374945 0.5 1.30901699437495 0 
-0.809016994374945 0 -0.5 1.30901699437495 
-0.809016994374945 -1.30901699437495 0 -0.5 
-0.809016994374945 0.809016994374945 -0.809016994374945 -0.809016994374945 
-0.809016994374945 0.809016994374945 0.809016994374945 0.809016994374945 
0.5 0 1.30901699437495 0.809016994374945 
0 1.30901699437495 -0.5 0.809016994374945 
-1.30901699437495 -0.5 0 0.809016994374945 
1.30901699437495 0.5 0 0.809016994374945 
0 -1.30901699437495 0.5 0.809016994374945 
-0.5 0 -1.30901699437495 0.809016994374945 
0.809016994374945 0.809016994374945 0.809016994374945 -0.809016994374945 
0.5 0.809016994374945 0 1.30901699437495 
-1.30901699437495 0.809016994374945 0.5 0 
0 0.809016994374945 -1.30901699437495 -0.5 
1.30901699437495 0 0.809016994374945 -0.5 
-0.5 1.30901699437495 0.809016994374945 0 
0 -0.5 0.809016994374945 1.30901699437495 
-0.809016994374945 -0.809016994374945 0.809016994374945 -0.809016994374945 
0.5 1.30901699437495 0.809016994374945 0 
-0.809016994374945 -0.5 1.30901699437495 0 
-1.30901699437495 0.809016994374945 -0.5 0 
0 0 0 1.61803398874989 
1.30901699437495 -0.5 0 -0.809016994374945 
0.809016994374945 -1.30901699437495 0 0.5 
0 -0.5 0.809016994374945 -1.30901699437495 
0.5 0 -1.30901699437495 -0.809016994374945 
-0.5 -1.30901699437495 0.809016994374945 0 
0 -0.809016994374945 -1.30901699437495 0.5 
-1.30901699437495 -0.809016994374945 -0.5 0 
-0.809016994374945 0 -0.5 -1.30901699437495 
1.30901699437495 0 -0.809016994374945 0.5 
0.5 1.30901699437495 -0.809016994374945 0 
0.5 0.809016994374945 0 -1.30901699437495 
-0.809016994374945 0.5 -1.30901699437495 0 
0 -1.30901699437495 -0.5 -0.809016994374945 
1.30901699437495 0.809016994374945 0.5 0 
0.809016994374945 -0.5 1.30901699437495 0 
0 0.5 -0.809016994374945 1.30901699437495 
-0.5 -0.809016994374945 0 1.30901699437495 
0.809016994374945 0 0.5 1.30901699437495 
-0.809016994374945 1.30901699437495 0 -0.5 
-1.30901699437495 0 0.809016994374945 -0.5 
0 0.809016994374945 1.30901699437495 -0.5 
-1.30901699437495 0.5 0 0.809016994374945 
-0.5 0 1.30901699437495 0.809016994374945 
0 1.30901699437495 0.5 0.809016994374945 

# Faces
4 1 0 2 5
4 0 1 6 3
4 0 2 7 3
4 5 1 6 4
4 5 4 7 2
4 6 3 7 4
4 8 10 15 9
4 8 9 14 11
4 8 11 13 10
4 12 13 11 14
4 12 13 10 15
4 14 12 15 9
4 16 17 21 18
4 17 16 19 22
4 16 19 23 18
4 20 21 17 22
4 21 20 23 18
4 22 19 23 20
4 25 5 26 24
4 24 25 6 27
4 26 24 27 7
4 5 25 6 28
4 5 26 7 28
4 28 7 27 6
4 29 31 34 30
4 30 35 32 29
4 31 29 32 36
4 34 30 35 33
4 33 36 31 34
4 35 32 36 33
4 38 37 39 21
4 38 22 40 37
4 37 39 23 40
4 41 21 38 22
4 21 39 23 41
4 22 41 23 40
4 42 46 43 12
4 42 12 44 48
4 43 47 44 12
4 45 46 43 47
4 46 45 48 42
4 47 45 48 44
4 33 49 53 50
4 49 54 51 33
4 50 33 51 55
4 52 54 49 53
4 53 52 55 50
4 52 54 51 55
4 57 56 58 9
4 56 57 11 59
4 58 10 59 56
4 60 9 58 10
4 9 60 11 57
4 10 60 11 59
4 61 62 30 63
4 62 31 64 61
4 61 64 32 63
4 30 65 31 62
4 30 65 32 63
4 31 64 32 65
4 66 16 67 70
4 16 68 71 66
4 16 68 72 67
4 70 66 71 69
4 70 69 72 67
4 71 68 72 69
4 73 61 74 53
4 61 73 54 75
4 61 75 55 74
4 53 76 54 73
4 76 55 74 53
4 54 76 55 75
4 77 79 81 78
4 77 80 82 78
4 77 79 83 80
4 0 82 78 81
4 81 79 83 0
4 0 82 80 83
4 70 84 71 85
4 70 86 72 84
4 84 71 87 72
4 85 37 86 70
4 37 85 71 87
4 86 37 87 72
4 56 88 48 89
4 56 88 47 90
4 56 89 46 90
4 91 47 90 46
4 46 91 48 89
4 91 47 88 48
4 92 24 93 78
4 92 79 94 24
4 24 93 80 94
4 95 78 92 79
4 95 78 93 80
4 95 79 94 80
4 42 13 43 91
4 91 42 15 44
4 43 14 44 91
4 13 43 14 60
4 60 15 42 13
4 60 15 44 14
4 28 2 81 1
4 28 1 82 3
4 2 83 3 28
4 81 95 82 1
4 95 83 2 81
4 95 82 3 83
4 49 34 50 76
4 49 76 51 35
4 76 50 36 51
4 65 34 49 35
4 34 50 36 65
4 65 35 51 36
4 84 66 17 67
4 66 84 68 18
4 84 67 19 68
4 41 18 66 17
4 17 41 19 67
4 41 19 68 18
4 57 88 58 8
4 8 59 90 57
4 8 59 89 58
4 45 89 58 88
4 45 90 57 88
4 45 89 59 90
4 92 77 93 25
4 92 77 94 26
4 77 94 27 93
4 4 26 92 25
4 25 4 27 93
4 4 27 94 26
4 29 63 73 62
4 29 64 74 62
4 29 63 75 64
4 52 73 62 74
4 73 63 75 52
4 52 74 64 75
4 38 85 39 20
4 38 86 40 20
4 20 40 87 39
4 69 85 38 86
4 69 85 39 87
4 86 40 87 69
4 41 20 39 18
4 40 19 41 20
4 18 39 87 68
4 68 87 40 19
4 97 96 98 100
4 97 96 99 101
4 96 98 103 99
4 97 100 102 101
4 98 100 102 103
4 99 103 102 101
4 76 33 35 54
4 55 36 33 76
4 32 75 54 35
4 75 32 36 55
4 60 12 43 11
4 44 9 60 12
4 47 57 9 44
4 11 43 47 57
4 105 106 96 104
4 104 101 107 105
4 96 104 101 108
4 105 107 103 106
4 106 103 108 96
4 107 103 108 101
4 47 14 12 91
4 15 48 91 12
4 9 88 47 14
4 9 88 48 15
4 31 50 33 65
4 51 32 65 33
4 64 55 50 31
4 51 32 64 55
4 35 63 29 65
4 64 36 65 29
4 75 51 35 63
4 75 51 36 64
4 16 84 71 18
4 16 84 72 19
4 23 87 71 18
4 23 87 72 19
4 21 66 16 41
4 16 41 23 68
4 66 21 39 71
4 39 71 68 23
4 60 8 57 14
4 15 58 8 60
4 88 44 14 57
4 44 88 58 15
4 110 97 104 109
4 109 106 98 110
4 104 109 106 99
4 97 110 98 108
4 104 99 108 97
4 98 108 99 106
4 28 0 82 6
4 7 83 0 28
4 27 80 82 6
4 7 83 80 27
4 22 67 16 41
4 22 67 72 40
4 72 40 23 68
4 26 2 28 4
4 4 28 3 27
4 94 83 2 26
4 83 94 27 3
4 111 104 97 112
4 111 104 99 107
4 112 111 107 102
4 112 97 108 102
4 108 102 107 99
4 10 42 12 60
4 48 58 9 44
4 10 42 48 58
4 28 4 25 1
4 82 93 25 1
4 3 27 93 82
4 109 113 111 105
4 113 97 96 109
4 109 96 99 105
4 97 113 111 101
4 111 101 99 105
4 28 0 81 5
4 81 5 25 78
4 25 78 82 6
4 1 25 92 81
4 2 26 92 81
4 110 96 104 113
4 110 113 112 100
4 101 112 113 104
4 96 110 100 108
4 101 112 100 108
4 5 81 79 26
4 79 26 7 83
4 33 65 30 49
4 63 54 49 30
4 51 32 63 54
4 106 114 115 98
4 99 107 114 106
4 102 115 114 107
4 108 102 115 98
4 74 50 76 52
4 75 51 76 52
4 50 74 64 36
4 54 63 61 52
4 61 52 55 64
4 8 56 88 9
4 8 56 90 11
4 47 14 11 90
4 85 66 84 69
4 87 68 84 69
4 85 66 18 39
4 57 47 45 56
4 56 45 48 58
4 61 29 31 74
4 75 32 29 61
4 74 31 36 55
4 96 106 116 110
4 110 100 115 116
4 106 103 115 116
4 108 100 115 103
4 37 69 71 39
4 72 40 37 69
4 85 21 20 37
4 37 20 23 87
4 71 18 21 85
4 109 116 114 105
4 98 116 109 96
4 103 114 116 98
4 99 105 114 103
4 43 90 45 91
4 88 44 91 45
4 14 57 90 43
4 6 93 24 4
4 4 24 94 7
4 80 3 6 93
4 7 94 80 3
4 20 37 86 22
4 19 72 86 22
4 100 115 117 112
4 101 107 117 112
4 107 117 115 103
4 62 34 65 29
4 74 50 34 62
4 10 89 56 8
4 10 89 48 15
4 109 116 118 113
4 97 100 118 113
4 98 116 118 100
4 17 38 20 41
4 17 38 85 66
4 5 92 24 4
4 92 5 1 78
4 6 93 78 1
4 109 104 111 119
4 109 119 114 106
4 107 111 119 114
4 60 8 59 13
4 13 59 90 43
4 79 2 5 92
4 2 79 94 7
4 30 73 61 29
4 30 73 54 35
4 78 1 0 95
4 95 0 2 79
4 16 84 70 17
4 21 85 70 17
4 113 110 116 119
4 104 113 119 105
4 106 116 119 105
4 52 76 49 73
4 35 63 73 49
4 12 91 46 13
4 11 90 46 13
4 111 117 114 105
4 101 111 117 102
4 114 103 102 117
4 84 69 86 67
4 40 19 67 86
4 95 0 3 80
4 110 118 112 97
4 110 98 115 118
4 102 115 118 112
4 89 42 91 45
4 58 15 42 89
4 34 53 76 33
4 34 53 74 31
4 109 110 118 119
4 112 118 119 111
4 34 62 73 49
4 53 62 30 49
4 53 62 31 50
4 10 89 46 13
4 67 86 38 17
4 46 59 10 42
4 59 46 43 11
4 53 34 30 73
4 112 113 119 117
4 105 119 117 107
4 21 66 70 38
4 67 22 38 70
4 22 86 70 17
4 113 118 117 111
4 100 118 117 102
4 89 42 13 59
4 24 77 78 25
4 79 26 24 77
4 37 69 70 38
4 81 92 77 95
4 77 95 82 93
4 114 115 118 119
4 59 46 45 56
4 94 83 95 77
4 114 117 118 116
4 77 24 27 80
4 115 116 119 117
4 52 61 62 53

# Cells
6 0 1 2 3 4 5
6 6 7 8 9 10 11
6 12 13 14 15 16 17
6 18 19 20 21 22 23
6 24 25 26 27 28 29
6 30 31 32 33 34 35
6 36 37 38 39 40 41
6 42 43 44 45 46 47
6 48 49 50 51 52 53
6 54 55 56 57 58 59
6 60 61 62 63 64 65
6 66 67 68 69 70 71
6 72 73 74 75 76 77
6 78 79 80 81 82 83
6 84 85 86 87 88 89
6 90 91 92 93 94 95
6 96 97 98 99 100 101
6 102 103 104 105 106 107
6 108 109 110 111 112 113
6 114 115 116 117 118 119
6 120 121 122 123 124 125
6 126 127 128 129 130 131
6 132 133 134 135 136 137
6 138 139 140 141 142 143
6 119 140 144 145 146 147
6 148 149 150 151 152 153
6 29 71 154 155 156 157
6 38 52 158 159 160 161
6 162 163 164 165 166 167
6 11 89 168 169 170 171
6 44 59 172 173 174 175
6 113 134 176 177 178 179
6 14 80 180 181 182 183
6 34 61 184 185 186 187
6 101 120 188 189 190 191
6 192 193 194 195 196 197
6 23 77 198 199 200 201
6 35 62 185 202 203 204
6 104 131 205 206 207 208
6 196 209 210 211 212 213
6 37 51 159 214 215 216
6 103 130 206 217 218 219
6 149 220 221 222 223 224
6 21 75 198 225 226 227
6 102 129 205 217 228 229
6 164 230 231 232 233 234
6 22 76 199 225 235 236
6 43 58 173 237 238 239
6 197 213 240 241 242 243
6 110 137 179 244 245 246
6 47 56 175 239 247 248
6 7 85 170 249 250 251
6 115 142 146 252 253 254
6 41 48 160 215 255 256
6 26 68 157 257 258 259
6 166 233 260 261 262 263
6 32 65 187 204 264 265
6 16 82 182 266 267 268
6 150 222 269 270 271 272
6 98 124 190 273 274 275
6 5 92 276 277 278 279
6 17 83 183 267 280 281
6 167 234 263 282 283 284
6 112 133 177 246 285 286
6 6 84 171 249 287 288
6 148 221 270 289 290 291
6 117 138 144 254 292 293
6 3 90 276 294 295 296
6 194 210 241 297 298 299
6 99 121 188 275 300 301
6 4 91 277 294 302 303
6 25 67 156 258 304 305
6 0 93 295 302 306 307
6 12 78 180 268 308 309
6 162 230 260 310 311 312
6 109 136 178 245 313 314
6 9 87 168 251 315 316
6 153 224 272 317 318 319
6 116 143 147 253 320 321
6 2 95 279 303 307 322
6 195 212 243 323 324 325
6 97 123 191 274 326 327
6 1 94 278 296 306 322
6 28 70 155 259 328 329
6 192 209 297 323 330 331
6 111 132 176 285 314 332
6 42 57 172 237 333 334
6 10 88 169 288 315 335
6 118 139 145 292 321 336
6 36 53 158 214 337 338
6 27 69 154 305 328 339
6 163 232 283 311 340 341
6 33 60 184 202 342 343
6 13 79 181 281 308 344
6 151 223 290 318 345 346
6 100 122 189 300 327 347
6 18 72 226 235 348 349
6 30 63 186 264 342 350
6 105 126 218 228 351 352
6 193 240 298 324 330 353
6 39 49 161 255 338 354
6 106 127 207 229 351 355
6 152 271 291 319 346 356
6 20 74 201 236 349 357
6 107 128 208 219 352 355
6 165 262 284 312 341 358
6 19 73 200 227 348 357
6 46 55 174 248 334 359
6 114 141 252 293 320 336
6 220 269 289 317 345 356
6 24 66 257 304 329 339
6 40 50 216 256 337 354
6 231 261 282 310 340 358
6 8 86 250 287 316 335
6 45 54 238 247 333 359
6 108 135 244 286 313 332
6 15 81 266 280 309 344
6 31 64 203 265 343 350
6 96 125 273 301 326 347
6 211 242 299 325 331 353
