# Generated using Miratope v0.5.0 (https://github.com/galoomba1/miratope-rs)
4OFF

# Vertices, Faces, Edges, Cells
120 1440 1200 120

# Vertices
0.809016994374945 0.809016994374945 0.809016994374945 0.809016994374945 
0.809016994374945 0.809016994374945 0.809016994374945 -0.809016994374945 
0.809016994374945 0.809016994374945 -0.809016994374945 0.809016994374945 
0.809016994374945 -0.809016994374945 0.809016994374945 0.809016994374945 
0.809016994374945 1.30901699437495 0 -0.5 
0.809016994374945 -0.5 1.30901699437495 0 
0.809016994374945 0 -0.5 1.30901699437495 
0.809016994374945 0.809016994374945 -0.809016994374945 -0.809016994374945 
0.809016994374945 -0.809016994374945 0.809016994374945 -0.809016994374945 
0.809016994374945 1.30901699437495 0 0.5 
0.809016994374945 0 -0.5 -1.30901699437495 
0.809016994374945 -0.809016994374945 -0.809016994374945 0.809016994374945 
0.809016994374945 0 0.5 1.30901699437495 
0.809016994374945 -0.5 -1.30901699437495 0 
0.809016994374945 0.5 1.30901699437495 0 
0.809016994374945 -1.30901699437495 0 -0.5 
0.809016994374945 -0.809016994374945 -0.809016994374945 -0.809016994374945 
0.809016994374945 0 0.5 -1.30901699437495 
0.809016994374945 0.5 -1.30901699437495 0 
0.809016994374945 -1.30901699437495 0 0.5 
0 -1.61803398874989 0 0 
1.30901699437495 0.5 0 0.809016994374945 
1.30901699437495 0 -0.809016994374945 -0.5 
0 -1.30901699437495 0.5 0.809016994374945 
1.30901699437495 0.5 0 -0.809016994374945 
1.30901699437495 0 -0.809016994374945 0.5 
0 -1.30901699437495 0.5 -0.809016994374945 
0.5 -0.809016994374945 0 1.30901699437495 
0 -0.809016994374945 1.30901699437495 0.5 
0 -0.809016994374945 1.30901699437495 -0.5 
0.5 -0.809016994374945 0 -1.30901699437495 
1.30901699437495 0.809016994374945 0.5 0 
0.5 0 1.30901699437495 0.809016994374945 
0.5 0 1.30901699437495 -0.809016994374945 
0.5 -1.30901699437495 -0.809016994374945 0 
0 0 1.61803398874989 0 
1.30901699437495 0.809016994374945 -0.5 0 
1.30901699437495 -0.5 0 0.809016994374945 
0 0.809016994374945 1.30901699437495 -0.5 
1.30901699437495 -0.809016994374945 -0.5 0 
0.5 1.30901699437495 0.809016994374945 0 
0.5 -1.30901699437495 0.809016994374945 0 
0 0.5 0.809016994374945 -1.30901699437495 
0 -0.5 0.809016994374945 -1.30901699437495 
0.5 0.809016994374945 0 -1.30901699437495 
0 0 0 1.61803398874989 
-0.5 1.30901699437495 0.809016994374945 0 
-0.5 0.809016994374945 0 1.30901699437495 
-0.5 -0.809016994374945 0 1.30901699437495 
-0.5 -1.30901699437495 0.809016994374945 0 
0 1.30901699437495 0.5 0.809016994374945 
-1.30901699437495 0.5 0 0.809016994374945 
-1.30901699437495 -0.5 0 0.809016994374945 
-0.5 0 1.30901699437495 -0.809016994374945 
-1.30901699437495 0.809016994374945 0.5 0 
-1.30901699437495 0 0.809016994374945 -0.5 
-1.30901699437495 -0.809016994374945 0.5 0 
-0.809016994374945 0.809016994374945 0.809016994374945 0.809016994374945 
1.30901699437495 0 0.809016994374945 -0.5 
0 -0.5 0.809016994374945 1.30901699437495 
-0.809016994374945 0.809016994374945 0.809016994374945 -0.809016994374945 
1.30901699437495 0 0.809016994374945 0.5 
-0.809016994374945 -0.809016994374945 0.809016994374945 0.809016994374945 
0 0.5 0.809016994374945 1.30901699437495 
-0.809016994374945 -0.809016994374945 0.809016994374945 -0.809016994374945 
-1.30901699437495 0 0.809016994374945 0.5 
-0.809016994374945 0.5 1.30901699437495 0 
-0.809016994374945 -1.30901699437495 0 0.5 
1.30901699437495 -0.809016994374945 0.5 0 
0 0.809016994374945 1.30901699437495 0.5 
-0.809016994374945 0 0.5 1.30901699437495 
-0.5 0 1.30901699437495 0.809016994374945 
0 1.30901699437495 -0.5 0.809016994374945 
-0.809016994374945 0.809016994374945 -0.809016994374945 0.809016994374945 
-0.5 0 -1.30901699437495 0.809016994374945 
0 -1.30901699437495 -0.5 0.809016994374945 
-0.809016994374945 -0.809016994374945 -0.809016994374945 0.809016994374945 
0.5 0 -1.30901699437495 0.809016994374945 
1.61803398874989 0 0 0 
0 0.809016994374945 -1.30901699437495 0.5 
-0.809016994374945 0 -0.5 1.30901699437495 
0 -0.809016994374945 -1.30901699437495 0.5 
0 0.5 -0.809016994374945 1.30901699437495 
0.5 0.809016994374945 0 1.30901699437495 
-0.5 1.30901699437495 -0.809016994374945 0 
0.5 1.30901699437495 -0.809016994374945 0 
-0.809016994374945 1.30901699437495 0 -0.5 
0 1.30901699437495 0.5 -0.809016994374945 
0 1.30901699437495 -0.5 -0.809016994374945 
-0.809016994374945 1.30901699437495 0 0.5 
0 1.61803398874989 0 0 
0 -0.5 -0.809016994374945 1.30901699437495 
-1.30901699437495 0.809016994374945 -0.5 0 
-1.30901699437495 0 -0.809016994374945 0.5 
-1.61803398874989 0 0 0 
-0.809016994374945 -0.5 1.30901699437495 0 
1.30901699437495 -0.5 0 -0.809016994374945 
-0.5 0.809016994374945 0 -1.30901699437495 
-0.809016994374945 0 0.5 -1.30901699437495 
-1.30901699437495 0.5 0 -0.809016994374945 
0 0 -1.61803398874989 0 
0 0.809016994374945 -1.30901699437495 -0.5 
0.5 0 -1.30901699437495 -0.809016994374945 
-0.809016994374945 0.809016994374945 -0.809016994374945 -0.809016994374945 
-0.809016994374945 0 -0.5 -1.30901699437495 
-0.809016994374945 -0.5 -1.30901699437495 0 
-0.809016994374945 -1.30901699437495 0 -0.5 
-0.809016994374945 -0.809016994374945 -0.809016994374945 -0.809016994374945 
-0.809016994374945 0.5 -1.30901699437495 0 
-1.30901699437495 0 -0.809016994374945 -0.5 
-0.5 -0.809016994374945 0 -1.30901699437495 
-0.5 -1.30901699437495 -0.809016994374945 0 
-1.30901699437495 -0.5 0 -0.809016994374945 
-1.30901699437495 -0.809016994374945 -0.5 0 
0 0 0 -1.61803398874989 
-0.5 0 -1.30901699437495 -0.809016994374945 
0 -1.30901699437495 -0.5 -0.809016994374945 
0 -0.809016994374945 -1.30901699437495 -0.5 
0 0.5 -0.809016994374945 -1.30901699437495 
0 -0.5 -0.809016994374945 -1.30901699437495 

# Faces
5 9 1 0 4 14
5 6 0 1 10 13
5 5 0 2 13 15
5 12 2 0 6 9
5 3 15 10 4 0
5 0 3 14 12 5
5 7 13 19 5 1
5 17 7 1 10 4
5 8 19 6 9 1
5 8 14 17 5 1
5 2 12 5 17 7
5 7 2 4 18 9
5 2 4 17 15 11
5 11 2 13 6 18
5 3 14 4 18 11
5 3 11 12 19 6
5 6 3 8 10 18
5 3 15 5 19 8
5 9 7 16 19 12
5 7 13 10 18 16
5 16 11 12 14 17
5 16 11 15 13 19
5 16 18 9 14 8
5 16 8 10 15 17
5 16 25 34 22 11
5 21 11 20 29 14
5 11 20 27 34 23
5 12 25 27 21 11
5 11 23 29 17 22
5 20 16 24 14 28
5 30 20 16 26 34
5 17 22 30 24 16
5 16 26 28 12 25
5 24 30 20 27 21
5 20 28 26 23 29
5 14 21 32 31 12
5 12 23 26 17 31
5 22 31 32 23 34
5 25 31 33 26 34
5 31 25 24 21 22
5 17 31 33 24 14
5 21 32 29 30 22
5 14 29 32 33 28
5 12 28 27 32 23
5 33 32 27 34 30
5 25 27 28 33 24
5 33 30 29 17 26
5 0 37 32 21 3
5 0 35 43 10 36
5 0 35 40 32 38
5 21 4 0 36 40
5 38 0 37 15 43
5 35 3 39 10 42
5 3 29 32 41 35
5 3 21 4 42 29
5 37 15 3 39 41
5 35 41 39 36 40
5 38 43 35 42 29
5 40 21 39 30 42
5 36 39 21 22 37
5 40 44 30 41 32
5 4 42 40 44 38
5 32 38 44 22 37
5 37 41 43 44 36
5 10 36 44 22 4
5 22 4 38 29 15
5 30 39 10 15 22
5 29 30 41 43 15
5 44 30 42 10 43
5 3 0 46 55 49
5 45 50 12 47 0
5 38 0 45 52 55
5 5 0 47 52 49
5 0 38 50 14 46
5 3 48 12 23 45
5 3 29 55 51 45
5 14 46 51 48 3
5 29 23 5 49 3
5 29 23 45 50 38
5 45 51 48 47 52
5 14 53 56 48 12
5 14 50 51 56 29
5 38 29 14 53 5
5 12 50 54 56 23
5 47 12 5 53 54
5 47 54 50 51 46
5 5 23 52 54 38
5 47 48 49 53 46
5 53 54 38 55 46
5 52 49 48 56 23
5 53 49 55 29 56
5 54 56 51 55 52
5 0 1 61 40 58
5 1 0 59 49 43
5 3 63 61 59 0
5 58 0 57 55 43
5 0 57 40 63 46
5 8 49 65 46 1
5 1 8 42 58 43
5 60 65 59 61 1
5 60 40 42 46 1
5 8 3 63 46 42
5 8 3 58 41 61
5 62 3 58 42 55
5 3 62 41 59 49
5 57 59 41 43 60
5 55 57 60 65 46
5 57 40 58 41 62
5 62 57 59 65 63
5 61 8 64 65 63
5 41 64 8 49 43
5 40 60 64 41 61
5 64 42 55 43 60
5 40 63 62 64 42
5 64 65 49 55 62
5 8 53 26 33 64
5 20 8 14 63 48
5 68 20 8 19 26
5 8 14 68 33 61
5 8 53 65 48 19
5 66 64 20 27 63
5 20 64 67 26 56
5 64 66 56 53 65
5 33 61 27 67 64
5 20 56 66 14 68
5 27 20 48 19 67
5 61 69 12 14 63
5 61 69 65 67 19
5 19 61 27 68 12
5 69 53 14 66 33
5 12 19 26 53 69
5 68 26 56 70 12
5 63 48 12 70 27
5 70 67 26 33 69
5 65 69 70 66 63
5 68 27 70 66 33
5 70 56 48 65 67
5 2 74 52 71 0
5 2 50 21 72 0
5 3 0 72 74 75
5 57 0 37 75 52
5 0 57 32 50 71
5 2 11 23 71 50
5 11 21 77 37 2
5 2 73 52 23 37
5 2 74 72 77 73
5 11 3 71 51 74
5 11 23 37 75 3
5 21 72 51 62 3
5 32 62 3 71 23
5 32 57 73 77 37
5 51 72 57 73 50
5 62 75 77 72 57
5 51 62 57 52 71
5 21 50 51 76 11
5 11 76 77 75 74
5 23 76 73 50 32
5 73 76 51 74 52
5 62 32 21 77 76
5 23 76 62 75 52
5 0 78 9 61 36
5 47 74 13 78 0
5 0 36 13 75 59
5 9 47 0 72 63
5 3 39 61 19 78
5 48 74 18 78 3
5 3 63 72 18 39
5 3 48 19 59 75
5 48 19 78 9 47
5 36 13 78 18 39
5 19 81 79 9 61
5 61 39 81 80 63
5 59 61 36 79 80
5 18 81 48 63 9
5 9 79 36 72 18
5 63 48 47 59 80
5 36 72 80 75 39
5 59 19 13 79 47
5 79 80 72 74 47
5 39 75 13 19 81
5 75 80 81 48 74
5 18 74 13 79 81
5 67 80 62 76 70
5 21 63 62 20 39
5 28 67 41 62 20
5 62 32 70 28 63
5 62 41 39 77 80
5 68 21 82 76 20
5 76 34 67 81 20
5 76 34 68 32 70
5 77 80 81 82 76
5 20 39 41 34 68
5 20 28 63 82 81
5 32 83 61 63 21
5 39 21 68 25 61
5 25 82 21 77 83
5 61 83 80 67 41
5 61 25 81 67 28
5 41 61 28 68 32
5 41 34 77 83 32
5 34 67 70 83 25
5 63 82 70 83 80
5 25 68 28 70 82
5 81 25 34 77 39
5 2 73 54 38 31
5 85 73 2 84 82
5 82 12 2 45 21
5 2 45 71 38 4
5 4 2 31 85 21
5 12 71 54 84 2
5 70 73 45 51 82
5 73 86 38 32 45
5 31 85 73 70 32
5 86 73 54 84 51
5 51 86 4 21 45
5 32 70 12 71 45
5 31 87 54 70 12
5 4 38 31 87 14
5 14 66 51 82 21
5 21 85 86 66 32
5 14 12 82 84 87
5 4 84 51 71 14
5 14 71 38 32 66
5 4 84 87 85 86
5 51 66 70 54 71
5 66 86 38 54 87
5 66 70 82 85 87
5 1 7 79 47 69
5 7 1 88 24 87
5 1 78 14 24 61
5 46 47 6 78 1
5 61 6 79 88 1
5 14 87 69 1 46
5 18 24 25 7 78
5 47 84 7 78 12
5 12 25 7 87 69
5 84 18 88 79 7
5 46 14 78 18 84
5 25 61 6 78 12
5 69 89 79 25 61
5 63 61 24 88 89
5 14 63 82 18 24
5 63 6 47 12 82
5 46 47 69 89 63
5 46 63 6 18 88
5 18 82 25 79 6
5 87 89 88 46 84
5 79 89 82 84 47
5 87 24 25 82 89
5 36 83 57 60 44
5 60 89 66 86 57
5 57 32 66 63 35
5 57 35 58 36 72
5 57 83 89 63 72
5 32 57 86 44 58
5 35 42 66 33 60
5 35 61 36 88 60
5 60 33 61 83 89
5 60 44 86 42 88
5 33 32 58 35 61
5 72 63 35 42 88
5 24 21 63 66 42
5 42 86 72 21 58
5 24 61 36 58 21
5 21 85 83 36 72
5 85 83 32 33 44
5 24 88 36 44 85
5 58 42 24 33 44
5 89 85 86 72 88
5 24 33 66 89 85
5 0 46 9 69 90
5 59 0 90 92 52
5 46 0 6 74 92
5 59 69 12 71 0
5 2 90 79 9 84
5 90 54 52 91 2
5 2 91 79 6 74
5 90 69 59 91 79
5 84 46 92 90 54
5 84 9 12 48 93
5 65 93 79 9 69
5 65 48 6 9 46
5 69 54 93 91 12
5 48 6 59 91 12
5 54 69 65 46 71
5 65 92 79 6 59
5 84 74 48 71 46
5 65 59 52 71 48
5 84 74 92 79 93
5 48 74 52 91 93
5 52 92 65 93 54
5 93 82 76 73 91
5 94 95 32 83 73
5 73 94 89 93 54
5 50 82 89 83 73
5 54 95 23 91 73
5 94 66 32 27 76
5 76 94 67 93 56
5 27 76 23 91 67
5 56 76 82 50 66
5 67 94 89 83 27
5 56 66 94 95 54
5 50 32 83 69 12
5 28 12 82 93 56
5 12 91 83 27 82
5 83 91 67 95 69
5 66 28 69 95 32
5 50 66 89 69 54
5 28 69 89 93 67
5 28 66 89 82 27
5 28 56 23 95 67
5 83 90 0 72 40
5 0 35 55 92 72
5 0 45 32 83 59
5 60 90 38 86 40
5 90 83 59 95 60
5 35 55 38 95 60
5 60 92 80 59 35
5 60 40 83 80 94
5 94 86 55 92 60
5 86 72 92 90 73
5 38 90 73 52 95
5 73 83 80 72 45
5 73 52 92 80 94
5 62 32 95 59 35
5 72 40 35 62 80
5 52 59 80 62 45
5 86 55 62 45 72
5 94 62 32 40 86
5 95 52 55 62 94
5 2 0 36 83 31
5 0 58 15 75 45
5 32 58 0 5 31
5 45 2 22 15 23
5 45 77 83 91 2
5 23 91 2 31 5
5 36 13 2 22 77
5 32 45 77 22 58
5 75 45 23 91 59
5 31 83 91 34 96
5 58 22 31 96 36
5 36 96 41 59 83
5 32 23 5 59 41
5 58 36 77 75 41
5 58 15 5 96 41
5 59 5 96 13 91
5 34 96 13 15 22
5 77 34 91 13 75
5 34 41 75 15 23
5 0 38 31 69 1
5 0 37 31 12 78
5 78 0 71 49 15
5 31 17 78 1 96
5 19 49 53 1 78
5 19 96 1 69 59
5 38 43 1 53 17
5 12 71 53 17 78
5 15 78 19 96 37
5 96 31 69 95 26
5 37 31 38 95 23
5 12 19 59 37 23
5 69 53 71 38 95
5 96 37 59 95 43
5 17 38 71 23 15
5 23 95 59 49 71
5 15 17 26 96 43
5 53 26 95 43 49
5 26 23 15 49 19
5 7 25 85 22 2
5 85 50 2 90 83
5 5 37 2 90 38
5 2 37 83 25 12
5 22 2 50 38 17
5 87 85 44 90 7
5 69 5 96 7 90
5 22 17 7 96 44
5 90 83 37 96 44
5 87 50 38 90 69
5 68 12 50 87 17
5 12 5 37 32 68
5 25 96 33 69 83
5 32 50 85 22 68
5 32 38 5 69 33
5 37 96 25 68 22
5 5 96 33 68 17
5 33 44 38 17 87
5 68 33 87 85 25
5 4 50 31 90 0
5 0 90 97 43 5
5 4 0 71 55 97
5 86 50 54 90 57
5 44 43 95 57 90
5 57 95 54 71 55
5 90 31 5 95 54
5 86 4 97 90 44
5 32 95 98 44 31
5 50 31 17 98 54
5 17 4 58 44 31
5 32 50 86 98 29
5 5 95 32 29 71
5 17 29 71 50 4
5 86 55 29 58 4
5 17 29 58 43 5
5 5 71 54 97 17
5 97 55 86 98 54
5 55 43 95 98 29
5 97 43 44 98 17
5 29 62 64 28 56
5 56 51 62 94 70
5 51 62 29 42 86
5 33 40 89 94 64
5 99 64 94 98 56
5 64 42 29 98 33
5 63 89 99 64 28
5 89 99 51 86 94
5 32 33 98 94 70
5 32 50 14 63 40
5 63 51 99 42 14
5 28 56 99 87 14
5 87 14 42 40 33
5 89 40 86 50 87
5 50 70 56 98 87
5 51 63 89 70 50
5 89 70 28 33 87
5 86 98 87 99 42
5 1 97 92 47 0
5 14 71 0 35 63
5 42 14 53 1 35
5 92 88 1 35 65
5 1 53 65 47 9
5 42 88 1 97 4
5 55 71 53 65 35
5 14 53 99 84 9
5 63 9 88 99 65
5 84 4 72 88 9
5 51 63 65 47 71
5 4 72 51 55 42
5 71 47 84 97 53
5 51 84 47 92 72
5 92 97 84 99 88
5 42 99 53 97 55
5 51 55 92 65 99
5 21 58 0 78 14
5 0 35 49 75 6
5 6 63 21 45 0
5 78 11 21 39 6
5 14 71 48 11 78
5 45 11 48 6 75
5 15 29 71 45 11
5 11 20 39 75 15
5 78 15 58 39 8
5 49 8 78 6 48
5 14 29 58 35 8
5 63 35 8 39 6
5 29 15 49 8 20
5 71 29 62 35 49
5 75 39 58 35 62
5 63 48 71 45 62
5 21 58 29 62 45
5 62 20 48 49 75
5 11 68 27 39 3
5 3 63 27 32 45
5 3 45 72 4 58
5 68 14 3 58 32
5 27 77 45 11 82
5 22 4 50 45 11
5 68 14 50 82 11
5 11 22 77 39 18
5 45 72 63 82 50
5 58 4 14 24 40
5 32 27 77 85 40
5 63 40 24 39 27
5 77 39 58 40 72
5 50 4 72 40 85
5 58 22 68 24 39
5 4 22 85 24 18
5 85 77 72 18 82
5 85 82 27 68 24
5 0 37 13 101 90
5 0 45 74 101 4
5 78 4 22 31 7
5 90 7 84 4 101
5 90 7 13 91 47
5 12 91 100 7 31
5 100 7 13 101 22
5 78 11 22 37 13
5 84 74 11 78 4
5 11 45 37 91 12
5 12 11 100 84 50
5 11 100 91 13 74
5 84 50 73 90 47
5 73 91 37 31 90
5 47 91 73 45 74
5 37 45 73 101 22
5 73 100 22 31 50
5 100 84 74 101 73
5 6 61 83 37 0
5 0 72 101 10 58
5 13 79 90 1 96
5 44 40 88 1 90
5 1 10 58 44 96
5 90 79 88 72 101
5 40 61 39 102 88
5 96 61 83 79 102
5 39 58 37 96 61
5 40 83 77 102 44
5 77 72 6 79 83
5 44 101 77 37 58
5 37 13 6 39 77
5 39 10 88 72 6
5 39 10 13 96 102
5 10 101 44 102 88
5 13 79 102 77 101
5 16 7 96 102 24
5 79 102 85 100 7
5 9 24 85 31 7
5 79 7 96 19 91
5 16 68 12 82 100
5 16 100 34 102 81
5 19 96 34 68 16
5 24 9 82 81 16
5 31 68 34 100 85
5 79 91 100 82 81
5 9 12 31 83 61
5 61 96 31 68 24
5 27 81 102 24 61
5 79 83 85 82 9
5 85 83 27 34 102
5 19 91 34 27 81
5 0 57 83 69 47
5 61 35 0 5 69
5 69 95 57 35 65
5 41 75 80 57 35
5 37 83 57 95 41
5 47 65 80 57 52
5 61 35 65 80 6
5 49 35 41 95 5
5 37 5 19 61 41
5 83 91 47 6 80
5 19 91 47 69 5
5 5 95 52 91 37
5 6 75 37 91 19
5 49 19 6 47 65
5 67 65 49 52 95
5 75 52 91 67 80
5 67 19 49 75 41
5 1 60 33 87 53
5 31 87 9 1 90
5 59 5 1 90 47
5 33 61 1 5 31
5 54 90 60 89 87
5 54 53 65 60 95
5 9 89 83 90 47
5 33 95 70 83 31
5 61 28 65 89 9
5 12 28 61 59 5
5 12 9 87 53 28
5 47 12 70 83 59
5 33 95 5 53 28
5 47 65 89 70 54
5 59 95 70 28 65
5 80 57 60 104 105
5 57 95 106 105 73
5 70 73 57 80 89
5 62 57 86 104 106
5 62 66 70 95 57
5 95 60 103 105 67
5 98 103 60 104 86
5 64 67 80 89 60
5 60 95 98 66 64
5 95 70 73 103 98
5 73 103 89 108 86
5 86 73 76 106 98
5 76 108 80 105 73
5 80 62 64 104 108
5 62 64 67 95 106
5 62 66 86 108 76
5 103 89 70 67 107
5 107 108 104 105 103
5 66 89 108 107 64
5 98 107 64 104 106
5 107 76 70 66 98
5 76 107 67 105 106
5 107 76 109 111 93
5 51 66 29 20 76
5 48 20 76 23 111
5 76 51 48 93 70
5 23 29 98 109 76
5 28 66 99 107 20
5 26 107 20 110 111
5 98 107 99 110 109
5 93 70 28 26 107
5 51 48 20 110 99
5 71 48 111 110 53
5 71 48 28 70 23
5 28 53 71 29 66
5 71 29 110 109 51
5 23 71 54 109 111
5 54 53 99 66 98
5 70 23 26 98 54
5 53 99 93 48 28
5 54 53 26 111 93
5 26 98 29 110 53
5 93 99 51 109 54
5 60 112 53 99 64
5 53 46 35 60 69
5 59 67 112 60 69
5 92 60 89 99 46
5 49 35 64 28 53
5 35 63 80 113 64
5 67 112 49 113 64
5 28 69 59 35 63
5 92 113 49 35 46
5 69 53 112 93 47
5 46 99 113 48 63
5 59 47 92 112 49
5 93 47 92 80 89
5 49 59 67 28 48
5 67 93 48 113 80
5 113 99 93 112 92
5 61 96 114 60 69
5 44 60 114 87 98
5 60 69 87 66 40
5 96 44 60 95 41
5 61 24 114 64 28
5 64 30 98 26 114
5 24 40 66 64 30
5 41 95 26 28 64
5 30 24 114 96 44
5 87 69 28 26 114
5 61 40 32 31 69
5 87 31 68 26 98
5 87 31 44 40 24
5 68 30 98 66 32
5 68 24 87 66 28
5 41 96 26 68 30
5 14 42 110 20 3
5 15 3 20 68 23
5 71 3 15 110 55
5 30 20 62 66 42
5 23 106 62 20 56
5 32 58 30 106 62
5 62 66 56 71 55
5 20 30 106 15 110
5 17 14 71 56 110
5 17 38 58 42 14
5 106 23 32 38 98
5 55 106 15 58 38
5 15 17 68 30 58
5 66 42 55 38 98
5 56 98 17 68 23
5 98 30 42 110 17
5 98 106 55 110 56
5 1 7 115 112 53
5 33 96 1 8 24
5 8 1 88 115 116
5 1 60 112 116 96
5 7 16 26 53 87
5 103 7 96 26 112
5 102 103 7 115 88
5 16 8 53 99 115
5 16 8 116 96 26
5 64 99 88 24 8
5 96 33 60 103 102
5 88 99 87 103 60
5 64 116 102 88 60
5 87 24 16 107 99
5 107 16 115 116 102
5 33 87 103 107 26
5 99 107 103 112 115
5 33 24 102 107 64
5 64 116 112 26 107
5 44 102 105 94 60
5 60 43 116 105 92
5 94 108 102 30 64
5 64 94 106 55 113
5 64 113 108 88 42
5 64 116 43 106 30
5 30 44 86 94 106
5 94 108 113 92 105
5 108 86 42 30 117
5 86 55 106 117 101
5 108 88 92 101 86
5 92 113 116 10 88
5 44 43 106 105 101
5 55 42 10 117 113
5 43 55 92 101 10
5 116 10 117 30 102
5 102 105 101 117 108
5 113 116 105 106 117
5 99 42 8 20 113
5 29 17 53 8 42
5 8 49 113 115 10
5 16 20 56 99 118
5 111 16 20 117 15
5 17 53 56 111 16
5 115 10 117 118 16
5 29 42 118 117 20
5 20 113 49 111 56
5 53 97 115 111 49
5 17 29 56 109 118
5 29 15 117 109 55
5 17 97 109 111 15
5 42 118 17 97 10
5 10 97 55 49 15
5 99 56 109 55 113
5 99 118 109 97 115
5 117 109 111 115 113
5 54 103 7 31 69
5 7 103 85 118 84
5 9 69 53 114 7
5 7 114 24 118 17
5 7 84 54 53 17
5 69 33 114 103 89
5 118 98 103 114 99
5 99 84 54 103 89
5 33 31 85 103 98
5 9 89 99 114 24
5 53 114 33 98 17
5 14 50 31 69 9
5 85 50 84 9 89
5 50 14 17 118 84
5 14 66 99 118 24
5 85 50 66 98 118
5 38 57 73 101 44
5 94 57 40 44 104
5 55 57 94 66 51
5 50 66 40 57 38
5 57 72 101 104 55
5 85 44 98 94 73
5 73 109 51 108 94
5 38 98 109 73 50
5 85 108 72 101 73
5 94 66 40 85 108
5 94 98 109 55 104
5 40 42 104 108 72
5 51 109 118 4 50
5 55 38 4 101 109
5 4 118 85 44 101
5 66 51 108 118 42
5 44 104 42 118 98
5 109 101 104 108 118
5 35 3 75 113 55
5 63 3 20 113 51
5 27 41 75 3 20
5 45 57 80 63 51
5 45 57 55 106 75
5 41 106 94 57 32
5 66 29 55 35 64
5 41 27 80 94 64
5 64 20 29 106 41
5 80 27 76 45 75
5 32 29 106 76 45
5 80 94 76 51 113
5 113 20 76 106 75
5 54 98 119 100 73
5 52 73 101 119 106
5 76 100 118 98 56
5 100 76 117 74 111
5 118 86 51 76 117
5 76 106 52 111 56
5 54 84 100 111 56
5 117 118 100 119 101
5 84 118 86 101 97
5 51 84 118 110 56
5 110 97 84 74 111
5 52 111 119 97 54
5 74 51 55 110 117
5 52 55 97 101 74
5 97 110 118 98 119
5 110 117 106 119 111
5 70 91 100 103 54
5 103 100 84 115 79
5 79 103 112 67 91
5 100 82 70 56 107
5 115 81 107 100 111
5 111 112 67 107 56
5 82 89 99 107 81
5 48 111 115 84 47
5 47 91 70 82 48
5 47 91 111 112 54
5 47 79 115 112 65
5 79 81 67 65 89
5 56 48 82 84 99
5 48 81 115 99 65
5 81 48 111 91 67
5 56 99 65 112 54
5 51 108 117 20 62
5 51 62 80 65 48
5 62 55 104 117 75
5 20 64 99 108 81
5 20 110 49 116 64
5 64 116 81 80 65
5 99 64 104 55 110
5 20 117 75 116 81
5 80 75 116 104 92
5 74 51 108 80 92
5 48 49 110 115 74
5 65 49 116 115 92
5 74 75 49 55 92
5 99 108 104 92 115
5 115 74 117 108 81
5 116 104 117 110 115
5 103 107 118 109 119
5 109 86 94 103 54
5 94 95 33 44 103
5 86 44 103 87 118
5 103 54 95 26 119
5 109 106 94 107 56
5 66 33 30 107 94
5 107 56 66 87 118
5 107 30 106 119 26
5 38 86 109 106 29
5 33 95 38 29 66
5 38 95 106 119 44
5 38 54 109 119 17
5 86 118 30 29 66
5 26 56 54 87 17
5 95 26 56 29 106
5 30 118 17 119 44
5 69 1 114 112 65
5 17 87 114 1 97
5 1 5 49 112 97
5 99 65 28 8 114
5 17 110 8 114 26
5 14 46 99 110 8
5 49 5 26 28 8
5 99 114 112 97 110
5 14 28 69 5 71
5 54 112 26 5 69
5 97 46 71 49 110
5 87 54 97 46 99
5 65 28 56 71 49
5 49 110 56 26 112
5 33 41 35 8 28
5 65 113 116 8 35
5 30 20 8 116 41
5 42 30 33 114 8
5 35 41 116 104 60
5 33 41 67 94 60
5 60 94 66 99 65
5 65 67 116 114 60
5 104 42 99 114 60
5 62 66 28 65 35
5 62 35 42 104 113
5 94 62 41 30 104
5 94 67 65 113 62
5 107 94 104 113 99
5 67 116 113 20 107
5 28 67 107 114 33
5 107 30 104 116 114
5 83 69 60 103 79
5 80 65 60 88 79
5 70 94 103 85 83
5 99 108 94 103 93
5 88 108 85 103 79
5 87 69 70 93 103
5 94 80 65 93 70
5 63 40 83 69 9
5 82 9 87 99 93
5 88 40 85 87 9
5 40 63 80 108 88
5 63 82 108 99 66
5 79 93 82 108 80
5 10 78 0 46 97
5 10 78 7 96 36
5 78 5 53 97 7
5 36 90 7 9 88
5 7 97 10 88 114
5 5 78 8 61 96
5 46 9 78 8 53
5 53 5 43 35 8
5 8 35 46 88 10
5 8 114 88 9 61
5 10 8 114 96 43
5 46 97 90 60 88
5 60 90 36 96 43
5 43 97 53 114 60
5 57 90 69 89 40
5 59 37 36 90 57
5 40 57 80 77 36
5 59 69 70 32 57
5 89 85 73 90 79
5 79 80 77 73 91
5 85 40 36 90 31
5 70 69 31 25 91
5 31 37 36 61 25
5 89 40 61 27 80
5 59 37 32 27 61
5 79 25 85 77 36
5 37 91 25 27 77
5 80 27 70 91 59
5 27 70 89 85 25
5 60 69 54 38 57
5 54 52 57 94 70
5 57 38 43 106 52
5 60 94 98 54 112
5 43 60 33 98 38
5 67 94 106 52 112
5 59 5 43 112 52
5 26 5 43 41 33
5 67 59 52 23 70
5 26 67 41 106 23
5 106 98 26 112 43
5 25 91 2 11 82
5 31 2 78 9 25
5 5 71 47 2 78
5 47 2 50 82 9
5 78 19 25 68 11
5 23 11 48 19 91
5 68 31 5 78 14
5 31 50 70 23 68
5 14 28 48 82 9
5 69 28 19 25 9
5 69 47 71 50 70
5 19 28 68 23 5
5 60 40 36 102 104
5 101 86 85 103 90
5 31 96 119 103 90
5 104 102 103 119 101
5 101 90 38 43 119
5 40 33 31 38 58
5 98 38 31 22 119
5 58 30 104 86 40
5 33 40 85 102 30
5 58 36 101 104 43
5 22 101 36 102 85
5 86 101 22 58 38
5 30 58 43 96 33
5 22 85 86 98 30
5 96 119 22 30 102
5 98 30 104 43 119
5 16 118 22 119 7
5 31 7 119 26 5
5 4 97 7 87 118
5 68 22 15 78 16
5 14 53 110 16 78
5 68 14 87 118 16
5 26 119 15 110 16
5 78 4 97 110 15
5 4 14 29 110 118
5 5 38 97 119 15
5 5 26 68 29 15
5 98 38 97 53 87
5 29 68 22 118 98
5 54 103 60 92 97
5 26 67 93 103 114
5 114 115 97 119 103
5 92 105 103 93 115
5 65 53 114 115 93
5 116 114 26 119 43
5 95 52 105 119 43
5 52 92 97 43 49
5 93 111 52 105 67
5 49 111 26 67 116
5 115 111 119 105 116
5 93 103 73 109 84
5 47 93 70 73 52
5 90 103 87 84 97
5 69 90 103 112 95
5 103 98 109 97 112
5 47 90 97 112 52
5 71 50 84 109 56
5 71 52 109 97 38
5 70 95 52 71 56
5 53 87 84 93 56
5 95 112 53 56 98
5 93 112 52 109 56
5 20 3 21 18 117
5 21 3 6 61 27
5 58 10 117 75 3
5 18 81 20 8 24
5 61 6 81 116 8
5 8 24 30 58 10
5 21 77 117 30 58
5 21 18 6 36 77
5 41 116 102 36 61
5 6 36 10 116 75
5 10 18 24 102 36
5 75 6 81 27 77
5 41 27 77 102 30
5 81 102 77 117 18
5 93 84 7 16 111
5 93 79 7 114 112
5 13 111 112 97 7
5 81 93 99 114 16
5 10 110 16 114 116
5 18 16 110 99 84
5 16 81 116 13 111
5 81 79 88 114 116
5 18 88 99 113 81
5 18 74 113 110 10
5 79 92 112 116 13
5 74 13 10 97 92
5 93 81 113 74 111
5 116 113 110 111 112
5 22 118 109 76 11
5 20 11 18 118 110
5 15 110 109 74 11
5 76 20 30 118 108
5 30 106 76 77 22
5 108 76 109 74 113
5 39 20 113 108 18
5 39 30 104 108 77
5 39 10 104 113 75
5 22 15 106 109 101
5 18 118 22 101 10
5 74 18 108 77 101
5 77 75 106 104 101
5 15 75 74 101 10
5 118 30 104 10 110
5 109 106 104 113 110
5 7 119 111 91 2
5 11 111 109 84 2
5 2 22 119 109 73
5 91 25 7 103 93
5 11 82 84 118 16
5 34 76 11 111 91
5 73 91 34 119 103
5 73 85 22 34 76
5 25 16 107 93 82
5 107 16 111 119 34
5 34 107 103 85 25
5 76 107 118 85 82
5 42 24 39 20 64
5 64 41 39 102 104
5 107 20 117 106 34
5 68 24 118 107 20
5 68 34 107 98 33
5 117 104 102 107 118
5 58 39 117 104 42
5 117 22 58 29 106
5 58 29 68 33 41
5 104 44 58 41 106
5 24 102 44 22 118
5 41 33 44 102 34
5 39 102 34 22 117
5 34 106 98 44 22
5 1 36 79 92 60
5 79 9 1 114 115
5 10 1 114 24 42
5 9 24 40 36 1
5 10 1 46 92 115
5 89 79 102 114 60
5 102 114 115 10 104
5 46 72 40 89 9
5 46 9 18 115 99
5 40 89 108 102 24
5 72 36 10 104 92
5 10 42 46 72 18
5 89 108 72 92 79
5 24 42 99 108 18
5 102 108 18 115 79
5 0 2 101 97 38
5 18 21 22 2 78
5 78 2 84 97 17
5 2 101 72 18 84
5 17 78 10 58 22
5 21 18 118 42 14
5 86 50 21 22 118
5 86 50 84 46 72
5 42 86 38 97 46
5 83 31 44 103 73
5 73 77 108 82 100
5 73 86 44 22 77
5 31 87 103 100 25
5 103 100 118 108 102
5 83 89 103 102 25
5 22 100 25 102 77
5 82 100 118 87 50
5 21 40 83 31 50
5 21 40 86 108 77
5 21 82 108 118 24
5 48 113 62 76 56
5 108 72 63 62 113
5 74 48 82 76 45
5 45 76 109 86 50
5 45 74 109 55 71
5 50 66 63 46 71
5 55 46 72 74 113
5 55 86 66 99 46
5 72 108 82 84 74
5 99 108 86 109 84
5 92 57 0 36 101
5 36 1 7 31 44
5 44 60 1 97 38
5 54 47 2 7 97
5 7 79 36 101 2
5 47 2 73 83 79
5 47 92 57 73 54
5 101 97 7 103 44
5 101 92 79 103 73
5 86 101 77 45 57
5 46 51 86 57 92
5 6 80 77 45 74
5 63 51 108 18 21
5 88 40 86 4 46
5 80 92 88 36 6
5 18 4 101 36 88
5 51 74 18 4 46
5 8 28 68 29 3
5 12 78 3 21 68
5 3 71 46 4 78
5 3 71 12 28 63
5 17 68 24 8 78
5 9 24 8 28 63
5 21 24 9 78 4
5 9 12 50 21 63
5 50 21 68 29 66
5 9 87 50 4 46
5 4 42 24 87 17
5 66 42 46 53 87
5 69 1 35 40 33
5 6 59 35 1 36
5 41 96 19 8 39
5 83 25 9 6 36
5 83 27 41 33 40
5 6 63 27 83 59
5 36 39 24 25 96
5 6 39 27 25 19
5 59 41 27 28 19
5 92 90 1 43 112
5 44 43 1 114 33
5 92 57 35 43 104
5 92 57 94 89 65
5 89 103 90 92 88
5 104 92 112 103 94
5 103 44 104 88 114
5 43 95 33 64 35
5 104 88 40 35 64
5 64 94 95 112 65
5 89 65 64 114 88
5 64 104 43 112 114
5 83 70 50 45 57
5 37 58 38 57 45
5 45 62 27 70 23
5 21 40 66 62 27
5 62 29 23 95 41
5 27 83 37 45 21
5 37 58 21 68 31
5 41 27 68 23 37
5 71 46 35 57 38
5 52 106 62 113 49
5 51 46 42 110 113
5 92 104 86 109 97
5 43 49 110 29 106
5 51 113 92 52 109
5 42 104 43 97 110
5 83 77 105 94 57
5 59 57 92 105 75
5 94 62 27 77 108
5 75 59 67 27 62
5 83 59 67 105 79
5 6 63 65 113 81
5 63 27 81 108 89
5 72 6 75 113 92
5 108 81 79 105 77
5 67 81 113 75 105
5 49 19 28 20 3
5 49 3 6 74 113
5 56 20 11 82 51
5 11 20 81 19 111
5 12 71 56 111 11
5 74 6 81 82 11
5 93 47 12 19 111
5 71 47 74 111 49
5 74 47 93 82 51
5 81 93 65 28 19
5 51 56 93 65 113
5 45 57 59 47 71
5 45 73 109 106 23
5 105 92 74 109 73
5 91 59 95 112 105
5 49 112 95 106 55
5 74 75 105 91 111
5 109 55 92 112 54
5 23 111 49 75 106
5 106 109 111 112 105
5 58 4 78 1 36
5 46 4 38 90 1
5 35 1 5 38 58
5 37 2 78 6 36
5 72 4 2 90 36
5 6 72 45 2 47
5 3 78 5 37 58
5 35 3 6 72 46
5 3 35 59 5 71
5 6 3 45 37 59
5 46 72 57 90 47
5 30 68 16 8 39
5 18 39 8 42 88
5 25 9 87 114 16
5 30 118 16 114 102
5 18 39 102 25 16
5 61 33 114 102 25
5 87 118 42 88 114
5 40 21 14 9 61
5 21 85 118 30 68
5 85 25 9 18 21
5 88 102 85 118 18
5 48 28 27 62 3
5 3 35 61 28 14
5 35 46 14 66 40
5 21 72 6 9 82
5 6 80 27 82 48
5 51 66 89 65 46
5 72 80 89 82 51
5 119 17 31 2 100
5 85 77 101 2 100
5 101 2 37 15 119
5 11 68 17 118 100
5 11 117 77 34 100
5 11 117 118 4 21
5 11 68 34 37 15
5 37 34 119 44 31
5 4 58 15 117 101
5 30 34 77 85 44
5 15 117 30 34 119
5 1 61 19 116 114
5 13 116 43 1 36
5 26 19 25 7 114
5 7 119 44 102 114
5 7 13 36 102 25
5 37 5 43 119 13
5 13 37 34 25 19
5 26 34 41 116 19
5 116 102 34 119 13
5 54 112 119 7 90
5 87 7 100 93 54
5 60 90 79 105 112
5 73 90 44 119 105
5 100 93 79 105 73
5 105 112 93 107 94
5 89 94 107 102 85
5 98 87 85 100 107
5 102 107 100 119 105
5 87 89 93 107 114
5 107 114 112 119 98
5 101 10 115 7 119
5 46 4 10 110 55
5 17 110 109 84 4
5 53 46 84 115 110
5 101 92 115 84 109
5 43 112 53 110 55
5 43 119 17 110 10
5 112 119 109 110 115
5 2 78 15 111 74
5 115 7 78 19 111
5 6 78 10 115 74
5 37 36 101 105 75
5 36 96 116 105 79
5 37 91 105 119 96
5 116 19 6 79 115
5 10 116 96 119 15
5 75 15 111 19 116
5 101 74 115 79 105
5 7 115 93 47 9
5 83 90 103 105 91
5 92 90 36 13 105
5 88 9 6 81 115
5 89 93 81 25 9
5 80 83 36 102 105
5 13 115 92 47 6
5 13 6 81 25 91
5 89 80 81 102 88
5 91 105 80 81 93
5 81 115 13 105 102
5 113 81 107 76 117
5 76 77 85 86 94
5 80 94 104 102 77
5 72 86 104 117 77
5 72 80 113 104 88
5 72 18 117 113 51
5 51 99 118 18 82
5 86 118 99 88 104
5 2 50 54 109 100
5 2 100 82 18 74
5 2 4 97 109 74
5 100 118 18 115 7
5 93 115 74 109 100
5 97 46 47 74 115
5 7 17 26 111 100
5 78 11 111 110 17
5 18 11 100 25 81
5 115 18 78 8 110
5 8 19 81 115 114
5 26 107 100 25 68
5 25 81 107 114 24
5 118 110 115 114 107
5 101 90 57 52 105
5 97 112 60 104 55
5 46 65 113 115 88
5 80 113 74 52 105
5 101 97 115 88 104
5 55 113 65 112 52
5 115 112 105 104 113
5 35 1 10 116 49
5 55 35 58 10 104
5 96 5 95 112 119
5 15 106 41 116 49
5 10 104 44 119 97
5 104 116 112 119 106
5 29 110 8 64 30
5 88 10 4 118 24
5 56 107 64 113 110
5 42 110 53 114 64
5 113 108 107 93 115
5 84 51 108 89 93
5 115 84 118 108 88
5 109 52 45 2 101
5 105 103 100 109 101
5 76 45 52 91 70
5 94 105 52 109 76
5 76 100 85 50 70
5 91 105 77 76 100
5 81 27 76 11 48
5 51 48 11 18 84
5 81 108 76 100 93
5 21 85 108 76 27
5 12 25 100 93 70
5 84 18 108 85 100
5 12 23 111 100 2
5 13 2 100 25 79
5 13 111 52 47 2
5 73 100 34 23 70
5 83 37 34 105 73
5 34 105 13 111 100
5 59 37 13 105 52
5 67 93 79 25 19
5 19 111 23 34 67
5 1 78 13 115 97
5 13 119 97 90 2
5 13 96 25 16 78
5 9 78 16 115 84
5 16 100 84 87 17
5 16 100 119 13 115
5 16 114 96 119 17
5 79 103 114 96 25
5 16 81 39 117 11
5 24 39 10 78 16
5 39 117 108 72 21
5 10 4 72 74 117
5 81 108 88 24 39
5 3 78 10 110 49
5 19 116 39 20 16
5 19 28 53 114 16
5 61 39 116 64 35
5 15 117 74 45 3
5 12 78 16 111 48
5 20 16 18 82 48
5 18 16 100 22 117
5 45 21 22 117 76
5 23 68 22 100 76
5 117 76 34 105 75
5 45 72 101 117 75
5 27 39 75 37 34
5 80 27 39 102 108
5 43 116 8 110 15
5 39 116 104 88 36
5 18 117 110 42 4
5 13 116 39 117 15
5 13 115 18 117 101
5 15 13 101 97 43
5 117 30 107 16 110
5 107 100 109 117 108
5 108 85 24 30 107
5 17 22 100 109 98
5 117 22 4 86 109
5 44 104 105 77 36
5 119 13 10 117 22
5 13 105 77 117 74
5 109 117 104 105 119
5 103 100 34 26 98
5 96 34 105 103 44
5 96 43 112 105 13
5 26 111 15 106 34
5 107 81 116 105 34
5 30 39 116 96 34
5 19 16 115 93 48
5 27 20 107 108 82
5 25 102 107 67 27
5 80 6 39 116 113
5 113 48 6 18 115
5 79 102 116 67 80
5 51 45 11 117 109
5 13 75 117 11 111
5 75 113 48 111 52
5 75 13 101 92 52
5 26 16 100 93 56
5 67 94 103 102 34
5 67 64 114 102 81
5 30 98 94 76 34
5 77 34 106 94 73
5 52 91 13 119 112
5 75 106 34 67 116
5 23 11 100 109 56
5 62 45 77 117 106
5 27 34 107 94 70
5 76 56 29 68 11
5 45 37 15 106 52
5 111 91 12 5 26
5 37 34 106 95 32
5 52 111 15 5 71
5 95 26 34 91 70
5 28 27 81 107 64
5 95 41 34 105 94
5 80 59 41 116 105
5 116 19 59 65 112
5 91 19 26 112 93
5 3 62 113 117 39
5 105 77 37 41 106
5 49 59 6 13 116
5 15 49 52 74 13
5 81 16 8 28 48
5 78 5 49 111 13
5 59 67 116 96 61
5 67 91 25 96 26
5 3 11 117 110 29
5 37 58 43 106 75
5 37 23 106 119 22
5 17 119 111 23 5
5 13 75 49 43 10
5 30 64 62 27 39
5 43 35 59 75 116
5 34 67 95 33 96
5 81 113 64 8 39
5 67 112 114 96 19
5 41 67 105 102 96
5 19 13 115 112 49
5 104 43 41 75 105
5 76 117 30 29 62
5 23 34 119 98 95
5 109 52 23 15 119
5 15 75 52 55 43
5 68 16 107 56 28
5 5 53 112 111 19
5 3 48 113 110 8
5 68 30 107 76 27
5 26 119 100 91 23
5 11 48 56 110 16

# Cells
24 0 1 2 3 4 5 6 7 8 9 10 11 12 13 14 15 16 17 18 19 20 21 22 23
24 20 24 25 26 27 28 29 30 31 32 33 34 35 36 37 38 39 40 41 42 43 44 45 46
24 4 41 47 48 49 50 51 52 53 54 55 56 57 58 59 60 61 62 63 64 65 66 67 68
24 5 69 70 71 72 73 74 75 76 77 78 79 80 81 82 83 84 85 86 87 88 89 90 91
24 69 92 93 94 95 96 97 98 99 100 101 102 103 104 105 106 107 108 109 110 111 112 113 114
24 80 109 115 116 117 118 119 120 121 122 123 124 125 126 127 128 129 130 131 132 133 134 135 136
24 47 137 138 139 140 141 142 143 144 145 146 147 148 149 150 151 152 153 154 155 156 157 158 159
24 94 139 160 161 162 163 164 165 166 167 168 169 170 171 172 173 174 175 176 177 178 179 180 181
24 158 171 182 183 184 185 186 187 188 189 190 191 192 193 194 195 196 197 198 199 200 201 202 203
24 35 204 205 206 207 208 209 210 211 212 213 214 215 216 217 218 219 220 221 222 223 224 225 226
24 126 220 227 228 229 230 231 232 233 234 235 236 237 238 239 240 241 242 243 244 245 246 247 248
24 193 219 240 249 250 251 252 253 254 255 256 257 258 259 260 261 262 263 264 265 266 267 268 269
24 3 137 209 270 271 272 273 274 275 276 277 278 279 280 281 282 283 284 285 286 287 288 289 290
24 43 83 156 282 291 292 293 294 295 296 297 298 299 300 301 302 303 304 305 306 307 308 309 310
24 49 71 211 271 292 311 312 313 314 315 316 317 318 319 320 321 322 323 324 325 326 327 328 329
24 2 37 162 199 313 330 331 332 333 334 335 336 337 338 339 340 341 342 343 344 345 346 347 348
24 36 51 93 130 273 349 350 351 352 353 354 355 356 357 358 359 360 361 362 363 364 365 366 367
24 10 62 235 265 302 368 369 370 371 372 373 374 375 376 377 378 379 380 381 382 383 384 385 386
24 95 141 254 332 387 388 389 390 391 392 393 394 395 396 397 398 399 400 401 402 403 404 405 406
24 42 81 113 185 328 398 407 408 409 410 411 412 413 414 415 416 417 418 419 420 421 422 423 424
24 0 163 221 260 312 389 417 425 426 427 428 429 430 431 432 433 434 435 436 437 438 439 440 441
24 25 116 183 331 351 426 442 443 444 445 446 447 448 449 450 451 452 453 454 455 456 457 458 459
24 14 166 241 337 381 416 460 461 462 463 464 465 466 467 468 469 470 471 472 473 474 475 476 477
24 70 161 234 350 387 465 478 479 480 481 482 483 484 485 486 487 488 489 490 491 492 493 494 495
24 1 92 231 311 376 472 478 496 497 498 499 500 501 502 503 504 505 506 507 508 509 510 511 512
24 18 128 170 304 339 477 483 503 513 514 515 516 517 518 519 520 521 522 523 524 525 526 527 528
24 72 127 140 196 305 443 496 529 530 531 532 533 534 535 536 537 538 539 540 541 542 543 544 545
24 84 99 216 257 315 393 423 429 523 546 547 548 549 550 551 552 553 554 555 556 557 558 559 560
24 182 250 561 562 563 564 565 566 567 568 569 570 571 572 573 574 575 576 577 578 579 580 581 582
24 34 224 581 583 584 585 586 587 588 589 590 591 592 593 594 595 596 597 598 599 600 601 602 603
24 87 175 243 308 317 413 568 600 604 605 606 607 608 609 610 611 612 613 614 615 616 617 618 619
24 60 111 198 306 358 395 524 569 620 621 622 623 624 625 626 627 628 629 630 631 632 633 634 635
24 103 124 149 222 363 463 633 636 637 638 639 640 641 642 643 644 645 646 647 648 649 650 651 652
24 115 228 513 546 604 653 654 655 656 657 658 659 660 661 662 663 664 665 666 667 668 669 670 671
24 68 112 258 319 511 665 672 673 674 675 676 677 678 679 680 681 682 683 684 685 686 687 688 689
24 23 90 440 454 660 685 690 691 692 693 694 695 696 697 698 699 700 701 702 703 704 705 706 707
24 40 129 269 307 396 432 515 598 708 709 710 711 712 713 714 715 716 717 718 719 720 721 722 723
24 61 151 436 473 649 723 724 725 726 727 728 729 730 731 732 733 734 735 736 737 738 739 740 741
24 53 75 120 251 296 461 532 584 609 675 726 742 743 744 745 746 747 748 749 750 751 752 753 754
24 91 157 213 404 495 572 652 681 755 756 757 758 759 760 761 762 763 764 765 766 767 768 769 770
24 136 247 522 559 577 669 715 761 771 772 773 774 775 776 777 778 779 780 781 782 783 784 785 786
24 114 180 441 459 574 592 767 784 787 788 789 790 791 792 793 794 795 796 797 798 799 800 801 802
24 46 225 301 385 668 678 700 803 804 805 806 807 808 809 810 811 812 813 814 815 816 817 818 819
24 9 97 232 284 403 418 629 644 786 817 820 821 822 823 824 825 826 827 828 829 830 831 832 833
24 184 255 588 639 690 809 823 834 835 836 837 838 839 840 841 842 843 844 845 846 847 848 849 850
24 134 201 226 280 318 433 526 622 664 733 840 851 852 853 854 855 856 857 858 859 860 861 862 863
24 48 160 256 270 374 388 530 605 620 710 864 865 866 867 868 869 870 871 872 873 874 875 876 877
24 150 172 212 239 277 470 491 563 630 878 879 880 881 882 883 884 885 886 887 888 889 890 891 892
24 86 105 133 342 382 415 599 606 646 747 829 839 881 893 894 895 896 897 898 899 900 901 902 903
24 142 168 202 335 446 466 539 594 719 779 828 885 904 905 906 907 908 909 910 911 912 913 914 915
24 314 340 567 663 716 876 884 897 916 917 918 919 920 921 922 923 924 925 926 927 928 929 930 931
24 65 82 217 480 602 631 657 769 866 910 922 932 933 934 935 936 937 938 939 940 941 942 943 944
24 290 366 543 551 566 601 673 699 766 798 807 841 877 945 946 947 948 949 950 951 952 953 954 955
24 321 361 377 421 437 490 570 613 731 856 914 943 956 957 958 959 960 961 962 963 964 965 966 967
24 16 33 102 263 343 525 687 744 794 836 968 969 970 971 972 973 974 975 976 977 978 979 980 981
24 19 181 236 288 439 619 683 765 827 868 982 983 984 985 986 987 988 989 990 991 992 993 994 995
24 66 155 449 467 643 741 754 991 996 997 998 999 1000 1001 1002 1003 1004 1005 1006 1007 1008 1009 1010 1011
24 24 205 291 368 583 709 803 904 932 956 982 996 1012 1013 1014 1015 1016 1017 1018 1019 1020 1021 1022 1023
24 191 267 412 474 580 670 697 740 750 944 1024 1025 1026 1027 1028 1029 1030 1031 1032 1033 1034 1035 1036 1037
24 100 174 607 717 735 800 842 916 978 1038 1039 1040 1041 1042 1043 1044 1045 1046 1047 1048 1049 1050 1051 1052
24 73 138 237 262 372 442 497 645 703 721 763 864 927 1006 1049 1053 1054 1055 1056 1057 1058 1059 1060 1061
24 39 195 248 294 420 494 505 571 632 806 1034 1047 1059 1062 1063 1064 1065 1066 1067 1068 1069 1070 1071 1072
24 286 299 327 457 468 576 614 642 705 783 862 962 1001 1060 1073 1074 1075 1076 1077 1078 1079 1080 1081 1082
24 204 227 249 330 349 425 529 708 724 851 893 945 1038 1053 1062 1083 1084 1085 1086 1087 1088 1089 1090 1091
24 50 96 214 244 272 444 479 682 745 796 861 880 975 1007 1071 1083 1092 1093 1094 1095 1096 1097 1098 1099
24 54 101 261 356 378 400 556 595 634 691 870 1078 1100 1101 1102 1103 1104 1105 1106 1107 1108 1109 1110 1111
24 8 45 56 341 354 380 453 471 611 654 834 858 913 1041 1105 1112 1113 1114 1115 1116 1117 1118 1119 1120
24 391 410 428 499 531 713 725 805 820 878 959 1112 1121 1122 1123 1124 1125 1126 1127 1128 1129 1130 1131 1132
24 78 107 135 359 458 533 553 565 727 813 911 921 1032 1070 1108 1116 1133 1134 1135 1136 1137 1138 1139 1140
24 57 153 409 455 564 596 612 812 830 844 895 952 963 1011 1061 1093 1123 1141 1142 1143 1144 1145 1146 1147
24 108 152 253 285 300 506 679 782 846 979 1050 1074 1117 1124 1148 1149 1150 1151 1152 1153 1154 1155 1156 1157
24 15 146 192 242 303 435 542 698 743 832 994 1103 1153 1158 1159 1160 1161 1162 1163 1164 1165 1166 1167 1168
24 295 338 364 392 492 562 597 615 746 780 799 1077 1089 1149 1165 1169 1170 1171 1172 1173 1174 1175 1176 1177
24 207 230 252 370 462 548 879 906 1102 1113 1134 1141 1169 1178 1179 1180 1181 1182 1183 1184 1185 1186 1187 1188
24 22 58 118 194 386 419 502 837 860 873 924 937 1058 1189 1190 1191 1192 1193 1194 1195 1196 1197 1198 1199
24 76 148 218 281 309 325 535 554 788 843 887 912 969 1045 1136 1185 1196 1200 1201 1202 1203 1204 1205 1206
24 12 143 208 397 507 521 648 738 762 819 974 1139 1197 1207 1208 1209 1210 1211 1212 1213 1214 1215 1216 1217
24 6 38 63 537 549 886 900 933 950 976 1035 1084 1122 1194 1214 1218 1219 1220 1221 1222 1223 1224 1225 1226
24 293 373 514 550 621 672 729 755 882 896 983 1043 1221 1227 1228 1229 1230 1231 1232 1233 1234 1235 1236 1237
24 7 88 278 355 481 653 686 712 737 815 920 1042 1121 1175 1179 1227 1238 1239 1240 1241 1242 1243 1244 1245
24 276 357 516 541 865 955 977 1009 1012 1087 1174 1181 1209 1238 1246 1247 1248 1249 1250 1251 1252 1253 1254 1255
24 482 538 552 616 659 867 948 1015 1067 1097 1115 1125 1222 1256 1257 1258 1259 1260 1261 1262 1263 1264 1265 1266
24 190 268 414 476 753 759 777 847 981 990 1023 1029 1199 1206 1233 1264 1267 1268 1269 1270 1271 1272 1273 1274
24 11 85 603 706 736 831 859 907 934 1046 1069 1086 1099 1109 1166 1228 1256 1273 1275 1276 1277 1278 1279 1280
24 117 233 589 711 775 824 908 971 997 1027 1104 1161 1210 1220 1247 1278 1281 1282 1283 1284 1285 1286 1287 1288
24 106 178 501 534 561 728 768 781 852 875 961 1079 1188 1229 1255 1271 1280 1289 1290 1291 1292 1293 1294 1295
24 316 344 500 536 623 647 656 704 814 822 838 941 1033 1085 1173 1180 1253 1290 1296 1297 1298 1299 1300 1301
24 401 452 469 626 662 722 748 793 816 825 872 923 940 973 1010 1080 1096 1129 1202 1239 1274 1297 1302 1303
24 122 246 579 676 739 764 810 949 965 1111 1131 1143 1168 1195 1205 1236 1241 1288 1291 1304 1305 1306 1307 1308
24 275 334 369 390 771 804 853 894 917 1076 1092 1133 1148 1208 1257 1268 1275 1289 1309 1310 1311 1312 1313 1314
24 27 132 154 173 279 422 488 586 720 892 1095 1107 1154 1198 1260 1283 1307 1313 1315 1316 1317 1318 1319 1320
24 144 177 200 360 371 557 901 953 957 1088 1152 1164 1224 1231 1319 1321 1322 1323 1324 1325 1326 1327 1328 1329
24 274 352 498 547 772 821 905 918 947 958 1039 1055 1065 1191 1207 1322 1330 1331 1332 1333 1334 1335 1336 1337
24 434 445 486 509 520 696 801 1016 1072 1081 1106 1163 1203 1212 1248 1259 1303 1308 1333 1338 1339 1340 1341 1342
24 29 52 164 229 353 427 608 624 636 791 936 986 1024 1040 1158 1201 1218 1296 1305 1339 1343 1344 1345 1346
24 74 165 187 206 333 517 585 637 694 758 935 968 1054 1075 1101 1246 1276 1321 1347 1348 1349 1350 1351 1352
24 59 176 264 322 493 527 573 688 732 751 926 1019 1036 1138 1249 1261 1318 1325 1340 1351 1353 1354 1355 1356
24 98 169 430 450 655 802 925 939 1030 1098 1147 1178 1190 1215 1219 1284 1293 1330 1357 1358 1359 1360 1361 1362
24 31 223 424 475 590 651 666 680 929 987 1051 1082 1110 1234 1240 1320 1334 1350 1359 1363 1364 1365 1366 1367
24 64 145 320 336 394 993 1014 1048 1064 1144 1171 1182 1230 1258 1270 1277 1300 1331 1341 1367 1368 1369 1370 1371
24 346 365 375 406 484 658 684 702 903 960 984 1005 1037 1090 1177 1281 1310 1326 1362 1366 1372 1373 1374 1375
24 203 266 578 628 850 855 889 989 1003 1022 1118 1127 1156 1216 1250 1287 1337 1342 1358 1365 1368 1373 1376 1377
24 125 245 618 667 848 863 1002 1020 1052 1119 1193 1204 1252 1306 1328 1344 1349 1356 1378 1379 1380 1381 1382 1383
24 13 79 438 447 707 778 1013 1056 1146 1155 1183 1242 1262 1272 1309 1316 1323 1354 1361 1382 1384 1385 1386 1387
24 30 121 188 297 411 518 625 674 693 714 757 790 854 946 985 999 1066 1192 1317 1372 1388 1389 1390 1391
24 323 347 512 544 756 773 795 883 898 919 992 1008 1018 1091 1126 1226 1269 1301 1383 1387 1389 1392 1393 1394
24 26 210 408 464 640 730 774 787 808 1026 1063 1135 1150 1160 1170 1211 1324 1364 1379 1384 1392 1395 1396 1397
24 131 189 215 379 399 448 487 540 752 760 818 942 964 1017 1162 1213 1311 1375 1398 1399 1400 1401 1402 1403
24 528 560 591 627 671 749 792 857 891 1120 1130 1167 1172 1225 1232 1265 1376 1397 1403 1404 1405 1406 1407 1408
24 55 104 186 326 508 689 1094 1142 1159 1187 1292 1299 1327 1347 1360 1370 1381 1396 1399 1406 1409 1410 1411 1412
24 32 197 238 283 345 451 555 617 661 785 826 869 954 972 988 1263 1332 1348 1400 1411 1413 1414 1415 1416
24 28 77 147 402 485 770 970 1031 1057 1145 1176 1184 1223 1244 1282 1343 1369 1385 1414 1417 1418 1419 1420 1421
24 44 123 259 324 362 456 504 575 641 677 888 928 1128 1151 1346 1355 1377 1394 1401 1415 1418 1422 1423 1424
24 110 179 510 545 610 692 874 1004 1025 1044 1114 1132 1157 1266 1285 1295 1374 1390 1421 1425 1426 1427 1428 1429
24 67 159 329 348 405 587 701 734 789 845 931 951 1137 1217 1312 1353 1371 1391 1405 1429 1430 1431 1432 1433
24 310 384 519 558 650 695 718 776 849 915 966 1021 1028 1237 1298 1329 1336 1345 1420 1424 1426 1431 1434 1435
24 17 119 167 287 431 593 638 742 835 871 899 995 1186 1243 1254 1294 1357 1386 1402 1407 1423 1433 1435 1436
24 298 383 582 635 811 890 902 930 980 1000 1068 1140 1235 1251 1286 1314 1352 1380 1410 1416 1419 1427 1437 1438
24 21 89 289 367 489 797 833 909 938 967 998 1245 1279 1335 1378 1388 1393 1395 1408 1412 1428 1432 1438 1439
24 407 460 1073 1100 1189 1200 1267 1302 1304 1315 1338 1363 1398 1404 1409 1413 1417 1422 1425 1430 1434 1436 1437 1439
