# Generated using Miratope v0.5.0 (https://github.com/galoomba1/miratope-rs)
4OFF

# Vertices, Faces, Edges, Cells
120 720 720 120

# Vertices
1.3090169943749 0 0.8090169943749 0.5 
0.5 0 -1.3090169943749 -0.8090169943749 
0 1.3090169943749 -0.5 -0.8090169943749 
0 -1.3090169943749 -0.5 -0.8090169943749 
-0.8090169943749 0.8090169943749 0.809016994375 -0.8090169943749 
-0.8090169943749 -0.8090169943749 0.809016994375 -0.8090169943749 
1.3090169943749 0.8090169943749 -0.5 0 
0.5 -1.3090169943749 0.8090169943749 0 
0 0 1.6180339887499 0 
-0.8090169943749 0 -0.5 -1.309016994375 
1.3090169943749 -0.8090169943749 -0.5 0 
0.5 1.3090169943749 0.8090169943749 0 
1.3090169943749 -0 0.8090169943749 -0.5 
0.5 0 -1.3090169943749 0.8090169943749 
0 1.3090169943749 -0.5 0.8090169943749 
0 -0.8090169943749 -1.3090169943749 -0.5 
-0.8090169943749 1.309016994375 0 -0.5 
1.3090169943749 0.5 0 0.8090169943749 
0.5 -0.8090169943749 0 -1.3090169943749 
0 0.5 0.8090169943749 -1.3090169943749 
-0.8090169943749 0.5 -1.309016994375 0 
0 -0.8090169943749 -1.3090169943749 0.5 
-0.8090169943749 1.309016994375 0 0.5 
-0.8090169943749 0 -0.5 1.309016994375 
1.3090169943749 0.5 0 -0.8090169943749 
0.5 -0.8090169943749 0 1.3090169943749 
0 0.5 0.8090169943749 1.3090169943749 
0 -1.3090169943749 -0.5 0.8090169943749 
-0.8090169943749 0.8090169943749 0.809016994375 0.8090169943749 
-0.8090169943749 -0.8090169943749 0.809016994375 0.8090169943749 
0 -1.6180339887499 0 0 
-0.8090169943749 0.5 1.309016994375 0 
1.3090169943749 -0.5 0 0.8090169943749 
0.5 0.8090169943749 0 -1.3090169943749 
0 -0.5 0.8090169943749 -1.3090169943749 
0 1.6180339887499 0 0 
-0.8090169943749 -0.5 1.309016994375 0 
0 -0.5 0.8090169943749 1.3090169943749 
1.3090169943749 -0.5 0 -0.8090169943749 
0.5 0.8090169943749 0 1.3090169943749 
0 0.8090169943749 -1.3090169943749 -0.5 
-0.8090169943749 -1.309016994375 0 -0.5 
-0.8090169943749 -0.5 -1.309016994375 0 
0 0.8090169943749 -1.3090169943749 0.5 
-0.8090169943749 -1.309016994375 0 0.5 
0 0.5 -0.8090169943749 -1.3090169943749 
-0.8090169943749 -0.8090169943749 -0.8090169943749 0.809016994375 
0 0.5 -0.8090169943749 1.3090169943749 
-0.8090169943749 -0.8090169943749 -0.8090169943749 -0.809016994375 
1.3090169943749 -0.8090169943749 0.5 0 
0.5 1.3090169943749 -0.8090169943749 0 
0 0 0 -1.6180339887499 
0 -0.8090169943749 1.3090169943749 0.5 
1.3090169943749 0 -0.8090169943749 0.5 
0.5 0 1.3090169943749 -0.8090169943749 
0 1.3090169943749 0.5 -0.8090169943749 
-0.8090169943749 0 0.5 1.309016994375 
0 -0.8090169943749 1.3090169943749 -0.5 
0 1.3090169943749 0.5 0.8090169943749 
-0.8090169943749 0 0.5 -1.309016994375 
1.3090169943749 0 -0.8090169943749 -0.5 
0.5 0 1.3090169943749 0.8090169943749 
0 0 0 1.6180339887499 
0 0.8090169943749 1.3090169943749 0.5 
0 -0.5 -0.8090169943749 1.3090169943749 
0 -1.3090169943749 0.5 -0.8090169943749 
1.3090169943749 0.8090169943749 0.5 0 
0.5 -1.3090169943749 -0.8090169943749 0 
0 -0.5 -0.8090169943749 -1.3090169943749 
-0.8090169943749 0.809016994375 -0.8090169943749 0.809016994375 
-0.8090169943749 0.809016994375 -0.8090169943749 -0.809016994375 
0 0.8090169943749 1.3090169943749 -0.5 
0 -1.3090169943749 0.5 0.8090169943749 
0 0 -1.6180339887499 0 
-1.3090169943749 0 0.809016994375 -0.5 
-1.3090169943749 0.809016994375 -0.5 0 
0.809016994375 0.8090169943749 0.8090169943749 0.8090169943749 
0.809016994375 0 -0.5 -1.3090169943749 
-1.3090169943749 0 0.809016994375 0.5 
0.809016994375 0.8090169943749 0.8090169943749 -0.8090169943749 
0.809016994375 0 -0.5 1.3090169943749 
0.809016994375 -0.5 -1.3090169943749 0 
-0.5 -1.3090169943749 0.809016994375 0 
0.809016994375 0.5 1.3090169943749 0 
0.809016994375 0.5 -1.3090169943749 0 
0.809016994375 -0.8090169943749 -0.8090169943749 -0.8090169943749 
-0.5 -0.8090169943749 0 1.309016994375 
0.809016994375 1.3090169943749 0 0.5 
0.809016994375 -0.8090169943749 0.8090169943749 -0.8090169943749 
-1.3090169943749 0.5 0 0.809016994375 
-1.3090169943749 0.5 0 -0.809016994375 
0.809016994375 -0.8090169943749 0.8090169943749 0.8090169943749 
0.809016994375 1.3090169943749 0 -0.5 
0.809016994375 -0.8090169943749 -0.8090169943749 0.8090169943749 
-0.5 -0.8090169943749 0 -1.309016994375 
-0.5 0.8090169943749 0 -1.3090169943749 
-0.5 0 -1.3090169943749 0.809016994375 
-0.5 0.8090169943749 0 1.3090169943749 
-0.5 0 -1.3090169943749 -0.809016994375 
1.6180339887499 0 -0 0 
-0.5 1.3090169943749 0.809016994375 0 
0.809016994375 -1.3090169943749 0 0.5 
-0.5 0 1.309016994375 -0.8090169943749 
0.809016994375 -1.3090169943749 0 -0.5 
-0.5 0 1.309016994375 0.8090169943749 
-0.5 1.309016994375 -0.8090169943749 0 
-1.3090169943749 -0.809016994375 -0.5 0 
-1.3090169943749 -0.5 0 0.809016994375 
-1.3090169943749 -0.5 0 -0.809016994375 
0.809016994375 -0.5 1.3090169943749 0 
0.809016994375 0.8090169943749 -0.8090169943749 -0.8090169943749 
0.809016994375 0.8090169943749 -0.8090169943749 0.8090169943749 
-0.5 -1.309016994375 -0.8090169943749 0 
0.809016994375 -0 0.5 1.3090169943749 
-1.3090169943749 -0.809016994375 0.5 0 
-1.3090169943749 -0 -0.809016994375 0.5 
0.809016994375 -0 0.5 -1.3090169943749 
-1.6180339887499 0 0 0 
-1.3090169943749 0.809016994375 0.5 0 
-1.3090169943749 -0 -0.809016994375 -0.5 

# Faces
5 0 1 11 10 2
5 6 3 0 1 7
5 0 4 6 8 2
5 10 5 0 3 8
5 11 5 0 4 7
5 6 7 11 10 8
5 10 9 6 3 2
5 4 1 11 9 6
5 7 9 10 5 1
5 11 5 2 8 9
5 7 4 3 8 9
5 4 3 2 5 1
5 11 13 12 14 10
5 12 15 17 18 13
5 17 16 12 14 19
5 15 19 10 9 12
5 12 9 11 18 16
5 18 11 10 19 17
5 17 15 14 10 20
5 11 20 17 16 13
5 9 13 18 20 10
5 14 9 11 20 19
5 15 16 18 20 19
5 14 9 13 16 15
5 24 21 0 1 25
5 0 22 24 26 2
5 10 23 0 21 26
5 0 23 11 25 22
5 24 25 11 10 26
5 10 2 21 24 20
5 11 20 24 22 1
5 1 23 10 20 25
5 11 23 2 26 20
5 22 21 26 20 25
5 21 22 1 23 2
5 7 13 12 27 6
5 12 14 8 6 28
5 12 27 8 10 29
5 12 29 11 7 28
5 14 27 6 23 10
5 11 23 6 28 13
5 13 29 10 23 7
5 23 8 14 29 11
5 7 23 8 27 28
5 14 29 13 28 27
5 17 30 24 25 18
5 26 19 17 31 24
5 17 29 10 26 30
5 17 29 11 25 31
5 24 5 10 19 30
5 11 18 31 24 5
5 5 25 18 29 10
5 26 5 11 29 19
5 31 30 26 5 25
5 30 31 18 29 19
5 32 34 6 7 33
5 32 33 39 38 35
5 34 37 38 36 32
5 28 32 35 37 6
5 7 28 32 36 39
5 39 7 6 37 38
5 38 4 6 34 35
5 4 39 33 28 6
5 4 38 36 33 7
5 4 37 34 28 7
5 35 36 39 4 37
5 33 28 34 35 36
5 12 40 32 33 13
5 27 34 32 41 12
5 6 34 40 12 9
5 9 12 41 33 7
5 6 42 32 40 27
5 13 41 32 42 7
5 9 13 33 42 6
5 9 27 34 42 7
5 40 41 33 42 34
5 13 41 40 27 9
5 38 43 0 1 39
5 3 37 38 44 0
5 6 23 0 43 37
5 7 23 0 44 39
5 38 42 6 3 43
5 23 6 42 39 1
5 44 1 7 42 38
5 3 23 7 42 37
5 39 44 43 37 42
5 43 44 1 23 3
5 49 45 17 18 50
5 17 30 47 49 46
5 20 24 47 45 17
5 20 17 46 50 25
5 50 25 24 47 49
5 49 48 24 30 45
5 20 24 48 50 18
5 49 46 18 25 48
5 25 20 30 47 48
5 45 46 18 20 30
5 50 48 47 45 46
5 54 1 0 51 53
5 0 5 24 52 51
5 53 44 0 21 52
5 0 5 25 54 44
5 53 52 24 25 54
5 24 48 53 51 21
5 5 24 48 54 1
5 1 44 53 48 25
5 52 48 54 44 51
5 25 48 52 21 5
5 5 21 51 44 1
5 31 49 55 52 24
5 22 53 55 47 24
5 22 54 50 31 24
5 54 50 49 55 53
5 47 52 53 56 49
5 31 49 56 54 25
5 53 22 25 50 56
5 52 22 54 56 55
5 25 31 47 52 22
5 31 47 55 56 50
5 17 18 61 60 57
5 17 57 58 49 31
5 16 60 58 45 17
5 17 31 50 61 16
5 50 61 60 58 49
5 57 45 49 59 60
5 18 61 59 49 31
5 16 18 50 59 60
5 61 16 57 58 59
5 57 16 18 31 45
5 31 45 58 59 50
5 60 62 12 13 61
5 12 29 17 57 62
5 12 41 61 18 29
5 12 15 57 60 41
5 29 17 46 61 13
5 15 62 60 46 17
5 18 46 60 41 13
5 62 41 61 46 57
5 29 15 57 46 18
5 62 41 13 29 15
5 53 63 38 39 54
5 38 63 65 66 36
5 39 67 66 64 38
5 38 64 65 53 44
5 54 44 38 36 67
5 66 65 53 54 67
5 56 66 64 63 53
5 53 44 39 67 56
5 56 66 36 39 54
5 54 56 65 63 44
5 63 44 39 36 64
5 65 56 67 36 64
5 32 33 67 66 68
5 35 64 66 69 32
5 32 68 64 38 42
5 42 32 69 67 39
5 68 35 38 70 66
5 42 33 67 70 38
5 66 69 33 39 70
5 39 42 35 64 70
5 68 69 33 42 35
5 68 69 67 70 64
5 38 4 0 51 63
5 22 0 43 63 53
5 4 39 54 22 0
5 43 51 53 70 38
5 1 4 38 70 54
5 39 1 22 53 70
5 63 70 54 22 51
5 39 70 63 43 4
5 4 43 51 22 1
5 12 28 32 71 62
5 16 61 33 28 12
5 16 60 71 40 12
5 61 33 32 71 60
5 32 28 13 61 69
5 32 40 62 60 69
5 33 13 16 60 69
5 61 69 71 62 16
5 40 28 33 69 71
5 13 28 40 62 16
5 32 36 66 72 71
5 41 60 72 68 32
5 36 67 61 41 32
5 66 67 61 60 72
5 59 66 68 71 60
5 36 66 59 61 33
5 60 41 33 67 59
5 61 41 71 72 59
5 33 41 71 68 36
5 72 68 36 67 59
5 49 73 66 67 50
5 55 65 66 59 49
5 49 48 53 65 73
5 48 49 59 67 54
5 70 53 55 73 66
5 48 50 67 70 53
5 70 54 50 59 66
5 55 48 54 70 65
5 50 59 73 55 48
5 73 59 67 70 65
5 56 66 72 58 49
5 60 46 49 73 72
5 49 56 67 61 46
5 66 73 58 60 69
5 56 66 69 61 50
5 67 50 46 60 69
5 72 69 61 46 58
5 50 56 73 58 46
5 72 69 67 56 73
5 77 14 12 40 76
5 34 28 12 74 76
5 9 8 77 74 12
5 6 34 76 77 8
5 6 75 76 40 28
5 6 75 77 14 9
5 14 74 76 75 8
5 34 75 8 9 28
5 34 75 77 74 40
5 28 9 14 74 40
5 79 43 0 2 80
5 0 4 37 79 78
5 23 8 80 78 0
5 79 37 6 8 80
5 4 43 79 75 6
5 23 2 80 75 6
5 78 2 8 75 79
5 80 78 43 37 75
5 4 23 8 75 37
5 43 78 2 23 4
5 6 27 76 81 37
5 3 79 81 34 6
5 6 3 80 77 27
5 79 81 76 77 80
5 34 76 82 79 37
5 8 80 82 76 27
5 8 3 79 82 77
5 80 3 37 81 82
5 37 3 8 27 34
5 27 77 82 81 34
5 88 26 24 52 87
5 84 26 24 47 83
5 85 52 24 30 83
5 87 21 24 47 85
5 24 21 88 84 30
5 87 85 83 84 88
5 52 87 86 83 47
5 30 83 86 88 26
5 21 26 84 86 87
5 52 21 88 86 85
5 26 21 52 47 30
5 30 47 85 86 84
5 17 45 83 84 19
5 31 17 89 83 47
5 17 89 84 26 20
5 31 45 83 90 24
5 20 24 90 84 19
5 83 89 19 26 90
5 47 90 26 20 31
5 45 89 84 90 47
5 31 20 19 89 45
5 0 2 88 87 51
5 52 22 0 78 87
5 26 5 0 78 88
5 24 90 87 51 22
5 2 88 90 24 5
5 26 90 87 78 2
5 88 78 51 52 90
5 22 5 26 90 52
5 22 5 2 78 51
5 92 62 12 14 91
5 29 12 74 91 19
5 16 57 92 74 12
5 92 57 17 19 91
5 29 17 89 91 14
5 16 62 92 89 17
5 62 74 91 89 57
5 14 19 89 92 74
5 57 89 19 29 16
5 14 74 62 16 29
5 17 57 93 83 30
5 30 17 15 91 84
5 93 45 17 15 92
5 84 91 92 93 83
5 30 83 94 91 19
5 57 92 94 83 45
5 15 57 93 94 91
5 15 19 84 94 92
5 45 93 94 84 30
5 15 57 45 30 19
5 77 100 99 95 76
5 99 96 76 81 97
5 75 76 95 97 79
5 76 96 100 80 75
5 79 97 99 100 80
5 99 98 79 81 95
5 75 79 98 100 77
5 80 98 99 96 77
5 80 75 81 97 98
5 77 75 81 95 96
5 97 98 100 96 95
5 0 51 101 79 3
5 3 80 88 21 0
5 21 87 101 43 0
5 79 101 87 88 80
5 2 3 79 98 88
5 51 87 98 79 43
5 21 2 80 98 87
5 51 101 98 88 21
5 3 80 98 101 43
5 21 2 3 43 51
5 79 82 99 102 101
5 78 79 82 100 88
5 78 79 97 102 87
5 88 100 99 102 87
5 97 101 87 86 99
5 80 78 87 86 100
5 88 80 82 99 86
5 86 102 101 78 88
5 80 82 97 101 78
5 97 82 100 86 102
5 27 12 62 103 76
5 15 91 77 27 12
5 15 92 103 40 12
5 91 77 76 103 92
5 27 14 91 96 76
5 40 76 96 92 62
5 15 91 96 103 62
5 15 14 77 96 92
5 27 40 103 96 77
5 27 14 15 62 40
5 76 103 104 99 82
5 74 76 82 100 91
5 76 95 104 92 74
5 100 91 92 104 99
5 91 77 82 99 94
5 103 74 91 94 104
5 95 103 92 94 99
5 77 74 92 94 100
5 95 82 77 74 103
5 95 82 100 94 104
5 83 84 100 99 105
5 85 102 99 94 83
5 90 88 100 94 83
5 90 83 105 102 87
5 87 98 99 105 85
5 90 84 100 98 87
5 84 94 99 98 88
5 88 98 102 85 90
5 105 94 84 90 85
5 105 94 100 98 102
5 83 93 104 99 86
5 83 89 91 100 86
5 92 89 83 105 104
5 84 86 99 96 91
5 89 93 104 96 91
5 99 105 93 92 96
5 89 84 100 96 92
5 84 89 93 105 86
5 100 96 104 105 86
5 8 10 26 88 80
5 10 19 91 77 8
5 14 91 84 26 10
5 10 19 84 88 2
5 10 2 80 77 14
5 84 88 80 77 91
5 26 88 100 91 19
5 8 80 100 91 14
5 2 88 100 77 8
5 2 26 84 100 80
5 19 26 2 8 14
5 19 14 77 100 84
5 10 106 91 15 29
5 9 27 77 106 10
5 74 27 8 106 91
5 29 9 8 106 19
5 77 106 19 15 74
5 9 29 15 74 27
5 10 106 88 21 5
5 3 23 10 106 80
5 8 3 78 88 106
5 26 106 80 78 21
5 8 106 26 5 23
5 3 78 21 5 23
5 32 34 81 109 68
5 36 32 107 109 64
5 42 37 81 107 32
5 81 37 38 64 109
5 36 38 108 109 68
5 42 38 108 81 34
5 109 108 37 34 107
5 42 36 64 108 37
5 64 108 81 107 68
5 34 107 68 36 42
5 44 0 78 101 63
5 79 37 38 63 101
5 4 38 108 79 3
5 44 38 108 101 51
5 78 51 63 108 79
5 3 78 101 108 37
5 37 4 44 63 108
5 3 78 51 44 4
5 110 63 38 35 109
5 38 43 79 81 35
5 43 38 64 110 101
5 81 109 110 101 79
5 79 37 35 109 97
5 63 43 79 97 110
5 64 109 97 101 63
5 43 37 81 97 101
5 37 35 64 63 43
5 35 81 97 110 64
5 32 34 76 103 71
5 35 32 71 111 109
5 32 40 76 81 35
5 32 40 103 111 68
5 81 109 111 103 76
5 35 109 95 76 34
5 40 76 95 111 71
5 71 103 95 109 68
5 40 103 95 81 34
5 34 40 71 68 35
5 81 35 68 111 95
5 12 74 103 71 41
5 27 76 107 32 28
5 41 32 107 103 62
5 74 62 71 107 76
5 34 27 74 103 107
5 41 28 34 107 71
5 41 28 27 74 62
5 94 86 88 106 91
5 82 96 91 106 80
5 88 106 77 82 98
5 98 86 84 106 80
5 96 94 84 106 77
5 96 94 86 98 82
5 79 108 109 95 82
5 79 98 102 110 108
5 109 95 99 102 110
5 81 109 112 99 82
5 98 101 110 112 99
5 109 108 101 102 112
5 98 82 81 108 101
5 110 108 81 95 112
5 102 98 82 95 112
5 107 76 82 97 109
5 76 96 104 111 107
5 97 109 111 104 99
5 96 99 112 111 103
5 109 112 104 103 107
5 96 82 81 107 103
5 112 97 81 107 111
5 104 96 82 97 112
5 30 20 10 106 84
5 89 30 26 106 91
5 26 20 29 14 106
5 84 89 15 14 106
5 15 89 30 20 29
5 52 87 101 63 53
5 63 53 55 113 110
5 53 65 113 85 52
5 85 55 53 51 87
5 51 53 65 110 101
5 87 101 110 113 85
5 55 113 102 87 52
5 63 110 102 87 51
5 65 113 102 101 63
5 51 101 102 85 52
5 52 55 65 63 51
5 102 110 65 55 85
5 47 49 73 113 85
5 49 56 65 113 114
5 52 48 49 114 85
5 56 73 113 115 53
5 47 85 115 53 48
5 52 115 113 114 47
5 56 48 52 115 65
5 114 73 65 115 85
5 73 114 47 48 56
5 22 53 115 87 21
5 44 43 101 115 53
5 43 63 115 87 78
5 52 115 101 78 21
5 44 22 52 115 63
5 21 78 43 44 22
5 46 58 93 89 17
5 49 47 83 93 58
5 31 49 114 83 30
5 46 49 114 93 57
5 83 114 58 57 89
5 89 30 47 114 93
5 47 114 58 46 31
5 30 89 57 46 31
5 49 58 116 113 55
5 45 83 85 55 49
5 45 49 73 116 93
5 113 85 83 93 116
5 47 83 105 113 55
5 58 116 105 83 45
5 105 113 73 58 93
5 55 85 105 116 73
5 47 45 93 105 85
5 45 47 55 73 58
5 86 87 115 113 105
5 97 110 115 87 98
5 99 97 110 113 105
5 99 86 85 113 112
5 97 112 113 115 101
5 98 86 85 115 101
5 85 105 112 110 115
5 97 112 105 86 98
5 86 102 113 114 83
5 83 94 104 116 114
5 102 99 104 116 113
5 93 116 112 99 94
5 93 114 113 112 104
5 102 112 116 114 85
5 86 94 93 114 85
5 102 112 104 94 86
5 11 18 61 33 7
5 29 16 61 117 11
5 11 117 33 28 9
5 28 41 61 117 7
5 18 117 7 9 29
5 18 117 33 41 16
5 28 9 29 16 41
5 7 39 54 25 11
5 54 117 11 5 22
5 11 23 4 39 117
5 54 117 7 4 44
5 7 23 5 25 117
5 22 44 39 117 25
5 5 23 4 44 22
5 13 61 50 25 11
5 11 18 50 54 1
5 1 39 33 13 11
5 54 25 18 61 67
5 54 39 33 61 50
5 13 7 39 67 61
5 7 1 54 67 33
5 13 7 1 25 18
5 1 25 50 67 39
5 33 13 18 50 67
5 75 37 35 107 76
5 34 35 108 79 75
5 82 75 37 108 97
5 82 75 34 107 95
5 107 95 97 108 35
5 54 117 61 59 56
5 61 69 36 39 117
5 33 117 54 70 36
5 50 117 39 70 56
5 69 59 50 117 33
5 69 59 56 70 36
5 70 65 110 108 38
5 68 66 65 110 109
5 36 66 118 109 35
5 70 66 118 110 63
5 108 63 65 118 109
5 63 70 36 35 108
5 68 118 110 108 35
5 68 118 65 70 36
5 32 107 111 72 69
5 66 72 111 109 64
5 66 118 111 71 69
5 72 118 109 107 71
5 71 107 35 36 69
5 111 118 64 35 107
5 72 69 36 64 118
5 88 106 19 30 90
5 2 106 84 90 21
5 19 106 2 5 20
5 20 5 21 90 30
5 114 49 59 72 116
5 57 60 72 116 93
5 59 73 116 119 60
5 45 93 119 60 46
5 114 45 57 119 116
5 73 72 119 93 114
5 46 59 72 119 57
5 59 46 45 114 73
5 60 57 92 103 71
5 15 92 119 60 16
5 60 41 40 103 119
5 40 74 92 119 71
5 74 15 57 119 103
5 41 16 57 119 71
5 41 16 15 74 40
5 60 71 111 116 58
5 92 62 60 58 93
5 103 62 60 72 111
5 93 92 103 111 116
5 57 92 104 116 58
5 62 92 104 111 71
5 103 71 72 116 104
5 57 62 103 104 93
5 58 93 104 111 72
5 58 72 71 62 57
5 24 90 85 55 48
5 83 90 52 55 114
5 48 31 30 90 52
5 45 114 85 90 30
5 55 114 45 31 48
5 99 105 116 111 95
5 94 92 119 116 105
5 92 96 95 111 119
5 95 112 116 119 103
5 93 119 103 96 94
5 93 105 112 111 119
5 96 94 105 112 95
5 42 6 75 81 35
5 37 75 27 28 42
5 81 107 40 27 75
5 40 107 35 42 28
5 70 64 110 115 53
5 66 64 110 113 73
5 56 55 113 118 66
5 64 118 113 115 63
5 56 70 63 115 55
5 110 118 73 55 115
5 56 70 64 118 73
5 66 65 113 116 72
5 73 66 68 111 116
5 110 113 116 111 109
5 65 113 112 109 64
5 68 72 116 112 109
5 73 72 111 112 113
5 112 116 73 65 110
5 64 110 112 111 68
5 64 65 73 72 68
5 102 113 118 109 97
5 104 116 118 109 95
5 105 104 111 118 113
5 110 102 105 116 118
5 110 97 95 111 118
5 97 102 105 104 95
5 20 31 50 117 11
5 25 117 61 46 31
5 13 117 25 20 29
5 16 46 50 117 13
5 31 20 29 16 46
5 55 115 87 90 47
5 102 115 52 90 86
5 55 115 102 105 114
5 86 90 47 114 105
5 59 58 116 118 66
5 114 58 72 118 113
5 65 118 116 114 55
5 59 56 55 114 58
5 65 56 59 72 118
5 26 90 86 100 106
5 19 89 94 100 106
5 94 89 30 90 86
5 18 31 48 54 117
5 48 56 67 117 25
5 59 46 18 117 67
5 31 48 56 59 46
5 75 27 14 106 80
5 2 106 77 75 3
5 9 23 2 106 14
5 9 23 3 75 27
5 69 60 119 111 68
5 72 119 103 107 68
5 111 107 40 62 119
5 62 119 72 69 41
5 41 69 68 107 40
5 92 89 45 58 119
5 93 89 15 62 119
5 46 16 62 119 58
5 45 89 15 16 46
5 81 75 3 43 108
5 42 4 3 75 34
5 43 108 35 42 4
5 119 71 68 118 116
5 59 69 71 119 58
5 111 119 58 73 118
5 68 118 73 59 69
5 1 117 18 20 5
5 22 48 50 117 1
5 22 48 31 20 5
5 105 114 58 119 104
5 89 94 104 119 57
5 89 94 105 114 45
5 42 36 67 117 7
5 42 28 13 117 39
5 13 41 69 67 117
5 28 42 36 69 41
5 64 65 115 101 108
5 108 97 102 115 63
5 65 115 102 112 118
5 64 108 97 112 118
5 82 75 8 106 100
5 74 96 100 106 14
5 82 96 74 27 75
5 108 43 51 115 110
5 65 70 44 51 115
5 44 70 64 108 43
5 85 115 51 21 90
5 55 48 22 51 115
5 21 90 47 48 22
5 42 4 1 117 33
5 1 117 13 9 23
5 28 42 4 23 9
5 71 119 104 95 107
5 74 96 104 119 62
5 96 74 40 107 95
5 1 117 67 70 44
5 36 70 44 4 42
5 118 112 104 119 72
5 107 95 112 118 68
5 98 78 2 106 100
5 82 98 78 3 75
5 51 115 102 98 78
5 43 108 97 98 78
5 23 9 29 20 5
5 94 89 15 74 96
5 22 48 56 70 44
5 73 118 112 105 114
5 78 98 86 90 21
5 59 69 41 16 46

# Cells
12 0 1 2 3 4 5 6 7 8 9 10 11
12 12 13 14 15 16 17 18 19 20 21 22 23
12 0 24 25 26 27 28 29 30 31 32 33 34
12 5 12 35 36 37 38 39 40 41 42 43 44
12 17 28 45 46 47 48 49 50 51 52 53 54
12 55 56 57 58 59 60 61 62 63 64 65 66
12 35 55 67 68 69 70 71 72 73 74 75 76
12 1 60 77 78 79 80 81 82 83 84 85 86
12 45 87 88 89 90 91 92 93 94 95 96 97
12 24 98 99 100 101 102 103 104 105 106 107 108
12 91 102 109 110 111 112 113 114 115 116 117 118
12 87 119 120 121 122 123 124 125 126 127 128 129
12 13 119 130 131 132 133 134 135 136 137 138 139
12 140 141 142 143 144 145 146 147 148 149 150 151
12 56 142 152 153 154 155 156 157 158 159 160 161
12 77 98 140 162 163 164 165 166 167 168 169 170
12 67 130 171 172 173 174 175 176 177 178 179 180
12 152 174 181 182 183 184 185 186 187 188 189 190
12 112 145 191 192 193 194 195 196 197 198 199 200
12 123 184 191 201 202 203 204 205 206 207 208 209
12 36 69 210 211 212 213 214 215 216 217 218 219
12 2 79 220 221 222 223 224 225 226 227 228 229
12 213 223 230 231 232 233 234 235 236 237 238 239
12 240 241 242 243 244 245 246 247 248 249 250 251
12 46 89 241 252 253 254 255 256 257 258 259 260
12 25 99 240 261 262 263 264 265 266 267 268 269
12 14 131 270 271 272 273 274 275 276 277 278 279
12 252 273 280 281 282 283 284 285 286 287 288 289
12 233 290 291 292 293 294 295 296 297 298 299 300
12 220 261 301 302 303 304 305 306 307 308 309 310
12 294 304 311 312 313 314 315 316 317 318 319 320
12 210 270 321 322 323 324 325 326 327 328 329 330
12 290 324 331 332 333 334 335 336 337 338 339 340
12 245 314 341 342 343 344 345 346 347 348 349 350
12 283 334 341 351 352 353 354 355 356 357 358 359
12 360 361 362 363 364 365 366 367 368 369 370 371
12 15 37 212 271 322 361 372 373 374 375 376 377
12 3 26 222 263 302 360 378 379 380 381 382 383
12 57 154 384 385 386 387 388 389 390 391 392 393
12 78 162 221 301 394 395 396 397 398 399 400 401
12 387 395 402 403 404 405 406 407 408 409 410 411
12 384 412 413 414 415 416 417 418 419 420 421 422
12 68 171 211 321 412 423 424 425 426 427 428 429
12 297 317 335 347 354 365 430 431 432 433 434 435
12 295 311 405 436 437 438 439 440 441 442 443 444
12 291 331 416 439 445 446 447 448 449 450 451 452
12 18 47 254 274 281 362 372 453 454 455 456 457
12 458 459 460 461 462 463 464 465 466 467 468 469
12 113 193 460 470 471 472 473 474 475 476 477 478
12 100 163 262 303 394 458 479 480 481 482 483 484
12 88 120 253 280 485 486 487 488 489 490 491 492
12 470 486 493 494 495 496 497 498 499 500 501 502
12 315 345 440 463 503 504 505 506 507 508 509 510
12 342 351 496 506 511 512 513 514 515 516 517 518
12 16 38 70 132 172 519 520 521 522 523 524 525
12 4 27 80 101 164 526 527 528 529 530 531 532
12 519 526 533 534 535 536 537 538 539 540 541 542
12 234 292 390 406 417 436 445 543 544 545 546 547
12 148 158 186 197 205 537 548 549 550 551 552 553
12 141 156 388 402 554 555 556 557 558 559 560 561
12 153 181 385 413 556 562 563 564 565 566 567 568
12 29 49 244 256 265 363 378 453 569 570 571 572
12 124 202 488 495 573 574 575 576 577 578 579 580
12 133 173 272 323 423 581 582 583 584 585 586 587
12 574 581 588 589 590 591 592 593 594 595 596 597
12 92 109 242 255 472 487 494 598 599 600 601 602
12 337 356 448 514 591 603 604 605 606 607 608 609
12 58 71 214 230 386 414 424 543 610 611 612 613
12 146 195 459 473 557 614 615 616 617 618 619 620
12 555 563 615 621 622 623 624 625 626 627 628 629
12 438 447 505 513 603 623 630 631 632 633 634 635
12 19 48 90 122 134 520 533 636 637 638 639 640
12 246 344 464 475 497 503 511 599 641 642 643 644
12 192 201 471 493 573 616 621 645 646 647 648 649
12 247 257 284 343 352 366 430 454 569 650 651 652
12 94 114 125 194 203 536 548 637 653 654 655 656
12 6 39 215 225 232 364 373 379 657 658 659 660
12 176 182 415 425 562 583 590 661 662 663 664 665
12 121 135 275 282 485 576 582 589 666 667 668 669
12 61 81 224 231 389 396 403 544 610 670 671 672
12 185 204 564 575 588 622 645 661 673 674 675 676
12 30 50 93 104 111 527 534 636 653 677 678 679
12 285 353 489 498 512 577 592 604 666 680 681 682
12 59 72 155 175 183 522 538 549 683 684 685 686
12 408 441 466 507 558 617 624 630 687 688 689 690
12 216 235 293 325 332 367 374 431 657 691 692 693
12 143 165 397 404 462 480 554 614 687 694 695 696
12 103 110 243 264 461 474 479 598 641 697 698 699
12 7 40 62 73 82 521 528 535 684 700 701 702
12 326 333 418 426 446 584 593 605 663 703 704 705
12 63 83 144 157 166 529 539 550 683 700 706 707
12 419 449 565 594 606 625 631 662 673 703 708 709
12 226 236 296 305 312 368 380 432 658 691 710 711
12 306 313 398 407 437 465 481 504 688 694 712 713
12 8 20 31 41 51 523 530 540 638 677 701 714
12 276 286 327 336 355 585 595 607 667 681 704 715
12 105 115 147 167 196 531 541 551 654 678 706 716
12 499 515 578 596 608 626 632 646 675 680 708 717
12 248 266 307 316 346 369 381 433 570 650 710 718
12 249 267 308 318 348 467 482 508 642 697 712 718
12 9 21 32 42 52 370 375 382 455 571 659 714
12 127 137 178 188 207 579 586 597 664 668 674 719
12 126 136 177 187 206 524 542 552 639 655 685 719
12 469 477 500 509 516 619 627 633 643 647 689 717
12 277 287 328 338 357 371 376 434 456 651 692 715
12 227 237 298 309 319 399 409 442 545 670 711 713
12 106 116 149 168 198 468 476 483 618 695 698 716
12 10 43 64 74 84 217 228 238 611 660 671 702
12 392 411 422 443 451 547 560 567 628 634 690 709
12 218 239 299 329 339 420 427 450 546 612 693 705
12 65 85 150 159 169 391 400 410 559 672 696 707
12 33 53 95 107 117 250 258 268 572 600 679 699
12 251 259 288 349 358 490 501 517 601 644 652 682
12 66 75 160 179 189 393 421 428 566 613 665 686
12 22 54 96 128 138 260 278 289 457 492 640 669
12 97 118 129 199 208 478 491 502 580 602 648 656
12 23 44 76 139 180 219 279 330 377 429 525 587
12 151 161 190 200 209 553 561 568 620 629 649 676
12 11 34 86 108 170 229 269 310 383 401 484 532
12 300 320 340 350 359 435 444 452 510 518 609 635
