# Generated using Miratope v0.5.0 (https://github.com/galoomba1/miratope-rs)
4OFF

# Vertices, Faces, Edges, Cells
120 2520 1200 720

# Vertices
0.0834626338555 0 0.3535533905933 0.5 
-0.4885987689621 0 0.2185080122244 0.3090169943749 
0.2185080122244 -0.3090169943749 0.4885987689621 -0 
0.2185080122244 -0.5 0.2185080122244 0.1909830056251 
-0.3535533905933 -0.3090169943749 0.3535533905933 -0.1909830056251 
-0.3535533905933 -0.5 0.0834626338555 -0 
0.1350453783689 -0.3090169943749 0.1350453783689 0.5 
0.1350453783689 0 0.5720614028177 0.1909830056251 
-0.4370160244488 -0.3090169943749 -0 0.3090169943749 
-0.4370160244488 0 0.4370160244488 -0 
0.0834626338555 -0 0.3535533905933 -0.5 
-0.4885987689621 0 0.2185080122244 -0.3090169943749 
0.2185080122244 0.1909830056251 -0.2185080122244 -0.5 
0.2185080122244 -0.1909830056251 -0.2185080122244 -0.5 
-0.3535533905933 0.1909830056251 -0.3535533905933 -0.3090169943749 
-0.3535533905933 -0.1909830056251 -0.3535533905933 -0.3090169943749 
0.1350453783689 -0.3090169943749 0.1350453783689 -0.5 
0.1350453783689 0.3090169943749 0.1350453783689 -0.5 
-0.4370160244488 -0.3090169943749 -0 -0.3090169943749 
-0.4370160244488 0.3090169943749 -0 -0.3090169943749 
0.0834626338555 0.5 -0.3535533905933 0 
-0.4885987689621 0.3090169943749 -0.2185080122244 0 
0.2185080122244 0.1909830056251 -0.2185080122244 0.5 
0.2185080122244 -0 -0.4885987689621 0.3090169943749 
-0.3535533905933 -0 -0.0834626338555 0.5 
-0.3535533905933 -0.1909830056251 -0.3535533905933 0.3090169943749 
0.1350453783689 0.1909830056251 -0.5720614028177 0 
-0.4370160244488 -0 -0.4370160244488 0 
0.1350453783689 0.5 -0.1350453783689 0.3090169943749 
-0.4370160244488 0.3090169943749 -0 0.3090169943749 
0.2185080122244 0.3090169943749 0.4885987689621 -0 
0.2185080122244 0.5 0.2185080122244 -0.1909830056251 
-0.3535533905933 0.3090169943749 0.3535533905933 0.1909830056251 
-0.3535533905933 0.5 0.0834626338555 -0 
0.1350453783689 0 0.5720614028177 -0.1909830056251 
0.0834626338555 -0.5 -0.3535533905933 0 
-0.4885987689621 -0.3090169943749 -0.2185080122244 0 
0.2185080122244 -0 -0.4885987689621 -0.3090169943749 
-0.3535533905933 -0 -0.0834626338555 -0.5 
0.1350453783689 -0.1909830056251 -0.5720614028177 0 
0.1350453783689 -0.5 -0.1350453783689 -0.3090169943749 
0.2185080122244 -0.1909830056251 -0.2185080122244 0.5 
-0.3535533905933 0.1909830056251 -0.3535533905933 0.3090169943749 
0.1350453783689 0.3090169943749 0.1350453783689 0.5 
0.2185080122244 0.5 0.2185080122244 0.1909830056251 
-0.3535533905933 0.3090169943749 0.3535533905933 -0.1909830056251 
0.2185080122244 -0.5 0.2185080122244 -0.1909830056251 
-0.3535533905933 -0.3090169943749 0.3535533905933 0.1909830056251 
0.1350453783689 -0.5 -0.1350453783689 0.3090169943749 
0.1350453783689 0.5 -0.1350453783689 -0.3090169943749 
0.4370160244488 -0.3090169943749 -0 -0.3090169943749 
-0.1350453783689 -0.1909830056251 0.5720614028177 -0 
-0 -0.6180339887499 -0 -0 
-0.2185080122244 -0.1909830056251 0.2185080122244 -0.5 
0.4885987689621 -0.3090169943749 0.2185080122244 -0 
0.4370160244488 -0 -0.4370160244488 0 
-0.1350453783689 0.3090169943749 -0.1350453783689 -0.5 
-0 -0.3090169943749 -0.4370160244488 -0.3090169943749 
-0.2185080122244 0.3090169943749 -0.4885987689621 0 
0.4885987689621 -0 -0.2185080122244 -0.3090169943749 
0.4370160244488 -0.3090169943749 -0 0.3090169943749 
-0.1350453783689 0.3090169943749 -0.1350453783689 0.5 
-0 -0.3090169943749 -0.4370160244488 0.3090169943749 
-0.2185080122244 -0.1909830056251 0.2185080122244 0.5 
0.4885987689621 -0 -0.2185080122244 0.3090169943749 
0.5720614028177 -0 0.1350453783689 -0.1909830056251 
0.5720614028177 0.1909830056251 -0.1350453783689 -0 
0.5720614028177 -0 0.1350453783689 0.1909830056251 
0.4370160244488 0.3090169943749 -0 0.3090169943749 
-0.1350453783689 0.1909830056251 0.5720614028177 -0 
-0 0.6180339887499 -0 -0 
-0.2185080122244 0.1909830056251 0.2185080122244 0.5 
0.4885987689621 0.3090169943749 0.2185080122244 -0 
0.4370160244488 0.3090169943749 -0 -0.3090169943749 
-0.1350453783689 -0.3090169943749 -0.1350453783689 -0.5 
-0 0.3090169943749 -0.4370160244488 -0.3090169943749 
-0.2185080122244 0.1909830056251 0.2185080122244 -0.5 
-0.1350453783689 -0.3090169943749 -0.1350453783689 0.5 
-0 0.3090169943749 -0.4370160244488 0.3090169943749 
-0.2185080122244 -0.3090169943749 -0.4885987689621 0 
0.5720614028177 -0.1909830056251 -0.1350453783689 -0 
-0.1350453783689 0.5 0.1350453783689 0.3090169943749 
-0 0.3090169943749 0.4370160244488 -0.3090169943749 
-0.2185080122244 0.5 -0.2185080122244 -0.1909830056251 
0.4370160244488 -0 0.4370160244488 -0 
-0.1350453783689 -0.5 0.1350453783689 0.3090169943749 
-0 -0.3090169943749 0.4370160244488 -0.3090169943749 
-0.2185080122244 0 0.4885987689621 0.3090169943749 
-0.1350453783689 -0 -0.5720614028177 -0.1909830056251 
-0 -0 0 -0.6180339887499 
-0.2185080122244 -0.5 -0.2185080122244 -0.1909830056251 
-0.1350453783689 0.5 0.1350453783689 -0.3090169943749 
0.3535533905933 0.5 -0.0834626338555 -0 
0.3535533905933 -0 0.0834626338555 -0.5 
-0.0834626338555 0.5 0.3535533905933 -0 
0.3535533905933 -0 0.0834626338555 0.5 
-0.5720614028177 0.1909830056251 0.1350453783689 -0 
-0.2185080122244 0 0.4885987689621 -0.3090169943749 
-0 0.3090169943749 0.4370160244488 0.3090169943749 
-0.1350453783689 -0.5 0.1350453783689 -0.3090169943749 
-0 -0.3090169943749 0.4370160244488 0.3090169943749 
-0.2185080122244 -0.5 -0.2185080122244 0.1909830056251 
-0.1350453783689 -0 -0.5720614028177 0.1909830056251 
-0 -0 0 0.6180339887499 
-0.2185080122244 0.5 -0.2185080122244 0.1909830056251 
0.3535533905933 -0.1909830056251 0.3535533905933 0.3090169943749 
0.3535533905933 0.1909830056251 0.3535533905933 -0.3090169943749 
0.3535533905933 0.3090169943749 -0.3535533905933 -0.1909830056251 
0.3535533905933 -0.5 -0.0834626338555 -0 
-0.0834626338555 -0.5 0.3535533905933 -0 
-0.5720614028177 -0.1909830056251 0.1350453783689 -0 
0.3535533905933 0.3090169943749 -0.3535533905933 0.1909830056251 
0.3535533905933 0.1909830056251 0.3535533905933 0.3090169943749 
0.3535533905933 -0.1909830056251 0.3535533905933 -0.3090169943749 
0.3535533905933 -0.3090169943749 -0.3535533905933 -0.1909830056251 
0.3535533905933 -0.3090169943749 -0.3535533905933 0.1909830056251 
-0.0834626338555 -0 -0.3535533905933 0.5 
-0.5720614028177 0 -0.1350453783689 0.1909830056251 
-0.5720614028177 0 -0.1350453783689 -0.1909830056251 
-0.0834626338555 -0 -0.3535533905933 -0.5 

# Faces
4 0 1 4 2
4 0 1 5 3
5 2 0 3 7 6
5 1 5 9 8 4
4 2 4 8 6
4 3 7 9 5
4 6 8 9 7
4 10 12 14 11
4 11 10 13 15
5 10 12 16 17 13
5 11 14 18 19 15
4 12 14 18 16
4 15 19 17 13
4 16 18 19 17
4 21 20 22 24
4 20 23 25 21
5 20 23 28 26 22
5 24 27 29 25 21
4 24 22 26 27
4 23 25 29 28
4 26 28 29 27
4 10 11 32 30
4 11 33 31 10
5 30 17 34 31 10
5 11 33 9 19 32
4 19 32 30 17
4 33 9 34 31
4 19 9 34 17
4 35 36 38 13
4 35 37 14 36
5 35 37 40 39 13
5 18 27 38 36 14
4 13 39 27 38
4 18 40 37 14
4 40 18 27 39
4 1 42 22 0
4 1 0 41 25
5 41 0 22 6 43
5 42 8 29 25 1
4 42 8 6 22
4 25 41 43 29
4 6 43 29 8
4 0 1 45 30
4 1 0 44 33
5 0 30 43 7 44
5 45 29 9 33 1
4 30 43 29 45
4 7 44 33 9
4 7 43 29 9
4 35 3 47 36
4 36 35 46 4
5 35 46 48 40 3
5 8 18 47 36 4
4 18 47 3 40
4 46 4 8 48
4 18 8 48 40
4 21 38 12 20
4 20 21 15 37
5 37 20 12 26 49
5 15 21 38 27 19
4 26 12 38 27
4 19 49 37 15
4 26 27 19 49
4 21 32 44 20
4 20 31 45 21
5 44 49 28 31 20
5 32 21 45 29 19
4 32 44 49 19
4 45 29 28 31
4 28 49 19 29
4 11 47 2 10
4 10 46 5 11
5 46 10 2 16 34
5 18 9 5 11 47
4 18 47 2 16
4 5 46 34 9
4 16 34 9 18
4 35 36 24 41
4 36 42 23 35
5 41 35 23 48 39
5 8 27 24 36 42
4 24 41 39 27
4 42 23 48 8
4 8 27 39 48
4 50 3 51 10
4 50 10 4 52
5 10 4 34 53 51
5 50 3 40 54 52
4 40 53 51 3
4 52 4 34 54
4 53 34 54 40
4 55 13 56 20
4 20 14 57 55
5 56 20 14 49 58
5 39 59 57 55 13
4 56 13 39 58
4 57 14 49 59
4 58 39 59 49
4 0 61 23 60
4 0 24 62 60
5 61 0 24 43 63
5 62 60 23 48 64
4 23 48 63 61
4 62 64 43 24
4 43 63 48 64
4 0 60 65 30
4 44 66 60 0
5 60 66 54 64 65
4 43 64 65 30
4 44 7 54 66
4 43 64 54 7
4 50 37 56 10
4 10 50 57 38
5 10 38 17 53 56
5 37 40 59 57 50
4 40 37 56 53
4 59 17 38 57
4 40 59 17 53
4 55 20 44 67
4 20 31 65 55
5 67 55 65 64 59
4 49 44 67 59
4 31 65 64 28
4 49 28 64 59
4 0 60 46 51
4 60 52 47 0
5 0 47 7 63 51
5 46 60 52 54 48
4 48 46 51 63
4 54 52 47 7
4 7 63 48 54
4 50 10 30 67
4 10 31 66 50
5 59 54 66 50 67
4 17 59 67 30
4 31 66 54 34
4 34 17 59 54
4 55 20 61 41
4 55 20 42 62
5 42 20 61 58 28
5 39 64 62 55 41
4 41 61 58 39
4 64 62 42 28
4 28 58 39 64
4 0 68 31 69
4 68 0 32 70
5 69 0 32 7 71
5 28 72 70 68 31
4 69 31 28 71
4 32 7 72 70
4 71 28 72 7
4 73 37 74 10
4 38 75 73 10
5 38 10 74 76 16
5 49 59 75 73 37
4 37 74 76 49
4 75 59 16 38
4 49 76 16 59
4 35 77 22 55
4 55 78 25 35
5 77 79 48 25 35
5 26 64 78 55 22
4 26 79 77 22
4 25 48 64 78
4 26 64 48 79
4 10 2 67 73
4 46 80 73 10
5 73 67 59 72 80
4 2 67 59 16
4 34 72 80 46
4 34 16 59 72
4 68 0 77 23
4 0 24 78 68
5 0 24 6 71 77
5 23 28 64 78 68
4 23 77 71 28
4 78 24 6 64
4 64 6 71 28
4 2 65 68 0
4 3 80 68 0
5 80 68 65 64 72
4 6 64 65 2
4 7 72 80 3
4 6 64 72 7
4 35 55 12 74
4 35 15 75 55
5 74 79 40 15 35
5 12 55 75 59 26
4 26 79 74 12
4 59 75 15 40
4 40 79 26 59
4 55 35 3 67
4 35 55 65 46
4 40 3 67 59
4 48 46 65 64
4 40 48 64 59
4 73 44 69 10
4 73 70 45 10
5 69 10 45 34 76
5 44 49 72 70 73
4 49 44 69 76
4 72 70 45 34
4 34 76 49 72
4 73 20 81 30
4 20 73 82 33
5 20 81 83 28 33
5 30 17 72 82 73
4 17 83 81 30
4 72 82 33 28
4 83 28 72 17
4 0 84 46 85
4 0 84 86 47
5 0 47 6 87 85
5 34 46 84 86 54
4 46 85 87 34
4 47 6 54 86
4 6 54 34 87
4 50 12 88 35
4 50 35 15 89
5 15 39 90 88 35
5 12 16 59 89 50
4 12 16 90 88
4 39 15 89 59
4 59 39 90 16
4 84 0 22 66
4 0 84 80 41
5 66 84 80 72 54
4 66 22 6 54
4 72 43 41 80
4 6 54 72 43
4 73 20 88 13
4 20 14 89 73
5 88 20 14 26 83
5 13 73 89 59 17
4 17 13 88 83
4 26 14 89 59
4 17 59 26 83
4 41 67 50 35
4 23 66 50 35
4 39 41 67 59
4 48 54 66 23
4 39 59 54 48
4 84 31 81 0
4 0 32 82 84
5 0 81 87 43 32
5 34 31 84 82 72
4 34 31 81 87
4 82 72 43 32
4 34 72 43 87
4 20 73 67 22
4 20 73 80 23
4 67 22 26 59
4 28 23 80 72
4 28 26 59 72
4 50 35 85 2
4 35 50 86 5
5 35 5 48 90 85
5 16 54 86 50 2
4 16 2 85 90
4 86 54 48 5
4 54 16 90 48
4 10 91 44 84
4 91 10 65 92
5 10 84 93 34 65
5 92 91 44 49 94
4 44 49 93 84
4 65 92 94 34
4 93 34 94 49
4 36 21 56 74
4 21 75 57 36
5 36 74 79 18 57
5 58 19 75 21 56
4 56 74 79 58
4 75 19 18 57
4 19 58 79 18
4 77 42 81 0
4 81 0 41 78
5 0 41 63 95 77
5 81 42 28 29 78
4 28 95 77 42
4 78 41 63 29
4 29 63 95 28
4 51 45 81 0
4 47 96 81 0
5 45 81 96 94 29
4 29 63 51 45
4 7 94 96 47
4 7 94 29 63
4 10 74 14 91
4 10 91 75 13
5 10 13 53 93 74
5 19 49 14 91 75
4 49 14 74 93
4 13 75 19 53
4 49 93 53 19
4 47 32 21 36
4 4 45 21 36
4 19 18 47 32
4 8 29 45 4
4 19 29 8 18
5 67 0 84 95 7
4 0 67 92 81
4 31 84 95 28
5 28 94 92 81 31
4 94 92 67 7
4 28 94 7 95
4 91 10 51 32
4 10 4 96 91
5 32 19 94 96 91
4 53 19 32 51
4 34 94 96 4
4 34 94 19 53
4 21 61 77 36
4 21 36 62 78
5 79 8 62 36 77
5 58 29 78 21 61
4 79 58 61 77
4 29 78 62 8
4 58 29 8 79
5 10 45 17 97 91
4 45 98 84 10
4 91 44 7 97
5 7 72 98 84 44
4 98 72 17 45
4 72 17 97 7
4 35 99 2 60
4 35 5 100 60
5 35 99 101 40 5
5 2 60 100 54 6
4 2 99 101 6
4 40 5 100 54
4 6 54 40 101
4 20 102 41 68
4 20 68 103 42
5 42 26 104 102 20
5 43 41 68 103 64
4 43 104 102 41
4 42 26 64 103
4 64 26 104 43
4 65 12 20 68
4 80 37 20 68
4 12 65 64 26
4 49 72 80 37
4 49 72 64 26
4 84 10 99 3
4 10 4 100 84
5 4 16 97 99 10
5 7 54 100 84 3
4 7 3 99 97
4 54 100 4 16
4 54 16 97 7
4 84 10 12 66
4 13 80 84 10
4 54 16 12 66
4 17 72 80 13
4 17 72 54 16
4 35 60 22 102
4 25 103 60 35
5 35 102 101 39 25
5 6 64 103 60 22
4 22 102 101 6
4 64 103 25 39
4 64 39 101 6
4 65 13 35 60
4 66 37 35 60
4 39 64 65 13
4 37 66 54 40
4 40 54 64 39
4 68 30 91 20
4 20 68 98 33
5 33 20 91 104 49
5 30 43 72 98 68
4 30 43 104 91
4 72 98 33 49
4 72 49 104 43
5 0 67 43 105 68
4 69 106 67 0
4 31 34 105 68
5 31 69 106 94 34
4 67 106 94 43
4 94 43 105 34
4 36 11 51 85
4 11 36 52 86
5 85 36 52 8 90
5 51 53 9 86 11
4 90 53 51 85
4 8 52 86 9
4 9 53 90 8
4 20 88 38 91
4 37 89 91 20
5 37 20 88 107 58
5 91 38 17 19 89
4 38 88 107 17
4 37 58 19 89
4 19 17 107 58
4 20 91 32 61
4 42 96 91 20
4 32 61 58 19
4 96 42 28 94
4 58 19 94 28
4 69 4 85 0
4 69 0 3 86
5 3 0 85 105 63
5 9 34 4 69 86
4 34 4 85 105
4 86 9 63 3
4 105 34 9 63
4 0 69 33 61
4 0 24 96 69
5 96 69 33 9 94
4 33 61 63 9
4 96 24 43 94
4 63 9 94 43
4 11 56 88 36
4 57 89 11 36
5 88 36 57 27 90
5 56 53 19 89 11
4 90 53 56 88
4 27 57 89 19
4 19 53 90 27
4 11 36 24 32
4 42 33 11 36
4 32 24 27 19
4 9 33 42 8
4 19 9 8 27
5 20 66 28 107 68
4 91 106 66 20
4 17 30 68 107
5 30 17 94 106 91
4 94 106 66 28
4 94 17 107 28
4 0 85 108 67
4 84 46 48 95
5 48 109 108 85 46
4 7 109 108 67
4 7 109 48 95
4 99 10 56 15
4 12 57 99 10
5 10 12 76 93 56
5 18 40 15 99 57
4 15 40 93 56
4 12 57 18 76
4 40 93 76 18
4 10 99 47 69
4 10 45 110 99
5 47 99 110 109 18
4 69 47 18 76
4 110 45 34 109
4 34 76 18 109
4 0 85 25 61
4 22 62 85 0
5 0 61 95 71 22
5 48 25 85 62 8
4 48 95 61 25
4 22 62 8 71
4 8 71 95 48
4 85 0 32 110
4 71 8 4 69
5 4 8 109 110 85
4 7 32 110 109
4 71 8 109 7
4 65 108 99 10
4 40 93 84 3
5 3 40 109 108 99
4 109 34 65 108
4 34 109 40 93
5 73 111 49 66 20
4 81 20 66 112
4 43 111 73 30
5 43 30 81 112 94
4 94 112 66 49
4 94 49 111 43
5 46 10 99 113 53
4 46 100 69 10
4 47 99 113 7
5 7 9 100 69 47
4 100 9 53 46
4 9 53 113 7
4 36 1 61 102
4 62 103 1 36
5 36 102 101 27 62
5 63 29 103 1 61
4 61 102 101 63
4 27 62 103 29
4 29 63 101 27
4 10 69 33 56
4 69 10 38 96
4 56 33 9 53
4 17 94 96 38
4 17 94 9 53
4 81 20 102 24
4 81 20 23 103
5 102 20 23 58 111
5 29 43 24 81 103
4 24 102 111 43
4 58 23 103 29
4 43 111 58 29
4 36 1 45 38
4 36 1 33 14
4 29 27 38 45
4 18 9 33 14
4 27 29 9 18
5 73 10 65 17 113
4 69 112 65 10
4 7 44 73 113
5 7 94 112 69 44
4 94 112 65 17
4 7 113 17 94
4 56 45 81 20
4 81 20 14 96
4 58 29 45 56
4 49 14 96 94
4 49 94 29 58
4 1 51 99 36
4 36 1 100 52
5 52 18 101 99 36
5 63 51 1 100 9
4 63 101 99 51
4 9 100 52 18
4 9 63 101 18
5 35 60 114 48 80
4 35 80 113 99
4 2 60 114 16
5 2 16 109 113 99
4 113 109 48 80
4 109 16 114 48
5 44 71 112 81 0
4 0 51 82 44
4 45 81 112 34
5 9 82 51 45 34
4 44 82 9 71
4 34 112 71 9
4 11 74 88 21
4 89 75 21 11
5 83 27 75 21 88
5 74 11 89 18 76
4 83 76 74 88
4 89 18 27 75
4 76 18 27 83
4 0 51 5 77
4 0 24 110 51
5 5 51 110 109 9
4 9 71 77 5
4 24 110 109 6
4 71 6 109 9
4 88 38 99 35
4 37 35 99 89
5 35 88 114 79 37
5 18 89 99 38 16
4 38 88 114 16
4 18 89 37 79
4 18 79 114 16
4 24 47 11 21
4 25 5 11 21
4 18 27 24 47
4 29 9 5 25
5 67 0 60 112 6
4 51 0 67 113
4 34 46 60 112
5 34 46 51 113 109
4 109 113 67 6
4 109 34 112 6
4 99 35 77 47
4 25 110 99 35
4 79 18 47 77
4 48 25 110 109
4 48 109 18 79
4 21 81 69 11
4 21 70 82 11
5 81 83 29 70 21
5 82 11 69 76 9
4 81 69 76 83
4 9 29 70 82
4 83 29 9 76
4 20 66 115 102
4 68 41 39 107
5 102 41 39 116 115
4 28 116 115 66
4 107 28 116 39
5 2 87 105 51 0
4 77 0 2 52
4 48 105 51 5
5 48 8 52 77 5
4 2 52 8 87
4 8 87 105 48
4 32 117 77 0
4 87 8 42 81
5 77 42 8 116 117
4 43 116 117 32
4 87 43 116 8
4 20 56 15 102
4 12 57 102 20
5 20 12 83 107 56
5 39 15 102 57 27
4 39 107 56 15
4 57 12 83 27
4 39 27 83 107
4 0 77 115 67
4 68 23 48 105
5 116 48 23 77 115
4 115 67 43 116
4 43 105 48 116
4 20 33 117 102
4 24 81 83 27
5 27 116 117 102 24
4 33 117 116 28
4 28 83 27 116
5 10 65 16 106 50
4 51 105 65 10
4 3 7 106 50
5 7 109 105 51 3
4 105 109 16 65
4 109 16 106 7
4 21 91 69 1
4 21 1 98 70
5 21 91 104 19 70
5 1 69 71 9 98
4 91 69 71 104
4 19 70 98 9
4 19 104 71 9
4 85 24 102 35
4 23 103 85 35
5 35 23 79 115 102
5 6 8 103 85 24
4 24 102 115 6
4 8 103 23 79
4 6 115 79 8
4 35 85 4 74
4 35 85 110 15
4 4 74 79 8
4 110 15 40 109
4 79 8 109 40
5 10 91 106 76 31
4 31 98 51 10
4 7 106 91 32
5 9 98 51 32 7
4 76 31 98 9
4 7 106 76 9
4 10 51 5 74
4 51 10 38 110
4 74 5 9 76
4 38 110 109 16
4 16 76 9 109
4 1 21 102 77
4 78 103 1 21
5 104 27 78 21 102
5 1 77 71 8 103
4 71 104 102 77
4 8 27 78 103
4 27 104 71 8
4 4 38 21 1
4 15 5 1 21
4 8 27 38 4
4 9 19 15 5
5 80 35 50 115 40
4 85 105 80 35
4 2 6 115 50
5 2 85 105 109 6
4 40 80 105 109
4 6 109 40 115
4 0 61 111 67
4 28 112 60 23
5 28 116 111 61 23
4 67 6 116 111
4 28 112 6 116
4 35 102 14 74
4 13 35 102 75
5 74 35 13 90 114
5 27 75 102 14 26
4 14 26 114 74
4 75 27 90 13
4 26 114 90 27
4 35 102 117 5
4 27 90 85 24
4 5 117 116 48
4 48 116 27 90
5 30 87 112 69 0
4 0 61 70 30
4 33 28 112 69
5 28 33 61 70 29
4 70 29 87 30
4 112 28 29 87
4 61 117 47 0
4 87 29 25 85
5 25 61 117 116 29
4 47 117 116 6
4 6 116 29 87
4 102 111 80 35
4 22 26 114 60
5 22 26 116 111 102
4 48 80 111 116
4 48 114 26 116
5 32 0 1 98 63
4 2 0 32 97
4 1 4 34 98
5 4 34 109 97 2
4 97 109 63 32
4 109 63 98 34
4 55 50 84 68
4 55 50 106 92
5 68 55 92 64 107
5 106 50 84 93 54
4 84 68 107 93
4 106 54 64 92
4 64 107 93 54
4 13 99 36 88
4 14 36 99 89
5 36 88 118 79 14
5 53 40 89 99 13
4 88 118 53 13
4 14 79 40 89
4 53 118 79 40
4 77 3 99 36
4 36 99 108 62
4 40 79 77 3
4 109 8 62 108
5 0 44 95 98 68
4 0 44 106 2
4 68 65 34 98
5 54 34 65 2 106
4 44 106 54 95
4 34 54 95 98
4 2 108 41 0
4 52 77 95 54
5 109 54 52 2 108
4 108 41 63 109
4 63 109 54 95
4 74 50 55 88
4 89 75 55 50
5 55 88 107 39 75
5 93 74 50 89 40
4 107 93 74 88
4 40 89 75 39
4 40 93 107 39
4 50 55 41 3
4 52 62 55 50
4 40 3 41 39
4 54 64 62 52
5 1 36 96 8 118
4 99 36 96 97
4 53 118 1 51
5 99 51 53 109 97
4 97 109 8 96
4 118 8 109 53
4 74 10 65 114
4 37 40 113 73
5 37 40 119 114 74
4 17 119 114 65
4 17 119 40 113
4 20 88 25 61
4 22 20 88 62
5 22 104 111 61 20
5 25 39 27 62 88
4 39 111 61 25
4 22 104 27 62
4 27 104 111 39
4 20 88 118 33
4 91 38 27 104
5 118 88 38 27 119
4 49 119 118 33
4 49 104 27 119
5 51 10 2 97 113
4 10 2 52 74
4 40 113 51 5
4 52 2 97 18
5 40 5 74 52 18
4 40 18 97 113
4 74 118 45 10
4 14 18 97 91
5 18 119 118 74 14
4 45 118 119 17
4 17 97 18 119
4 88 20 66 114
4 73 13 39 111
5 88 13 39 119 114
4 66 114 119 49
4 49 119 39 111
5 35 55 108 39 80
4 35 77 95 80
4 22 6 108 55
5 22 77 95 116 6
4 80 39 116 95
4 39 108 6 116
5 20 91 92 83 31
4 20 61 98 31
4 32 91 92 43
5 43 29 98 61 32
4 98 29 83 31
4 29 83 92 43
4 11 1 85 99
4 11 1 100 86
5 11 99 97 18 86
5 87 85 1 100 8
4 85 99 97 87
4 18 86 100 8
4 8 18 97 87
4 20 14 117 61
4 29 83 88 25
4 117 14 26 116
4 26 116 29 83
5 35 99 108 90 46
4 35 46 100 77
4 47 6 108 99
5 6 47 77 100 8
4 8 100 46 90
4 8 6 108 90
4 11 1 42 14
4 15 25 1 11
4 18 8 42 14
4 25 15 19 29
5 55 92 26 66 20
4 20 61 95 66
4 43 92 55 41
5 43 116 95 61 41
4 95 116 26 66
4 43 116 26 92
4 35 88 42 77
4 77 117 15 35
4 42 88 90 8
4 15 117 116 39
4 39 116 8 90
4 11 91 81 1
4 82 98 1 11
5 97 19 82 11 91
5 98 29 87 81 1
4 81 91 97 87
4 98 29 19 82
4 19 97 87 29
5 96 36 11 117 18
4 87 96 36 85
4 63 117 11 51
5 51 85 87 109 63
4 96 18 109 87
4 109 63 117 18
5 73 10 31 93 82
4 2 10 31 112
4 67 73 82 7
5 7 67 2 112 54
4 31 93 54 112
4 54 93 82 7
4 102 55 60 77
4 78 103 60 55
5 111 102 55 78 39
5 103 48 95 77 60
4 102 77 95 111
4 103 48 39 78
4 48 39 111 95
4 13 108 2 10
4 52 74 93 54
4 109 53 13 108
4 93 54 109 53
4 85 41 102 36
4 42 103 85 36
5 102 36 42 79 117
5 63 48 103 85 41
4 41 102 117 63
4 103 48 79 42
4 63 117 79 48
4 46 13 55 60
4 55 60 52 57
4 46 13 39 48
4 57 52 54 59
5 11 82 53 45 10
4 10 45 87 2
4 47 11 82 7
5 47 7 109 87 2
4 87 109 53 45
4 7 109 53 82
4 46 74 36 85
4 36 57 108 85
4 48 46 74 79
4 108 57 18 109
4 60 84 73 55
4 92 112 60 55
5 111 59 92 55 73
5 95 54 112 60 84
4 73 84 95 111
4 112 54 59 92
4 59 111 95 54
4 35 80 107 88
4 26 115 50 12
5 12 88 107 119 26
4 40 119 107 80
4 115 26 119 40
5 10 69 106 97 30
4 30 70 56 10
4 33 69 106 49
5 49 19 70 56 33
4 70 30 97 19
4 19 97 106 49
4 56 10 4 118
4 99 15 19 97
5 19 119 118 56 15
4 119 16 4 118
4 16 97 19 119
5 41 35 77 115 101
4 35 88 78 41
4 77 115 26 42
5 27 26 42 88 78
4 78 27 101 41
4 27 101 115 26
4 10 65 107 56
4 49 106 50 37
5 49 119 107 56 37
4 119 16 65 107
4 49 106 16 119
4 88 118 5 35
4 27 101 99 38
4 40 5 118 119
4 101 40 119 27
4 36 102 104 96
4 1 61 58 118
5 102 61 58 116 104
4 96 8 116 104
4 116 58 118 8
5 30 0 84 98 105
4 22 92 30 0
4 84 66 28 98
5 28 66 22 92 64
4 92 64 105 30
4 28 98 105 64
4 22 0 3 115
4 105 64 62 85
5 62 22 115 116 64
4 116 63 3 115
4 63 116 64 105
4 74 37 102 36
4 38 36 102 75
5 38 36 74 118 90
5 39 75 102 37 58
4 74 118 58 37
4 75 39 90 38
4 58 118 90 39
4 0 32 104 22
4 42 28 98 1
5 42 22 104 116 28
4 104 32 63 116
4 28 98 63 116
4 36 52 115 102
4 41 85 90 39
4 115 52 8 116
5 1 21 110 29 118
4 91 21 110 97
4 69 1 118 76
5 91 69 76 94 97
4 97 94 29 110
4 94 76 118 29
5 60 0 3 95 100
4 0 30 113 3
4 60 100 34 65
5 72 113 30 65 34
4 113 72 95 3
4 72 95 100 34
4 56 73 55 88
4 55 73 89 57
5 55 88 114 26 57
5 93 56 73 89 49
4 88 114 93 56
4 49 89 57 26
4 49 93 114 26
4 72 95 61 70
4 94 71 22 92
5 72 94 92 30 70
4 95 72 94 71
4 88 21 91 12
4 15 21 91 89
5 88 21 15 58 118
5 89 49 76 12 91
4 88 12 76 118
4 58 15 89 49
4 49 76 118 58
4 73 55 22 44
4 55 73 70 78
4 26 22 44 49
4 72 64 78 70
5 0 1 100 71 47
4 30 97 47 0
4 1 45 34 100
5 45 30 97 94 34
4 97 94 71 47
4 94 34 100 71
4 91 21 61 44
4 78 92 91 21
4 58 49 44 61
4 94 29 78 92
5 114 64 108 55 60
4 73 55 108 113
4 93 114 60 84
5 84 73 113 72 93
4 64 108 113 72
4 114 64 72 93
4 56 20 66 93
4 13 17 92 55
5 56 13 17 119 93
4 66 26 119 93
4 17 92 26 119
5 35 3 101 108 85
4 3 35 74 86
4 85 4 16 108
5 16 18 86 74 4
4 3 101 18 86
4 16 108 101 18
4 25 118 74 35
4 102 14 18 101
4 118 25 39 119
4 39 119 18 101
5 81 20 44 104 92
4 44 82 56 20
4 81 92 17 45
5 17 45 56 82 19
4 104 44 82 19
4 17 19 104 92
4 56 118 42 20
4 15 102 104 19
4 118 42 26 119
4 26 119 19 104
4 35 74 93 80
4 55 12 16 108
5 16 119 93 74 12
4 39 119 93 80
4 119 16 108 39
5 20 21 70 58 33
4 20 33 71 22
4 24 21 70 43
5 22 24 43 116 71
4 33 58 116 71
4 116 58 70 43
4 50 73 68 60
4 50 60 112 106
5 106 59 113 73 50
5 112 64 105 68 60
4 68 73 113 105
4 64 112 106 59
4 64 105 113 59
5 4 90 110 99 36
4 4 36 77 100
4 3 63 110 99
5 63 48 100 77 3
4 48 100 4 90
4 48 90 110 63
4 36 77 23 88
4 57 115 77 36
4 90 48 23 88
4 27 116 115 57
5 20 73 70 107 31
4 20 31 112 22
4 73 70 43 67
5 67 43 64 112 22
4 31 107 64 112
4 43 64 107 70
4 20 37 115 22
4 62 88 107 64
4 37 115 116 58
4 107 58 116 64
4 99 50 60 85
4 50 60 100 86
5 113 40 86 50 99
5 100 48 105 85 60
4 105 113 99 85
4 40 86 100 48
4 48 40 113 105
4 23 37 50 60
4 60 50 57 62
4 40 48 23 37
4 62 57 59 64
5 36 21 110 27 96
4 36 77 71 96
4 63 110 21 61
5 77 61 63 116 71
4 27 96 71 116
4 116 63 110 27
5 11 10 4 76 86
4 30 87 4 10
4 32 7 86 11
5 32 7 94 87 30
4 87 94 76 4
4 94 76 86 7
5 115 59 108 55 50
4 105 108 55 68
4 95 115 50 84
5 95 72 105 68 84
4 108 59 72 105
4 95 72 59 115
4 81 22 102 21
4 21 81 103 25
5 117 58 25 21 102
5 71 22 81 103 28
4 102 22 71 117
4 25 58 28 103
4 28 58 117 71
4 31 56 21 81
4 21 81 92 75
4 58 28 31 56
4 19 94 92 75
5 10 50 86 93 46
4 30 10 46 105
4 67 50 86 7
5 30 105 72 7 67
4 105 72 93 46
4 7 72 93 86
4 10 12 92 30
4 70 56 93 72
4 94 76 12 92
4 94 76 93 72
4 68 61 102 55
4 68 55 62 103
5 55 102 115 26 62
5 95 61 68 103 28
4 61 102 115 95
4 28 103 62 26
4 28 95 115 26
4 31 12 55 68
4 55 68 70 75
4 28 31 12 26
4 72 59 75 70
5 11 21 110 19 117
4 87 110 21 81
4 69 11 117 71
5 69 81 87 94 71
4 94 87 110 19
4 94 19 117 71
4 12 10 45 83
4 14 49 82 11
5 14 49 119 83 12
4 45 83 119 53
4 49 82 53 119
5 77 36 24 101 117
4 36 88 78 24
4 23 77 117 58
5 58 39 78 88 23
4 78 39 101 24
4 58 117 101 39
4 36 88 114 52
4 13 99 101 39
4 52 114 119 18
5 30 10 84 82 113
4 84 66 49 82
4 92 30 113 59
5 59 92 12 66 49
4 59 49 82 113
4 12 114 46 10
4 59 113 99 57
5 59 119 114 12 57
4 114 46 53 119
4 53 119 59 113
4 83 96 36 88
4 58 117 11 56
5 83 119 58 56 88
4 119 18 96 83
4 117 18 119 58
4 0 41 101 47
4 1 100 48 25
5 48 25 41 101 116
4 47 101 116 71
4 48 100 71 116
4 56 21 102 37
4 57 38 21 102
5 38 83 118 56 21
5 26 57 102 37 79
4 56 118 79 37
4 83 38 57 26
4 79 118 83 26
4 111 70 21 102
4 83 26 22 81
4 70 111 116 29
5 84 0 2 112 100
4 80 48 100 84
4 2 112 64 108
5 64 108 41 80 48
4 64 112 100 48
4 41 0 44 111
4 64 112 81 78
5 111 41 78 64 116
4 71 116 111 44
4 71 116 64 112
4 101 110 21 102
4 79 118 1 77
5 77 102 101 116 79
4 116 29 110 101
4 116 79 118 29
5 0 1 103 87 24
4 44 0 24 104
4 1 103 28 33
5 33 28 94 104 44
4 87 24 104 94
4 94 28 103 87
5 114 54 115 50 60
4 111 115 50 73
4 60 68 107 114
5 111 73 68 107 72
4 54 115 111 72
4 54 114 107 72
4 12 91 11 74
4 75 15 11 91
5 11 74 118 53 15
5 83 12 91 75 17
4 12 74 118 83
4 17 75 15 53
4 53 118 83 17
4 91 11 51 30
4 86 106 91 11
4 53 17 30 51
4 9 94 106 86
5 0 41 105 103 60
4 60 66 28 103
4 72 111 41 105
5 66 28 72 111 44
4 28 103 105 72
4 51 82 72 105
4 94 87 2 106
5 72 94 106 44 82
4 87 94 72 105
4 56 74 50 73
4 75 57 50 73
5 114 74 50 57 16
5 107 56 73 75 17
4 56 107 114 74
4 16 57 75 17
4 16 114 107 17
4 30 2 50 73
4 82 86 50 73
4 17 30 2 16
4 72 54 86 82
5 118 9 117 11 1
4 11 91 104 117
4 81 1 118 83
5 104 94 83 81 91
4 94 9 117 104
4 83 94 9 118
4 76 96 36 74
4 56 21 110 53
5 53 119 76 74 56
4 96 27 119 76
4 27 110 53 119
5 20 68 70 111 44
4 20 44 106 12
4 65 68 70 17
5 59 106 12 65 17
4 44 111 59 106
4 111 59 17 70
4 23 114 12 20
4 57 102 111 59
4 114 23 58 119
4 59 111 58 119
5 36 85 110 101 47
4 47 36 74 86
4 46 53 110 85
5 46 53 40 86 74
4 47 101 40 86
4 40 101 110 53
4 20 12 76 33
4 38 17 70 21
5 12 38 17 119 76
4 58 33 76 119
4 58 119 17 70
4 36 74 114 62
4 40 101 102 37
4 62 114 119 27
5 46 114 52 50 35
4 46 105 41 35
4 67 50 52 6
5 64 6 67 41 105
4 105 64 114 46
4 6 52 114 64
4 91 73 68 81
4 68 73 82 98
5 106 49 82 73 91
5 81 68 98 28 112
4 106 112 81 91
4 98 28 49 82
4 28 49 106 112
4 35 41 111 37
4 64 114 88 78
4 37 111 116 79
4 64 114 79 116
5 45 83 96 91 21
4 45 98 61 21
4 91 44 71 96
5 98 28 71 44 61
4 83 45 98 28
4 71 28 83 96
4 73 68 23 37
4 73 68 78 75
4 28 49 37 23
4 64 78 75 59
5 36 35 5 79 52
4 41 63 5 35
4 36 52 6 24
5 41 63 116 6 24
4 63 5 79 116
4 116 79 52 6
4 21 61 23 88
4 61 21 75 111
4 23 88 83 28
4 75 111 116 27
5 20 23 107 78 55
4 23 95 44 20
4 67 43 78 55
5 44 67 43 72 95
4 72 95 23 107
4 43 78 107 72
4 51 84 50 99
4 84 50 52 100
5 50 99 108 16 52
5 84 51 105 34 100
4 108 105 51 99
4 16 52 100 34
4 34 105 108 16
4 72 107 56 82
4 106 12 83 94
4 94 83 107 72
4 2 69 11 99
5 11 99 110 53 5
4 11 69 100 5
4 2 87 110 99
5 87 2 69 100 34
4 53 5 100 34
4 53 110 87 34
4 84 50 12 31
4 50 84 82 89
4 16 34 31 12
4 59 72 82 89
5 21 78 83 42 20
4 44 71 42 20
4 32 43 78 21
5 44 32 43 94 71
4 71 42 83 94
4 94 83 78 43
4 56 31 69 11
4 106 89 11 69
4 53 34 31 56
4 19 89 106 94
4 21 88 90 110
4 79 117 11 74
5 79 119 90 88 74
4 119 90 110 19
4 119 79 117 19
5 2 10 84 86 106
4 84 86 40 80
4 2 106 59 108
5 13 108 59 40 80
4 59 106 86 40
4 10 13 107 31
4 75 59 106 91
5 75 13 107 119 59
4 119 76 31 107
4 106 59 119 76
4 24 21 88 62
5 24 21 61 117 104
5 79 23 88 62 26
4 61 117 79 23
4 62 26 104 24
4 79 26 104 117
4 10 13 90 4
4 15 40 86 11
5 13 15 40 119 90
4 4 90 119 76
4 119 76 86 40
4 107 70 21 88
4 12 91 104 26
4 107 70 19 119
4 99 11 117 101
4 85 1 118 90
5 85 99 101 109 90
4 109 101 117 9
4 118 9 109 90
5 22 112 103 68 0
4 68 80 48 103
4 22 112 54 115
5 80 48 54 115 3
4 48 54 112 103
4 86 54 112 69
4 30 113 109 87
5 109 54 86 3 113
4 109 87 112 54
4 13 56 11 99
4 57 14 11 99
5 14 76 118 56 11
5 90 13 99 57 16
4 56 13 90 118
4 14 76 16 57
4 16 90 118 76
4 3 101 24 0
4 5 48 103 1
5 3 5 48 109 101
4 101 109 87 24
4 109 48 103 87
4 99 11 82 113
4 16 76 69 2
4 82 113 109 9
4 108 101 102 55
4 114 79 77 60
4 64 108 101 116
5 69 0 51 98 100
4 69 100 8 96
4 51 110 29 98
5 8 96 24 110 29
4 29 8 100 98
4 68 78 29 98
4 95 44 104 116
5 29 78 24 104 116
4 95 116 29 98
4 14 102 55 12
4 15 13 55 102
5 114 12 55 13 107
5 58 15 102 14 79
4 12 114 79 14
4 107 13 15 58
4 79 58 107 114
4 60 100 8 62
4 3 95 116 101
5 8 62 24 101 116
4 8 100 95 116
4 92 104 102 55
4 58 107 68 61
4 64 116 104 92
5 10 13 113 89 50
4 66 49 89 50
4 72 113 13 107
5 49 66 31 107 72
4 72 113 89 49
4 77 60 68 61
4 60 68 78 62
5 60 77 115 6 62
5 78 43 111 61 68
4 61 111 115 77
4 6 62 78 43
4 6 43 111 115
4 98 51 113 72
4 112 2 97 94
5 98 31 112 94 72
4 113 72 94 97
4 77 22 81 1
4 78 25 1 81
5 1 77 117 63 25
5 104 22 81 78 43
4 22 77 117 104
4 43 78 25 63
4 43 104 117 63
4 68 60 2 30
4 60 68 98 100
4 6 2 30 43
4 72 54 100 98
5 11 89 97 38 10
4 31 83 38 10
4 33 11 89 49
5 33 49 94 83 31
4 97 38 83 94
4 49 94 97 89
4 30 51 1 81
4 81 1 100 112
4 43 63 51 30
4 9 100 112 94
4 35 13 53 5
4 38 16 52 36
5 38 16 119 53 13
4 5 53 119 79
4 79 119 16 52
5 96 81 21 32 104
4 32 82 56 21
4 81 96 76 31
5 82 49 76 31 56
4 104 32 82 49
4 49 76 96 104
4 21 78 107 56
4 104 49 37 102
4 119 27 78 107
5 3 35 60 52 115
4 13 113 3 35
4 65 16 52 60
5 13 113 59 16 65
4 113 3 115 59
4 59 115 52 16
4 35 23 107 13
4 102 75 59 115
4 119 79 23 107
4 115 79 119 59
5 36 35 25 90 62
4 35 25 63 3
4 36 62 6 47
5 3 47 6 109 63
4 63 25 90 109
4 109 90 62 6
5 33 76 96 91 11
4 33 98 51 11
4 91 30 87 96
5 87 34 98 51 30
4 33 76 34 98
4 76 96 87 34
4 51 11 74 46
4 51 113 89 11
4 74 46 34 76
4 109 113 89 18
5 23 114 62 55 35
4 35 23 95 3
4 67 55 62 6
5 54 6 67 3 95
4 95 23 114 54
4 54 114 62 6
4 114 54 86 74
4 109 90 13 113
4 90 109 54 114
4 91 73 84 69
5 92 91 73 70 17
4 73 84 98 70
4 112 92 91 69
5 112 34 98 84 69
4 70 17 34 98
4 34 17 92 112
4 46 13 73 84
4 73 84 86 89
4 34 17 13 46
4 59 89 86 54
5 80 73 55 65 107
4 55 22 112 65
4 73 44 95 80
5 44 95 28 112 22
4 28 112 65 107
4 95 28 107 80
4 42 88 55 22
4 55 22 104 75
4 28 107 88 42
4 39 75 104 116
5 36 11 5 118 4
4 4 87 24 36
4 32 63 5 11
5 63 32 24 87 29
4 29 118 4 87
4 29 118 5 63
4 14 104 24 36
4 29 118 88 78
4 79 116 104 14
4 91 81 42 14
4 91 81 78 75
4 28 42 14 49
4 19 75 78 29
5 20 21 75 104 14
4 20 31 76 14
4 45 17 75 21
5 31 45 17 94 76
4 94 104 14 76
4 94 104 75 17
4 2 69 1 85
4 86 5 1 69
5 110 63 5 1 85
5 7 86 69 2 97
4 85 110 97 2
4 86 7 63 5
4 97 7 63 110
4 69 1 61 44
4 1 69 112 103
4 61 44 7 63
4 29 103 112 94
5 55 20 37 111 75
4 31 20 37 93
4 65 17 75 55
5 72 93 31 65 17
4 72 93 37 111
4 17 72 111 75
4 72 111 61 98
4 104 94 112 22
4 104 94 72 111
4 85 60 84 51
4 52 86 84 60
5 85 60 52 6 108
5 7 86 84 51 113
4 51 113 108 85
4 86 7 6 52
4 6 108 113 7
4 22 44 84 60
4 84 60 103 98
4 6 22 44 7
4 72 98 103 64
4 37 20 42 79
4 21 78 39 15
5 37 79 119 39 15
4 79 119 83 42
4 39 119 83 78
5 47 97 110 51 11
4 47 52 74 11
4 46 51 110 90
5 52 16 90 46 74
4 47 97 16 52
4 16 97 110 90
4 11 74 93 82
4 97 16 12 91
4 82 19 119 93
5 22 92 78 68 20
4 68 78 39 80
4 59 115 22 92
5 80 39 59 115 37
4 59 92 78 39
4 92 59 89 91
4 83 119 93 31
5 119 59 89 37 93
4 83 92 59 119
4 46 90 38 10
4 57 18 86 50
5 57 38 90 119 18
4 119 90 46 93
4 119 93 86 18
4 41 25 88 55
5 55 41 111 115 22
5 88 42 79 58 25
4 79 42 22 115
4 41 111 58 25
4 58 79 115 111
4 88 55 92 83
4 111 58 56 73
5 10 69 86 82 51
4 86 18 96 69
4 82 19 110 51
5 18 96 38 110 19
4 19 18 86 82
4 75 19 82 73
5 19 75 38 83 119
4 88 55 108 90
4 79 74 50 115
4 108 90 119 59
4 11 89 40 5
4 38 97 109 90
5 5 46 90 109 40
4 40 109 97 89
4 61 1 85 41
4 62 42 1 85
5 61 1 42 71 117
5 101 41 85 62 6
4 61 117 101 41
4 42 71 6 62
4 71 117 101 6
4 85 1 98 105
4 2 69 71 6
4 109 105 98 9
5 10 73 89 106 12
4 80 73 89 40
4 12 106 54 114
5 40 80 46 114 54
4 54 106 89 40
4 106 54 100 69
4 109 105 30 97
5 109 54 100 46 105
4 106 97 109 54
4 60 103 8 52
4 105 41 101 109
5 47 52 8 109 101
4 8 109 105 103
4 38 99 50 12
4 37 50 99 15
5 93 37 50 12 114
5 90 38 99 15 53
4 38 90 114 12
4 93 37 15 53
4 93 114 90 53
4 50 99 97 106
4 93 53 51 84
5 81 0 61 98 103
4 96 8 103 81
4 117 9 98 61
5 9 117 47 96 8
4 9 98 103 8
4 86 84 98 9
5 47 97 109 9 86
4 101 115 50 99
4 114 90 85 60
4 115 54 109 101
5 62 60 35 41 108
4 60 62 26 66
4 111 41 108 59
5 59 111 37 66 26
4 62 26 59 108
4 35 46 93 37
4 59 108 99 89
5 69 11 32 97 96
4 11 56 70 32
4 69 31 83 96
5 70 17 83 31 56
4 32 97 17 70
4 17 83 96 97
4 35 25 58 37
4 14 26 62 36
5 14 37 58 119 26
4 119 58 25 90
4 119 26 62 90
4 86 93 56 11
4 17 13 99 97
5 36 1 5 117 47
4 36 38 97 47
4 45 1 5 53
5 53 45 38 97 19
4 19 117 47 97
4 19 117 5 53
4 38 36 42 83
4 117 19 75 102
5 67 111 80 68 55
4 67 55 12 106
4 31 93 80 68
5 93 49 106 12 31
4 106 49 111 67
4 49 111 80 93
4 12 55 78 83
4 111 49 14 102
5 57 115 37 35 55
4 55 65 16 57
4 54 115 37 93
5 46 93 54 16 65
4 115 54 16 57
4 68 81 69 84
4 70 82 84 68
5 81 68 70 43 92
5 82 7 106 69 84
4 92 106 69 81
4 70 43 7 82
4 7 43 92 106
4 115 54 100 77
5 96 71 33 1 81
4 33 82 51 1
4 81 30 97 96
5 82 7 97 30 51
4 7 82 33 71
4 7 71 96 97
4 68 84 3 41
4 68 84 100 103
4 3 41 43 7
4 64 103 100 54
5 36 57 101 15 35
4 46 53 15 35
4 4 36 57 16
5 4 16 109 53 46
4 109 53 15 101
4 109 16 57 101
4 51 1 77 3
4 1 103 105 51
4 71 7 3 77
5 25 21 36 42 118
4 47 71 42 36
4 25 63 32 21
5 9 63 32 47 71
4 71 42 118 9
4 25 63 9 118
4 74 86 9 118
5 73 50 66 93 80
4 66 50 2 112
4 73 80 105 30
5 34 105 30 2 112
4 93 66 112 34
4 34 105 80 93
4 38 4 69 91
4 91 69 86 89
4 34 17 38 4
4 9 86 89 19
4 4 2 50 74
4 50 2 97 89
4 4 74 93 34
5 45 118 33 11 21
4 24 87 45 21
4 47 11 33 71
5 8 87 24 47 71
4 87 45 118 8
4 71 33 118 8
4 24 101 15 21
4 118 8 62 88
4 116 58 15 101
5 50 55 65 114 66
4 65 55 41 105
4 66 50 3 95
5 95 3 41 105 48
4 114 65 105 48
4 48 95 66 114
4 25 15 99 85
4 57 62 85 99
4 48 40 15 25
4 18 57 62 8
4 41 55 57 101
4 48 114 88 25
4 116 26 57 101
5 20 73 75 92 12
4 75 73 80 39
4 92 12 114 64
5 64 114 23 80 39
4 64 39 75 92
4 92 64 103 81
5 103 23 95 116 64
5 1 4 87 110 51
4 4 52 77 1
4 51 110 101 3
5 52 6 101 3 77
4 4 87 6 52
4 87 6 101 110
4 23 79 14 20
4 25 21 75 39
5 25 39 116 79 23
4 95 98 1 77
4 6 87 81 22
5 20 81 78 70 61
4 78 81 96 27
4 19 117 61 70
5 14 96 27 19 117
4 19 27 78 70
4 89 73 70 19
5 19 89 14 76 119
5 50 3 113 108 2
4 5 74 50 3
4 2 108 90 4
5 4 90 53 5 74
4 3 113 53 5
4 53 90 108 113
4 55 78 27 57
5 27 57 14 79 119
4 76 106 50 74
4 53 113 73 56
5 56 10 91 89 82
4 91 96 18 89
4 82 56 118 9
5 18 96 4 118 9
4 9 82 89 18
4 82 9 100 84
5 4 87 109 9 100
4 22 24 85 60
4 23 60 85 25
5 60 22 115 95 23
5 101 24 85 25 63
4 24 101 115 22
4 25 63 95 23
4 95 115 101 63
4 52 50 89 18
5 52 18 109 90 4
4 85 60 112 87
4 51 84 95 63
4 111 104 91 73
4 68 81 83 107
5 85 0 77 100 103
4 29 110 85 103
4 100 77 117 9
5 29 110 32 117 9
4 29 9 100 103
5 94 97 32 82 9
4 13 73 91 38
4 14 37 73 91
5 107 13 73 37 93
5 14 76 83 38 91
4 107 13 38 83
4 14 76 93 37
4 93 107 83 76
4 68 103 29 70
5 70 29 94 104 32
4 113 97 91 73
4 84 69 76 93
4 23 35 15 58
4 36 42 26 57
5 23 42 26 116 58
5 96 87 45 1 69
4 45 1 61 70
4 96 69 44 104
5 104 44 61 70 43
4 70 43 87 45
4 87 96 104 43
4 61 95 100 1
4 87 43 41 85
5 57 108 13 35 50
4 57 26 66 50
4 13 107 64 108
5 23 107 64 26 66
4 108 64 26 57
4 103 85 108 64
5 84 50 67 113 80
4 67 92 12 50
4 84 31 107 80
5 107 31 12 92 17
4 92 17 113 67
4 17 113 80 107
4 50 86 76 12
4 38 99 113 17
5 24 110 25 1 36
4 1 33 58 25
4 24 104 19 110
5 19 58 33 14 104
4 19 110 25 58
4 14 76 4 36
4 99 89 19 110
5 67 115 66 60 55
4 13 113 67 55
4 60 46 93 66
5 93 46 13 113 40
4 113 40 115 67
4 115 40 93 66
4 55 62 90 13
4 15 102 115 40
5 33 117 32 21 1
4 38 97 32 21
4 1 4 76 33
5 18 97 38 4 76
4 32 97 18 117
4 18 117 33 76
4 25 90 38 21
4 57 18 117 102
5 66 95 80 68 60
4 60 66 106 2
4 68 30 113 80
5 7 106 2 30 113
4 95 66 106 7
4 95 80 113 7
4 2 60 77 47
4 60 103 87 2
4 7 95 77 47
5 14 117 15 21 36
4 45 21 15 53
4 117 9 76 14
5 45 53 9 76 4
4 9 117 15 53
4 69 81 24 47
4 81 69 100 103
4 43 24 47 7
4 30 45 56 73
4 73 30 97 89
4 93 34 45 56
4 45 51 99 38
4 99 89 82 51
4 34 45 38 16
4 50 3 101 57
4 5 74 114 48
4 11 47 101 15
4 52 74 118 8
4 77 102 15 5
4 57 52 77 102
4 39 15 5 48
4 8 27 57 52
4 62 27 75 55
5 42 79 116 27 62
4 46 60 77 5
5 108 2 60 46 105
5 101 47 77 5 63
4 2 47 101 108
4 63 5 46 105
4 105 108 101 63
4 77 60 112 71
4 61 68 105 63
5 20 91 75 70 56
4 75 27 96 91
4 29 118 56 70
5 96 27 29 118 42
4 27 75 70 29
5 103 29 116 71 42
5 15 58 119 27 75
4 44 33 56 73
5 92 30 73 44 106
5 83 45 56 33 76
4 83 45 30 92
4 44 106 76 33
4 76 83 92 106
5 77 52 62 85 35
4 62 85 110 27
4 18 117 77 52
5 27 110 15 117 18
4 18 27 62 52
5 119 18 89 15 53
5 70 19 94 83 45
4 41 68 81 24
4 23 68 81 42
5 68 41 111 95 23
5 42 71 104 24 81
4 24 104 111 41
4 71 42 23 95
4 71 104 111 95
4 87 105 68 81
4 84 69 71 95
5 10 74 86 89 99
5 45 110 19 9 118
5 45 87 94 9 98
5 67 92 64 72 111
5 67 115 54 64 108
5 67 106 54 72 113
5 36 11 15 110 38
4 11 15 58 33
4 83 38 110 29
5 58 33 42 83 29
4 15 58 29 110
5 80 105 65 60 84
4 65 92 22 60
4 80 111 44 84
5 92 43 111 44 22
4 43 92 65 105
4 43 105 80 111
4 22 60 100 71
4 43 105 85 24
5 24 96 42 1 21
4 5 79 42 1
4 96 18 101 24
4 79 42 96 18
5 5 79 18 101 15
5 73 84 66 106 67
4 73 13 108 67
4 84 66 114 46
5 114 46 13 108 16
4 67 106 16 108
4 16 106 66 114
4 73 82 53 13
4 38 16 106 91
5 1 11 32 110 45
4 11 32 104 14
4 42 83 45 1
5 83 42 14 104 27
4 104 32 110 27
4 83 45 110 27
4 14 79 5 11
4 27 110 99 57
5 67 50 60 65 108
4 37 111 67 50
4 65 60 23 107
5 39 111 37 23 107
4 111 67 108 39
4 39 108 65 107
4 52 79 37 50
4 15 39 108 99
4 32 24 85 51
4 51 98 103 85
4 6 7 32 24
4 32 61 68 30
4 68 30 87 103
4 32 61 95 7
4 33 14 102 61
4 102 75 70 61
4 26 14 33 28
4 73 44 104 75
4 33 28 107 56
4 2 99 13 65
4 99 2 106 89
4 34 53 13 65
4 65 30 91 12
4 91 89 113 30
4 76 12 65 34
4 1 4 90 25
4 25 88 74 5
4 62 88 74 52
4 40 39 25 5
4 60 46 90 62
4 40 115 77 5
5 74 52 57 99 35
5 25 118 8 27 110
5 8 103 25 63 116
4 31 68 61 33
5 68 30 92 112 31
5 61 32 104 71 33
4 30 92 104 32
4 33 71 112 31
4 112 71 104 92
5 78 27 116 58 25
5 36 85 25 5 77
4 108 39 25 85
5 108 39 40 115 57
5 89 40 119 16 57
5 91 30 70 82 44
4 44 66 12 91
4 65 107 70 30
5 12 65 107 93 66
4 82 44 66 93
4 82 93 107 70
5 75 57 26 119 39
5 20 88 78 75 102
5 117 19 29 118 33
5 94 29 98 33 71
4 47 69 84 3
4 46 4 69 84
5 113 3 84 46 105
5 69 4 87 97 47
4 3 113 97 47
4 4 87 105 46
4 105 113 97 87
5 33 76 94 19 82
5 59 108 65 114 54
5 65 112 54 72 105
5 59 92 65 107 72
5 84 68 65 112 66
4 65 68 41 108
4 84 3 115 66
5 115 3 41 108 6
4 112 65 108 6
4 66 115 6 112
4 41 63 98 68
4 112 6 24 81
5 38 21 11 14 96
4 38 90 8 96
4 8 96 14 79
5 5 79 8 90 25
5 67 92 65 68 73
4 37 115 67 73
4 68 23 114 65
5 115 26 114 23 37
4 92 26 115 67
4 65 114 26 92
4 73 37 58 70
4 91 14 26 92
5 1 11 47 96 4
4 101 47 96 27
4 27 96 4 90
5 90 25 15 101 27
5 33 69 91 32 82
4 91 38 110 32
4 69 33 118 4
5 110 53 118 4 38
4 32 82 53 110
4 118 33 82 53
5 60 55 41 80 23
4 23 79 52 60
4 80 40 101 41
4 80 40 79 23
5 40 101 57 52 79
4 32 51 84 44
4 84 44 71 100
4 32 43 105 51
4 32 61 77 47
4 77 100 98 61
4 43 32 47 6
4 30 81 22 67
4 81 103 105 30
4 22 71 7 67
4 67 2 85 41
4 85 2 112 103
4 7 67 41 63
4 68 31 83 78
4 33 49 111 61
4 56 33 42 88
4 56 70 78 88
4 49 26 42 33
4 91 75 111 44
4 28 66 12 83
4 22 66 37 102
4 102 75 92 22
4 37 58 28 66
5 86 18 109 53 5
4 45 51 84 31
5 31 84 44 106 112
5 97 32 51 45 87
4 44 106 97 32
4 87 45 31 112
4 87 97 106 112
5 88 35 102 57 62
5 8 118 5 117 18
5 109 63 5 100 8
5 116 39 78 62 26
4 31 81 22 66
5 81 31 98 70 30
5 22 67 111 95 66
4 30 67 111 70
4 31 66 95 98
4 95 98 70 111
5 74 5 15 99 36
5 39 108 62 114 48
5 48 103 62 6 116
5 99 3 86 52 2
4 80 3 99 13
4 65 114 52 2
5 13 80 93 114 65
4 80 3 86 93
4 52 114 93 86
5 61 33 42 81 21
4 42 81 92 26
5 26 49 111 75 92
5 17 75 89 49 119
5 72 59 106 66 93
5 64 114 66 115 59
5 72 95 66 112 64
4 98 63 3 84
4 47 69 112 6
5 37 80 13 55 50
4 48 80 13 90
4 79 37 80 48
5 48 79 52 62 90
5 45 81 69 33 98
4 45 81 24 110
4 69 47 117 33
5 110 63 117 47 24
4 98 45 110 63
4 98 33 117 63
4 23 68 70 58
5 46 60 50 3 80
4 101 3 80 39
4 90 46 80 39
5 90 62 57 101 39
5 70 32 91 81 45
4 32 91 14 117
4 81 42 118 45
5 117 58 118 42 14
4 32 117 58 70
4 45 70 58 118
5 22 66 23 68 55
4 22 104 49 66
4 49 66 23 58
5 58 49 104 75 70
5 86 47 99 51 5
4 47 99 38 96
4 45 118 5 51
5 38 45 118 76 96
4 86 47 96 76
4 5 86 76 118
4 4 74 56 45
4 74 86 82 56
4 17 45 4 16
4 84 31 76 86
4 51 113 17 45
4 77 3 67 22
4 22 77 100 112
4 63 3 67 43
4 67 44 69 2
4 69 44 95 100
4 87 2 67 43
4 12 66 23 88
4 78 88 12 92
4 31 81 78 107
4 80 41 102 37
4 102 41 108 57
4 3 99 57 115
5 88 36 102 15 25
5 40 48 114 52 115
5 109 48 100 52 6
4 65 31 69 2
5 31 69 44 82 98
5 67 2 65 105 113
4 44 67 113 82
4 31 98 105 65
4 98 105 113 82
5 109 16 52 86 40
5 21 91 14 33 56
5 28 26 92 78 107
5 116 28 103 78 43
5 46 85 2 52 100
4 46 80 41 85
4 2 67 115 52
5 67 41 80 95 115
4 80 95 100 46
4 52 115 95 100
5 45 4 69 11 51
4 16 106 69 4
5 16 106 89 113 17
5 41 78 62 22 102
4 22 66 114 62
4 80 107 78 41
5 66 37 80 107 114
4 114 62 78 107
5 64 59 111 80 107
5 54 95 80 105 64
5 54 93 80 113 59
4 46 53 82 84
5 5 51 85 4 100
4 4 85 24 96
4 32 117 5 51
5 24 96 71 117 32
4 96 71 100 4
4 100 71 117 5
5 55 73 37 66 12
5 58 70 78 83 28
5 4 52 47 99 85
4 99 47 117 15
4 4 85 25 118
4 47 117 79 52
4 79 52 4 118
5 118 25 15 117 79
5 44 73 68 31 66
4 66 26 104 44
4 66 26 83 31
5 75 104 26 83 78
5 78 25 61 102 24
4 24 96 14 102
4 61 25 118 33
4 78 83 96 24
5 33 14 96 83 118
4 25 78 83 118
5 2 50 84 46 65
4 2 97 17 65
4 46 53 17 65
5 82 53 17 97 89
4 31 69 86 93
4 65 12 74 46
4 74 86 106 12
4 67 3 51 30
4 51 3 95 98
4 30 87 6 67
4 44 61 41 67
4 98 61 41 105
4 6 67 44 71
4 85 62 114 46
4 13 80 23 88
4 88 62 108 13
4 24 110 15 102
5 82 49 94 17 70
4 65 46 51 30
5 3 51 46 100 86
5 67 30 65 112 106
4 67 106 86 3
4 65 112 100 46
4 100 112 106 86
5 102 21 88 42 14
5 49 111 70 107 28
5 70 43 94 28 98
5 22 62 103 23 77
4 23 80 3 77
4 67 108 62 22
5 3 67 108 105 80
4 23 103 105 80
4 103 105 108 62
5 38 45 56 11 91
5 34 93 86 106 16
5 100 34 109 7 86
5 12 57 75 13 88
4 66 115 57 12
4 75 111 80 13
5 23 66 115 111 80
4 75 111 115 57
5 47 69 1 51 32
5 105 43 6 112 103
5 97 19 9 76 96
5 29 83 96 104 19
5 29 87 96 71 9
5 13 65 12 50 73
5 34 76 86 82 53
5 77 42 103 25 61
4 42 96 47 77
4 32 61 25 110
5 96 47 32 110 87
4 103 87 96 42
4 25 103 87 110
5 30 73 84 31 65
4 97 30 65 16
4 76 31 65 16
5 16 97 89 86 76
5 42 62 24 102 77
4 42 118 5 77
4 24 62 90 110
4 118 42 62 90
5 110 90 118 5 15
5 33 31 81 91 44
4 44 111 58 33
4 58 33 31 107
5 107 78 75 111 58
5 5 3 99 85 46
4 5 79 115 3
4 46 114 79 5
5 114 62 57 115 79
5 3 67 2 60 84
5 63 43 87 103 98
5 75 15 56 88 38
4 96 38 88 42
4 33 56 15 117
4 75 104 96 38
5 42 96 104 117 33
4 15 117 104 75
4 65 13 56 31
4 13 113 82 56
4 51 82 93 46
4 44 22 24 32
4 87 24 22 112
4 95 44 32 63
4 30 2 47 32
4 2 112 71 47
4 32 63 105 30
4 37 80 46 74
4 52 74 37 115
4 23 114 52 77
4 25 88 38 110
5 38 4 74 11 99
5 34 17 113 82 93
5 34 94 7 82 98
5 23 61 41 78 103
4 44 61 23 66
4 67 92 78 41
5 66 112 92 67 44
4 23 66 112 103
4 92 78 103 112
5 55 88 23 37 102
5 49 104 92 83 28
5 43 72 28 112 92
4 2 30 45 4
5 4 2 47 86 100
5 32 30 45 98 82
4 86 82 32 47
4 45 4 100 98
4 82 86 100 98
5 49 106 92 17 72
5 24 32 61 1 81
5 7 95 100 112 6
5 37 74 12 57 89
4 65 12 57 108
4 37 80 113 89
5 46 65 108 113 80
4 108 57 89 113
5 18 101 110 90 8
5 9 63 110 87 8
5 18 97 110 53 9
5 15 56 74 14 89
4 96 14 74 4
4 45 56 15 110
4 89 97 96 14
5 45 4 96 97 110
4 15 89 97 110
5 41 67 22 60 68
5 7 71 100 98 63
5 57 14 74 88 38
4 74 14 117 5
4 38 110 101 57
4 57 101 117 14
5 5 117 101 110 25
5 44 67 30 68 84
5 6 87 103 100 71
5 41 25 23 77 102
4 41 108 90 25
4 23 114 90 25
5 114 52 57 108 90
5 30 91 69 31 45
4 53 45 30 113
4 31 93 53 45
5 93 53 113 89 86
4 61 70 107 23
4 66 37 56 31
4 56 70 111 37
4 76 4 2 106
4 38 45 31 12
4 106 12 38 97
4 47 24 41 3
4 41 105 87 24
4 95 3 47 71
5 37 56 13 75 89
4 92 75 13 65
5 65 31 66 106 92
4 66 106 89 37
4 92 75 89 106
5 47 77 1 85 24
5 7 95 98 105 43
4 44 22 42 33
5 42 22 24 78 103
5 33 44 32 70 98
4 78 70 32 24
4 33 42 103 98
4 98 103 78 70
5 99 50 74 46 13
5 34 76 106 97 17
5 72 7 106 112 34
5 54 16 108 113 40
5 40 48 90 108 101
5 48 105 108 6 54
5 58 29 27 104 117
5 8 27 101 117 79
5 63 29 8 71 117
5 30 32 44 69 81
5 105 63 95 100 103
5 13 88 74 37 15
4 13 108 101 15
4 37 115 101 15
5 62 108 101 115 52
5 4 46 51 99 2
4 46 93 76 4
5 93 76 106 89 82
5 22 42 23 61 102
4 83 42 22 92
4 42 83 107 23
5 83 107 70 75 92
4 31 12 14 33
4 104 14 12 92
4 38 4 46 13
4 113 13 38 97
5 41 3 77 60 85
5 43 7 71 112 87
5 14 12 38 75 89
5 31 33 82 70 45
4 38 45 70 75
4 89 82 33 14
4 89 82 70 75
5 73 91 12 31 56
5 34 53 113 97 16
5 34 105 113 7 54
4 5 25 41 3
5 24 41 25 103 62
5 5 100 52 47 3
4 47 24 62 52
4 5 25 103 100
4 100 103 62 52
5 39 101 115 79 48
5 6 64 48 95 115
5 26 64 39 111 115
5 79 18 27 90 118
5 19 18 76 118 53
5 27 19 58 118 83
5 12 14 37 56 88
4 111 37 14 104
5 78 70 111 104 92
5 47 2 85 51 3
5 71 112 103 98 95
4 46 13 15 5
4 23 37 14 42
5 13 38 57 89 15
4 57 52 4 38
5 46 5 86 52 4
4 89 86 5 15
4 57 52 86 89
5 61 44 22 81 68
5 7 63 105 87 6
5 26 28 58 111 104
5 64 28 95 111 43
5 7 97 87 34 9
5 39 59 26 114 107
5 39 90 114 79 40
5 40 93 114 16 59
5 24 41 61 77 22
5 112 87 105 98 100
5 13 38 12 74 56
5 113 82 86 106 97
4 15 25 23 37
5 2 30 51 84 69
5 63 43 6 71 95
5 37 14 57 75 15
5 23 42 62 78 25
4 42 14 57 62
4 15 25 78 75
4 75 78 62 57
5 49 58 107 83 26
5 17 59 49 93 107
5 28 71 104 43 29
5 17 53 93 76 16
5 49 19 17 83 76
5 6 101 63 48 8
5 16 90 53 40 18
5 26 27 39 58 79

# Cells
7 0 1 2 3 4 5 6
7 7 8 9 10 11 12 13
7 14 15 16 17 18 19 20
7 21 22 23 24 25 26 27
7 28 29 30 31 32 33 34
7 35 36 37 38 39 40 41
7 42 43 44 45 46 47 48
7 49 50 51 52 53 54 55
7 56 57 58 59 60 61 62
7 63 64 65 66 67 68 69
7 70 71 72 73 74 75 76
7 77 78 79 80 81 82 83
7 84 85 86 87 88 89 90
7 91 92 93 94 95 96 97
7 98 99 100 101 102 103 104
7 44 105 106 107 108 109 110
7 111 112 113 114 115 116 117
7 65 118 119 120 121 122 123
7 124 125 126 127 128 129 130
7 23 131 132 133 134 135 136
7 137 138 139 140 141 142 143
7 144 145 146 147 148 149 150
7 151 152 153 154 155 156 157
7 158 159 160 161 162 163 164
7 72 165 166 167 168 169 170
7 171 172 173 174 175 176 177
7 2 178 179 180 181 182 183
7 184 185 186 187 188 189 190
7 51 120 191 192 193 194 195
7 196 197 198 199 200 201 202
7 203 204 205 206 207 208 209
7 210 211 212 213 214 215 216
7 217 218 219 220 221 222 223
7 37 224 225 226 227 228 229
7 230 231 232 233 234 235 236
7 79 133 237 238 239 240 241
7 242 243 244 245 246 247 248
7 16 167 249 250 251 252 253
7 254 255 256 257 258 259 260
7 261 262 263 264 265 266 267
7 268 269 270 271 272 273 274
7 275 276 277 278 279 280 281
7 126 282 283 284 285 286 287
7 288 289 290 291 292 293 294
7 52 66 295 296 297 298 299
7 242 300 301 302 303 304 305
7 86 306 307 308 309 310 311
7 312 313 314 315 316 317 318
7 261 319 320 321 322 323 324
7 325 326 327 328 329 330 331
7 332 333 334 335 336 337 338
7 58 180 339 340 341 342 343
7 344 345 346 347 348 349 350
7 9 226 351 352 353 354 355
7 356 357 358 359 360 361 362
7 30 107 363 364 365 366 367
7 368 369 370 371 372 373 374
7 144 375 376 377 378 379 380
7 381 382 383 384 385 386 387
7 388 389 390 391 392 393 394
7 139 308 395 396 397 398 399
7 400 401 402 403 404 405 406
7 100 407 408 409 410 411 412
7 413 414 415 416 417 418 419
7 24 80 420 421 422 423 424
7 368 425 426 427 428 429 430
7 210 300 431 432 433 434 435
7 436 437 438 439 440 441 442
7 198 443 444 445 446 447 448
7 449 450 451 452 453 454 455
7 146 400 456 457 458 459 460
7 263 344 461 462 463 464 465
7 203 466 467 468 469 470 471
7 443 472 473 474 475 476 477
7 478 479 480 481 482 483 484
7 113 409 485 486 487 488 489
7 490 491 492 493 494 495 496
7 31 45 497 498 499 500 501
7 196 502 503 504 505 506 507
7 93 284 508 509 510 511 512
7 513 514 515 516 517 518 519
7 325 520 521 522 523 524 525
7 282 526 527 528 529 530 531
7 532 533 534 535 536 537 538
7 173 539 540 541 542 543 544
7 545 546 547 548 549 550 551
7 17 73 501 552 553 554 555
7 124 556 557 558 559 560 561
7 160 445 562 563 564 565 566
7 567 568 569 570 571 572 573
7 332 425 574 575 576 577 578
7 539 579 580 581 582 583 584
7 244 275 585 586 587 588 589
7 590 591 592 593 594 595 596
7 171 375 597 598 599 600 601
7 205 490 602 603 604 605 606
7 84 607 608 609 610 611 612
7 613 614 615 616 617 618 619
7 620 621 622 623 624 625 626
7 186 458 627 628 629 630 631
7 306 632 633 634 635 636 637
7 153 541 638 639 640 641 642
7 643 644 645 646 647 648 649
7 3 59 424 650 651 652 653
7 254 654 655 656 657 658 659
7 98 556 660 661 662 663 664
7 665 666 667 668 669 670 671
7 256 604 620 672 673 674 675
7 407 676 677 678 679 680 681
7 212 449 682 683 684 685 686
7 356 520 687 688 689 690 691
7 0 692 693 694 695 696 697
7 698 699 700 701 702 703 704
7 705 706 707 708 709 710 711
7 314 463 631 712 713 714 715
7 178 716 717 718 719 720 721
7 277 580 722 723 724 725 726
7 727 728 729 730 731 732 733
7 87 140 367 734 735 736 737
7 513 738 739 740 741 742 743
7 151 502 744 745 746 747 748
7 749 750 751 752 753 754 755
7 370 388 756 757 758 759 760
7 638 761 762 763 764 765 766
7 288 319 767 768 769 770 771
7 230 466 772 773 774 775 776
7 158 777 778 779 780 781 782
7 395 783 784 785 786 787 788
7 789 790 791 792 793 794 795
7 232 684 749 796 797 798 799
7 562 800 801 802 803 804 805
7 10 38 299 806 807 808 809
7 137 810 811 812 813 814 815
7 219 587 816 817 818 819 820
7 821 822 823 824 825 826 827
7 381 828 829 830 831 832 833
7 165 834 835 836 837 838 839
7 840 841 842 843 844 845 846
7 290 724 762 847 848 849 850
7 851 852 853 854 855 856 857
7 94 127 241 858 859 860 861
7 70 862 863 864 865 866 867
7 270 433 566 868 869 870 871
7 872 873 874 875 876 877 878
7 217 654 879 880 881 882 883
7 485 884 885 886 887 888 889
7 346 436 890 891 892 893 894
7 816 895 896 897 898 899 900
7 111 607 901 902 903 904 905
7 327 545 758 906 907 908 909
7 478 738 910 911 912 913 914
7 224 915 916 917 918 919 920
7 402 450 921 922 923 924 925
7 926 927 928 929 930 931 932
7 35 692 933 934 935 936 937
7 383 576 820 851 938 939 940
7 613 941 942 943 944 945 946
7 105 947 948 949 950 951 952
7 953 954 955 956 957 958 959
7 451 677 916 960 961 962 963
7 964 965 966 967 968 969 970
7 161 199 343 971 972 973 974
7 42 975 976 977 978 979 980
7 264 315 512 981 982 983 984
7 872 985 986 987 988 989 990
7 91 810 991 992 993 994 995
7 627 996 997 998 999 1000 1001
7 358 665 769 1002 1003 1004 1005
7 508 1006 1007 1008 1009 1010 1011
7 334 590 892 1012 1013 1014 1015
7 184 777 1016 1017 1018 1019 1020
7 14 1021 1022 1023 1024 1025 1026
7 1027 1028 1029 1030 1031 1032 1033
7 712 1034 1035 1036 1037 1038 1039
7 415 599 675 1040 1041 1042 1043
7 249 1044 1045 1046 1047 1048 1049
7 390 750 923 1050 1051 1052 1053
7 1054 1055 1056 1057 1058 1059 1060
7 101 114 195 1061 1062 1063 1064
7 312 1065 1066 1067 1068 1069 1070
7 21 1071 1072 1073 1074 1075 1076
7 698 1077 1078 1079 1080 1081 1082
7 1083 1084 1085 1086 1087 1088 1089
7 271 303 399 1090 1091 1092 1093
7 131 1094 1095 1096 1097 1098 1099
7 438 885 962 1100 1101 1102 1103
7 1104 1105 1106 1107 1108 1109 1110
7 147 187 253 1111 1112 1113 1114
7 567 1115 1116 1117 1118 1119 1120
7 7 862 1121 1122 1123 1124 1125
7 1040 1126 1127 1128 1129 1130 1131
7 515 705 774 1005 1132 1133 1134
7 351 1100 1135 1136 1137 1138 1139
7 437 472 1140 1141 1142 1143 1144
7 413 828 1145 1146 1147 1148 1149
7 36 975 1150 1151 1152 1153 1154
7 1155 1156 1157 1158 1159 1160 1161
7 569 689 799 1083 1162 1163 1164
7 225 722 1165 1166 1167 1168 1169
7 276 526 1170 1171 1172 1173 1174
7 643 941 1175 1176 1177 1178 1179
7 43 1180 1181 1182 1183 1184 1185
7 1027 1186 1187 1188 1189 1190 1191
7 1192 1193 1194 1195 1196 1197 1198
7 384 428 489 1199 1200 1201 1202
7 106 1170 1203 1204 1205 1206 1207
7 527 579 717 1208 1209 1210 1211
7 1212 1213 1214 1215 1216 1217 1218
7 206 257 355 1219 1220 1221 1222
7 821 1223 1224 1225 1226 1227 1228
7 268 1065 1229 1230 1231 1232 1233
7 339 1234 1235 1236 1237 1238 1239
7 492 591 1142 1240 1241 1242 1243
7 868 1244 1245 1246 1247 1248 1249
7 56 1021 1250 1251 1252 1253 1254
7 480 746 909 926 1255 1256 1257
7 237 1258 1259 1260 1261 1262 1263
7 1264 1265 1266 1267 1268 1269 1270
7 547 896 1172 1271 1272 1273 1274
7 981 1275 1276 1277 1278 1279 1280
7 123 154 174 1281 1282 1283 1284
7 77 1285 1286 1287 1288 1289 1290
7 534 606 662 1291 1292 1293 1294
7 118 1295 1296 1297 1298 1299 1300
7 1301 1302 1303 1304 1305 1306 1307
7 592 1007 1210 1235 1308 1309 1310
7 1311 1312 1313 1314 1315 1316 1317
7 170 220 245 1318 1319 1320 1321
7 63 1322 1323 1324 1325 1326 1327
7 311 378 416 1328 1329 1330 1331
7 532 1115 1332 1333 1334 1335 1336
7 352 847 1337 1338 1339 1340 1341
7 289 632 1342 1343 1344 1345 1346
7 1291 1347 1348 1349 1350 1351 1352
7 8 1071 1353 1354 1355 1356 1357
7 615 881 964 1015 1358 1359 1360
7 789 1223 1361 1362 1363 1364 1365
7 179 921 1366 1367 1368 1369 1370
7 401 676 948 1371 1372 1373 1374
7 1375 1376 1377 1378 1379 1380 1381
7 1 1180 1382 1383 1384 1385 1386
7 523 570 642 1311 1387 1388 1389
7 840 985 1177 1274 1390 1391 1392
7 408 540 1393 1394 1395 1396 1397
7 172 716 1181 1398 1399 1400 1401
7 1402 1403 1404 1405 1406 1407 1408
7 99 947 1382 1409 1410 1411 1412
7 700 912 1053 1104 1413 1414 1415
7 132 1342 1416 1417 1418 1419 1420
7 1421 1422 1423 1424 1425 1426 1427
7 633 761 835 1428 1429 1430 1431
7 1432 1433 1434 1435 1436 1437 1438
7 229 328 371 1439 1440 1441 1442
7 22 1443 1444 1445 1446 1447 1448
7 412 469 516 1449 1450 1451 1452
7 28 1285 1453 1454 1455 1456 1457
7 1090 1458 1459 1460 1461 1462 1463
7 645 760 903 1155 1464 1465 1466
7 363 1467 1468 1469 1470 1471 1472
7 622 666 1344 1473 1474 1475 1476
7 49 1477 1478 1479 1480 1481 1482
7 1199 1483 1484 1485 1486 1487 1488
7 448 535 559 1489 1490 1491 1492
7 191 1493 1494 1495 1496 1497 1498
7 667 997 1373 1468 1499 1500 1501
7 1502 1503 1504 1505 1506 1507 1508
7 136 213 233 1509 1510 1511 1512
7 971 1513 1514 1515 1516 1517 1518
7 578 729 935 1519 1520 1521 1522
7 420 1523 1524 1525 1526 1527 1528
7 707 1127 1179 1400 1529 1530 1531
7 69 278 291 1532 1533 1534 1535
7 64 1536 1537 1538 1539 1540 1541
7 1542 1543 1544 1545 1546 1547 1548
7 287 481 505 1549 1550 1551 1552
7 119 1553 1554 1555 1556 1557 1558
7 751 784 1045 1430 1559 1560 1561
7 1562 1563 1564 1565 1566 1567 1568
7 183 322 359 1569 1570 1571 1572
7 57 1322 1573 1574 1575 1576 1577
7 1489 1578 1579 1580 1581 1582 1583
7 823 894 1018 1192 1584 1585 1586
7 340 1050 1587 1588 1589 1590 1591
7 389 783 1554 1592 1593 1594 1595
7 112 1094 1596 1597 1598 1599 1600
7 1519 1601 1602 1603 1604 1605 1606
7 874 953 1147 1243 1595 1607 1608
7 486 639 1609 1610 1611 1612 1613
7 152 834 1444 1586 1593 1614 1615
7 727 1077 1334 1476 1616 1617 1618
7 71 1443 1596 1619 1620 1621 1622
7 1623 1624 1625 1626 1627 1628 1629
7 544 616 657 1542 1630 1631 1632
7 166 1140 1633 1634 1635 1636 1637
7 473 884 1095 1638 1639 1640 1641
7 125 1150 1203 1642 1643 1644 1645
7 1646 1647 1648 1649 1650 1651 1652
7 701 741 850 1301 1641 1653 1654
7 283 682 1655 1656 1657 1658 1659
7 211 915 976 1632 1639 1660 1661
7 1054 1186 1363 1501 1662 1663 1664
7 364 1271 1665 1666 1667 1668 1669
7 546 800 1594 1599 1618 1670 1671
7 1328 1672 1673 1674 1675 1676 1677
7 29 1477 1678 1679 1680 1681 1682
7 771 791 993 1375 1600 1683 1684
7 497 1685 1686 1687 1688 1689 1690
7 853 927 1336 1576 1615 1691 1692
7 1111 1693 1694 1695 1696 1697 1698
7 776 842 1123 1402 1577 1699 1700
7 192 1670 1701 1702 1703 1704 1705
7 1706 1707 1708 1709 1710 1711 1712
7 801 895 1259 1640 1643 1664 1713
7 1449 1714 1715 1716 1717 1718 1719
7 110 335 347 1720 1721 1722 1723
7 50 1724 1725 1726 1727 1728 1729
7 460 610 646 1645 1730 1731 1732
7 295 1733 1734 1735 1736 1737 1738
7 928 1245 1365 1620 1661 1686 1739
7 1219 1740 1741 1742 1743 1744 1745
7 27 391 403 1746 1747 1748 1749
7 465 695 730 1622 1750 1751 1752
7 552 1753 1754 1755 1756 1757 1758
7 914 966 1347 1411 1759 1760 1761
7 734 1762 1763 1764 1765 1766 1767
7 55 439 452 1768 1769 1770 1771
7 691 955 1152 1601 1772 1773 1774
7 250 1240 1775 1776 1777 1778 1779
7 491 1006 1296 1399 1415 1780 1781
7 1730 1782 1783 1784 1785 1786 1787
7 15 1522 1531 1536 1788 1789 1790
7 686 780 824 1401 1432 1791 1792
7 509 796 1793 1794 1795 1796 1797
7 231 1044 1345 1360 1537 1798 1799
7 1750 1800 1801 1802 1803 1804 1805
7 92 1295 1466 1475 1788 1806 1807
7 1029 1144 1212 1231 1346 1808 1809
7 307 890 1810 1811 1812 1813 1814
7 345 1072 1135 1372 1389 1815 1816
7 1817 1818 1819 1820 1821 1822 1823
7 85 1353 1416 1492 1500 1824 1825
7 726 831 875 1374 1562 1826 1827
7 1189 1226 1264 1310 1561 1828 1829
7 456 585 1830 1831 1832 1833 1834
7 243 693 1165 1429 1452 1815 1835
7 1836 1837 1838 1839 1840 1841 1842
7 145 933 1366 1552 1560 1843 1844
7 944 988 1103 1431 1502 1845 1846
7 78 1724 1761 1774 1847 1848 1849
7 1549 1850 1851 1852 1853 1854 1855
7 589 792 813 1412 1623 1856 1857
7 238 1473 1858 1859 1860 1861 1862
7 621 996 1392 1410 1494 1781 1863
7 1318 1864 1865 1866 1867 1868 1869
7 748 1056 1252 1357 1646 1870 1871
7 498 1529 1872 1873 1874 1875 1876
7 706 1034 1335 1356 1799 1877 1878
7 858 1879 1880 1881 1882 1883 1884
7 883 1106 1355 1403 1682 1885 1886
7 650 1887 1888 1889 1890 1891 1892
7 1085 1149 1156 1598 1681 1893 1894
7 1439 1895 1896 1897 1898 1899 1900
7 435 843 865 1386 1901 1902 1903
7 296 1877 1904 1905 1906 1907 1908
7 1035 1126 1364 1385 1524 1816 1832
7 48 475 493 1834 1909 1910 1911
7 267 956 978 1448 1912 1913 1914
7 1157 1228 1447 1459 1812 1835 1888
7 76 529 548 1814 1915 1916 1917
7 525 1214 1384 1729 1801 1918 1919
7 743 1194 1579 1644 1728 1920 1921
7 83 582 593 1922 1923 1924 1925
7 138 1273 1294 1553 1573 1926 1927
7 1901 1928 1929 1930 1931 1932 1933
7 925 1030 1068 1174 1421 1934 1935
7 396 1012 1936 1937 1938 1939 1940
7 333 1164 1173 1234 1323 1843 1941
7 185 1242 1257 1493 1847 1926 1942
7 1912 1943 1944 1945 1946 1947 1948
7 628 817 1949 1950 1951 1952 1953
7 218 1134 1143 1258 1725 1824 1954
7 197 1121 1309 1331 1633 1798 1955
7 1956 1957 1958 1959 1960 1961 1962
7 963 1080 1118 1211 1706 1963 1964
7 444 767 1739 1749 1878 1965 1966
7 320 863 1202 1209 1337 1660 1967
7 301 660 1559 1572 1655 1780 1968
7 431 597 1713 1723 1830 1863 1969
7 376 557 1393 1428 1442 1638 1970
7 421 1691 1971 1972 1973 1974 1975
7 852 1153 1178 1244 1734 1831 1941
7 1569 1976 1977 1978 1979 1980 1981
7 601 1024 1057 1154 1817 1982 1983
7 651 1759 1984 1985 1986 1987 1988
7 965 1124 1148 1275 1811 1905 1954
7 1509 1989 1990 1991 1992 1993 1994
7 905 1125 1266 1455 1836 1995 1996
7 806 1997 1998 1999 2000 2001 2002
7 1233 1312 1376 1456 1807 2003 2004
7 1061 2005 2006 2007 2008 2009 2010
7 1020 1303 1457 1575 1647 2011 2012
7 1184 1227 1276 1348 1657 1754 1967
7 6 623 635 1659 2013 2014 2015
7 305 1074 1107 1185 2016 2017 2018
7 946 1377 1540 1673 1844 1938 1998
7 20 668 679 1940 2019 2020 2021
7 430 1183 1215 1541 1943 2022 2023
7 1191 1404 1418 1635 1694 1880 1970
7 90 708 719 1637 2024 2025 2026
7 202 950 967 1420 2027 2028 2029
7 833 1434 1481 1783 1825 1951 2030
7 34 752 765 1953 2031 2032 2033
7 659 1423 1482 1621 1928 2034 2035
7 563 1002 1921 1925 2004 2036 2037
7 357 924 940 1467 1478 1642 2038
7 2016 2039 2040 2041 2042 2043 2044
7 159 1043 1052 1678 1701 1806 2045
7 869 1041 2033 2035 2046 2047 2048
7 414 893 908 1523 1619 1726 2049
7 2027 2050 2051 2052 2053 2054 2055
7 269 1004 1014 1733 1789 1848 2056
7 602 756 1530 1535 1692 2057 2058
7 369 961 984 1022 1398 1587 2059
7 2060 2061 2062 2063 2064 2065 2066
7 204 1093 1102 1250 1614 1775 2067
7 461 744 1499 1512 1671 1965 2068
7 503 608 1208 1222 1371 1609 2069
7 262 901 1308 1321 1592 1810 2070
7 1720 2071 2072 2073 2074 2075 2076
7 664 937 1267 1288 1956 2077 2078
7 553 1893 2003 2079 2080 2081 2082
7 913 936 1084 1458 1656 1735 2038
7 1281 2083 2084 2085 2086 2087 2088
7 995 1254 1503 1680 1837 2089 2090
7 807 1920 2030 2091 2092 2093 2094
7 1193 1232 1253 1483 1937 1942 1972
7 1746 2095 2096 2097 2098 2099 2100
7 859 1772 2101 2102 2103 2104 2105
7 882 904 954 1513 1634 1702 2049
7 782 1290 1564 1790 1818 2047 2102
7 1070 1289 1544 1624 1927 1950 1985
7 380 980 1304 1325 2106 2107 2108
7 945 979 1395 1484 1578 1755 2059
7 41 786 803 1397 2109 2110 2111
7 150 1086 1097 1207 2112 2113 2114
7 1190 1205 1368 1514 1602 1763 2069
7 130 837 854 1370 2115 2116 2117
7 471 1327 1424 1446 2039 2118 2119
7 1120 1326 1625 1795 1851 1955 1999
7 62 887 898 1797 2120 2121 2122
7 209 1195 1206 1558 2051 2123 2124
7 990 1557 1648 1777 1865 1968 2006
7 143 918 929 1779 2125 2126 2127
7 255 849 871 1453 1597 1858 2128
7 2106 2129 2130 2131 2132 2133 2134
7 672 906 1760 1771 1894 2135 2136
7 326 715 725 1286 1409 1665 2137
7 313 798 819 1574 1679 1904 2138
7 2112 2139 2140 2141 2142 2143 2144
7 713 1255 1919 1924 2012 2145 2146
7 479 674 685 1383 1479 1685 2147
7 2024 2148 2149 2150 2151 2152 2153
7 1091 1292 2119 2122 2154 2155 2156
7 533 759 770 1445 1538 1753 2157
7 426 991 1101 1114 1343 1936 2158
7 574 772 1272 1284 1474 2057 2159
7 467 811 960 974 1171 1793 2160
7 696 742 1313 1394 1525 1672 2137
7 561 697 1480 1506 2060 2161 2162
7 735 1885 2011 2163 2164 2165 2166
7 663 690 1105 1367 1495 1693 2147
7 1909 2167 2168 2169 2170 2171 2172
7 1025 1069 1433 1714 1794 1873 2045
7 815 1026 1708 1849 1957 2155 2173
7 1062 1918 2034 2174 2175 2176 2177
7 994 1019 1213 1740 1776 1859 2056
7 1532 2178 2179 2180 2181 2182 2183
7 1112 1520 2173 2184 2185 2186 2187
7 728 747 775 1417 1555 1762 2157
7 1915 2188 2189 2190 2191 2192 2193
7 1075 1119 1611 1715 1782 1889 2067
7 13 999 1009 1613 2194 2195 2196
7 507 1076 1539 1565 2129 2197 2198
7 951 989 1167 1741 1764 1800 2160
7 104 1037 1047 1169 2199 2200 2201
7 248 952 1298 1315 2202 2203 2204
7 1082 1299 1589 1819 1977 2007 2070
7 97 1129 1138 1591 2186 2205 2206
7 374 1300 1419 1435 2139 2185 2207
7 704 1703 1838 1860 1969 1990 2084
7 164 1158 1168 1862 2165 2208 2209
7 260 1369 1378 1705 2149 2164 2210
7 938 1132 1770 1773 1886 2211 2212
7 514 543 565 1151 1287 1872 2213
7 2202 2214 2215 2216 2217 2218 2219
7 382 630 641 1354 1454 1971 2220
7 982 1464 2021 2023 2090 2221 2222
7 588 605 644 1182 1324 1887 2223
7 2115 2224 2225 2226 2227 2228 2229
7 1329 1490 2196 2198 2230 2231 2232
7 2125 2208 2233 2234 2235 2236 2237
7 687 879 1051 1064 1241 2135 2238
7 655 723 737 778 922 1949 2239
7 521 848 861 1016 1141 2036 2240
7 612 867 1709 1727 2061 2231 2241
7 832 866 1543 1610 1687 1850 2128
7 524 560 1166 1260 1302 1864 2213
7 2013 2242 2243 2244 2245 2246 2247
7 972 1699 2089 2124 2127 2248 2249
7 577 600 841 1204 1297 1879 2223
7 781 814 1422 1588 1666 1895 2138
7 1768 2250 2251 2252 2253 2254 2255
7 1282 2022 2118 2256 2257 2258 2259
7 2019 2260 2261 2262 2263 2264 2265
7 1319 1751 2241 2266 2267 2268 2269
7 324 1099 1545 1556 2214 2267 2270
7 1081 1098 1339 1881 1896 1929 2158
7 117 1237 1247 1341 2268 2271 2272
7 216 721 1486 1496 2273 2274 2275
7 703 720 919 1515 1742 1944 2239
7 177 920 1261 1278 2276 2277 2278
7 331 1498 1626 1636 2103 2225 2279
7 878 1497 1667 1958 2068 2072 2085
7 190 1340 1349 1669 2104 2280 2281
7 387 1649 1658 1908 2080 2189 2251
7 573 1833 1839 1906 1973 2096 2179
7 318 1396 1405 1975 2081 2261 2282
7 488 511 568 1122 1251 2079 2283
7 2273 2284 2285 2286 2287 2288 2289
7 1162 1358 1521 1534 1700 2290 2291
7 398 411 614 934 1023 1984 2292
7 2199 2293 2294 2295 2296 2297 2298
7 1200 1683 1914 1917 1996 2299 2300
7 447 459 790 977 1073 1997 2301
7 2205 2280 2302 2303 2304 2305 2306
7 1550 1731 2108 2111 2162 2307 2308
7 640 653 739 891 1229 2145 2309
7 797 809 910 1013 1145 2211 2310
7 542 555 683 829 1066 2046 2311
7 611 658 1338 1469 1563 1976 2220
7 379 429 917 1046 1504 1989 2292
7 1220 1870 1995 2026 2029 2312 2313
7 434 464 949 1055 1096 2005 2301
7 2109 2314 2315 2316 2317 2318 2319
7 1510 1913 2197 2320 2321 2322 2323
7 1922 2282 2324 2325 2326 2327 2328
7 1533 2123 2207 2329 2330 2331 2332
7 1769 2210 2279 2333 2334 2335 2336
7 1570 1902 2161 2201 2204 2337 2338
7 2120 2339 2340 2341 2342 2343 2344
7 838 877 1137 1695 1897 2040 2240
7 157 1139 1461 1470 2322 2345 2346
7 350 839 1704 1717 2284 2321 2347
7 530 572 680 1277 1485 2050 2311
7 281 681 1516 1526 2348 2349 2350
7 406 531 1736 1743 2351 2352 2353
7 1033 1262 1471 1991 2062 2073 2159
7 223 1472 1581 1590 2176 2354 2355
7 362 1263 1778 1785 2175 2294 2356
7 619 1737 1874 1959 1966 2168 2180
7 274 1603 1612 1876 1987 2340 2357
7 519 1738 1813 1820 1986 2243 2252
7 1387 1584 1748 1752 1871 2358 2359
7 286 310 694 822 864 2091 2360
7 2276 2361 2362 2363 2364 2365 2366
7 1283 1293 1413 1465 1607 2367 2368
7 228 252 661 812 873 2101 2369
7 2351 2370 2371 2372 2373 2374 2375
7 342 354 699 902 992 2163 2376
7 1450 1856 2015 2018 2078 2377 2378
7 2271 2354 2379 2380 2381 2382 2383
7 808 818 1003 1175 1332 2290 2384
7 410 423 586 1067 1116 2154 2385
7 487 500 768 942 1230 2221 2386
7 470 506 1136 1236 1707 2071 2283
7 266 304 718 836 1265 2083 2360
7 208 247 678 785 1505 2095 2369
7 2194 2387 2388 2389 2390 2391 2392
7 1440 1982 2077 2114 2117 2393 2394
7 2031 2357 2395 2396 2397 2398 2399
7 1721 2017 2107 2275 2278 2400 2401
7 1923 2209 2356 2402 2403 2404 2405
7 1747 2028 2270 2406 2407 2408 2409
7 338 1049 1853 1861 2257 2362 2410
7 1032 1048 1238 1866 1978 2130 2238
7 236 1239 1668 1675 2258 2411 2412
7 477 637 1898 1907 2370 2407 2413
7 618 636 888 1460 1716 2140 2309
7 294 889 1688 1696 2408 2414 2415
7 386 405 583 1036 1314 2148 2385
7 455 584 1756 1765 2416 2417 2418
7 484 1528 1930 1939 2092 2315 2325
7 827 1527 1689 2058 2063 2097 2169
7 419 1690 1796 1803 2093 2388 2396
7 2345 2411 2419 2420 2421 2422 2423
7 1630 1791 1903 1911 1983 2424 2425
7 2348 2426 2427 2428 2429 2430 2431
7 1491 1511 1653 1684 1808 2432 2433
7 169 182 558 609 1028 2174 2434
7 353 366 745 986 1017 2248 2435
7 1042 1063 1256 1390 1616 2367 2436
7 227 240 598 779 1078 2184 2437
7 499 510 757 1146 1224 2299 2438
7 629 652 907 1333 1361 2358 2439
7 285 298 457 830 1117 2230 2440
7 323 373 886 1008 1710 2167 2376
7 149 201 528 634 1268 2178 2434
7 215 259 581 802 1305 2188 2437
7 1910 2113 2203 2350 2353 2441 2442
7 2032 2281 2355 2443 2444 2445 2446
7 1916 2025 2347 2413 2447 2448 2449
7 2020 2126 2410 2450 2451 2452 2453
7 787 826 1010 1674 1852 2215 2310
7 394 1011 1867 1875 2331 2454 2455
7 496 788 1974 1979 2330 2426 2451
7 476 518 764 1246 1546 2224 2386
7 442 766 1882 1890 2448 2456 2457
7 280 317 454 855 1087 2233 2440
7 795 1757 1891 2131 2136 2190 2244
7 538 1892 1945 1952 2002 2341 2389
7 649 1758 2001 2037 2041 2262 2316
7 1722 1732 1826 1857 1934 2458 2459
7 2414 2454 2460 2461 2462 2463 2464
7 1320 1330 1585 1809 1845 2465 2466
7 109 135 377 504 1031 2256 2467
7 2416 2468 2469 2470 2471 2472 2473
7 860 870 1133 1617 1662 2432 2474
7 181 194 432 656 1079 2266 2475
7 341 365 773 880 1187 2312 2476
7 554 564 673 1176 1362 2424 2477
7 297 309 446 740 943 2307 2478
7 397 422 603 911 1225 2377 2479
7 330 349 763 998 1566 2242 2435
7 89 129 404 474 1058 2250 2467
7 163 176 453 624 1108 2260 2475
7 2121 2206 2412 2455 2480 2481 2482
7 2014 2116 2274 2352 2418 2483 2484
7 626 805 2074 2082 2334 2403 2468
7 794 804 1000 1580 1784 2285 2384
7 551 1001 1988 1992 2335 2444 2485
7 483 495 754 1128 1436 2293 2438
7 596 755 2000 2008 2452 2481 2486
7 273 293 441 709 968 2302 2478
7 846 1767 2009 2141 2146 2234 2295
7 1060 1766 1883 2150 2212 2216 2226
7 733 1884 2010 2048 2053 2303 2380
7 2456 2485 2487 2488 2489 2490 2491
7 1551 1571 1792 1935 1963 2492 2493
7 1092 1113 1359 1608 1828 2465 2494
7 108 122 302 468 876 2320 2495
7 26 47 246 321 825 2329 2496
7 239 251 575 688 1188 2393 2497
7 714 736 939 1391 1663 2458 2498
7 168 193 462 522 987 2337 2499
7 337 361 753 897 1425 2314 2476
7 103 142 279 494 844 2324 2495
7 5 75 214 348 793 2333 2496
7 156 189 440 549 957 2339 2499
7 2110 2200 2277 2349 2417 2500 2501
7 2195 2272 2346 2415 2457 2502 2503
7 625 648 899 1350 1627 2361 2439
7 671 900 2086 2094 2404 2445 2504
7 1038 1059 1248 1802 1931 2371 2436
7 711 1249 2098 2105 2254 2397 2488
7 857 1039 2166 2170 2253 2326 2471
7 393 418 595 930 1196 2379 2479
7 1270 1517 1697 2052 2142 2286 2291
7 959 1698 2088 2151 2156 2304 2420
7 1110 1518 2087 2222 2227 2235 2363
7 1441 1451 1631 1827 1964 2505 2506
7 2486 2504 2507 2508 2509 2510 2511
7 973 983 1163 1414 1829 2492 2512
7 121 134 265 427 702 2400 2513
7 46 68 148 372 617 2406 2514
7 222 235 594 669 1216 2387 2497
7 96 116 292 392 731 2395 2513
7 19 40 175 336 647 2402 2514
7 537 550 670 1159 1379 2419 2477
7 845 856 1130 1604 1821 2427 2474
7 932 1131 2177 2181 2327 2398 2509
7 1089 1280 2182 2245 2249 2263 2429
7 1269 1279 1462 1946 2042 2368 2372
7 970 1463 2183 2187 2191 2342 2462
7 1307 1745 1993 2152 2287 2296 2300
7 1508 1744 1868 2054 2217 2359 2364
7 1218 1869 1994 2232 2236 2381 2422
7 1201 1221 1388 1654 1846 2505 2515
7 25 67 200 207 571 2441 2516
7 4 54 128 329 517 2447 2517
7 12 61 155 234 536 2443 2516
7 39 82 102 360 482 2450 2517
7 710 732 931 1406 1650 2460 2498
7 1088 1109 1351 1605 1960 2469 2494
7 1161 1352 2255 2259 2265 2344 2510
7 1487 1507 1676 1947 2132 2428 2433
7 1198 1677 2100 2264 2269 2390 2463
7 1317 1488 2099 2192 2313 2317 2373
7 1712 1899 1980 2143 2218 2421 2425
7 1427 1981 2076 2297 2305 2308 2365
7 1568 1900 2075 2228 2288 2378 2382
7 53 74 88 258 385 2483 2518
7 11 33 115 221 417 2480 2518
7 958 969 1160 1407 1840 2487 2512
7 1306 1316 1582 1804 2064 2466 2470
7 1381 1583 2193 2323 2328 2392 2490
7 1408 1606 2237 2306 2332 2336 2511
7 1548 1719 2171 2246 2374 2391 2394
7 1711 1718 1854 2043 2133 2459 2461
7 1438 1855 2172 2318 2338 2343 2430
7 18 81 141 162 316 2500 2519
7 32 60 95 188 272 2502 2519
7 1197 1217 1380 1651 1841 2507 2515
7 1547 1567 1786 1932 2065 2489 2493
7 1629 1787 2247 2319 2399 2401 2472
7 1652 1805 2153 2383 2405 2409 2491
7 1426 1437 1628 1822 1961 2506 2508
7 1823 1933 2229 2298 2442 2446 2473
7 1842 1948 2055 2423 2449 2453 2464
7 1962 2044 2144 2366 2431 2482 2484
7 2066 2134 2219 2289 2375 2501 2503
