# Generated using Miratope v0.5.0 (https://github.com/galoomba1/miratope-rs)
4OFF

# Vertices, Faces, Edges, Cells
120 720 1200 120

# Vertices
0.809016994374945 0.809016994374945 0.809016994374945 0.809016994374945 
0.809016994374945 0.809016994374945 0.809016994374945 -0.809016994374945 
1.61803398874989 0 0 0 
1.30901699437495 0.809016994374945 -0.5 0 
1.30901699437495 0 0.809016994374945 -0.5 
0.809016994374945 1.30901699437495 0 -0.5 
1.30901699437495 0 0.809016994374945 0.5 
0.809016994374945 1.30901699437495 0 0.5 
0.809016994374945 0.5 1.30901699437495 0 
1.30901699437495 0.5 0 0.809016994374945 
0.5 1.30901699437495 0.809016994374945 0 
1.30901699437495 0.5 0 -0.809016994374945 
0.809016994374945 -0.809016994374945 0.809016994374945 0.809016994374945 
0.809016994374945 -0.809016994374945 -0.809016994374945 0.809016994374945 
0.809016994374945 0 -0.5 1.30901699437495 
1.30901699437495 -0.809016994374945 -0.5 0 
0.809016994374945 0 0.5 1.30901699437495 
1.30901699437495 -0.809016994374945 0.5 0 
0.809016994374945 -1.30901699437495 0 0.5 
0.5 -0.809016994374945 0 1.30901699437495 
1.30901699437495 0 -0.809016994374945 0.5 
0.809016994374945 -0.809016994374945 0.809016994374945 -0.809016994374945 
0 0 1.61803398874989 0 
0 -0.809016994374945 1.30901699437495 -0.5 
0 -0.809016994374945 1.30901699437495 0.5 
0.5 -1.30901699437495 0.809016994374945 0 
0.5 0 1.30901699437495 -0.809016994374945 
0.5 0 1.30901699437495 0.809016994374945 
-0.809016994374945 -0.809016994374945 0.809016994374945 0.809016994374945 
0 0 0 1.61803398874989 
0 0.5 0.809016994374945 1.30901699437495 
-0.5 0 1.30901699437495 0.809016994374945 
-0.5 -0.809016994374945 0 1.30901699437495 
0 -1.30901699437495 0.5 0.809016994374945 
-0.809016994374945 0 0.5 1.30901699437495 
-0.809016994374945 0.809016994374945 0.809016994374945 0.809016994374945 
-0.5 1.30901699437495 0.809016994374945 0 
0 0.809016994374945 1.30901699437495 -0.5 
0 1.30901699437495 0.5 0.809016994374945 
-0.809016994374945 0.5 1.30901699437495 0 
0.809016994374945 0.809016994374945 -0.809016994374945 0.809016994374945 
-0.5 0.809016994374945 0 1.30901699437495 
0 1.30901699437495 -0.5 0.809016994374945 
0 0.5 -0.809016994374945 1.30901699437495 
0 -0.5 -0.809016994374945 1.30901699437495 
0.5 0.809016994374945 0 1.30901699437495 
0 -0.5 0.809016994374945 1.30901699437495 
-0.809016994374945 0 -0.5 1.30901699437495 
-0.809016994374945 -0.5 1.30901699437495 0 
-1.30901699437495 0 0.809016994374945 0.5 
0 0.809016994374945 1.30901699437495 0.5 
0 1.61803398874989 0 0 
-0.809016994374945 1.30901699437495 0 0.5 
0.809016994374945 -0.5 1.30901699437495 0 
1.30901699437495 -0.5 0 0.809016994374945 
1.30901699437495 0.809016994374945 0.5 0 
0 1.30901699437495 0.5 -0.809016994374945 
-0.5 0 1.30901699437495 -0.809016994374945 
-1.30901699437495 0.809016994374945 0.5 0 
-1.30901699437495 0.5 0 0.809016994374945 
0.5 1.30901699437495 -0.809016994374945 0 
1.30901699437495 -0.5 0 -0.809016994374945 
1.30901699437495 0 -0.809016994374945 -0.5 
0.5 0 -1.30901699437495 0.809016994374945 
-0.809016994374945 0.809016994374945 0.809016994374945 -0.809016994374945 
-1.61803398874989 0 0 0 
-0.809016994374945 1.30901699437495 0 -0.5 
-1.30901699437495 0.809016994374945 -0.5 0 
-1.30901699437495 0 0.809016994374945 -0.5 
-1.30901699437495 0.5 0 -0.809016994374945 
-0.809016994374945 -0.809016994374945 0.809016994374945 -0.809016994374945 
-0.809016994374945 -0.809016994374945 -0.809016994374945 -0.809016994374945 
-1.30901699437495 -0.809016994374945 -0.5 0 
-0.809016994374945 0 -0.5 -1.30901699437495 
-1.30901699437495 -0.809016994374945 0.5 0 
-0.809016994374945 0 0.5 -1.30901699437495 
-0.809016994374945 -1.30901699437495 0 -0.5 
-1.30901699437495 0 -0.809016994374945 -0.5 
-0.5 -0.809016994374945 0 -1.30901699437495 
-0.5 -1.30901699437495 0.809016994374945 0 
0 0 0 -1.61803398874989 
0 0.5 0.809016994374945 -1.30901699437495 
0.5 -0.809016994374945 0 -1.30901699437495 
0 -1.30901699437495 0.5 -0.809016994374945 
0.809016994374945 0 0.5 -1.30901699437495 
-0.809016994374945 0.809016994374945 -0.809016994374945 -0.809016994374945 
0 1.30901699437495 -0.5 -0.809016994374945 
0.5 0.809016994374945 0 -1.30901699437495 
0 0.5 -0.809016994374945 -1.30901699437495 
-0.809016994374945 -0.809016994374945 -0.809016994374945 0.809016994374945 
-0.809016994374945 -1.30901699437495 0 0.5 
-1.30901699437495 0 -0.809016994374945 0.5 
-0.809016994374945 0.809016994374945 -0.809016994374945 0.809016994374945 
-0.809016994374945 0.5 -1.30901699437495 0 
-0.5 1.30901699437495 -0.809016994374945 0 
-0.5 0.809016994374945 0 -1.30901699437495 
0 -0.5 0.809016994374945 -1.30901699437495 
0 -0.5 -0.809016994374945 -1.30901699437495 
0.809016994374945 0 -0.5 -1.30901699437495 
-1.30901699437495 -0.5 0 -0.809016994374945 
0.809016994374945 -0.809016994374945 -0.809016994374945 -0.809016994374945 
0 0 -1.61803398874989 0 
0.809016994374945 0.5 -1.30901699437495 0 
0 -0.809016994374945 -1.30901699437495 -0.5 
0 -0.809016994374945 -1.30901699437495 0.5 
0.5 -1.30901699437495 -0.809016994374945 0 
0.5 0 -1.30901699437495 -0.809016994374945 
0.809016994374945 -1.30901699437495 0 -0.5 
0.809016994374945 0.809016994374945 -0.809016994374945 -0.809016994374945 
-0.5 0 -1.30901699437495 -0.809016994374945 
0 -1.30901699437495 -0.5 -0.809016994374945 
0 0.809016994374945 -1.30901699437495 0.5 
-1.30901699437495 -0.5 0 0.809016994374945 
0.809016994374945 -0.5 -1.30901699437495 0 
0 0.809016994374945 -1.30901699437495 -0.5 
-0.809016994374945 -0.5 -1.30901699437495 0 
-0.5 0 -1.30901699437495 0.809016994374945 
0 -1.30901699437495 -0.5 0.809016994374945 
-0.5 -1.30901699437495 -0.809016994374945 0 
0 -1.61803398874989 0 0 

# Faces
5 6 1 0 4 10
5 1 0 5 8 7
5 7 2 0 3 6
5 0 2 8 9 4
5 9 5 0 3 10
5 2 1 6 11 8
5 2 5 4 3 1
5 1 7 11 10 3
5 5 2 7 11 9
5 8 7 6 10 9
5 9 11 6 3 4
5 4 5 8 11 10
5 16 13 12 14 18
5 17 13 12 15 19
5 2 16 17 9 12
5 12 2 18 6 15
5 9 19 6 14 12
5 13 9 15 14 2
5 2 13 17 20 18
5 9 13 16 20 19
5 16 20 6 14 2
5 9 17 20 6 15
5 19 17 16 18 6
5 19 15 14 18 20
5 21 6 25 4 12
5 21 24 17 23 12
5 22 6 24 8 12
5 23 12 22 25 27
5 12 4 27 17 8
5 22 21 8 23 4
5 22 25 26 24 21
5 6 26 17 8 21
5 22 6 26 27 4
5 17 24 6 25 27
5 8 23 27 26 24
5 4 23 17 26 25
5 28 27 33 31 12
5 19 28 12 32 24
5 29 12 30 19 27
5 12 32 16 33 29
5 30 24 16 31 12
5 28 30 32 31 29
5 29 28 19 34 33
5 27 34 24 30 28
5 16 31 29 27 34
5 16 32 30 19 34
5 16 33 27 19 24
5 32 24 34 33 31
5 0 35 10 30 36
5 27 35 0 31 38
5 0 22 30 8 31
5 0 22 10 27 37
5 38 37 0 36 8
5 22 30 39 27 35
5 35 22 36 31 37
5 10 35 37 38 39
5 22 10 39 8 36
5 38 27 10 30 8
5 8 39 27 37 31
5 38 39 30 36 31
5 0 14 7 16 40
5 0 42 9 38 40
5 9 29 0 14 30
5 0 29 38 16 41
5 30 42 0 41 7
5 29 9 43 16 40
5 29 40 41 14 42
5 38 43 7 41 40
5 38 43 30 42 29
5 38 16 7 30 9
5 42 14 7 43 9
5 30 43 16 41 14
5 46 41 16 34 45
5 45 44 16 43 19
5 32 14 46 44 16
5 45 19 30 14 46
5 45 47 30 43 34
5 45 47 14 41 44
5 30 32 41 46 47
5 14 32 43 19 47
5 34 44 41 32 43
5 19 47 46 44 34
5 28 35 46 49 30
5 35 48 34 39 28
5 22 49 50 48 35
5 35 27 34 50 46
5 22 28 27 48 46
5 39 28 22 49 24
5 22 30 24 50 46
5 24 39 27 48 50
5 50 49 30 39 34
5 46 49 24 34 48
5 0 41 50 45 35
5 36 7 50 51 0
5 45 51 0 42 10
5 35 51 50 52 10
5 41 51 35 42 36
5 42 35 45 52 30
5 41 51 45 52 7
5 7 30 10 45 50
5 42 36 7 52 10
5 36 41 50 52 30
5 19 27 54 46 6
5 24 6 46 53 16
5 18 53 54 25 6
5 17 27 54 53 16
5 18 46 54 33 16
5 27 33 53 46 25
5 54 25 19 17 33
5 24 18 53 33 17
5 18 24 19 25 46
5 40 0 3 45 55
5 16 2 0 54 55
5 14 0 54 45 6
5 40 2 7 20 55
5 2 14 3 54 40
5 40 16 20 45 54
5 16 7 6 45 55
5 54 3 6 20 55
5 14 3 45 20 7
5 0 37 55 50 1
5 22 0 53 50 6
5 27 4 0 53 55
5 10 26 50 1 22
5 22 1 53 37 4
5 1 53 55 26 6
5 10 6 50 55 27
5 10 26 55 37 4
5 27 37 53 50 26
5 5 38 55 51 0
5 55 51 1 7 56
5 51 1 36 5 37
5 8 56 50 1 36
5 50 56 38 37 51
5 7 8 38 55 50
5 5 37 55 56 8
5 36 5 38 56 7
5 24 8 31 53 50
5 26 39 8 57 50
5 8 57 53 37 23
5 23 31 53 48 27
5 50 57 31 37 48
5 53 57 24 26 48
5 31 57 24 39 23
5 37 23 39 26 48
5 31 41 50 34 38
5 39 52 50 58 38
5 52 34 38 59 30
5 38 58 41 36 59
5 36 49 50 58 31
5 49 41 31 59 30
5 39 59 36 49 52
5 34 58 41 49 52
5 31 58 34 39 59
5 12 0 54 27 9
5 53 16 8 12 0
5 12 4 54 53 2
5 8 17 55 53 2
5 9 27 55 16 8
5 9 17 55 54 4
5 40 51 45 60 38
5 40 5 42 3 51
5 55 60 9 5 40
5 51 3 10 60 55
5 9 10 45 55 38
5 42 3 45 60 9
5 38 60 10 42 5
5 55 61 6 11 17
5 9 62 55 20 11
5 55 61 3 4 62
5 15 3 54 62 9
5 15 4 54 61 6
5 11 15 3 61 20
5 17 62 54 61 20
5 11 15 4 62 17
5 40 13 9 63 54
5 13 40 44 20 43
5 44 40 29 63 45
5 16 44 54 29 13
5 19 63 29 13 43
5 19 9 29 54 45
5 43 20 45 63 9
5 54 63 19 20 44
5 29 27 45 46 0
5 16 50 46 0 31
5 34 38 29 35 45
5 46 41 31 29 35
5 27 45 50 16 38
5 64 52 39 66 35
5 49 64 35 68 36
5 35 65 52 49 67
5 59 68 35 65 39
5 36 67 35 66 59
5 39 65 64 49 69
5 65 66 68 67 64
5 52 69 36 67 64
5 65 66 59 69 52
5 68 66 39 69 36
5 59 68 67 49 69
5 70 72 78 74 71
5 70 73 76 75 71
5 65 75 74 69 70
5 70 65 76 68 72
5 70 69 78 68 73
5 65 71 74 77 76
5 71 65 73 72 69
5 75 71 69 78 77
5 75 77 68 73 65
5 68 72 69 74 77
5 74 78 68 76 75
5 73 76 77 78 72
5 28 70 24 74 23
5 28 70 49 79 68
5 31 79 22 28 23
5 28 68 31 74 39
5 23 68 22 70 39
5 22 79 57 24 70
5 70 39 74 57 49
5 31 68 22 49 57
5 79 49 24 74 31
5 23 74 57 79 68
5 21 57 83 26 70
5 70 82 23 78 21
5 21 81 82 26 80
5 83 80 21 78 84
5 57 84 23 81 21
5 70 80 57 78 81
5 70 82 75 83 80
5 70 81 23 75 26
5 80 57 84 75 26
5 82 23 84 83 26
5 75 83 57 78 23
5 84 75 82 81 78
5 1 64 10 81 36
5 26 64 1 57 56
5 1 57 8 81 22
5 36 57 50 64 22
5 26 64 22 81 39
5 56 39 10 64 50
5 56 26 10 81 8
5 56 57 36 81 39
5 64 86 69 56 85
5 85 75 66 73 64
5 80 64 87 75 56
5 69 80 64 73 81
5 64 87 66 81 86
5 85 87 73 86 80
5 85 75 88 69 80
5 85 87 66 88 56
5 56 80 86 81 88
5 56 75 66 81 69
5 66 88 69 86 73
5 81 73 87 75 88
5 34 89 28 47 90
5 28 89 74 32 72
5 65 28 59 74 34
5 28 72 49 90 65
5 47 49 32 59 28
5 65 47 72 59 89
5 89 74 91 90 65
5 34 89 59 32 91
5 34 65 47 49 91
5 34 74 32 49 90
5 47 90 91 32 72
5 49 72 59 74 91
5 52 85 92 66 93
5 85 91 94 77 92
5 65 92 58 91 52
5 92 65 93 59 77
5 59 94 58 92 66
5 85 65 66 77 58
5 65 85 91 69 93
5 58 85 52 69 94
5 94 91 52 93 59
5 93 69 94 77 66
5 58 77 59 69 91
5 68 37 58 57 36
5 81 36 95 37 66
5 69 56 58 95 36
5 66 39 56 58 37
5 39 75 37 68 81
5 57 95 37 75 56
5 39 75 58 57 69
5 66 68 95 58 75
5 69 57 95 68 81
5 8 84 53 1 21
5 1 61 26 11 21
5 1 61 55 84 2
5 53 61 6 21 2
5 2 21 11 17 84
5 11 26 55 84 8
5 53 84 17 26 61
5 46 0 12 30 6
5 14 46 54 29 12
5 45 27 9 30 6
5 46 79 12 28 25
5 46 22 12 31 53
5 33 23 12 79 53
5 25 28 23 33 48
5 22 79 53 48 25
5 31 79 46 48 33
5 81 21 1 96 4
5 84 37 96 1 57
5 53 96 22 21 57
5 22 81 23 37 96
5 8 84 37 4 81
5 23 84 53 96 4
5 37 58 50 64 35
5 35 68 31 58 48
5 22 68 37 48 64
5 64 48 58 57 49
5 75 84 95 96 87
5 95 98 81 88 84
5 84 97 87 82 88
5 96 97 84 78 98
5 82 87 96 98 81
5 87 97 95 98 73
5 81 78 95 96 73
5 88 78 98 73 82
5 95 97 75 88 78
5 82 73 96 97 75
5 64 1 95 37 87
5 86 1 51 87 10
5 86 81 5 95 1
5 37 66 10 64 51
5 86 36 95 51 64
5 87 66 5 95 51
5 36 86 10 66 5
5 10 87 37 5 81
5 68 96 48 75 23
5 79 96 48 83 57
5 75 74 57 99 48
5 83 74 23 76 48
5 68 76 48 99 79
5 68 78 57 99 96
5 23 78 79 96 76
5 99 83 74 78 79
5 96 76 75 83 99
5 58 85 64 67 95
5 65 64 99 58 75
5 64 73 68 95 99
5 65 85 99 67 73
5 77 95 99 85 75
5 66 77 95 67 73
5 58 77 68 67 99
5 13 62 105 20 100
5 13 100 104 15 103
5 101 13 102 104 20
5 101 13 103 63 105
5 13 102 15 63 62
5 62 101 100 102 103
5 100 101 105 106 104
5 100 102 15 106 20
5 101 62 63 106 20
5 20 105 63 15 104
5 15 103 62 105 106
5 104 106 63 103 102
5 100 21 15 82 17
5 21 100 84 107 98
5 15 21 2 107 4
5 98 21 11 82 4
5 2 107 62 17 100
5 11 100 2 98 15
5 11 100 84 62 82
5 2 84 62 4 98
5 84 107 4 82 17
5 15 82 62 107 98
5 40 108 7 102 5
5 40 62 60 20 108
5 2 40 62 9 102
5 5 62 55 108 2
5 2 102 11 20 108
5 55 60 11 7 108
5 9 60 20 7 102
5 5 62 60 11 102
5 71 82 103 78 100
5 106 71 100 109 110
5 80 100 88 82 106
5 78 100 80 110 98
5 100 88 103 98 109
5 80 110 73 82 71
5 71 88 78 109 80
5 106 71 88 103 73
5 73 106 80 109 98
5 110 106 82 103 98
5 109 110 73 103 78
5 85 60 88 94 108
5 108 85 106 86 109
5 101 108 111 106 60
5 108 101 88 102 109
5 94 102 86 111 108
5 85 101 94 109 111
5 85 101 88 93 106
5 85 60 93 86 111
5 60 101 94 102 93
5 86 106 60 88 102
5 94 109 86 93 88
5 111 109 102 93 106
5 1 108 56 11 86
5 1 108 84 5 98
5 98 1 80 11 81
5 56 84 95 1 80
5 88 11 80 108 84
5 80 86 98 95 108
5 88 5 95 108 56
5 5 84 56 11 81
5 86 98 5 88 11
5 42 59 38 92 35
5 58 41 67 35 92
5 58 51 35 66 38
5 51 92 38 94 41
5 66 42 67 51 92
5 36 94 58 51 67
5 42 66 38 94 36
5 94 41 67 42 59
5 59 28 35 112 31
5 29 59 30 47 35
5 49 47 35 112 41
5 29 112 46 47 28
5 32 41 112 29 59
5 49 32 31 112 46
5 8 30 6 50 16
5 35 92 34 52 47
5 29 92 45 47 42
5 59 43 34 92 29
5 45 92 38 43 52
5 43 59 42 47 52
5 64 52 56 58 51
5 38 66 10 52 56
5 38 60 52 7 94
5 7 86 10 60 56
5 42 86 7 94 5
5 5 94 56 60 66
5 36 86 52 56 94
5 66 60 52 86 42
5 58 112 35 65 34
5 65 28 68 112 48
5 39 74 58 48 65
5 34 74 31 112 48
5 112 68 59 74 58
5 46 90 34 33 112
5 79 32 24 90 46
5 74 33 48 90 24
5 79 112 48 90 49
5 32 74 33 112 79
5 47 67 112 92 65
5 112 92 34 91 41
5 52 91 41 67 47
5 49 67 112 58 91
5 102 13 40 113 14
5 62 40 113 3 63
5 2 13 62 54 113
5 2 102 15 3 113
5 63 3 14 102 9
5 14 113 54 63 15
5 55 108 1 3 87
5 4 98 1 61 87
5 2 98 3 61 108
5 62 87 61 108 84
5 4 87 55 84 5
5 5 98 3 87 62
5 12 21 18 53 107
5 12 15 25 54 107
5 21 15 25 61 18
5 61 18 2 107 54
5 53 107 4 25 61
5 55 87 10 11 56
5 11 81 4 87 26
5 37 84 56 26 87
5 85 108 95 114 87
5 51 108 56 60 87
5 108 51 114 5 94
5 60 85 51 114 66
5 95 94 56 85 51
5 5 88 60 87 114
5 66 88 94 95 114
5 71 93 73 115 85
5 71 88 77 97 85
5 85 115 114 77 101
5 73 106 85 97 114
5 71 101 77 103 93
5 71 101 97 115 106
5 103 88 101 97 114
5 88 77 114 73 93
5 106 115 114 103 93
5 73 103 77 97 115
5 106 61 113 98 15
5 15 82 105 61 110
5 113 110 15 103 107
5 113 107 62 105 61
5 61 106 82 62 97
5 98 110 61 97 107
5 103 98 113 97 62
5 103 107 97 105 82
5 106 110 113 97 105
5 40 108 111 3 114
5 113 111 20 101 40
5 60 63 114 40 101
5 101 62 114 113 108
5 106 3 113 108 20
5 63 60 20 111 3
5 62 114 3 106 60
5 106 63 114 113 111
5 51 111 7 94 40
5 114 42 102 94 40
5 51 108 7 86 3
5 111 51 114 42 86
5 102 42 3 111 7
5 114 5 102 86 3
5 114 116 102 93 63
5 111 104 102 116 113
5 103 114 113 109 102
5 63 93 104 111 115
5 116 103 63 115 113
5 111 115 114 116 109
5 115 106 104 109 113
5 103 116 109 104 93
5 93 86 67 114 66
5 95 94 69 86 67
5 94 77 114 67 109
5 95 109 86 73 114
5 69 109 67 73 93
5 95 109 69 88 77
5 11 106 61 108 100
5 102 98 113 108 100
5 61 113 2 100 20
5 102 98 3 106 11
5 85 51 67 86 52
5 69 109 99 85 71
5 95 109 80 85 97
5 75 97 99 80 71
5 69 78 95 99 80
5 78 109 99 97 77
5 69 49 99 58 74
5 72 67 112 77 59
5 72 49 99 112 68
5 99 91 69 72 67
5 74 77 112 99 91
5 96 87 26 80 1
5 80 64 96 95 57
5 75 26 64 96 37
5 70 64 96 68 81
5 57 69 70 64 99
5 70 80 99 96 73
5 91 109 67 115 85
5 65 115 99 91 71
5 71 91 109 72 93
5 72 93 65 115 67
5 72 109 99 115 73
5 28 76 48 90 70
5 79 72 28 76 112
5 65 48 99 49 70
5 70 90 99 79 72
5 112 76 65 90 99
5 64 70 39 75 48
5 22 70 26 48 96
5 43 94 41 111 52
5 111 47 42 116 41
5 43 91 41 116 59
5 42 93 52 111 67
5 116 94 43 93 42
5 43 93 47 111 91
5 59 93 47 67 116
5 94 116 67 111 91
5 92 114 67 111 85
5 52 111 51 92 60
5 42 93 60 92 114
5 92 40 41 111 45
5 94 40 92 60 43
5 45 111 7 43 60
5 13 33 54 117 12
5 18 32 12 117 46
5 29 13 32 14 117
5 13 32 18 44 33
5 29 117 46 44 33
5 54 44 18 14 117
5 92 63 42 116 40
5 44 111 14 116 40
5 44 92 29 116 41
5 92 44 111 47 63
5 29 63 47 14 116
5 42 63 45 111 14
5 20 111 14 102 43
5 60 43 102 42 63
5 87 60 11 86 3
5 96 61 80 21 98
5 87 82 11 80 61
5 4 82 26 61 96
5 116 40 101 43 102
5 116 13 101 44 113
5 14 104 43 13 116
5 104 43 101 44 111
5 20 44 113 14 104
5 13 32 104 19 89
5 116 117 63 89 13
5 19 89 29 117 47
5 43 89 29 116 32
5 63 89 43 104 47
5 14 117 63 19 104
5 47 117 116 32 104
5 100 108 97 62 88
5 109 108 97 114 98
5 100 109 113 97 101
5 62 88 102 98 114
5 100 83 61 110 21
5 107 78 21 110 96
5 100 84 97 61 80
5 78 107 97 83 100
5 96 110 80 83 97
5 84 107 96 61 83
5 106 87 97 108 80
5 106 87 114 98 86
5 88 62 87 106 11
5 63 92 101 43 93
5 116 94 101 92 114
5 89 71 91 118 77
5 89 71 104 72 103
5 101 89 93 104 91
5 116 118 101 89 103
5 93 89 77 116 72
5 109 118 101 71 104
5 101 91 109 116 77
5 116 118 91 104 72
5 103 72 109 118 77
5 97 118 100 71 105
5 104 110 113 118 100
5 71 104 110 115 105
5 101 105 115 113 118
5 97 118 109 110 115
5 101 91 111 115 92
5 92 115 67 116 77
5 33 89 28 117 112
5 46 117 28 19 90
5 34 89 29 112 44
5 44 90 19 89 33
5 112 117 47 90 44
5 92 89 43 91 44
5 59 116 112 92 89
5 32 91 44 112 116
5 21 79 96 25 70
5 79 21 24 83 53
5 48 25 70 24 83
5 96 25 26 83 53
5 13 107 113 18 100
5 13 107 54 105 17
5 61 18 100 17 105
5 54 105 20 18 113
5 19 105 54 117 15
5 18 104 19 105 44
5 15 104 18 113 117
5 44 105 63 117 113
5 107 23 17 83 53
5 25 82 17 83 61
5 23 107 96 25 82
5 72 110 99 118 78
5 72 110 115 76 103
5 99 118 77 76 115
5 97 76 73 110 99
5 97 76 103 78 118
5 115 47 93 89 92
5 44 115 63 89 101
5 91 104 47 115 44
5 105 89 13 118 44
5 118 13 103 117 113
5 103 117 115 105 89
5 116 118 44 115 117
5 71 83 99 110 70
5 76 82 70 110 96
5 97 76 82 71 83
5 65 115 112 77 89
5 72 47 115 112 116
5 115 90 71 89 76
5 89 76 112 118 74
5 90 71 74 118 99
5 90 115 112 118 91
5 104 90 44 118 32
5 32 118 112 117 72
5 115 117 72 104 90
5 74 119 70 90 83
5 70 119 78 79 110
5 71 90 110 72 119
5 118 83 71 119 78
5 79 118 74 119 72
5 79 118 83 90 110
5 12 107 33 17 119
5 25 117 12 119 19
5 33 105 19 119 13
5 13 119 15 117 107
5 17 105 25 15 119
5 33 105 25 117 107
5 17 119 21 18 83
5 21 119 82 25 110
5 15 119 100 18 110
5 82 119 100 83 105
5 25 110 18 83 105
5 24 119 12 79 18
5 21 79 107 23 119
5 24 119 23 33 83
5 33 83 18 79 107
5 118 107 103 119 100
5 71 105 76 103 119
5 78 107 76 82 119
5 76 105 83 118 107
5 23 119 70 25 76
5 110 25 76 107 79
5 28 119 24 90 25
5 76 33 74 119 28
5 90 25 76 33 83
5 117 79 32 119 28
5 89 33 118 32 119
5 76 117 72 119 89
5 76 117 79 118 33
5 89 105 90 104 119
5 117 110 104 119 103
5 105 90 110 117 76
5 13 118 18 104 119
5 32 119 19 90 18
5 33 118 18 90 105
5 107 118 18 110 117
5 117 79 18 90 25

# Cells
12 0 1 2 3 4 5 6 7 8 9 10 11
12 12 13 14 15 16 17 18 19 20 21 22 23
12 24 25 26 27 28 29 30 31 32 33 34 35
12 36 37 38 39 40 41 42 43 44 45 46 47
12 48 49 50 51 52 53 54 55 56 57 58 59
12 60 61 62 63 64 65 66 67 68 69 70 71
12 45 71 72 73 74 75 76 77 78 79 80 81
12 43 53 82 83 84 85 86 87 88 89 90 91
12 48 64 92 93 94 95 96 97 98 99 100 101
12 22 33 46 102 103 104 105 106 107 108 109 110
12 2 20 60 111 112 113 114 115 116 117 118 119
12 0 32 51 120 121 122 123 124 125 126 127 128
12 1 52 93 120 129 130 131 132 133 134 135 136
12 34 58 89 128 137 138 139 140 141 142 143 144
12 59 90 101 145 146 147 148 149 150 151 152 153
12 3 14 28 105 112 122 154 155 156 157 158 159
12 4 61 94 111 129 160 161 162 163 164 165 166
12 10 21 118 159 167 168 169 170 171 172 173 174
12 19 65 73 116 175 176 177 178 179 180 181 182
12 44 49 63 72 85 92 145 183 184 185 186 187
12 151 188 189 190 191 192 193 194 195 196 197 198
12 199 200 201 202 203 204 205 206 207 208 209 210
12 87 143 211 212 213 214 215 216 217 218 219 220
12 221 222 223 224 225 226 227 228 229 230 231 232
12 56 123 132 138 233 234 235 236 237 238 239 240
12 241 242 243 244 245 246 247 248 249 250 251 252
12 253 254 255 256 257 258 259 260 261 262 263 264
12 196 265 266 267 268 269 270 271 272 273 274 275
12 197 240 250 276 277 278 279 280 281 282 283 284
12 5 31 125 157 167 285 286 287 288 289 290 291
12 16 38 62 75 102 113 154 180 183 292 293 294
12 27 36 86 107 140 213 295 296 297 298 299 300
12 29 124 139 225 235 285 301 302 303 304 305 306
12 54 84 141 149 189 218 236 276 307 308 309 310
12 232 252 311 312 313 314 315 316 317 318 319 320
12 131 233 245 277 321 322 323 324 325 326 327 328
12 209 220 231 329 330 331 332 333 334 335 336 337
12 194 207 242 270 283 338 339 340 341 342 343 344
12 345 346 347 348 349 350 351 352 353 354 355 356
12 174 289 357 358 359 360 361 362 363 364 365 366
12 8 114 162 168 367 368 369 370 371 372 373 374
12 318 375 376 377 378 379 380 381 382 383 384 385
12 386 387 388 389 390 391 392 393 394 395 396 397
12 249 312 323 398 399 400 401 402 403 404 405 406
12 96 148 192 269 407 408 409 410 411 412 413 414
12 41 78 82 150 186 257 415 416 417 418 419 420
12 26 40 50 88 103 121 137 155 184 292 296 421
12 68 76 97 147 185 407 416 422 423 424 425 426
12 55 95 133 146 188 238 279 307 324 409 427 428
12 100 136 166 327 413 428 429 430 431 432 433 434
12 9 57 69 99 117 126 134 158 164 187 294 421
12 83 153 191 214 255 308 415 435 436 437 438 439
12 47 91 219 262 300 420 438 440 441 442 443 444
12 152 190 261 267 408 417 422 435 445 446 447 448
12 17 115 170 175 349 369 449 450 451 452 453 454
12 6 169 287 364 370 399 455 456 457 458 459 460
12 15 24 104 156 171 288 359 461 462 463 464 465
12 11 127 135 239 290 305 328 405 459 466 467 468
12 248 326 386 404 432 469 470 471 472 473 474 475
12 382 392 476 477 478 479 480 481 482 483 484 485
12 355 366 384 486 487 488 489 490 491 492 493 494
12 353 368 388 450 495 496 497 498 499 500 501 502
12 161 367 390 431 471 495 503 504 505 506 507 508
12 356 397 484 502 509 510 511 512 513 514 515 516
12 251 274 343 396 475 483 517 518 519 520 521 522
12 172 352 362 371 452 457 486 499 523 524 525 526
12 195 241 272 278 325 338 412 427 433 473 518 527
12 206 247 319 342 381 477 522 528 529 530 531 532
12 198 208 264 275 344 439 448 533 534 535 536 537
12 229 234 243 281 302 311 321 401 468 538 539 540
12 203 226 244 284 317 334 340 531 539 541 542 543
12 205 271 341 476 521 528 536 544 545 546 547 548
12 202 212 256 333 436 443 535 549 550 551 552 553
12 144 215 228 237 280 304 309 329 540 541 554 555
12 273 414 426 447 556 557 558 559 560 561 562 563
12 265 393 411 434 472 506 517 527 559 564 565 566
12 67 98 160 410 425 429 503 556 565 567 568 569
12 12 39 74 106 178 293 570 571 572 573 574 575
12 66 77 177 423 557 567 576 577 578 579 580 581
12 70 119 165 181 373 453 500 507 569 581 582 583
12 193 201 217 282 310 331 339 437 533 542 551 554
12 7 130 163 322 372 398 430 455 466 470 505 584
12 223 286 301 315 360 400 456 467 538 585 586 587
12 176 347 449 496 510 577 582 588 589 590 591 592
12 79 179 572 580 590 593 594 595 596 597 598 599
12 350 379 389 482 492 498 511 524 600 601 602 603
12 224 314 358 378 491 585 604 605 606 607 608 609
12 246 316 383 387 403 469 479 520 529 601 610 611
12 313 363 377 402 458 490 523 586 600 606 610 612
12 374 395 406 460 474 501 508 526 584 603 611 612
12 394 497 504 509 560 566 568 576 583 588 613 614
12 480 516 546 615 616 617 618 619 620 621 622 623
12 351 376 481 494 515 602 620 624 625 626 627 628
12 266 391 478 514 519 544 563 564 614 621 629 630
12 42 81 253 418 440 574 595 631 632 633 634 635
12 80 260 419 424 446 558 578 596 633 636 637 638
12 30 142 216 221 299 303 330 555 639 640 641 642
12 18 173 345 361 451 464 489 525 643 644 645 646
12 23 182 354 454 575 592 598 646 647 648 649 650
12 35 230 291 306 365 465 587 609 642 651 652 653
12 210 385 485 532 548 623 628 654 655 656 657 658
12 512 561 579 591 597 613 617 629 636 659 660 661
12 348 513 589 594 618 627 650 660 662 663 664 665
12 200 227 320 337 380 530 543 608 657 666 667 668
12 258 268 445 534 547 562 619 630 637 659 669 670
12 204 259 537 545 553 615 656 669 671 672 673 674
12 263 599 622 635 638 661 665 670 674 675 676 677
12 199 336 552 654 666 673 678 679 680 681 682 683
12 13 108 462 570 644 647 684 685 686 687 688 689
12 357 463 487 604 645 652 688 690 691 692 693 694
12 25 109 297 461 640 651 684 690 695 696 697 698
12 375 493 607 624 658 668 681 693 699 700 701 702
12 222 335 605 639 653 667 679 691 696 701 703 704
12 211 298 332 442 549 641 678 697 703 705 706 707
12 254 444 550 631 672 676 682 706 708 709 710 711
12 616 626 655 664 671 677 680 700 710 712 713 714
12 573 593 634 648 662 675 686 709 712 715 716 717
12 346 488 625 643 649 663 687 692 699 713 715 718
12 37 110 295 441 571 632 685 695 705 708 716 719
12 683 689 694 698 702 704 707 711 714 717 718 719
