# Generated using Miratope v0.5.0 (https://github.com/galoomba1/miratope-rs)
4OFF

# Vertices, Faces, Edges, Cells
120 720 720 120

# Vertices
-0.809016994374945 -0.809016994374945 -0.809016994374945 0.809016994374945 
0 1.30901699437495 0.5 0.809016994374945 
-0.809016994374945 0.5 1.30901699437495 0 
0.5 1.30901699437495 -0.809016994374945 0 
-0.809016994374945 0 0.5 -1.30901699437495 
-0.809016994374945 -0.809016994374945 -0.809016994374945 -0.809016994374945 
0 1.30901699437495 0.5 -0.809016994374945 
0 0.5 -0.809016994374945 1.30901699437495 
0 0 -1.61803398874989 0 
-1.30901699437495 -0.809016994374945 0.5 0 
-0.809016994374945 0.809016994374945 -0.809016994374945 0.809016994374945 
0 0.809016994374945 1.30901699437495 -0.5 
0 -1.30901699437495 0.5 0.809016994374945 
-0.809016994374945 -1.30901699437495 0 -0.5 
-0.809016994374945 1.30901699437495 0 -0.5 
0 -0.809016994374945 1.30901699437495 -0.5 
0 0 0 1.61803398874989 
-0.809016994374945 -0.809016994374945 0.809016994374945 -0.809016994374945 
0.5 1.30901699437495 0.809016994374945 0 
1.30901699437495 0.5 0 -0.809016994374945 
-0.809016994374945 0.5 -1.30901699437495 0 
0.5 0 -1.30901699437495 -0.809016994374945 
0.5 0 1.30901699437495 -0.809016994374945 
-1.61803398874989 0 0 0 
0.809016994374945 0.809016994374945 -0.809016994374945 -0.809016994374945 
0.809016994374945 0 0.5 1.30901699437495 
0 0.809016994374945 1.30901699437495 0.5 
-1.30901699437495 0.809016994374945 0.5 0 
-1.30901699437495 0 -0.809016994374945 0.5 
-0.809016994374945 0.809016994374945 -0.809016994374945 -0.809016994374945 
1.30901699437495 0.809016994374945 0.5 0 
1.30901699437495 0 -0.809016994374945 0.5 
-0.809016994374945 0 0.5 1.30901699437495 
0.809016994374945 -0.809016994374945 -0.809016994374945 0.809016994374945 
-0.5 1.30901699437495 -0.809016994374945 0 
-1.30901699437495 0.5 0 0.809016994374945 
0 0.5 -0.809016994374945 -1.30901699437495 
-0.5 -0.809016994374945 0 -1.30901699437495 
0.809016994374945 -0.809016994374945 -0.809016994374945 -0.809016994374945 
-0.5 -0.809016994374945 0 1.30901699437495 
-1.30901699437495 0.5 0 -0.809016994374945 
0 -1.61803398874989 0 0 
-0.809016994374945 0.809016994374945 0.809016994374945 0.809016994374945 
1.30901699437495 0 0.809016994374945 -0.5 
0.5 -1.30901699437495 0.809016994374945 0 
0.5 0.809016994374945 0 -1.30901699437495 
-0.809016994374945 0 -0.5 -1.30901699437495 
-0.809016994374945 -0.809016994374945 0.809016994374945 0.809016994374945 
0.5 -0.809016994374945 0 -1.30901699437495 
0.5 0 1.30901699437495 0.809016994374945 
-0.809016994374945 0.809016994374945 0.809016994374945 -0.809016994374945 
1.30901699437495 0 0.809016994374945 0.5 
0.5 0.809016994374945 0 1.30901699437495 
1.30901699437495 -0.5 0 -0.809016994374945 
0 0 0 -1.61803398874989 
-0.809016994374945 1.30901699437495 0 0.5 
0.809016994374945 0.809016994374945 -0.809016994374945 0.809016994374945 
0.809016994374945 -0.5 1.30901699437495 0 
-1.30901699437495 -0.5 0 0.809016994374945 
-0.809016994374945 -0.5 1.30901699437495 0 
0 1.61803398874989 0 0 
0 -0.5 -0.809016994374945 1.30901699437495 
0.809016994374945 -0.809016994374945 0.809016994374945 0.809016994374945 
-1.30901699437495 0 0.809016994374945 -0.5 
0 -0.809016994374945 -1.30901699437495 -0.5 
-0.5 0 1.30901699437495 0.809016994374945 
-1.30901699437495 0 -0.809016994374945 -0.5 
0.809016994374945 -1.30901699437495 0 -0.5 
0.809016994374945 -0.809016994374945 0.809016994374945 -0.809016994374945 
0 1.30901699437495 -0.5 -0.809016994374945 
0.809016994374945 0.5 -1.30901699437495 0 
0 -0.809016994374945 -1.30901699437495 0.5 
-1.30901699437495 -0.809016994374945 -0.5 0 
0 0.5 0.809016994374945 -1.30901699437495 
-0.5 0.809016994374945 0 1.30901699437495 
0.809016994374945 -1.30901699437495 0 0.5 
1.61803398874989 0 0 0 
-0.5 0 -1.30901699437495 -0.809016994374945 
1.30901699437495 -0.5 0 0.809016994374945 
0 -0.5 0.809016994374945 -1.30901699437495 
0 -0.5 0.809016994374945 1.30901699437495 
0.809016994374945 0 -0.5 -1.30901699437495 
1.30901699437495 -0.809016994374945 -0.5 0 
0 0 1.61803398874989 0 
0.809016994374945 0.809016994374945 0.809016994374945 0.809016994374945 
0.809016994374945 -0.5 -1.30901699437495 0 
-0.5 -1.30901699437495 0.809016994374945 0 
-0.5 0 -1.30901699437495 0.809016994374945 
-0.5 -1.30901699437495 -0.809016994374945 0 
0.809016994374945 0.809016994374945 0.809016994374945 -0.809016994374945 
0.809016994374945 0 -0.5 1.30901699437495 
0 0.809016994374945 -1.30901699437495 0.5 
0 -1.30901699437495 -0.5 -0.809016994374945 
0.809016994374945 1.30901699437495 0 0.5 
0 -1.30901699437495 -0.5 0.809016994374945 
1.30901699437495 0.809016994374945 -0.5 0 
0 1.30901699437495 -0.5 0.809016994374945 
-0.809016994374945 0 -0.5 1.30901699437495 
-1.30901699437495 0 0.809016994374945 0.5 
-1.30901699437495 -0.5 0 -0.809016994374945 
-0.5 0 1.30901699437495 -0.809016994374945 
0 0.809016994374945 -1.30901699437495 -0.5 
0.809016994374945 1.30901699437495 0 -0.5 
-0.809016994374945 -0.5 -1.30901699437495 0 
-0.809016994374945 -1.30901699437495 0 0.5 
0.5 0 -1.30901699437495 0.809016994374945 
-0.5 1.30901699437495 0.809016994374945 0 
-0.5 0.809016994374945 0 -1.30901699437495 
0 0.5 0.809016994374945 1.30901699437495 
0 -0.5 -0.809016994374945 -1.30901699437495 
0.809016994374945 0.5 1.30901699437495 0 
0.809016994374945 0 0.5 -1.30901699437495 
1.30901699437495 0.5 0 0.809016994374945 
0 -0.809016994374945 1.30901699437495 0.5 
0 -1.30901699437495 0.5 -0.809016994374945 
1.30901699437495 0 -0.809016994374945 -0.5 
0.5 -1.30901699437495 -0.809016994374945 0 
0.5 -0.809016994374945 0 1.30901699437495 
-1.30901699437495 0.809016994374945 -0.5 0 
1.30901699437495 -0.809016994374945 0.5 0 

# Faces
5 0 1 9 7 2
3 1 4 0
3 0 2 3
3 0 3 4
3 2 3 5
3 5 7 2
5 5 6 8 4 3
3 5 6 7
3 8 9 1
3 1 4 8
3 8 6 9
3 7 9 6
3 11 12 10
3 11 13 10
3 12 4 10
5 10 4 0 14 13
3 0 1 15
3 0 14 15
5 11 12 1 15 16
3 16 11 13
3 16 15 14
3 16 14 13
3 1 4 12
3 17 20 18
3 17 21 18
3 17 19 20
5 19 17 21 22 5
3 5 19 2
3 5 3 22
5 2 20 18 23 3
3 23 18 21
3 23 3 22
3 22 21 23
3 19 2 20
3 24 25 27
3 25 28 24
5 26 29 30 27 24
3 26 28 24
3 29 32 30
3 26 31 29
3 31 32 29
3 8 30 32
3 30 27 8
5 25 28 31 32 8
3 8 25 27
3 31 28 26
5 34 38 7 36 33
3 33 37 34
3 35 36 33
3 33 37 35
3 7 40 38
3 34 39 38
3 39 40 38
3 41 7 40
3 41 36 7
5 41 40 39 37 35
3 41 36 35
3 34 37 39
5 49 45 42 43 14
3 42 46 43
3 42 44 45
3 44 46 42
3 47 14 43
3 47 46 43
3 47 14 48
5 23 48 47 46 44
3 23 49 45
3 23 49 48
3 44 45 23
3 49 14 48
5 50 53 26 54 51
3 51 21 50
3 52 53 50
3 50 52 21
5 31 55 21 52 29
3 29 53 52
3 29 53 26
3 54 51 55
3 26 54 31
3 54 31 55
3 51 21 55
5 56 57 61 30 12
3 56 57 58
3 12 56 11
3 11 58 56
3 10 59 30
3 10 30 12
5 59 10 11 58 60
3 60 61 57
3 60 57 58
3 60 61 59
3 30 59 61
3 35 37 62
3 62 64 35
5 62 37 65 67 63
3 63 64 62
3 33 66 65
3 37 65 33
5 33 66 16 64 35
3 63 67 16
3 16 64 63
3 67 66 16
3 67 66 65
3 68 71 69
3 69 72 68
5 70 41 19 71 68
3 70 72 68
3 19 71 17
5 20 17 69 72 73
3 17 71 69
3 19 41 20
3 41 73 70
3 41 73 20
3 70 73 72
5 24 74 76 34 25
3 74 75 24
3 24 75 28
3 34 25 38
3 25 38 28
5 28 38 39 77 75
3 76 77 74
3 34 76 39
3 76 39 77
3 74 77 75
3 42 45 78
3 78 79 42
5 42 79 80 50 44
3 52 44 50
3 50 80 53
5 52 45 78 60 53
3 78 79 60
3 80 53 60
3 60 80 79
3 45 52 44
3 62 63 81
3 81 72 62
5 82 72 62 64 47
3 47 64 43
3 47 82 46
3 83 82 72
3 82 46 83
3 83 72 81
5 83 46 43 63 81
3 64 43 63
3 84 85 58
5 56 58 84 87 65
3 85 86 84
3 84 87 86
3 56 88 57
3 56 88 65
3 76 87 65
3 65 88 76
3 86 87 76
5 85 86 76 88 57
3 57 58 85
5 89 90 68 93 75
3 90 92 89
3 89 75 91
3 89 91 92
3 68 93 71
3 69 90 68
3 93 75 54
3 93 71 54
3 54 75 91
5 69 71 54 91 92
3 90 69 92
3 84 85 79
5 90 86 84 94 83
3 94 79 84
3 89 86 90
3 85 86 89
5 89 85 79 95 92
3 95 94 83
3 83 95 92
3 92 83 90
3 95 94 79
5 49 10 30 32 3
3 49 45 10
3 10 45 59
3 29 59 30
3 32 22 29
5 22 23 45 59 29
3 23 49 3
3 22 32 3
5 15 35 73 47 14
3 20 47 73
3 48 20 47
3 14 48 0
3 0 36 15
5 48 20 41 36 0
3 35 73 41
3 35 36 15
3 65 66 56
5 27 8 1 66 56
3 88 27 56
3 9 33 1
3 66 1 33
5 33 9 25 88 65
3 9 25 8
3 25 27 88
5 38 93 54 31 6
3 40 93 38
3 7 38 6
3 31 55 5
3 5 6 31
5 7 40 71 55 5
3 54 71 55
3 93 71 40
5 76 87 62 70 39
3 70 62 72
3 81 87 62
3 70 39 68
3 39 68 77
5 72 81 86 77 68
3 76 77 86
3 86 87 81
5 57 74 89 80 60
3 75 74 89
3 91 80 89
3 24 57 74
3 57 24 61
5 75 91 53 61 24
3 60 53 61
3 80 91 53
3 50 51 92
5 18 46 95 50 21
3 95 50 92
5 51 92 83 82 17
3 17 51 21
3 18 82 17
3 83 95 46
3 46 18 82
3 67 84 63
3 84 63 94
5 79 84 67 11 78
3 42 78 13
3 79 94 42
5 13 42 94 63 16
3 16 11 67
3 11 78 13
5 96 47 18 97 83
3 20 47 18
3 47 96 73
3 18 97 17
3 17 97 69
3 83 72 96
3 83 69 97
3 72 69 83
3 72 96 73
3 89 91 98
3 89 77 98
3 89 99 91
5 89 77 100 24 99
3 24 26 99
3 24 28 100
3 93 28 100
3 100 77 93
5 26 91 98 93 28
3 98 77 93
3 91 99 26
3 58 101 84
3 87 63 84
3 84 63 101
3 56 11 66
3 65 102 87
3 65 102 66
3 102 87 63
5 11 66 102 63 101
3 11 101 58
3 10 13 45
3 60 103 59
3 60 79 58
3 60 79 103
3 11 101 13
3 45 103 59
5 45 103 79 101 13
3 101 79 58
3 52 104 50
3 50 52 103
3 50 91 104
5 91 50 103 60 99
3 60 99 61
5 59 61 26 104 52
3 59 52 103
3 99 61 26
3 91 104 26
3 42 95 103
3 42 95 46
5 52 103 42 105 23
3 46 105 42
3 50 95 103
3 18 105 23
3 21 52 23
3 18 46 105
5 74 86 106 39 100
3 37 106 39
3 86 87 106
3 106 37 87
3 74 100 88
3 74 86 107
3 107 88 74
3 34 100 39
3 100 88 34
5 87 37 34 88 107
3 86 87 107
3 63 64 102
3 87 102 37
5 102 37 70 73 64
3 70 72 106
3 106 70 37
5 63 96 72 106 87
3 96 64 73
3 64 96 63
3 93 98 71
5 93 77 106 70 40
3 108 70 40
3 72 108 70
3 40 108 71
5 98 71 108 72 90
3 72 90 106
3 90 106 77
3 98 77 90
5 17 55 104 50 97
3 50 97 92
3 92 91 50
3 71 17 55
3 55 104 54
3 91 104 54
3 69 97 92
3 42 105 13
3 42 46 94
3 14 64 16
3 63 94 96
3 94 46 96
5 96 46 105 14 64
3 14 105 13
3 56 109 27
3 88 56 107
5 60 109 56 107 85
3 61 109 60
3 99 85 60
3 74 85 107
3 85 99 74
5 88 27 61 99 74
3 61 27 109
5 65 34 110 35 102
3 34 9 110
3 36 110 35
3 110 9 36
3 35 102 15
3 102 15 66
3 65 34 111
3 65 66 111
3 34 111 9
5 36 9 111 66 15
3 20 112 2
3 112 36 2
5 108 20 112 35 70
3 36 112 35
3 110 70 35
3 70 110 40
5 2 36 110 40 19
3 108 40 19
3 20 108 19
5 110 39 93 113 7
3 93 28 113
3 100 93 39
3 9 7 110
3 34 39 110
3 6 7 113
3 6 28 113
5 6 28 100 34 9
3 29 114 32
3 22 104 29
5 104 54 28 114 29
3 54 113 55
3 113 54 28
5 22 55 113 6 32
3 55 22 104
3 32 114 6
3 6 28 114
5 112 0 49 105 47
3 47 112 20
3 47 105 18
3 0 112 2
3 3 0 49
3 23 105 49
3 11 109 56
3 8 30 4
3 27 30 109
5 30 109 11 115 4
3 1 4 115
3 1 115 66
3 11 66 115
3 10 12 109
3 10 4 116
5 10 109 61 29 116
3 32 116 29
3 114 61 29
3 32 4 116
5 4 32 114 27 12
3 61 114 27
3 109 12 27
3 10 116 45
3 3 48 0
3 4 3 116
5 3 116 45 105 48
3 48 105 14
3 45 105 13
3 29 52 116
3 32 5 31
3 5 55 117
5 5 32 116 23 117
3 52 116 23
3 21 117 23
3 55 21 117
3 24 88 100
3 28 24 114
5 24 114 8 111 88
3 6 114 8
3 8 111 9
3 34 111 88
5 17 117 2 41 108
3 71 17 108
3 17 117 55
3 2 117 5
3 41 108 40
3 2 41 7
3 33 36 1
3 16 115 14
3 66 16 115
5 1 36 112 14 115
3 14 64 112
3 35 64 112
3 89 80 118
5 98 69 83 118 89
3 95 97 83
3 83 118 95
3 97 51 69
5 80 91 51 97 95
3 51 69 98
3 98 51 91
3 95 80 118
3 89 74 86
3 89 118 86
3 74 107 57
3 58 107 57
3 80 118 79
5 58 107 86 118 79
3 84 118 81
5 95 118 84 101 42
3 63 81 84
3 43 101 42
3 83 118 81
3 43 101 63
3 86 118 81
3 118 81 94
3 94 118 79
3 107 67 58
3 58 67 101
3 107 87 67
5 87 81 94 101 67
3 79 101 94
3 92 98 90
5 74 85 118 90 77
3 92 118 90
3 74 99 75
3 118 85 80
3 118 92 80
3 85 99 80
5 75 99 80 92 98
3 77 75 98
5 82 69 90 81 96
3 118 81 90
3 46 96 82
3 96 81 94
3 97 69 82
3 82 46 97
5 94 118 92 97 46
3 86 77 89
3 69 68 98
3 77 68 98
3 85 118 84
3 85 84 107
5 76 107 84 81 106
3 76 106 77
3 74 76 107
3 106 81 90
3 72 90 83
3 83 94 96
3 86 90 106
3 50 80 92
3 50 44 97
3 46 97 44
3 42 78 101
3 42 78 103
3 95 103 80
3 58 78 101
5 85 80 103 78 58
3 85 99 89
3 79 85 60
3 79 95 103
3 27 57 24
3 76 34 65
3 76 107 65
3 34 111 25
3 25 27 111
5 57 27 111 65 107
5 102 16 43 96 62
3 62 102 35
3 73 62 96
3 35 73 62
3 47 96 43
3 14 43 16
3 16 102 15
3 68 108 69
3 108 40 68
5 54 98 68 40 113
3 51 98 54
5 108 69 51 55 19
3 55 19 113
3 40 113 19
3 40 68 39
3 38 113 40
3 28 113 38
3 75 54 98
3 75 28 54
3 35 70 62
3 47 112 64
3 82 20 47
3 108 82 20
3 82 108 72
5 33 111 56 67 102
3 88 111 56
3 107 67 56
3 37 102 33
3 34 33 111
3 87 67 102
3 29 53 59
3 29 104 53
3 23 21 44
3 22 21 104
3 59 53 103
5 53 104 21 44 103
3 44 103 45
3 78 10 45
3 109 78 10
3 29 61 53
3 60 78 109
3 52 116 45
3 23 49 116
3 52 116 59
3 13 49 105
5 116 59 78 13 49
3 103 59 78
3 109 57 27
3 57 109 58
3 67 107 65
3 27 111 12
3 111 66 12
5 67 58 109 12 66
3 98 71 51
3 104 51 91
5 104 31 113 71 51
3 93 71 113
3 26 31 104
3 28 31 113
3 14 48 112
5 18 48 112 73 82
3 73 112 64
3 105 48 18
3 96 73 82
3 23 117 48
3 20 117 48
5 21 97 82 20 117
3 44 97 21
3 61 114 24
3 53 104 91
5 78 101 16 115 10
3 10 115 12
3 16 101 67
3 58 109 78
3 115 12 66
3 10 49 115
3 43 16 101
3 14 115 49
3 57 99 24
3 30 59 109
3 26 53 99
5 59 109 57 99 53
3 17 117 18
5 18 44 52 22 117
3 18 44 97
3 104 52 22
3 55 22 117
3 87 102 62
3 70 39 110
5 62 106 68 108 73
3 62 106 37
3 68 106 39
3 73 108 41
3 93 38 100
5 100 38 110 37 76
3 40 110 38
3 37 76 106
3 76 100 77
3 70 110 37
3 51 97 21
3 69 82 108
3 55 19 117
3 19 117 20
3 101 43 13
5 43 64 15 115 13
3 64 15 102
3 11 13 115
3 66 15 115
5 26 114 25 100 75
3 88 25 100
3 25 114 27
3 61 114 26
3 26 75 99
3 74 75 100
5 12 8 119 0 115
3 0 119 36
3 15 115 0
3 8 119 9
3 111 8 12
3 9 119 36
3 3 119 0
3 41 7 19
5 117 3 119 7 19
3 7 119 36
3 48 3 117
3 38 9 25
5 38 9 119 5 113
3 5 32 119
3 31 113 5
3 32 119 8
3 3 32 119
3 32 6 119
3 7 6 119
3 113 19 7
3 22 117 3
3 112 48 2
3 115 49 4
5 48 2 119 4 49
3 4 119 1
3 36 119 1
3 36 119 2
5 25 6 119 1 111
3 114 6 25
3 12 111 1
3 32 4 119
3 49 115 0
3 8 12 30
3 5 119 2
3 116 4 49
3 117 48 2
3 22 31 5
3 8 30 114
3 4 116 30
5 30 116 22 31 114
3 6 31 114
3 3 22 116
3 1 111 33
3 38 6 25
3 110 38 9
3 5 113 19
5 41 110 33 15 112
3 9 110 33
3 1 33 15
3 0 112 15
3 112 41 2
3 41 110 7
3 51 104 21
3 97 95 44
3 103 95 44
3 80 103 53
3 78 109 59
3 57 99 85
3 80 99 53
5 43 94 95 44 105
3 13 105 43
3 43 94 101
3 45 44 105
3 81 96 62
3 16 102 67
3 96 43 94
3 57 24 88
3 76 100 88
3 17 51 71
3 82 108 17
3 92 98 51
3 62 106 81
3 90 106 68
3 108 73 82
3 93 39 68
3 93 75 100
3 84 107 67
3 65 76 37
3 43 105 47
3 18 44 105
3 56 67 11
3 78 109 11
3 54 26 75
3 56 111 12
3 30 114 61
3 64 112 15
3 13 115 49
3 19 71 113
3 22 31 104
3 70 41 110
3 37 110 33
3 15 33 102
3 73 41 112
3 38 100 25
3 48 117 18
3 52 116 22
3 59 30 116
3 26 31 114

# Cells
12 0 1 2 3 4 5 6 7 8 9 10 11
12 1 12 13 14 15 16 17 18 19 20 21 22
12 4 23 24 25 26 27 28 29 30 31 32 33
12 34 35 36 37 38 39 40 41 42 43 44 45
12 46 47 48 49 50 51 52 53 54 55 56 57
12 58 59 60 61 62 63 64 65 66 67 68 69
12 39 70 71 72 73 74 75 76 77 78 79 80
12 12 81 82 83 84 85 86 87 88 89 90 91
12 49 92 93 94 95 96 97 98 99 100 101 102
12 25 103 104 105 106 107 108 109 110 111 112 113
12 35 51 114 115 116 117 118 119 120 121 122 123
12 60 72 124 125 126 127 128 129 130 131 132 133
12 63 95 134 135 136 137 138 139 140 141 142 143
12 82 144 145 146 147 148 149 150 151 152 153 154
12 103 155 156 157 158 159 160 161 162 163 164 165
12 146 156 166 167 168 169 170 171 172 173 174 175
12 31 38 66 85 176 177 178 179 180 181 182 183
12 17 56 64 112 184 185 186 187 188 189 190 191
12 8 44 96 149 192 193 194 195 196 197 198 199
12 7 50 79 162 200 201 202 203 204 205 206 207
12 106 122 135 152 208 209 210 211 212 213 214 215
12 88 115 131 157 216 217 218 219 220 221 222 223
12 24 71 140 173 224 225 226 227 228 229 230 231
12 19 99 125 168 232 233 234 235 236 237 238 239
12 23 108 185 240 241 242 243 244 245 246 247 248
12 37 249 250 251 252 253 254 255 256 257 258 259
12 84 145 192 260 261 262 263 264 265 266 267 268
12 13 87 178 268 269 270 271 272 273 274 275 276
12 90 259 270 277 278 279 280 281 282 283 284 285
12 30 73 225 278 286 287 288 289 290 291 292 293
12 57 294 295 296 297 298 299 300 301 302 303 304
12 113 248 266 297 305 306 307 308 309 310 311 312
12 207 258 308 313 314 315 316 317 318 319 320 321
12 109 164 206 244 279 322 323 324 325 326 327 328
12 21 100 237 289 312 329 330 331 332 333 334 335
12 194 281 300 336 337 338 339 340 341 342 343 344
12 191 265 345 346 347 348 349 350 351 352 353 354
12 33 315 347 355 356 357 358 359 360 361 362 363
12 11 255 301 346 364 365 366 367 368 369 370 371
12 180 326 370 372 373 374 375 376 377 378 379 380
12 2 29 182 241 291 355 381 382 383 384 385 386
12 9 42 193 263 336 387 388 389 390 391 392 393
12 14 344 372 394 395 396 397 398 399 400 401 402
12 3 15 187 269 335 395 403 404 405 406 407 408
12 40 74 203 292 397 409 410 411 412 413 414 415
12 10 254 302 353 371 380 416 417 418 419 420 421
12 5 53 205 317 325 411 422 423 424 425 426 427
12 48 98 196 331 358 392 428 429 430 431 432 433
12 218 246 249 434 435 436 437 438 439 440 441 442
12 89 132 216 271 299 434 443 444 445 446 447 448
12 59 142 230 262 287 437 449 450 451 452 453 454
12 215 276 304 448 455 456 457 458 459 460 461 462
12 123 321 342 463 464 465 466 467 468 469 470 471
12 165 328 333 456 465 472 473 474 475 476 477 478
12 104 141 213 247 250 435 444 453 455 479 480 481
12 120 320 341 449 464 473 482 483 484 485 486 487
12 147 167 233 245 261 296 310 319 332 488 489 490
12 61 126 236 323 330 447 457 468 478 491 492 493
12 144 260 286 442 450 467 482 494 495 496 497 498
12 158 171 226 251 272 280 290 324 340 499 500 501
12 34 114 219 351 445 486 502 503 504 505 506 507
12 20 62 184 242 349 508 509 510 511 512 513 514
12 77 362 375 440 480 515 516 517 518 519 520 521
12 52 119 212 376 471 481 517 522 523 524 525 526
12 93 136 209 316 357 382 433 527 528 529 530 531
12 47 303 306 337 421 460 532 533 534 535 536 537
12 32 68 181 274 373 538 539 540 541 542 543 544
12 75 129 222 339 396 403 409 545 546 547 548 549
12 235 283 288 329 386 413 495 550 551 552 553 554
12 102 352 402 446 458 507 555 556 557 558 559 560
12 45 257 285 313 365 441 561 562 563 564 565 566
12 231 293 311 334 407 432 474 567 568 569 570 571
12 65 138 186 414 477 493 529 540 572 573 574 575
12 116 163 221 327 374 398 417 526 539 547 576 577
12 101 394 430 459 497 546 560 578 579 580 581 582
12 58 124 177 429 452 494 513 545 578 583 584 585
12 36 76 179 253 389 502 538 555 586 587 588 589
12 127 243 277 322 378 424 492 590 591 592 593 594
12 121 150 208 264 345 359 368 503 509 527 595 596
12 55 92 190 295 426 511 516 522 597 598 599 600
12 201 256 309 314 360 485 601 602 603 604 605 606
12 80 363 415 438 476 519 530 574 607 608 609 610
12 143 267 273 305 350 393 454 611 612 613 614 615
12 199 284 298 343 401 466 616 617 618 619 620 621
12 188 354 420 559 582 615 622 623 624 625 626 627
12 54 110 189 404 573 610 623 628 629 630 631 632
12 43 118 198 410 524 566 625 633 634 635 636 637
12 183 369 377 520 594 609 630 638 639 640 641 642
12 69 356 391 431 567 585 643 644 645 646 647 648
12 22 379 400 506 558 618 639 646 649 650 651 652
12 41 86 176 385 579 583 622 628 637 638 653 654
12 67 399 412 425 550 572 635 645 652 655 656 657
12 6 28 204 388 405 419 658 659 660 661 662 663
12 46 117 202 428 505 536 631 640 647 649 664 665
12 27 348 361 521 523 603 627 634 648 655 666 667
12 0 16 195 367 384 427 668 669 670 671 672 673
12 223 439 496 543 562 575 577 607 674 675 676 677
12 154 469 498 542 554 556 581 589 677 678 679 680
12 175 275 408 462 501 544 611 676 681 682 683 684
12 210 461 475 508 537 580 584 595 683 685 686 687
12 153 170 214 252 416 479 499 586 605 679 688 689
12 139 174 227 318 423 463 488 531 561 690 691 692
12 160 472 487 510 515 571 597 608 685 693 694 695
12 155 169 217 294 366 443 490 599 621 694 696 697
12 94 134 232 451 484 504 557 598 604 693 698 699
12 172 240 383 436 489 512 592 675 681 687 700 701
12 130 166 234 338 387 483 500 534 548 698 702 703
12 70 128 224 470 491 518 525 588 620 680 692 704
12 81 148 220 418 533 576 626 654 659 688 705 706
12 137 381 528 552 612 624 653 671 682 700 707 708
12 26 107 228 541 563 636 658 667 674 690 709 710
12 105 159 211 364 564 596 629 641 673 696 709 711
12 111 307 535 569 606 613 668 707 711 712 713 714
12 97 151 197 602 617 633 666 669 689 699 712 715
12 133 406 549 570 591 632 642 663 684 701 716 717
12 91 282 551 565 593 619 661 706 710 717 718 719
12 239 390 553 587 614 644 656 660 678 703 708 718
12 18 83 238 514 532 651 664 670 686 702 705 713
12 78 161 200 601 616 650 662 665 697 704 715 719
12 229 422 568 590 600 643 657 672 691 695 714 716
