# Generated using Miratope v0.5.0 (https://github.com/galoomba1/miratope-rs)
4OFF

# Vertices, Faces, Edges, Cells
120 2400 1800 240

# Vertices
0.809016994375 0 0.3090169943749 0.5 
0.5 0.5 -0.5 -0.5 
0 0.3090169943749 0.8090169943749 -0.5 
-0.3090169943749 0.809016994375 0 0.5 
0.809016994375 -0 0.3090169943749 -0.5 
0.5 0.3090169943749 0 0.8090169943749 
-0.3090169943749 0.5 0.809016994375 0 
0 0.809016994375 -0.5 -0.3090169943749 
0.809016994375 0.3090169943749 -0.5 0 
0.5 0 0.8090169943749 -0.3090169943749 
0 0.5 0.3090169943749 0.8090169943749 
-0.3090169943749 0.809016994375 0 -0.5 
0.5 0 0.8090169943749 0.3090169943749 
0.5 0.5 -0.5 0.5 
0.5 0.3090169943749 0 -0.8090169943749 
-0.5 0.809016994375 0.309016994375 0 
1 -0 -0 0 
0 0.3090169943749 0.8090169943749 0.5 
0 0.5 0.3090169943749 -0.8090169943749 
0 0.8090169943749 -0.5 0.3090169943749 
0.5 -0.3090169943749 0 0.8090169943749 
0 0.8090169943749 0.5 0.3090169943749 
-0.3090169943749 -0.5 0.809016994375 0 
0.809016994375 0.5 0 0.3090169943749 
0.5 -0.5 0.5 -0.5 
0 -0.5 0.3090169943749 0.8090169943749 
0.809016994375 -0.5 0 0.3090169943749 
0.5 0.8090169943749 0.3090169943749 0 
0 -0.3090169943749 0.809016994375 -0.5 
-0.3090169943749 0 0.5 0.8090169943749 
0 -0.8090169943749 0.5 0.3090169943749 
0.5 -0.8090169943749 0.3090169943749 0 
0.5 0.5 0.5 -0.5 
-0.5 0 0.809016994375 0.3090169943749 
0.5 -0.3090169943749 0 -0.8090169943749 
0 0 1 0 
0.809016994375 -0.3090169943749 0.5 -0 
0.5 0.8090169943749 -0.3090169943749 0 
0 0 0 -1 
0.809016994375 0 -0.3090169943749 -0.5 
0 1 0 0 
-0.3090169943749 0 0.5 -0.8090169943749 
0 0.5 -0.3090169943749 -0.8090169943749 
0.5 0.5 0.5 0.5 
-0.5 0.5 0.5 -0.5 
0.809016994375 0.5 0 -0.3090169943749 
0.5 -0.5 0.5 0.5 
0 0.5 -0.3090169943749 0.8090169943749 
0 0.8090169943749 0.5 -0.3090169943749 
-0.5 0.5 0.5 0.5 
0.809016994375 0 -0.3090169943749 0.5 
0 -0.3090169943749 0.809016994375 0.5 
0 0 0 1 
0 -0.8090169943749 0.5 -0.3090169943749 
0.809016994375 -0.5 0 -0.3090169943749 
-0.5 0 0.809016994375 -0.3090169943749 
0 -0.5 0.3090169943749 -0.8090169943749 
0 -0.8090169943749 -0.5 0.3090169943749 
0.5 -0.5 -0.5 0.5 
-0.3090169943749 -0.809016994375 0 -0.5 
0.5 -0.5 -0.5 -0.5 
-0.5 -0.809016994375 0.309016994375 0 
0.809016994375 -0.3090169943749 -0.5 0 
-0.3090169943749 -0.809016994375 0 0.5 
0 -0.809016994375 -0.5 -0.3090169943749 
0 -0.5 -0.3090169943749 -0.8090169943749 
0.809016994375 0.3090169943749 0.5 -0 
0.5 -0.8090169943749 -0.3090169943749 0 
-0.5 -0.5 0.5 -0.5 
0 -1 0 0 
0 -0.5 -0.3090169943749 0.8090169943749 
-0.5 -0.5 0.5 0.5 
0.5 0 -0.8090169943749 -0.3090169943749 
-0.3090169943749 0 -0.5 0.809016994375 
0 0 -1 0 
-0.3090169943749 0.5 -0.809016994375 0 
0 -0.3090169943749 -0.8090169943749 0.5 
-0.5 0.5 -0.5 0.5 
0.5 -0 -0.8090169943749 0.3090169943749 
0 0.3090169943749 -0.8090169943749 -0.5 
0 0.3090169943749 -0.8090169943749 0.5 
-0.5 0.809016994375 -0.3090169943749 0 
-0.5 0.309016994375 0 0.809016994375 
0 -0.3090169943749 -0.8090169943749 -0.5 
-0.3090169943749 0 -0.5 -0.809016994375 
-0.5 0.5 -0.5 -0.5 
-0.5 0.309016994375 0 -0.809016994375 
-0.3090169943749 -0.5 -0.809016994375 0 
-0.5 -0.5 -0.5 0.5 
-0.5 -0.809016994375 -0.3090169943749 0 
-0.5 -0.309016994375 0 0.809016994375 
-0.5 -0.309016994375 0 -0.809016994375 
-0.5 -0.5 -0.5 -0.5 
-0.5 0 -0.809016994375 0.309016994375 
-0.5 0 -0.809016994375 -0.309016994375 
0.309016994375 -0.5 -0.8090169943749 0 
0.309016994375 0.8090169943749 0 0.5 
0.309016994375 0.8090169943749 0 -0.5 
0.309016994375 0 -0.5 -0.8090169943749 
0.309016994375 0 -0.5 0.8090169943749 
0.309016994375 -0.5 0.8090169943749 0 
0.309016994375 0 0.5 0.8090169943749 
0.309016994375 -0.8090169943749 0 -0.5 
0.309016994375 0 0.5 -0.8090169943749 
0.309016994375 0.5 -0.8090169943749 0 
0.309016994375 -0.8090169943749 0 0.5 
0.309016994375 0.5 0.8090169943749 0 
-0.8090169943749 0.309016994375 0.5 0 
-0.8090169943749 0 0.309016994375 0.5 
-0.8090169943749 -0.309016994375 0.5 0 
-0.8090169943749 0 0.309016994375 -0.5 
-0.8090169943749 0.5 0 0.309016994375 
-0.8090169943749 0.5 0 -0.309016994375 
-0.8090169943749 -0.5 0 0.309016994375 
-0.8090169943749 -0.5 0 -0.309016994375 
-0.8090169943749 0 -0.309016994375 0.5 
-0.8090169943749 0.309016994375 -0.5 0 
-0.8090169943749 0 -0.309016994375 -0.5 
-0.8090169943749 -0.309016994375 -0.5 0 
-1 0 0 0 

# Faces
3 0 2 1
3 1 3 0
3 0 2 3
3 4 6 5
3 4 7 5
3 4 7 6
3 9 10 8
3 8 11 9
3 8 10 11
3 9 11 10
3 12 13 14
3 13 15 12
3 12 15 14
3 17 18 16
3 16 19 17
3 18 19 16
3 14 15 13
3 6 7 5
3 2 3 1
3 17 18 19
3 20 21 4
3 4 20 22
3 4 21 22
3 23 25 24
3 23 24 6
3 23 25 6
3 27 28 26
3 27 29 26
3 28 29 26
3 28 29 27
3 2 10 16
3 2 30 16
3 16 30 10
3 32 5 31
3 31 33 32
3 31 33 5
3 5 33 32
3 25 6 24
3 20 22 21
3 2 10 30
3 23 34 35
3 23 11 34
3 35 11 23
3 36 6 37
3 36 38 37
3 6 38 36
3 12 40 39
3 39 41 12
3 12 41 40
3 28 21 16
3 16 28 42
3 16 21 42
3 39 41 40
3 43 1 24
3 43 24 44
3 1 44 43
3 1 44 24
3 6 38 37
3 35 11 34
3 28 21 42
3 45 46 6
3 45 47 46
3 45 47 6
3 36 13 48
3 13 29 36
3 48 29 36
3 9 37 20
3 9 49 37
3 9 20 49
3 50 32 51
3 50 3 32
3 50 51 3
3 35 40 16
3 16 35 52
3 16 52 40
3 32 3 51
3 46 6 47
3 13 29 48
3 37 49 20
3 35 52 40
3 14 53 0
3 0 6 14
3 0 6 53
3 45 17 31
3 45 31 41
3 17 41 45
3 54 18 43
3 54 22 43
3 54 18 22
3 46 34 27
3 46 55 27
3 34 55 27
3 16 48 51
3 16 56 51
3 48 56 16
3 18 22 43
3 17 41 31
3 34 55 46
3 14 53 6
3 51 56 48
3 34 22 0
3 0 57 34
3 0 22 57
3 4 51 58
3 58 59 4
3 4 59 51
3 9 20 60
3 20 61 9
3 60 61 9
3 12 56 62
3 62 63 12
3 12 56 63
3 56 63 62
3 28 25 16
3 16 64 28
3 25 64 16
3 51 59 58
3 20 60 61
3 34 57 22
3 28 25 64
3 26 22 32
3 32 65 26
3 26 65 22
3 66 30 60
3 66 60 41
3 66 41 30
3 12 14 67
3 12 68 14
3 12 68 67
3 35 69 16
3 35 38 16
3 69 38 16
3 39 46 2
3 39 59 46
3 2 59 39
3 32 22 65
3 46 2 59
3 14 67 68
3 30 41 60
3 35 69 38
3 5 35 54
3 54 5 63
3 35 63 54
3 9 50 69
3 9 50 29
3 69 29 9
3 67 52 66
3 67 22 66
3 66 52 22
3 50 69 29
3 16 17 53
3 16 17 70
3 16 70 53
3 24 58 43
3 43 71 24
3 58 71 43
3 58 71 24
3 5 63 35
3 53 70 17
3 52 22 67
3 72 40 0
3 0 73 72
3 40 73 0
3 20 3 45
3 20 74 45
3 3 74 45
3 27 52 62
3 62 75 27
3 62 52 75
3 27 52 75
3 16 7 10
3 16 10 76
3 7 76 16
3 1 58 43
3 43 77 1
3 43 77 58
3 1 58 77
3 3 74 20
3 40 73 72
3 10 76 7
3 66 42 78
3 66 3 78
3 66 42 3
3 50 14 21
3 50 14 75
3 50 21 75
3 16 47 48
3 16 48 79
3 16 79 47
3 43 80 39
3 39 11 43
3 80 11 39
3 80 11 43
3 5 72 32
3 32 5 81
3 32 72 81
3 72 81 5
3 21 75 14
3 78 42 3
3 48 47 79
3 37 17 26
3 26 37 73
3 26 73 17
3 12 70 8
3 8 12 3
3 70 3 8
3 66 19 58
3 66 58 29
3 19 29 66
3 12 70 3
3 27 78 46
3 46 82 27
3 27 82 78
3 21 25 16
3 16 21 80
3 25 80 16
3 78 82 46
3 58 29 19
3 37 17 73
3 21 25 80
3 4 11 13
3 4 13 83
3 4 83 11
3 60 18 23
3 23 60 75
3 23 18 75
3 62 19 32
3 32 84 62
3 19 84 62
3 34 78 27
3 34 85 27
3 27 85 78
3 40 38 16
3 16 40 74
3 16 74 38
3 19 84 32
3 11 83 13
3 34 78 85
3 60 75 18
3 38 74 40
3 54 27 79
3 27 41 54
3 79 41 54
3 8 48 24
3 8 84 24
3 48 84 8
3 37 60 9
3 9 37 86
3 9 86 60
3 72 56 66
3 72 11 66
3 66 11 56
3 79 41 27
3 2 7 16
3 16 65 2
3 16 7 65
3 24 84 48
3 37 86 60
3 72 11 56
3 2 65 7
3 60 80 0
3 60 63 0
3 80 63 0
3 54 13 25
3 54 13 87
3 54 87 25
3 8 64 46
3 8 73 46
3 8 73 64
3 16 52 69
3 16 74 69
3 52 74 16
3 31 72 5
3 31 5 88
3 31 88 72
3 46 73 64
3 13 87 25
3 5 72 88
3 60 63 80
3 69 74 52
3 36 72 70
3 36 72 59
3 70 59 36
3 50 24 63
3 50 83 24
3 50 83 63
3 30 76 16
3 16 30 65
3 16 76 65
3 39 53 20
3 39 20 87
3 53 87 39
3 46 78 34
3 46 89 34
3 46 78 89
3 63 83 24
3 53 87 20
3 34 89 78
3 70 59 72
3 30 76 65
3 23 76 31
3 23 29 31
3 23 76 29
3 36 78 10
3 78 63 36
3 36 63 10
3 13 67 12
3 12 90 13
3 12 67 90
3 43 30 62
3 62 43 73
3 62 30 73
3 16 51 47
3 51 57 16
3 47 57 16
3 43 30 73
3 31 29 76
3 67 90 13
3 47 57 51
3 78 63 10
3 45 28 67
3 45 67 84
3 28 84 45
3 36 1 64
3 36 41 1
3 36 41 64
3 62 42 9
3 62 59 9
3 42 59 9
3 42 59 62
3 16 53 18
3 18 83 16
3 53 83 16
3 32 31 72
3 31 91 32
3 31 72 91
3 32 91 72
3 64 41 1
3 67 84 28
3 53 83 18
3 4 69 78
3 4 78 84
3 69 84 4
3 26 14 74
3 26 59 14
3 74 59 26
3 8 38 31
3 8 31 87
3 38 87 8
3 56 57 16
3 16 56 79
3 16 57 79
3 31 87 38
3 24 1 58
3 24 92 1
3 58 92 24
3 58 92 1
3 74 59 14
3 69 84 78
3 57 79 56
3 23 79 67
3 23 67 73
3 23 73 79
3 1 47 26
3 26 1 87
3 47 87 26
3 19 70 16
3 19 83 16
3 16 70 83
3 5 57 39
3 5 75 39
3 57 75 39
3 5 57 75
3 1 47 87
3 20 37 60
3 37 93 20
3 60 93 37
3 20 93 60
3 67 79 73
3 19 70 83
3 45 65 58
3 58 75 45
3 45 75 65
3 37 76 54
3 54 84 37
3 54 84 76
3 50 7 34
3 34 87 50
3 7 87 50
3 42 80 16
3 16 80 64
3 16 42 64
3 13 67 14
3 14 94 13
3 13 67 94
3 58 75 65
3 37 76 84
3 67 94 14
3 34 7 87
3 80 42 64
3 0 95 14
3 0 19 14
3 0 19 95
3 4 96 58
3 96 79 4
3 58 79 4
3 5 97 54
3 5 74 54
3 97 74 54
3 26 98 27
3 27 80 26
3 26 80 98
3 66 60 99
3 66 7 60
3 99 7 66
3 98 80 27
3 5 74 97
3 58 79 96
3 95 19 14
3 99 7 60
3 4 5 95
3 5 30 4
3 95 30 4
3 23 100 60
3 23 100 70
3 60 70 23
3 8 101 24
3 24 57 8
3 8 57 101
3 78 102 66
3 102 25 66
3 66 25 78
3 12 99 39
3 12 69 39
3 99 69 12
3 39 99 69
3 100 60 70
3 24 57 101
3 5 30 95
3 102 25 78
3 23 24 95
3 24 42 23
3 95 42 23
3 36 97 78
3 36 97 65
3 78 65 36
3 26 103 37
3 37 83 26
3 103 83 26
3 67 104 66
3 66 38 67
3 104 38 66
3 50 32 102
3 50 79 32
3 102 79 50
3 32 79 102
3 95 42 24
3 37 83 103
3 97 65 78
3 67 38 104
3 45 101 67
3 45 67 80
3 101 80 45
3 54 104 43
3 43 70 54
3 54 104 70
3 36 95 37
3 36 52 37
3 36 95 52
3 66 72 105
3 66 105 47
3 72 47 66
3 39 96 46
3 39 76 46
3 96 76 39
3 104 70 43
3 46 76 96
3 37 52 95
3 105 72 47
3 101 80 67
3 72 103 0
3 103 69 0
3 72 69 0
3 46 95 45
3 45 46 56
3 45 56 95
3 9 105 8
3 9 65 8
3 8 65 105
3 9 105 65
3 58 98 66
3 58 53 66
3 66 98 53
3 50 14 100
3 100 64 50
3 14 64 50
3 46 56 95
3 100 14 64
3 98 53 58
3 103 69 72
3 0 102 2
3 0 71 102
3 0 71 2
3 69 101 4
3 4 55 101
3 69 55 4
3 25 106 54
3 106 68 54
3 54 25 68
3 17 103 26
3 26 61 17
3 26 61 103
3 66 56 105
3 105 33 66
3 66 56 33
3 25 68 106
3 56 33 105
3 17 103 61
3 69 55 101
3 102 71 2
3 0 80 97
3 97 49 0
3 0 80 49
3 45 17 99
3 17 81 45
3 45 81 99
3 48 101 8
3 8 77 101
3 8 77 48
3 66 104 52
3 66 104 15
3 52 15 66
3 50 106 7
3 106 82 50
3 50 82 7
3 106 7 82
3 97 80 49
3 99 81 17
3 101 77 48
3 104 52 15
3 4 104 21
3 4 104 86
3 4 21 86
3 23 103 79
3 23 103 15
3 23 79 15
3 38 106 8
3 8 106 81
3 8 38 81
3 19 98 66
3 66 44 98
3 19 44 66
3 2 96 39
3 96 85 39
3 39 2 85
3 106 81 38
3 96 85 2
3 103 79 15
3 104 21 86
3 98 19 44
3 0 22 48
3 48 82 0
3 0 82 22
3 9 71 5
3 9 15 5
3 9 71 15
3 3 25 66
3 66 55 25
3 66 3 55
3 27 100 52
3 27 107 100
3 27 52 107
3 2 96 46
3 96 108 46
3 2 108 46
3 100 52 107
3 71 15 5
3 2 108 96
3 48 82 22
3 25 3 55
3 36 21 41
3 21 71 36
3 41 71 36
3 29 53 66
3 66 44 53
3 29 44 66
3 43 30 103
3 43 103 107
3 43 107 30
3 46 49 32
3 32 68 46
3 32 49 68
3 49 68 46
3 24 101 48
3 101 109 24
3 48 109 24
3 48 109 101
3 30 107 103
3 21 71 41
3 29 44 53
3 35 105 23
3 23 105 82
3 35 82 23
3 70 96 36
3 96 33 36
3 36 70 33
3 26 47 106
3 26 106 71
3 47 71 26
3 30 99 66
3 99 49 66
3 66 30 49
3 50 100 21
3 50 100 90
3 21 90 50
3 106 47 71
3 100 21 90
3 96 70 33
3 105 35 82
3 99 49 30
3 45 100 65
3 100 44 45
3 45 65 44
3 54 97 35
3 54 97 91
3 54 91 35
3 36 48 98
3 98 68 36
3 36 68 48
3 42 102 66
3 66 102 55
3 66 55 42
3 39 106 53
3 39 86 106
3 53 86 39
3 53 86 106
3 100 65 44
3 35 91 97
3 42 55 102
3 48 68 98
3 4 17 11
3 4 68 17
3 4 11 68
3 66 38 22
3 22 15 66
3 66 15 38
3 12 97 56
3 97 107 12
3 12 107 56
3 24 33 27
3 27 24 86
3 27 33 86
3 14 21 100
3 100 14 110
3 21 110 100
3 33 86 24
3 21 110 14
3 97 107 56
3 11 68 17
3 22 38 15
3 23 29 2
3 23 81 2
3 23 81 29
3 66 47 33
3 66 11 47
3 66 33 11
3 37 44 12
3 12 82 37
3 44 82 12
3 32 19 101
3 101 107 32
3 19 107 32
3 5 35 97
3 97 111 5
3 5 111 35
3 44 82 37
3 35 111 97
3 101 19 107
3 2 81 29
3 47 11 33
3 45 35 3
3 35 86 45
3 3 86 45
3 42 96 9
3 9 107 96
3 42 107 9
3 66 49 7
3 66 7 41
3 66 41 49
3 43 55 14
3 14 81 43
3 43 55 81
3 42 107 96
3 37 17 103
3 37 17 112
3 103 112 37
3 14 55 81
3 103 112 17
3 35 86 3
3 7 41 49
3 0 1 102
3 1 76 0
3 0 76 102
3 4 104 20
3 20 64 4
3 4 64 104
3 45 31 99
3 45 31 83
3 45 83 99
3 23 105 34
3 23 105 74
3 23 74 34
3 13 98 36
3 13 57 36
3 36 98 57
3 31 99 83
3 13 98 57
3 1 76 102
3 20 104 64
3 105 34 74
3 78 101 4
3 4 40 101
3 78 40 4
3 1 99 36
3 1 21 36
3 21 99 36
3 26 32 104
3 26 32 10
3 26 104 10
3 12 97 62
3 62 47 12
3 12 47 97
3 62 97 47
3 39 20 106
3 39 106 19
3 39 20 19
3 106 20 19
3 104 10 32
3 99 21 1
3 101 40 78
3 0 104 34
3 0 34 48
3 0 104 48
3 54 106 13
3 106 42 54
3 13 42 54
3 36 72 96
3 96 18 36
3 36 72 18
3 9 50 98
3 9 40 50
3 98 40 9
3 50 98 40
3 43 62 103
3 62 43 7
3 62 7 103
3 103 7 43
3 106 42 13
3 96 72 18
3 104 48 34
3 40 103 0
3 103 33 0
3 40 33 0
3 51 96 4
3 96 44 4
3 4 51 44
3 45 101 28
3 45 15 101
3 45 15 28
3 23 18 100
3 23 100 49
3 23 49 18
3 10 97 36
3 36 55 97
3 10 55 36
3 100 18 49
3 96 44 51
3 10 55 97
3 101 28 15
3 103 33 40
3 53 95 0
3 0 90 95
3 53 90 0
3 54 76 101
3 54 61 101
3 54 61 76
3 64 99 36
3 71 99 36
3 64 71 36
3 50 102 51
3 102 88 50
3 51 88 50
3 62 100 52
3 62 100 89
3 52 89 62
3 100 52 89
3 101 76 61
3 51 88 102
3 99 64 71
3 95 53 90
3 4 105 83
3 68 105 4
3 83 68 4
3 38 95 36
3 36 95 61
3 36 38 61
3 26 28 98
3 26 28 89
3 26 89 98
3 30 103 62
3 103 92 62
3 62 30 92
3 39 57 100
3 100 91 39
3 39 91 57
3 100 57 91
3 105 68 83
3 103 92 30
3 28 89 98
3 95 38 61
3 0 63 28
3 0 28 49
3 63 49 0
3 36 6 52
3 36 6 61
3 36 52 61
3 9 10 105
3 9 105 109
3 9 109 10
3 43 31 55
3 31 90 43
3 43 55 90
3 53 106 20
3 20 108 106
3 53 108 106
3 55 90 31
3 53 108 20
3 105 10 109
3 28 63 49
3 6 61 52
3 4 30 6
3 4 30 91
3 6 91 4
3 36 18 33
3 36 59 18
3 59 33 36
3 44 34 12
3 12 61 34
3 12 61 44
3 38 31 106
3 31 109 106
3 38 109 106
3 31 109 38
3 32 51 102
3 32 102 110
3 51 110 32
3 34 44 61
3 102 51 110
3 18 59 33
3 30 6 91
3 29 57 36
3 68 57 36
3 36 68 29
3 26 35 59
3 26 35 90
3 26 90 59
3 70 102 12
3 12 109 102
3 12 109 70
3 24 33 20
3 24 20 89
3 33 89 24
3 20 89 33
3 67 28 101
3 67 101 113
3 28 113 67
3 28 113 101
3 102 109 70
3 35 90 59
3 57 29 68
3 54 51 41
3 54 89 51
3 54 41 89
3 36 63 65
3 36 65 55
3 63 55 36
3 9 71 67
3 9 91 67
3 9 71 91
3 64 103 46
3 46 103 109
3 64 109 46
3 35 105 34
3 34 114 105
3 35 114 105
3 34 35 114
3 67 91 71
3 103 109 64
3 51 89 41
3 63 55 65
3 45 20 102
3 20 35 45
3 45 102 35
3 67 103 23
3 23 67 51
3 23 51 103
3 50 34 106
3 50 30 106
3 50 34 30
3 32 62 101
3 62 53 32
3 62 101 53
3 39 43 105
3 39 43 28
3 105 28 39
3 105 28 43
3 34 30 106
3 32 101 53
3 20 35 102
3 103 51 67
3 60 97 0
3 0 28 97
3 60 28 0
3 31 2 23
3 23 31 98
3 23 98 2
3 26 1 106
3 106 56 26
3 1 56 26
3 12 102 8
3 8 18 12
3 102 18 8
3 12 102 18
3 27 62 100
3 62 27 38
3 100 38 62
3 100 38 27
3 106 1 56
3 2 98 31
3 97 28 60
3 57 104 0
3 82 104 0
3 0 57 82
3 25 95 23
3 23 77 95
3 23 25 77
3 26 74 96
3 26 96 90
3 26 74 90
3 8 10 105
3 105 93 8
3 8 93 10
3 62 101 19
3 62 88 101
3 62 19 88
3 96 74 90
3 105 93 10
3 101 88 19
3 104 82 57
3 25 77 95
3 45 95 47
3 45 95 85
3 45 85 47
3 23 76 98
3 23 81 98
3 23 76 81
3 83 97 50
3 50 97 77
3 83 77 50
3 42 62 96
3 96 93 62
3 62 42 93
3 39 99 40
3 39 99 94
3 40 94 39
3 42 93 96
3 97 77 83
3 99 40 94
3 98 76 81
3 95 85 47
3 0 19 6
3 0 6 90
3 0 90 19
3 23 73 51
3 23 51 15
3 73 15 23
3 12 99 40
3 12 108 99
3 12 40 108
3 27 20 33
3 20 77 27
3 27 77 33
3 25 13 106
3 106 13 111
3 106 111 25
3 25 111 13
3 33 77 20
3 99 108 40
3 51 15 73
3 19 90 6
3 45 44 10
3 45 75 10
3 75 44 45
3 23 42 6
3 23 77 6
3 42 77 23
3 43 18 104
3 43 111 104
3 18 111 43
3 47 1 106
3 1 112 106
3 47 112 106
3 32 49 13
3 13 85 32
3 32 85 49
3 13 49 85
3 1 112 47
3 18 111 104
3 10 75 44
3 6 42 77
3 70 49 23
3 75 70 23
3 75 49 23
3 29 40 50
3 50 93 40
3 50 29 93
3 81 78 43
3 90 78 43
3 81 90 43
3 37 101 76
3 101 111 37
3 37 111 76
3 20 104 21
3 20 115 104
3 20 21 115
3 101 111 76
3 78 81 90
3 104 21 115
3 40 29 93
3 49 75 70
3 23 74 11
3 23 11 82
3 23 82 74
3 8 21 73
3 21 85 8
3 73 85 8
3 79 99 27
3 99 111 27
3 27 111 79
3 5 15 1
3 1 93 5
3 15 93 5
3 1 93 15
3 78 10 97
3 97 116 78
3 97 10 116
3 99 79 111
3 10 116 78
3 73 85 21
3 11 74 82
3 13 105 4
3 4 13 17
3 4 17 105
3 45 100 58
3 45 100 10
3 58 10 45
3 27 99 54
3 27 51 54
3 51 99 54
3 8 106 31
3 106 52 8
3 31 52 8
3 9 96 62
3 62 25 9
3 96 25 9
3 62 25 96
3 27 99 51
3 31 52 106
3 58 10 100
3 105 17 13
3 4 95 7
3 4 91 95
3 4 91 7
3 45 102 74
3 45 102 86
3 74 86 45
3 54 104 18
3 54 104 92
3 18 92 54
3 64 8 103
3 85 103 8
3 8 64 85
3 62 97 56
3 62 97 94
3 56 94 62
3 56 94 97
3 64 85 103
3 102 86 74
3 18 92 104
3 7 91 95
3 55 40 4
3 84 40 4
3 84 55 4
3 45 56 6
3 45 6 85
3 45 85 56
3 15 9 1
3 9 91 1
3 9 91 15
3 28 98 27
3 28 112 27
3 27 112 98
3 34 106 7
3 106 34 110
3 106 7 110
3 1 15 91
3 34 7 110
3 28 112 98
3 40 55 84
3 6 56 85
3 45 41 83
3 45 81 83
3 45 81 41
3 39 48 75
3 39 48 91
3 75 91 39
3 32 104 65
3 32 112 104
3 65 112 32
3 44 34 37
3 37 94 34
3 44 94 37
3 44 94 34
3 40 103 72
3 103 117 72
3 103 117 40
3 72 117 40
3 104 112 65
3 48 91 75
3 83 41 81
3 45 15 80
3 45 84 80
3 45 84 15
3 8 3 18
3 18 94 8
3 8 94 3
3 27 86 72
3 27 77 72
3 27 77 86
3 13 98 48
3 98 116 13
3 13 48 116
3 14 96 74
3 14 112 96
3 74 112 96
3 74 112 14
3 72 86 77
3 98 116 48
3 18 3 94
3 80 84 15
3 37 101 54
3 54 37 2
3 54 2 101
3 26 14 96
3 26 96 35
3 14 35 26
3 46 103 8
3 8 46 21
3 8 21 103
3 50 24 97
3 50 24 17
3 50 97 17
3 39 100 5
3 100 48 39
3 39 5 48
3 103 21 46
3 5 48 100
3 24 97 17
3 14 35 96
3 101 2 37
3 54 99 79
3 54 89 99
3 79 89 54
3 26 104 65
3 104 88 26
3 65 88 26
3 70 102 8
3 8 102 94
3 8 70 94
3 50 69 98
3 98 93 50
3 50 69 93
3 39 80 105
3 105 92 39
3 80 92 39
3 105 80 92
3 102 94 70
3 99 89 79
3 104 88 65
3 98 69 93
3 69 33 0
3 0 69 73
3 0 73 33
3 22 10 26
3 10 88 26
3 22 88 26
3 12 58 82
3 61 58 12
3 12 82 61
3 17 99 31
3 31 113 17
3 31 99 113
3 57 100 5
3 100 5 108
3 100 57 108
3 5 57 108
3 82 61 58
3 17 113 99
3 10 88 22
3 69 73 33
3 54 22 70
3 54 92 22
3 70 92 54
3 26 71 56
3 26 87 56
3 87 71 26
3 68 60 46
3 60 88 46
3 68 88 46
3 58 100 65
3 58 113 100
3 100 113 65
3 24 25 95
3 24 114 95
3 24 25 114
3 58 65 113
3 68 88 60
3 95 25 114
3 56 71 87
3 70 92 22
3 26 80 29
3 26 89 80
3 26 29 89
3 50 30 82
3 87 30 50
3 87 82 50
3 46 95 47
3 46 113 95
3 47 113 46
3 71 67 5
3 93 67 5
3 71 93 5
3 67 93 71
3 69 101 78
3 78 115 101
3 69 115 101
3 78 115 69
3 47 113 95
3 30 82 87
3 80 29 89
3 26 83 73
3 26 83 61
3 26 61 73
3 59 25 62
3 62 25 93
3 59 93 62
3 90 78 31
3 78 92 31
3 31 92 90
3 20 102 74
3 102 113 20
3 20 113 74
3 30 99 60
3 99 118 60
3 60 30 118
3 102 113 74
3 99 30 118
3 90 92 78
3 59 93 25
3 83 73 61
3 4 79 59
3 4 44 79
3 4 44 59
3 39 28 11
3 39 92 28
3 39 11 92
3 68 60 32
3 32 60 85
3 32 68 85
3 83 97 24
3 24 110 97
3 83 110 24
3 2 102 1
3 102 117 1
3 2 117 1
3 97 110 83
3 68 85 60
3 2 117 102
3 11 92 28
3 79 44 59
3 22 64 4
3 4 22 86
3 4 64 86
3 54 2 84
3 61 2 54
3 54 84 61
3 9 98 69
3 9 110 98
3 69 110 9
3 55 14 31
3 31 92 14
3 31 92 55
3 18 100 60
3 100 60 114
3 100 114 18
3 14 55 92
3 18 114 60
3 2 84 61
3 98 69 110
3 64 86 22
3 54 68 42
3 54 42 87
3 54 87 68
3 39 69 41
3 69 94 39
3 39 41 94
3 24 72 86
3 24 72 89
3 86 89 24
3 53 95 14
3 14 95 117
3 14 53 117
3 67 103 79
3 67 103 114
3 67 114 79
3 103 114 79
3 72 89 86
3 53 117 95
3 69 41 94
3 42 87 68
3 63 74 54
3 54 91 63
3 54 91 74
3 62 53 84
3 53 88 62
3 84 88 62
3 31 76 98
3 98 114 31
3 31 76 114
3 61 58 34
3 34 58 94
3 58 61 94
3 56 105 72
3 72 118 105
3 105 118 56
3 34 61 94
3 56 118 72
3 98 114 76
3 84 88 53
3 74 91 63
3 0 3 76
3 3 71 0
3 71 76 0
3 63 17 50
3 50 77 17
3 50 77 63
3 43 105 80
3 105 108 43
3 43 80 108
3 46 13 49
3 88 13 46
3 46 49 88
3 49 88 13
3 51 96 58
3 96 115 58
3 96 115 51
3 51 115 58
3 105 108 80
3 63 77 17
3 3 71 76
3 8 87 52
3 8 52 81
3 87 81 8
3 3 79 50
3 50 88 3
3 50 79 88
3 5 95 7
3 5 95 115
3 5 7 115
3 70 72 96
3 96 72 116
3 96 116 70
3 82 58 37
3 94 37 58
3 82 94 58
3 37 94 82
3 72 116 70
3 7 115 95
3 52 87 81
3 79 88 3
3 75 64 50
3 64 90 50
3 75 90 50
3 62 63 47
3 62 94 47
3 62 94 63
3 83 13 105
3 105 115 13
3 13 83 115
3 20 72 77
3 89 20 72
3 20 89 77
3 105 115 83
3 52 104 67
3 67 104 118
3 67 118 52
3 77 89 72
3 104 52 118
3 47 63 94
3 64 75 90
3 5 9 1
3 5 67 9
3 9 67 1
3 37 58 12
3 12 34 58
3 37 34 12
3 27 20 24
3 27 24 72
3 27 72 20
3 43 31 14
3 43 31 78
3 43 14 78
3 31 78 14
3 32 13 46
3 46 32 60
3 32 60 13
3 46 60 13
3 24 72 20
3 5 67 1
3 34 37 58
3 29 40 9
3 40 110 9
3 9 29 110
3 3 18 12
3 12 109 18
3 12 3 109
3 27 51 41
3 111 51 27
3 41 111 27
3 11 28 43
3 43 108 28
3 43 108 11
3 32 10 22
3 32 112 10
3 22 112 32
3 51 41 111
3 11 108 28
3 22 112 10
3 40 110 29
3 18 3 109
3 9 25 59
3 107 25 9
3 59 107 9
3 41 69 12
3 12 108 69
3 41 108 12
3 29 31 2
3 2 114 31
3 31 29 114
3 46 56 6
3 46 6 113
3 46 113 56
3 24 17 63
3 24 110 17
3 24 110 63
3 63 110 17
3 29 114 2
3 59 107 25
3 56 113 6
3 69 108 41
3 12 63 47
3 107 47 12
3 63 107 12
3 43 70 22
3 22 111 43
3 43 111 70
3 73 21 46
3 46 109 21
3 73 109 46
3 6 30 5
3 30 115 5
3 6 115 5
3 3 20 35
3 20 35 113
3 20 113 3
3 35 113 3
3 21 109 73
3 6 115 30
3 47 63 107
3 22 70 111
3 15 68 12
3 15 90 12
3 68 90 12
3 82 30 106
3 106 30 110
3 106 82 110
3 44 10 100
3 100 113 10
3 100 44 113
3 61 2 101
3 111 2 101
3 101 61 111
3 61 111 2
3 28 25 21
3 28 119 21
3 28 25 119
3 44 113 10
3 21 119 25
3 30 110 82
3 68 90 15
3 11 65 8
3 8 93 65
3 11 93 8
3 39 19 87
3 39 86 19
3 39 86 87
3 37 95 38
3 37 116 95
3 37 38 116
3 81 14 78
3 92 78 14
3 14 92 81
3 80 60 97
3 60 117 97
3 97 80 117
3 60 117 80
3 78 92 81
3 95 116 38
3 19 86 87
3 11 93 65
3 84 57 8
3 57 77 8
3 84 77 8
3 73 7 62
3 7 92 62
3 62 92 73
3 85 60 13
3 88 60 13
3 85 88 13
3 1 64 99
3 99 116 1
3 1 64 116
3 19 98 58
3 98 118 58
3 58 118 19
3 60 88 85
3 64 116 99
3 98 118 19
3 7 73 92
3 57 77 84
3 9 65 11
3 65 109 9
3 9 109 11
3 84 53 32
3 32 107 53
3 32 107 84
3 24 6 42
3 24 6 114
3 42 114 24
3 59 35 14
3 112 35 14
3 59 112 14
3 22 34 48
3 34 117 48
3 22 117 34
3 59 112 35
3 22 117 48
3 53 107 84
3 6 42 114
3 11 109 65
3 49 61 9
3 9 49 86
3 61 86 9
3 106 56 71
3 106 112 56
3 106 71 112
3 100 48 91
3 100 48 108
3 91 108 100
3 17 18 53
3 17 18 119
3 17 53 119
3 103 15 51
3 103 51 114
3 103 114 15
3 51 114 15
3 48 108 91
3 53 119 18
3 71 112 56
3 49 61 86
3 75 38 62
3 62 89 38
3 62 75 89
3 39 59 76
3 39 85 76
3 59 85 39
3 91 67 1
3 93 67 1
3 1 93 91
3 34 57 104
3 104 117 34
3 57 117 34
3 91 93 67
3 42 102 78
3 102 118 78
3 102 118 42
3 42 118 78
3 104 117 57
3 38 89 75
3 59 85 76
3 29 80 27
3 27 112 80
3 27 112 29
3 73 7 43
3 43 107 7
3 73 107 43
3 13 17 11
3 13 115 17
3 13 11 115
3 5 48 75
3 5 108 48
3 5 108 75
3 37 52 6
3 37 116 6
3 52 116 37
3 17 115 11
3 75 108 48
3 52 116 6
3 29 112 80
3 73 107 7
3 44 71 43
3 71 77 43
3 43 44 77
3 106 52 81
3 106 52 109
3 106 109 81
3 35 96 90
3 96 35 112
3 90 112 96
3 101 55 40
3 40 115 101
3 55 115 101
3 48 51 47
3 48 119 51
3 47 119 51
3 90 112 35
3 48 47 119
3 55 115 40
3 52 81 109
3 71 77 44
3 27 38 75
3 27 38 107
3 75 107 27
3 3 79 32
3 32 110 3
3 79 110 32
3 41 21 1
3 1 21 116
3 1 41 116
3 84 2 37
3 37 2 111
3 84 111 37
3 6 19 14
3 6 117 14
3 14 19 117
3 2 84 111
3 21 116 41
3 6 19 117
3 75 107 38
3 3 79 110
3 27 55 82
3 55 85 27
3 82 85 27
3 106 19 86
3 106 108 19
3 86 108 106
3 96 18 33
3 18 116 96
3 96 33 116
3 97 17 77
3 97 17 110
3 97 77 110
3 17 110 77
3 10 7 2
3 10 119 2
3 2 119 7
3 10 119 7
3 18 33 116
3 19 108 86
3 82 85 55
3 106 68 42
3 42 111 106
3 106 68 111
3 33 81 32
3 32 33 91
3 32 91 81
3 49 28 97
3 97 117 28
3 97 49 117
3 85 103 21
3 109 21 103
3 103 109 85
3 35 38 40
3 40 119 35
3 35 119 38
3 28 49 117
3 21 85 109
3 40 119 38
3 42 68 111
3 33 91 81
3 31 52 87
3 109 52 31
3 31 87 109
3 46 76 59
3 76 108 46
3 46 108 59
3 29 53 58
3 53 118 58
3 29 118 58
3 20 22 64
3 20 115 22
3 64 115 20
3 67 73 51
3 67 114 51
3 73 114 67
3 73 114 51
3 29 118 53
3 52 109 87
3 64 115 22
3 59 108 76
3 55 82 46
3 46 89 55
3 46 82 89
3 100 49 70
3 100 70 114
3 100 114 49
3 68 105 17
3 105 17 115
3 105 68 115
3 17 68 115
3 101 53 107
3 101 88 53
3 107 88 101
3 52 69 35
3 69 119 35
3 35 119 52
3 53 107 88
3 69 119 52
3 70 49 114
3 55 82 89
3 31 83 41
3 83 113 31
3 31 113 41
3 24 57 84
3 24 57 109
3 24 84 109
3 34 30 87
3 30 110 34
3 34 87 110
3 60 28 63
3 60 28 117
3 63 117 60
3 67 22 38
3 67 118 22
3 67 38 118
3 63 117 28
3 30 110 87
3 22 38 118
3 57 84 109
3 83 41 113
3 31 33 91
3 33 88 31
3 31 91 88
3 100 64 90
3 100 64 110
3 100 90 110
3 28 92 105
3 105 28 108
3 105 108 92
3 102 55 25
3 102 118 25
3 102 118 55
3 56 57 51
3 51 56 119
3 51 119 57
3 28 108 92
3 25 118 55
3 57 119 56
3 90 110 64
3 33 91 88
3 107 38 100
3 100 89 38
3 100 89 107
3 24 71 44
3 24 92 71
3 24 92 44
3 103 69 33
3 103 117 69
3 33 117 103
3 35 102 86
3 35 113 102
3 102 86 113
3 2 30 65
3 30 119 2
3 2 119 65
3 35 86 113
3 30 119 65
3 33 117 69
3 38 107 89
3 71 44 92
3 29 57 13
3 13 116 57
3 13 116 29
3 5 63 74
3 5 111 63
3 74 111 5
3 58 10 75
3 58 113 10
3 75 113 58
3 20 87 19
3 20 19 108
3 20 108 87
3 78 3 25
3 78 118 25
3 3 118 78
3 10 75 113
3 25 3 118
3 87 108 19
3 57 29 116
3 74 111 63
3 33 81 5
3 5 88 33
3 81 88 5
3 107 25 96
3 93 25 96
3 107 93 96
3 17 70 19
3 17 119 19
3 17 70 119
3 101 80 15
3 101 80 113
3 101 15 113
3 21 99 71
3 99 116 21
3 99 71 116
3 21 116 71
3 25 107 93
3 70 119 19
3 15 113 80
3 81 88 33
3 87 42 13
3 13 111 42
3 13 111 87
3 1 3 76
3 1 3 117
3 1 117 76
3 73 83 37
3 37 83 112
3 37 112 73
3 11 47 72
3 47 118 72
3 72 118 11
3 78 40 84
3 40 115 78
3 84 115 78
3 84 115 40
3 47 11 118
3 42 111 87
3 3 117 76
3 83 112 73
3 13 90 15
3 15 94 13
3 90 94 13
3 96 85 76
3 76 108 96
3 85 108 96
3 7 49 99
3 99 7 118
3 49 118 99
3 104 88 10
3 104 10 112
3 104 112 88
3 10 88 112
3 52 74 40
3 52 119 40
3 40 119 74
3 74 119 52
3 7 49 118
3 76 85 108
3 15 90 94
3 79 44 96
3 96 115 79
3 96 115 44
3 37 86 49
3 49 93 37
3 86 93 37
3 97 47 107
3 47 94 97
3 107 94 97
3 82 104 48
3 48 117 104
3 104 82 117
3 82 117 48
3 21 80 42
3 80 119 21
3 21 42 119
3 47 107 94
3 42 119 80
3 79 44 115
3 49 86 93
3 1 87 56
3 56 112 1
3 87 112 1
3 14 64 75
3 64 110 14
3 75 110 14
3 34 11 74
3 34 11 114
3 34 114 74
3 60 7 41
3 60 118 7
3 60 118 41
3 72 59 18
3 18 116 72
3 59 116 72
3 18 116 59
3 56 112 87
3 7 41 118
3 64 75 110
3 11 114 74
3 14 15 68
3 14 94 15
3 68 94 14
3 97 65 55
3 65 116 97
3 97 55 116
3 107 7 103
3 103 92 7
3 103 107 92
3 2 81 98
3 2 114 98
3 2 81 114
3 81 114 98
3 56 79 48
3 48 56 119
3 79 119 48
3 79 119 56
3 7 92 107
3 65 116 55
3 15 68 94
3 20 49 61
3 20 49 93
3 20 61 93
3 105 33 47
3 105 47 118
3 33 118 105
3 57 77 101
3 101 57 109
3 77 109 101
3 51 89 99
3 99 111 51
3 99 111 89
3 89 111 51
3 10 30 76
3 30 119 10
3 76 119 10
3 30 119 76
3 47 118 33
3 57 109 77
3 61 93 49
3 1 77 44
3 1 92 44
3 1 77 92
3 74 91 97
3 97 74 111
3 97 91 111
3 104 38 15
3 38 118 104
3 104 15 118
3 40 93 98
3 40 110 98
3 93 110 98
3 40 110 93
3 18 19 83
3 18 19 119
3 83 119 18
3 19 83 119
3 15 118 38
3 74 91 111
3 44 92 77
3 59 79 58
3 79 115 58
3 58 115 59
3 60 75 70
3 60 114 70
3 75 114 60
3 84 80 67
3 80 113 67
3 67 84 113
3 73 69 72
3 72 69 117
3 72 73 117
3 78 65 63
3 78 65 116
3 63 116 78
3 69 73 117
3 80 113 84
3 70 75 114
3 79 115 59
3 65 116 63
3 58 71 77
3 71 92 58
3 77 92 58
3 105 82 74
3 74 114 105
3 105 82 114
3 69 108 99
3 69 94 99
3 94 108 99
3 52 61 95
3 52 116 95
3 95 61 116
3 25 64 80
3 25 80 119
3 64 119 25
3 69 108 94
3 52 61 116
3 80 119 64
3 82 114 74
3 71 77 92
3 105 109 65
3 65 93 105
3 105 93 109
3 67 90 68
3 68 94 67
3 67 90 94
3 102 76 71
3 102 117 76
3 71 117 102
3 30 91 95
3 95 115 30
3 91 115 95
3 70 83 53
3 53 70 119
3 83 119 53
3 30 91 115
3 83 119 70
3 76 117 71
3 65 93 109
3 68 94 90
3 55 89 34
3 34 85 55
3 34 89 85
3 103 61 83
3 103 83 112
3 103 112 61
3 102 18 109
3 102 94 18
3 109 94 102
3 28 64 42
3 42 119 28
3 28 64 119
3 53 44 98
3 98 53 118
3 98 118 44
3 94 109 18
3 53 118 44
3 42 119 64
3 83 112 61
3 55 89 85
3 60 61 86
3 61 93 60
3 60 86 93
3 79 88 102
3 102 79 110
3 102 110 88
3 98 68 57
3 57 116 98
3 68 116 98
3 95 56 85
3 95 113 56
3 95 113 85
3 38 74 69
3 38 119 69
3 69 74 119
3 56 113 85
3 74 119 38
3 57 116 68
3 88 110 79
3 86 93 61
3 17 41 81
3 17 113 41
3 81 113 17
3 3 71 2
3 3 117 2
3 2 117 71
3 11 82 35
3 35 114 11
3 35 82 114
3 29 68 48
3 29 116 48
3 48 68 116
3 22 86 21
3 21 115 22
3 21 86 115
3 22 86 115
3 3 71 117
3 68 116 29
3 82 114 11
3 41 113 81
3 17 73 61
3 17 112 73
3 61 112 17
3 51 3 88
3 3 110 51
3 51 88 110
3 63 55 10
3 63 116 10
3 10 116 55
3 25 77 6
3 25 114 6
3 25 77 114
3 6 77 114
3 22 15 52
3 52 22 118
3 15 118 52
3 22 118 15
3 3 110 88
3 63 116 55
3 73 112 61
3 99 81 83
3 99 83 113
3 81 113 99
3 78 82 89
3 78 82 85
3 85 89 78
3 70 92 104
3 104 111 70
3 104 111 92
3 95 90 19
3 19 117 95
3 95 117 90
3 19 117 90
3 47 79 57
3 47 119 57
3 47 119 79
3 57 79 119
3 92 111 70
3 83 113 81
3 85 89 82
3 59 44 51
3 59 115 51
3 51 44 115
3 35 63 91
3 35 111 63
3 91 111 35
3 28 89 29
3 28 29 112
3 28 89 112
3 53 90 6
3 6 117 53
3 90 117 53
3 30 41 49
3 49 118 30
3 30 118 41
3 6 117 90
3 29 89 112
3 63 111 91
3 49 41 118
3 59 115 44
3 72 81 91
3 72 88 81
3 72 88 91
3 86 64 104
3 64 115 104
3 104 115 86
3 98 89 80
3 80 112 98
3 98 112 89
3 95 77 42
3 42 114 95
3 95 114 77
3 80 89 112
3 7 65 76
3 7 119 76
3 7 119 65
3 77 114 42
3 76 119 65
3 64 115 86
3 91 88 81
3 2 59 85
3 2 59 108
3 2 108 85
3 28 84 15
3 28 113 15
3 28 84 113
3 18 22 92
3 22 111 18
3 111 92 18
3 38 6 61
3 38 6 116
3 6 116 61
3 56 33 11
3 56 33 118
3 56 118 11
3 22 92 111
3 61 116 38
3 33 118 11
3 59 108 85
3 84 113 15
3 11 109 10
3 10 11 93
3 10 109 93
3 75 90 21
3 75 110 21
3 90 110 21
3 40 33 73
3 40 117 33
3 40 117 73
3 47 6 85
3 6 113 47
3 6 85 113
3 29 44 19
3 29 118 19
3 44 118 19
3 47 113 85
3 73 117 33
3 44 118 29
3 93 109 11
3 90 110 75
3 48 84 77
3 84 109 48
3 48 109 77
3 41 108 40
3 41 94 40
3 40 94 108
3 75 49 18
3 18 49 114
3 18 75 114
3 6 91 7
3 7 115 6
3 6 91 115
3 91 115 7
3 3 55 42
3 3 118 42
3 42 55 118
3 55 3 118
3 75 114 49
3 41 94 108
3 77 109 84
3 25 68 87
3 25 68 111
3 25 87 111
3 73 107 30
3 30 73 92
3 30 92 107
3 29 93 69
3 69 110 29
3 69 110 93
3 22 82 57
3 22 117 57
3 22 82 117
3 82 117 57
3 59 33 70
3 70 33 116
3 70 116 59
3 33 59 116
3 29 110 93
3 92 107 73
3 68 111 87
3 87 86 53
3 53 108 87
3 86 108 53
3 69 55 84
3 55 115 69
3 69 84 115
3 63 107 56
3 56 63 94
3 56 94 107
3 65 22 88
3 65 112 22
3 22 88 112
3 41 71 64
3 41 116 64
3 64 116 71
3 65 88 112
3 94 107 63
3 55 115 84
3 71 116 41
3 86 87 108
3 52 107 75
3 52 75 89
3 52 107 89
3 87 71 47
3 47 112 71
3 47 87 112
3 80 63 49
3 63 117 80
3 80 117 49
3 70 109 3
3 3 94 70
3 70 109 94
3 94 109 3
3 76 81 29
3 76 29 114
3 76 114 81
3 81 114 29
3 49 63 117
3 87 112 71
3 75 107 89
3 19 84 107
3 84 88 19
3 19 88 107
3 11 92 80
3 80 11 108
3 80 92 108
3 7 87 82
3 82 110 7
3 7 87 110
3 3 74 86
3 3 113 74
3 86 113 3
3 79 15 73
3 79 114 73
3 15 114 79
3 11 108 92
3 74 86 113
3 15 114 73
3 84 107 88
3 82 110 87
3 87 81 38
3 38 109 87
3 38 109 81
3 42 59 107
3 42 93 59
3 42 93 107
3 41 89 79
3 79 41 111
3 79 111 89
3 65 44 75
3 65 113 44
3 65 75 113
3 83 68 11
3 83 115 11
3 68 115 11
3 83 68 115
3 41 111 89
3 59 107 93
3 75 113 44
3 87 109 81
3 75 91 57
3 57 75 108
3 57 91 108
3 76 84 61
3 76 111 84
3 76 111 61
3 64 85 73
3 73 109 64
3 109 85 64
3 83 77 63
3 83 63 110
3 63 77 110
3 83 110 77
3 59 90 74
3 59 112 74
3 74 112 90
3 59 90 112
3 73 85 109
3 91 108 75
3 61 111 84
3 86 77 33
3 86 89 33
3 33 77 89
3 68 85 49
3 68 49 88
3 49 88 85
3 55 90 81
3 55 92 81
3 90 55 92
3 71 15 91
3 15 71 93
3 91 93 71
3 82 61 44
3 44 94 82
3 61 94 44
3 93 91 15
3 88 85 68
3 61 94 82
3 90 81 92
3 77 89 86

# Cells
20 0 1 2 3 4 5 6 7 8 9 10 11 12 13 14 15 16 17 18 19
20 20 21 22 23 24 25 26 27 28 29 30 31 32 33 34 35 36 37 38 39
20 40 41 42 43 44 45 46 47 48 49 50 51 52 53 54 55 56 57 58 59
20 60 61 62 63 64 65 66 67 68 69 70 71 72 73 74 75 76 77 78 79
20 80 81 82 83 84 85 86 87 88 89 90 91 92 93 94 95 96 97 98 99
20 100 101 102 103 104 105 106 107 108 109 110 111 112 113 114 115 116 117 118 119
20 120 121 122 123 124 125 126 127 128 129 130 131 132 133 134 135 136 137 138 139
20 140 141 142 143 144 145 146 147 148 149 150 151 152 153 154 155 156 157 158 159
20 160 161 162 163 164 165 166 167 168 169 170 171 172 173 174 175 176 177 178 179
20 180 181 182 183 184 185 186 187 188 189 190 191 192 193 194 195 196 197 198 199
20 200 201 202 203 204 205 206 207 208 209 210 211 212 213 214 215 216 217 218 219
20 220 221 222 223 224 225 226 227 228 229 230 231 232 233 234 235 236 237 238 239
20 240 241 242 243 244 245 246 247 248 249 250 251 252 253 254 255 256 257 258 259
20 260 261 262 263 264 265 266 267 268 269 270 271 272 273 274 275 276 277 278 279
20 280 281 282 283 284 285 286 287 288 289 290 291 292 293 294 295 296 297 298 299
20 300 301 302 303 304 305 306 307 308 309 310 311 312 313 314 315 316 317 318 319
20 320 321 322 323 324 325 326 327 328 329 330 331 332 333 334 335 336 337 338 339
20 340 341 342 343 344 345 346 347 348 349 350 351 352 353 354 355 356 357 358 359
20 360 361 362 363 364 365 366 367 368 369 370 371 372 373 374 375 376 377 378 379
20 380 381 382 383 384 385 386 387 388 389 390 391 392 393 394 395 396 397 398 399
20 400 401 402 403 404 405 406 407 408 409 410 411 412 413 414 415 416 417 418 419
20 420 421 422 423 424 425 426 427 428 429 430 431 432 433 434 435 436 437 438 439
20 440 441 442 443 444 445 446 447 448 449 450 451 452 453 454 455 456 457 458 459
20 460 461 462 463 464 465 466 467 468 469 470 471 472 473 474 475 476 477 478 479
20 480 481 482 483 484 485 486 487 488 489 490 491 492 493 494 495 496 497 498 499
20 500 501 502 503 504 505 506 507 508 509 510 511 512 513 514 515 516 517 518 519
20 520 521 522 523 524 525 526 527 528 529 530 531 532 533 534 535 536 537 538 539
20 540 541 542 543 544 545 546 547 548 549 550 551 552 553 554 555 556 557 558 559
20 560 561 562 563 564 565 566 567 568 569 570 571 572 573 574 575 576 577 578 579
20 580 581 582 583 584 585 586 587 588 589 590 591 592 593 594 595 596 597 598 599
20 600 601 602 603 604 605 606 607 608 609 610 611 612 613 614 615 616 617 618 619
20 620 621 622 623 624 625 626 627 628 629 630 631 632 633 634 635 636 637 638 639
20 640 641 642 643 644 645 646 647 648 649 650 651 652 653 654 655 656 657 658 659
20 660 661 662 663 664 665 666 667 668 669 670 671 672 673 674 675 676 677 678 679
20 680 681 682 683 684 685 686 687 688 689 690 691 692 693 694 695 696 697 698 699
20 700 701 702 703 704 705 706 707 708 709 710 711 712 713 714 715 716 717 718 719
20 720 721 722 723 724 725 726 727 728 729 730 731 732 733 734 735 736 737 738 739
20 740 741 742 743 744 745 746 747 748 749 750 751 752 753 754 755 756 757 758 759
20 760 761 762 763 764 765 766 767 768 769 770 771 772 773 774 775 776 777 778 779
20 780 781 782 783 784 785 786 787 788 789 790 791 792 793 794 795 796 797 798 799
20 800 801 802 803 804 805 806 807 808 809 810 811 812 813 814 815 816 817 818 819
20 820 821 822 823 824 825 826 827 828 829 830 831 832 833 834 835 836 837 838 839
20 840 841 842 843 844 845 846 847 848 849 850 851 852 853 854 855 856 857 858 859
20 860 861 862 863 864 865 866 867 868 869 870 871 872 873 874 875 876 877 878 879
20 880 881 882 883 884 885 886 887 888 889 890 891 892 893 894 895 896 897 898 899
20 900 901 902 903 904 905 906 907 908 909 910 911 912 913 914 915 916 917 918 919
20 920 921 922 923 924 925 926 927 928 929 930 931 932 933 934 935 936 937 938 939
20 940 941 942 943 944 945 946 947 948 949 950 951 952 953 954 955 956 957 958 959
20 960 961 962 963 964 965 966 967 968 969 970 971 972 973 974 975 976 977 978 979
20 980 981 982 983 984 985 986 987 988 989 990 991 992 993 994 995 996 997 998 999
20 1000 1001 1002 1003 1004 1005 1006 1007 1008 1009 1010 1011 1012 1013 1014 1015 1016 1017 1018 1019
20 1020 1021 1022 1023 1024 1025 1026 1027 1028 1029 1030 1031 1032 1033 1034 1035 1036 1037 1038 1039
20 1040 1041 1042 1043 1044 1045 1046 1047 1048 1049 1050 1051 1052 1053 1054 1055 1056 1057 1058 1059
20 1060 1061 1062 1063 1064 1065 1066 1067 1068 1069 1070 1071 1072 1073 1074 1075 1076 1077 1078 1079
20 1080 1081 1082 1083 1084 1085 1086 1087 1088 1089 1090 1091 1092 1093 1094 1095 1096 1097 1098 1099
20 1100 1101 1102 1103 1104 1105 1106 1107 1108 1109 1110 1111 1112 1113 1114 1115 1116 1117 1118 1119
20 1120 1121 1122 1123 1124 1125 1126 1127 1128 1129 1130 1131 1132 1133 1134 1135 1136 1137 1138 1139
20 1140 1141 1142 1143 1144 1145 1146 1147 1148 1149 1150 1151 1152 1153 1154 1155 1156 1157 1158 1159
20 1160 1161 1162 1163 1164 1165 1166 1167 1168 1169 1170 1171 1172 1173 1174 1175 1176 1177 1178 1179
20 1180 1181 1182 1183 1184 1185 1186 1187 1188 1189 1190 1191 1192 1193 1194 1195 1196 1197 1198 1199
20 1200 1201 1202 1203 1204 1205 1206 1207 1208 1209 1210 1211 1212 1213 1214 1215 1216 1217 1218 1219
20 1220 1221 1222 1223 1224 1225 1226 1227 1228 1229 1230 1231 1232 1233 1234 1235 1236 1237 1238 1239
20 1240 1241 1242 1243 1244 1245 1246 1247 1248 1249 1250 1251 1252 1253 1254 1255 1256 1257 1258 1259
20 1260 1261 1262 1263 1264 1265 1266 1267 1268 1269 1270 1271 1272 1273 1274 1275 1276 1277 1278 1279
20 1280 1281 1282 1283 1284 1285 1286 1287 1288 1289 1290 1291 1292 1293 1294 1295 1296 1297 1298 1299
20 1300 1301 1302 1303 1304 1305 1306 1307 1308 1309 1310 1311 1312 1313 1314 1315 1316 1317 1318 1319
20 1320 1321 1322 1323 1324 1325 1326 1327 1328 1329 1330 1331 1332 1333 1334 1335 1336 1337 1338 1339
20 1340 1341 1342 1343 1344 1345 1346 1347 1348 1349 1350 1351 1352 1353 1354 1355 1356 1357 1358 1359
20 1360 1361 1362 1363 1364 1365 1366 1367 1368 1369 1370 1371 1372 1373 1374 1375 1376 1377 1378 1379
20 1380 1381 1382 1383 1384 1385 1386 1387 1388 1389 1390 1391 1392 1393 1394 1395 1396 1397 1398 1399
20 1400 1401 1402 1403 1404 1405 1406 1407 1408 1409 1410 1411 1412 1413 1414 1415 1416 1417 1418 1419
20 1420 1421 1422 1423 1424 1425 1426 1427 1428 1429 1430 1431 1432 1433 1434 1435 1436 1437 1438 1439
20 1440 1441 1442 1443 1444 1445 1446 1447 1448 1449 1450 1451 1452 1453 1454 1455 1456 1457 1458 1459
20 1460 1461 1462 1463 1464 1465 1466 1467 1468 1469 1470 1471 1472 1473 1474 1475 1476 1477 1478 1479
20 1480 1481 1482 1483 1484 1485 1486 1487 1488 1489 1490 1491 1492 1493 1494 1495 1496 1497 1498 1499
20 1500 1501 1502 1503 1504 1505 1506 1507 1508 1509 1510 1511 1512 1513 1514 1515 1516 1517 1518 1519
20 1520 1521 1522 1523 1524 1525 1526 1527 1528 1529 1530 1531 1532 1533 1534 1535 1536 1537 1538 1539
20 1540 1541 1542 1543 1544 1545 1546 1547 1548 1549 1550 1551 1552 1553 1554 1555 1556 1557 1558 1559
20 1560 1561 1562 1563 1564 1565 1566 1567 1568 1569 1570 1571 1572 1573 1574 1575 1576 1577 1578 1579
20 1580 1581 1582 1583 1584 1585 1586 1587 1588 1589 1590 1591 1592 1593 1594 1595 1596 1597 1598 1599
20 1600 1601 1602 1603 1604 1605 1606 1607 1608 1609 1610 1611 1612 1613 1614 1615 1616 1617 1618 1619
20 1620 1621 1622 1623 1624 1625 1626 1627 1628 1629 1630 1631 1632 1633 1634 1635 1636 1637 1638 1639
20 1640 1641 1642 1643 1644 1645 1646 1647 1648 1649 1650 1651 1652 1653 1654 1655 1656 1657 1658 1659
20 1660 1661 1662 1663 1664 1665 1666 1667 1668 1669 1670 1671 1672 1673 1674 1675 1676 1677 1678 1679
20 1680 1681 1682 1683 1684 1685 1686 1687 1688 1689 1690 1691 1692 1693 1694 1695 1696 1697 1698 1699
20 1700 1701 1702 1703 1704 1705 1706 1707 1708 1709 1710 1711 1712 1713 1714 1715 1716 1717 1718 1719
20 1720 1721 1722 1723 1724 1725 1726 1727 1728 1729 1730 1731 1732 1733 1734 1735 1736 1737 1738 1739
20 1740 1741 1742 1743 1744 1745 1746 1747 1748 1749 1750 1751 1752 1753 1754 1755 1756 1757 1758 1759
20 1760 1761 1762 1763 1764 1765 1766 1767 1768 1769 1770 1771 1772 1773 1774 1775 1776 1777 1778 1779
20 1780 1781 1782 1783 1784 1785 1786 1787 1788 1789 1790 1791 1792 1793 1794 1795 1796 1797 1798 1799
20 1800 1801 1802 1803 1804 1805 1806 1807 1808 1809 1810 1811 1812 1813 1814 1815 1816 1817 1818 1819
20 1820 1821 1822 1823 1824 1825 1826 1827 1828 1829 1830 1831 1832 1833 1834 1835 1836 1837 1838 1839
20 1840 1841 1842 1843 1844 1845 1846 1847 1848 1849 1850 1851 1852 1853 1854 1855 1856 1857 1858 1859
20 1860 1861 1862 1863 1864 1865 1866 1867 1868 1869 1870 1871 1872 1873 1874 1875 1876 1877 1878 1879
20 1880 1881 1882 1883 1884 1885 1886 1887 1888 1889 1890 1891 1892 1893 1894 1895 1896 1897 1898 1899
20 1900 1901 1902 1903 1904 1905 1906 1907 1908 1909 1910 1911 1912 1913 1914 1915 1916 1917 1918 1919
20 1920 1921 1922 1923 1924 1925 1926 1927 1928 1929 1930 1931 1932 1933 1934 1935 1936 1937 1938 1939
20 1940 1941 1942 1943 1944 1945 1946 1947 1948 1949 1950 1951 1952 1953 1954 1955 1956 1957 1958 1959
20 1960 1961 1962 1963 1964 1965 1966 1967 1968 1969 1970 1971 1972 1973 1974 1975 1976 1977 1978 1979
20 1980 1981 1982 1983 1984 1985 1986 1987 1988 1989 1990 1991 1992 1993 1994 1995 1996 1997 1998 1999
20 2000 2001 2002 2003 2004 2005 2006 2007 2008 2009 2010 2011 2012 2013 2014 2015 2016 2017 2018 2019
20 2020 2021 2022 2023 2024 2025 2026 2027 2028 2029 2030 2031 2032 2033 2034 2035 2036 2037 2038 2039
20 2040 2041 2042 2043 2044 2045 2046 2047 2048 2049 2050 2051 2052 2053 2054 2055 2056 2057 2058 2059
20 2060 2061 2062 2063 2064 2065 2066 2067 2068 2069 2070 2071 2072 2073 2074 2075 2076 2077 2078 2079
20 2080 2081 2082 2083 2084 2085 2086 2087 2088 2089 2090 2091 2092 2093 2094 2095 2096 2097 2098 2099
20 2100 2101 2102 2103 2104 2105 2106 2107 2108 2109 2110 2111 2112 2113 2114 2115 2116 2117 2118 2119
20 2120 2121 2122 2123 2124 2125 2126 2127 2128 2129 2130 2131 2132 2133 2134 2135 2136 2137 2138 2139
20 2140 2141 2142 2143 2144 2145 2146 2147 2148 2149 2150 2151 2152 2153 2154 2155 2156 2157 2158 2159
20 2160 2161 2162 2163 2164 2165 2166 2167 2168 2169 2170 2171 2172 2173 2174 2175 2176 2177 2178 2179
20 2180 2181 2182 2183 2184 2185 2186 2187 2188 2189 2190 2191 2192 2193 2194 2195 2196 2197 2198 2199
20 2200 2201 2202 2203 2204 2205 2206 2207 2208 2209 2210 2211 2212 2213 2214 2215 2216 2217 2218 2219
20 2220 2221 2222 2223 2224 2225 2226 2227 2228 2229 2230 2231 2232 2233 2234 2235 2236 2237 2238 2239
20 2240 2241 2242 2243 2244 2245 2246 2247 2248 2249 2250 2251 2252 2253 2254 2255 2256 2257 2258 2259
20 2260 2261 2262 2263 2264 2265 2266 2267 2268 2269 2270 2271 2272 2273 2274 2275 2276 2277 2278 2279
20 2280 2281 2282 2283 2284 2285 2286 2287 2288 2289 2290 2291 2292 2293 2294 2295 2296 2297 2298 2299
20 2300 2301 2302 2303 2304 2305 2306 2307 2308 2309 2310 2311 2312 2313 2314 2315 2316 2317 2318 2319
20 2320 2321 2322 2323 2324 2325 2326 2327 2328 2329 2330 2331 2332 2333 2334 2335 2336 2337 2338 2339
20 2340 2341 2342 2343 2344 2345 2346 2347 2348 2349 2350 2351 2352 2353 2354 2355 2356 2357 2358 2359
20 2360 2361 2362 2363 2364 2365 2366 2367 2368 2369 2370 2371 2372 2373 2374 2375 2376 2377 2378 2379
20 2380 2381 2382 2383 2384 2385 2386 2387 2388 2389 2390 2391 2392 2393 2394 2395 2396 2397 2398 2399
20 30 81 170 204 220 253 401 564 640 930 980 1049 1061 1106 1143 1420 1443 1626 1672 1693
20 3 49 113 120 213 301 421 649 660 727 840 869 923 989 1203 1426 1452 1466 1489 1513
20 24 72 130 190 232 324 441 580 666 724 846 913 1003 1129 1283 1425 1449 1566 1666 1712
20 43 92 144 163 186 312 467 589 680 750 823 901 1012 1023 1369 1433 1440 1492 1632 1652
20 13 60 100 150 241 330 484 560 689 741 829 880 1067 1103 1309 1429 1446 1469 1572 1589
20 21 93 261 313 327 349 704 820 847 922 1073 1207 1263 1300 1349 1424 1460 1729 1769 1792
20 31 47 147 254 287 344 433 450 590 643 863 1165 1226 1286 1323 1434 1463 1569 1772 1812
20 73 87 129 207 269 283 464 491 563 583 886 1170 1220 1249 1363 1421 1472 1483 1726 1753
20 1 74 233 271 310 381 701 754 990 1001 1065 1147 1360 1409 1428 1543 1623 1826 1863 1893
20 51 70 214 250 370 389 453 471 664 690 1026 1123 1174 1383 1431 1529 1629 1663 1869 1913
20 14 27 151 181 267 366 410 431 566 667 1043 1167 1206 1240 1392 1423 1486 1620 1832 1846
20 15 41 167 331 341 367 711 722 934 1013 1040 1101 1287 1435 1546 1600 1660 1872 1926 1993
20 7 94 124 187 350 384 413 487 650 687 1146 1161 1303 1326 1427 1520 1560 1669 1929 1953
20 115 141 161 215 347 390 407 482 1071 1201 1227 1340 1370 1380 1436 1547 1720 1823 2009 2032
20 133 152 304 332 368 387 445 473 870 883 908 1244 1327 1410 1437 1603 1723 1766 2012 2052
20 32 64 110 171 286 361 713 730 830 860 904 983 1027 1266 1403 1430 1480 1732 1820 1973
20 50 84 114 227 281 391 707 748 844 887 910 1107 1120 1343 1422 1563 1606 1760 1932 2069
20 104 131 234 244 270 364 405 427 928 1224 1267 1280 1310 1432 1530 1540 1763 1920 2000 2092
20 188 201 224 290 314 351 425 447 735 1021 1050 1250 1260 1438 1523 1607 1829 1866 2003 2153
20 172 184 255 264 288 321 461 495 745 1130 1141 1321 1350 1393 1400 1439 1860 1923 2006 2193
20 4 206 240 260 343 420 490 520 549 920 946 1046 1066 1080 1152 1163 1180 1386 1532 1552
20 23 123 203 340 369 412 440 503 609 720 812 866 929 943 1172 1186 1212 1232 1253 1272
20 44 121 180 284 360 429 466 543 629 726 803 903 966 1126 1169 1183 1289 1332 1526 1613
20 61 146 189 280 383 449 483 529 603 746 783 912 960 1029 1160 1192 1246 1366 1389 1413
20 80 143 249 266 380 400 469 512 620 749 780 889 1063 1089 1166 1189 1229 1306 1329 1352
20 430 481 567 607 630 641 761 784 801 927 1062 1162 1200 1223 1304 1509 1583 1746 1789 1806
20 414 462 547 561 610 686 742 767 941 967 1070 1140 1171 1364 1381 1643 1689 1849 1886 1909
20 404 451 530 633 645 661 734 764 925 964 1044 1090 1168 1281 1524 1683 1709 1900 1949 1986
20 2 90 148 211 502 531 644 684 1074 1176 1213 1361 1461 1587 1630 1680 1740 1843 2103 2133
20 54 65 125 154 611 628 670 688 862 890 917 1175 1487 1564 1640 1710 1750 1803 2109 2172
20 424 470 513 533 581 663 725 770 787 864 907 947 1020 1164 1243 1503 1646 1743 1852 1963
20 444 492 507 550 584 681 744 773 813 884 902 1084 1124 1173 1320 1586 1700 1809 1943 2072
20 12 22 127 251 514 542 570 665 936 1177 1290 1301 1473 1500 1661 1690 1800 1940 2112 2212
20 36 42 194 208 551 585 602 647 731 1030 1041 1179 1481 1510 1670 1703 1840 1906 2106 2232
20 67 85 182 247 524 568 587 631 756 1122 1153 1178 1570 1581 1624 1647 1903 1946 2100 2253
20 101 164 221 300 323 723 740 786 800 900 924 940 963 1060 1083 1269 1346 1406 1549 1609
20 20 46 226 303 363 432 443 540 606 669 703 772 909 926 952 972 986 1009 1032 1053
20 63 86 160 326 386 463 480 532 626 683 712 760 906 969 1006 1072 1086 1112 1133 1149
20 504 521 544 604 621 721 747 821 843 905 921 984 1000 1064 1100 1506 1592 1649 1686 1706
20 468 494 501 613 702 804 825 881 911 953 1068 1181 1344 1362 1401 1751 1783 1969 2029 2046
20 422 448 511 627 714 793 841 861 914 935 1081 1193 1261 1284 1601 1786 1801 2049 2063 2086
20 68 82 107 305 774 782 850 885 915 981 1077 1367 1450 1580 1644 1721 1787 1960 2126 2169
20 34 45 105 334 765 805 824 867 916 932 1113 1282 1444 1504 1704 1767 1780 2066 2160 2209
20 28 128 282 308 437 594 605 807 845 918 1242 1270 1493 1502 1764 1810 1967 2043 2166 2273
20 97 142 293 325 489 582 625 788 827 919 1333 1341 1561 1593 1733 1741 2040 2060 2163 2292
20 40 69 289 309 320 452 460 586 600 632 709 733 753 766 789 809 832 853 873 892
20 0 26 109 223 346 409 423 500 546 646 700 729 769 806 849 1069 1092 1109 1292 1312
20 402 428 527 601 710 728 781 970 982 1042 1075 1184 1204 1264 1541 1844 1889 1966 2023 2149
20 442 474 525 553 708 732 752 944 1005 1024 1093 1121 1190 1404 1604 1883 1907 1989 2140 2189
20 11 25 162 307 736 762 833 945 1004 1047 1076 1202 1447 1501 1684 1830 1880 1970 2129 2226
20 55 62 174 225 737 757 771 962 993 1022 1104 1127 1453 1642 1701 1861 1890 1980 2229 2246
20 78 185 302 375 475 614 662 739 965 1007 1254 1402 1485 1650 1873 1904 1961 2147 2223 2313
20 8 212 231 362 416 545 673 738 951 985 1522 1550 1667 1682 1825 1853 1984 2144 2221 2332
20 6 83 103 166 263 403 486 506 523 569 706 743 763 792 826 933 949 992 1209 1373
20 408 485 541 624 705 755 810 931 961 1105 1144 1187 1302 1342 1544 1947 1983 2067 2089 2183
20 5 91 230 322 751 768 842 937 1010 1082 1142 1307 1441 1584 1681 1921 1990 2061 2203 2249
20 52 195 336 382 457 622 695 759 974 1002 1325 1573 1610 1705 1867 1910 2064 2180 2244 2349
20 16 165 245 393 415 528 682 758 1085 1111 1390 1542 1621 1687 1881 1933 1941 2187 2240 2329
20 132 140 183 200 243 406 426 446 472 493 509 526 552 572 593 612 623 652 672 693
20 411 435 454 465 488 790 808 950 973 1087 1222 1241 1324 1385 1521 2027 2041 2083 2146 2186
20 35 102 202 273 434 510 562 942 987 1078 1230 1262 1464 1507 1781 1827 1841 2026 2120 2269
20 122 156 265 355 436 496 508 1185 1205 1247 1313 1322 1471 1744 1804 2004 2021 2090 2260 2289
20 149 216 294 365 438 479 608 874 1025 1191 1225 1387 1490 1742 1850 2007 2050 2143 2266 2303
20 117 311 345 377 439 715 811 865 948 1211 1545 1614 1761 1790 1833 1962 2081 2141 2264 2373
20 56 134 222 354 455 554 642 802 854 939 1533 1605 1665 1707 1770 1805 1981 2084 2200 2352
20 88 108 248 342 497 505 653 938 1088 1102 1221 1347 1467 1582 1784 1924 1950 2080 2206 2283
20 137 242 291 397 456 499 634 882 1134 1182 1233 1525 1568 1807 1942 2010 2044 2190 2280 2346
20 112 274 335 385 498 719 785 893 1094 1305 1405 1553 1727 1782 1928 2024 2073 2182 2287 2363
20 71 155 175 262 476 522 573 791 822 1079 1384 1407 1627 1641 1724 1747 1884 2020 2123 2306
20 196 205 277 388 417 477 534 1145 1188 1245 1374 1527 1634 1842 1901 2001 2030 2181 2310 2326
20 168 285 317 394 478 718 794 968 1033 1353 1365 1602 1731 1870 1882 1964 2045 2184 2301 2369
20 10 33 53 66 89 106 126 153 173 193 210 229 246 272 292 306 333 353 374 392
20 9 29 48 75 95 828 855 988 1008 1110 1465 1484 1562 1622 1664 2124 2167 2207 2220 2243
20 37 96 111 136 145 574 648 1210 1234 1308 1442 1482 1567 1725 1762 2101 2130 2201 2267 2286
20 38 76 157 209 315 588 674 868 1034 1248 1445 1470 1625 1730 1824 2113 2164 2230 2263 2309
20 39 515 616 654 668 778 848 876 994 1208 1694 1702 1785 1813 1851 1974 2204 2225 2261 2392
20 191 257 348 376 418 458 548 1054 1194 1285 1330 1382 1674 1905 1944 2013 2082 2150 2323 2340
20 176 228 268 356 419 716 954 1045 1091 1150 1273 1345 1821 1887 1930 1982 2022 2087 2321 2366
20 58 98 135 256 328 595 685 895 1128 1331 1454 1462 1673 1765 1927 2107 2170 2241 2290 2343
20 99 517 565 635 697 775 834 888 1108 1314 1653 1685 1745 1793 1954 2065 2122 2247 2282 2389
20 237 297 329 371 459 717 814 971 1125 1265 1293 1414 1774 1865 1987 2047 2062 2145 2344 2360
20 17 77 169 192 218 571 694 1151 1368 1388 1451 1491 1662 1822 1868 2110 2121 2250 2300 2324
20 79 538 596 615 691 776 831 1011 1028 1375 1585 1713 1755 1894 1902 1968 2162 2242 2304 2386
20 18 57 197 235 252 656 671 1048 1294 1448 1528 1565 1633 1864 1925 2104 2210 2224 2320 2347
20 19 535 556 577 651 777 991 1055 1114 1148 1505 1590 1847 1885 1945 1994 2128 2202 2327 2380
20 59 555 591 637 676 779 851 1014 1135 1288 1514 1645 1808 1915 1985 2070 2165 2227 2342 2383
20 116 159 275 296 316 836 891 1348 1376 1415 1468 1488 1773 1831 2002 2134 2161 2281 2314 2367
20 158 518 575 592 618 795 894 1228 1255 1371 1591 1651 1802 1848 2025 2053 2108 2284 2302 2384
20 118 138 295 338 352 852 875 1274 1291 1474 1574 1611 1722 1931 2008 2174 2205 2270 2341 2370
20 119 516 797 815 835 857 1214 1268 1311 1354 1515 1588 1965 2034 2071 2085 2125 2213 2362 2388
20 139 519 597 636 655 817 871 1231 1297 1328 1508 1714 1754 1948 2048 2093 2105 2265 2350 2381
20 177 217 276 319 372 995 1057 1215 1271 1494 1554 1631 1728 1862 2014 2127 2233 2262 2330 2361
20 219 537 576 617 677 957 1051 1217 1251 1391 1517 1688 1752 1914 2033 2102 2142 2274 2322 2390
20 178 198 236 373 396 1016 1031 1136 1408 1616 1628 1671 1834 1922 2011 2228 2254 2305 2353 2364
20 179 539 955 977 997 1015 1154 1372 1417 1548 1648 1696 1975 1988 2028 2135 2194 2245 2375 2385
20 199 536 558 675 692 975 1037 1131 1395 1534 1656 1708 1845 1955 2114 2155 2185 2308 2345 2393
20 238 258 337 357 398 1116 1155 1316 1356 1551 1571 1668 1768 1871 2005 2214 2248 2293 2328 2374
20 259 557 639 657 696 1095 1157 1315 1335 1531 1594 1695 1814 1908 2088 2111 2195 2288 2334 2387
20 318 619 796 837 872 956 996 1035 1276 1411 1511 1654 1794 1888 2042 2154 2173 2222 2365 2382
20 239 559 976 1017 1052 1098 1115 1295 1557 1608 1691 1717 1895 2074 2096 2148 2208 2234 2372 2395
20 278 298 358 378 395 1235 1256 1334 1396 1535 1734 1771 1828 1874 1934 2275 2285 2307 2333 2351
20 279 798 959 1195 1216 1237 1351 1377 1394 1556 1757 1788 1854 1896 2094 2131 2191 2294 2325 2397
20 299 799 816 877 896 1196 1252 1337 1412 1612 1748 1816 1976 2068 2151 2171 2197 2311 2355 2391
20 339 638 818 856 897 1096 1117 1132 1355 1597 1615 1711 1791 1995 2054 2168 2188 2255 2368 2394
20 359 819 1097 1199 1236 1275 1296 1318 1537 1555 1797 1811 1956 1991 2031 2156 2216 2268 2336 2396
20 578 598 658 678 698 1476 1495 1576 1635 1676 1749 1815 1855 1912 1951 2271 2298 2316 2331 2354
20 579 839 998 1218 1378 1457 1475 1595 1637 1692 1735 1796 1836 1892 2036 2211 2256 2291 2337 2371
20 379 958 979 1036 1056 1197 1257 1277 1536 1617 1857 1911 1971 1996 2056 2091 2235 2272 2348 2398
20 599 838 859 878 898 1455 1497 1575 1655 1715 1736 1775 1972 2055 2076 2237 2251 2317 2356 2376
20 399 978 1099 1137 1156 1198 1336 1357 1397 1416 1891 1917 1952 2037 2051 2077 2252 2295 2315 2399
20 659 858 1119 1298 1317 1456 1478 1512 1675 1697 1777 1795 1935 1997 2095 2136 2231 2276 2335 2379
20 679 999 1018 1038 1058 1458 1496 1516 1677 1716 1835 1876 1977 1992 2152 2175 2217 2277 2358 2377
20 699 1019 1118 1138 1158 1459 1578 1596 1636 1657 1875 1897 1937 2075 2132 2178 2196 2297 2312 2378
20 879 1219 1239 1258 1278 1477 1499 1518 1776 1817 1838 1856 2015 2097 2117 2157 2215 2236 2339 2357
20 899 1238 1319 1338 1358 1479 1577 1598 1738 1756 1936 1958 2019 2035 2115 2138 2198 2258 2318 2338
20 1039 1259 1379 1398 1418 1498 1638 1658 1737 1758 1878 1916 2017 2057 2116 2176 2192 2257 2296 2359
20 1059 1159 1399 1538 1558 1639 1679 1698 1837 1858 1939 1957 2016 2038 2098 2118 2137 2219 2278 2299
20 1139 1299 1339 1539 1579 1618 1678 1718 1779 1818 1877 1918 2018 2058 2119 2158 2179 2238 2279 2319
20 1279 1359 1419 1559 1619 1739 1778 1798 1839 1879 1898 1938 1978 1998 2078 2139 2177 2218 2239 2259
20 1519 1599 1659 1699 1719 1759 1799 1819 1859 1899 1919 1959 1979 1999 2039 2059 2079 2099 2159 2199
