# Generated using Miratope v0.5.0 (https://github.com/galoomba1/miratope-rs)
4OFF

# Vertices, Faces, Edges, Cells
120 840 1200 240

# Vertices
-0.809016994374945 -0.809016994374945 -0.809016994374945 -0.809016994374945 
0 -1.61803398874989 0 0 
-1.30901699437495 0 -0.809016994374945 0.5 
0 0.5 -0.809016994374945 -1.30901699437495 
1.30901699437495 -0.809016994374945 0.5 0 
-0.5 -0.809016994374945 0 1.30901699437495 
0.809016994374945 1.30901699437495 0 0.5 
0.809016994374945 0 0.5 1.30901699437495 
1.30901699437495 0.5 0 -0.809016994374945 
-0.5 1.30901699437495 -0.809016994374945 0 
-0.809016994374945 -0.809016994374945 0.809016994374945 0.809016994374945 
-0.809016994374945 -0.809016994374945 -0.809016994374945 0.809016994374945 
0 0.5 0.809016994374945 1.30901699437495 
0 -0.809016994374945 1.30901699437495 -0.5 
0 0.5 -0.809016994374945 1.30901699437495 
0 -0.809016994374945 -1.30901699437495 -0.5 
0.809016994374945 0.5 1.30901699437495 0 
0.809016994374945 0.5 -1.30901699437495 0 
0.5 -0.809016994374945 0 -1.30901699437495 
0.809016994374945 -0.809016994374945 0.809016994374945 -0.809016994374945 
-0.809016994374945 -0.809016994374945 0.809016994374945 -0.809016994374945 
0.809016994374945 -1.30901699437495 0 0.5 
-1.30901699437495 0.5 0 -0.809016994374945 
-0.809016994374945 -1.30901699437495 0 0.5 
1.30901699437495 0 -0.809016994374945 0.5 
0 1.30901699437495 -0.5 -0.809016994374945 
0 0.809016994374945 -1.30901699437495 0.5 
-0.809016994374945 0.809016994374945 -0.809016994374945 -0.809016994374945 
0.5 1.30901699437495 -0.809016994374945 0 
-1.30901699437495 0.809016994374945 0.5 0 
-1.30901699437495 -0.809016994374945 0.5 0 
0.5 -1.30901699437495 -0.809016994374945 0 
0 1.30901699437495 0.5 0.809016994374945 
0 -1.30901699437495 0.5 0.809016994374945 
0.809016994374945 -0.809016994374945 -0.809016994374945 0.809016994374945 
0.809016994374945 -0.809016994374945 -0.809016994374945 -0.809016994374945 
-0.5 0 -1.30901699437495 0.809016994374945 
0.809016994374945 0 0.5 -1.30901699437495 
-0.5 0 -1.30901699437495 -0.809016994374945 
-0.5 1.30901699437495 0.809016994374945 0 
-0.5 0.809016994374945 0 1.30901699437495 
-0.5 0.809016994374945 0 -1.30901699437495 
0 0 1.61803398874989 0 
0.5 -0.809016994374945 0 1.30901699437495 
-1.30901699437495 -0.809016994374945 -0.5 0 
1.30901699437495 0 0.809016994374945 0.5 
0 0.5 0.809016994374945 -1.30901699437495 
0.5 0 -1.30901699437495 -0.809016994374945 
0 -0.809016994374945 -1.30901699437495 0.5 
-0.809016994374945 0 -0.5 -1.30901699437495 
-0.809016994374945 0.809016994374945 0.809016994374945 -0.809016994374945 
0 0 0 -1.61803398874989 
-0.809016994374945 1.30901699437495 0 0.5 
-0.809016994374945 -0.5 1.30901699437495 0 
0 -1.30901699437495 0.5 -0.809016994374945 
-0.809016994374945 0 0.5 1.30901699437495 
0 -0.5 -0.809016994374945 1.30901699437495 
-0.809016994374945 0.809016994374945 -0.809016994374945 0.809016994374945 
-1.61803398874989 0 0 0 
0.5 0 -1.30901699437495 0.809016994374945 
-0.809016994374945 0.5 1.30901699437495 0 
-0.809016994374945 -1.30901699437495 0 -0.5 
1.30901699437495 0.5 0 0.809016994374945 
0 0 0 1.61803398874989 
0.809016994374945 -1.30901699437495 0 -0.5 
-0.5 0 1.30901699437495 0.809016994374945 
0 1.30901699437495 -0.5 0.809016994374945 
0.809016994374945 0 -0.5 -1.30901699437495 
1.61803398874989 0 0 0 
-0.5 0 1.30901699437495 -0.809016994374945 
0 -1.30901699437495 -0.5 -0.809016994374945 
0.809016994374945 -0.5 -1.30901699437495 0 
-1.30901699437495 0.809016994374945 -0.5 0 
-1.30901699437495 -0.5 0 -0.809016994374945 
0.809016994374945 0.809016994374945 -0.809016994374945 -0.809016994374945 
0 0 -1.61803398874989 0 
1.30901699437495 0.809016994374945 0.5 0 
-1.30901699437495 0 -0.809016994374945 -0.5 
0 0.809016994374945 1.30901699437495 -0.5 
-1.30901699437495 -0.5 0 0.809016994374945 
-0.809016994374945 0.809016994374945 0.809016994374945 0.809016994374945 
0.5 0 1.30901699437495 0.809016994374945 
-0.809016994374945 0 -0.5 1.30901699437495 
0.5 0 1.30901699437495 -0.809016994374945 
-0.809016994374945 -0.5 -1.30901699437495 0 
0.809016994374945 0.809016994374945 0.809016994374945 0.809016994374945 
0.809016994374945 -0.809016994374945 0.809016994374945 0.809016994374945 
1.30901699437495 0.809016994374945 -0.5 0 
1.30901699437495 -0.809016994374945 -0.5 0 
-0.5 -1.30901699437495 0.809016994374945 0 
-1.30901699437495 0 0.809016994374945 -0.5 
0.809016994374945 0.809016994374945 -0.809016994374945 0.809016994374945 
1.30901699437495 -0.5 0 0.809016994374945 
0.809016994374945 1.30901699437495 0 -0.5 
-0.809016994374945 1.30901699437495 0 -0.5 
1.30901699437495 0 0.809016994374945 -0.5 
0.809016994374945 0.809016994374945 0.809016994374945 -0.809016994374945 
0 0.809016994374945 1.30901699437495 0.5 
0 -0.5 0.809016994374945 -1.30901699437495 
0 -0.5 -0.809016994374945 -1.30901699437495 
0 1.61803398874989 0 0 
0 -0.5 0.809016994374945 1.30901699437495 
0.5 0.809016994374945 0 -1.30901699437495 
0.5 -1.30901699437495 0.809016994374945 0 
0 -0.809016994374945 1.30901699437495 0.5 
-0.809016994374945 0.5 -1.30901699437495 0 
0.809016994374945 0 -0.5 1.30901699437495 
-0.5 -0.809016994374945 0 -1.30901699437495 
-1.30901699437495 0.5 0 0.809016994374945 
1.30901699437495 0 -0.809016994374945 -0.5 
-0.5 -1.30901699437495 -0.809016994374945 0 
0 1.30901699437495 0.5 -0.809016994374945 
0 0.809016994374945 -1.30901699437495 -0.5 
0.809016994374945 -0.5 1.30901699437495 0 
-0.809016994374945 0 0.5 -1.30901699437495 
0.5 0.809016994374945 0 1.30901699437495 
1.30901699437495 -0.5 0 -0.809016994374945 
-1.30901699437495 0 0.809016994374945 0.5 
0.5 1.30901699437495 0.809016994374945 0 
0 -1.30901699437495 -0.5 0.809016994374945 

# Faces
4 1 5 2 0
5 1 4 8 3 0
4 2 9 3 0
4 4 1 5 7
4 6 7 4 8
5 6 7 5 2 9
4 6 8 3 9
4 10 11 14 12
5 10 13 18 15 11
4 10 12 16 13
4 11 15 17 14
5 16 8 17 14 12
4 8 18 13 16
4 17 8 18 15
5 8 19 20 22 25
4 20 23 21 19
4 8 19 21 24
4 22 2 23 20
4 24 8 25 26
5 24 21 23 2 26
4 25 26 2 22
5 27 28 24 31 0
4 27 29 30 0
4 28 32 29 27
4 30 33 31 0
4 7 32 28 24
5 7 33 30 29 32
4 7 24 31 33
5 34 35 37 16 7
4 34 36 38 35
4 34 36 40 7
4 37 41 38 35
4 16 39 40 7
4 39 41 37 16
5 40 36 38 41 39
4 10 43 45 42
5 10 42 46 49 44
4 43 48 44 10
4 45 8 46 42
5 45 8 47 48 43
4 46 8 47 49
4 47 48 44 49
5 51 47 26 52 50
4 50 51 54 53
4 50 53 55 52
4 47 51 54 31
4 52 55 56 26
5 55 56 31 54 53
4 26 56 31 47
4 58 60 32 57
5 58 61 31 59 57
4 32 57 59 62
4 60 13 61 58
5 32 60 13 4 62
4 62 4 31 59
4 4 13 61 31
4 34 17 66 63
5 34 63 65 13 64
4 17 34 64 67
4 65 63 66 39
4 65 39 46 13
5 39 66 17 67 46
4 46 13 64 67
5 6 68 19 69 39
4 68 71 70 19
4 69 73 70 19
4 68 6 26 71
4 6 39 72 26
4 39 72 73 69
5 26 72 73 70 71
5 76 74 75 56 7
4 74 75 77 41
4 74 76 78 41
4 75 56 79 77
4 7 65 78 76
4 65 7 56 79
5 79 65 78 41 77
4 50 80 81 83
5 80 82 84 49 50
4 81 43 82 80
4 50 83 18 49
5 83 81 43 31 18
4 82 84 31 43
4 31 18 49 84
4 85 86 88 87
5 86 85 39 90 89
4 87 85 39 25
4 86 89 70 88
5 88 70 49 25 87
4 25 39 90 49
4 90 49 70 89
5 92 91 57 79 33
4 91 57 94 93
4 92 95 93 91
4 94 90 79 57
4 92 33 13 95
5 95 93 94 90 13
4 13 33 79 90
5 97 96 74 26 40
4 74 96 98 99
4 96 97 53 98
4 74 99 84 26
4 40 79 53 97
4 26 84 79 40
5 79 84 99 98 53
4 100 102 95 85
5 101 85 100 72 79
4 85 101 103 95
4 102 49 72 100
5 103 61 49 102 95
4 101 79 61 103
4 72 79 61 49
4 58 55 104 20
5 58 20 18 47 105
4 20 18 4 104
4 58 105 14 55
5 104 4 24 14 55
4 24 47 18 4
4 24 14 105 47
5 86 16 46 107 1
4 86 1 48 106
4 86 106 6 16
4 48 1 107 38
4 6 25 46 16
5 6 25 38 48 106
4 46 107 38 25
4 11 75 9 108
5 75 109 4 33 11
4 11 33 65 108
4 75 109 93 9
5 65 16 93 9 108
4 93 109 4 16
4 65 33 4 16
5 35 51 111 6 24
4 51 35 110 73
4 35 110 56 24
4 111 51 73 29
4 6 40 56 24
4 6 111 29 40
5 40 29 73 110 56
5 68 113 65 40 91
4 91 112 67 68
4 40 91 112 72
4 68 113 98 67
4 65 113 98 90
4 65 90 72 40
5 72 90 98 67 112
4 100 78 114 27
5 27 84 56 115 100
4 114 61 84 27
4 100 78 81 115
4 81 33 56 115
5 78 81 33 61 114
4 56 84 61 33
4 96 42 103 116
5 25 96 42 117 72
4 116 47 25 96
4 117 23 103 42
5 103 116 47 84 23
4 25 47 84 72
4 72 117 23 84
4 80 63 62 118
5 90 80 63 119 61
4 118 80 90 46
4 62 63 119 88
5 118 46 18 88 62
4 119 61 18 88
4 90 61 18 46
4 19 45 87 67
4 19 89 101 45
5 19 89 44 38 67
5 45 101 82 26 87
4 26 38 67 87
4 101 82 44 89
4 82 44 38 26
4 57 27 74 91
4 92 116 74 91
5 27 74 116 54 73
4 79 73 27 57
4 92 33 54 116
4 33 79 73 54
5 10 108 66 62 86
4 86 10 61 64
4 62 109 64 86
4 108 77 61 10
4 66 62 109 112
4 108 66 112 77
5 64 109 112 77 61
5 43 62 28 105 11
4 103 43 11 61
4 49 105 11 61
4 95 62 28 102
4 95 103 43 62
4 49 105 28 102
5 81 55 57 28 76
4 84 57 55 23
4 84 57 28 47
4 81 103 116 76
4 28 47 116 76
4 23 55 81 103
5 115 52 58 23 43
4 25 52 58 49
4 70 23 58 49
4 115 87 25 52
4 87 115 43 88
4 70 23 43 88
5 63 36 112 93 85
4 63 85 113 33
4 85 113 37 93
4 63 36 110 33
4 37 99 112 93
5 113 37 99 110 33
4 112 36 110 99
4 93 66 106 68
5 64 68 93 41 107
4 106 119 64 68
4 66 93 41 72
5 72 66 106 119 44
4 72 41 107 44
4 119 64 107 44
4 100 74 68 85
4 85 101 21 68
5 68 21 110 38 74
4 74 100 72 38
4 101 21 110 79
4 72 79 110 38
4 96 100 27 51
4 96 100 115 45
5 51 96 45 21 70
4 84 70 51 27
4 115 45 21 56
4 56 84 70 21
4 86 95 118 12
4 12 86 119 82
5 95 86 119 15 67
5 12 118 25 105 82
4 118 25 67 95
4 119 15 105 82
4 67 25 105 15
4 11 31 92 63
5 32 63 11 77 94
4 11 77 99 31
4 63 92 76 32
4 76 102 94 32
5 76 92 31 99 102
4 94 77 99 102
5 86 5 36 17 68
4 68 86 13 37
4 5 30 13 86
4 68 17 3 37
4 5 36 77 30
5 30 13 37 3 77
4 36 77 3 17
4 35 21 106 17
4 35 21 89 107
5 9 17 35 107 22
5 40 117 89 21 106
4 106 17 9 40
4 9 22 117 40
4 89 107 22 117
4 68 91 75 35
4 75 91 40 2
4 68 113 54 35
5 35 54 30 2 75
4 113 65 30 54
4 40 65 30 2
4 75 0 51 74
4 51 74 76 83
4 75 0 23 56
5 83 51 0 23 104
4 7 76 83 104
4 104 7 56 23
4 104 45 88 1
4 104 117 44 1
5 88 1 44 105 17
5 52 6 45 104 117
4 6 17 88 45
4 52 105 17 6
4 52 105 44 117
5 34 14 108 30 1
4 34 1 18 109
4 14 34 109 28
4 1 18 114 30
4 14 28 94 108
5 109 28 94 114 18
4 94 108 30 114
4 31 75 14 43
5 75 14 32 111 3
4 31 75 3 18
4 32 81 43 14
4 32 81 83 111
4 83 111 3 18
4 0 18 46 22
5 0 22 52 14 48
4 18 88 48 0
4 62 118 52 14
4 14 62 88 48
4 52 118 46 22
5 55 2 27 111 97
4 111 8 47 27
4 2 48 47 27
4 45 8 111 97
4 97 45 43 55
4 55 43 48 2
4 91 34 4 76
5 34 91 9 77 110
4 91 9 111 76
4 34 110 54 4
5 76 111 114 54 4
4 9 77 114 111
4 114 77 110 54
4 96 74 35 19
4 96 19 104 97
4 74 35 48 26
5 35 48 5 104 19
4 40 97 104 5
4 5 40 26 48
4 62 34 5 12
5 34 15 3 93 62
4 34 15 44 5
4 62 93 39 12
5 39 22 44 5 12
4 93 39 22 3
4 3 22 44 15
5 80 53 103 92 115
4 26 115 80 72
4 80 72 73 53
4 71 92 115 26
4 70 103 92 71
4 70 103 53 73
5 63 81 95 109 59
4 79 63 81 53
4 84 59 63 79
4 95 98 53 81
4 109 99 98 95
4 59 84 99 109
5 10 82 59 88 103
4 82 72 90 10
4 103 98 90 10
4 88 67 98 103
4 67 88 59 112
4 112 59 82 72
4 85 66 59 92
5 85 78 98 64 92
4 66 94 78 85
4 92 64 15 59
5 94 66 59 15 49
4 78 98 49 94
4 98 49 15 64
5 80 57 112 102 78
4 80 57 56 101
4 80 78 113 101
4 56 71 112 57
4 78 102 116 113
5 113 116 71 56 101
4 102 112 71 116
4 50 96 85 80
5 96 67 71 106 85
4 80 82 106 85
4 49 67 96 50
4 82 106 71 84
4 84 71 67 49
4 96 113 92 87
4 96 87 112 41
5 113 96 41 73 89
5 92 119 84 112 87
4 113 92 119 89
4 89 119 84 73
4 112 84 73 41
4 100 80 63 91
5 91 100 41 99 71
4 119 71 91 63
4 80 90 41 100
4 90 61 99 41
4 61 99 71 119
5 95 42 80 66 87
4 42 89 79 80
4 66 36 79 80
4 42 89 64 95
4 95 64 71 87
4 87 66 36 71
5 64 89 79 36 71
4 42 101 115 118
4 42 98 102 118
5 42 98 70 119 101
5 118 115 59 47 102
4 115 101 119 59
4 98 70 47 102
4 119 59 47 70
5 10 58 94 118 81
4 10 119 84 58
4 92 81 10 119
4 112 94 58 84
4 118 87 92 81
4 87 112 94 118
4 58 50 100 57
5 50 100 87 116 98
4 58 61 98 50
4 57 59 87 100
4 31 116 87 59
4 116 31 61 98
4 34 63 57 75
4 75 34 64 99
4 63 57 29 65
5 75 99 114 29 57
4 13 114 29 65
4 64 99 114 13
5 12 42 19 88 106
4 19 107 90 42
4 88 15 107 19
4 12 108 90 42
4 12 106 36 108
4 106 36 15 88
5 108 36 15 107 90
4 116 51 69 113
4 116 71 38 51
5 117 69 51 38 2
4 113 101 117 69
4 56 2 117 101
4 56 71 38 2
4 100 91 7 97
4 71 21 7 91
4 100 97 69 41
5 69 97 7 21 54
4 41 69 54 99
4 71 21 54 99
4 68 96 42 86
4 68 96 25 17
4 42 86 5 117
4 36 72 117 5
4 25 17 36 72
5 91 32 78 37 109
4 32 108 36 91
4 91 36 15 109
4 90 78 32 108
4 90 78 37 107
4 37 107 15 109
4 27 50 20 0
4 27 50 118 28
5 20 50 118 45 103
4 31 103 20 0
4 118 28 24 45
4 45 24 31 103
5 0 114 60 55 11
4 47 0 11 59
4 11 59 115 55
4 114 102 47 0
4 118 60 55 115
4 102 114 60 118
4 82 52 60 10
4 103 83 60 10
5 8 28 52 60 83
4 8 88 59 28
4 83 103 88 8
4 59 28 52 82
4 34 33 81 62
4 34 33 61 15
4 62 81 78 93
4 78 93 3 114
4 61 15 3 114
5 76 100 29 53 113
4 100 26 24 76
4 26 100 29 2
4 76 24 21 113
4 53 23 21 113
4 23 53 29 2
4 20 46 39 117
5 20 117 82 48 70
4 46 20 70 67
4 66 82 117 39
4 66 82 48 17
4 17 48 70 67
4 19 51 50 42
4 51 19 88 47
4 42 50 52 12
4 26 106 12 52
4 26 106 88 47
4 75 57 115 24
4 29 97 115 57
4 24 75 99 116
5 97 115 24 116 83
4 83 114 29 97
4 99 116 83 114
4 81 63 108 60
4 59 105 108 63
4 95 81 60 46
4 95 46 3 109
5 108 60 46 3 105
4 109 3 105 59
5 1 43 12 60 20
4 20 49 15 1
4 60 94 49 20
4 1 15 59 43
4 66 12 60 94
4 66 12 43 59
4 75 27 58 11
5 53 58 27 102 83
4 109 102 27 75
4 58 11 33 53
4 109 102 83 4
4 4 83 53 33
4 20 83 97 117
4 116 70 20 83
4 115 82 117 97
4 48 24 115 82
4 116 70 48 24
4 86 34 91 85
4 85 91 9 39
4 110 89 86 34
4 90 77 9 39
4 110 89 90 77
4 85 96 69 65
4 106 85 65 5
4 69 96 67 107
4 71 110 5 106
5 69 65 5 110 107
4 67 71 110 107
5 9 74 37 69 29
4 36 9 74 71
4 64 37 74 71
4 36 9 29 79
4 79 29 69 89
4 89 69 37 64
4 25 50 97 6
5 97 50 73 23 101
4 25 38 73 50
4 6 97 101 106
4 106 101 23 48
4 38 73 23 48
4 13 1 88 95
4 1 13 90 44
4 88 95 93 17
4 93 17 105 94
4 105 94 90 44
4 32 55 56 91
4 56 91 109 31
4 53 78 32 55
4 53 78 37 54
4 109 31 54 37
4 35 4 62 17
4 35 4 13 107
4 32 9 17 62
4 32 9 22 60
4 13 107 22 60
4 8 51 69 16
4 38 17 8 51
4 16 69 117 12
4 14 2 117 12
4 14 2 38 17
4 14 9 74 24
4 24 74 37 4
4 37 4 104 69
4 104 69 29 55
4 9 14 55 29
4 54 0 22 69
4 54 0 48 21
4 52 97 7 14
4 7 14 48 21
4 97 52 22 69
4 19 46 3 35
4 19 46 60 104
4 48 105 3 35
4 60 104 5 108
4 5 108 105 48
4 34 11 0 35
4 34 11 55 7
4 37 114 0 35
4 60 16 7 55
4 37 114 60 16
4 11 43 104 30
4 11 105 22 30
4 28 111 16 62
4 16 62 43 104
5 16 111 22 30 104
4 105 22 111 28
4 51 20 1 35
4 24 43 1 35
4 51 20 60 111
4 43 24 6 12
4 111 60 12 6
4 28 75 35 8
4 54 83 8 35
4 2 52 28 75
4 52 2 30 60
4 54 83 60 30
4 75 110 5 14
4 3 107 110 75
4 32 65 69 111
4 5 14 32 65
4 69 111 3 107
4 16 68 74 111
4 111 74 38 22
4 16 68 21 104
4 104 21 110 30
4 22 38 110 30
4 34 68 19 1
4 34 68 6 14
4 69 30 1 19
4 108 39 6 14
4 39 108 30 69
4 58 82 26 27
4 27 26 87 102
4 101 53 58 82
4 87 102 83 45
4 45 83 53 101
4 28 115 80 94
4 114 53 80 94
4 92 109 28 115
4 109 92 103 18
4 53 114 18 103
4 20 42 80 58
4 105 66 80 58
4 18 95 42 20
4 95 18 47 87
4 87 47 105 66
4 42 85 63 10
4 93 46 42 85
4 36 44 10 63
4 46 93 112 49
4 49 112 36 44
4 109 76 100 112
4 29 77 112 100
4 113 64 109 76
4 64 113 53 61
4 77 29 53 61
4 50 117 40 100
4 89 98 50 117
4 87 106 40 100
4 116 21 106 87
4 21 116 98 89
4 39 42 101 40
4 41 98 42 39
4 36 119 101 40
4 41 98 70 38
4 70 38 36 119
4 85 40 56 92
4 85 40 29 78
4 56 92 64 110
4 98 73 29 78
4 73 98 64 110
4 78 95 86 65
4 79 119 86 65
4 41 67 95 78
4 79 119 15 77
4 15 77 41 67
4 50 72 44 20
4 72 50 118 66
4 119 103 20 44
4 45 106 66 118
4 106 45 103 119
4 10 80 57 11
4 10 80 78 13
4 11 57 112 15
4 18 102 78 13
4 15 112 102 18
4 50 102 76 97
4 73 99 102 50
4 101 92 76 97
4 31 23 101 92
4 31 23 73 99
4 55 30 77 57
4 57 77 3 28
4 37 76 81 13
4 76 37 3 28
4 30 55 81 13
4 86 19 20 10
4 19 86 62 8
4 22 108 10 20
4 62 8 25 66
4 22 108 66 25
4 74 6 52 27
4 6 74 116 45
4 27 52 117 73
4 54 104 45 116
4 104 54 73 117
4 96 6 7 113
4 96 6 9 41
4 5 89 113 7
4 73 2 9 41
4 73 2 5 89
4 16 19 67 93
4 65 89 19 16
4 38 9 93 67
4 65 89 44 108
4 38 9 108 44
4 93 32 7 68
4 33 64 68 7
4 93 32 29 41
4 30 107 41 29
4 64 33 30 107
4 51 25 105 0
4 0 105 82 23
4 51 25 118 83
4 118 83 104 12
4 82 23 104 12
4 58 114 111 52
4 23 54 114 58
4 43 4 76 115
4 76 115 52 111
4 23 54 4 43
4 0 58 10 1
4 81 4 1 10
4 94 3 0 58
4 118 8 4 81
4 3 94 118 8
4 11 1 86 63
4 32 16 86 63
4 107 77 11 1
4 16 32 94 46
4 46 94 77 107
4 27 99 37 111
4 110 2 27 99
4 113 97 55 33
4 37 111 97 113
4 33 55 2 110
4 22 51 96 39
4 45 12 39 96
4 22 51 70 44
4 12 45 21 5
4 21 5 44 70
5 67 41 74 51 25
5 15 77 75 0 105
5 59 119 36 34 11
5 35 0 47 70 38
5 72 50 27 29 41
5 107 30 0 20 44
5 6 74 91 93 17
5 57 27 52 105 94
5 95 98 96 19 46
5 74 35 3 109 99
5 89 5 1 10 119
5 2 73 84 58 0
5 58 60 22 117 50
5 32 9 40 100 57
5 17 34 75 24 48
5 63 66 82 115 57
5 71 92 109 34 68
5 70 103 18 1 19
5 54 37 107 19 51
5 42 50 53 78 90
5 95 62 16 68 85
5 102 100 74 111 28
5 12 117 101 80 10
5 56 2 14 11 57
5 21 19 86 64 113
5 61 53 23 20 10
5 87 85 91 76 115
5 4 43 88 86 34
5 81 80 85 65 32
5 83 111 69 96 50
5 113 97 45 42 85
5 33 55 43 10 63
5 75 9 38 26 27
5 82 58 11 108 44
5 15 64 110 35 1
5 49 98 73 51 20
5 91 112 59 28 75
5 67 68 35 8 88
5 100 96 39 93 78
5 3 114 27 51 22
5 116 96 68 37 76
5 86 42 103 81 13
5 63 91 7 14 62
5 80 100 97 52 118
5 55 29 79 80 58
5 20 42 89 69 104
5 86 63 92 101 106
5 11 1 48 23 31
5 112 49 47 27 99
5 36 44 48 2 110
5 9 41 112 94 3
5 77 57 84 72 36
5 47 25 17 3 28
5 15 61 84 70 44
5 84 59 105 48 26
5 49 105 22 38 72
5 84 31 75 110 71
5 18 49 67 107 3
5 46 94 102 50 25
5 107 77 99 73 38
5 93 67 87 102 109
5 41 98 102 114 37
5 116 51 8 18 102
5 112 15 17 38 71
5 37 111 8 46 93
5 79 110 30 11 61
5 112 100 26 25 66
5 108 22 2 29 77
5 71 74 24 47 87
5 36 66 105 14 9
5 49 58 114 77 90
5 25 39 9 111 52
5 47 88 15 109 31
5 18 0 54 99 61
5 46 90 41 69 22
5 99 64 67 70 116
5 6 96 87 118 8
5 72 82 52 2 40
5 119 79 56 23 82
5 79 73 117 44 90
5 13 46 20 83 114
5 4 37 64 95 18
5 76 83 118 95 78
5 54 23 70 89 110
5 28 32 93 66 118
5 106 26 56 91 36
5 119 71 21 48 88
5 8 62 109 76 24
5 111 60 94 78 29
5 63 79 40 5 108
5 117 5 30 55 23
5 35 4 31 116 21
5 61 13 107 89 98
5 92 95 88 45 116
5 118 42 39 16 60
5 73 69 30 114 53
5 6 97 76 32 16
5 59 62 17 106 87
5 64 33 31 103 119
5 26 115 28 14 6
5 98 103 83 54 113
5 16 69 113 78 13
5 45 83 4 16 19
5 108 39 72 80 94
5 43 82 106 5 14
5 5 21 56 33 34
5 56 92 59 43 24
5 108 32 55 52 12
5 90 10 60 30 65
5 7 68 106 45 24
5 39 65 29 97 117
5 66 12 6 40 85
5 33 54 104 1 13
5 92 81 4 7 113
5 81 53 97 104 60
5 81 62 12 45 115
5 115 101 40 7 55
5 101 53 33 65 89
5 103 101 21 104 43
5 12 104 7 65 86

# Cells
7 0 1 2 3 4 5 6
7 7 8 9 10 11 12 13
7 14 15 16 17 18 19 20
7 21 22 23 24 25 26 27
7 28 29 30 31 32 33 34
7 35 36 37 38 39 40 41
7 42 43 44 45 46 47 48
7 49 50 51 52 53 54 55
7 56 57 58 59 60 61 62
7 63 64 65 66 67 68 69
7 70 71 72 73 74 75 76
7 77 78 79 80 81 82 83
7 84 85 86 87 88 89 90
7 91 92 93 94 95 96 97
7 98 99 100 101 102 103 104
7 105 106 107 108 109 110 111
7 112 113 114 115 116 117 118
7 119 120 121 122 123 124 125
7 126 127 128 129 130 131 132
7 133 134 135 136 137 138 139
7 140 141 142 143 144 145 146
7 147 148 149 150 151 152 153
7 154 155 156 157 158 159 160
7 161 162 163 164 165 166 167
7 168 169 170 171 172 173 174
7 91 175 176 177 178 179 180
7 181 182 183 184 185 186 187
7 109 188 189 190 191 192 193
7 158 194 195 196 197 198 199
7 88 200 201 202 203 204 205
7 206 207 208 209 210 211 212
7 213 214 215 216 217 218 219
7 106 220 221 222 223 224 225
7 148 226 227 228 229 230 231
7 232 233 234 235 236 237 238
7 239 240 241 242 243 244 245
7 246 247 248 249 250 251 252
7 253 254 255 256 257 258 259
7 140 260 261 262 263 264 265
7 70 266 267 268 269 270 271
7 272 273 274 275 276 277 278
7 279 280 281 282 283 284 285
7 81 286 287 288 289 290 291
7 165 292 293 294 295 296 297
7 39 298 299 300 301 302 303
7 304 305 306 307 308 309 310
7 98 311 312 313 314 315 316
7 317 318 319 320 321 322 323
7 69 324 325 326 327 328 329
7 104 330 331 332 333 334 335
7 146 336 337 338 339 340 341
7 342 343 344 345 346 347 348
7 349 350 351 352 353 354 355
7 78 356 357 358 359 360 361
7 362 363 364 365 366 367 368
7 162 369 370 371 372 373 374
7 375 376 377 378 379 380 381
7 382 383 384 385 386 387 388
7 365 389 390 391 392 393 394
7 50 395 396 397 398 399 400
7 57 401 402 403 404 405 406
7 407 408 409 410 411 412 413
7 354 414 415 416 417 418 419
7 370 420 421 422 423 424 425
7 155 246 426 427 428 429 430
7 413 431 432 433 434 435 436
7 21 437 438 439 440 441 442
7 385 443 444 445 446 447 448
7 336 449 450 451 452 453 454
7 152 318 455 456 457 458 459
7 19 460 461 462 463 464 465
7 61 466 467 468 469 470 471
7 42 407 472 473 474 475 476
7 404 477 478 479 480 481 482
7 330 483 484 485 486 487 488
7 346 489 490 491 492 493 494
7 127 495 496 497 498 499 500
7 467 480 501 502 503 504 505
7 85 305 506 507 508 509 510
7 357 511 512 513 514 515 516
7 381 517 518 519 520 521 522
7 124 523 524 525 526 527 528
7 96 274 529 530 531 532 533
7 47 431 534 535 536 537 538
7 53 255 539 540 541 542 543
7 11 416 544 545 546 547 548
7 116 517 549 550 551 552 553
7 293 423 554 555 556 557 558
7 314 487 559 560 561 562 563
7 28 443 564 565 566 567 568
7 188 569 570 571 572 573 574
7 133 489 575 576 577 578 579
7 263 451 580 581 582 583 584
7 287 515 585 586 587 588 589
7 222 573 590 591 592 593 594
7 63 279 595 596 597 598 599
7 171 496 600 601 602 603 604
7 284 324 605 606 607 608 609
7 113 375 610 611 612 613 614
7 36 206 615 616 617 618 619
7 187 460 620 621 622 623 624
7 256 396 625 626 627 628 629
7 34 384 630 631 632 633 634
7 139 343 635 636 637 638 639
7 76 234 640 641 642 643 644
7 217 439 645 646 647 648 649
7 8 349 650 651 652 653 654
7 244 524 655 656 657 658 659
7 194 251 660 661 662 663 664
7 14 181 665 666 667 668 669
7 177 275 670 671 672 673 674
7 5 364 675 676 677 678 679
7 130 170 680 681 682 683 684
7 26 214 685 686 687 688 689
7 235 269 690 691 692 693 694
7 200 308 695 696 697 698 699
7 1 389 700 701 702 703 704
7 119 240 705 706 707 708 709
7 211 298 710 711 712 713 714
7 228 321 715 716 717 718 719
7 71 238 266 644 690 720 721
7 29 388 444 564 634 722 723
7 22 218 437 645 688 724 725
7 92 175 277 532 670 726 727
7 99 311 334 486 559 728 729
7 0 367 390 679 700 730 731
7 49 258 395 542 625 732 733
7 56 401 470 477 504 734 735
7 64 280 328 595 608 736 737
7 43 408 435 472 537 738 739
7 105 191 220 571 590 740 741
7 7 350 418 547 650 742 743
7 15 182 464 623 665 744 745
7 84 204 304 506 697 746 747
7 77 290 356 511 587 748 749
7 35 207 302 615 712 750 751
7 126 174 495 600 684 752 753
7 134 348 490 575 639 754 755
7 141 260 340 452 580 756 757
7 147 226 322 458 715 758 759
7 154 197 247 426 662 760 761
7 161 295 369 420 556 762 763
7 112 376 521 552 610 764 765
7 120 239 527 658 705 766 767
7 41 212 300 619 711 768 769
7 2 368 392 678 702 731 770
7 159 196 252 430 661 771 772
7 149 229 323 459 717 759 773
7 101 313 335 488 561 729 774
7 108 193 223 574 591 741 775
7 83 288 361 516 586 776 777
7 125 245 525 656 709 778 779
7 129 172 497 601 682 752 780
7 31 387 446 566 633 723 781
7 13 355 415 545 654 782 783
7 40 210 299 618 710 768 784
7 111 190 225 570 594 775 785
7 20 186 462 621 669 786 787
7 10 352 419 548 652 743 783
7 122 241 528 659 707 767 779
7 118 380 518 549 614 788 789
7 89 201 309 509 695 790 791
7 45 409 436 473 538 738 792
7 80 291 359 513 589 749 777
7 156 198 249 427 663 760 772
7 167 292 373 424 554 793 794
7 58 402 471 479 505 734 795
7 6 363 394 676 704 770 796
7 142 261 341 454 582 756 797
7 73 237 268 643 691 721 798
7 94 178 278 533 672 727 799
7 62 406 468 482 502 795 800
7 117 379 519 550 613 788 801
7 72 236 267 642 692 720 802
7 90 202 310 510 696 790 803
7 23 216 438 646 687 724 804
7 48 412 433 476 535 792 805
7 166 294 374 425 555 793 806
7 18 185 461 620 668 786 807
7 136 347 491 577 638 755 808
7 115 377 520 553 611 764 789
7 103 316 332 484 563 774 809
7 160 195 250 429 660 771 810
7 55 254 400 540 629 811 812
7 93 176 276 531 671 726 813
7 33 383 448 568 631 781 814
7 65 282 329 597 609 737 815
7 123 243 523 655 708 778 816
7 54 253 399 539 628 811 817
7 24 219 440 647 689 725 818
7 66 281 327 596 607 736 819
7 163 297 372 422 558 763 794
7 143 262 339 453 581 757 820
7 12 353 414 544 653 782 821
7 131 168 499 603 680 780 822
7 67 283 325 598 605 819 823
7 17 184 465 624 667 745 787
7 82 286 360 514 585 776 824
7 51 257 398 541 627 733 817
7 153 231 319 456 719 773 825
7 68 285 326 599 606 815 823
7 86 203 306 507 698 746 791
7 52 259 397 543 626 732 812
7 135 345 492 576 637 754 826
7 114 378 522 551 612 765 801
7 38 208 301 616 713 750 784
7 16 183 463 622 666 744 807
7 46 411 432 475 534 805 827
7 145 265 337 449 583 797 828
7 37 209 303 617 714 751 769
7 25 213 441 648 685 804 829
7 87 205 307 508 699 747 803
7 60 405 466 481 501 800 830
7 138 344 493 579 636 808 831
7 97 180 273 530 674 799 832
7 164 296 371 421 557 762 806
7 4 362 393 675 703 796 833
7 95 179 272 529 673 813 832
7 100 312 333 485 560 728 834
7 150 227 320 457 716 758 835
7 144 264 338 450 584 820 828
7 27 215 442 649 686 818 829
7 59 403 469 478 503 735 830
7 30 386 445 565 632 722 836
7 128 173 498 602 683 753 837
7 137 342 494 578 635 826 831
7 44 410 434 474 536 739 827
7 110 189 224 569 593 785 838
7 74 232 270 640 693 802 839
7 107 192 221 572 592 740 838
7 132 169 500 604 681 822 837
7 121 242 526 657 706 766 816
7 9 351 417 546 651 742 821
7 3 366 391 677 701 730 833
7 32 382 447 567 630 814 836
7 151 230 317 455 718 825 835
7 157 199 248 428 664 761 810
7 79 289 358 512 588 748 824
7 102 315 331 483 562 809 834
7 75 233 271 641 694 798 839
