# Generated using Miratope v0.5.0 (https://github.com/galoomba1/miratope-rs)
4OFF

# Vertices, Faces, Edges, Cells
120 840 1200 240

# Vertices
0.809016994374945 -0.809016994374945 -0.809016994374945 0.809016994374945 
0 -1.61803398874989 0 0 
0 0 -1.61803398874989 0 
1.30901699437495 0.5 0 0.809016994374945 
-0.809016994374945 -0.809016994374945 -0.809016994374945 -0.809016994374945 
-0.809016994374945 0 0.5 -1.30901699437495 
0 -0.809016994374945 1.30901699437495 -0.5 
0.5 1.30901699437495 -0.809016994374945 0 
0.809016994374945 0.5 1.30901699437495 0 
0 1.30901699437495 0.5 -0.809016994374945 
0.809016994374945 0.809016994374945 -0.809016994374945 0.809016994374945 
-0.809016994374945 0.809016994374945 -0.809016994374945 0.809016994374945 
0.809016994374945 1.30901699437495 0 -0.5 
-0.809016994374945 -0.809016994374945 -0.809016994374945 0.809016994374945 
0.809016994374945 -1.30901699437495 0 -0.5 
-0.809016994374945 1.30901699437495 0 -0.5 
-0.809016994374945 -1.30901699437495 0 -0.5 
0.809016994374945 0 0.5 -1.30901699437495 
-0.809016994374945 -0.809016994374945 0.809016994374945 0.809016994374945 
-0.809016994374945 -0.809016994374945 0.809016994374945 -0.809016994374945 
0.5 0 1.30901699437495 0.809016994374945 
0.5 0 1.30901699437495 -0.809016994374945 
0.5 0 -1.30901699437495 0.809016994374945 
0.5 0 -1.30901699437495 -0.809016994374945 
1.30901699437495 0.5 0 -0.809016994374945 
0.809016994374945 0.809016994374945 -0.809016994374945 -0.809016994374945 
0.809016994374945 -0.809016994374945 -0.809016994374945 -0.809016994374945 
-0.809016994374945 0.809016994374945 -0.809016994374945 -0.809016994374945 
1.30901699437495 0.809016994374945 0.5 0 
1.30901699437495 -0.809016994374945 0.5 0 
-1.30901699437495 0.809016994374945 0.5 0 
-1.30901699437495 -0.809016994374945 0.5 0 
0 0.809016994374945 1.30901699437495 0.5 
0 -0.809016994374945 1.30901699437495 0.5 
0.809016994374945 -0.809016994374945 0.809016994374945 0.809016994374945 
0.809016994374945 -0.809016994374945 0.809016994374945 -0.809016994374945 
0 0.5 0.809016994374945 1.30901699437495 
0 0.5 -0.809016994374945 1.30901699437495 
0 0.5 0.809016994374945 -1.30901699437495 
0 0.5 -0.809016994374945 -1.30901699437495 
-0.5 1.30901699437495 0.809016994374945 0 
-0.5 1.30901699437495 -0.809016994374945 0 
0 0 0 1.61803398874989 
-1.61803398874989 0 0 0 
0 0.809016994374945 -1.30901699437495 -0.5 
0.5 -1.30901699437495 0.809016994374945 0 
1.30901699437495 -0.5 0 0.809016994374945 
-0.809016994374945 0 -0.5 -1.30901699437495 
1.30901699437495 0 -0.809016994374945 -0.5 
0.5 -0.809016994374945 0 -1.30901699437495 
-0.809016994374945 0.809016994374945 0.809016994374945 -0.809016994374945 
0 0 0 -1.61803398874989 
0.5 -1.30901699437495 -0.809016994374945 0 
-0.809016994374945 0 0.5 1.30901699437495 
1.30901699437495 -0.5 0 -0.809016994374945 
1.30901699437495 0 0.809016994374945 0.5 
0.5 -0.809016994374945 0 1.30901699437495 
0 1.61803398874989 0 0 
-1.30901699437495 -0.5 0 0.809016994374945 
0 0.809016994374945 1.30901699437495 -0.5 
-0.5 -1.30901699437495 -0.809016994374945 0 
-0.809016994374945 -0.5 1.30901699437495 0 
0 -1.30901699437495 0.5 -0.809016994374945 
0.809016994374945 0.809016994374945 0.809016994374945 0.809016994374945 
1.61803398874989 0 0 0 
0 -0.809016994374945 -1.30901699437495 -0.5 
0.809016994374945 0 -0.5 -1.30901699437495 
-1.30901699437495 0.5 0 0.809016994374945 
-0.5 0.809016994374945 0 -1.30901699437495 
-1.30901699437495 0 -0.809016994374945 -0.5 
0 0 1.61803398874989 0 
-0.809016994374945 0 -0.5 1.30901699437495 
0.5 1.30901699437495 0.809016994374945 0 
0 -0.809016994374945 -1.30901699437495 0.5 
0 1.30901699437495 -0.5 0.809016994374945 
0.809016994374945 0.5 -1.30901699437495 0 
0.809016994374945 0 0.5 1.30901699437495 
-1.30901699437495 0.5 0 -0.809016994374945 
-0.5 0.809016994374945 0 1.30901699437495 
-1.30901699437495 0 0.809016994374945 0.5 
-0.809016994374945 0.809016994374945 0.809016994374945 0.809016994374945 
0 -0.5 0.809016994374945 1.30901699437495 
0 -0.5 0.809016994374945 -1.30901699437495 
0 -0.5 -0.809016994374945 1.30901699437495 
0 -0.5 -0.809016994374945 -1.30901699437495 
1.30901699437495 0.809016994374945 -0.5 0 
1.30901699437495 -0.809016994374945 -0.5 0 
-1.30901699437495 0.809016994374945 -0.5 0 
-1.30901699437495 -0.809016994374945 -0.5 0 
0.809016994374945 0.809016994374945 0.809016994374945 -0.809016994374945 
-0.5 0 1.30901699437495 0.809016994374945 
-0.5 0 1.30901699437495 -0.809016994374945 
-0.5 0 -1.30901699437495 0.809016994374945 
-0.5 0 -1.30901699437495 -0.809016994374945 
-1.30901699437495 -0.5 0 -0.809016994374945 
0.809016994374945 1.30901699437495 0 0.5 
0.809016994374945 -1.30901699437495 0 0.5 
-0.809016994374945 1.30901699437495 0 0.5 
-0.809016994374945 -1.30901699437495 0 0.5 
0.809016994374945 0 -0.5 1.30901699437495 
0 0.809016994374945 -1.30901699437495 0.5 
-0.5 -1.30901699437495 0.809016994374945 0 
0 -1.30901699437495 -0.5 0.809016994374945 
-0.809016994374945 -0.5 -1.30901699437495 0 
0.5 0.809016994374945 0 -1.30901699437495 
0 -1.30901699437495 0.5 0.809016994374945 
1.30901699437495 0 0.809016994374945 -0.5 
-0.809016994374945 0.5 -1.30901699437495 0 
0 1.30901699437495 0.5 0.809016994374945 
-0.5 -0.809016994374945 0 -1.30901699437495 
1.30901699437495 0 -0.809016994374945 0.5 
-0.809016994374945 0.5 1.30901699437495 0 
0 1.30901699437495 -0.5 -0.809016994374945 
-0.5 -0.809016994374945 0 1.30901699437495 
0.809016994374945 -0.5 1.30901699437495 0 
-1.30901699437495 0 -0.809016994374945 0.5 
0.5 0.809016994374945 0 1.30901699437495 
0 -1.30901699437495 -0.5 -0.809016994374945 
0.809016994374945 -0.5 -1.30901699437495 0 
-1.30901699437495 0 0.809016994374945 -0.5 

# Faces
4 1 4 2 0
5 1 6 8 3 0
4 0 2 7 3
4 4 5 6 1
5 4 2 7 9 5
4 8 9 7 3
4 8 9 5 6
4 0 10 11 13
5 0 14 17 12 10
4 10 11 15 12
4 0 13 16 14
5 15 11 13 16 5
4 12 15 5 17
4 14 17 5 16
4 19 18 13 4
4 18 20 21 19
5 13 18 20 3 22
5 4 19 21 24 23
4 13 4 23 22
4 3 20 21 24
4 3 24 23 22
4 25 26 4 27
4 25 26 29 28
5 27 25 28 32 30
5 26 29 33 31 4
4 27 4 31 30
4 32 28 29 33
4 32 30 31 33
4 0 26 35 34
4 34 36 37 0
5 35 38 40 36 34
5 0 37 41 39 26
4 26 35 38 39
4 40 41 37 36
4 40 38 39 41
4 11 43 18 42
5 42 11 44 48 46
4 43 11 44 47
4 18 45 46 42
5 43 47 49 45 18
4 48 46 45 49
4 48 44 47 49
4 50 43 4 51
4 50 32 53 43
5 50 51 54 55 32
5 4 43 53 56 52
4 4 52 54 51
4 55 32 53 56
4 56 55 54 52
4 57 25 2 11
4 57 25 17 59
5 25 2 60 62 17
5 11 58 61 59 57
4 11 2 60 58
4 61 62 17 59
4 61 62 60 58
4 64 0 42 63
5 63 40 68 66 64
4 63 40 67 42
4 64 66 65 0
5 67 42 0 65 69
4 40 68 69 67
4 68 66 65 69
4 70 18 1 35
4 70 35 24 72
5 1 35 24 75 73
5 18 71 74 72 70
4 18 71 73 1
4 74 75 24 72
4 71 74 75 73
4 64 35 51 25
5 64 25 41 78 76
4 51 77 41 25
4 35 33 76 64
5 35 33 79 77 51
4 76 78 79 33
4 41 77 79 78
4 80 50 27 11
5 80 81 45 82 50
4 80 81 83 11
4 27 84 82 50
5 11 27 84 52 83
4 81 45 52 83
4 82 84 52 45
4 34 63 80 18
4 63 85 86 34
5 63 80 87 44 85
5 18 34 86 65 88
4 18 88 87 80
4 86 85 44 65
4 44 65 88 87
4 89 63 10 25
4 63 90 91 89
5 63 90 58 92 10
5 89 25 93 94 91
4 10 92 93 25
4 90 58 94 91
4 92 93 94 58
4 35 89 50 19
5 35 96 99 95 89
4 89 50 97 95
4 35 96 98 19
5 19 98 71 97 50
4 95 97 71 99
4 71 99 96 98
4 57 63 70 50
4 63 99 100 57
5 63 99 102 101 70
5 50 94 103 100 57
4 50 70 101 94
4 100 103 102 99
4 101 94 103 102
4 27 43 13 2
5 61 43 27 104 21
4 2 48 104 27
4 13 105 61 43
5 2 13 105 29 48
4 21 104 48 29
4 29 105 61 21
4 42 13 1 34
5 42 74 12 106 34
4 1 49 106 34
4 13 107 74 42
5 13 1 49 39 107
4 12 39 49 106
4 12 74 107 39
4 10 2 26 64
4 64 8 108 10
5 10 108 30 69 2
5 64 26 109 91 8
4 2 69 109 26
4 8 91 30 108
4 30 91 109 69
4 26 51 19 1
4 1 26 110 56
5 26 51 9 95 110
5 19 111 36 56 1
4 19 51 9 111
4 95 36 56 110
4 36 111 9 95
4 89 64 34 70
4 64 75 112 89
5 70 79 87 112 89
5 64 75 92 113 34
4 34 70 79 113
4 113 92 87 79
4 75 92 87 112
4 89 57 27 51
5 89 114 81 78 57
4 51 62 114 89
4 27 57 78 115
5 27 51 62 98 115
4 114 81 98 62
4 78 115 98 81
4 80 43 19 70
4 70 55 116 80
5 116 80 43 103 22
5 70 19 117 86 55
4 43 103 117 19
4 116 55 86 22
4 86 22 103 117
4 57 10 42 80
5 10 118 84 68 57
4 10 42 102 118
4 80 119 68 57
5 80 42 102 16 119
4 119 16 84 68
4 102 16 84 118
4 45 19 38 106
4 45 102 88 19
5 19 88 107 112 38
4 85 106 38 112
5 45 106 85 22 102
4 85 22 107 112
4 22 107 88 102
4 25 110 55 89
4 91 33 55 89
4 25 93 73 110
5 110 55 33 98 73
4 91 33 98 94
4 94 98 73 93
4 12 64 114 59
4 64 118 44 12
5 64 118 60 101 114
5 119 59 12 44 69
4 114 101 119 59
4 119 101 60 69
4 44 118 60 69
5 10 28 114 105 83
4 28 104 44 10
4 83 10 44 103
4 114 82 104 28
4 114 105 16 82
4 105 16 103 83
5 44 104 82 16 103
4 57 50 21 28
4 21 50 94 62
4 57 100 110 28
5 21 28 110 52 62
4 110 100 103 52
4 52 103 94 62
4 72 20 61 50
5 50 72 85 23 47
4 61 16 47 50
4 72 85 46 20
5 46 52 16 61 20
4 85 23 52 46
4 52 16 47 23
4 35 109 68 89
4 95 89 68 41
4 96 60 109 35
4 95 99 92 41
4 96 60 92 99
5 41 68 109 60 92
4 70 38 12 63
4 63 12 75 99
4 101 109 38 70
5 75 65 109 38 12
4 102 65 75 99
4 101 102 65 109
4 19 77 40 70
4 117 93 77 19
4 55 95 40 70
4 55 95 75 86
5 95 75 93 77 40
4 117 93 75 86
4 51 21 72 112
4 21 45 117 51
5 112 51 117 73 100
5 72 116 56 45 21
4 72 116 100 112
4 56 73 100 116
4 56 73 117 45
4 63 74 22 46
5 63 46 14 82 59
4 63 74 15 59
4 46 14 65 22
5 74 15 47 65 22
4 15 47 82 59
4 14 82 47 65
4 10 57 32 76
4 76 10 118 96
4 32 57 68 91
5 32 76 96 62 91
4 68 84 62 91
4 84 62 96 118
4 64 34 6 17
4 113 31 6 34
4 75 39 17 64
4 113 92 69 31
5 6 17 39 69 31
4 92 75 39 69
4 18 111 8 34
4 8 34 86 24
4 18 111 77 88
5 8 24 39 77 111
4 86 24 39 65
4 39 65 88 77
4 1 35 91 31
4 35 91 9 24
4 73 115 31 1
4 9 24 75 41
5 9 91 31 115 41
4 75 41 115 73
4 51 24 7 27
4 7 27 115 37
4 51 24 29 62
5 29 24 7 37 56
4 62 29 56 98
4 98 56 37 115
5 111 43 107 7 72
4 43 111 6 16
4 107 65 16 43
4 106 6 111 72
4 106 72 7 48
5 106 6 16 65 48
4 7 107 65 48
4 0 48 28 76
5 0 60 31 90 76
4 0 60 84 48
4 76 28 59 90
5 48 28 59 5 84
4 59 90 31 5
4 31 5 84 60
4 11 108 9 27
4 11 108 76 83
4 9 27 84 17
5 108 76 29 17 9
4 52 29 76 83
4 84 17 29 52
4 42 108 7 22
5 108 59 6 105 42
4 42 22 52 105
4 59 104 7 108
4 59 6 49 104
5 104 49 52 22 7
4 105 6 49 52
4 27 5 111 97
5 97 116 110 23 27
4 27 23 49 5
4 116 110 29 20
4 116 97 111 20
5 20 111 5 49 29
4 110 23 49 29
4 25 95 37 2
4 25 95 8 17
4 60 113 37 2
5 8 95 37 113 33
4 17 8 33 62
4 62 33 113 60
4 4 49 38 77
5 4 73 37 97 77
4 49 86 73 4
4 72 97 37 3
5 3 86 49 38 72
4 37 73 86 3
4 97 77 38 72
4 3 34 90 108
4 3 48 14 34
5 90 34 14 109 119
5 3 108 15 39 48
4 90 108 15 119
4 48 14 109 39
4 119 109 39 15
4 89 70 45 54
4 54 89 112 23
4 79 70 45 98
5 54 45 98 103 23
4 112 23 103 87
4 79 98 103 87
5 54 25 100 83 96
4 25 68 82 54
4 100 87 68 25
4 96 54 82 101
4 83 58 101 96
4 83 58 87 100
5 87 68 82 101 58
4 70 81 46 106
5 106 66 47 119 70
4 81 58 119 70
4 46 118 66 106
5 46 118 103 58 81
4 119 58 103 47
4 66 118 103 47
4 89 66 44 57
4 89 66 14 114
4 78 57 44 92
4 81 114 14 102
4 78 81 102 92
5 102 14 66 44 92
4 50 87 93 51
4 50 87 78 32
4 51 54 118 93
4 55 99 78 32
4 54 118 99 55
5 99 118 93 87 78
4 50 80 74 112
4 74 80 81 99
4 50 112 66 82
5 74 99 86 66 112
4 81 45 86 99
4 45 82 66 86
4 35 66 85 55
4 35 55 81 101
5 101 35 66 93 88
5 55 85 100 71 81
4 100 93 66 85
4 71 88 101 81
4 100 93 88 71
4 63 64 96 81
4 40 79 81 63
4 64 66 117 96
4 68 94 79 40
5 81 79 94 117 96
4 66 117 94 68
4 89 40 74 85
5 118 85 89 82 117
4 89 82 119 40
4 74 85 118 92
5 40 74 92 88 119
4 82 119 88 117
4 118 117 88 92
5 57 104 54 46 116
4 57 116 71 87
4 104 47 87 57
4 46 116 71 102
4 46 102 117 54
4 104 54 117 47
5 71 87 47 117 102
4 63 80 61 114
4 63 114 54 85
4 87 94 61 80
4 54 85 44 84
5 54 114 61 94 84
4 87 44 84 94
4 85 116 32 89
4 82 61 32 89
5 116 32 61 98 83
4 116 85 118 83
4 117 98 61 82
4 118 83 98 117
4 26 17 114 96
5 26 93 115 113 96
4 17 68 93 26
4 90 114 96 113
5 30 90 114 17 68
4 113 90 30 115
4 30 68 93 115
5 67 18 6 38 15
4 18 102 14 6
4 92 67 18 102
4 67 92 44 15
4 44 15 38 66
4 38 66 14 6
4 51 23 86 35
4 35 33 56 86
4 77 51 23 107
4 79 71 56 33
5 56 86 23 107 71
4 77 107 71 79
4 96 55 24 26
4 93 112 24 26
5 36 97 112 24 55
4 55 96 113 36
4 113 36 97 115
4 93 112 97 115
4 36 70 106 3
4 36 70 119 67
5 67 36 3 75 107
4 106 3 75 66
4 119 47 107 67
4 66 75 107 47
4 0 10 78 113
4 12 40 78 10
4 0 14 101 113
4 40 12 17 91
5 78 40 91 101 113
4 17 14 101 91
5 53 20 28 7 11
4 53 98 103 11
4 11 103 23 7
4 54 28 20 45
4 23 7 28 54
4 45 20 53 98
4 116 57 30 53
4 57 30 5 104
4 116 46 105 53
4 46 54 62 105
5 53 105 62 5 30
4 54 62 5 104
4 43 5 59 80
4 116 28 59 80
4 43 5 84 103
4 22 48 28 116
4 103 84 48 22
4 64 14 84 25
4 41 69 84 25
4 76 64 14 105
4 76 78 58 105
4 41 69 58 78
5 105 58 69 84 14
4 4 115 79 19
4 19 21 32 79
4 4 115 100 23
4 24 95 32 21
5 95 32 79 115 100
4 23 100 95 24
4 42 3 72 80
4 72 80 119 38
4 3 42 102 86
4 16 49 86 102
4 119 38 49 16
5 106 20 80 15 104
4 71 80 20 56
4 71 80 15 107
4 20 56 86 106
4 23 104 106 86
4 23 104 15 107
4 25 9 21 54
4 25 9 97 100
5 53 97 9 21 33
4 97 100 83 53
4 53 83 96 33
4 33 96 54 21
4 11 30 90 42
4 68 44 11 30
4 46 114 90 42
4 17 48 46 114
4 48 17 68 44
4 58 80 20 105
4 69 15 80 58
4 105 20 106 14
4 106 14 84 104
4 15 69 84 104
5 76 110 2 115 53
4 110 54 84 2
4 94 115 2 84
4 54 110 76 114
4 61 53 76 114
4 94 115 53 61
4 50 104 49 19
4 7 97 50 104
4 98 52 49 19
4 97 7 22 71
4 71 22 52 98
4 8 35 66 12
4 8 35 101 90
5 8 12 41 67 90
4 41 93 66 12
4 101 90 67 88
4 88 67 41 93
4 86 1 113 99
4 86 1 109 66
5 1 109 77 67 113
4 99 113 67 74
4 112 74 67 77
4 66 112 77 109
4 26 64 99 73
4 26 73 88 109
4 64 8 36 99
4 91 79 36 8
5 36 99 73 88 79
4 109 88 79 91
4 43 97 36 18
4 36 18 45 55
4 47 112 97 43
4 45 55 24 49
4 112 47 49 24
4 48 10 63 106
4 63 106 6 90
4 65 92 10 48
4 58 16 6 90
4 92 65 16 58
4 26 60 94 51
4 26 60 83 110
4 51 94 30 9
4 95 78 83 110
4 78 95 9 30
5 83 78 30 94 60
4 67 13 2 41
4 13 67 90 105
4 12 48 2 41
4 12 48 29 8
4 8 29 105 90
4 29 6 18 56
4 67 37 56 18
4 29 6 38 24
4 24 38 15 7
4 37 67 15 7
4 24 110 2 39
4 77 115 2 39
4 110 24 8 76
4 8 76 53 111
4 53 111 77 115
4 13 53 33 1
4 53 13 107 97
4 49 21 33 1
4 9 39 107 97
4 49 21 9 39
4 0 29 20 42
4 65 49 29 0
4 67 111 20 42
4 111 67 69 5
4 5 69 65 49
4 62 26 0 105
4 53 37 0 105
4 62 26 39 5
4 37 53 30 41
4 41 30 5 39
4 53 31 69 11
4 69 11 7 39
4 6 20 28 17
4 17 28 7 39
4 53 31 6 20
4 39 4 43 15
4 52 48 39 4
4 53 108 15 43
4 56 3 108 53
4 56 3 48 52
5 108 37 13 31 111
4 37 110 52 13
4 62 31 13 52
4 110 37 108 28
4 28 108 111 21
4 21 111 31 62
4 76 113 1 29
4 1 29 17 109
4 76 113 67 108
4 9 77 67 108
4 109 17 9 77
4 107 4 26 75
4 29 3 75 26
4 31 67 107 4
4 3 29 33 36
4 36 33 31 67
4 37 75 65 13
4 65 13 31 109
4 111 38 12 108
4 12 108 37 75
4 109 31 111 38
4 71 43 27 100
4 104 85 100 27
4 71 43 61 81
4 85 104 21 55
4 61 81 55 21
4 103 27 25 118
4 28 46 118 25
4 58 30 27 103
4 28 46 81 32
4 32 81 58 30
4 57 85 22 11
4 22 11 58 102
4 57 85 106 59
4 61 45 106 59
4 45 61 58 102
4 101 34 42 58
4 106 82 101 34
4 87 74 42 58
4 12 68 82 106
4 68 12 74 87
4 114 32 95 64
4 64 95 100 118
4 79 101 114 32
4 101 79 115 60
4 118 100 115 60
4 72 36 79 50
4 79 50 47 88
4 72 36 99 85
4 85 99 73 23
4 73 23 47 88
4 34 102 117 35
4 36 71 102 34
4 35 117 47 38
4 40 87 71 36
4 47 38 40 87
4 112 40 91 51
4 51 91 101 117
4 100 78 40 112
4 100 78 113 73
4 73 113 101 117
4 90 78 99 34
4 99 34 14 118
4 119 87 78 90
4 119 87 93 109
4 14 118 93 109
4 16 18 70 82
4 71 103 16 18
4 70 82 104 72
4 74 44 104 72
4 44 74 71 103
4 46 83 78 63
4 63 78 30 59
4 14 60 83 46
4 94 82 59 30
4 82 94 60 14
4 27 94 79 97
4 94 27 23 117
4 110 96 81 116
4 81 116 97 79
4 117 23 110 96
4 41 10 28 9
4 115 83 10 41
4 28 9 91 114
4 31 105 114 91
4 115 83 105 31
4 69 13 18 119
4 20 59 119 18
4 44 22 13 69
4 3 12 59 20
4 12 3 22 44
4 111 33 98 43
4 98 43 107 73
4 110 7 72 55
4 55 72 111 33
4 73 107 7 110
4 8 38 19 33
4 113 88 19 33
4 95 112 38 8
4 107 37 95 112
4 37 107 88 113
4 92 0 1 88
4 92 0 3 74
4 88 1 6 119
4 74 3 8 40
4 8 40 119 6
4 0 75 95 76
4 0 75 93 60
4 40 90 76 95
4 77 31 90 40
4 31 77 93 60
4 116 11 13 56
4 15 72 116 11
4 13 56 45 16
4 5 21 72 15
4 16 45 21 5
4 4 98 83 2
4 4 98 61 5
4 7 116 83 2
4 9 32 116 7
4 32 9 5 61
4 2 52 46 10
4 46 10 108 20
4 2 52 16 69
4 61 30 108 20
4 69 16 61 30
4 92 42 108 41
4 105 60 92 42
4 59 68 41 108
4 6 109 68 59
4 109 6 105 60
4 62 4 77 91
4 73 96 62 4
4 76 37 97 32
4 73 96 76 37
4 97 32 91 77
4 1 65 47 19
4 15 111 19 47
4 56 22 65 1
4 74 36 111 15
4 22 56 36 74
5 2 83 118 92 0
5 1 88 117 98 4
5 11 116 100 78 10
5 13 56 73 113 0
5 101 79 19 18 119
5 13 69 60 115 4
5 25 118 66 75 26
5 103 27 4 107 47
5 46 102 34 0 105
5 117 35 26 62 54
5 115 97 43 11 30
5 42 90 113 36 18
5 50 87 119 15 43
5 39 4 51 93 109
5 112 95 25 57 85
5 22 11 2 37 107
5 20 42 63 81 116
5 0 29 110 96 64
5 35 70 82 114 91
5 1 31 105 16 18
5 51 25 84 104 23
5 64 35 86 106 14
5 11 108 67 74 80
5 50 112 77 9 27
5 34 8 76 114 63
5 61 80 18 111 53
5 89 55 72 106 63
5 25 110 7 48 10
5 89 50 104 59 68
5 49 19 35 109 6
5 57 28 108 12 63
5 50 21 111 38 70
5 27 100 93 41 2
5 88 71 43 13 67
5 1 33 96 101 34
5 83 53 13 42 58
5 46 10 64 99 85
5 2 52 23 73 26
5 1 65 14 60 26
5 51 94 82 47 19
5 64 17 28 54 89
5 45 70 34 6 20
5 51 89 66 38 24
5 44 57 27 7 15
5 90 40 70 80 59
5 5 43 19 77 31
5 3 42 10 76 37
5 72 80 57 32 97
5 60 113 88 102 58
5 43 98 94 58 16
5 93 73 107 65 92
5 23 100 118 44 22
5 83 115 73 71 103
5 102 103 52 13 65
5 110 100 99 75 37
5 69 16 47 88 109
5 22 71 99 92 42
5 52 98 96 60 105
5 101 94 62 31 109
5 22 48 0 75 86
5 117 93 60 84 103
5 14 16 45 117 101
5 46 83 110 56 22
5 4 62 84 16 49
5 118 96 73 86 102
5 92 69 11 103 87
5 113 31 53 98 79
5 84 44 65 39 2
5 94 87 88 77 115
5 74 44 10 41 75
5 98 56 18 102 81
5 78 92 67 37 115
5 86 45 52 29 1
5 99 81 83 76 113
5 66 65 49 23 117
5 61 45 19 33 62
5 14 118 54 52 48
5 112 75 39 7 23
5 87 74 107 97 100
5 31 67 119 58 30
5 62 29 6 14 114
5 55 56 3 34 99
5 84 17 109 66 82
5 81 61 105 90 101
5 68 69 5 27 94
5 7 116 85 74 3
5 36 71 116 53 37
5 86 85 54 110 24
5 82 61 5 6 119
5 47 112 93 68 44
5 78 58 80 71 79
5 77 107 15 69 41
5 46 114 96 55 45
5 29 3 106 46 28
5 21 5 17 91 51
5 104 5 39 38 47
5 28 116 55 95 76
5 33 56 20 105 76
5 3 12 64 95 24
5 119 38 77 91 68
5 82 106 49 21 54
5 26 24 49 48 17
5 95 41 108 7 97
5 85 104 48 12 66
5 91 79 50 61 30
5 90 6 111 33 91
5 95 78 63 74 36
5 21 55 35 8 29
5 25 9 39 12 68
5 40 67 111 97 79
5 57 87 40 41 30
5 53 108 90 78 32
5 70 81 32 33 36
5 106 59 17 8 38
5 59 20 21 32 114
5 8 108 20 72 36
5 12 40 112 72 15
5 104 72 24 9 28
5 9 30 59 15 111
5 89 32 9 8 40

# Cells
7 0 1 2 3 4 5 6
7 7 8 9 10 11 12 13
7 14 15 16 17 18 19 20
7 21 22 23 24 25 26 27
7 28 29 30 31 32 33 34
7 35 36 37 38 39 40 41
7 42 43 44 45 46 47 48
7 49 50 51 52 53 54 55
7 56 57 58 59 60 61 62
7 63 64 65 66 67 68 69
7 70 71 72 73 74 75 76
7 77 78 79 80 81 82 83
7 84 85 86 87 88 89 90
7 91 92 93 94 95 96 97
7 98 99 100 101 102 103 104
7 105 106 107 108 109 110 111
7 112 113 114 115 116 117 118
7 119 120 121 122 123 124 125
7 126 127 128 129 130 131 132
7 133 134 135 136 137 138 139
7 140 141 142 143 144 145 146
7 147 148 149 150 151 152 153
7 154 155 156 157 158 159 160
7 161 162 163 164 165 166 167
7 168 169 170 171 172 173 174
7 94 175 176 177 178 179 180
7 181 182 183 184 185 186 187
7 188 189 190 191 192 193 194
7 108 195 196 197 198 199 200
7 201 202 203 204 205 206 207
7 99 208 209 210 211 212 213
7 107 214 215 216 217 218 219
7 157 220 221 222 223 224 225
7 226 227 228 229 230 231 232
7 233 234 235 236 237 238 239
7 162 240 241 242 243 244 245
7 143 246 247 248 249 250 251
7 87 252 253 254 255 256 257
7 65 258 259 260 261 262 263
7 151 264 265 266 267 268 269
7 270 271 272 273 274 275 276
7 277 278 279 280 281 282 283
7 81 284 285 286 287 288 289
7 290 291 292 293 294 295 296
7 297 298 299 300 301 302 303
7 51 304 305 306 307 308 309
7 310 311 312 313 314 315 316
7 317 318 319 320 321 322 323
7 142 324 325 326 327 328 329
7 330 331 332 333 334 335 336
7 337 338 339 340 341 342 343
7 148 344 345 346 347 348 349
7 44 350 351 352 353 354 355
7 78 356 357 358 359 360 361
7 362 363 364 365 366 367 368
7 57 369 370 371 372 373 374
7 375 376 377 378 379 380 381
7 382 383 384 385 386 387 388
7 86 389 390 391 392 393 394
7 376 395 396 397 398 399 400
7 401 402 403 404 405 406 407
7 349 408 409 410 411 412 413
7 74 414 415 416 417 418 419
7 402 420 421 422 423 424 425
7 338 426 427 428 429 430 431
7 8 432 433 434 435 436 437
7 327 438 439 440 441 442 443
7 382 444 445 446 447 448 449
7 156 281 450 451 452 453 454
7 71 455 456 457 458 459 460
7 17 461 462 463 464 465 466
7 165 314 467 468 469 470 471
7 418 472 473 474 475 476 477
7 330 478 479 480 481 482 483
7 36 405 484 485 486 487 488
7 460 472 489 490 491 492 493
7 393 494 495 496 497 498 499
7 102 295 500 501 502 503 504
7 364 505 506 507 508 509 510
7 359 511 512 513 514 515 516
7 129 517 518 519 520 521 522
7 39 422 523 524 525 526 527
7 93 275 528 529 530 531 532
7 135 533 534 535 536 537 538
7 116 507 539 540 541 542 543
7 267 408 544 545 546 547 548
7 255 494 549 550 551 552 553
7 123 480 554 555 556 557 558
7 60 302 559 560 561 562 563
7 31 448 564 565 566 567 568
7 250 438 569 570 571 572 573
7 45 320 574 575 576 577 578
7 198 579 580 581 582 583 584
7 287 513 585 586 587 588 589
7 24 428 590 591 592 593 594
7 217 579 595 596 597 598 599
7 113 365 600 601 602 603 604
7 23 341 605 606 607 608 609
7 52 172 610 611 612 613 614
7 120 336 615 616 617 618 619
7 183 465 620 621 622 623 624
7 202 521 625 626 627 628 629
7 30 388 630 631 632 633 634
7 228 436 635 636 637 638 639
7 319 355 640 641 642 643 644
7 66 194 645 646 647 648 649
7 234 538 650 651 652 653 654
7 298 373 655 656 657 658 659
7 188 262 660 661 662 663 664
7 16 184 665 666 667 668 669
7 178 270 670 671 672 673 674
7 170 307 675 676 677 678 679
7 1 379 680 681 682 683 684
7 224 278 685 686 687 688 689
7 11 229 690 691 692 693 694
7 4 397 695 696 697 698 699
7 128 205 700 701 702 703 704
7 213 291 705 706 707 708 709
7 243 311 710 711 712 713 714
7 136 237 715 716 717 718 719
7 0 381 400 680 695 720 721
7 7 231 432 638 690 722 723
7 14 186 461 623 665 724 725
7 21 343 431 590 605 726 727
7 28 386 447 564 630 728 729
7 35 406 424 484 523 730 731
7 42 323 350 574 643 732 733
7 49 173 304 610 678 734 735
7 56 300 369 559 657 736 737
7 63 192 258 645 663 738 739
7 70 414 455 476 492 740 741
7 77 284 356 515 588 742 743
7 84 252 389 498 552 744 745
7 91 175 274 528 672 746 747
7 98 208 294 500 708 748 749
7 105 195 214 583 597 750 751
7 112 368 510 539 600 752 753
7 119 334 482 554 615 754 755
7 126 206 517 628 700 756 757
7 133 239 533 654 715 758 759
7 140 246 324 441 571 760 761
7 147 264 344 412 547 762 763
7 154 220 282 450 688 764 765
7 161 240 313 467 712 766 767
7 53 174 306 611 679 735 768
7 97 180 272 532 671 769 770
7 18 187 463 624 667 725 771
7 67 193 260 646 664 739 772
7 110 199 218 580 595 773 774
7 130 207 518 629 702 757 775
7 104 212 292 504 706 776 777
7 111 200 219 581 596 773 778
7 160 225 279 454 686 779 780
7 10 232 434 639 692 723 781
7 134 236 534 652 717 758 782
7 167 245 312 470 711 783 784
7 145 249 329 439 569 785 786
7 90 257 394 496 550 787 788
7 69 190 263 649 661 772 789
7 153 269 348 410 545 790 791
7 95 177 276 530 674 747 770
7 158 221 283 452 689 765 780
7 82 288 360 511 585 792 793
7 101 210 296 502 709 749 777
7 59 303 371 560 659 737 794
7 55 169 309 614 676 768 795
7 163 241 315 469 713 766 784
7 46 322 352 575 644 733 796
7 146 251 328 440 570 785 797
7 122 335 481 555 617 755 798
7 25 342 430 592 607 727 799
7 152 268 347 409 544 790 800
7 48 318 354 578 641 796 801
7 83 289 361 512 586 792 802
7 115 367 509 540 602 753 803
7 62 299 374 563 656 794 804
7 2 378 398 681 697 720 805
7 29 385 446 565 631 728 806
7 89 256 392 495 549 787 807
7 3 380 399 682 696 721 808
7 37 407 425 485 525 730 809
7 150 265 346 411 548 763 791
7 76 419 459 474 490 810 811
7 38 404 423 486 524 731 812
7 22 340 429 591 606 726 813
7 13 227 437 636 694 781 814
7 144 247 326 443 573 761 786
7 32 387 449 566 632 729 815
7 159 223 277 453 685 779 816
7 75 417 458 473 489 810 817
7 20 182 466 621 669 771 818
7 166 244 310 471 710 783 819
7 73 415 457 475 491 741 817
7 121 333 483 556 616 754 820
7 40 401 420 487 526 812 821
7 72 416 456 477 493 740 811
7 88 254 391 499 553 745 788
7 103 211 290 503 705 776 822
7 114 366 508 541 601 752 823
7 79 285 357 514 587 742 793
7 132 203 522 626 704 775 824
7 41 403 421 488 527 809 821
7 96 179 271 531 670 769 825
7 138 233 536 650 719 782 826
7 118 363 506 543 604 803 827
7 149 266 345 413 546 762 800
7 85 253 390 497 551 744 807
7 125 332 479 557 619 798 828
7 61 297 372 562 655 804 829
7 33 383 444 567 633 806 830
7 141 248 325 442 572 760 797
7 47 317 353 577 640 801 831
7 109 196 216 584 599 751 778
7 80 286 358 516 589 743 802
7 27 339 427 594 609 799 832
7 106 197 215 582 598 750 774
7 117 362 505 542 603 823 827
7 26 337 426 593 608 813 832
7 54 168 308 613 675 795 833
7 124 331 478 558 618 820 828
7 15 185 462 622 666 724 834
7 127 204 519 627 701 756 835
7 34 384 445 568 634 815 830
7 9 230 433 637 691 722 836
7 43 321 351 576 642 732 831
7 68 189 261 648 660 789 837
7 137 238 535 653 716 759 838
7 58 301 370 561 658 736 829
7 64 191 259 647 662 738 837
7 19 181 464 620 668 818 834
7 92 176 273 529 673 746 825
7 50 171 305 612 677 734 833
7 6 377 396 684 699 808 839
7 155 222 280 451 687 764 816
7 12 226 435 635 693 814 836
7 5 375 395 683 698 805 839
7 131 201 520 625 703 824 835
7 100 209 293 501 707 748 822
7 164 242 316 468 714 767 819
7 139 235 537 651 718 826 838
