# Generated using Miratope v0.5.0 (https://github.com/galoomba1/miratope-rs)
4OFF

# Vertices, Faces, Edges, Cells
96 768 672 192

# Vertices
0 0.5 0.809016994374945 1.30901699437495 
0.5 1.30901699437495 0.809016994374945 0 
1.30901699437495 0 0.809016994374945 0.5 
0 -0.809016994374945 1.30901699437495 0.5 
-0.809016994374945 0.5 1.30901699437495 0 
0.5 0 1.30901699437495 -0.809016994374945 
0 0.809016994374945 1.30901699437495 0.5 
0 -0.5 0.809016994374945 1.30901699437495 
-0.809016994374945 -0.5 1.30901699437495 0 
0.5 -1.30901699437495 0.809016994374945 0 
0.5 0.809016994374945 0 1.30901699437495 
1.30901699437495 0.809016994374945 0.5 0 
0.809016994374945 -0.5 1.30901699437495 0 
1.30901699437495 -0.5 0 0.809016994374945 
0 1.30901699437495 0.5 0.809016994374945 
0.809016994374945 0 0.5 1.30901699437495 
0 0.809016994374945 1.30901699437495 -0.5 
-0.5 0 1.30901699437495 0.809016994374945 
0.809016994374945 0.5 1.30901699437495 0 
1.30901699437495 0.5 0 0.809016994374945 
0.5 -0.809016994374945 0 1.30901699437495 
1.30901699437495 -0.809016994374945 0.5 0 
0 -1.30901699437495 0.5 0.809016994374945 
0 -0.809016994374945 1.30901699437495 -0.5 
0.5 0 1.30901699437495 0.809016994374945 
1.30901699437495 0 0.809016994374945 -0.5 
1.30901699437495 0.809016994374945 -0.5 0 
0.809016994374945 1.30901699437495 0 -0.5 
0.809016994374945 1.30901699437495 0 0.5 
0 1.30901699437495 0.5 -0.809016994374945 
1.30901699437495 0.5 0 -0.809016994374945 
0.5 0.809016994374945 0 -1.30901699437495 
1.30901699437495 -0.5 0 -0.809016994374945 
1.30901699437495 0 -0.809016994374945 0.5 
0.809016994374945 0 0.5 -1.30901699437495 
1.30901699437495 0 -0.809016994374945 -0.5 
0 0.5 0.809016994374945 -1.30901699437495 
0 -0.5 0.809016994374945 -1.30901699437495 
-0.5 0 1.30901699437495 -0.809016994374945 
0.5 -0.809016994374945 0 -1.30901699437495 
0 -1.30901699437495 0.5 -0.809016994374945 
1.30901699437495 -0.809016994374945 -0.5 0 
0.809016994374945 -1.30901699437495 0 -0.5 
0.809016994374945 -1.30901699437495 0 0.5 
-0.809016994374945 0 0.5 1.30901699437495 
-1.30901699437495 -0.809016994374945 0.5 0 
0 -0.5 -0.809016994374945 1.30901699437495 
-0.5 -1.30901699437495 -0.809016994374945 0 
-1.30901699437495 0 -0.809016994374945 0.5 
0 0.5 -0.809016994374945 1.30901699437495 
0 -0.809016994374945 -1.30901699437495 0.5 
-0.809016994374945 -1.30901699437495 0 0.5 
-1.30901699437495 0 0.809016994374945 0.5 
-0.809016994374945 0 -0.5 1.30901699437495 
-0.5 -1.30901699437495 0.809016994374945 0 
-1.30901699437495 -0.809016994374945 -0.5 0 
0 -1.30901699437495 -0.5 0.809016994374945 
-0.5 0.809016994374945 0 1.30901699437495 
-1.30901699437495 -0.5 0 0.809016994374945 
0.809016994374945 0 -0.5 1.30901699437495 
-0.5 0 -1.30901699437495 0.809016994374945 
-1.30901699437495 0.5 0 0.809016994374945 
-0.5 -0.809016994374945 0 1.30901699437495 
-1.30901699437495 0 -0.809016994374945 -0.5 
-0.809016994374945 0.5 -1.30901699437495 0 
-0.809016994374945 1.30901699437495 0 0.5 
-1.30901699437495 0.5 0 -0.809016994374945 
-1.30901699437495 0.809016994374945 -0.5 0 
-1.30901699437495 -0.5 0 -0.809016994374945 
-0.809016994374945 -0.5 -1.30901699437495 0 
-1.30901699437495 0.809016994374945 0.5 0 
-0.5 1.30901699437495 -0.809016994374945 0 
0 0.809016994374945 -1.30901699437495 0.5 
0 1.30901699437495 -0.5 0.809016994374945 
-0.5 1.30901699437495 0.809016994374945 0 
-1.30901699437495 0 0.809016994374945 -0.5 
0.809016994374945 0.5 -1.30901699437495 0 
0 0.5 -0.809016994374945 -1.30901699437495 
0 -0.809016994374945 -1.30901699437495 -0.5 
0.5 0 -1.30901699437495 -0.809016994374945 
0.5 -1.30901699437495 -0.809016994374945 0 
0.5 1.30901699437495 -0.809016994374945 0 
0 0.809016994374945 -1.30901699437495 -0.5 
0 -0.5 -0.809016994374945 -1.30901699437495 
0.809016994374945 -0.5 -1.30901699437495 0 
0.809016994374945 0 -0.5 -1.30901699437495 
-0.5 0.809016994374945 0 -1.30901699437495 
0 1.30901699437495 -0.5 -0.809016994374945 
-0.809016994374945 0 0.5 -1.30901699437495 
-0.809016994374945 0 -0.5 -1.30901699437495 
-0.5 -0.809016994374945 0 -1.30901699437495 
0 -1.30901699437495 -0.5 -0.809016994374945 
0.5 0 -1.30901699437495 0.809016994374945 
-0.5 0 -1.30901699437495 -0.809016994374945 
-0.809016994374945 -1.30901699437495 0 -0.5 
-0.809016994374945 1.30901699437495 0 -0.5 

# Faces
3 0 1 2
3 0 4 1
3 0 2 3
3 0 4 3
3 1 2 5
3 1 4 5
3 3 5 2
3 3 5 4
3 2 6 5
3 2 7 6
3 6 8 5
3 6 8 7
3 2 9 5
3 9 7 2
3 5 8 9
3 7 8 9
3 6 10 11
3 7 10 6
3 6 12 11
3 6 7 12
3 10 11 13
3 7 13 10
3 11 13 12
3 12 13 7
3 14 15 11
3 15 17 14
3 11 16 14
3 14 16 17
3 11 15 12
3 15 12 17
3 12 16 11
3 17 12 16
3 18 19 0
3 3 18 0
3 0 19 20
3 0 20 3
3 18 21 19
3 18 21 3
3 19 20 21
3 3 20 21
3 21 15 18
3 15 18 17
3 22 21 15
3 15 17 22
3 18 23 21
3 18 17 23
3 21 23 22
3 22 23 17
3 24 1 10
3 13 24 10
3 1 25 24
3 24 25 13
3 1 26 10
3 10 13 26
3 1 25 26
3 25 26 13
3 14 24 19
3 14 16 24
3 14 19 27
3 16 27 14
3 25 19 24
3 25 16 24
3 27 25 19
3 27 25 16
3 6 28 2
3 6 28 29
3 5 29 6
3 28 30 2
3 29 30 28
3 2 5 30
3 29 5 30
3 2 26 1
3 1 5 31
3 1 31 26
3 2 32 5
3 26 32 2
3 5 32 31
3 26 32 31
3 15 18 28
3 28 33 15
3 15 33 21
3 28 30 18
3 18 30 21
3 28 30 33
3 30 21 33
3 19 27 18
3 18 34 21
3 18 34 27
3 19 35 21
3 19 27 35
3 34 35 21
3 34 27 35
3 1 24 4
3 24 4 23
3 25 23 24
3 1 36 4
3 25 36 1
3 36 4 23
3 25 23 36
3 25 9 24
3 9 24 8
3 24 16 8
3 25 37 9
3 9 37 8
3 16 37 25
3 37 8 16
3 6 29 11
3 29 38 6
3 6 38 12
3 34 29 11
3 11 34 12
3 29 38 34
3 12 38 34
3 11 16 31
3 32 11 31
3 11 32 12
3 37 31 16
3 31 37 32
3 12 37 16
3 37 32 12
3 18 30 36
3 23 18 36
3 30 39 36
3 36 39 23
3 30 21 39
3 23 39 21
3 34 38 18
3 18 38 3
3 34 40 21
3 38 40 34
3 3 21 40
3 40 38 3
3 19 24 20
3 24 20 9
3 19 20 41
3 25 41 19
3 9 20 41
3 25 41 9
3 24 22 13
3 22 24 23
3 13 42 22
3 22 42 23
3 13 42 25
3 25 23 42
3 15 33 11
3 15 33 43
3 15 43 12
3 11 33 32
3 33 32 43
3 12 43 32
3 34 11 35
3 11 35 13
3 12 42 34
3 34 35 42
3 13 42 12
3 13 35 42
3 2 41 9
3 30 41 2
3 5 39 9
3 41 39 9
3 30 39 5
3 30 41 39
3 2 43 3
3 32 2 43
3 3 43 40
3 43 40 32
3 3 5 40
3 32 40 5
3 44 45 22
3 22 46 44
3 22 45 47
3 46 47 22
3 44 48 45
3 44 46 48
3 45 47 48
3 48 47 46
3 20 44 49
3 49 20 50
3 44 48 49
3 49 48 50
3 44 51 20
3 20 50 51
3 44 51 48
3 50 48 51
3 3 52 0
3 52 53 0
3 20 53 0
3 52 3 51
3 51 53 52
3 20 3 51
3 20 51 53
3 52 54 7
3 52 7 53
3 54 55 52
3 52 55 53
3 7 54 56
3 7 53 56
3 54 55 56
3 53 55 56
3 22 15 46
3 15 17 57
3 15 46 57
3 22 58 17
3 22 58 46
3 17 57 58
3 57 46 58
3 7 57 59
3 57 58 7
3 56 59 7
3 56 58 7
3 59 60 57
3 57 60 58
3 59 60 56
3 56 60 58
3 45 62 61
3 61 45 63
3 61 60 62
3 61 60 63
3 45 62 47
3 45 63 47
3 60 47 62
3 47 63 60
3 61 49 64
3 62 49 61
3 61 55 64
3 62 55 61
3 49 50 64
3 50 62 49
3 50 64 55
3 62 55 50
3 52 66 65
3 53 65 52
3 55 66 52
3 64 66 65
3 64 53 65
3 55 66 64
3 55 64 53
3 52 51 68
3 52 53 67
3 52 68 67
3 51 53 69
3 51 69 68
3 67 69 53
3 69 68 67
3 57 58 70
3 70 57 71
3 70 63 58
3 71 63 70
3 57 71 60
3 60 63 58
3 63 71 60
3 72 67 57
3 57 72 46
3 67 72 69
3 46 69 72
3 57 67 58
3 67 69 58
3 58 46 69
3 15 49 14
3 49 14 61
3 14 61 17
3 49 15 62
3 17 62 15
3 62 17 61
3 0 73 61
3 61 0 62
3 0 73 59
3 0 59 62
3 60 73 61
3 60 73 59
3 59 62 60
3 14 70 44
3 70 71 14
3 49 14 44
3 14 71 49
3 48 70 44
3 71 48 70
3 49 48 71
3 10 65 72
3 72 46 10
3 44 65 10
3 44 46 10
3 65 48 72
3 46 48 72
3 44 48 65
3 0 52 74
3 0 73 74
3 0 53 73
3 52 67 74
3 73 67 74
3 53 73 67
3 10 6 65
3 52 65 6
3 6 52 7
3 65 10 53
3 7 10 53
3 0 61 4
3 0 62 3
3 61 45 4
3 3 45 4
3 45 3 62
3 61 75 17
3 61 75 55
3 17 75 54
3 17 62 54
3 55 75 54
3 55 54 62
3 44 4 65
3 45 44 4
3 65 66 4
3 45 66 4
3 65 48 66
3 45 66 48
3 70 8 44
3 70 68 48
3 70 8 68
3 51 8 44
3 51 68 48
3 68 8 51
3 57 74 17
3 75 74 17
3 17 75 58
3 67 57 74
3 74 67 75
3 67 75 58
3 70 6 57
3 6 70 8
3 7 57 6
3 70 8 58
3 8 58 7
3 76 30 77
3 30 76 41
3 76 77 78
3 41 78 76
3 39 77 30
3 39 78 77
3 39 41 78
3 30 79 33
3 33 21 80
3 33 79 80
3 30 39 79
3 21 80 39
3 79 39 80
3 31 81 11
3 33 81 11
3 31 81 79
3 31 79 32
3 33 79 81
3 33 32 79
3 26 82 31
3 31 83 82
3 31 32 83
3 26 82 84
3 26 84 32
3 82 84 83
3 84 83 32
3 19 27 76
3 19 76 41
3 76 85 27
3 41 85 76
3 27 85 25
3 25 41 85
3 26 85 25
3 25 42 85
3 26 84 13
3 42 84 13
3 84 85 26
3 85 42 84
3 29 81 11
3 11 81 35
3 29 77 34
3 34 35 77
3 29 81 77
3 81 77 35
3 34 86 27
3 34 83 86
3 35 83 34
3 82 86 27
3 35 82 27
3 82 83 86
3 82 35 83
3 16 86 27
3 16 86 37
3 27 85 86
3 25 37 85
3 86 85 37
3 36 87 1
3 1 26 87
3 25 85 36
3 85 87 36
3 26 85 87
3 29 88 5
3 30 77 29
3 77 88 29
3 39 88 5
3 77 39 88
3 30 87 36
3 36 89 39
3 36 89 87
3 30 79 87
3 39 89 79
3 79 87 89
3 34 77 90
3 34 42 90
3 78 35 77
3 77 90 78
3 42 78 35
3 78 90 42
3 34 40 83
3 21 40 80
3 35 80 21
3 40 83 80
3 35 80 83
3 36 90 85
3 36 90 23
3 42 90 85
3 42 90 23
3 9 91 37
3 41 91 9
3 37 85 91
3 41 91 85
3 5 31 88
3 31 83 88
3 5 88 40
3 83 88 40
3 32 40 83
3 79 31 89
3 31 37 89
3 79 91 32
3 79 91 89
3 37 91 32
3 91 89 37
3 24 44 14
3 14 49 19
3 20 24 44
3 20 49 19
3 24 44 10
3 22 24 44
3 10 46 13
3 22 46 13
3 6 57 28
3 28 2 59
3 59 28 57
3 2 59 7
3 0 2 59
3 2 59 43
3 3 62 43
3 62 43 59
3 4 44 24
3 22 45 23
3 4 45 23
3 24 44 8
3 9 51 20
3 9 51 8
3 15 43 62
3 12 54 43
3 62 43 54
3 17 54 12
3 6 52 38
3 54 38 52
3 12 54 7
3 12 38 54
3 10 1 65
3 1 65 4
3 14 70 16
3 16 70 8
3 15 57 28
3 18 74 28
3 17 18 74
3 57 28 74
3 0 74 18
3 18 74 38
3 3 38 52
3 52 38 74
3 92 81 10
3 53 92 10
3 10 65 81
3 92 81 64
3 53 92 64
3 64 81 65
3 92 73 82
3 53 92 73
3 82 69 92
3 53 92 69
3 73 82 67
3 69 82 67
3 73 26 59
3 26 73 82
3 73 60 82
3 84 59 26
3 60 84 59
3 82 84 60
3 28 59 76
3 76 71 28
3 57 71 28
3 59 76 60
3 60 71 76
3 81 49 33
3 64 49 81
3 49 50 33
3 81 64 79
3 33 50 79
3 50 64 79
3 50 76 49
3 71 76 49
3 76 93 50
3 76 93 71
3 50 48 93
3 71 93 48
3 10 72 26
3 84 72 26
3 46 84 72
3 84 46 13
3 33 46 15
3 28 72 33
3 57 72 28
3 72 33 46
3 0 73 19
3 19 92 20
3 92 19 73
3 53 20 92
3 10 13 92
3 92 13 56
3 56 92 53
3 7 13 56
3 76 49 19
3 76 50 41
3 20 41 50
3 33 49 15
3 33 50 43
3 50 43 62
3 33 79 72
3 69 79 72
3 80 46 33
3 80 69 79
3 46 80 69
3 48 72 93
3 84 93 72
3 48 93 47
3 46 84 47
3 93 47 84
3 64 78 92
3 92 78 56
3 55 78 64
3 55 78 56
3 92 20 80
3 69 80 92
3 51 80 20
3 69 80 51
3 41 59 76
3 76 78 60
3 59 41 56
3 56 60 78
3 78 56 41
3 43 84 59
3 47 43 84
3 47 43 62
3 60 84 47
3 76 85 93
3 41 91 50
3 50 91 93
3 85 91 93
3 84 93 85
3 85 90 93
3 42 47 84
3 42 90 47
3 47 90 93
3 79 91 50
3 50 91 55
3 79 89 64
3 64 89 55
3 89 55 91
3 79 89 69
3 39 94 80
3 89 94 39
3 80 69 94
3 89 69 94
3 80 92 35
3 35 92 82
3 83 69 80
3 82 69 83
3 63 82 60
3 82 63 83
3 83 47 84
3 63 83 47
3 87 72 26
3 93 87 72
3 85 87 93
3 76 71 27
3 27 71 86
3 85 93 86
3 71 86 93
3 81 92 35
3 78 92 35
3 81 64 77
3 78 77 64
3 76 71 77
3 63 77 71
3 78 63 77
3 63 78 60
3 31 95 81
3 89 95 31
3 81 95 64
3 89 95 64
3 79 72 87
3 72 87 67
3 89 67 87
3 69 89 67
3 87 66 36
3 36 66 90
3 87 66 93
3 93 90 66
3 37 86 68
3 37 68 91
3 86 93 68
3 93 68 91
3 64 77 66
3 90 66 77
3 55 90 66
3 78 55 90
3 88 63 77
3 88 94 39
3 39 78 94
3 88 63 94
3 63 94 78
3 31 88 95
3 31 82 95
3 63 95 88
3 83 63 88
3 63 95 82
3 82 86 67
3 67 86 68
3 86 83 68
3 69 83 68
3 88 70 29
3 70 71 29
3 70 88 63
3 29 71 77
3 81 29 65
3 66 29 65
3 77 66 29
3 87 65 1
3 4 66 36
3 66 87 65
3 74 75 36
3 87 74 36
3 36 75 89
3 74 87 67
3 67 89 75
3 14 27 71
3 86 70 16
3 71 86 70
3 74 27 73
3 82 73 27
3 86 74 27
3 67 86 74
3 14 81 11
3 81 95 14
3 14 16 95
3 31 16 95
3 31 1 95
3 26 1 73
3 1 73 95
3 82 73 95
3 30 76 28
3 28 29 71
3 18 74 36
3 30 87 28
3 74 87 28
3 1 95 4
3 5 88 4
3 88 95 4
3 37 75 16
3 16 75 95
3 37 75 89
3 89 75 95
3 34 38 90
3 29 66 38
3 66 38 90
3 18 74 27
3 34 86 38
3 74 86 38
3 28 87 72
3 2 59 41
3 19 35 92
3 27 73 19
3 11 10 81
3 13 92 35
3 43 91 50
3 32 91 43
3 2 59 26
3 43 84 32
3 20 80 21
3 13 56 42
3 42 56 78
3 48 93 66
3 66 45 90
3 47 45 90
3 50 51 91
3 68 91 51
3 68 93 48
3 58 94 56
3 56 94 78
3 63 58 94
3 75 94 58
3 89 75 94
3 69 58 94
3 65 87 72
3 68 86 70
3 73 95 61
3 63 61 95
3 61 95 64
3 61 95 75
3 55 89 75
3 40 88 45
3 45 47 40
3 83 40 47
3 45 88 63
3 23 75 36
3 39 23 94
3 94 23 75
3 75 37 54
3 91 54 37
3 54 91 55
3 40 68 38
3 40 68 83
3 86 68 38
3 90 45 23
3 52 66 38
3 38 54 90
3 54 90 55
3 68 38 52
3 8 37 68
3 4 61 95
3 45 88 4
3 70 8 88
3 88 94 8
3 58 94 8
3 6 29 65
3 14 81 49
3 0 73 1
3 9 56 7
3 41 9 56
3 21 22 80
3 22 80 46
3 40 51 80
3 51 40 68
3 9 51 91
3 42 47 22
3 56 54 42
3 90 42 54
3 39 9 94
3 9 94 8
3 5 88 8
3 42 54 12
3 43 47 40
3 80 22 94
3 23 22 94
3 94 9 56
3 54 91 43
3 37 54 12
3 29 70 6
3 23 75 17
3 14 61 95
3 17 75 16
3 58 94 22
3 40 45 3
3 40 51 3

# Cells
8 0 1 2 3 4 5 6 7
8 8 9 10 11 12 13 14 15
8 16 17 18 19 20 21 22 23
8 24 25 26 27 28 29 30 31
8 32 33 34 35 36 37 38 39
8 40 41 42 43 44 45 46 47
8 48 49 50 51 52 53 54 55
8 56 57 58 59 60 61 62 63
8 8 64 65 66 67 68 69 70
8 4 71 72 73 74 75 76 77
8 40 78 79 80 81 82 83 84
8 36 85 86 87 88 89 90 91
8 50 92 93 94 95 96 97 98
8 61 99 100 101 102 103 104 105
8 18 106 107 108 109 110 111 112
8 30 113 114 115 116 117 118 119
8 44 82 120 121 122 123 124 125
8 37 86 126 127 128 129 130 131
8 60 99 132 133 134 135 136 137
8 51 94 138 139 140 141 142 143
8 28 115 144 145 146 147 148 149
8 22 110 150 151 152 153 154 155
8 12 69 156 157 158 159 160 161
8 6 74 162 163 164 165 166 167
8 168 169 170 171 172 173 174 175
8 176 177 178 179 180 181 182 183
8 35 184 185 186 187 188 189 190
8 191 192 193 194 195 196 197 198
8 43 199 200 201 202 203 204 205
8 206 207 208 209 210 211 212 213
8 214 215 216 217 218 219 220 221
8 222 223 224 225 226 227 228 229
8 194 230 231 232 233 234 235 236
8 188 237 238 239 240 241 242 243
8 211 244 245 246 247 248 249 250
8 205 251 252 253 254 255 256 257
8 25 223 258 259 260 261 262 263
8 216 264 265 266 267 268 269 270
8 178 271 272 273 274 275 276 277
8 173 278 279 280 281 282 283 284
8 185 238 285 286 287 288 289 290
8 17 192 231 291 292 293 294 295
8 3 214 265 296 297 298 299 300
8 225 263 301 302 303 304 305 306
8 172 284 307 308 309 310 311 312
8 182 275 313 314 315 316 317 318
8 204 255 319 320 321 322 323 324
8 11 207 244 325 326 327 328 329
8 161 330 331 332 333 334 335 336
8 84 124 337 338 339 340 341 342
8 114 147 343 344 345 346 347 348
8 77 349 350 351 352 353 354 355
8 62 135 356 357 358 359 360 361
8 55 142 362 363 364 365 366 367
8 109 150 368 369 370 371 372 373
8 91 374 375 376 377 378 379 380
8 63 104 360 381 382 383 384 385
8 54 96 362 386 387 388 389 390
8 70 160 334 391 392 393 394 395
8 122 340 396 397 398 399 400 401
8 153 371 402 403 404 405 406 407
8 90 128 376 408 409 410 411 412
8 98 143 363 388 413 414 415 416
8 102 137 361 384 417 418 419 420
8 76 167 351 421 422 423 424 425
8 117 346 426 427 428 429 430 431
8 56 132 176 273 432 433 434 435
8 49 138 169 281 436 437 438 439
8 9 64 206 327 440 441 442 443
8 2 162 267 297 444 445 446 447
8 93 139 168 308 437 448 449 450
8 100 133 180 316 434 451 452 453
8 29 146 262 304 454 455 456 457
8 19 108 191 293 458 459 460 461
8 48 92 280 307 436 448 462 463
8 57 101 271 313 432 451 464 465
8 41 78 200 319 466 467 468 469
8 33 127 184 285 470 471 472 473
8 234 294 474 475 476 477 478 479
8 242 290 480 481 482 483 484 485
8 269 352 486 487 488 489 490 491
8 210 248 442 492 493 494 495 496
8 226 347 497 498 499 500 501 502
8 179 277 503 504 505 506 507 508
8 53 279 364 438 509 510 511 512
8 79 201 252 466 513 514 515 516
8 34 186 287 481 517 518 519 520
8 21 196 295 475 521 522 523 524
8 134 177 357 435 503 525 526 527
8 145 227 261 454 499 528 529 530
8 254 339 516 531 532 533 534 535
8 175 283 511 536 537 538 539 540
8 198 236 478 523 541 542 543 544
8 190 240 483 520 545 546 547 548
8 212 333 495 549 550 551 552 553
8 220 270 447 490 554 555 556 557
8 359 420 505 526 558 559 560 561
8 367 415 540 562 563 564 565 566
8 228 429 502 567 568 569 570 571
8 342 400 534 572 573 574 575 576
8 380 412 482 546 577 578 579 580
8 221 354 491 557 581 582 583 584
8 366 390 510 537 562 585 586 587
8 358 383 506 558 588 589 590 591
8 373 404 477 541 592 593 594 595
8 250 332 496 550 596 597 598 599
8 345 426 500 569 600 601 602 603
8 253 401 532 572 604 605 606 607
8 389 413 563 587 608 609 610 611
8 385 419 561 590 612 613 614 615
8 235 405 543 595 616 617 618 619
8 335 395 598 620 621 622 623 624
8 350 422 582 625 626 627 628 629
8 243 379 485 580 630 631 632 633
8 247 393 597 620 634 635 636 637
8 233 372 479 594 616 638 639 640
8 95 309 386 463 608 641 642 643
8 323 398 606 644 645 646 647 648
8 59 272 381 464 589 649 650 651
8 289 377 484 630 652 653 654 655
8 26 113 343 600 656 657 658 659
8 73 349 487 626 660 661 662 663
8 68 330 392 493 596 637 664 665
8 81 120 396 467 645 666 667 668
8 5 72 421 625 660 669 670 671
8 116 427 601 659 672 673 674 675
8 111 370 402 617 640 676 677 678
8 87 126 374 471 654 679 680 681
8 83 337 399 514 531 604 667 682
8 67 157 331 441 492 549 664 683
8 89 378 480 519 578 653 684 685
8 20 151 369 474 521 592 686 687
8 148 348 428 501 529 567 688 689
8 75 163 353 445 489 554 690 691
8 38 88 410 518 545 577 684 692
8 155 406 522 542 593 687 693 694
8 174 312 538 566 611 695 696 697
8 183 317 507 560 615 698 699 700
8 213 249 552 599 624 701 702 703
8 256 324 576 607 648 704 705 706
8 282 311 536 586 610 643 695 707
8 276 314 508 591 614 651 700 708
8 217 268 488 581 629 663 709 710
8 224 302 570 603 675 711 712 713
8 219 424 584 628 714 715 716 717
8 123 397 574 646 705 718 719 720
8 305 431 571 674 713 721 722 723
8 129 375 408 632 680 724 725 726
8 97 310 414 450 609 642 696 727
8 193 232 459 618 678 728 729 730
8 239 288 473 631 655 681 726 731
8 105 315 382 465 612 650 708 732
8 215 298 627 671 710 717 733 734
8 246 328 623 636 703 735 736 737
8 58 274 356 433 504 525 588 649
8 52 278 387 462 509 585 641 707
8 16 106 291 368 476 638 686 738
8 32 85 286 470 517 652 679 685
8 24 144 258 344 497 528 656 739
8 0 71 266 444 486 661 690 740
8 13 156 208 443 551 683 741 742
8 42 80 199 338 513 533 743 744
8 241 411 548 579 633 725 745 746
8 103 318 417 453 613 699 732 747
8 141 170 416 449 565 697 727 748
8 197 407 544 619 694 730 749 750
8 14 158 394 621 736 751 752 753
8 112 152 403 461 676 729 750 754
8 165 355 425 555 583 691 716 755
8 46 125 341 573 719 743 756 757
8 159 336 553 622 702 742 751 758
8 119 149 430 455 689 722 759 760
8 107 230 292 458 639 677 728 738
8 10 66 326 391 634 735 753 761
8 45 121 320 468 644 666 718 762
8 27 260 301 658 673 712 763 764
8 65 245 325 440 494 635 665 761
8 1 264 296 662 669 709 733 740
8 222 259 498 602 657 711 739 763
8 251 322 469 515 605 647 668 682
8 203 257 535 575 706 744 756 765
8 136 181 418 452 527 559 698 747
8 229 306 456 530 568 688 723 759
8 140 171 365 439 512 539 564 748
8 164 218 300 446 556 715 755 766
8 131 187 237 472 724 731 746 767
8 47 202 321 704 720 757 762 765
8 15 209 329 701 737 741 752 758
8 31 118 303 457 672 721 760 764
8 7 166 299 423 670 714 734 766
8 23 154 195 460 524 693 749 754
8 39 130 189 409 547 692 745 767
