# Generated using Miratope v0.5.0 (https://github.com/galoomba1/miratope-rs)
4OFF

# Vertices, Faces, Edges, Cells
120 3120 1200 240

# Vertices
1.3090169943749 0 0.8090169943749 0.5 
1.3090169943749 0.5 0 -0.8090169943749 
1.3090169943749 0.8090169943749 -0.5 0 
0.809016994375 -0.8090169943749 0.8090169943749 -0.8090169943749 
0.5 -1.3090169943749 0.8090169943749 0 
0.809016994375 0 -0.5 1.3090169943749 
0.5 -0.8090169943749 0 1.3090169943749 
1.3090169943749 -0 0.8090169943749 -0.5 
1.3090169943749 0.5 0 0.8090169943749 
0.809016994375 -0.8090169943749 0.8090169943749 0.8090169943749 
0.809016994375 0 -0.5 -1.3090169943749 
0.5 -0.8090169943749 0 -1.3090169943749 
0.809016994375 0.5 -1.3090169943749 0 
0.5 0 -1.3090169943749 0.8090169943749 
0.5 0 -1.3090169943749 -0.8090169943749 
0 -1.3090169943749 -0.5 0.8090169943749 
0 -1.6180339887499 0 0 
0 -1.3090169943749 -0.5 -0.8090169943749 
0 -0.8090169943749 -1.3090169943749 0.5 
0 -0.8090169943749 -1.3090169943749 -0.5 
1.3090169943749 -0.5 0 -0.8090169943749 
1.3090169943749 -0.8090169943749 -0.5 0 
0.809016994375 0.8090169943749 0.8090169943749 -0.8090169943749 
0.5 1.3090169943749 0.8090169943749 0 
0.5 0.8090169943749 0 1.3090169943749 
1.3090169943749 -0.5 0 0.8090169943749 
0.809016994375 0.8090169943749 0.8090169943749 0.8090169943749 
0.5 0.8090169943749 0 -1.3090169943749 
0.809016994375 -0.5 -1.3090169943749 0 
0 1.3090169943749 -0.5 0.8090169943749 
0 1.6180339887499 0 0 
0 1.3090169943749 -0.5 -0.8090169943749 
0 0.8090169943749 -1.3090169943749 0.5 
0 0.8090169943749 -1.3090169943749 -0.5 
1.3090169943749 0 -0.8090169943749 0.5 
0.809016994375 1.3090169943749 0 0.5 
0.5 0 1.3090169943749 -0.8090169943749 
1.3090169943749 -0.8090169943749 0.5 0 
0.809016994375 0.5 1.3090169943749 0 
0.5 1.3090169943749 -0.8090169943749 0 
0.809016994375 -0.8090169943749 -0.8090169943749 -0.8090169943749 
0 0.5 0.8090169943749 -1.3090169943749 
0 1.3090169943749 0.5 -0.8090169943749 
0 0 0 -1.6180339887499 
0 0.5 -0.8090169943749 -1.3090169943749 
1.3090169943749 0 -0.8090169943749 -0.5 
0.5 0 1.3090169943749 0.8090169943749 
0.809016994375 1.3090169943749 0 -0.5 
0.809016994375 -0.8090169943749 -0.8090169943749 0.8090169943749 
0 0.5 0.8090169943749 1.3090169943749 
0 1.3090169943749 0.5 0.8090169943749 
0 0 0 1.6180339887499 
0 0.5 -0.8090169943749 1.3090169943749 
0.809016994375 -1.3090169943749 0 0.5 
1.3090169943749 0.8090169943749 0.5 0 
0.809016994375 -0.5 1.3090169943749 0 
0.5 -1.3090169943749 -0.8090169943749 0 
0.809016994375 0.8090169943749 -0.8090169943749 -0.8090169943749 
0 -0.5 0.8090169943749 -1.3090169943749 
0 -1.3090169943749 0.5 -0.8090169943749 
0 -0.5 -0.8090169943749 -1.3090169943749 
0.809016994375 -1.3090169943749 0 -0.5 
0 0 1.6180339887499 0 
0 0.8090169943749 1.3090169943749 -0.5 
0 -0.8090169943749 1.3090169943749 -0.5 
0.809016994375 0.8090169943749 -0.8090169943749 0.8090169943749 
0 -0.5 0.8090169943749 1.3090169943749 
0 -1.3090169943749 0.5 0.8090169943749 
0 -0.5 -0.8090169943749 1.3090169943749 
0.809016994375 -0 0.5 1.3090169943749 
0 0 -1.6180339887499 0 
0 0.8090169943749 1.3090169943749 0.5 
0 -0.8090169943749 1.3090169943749 0.5 
0.809016994375 -0 0.5 -1.3090169943749 
-0.8090169943749 0.8090169943749 0.809016994375 0.8090169943749 
-0.8090169943749 0.5 1.309016994375 0 
-0.8090169943749 0.8090169943749 0.809016994375 -0.8090169943749 
-0.8090169943749 1.309016994375 0 0.5 
-0.8090169943749 1.309016994375 0 -0.5 
1.6180339887499 0 -0 0 
-0.5 1.3090169943749 0.809016994375 0 
-0.5 0 1.309016994375 -0.8090169943749 
-0.5 0.8090169943749 0 -1.3090169943749 
-0.5 0 1.309016994375 0.8090169943749 
-0.5 0.8090169943749 0 1.3090169943749 
-0.5 1.309016994375 -0.8090169943749 0 
-0.8090169943749 -0.8090169943749 0.809016994375 0.8090169943749 
-0.8090169943749 -0.5 1.309016994375 0 
-0.8090169943749 -0.8090169943749 0.809016994375 -0.8090169943749 
-0.8090169943749 -1.309016994375 0 0.5 
-0.8090169943749 -1.309016994375 0 -0.5 
-0.5 -1.3090169943749 0.809016994375 0 
-0.5 -0.8090169943749 0 -1.309016994375 
-0.5 -0.8090169943749 0 1.309016994375 
-0.5 -1.309016994375 -0.8090169943749 0 
-0.8090169943749 0 0.5 1.309016994375 
-0.8090169943749 0 -0.5 1.309016994375 
-0.8090169943749 -0.8090169943749 -0.8090169943749 0.809016994375 
-0.5 0 -1.3090169943749 0.809016994375 
-1.3090169943749 0 0.809016994375 0.5 
-1.3090169943749 0 0.809016994375 -0.5 
-0.8090169943749 0 0.5 -1.309016994375 
-1.3090169943749 0.809016994375 0.5 0 
-0.8090169943749 0 -0.5 -1.309016994375 
-0.8090169943749 -0.8090169943749 -0.8090169943749 -0.809016994375 
-0.5 0 -1.3090169943749 -0.809016994375 
-0.8090169943749 0.809016994375 -0.8090169943749 0.809016994375 
-1.3090169943749 0.5 0 0.809016994375 
-1.3090169943749 -0.809016994375 0.5 0 
-0.8090169943749 0.5 -1.309016994375 0 
-0.8090169943749 -0.5 -1.309016994375 0 
-0.8090169943749 0.809016994375 -0.8090169943749 -0.809016994375 
-1.3090169943749 0.5 0 -0.809016994375 
-1.3090169943749 -0.5 0 0.809016994375 
-1.3090169943749 0.809016994375 -0.5 0 
-1.3090169943749 -0.5 0 -0.809016994375 
-1.3090169943749 -0.809016994375 -0.5 0 
-1.3090169943749 -0 -0.809016994375 0.5 
-1.6180339887499 0 0 0 
-1.3090169943749 -0 -0.809016994375 -0.5 

# Faces
3 1 3 0
5 0 6 18 14 1
5 2 14 17 4 0
3 0 2 5
5 5 0 3 17 18
3 4 6 0
3 8 9 7
5 7 8 13 19 11
5 2 13 15 4 7
3 7 10 2
5 9 7 10 19 15
3 4 11 7
5 8 1 11 16 6
3 1 12 8
5 8 9 16 19 12
3 8 13 6
5 1 3 16 18 12
3 1 14 11
5 10 2 5 15 17
3 13 14 2
5 3 10 12 5 9
3 9 3 16
3 9 5 15
3 3 10 17
5 4 6 13 14 11
3 4 17 15
3 5 18 12
3 6 18 16
3 10 19 12
3 11 16 19
3 13 15 19
3 14 17 18
3 20 22 0
5 20 14 32 24 0
5 21 14 31 23 0
3 0 21 5
5 22 0 5 32 31
3 0 24 23
3 7 26 25
5 25 7 27 33 13
5 10 7 26 29 33
5 7 21 13 29 23
3 10 21 7
3 7 27 23
5 20 25 24 30 27
3 25 28 20
5 25 26 30 33 28
3 25 24 13
5 20 22 30 32 28
3 20 27 14
5 22 10 28 5 26
3 26 30 22
3 5 29 26
5 5 29 31 10 21
3 14 21 13
3 22 31 10
5 24 13 14 27 23
3 23 31 29
3 5 32 28
3 10 33 28
3 30 32 24
3 27 33 30
3 13 29 33
3 14 31 32
3 3 21 0
3 0 34 35
5 34 14 43 36 0
3 0 36 23
5 35 0 3 43 31
3 37 38 8
5 37 8 39 44 11
5 21 11 41 23 8
3 12 21 8
5 8 12 44 41 38
3 23 39 8
5 36 37 34 39 42
3 37 34 40
5 38 42 44 40 37
3 36 11 37
5 3 21 12 31 41
3 14 21 11
5 34 40 43 42 35
3 39 14 34
5 38 35 12 40 3
3 38 42 35
3 3 41 38
5 23 39 14 11 36
3 23 31 41
3 12 31 35
3 3 40 43
3 42 43 36
3 11 41 44
3 12 40 44
3 42 44 39
3 14 31 43
3 7 21 9
5 7 9 51 29 47
3 7 46 23
5 7 45 13 51 46
3 7 47 45
3 37 1 38
5 1 39 52 6 37
5 21 1 23 49 6
3 12 21 1
5 38 1 12 52 49
3 39 1 23
5 38 37 48 52 50
5 45 39 50 46 37
3 45 48 37
3 37 46 6
5 21 12 29 49 9
3 6 21 13
5 38 9 48 12 47
3 38 49 9
3 47 50 38
3 9 48 51
5 23 46 6 13 39
3 23 29 49
5 45 47 50 51 48
3 45 39 13
3 46 50 51
3 12 29 47
3 6 52 49
3 48 52 12
3 13 51 29
3 50 52 39
3 0 2 22
3 0 53 34
5 22 43 17 53 0
3 0 4 36
5 4 25 2 27 58
3 25 28 2
3 54 55 25
5 27 54 25 56 60
5 25 28 60 58 55
3 25 56 4
5 2 22 58 17 28
3 14 2 27
3 54 57 34
5 54 36 59 56 34
5 53 59 43 57 34
3 34 56 14
5 55 53 28 57 22
3 22 58 55
3 22 57 43
5 55 54 57 60 59
3 36 27 54
3 55 53 59
5 27 36 4 56 14
3 4 17 58
3 28 17 53
3 36 59 43
3 58 60 27
3 28 60 57
3 14 17 43
3 56 60 59
3 9 21 8
5 9 64 41 47 8
3 23 46 8
5 46 8 45 11 64
3 45 47 8
3 25 2 26
5 61 25 26 63 58
5 46 25 45 27 63
3 25 45 61
3 4 46 25
5 10 58 62 26 2
5 21 2 23 62 4
3 10 21 2
3 27 2 23
5 26 9 61 10 47
3 26 9 62
3 26 63 47
5 21 10 41 62 9
3 4 21 11
3 9 64 61
5 23 27 11 4 46
3 41 62 23
5 61 45 47 63 64
3 11 27 45
3 46 64 63
3 58 62 4
3 47 41 10
3 10 58 61
3 11 64 41
3 58 63 27
3 2 26 7
5 7 26 51 15 61
3 45 7 61
3 7 46 4
5 2 20 4 66 24
3 28 2 20
5 28 15 66 26 2
3 13 24 2
3 54 55 20
5 20 56 68 24 54
5 66 55 20 28 68
3 4 56 20
5 26 65 28 61 55
3 55 66 26
3 65 51 26
5 45 56 67 46 54
3 54 65 45
5 54 55 67 68 65
3 54 24 46
5 61 67 51 65 45
3 45 56 13
3 55 61 67
5 4 56 13 24 46
3 46 67 51
3 4 15 66
3 61 28 15
3 24 68 66
3 65 68 28
3 13 51 15
3 56 68 67
3 0 1 35
3 20 53 0
5 35 0 53 18 32
3 6 24 0
3 37 40 1
5 1 40 18 52 35
3 14 39 1
3 57 20 54
5 53 68 32 57 20
3 14 20 56
3 37 54 69
5 54 39 70 56 37
5 37 69 52 70 40
3 37 56 6
5 54 69 68 70 57
3 54 39 24
5 35 69 53 40 57
3 69 52 35
3 35 32 57
3 53 69 68
3 40 18 53
5 24 39 14 56 6
3 6 18 52
3 32 68 24
3 57 70 40
3 52 70 39
3 18 32 14
3 56 68 70
3 3 21 1
3 34 1 35
5 34 1 36 72 6
3 36 1 23
5 3 1 35 49 72
3 22 2 20
3 5 2 21
5 5 2 22 62 66
3 23 2 24
3 53 34 20
5 36 20 34 24 71
5 22 71 66 53 20
3 4 20 36
5 5 49 62 3 21
3 6 21 4
5 53 34 35 71 72
3 6 24 34
5 22 35 5 53 3
3 22 71 35
3 22 3 62
5 4 36 23 24 6
3 23 49 62
3 35 49 5
3 53 72 3
3 4 66 62
3 5 66 53
3 71 72 36
3 49 72 6
3 24 71 66
3 8 38 1
5 38 8 48 16 64
3 45 8 48
3 8 46 6
3 40 1 34
5 1 40 16 72 38
3 11 36 1
3 34 69 54
5 34 69 72 59 40
3 56 34 6
3 54 45 73
3 54 36 46
5 54 69 67 59 73
5 69 38 73 40 48
3 38 72 69
3 73 64 38
5 48 45 73 64 67
3 11 56 45
5 6 46 36 11 56
3 64 67 46
3 36 59 72
3 69 48 67
3 6 16 72
3 73 40 59
3 16 64 11
3 48 40 16
3 56 59 67
3 7 8 47
3 25 7 61
5 7 47 33 19 61
3 7 27 11
3 8 48 37
5 8 47 44 19 48
3 13 39 8
3 54 25 65
5 61 60 33 65 25
3 25 13 56
3 54 73 37
5 48 70 44 73 37
3 11 56 37
5 54 73 60 70 65
3 54 39 27
5 47 73 61 48 65
3 47 44 73
3 47 65 33
3 73 60 61
3 61 48 19
5 13 39 27 11 56
3 11 19 44
3 48 65 70
3 27 33 60
3 19 33 13
3 39 70 44
3 56 70 60
3 20 55 25
3 25 65 45
5 25 65 30 63 55
3 24 46 25
3 34 20 57
5 55 71 30 57 20
3 20 36 27
3 34 69 37
3 37 73 45
3 37 36 46
5 37 73 42 50 69
5 57 42 71 69 34
3 34 24 39
5 45 65 50 63 73
3 39 27 45
3 55 71 69
5 55 69 65 57 73
3 55 63 73
5 24 39 27 36 46
3 50 63 46
3 36 42 71
3 65 50 69
3 30 71 24
3 73 42 57
3 30 63 27
3 65 30 57
3 39 50 42
3 0 1 36
5 1 31 77 49 0
5 62 0 2 31 76
3 2 24 0
5 0 24 77 76 36
3 62 49 0
3 7 46 8
5 41 7 8 29 78
5 7 62 74 29 2
3 7 2 27
5 46 7 27 78 74
3 62 7 41
5 1 8 49 75 41
3 8 39 1
5 46 8 39 78 75
3 49 8 29
5 39 77 75 36 1
3 41 1 31
5 27 2 24 74 76
3 29 31 2
3 36 75 46
3 46 74 24
3 36 76 27
5 31 41 62 49 29
3 74 76 62
3 39 77 24
3 49 77 75
3 27 39 78
3 41 78 75
3 29 74 78
3 31 77 76
3 0 20 2
5 71 0 20 43 76
3 0 71 35
3 0 62 3
5 2 30 76 58 20
3 26 2 30
3 10 2 31
3 58 20 55
3 43 20 57
3 26 55 79
5 26 80 82 10 79
5 55 26 30 82 58
3 26 80 62
3 35 79 57
5 79 3 81 80 35
5 35 57 43 81 71
3 35 80 31
3 3 10 79
5 10 31 80 62 3
3 3 43 81
5 55 79 57 82 81
3 71 81 55
3 62 76 58
3 30 76 71
3 58 82 10
3 57 82 30
3 31 43 76
3 80 81 82
3 7 25 2
5 25 7 63 74 51
3 9 62 7
3 47 7 63
5 25 66 74 30 2
3 55 66 25
3 65 25 51
3 30 2 22
3 5 29 2
3 22 79 55
5 22 80 84 5 79
5 30 84 66 55 22
3 62 22 80
3 9 79 5
5 79 47 80 83 9
5 5 29 80 62 9
3 9 51 83
5 79 55 83 84 65
3 47 79 65
3 63 83 55
5 51 83 63 47 65
3 29 80 47
3 5 66 84
3 62 66 74
3 63 30 74
3 65 84 30
3 29 74 51
3 83 84 80
3 0 34 1
5 0 71 77 32 34
3 22 71 0
3 5 49 0
5 1 34 52 77 42
3 42 1 38
3 12 31 1
3 69 34 52
3 57 34 32
3 22 79 57
5 22 71 84 32 57
3 22 80 31
3 38 79 69
5 38 80 85 12 79
5 69 38 42 85 52
3 38 49 80
3 12 79 5
5 69 79 57 85 84
5 12 5 49 80 31
3 32 84 5
3 69 71 84
3 42 77 71
3 49 77 52
3 12 52 85
3 57 42 85
3 32 77 31
3 84 85 80
3 1 37 8
5 50 8 37 64 75
3 8 49 9
3 50 8 47
5 1 37 72 75 42
3 35 1 42
3 3 41 1
3 69 37 72
3 64 37 73
3 3 9 79
5 3 9 49 80 41
3 64 83 9
3 35 69 79
5 72 69 35 42 81
3 35 49 80
3 72 81 3
3 47 73 79
5 69 79 73 81 83
5 47 73 64 83 50
3 47 41 80
3 69 83 50
3 73 42 81
3 49 72 75
3 41 75 64
3 42 75 50
3 80 81 83
3 7 45 8
3 7 63 26
5 45 7 63 78 33
3 7 41 10
3 38 50 8
5 45 8 50 78 44
3 12 29 8
3 26 65 79
5 65 26 63 82 33
3 26 80 29
3 38 79 73
5 50 85 44 73 38
3 38 80 41
3 45 44 73
3 65 33 45
3 10 79 12
5 65 79 73 82 85
5 29 12 10 41 80
3 10 33 82
3 73 82 63
3 50 78 63
3 12 44 85
3 65 85 50
3 41 78 44
3 33 78 29
3 80 85 82
3 26 55 22
3 5 26 9
3 47 65 26
3 57 22 35
3 10 3 22
3 9 38 3
3 38 69 35
3 47 73 38
3 9 48 61
3 12 5 35
3 40 53 3
3 55 69 53
3 55 73 61
3 12 47 10
3 28 53 5
3 48 65 69
3 28 61 10
3 57 73 40
3 40 48 12
3 28 65 57
3 0 20 36
5 0 66 89 17 20
3 6 21 0
5 0 62 88 17 21
5 0 6 89 88 36
3 62 0 66
3 7 46 25
5 7 58 90 15 25
5 7 62 86 15 21
3 11 21 7
5 11 90 86 46 7
3 62 7 58
5 66 25 20 58 87
3 25 56 20
5 56 90 87 46 25
3 15 25 66
5 56 20 36 87 89
3 17 20 58
5 21 11 88 86 6
3 15 21 17
3 36 87 46
3 46 6 86
3 36 88 11
3 56 89 6
5 15 17 58 62 66
3 62 88 86
3 11 90 56
3 66 89 87
3 87 90 58
3 15 86 90
3 17 89 88
3 1 21 0
5 0 72 88 43 1
3 0 62 22
3 0 72 53
5 21 16 88 41 1
3 38 41 1
3 43 1 40
3 16 21 9
3 10 17 21
3 22 79 10
5 79 53 91 81 22
5 62 22 10 17 91
3 43 22 81
3 9 79 38
5 16 92 41 38 9
5 40 79 38 81 92
3 38 81 72
5 10 92 91 9 79
3 9 91 62
3 40 79 53
5 40 43 81 72 53
3 53 17 91
3 62 41 88
3 41 92 10
3 16 88 72
3 16 92 40
3 43 88 17
3 81 92 91
3 7 21 8
5 8 7 64 86 51
3 26 62 7
3 61 7 64
5 49 8 21 16 86
3 8 49 38
3 48 51 8
3 26 5 79
5 79 61 91 83 26
5 5 26 62 91 15
3 51 83 26
3 3 21 16
3 15 21 5
3 38 79 3
5 3 38 49 93 16
5 79 48 93 83 38
3 64 38 83
5 79 5 93 91 3
3 62 91 3
3 61 48 79
3 5 49 93
3 62 86 49
5 51 48 61 64 83
3 61 15 91
3 48 93 16
3 64 16 86
3 15 86 51
3 83 93 91
3 20 34 0
5 0 72 89 18 34
3 3 0 72
3 0 66 5
5 20 59 89 68 34
3 59 20 55
3 28 20 17
3 68 34 69
3 34 18 40
3 3 79 40
5 72 3 40 18 93
3 17 91 3
3 55 79 69
5 55 91 94 28 79
3 28 79 5
5 79 40 94 93 69
5 68 94 59 55 69
3 55 66 91
5 28 5 66 91 17
3 18 93 5
3 69 72 93
3 72 89 59
3 66 68 89
3 59 94 40
3 68 94 28
3 17 18 89
3 91 94 93
3 25 54 20
3 26 25 66
5 63 54 25 67 87
3 25 67 61
3 22 58 20
5 20 54 71 87 59
3 59 20 53
3 22 79 26
5 22 26 66 91 58
3 63 83 26
3 22 81 71
3 69 71 54
3 73 63 54
3 53 79 69
3 73 79 61
5 53 69 71 81 59
3 53 66 91
3 69 83 67
5 67 83 63 73 61
3 58 91 61
3 71 87 66
3 73 81 59
3 58 63 87
3 59 87 67
3 81 91 83
3 25 45 7
3 9 7 64
5 45 19 90 64 7
3 10 58 7
5 45 60 90 67 25
3 25 67 55
3 28 25 15
3 9 79 48
5 48 9 64 92 19
3 9 15 91
3 73 45 60
3 45 19 48
3 55 79 73
3 10 79 28
5 79 48 94 92 73
5 73 55 67 94 60
3 58 91 55
5 15 28 10 58 91
3 19 92 10
3 64 92 73
3 67 94 48
3 64 90 67
3 28 60 94
3 60 90 58
3 19 90 15
3 91 94 92
3 4 21 0
5 0 21 18 96 49
3 0 34 24
5 0 4 89 96 24
3 72 0 49
3 8 46 37
5 8 52 97 16 37
3 13 8 21
5 46 8 13 97 86
3 52 8 49
5 37 72 95 52 34
3 34 37 56
5 37 56 97 95 46
3 16 37 72
5 13 21 4 86 96
3 18 21 16
5 24 34 56 89 95
3 52 18 34
3 46 86 4
3 24 95 46
3 56 89 4
3 13 96 24
5 16 72 49 52 18
3 49 96 86
3 89 95 72
3 13 56 97
3 95 97 52
3 16 86 97
3 89 96 18
3 0 21 2
5 0 2 32 96 66
3 35 49 0
3 53 66 0
3 26 29 2
5 21 15 96 29 2
3 28 2 32
3 26 79 9
5 29 26 9 15 98
5 28 79 26 84 98
3 26 84 66
3 15 21 9
3 12 21 18
5 9 79 12 98 93
3 9 93 49
3 35 79 12
5 35 79 53 93 84
5 18 93 49 35 12
3 32 35 84
3 53 28 79
5 32 84 66 53 28
3 18 53 93
3 49 29 96
3 12 98 29
3 15 96 66
3 15 98 28
3 32 96 18
3 84 93 98
3 37 54 34
5 54 37 67 95 50
3 38 37 72
3 48 37 67
5 34 54 71 95 68
3 35 52 34
3 34 68 53
3 54 71 55
3 65 54 50
3 35 38 79
5 35 38 72 93 52
3 38 83 50
3 35 84 71
3 53 79 55
3 65 48 79
5 71 55 53 68 84
3 55 67 83
3 53 93 72
3 71 95 72
5 65 48 67 83 50
3 48 52 93
3 65 84 68
3 52 95 50
3 67 95 68
3 84 93 83
3 37 45 8
3 9 51 8
5 8 51 97 19 45
3 12 52 8
5 37 67 97 70 45
3 37 67 69
3 37 16 40
3 9 79 61
5 51 9 61 19 98
3 9 93 16
3 61 19 45
3 65 70 45
3 65 79 69
5 65 98 94 61 79
3 12 40 79
5 67 69 65 70 94
3 52 93 69
3 61 94 67
5 12 52 93 16 40
3 12 19 98
3 65 51 98
3 40 94 70
3 67 51 97
3 52 70 97
3 19 97 16
3 94 98 93
3 3 22 0
5 66 0 22 76 99
5 4 0 23 76 88
3 23 0 49
5 0 3 88 99 49
3 4 66 0
3 9 26 7
5 58 7 26 74 100
5 9 7 41 100 86
5 4 86 74 23 7
3 23 41 7
3 4 58 7
3 26 80 22
5 26 80 100 91 9
3 66 26 74
5 22 80 99 91 3
3 58 76 22
3 3 91 9
3 9 86 49
5 86 49 23 41 88
3 74 23 76
3 41 88 3
5 76 58 4 66 74
3 86 4 88
3 49 80 99
3 80 100 41
3 91 99 66
3 58 100 91
3 74 100 86
3 76 88 99
3 0 1 23
3 0 20 4
3 71 0 72
3 1 37 11
5 1 23 75 88 11
3 42 1 43
3 20 54 27
5 20 4 87 76 27
3 43 59 20
3 46 54 37
5 37 54 42 101 59
5 11 37 46 75 101
3 59 37 72
5 27 101 87 46 54
3 71 54 42
3 46 75 23
3 23 76 27
3 46 4 87
3 11 88 4
5 42 71 72 59 43
3 76 87 71
3 27 101 11
3 72 88 75
3 75 101 42
3 59 101 87
3 43 88 76
3 7 8 23
3 4 25 7
3 64 7 63
3 8 37 6
5 8 6 86 75 23
3 50 8 51
3 25 24 54
5 24 74 87 4 25
3 67 25 51
3 36 54 37
5 36 75 95 6 37
3 64 67 37
5 36 87 95 24 54
3 63 54 50
3 36 23 75
3 24 23 74
3 36 87 4
3 4 86 6
3 24 95 6
5 51 67 64 63 50
3 74 87 63
3 75 95 50
3 75 86 64
3 67 95 87
3 51 86 74
3 22 35 0
5 35 77 99 72 0
3 0 72 36
3 0 66 24
5 81 22 35 84 99
3 22 81 55
3 22 76 30
3 54 69 55
5 55 54 30 102 87
3 42 54 36
5 54 69 95 102 42
3 24 54 30
3 69 84 35
3 42 77 35
5 55 69 84 102 81
3 66 55 87
5 42 77 95 72 36
3 76 87 36
3 72 69 95
5 24 30 76 87 66
3 77 95 24
3 72 81 99
3 66 99 84
3 81 102 42
3 84 102 30
3 77 99 76
3 87 102 95
3 26 47 7
3 7 64 46
5 64 7 47 78 100
3 7 58 27
3 55 26 83
5 47 82 100 83 26
3 30 74 26
3 55 73 54
3 46 50 54
5 73 54 50 102 101
3 27 30 54
5 55 73 82 102 83
3 58 87 55
5 46 64 101 78 50
3 74 87 46
3 73 47 82
3 50 78 47
3 64 101 73
5 30 27 58 87 74
3 78 101 27
3 50 102 83
3 64 100 83
3 58 100 82
3 30 102 82
3 74 100 78
3 87 101 102
3 4 21 7
5 21 7 41 103 19
3 7 45 27
5 4 90 103 27 7
3 64 7 41
3 37 36 1
5 37 16 104 44 1
3 14 21 1
5 36 1 14 104 88
3 41 44 1
5 37 64 101 44 45
3 37 56 45
5 37 56 104 101 36
3 64 16 37
5 21 14 103 88 4
3 19 21 16
5 27 45 56 90 101
3 19 45 44
3 36 88 4
3 4 90 56
3 36 101 27
3 14 103 27
5 41 44 19 16 64
3 41 103 88
3 64 90 101
3 14 56 104
3 88 104 16
3 44 104 101
3 19 103 90
3 7 21 2
5 2 33 103 58 7
3 7 41 47
3 61 58 7
5 2 31 103 17 21
3 22 2 31
3 28 2 33
3 17 21 3
3 12 19 21
3 22 79 3
5 31 22 3 17 105
5 79 28 105 82 22
3 22 82 58
5 79 12 105 92 3
3 3 92 41
5 79 47 82 92 61
3 12 79 47
3 61 28 79
5 41 47 12 19 92
3 33 82 47
5 28 61 58 82 33
3 61 92 19
3 31 105 12
3 31 103 41
3 28 105 17
3 58 17 103
3 19 33 103
3 82 105 92
3 45 37 54
3 37 64 38
3 40 37 59
5 54 45 60 101 63
3 54 63 55
3 57 42 54
3 47 79 38
5 64 38 47 44 92
3 42 81 38
3 45 44 47
3 61 45 60
3 55 61 79
3 57 40 79
5 55 61 60 82 63
3 55 81 59
3 63 82 47
3 64 61 92
3 64 101 63
5 57 40 59 81 42
3 40 92 44
3 60 82 57
3 44 101 42
3 59 101 60
3 82 92 81
3 37 34 1
5 34 1 43 104 18
3 1 43 3
3 1 44 12
5 34 70 104 59 37
3 73 37 59
3 37 16 48
3 34 18 53
3 57 70 34
3 53 79 3
5 43 3 53 18 105
3 3 92 16
5 57 79 53 94 105
3 57 79 73
3 48 79 12
3 59 94 53
5 57 73 59 94 70
3 73 44 92
5 48 12 44 92 16
3 70 94 48
3 12 105 18
3 57 105 43
3 59 43 104
3 16 18 104
3 70 104 44
3 92 105 94
3 0 23 2
3 6 34 0
5 0 23 77 96 6
3 71 0 66
3 13 25 2
3 54 46 25
5 30 54 25 68 106
5 13 106 74 46 25
3 68 25 66
5 13 96 74 23 2
3 32 2 30
3 34 54 39
5 34 6 95 77 39
3 32 34 68
5 54 46 95 106 39
3 71 30 54
3 46 74 23
3 39 77 23
3 6 95 46
3 13 96 6
5 66 68 32 30 71
3 71 95 77
3 13 39 106
3 74 96 66
3 74 106 30
3 68 95 106
3 32 96 77
3 26 25 51
3 25 45 54
5 25 45 33 106 51
3 28 68 25
3 26 47 79
5 26 51 98 33 47
3 30 26 84
5 50 54 45 70 106
3 69 50 54
3 57 54 30
3 47 33 45
3 48 70 45
5 79 48 98 85 47
3 48 79 69
3 28 79 57
3 47 85 50
5 48 70 85 50 69
3 68 84 69
3 51 98 48
3 51 106 50
5 28 57 30 84 68
3 33 98 28
3 70 85 57
3 30 33 106
3 68 70 106
3 85 98 84
3 23 0 62
3 5 35 0
5 5 0 62 99 96
3 0 72 6
3 8 9 38
5 38 75 107 52 8
5 9 86 107 29 8
3 29 8 23
3 6 8 52
5 38 9 93 107 80
3 35 80 38
3 38 75 72
3 5 9 93
3 62 9 86
5 86 62 23 29 96
3 77 23 75
5 5 35 80 99 93
3 52 77 35
3 29 5 96
5 6 52 77 75 72
3 86 96 6
3 80 99 62
3 93 99 72
3 29 80 107
3 52 93 107
3 75 107 86
3 99 96 77
3 38 47 8
3 51 8 46
5 8 47 78 107 51
3 39 52 8
3 46 54 63
3 54 69 65
5 54 63 102 106 65
3 42 54 39
5 83 38 47 85 107
3 38 83 69
3 38 75 42
5 63 46 51 106 78
3 46 95 75
3 63 78 47
3 65 47 85
5 69 83 102 85 65
3 69 95 52
3 83 102 63
3 51 65 106
5 39 42 75 95 52
3 39 78 106
3 42 85 102
3 83 107 51
3 85 107 52
3 75 78 107
3 95 106 102
3 0 3 53
5 0 53 89 99 71
3 0 71 36
3 6 49 0
3 38 69 37
5 37 38 75 108 16
3 36 37 59
5 59 37 69 95 108
3 6 16 37
3 38 81 3
5 69 93 108 81 38
3 38 75 49
5 53 93 99 81 3
3 16 88 3
3 69 93 53
3 53 89 59
5 36 71 95 89 59
3 36 75 88
3 71 95 69
5 16 88 75 49 6
3 6 95 89
3 81 99 71
3 93 99 49
3 81 108 59
3 16 108 93
3 75 108 95
3 89 99 88
3 9 61 7
3 46 63 7
5 7 61 90 100 63
3 11 41 7
3 37 73 38
3 46 67 37
5 37 73 101 108 67
3 11 16 37
3 38 83 9
5 38 83 108 92 73
3 41 38 75
5 61 92 100 83 9
3 16 9 86
5 46 67 90 101 63
3 75 86 46
3 61 92 73
3 61 90 67
3 63 101 73
5 41 11 16 86 75
3 11 90 101
3 83 100 63
3 41 100 92
3 67 83 108
3 92 108 16
3 75 101 108
3 90 100 86
3 6 21 8
5 8 21 19 109 29
3 39 45 8
5 6 97 109 39 8
3 51 8 29
3 25 2 24
5 15 25 2 33 110
3 56 45 25
5 24 106 110 56 25
3 15 25 51
3 14 2 21
5 24 2 14 110 96
3 29 2 33
5 6 21 14 109 96
3 19 21 15
5 39 45 56 97 106
3 33 45 19
3 24 6 96
3 56 6 97
3 39 24 106
3 14 109 39
3 14 110 56
5 15 51 29 33 19
3 29 109 96
3 51 97 106
3 15 110 96
3 33 106 110
3 97 109 19
3 8 1 21
5 1 44 109 52 8
3 47 8 29
3 48 52 8
5 1 31 109 18 21
3 31 1 35
3 44 1 40
3 18 21 5
3 10 21 19
3 35 5 79
5 79 40 105 85 35
5 35 5 18 105 31
3 52 85 35
3 10 47 79
5 79 5 98 105 10
3 40 79 48
5 47 10 19 98 29
3 44 47 85
3 29 5 98
3 31 10 105
5 48 40 44 85 52
3 19 48 98
3 18 40 105
3 31 109 29
3 52 109 18
3 19 109 44
3 98 105 85
3 25 20 2
5 68 25 20 60 110
3 61 15 25
3 65 25 68
5 20 2 32 110 17
3 5 32 2
3 10 2 33
3 53 17 20
3 60 20 57
3 53 79 5
3 10 79 61
3 57 65 79
5 5 53 17 105 32
3 68 94 53
3 15 98 5
5 33 98 15 61 10
3 61 94 60
3 17 105 10
5 65 57 60 94 68
3 65 98 33
3 57 32 105
3 17 110 15
3 32 110 68
3 33 60 110
3 94 105 98
3 7 2 23
5 7 23 78 103 11
3 7 11 45
3 58 7 63
3 2 20 14
5 2 14 103 76 23
3 33 2 30
3 36 20 54
5 54 30 111 60 20
5 14 20 36 76 111
3 60 20 58
3 45 54 39
5 36 54 39 111 101
3 30 54 63
3 36 76 23
3 39 78 23
5 45 39 78 101 11
3 33 60 45
3 11 36 101
3 14 11 103
5 30 63 58 60 33
3 78 101 63
3 14 111 39
3 58 76 103
3 30 111 76
3 33 78 103
3 60 101 111
3 54 20 34
5 34 20 43 111 32
3 20 43 22
3 28 20 60
5 34 54 42 111 70
3 34 32 35
3 40 70 34
3 22 79 35
5 32 105 43 22 35
3 30 82 22
3 73 54 42
3 65 30 54
3 42 85 35
3 73 40 79
3 28 79 65
5 73 40 70 85 42
3 73 82 60
5 28 60 82 30 65
3 70 85 65
3 40 105 43
3 28 32 105
3 42 111 43
3 30 111 32
3 60 111 70
3 85 105 82
3 23 7 62
3 10 47 7
5 7 62 100 103 10
3 11 64 7
3 3 38 1
5 1 38 75 112 44
3 23 31 1
5 3 1 31 112 88
3 1 44 11
5 3 38 80 112 92
3 38 80 47
3 64 75 38
5 62 23 31 103 88
3 75 23 78
3 62 88 3
3 3 92 10
5 47 10 92 100 80
3 47 78 44
3 80 100 62
3 31 103 10
5 75 64 11 44 78
3 88 11 103
3 64 92 100
3 31 80 112
3 92 112 44
3 75 88 112
3 78 103 100
3 38 35 1
5 35 77 112 43 1
3 36 43 1
3 39 1 44
3 36 71 54
5 54 71 102 111 57
3 54 73 57
3 50 54 39
5 35 85 112 81 38
3 38 81 73
3 38 75 50
3 71 77 35
3 57 85 35
5 43 111 77 71 36
3 36 101 75
3 71 102 81
5 81 73 57 85 102
3 73 44 101
5 44 101 75 50 39
3 50 102 85
3 39 111 77
3 43 111 57
3 43 112 81
3 44 85 112
3 77 112 75
3 101 102 111
3 4 0 62
3 0 5 53
3 24 0 71
3 25 26 55
5 15 25 26 74 113
5 55 87 113 68 25
3 15 25 4
3 24 25 68
5 55 26 84 113 91
3 5 84 26
3 62 74 26
3 55 91 53
3 71 87 55
5 15 96 74 62 4
3 89 4 87
5 53 5 84 99 91
3 68 53 89
3 5 96 15
3 91 99 62
5 89 68 24 71 87
3 84 99 71
3 24 96 74
3 91 113 15
3 87 113 74
3 68 84 113
3 89 99 96
3 25 61 55
3 46 25 51
5 61 25 51 113 90
3 25 68 56
3 46 64 37
3 48 69 37
5 64 37 48 97 108
3 59 37 56
3 55 83 69
5 61 55 83 113 94
3 59 87 55
5 46 64 90 97 51
3 46 87 95
5 69 48 94 108 83
3 69 95 68
3 48 94 61
3 64 90 61
3 48 97 51
3 64 108 83
3 83 113 51
5 59 87 95 68 56
3 56 90 97
3 59 108 94
3 68 113 94
3 90 113 87
3 97 108 95
3 9 48 8
3 46 8 50
5 8 50 107 97 48
3 13 8 29
3 25 65 26
3 25 67 46
5 67 25 65 106 113
3 13 15 25
3 9 83 26
5 26 65 98 113 83
3 26 74 29
5 48 9 83 107 98
3 15 86 9
5 46 50 106 97 67
3 46 74 86
3 65 98 48
3 67 97 48
3 65 106 50
5 13 29 74 86 15
3 13 97 106
3 83 50 107
3 98 107 29
3 83 113 67
3 98 113 15
3 106 113 74
3 97 107 86
3 11 21 1
3 39 1 34
5 1 11 104 109 39
3 43 1 31
3 27 2 20
3 13 21 2
5 2 27 103 110 13
3 32 2 31
3 34 20 56
5 20 27 111 110 56
3 17 20 43
5 21 11 103 109 13
3 17 18 21
5 39 111 104 56 34
3 32 34 18
3 27 103 11
3 56 104 11
3 39 27 111
3 13 109 39
3 56 13 110
5 17 43 31 32 18
3 103 109 31
3 43 111 104
3 17 110 103
3 110 111 32
3 18 104 109
3 23 49 8
5 8 13 109 78 23
3 12 47 8
5 8 49 107 109 12
3 13 51 8
3 2 26 5
5 26 2 33 114 74
3 23 31 2
5 2 5 96 114 31
3 13 33 2
3 47 80 26
5 26 5 98 114 80
3 51 26 74
5 49 23 31 109 96
3 78 23 74
5 12 47 80 107 98
3 33 78 47
3 5 96 49
3 12 5 98
3 80 49 107
3 31 109 12
5 78 33 13 51 74
3 96 109 13
3 51 98 107
3 31 80 114
3 74 114 96
3 33 114 98
3 107 109 78
3 26 2 22
5 32 2 22 76 114
3 24 32 2
3 33 2 27
5 22 26 84 114 82
3 63 26 74
3 65 84 26
3 22 76 71
3 57 82 22
3 54 71 24
5 27 111 106 24 54
3 54 63 27
3 54 57 65
5 24 71 76 111 32
3 84 71 102
3 24 106 74
5 27 33 106 74 63
3 82 102 63
3 76 27 111
5 57 82 102 84 65
3 33 106 65
3 32 111 57
3 76 114 74
3 84 114 32
3 33 114 82
3 106 111 102
3 8 1 23
3 13 45 8
3 52 8 50
3 14 34 1
5 14 1 23 77 109
3 44 1 42
3 54 24 34
5 14 34 24 77 111
3 70 34 52
3 54 45 27
3 50 54 42
3 24 77 23
3 23 78 27
5 45 13 106 78 27
3 44 70 45
3 24 106 13
3 27 111 14
3 14 13 109
5 42 50 52 70 44
3 50 106 78
3 42 111 77
3 77 109 52
3 78 109 44
3 70 106 111
3 4 62 7
3 7 61 10
3 7 63 27
3 22 55 20
5 20 17 115 76 22
5 20 60 115 87 55
3 17 20 4
3 27 20 60
5 22 82 115 91 55
3 62 76 22
3 10 82 22
3 61 91 55
3 63 55 87
5 17 4 62 76 103
3 90 4 87
3 91 62 100
5 10 61 91 100 82
3 60 90 61
3 10 103 17
5 60 90 87 63 27
3 63 100 82
3 27 103 76
3 17 91 115
3 87 115 76
3 82 115 60
3 90 103 100
3 55 20 53
5 53 20 43 115 89
3 36 20 43
3 60 20 56
3 36 37 72
3 37 73 40
5 37 40 104 108 72
3 67 37 56
5 81 55 53 94 115
3 55 81 73
3 55 87 67
3 72 89 53
3 40 94 53
5 43 104 89 72 36
3 36 101 87
5 81 73 40 94 108
3 73 101 60
3 81 72 108
3 40 104 43
5 56 60 101 87 67
3 67 108 94
3 56 89 104
3 43 81 115
3 60 115 94
3 87 89 115
3 104 108 101
3 9 51 26
3 63 55 26
5 26 51 113 100 63
3 80 84 26
3 9 38 64
3 38 50 69
5 50 107 108 64 38
3 80 81 38
5 51 9 64 100 107
3 9 93 91
3 67 69 55
5 67 113 102 63 55
3 81 91 55
5 69 67 108 102 50
3 84 93 69
3 63 102 50
3 64 63 100
3 50 107 51
3 64 108 67
3 51 67 113
5 81 91 93 84 80
3 100 107 80
3 81 108 102
3 100 113 91
3 84 113 102
3 93 108 107
3 1 40 3
3 36 42 1
5 40 1 42 112 104
3 1 31 14
3 22 57 20
3 36 20 59
5 20 57 111 115 59
3 14 20 17
3 3 81 22
5 22 57 105 115 81
3 31 76 22
5 40 105 112 81 3
3 17 3 88
5 42 36 59 104 111
3 36 76 88
3 57 105 40
3 59 40 104
3 57 111 42
5 17 88 76 31 14
3 104 111 14
3 42 112 81
3 105 112 31
3 81 59 115
3 105 115 17
3 76 115 111
3 104 112 88
3 23 1 41
3 12 1 35
5 1 12 109 112 41
3 1 43 14
3 2 22 10
3 23 29 2
5 10 103 114 29 2
3 14 2 32
3 22 80 35
5 10 105 114 80 22
3 43 76 22
5 23 29 109 103 41
3 76 77 23
5 12 105 112 80 35
3 32 35 77
3 12 105 10
3 10 103 41
3 29 12 109
3 41 112 80
5 32 77 76 43 14
3 103 109 14
3 80 114 29
3 105 112 43
3 32 114 105
3 76 114 103
3 77 109 112
5 25 13 110 90 4
3 4 66 25
3 25 28 61
3 13 51 25
5 25 28 110 113 66
3 5 21 9
5 9 86 116 19 21
3 4 21 17
5 17 21 5 96 116
3 19 21 13
5 91 9 5 98 116
3 61 91 9
3 51 9 86
5 96 66 4 17 110
3 86 90 4
3 66 96 5
3 28 98 5
5 28 98 113 91 61
3 61 90 19
5 86 51 13 19 90
3 96 110 13
3 91 66 113
3 17 28 110
3 51 113 98
3 17 91 116
3 86 96 116
3 98 116 19
3 113 110 90
5 11 104 97 6 37
3 6 37 72
3 11 64 37
3 37 40 48
3 3 9 21
5 21 3 88 116 18
3 6 21 18
3 19 21 11
5 9 3 92 116 93
3 48 93 9
3 64 9 86
3 72 88 3
3 40 3 92
5 6 72 88 104 18
3 86 6 97
5 19 97 86 64 11
3 11 104 88
5 48 40 92 108 93
3 19 97 48
3 93 108 72
3 18 40 104
3 92 108 64
3 93 116 18
3 86 88 116
3 19 116 92
3 108 104 97
3 25 4 20
3 13 45 25
3 68 25 67
3 14 34 20
5 20 4 89 110 14
3 60 20 59
3 37 34 6
3 11 45 37
3 59 37 67
5 34 6 89 104 14
3 68 70 34
5 45 11 90 97 13
3 70 45 60
3 4 89 6
3 4 90 11
3 13 97 6
3 14 104 11
3 13 110 14
5 68 70 60 59 67
3 67 90 97
3 89 104 59
3 68 89 110
3 60 110 90
3 70 97 104
3 6 8 49
3 12 8 48
3 39 8 50
3 35 69 34
5 34 35 77 117 18
5 69 95 117 70 34
3 6 34 18
3 34 70 39
5 69 93 117 85 35
3 49 77 35
3 12 85 35
3 48 69 93
3 69 95 50
5 18 6 49 77 109
3 97 6 95
3 93 107 49
5 48 12 85 107 93
3 70 48 97
3 12 109 18
5 97 70 39 50 95
3 85 50 107
3 39 77 109
3 93 117 18
3 77 117 95
3 70 85 117
3 109 107 97
3 25 66 24
3 28 25 65
3 25 67 56
3 53 69 34
5 34 53 89 117 32
3 32 34 24
3 56 34 70
5 84 69 53 94 117
3 53 89 66
3 53 94 28
3 69 84 65
3 69 95 67
5 32 110 89 66 24
3 95 24 106
5 84 65 28 94 113
3 70 106 65
3 84 66 113
3 32 110 28
5 95 67 56 70 106
3 94 67 113
3 56 110 89
3 84 117 32
3 94 117 70
3 95 117 89
3 106 110 113
3 43 3 22
3 22 71 55
5 22 71 99 115 43
3 82 22 80
3 3 72 38
3 38 73 42
5 38 42 112 108 72
3 80 83 38
5 43 112 99 72 3
3 92 3 91
5 59 115 102 71 55
3 59 73 55
3 83 55 91
3 71 99 72
3 42 102 71
5 73 59 108 102 42
3 73 82 92
3 59 72 108
3 42 112 43
3 59 115 43
5 82 92 91 83 80
3 83 102 108
3 80 112 99
3 91 99 115
3 82 115 102
3 108 112 92
3 5 28 2
3 24 2 30
5 2 30 114 110 28
3 14 31 2
3 34 57 35
3 24 68 34
5 34 57 111 117 68
3 18 34 14
3 35 84 5
5 57 105 117 84 35
3 35 77 31
5 5 84 114 105 28
3 5 96 18
5 24 30 111 110 68
3 77 96 24
3 28 105 57
3 28 110 68
3 57 111 30
5 18 96 77 31 14
3 14 111 110
3 84 114 30
3 31 114 105
3 84 68 117
3 18 117 105
3 77 117 111
3 96 114 110
3 4 20 58
3 20 53 28
5 28 20 58 115 110
3 20 43 14
3 10 3 21
3 4 21 15
5 15 21 10 103 116
3 18 21 14
3 53 3 91
5 10 3 91 116 105
3 43 3 88
5 4 15 110 103 58
3 89 4 88
5 53 91 115 105 28
3 53 89 18
3 10 105 28
3 58 10 103
3 15 110 28
5 18 89 88 43 14
3 14 110 103
3 58 115 91
3 91 15 116
3 43 105 115
3 105 116 18
3 103 116 88
3 115 110 89
3 26 66 62
5 26 62 100 114 29
3 26 63 30
5 26 30 114 113 66
3 26 51 29
3 24 46 23
5 23 46 86 118 78
3 62 76 23
5 23 76 118 96 24
3 29 23 78
5 46 24 106 118 87
3 63 87 46
3 51 86 46
5 62 76 114 96 66
3 62 100 86
3 66 96 24
3 24 106 30
5 87 63 30 106 113
3 78 100 63
3 87 113 66
5 29 51 86 100 78
3 96 29 114
3 106 113 51
3 76 30 114
3 87 118 76
3 86 96 118
3 106 118 78
3 113 114 100
3 49 38 72
5 49 38 41 112 107
3 41 38 64
3 38 42 50
3 23 46 36
5 23 77 118 88 36
3 49 77 23
3 41 78 23
5 36 46 95 118 101
3 46 50 95
3 64 86 46
3 36 88 72
3 42 101 36
5 72 88 112 77 49
3 86 107 49
3 72 108 95
5 41 78 107 86 64
3 88 41 112
5 42 101 108 95 50
3 78 50 107
3 101 108 64
3 77 112 42
3 86 118 88
3 77 95 118
3 78 118 101
3 108 107 112
3 26 22 62
3 29 47 26
3 83 26 84
3 31 35 22
5 31 114 99 62 22
3 82 22 81
3 38 49 35
3 38 47 41
3 81 83 38
5 31 112 99 49 35
3 84 35 85
5 29 107 100 41 47
3 82 47 85
3 49 62 99
3 62 100 41
3 29 107 49
3 31 41 112
3 29 114 31
5 82 85 84 83 81
3 83 107 100
3 99 112 81
3 84 114 99
3 82 114 100
3 107 112 85
3 1 41 11
3 12 1 40
3 39 1 42
3 45 73 47
5 47 45 19 119 78
5 45 73 101 119 70
3 19 45 11
3 39 70 45
5 47 73 92 119 85
3 47 85 12
3 41 78 47
3 73 92 40
3 73 101 42
5 11 41 78 109 19
3 101 11 104
5 12 40 92 112 85
3 19 109 12
3 92 112 41
3 70 104 40
5 39 70 104 101 42
3 78 109 39
3 85 42 112
3 19 119 92
3 70 119 85
3 101 119 78
3 104 112 109
3 20 58 27
3 28 57 20
3 56 59 20
3 45 61 73
5 45 33 119 90 61
3 33 45 27
3 56 45 70
5 73 82 119 94 61
3 28 61 94
3 61 90 58
3 57 73 82
3 59 73 101
5 27 58 90 110 33
3 101 27 111
5 28 57 82 115 94
3 33 110 28
3 70 57 111
3 82 115 58
5 56 70 111 101 59
3 56 90 110
3 59 115 94
3 33 119 82
3 94 119 70
3 101 119 90
3 110 115 111
3 26 5 66
3 26 65 30
3 26 83 80
3 32 5 35
3 35 69 71
5 71 35 32 117 99
3 80 35 85
5 32 114 99 66 5
3 5 98 93
5 71 69 68 117 102
3 68 65 69
3 83 69 93
3 66 99 71
3 71 102 30
5 65 30 102 113 68
3 65 98 85
3 68 113 66
3 32 114 30
5 80 85 98 93 83
3 83 102 113
3 80 114 99
3 32 117 68
3 99 117 93
3 85 102 117
3 98 113 114
3 10 2 28
3 27 30 2
3 13 29 2
3 45 65 47
3 60 45 27
5 65 106 119 60 45
3 19 45 13
3 10 82 47
5 82 47 65 98 119
3 29 47 78
5 28 10 82 114 98
3 19 103 10
5 30 106 110 60 27
3 78 103 27
3 28 65 98
3 30 65 106
5 19 13 29 78 103
3 106 110 13
3 28 110 60
3 98 114 29
3 82 114 30
3 60 119 82
3 98 119 19
3 78 106 119
3 110 114 103
3 5 21 12
3 6 21 16
5 16 21 12 109 116
3 14 17 21
3 34 53 40
3 6 34 52
5 34 52 117 104 40
3 14 34 32
3 53 93 5
5 93 53 40 105 117
3 17 89 53
5 93 5 12 105 116
3 5 96 32
5 6 52 109 104 16
3 6 96 89
3 40 105 12
3 52 12 109
3 16 40 104
5 14 17 89 96 32
3 14 104 109
3 93 52 117
3 93 116 16
3 17 105 116
3 105 117 32
3 89 117 104
3 109 116 96
3 22 62 58
3 22 71 30
5 30 114 115 58 22
3 31 43 22
3 27 36 23
3 62 74 23
5 23 27 103 118 74
3 31 77 23
3 71 87 36
5 27 111 118 87 36
3 36 43 88
5 62 74 114 103 58
3 88 99 62
5 71 87 115 111 30
3 77 71 99
3 58 103 27
3 30 27 111
3 58 115 87
3 74 114 30
5 43 88 99 77 31
3 103 114 31
3 111 115 43
3 87 74 118
3 77 111 118
3 103 118 88
3 115 114 99
3 9 49 62
5 15 116 100 62 9
5 16 116 107 49 9
3 9 16 64
3 9 51 15
3 4 46 6
5 46 74 118 90 4
5 6 97 118 75 46
3 46 75 64
3 51 74 46
5 4 6 96 118 88
3 62 4 88
3 4 90 15
3 49 6 96
3 16 97 6
5 62 88 116 96 49
3 74 100 62
3 49 107 75
5 64 16 97 107 75
3 64 90 100
5 74 51 15 90 100
3 97 107 51
3 96 15 116
3 88 116 16
3 74 118 96
3 88 118 75
3 90 97 118
3 107 116 100
3 66 71 55
3 58 63 55
5 55 58 115 113 66
3 55 59 67
3 4 46 36
3 46 63 74
3 46 95 67
5 4 36 76 118 89
3 66 4 89
3 4 90 58
3 36 71 76
3 36 101 59
5 71 66 89 115 76
3 95 102 71
5 63 74 113 90 58
3 101 63 102
3 74 66 113
3 76 115 58
5 67 95 102 101 59
3 67 113 90
3 89 115 59
3 74 118 76
3 89 118 95
3 90 118 101
3 102 113 115
3 9 62 3
3 9 15 61
3 83 9 93
3 17 53 3
5 3 62 99 116 17
3 3 92 81
3 53 66 55
3 58 61 55
3 55 81 83
5 17 53 66 99 115
3 94 53 93
3 66 62 99
3 62 100 58
5 58 100 113 15 61
3 92 61 94
3 15 113 66
3 17 58 115
3 17 116 15
5 83 81 92 94 93
3 83 113 100
3 81 115 99
3 99 116 93
3 92 100 116
3 94 113 115
3 40 57 34
3 34 52 39
3 56 68 34
3 45 65 48
5 48 45 44 119 97
3 39 45 44
3 56 60 45
5 48 94 119 85 65
3 40 48 94
3 52 48 97
3 57 85 65
3 68 106 65
5 40 57 85 117 94
3 44 104 40
5 52 39 44 104 97
3 106 111 39
3 60 57 111
5 56 60 111 106 68
3 97 104 56
3 52 117 85
3 44 119 85
3 94 117 68
3 94 119 60
3 97 119 106
3 111 117 104
3 22 58 10
3 22 57 30
3 81 22 80
3 10 47 33
3 47 63 73
5 47 63 100 119 33
3 80 47 85
5 33 114 100 58 10
3 10 105 92
5 73 60 119 102 63
3 60 73 57
3 81 92 73
3 63 100 58
3 63 102 30
5 60 57 30 102 115
3 85 105 57
3 60 58 115
3 33 114 30
5 81 92 105 85 80
3 80 100 114
3 81 102 115
3 33 60 119
3 92 119 100
3 102 119 85
3 105 115 114
3 5 49 9
3 16 48 9
3 9 83 91
3 18 5 53
3 69 72 53
5 18 53 72 99 117
3 91 94 53
5 5 18 116 99 49
3 84 98 5
3 52 48 69
5 52 117 108 72 69
3 84 83 69
3 49 99 72
3 52 49 107
5 48 16 108 107 52
3 94 98 48
3 16 108 72
3 18 117 52
5 91 83 84 98 94
3 107 108 83
3 16 116 18
3 91 99 116
3 99 117 84
3 98 107 116
3 94 108 117
3 10 12 21
3 16 21 11
3 15 21 13
3 45 48 61
3 44 45 11
3 13 45 33
3 61 92 10
5 61 48 98 119 92
3 15 90 61
5 98 12 10 92 116
3 10 103 33
5 97 16 11 44 109
3 90 103 11
3 12 48 98
3 16 97 48
3 44 109 12
5 15 90 103 33 13
3 13 109 97
3 98 116 15
3 92 16 116
3 92 119 44
3 98 119 33
3 90 119 97
3 109 116 103
3 23 39 24
3 49 75 23
5 39 23 75 118 109
3 31 76 23
3 35 42 71
3 52 35 49
5 42 112 117 52 35
3 32 35 31
3 24 95 71
5 42 111 117 95 71
3 76 71 99
5 24 39 111 118 95
3 32 96 24
5 49 75 112 109 52
3 49 99 96
3 39 42 111
3 39 109 52
3 42 112 75
5 32 96 99 76 31
3 31 112 109
3 95 117 52
3 111 117 32
3 75 118 95
3 76 118 111
3 109 118 96
3 112 117 99
3 3 62 41
3 16 72 3
5 41 3 16 116 112
3 17 43 3
3 11 36 4
3 62 86 4
5 11 103 118 86 4
3 17 89 4
5 11 104 118 75 36
3 72 75 36
3 43 76 36
5 62 41 103 116 86
3 62 99 76
3 11 103 41
3 16 104 11
5 72 75 112 104 16
3 89 99 72
3 75 112 41
5 17 89 99 76 43
3 43 104 112
3 16 116 86
3 17 116 103
3 86 118 75
3 103 118 76
3 104 118 89
3 112 116 99
3 46 6 24
3 50 75 46
3 67 87 46
3 72 69 71
3 52 69 50
3 67 69 68
5 77 24 6 89 118
3 72 89 6
3 6 97 52
3 71 77 24
5 71 72 89 117 77
3 71 102 87
3 68 24 106
3 75 108 72
5 50 52 97 108 75
3 50 102 106
5 87 67 68 106 102
3 67 97 108
3 52 117 77
3 89 68 117
3 77 75 118
3 87 118 89
3 106 97 118
3 102 108 117
3 35 52 12
3 42 57 35
3 80 84 35
3 12 44 47
3 50 65 47
5 47 50 107 119 44
3 82 47 80
5 52 12 44 112 107
3 12 105 98
5 70 119 102 50 65
3 70 57 65
3 65 98 84
3 42 50 102
3 52 50 107
5 70 117 102 42 57
3 82 105 57
3 42 112 44
3 52 117 70
5 80 84 98 105 82
3 107 112 80
3 70 44 119
3 84 117 102
3 82 119 102
3 98 107 119
3 105 112 117
3 10 41 3
3 3 16 40
3 81 3 91
3 10 61 19
3 61 73 64
5 61 19 119 100 64
3 91 61 94
5 19 116 100 41 10
3 82 10 105
3 40 73 44
5 73 44 119 108 64
3 81 73 82
3 64 100 41
3 41 112 44
5 40 16 108 112 44
3 94 40 105
3 64 108 16
3 16 116 19
3 19 44 119
5 81 82 105 94 91
3 81 112 108
3 100 116 91
3 82 100 119
3 94 119 108
3 105 112 116
3 27 39 23
3 23 75 41
3 29 23 74
3 47 63 50
3 41 47 44
3 33 47 29
3 27 101 63
5 101 63 50 106 119
3 74 100 63
5 27 101 118 106 39
3 33 103 27
5 41 75 107 109 44
3 41 100 103
3 39 106 50
3 75 107 50
3 39 44 109
5 29 74 100 103 33
3 107 109 29
3 106 74 118
3 101 44 119
3 75 118 101
3 106 119 33
3 103 118 109
3 100 107 119
3 6 56 4
3 4 87 66
5 4 87 118 110 56
3 17 88 4
3 59 72 53
3 68 53 66
5 59 115 117 68 53
3 17 18 53
3 6 95 72
5 56 104 118 95 6
3 18 96 6
5 95 72 59 104 117
3 88 99 72
5 68 110 115 87 66
3 96 99 66
3 56 104 59
3 56 68 110
3 87 59 115
5 17 88 99 96 18
3 17 110 115
3 68 117 95
3 18 104 117
3 95 118 87
3 88 118 104
3 96 118 110
3 115 117 99
3 29 49 5
3 5 66 15
5 15 5 29 114 116
3 5 18 32
3 13 6 24
3 6 49 86
5 13 6 86 118 109
3 6 18 89
5 24 74 118 110 13
3 24 66 74
3 24 77 32
5 86 49 29 109 116
3 77 99 49
3 29 13 109
3 15 110 13
5 74 66 15 110 114
3 66 99 89
3 74 114 29
3 86 116 15
3 86 118 74
5 32 77 99 89 18
3 110 114 32
3 109 116 18
3 109 118 77
3 110 118 89
3 99 116 114
3 36 27 11
3 36 75 42
3 36 59 87
3 64 63 73
3 44 73 42
3 60 73 59
5 11 27 78 118 90
3 64 90 11
3 44 104 11
3 27 78 63
5 63 78 119 90 64
3 87 102 63
3 27 111 60
3 75 64 108
5 42 75 108 104 44
3 42 111 102
5 60 59 87 102 111
3 59 108 104
3 44 119 78
3 78 118 75
3 60 119 90
3 90 118 87
3 102 119 108
3 111 118 104
3 53 40 59
3 53 68 28
3 91 53 93
3 67 48 61
3 60 61 28
5 61 67 113 119 60
3 92 61 91
3 70 48 40
5 67 108 119 70 48
3 93 98 48
5 70 40 59 108 117
3 92 105 40
5 60 115 113 68 28
3 28 105 98
3 59 108 67
3 68 67 113
3 60 115 59
3 70 117 68
5 93 91 92 105 98
3 91 113 115
3 70 60 119
3 93 108 117
3 108 119 92
3 113 119 98
3 105 115 117
3 5 29 12
3 5 28 15
3 5 84 93
3 19 48 12
3 48 65 51
5 51 107 119 19 48
3 93 48 94
5 19 116 107 29 12
3 12 105 85
3 28 33 65
5 65 51 113 119 33
3 84 85 65
5 28 15 113 114 33
3 28 105 94
3 51 107 29
3 33 114 29
3 51 113 15
3 19 15 116
3 19 33 119
5 93 84 85 105 94
3 113 114 84
3 93 107 116
3 107 119 85
3 94 113 119
3 114 116 105
3 11 56 4
3 58 4 87
3 4 86 15
3 64 67 61
3 58 61 60
3 15 61 19
3 64 101 11
5 56 97 118 101 11
3 11 103 19
5 101 64 67 97 119
3 64 100 86
5 58 87 113 110 60
3 100 103 58
3 67 97 56
3 87 67 113
3 56 110 60
5 15 19 103 100 86
3 15 113 110
3 97 118 86
3 101 60 119
3 101 118 87
3 19 97 119
3 110 118 103
3 113 119 100
3 62 80 49
3 66 91 62
5 62 91 116 114 80
3 76 88 62
3 72 81 71
3 66 71 84
5 81 115 117 84 71
3 77 71 76
3 49 93 72
5 49 80 112 116 93
3 77 96 49
5 72 81 112 117 93
3 89 72 88
5 66 91 115 114 84
3 89 66 96
3 80 81 112
3 80 114 84
3 91 81 115
3 93 116 91
5 88 76 77 96 89
3 76 115 114
3 93 117 84
3 77 117 112
3 88 116 112
3 89 115 117
3 96 114 116
3 31 41 10
3 17 10 58
5 10 17 116 114 31
3 10 33 19
3 11 27 14
3 11 88 41
5 88 11 14 109 118
3 11 90 19
5 27 14 110 118 76
3 27 58 76
3 27 78 33
5 41 31 109 116 88
3 41 100 78
3 14 109 31
3 14 110 17
5 17 58 76 114 110
3 58 90 100
3 76 114 31
3 17 116 88
3 76 88 118
5 33 78 100 90 19
3 110 114 33
3 19 109 116
3 109 118 78
3 90 118 110
3 114 116 100
3 24 39 13
3 30 74 24
3 24 95 68
3 51 65 50
3 33 30 65
3 65 70 68
5 39 13 97 118 78
3 51 97 13
3 13 110 33
3 39 50 78
5 51 50 78 119 97
3 95 50 102
3 39 111 70
3 51 113 74
5 30 74 113 110 33
3 102 111 30
3 74 118 78
5 68 95 102 111 70
3 68 113 110
3 33 119 78
3 97 119 70
3 97 118 95
3 102 119 113
3 111 118 110
3 71 81 42
3 71 84 30
3 71 95 87
3 50 83 63
3 63 82 30
5 63 82 119 113 83
3 63 101 87
3 42 85 50
5 50 83 108 119 85
3 95 50 106
5 81 42 85 117 108
3 101 42 111
5 84 30 82 115 113
3 30 106 111
3 81 83 108
3 84 83 113
3 82 81 115
3 85 84 117
5 101 111 106 95 87
3 87 115 113
3 82 119 85
3 95 117 108
3 101 119 108
3 106 119 113
3 111 117 115
3 10 12 31
3 10 28 17
3 10 92 82
3 18 40 12
5 31 12 18 116 112
3 12 98 85
3 43 57 40
5 43 112 117 18 40
3 40 94 92
3 32 57 28
5 17 28 32 114 115
3 94 98 28
5 43 115 117 32 57
3 82 85 57
3 31 43 112
3 31 32 114
3 17 43 115
3 18 116 17
3 18 117 32
5 94 98 85 82 92
3 82 114 115
3 92 116 112
3 85 112 117
3 114 116 98
3 94 117 115
3 6 56 13
3 6 95 52
3 6 16 86
3 48 67 51
3 48 70 52
3 16 19 48
3 13 51 106
5 13 56 90 118 106
3 19 109 13
5 67 51 106 119 90
3 56 90 67
3 95 108 67
3 86 51 107
3 56 104 70
5 52 70 104 108 95
3 107 109 52
5 19 109 107 86 16
3 16 104 108
3 86 90 118
3 90 119 19
3 106 119 70
3 95 118 106
3 109 118 104
3 107 119 108
3 41 80 62
3 62 91 58
3 62 86 74
3 63 83 64
3 58 82 63
3 74 63 78
3 41 92 64
5 92 41 80 107 116
3 78 103 41
5 83 64 92 119 107
3 90 64 86
5 82 114 113 91 58
3 58 103 90
3 80 83 107
3 91 83 113
3 80 114 82
5 74 86 90 103 78
3 113 114 74
3 91 116 92
3 107 116 86
3 92 119 82
3 78 107 119
3 90 119 113
3 114 116 103
3 29 12 31
3 12 52 18
3 19 44 12
3 14 39 13
5 13 96 118 103 14
3 29 96 13
3 19 97 13
5 39 77 118 104 14
3 52 77 39
3 39 44 78
3 31 103 14
3 14 104 18
5 29 96 116 103 31
3 78 107 29
3 77 112 31
5 18 52 77 112 104
3 52 107 97
5 19 97 107 78 44
3 44 112 104
3 96 116 18
3 103 116 19
3 96 118 77
3 103 118 78
3 97 104 118
3 112 116 107
3 14 39 27
3 30 76 27
3 27 101 60
3 39 42 77
3 39 106 70
3 42 57 43
3 32 30 57
3 60 70 57
3 14 43 104
3 32 110 14
5 42 43 104 117 77
3 42 102 101
5 32 30 76 115 110
3 30 102 106
3 43 115 76
3 77 32 117
3 76 77 118
5 60 101 102 106 70
3 110 115 60
3 70 117 104
3 104 118 101
3 110 118 106
3 102 117 115
3 72 81 59
3 72 93 16
3 72 95 75
3 67 83 64
3 64 92 16
3 75 64 101
3 67 94 59
5 67 94 119 102 83
3 95 97 67
5 94 59 81 102 117
3 101 59 104
3 81 102 83
3 93 83 107
5 92 112 107 93 16
3 16 97 104
3 92 112 81
5 95 75 101 104 97
3 75 112 107
3 93 117 94
3 95 117 102
3 92 94 119
3 101 119 102
3 107 119 97
3 112 117 104
3 11 56 14
3 11 16 88
3 11 101 44
3 43 40 59
3 18 40 16
3 44 70 40
5 56 14 111 118 89
3 14 111 43
3 14 18 109
3 56 89 59
3 56 97 70
5 43 59 89 117 111
3 59 101 108
3 43 112 88
5 16 88 112 109 18
3 97 108 16
5 101 44 70 97 108
3 44 112 109
3 89 117 18
3 88 89 118
3 111 117 70
3 101 111 118
3 109 118 97
3 112 117 108
3 49 80 29
3 49 52 93
3 75 86 49
3 51 50 83
3 52 85 50
3 75 78 50
3 29 51 98
5 80 29 98 116 100
3 78 109 29
5 51 83 100 119 98
3 86 51 97
5 52 93 108 112 85
3 97 52 109
3 80 100 83
3 93 108 83
3 85 112 80
5 75 86 97 109 78
3 108 112 75
3 100 116 86
3 98 116 93
3 78 100 119
3 85 98 119
3 97 108 119
3 109 116 112
3 14 56 13
3 13 15 96
3 33 106 13
3 15 28 17
3 32 68 28
3 28 60 33
3 14 17 103
3 32 111 14
3 56 89 68
3 56 90 60
5 96 15 17 103 114
3 15 113 90
3 17 89 115
5 68 32 111 115 89
3 106 113 68
3 32 114 96
5 60 33 106 113 90
3 33 114 103
3 111 115 60
3 96 89 118
3 103 118 90
3 106 118 111
3 114 115 113
3 66 91 15
3 74 87 66
3 66 84 68
3 67 83 51
3 67 94 68
3 90 67 87
3 15 98 51
3 74 106 51
5 91 15 98 114 100
3 15 110 90
3 91 100 83
3 83 102 84
5 90 110 106 74 87
3 74 114 100
5 94 68 84 102 115
3 106 110 68
3 91 94 115
3 84 114 98
3 87 115 102
3 98 119 94
3 100 119 90
3 102 119 106
3 114 115 110
3 31 80 41
3 41 92 44
3 41 88 75
3 43 42 81
3 44 85 42
3 75 42 77
3 31 105 43
5 80 99 116 105 31
3 77 109 31
5 43 105 117 99 81
3 88 43 104
3 80 99 81
3 85 107 80
5 85 107 108 92 44
3 104 109 44
3 92 108 81
5 77 109 104 88 75
3 75 107 108
3 99 117 77
3 88 99 116
3 105 116 92
3 85 105 117
3 107 116 109
3 108 117 104
3 31 29 80
3 29 96 74
3 33 98 29
3 76 30 74
3 30 32 84
3 30 33 82
3 31 32 105
3 76 103 31
3 84 99 80
3 82 100 80
5 76 74 96 110 103
3 74 113 100
5 84 32 105 115 99
3 32 110 96
3 76 115 99
5 33 98 113 100 82
3 33 103 110
3 84 98 113
3 82 115 105
3 96 99 116
3 98 116 105
3 103 100 116
3 110 115 113
3 17 58 91
3 58 76 87
3 58 60 82
3 59 81 43
3 60 94 59
3 87 59 89
3 17 43 105
3 76 111 43
5 17 105 114 99 91
3 17 89 110
3 91 99 81
3 81 102 82
3 91 94 113
5 111 76 87 89 110
3 99 114 76
5 94 60 82 102 113
3 110 111 60
3 102 113 87
3 82 114 105
3 99 117 89
3 105 117 94
3 102 117 111
3 110 113 114
3 17 15 91
3 86 15 96
3 15 98 19
3 18 93 16
3 88 16 86
3 19 92 16
3 18 105 17
3 88 17 103
3 91 99 93
3 92 100 91
5 105 18 93 99 112
3 18 109 96
5 88 103 109 96 86
3 100 107 86
3 93 107 98
5 19 92 100 107 98
3 19 109 103
3 99 112 88
3 92 112 105
3 99 114 96
3 98 114 105
3 100 114 103
3 107 112 109
3 52 93 18
3 77 95 52
3 52 85 70
3 68 84 32
3 70 94 68
3 89 68 95
3 18 32 105
3 77 111 32
3 18 104 89
3 84 99 93
3 85 102 84
3 93 108 94
5 95 77 111 104 89
3 99 112 77
5 94 108 102 85 70
3 104 111 70
3 102 108 95
3 89 115 99
3 105 112 85
3 105 115 94
3 102 115 111
3 108 112 104
3 74 87 76
3 96 74 86
3 74 106 78
3 88 75 86
3 75 77 95
3 75 101 78
3 76 111 77
3 76 103 88
3 86 97 90
3 87 95 89
3 90 101 87
3 96 109 77
3 89 104 88
3 95 106 97
5 78 106 97 90 101
3 103 109 78
3 89 110 96
3 101 111 104
3 90 110 103
3 110 111 106
3 109 104 97
3 19 44 92
3 70 85 44
3 78 44 101
3 33 60 82
3 33 98 19
3 33 78 106
3 60 70 94
3 60 101 90
3 90 97 19
3 70 106 97
3 82 92 100
3 82 102 85
3 92 108 94
3 78 107 100
3 85 107 98
3 101 108 102
3 94 98 113
3 100 113 90
3 106 113 102
3 97 107 108

# Cells
32 0 1 2 3 4 5 6 7 8 9 10 11 12 13 14 15 16 17 18 19 20 21 22 23 24 25 26 27 28 29 30 31
32 32 33 34 35 36 37 38 39 40 41 42 43 44 45 46 47 48 49 50 51 52 53 54 55 56 57 58 59 60 61 62 63
32 34 64 65 66 67 68 69 70 71 72 73 74 75 76 77 78 79 80 81 82 83 84 85 86 87 88 89 90 91 92 93 94
32 41 95 96 97 98 99 100 101 102 103 104 105 106 107 108 109 110 111 112 113 114 115 116 117 118 119 120 121 122 123 124 125
32 2 66 126 127 128 129 130 131 132 133 134 135 136 137 138 139 140 141 142 143 144 145 146 147 148 149 150 151 152 153 154 155
32 71 130 156 157 158 159 160 161 162 163 164 165 166 167 168 169 170 171 172 173 174 175 176 177 178 179 180 181 182 183 184 185
32 8 98 186 187 188 189 190 191 192 193 194 195 196 197 198 199 200 201 202 203 204 205 206 207 208 209 210 211 212 213 214 215
32 1 33 101 195 216 217 218 219 220 221 222 223 224 225 226 227 228 229 230 231 232 233 234 235 236 237 238 239 240 241 242 243
32 102 167 190 244 245 246 247 248 249 250 251 252 253 254 255 256 257 258 259 260 261 262 263 264 265 266 267 268 269 270 271 272
32 12 139 159 201 246 273 274 275 276 277 278 279 280 281 282 283 284 285 286 287 288 289 290 291 292 293 294 295 296 297 298 299
32 7 39 70 133 227 300 301 302 303 304 305 306 307 308 309 310 311 312 313 314 315 316 317 318 319 320 321 322 323 324 325 326
32 44 75 107 163 254 327 328 329 330 331 332 333 334 335 336 337 338 339 340 341 342 343 344 345 346 347 348 349 350 351 352 353
32 345 354 355 356 357 358 359 360 361 362 363 364 365 366 367 368 369 370 371 372 373 374 375 376 377 378 379 380 381 382 383 384
32 68 166 332 356 385 386 387 388 389 390 391 392 393 394 395 396 397 398 399 400 401 402 403 404 405 406 407 408 409 410 411 412
32 96 251 329 362 413 414 415 416 417 418 419 420 421 422 423 424 425 426 427 428 429 430 431 432 433 434 435 436 437 438 439 440
32 36 104 338 355 423 441 442 443 444 445 446 447 448 449 450 451 452 453 454 455 456 457 458 459 460 461 462 463 464 465 466 467
32 157 248 337 366 399 427 468 469 470 471 472 473 474 475 476 477 478 479 480 481 482 483 484 485 486 487 488 489 490 491 492 493
32 40 73 340 361 395 454 494 495 496 497 498 499 500 501 502 503 504 505 506 507 508 509 510 511 512 513 514 515 516 517 518 519
32 20 50 83 112 142 170 198 232 261 286 315 343 520 521 522 523 524 525 526 527 528 529 530 531 532 533 534 535 536 537 538 539
32 291 540 541 542 543 544 545 546 547 548 549 550 551 552 553 554 555 556 557 558 559 560 561 562 563 564 565 566 567 568 569 570
32 128 173 278 543 571 572 573 574 575 576 577 578 579 580 581 582 583 584 585 586 587 588 589 590 591 592 593 594 595 596 597 598
32 187 257 274 548 599 600 601 602 603 604 605 606 607 608 609 610 611 612 613 614 615 616 617 618 619 620 621 622 623 624 625 626
32 4 196 281 541 616 627 628 629 630 631 632 633 634 635 636 637 638 639 640 641 642 643 644 645 646 647 648 649 650 651 652 653
32 162 255 285 485 552 581 607 654 655 656 657 658 659 660 661 662 663 664 665 666 667 668 669 670 671 672 673 674 675 676 677 678
32 10 134 289 547 588 640 679 680 681 682 683 684 685 686 687 688 689 690 691 692 693 694 695 696 697 698 699 700 701 702 703 704
32 208 603 628 705 706 707 708 709 710 711 712 713 714 715 716 717 718 719 720 721 722 723 724 725 726 727 728 729 730 731 732 733
32 110 192 218 706 734 735 736 737 738 739 740 741 742 743 744 745 746 747 748 749 750 751 752 753 754 755 756 757 758 759 760 761
32 106 203 259 430 614 715 750 762 763 764 765 766 767 768 769 770 771 772 773 774 775 776 777 778 779 780 781 782 783 784 785 786
32 14 205 228 642 711 747 787 788 789 790 791 792 793 794 795 796 797 798 799 800 801 802 803 804 805 806 807 808 809 810 811 812
32 478 662 813 814 815 816 817 818 819 820 821 822 823 824 825 826 827 828 829 830 831 832 833 834 835 836 837 838 839 840 841 842
32 176 386 472 572 659 815 843 844 845 846 847 848 849 850 851 852 853 854 855 856 857 858 859 860 861 862 863 864 865 866 867 868
32 264 414 469 600 656 763 822 869 870 871 872 873 874 875 876 877 878 879 880 881 882 883 884 885 886 887 888 889 890 891 892 893
32 358 424 481 814 881 894 895 896 897 898 899 900 901 902 903 904 905 906 907 908 909 910 911 912 913 914 915 916 917 918 919 920
32 364 396 486 820 856 902 921 922 923 924 925 926 927 928 929 930 931 932 933 934 935 936 937 938 939 940 941 942 943 944 945 946
32 148 575 681 947 948 949 950 951 952 953 954 955 956 957 958 959 960 961 962 963 964 965 966 967 968 969 970 971 972 973 974 975
32 79 136 302 948 976 977 978 979 980 981 982 983 984 985 986 987 988 989 990 991 992 993 994 995 996 997 998 999 1000 1001 1002 1003
32 77 145 178 405 586 853 957 991 1004 1005 1006 1007 1008 1009 1010 1011 1012 1013 1014 1015 1016 1017 1018 1019 1020 1021 1022 1023 1024 1025 1026 1027
32 16 140 311 693 953 989 1028 1029 1030 1031 1032 1033 1034 1035 1036 1037 1038 1039 1040 1041 1042 1043 1044 1045 1046 1047 1048 1049 1050 1051 1052 1053
32 116 417 442 735 766 1054 1055 1056 1057 1058 1059 1060 1061 1062 1063 1064 1065 1066 1067 1068 1069 1070 1071 1072 1073 1074 1075 1076 1077 1078 1079 1080
32 46 118 230 458 743 1060 1081 1082 1083 1084 1085 1086 1087 1088 1089 1090 1091 1092 1093 1094 1095 1096 1097 1098 1099 1100 1101 1102 1103 1104 1105 1106
32 428 772 873 895 1056 1107 1108 1109 1110 1111 1112 1113 1114 1115 1116 1117 1118 1119 1120 1121 1122 1123 1124 1125 1126 1127 1128 1129 1130 1131 1132 1133
32 368 433 455 904 1068 1112 1134 1135 1136 1137 1138 1139 1140 1141 1142 1143 1144 1145 1146 1147 1148 1149 1150 1151 1152 1153 1154 1155 1156 1157 1158 1159
32 544 613 669 817 879 1160 1161 1162 1163 1164 1165 1166 1167 1168 1169 1170 1171 1172 1173 1174 1175 1176 1177 1178 1179 1180 1181 1182 1183 1184 1185 1186
32 550 585 672 821 854 1165 1187 1188 1189 1190 1191 1192 1193 1194 1195 1196 1197 1198 1199 1200 1201 1202 1203 1204 1205 1206 1207 1208 1209 1210 1211 1212
32 237 739 789 1083 1213 1214 1215 1216 1217 1218 1219 1220 1221 1222 1223 1224 1225 1226 1227 1228 1229 1230 1231 1232 1233 1234 1235 1236 1237 1238 1239 1240
32 53 221 305 1093 1214 1241 1242 1243 1244 1245 1246 1247 1248 1249 1250 1251 1252 1253 1254 1255 1256 1257 1258 1259 1260 1261 1262 1263 1264 1265 1266 1267
32 18 224 308 800 1040 1219 1255 1268 1269 1270 1271 1272 1273 1274 1275 1276 1277 1278 1279 1280 1281 1282 1283 1284 1285 1286 1287 1288 1289 1290 1291 1292
32 86 389 496 977 1007 1293 1294 1295 1296 1297 1298 1299 1300 1301 1302 1303 1304 1305 1306 1307 1308 1309 1310 1311 1312 1313 1314 1315 1316 1317 1318 1319
32 48 81 313 510 987 1251 1301 1320 1321 1322 1323 1324 1325 1326 1327 1328 1329 1330 1331 1332 1333 1334 1335 1336 1337 1338 1339 1340 1341 1342 1343 1344
32 403 847 923 1011 1294 1345 1346 1347 1348 1349 1350 1351 1352 1353 1354 1355 1356 1357 1358 1359 1360 1361 1362 1363 1364 1365 1366 1367 1368 1369 1370 1371
32 370 400 505 930 1305 1350 1372 1373 1374 1375 1376 1377 1378 1379 1380 1381 1382 1383 1384 1385 1386 1387 1388 1389 1390 1391 1392 1393 1394 1395 1396 1397
32 608 708 777 876 1109 1161 1398 1399 1400 1401 1402 1403 1404 1405 1406 1407 1408 1409 1410 1411 1412 1413 1414 1415 1416 1417 1418 1419 1420 1421 1422 1423
32 554 621 643 717 1167 1403 1424 1425 1426 1427 1428 1429 1430 1431 1432 1433 1434 1435 1436 1437 1438 1439 1440 1441 1442 1443 1444 1445 1446 1447 1448 1449
32 713 742 781 1061 1113 1402 1450 1451 1452 1453 1454 1455 1456 1457 1458 1459 1460 1461 1462 1463 1464 1465 1466 1467 1468 1469 1470 1471 1472 1473 1474 1475
32 320 980 1029 1245 1272 1321 1476 1477 1478 1479 1480 1481 1482 1483 1484 1485 1486 1487 1488 1489 1490 1491 1492 1493 1494 1495 1496 1497 1498 1499 1500 1501
32 459 1063 1086 1136 1502 1503 1504 1505 1506 1507 1508 1509 1510 1511 1512 1513 1514 1515 1516 1517 1518 1519 1520 1521 1522 1523 1524 1525 1526 1527 1528 1529
32 372 451 502 1140 1377 1508 1530 1531 1532 1533 1534 1535 1536 1537 1538 1539 1540 1541 1542 1543 1544 1545 1546 1547 1548 1549 1550 1551 1552 1553 1554 1555
32 56 445 499 1088 1242 1324 1503 1540 1556 1557 1558 1559 1560 1561 1562 1563 1564 1565 1566 1567 1568 1569 1570 1571 1572 1573 1574 1575 1576 1577 1578 1579
32 582 850 950 1017 1189 1347 1580 1581 1582 1583 1584 1585 1586 1587 1588 1589 1590 1591 1592 1593 1594 1595 1596 1597 1598 1599 1600 1601 1602 1603 1604 1605
32 556 591 694 959 1193 1585 1606 1607 1608 1609 1610 1611 1612 1613 1614 1615 1616 1617 1618 1619 1620 1621 1622 1623 1624 1625 1626 1627 1628 1629 1630 1631
32 826 888 908 1116 1170 1406 1632 1633 1634 1635 1636 1637 1638 1639 1640 1641 1642 1643 1644 1645 1646 1647 1648 1649 1650 1651 1652 1653 1654 1655 1656 1657
32 955 986 1022 1302 1352 1584 1658 1659 1660 1661 1662 1663 1664 1665 1666 1667 1668 1669 1670 1671 1672 1673 1674 1675 1676 1677 1678 1679 1680 1681 1682 1683
32 511 1298 1328 1373 1531 1560 1684 1685 1686 1687 1688 1689 1690 1691 1692 1693 1694 1695 1696 1697 1698 1699 1700 1701 1702 1703 1704 1705 1706 1707 1708 1709
32 645 719 795 1426 1710 1711 1712 1713 1714 1715 1716 1717 1718 1719 1720 1721 1722 1723 1724 1725 1726 1727 1728 1729 1730 1731 1732 1733 1734 1735 1736 1737
32 558 637 687 1430 1612 1716 1738 1739 1740 1741 1742 1743 1744 1745 1746 1747 1748 1749 1750 1751 1752 1753 1754 1755 1756 1757 1758 1759 1760 1761 1762 1763
32 24 631 683 791 1032 1269 1710 1738 1764 1765 1766 1767 1768 1769 1770 1771 1772 1773 1774 1775 1776 1777 1778 1779 1780 1781 1782 1783 1784 1785 1786 1787
32 751 1066 1097 1216 1452 1505 1788 1789 1790 1791 1792 1793 1794 1795 1796 1797 1798 1799 1800 1801 1802 1803 1804 1805 1806 1807 1808 1809 1810 1811 1812 1813
32 721 754 802 1221 1456 1714 1793 1814 1815 1816 1817 1818 1819 1820 1821 1822 1823 1824 1825 1826 1827 1828 1829 1830 1831 1832 1833 1834 1835 1836 1837 1838
32 828 862 932 1196 1354 1588 1839 1840 1841 1842 1843 1844 1845 1846 1847 1848 1849 1850 1851 1852 1853 1854 1855 1856 1857 1858 1859 1860 1861 1862 1863 1864
32 1101 1224 1252 1510 1563 1792 1865 1866 1867 1868 1869 1870 1871 1872 1873 1874 1875 1876 1877 1878 1879 1880 1881 1882 1883 1884 1885 1886 1887 1888 1889 1890
32 696 961 1038 1607 1743 1768 1891 1892 1893 1894 1895 1896 1897 1898 1899 1900 1901 1902 1903 1904 1905 1906 1907 1908 1909 1910 1911 1912 1913 1914 1915 1916
32 913 1121 1145 1634 1917 1918 1919 1920 1921 1922 1923 1924 1925 1926 1927 1928 1929 1930 1931 1932 1933 1934 1935 1936 1937 1938 1939 1940 1941 1942 1943 1944
32 832 910 934 1638 1845 1923 1945 1946 1947 1948 1949 1950 1951 1952 1953 1954 1955 1956 1957 1958 1959 1960 1961 1962 1963 1964 1965 1966 1967 1968 1969 1970
32 377 898 926 1142 1380 1534 1918 1946 1971 1972 1973 1974 1975 1976 1977 1978 1979 1980 1981 1982 1983 1984 1985 1986 1987 1988 1989 1990 1991 1992 1993 1994
32 994 1309 1335 1478 1660 1686 1995 1996 1997 1998 1999 2000 2001 2002 2003 2004 2005 2006 2007 2008 2009 2010 2011 2012 2013 2014 2015 2016 2017 2018 2019 2020
32 963 996 1044 1485 1664 1893 2000 2021 2022 2023 2024 2025 2026 2027 2028 2029 2030 2031 2032 2033 2034 2035 2036 2037 2038 2039 2040 2041 2042 2043 2044 2045
32 1074 1123 1149 1459 1513 1796 1920 2046 2047 2048 2049 2050 2051 2052 2053 2054 2055 2056 2057 2058 2059 2060 2061 2062 2063 2064 2065 2066 2067 2068 2069 2070
32 1257 1337 1482 1569 1690 1867 1999 2071 2072 2073 2074 2075 2076 2077 2078 2079 2080 2081 2082 2083 2084 2085 2086 2087 2088 2089 2090 2091 2092 2093 2094 2095
32 805 1226 1280 1718 1773 1818 2096 2097 2098 2099 2100 2101 2102 2103 2104 2105 2106 2107 2108 2109 2110 2111 2112 2113 2114 2115 2116 2117 2118 2119 2120 2121
32 939 1357 1385 1841 1950 1975 2122 2123 2124 2125 2126 2127 2128 2129 2130 2131 2132 2133 2134 2135 2136 2137 2138 2139 2140 2141 2142 2143 2144 2145 2146 2147
32 1179 1411 1435 1640 2148 2149 2150 2151 2152 2153 2154 2155 2156 2157 2158 2159 2160 2161 2162 2163 2164 2165 2166 2167 2168 2169 2170 2171 2172 2173 2174 2175
32 835 1176 1200 1643 1849 1953 2154 2176 2177 2178 2179 2180 2181 2182 2183 2184 2185 2186 2187 2188 2189 2190 2191 2192 2193 2194 2195 2196 2197 2198 2199 2200
32 564 1172 1198 1433 1614 1746 2149 2178 2201 2202 2203 2204 2205 2206 2207 2208 2209 2210 2211 2212 2213 2214 2215 2216 2217 2218 2219 2220 2221 2222 2223 2224
32 1228 1261 1286 1489 1871 2076 2102 2225 2226 2227 2228 2229 2230 2231 2232 2233 2234 2235 2236 2237 2238 2239 2240 2241 2242 2243 2244 2245 2246 2247 2248 2249
32 1313 1361 1388 1667 1693 2003 2124 2250 2251 2252 2253 2254 2255 2256 2257 2258 2259 2260 2261 2262 2263 2264 2265 2266 2267 2268 2269 2270 2271 2272 2273 2274
32 727 1413 1437 1461 1720 1821 2150 2275 2276 2277 2278 2279 2280 2281 2282 2283 2284 2285 2286 2287 2288 2289 2290 2291 2292 2293 2294 2295 2296 2297 2298 2299
32 1046 1283 1487 1775 1897 2025 2098 2229 2300 2301 2302 2303 2304 2305 2306 2307 2308 2309 2310 2311 2312 2313 2314 2315 2316 2317 2318 2319 2320 2321 2322 2323
32 1153 1515 1543 1925 1980 2051 2324 2325 2326 2327 2328 2329 2330 2331 2332 2333 2334 2335 2336 2337 2338 2339 2340 2341 2342 2343 2344 2345 2346 2347 2348 2349
32 1205 1593 1619 1847 2183 2205 2350 2351 2352 2353 2354 2355 2356 2357 2358 2359 2360 2361 2362 2363 2364 2365 2366 2367 2368 2369 2370 2371 2372 2373 2374 2375
32 1126 1417 1463 1645 1927 2055 2155 2285 2376 2377 2378 2379 2380 2381 2382 2383 2384 2385 2386 2387 2388 2389 2390 2391 2392 2393 2394 2395 2396 2397 2398 2399
32 1517 1549 1574 1697 1874 2079 2330 2400 2401 2402 2403 2404 2405 2406 2407 2408 2409 2410 2411 2412 2413 2414 2415 2416 2417 2418 2419 2420 2421 2422 2423 2424
32 969 1596 1621 1669 1900 2028 2352 2425 2426 2427 2428 2429 2430 2431 2432 2433 2434 2435 2436 2437 2438 2439 2440 2441 2442 2443 2444 2445 2446 2447 2448 2449
32 1390 1546 1695 1982 2128 2255 2326 2405 2450 2451 2452 2453 2454 2455 2456 2457 2458 2459 2460 2461 2462 2463 2464 2465 2466 2467 2468 2469 2470 2471 2472 2473
32 1444 1723 1751 2158 2210 2280 2474 2475 2476 2477 2478 2479 2480 2481 2482 2483 2484 2485 2486 2487 2488 2489 2490 2491 2492 2493 2494 2495 2496 2497 2498 2499
32 1468 1801 1826 2053 2282 2382 2500 2501 2502 2503 2504 2505 2506 2507 2508 2509 2510 2511 2512 2513 2514 2515 2516 2517 2518 2519 2520 2521 2522 2523 2524 2525
32 1365 1599 1671 1854 2131 2259 2358 2435 2526 2527 2528 2529 2530 2531 2532 2533 2534 2535 2536 2537 2538 2539 2540 2541 2542 2543 2544 2545 2546 2547 2548 2549
32 1727 1755 1782 1904 2105 2307 2480 2550 2551 2552 2553 2554 2555 2556 2557 2558 2559 2560 2561 2562 2563 2564 2565 2566 2567 2568 2569 2570 2571 2572 2573 2574
32 1235 1804 1828 1876 2107 2232 2502 2575 2576 2577 2578 2579 2580 2581 2582 2583 2584 2585 2586 2587 2588 2589 2590 2591 2592 2593 2594 2595 2596 2597 2598 2599
32 1625 1753 1902 2214 2356 2430 2476 2555 2600 2601 2602 2603 2604 2605 2606 2607 2608 2609 2610 2611 2612 2613 2614 2615 2616 2617 2618 2619 2620 2621 2622 2623
32 1652 1930 1958 2163 2188 2386 2624 2625 2626 2627 2628 2629 2630 2631 2632 2633 2634 2635 2636 2637 2638 2639 2640 2641 2642 2643 2644 2645 2646 2647 2648 2649
32 1676 2008 2033 2257 2432 2532 2650 2651 2652 2653 2654 2655 2656 2657 2658 2659 2660 2661 2662 2663 2664 2665 2666 2667 2668 2669 2670 2671 2672 2673 2674 2675
32 1523 1807 1878 2060 2335 2409 2508 2585 2676 2677 2678 2679 2680 2681 2682 2683 2684 2685 2686 2687 2688 2689 2690 2691 2692 2693 2694 2695 2696 2697 2698 2699
32 1934 1963 1989 2135 2333 2457 2630 2700 2701 2702 2703 2704 2705 2706 2707 2708 2709 2710 2711 2712 2713 2714 2715 2716 2717 2718 2719 2720 2721 2722 2723 2724
32 1496 2010 2035 2081 2237 2309 2652 2725 2726 2727 2728 2729 2730 2731 2732 2733 2734 2735 2736 2737 2738 2739 2740 2741 2742 2743 2744 2745 2746 2747 2748 2749
32 1729 1832 2109 2289 2483 2506 2558 2580 2750 2751 2752 2753 2754 2755 2756 2757 2758 2759 2760 2761 2762 2763 2764 2765 2766 2767 2768 2769 2770 2771 2772 2773
32 1859 1961 2133 2190 2361 2536 2626 2705 2774 2775 2776 2777 2778 2779 2780 2781 2782 2783 2784 2785 2786 2787 2788 2789 2790 2791 2792 2793 2794 2795 2796 2797
32 1883 2087 2239 2407 2582 2682 2729 2798 2799 2800 2801 2802 2803 2804 2805 2806 2807 2808 2809 2810 2811 2812 2813 2814 2815 2816 2817 2818 2819 2820 2821 2822
32 1703 2014 2083 2264 2414 2459 2658 2737 2805 2823 2824 2825 2826 2827 2828 2829 2830 2831 2832 2833 2834 2835 2836 2837 2838 2839 2840 2841 2842 2843 2844 2845
32 2166 2194 2219 2365 2485 2609 2635 2783 2846 2847 2848 2849 2850 2851 2852 2853 2854 2855 2856 2857 2858 2859 2860 2861 2862 2863 2864 2865 2866 2867 2868 2869
32 1909 2039 2311 2439 2560 2607 2656 2732 2870 2871 2872 2873 2874 2875 2876 2877 2878 2879 2880 2881 2882 2883 2884 2885 2886 2887 2888 2889 2890 2891 2892 2893
32 1937 2064 2337 2390 2511 2633 2686 2708 2894 2895 2896 2897 2898 2899 2900 2901 2902 2903 2904 2905 2906 2907 2908 2909 2910 2911 2912 2913 2914 2915 2916 2917
32 2114 2242 2316 2562 2587 2735 2757 2802 2876 2918 2919 2920 2921 2922 2923 2924 2925 2926 2927 2928 2929 2930 2931 2932 2933 2934 2935 2936 2937 2938 2939 2940
32 2168 2293 2392 2487 2515 2637 2759 2853 2903 2941 2942 2943 2944 2945 2946 2947 2948 2949 2950 2951 2952 2953 2954 2955 2956 2957 2958 2959 2960 2961 2962 2963
32 2141 2268 2461 2540 2661 2710 2781 2833 2964 2965 2966 2967 2968 2969 2970 2971 2972 2973 2974 2975 2976 2977 2978 2979 2980 2981 2982 2983 2984 2985 2986 2987
32 2342 2418 2466 2690 2712 2810 2835 2901 2971 2988 2989 2990 2991 2992 2993 2994 2995 2996 2997 2998 2999 3000 3001 3002 3003 3004 3005 3006 3007 3008 3009 3010
32 2368 2444 2542 2611 2665 2785 2855 2881 2973 3011 3012 3013 3014 3015 3016 3017 3018 3019 3020 3021 3022 3023 3024 3025 3026 3027 3028 3029 3030 3031 3032 3033
32 2492 2568 2616 2766 2859 2884 2928 2949 3019 3034 3035 3036 3037 3038 3039 3040 3041 3042 3043 3044 3045 3046 3047 3048 3049 3050 3051 3052 3053 3054 3055 3056
32 2520 2594 2693 2764 2813 2905 2931 2955 3000 3044 3057 3058 3059 3060 3061 3062 3063 3064 3065 3066 3067 3068 3069 3070 3071 3072 3073 3074 3075 3076 3077 3078
32 2643 2718 2790 2862 2910 2953 2980 2998 3024 3046 3069 3079 3080 3081 3082 3083 3084 3085 3086 3087 3088 3089 3090 3091 3092 3093 3094 3095 3096 3097 3098 3099
32 2670 2744 2815 2840 2886 2934 2977 3003 3026 3049 3071 3093 3100 3101 3102 3103 3104 3105 3106 3107 3108 3109 3110 3111 3112 3113 3114 3115 3116 3117 3118 3119
20 542 571 816 843 954 1163 1351 1661 1744 1898 1951 2129 2161 2484 2634 2663 2878 2972 3045 3090
20 947 976 1293 1345 1481 1580 1689 1896 2073 2127 2302 2355 2452 2602 2776 2803 2919 2989 3035 3080
20 1213 1241 1476 1502 1556 1684 1788 1995 2097 2301 2325 2451 2505 2655 2752 2871 2896 2966 3038 3082
20 705 734 1054 1107 1223 1398 1509 1717 1868 1924 2099 2159 2327 2477 2627 2808 2924 2995 3041 3086
20 549 599 712 823 869 1114 1190 1453 1719 1745 1926 1952 2363 2513 2608 2758 2782 2902 3050 3094
20 363 413 824 870 924 1058 1404 1457 1511 1533 2137 2160 2185 2460 2514 2684 2786 2950 3004 3097
20 357 385 818 844 897 1297 1532 1586 1665 1691 1932 2184 2336 2357 2638 2664 2832 3001 3020 3095
20 1218 1268 1480 1711 1764 1814 1866 1891 2021 2072 2475 2509 2601 2659 2677 2824 2942 2991 3012 3079
20 354 441 896 1055 1110 1374 1559 1687 1794 1872 1956 2132 2383 2507 2636 2809 2831 2974 3065 3091
20 952 1028 1477 1610 1659 1739 1770 1997 2101 2226 2359 2482 2527 2751 2806 2826 2848 2969 3058 3083
20 367 468 846 872 1115 1137 1168 1194 1353 1375 2162 2340 2364 2384 2465 2534 2860 2906 2978 3099
20 710 787 1215 1428 1451 1740 1771 1790 2156 2230 2304 2377 2606 2685 2807 2851 2872 2899 3084 3102
20 360 494 922 1135 1295 1348 1506 1557 1929 1955 2001 2077 2533 2657 2683 2784 2804 2904 3087 3108
20 553 654 849 875 905 931 1405 1427 1587 1609 1933 2138 2388 2490 2538 2615 2713 2956 3027 3098
20 540 627 707 1162 1400 1608 1767 1819 1894 2103 2186 2360 2385 2510 2631 2877 2925 3018 3064 3085
20 1300 1320 1376 1484 1539 1562 1663 1870 2023 2130 2227 2332 2528 2678 2702 2879 2926 3016 3062 3088
20 546 679 949 1188 1425 1582 1713 1765 2026 2157 2181 2305 2535 2660 2756 2779 2920 2948 3081 3105
20 1059 1082 1138 1220 1455 1541 1565 1816 1928 2075 2231 2378 2456 2706 2760 2825 2927 2946 3089 3107
20 716 762 878 903 1065 1141 1166 1431 1795 1820 1957 2187 2339 2489 2688 2711 2763 2856 3072 3096
20 852 929 958 1004 1192 1304 1379 1613 1954 2002 2027 2182 2463 2613 2709 2827 2854 2880 3092 3109
20 3 126 545 573 630 981 1273 1483 1589 1668 1725 2108 2212 2362 2488 2667 2740 2933 3025 3053
20 1507 1530 1688 1865 1917 1971 2046 2071 2122 2250 2501 2576 2625 2651 2726 2775 2921 2941 3011 3034
20 9 186 551 601 682 738 1225 1274 1408 1460 1907 2164 2213 2310 2517 2590 2612 2935 2954 3055
20 13 273 576 604 714 790 956 1031 1171 1197 2112 2165 2288 2315 2367 2438 2765 2863 2887 3056
20 0 216 629 709 736 1030 1246 1479 1749 1797 1875 1901 2287 2486 2512 2739 2812 2883 3051 3070
20 1349 1372 1658 1685 1843 1945 1977 1996 2329 2351 2400 2426 2632 2728 2799 2847 2874 2895 3037 3057
20 6 300 680 788 951 978 1217 1243 1722 1748 2005 2080 2437 2589 2610 2662 2762 2811 3047 3113
20 1111 1134 1450 1504 1636 1789 1947 1978 2151 2276 2403 2454 2578 2755 2780 2800 2850 2965 3039 3100
20 813 894 1108 1160 1399 1839 1974 2049 2125 2204 2278 2331 2353 2481 2503 2970 2994 3017 3040 3063
20 985 1037 1250 1277 1327 1666 1692 1873 1899 2104 2252 2402 2427 2552 2577 2975 2996 3021 3042 3066
20 580 606 641 661 692 825 1407 1590 1635 1726 1842 1906 2283 2433 2563 2640 2789 2958 3029 3054
20 819 921 1187 1346 1581 1632 1921 1972 2152 2202 2253 2428 2455 2605 2653 2900 2947 2990 3036 3104
20 741 794 1085 1254 1278 1458 1512 1721 2048 2078 2277 2306 2406 2556 2727 2907 2951 2997 3043 3110
20 612 636 749 771 801 1117 1169 1639 1750 1798 2052 2111 2206 2561 2583 2639 2861 2909 3052 3075
20 584 686 992 1010 1042 1195 1355 1747 1846 2004 2203 2256 2313 2559 2730 2787 2858 2976 3048 3114
20 42 95 365 415 497 745 1120 1227 1249 1462 1700 1931 1985 2082 2462 2518 2592 2818 2912 3009
20 35 64 359 388 444 983 1248 1359 1488 1519 1670 1877 1984 2134 2338 2668 2742 2817 2983 3007
20 1715 1742 1895 2096 2148 2201 2275 2300 2350 2425 2500 2575 2624 2650 2725 2774 2798 2894 2964 2988
20 32 217 443 737 1057 1275 1322 1486 1537 1694 1822 2058 2106 2334 2516 2741 2837 2930 3002 3074
20 1583 1606 1662 1840 1892 2022 2123 2176 2207 2251 2479 2551 2629 2701 2734 2829 2922 2943 2992 3060
20 45 327 392 418 909 933 1062 1084 1303 1323 1881 1936 2062 2089 2139 2266 2694 2719 2841 3010
20 1401 1424 1454 1633 1712 1815 1919 2047 2177 2208 2554 2584 2604 2680 2704 2778 2923 2993 3013 3103
20 38 301 495 979 1081 1222 1270 1296 1514 1535 2030 2262 2308 2458 2591 2666 2689 2929 2999 3117
20 402 426 457 477 509 830 1119 1360 1520 1641 1699 1848 2054 2258 2408 2642 2792 2913 2984 3008
20 422 450 753 775 899 1095 1409 1538 1644 1823 1880 1976 2281 2415 2588 2641 2716 2957 3006 3076
20 394 501 925 993 1015 1334 1536 1591 1851 1973 2029 2085 2411 2431 2715 2736 2788 3005 3023 3116
20 72 156 369 470 500 578 831 962 984 1199 1701 1959 1986 2011 2370 2442 2467 2672 2793 2986
20 76 334 448 475 855 912 1006 1150 1326 1564 1674 1856 1960 2013 2344 2417 2543 2721 2842 2987
20 65 127 387 574 845 1035 1325 1383 1490 1617 1698 1852 1905 2136 2366 2743 2838 2888 2982 3030
20 1791 1817 1869 2050 2100 2225 2279 2328 2379 2401 2478 2550 2628 2700 2731 2828 2846 2873 2967 3014
20 69 304 498 960 1005 1034 1244 1356 1382 1558 2234 2314 2413 2441 2464 2539 2814 2885 2981 3119
20 1164 1191 1429 1611 1637 1741 1844 1948 2284 2380 2434 2530 2557 2707 2754 2875 2898 2968 3059 3101
20 398 480 590 667 906 1016 1174 1384 1618 1646 1673 1981 2211 2265 2440 2645 2717 2864 2985 3031
20 453 504 1094 1143 1256 1333 1381 1799 1979 2006 2057 2233 2261 2581 2714 2733 2908 2979 3068 3112
20 5 37 67 129 219 965 1230 1307 1567 1672 1696 1777 1879 1903 2110 2669 2819 2839 2889 2937
20 1922 1949 2126 2153 2180 2324 2354 2376 2450 2474 2504 2526 2600 2654 2676 2750 2801 2823 2870 2918
20 11 43 97 189 303 723 1070 1464 1491 1516 1568 1724 1778 2084 2312 2519 2692 2768 2820 2938
20 51 143 199 520 644 695 744 988 1087 1329 1731 1830 1885 1911 2038 2091 2569 2595 2745 2940
20 146 204 231 284 314 560 724 967 1232 1436 1493 1620 1827 2034 2240 2496 2620 2771 2891 2939
20 194 223 632 769 1069 1090 1276 1410 1434 1769 1882 2059 2241 2387 2491 2566 2691 2936 2959 3077
20 132 307 684 1008 1271 1306 1331 1592 1616 1766 2086 2236 2263 2537 2565 2614 2836 2932 3028 3118
20 103 244 371 447 474 610 720 746 834 1173 1522 1806 1962 1987 2171 2295 2343 2522 2647 2917
20 99 188 416 602 797 871 1091 1147 1229 1440 1518 1648 1728 1935 2167 2593 2695 2769 2914 2961
20 1998 2024 2074 2228 2254 2303 2404 2429 2453 2529 2553 2579 2603 2679 2703 2753 2777 2849 2897 2944
20 108 335 476 507 765 880 938 1092 1389 1466 1570 1650 1805 1965 2393 2420 2469 2696 2722 2916
20 100 220 446 718 764 793 1118 1144 1247 1561 2113 2238 2291 2341 2389 2416 2767 2816 2911 3078
20 431 484 618 668 776 936 1148 1202 1439 1465 1855 1983 2061 2215 2290 2720 2794 2866 2915 2960
20 131 161 390 555 655 685 827 927 982 1299 1908 2036 2140 2192 2216 2267 2617 2671 2791 3033
20 138 280 634 665 857 1009 1036 1178 1438 1675 1774 1853 2037 2189 2494 2541 2567 2865 2890 3032
20 901 928 1139 1378 1542 1642 1850 2056 2179 2260 2381 2410 2531 2681 2830 2852 2945 3015 3061 3106
20 639 691 799 1041 1279 1432 1615 1824 2031 2209 2235 2286 2436 2586 2738 2857 2952 3022 3067 3111
20 15 74 158 276 306 561 858 1201 1308 1358 1494 1752 1779 2015 2317 2372 2545 2618 2673 2892
20 84 233 287 526 587 647 803 1012 1253 1332 1623 1678 1757 2016 2116 2244 2445 2571 2747 2893
20 226 310 792 1033 1089 1330 1566 1772 1800 1825 2007 2032 2412 2564 2687 2761 2834 2882 3073 3115
20 21 85 113 456 506 525 748 796 990 1039 1521 1702 1803 2012 2117 2319 2419 2596 2746 2822
20 78 109 229 312 336 374 1072 1146 1231 1311 1386 1492 1802 2009 2243 2346 2470 2697 2821 2843
20 168 250 373 391 421 559 579 611 1125 1364 1415 1598 1938 1988 2142 2170 2218 2371 2649 2797
20 164 328 419 508 657 877 1014 1152 1203 1310 1550 1597 1651 1939 2195 2271 2471 2546 2723 2796
20 160 275 471 605 690 874 937 964 1013 1362 1441 1649 1756 1964 2169 2443 2544 2621 2795 2868
20 191 249 420 557 633 658 740 829 900 1064 1732 1831 1940 2063 2193 2217 2493 2521 2644 2963
20 202 283 666 689 770 798 882 1204 1467 1622 1647 1776 1829 2191 2391 2570 2619 2770 2867 2962
20 17 105 222 247 279 562 883 1071 1122 1177 1233 1754 1780 1809 2115 2173 2396 2497 2523 2772
20 114 288 316 527 615 698 773 1045 1096 1258 1442 1470 1759 1808 2245 2294 2320 2572 2597 2773
20 47 135 165 309 330 375 860 935 966 1495 1545 1571 1594 2040 2088 2144 2468 2547 2674 2844
20 147 235 342 406 461 531 1018 1043 1098 1281 1387 1544 1680 1887 2041 2246 2270 2421 2749 2845
20 22 52 171 397 503 521 589 688 1259 1282 1363 1595 1705 1912 2090 2269 2318 2446 2675 2748
20 245 277 473 577 635 722 767 848 907 1124 1624 1758 1857 1966 2292 2369 2394 2495 2646 2869
20 253 331 393 449 660 768 851 1067 1175 1393 1414 1551 1858 2067 2143 2196 2345 2395 2648 2724
20 19 137 169 193 252 726 833 859 884 968 1419 1601 1730 1781 1910 2172 2197 2373 2498 2622
20 172 200 317 522 609 663 807 995 1019 1207 1287 1443 1600 1733 2042 2220 2321 2447 2573 2623
20 49 197 225 256 333 376 725 885 911 1234 1412 1548 1572 1834 1884 1941 2347 2397 2524 2699
20 207 318 344 432 513 532 778 804 1151 1284 1336 1472 1547 1833 2065 2092 2247 2422 2598 2698
20 23 55 263 425 452 524 617 638 1128 1260 1285 1416 1526 1734 1886 2066 2118 2296 2525 2599
20 144 234 262 523 583 664 752 774 1049 1181 1288 1418 1628 1835 1913 2119 2221 2297 2499 2574
20 54 80 111 174 258 836 861 886 1073 1127 1312 1366 1524 1573 1704 1942 1967 2146 2348 2472
20 115 175 319 429 479 528 942 997 1020 1099 1156 1262 1367 1525 1990 2017 2093 2272 2423 2473
20 82 141 260 282 339 379 563 887 914 972 1180 1315 1392 1627 1677 1968 2145 2198 2374 2549
20 294 322 348 488 516 535 671 699 941 1047 1209 1338 1391 1626 1860 2018 2043 2273 2448 2548
20 26 88 266 401 482 529 619 646 837 998 1048 1182 1368 1679 1760 1861 1914 2222 2375 2449
20 89 236 267 404 483 530 755 779 915 1129 1263 1339 1394 1706 1810 1888 1991 2068 2349 2424
20 57 87 117 177 265 565 593 620 728 756 970 999 1236 1264 1497 1735 1761 1915 2121 2323
20 120 180 209 292 346 514 700 809 971 1021 1100 1237 1314 1575 1783 2019 2044 2094 2248 2322
20 119 179 206 290 341 381 566 730 864 940 1076 1154 1206 1445 1469 1943 1969 2174 2199 2398
20 240 296 350 465 489 537 650 675 808 917 1103 1155 1183 1446 1654 1812 1836 2069 2299 2399
20 28 121 182 434 487 533 594 697 757 806 838 1130 1208 1471 1653 1736 1762 2175 2223 2298
20 58 150 269 435 460 534 592 670 839 916 1000 1340 1553 1602 1681 1707 1862 1992 2147 2274
20 90 151 270 293 347 462 648 729 780 1050 1075 1341 1498 1576 1784 1811 1837 1889 2120 2249
20 25 149 181 210 268 378 407 436 758 1001 1077 1238 1289 1316 1499 1527 1552 1708 1890 2095
20 153 213 352 410 438 539 651 701 783 918 944 1024 1422 1447 1604 1629 1656 1863 2200 2224
20 59 183 211 409 512 536 622 673 759 840 943 1102 1420 1473 1528 1554 1655 1944 1993 2070
20 60 212 239 272 349 408 567 649 674 863 1290 1317 1342 1500 1603 1630 1682 1785 1916 2045
20 27 122 238 271 295 380 463 490 595 865 973 1051 1265 1370 1396 1501 1577 1683 1709 2020
20 92 123 298 464 515 538 596 623 782 1023 1131 1157 1184 1210 1369 1395 1657 1864 1970 1994
20 61 152 185 323 351 437 568 676 702 889 1078 1104 1239 1291 1421 1448 1474 1737 1786 1838
20 29 91 184 297 321 382 491 517 624 732 811 891 1132 1158 1240 1266 1475 1529 1578 1813
20 93 125 241 325 353 492 731 784 810 866 890 974 1025 1052 1185 1211 1449 1631 1763 1787
20 30 62 124 214 324 383 439 518 569 625 703 841 893 945 975 1002 1212 1318 1371 1605
20 155 215 243 299 326 677 785 867 892 920 946 1026 1079 1105 1159 1319 1343 1397 1555 1579
20 31 63 94 154 242 384 411 466 570 597 652 733 760 842 868 919 1080 1133 1186 1423
20 412 440 467 493 519 598 626 653 678 704 761 786 812 1003 1027 1053 1106 1267 1292 1344
