# Generated using Miratope v0.5.0 (https://github.com/galoomba1/miratope-rs)
4OFF

# Vertices, Faces, Edges, Cells
120 3120 1200 240

# Vertices
0.809016994375 0 0.3090169943749 0.5 
0.809016994375 -0 0.3090169943749 -0.5 
0.809016994375 0.5 0 -0.3090169943749 
0.5 -0.8090169943749 0.3090169943749 0 
0.5 0.5 -0.5 0.5 
0.309016994375 -0.8090169943749 0 0.5 
0.309016994375 0 -0.5 0.8090169943749 
0.809016994375 0.5 0 0.3090169943749 
0.5 0.5 -0.5 -0.5 
0.309016994375 -0.8090169943749 0 -0.5 
0.309016994375 0 -0.5 -0.8090169943749 
0.809016994375 -0.3090169943749 0.5 -0 
0.5 -0.3090169943749 0 -0.8090169943749 
0.309016994375 0.5 -0.8090169943749 0 
0.5 -0.3090169943749 0 0.8090169943749 
0 -0.8090169943749 -0.5 0.3090169943749 
0 -0.809016994375 -0.5 -0.3090169943749 
0 -0.3090169943749 -0.8090169943749 0.5 
0 0 -1 0 
0 -0.3090169943749 -0.8090169943749 -0.5 
0.809016994375 -0.5 0 -0.3090169943749 
0.5 0.8090169943749 0.3090169943749 0 
0.309016994375 0.8090169943749 0 0.5 
0.5 -0.5 -0.5 0.5 
0.809016994375 -0.5 0 0.3090169943749 
0.309016994375 0.8090169943749 0 -0.5 
0.5 -0.5 -0.5 -0.5 
0.809016994375 0.3090169943749 0.5 -0 
0.5 0.3090169943749 0 -0.8090169943749 
0.309016994375 -0.5 -0.8090169943749 0 
0.5 0.3090169943749 0 0.8090169943749 
0 0.8090169943749 -0.5 0.3090169943749 
0 0.809016994375 -0.5 -0.3090169943749 
0 0.3090169943749 -0.8090169943749 0.5 
0 0.3090169943749 -0.8090169943749 -0.5 
0.809016994375 0.3090169943749 -0.5 0 
0.5 0 0.8090169943749 -0.3090169943749 
0.309016994375 -0.5 0.8090169943749 0 
0.809016994375 0 -0.3090169943749 0.5 
0.309016994375 0 0.5 -0.8090169943749 
0.5 0 -0.8090169943749 -0.3090169943749 
0.5 -0.5 0.5 0.5 
0 -0.8090169943749 0.5 -0.3090169943749 
0 -0.5 0.3090169943749 -0.8090169943749 
0 -1 0 0 
0 -0.5 -0.3090169943749 -0.8090169943749 
0.5 0 0.8090169943749 0.3090169943749 
0.809016994375 0 -0.3090169943749 -0.5 
0.309016994375 0 0.5 0.8090169943749 
0.5 -0 -0.8090169943749 0.3090169943749 
0.5 -0.5 0.5 -0.5 
0 -0.5 0.3090169943749 0.8090169943749 
0 -0.8090169943749 0.5 0.3090169943749 
0 -0.5 -0.3090169943749 0.8090169943749 
0.809016994375 -0.3090169943749 -0.5 0 
0.309016994375 0.5 0.8090169943749 0 
0.5 0.5 0.5 0.5 
0 0.8090169943749 0.5 -0.3090169943749 
0 0.5 0.3090169943749 -0.8090169943749 
0 1 0 0 
0 0.5 -0.3090169943749 -0.8090169943749 
0.5 -0.8090169943749 -0.3090169943749 0 
0.5 0.8090169943749 -0.3090169943749 0 
0 0 0 1 
0 0.5 -0.3090169943749 0.8090169943749 
0.5 0.5 0.5 -0.5 
0 0.5 0.3090169943749 0.8090169943749 
0 0.8090169943749 0.5 0.3090169943749 
0 0.3090169943749 0.8090169943749 -0.5 
0 -0.3090169943749 0.809016994375 -0.5 
0 0 0 -1 
0 -0.3090169943749 0.809016994375 0.5 
0 0 1 0 
0 0.3090169943749 0.8090169943749 0.5 
-0.5 0 0.809016994375 0.3090169943749 
-0.5 0 0.809016994375 -0.3090169943749 
-0.5 0.5 0.5 0.5 
-0.5 0.809016994375 0.309016994375 0 
-0.5 0.5 0.5 -0.5 
1 -0 -0 0 
-0.3090169943749 0.5 0.809016994375 0 
-0.3090169943749 0.809016994375 0 0.5 
-0.3090169943749 0.809016994375 0 -0.5 
-0.3090169943749 -0.5 0.809016994375 0 
-0.3090169943749 0 0.5 -0.8090169943749 
-0.3090169943749 0 0.5 0.8090169943749 
-0.5 -0.5 0.5 0.5 
-0.5 -0.809016994375 0.309016994375 0 
-0.5 -0.5 0.5 -0.5 
-0.3090169943749 -0.809016994375 0 0.5 
-0.3090169943749 -0.809016994375 0 -0.5 
-0.5 0.809016994375 -0.3090169943749 0 
-0.5 0.309016994375 0 0.809016994375 
-0.5 0.5 -0.5 0.5 
-0.3090169943749 0.5 -0.809016994375 0 
-0.3090169943749 0 -0.5 0.809016994375 
-0.5 0.309016994375 0 -0.809016994375 
-0.5 0.5 -0.5 -0.5 
-0.3090169943749 0 -0.5 -0.809016994375 
-0.5 -0.309016994375 0 0.809016994375 
-0.5 -0.809016994375 -0.3090169943749 0 
-0.5 -0.5 -0.5 0.5 
-0.3090169943749 -0.5 -0.809016994375 0 
-0.5 -0.309016994375 0 -0.809016994375 
-0.5 -0.5 -0.5 -0.5 
-0.5 0 -0.809016994375 0.309016994375 
-0.8090169943749 -0.309016994375 0.5 0 
-0.8090169943749 0 0.309016994375 0.5 
-0.8090169943749 0.309016994375 0.5 0 
-0.5 0 -0.809016994375 -0.309016994375 
-0.8090169943749 0 0.309016994375 -0.5 
-0.8090169943749 0.5 0 0.309016994375 
-0.8090169943749 0.5 0 -0.309016994375 
-0.8090169943749 -0.5 0 0.309016994375 
-0.8090169943749 -0.5 0 -0.309016994375 
-0.8090169943749 0 -0.309016994375 0.5 
-0.8090169943749 0.309016994375 -0.5 0 
-0.8090169943749 0 -0.309016994375 -0.5 
-0.8090169943749 -0.309016994375 -0.5 0 
-1 0 0 0 

# Faces
3 0 3 1
5 0 6 18 10 1
3 0 4 2
5 0 5 16 10 2
5 0 3 16 18 4
3 0 5 6
3 1 8 7
5 9 1 7 6 15
5 3 1 8 18 15
3 1 10 9
3 2 11 12
5 5 11 2 13 17
5 4 17 16 12 2
3 2 10 13
3 11 14 7
5 7 11 9 19 13
5 7 14 15 19 8
3 6 13 7
5 14 11 12 19 17
3 11 5 9
5 14 4 8 12 3
3 3 14 15
3 12 16 3
3 8 18 4
3 14 17 4
3 8 19 12
5 9 5 6 13 10
3 17 16 5
3 9 15 19
3 6 18 15
3 17 19 13
3 10 16 18
3 1 21 0
5 22 0 20 10 32
3 0 20 23
5 0 23 18 32 21
3 6 22 0
5 1 24 6 31 25
3 1 24 26
5 21 31 18 26 1
3 1 25 10
3 20 28 27
5 20 29 33 22 27
5 20 23 33 32 28
3 10 29 20
3 24 30 27
5 24 27 25 34 29
5 30 24 26 34 31
3 24 29 6
5 28 27 30 33 34
3 22 25 27
5 21 28 26 23 30
3 21 31 30
3 28 32 21
3 23 33 30
5 22 6 29 10 25
3 22 32 33
3 26 18 23
3 26 34 28
3 31 34 25
3 18 31 6
3 10 18 32
3 29 33 34
3 2 36 0
5 35 10 43 37 0
3 0 23 35
5 23 0 36 43 16
3 5 37 0
5 36 42 16 40 2
5 5 38 2 39 42
3 2 40 38
3 2 39 10
3 27 28 35
5 27 35 29 44 37
5 23 35 28 43 44
3 10 35 29
5 23 41 36 28 40
3 36 41 42
3 28 43 36
3 27 41 38
5 27 38 29 45 39
5 28 45 44 41 27
3 27 37 39
5 41 42 45 40 38
3 38 29 5
3 41 44 23
5 29 5 37 39 10
3 44 43 37
3 23 16 40
3 28 45 40
3 5 42 16
3 39 45 42
3 16 43 10
3 29 45 44
3 7 46 1
5 1 35 6 51 37
3 26 35 1
5 26 15 51 46 1
3 9 37 1
5 49 7 46 52 15
5 47 7 48 52 9
3 47 49 7
3 7 6 48
3 30 35 27
5 30 51 44 26 35
3 6 35 29
3 27 50 47
5 47 27 48 53 29
3 27 37 48
5 27 50 44 53 30
5 30 46 50 26 49
3 50 52 46
3 46 30 51
5 50 52 53 49 47
3 47 29 9
5 29 9 37 48 6
3 44 51 37
3 26 44 50
3 49 53 30
3 49 15 26
3 48 52 53
3 15 52 9
3 6 51 15
3 29 53 44
3 0 20 36
5 36 0 4 32 58
5 54 0 55 58 10
3 0 54 4
3 0 55 22
5 36 20 40 32 57
5 22 38 20 39 57
3 40 20 38
3 10 20 39
3 11 38 56
5 11 38 13 60 39
5 11 54 13 59 55
3 11 54 12
5 56 11 12 60 59
3 55 39 11
5 56 4 40 12 36
3 56 57 36
3 36 12 58
5 56 38 40 60 57
3 38 13 22
5 4 54 12 58 59
3 13 10 54
3 56 59 4
5 10 39 55 22 13
3 59 58 55
3 4 32 40
3 32 57 22
3 40 60 12
3 39 60 57
3 13 60 59
3 10 32 58
5 20 2 22 63 5
3 40 2 20
3 11 56 2
5 2 56 63 17 40
3 2 22 13
3 27 41 20
5 20 40 33 63 41
3 29 5 20
3 47 61 11
5 47 13 64 48 11
5 11 56 64 17 61
3 5 48 11
3 27 62 47
5 27 41 53 33 62
3 27 48 22
5 61 47 62 64 53
3 47 13 29
5 41 61 40 62 56
3 56 41 63
3 62 64 56
3 41 53 61
5 5 48 22 13 29
3 33 63 22
3 62 40 33
3 17 63 5
3 40 17 61
3 48 64 53
3 13 17 64
3 29 53 33
3 1 46 24
5 46 1 8 31 66
5 1 54 6 66 55
3 1 8 54
3 1 25 55
3 11 54 14
3 47 65 11
3 55 48 11
5 14 11 65 59 64
5 46 67 31 49 24
5 47 24 48 67 25
3 47 24 49
3 6 24 48
5 46 65 8 49 14
3 46 67 65
3 46 14 66
5 8 59 66 14 54
3 13 6 54
5 49 47 65 67 64
3 47 25 13
5 55 48 6 13 25
3 59 66 55
3 65 59 8
3 8 31 49
3 14 49 64
3 31 67 25
3 48 64 67
3 6 31 66
3 59 64 13
3 0 21 35
3 0 3 54
5 0 21 58 43 3
3 37 55 0
3 46 24 7
5 24 9 70 25 7
5 8 7 46 69 70
5 7 55 69 9 54
3 8 7 54
3 25 7 55
5 24 37 68 25 35
3 26 35 24
5 26 70 68 46 24
3 37 24 9
5 26 43 68 21 35
3 25 35 10
5 21 8 26 3 46
3 21 68 46
3 46 3 69
5 8 54 3 69 58
3 10 54 9
3 21 8 58
5 9 10 25 55 37
3 58 69 55
3 26 43 3
3 43 68 37
3 8 70 26
3 68 70 25
3 9 70 69
3 43 58 10
3 11 7 65
3 49 7 24
5 7 49 19 70 65
3 13 25 7
3 38 61 11
5 61 11 65 60 19
3 11 39 9
3 27 50 24
5 24 49 34 70 50
3 29 9 24
3 38 62 27
5 27 50 45 34 62
3 25 39 27
5 62 60 45 61 38
3 38 13 29
5 50 61 49 62 65
3 65 70 50
3 62 60 65
3 61 45 50
3 62 49 34
5 13 29 9 39 25
3 25 70 34
3 61 19 49
3 39 45 60
3 9 19 70
3 19 60 13
3 34 45 29
3 38 2 56
5 54 5 71 55 2
3 12 2 54
5 12 42 71 56 2
3 39 2 55
3 7 54 14
3 47 7 65
3 48 7 55
5 7 14 52 69 65
3 61 47 38
5 38 47 39 72 48
5 56 38 61 42 72
3 5 48 38
5 12 54 14 71 69
3 9 5 54
5 61 52 72 65 47
3 47 39 9
5 56 14 61 12 65
3 56 72 65
3 56 71 14
5 55 48 5 9 39
3 69 71 55
3 65 12 69
3 61 52 14
3 5 42 71
3 12 42 61
3 48 72 52
3 42 72 39
3 9 52 69
3 1 35 21
3 3 54 1
5 1 21 66 51 3
3 37 55 1
3 2 20 36
5 36 2 4 63 71
3 4 54 2
3 55 2 22
5 20 35 22 73 37
3 23 35 20
5 36 20 23 63 73
3 37 20 5
5 35 21 73 51 23
3 6 22 35
5 36 3 23 4 21
3 36 21 73
3 3 71 36
5 54 4 66 71 3
3 5 54 6
3 21 4 66
5 6 22 55 37 5
3 55 71 66
3 3 23 51
3 51 73 37
3 23 63 4
3 22 63 73
3 5 71 63
3 6 66 51
3 28 20 35
3 38 41 20
5 28 20 41 73 57
3 39 20 37
3 30 24 35
3 47 24 50
3 48 37 24
5 50 24 30 67 68
5 35 28 68 73 30
3 22 35 25
3 47 38 62
5 41 72 57 62 38
3 38 48 22
5 47 62 67 72 50
3 25 47 39
5 41 50 28 62 30
3 41 72 50
3 41 30 73
3 37 73 68
5 22 48 37 39 25
3 50 28 68
3 30 67 62
3 22 57 73
3 62 28 57
3 25 67 68
3 67 72 48
3 57 72 39
3 0 37 1
5 0 1 58 77 66
3 2 22 0
5 2 58 75 71 0
5 22 77 75 37 0
3 66 0 71
3 1 25 7
5 7 66 74 69 1
5 25 77 74 37 1
3 69 1 58
3 11 39 2
5 2 11 71 76 59
5 39 2 22 76 75
3 59 58 2
3 7 11 48
5 11 7 59 78 69
5 7 48 74 78 25
3 66 7 59
5 39 11 48 76 78
3 71 11 69
3 48 74 37
3 37 39 75
3 22 77 25
3 22 76 48
3 39 78 25
5 59 66 71 69 58
3 71 75 76
3 69 74 78
3 66 77 74
3 59 78 76
3 58 75 77
3 0 35 1
5 0 35 32 77 73
3 36 73 0
3 0 66 4
5 68 1 35 31 77
3 46 68 1
3 8 58 1
3 30 35 31
3 28 35 32
3 36 79 28
5 36 79 4 81 80
5 28 32 81 73 36
3 36 58 80
3 46 79 30
5 46 79 8 82 80
5 31 82 68 46 30
3 46 80 66
3 4 8 79
5 28 79 30 81 82
5 8 4 66 80 58
3 4 81 32
3 30 81 73
3 8 31 82
3 28 68 82
3 73 68 77
3 31 77 66
3 58 32 77
3 80 82 81
3 2 20 0
5 0 20 43 75 73
3 21 73 0
3 0 71 3
5 2 57 75 42 20
3 56 57 2
3 12 2 58
3 41 42 20
3 20 43 28
3 28 79 21
5 79 3 83 80 21
5 73 21 28 43 83
3 21 80 58
3 56 79 41
5 12 79 56 80 84
3 3 79 12
5 28 84 83 41 79
5 57 56 41 42 84
3 71 80 56
5 12 3 71 80 58
3 3 43 83
3 73 83 41
3 57 84 28
3 12 42 84
3 73 57 75
3 42 75 71
3 58 75 43
3 83 84 80
3 7 24 1
5 1 24 51 74 68
3 1 68 21
3 1 69 3
5 24 52 74 67 7
3 67 7 65
3 14 7 66
3 52 24 50
3 30 51 24
3 21 79 30
5 30 51 83 68 21
3 66 21 80
3 3 79 14
3 50 79 65
5 79 14 85 80 65
5 30 85 83 50 79
5 3 14 66 80 69
3 3 51 83
5 67 85 52 50 65
3 65 80 69
3 50 68 83
3 67 85 30
3 52 85 14
3 68 74 67
3 69 74 52
3 66 51 74
3 83 85 80
3 11 38 2
3 36 2 57
5 2 57 76 63 38
3 4 59 2
5 11 38 64 76 72
3 11 72 65
3 14 71 11
3 36 41 79
5 57 36 41 63 81
3 36 80 71
3 38 63 41
3 64 38 62
3 62 79 65
5 62 79 41 85 81
3 4 14 79
5 62 65 72 85 64
3 65 59 80
3 41 85 72
5 71 14 4 59 80
3 4 63 81
3 62 81 57
3 14 85 64
3 71 76 63
3 72 76 57
3 64 76 59
3 80 85 81
3 11 47 7
3 7 67 46
5 47 70 78 67 7
3 7 59 8
5 11 72 78 60 47
3 56 11 72
3 12 69 11
3 50 79 46
5 50 70 82 67 46
3 69 80 46
3 56 62 79
5 50 84 82 62 79
3 8 12 79
3 50 47 70
3 62 47 60
5 56 62 60 84 72
3 56 59 80
3 50 84 72
5 12 8 59 80 69
3 8 82 70
3 67 82 62
3 12 84 60
3 72 67 78
3 69 78 70
3 60 78 59
3 80 84 82
3 28 36 21
3 36 56 41
3 3 36 12
3 21 46 30
3 3 46 14
3 50 65 46
3 8 21 4
3 56 65 62
3 14 56 4
3 26 3 23
3 12 65 8
3 41 50 61
3 23 41 30
3 40 4 23
3 26 28 50
3 49 62 30
3 49 26 8
3 40 62 28
3 49 61 14
3 12 61 40
3 0 1 55
5 51 0 1 43 87
3 0 20 5
5 5 87 75 55 0
3 73 0 51
3 9 24 1
5 1 9 87 74 55
3 68 43 1
3 27 39 20
5 20 44 86 73 27
5 20 39 75 86 5
3 43 20 44
3 27 24 48
5 68 27 24 44 88
5 9 24 48 74 88
3 51 24 44
3 73 68 27
5 39 27 48 86 88
3 55 74 48
3 39 75 55
3 48 86 5
3 9 87 5
5 43 68 73 51 44
3 73 86 75
3 9 88 39
3 68 88 74
3 74 87 51
3 44 88 86
3 43 87 75
3 1 54 0
3 0 71 36
5 54 0 71 87 16
3 23 51 0
3 46 69 1
5 54 15 87 69 1
3 1 43 26
3 36 79 12
5 36 79 23 89 83
5 12 16 89 71 36
3 43 83 36
3 14 79 46
5 26 79 46 83 90
5 46 14 15 90 69
3 46 83 51
3 14 15 54
3 12 54 16
3 23 26 79
5 79 14 89 90 12
5 23 51 83 43 26
3 23 16 89
3 14 89 71
3 12 90 69
3 26 15 90
3 71 69 87
3 51 15 87
3 16 87 43
3 83 89 90
3 36 20 42
3 27 20 38
5 38 63 86 42 20
3 23 20 44
3 56 79 36
5 42 89 63 56 36
3 73 83 36
5 27 72 86 53 38
3 27 72 50
3 30 73 27
3 38 63 56
3 61 53 38
5 79 56 85 89 61
3 50 61 79
3 30 79 23
3 72 56 85
5 61 50 72 85 53
3 50 83 44
5 30 73 83 44 23
3 30 85 53
3 23 89 63
3 73 63 86
3 42 89 61
3 42 86 72
3 53 86 44
3 83 89 85
3 24 47 27
3 46 24 52
5 24 52 88 70 47
3 26 24 44
5 72 27 47 45 88
3 41 27 72
3 27 68 28
3 46 65 79
5 46 52 90 70 65
3 46 83 68
5 79 61 90 84 65
3 41 61 79
3 26 79 28
3 65 47 70
3 47 45 61
3 72 84 65
5 41 72 84 45 61
3 41 44 83
5 26 28 68 83 44
3 28 45 84
3 70 90 26
3 61 90 52
3 68 88 70
3 52 88 72
3 44 45 88
3 84 90 83
3 2 55 0
5 2 32 93 63 0
3 0 35 6
5 55 0 6 93 77
3 73 0 63
3 2 38 13
5 13 2 55 76 93
3 57 32 2
3 27 25 35
5 27 73 92 33 35
5 35 6 92 77 25
3 32 35 33
3 27 48 38
5 38 33 91 57 27
5 27 48 92 91 25
3 57 27 73
5 13 91 76 48 38
3 63 33 38
3 25 55 77
3 48 76 55
3 25 91 13
5 32 57 73 63 33
3 73 77 92
3 48 92 6
3 6 13 93
3 57 91 76
3 63 93 76
3 33 92 91
3 77 93 32
3 0 54 2
5 0 66 93 18 54
3 21 0 66
3 23 0 63
5 2 59 93 17 54
3 56 59 2
3 40 2 32
3 18 54 8
3 14 54 17
3 8 21 79
5 79 23 95 81 21
5 66 21 8 18 95
3 21 81 32
3 14 79 56
5 56 81 94 40 79
5 79 14 95 94 8
3 23 79 40
5 59 56 14 17 94
3 63 56 81
3 8 94 59
5 40 32 81 63 23
3 18 95 23
3 14 95 66
3 40 17 94
3 66 59 93
3 63 17 93
3 32 18 93
3 81 94 95
3 27 35 24
5 35 24 51 92 31
5 27 67 92 53 24
3 51 24 46
3 49 24 53
3 21 35 31
3 33 35 23
3 41 27 73
3 62 67 27
3 46 21 79
5 31 95 51 46 21
5 79 49 95 85 46
3 46 85 67
3 73 21 81
3 41 23 79
3 62 79 49
5 23 33 81 73 41
3 41 85 53
3 23 51 95
5 53 85 67 62 49
3 62 81 33
3 73 51 92
3 31 95 49
3 31 92 67
3 53 92 33
3 85 95 81
3 27 47 38
5 47 34 91 67 27
3 30 27 67
3 28 57 27
5 47 60 91 64 38
3 38 64 56
3 40 33 38
3 56 79 65
5 49 79 65 82 94
3 49 79 30
3 28 79 40
3 65 60 47
3 49 47 34
5 64 56 65 60 94
3 56 81 57
3 67 65 82
5 49 34 82 67 30
3 30 81 33
5 40 33 81 57 28
3 28 82 34
3 60 94 40
3 49 94 64
3 57 91 60
3 64 91 67
3 34 91 33
3 81 94 82
3 1 7 55
5 7 1 70 97 31
3 10 35 1
5 10 1 55 77 97
3 68 1 70
3 7 13 47
5 7 13 97 78 55
3 67 31 7
3 22 35 27
5 35 27 68 96 34
5 35 10 96 77 22
3 34 35 31
3 39 47 27
5 22 91 96 39 27
3 68 67 27
5 13 47 39 78 91
3 70 47 34
3 22 77 55
3 55 78 39
3 22 91 13
3 39 96 10
5 68 67 31 34 70
3 68 96 77
3 10 97 13
3 67 91 78
3 77 97 31
3 78 97 70
3 34 96 91
3 1 54 7
5 1 54 18 97 58
3 21 58 1
3 1 70 26
5 7 59 97 19 54
3 59 7 65
3 7 31 49
3 4 54 18
3 19 54 12
3 4 21 79
5 21 82 98 26 79
5 58 21 4 18 98
3 21 82 31
3 12 65 79
5 79 4 94 98 12
3 26 49 79
5 65 12 19 94 59
3 70 82 65
3 59 94 4
3 58 98 12
5 49 26 70 82 31
3 26 98 18
3 49 94 19
3 59 97 58
3 31 97 18
3 70 97 19
3 82 94 98
3 27 20 35
5 20 35 32 96 43
3 36 43 20
5 20 27 57 96 45
3 40 45 20
3 32 35 21
3 26 34 35
3 36 79 21
5 43 36 21 32 98
5 36 79 40 98 84
3 57 84 36
3 27 68 50
3 27 57 62
3 21 82 68
3 50 26 79
3 40 79 62
5 34 82 68 50 26
3 45 84 50
5 40 45 84 57 62
3 62 82 34
3 26 98 43
3 32 98 40
3 68 96 43
3 57 96 32
3 45 96 34
3 82 98 84
3 20 37 0
5 0 20 16 101 63
3 6 54 0
5 6 101 87 37 0
3 71 63 0
3 20 38 29
5 29 20 37 86 101
3 42 16 20
3 38 48 11
5 11 42 100 17 38
3 9 54 11
5 71 11 54 17 99
5 11 9 100 99 48
3 71 11 42
5 48 38 29 100 86
3 63 38 17
5 54 9 87 99 6
3 16 17 54
3 48 86 37
3 37 87 9
3 48 6 99
3 9 29 100
3 6 29 101
5 17 63 71 42 16
3 71 99 87
3 86 100 42
3 63 86 101
3 99 100 17
3 87 101 16
3 0 35 20
5 35 0 51 101 18
3 3 51 0
3 0 63 4
5 20 35 33 101 44
3 44 20 41
3 40 20 16
3 30 33 35
3 18 35 26
5 79 3 89 95 4
3 26 79 3
3 41 79 30
5 79 41 89 102 40
3 4 79 40
5 79 26 102 95 30
5 18 26 3 51 95
3 3 89 16
5 33 102 44 41 30
3 41 89 63
5 16 89 63 4 40
3 4 95 18
3 30 95 51
3 26 44 102
3 33 102 40
3 51 101 44
3 63 33 101
3 16 18 101
3 95 102 89
3 7 54 11
5 7 11 52 99 64
3 46 7 66
5 54 15 99 66 7
3 49 64 7
3 11 71 56
3 61 52 11
3 46 79 3
5 66 46 3 15 95
3 52 85 46
3 3 15 54
3 17 54 4
3 56 79 4
3 61 79 49
5 56 4 17 89 71
3 64 85 56
3 3 89 71
3 4 95 66
5 52 61 49 64 85
3 17 89 61
3 71 99 66
3 49 15 95
3 15 99 52
3 17 64 99
3 89 95 85
3 38 47 11
5 11 47 19 100 52
3 14 52 11
3 12 42 11
5 47 45 100 53 38
3 41 38 53
3 40 38 17
3 50 79 41
5 79 49 102 90 50
3 14 49 79
3 40 79 12
3 50 45 47
3 49 19 47
5 45 102 53 41 50
3 42 41 89
3 50 90 52
5 52 14 49 19 90
3 14 17 89
5 40 12 42 89 17
3 12 90 19
3 40 102 45
3 53 102 49
3 42 45 100
3 52 100 53
3 17 19 100
3 90 102 89
3 2 20 10
3 2 55 11
5 42 11 2 60 103
5 2 55 75 103 10
3 57 60 2
3 27 37 20
5 10 96 75 37 20
3 42 20 45
3 11 47 9
5 11 55 78 103 9
3 72 42 11
3 27 47 25
5 27 25 96 88 37
3 57 27 72
5 47 9 88 78 25
3 60 47 45
3 37 55 75
3 25 78 55
3 37 88 9
3 25 96 10
3 9 103 10
5 45 60 57 72 42
3 72 78 88
3 57 75 96
3 42 103 75
3 60 103 78
3 45 88 96
3 11 2 54
3 2 58 36
5 58 2 54 16 103
3 2 60 40
5 69 11 54 19 103
3 65 11 69
3 61 42 11
3 36 79 3
5 36 3 16 98 58
3 42 36 84
3 3 54 16
3 8 19 54
5 79 8 98 90 3
3 65 79 8
3 40 79 61
3 69 3 90
5 8 19 90 69 65
3 60 84 65
3 58 8 98
5 42 61 40 60 84
3 61 90 19
3 16 98 40
3 69 103 58
3 16 103 42
3 60 19 103
3 90 98 84
3 1 37 24
5 1 70 104 15 24
3 1 54 10
5 1 10 104 87 37
3 69 70 1
3 5 54 11
3 39 47 11
5 11 39 103 100 5
3 69 11 52
3 24 47 29
5 24 29 104 88 37
3 15 24 52
5 54 5 87 103 10
3 19 54 15
5 47 39 88 100 29
3 70 47 19
3 5 87 37
3 37 88 39
3 5 100 29
3 39 103 10
5 19 70 69 52 15
3 69 103 87
3 29 104 10
3 88 100 52
3 70 88 104
3 15 104 87
3 19 103 100
3 24 35 1
5 1 43 104 18 35
3 3 43 1
3 1 70 8
5 35 34 104 44 24
3 50 44 24
3 49 15 24
3 23 18 35
3 34 35 28
3 3 79 23
3 50 79 28
3 8 49 79
5 28 98 102 23 79
5 23 3 43 98 18
3 15 90 3
5 50 28 34 102 44
3 70 50 90
5 15 90 70 8 49
3 8 98 18
3 23 102 44
3 28 98 43
3 49 102 34
3 44 104 43
3 34 104 70
3 18 104 15
3 90 102 98
3 0 35 22
3 0 54 5
5 5 0 22 93 101
3 51 0 66
3 7 24 48
5 7 24 15 105 31
3 13 7 54
5 48 7 13 105 99
3 66 31 7
3 29 24 35
5 24 48 92 105 29
3 51 24 15
5 35 22 92 101 29
3 31 18 35
5 5 54 13 93 99
3 15 18 54
3 22 92 48
3 13 93 22
3 48 99 5
3 5 101 29
3 13 29 105
5 31 18 15 51 66
3 66 99 93
3 51 92 101
3 31 92 105
3 15 99 105
3 18 101 93
3 47 24 7
5 7 47 19 105 64
3 7 31 8
3 14 64 7
5 47 24 53 105 34
3 24 53 30
3 26 24 15
3 30 79 62
3 8 26 79
5 79 62 94 102 61
3 61 79 14
3 62 47 34
3 47 19 61
5 53 30 62 34 102
3 31 95 30
5 8 26 15 95 31
3 19 94 8
3 64 62 94
5 14 61 19 94 64
3 15 95 14
3 34 102 26
3 61 102 53
3 34 105 31
3 64 53 105
3 15 19 105
3 95 94 102
3 0 36 3
5 36 0 63 107 75
3 55 0 66
5 0 66 107 87 3
3 5 0 63
3 11 56 14
5 56 76 106 42 11
5 5 99 76 55 11
3 55 69 11
5 14 99 106 69 11
3 5 42 11
3 56 80 36
5 3 89 107 80 36
3 42 36 75
5 56 80 106 89 14
3 56 76 63
5 55 66 99 87 69
3 75 76 55
3 14 89 3
3 3 87 69
3 66 14 99
5 5 63 76 75 42
3 87 5 99
3 69 80 106
3 80 107 66
3 89 106 42
3 89 107 63
3 99 106 76
3 75 87 107
3 0 36 21
5 21 77 107 51 0
3 37 0 51
3 0 63 22
5 36 83 107 81 21
3 41 83 36
3 36 75 57
3 30 41 27
5 27 57 108 86 41
5 27 37 86 92 22
3 27 68 37
5 30 27 68 108 92
3 27 57 22
3 30 21 81
3 68 77 21
5 41 30 81 108 83
3 63 41 86
5 68 37 51 92 77
3 75 37 86
3 30 92 51
5 22 57 75 86 63
3 22 92 77
3 68 108 83
3 57 81 108
3 83 107 51
3 63 107 81
3 75 77 107
3 86 92 108
3 11 7 55
3 6 24 7
5 55 7 6 99 74
3 64 7 67
3 5 38 11
3 72 11 52
3 27 24 37
5 24 37 74 92 6
3 53 24 52
3 22 38 27
3 72 27 67
5 22 38 5 86 76
3 64 38 53
3 37 55 74
3 55 76 22
3 5 86 37
3 22 92 6
3 6 5 99
5 52 53 64 67 72
3 72 86 76
3 74 92 67
3 52 99 74
3 64 99 76
3 86 92 53
3 56 65 11
5 65 78 106 52 11
3 48 52 11
3 39 11 42
3 27 50 41
5 67 27 50 88 108
3 48 67 27
3 39 27 57
5 56 65 84 106 85
3 41 56 85
3 57 56 76
3 65 84 50
3 67 65 78
5 50 41 85 108 84
3 42 86 41
3 50 88 52
5 67 48 52 88 78
3 76 86 48
5 42 39 57 76 86
3 78 88 39
3 57 84 108
3 67 108 85
3 42 106 84
3 85 106 52
3 78 106 76
3 86 108 88
3 2 22 38
5 2 60 109 17 38
3 10 2 54
5 2 22 93 109 10
3 59 2 60
3 6 7 54
3 47 7 25
5 6 7 25 97 105
3 59 7 64
3 29 38 47
5 22 38 29 109 91
3 64 17 38
5 10 54 6 93 97
3 17 19 54
5 29 105 91 25 47
3 60 19 47
3 22 91 25
3 6 22 93
3 10 97 25
3 29 105 6
3 29 109 10
5 17 64 59 60 19
3 59 93 97
3 64 91 105
3 91 109 60
3 17 93 109
3 19 105 97
3 38 20 2
5 2 32 109 16 20
3 2 32 4
3 12 2 60
5 38 20 45 109 33
3 20 16 23
3 20 45 28
3 62 38 33
3 17 38 61
3 4 23 79
3 62 79 28
3 12 61 79
5 23 4 32 98 16
3 4 94 17
3 23 102 33
5 33 62 28 45 102
3 60 62 94
3 32 98 28
5 61 12 60 94 17
3 12 98 16
3 61 102 45
3 33 32 109
3 60 109 45
3 17 16 109
3 98 102 94
3 3 46 1
5 1 70 110 74 46
3 58 1 55
5 3 87 110 58 1
3 1 70 9
3 55 11 71
3 11 65 12
5 11 71 106 103 12
3 9 52 11
5 46 80 110 90 3
3 46 65 80
3 46 74 52
5 58 103 87 71 55
3 74 55 78
3 12 3 90
3 71 3 87
5 65 12 90 106 80
3 65 78 70
3 12 103 58
5 78 70 9 52 74
3 9 103 87
3 80 106 71
3 58 110 80
3 52 90 106
3 70 110 90
3 87 110 74
3 103 106 78
3 1 46 21
5 21 77 110 43 1
3 43 1 37
3 25 1 70
3 37 27 73
3 27 28 50
5 27 28 96 108 73
3 27 67 25
5 21 46 83 110 82
3 50 83 46
3 67 46 74
3 28 82 21
3 73 77 21
5 43 96 77 73 37
3 37 88 74
5 50 28 82 108 83
3 70 88 50
3 43 96 28
5 25 70 88 74 67
3 77 96 25
3 83 73 108
3 67 82 108
3 43 83 110
3 70 110 82
3 77 110 74
3 88 108 96
3 1 25 35
3 1 9 54
5 9 104 97 25 1
3 58 43 1
3 39 20 2
3 2 54 13
5 2 13 109 103 39
3 58 32 2
3 20 35 29
5 20 39 96 109 29
3 16 20 43
5 29 35 25 96 104
3 18 35 32
5 9 54 13 97 103
3 16 18 54
3 39 96 25
3 13 97 25
3 39 103 9
3 29 9 104
3 29 109 13
5 16 18 32 58 43
3 58 97 103
3 43 96 104
3 32 96 109
3 16 109 103
3 18 104 97
3 0 21 4
3 0 71 55
5 0 71 107 93 4
3 6 51 0
3 7 46 14
5 46 74 111 31 7
3 55 7 59
5 59 7 14 99 111
3 6 31 7
3 21 80 46
5 14 95 111 80 46
3 51 46 74
5 21 80 107 95 4
3 31 77 21
5 55 71 99 93 59
3 74 55 77
3 14 95 4
3 59 93 4
3 14 99 71
5 74 51 6 31 77
3 93 99 6
3 71 107 80
3 59 80 111
3 51 95 107
3 31 95 111
3 74 111 99
3 77 93 107
3 46 7 65
5 7 64 111 78 65
3 25 7 31
3 48 64 7
3 30 62 27
5 62 27 72 108 91
3 25 68 27
3 48 72 27
5 65 82 111 85 46
3 46 85 30
3 68 46 74
3 62 82 65
3 72 65 78
5 62 82 108 85 30
3 30 92 31
3 64 91 62
5 25 68 74 92 31
3 25 91 78
5 64 91 78 72 48
3 48 74 92
3 82 108 68
3 72 108 85
3 82 111 31
3 64 85 111
3 74 78 111
3 92 91 108
3 10 35 20
3 38 20 5
5 20 5 101 109 10
3 44 45 20
3 6 35 24
3 47 24 9
5 9 24 6 105 104
3 53 24 44
5 6 35 10 104 101
3 34 35 33
3 38 47 13
5 5 100 109 13 38
3 53 33 38
5 47 9 100 105 13
3 45 47 34
3 9 5 100
3 5 101 6
3 10 104 9
3 6 105 13
3 13 109 10
5 44 53 33 34 45
3 44 104 101
3 33 101 109
3 53 100 105
3 34 104 105
3 45 109 100
3 2 56 4
5 60 2 56 76 112
3 55 2 58
5 4 93 112 58 2
3 13 60 2
3 66 7 55
3 7 65 8
5 7 66 111 97 8
3 7 64 13
3 65 80 56
5 4 94 112 80 56
3 64 76 56
5 58 55 66 93 97
3 78 55 76
5 8 94 111 80 65
3 65 78 60
3 4 94 8
3 66 4 93
3 8 97 58
5 13 60 78 76 64
3 13 97 93
3 80 66 111
3 58 112 80
3 64 111 94
3 94 112 60
3 76 112 93
3 97 111 78
3 2 56 36
5 36 2 32 112 75
3 22 32 2
3 2 60 39
5 56 81 112 84 36
3 36 84 28
3 73 75 36
3 22 73 27
3 27 62 28
3 39 72 27
3 62 56 81
3 72 76 56
5 32 96 75 73 22
3 22 91 76
5 28 84 108 81 62
3 60 91 62
3 32 28 96
3 81 108 73
5 39 60 91 76 72
3 39 96 75
3 84 72 108
3 32 112 81
3 60 84 112
3 75 112 76
3 91 108 96
3 8 21 1
3 55 69 1
5 1 8 97 110 69
3 10 43 1
3 2 12 36
3 55 59 2
5 2 59 112 103 12
3 2 32 10
3 36 21 80
5 12 98 112 80 36
3 43 36 75
5 8 98 110 80 21
3 32 77 21
5 55 59 97 103 69
3 75 55 77
3 8 98 12
3 59 97 8
3 69 12 103
3 69 110 80
5 75 43 10 32 77
3 10 97 103
3 80 112 59
3 43 98 110
3 98 112 32
3 75 112 103
3 97 110 77
3 0 23 3
3 37 73 0
5 23 0 73 107 101
3 6 66 0
3 30 46 24
5 46 74 113 15 24
3 37 24 44
5 24 44 113 92 30
3 15 24 6
3 3 46 83
5 83 46 30 95 113
3 66 74 46
5 83 3 23 95 107
3 15 3 87
5 73 37 44 101 92
3 74 37 87
3 30 95 23
3 73 30 92
3 44 101 23
3 83 73 107
5 6 15 87 74 66
3 6 92 101
3 66 107 95
3 83 113 44
3 95 113 15
3 92 113 74
3 87 101 107
3 14 61 11
5 61 11 72 106 100
3 48 11 72
3 11 69 9
3 46 24 50
5 50 88 113 53 24
3 48 24 53
3 9 24 15
5 50 90 113 85 46
3 46 85 14
3 69 46 74
3 50 90 61
3 72 88 50
5 85 14 61 90 106
3 15 14 99
3 53 61 100
5 48 53 100 88 72
3 74 99 48
5 15 99 74 69 9
3 9 88 100
3 72 106 85
3 69 106 90
3 90 113 15
3 53 113 85
3 74 113 88
3 99 106 100
3 58 21 36
3 56 71 36
5 36 58 112 107 71
3 84 36 83
3 46 21 66
3 46 69 65
5 69 46 66 111 110
3 83 46 85
5 58 110 107 66 21
3 81 21 82
3 56 65 59
5 59 112 106 71 56
3 81 56 85
5 65 59 111 106 69
3 84 65 82
3 71 106 69
3 66 71 107
3 69 110 58
3 59 66 111
3 59 112 58
5 81 85 83 84 82
3 83 110 107
3 81 107 112
3 106 111 85
3 110 111 82
3 106 112 84
3 23 41 20
5 41 86 114 45 20
3 43 20 37
5 20 43 114 101 23
3 29 45 20
3 37 51 24
3 26 24 50
5 26 24 51 113 104
3 29 53 24
3 41 83 50
5 41 83 114 102 23
3 53 86 41
5 51 37 43 104 101
3 86 37 88
5 26 50 83 113 102
3 45 88 50
3 26 23 102
3 51 23 101
3 26 104 43
5 86 53 29 45 88
3 29 104 101
3 51 113 83
3 43 114 83
3 53 102 113
3 102 114 45
3 86 101 114
3 88 113 104
3 41 20 36
5 36 20 16 114 75
3 5 16 20
3 39 45 20
3 5 71 11
3 11 61 12
3 11 72 39
5 41 36 84 114 89
3 12 36 84
3 36 75 71
3 41 89 61
3 72 41 86
5 16 103 75 71 5
3 86 5 100
5 89 61 12 84 106
3 16 103 12
3 45 100 61
5 72 39 45 100 86
3 75 103 39
3 89 71 106
3 84 106 72
3 16 114 89
3 45 84 114
3 86 75 114
3 103 106 100
3 1 26 3
3 37 1 68
5 26 1 68 110 104
3 1 58 10
3 28 20 36
3 37 44 20
5 28 20 44 114 96
3 16 20 10
3 36 83 3
5 36 28 98 114 83
3 58 75 36
5 26 3 83 110 98
3 16 3 87
5 44 37 68 96 104
3 75 87 37
3 26 28 98
3 68 96 28
3 44 104 26
3 83 68 110
5 10 58 75 87 16
3 10 104 96
3 58 98 110
3 83 44 114
3 16 98 114
3 75 114 96
3 87 110 104
3 0 23 4
3 0 73 22
3 5 71 0
3 38 41 56
5 56 38 17 115 76
5 38 33 115 86 41
3 22 33 38
3 5 38 17
5 81 56 41 89 115
3 4 81 56
3 71 76 56
3 23 41 89
3 41 86 73
5 4 23 89 107 81
3 17 93 4
5 73 22 33 101 86
3 22 93 76
3 23 101 33
5 5 71 76 93 17
3 86 101 5
3 81 107 73
3 89 71 107
3 33 81 115
3 17 115 89
3 76 115 86
3 93 101 107
3 7 49 14
3 7 67 48
5 67 7 49 105 111
3 7 59 13
3 38 62 56
5 38 53 115 91 62
3 53 38 48
3 13 17 38
5 56 85 115 94 62
3 14 85 56
3 56 76 59
3 62 94 49
3 67 62 91
5 49 14 85 111 94
3 17 14 99
5 53 48 67 91 105
3 48 99 76
3 49 105 53
5 17 99 76 59 13
3 13 105 91
3 67 111 85
3 94 111 59
3 53 85 115
3 17 94 115
3 91 115 76
3 99 105 111
3 43 3 36
3 36 41 73
5 43 114 107 73 36
3 80 36 84
3 46 51 3
3 50 68 46
5 51 46 68 110 113
3 80 85 46
5 43 110 107 51 3
3 90 3 89
3 44 50 41
5 73 41 44 114 108
3 85 41 89
5 50 44 113 108 68
3 84 90 50
3 68 108 73
3 51 73 107
3 43 110 68
3 51 113 44
5 90 84 80 85 89
3 107 110 80
3 43 44 114
3 108 113 85
3 107 114 89
3 108 114 84
3 110 113 90
3 23 35 30
5 30 35 34 116 92
3 32 35 22
5 35 23 101 116 32
3 34 35 29
3 38 63 22
3 40 38 62
5 38 40 109 115 63
3 29 38 53
5 23 102 116 81 30
3 30 81 62
3 53 92 30
5 32 109 101 63 22
3 91 22 92
3 40 23 102
3 63 101 23
5 81 62 40 102 115
3 34 62 91
3 32 109 40
5 29 34 91 92 53
3 29 101 109
3 81 63 115
3 81 116 32
3 53 115 102
3 34 116 102
3 92 101 116
3 91 109 115
3 8 49 7
3 25 7 67
3 6 7 66
3 21 35 30
5 18 35 21 77 116
3 34 35 25
3 18 35 6
5 30 95 116 82 21
3 21 82 8
3 66 77 21
3 49 30 95
3 30 92 67
5 8 49 95 111 82
3 8 97 18
5 34 105 92 67 25
3 25 97 77
5 77 66 6 18 97
3 92 105 6
3 34 105 49
3 66 111 95
3 67 111 82
3 34 116 82
3 18 116 95
3 92 77 116
3 105 111 97
3 2 40 4
3 22 57 2
5 40 109 112 57 2
3 2 58 10
3 28 21 35
3 33 35 22
5 33 35 28 96 116
3 18 35 10
3 4 21 81
5 21 81 116 98 28
3 58 77 21
5 4 40 98 112 81
3 18 93 4
5 22 57 96 109 33
3 77 22 93
3 28 98 40
3 28 96 57
3 40 109 33
5 10 18 93 77 58
3 10 96 109
3 57 112 81
3 58 98 112
3 33 116 81
3 18 116 98
3 77 96 116
3 93 112 109
3 8 26 1
3 25 68 1
3 1 69 9
3 47 50 65
5 47 65 78 117 19
5 47 50 88 117 34
3 25 47 34
3 9 19 47
5 50 90 117 82 65
3 8 65 82
3 65 78 69
3 26 90 50
3 68 50 88
5 8 82 110 90 26
3 19 8 97
5 68 25 34 104 88
3 25 97 78
3 34 26 104
5 9 69 78 97 19
3 88 9 104
3 82 110 68
3 69 110 90
3 82 117 34
3 90 117 19
3 78 117 88
3 97 110 104
3 2 40 12
3 39 57 2
3 2 59 13
3 47 62 65
5 47 62 91 117 45
3 39 45 47
3 13 47 19
5 65 62 94 117 84
3 65 84 12
3 65 78 59
3 62 94 40
3 57 62 91
5 40 94 112 84 12
3 12 103 19
5 57 39 45 109 91
3 78 103 39
3 40 109 45
5 13 19 103 78 59
3 91 109 13
3 84 57 112
3 94 112 59
3 45 117 84
3 94 117 19
3 78 91 117
3 103 109 112
3 24 49 30
3 48 52 24
5 49 24 52 113 105
3 24 44 29
3 41 61 38
5 64 38 61 100 115
3 64 38 48
3 29 38 33
3 41 85 30
5 85 41 61 102 115
3 44 41 86
5 49 30 85 113 102
3 33 30 92
3 61 102 49
3 52 61 100
5 48 64 105 100 52
3 48 86 92
3 49 105 64
5 33 29 44 86 92
3 100 105 29
3 52 113 85
3 44 113 102
3 85 64 115
3 33 115 102
3 86 115 100
3 92 113 105
3 32 21 4
3 21 73 30
5 21 32 116 107 73
3 80 21 82
3 56 4 63
3 57 62 56
5 63 56 57 112 115
3 80 56 85
5 32 4 63 107 112
3 94 4 95
3 30 62 33
5 33 116 108 73 30
3 85 95 30
5 33 62 57 108 115
3 82 94 62
3 73 108 57
3 63 73 107
3 32 112 57
5 82 94 95 85 80
3 80 107 112
3 63 115 33
3 32 116 33
3 85 108 115
3 82 116 108
3 95 116 107
3 94 112 115
3 28 26 35
3 31 35 25
5 35 31 116 104 26
3 33 35 29
3 47 62 49
3 25 70 47
5 47 49 105 117 70
3 45 47 29
3 28 82 62
5 49 62 82 117 102
3 33 91 62
5 28 26 102 116 82
3 45 28 96
5 31 105 104 70 25
3 91 96 25
3 49 102 26
3 70 26 104
3 31 105 49
5 29 33 91 96 45
3 29 104 105
3 82 31 116
3 33 116 102
3 70 117 82
3 45 102 117
3 91 117 105
3 104 116 96
3 38 63 5
3 40 61 38
3 38 64 13
3 14 54 4
5 54 16 118 93 4
5 14 54 19 118 99
3 5 16 54
3 13 54 19
5 4 94 118 89 14
3 4 94 40
3 63 4 93
3 14 89 61
3 64 14 99
5 5 16 109 93 63
3 100 99 5
5 40 61 89 115 94
3 19 100 61
3 16 40 109
5 100 19 13 64 99
3 93 109 13
3 63 115 89
3 94 115 64
3 16 89 118
3 19 94 118
3 99 93 118
3 109 115 100
3 24 49 26
3 9 24 52
3 6 24 51
3 14 54 3
5 3 54 18 118 87
3 9 54 19
3 6 18 54
5 14 95 118 90 3
3 26 90 3
3 51 3 87
3 49 95 14
3 14 99 52
5 95 49 26 90 113
3 18 104 26
5 9 19 105 99 52
3 87 104 9
5 51 6 18 104 87
3 6 105 99
3 19 105 49
3 95 51 113
3 90 52 113
3 19 118 90
3 18 118 95
3 87 118 99
3 105 113 104
3 23 40 20
3 5 20 42
5 20 42 114 109 40
3 10 20 43
3 12 54 3
3 5 17 54
5 54 12 103 118 17
3 10 54 18
3 3 89 23
5 89 3 12 98 118
3 43 87 3
5 23 40 98 114 89
3 23 101 18
5 5 42 103 109 17
3 87 101 5
3 12 40 98
3 12 103 42
3 40 109 17
5 10 43 87 101 18
3 10 103 109
3 42 114 89
3 98 114 43
3 89 17 118
3 98 118 18
3 103 118 87
3 109 114 101
3 20 40 28
3 39 20 42
3 29 20 44
3 50 61 47
5 60 47 61 100 117
3 60 47 39
3 34 47 29
3 28 84 50
5 84 50 61 102 117
3 50 88 44
5 28 40 102 114 84
3 28 96 34
3 40 102 61
3 42 100 61
5 60 39 42 100 109
3 39 88 96
3 60 109 40
5 34 96 88 44 29
3 100 109 29
3 42 114 84
3 44 114 102
3 84 117 60
3 102 117 34
3 88 117 100
3 109 114 96
3 46 67 30
3 46 14 52
5 46 67 111 113 52
3 80 83 46
3 41 72 56
3 64 14 56
5 64 56 72 106 115
3 81 56 80
3 53 30 41
5 53 115 108 72 41
3 41 89 83
5 53 113 108 67 30
3 81 95 30
5 64 111 106 52 14
3 14 95 89
3 67 108 72
3 72 106 52
3 67 111 64
3 52 113 53
5 81 95 89 83 80
3 80 106 111
3 53 64 115
3 83 108 113
3 108 115 81
3 89 115 106
3 95 113 111
3 21 8 31
3 21 28 68
5 21 68 110 116 31
3 81 21 80
3 8 70 65
3 65 67 62
5 65 67 111 117 70
3 80 65 84
5 31 111 110 70 8
3 8 98 94
3 34 62 28
5 62 67 108 117 34
3 62 94 81
5 28 34 116 108 68
3 28 98 84
3 68 67 108
3 70 68 110
3 31 67 111
5 81 94 98 84 80
3 80 111 110
3 31 116 34
3 70 117 34
3 81 116 108
3 84 108 117
3 94 117 111
3 110 116 98
3 16 23 3
3 3 71 14
5 16 118 107 71 3
3 83 90 3
3 41 23 63
3 42 61 41
5 41 42 114 115 63
3 83 41 85
5 23 16 114 107 63
3 95 102 23
3 14 61 17
5 71 14 17 118 106
3 14 85 95
5 17 115 106 42 61
3 90 61 102
3 42 71 106
3 63 71 107
3 42 114 16
3 17 63 115
5 85 95 102 90 83
3 107 114 83
3 16 17 118
3 85 106 115
3 90 118 106
3 107 118 95
3 114 115 102
3 12 54 8
5 8 54 15 118 97
3 9 54 15
3 13 54 17
3 47 61 49
3 47 70 9
3 60 47 13
5 12 90 118 94 8
3 49 94 8
3 8 97 70
3 61 90 12
3 60 12 103
5 49 94 117 90 61
3 61 100 17
5 9 15 105 97 70
3 9 103 100
3 49 105 15
5 60 13 17 100 103
3 97 105 13
3 90 70 117
3 15 118 90
3 60 117 94
3 94 118 17
3 105 100 117
3 103 118 97
3 56 63 71
3 57 72 56
3 59 64 56
3 55 48 22
5 55 75 119 93 22
5 48 99 119 78 55
3 71 55 75
3 59 78 55
5 86 48 22 91 119
3 22 91 57
3 22 93 63
3 48 72 86
3 48 99 64
5 63 93 112 75 71
3 99 71 106
5 57 72 86 115 91
3 72 106 78
3 57 112 75
5 59 78 106 99 64
3 93 112 59
3 63 115 86
3 91 64 115
3 75 119 86
3 78 119 91
3 99 93 119
3 112 106 115
3 46 68 67
3 52 69 46
3 51 66 46
3 37 55 48
5 55 37 87 119 77
3 69 78 55
3 66 55 77
5 37 48 92 119 88
3 68 88 37
3 51 37 87
3 48 67 92
3 48 99 52
5 67 68 88 113 92
3 77 68 110
5 69 78 111 99 52
3 87 69 110
5 66 51 87 110 77
3 99 66 111
3 78 67 111
3 92 113 51
3 88 52 113
3 78 119 88
3 92 119 77
3 99 119 87
3 111 113 110
3 26 35 23
3 6 31 35
3 32 35 10
3 8 54 4
3 6 54 15
3 10 16 54
5 8 4 95 118 98
3 23 4 95
3 4 93 32
3 26 98 8
3 8 97 31
5 26 23 95 116 98
3 23 101 16
3 15 26 104
5 15 104 97 31 6
3 6 101 93
5 32 10 16 101 93
3 97 104 10
3 95 116 31
3 32 98 116
3 95 118 15
3 98 118 16
3 93 97 118
3 101 116 104
3 57 73 36
3 36 71 42
5 57 36 42 114 112
3 43 58 36
3 39 37 55
5 55 39 103 119 76
3 55 76 71
3 55 77 58
3 73 86 37
5 37 86 119 96 39
3 43 37 87
5 73 86 114 96 57
3 77 107 73
3 39 96 57
3 39 103 42
5 42 103 112 76 71
3 87 71 107
3 57 112 76
5 58 77 107 87 43
3 103 112 58
3 86 114 42
3 43 96 114
3 86 76 119
3 96 119 77
3 103 119 87
3 107 114 112
3 36 57 28
3 42 12 36
3 80 83 36
3 50 72 65
3 60 12 65
5 60 117 106 72 65
3 80 82 65
3 28 50 45
5 45 117 108 72 50
3 83 90 50
5 45 28 57 108 114
3 82 28 98
5 42 12 60 112 106
3 90 98 12
3 72 108 57
3 72 106 42
3 60 112 57
3 42 114 45
5 80 82 98 90 83
3 80 112 106
3 108 114 83
3 60 117 45
3 108 117 82
3 90 117 106
3 112 114 98
3 3 69 12
3 3 26 15
5 15 118 110 69 3
3 83 3 89
3 26 50 70
3 50 61 52
5 50 70 117 113 52
3 83 84 50
3 19 61 12
5 69 12 19 118 106
3 84 98 12
5 15 26 70 110 113
3 26 102 98
5 19 61 52 106 117
3 89 102 61
3 69 106 52
3 70 110 69
3 15 113 52
5 83 89 102 98 84
3 83 113 110
3 70 117 19
3 15 118 19
3 89 106 118
3 84 117 106
3 98 118 110
3 102 117 113
3 4 23 18
3 14 66 4
5 18 118 107 66 4
3 81 4 94
3 30 51 23
3 31 49 30
5 30 51 113 116 31
3 81 85 30
5 18 116 107 51 23
3 89 102 23
3 15 14 49
5 15 118 111 66 14
3 85 89 14
5 49 31 111 113 15
3 94 102 49
3 51 107 66
3 31 111 66
3 51 113 15
3 31 116 18
3 15 118 18
5 85 89 102 94 81
3 81 116 107
3 111 113 85
3 89 118 107
3 111 118 94
3 102 113 116
3 63 41 73
3 42 72 41
3 41 53 44
3 5 48 37
5 5 101 119 75 37
3 37 75 73
3 44 88 37
5 5 100 119 76 48
3 42 100 5
3 5 101 63
5 63 73 75 114 101
3 92 73 108
3 72 76 48
3 53 92 48
5 42 72 76 115 100
3 88 72 108
3 42 114 75
5 53 44 88 108 92
3 101 44 114
3 76 63 115
3 100 115 53
3 75 119 76
3 88 100 119
3 92 101 119
3 114 115 108
3 55 25 39
5 25 97 119 74 55
3 69 55 74
3 55 76 59
3 65 67 72
3 70 69 65
3 59 60 65
5 25 91 119 88 39
3 25 67 91
3 25 97 70
3 72 88 39
3 60 103 39
5 72 67 91 117 88
3 76 106 72
5 69 74 111 97 70
3 103 106 69
3 74 111 67
5 76 59 60 103 106
3 59 111 97
3 70 117 88
3 60 117 91
3 88 119 74
3 91 76 119
3 97 119 103
3 111 117 106
3 68 73 21
3 31 21 66
3 32 21 58
3 25 55 22
3 66 55 74
3 55 75 58
5 25 22 92 119 96
3 73 92 22
3 32 93 22
3 25 96 68
3 31 97 25
5 73 68 96 116 92
3 75 107 73
3 74 110 68
5 66 31 97 110 74
3 93 107 66
5 75 58 32 93 107
3 58 110 97
3 31 116 92
3 96 116 32
3 74 119 92
3 96 119 75
3 93 119 97
3 107 116 110
3 4 8 59
3 4 17 40
5 4 17 118 112 59
3 81 4 95
3 8 19 49
5 8 19 118 111 59
3 8 98 82
3 60 62 40
3 64 62 49
5 62 64 115 117 60
3 82 62 81
5 40 60 112 115 17
3 98 102 40
5 49 19 117 111 64
3 49 102 95
3 64 111 59
3 60 59 112
3 64 115 17
3 19 60 117
5 81 82 98 102 95
3 112 115 81
3 17 118 19
3 82 111 117
3 95 111 118
3 112 118 98
3 102 117 115
3 39 9 37
5 37 74 119 104 9
3 37 74 68
3 37 86 44
3 70 68 50
3 50 72 52
3 44 50 45
5 9 100 119 78 39
3 39 72 78
3 45 96 39
3 9 100 52
3 70 104 9
5 74 68 70 104 113
3 68 96 108
5 52 100 117 78 72
3 86 72 108
3 74 52 113
5 44 45 96 108 86
3 44 113 104
3 78 70 117
3 78 74 119
3 45 117 100
3 86 119 100
3 104 119 96
3 108 113 117
3 12 8 58
3 18 26 8
5 8 18 118 110 58
3 8 94 82
3 28 26 43
3 32 40 28
5 32 28 43 114 116
3 82 84 28
3 16 12 40
5 16 12 58 112 118
3 12 90 84
5 18 116 110 43 26
3 90 102 26
5 40 16 114 112 32
3 40 94 102
3 58 43 110
3 58 32 112
3 43 114 16
3 18 116 32
3 16 118 18
5 84 82 94 102 90
3 82 110 116
3 112 114 84
3 110 118 90
3 94 112 118
3 102 114 116
3 51 30 73
3 30 67 31
3 30 53 33
3 22 73 77
3 6 22 48
5 6 22 77 119 101
3 33 91 22
5 51 73 77 116 101
3 86 108 73
5 6 105 119 74 48
3 48 74 67
3 53 86 48
3 6 101 51
3 31 6 105
5 74 67 31 105 113
3 91 108 67
3 74 51 113
3 77 31 116
5 53 86 108 91 33
3 101 33 116
3 53 105 113
3 74 119 77
3 101 119 86
3 91 105 119
3 108 116 113
3 3 71 69
3 15 3 51
3 3 43 16
3 9 37 5
3 37 74 51
3 43 75 37
5 5 99 119 103 9
3 71 99 5
3 16 101 5
3 9 69 103
3 15 104 9
5 69 103 118 99 71
3 75 71 107
3 74 110 69
5 15 104 110 74 51
3 51 107 101
5 16 43 75 107 101
3 43 104 110
3 99 118 15
3 103 118 16
3 74 119 99
3 103 119 75
3 104 119 101
3 107 118 110
3 26 44 23
3 33 40 23
5 23 33 116 114 44
3 89 95 23
3 26 34 49
5 44 26 34 116 113
3 26 98 90
3 40 61 45
3 53 49 61
5 53 115 117 45 61
3 90 61 89
5 40 33 115 114 45
3 94 98 40
5 34 49 53 113 117
3 95 94 49
3 44 113 53
3 44 114 45
3 53 115 33
3 33 116 34
3 45 117 34
5 95 89 90 98 94
3 89 114 115
3 113 117 90
3 113 116 95
3 94 117 115
3 98 114 116
3 22 25 13
5 13 109 119 76 22
3 22 76 57
3 22 92 33
3 60 62 57
3 64 62 67
3 34 62 33
5 25 78 119 105 13
3 25 67 78
3 34 25 96
3 13 64 105
3 13 109 60
5 60 109 115 76 57
3 57 108 96
5 64 105 117 78 67
3 92 67 108
3 76 115 64
5 92 33 34 96 108
3 109 115 33
3 78 117 60
3 34 105 117
3 78 76 119
3 105 119 92
3 96 109 119
3 108 117 115
3 28 68 43
3 28 57 32
3 28 45 34
3 25 39 10
3 68 77 25
5 25 10 104 119 77
3 25 34 91
5 10 109 119 75 39
3 39 75 57
3 39 88 45
5 77 68 43 104 116
3 68 108 88
3 10 104 43
3 32 109 10
5 57 32 109 114 75
3 91 108 57
3 43 114 75
3 32 77 116
5 34 45 88 108 91
3 34 116 104
3 45 114 109
3 75 77 119
3 88 104 119
3 109 119 91
3 108 116 114
3 66 71 14
3 15 52 14
3 17 64 14
3 6 48 5
5 6 93 119 87 5
3 5 87 71
3 17 100 5
3 52 74 48
3 48 76 64
3 6 66 93
3 15 6 105
5 66 71 87 118 93
3 71 106 76
3 74 111 66
5 15 105 111 74 52
3 52 100 106
5 17 64 76 106 100
3 105 111 64
3 87 15 118
3 17 118 93
3 87 74 119
3 93 76 119
3 100 105 119
3 106 118 111
3 4 66 59
3 17 4 63
3 18 32 4
3 13 22 6
3 63 76 22
3 22 77 32
5 13 97 119 99 6
3 66 99 6
3 6 18 101
3 59 97 13
3 17 13 109
5 66 59 97 118 99
3 66 107 77
3 59 112 76
5 17 109 112 76 63
3 63 107 101
5 77 32 18 101 107
3 32 112 109
3 17 118 99
3 99 119 76
3 97 118 18
3 77 119 97
3 101 119 109
3 112 118 107
3 73 83 68
3 73 81 57
5 73 81 116 114 83
3 73 92 86
3 68 67 82
5 68 83 113 116 82
3 88 96 68
3 72 84 57
3 72 85 67
5 84 72 85 115 117
3 86 88 72
5 84 114 115 81 57
3 57 96 91
5 67 85 113 117 82
3 92 67 91
3 85 113 83
3 83 84 114
3 81 115 85
3 82 116 81
3 82 117 84
5 86 92 91 96 88
3 114 115 86
3 88 117 113
3 92 116 113
3 115 117 91
3 96 116 114
3 9 29 5
5 5 86 119 109 29
3 5 86 42
3 17 99 5
3 45 42 61
3 53 61 52
3 17 19 61
5 9 88 119 105 29
3 52 88 9
3 9 103 19
3 29 53 105
3 29 109 45
5 42 45 109 115 86
3 103 106 42
5 53 52 88 117 105
3 99 106 52
3 86 53 115
5 17 99 106 103 19
3 109 115 17
3 88 117 45
3 19 105 117
3 86 119 88
3 105 119 99
3 109 119 103
3 106 115 117
3 12 69 58
3 16 12 42
3 19 60 12
3 10 39 9
3 42 75 39
3 60 78 39
3 9 87 69
5 10 9 87 119 97
3 19 100 9
5 69 87 118 97 58
3 69 106 78
3 58 97 10
3 10 109 16
3 75 112 58
5 16 42 75 112 109
3 42 100 106
5 19 60 78 106 100
3 109 112 60
3 16 118 87
3 19 118 97
3 75 119 87
3 97 119 78
3 100 119 109
3 112 118 106
3 59 8 58
3 18 31 8
3 8 19 70
3 13 25 10
3 31 77 25
3 25 70 78
5 93 13 10 103 119
3 13 93 59
3 19 105 13
3 10 103 58
3 10 104 18
5 58 103 118 93 59
3 78 111 59
3 77 110 58
5 31 77 110 104 18
3 31 105 111
5 70 78 111 105 19
3 70 104 110
3 103 118 19
3 93 18 118
3 78 103 119
3 93 77 119
3 105 119 104
3 111 118 110
3 44 23 51
3 33 23 63
3 16 23 18
3 5 29 6
3 5 63 86
3 5 16 87
5 29 104 119 92 6
3 6 92 51
3 6 18 93
3 44 104 29
3 33 109 29
5 44 104 116 92 51
3 51 107 87
3 86 114 44
5 86 63 33 109 114
3 63 93 107
3 92 116 33
5 16 87 107 93 18
3 16 114 109
3 104 116 18
3 86 92 119
3 87 119 104
3 93 119 109
3 107 116 114
3 71 80 69
3 71 42 89
5 71 89 118 112 80
3 71 99 76
3 42 84 72
3 52 85 72
3 76 72 78
3 69 90 52
5 80 111 118 90 69
3 78 69 103
5 89 42 84 112 115
3 100 103 42
5 85 52 90 117 111
3 100 52 99
3 85 111 80
3 84 112 80
3 85 115 89
3 89 90 118
5 76 99 100 103 78
3 112 115 76
3 84 117 90
3 78 117 111
3 111 118 99
3 100 115 117
3 103 112 118
3 13 29 6
3 6 31 92
3 15 99 6
3 31 49 34
3 49 64 53
3 19 49 15
5 29 100 119 91 13
3 64 91 13
3 19 97 13
3 29 100 53
3 29 104 34
5 34 104 113 92 31
3 31 97 111
5 64 91 117 100 53
3 64 111 99
5 15 19 97 111 99
3 15 104 113
3 53 113 92
3 34 91 117
3 19 100 117
3 91 92 119
3 100 119 99
3 104 119 97
3 113 117 111
3 43 26 44
3 26 34 70
3 15 26 18
3 10 9 29
3 70 88 9
3 9 87 15
5 10 96 119 101 29
3 43 96 10
3 10 97 18
3 29 101 44
3 29 34 105
5 44 43 96 116 101
3 88 113 44
3 87 43 110
5 34 105 113 88 70
3 70 97 110
5 87 15 18 97 110
3 15 113 105
3 96 116 34
3 101 116 18
3 88 119 96
3 101 119 87
3 97 105 119
3 110 113 116
3 73 83 51
3 73 63 81
3 75 73 77
3 66 71 80
3 71 63 89
3 75 71 87
3 66 51 95
5 66 95 118 110 80
3 66 93 77
5 95 51 83 110 116
3 51 101 87
3 83 110 80
3 81 112 80
5 81 63 89 114 112
3 93 101 63
3 83 114 89
3 81 116 95
3 95 118 89
5 75 87 101 93 77
3 75 114 112
3 110 116 77
3 87 118 110
3 93 112 118
3 101 116 114
3 66 80 59
3 66 31 95
3 66 74 99
3 31 67 82
3 67 64 85
3 74 78 67
5 59 94 118 106 80
3 64 94 59
3 78 59 97
3 80 106 85
3 80 110 82
5 82 110 113 95 31
3 31 105 97
5 94 64 85 106 117
3 64 105 99
5 74 99 105 97 78
3 110 113 74
3 95 85 113
3 94 117 82
3 95 118 94
3 78 106 117
3 106 118 99
3 97 118 110
3 105 117 113
3 33 40 32
3 45 60 40
3 16 40 17
3 10 13 29
3 60 91 13
3 17 93 13
3 10 96 32
3 10 103 16
3 29 101 33
3 29 45 100
5 101 33 32 96 114
3 33 91 115
3 32 112 93
5 45 60 91 115 100
3 103 112 60
5 17 93 112 103 16
3 100 115 17
3 16 114 101
3 96 114 45
3 96 119 91
3 93 119 101
3 103 119 100
3 112 114 115
3 43 68 83
3 68 70 82
3 77 68 74
3 58 69 80
3 69 90 70
3 74 87 69
5 58 98 118 107 80
3 58 98 43
3 58 97 77
3 80 83 107
3 82 111 80
5 43 98 116 107 83
3 43 104 87
3 83 90 113
5 90 70 82 111 113
3 70 97 104
5 74 77 97 104 87
3 111 113 74
3 82 98 116
3 98 118 90
3 77 116 107
3 107 118 87
3 111 118 97
3 104 116 113
3 57 81 32
3 60 84 57
3 75 57 76
3 59 80 58
3 59 94 60
3 59 93 76
3 58 32 98
3 75 58 103
3 80 107 81
3 80 106 84
5 32 98 114 107 81
3 93 32 109
5 84 60 94 115 106
3 103 109 60
3 94 115 81
5 75 76 93 109 103
3 76 115 106
3 107 114 75
3 84 114 98
3 98 118 94
3 93 107 118
3 103 106 118
3 115 114 109
3 51 44 83
3 51 95 15
3 74 92 51
3 15 52 90
3 52 53 85
3 52 88 74
5 44 102 116 108 83
3 44 53 102
3 88 44 104
3 83 85 108
3 90 110 83
5 90 15 95 111 110
3 15 105 104
5 53 85 108 117 102
3 92 105 53
5 105 104 88 74 92
3 74 110 111
3 95 85 111
3 90 117 102
3 102 95 116
3 108 117 88
3 92 116 108
3 105 117 111
3 110 116 104
3 16 89 42
3 45 84 42
3 75 86 42
3 44 83 43
3 44 45 102
3 86 101 44
3 43 98 16
3 43 96 75
3 89 107 83
3 83 108 84
5 16 89 107 112 98
3 16 109 101
5 84 108 115 102 45
3 45 96 109
3 89 115 102
5 86 75 96 109 101
3 107 112 75
3 84 112 98
3 108 115 86
3 102 98 116
3 96 108 116
3 101 107 116
3 109 115 112
3 63 33 81
3 63 17 89
3 76 86 63
3 64 85 53
3 64 94 17
3 64 91 76
3 33 102 53
5 33 102 114 108 81
3 91 33 109
3 53 100 86
3 81 108 85
3 81 112 94
5 17 89 106 112 94
3 17 100 109
3 89 85 106
3 102 89 114
5 91 109 100 86 76
3 76 106 112
3 86 108 114
3 94 117 102
3 91 108 117
3 100 106 117
3 109 112 114
3 34 82 31
3 18 95 31
3 31 92 77
3 32 33 81
3 33 34 102
3 92 101 33
3 32 98 18
3 77 32 96
3 81 82 108
3 81 95 107
5 82 108 113 102 34
3 34 96 104
3 82 98 110
5 95 18 98 110 107
3 18 101 104
3 95 102 113
5 77 92 101 104 96
3 77 110 107
3 102 114 98
3 108 113 92
3 96 114 108
3 107 114 101
3 113 110 104
3 34 82 70
3 70 90 19
3 78 88 70
3 45 84 60
3 60 94 19
3 78 91 60
3 45 102 34
3 34 105 91
3 45 88 100
3 84 82 108
3 94 111 82
5 19 94 111 106 90
3 19 105 100
3 84 106 90
3 90 113 102
5 88 78 91 105 100
3 106 111 78
3 102 115 94
3 88 113 108
3 91 115 108
3 100 106 115
3 111 113 105
3 15 90 19
3 18 95 15
3 87 99 15
3 16 89 17
3 17 94 19
3 17 99 93
3 18 16 98
3 16 87 103
3 89 90 106
3 89 107 95
3 19 103 97
3 18 97 93
3 98 110 90
3 95 111 94
3 94 98 112
5 99 87 103 97 93
3 87 110 107
3 106 111 99
3 107 112 93
3 103 106 112
3 111 110 97
3 78 88 74
3 77 74 92
3 87 99 74
3 76 86 75
3 78 91 76
3 93 76 99
3 77 96 75
3 75 103 87
3 86 88 100
3 86 92 101
3 78 97 103
3 77 97 93
3 88 104 96
3 92 91 105
3 87 104 101
3 91 96 109
3 99 100 105
3 93 109 101
3 100 109 103
3 105 104 97

# Cells
32 0 1 2 3 4 5 6 7 8 9 10 11 12 13 14 15 16 17 18 19 20 21 22 23 24 25 26 27 28 29 30 31
32 1 32 33 34 35 36 37 38 39 40 41 42 43 44 45 46 47 48 49 50 51 52 53 54 55 56 57 58 59 60 61 62
32 3 63 64 65 66 67 68 69 70 71 72 73 74 75 76 77 78 79 80 81 82 83 84 85 86 87 88 89 90 91 92 93
32 7 73 94 95 96 97 98 99 100 101 102 103 104 105 106 107 108 109 110 111 112 113 114 115 116 117 118 119 120 121 122 123
32 33 124 125 126 127 128 129 130 131 132 133 134 135 136 137 138 139 140 141 142 143 144 145 146 147 148 149 150 151 152 153 154
32 11 42 107 155 156 157 158 159 160 161 162 163 164 165 166 167 168 169 170 171 172 173 174 175 176 177 178 179 180 181 182 183
32 37 135 164 184 185 186 187 188 189 190 191 192 193 194 195 196 197 198 199 200 201 202 203 204 205 206 207 208 209 210 211 212
32 64 126 213 214 215 216 217 218 219 220 221 222 223 224 225 226 227 228 229 230 231 232 233 234 235 236 237 238 239 240 241 242
32 15 46 80 134 218 243 244 245 246 247 248 249 250 251 252 253 254 255 256 257 258 259 260 261 262 263 264 265 266 267 268 269
32 69 100 220 270 271 272 273 274 275 276 277 278 279 280 281 282 283 284 285 286 287 288 289 290 291 292 293 294 295 296 297 298
32 95 155 186 271 299 300 301 302 303 304 305 306 307 308 309 310 311 312 313 314 315 316 317 318 319 320 321 322 323 324 325 326
32 130 194 223 280 307 327 328 329 330 331 332 333 334 335 336 337 338 339 340 341 342 343 344 345 346 347 348 349 350 351 352 353
32 346 354 355 356 357 358 359 360 361 362 363 364 365 366 367 368 369 370 371 372 373 374 375 376 377 378 379 380 381 382 383 384
32 125 185 335 355 385 386 387 388 389 390 391 392 393 394 395 396 397 398 399 400 401 402 403 404 405 406 407 408 409 410 411 412
32 215 273 329 357 413 414 415 416 417 418 419 420 421 422 423 424 425 426 427 428 429 430 431 432 433 434 435 436 437 438 439 440
32 278 301 334 361 423 441 442 443 444 445 446 447 448 449 450 451 452 453 454 455 456 457 458 459 460 461 462 463 464 465 466 467
32 192 304 338 365 395 455 468 469 470 471 472 473 474 475 476 477 478 479 480 481 482 483 484 485 486 487 488 489 490 491 492 493
32 137 219 340 369 399 427 494 495 496 497 498 499 500 501 502 503 504 505 506 507 508 509 510 511 512 513 514 515 516 517 518 519
32 20 51 76 110 139 172 197 229 258 287 313 342 520 521 522 523 524 525 526 527 528 529 530 531 532 533 534 535 536 537 538 539
32 290 414 442 540 541 542 543 544 545 546 547 548 549 550 551 552 553 554 555 556 557 558 559 560 561 562 563 564 565 566 567 568
32 66 97 283 541 569 570 571 572 573 574 575 576 577 578 579 580 581 582 583 584 585 586 587 588 589 590 591 592 593 594 595 596
32 109 281 309 456 549 577 597 598 599 600 601 602 603 604 605 606 607 608 609 610 611 612 613 614 615 616 617 618 619 620 621 622
32 81 225 285 429 553 581 623 624 625 626 627 628 629 630 631 632 633 634 635 636 637 638 639 640 641 642 643 644 645 646 647 648
32 204 386 470 649 650 651 652 653 654 655 656 657 658 659 660 661 662 663 664 665 666 667 668 669 670 671 672 673 674 675 676 677
32 35 158 200 650 678 679 680 681 682 683 684 685 686 687 688 689 690 691 692 693 694 695 696 697 698 699 700 701 702 703 704 705
32 168 193 311 481 658 688 706 707 708 709 710 711 712 713 714 715 716 717 718 719 720 721 722 723 724 725 726 727 728 729 730 731
32 49 142 202 403 662 692 732 733 734 735 736 737 738 739 740 741 742 743 744 745 746 747 748 749 750 751 752 753 754 755 756 757
32 147 389 496 733 758 759 760 761 762 763 764 765 766 767 768 769 770 771 772 773 774 775 776 777 778 779 780 781 782 783 784 785
32 39 144 245 740 759 786 787 788 789 790 791 792 793 794 795 796 797 798 799 800 801 802 803 804 805 806 807 808 809 810 811 812
32 129 227 254 505 767 796 813 814 815 816 817 818 819 820 821 822 823 824 825 826 827 828 829 830 831 832 833 834 835 836 837 838
32 115 571 599 839 840 841 842 843 844 845 846 847 848 849 850 851 852 853 854 855 856 857 858 859 860 861 862 863 864 865 866 867
32 4 104 161 840 868 869 870 871 872 873 874 875 876 877 878 879 880 881 882 883 884 885 886 887 888 889 890 891 892 893 894 895
32 99 165 316 609 717 850 877 896 897 898 899 900 901 902 903 904 905 906 907 908 909 910 911 912 913 914 915 916 917 918 919 920
32 18 83 113 587 848 880 921 922 923 924 925 926 927 928 929 930 931 932 933 934 935 936 937 938 939 940 941 942 943 944 945 946
32 235 417 498 627 816 947 948 949 950 951 952 953 954 955 956 957 958 959 960 961 962 963 964 965 966 967 968 969 970 971 972 973
32 68 232 248 633 822 949 974 975 976 977 978 979 980 981 982 983 984 985 986 987 988 989 990 991 992 993 994 995 996 997 998 999
32 86 574 625 922 978 1000 1001 1002 1003 1004 1005 1006 1007 1008 1009 1010 1011 1012 1013 1014 1015 1016 1017 1018 1019 1020 1021 1022 1023 1024 1025 1026
32 8 74 251 929 986 1001 1027 1028 1029 1030 1031 1032 1033 1034 1035 1036 1037 1038 1039 1040 1041 1042 1043 1044 1045 1046 1047 1048 1049 1050 1051 1052
32 176 679 707 869 899 1053 1054 1055 1056 1057 1058 1059 1060 1061 1062 1063 1064 1065 1066 1067 1068 1069 1070 1071 1072 1073 1074 1075 1076 1077 1078 1079
32 16 47 170 693 882 1058 1080 1081 1082 1083 1084 1085 1086 1087 1088 1089 1090 1091 1092 1093 1094 1095 1096 1097 1098 1099 1100 1101 1102 1103 1104 1105
32 457 543 602 1106 1107 1108 1109 1110 1111 1112 1113 1114 1115 1116 1117 1118 1119 1120 1121 1122 1123 1124 1125 1126 1127 1128 1129 1130 1131 1132 1133 1134
32 358 451 476 1107 1135 1136 1137 1138 1139 1140 1141 1142 1143 1144 1145 1146 1147 1148 1149 1150 1151 1152 1153 1154 1155 1156 1157 1158 1159 1160 1161 1162
32 319 445 472 604 708 897 1113 1144 1163 1164 1165 1166 1167 1168 1169 1170 1171 1172 1173 1174 1175 1176 1177 1178 1179 1180 1181 1182 1183 1184 1185 1186
32 372 430 459 557 1112 1143 1187 1188 1189 1190 1191 1192 1193 1194 1195 1196 1197 1198 1199 1200 1201 1202 1203 1204 1205 1206 1207 1208 1209 1210 1211 1212
32 55 682 736 790 1081 1213 1214 1215 1216 1217 1218 1219 1220 1221 1222 1223 1224 1225 1226 1227 1228 1229 1230 1231 1232 1233 1234 1235 1236 1237 1238 1239
32 12 43 256 800 1039 1089 1214 1240 1241 1242 1243 1244 1245 1246 1247 1248 1249 1250 1251 1252 1253 1254 1255 1256 1257 1258 1259 1260 1261 1262 1263 1264
32 432 546 631 956 1188 1265 1266 1267 1268 1269 1270 1271 1272 1273 1274 1275 1276 1277 1278 1279 1280 1281 1282 1283 1284 1285 1286 1287 1288 1289 1290 1291
32 362 424 502 959 1192 1266 1292 1293 1294 1295 1296 1297 1298 1299 1300 1301 1302 1303 1304 1305 1306 1307 1308 1309 1310 1311 1312 1313 1314 1315 1316 1317
32 263 787 814 976 1028 1241 1318 1319 1320 1321 1322 1323 1324 1325 1326 1327 1328 1329 1330 1331 1332 1333 1334 1335 1336 1337 1338 1339 1340 1341 1342 1343
32 486 652 716 1136 1165 1344 1345 1346 1347 1348 1349 1350 1351 1352 1353 1354 1355 1356 1357 1358 1359 1360 1361 1362 1363 1364 1365 1366 1367 1368 1369 1370
32 370 400 483 663 1146 1349 1371 1372 1373 1374 1375 1376 1377 1378 1379 1380 1381 1382 1383 1384 1385 1386 1387 1388 1389 1390 1391 1392 1393 1394 1395 1396
32 26 872 925 1031 1084 1244 1397 1398 1399 1400 1401 1402 1403 1404 1405 1406 1407 1408 1409 1410 1411 1412 1413 1414 1415 1416 1417 1418 1419 1420 1421 1422
32 404 655 745 764 1372 1423 1424 1425 1426 1427 1428 1429 1430 1431 1432 1433 1434 1435 1436 1437 1438 1439 1440 1441 1442 1443 1444 1445 1446 1447 1448 1449
32 366 396 509 771 1298 1376 1424 1450 1451 1452 1453 1454 1455 1456 1457 1458 1459 1460 1461 1462 1463 1464 1465 1466 1467 1468 1469 1470 1471 1472 1473 1474
32 512 761 821 950 1293 1451 1475 1476 1477 1478 1479 1480 1481 1482 1483 1484 1485 1486 1487 1488 1489 1490 1491 1492 1493 1494 1495 1496 1497 1498 1499 1500
32 615 842 904 1109 1170 1501 1502 1503 1504 1505 1506 1507 1508 1509 1510 1511 1512 1513 1514 1515 1516 1517 1518 1519 1520 1521 1522 1523 1524 1525 1526 1527
32 554 582 613 851 1115 1506 1528 1529 1530 1531 1532 1533 1534 1535 1536 1537 1538 1539 1540 1541 1542 1543 1544 1545 1546 1547 1548 1549 1550 1551 1552 1553
32 379 1139 1195 1300 1379 1454 1554 1555 1556 1557 1558 1559 1560 1561 1562 1563 1564 1565 1566 1567 1568 1569 1570 1571 1572 1573 1574 1575 1576 1577 1578 1579
32 588 845 934 1010 1533 1580 1581 1582 1583 1584 1585 1586 1587 1588 1589 1590 1591 1592 1593 1594 1595 1596 1597 1598 1599 1600 1601 1602 1603 1604 1605 1606
32 550 578 639 1007 1272 1529 1581 1607 1608 1609 1610 1611 1612 1613 1614 1615 1616 1617 1618 1619 1620 1621 1622 1623 1624 1625 1626 1627 1628 1629 1630 1631
32 641 953 982 1003 1268 1608 1632 1633 1634 1635 1636 1637 1638 1639 1640 1641 1642 1643 1644 1645 1646 1647 1648 1649 1650 1651 1652 1653 1654 1655 1656 1657
32 722 910 1055 1174 1346 1503 1658 1659 1660 1661 1662 1663 1664 1665 1666 1667 1668 1669 1670 1671 1672 1673 1674 1675 1676 1677 1678 1679 1680 1681 1682 1683
32 665 695 725 1060 1351 1662 1684 1685 1686 1687 1688 1689 1690 1691 1692 1693 1694 1695 1696 1697 1698 1699 1700 1701 1702 1703 1704 1705 1706 1707 1708 1709
32 562 1118 1200 1274 1536 1614 1710 1711 1712 1713 1714 1715 1716 1717 1718 1719 1720 1721 1722 1723 1724 1725 1726 1727 1728 1729 1730 1731 1732 1733 1734 1735
32 698 1065 1093 1223 1689 1736 1737 1738 1739 1740 1741 1742 1743 1744 1745 1746 1747 1748 1749 1750 1751 1752 1753 1754 1755 1756 1757 1758 1759 1760 1761 1762
32 659 689 748 1220 1430 1686 1737 1763 1764 1765 1766 1767 1768 1769 1770 1771 1772 1773 1774 1775 1776 1777 1778 1779 1780 1781 1782 1783 1784 1785 1786 1787
32 750 768 797 1216 1426 1767 1788 1789 1790 1791 1792 1793 1794 1795 1796 1797 1798 1799 1800 1801 1802 1803 1804 1805 1806 1807 1808 1809 1810 1811 1812 1813
32 829 961 990 1320 1477 1634 1814 1815 1816 1817 1818 1819 1820 1821 1822 1823 1824 1825 1826 1827 1828 1829 1830 1831 1832 1833 1834 1835 1836 1837 1838 1839
32 773 802 831 1324 1481 1790 1818 1840 1841 1842 1843 1844 1845 1846 1847 1848 1849 1850 1851 1852 1853 1854 1855 1856 1857 1858 1859 1860 1861 1862 1863 1864
32 853 885 914 1063 1508 1663 1865 1866 1867 1868 1869 1870 1871 1872 1873 1874 1875 1876 1877 1878 1879 1880 1881 1882 1883 1884 1885 1886 1887 1888 1889 1890
32 670 1356 1384 1433 1692 1770 1891 1892 1893 1894 1895 1896 1897 1898 1899 1900 1901 1902 1903 1904 1905 1906 1907 1908 1909 1910 1911 1912 1913 1914 1915 1916
32 806 1227 1255 1329 1794 1844 1917 1918 1919 1920 1921 1922 1923 1924 1925 1926 1927 1928 1929 1930 1931 1932 1933 1934 1935 1936 1937 1938 1939 1940 1941 1942
32 887 1067 1098 1408 1743 1870 1943 1944 1945 1946 1947 1948 1949 1950 1951 1952 1953 1954 1955 1956 1957 1958 1959 1960 1961 1962 1963 1964 1965 1966 1967 1968
32 855 883 937 1403 1587 1867 1948 1969 1970 1971 1972 1973 1974 1975 1976 1977 1978 1979 1980 1981 1982 1983 1984 1985 1986 1987 1988 1989 1990 1991 1992 1993
32 939 1012 1040 1399 1583 1973 1994 1995 1996 1997 1998 1999 2000 2001 2002 2003 2004 2005 2006 2007 2008 2009 2010 2011 2012 2013 2014 2015 2016 2017 2018 2019
32 993 1014 1042 1327 1638 1819 1996 2020 2021 2022 2023 2024 2025 2026 2027 2028 2029 2030 2031 2032 2033 2034 2035 2036 2037 2038 2039 2040 2041 2042 2043 2044
32 1120 1150 1181 1354 1511 1666 2045 2046 2047 2048 2049 2050 2051 2052 2053 2054 2055 2056 2057 2058 2059 2060 2061 2062 2063 2064 2065 2066 2067 2068 2069 2070
32 779 1437 1464 1486 1797 1847 2071 2072 2073 2074 2075 2076 2077 2078 2079 2080 2081 2082 2083 2084 2085 2086 2087 2088 2089 2090 2091 2092 2093 2094 2095 2096
32 862 1513 1541 1590 1874 1976 2097 2098 2099 2100 2101 2102 2103 2104 2105 2106 2107 2108 2109 2110 2111 2112 2113 2114 2115 2116 2117 2118 2119 2120 2121 2122
32 1044 1258 1331 1410 1923 2000 2024 2123 2124 2125 2126 2127 2128 2129 2130 2131 2132 2133 2134 2135 2136 2137 2138 2139 2140 2141 2142 2143 2144 2145 2146 2147
32 1155 1358 1389 1565 1897 2051 2148 2149 2150 2151 2152 2153 2154 2155 2156 2157 2158 2159 2160 2161 2162 2163 2164 2165 2166 2167 2168 2169 2170 2171 2172 2173
32 1122 1152 1203 1560 1716 2047 2153 2174 2175 2176 2177 2178 2179 2180 2181 2182 2183 2184 2185 2186 2187 2188 2189 2190 2191 2192 2193 2194 2195 2196 2197 2198
32 1095 1225 1252 1405 1739 1919 1947 2124 2199 2200 2201 2202 2203 2204 2205 2206 2207 2208 2209 2210 2211 2212 2213 2214 2215 2216 2217 2218 2219 2220 2221 2222
32 1205 1277 1305 1556 1712 2178 2223 2224 2225 2226 2227 2228 2229 2230 2231 2232 2233 2234 2235 2236 2237 2238 2239 2240 2241 2242 2243 2244 2245 2246 2247 2248
32 968 1281 1307 1484 1641 1822 2225 2249 2250 2251 2252 2253 2254 2255 2256 2257 2258 2259 2260 2261 2262 2263 2264 2265 2266 2267 2268 2269 2270 2271 2272 2273
32 1020 1594 1621 1643 2003 2028 2274 2275 2276 2277 2278 2279 2280 2281 2282 2283 2284 2285 2286 2287 2288 2289 2290 2291 2292 2293 2294 2295 2296 2297 2298 2299
32 1074 1671 1697 1745 1876 1951 2300 2301 2302 2303 2304 2305 2306 2307 2308 2309 2310 2311 2312 2313 2314 2315 2316 2317 2318 2319 2320 2321 2322 2323 2324 2325
32 1127 1515 1544 1721 2054 2103 2181 2326 2327 2328 2329 2330 2331 2332 2333 2334 2335 2336 2337 2338 2339 2340 2341 2342 2343 2344 2345 2346 2347 2348 2349 2350
32 1310 1468 1488 1567 2077 2228 2254 2351 2352 2353 2354 2355 2356 2357 2358 2359 2360 2361 2362 2363 2364 2365 2366 2367 2368 2369 2370 2371 2372 2373 2374 2375
32 1387 1435 1462 1562 1893 2073 2152 2352 2376 2377 2378 2379 2380 2381 2382 2383 2384 2385 2386 2387 2388 2389 2390 2391 2392 2393 2394 2395 2396 2397 2398 2399
32 1234 1752 1775 1799 1926 2205 2400 2401 2402 2403 2404 2405 2406 2407 2408 2409 2410 2411 2412 2413 2414 2415 2416 2417 2418 2419 2420 2421 2422 2423 2424 2425
32 1284 1624 1645 1723 2232 2257 2280 2426 2427 2428 2429 2430 2431 2432 2433 2434 2435 2436 2437 2438 2439 2440 2441 2442 2443 2444 2445 2446 2447 2448 2449 2450
32 1338 1827 1852 1928 2030 2130 2451 2452 2453 2454 2455 2456 2457 2458 2459 2460 2461 2462 2463 2464 2465 2466 2467 2468 2469 2470 2471 2472 2473 2474 2475 2476
32 1363 1673 1699 1902 2056 2156 2306 2477 2478 2479 2480 2481 2482 2483 2484 2485 2486 2487 2488 2489 2490 2491 2492 2493 2494 2495 2496 2497 2498 2499 2500 2501
32 1546 1592 1619 1718 2099 2276 2330 2427 2502 2503 2504 2505 2506 2507 2508 2509 2510 2511 2512 2513 2514 2515 2516 2517 2518 2519 2520 2521 2522 2523 2524 2525
32 1417 1958 1981 2005 2135 2210 2526 2527 2528 2529 2530 2531 2532 2533 2534 2535 2536 2537 2538 2539 2540 2541 2542 2543 2544 2545 2546 2547 2548 2549 2550 2551
32 1442 1777 1801 1904 2082 2382 2409 2552 2553 2554 2555 2556 2557 2558 2559 2560 2561 2562 2563 2564 2565 2566 2567 2568 2569 2570 2571 2572 2573 2574 2575 2576
32 1494 1829 1854 2084 2259 2358 2457 2577 2578 2579 2580 2581 2582 2583 2584 2585 2586 2587 2588 2589 2590 2591 2592 2593 2594 2595 2596 2597 2598 2599 2600 2601
32 1521 1676 1880 2058 2108 2311 2333 2486 2602 2603 2604 2605 2606 2607 2608 2609 2610 2611 2612 2613 2614 2615 2616 2617 2618 2619 2620 2621 2622 2623 2624 2625
32 1702 1748 1779 1899 2302 2402 2482 2553 2626 2627 2628 2629 2630 2631 2632 2633 2634 2635 2636 2637 2638 2639 2640 2641 2642 2643 2644 2645 2646 2647 2648 2649
32 1574 2163 2186 2234 2363 2387 2650 2651 2652 2653 2654 2655 2656 2657 2658 2659 2660 2661 2662 2663 2664 2665 2666 2667 2668 2669 2670 2671 2672 2673 2674 2675
32 1599 1983 2007 2110 2287 2508 2535 2676 2677 2678 2679 2680 2681 2682 2683 2684 2685 2686 2687 2688 2689 2690 2691 2692 2693 2694 2695 2696 2697 2698 2699 2700
32 1651 1832 2034 2261 2283 2433 2460 2584 2701 2702 2703 2704 2705 2706 2707 2708 2709 2710 2711 2712 2713 2714 2715 2716 2717 2718 2719 2720 2721 2722 2723 2724
32 1806 1857 1930 2079 2405 2453 2559 2582 2725 2726 2727 2728 2729 2730 2731 2732 2733 2734 2735 2736 2737 2738 2739 2740 2741 2742 2743 2744 2745 2746 2747 2748
32 1883 1956 1985 2105 2308 2528 2606 2677 2749 2750 2751 2752 2753 2754 2755 2756 2757 2758 2759 2760 2761 2762 2763 2764 2765 2766 2767 2768 2769 2770 2771 2772
32 1729 2188 2238 2340 2440 2513 2659 2773 2774 2775 2776 2777 2778 2779 2780 2781 2782 2783 2784 2785 2786 2787 2788 2789 2790 2791 2792 2793 2794 2795 2796 2797
32 1755 1961 2213 2313 2413 2539 2632 2755 2798 2799 2800 2801 2802 2803 2804 2805 2806 2807 2808 2809 2810 2811 2812 2813 2814 2815 2816 2817 2818 2819 2820 2821
32 2012 2037 2137 2285 2462 2531 2683 2708 2822 2823 2824 2825 2826 2827 2828 2829 2830 2831 2832 2833 2834 2835 2836 2837 2838 2839 2840 2841 2842 2843 2844 2845
32 2064 2161 2190 2336 2484 2613 2652 2775 2846 2847 2848 2849 2850 2851 2852 2853 2854 2855 2856 2857 2858 2859 2860 2861 2862 2863 2864 2865 2866 2867 2868 2869
32 1909 2166 2390 2491 2566 2637 2663 2853 2870 2871 2872 2873 2874 2875 2876 2877 2878 2879 2880 2881 2882 2883 2884 2885 2886 2887 2888 2889 2890 2891 2892 2893
32 1935 2140 2215 2411 2464 2537 2731 2804 2828 2894 2895 2896 2897 2898 2899 2900 2901 2902 2903 2904 2905 2906 2907 2908 2909 2910 2911 2912 2913 2914 2915 2916
32 2241 2267 2365 2438 2587 2655 2710 2781 2917 2918 2919 2920 2921 2922 2923 2924 2925 2926 2927 2928 2929 2930 2931 2932 2933 2934 2935 2936 2937 2938 2939 2940
32 2089 2368 2392 2564 2591 2661 2736 2876 2923 2941 2942 2943 2944 2945 2946 2947 2948 2949 2950 2951 2952 2953 2954 2955 2956 2957 2958 2959 2960 2961 2962 2963
32 2116 2343 2516 2616 2690 2760 2785 2855 2964 2965 2966 2967 2968 2969 2970 2971 2972 2973 2974 2975 2976 2977 2978 2979 2980 2981 2982 2983 2984 2985 2986 2987
32 2292 2443 2518 2688 2715 2783 2833 2928 2970 2988 2989 2990 2991 2992 2993 2994 2995 2996 2997 2998 2999 3000 3001 3002 3003 3004 3005 3006 3007 3008 3009 3010
32 2320 2495 2618 2640 2763 2811 2859 2883 2977 3011 3012 3013 3014 3015 3016 3017 3018 3019 3020 3021 3022 3023 3024 3025 3026 3027 3028 3029 3030 3031 3032 3033
32 2419 2569 2642 2739 2809 2881 2904 2951 3018 3034 3035 3036 3037 3038 3039 3040 3041 3042 3043 3044 3045 3046 3047 3048 3049 3050 3051 3052 3053 3054 3055 3056
32 2471 2595 2717 2741 2836 2907 2931 2953 3000 3044 3057 3058 3059 3060 3061 3062 3063 3064 3065 3066 3067 3068 3069 3070 3071 3072 3073 3074 3075 3076 3077 3078
32 2546 2693 2766 2813 2838 2909 2975 2998 3023 3047 3068 3079 3080 3081 3082 3083 3084 3085 3086 3087 3088 3089 3090 3091 3092 3093 3094 3095 3096 3097 3098 3099
32 2670 2791 2864 2885 2933 2956 2979 3003 3027 3050 3072 3094 3100 3101 3102 3103 3104 3105 3106 3107 3108 3109 3110 3111 3112 3113 3114 3115 3116 3117 3118 3119
20 354 385 651 760 1137 1294 1347 1478 1769 1795 2183 2233 2489 2589 2634 2735 2856 2929 3048 3114
20 360 441 545 1164 1269 1295 1352 1373 1509 1535 2360 2386 2437 2490 2512 2612 2882 2932 2976 3119
20 368 494 763 955 1189 1273 1374 1431 1821 1846 2160 2185 2436 2562 2709 2733 2786 2884 3069 3116
20 364 468 654 1116 1167 1190 1427 1453 1665 1691 2237 2334 2362 2563 2608 2636 2784 2954 3024 3118
20 356 413 542 947 1110 1138 1452 1482 1609 1639 2158 2335 2384 2510 2590 2713 2860 2952 2999 3117
20 540 569 841 1002 1108 1267 1504 1635 1975 2001 2180 2230 2611 2712 2757 2830 2854 2925 3090 3111
20 552 623 958 1009 1193 1299 1534 1588 1820 2026 2184 2339 2359 2583 2664 2686 2832 2978 3064 3113
20 548 598 844 1147 1172 1194 1584 1610 1664 1872 2157 2236 2435 2483 2662 2687 2759 3001 3019 3115
20 649 678 1054 1215 1345 1425 1660 1791 1949 2154 2204 2381 2607 2734 2754 2851 2901 2948 3086 3107
20 661 732 770 1222 1378 1459 1690 1744 1845 1924 2159 2361 2488 2586 2660 2807 2903 3020 3065 3108
20 657 706 1062 1145 1169 1377 1507 1740 1768 1868 2182 2332 2385 2561 2656 2758 2808 2972 3045 3112
20 758 786 1218 1319 1428 1476 1765 1816 2125 2203 2353 2380 2633 2707 2800 2827 2872 2922 3081 3102
20 766 813 952 1296 1326 1457 1637 1793 1920 2022 2231 2383 2429 2555 2653 2831 2902 2993 3039 3109
20 839 868 1053 1397 1502 1582 1659 1738 1997 2201 2331 2480 2507 2631 2829 2848 2900 2995 3041 3106
20 847 921 1006 1407 1530 1613 1871 1945 2025 2129 2338 2434 2610 2706 2779 2805 2898 3016 3062 3104
20 849 896 1059 1114 1163 1350 1531 1687 1950 1974 2155 2179 2511 2635 2685 2782 2806 2878 3089 3110
20 948 974 1005 1270 1323 1480 1611 1842 1999 2126 2229 2354 2509 2679 2732 2776 2899 2946 3084 3105
20 1000 1027 1318 1401 1585 1633 1815 1918 1971 2200 2428 2506 2581 2729 2756 2799 2919 2966 3036 3101
20 1057 1080 1219 1402 1685 1764 1866 1922 1970 2128 2487 2560 2609 2684 2730 2826 2875 2969 3059 3100
20 1213 1240 1322 1398 1741 1789 1841 1943 1995 2021 2554 2585 2630 2678 2705 2753 2943 2990 3013 3103
20 0 32 680 788 870 1029 1056 1321 1772 1798 1978 2004 2315 2466 2638 2738 2761 2835 3051 3095
20 6 94 573 898 1004 1030 1061 1082 1512 1538 2132 2209 2290 2316 2515 2615 2810 2837 2980 3099
20 14 243 791 923 979 1008 1083 1221 1824 1849 1955 1980 2289 2415 2691 2711 2737 2812 3073 3096
20 10 157 683 852 901 924 1217 1243 1668 1694 2010 2112 2134 2416 2614 2639 2689 2908 3028 3098
20 2 63 570 843 871 975 1242 1325 1616 1642 1953 2113 2207 2467 2514 2714 2764 2906 3004 3097
20 580 630 930 987 1038 1275 1537 1717 1823 1979 2109 2131 2255 2454 2540 2787 2927 2981 3067 3092
20 576 601 881 908 931 1117 1615 1667 1713 1952 2009 2052 2284 2303 2538 2788 2858 3005 3022 3093
20 691 739 799 1090 1251 1432 1693 1848 1898 1954 2078 2133 2312 2461 2536 2879 2950 3025 3070 3087
20 687 715 878 903 1088 1353 1510 1771 1894 1977 2048 2100 2208 2406 2532 2857 2880 2974 3046 3091
20 795 820 981 1036 1249 1483 1640 1796 2002 2074 2206 2251 2277 2403 2529 2926 2949 2996 3043 3088
20 1106 1135 1344 1501 1554 1658 1710 1891 2097 2226 2300 2378 2504 2628 2751 2924 2947 2994 3040 3085
20 1111 1187 1271 1528 1564 1612 2050 2107 2150 2253 2282 2357 2604 2682 2703 2877 2945 3015 3061 3083
20 1265 1292 1475 1558 1632 1714 1814 2071 2176 2275 2377 2452 2503 2726 2824 2852 2871 2965 3035 3080
20 1348 1371 1429 1559 1684 1763 2046 2075 2175 2310 2356 2404 2603 2727 2780 2803 2921 2967 3058 3079
20 1423 1450 1479 1555 1788 1840 1895 2148 2224 2250 2401 2459 2627 2702 2774 2850 2896 2988 3012 3082
20 38 184 390 709 762 789 1064 1086 1355 1381 1933 2087 2212 2317 2389 2493 2742 2814 2886 3056
20 45 250 734 772 824 1032 1085 1404 1747 1774 1826 2029 2086 2541 2567 2588 2815 2834 3053 3075
20 41 160 664 713 735 873 1246 1400 1670 1804 1875 1906 1929 2485 2542 2565 2762 2912 3029 3054
20 34 124 387 653 681 815 1245 1328 1456 1485 1751 1907 2211 2388 2468 2593 2641 2911 2958 3055
20 398 501 741 801 827 1301 1380 1561 1773 1825 1903 1932 2258 2414 2463 2665 2887 2930 3049 3071
20 394 475 694 720 742 1140 1455 1557 1669 1750 1803 2055 2085 2309 2412 2666 2861 2959 3026 3052
20 879 928 1037 1087 1250 1589 1746 1873 1925 2027 2104 2281 2307 2410 2458 2973 2997 3021 3042 3066
20 1142 1191 1297 1375 1458 1720 1901 2053 2081 2256 2328 2432 2479 2558 2579 2971 2992 3017 3038 3063
20 1505 1532 1586 1715 1865 1969 2045 2174 2278 2305 2430 2478 2530 2654 2801 2823 2873 2918 3034 3057
20 1580 1607 1636 1711 1994 2020 2101 2223 2249 2326 2456 2527 2578 2651 2750 2847 2894 2941 3011 3037
20 70 270 418 607 854 927 951 977 1121 1197 2011 2036 2115 2240 2265 2345 2694 2718 2792 3010
20 79 253 628 825 926 960 1247 1409 1591 1618 1851 1927 2263 2441 2543 2592 2692 2905 3006 3076
20 72 103 556 606 629 875 1035 1406 1518 1648 1725 1877 2031 2337 2439 2544 2765 2840 2985 3008
20 65 213 415 544 572 818 1034 1304 1330 1487 1597 1726 2006 2235 2469 2517 2594 2841 2937 3009
20 426 504 634 828 988 1196 1460 1566 1617 1722 1850 2032 2083 2288 2465 2667 2789 2955 3002 3074
20 422 450 586 611 635 1148 1303 1517 1563 1596 1647 2057 2106 2260 2286 2668 2862 2935 2983 3007
20 1661 1688 1742 1869 1896 1944 2049 2102 2149 2327 2407 2533 2556 2657 2680 2777 2895 2942 2989 3060
20 1736 1766 1792 1892 1917 2072 2199 2304 2376 2455 2477 2526 2577 2650 2749 2822 2846 2917 2964 2991
20 101 276 446 636 900 933 1015 1166 1199 1282 1882 1987 2062 2192 2294 2445 2619 2696 2794 2986
20 106 167 605 714 932 1091 1173 1411 1540 1595 1696 1753 2060 2341 2492 2545 2695 2816 2984 3031
20 96 299 443 547 575 711 876 1066 1149 1357 1598 1727 1982 2187 2318 2494 2519 2768 2866 2987
20 454 480 610 721 909 1198 1382 1539 1568 1695 1724 1878 1905 2111 2314 2669 2793 2888 2982 3030
20 1817 1843 1921 2023 2076 2127 2252 2279 2355 2408 2431 2534 2557 2658 2681 2778 2802 2874 2968 3014
20 131 328 420 478 666 738 817 954 1151 1201 1805 1856 1911 2168 2243 2266 2570 2597 2671 2963
20 133 247 499 737 957 980 1224 1248 1434 1461 2033 2136 2264 2364 2417 2568 2716 2910 2957 3077
20 136 189 373 474 500 686 794 1226 1362 1492 1569 1698 1853 2162 2366 2421 2644 2743 2891 2962
20 127 214 359 388 416 793 984 1280 1332 1440 1570 1644 1800 2239 2391 2470 2719 2744 2938 2961
20 402 428 453 482 506 1124 1279 1360 1439 1490 1719 1900 2059 2080 2262 2790 2863 2889 2936 2960
20 1946 1972 1998 2098 2123 2202 2274 2301 2400 2451 2502 2602 2626 2701 2725 2773 2849 2870 2920 2944
20 163 190 473 743 902 1092 1168 1228 1383 1438 1879 1959 2061 2164 2418 2571 2617 2817 2890 3032
20 156 303 469 597 656 684 846 874 1119 1141 1754 1908 1960 2114 2165 2342 2643 2767 2865 3033
20 195 332 448 507 710 744 774 1171 1202 1308 1701 1781 2063 2092 2194 2370 2497 2572 2672 2893
20 187 300 363 391 444 685 906 1068 1125 1441 1514 1571 1776 2189 2319 2393 2620 2646 2867 2892
20 224 331 392 449 555 626 769 819 1154 1385 1649 1728 1831 2091 2193 2394 2444 2596 2673 2940
20 217 244 495 624 765 792 1011 1033 1276 1302 1934 2088 2139 2291 2367 2442 2740 2839 2934 3078
20 221 275 371 447 497 584 985 1013 1126 1491 1542 1572 1828 2191 2295 2369 2520 2720 2795 2939
20 77 140 173 521 696 746 823 886 935 983 1757 1808 1859 1963 2014 2039 2420 2473 2547 2916
20 19 138 166 191 249 668 776 1071 1335 1412 1436 1700 1855 1957 2138 2573 2645 2745 2819 2915
20 5 36 67 128 216 775 963 1016 1230 1413 1489 1646 1802 2008 2214 2598 2721 2746 2843 2914
20 50 82 108 169 255 857 1017 1069 1229 1333 1593 1749 1881 1931 2035 2697 2769 2818 2842 2913
20 2151 2177 2227 2329 2351 2379 2426 2481 2505 2552 2580 2605 2629 2676 2704 2728 2752 2798 2825 2897
20 279 337 479 508 608 637 962 1175 1386 1465 1543 1623 2066 2169 2270 2346 2371 2447 2674 2796
20 272 305 367 419 471 585 856 907 1283 1361 1573 1622 1672 2118 2167 2242 2521 2621 2797 2868
20 111 198 259 525 718 747 803 905 936 1043 1704 1783 1885 1939 1989 2142 2322 2422 2548 2821
20 9 40 98 188 302 667 858 1176 1231 1359 1414 1516 1778 1984 2216 2498 2622 2647 2770 2820
20 308 327 393 421 551 600 660 712 1309 1466 1519 1675 1731 1912 2244 2344 2395 2496 2675 2869
20 52 112 230 523 583 632 798 826 889 1094 1601 1650 1834 1937 1988 2217 2293 2472 2549 2845
20 17 102 222 246 277 558 859 964 1278 1334 1415 1545 1830 1986 2141 2446 2522 2698 2722 2844
20 174 260 288 527 612 638 911 991 1097 1256 1548 1627 1887 1964 2041 2119 2144 2297 2550 2700
20 13 71 159 274 306 559 1019 1070 1123 1177 1416 1625 1674 1962 2013 2347 2523 2623 2699 2771
20 53 78 314 520 579 603 690 719 1047 1257 1520 1602 1678 1758 2015 2117 2218 2321 2551 2772
20 21 199 231 401 503 524 700 989 1041 1099 1444 1493 1782 1835 2090 2143 2219 2423 2474 2748
20 48 196 226 252 333 374 672 965 1232 1306 1336 1390 1780 1833 1936 2372 2396 2574 2599 2747
20 175 261 343 485 511 531 723 830 1101 1260 1392 1470 1706 1759 1861 1913 1940 2094 2425 2576
20 44 132 162 310 330 375 778 1072 1153 1178 1233 1469 1677 1756 1807 2170 2397 2499 2575 2648
20 22 141 315 397 477 522 805 884 912 1259 1365 1445 1679 1809 1910 1965 2220 2323 2424 2649
20 24 146 289 431 510 528 590 804 938 1253 1286 1496 1626 1860 2016 2145 2268 2296 2475 2724
20 84 143 257 282 339 377 560 777 1018 1204 1337 1463 1620 1858 2038 2245 2373 2448 2600 2723
20 118 262 348 462 514 535 616 832 942 1048 1208 1313 1551 1603 1732 1836 2042 2271 2299 2450
20 75 105 228 312 336 376 861 966 1022 1156 1179 1311 1522 1600 1652 2196 2246 2349 2449 2524
20 23 234 318 425 452 526 888 913 992 1045 1130 1287 1523 1653 1730 1991 2017 2121 2298 2525
20 25 206 292 460 484 530 591 697 940 1096 1129 1366 1549 1705 1966 1990 2065 2120 2324 2625
20 114 171 203 286 341 378 564 669 860 1073 1206 1388 1547 1703 1884 2171 2195 2348 2500 2624
20 54 85 344 406 434 532 640 749 1046 1254 1312 1467 1654 1810 1938 2040 2093 2269 2476 2601
20 89 178 350 435 488 537 642 726 891 941 1158 1207 1604 1629 1680 1734 1888 2068 2122 2350
20 208 265 293 463 489 538 644 753 808 994 1210 1288 1394 1446 1577 1837 1862 2095 2272 2375
20 145 201 233 284 317 561 673 781 967 1128 1180 1285 1364 1443 1495 2172 2197 2247 2374 2398
20 57 237 321 433 458 529 699 724 807 833 1159 1314 1367 1497 1575 1785 1811 1915 2096 2399
20 58 117 347 408 461 534 614 751 890 1100 1157 1391 1524 1760 1784 1886 1914 2067 2325 2501
20 151 180 295 436 515 539 619 701 752 915 1131 1209 1447 1472 1579 1681 1707 1916 2069 2173
20 120 181 210 296 352 516 646 755 782 944 969 1023 1103 1236 1420 1838 1863 1941 2043 2146
20 148 205 236 291 320 593 702 809 863 916 996 1021 1075 1235 1339 1967 1992 2018 2147 2221
20 88 149 323 405 487 533 589 617 834 995 1132 1160 1471 1498 1576 1628 1655 1733 2248 2273
20 87 116 238 322 345 409 671 727 780 835 892 1049 1076 1340 1418 1761 1786 1812 1942 2222
20 119 207 239 407 513 536 592 643 728 917 1289 1315 1368 1393 1525 1550 1578 1735 2070 2198
20 91 152 266 297 353 491 620 674 754 864 943 1182 1237 1262 1422 1682 1708 1762 1889 1968
20 56 150 177 324 349 437 563 618 836 865 893 970 1261 1341 1419 1605 1630 1656 2019 2044
20 59 209 240 264 351 464 565 645 729 1024 1050 1077 1102 1183 1421 1526 1552 1606 1890 1993
20 27 90 179 294 325 380 438 490 675 703 971 997 1238 1263 1342 1448 1473 1499 1813 1864
20 28 121 241 267 298 381 465 517 784 811 918 1078 1104 1184 1239 1369 1395 1449 1709 1787
20 29 60 122 211 326 382 410 466 566 594 783 810 1025 1051 1290 1316 1343 1500 1657 1839
20 30 153 182 212 268 383 492 518 866 919 945 972 998 1026 1133 1185 1211 1291 1553 1631
20 31 61 92 154 242 384 411 439 568 595 677 704 867 894 1079 1134 1161 1370 1527 1683
20 62 93 123 183 269 567 621 647 676 730 756 785 837 973 1162 1186 1212 1317 1396 1474
20 412 440 467 493 519 596 622 648 705 731 757 812 838 895 920 946 999 1052 1105 1264
