# Generated using Miratope v0.5.0 (https://github.com/galoomba1/miratope-rs)
4OFF

# Vertices, Faces, Edges, Cells
120 2520 1200 720

# Vertices
0.809016994374945 -0.809016994374945 -0.809016994374945 0.809016994374945 
0 -1.61803398874989 0 0 
0 0 -1.61803398874989 0 
-0.5 0 -1.30901699437495 0.809016994374945 
-0.809016994374945 -0.809016994374945 -0.809016994374945 -0.809016994374945 
-0.809016994374945 -1.30901699437495 0 0.5 
-1.30901699437495 -0.809016994374945 -0.5 0 
0 -0.5 -0.809016994374945 1.30901699437495 
0.809016994374945 -0.5 -1.30901699437495 0 
0 -1.30901699437495 -0.5 -0.809016994374945 
0.809016994374945 0.809016994374945 -0.809016994374945 0.809016994374945 
-0.809016994374945 0.809016994374945 -0.809016994374945 0.809016994374945 
-0.5 0.809016994374945 0 1.30901699437495 
-0.809016994374945 -0.809016994374945 -0.809016994374945 0.809016994374945 
-0.5 -0.809016994374945 0 1.30901699437495 
0.5 0.809016994374945 0 1.30901699437495 
0.5 -0.809016994374945 0 1.30901699437495 
0 0.809016994374945 -1.30901699437495 0.5 
0 -0.809016994374945 -1.30901699437495 0.5 
-0.809016994374945 -0.809016994374945 0.809016994374945 0.809016994374945 
-0.809016994374945 -0.809016994374945 0.809016994374945 -0.809016994374945 
-1.30901699437495 0 0.809016994374945 -0.5 
-1.30901699437495 0 0.809016994374945 0.5 
-1.30901699437495 0 -0.809016994374945 -0.5 
-1.30901699437495 0 -0.809016994374945 0.5 
-0.5 -1.30901699437495 0.809016994374945 0 
-0.5 -1.30901699437495 -0.809016994374945 0 
0.809016994374945 0.809016994374945 -0.809016994374945 -0.809016994374945 
0.809016994374945 -0.809016994374945 -0.809016994374945 -0.809016994374945 
-0.809016994374945 0.809016994374945 -0.809016994374945 -0.809016994374945 
0.809016994374945 0.5 -1.30901699437495 0 
-0.809016994374945 -0.5 -1.30901699437495 0 
-0.809016994374945 0.5 -1.30901699437495 0 
0.809016994374945 0 -0.5 -1.30901699437495 
-0.809016994374945 0 -0.5 -1.30901699437495 
0.809016994374945 -0.809016994374945 0.809016994374945 0.809016994374945 
0.809016994374945 -0.809016994374945 0.809016994374945 -0.809016994374945 
0 -1.30901699437495 -0.5 0.809016994374945 
0 -1.30901699437495 0.5 0.809016994374945 
0 -1.30901699437495 0.5 -0.809016994374945 
1.30901699437495 -0.5 0 0.809016994374945 
1.30901699437495 -0.5 0 -0.809016994374945 
0 0 0 1.61803398874989 
-1.61803398874989 0 0 0 
-1.30901699437495 0.809016994374945 0.5 0 
0 0.5 0.809016994374945 1.30901699437495 
-0.5 0 1.30901699437495 0.809016994374945 
-0.809016994374945 1.30901699437495 0 0.5 
-0.809016994374945 0.809016994374945 0.809016994374945 -0.809016994374945 
0 0 0 -1.61803398874989 
-1.30901699437495 0.809016994374945 -0.5 0 
0 0.5 -0.809016994374945 -1.30901699437495 
-0.809016994374945 1.30901699437495 0 -0.5 
-0.5 0 -1.30901699437495 -0.809016994374945 
-0.5 -0.809016994374945 0 -1.30901699437495 
0 1.61803398874989 0 0 
0.809016994374945 1.30901699437495 0 0.5 
0.5 0 -1.30901699437495 0.809016994374945 
1.30901699437495 0.809016994374945 -0.5 0 
0 0.5 -0.809016994374945 1.30901699437495 
0 1.30901699437495 -0.5 -0.809016994374945 
0.809016994374945 0.809016994374945 0.809016994374945 0.809016994374945 
1.61803398874989 0 0 0 
0 -0.5 0.809016994374945 1.30901699437495 
1.30901699437495 -0.809016994374945 0.5 0 
0.809016994374945 -1.30901699437495 0 0.5 
0.5 0 1.30901699437495 0.809016994374945 
1.30901699437495 0 -0.809016994374945 0.5 
0 0 1.61803398874989 0 
-0.5 0 1.30901699437495 -0.809016994374945 
-0.809016994374945 -1.30901699437495 0 -0.5 
0 -0.5 0.809016994374945 -1.30901699437495 
-1.30901699437495 -0.809016994374945 0.5 0 
0.809016994374945 -0.5 1.30901699437495 0 
0 -0.5 -0.809016994374945 -1.30901699437495 
1.30901699437495 -0.809016994374945 -0.5 0 
0.809016994374945 -1.30901699437495 0 -0.5 
0.5 0 -1.30901699437495 -0.809016994374945 
1.30901699437495 0 0.809016994374945 -0.5 
0.5 0.809016994374945 0 -1.30901699437495 
-0.809016994374945 0.809016994374945 0.809016994374945 0.809016994374945 
0 1.30901699437495 -0.5 0.809016994374945 
0 1.30901699437495 0.5 0.809016994374945 
0 1.30901699437495 0.5 -0.809016994374945 
-1.30901699437495 0.5 0 0.809016994374945 
-1.30901699437495 0.5 0 -0.809016994374945 
0.809016994374945 0.5 1.30901699437495 0 
-0.809016994374945 -0.5 1.30901699437495 0 
-0.809016994374945 0.5 1.30901699437495 0 
0.809016994374945 0 0.5 1.30901699437495 
-0.809016994374945 0 0.5 1.30901699437495 
0.809016994374945 0.809016994374945 0.809016994374945 -0.809016994374945 
1.30901699437495 0 0.809016994374945 0.5 
1.30901699437495 0 -0.809016994374945 -0.5 
0.5 1.30901699437495 0.809016994374945 0 
0.5 1.30901699437495 -0.809016994374945 0 
-0.5 0.809016994374945 0 -1.30901699437495 
0.5 -0.809016994374945 0 -1.30901699437495 
0 0.809016994374945 1.30901699437495 -0.5 
0 -0.809016994374945 1.30901699437495 -0.5 
0.809016994374945 1.30901699437495 0 -0.5 
0.5 0 1.30901699437495 -0.809016994374945 
1.30901699437495 0.809016994374945 0.5 0 
0 0.5 0.809016994374945 -1.30901699437495 
-0.809016994374945 0 -0.5 1.30901699437495 
-0.5 1.30901699437495 -0.809016994374945 0 
-1.30901699437495 -0.5 0 0.809016994374945 
0 -0.809016994374945 1.30901699437495 0.5 
0.809016994374945 0 -0.5 1.30901699437495 
0.5 -1.30901699437495 -0.809016994374945 0 
0 -0.809016994374945 -1.30901699437495 -0.5 
-1.30901699437495 -0.5 0 -0.809016994374945 
0.809016994374945 0 0.5 -1.30901699437495 
0.5 -1.30901699437495 0.809016994374945 0 
0 0.809016994374945 -1.30901699437495 -0.5 
1.30901699437495 0.5 0 -0.809016994374945 
-0.5 1.30901699437495 0.809016994374945 0 
-0.809016994374945 0 0.5 -1.30901699437495 
0 0.809016994374945 1.30901699437495 0.5 
1.30901699437495 0.5 0 0.809016994374945 

# Faces
4 1 4 2 0
4 0 1 6 3
5 2 0 3 8 7
5 4 5 9 6 1
4 4 2 7 5
4 7 5 9 8
4 8 9 6 3
4 0 13 11 10
4 0 14 12 10
5 10 12 17 15 11
5 0 13 16 18 14
4 11 13 16 15
4 15 16 18 17
4 12 14 18 17
4 20 4 13 19
5 20 22 25 21 19
4 13 19 21 23
4 20 4 24 22
5 4 24 26 23 13
4 25 26 24 22
4 25 26 23 21
4 27 29 4 28
5 27 28 30 33 8
4 27 8 31 29
4 4 32 30 28
5 32 4 29 31 34
4 30 32 34 33
4 33 8 31 34
4 35 0 28 36
5 0 35 37 40 38
4 36 9 37 35
4 0 38 39 28
5 36 9 41 39 28
4 41 39 38 40
4 41 40 37 9
4 11 42 19 43
4 42 11 44 46
5 43 47 24 44 11
5 42 46 14 45 19
4 19 43 47 45
4 45 47 24 14
4 46 14 24 44
4 43 4 49 48
5 43 52 21 50 48
4 48 50 53 49
4 4 43 52 51
5 49 53 54 51 4
4 21 52 51 54
4 50 21 54 53
4 27 55 11 2
5 56 27 55 58 60
4 2 59 56 27
4 11 55 58 57
5 59 2 11 57 32
4 56 59 32 60
4 58 60 32 57
4 62 0 42 61
4 61 63 65 62
5 66 42 61 63 15
5 62 0 64 67 65
4 42 66 64 0
4 66 64 67 15
4 63 65 67 15
4 36 1 19 68
5 36 69 73 71 68
4 36 1 72 69
4 19 68 71 70
5 1 72 38 70 19
4 73 69 72 38
4 73 71 70 38
4 27 49 36 62
4 27 74 76 62
5 49 27 74 79 77
5 62 76 78 75 36
4 36 49 77 75
4 75 77 79 78
4 78 79 74 76
4 80 48 29 11
4 80 81 60 48
5 80 81 84 82 11
5 29 48 60 85 83
4 11 82 83 29
4 82 83 85 84
4 60 85 84 81
4 61 35 19 80
5 61 73 89 86 35
4 61 80 87 73
4 35 86 88 19
5 88 19 80 87 90
4 89 86 88 90
4 89 90 87 73
4 91 27 10 61
5 61 78 94 92 91
4 10 61 78 93
4 27 67 92 91
5 10 93 95 67 27
4 92 67 95 94
4 94 78 93 95
4 91 48 20 36
4 36 91 96 54
5 79 48 91 96 98
5 36 54 99 97 20
4 20 97 79 48
4 99 98 79 97
4 99 54 96 98
4 61 55 48 68
5 55 102 82 100 61
4 68 103 100 61
4 55 102 101 48
5 68 103 88 101 48
4 102 101 88 82
4 100 82 88 103
4 43 29 2 13
4 43 104 17 29
5 2 105 53 17 29
5 43 104 6 84 13
4 13 84 105 2
4 104 17 53 6
4 84 6 53 105
4 42 35 1 13
4 42 35 25 106
5 1 107 65 25 35
5 42 106 7 90 13
4 13 1 107 90
4 90 107 65 7
4 7 106 25 65
4 10 62 28 2
5 62 10 40 58 108
4 2 109 40 10
4 62 108 18 28
5 2 28 18 77 109
4 40 109 77 58
4 108 58 77 18
4 28 49 20 1
5 28 1 110 76 26
4 28 49 111 26
4 1 110 34 20
5 20 34 71 111 49
4 76 71 111 26
4 71 34 110 76
4 91 62 35 68
5 41 91 62 112 102
4 91 41 113 68
4 35 99 112 62
5 99 35 68 113 66
4 102 66 113 41
4 102 66 99 112
4 91 49 29 55
4 91 33 114 55
5 91 49 115 103 33
5 29 95 52 114 55
4 29 95 115 49
4 115 95 52 103
4 52 114 33 103
4 80 68 20 43
5 68 116 46 98 80
4 80 98 117 43
4 20 85 116 68
5 85 20 43 117 72
4 116 85 72 46
4 98 46 72 117
4 55 80 42 10
4 10 55 118 89
5 42 10 89 59 119
5 55 80 94 47 118
4 42 119 94 80
4 119 59 47 94
4 118 89 59 47
4 11 2 26 106
4 57 37 106 11
4 2 59 14 26
4 59 14 6 32
5 14 6 37 106 26
4 37 57 32 6
4 5 18 32 43
5 5 111 106 70 43
4 43 70 110 32
4 106 111 53 3
4 3 110 70 106
5 3 110 32 18 53
4 18 53 111 5
4 13 4 77 57
4 13 57 114 23
4 4 24 17 77
5 8 114 57 77 17
4 24 17 8 26
4 114 23 26 8
4 1 19 104 18
4 104 19 70 31
4 1 72 24 18
5 24 18 104 31 7
4 38 7 24 72
4 38 70 31 7
4 59 67 109 13
4 59 30 110 13
5 31 109 13 110 37
5 59 30 108 17 67
4 108 37 110 30
4 108 37 31 17
4 67 109 31 17
4 2 28 54 23
4 28 54 6 18
4 109 2 23 70
4 109 77 34 70
4 77 34 6 18
5 6 34 70 23 54
4 42 57 109 38
5 108 3 42 57 104
4 42 38 26 3
4 108 104 5 65
4 108 3 26 65
4 57 104 5 109
5 65 5 109 38 26
4 13 72 39 109
4 13 72 54 110
4 25 37 31 111
4 37 110 54 25
5 72 54 25 111 39
4 109 31 111 39
5 30 0 93 57 75
4 93 0 26 74
4 30 0 26 53
4 30 75 9 53
4 75 9 31 57
4 93 74 31 57
5 26 74 31 9 53
4 0 76 70 13
4 14 0 76 25
4 13 70 113 16
4 113 16 18 9
4 14 25 9 18
5 70 76 25 9 113
4 1 16 67 28
4 28 26 7 67
4 1 16 57 110
5 40 57 16 67 7
4 40 76 26 7
4 57 110 76 40
5 39 4 97 70 74
4 4 97 75 18
4 39 65 18 4
4 75 37 70 97
5 75 18 65 8 37
4 65 39 74 8
4 37 8 74 70
4 90 11 23 72
4 11 31 5 90
5 11 23 3 50 31
5 90 5 22 14 72
4 14 22 50 3
4 14 72 23 3
4 22 50 31 5
4 24 2 51 85
4 2 74 111 24
5 114 74 2 51 110
4 114 110 6 50
4 114 74 111 50
5 24 111 50 6 85
4 51 85 6 110
4 24 105 10 7
5 81 114 10 105 30
4 10 7 31 114
4 104 81 30 18
4 31 114 81 104
4 24 105 30 18
4 19 84 59 16
5 37 19 16 5 63
4 19 84 3 37
4 12 63 37 3
4 63 5 24 12
5 84 3 12 24 59
4 59 16 5 24
4 53 27 10 3
4 93 110 3 10
4 18 67 27 53
4 95 32 18 67
4 93 110 32 95
4 20 9 31 43
4 85 53 9 20
4 74 117 43 31
4 85 53 26 72
4 74 117 72 26
5 1 75 113 109 64
4 1 14 89 64
4 1 75 108 14
4 64 109 7 89
5 89 14 108 63 7
4 108 75 113 63
4 7 63 113 109
4 36 65 5 20
4 65 36 54 26
4 20 5 109 97
4 38 99 97 109
4 26 54 99 38
4 0 62 33 110
4 64 97 110 0
4 62 65 9 33
4 67 77 97 64
4 67 65 9 77
5 33 110 97 77 9
5 20 113 87 39 107
4 20 6 14 107
4 6 20 113 37
4 107 14 26 39
4 113 37 106 87
4 106 87 39 26
4 10 8 37 42
4 65 89 10 8
4 119 75 37 42
4 119 75 18 59
4 18 59 89 65
4 4 49 41 109
4 109 4 51 93
4 41 49 53 8
5 93 109 41 8 76
4 51 93 76 54
4 54 76 8 53
4 11 23 51 95
4 31 77 95 11
5 60 77 95 51 30
4 3 30 60 50
4 60 50 31 77
4 23 51 30 3
4 13 42 81 32
4 13 32 47 90
4 42 81 50 106
5 47 32 81 50 17
4 90 47 17 7
4 106 50 17 7
4 4 72 44 29
4 31 106 44 29
4 4 32 84 72
5 106 21 84 72 44
4 21 34 32 84
4 34 21 106 31
4 19 99 64 16
4 37 76 99 19
4 37 76 73 63
4 73 63 5 39
5 76 99 64 39 73
4 16 64 39 5
5 119 16 92 108 35
4 76 35 119 93
4 35 76 8 108
4 109 16 119 93
4 41 92 108 8
4 92 41 109 16
4 1 54 112 64
4 75 1 54 33
4 112 64 109 74
4 113 71 33 75
5 71 74 112 54 33
4 109 74 71 113
4 43 87 38 13
4 13 38 46 84
4 43 104 63 87
4 84 6 25 46
5 46 38 87 63 25
4 104 6 25 63
4 97 117 29 77
5 111 29 117 23 96
4 77 29 111 9
4 33 9 111 96
4 96 33 110 23
4 117 97 110 23
4 0 2 95 119
4 119 0 3 81
4 2 7 15 95
5 81 58 15 95 119
4 58 8 7 15
4 8 58 81 3
4 0 35 45 59
4 35 37 104 45
4 0 59 90 38
4 15 40 38 90
4 40 15 104 37
5 15 90 59 45 104
4 67 2 51 115
4 2 67 41 74
5 58 75 115 67 41
4 110 75 58 114
4 114 58 41 74
4 110 75 115 51
4 1 99 117 4
4 4 5 87 117
4 1 6 21 99
4 87 5 9 71
5 71 21 99 117 87
4 21 6 9 71
4 11 114 34 43
4 11 114 96 44
4 47 43 34 60
4 60 47 24 53
5 34 114 96 53 60
4 44 24 53 96
4 12 55 29 24
4 59 95 29 24
4 55 12 3 114
4 95 59 84 52
4 52 84 3 114
4 80 52 32 104
4 80 52 23 106
5 12 106 80 104 22
4 105 85 22 12
4 105 23 106 12
5 32 85 105 23 52
4 22 85 32 104
4 42 40 113 19
4 19 113 92 45
4 46 73 40 42
4 45 92 65 14
5 92 65 73 40 113
4 46 73 65 14
4 27 102 64 28
4 27 8 40 102
4 30 119 64 28
5 119 64 102 40 78
4 78 33 30 119
4 40 8 33 78
5 49 101 117 112 69
4 49 9 113 101
4 49 9 25 69
4 113 101 117 70
4 69 25 76 112
4 76 70 117 112
4 68 22 14 35
4 14 35 99 72
4 22 68 113 5
4 99 72 90 66
4 113 5 90 66
4 28 51 103 36
4 36 9 34 103
4 39 117 51 28
4 41 79 117 39
4 9 34 79 41
5 117 51 103 34 79
4 93 102 89 0
4 0 89 56 30
5 102 15 92 56 89
4 93 102 15 57
4 75 92 56 30
4 75 92 15 57
4 80 66 16 104
4 66 80 106 38
4 12 89 107 22
4 12 89 38 106
5 89 38 66 16 107
4 107 22 104 16
5 100 62 56 115 119
4 17 56 62 8
4 114 100 62 8
4 119 57 114 100
4 77 115 119 57
4 77 115 56 17
4 97 103 85 4
4 39 69 85 4
5 96 21 103 85 69
4 96 74 39 69
4 103 97 70 21
4 70 21 96 74
4 62 89 107 36
4 107 36 75 16
4 76 38 89 62
4 75 16 66 78
4 76 38 66 78
4 1 97 78 35
4 25 71 78 35
4 107 101 97 1
5 41 71 78 97 101
4 101 107 65 41
4 25 71 41 65
4 28 65 92 115
5 115 28 112 93 97
4 28 65 73 112
4 92 113 97 115
4 73 40 93 112
4 113 97 93 40
4 27 105 85 49
4 27 105 23 74
4 32 77 49 85
4 79 52 32 77
4 74 23 52 79
4 80 50 6 19
4 111 87 80 50
4 85 88 19 6
4 85 88 90 24
4 90 24 111 87
4 42 82 95 57
4 42 3 105 82
4 104 47 56 108
4 108 3 105 56
5 47 95 82 105 56
4 47 104 57 95
4 29 2 93 79
4 17 58 79 29
4 2 105 100 93
5 93 79 58 33 100
4 58 17 53 33
4 105 100 33 53
4 80 63 7 11
4 80 63 108 81
4 89 82 11 7
4 82 89 14 84
4 84 14 108 81
5 48 22 69 44 87
4 70 87 48 34
4 22 6 34 48
4 70 87 44 23
4 44 23 54 69
4 22 6 54 69
4 53 28 115 60
4 28 53 96 112
4 115 60 34 97
4 93 114 96 112
4 34 97 93 114
4 43 5 107 88
4 70 99 88 43
5 69 107 88 99 46
4 106 46 69 111
4 106 46 99 70
4 69 111 5 107
4 7 12 61 40
4 40 61 81 57
5 61 81 45 56 12
4 56 67 16 45
4 56 67 7 12
4 81 57 16 45
5 92 36 86 64 101
4 25 36 92 63
4 86 46 25 36
4 87 101 92 63
4 46 38 64 86
4 87 101 64 38
4 91 73 39 49
4 33 76 73 91
4 39 49 115 64
4 115 64 99 103
4 33 76 99 103
4 35 75 58 61
4 61 58 41 73
4 75 35 86 115
4 115 86 89 67
4 89 67 41 73
4 47 83 27 17
5 96 27 83 51 100
4 17 50 96 27
4 100 81 50 96
4 81 32 51 100
4 32 51 83 47
4 117 88 47 29
4 29 47 22 111
5 84 88 47 22 116
4 116 96 23 84
4 116 96 111 22
4 84 23 117 88
4 15 90 44 55
4 15 104 50 55
5 105 44 55 50 116
4 45 116 105 59
4 45 104 50 116
4 90 44 105 59
4 60 91 62 30
4 60 91 41 77
4 112 51 30 62
4 102 95 77 41
4 95 102 112 51
4 119 82 46 35
4 108 12 46 35
4 119 16 90 82
4 92 108 12 118
4 92 118 90 16
5 46 12 118 90 82
4 25 68 48 111
4 111 48 101 39
4 103 54 25 68
4 72 88 101 39
4 72 88 103 54
4 48 71 74 29
4 60 33 71 48
4 74 29 83 112
4 112 83 85 54
4 60 33 54 85
5 68 63 118 107 45
4 68 21 84 45
4 106 63 68 21
4 118 44 106 63
4 118 44 72 107
4 84 45 107 72
4 61 108 17 55
4 61 108 30 100
4 102 67 17 55
4 102 67 59 82
4 100 30 59 82
4 58 92 36 33
4 100 86 36 33
4 92 58 79 101
4 100 86 64 93
4 101 79 93 64
4 78 68 45 119
4 63 40 78 68
4 118 102 40 63
4 64 107 118 102
4 107 64 119 45
4 20 107 86 103
4 20 103 78 113
4 107 39 112 86
5 86 112 98 78 103
4 98 87 113 78
4 87 39 112 98
4 83 101 41 27
4 27 41 71 96
4 71 96 100 78
4 51 97 78 100
4 97 51 83 101
4 20 101 66 19
4 21 98 66 19
4 22 118 101 20
5 98 73 118 101 66
4 22 118 73 25
4 98 21 25 73
4 10 82 86 62
4 40 66 82 10
4 62 108 45 86
5 86 82 66 94 45
4 94 58 40 66
4 58 94 45 108
4 55 79 117 44
4 34 50 55 79
4 103 116 105 51
4 116 103 34 50
4 44 117 51 105
4 10 100 52 11
4 10 100 116 12
4 15 11 52 94
4 94 15 17 60
5 116 60 94 52 100
4 116 12 17 60
4 48 118 90 43
4 118 48 50 12
4 90 43 52 82
4 21 46 82 52
4 46 21 50 12
4 10 102 83 105
4 10 102 79 114
5 115 83 102 79 94
4 81 94 115 30
4 81 114 79 94
4 83 105 30 115
4 20 49 83 88
4 20 88 52 34
4 83 49 111 44
5 83 44 98 52 88
4 34 52 98 71
4 98 71 111 44
4 116 61 42 84
4 63 22 116 61
4 88 66 42 84
4 66 88 47 15
4 15 47 22 63
4 94 68 36 115
4 115 36 69 83
4 71 79 94 68
4 83 69 73 102
4 102 73 71 79
4 62 73 118 56
4 73 62 100 98
4 66 119 100 98
4 115 101 66 119
4 118 56 115 101
4 61 46 69 91
4 46 61 78 99
4 92 107 69 91
4 94 88 107 92
4 94 88 99 78
4 98 55 27 112
4 86 56 27 112
4 78 58 55 98
4 56 86 103 60
4 60 103 78 58
5 116 91 118 83 86
4 118 87 71 91
4 91 71 21 116
4 86 99 21 116
4 86 99 117 83
4 117 83 118 87
4 68 92 15 80
4 102 98 80 15
4 68 92 56 116
4 98 102 89 46
4 46 89 56 116
4 60 49 101 94
4 49 60 116 69
4 117 52 94 101
4 116 69 112 100
4 117 52 100 112
4 118 15 58 91
4 91 58 81 116
4 119 86 116 81
4 83 95 119 86
4 15 118 83 95
4 48 94 66 87
4 48 94 45 22
4 82 44 69 86
4 69 86 45 22
4 87 66 82 44
4 47 48 91 56
4 105 96 91 56
4 47 48 79 95
4 82 98 79 95
4 82 98 96 105
4 21 80 55 96
4 103 94 80 21
4 69 118 55 96
4 47 85 103 94
4 118 69 85 47
4 44 12 61 98
4 61 98 52 81
4 56 83 88 45
4 56 83 44 12
4 88 45 81 52
5 75 1 0 76 37
4 2 74 76 0
4 1 75 77 4
5 4 2 74 31 77
4 75 37 31 77
4 76 37 31 74
5 0 30 108 8 10
4 8 10 11 31
4 13 32 30 0
5 13 32 104 31 11
4 32 104 108 30
4 104 31 8 108
4 9 20 19 37
5 19 37 106 38 13
5 20 9 111 39 4
4 4 39 38 13
4 106 38 39 111
4 9 111 106 37
4 27 96 54 28
5 29 79 114 96 27
5 54 28 4 97 110
4 79 29 4 97
4 79 114 110 97
4 54 110 114 96
4 35 78 93 0
5 36 92 113 78 35
5 109 93 0 28 67
4 36 92 67 28
4 92 113 109 67
4 78 113 109 93
5 11 7 12 3 42
4 5 43 11 7
4 42 3 6 19
5 5 43 19 6 22
4 22 5 7 12
4 12 3 6 22
4 43 70 71 48
5 48 71 96 69 49
5 70 43 4 72 23
4 72 4 49 69
4 72 23 96 69
4 23 70 71 96
4 53 27 55 50
5 2 51 30 53 27
5 11 52 81 50 55
4 11 52 51 2
4 52 81 30 51
4 53 50 81 30
5 92 58 61 62 56
4 61 58 57 42
4 56 62 0 59
5 16 57 42 0 59
4 16 59 56 92
4 57 16 92 58
4 65 36 68 63
5 1 64 39 65 36
5 63 68 19 66 87
4 1 64 66 19
4 64 39 87 66
4 65 63 87 39
5 102 27 62 100 93
4 101 49 27 102
4 62 100 103 36
5 49 101 97 103 36
4 101 97 93 102
4 97 103 100 93
5 22 48 80 21 116
4 80 21 23 11
4 48 22 24 29
5 24 29 11 23 105
4 24 22 116 105
4 21 116 105 23
4 61 12 14 35
5 61 80 15 118 12
5 35 14 107 16 19
4 19 16 15 80
4 16 107 118 15
4 14 12 118 107
4 61 81 60 91
5 61 81 119 82 10
5 91 60 115 83 27
4 83 27 10 82
4 83 115 119 82
4 60 115 119 81
5 36 91 73 112 86
4 48 87 73 91
4 36 86 88 20
5 87 48 20 88 117
4 112 86 88 117
4 87 73 112 117
4 46 61 55 44
5 68 61 46 86 45
5 55 48 47 83 44
4 47 48 68 45
4 45 47 83 86
4 46 44 83 86
5 111 29 43 34 50
4 2 26 111 29
4 43 34 110 13
5 13 110 3 26 2
4 26 3 50 111
4 110 3 50 34
5 63 40 42 35 108
4 18 1 35 108
4 40 42 13 109
5 13 1 18 5 109
4 40 63 5 109
4 18 108 63 5
4 62 33 114 10
5 114 10 2 95 57
5 75 33 62 28 115
4 28 115 95 2
4 75 115 95 57
4 114 33 75 57
4 112 28 1 99
5 49 41 74 112 28
5 1 20 113 70 99
4 49 41 113 20
4 70 113 41 74
4 112 74 70 99
4 62 89 118 91
5 68 91 118 101 94
5 64 119 35 62 89
4 119 35 68 94
4 94 101 64 119
4 64 89 118 101
5 55 98 100 116 91
4 91 116 85 49
4 29 117 98 55
5 51 117 29 49 85
4 85 51 100 116
4 51 117 98 100
4 106 80 68 25
5 80 106 44 90 43
5 20 107 69 25 68
4 90 43 20 107
4 44 90 107 69
4 25 106 44 69
5 10 55 17 56 105
4 84 42 10 105
4 104 80 55 17
5 80 104 45 84 42
4 105 56 45 84
4 17 104 45 56
5 53 24 4 32 6
4 4 109 7 24
4 32 4 109 57
4 8 7 24 53
5 8 37 57 109 7
4 6 37 8 53
4 23 13 1 54
4 23 74 109 13
4 54 1 18 53
4 111 5 109 74
5 54 23 74 111 53
4 18 32 51 28
5 28 26 8 9 18
4 26 23 51 28
4 8 114 34 9
5 34 114 23 51 32
4 18 32 34 9
5 65 14 0 38 7
4 0 110 6 14
4 70 38 0 110
4 9 6 14 65
4 7 65 9 31
5 9 31 70 110 6
4 3 53 28 0
4 3 114 93 0
4 17 53 28 67
4 109 93 114 31
5 53 3 114 31 17
4 109 77 49 39
5 53 33 34 77 49
4 49 39 26 53
4 34 70 76 33
4 76 33 53 26
5 109 39 26 76 70
4 13 2 67 16
4 13 110 75 16
4 26 65 67 2
5 67 65 108 75 16
4 108 3 110 75
4 5 4 28 65
4 28 65 25 54
4 4 97 113 5
5 65 25 37 113 5
4 37 110 97 113
4 27 41 109 2
4 41 27 53 9
4 2 51 97 109
4 75 97 51 30
5 9 75 97 109 41
4 18 28 64 16
4 28 26 38 64
5 113 40 38 64 16
4 113 9 8 40
4 26 38 40 8
4 62 30 18 65
5 62 65 41 40 76
4 76 110 30 62
4 77 41 40 57
4 77 41 65 18
5 77 57 110 30 18
4 110 1 36 33
4 33 36 65 8
4 1 110 93 64
4 74 39 64 93
5 8 74 93 110 33
4 4 18 104 43
4 14 18 4 72
4 104 37 70 43
5 3 14 18 104 37
4 23 70 37 3
4 31 9 49 29
4 29 31 70 117
4 9 49 85 6
4 70 117 51 110
4 11 57 77 29
4 11 57 110 23
4 77 18 24 29
4 30 105 23 110
4 42 0 26 106
4 24 59 0 26
4 42 57 31 106
4 57 31 5 16
5 5 24 26 106 31
5 60 17 29 95 32
4 95 93 74 29
4 29 74 8 17
4 8 33 60 17
4 32 60 33 110
4 1 97 117 72
5 26 72 1 6 25
4 1 97 34 6
4 71 25 6 34
4 74 26 25 71
5 34 97 117 74 71
4 35 37 8 62
4 35 119 57 37
4 8 62 89 7
4 109 64 119 57
4 99 97 75 35
4 75 35 25 9
5 25 73 38 99 35
4 109 38 73 41
4 41 73 25 9
4 64 112 27 67
5 58 8 27 67 77
4 8 27 112 76
4 8 76 78 58
4 77 97 78 58
5 78 97 64 112 76
4 70 76 35 19
4 26 76 35 14
4 19 16 109 70
4 39 107 16 109
4 2 93 119 59
5 7 17 18 59 2
4 2 93 40 7
5 119 93 40 58 75
4 58 17 7 40
4 17 58 75 18
4 51 115 36 54
4 9 36 115 77
5 76 54 36 9 71
5 93 79 77 115 51
4 71 79 93 76
4 77 9 71 79
4 105 2 4 85
4 60 77 4 85
4 74 2 105 96
5 60 50 96 105 85
4 31 50 96 74
4 2 59 84 23
4 7 106 23 2
4 84 59 18 6
5 106 50 6 84 23
4 18 17 50 6
4 20 5 24 85
5 54 85 20 34 21
4 34 20 5 31
4 106 21 54 26
4 26 54 85 24
4 0 89 107 1
4 89 0 76 73
4 1 75 92 107
5 89 73 63 92 107
4 75 92 63 37
4 0 64 102 10
4 41 8 10 102
4 64 115 30 0
5 92 41 102 64 115
4 108 30 115 92
4 28 62 73 39
4 39 101 115 28
4 73 62 33 71
5 73 71 113 101 39
4 75 113 101 115
4 72 90 16 1
4 6 1 16 104
5 63 7 90 16 104
4 26 7 63 25
4 90 72 26 7
4 4 20 103 51
4 103 20 9 33
4 51 112 39 4
4 96 111 39 112
5 103 51 112 96 33
4 27 105 59 67
4 8 27 105 3
4 77 32 81 58
5 32 59 105 3 81
4 32 77 67 59
5 10 40 15 67 89
4 14 89 10 3
4 40 10 3 37
4 14 18 67 89
4 18 67 15 104
4 28 30 60 49
4 28 112 100 30
4 58 41 49 60
5 60 58 114 100 30
4 114 100 112 74
4 54 72 107 36
4 36 9 5 107
5 38 87 5 107 72
4 76 38 87 71
4 72 38 76 54
4 24 4 117 44
4 32 4 117 52
4 32 52 21 6
5 21 96 44 117 52
4 53 96 21 6
5 84 52 43 47 85
4 47 17 31 43
4 52 114 31 43
4 53 17 47 85
4 84 3 53 85
4 11 44 72 13
4 31 11 44 111
4 72 13 32 85
4 31 104 22 111
5 85 72 44 111 22
4 0 14 45 119
4 0 119 66 38
5 66 119 45 92 15
4 65 92 15 7
4 7 15 66 38
4 41 91 56 67
4 33 30 56 91
5 78 33 91 41 79
4 95 79 78 119
5 95 119 30 56 67
4 67 95 79 41
4 97 20 68 78
4 20 97 64 107
4 76 78 68 25
4 112 64 107 69
5 90 66 42 46 89
4 66 42 37 113
4 25 46 42 37
4 65 25 46 89
4 5 90 89 65
4 39 41 91 69
4 33 54 69 91
4 99 78 79 117
4 33 54 99 78
5 99 54 69 39 117
4 62 108 17 27
4 15 102 27 17
4 62 108 81 100
5 15 57 81 108 17
4 57 81 100 93
4 13 19 45 59
4 108 45 19 37
4 89 38 13 59
5 59 89 12 108 45
4 37 106 12 108
4 93 79 55 10
4 10 105 51 93
4 17 77 79 55
4 115 51 105 56
4 111 49 36 25
4 21 103 36 25
4 111 49 101 87
4 97 101 87 70
5 21 25 111 87 70
5 61 73 102 66 78
4 78 75 108 61
4 65 73 61 108
4 66 16 67 102
4 65 73 102 67
4 65 107 86 62
4 62 76 99 86
5 99 86 107 101 66
4 40 66 101 41
4 40 66 99 76
4 75 36 91 58
4 40 58 91 73
4 36 75 119 86
4 112 93 119 86
5 48 79 52 103 60
4 60 53 111 48
4 74 79 48 111
4 52 23 54 103
4 54 103 60 53
5 84 14 24 90 13
4 90 13 70 87
4 84 21 70 13
4 25 21 84 14
4 14 25 111 24
4 10 12 24 2
4 114 10 12 50
4 24 2 95 47
5 47 24 12 50 104
4 114 57 104 50
4 77 49 83 95
4 53 105 83 49
5 95 83 105 100 52
4 100 33 34 52
4 95 77 34 52
4 13 57 15 90
4 13 84 81 57
4 17 15 90 24
4 14 108 17 24
4 43 19 99 117
4 54 99 19 6
4 43 5 39 117
4 39 5 22 69
4 27 74 71 91
4 71 91 60 34
4 27 83 117 74
4 117 83 115 97
4 22 14 1 20
4 63 22 20 113
4 14 1 99 46
5 46 106 63 22 14
4 113 70 106 63
4 42 11 95 119
4 67 95 11 7
4 42 119 30 3
4 30 3 12 56
4 68 61 40 113
4 40 38 46 61
4 16 113 68 45
4 64 16 45 86
4 68 92 115 103
4 71 41 92 68
5 68 71 98 99 103
4 99 98 102 64
4 41 71 98 102
4 89 10 100 86
4 78 40 10 100
5 86 100 78 94 115
4 94 15 40 78
4 67 15 94 115
4 114 55 48 34
4 32 47 48 34
4 114 23 44 55
4 23 51 83 44
4 48 20 6 50
4 106 50 48 87
4 6 84 88 20
4 106 23 117 87
4 80 81 32 43
4 81 3 106 80
4 32 43 90 59
4 3 105 44 106
5 55 102 95 94 58
4 102 55 96 112
4 33 58 55 96
4 103 94 58 33
4 94 103 51 95
4 63 7 10 61
4 104 63 61 81
4 90 82 10 7
4 16 104 81 119
4 19 113 101 88
5 19 21 46 72 88
4 113 19 21 71
4 71 73 46 21
4 46 73 39 72
4 83 101 20 85
4 34 79 101 20
5 83 101 79 98 112
4 112 54 21 98
4 98 21 34 79
4 80 42 38 87
4 80 104 5 87
4 72 84 42 38
4 104 5 107 45
5 47 15 11 82 59
4 58 15 11 114
4 82 100 114 11
4 58 60 47 15
4 59 30 60 47
4 112 62 61 98
4 79 58 61 98
4 62 56 83 112
4 92 56 83 101
4 35 86 82 42
4 35 108 56 86
4 42 82 102 40
5 102 82 86 56 118
4 108 63 118 56
4 69 36 35 46
4 46 35 78 98
4 36 92 118 69
4 113 87 118 92
5 98 87 118 69 46
4 49 115 94 48
4 78 94 48 71
4 49 115 86 69
4 69 86 100 96
4 99 35 45 88
4 22 45 35 25
4 73 118 90 38
5 90 88 45 22 118
4 88 99 38 90
4 55 12 89 102
4 55 58 108 12
4 89 102 95 59
4 94 45 59 95
4 29 83 88 43
4 83 69 111 29
4 34 103 88 43
5 88 103 116 69 83
4 50 116 69 111
4 29 95 82 44
4 12 44 29 17
4 32 84 82 95
5 82 44 12 116 84
4 32 60 116 84
4 104 19 88 47
4 21 19 104 50
4 46 12 24 72
4 47 88 72 24
4 27 29 47 56
4 56 116 96 27
4 94 79 29 47
5 94 81 116 56 47
4 81 116 96 114
4 103 85 22 68
4 71 111 22 68
4 98 44 72 99
4 85 103 99 72
4 15 63 106 11
4 11 106 46 82
4 46 82 59 14
4 59 14 22 47
4 61 116 103 78
4 73 61 116 69
4 102 83 88 66
4 103 78 66 88
4 92 91 55 15
4 92 91 116 45
4 15 66 98 55
4 119 45 116 100
5 82 98 80 94 88
4 80 94 92 63
4 63 80 98 73
4 89 82 98 73
4 88 107 89 82
4 48 60 56 118
4 118 48 79 102
4 79 102 82 52
4 103 52 82 86
4 80 66 101 48
4 66 99 21 80
4 107 101 48 22
4 107 86 116 22
4 42 81 94 66
4 46 116 81 42
4 90 47 56 89
4 94 66 90 47
4 91 96 21 68
4 44 96 91 118
4 52 94 68 21
4 101 118 44 117
4 80 61 100 52
4 105 100 61 12
4 52 95 15 80
4 12 105 83 118
4 19 84 116 68
4 82 66 19 84
4 12 116 68 63
4 63 87 44 12
4 50 80 94 60
4 98 96 50 80
4 60 94 88 85
4 85 88 82 105
4 43 47 118 87
4 87 43 52 98
4 98 52 84 46
4 85 69 46 84
4 55 118 90 11
4 88 52 11 90
4 50 55 118 22
4 50 22 45 81
4 4 49 27 2
4 2 23 96 27
5 96 27 49 60 33
5 4 2 23 110 32
4 32 60 49 4
4 4 13 11 29
4 106 11 29 111
5 106 11 13 84 3
5 4 85 53 111 29
4 85 4 13 84
4 20 36 28 4
5 28 112 76 33 36
4 36 33 34 20
4 4 117 112 28
5 4 117 70 34 20
4 27 29 48 91
4 27 91 116 105
5 48 94 103 116 91
5 27 105 51 95 29
4 95 29 48 94
4 28 0 10 27
5 10 114 58 17 27
4 0 110 114 10
4 17 27 28 18
5 28 18 75 110 0
4 1 19 43 4
5 19 43 87 106 21
4 19 21 54 1
4 43 87 39 4
5 4 1 54 26 39
4 68 48 49 36
5 78 68 36 86 99
4 49 83 86 36
4 79 48 68 78
5 49 83 117 79 48
4 43 11 55 48
4 55 48 22 12
5 85 88 43 48 22
5 12 55 11 82 105
4 11 43 88 82
4 0 42 11 2
5 14 108 37 42 0
4 0 14 24 2
4 31 11 42 37
5 24 2 11 31 17
4 1 36 62 0
5 0 93 40 8 62
4 0 93 97 1
4 9 36 62 8
5 9 113 97 1 36
4 55 61 62 27
4 81 61 62 30
5 55 61 81 94 15
5 27 62 30 115 67
4 27 67 15 55
4 20 48 80 19
5 118 48 80 98 44
4 19 99 98 80
4 20 107 118 48
5 99 19 20 107 72
4 13 19 35 0
4 25 35 0 26
5 19 113 63 25 35
5 13 0 26 7 109
4 19 113 109 13
4 11 80 61 10
5 61 108 56 89 10
4 104 80 61 108
4 11 90 89 10
5 90 11 80 104 47
4 35 61 91 36
4 41 91 61 40
5 61 40 66 119 35
5 91 41 101 115 36
4 35 36 115 119
4 19 68 61 42
5 73 118 92 68 61
4 38 42 61 73
4 19 68 92 16
5 38 42 19 16 90
4 29 49 20 43
5 29 43 52 23 44
4 49 29 44 69
4 52 43 20 103
5 20 103 54 69 49
4 13 1 28 2
4 1 28 53 6
5 8 74 2 28 53
5 1 13 70 37 6
4 13 70 74 2
4 2 10 55 29
4 50 55 10 3
5 59 30 3 10 2
5 60 50 55 29 47
4 59 47 29 2
4 62 91 49 28
5 100 62 91 58 78
4 49 77 58 91
4 62 100 51 28
5 77 49 28 51 97
4 62 35 42 10
4 62 65 7 10
5 7 10 42 57 15
5 65 62 35 75 92
4 42 35 75 57
4 91 68 80 55
5 102 55 91 56 83
4 68 45 56 91
4 102 55 80 66
5 66 80 68 45 88
4 1 20 68 35
4 68 35 76 71
5 35 76 38 64 1
5 68 71 87 101 20
4 64 1 20 101
4 13 43 80 42
5 12 46 42 80 63
4 43 80 63 5
4 42 46 72 13
5 72 13 43 5 24
4 43 32 51 117
5 32 43 31 50 6
4 54 6 50 96
5 54 96 74 117 51
4 54 6 32 51
4 71 79 29 111
5 79 71 33 103 97
4 53 33 103 85
4 71 111 53 33
4 50 48 79 114
4 117 83 105 23
5 50 114 23 105 53
4 117 23 114 79
4 49 77 31 111
4 70 97 77 31
4 70 97 51 23
5 70 23 26 111 31
4 11 31 34 52
5 85 51 52 34 60
4 24 85 60 17
4 34 60 17 31
4 83 115 77 29
5 77 34 114 74 29
5 100 112 83 115 103
4 103 34 114 100
4 115 77 34 103
4 26 74 29 24
4 3 114 34 6
4 26 74 114 3
5 6 18 24 26 3
5 93 79 41 27 112
4 54 53 27 112
4 54 112 93 110
4 34 110 93 79
5 53 54 110 34 9
5 96 55 79 52 100
4 53 17 55 96
4 30 100 52 32
4 30 100 96 53
5 53 30 32 77 17
5 9 31 109 4 18
4 4 18 30 51
5 93 114 33 30 51
4 18 30 33 9
4 33 9 31 114
4 29 31 57 95
4 110 57 95 51
4 110 3 105 51
5 8 31 57 110 3
4 74 79 95 2
5 115 60 58 79 95
4 58 8 53 60
4 74 8 58 79
4 85 49 39 72
5 39 49 9 71 74
4 71 21 23 74
5 72 23 21 6 85
4 39 74 23 72
4 60 91 69 85
5 69 91 71 98 112
4 52 98 112 51
4 112 51 85 69
4 111 24 47 48
5 111 48 34 21 96
5 47 24 105 84 32
4 21 84 105 96
4 111 96 105 24
4 5 9 34 43
4 54 72 24 53
4 5 24 53 9
4 11 44 83 95
5 81 32 95 11 114
4 116 81 32 85
5 44 83 85 116 96
4 95 83 85 32
4 91 41 74 96
4 115 101 117 51
4 117 101 41 74
4 13 109 77 32
4 77 17 7 109
4 17 7 26 53
4 27 67 109 74
4 67 115 97 109
4 110 30 115 97
5 109 74 76 110 97
5 57 93 2 67 77
4 105 56 67 2
4 77 60 56 67
5 56 105 100 81 60
4 81 57 77 60
4 4 39 41 77
5 77 41 8 33 75
4 41 8 26 39
4 26 8 33 54
5 13 57 104 18 59
4 23 13 59 105
4 18 53 105 59
4 50 104 18 53
4 102 55 114 93
4 93 102 83 51
4 51 83 56 30
4 21 98 55 50
5 98 21 103 88 117
4 47 88 103 60
4 50 60 103 21
4 20 34 50 22
5 22 50 106 44 24
4 106 70 117 44
4 70 34 50 106
4 48 34 97 101
5 99 112 39 101 97
4 99 112 96 21
4 34 97 99 21
4 76 93 2 26
4 93 57 37 76
5 9 65 26 76 37
4 57 37 9 77
4 7 11 114 8
4 114 8 108 81
4 18 108 81 32
5 7 67 18 108 8
5 119 100 10 102 95
4 8 10 100 33
4 119 100 33 75
4 75 119 95 77
5 111 5 20 6 25
4 97 110 6 20
4 76 110 6 25
4 25 76 74 111
4 96 27 102 98
5 101 94 78 98 102
4 78 94 60 33
4 96 33 78 98
4 43 104 81 52
4 3 23 44 12
5 17 104 81 3 12
4 3 81 52 23
4 5 104 32 4
5 5 104 37 106 7
4 110 37 104 32
4 37 110 23 106
4 114 10 82 52
4 47 94 58 17
4 58 114 52 94
5 83 47 94 52 82
4 49 9 75 115
5 75 78 93 64 115
4 75 9 71 78
4 78 71 74 93
4 71 96 116 68
4 87 101 83 44
4 44 87 71 96
4 80 87 117 52
5 52 80 50 116 84
4 72 84 116 69
4 117 52 84 72
5 72 117 87 111 69
4 25 71 48 22
4 88 99 54 85
5 99 70 71 25 54
4 25 22 85 54
5 1 16 5 65 14
4 1 14 3 110
4 3 14 65 8
4 8 65 5 31
4 57 11 82 119
4 30 119 82 105
5 58 57 119 30 108
4 30 108 12 105
4 102 67 28 112
5 67 102 40 58 92
4 102 40 76 112
4 40 58 33 76
4 18 28 39 5
4 5 113 75 18
4 70 110 75 113
5 38 39 5 113 70
4 92 56 27 41
5 94 119 86 56 92
4 94 79 93 119
4 92 94 79 41
4 32 57 42 84
4 24 7 15 47
4 32 57 15 47
4 72 4 109 38
5 38 106 25 14 72
4 109 38 106 31
4 31 106 25 9
4 15 80 50 17
4 84 59 56 116
4 50 17 56 116
5 17 56 59 95 15
5 102 73 62 86 64
4 33 62 86 103
4 64 97 79 102
4 97 103 86 64
4 2 59 16 109
5 37 75 16 109 40
4 59 16 75 30
4 30 3 37 75
5 109 64 28 65 41
4 30 28 65 108
4 108 65 41 58
4 57 58 41 109
4 95 59 0 93
4 93 40 15 95
4 17 15 40 8
4 118 101 79 55
4 88 52 100 86
5 86 69 118 101 88
4 79 101 88 52
4 36 9 111 69
4 87 117 97 113
4 113 9 111 87
4 104 6 21 80
4 85 47 90 72
4 104 47 85 6
4 81 100 98 80
4 56 118 44 105
4 100 98 44 105
5 14 84 19 104 22
4 19 84 23 70
4 26 14 84 23
4 111 22 14 26
4 41 73 69 49
5 41 73 76 78 113
4 54 76 78 103
4 54 69 73 76
4 60 116 61 58
5 61 98 82 86 116
4 115 95 82 86
4 115 60 116 86
4 99 64 28 54
4 109 64 99 70
4 71 41 109 70
4 31 7 90 43
5 7 12 14 59 90
4 12 50 6 14
4 31 50 12 7
4 64 1 18 67
4 38 64 67 7
4 7 38 76 8
4 10 89 64 93
4 89 56 115 64
4 108 56 115 75
5 16 119 0 89 67
4 0 3 12 89
4 17 67 89 12
4 17 104 16 67
4 47 22 68 94
5 68 21 46 69 22
4 46 82 83 69
4 22 47 83 69
4 103 36 107 88
5 39 107 36 25 73
4 39 117 98 73
4 39 107 88 117
4 88 20 5 90
5 88 84 46 44 90
4 44 111 25 46
4 5 90 44 111
4 10 102 118 12
4 47 118 102 95
4 119 45 47 95
5 47 45 116 12 118
4 18 6 19 16
4 24 18 16 90
4 24 90 38 26
4 65 62 112 39
4 75 92 101 97
4 65 39 101 92
4 73 61 100 112
4 115 92 118 83
4 73 112 83 118
4 107 20 9 65
4 65 107 72 26
4 76 26 72 99
5 81 45 59 82 42
4 42 106 44 82
4 24 59 82 44
4 59 24 22 45
4 40 42 81 58
4 45 81 58 92
4 59 67 92 45
4 38 13 57 40
5 40 63 65 89 38
4 57 104 63 40
4 65 18 104 63
4 0 76 78 119
4 113 78 119 16
4 113 16 67 41
4 82 89 62 100
5 89 118 15 66 82
4 15 66 78 58
4 82 66 78 100
4 37 75 36 25
4 40 37 25 73
4 109 39 73 40
4 16 45 84 13
5 15 63 108 45 16
4 3 84 45 108
4 108 3 106 63
4 116 91 73 46
4 66 94 103 99
5 66 87 73 46 99
4 116 103 99 46
4 45 19 21 116
4 87 118 12 106
4 106 21 116 12
4 68 21 70 113
4 39 69 46 38
4 38 46 21 70
4 84 81 61 46
4 88 94 15 90
4 84 81 94 88
4 113 92 91 71
5 66 64 107 92 113
4 66 98 112 64
4 113 71 98 66
4 6 22 107 1
5 107 90 87 63 22
4 37 70 87 63
4 6 37 63 22
4 108 63 73 62
4 63 15 102 73
4 16 64 102 15
4 59 119 35 14
4 119 66 90 59
4 7 40 66 90
4 14 107 64 0
4 14 108 92 107
4 108 37 113 92
4 42 119 86 46
4 92 63 12 56
4 12 46 86 56
4 65 89 86 36
4 89 38 99 86
4 38 99 78 40
5 35 45 107 89 46
4 37 106 46 35
4 106 7 89 46
4 89 7 5 107
4 78 35 45 94
4 102 101 107 89
4 101 94 45 107
4 104 15 66 19
4 89 14 22 118
4 104 22 118 15
4 1 99 66 16
4 16 66 87 5
4 87 5 65 73
4 63 61 98 87
4 90 82 86 107
4 87 90 82 98
4 35 86 69 25
4 113 101 118 63
4 25 69 118 63
4 14 25 68 45
4 38 72 88 66
4 14 45 88 72
5 8 114 93 2 27
4 8 27 49 9
4 4 2 93 97
5 4 49 9 34 97
5 29 11 114 50 17
4 13 11 114 110
4 29 17 18 4
5 4 18 6 110 13
4 36 25 26 28
5 36 25 71 113 20
5 28 26 74 109 4
4 20 113 109 4
5 91 33 100 112 27
4 33 91 48 34
4 29 117 112 27
5 29 117 52 34 48
4 27 41 40 10
5 0 10 40 57 119
5 27 41 77 115 28
4 119 0 28 115
4 43 31 37 19
5 1 14 25 37 19
5 31 43 4 24 111
4 1 14 24 4
4 54 36 68 21
5 49 39 112 54 36
5 68 48 87 98 21
4 49 39 87 48
5 96 55 48 60 116
4 48 60 32 43
4 55 96 23 11
5 11 43 32 84 23
4 42 81 30 0
5 0 30 18 67 2
5 11 15 104 81 42
4 11 15 67 2
4 38 73 62 0
5 0 38 109 16 1
5 92 36 62 73 41
4 36 92 16 1
5 62 86 119 78 61
4 78 79 55 61
4 27 83 86 62
5 27 83 95 79 55
4 106 80 48 111
5 84 19 80 106 46
5 20 85 69 111 48
4 85 20 19 84
5 35 108 65 89 0
4 19 104 108 35
4 13 90 89 0
5 19 13 90 5 104
4 105 10 61 116
5 45 94 80 61 116
5 95 11 10 105 59
4 11 95 94 80
5 61 98 102 118 91
4 35 99 98 61
4 91 118 107 36
5 36 35 99 64 107
4 22 68 61 12
5 12 61 42 82 89
5 19 68 22 107 88
4 19 88 82 42
4 43 29 74 70
5 49 29 74 96 53
5 6 20 43 70 21
4 49 53 6 20
5 75 1 28 65 9
4 7 65 28 2
4 1 75 57 13
5 2 7 31 57 13
5 55 10 100 81 58
4 10 100 51 2
4 55 58 77 29
5 29 2 51 32 77
4 62 76 71 91
5 49 91 71 79 101
5 62 28 64 93 76
4 49 101 64 28
5 67 56 62 10 102
4 42 10 102 66
4 62 56 45 35
5 42 66 16 45 35
4 55 44 69 91
5 91 68 103 86 69
5 55 44 82 52 80
4 68 103 52 80
5 35 46 73 63 68
4 1 35 46 72
4 68 63 5 20
5 72 39 5 20 1
4 42 3 50 80
5 50 80 43 47 22
5 59 13 42 3 14
4 47 43 13 59
4 51 2 26 54
4 9 6 32 77
5 6 54 26 111 9
4 111 39 28 53
5 110 33 53 28 51
4 70 71 33 110
5 71 111 39 117 70
5 23 54 85 4 117
4 77 4 117 79
5 79 114 33 60 77
4 33 54 23 114
4 18 77 97 1
5 70 76 54 1 97
4 31 70 76 8
5 18 53 8 31 77
5 30 60 17 27 105
4 74 31 17 27
4 34 60 30 110
5 31 34 110 23 74
4 103 54 28 115
4 34 71 41 77
5 54 103 34 71 96
4 28 30 3 26
5 30 32 57 114 3
4 114 57 109 74
4 36 54 110 75
5 75 110 93 109 77
4 109 93 112 39
4 49 115 30 53
5 100 93 95 115 30
4 93 100 96 74
4 30 0 76 33
4 9 18 67 41
5 41 74 76 33 9
4 95 67 28 51
5 58 17 67 95 57
4 110 57 58 33
5 30 62 8 58 75
4 112 74 8 62
4 97 75 58 79
5 112 74 79 97 51
4 72 23 110 1
4 74 31 5 39
4 97 51 85 20
4 74 111 69 112
4 4 51 105 24
5 52 51 105 96 114
4 111 31 114 96
4 2 24 5 109
5 2 23 3 53 24
4 3 37 9 53
5 9 37 70 109 5
4 27 83 85 53
4 34 32 95 79
5 34 50 53 85 32
5 103 99 117 101 20
4 41 101 20 9
4 76 74 117 99
4 93 109 7 10
5 7 17 108 3 10
4 75 108 17 77
4 67 115 36 65
5 78 97 115 36 33
4 40 78 97 109
5 40 8 65 67 109
4 60 33 62 56
4 79 102 67 77
4 64 39 26 0
5 8 37 110 0 26
5 41 39 64 97 113
4 37 113 41 8
4 10 105 53 8
4 18 77 95 59
4 102 83 49 41
5 103 60 49 83 51
5 78 58 41 102 93
4 93 78 103 51
4 111 50 60 49
5 21 23 44 111 50
4 23 51 103 21
5 13 70 106 26 72
4 32 13 70 34
4 106 50 53 26
4 97 4 72 99
5 69 25 21 99 72
4 21 34 9 25
4 108 62 76 37
5 18 108 37 57 16
4 57 16 64 93
4 27 56 108 8
5 59 119 81 108 56
4 81 119 93 114
4 92 75 33 91
4 119 64 112 100
5 67 92 75 119 64
4 110 13 38 76
5 39 65 25 76 38
4 25 6 18 65
4 69 96 33 36
4 117 98 78 97
5 98 96 69 83 117
4 52 23 2 95
5 81 52 95 47 60
4 53 60 81 3
4 59 0 110 32
5 32 104 17 24 59
4 17 8 37 104
5 58 94 115 56 91
4 114 96 91 58
4 51 52 94 115
4 1 75 78 99
5 73 112 99 78 71
4 9 71 73 65
5 43 87 44 72 88
4 71 87 43 34
4 96 44 72 54
4 72 117 29 24
4 84 6 34 52
5 84 72 24 22 6
4 5 22 85 4
5 22 25 106 87 5
4 23 106 25 54
4 3 42 40 8
4 59 67 65 14
4 82 105 27 102
5 94 15 102 82 119
4 60 94 119 30
4 35 86 112 76
5 113 40 76 35 75
4 102 40 113 101
5 86 112 102 101 115
4 18 75 35 14
4 5 113 40 7
5 14 26 7 5 18
4 36 92 94 103
5 79 98 100 103 94
4 41 79 98 73
5 47 15 55 12 56
4 55 15 57 114
4 30 32 47 56
4 3 106 38 0
4 104 16 109 31
5 3 106 31 104 6
4 29 17 56 83
5 82 83 56 116 100
4 50 114 100 116
4 103 68 113 97
4 64 86 69 39
4 59 89 62 30
5 89 7 15 16 59
4 16 75 58 15
4 35 108 58 78
4 89 102 41 65
4 61 40 93 100
5 15 92 108 61 40
4 95 15 92 115
4 101 49 85 88
5 52 88 85 116 21
4 21 52 79 71
5 99 19 113 87 38
4 6 19 113 9
4 111 87 38 26
5 29 47 85 105 44
4 31 104 47 29
4 3 105 85 6
4 44 98 79 29
4 85 103 100 105
4 23 26 7 11
4 14 84 32 18
4 107 69 54 1
5 69 107 101 87 73
4 87 70 76 73
4 60 115 101 48
4 112 96 116 86
4 37 35 99 70
4 5 107 64 109
4 2 105 12 7
5 81 84 105 12 50
4 57 81 50 31
4 119 64 38 42
5 63 7 38 42 37
4 7 67 92 63
4 73 89 56 91
5 73 89 64 66 40
4 64 115 94 66
4 12 61 58 17
4 95 67 89 82
4 47 83 117 43
4 69 22 50 96
4 19 88 117 70
4 111 22 107 39
4 23 44 90 13
4 111 5 104 50
4 60 47 118 91
4 95 52 98 102
4 57 16 90 11
5 12 106 11 90 24
4 18 108 12 24
5 101 66 78 68 92
4 25 68 92 65
4 39 38 66 101
5 88 94 48 118 83
4 73 71 48 118
4 112 83 88 99
4 16 13 72 107
5 63 113 16 107 65
4 63 106 26 65
4 44 24 17 55
4 59 32 52 82
4 55 58 92 118
5 89 118 92 45 86
4 81 100 86 45
4 10 12 63 40
4 57 104 45 119
5 12 63 104 45 14
4 63 61 78 113
4 107 16 119 86
4 68 116 100 78
4 82 66 101 83
4 37 40 66 19
4 89 14 25 73
4 84 82 10 3
5 45 84 82 90 47
4 45 108 17 47
4 22 20 103 116
5 46 44 118 22 116
4 46 99 117 44
4 52 11 106 21
4 85 116 12 24
4 38 90 43 70
5 90 38 46 14 107
4 46 21 6 14
4 81 50 48 94
4 105 84 88 83
4 113 20 88 66
5 98 66 88 86 46
4 46 25 71 98
4 6 37 42 84
4 24 22 63 7
4 63 68 94 15
4 102 73 46 82
4 81 119 66 80
5 66 90 118 63 80
4 56 118 90 59
4 14 108 61 46
4 15 90 107 92
4 46 12 55 98
4 88 47 56 86
4 19 99 86 45
4 89 38 87 118
4 106 7 15 80
4 59 84 46 89
4 80 94 101 87
4 69 116 45 107
4 11 44 118 15
4 104 81 116 22
4 66 87 106 42
4 16 5 22 45
4 87 48 47 90
4 21 84 82 98
4 63 25 21 80
4 90 72 69 118
4 104 45 88 43
4 12 44 72 14
4 4 49 36 1
5 36 92 56 60 49
5 4 32 59 16 1
4 4 13 0 28
5 13 84 82 119 0
5 85 4 28 115 83
4 20 36 35 19
5 33 36 35 108 30
5 32 104 19 20 34
4 29 4 20 48
5 94 48 20 113 92
5 67 95 29 4 109
4 27 91 36 28
5 17 27 91 118 12
5 18 28 36 107 14
4 42 0 1 19
5 0 30 51 54 1
5 19 42 81 52 21
4 43 48 68 19
5 79 48 43 31 77
5 75 37 19 68 78
4 4 43 11 2
5 2 93 102 82 11
5 101 97 4 43 88
4 0 2 27 62
5 27 83 44 24 2
5 46 14 0 62 86
4 68 61 62 36
5 61 12 3 8 62
5 6 22 68 36 9
4 49 27 55 48
5 65 39 49 27 67
5 55 15 63 87 48
4 11 13 19 80
5 80 98 79 114 11
5 97 110 13 19 99
4 10 61 35 0
5 21 116 61 35 25
5 0 26 23 105 10
4 29 11 10 27
5 73 112 27 10 89
5 29 11 90 87 117
4 80 48 91 61
5 61 40 37 106 80
5 91 41 9 111 48
4 11 55 61 42
5 71 73 61 55 96
5 11 23 70 38 42
4 13 1 20 43
5 103 20 1 75 115
5 52 43 13 57 95
4 1 28 62 35
5 35 1 6 84 45
5 28 53 105 56 62
4 29 49 28 2
5 2 28 64 89 59
5 29 47 118 101 49
4 20 68 91 49
5 58 91 68 63 108
5 49 20 5 18 77
4 62 10 55 91
5 25 65 62 91 69
5 55 44 106 7 10
4 43 80 55 29
5 113 70 43 80 66
5 41 102 55 29 74
4 42 80 68 35
5 76 35 42 3 110
5 80 68 71 34 50
4 13 2 10 42
5 10 42 46 98 100
5 13 72 117 51 2
5 54 76 62 100 96
5 37 6 50 81 108
4 54 6 37 76
5 29 111 5 7 17
5 71 79 58 40 113
4 111 71 113 5
5 64 102 83 117 39
4 23 117 39 26
5 95 51 97 64 119
4 70 38 64 97
5 109 40 15 11 31
5 78 94 52 34 97
4 109 31 34 97
5 35 119 100 103 99
4 70 34 103 99
5 57 114 34 70 37
5 26 65 89 12 24
4 26 74 41 65
4 112 54 25 73
5 53 3 14 25 54
5 53 17 108 65 9
4 53 9 71 96
5 33 78 61 81 114
4 33 9 113 78
5 31 104 63 113 9
5 105 51 112 86 82
4 110 51 112 76
5 39 74 2 7 38
5 66 101 79 95 15
4 74 39 101 79
5 85 72 14 59 105
4 39 65 14 72
4 6 25 69 85
5 18 6 85 60 30
5 24 18 67 56 47
4 24 111 9 18
5 15 47 43 5 16
5 58 75 9 34 60
4 9 75 16 5
5 36 86 116 85 54
5 110 75 119 81 32
4 32 85 54 110
5 67 16 107 101 115
4 117 72 107 101
5 66 90 13 109 64
5 77 32 47 94 115
4 77 115 64 109
5 115 30 59 45 86
4 97 115 86 99
5 60 103 68 45 81
5 57 16 113 97 77
4 77 60 103 97
5 24 90 107 39 4
5 15 92 41 77 17
4 41 92 107 39
5 50 116 91 33 53
5 18 104 45 92 75
4 18 75 33 53
5 69 107 89 56 83
4 54 51 83 69
5 8 58 55 50 31
5 76 78 98 21 70
4 70 21 50 31
5 109 70 117 79 93
4 106 70 109 7
5 0 93 112 99 38
4 38 106 21 99
5 106 3 114 96 21
4 76 73 102 93
5 76 73 46 106 26
5 7 8 41 73 63
4 8 41 79 114
4 33 71 98 100
5 25 71 33 8 37
5 40 76 74 114 10
4 25 63 40 76
5 111 50 12 63 25
5 111 26 8 27 96
5 40 102 98 87 38
4 111 96 98 87
5 74 23 44 98 112
4 8 74 23 3
4 37 40 93 110
5 23 110 93 100 52
5 99 117 52 82 66
4 74 114 52 117
5 42 66 78 93 57
4 87 66 78 71
5 74 31 106 87 71
5 5 87 101 41 109
4 5 24 44 87
5 69 72 26 28 112
5 3 30 100 116 84
4 3 84 72 26
5 60 17 104 22 48
4 22 104 37 25
5 65 5 22 118 92
4 65 8 58 92
5 69 96 105 12 46
4 30 33 96 105
5 90 118 102 67 7
4 102 118 69 112
4 113 75 119 66
5 19 16 119 94 88
4 79 94 88 117
5 103 88 84 32 51
4 57 32 51 93
5 38 72 44 82 89
4 38 109 67 89
4 77 34 50 17
4 21 46 86 103
5 110 33 103 21 6
4 78 100 30 75
5 57 104 80 94 58
4 41 101 94 58
5 59 90 88 83 95
4 95 83 112 93
5 86 64 1 72 88
4 23 72 88 52
4 90 16 113 87
4 104 57 110 6
5 111 44 118 73 39
4 105 44 111 53
5 22 14 108 56 116
4 26 14 108 8
5 24 53 49 69 22
4 73 63 22 69
4 21 116 60 34
4 64 89 46 99
5 84 23 54 99 46
4 7 67 77 31
4 67 56 86 64
4 115 103 116 56
4 17 60 115 67
4 32 47 22 6
4 107 14 84 88
4 18 59 90 5
5 45 107 20 85 47
4 85 47 95 51
4 18 16 119 30
4 92 101 88 45
4 85 22 118 83
4 107 65 108 45
4 59 30 53 24
4 52 81 58 79
4 57 40 102 95
4 119 78 98 82
4 100 96 44 82
4 40 15 118 73
4 58 114 3 108
4 50 116 46 106
4 31 17 12 106
4 38 7 12 46
4 84 23 114 81
4 90 44 98 66
4 57 15 63 37
4 83 102 15 47
4 119 59 105 100
4 108 92 94 81
4 56 12 50 60
4 89 12 116 86
4 89 7 17 56
4 84 45 94 52
4 95 15 104 32
4 59 16 66 82
4 105 24 90 82
4 118 63 104 47
4 45 81 3 14
5 49 36 33 71 41
5 1 110 70 109 4
5 57 13 0 3 37
5 4 77 9 53 28
5 76 35 36 65 73
5 5 20 19 70 87
5 71 48 20 103 21
5 23 51 4 29 74
5 79 102 27 91 58
5 75 36 28 64 97
5 65 18 1 0 26
5 42 19 104 63 106
5 117 43 48 111 44
5 25 68 19 99 46
5 11 114 3 105 2
5 34 43 4 85 6
5 2 95 77 17 27
5 0 119 75 108 62
5 102 89 62 61 40
5 36 68 113 101 107
5 115 49 27 112 51
5 52 98 55 48 94
5 11 80 50 12 44
5 14 72 13 19 6
5 63 92 45 35 61
5 67 7 10 0 59
5 27 56 30 100 10
5 11 52 32 47 29
5 46 61 80 66 82
5 91 69 83 101 48
5 55 118 56 116 61
5 84 42 11 90 59
5 25 9 20 1 54
5 23 106 31 43 13
5 113 37 35 1 16
5 8 62 28 67 41
5 30 110 93 2 28
5 29 79 34 60 49
5 68 91 73 98 78
5 97 117 39 49 20
5 92 115 86 62 91
5 10 82 95 15 55
5 43 88 84 21 80
5 105 83 29 55 96
5 14 35 42 38 89
5 87 118 22 68 80
5 12 108 81 42 10
5 18 24 2 13 32
5 28 39 74 76 54
5 18 6 37 31 5
5 4 72 26 111 5
5 71 76 99 97 113
5 6 53 26 23 110
5 70 37 25 26 38
5 2 109 31 8 26
5 34 33 54 51 97
5 69 112 99 103 36
5 74 70 34 9 111
5 77 41 74 93 97
5 112 64 101 41 73
5 117 112 96 71 79
5 93 112 62 33 78
5 39 109 113 9 65
5 9 75 110 76 8
5 115 101 79 78 103
5 69 39 87 71 25
5 13 38 7 5 16
5 49 111 96 54 85
5 114 110 32 77 31
5 21 70 117 72 54
5 0 64 109 40 76
5 33 58 77 115 30
5 96 100 103 60 91
5 38 39 107 1 99
5 41 40 78 75 92
5 114 74 27 53 33
5 109 57 75 18 67
5 29 24 53 50 31
5 106 7 24 14 3
5 6 21 106 111 22
5 115 119 93 102 67
5 114 79 95 51 100
5 100 86 83 102 98
5 63 25 14 107 5
5 99 88 101 87 98
5 17 8 3 30 18
5 7 40 37 108 65
5 85 103 52 117 83
5 64 86 35 78 66
5 44 23 84 85 24
5 32 84 3 50 104
5 43 90 24 22 104
5 57 93 10 8 58
5 64 16 92 65 89
5 94 66 102 118 92
5 113 63 73 38 66
5 86 116 68 94 88
5 105 51 32 60 53
5 23 52 34 50 96
5 46 73 118 107 86
5 94 58 61 100 119
5 56 83 95 94 60
5 22 69 72 88 20
5 46 106 87 90 72
5 104 57 11 7 17
5 104 16 59 14 108
5 69 116 21 98 44
5 58 15 67 56 108
5 55 17 60 81 114
5 116 50 48 47 85
5 16 119 42 40 15
5 19 66 90 107 45
5 30 59 95 57 81
5 116 105 82 52 81
5 89 82 119 45 56
5 88 47 118 44 82
5 47 17 12 105 59
5 84 45 22 12 46
5 89 12 63 15 90
5 47 15 80 81 45

# Cells
7 0 1 2 3 4 5 6
7 7 8 9 10 11 12 13
7 14 15 16 17 18 19 20
7 21 22 23 24 25 26 27
7 28 29 30 31 32 33 34
7 35 36 37 38 39 40 41
7 42 43 44 45 46 47 48
7 49 50 51 52 53 54 55
7 56 57 58 59 60 61 62
7 63 64 65 66 67 68 69
7 70 71 72 73 74 75 76
7 77 78 79 80 81 82 83
7 84 85 86 87 88 89 90
7 91 92 93 94 95 96 97
7 98 99 100 101 102 103 104
7 105 106 107 108 109 110 111
7 112 113 114 115 116 117 118
7 119 120 121 122 123 124 125
7 126 127 128 129 130 131 132
7 133 134 135 136 137 138 139
7 140 141 142 143 144 145 146
7 147 148 149 150 151 152 153
7 154 155 156 157 158 159 160
7 161 162 163 164 165 166 167
7 53 168 169 170 171 172 173
7 174 175 176 177 178 179 180
7 18 181 182 183 184 185 186
7 67 187 188 189 190 191 192
7 193 194 195 196 197 198 199
7 130 200 201 202 203 204 205
7 206 207 208 209 210 211 212
7 195 213 214 215 216 217 218
7 219 220 221 222 223 224 225
7 10 226 227 228 229 230 231
7 134 232 233 234 235 236 237
7 238 239 240 241 242 243 244
7 245 246 247 248 249 250 251
7 252 253 254 255 256 257 258
7 190 259 260 261 262 263 264
7 265 266 267 268 269 270 271
7 95 179 272 273 274 275 276
7 158 225 277 278 279 280 281
7 282 283 284 285 286 287 288
7 101 212 289 290 291 292 293
7 59 294 295 296 297 298 299
7 172 300 301 302 303 304 305
7 163 242 306 307 308 309 310
7 46 311 312 313 314 315 316
7 247 317 318 319 320 321 322
7 122 323 324 325 326 327 328
7 25 329 330 331 332 333 334
7 266 335 336 337 338 339 340
7 314 341 342 343 344 345 346
7 282 347 348 349 350 351 352
7 115 353 354 355 356 357 358
7 299 359 360 361 362 363 364
7 2 365 366 367 368 369 370
7 29 371 372 373 374 375 376
7 254 377 378 379 380 381 382
7 3 383 384 385 386 387 388
7 37 389 390 391 392 393 394
7 150 270 395 396 397 398 399
7 400 401 402 403 404 405 406
7 38 407 408 409 410 411 412
7 22 413 414 415 416 417 418
7 231 419 420 421 422 423 424
7 144 248 425 426 427 428 429
7 32 430 431 432 433 434 435
7 219 436 437 438 439 440 441
7 402 442 443 444 445 446 447
7 184 448 449 450 451 452 453
7 238 454 455 456 457 458 459
7 73 446 460 461 462 463 464
7 121 465 466 467 468 469 470
7 411 471 472 473 474 475 476
7 72 405 477 478 479 480 481
7 88 257 482 483 484 485 486
7 207 487 488 489 490 491 492
7 114 493 494 495 496 497 498
7 79 286 499 500 501 502 503
7 205 504 505 506 507 508 509
7 393 472 510 511 512 513 514
7 175 515 516 517 518 519 520
7 235 521 522 523 524 525 526
7 357 527 528 529 530 531 532
7 149 339 533 534 535 536 537
7 85 379 538 539 540 541 542
7 326 543 544 545 546 547 548
7 360 549 550 551 552 553 554
7 376 555 556 557 558 559 560
7 141 319 561 562 563 564 565
7 341 566 567 568 569 570 571
7 109 217 572 573 574 575 576
7 80 351 577 578 579 580 581
7 332 582 583 584 585 586 587
7 106 196 588 589 590 591 592
7 496 527 593 594 595 596 597
7 416 582 598 599 600 601 602
7 300 603 604 605 606 607 608
7 468 544 609 610 611 612 613
7 15 614 615 616 617 618 619
7 127 620 621 622 623 624 625
7 435 557 626 627 628 629 630
7 9 631 632 633 634 635 636
7 43 571 637 638 639 640 641
7 260 642 643 644 645 646 647
7 137 648 649 650 651 652 653
7 58 551 654 655 656 657 658
7 64 644 659 660 661 662 663
7 448 617 664 665 666 667 668
7 92 517 669 670 671 672 673
7 50 606 674 675 676 677 678
7 387 679 680 681 682 683 684
7 155 438 685 686 687 688 689
7 419 635 690 691 692 693 694
7 368 679 695 696 697 698 699
7 504 623 700 701 702 703 704
7 100 491 705 706 707 708 709
7 164 456 710 711 712 713 714
7 523 651 715 716 717 718 719
7 0 720 721 722 723 724 725
7 7 726 727 728 729 730 731
7 14 732 733 734 735 736 737
7 21 738 739 740 741 742 743
7 28 744 745 746 747 748 749
7 35 750 751 752 753 754 755
7 42 756 757 758 759 760 761
7 49 762 763 764 765 766 767
7 56 768 769 770 771 772 773
7 63 774 775 776 777 778 779
7 70 780 781 782 783 784 785
7 77 786 787 788 789 790 791
7 84 792 793 794 795 796 797
7 91 798 799 800 801 802 803
7 98 804 805 806 807 808 809
7 105 810 811 812 813 814 815
7 112 816 817 818 819 820 821
7 119 822 823 824 825 826 827
7 126 828 829 830 831 832 833
7 133 834 835 836 837 838 839
7 140 840 841 842 843 844 845
7 147 846 847 848 849 850 851
7 154 852 853 854 855 856 857
7 161 858 859 860 861 862 863
7 173 864 865 866 867 868 869
7 180 825 870 871 872 873 874
7 186 875 876 877 878 879 880
7 192 881 882 883 884 885 886
7 199 746 887 888 889 890 891
7 203 892 893 894 895 896 897
7 210 819 898 899 900 901 902
7 216 740 903 904 905 906 907
7 222 763 908 909 910 911 912
7 229 876 913 914 915 916 917
7 237 918 919 920 921 922 923
7 243 775 924 925 926 927 928
7 250 758 929 930 931 932 933
7 258 849 886 934 935 936 937
7 264 789 923 938 939 940 941
7 271 771 942 943 944 945 946
7 276 928 947 948 949 950 951
7 281 952 953 954 955 956 957
7 285 842 868 958 959 960 961
7 292 912 962 963 964 965 966
7 297 967 968 969 970 971 972
7 303 794 897 973 974 975 976
7 309 977 978 979 980 981 982
7 315 983 984 985 986 987 988
7 321 723 989 990 991 992 993
7 328 978 994 995 996 997 998
7 334 946 999 1000 1001 1002 1003
7 337 720 1004 1005 1006 1007 1008
7 345 726 1009 1010 1011 1012 1013
7 350 830 1014 1015 1016 1017 1018
7 358 953 1019 1020 1021 1022 1023
7 362 734 1024 1025 1026 1027 1028
7 370 968 1029 1030 1031 1032 1033
7 375 932 1034 1035 1036 1037 1038
7 381 835 1039 1040 1041 1042 1043
7 386 985 1044 1045 1046 1047 1048
7 394 864 1049 1050 1051 1052 1053
7 399 891 1054 1055 1056 1057 1058
7 406 729 1059 1060 1061 1062 1063
7 410 881 1064 1065 1066 1067 1068
7 417 1069 1070 1071 1072 1073 1074
7 423 854 972 1075 1076 1077 1078
7 429 906 1079 1080 1081 1082 1083
7 433 1071 1084 1085 1086 1087 1088
7 439 780 1089 1090 1091 1092 1093
7 445 733 1094 1095 1096 1097 1098
7 453 858 986 1099 1100 1101 1102
7 458 783 1103 1104 1105 1106 1107
7 463 901 1108 1109 1110 1111 1112
7 469 919 1113 1114 1115 1116 1117
7 475 804 980 1118 1119 1120 1121
7 481 874 1122 1123 1124 1125 1126
7 486 1107 1127 1128 1129 1130 1131
7 492 829 1132 1133 1134 1135 1136
7 498 893 1137 1138 1139 1140 1141
7 503 1092 1127 1142 1143 1144 1145
7 509 753 1088 1146 1147 1148 1149
7 512 800 957 1150 1151 1152 1153
7 519 836 1154 1155 1156 1157 1158
7 525 750 1073 1159 1160 1161 1162
7 531 811 915 1163 1164 1165 1166
7 536 1012 1167 1168 1169 1170 1171
7 541 1034 1172 1173 1174 1175 1176
7 548 812 879 1177 1178 1179 1180
7 554 807 997 1181 1182 1183 1184
7 560 853 1032 1185 1186 1187 1188
7 565 1028 1189 1190 1191 1192 1193
7 568 799 1021 1194 1195 1196 1197
7 575 1017 1198 1199 1200 1201 1202
7 580 1000 1203 1204 1205 1206 1207
7 587 861 1046 1208 1209 1210 1211
7 592 1042 1212 1213 1214 1215 1216
7 595 768 1205 1217 1218 1219 1220
7 600 822 1221 1222 1223 1224 1225
7 607 745 1226 1227 1228 1229 1230
7 611 757 1174 1231 1232 1233 1234
7 618 964 1235 1236 1237 1238 1239
7 625 1097 1189 1240 1241 1242 1243
7 629 816 1244 1245 1246 1247 1248
7 636 947 1249 1250 1251 1252 1253
7 641 1135 1199 1254 1255 1256 1257
7 646 739 1258 1259 1260 1261 1262
7 653 1063 1169 1263 1264 1265 1266
7 658 1157 1212 1267 1268 1269 1270
7 662 1108 1247 1271 1272 1273 1274
7 666 846 1066 1275 1276 1277 1278
7 672 1007 1279 1280 1281 1282 1283
7 677 1122 1224 1284 1285 1286 1287
7 682 786 1115 1288 1289 1290 1291
7 689 1079 1261 1292 1293 1294 1295
7 692 841 1052 1296 1297 1298 1299
7 699 793 1139 1300 1301 1302 1303
7 704 776 1252 1304 1305 1306 1307
7 709 992 1279 1308 1309 1310 1311
7 714 1054 1230 1312 1313 1314 1315
7 719 764 1238 1316 1317 1318 1319
7 363 951 1320 1321 1322 1323 1324
7 177 1058 1325 1326 1327 1328 1329
7 424 895 1330 1331 1332 1333 1334
7 628 1193 1335 1336 1337 1338 1339
7 380 982 1340 1341 1342 1343 1344
7 305 1002 1345 1346 1347 1348 1349
7 683 1086 1350 1351 1352 1353 1354
7 403 1311 1355 1356 1357 1358 1359
7 198 1145 1360 1361 1362 1363 1364
7 476 916 1365 1366 1367 1368 1369
7 645 1176 1370 1371 1372 1373 1374
7 586 1265 1375 1376 1377 1378 1379
7 288 1022 1380 1381 1382 1383 1384
7 489 1294 1385 1386 1387 1388 1389
7 667 1116 1390 1391 1392 1393 1394
7 570 1237 1395 1396 1397 1398 1399
7 508 1125 1400 1401 1402 1403 1404
7 244 869 1405 1406 1407 1408 1409
7 320 1216 1410 1411 1412 1413 1414
7 612 971 1415 1416 1417 1418 1419
7 441 1067 1420 1421 1422 1423 1424
7 717 1273 1425 1426 1427 1428 1429
7 532 1047 1430 1431 1432 1433 1434
7 269 1256 1435 1436 1437 1438 1439
7 279 993 1440 1441 1442 1443 1444
7 454 741 1328 1445 1446 1447 1448
7 44 1138 1354 1449 1450 1451 1452
7 135 877 1419 1453 1454 1455 1456
7 252 765 1364 1457 1458 1459 1460
7 579 1043 1461 1462 1463 1464 1465
7 204 940 1462 1466 1467 1468 1469
7 434 909 1470 1471 1472 1473 1474
7 480 1101 1475 1476 1477 1478 1479
7 312 890 1480 1481 1482 1483 1484
7 23 1030 1338 1485 1486 1487 1488
7 510 831 1407 1489 1490 1491 1492
7 388 936 1493 1494 1495 1496 1497
7 652 1151 1458 1498 1499 1500 1501
7 333 1178 1502 1503 1504 1505 1506
7 214 818 1439 1474 1507 1508 1509
7 390 1262 1510 1511 1512 1513 1514
7 99 983 1393 1443 1515 1516 1517
7 221 728 1383 1479 1518 1519 1520
7 71 920 1373 1521 1522 1523 1524
7 495 1093 1525 1526 1527 1528 1529
7 348 722 1349 1530 1531 1532 1533
7 182 1136 1451 1534 1535 1536 1537
7 148 1070 1426 1482 1538 1539 1540
7 549 848 1413 1541 1542 1543 1544
7 17 1049 1334 1545 1546 1547 1548
7 573 1027 1503 1549 1550 1551 1552
7 298 900 1525 1553 1554 1555 1556
7 275 1160 1511 1557 1558 1559 1560
7 564 1010 1531 1561 1562 1563 1564
7 291 873 1524 1565 1566 1567 1568
7 690 781 1322 1569 1570 1571 1572
7 113 1250 1401 1573 1574 1575 1576
7 4 995 1323 1577 1578 1579 1580
7 543 801 1341 1581 1582 1583 1584
7 535 927 1494 1585 1586 1587 1588
7 157 1203 1433 1513 1589 1590 1591
7 483 1248 1592 1593 1594 1595 1596
7 516 756 1357 1597 1598 1599 1600
7 234 945 1488 1601 1602 1603 1604
7 52 1241 1358 1605 1606 1607 1608
7 593 747 1331 1609 1610 1611 1612
7 31 883 1344 1613 1614 1615 1616
7 675 1121 1470 1617 1618 1619 1620
7 259 859 1422 1504 1621 1622 1623
7 230 930 1480 1624 1625 1626 1627
7 398 1302 1593 1628 1629 1630 1631
7 663 1016 1446 1632 1633 1634 1635
7 128 1036 1412 1636 1637 1638 1639
7 415 961 1607 1640 1641 1642 1643
7 449 770 1366 1631 1644 1645 1646
7 712 1234 1475 1647 1648 1649 1650
7 65 952 1369 1596 1651 1652 1653
7 245 787 1389 1496 1654 1655 1656
7 78 1284 1376 1528 1657 1658 1659
7 188 1062 1456 1660 1661 1662 1663
7 604 837 1404 1664 1665 1666 1667
7 708 1218 1490 1668 1669 1670 1671
7 470 904 1599 1640 1672 1673 1674
7 171 1187 1441 1675 1676 1677 1678
7 343 823 1432 1560 1679 1680 1681
7 93 1109 1386 1586 1682 1683 1684
7 366 1197 1575 1685 1686 1687 1688
7 640 1298 1584 1689 1690 1691 1692
7 619 1104 1542 1693 1694 1695 1696
7 356 1183 1565 1697 1698 1699 1700
7 632 1278 1561 1701 1702 1703 1704
7 208 752 1399 1469 1705 1706 1707
7 143 962 1423 1550 1708 1709 1710
7 107 1167 1396 1463 1711 1712 1713
7 336 732 1379 1555 1714 1715 1716
7 325 1319 1546 1717 1718 1719 1720
7 591 1223 1610 1717 1721 1722 1723
7 310 1096 1534 1724 1725 1726 1727
7 542 1005 1665 1685 1728 1729 1730
7 695 840 1416 1731 1732 1733 1734
7 461 976 1637 1694 1735 1736 1737
7 11 1267 1327 1738 1739 1740 1741
7 700 805 1337 1742 1743 1744 1745
7 39 1312 1346 1704 1746 1747 1748
7 427 1149 1616 1690 1749 1750 1751
7 555 810 1372 1698 1752 1753 1754
7 671 1078 1499 1755 1756 1757 1758
7 123 1128 1408 1759 1760 1761 1762
7 622 1166 1632 1739 1763 1764 1765
7 521 792 1392 1676 1766 1767 1768
7 60 1080 1361 1756 1769 1770 1771
7 165 1280 1436 1618 1772 1773 1774
7 599 774 1351 1725 1775 1776 1777
7 372 1211 1578 1778 1779 1780 1781
7 688 1227 1570 1778 1782 1783 1784
7 502 1305 1660 1732 1785 1786 1787
7 412 1156 1601 1744 1788 1789 1790
7 655 1291 1669 1760 1791 1792 1793
7 87 1198 1382 1649 1794 1795 1796
7 443 852 1429 1625 1797 1798 1799
7 514 878 1320 1800 1801 1802 1803
7 255 998 1325 1804 1805 1806 1807
7 352 956 1330 1808 1809 1810 1811
7 694 1140 1335 1812 1813 1814 1815
7 452 921 1340 1816 1817 1818 1819
7 215 1131 1345 1820 1821 1822 1823
7 608 1206 1350 1824 1825 1826 1827
7 552 1253 1355 1828 1829 1830 1831
7 262 1038 1360 1832 1833 1834 1835
7 346 965 1365 1836 1837 1838 1839
7 698 1072 1370 1840 1841 1842 1843
7 518 1315 1375 1844 1845 1846 1847
7 209 1083 1380 1848 1849 1850 1851
7 558 1243 1385 1852 1853 1854 1855
7 601 1170 1390 1856 1857 1858 1859
7 444 1283 1395 1860 1861 1862 1863
7 459 1053 1400 1864 1865 1866 1867
7 223 885 1405 1868 1869 1870 1871
7 547 1031 1410 1872 1873 1874 1875
7 597 987 1415 1876 1877 1878 1879
7 524 1111 1420 1880 1881 1882 1883
7 702 1287 1425 1884 1885 1886 1887
7 338 1202 1430 1888 1889 1890 1891
7 249 1270 1435 1892 1893 1894 1895
7 361 817 1444 1875 1896 1897 1898
7 432 937 1448 1899 1900 1901 1902
7 581 990 1452 1903 1904 1905 1906
7 316 872 1454 1907 1908 1909 1910
7 478 941 1460 1911 1912 1913 1914
7 610 738 1465 1818 1915 1916 1917
7 24 866 1468 1810 1918 1919 1920
7 74 892 1472 1825 1921 1922 1923
7 151 948 1478 1865 1924 1925 1926
7 378 721 1483 1833 1927 1928 1929
7 497 889 1486 1900 1930 1931 1932
7 563 911 1492 1933 1934 1935 1936
7 136 1001 1497 1891 1914 1937 1938
7 102 1124 1501 1846 1936 1939 1940
7 45 1056 1506 1822 1941 1942 1943
7 202 933 1509 1944 1945 1946 1947
7 627 762 1514 1843 1948 1949 1950
7 537 1025 1517 1929 1951 1952 1953
7 273 902 1519 1922 1954 1955 1956
7 418 925 1522 1957 1958 1959 1960
7 643 828 1527 1880 1905 1961 1962
7 295 907 1532 1963 1964 1965 1966
7 318 727 1536 1854 1910 1967 1968
7 678 1041 1539 1969 1970 1971 1972
7 650 1180 1544 1970 1973 1974 1975
7 280 1061 1548 1950 1976 1977 1978
7 421 759 1552 1803 1979 1980 1981
7 129 913 1554 1878 1982 1983 1984
7 51 977 1558 1800 1985 1986 1987
7 94 967 1563 1812 1988 1989 1990
7 240 735 1567 1807 1991 1992 1993
7 660 1153 1572 1958 1994 1995 1996
7 392 1134 1576 1945 1997 1998 1999
7 185 943 1579 1964 2000 2001 2002
7 706 1102 1583 1942 2003 2004 2005
7 473 834 1587 1868 2006 2007 2008
7 576 1246 1591 1917 2009 2010 2011
7 506 788 1595 1815 2012 2013 2014
7 384 1184 1600 1903 2015 2016 2017
7 193 824 1603 1894 1960 2018 2019
7 634 1090 1606 1911 2020 2021 2022
7 540 1018 1611 2023 2024 2025 2026
7 236 974 1614 2024 2027 2028 2029
7 665 782 1620 1838 2030 2031 2032
7 397 1162 1623 1919 2033 2034 2035
7 1 1020 1626 1837 2036 2037 2038
7 81 1214 1630 1804 2039 2040 2041
7 142 1084 1635 1885 1965 2042 2043
7 369 960 1638 1933 2044 2045 2046
7 436 744 1642 1848 1971 2047 2048
7 589 1013 1645 1925 2049 2050 2051
7 681 847 1650 1877 2052 2053 2054
7 293 1147 1653 1898 2055 2056 2057
7 330 1188 1656 2038 2058 2059 2060
7 713 1260 1659 2031 2058 2061 2062
7 174 751 1662 1831 2029 2063 2064
7 467 1106 1667 1908 2065 2066 2067
7 108 1190 1671 1828 2026 2068 2069
7 30 1045 1673 1859 1947 2070 2071
7 116 1143 1678 1871 2072 2073 2074
7 308 1008 1680 1990 2075 2076 2077
7 624 1119 1683 2003 2078 2079 2080
7 487 769 1687 1861 1931 2081 2082
7 156 1309 1692 1893 1996 2083 2084
7 66 1264 1696 1862 1902 2085 2086
7 16 1255 1700 1851 1974 2087 2088
7 716 798 1702 1856 1998 2089 2090
7 169 1098 1706 1983 2091 2092 2093
7 464 1077 1710 1992 2094 2095 2096
7 673 1232 1713 2007 2097 2098 2099
7 228 1158 1715 1976 2100 2101 2102
7 400 860 1719 1886 2001 2103 2104
7 162 1172 1722 1872 2105 2106 2107
7 8 1064 1726 1817 2108 2109 2110
7 57 1113 1729 1840 2101 2111 2112
7 687 1220 1734 2040 2094 2113 2114
7 283 777 1736 1821 2079 2115 2116
7 327 1196 1740 1955 2117 2118 2119
7 616 1299 1745 1951 2120 2121 2122
7 485 1317 1748 2053 2092 2123 2124
7 301 855 1751 1866 2125 2126 2127
7 638 1303 1754 2073 2097 2128 2129
7 529 806 1758 1809 2130 2131 2132
7 191 1210 1762 2014 2076 2133 2134
7 566 843 1764 1888 2021 2135 2136
7 500 1225 1767 1986 2137 2138 2139
7 374 1164 1770 2050 2126 2140 2141
7 657 1277 1774 2033 2131 2142 2143
7 408 1229 1776 2055 2106 2144 2145
7 265 795 1780 1845 2045 2146 2147
7 86 1272 1784 1853 2066 2148 2149
7 36 1293 1787 1834 2121 2150 2151
7 120 1236 1789 1883 2016 2152 2153
7 583 813 1793 1826 2118 2154 2155
7 428 1289 1796 1980 2138 2156 2157
7 355 1307 1799 2009 2110 2158 2159
7 54 772 1324 1839 2160 2161 2162
7 82 802 1329 1819 2163 2164 2165
7 26 730 1332 1849 2166 2167 2168
7 96 748 1339 1811 2169 2170 2171
7 13 797 1343 1858 2172 2173 2174
7 47 766 1347 1832 2175 2176 2177
7 75 724 1353 1820 2178 2179 2180
7 110 784 1359 1802 2181 2182 2183
7 41 815 1362 1842 2184 2185 2186
7 6 755 1368 1860 2187 2188 2189
7 62 779 1374 1827 2190 2191 2192
7 103 742 1377 1805 2193 2194 2195
7 20 791 1381 1852 2196 2197 2198
7 90 809 1388 1814 2199 2200 2201
7 34 737 1391 1844 2202 2203 2204
7 69 761 1397 1830 2205 2206 2207
7 152 832 1403 1870 2208 2209 2210
7 118 862 1406 1882 2211 2212 2213
7 167 845 1414 1879 2214 2215 2216
7 132 827 1417 1890 2217 2218 2219
7 125 857 1421 1884 2220 2221 2222
7 145 838 1428 1864 2223 2224 2225
7 139 821 1431 1892 2226 2227 2228
7 160 851 1438 1873 2229 2230 2231
7 546 1091 1442 1982 2232 2233 2234
7 494 981 1445 2028 2235 2236 2237
7 642 1009 1450 1963 2198 2238 2239
7 317 1159 1455 2075 2207 2240 2241
7 633 1175 1457 1959 2242 2243 2244
7 451 959 1464 2070 2245 2246 2247
7 395 1240 1466 2048 2225 2248 2249
7 272 1035 1471 2116 2200 2250 2251
7 588 1110 1476 2008 2206 2252 2253
7 263 1195 1484 2111 2254 2255 2256
7 488 1221 1487 2023 2227 2257 2258
7 367 1068 1489 2096 2259 2260 2261
7 477 1029 1493 2019 2191 2262 2263
7 561 918 1498 1993 2221 2264 2265
7 705 1069 1502 1928 2204 2266 2267
7 391 1215 1507 2046 2268 2269 2270
7 697 1120 1512 1921 2271 2272 2273
7 377 898 1516 2100 2231 2274 2275
7 324 1295 1518 2080 2276 2277 2278
7 194 1094 1523 2144 2195 2279 2280
7 526 1165 1529 2042 2281 2282 2283
7 183 1144 1530 2141 2284 2285 2286
7 559 1276 1537 1988 2287 2288 2289
7 437 1004 1540 2065 2176 2290 2291
7 676 970 1541 1909 2292 2293 2294
7 626 1099 1547 1954 2222 2295 2296
7 513 888 1551 2036 2297 2298 2299
7 168 1268 1553 2136 2182 2300 2301
7 499 1281 1557 2032 2194 2302 2303
7 306 1081 1562 2132 2230 2304 2305
7 256 1133 1568 2108 2306 2307 2308
7 414 917 1569 2057 2309 2310 2311
7 715 1217 1574 1934 2188 2312 2313
7 401 1300 1580 2049 2203 2314 2315
7 621 1117 1581 1953 2306 2316 2317
7 224 944 1588 2152 2318 2319 2320
7 609 908 1590 1944 2185 2321 2322
7 693 1040 1594 1918 2323 2324 2325
7 578 950 1597 2002 2305 2326 2327
7 251 1318 1604 2105 2292 2328 2329
7 567 1226 1608 1994 2167 2330 2331
7 233 1023 1609 2157 2323 2332 2333
7 176 1185 1615 2137 2224 2272 2334
7 344 975 1619 2085 2295 2335 2336
7 656 1274 1621 1972 2318 2337 2338
7 329 1249 1624 2082 2171 2339 2340
7 685 1168 1628 1916 2228 2285 2341
7 294 882 1633 2127 2186 2342 2343
7 267 1304 1639 2113 2180 2324 2344
7 211 1209 1643 2148 2321 2345 2346
7 373 1239 1644 2099 2297 2347 2348
7 596 926 1648 1937 2315 2349 2350
7 359 938 1652 2091 2201 2282 2351
7 711 1192 1654 1932 2343 2345 2352
7 664 1014 1658 1899 2213 2353 2354
7 553 1259 1663 1985 2309 2355 2356
7 313 867 1664 2134 2302 2357 2358
7 538 963 1668 1981 2197 2269 2359
7 200 994 1672 2147 2215 2360 2361
7 637 1285 1675 1962 2179 2332 2362
7 189 1257 1679 2143 2266 2349 2363
7 284 1154 1684 2120 2209 2355 2364
7 447 1290 1688 2068 2274 2326 2365
7 659 984 1689 1897 2189 2277 2366
7 430 875 1693 2064 2174 2337 2367
7 648 1137 1697 1968 2219 2347 2368
7 602 1076 1703 1939 2240 2369 2370
7 484 1310 1705 2022 2265 2335 2371
7 239 929 1709 2158 2183 2288 2372
7 471 903 1712 2015 2165 2328 2373
7 278 1057 1714 2119 2252 2369 2374
7 703 1233 1720 1924 2279 2357 2375
7 407 1200 1721 2054 2177 2236 2376
7 353 1313 1724 2090 2210 2310 2377
7 226 1129 1728 2155 2164 2293 2378
7 462 1048 1731 2011 2232 2339 2379
7 218 1060 1737 2150 2242 2353 2380
7 584 1296 1741 2004 2218 2299 2381
7 534 896 1742 1978 2287 2301 2382
7 680 1150 1747 1912 2173 2320 2383
7 457 991 1750 2072 2259 2330 2384
7 670 1087 1752 1906 2254 2361 2385
7 349 871 1757 2087 2276 2312 2386
7 505 1177 1761 2034 2192 2247 2387
7 340 1148 1765 2083 2238 2268 2388
7 426 1266 1766 2062 2245 2262 2389
7 302 1181 1771 2128 2170 2233 2390
7 528 1103 1773 1973 2161 2308 2391
7 290 1003 1775 2124 2248 2271 2392
7 520 1245 1781 2039 2235 2290 2393
7 465 954 1782 2013 2212 2243 2394
7 614 1204 1785 1949 2168 2260 2395
7 383 1050 1788 2104 2162 2316 2396
7 605 1026 1792 1941 2257 2284 2397
7 420 934 1795 2059 2216 2256 2398
7 574 1126 1797 1999 2251 2281 2399
7 311 924 1674 1901 2160 2400 2401
7 181 887 1556 1946 2163 2402 2403
7 289 973 1790 2067 2166 2404 2405
7 577 1024 1495 1975 2169 2406 2407
7 413 1118 1634 1935 2172 2408 2409
7 187 942 1727 2102 2175 2410 2411
7 572 1146 1699 2122 2178 2412 2413
7 389 989 1467 2060 2181 2414 2415
7 365 1089 1564 1956 2184 2416 2417
7 460 1163 1783 2025 2187 2418 2419
7 674 1231 1500 2005 2190 2420 2421
7 482 1059 1677 2159 2193 2422 2423
7 371 1194 1723 2077 2196 2424 2425
7 631 1258 1477 2035 2199 2426 2427
7 669 1288 1691 2114 2202 2428 2429
7 654 1316 1629 2139 2205 2430 2431
7 277 870 1627 2017 2208 2432 2433
7 232 958 1730 1966 2211 2434 2435
7 493 1039 1473 1913 2214 2436 2437
7 533 1075 1695 1995 2217 2438 2439
7 620 1275 1670 2051 2220 2440 2441
7 710 1244 1505 2129 2223 2442 2443
7 425 1208 1786 2145 2226 2444 2445
7 323 1132 1559 2093 2229 2446 2447
7 201 725 1613 1938 2234 2448 2449
7 138 905 1716 1979 2237 2450 2451
7 364 894 1566 1867 2239 2439 2452
7 241 914 1735 1808 2241 2409 2453
7 27 910 1533 1896 2244 2454 2455
7 431 839 1651 1940 2246 2456 2457
7 220 922 1367 1907 2249 2410 2458
7 347 966 1434 1952 2250 2432 2459
7 511 988 1333 1904 2253 2403 2460
7 296 749 1708 1923 2255 2461 2462
7 382 969 1585 1801 2258 2420 2463
7 76 1015 1666 1915 2261 2448 2464
7 213 884 1384 2056 2263 2423 2462
7 455 955 1348 2010 2264 2415 2465
7 253 880 1409 1977 2267 2447 2457
7 5 899 1681 1991 2270 2463 2466
7 479 743 1453 1943 2273 2467 2468
7 422 1044 1749 1824 2275 2419 2469
7 131 1011 1612 1927 2278 2470 2471
7 474 1114 1755 1876 2280 2440 2451
7 562 785 1515 1926 2283 2458 2472
7 33 1006 1777 2006 2286 2473 2474
7 274 833 1521 1920 2289 2475 2476
7 613 1085 1549 1813 2291 2429 2455
7 48 935 1508 2012 2294 2469 2477
7 178 865 1602 1823 2296 2401 2478
7 385 736 1759 2086 2298 2473 2479
7 342 1112 1394 1957 2300 2404 2480
7 450 1074 1418 1930 2303 2435 2481
7 594 1171 1352 1969 2304 2400 2482
7 227 826 1769 2071 2307 2470 2483
7 104 1105 1598 2052 2311 2467 2484
7 322 949 1481 1806 2313 2407 2485
7 197 979 1641 1869 2314 2436 2486
7 153 1152 1447 1948 2317 2475 2487
7 466 778 1794 2043 2319 2465 2488
7 507 999 1661 1847 2322 2405 2489
7 331 820 1577 2088 2325 2450 2490
7 19 931 1707 2125 2327 2453 2491
7 307 773 1682 1984 2329 2492 2493
7 647 1191 1461 1874 2331 2443 2471
7 146 1228 1743 2030 2333 2456 2494
7 287 1065 1763 1836 2334 2417 2495
7 661 808 1589 2069 2336 2460 2496
7 55 1100 1491 1967 2338 2492 2497
7 206 1037 1424 2027 2340 2444 2476
7 545 1141 1321 1997 2341 2416 2498
7 603 1201 1378 2098 2342 2406 2499
7 440 1173 1617 1816 2344 2426 2474
7 539 844 1711 1989 2346 2459 2500
7 97 1219 1571 1961 2348 2461 2501
7 649 760 1545 2084 2350 2498 2502
7 304 1019 1779 1889 2351 2434 2503
7 117 939 1520 2063 2352 2452 2504
7 630 1123 1440 1829 2354 2412 2497
7 170 731 1636 2037 2356 2454 2505
7 68 1155 1798 2130 2358 2495 2502
7 691 1207 1402 2061 2359 2437 2506
7 335 1082 1398 2095 2360 2413 2493
7 261 1033 1342 2000 2362 2425 2468
7 61 1222 1733 2047 2363 2488 2507
7 668 1271 1647 1841 2364 2430 2464
7 590 803 1538 1987 2365 2480 2508
7 550 1051 1326 2123 2366 2427 2479
7 515 1130 1437 2156 2367 2442 2483
7 246 996 1363 2133 2368 2431 2449
7 707 850 1449 2041 2370 2481 2509
7 12 1161 1646 2018 2371 2485 2510
7 530 1235 1791 1857 2372 2424 2484
7 684 1263 1592 1887 2373 2445 2487
7 124 1095 1768 2115 2374 2486 2511
7 396 767 1485 2074 2375 2477 2512
7 696 1286 1336 2020 2376 2408 2513
7 522 1242 1371 2044 2377 2418 2512
7 598 1282 1427 2078 2378 2438 2514
7 111 1297 1543 2089 2379 2472 2515
7 409 796 1772 2112 2380 2499 2510
7 490 1213 1526 1835 2381 2414 2507
7 159 1182 1655 2154 2382 2503 2509
7 404 1055 1535 1895 2383 2433 2516
7 354 754 1738 2153 2384 2466 2517
7 83 1179 1459 2103 2385 2489 2508
7 615 856 1746 2149 2386 2506 2511
7 268 1142 1686 1850 2387 2402 2518
7 686 814 1657 2107 2388 2482 2519
7 166 1301 1582 2081 2389 2500 2516
7 569 1292 1701 1881 2390 2446 2494
7 718 1308 1510 1855 2391 2422 2501
7 89 1306 1753 2135 2392 2496 2518
7 501 863 1605 2109 2393 2504 2514
7 701 1314 1356 2142 2394 2421 2517
7 556 1251 1411 2117 2395 2441 2490
7 442 1269 1387 2140 2396 2428 2505
7 639 790 1573 2151 2397 2491 2513
7 585 1254 1718 1863 2398 2411 2515
7 40 1186 1622 2146 2399 2478 2519
