# Generated using Miratope v0.5.0 (https://github.com/galoomba1/miratope-rs)
4OFF

# Vertices, Faces, Edges, Cells
120 2520 1200 720

# Vertices
0.809016994374945 -0.809016994374945 -0.809016994374945 0.809016994374945 
0 -1.61803398874989 0 0 
0 0 -1.61803398874989 0 
0.809016994374945 0 0.5 1.30901699437495 
-0.809016994374945 -0.809016994374945 -0.809016994374945 -0.809016994374945 
-1.30901699437495 0.5 0 -0.809016994374945 
0 -0.809016994374945 1.30901699437495 0.5 
-0.5 1.30901699437495 -0.809016994374945 0 
0 1.30901699437495 0.5 0.809016994374945 
-0.809016994374945 0.5 1.30901699437495 0 
0.809016994374945 -0.809016994374945 0.809016994374945 0.809016994374945 
-0.809016994374945 -0.809016994374945 0.809016994374945 0.809016994374945 
0.809016994374945 0.5 1.30901699437495 0 
-0.809016994374945 -0.809016994374945 -0.809016994374945 0.809016994374945 
0.809016994374945 0.5 -1.30901699437495 0 
-0.809016994374945 0.5 -1.30901699437495 0 
0.809016994374945 1.30901699437495 0 -0.5 
-0.809016994374945 1.30901699437495 0 -0.5 
0.809016994374945 -0.809016994374945 0.809016994374945 -0.809016994374945 
0.809016994374945 -0.809016994374945 -0.809016994374945 -0.809016994374945 
-0.809016994374945 -0.809016994374945 0.809016994374945 -0.809016994374945 
1.30901699437495 0 0.809016994374945 0.5 
1.30901699437495 0 -0.809016994374945 0.5 
-1.30901699437495 0 0.809016994374945 0.5 
-1.30901699437495 0 -0.809016994374945 0.5 
0 0.5 0.809016994374945 1.30901699437495 
0 0.5 -0.809016994374945 1.30901699437495 
-0.809016994374945 0.809016994374945 -0.809016994374945 0.809016994374945 
-0.809016994374945 0.809016994374945 -0.809016994374945 -0.809016994374945 
0 1.30901699437495 0.5 -0.809016994374945 
0 -1.30901699437495 0.5 0.809016994374945 
0 -1.30901699437495 0.5 -0.809016994374945 
0.5 0 1.30901699437495 0.809016994374945 
0.5 0 1.30901699437495 -0.809016994374945 
0.809016994374945 0.809016994374945 -0.809016994374945 0.809016994374945 
0.809016994374945 0.809016994374945 -0.809016994374945 -0.809016994374945 
-0.5 0.809016994374945 0 1.30901699437495 
-0.5 0.809016994374945 0 -1.30901699437495 
-0.5 -0.809016994374945 0 1.30901699437495 
-0.5 -0.809016994374945 0 -1.30901699437495 
-1.30901699437495 0.809016994374945 0.5 0 
-1.30901699437495 -0.809016994374945 0.5 0 
0 0 1.61803398874989 0 
1.30901699437495 0.5 0 -0.809016994374945 
-0.809016994374945 0 -0.5 1.30901699437495 
0.5 1.30901699437495 0.809016994374945 0 
0 -0.809016994374945 -1.30901699437495 0.5 
0 1.30901699437495 -0.5 0.809016994374945 
-0.809016994374945 0.809016994374945 0.809016994374945 -0.809016994374945 
-1.61803398874989 0 0 0 
0 0 0 -1.61803398874989 
0 0.809016994374945 1.30901699437495 0.5 
0.5 -1.30901699437495 -0.809016994374945 0 
-0.809016994374945 0 0.5 1.30901699437495 
1.30901699437495 -0.5 0 -0.809016994374945 
0.5 -0.809016994374945 0 1.30901699437495 
0 0 0 1.61803398874989 
0.5 1.30901699437495 -0.809016994374945 0 
0 -0.809016994374945 1.30901699437495 -0.5 
1.30901699437495 0.5 0 0.809016994374945 
-0.809016994374945 0 0.5 -1.30901699437495 
1.30901699437495 0 0.809016994374945 -0.5 
0.5 0.809016994374945 0 -1.30901699437495 
0.809016994374945 0.809016994374945 0.809016994374945 0.809016994374945 
1.61803398874989 0 0 0 
-0.5 1.30901699437495 0.809016994374945 0 
0 -0.809016994374945 -1.30901699437495 -0.5 
0.809016994374945 0 -0.5 -1.30901699437495 
-1.30901699437495 0.5 0 0.809016994374945 
-1.30901699437495 0 -0.809016994374945 -0.5 
0 0.809016994374945 -1.30901699437495 0.5 
-0.5 -1.30901699437495 0.809016994374945 0 
0.809016994374945 0 -0.5 1.30901699437495 
-1.30901699437495 -0.5 0 -0.809016994374945 
0 1.61803398874989 0 0 
0.809016994374945 0 0.5 -1.30901699437495 
-1.30901699437495 -0.5 0 0.809016994374945 
0 0.809016994374945 1.30901699437495 -0.5 
-0.5 -1.30901699437495 -0.809016994374945 0 
-0.809016994374945 -0.5 1.30901699437495 0 
-0.809016994374945 0.809016994374945 0.809016994374945 0.809016994374945 
0.5 0.809016994374945 0 1.30901699437495 
0.5 -0.809016994374945 0 -1.30901699437495 
1.30901699437495 0.809016994374945 -0.5 0 
1.30901699437495 -0.809016994374945 -0.5 0 
0.809016994374945 0.809016994374945 0.809016994374945 -0.809016994374945 
0 1.30901699437495 -0.5 -0.809016994374945 
0 -1.30901699437495 -0.5 0.809016994374945 
0 -1.30901699437495 -0.5 -0.809016994374945 
-0.5 0 -1.30901699437495 0.809016994374945 
-0.5 0 -1.30901699437495 -0.809016994374945 
1.30901699437495 0 -0.809016994374945 -0.5 
-1.30901699437495 0 0.809016994374945 -0.5 
0 -0.5 0.809016994374945 -1.30901699437495 
0 -0.5 -0.809016994374945 -1.30901699437495 
0.809016994374945 -0.5 1.30901699437495 0 
0.809016994374945 -0.5 -1.30901699437495 0 
-0.809016994374945 -0.5 -1.30901699437495 0 
0.809016994374945 -1.30901699437495 0 0.5 
-0.809016994374945 -1.30901699437495 0 0.5 
1.30901699437495 -0.5 0 0.809016994374945 
-0.809016994374945 0 -0.5 -1.30901699437495 
0 0.809016994374945 -1.30901699437495 -0.5 
0.5 -1.30901699437495 0.809016994374945 0 
-0.809016994374945 1.30901699437495 0 0.5 
1.30901699437495 -0.809016994374945 0.5 0 
0.809016994374945 1.30901699437495 0 0.5 
-1.30901699437495 -0.809016994374945 -0.5 0 
-0.5 0 1.30901699437495 0.809016994374945 
0 0.5 -0.809016994374945 -1.30901699437495 
0 -0.5 -0.809016994374945 1.30901699437495 
-0.5 0 1.30901699437495 -0.809016994374945 
0.809016994374945 -1.30901699437495 0 -0.5 
-1.30901699437495 0.809016994374945 -0.5 0 
1.30901699437495 0.809016994374945 0.5 0 
-0.809016994374945 -1.30901699437495 0 -0.5 
0 -0.5 0.809016994374945 1.30901699437495 
0.5 0 -1.30901699437495 -0.809016994374945 
0 0.5 0.809016994374945 -1.30901699437495 
0.5 0 -1.30901699437495 0.809016994374945 

# Faces
4 0 2 4 1
4 1 6 3 0
5 3 0 2 7 8
5 6 1 4 5 9
4 4 5 7 2
4 8 3 6 9
4 9 8 7 5
4 10 0 13 11
5 12 10 0 14 16
4 11 10 12 9
4 0 14 15 13
5 9 11 13 15 17
4 16 12 9 17
4 17 15 14 16
4 18 20 4 19
4 19 18 21 22
5 20 18 21 25 23
5 4 24 26 22 19
4 20 23 24 4
4 25 26 22 21
4 25 23 24 26
4 28 4 13 27
4 27 28 29 8
5 8 27 13 30 32
5 29 28 4 31 33
4 13 30 31 4
4 8 29 33 32
4 33 31 30 32
4 35 19 0 34
5 35 37 40 36 34
4 34 36 38 0
4 35 19 39 37
5 19 39 41 38 0
4 36 40 41 38
4 37 39 41 40
4 42 11 1 18
4 18 43 45 42
5 1 46 14 43 18
5 45 42 11 44 47
4 1 46 44 11
4 47 45 43 14
4 44 46 14 47
4 49 48 50 4
4 49 48 51 53
5 51 48 50 54 21
5 53 49 4 52 55
4 4 52 54 50
4 21 51 53 55
4 21 54 52 55
4 27 56 11 49
4 27 57 59 56
5 57 27 49 60 62
5 11 58 61 59 56
4 49 60 58 11
4 61 62 57 59
4 61 58 60 62
4 63 64 0 56
5 63 64 67 37 65
4 63 65 68 56
4 0 66 67 64
5 56 0 66 69 68
4 65 37 69 68
4 37 67 66 69
4 64 35 50 18
4 64 35 70 72
5 35 50 73 24 70
5 72 64 18 71 38
4 50 73 71 18
4 72 70 24 38
4 38 71 73 24
4 35 2 27 74
4 74 77 75 35
5 35 2 78 31 75
5 74 77 79 76 27
4 2 27 76 78
4 77 75 31 79
4 76 78 31 79
4 48 20 11 80
5 81 80 48 62 83
4 11 80 81 55
4 20 82 62 48
5 11 20 82 84 55
4 83 84 55 81
4 84 83 62 82
4 85 63 10 18
4 85 63 47 86
5 10 63 47 89 87
5 18 85 86 90 88
4 10 87 88 18
4 47 89 90 86
4 89 90 88 87
4 34 27 80 63
4 34 63 61 91
5 63 61 93 92 80
5 27 69 94 91 34
4 27 69 92 80
4 91 94 93 61
4 92 69 94 93
4 35 85 48 28
5 95 85 35 96 98
4 48 85 95 79
4 35 96 97 28
5 28 97 99 79 48
4 95 98 99 79
4 98 99 97 96
4 63 74 48 42
5 74 63 100 96 102
4 63 100 103 42
4 48 74 102 101
5 48 101 88 103 42
4 100 96 88 103
4 102 101 88 96
4 49 20 1 13
5 20 33 45 104 49
4 20 33 105 1
4 13 26 104 49
5 13 1 105 59 26
4 45 33 105 59
4 59 45 104 26
4 64 19 1 10
4 10 25 106 64
5 1 10 25 68 107
5 64 19 90 7 106
4 1 19 90 107
4 106 25 68 7
4 7 68 107 90
4 34 2 13 56
5 56 108 77 16 34
4 2 34 16 109
4 13 56 108 41
5 13 2 109 60 41
4 16 109 60 77
4 77 108 41 60
4 19 50 28 2
4 2 19 98 110
5 50 19 98 6 111
5 2 110 53 40 28
4 28 40 111 50
4 6 53 110 98
4 6 53 40 111
4 64 85 74 34
4 85 64 112 93
5 74 113 73 93 85
5 64 112 78 89 34
4 34 74 113 89
4 89 78 73 113
4 112 93 73 78
4 80 49 28 74
4 80 74 114 32
5 32 80 49 115 103
5 74 114 54 94 28
4 28 49 115 94
4 114 32 103 54
4 54 94 115 103
4 42 20 50 85
5 42 116 72 83 85
4 50 85 83 117
4 20 99 116 42
5 50 117 46 99 20
4 83 72 46 117
4 116 99 46 72
4 10 42 80 56
5 10 42 118 67 84
4 10 84 119 56
4 80 17 118 42
5 80 56 119 102 17
4 84 67 102 119
4 17 102 67 118
4 42 21 106 65
4 21 42 71 98
5 42 65 113 107 71
5 21 106 70 46 98
4 65 113 70 106
4 71 107 46 98
4 70 113 107 46
4 27 81 51 40
5 81 100 52 97 27
4 27 97 73 40
4 81 100 95 51
5 51 95 31 73 40
4 100 52 31 95
4 52 97 73 31
4 63 77 58 10
4 63 77 17 47
4 58 10 87 115
4 47 89 69 17
5 77 17 69 115 58
4 87 115 69 89
4 80 49 15 47
4 32 59 47 80
4 49 115 66 15
4 32 59 84 103
5 84 59 47 15 66
4 103 115 66 84
4 28 48 45 57
4 48 79 32 45
4 28 57 119 97
5 57 45 32 55 119
4 99 55 32 79
4 55 99 97 119
4 48 104 25 42
4 48 104 15 101
4 42 103 55 25
5 55 25 104 15 46
4 55 103 88 46
4 46 88 101 15
4 63 108 40 74
4 63 100 30 108
4 74 102 69 40
4 96 78 30 100
5 30 108 40 69 78
4 96 102 69 78
4 72 36 108 10
4 10 72 96 112
5 10 108 92 39 112
5 113 36 72 96 90
4 108 92 113 36
4 92 39 90 113
4 112 39 90 96
5 74 70 110 116 51
4 74 51 111 37
4 74 37 90 70
4 51 116 71 111
4 110 78 71 116
5 111 71 78 90 37
4 70 90 78 110
5 81 104 28 117 22
4 104 23 73 28
4 117 28 73 88
4 81 116 98 22
4 116 81 104 23
5 98 116 23 73 88
4 98 88 117 22
4 25 65 92 11
4 11 87 72 25
5 92 101 66 87 11
5 25 72 14 86 65
4 72 14 66 87
4 65 92 101 86
4 14 66 101 86
4 56 80 79 30
4 80 17 60 79
4 119 56 30 52
4 17 102 94 60
5 30 79 60 94 52
4 102 94 52 119
4 64 34 8 12
4 34 89 68 8
4 12 64 112 58
5 58 12 8 68 41
4 78 41 58 112
4 89 78 41 68
4 18 98 3 12
5 18 39 5 65 12
4 98 78 39 18
4 3 36 65 12
5 3 36 24 78 98
4 36 65 5 24
4 24 78 39 5
4 34 7 29 114
5 34 110 30 95 114
4 34 110 24 7
4 114 95 111 29
4 111 41 30 95
5 29 111 41 24 7
4 110 24 41 30
4 2 24 104 57
5 57 114 105 52 2
4 2 52 99 24
4 51 114 105 6
4 51 104 57 114
5 51 104 24 99 6
4 105 6 99 52
4 20 118 12 6
4 6 20 107 38
5 20 118 86 15 107
5 106 12 6 38 26
4 12 118 86 106
4 106 26 15 86
4 26 38 107 15
4 56 0 105 32
4 0 105 82 66
4 68 9 32 56
5 32 105 82 60 9
4 68 69 60 9
4 69 60 82 66
4 49 17 109 4
4 4 52 91 109
4 53 8 17 49
4 8 53 55 59
5 8 59 91 109 17
4 55 52 91 59
4 20 5 68 11
4 55 11 68 26
4 20 5 109 82
4 26 55 84 14
5 68 26 14 109 5
4 14 84 82 109
4 50 29 9 20
4 99 53 9 20
4 29 50 117 57
5 53 9 29 57 26
4 99 53 26 46
4 117 57 26 46
4 27 34 3 53
4 34 91 105 3
4 27 53 41 69
5 3 53 41 31 105
4 94 31 105 91
4 69 41 31 94
5 3 22 35 29 51
4 35 90 46 22
4 35 29 5 90
4 3 51 23 38
4 3 38 46 22
4 51 23 5 29
5 23 38 46 90 5
4 1 38 108 58
4 1 38 89 66
5 58 1 66 109 118
5 108 65 7 89 38
4 108 58 118 65
4 65 118 109 7
4 7 109 66 89
4 85 74 81 21
4 93 103 21 85
4 74 113 44 81
5 81 44 99 103 21
4 73 99 44 113
4 103 93 73 99
4 74 27 119 83
4 76 87 119 27
4 74 77 61 83
5 61 83 119 87 103
4 79 103 61 77
4 103 79 76 87
4 63 72 44 80
4 63 72 84 61
4 80 92 107 44
4 61 84 88 93
5 84 72 44 107 88
4 93 92 107 88
4 100 56 47 83
5 100 56 76 115 112
4 56 76 113 47
4 100 83 67 112
5 113 47 83 67 101
4 113 101 115 76
4 112 115 101 67
4 48 73 76 80
4 80 81 110 76
4 48 73 94 62
4 83 96 110 81
4 62 83 96 94
5 76 110 96 94 73
5 44 23 48 86 70
4 86 67 93 48
4 48 23 71 93
4 23 71 87 44
4 70 96 87 44
4 86 67 96 70
5 96 67 93 71 87
4 83 54 95 63
4 63 36 70 83
5 95 71 76 36 63
5 54 88 97 70 83
4 95 54 88 71
4 36 76 97 70
4 76 71 88 97
4 77 95 116 80
4 80 77 37 113
5 116 80 113 97 87
5 95 77 37 94 112
4 116 95 112 87
4 113 37 94 97
4 112 87 97 94
4 42 92 37 85
4 85 37 102 83
4 42 116 76 92
4 83 102 89 72
4 72 116 76 89
5 76 89 102 37 92
4 45 80 116 21
4 80 45 86 113
5 45 21 84 117 86
4 116 87 84 21
4 84 87 97 117
4 86 113 97 117
4 11 115 93 42
4 44 97 115 11
4 45 62 93 42
4 47 45 62 102
4 44 97 102 47
5 62 93 115 97 102
4 49 79 116 44
4 49 79 93 101
5 49 44 119 117 101
5 100 116 79 93 54
4 100 116 44 119
4 100 119 117 54
4 54 117 101 93
4 56 8 114 100
4 56 8 40 76
5 40 8 114 75 60
4 100 114 75 112
4 76 115 60 40
4 75 112 115 60
4 18 64 16 118
4 18 71 92 118
4 64 16 47 72
5 16 47 68 92 118
4 72 47 68 38
4 38 71 92 68
4 85 54 22 106
5 106 85 111 23 36
4 54 85 111 31
4 106 22 110 36
4 36 23 99 110
5 54 31 99 110 22
4 111 31 99 23
4 28 24 36 74
4 94 78 24 28
4 36 74 114 3
4 114 3 98 54
4 94 78 98 54
4 85 106 14 67
4 111 39 67 85
4 106 36 89 14
4 23 36 89 107
4 23 107 39 111
5 14 67 39 107 89
5 75 91 0 30 58
4 91 102 89 0
4 89 0 30 76
4 91 102 37 75
4 58 92 37 75
4 58 92 76 30
4 99 44 15 4
4 99 103 82 4
5 43 82 4 15 57
4 81 57 43 21
4 103 82 43 21
4 57 81 44 15
4 13 11 103 52
4 11 9 33 103
4 15 13 52 117
4 33 9 17 62
5 103 33 62 117 52
4 17 62 117 15
4 49 44 25 9
4 49 101 118 9
5 59 25 9 118 43
4 119 59 25 44
4 117 43 59 119
4 43 117 101 118
4 13 66 102 27
4 27 8 16 102
4 13 66 112 30
4 32 61 16 8
4 30 112 61 32
5 61 112 66 102 16
4 50 35 114 33
4 35 114 81 70
4 73 79 33 50
5 81 114 33 79 53
4 24 53 81 70
4 73 79 53 24
4 23 42 10 38
4 84 46 38 10
4 42 23 5 118
4 67 90 46 84
4 118 5 90 67
5 43 106 104 5 50
4 43 84 88 50
4 107 5 50 88
4 106 72 84 43
4 72 106 104 44
4 104 44 107 5
4 110 27 49 99
4 57 22 110 27
4 60 31 99 49
4 57 22 54 62
4 62 54 31 60
4 13 68 47 119
4 92 115 13 68
5 119 91 82 115 13
4 47 16 91 119
4 16 118 82 91
4 118 82 115 92
4 10 61 82 1
4 10 25 45 61
4 107 101 82 1
4 68 17 45 25
5 61 45 17 101 82
4 68 17 101 107
4 13 53 81 119
4 13 53 79 115
4 119 81 114 91
4 82 33 114 91
4 82 33 79 115
4 86 43 33 48
4 48 33 6 23
5 43 33 6 55 22
4 86 43 22 70
4 70 22 55 44
4 55 44 23 6
4 95 75 16 63
4 16 63 36 7
5 16 75 39 69 7
4 71 39 75 95
4 76 69 7 36
4 71 39 69 76
4 7 35 85 65
4 108 95 85 65
4 96 89 7 35
4 98 38 108 95
4 98 38 89 96
5 64 3 108 111 75
4 96 64 3 110
4 94 75 64 96
4 3 110 76 108
4 76 108 111 73
4 75 94 73 111
4 18 6 51 85
4 51 85 86 104
4 18 6 99 88
4 104 86 90 24
4 99 88 90 24
4 11 107 89 56
4 11 107 39 58
4 59 14 89 56
4 67 61 59 14
4 39 58 61 67
4 28 62 91 2
4 28 62 77 40
4 110 100 91 2
5 100 32 77 62 91
4 53 32 100 110
4 53 32 77 40
4 13 69 39 1
4 13 69 7 26
4 1 39 75 105
4 105 75 16 59
4 26 7 16 59
4 111 18 1 41
4 18 111 29 43
4 1 41 24 46
4 7 14 43 29
4 14 7 24 46
4 19 75 60 4
4 114 22 19 75
4 4 60 40 24
4 114 22 26 8
4 24 40 8 26
4 31 50 43 105
4 41 5 50 31
4 43 105 3 106
4 3 106 104 53
4 53 104 5 41
4 43 19 0 59
4 59 0 38 25
4 19 43 118 39
4 38 25 9 41
4 118 39 41 9
4 26 0 91 57
4 26 0 30 53
4 30 53 9 58
4 29 75 58 9
4 29 75 91 57
4 68 15 4 41
4 82 58 41 4
4 57 8 12 43
4 58 82 43 12
4 8 57 15 68
4 19 46 55 105
5 19 109 29 12 105
4 15 109 19 46
4 55 105 12 25
4 12 25 104 29
4 104 15 109 29
4 55 13 2 22
4 55 13 41 6
4 43 109 2 22
4 33 60 109 43
4 6 41 60 33
4 78 19 105 30
4 78 19 109 69
4 30 105 12 108
4 29 40 108 12
4 69 109 29 40
4 35 106 26 2
4 106 35 75 12
4 78 38 26 2
4 12 75 31 6
4 31 6 38 78
4 26 3 64 14
4 14 64 75 109
4 68 108 3 26
4 111 5 68 108
4 75 109 5 111
4 88 20 49 97
4 20 88 54 33
4 49 97 70 104
4 70 104 45 83
4 33 54 83 45
4 27 17 45 81
4 101 97 27 17
4 81 45 61 100
4 100 61 82 52
4 52 82 101 97
4 61 118 20 103
4 20 103 87 107
4 118 61 83 86
4 119 15 86 83
4 107 87 119 15
4 16 65 42 61
4 71 112 61 42
4 16 65 113 102
4 107 66 102 113
4 66 107 71 112
4 102 34 114 62
4 110 97 102 34
4 95 93 62 114
4 93 95 30 115
4 30 115 97 110
4 90 50 48 113
4 51 36 113 48
4 90 50 54 96
4 51 36 72 21
4 54 96 72 21
4 116 63 64 98
4 65 23 116 63
4 98 64 67 88
4 23 65 37 73
4 88 67 37 73
4 100 34 35 54
4 36 116 100 34
4 93 37 35 54
4 116 36 40 79
4 40 79 93 37
4 96 34 56 87
4 34 96 67 16
4 87 56 108 71
4 77 93 67 16
4 77 93 71 108
4 67 18 20 101
4 18 67 83 21
4 20 101 113 23
4 25 47 83 21
4 47 25 23 113
4 77 92 11 32
4 87 100 32 11
4 87 100 91 66
4 101 62 77 92
4 66 91 62 101
4 33 51 74 62
4 62 74 70 117
4 33 51 116 103
4 110 52 103 116
4 70 117 52 110
4 69 2 57 17
4 69 2 52 115
4 58 105 114 77
4 114 77 17 57
4 52 115 58 105
4 18 84 59 12
4 39 66 84 18
4 65 47 59 12
4 5 15 47 65
4 66 39 5 15
4 70 28 4 46
4 28 70 106 29
4 46 4 31 98
4 29 106 21 33
4 21 33 31 98
4 64 95 31 19
4 73 90 19 31
4 64 95 51 106
4 51 106 7 40
4 90 73 40 7
4 78 0 10 71
4 10 71 111 12
4 78 0 14 90
4 111 12 16 37
4 37 16 14 90
4 94 2 0 112
4 0 112 95 3
4 37 7 2 94
4 3 95 77 8
4 77 8 7 37
4 1 84 117 4
4 86 5 4 117
4 84 1 6 21
4 21 6 9 45
4 86 5 9 45
4 9 104 28 60
4 28 60 82 117
4 105 22 81 32
4 104 9 32 81
4 105 22 117 82
4 58 32 55 1
4 119 66 1 55
4 118 45 32 58
4 57 109 118 45
4 109 57 119 66
4 10 59 8 108
4 91 112 10 59
4 92 17 8 108
4 112 91 109 39
4 17 92 39 109
4 22 52 94 35
4 29 60 94 35
4 79 51 3 30
4 22 52 30 3
4 29 60 79 51
4 14 19 50 86
4 72 98 19 14
4 50 86 65 111
4 72 98 6 25
4 6 25 65 111
4 1 107 89 0
5 2 110 96 89 0
5 4 99 88 107 1
4 2 110 99 4
4 88 99 110 96
4 96 89 107 88
5 0 10 72 98 3
4 10 11 44 72
4 3 53 13 0
5 11 13 53 99 44
4 98 3 53 99
4 99 44 72 98
4 18 19 78 71
5 20 103 93 71 18
5 4 52 94 78 19
4 52 4 20 103
4 93 103 52 94
4 93 71 78 94
4 28 73 76 27
5 27 13 68 89 76
5 4 28 73 90 5
4 5 68 13 4
4 89 68 5 90
4 90 73 76 89
5 83 70 35 34 102
4 66 0 34 102
4 35 19 46 70
5 66 0 19 46 84
4 84 46 70 83
4 83 84 66 102
4 116 42 18 98
5 18 98 31 105 1
5 11 32 79 116 42
4 105 1 11 32
4 79 32 105 31
4 79 116 98 31
4 48 93 115 49
5 50 48 93 37 111
5 49 115 69 41 4
4 111 50 4 41
4 37 69 41 111
4 69 37 93 115
4 27 56 108 40
5 49 27 40 24 104
5 11 25 38 108 56
4 49 104 25 11
4 25 38 24 104
4 108 38 24 40
5 63 83 21 106 64
4 119 56 63 83
4 64 106 26 0
5 55 119 56 0 26
4 55 26 106 21
4 55 21 83 119
4 35 94 112 64
5 62 117 50 35 94
5 64 112 61 84 18
4 50 117 84 18
4 62 117 84 61
4 62 94 112 61
4 74 113 90 35
5 35 2 109 14 90
5 47 113 74 27 17
4 27 17 109 2
4 47 14 109 17
4 47 113 90 14
5 80 48 51 40 77
4 58 77 80 11
4 51 48 20 6
5 58 11 20 6 41
4 40 41 6 51
4 41 58 77 40
4 100 63 85 54
5 63 100 32 59 10
5 43 33 54 85 18
4 18 43 59 10
4 32 59 43 33
4 33 54 100 32
4 65 7 34 63
5 65 25 45 80 63
5 57 27 34 7 26
4 27 57 45 80
4 57 26 25 45
4 26 7 65 25
5 75 16 67 85 35
4 101 48 85 67
4 35 75 60 28
5 28 60 17 101 48
4 60 17 16 75
4 67 16 17 101
5 74 63 16 8 114
4 63 16 118 42
4 74 48 33 114
5 33 48 42 118 9
4 9 33 114 8
4 118 9 8 16
5 23 20 49 79 73
4 23 20 1 38
4 30 79 49 13
5 13 30 78 38 1
4 78 30 79 73
4 23 73 78 38
4 87 10 64 96
5 55 1 10 87 103
5 64 19 22 54 96
4 19 1 55 22
4 103 55 22 54
4 54 96 87 103
5 36 72 47 56 34
4 34 36 24 2
4 13 56 47 15
5 13 15 46 24 2
4 72 36 24 46
4 46 15 47 72
4 19 2 69 39
5 19 50 88 67 39
5 28 2 69 102 97
4 28 50 88 97
4 67 39 69 102
4 102 97 88 67
4 86 85 64 14
5 86 85 74 62 45
5 59 91 34 64 14
4 34 74 62 91
4 59 45 62 91
4 86 45 59 14
4 74 80 92 37
5 80 49 9 68 92
5 29 7 37 74 28
4 29 28 49 9
4 68 7 29 9
4 68 92 37 7
5 61 42 85 95 77
4 95 31 50 85
4 82 20 42 61
5 82 20 50 31 60
4 77 61 82 60
4 60 31 95 77
5 42 10 12 6 21
4 10 12 8 56
4 80 42 21 81
5 53 81 80 56 8
4 53 81 21 6
4 8 53 6 12
4 11 107 46 55
4 55 52 115 11
5 76 71 107 11 115
5 110 52 55 46 98
4 98 71 76 110
4 115 52 110 76
4 41 31 52 13
4 41 39 66 13
5 87 97 52 13 66
4 73 97 87 71
4 87 71 39 66
5 73 31 41 39 71
4 46 4 49 44
4 38 41 4 46
4 87 115 49 44
5 46 44 87 89 38
4 41 69 89 38
4 31 19 0 30
4 66 0 30 115
4 99 46 19 31
4 99 103 84 46
5 103 99 31 30 115
4 78 0 56 76
4 26 0 78 24
4 119 97 76 56
4 24 99 55 26
5 99 24 78 76 97
4 94 2 13 115
4 101 15 13 115
4 73 94 2 24
4 46 24 73 88
5 101 115 94 73 88
4 119 13 1 84
4 30 13 119 100
4 38 72 84 1
5 84 72 96 100 119
4 78 38 72 96
4 1 82 117 46
5 39 1 82 115 112
4 1 39 90 46
4 96 97 115 112
5 96 90 46 117 97
4 117 82 115 97
5 110 27 119 44 70
4 27 110 78 69
4 69 27 119 66
4 107 44 119 66
4 107 90 70 44
5 107 66 69 78 90
5 22 2 91 119 117
4 2 22 98 78
4 78 2 91 112
4 119 91 112 87
5 87 112 78 98 88
4 88 87 119 117
4 26 13 52 22
4 66 13 26 14
5 70 22 26 14 72
4 72 70 97 87
4 97 52 22 70
4 14 19 4 15
4 78 89 14 19
4 4 52 119 15
5 15 119 102 89 14
4 89 102 94 78
4 88 20 11 87
4 58 11 87 112
4 6 98 88 20
4 41 6 98 78
4 20 5 24 99
5 92 101 20 5 39
4 99 97 101 20
4 101 97 76 92
4 39 78 76 92
4 68 41 30 56
4 107 68 56 87
5 110 30 56 87 116
4 23 116 110 24
4 23 116 87 107
5 107 23 24 41 68
4 0 105 6 38
5 52 105 0 112 100
4 0 112 71 38
4 71 112 100 116
4 116 100 52 99
5 71 116 99 6 38
4 15 49 53 26
4 49 97 110 53
5 113 107 15 49 97
5 53 26 38 36 110
4 36 113 107 38
4 113 97 110 36
4 90 50 20 107
4 82 66 107 20
4 78 90 50 31
4 78 69 60 31
4 110 34 64 98
4 91 34 110 52
4 14 46 98 64
4 14 59 55 46
4 2 52 54 35
4 90 35 54 88
4 109 82 52 2
4 90 14 84 88
5 52 82 84 88 54
4 34 96 97 27
4 7 90 96 34
4 27 57 117 97
4 90 46 26 7
4 67 18 1 66
4 96 98 18 67
4 1 105 91 66
5 66 91 94 96 67
4 96 94 31 98
5 81 22 3 34 100
4 34 89 38 3
4 34 89 87 100
4 81 100 87 44
4 44 81 22 46
4 70 24 4 117
4 4 24 7 109
5 4 117 101 66 109
5 24 7 89 113 70
4 113 101 117 70
4 89 66 101 113
4 13 69 92 11
4 92 11 44 113
4 53 13 69 40
4 40 73 99 53
5 69 40 73 113 92
4 1 41 108 10
4 87 10 108 76
4 55 1 41 53
5 41 108 76 79 53
4 55 103 79 53
4 1 58 60 4
4 99 4 60 79
4 107 92 58 1
4 99 88 93 79
5 92 58 60 79 93
4 14 0 105 43
4 112 0 14 67
4 100 83 117 52
5 117 43 14 67 83
4 52 117 43 105
4 57 2 0 59
4 89 0 59 47
4 2 110 81 57
5 83 47 59 57 81
4 89 96 83 47
5 86 15 57 28 70
4 94 28 57 91
4 94 28 70 96
4 15 66 91 57
4 66 15 86 67
4 84 10 58 82
4 84 10 71 88
5 58 30 95 71 10
4 54 95 30 52
4 30 58 82 52
4 49 15 109 60
4 94 60 49 97
4 113 37 39 107
5 37 94 60 109 39
4 15 109 39 107
4 81 27 13 55
4 27 76 116 81
4 25 68 13 55
5 116 81 55 25 72
4 68 25 72 89
4 56 30 105 59
4 84 59 56 87
5 22 105 59 84 21
4 21 116 110 22
4 110 30 105 22
4 28 104 26 2
4 28 104 44 97
4 68 69 2 26
5 47 68 26 104 44
4 69 102 47 68
4 54 31 4 117
4 31 75 109 4
5 75 112 93 54 31
4 109 75 112 66
4 101 93 112 66
4 9 11 107 5
4 9 60 115 11
5 9 60 40 111 5
4 40 76 71 111
4 71 111 5 107
4 80 116 99 49
4 116 80 92 71
4 6 9 49 99
4 9 68 38 6
4 42 23 99 103
5 92 108 111 23 42
4 42 103 115 92
4 30 108 111 31
4 108 92 115 30
4 61 10 0 91
4 72 83 61 10
4 3 0 91 114
5 114 91 61 83 54
4 83 54 98 72
5 81 104 106 36 74
4 74 81 119 102
4 74 36 89 102
4 14 106 104 15
4 81 104 15 119
5 75 91 82 43 19
4 90 19 43 86
4 37 90 19 75
4 82 101 86 43
4 102 101 82 91
5 86 101 102 37 90
4 21 98 19 43
4 95 75 19 98
5 98 95 100 103 21
4 100 91 75 95
4 103 82 91 100
4 35 7 5 50
4 69 94 35 7
4 117 50 5 15
4 69 17 62 94
5 7 69 17 15 5
4 8 27 110 3
4 8 27 119 59
5 8 3 106 25 59
4 70 110 3 106
4 106 70 44 25
4 6 18 64 3
4 6 55 84 18
4 112 30 3 64
5 32 30 3 6 55
4 84 61 32 55
4 113 80 56 89
4 81 70 113 80
4 7 89 56 8
4 7 8 53 24
4 4 82 62 28
4 93 73 28 62
4 5 118 82 4
5 82 118 67 93 62
4 67 93 73 90
5 114 57 43 106 35
4 96 35 114 100
4 35 106 72 96
4 57 114 100 119
4 119 57 43 84
4 109 19 64 16
4 22 19 109 57
4 102 16 64 96
5 62 57 109 16 102
4 102 62 54 96
4 2 22 106 7
4 2 91 16 7
4 106 22 117 86
5 86 106 7 16 47
4 47 119 117 86
4 24 28 48 23
4 23 48 101 107
4 41 60 28 24
4 60 17 68 41
4 6 33 82 1
4 6 1 39 111
5 79 33 6 111 95
4 95 112 115 79
4 111 39 112 95
4 32 55 44 80
4 32 80 76 30
5 80 76 36 23 44
4 6 23 36 3
4 3 30 76 36
4 15 44 80 17
4 80 17 69 76
4 5 23 36 7
4 23 5 15 44
4 103 11 56 100
4 25 11 103 21
4 56 100 95 108
4 25 38 98 21
5 58 118 18 111 75
4 73 88 18 111
4 18 88 101 118
4 115 94 75 58
4 58 118 101 115
4 102 27 49 101
4 37 40 27 102
4 104 86 101 49
4 37 40 24 90
4 50 33 105 19
4 19 105 58 39
4 103 88 50 33
5 33 103 61 58 105
4 103 61 67 88
4 63 36 38 10
4 36 63 100 110
4 26 59 10 38
4 26 59 32 53
4 85 21 22 35
4 67 85 21 84
4 35 22 105 75
4 59 84 67 16
4 117 28 74 83
4 117 28 29 43
4 37 67 83 74
4 67 14 7 37
4 72 63 74 70
4 14 16 63 72
4 70 74 114 22
4 14 26 8 16
4 48 79 53 104
5 65 113 48 104 5
4 79 76 113 48
4 113 76 108 65
4 108 65 5 41
4 48 73 71 42
4 73 31 33 48
4 42 118 39 71
4 33 31 41 9
4 10 58 9 25
4 23 71 10 25
4 51 53 30 95
4 51 23 71 95
5 25 9 53 51 23
4 40 28 57 8
4 36 40 28 70
5 68 8 40 36 65
4 86 70 36 65
4 65 68 15 86
5 64 95 114 105 12
4 72 64 12 25
4 64 95 116 72
4 114 81 116 95
4 114 81 55 105
4 39 18 85 37
4 94 37 85 54
4 43 109 39 18
4 94 60 33 54
5 50 86 118 109 29
4 73 40 29 50
4 113 73 50 86
4 86 113 92 118
4 69 109 118 92
4 42 93 112 10
4 10 112 75 12
4 42 21 54 93
4 21 6 31 54
4 63 108 68 47
5 51 3 108 63 116
4 47 63 116 44
4 26 3 51 104
4 51 104 44 116
4 8 34 35 29
4 34 102 17 8
4 35 70 104 29
4 102 17 45 83
5 8 17 45 104 29
4 12 16 34 3
4 34 100 61 16
4 3 22 43 12
5 16 12 43 45 61
4 43 22 81 45
4 50 29 114 54
4 54 83 86 50
4 91 114 29 109
4 91 109 118 61
4 57 104 48 62
4 48 113 102 62
4 109 5 65 16
4 57 109 5 104
4 64 12 118 67
4 67 64 95 93
4 105 82 62 114
4 118 82 105 12
4 114 34 56 32
4 34 36 51 114
4 47 56 32 45
5 114 51 21 45 32
4 47 45 21 72
4 20 118 17 49
4 20 118 65 23
4 17 77 79 49
5 17 118 65 37 77
4 79 77 37 73
4 42 65 68 11
4 8 32 11 68
4 42 65 36 116
4 8 32 79 40
4 12 18 20 9
4 12 18 71 108
4 32 103 20 9
5 77 32 9 12 108
4 32 77 93 103
4 51 74 27 53
4 9 53 27 17
4 51 74 113 23
4 17 9 25 47
4 33 20 5 29
4 20 33 62 101
5 33 29 75 77 62
4 77 92 39 75
4 5 29 75 39
4 58 108 63 61
4 63 116 103 61
4 33 51 3 105
4 105 58 108 3
4 35 37 77 114
4 35 106 65 37
4 106 43 118 65
4 57 17 118 43
4 83 81 51 85
5 12 29 51 85 65
4 85 65 47 83
4 57 29 12 59
4 29 51 81 57
4 64 75 77 63
4 83 63 77 62
4 75 64 106 29
4 62 33 21 83
4 47 80 48 86
4 80 77 16 47
4 51 106 86 48
4 16 7 40 77
4 48 45 43 50
4 48 93 61 45
4 43 50 111 12
4 93 61 16 37
4 25 42 85 106
4 95 3 106 85
4 61 42 25 59
4 59 61 77 8
4 85 111 40 74
4 85 111 5 86
4 62 74 40 60
4 60 9 45 62
4 77 32 81 74
4 77 74 36 108
4 106 36 108 12
4 9 104 106 12
4 18 111 51 21
4 18 118 45 21
4 114 32 58 75
4 114 51 111 75
4 104 45 42 23
4 45 17 92 42
4 29 111 108 8
4 29 104 23 111
4 93 79 51 85
4 93 85 65 92
4 12 65 92 58
4 12 58 60 29
4 95 63 80 79
4 95 63 65 111
4 33 79 80 45
4 45 33 6 25
4 4 50 18 1
4 21 55 1 18
5 106 21 18 50 86
5 4 15 26 55 1
4 4 15 86 50
4 13 4 20 11
4 20 33 32 11
5 59 119 13 11 32
5 43 33 20 4 117
4 119 13 4 117
4 18 20 48 85
4 85 83 84 18
5 85 83 70 113 48
5 46 84 18 20 107
4 48 113 107 20
4 19 35 28 4
5 19 35 106 3 98
4 104 28 35 106
4 19 98 99 4
5 28 4 99 53 104
4 19 0 10 18
4 0 26 25 10
5 18 118 65 25 10
5 7 26 0 19 109
4 19 109 118 18
4 42 48 49 11
4 61 42 48 62
5 48 62 117 97 49
5 84 87 11 42 61
4 11 49 97 87
4 50 35 74 48
5 110 96 35 74 36
4 35 96 88 50
4 23 48 74 36
5 48 23 99 88 50
4 4 49 27 2
5 27 81 32 79 49
4 81 27 2 22
4 4 31 79 49
5 4 2 22 105 31
4 11 1 0 56
5 56 0 91 16 8
4 0 1 82 91
4 9 11 56 8
5 11 9 118 82 1
4 18 64 63 42
4 47 63 64 14
5 113 47 63 42 92
5 64 18 39 90 14
4 18 39 92 42
4 0 64 35 2
4 64 12 29 35
5 2 35 29 40 24
5 38 108 12 64 0
4 2 24 38 0
4 80 27 28 48
5 80 48 93 103 116
4 27 110 116 80
4 93 48 28 94
5 94 28 27 110 52
4 11 80 63 10
5 63 16 67 112 10
4 17 80 63 16
4 10 112 115 11
5 115 11 80 17 101
4 0 34 27 13
4 34 114 105 0
5 27 34 114 77 40
5 0 105 58 41 13
4 13 41 40 27
4 63 34 35 85
4 63 108 111 85
5 63 108 76 89 34
5 35 90 73 111 85
4 89 34 35 90
4 56 63 74 27
5 95 63 74 37 93
4 63 95 30 56
4 69 27 74 37
5 27 56 30 115 69
4 20 50 28 49
4 49 44 70 28
5 54 22 70 28 50
5 49 44 55 103 20
4 54 50 20 103
4 1 10 42 20
4 45 42 10 59
5 66 1 10 59 14
5 42 45 86 101 20
4 1 66 101 20
4 1 19 2 13
5 6 12 43 19 1
4 2 57 43 19
4 6 53 13 1
5 2 57 8 53 13
4 19 50 85 64
5 64 85 65 36 72
4 5 50 85 65
4 64 72 46 19
5 50 5 24 46 19
4 34 64 10 56
5 34 7 37 75 64
4 68 56 34 7
4 10 58 75 64
5 68 56 10 58 92
4 34 2 28 74
4 74 51 3 34
5 78 2 34 3 30
5 74 51 79 73 28
4 78 2 28 73
4 85 42 80 74
4 74 85 67 102
5 85 42 71 88 67
5 80 74 102 97 76
4 80 76 71 42
4 13 56 80 49
5 80 77 61 100 56
4 49 80 77 60
4 13 52 100 56
5 60 49 13 52 82
4 61 10 71 93
5 10 71 107 89 72
5 93 101 102 83 61
4 71 93 101 107
4 102 89 107 101
4 75 64 98 31
4 24 7 37 73
5 73 31 98 110 24
4 31 75 37 73
4 27 69 109 57
5 82 105 59 57 109
4 105 30 115 82
4 82 115 69 109
5 57 114 33 60 28
4 97 28 60 115
4 100 103 33 114
5 103 115 97 119 100
4 103 115 60 33
5 95 114 35 94 31
4 70 35 94 97
5 116 99 97 70 81
4 99 31 95 116
4 94 97 99 31
5 100 54 62 74 81
4 101 113 74 62
4 88 87 100 54
4 88 54 62 101
5 113 101 88 87 44
4 78 39 109 2
4 12 58 30 3
5 12 58 39 109 16
4 78 39 58 30
4 61 112 0 59
5 112 0 89 69 39
5 59 47 17 118 61
4 112 61 118 39
4 69 17 118 39
4 112 10 38 78
4 7 16 67 90
5 38 78 90 7 36
4 112 67 90 78
4 98 72 63 95
4 88 98 95 93
5 90 70 72 98 88
4 88 93 37 90
4 103 87 56 32
5 47 56 87 66 102
5 82 103 32 45 62
4 66 87 103 82
4 82 62 102 66
4 28 29 75 94
5 3 8 29 75 105
4 3 105 52 110
4 52 105 75 94
4 15 5 41 13
4 58 105 43 118
5 118 43 14 15 5
4 41 5 118 58
4 67 84 1 39
5 5 68 38 1 39
5 84 72 47 86 67
4 68 47 86 5
4 39 67 86 5
4 18 39 41 6
5 26 3 6 41 24
4 26 24 90 14
4 41 24 90 39
4 85 111 6 21
5 21 6 99 46 22
4 111 73 99 6
4 46 90 73 99
5 11 107 15 47 25
4 88 107 11 103
5 88 117 83 21 103
4 83 47 15 117
4 117 15 107 88
4 60 29 104 49
5 43 22 26 104 29
4 82 52 22 43
4 82 43 29 60
5 6 31 50 29 51
4 117 52 31 50
4 81 55 6 51
5 117 52 55 81 57
4 52 55 6 31
5 48 104 81 21 33
4 82 101 48 33
4 81 119 84 21
4 84 21 33 82
5 82 101 15 119 84
5 116 98 54 85 51
4 85 54 117 86
4 46 98 116 44
5 117 46 44 104 86
4 46 98 54 117
4 4 31 111 5
4 12 105 22 106
5 7 5 111 12 106
4 31 105 12 111
4 71 38 25 42
5 25 38 46 14 106
4 88 71 38 46
4 14 67 88 46
4 55 13 66 84
5 109 17 68 13 66
5 55 84 43 45 25
4 45 17 109 43
4 66 84 43 109
5 100 34 102 94 112
4 34 102 113 36
5 71 116 36 113 73
4 113 102 94 73
4 71 112 94 73
5 60 69 2 91 75
4 2 69 76 110
5 79 95 100 110 76
4 95 75 60 79
4 79 60 69 76
5 62 91 119 27 17
4 27 17 92 76
4 93 112 91 62
4 92 17 62 93
5 93 92 76 87 112
4 8 34 100 32
5 58 32 8 17 60
4 100 112 58 32
4 58 60 94 112
4 75 112 96 35
4 30 108 36 110
5 75 77 108 30 112
4 96 110 30 112
4 96 100 56 89
4 96 67 61 100
4 77 37 67 61
5 67 37 113 89 96
4 16 77 95 64
5 96 64 95 71 78
5 69 92 77 16 102
4 71 92 77 95
4 92 71 78 69
4 91 0 78 94
4 37 16 8 40
4 94 91 16 37
5 78 94 37 40 76
4 89 34 91 66
5 58 115 66 91 61
4 115 76 108 58
4 66 89 76 115
5 96 83 63 116 87
4 77 79 116 63
5 94 62 77 79 115
4 87 116 79 115
4 94 115 87 96
4 74 114 91 102
5 30 32 114 91 52
4 97 102 91 52
4 52 30 76 97
4 114 34 96 54
4 93 54 114 77
4 93 77 40 73
5 93 73 97 96 54
4 109 60 31 19
4 40 7 26 53
5 31 60 40 53 30
4 109 60 40 7
4 56 68 15 119
4 101 92 58 82
4 15 68 92 101
5 98 38 23 111 18
4 37 111 18 67
4 23 113 89 38
4 111 23 113 37
4 19 98 71 39
4 65 108 3 106
4 98 71 108 3
5 39 71 108 65 37
4 87 11 68 89
4 16 61 84 14
5 68 65 16 14 89
4 87 84 14 89
4 91 59 26 2
5 59 12 9 68 26
4 91 75 12 59
4 9 12 75 60
4 51 21 83 74
4 103 21 51 79
4 88 103 79 73
4 51 114 62 48
5 51 114 22 110 53
4 22 114 62 117
4 117 97 110 22
5 83 45 80 44 119
4 99 44 80 79
4 52 119 83 54
5 54 33 79 99 52
4 52 99 44 119
4 52 4 41 30
5 4 41 9 29 109
4 32 9 29 114
4 30 32 9 41
4 70 106 64 96
5 23 24 70 106 51
4 23 71 78 24
4 78 24 70 96
4 80 92 118 45
4 83 67 118 45
4 67 83 119 66
5 67 118 92 107 66
4 80 116 72 47
4 84 72 116 103
4 84 67 93 103
4 54 95 111 50
5 36 3 95 111 40
4 54 22 3 95
4 3 22 70 36
4 55 53 27 119
5 53 9 33 105 55
4 91 119 55 105
4 105 91 62 33
4 81 57 17 80
4 101 117 57 17
4 101 115 52 117
4 33 54 35 29
4 33 29 40 79
4 99 79 40 24
5 44 72 21 42 23
4 73 23 42 93
4 96 72 44 97
4 97 44 23 73
4 69 66 1 41
4 8 59 14 7
5 7 69 41 108 8
4 66 69 7 14
4 38 107 66 0
4 92 118 12 108
4 38 108 92 107
4 75 16 14 19
5 111 41 78 19 75
4 75 111 65 16
4 41 68 65 111
4 65 63 83 86
4 86 83 96 90
5 86 65 23 107 90
4 90 107 87 96
5 57 15 49 9 45
4 115 49 9 58
4 58 9 45 61
4 61 45 57 91
4 78 19 22 110
4 51 111 41 53
4 110 53 41 78
5 20 6 25 104 5
4 82 105 6 20
4 59 105 6 25
4 57 104 25 59
4 118 43 21 42
4 14 72 21 43
4 14 15 44 72
4 22 43 18 98
4 26 22 98 38
4 104 23 38 26
4 20 88 90 5
4 25 72 70 104
4 90 70 104 5
4 44 11 9 104
4 86 118 9 104
4 86 117 82 118
4 33 9 5 50
4 5 24 53 9
4 55 46 24 53
4 49 99 46 15
4 22 57 45 21
4 46 15 57 22
4 25 45 48 23
4 23 99 55 25
4 55 84 88 99
4 23 20 33 51
4 43 106 51 33
4 43 106 70 117
4 4 46 14 109
4 106 29 9 25
4 109 14 106 29
4 1 107 23 6
4 65 12 43 86
4 12 65 23 6
4 68 9 20 107
4 59 84 46 26
4 68 26 46 107
4 95 85 83 100
4 110 100 83 70
4 70 110 76 113
4 40 53 81 74
4 100 81 53 30
4 30 100 54 31
4 81 27 102 83
4 83 81 32 61
4 79 93 61 32
4 102 119 13 69
4 32 77 16 59
4 119 102 16 59
4 8 114 35 7
4 95 108 8 114
4 108 95 31 41
4 72 87 112 64
4 36 76 87 72
4 65 36 76 92
4 108 65 47 56
4 65 47 102 37
4 102 37 39 66
4 36 3 0 89
4 36 89 69 40
4 40 111 39 69
4 30 13 68 108
4 17 77 108 68
4 77 75 109 17
4 100 63 47 119
4 97 113 47 119
4 92 115 97 113
4 62 57 2 94
4 53 79 77 8
4 57 62 77 8
4 37 85 51 40
4 116 51 40 76
4 76 116 98 78
4 24 28 57 26
4 114 57 26 3
4 6 33 114 3
4 44 49 17 47
4 103 61 59 55
4 59 47 44 55
4 18 21 116 71
4 106 36 116 21
4 113 86 106 36
4 12 106 72 10
4 89 7 106 72
4 7 5 107 89
4 11 25 12 58
4 16 47 25 12
4 109 15 47 16
4 105 3 38 1
4 3 38 68 8
4 8 29 5 68
4 116 42 45 81
4 86 70 81 45
4 101 97 70 86
4 73 48 104 24
4 98 110 81 21
4 24 104 81 110
4 45 104 28 62
4 45 104 53 32
4 53 32 103 99
4 17 60 4 15
4 8 26 55 32
4 15 26 8 17
4 7 90 50 29
4 7 36 51 29
4 51 36 38 6
4 87 44 25 10
4 65 113 44 25
4 65 118 101 113
5 54 93 67 18 50
5 115 52 4 1 66
4 54 93 115 52
4 66 115 93 67
5 11 13 30 76 87
5 20 88 73 31 4
4 31 30 76 73
4 87 88 73 76
5 37 85 48 62 77
5 39 18 20 82 58
4 58 82 62 77
4 37 77 58 39
5 96 35 19 14 67
5 28 4 15 101 97
4 15 14 67 101
4 67 96 97 101
5 18 21 103 61 10
5 52 22 19 0 91
4 22 52 103 21
4 91 61 103 52
5 49 48 73 40 60
5 42 71 108 58 11
4 58 108 40 60
4 73 71 108 40
5 74 102 16 7 35
5 118 101 48 50 5
4 5 118 16 7
4 118 101 102 16
5 113 76 27 49 44
5 4 46 90 78 2
4 44 113 90 46
4 78 90 113 76
5 56 0 3 110 100
5 1 6 99 103 11
4 99 6 3 110
4 100 110 99 103
5 45 42 63 77 32
5 18 64 75 105 43
4 32 45 43 105
4 105 75 77 32
5 57 2 35 70 117
5 64 72 84 59 0
4 59 57 117 84
4 72 84 117 70
5 48 80 92 65 23
5 27 69 7 24 28
4 24 23 65 7
4 92 65 7 69
5 10 12 3 95 63
5 80 11 9 53 79
4 12 3 53 9
4 3 95 79 53
5 27 34 36 70 81
5 55 13 0 38 46
4 55 46 70 81
4 46 38 36 70
5 47 63 34 8 59
5 86 43 29 35 85
4 59 8 29 43
4 47 86 43 59
5 63 74 51 106 65
5 68 56 27 53 26
4 53 26 106 51
4 68 26 106 65
5 37 94 28 50 90
5 107 20 49 115 92
4 107 92 37 90
4 94 115 92 37
5 1 105 30 112 10
5 93 42 20 33 79
4 105 30 79 33
4 79 93 112 30
5 19 98 88 84 1
5 2 13 119 97 110
4 119 97 88 84
4 98 110 97 88
5 64 85 83 61 16
5 109 19 50 117 82
4 61 83 117 82
4 16 61 82 109
5 34 64 106 22 114
5 32 56 10 25 55
4 114 22 55 32
4 25 55 22 106
5 26 2 34 89 14
5 74 113 86 104 28
4 14 26 104 86
4 113 86 14 89
5 85 42 118 12 111
5 80 74 40 8 17
4 12 111 40 8
4 12 118 17 8
5 56 108 36 116 80
5 24 41 13 49 99
4 36 108 41 24
4 116 36 24 99
4 82 60 41 1
5 107 1 41 78 71
5 93 101 82 60 94
4 41 78 94 60
4 20 118 109 4
4 20 118 67 88
5 67 37 75 109 118
4 50 19 78 73
4 50 117 97 73
5 115 97 73 78 69
5 60 33 50 111 75
4 71 111 50 88
4 75 111 71 112
5 88 103 115 112 71
5 19 31 94 112 39
4 46 19 39 107
4 112 87 107 39
5 97 99 46 107 87
5 75 91 62 54 35
4 75 39 90 35
4 91 66 39 75
5 88 90 39 66 101
4 98 18 20 99
4 82 52 99 20
5 78 98 99 52 30
4 31 19 43 33
5 61 118 43 33 62
4 94 31 33 62
4 4 82 91 2
4 82 84 46 4
5 82 91 112 67 84
4 19 75 58 1
4 61 84 1 58
5 61 93 95 75 58
4 31 105 0 78
5 0 78 96 87 66
5 103 82 105 31 54
4 31 78 96 54
4 64 96 88 18
4 43 117 88 18
5 96 94 52 117 88
4 79 48 50 31
4 79 115 101 48
5 79 115 58 41 31
5 60 4 5 39 69
4 60 4 117 62
5 102 62 117 86 67
4 60 69 102 62
4 49 101 66 13
4 101 49 99 88
4 11 92 39 1
4 92 11 103 93
5 93 73 111 39 92
5 15 13 69 89 107
4 69 13 52 94
4 94 69 89 96
4 85 93 94 35
4 85 86 101 93
5 31 6 18 71 95
4 71 18 84 87
4 71 95 100 87
5 52 55 84 87 100
5 114 95 85 21 33
4 85 67 112 95
4 95 112 91 114
5 64 98 54 100 112
4 64 14 66 112
4 112 100 119 66
5 117 46 14 66 119
4 103 54 85 42
4 42 103 82 118
4 0 112 115 13
4 103 115 13 55
4 54 94 2 22
5 2 94 102 66 109
5 83 54 22 43 84
4 54 83 102 94
4 5 109 2 24
5 73 24 5 107 113
4 109 66 107 5
4 4 99 23 5
5 76 71 23 99 79
4 5 23 71 39
5 29 109 17 62 28
4 29 111 73 28
4 29 109 39 111
4 12 6 98 64
5 58 32 33 6 12
4 98 6 33 54
4 46 72 10 1
4 1 105 22 46
5 72 46 22 110 96
4 105 19 35 114
4 59 105 19 14
5 59 61 100 114 105
4 9 118 18 6
5 118 9 60 77 92
4 6 31 60 9
4 57 28 50 43
4 50 43 14 90
5 14 16 91 57 43
4 4 24 38 1
4 24 110 52 4
5 38 24 110 76 89
4 38 10 58 41
5 98 38 10 87 116
4 41 31 98 38
4 0 89 90 19
4 19 22 70 90
5 89 102 97 70 90
4 18 50 29 12
4 12 18 67 16
5 114 77 16 12 29
4 48 86 15 49
4 86 48 73 90
5 90 86 15 109 7
4 40 28 4 41
4 97 76 40 28
5 92 68 41 40 76
5 23 111 41 9 20
4 9 17 101 20
4 69 17 9 41
5 69 17 101 113 37
4 42 21 55 11
4 55 11 58 105
5 55 105 3 98 21
4 2 52 100 34
4 52 2 26 55
4 21 54 35 106
5 106 21 45 59 12
4 21 45 62 54
4 18 111 108 10
4 77 61 10 108
5 111 108 77 79 51
4 67 102 34 64
4 67 86 106 64
5 119 44 72 89 56
4 78 30 56 89
4 78 89 72 98
4 23 116 103 20
5 32 30 95 116 103
4 95 116 23 111
4 15 66 0 26
5 26 24 70 44 15
4 15 44 87 66
5 74 83 45 57 114
4 114 75 37 74
4 75 114 57 109
4 64 95 30 0
4 30 0 59 32
4 10 84 83 63
4 10 12 43 84
4 3 98 96 34
5 119 91 34 96 83
4 96 98 21 83
4 35 37 69 2
4 37 113 70 35
4 42 65 5 20
4 37 93 42 65
5 40 29 5 65 37
5 44 23 38 68 11
4 69 68 11 115
4 68 69 78 38
4 28 117 119 27
4 117 46 24 28
4 53 6 20 49
4 53 30 115 49
5 53 30 108 38 6
4 45 86 50 33
4 60 33 45 17
5 17 45 86 65 16
4 91 34 7 109
4 109 15 119 91
5 48 45 9 29 51
4 48 51 95 93
4 51 29 75 95
4 107 1 55 44
5 53 55 44 116 110
4 71 107 44 116
5 42 25 6 51 116
4 116 100 61 42
4 116 100 114 51
4 63 16 91 100
5 63 100 81 21 72
4 81 100 91 57
4 119 87 10 59
5 26 59 119 81 22
4 119 81 116 87
5 68 17 49 104 5
4 102 97 49 17
4 68 17 102 89
4 77 60 28 74
4 77 92 113 74
4 113 80 11 107
4 79 73 113 80
5 15 57 27 102 47
4 96 102 27 110
4 96 102 47 72
4 10 71 76 56
4 76 56 32 79
4 62 74 63 61
4 63 61 118 65
4 83 62 28 70
5 47 14 106 70 83
4 47 83 62 17
4 80 32 33 48
4 92 80 32 58
4 97 27 56 87
4 97 99 53 27
4 0 56 47 14
4 14 0 3 106
4 108 38 72 63
4 38 6 21 72
4 3 64 85 51
4 8 16 64 3
5 8 32 81 51 3
4 74 81 22 35
4 22 35 7 26
4 21 85 65 25
4 25 9 33 21
5 25 9 8 108 65
4 13 26 25 11
4 13 30 3 26
5 26 3 36 72 25
4 27 57 29 40
4 29 57 15 5
4 15 13 53 104
5 40 53 104 23 36
4 15 104 23 107
4 49 104 51 79
4 51 104 5 111
4 7 2 13 68
4 2 110 36 7
5 113 36 7 68 47
4 85 106 104 48
4 85 106 7 37
5 57 8 7 106 104
4 42 25 68 92
4 68 41 6 25
4 83 74 36 72
4 83 45 25 72
4 116 63 34 110
4 8 53 110 34
4 56 80 45 59
4 59 12 108 56
4 119 57 8 56
4 119 44 104 57
5 104 81 80 47 25
4 80 81 114 77
4 114 81 104 29
4 11 32 81 44
4 51 23 44 81
4 34 16 17 27
4 34 36 65 16
4 80 47 89 76
4 38 89 47 25
4 63 42 23 36
4 77 40 36 63
4 80 74 70 44
4 70 74 40 24
4 47 45 48 113
4 45 9 68 47
4 27 8 9 49
4 8 108 76 27
4 2 35 50 4
5 35 106 51 111 50
5 53 26 2 4 41
4 0 19 4 13
5 8 68 13 0 59
5 29 5 4 19 43
4 4 28 48 20
5 51 48 28 70 81
5 4 46 55 6 20
4 35 28 27 34
5 34 3 95 75 35
5 27 53 79 60 28
4 19 18 85 35
5 18 71 23 65 85
5 35 7 24 78 19
4 1 11 49 4
5 11 1 84 59 25
5 57 104 49 4 117
4 49 48 74 27
5 48 33 103 99 49
5 74 27 110 100 114
4 27 2 0 56
5 0 105 75 109 2
5 17 27 56 32 77
4 1 18 64 0
5 64 0 89 7 16
5 1 18 118 5 107
4 42 48 50 18
5 46 90 50 18 98
5 42 116 44 113 48
4 35 64 63 74
5 64 112 71 108 63
5 40 74 35 94 73
4 11 13 27 80
5 80 45 61 103 11
5 91 57 27 13 52
4 20 11 10 18
5 72 10 18 67 14
5 101 20 11 44 15
4 10 0 34 63
5 63 34 102 37 77
5 0 66 39 58 10
4 80 63 85 48
5 87 100 63 80 76
5 48 73 88 54 85
4 42 63 56 11
5 83 63 42 93 67
5 56 119 66 115 11
4 13 2 28 49
5 114 29 28 2 22
5 13 55 32 9 49
4 20 50 19 1
5 19 14 26 38 1
5 104 23 20 50 86
4 2 19 64 34
5 69 2 34 8 40
5 39 19 64 12 111
4 28 74 85 50
5 95 116 36 74 85
5 28 24 99 31 50
4 64 10 42 85
5 90 96 64 85 37
5 107 87 10 42 92
4 34 56 80 74
5 30 56 34 91 112
5 93 79 80 74 62
4 20 49 80 42
5 119 81 80 49 97
5 42 21 84 88 20
4 1 13 56 10
5 10 61 16 47 56
5 13 1 82 109 15
5 83 45 48 101 117
5 25 72 46 107 23
4 46 107 101 117
5 97 110 116 79 73
4 73 37 102 97
5 69 89 56 108 92
5 12 59 14 109 118
4 69 109 14 89
5 8 9 60 109 57
4 109 66 115 60
5 77 114 91 94 60
4 94 97 119 91
5 32 81 57 62 33
4 15 57 62 101
5 36 76 78 96 34
5 39 92 65 16 67
4 78 96 67 39
5 42 25 47 86 118
5 71 39 90 89 38
4 86 90 39 118
4 83 70 90 67
5 90 73 23 36 70
5 117 70 44 99 88
4 88 117 62 93
5 43 82 20 9 45
5 107 66 14 47 68
4 43 82 66 14
5 94 115 76 27 102
5 108 8 16 75 58
4 102 16 75 94
5 0 78 41 108 3
5 106 65 5 90 14
4 78 90 5 41
5 72 21 85 86 70
5 24 5 111 6 38
4 24 70 86 5
5 24 40 51 3 110
4 90 24 110 96
5 22 52 99 53 81
4 52 94 73 99
5 117 22 21 33 50
5 9 25 26 15 5
4 22 117 15 26
5 60 58 30 13 69
5 7 26 3 12 29
4 29 60 69 7
5 40 29 75 31 41
4 31 52 91 75
5 53 104 29 33 6
4 82 33 29 109
5 79 51 114 54 31
4 114 54 117 57
5 2 94 31 30 110
5 108 111 37 7 36
4 31 111 37 94
5 24 46 22 106 104
4 46 88 54 22
5 43 106 25 6 18
4 106 43 109 7
5 68 41 39 109 7
5 119 102 62 61 100
4 44 119 102 113
5 16 91 66 69 17
4 69 76 87 66
5 45 17 15 119 59
4 15 17 92 107
5 58 118 17 68 11
4 112 67 118 58
5 67 112 87 89 102
5 113 97 96 83 74
4 61 112 96 83
5 61 112 115 92 77
4 67 61 45 86
5 86 113 107 88 67
5 92 101 102 47 80
5 96 72 116 71 88
4 101 88 71 92
4 47 113 37 16
5 113 76 71 93 37
5 113 65 63 72 89
5 84 66 101 118 61
4 84 66 89 72
5 82 115 49 17 62
5 83 47 44 87 84
4 84 87 115 82
5 91 59 32 58 82
4 47 59 91 102
4 17 101 93 77
5 103 93 101 97 87
5 30 76 40 77 95
4 89 76 40 7
5 65 12 10 38 68
5 15 46 84 43 86
4 46 38 68 15
5 51 21 98 99 23
4 97 99 23 113
5 98 110 70 35 54
4 98 54 93 71
4 84 21 106 14
4 37 75 12 65
5 37 75 112 78 69
5 55 119 117 82 103
4 79 103 82 60
5 53 8 114 105 30
4 8 17 62 114
5 4 60 33 105 52
4 119 59 105 52
4 39 41 30 112
4 100 81 70 96
5 94 96 100 95 93
5 55 44 104 45 21
4 45 118 5 104
4 84 43 33 103
5 54 62 28 97 52
4 95 54 62 77
5 105 12 9 41 1
4 91 16 12 105
5 55 105 43 57 26
4 68 17 57 26
5 79 115 52 100 32
4 115 79 40 69
4 97 52 55 44
4 36 7 14 72
5 38 36 106 64 98
4 107 88 98 38
5 73 111 95 98 78
4 113 65 111 73
5 81 83 54 103 116
4 83 86 104 81
4 5 9 58 39
4 112 78 110 100
4 111 6 105 75
4 21 51 29 43
4 95 98 22 114
4 53 104 70 110
4 24 41 9 104
4 78 30 53 24
5 6 31 19 22 3
4 3 8 57 22
4 55 105 31 99
4 40 60 33 51
4 40 36 106 29
4 23 73 31 6
4 46 98 3 26
4 83 45 32 100
4 58 30 100 61
4 32 61 118 9
4 25 59 16 65
4 93 95 108 92
4 87 103 21 72
4 23 44 47 65
4 87 116 36 89
4 107 71 108 68
4 119 47 25 55
4 8 77 92 68
4 76 115 103 116
4 77 114 3 108
4 12 59 55 6
4 79 116 21 33
4 116 51 106 72
4 25 12 111 23
4 38 71 95 3
4 81 53 9 45
4 32 81 110 30
4 41 58 32 53
4 38 108 8 26
4 79 51 36 76
4 99 6 25 44
5 37 67 86 50 35
5 4 15 66 69 2
5 87 89 0 13 119
5 19 90 88 117 4
5 40 28 48 113 37
5 39 107 20 4 41
5 16 34 35 106 14
5 17 27 28 104 15
5 85 93 61 118 18
5 19 109 91 94 35
5 38 1 11 87 71
5 73 24 4 49 97
5 49 9 5 23 48
5 7 36 74 27 8
5 0 14 46 22 2
5 44 81 27 56 47
5 64 96 100 91 0
5 1 82 103 88 18
5 18 39 75 31 50
5 42 48 79 77 92
5 61 63 64 12 59
5 35 29 57 62 74
5 80 116 23 25 11
5 26 13 27 110 24
5 98 18 10 112 95
5 11 115 79 99 20
5 34 114 81 83 63
5 0 10 84 55 105
5 32 80 63 108 8
5 85 111 29 33 48
5 63 95 51 21 42
5 56 30 53 55 11
5 90 7 2 28 70
5 49 44 107 68 13
5 112 66 1 19 78
5 73 50 20 101 93
5 34 102 119 57 2
5 84 67 64 19 43
5 77 16 65 85 74
5 50 5 109 60 28
5 64 75 114 54 85
5 10 42 103 32 58
5 56 59 26 3 34
5 80 45 104 51 74
5 49 80 76 40 53
5 42 20 6 111 71
5 56 100 116 72 10
5 99 46 1 13 52
5 102 94 28 117 101
5 46 24 78 89 107
5 102 37 7 109 17
5 113 97 27 69 89
5 14 86 117 57 109
5 66 107 88 97 115
5 46 70 97 119 15
5 90 5 15 101 113
5 97 52 2 78 96
5 67 101 82 109 39
5 62 17 118 86 48
5 90 73 94 69 39
5 16 67 83 62 91
5 60 75 37 93 62
5 50 43 82 62 54
5 96 102 66 14 90
5 43 118 16 75 29
5 13 115 76 78 41
5 102 47 86 70 74
5 24 40 69 68 5
5 96 83 117 22 35
5 89 47 15 26 7
5 49 101 92 69 60
5 7 65 86 104 29
5 52 117 84 66 91
5 4 82 115 94 31
5 118 92 37 111 5
5 67 88 54 94 112
5 43 106 85 83 45
5 113 44 104 24 36
5 99 110 76 87 44
5 73 23 107 92 76
5 20 33 60 58 118
5 105 75 112 61 82
5 45 61 77 114 33
5 31 78 71 88 99
5 16 47 45 57 8
5 70 110 34 89 72
5 96 87 84 46 98
5 59 91 114 22 43
5 9 17 77 40 29
5 68 38 36 76 56
5 38 41 53 99 23
5 19 105 52 54 98
5 71 93 115 58 39
5 84 21 54 100 61
5 45 9 12 65 42
5 41 111 73 79 60
5 8 114 51 106 12
5 72 83 119 59 14
5 103 52 30 112 87
5 106 26 57 81 70
5 103 33 31 95 93
5 111 12 58 77 95
5 18 21 33 105 12
5 17 68 65 113 80
5 38 72 44 55 26
5 0 30 110 98 38
5 119 55 22 110 100
5 25 104 53 8 68
5 108 41 9 11 92
5 72 21 22 3 64
5 40 51 23 65 108
5 47 25 106 36 63
5 30 58 1 6 31
5 105 3 95 100 32
5 79 51 6 9 32
5 25 59 32 81 21
5 116 36 3 53 81
5 71 108 30 79 116
5 55 6 98 116 103
5 25 6 3 108 10

# Cells
7 0 1 2 3 4 5 6
7 7 8 9 10 11 12 13
7 14 15 16 17 18 19 20
7 21 22 23 24 25 26 27
7 28 29 30 31 32 33 34
7 35 36 37 38 39 40 41
7 42 43 44 45 46 47 48
7 49 50 51 52 53 54 55
7 56 57 58 59 60 61 62
7 63 64 65 66 67 68 69
7 70 71 72 73 74 75 76
7 77 78 79 80 81 82 83
7 84 85 86 87 88 89 90
7 91 92 93 94 95 96 97
7 98 99 100 101 102 103 104
7 105 106 107 108 109 110 111
7 112 113 114 115 116 117 118
7 119 120 121 122 123 124 125
7 126 127 128 129 130 131 132
7 133 134 135 136 137 138 139
7 140 141 142 143 144 145 146
7 147 148 149 150 151 152 153
7 154 155 156 157 158 159 160
7 161 162 163 164 165 166 167
7 168 169 170 171 172 173 174
7 175 176 177 178 179 180 181
7 86 182 183 184 185 186 187
7 149 188 189 190 191 192 193
7 102 194 195 196 197 198 199
7 109 200 201 202 203 204 205
7 106 206 207 208 209 210 211
7 212 213 214 215 216 217 218
7 219 220 221 222 223 224 225
7 226 227 228 229 230 231 232
7 233 234 235 236 237 238 239
7 165 240 241 242 243 244 245
7 143 246 247 248 249 250 251
7 252 253 254 255 256 257 258
7 259 260 261 262 263 264 265
7 266 267 268 269 270 271 272
7 273 274 275 276 277 278 279
7 60 280 281 282 283 284 285
7 45 286 287 288 289 290 291
7 81 292 293 294 295 296 297
7 158 298 299 300 301 302 303
7 94 304 305 306 307 308 309
7 310 311 312 313 314 315 316
7 317 318 319 320 321 322 323
7 142 324 325 326 327 328 329
7 73 330 331 332 333 334 335
7 93 336 337 338 339 340 341
7 342 343 344 345 346 347 348
7 78 349 350 351 352 353 354
7 355 356 357 358 359 360 361
7 362 363 364 365 366 367 368
7 369 370 371 372 373 374 375
7 155 376 377 378 379 380 381
7 371 382 383 384 385 386 387
7 38 388 389 390 391 392 393
7 394 395 396 397 398 399 400
7 343 401 402 403 404 405 406
7 66 407 408 409 410 411 412
7 413 414 415 416 417 418 419
7 150 256 420 421 422 423 424
7 414 425 426 427 428 429 430
7 381 431 432 433 434 435 436
7 327 437 438 439 440 441 442
7 11 443 444 445 446 447 448
7 396 449 450 451 452 453 454
7 23 455 456 457 458 459 460
7 65 461 462 463 464 465 466
7 162 316 467 468 469 470 471
7 340 472 473 474 475 476 477
7 51 418 478 479 480 481 482
7 410 483 484 485 486 487 488
7 121 489 490 491 492 493 494
7 464 485 495 496 497 498 499
7 355 500 501 502 503 504 505
7 364 506 507 508 509 510 511
7 99 320 512 513 514 515 516
7 354 517 518 519 520 521 522
7 87 271 523 524 525 526 527
7 52 430 528 529 530 531 532
7 136 533 534 535 536 537 538
7 116 508 539 540 541 542 543
7 37 264 544 545 546 547 548
7 17 403 549 550 551 552 553
7 307 472 554 555 556 557 558
7 32 451 559 560 561 562 563
7 301 431 564 565 566 567 568
7 249 439 569 570 571 572 573
7 203 574 575 576 577 578 579
7 130 502 580 581 582 583 584
7 210 575 585 586 587 588 589
7 72 276 590 591 592 593 594
7 296 517 595 596 597 598 599
7 113 365 600 601 602 603 604
7 176 493 605 606 607 608 609
7 275 333 610 611 612 613 614
7 170 460 615 616 617 618 619
7 260 393 620 621 622 623 624
7 44 215 625 626 627 628 629
7 57 231 630 631 632 633 634
7 29 397 635 636 637 638 639
7 127 361 640 641 642 643 644
7 16 346 645 646 647 648 649
7 235 536 650 651 652 653 654
7 219 447 655 656 657 658 659
7 186 267 660 661 662 663 664
7 192 253 665 666 667 668 669
7 24 171 670 671 672 673 674
7 122 179 675 676 677 678 679
7 8 224 680 681 682 683 684
7 2 372 685 686 687 688 689
7 3 384 690 691 692 693 694
7 226 283 695 696 697 698 699
7 197 319 700 701 702 703 704
7 214 290 705 706 707 708 709
7 244 310 710 711 712 713 714
7 135 236 715 716 717 718 719
7 0 720 721 722 723 724 725
7 7 726 727 728 729 730 731
7 14 732 733 734 735 736 737
7 21 738 739 740 741 742 743
7 28 744 745 746 747 748 749
7 35 750 751 752 753 754 755
7 42 756 757 758 759 760 761
7 49 762 763 764 765 766 767
7 56 768 769 770 771 772 773
7 63 774 775 776 777 778 779
7 70 780 781 782 783 784 785
7 77 786 787 788 789 790 791
7 84 792 793 794 795 796 797
7 91 798 799 800 801 802 803
7 98 804 805 806 807 808 809
7 105 810 811 812 813 814 815
7 112 816 817 818 819 820 821
7 119 822 823 824 825 826 827
7 126 828 829 830 831 832 833
7 133 834 835 836 837 838 839
7 140 840 841 842 843 844 845
7 147 846 847 848 849 850 851
7 154 852 853 854 855 856 857
7 161 858 859 860 861 862 863
7 173 864 865 866 867 868 869
7 181 870 871 872 873 874 875
7 187 758 876 877 878 879 880
7 193 747 881 882 883 884 885
7 199 771 886 887 888 889 890
7 205 831 891 892 893 894 895
7 209 819 896 897 898 899 900
7 218 901 902 903 904 905 906
7 225 907 908 909 910 911 912
7 232 913 914 915 916 917 918
7 237 872 919 920 921 922 923
7 245 734 924 925 926 927 928
7 250 789 917 929 930 931 932
7 258 890 933 934 935 936 937
7 265 938 939 940 941 942 943
7 272 944 945 946 947 948 949
7 279 950 951 952 953 954 955
7 285 855 912 956 957 958 959
7 291 842 867 960 961 962 963
7 297 781 964 965 966 967 968
7 303 800 905 969 970 971 972
7 308 751 973 974 975 976 977
7 314 879 978 979 980 981 982
7 323 983 984 985 986 987 988
7 328 729 989 990 991 992 993
7 335 823 994 995 996 997 998
7 341 722 999 1000 1001 1002 1003
7 345 945 1004 1005 1006 1007 1008
7 352 721 1009 1010 1011 1012 1013
7 360 976 1014 1015 1016 1017 1018
7 366 968 1019 1020 1021 1022 1023
7 374 952 1024 1025 1026 1027 1028
7 380 739 1029 1030 1031 1032 1033
7 385 940 1034 1035 1036 1037 1038
7 392 836 1039 1040 1041 1042 1043
7 400 985 1044 1045 1046 1047 1048
7 405 866 1049 1050 1051 1052 1053
7 412 847 949 1054 1055 1056 1057
7 419 885 1058 1059 1060 1061 1062
7 423 726 1063 1064 1065 1066 1067
7 427 927 1068 1069 1070 1071 1072
7 434 1073 1074 1075 1076 1077 1078
7 441 1073 1079 1080 1081 1082 1083
7 448 775 1084 1085 1086 1087 1088
7 452 907 1089 1090 1091 1092 1093
7 459 776 1094 1095 1096 1097 1098
7 465 861 986 1099 1100 1101 1102
7 471 740 1103 1104 1105 1106 1107
7 475 899 1108 1109 1110 1111 1112
7 481 824 1113 1114 1115 1116 1117
7 486 913 1118 1119 1120 1121 1122
7 494 807 943 1123 1124 1125 1126
7 499 902 1127 1128 1129 1130 1131
7 505 1097 1132 1133 1134 1135 1136
7 510 1088 1134 1137 1138 1139 1140
7 515 764 1081 1141 1142 1143 1144
7 522 895 1145 1146 1147 1148 1149
7 526 763 1078 1150 1151 1152 1153
7 532 835 1154 1155 1156 1157 1158
7 537 793 953 1159 1160 1161 1162
7 542 804 1036 1163 1164 1165 1166
7 547 848 1007 1167 1168 1169 1170
7 552 810 921 1171 1172 1173 1174
7 558 997 1175 1176 1177 1178 1179
7 563 813 875 1180 1181 1182 1183
7 566 1021 1184 1185 1186 1187 1188
7 573 1014 1189 1190 1191 1192 1193
7 577 1032 1194 1195 1196 1197 1198
7 583 794 1027 1199 1200 1201 1202
7 589 993 1203 1204 1205 1206 1207
7 593 858 1046 1208 1209 1210 1211
7 597 1042 1212 1213 1214 1215 1216
7 603 744 1217 1218 1219 1220 1221
7 607 978 1222 1223 1224 1225 1226
7 612 1066 1203 1227 1228 1229 1230
7 617 1116 1176 1231 1232 1233 1234
7 622 1106 1194 1235 1236 1237 1238
7 628 828 1239 1240 1241 1242 1243
7 633 816 1244 1245 1246 1247 1248
7 638 752 1191 1249 1250 1251 1252
7 644 733 1253 1254 1255 1256 1257
7 649 782 1188 1258 1259 1260 1261
7 653 934 1262 1263 1264 1265 1266
7 657 1157 1213 1267 1268 1269 1270
7 663 1108 1247 1271 1272 1273 1274
7 667 1012 1275 1276 1277 1278 1279
7 673 768 1264 1280 1281 1282 1283
7 678 786 1121 1284 1285 1286 1287
7 683 757 1225 1288 1289 1290 1291
7 688 852 1091 1292 1293 1294 1295
7 694 841 1051 1296 1297 1298 1299
7 698 1068 1256 1300 1301 1302 1303
7 702 1145 1242 1304 1305 1306 1307
7 707 1059 1221 1308 1309 1310 1311
7 714 1003 1276 1312 1313 1314 1315
7 719 799 1129 1316 1317 1318 1319
7 278 772 1320 1321 1322 1323 1324
7 453 796 1325 1326 1327 1328 1329
7 174 748 1330 1331 1332 1333 1334
7 557 730 1335 1336 1337 1338 1339
7 322 803 1340 1341 1342 1343 1344
7 386 778 1345 1346 1347 1348 1349
7 417 724 1350 1351 1352 1353 1354
7 697 754 1355 1356 1357 1358 1359
7 487 815 1360 1361 1362 1363 1364
7 217 785 1365 1366 1367 1368 1369
7 588 767 1370 1371 1372 1373 1374
7 658 736 1375 1376 1377 1378 1379
7 348 809 1380 1381 1382 1383 1384
7 662 791 1385 1386 1387 1388 1389
7 521 743 1390 1391 1392 1393 1394
7 623 761 1395 1396 1397 1398 1399
7 504 826 1400 1401 1402 1403 1404
7 239 845 1405 1406 1407 1408 1409
7 571 863 1410 1411 1412 1413 1414
7 257 832 1415 1416 1417 1418 1419
7 435 851 1420 1421 1422 1423 1424
7 712 820 1425 1426 1427 1428 1429
7 368 839 1430 1431 1432 1433 1434
7 608 856 1435 1436 1437 1438 1439
7 379 1064 1440 1441 1442 1443 1444
7 261 960 1421 1445 1446 1447 1448
7 50 1034 1399 1449 1450 1451 1452
7 196 1111 1453 1454 1455 1456 1457
7 462 1197 1458 1459 1460 1461 1462
7 326 981 1463 1464 1465 1466 1467
7 128 1222 1427 1468 1469 1470 1471
7 185 1010 1472 1473 1474 1475 1476
7 507 1159 1381 1477 1478 1479 1480
7 221 1171 1396 1481 1482 1483 1484
7 391 1241 1485 1486 1487 1488 1489
7 22 1089 1379 1490 1491 1492 1493
7 10 1004 1388 1494 1495 1496 1497
7 411 898 1498 1499 1500 1501 1502
7 595 1094 1368 1503 1504 1505 1506
7 311 1163 1393 1507 1508 1509 1510
7 648 1142 1511 1512 1513 1514 1515
7 115 919 1439 1516 1517 1518 1519
7 300 1279 1520 1521 1522 1523 1524
7 201 1072 1525 1526 1527 1528 1529
7 524 1216 1530 1531 1532 1533 1534
7 4 1118 1359 1535 1536 1537 1538
7 425 1292 1432 1539 1540 1541 1542
7 492 1031 1543 1544 1545 1546 1547
7 636 947 1548 1549 1550 1551 1552
7 535 1082 1553 1554 1555 1556 1557
7 331 916 1558 1559 1560 1561 1562
7 243 1218 1548 1563 1564 1565 1566
7 71 1301 1351 1567 1568 1569 1570
7 370 1099 1436 1571 1572 1573 1574
7 211 1115 1575 1576 1577 1578 1579
7 402 886 1361 1580 1581 1582 1583
7 92 1267 1392 1584 1585 1586 1587
7 353 1281 1588 1589 1590 1591 1592
7 148 1133 1433 1593 1594 1595 1596
7 177 969 1387 1597 1598 1599 1600
7 565 881 1343 1601 1602 1603 1604
7 163 1019 1424 1529 1605 1606 1607
7 516 974 1574 1608 1609 1610 1611
7 31 1272 1336 1612 1613 1614 1615
7 615 1249 1348 1616 1617 1618 1619
7 284 1041 1553 1620 1621 1622 1623
7 228 1167 1428 1513 1624 1625 1626
7 43 951 1347 1627 1628 1629 1630
7 604 1318 1631 1632 1633 1634 1635
7 287 1229 1594 1636 1637 1638 1639
7 677 1187 1576 1640 1641 1642 1643
7 338 910 1631 1644 1645 1646 1647
7 356 1284 1376 1500 1648 1649 1650
7 137 1190 1402 1651 1652 1653 1654
7 446 1259 1558 1655 1656 1657 1658
7 79 865 1384 1523 1659 1660 1661
7 268 964 1372 1634 1662 1663 1664
7 629 1210 1600 1665 1666 1667 1668
7 705 994 1407 1669 1670 1671 1672
7 59 1235 1373 1647 1673 1674 1675
7 251 925 1618 1676 1677 1678 1679
7 631 942 1588 1680 1681 1682 1683
7 190 1017 1585 1684 1685 1686 1687
7 550 1307 1628 1677 1688 1689 1690
7 294 1234 1450 1691 1692 1693 1694
7 469 1140 1496 1665 1695 1696 1697
7 545 1311 1517 1608 1698 1699 1700
7 718 931 1483 1691 1701 1702 1703
7 39 901 1364 1533 1704 1705 1706
7 574 1154 1419 1656 1707 1708 1709
7 693 1056 1508 1684 1710 1711 1712
7 473 1288 1354 1545 1713 1714 1715
7 18 983 1328 1641 1716 1717 1718
7 562 877 1540 1637 1719 1720 1721
7 123 1074 1411 1682 1722 1723 1724
7 665 1253 1333 1621 1725 1726 1727
7 100 1177 1332 1555 1728 1729 1730
7 482 1298 1463 1603 1731 1732 1733
7 395 1150 1356 1442 1734 1735 1736
7 650 989 1327 1577 1737 1738 1739
7 309 1085 1458 1671 1740 1741 1742
7 141 1313 1416 1562 1743 1744 1745
7 642 874 1486 1615 1746 1747 1748
7 686 1131 1473 1652 1749 1750 1751
7 457 1047 1544 1569 1752 1753 1754
7 107 1060 1367 1456 1755 1756 1757
7 496 891 1414 1590 1758 1759 1760
7 424 1200 1530 1583 1761 1762 1763
7 584 1125 1453 1504 1764 1765 1766
7 610 1244 1403 1474 1767 1768 1769
7 67 1205 1322 1550 1770 1771 1772
7 681 1053 1441 1537 1773 1774 1775
7 529 1028 1470 1511 1776 1777 1778
7 541 1266 1491 1499 1779 1780 1781
7 157 935 1408 1460 1782 1783 1784
7 674 1181 1447 1525 1785 1786 1787
7 438 1103 1339 1487 1788 1789 1790
7 700 999 1323 1564 1791 1792 1793
7 594 958 1479 1520 1794 1795 1796
7 88 1147 1342 1467 1797 1798 1799
7 46 973 1320 1800 1801 1802 1803
7 25 929 1325 1804 1805 1806 1807
7 80 1199 1330 1808 1809 1810 1811
7 101 924 1335 1812 1813 1814 1815
7 15 1063 1340 1816 1817 1818 1819
7 53 1180 1345 1820 1821 1822 1823
7 108 1084 1350 1824 1825 1826 1827
7 74 876 1355 1828 1829 1830 1831
7 1 1141 1360 1832 1833 1834 1835
7 36 1280 1365 1836 1837 1838 1839
7 64 1009 1370 1840 1841 1842 1843
7 95 1123 1375 1844 1845 1846 1847
7 9 1316 1380 1848 1849 1850 1851
7 30 1029 1385 1852 1853 1854 1855
7 85 1217 1390 1856 1857 1858 1859
7 58 1258 1395 1860 1861 1862 1863
7 151 956 1400 1864 1865 1866 1867
7 114 1208 1405 1868 1869 1870 1871
7 134 896 1410 1872 1873 1874 1875
7 156 1113 1415 1876 1877 1878 1879
7 120 1239 1420 1880 1881 1882 1883
7 144 1039 1425 1884 1885 1886 1887
7 164 1296 1430 1888 1889 1890 1891
7 129 1054 1435 1892 1893 1894 1895
7 491 737 1443 1896 1897 1898 1899
7 634 1045 1448 1805 1900 1901 1902
7 586 906 1452 1877 1903 1904 1905
7 406 1156 1457 1906 1907 1908 1909
7 375 883 1462 1910 1911 1912 1913
7 654 965 1466 1914 1915 1916 1917
7 254 1023 1471 1809 1918 1919 1920
7 561 779 1475 1910 1921 1922 1923
7 470 915 1480 1829 1924 1925 1926
7 339 1080 1482 1872 1927 1928 1929
7 281 827 1488 1930 1931 1932 1933
7 519 1008 1493 1837 1934 1935 1936
7 555 1149 1497 1825 1937 1938 1939
7 691 838 1502 1940 1941 1942 1943
7 527 871 1506 1893 1917 1944 1945
7 329 1128 1509 1833 1946 1947 1948
7 445 725 1515 1936 1949 1950 1951
7 711 1076 1519 1857 1898 1952 1953
7 180 1095 1524 1954 1955 1956 1957
7 498 1164 1528 1926 1958 1959 1960
7 399 962 1534 1961 1962 1963 1964
7 415 1238 1538 1888 1932 1965 1966
7 204 946 1541 1853 1909 1967 1968
7 582 749 1547 1969 1970 1971 1972
7 618 893 1551 1970 1973 1974 1975
7 511 1000 1557 1940 1976 1977 1978
7 709 1104 1561 1948 1979 1980 1981
7 248 797 1565 1961 1982 1983 1984
7 213 1038 1570 1868 1985 1986 1987
7 531 1109 1572 1812 1988 1989 1990
7 408 857 1578 1954 1991 1992 1993
7 684 1015 1582 1864 1994 1995 1996
7 318 869 1587 1801 1997 1998 1999
7 184 755 1591 1939 2000 2001 2002
7 432 923 1595 1817 2003 2004 2005
7 643 1227 1598 1800 2006 2007 2008
7 679 1024 1604 1820 2009 2010 2011
7 569 936 1607 1813 2012 2013 2014
7 647 760 1611 2015 2016 2017 2018
7 169 1270 1614 1821 2019 2020 2021
7 295 980 1619 1884 1957 2022 2023
7 591 844 1622 1914 2024 2025 2026
7 334 1304 1625 1816 2027 2028 2029
7 620 1120 1629 1880 1942 2030 2031
7 242 731 1635 1920 2032 2033 2034
7 263 1255 1639 2015 2035 2036 2037
7 359 887 1643 1931 2038 2039 2040
7 703 1169 1645 1902 2041 2042 2043
7 191 1196 1649 1841 2036 2044 2045
7 362 1224 1653 1848 1971 2046 2047
7 305 773 1657 2021 2048 2049 2050
7 660 987 1660 1840 2018 2051 2052
7 639 1262 1663 1869 2053 2054 2055
7 389 821 1668 1905 2056 2057 2058
7 548 909 1672 1845 1964 2059 2060
7 274 1062 1675 1865 2061 2062 2063
7 717 808 1678 1906 2064 2065 2066
7 613 970 1681 2011 2049 2067 2068
7 567 1289 1686 1929 2069 2070 2071
7 223 996 1690 1897 2072 2073 2074
7 269 1294 1693 1990 2075 2076 2077
7 440 1172 1696 1996 2078 2079 2080
7 229 1161 1699 2001 2081 2082 2083
7 602 742 1703 2005 2084 2085 2086
7 695 1206 1705 1885 1992 2087 2088
7 466 1049 1708 1849 1974 2089 2090
7 479 833 1712 1987 2091 2092 2093
7 198 1185 1714 1881 1977 2094 2095
7 655 1273 1717 1860 1922 2096 2097
7 671 784 1721 1979 2098 2099 2100
7 501 1314 1724 1844 1983 2101 2102
7 302 939 1727 1861 1913 2103 2104
7 342 1092 1729 1832 2099 2105 2106
7 207 862 1732 2063 2079 2107 2108
7 458 1275 1735 1876 2109 2110 2111
7 543 1069 1739 1824 2082 2112 2113
7 513 814 1741 1958 2114 2115 2116
7 234 1136 1744 1804 2117 2118 2119
7 668 1151 1747 2055 2091 2120 2121
7 428 991 1750 1949 2122 2123 2124
7 598 1246 1753 2029 2084 2125 2126
7 483 955 1756 1873 2127 2128 2129
7 689 1231 1760 1808 2130 2131 2132
7 378 790 1762 2014 2075 2133 2134
7 422 802 1765 2041 2119 2135 2136
7 289 1214 1769 1856 2073 2137 2138
7 382 1302 1771 1892 2025 2139 2140
7 476 1101 1774 2032 2132 2141 2142
7 578 1285 1777 2008 2143 2144 2145
7 313 1250 1780 2056 2111 2146 2147
7 605 1192 1783 1852 2066 2148 2149
7 350 766 1787 1999 2143 2150 2151
7 538 1308 1789 1836 2123 2152 2153
7 553 1137 1793 1889 2039 2154 2155
7 626 850 1795 2069 2129 2156 2157
7 449 1178 1798 1828 2116 2158 2159
7 590 759 1689 1862 2160 2161 2162
7 559 741 1781 1858 2163 2164 2165
7 670 788 1522 1854 2166 2167 2168
7 304 806 1556 1851 2169 2170 2171
7 512 732 1642 1846 2172 2173 2174
7 690 765 1694 1842 2175 2176 2177
7 478 812 1455 1835 2178 2179 2180
7 280 783 1754 1839 2181 2182 2183
7 407 720 1775 1826 2184 2185 2186
7 625 750 1532 1830 2187 2188 2189
7 206 774 1552 1823 2190 2191 2192
7 443 801 1687 1819 2193 2194 2195
7 645 727 1697 1814 2196 2197 2198
7 182 745 1748 1811 2199 2200 2201
7 349 792 1465 1807 2202 2203 2204
7 388 769 1646 1803 2205 2206 2207
7 580 849 1638 1882 2208 2209 2210
7 715 817 1700 1886 2211 2212 2213
7 246 834 1751 1890 2214 2215 2216
7 420 853 1461 1895 2217 2218 2219
7 376 822 1683 1866 2220 2221 2222
7 240 843 1560 1871 2223 2224 2225
7 600 860 1527 1874 2226 2227 2228
7 489 830 1778 1879 2229 2230 2231
7 159 1124 1713 2136 2232 2233 2234
7 621 1248 1589 2137 2200 2235 2236
7 530 1207 1674 2140 2237 2238 2239
7 704 1050 1363 2141 2207 2240 2241
7 497 1025 1437 2144 2227 2242 2243
7 442 1263 1326 2146 2198 2244 2245
7 641 937 1745 2149 2246 2247 2248
7 89 1182 1539 2151 2249 2250 2251
7 363 1107 1666 2152 2206 2252 2253
7 656 1002 1632 2154 2225 2254 2255
7 40 957 1725 2157 2256 2257 2258
7 456 1148 1586 2159 2259 2260 2261
7 682 1179 1613 2106 2262 2263 2264
7 68 1297 1507 2108 2265 2266 2267
7 518 1153 1761 2109 2221 2268 2269
7 710 992 1731 2112 2192 2270 2271
7 19 1086 1707 2115 2272 2273 2274
7 540 1315 1469 2118 2275 2276 2277
7 568 870 1389 2120 2195 2278 2279
7 579 1127 1413 2122 2231 2280 2281
7 270 1044 1358 2125 2177 2282 2283
7 687 1061 1568 2128 2284 2285 2286
7 413 894 1785 2130 2204 2287 2288
7 124 1201 1503 2134 2289 2290 2291
7 398 1232 1346 2076 2189 2292 2293
7 652 1138 1382 2078 2203 2294 2295
7 614 1309 1406 2081 2222 2296 2297
7 167 930 1616 2086 2298 2299 2300
7 332 904 1757 2088 2301 2302 2303
7 383 1158 1512 2089 2194 2304 2305
7 111 1055 1648 2093 2306 2307 2308
7 344 1291 1440 2094 2230 2309 2310
7 337 988 1799 2097 2311 2312 2313
7 83 878 1767 2100 2314 2315 2316
7 189 1077 1606 2102 2306 2317 2318
7 606 1257 1485 2103 2183 2319 2320
7 433 1287 1575 2044 2185 2321 2322
7 468 1193 1723 2047 2323 2324 2325
7 104 1260 1624 2050 2301 2326 2327
7 637 868 1730 2052 2310 2328 2329
7 168 967 1701 2053 2228 2263 2330
7 61 1209 1477 2058 2323 2331 2332
7 696 998 1655 2059 2171 2333 2334
7 288 1237 1451 2062 2314 2335 2336
7 117 926 1791 2065 2296 2337 2338
7 708 938 1422 2067 2224 2291 2339
7 178 1016 1378 2070 2167 2340 2341
7 477 1305 1321 2072 2186 2342 2343
7 500 884 1710 2009 2179 2324 2344
7 534 1022 1596 2013 2321 2345 2346
7 12 975 1669 2017 2294 2347 2348
7 293 1274 1495 2020 2298 2349 2350
7 661 1252 1563 2022 2215 2351 2352
7 48 1040 1788 2026 2342 2345 2353
7 212 1170 1609 2027 2197 2285 2354
7 632 954 1772 2031 2305 2355 2356
7 145 1317 1481 2034 2311 2357 2358
7 230 1228 1404 2035 2213 2359 2360
7 669 1184 1341 2038 2201 2273 2361
7 404 908 1398 2042 2180 2332 2362
7 599 944 1374 1973 2182 2266 2363
7 315 1079 1338 1976 2165 2326 2364
7 262 914 1429 1980 2209 2357 2365
7 138 1219 1662 1984 2280 2328 2366
7 546 1303 1536 1986 2287 2347 2367
7 585 1102 1740 1988 2174 2335 2368
7 5 1114 1601 1993 2240 2369 2370
7 554 889 1764 1994 2219 2349 2371
7 551 1269 1492 1998 2268 2337 2372
7 33 1282 1445 2002 2278 2355 2373
7 676 1135 1654 2004 2253 2369 2374
7 252 972 1794 2006 2188 2276 2375
7 195 1006 1661 1938 2232 2351 2376
7 55 897 1737 1943 2275 2292 2377
7 450 1098 1543 1944 2210 2312 2378
7 233 1166 1498 1946 2176 2247 2379
7 97 1143 1571 1951 2237 2341 2380
7 325 922 1784 1953 2265 2320 2381
7 358 1277 1331 1955 2173 2315 2382
7 373 1070 1431 1959 2218 2300 2383
7 619 1212 1366 1962 2191 2257 2384
7 202 1122 1706 1966 2249 2333 2385
7 484 1295 1472 1967 2164 2303 2386
7 153 1030 1734 1972 2259 2359 2387
7 132 1065 1580 1899 2242 2262 2388
7 273 963 1719 1900 2168 2238 2389
7 463 1037 1630 1904 2235 2272 2390
7 222 1110 1352 1907 2161 2307 2391
7 429 1195 1418 1911 2216 2233 2392
7 509 979 1394 1915 2170 2250 2393
7 299 1226 1518 1919 2256 2270 2394
7 27 1011 1758 1923 2244 2284 2395
7 570 1162 1620 1924 2162 2317 2396
7 317 1174 1676 1927 2212 2260 2397
7 76 1240 1597 1933 2246 2282 2398
7 525 1093 1718 1935 2254 2289 2399
7 62 1018 1324 2051 2160 2400 2401
7 90 918 1329 2003 2163 2402 2403
7 34 1026 1334 2012 2166 2404 2405
7 13 1071 1337 2148 2169 2406 2407
7 96 1230 1344 1952 2172 2408 2409
7 69 873 1349 1997 2175 2410 2411
7 6 1139 1353 2158 2178 2412 2413
7 41 982 1357 2105 2181 2414 2415
7 110 1083 1362 1934 2184 2416 2417
7 75 1265 1369 1937 2187 2418 2419
7 54 1278 1371 2096 2190 2420 2421
7 20 941 1377 2117 2193 2422 2423
7 103 1130 1383 1918 2196 2424 2425
7 82 1198 1386 2046 2199 2426 2427
7 26 1310 1391 2101 2202 2428 2429
7 47 1186 1397 2019 2205 2430 2431
7 125 911 1401 2127 2208 2432 2433
7 146 1048 1409 1903 2211 2434 2435
7 166 1112 1412 2030 2214 2436 2437
7 131 1233 1417 2087 2217 2438 2439
7 152 1306 1423 1965 2220 2440 2441
7 118 1215 1426 2139 2223 2442 2443
7 139 1052 1434 2061 2226 2444 2445
7 160 948 1438 1985 2229 2446 2447
7 421 928 1444 2060 2234 2448 2449
7 286 984 1446 2085 2236 2411 2450
7 387 971 1449 1887 2239 2451 2452
7 474 837 1454 1975 2241 2439 2453
7 576 746 1459 2068 2243 2409 2454
7 312 780 1464 2121 2245 2421 2455
7 609 966 1468 1815 2248 2456 2457
7 351 1087 1476 2010 2251 2458 2459
7 533 1119 1478 2098 2252 2432 2460
7 549 1075 1484 1941 2255 2403 2461
7 627 1117 1489 1995 2258 2462 2463
7 454 1168 1490 1827 2261 2448 2464
7 347 892 1494 1831 2264 2455 2465
7 208 1043 1501 2155 2267 2466 2467
7 455 920 1505 2092 2269 2423 2463
7 539 903 1510 1950 2271 2447 2459
7 514 1013 1514 2113 2274 2468 2469
7 238 1152 1516 1847 2277 2470 2471
7 666 777 1521 1916 2279 2418 2472
7 426 805 1526 1981 2281 2429 2457
7 596 840 1531 2043 2283 2440 2452
7 488 1105 1535 1867 2286 2473 2474
7 685 1005 1542 1969 2288 2414 2475
7 377 1220 1546 2131 2290 2450 2476
7 266 829 1549 2142 2293 2436 2477
7 437 723 1554 2040 2295 2401 2478
7 227 738 1559 2124 2297 2407 2479
7 601 1202 1566 1901 2299 2475 2480
7 699 1165 1567 1878 2302 2468 2481
7 461 1271 1573 2064 2304 2400 2482
7 480 959 1579 1945 2308 2470 2483
7 194 1189 1581 2156 2309 2404 2484
7 659 961 1584 1843 2313 2472 2485
7 672 977 1592 1925 2316 2473 2486
7 503 1173 1593 1859 2318 2466 2487
7 298 1204 1599 2016 2319 2435 2488
7 188 950 1602 2150 2322 2444 2469
7 367 888 1605 1855 2325 2454 2489
7 306 880 1610 2104 2327 2451 2490
7 664 1155 1612 1802 2329 2491 2492
7 635 1223 1617 2024 2330 2406 2493
7 390 1299 1623 2054 2331 2461 2494
7 544 1146 1626 1896 2334 2417 2495
7 277 1286 1627 1891 2336 2458 2496
7 716 1067 1633 1989 2338 2491 2497
7 611 735 1636 1912 2339 2405 2498
7 564 770 1640 2080 2340 2416 2499
7 220 846 1644 2126 2343 2443 2474
7 675 1236 1650 1921 2344 2437 2500
7 572 1290 1651 1810 2346 2462 2501
7 646 1283 1658 2007 2348 2460 2502
7 172 1100 1659 1863 2350 2499 2503
7 292 933 1664 2057 2352 2425 2467
7 592 900 1667 2023 2353 2456 2504
7 330 1090 1670 2135 2354 2413 2497
7 624 882 1673 1875 2356 2453 2505
7 241 1126 1679 2090 2358 2495 2503
7 259 798 1680 2145 2360 2426 2471
7 357 756 1685 1978 2361 2412 2492
7 701 825 1688 1963 2362 2434 2506
7 616 854 1692 1908 2363 2445 2481
7 506 811 1695 2071 2364 2430 2464
7 706 795 1698 1960 2365 2424 2487
7 247 1033 1702 2138 2366 2485 2507
7 216 990 1704 1894 2367 2477 2508
7 528 864 1709 2033 2368 2431 2449
7 409 1243 1711 2110 2370 2484 2509
7 680 1020 1715 1930 2371 2427 2483
7 321 1245 1716 1822 2372 2480 2510
7 183 1261 1720 2153 2373 2488 2511
7 436 1001 1722 1806 2374 2479 2512
7 640 1035 1726 2048 2375 2442 2486
7 556 1293 1728 1838 2376 2476 2513
7 692 1211 1733 1928 2377 2493 2512
7 523 1312 1736 1991 2378 2408 2514
7 324 1300 1738 2114 2379 2438 2515
7 444 1183 1742 1947 2380 2500 2508
7 713 1096 1743 1818 2381 2498 2509
7 175 762 1746 2147 2382 2415 2510
7 495 728 1749 2083 2383 2402 2516
7 394 818 1752 2074 2384 2433 2517
7 416 1160 1755 1883 2385 2506 2511
7 200 1175 1759 2133 2386 2419 2507
7 581 932 1763 1968 2387 2465 2518
7 490 1319 1766 2028 2388 2482 2519
7 630 1268 1768 1982 2389 2420 2518
7 587 1254 1770 1870 2390 2502 2517
7 401 859 1773 2077 2391 2446 2496
7 369 787 1776 2037 2392 2422 2501
7 651 753 1779 1956 2393 2410 2513
7 255 1251 1782 1850 2394 2494 2516
7 560 1144 1786 2045 2395 2505 2515
7 467 1058 1790 2000 2396 2441 2490
7 336 1132 1792 2107 2397 2428 2504
7 282 1057 1796 2095 2398 2489 2514
7 520 995 1797 1834 2399 2478 2519
