# Generated using Miratope v0.5.0 (https://github.com/galoomba1/miratope-rs)
4OFF

# Vertices, Faces, Edges, Cells
120 360 480 120

# Vertices
0.809016994374945 -0.809016994374945 -0.809016994374945 0.809016994374945 
1.30901699437495 -0.809016994374945 0.5 0 
0.809016994374945 0.5 -1.30901699437495 0 
-0.5 -1.30901699437495 -0.809016994374945 0 
0 0 0 -1.61803398874989 
1.30901699437495 0.5 0 -0.809016994374945 
0 -1.30901699437495 0.5 -0.809016994374945 
-0.5 0 -1.30901699437495 -0.809016994374945 
0.809016994374945 -0.809016994374945 0.809016994374945 0.809016994374945 
1.30901699437495 -0.809016994374945 -0.5 0 
-0.5 -0.809016994374945 0 1.30901699437495 
0 -0.809016994374945 1.30901699437495 -0.5 
-0.809016994374945 -0.809016994374945 -0.809016994374945 -0.809016994374945 
-1.30901699437495 -0.809016994374945 0.5 0 
0.5 -0.809016994374945 0 -1.30901699437495 
0 -0.809016994374945 -1.30901699437495 0.5 
-0.809016994374945 0.809016994374945 0.809016994374945 -0.809016994374945 
0.5 0 1.30901699437495 -0.809016994374945 
0 1.30901699437495 -0.5 -0.809016994374945 
-1.30901699437495 -0.5 0 -0.809016994374945 
0.809016994374945 -0.809016994374945 -0.809016994374945 -0.809016994374945 
0.809016994374945 0.809016994374945 -0.809016994374945 -0.809016994374945 
1.30901699437495 0 -0.809016994374945 0.5 
-0.5 1.30901699437495 -0.809016994374945 0 
0 -0.5 -0.809016994374945 -1.30901699437495 
-0.809016994374945 -0.809016994374945 -0.809016994374945 0.809016994374945 
0 0.5 -0.809016994374945 1.30901699437495 
0.5 -1.30901699437495 -0.809016994374945 0 
-1.30901699437495 0 -0.809016994374945 -0.5 
0.809016994374945 0.809016994374945 -0.809016994374945 0.809016994374945 
0.809016994374945 0 0.5 1.30901699437495 
0.809016994374945 1.30901699437495 0 -0.5 
0.809016994374945 -0.5 -1.30901699437495 0 
0.809016994374945 -0.809016994374945 0.809016994374945 -0.809016994374945 
0.809016994374945 0.5 1.30901699437495 0 
0.809016994374945 -1.30901699437495 0 0.5 
0.809016994374945 0 -0.5 -1.30901699437495 
0 -0.809016994374945 1.30901699437495 0.5 
0 0.5 0.809016994374945 -1.30901699437495 
0 -1.30901699437495 -0.5 -0.809016994374945 
-1.61803398874989 0 0 0 
-0.809016994374945 0.5 1.30901699437495 0 
-0.809016994374945 -1.30901699437495 0 0.5 
-0.809016994374945 0 -0.5 -1.30901699437495 
-1.30901699437495 0 -0.809016994374945 0.5 
-0.809016994374945 0 0.5 -1.30901699437495 
0.5 0 -1.30901699437495 -0.809016994374945 
0 1.61803398874989 0 0 
-1.30901699437495 0.809016994374945 0.5 0 
0.5 0.809016994374945 0 -1.30901699437495 
0 0.809016994374945 -1.30901699437495 0.5 
-0.809016994374945 -0.809016994374945 0.809016994374945 0.809016994374945 
0.5 -0.809016994374945 0 1.30901699437495 
-1.30901699437495 0.5 0 0.809016994374945 
-0.809016994374945 -1.30901699437495 0 -0.5 
0 0 -1.61803398874989 0 
0.809016994374945 0.809016994374945 0.809016994374945 0.809016994374945 
1.30901699437495 0 0.809016994374945 -0.5 
0.809016994374945 0 -0.5 1.30901699437495 
-0.5 0 1.30901699437495 0.809016994374945 
0 -1.61803398874989 0 0 
0.809016994374945 1.30901699437495 0 0.5 
1.30901699437495 -0.5 0 -0.809016994374945 
-0.5 0.809016994374945 0 -1.30901699437495 
0 0 1.61803398874989 0 
1.30901699437495 0 0.809016994374945 0.5 
-0.5 1.30901699437495 0.809016994374945 0 
0 -0.5 0.809016994374945 -1.30901699437495 
-0.809016994374945 0.809016994374945 -0.809016994374945 0.809016994374945 
0 1.30901699437495 0.5 0.809016994374945 
0 -0.5 -0.809016994374945 1.30901699437495 
0 0.809016994374945 -1.30901699437495 -0.5 
1.61803398874989 0 0 0 
-0.809016994374945 0 0.5 1.30901699437495 
-0.809016994374945 1.30901699437495 0 -0.5 
-0.809016994374945 -0.5 -1.30901699437495 0 
-0.809016994374945 -0.809016994374945 0.809016994374945 -0.809016994374945 
0.809016994374945 0.809016994374945 0.809016994374945 -0.809016994374945 
0 0.5 0.809016994374945 1.30901699437495 
0.5 -1.30901699437495 0.809016994374945 0 
-1.30901699437495 0 0.809016994374945 -0.5 
-0.809016994374945 0.809016994374945 0.809016994374945 0.809016994374945 
0.5 0 1.30901699437495 0.809016994374945 
0 1.30901699437495 -0.5 0.809016994374945 
-1.30901699437495 -0.5 0 0.809016994374945 
1.30901699437495 0.5 0 0.809016994374945 
0 -1.30901699437495 0.5 0.809016994374945 
-0.5 0 -1.30901699437495 0.809016994374945 
1.30901699437495 0.809016994374945 -0.5 0 
-0.5 0.809016994374945 0 1.30901699437495 
0 0.809016994374945 1.30901699437495 -0.5 
-0.809016994374945 0.809016994374945 -0.809016994374945 -0.809016994374945 
0.5 1.30901699437495 0.809016994374945 0 
-0.809016994374945 -0.5 1.30901699437495 0 
-1.30901699437495 0.809016994374945 -0.5 0 
0 0 0 1.61803398874989 
1.30901699437495 0 -0.809016994374945 -0.5 
0.5 0 -1.30901699437495 0.809016994374945 
0.809016994374945 -1.30901699437495 0 -0.5 
0 0.5 -0.809016994374945 -1.30901699437495 
0 -1.30901699437495 -0.5 0.809016994374945 
-0.809016994374945 0.5 -1.30901699437495 0 
-0.5 -0.809016994374945 0 -1.30901699437495 
-1.30901699437495 -0.809016994374945 -0.5 0 
1.30901699437495 -0.5 0 0.809016994374945 
0.809016994374945 -0.5 1.30901699437495 0 
0.809016994374945 0 0.5 -1.30901699437495 
-0.5 -1.30901699437495 0.809016994374945 0 
0 -0.809016994374945 -1.30901699437495 -0.5 
1.30901699437495 0.809016994374945 0.5 0 
0.5 1.30901699437495 -0.809016994374945 0 
-0.5 0 1.30901699437495 -0.809016994374945 
-1.30901699437495 0.5 0 -0.809016994374945 
0 1.30901699437495 0.5 -0.809016994374945 
0.5 0.809016994374945 0 1.30901699437495 
0 -0.5 0.809016994374945 1.30901699437495 
-0.809016994374945 0 -0.5 1.30901699437495 
-1.30901699437495 0 0.809016994374945 0.5 
0 0.809016994374945 1.30901699437495 0.5 
-0.809016994374945 1.30901699437495 0 0.5 

# Faces
4 1 5 2 0
4 1 6 3 0
4 0 2 7 3
4 4 6 1 5
4 5 4 7 2
4 4 7 3 6
4 9 8 10 15
4 8 9 14 11
4 10 13 11 8
4 12 14 11 13
4 13 12 15 10
4 14 12 15 9
4 17 16 18 5
4 17 6 19 16
4 18 16 19 7
4 5 17 6 20
4 5 18 7 20
4 20 7 19 6
4 21 23 26 22
4 22 27 24 21
4 23 28 24 21
4 25 26 22 27
4 25 26 23 28
4 27 24 28 25
4 29 30 34 31
4 30 29 32 35
4 31 36 32 29
4 34 30 35 33
4 34 33 36 31
4 33 36 32 35
4 33 38 41 37
4 37 42 39 33
4 38 43 39 33
4 41 40 42 37
4 40 43 38 41
4 40 42 39 43
4 44 48 45 12
4 12 44 50 46
4 45 12 46 49
4 48 47 49 45
4 48 47 50 44
4 49 47 50 46
4 51 52 26 53
4 52 27 54 51
4 51 54 28 53
4 55 27 52 26
4 26 55 28 53
4 55 28 54 27
4 57 9 58 56
4 57 11 59 56
4 58 56 59 10
4 60 9 58 10
4 9 57 11 60
4 10 59 11 60
4 61 65 62 21
4 61 66 63 21
4 21 62 67 63
4 64 65 61 66
4 65 62 67 64
4 66 63 67 64
4 69 30 70 68
4 68 71 31 69
4 68 71 32 70
4 72 30 69 31
4 72 30 70 32
4 72 32 71 31
4 73 41 74 68
4 73 68 75 42
4 74 43 75 68
4 41 73 42 76
4 76 41 74 43
4 76 43 75 42
4 77 66 78 65
4 65 79 67 77
4 77 66 80 67
4 51 79 65 78
4 51 78 66 80
4 51 79 67 80
4 81 82 85 83
4 81 82 86 84
4 81 84 87 83
4 0 85 82 86
4 85 0 87 83
4 86 84 87 0
4 88 50 89 56
4 56 90 49 88
4 89 48 90 56
4 48 90 49 91
4 48 89 50 91
4 49 91 50 88
4 16 92 82 93
4 16 94 83 92
4 93 84 94 16
4 95 82 92 83
4 95 84 93 82
4 95 83 94 84
4 44 13 45 91
4 44 15 46 91
4 45 14 46 91
4 60 14 45 13
4 13 44 15 60
4 60 14 46 15
4 37 34 38 76
4 76 39 35 37
4 76 38 36 39
4 34 72 35 37
4 72 36 38 34
4 72 36 39 35
4 20 1 85 2
4 20 1 86 3
4 2 20 3 87
4 95 85 1 86
4 85 2 87 95
4 95 86 3 87
4 77 62 22 61
4 61 23 63 77
4 77 63 24 62
4 55 22 61 23
4 55 22 62 24
4 23 63 24 55
4 8 57 88 58
4 57 8 59 90
4 58 8 59 89
4 47 89 58 88
4 47 90 57 88
4 47 89 59 90
4 69 73 70 29
4 29 71 74 69
4 70 29 71 75
4 40 73 69 74
4 40 73 70 75
4 74 71 75 40
4 81 93 17 92
4 81 94 18 92
4 93 19 94 81
4 4 17 92 18
4 17 4 19 93
4 18 94 19 4
4 52 78 53 25
4 25 54 79 52
4 25 54 80 53
4 78 52 79 64
4 78 64 80 53
4 79 64 80 54
4 35 42 76 33
4 33 76 43 36
4 32 75 42 35
4 36 43 75 32
4 62 27 55 21
4 21 55 28 63
4 67 54 27 62
4 28 63 67 54
4 97 100 98 96
4 96 99 101 97
4 96 99 102 98
4 100 97 101 103
4 100 98 102 103
4 101 99 102 103
4 11 45 12 60
4 12 60 9 46
4 9 46 49 57
4 45 11 57 49
4 22 52 25 55
4 25 55 24 54
4 79 62 22 52
4 54 24 62 79
4 12 91 49 14
4 15 50 91 12
4 9 88 49 14
4 9 88 50 15
4 104 105 106 96
4 104 100 107 105
4 96 108 100 104
4 106 102 107 105
4 96 106 102 108
4 107 100 108 102
4 33 72 31 38
4 39 32 72 33
4 43 71 31 38
4 32 39 43 71
4 70 35 72 29
4 72 29 71 36
4 75 39 35 70
4 75 39 36 71
4 65 22 21 77
4 24 67 77 21
4 22 65 79 27
4 67 24 27 79
4 60 8 57 14
4 15 58 8 60
4 14 57 88 46
4 46 88 58 15
4 104 109 110 97
4 104 109 106 98
4 110 99 106 109
4 104 98 108 97
4 110 99 108 97
4 98 108 99 106
4 106 98 107 111
4 106 111 112 99
4 107 103 112 111
4 108 103 107 98
4 112 99 108 103
4 20 4 18 2
4 3 19 4 20
4 2 18 94 87
4 19 3 87 94
4 6 86 0 20
4 7 87 0 20
4 86 6 19 84
4 19 84 87 7
4 1 17 4 20
4 93 86 1 17
4 3 19 93 86
4 12 60 10 44
4 58 50 46 9
4 50 58 10 44
4 113 106 96 110
4 113 110 101 112
4 96 110 101 108
4 106 102 112 113
4 101 108 102 112
4 5 85 0 20
4 17 82 85 5
4 17 82 86 6
4 17 1 85 92
4 92 85 2 18
4 21 55 26 61
4 52 65 61 26
4 27 62 65 52
4 109 105 111 113
4 109 96 98 105
4 96 109 113 99
4 98 105 111 102
4 102 111 113 99
4 72 33 37 30
4 37 30 70 42
4 39 32 70 42
4 5 85 83 18
4 87 7 18 83
4 70 42 40 68
4 40 68 71 43
4 51 25 27 79
4 51 25 28 80
4 80 28 24 67
4 74 38 76 40
4 39 75 40 76
4 71 36 38 74
4 56 8 9 88
4 11 90 56 8
4 11 90 49 14
4 105 115 114 109
4 109 96 97 114
4 114 97 100 115
4 98 105 115 100
4 56 47 49 57
4 47 56 58 50
4 64 77 62 79
4 77 64 80 63
4 80 63 24 54
4 29 68 74 31
4 68 29 32 75
4 74 31 36 43
4 104 115 116 97
4 104 98 107 115
4 103 116 115 107
4 97 116 103 108
4 51 64 65 52
4 64 51 54 67
4 104 96 110 114
4 104 114 116 100
4 110 101 116 114
4 108 100 116 101
4 91 47 90 45
4 46 88 47 91
4 90 45 14 57
4 23 53 25 55
4 63 80 53 23
4 107 117 116 100
4 116 101 112 117
4 107 102 112 117
4 6 93 16 4
4 16 4 7 94
4 93 6 3 84
4 84 3 7 94
4 109 118 115 104
4 109 106 111 118
4 111 118 115 107
4 56 8 10 89
4 50 15 10 89
4 72 29 69 34
4 38 74 69 34
4 4 16 92 5
4 1 82 92 5
4 82 1 6 93
4 109 114 119 113
4 114 97 101 119
4 113 99 101 119
4 78 26 25 51
4 26 78 65 22
4 13 59 8 60
4 90 45 13 59
4 30 73 68 29
4 42 35 30 73
4 2 83 92 5
4 2 83 94 7
4 61 78 64 77
4 61 78 52 22
4 105 118 114 104
4 114 110 113 118
4 106 105 118 113
4 1 82 95 0
4 2 83 95 0
4 97 110 119 116
4 110 119 112 99
4 103 116 119 112
4 48 13 12 91
4 11 90 48 13
4 37 73 40 76
4 35 70 73 37
4 0 95 84 3
4 105 111 117 115
4 103 117 115 100
4 103 117 111 102
4 23 66 77 21
4 80 28 23 66
4 44 89 47 91
4 15 58 89 44
4 33 76 41 34
4 31 74 41 34
4 37 30 69 41
4 41 69 31 38
4 66 23 26 78
4 34 69 73 37
4 89 10 13 48
4 113 119 117 111
4 103 117 119 101
4 59 48 44 10
4 11 45 48 59
4 61 78 53 23
4 73 30 34 41
4 110 119 118 109
4 112 119 118 111
4 66 53 26 61
4 66 53 28 63
4 105 118 117 107
4 113 118 117 112
4 89 44 13 59
4 115 116 119 118
4 95 81 92 85
4 86 93 81 95
4 16 81 82 17
4 16 81 83 18
4 81 95 87 94
4 56 47 48 59
4 116 117 118 114
4 16 81 84 19
4 66 53 51 64
4 114 119 117 115
4 69 41 40 68

# Cells
6 0 1 2 3 4 5
6 6 7 8 9 10 11
6 12 13 14 15 16 17
6 18 19 20 21 22 23
6 24 25 26 27 28 29
6 30 31 32 33 34 35
6 36 37 38 39 40 41
6 42 43 44 45 46 47
6 48 49 50 51 52 53
6 54 55 56 57 58 59
6 60 61 62 63 64 65
6 66 67 68 69 70 71
6 72 73 74 75 76 77
6 78 79 80 81 82 83
6 84 85 86 87 88 89
6 90 91 92 93 94 95
6 96 97 98 99 100 101
6 102 103 104 105 106 107
6 108 109 110 111 112 113
6 114 115 116 117 118 119
6 120 121 122 123 124 125
6 126 127 128 129 130 131
6 132 133 134 135 136 137
6 138 139 140 141 142 143
6 29 71 144 145 146 147
6 47 56 148 149 150 151
6 152 153 154 155 156 157
6 38 52 158 159 160 161
6 118 139 162 163 164 165
6 11 89 166 167 168 169
6 170 171 172 173 174 175
6 32 65 176 177 178 179
6 107 128 180 181 182 183
6 19 73 184 185 186 187
6 101 120 188 189 190 191
6 192 193 194 195 196 197
6 197 198 199 200 201 202
6 110 137 203 204 205 206
6 17 83 207 208 209 210
6 109 136 204 211 212 213
6 37 51 159 214 215 216
6 174 217 218 219 220 221
6 15 81 207 222 223 224
6 108 135 203 211 225 226
6 45 54 148 227 228 229
6 154 230 231 232 233 234
6 31 64 177 235 236 237
6 16 82 208 222 238 239
6 35 62 179 237 240 241
6 23 77 187 242 243 244
6 104 131 183 245 246 247
6 7 85 168 248 249 250
6 152 231 251 252 253 254
6 41 48 160 215 255 256
6 116 143 165 257 258 259
6 26 68 147 260 261 262
6 195 201 263 264 265 266
6 43 58 150 229 267 268
6 172 219 269 270 271 272
6 98 124 190 273 274 275
6 119 140 163 259 276 277
6 175 221 272 278 279 280
6 5 92 281 282 283 284
6 193 198 264 285 286 287
6 6 84 169 248 288 289
6 106 127 181 247 290 291
6 3 90 281 292 293 294
6 153 232 252 295 296 297
6 21 75 186 242 298 299
6 99 121 188 275 300 301
6 25 67 146 261 302 303
6 4 91 282 292 304 305
6 114 141 164 257 306 307
6 170 217 269 308 309 310
6 0 93 293 304 311 312
6 196 202 266 313 314 315
6 9 87 166 250 316 317
6 103 130 182 246 318 319
6 2 95 284 305 312 320
6 156 233 254 321 322 323
6 20 74 185 244 324 325
6 97 123 191 274 326 327
6 28 70 145 262 328 329
6 1 94 283 294 311 320
6 30 63 176 235 330 331
6 18 72 184 299 324 332
6 105 126 180 290 319 333
6 10 88 167 289 316 334
6 157 234 297 323 335 336
6 36 53 158 214 337 338
6 117 138 162 276 307 339
6 27 69 144 303 328 340
6 194 199 286 314 341 342
6 46 55 149 227 343 344
6 173 220 280 310 345 346
6 100 122 189 300 327 347
6 192 263 285 313 341 348
6 111 132 212 225 349 350
6 12 78 223 238 351 352
6 112 133 205 226 349 353
6 39 49 161 255 338 354
6 171 270 278 308 345 355
6 14 80 210 239 352 356
6 113 134 206 213 350 353
6 44 59 151 268 344 357
6 155 253 296 322 336 358
6 34 61 178 241 331 359
6 13 79 209 224 351 356
6 24 66 260 302 329 340
6 42 57 228 267 343 357
6 230 251 295 321 335 358
6 40 50 216 256 337 354
6 115 142 258 277 306 339
6 8 86 249 288 317 334
6 218 271 279 309 346 355
6 33 60 236 240 330 359
6 102 129 245 291 318 333
6 22 76 243 298 325 332
6 96 125 273 301 326 347
6 200 265 287 315 342 348
