# Generated using Miratope v0.5.0 (https://github.com/galoomba1/miratope-rs)
4OFF

# Vertices, Faces, Edges, Cells
120 2520 1200 720

# Vertices
0.809016994374945 -0.809016994374945 -0.809016994374945 0.809016994374945 
0 -1.61803398874989 0 0 
0 0 -1.61803398874989 0 
1.30901699437495 0.5 0 0.809016994374945 
-0.809016994374945 -0.809016994374945 -0.809016994374945 -0.809016994374945 
-0.809016994374945 0 0.5 -1.30901699437495 
0 -0.809016994374945 1.30901699437495 -0.5 
0.5 1.30901699437495 -0.809016994374945 0 
0.809016994374945 0.5 1.30901699437495 0 
0 1.30901699437495 0.5 -0.809016994374945 
0.809016994374945 -0.809016994374945 0.809016994374945 0.809016994374945 
-0.809016994374945 -0.809016994374945 0.809016994374945 0.809016994374945 
1.30901699437495 0 0.809016994374945 -0.5 
-0.809016994374945 -0.809016994374945 -0.809016994374945 0.809016994374945 
1.30901699437495 0 -0.809016994374945 -0.5 
-1.30901699437495 0 0.809016994374945 -0.5 
-1.30901699437495 0 -0.809016994374945 -0.5 
0 0.5 0.809016994374945 -1.30901699437495 
0 0.5 -0.809016994374945 -1.30901699437495 
0.809016994374945 -0.809016994374945 0.809016994374945 -0.809016994374945 
0.809016994374945 -0.809016994374945 -0.809016994374945 -0.809016994374945 
-0.809016994374945 -0.809016994374945 0.809016994374945 -0.809016994374945 
0.809016994374945 0.5 -1.30901699437495 0 
-0.809016994374945 0.5 1.30901699437495 0 
-0.809016994374945 0.5 -1.30901699437495 0 
0.809016994374945 1.30901699437495 0 0.5 
-0.809016994374945 1.30901699437495 0 0.5 
-0.809016994374945 0.809016994374945 -0.809016994374945 0.809016994374945 
-0.809016994374945 0.809016994374945 -0.809016994374945 -0.809016994374945 
0.5 0.809016994374945 0 1.30901699437495 
0.5 0.809016994374945 0 -1.30901699437495 
0.5 -0.809016994374945 0 1.30901699437495 
0.5 -0.809016994374945 0 -1.30901699437495 
1.30901699437495 0.809016994374945 0.5 0 
1.30901699437495 -0.809016994374945 0.5 0 
0.809016994374945 0.809016994374945 -0.809016994374945 0.809016994374945 
0.809016994374945 0.809016994374945 -0.809016994374945 -0.809016994374945 
0 1.30901699437495 0.5 0.809016994374945 
0 -1.30901699437495 0.5 0.809016994374945 
0 -1.30901699437495 0.5 -0.809016994374945 
-0.5 0 1.30901699437495 0.809016994374945 
-0.5 0 1.30901699437495 -0.809016994374945 
0 0 1.61803398874989 0 
0.809016994374945 0 -0.5 -1.30901699437495 
-1.30901699437495 0.5 0 0.809016994374945 
-0.5 1.30901699437495 0.809016994374945 0 
0 -0.809016994374945 -1.30901699437495 -0.5 
0 1.30901699437495 -0.5 -0.809016994374945 
-0.809016994374945 0.809016994374945 0.809016994374945 -0.809016994374945 
-1.61803398874989 0 0 0 
0 0 0 -1.61803398874989 
0.5 1.30901699437495 0.809016994374945 0 
0 -0.809016994374945 -1.30901699437495 0.5 
-0.809016994374945 0 -0.5 1.30901699437495 
1.30901699437495 0.5 0 -0.809016994374945 
1.30901699437495 0 -0.809016994374945 0.5 
0 0 0 1.61803398874989 
0 0.809016994374945 -1.30901699437495 -0.5 
0.5 -1.30901699437495 0.809016994374945 0 
1.30901699437495 -0.5 0 0.809016994374945 
-0.809016994374945 0 -0.5 -1.30901699437495 
0.809016994374945 0.809016994374945 0.809016994374945 0.809016994374945 
1.61803398874989 0 0 0 
0 0.809016994374945 1.30901699437495 -0.5 
-0.5 -1.30901699437495 -0.809016994374945 0 
0.809016994374945 0 0.5 -1.30901699437495 
-1.30901699437495 -0.5 0 0.809016994374945 
-0.5 -0.809016994374945 0 -1.30901699437495 
-0.5 1.30901699437495 -0.809016994374945 0 
0 -0.809016994374945 1.30901699437495 0.5 
0.809016994374945 0 0.5 1.30901699437495 
-1.30901699437495 0.5 0 -0.809016994374945 
-0.5 0.809016994374945 0 1.30901699437495 
-1.30901699437495 0 0.809016994374945 0.5 
0 1.61803398874989 0 0 
1.30901699437495 -0.5 0 -0.809016994374945 
-0.809016994374945 0 0.5 1.30901699437495 
0 0.809016994374945 1.30901699437495 0.5 
0.5 -1.30901699437495 -0.809016994374945 0 
0.809016994374945 -0.5 1.30901699437495 0 
-0.809016994374945 0.809016994374945 0.809016994374945 0.809016994374945 
0 1.30901699437495 -0.5 0.809016994374945 
0 -1.30901699437495 -0.5 0.809016994374945 
0 -1.30901699437495 -0.5 -0.809016994374945 
0.5 0 -1.30901699437495 0.809016994374945 
0.5 0 -1.30901699437495 -0.809016994374945 
0.809016994374945 0.809016994374945 0.809016994374945 -0.809016994374945 
-0.5 0.809016994374945 0 -1.30901699437495 
-0.5 -0.809016994374945 0 1.30901699437495 
-1.30901699437495 0.809016994374945 -0.5 0 
-1.30901699437495 -0.809016994374945 -0.5 0 
0.809016994374945 -0.5 -1.30901699437495 0 
-0.809016994374945 -0.5 1.30901699437495 0 
-0.809016994374945 -0.5 -1.30901699437495 0 
0.809016994374945 -1.30901699437495 0 -0.5 
-0.809016994374945 -1.30901699437495 0 -0.5 
1.30901699437495 0 0.809016994374945 0.5 
-1.30901699437495 0 -0.809016994374945 0.5 
0 -0.5 0.809016994374945 1.30901699437495 
0 -0.5 -0.809016994374945 1.30901699437495 
0.809016994374945 0 -0.5 1.30901699437495 
-1.30901699437495 -0.5 0 -0.809016994374945 
0 0.809016994374945 -1.30901699437495 0.5 
-0.5 -1.30901699437495 0.809016994374945 0 
-0.809016994374945 1.30901699437495 0 -0.5 
1.30901699437495 -0.809016994374945 -0.5 0 
0.809016994374945 1.30901699437495 0 -0.5 
-1.30901699437495 -0.809016994374945 0.5 0 
0.5 0 1.30901699437495 0.809016994374945 
0 -0.5 -0.809016994374945 -1.30901699437495 
0 0.5 -0.809016994374945 1.30901699437495 
0.5 0 1.30901699437495 -0.809016994374945 
0.809016994374945 -1.30901699437495 0 0.5 
-1.30901699437495 0.809016994374945 0.5 0 
1.30901699437495 0.809016994374945 -0.5 0 
-0.809016994374945 -1.30901699437495 0 0.5 
0 0.5 0.809016994374945 1.30901699437495 
-0.5 0 -1.30901699437495 -0.809016994374945 
0 -0.5 0.809016994374945 -1.30901699437495 
-0.5 0 -1.30901699437495 0.809016994374945 

# Faces
4 0 2 4 1
5 3 0 1 6 8
4 0 2 7 3
4 1 6 5 4
5 4 5 9 7 2
4 3 7 9 8
4 9 8 6 5
4 10 0 13 11
4 0 10 12 14
5 10 12 17 15 11
5 14 0 13 16 18
4 11 15 16 13
4 14 12 17 18
4 15 17 18 16
4 19 20 4 21
5 20 19 8 25 22
4 19 21 23 8
4 4 20 22 24
5 4 21 23 26 24
4 8 23 26 25
4 26 25 22 24
4 27 13 4 28
5 29 27 28 30 33
4 13 31 29 27
4 28 30 32 4
5 4 13 31 34 32
4 33 29 31 34
4 33 30 32 34
4 36 35 0 20
4 35 36 9 37
5 35 37 40 38 0
5 9 36 20 39 41
4 0 20 39 38
4 40 41 9 37
4 40 41 39 38
4 42 11 1 19
5 19 42 45 47 43
4 19 43 46 1
4 42 11 44 45
5 11 44 24 46 1
4 47 24 44 45
4 43 46 24 47
4 49 4 50 48
5 48 51 29 53 49
4 48 50 54 51
4 49 53 52 4
5 54 50 4 52 55
4 51 54 55 29
4 55 52 53 29
4 56 27 49 11
5 56 27 57 14 59
4 27 49 60 57
4 56 59 58 11
5 11 58 32 60 49
4 14 32 58 59
4 57 60 32 14
4 62 0 56 61
4 62 61 63 65
5 56 61 63 15 66
5 0 64 67 65 62
4 56 66 64 0
4 65 63 15 67
4 15 67 64 66
4 36 50 19 62
5 70 62 36 68 72
4 50 71 68 36
4 62 70 69 19
5 50 19 69 73 71
4 70 72 73 69
4 68 71 73 72
4 74 27 2 36
5 36 74 77 79 75
4 2 78 75 36
4 74 77 76 27
5 2 27 76 38 78
4 79 38 76 77
4 75 78 38 79
4 48 21 11 80
4 48 47 81 80
5 11 80 81 84 82
5 48 21 83 85 47
4 21 83 82 11
4 47 85 84 81
4 84 85 83 82
4 86 61 10 19
5 61 72 89 87 86
4 10 88 72 61
4 86 19 67 87
5 19 67 90 88 10
4 88 90 89 72
4 87 89 90 67
4 61 35 27 80
5 35 91 94 79 61
4 80 92 79 61
4 35 27 93 91
5 80 27 93 95 92
4 79 92 95 94
4 94 91 93 95
4 36 86 48 28
4 86 96 55 36
5 86 96 98 73 48
5 28 97 99 55 36
4 48 28 97 73
4 98 96 55 99
4 99 97 73 98
4 74 48 42 61
4 61 74 102 100
5 42 61 100 82 103
5 48 101 93 102 74
4 42 103 101 48
4 102 100 82 93
4 103 82 93 101
4 21 49 13 1
4 21 17 104 49
5 21 17 54 105 1
5 49 104 7 84 13
4 1 105 84 13
4 54 7 84 105
4 54 7 104 17
4 10 62 20 1
5 10 62 106 45 40
4 1 10 40 107
4 20 18 106 62
5 1 20 18 71 107
4 106 45 71 18
4 45 71 107 40
4 56 35 2 13
4 56 108 33 35
5 35 2 109 65 33
5 13 56 108 6 95
4 13 95 109 2
4 108 6 65 33
4 6 95 109 65
4 20 50 28 2
5 2 110 70 34 20
4 50 20 34 111
4 2 110 26 28
5 28 50 111 77 26
4 77 111 34 70
4 70 77 26 110
4 86 74 35 62
5 62 112 103 41 86
4 74 86 41 113
4 35 62 112 99
5 74 113 66 99 35
4 113 66 103 41
4 112 99 66 103
4 80 74 28 49
5 74 80 98 59 114
4 49 80 98 115
4 74 114 85 28
5 115 49 28 85 78
4 114 85 78 59
4 59 98 115 78
4 86 50 21 42
4 42 116 25 86
5 25 86 50 117 102
5 21 90 53 116 42
4 21 50 117 90
4 25 116 53 102
4 53 90 117 102
4 10 42 80 56
4 42 118 94 10
5 56 10 94 46 119
5 80 89 60 118 42
4 80 89 119 56
4 89 60 46 119
4 118 60 46 94
4 86 47 22 62
4 86 47 71 41
4 62 22 52 112
4 103 41 71 90
5 47 22 52 90 71
4 112 103 90 52
4 48 74 33 111
4 48 101 39 111
4 33 74 102 55
5 33 111 39 78 55
4 93 78 55 102
4 78 93 101 39
4 35 106 12 59
4 35 119 82 59
5 35 106 87 16 119
5 12 118 95 82 59
4 106 12 118 87
4 87 118 95 16
4 119 16 95 82
5 51 114 105 58 42
4 51 104 15 42
4 58 95 15 42
4 114 51 104 57
4 114 57 46 105
4 105 58 95 46
5 104 15 95 46 57
5 96 111 21 115 31
4 111 21 60 30
4 21 115 93 60
4 114 96 31 84
4 114 96 111 30
5 30 114 84 93 60
4 84 93 115 31
4 19 17 51 96
5 19 96 100 52 83
4 17 60 83 19
4 96 100 81 51
5 81 24 60 17 51
4 100 81 24 52
4 24 60 83 52
4 36 33 59 91
4 33 63 87 36
5 87 36 91 64 101
5 33 63 92 38 59
4 59 38 64 91
4 92 101 87 63
4 92 101 64 38
4 61 35 68 45
4 79 61 45 41
4 35 91 117 68
4 41 79 94 67
5 68 117 67 41 45
4 94 91 117 67
4 86 50 39 79
4 25 70 79 86
4 50 117 64 39
4 70 25 102 99
5 70 99 64 39 79
4 102 99 64 117
4 21 69 77 48
4 48 77 25 47
4 21 83 112 69
5 55 25 77 69 112
4 55 85 47 25
4 55 85 83 112
4 42 61 106 17
4 106 61 100 22
4 42 103 67 17
5 106 22 46 67 17
4 22 100 82 46
4 103 82 46 67
4 29 74 63 108
4 29 84 57 74
5 74 57 109 118 63
5 108 58 78 84 29
4 63 108 58 118
4 118 58 78 109
4 57 109 78 84
4 14 106 68 2
4 14 2 64 94
5 2 64 107 113 68
5 63 106 14 94 6
4 63 113 68 106
4 6 107 113 63
4 6 107 64 94
4 62 25 110 0
4 0 64 97 110
4 25 62 65 9
5 25 9 71 97 110
4 65 9 71 67
4 97 64 67 71
4 36 28 5 65
4 55 34 65 36
4 28 5 107 97
4 55 99 38 34
5 34 38 107 5 65
4 99 97 107 38
4 49 23 9 28
4 28 85 54 9
4 23 49 115 69
5 34 69 23 9 54
4 54 85 78 34
4 69 115 78 34
4 10 3 54 19
4 88 110 3 10
4 54 19 67 18
5 54 18 24 110 3
4 110 88 90 24
4 67 18 24 90
4 27 37 3 84
5 37 27 16 5 63
4 84 46 16 27
4 3 12 63 37
5 3 84 46 32 12
4 63 12 32 5
4 32 5 16 46
5 23 51 3 31 11
4 11 23 5 95
4 31 78 95 11
4 51 3 14 30
4 3 14 78 31
4 51 30 5 23
5 14 78 95 5 30
5 10 105 22 81 116
4 10 6 23 116
4 105 32 6 10
4 116 81 104 23
4 81 104 18 22
5 104 23 6 32 18
4 105 32 18 22
4 1 69 111 32
5 69 116 110 52 1
4 1 52 85 32
4 51 7 110 116
4 116 69 111 51
5 51 7 85 32 111
4 7 110 52 85
4 28 113 37 7
4 28 109 14 7
5 113 28 109 39 92
5 37 108 34 14 7
4 108 92 113 37
4 34 39 92 108
4 34 39 109 14
4 4 107 41 50
4 52 88 107 4
4 50 54 8 41
4 55 70 8 54
5 70 88 107 41 8
4 52 88 70 55
4 10 8 37 56
4 94 65 8 10
4 56 119 68 37
5 37 8 65 18 68
4 68 119 46 18
4 46 18 65 94
4 50 47 114 75
5 50 75 112 115 101
4 47 89 101 50
4 114 75 112 100
5 53 100 114 47 89
4 53 115 112 100
4 89 101 115 53
5 92 58 75 30 48
4 92 66 89 48
4 48 89 57 30
4 58 75 91 82
4 30 75 91 57
4 92 66 82 58
5 89 57 91 82 66
4 114 81 45 86
5 86 118 83 91 114
4 86 45 15 118
4 81 119 91 114
5 15 45 81 119 90
4 15 118 83 90
4 119 90 83 91
4 74 87 15 80
4 80 15 103 98
4 74 114 43 87
4 114 43 94 59
4 59 94 103 98
5 94 103 15 87 43
4 86 77 29 114
4 118 92 77 86
5 77 29 99 115 92
4 91 99 29 114
4 118 92 115 83
4 91 99 115 83
4 19 112 98 42
4 43 91 112 19
4 45 72 98 42
4 47 102 72 45
5 112 98 72 102 91
4 102 47 43 91
4 74 36 117 89
4 75 36 117 83
4 77 73 89 74
4 79 103 73 77
4 79 75 83 103
5 73 103 83 117 89
4 61 59 75 86
4 72 99 59 61
4 86 75 109 87
5 59 99 93 109 75
4 72 99 93 89
4 89 93 109 87
4 62 79 98 100
4 79 62 43 118
5 62 43 117 119 100
5 98 79 118 101 66
4 100 119 66 98
4 119 66 101 117
4 118 43 117 101
4 48 86 43 60
4 96 105 43 86
4 48 73 90 60
4 96 105 82 98
4 98 73 90 82
5 43 60 90 82 105
5 12 61 81 57 43
4 12 61 98 58
4 81 61 98 53
4 58 83 43 12
4 81 57 93 53
5 58 98 53 93 83
4 43 83 93 57
4 42 96 29 80
4 80 29 102 89
4 96 42 118 75
5 75 96 29 102 85
4 60 85 75 118
4 89 60 85 102
4 74 30 14 35
4 99 78 14 35
4 30 74 113 5
4 95 66 99 78
4 66 95 5 113
5 88 44 68 22 0
4 88 103 94 0
4 22 43 94 0
4 44 15 87 68
4 68 87 43 22
4 15 44 88 103
4 20 36 102 52
4 9 26 102 36
4 20 39 115 52
4 26 9 41 73
5 26 73 115 52 102
4 41 39 115 73
4 50 75 33 9
4 9 50 101 113
5 70 76 113 9 33
4 112 70 33 75
4 76 115 112 70
4 115 76 113 101
4 19 20 64 103
4 8 19 103 40
4 20 22 119 64
4 8 40 72 25
4 22 119 72 25
5 40 103 64 119 72
4 27 113 40 56
4 57 87 113 27
4 56 40 79 59
4 79 59 14 65
5 40 113 87 65 79
4 65 14 57 87
4 49 26 116 11
4 11 58 96 116
4 49 60 47 26
5 96 116 26 47 54
4 96 58 32 54
4 32 54 47 60
5 80 108 12 30 104
4 108 80 53 31
4 104 24 53 80
4 108 31 105 12
4 12 30 85 105
5 105 85 24 53 31
4 30 85 24 104
4 32 21 42 12
4 21 32 46 90
4 42 12 3 116
4 116 3 84 53
4 90 46 84 53
4 80 108 38 66
4 80 66 16 104
4 108 12 94 38
4 12 30 109 94
4 30 109 16 104
5 94 38 66 16 109
4 4 85 102 97
5 4 39 69 76 97
4 85 4 39 75
4 96 29 76 69
4 75 39 69 96
4 102 97 76 29
4 62 100 116 8
4 43 17 8 62
5 116 44 71 17 8
4 116 100 119 44
4 44 119 117 71
4 43 117 71 17
4 21 73 88 1
4 17 45 73 21
4 105 1 88 100
5 25 100 88 73 45
4 100 105 54 25
4 54 25 45 17
4 92 76 26 48
4 48 30 7 26
5 7 26 76 31 55
4 30 7 55 75
4 55 75 58 31
4 76 92 58 31
4 11 6 63 80
4 63 80 81 106
4 94 82 11 6
4 106 81 84 14
4 82 94 14 84
5 56 44 104 106 3
4 82 56 3 105
4 56 82 90 44
4 105 3 106 43
4 43 106 104 60
4 60 104 44 90
4 7 27 80 51
4 92 111 51 80
4 85 93 27 7
4 92 111 32 95
4 85 93 95 32
4 50 85 105 19
4 31 69 19 105
4 50 85 24 71
4 31 69 73 53
4 73 53 24 71
4 36 109 94 62
4 16 68 36 109
4 94 62 70 38
4 70 38 66 72
4 68 16 66 72
4 112 79 65 20
5 20 112 88 97 117
4 65 20 117 87
4 79 40 88 112
4 40 113 97 88
4 87 117 97 113
4 2 35 72 97
4 35 33 77 72
4 2 109 101 97
4 33 77 41 65
5 41 77 72 97 101
4 109 101 41 65
4 54 20 112 96
4 20 54 47 117
4 112 96 116 88
4 97 26 116 88
4 47 117 97 26
4 61 40 6 12
4 61 40 44 81
4 43 67 6 12
5 6 67 16 44 40
4 81 57 16 44
4 43 67 16 57
5 49 76 108 111 5
4 76 99 93 49
4 5 109 93 49
4 99 76 108 59
4 59 75 111 108
4 75 109 5 111
4 38 56 3 34
4 38 56 44 107
4 34 3 106 65
4 106 65 5 104
4 5 104 44 107
4 69 88 0 34
4 54 22 0 34
4 9 68 22 54
4 68 9 23 44
4 88 69 23 44
5 23 107 13 110 37
4 110 55 78 13
4 107 39 78 13
4 33 37 110 55
4 33 37 23 111
4 39 107 23 111
4 1 31 55 20
4 18 7 55 20
4 31 1 107 76
4 71 26 76 107
4 26 71 18 7
4 22 110 13 46
4 13 46 67 107
4 23 17 106 37
4 22 110 37 106
4 23 17 67 107
4 104 27 2 18
4 23 76 27 104
4 18 2 78 32
4 38 6 23 76
4 78 32 6 38
4 11 108 34 1
4 44 37 108 11
4 46 14 34 1
4 24 7 37 44
4 7 24 46 14
4 4 71 44 13
4 31 116 44 13
4 32 17 71 4
4 116 31 34 8
4 8 34 32 17
4 76 110 24 49
4 5 18 24 49
4 54 111 108 3
4 3 108 76 110
4 5 18 54 111
4 0 70 76 13
4 14 33 70 0
4 13 76 113 16
4 9 18 14 33
4 113 16 18 9
4 18 4 97 68
4 39 65 18 4
4 8 69 76 37
4 65 39 69 8
4 37 76 97 68
4 2 16 67 20
4 20 67 6 34
4 110 44 16 2
4 40 70 34 6
4 40 70 110 44
4 42 73 26 51
4 42 73 115 58
4 51 26 102 114
4 102 114 105 52
4 105 52 115 58
4 118 48 49 95
4 12 51 48 118
4 82 53 49 95
4 12 51 29 59
4 82 53 29 59
4 11 53 100 10
4 100 10 12 114
4 53 11 15 89
4 17 47 114 12
4 17 47 89 15
4 82 10 62 91
4 10 82 66 40
4 91 62 106 57
4 89 45 106 57
4 89 45 40 66
4 28 101 66 27
4 29 98 66 27
4 101 28 30 118
4 33 79 98 29
4 33 79 118 30
4 41 19 96 77
4 41 19 83 101
4 77 96 100 72
4 100 72 97 52
4 52 97 101 83
4 25 36 91 100
4 45 87 36 25
4 91 100 88 64
4 87 45 73 101
4 88 64 101 73
4 28 102 72 113
4 91 109 28 102
4 113 72 98 92
4 92 98 112 39
4 39 112 91 109
4 74 72 40 63
4 74 72 119 57
4 40 63 118 103
4 103 118 109 64
4 57 119 64 109
4 10 103 73 116
4 103 10 105 83
4 73 116 81 89
4 89 81 22 117
4 117 22 105 83
4 84 56 61 114
4 30 63 61 114
4 66 93 84 56
4 15 60 30 63
4 15 60 93 66
4 83 50 28 93
4 93 28 26 53
4 111 58 83 50
4 98 77 26 53
4 77 98 58 111
4 49 92 38 13
4 84 59 38 13
4 49 92 63 104
4 84 59 33 7
4 33 7 104 63
4 90 1 0 119
4 0 119 81 3
4 90 1 6 15
4 3 81 45 8
4 45 8 6 15
4 21 71 9 111
4 71 21 115 97
4 25 96 31 110
4 96 25 9 111
4 115 97 110 31
4 55 2 68 25
4 64 112 55 2
4 113 77 25 68
4 77 113 107 69
4 69 107 64 112
4 35 70 8 106
4 88 119 35 70
4 41 87 106 8
4 119 88 107 16
4 107 16 87 41
4 99 27 37 70
4 64 16 27 99
4 79 63 37 70
4 39 5 63 79
4 16 64 39 5
4 23 71 90 11
4 52 31 11 90
4 22 3 51 47
4 3 22 52 31
4 51 47 71 23
4 4 78 58 21
4 58 21 23 108
4 78 4 24 84
4 108 23 26 29
4 26 29 84 24
4 56 81 24 13
4 95 60 24 13
4 81 56 108 51
4 108 51 17 6
4 6 17 60 95
4 46 0 35 57
4 57 35 37 104
4 46 0 38 95
4 15 40 37 104
4 40 15 95 38
4 4 115 99 2
4 115 4 5 92
4 29 7 2 99
4 7 29 77 9
4 5 92 77 9
4 1 67 41 69
4 52 117 67 1
4 116 45 41 69
4 45 116 110 68
4 68 110 52 117
5 0 94 82 105 1
4 2 0 94 109
4 105 1 4 85
5 2 4 85 93 109
4 82 93 85 105
4 93 82 94 109
4 0 64 103 10
5 10 103 98 58 11
5 64 0 13 78 99
4 58 11 13 78
4 78 99 98 58
4 98 103 64 99
5 20 65 94 43 19
4 21 19 43 60
4 4 5 65 20
5 4 21 60 95 5
4 65 94 95 5
4 95 60 43 94
5 27 57 89 102 28
4 13 46 57 27
4 4 28 102 52
5 4 13 46 90 52
4 90 52 102 89
4 57 89 90 46
4 36 35 59 75
5 3 84 59 35 0
5 20 54 85 75 36
4 3 0 20 54
4 84 3 54 85
4 85 75 59 84
5 19 41 79 118 42
4 1 107 41 19
4 42 11 95 118
5 1 11 95 38 107
4 79 38 107 41
4 118 79 38 95
5 49 104 15 89 48
4 48 89 117 50
4 49 4 18 104
5 117 50 4 18 67
4 15 104 18 67
4 117 67 15 89
5 56 119 72 99 27
4 49 27 99 115
4 119 56 11 90
5 11 90 73 115 49
4 99 72 73 115
4 73 90 119 72
4 62 61 98 112
5 56 108 29 98 61
5 0 34 55 112 62
4 0 34 108 56
4 55 34 108 29
4 55 29 98 112
5 36 62 106 14 33
4 36 33 111 50
4 19 17 106 62
5 50 19 17 32 111
4 111 32 14 33
4 17 32 14 106
5 74 114 47 25 36
4 2 36 25 110
4 114 74 27 84
5 2 27 84 24 110
4 47 24 110 25
4 114 47 24 84
4 48 101 66 80
5 80 11 44 40 66
5 41 101 48 21 71
4 44 11 21 71
4 41 71 44 40
4 41 101 66 40
5 61 86 77 33 63
4 63 6 10 61
4 19 86 77 69
5 69 19 10 6 34
4 69 34 33 77
4 34 6 63 33
5 25 100 61 35 70
4 100 61 80 53
4 27 35 70 76
5 80 27 76 26 53
4 26 76 70 25
4 25 100 53 26
4 36 86 45 68
5 48 86 45 17 51
5 68 36 28 7 18
4 51 48 28 7
4 17 18 7 51
4 68 18 17 45
4 113 74 61 40
5 42 116 8 40 61
5 74 48 26 9 113
4 48 26 116 42
4 9 8 116 26
4 9 8 40 113
4 21 83 93 49
5 21 1 67 103 83
5 16 66 93 49 13
4 16 67 1 13
4 66 16 67 103
4 103 66 93 83
5 12 59 79 62 10
4 12 32 1 10
4 20 62 79 39
5 20 39 78 32 1
4 59 12 32 78
4 78 39 79 59
4 91 35 56 82
5 35 2 55 102 91
5 13 56 82 53 31
4 31 13 2 55
4 53 102 55 31
4 102 91 82 53
5 20 2 14 46 22
4 20 50 47 22
4 30 14 2 28
5 28 50 47 60 30
4 30 60 46 14
4 22 46 60 47
5 86 96 54 8 62
4 86 96 29 74
4 35 37 8 62
5 37 7 29 74 35
4 54 96 29 7
4 54 8 37 7
5 45 81 80 74 72
4 80 81 24 49
4 28 97 72 74
5 97 71 24 49 28
4 45 72 97 71
4 24 71 45 81
4 86 42 15 87
5 65 87 86 50 9
5 23 6 15 42 21
4 21 23 9 50
4 65 6 23 9
4 87 65 6 15
4 88 10 42 73
5 88 70 38 56 10
5 92 80 42 73 77
4 92 38 56 80
4 70 77 73 88
4 92 77 70 38
4 4 39 38 13
4 94 46 13 38
4 4 52 112 39
5 112 39 38 94 103
4 94 103 90 46
4 20 117 90 1
4 101 39 20 117
4 60 90 1 32
4 60 93 78 32
5 101 117 90 60 93
4 2 97 115 78
5 119 16 2 97 117
4 95 78 2 16
4 82 83 117 119
5 78 95 82 83 115
4 117 83 115 97
5 112 75 58 105 19
4 105 19 67 46
4 19 67 64 112
4 109 75 112 64
4 58 95 109 75
5 67 46 95 109 64
5 88 112 115 31 1
4 46 84 31 1
4 46 1 88 119
4 91 119 88 112
4 93 91 112 115
5 119 91 93 84 46
4 52 20 18 24
5 91 83 52 20 64
4 16 64 20 18
4 91 64 16 57
4 60 83 91 57
5 16 57 60 24 18
4 34 20 52 31
4 34 38 64 20
5 59 38 34 31 58
4 91 59 58 83
4 52 31 58 83
4 4 78 75 50
4 14 18 4 78
4 117 50 75 91
5 78 14 94 91 75
4 94 14 18 67
4 0 22 24 13
4 64 0 22 117
4 85 24 13 78
4 102 85 78 99
5 117 22 24 85 102
4 43 62 0 46
4 34 0 46 32
4 112 83 43 62
4 32 85 55 34
5 43 83 85 32 46
4 99 2 20 112
4 100 22 20 112
4 14 2 99 59
4 14 46 82 59
5 112 100 82 59 99
4 52 117 36 55
4 55 36 109 78
5 117 36 109 57 43
5 52 105 84 78 55
4 105 43 57 84
4 43 105 52 117
5 64 107 4 115 101
4 32 6 107 4
4 4 115 58 32
5 32 6 94 118 58
4 101 118 58 115
4 118 101 64 94
4 49 95 109 28
4 28 109 64 97
4 24 49 95 46
4 46 67 71 24
4 11 53 52 1
4 93 53 11 95
4 1 107 97 52
5 52 97 99 93 53
4 99 93 95 38
4 82 10 19 83
4 95 6 10 82
4 69 115 83 19
4 78 95 6 34
4 64 2 27 66
4 84 27 66 82
4 110 2 64 88
5 64 88 90 82 66
4 90 82 84 24
4 28 5 32 85
5 5 16 87 101 28
4 28 85 83 101
4 87 101 83 43
4 46 16 87 43
5 31 3 10 100 96
4 10 3 14 94
4 94 91 100 10
4 100 91 75 96
4 96 75 78 31
4 65 18 22 62
5 105 22 62 91 114
4 62 65 109 91
4 114 30 32 105
4 30 109 91 114
5 65 18 32 30 109
4 0 110 7 14
5 110 52 100 119 0
4 0 119 57 14
4 114 100 119 57
4 114 100 52 85
5 85 114 57 14 7
4 54 50 39 34
4 54 50 83 105
5 50 83 118 109 39
5 54 34 14 12 105
4 118 83 105 12
4 12 14 109 118
4 56 84 105 10
4 10 88 52 105
4 78 84 56 38
4 78 55 70 38
4 91 36 28 93
4 36 68 119 91
4 84 93 28 7
4 84 46 18 7
4 24 4 107 44
4 24 53 115 4
5 89 53 24 44 119
4 119 64 107 44
4 119 64 101 89
5 39 69 21 58 92
4 90 21 69 88
4 90 82 58 21
4 39 64 88 69
4 39 64 66 92
4 71 107 39 50
4 71 90 83 50
4 15 118 109 16
5 107 16 15 90 71
4 109 16 107 39
4 96 19 20 55
4 43 114 96 19
4 33 55 20 65
5 59 33 55 96 114
4 65 94 59 33
4 70 110 22 62
4 70 62 91 99
5 70 99 29 31 110
4 29 114 105 31
4 22 110 31 105
4 18 2 35 106
4 35 91 43 106
4 54 18 2 55
5 18 54 47 43 106
4 102 55 54 47
4 21 111 34 1
4 21 111 75 83
4 65 34 1 67
5 79 65 34 111 75
4 65 79 103 67
4 2 68 71 4
4 47 71 4 85
4 2 109 87 68
5 87 68 71 47 89
4 85 93 89 47
4 38 0 110 76
4 66 38 0 119
4 98 100 52 115
5 38 66 98 115 76
4 52 110 76 115
4 70 0 1 69
4 94 0 70 79
4 105 1 69 96
5 98 79 70 69 96
4 98 79 94 82
4 99 35 68 97
5 81 22 68 35 57
4 93 99 35 57
4 22 52 53 81
4 68 22 52 97
4 36 87 67 20
4 87 36 75 118
4 17 54 20 67
4 54 85 60 17
5 118 87 67 17 60
4 21 73 97 4
4 89 73 21 60
4 5 113 97 4
5 113 97 73 89 66
4 89 60 95 66
5 44 88 97 76 13
4 92 76 13 95
4 95 13 44 15
4 101 97 76 92
5 92 101 103 15 95
4 103 88 97 101
4 5 49 11 6
4 11 90 67 6
4 49 5 39 115
4 67 41 73 90
5 41 39 5 6 67
4 3 105 19 8
4 19 112 70 8
5 8 70 33 108 3
4 108 58 75 33
4 58 108 3 105
4 3 56 27 7
4 99 27 7 55
4 56 119 22 3
5 22 3 7 55 25
4 99 55 25 72
4 86 114 85 50
4 86 114 57 87
4 7 85 50 9
4 9 65 14 7
4 62 94 118 86
4 86 118 58 96
4 8 62 94 6
4 8 54 32 6
4 102 85 30 74
5 30 74 87 106 104
4 102 117 87 74
4 24 22 106 104
4 87 106 22 117
4 88 0 35 72
4 59 35 72 98
4 0 3 116 88
5 88 116 53 98 72
4 59 84 53 98
5 108 111 96 42 12
4 42 103 112 96
4 103 42 12 94
4 111 96 112 39
4 39 111 108 38
4 84 13 76 29
4 84 13 44 81
5 81 100 102 29 84
4 100 88 44 81
4 100 88 97 102
4 9 36 117 71
4 36 9 5 109
5 9 5 104 17 71
4 57 104 17 43
4 57 109 5 104
4 35 14 12 61
4 100 105 12 61
4 14 34 70 35
4 70 25 54 34
4 86 75 55 25
4 22 43 86 25
5 86 75 30 12 43
4 12 3 7 30
4 12 3 22 43
4 102 36 62 100
4 33 36 102 29
4 106 81 100 62
4 33 14 84 29
5 113 27 104 44 68
4 93 27 104 60
4 101 93 27 113
4 68 117 101 113
4 90 44 68 117
4 101 50 19 103
4 15 103 19 17
4 92 111 50 101
4 17 32 95 15
4 13 107 40 56
4 31 13 107 69
4 103 40 56 82
5 69 107 40 103 73
4 73 103 82 53
4 49 26 110 13
4 16 13 110 68
4 102 26 49 93
5 72 102 26 110 68
4 93 66 72 102
4 1 31 108 6
4 6 40 88 1
4 31 108 92 115
5 79 40 6 108 92
4 92 115 112 79
4 48 30 32 21
4 101 109 30 48
4 71 21 32 18
4 18 71 41 65
4 7 26 97 2
4 2 16 104 7
5 104 81 47 26 7
4 119 81 104 16
4 119 81 47 117
4 41 86 75 39
4 86 41 67 43
4 5 6 12 30
4 75 30 5 39
5 69 76 108 11 116
4 11 108 59 82
4 82 100 116 11
4 69 116 100 112
4 69 112 99 76
5 61 114 51 3 106
4 79 61 114 75
4 61 79 65 106
4 51 111 34 3
4 114 75 111 51
4 33 35 68 9
4 33 30 57 35
5 33 9 54 51 30
4 54 22 81 51
4 30 51 81 57
4 56 37 33 59
5 116 81 56 37 110
4 59 56 81 114
4 114 81 116 96
4 110 55 96 116
4 27 16 15 80
4 90 53 80 15
4 27 16 107 76
4 71 90 53 26
5 107 23 49 92 113
4 49 23 17 60
4 49 92 118 60
4 113 87 118 92
4 113 87 67 107
4 21 115 98 42
4 23 76 115 21
4 15 66 98 42
4 66 38 6 15
4 119 35 74 89
4 35 119 44 37
4 29 74 89 53
4 24 53 29 7
4 59 61 42 58
4 40 61 59 38
4 116 31 58 42
4 40 8 34 38
4 48 47 54 111
5 63 118 48 111 5
4 47 43 118 48
4 118 43 106 63
4 18 5 63 106
4 60 48 74 57
4 26 48 60 24
4 113 16 57 74
4 26 9 18 24
4 17 8 69 21
4 12 58 21 17
5 17 8 65 63 12
4 63 92 58 12
4 65 39 92 63
4 80 29 31 11
4 99 29 80 66
4 11 31 110 44
4 99 70 40 66
4 72 61 114 102
4 72 61 106 68
4 110 26 51 3
4 106 3 110 68
4 10 116 25 62
4 10 12 51 116
4 77 79 62 25
5 25 116 51 29 77
4 77 29 59 79
4 36 65 63 74
4 36 25 8 65
4 114 12 63 74
4 8 17 47 25
4 27 37 9 28
4 57 106 37 27
4 25 102 28 9
5 9 25 45 106 37
4 102 89 45 25
4 19 54 51 42
4 9 54 19 41
4 42 51 30 118
4 41 79 33 9
4 10 40 37 3
4 40 72 100 10
4 37 76 31 3
4 76 31 96 77
5 76 37 40 72 77
4 26 28 5 23
4 26 28 101 73
5 26 73 45 44 23
4 44 16 87 45
4 5 23 44 16
4 49 23 116 53
4 53 98 92 49
4 88 116 23 107
4 113 72 88 107
4 69 111 48 73
4 73 103 118 48
4 107 5 63 40
4 69 107 5 111
4 66 56 37 113
4 89 66 56 81
4 113 97 110 37
4 97 110 116 73
4 28 113 41 50
4 30 63 113 28
4 45 47 50 41
5 63 113 41 45 15
4 45 47 60 15
4 8 10 11 23
4 41 8 10 103
4 11 23 111 58
5 111 23 8 41 77
4 103 98 77 41
4 86 47 81 61
4 61 81 104 63
4 86 77 26 47
4 26 77 33 7
4 108 80 74 33
4 108 80 81 3
4 70 33 74 72
4 72 70 8 45
4 45 25 96 42
4 42 12 106 45
4 106 37 108 12
4 9 111 108 37
4 29 51 104 27
4 29 27 113 77
4 68 25 116 44
4 116 51 104 44
4 74 30 111 77
4 74 77 41 87
4 23 8 106 104
4 30 104 23 111
5 63 80 51 23 37
4 96 51 80 98
4 98 80 63 79
4 23 51 96 69
4 23 69 70 37
4 89 47 51 80
4 89 80 63 87
4 37 63 87 68
4 68 71 23 37
4 45 61 56 44
4 61 98 73 45
4 56 44 23 108
4 73 26 29 98
4 92 48 86 79
4 86 45 40 79
4 51 108 92 48
4 45 17 6 40
4 49 76 77 48
4 77 72 89 48
4 49 76 37 104
4 89 15 40 72
4 42 17 104 80
4 92 5 104 80
4 17 71 73 42
4 71 9 77 73
4 15 63 108 11
4 15 45 116 11
4 108 76 113 63
4 76 113 41 69
4 4 50 19 1
5 1 19 103 94 6
5 50 4 5 109 101
4 6 94 109 5
4 101 109 94 103
4 21 11 13 4
5 11 15 103 73 21
5 97 4 13 16 64
4 73 103 64 97
4 16 64 103 15
4 21 48 86 19
5 19 86 79 65 8
5 48 21 23 5 92
4 8 65 5 23
4 65 79 92 5
4 20 36 28 4
5 28 36 87 57 30
5 20 67 46 32 4
4 32 46 57 30
4 67 46 57 87
4 10 19 20 0
5 10 82 59 38 0
5 20 39 75 83 19
4 38 59 75 39
4 83 75 59 82
4 48 42 11 49
5 42 45 41 77 48
5 44 107 76 49 11
4 76 107 41 77
4 44 107 41 45
4 50 36 74 48
5 50 36 65 18 54
5 51 104 63 74 48
4 54 18 104 51
4 65 18 104 63
4 49 4 2 27
5 68 2 27 57 119
5 49 60 90 71 4
4 71 68 119 90
4 57 119 90 60
4 1 0 56 11
5 112 64 0 1 52
5 56 11 53 98 66
4 112 52 53 98
4 98 66 64 112
4 61 42 19 62
5 62 61 59 33 70
5 42 19 69 111 58
4 70 33 111 69
4 58 111 33 59
4 62 0 2 36
5 62 43 114 75 36
5 84 78 2 0 46
4 114 75 78 84
4 84 46 43 114
4 27 80 48 28
5 27 80 81 44 37
5 48 47 71 9 28
4 37 44 71 9
4 47 81 44 71
4 11 80 61 10
5 77 72 61 80 29
5 10 88 69 31 11
4 69 31 29 77
4 69 88 72 77
4 0 13 27 35
5 22 0 35 91 100
5 27 93 53 24 13
4 22 100 53 24
4 91 100 53 93
4 35 61 86 36
5 86 61 12 51 96
5 36 55 7 14 35
4 55 7 51 96
4 51 12 14 7
4 56 61 74 27
5 61 56 3 116 100
5 74 27 7 26 102
4 7 26 116 3
4 100 116 26 102
4 50 21 49 28
5 49 104 16 113 28
5 21 17 67 41 50
4 104 16 67 17
4 41 113 16 67
4 21 42 10 1
5 98 42 10 40 79
5 21 115 39 107 1
4 107 39 79 40
4 39 115 98 79
4 13 1 20 2
5 117 20 2 109 91
5 13 1 90 82 95
4 117 90 82 91
4 95 82 91 109
4 62 20 50 86
5 111 30 118 86 50
5 94 62 20 34 14
4 111 30 14 34
4 94 14 30 118
4 10 56 35 62
5 35 99 29 84 56
5 10 105 96 112 62
4 105 84 29 96
4 99 29 96 112
4 35 2 28 74
5 35 74 114 81 106
5 18 2 28 85 24
4 114 81 24 85
4 81 106 18 24
4 74 86 42 80
5 86 25 9 33 74
5 116 23 108 80 42
4 108 23 9 33
4 25 9 23 116
4 49 13 56 80
5 73 89 80 49 26
5 56 119 88 110 13
4 110 88 73 26
4 119 88 73 89
4 49 92 39 4
4 39 41 71 4
5 92 39 41 103 118
4 90 60 118 103
4 48 60 32 111
5 87 101 48 60 15
5 6 32 111 39 65
4 60 32 6 15
4 101 39 65 87
4 83 117 71 21
5 118 83 21 32 95
4 118 87 117 83
5 16 87 117 71 18
4 16 18 32 95
4 15 42 19 67
4 69 107 67 19
4 95 58 111 5
5 15 67 107 5 95
4 1 46 60 21
4 46 16 107 1
4 115 39 109 93
5 60 46 16 109 93
4 17 19 20 18
4 39 5 18 20
4 60 30 75 83
5 60 17 18 5 30
5 92 58 11 6 38
4 90 11 58 83
4 58 92 101 83
4 67 64 38 6
5 64 67 90 83 101
4 50 21 58 75
4 41 79 75 50
5 75 58 12 94 79
4 17 67 94 12
4 78 85 50 39
5 50 85 60 43 117
4 64 94 43 117
5 95 78 39 64 94
4 85 78 95 60
4 34 69 21 32
5 79 112 69 34 38
4 83 112 79 118
4 34 38 95 32
4 4 115 112 20
4 103 112 20 67
5 103 82 58 115 112
4 82 58 32 46
5 58 105 1 34 78
4 105 43 67 1
4 65 109 78 34
4 58 105 43 118
5 109 65 67 43 118
4 118 101 73 42
5 63 118 42 17 6
4 118 101 113 63
4 107 71 17 6
5 113 107 71 73 101
4 48 118 109 28
4 109 28 9 65
4 43 67 71 47
5 89 93 28 97 117
4 95 5 28 93
4 95 93 89 15
4 97 117 67 107
4 49 95 6 23
5 115 49 95 66 101
5 23 6 40 41 69
4 95 6 40 66
4 101 115 69 41
4 101 28 2 64
4 67 18 2 64
4 85 24 90 83
5 12 43 19 54 32
4 43 19 41 87
4 63 12 43 87
5 87 41 9 5 63
4 9 54 32 5
4 94 10 11 95
4 88 64 94 10
4 78 31 69 39
4 65 62 10 6
4 65 62 112 39
4 32 111 96 105
4 1 32 14 0
4 14 109 64 0
4 112 52 85 75
5 32 85 75 109 14
5 10 12 108 34 8
4 12 118 103 10
4 41 8 34 39
4 12 108 92 118
4 38 78 4 107
5 52 4 78 93 83
5 66 38 107 88 103
4 83 103 88 52
4 78 38 66 93
4 91 36 50 83
4 91 94 65 36
4 105 46 18 54
5 46 94 91 83 105
4 4 50 47 24
4 24 4 5 104
5 104 24 47 89 57
4 89 57 109 101
4 90 21 48 89
4 23 44 90 21
4 66 16 5 92
5 89 90 44 16 66
4 50 71 45 86
4 111 50 71 23
5 71 23 104 15 45
4 15 118 30 104
4 1 31 96 19
4 98 96 19 103
5 31 96 98 59 108
4 108 59 94 6
5 99 115 31 13 38
4 13 46 105 31
4 31 105 83 115
4 99 91 94 38
4 55 112 19 54
4 59 91 43 12
5 55 78 59 91 112
4 54 55 78 32
4 21 111 108 11
4 77 111 21 73
5 108 111 77 79 63
4 63 79 103 15
4 47 86 75 85
5 86 87 106 17 47
4 87 109 14 106
4 32 85 47 17
4 24 49 115 52
4 46 95 66 119
5 119 46 24 52 117
4 115 101 117 52
4 13 76 69 1
4 73 69 1 90
5 73 69 76 92 98
4 92 98 82 95
4 4 18 22 52
4 57 93 78 14
5 14 57 43 22 18
4 52 22 43 83
4 17 42 96 54
4 63 33 75 118
5 33 75 96 54 34
4 54 17 6 34
5 68 113 74 89 45
4 60 89 74 30
4 60 17 45 89
4 68 113 5 18
4 48 26 97 101
5 24 44 68 97 26
4 101 97 68 87
4 24 60 15 44
4 49 5 63 80
4 5 49 26 9
4 89 87 41 73
5 70 40 56 108 76
4 58 108 56 82
4 103 40 70 112
4 108 76 115 58
5 22 105 85 55 20
4 99 64 20 55
4 55 85 93 99
4 119 22 105 82
5 99 93 82 119 64
4 86 114 105 19
4 86 114 59 79
4 8 65 14 3
5 59 114 105 3 14
4 8 116 11 6
5 70 8 116 96 77
4 92 77 96 58
4 70 8 6 38
4 20 65 106 22
4 30 85 55 33
5 106 65 33 30 12
4 12 105 22 106
4 0 2 97 88
4 90 46 0 88
4 115 53 84 78
5 53 90 88 97 115
4 42 103 66 80
4 42 116 88 103
4 38 108 23 107
4 84 13 4 85
4 13 16 57 84
5 91 57 84 85 102
4 91 102 97 64
4 36 9 8 62
4 9 111 75 36
5 17 8 9 111 51
4 114 51 17 43
4 70 88 1 34
4 70 34 78 99
5 99 98 100 88 70
4 100 105 58 98
5 55 31 3 0 70
4 3 12 94 0
4 3 12 58 31
4 79 70 55 75
4 100 62 20 52
4 82 94 62 100
5 82 100 52 31 84
4 34 31 84 14
4 50 9 68 117
5 106 104 7 9 68
4 117 43 106 68
4 7 85 60 104
4 17 51 80 15
5 92 80 15 40 113
4 40 15 17 8
4 92 111 9 113
4 13 107 113 27
4 107 13 24 71
4 53 93 101 73
5 36 102 47 22 68
4 93 109 36 102
4 22 46 16 68
4 93 60 47 102
4 92 115 53 80
4 90 15 40 88
4 92 113 97 115
4 48 42 12 30
4 33 77 48 30
4 106 65 41 45
4 2 7 54 20
4 2 7 30 109
5 114 47 54 7 30
4 91 114 47 117
4 86 41 40 61
4 86 41 69 96
4 23 51 12 6
4 49 93 82 11
4 44 119 82 11
4 99 76 107 64
4 79 61 56 38
4 100 61 79 112
4 34 3 116 69
4 33 35 0 34
4 35 33 75 91
4 100 22 54 96
4 59 56 13 78
4 59 56 119 91
4 88 112 55 110
4 16 27 74 87
4 27 16 18 7
4 102 26 71 117
4 86 87 113 77
4 37 106 87 113
5 26 23 37 113 77
4 23 26 47 17
5 76 97 72 66 27
4 66 27 104 15
4 66 72 45 15
4 76 97 71 23
4 36 117 119 35
4 46 14 35 119
4 55 7 24 52
4 40 44 13 38
4 115 31 116 73
5 44 40 72 73 116
4 99 38 40 72
5 106 3 54 25 62
4 62 106 63 79
4 63 108 3 106
4 25 77 111 54
4 74 86 43 57
4 14 33 74 57
4 25 22 18 9
5 63 61 45 8 37
4 63 92 98 61
4 69 8 45 73
4 92 63 37 76
5 99 2 110 52 102
4 16 66 99 2
4 90 44 110 52
4 66 89 102 99
4 110 2 14 3
4 110 52 105 3
4 114 102 99 59
4 10 116 110 0
4 53 82 10 116
4 76 38 59 29
5 29 76 110 116 53
4 8 25 100 10
4 8 34 55 25
5 29 114 100 25 55
4 108 29 114 12
4 25 102 91 62
4 84 57 106 3
4 102 85 54 25
4 10 3 51 42
4 51 42 98 29
5 37 33 29 51 3
4 37 33 79 40
4 31 76 27 84
4 66 82 100 72
4 76 97 52 31
4 36 25 26 28
4 30 51 26 28
5 51 26 25 45 81
4 45 87 57 81
4 53 102 28 49
4 49 104 81 53
4 119 16 113 72
5 102 53 81 119 72
4 48 73 72 74
4 48 73 116 51
4 104 63 40 44
4 28 7 110 97
5 84 7 110 22 81
4 84 81 89 93
4 97 110 22 117
4 47 45 61 114
4 47 54 8 45
4 37 63 30 7
4 11 23 37 56
4 23 11 53 26
4 66 113 77 98
4 61 81 22 62
4 81 61 59 84
4 70 33 7 110
4 70 0 119 72
4 53 31 3 81
4 55 70 72 102
4 35 59 108 37
5 37 110 25 72 35
4 98 96 25 72
4 108 37 110 31
4 29 27 2 55
4 27 29 114 57
4 119 100 25 68
4 74 35 70 77
4 114 74 77 96
4 81 116 8 106
4 99 27 80 98
4 80 98 100 81
4 70 37 44 88
4 68 37 33 36
4 3 22 68 37
4 102 29 51 47
4 35 56 44 68
4 44 56 84 24
4 99 97 26 29
4 45 81 56 40
4 40 70 25 45
4 26 51 108 76
4 72 35 57 89
4 47 89 72 25
4 110 37 104 24
4 80 104 106 61
4 104 80 29 7
4 72 77 9 68
4 74 113 76 29
4 53 89 45 116
4 113 76 110 68
5 50 19 43 118 75
5 46 1 4 78 95
4 118 75 78 95
4 118 43 46 95
5 13 38 66 82 11
5 21 83 101 39 4
4 39 38 66 101
4 83 101 66 82
5 87 86 48 30 63
5 21 32 6 67 19
4 30 63 6 32
4 63 87 67 6
5 20 36 91 43 22
5 24 60 93 28 4
4 22 43 60 24
4 93 60 43 91
5 12 58 96 19 10
5 0 20 55 78 14
4 96 58 78 55
4 14 78 58 12
5 49 5 113 101 48
5 11 42 103 40 6
4 6 40 113 5
4 103 101 113 40
5 68 106 57 74 36
5 50 71 17 60 48
4 71 17 106 68
4 60 57 106 17
5 89 53 49 27 66
5 2 64 117 52 4
4 53 52 117 89
4 66 64 117 89
5 59 99 70 0 56
5 11 58 115 69 1
4 70 99 115 69
4 58 115 99 59
5 61 42 51 108 63
5 65 34 54 19 62
4 54 34 108 51
4 65 34 108 63
5 85 7 2 36 102
5 62 0 3 105 100
4 7 3 105 85
4 102 100 105 85
5 15 80 48 73 45
5 28 27 16 68 97
4 68 97 73 45
4 16 68 45 15
5 61 79 70 8 10
5 11 23 76 92 80
4 8 70 76 23
4 70 79 92 76
5 29 102 72 35 27
5 13 0 88 52 31
4 102 29 31 52
4 72 102 52 88
5 37 3 81 61 35
5 9 54 47 86 36
4 37 3 54 9
4 3 81 47 54
5 77 25 45 61 74
5 27 56 44 110 76
4 25 77 76 110
4 44 110 25 45
5 50 117 87 109 28
5 21 90 15 95 49
4 90 15 87 117
4 15 95 109 87
5 34 1 10 94 38
5 42 118 92 111 21
4 111 92 38 34
4 38 94 118 92
5 105 83 112 20 1
5 13 2 99 93 84
4 84 105 83 93
4 99 93 83 112
5 62 106 12 114 86
5 20 18 32 85 50
4 12 114 85 32
4 106 12 32 18
5 35 62 25 55 33
5 56 108 31 116 10
4 108 33 55 31
4 116 31 55 25
5 35 2 110 22 119
5 89 74 28 26 47
4 26 47 22 110
4 22 119 89 47
5 41 8 17 42 86
5 113 74 80 104 37
4 113 41 8 37
4 37 104 17 8
5 72 98 80 56 40
5 13 107 97 115 49
4 40 72 97 107
4 98 115 97 72
4 1 32 5 107
5 107 1 90 103 64
5 60 32 5 109 118
4 5 107 64 109
4 18 4 21 17
4 21 17 43 83
5 18 65 87 43 17
4 50 101 64 20
4 101 93 85 50
5 95 16 64 101 93
5 50 41 65 5 111
4 41 103 83 50
4 94 103 41 65
5 94 103 83 58 95
5 39 109 94 67 20
4 90 67 20 52
4 90 82 94 67
5 82 90 52 115 93
5 30 75 36 65 14
4 67 117 36 65
4 65 67 46 14
5 60 83 117 67 46
4 21 115 112 19
4 78 32 21 115
5 38 64 112 115 78
4 39 111 54 20
5 17 12 30 111 54
4 39 109 30 111
4 4 32 14 2
4 4 52 105 32
5 14 94 43 105 32
4 6 65 20 1
4 105 1 6 12
5 65 79 118 12 6
4 64 0 34 39
5 64 91 82 46 0
5 32 58 75 39 34
4 64 39 75 91
4 83 19 62 91
4 85 83 19 54
5 85 83 91 109 78
4 39 50 48 92
4 92 95 60 48
5 92 39 107 6 95
5 5 16 67 71 4
4 30 5 4 85
5 43 57 30 85 47
4 30 5 16 57
4 60 46 13 49
4 49 115 83 60
4 15 67 1 11
4 11 58 118 15
5 67 15 118 101 41
5 13 24 90 119 16
4 109 16 13 78
4 16 119 91 109
4 36 109 118 86
4 47 60 118 86
5 69 39 79 103 19
4 82 103 19 105
4 103 79 59 82
5 59 78 31 105 82
5 111 96 86 79 33
4 94 43 86 79
4 94 14 33 79
5 59 75 112 62 94
4 94 62 22 46
4 94 59 84 46
5 22 46 84 85 52
4 42 58 75 86
4 32 17 42 58
4 95 13 0 94
4 13 95 58 31
4 2 55 75 109
5 46 57 109 2 18
5 54 55 75 114 105
4 57 109 75 114
4 97 71 18 2
5 90 89 101 97 71
4 71 18 46 90
4 73 71 4 115
5 103 73 115 92 66
4 103 73 71 67
5 30 104 18 9 28
4 9 28 101 41
4 9 18 67 41
4 112 62 8 69
5 8 69 111 108 6
4 69 112 75 111
4 10 100 52 1
4 55 34 1 52
5 52 100 91 99 55
4 33 36 20 34
4 20 34 3 22
5 12 59 33 34 3
4 19 17 23 69
5 15 17 23 5 63
4 69 39 5 23
4 54 50 28 7
4 50 54 22 117
5 22 54 7 14 106
4 4 97 88 1
4 99 97 4 78
5 97 99 66 119 88
4 6 10 88 107
5 10 82 98 112 88
4 107 88 112 39
4 119 0 20 117
4 102 55 20 117
5 102 117 119 57 93
4 9 50 19 8
4 8 106 43 19
5 63 33 9 8 106
4 24 49 48 47
4 48 47 117 101
5 117 47 24 18 68
4 4 107 113 28
4 66 113 28 93
5 15 66 113 107 44
5 41 73 21 23 107
4 21 60 104 23
4 104 16 107 23
5 16 87 89 60 104
4 31 11 42 96
4 31 11 6 34
5 70 34 31 96 112
4 78 2 35 59
4 2 110 31 78
4 75 96 25 36
5 8 25 96 51 3
4 96 75 30 51
4 41 19 10 40
4 10 40 63 12
5 92 77 41 40 63
4 62 43 57 35
4 43 62 25 47
5 119 100 53 84 56
4 38 56 119 64
4 100 112 64 119
4 98 73 21 58
5 108 38 79 98 58
4 79 98 73 41
4 0 46 24 110
5 97 102 53 24 110
4 46 82 53 24
5 114 51 7 33 74
4 74 33 65 87
4 18 65 33 7
4 0 62 79 38
4 3 108 38 0
4 105 10 61 114
4 105 10 8 54
4 91 112 70 35
5 91 114 84 14 35
4 96 112 91 114
4 87 36 2 16
4 89 102 36 87
4 45 42 21 71
4 45 87 118 42
5 71 45 87 113 9
5 88 44 11 53 73
4 44 16 95 11
4 44 16 64 88
4 28 85 84 27
4 97 52 85 28
4 49 76 69 21
4 49 76 38 95
5 40 88 69 76 38
4 111 50 47 51
4 51 104 5 111
5 45 106 104 51 47
4 68 18 14 35
4 18 24 84 14
5 9 77 48 51 23
4 77 79 118 48
4 79 65 9 77
4 53 31 1 90
5 99 76 31 53 98
4 53 98 103 90
5 42 116 69 77 98
4 98 59 12 42
4 59 33 77 98
4 61 59 14 106
5 61 59 29 96 100
4 59 29 7 14
4 84 3 10 82
5 3 84 29 55 110
4 82 84 29 98
5 49 26 71 44 104
4 104 49 93 57
4 104 44 119 57
4 28 5 63 74
4 15 89 74 63
4 80 89 90 11
4 92 101 89 80
5 81 57 27 7 24
4 57 91 99 27
4 100 91 57 81
4 66 103 10 56
4 108 56 66 92
4 61 12 30 74
4 17 45 61 12
4 30 28 102 114
5 22 25 102 114 81
4 81 114 30 104
4 48 80 108 111
4 108 80 15 6
4 93 27 56 82
4 27 76 115 93
4 0 22 81 56
4 22 0 70 25
4 100 88 40 61
4 96 69 88 100
4 62 86 77 70
4 106 62 70 37
5 29 77 70 37 108
4 29 74 36 55
4 68 110 55 36
4 86 45 116 96
4 116 96 111 23
5 116 45 40 37 23
4 11 116 110 13
4 110 70 38 13
5 70 110 116 100 72
4 9 7 27 113
4 9 71 24 7
4 26 24 13 76
5 72 113 76 26 73
4 24 26 73 90
4 26 49 92 77
4 77 41 71 26
4 68 2 13 44
4 68 72 99 2
5 68 44 81 89 72
4 86 25 26 48
4 87 86 25 68
5 37 68 25 26 7
4 15 42 116 44
4 116 69 107 44
4 74 72 100 114
4 114 100 116 51
4 61 98 99 35
4 35 99 76 37
4 51 80 56 3
4 40 8 3 56
4 84 56 37 7
4 84 53 26 7
5 80 29 26 116 81
4 29 80 63 33
4 29 26 9 33
4 108 29 53 11
4 29 53 73 77
4 27 104 106 35
4 45 72 35 106
4 81 80 66 119
4 81 119 88 116
4 72 73 42 61
4 63 113 72 61
4 74 102 53 80
4 74 102 97 113
4 48 89 81 51
4 81 51 23 44
4 49 23 37 27
4 37 40 66 27
5 1 34 54 18 4
5 70 25 68 97 88
4 18 68 25 54
5 11 6 32 46 13
5 116 8 54 22 110
4 22 54 32 46
5 19 21 71 47 54
5 102 55 112 115 97
4 71 47 102 97
5 28 4 78 55 7
4 55 7 37 70
5 38 107 113 37 70
5 8 70 0 20 65
4 65 87 45 8
5 45 87 117 119 72
5 60 90 11 42 17
5 31 52 85 54 96
4 90 52 85 60
5 50 85 102 26 48
4 102 26 76 99
5 39 92 76 99 78
5 78 95 49 27 84
5 6 34 3 37 23
4 78 84 3 34
5 56 40 6 94 0
5 22 43 17 45 81
4 6 17 43 94
5 62 25 45 41 19
4 45 89 101 41
5 91 102 89 101 83
5 2 99 70 33 36
4 63 40 70 33
5 87 63 40 66 16
5 80 53 93 60 48
5 78 32 111 108 31
4 78 31 53 93
5 61 10 103 15 45
5 105 83 60 47 114
4 103 83 60 15
5 35 59 38 66 27
4 12 59 38 6
5 106 104 15 6 12
5 36 102 72 77 86
4 92 77 72 66
5 92 118 109 93 66
5 89 74 61 98 66
5 58 12 30 60 95
4 95 66 98 58
5 85 32 21 49 24
5 55 34 69 76 110
4 55 110 24 85
5 17 8 10 1 67
5 47 117 52 100 25
4 67 17 47 117
5 2 14 34 38 13
5 68 44 40 8 106
4 106 8 34 14
5 25 9 50 20 55
4 9 25 72 113
5 64 101 113 72 99
5 72 35 62 79 40
4 118 79 40 15
5 89 15 118 43 57
5 28 93 99 29 74
4 29 99 38 108
5 108 38 95 5 63
5 47 86 42 73 89
5 58 115 93 85 75
4 89 93 115 73
5 95 15 80 56 82
5 51 17 32 105 3
4 82 105 32 95
5 19 103 90 117 43
5 102 114 96 98 53
4 114 102 117 43
4 28 36 35 27
5 36 28 101 39 75
5 11 44 81 3 10
4 57 14 3 81
5 95 94 14 57 16
5 3 31 13 24 7
4 60 30 7 24
5 76 108 33 7 27
4 7 33 75 85
5 49 26 29 31 115
4 114 47 26 29
5 56 61 106 57 119
4 109 57 106 65
5 38 64 109 65 79
5 67 94 62 106 87
4 87 106 81 89
5 100 81 89 90 82
4 61 74 36 62
5 36 117 64 112 62
4 74 28 50 86
5 86 50 83 112 96
5 10 82 46 43 12
5 116 51 47 24 53
4 43 12 51 47
5 13 16 104 37 56
4 33 37 104 30
5 59 33 30 109 78
5 10 62 22 119 88
5 6 107 16 18 65
4 18 22 119 16
5 71 68 22 20 67
5 112 100 72 73 103
4 68 22 100 72
4 62 35 2 20
5 20 39 107 97 2
4 50 4 2 36
5 69 111 50 4 115
5 24 90 1 105 22
5 73 26 25 96 69
4 105 22 25 96
5 0 110 44 107 1
4 7 104 44 110
5 32 14 7 104 5
5 37 110 2 18 9
4 32 111 9 18
5 110 52 4 71 26
4 51 26 71 17
5 77 9 28 97 76
4 54 9 77 96
5 68 35 0 64 16
5 5 39 34 33 9
4 5 16 68 9
4 20 36 86 19
5 20 52 88 69 19
5 106 3 0 46 18
4 106 3 116 45
5 88 116 45 71 90
5 80 92 58 59 29
4 91 102 29 59
5 14 84 56 108 12
4 93 109 14 84
5 84 105 58 11 53
4 84 53 89 57
5 94 59 61 63 118
5 81 104 60 46 84
4 60 104 63 118
5 80 27 57 30 63
4 75 79 63 30
5 98 79 75 91 99
4 80 61 86 48
5 61 86 43 91 100
5 86 87 101 103 79
5 59 82 93 57 114
4 93 57 87 101
4 56 80 74 35
5 35 74 87 109 91
5 42 80 81 114 12
4 91 94 12 114
5 94 103 66 119 91
5 82 98 42 118 83
5 29 84 85 30 51
4 85 83 118 30
5 11 108 51 104 49
4 114 51 108 59
4 27 49 48 74
5 75 114 74 48 118
4 27 2 0 56
5 2 109 5 113 27
5 42 19 105 100 116
4 46 119 100 105
5 15 44 119 46 67
5 117 97 73 41 50
4 97 117 91 99
5 39 112 70 77 41
4 39 109 87 41
4 86 62 10 42
5 65 14 35 37 63
4 63 15 44 37
4 21 48 28 4
5 48 21 58 96 51
5 5 23 76 13 4
4 51 29 76 23
5 23 111 54 7 26
4 105 54 111 58
4 95 5 18 46
5 74 33 79 92 113
4 112 55 33 79
5 83 52 53 73 21
4 81 45 73 53
4 42 48 50 19
5 29 77 111 75 55
4 5 111 77 113
4 12 17 23 108
5 24 18 17 23 44
5 21 23 116 31 1
4 81 84 31 116
4 2 13 49 28
5 28 30 111 92 49
4 55 75 83 52
4 0 35 61 10
5 64 88 40 41 67
4 91 64 67 43
5 36 65 41 113 68
4 113 68 119 66
5 101 115 98 77 48
4 77 98 100 25
4 24 104 15 90
4 39 65 14 78
4 23 71 67 6
4 41 8 116 73
4 34 65 41 69
4 110 52 112 70
4 24 44 88 52
4 0 20 4 13
4 3 31 69 8
5 71 9 8 69 107
4 1 20 50 21
4 26 97 107 23
4 37 110 88 40
4 117 71 107 64
4 1 0 62 19
4 96 98 92 111
4 32 5 92 58
4 49 80 42 21
4 11 56 61 42
4 92 95 16 113
4 112 103 118 75
4 72 119 82 98
4 99 59 94 64
4 46 82 66 16
4 100 96 58 82
4 11 13 27 80
4 78 109 101 115
4 108 76 107 6
4 10 19 21 11
4 69 39 101 73
4 70 79 103 88
4 103 40 44 90
4 38 94 67 107
4 115 53 116 69
4 31 34 39 115
4 1 4 49 11
4 13 56 10 1
4 76 97 64 38
4 90 83 112 88
5 36 25 77 41 50
5 2 4 107 76 110
5 0 3 37 44 13
5 20 54 9 71 4
5 48 77 29 102 28
5 69 21 4 52 31
5 35 70 79 65 36
5 28 5 92 76 27
5 86 45 73 103 19
5 36 68 97 64 20
5 116 11 1 105 3
5 4 85 7 26 49
5 49 115 58 111 48
5 59 33 74 27 99
5 65 18 2 0 34
5 56 108 63 104 27
5 62 106 68 119 0
5 90 1 19 17 71
5 19 112 52 117 50
5 53 98 42 48 89
5 94 62 61 40 103
5 74 113 101 109 36
5 11 80 51 12 58
5 78 13 27 7 14
5 19 10 100 22 43
5 11 53 24 60 21
5 63 61 35 57 87
5 46 0 10 6 67
5 61 59 82 66 80
5 86 75 83 101 48
5 61 114 43 118 42
5 46 84 56 11 95
5 28 9 33 55 2
5 13 49 23 108 31
5 20 1 88 110 22
5 50 47 26 73 21
5 35 2 16 113 37
5 67 20 62 8 41
5 86 74 72 98 79
5 97 115 39 50 28
5 87 117 91 62 86
5 42 10 82 90 15
5 94 14 35 56 38
5 92 118 30 74 80
5 84 29 80 49 93
5 21 42 96 105 83
5 106 12 10 56 81
5 13 24 18 32 1
5 48 60 85 114 51
5 90 73 116 100 52
5 99 93 101 92 98
5 119 16 15 40 56
5 18 17 8 3 22
5 5 18 7 37 23
5 63 33 14 109 5
5 30 111 108 29 7
5 35 72 66 64 91
5 106 43 67 15 45
5 42 17 47 81 116
5 67 103 88 119 117
5 72 102 117 101 73
5 85 102 53 115 83
5 21 32 54 51 23
5 46 90 44 81 22
5 95 66 27 57 109
5 65 106 37 40 6
5 40 70 0 64 107
5 25 45 71 117 22
5 100 96 86 47 102
5 71 97 88 69 41
5 77 113 97 99 70
5 29 76 115 78 55
5 55 96 111 50 85
5 110 116 23 71 24
5 16 5 6 38 13
5 9 68 110 70 8
5 107 113 9 65 39
5 69 76 26 9 111
5 92 77 33 75 39
5 38 99 2 109 39
5 68 72 40 41 87
5 55 25 26 97 52
5 19 54 25 116 69
5 68 18 67 107 44
5 12 30 57 84 59
5 106 104 16 46 14
5 104 24 84 3 51
5 104 44 11 6 17
5 119 57 43 94 82
5 114 91 93 89 74
5 63 12 94 95 15
5 89 47 43 83 90
5 80 15 60 57 81
5 83 103 98 100 91
5 103 118 87 89 66
5 119 100 61 45 89
5 46 60 17 12 105
5 49 95 32 30 104
5 114 81 53 82 105
5 32 6 108 3 14
5 118 60 93 82 58
5 38 66 113 63 79
5 88 44 45 8 10
5 105 52 24 47 54
5 115 73 77 96 112
5 75 112 99 102 36
5 64 16 87 65 94
5 84 31 58 32 85
5 38 34 33 37 76
5 5 111 34 78 4
5 91 109 118 79 59
5 96 31 53 26 51
5 30 75 78 93 28
5 8 34 1 107 23
5 54 34 31 110 7
5 59 108 92 95 78
5 88 112 62 25 72
5 64 112 79 41 101
5 114 75 58 98 29
5 39 69 70 55 20

# Cells
7 0 1 2 3 4 5 6
7 7 8 9 10 11 12 13
7 14 15 16 17 18 19 20
7 21 22 23 24 25 26 27
7 28 29 30 31 32 33 34
7 35 36 37 38 39 40 41
7 42 43 44 45 46 47 48
7 49 50 51 52 53 54 55
7 56 57 58 59 60 61 62
7 63 64 65 66 67 68 69
7 70 71 72 73 74 75 76
7 77 78 79 80 81 82 83
7 84 85 86 87 88 89 90
7 91 92 93 94 95 96 97
7 98 99 100 101 102 103 104
7 105 106 107 108 109 110 111
7 112 113 114 115 116 117 118
7 119 120 121 122 123 124 125
7 126 127 128 129 130 131 132
7 133 134 135 136 137 138 139
7 140 141 142 143 144 145 146
7 147 148 149 150 151 152 153
7 154 155 156 157 158 159 160
7 161 162 163 164 165 166 167
7 141 168 169 170 171 172 173
7 108 174 175 176 177 178 179
7 180 181 182 183 184 185 186
7 187 188 189 190 191 192 193
7 194 195 196 197 198 199 200
7 201 202 203 204 205 206 207
7 208 209 210 211 212 213 214
7 92 215 216 217 218 219 220
7 156 221 222 223 224 225 226
7 80 227 228 229 230 231 232
7 107 233 234 235 236 237 238
7 239 240 241 242 243 244 245
7 246 247 248 249 250 251 252
7 59 253 254 255 256 257 258
7 101 259 260 261 262 263 264
7 151 265 266 267 268 269 270
7 88 271 272 273 274 275 276
7 277 278 279 280 281 282 283
7 284 285 286 287 288 289 290
7 291 292 293 294 295 296 297
7 298 299 300 301 302 303 304
7 305 306 307 308 309 310 311
7 46 312 313 314 315 316 317
7 163 318 319 320 321 322 323
7 324 325 326 327 328 329 330
7 331 332 333 334 335 336 337
7 338 339 340 341 342 343 344
7 148 345 346 347 348 349 350
7 339 351 352 353 354 355 356
7 36 357 358 359 360 361 362
7 71 363 364 365 366 367 368
7 85 369 370 371 372 373 374
7 375 376 377 378 379 380 381
7 100 382 383 384 385 386 387
7 388 389 390 391 392 393 394
7 164 395 396 397 398 399 400
7 144 290 401 402 403 404 405
7 350 406 407 408 409 410 411
7 31 412 413 414 415 416 417
7 325 418 419 420 421 422 423
7 15 424 425 426 427 428 429
7 50 430 431 432 433 434 435
7 53 436 437 438 439 440 441
7 442 443 444 445 446 447 448
7 157 281 449 450 451 452 453
7 442 454 455 456 457 458 459
7 398 460 461 462 463 464 465
7 377 466 467 468 469 470 471
7 114 472 473 474 475 476 477
7 331 478 479 480 481 482 483
7 79 249 484 485 486 487 488
7 387 489 490 491 492 493 494
7 95 303 495 496 497 498 499
7 67 447 500 501 502 503 504
7 64 459 505 506 507 508 509
7 434 510 511 512 513 514 515
7 128 516 517 518 519 520 521
7 439 511 522 523 524 525 526
7 388 527 528 529 530 531 532
7 372 533 534 535 536 537 538
7 263 489 539 540 541 542 543
7 268 406 544 545 546 547 548
7 177 549 550 551 552 553 554
7 123 480 555 556 557 558 559
7 236 549 560 561 562 563 564
7 74 296 565 566 567 568 569
7 39 308 570 571 572 573 574
7 25 468 575 576 577 578 579
7 274 533 580 581 582 583 584
7 10 420 585 586 587 588 589
7 321 461 590 591 592 593 594
7 134 530 595 596 597 598 599
7 187 416 600 601 602 603 604
7 43 183 605 606 607 608 609
7 9 328 610 611 612 613 614
7 120 337 615 616 617 618 619
7 22 378 620 621 622 623 624
7 202 520 625 626 627 628 629
7 210 475 630 631 632 633 634
7 307 361 635 636 637 638 639
7 241 429 640 641 642 643 644
7 291 368 645 646 647 648 649
7 58 199 650 651 652 653 654
7 137 393 655 656 657 658 659
7 115 211 660 661 662 663 664
7 1 342 665 666 667 668 669
7 194 256 670 671 672 673 674
7 230 248 675 676 677 678 679
7 182 316 680 681 682 683 684
7 225 278 685 686 687 688 689
7 172 284 690 691 692 693 694
7 18 242 695 696 697 698 699
7 129 205 700 701 702 703 704
7 30 193 705 706 707 708 709
7 4 353 710 711 712 713 714
7 219 299 715 716 717 718 719
7 0 720 721 722 723 724 725
7 7 726 727 728 729 730 731
7 14 732 733 734 735 736 737
7 21 738 739 740 741 742 743
7 28 744 745 746 747 748 749
7 35 750 751 752 753 754 755
7 42 756 757 758 759 760 761
7 49 762 763 764 765 766 767
7 56 768 769 770 771 772 773
7 63 774 775 776 777 778 779
7 70 780 781 782 783 784 785
7 77 786 787 788 789 790 791
7 84 792 793 794 795 796 797
7 91 798 799 800 801 802 803
7 98 804 805 806 807 808 809
7 105 810 811 812 813 814 815
7 112 816 817 818 819 820 821
7 119 822 823 824 825 826 827
7 126 828 829 830 831 832 833
7 133 834 835 836 837 838 839
7 140 840 841 842 843 844 845
7 147 846 847 848 849 850 851
7 154 852 853 854 855 856 857
7 161 858 859 860 861 862 863
7 173 741 864 865 866 867 868
7 179 825 869 870 871 872 873
7 186 874 875 876 877 878 879
7 192 880 881 882 883 884 885
7 200 886 887 888 889 890 891
7 207 892 893 894 895 896 897
7 212 893 898 899 900 901 902
7 220 759 903 904 905 906 907
7 226 728 908 909 910 911 912
7 232 770 913 914 915 916 917
7 237 834 918 919 920 921 922
7 245 923 924 925 926 927 928
7 252 929 930 931 932 933 934
7 258 849 885 935 936 937 938
7 264 753 939 940 941 942 943
7 270 795 878 944 945 946 947
7 275 783 948 949 950 951 952
7 283 917 953 954 955 956 957
7 288 906 958 959 960 961 962
7 297 963 964 965 966 967 968
7 304 969 970 971 972 973 974
7 311 975 976 977 978 979 980
7 317 859 926 981 982 983 984
7 322 806 891 985 986 987 988
7 330 929 989 990 991 992 993
7 336 951 994 995 996 997 998
7 343 977 999 1000 1001 1002 1003
7 348 732 1004 1005 1006 1007 1008
7 354 964 1009 1010 1011 1012 1013
7 362 829 1014 1015 1016 1017 1018
7 367 817 1019 1020 1021 1022 1023
7 374 723 1024 1025 1026 1027 1028
7 379 970 1029 1030 1031 1032 1033
7 385 720 1034 1035 1036 1037 1038
7 392 942 1039 1040 1041 1042 1043
7 399 746 1044 1045 1046 1047 1048
7 405 735 1049 1050 1051 1052 1053
7 411 1054 1055 1056 1057 1058 1059
7 417 765 1060 1061 1062 1063 1064
7 421 880 1065 1066 1067 1068 1069
7 428 762 1070 1071 1072 1073 1074
7 435 853 974 1075 1076 1077 1078
7 440 840 932 1079 1080 1081 1082
7 448 912 1083 1084 1085 1086 1087
7 452 745 1088 1089 1090 1091 1092
7 456 867 1093 1094 1095 1096 1097
7 465 1054 1098 1099 1100 1101 1102
7 471 925 1103 1104 1105 1106 1107
7 476 798 978 1108 1109 1110 1111
7 481 1073 1112 1113 1114 1115 1116
7 487 774 1100 1117 1118 1119 1120
7 494 873 1121 1122 1123 1124 1125
7 498 777 1058 1126 1127 1128 1129
7 503 830 1130 1131 1132 1133 1134
7 509 818 1135 1136 1137 1138 1139
7 513 886 1140 1141 1142 1143 1144
7 521 788 968 1145 1146 1147 1148
7 526 875 1149 1150 1151 1152 1153
7 529 1064 1114 1154 1155 1156 1157
7 536 922 1158 1159 1160 1161 1162
7 541 1022 1163 1164 1165 1166 1167
7 546 1040 1168 1169 1170 1171 1172
7 552 1007 1173 1174 1175 1176 1177
7 558 801 1002 1178 1179 1180 1181
7 564 1048 1182 1183 1184 1185 1186
7 568 854 1032 1187 1188 1189 1190
7 573 843 991 1191 1192 1193 1194
7 578 811 900 1195 1196 1197 1198
7 584 1017 1199 1200 1201 1202 1203
7 589 812 897 1204 1205 1206 1207
7 593 994 1208 1209 1210 1211 1212
7 599 787 1011 1213 1214 1215 1216
7 602 1138 1163 1217 1218 1219 1220
7 608 822 1221 1222 1223 1224 1225
7 613 780 1210 1226 1227 1228 1229
7 618 738 1230 1231 1232 1233 1234
7 624 750 1170 1235 1236 1237 1238
7 627 958 1239 1240 1241 1242 1243
7 633 954 1244 1245 1246 1247 1248
7 637 1091 1182 1249 1250 1251 1252
7 642 1133 1200 1253 1254 1255 1256
7 647 1052 1174 1257 1258 1259 1260
7 653 837 1261 1262 1263 1264 1265
7 659 727 1266 1267 1268 1269 1270
7 664 792 1151 1271 1272 1273 1274
7 668 846 1067 1275 1276 1277 1278
7 673 1093 1233 1279 1280 1281 1282
7 677 1121 1224 1283 1284 1285 1286
7 682 1084 1269 1287 1288 1289 1290
7 687 1037 1291 1292 1293 1294 1295
7 694 1027 1291 1296 1297 1298 1299
7 698 769 1246 1300 1301 1302 1303
7 703 805 1143 1304 1305 1306 1307
7 708 756 1243 1308 1309 1310 1311
7 714 860 1105 1312 1313 1314 1315
7 717 1158 1264 1316 1317 1318 1319
7 3 1126 1320 1321 1322 1323 1324
7 11 1049 1325 1326 1327 1328 1329
7 16 1304 1330 1331 1332 1333 1334
7 24 1044 1335 1336 1337 1338 1339
7 32 944 1340 1341 1342 1343 1344
7 38 1308 1345 1346 1347 1348 1349
7 44 1226 1350 1351 1352 1353 1354
7 51 1024 1355 1356 1357 1358 1359
7 60 939 1360 1361 1362 1363 1364
7 66 1195 1365 1366 1367 1368 1369
7 72 913 1370 1371 1372 1373 1374
7 78 1230 1375 1376 1377 1378 1379
7 86 1213 1380 1381 1382 1383 1384
7 94 908 1385 1386 1387 1388 1389
7 99 1108 1390 1391 1392 1393 1394
7 106 1070 1395 1396 1397 1398 1399
7 113 1261 1400 1401 1402 1403 1404
7 121 1187 1405 1406 1407 1408 1409
7 130 869 1410 1411 1412 1413 1414
7 135 1079 1415 1416 1417 1418 1419
7 143 981 1420 1421 1422 1423 1424
7 150 1014 1425 1426 1427 1428 1429
7 155 1275 1430 1431 1432 1433 1434
7 165 1135 1435 1436 1437 1438 1439
7 171 1184 1357 1440 1441 1442 1443
7 175 857 1444 1445 1446 1447 1448
7 185 1147 1449 1450 1451 1452 1453
7 189 1256 1367 1454 1455 1456 1457
7 196 1003 1407 1458 1459 1460 1461
7 203 1157 1342 1462 1463 1464 1465
7 214 1061 1466 1467 1468 1469 1470
7 218 1209 1402 1471 1472 1473 1474
7 223 737 1475 1476 1477 1478 1479
7 229 755 1450 1480 1481 1482 1483
7 238 931 1337 1484 1485 1486 1487
7 244 1021 1488 1489 1490 1491 1492
7 251 1314 1493 1494 1495 1496 1497
7 257 1201 1377 1492 1498 1499 1500
7 261 761 1457 1501 1502 1503 1504
7 267 791 1505 1506 1507 1508 1509
7 276 955 1427 1470 1510 1511 1512
7 282 1236 1513 1514 1515 1516 1517
7 286 997 1382 1478 1518 1519 1520
7 293 1096 1422 1446 1521 1522 1523
7 300 883 1361 1524 1525 1526 1527
7 310 1267 1442 1528 1529 1530 1531
7 313 821 1532 1533 1534 1535 1536
7 323 976 1351 1537 1538 1539 1540
7 326 1107 1322 1541 1542 1543 1544
7 332 1248 1332 1545 1546 1547 1548
7 340 1290 1416 1549 1550 1551 1552
7 349 1140 1321 1553 1554 1555 1556
7 356 865 1540 1557 1558 1559 1560
7 358 826 1513 1561 1562 1563 1564
7 366 1316 1326 1565 1566 1567 1568
7 371 779 1527 1569 1570 1571 1572
7 380 937 1506 1573 1574 1575 1576
7 386 1055 1412 1577 1578 1579 1580
7 394 904 1533 1581 1582 1583 1584
7 397 797 1494 1585 1586 1587 1588
7 403 809 1465 1589 1590 1591 1592
7 409 1205 1445 1593 1594 1595 1596
7 415 1297 1436 1516 1597 1598 1599
7 422 1132 1486 1600 1601 1602 1603
7 426 724 1604 1605 1606 1607 1608
7 433 1065 1331 1609 1610 1611 1612
7 437 863 1466 1613 1614 1615 1616
7 446 1006 1604 1617 1618 1619 1620
7 453 874 1372 1621 1622 1623 1624
7 454 1251 1432 1534 1625 1626 1627
7 460 895 1327 1628 1629 1630 1631
7 467 1167 1371 1632 1633 1634 1635
7 474 730 1488 1636 1637 1638 1639
7 482 1035 1473 1640 1641 1642 1643
7 488 898 1417 1644 1645 1646 1647
7 493 1077 1476 1648 1649 1650 1651
7 496 815 1634 1652 1653 1654 1655
7 504 1123 1387 1497 1656 1657 1658
7 506 839 1461 1659 1660 1661 1662
7 514 1179 1624 1653 1663 1664 1665
7 519 1280 1346 1619 1666 1667 1668
7 523 967 1411 1669 1670 1671 1672
7 527 1294 1391 1507 1673 1674 1675
7 534 992 1347 1608 1676 1677 1678
7 539 1161 1396 1481 1679 1680 1681
7 545 961 1386 1587 1682 1683 1684
7 550 889 1437 1563 1685 1686 1687
7 559 1085 1397 1452 1688 1689 1690
7 562 1273 1570 1691 1692 1693 1694
7 566 850 1551 1695 1696 1697 1698
7 574 923 1392 1575 1699 1700 1701
7 576 766 1557 1702 1703 1704 1705
7 582 1223 1567 1706 1707 1708 1709
7 588 1113 1431 1583 1710 1711 1712
7 592 1301 1579 1713 1714 1715 1716
7 597 742 1548 1717 1718 1719 1720
7 603 920 1612 1717 1721 1722 1723
7 609 1029 1341 1724 1725 1726 1727
7 611 772 1528 1728 1729 1730 1731
7 617 748 1630 1706 1732 1733 1734
7 623 1239 1406 1735 1736 1737 1738
7 628 949 1646 1695 1739 1740 1741
7 631 1172 1336 1742 1743 1744 1745
7 635 1152 1401 1746 1747 1748 1749
7 640 1286 1352 1704 1750 1751 1752
7 648 987 1501 1753 1754 1755 1756
7 651 845 1671 1713 1757 1758 1759
7 658 1257 1362 1693 1760 1761 1762
7 663 1009 1366 1754 1763 1764 1765
7 666 832 1640 1749 1766 1767 1768
7 672 1089 1555 1769 1770 1771 1772
7 675 972 1356 1730 1773 1774 1775
7 680 1176 1426 1614 1776 1777 1778
7 685 1101 1376 1638 1779 1780 1781
7 692 1118 1659 1737 1782 1783 1784
7 699 1039 1421 1594 1785 1786 1787
7 702 802 1600 1744 1788 1789 1790
7 706 784 1543 1770 1791 1792 1793
7 713 1218 1381 1649 1794 1795 1796
7 718 1193 1589 1727 1797 1798 1799
7 37 903 1320 1800 1801 1802 1803
7 81 864 1325 1804 1805 1806 1807
7 87 1145 1330 1808 1809 1810 1811
7 17 985 1335 1812 1813 1814 1815
7 8 1004 1340 1816 1817 1818 1819
7 109 1060 1345 1820 1821 1822 1823
7 65 1204 1350 1824 1825 1826 1827
7 45 948 1355 1828 1829 1830 1831
7 52 1034 1360 1832 1833 1834 1835
7 57 1235 1365 1836 1837 1838 1839
7 2 1117 1370 1840 1841 1842 1843
7 102 1178 1375 1844 1845 1846 1847
7 93 1266 1380 1848 1849 1850 1851
7 23 1088 1385 1852 1853 1854 1855
7 29 1271 1390 1856 1857 1858 1859
7 73 1300 1395 1860 1861 1862 1863
7 158 935 1400 1864 1865 1866 1867
7 162 1019 1405 1868 1869 1870 1871
7 116 918 1410 1872 1873 1874 1875
7 122 1075 1415 1876 1877 1878 1879
7 127 1221 1420 1880 1881 1882 1883
7 136 1191 1425 1884 1885 1886 1887
7 142 1312 1430 1888 1889 1890 1891
7 149 1130 1435 1892 1893 1894 1895
7 643 871 1443 1896 1897 1898 1899
7 591 956 1448 1805 1900 1901 1902
7 499 894 1453 1877 1903 1904 1905
7 657 736 1456 1906 1907 1908 1909
7 414 725 1460 1910 1911 1912 1913
7 364 838 1464 1914 1915 1916 1917
7 569 882 1469 1809 1918 1919 1920
7 457 1046 1474 1910 1921 1922 1923
7 247 928 1477 1829 1924 1925 1926
7 510 979 1482 1872 1927 1928 1929
7 334 914 1487 1930 1931 1932 1933
7 269 965 1490 1837 1934 1935 1936
7 704 999 1496 1825 1937 1938 1939
7 532 1025 1500 1940 1941 1942 1943
7 561 879 1504 1893 1917 1944 1945
7 715 933 1509 1833 1946 1947 1948
7 344 910 1512 1936 1949 1950 1951
7 441 1104 1517 1857 1898 1952 1953
7 501 827 1520 1954 1955 1956 1957
7 383 778 1523 1926 1958 1959 1960
7 170 749 1526 1961 1962 1963 1964
7 579 1154 1530 1888 1932 1965 1966
7 407 902 1535 1853 1909 1967 1968
7 191 1016 1539 1969 1970 1971 1972
7 518 743 1544 1970 1973 1974 1975
7 711 820 1547 1940 1976 1977 1978
7 622 760 1552 1948 1979 1980 1981
7 537 1081 1556 1961 1982 1983 1984
7 262 960 1560 1868 1985 1986 1987
7 208 1116 1562 1812 1988 1989 1990
7 688 1127 1568 1954 1991 1992 1993
7 306 1087 1571 1864 1994 1995 1996
7 404 888 1574 1801 1997 1998 1999
7 638 945 1580 1939 2000 2001 2002
7 178 971 1582 1817 2003 2004 2005
7 418 1202 1586 1800 2006 2007 2008
7 581 1124 1592 1820 2009 2010 2011
7 654 989 1596 1813 2012 2013 2014
7 684 1050 1599 2015 2016 2017 2018
7 598 1094 1602 1821 2019 2020 2021
7 181 1013 1607 1884 1957 2022 2023
7 287 1227 1611 1914 2024 2025 2026
7 625 1211 1615 1816 2027 2028 2029
7 231 1169 1618 1880 1942 2030 2031
7 329 983 1623 1920 2032 2033 2034
7 696 754 1627 2015 2035 2036 2037
7 254 833 1631 1931 2038 2039 2040
7 347 808 1635 1902 2041 2042 2043
7 375 1069 1639 1841 2036 2044 2045
7 315 1164 1643 1848 1971 2046 2047
7 197 1110 1647 2021 2048 2049 2050
7 400 1150 1651 1840 2018 2051 2052
7 670 1185 1655 1869 2053 2054 2055
7 634 940 1658 1905 2056 2057 2058
7 279 1043 1661 1845 1964 2059 2060
7 709 995 1664 1865 2061 2062 2063
7 542 1263 1668 1906 2064 2065 2066
7 217 785 1672 2011 2049 2067 2068
7 606 856 1675 1929 2069 2070 2071
7 557 731 1678 1897 2072 2073 2074
7 451 796 1681 1990 2075 2076 2077
7 234 844 1684 1996 2078 2079 2080
7 272 773 1687 2001 2081 2082 2083
7 470 1137 1690 2005 2084 2085 2086
7 614 1244 1694 1885 1992 2087 2088
7 690 1057 1698 1849 1974 2089 2090
7 206 1071 1701 1987 2091 2092 2093
7 645 1142 1703 1881 1977 2094 2095
7 477 1287 1709 1860 1922 2096 2097
7 295 1232 1712 1979 2098 2099 2100
7 669 1253 1715 1844 1983 2101 2102
7 491 1033 1719 1861 1913 2103 2104
7 224 1175 1723 1832 2099 2105 2106
7 463 1196 1726 2063 2079 2107 2108
7 351 1281 1731 1876 2109 2110 2111
7 240 1220 1733 1824 2082 2112 2113
7 553 1305 1738 1958 2114 2115 2116
7 508 1160 1740 1804 2117 2118 2119
7 431 851 1745 2055 2091 2120 2121
7 587 767 1748 1949 2122 2123 2124
7 662 790 1752 2029 2084 2125 2126
7 373 1099 1755 1873 2127 2128 2129
7 479 1298 1759 1808 2130 2131 2132
7 678 1189 1762 2014 2075 2133 2134
7 301 1277 1765 2041 2119 2135 2136
7 390 1241 1767 1856 2073 2137 2138
7 427 1292 1771 1892 2025 2139 2140
7 320 803 1775 2032 2132 2141 2142
7 485 814 1778 2008 2143 2144 2145
7 571 862 1781 2056 2111 2146 2147
7 360 1283 1784 1852 2066 2148 2149
7 525 1214 1787 1999 2143 2150 2151
7 600 1318 1790 1836 2123 2152 2153
7 444 1259 1793 1889 2039 2154 2155
7 547 1309 1796 2069 2129 2156 2157
7 619 1249 1798 1828 2116 2158 2159
7 590 1111 1636 1997 2160 2161 2162
7 560 1082 1613 2117 2163 2164 2165
7 671 1018 1561 1918 2166 2167 2168
7 305 984 1532 2012 2169 2170 2171
7 512 1278 1766 2003 2172 2173 2174
7 691 1047 1585 2019 2175 2176 2177
7 478 911 1475 1937 2178 2179 2180
7 277 947 1505 2158 2181 2182 2183
7 408 1307 1788 2105 2184 2185 2186
7 626 1234 1732 1934 2187 2188 2189
7 209 1216 1718 2051 2190 2191 2192
7 443 872 1444 2101 2193 2194 2195
7 646 1265 1757 2046 2196 2197 2198
7 180 1190 1696 2148 2199 2200 2201
7 352 1139 1660 1952 2202 2203 2204
7 389 1053 1590 2096 2205 2206 2207
7 580 916 1480 2061 2208 2209 2210
7 716 1229 1728 1985 2211 2212 2213
7 246 1198 1702 2127 2214 2215 2216
7 419 1074 1605 1903 2217 2218 2219
7 376 1311 1791 2030 2220 2221 2222
7 239 943 1502 2087 2223 2224 2225
7 601 1028 1569 1965 2226 2227 2228
7 490 1129 1652 2139 2229 2230 2231
7 160 1005 1554 2074 2232 2233 2234
7 620 744 1343 1806 2199 2235 2236
7 531 959 1518 2057 2237 2238 2239
7 701 1115 1642 1968 2206 2240 2241
7 497 1068 1603 2104 2227 2242 2243
7 438 1012 1559 1945 2197 2244 2245
7 644 1165 1679 2033 2246 2247 2248
7 90 1119 1645 1912 2249 2250 2251
7 363 768 1364 1831 2205 2252 2253
7 655 841 1424 1875 2223 2254 2255
7 41 1222 1725 2040 2256 2257 2258
7 458 1173 1685 1950 2259 2260 2261
7 683 963 1521 2000 2262 2263 2264
7 69 919 1485 1978 2265 2266 2267
7 516 824 1408 1894 2220 2268 2269
7 710 775 1368 1834 2190 2270 2271
7 20 1036 1578 2124 2272 2273 2274
7 543 969 1524 1896 2275 2276 2277
7 567 1282 1772 2023 2194 2278 2279
7 577 1219 1722 1925 2230 2280 2281
7 266 1242 1741 2060 2176 2282 2283
7 689 1168 1682 1930 2284 2285 2286
7 412 794 1384 1855 2202 2287 2288
7 124 1090 1622 1975 2289 2290 2291
7 396 901 1468 2090 2189 2292 2293
7 652 980 1531 2095 2204 2294 2295
7 612 927 1491 1947 2222 2296 2297
7 167 1272 1764 1963 2298 2299 2300
7 335 1293 1779 2092 2301 2302 2303
7 382 799 1389 1815 2193 2304 2305
7 111 1076 1610 1956 2306 2307 2308
7 345 828 1414 1867 2229 2309 2310
7 341 1095 1625 2150 2311 2312 2313
7 83 1237 1736 2083 2314 2315 2316
7 190 1159 1676 2085 2307 2317 2318
7 605 782 1373 1802 2181 2319 2320
7 430 721 1323 1822 2184 2321 2322
7 469 881 1454 2133 2323 2324 2325
7 104 905 1472 2037 2303 2326 2327
7 639 1288 1776 2048 2310 2328 2329
7 168 858 1439 1887 2226 2262 2330
7 61 1192 1700 1916 2325 2331 2332
7 695 807 1393 1818 2169 2333 2334
7 289 1098 1628 1941 2315 2335 2336
7 117 1268 1761 2142 2296 2337 2338
7 707 1203 1708 2045 2225 2289 2339
7 176 1144 1665 2155 2167 2340 2341
7 473 1042 1584 1901 2185 2342 2343
7 500 813 1399 1843 2178 2323 2344
7 538 1284 1773 1969 2322 2345 2346
7 12 1302 1786 2068 2294 2347 2348
7 294 887 1458 2016 2299 2349 2350
7 660 836 1418 1870 2214 2351 2352
7 48 1020 1566 2147 2342 2345 2353
7 215 726 1329 1847 2196 2284 2354
7 632 1155 1673 2107 2305 2355 2356
7 145 986 1538 1908 2313 2357 2358
7 228 1031 1576 2010 2212 2359 2360
7 667 1086 1620 1928 2201 2272 2361
7 402 1212 1716 2138 2180 2331 2362
7 596 1299 1783 1989 2182 2265 2363
7 314 1260 1756 1995 2164 2326 2364
7 260 1319 1799 2113 2209 2357 2365
7 139 866 1441 2126 2280 2328 2366
7 548 892 1462 1991 2288 2348 2367
7 585 734 1333 1850 2172 2335 2368
7 5 1131 1657 2121 2240 2369 2370
7 555 855 1434 1883 2217 2349 2371
7 554 1149 1669 1921 2269 2337 2372
7 33 950 1511 1981 2278 2355 2373
7 679 1103 1632 1982 2253 2370 2374
7 253 751 1349 1863 2187 2275 2375
7 198 1250 1746 2098 2233 2352 2376
7 54 1313 1795 2080 2277 2292 2377
7 449 847 1428 1878 2208 2311 2378
7 233 764 1359 1827 2175 2246 2379
7 96 1206 1711 1960 2239 2340 2380
7 327 1254 1750 2135 2266 2320 2381
7 359 877 1451 2054 2174 2314 2382
7 370 934 1495 2153 2219 2298 2383
7 616 957 1515 2028 2192 2256 2384
7 204 996 1545 2156 2251 2334 2385
7 484 739 1338 1810 2163 2301 2386
7 153 1146 1667 2077 2261 2359 2387
7 131 1180 1689 2043 2242 2263 2388
7 271 789 1379 1859 2166 2237 2389
7 464 1245 1742 2024 2236 2273 2390
7 222 1059 1595 2131 2161 2306 2391
7 425 1125 1650 2007 2215 2232 2392
7 507 1186 1692 2110 2171 2249 2393
7 302 990 1541 2064 2257 2271 2394
7 26 1062 1598 2145 2244 2285 2395
7 570 758 1353 1838 2160 2317 2396
7 318 819 1403 1891 2211 2259 2397
7 75 936 1499 2071 2248 2282 2398
7 524 1000 1549 2114 2255 2291 2399
7 312 781 1348 1862 2270 2400 2401
7 575 747 1378 1858 2368 2402 2403
7 227 740 1383 1854 2333 2404 2405
7 259 800 1334 1851 2235 2406 2407
7 424 804 1328 1846 2287 2408 2409
7 436 722 1398 1842 2396 2410 2411
7 174 763 1369 1835 2319 2412 2413
7 565 771 1354 1839 2321 2414 2415
7 665 776 1358 1826 2375 2416 2417
7 357 757 1363 1830 2344 2418 2419
7 505 810 1324 1823 2252 2420 2421
7 495 729 1394 1819 2386 2422 2423
7 610 733 1388 1814 2389 2424 2425
7 705 793 1339 1811 2354 2426 2427
7 369 786 1344 1807 2304 2428 2429
7 650 752 1374 1803 2379 2430 2431
7 265 831 1433 1882 2351 2432 2433
7 472 835 1438 1886 2371 2434 2435
7 595 842 1404 1890 2268 2436 2437
7 221 848 1409 1895 2254 2438 2439
7 615 852 1413 1866 2330 2440 2441
7 401 861 1419 1871 2309 2442 2443
7 395 816 1423 1874 2378 2444 2445
7 700 823 1429 1879 2397 2446 2447
7 384 973 1751 2136 2177 2448 2449
7 213 1041 1714 2137 2308 2426 2450
7 13 1072 1654 2140 2264 2451 2452
7 285 988 1760 2141 2339 2431 2453
7 535 1120 1597 2144 2295 2444 2454
7 195 1194 1565 2146 2241 2425 2455
7 62 1015 1697 2149 2356 2456 2457
7 235 1153 1626 2151 2213 2458 2459
7 381 1217 1493 2152 2234 2430 2460
7 355 1083 1663 2154 2316 2443 2461
7 450 1171 1546 2157 2165 2462 2463
7 132 1231 1508 2159 2247 2464 2465
7 125 909 1789 2106 2374 2466 2467
7 169 1102 1674 2108 2168 2468 2469
7 515 1010 1691 2109 2327 2440 2470
7 423 924 1797 2112 2387 2421 2471
7 502 1177 1550 2115 2210 2472 2473
7 6 1136 1616 2118 2286 2474 2475
7 551 1078 1656 2120 2362 2423 2476
7 298 1207 1577 2122 2279 2447 2477
7 462 1274 1440 2125 2243 2411 2478
7 34 1026 1705 2128 2329 2479 2480
7 629 1112 1593 2130 2353 2429 2481
7 273 1285 1455 2134 2162 2482 2483
7 333 1092 1666 2076 2297 2419 2484
7 455 921 1794 2078 2384 2428 2485
7 188 952 1735 2081 2361 2441 2486
7 486 1106 1677 2086 2186 2487 2488
7 97 1228 1503 2088 2312 2489 2490
7 391 1296 1467 2089 2258 2422 2491
7 346 896 1780 2093 2198 2492 2493
7 184 1258 1529 2094 2250 2446 2494
7 166 1109 1591 2097 2324 2495 2496
7 607 966 1747 2100 2231 2497 2498
7 55 1276 1447 2102 2238 2492 2499
7 243 1122 1601 2103 2300 2415 2500
7 250 1030 1707 2044 2358 2416 2501
7 40 982 1758 2047 2367 2502 2503
7 365 890 1777 2050 2228 2489 2504
7 146 1045 1720 2052 2381 2494 2505
7 649 1279 1449 2053 2274 2445 2467
7 319 1247 1519 2058 2173 2502 2506
7 483 953 1739 2059 2377 2407 2507
7 27 1310 1483 2062 2260 2497 2508
7 697 1166 1542 2065 2183 2486 2509
7 540 907 1785 2067 2393 2442 2483
7 636 1225 1498 2070 2293 2404 2510
7 201 1181 1553 2072 2281 2417 2511
7 604 1199 1573 2009 2338 2412 2503
7 76 1262 1536 2013 2302 2501 2512
7 572 1289 1459 2017 2216 2485 2513
7 118 1215 1588 2020 2276 2487 2514
7 309 876 1769 2022 2380 2436 2515
7 656 962 1743 2026 2195 2511 2512
7 410 1240 1514 2027 2267 2424 2480
7 89 915 1792 2031 2399 2491 2516
7 216 993 1680 2034 2188 2495 2517
7 324 1303 1471 2035 2245 2435 2518
7 292 938 1724 2038 2363 2427 2473
7 686 1008 1688 2042 2383 2413 2506
7 544 1148 1621 1973 2365 2414 2469
7 522 1315 1484 1976 2283 2403 2504
7 676 1238 1510 1980 2341 2432 2517
7 413 1162 1633 1984 2179 2477 2505
7 19 941 1729 1986 2372 2481 2513
7 594 899 1782 1988 2398 2409 2508
7 556 1295 1463 1993 2170 2453 2519
7 674 975 1753 1994 2395 2439 2514
7 138 1051 1637 1998 2346 2470 2509
7 255 1252 1522 2002 2218 2476 2516
7 68 870 1768 2004 2390 2460 2519
7 719 1066 1648 2006 2366 2418 2475
7 152 1306 1479 1938 2318 2448 2515
7 661 1156 1629 1943 2200 2474 2484
7 445 1183 1558 1944 2347 2433 2496
7 492 1317 1489 1946 2290 2410 2457
7 432 1001 1686 1951 2221 2451 2510
7 110 1080 1662 1953 2385 2468 2500
7 338 1134 1609 1955 2343 2408 2498
7 641 1038 1710 1959 2382 2438 2488
7 528 868 1763 1962 2392 2420 2463
7 82 1197 1572 1966 2350 2458 2507
7 280 1056 1641 1967 2332 2402 2490
7 621 884 1774 1972 2207 2464 2518
7 586 1255 1525 1899 2191 2454 2466
7 693 1208 1581 1900 2369 2405 2452
7 103 1128 1606 1904 2376 2450 2472
7 630 1270 1537 1907 2360 2400 2493
7 466 1063 1644 1911 2364 2437 2449
7 681 1023 1699 1915 2391 2406 2459
7 47 1188 1564 1919 2336 2462 2471
7 712 1097 1670 1923 2224 2455 2479
7 583 930 1721 1924 2388 2401 2499
7 563 1141 1617 1927 2373 2434 2465
7 517 998 1683 1933 2203 2456 2478
7 159 946 1734 1935 2394 2461 2482
