# Generated using Miratope v0.5.0 (https://github.com/galoomba1/miratope-rs)
4OFF

# Vertices, Faces, Edges, Cells
120 720 720 120

# Vertices
0.0834626338555 0 0.3535533905933 0.5 
0.0834626338555 -0 0.3535533905933 -0.5 
0.0834626338555 0.5 -0.3535533905933 0 
-0.4885987689621 0.3090169943749 -0.2185080122244 0 
-0.4885987689621 0 0.2185080122244 -0.3090169943749 
0.4370160244488 0.3090169943749 -0 -0.3090169943749 
-0.4885987689621 0 0.2185080122244 0.3090169943749 
0.4370160244488 0.3090169943749 -0 0.3090169943749 
0.4370160244488 -0 0.4370160244488 -0 
-0.1350453783689 -0.1909830056251 0.5720614028177 -0 
-0.1350453783689 0.3090169943749 -0.1350453783689 0.5 
-0.1350453783689 0.3090169943749 -0.1350453783689 -0.5 
0.0834626338555 -0.5 -0.3535533905933 0 
-0.4885987689621 -0.3090169943749 -0.2185080122244 0 
0.4370160244488 -0.3090169943749 -0 -0.3090169943749 
0.4370160244488 -0.3090169943749 -0 0.3090169943749 
-0.1350453783689 0.1909830056251 0.5720614028177 -0 
-0.1350453783689 -0.3090169943749 -0.1350453783689 0.5 
-0.1350453783689 -0.3090169943749 -0.1350453783689 -0.5 
0.4370160244488 -0 -0.4370160244488 0 
-0.1350453783689 0.5 0.1350453783689 0.3090169943749 
-0.1350453783689 -0.5 0.1350453783689 0.3090169943749 
-0.1350453783689 -0 -0.5720614028177 -0.1909830056251 
-0.1350453783689 0.5 0.1350453783689 -0.3090169943749 
-0.1350453783689 -0.5 0.1350453783689 -0.3090169943749 
-0.1350453783689 -0 -0.5720614028177 0.1909830056251 
0.2185080122244 -0.3090169943749 0.4885987689621 -0 
0.2185080122244 0.1909830056251 -0.2185080122244 0.5 
0.2185080122244 0.1909830056251 -0.2185080122244 -0.5 
0.2185080122244 0.3090169943749 0.4885987689621 -0 
0.2185080122244 -0.1909830056251 -0.2185080122244 0.5 
0.2185080122244 -0.1909830056251 -0.2185080122244 -0.5 
0.2185080122244 0.5 0.2185080122244 0.1909830056251 
0.2185080122244 -0.5 0.2185080122244 0.1909830056251 
0.2185080122244 -0 -0.4885987689621 -0.3090169943749 
-0.3535533905933 -0 -0.0834626338555 0.5 
-0.3535533905933 -0 -0.0834626338555 -0.5 
0.2185080122244 0.5 0.2185080122244 -0.1909830056251 
0.2185080122244 -0.5 0.2185080122244 -0.1909830056251 
0.2185080122244 -0 -0.4885987689621 0.3090169943749 
-0.3535533905933 -0.3090169943749 0.3535533905933 0.1909830056251 
-0.3535533905933 0.1909830056251 -0.3535533905933 -0.3090169943749 
-0.3535533905933 -0.3090169943749 0.3535533905933 -0.1909830056251 
-0.3535533905933 0.1909830056251 -0.3535533905933 0.3090169943749 
-0.3535533905933 0.3090169943749 0.3535533905933 0.1909830056251 
-0.3535533905933 -0.1909830056251 -0.3535533905933 -0.3090169943749 
-0.3535533905933 0.3090169943749 0.3535533905933 -0.1909830056251 
-0.3535533905933 -0.1909830056251 -0.3535533905933 0.3090169943749 
0.5720614028177 -0 0.1350453783689 0.1909830056251 
-0 -0.3090169943749 -0.4370160244488 -0.3090169943749 
-0.3535533905933 0.5 0.0834626338555 -0 
-0.3535533905933 -0.5 0.0834626338555 -0 
0.5720614028177 -0 0.1350453783689 -0.1909830056251 
-0 -0.3090169943749 -0.4370160244488 0.3090169943749 
-0 0.3090169943749 -0.4370160244488 -0.3090169943749 
0.5720614028177 0.1909830056251 -0.1350453783689 -0 
-0 -0.6180339887499 -0 -0 
-0 0.3090169943749 -0.4370160244488 0.3090169943749 
-0 -0 0 -0.6180339887499 
0.5720614028177 -0.1909830056251 -0.1350453783689 -0 
-0 0.6180339887499 -0 -0 
-0 -0.3090169943749 0.4370160244488 -0.3090169943749 
-0 -0 0 0.6180339887499 
-0 0.3090169943749 0.4370160244488 -0.3090169943749 
-0.5720614028177 0.1909830056251 0.1350453783689 -0 
0.3535533905933 0.5 -0.0834626338555 -0 
-0 -0.3090169943749 0.4370160244488 0.3090169943749 
-0 0.3090169943749 0.4370160244488 0.3090169943749 
0.3535533905933 0.1909830056251 0.3535533905933 -0.3090169943749 
-0.5720614028177 -0.1909830056251 0.1350453783689 -0 
0.3535533905933 -0.5 -0.0834626338555 -0 
0.3535533905933 0.1909830056251 0.3535533905933 0.3090169943749 
0.3535533905933 -0.1909830056251 0.3535533905933 -0.3090169943749 
-0.5720614028177 0 -0.1350453783689 0.1909830056251 
0.3535533905933 -0.3090169943749 -0.3535533905933 0.1909830056251 
0.3535533905933 -0.1909830056251 0.3535533905933 0.3090169943749 
0.3535533905933 0.3090169943749 -0.3535533905933 0.1909830056251 
-0.2185080122244 0 0.4885987689621 -0.3090169943749 
-0.5720614028177 0 -0.1350453783689 -0.1909830056251 
0.3535533905933 -0.3090169943749 -0.3535533905933 -0.1909830056251 
0.3535533905933 -0 0.0834626338555 0.5 
-0.2185080122244 0 0.4885987689621 0.3090169943749 
0.3535533905933 0.3090169943749 -0.3535533905933 -0.1909830056251 
-0.2185080122244 0.5 -0.2185080122244 0.1909830056251 
0.3535533905933 -0 0.0834626338555 -0.5 
-0.2185080122244 0.1909830056251 0.2185080122244 0.5 
-0.2185080122244 0.5 -0.2185080122244 -0.1909830056251 
-0.2185080122244 -0.5 -0.2185080122244 0.1909830056251 
-0.2185080122244 0.1909830056251 0.2185080122244 -0.5 
-0.2185080122244 -0.1909830056251 0.2185080122244 0.5 
-0.2185080122244 -0.5 -0.2185080122244 -0.1909830056251 
-0.2185080122244 -0.1909830056251 0.2185080122244 -0.5 
0.1350453783689 -0.3090169943749 0.1350453783689 0.5 
-0.2185080122244 -0.3090169943749 -0.4885987689621 0 
-0.2185080122244 0.3090169943749 -0.4885987689621 0 
0.1350453783689 -0.3090169943749 0.1350453783689 -0.5 
0.1350453783689 0.3090169943749 0.1350453783689 0.5 
0.1350453783689 0.1909830056251 -0.5720614028177 0 
0.1350453783689 0.3090169943749 0.1350453783689 -0.5 
0.1350453783689 0 0.5720614028177 0.1909830056251 
0.1350453783689 -0.1909830056251 -0.5720614028177 0 
0.1350453783689 0.5 -0.1350453783689 -0.3090169943749 
0.1350453783689 0 0.5720614028177 -0.1909830056251 
0.1350453783689 -0.5 -0.1350453783689 -0.3090169943749 
-0.4370160244488 -0 -0.4370160244488 0 
0.1350453783689 0.5 -0.1350453783689 0.3090169943749 
0.1350453783689 -0.5 -0.1350453783689 0.3090169943749 
-0.4370160244488 -0.3090169943749 -0 -0.3090169943749 
-0.4370160244488 -0.3090169943749 -0 0.3090169943749 
-0.4370160244488 0.3090169943749 -0 -0.3090169943749 
-0.4370160244488 0.3090169943749 -0 0.3090169943749 
0.4885987689621 -0 -0.2185080122244 -0.3090169943749 
-0.4370160244488 0 0.4370160244488 -0 
0.4885987689621 -0 -0.2185080122244 0.3090169943749 
0.4885987689621 -0.3090169943749 0.2185080122244 -0 
0.4885987689621 0.3090169943749 0.2185080122244 -0 
-0.0834626338555 0.5 0.3535533905933 -0 
-0.0834626338555 -0.5 0.3535533905933 -0 
-0.0834626338555 -0 -0.3535533905933 0.5 
-0.0834626338555 -0 -0.3535533905933 -0.5 

# Faces
5 1 0 4 8 6
5 0 1 7 9 5
5 0 3 7 6 2
5 0 5 10 8 2
5 0 4 10 9 3
5 2 1 3 5 4
5 2 1 7 11 8
5 6 1 3 9 11
5 2 6 11 10 4
5 3 5 10 11 7
5 8 4 5 9 11
5 6 7 9 10 8
5 0 1 15 16 14
5 12 0 13 15 6
5 12 8 17 14 0
5 4 0 13 16 17
5 1 13 14 4 12
5 1 12 8 18 15
5 6 18 16 13 1
5 12 4 17 18 6
5 13 15 18 17 14
5 4 8 18 16 14
5 15 6 8 17 16
5 0 19 20 15 2
5 19 0 12 7 21
5 3 21 20 13 0
5 12 2 13 19 3
5 2 12 7 22 15
5 6 22 20 13 2
5 6 12 3 21 22
5 13 19 21 22 15
5 7 22 20 19 3
5 6 7 21 20 15
5 1 19 23 14 2
5 12 5 24 19 1
5 3 24 23 13 1
5 2 14 25 5 12
5 2 4 25 23 13
5 4 12 3 24 25
5 14 25 24 19 13
5 19 3 5 25 23
5 5 24 23 14 4
5 23 0 1 20 26
5 2 0 23 27 16
5 0 14 27 26 19
5 2 1 20 28 16
5 15 1 19 26 28
5 2 15 28 27 14
5 19 23 27 28 20
5 16 14 23 26 28
5 16 15 20 26 27
5 1 21 29 24 0
5 0 24 30 9 12
5 5 0 19 29 30
5 21 1 12 9 31
5 1 7 31 29 19
5 5 12 7 31 30
5 19 24 30 31 21
5 5 9 31 29 24
5 7 21 29 30 9
5 2 17 32 25 0
5 25 0 12 10 33
5 5 33 32 14 0
5 2 12 10 34 17
5 8 34 32 14 2
5 12 8 34 33 5
5 14 17 34 33 25
5 5 25 32 34 10
5 8 10 33 32 17
5 13 26 35 24 0
5 23 0 3 29 35
5 13 26 36 21 1
5 1 20 36 29 3
5 13 20 36 35 23
5 3 21 36 35 24
5 23 26 36 29 24
5 26 20 21 29 35
5 2 18 37 22 1
5 22 1 12 11 38
5 7 1 15 37 38
5 12 2 18 39 11
5 2 15 37 39 8
5 8 39 38 7 12
5 15 22 38 39 18
5 11 39 37 22 7
5 18 8 11 38 37
5 25 0 13 27 40
5 0 4 32 40 23
5 13 27 41 17 2
5 2 4 32 41 16
5 16 13 23 40 41
5 17 41 40 25 4
5 25 32 41 27 23
5 17 16 27 40 32
5 13 1 22 42 28
5 6 37 42 20 1
5 2 13 28 43 18
5 16 2 6 37 43
5 16 13 20 42 43
5 18 6 22 42 43
5 28 20 22 37 43
5 16 28 42 37 18
5 0 25 44 30 3
5 4 33 44 24 0
5 3 12 10 45 30
5 12 9 45 33 4
5 3 9 45 44 24
5 4 25 44 45 10
5 24 25 33 45 30
5 9 30 44 33 10
5 1 3 31 46 22
5 1 21 46 38 6
5 3 31 47 11 12
5 9 12 6 38 47
5 3 21 46 47 9
5 22 6 11 47 46
5 21 22 38 47 31
5 9 31 46 38 11
5 19 0 25 48 35
5 0 14 40 48 24
5 19 13 27 49 35
5 14 13 26 49 40
5 24 19 26 49 48
5 25 14 27 49 48
5 25 40 49 35 24
5 27 40 48 35 26
5 2 4 34 50 18
5 6 2 17 50 39
5 12 4 34 51 11
5 10 12 6 39 51
5 4 17 50 51 10
5 6 18 50 51 11
5 18 39 51 34 17
5 11 39 50 34 10
5 1 19 36 52 22
5 15 1 21 52 42
5 13 19 36 53 28
5 13 26 53 42 15
5 19 21 52 53 26
5 22 15 28 53 52
5 36 21 22 42 53
5 26 28 42 52 36
5 23 0 5 44 48
5 3 19 35 54 30
5 5 3 29 54 44
5 19 23 48 54 29
5 25 48 54 30 5
5 23 25 44 54 35
5 30 44 48 35 29
5 2 14 41 55 18
5 17 2 15 43 55
5 13 28 56 41 14
5 13 15 43 56 27
5 14 17 55 56 27
5 15 18 55 56 28
5 17 18 43 56 41
5 28 43 55 41 27
5 7 1 20 52 46
5 19 36 57 31 3
5 3 29 57 46 7
5 19 29 57 52 20
5 7 31 57 52 22
5 36 20 22 46 57
5 29 31 46 52 36
5 14 40 58 33 4
5 4 32 58 44 5
5 23 14 32 58 48
5 5 33 58 48 24
5 23 24 44 58 40
5 32 33 44 48 40
5 5 45 59 11 12
5 12 10 59 47 7
5 5 45 60 31 3
5 3 7 47 60 30
5 5 30 60 59 10
5 7 11 59 60 31
5 11 47 60 45 10
5 30 31 47 59 45
5 8 50 55 16 2
5 14 41 61 34 4
5 4 32 61 50 8
5 16 55 61 32 14
5 34 8 18 55 61
5 18 16 41 61 50
5 32 34 50 55 41
5 38 6 15 42 62
5 7 6 37 62 46
5 20 15 37 62 52
5 21 7 38 62 52
5 42 20 21 46 62
5 38 46 52 42 37
5 12 8 51 59 9
5 4 34 63 45 5
5 4 33 63 51 8
5 33 5 9 59 63
5 34 8 11 59 63
5 45 9 11 51 63
5 45 33 34 51 59
5 13 28 64 49 23
5 20 53 64 27 13
5 19 23 49 65 36
5 19 20 53 65 35
5 27 23 35 65 64
5 20 36 65 64 28
5 27 49 65 53 28
5 36 35 49 64 53
5 15 6 39 66 43
5 6 8 50 66 37
5 15 16 55 66 37
5 39 8 17 55 66
5 16 17 50 66 43
5 43 37 39 50 55
5 39 6 7 47 67
5 38 6 8 51 67
5 9 7 38 67 59
5 39 8 10 59 67
5 47 9 10 51 67
5 39 38 47 59 51
5 13 16 56 64 26
5 23 49 68 41 14
5 40 14 16 56 68
5 23 40 68 64 26
5 28 16 41 68 64
5 28 56 68 49 26
5 41 56 64 49 40
5 24 3 31 69 54
5 3 21 57 69 30
5 19 36 70 54 24
5 19 35 70 57 21
5 30 69 70 35 24
5 21 31 69 70 36
5 30 31 57 70 54
5 35 36 57 69 54
5 15 43 71 53 20
5 15 16 56 71 42
5 20 42 71 64 26
5 27 16 43 71 64
5 27 26 53 71 56
5 42 53 64 56 43
5 3 29 69 60 9
5 5 24 54 72 45
5 5 44 72 60 9
5 29 69 72 44 24
5 31 69 72 45 9
5 31 29 54 72 60
5 44 45 60 69 54
5 4 34 73 58 25
5 17 4 33 73 61
5 14 41 74 58 25
5 14 40 74 61 17
5 33 73 74 40 25
5 34 73 74 41 17
5 34 61 74 58 33
5 41 40 58 73 61
5 47 7 21 57 75
5 9 60 75 46 7
5 29 69 75 46 21
5 30 9 47 75 69
5 30 60 75 57 29
5 46 47 60 69 57
5 4 10 63 73 32
5 25 58 76 45 5
5 5 10 63 76 44
5 25 44 76 73 32
5 10 34 73 76 45
5 34 63 76 58 32
5 44 45 63 73 58
5 26 19 29 70 65
5 23 24 54 77 49
5 48 23 26 65 77
5 48 24 29 70 77
5 26 36 70 77 49
5 36 29 54 77 65
5 48 49 65 70 54
5 22 62 78 39 6
5 6 18 66 78 38
5 22 15 43 79 62
5 42 15 18 66 79
5 38 78 79 42 22
5 18 43 79 78 39
5 39 66 79 62 38
5 62 42 43 66 78
5 17 61 80 51 8
5 50 8 10 63 80
5 32 73 80 50 17
5 10 33 73 80 51
5 32 61 80 63 33
5 61 50 51 63 73
5 21 20 53 81 57
5 26 65 81 52 20
5 29 70 81 52 21
5 26 35 70 81 53
5 57 29 35 65 81
5 57 52 53 65 70
5 37 6 11 67 78
5 22 62 82 47 7
5 7 11 67 82 46
5 37 22 46 82 78
5 11 47 82 78 39
5 39 67 82 62 37
5 62 46 47 67 78
5 14 32 74 68 27
5 25 58 83 49 23
5 48 23 27 68 83
5 25 48 83 74 32
5 49 27 41 74 83
5 41 68 83 58 32
5 58 48 49 68 74
5 8 18 66 84 51
5 11 67 84 50 8
5 18 50 84 78 37
5 11 51 84 78 38
5 37 66 84 67 38
5 50 66 78 67 51
5 16 56 85 61 17
5 27 68 85 55 16
5 32 74 85 55 17
5 40 27 56 85 74
5 32 61 85 68 40
5 56 55 61 74 68
5 28 71 79 37 15
5 22 62 86 53 20
5 20 28 71 86 52
5 37 79 86 52 22
5 43 79 86 53 28
5 43 37 62 86 71
5 53 71 79 62 52
5 33 5 30 72 76
5 24 25 58 87 54
5 24 48 87 72 30
5 25 33 76 87 48
5 30 54 87 76 45
5 33 58 87 72 45
5 48 58 76 72 54
5 18 16 56 88 66
5 28 71 88 55 16
5 37 18 55 88 79
5 56 28 42 79 88
5 42 37 66 88 71
5 56 71 79 66 55
5 10 63 89 60 9
5 30 9 59 89 72
5 10 33 76 89 59
5 44 30 60 89 76
5 33 63 89 72 44
5 60 59 63 76 72
5 31 7 38 82 75
5 57 21 22 62 90
5 21 52 90 75 31
5 22 38 82 90 52
5 31 57 90 82 47
5 47 75 90 62 38
5 57 52 62 82 75
5 40 23 35 77 83
5 35 77 87 44 24
5 25 40 83 87 44
5 35 54 87 83 49
5 58 40 49 77 87
5 54 77 83 58 44
5 60 9 11 67 91
5 31 9 59 91 75
5 59 11 38 82 91
5 46 82 91 60 31
5 46 75 91 67 38
5 60 59 67 82 75
5 27 68 92 65 26
5 35 77 92 64 26
5 40 27 64 92 83
5 48 83 92 65 35
5 68 40 48 77 92
5 64 65 77 83 68
5 34 80 84 39 8
5 61 17 18 66 93
5 17 34 80 93 55
5 18 39 84 93 55
5 34 61 93 84 51
5 39 51 80 93 66
5 55 61 80 84 66
5 36 81 86 42 20
5 36 21 46 90 81
5 42 22 46 90 86
5 53 36 57 90 86
5 53 42 62 90 81
5 57 81 86 62 46
5 11 67 94 63 10
5 34 80 94 59 10
5 39 11 59 94 84
5 50 84 94 63 34
5 67 39 50 80 94
5 63 80 84 67 59
5 28 26 65 95 71
5 36 26 64 95 81
5 42 86 95 64 28
5 52 36 65 95 86
5 52 42 71 95 81
5 65 81 86 71 64
5 70 29 30 72 96
5 29 35 77 96 69
5 69 30 44 87 96
5 35 70 96 87 48
5 48 77 96 72 44
5 70 69 72 87 77
5 16 43 88 85 41
5 17 50 93 85 41
5 43 18 50 93 88
5 61 41 56 88 93
5 56 85 93 66 43
5 61 50 66 88 85
5 27 68 97 71 28
5 27 64 97 85 41
5 28 43 88 97 64
5 68 41 55 88 97
5 71 43 55 85 97
5 68 85 88 71 64
5 29 31 75 98 70
5 36 81 98 69 29
5 31 69 98 90 46
5 36 70 98 90 52
5 52 46 75 98 81
5 69 70 81 90 75
5 33 76 99 74 32
5 32 40 83 99 73
5 33 44 87 99 73
5 48 87 99 74 40
5 44 48 83 99 76
5 74 83 87 76 73
5 45 9 47 91 89
5 51 10 45 89 94
5 47 91 94 51 11
5 45 60 91 94 63
5 60 89 94 67 47
5 63 89 91 67 51
5 72 30 31 75 100
5 30 69 100 89 45
5 47 91 100 69 31
5 45 59 91 100 72
5 47 59 89 100 75
5 69 75 91 89 72
5 34 80 101 74 32
5 41 85 101 73 32
5 34 50 93 101 73
5 41 74 101 93 55
5 50 80 101 85 55
5 73 80 93 85 74
5 37 79 102 82 38
5 37 78 102 86 42
5 38 78 102 90 46
5 42 52 90 102 79
5 52 46 82 102 86
5 79 86 90 82 78
5 49 26 53 95 92
5 27 56 97 92 49
5 28 56 97 95 53
5 49 65 95 97 68
5 53 71 97 92 65
5 68 92 95 71 56
5 76 33 34 80 103
5 45 89 103 73 33
5 51 94 103 73 34
5 76 45 59 94 103
5 59 89 103 80 51
5 73 80 94 89 76
5 35 36 81 104 77
5 49 35 70 104 92
5 36 53 95 104 70
5 64 49 77 104 95
5 53 64 92 104 81
5 77 92 95 81 70
5 39 84 105 79 37
5 78 37 43 88 105
5 50 93 105 78 39
5 55 43 79 105 93
5 55 50 84 105 88
5 84 78 79 88 93
5 29 54 96 98 57
5 54 96 100 60 30
5 31 60 100 98 57
5 72 54 70 98 100
5 70 96 100 75 57
5 60 75 98 96 72
5 39 38 82 106 84
5 38 47 91 106 78
5 39 78 106 94 51
5 47 59 94 106 82
5 51 59 91 106 84
5 82 78 84 94 91
5 41 40 83 107 85
5 40 49 92 107 74
5 41 56 97 107 74
5 49 83 107 97 64
5 56 85 107 92 64
5 83 92 97 85 74
5 54 35 65 104 96
5 57 98 104 65 36
5 54 77 104 98 69
5 57 69 96 104 81
5 65 81 98 96 77
5 61 32 58 99 101
5 33 58 99 103 63
5 61 101 103 63 34
5 58 74 101 103 76
5 74 61 80 103 99
5 80 63 76 99 101
5 43 88 108 86 42
5 42 53 95 108 79
5 43 56 97 108 79
5 53 86 108 97 64
5 56 88 108 95 64
5 88 79 86 95 97
5 44 87 109 89 45
5 76 44 54 96 109
5 60 45 76 109 100
5 54 69 100 109 87
5 69 96 109 89 60
5 87 96 100 89 76
5 68 40 58 99 107
5 41 68 107 101 61
5 73 101 107 83 58
5 61 85 107 99 73
5 68 85 101 99 83
5 37 66 105 102 62
5 67 38 62 102 106
5 66 39 67 106 105
5 82 62 79 105 106
5 79 66 84 106 102
5 67 84 105 102 82
5 47 46 90 110 91
5 46 82 110 98 57
5 60 100 110 82 47
5 69 100 110 90 57
5 60 69 98 110 91
5 90 82 91 100 98
5 44 72 109 99 58
5 45 72 109 103 63
5 73 58 87 109 103
5 73 63 89 109 99
5 87 99 103 89 72
5 49 48 87 111 92
5 54 96 111 83 48
5 49 65 104 111 83
5 54 87 111 104 70
5 65 92 111 96 70
5 83 87 96 104 92
5 62 42 71 108 102
5 66 105 108 71 43
5 62 78 105 108 86
5 78 66 88 108 102
5 86 102 105 88 71
5 50 93 112 94 51
5 61 101 112 84 50
5 51 84 112 103 63
5 73 61 93 112 103
5 94 63 73 101 112
5 94 84 93 101 103
5 53 52 90 113 95
5 52 57 98 113 86
5 53 86 113 104 65
5 90 57 70 104 113
5 70 98 113 95 65
5 90 86 95 104 98
5 62 46 75 110 102
5 67 47 75 110 106
5 62 90 110 106 78
5 67 91 110 102 78
5 90 75 91 106 102
5 58 48 77 111 99
5 68 107 111 77 49
5 58 74 107 111 87
5 68 92 111 99 74
5 87 99 107 92 77
5 66 50 80 112 105
5 51 80 112 106 67
5 66 78 106 112 93
5 94 67 78 105 112
5 80 94 106 105 93
5 56 97 114 93 55
5 61 101 114 88 55
5 56 88 114 107 68
5 61 74 107 114 93
5 74 68 97 114 101
5 93 101 107 97 88
5 52 62 102 113 81
5 71 108 113 81 53
5 90 62 79 108 113
5 95 71 79 102 113
5 90 81 95 108 102
5 54 72 109 111 77
5 83 58 76 109 111
5 72 96 111 99 76
5 96 77 83 99 109
5 55 85 114 105 66
5 71 56 85 114 108
5 79 108 114 93 66
5 79 71 97 114 105
5 85 93 105 108 97
5 60 100 115 94 59
5 63 59 91 115 103
5 72 109 115 91 60
5 94 63 76 109 115
5 76 72 100 115 103
5 94 91 100 109 103
5 81 57 75 110 113
5 82 110 113 86 62
5 98 75 82 102 113
5 86 81 98 110 102
5 67 59 89 115 106
5 60 75 110 115 89
5 67 94 115 110 82
5 75 82 106 115 100
5 89 100 110 106 94
5 64 65 104 116 97
5 68 107 116 95 64
5 95 65 77 111 116
5 68 97 116 111 83
5 77 83 107 116 104
5 95 104 111 107 97
5 80 112 114 85 61
5 88 66 84 112 114
5 84 105 114 101 80
5 85 88 105 112 101
5 80 112 115 89 63
5 91 67 84 112 115
5 84 80 103 115 106
5 89 91 106 112 103
5 64 71 108 116 92
5 81 113 116 92 65
5 71 97 116 113 86
5 81 86 108 116 104
5 92 97 108 113 104
5 70 104 117 100 69
5 72 109 117 98 69
5 70 98 117 111 77
5 87 72 100 117 111
5 87 109 117 104 77
5 100 109 111 104 98
5 68 92 116 114 85
5 88 71 95 116 114
5 107 85 88 108 116
5 107 92 95 108 114
5 69 96 117 110 75
5 70 81 113 117 96
5 90 75 100 117 113
5 90 81 104 117 110
5 100 110 113 104 96
5 103 73 74 107 118
5 76 73 101 118 109
5 74 83 111 118 101
5 87 111 118 103 76
5 87 109 118 107 83
5 107 101 103 109 111
5 72 96 117 115 89
5 91 75 98 117 115
5 91 110 117 109 89
5 109 96 98 110 115
5 73 99 118 112 80
5 74 85 114 118 99
5 80 93 114 118 103
5 85 93 112 118 107
5 99 103 112 114 107
5 79 78 106 119 108
5 105 78 82 110 119
5 86 79 105 119 113
5 106 82 90 113 119
5 108 86 90 110 119
5 106 105 108 113 110
5 89 115 118 99 76
5 101 80 94 115 118
5 109 89 94 112 118
5 109 99 101 112 115
5 92 77 96 117 116
5 81 98 117 116 95
5 95 113 117 111 92
5 96 98 113 116 111
5 78 102 119 112 84
5 102 79 88 114 119
5 93 84 106 119 114
5 88 93 112 119 108
5 108 102 106 112 114
5 82 102 119 115 91
5 94 115 119 105 84
5 94 112 119 110 91
5 102 105 112 115 110
5 99 83 92 116 118
5 97 116 118 101 85
5 97 114 118 111 92
5 99 111 116 114 101
5 95 116 119 102 86
5 88 105 119 116 97
5 95 113 119 114 97
5 105 102 113 116 114
5 99 87 96 117 118
5 89 103 118 117 100
5 96 100 115 118 111
5 99 111 117 115 103
5 102 90 98 117 119
5 91 106 119 117 100
5 98 100 115 119 113
5 106 115 117 113 102
5 104 117 118 107 92
5 104 96 109 118 116
5 107 116 117 109 99
5 105 93 101 118 119
5 94 106 119 118 103
5 101 103 115 119 114
5 106 105 114 118 115
5 95 104 117 119 108
5 98 104 116 119 110
5 108 102 110 117 116
5 97 108 119 118 107
5 101 107 116 119 112
5 108 105 112 118 116
5 100 110 119 118 109
5 103 112 119 117 109
5 112 106 110 117 118
5 111 104 113 119 118
5 107 111 117 119 114
5 113 117 118 114 108
5 111 109 115 119 116
5 113 110 115 118 116
5 114 112 115 117 116

# Cells
12 0 1 2 3 4 5 6 7 8 9 10 11
12 0 12 13 14 15 16 17 18 19 20 21 22
12 2 13 23 24 25 26 27 28 29 30 31 32
12 5 16 26 33 34 35 36 37 38 39 40 41
12 12 23 33 42 43 44 45 46 47 48 49 50
12 1 24 34 51 52 53 54 55 56 57 58 59
12 3 14 36 60 61 62 63 64 65 66 67 68
12 25 35 42 51 69 70 71 72 73 74 75 76
12 6 17 27 77 78 79 80 81 82 83 84 85
12 15 37 43 60 86 87 88 89 90 91 92 93
12 18 28 45 77 94 95 96 97 98 99 100 101
12 4 38 52 61 102 103 104 105 106 107 108 109
12 7 29 54 78 110 111 112 113 114 115 116 117
12 39 44 69 86 118 119 120 121 122 123 124 125
12 8 19 63 80 126 127 128 129 130 131 132 133
12 30 46 71 94 134 135 136 137 138 139 140 141
12 40 53 70 102 118 142 143 144 145 146 147 148
12 20 47 88 96 149 150 151 152 153 154 155 156
12 31 55 72 110 134 157 158 159 160 161 162 163
12 41 62 87 103 119 142 164 165 166 167 168 169
12 9 56 104 112 170 171 172 173 174 175 176 177
12 21 64 89 126 149 178 179 180 181 182 183 184
12 32 79 95 111 135 157 185 186 187 188 189 190
12 10 65 105 128 170 191 192 193 194 195 196 197
12 48 73 120 136 198 199 200 201 202 203 204 205
12 22 81 97 127 150 178 206 207 208 209 210 211
12 11 82 113 129 171 191 212 213 214 215 216 217
12 49 90 121 151 198 218 219 220 221 222 223 224
12 57 74 143 158 225 226 227 228 229 230 231 232
12 50 98 137 152 199 218 233 234 235 236 237 238
12 58 106 144 172 225 239 240 241 242 243 244 245
12 66 91 164 179 246 247 248 249 250 251 252 253
12 59 114 159 173 226 239 254 255 256 257 258 259
12 67 107 165 192 246 260 261 262 263 264 265 266
12 75 122 145 200 227 267 268 269 270 271 272 273
12 83 99 185 206 274 275 276 277 278 279 280 281
12 68 130 180 193 247 260 282 283 284 285 286 287
12 76 138 160 201 228 267 288 289 290 291 292 293
12 84 115 186 212 274 294 295 296 297 298 299 300
12 92 123 166 219 248 301 302 303 304 305 306 307
12 85 131 207 213 275 294 308 309 310 311 312 313
12 93 153 181 220 249 301 314 315 316 317 318 319
12 100 139 187 233 276 320 321 322 323 324 325 326
12 108 146 167 240 261 327 328 329 330 331 332 333
12 101 154 208 234 277 320 334 335 336 337 338 339
12 109 174 194 241 262 327 340 341 342 343 344 345
12 116 161 188 254 295 346 347 348 349 350 351 352
12 124 147 168 268 302 328 353 354 355 356 357 358
12 117 175 214 255 296 346 359 360 361 362 363 364
12 125 202 221 269 303 353 365 366 367 368 369 370
12 132 182 209 282 308 371 372 373 374 375 376 377
12 140 162 189 288 321 347 378 379 380 381 382 383
12 133 195 215 283 309 371 384 385 386 387 388 389
12 141 203 235 289 322 378 390 391 392 393 394 395
12 148 229 242 270 329 354 396 397 398 399 400 401
12 155 183 210 314 334 372 402 403 404 405 406 407
12 156 222 236 315 335 402 408 409 410 411 412 413
12 163 230 256 290 348 379 414 415 416 417 418 419
12 169 250 263 304 330 355 420 421 422 423 424 425
12 176 196 216 340 359 384 426 427 428 429 430 431
12 177 243 257 341 360 426 432 433 434 435 436 437
12 184 251 284 316 373 403 438 439 440 441 442 443
12 190 278 297 323 349 380 444 445 446 447 448 449
12 204 223 237 365 390 408 450 451 452 453 454 455
12 197 264 285 342 385 427 456 457 458 459 460 461
12 205 271 291 366 391 450 462 463 464 465 466 467
12 211 279 310 336 374 404 468 469 470 471 472 473
12 231 244 258 396 414 432 474 475 476 477 478 479
12 217 298 311 361 386 428 480 481 482 483 484 485
12 224 305 317 367 409 451 486 487 488 489 490 491
12 232 272 292 397 415 462 474 492 493 494 495 496
12 252 265 286 420 438 456 497 498 499 500 501 502
12 238 324 337 392 410 452 503 504 505 506 507 508
12 245 331 343 398 433 475 509 510 511 512 513 514
12 253 306 318 421 439 486 497 515 516 517 518 519
12 280 299 312 444 468 480 520 521 522 523 524 525
12 259 350 362 416 434 476 526 527 528 529 530 531
12 266 332 344 422 457 498 509 532 533 534 535 536
12 273 356 368 399 463 492 537 538 539 540 541 542
12 281 325 338 445 469 503 520 543 544 545 546 547
12 287 375 387 440 458 499 548 549 550 551 552 553
12 293 381 393 417 464 493 554 555 556 557 558 559
12 300 351 363 446 481 521 526 560 561 562 563 564
12 307 357 369 423 487 515 537 565 566 567 568 569
12 313 376 388 470 482 522 548 570 571 572 573 574
12 319 405 411 441 488 516 575 576 577 578 579 580
12 326 382 394 447 504 543 554 581 582 583 584 585
12 333 358 400 424 510 532 538 565 586 587 588 589
12 339 406 412 471 505 544 575 590 591 592 593 594
12 345 429 435 459 511 533 595 596 597 598 599 600
12 352 383 418 448 527 555 560 581 601 602 603 604
12 364 430 436 483 528 561 595 605 606 607 608 609
12 370 453 465 489 539 566 610 611 612 613 614 615
12 377 407 442 472 549 570 576 590 616 617 618 619
12 389 431 460 484 550 571 596 605 620 621 622 623
12 395 454 466 506 556 582 610 624 625 626 627 628
12 401 477 494 512 540 586 629 630 631 632 633 634
12 413 455 490 507 577 591 611 624 635 636 637 638
12 419 478 495 529 557 601 629 639 640 641 642 643
12 425 500 517 534 567 587 644 645 646 647 648 649
12 437 479 513 530 597 606 630 639 650 651 652 653
12 443 501 518 551 578 616 644 654 655 656 657 658
12 449 523 545 562 583 602 659 660 661 662 663 664
12 461 502 535 552 598 620 645 654 665 666 667 668
12 467 496 541 558 612 625 631 640 669 670 671 672
12 473 524 546 572 592 617 659 673 674 675 676 677
12 485 525 563 573 607 621 660 673 678 679 680 681
12 491 519 568 579 613 635 646 655 682 683 684 685
12 508 547 584 593 626 636 661 674 686 687 688 689
12 514 536 588 599 632 647 650 665 690 691 692 693
12 531 564 603 608 641 651 662 678 694 695 696 697
12 542 569 589 614 633 648 669 682 690 698 699 700
12 553 574 618 622 656 666 675 679 701 702 703 704
12 559 585 604 627 642 663 670 686 694 705 706 707
12 580 594 619 637 657 676 683 687 701 708 709 710
12 600 609 623 652 667 680 691 695 702 711 712 713
12 615 628 638 671 684 688 698 705 708 714 715 716
12 634 643 653 672 692 696 699 706 711 714 717 718
12 649 658 668 685 693 700 703 709 712 715 717 719
12 664 677 681 689 697 704 707 710 713 716 718 719
