# Generated using Miratope v0.5.0 (https://github.com/galoomba1/miratope-rs)
4OFF

# Vertices, Faces, Edges, Cells
216 1440 1440 216

# Vertices
0.809016994374945 0.809016994374945 0.809016994374945 0.809016994374945 
1.30901699437495 0.809016994374945 0.5 0 
0 0.809016994374945 0.5 1.30901699437495 
0.8090169943749475 1.3090169943749475 0.5000000000000024 0.0000000000000024424906541753444 
1.3090169943749475 -0.0000000000000024424906541753444 0.5000000000000024 0.8090169943749475 
-0.0000000000000024424906541753444 1.3090169943749475 0.5000000000000024 0.8090169943749475 
0.8090169943749475 -0.0000000000000024424906541753444 0.5000000000000024 1.3090169943749475 
0 1.61803398874989 0 0 
-0.5000000000000024 1.3090169943749475 -0.0000000000000024424906541753444 0.8090169943749475 
0.8090169943749475 1.3090169943749475 -0.0000000000000024424906541753444 -0.5000000000000024 
-0.5000000000000024 1.3090169943749475 -0.8090169943749475 0.0000000000000024424906541753444 
-0.0000000000000024424906541753444 1.3090169943749475 -0.8090169943749475 -0.5000000000000024 
0.809016994374945 0.809016994374945 -0.809016994374945 -0.809016994374945 
1.30901699437495 0.809016994374945 0 -0.5 
0 0.809016994374945 -1.30901699437495 -0.5 
1.3090169943749475 -0.0000000000000024424906541753444 -0.8090169943749475 -0.5000000000000024 
0.8090169943749475 -0.0000000000000024424906541753444 -1.3090169943749475 -0.5000000000000024 
1.61803398874989 0 0 0 
1.3090169943749475 -0.5000000000000024 0.0000000000000024424906541753444 0.8090169943749475 
1.3090169943749475 -0.5000000000000024 -0.8090169943749475 -0.0000000000000024424906541753444 
-0.809016994374945 0.8090169943749451 -0.809016994374945 0.809016994374945 
-0.5000000000000024 -0.0000000000000024424906541753444 -0.8090169943749475 1.3090169943749475 
-0.5 0.809016994374945 0 1.30901699437495 
-0.5 0.809016994374945 -1.30901699437495 0 
-0.5000000000000024 -0.0000000000000024424906541753444 -1.3090169943749475 0.8090169943749475 
0 0 0 1.61803398874989 
0.8090169943749475 -0.5000000000000024 0.0000000000000024424906541753444 1.3090169943749475 
-0.0000000000000024424906541753444 -0.5000000000000024 -0.8090169943749475 1.3090169943749475 
0 0 -1.61803398874989 0 
-0.0000000000000024424906541753444 -0.5000000000000024 -1.3090169943749475 0.8090169943749475 
0.8090169943749475 -0.5000000000000024 -1.3090169943749475 -0.0000000000000024424906541753444 
0.809016994374945 -0.809016994374945 -0.809016994374945 0.809016994374945 
-0.809016994374945 0.809016994374945 0.809016994374945 0.809016994374945 
-1.30901699437495 0.809016994374945 0.5 0 
-0.8090169943749475 1.3090169943749475 0.5000000000000024 0.0000000000000024424906541753444 
-0.8090169943749475 -0.0000000000000024424906541753444 0.5000000000000024 1.3090169943749475 
-1.3090169943749475 -0.0000000000000024424906541753444 0.5000000000000024 0.8090169943749475 
-0.8090169943749475 1.3090169943749475 -0.0000000000000024424906541753444 -0.5000000000000024 
0.5000000000000024 1.3090169943749475 -0.0000000000000024424906541753444 0.8090169943749475 
0.5000000000000024 1.3090169943749475 -0.8090169943749475 0.0000000000000024424906541753444 
-0.809016994374945 0.809016994374945 -0.809016994374945 -0.809016994374945 
-1.30901699437495 0.809016994374945 0 -0.5 
-1.3090169943749475 -0.0000000000000024424906541753444 -0.8090169943749475 -0.5000000000000024 
-0.8090169943749475 -0.0000000000000024424906541753444 -1.3090169943749475 -0.5000000000000024 
0.809016994374945 0.8090169943749451 -0.809016994374945 0.809016994374945 
0.5 0.809016994374945 0 1.30901699437495 
0.5 0.809016994374945 -1.30901699437495 0 
0.5000000000000024 -0.0000000000000024424906541753444 -0.8090169943749475 1.3090169943749475 
0.5000000000000024 -0.0000000000000024424906541753444 -1.3090169943749475 0.8090169943749475 
-0.8090169943749475 -0.5000000000000024 0.0000000000000024424906541753444 1.3090169943749475 
-1.61803398874989 0 0 0 
-1.3090169943749475 -0.5000000000000024 -0.8090169943749475 -0.0000000000000024424906541753444 
-1.3090169943749475 -0.5000000000000024 -0.0000000000000024424906541753444 0.8090169943749475 
-0.8090169943749475 -0.5000000000000024 -1.3090169943749475 -0.0000000000000024424906541753444 
-0.809016994374945 -0.809016994374945 -0.809016994374945 0.809016994374945 
-0.8090169943749475 1.3090169943749475 -0.0000000000000024424906541753444 0.5000000000000024 
-0.8090169943749475 -0.0000000000000024424906541753444 1.3090169943749475 0.5000000000000024 
-0.809016994374945 0.5 1.30901699437495 0 
-0.809016994374945 0.5 0 1.30901699437495 
-0.809016994374945 0.809016994374945 0.809016994374945 -0.809016994374945 
-0.8090169943749475 -0.0000000000000024424906541753444 1.3090169943749475 -0.5000000000000024 
-0.8090169943749475 -0.0000000000000024424906541753444 0.5000000000000024 -1.3090169943749475 
-0.809016994374945 0.5 0 -1.30901699437495 
-0.8090169943749475 1.3090169943749475 -0.5000000000000024 0.0000000000000024424906541753444 
-0.8090169943749475 -0.0000000000000024424906541753444 -0.5000000000000024 -1.3090169943749475 
-0.809016994374945 0.5 -1.30901699437495 0 
-0.8090169943749475 -0.0000000000000024424906541753444 -0.5000000000000024 1.3090169943749475 
-0.8090169943749475 -0.0000000000000024424906541753444 -1.3090169943749475 0.5000000000000024 
-0.809016994374945 -1.30901699437495 0 0.5 
-0.8090169943749475 -1.3090169943749475 -0.5000000000000024 -0.0000000000000024424906541753444 
-0.809016994374945 -0.809016994374945 0.809016994374945 0.809016994374945 
-0.809016994374945 -1.30901699437495 0.5 0 
-0.8090169943749475 -0.5000000000000024 1.3090169943749475 -0.0000000000000024424906541753444 
-0.809016994374945 -0.809016994374945 0.809016994374945 -0.809016994374945 
-0.8090169943749475 -1.3090169943749475 -0.0000000000000024424906541753444 -0.5000000000000024 
-0.8090169943749475 -0.5000000000000024 -0.0000000000000024424906541753444 -1.3090169943749475 
-0.8090169943749451 -0.809016994374945 -0.809016994374945 -0.809016994374945 
0 0 1.61803398874989 0 
0.5000000000000024 -0.0000000000000024424906541753444 1.3090169943749475 -0.8090169943749475 
0 0.5 1.30901699437495 -0.809016994374945 
0.0000000000000024424906541753444 -0.8090169943749475 1.3090169943749475 0.5000000000000024 
0.5000000000000024 -0.8090169943749475 1.3090169943749475 -0.0000000000000024424906541753444 
0 0.5 0.809016994374945 -1.30901699437495 
-1.30901699437495 0.5 0.809016994374945 0 
-1.30901699437495 0.5 0 -0.809016994374945 
0 0 0 -1.61803398874989 
0.5000000000000024 -0.0000000000000024424906541753444 0.8090169943749475 -1.3090169943749475 
-0.0000000000000024424906541753444 -0.8090169943749475 -0.5000000000000024 -1.3090169943749475 
0.5000000000000024 -0.8090169943749475 -0.0000000000000024424906541753444 -1.3090169943749475 
-1.3090169943749475 -0.0000000000000024424906541753444 0.8090169943749475 0.5000000000000024 
-1.3090169943749475 -0.0000000000000024424906541753444 -0.5000000000000024 -0.8090169943749475 
-1.3090169943749475 -0.8090169943749475 -0.5000000000000024 -0.0000000000000024424906541753444 
-1.3090169943749475 -0.8090169943749475 -0.0000000000000024424906541753444 0.5000000000000024 
0 -1.30901699437495 0.809016994374945 0.5 
0 -1.61803398874989 0 0 
0.5000000000000024 -1.3090169943749475 0.8090169943749475 -0.0000000000000024424906541753444 
0.5 -1.30901699437495 0 -0.809016994374945 
-0.0000000000000024424906541753444 -1.3090169943749475 -0.5000000000000024 -0.8090169943749475 
0.809016994374945 -0.809016994374945 0.809016994374945 -0.809016994374945 
0.8090169943749475 1.3090169943749475 -0.0000000000000024424906541753444 0.5000000000000024 
0.8090169943749475 -0.0000000000000024424906541753444 1.3090169943749475 0.5000000000000024 
0.809016994374945 0.5 0 1.30901699437495 
0.809016994374945 0.5 1.30901699437495 0 
0.809016994374945 0.809016994374945 0.809016994374945 -0.809016994374945 
0.8090169943749475 -0.0000000000000024424906541753444 1.3090169943749475 -0.5000000000000024 
0.8090169943749475 -0.0000000000000024424906541753444 0.5000000000000024 -1.3090169943749475 
0.809016994374945 0.5 0 -1.30901699437495 
0.8090169943749475 1.3090169943749475 -0.5000000000000024 0.0000000000000024424906541753444 
0.8090169943749475 -0.0000000000000024424906541753444 -0.5000000000000024 -1.3090169943749475 
0.809016994374945 0.5 -1.30901699437495 0 
0.8090169943749475 -0.0000000000000024424906541753444 -0.5000000000000024 1.3090169943749475 
0.8090169943749475 -0.0000000000000024424906541753444 -1.3090169943749475 0.5000000000000024 
0.809016994374945 -1.30901699437495 -0.5 0 
0.809016994374945 -1.30901699437495 0 0.5 
0.809016994374945 -0.809016994374945 -0.809016994374945 -0.809016994374945 
0.809016994374945 -1.30901699437495 0 -0.5 
0.8090169943749475 -0.5000000000000024 -0.0000000000000024424906541753444 -1.3090169943749475 
0.809016994374945 -0.809016994374945 0.809016994374945 0.809016994374945 
0.8090169943749475 -0.5000000000000024 1.3090169943749475 -0.0000000000000024424906541753444 
0.8090169943749475 -1.3090169943749475 0.5000000000000024 -0.0000000000000024424906541753444 
-0.5000000000000024 -0.0000000000000024424906541753444 1.3090169943749475 -0.8090169943749475 
-0.5000000000000024 -0.8090169943749475 1.3090169943749475 -0.0000000000000024424906541753444 
1.30901699437495 0.5 0.809016994374945 0 
1.30901699437495 0.5 0 -0.809016994374945 
-0.5000000000000024 -0.0000000000000024424906541753444 0.8090169943749475 -1.3090169943749475 
-0.5000000000000024 -0.8090169943749475 -0.0000000000000024424906541753444 -1.3090169943749475 
1.3090169943749475 -0.0000000000000024424906541753444 0.8090169943749475 0.5000000000000024 
1.3090169943749475 -0.0000000000000024424906541753444 -0.5000000000000024 -0.8090169943749475 
1.3090169943749475 -0.8090169943749475 0.0000000000000024424906541753444 0.5000000000000024 
1.3090169943749475 -0.8090169943749475 -0.5000000000000024 -0.0000000000000024424906541753444 
-0.5 -1.30901699437495 0.809016994374945 0 
-0.5000000000000024 -1.3090169943749475 -0.0000000000000024424906541753444 -0.8090169943749475 
0.5000000000000024 -0.0000000000000024424906541753444 1.3090169943749475 0.8090169943749475 
1.30901699437495 0.5 0 0.809016994374945 
0 0.5 1.30901699437495 0.809016994374945 
-0.5000000000000024 -0.0000000000000024424906541753444 1.3090169943749475 0.8090169943749475 
-1.30901699437495 0.5 0 0.809016994374945 
-0.0000000000000024424906541753444 1.3090169943749475 -0.5000000000000024 0.8090169943749475 
1.3090169943749475 -0.0000000000000024424906541753444 -0.5000000000000024 0.8090169943749475 
0 0.5 -1.30901699437495 0.809016994374945 
-1.3090169943749475 -0.0000000000000024424906541753444 -0.5000000000000024 0.8090169943749475 
0 -1.30901699437495 -0.5 0.809016994374945 
0.5 -1.30901699437495 0 0.809016994374945 
-0.5 -1.30901699437495 0 0.809016994374945 
0.0000000000000024424906541753444 -0.5000000000000024 1.3090169943749475 0.8090169943749475 
0 -1.30901699437495 0.5 0.809016994374945 
0 0.5 0.809016994374945 1.30901699437495 
0.0000000000000024424906541753444 -0.8090169943749475 1.3090169943749475 -0.5000000000000024 
1.3090169943749475 -0.0000000000000024424906541753444 0.8090169943749475 -0.5000000000000024 
1.3090169943749475 -0.8090169943749475 0.0000000000000024424906541753444 -0.5000000000000024 
-0.5000000000000024 -0.0000000000000024424906541753444 0.8090169943749475 1.3090169943749475 
-0.5000000000000024 -0.8090169943749475 0.0000000000000024424906541753444 1.3090169943749475 
-0.0000000000000024424906541753444 -0.8090169943749475 -0.5000000000000024 1.3090169943749475 
0 -1.30901699437495 0.809016994374945 -0.5 
0 0.809016994374945 0.5 -1.30901699437495 
-0.0000000000000024424906541753444 1.3090169943749475 0.5000000000000024 -0.8090169943749475 
-1.3090169943749475 -0.0000000000000024424906541753444 0.5000000000000024 -0.8090169943749475 
0.5000000000000024 1.3090169943749475 -0.0000000000000024424906541753444 -0.8090169943749475 
-0.0000000000000024424906541753444 1.3090169943749475 -0.8090169943749475 0.5000000000000024 
0.5000000000000024 -0.0000000000000024424906541753444 -0.8090169943749475 -1.3090169943749475 
0.5 0.809016994374945 0 -1.30901699437495 
0.5000000000000024 -0.0000000000000024424906541753444 -1.3090169943749475 -0.8090169943749475 
-0.0000000000000024424906541753444 -0.5000000000000024 -0.8090169943749475 -1.3090169943749475 
-1.30901699437495 0.809016994374945 0 0.5 
0 0.809016994374945 -1.30901699437495 0.5 
-1.3090169943749475 -0.0000000000000024424906541753444 -0.8090169943749475 0.5000000000000024 
-1.3090169943749475 -0.5000000000000024 -0.0000000000000024424906541753444 -0.8090169943749475 
-0.0000000000000024424906541753444 -0.5000000000000024 -1.3090169943749475 -0.8090169943749475 
-0.5000000000000024 1.3090169943749475 -0.0000000000000024424906541753444 -0.8090169943749475 
1.3090169943749475 -0.0000000000000024424906541753444 0.5000000000000024 -0.8090169943749475 
0 0.5 -1.30901699437495 -0.809016994374945 
-0.0000000000000024424906541753444 1.3090169943749475 -0.5000000000000024 -0.8090169943749475 
-0.5000000000000024 -0.0000000000000024424906541753444 -1.3090169943749475 -0.8090169943749475 
1.3090169943749475 -0.5000000000000024 0.0000000000000024424906541753444 -0.8090169943749475 
0.0000000000000024424906541753444 -0.5000000000000024 1.3090169943749475 -0.8090169943749475 
0 -1.30901699437495 0.5 -0.809016994374945 
0.5000000000000024 -0.0000000000000024424906541753444 0.8090169943749475 1.3090169943749475 
0.5000000000000024 -0.8090169943749475 0.0000000000000024424906541753444 1.3090169943749475 
-1.3090169943749475 -0.0000000000000024424906541753444 0.8090169943749475 -0.5000000000000024 
-1.3090169943749475 -0.8090169943749475 -0.0000000000000024424906541753444 -0.5000000000000024 
-0.5000000000000024 -0.0000000000000024424906541753444 -0.8090169943749475 -1.3090169943749475 
-0.5 0.809016994374945 0 -1.30901699437495 
1.3090169943749475 -0.0000000000000024424906541753444 -0.8090169943749475 0.5000000000000024 
1.30901699437495 0.809016994374945 0 0.5 
0 0.5 -0.809016994374945 -1.30901699437495 
1.30901699437495 0.5 -0.809016994374945 0 
-1.30901699437495 0.5 -0.809016994374945 0 
0 0.5 -0.809016994374945 1.30901699437495 
0.5 -1.30901699437495 -0.809016994374945 0 
0 -1.30901699437495 -0.809016994374945 0.5 
-0.0000000000000024424906541753444 -1.3090169943749475 -0.8090169943749475 -0.5000000000000024 
-0.5000000000000024 -1.3090169943749475 -0.8090169943749475 -0.0000000000000024424906541753444 
-0.0000000000000024424906541753444 -0.8090169943749475 0.5000000000000024 -1.3090169943749475 
1.3090169943749475 -0.8090169943749475 0.5000000000000024 -0.0000000000000024424906541753444 
-0.0000000000000024424906541753444 -0.8090169943749475 -1.3090169943749475 0.5000000000000024 
-0.5000000000000024 -0.8090169943749475 -1.3090169943749475 -0.0000000000000024424906541753444 
0.5000000000000024 1.3090169943749475 0.8090169943749475 0.0000000000000024424906541753444 
0.5 0.809016994374945 1.30901699437495 0 
0 0.809016994374945 1.30901699437495 -0.5 
-0.0000000000000024424906541753444 1.3090169943749475 0.8090169943749475 -0.5000000000000024 
-1.30901699437495 0.809016994374945 -0.5 0 
0 0.809016994374945 -0.5 1.30901699437495 
-0.0000000000000024424906541753444 -0.5000000000000024 0.8090169943749475 1.3090169943749475 
-1.3090169943749475 -0.5000000000000024 0.8090169943749475 -0.0000000000000024424906541753444 
-0.0000000000000024424906541753444 1.3090169943749475 0.8090169943749475 0.5000000000000024 
-0.5000000000000024 1.3090169943749475 0.8090169943749475 0.0000000000000024424906541753444 
1.3090169943749475 -0.5000000000000024 0.8090169943749475 -0.0000000000000024424906541753444 
-0.0000000000000024424906541753444 -0.5000000000000024 0.8090169943749475 -1.3090169943749475 
-1.3090169943749475 -0.8090169943749475 0.5000000000000024 -0.0000000000000024424906541753444 
0.5000000000000024 -0.8090169943749475 -1.3090169943749475 -0.0000000000000024424906541753444 
-0.5 0.809016994374945 1.30901699437495 0 
1.30901699437495 0.809016994374945 -0.5 0 
-0.0000000000000024424906541753444 -0.8090169943749475 0.5000000000000024 1.3090169943749475 
-0.0000000000000024424906541753444 -0.8090169943749475 -1.3090169943749475 -0.5000000000000024 
0 0.809016994374945 1.30901699437495 0.5 
0 0.809016994374945 -0.5 -1.30901699437495 

# Faces
5 1 9 7 5 0
5 1 17 18 6 0
5 0 2 8 7 3
5 2 0 4 26 25
5 0 4 17 13 3
5 25 6 0 5 22
5 20 8 7 11 23
5 9 7 10 14 12
5 10 20 22 5 7
5 12 11 7 3 13
5 9 1 17 15 12
5 12 13 17 19 16
5 14 12 15 30 28
5 12 16 28 23 11
5 17 4 26 31 19
5 17 15 30 31 18
5 20 21 25 2 8
5 28 24 20 10 14
5 20 23 28 29 21
5 20 22 25 27 24
5 25 27 31 18 6
5 29 21 25 26 31
5 16 19 31 29 28
5 28 30 31 27 24
5 7 37 33 32 5
5 33 50 52 35 32
5 32 2 38 7 34
5 2 32 36 49 25
5 34 41 50 36 32
5 32 35 25 45 5
5 37 40 14 39 7
5 7 11 46 44 38
5 44 39 7 5 45
5 7 34 41 40 11
5 33 37 40 42 50
5 40 43 51 50 41
5 14 40 42 53 28
5 46 11 40 43 28
5 44 38 2 25 47
5 44 48 28 14 39
5 44 48 27 25 45
5 29 47 44 46 28
5 25 27 54 52 35
5 25 49 54 29 47
5 50 36 49 54 51
5 50 42 53 54 52
5 28 53 54 27 48
5 28 43 51 54 29
5 32 55 20 66 35
5 59 57 32 55 37
5 32 34 59 60 56
5 56 70 49 58 32
5 20 58 32 34 63
5 35 70 72 57 32
5 37 40 64 61 59
5 60 59 62 75 73
5 59 61 73 72 57
5 59 34 63 40 62
5 40 65 20 55 37
5 43 67 20 63 40
5 76 64 40 65 53
5 40 62 75 76 43
5 54 66 20 65 53
5 49 58 20 67 54
5 54 66 35 70 68
5 54 69 76 43 67
5 49 70 71 69 54
5 54 68 74 76 53
5 70 71 73 60 56
5 73 72 70 68 74
5 76 74 73 61 64
5 73 71 69 76 75
5 78 82 59 57 77
5 77 78 98 95 80
5 77 79 59 83 56
5 70 93 81 77 56
5 79 86 98 81 77
5 89 57 77 80 70
5 85 82 59 84 64
5 59 62 90 50 83
5 85 62 59 79 86
5 57 89 50 84 59
5 82 78 98 88 85
5 85 86 98 96 87
5 85 64 76 97 88
5 85 62 90 76 87
5 50 92 70 56 83
5 64 84 50 91 76
5 89 70 68 91 50
5 69 92 50 90 76
5 70 68 94 95 80
5 92 69 94 93 70
5 76 97 94 68 91
5 94 96 98 81 93
5 69 76 87 96 94
5 95 98 88 97 94
5 0 102 103 9 99
5 0 99 44 110 6
5 0 3 103 104 100
5 0 100 117 26 101
5 3 107 44 101 0
5 0 102 118 117 6
5 103 104 98 116 106
5 12 108 105 103 9
5 103 102 118 98 105
5 107 3 103 106 12
5 9 99 44 109 12
5 12 16 111 44 107
5 114 108 12 109 30
5 16 12 106 116 114
5 26 101 44 111 31
5 31 110 44 109 30
5 31 113 117 6 110
5 31 111 16 114 112
5 26 31 112 119 117
5 114 30 31 113 115
5 98 115 114 108 105
5 114 116 98 119 112
5 98 119 117 100 104
5 98 118 117 113 115
5 103 102 77 120 82
5 77 120 73 130 80
5 79 103 122 100 77
5 117 100 77 121 93
5 77 121 73 124 79
5 126 102 77 80 117
5 82 85 108 123 103
5 103 106 127 17 122
5 85 106 103 79 124
5 123 103 102 126 17
5 73 125 85 82 120
5 87 131 73 124 85
5 108 114 97 125 85
5 85 87 114 127 106
5 17 122 100 117 128
5 123 108 114 129 17
5 113 129 17 126 117
5 112 128 17 127 114
5 114 87 131 94 112
5 114 97 94 113 129
5 128 112 94 93 117
5 94 113 117 80 130
5 130 94 97 125 73
5 73 121 93 94 131
5 32 5 0 132 135
5 0 132 117 18 133
5 44 138 4 0 38
5 38 8 32 134 0
5 117 4 0 134 144
5 0 5 137 44 133
5 32 8 20 140 36
5 135 32 136 52 70
5 5 137 20 136 32
5 36 32 134 144 70
5 20 139 44 38 8
5 44 137 20 24 48
5 44 139 29 31 138
5 18 133 44 48 31
5 52 136 20 24 54
5 29 139 20 140 54
5 31 142 117 4 138
5 48 24 54 141 31
5 31 18 117 145 141
5 29 31 142 143 54
5 54 143 70 36 140
5 70 52 54 141 145
5 132 135 70 145 117
5 117 142 143 70 144
5 102 77 135 146 0
5 133 110 25 146 0
5 17 138 101 0 122
5 104 122 0 134 77
5 101 0 134 150 25
5 17 133 0 102 148
5 77 104 98 153 121
5 70 135 77 147 130
5 148 102 77 147 98
5 77 134 150 70 121
5 98 149 17 122 104
5 115 129 17 148 98
5 31 138 17 149 112
5 17 133 110 31 129
5 70 151 25 146 135
5 25 152 31 138 101
5 70 150 25 152 143
5 110 31 141 151 25
5 112 94 143 152 31
5 31 129 115 94 141
5 70 130 94 141 151
5 94 143 70 121 153
5 149 112 94 153 98
5 98 147 130 94 115
5 50 166 61 59 33
5 59 33 55 7 155
5 34 59 154 157 7
5 154 85 75 156 59
5 61 59 155 160 85
5 59 156 50 163 34
5 20 55 7 39 164
5 7 157 12 46 158
5 39 7 155 160 12
5 7 34 163 20 158
5 157 154 85 159 12
5 164 39 12 161 28
5 28 46 12 159 167
5 85 160 12 161 162
5 166 61 85 162 76
5 85 75 76 167 159
5 50 165 20 55 33
5 46 158 20 67 28
5 20 163 50 51 67
5 164 28 53 165 20
5 76 51 50 156 75
5 165 53 76 166 50
5 53 28 161 162 76
5 76 167 28 67 51
5 120 59 84 166 73
5 59 155 103 78 120
5 103 79 59 168 157
5 168 59 156 90 40
5 156 59 79 174 73
5 59 155 171 40 84
5 98 78 103 123 173
5 157 103 169 127 12
5 169 103 79 174 98
5 12 123 103 155 171
5 168 157 12 170 40
5 114 167 170 12 127
5 114 161 12 123 173
5 12 161 172 40 171
5 90 40 170 167 76
5 166 84 40 172 76
5 98 169 127 114 96
5 76 97 114 161 172
5 97 175 98 173 114
5 167 114 96 131 76
5 98 175 73 120 78
5 76 131 73 156 90
5 131 96 98 174 73
5 97 175 73 166 76
5 136 66 25 146 32
5 32 146 132 77 57
5 32 134 77 60 83
5 50 83 32 58 140
5 50 136 32 57 178
5 58 25 176 134 32
5 147 95 117 132 77
5 77 60 73 153 81
5 176 134 77 81 117
5 77 57 178 73 147
5 25 177 117 132 146
5 142 152 25 176 117
5 54 66 25 177 141
5 54 152 25 58 140
5 60 83 50 179 73
5 50 91 54 66 136
5 50 178 73 74 91
5 50 140 54 69 179
5 94 141 54 91 74
5 54 69 94 142 152
5 117 95 94 141 177
5 153 81 117 142 94
5 69 179 73 153 94
5 94 74 73 147 95
5 1 103 105 173 17
5 7 155 103 1 99
5 103 3 7 168 154
5 154 103 169 116 85
5 105 103 155 181 85
5 3 183 17 169 103
5 7 99 44 164 10
5 7 168 40 23 158
5 10 40 181 155 7
5 7 158 44 183 3
5 154 168 40 180 85
5 40 172 28 164 10
5 28 167 180 40 23
5 40 181 85 162 172
5 173 105 85 162 114
5 180 167 114 116 85
5 17 182 44 99 1
5 44 111 28 23 158
5 28 164 44 182 30
5 19 111 44 183 17
5 17 169 116 114 19
5 114 30 182 17 173
5 28 30 114 162 172
5 167 114 19 111 28
5 44 182 15 12 39
5 12 184 40 10 39
5 12 159 180 40 11
5 12 159 114 19 185
5 158 11 12 185 44
5 114 15 12 184 162
5 20 165 42 40 10
5 40 186 51 76 180
5 40 11 158 20 186
5 162 184 40 42 76
5 10 39 44 187 20
5 47 21 20 158 44
5 31 182 44 187 27
5 47 31 19 185 44
5 51 186 20 21 54
5 27 187 20 165 54
5 114 188 31 182 15
5 47 21 54 189 31
5 31 27 54 191 188
5 31 19 114 190 189
5 180 159 114 190 76
5 162 114 188 191 76
5 76 191 54 165 42
5 54 189 190 76 51
5 85 106 12 170 180
5 28 170 12 185 111
5 17 182 109 12 123
5 12 123 105 85 184
5 12 106 169 17 185
5 109 28 172 184 12
5 125 175 98 105 85
5 180 76 131 192 85
5 85 192 98 169 106
5 125 76 172 184 85
5 105 123 17 193 98
5 119 128 17 169 98
5 113 193 17 182 31
5 31 128 17 185 111
5 180 170 28 195 76
5 28 109 182 31 194
5 76 191 194 28 172
5 111 31 189 195 28
5 31 189 94 119 128
5 113 31 194 191 94
5 94 131 76 195 189
5 113 193 98 175 94
5 76 191 94 175 125
5 131 192 98 119 94
5 0 132 77 198 196
5 132 202 25 45 0
5 0 38 7 199 197
5 0 176 25 201 38
5 0 45 137 7 196
5 77 197 0 176 144
5 70 202 132 77 72
5 60 77 197 199 59
5 60 203 70 144 77
5 77 198 59 178 72
5 37 7 196 198 59
5 59 178 50 200 37
5 50 41 59 60 203
5 7 199 59 41 63
5 137 7 37 200 20
5 63 7 38 201 20
5 50 140 20 63 41
5 20 66 25 45 137
5 66 52 50 200 20
5 20 140 49 25 201
5 70 49 25 176 144
5 70 202 25 66 52
5 72 178 50 52 70
5 50 203 70 49 140
5 0 196 205 32 146
5 0 126 117 202 146
5 122 0 204 199 103
5 176 0 122 206 117
5 0 126 148 103 196
5 0 204 32 150 176
5 89 32 146 202 70
5 32 83 59 199 204
5 150 32 83 203 70
5 205 59 178 89 32
5 59 205 196 103 82
5 73 178 59 82 207
5 124 59 83 203 73
5 59 124 86 103 199
5 148 103 82 207 98
5 103 86 98 206 122
5 95 117 126 148 98
5 70 93 117 176 150
5 117 93 153 98 206
5 117 202 70 130 95
5 73 178 89 70 130
5 70 203 73 153 93
5 98 86 124 73 153
5 130 95 98 207 73
5 62 85 159 170 40
5 40 186 67 28 170
5 40 84 50 165 65
5 85 184 40 84 61
5 40 184 161 28 65
5 62 156 50 186 40
5 85 61 73 175 88
5 85 192 96 114 159
5 156 62 85 192 73
5 85 88 114 161 184
5 73 208 50 84 61
5 92 71 73 156 50
5 54 165 50 208 68
5 54 92 50 186 67
5 114 209 28 170 159
5 54 194 28 65 165
5 161 28 194 188 114
5 67 54 189 209 28
5 114 188 94 175 88
5 96 94 189 209 114
5 68 94 188 194 54
5 189 54 92 71 94
5 175 94 68 208 73
5 73 192 96 94 71
5 150 32 8 201 25
5 7 199 210 32 8
5 32 205 198 77 135
5 22 32 135 202 25
5 7 205 32 22 137
5 150 144 77 210 32
5 103 104 77 210 199
5 104 206 117 144 77
5 135 202 117 118 77
5 103 198 77 118 148
5 17 206 104 103 13
5 9 103 198 205 7
5 103 148 17 211 9
5 103 199 7 107 13
5 8 201 44 107 7
5 44 211 9 7 137
5 13 107 44 138 17
5 25 110 44 137 22
5 138 26 25 201 44
5 18 110 44 211 17
5 17 148 118 117 18
5 138 26 117 206 17
5 26 25 150 144 117
5 117 202 25 110 18
5 44 101 25 21 139
5 4 101 44 185 17
5 15 109 44 133 17
5 28 109 44 187 24
5 25 187 44 133 6
5 16 185 44 139 28
5 117 4 17 149 119
5 17 193 115 114 15
5 6 133 17 193 117
5 16 185 17 149 114
5 101 4 117 212 25
5 6 117 145 151 25
5 54 21 25 212 143
5 151 54 24 187 25
5 114 213 28 109 15
5 28 195 54 21 139
5 28 16 114 190 195
5 28 213 191 54 24
5 114 115 94 191 213
5 94 190 114 149 119
5 54 143 94 190 195
5 94 191 54 151 145
5 115 193 117 145 94
5 117 119 94 143 212
5 32 214 196 7 55
5 50 89 32 55 200
5 32 204 197 77 56
5 50 163 32 56 203
5 204 7 63 163 32
5 72 89 32 214 77
5 77 214 196 103 78
5 77 72 73 207 78
5 73 203 56 77 174
5 197 103 86 174 77
5 78 207 85 160 103
5 157 215 85 86 103
5 7 157 103 197 204
5 103 196 7 171 160
5 171 7 55 200 40
5 7 63 40 215 157
5 50 90 40 63 163
5 64 85 160 171 40
5 40 200 50 166 64
5 75 90 40 215 85
5 86 174 73 75 85
5 85 207 73 166 64
5 50 89 72 73 166
5 75 90 50 203 73
5 42 65 20 136 50
5 20 187 25 35 136
5 20 58 25 47 139
5 28 139 20 186 43
5 28 65 20 187 48
5 58 36 50 186 20
5 25 35 70 145 177
5 142 212 25 47 31
5 70 212 25 58 36
5 25 177 31 48 187
5 70 208 50 136 35
5 36 70 71 179 50
5 76 42 50 208 74
5 76 179 50 186 43
5 28 209 31 47 139
5 76 213 28 65 42
5 28 48 31 188 213
5 43 28 209 190 76
5 31 188 94 145 177
5 142 31 209 190 94
5 94 71 70 212 142
5 70 208 74 94 145
5 76 74 94 188 213
5 190 94 71 179 76
5 17 211 99 0 126
5 99 0 214 205 7
5 77 100 0 204 210
5 100 206 17 183 0
5 77 118 126 0 214
5 0 183 107 7 204
5 77 120 59 205 214
5 120 207 98 118 77
5 77 174 98 206 100
5 77 210 59 124 174
5 85 207 120 59 181
5 124 59 168 215 85
5 168 7 204 210 59
5 205 7 171 181 59
5 99 211 12 171 7
5 12 215 168 7 107
5 12 127 17 183 107
5 12 108 85 181 171
5 17 211 12 108 173
5 85 116 127 12 215
5 116 85 124 174 98
5 108 173 98 207 85
5 98 118 126 17 173
5 127 116 98 206 17
5 128 149 114 209 31
5 152 212 117 128 31
5 194 54 151 177 31
5 114 129 31 194 213
5 129 193 117 177 31
5 152 54 195 209 31
5 114 88 125 76 213
5 87 192 98 149 114
5 87 114 209 195 76
5 129 193 98 88 114
5 91 54 194 213 76
5 76 195 54 92 179
5 91 208 70 151 54
5 70 92 54 152 212
5 117 81 98 149 128
5 80 70 151 177 117
5 98 147 80 117 193
5 70 212 117 81 121
5 147 80 70 208 73
5 73 179 92 70 121
5 125 76 91 208 73
5 73 179 76 87 192
5 125 88 98 147 73
5 98 192 73 121 81
5 44 45 0 1 211
5 1 0 214 198 103
5 0 197 210 32 2
5 0 183 44 201 2
5 32 214 0 45 22
5 13 183 0 197 103
5 33 32 214 198 59
5 32 22 20 200 33
5 2 201 20 163 32
5 210 59 41 163 32
5 33 200 40 181 59
5 59 41 40 215 154
5 59 210 197 103 154
5 103 198 59 181 160
5 12 160 103 1 211
5 103 13 12 215 154
5 12 46 44 183 13
5 14 12 160 181 40
5 164 14 12 211 44
5 23 46 12 215 40
5 40 23 20 163 41
5 20 164 14 40 200
5 44 164 20 22 45
5 44 201 20 23 46
5 148 1 0 132 118
5 44 211 15 30 48
5 141 27 25 202 145
5 211 15 173 148 1
5 118 132 202 145 95
5 148 118 95 115 173
5 30 15 173 115 188
5 188 30 48 27 141
5 188 141 145 95 115
5 72 135 32 33 178
5 20 24 53 42 200
5 200 42 166 178 33
5 72 135 202 145 130
5 72 178 166 74 130
5 166 42 53 191 74
5 24 53 191 141 27
5 130 145 141 191 74
5 137 55 32 146 45
5 50 200 65 53 91
5 70 68 141 177 202
5 55 200 65 164 137
5 146 202 177 110 45
5 137 164 48 110 45
5 65 53 194 48 164
5 177 110 48 194 141
5 68 141 194 53 91
5 78 148 126 132 77
5 97 74 73 207 88
5 173 88 207 78 148
5 202 177 18 126 132
5 126 18 129 173 148
5 97 188 129 173 88
5 141 188 129 18 177
5 141 68 74 97 188
5 137 99 0 146 22
5 109 211 17 129 30
5 141 113 117 202 151
5 211 109 164 137 99
5 146 22 66 151 202
5 22 137 164 24 66
5 109 164 24 194 30
5 24 194 141 151 66
5 194 30 129 113 141
5 178 120 77 135 89
5 125 207 98 115 97
5 120 178 166 125 207
5 89 135 202 151 52
5 178 166 91 52 89
5 141 151 52 91 191
5 191 141 113 115 97
5 125 166 91 191 97
5 32 83 41 63 8
5 29 152 25 201 139
5 179 203 70 143 69
5 23 63 8 201 139
5 90 41 83 203 179
5 41 63 23 43 90
5 23 139 29 195 43
5 179 90 43 195 69
5 143 69 195 29 152
5 124 60 77 104 86
5 117 206 149 112 142
5 104 86 116 149 206
5 203 179 75 124 60
5 86 124 75 87 116
5 149 116 87 190 112
5 143 69 190 112 142
5 69 190 87 75 179
5 2 176 144 56 32
5 20 67 29 47 201
5 51 69 71 203 50
5 176 2 201 47 26
5 203 56 144 93 71
5 176 26 142 93 144
5 29 189 142 26 47
5 29 67 51 69 189
5 142 189 69 71 93
5 174 60 59 154 86
5 40 215 159 167 43
5 215 154 86 116 159
5 60 174 153 71 203
5 174 86 116 96 153
5 167 190 96 116 159
5 43 167 190 69 51
5 71 153 96 190 69
5 83 163 63 168 59
5 167 87 85 215 170
5 73 203 92 69 131
5 215 170 23 63 168
5 203 92 140 163 83
5 63 23 67 140 163
5 170 167 195 67 23
5 67 195 69 92 140
5 87 167 195 69 131
5 77 100 176 150 56
5 112 96 98 206 128
5 176 100 206 128 26
5 56 203 92 49 150
5 49 150 176 26 152
5 128 112 189 152 26
5 189 112 96 131 69
5 69 189 152 49 92
5 160 82 59 37 171
5 200 65 14 171 37
5 82 207 88 108 160
5 160 108 161 14 171
5 65 14 161 213 53
5 97 213 161 108 88
5 74 97 213 53 91
5 118 78 103 1 126
5 12 161 30 182 211
5 97 162 85 207 175
5 126 1 211 182 18
5 78 118 95 175 207
5 126 118 95 113 18
5 30 182 18 113 188
5 30 161 162 97 188
5 188 97 175 95 113
5 59 33 89 72 120
5 40 200 165 53 172
5 200 165 52 89 33
5 130 175 207 120 72
5 89 52 68 130 72
5 52 165 53 191 68
5 191 53 172 162 97
5 97 191 68 130 175
5 9 171 181 82 103
5 14 109 211 9 171
5 207 82 181 64 125
5 181 171 14 172 64
5 109 14 172 213 30
5 97 125 64 172 213
5 97 115 129 30 213
5 107 38 0 122 13
5 201 139 46 107 38
5 206 149 127 13 122
5 13 107 46 16 127
5 29 209 16 46 139
5 16 209 112 149 127
5 29 152 142 112 209
5 122 183 107 157 103
5 215 170 46 107 157
5 206 128 138 183 122
5 183 138 111 46 107
5 170 167 209 111 46
5 112 209 111 138 128
5 87 167 209 112 96
5 0 2 150 144 100
5 21 201 44 111 29
5 17 19 112 119 206
5 49 21 201 2 150
5 93 119 206 100 144
5 144 93 143 49 150
5 29 21 49 143 189
5 19 112 189 29 111
5 112 189 143 93 119
5 174 104 103 154 124
5 167 16 12 215 180
5 206 104 174 153 119
5 215 180 75 124 154
5 124 174 153 131 75
5 167 180 75 131 190
5 112 19 16 167 190
5 112 190 131 153 119
5 7 99 45 22 55
5 200 165 66 22 55
5 99 45 110 182 211
5 45 22 66 27 110
5 182 110 27 194 30
5 53 165 66 27 194
5 194 30 161 172 53
5 9 160 181 37 7
5 200 42 64 181 37
5 108 15 211 9 160
5 181 64 162 108 160
5 15 30 213 162 108
5 53 213 162 64 42
5 53 24 48 30 213
5 163 8 7 168 41
5 201 21 140 163 8
5 215 180 90 41 168
5 163 41 90 51 140
5 180 90 51 195 167
5 29 21 140 51 195
5 111 29 195 167 16
5 183 38 7 157 13
5 38 183 138 47 201
5 127 159 215 157 13
5 13 183 138 19 127
5 167 209 19 127 159
5 47 138 19 209 29
5 43 67 29 209 167
5 13 169 116 159 12
5 44 183 4 26 47
5 189 29 28 167 190
5 183 4 206 169 13
5 206 169 116 96 119
5 26 142 119 206 4
5 190 189 142 119 96
5 40 180 75 156 41
5 20 21 49 36 163
5 163 36 203 156 41
5 156 203 71 131 75
5 49 143 71 203 36
5 189 190 131 71 143
5 158 63 40 170 46
5 92 49 58 163 50
5 69 189 209 167 76
5 63 163 58 201 158
5 46 111 47 201 158
5 209 111 47 152 189
5 49 58 201 47 152
5 85 86 169 127 159
5 93 71 73 174 81
5 86 169 206 81 174
5 169 206 128 19 127
5 128 142 93 81 206
5 19 209 189 142 128
5 12 170 23 158 107
5 17 128 26 101 183
5 114 167 195 189 112
5 201 101 183 107 158
5 23 158 201 21 67
5 21 152 26 101 201
5 67 195 189 152 21
5 85 124 156 90 180
5 93 119 98 174 121
5 203 121 174 124 156
5 156 203 92 51 90
5 189 195 51 92 143
5 93 143 92 203 121
5 40 10 55 33 84
5 164 187 27 194 28
5 166 208 68 191 76
5 55 22 35 89 33
5 84 33 89 208 166
5 10 55 22 187 164
5 208 89 35 151 68
5 22 187 27 151 35
5 194 27 151 68 191
5 85 105 78 120 61
5 193 173 114 188 113
5 118 78 120 72 80
5 173 193 118 78 105
5 166 208 72 120 61
5 188 191 68 145 113
5 113 145 80 118 193
5 72 208 68 145 80
5 202 35 32 214 132
5 78 198 59 61 207
5 50 52 68 74 166
5 132 214 198 78 118
5 207 61 166 74 175
5 202 35 52 68 145
5 68 145 95 175 74
5 40 14 161 162 64
5 66 27 48 164 20
5 30 161 14 164 48
5 74 166 64 162 97
5 27 66 52 68 141
5 202 80 77 214 146
5 200 84 59 205 55
5 68 130 73 166 91
5 214 146 22 55 205
5 200 84 166 91 165
5 68 151 66 165 91
5 130 80 202 151 68
5 85 64 172 161 108
5 98 173 129 113 95
5 173 129 30 161 108
5 64 172 53 91 166
5 130 68 141 113 95
5 1 123 12 39 99
5 99 45 6 126 1
5 126 193 173 123 1
5 39 99 45 187 164
5 6 45 187 27 177
5 6 126 193 113 177
5 188 113 177 27 194
5 6 202 135 214 0
5 103 105 207 120 198
5 18 113 115 173 17
5 135 214 198 120 72
5 105 207 175 115 173
5 18 113 145 202 6
5 130 145 113 115 175
5 12 108 162 172 14
5 44 164 24 27 110
5 53 24 164 14 172
5 115 173 108 162 97
5 27 110 18 113 141
5 99 196 103 123 211
5 214 146 45 99 196
5 182 129 173 123 211
5 129 182 110 177 113
5 95 113 177 202 80
5 34 204 197 79 59
5 197 100 176 2 204
5 163 58 2 204 34
5 49 212 176 2 58
5 174 81 100 197 79
5 176 100 81 93 212
5 92 49 212 93 71
5 103 3 204 210 79
5 3 204 2 101 183
5 150 56 210 204 2
5 26 212 150 2 101
5 93 212 150 56 121
5 174 79 210 56 121
5 119 93 212 26 128
5 176 26 138 183 0
5 77 174 153 93 144
5 127 13 103 86 116
5 127 19 112 96 116
5 142 26 138 19 112
5 153 96 112 142 93
5 150 49 140 163 32
5 90 41 59 124 75
5 69 51 90 75 131
5 140 51 69 143 49
5 69 131 153 93 143
5 7 3 197 210 34
5 100 4 183 3 197
5 144 56 210 197 100
5 100 4 26 212 144
5 210 34 163 36 56
5 144 212 49 36 56
5 47 26 212 49 21
5 46 107 7 63 23
5 23 67 29 111 46
5 138 26 152 29 111
5 29 152 49 140 67
5 7 196 1 211 39
5 196 1 126 132 214
5 164 48 182 211 39
5 18 182 48 27 177
5 202 35 66 27 177
5 10 200 33 205 7
5 205 33 89 135 214
5 164 24 165 200 10
5 110 6 202 151 27
5 24 165 52 151 27
5 44 137 10 14 109
5 25 151 52 136 22
5 31 141 191 213 30
5 14 172 42 200 10
5 10 137 22 136 200
5 136 200 42 91 52
5 213 172 42 91 191
5 105 148 17 15 108
5 117 145 130 147 118
5 207 105 108 162 125
5 207 147 118 148 105
5 191 74 125 162 213
5 130 147 207 125 74
5 6 45 44 182 18
5 35 22 20 165 52
5 28 30 188 191 53
5 45 6 202 35 22
5 15 173 105 160 12
5 166 42 40 181 61
5 207 61 181 160 105
5 188 191 74 175 115
5 109 164 10 171 12
5 125 166 84 181 85
5 114 97 191 194 30
5 200 10 171 181 84
5 194 24 165 91 191
5 17 182 110 6 126
5 118 80 130 175 98
5 80 118 126 6 202
5 44 101 2 8 158
5 186 23 28 195 51
5 26 212 143 189 31
5 2 8 163 36 150
5 163 186 23 158 8
5 186 163 36 92 51
5 143 212 150 36 92
5 17 169 104 100 4
5 114 190 131 192 116
5 104 100 144 121 174
5 104 169 116 192 174
5 143 71 121 144 212
5 121 71 131 192 174
5 104 197 0 4 206
5 203 36 32 210 60
5 142 26 25 49 143
5 60 210 197 104 174
5 71 143 142 119 153
5 19 138 44 46 16
5 51 140 20 23 43
5 43 23 46 16 167
5 0 204 8 201 101
5 203 121 77 210 83
5 143 93 117 26 152
5 210 83 163 8 204
5 92 143 152 21 140
5 111 138 17 127 16
5 116 87 131 153 98
5 87 116 127 16 167
5 11 168 154 106 12
5 41 168 154 124 156
5 116 192 124 154 106
5 23 186 41 168 11
5 51 179 156 41 186
5 192 124 156 179 131
5 190 195 51 179 131
5 56 210 59 156 203
5 206 169 103 197 100
5 75 131 96 116 85
5 93 71 131 96 119
5 111 46 12 127 19
5 51 90 40 23 67
5 215 106 103 199 168
5 83 210 199 168 41
5 90 179 131 87 180
5 180 87 116 106 215
5 121 203 179 131 153
5 0 5 205 198 102
5 33 136 22 5 205
5 198 120 178 33 205
5 52 208 178 33 136
5 102 198 120 147 118
5 147 120 178 208 130
5 145 130 208 52 151
5 103 155 205 214 102
5 155 205 33 84 181
5 102 214 135 80 118
5 89 135 80 130 208
5 125 175 130 208 166
5 110 45 0 126 18
5 32 89 52 66 22
5 130 72 77 118 95
5 59 178 166 64 181
5 108 160 103 148 173
5 95 115 97 74 130
5 201 158 7 204 2
5 67 21 49 92 51
5 215 11 7 199 154
5 199 154 124 60 210
5 23 43 180 215 11
5 179 51 43 180 75
5 203 36 140 51 179
5 164 137 7 171 14
5 53 91 52 66 24
5 5 214 198 155 7
5 120 61 181 155 198
5 214 5 22 35 135
5 52 208 72 135 35
5 165 52 208 166 42
5 63 11 46 139 20
5 62 41 50 179 75
5 54 29 209 190 69
5 11 63 41 62 215
5 11 215 159 16 46
5 190 209 16 159 87
5 75 87 159 215 62
5 47 138 4 176 25
5 70 144 81 153 71
5 138 19 149 206 4
5 206 4 176 144 81
5 81 206 149 96 153
5 190 209 19 149 96
5 44 107 11 23 139
5 17 149 116 106 13
5 31 29 195 190 112
5 107 11 215 106 13
5 195 43 180 87 190
5 25 150 36 140 21
5 121 144 117 119 153
5 36 150 144 121 203
5 33 136 20 10 37
5 28 213 162 184 14
5 52 208 74 191 54
5 37 181 61 178 33
5 37 10 14 184 181
5 208 178 61 125 74
5 162 184 181 61 125
5 25 35 135 132 6
5 31 18 193 115 188
5 132 118 147 72 135
5 18 193 118 132 6
5 115 175 147 118 193
5 74 208 72 147 175
5 32 136 200 37 205
5 82 198 77 147 207
5 74 130 70 52 91
5 181 37 205 198 82
5 74 125 64 42 91
5 25 66 24 48 110
5 18 129 115 95 117
5 30 129 18 110 48
5 9 39 44 133 1
5 1 148 105 160 9
5 18 193 148 1 133
5 14 39 9 160 184
5 193 148 105 88 115
5 105 88 162 184 160
5 188 213 162 88 115
5 133 211 9 196 0
5 198 82 160 9 196
5 108 88 115 129 15
5 133 211 15 129 18
5 207 147 95 115 88
5 34 199 197 134 32
5 197 104 86 154 199
5 81 104 86 192 153
5 104 81 144 134 197
5 154 62 75 192 86
5 199 34 41 62 154
5 71 179 75 192 153
5 0 134 210 199 3
5 154 199 3 13 106
5 153 192 124 60 121
5 60 121 144 134 210
5 149 116 192 153 119
5 148 78 198 196 1
5 211 39 14 161 15
5 61 207 88 162 64
5 162 88 173 15 161
5 166 42 172 162 125
5 90 43 167 87 75
5 3 13 169 104 197
5 34 210 60 156 41
5 156 60 174 192 75
5 159 180 75 192 116
5 20 137 39 14 65
5 18 177 25 45 133
5 213 53 54 141 188
5 39 137 45 133 211
5 213 161 15 129 188
5 50 42 64 61 178
5 70 72 147 95 145
5 61 178 72 147 207
5 164 65 40 171 39
5 85 88 173 123 160
5 53 194 188 97 76
5 171 39 211 123 160
5 194 188 129 182 48
5 66 165 50 89 35
5 72 80 95 175 73
5 72 80 202 35 89
5 38 158 20 58 2
5 185 46 28 209 19
5 212 49 54 189 142
5 2 176 4 183 38
5 158 38 183 185 46
5 212 142 128 4 176
5 4 128 19 185 183
5 50 156 60 56 36
5 76 75 192 96 190
5 56 60 174 81 144
5 144 212 142 119 81
5 192 174 81 119 96
5 38 204 32 58 201
5 81 206 122 197 77
5 142 93 70 49 152
5 197 122 183 38 204
5 142 128 138 47 152
5 43 90 50 140 67
5 75 87 96 153 73
5 40 62 154 157 11
5 13 157 154 86 169
5 46 11 157 13 185
5 13 185 19 149 169
5 86 192 96 149 169
5 215 62 59 199 157
5 122 197 199 157 13
5 127 149 96 87 159
5 32 57 198 196 5
5 1 133 45 5 196
5 198 57 72 147 78
5 78 147 95 193 148
5 177 145 95 193 18
5 57 214 196 155 59
5 123 160 155 196 1
5 95 193 126 132 80
5 132 80 72 57 214
5 175 88 173 193 95
5 160 105 78 198 155
5 132 6 45 5 214
5 182 15 173 193 18
5 111 47 26 128 19
5 149 19 16 159 116
5 20 187 45 5 55
5 33 57 72 208 50
5 177 27 54 68 145
5 5 55 33 57 214
5 177 145 80 132 6
5 15 161 28 48 182
5 175 74 76 162 88
5 5 99 44 187 22
5 17 193 118 102 1
5 31 27 151 145 113
5 99 5 214 102 1
5 145 80 135 35 151
5 42 172 28 24 165
5 114 162 125 175 115
5 20 8 34 41 186
5 25 2 134 144 212
5 51 179 71 143 54
5 2 134 210 34 8
5 71 179 156 60 121
5 159 16 28 43 180
5 19 149 119 142 31
5 34 168 40 186 163
5 85 192 174 79 154
5 76 51 92 71 131
5 79 154 168 34 210
5 71 121 56 36 92
5 67 21 47 111 28
5 128 19 114 96 119
5 40 184 160 155 37
5 33 57 198 155 37
5 175 147 78 105 88
5 155 9 12 184 181
5 9 155 198 102 1
5 120 147 175 125 61
5 38 3 13 185 44
5 169 149 119 81 104
5 38 3 197 134 2
5 157 3 183 185 12
5 197 3 157 154 79
5 100 4 128 119 81
5 31 194 24 187 110
5 6 146 135 80 117
5 91 191 94 130 208
5 22 146 135 89 136
5 22 187 110 6 146
5 91 208 89 136 165
5 24 165 136 22 187
5 172 213 114 108 184
5 105 82 120 147 98
5 181 82 120 178 84
5 181 184 108 105 82
5 178 208 91 42 84
5 181 184 172 42 84
5 101 47 31 128 4
5 58 21 54 92 36
5 81 119 94 71 121
5 4 101 2 134 100
5 58 21 47 101 2
5 36 56 134 2 58
5 81 121 56 134 100
5 114 159 106 169 149
5 76 180 62 156 179
5 169 104 79 154 106
5 121 81 104 79 60
5 62 156 60 79 154
5 180 62 154 106 159
5 123 9 99 133 17
5 99 5 205 155 9
5 99 133 6 146 5
5 82 155 205 57 120
5 120 147 80 135 57
5 155 82 105 123 9
5 135 146 5 205 57
5 123 1 102 78 105
5 61 120 57 33 84
5 39 99 5 55 10
5 214 57 120 78 102
5 11 170 28 139 158
5 158 8 34 168 11
5 36 83 34 8 58
5 8 58 21 139 158
5 34 83 156 62 168
5 170 11 168 62 180
5 179 156 83 36 92
5 107 3 204 8 158
5 90 186 163 83 156
5 79 124 156 83 210
5 170 23 186 90 180
5 107 11 168 199 3
5 140 186 41 83 36
5 83 36 150 134 210
5 139 23 186 140 21
5 1 133 6 132 102
5 33 136 35 135 57
5 10 39 9 155 37
5 132 102 198 57 135
5 185 138 31 209 16
5 117 81 104 122 4
5 94 190 87 192 153
5 104 122 13 106 86
5 138 185 13 122 4
5 185 13 106 159 16
5 192 87 159 106 86
5 140 186 43 195 54
5 60 121 70 36 83
5 83 41 62 124 60
5 43 186 41 62 180
5 87 180 62 124 192
5 31 177 6 133 182
5 114 88 105 123 15
5 94 175 147 80 145
5 1 133 182 15 123
5 147 78 102 132 80
5 35 151 54 165 136
5 76 125 61 84 42
5 84 42 165 136 33
5 25 101 38 8 58
5 34 8 38 3 199
5 122 3 199 79 104
5 101 38 3 122 4
5 83 34 199 79 60
5 11 158 38 3 157
5 56 134 197 79 60
5 10 65 28 109 39
5 37 84 42 65 10
5 61 82 155 37 84
5 9 123 15 109 39
5 88 125 61 82 105
5 9 196 5 137 39
5 57 198 82 61 178
5 160 82 61 64 184
5 42 65 14 184 64
5 137 5 205 37 10
5 148 102 198 82 105
5 15 109 14 184 108
5 79 104 100 134 210
5 150 212 117 100 134
5 179 131 94 143 92
5 98 192 124 79 104
5 31 152 21 139 111
5 180 87 114 16 170
5 139 111 16 170 23
5 179 90 186 140 92
5 117 193 148 102 132
5 70 208 178 57 135
5 88 115 94 74 125
5 48 109 15 129 31
5 42 91 54 24 65
5 24 65 14 109 48
5 125 64 184 108 88
5 146 5 137 187 25
5 37 84 178 57 205
5 187 137 10 65 24
5 137 99 9 171 10
5 178 84 200 136 89
5 17 122 3 107 185
5 168 62 124 79 199
5 185 107 11 170 16
5 63 8 38 107 11
5 215 62 124 86 106
5 176 212 70 56 134
5 86 192 73 60 79
5 128 142 94 96 149
5 197 79 86 169 122
5 149 128 4 122 169
5 134 176 4 122 197
5 67 139 47 152 54
5 76 87 159 170 43
5 159 170 46 185 127
5 46 170 43 67 139
5 139 46 185 138 47
5 128 149 127 185 138
5 50 186 63 34 83
5 34 199 157 11 63
5 170 11 157 106 159
5 199 79 86 106 157
5 43 170 11 63 186
5 132 102 196 5 146
5 148 123 9 196 102
5 39 137 187 48 109
5 15 129 193 148 123
5 196 155 37 55 5
5 184 160 123 15 161
5 187 48 182 133 45
5 55 37 171 39 137
5 78 148 123 160 82
5 146 45 133 126 132
5 211 123 148 126 133
5 128 138 101 176 117
5 70 150 58 140 92
5 94 112 209 195 69
5 138 101 201 139 111
5 58 150 176 101 201
5 195 67 139 111 209
5 139 67 140 58 201
5 73 179 90 62 124
5 127 149 98 86 106
5 170 16 127 106 215
5 209 16 170 43 195
5 170 43 90 62 215
5 66 187 48 194 54
5 70 35 146 132 80
5 94 188 129 193 95
5 146 35 66 187 45
5 129 182 133 126 193
5 78 147 73 61 82
5 64 184 161 213 76
5 79 199 204 134 77
5 38 204 199 157 107
5 101 38 107 185 138
5 38 204 134 176 101
5 127 185 107 157 106
5 34 204 38 158 63
5 127 185 183 122 169
5 37 84 50 136 55
5 136 55 137 187 66
5 171 184 64 84 37
5 39 109 161 184 171
5 213 161 109 48 194
5 196 99 137 55 205
5 123 211 109 161 108
5 84 200 65 172 64
5 172 65 164 109 161
5 171 9 196 205 37
5 110 133 211 109 48
5 200 136 66 24 65
5 110 177 117 126 133
5 94 97 213 194 141
5 98 148 123 108 88
5 89 136 66 151 70
5 84 178 73 125 64
5 213 194 24 65 172
5 205 57 77 102 196
5 108 123 9 171 184
5 140 58 8 63 186
5 199 168 63 8 204
5 5 146 35 136 55
5 155 82 78 102 196
5 134 204 8 58 150
5 168 62 90 186 63
5 47 101 38 158 139
5 106 157 3 122 169
5 137 187 110 133 99
5 184 171 10 65 172
5 57 120 73 208 89
5 177 113 94 68 151
5 78 102 126 193 98
5 146 6 126 102 214
5 151 35 146 6 177
5 57 214 146 35 89
5 114 129 182 109 161
5 165 91 76 172 65
5 109 182 110 187 164
5 165 65 164 187 66
5 151 177 110 187 66
5 85 184 171 155 82
5 155 205 55 10 171
5 10 65 165 136 55
5 89 57 205 55 136
5 3 122 100 134 204
5 107 185 111 139 158
5 152 21 58 150 212
5 204 34 168 157 3
5 111 185 183 101 47
5 67 21 58 163 186
5 157 107 158 63 168
5 100 176 101 183 122
5 56 150 58 163 83
5 39 171 155 196 99
5 182 133 99 39 109
5 102 196 99 133 126
5 56 83 34 204 134
5 158 63 186 67 139
5 212 176 101 47 152
5 185 127 114 209 111
5 94 93 212 152 189
5 100 81 98 169 122
5 121 56 83 156 73
5 186 90 76 195 67
5 85 106 157 168 62

# Cells
24 0 1 2 3 4 5 6 7 8 9 10 11 12 13 14 15 16 17 18 19 20 21 22 23
24 24 25 26 27 28 29 30 31 32 33 34 35 36 37 38 39 40 41 42 43 44 45 46 47
24 48 49 50 51 52 53 54 55 56 57 58 59 60 61 62 63 64 65 66 67 68 69 70 71
24 72 73 74 75 76 77 78 79 80 81 82 83 84 85 86 87 88 89 90 91 92 93 94 95
24 96 97 98 99 100 101 102 103 104 105 106 107 108 109 110 111 112 113 114 115 116 117 118 119
24 120 121 122 123 124 125 126 127 128 129 130 131 132 133 134 135 136 137 138 139 140 141 142 143
24 144 145 146 147 148 149 150 151 152 153 154 155 156 157 158 159 160 161 162 163 164 165 166 167
24 168 169 170 171 172 173 174 175 176 177 178 179 180 181 182 183 184 185 186 187 188 189 190 191
24 192 193 194 195 196 197 198 199 200 201 202 203 204 205 206 207 208 209 210 211 212 213 214 215
24 216 217 218 219 220 221 222 223 224 225 226 227 228 229 230 231 232 233 234 235 236 237 238 239
24 240 241 242 243 244 245 246 247 248 249 250 251 252 253 254 255 256 257 258 259 260 261 262 263
24 264 265 266 267 268 269 270 271 272 273 274 275 276 277 278 279 280 281 282 283 284 285 286 287
24 288 289 290 291 292 293 294 295 296 297 298 299 300 301 302 303 304 305 306 307 308 309 310 311
24 312 313 314 315 316 317 318 319 320 321 322 323 324 325 326 327 328 329 330 331 332 333 334 335
24 336 337 338 339 340 341 342 343 344 345 346 347 348 349 350 351 352 353 354 355 356 357 358 359
24 360 361 362 363 364 365 366 367 368 369 370 371 372 373 374 375 376 377 378 379 380 381 382 383
24 384 385 386 387 388 389 390 391 392 393 394 395 396 397 398 399 400 401 402 403 404 405 406 407
24 408 409 410 411 412 413 414 415 416 417 418 419 420 421 422 423 424 425 426 427 428 429 430 431
24 432 433 434 435 436 437 438 439 440 441 442 443 444 445 446 447 448 449 450 451 452 453 454 455
24 456 457 458 459 460 461 462 463 464 465 466 467 468 469 470 471 472 473 474 475 476 477 478 479
24 480 481 482 483 484 485 486 487 488 489 490 491 492 493 494 495 496 497 498 499 500 501 502 503
24 504 505 506 507 508 509 510 511 512 513 514 515 516 517 518 519 520 521 522 523 524 525 526 527
24 528 529 530 531 532 533 534 535 536 537 538 539 540 541 542 543 544 545 546 547 548 549 550 551
24 552 553 554 555 556 557 558 559 560 561 562 563 564 565 566 567 568 569 570 571 572 573 574 575
12 40 337 552 576 577 578 579 580 581 582 583 584
12 19 411 559 578 585 586 587 588 589 590 591 592
12 88 366 457 593 594 595 596 597 598 599 600 601
12 69 342 463 595 602 603 604 605 606 607 608 609
12 136 361 504 610 611 612 613 614 615 616 617 618
12 119 416 511 612 619 620 621 622 623 624 625 626
12 184 368 408 627 628 629 630 631 632 633 634 635
12 167 344 415 629 636 637 638 639 640 641 642 643
12 210 459 560 644 645 646 647 648 649 650 651 652
12 35 348 563 646 653 654 655 656 657 658 659 660
12 131 372 515 661 662 663 664 665 666 667 668 669
12 238 464 512 663 670 671 672 673 674 675 676 677
12 256 347 371 594 603 678 679 680 681 682 683 684
12 205 466 566 685 686 687 688 689 690 691 692 693
12 277 514 562 687 694 695 696 697 698 699 700 701
12 179 374 420 611 620 702 703 704 705 706 707 708
12 251 339 363 628 637 709 710 711 712 713 714 715
12 83 375 467 662 671 716 717 718 719 720 721 722
12 283 507 555 723 724 725 726 727 728 729 730 731
12 11 418 567 725 732 733 734 735 736 737 738 739
12 229 470 518 686 695 740 741 742 743 744 745 746
12 155 350 423 577 586 747 748 749 750 751 752 753
12 107 422 519 724 733 754 755 756 757 758 759 760
12 59 351 471 645 654 761 762 763 764 765 766 767
12 41 204 568 650 658 768 769 770 771 772 773 774
12 18 276 572 729 737 770 775 776 777 778 779 780
12 89 230 472 677 720 781 782 783 784 785 786 787
12 71 207 476 652 765 783 788 789 790 791 792 793
12 137 227 520 667 675 794 795 796 797 798 799 800
12 117 279 524 731 758 796 801 802 803 804 805 806
12 231 275 328 807 808 809 810 811 812 813 814 815
12 206 278 309 809 816 817 818 819 820 821 822 823
12 25 192 558 580 689 824 825 826 827 828 829 830
12 354 474 573 583 609 692 826 831 832 833 834 835
12 121 216 510 614 741 836 837 838 839 840 841 842
12 383 477 525 601 618 746 838 843 844 845 846 847
12 203 228 400 808 817 848 849 850 851 852 853 854
12 1 264 553 588 697 855 856 857 858 859 860 861
12 427 522 570 591 625 700 857 862 863 864 865 866
12 73 222 462 597 742 836 844 867 868 869 870 871
12 197 220 395 782 789 872 873 874 875 876 877 878
12 224 269 323 795 802 879 880 881 882 883 884 885
12 341 465 557 649 657 764 886 887 888 889 890 891
12 413 513 561 728 736 757 887 892 893 894 895 896
12 201 273 299 769 776 897 898 899 900 901 902 903
12 365 460 509 666 674 719 886 892 904 905 906 907
12 48 198 456 605 688 824 832 908 909 910 911 912
12 97 270 505 622 696 855 863 913 914 915 916 917
12 111 185 425 624 706 918 919 920 921 922 923 924
12 15 162 428 592 751 920 925 926 927 928 929 930
12 211 282 574 691 699 821 829 860 931 932 933 934
12 12 36 569 582 590 828 859 933 935 936 937 938
12 108 132 521 616 626 840 915 939 940 941 942 943
12 234 285 526 701 744 815 842 916 941 944 945 946
12 110 281 329 805 882 947 948 949 950 951 952 953
12 14 284 307 780 900 949 954 955 956 957 958 959
12 3 27 554 656 734 773 779 960 961 962 963 964
12 355 426 575 642 659 738 890 895 962 965 966 967
12 99 123 506 665 755 799 806 968 969 970 971 972
12 378 429 527 635 669 760 896 906 970 973 974 975
12 13 109 448 948 955 976 977 978 979 980 981 982
12 195 267 564 648 727 772 778 899 983 984 985 986
12 475 523 571 651 676 730 889 894 905 985 987 988
12 102 174 414 631 756 969 974 989 990 991 992 993
12 5 101 443 919 926 994 995 996 997 998 999 1000
12 104 268 318 811 914 940 945 1001 1002 1003 1004 1005
12 461 508 556 690 698 743 835 847 866 1006 1007 1008
12 345 417 565 581 589 750 834 865 1008 1009 1010 1011
12 219 271 516 673 726 798 804 881 983 988 1012 1013
12 6 150 409 639 735 961 966 1014 1015 1016 1017 1018
12 369 412 517 615 623 705 846 864 1007 1009 1019 1020
12 8 272 294 820 858 932 936 1021 1022 1023 1024 1025
12 159 257 352 643 713 1026 1027 1028 1029 1030 1031 1032
12 43 66 356 660 766 1028 1033 1034 1035 1036 1037 1038
12 156 180 424 633 641 992 1016 1039 1040 1041 1042 1043
12 21 114 430 739 759 982 993 1018 1041 1044 1045 1046
12 17 158 449 929 997 1047 1048 1049 1050 1051 1052 1053
12 20 42 306 938 1024 1049 1054 1055 1056 1057 1058 1059
12 151 175 410 704 748 923 930 1060 1061 1062 1063 1064
12 357 379 431 684 708 753 1011 1020 1062 1065 1066 1067
12 39 157 496 1048 1055 1068 1069 1070 1071 1072 1073 1074
12 145 246 336 680 749 1061 1066 1075 1076 1077 1078 1079
12 28 153 491 1027 1034 1080 1081 1082 1083 1084 1085 1086
12 4 148 438 978 1015 1040 1045 1087 1088 1089 1090 1091
12 30 54 346 579 604 825 831 908 1092 1093 1094 1095
12 7 103 419 587 621 856 862 913 921 927 996 1096
12 349 373 421 632 640 712 888 893 904 967 975 1097
12 9 33 290 768 775 897 957 963 1098 1099 1100 1101
12 62 252 353 608 682 1078 1093 1102 1103 1104 1105 1106
12 45 165 358 584 752 1074 1079 1094 1104 1107 1108 1109
12 60 84 473 599 607 869 910 1110 1111 1112 1113 1114
12 213 239 478 693 745 854 871 912 1112 1115 1116 1117
12 63 209 401 793 875 1118 1119 1120 1121 1122 1123 1124
12 44 212 311 774 902 1100 1120 1125 1126 1127 1128 1129
12 51 75 458 718 762 787 792 1130 1131 1132 1133 1134
12 359 381 479 715 722 767 891 907 1097 1132 1135 1136
12 37 61 497 1038 1084 1119 1126 1137 1138 1139 1140 1141
12 55 247 343 711 763 1032 1037 1131 1136 1142 1143 1144
12 29 53 486 1070 1092 1103 1108 1145 1146 1147 1148 1149
12 56 196 390 850 909 1111 1116 1150 1151 1152 1153 1154
12 32 200 288 819 827 931 935 1021 1057 1155 1156 1157
12 340 364 469 598 606 681 833 845 1006 1010 1019 1067
12 199 223 468 647 672 785 791 873 984 987 1012 1158
12 31 146 338 638 655 960 965 1014 1030 1035 1081 1159
12 208 303 396 823 852 1153 1156 1160 1161 1162 1163 1164
12 46 67 214 830 911 1095 1149 1154 1157 1162 1165 1166
12 280 300 324 814 822 1003 1023 1167 1168 1169 1170 1171
12 23 115 286 861 917 1000 1005 1025 1096 1169 1172 1173
12 16 302 444 958 980 1090 1099 1174 1175 1176 1177 1178
12 22 47 163 964 1017 1086 1091 1101 1159 1176 1179 1180
12 274 295 319 884 901 952 959 1181 1182 1183 1184 1185
12 215 235 287 878 885 903 986 1013 1158 1183 1186 1187
12 34 297 492 1059 1073 1147 1155 1161 1166 1188 1189 1190
12 10 293 439 998 1022 1053 1058 1168 1173 1191 1192 1193
12 38 301 487 1083 1098 1128 1140 1175 1180 1194 1195 1196
12 202 291 391 876 898 1124 1129 1182 1187 1197 1198 1199
12 193 217 265 685 694 740 810 818 849 934 946 1117
12 0 24 144 576 585 747 928 937 1050 1056 1069 1109
12 26 50 194 644 653 761 771 790 1036 1121 1127 1138
12 2 98 266 723 732 754 777 803 950 956 977 1046
12 112 141 331 943 1004 1200 1201 1202 1203 1204 1205 1206
12 116 191 450 924 999 1202 1207 1208 1209 1210 1211 1212
12 305 330 405 1185 1199 1213 1214 1215 1216 1217 1218 1219
12 308 451 503 1178 1195 1215 1220 1221 1222 1223 1224 1225
12 322 440 544 1201 1208 1226 1227 1228 1229 1230 1231 1232
12 289 315 387 807 816 848 1163 1170 1233 1234 1235 1236
12 326 447 539 1214 1221 1237 1238 1239 1240 1241 1242 1243
12 105 128 312 794 801 879 951 971 1244 1245 1246 1247
12 100 172 432 979 990 1039 1044 1087 1248 1249 1250 1251
12 298 436 481 1047 1054 1068 1189 1192 1252 1253 1254 1255
12 160 261 499 1031 1082 1256 1257 1258 1259 1260 1261 1262
12 164 189 452 1043 1089 1249 1258 1263 1264 1265 1266 1267
12 304 402 498 1164 1190 1233 1252 1268 1269 1270 1271 1272
12 310 334 453 1171 1193 1230 1234 1253 1270 1273 1274 1275
12 442 488 545 1223 1239 1257 1264 1276 1277 1278 1279 1280
12 296 389 485 1118 1125 1137 1196 1198 1218 1224 1281 1282
12 446 495 534 1231 1254 1269 1274 1283 1284 1285 1286 1287
12 152 244 480 1071 1076 1102 1107 1145 1288 1289 1290 1291
12 149 173 434 918 925 994 1051 1063 1210 1292 1293 1294
12 292 316 433 947 954 976 1177 1184 1216 1222 1238 1295
12 118 335 455 953 981 1243 1246 1250 1295 1296 1297 1298
12 113 138 186 972 991 1247 1251 1297 1299 1300 1301 1302
12 166 454 501 1052 1072 1255 1287 1289 1293 1303 1304 1305
12 161 187 258 1064 1077 1291 1294 1305 1306 1307 1308 1309
12 182 445 540 1211 1232 1284 1292 1304 1307 1310 1311 1312
12 96 120 168 610 619 702 922 942 1203 1209 1313 1314
12 178 441 535 1242 1248 1267 1278 1298 1300 1315 1316 1317
12 147 171 242 627 636 709 1029 1042 1259 1265 1318 1319
12 154 437 483 1085 1088 1174 1179 1194 1225 1261 1266 1277
12 106 317 435 995 1002 1167 1172 1191 1206 1212 1227 1275
12 68 407 500 1123 1141 1282 1320 1321 1322 1323 1324 1325
12 65 94 259 1134 1144 1322 1326 1327 1328 1329 1330 1331
12 254 493 549 1262 1280 1321 1327 1332 1333 1334 1335 1336
12 250 489 532 1286 1288 1303 1306 1310 1337 1338 1339 1340
12 58 388 484 1146 1151 1160 1165 1188 1271 1341 1342 1343
12 49 72 241 593 602 678 1105 1113 1344 1345 1346 1347
12 91 140 377 668 721 1348 1349 1350 1351 1352 1353 1354
12 190 262 382 634 714 1319 1350 1355 1356 1357 1358 1359
12 64 90 404 1114 1152 1343 1346 1360 1361 1362 1363 1364
12 70 263 502 1106 1148 1290 1340 1342 1345 1362 1365 1366
12 76 248 542 1331 1335 1348 1356 1367 1368 1369 1370 1371
12 57 80 384 781 788 872 1122 1133 1323 1328 1372 1373
12 87 255 538 1339 1344 1360 1366 1374 1375 1376 1377 1378
12 78 126 370 596 613 837 843 867 1379 1380 1381 1382
12 52 245 482 1026 1033 1080 1139 1143 1260 1325 1330 1333
12 169 240 360 679 703 1060 1065 1075 1308 1383 1384 1385
12 95 260 376 600 683 1347 1378 1380 1384 1386 1387 1388
12 142 188 380 617 707 1314 1381 1385 1387 1389 1390 1391
12 176 249 550 1309 1311 1338 1376 1383 1388 1390 1392 1393
12 183 253 533 1256 1263 1276 1317 1318 1336 1358 1369 1394
12 127 170 362 630 664 968 973 989 1301 1351 1357 1395
12 79 243 367 710 717 1130 1135 1142 1329 1354 1359 1368
12 394 490 546 1272 1285 1337 1341 1361 1365 1374 1396 1397
12 124 177 547 1302 1316 1349 1355 1367 1394 1395 1398 1399
12 398 494 528 1213 1220 1237 1279 1281 1324 1334 1400 1401
12 135 181 531 1200 1207 1226 1312 1313 1391 1393 1402 1403
12 236 333 406 813 853 1236 1404 1405 1406 1407 1408 1409
12 92 139 233 841 870 1382 1405 1410 1411 1412 1413 1414
12 130 321 548 1205 1229 1403 1404 1411 1415 1416 1417 1418
12 134 325 529 1240 1244 1296 1299 1315 1398 1419 1420 1421
12 226 313 385 874 880 1181 1186 1197 1217 1422 1423 1424
12 74 122 218 661 670 716 784 797 1352 1425 1426 1427
12 82 393 537 1364 1377 1397 1406 1410 1415 1428 1429 1430
12 86 397 541 1320 1326 1332 1370 1372 1400 1431 1432 1433
12 93 232 403 786 877 1373 1423 1426 1433 1434 1435 1436
12 143 237 332 800 883 1245 1421 1424 1427 1435 1437 1438
12 85 133 536 1353 1371 1399 1420 1425 1432 1434 1438 1439
12 77 125 543 1375 1379 1386 1389 1392 1402 1414 1418 1430
12 81 221 386 851 868 1110 1115 1150 1363 1409 1413 1428
12 129 225 314 812 839 939 944 1001 1204 1407 1412 1416
12 320 392 551 1219 1241 1401 1419 1422 1431 1436 1437 1439
12 327 399 530 1228 1235 1268 1273 1283 1396 1408 1417 1429
