# Generated using Miratope v0.5.0 (https://github.com/galoomba1/miratope-rs)
4OFF

# Vertices, Faces, Edges, Cells
120 720 720 120

# Vertices
0.809016994374945 0.809016994374945 0.809016994374945 0.809016994374945 
-1.30901699437495 0.809016994374945 -0.5 0 
-1.30901699437495 -0.5 0 0.809016994374945 
0.809016994374945 -0.5 -1.30901699437495 0 
0 -1.30901699437495 -0.5 0.809016994374945 
0 0.809016994374945 -1.30901699437495 -0.5 
-0.809016994374945 0.809016994374945 0.809016994374945 0.809016994374945 
1.30901699437495 0.809016994374945 -0.5 0 
1.30901699437495 -0.5 0 0.809016994374945 
-0.809016994374945 -0.5 -1.30901699437495 0 
0 1.61803398874989 0 0 
0 -0.5 0.809016994374945 1.30901699437495 
0.809016994374945 0 0.5 1.30901699437495 
-0.5 0 1.30901699437495 -0.809016994374945 
-1.30901699437495 0.809016994374945 0.5 0 
-1.30901699437495 0 -0.809016994374945 0.5 
0 -1.30901699437495 0.5 -0.809016994374945 
-0.5 -1.30901699437495 -0.809016994374945 0 
0 0.809016994374945 1.30901699437495 0.5 
0 -0.5 -0.809016994374945 1.30901699437495 
0.809016994374945 -1.30901699437495 0 0.5 
-1.30901699437495 -0.5 0 -0.809016994374945 
0.809016994374945 -0.5 1.30901699437495 0 
-0.5 0.809016994374945 0 1.30901699437495 
-0.809016994374945 0.809016994374945 -0.809016994374945 0.809016994374945 
1.30901699437495 0.809016994374945 0.5 0 
0.5 0 1.30901699437495 0.809016994374945 
-0.809016994374945 -0.5 1.30901699437495 0 
0.5 0.809016994374945 0 -1.30901699437495 
-0.809016994374945 0 0.5 -1.30901699437495 
-0.809016994374945 0.809016994374945 -0.809016994374945 -0.809016994374945 
0.5 0.809016994374945 0 1.30901699437495 
-0.809016994374945 0 0.5 1.30901699437495 
0.5 0 1.30901699437495 -0.809016994374945 
-1.61803398874989 0 0 0 
0.5 1.30901699437495 -0.809016994374945 0 
0.809016994374945 0.809016994374945 -0.809016994374945 -0.809016994374945 
1.30901699437495 0 -0.809016994374945 0.5 
0 0 -1.61803398874989 0 
0 1.30901699437495 0.5 -0.809016994374945 
0.809016994374945 -1.30901699437495 0 -0.5 
-0.5 0.809016994374945 0 -1.30901699437495 
0 -0.5 0.809016994374945 -1.30901699437495 
0.809016994374945 0.809016994374945 -0.809016994374945 0.809016994374945 
0 0.809016994374945 1.30901699437495 -0.5 
0 -0.5 -0.809016994374945 -1.30901699437495 
1.30901699437495 0 0.809016994374945 0.5 
-0.809016994374945 0 -0.5 1.30901699437495 
0 0.809016994374945 -1.30901699437495 0.5 
-0.809016994374945 -1.30901699437495 0 0.5 
0.5 0 -1.30901699437495 -0.809016994374945 
0 -1.30901699437495 -0.5 -0.809016994374945 
1.30901699437495 -0.5 0 -0.809016994374945 
0.5 -1.30901699437495 0.809016994374945 0 
-0.5 -1.30901699437495 0.809016994374945 0 
0.809016994374945 0.809016994374945 0.809016994374945 -0.809016994374945 
-0.809016994374945 0.809016994374945 0.809016994374945 -0.809016994374945 
0 0 0 -1.61803398874989 
-0.809016994374945 1.30901699437495 0 0.5 
0 -1.30901699437495 0.5 0.809016994374945 
0.5 -1.30901699437495 -0.809016994374945 0 
1.30901699437495 0 -0.809016994374945 -0.5 
-0.809016994374945 -1.30901699437495 0 -0.5 
0.5 0 -1.30901699437495 0.809016994374945 
0.809016994374945 0 0.5 -1.30901699437495 
-1.30901699437495 0 0.809016994374945 0.5 
0.809016994374945 -0.809016994374945 -0.809016994374945 0.809016994374945 
0.809016994374945 0.5 1.30901699437495 0 
0 1.30901699437495 0.5 0.809016994374945 
-0.5 1.30901699437495 -0.809016994374945 0 
0 0.5 -0.809016994374945 -1.30901699437495 
0.809016994374945 -0.809016994374945 -0.809016994374945 -0.809016994374945 
0 0.5 -0.809016994374945 1.30901699437495 
1.30901699437495 -0.809016994374945 0.5 0 
-0.809016994374945 -0.809016994374945 0.809016994374945 0.809016994374945 
1.30901699437495 0.5 0 0.809016994374945 
1.30901699437495 0 0.809016994374945 -0.5 
0.5 -0.809016994374945 0 -1.30901699437495 
0 -0.809016994374945 -1.30901699437495 -0.5 
-0.809016994374945 -0.809016994374945 -0.809016994374945 0.809016994374945 
0 -0.809016994374945 1.30901699437495 -0.5 
0 0 0 1.61803398874989 
-1.30901699437495 0 0.809016994374945 -0.5 
0.809016994374945 0 -0.5 -1.30901699437495 
0.809016994374945 -0.809016994374945 0.809016994374945 0.809016994374945 
0.809016994374945 1.30901699437495 0 -0.5 
-0.5 1.30901699437495 0.809016994374945 0 
-0.5 -0.809016994374945 0 -1.30901699437495 
1.61803398874989 0 0 0 
-0.5 0 1.30901699437495 0.809016994374945 
-0.809016994374945 0.5 1.30901699437495 0 
-0.809016994374945 1.30901699437495 0 -0.5 
-1.30901699437495 0.5 0 0.809016994374945 
0 0.5 0.809016994374945 -1.30901699437495 
-1.30901699437495 -0.809016994374945 -0.5 0 
0.809016994374945 -0.809016994374945 0.809016994374945 -0.809016994374945 
0 0.5 0.809016994374945 1.30901699437495 
-0.5 -0.809016994374945 0 1.30901699437495 
-1.30901699437495 0.5 0 -0.809016994374945 
0 -1.61803398874989 0 0 
-0.5 0 -1.30901699437495 0.809016994374945 
-1.30901699437495 0 -0.809016994374945 -0.5 
0 1.30901699437495 -0.5 0.809016994374945 
-0.809016994374945 0.5 -1.30901699437495 0 
0.809016994374945 0.5 -1.30901699437495 0 
1.30901699437495 0.5 0 -0.809016994374945 
-1.30901699437495 -0.809016994374945 0.5 0 
1.30901699437495 -0.809016994374945 -0.5 0 
0.809016994374945 0 -0.5 1.30901699437495 
0 0 1.61803398874989 0 
0 1.30901699437495 -0.5 -0.809016994374945 
0 -0.809016994374945 -1.30901699437495 0.5 
0.5 1.30901699437495 0.809016994374945 0 
0.5 -0.809016994374945 0 1.30901699437495 
-0.809016994374945 0 -0.5 -1.30901699437495 
-0.809016994374945 -0.809016994374945 0.809016994374945 -0.809016994374945 
0.809016994374945 1.30901699437495 0 0.5 
0 -0.809016994374945 1.30901699437495 0.5 
-0.5 0 -1.30901699437495 -0.809016994374945 
-0.809016994374945 -0.809016994374945 -0.809016994374945 -0.809016994374945 

# Faces
5 11 1 0 2 10
5 6 5 0 1 7
5 8 2 0 4 6
5 11 3 0 4 7
5 10 3 0 5 8
5 6 7 11 10 8
5 6 4 1 11 9
5 2 5 6 9 10
5 7 9 10 3 1
5 7 4 5 8 9
5 8 2 3 11 9
5 2 3 1 4 5
5 13 23 22 14 12
5 18 16 12 13 20
5 19 14 12 15 18
5 12 17 23 20 15
5 12 17 22 19 16
5 18 19 22 23 20
5 18 21 23 13 15
5 18 16 14 22 21
5 20 21 22 17 13
5 23 17 14 19 21
5 15 16 14 17 13
5 19 21 20 15 16
5 25 32 35 26 24
5 25 30 31 28 24
5 26 34 31 27 24
5 27 30 32 29 24
5 24 29 35 34 28
5 25 30 33 35 29
5 30 31 34 35 32
5 34 33 30 27 28
5 26 34 33 32 29
5 33 32 25 27 31
5 27 28 26 29 25
5 31 33 35 26 28
5 12 36 18 37 39
5 36 19 25 38 12
5 30 18 36 14 25
5 36 19 30 37 15
5 14 38 39 15 36
5 30 25 38 39 37
5 30 18 15 39 32
5 14 38 32 30 19
5 15 37 32 38 12
5 18 37 32 25 19
5 32 39 12 14 25
5 43 40 0 3 22
5 0 40 44 8 42
5 5 44 43 41 0
5 10 42 0 41 22
5 43 22 10 8 44
5 43 45 8 5 40
5 3 41 43 45 10
5 10 42 5 44 45
5 22 45 8 42 3
5 22 45 44 40 41
5 40 41 3 42 5
5 46 47 7 11 48
5 46 47 53 31 49
5 46 50 31 52 48
5 11 51 46 49 52
5 53 50 46 51 7
5 7 53 31 52 11
5 49 48 11 9 31
5 7 47 50 31 9
5 9 52 48 51 7
5 11 51 47 53 9
5 52 49 50 53 9
5 47 51 48 49 50
5 1 55 23 41 0
5 0 54 23 22 2
5 11 42 0 54 55
5 10 22 23 55 11
5 1 42 10 21 55
5 55 21 22 41 54
5 23 41 2 10 21
5 22 21 11 42 2
5 23 54 1 11 21
5 41 54 1 42 2
5 56 31 33 58 46
5 56 46 57 18 52
5 30 18 48 56 31
5 56 52 30 33 50
5 56 50 58 57 48
5 30 37 58 50 31
5 57 18 30 33 58
5 52 30 37 57 48
5 57 46 50 33 37
5 37 58 46 48 18
5 37 33 31 52 18
5 27 8 44 59 25
5 25 60 26 61 59
5 25 45 44 61 29
5 60 28 8 45 25
5 26 28 8 44 61
5 44 62 26 29 59
5 26 62 8 27 60
5 61 62 8 45 59
5 27 45 44 62 28
5 28 62 61 29 60
5 29 60 27 45 59
5 31 53 6 8 27
5 8 24 26 63 6
5 34 53 6 62 26
5 34 63 6 9 31
5 6 62 24 27 9
5 9 31 60 24 8
5 24 62 63 34 60
5 60 34 53 9 27
5 31 60 26 63 53
5 9 8 62 63 53
5 22 36 12 64 43
5 22 43 59 25 19
5 43 64 38 25 45
5 59 38 12 17 43
5 36 17 43 45 19
5 45 22 36 16 25
5 36 17 64 38 16
5 59 45 19 16 38
5 12 64 59 25 16
5 17 64 59 45 22
5 55 11 56 46 65
5 20 55 11 52 18
5 21 55 65 57 18
5 55 51 46 57 20
5 55 51 56 52 21
5 18 49 56 11 21
5 57 49 56 51 65
5 21 52 49 57 20
5 46 49 18 20 65
5 20 21 11 51 65
5 67 66 68 73 72
5 66 64 12 71 67
5 68 38 12 69 66
5 69 71 72 70 66
5 64 66 70 73 38
5 71 67 70 73 39
5 12 38 73 72 71
5 38 39 71 69 64
5 39 38 68 70 72
5 12 69 67 72 39
5 69 64 68 70 67
5 39 73 68 64 12
5 74 76 81 80 75
5 75 74 63 26 79
5 62 76 74 77 26
5 74 63 62 81 78
5 80 78 74 77 79
5 79 75 78 81 61
5 80 79 26 62 81
5 79 61 62 63 77
5 26 63 76 81 61
5 80 61 26 77 75
5 77 63 76 78 75
5 76 62 61 80 78
5 54 86 84 82 0
5 41 89 85 82 0
5 85 40 0 83 84
5 88 54 0 40 89
5 0 83 86 88 41
5 86 84 85 89 88
5 84 82 40 89 87
5 83 54 88 87 84
5 88 41 40 85 87
5 82 83 86 87 85
5 41 89 87 86 54
5 41 40 82 83 54
5 35 90 75 91 26
5 73 90 75 80 68
5 68 70 75 91 61
5 75 70 73 35 77
5 68 61 26 35 73
5 68 29 26 91 80
5 26 77 90 73 29
5 35 90 70 68 29
5 61 29 73 70 80
5 91 77 90 70 80
5 35 77 91 61 29
5 67 92 84 86 97
5 84 93 96 95 86
5 84 94 96 99 92
5 99 93 84 87 67
5 95 94 84 87 97
5 96 99 67 97 95
5 87 67 98 95 86
5 99 98 95 94 93
5 99 98 97 87 92
5 67 98 96 93 92
5 86 94 96 98 97
5 87 92 93 94 86
5 0 2 44 81 82
5 2 43 89 100 0
5 0 5 81 85 100
5 43 89 85 81 44
5 2 5 81 101 43
5 41 100 85 101 43
5 100 82 81 101 89
5 85 101 44 5 82
5 41 89 101 44 2
5 5 82 100 41 2
5 4 76 81 40 0
5 102 83 0 5 76
5 0 4 102 84 100
5 81 85 84 102 76
5 84 78 76 4 83
5 100 40 81 78 84
5 5 81 78 102 4
5 40 5 76 78 85
5 102 78 85 100 83
5 100 40 5 4 83
5 67 72 90 75 92
5 96 93 75 90 105
5 92 104 96 103 75
5 67 70 75 93 104
5 72 70 75 103 105
5 105 72 67 104 96
5 70 90 105 98 67
5 96 98 72 90 103
5 98 104 93 103 105
5 70 92 93 103 90
5 70 92 104 98 72
5 89 69 12 14 43
5 43 59 68 66 89
5 38 14 43 101 68
5 66 101 43 17 69
5 66 106 12 17 89
5 66 106 38 59 101
5 17 69 106 38 14
5 12 14 59 68 106
5 101 68 106 69 89
5 101 59 14 17 89
5 89 66 67 97 88
5 17 88 87 66 64
5 97 87 66 106 71
5 71 67 87 88 13
5 12 17 88 97 71
5 17 64 106 71 13
5 12 64 89 88 13
5 97 13 12 106 67
5 87 89 64 106 67
5 87 89 17 13 97
5 44 24 26 91 81
5 59 24 26 79 68
5 24 44 101 68 29
5 62 81 101 59 24
5 29 79 91 62 24
5 81 91 79 68 101
5 29 79 80 101 59
5 59 68 80 81 44
5 62 91 80 101 44
5 74 102 84 92 75
5 104 84 102 107 96
5 84 78 75 99 104
5 74 107 94 84 78
5 74 75 99 96 107
5 102 94 96 103 74
5 99 103 74 78 92
5 99 103 107 94 104
5 78 102 107 103 75
5 104 94 102 78 92
5 0 83 108 55 3
5 7 42 0 83 109
5 108 54 0 4 109
5 7 11 55 108 109
5 7 42 3 55 51
5 55 51 109 83 54
5 11 51 109 4 42
5 83 4 7 51 108
5 108 51 11 3 54
5 42 4 83 54 3
5 47 112 113 58 46
5 58 105 96 110 46
5 47 107 96 111 46
5 50 112 107 110 46
5 46 111 105 113 50
5 105 113 112 107 96
5 103 112 47 110 96
5 103 112 50 58 105
5 113 103 96 111 58
5 103 105 111 110 107
5 50 58 111 110 47
5 47 107 103 113 50
5 113 33 31 53 112
5 113 35 26 63 112
5 26 28 53 112 77
5 31 28 63 112 50
5 33 50 112 77 35
5 31 50 113 35 60
5 33 60 26 77 113
5 77 63 28 60 35
5 53 63 77 113 50
5 50 33 60 28 53
5 109 1 0 82 102
5 6 42 0 82 76
5 7 6 76 102 109
5 5 6 114 102 82
5 42 1 109 114 6
5 82 83 109 114 76
5 7 114 102 83 1
5 5 42 7 114 76
5 42 5 82 83 1
5 47 109 102 74 112
5 96 115 112 74 93
5 94 109 114 74 93
5 47 114 74 103 115
5 115 110 109 114 112
5 96 94 109 47 115
5 115 103 93 94 110
5 93 102 109 110 96
5 103 112 114 102 93
5 102 94 110 47 114
5 109 107 96 95 108
5 65 95 96 115 46
5 51 108 95 111 46
5 51 109 94 95 65
5 95 111 115 107 94
5 51 46 115 107 109
5 51 47 115 111 65
5 47 109 108 65 46
5 96 94 108 65 111
5 94 108 51 47 107
5 6 76 74 112 53
5 28 6 76 91 26
5 28 6 114 112 34
5 62 91 74 114 6
5 26 34 112 74 91
5 74 114 53 34 77
5 34 77 91 62 28
5 114 112 77 91 76
5 28 53 114 76 62
5 27 10 11 56 31
5 48 21 10 9 56
5 27 9 56 49 30
5 30 19 10 9 31
5 21 18 30 27 10
5 48 21 19 30 49
5 18 48 11 10 19
5 31 27 19 18 49
5 11 21 19 27 9
5 1 108 86 100 0
5 108 86 84 102 109
5 82 4 109 94 84
5 84 100 54 108 94
5 1 109 94 86 54
5 1 108 94 102 4
5 100 86 94 102 82
5 1 54 100 82 4
5 116 95 96 105 117
5 57 116 95 110 46
5 98 105 115 110 95
5 57 117 98 95 65
5 57 117 105 115 46
5 96 98 117 58 115
5 57 65 110 115 58
5 98 116 57 58 105
5 46 58 117 116 65
5 96 110 65 116 98
5 108 55 20 116 95
5 46 110 108 55 48
5 55 48 57 116 118
5 51 110 95 118 55
5 95 118 20 57 111
5 48 57 111 110 51
5 116 111 46 48 20
5 110 111 116 118 108
5 108 51 48 20 118
5 67 97 116 117 72
5 13 116 117 39 12
5 15 116 97 69 12
5 67 98 116 13 69
5 39 15 116 98 72
5 98 67 106 39 117
5 15 117 72 106 12
5 69 13 15 39 106
5 13 97 98 117 15
5 97 69 106 72 98
5 88 100 0 3 23
5 88 23 55 108 86
5 83 1 55 118 86
5 3 55 118 88 41
5 100 83 108 118 88
5 1 3 23 118 108
5 23 118 86 100 41
5 100 41 3 1 83
5 66 85 84 104 67
5 85 80 75 93 84
5 78 84 87 66 80
5 67 66 80 75 99
5 78 85 66 70 75
5 66 70 99 104 87
5 93 78 80 70 99
5 85 80 70 67 87
5 85 78 93 104 87
5 88 69 12 36 23
5 116 71 12 36 20
5 116 15 36 23 118
5 17 36 20 118 88
5 15 71 69 17 36
5 71 116 118 88 69
5 71 15 20 118 97
5 97 116 20 23 88
5 23 17 69 97 118
5 56 7 1 55 48
5 48 55 3 10 52
5 52 10 42 7 56
5 56 9 42 1 51
5 3 21 52 9 42
5 1 51 48 21 3
5 22 23 88 89 43
5 43 14 36 23 41
5 43 64 69 88 41
5 41 88 13 36 22
5 14 64 69 13 36
5 41 22 14 64 89
5 23 41 89 69 13
5 25 14 43 44 24
5 64 43 44 61 68
5 45 24 61 101 43
5 25 38 68 61 24
5 38 29 24 45 14
5 38 29 61 101 64
5 68 29 25 14 64
5 45 14 64 101 44
5 3 2 40 100 54
5 42 2 40 82 4
5 6 28 31 56 7
5 11 56 53 6 42
5 28 6 42 10 27
5 56 53 28 27 52
5 8 28 31 52 10
5 8 42 7 53 28
5 8 27 52 11 42
5 22 36 20 55 3
5 54 88 13 20 55
5 21 36 13 118 55
5 3 41 17 36 21
5 22 3 54 88 17
5 17 41 54 118 13
5 21 3 54 118 20
5 27 19 14 59 24
5 32 60 24 59 38
5 30 60 24 45 19
5 14 45 27 30 16
5 16 30 60 29 38
5 29 59 14 16 32
5 27 19 16 32 60
5 76 6 8 44 81
5 62 6 4 82 81
5 42 6 62 44 2
5 8 62 81 40 2
5 42 4 76 62 8
5 62 44 40 82 76
5 34 33 49 56 53
5 34 50 56 9 28
5 52 9 28 60 30
5 60 30 49 50 34
5 52 27 60 33 49
5 2 10 19 14 43
5 17 43 2 3 23
5 3 23 36 19 10
5 14 45 10 21 36
5 2 45 19 21 3
5 14 17 41 2 45
5 36 22 10 52 18
5 30 16 36 21 52
5 45 25 30 52 10
5 25 14 22 10 27
5 27 52 18 16 25
5 22 21 52 27 45
5 109 1 55 65 110
5 109 110 46 56 7
5 1 11 56 47 109
5 56 47 110 65 48
5 7 47 110 108 1
5 11 48 65 108 1
5 7 6 63 112 47
5 114 6 9 56 47
5 31 34 112 47 56
5 50 112 114 7 56
5 47 50 34 63 114
5 9 28 63 114 7
5 59 24 8 2 43
5 8 24 25 19 10
5 24 44 2 10 27
5 19 27 8 2 22
5 14 59 44 2 22
5 20 23 54 108 65
5 3 23 20 48 11
5 21 48 65 118 23
5 54 118 65 51 1
5 74 112 113 90 75
5 91 74 103 90 79
5 74 63 34 113 103
5 75 103 113 35 79
5 34 113 90 79 26
5 34 63 91 79 35
5 90 35 34 112 103
5 91 63 112 103 75
5 46 115 112 53 56
5 114 109 51 56 53
5 50 115 110 51 56
5 50 115 107 114 53
5 112 53 7 109 107
5 7 51 110 107 114
5 40 43 17 88 100
5 22 2 40 89 17
5 23 17 89 100 54
5 60 35 79 61 24
5 79 26 60 32 73
5 38 32 35 79 68
5 38 59 61 79 73
5 38 25 60 35 73
5 73 32 25 59 68
5 89 69 67 92 85
5 68 106 67 92 80
5 68 64 89 85 80
5 70 92 85 101 68
5 85 101 64 69 87
5 87 92 80 101 89
5 92 70 106 69 87
5 64 101 80 70 106
5 71 116 95 104 67
5 97 95 111 117 71
5 104 95 111 105 99
5 105 72 71 116 111
5 67 99 105 117 71
5 104 97 71 72 99
5 117 111 96 99 72
5 96 111 116 97 104
5 49 37 117 111 46
5 18 20 116 117 37
5 18 48 65 116 15
5 111 58 37 15 116
5 18 49 58 117 15
5 49 37 15 20 48
5 48 65 111 58 49
5 20 65 111 117 15
5 77 79 73 119 113
5 79 29 32 119 90
5 60 34 77 79 29
5 60 29 73 119 33
5 90 77 34 33 119
5 32 60 34 113 119
5 33 113 90 73 32
5 49 30 32 119 58
5 30 16 39 119 33
5 16 30 49 57 15
5 58 57 15 39 119
5 15 117 119 32 16
5 33 49 57 117 119
5 117 57 18 16 39
5 18 49 33 32 16
5 32 33 58 117 39
5 39 71 98 105 119
5 71 117 119 73 106
5 99 98 71 106 70
5 70 73 119 105 99
5 106 70 90 119 39
5 98 117 119 90 99
5 90 99 67 106 73
5 39 117 105 90 73
5 106 72 90 79 68
5 35 119 72 70 79
5 106 38 29 79 70
5 38 106 72 119 32
5 29 38 39 119 35
5 29 68 106 39 32
5 35 90 72 39 32
5 95 65 20 13 97
5 13 118 95 98 71
5 13 20 57 117 71
5 15 57 111 98 71
5 57 15 13 118 65
5 97 118 65 111 98
5 115 58 49 56 47
5 46 49 33 113 115
5 33 58 115 112 34
5 47 53 34 113 115
5 58 49 31 34 113
5 77 74 107 115 113
5 77 90 99 93 74
5 77 112 115 105 90
5 96 99 90 113 115
5 99 105 115 107 93
5 105 99 75 77 113
5 77 112 107 93 75
5 111 57 49 50 115
5 35 119 37 30 60
5 119 73 38 16 37
5 29 73 39 16 25
5 37 16 25 60 33
5 35 73 39 37 33
5 18 57 116 13 36
5 16 39 71 13 36
5 37 16 36 20 57
5 37 57 116 71 39
5 12 71 117 37 16
5 107 93 104 95 110
5 103 99 98 111 115
5 104 98 111 110 94
5 55 48 18 36 23
5 36 20 48 52 19
5 19 52 11 3 22
5 5 6 28 24 44
5 6 63 91 81 5
5 8 5 81 61 24
5 61 24 28 63 91
5 63 28 8 5 76
5 44 61 91 76 5
5 40 81 61 59 43
5 62 5 2 45 24
5 5 62 61 101 40
5 45 2 40 101 59
5 31 60 25 19 52
5 32 60 31 49 37
5 19 52 49 37 16
5 115 103 90 119 58
5 111 115 113 119 117
5 98 111 58 119 72
5 103 113 119 72 99
5 113 90 72 117 58
5 55 23 13 116 65
5 57 15 36 21 48
5 97 116 65 108 86
5 98 116 118 86 104
5 86 104 96 110 108
5 118 108 94 104 97
5 86 94 110 65 118
5 43 40 85 66 64
5 61 68 66 85 81
5 80 66 89 40 81
5 64 59 61 80 66
5 40 44 61 80 85
5 59 44 40 89 64
5 10 9 28 24 45
5 2 45 27 9 42
5 5 62 28 9 42
5 23 13 97 86 54
5 86 100 89 69 97
5 13 118 86 87 69
5 69 87 100 41 17
5 54 118 97 87 100
5 17 41 40 101 64
5 4 109 47 53 6
5 4 114 47 51 1
5 9 42 4 114 53
5 108 83 84 104 95
5 83 109 107 93 84
5 86 95 110 109 83
5 83 102 107 110 108
5 83 86 104 93 102
5 4 102 74 63 6
5 74 91 81 82 102
5 4 114 74 78 82
5 78 91 63 114 102
5 91 78 82 5 62
5 63 62 5 4 114
5 81 82 84 92 80
5 84 100 89 66 92
5 78 92 66 101 81
5 66 101 40 100 87
5 40 101 80 78 82
5 92 78 82 100 87
5 75 93 102 76 91
5 76 102 107 112 63
5 76 78 93 107 114
5 107 114 63 77 103
5 77 103 93 78 91
5 9 8 45 19 52
5 66 92 75 79 68
5 79 80 66 106 73
5 106 72 99 92 66
5 72 99 75 79 73
5 80 92 99 90 79
5 32 16 12 106 73
5 29 59 64 106 73
5 14 64 106 39 16
5 88 13 116 95 86
5 95 104 87 88 118
5 71 98 104 87 69
5 67 104 86 88 69
5 115 50 33 119 105
5 37 119 105 111 57
5 113 50 49 37 119
5 105 117 37 33 113
5 79 70 99 103 77
5 35 119 105 103 77
5 73 72 105 113 35
5 92 66 69 97 104
5 55 54 86 95 65
5 83 94 95 118 54
5 110 94 83 1 51
5 100 88 97 104 84
5 95 108 54 88 97
5 94 83 100 87 104
5 66 101 61 79 70
5 35 119 58 50 34
5 32 35 113 58 37
5 84 93 74 76 82
5 93 74 91 80 92
5 91 81 85 92 75
5 82 85 80 91 76
5 82 102 93 92 85
5 74 76 4 109 107
5 83 94 107 114 4
5 82 78 93 94 83
5 91 78 85 101 61
5 74 63 53 47 107
5 4 7 47 107 102
5 4 76 63 53 7
5 103 77 34 50 115
5 35 90 105 58 33
5 37 119 72 71 15
5 37 58 105 72 39
5 92 85 100 86 104
5 70 79 91 78 92
5 106 38 16 15 71
5 73 32 37 117 72
5 100 85 66 69 88

# Cells
12 0 1 2 3 4 5 6 7 8 9 10 11
12 12 13 14 15 16 17 18 19 20 21 22 23
12 24 25 26 27 28 29 30 31 32 33 34 35
12 14 36 37 38 39 40 41 42 43 44 45 46
12 4 47 48 49 50 51 52 53 54 55 56 57
12 58 59 60 61 62 63 64 65 66 67 68 69
12 0 50 70 71 72 73 74 75 76 77 78 79
12 60 80 81 82 83 84 85 86 87 88 89 90
12 34 91 92 93 94 95 96 97 98 99 100 101
12 26 97 102 103 104 105 106 107 108 109 110 111
12 16 37 112 113 114 115 116 117 118 119 120 121
12 61 81 122 123 124 125 126 127 128 129 130 131
12 132 133 134 135 136 137 138 139 140 141 142 143
12 144 145 146 147 148 149 150 151 152 153 154 155
12 156 157 158 159 160 161 162 163 164 165 166 167
12 153 168 169 170 171 172 173 174 175 176 177 178
12 179 180 181 182 183 184 185 186 187 188 189 190
12 49 157 191 192 193 194 195 196 197 198 199 200
12 158 193 201 202 203 204 205 206 207 208 209 210
12 188 211 212 213 214 215 216 217 218 219 220 221
12 115 134 222 223 224 225 226 227 228 229 230 231
12 133 226 232 233 234 235 236 237 238 239 240 241
12 96 150 173 242 243 244 245 246 247 248 249 250
12 181 213 251 252 253 254 255 256 257 258 259 260
12 3 72 261 262 263 264 265 266 267 268 269 270
12 271 272 273 274 275 276 277 278 279 280 281 282
12 35 110 283 284 285 286 287 288 289 290 291 292
12 1 202 262 293 294 295 296 297 298 299 300 301
12 256 277 302 303 304 305 306 307 308 309 310 311
12 273 307 312 313 314 315 316 317 318 319 320 321
12 104 146 285 322 323 324 325 326 327 328 329 330
12 64 82 127 331 332 333 334 335 336 337 338 339
12 156 203 263 293 340 341 342 343 344 345 346 347
12 272 313 348 349 350 351 352 353 354 355 356 357
12 125 314 349 358 359 360 361 362 363 364 365 366
12 141 239 367 368 369 370 371 372 373 374 375 376
12 70 160 261 340 377 378 379 380 381 382 383 384
12 182 214 253 385 386 387 388 389 390 391 392 393
12 15 236 369 394 395 396 397 398 399 400 401 402
12 8 66 74 126 265 332 403 404 405 406 407 408
12 12 112 222 238 394 409 410 411 412 413 414 415
12 93 114 224 244 416 417 418 419 420 421 422 423
12 11 57 79 167 200 210 270 301 347 384 424 425
12 5 63 102 331 405 426 427 428 429 430 431 432
12 20 75 380 397 412 433 434 435 436 437 438 439
12 27 43 101 119 420 440 441 442 443 444 445 446
12 2 48 191 201 294 425 447 448 449 450 451 452
12 31 68 83 109 292 333 429 453 454 455 456 457
12 21 53 76 116 410 436 458 459 460 461 462 463
12 19 38 117 335 443 461 464 465 466 467 468 469
12 58 122 264 319 359 403 470 471 472 473 474 475
12 65 105 286 324 426 454 476 477 478 479 480 481
12 51 91 113 416 440 458 467 482 483 484 485 486
12 78 131 269 366 382 408 439 475 487 488 489 490
12 145 168 284 326 491 492 493 494 495 496 497 498
12 62 274 306 317 471 479 499 500 501 502 503 504
12 47 71 159 192 377 409 424 437 459 505 506 507
12 24 92 172 243 419 441 508 509 510 511 512 513
12 142 230 240 392 514 515 516 517 518 519 520 521
12 184 216 348 367 522 523 524 525 526 527 528 529
12 89 130 356 364 530 531 532 533 534 535 536 537
12 32 174 289 495 509 538 539 540 541 542 543 544
12 42 86 534 545 546 547 548 549 550 551 552 553
12 137 217 372 526 554 555 556 557 558 559 560 561
12 140 175 510 539 558 562 563 564 565 566 567 568
12 351 362 375 400 523 537 569 570 571 572 573 574
12 59 80 271 283 453 478 499 575 576 577 578 579
12 212 255 276 303 491 580 581 582 583 584 585 586
12 69 84 128 281 318 354 363 473 501 536 575 587
12 29 41 444 512 541 546 566 588 589 590 591 592
12 13 36 368 395 531 551 571 593 594 595 596 597
12 186 219 258 280 308 316 350 524 584 598 599 600
12 17 73 123 337 404 433 460 464 488 601 602 603
12 95 103 152 242 323 447 604 605 606 607 608 609
12 52 98 195 245 418 450 482 606 610 611 612 613
12 33 45 90 338 446 457 468 552 591 614 615 616
12 218 279 353 528 559 583 599 617 618 619 620 621
12 18 124 360 396 435 489 532 573 593 601 622 623
12 189 320 357 365 529 574 600 624 625 626 627 628
12 194 223 249 417 516 610 629 630 631 632 633 634
12 7 54 99 106 428 449 484 604 611 635 636 637
12 166 241 383 402 415 438 507 638 639 640 641 642
12 56 121 199 231 414 423 463 486 506 613 634 643
12 6 67 267 297 406 427 472 477 500 644 645 646
12 180 252 309 312 341 598 626 647 648 649 650 651
12 147 207 296 325 448 605 652 653 654 655 656 657
12 162 197 206 387 519 631 658 659 660 661 662 663
12 154 259 310 329 498 586 655 664 665 666 667 668
12 25 94 107 334 430 442 455 466 483 614 635 669
12 132 169 211 388 515 560 562 670 671 672 673 674
12 46 120 143 229 422 445 513 567 590 675 676 677
12 185 235 370 399 522 570 625 640 678 679 680 681
12 88 275 352 530 550 576 587 618 682 683 684 685
12 171 215 494 538 557 563 585 620 673 686 687 688
12 135 187 221 234 376 390 520 527 556 672 680 689
12 266 315 344 361 379 470 490 628 649 690 691 692
12 163 183 343 381 627 642 647 679 691 693 694 695
12 136 176 227 248 421 511 521 564 632 671 676 696
12 30 85 288 456 543 545 579 588 615 684 697 698
12 144 204 251 386 653 658 664 699 700 701 702 703
12 205 254 298 304 342 648 654 666 699 704 705 706
12 28 100 108 151 178 246 290 328 496 508 540 607
12 155 198 208 250 452 609 612 633 656 662 702 707
12 358 378 401 434 487 569 622 624 638 678 690 694
12 295 302 322 476 503 644 652 665 704 708 709 710
12 278 287 497 542 577 582 617 682 687 697 711 712
12 355 371 525 533 548 554 572 596 619 683 713 714
12 165 190 209 260 346 393 651 663 695 703 706 715
12 149 170 247 389 517 630 660 670 696 701 707 716
12 44 138 373 549 555 565 589 597 675 713 717 718
12 544 553 561 568 592 621 685 688 698 712 714 718
12 22 40 118 139 228 237 374 398 413 594 677 717
12 161 179 232 385 514 639 659 681 689 693 715 719
12 148 177 220 257 391 492 581 668 674 686 700 716
12 9 111 300 330 431 451 481 608 637 646 657 710
12 164 196 225 233 411 505 518 629 641 643 661 719
12 268 299 311 321 345 474 504 645 650 692 705 709
12 23 39 87 129 336 465 535 547 595 602 616 623
12 282 291 305 327 480 493 502 578 580 667 708 711
12 10 55 77 339 407 432 462 469 485 603 636 669
