# Generated using Miratope v0.5.0 (https://github.com/galoomba1/miratope-rs)
4OFF

# Vertices, Faces, Edges, Cells
120 2400 1800 240

# Vertices
0.809016994374945 0.809016994374945 0.809016994374945 0.809016994374945 
0.809016994374945 0.809016994374945 -0.809016994374945 -0.809016994374945 
0.809016994374945 -0.809016994374945 -0.809016994374945 0.809016994374945 
0.809016994374945 -0.809016994374945 0.809016994374945 -0.809016994374945 
0.809016994374945 0.809016994374945 0.809016994374945 -0.809016994374945 
0.809016994374945 0 0.5 1.30901699437495 
0.809016994374945 0.5 -1.30901699437495 0 
0.809016994374945 -1.30901699437495 0 -0.5 
0.809016994374945 0.809016994374945 -0.809016994374945 0.809016994374945 
0.809016994374945 0.5 1.30901699437495 0 
0.809016994374945 -1.30901699437495 0 0.5 
0.809016994374945 0 -0.5 -1.30901699437495 
0.809016994374945 -0.809016994374945 0.809016994374945 0.809016994374945 
0.809016994374945 1.30901699437495 0 0.5 
0.809016994374945 0 0.5 -1.30901699437495 
0.809016994374945 -0.5 -1.30901699437495 0 
0.809016994374945 -0.809016994374945 -0.809016994374945 -0.809016994374945 
0.809016994374945 1.30901699437495 0 -0.5 
0.809016994374945 -0.5 1.30901699437495 0 
0.809016994374945 0 -0.5 1.30901699437495 
1.30901699437495 0.809016994374945 0.5 0 
0 -0.809016994374945 1.30901699437495 0.5 
0.5 -0.809016994374945 0 -1.30901699437495 
1.30901699437495 0.5 0 0.809016994374945 
0.5 0 1.30901699437495 -0.809016994374945 
0 -1.30901699437495 0.5 0.809016994374945 
0 -1.61803398874989 0 0 
0.5 0 1.30901699437495 0.809016994374945 
1.30901699437495 0 -0.809016994374945 0.5 
0.5 -0.809016994374945 0 1.30901699437495 
1.30901699437495 0 -0.809016994374945 -0.5 
0 -1.30901699437495 0.5 -0.809016994374945 
1.30901699437495 0.5 0 -0.809016994374945 
0 -0.809016994374945 1.30901699437495 -0.5 
0.5 -1.30901699437495 -0.809016994374945 0 
0.5 -1.30901699437495 0.809016994374945 0 
0 0.5 0.809016994374945 -1.30901699437495 
1.30901699437495 0.809016994374945 -0.5 0 
0 0.809016994374945 1.30901699437495 -0.5 
0 0 1.61803398874989 0 
0.5 0.809016994374945 0 -1.30901699437495 
0.5 1.30901699437495 0.809016994374945 0 
1.30901699437495 -0.5 0 0.809016994374945 
1.30901699437495 -0.809016994374945 -0.5 0 
0 -0.5 0.809016994374945 -1.30901699437495 
-0.5 0 1.30901699437495 -0.809016994374945 
-1.30901699437495 0.5 0 0.809016994374945 
-0.5 0.809016994374945 0 1.30901699437495 
-1.30901699437495 -0.809016994374945 0.5 0 
0 0 0 1.61803398874989 
-1.30901699437495 0.809016994374945 0.5 0 
-0.5 -1.30901699437495 0.809016994374945 0 
-0.5 1.30901699437495 0.809016994374945 0 
-1.30901699437495 -0.5 0 0.809016994374945 
0 1.30901699437495 0.5 0.809016994374945 
-0.5 -0.809016994374945 0 1.30901699437495 
-1.30901699437495 0 0.809016994374945 -0.5 
-0.809016994374945 0.809016994374945 0.809016994374945 -0.809016994374945 
-0.809016994374945 -0.809016994374945 0.809016994374945 0.809016994374945 
0 0.5 0.809016994374945 1.30901699437495 
-1.30901699437495 0 0.809016994374945 0.5 
-0.809016994374945 0.809016994374945 0.809016994374945 0.809016994374945 
1.30901699437495 0 0.809016994374945 0.5 
-0.809016994374945 -0.809016994374945 0.809016994374945 -0.809016994374945 
1.30901699437495 0 0.809016994374945 -0.5 
0 -0.5 0.809016994374945 1.30901699437495 
0 0.809016994374945 1.30901699437495 0.5 
-0.809016994374945 0 0.5 1.30901699437495 
-0.809016994374945 0.5 1.30901699437495 0 
1.30901699437495 -0.809016994374945 0.5 0 
-0.809016994374945 -1.30901699437495 0 0.5 
-0.809016994374945 0.809016994374945 -0.809016994374945 0.809016994374945 
0 -1.30901699437495 -0.5 0.809016994374945 
0.5 0 -1.30901699437495 0.809016994374945 
-0.5 0 -1.30901699437495 0.809016994374945 
-0.809016994374945 -0.809016994374945 -0.809016994374945 0.809016994374945 
-0.5 0 1.30901699437495 0.809016994374945 
0 1.30901699437495 -0.5 0.809016994374945 
-0.809016994374945 0 -0.5 1.30901699437495 
0 -0.809016994374945 -1.30901699437495 0.5 
1.61803398874989 0 0 0 
0 0.809016994374945 -1.30901699437495 0.5 
0.5 0.809016994374945 0 1.30901699437495 
0 0.5 -0.809016994374945 1.30901699437495 
-0.809016994374945 1.30901699437495 0 -0.5 
0 1.30901699437495 0.5 -0.809016994374945 
-0.5 1.30901699437495 -0.809016994374945 0 
0.5 1.30901699437495 -0.809016994374945 0 
-0.809016994374945 1.30901699437495 0 0.5 
0 1.30901699437495 -0.5 -0.809016994374945 
-1.30901699437495 0 -0.809016994374945 0.5 
0 1.61803398874989 0 0 
0 -0.5 -0.809016994374945 1.30901699437495 
-1.30901699437495 0.809016994374945 -0.5 0 
-1.61803398874989 0 0 0 
-0.809016994374945 -0.5 1.30901699437495 0 
1.30901699437495 -0.5 0 -0.809016994374945 
-0.809016994374945 0 0.5 -1.30901699437495 
-0.5 0.809016994374945 0 -1.30901699437495 
-1.30901699437495 0.5 0 -0.809016994374945 
0 0.809016994374945 -1.30901699437495 -0.5 
0 0 -1.61803398874989 0 
0.5 0 -1.30901699437495 -0.809016994374945 
-0.809016994374945 0.5 -1.30901699437495 0 
-0.809016994374945 -0.809016994374945 -0.809016994374945 -0.809016994374945 
-0.809016994374945 0.809016994374945 -0.809016994374945 -0.809016994374945 
-0.809016994374945 -1.30901699437495 0 -0.5 
-0.809016994374945 -0.5 -1.30901699437495 0 
-0.809016994374945 0 -0.5 -1.30901699437495 
-1.30901699437495 0 -0.809016994374945 -0.5 
-0.5 -0.809016994374945 0 -1.30901699437495 
-0.5 -1.30901699437495 -0.809016994374945 0 
-1.30901699437495 -0.5 0 -0.809016994374945 
-1.30901699437495 -0.809016994374945 -0.5 0 
0 0 0 -1.61803398874989 
0 -1.30901699437495 -0.5 -0.809016994374945 
-0.5 0 -1.30901699437495 -0.809016994374945 
0 -0.809016994374945 -1.30901699437495 -0.5 
0 0.5 -0.809016994374945 -1.30901699437495 
0 -0.5 -0.809016994374945 -1.30901699437495 

# Faces
3 0 1 2
3 0 1 3
3 0 2 3
3 5 6 4
3 4 7 5
3 4 6 7
3 8 10 9
3 8 11 9
3 10 11 8
3 12 13 14
3 13 15 12
3 12 14 15
3 1 2 3
3 16 18 17
3 16 19 17
3 16 18 19
3 13 15 14
3 10 11 9
3 5 6 7
3 17 19 18
3 2 21 20
3 2 22 20
3 2 22 21
3 23 24 16
3 16 23 25
3 16 24 25
3 26 28 27
3 27 14 26
3 28 14 26
3 20 22 21
3 23 25 24
3 9 29 30
3 29 31 9
3 9 31 30
3 5 32 33
3 5 34 32
3 5 33 34
3 28 14 27
3 32 34 33
3 29 30 31
3 30 35 0
3 0 36 30
3 35 36 0
3 37 38 12
3 12 37 22
3 38 22 12
3 39 23 40
3 23 7 39
3 39 40 7
3 23 7 40
3 41 33 42
3 42 11 41
3 41 11 33
3 27 17 43
3 27 44 17
3 27 43 44
3 37 38 22
3 42 33 11
3 17 44 43
3 35 36 30
3 0 46 45
3 45 25 0
3 46 25 0
3 12 38 47
3 12 48 47
3 12 48 38
3 49 50 9
3 9 51 49
3 49 51 50
3 9 50 51
3 5 33 52
3 5 52 53
3 33 53 5
3 54 55 18
3 18 56 54
3 54 55 56
3 55 56 18
3 52 53 33
3 47 48 38
3 45 46 25
3 0 57 3
3 0 58 3
3 0 58 57
3 4 35 59
3 4 56 59
3 4 56 35
3 12 41 60
3 12 41 44
3 12 44 60
3 62 36 61
3 62 51 61
3 61 36 51
3 3 58 57
3 64 52 63
3 64 65 63
3 63 65 52
3 62 51 36
3 41 44 60
3 59 56 35
3 64 65 52
3 3 66 29
3 3 66 48
3 3 29 48
3 9 67 63
3 9 63 10
3 63 67 10
3 5 24 26
3 26 5 60
3 24 60 26
3 62 55 68
3 62 31 68
3 62 55 31
3 10 67 9
3 5 60 24
3 66 29 48
3 69 45 59
3 59 70 69
3 45 70 59
3 45 70 69
3 68 31 55
3 0 71 2
3 0 58 2
3 0 58 71
3 8 46 27
3 27 72 8
3 8 46 72
3 54 73 12
3 54 53 12
3 73 53 12
3 25 61 23
3 23 74 61
3 61 25 74
3 71 58 2
3 75 76 42
3 75 42 77
3 75 76 77
3 25 74 23
3 27 72 46
3 54 53 73
3 76 77 42
3 78 10 0
3 78 6 0
3 0 10 6
3 37 47 12
3 12 37 79
3 12 79 47
3 80 59 81
3 59 72 80
3 80 72 81
3 62 55 77
3 62 77 15
3 55 15 62
3 13 43 65
3 65 74 13
3 13 74 43
3 81 72 59
3 47 79 37
3 55 15 77
3 65 74 43
3 78 6 10
3 58 82 69
3 58 82 79
3 58 69 79
3 59 28 75
3 59 35 75
3 75 35 28
3 26 62 67
3 62 73 26
3 26 73 67
3 23 78 21
3 23 34 21
3 23 78 34
3 67 73 62
3 82 69 79
3 27 83 43
3 83 70 27
3 27 70 43
3 35 28 59
3 21 34 78
3 43 70 83
3 9 67 8
3 8 84 9
3 8 84 67
3 23 76 71
3 71 85 23
3 76 85 71
3 49 68 20
3 20 86 49
3 49 86 68
3 20 68 86
3 23 76 85
3 9 67 84
3 5 87 38
3 38 46 5
3 5 87 46
3 27 83 17
3 27 50 17
3 27 50 83
3 17 83 50
3 38 46 87
3 4 28 59
3 4 59 86
3 28 86 4
3 9 19 1
3 9 88 1
3 1 19 88
3 66 83 80
3 80 89 66
3 83 89 80
3 62 85 47
3 62 47 6
3 62 6 85
3 9 88 19
3 32 52 5
3 5 81 52
3 5 32 81
3 66 89 83
3 28 86 59
3 52 32 81
3 85 6 47
3 24 61 23
3 23 89 61
3 24 89 61
3 59 64 57
3 57 59 87
3 57 64 87
3 39 82 32
3 39 84 82
3 39 84 32
3 24 89 23
3 62 77 68
3 77 40 62
3 68 40 62
3 82 84 32
3 27 88 37
3 27 36 37
3 27 36 88
3 59 64 87
3 37 88 36
3 68 40 77
3 0 50 55
3 55 81 0
3 0 50 81
3 65 8 52
3 52 90 8
3 8 90 65
3 5 91 60
3 91 5 74
3 60 74 91
3 76 92 13
3 76 93 13
3 13 93 92
3 5 74 60
3 66 19 86
3 66 53 19
3 86 53 66
3 19 86 53
3 52 65 90
3 76 93 92
3 55 81 50
3 71 5 68
3 71 5 70
3 71 68 70
3 82 21 75
3 75 82 50
3 75 50 21
3 66 94 83
3 94 66 25
3 94 25 83
3 68 70 5
3 21 50 82
3 88 92 27
3 27 48 88
3 27 92 48
3 54 95 29
3 54 90 29
3 54 90 95
3 66 25 83
3 92 48 88
3 29 90 95
3 0 84 95
3 0 84 78
3 0 78 95
3 27 77 57
3 57 27 53
3 57 53 77
3 41 65 71
3 41 56 71
3 65 56 71
3 58 38 82
3 58 82 93
3 58 38 93
3 91 49 39
3 91 94 39
3 91 49 94
3 39 94 49
3 65 56 41
3 82 93 38
3 77 53 27
3 84 78 95
3 96 73 0
3 25 96 0
3 25 73 0
3 65 64 8
3 8 64 34
3 65 34 8
3 49 35 20
3 49 15 20
3 35 15 49
3 35 15 20
3 82 30 18
3 18 72 82
3 82 72 30
3 37 92 27
3 27 37 7
3 27 7 92
3 92 7 37
3 65 34 64
3 30 72 18
3 73 25 96
3 10 95 0
3 0 95 14
3 0 10 14
3 42 4 76
3 42 31 4
3 76 31 4
3 80 25 66
3 80 44 66
3 80 25 44
3 20 65 45
3 20 7 65
3 45 7 20
3 38 96 5
3 38 51 5
3 5 96 51
3 25 44 66
3 42 31 76
3 38 51 96
3 65 45 7
3 95 14 10
3 8 85 27
3 8 27 96
3 8 85 96
3 38 1 82
3 69 1 82
3 1 69 38
3 24 91 5
3 91 30 5
3 91 24 30
3 5 24 30
3 82 38 69
3 27 85 96
3 18 28 54
3 18 40 54
3 54 40 28
3 42 87 66
3 66 14 42
3 66 87 14
3 87 14 42
3 18 40 28
3 50 33 0
3 33 40 0
3 50 40 0
3 17 61 18
3 61 97 17
3 18 97 61
3 14 91 27
3 91 56 27
3 91 56 14
3 20 76 84
3 20 44 76
3 84 44 20
3 27 56 14
3 95 64 54
3 54 98 64
3 95 98 54
3 95 98 64
3 17 97 18
3 76 44 84
3 50 40 33
3 9 58 88
3 9 97 58
3 88 97 58
3 27 85 63
3 27 63 46
3 63 85 46
3 94 54 21
3 94 36 54
3 94 36 21
3 9 97 88
3 33 67 41
3 67 99 41
3 33 99 41
3 27 85 46
3 54 36 21
3 24 84 59
3 59 48 24
3 59 48 84
3 67 33 99
3 84 48 24
3 0 60 86
3 0 86 36
3 0 60 36
3 76 4 77
3 4 76 99
3 77 99 4
3 13 46 39
3 39 98 13
3 39 98 46
3 46 98 13
3 47 89 9
3 9 47 56
3 9 56 89
3 59 45 17
3 59 17 93
3 45 93 59
3 45 93 17
3 89 56 47
3 76 99 77
3 60 36 86
3 0 43 55
3 0 33 43
3 0 55 33
3 59 2 64
3 2 51 59
3 64 51 2
3 23 3 76
3 3 72 23
3 76 72 3
3 9 19 58
3 58 9 7
3 58 7 19
3 39 49 80
3 80 39 26
3 49 26 80
3 49 26 39
3 23 72 76
3 9 19 7
3 64 51 59
3 55 33 43
3 41 83 12
3 41 30 12
3 12 30 83
3 27 77 2
3 2 32 27
3 2 77 32
3 49 87 9
3 49 43 9
3 49 43 87
3 9 43 87
3 41 30 83
3 77 32 27
3 54 64 29
3 54 6 64
3 54 29 6
3 59 17 69
3 59 73 17
3 69 73 59
3 64 6 29
3 17 69 73
3 0 86 30
3 0 30 92
3 0 92 86
3 1 54 42
3 1 54 74
3 42 74 1
3 2 20 47
3 2 100 20
3 47 100 2
3 71 17 5
3 71 5 15
3 71 15 17
3 91 80 49
3 80 101 91
3 80 49 101
3 49 101 91
3 47 100 20
3 17 15 5
3 42 74 54
3 30 92 86
3 0 43 40
3 0 43 81
3 0 81 40
3 77 4 42
3 42 102 4
3 4 102 77
3 62 91 73
3 91 11 62
3 91 73 11
3 62 11 73
3 41 19 96
3 19 100 41
3 41 96 100
3 82 64 89
3 82 64 15
3 82 15 89
3 77 102 42
3 64 15 89
3 19 100 96
3 43 40 81
3 1 62 83
3 62 34 1
3 83 34 1
3 16 20 29
3 20 81 16
3 16 29 81
3 82 101 32
3 101 82 10
3 101 10 32
3 29 81 20
3 62 83 34
3 13 69 92
3 69 102 13
3 92 102 13
3 5 96 87
3 5 79 87
3 5 96 79
3 82 10 32
3 92 102 69
3 96 79 87
3 60 92 0
3 0 92 35
3 0 60 35
3 19 61 18
3 61 70 18
3 61 70 19
3 39 10 82
3 39 82 53
3 10 53 39
3 62 47 95
3 62 72 47
3 62 95 72
3 82 53 10
3 66 78 42
3 42 51 66
3 78 51 66
3 42 51 78
3 18 70 19
3 47 72 95
3 92 60 35
3 5 88 4
3 4 5 95
3 88 95 4
3 20 57 47
3 20 57 21
3 47 21 57
3 62 91 67
3 91 62 45
3 91 67 45
3 21 47 20
3 67 45 62
3 13 24 65
3 65 50 13
3 24 50 13
3 5 95 88
3 82 18 85
3 82 18 60
3 82 60 85
3 85 60 18
3 24 50 65
3 70 103 61
3 61 70 97
3 61 103 97
3 57 71 58
3 57 71 104
3 57 104 58
3 71 58 104
3 105 68 78
3 105 68 106
3 105 78 106
3 67 63 84
3 63 107 67
3 63 84 107
3 88 95 75
3 75 88 108
3 95 108 75
3 95 108 88
3 68 106 78
3 67 107 84
3 70 103 97
3 76 75 99
3 75 31 76
3 99 31 75
3 55 104 33
3 55 50 104
3 33 50 104
3 67 26 45
3 67 109 26
3 26 45 109
3 76 31 99
3 25 90 68
3 25 110 68
3 68 90 110
3 67 109 45
3 21 46 97
3 46 111 21
3 21 97 111
3 50 55 33
3 97 111 46
3 25 90 110
3 59 51 57
3 59 90 57
3 57 90 51
3 63 66 55
3 63 66 93
3 63 55 93
3 39 99 47
3 39 70 47
3 99 70 39
3 55 93 66
3 51 90 59
3 21 52 78
3 52 21 112
3 52 78 112
3 99 70 47
3 45 88 65
3 88 113 65
3 65 45 113
3 88 45 113
3 78 112 21
3 27 57 32
3 27 31 57
3 32 31 57
3 63 69 66
3 63 40 66
3 69 40 63
3 20 68 114
3 20 35 114
3 114 68 35
3 20 35 68
3 62 95 85
3 85 22 62
3 62 22 95
3 41 21 96
3 21 97 41
3 41 97 96
3 27 31 32
3 69 40 66
3 85 95 22
3 21 97 96
3 14 68 12
3 106 12 68
3 12 14 106
3 69 38 58
3 58 110 38
3 58 110 69
3 26 64 76
3 26 97 64
3 76 97 26
3 9 56 25
3 9 25 22
3 56 22 9
3 36 7 27
3 27 36 48
3 48 7 27
3 64 76 97
3 38 69 110
3 68 106 14
3 56 22 25
3 36 48 7
3 4 102 99
3 4 31 99
3 4 102 31
3 3 57 1
3 1 104 3
3 57 104 1
3 57 3 104
3 24 16 89
3 16 112 24
3 89 112 16
3 32 45 105
3 32 115 105
3 45 115 105
3 96 63 85
3 63 85 116
3 96 116 63
3 45 115 32
3 24 89 112
3 85 96 116
3 31 102 99
3 57 11 103
3 57 11 106
3 103 106 57
3 63 40 93
3 63 40 117
3 63 93 117
3 94 100 36
3 94 115 36
3 100 115 94
3 44 102 84
3 84 113 44
3 102 113 84
3 56 22 89
3 89 56 107
3 22 107 89
3 93 117 40
3 36 115 100
3 56 107 22
3 11 106 103
3 44 113 102
3 3 48 98
3 98 117 3
3 48 117 3
3 36 16 51
3 16 109 36
3 16 109 51
3 26 56 14
3 14 116 26
3 56 116 26
3 45 7 118
3 45 7 113
3 45 113 118
3 11 99 33
3 33 111 11
3 33 99 111
3 14 56 116
3 36 51 109
3 7 118 113
3 11 111 99
3 98 117 48
3 54 24 1
3 54 99 1
3 24 99 1
3 105 68 13
3 14 105 13
3 68 14 105
3 9 114 87
3 9 114 50
3 87 50 114
3 45 20 88
3 20 88 118
3 45 20 118
3 13 68 14
3 9 50 87
3 54 24 99
3 66 32 86
3 32 97 66
3 66 97 86
3 86 97 32
3 45 88 118
3 61 87 36
3 87 109 61
3 36 61 109
3 68 17 71
3 71 108 17
3 71 108 68
3 94 38 77
3 94 118 77
3 94 118 38
3 100 46 41
3 97 41 46
3 100 97 41
3 56 40 54
3 54 103 40
3 56 103 54
3 68 108 17
3 77 118 38
3 109 87 36
3 97 100 46
3 56 103 40
3 61 63 12
3 12 61 75
3 12 75 63
3 61 75 63
3 46 29 39
3 29 106 39
3 46 106 39
3 49 68 35
3 49 113 68
3 49 113 35
3 59 33 94
3 59 72 94
3 94 33 72
3 26 27 78
3 27 56 26
3 56 78 26
3 27 56 78
3 72 33 59
3 35 113 68
3 29 106 46
3 71 56 118
3 71 56 111
3 71 111 118
3 50 100 75
3 50 110 75
3 75 110 100
3 46 101 98
3 106 101 46
3 101 98 106
3 48 74 84
3 74 119 84
3 84 48 119
3 53 97 86
3 86 117 53
3 86 117 97
3 50 110 100
3 46 106 98
3 53 97 117
3 56 111 118
3 48 119 74
3 47 105 48
3 47 105 79
3 48 79 105
3 92 104 86
3 60 104 86
3 92 60 104
3 88 55 101
3 101 112 88
3 101 112 55
3 48 79 47
3 88 112 55
3 67 81 99
3 67 111 81
3 67 111 99
3 83 70 50
3 83 50 116
3 83 70 116
3 86 60 92
3 70 116 50
3 111 81 99
3 58 93 79
3 58 93 110
3 79 110 58
3 46 72 63
3 46 116 63
3 63 116 72
3 60 74 26
3 26 60 108
3 26 74 108
3 78 99 51
3 78 117 51
3 78 117 99
3 56 55 103
3 56 115 55
3 55 115 103
3 46 116 72
3 60 108 74
3 79 110 93
3 103 115 56
3 99 117 51
3 38 105 48
3 38 105 22
3 105 48 22
3 84 95 104
3 84 14 104
3 95 104 14
3 33 85 94
3 94 85 119
3 33 119 94
3 38 22 48
3 68 31 40
3 68 40 109
3 68 31 109
3 50 118 24
3 24 106 50
3 118 106 24
3 33 119 85
3 95 14 84
3 50 118 106
3 40 31 109
3 21 50 4
3 21 110 4
3 110 4 50
3 76 85 3
3 3 112 76
3 3 112 85
3 18 52 114
3 114 18 48
3 52 48 114
3 9 98 60
3 9 60 31
3 9 98 31
3 66 51 14
3 14 99 66
3 66 99 51
3 52 48 18
3 76 112 85
3 50 110 21
3 60 98 31
3 51 99 14
3 68 3 70
3 108 3 68
3 70 108 3
3 22 57 21
3 57 113 21
3 57 22 113
3 99 58 24
3 58 115 24
3 99 115 58
3 35 104 60
3 36 104 60
3 36 104 35
3 94 26 39
3 94 114 39
3 26 114 39
3 26 114 94
3 68 70 108
3 24 99 115
3 21 113 22
3 36 35 60
3 13 67 57
3 57 103 13
3 57 103 67
3 83 105 41
3 60 105 41
3 105 83 60
3 59 85 94
3 59 94 81
3 85 81 94
3 67 103 13
3 41 60 83
3 89 68 82
3 68 90 82
3 82 89 90
3 87 78 66
3 66 99 87
3 78 99 66
3 81 85 59
3 90 89 68
3 99 87 78
3 0 45 96
3 0 89 96
3 0 45 89
3 1 52 62
3 1 62 44
3 1 52 44
3 66 37 3
3 66 98 3
3 98 37 3
3 57 18 13
3 11 13 57
3 11 18 57
3 39 80 91
3 80 91 114
3 39 114 80
3 39 91 114
3 62 52 44
3 13 18 11
3 66 98 37
3 96 45 89
3 62 87 61
3 61 92 62
3 61 92 87
3 66 37 71
3 66 29 71
3 37 29 71
3 28 91 27
3 27 78 91
3 91 78 28
3 65 20 88
3 65 73 20
3 88 73 20
3 87 92 62
3 42 67 41
3 42 81 41
3 41 81 67
3 27 78 28
3 29 37 66
3 67 81 42
3 65 73 88
3 25 61 24
3 24 112 61
3 61 112 25
3 57 67 18
3 57 106 18
3 106 67 57
3 94 65 38
3 38 31 94
3 94 65 31
3 27 44 50
3 27 50 70
3 27 70 44
3 66 35 53
3 97 35 66
3 66 53 97
3 67 106 18
3 38 31 65
3 24 112 25
3 70 44 50
3 53 35 97
3 66 8 69
3 66 8 55
3 69 55 8
3 13 18 2
3 67 2 13
3 67 2 18
3 54 21 80
3 80 92 54
3 21 92 80
3 76 83 20
3 20 76 10
3 20 10 83
3 13 18 67
3 9 47 28
3 9 25 47
3 9 25 28
3 21 92 54
3 55 69 66
3 47 28 25
3 76 10 83
3 20 100 57
3 20 57 22
3 22 100 57
3 41 105 30
3 44 105 41
3 105 44 30
3 64 91 97
3 64 102 91
3 97 102 91
3 20 22 100
3 41 44 30
3 24 37 84
3 37 119 24
3 119 37 84
3 97 102 64
3 87 96 38
3 38 87 108
3 38 108 96
3 87 108 96
3 84 24 119
3 9 1 7
3 1 97 9
3 1 97 7
3 16 20 33
3 20 98 16
3 16 98 33
3 38 80 31
3 118 80 38
3 31 118 80
3 20 33 98
3 97 7 9
3 69 17 45
3 69 119 17
3 17 119 45
3 30 85 18
3 18 110 85
3 18 30 110
3 38 31 118
3 69 45 119
3 30 110 85
3 57 53 31
3 57 116 53
3 57 116 31
3 44 105 60
3 105 111 60
3 105 44 111
3 51 114 50
3 114 50 107
3 114 51 107
3 90 98 95
3 98 115 95
3 95 115 90
3 45 93 70
3 45 119 93
3 45 70 119
3 51 107 50
3 60 111 44
3 70 119 93
3 53 31 116
3 90 115 98
3 98 71 66
3 48 71 66
3 98 48 71
3 45 54 105
3 53 105 54
3 105 53 45
3 91 90 76
3 97 76 91
3 91 97 90
3 54 45 53
3 66 98 48
3 47 85 95
3 85 109 47
3 95 109 47
3 97 90 76
3 38 86 67
3 67 112 38
3 38 86 112
3 67 86 112
3 85 95 109
3 12 32 73
3 115 12 32
3 73 115 12
3 29 37 3
3 3 117 37
3 29 117 3
3 26 19 64
3 26 102 64
3 26 19 102
3 35 11 23
3 23 79 35
3 23 79 11
3 62 6 72
3 62 6 22
3 62 22 72
3 37 29 117
3 64 102 19
3 32 115 73
3 6 72 22
3 11 79 35
3 1 99 74
3 1 74 115
3 99 1 115
3 81 98 16
3 16 81 113
3 98 113 16
3 114 93 6
3 114 6 111
3 114 111 93
3 11 79 86
3 112 11 86
3 112 79 86
3 89 90 15
3 89 15 110
3 90 89 110
3 6 111 93
3 98 113 81
3 110 15 90
3 11 112 79
3 99 115 74
3 2 22 100
3 100 113 2
3 22 113 2
3 7 75 6
3 75 6 108
3 75 7 108
3 26 11 73
3 26 109 73
3 26 109 11
3 43 74 118
3 74 106 43
3 106 43 118
3 72 103 30
3 30 72 110
3 30 110 103
3 6 108 7
3 73 11 109
3 118 74 106
3 72 110 103
3 22 100 113
3 8 34 90
3 8 90 118
3 8 34 118
3 2 71 1
3 2 104 1
3 71 1 104
3 71 2 104
3 92 16 87
3 109 16 87
3 109 92 16
3 83 105 30
3 105 83 111
3 105 30 111
3 28 75 86
3 28 119 75
3 86 119 75
3 28 119 86
3 87 92 109
3 30 111 83
3 90 118 34
3 64 34 63
3 64 118 63
3 34 63 118
3 43 104 33
3 40 104 43
3 33 40 104
3 26 30 24
3 24 108 26
3 108 30 26
3 34 64 118
3 69 102 36
3 69 36 106
3 69 102 106
3 97 35 32
3 32 117 35
3 32 117 97
3 24 108 30
3 40 43 33
3 117 35 97
3 36 106 102
3 4 88 6
3 88 4 108
3 6 108 4
3 77 32 57
3 57 116 77
3 32 116 57
3 52 37 114
3 114 37 103
3 52 103 114
3 93 36 13
3 102 13 36
3 13 102 93
3 41 11 81
3 99 41 81
3 41 99 11
3 52 103 37
3 32 116 77
3 108 88 6
3 99 81 11
3 36 102 93
3 6 84 0
3 84 14 0
3 6 14 0
3 52 64 8
3 8 118 64
3 52 118 8
3 54 36 80
3 80 54 100
3 100 80 36
3 38 23 86
3 23 38 11
3 23 86 11
3 9 77 30
3 9 77 98
3 30 98 9
3 36 100 54
3 52 118 64
3 30 98 77
3 86 11 38
3 84 6 14
3 41 28 71
3 41 118 71
3 71 118 28
3 105 32 54
3 54 73 105
3 32 105 73
3 101 88 23
3 23 40 101
3 101 88 40
3 20 83 84
3 83 102 20
3 20 102 84
3 40 88 23
3 41 118 28
3 82 85 30
3 82 103 85
3 30 82 103
3 54 32 73
3 85 103 30
3 102 83 84
3 54 74 58
3 99 58 54
3 99 74 58
3 75 86 59
3 59 75 56
3 86 56 75
3 48 49 52
3 103 49 52
3 49 103 48
3 54 99 74
3 59 86 56
3 48 103 52
3 76 84 83
3 76 113 83
3 76 113 84
3 55 77 68
3 77 109 68
3 77 55 109
3 68 109 55
3 84 113 83
3 0 1 57
3 0 1 71
3 0 71 57
3 50 4 82
3 4 82 100
3 50 100 4
3 66 40 8
3 66 8 93
3 40 93 8
3 81 61 20
3 20 61 98
3 81 61 98
3 57 71 1
3 47 105 37
3 37 105 38
3 47 38 105
3 20 81 98
3 82 100 50
3 66 40 93
3 38 47 37
3 0 89 46
3 0 89 73
3 46 73 0
3 17 61 19
3 61 17 103
3 61 103 19
3 49 41 6
3 41 93 49
3 93 49 6
3 78 52 23
3 23 52 100
3 23 100 78
3 93 41 6
3 84 37 59
3 59 37 74
3 84 74 59
3 74 37 84
3 17 103 19
3 78 100 52
3 89 73 46
3 54 32 12
3 12 45 54
3 32 45 12
3 5 17 3
3 5 3 68
3 68 3 17
3 80 85 59
3 59 33 80
3 85 33 80
3 23 52 21
3 23 52 14
3 21 14 23
3 76 69 13
3 13 36 76
3 69 36 13
3 5 68 17
3 45 32 54
3 33 59 85
3 21 14 52
3 69 36 76
3 21 4 82
3 4 82 43
3 4 43 21
3 41 3 65
3 41 3 28
3 3 65 28
3 39 29 13
3 13 96 39
3 39 96 29
3 13 96 29
3 41 65 28
3 82 43 21
3 66 32 19
3 66 19 35
3 32 35 66
3 59 37 24
3 59 10 37
3 24 10 59
3 37 24 10
3 35 19 32
3 4 105 61
3 61 63 4
3 105 63 4
3 61 63 105
3 60 24 91
3 24 108 91
3 91 108 60
3 40 39 88
3 88 112 39
3 39 112 40
3 66 94 89
3 94 44 66
3 89 44 94
3 114 95 41
3 93 114 41
3 114 93 95
3 93 95 41
3 66 89 44
3 88 40 112
3 60 24 108
3 20 61 29
3 20 61 33
3 29 33 61
3 54 42 58
3 54 58 24
3 24 42 58
3 49 69 41
3 49 95 41
3 49 95 69
3 20 33 29
3 67 23 38
3 35 38 23
3 23 35 67
3 95 69 41
3 82 64 68
3 82 64 25
3 25 82 68
3 54 42 24
3 68 64 25
3 38 67 35
3 98 61 33
3 61 33 113
3 98 61 113
3 52 44 58
3 58 52 109
3 44 109 58
3 39 84 53
3 39 110 84
3 39 110 53
3 44 109 52
3 93 36 76
3 36 76 106
3 76 93 106
3 38 46 51
3 38 108 46
3 51 108 38
3 84 53 110
3 98 33 113
3 46 108 51
3 36 93 106
3 81 61 29
3 29 113 61
3 81 61 113
3 19 58 88
3 58 107 19
3 88 107 58
3 94 77 65
3 94 79 77
3 65 79 94
3 82 72 60
3 82 60 103
3 82 103 72
3 59 93 73
3 70 73 59
3 59 70 93
3 19 107 88
3 77 79 65
3 81 113 29
3 72 60 103
3 93 73 70
3 12 83 60
3 83 111 12
3 60 111 12
3 21 47 2
3 2 47 113
3 21 113 2
3 26 19 76
3 26 90 19
3 76 90 26
3 5 51 46
3 5 46 79
3 5 79 51
3 59 10 74
3 59 48 10
3 48 59 74
3 90 19 76
3 21 47 113
3 83 111 60
3 51 79 46
3 48 10 74
3 61 51 92
3 61 92 109
3 51 61 109
3 71 72 76
3 76 112 71
3 71 112 72
3 49 95 93
3 95 111 49
3 93 49 111
3 56 47 25
3 25 107 47
3 56 107 47
3 76 72 112
3 74 50 65
3 50 65 106
3 65 106 74
3 111 95 93
3 51 92 109
3 106 74 50
3 56 25 107
3 8 12 4
3 4 8 61
3 61 12 4
3 12 61 8
3 38 80 77
3 65 80 77
3 65 80 38
3 91 19 64
3 76 91 64
3 91 19 76
3 39 17 42
3 39 47 42
3 47 17 39
3 49 18 37
3 52 37 49
3 18 49 52
3 18 37 52
3 42 17 47
3 76 19 64
3 77 65 38
3 23 3 85
3 3 102 23
3 3 85 102
3 87 62 16
3 62 16 36
3 16 87 36
3 41 114 69
3 6 41 114
3 6 69 114
3 85 102 23
3 36 62 87
3 43 24 13
3 24 118 13
3 43 118 13
3 9 89 28
3 9 22 28
3 9 22 89
3 6 69 41
3 89 28 22
3 118 24 43
3 13 68 12
3 13 78 12
3 78 12 68
3 52 62 58
3 83 58 62
3 58 83 52
3 23 39 88
3 23 55 39
3 88 55 39
3 88 55 23
3 83 52 62
3 68 78 13
3 9 29 77
3 9 60 77
3 9 60 29
3 19 21 41
3 41 46 19
3 21 46 41
3 21 46 19
3 77 60 29
3 69 40 8
3 69 117 8
3 40 8 117
3 64 2 87
3 64 119 2
3 2 87 119
3 42 101 17
3 42 22 101
3 101 17 22
3 20 7 73
3 20 73 118
3 7 118 20
3 23 14 100
3 23 14 34
3 23 34 100
3 42 17 22
3 87 119 64
3 69 117 40
3 14 34 100
3 118 73 7
3 35 28 4
3 4 119 28
3 35 119 4
3 1 42 24
3 1 115 42
3 1 115 24
3 114 37 18
3 114 37 34
3 18 34 114
3 44 10 20
3 10 102 20
3 20 102 44
3 15 40 62
3 62 40 31
3 62 15 31
3 18 34 37
3 24 42 115
3 28 119 35
3 44 10 102
3 40 31 15
3 88 97 1
3 1 107 88
3 1 107 97
3 57 87 90
3 57 119 87
3 57 90 119
3 71 102 85
3 85 71 112
3 71 112 102
3 50 104 40
3 50 81 104
3 40 104 81
3 91 101 94
3 91 114 94
3 91 114 101
3 114 101 94
3 88 97 107
3 119 90 87
3 112 102 85
3 50 40 81
3 56 86 4
3 86 4 119
3 4 119 56
3 93 1 38
3 38 1 110
3 93 110 1
3 91 45 11
3 45 109 91
3 91 109 11
3 44 50 17
3 50 17 116
3 17 44 116
3 100 14 52
3 52 14 112
3 52 112 100
3 38 93 110
3 86 56 119
3 45 11 109
3 50 44 116
3 14 112 100
3 72 96 8
3 96 116 8
3 72 8 116
3 1 7 19
3 19 107 1
3 1 7 107
3 92 100 80
3 92 115 80
3 115 80 100
3 37 74 10
3 37 119 10
3 119 37 74
3 11 81 42
3 81 111 42
3 42 111 11
3 19 107 7
3 116 72 96
3 100 115 92
3 74 10 119
3 111 11 81
3 82 93 1
3 79 1 82
3 79 1 93
3 105 78 13
3 13 105 15
3 105 78 15
3 90 19 91
3 102 19 91
3 102 90 91
3 13 78 15
3 82 93 79
3 88 92 37
3 37 88 116
3 37 92 116
3 19 102 90
3 47 89 28
3 47 28 107
3 47 107 89
3 89 28 107
3 92 116 88
3 77 99 75
3 77 102 75
3 75 102 99
3 78 104 84
3 84 6 104
3 78 6 104
3 89 94 83
3 94 117 83
3 94 117 89
3 99 102 77
3 88 118 73
3 113 73 88
3 113 88 118
3 87 79 46
3 87 46 108
3 87 79 108
3 83 89 117
3 6 84 78
3 46 79 108
3 113 73 118
3 46 85 8
3 85 8 116
3 8 116 46
3 1 52 83
3 52 109 1
3 1 109 83
3 17 101 47
3 101 99 17
3 47 101 99
3 13 74 50
3 13 118 50
3 74 118 13
3 98 6 54
3 90 6 54
3 90 98 54
3 47 17 99
3 52 109 83
3 85 116 46
3 118 50 74
3 98 6 90
3 69 1 79
3 69 110 1
3 110 79 1
3 2 31 32
3 32 2 116
3 31 2 116
3 118 3 28
3 28 111 3
3 118 3 111
3 6 104 10
3 14 104 10
3 14 6 104
3 80 101 26
3 80 114 26
3 101 114 80
3 114 101 26
3 69 79 110
3 31 32 116
3 111 28 118
3 10 14 6
3 74 89 61
3 89 61 112
3 74 112 61
3 47 100 57
3 57 47 113
3 57 113 100
3 56 91 78
3 91 116 78
3 91 116 56
3 52 53 81
3 52 81 108
3 52 53 108
3 100 47 113
3 60 77 98
3 60 107 77
3 77 107 98
3 116 78 56
3 89 74 112
3 60 98 107
3 81 53 108
3 4 95 7
3 95 4 108
3 4 108 7
3 64 51 57
3 64 119 57
3 57 51 119
3 39 98 96
3 39 96 106
3 39 106 98
3 64 51 119
3 18 56 40
3 18 115 40
3 18 115 56
3 11 38 35
3 38 112 35
3 112 38 11
3 106 96 98
3 108 7 95
3 35 112 11
3 56 115 40
3 41 3 56
3 118 3 41
3 118 3 56
3 63 84 9
3 9 11 63
3 63 11 84
3 39 99 17
3 17 39 22
3 99 22 39
3 9 84 11
3 56 41 118
3 89 68 64
3 68 110 64
3 89 110 64
3 17 99 22
3 33 32 52
3 52 108 32
3 52 108 33
3 33 108 32
3 68 89 110
3 63 90 52
3 63 52 118
3 90 63 118
3 89 104 45
3 45 104 46
3 89 104 46
3 68 114 86
3 114 113 68
3 114 113 86
3 52 118 90
3 88 36 48
3 36 116 88
3 48 116 88
3 68 113 86
3 85 60 103
3 85 110 60
3 85 103 110
3 46 89 45
3 110 60 103
3 48 116 36
3 61 8 105
3 75 8 61
3 8 75 105
3 61 105 75
3 73 91 67
3 91 109 67
3 73 91 109
3 49 87 50
3 87 107 49
3 49 107 50
3 94 92 54
3 94 100 54
3 94 92 100
3 84 101 82
3 82 101 53
3 53 101 84
3 82 84 53
3 54 100 92
3 67 109 73
3 50 87 107
3 87 2 59
3 59 90 2
3 87 2 90
3 88 75 5
3 6 75 5
3 88 6 75
3 29 101 13
3 46 101 13
3 46 101 29
3 67 23 86
3 23 79 67
3 79 23 86
3 13 29 46
3 6 88 5
3 55 28 54
3 54 103 28
3 54 103 55
3 87 90 59
3 55 103 28
3 86 79 67
3 10 8 67
3 8 107 67
3 8 107 10
3 71 65 28
3 71 111 65
3 71 28 111
3 42 101 47
3 101 70 42
3 70 101 47
3 5 81 53
3 5 81 34
3 5 53 34
3 82 25 15
3 90 25 82
3 82 90 15
3 47 70 42
3 65 111 28
3 10 107 67
3 25 15 90
3 81 34 53
3 4 16 8
3 4 105 8
3 4 105 16
3 8 16 105
3 80 85 81
3 119 80 85
3 80 119 81
3 14 91 28
3 91 28 116
3 14 91 116
3 96 101 13
3 98 13 101
3 101 96 98
3 20 86 114
3 15 114 20
3 114 15 86
3 20 86 15
3 13 98 96
3 14 28 116
3 85 119 81
3 13 11 2
3 103 2 13
3 103 2 11
3 23 16 89
3 16 74 23
3 16 74 89
3 77 80 79
3 118 77 80
3 80 79 118
3 23 89 74
3 11 13 103
3 43 83 17
3 17 116 83
3 17 43 116
3 19 32 86
3 117 19 32
3 86 117 19
3 77 79 118
3 86 117 32
3 43 116 83
3 4 16 12
3 12 4 63
3 4 63 16
3 12 63 16
3 21 80 36
3 80 115 21
3 36 80 115
3 32 10 39
3 39 110 32
3 10 110 39
3 62 45 26
3 26 11 62
3 26 11 45
3 9 43 114
3 9 114 51
3 114 51 43
3 62 11 45
3 9 51 43
3 32 10 110
3 21 115 36
3 8 12 16
3 12 8 75
3 8 75 16
3 75 16 12
3 83 80 25
3 83 80 117
3 80 117 25
3 6 69 49
3 49 69 111
3 6 49 111
3 5 30 26
3 26 74 5
3 74 30 26
3 101 55 23
3 7 101 23
3 101 7 55
3 23 7 55
3 74 30 5
3 111 69 6
3 25 117 83
3 23 72 71
3 23 71 102
3 71 102 72
3 75 43 82
3 75 82 100
3 75 100 43
3 103 37 49
3 37 34 49
3 49 103 34
3 72 102 23
3 100 43 82
3 37 34 103
3 87 78 42
3 87 117 42
3 78 42 117
3 30 77 29
3 29 107 77
3 77 30 107
3 78 87 117
3 30 107 29
3 4 43 100
3 4 43 110
3 110 4 100
3 17 3 15
3 108 3 17
3 3 15 108
3 80 89 44
3 89 117 80
3 44 117 80
3 37 7 36
3 36 116 37
3 37 116 7
3 64 98 6
3 6 115 64
3 98 115 64
3 17 108 15
3 100 110 43
3 89 44 117
3 98 6 115
3 36 116 7
3 16 103 17
3 16 97 17
3 103 97 16
3 86 30 104
3 36 104 30
3 36 104 86
3 84 101 32
3 101 110 32
3 110 101 84
3 97 17 103
3 84 110 32
3 14 87 99
3 14 117 87
3 99 87 117
3 6 22 85
3 85 109 6
3 85 22 109
3 36 86 30
3 6 109 22
3 117 14 99
3 8 84 11
3 84 8 107
3 11 107 8
3 37 71 98
3 71 117 37
3 98 117 71
3 91 30 74
3 30 91 108
3 91 108 74
3 98 117 37
3 17 73 93
3 73 119 17
3 17 119 93
3 15 40 77
3 40 109 77
3 77 15 109
3 108 30 74
3 107 11 84
3 40 15 109
3 93 119 73
3 34 44 1
3 44 1 109
3 1 109 34
3 15 105 14
3 106 14 105
3 105 15 106
3 7 101 40
3 112 40 101
3 101 112 7
3 100 97 96
3 96 100 111
3 97 111 96
3 30 98 31
3 98 30 107
3 30 107 31
3 14 106 15
3 7 112 40
3 31 107 98
3 111 100 97
3 109 34 44
3 22 37 105
3 37 105 79
3 105 79 22
3 96 104 89
3 96 73 104
3 73 104 89
3 87 43 114
3 87 107 114
3 107 43 114
3 37 22 79
3 34 81 32
3 81 108 32
3 32 108 34
3 28 103 40
3 40 115 28
3 115 28 103
3 43 107 87
3 96 89 73
3 103 115 40
3 108 34 81
3 19 16 70
3 19 103 16
3 103 70 16
3 55 43 104
3 81 104 43
3 55 104 81
3 26 28 78
3 28 116 26
3 26 116 78
3 70 103 19
3 78 28 116
3 90 6 29
3 29 115 6
3 90 29 115
3 10 102 83
3 83 10 113
3 113 83 102
3 55 43 81
3 102 113 10
3 115 6 90
3 55 93 8
3 8 117 55
3 117 8 93
3 77 2 53
3 77 2 116
3 53 2 116
3 49 86 15
3 86 113 49
3 15 113 49
3 100 46 19
3 46 19 111
3 100 111 19
3 6 72 47
3 6 109 47
3 47 72 109
3 77 116 53
3 86 113 15
3 55 117 93
3 111 100 46
3 6 109 72
3 63 16 105
3 105 75 16
3 63 16 75
3 63 75 105
3 94 79 31
3 94 31 118
3 94 118 79
3 97 90 26
3 102 90 26
3 26 102 97
3 99 70 101
3 101 22 99
3 101 22 70
3 114 48 103
3 114 34 48
3 103 34 114
3 48 34 103
3 99 22 70
3 97 102 90
3 118 79 31
3 71 70 15
3 71 15 108
3 70 108 71
3 73 105 53
3 115 73 105
3 105 53 115
3 81 94 72
3 94 119 81
3 72 119 94
3 78 34 100
3 78 112 100
3 78 34 112
3 93 102 92
3 93 106 92
3 102 106 92
3 73 53 115
3 81 119 72
3 102 93 106
3 70 15 108
3 100 112 34
3 103 2 67
3 106 2 67
3 106 2 103
3 29 48 71
3 29 71 117
3 48 117 71
3 83 58 34
3 109 83 58
3 58 34 109
3 73 104 46
3 25 104 46
3 73 25 104
3 49 26 94
3 49 101 94
3 49 26 101
3 26 101 94
3 103 67 106
3 48 117 29
3 83 34 109
3 25 73 46
3 53 2 27
3 2 31 27
3 31 53 2
3 95 5 75
3 7 75 5
3 95 7 75
3 18 49 48
3 18 49 34
3 48 34 49
3 7 95 5
3 27 53 31
3 42 67 33
3 67 42 111
3 33 42 111
3 18 48 34
3 92 69 76
3 106 76 69
3 76 92 106
3 69 92 106
3 33 67 111
3 65 63 90
3 63 34 65
3 34 63 90
3 95 104 78
3 95 104 10
3 10 104 78
3 21 94 92
3 94 115 21
3 115 92 94
3 65 34 90
3 35 67 79
3 67 112 35
3 67 79 112
3 29 60 31
3 60 29 107
3 29 31 107
3 21 115 92
3 78 10 95
3 31 107 60
3 35 112 79
3 15 78 12
3 78 12 106
3 12 106 15
3 42 58 74
3 58 42 115
3 58 74 115
3 51 43 49
3 49 43 107
3 51 49 107
3 42 115 74
3 53 35 19
3 117 19 35
3 53 117 19
3 65 7 73
3 113 73 65
3 65 113 7
3 51 43 107
3 78 106 15
3 53 35 117
3 7 113 73
3 15 3 5
3 70 5 3
3 3 70 15
3 92 62 16
3 51 62 16
3 51 92 16
3 31 80 65
3 65 79 80
3 31 79 80
3 62 92 51
3 5 15 70
3 18 28 55
3 18 28 115
3 18 115 55
3 96 19 21
3 111 19 21
3 19 111 96
3 65 79 31
3 55 28 115
3 21 111 96
3 12 30 44
3 30 111 12
3 44 12 111
3 18 11 2
3 18 2 106
3 106 2 11
3 72 33 80
3 33 119 80
3 80 72 119
3 42 51 14
3 42 117 14
3 51 42 117
3 64 15 25
3 110 64 25
3 15 110 64
3 11 18 106
3 44 111 30
3 72 119 33
3 51 117 14
3 110 25 15
3 44 58 62
3 34 58 62
3 58 34 44
3 96 63 27
3 72 63 27
3 96 72 63
3 39 70 42
3 42 22 39
3 39 70 22
3 34 44 62
3 27 72 96
3 42 70 22
3 95 64 29
3 64 29 115
3 64 115 95
3 43 24 65
3 24 65 106
3 43 106 65
3 95 29 115
3 106 43 24
3 3 72 102
3 72 112 3
3 3 112 102
3 10 63 11
3 63 10 107
3 63 11 107
3 15 114 35
3 35 113 114
3 114 15 113
3 43 44 70
3 44 116 43
3 70 116 43
3 51 79 96
3 51 108 96
3 79 108 96
3 11 107 10
3 35 113 15
3 108 79 51
3 112 102 72
3 70 44 116
3 58 7 97
3 58 7 107
3 97 107 58
3 35 56 75
3 35 119 75
3 75 119 56
3 94 44 25
3 25 117 94
3 94 117 44
3 95 22 72
3 95 109 72
3 95 109 22
3 33 34 53
3 53 33 108
3 33 34 108
3 56 119 35
3 44 117 25
3 108 34 53
3 7 107 97
3 72 109 22
3 16 70 18
3 18 97 16
3 70 16 97
3 96 104 45
3 96 104 25
3 25 104 45
3 114 69 95
3 114 69 111
3 111 95 114
3 18 70 97
3 95 111 69
3 24 10 48
3 119 10 24
3 48 24 119
3 34 14 21
3 112 14 21
3 21 112 34
3 45 96 25
3 48 10 119
3 14 112 34
3 53 45 12
3 115 45 12
3 12 53 115
3 65 3 56
3 65 111 3
3 111 56 3
3 39 55 7
3 112 39 55
3 39 112 7
3 18 60 72
3 60 110 18
3 18 110 72
3 44 10 76
3 76 10 113
3 44 76 113
3 56 65 111
3 112 7 55
3 45 53 115
3 110 60 72
3 113 10 44
3 42 102 75
3 42 31 75
3 75 102 31
3 30 104 92
3 35 104 30
3 35 104 92
3 96 101 29
3 106 101 29
3 106 101 96
3 31 102 42
3 69 70 73
3 69 119 73
3 69 70 119
3 25 28 22
3 25 28 107
3 22 28 107
3 29 96 106
3 30 92 35
3 119 73 70
3 22 25 107
3 51 90 2
3 2 119 51
3 2 90 119
3 25 74 16
3 16 112 25
3 16 74 112
3 10 101 53
3 101 110 10
3 53 110 101
3 55 31 15
3 15 109 55
3 55 109 31
3 92 48 7
3 92 116 7
3 92 48 116
3 53 10 110
3 25 74 112
3 48 116 7
3 109 15 31
3 90 51 119
3 12 48 22
3 12 48 79
3 12 79 22
3 3 2 58
3 3 104 2
3 58 2 104
3 58 3 104
3 29 33 16
3 16 29 113
3 16 113 33
3 63 69 55
3 63 69 117
3 55 117 63
3 75 43 21
3 75 110 21
3 110 43 75
3 69 55 117
3 33 29 113
3 21 110 43
3 48 22 79

# Cells
20 0 1 2 3 4 5 6 7 8 9 10 11 12 13 14 15 16 17 18 19
20 20 21 22 23 24 25 26 27 28 29 30 31 32 33 34 35 36 37 38 39
20 40 41 42 43 44 45 46 47 48 49 50 51 52 53 54 55 56 57 58 59
20 60 61 62 63 64 65 66 67 68 69 70 71 72 73 74 75 76 77 78 79
20 80 81 82 83 84 85 86 87 88 89 90 91 92 93 94 95 96 97 98 99
20 100 101 102 103 104 105 106 107 108 109 110 111 112 113 114 115 116 117 118 119
20 120 121 122 123 124 125 126 127 128 129 130 131 132 133 134 135 136 137 138 139
20 140 141 142 143 144 145 146 147 148 149 150 151 152 153 154 155 156 157 158 159
20 160 161 162 163 164 165 166 167 168 169 170 171 172 173 174 175 176 177 178 179
20 180 181 182 183 184 185 186 187 188 189 190 191 192 193 194 195 196 197 198 199
20 200 201 202 203 204 205 206 207 208 209 210 211 212 213 214 215 216 217 218 219
20 220 221 222 223 224 225 226 227 228 229 230 231 232 233 234 235 236 237 238 239
20 240 241 242 243 244 245 246 247 248 249 250 251 252 253 254 255 256 257 258 259
20 260 261 262 263 264 265 266 267 268 269 270 271 272 273 274 275 276 277 278 279
20 280 281 282 283 284 285 286 287 288 289 290 291 292 293 294 295 296 297 298 299
20 300 301 302 303 304 305 306 307 308 309 310 311 312 313 314 315 316 317 318 319
20 320 321 322 323 324 325 326 327 328 329 330 331 332 333 334 335 336 337 338 339
20 340 341 342 343 344 345 346 347 348 349 350 351 352 353 354 355 356 357 358 359
20 360 361 362 363 364 365 366 367 368 369 370 371 372 373 374 375 376 377 378 379
20 380 381 382 383 384 385 386 387 388 389 390 391 392 393 394 395 396 397 398 399
20 400 401 402 403 404 405 406 407 408 409 410 411 412 413 414 415 416 417 418 419
20 420 421 422 423 424 425 426 427 428 429 430 431 432 433 434 435 436 437 438 439
20 440 441 442 443 444 445 446 447 448 449 450 451 452 453 454 455 456 457 458 459
20 460 461 462 463 464 465 466 467 468 469 470 471 472 473 474 475 476 477 478 479
20 480 481 482 483 484 485 486 487 488 489 490 491 492 493 494 495 496 497 498 499
20 500 501 502 503 504 505 506 507 508 509 510 511 512 513 514 515 516 517 518 519
20 520 521 522 523 524 525 526 527 528 529 530 531 532 533 534 535 536 537 538 539
20 540 541 542 543 544 545 546 547 548 549 550 551 552 553 554 555 556 557 558 559
20 560 561 562 563 564 565 566 567 568 569 570 571 572 573 574 575 576 577 578 579
20 580 581 582 583 584 585 586 587 588 589 590 591 592 593 594 595 596 597 598 599
20 600 601 602 603 604 605 606 607 608 609 610 611 612 613 614 615 616 617 618 619
20 620 621 622 623 624 625 626 627 628 629 630 631 632 633 634 635 636 637 638 639
20 640 641 642 643 644 645 646 647 648 649 650 651 652 653 654 655 656 657 658 659
20 660 661 662 663 664 665 666 667 668 669 670 671 672 673 674 675 676 677 678 679
20 680 681 682 683 684 685 686 687 688 689 690 691 692 693 694 695 696 697 698 699
20 700 701 702 703 704 705 706 707 708 709 710 711 712 713 714 715 716 717 718 719
20 720 721 722 723 724 725 726 727 728 729 730 731 732 733 734 735 736 737 738 739
20 740 741 742 743 744 745 746 747 748 749 750 751 752 753 754 755 756 757 758 759
20 760 761 762 763 764 765 766 767 768 769 770 771 772 773 774 775 776 777 778 779
20 780 781 782 783 784 785 786 787 788 789 790 791 792 793 794 795 796 797 798 799
20 800 801 802 803 804 805 806 807 808 809 810 811 812 813 814 815 816 817 818 819
20 820 821 822 823 824 825 826 827 828 829 830 831 832 833 834 835 836 837 838 839
20 840 841 842 843 844 845 846 847 848 849 850 851 852 853 854 855 856 857 858 859
20 860 861 862 863 864 865 866 867 868 869 870 871 872 873 874 875 876 877 878 879
20 880 881 882 883 884 885 886 887 888 889 890 891 892 893 894 895 896 897 898 899
20 900 901 902 903 904 905 906 907 908 909 910 911 912 913 914 915 916 917 918 919
20 920 921 922 923 924 925 926 927 928 929 930 931 932 933 934 935 936 937 938 939
20 940 941 942 943 944 945 946 947 948 949 950 951 952 953 954 955 956 957 958 959
20 960 961 962 963 964 965 966 967 968 969 970 971 972 973 974 975 976 977 978 979
20 980 981 982 983 984 985 986 987 988 989 990 991 992 993 994 995 996 997 998 999
20 1000 1001 1002 1003 1004 1005 1006 1007 1008 1009 1010 1011 1012 1013 1014 1015 1016 1017 1018 1019
20 1020 1021 1022 1023 1024 1025 1026 1027 1028 1029 1030 1031 1032 1033 1034 1035 1036 1037 1038 1039
20 1040 1041 1042 1043 1044 1045 1046 1047 1048 1049 1050 1051 1052 1053 1054 1055 1056 1057 1058 1059
20 1060 1061 1062 1063 1064 1065 1066 1067 1068 1069 1070 1071 1072 1073 1074 1075 1076 1077 1078 1079
20 1080 1081 1082 1083 1084 1085 1086 1087 1088 1089 1090 1091 1092 1093 1094 1095 1096 1097 1098 1099
20 1100 1101 1102 1103 1104 1105 1106 1107 1108 1109 1110 1111 1112 1113 1114 1115 1116 1117 1118 1119
20 1120 1121 1122 1123 1124 1125 1126 1127 1128 1129 1130 1131 1132 1133 1134 1135 1136 1137 1138 1139
20 1140 1141 1142 1143 1144 1145 1146 1147 1148 1149 1150 1151 1152 1153 1154 1155 1156 1157 1158 1159
20 1160 1161 1162 1163 1164 1165 1166 1167 1168 1169 1170 1171 1172 1173 1174 1175 1176 1177 1178 1179
20 1180 1181 1182 1183 1184 1185 1186 1187 1188 1189 1190 1191 1192 1193 1194 1195 1196 1197 1198 1199
20 1200 1201 1202 1203 1204 1205 1206 1207 1208 1209 1210 1211 1212 1213 1214 1215 1216 1217 1218 1219
20 1220 1221 1222 1223 1224 1225 1226 1227 1228 1229 1230 1231 1232 1233 1234 1235 1236 1237 1238 1239
20 1240 1241 1242 1243 1244 1245 1246 1247 1248 1249 1250 1251 1252 1253 1254 1255 1256 1257 1258 1259
20 1260 1261 1262 1263 1264 1265 1266 1267 1268 1269 1270 1271 1272 1273 1274 1275 1276 1277 1278 1279
20 1280 1281 1282 1283 1284 1285 1286 1287 1288 1289 1290 1291 1292 1293 1294 1295 1296 1297 1298 1299
20 1300 1301 1302 1303 1304 1305 1306 1307 1308 1309 1310 1311 1312 1313 1314 1315 1316 1317 1318 1319
20 1320 1321 1322 1323 1324 1325 1326 1327 1328 1329 1330 1331 1332 1333 1334 1335 1336 1337 1338 1339
20 1340 1341 1342 1343 1344 1345 1346 1347 1348 1349 1350 1351 1352 1353 1354 1355 1356 1357 1358 1359
20 1360 1361 1362 1363 1364 1365 1366 1367 1368 1369 1370 1371 1372 1373 1374 1375 1376 1377 1378 1379
20 1380 1381 1382 1383 1384 1385 1386 1387 1388 1389 1390 1391 1392 1393 1394 1395 1396 1397 1398 1399
20 1400 1401 1402 1403 1404 1405 1406 1407 1408 1409 1410 1411 1412 1413 1414 1415 1416 1417 1418 1419
20 1420 1421 1422 1423 1424 1425 1426 1427 1428 1429 1430 1431 1432 1433 1434 1435 1436 1437 1438 1439
20 1440 1441 1442 1443 1444 1445 1446 1447 1448 1449 1450 1451 1452 1453 1454 1455 1456 1457 1458 1459
20 1460 1461 1462 1463 1464 1465 1466 1467 1468 1469 1470 1471 1472 1473 1474 1475 1476 1477 1478 1479
20 1480 1481 1482 1483 1484 1485 1486 1487 1488 1489 1490 1491 1492 1493 1494 1495 1496 1497 1498 1499
20 1500 1501 1502 1503 1504 1505 1506 1507 1508 1509 1510 1511 1512 1513 1514 1515 1516 1517 1518 1519
20 1520 1521 1522 1523 1524 1525 1526 1527 1528 1529 1530 1531 1532 1533 1534 1535 1536 1537 1538 1539
20 1540 1541 1542 1543 1544 1545 1546 1547 1548 1549 1550 1551 1552 1553 1554 1555 1556 1557 1558 1559
20 1560 1561 1562 1563 1564 1565 1566 1567 1568 1569 1570 1571 1572 1573 1574 1575 1576 1577 1578 1579
20 1580 1581 1582 1583 1584 1585 1586 1587 1588 1589 1590 1591 1592 1593 1594 1595 1596 1597 1598 1599
20 1600 1601 1602 1603 1604 1605 1606 1607 1608 1609 1610 1611 1612 1613 1614 1615 1616 1617 1618 1619
20 1620 1621 1622 1623 1624 1625 1626 1627 1628 1629 1630 1631 1632 1633 1634 1635 1636 1637 1638 1639
20 1640 1641 1642 1643 1644 1645 1646 1647 1648 1649 1650 1651 1652 1653 1654 1655 1656 1657 1658 1659
20 1660 1661 1662 1663 1664 1665 1666 1667 1668 1669 1670 1671 1672 1673 1674 1675 1676 1677 1678 1679
20 1680 1681 1682 1683 1684 1685 1686 1687 1688 1689 1690 1691 1692 1693 1694 1695 1696 1697 1698 1699
20 1700 1701 1702 1703 1704 1705 1706 1707 1708 1709 1710 1711 1712 1713 1714 1715 1716 1717 1718 1719
20 1720 1721 1722 1723 1724 1725 1726 1727 1728 1729 1730 1731 1732 1733 1734 1735 1736 1737 1738 1739
20 1740 1741 1742 1743 1744 1745 1746 1747 1748 1749 1750 1751 1752 1753 1754 1755 1756 1757 1758 1759
20 1760 1761 1762 1763 1764 1765 1766 1767 1768 1769 1770 1771 1772 1773 1774 1775 1776 1777 1778 1779
20 1780 1781 1782 1783 1784 1785 1786 1787 1788 1789 1790 1791 1792 1793 1794 1795 1796 1797 1798 1799
20 1800 1801 1802 1803 1804 1805 1806 1807 1808 1809 1810 1811 1812 1813 1814 1815 1816 1817 1818 1819
20 1820 1821 1822 1823 1824 1825 1826 1827 1828 1829 1830 1831 1832 1833 1834 1835 1836 1837 1838 1839
20 1840 1841 1842 1843 1844 1845 1846 1847 1848 1849 1850 1851 1852 1853 1854 1855 1856 1857 1858 1859
20 1860 1861 1862 1863 1864 1865 1866 1867 1868 1869 1870 1871 1872 1873 1874 1875 1876 1877 1878 1879
20 1880 1881 1882 1883 1884 1885 1886 1887 1888 1889 1890 1891 1892 1893 1894 1895 1896 1897 1898 1899
20 1900 1901 1902 1903 1904 1905 1906 1907 1908 1909 1910 1911 1912 1913 1914 1915 1916 1917 1918 1919
20 1920 1921 1922 1923 1924 1925 1926 1927 1928 1929 1930 1931 1932 1933 1934 1935 1936 1937 1938 1939
20 1940 1941 1942 1943 1944 1945 1946 1947 1948 1949 1950 1951 1952 1953 1954 1955 1956 1957 1958 1959
20 1960 1961 1962 1963 1964 1965 1966 1967 1968 1969 1970 1971 1972 1973 1974 1975 1976 1977 1978 1979
20 1980 1981 1982 1983 1984 1985 1986 1987 1988 1989 1990 1991 1992 1993 1994 1995 1996 1997 1998 1999
20 2000 2001 2002 2003 2004 2005 2006 2007 2008 2009 2010 2011 2012 2013 2014 2015 2016 2017 2018 2019
20 2020 2021 2022 2023 2024 2025 2026 2027 2028 2029 2030 2031 2032 2033 2034 2035 2036 2037 2038 2039
20 2040 2041 2042 2043 2044 2045 2046 2047 2048 2049 2050 2051 2052 2053 2054 2055 2056 2057 2058 2059
20 2060 2061 2062 2063 2064 2065 2066 2067 2068 2069 2070 2071 2072 2073 2074 2075 2076 2077 2078 2079
20 2080 2081 2082 2083 2084 2085 2086 2087 2088 2089 2090 2091 2092 2093 2094 2095 2096 2097 2098 2099
20 2100 2101 2102 2103 2104 2105 2106 2107 2108 2109 2110 2111 2112 2113 2114 2115 2116 2117 2118 2119
20 2120 2121 2122 2123 2124 2125 2126 2127 2128 2129 2130 2131 2132 2133 2134 2135 2136 2137 2138 2139
20 2140 2141 2142 2143 2144 2145 2146 2147 2148 2149 2150 2151 2152 2153 2154 2155 2156 2157 2158 2159
20 2160 2161 2162 2163 2164 2165 2166 2167 2168 2169 2170 2171 2172 2173 2174 2175 2176 2177 2178 2179
20 2180 2181 2182 2183 2184 2185 2186 2187 2188 2189 2190 2191 2192 2193 2194 2195 2196 2197 2198 2199
20 2200 2201 2202 2203 2204 2205 2206 2207 2208 2209 2210 2211 2212 2213 2214 2215 2216 2217 2218 2219
20 2220 2221 2222 2223 2224 2225 2226 2227 2228 2229 2230 2231 2232 2233 2234 2235 2236 2237 2238 2239
20 2240 2241 2242 2243 2244 2245 2246 2247 2248 2249 2250 2251 2252 2253 2254 2255 2256 2257 2258 2259
20 2260 2261 2262 2263 2264 2265 2266 2267 2268 2269 2270 2271 2272 2273 2274 2275 2276 2277 2278 2279
20 2280 2281 2282 2283 2284 2285 2286 2287 2288 2289 2290 2291 2292 2293 2294 2295 2296 2297 2298 2299
20 2300 2301 2302 2303 2304 2305 2306 2307 2308 2309 2310 2311 2312 2313 2314 2315 2316 2317 2318 2319
20 2320 2321 2322 2323 2324 2325 2326 2327 2328 2329 2330 2331 2332 2333 2334 2335 2336 2337 2338 2339
20 2340 2341 2342 2343 2344 2345 2346 2347 2348 2349 2350 2351 2352 2353 2354 2355 2356 2357 2358 2359
20 2360 2361 2362 2363 2364 2365 2366 2367 2368 2369 2370 2371 2372 2373 2374 2375 2376 2377 2378 2379
20 2380 2381 2382 2383 2384 2385 2386 2387 2388 2389 2390 2391 2392 2393 2394 2395 2396 2397 2398 2399
20 142 203 322 437 477 937 983 1020 1202 1303 1460 1603 1699 1840 1860 1880 1900 1943 2200 2223
20 106 170 349 444 503 636 650 995 1023 1166 1311 1369 1495 1533 1683 1910 2141 2314 2353 2387
20 87 235 314 361 421 441 480 652 1010 1089 1177 1210 1371 1470 1535 1733 1747 1949 2220 2247
20 127 193 240 333 360 411 422 597 649 875 994 1069 1246 1301 1393 1429 1449 1475 2146 2320
20 42 223 296 402 438 522 600 760 899 936 1323 1341 1383 1462 1503 1723 1740 1881 2240 2323
20 32 166 269 396 550 586 603 623 870 880 997 1304 1337 1433 1514 1890 2173 2201 2311 2390
20 62 183 298 302 436 443 478 761 1240 1282 1363 1443 1463 1781 1901 1920 2063 2139 2140 2183
20 10 210 241 420 481 530 1092 1294 1336 1416 1432 1465 1501 1609 1629 1866 2057 2072 2180 2207
20 26 116 263 457 510 773 956 1090 1331 1372 1413 1504 1810 1923 2046 2126 2170 2241 2350 2393
20 66 123 260 340 369 393 446 469 733 743 989 1075 1209 1229 1252 1315 1370 1660 1787 1809
20 3 146 253 410 500 540 735 917 923 993 1180 1306 1332 1494 1510 1635 1663 1813 1844 1874
20 46 89 283 395 451 493 620 740 911 940 1011 1183 1232 1293 1335 1347 1374 1490 1506 1751
20 71 153 214 400 462 520 552 609 817 981 1066 1267 1435 1453 1469 1626 1669 1709 1829 2060
20 114 175 197 386 554 573 590 814 912 944 970 996 1061 1376 1790 1803 1833 2123 2143 2166
20 82 122 227 367 527 563 746 776 947 966 1262 1287 1356 1367 1386 1406 1446 1479 1706 1796
20 40 124 330 341 461 494 521 950 1375 1473 1529 1555 1600 1832 1927 2147 2193 2232 2250 2357
20 4 61 301 356 370 534 541 872 920 976 990 1026 1466 1549 1720 2149 2206 2229 2317 2332
20 37 192 310 332 366 463 514 555 637 720 946 980 1015 1034 1234 1266 1377 1520 1543 1847
20 54 74 196 280 321 353 655 752 857 969 1006 1029 1067 1201 1270 1361 1380 1468 1589 1730
20 103 191 236 272 570 594 634 653 734 750 770 846 886 906 1241 1317 1364 1517 1743 1770
20 60 84 201 250 606 869 922 1189 1213 1250 1280 1313 1390 1472 1513 1580 1675 1713 1746 1777
20 2 47 67 81 121 147 447 646 777 1086 1307 1426 1478 1507 1897 1916 2186 2226 2326 2383
20 31 53 126 174 195 237 423 1080 1212 1237 1286 1300 1366 1497 1512 1523 1800 1871 1907 1935
20 0 120 187 247 307 347 987 1143 1207 1261 1477 1526 1606 1666 1797 1826 1856 1917 1986 2066
20 51 150 231 300 921 954 1007 1096 1192 1264 1281 1321 1467 1552 1612 1627 1930 1940 1993 2037
20 35 173 215 344 952 991 1147 1230 1329 1483 1550 1621 1680 1806 1830 1850 2030 2054 2203 2346
20 90 140 254 282 311 320 556 607 941 972 1333 1409 1440 1471 1835 2177 2190 2209 2246 2329
20 113 209 246 270 329 346 529 615 630 729 860 900 929 949 963 992 1071 1263 1320 1344
20 262 299 382 682 745 763 843 896 902 965 1343 1405 1576 1643 1783 2083 2102 2136 2163 2282
20 79 119 265 398 648 714 784 813 852 877 1074 1258 1428 1764 2087 2130 2159 2305 2371 2394
20 95 117 257 415 535 545 810 829 874 884 916 1052 1348 1414 1436 1508 1704 1760 2160 2327
20 29 110 232 351 383 544 673 736 850 883 973 1001 1173 1334 1353 1373 1486 1553 2243 2306
20 27 45 65 372 381 430 591 706 774 849 1030 1171 1319 1378 1391 1752 2156 2233 2280 2380
20 622 722 865 897 939 1042 1102 1185 1342 1482 1545 1578 1697 1763 1842 1882 2023 2080 2262 2303
20 572 759 838 885 1002 1139 1179 1199 1352 1399 1648 1705 1739 1745 1957 1997 2038 2117 2265 2288
20 588 659 798 839 879 1025 1105 1128 1397 1597 1688 1742 1779 1892 1959 1979 2238 2325 2377 2389
20 189 204 357 389 553 626 670 853 873 915 1021 1063 1223 1316 1492 1560 1670 1766 1853 1971
20 199 239 287 364 387 562 686 780 851 1016 1215 1221 1256 1284 1394 1654 1750 1791 1969 1994
20 98 137 164 295 384 435 577 641 823 892 1244 1362 1381 1401 1502 2132 2181 2244 2283 2397
20 598 719 758 858 1062 1137 1155 1245 1396 1458 1596 1678 1795 1968 1985 2018 2078 2125 2285 2368
20 259 278 584 614 905 1044 1078 1111 1151 1437 1570 1639 1668 1772 1819 1828 2045 2090 2172 2374
20 605 685 708 775 888 1119 1138 1242 1398 1418 1438 1658 1716 1778 2048 2077 2185 2277 2338 2392
20 379 399 568 585 638 657 725 748 791 967 1019 1037 1079 1165 1569 1976 2004 2085 2291 2313
20 69 101 325 404 558 589 612 661 700 727 927 1035 1046 1070 1318 1593 1775 1894 2315 2330
20 92 108 388 565 608 628 666 687 778 827 1167 1359 1748 1767 1899 2097 2167 2248 2267 2386
20 216 224 266 391 557 567 601 723 811 955 1193 1235 1350 1410 1511 1563 1623 1646 1774 1817
20 1 80 207 327 407 487 547 663 866 1186 1260 1327 1357 1476 1546 1586 1726 1857 1896 1946
20 172 234 271 286 313 355 486 509 533 546 914 1220 1269 1330 1360 1400 1631 1784 1823 1932
20 267 284 335 365 524 559 561 621 854 1040 1076 1351 1379 1454 1734 2150 2171 2256 2286 2309
20 6 20 73 112 180 206 249 277 326 352 466 511 549 1312 1423 1814 1820 1904 2155 2211
20 56 225 348 371 492 635 689 751 841 1176 1231 1274 1345 1536 1551 1564 1724 1987 2009 2020
20 13 33 331 345 377 656 709 731 856 871 1214 1308 1531 1584 1681 1845 1961 2012 2227 2301
20 602 672 818 878 978 1065 1108 1355 1456 1565 1598 1718 1725 2017 2105 2178 2279 2308 2337 2379
20 78 185 255 276 375 548 593 737 792 800 840 876 974 1049 1275 1444 1567 1587 1674 1785
20 44 144 167 427 458 489 1126 1174 1339 1481 1875 1891 1929 1953 2029 2052 2191 2253 2260 2382
20 669 718 819 837 1059 1198 1585 1619 1622 1679 1682 1717 1768 1855 1865 1958 2059 2076 2268 2365
20 698 717 785 828 1098 1168 1539 1659 1862 1912 1925 1956 1978 1996 2079 2122 2199 2225 2299 2395
20 479 502 782 803 1222 1525 1577 1665 1698 1782 1802 1825 1843 1902 1963 2002 2081 2138 2343 2362
20 38 59 625 647 684 855 891 1014 1087 1131 1499 1537 1758 1964 2032 2089 2259 2294 2344 2391
20 218 238 405 485 660 680 901 930 1106 1292 1354 1487 1632 1649 1710 1756 1771 1870 1950 2031
20 7 41 181 374 401 453 460 756 1027 1290 1310 1464 1532 1592 1672 1749 1867 1952 1977 1980
20 184 233 354 450 506 730 753 903 951 1003 1150 1489 1530 1566 1650 1793 1815 1921 1966 2033
20 75 135 188 397 418 580 754 768 789 832 1295 1384 1434 1505 1640 1676 1773 1816 2067 2127
20 242 297 343 362 476 482 543 938 943 1000 1060 1340 1461 1579 1583 1620 1703 1780 1841 1983
20 130 141 221 281 414 456 491 749 1195 1200 1247 1412 1474 1516 1657 1700 1869 1926 1990 2069
20 9 34 70 115 190 213 394 413 426 455 640 732 863 986 1031 1206 1480 1500 1755 1884
20 83 100 152 177 200 226 490 517 526 551 633 926 957 1083 1491 1515 1540 1887 2214 2255
20 97 222 293 542 576 604 624 677 683 893 904 935 961 1004 1043 1181 1278 1573 1701 1721
20 30 50 129 160 186 220 274 289 306 350 373 390 452 629 643 767 953 960 2151 2252
20 77 91 291 378 408 644 690 716 742 766 796 821 1254 1442 1595 1711 1728 1757 2293 2334
20 155 161 290 525 560 616 771 820 907 959 1285 1519 1630 1651 1714 1936 2049 2106 2174 2194
20 64 107 145 252 424 595 610 809 826 999 1253 1518 1801 1911 2055 2070 2215 2333 2360 2381
20 68 131 258 288 538 781 962 1055 1073 1392 1702 1789 1824 2074 2113 2157 2188 2290 2335 2376
20 19 43 63 99 139 143 243 292 303 323 363 403 432 472 483 523 932 1203 1279 1283
20 23 211 229 449 512 631 667 726 1093 1170 1190 1233 1314 1324 1686 1741 1863 1893 1974 2026
20 86 109 149 169 212 230 380 406 429 440 611 764 910 1255 1289 1309 1326 1403 1420 1812
20 21 49 304 358 459 467 1009 1032 1120 1142 1169 1204 1227 1914 1933 1972 1991 2006 2230 2351
20 309 324 359 484 501 627 662 924 1012 1338 1610 1731 1854 2000 2034 2212 2249 2266 2312 2349
20 564 665 728 807 847 908 1008 1047 1068 1145 1228 1272 1358 1628 1799 1859 2007 2027 2098 2107
20 368 416 715 795 862 925 1033 1053 1077 1110 1218 1265 1389 1664 1708 1735 1849 1942 1992 2001
20 8 148 316 465 498 1101 1544 1633 1822 1846 1951 1982 2010 2071 2116 2189 2216 2228 2275 2373
20 156 205 251 495 513 801 913 948 1112 1191 1273 1415 1561 1604 1707 1834 1848 2021 2050 2112
20 574 691 747 831 919 1124 1197 1239 1259 1299 1407 1765 1805 1877 1938 1973 2025 2056 2086 2129
20 198 219 244 409 464 721 786 815 1072 1100 1141 1205 1249 1590 1769 1807 1851 1872 1975 2073
20 12 28 508 664 707 1028 1107 1144 1488 1858 1868 1898 1918 1967 2047 2099 2208 2307 2367 2384
20 248 285 417 613 693 836 1041 1116 1184 1271 1298 1346 1382 1402 1451 1594 1637 1988 2075 2110
20 48 85 337 376 681 931 964 1017 1050 1349 1395 1542 1582 1954 2016 2235 2254 2273 2295 2328
20 52 93 228 392 412 651 692 712 755 881 1161 1194 1216 1305 1387 1496 1761 1888 1944 1970
20 385 419 592 618 674 711 739 804 824 868 890 918 1114 1188 1251 1652 1677 1759 1965 2093
20 138 182 264 294 475 578 741 783 942 1064 1157 1224 1277 1441 1572 1821 1924 1981 2103 2133
20 163 194 217 275 454 515 806 909 984 1153 1226 1243 1430 1509 1653 1673 1861 1913 2051 2120
20 245 261 305 470 507 532 812 958 998 1140 1450 1613 1636 1794 2100 2152 2169 2210 2354 2366
20 16 202 342 473 504 678 724 933 1024 1103 1156 1276 1541 1574 1581 1601 1624 1661 1694 2003
20 14 154 208 445 1091 1109 1129 1196 1211 1297 1493 1656 1671 1684 1811 1905 1947 1960 2041 2064
20 17 96 104 433 676 703 861 894 934 1081 1302 1322 1484 1693 1744 1941 2204 2263 2321 2398
20 18 24 136 434 442 474 982 1123 1158 1421 1521 1692 1804 1864 2061 2134 2144 2221 2363 2396
20 134 171 312 448 496 945 1095 1132 1236 1291 1411 1534 1641 1788 1984 2036 2109 2124 2187 2340
20 5 58 497 696 701 928 1084 1113 1135 1182 1208 1591 1608 1722 1753 1873 1886 1989 2234 2270
20 704 738 757 794 844 1039 1134 1148 1175 1219 1238 1485 1528 1644 1667 1691 1754 1776 1878 2091
20 471 488 695 744 790 1013 1136 1217 1268 1296 1522 1588 1611 1715 1786 1937 1955 2013 2062 2101
20 788 859 1005 1022 1045 1152 1538 1559 1562 1599 1605 1736 1852 1998 2119 2236 2298 2319 2348 2378
20 499 519 671 694 1018 1097 1164 1187 1225 1498 1547 1571 1638 1655 1931 2044 2095 2104 2274 2355
20 159 179 505 816 834 1088 1104 1417 1427 1634 1645 1689 1818 1879 2035 2088 2165 2218 2271 2388
20 125 157 256 468 793 835 1115 1121 1257 1288 1424 1448 1602 1662 1712 1876 1909 1995 2192 2370
20 579 582 679 802 842 895 1159 1162 1575 1642 1695 1762 1962 2022 2042 2135 2162 2302 2342 2399
20 569 688 1057 1419 1445 1568 1617 1625 1719 1792 1839 1922 1999 2005 2039 2168 2197 2278 2297 2358
20 132 168 268 566 587 779 787 1127 1146 1248 1647 1798 1808 1919 1928 2096 2148 2287 2347 2385
20 36 72 133 273 315 336 581 654 975 985 1368 1447 1831 1908 2121 2224 2292 2310 2341 2372
20 105 178 279 539 571 619 805 889 968 1051 1408 1837 2053 2084 2111 2217 2258 2264 2316 2345
20 128 158 308 431 536 769 830 1082 1130 1404 1455 1615 1934 2068 2115 2231 2257 2276 2281 2322
20 15 111 151 334 516 537 988 1325 1431 1554 1607 1687 1836 1885 2040 2176 2272 2300 2324 2369
20 11 57 318 328 425 642 713 1036 1133 1524 1614 1729 1906 1948 2015 2153 2182 2296 2331 2361
20 55 94 176 317 531 632 765 887 971 1094 1160 1328 1365 1556 1727 2161 2184 2269 2289 2356
20 675 699 825 882 1048 1099 1118 1558 1616 1738 1895 1945 2028 2058 2118 2179 2196 2202 2245 2339
20 575 658 697 772 797 848 979 1125 1178 1385 1459 1737 2019 2108 2128 2145 2198 2237 2242 2359
20 25 118 339 596 639 668 845 867 977 1038 1054 1548 1690 2011 2094 2154 2164 2219 2352 2364
20 76 88 338 428 528 617 710 833 864 1056 1388 1422 1452 1732 1889 2195 2213 2222 2261 2375
20 39 165 319 518 1154 1172 1527 1557 1827 1939 2014 2024 2092 2114 2131 2158 2175 2251 2284 2304
20 599 705 799 808 1058 1117 1149 1439 1457 1618 1685 1838 1915 2008 2065 2142 2205 2239 2318 2336
20 22 102 162 439 583 645 702 762 822 898 1085 1122 1163 1425 1696 1883 1903 2043 2082 2137
