# Generated using Miratope v0.5.0 (https://github.com/galoomba1/miratope-rs)
4OFF

# Vertices, Faces, Edges, Cells
120 720 1200 120

# Vertices
0.809016994374945 0.809016994374945 0.809016994374945 0.809016994374945 
0.809016994374945 0.809016994374945 0.809016994374945 -0.809016994374945 
1.61803398874989 0 0 0 
1.30901699437495 0.809016994374945 -0.5 0 
1.30901699437495 0 0.809016994374945 -0.5 
0.809016994374945 1.30901699437495 0 -0.5 
1.30901699437495 0 0.809016994374945 0.5 
0.809016994374945 1.30901699437495 0 0.5 
0.809016994374945 0.5 1.30901699437495 0 
1.30901699437495 0.5 0 0.809016994374945 
0.5 1.30901699437495 0.809016994374945 0 
1.30901699437495 0.5 0 -0.809016994374945 
0.809016994374945 -0.809016994374945 0.809016994374945 0.809016994374945 
0.809016994374945 -0.809016994374945 -0.809016994374945 0.809016994374945 
0.809016994374945 0 -0.5 1.30901699437495 
1.30901699437495 -0.809016994374945 -0.5 0 
0.809016994374945 0 0.5 1.30901699437495 
1.30901699437495 -0.809016994374945 0.5 0 
0.809016994374945 -1.30901699437495 0 0.5 
0.5 -0.809016994374945 0 1.30901699437495 
1.30901699437495 0 -0.809016994374945 0.5 
0.809016994374945 -0.809016994374945 0.809016994374945 -0.809016994374945 
0 0 1.61803398874989 0 
0 -0.809016994374945 1.30901699437495 -0.5 
0 -0.809016994374945 1.30901699437495 0.5 
0.5 -1.30901699437495 0.809016994374945 0 
0.5 0 1.30901699437495 -0.809016994374945 
0.5 0 1.30901699437495 0.809016994374945 
-0.809016994374945 -0.809016994374945 0.809016994374945 0.809016994374945 
0 0 0 1.61803398874989 
0 0.5 0.809016994374945 1.30901699437495 
-0.5 0 1.30901699437495 0.809016994374945 
-0.5 -0.809016994374945 0 1.30901699437495 
0 -1.30901699437495 0.5 0.809016994374945 
-0.809016994374945 0 0.5 1.30901699437495 
-0.809016994374945 0.809016994374945 0.809016994374945 0.809016994374945 
-0.5 1.30901699437495 0.809016994374945 0 
0 0.809016994374945 1.30901699437495 -0.5 
0 1.30901699437495 0.5 0.809016994374945 
-0.809016994374945 0.5 1.30901699437495 0 
0.809016994374945 0.809016994374945 -0.809016994374945 0.809016994374945 
-0.5 0.809016994374945 0 1.30901699437495 
0 1.30901699437495 -0.5 0.809016994374945 
0 0.5 -0.809016994374945 1.30901699437495 
0 -0.5 -0.809016994374945 1.30901699437495 
0.5 0.809016994374945 0 1.30901699437495 
0 -0.5 0.809016994374945 1.30901699437495 
-0.809016994374945 0 -0.5 1.30901699437495 
-0.809016994374945 -0.5 1.30901699437495 0 
-1.30901699437495 0 0.809016994374945 0.5 
0 0.809016994374945 1.30901699437495 0.5 
0 1.61803398874989 0 0 
-0.809016994374945 1.30901699437495 0 0.5 
0.809016994374945 -0.5 1.30901699437495 0 
1.30901699437495 -0.5 0 0.809016994374945 
1.30901699437495 0.809016994374945 0.5 0 
0 1.30901699437495 0.5 -0.809016994374945 
-0.5 0 1.30901699437495 -0.809016994374945 
-1.30901699437495 0.809016994374945 0.5 0 
-1.30901699437495 0.5 0 0.809016994374945 
0.5 1.30901699437495 -0.809016994374945 0 
1.30901699437495 -0.5 0 -0.809016994374945 
1.30901699437495 0 -0.809016994374945 -0.5 
0.5 0 -1.30901699437495 0.809016994374945 
-0.809016994374945 0.809016994374945 0.809016994374945 -0.809016994374945 
-1.61803398874989 0 0 0 
-0.809016994374945 1.30901699437495 0 -0.5 
-1.30901699437495 0.809016994374945 -0.5 0 
-1.30901699437495 0 0.809016994374945 -0.5 
-1.30901699437495 0.5 0 -0.809016994374945 
-0.809016994374945 -0.809016994374945 0.809016994374945 -0.809016994374945 
-0.809016994374945 -0.809016994374945 -0.809016994374945 -0.809016994374945 
-1.30901699437495 -0.809016994374945 -0.5 0 
-0.809016994374945 0 -0.5 -1.30901699437495 
-1.30901699437495 -0.809016994374945 0.5 0 
-0.809016994374945 0 0.5 -1.30901699437495 
-0.809016994374945 -1.30901699437495 0 -0.5 
-1.30901699437495 0 -0.809016994374945 -0.5 
-0.5 -0.809016994374945 0 -1.30901699437495 
-0.5 -1.30901699437495 0.809016994374945 0 
0 0 0 -1.61803398874989 
0 0.5 0.809016994374945 -1.30901699437495 
0.5 -0.809016994374945 0 -1.30901699437495 
0 -1.30901699437495 0.5 -0.809016994374945 
0.809016994374945 0 0.5 -1.30901699437495 
-0.809016994374945 0.809016994374945 -0.809016994374945 -0.809016994374945 
0 1.30901699437495 -0.5 -0.809016994374945 
0.5 0.809016994374945 0 -1.30901699437495 
0 0.5 -0.809016994374945 -1.30901699437495 
-0.809016994374945 -0.809016994374945 -0.809016994374945 0.809016994374945 
-0.809016994374945 -1.30901699437495 0 0.5 
-1.30901699437495 0 -0.809016994374945 0.5 
-0.809016994374945 0.809016994374945 -0.809016994374945 0.809016994374945 
-0.809016994374945 0.5 -1.30901699437495 0 
-0.5 1.30901699437495 -0.809016994374945 0 
-0.5 0.809016994374945 0 -1.30901699437495 
0 -0.5 0.809016994374945 -1.30901699437495 
0 -0.5 -0.809016994374945 -1.30901699437495 
0.809016994374945 0 -0.5 -1.30901699437495 
-1.30901699437495 -0.5 0 -0.809016994374945 
0.809016994374945 -0.809016994374945 -0.809016994374945 -0.809016994374945 
0 0 -1.61803398874989 0 
0.809016994374945 0.5 -1.30901699437495 0 
0 -0.809016994374945 -1.30901699437495 -0.5 
0 -0.809016994374945 -1.30901699437495 0.5 
0.5 -1.30901699437495 -0.809016994374945 0 
0.5 0 -1.30901699437495 -0.809016994374945 
0.809016994374945 -1.30901699437495 0 -0.5 
0.809016994374945 0.809016994374945 -0.809016994374945 -0.809016994374945 
-0.5 0 -1.30901699437495 -0.809016994374945 
0 -1.30901699437495 -0.5 -0.809016994374945 
0 0.809016994374945 -1.30901699437495 0.5 
-1.30901699437495 -0.5 0 0.809016994374945 
0.809016994374945 -0.5 -1.30901699437495 0 
0 0.809016994374945 -1.30901699437495 -0.5 
-0.809016994374945 -0.5 -1.30901699437495 0 
-0.5 0 -1.30901699437495 0.809016994374945 
0 -1.30901699437495 -0.5 0.809016994374945 
-0.5 -1.30901699437495 -0.809016994374945 0 
0 -1.61803398874989 0 0 

# Faces
5 1 0 4 10 6
5 0 1 7 8 5
5 0 3 6 7 2
5 2 8 9 4 0
5 3 10 9 5 0
5 6 1 2 8 11
5 2 1 3 4 5
5 1 3 10 11 7
5 5 2 7 11 9
5 9 8 7 6 10
5 3 4 9 11 6
5 8 5 4 10 11
5 12 13 16 18 14
5 12 13 17 19 15
5 2 16 17 9 12
5 15 12 2 18 6
5 14 12 9 19 6
5 2 14 15 9 13
5 2 13 17 20 18
5 13 9 19 20 16
5 2 16 20 6 14
5 9 17 20 6 15
5 17 19 6 18 16
5 14 18 20 19 15
5 12 4 25 6 21
5 12 23 17 24 21
5 12 8 24 6 22
5 23 12 22 25 27
5 12 4 27 17 8
5 22 21 8 23 4
5 24 21 22 25 26
5 21 6 26 17 8
5 6 26 27 4 22
5 27 25 6 24 17
5 8 24 26 27 23
5 26 25 4 23 17
5 28 27 33 31 12
5 12 28 19 24 32
5 29 27 19 30 12
5 12 32 16 33 29
5 12 31 16 24 30
5 28 29 31 32 30
5 29 33 34 19 28
5 27 28 30 24 34
5 29 27 34 16 31
5 16 34 19 30 32
5 19 24 16 33 27
5 32 24 34 33 31
5 10 35 0 36 30
5 35 27 38 31 0
5 0 31 8 30 22
5 10 22 0 37 27
5 8 36 0 37 38
5 35 22 30 39 27
5 36 22 35 37 31
5 35 37 38 39 10
5 22 36 8 39 10
5 27 38 8 30 10
5 31 37 27 39 8
5 38 39 30 36 31
5 0 14 7 16 40
5 0 42 9 38 40
5 29 9 30 14 0
5 38 29 0 41 16
5 0 42 30 7 41
5 29 40 16 43 9
5 40 29 42 14 41
5 38 43 7 41 40
5 42 29 38 43 30
5 38 16 7 30 9
5 42 14 7 43 9
5 14 41 16 43 30
5 34 45 46 41 16
5 16 43 19 45 44
5 16 32 14 46 44
5 45 19 30 14 46
5 30 47 45 34 43
5 14 47 45 44 41
5 32 41 46 47 30
5 43 32 14 47 19
5 34 44 41 32 43
5 47 19 34 44 46
5 28 30 49 46 35
5 35 48 34 39 28
5 35 48 50 49 22
5 27 34 50 46 35
5 28 22 46 48 27
5 39 28 22 49 24
5 24 50 46 22 30
5 39 24 50 48 27
5 39 34 50 49 30
5 48 34 24 49 46
5 35 0 41 50 45
5 51 0 36 7 50
5 51 0 42 10 45
5 10 52 50 51 35
5 41 51 35 42 36
5 45 52 30 42 35
5 51 41 7 52 45
5 7 30 10 45 50
5 42 36 7 52 10
5 41 36 30 52 50
5 19 27 54 46 6
5 16 24 6 46 53
5 6 18 53 54 25
5 17 16 53 54 27
5 16 33 54 46 18
5 27 25 46 53 33
5 54 33 17 19 25
5 17 33 53 18 24
5 46 25 19 24 18
5 3 45 55 40 0
5 2 0 54 55 16
5 6 45 54 0 14
5 40 2 7 20 55
5 40 2 14 3 54
5 20 45 54 40 16
5 7 16 55 45 6
5 6 20 55 54 3
5 7 20 45 3 14
5 0 1 50 55 37
5 6 22 0 53 50
5 27 4 0 53 55
5 10 26 50 1 22
5 22 4 37 53 1
5 53 1 6 26 55
5 10 27 55 50 6
5 37 4 10 26 55
5 26 50 53 37 27
5 0 51 55 38 5
5 7 56 55 51 1
5 51 1 36 5 37
5 50 56 8 36 1
5 37 51 50 56 38
5 7 8 38 55 50
5 8 56 55 37 5
5 5 36 7 56 38
5 24 50 53 31 8
5 8 57 50 26 39
5 23 37 53 57 8
5 27 48 53 31 23
5 37 48 50 57 31
5 48 26 24 57 53
5 31 57 24 39 23
5 37 23 39 26 48
5 50 41 31 38 34
5 50 58 38 39 52
5 34 52 30 59 38
5 36 59 38 58 41
5 31 58 50 49 36
5 41 49 30 59 31
5 36 59 39 52 49
5 58 34 52 49 41
5 58 34 39 59 31
5 9 27 54 0 12
5 8 16 53 0 12
5 12 4 54 53 2
5 2 53 55 17 8
5 55 16 8 9 27
5 55 17 9 4 54
5 40 51 45 60 38
5 51 3 42 5 40
5 55 40 5 9 60
5 55 60 10 3 51
5 9 10 45 55 38
5 9 42 3 45 60
5 10 42 5 38 60
5 6 61 55 17 11
5 11 20 55 62 9
5 4 62 55 61 3
5 15 3 54 62 9
5 6 15 4 54 61
5 15 11 20 61 3
5 20 61 54 62 17
5 4 15 11 17 62
5 40 13 9 63 54
5 13 43 20 44 40
5 44 40 29 63 45
5 16 13 29 54 44
5 19 63 29 13 43
5 9 19 45 54 29
5 9 63 45 20 43
5 19 63 54 44 20
5 27 45 46 0 29
5 50 16 31 0 46
5 38 34 45 35 29
5 46 41 31 29 35
5 38 16 50 45 27
5 35 64 52 39 66
5 49 64 35 68 36
5 35 67 49 52 65
5 35 68 59 39 65
5 36 67 35 66 59
5 65 64 49 69 39
5 65 64 67 68 66
5 64 67 36 69 52
5 66 65 52 69 59
5 36 69 39 66 68
5 68 67 49 69 59
5 71 74 78 72 70
5 75 71 70 73 76
5 69 70 65 75 74
5 72 70 65 76 68
5 70 69 78 68 73
5 71 74 77 76 65
5 71 69 72 73 65
5 69 71 75 77 78
5 77 75 65 73 68
5 74 77 68 72 69
5 68 78 74 75 76
5 73 76 77 78 72
5 28 23 74 24 70
5 28 68 79 49 70
5 28 23 31 79 22
5 31 68 28 39 74
5 22 68 23 39 70
5 24 70 22 79 57
5 70 49 57 74 39
5 49 57 31 68 22
5 79 49 24 74 31
5 57 74 23 68 79
5 70 21 57 83 26
5 70 21 78 23 82
5 26 80 21 81 82
5 80 83 84 78 21
5 57 21 81 23 84
5 80 57 78 81 70
5 70 80 83 75 82
5 70 81 23 75 26
5 26 80 57 84 75
5 82 23 84 83 26
5 57 83 75 23 78
5 84 78 81 82 75
5 1 64 10 81 36
5 64 1 57 56 26
5 22 81 8 57 1
5 22 36 57 50 64
5 22 64 26 39 81
5 56 39 10 64 50
5 10 81 8 56 26
5 57 56 39 81 36
5 64 86 69 56 85
5 85 64 73 66 75
5 80 64 87 75 56
5 80 69 81 73 64
5 87 64 86 81 66
5 85 80 86 73 87
5 80 85 75 88 69
5 85 56 88 66 87
5 56 80 86 81 88
5 69 81 66 75 56
5 88 69 86 73 66
5 87 73 81 88 75
5 34 89 28 47 90
5 89 74 32 72 28
5 65 34 74 59 28
5 65 28 72 49 90
5 28 59 32 49 47
5 89 65 47 72 59
5 74 89 65 90 91
5 34 89 59 32 91
5 47 65 34 91 49
5 34 90 49 32 74
5 47 90 91 32 72
5 49 72 59 74 91
5 85 52 93 66 92
5 92 85 91 94 77
5 52 91 58 92 65
5 65 92 77 59 93
5 59 94 58 92 66
5 66 77 58 85 65
5 91 85 65 93 69
5 69 94 58 85 52
5 91 94 59 93 52
5 69 93 66 77 94
5 59 77 58 91 69
5 36 68 37 58 57
5 36 95 37 66 81
5 69 56 58 95 36
5 66 39 56 58 37
5 37 68 81 39 75
5 56 57 95 37 75
5 39 75 58 57 69
5 95 68 66 75 58
5 81 68 95 57 69
5 8 84 53 1 21
5 1 21 11 26 61
5 2 1 61 55 84
5 6 61 53 2 21
5 2 21 11 17 84
5 55 84 8 11 26
5 26 61 53 84 17
5 6 30 12 0 46
5 46 14 12 29 54
5 45 27 9 30 6
5 12 79 46 25 28
5 22 46 53 31 12
5 33 23 12 79 53
5 28 23 33 48 25
5 22 79 53 48 25
5 31 33 48 46 79
5 81 4 96 1 21
5 57 84 37 96 1
5 57 21 22 96 53
5 81 23 37 96 22
5 37 84 8 81 4
5 4 23 84 53 96
5 35 37 58 50 64
5 58 48 35 68 31
5 48 64 22 68 37
5 49 57 58 48 64
5 75 87 96 95 84
5 81 98 95 84 88
5 82 88 84 97 87
5 84 78 98 96 97
5 82 87 96 98 81
5 98 73 87 97 95
5 96 73 81 78 95
5 73 82 88 78 98
5 75 97 95 78 88
5 75 97 96 73 82
5 64 1 95 37 87
5 86 1 51 87 10
5 1 86 81 5 95
5 64 51 37 66 10
5 64 51 95 36 86
5 66 5 95 51 87
5 10 86 36 5 66
5 10 81 5 37 87
5 68 96 48 75 23
5 57 83 48 96 79
5 74 75 48 99 57
5 83 74 23 76 48
5 76 48 99 79 68
5 68 78 57 99 96
5 78 79 96 76 23
5 78 79 99 83 74
5 96 76 75 83 99
5 85 64 67 95 58
5 75 65 64 99 58
5 68 73 64 99 95
5 73 67 99 85 65
5 75 85 99 95 77
5 73 67 95 77 66
5 77 68 67 99 58
5 100 13 62 105 20
5 100 104 15 103 13
5 101 13 102 104 20
5 101 105 63 103 13
5 13 62 63 15 102
5 100 102 103 62 101
5 105 101 100 104 106
5 100 20 106 15 102
5 20 106 63 62 101
5 20 104 15 63 105
5 15 103 62 105 106
5 106 104 102 103 63
5 17 100 21 15 82
5 21 98 107 84 100
5 15 21 2 107 4
5 21 11 82 4 98
5 2 100 17 62 107
5 11 100 2 98 15
5 100 84 62 82 11
5 2 98 4 62 84
5 107 84 17 82 4
5 98 107 62 82 15
5 7 108 40 5 102
5 108 20 60 62 40
5 62 40 2 102 9
5 2 108 55 62 5
5 108 20 11 102 2
5 11 60 55 108 7
5 60 20 7 102 9
5 5 102 11 60 62
5 71 100 78 103 82
5 106 71 100 109 110
5 88 100 80 106 82
5 100 78 98 110 80
5 100 88 103 98 109
5 73 110 80 71 82
5 80 71 88 78 109
5 88 71 106 73 103
5 73 106 80 109 98
5 106 110 98 103 82
5 109 110 73 103 78
5 108 85 60 88 94
5 85 108 109 86 106
5 60 101 108 111 106
5 108 101 88 102 109
5 102 94 108 111 86
5 85 111 109 94 101
5 101 88 93 106 85
5 111 85 60 93 86
5 94 101 60 93 102
5 86 106 60 88 102
5 88 93 86 109 94
5 102 93 106 111 109
5 86 11 56 108 1
5 1 108 84 5 98
5 81 11 80 1 98
5 80 1 95 84 56
5 108 84 88 11 80
5 80 108 95 98 86
5 56 88 5 95 108
5 81 11 56 84 5
5 86 98 5 88 11
5 35 42 59 38 92
5 35 92 58 41 67
5 51 58 38 66 35
5 51 92 38 94 41
5 92 66 42 67 51
5 36 94 58 51 67
5 36 94 38 66 42
5 59 94 41 67 42
5 31 112 35 28 59
5 35 47 30 59 29
5 47 49 41 112 35
5 46 112 29 28 47
5 59 32 41 112 29
5 46 112 31 32 49
5 8 16 50 6 30
5 35 92 34 52 47
5 42 47 45 92 29
5 43 59 29 92 34
5 45 92 38 43 52
5 42 47 52 43 59
5 56 52 64 51 58
5 38 66 10 52 56
5 7 94 38 60 52
5 10 60 56 7 86
5 7 94 5 42 86
5 60 66 5 94 56
5 36 94 56 52 86
5 42 86 52 60 66
5 58 112 35 65 34
5 68 112 48 65 28
5 65 48 58 74 39
5 31 112 48 34 74
5 58 74 59 68 112
5 33 112 46 90 34
5 32 79 46 90 24
5 74 33 48 90 24
5 79 112 48 90 49
5 74 33 112 79 32
5 65 92 112 67 47
5 41 91 34 92 112
5 52 91 41 67 47
5 91 49 67 112 58
5 13 40 113 14 102
5 63 3 113 40 62
5 13 62 54 113 2
5 15 102 2 113 3
5 14 102 9 63 3
5 63 15 14 113 54
5 55 108 1 3 87
5 61 87 4 98 1
5 98 3 61 108 2
5 108 84 62 87 61
5 4 87 55 84 5
5 62 87 3 98 5
5 18 21 12 107 53
5 12 15 25 54 107
5 18 21 15 25 61
5 18 61 54 107 2
5 61 25 4 107 53
5 10 87 55 56 11
5 81 11 26 87 4
5 26 87 37 84 56
5 85 87 114 95 108
5 87 60 56 108 51
5 51 108 94 5 114
5 51 85 60 66 114
5 56 85 51 95 94
5 88 60 87 114 5
5 88 94 95 114 66
5 93 71 85 115 73
5 88 77 97 85 71
5 101 77 114 115 85
5 73 114 97 85 106
5 93 71 101 77 103
5 71 106 115 97 101
5 88 101 97 114 103
5 88 77 114 73 93
5 114 115 106 93 103
5 77 103 73 115 97
5 106 61 113 98 15
5 15 82 105 61 110
5 15 110 113 107 103
5 62 107 113 61 105
5 82 62 97 61 106
5 107 97 61 110 98
5 103 98 113 97 62
5 107 103 82 105 97
5 110 106 105 97 113
5 108 111 3 114 40
5 101 40 113 111 20
5 101 60 63 114 40
5 62 101 108 113 114
5 20 106 3 113 108
5 60 63 3 111 20
5 3 106 60 62 114
5 106 111 113 114 63
5 94 40 51 111 7
5 94 40 114 42 102
5 7 108 51 3 86
5 86 111 51 114 42
5 102 42 3 111 7
5 102 86 3 114 5
5 102 93 63 114 116
5 104 111 113 116 102
5 103 102 109 113 114
5 111 115 63 93 104
5 103 116 113 115 63
5 114 115 111 109 116
5 106 104 109 113 115
5 103 116 109 104 93
5 93 66 114 67 86
5 86 67 95 94 69
5 94 109 67 114 77
5 86 109 95 114 73
5 93 73 67 109 69
5 77 88 69 109 95
5 11 106 61 108 100
5 100 108 113 98 102
5 61 113 2 100 20
5 3 106 11 102 98
5 52 86 67 51 85
5 69 71 85 99 109
5 95 109 80 85 97
5 75 97 99 80 71
5 78 95 99 80 69
5 78 77 97 99 109
5 49 99 58 74 69
5 72 67 112 77 59
5 68 72 49 99 112
5 69 72 67 99 91
5 112 77 74 91 99
5 26 87 96 1 80
5 80 57 95 96 64
5 26 75 37 96 64
5 70 64 96 68 81
5 69 70 64 99 57
5 96 73 70 80 99
5 91 109 67 115 85
5 65 115 99 91 71
5 93 71 91 109 72
5 65 115 67 72 93
5 73 72 109 99 115
5 28 76 48 90 70
5 28 76 112 79 72
5 65 48 99 49 70
5 99 90 70 72 79
5 65 76 112 99 90
5 70 64 48 75 39
5 26 70 22 96 48
5 52 111 41 94 43
5 47 111 41 116 42
5 41 91 43 59 116
5 52 93 42 67 111
5 42 93 43 94 116
5 91 111 47 93 43
5 47 93 59 116 67
5 94 116 67 111 91
5 67 111 85 92 114
5 92 60 52 111 51
5 114 92 60 93 42
5 40 92 45 111 41
5 94 40 92 60 43
5 43 60 45 111 7
5 12 13 33 54 117
5 12 32 18 46 117
5 29 13 32 14 117
5 18 32 13 33 44
5 44 33 29 117 46
5 14 117 54 44 18
5 42 63 92 40 116
5 40 116 14 111 44
5 92 44 41 116 29
5 44 111 47 63 92
5 29 63 47 14 116
5 42 63 45 111 14
5 102 43 20 111 14
5 42 63 60 43 102
5 60 87 3 86 11
5 21 98 96 61 80
5 87 82 11 80 61
5 26 82 4 96 61
5 101 43 102 116 40
5 101 13 116 113 44
5 14 104 43 13 116
5 111 44 101 43 104
5 113 44 20 104 14
5 89 13 32 104 19
5 116 117 63 89 13
5 47 117 29 89 19
5 116 32 43 89 29
5 47 104 43 89 63
5 19 104 14 117 63
5 47 117 116 32 104
5 100 108 97 62 88
5 97 108 109 98 114
5 101 97 113 109 100
5 102 98 114 62 88
5 110 21 100 83 61
5 107 78 21 110 96
5 100 84 97 61 80
5 100 83 97 107 78
5 80 110 96 97 83
5 84 107 96 61 83
5 80 108 97 87 106
5 87 106 86 98 114
5 11 88 62 87 106
5 93 43 101 92 63
5 114 116 94 101 92
5 91 118 77 89 71
5 89 103 72 104 71
5 93 89 101 91 104
5 116 118 101 89 103
5 89 93 72 116 77
5 104 71 101 118 109
5 101 91 109 116 77
5 116 118 91 104 72
5 72 103 77 118 109
5 100 118 97 105 71
5 110 104 100 118 113
5 104 110 115 105 71
5 113 118 101 105 115
5 97 118 109 110 115
5 111 115 92 101 91
5 92 115 67 116 77
5 33 89 28 117 112
5 90 19 28 117 46
5 44 112 29 89 34
5 19 89 33 44 90
5 47 90 44 112 117
5 43 89 92 44 91
5 89 92 112 116 59
5 32 91 44 112 116
5 70 21 79 96 25
5 21 79 53 83 24
5 24 83 48 25 70
5 53 83 26 25 96
5 107 13 100 18 113
5 54 107 13 17 105
5 61 18 100 17 105
5 113 18 20 105 54
5 19 105 54 117 15
5 44 105 19 104 18
5 15 117 113 18 104
5 63 117 113 44 105
5 17 83 53 107 23
5 17 83 61 25 82
5 23 107 96 25 82
5 99 110 72 78 118
5 72 110 115 76 103
5 115 76 77 118 99
5 73 110 99 97 76
5 103 78 118 97 76
5 115 47 93 89 92
5 63 89 101 44 115
5 104 47 115 44 91
5 13 118 44 105 89
5 103 117 113 118 13
5 89 105 115 117 103
5 115 117 116 118 44
5 70 110 99 83 71
5 96 110 70 82 76
5 97 76 82 71 83
5 77 89 65 115 112
5 72 116 112 115 47
5 76 89 71 90 115
5 76 89 74 118 112
5 90 71 74 118 99
5 91 118 112 115 90
5 44 90 104 32 118
5 117 72 32 118 112
5 104 90 115 117 72
5 83 90 70 119 74
5 79 110 70 119 78
5 110 90 71 119 72
5 83 118 78 119 71
5 74 119 72 79 118
5 83 118 79 110 90
5 33 107 12 119 17
5 12 117 25 19 119
5 19 119 13 33 105
5 107 117 15 119 13
5 25 105 17 119 15
5 25 105 33 107 117
5 17 83 18 21 119
5 82 119 21 110 25
5 15 119 100 18 110
5 100 83 105 82 119
5 18 110 25 105 83
5 18 79 12 119 24
5 21 119 23 107 79
5 83 33 23 119 24
5 18 83 33 107 79
5 107 118 100 119 103
5 71 105 76 103 119
5 78 107 76 82 119
5 118 107 76 105 83
5 76 25 70 119 23
5 79 107 76 25 110
5 90 25 28 119 24
5 74 33 76 28 119
5 83 33 76 25 90
5 32 119 28 117 79
5 118 33 89 119 32
5 117 76 89 119 72
5 76 117 79 118 33
5 89 105 90 104 119
5 117 110 104 119 103
5 110 117 76 105 90
5 18 118 13 119 104
5 19 119 32 18 90
5 90 105 33 118 18
5 110 117 107 118 18
5 25 90 18 79 117

# Cells
12 0 1 2 3 4 5 6 7 8 9 10 11
12 12 13 14 15 16 17 18 19 20 21 22 23
12 24 25 26 27 28 29 30 31 32 33 34 35
12 36 37 38 39 40 41 42 43 44 45 46 47
12 48 49 50 51 52 53 54 55 56 57 58 59
12 60 61 62 63 64 65 66 67 68 69 70 71
12 45 71 72 73 74 75 76 77 78 79 80 81
12 43 53 82 83 84 85 86 87 88 89 90 91
12 48 64 92 93 94 95 96 97 98 99 100 101
12 22 33 46 102 103 104 105 106 107 108 109 110
12 2 20 60 111 112 113 114 115 116 117 118 119
12 0 32 51 120 121 122 123 124 125 126 127 128
12 1 52 93 120 129 130 131 132 133 134 135 136
12 34 58 89 128 137 138 139 140 141 142 143 144
12 59 90 101 145 146 147 148 149 150 151 152 153
12 3 14 28 105 112 122 154 155 156 157 158 159
12 4 61 94 111 129 160 161 162 163 164 165 166
12 10 21 118 159 167 168 169 170 171 172 173 174
12 19 65 73 116 175 176 177 178 179 180 181 182
12 44 49 63 72 85 92 145 183 184 185 186 187
12 151 188 189 190 191 192 193 194 195 196 197 198
12 199 200 201 202 203 204 205 206 207 208 209 210
12 87 143 211 212 213 214 215 216 217 218 219 220
12 221 222 223 224 225 226 227 228 229 230 231 232
12 56 123 132 138 233 234 235 236 237 238 239 240
12 241 242 243 244 245 246 247 248 249 250 251 252
12 253 254 255 256 257 258 259 260 261 262 263 264
12 196 265 266 267 268 269 270 271 272 273 274 275
12 197 240 250 276 277 278 279 280 281 282 283 284
12 5 31 125 157 167 285 286 287 288 289 290 291
12 16 38 62 75 102 113 154 180 183 292 293 294
12 27 36 86 107 140 213 295 296 297 298 299 300
12 29 124 139 225 235 285 301 302 303 304 305 306
12 54 84 141 149 189 218 236 276 307 308 309 310
12 232 252 311 312 313 314 315 316 317 318 319 320
12 131 233 245 277 321 322 323 324 325 326 327 328
12 209 220 231 329 330 331 332 333 334 335 336 337
12 194 207 242 270 283 338 339 340 341 342 343 344
12 345 346 347 348 349 350 351 352 353 354 355 356
12 174 289 357 358 359 360 361 362 363 364 365 366
12 8 114 162 168 367 368 369 370 371 372 373 374
12 318 375 376 377 378 379 380 381 382 383 384 385
12 386 387 388 389 390 391 392 393 394 395 396 397
12 249 312 323 398 399 400 401 402 403 404 405 406
12 96 148 192 269 407 408 409 410 411 412 413 414
12 41 78 82 150 186 257 415 416 417 418 419 420
12 26 40 50 88 103 121 137 155 184 292 296 421
12 68 76 97 147 185 407 416 422 423 424 425 426
12 55 95 133 146 188 238 279 307 324 409 427 428
12 100 136 166 327 413 428 429 430 431 432 433 434
12 9 57 69 99 117 126 134 158 164 187 294 421
12 83 153 191 214 255 308 415 435 436 437 438 439
12 47 91 219 262 300 420 438 440 441 442 443 444
12 152 190 261 267 408 417 422 435 445 446 447 448
12 17 115 170 175 349 369 449 450 451 452 453 454
12 6 169 287 364 370 399 455 456 457 458 459 460
12 15 24 104 156 171 288 359 461 462 463 464 465
12 11 127 135 239 290 305 328 405 459 466 467 468
12 248 326 386 404 432 469 470 471 472 473 474 475
12 382 392 476 477 478 479 480 481 482 483 484 485
12 355 366 384 486 487 488 489 490 491 492 493 494
12 353 368 388 450 495 496 497 498 499 500 501 502
12 161 367 390 431 471 495 503 504 505 506 507 508
12 356 397 484 502 509 510 511 512 513 514 515 516
12 251 274 343 396 475 483 517 518 519 520 521 522
12 172 352 362 371 452 457 486 499 523 524 525 526
12 195 241 272 278 325 338 412 427 433 473 518 527
12 206 247 319 342 381 477 522 528 529 530 531 532
12 198 208 264 275 344 439 448 533 534 535 536 537
12 229 234 243 281 302 311 321 401 468 538 539 540
12 203 226 244 284 317 334 340 531 539 541 542 543
12 205 271 341 476 521 528 536 544 545 546 547 548
12 202 212 256 333 436 443 535 549 550 551 552 553
12 144 215 228 237 280 304 309 329 540 541 554 555
12 273 414 426 447 556 557 558 559 560 561 562 563
12 265 393 411 434 472 506 517 527 559 564 565 566
12 67 98 160 410 425 429 503 556 565 567 568 569
12 12 39 74 106 178 293 570 571 572 573 574 575
12 66 77 177 423 557 567 576 577 578 579 580 581
12 70 119 165 181 373 453 500 507 569 581 582 583
12 193 201 217 282 310 331 339 437 533 542 551 554
12 7 130 163 322 372 398 430 455 466 470 505 584
12 223 286 301 315 360 400 456 467 538 585 586 587
12 176 347 449 496 510 577 582 588 589 590 591 592
12 79 179 572 580 590 593 594 595 596 597 598 599
12 350 379 389 482 492 498 511 524 600 601 602 603
12 224 314 358 378 491 585 604 605 606 607 608 609
12 246 316 383 387 403 469 479 520 529 601 610 611
12 313 363 377 402 458 490 523 586 600 606 610 612
12 374 395 406 460 474 501 508 526 584 603 611 612
12 394 497 504 509 560 566 568 576 583 588 613 614
12 480 516 546 615 616 617 618 619 620 621 622 623
12 351 376 481 494 515 602 620 624 625 626 627 628
12 266 391 478 514 519 544 563 564 614 621 629 630
12 42 81 253 418 440 574 595 631 632 633 634 635
12 80 260 419 424 446 558 578 596 633 636 637 638
12 30 142 216 221 299 303 330 555 639 640 641 642
12 18 173 345 361 451 464 489 525 643 644 645 646
12 23 182 354 454 575 592 598 646 647 648 649 650
12 35 230 291 306 365 465 587 609 642 651 652 653
12 210 385 485 532 548 623 628 654 655 656 657 658
12 512 561 579 591 597 613 617 629 636 659 660 661
12 348 513 589 594 618 627 650 660 662 663 664 665
12 200 227 320 337 380 530 543 608 657 666 667 668
12 258 268 445 534 547 562 619 630 637 659 669 670
12 204 259 537 545 553 615 656 669 671 672 673 674
12 263 599 622 635 638 661 665 670 674 675 676 677
12 199 336 552 654 666 673 678 679 680 681 682 683
12 13 108 462 570 644 647 684 685 686 687 688 689
12 357 463 487 604 645 652 688 690 691 692 693 694
12 25 109 297 461 640 651 684 690 695 696 697 698
12 375 493 607 624 658 668 681 693 699 700 701 702
12 222 335 605 639 653 667 679 691 696 701 703 704
12 211 298 332 442 549 641 678 697 703 705 706 707
12 254 444 550 631 672 676 682 706 708 709 710 711
12 616 626 655 664 671 677 680 700 710 712 713 714
12 573 593 634 648 662 675 686 709 712 715 716 717
12 346 488 625 643 649 663 687 692 699 713 715 718
12 37 110 295 441 571 632 685 695 705 708 716 719
12 683 689 694 698 702 704 707 711 714 717 718 719
