# Generated using Miratope v0.5.0 (https://github.com/galoomba1/miratope-rs)
4OFF

# Vertices, Faces, Edges, Cells
120 1440 1080 120

# Vertices
0.809016994374945 0.809016994374945 -0.809016994374945 0.809016994374945 
-1.30901699437495 0 -0.809016994374945 0.5 
0.5 -1.30901699437495 -0.809016994374945 0 
0 0.5 -0.809016994374945 -1.30901699437495 
0.809016994374945 0.809016994374945 -0.809016994374945 -0.809016994374945 
0 0.5 -0.809016994374945 1.30901699437495 
-1.30901699437495 0 -0.809016994374945 -0.5 
-0.809016994374945 0.809016994374945 -0.809016994374945 0.809016994374945 
1.30901699437495 0 -0.809016994374945 0.5 
-0.5 -1.30901699437495 -0.809016994374945 0 
0.809016994374945 -0.809016994374945 -0.809016994374945 -0.809016994374945 
0.5 1.30901699437495 -0.809016994374945 0 
0 -0.5 -0.809016994374945 1.30901699437495 
-0.809016994374945 -0.809016994374945 -0.809016994374945 0.809016994374945 
-0.5 1.30901699437495 -0.809016994374945 0 
0 -0.5 -0.809016994374945 -1.30901699437495 
-0.809016994374945 -0.809016994374945 -0.809016994374945 -0.809016994374945 
1.30901699437495 0 -0.809016994374945 -0.5 
-0.809016994374945 0.809016994374945 0.809016994374945 0.809016994374945 
-0.809016994374945 0.809016994374945 -0.809016994374945 -0.809016994374945 
0 1.30901699437495 0.5 0.809016994374945 
0.5 0 -1.30901699437495 0.809016994374945 
-1.30901699437495 -0.5 0 0.809016994374945 
0.5 0.809016994374945 0 1.30901699437495 
-1.30901699437495 0.809016994374945 0.5 0 
0 0.809016994374945 -1.30901699437495 -0.5 
0 1.61803398874989 0 0 
-0.809016994374945 0 0.5 1.30901699437495 
0 0 0 1.61803398874989 
-0.809016994374945 -0.5 -1.30901699437495 0 
0 0 -1.61803398874989 0 
-0.809016994374945 1.30901699437495 0 -0.5 
-0.809016994374945 -1.30901699437495 0 0.5 
-0.809016994374945 0.5 -1.30901699437495 0 
-0.809016994374945 0 0.5 -1.30901699437495 
-1.30901699437495 -0.809016994374945 0.5 0 
0.5 -0.809016994374945 0 -1.30901699437495 
0 -0.809016994374945 -1.30901699437495 0.5 
-0.809016994374945 -0.809016994374945 0.809016994374945 -0.809016994374945 
-1.61803398874989 0 0 0 
0 -1.30901699437495 0.5 -0.809016994374945 
0 -1.61803398874989 0 0 
0.5 0 -1.30901699437495 -0.809016994374945 
-1.30901699437495 0.5 0 -0.809016994374945 
0.809016994374945 0.809016994374945 0.809016994374945 -0.809016994374945 
0 1.30901699437495 0.5 -0.809016994374945 
1.30901699437495 -0.5 0 -0.809016994374945 
-0.5 0 -1.30901699437495 -0.809016994374945 
0.809016994374945 1.30901699437495 0 0.5 
0.809016994374945 0 0.5 -1.30901699437495 
0.809016994374945 -0.5 -1.30901699437495 0 
1.61803398874989 0 0 0 
0 0.809016994374945 -1.30901699437495 0.5 
-0.5 0.809016994374945 0 -1.30901699437495 
0 0 0 -1.61803398874989 
1.30901699437495 0.809016994374945 0.5 0 
1.30901699437495 -0.809016994374945 0.5 0 
-0.5 -0.809016994374945 0 1.30901699437495 
0 -0.809016994374945 -1.30901699437495 -0.5 
1.30901699437495 0.5 0 0.809016994374945 
0 -1.30901699437495 0.5 0.809016994374945 
-0.5 0 -1.30901699437495 0.809016994374945 
0.809016994374945 0 0.5 1.30901699437495 
0.809016994374945 0.5 -1.30901699437495 0 
0.809016994374945 -1.30901699437495 0 -0.5 
-0.809016994374945 0.809016994374945 0.809016994374945 -0.809016994374945 
-0.809016994374945 -1.30901699437495 0 -0.5 
-0.809016994374945 -0.809016994374945 0.809016994374945 0.809016994374945 
-0.809016994374945 1.30901699437495 0 0.5 
-0.809016994374945 0.5 1.30901699437495 0 
-0.809016994374945 0 -0.5 1.30901699437495 
-0.809016994374945 -0.5 1.30901699437495 0 
-0.809016994374945 0 -0.5 -1.30901699437495 
0.5 0 1.30901699437495 -0.809016994374945 
0 -1.30901699437495 -0.5 -0.809016994374945 
0.809016994374945 -0.809016994374945 0.809016994374945 -0.809016994374945 
-1.30901699437495 -0.5 0 -0.809016994374945 
1.30901699437495 0.5 0 -0.809016994374945 
0 1.30901699437495 -0.5 -0.809016994374945 
-0.5 0 1.30901699437495 -0.809016994374945 
0.809016994374945 0.809016994374945 0.809016994374945 0.809016994374945 
0.5 0.809016994374945 0 -1.30901699437495 
0 0.809016994374945 1.30901699437495 0.5 
-1.30901699437495 0.809016994374945 -0.5 0 
-0.5 0.809016994374945 0 1.30901699437495 
1.30901699437495 0.809016994374945 -0.5 0 
0 0.809016994374945 1.30901699437495 -0.5 
0.5 0 1.30901699437495 0.809016994374945 
-1.30901699437495 0.5 0 0.809016994374945 
0 -1.30901699437495 -0.5 0.809016994374945 
0.809016994374945 -0.809016994374945 0.809016994374945 0.809016994374945 
0.809016994374945 -0.809016994374945 -0.809016994374945 0.809016994374945 
0 1.30901699437495 -0.5 0.809016994374945 
-0.5 0 1.30901699437495 0.809016994374945 
1.30901699437495 -0.5 0 0.809016994374945 
0 -0.809016994374945 1.30901699437495 0.5 
-1.30901699437495 -0.809016994374945 -0.5 0 
0.5 -0.809016994374945 0 1.30901699437495 
1.30901699437495 -0.809016994374945 -0.5 0 
-0.5 -0.809016994374945 0 -1.30901699437495 
0 -0.809016994374945 1.30901699437495 -0.5 
0.809016994374945 -1.30901699437495 0 0.5 
0.809016994374945 0.5 1.30901699437495 0 
0.809016994374945 0 -0.5 1.30901699437495 
0.809016994374945 -0.5 1.30901699437495 0 
0.809016994374945 0 -0.5 -1.30901699437495 
0.809016994374945 1.30901699437495 0 -0.5 
-1.30901699437495 0 0.809016994374945 0.5 
0 -0.5 0.809016994374945 -1.30901699437495 
0.5 1.30901699437495 0.809016994374945 0 
0 0.5 0.809016994374945 1.30901699437495 
0.5 -1.30901699437495 0.809016994374945 0 
-1.30901699437495 0 0.809016994374945 -0.5 
0 0 1.61803398874989 0 
1.30901699437495 0 0.809016994374945 -0.5 
-0.5 1.30901699437495 0.809016994374945 0 
0 -0.5 0.809016994374945 1.30901699437495 
1.30901699437495 0 0.809016994374945 0.5 
0 0.5 0.809016994374945 -1.30901699437495 
-0.5 -1.30901699437495 0.809016994374945 0 

# Faces
3 1 2 0
3 0 1 3
3 0 3 2
3 4 5 2
3 5 6 4
3 4 6 2
3 7 3 8
3 7 9 8
3 7 9 3
3 10 12 11
3 11 6 10
3 12 6 10
3 8 14 13
3 13 15 8
3 13 15 14
3 16 17 14
3 17 12 16
3 14 12 16
3 14 15 8
3 8 9 3
3 12 6 11
3 5 6 2
3 17 14 12
3 1 2 3
3 11 18 12
3 11 18 6
3 12 18 6
3 19 21 20
3 19 20 22
3 19 22 21
3 23 24 13
3 23 25 13
3 24 25 13
3 26 27 21
3 26 6 27
3 21 6 26
3 11 24 28
3 28 29 11
3 28 29 24
3 30 31 23
3 23 22 30
3 31 22 30
3 23 22 31
3 23 24 25
3 20 21 22
3 27 21 6
3 11 29 24
3 32 33 10
3 10 32 34
3 10 33 34
3 19 36 35
3 19 37 35
3 19 36 37
3 2 38 1
3 1 38 3
3 2 38 3
3 39 37 40
3 40 3 39
3 39 37 3
3 41 34 1
3 1 42 41
3 41 42 34
3 43 32 30
3 43 36 30
3 30 32 36
3 35 36 37
3 43 32 36
3 34 42 1
3 32 33 34
3 40 3 37
3 8 14 44
3 8 44 15
3 15 44 14
3 45 46 0
3 0 47 45
3 46 47 0
3 19 49 48
3 48 50 19
3 49 50 19
3 51 45 52
3 51 15 45
3 51 52 15
3 48 46 30
3 48 53 30
3 46 53 30
3 54 14 55
3 54 50 55
3 14 50 54
3 55 50 14
3 48 53 46
3 48 49 50
3 45 46 47
3 52 15 45
3 56 57 0
3 0 58 56
3 0 58 57
3 10 60 59
3 10 59 61
3 60 61 10
3 13 63 62
3 13 64 62
3 13 63 64
3 5 60 51
3 51 5 58
3 51 58 60
3 28 56 63
3 28 9 56
3 28 63 9
3 41 17 62
3 41 61 62
3 41 17 61
3 60 61 59
3 62 17 61
3 62 63 64
3 56 58 57
3 56 63 9
3 5 58 60
3 32 18 33
3 34 18 32
3 33 34 18
3 65 27 33
3 27 66 65
3 65 33 66
3 67 68 34
3 68 29 67
3 67 29 34
3 19 69 70
3 19 69 66
3 19 70 66
3 13 71 68
3 13 72 68
3 71 72 13
3 31 71 16
3 16 31 70
3 16 71 70
3 68 72 71
3 34 29 68
3 69 70 66
3 27 66 33
3 31 70 71
3 4 73 43
3 73 74 4
3 4 43 74
3 45 42 75
3 75 76 45
3 75 42 76
3 65 77 40
3 77 47 65
3 65 47 40
3 73 78 10
3 73 76 10
3 10 76 78
3 19 77 79
3 19 77 74
3 19 74 79
3 45 46 38
3 47 38 45
3 47 38 46
3 79 74 77
3 77 47 40
3 73 76 78
3 73 74 43
3 45 76 42
3 80 81 24
3 24 52 80
3 81 52 80
3 23 24 44
3 23 44 25
3 25 44 24
3 82 81 0
3 0 83 82
3 0 81 83
3 55 84 65
3 55 25 65
3 84 25 65
3 82 85 7
3 82 53 7
3 85 53 7
3 85 84 19
3 19 86 85
3 19 86 84
3 55 25 84
3 85 53 82
3 81 83 82
3 85 86 84
3 81 52 24
3 0 87 88
3 87 89 0
3 0 89 88
3 20 21 90
3 20 22 90
3 22 90 21
3 59 60 18
3 61 18 59
3 60 61 18
3 87 92 91
3 91 22 87
3 91 92 22
3 7 59 93
3 59 89 7
3 7 93 89
3 20 94 67
3 67 61 20
3 94 61 67
3 59 93 89
3 87 22 92
3 88 89 87
3 20 94 61
3 35 90 36
3 35 90 37
3 36 90 37
3 95 36 91
3 95 96 91
3 36 96 91
3 97 35 75
3 75 58 97
3 75 58 35
3 57 38 56
3 58 38 56
3 57 38 58
3 95 98 13
3 13 99 95
3 13 99 98
3 98 57 16
3 16 98 100
3 57 100 16
3 97 58 35
3 98 99 95
3 36 96 95
3 57 100 98
3 101 63 80
3 101 49 80
3 80 49 63
3 62 63 44
3 64 44 62
3 64 44 63
3 48 90 49
3 48 90 50
3 49 50 90
3 102 103 4
3 4 102 64
3 4 64 103
3 91 48 104
3 48 105 91
3 91 105 104
3 106 104 10
3 10 103 106
3 104 103 10
3 48 105 104
3 102 64 103
3 106 103 104
3 101 63 49
3 68 71 44
3 68 44 72
3 71 72 44
3 73 78 18
3 73 76 18
3 78 76 18
3 82 81 38
3 82 38 83
3 81 38 83
3 26 107 73
3 26 73 72
3 107 72 26
3 39 82 78
3 39 82 108
3 39 108 78
3 54 71 109
3 54 83 109
3 54 71 83
3 71 83 109
3 78 108 82
3 73 72 107
3 70 90 69
3 69 66 90
3 70 90 66
3 87 38 88
3 89 38 87
3 89 38 88
3 13 111 110
3 110 112 13
3 13 111 112
3 113 97 88
3 113 97 66
3 113 66 88
3 28 69 111
3 28 96 69
3 28 96 111
3 110 100 39
3 110 89 39
3 100 89 39
3 110 100 89
3 110 112 111
3 69 96 111
3 88 66 97
3 114 115 0
3 0 116 114
3 0 116 115
3 85 84 90
3 85 86 90
3 84 90 86
3 104 18 106
3 106 18 103
3 104 18 103
3 51 86 92
3 51 116 92
3 51 116 86
3 26 103 114
3 26 93 114
3 103 93 26
3 94 106 113
3 113 94 84
3 113 106 84
3 94 84 106
3 103 93 114
3 115 116 114
3 86 116 92
3 95 98 44
3 99 44 95
3 99 44 98
3 77 90 79
3 74 90 77
3 74 90 79
3 10 117 118
3 10 119 117
3 118 119 10
3 113 101 77
3 113 99 77
3 101 99 113
3 117 79 41
3 41 117 105
3 41 79 105
3 102 98 54
3 54 102 119
3 54 98 119
3 79 105 117
3 117 119 118
3 102 119 98
3 101 99 77
3 80 111 107
3 80 107 118
3 111 118 80
3 111 44 110
3 110 44 112
3 111 112 44
3 118 18 117
3 119 18 117
3 118 18 119
3 75 109 116
3 109 112 75
3 75 112 116
3 67 115 117
3 67 117 108
3 67 115 108
3 114 115 38
3 114 116 38
3 115 38 116
3 117 108 115
3 116 112 109
3 107 118 111
3 34 4 68
3 68 4 29
3 34 29 4
3 45 42 7
3 76 7 45
3 42 76 7
3 81 16 24
3 24 52 16
3 52 16 81
3 34 26 1
3 1 42 26
3 42 26 34
3 52 39 45
3 45 15 39
3 52 15 39
3 24 54 11
3 11 29 54
3 24 54 29
3 27 91 33
3 66 91 27
3 66 91 33
3 97 7 35
3 97 7 58
3 35 7 58
3 2 67 5
3 5 6 67
3 2 67 6
3 5 60 39
3 5 58 39
3 58 39 60
3 21 41 27
3 27 6 41
3 21 6 41
3 97 30 88
3 97 30 66
3 88 66 30
3 17 14 80
3 17 80 12
3 14 80 12
3 20 94 4
3 20 4 61
3 61 4 94
3 55 91 84
3 25 91 55
3 84 91 25
3 62 26 17
3 61 26 62
3 17 61 26
3 55 14 28
3 55 28 50
3 50 28 14
3 94 30 106
3 94 30 84
3 106 30 84
3 77 40 91
3 47 91 77
3 40 47 91
3 8 3 75
3 8 9 75
3 9 75 3
3 101 16 63
3 49 16 101
3 49 16 63
3 40 51 37
3 40 51 3
3 3 51 37
3 77 30 101
3 77 99 30
3 101 30 99
3 63 54 56
3 9 54 56
3 63 9 54
3 98 80 57
3 100 80 98
3 57 80 100
3 59 75 93
3 89 75 59
3 93 89 75
3 102 103 67
3 102 64 67
3 103 67 64
3 110 100 51
3 110 51 89
3 89 51 100
3 102 98 28
3 102 28 119
3 98 119 28
3 114 103 41
3 114 93 41
3 103 93 41
3 117 115 4
3 117 4 108
3 108 4 115
3 82 85 75
3 82 53 75
3 85 53 75
3 48 104 65
3 48 65 105
3 104 105 65
3 78 51 82
3 82 108 51
3 108 51 78
3 117 26 79
3 117 26 105
3 79 105 26
3 46 113 48
3 48 53 113
3 46 53 113
3 95 36 65
3 95 65 96
3 36 65 96
3 73 67 43
3 74 67 73
3 43 74 67
3 111 16 107
3 107 16 118
3 118 16 111
3 32 113 43
3 43 36 113
3 32 113 36
3 73 41 107
3 73 41 72
3 72 41 107
3 69 111 54
3 96 54 69
3 96 54 111
3 31 71 80
3 31 80 70
3 71 70 80
3 87 65 92
3 87 22 65
3 92 22 65
3 116 7 109
3 112 7 109
3 116 112 7
3 23 31 113
3 23 113 22
3 31 113 22
3 109 28 71
3 109 83 28
3 71 28 83
3 92 86 39
3 92 116 39
3 116 39 86
3 13 68 63
3 13 63 72
3 16 63 31
3 70 63 16
3 37 92 39
3 3 92 39
3 39 5 78
3 39 58 78
3 37 92 3
3 72 63 68
3 11 37 88
3 88 72 11
3 11 37 72
3 5 31 42
3 5 31 96
3 58 78 5
3 42 96 5
3 70 63 31
3 42 96 31
3 37 72 88
3 4 43 61
3 74 61 4
3 61 78 10
3 61 76 10
3 54 96 14
3 54 63 83
3 54 9 83
3 50 96 54
3 14 50 96
3 50 1 78
3 78 50 99
3 76 61 78
3 78 1 99
3 63 83 9
3 52 43 105
3 105 9 52
3 52 43 9
3 1 99 50
3 43 9 105
3 43 74 61
3 58 81 0
3 0 83 58
3 85 58 7
3 7 58 53
3 26 72 17
3 26 21 105
3 6 105 26
3 72 61 26
3 85 53 58
3 106 83 21
3 106 21 15
3 106 15 83
3 92 53 17
3 92 17 29
3 92 29 53
3 17 53 29
3 61 72 17
3 81 83 58
3 21 83 15
3 21 6 105
3 7 42 89
3 7 76 89
3 50 70 19
3 19 21 74
3 19 74 22
3 19 66 50
3 39 89 52
3 39 15 89
3 70 66 50
3 70 25 2
3 70 76 25
3 70 76 2
3 83 32 21
3 21 22 74
3 15 32 21
3 15 89 52
3 83 15 32
3 76 89 42
3 25 76 2
3 4 68 103
3 4 103 29
3 19 48 70
3 37 85 19
3 19 84 37
3 26 1 103
3 26 42 103
3 48 70 50
3 50 23 78
3 1 23 78
3 50 1 23
3 84 37 85
3 85 12 68
3 85 68 47
3 85 47 12
3 29 103 68
3 1 42 103
3 12 47 68
3 19 85 36
3 19 21 77
3 16 81 98
3 16 52 98
3 54 11 98
3 98 29 54
3 37 36 85
3 74 21 77
3 8 33 81
3 8 81 74
3 8 74 33
3 11 29 98
3 37 46 11
3 72 46 11
3 81 98 52
3 37 46 72
3 81 74 33
3 0 83 57
3 0 47 88
3 47 89 0
3 91 84 96
3 91 47 92
3 22 47 91
3 96 25 91
3 96 14 28
3 63 83 28
3 9 83 28
3 28 50 96
3 25 96 84
3 92 22 47
3 58 57 83
3 88 89 47
3 105 33 91
3 105 66 91
3 91 25 36
3 13 98 25
3 13 64 72
3 13 99 25
3 41 72 17
3 105 21 41
3 41 6 105
3 41 61 72
3 98 99 25
3 64 72 63
3 33 105 66
3 96 36 25
3 91 48 33
3 92 77 91
3 10 59 78
3 33 106 10
3 10 33 103
3 51 92 37
3 51 92 3
3 5 78 51
3 58 78 51
3 59 78 61
3 105 33 48
3 103 33 106
3 47 77 92
3 10 103 32
3 70 101 16
3 57 52 16
3 1 103 41
3 41 103 42
3 33 32 103
3 8 33 57
3 8 57 74
3 5 101 42
3 5 101 96
3 98 57 52
3 63 101 70
3 33 57 74
3 42 101 96
3 59 42 7
3 7 97 85
3 23 98 13
3 11 98 28
3 29 98 28
3 70 25 59
3 2 59 70
3 89 59 42
3 25 59 2
3 25 23 98
3 58 85 97
3 92 97 17
3 92 29 97
3 17 29 97
3 0 46 89
3 74 94 4
3 4 64 29
3 52 89 51
3 51 15 89
3 85 64 12
3 85 47 64
3 105 94 52
3 52 9 94
3 105 9 94
3 94 74 61
3 103 64 29
3 47 89 46
3 12 64 47
3 7 3 112
3 7 112 9
3 53 35 7
3 13 112 14
3 13 99 24
3 13 15 112
3 31 99 30
3 53 88 30
3 22 99 30
3 30 66 53
3 22 99 31
3 14 112 15
3 24 99 25
3 88 53 66
3 3 9 112
3 58 35 53
3 10 106 34
3 10 118 11
3 6 118 10
3 17 118 16
3 31 49 16
3 14 118 16
3 30 43 106
3 30 106 36
3 31 77 30
3 43 36 106
3 34 106 33
3 99 31 77
3 11 118 6
3 17 14 118
3 63 49 31
3 0 115 1
3 3 115 0
3 0 88 45
3 43 20 4
3 4 115 5
3 6 115 4
3 30 88 48
3 43 84 30
3 48 88 53
3 20 43 61
3 106 84 43
3 5 6 115
3 1 115 3
3 47 88 45
3 19 84 35
3 16 107 14
3 57 24 16
3 16 107 12
3 30 32 84
3 37 35 84
3 43 84 32
3 12 35 68
3 68 47 35
3 43 27 52
3 52 27 9
3 43 27 9
3 12 107 14
3 24 57 52
3 12 35 47
3 7 45 59
3 8 109 7
3 7 3 109
3 20 77 19
3 30 77 23
3 5 31 55
3 5 55 42
3 31 42 55
3 42 45 59
3 3 109 8
3 31 23 77
3 21 20 77
3 81 20 8
3 8 33 20
3 81 33 20
3 64 34 4
3 4 108 2
3 4 108 6
3 19 66 49
3 46 66 30
3 46 66 53
3 53 40 17
3 17 29 40
3 50 66 49
3 2 49 25
3 25 76 49
3 2 76 49
3 34 64 29
3 53 40 29
3 6 108 2
3 0 116 1
3 0 116 2
3 7 8 116
3 9 116 7
3 23 101 30
3 30 32 94
3 22 101 30
3 23 22 101
3 23 60 50
3 23 60 1
3 84 94 32
3 52 27 94
3 9 27 94
3 8 116 9
3 2 116 1
3 50 1 60
3 13 8 111
3 13 111 15
3 17 111 16
3 12 111 16
3 36 94 30
3 30 97 46
3 36 94 32
3 21 56 32
3 15 56 21
3 32 56 15
3 8 111 15
3 97 46 66
3 97 40 17
3 97 40 29
3 12 111 17
3 4 117 5
3 4 117 2
3 10 11 117
3 10 12 117
3 30 48 97
3 101 55 5
3 42 55 101
3 11 117 12
3 5 117 2
3 48 97 46
3 11 62 46
3 11 37 62
3 37 62 46
3 77 23 101
3 91 22 40
3 12 119 10
3 60 76 10
3 10 119 6
3 12 35 64
3 12 6 119
3 99 22 101
3 99 60 50
3 61 76 60
3 1 60 99
3 47 40 22
3 47 35 64
3 91 48 27
3 62 68 13
3 13 110 8
3 13 14 110
3 33 48 27
3 97 48 88
3 63 62 68
3 11 62 88
3 88 62 37
3 57 20 8
3 33 57 20
3 8 110 14
3 2 114 0
3 0 3 114
3 56 81 0
3 36 55 91
3 25 55 36
3 25 49 59
3 59 49 2
3 106 94 36
3 3 114 2
3 21 56 106
3 15 106 56
3 56 81 58
3 44 68 63
3 44 72 63
3 65 48 33
3 77 92 65
3 47 92 65
3 65 105 33
3 109 63 54
3 83 63 109
3 52 109 105
3 52 109 43
3 43 109 105
3 68 118 85
3 47 118 85
3 68 118 47
3 18 61 78
3 61 76 18
3 84 96 65
3 47 22 65
3 65 96 25
3 26 107 61
3 70 25 115
3 70 76 115
3 25 76 115
3 53 107 92
3 29 107 92
3 53 29 107
3 107 61 72
3 66 105 65
3 65 25 36
3 58 81 38
3 38 58 83
3 108 58 39
3 31 108 42
3 31 108 96
3 78 58 108
3 81 112 33
3 74 112 81
3 33 74 112
3 96 108 42
3 50 70 90
3 90 21 74
3 22 74 90
3 90 50 66
3 94 74 67
3 29 103 67
3 67 29 64
3 67 74 61
3 111 50 28
3 28 119 29
3 98 119 29
3 111 50 96
3 52 98 80
3 80 70 101
3 80 63 70
3 80 57 52
3 48 70 90
3 90 85 37
3 37 84 90
3 51 52 110
3 51 116 37
3 89 52 110
3 116 37 92
3 90 85 36
3 90 77 21
3 75 59 42
3 97 85 75
3 75 58 85
3 75 89 42
3 117 21 41
3 41 42 114
3 105 21 117
3 114 42 103
3 61 43 67
3 57 83 38
3 38 88 47
3 38 47 89
3 41 61 107
3 57 112 33
3 74 57 112
3 88 37 119
3 88 72 119
3 37 119 72
3 25 98 44
3 44 64 72
3 44 99 25
3 75 53 58
3 51 108 58
3 85 64 118
3 78 114 50
3 78 99 114
3 50 99 114
3 47 118 64
3 80 31 63
3 59 78 18
3 18 106 33
3 18 33 103
3 63 109 28
3 70 59 115
3 59 115 25
3 106 21 110
3 83 110 106
3 21 110 83
3 18 103 32
3 68 103 67
3 39 110 52
3 37 116 39
3 21 110 32
3 32 110 83
3 92 97 107
3 29 107 97
3 81 98 80
3 44 98 23
3 21 117 26
3 26 42 114
3 94 109 52
3 105 109 94
3 23 114 78
3 50 114 23
3 75 89 76
3 46 89 38
3 54 50 111
3 54 119 29
3 37 46 119
3 72 46 119
3 101 108 42
3 96 108 101
3 44 112 14
3 24 99 44
3 44 112 15
3 26 6 79
3 83 79 106
3 106 79 15
3 25 115 49
3 49 115 76
3 115 108 6
3 83 15 79
3 105 6 79
3 18 34 106
3 18 11 118
3 18 6 118
3 39 3 86
3 112 3 109
3 81 112 20
3 33 112 20
3 92 86 3
3 11 86 88
3 72 86 11
3 88 72 86
3 38 1 115
3 38 115 3
3 45 88 38
3 54 69 14
3 35 118 68
3 96 69 14
3 78 69 1
3 78 69 99
3 99 69 1
3 118 107 14
3 47 35 118
3 90 84 35
3 91 95 84
3 62 107 41
3 1 93 41
3 62 119 88
3 62 107 61
3 37 62 119
3 93 1 103
3 96 84 95
3 101 93 5
3 5 93 96
3 101 96 93
3 90 77 20
3 91 87 77
3 11 102 28
3 28 109 56
3 97 102 92
3 92 102 17
3 102 11 98
3 97 102 17
3 63 109 56
3 92 87 77
3 56 110 106
3 56 110 21
3 49 66 90
3 91 66 104
3 51 15 100
3 51 60 108
3 94 100 105
3 94 100 9
3 50 114 60
3 99 60 114
3 105 104 66
3 9 100 105
3 100 15 89
3 60 108 58
3 38 116 1
3 38 116 2
3 16 71 101
3 39 116 40
3 37 40 116
3 97 107 40
3 2 95 70
3 70 95 76
3 76 95 2
3 71 101 70
3 107 12 111
3 40 107 29
3 44 111 8
3 15 111 44
3 4 94 73
3 54 55 111
3 101 55 108
3 50 111 55
3 55 108 42
3 108 117 2
3 74 94 73
3 8 104 81
3 8 104 74
3 81 74 104
3 11 117 18
3 18 117 12
3 82 97 7
3 27 117 26
3 27 117 21
3 27 109 94
3 109 8 116
3 27 109 52
3 68 87 85
3 12 87 85
3 68 12 87
3 82 97 85
3 12 119 18
3 18 76 60
3 18 6 119
3 7 93 76
3 28 9 71
3 24 119 28
3 89 93 76
3 116 9 112
3 83 9 71
3 29 119 24
3 44 68 62
3 8 110 44
3 44 110 14
3 102 68 4
3 51 82 5
3 51 110 45
3 115 5 117
3 103 102 68
3 78 5 82
3 52 110 45
3 2 114 38
3 3 114 38
3 38 56 81
3 16 100 81
3 34 114 41
3 41 73 17
3 34 114 42
3 73 17 72
3 98 81 100
3 118 17 111
3 117 5 67
3 67 2 117
3 13 23 95
3 41 117 27
3 70 59 95
3 2 95 59
3 98 95 23
3 32 110 56
3 111 110 8
3 116 8 75
3 75 116 9
3 10 32 104
3 51 116 40
3 119 12 117
3 46 119 62
3 103 32 104
3 57 104 8
3 57 104 74
3 80 111 17
3 111 12 80
3 0 46 87
3 111 55 28
3 23 60 114
3 85 64 87
3 89 87 46
3 64 87 12
3 114 2 116
3 55 36 65
3 19 36 86
3 26 34 114
3 73 17 26
3 55 108 31
3 85 86 36
3 11 86 46
3 46 86 72
3 65 40 22
3 19 22 79
3 71 9 54
3 54 24 119
3 83 79 32
3 79 22 74
3 32 79 15
3 53 107 40
3 65 48 27
3 48 69 19
3 39 5 82
3 39 110 45
3 69 48 70
3 43 109 27
3 78 69 23
3 23 69 1
3 80 118 17
3 80 31 49
3 80 118 14
3 51 86 3
3 59 49 115
3 92 102 53
3 17 102 53
3 115 3 114
3 67 43 20
3 115 5 67
3 67 115 6
3 28 14 69
3 57 20 112
3 112 14 110
3 5 93 31
3 96 31 93
3 75 112 3
3 112 9 75
3 35 53 75
3 79 6 41
3 105 100 43
3 9 43 100
3 64 35 118
3 119 6 118
3 75 59 45
3 75 8 109
3 109 3 75
3 10 59 73
3 102 11 54
3 109 56 54
3 78 73 59
3 118 117 11
3 67 34 64
3 67 108 2
3 67 6 108
3 13 71 64
3 39 100 15
3 39 108 60
3 72 64 71
3 112 15 111
3 80 107 14
3 80 24 57
3 80 12 107
3 57 82 0
3 26 107 62
3 26 1 93
3 83 82 57
3 115 1 116
3 87 40 91
3 104 27 91
3 13 62 71
3 56 71 28
3 62 71 64
3 12 35 87
3 22 40 87
3 35 87 64
3 94 27 100
3 66 27 104
3 9 56 71
3 9 27 100
3 95 55 91
3 10 60 73
3 41 73 62
3 36 55 95
3 60 73 59
3 49 95 59
3 97 102 40
3 40 102 17
3 62 73 17
3 77 40 87
3 49 95 2
3 0 82 56
3 51 60 82
3 55 95 84
3 5 93 55
3 101 93 55
3 48 104 27
3 8 104 20
3 57 20 104
3 57 82 56
3 5 82 60
3 4 102 34
3 73 20 4
3 19 79 20
3 19 49 69
3 54 69 55
3 54 24 102
3 14 55 69
3 48 69 49
3 68 102 34
3 11 102 24
3 77 20 79
3 73 20 43
3 19 86 35
3 16 49 71
3 16 100 24
3 39 40 86
3 100 45 39
3 35 86 36
3 40 86 3
3 66 49 69
3 45 100 15
3 31 71 49
3 81 100 24
3 7 82 35
3 7 93 45
3 26 34 93
3 27 79 26
3 22 79 20
3 53 82 35
3 84 35 86
3 45 93 76
3 34 93 1
3 6 79 27
3 45 87 0
3 26 73 62
3 11 86 62
3 46 62 86
3 45 87 46
3 94 20 73
3 81 104 20
3 81 56 82
3 13 24 95
3 39 60 82
3 68 71 62
3 60 69 23
3 23 95 24
3 35 87 68
3 35 82 97
3 1 69 60
3 10 104 34
3 54 56 71
3 34 104 32
3 32 79 56
3 56 79 15
3 76 60 73
3 49 95 76
3 101 71 49
3 51 40 86
3 45 100 51
3 102 34 64
3 53 40 102
3 104 34 106
3 106 79 56
3 41 93 34
3 79 27 41
3 99 69 60
3 43 100 27
3 99 24 95
3 57 24 100
3 69 55 28
3 24 102 28
3 31 55 93
3 59 45 93
3 62 86 88
3 88 87 45
3 44 95 23
3 75 97 82
3 113 48 97
3 113 23 77
3 101 23 113
3 113 97 46
3 101 71 80
3 32 104 18
3 94 32 113
3 113 32 84
3 101 22 113
3 67 73 94
3 38 87 46
3 113 94 36
3 66 46 113
3 80 100 81
3 90 86 36
3 113 106 36
3 94 109 100
3 109 100 105
3 118 87 85
3 64 118 87
3 90 79 22
3 76 93 75
3 113 99 22
3 112 104 57
3 112 104 74
3 101 108 93
3 108 93 96
3 90 69 48
3 67 102 68
3 88 48 113
3 115 95 59
3 92 102 107
3 97 107 102
3 70 95 115
3 113 106 43
3 113 31 77
3 113 31 99
3 43 109 100
3 78 69 114
3 114 69 99
3 113 43 84
3 113 53 88
3 107 102 53
3 110 79 106
3 83 79 110
3 113 53 66
3 31 93 108
3 88 86 119
3 72 86 119
3 18 59 73
3 77 87 65
3 23 69 114
3 68 87 118
3 64 71 44
3 66 104 65
3 81 112 104
3 46 86 119
3 65 84 95
3 38 82 57
3 110 79 32
3 76 95 115
3 80 49 71
3 62 71 44
3 55 108 93
3 62 86 119
3 108 60 82
3 116 40 86
3 18 60 73
3 67 20 73
3 111 69 55
3 109 71 56
3 109 100 27
3 60 114 69
3 35 82 75
3 38 56 82
3 117 27 79
3 40 107 102
3 73 62 107
3 56 110 79
3 90 79 20
3 90 69 49
3 75 45 93
3 110 100 45
3 49 95 115
3 90 35 86
3 67 102 34
3 118 87 35
3 114 93 34
3 80 100 24
3 102 24 119
3 20 104 112
3 65 95 55
3 40 87 65
3 45 87 38
3 44 24 95
3 65 27 104
3 18 34 104

# Cells
24 0 1 2 3 4 5 6 7 8 9 10 11 12 13 14 15 16 17 18 19 20 21 22 23
24 20 24 25 26 27 28 29 30 31 32 33 34 35 36 37 38 39 40 41 42 43 44 45 46
24 23 47 48 49 50 51 52 53 54 55 56 57 58 59 60 61 62 63 64 65 66 67 68 69
24 18 70 71 72 73 74 75 76 77 78 79 80 81 82 83 84 85 86 87 88 89 90 91 92
24 93 94 95 96 97 98 99 100 101 102 103 104 105 106 107 108 109 110 111 112 113 114 115 116
24 68 117 118 119 120 121 122 123 124 125 126 127 128 129 130 131 132 133 134 135 136 137 138 139
24 91 140 141 142 143 144 145 146 147 148 149 150 151 152 153 154 155 156 157 158 159 160 161 162
24 43 163 164 165 166 167 168 169 170 171 172 173 174 175 176 177 178 179 180 181 182 183 184 185
24 44 111 186 187 188 189 190 191 192 193 194 195 196 197 198 199 200 201 202 203 204 205 206 207
24 65 114 208 209 210 211 212 213 214 215 216 217 218 219 220 221 222 223 224 225 226 227 228 229
24 90 113 230 231 232 233 234 235 236 237 238 239 240 241 242 243 244 245 246 247 248 249 250 251
24 135 160 183 252 253 254 255 256 257 258 259 260 261 262 263 264 265 266 267 268 269 270 271 272
24 137 206 273 274 275 276 277 278 279 280 281 282 283 284 285 286 287 288 289 290 291 292 293 294
24 184 250 295 296 297 298 299 300 301 302 303 304 305 306 307 308 309 310 311 312 313 314 315 316
24 158 227 317 318 319 320 321 322 323 324 325 326 327 328 329 330 331 332 333 334 335 336 337 338
24 292 315 336 339 340 341 342 343 344 345 346 347 348 349 350 351 352 353 354 355 356 357 358 359
24 46 67 92 136 162 185 360 361 362 363 364 365 366 367 368 369 370 371 372 373 374 375 376 377
24 21 45 116 138 226 294 378 379 380 381 382 383 384 385 386 387 388 389 390 391 392 393 394 395
24 22 88 112 181 207 313 396 397 398 399 400 401 402 403 404 405 406 407 408 409 410 411 412 413
24 19 69 115 159 251 338 414 415 416 417 418 419 420 421 422 423 424 425 426 427 428 429 430 431
24 204 229 249 291 314 337 432 433 434 435 436 437 438 439 440 441 442 443 444 445 446 447 448 449
24 89 182 248 271 335 357 450 451 452 453 454 455 456 457 458 459 460 461 462 463 464 465 466 467
24 66 161 228 272 293 359 468 469 470 471 472 473 474 475 476 477 478 479 480 481 482 483 484 485
24 42 139 205 270 316 358 486 487 488 489 490 491 492 493 494 495 496 497 498 499 500 501 502 503
24 58 130 133 388 504 505 506 507 508 509 510 511 512 513 514 515 516 517 518 519 520 521 522 523
24 87 142 151 431 524 525 526 527 528 529 530 531 532 533 534 535 536 537 538 539 540 541 542 543
24 35 171 177 407 544 545 546 547 548 549 550 551 552 553 554 555 556 557 558 559 560 561 562 563
24 29 128 365 374 562 564 565 566 567 568 569 570 571 572 573 574 575 576 577 578 579 580 581 582
24 77 178 361 370 533 566 583 584 585 586 587 588 589 590 591 592 593 594 595 596 597 598 599 600
24 52 153 368 376 516 567 586 601 602 603 604 605 606 607 608 609 610 611 612 613 614 615 616 617
24 95 107 188 197 404 410 532 537 545 618 619 620 621 622 623 624 625 626 627 628 629 630 631 632
24 101 110 213 222 380 392 505 560 563 624 633 634 635 636 637 638 639 640 641 642 643 644 645 646
24 97 103 243 246 415 425 512 519 526 622 633 647 648 649 650 651 652 653 654 655 656 657 658 659
24 47 60 223 420 507 520 599 604 611 651 660 661 662 663 664 665 666 667 668 669 670 671 672 673
24 31 37 199 382 546 557 564 573 612 636 674 675 676 677 678 679 680 681 682 683 684 685 686 687
24 75 81 241 401 525 539 579 584 597 620 688 689 690 691 692 693 694 695 696 697 698 699 700 701
24 8 14 32 41 383 395 547 638 702 703 704 705 706 707 708 709 710 711 712 713 714 715 716 717
24 10 15 49 63 422 427 506 650 708 718 719 720 721 722 723 724 725 726 727 728 729 730 731 732
24 1 4 74 83 400 413 524 619 709 724 733 734 735 736 737 738 739 740 741 742 743 744 745 746
24 17 51 62 367 540 587 600 662 740 747 748 749 750 751 752 753 754 755 756 757 758 759 760 761
24 6 27 39 363 517 602 609 674 726 762 763 764 765 766 767 768 769 770 771 772 773 774 775 776
24 5 78 84 362 559 569 582 690 711 777 778 779 780 781 782 783 784 785 786 787 788 789 790 791
24 0 7 40 412 593 696 751 757 792 793 794 795 796 797 798 799 800 801 802 803 804 805 806 807
24 13 16 64 394 578 687 781 784 797 808 809 810 811 812 813 814 815 816 817 818 819 820 821 822
24 3 9 82 426 613 668 766 768 796 813 823 824 825 826 827 828 829 830 831 832 833 834 835 836
24 11 98 416 428 527 541 623 701 710 761 798 807 837 838 839 840 841 842 843 844 845 846 847 848
24 12 99 378 393 504 514 647 666 739 775 827 834 849 850 851 852 853 854 855 856 857 858 859 860
24 2 94 403 411 544 554 635 682 725 786 812 816 861 862 863 864 865 866 867 868 869 870 871 872
24 147 253 268 457 513 529 538 596 657 659 873 874 875 876 877 878 879 880 881 882 883 884 885 886
24 174 257 263 491 535 551 558 574 629 630 877 887 888 889 890 891 892 893 894 895 896 897 898 899
24 122 260 266 470 511 522 561 617 645 646 878 891 900 901 902 903 904 905 906 907 908 909 910 911
24 191 203 275 287 440 446 572 577 628 678 698 699 912 913 914 915 916 917 918 919 920 921 922 923
24 230 237 298 305 432 442 590 594 652 670 671 691 912 924 925 926 927 928 929 930 931 932 933 934
24 210 215 321 330 436 447 607 608 640 664 681 684 913 929 935 936 937 938 939 940 941 942 943 944
24 219 278 473 482 523 543 631 632 642 672 899 903 910 919 945 946 947 948 949 950 951 952 953 954
24 235 319 455 461 534 552 643 644 655 694 874 885 907 939 955 956 957 958 959 960 961 962 963 964
24 193 302 487 499 521 553 626 656 658 679 880 887 893 926 965 966 967 968 969 970 971 972 973 974
24 117 124 289 502 508 570 576 598 665 686 897 917 933 934 968 974 975 976 977 978 979 980 981 982
24 165 167 307 463 549 589 591 615 683 695 881 924 943 944 955 961 983 984 985 986 987 988 989 990
24 145 157 334 485 531 581 606 616 673 700 911 922 923 940 948 954 991 992 993 994 995 996 997 998
24 72 168 452 464 550 555 713 714 738 779 787 895 957 999 1000 1001 1002 1003 1004 1005 1006 1007 1008 1009
24 25 119 493 501 509 515 702 728 730 764 776 908 967 1010 1011 1012 1013 1014 1015 1016 1017 1018 1019 1020
24 54 156 475 484 528 536 723 745 746 748 755 886 947 1021 1022 1023 1024 1025 1026 1027 1028 1029 1030 1031
24 109 209 212 449 621 663 669 752 857 930 949 952 1032 1033 1034 1035 1036 1037 1038 1039 1040 1041 1042 1043
24 105 189 195 444 648 677 685 773 870 936 969 972 1044 1045 1046 1047 1048 1049 1050 1051 1052 1053 1054 1055
24 104 238 244 443 634 692 697 785 844 915 959 963 1056 1057 1058 1059 1060 1061 1062 1063 1064 1065 1066 1067
24 53 56 134 474 575 661 750 806 811 821 978 982 1068 1069 1070 1071 1072 1073 1074 1075 1076 1077 1078 1079
24 71 86 141 451 610 689 778 818 824 829 993 997 1080 1081 1082 1083 1084 1085 1086 1087 1088 1089 1090 1091
24 24 33 175 492 595 675 763 794 803 830 985 987 1092 1093 1094 1095 1096 1097 1098 1099 1100 1101 1102 1103
24 26 38 194 200 494 500 565 627 703 795 842 845 888 921 1104 1105 1106 1107 1108 1109 1110 1111 1112 1113
24 70 79 233 239 450 459 583 654 737 823 855 860 873 931 1114 1115 1116 1117 1118 1119 1120 1121 1122 1123
24 55 61 218 224 476 481 603 639 721 810 869 872 902 942 1124 1125 1126 1127 1128 1129 1130 1131 1132 1133
24 220 279 384 390 676 680 808 815 831 851 941 979 1055 1074 1096 1134 1135 1136 1137 1138 1139 1140 1141 1142
24 247 324 418 423 660 667 805 826 835 838 932 995 1038 1072 1090 1143 1144 1145 1146 1147 1148 1149 1150 1151
24 187 296 397 409 688 693 793 800 822 861 920 990 1062 1085 1101 1152 1153 1154 1155 1156 1157 1158 1159 1160
24 173 179 262 371 548 601 614 769 865 901 905 986 1019 1086 1130 1131 1161 1162 1163 1164 1165 1166 1167 1168
24 148 154 269 377 530 568 580 790 847 890 898 994 1008 1079 1112 1113 1169 1170 1171 1172 1173 1174 1175 1176
24 120 126 264 372 510 585 592 756 853 875 882 977 1027 1099 1122 1123 1177 1178 1179 1180 1181 1182 1183 1184
24 232 295 304 396 556 653 731 732 734 862 866 965 971 1005 1017 1049 1185 1186 1187 1188 1189 1190 1191 1192
24 202 280 286 385 518 625 705 742 744 852 859 945 950 1016 1026 1042 1193 1194 1195 1196 1197 1198 1199 1200
24 216 325 331 419 542 641 716 717 720 840 848 958 964 1009 1031 1065 1201 1202 1203 1204 1205 1206 1207 1208
24 143 149 323 332 417 429 605 649 719 770 771 825 879 937 1050 1052 1209 1210 1211 1212 1213 1214 1215 1216
24 125 131 281 290 386 389 571 637 707 789 791 809 904 918 1066 1067 1217 1218 1219 1220 1221 1222 1223 1224
24 164 170 297 309 398 406 588 618 733 759 760 792 892 927 1037 1039 1225 1226 1227 1228 1229 1230 1231 1232
24 100 106 196 379 804 837 841 1057 1061 1108 1159 1220 1233 1234 1235 1236 1237 1238 1239 1240 1241 1242 1243 1244
24 96 108 211 414 820 864 867 1045 1051 1129 1139 1212 1233 1245 1246 1247 1248 1249 1250 1251 1252 1253 1254 1255
24 93 102 242 402 828 849 858 1033 1041 1118 1150 1228 1234 1245 1256 1257 1258 1259 1260 1261 1262 1263 1264 1265
24 76 85 140 152 360 375 736 765 1024 1117 1178 1213 1266 1267 1268 1269 1270 1271 1272 1273 1274 1275 1276 1277
24 50 57 127 132 366 373 722 780 1013 1127 1162 1221 1269 1278 1279 1280 1281 1282 1283 1284 1285 1286 1287 1288
24 28 34 176 180 364 369 704 747 1002 1107 1170 1230 1268 1278 1289 1290 1291 1292 1293 1294 1295 1296 1297 1298
24 73 169 399 405 774 833 863 1082 1089 1154 1164 1167 1253 1256 1262 1267 1299 1300 1301 1302 1303 1304 1305 1306
24 30 129 381 387 754 801 850 1094 1102 1136 1179 1184 1235 1238 1265 1289 1307 1308 1309 1310 1311 1312 1313 1314
24 48 150 421 430 788 817 839 1070 1076 1145 1171 1175 1243 1246 1255 1279 1315 1316 1317 1318 1319 1320 1321 1322
24 80 240 245 424 718 777 783 871 1004 1058 1188 1191 1252 1266 1284 1286 1315 1319 1323 1324 1325 1326 1327 1328
24 59 221 225 391 706 749 758 846 1029 1035 1204 1206 1244 1280 1297 1298 1307 1314 1329 1330 1331 1332 1333 1334
24 36 186 198 408 735 762 767 856 1018 1046 1196 1199 1259 1272 1275 1290 1299 1301 1335 1336 1337 1338 1339 1340
24 317 326 342 348 453 465 832 836 938 984 1080 1098 1103 1115 1140 1142 1143 1210 1341 1342 1343 1344 1345 1346
24 303 311 339 346 488 496 799 802 925 975 1077 1078 1093 1104 1147 1149 1153 1227 1345 1347 1348 1349 1350 1351
24 277 283 352 355 472 479 814 819 916 992 1069 1087 1088 1124 1135 1158 1160 1218 1346 1349 1352 1353 1354 1355
24 299 310 341 433 868 935 960 983 988 1060 1132 1133 1152 1157 1166 1185 1354 1356 1357 1358 1359 1360 1361 1362
24 322 328 350 437 843 914 951 991 998 1043 1110 1111 1144 1151 1174 1202 1351 1363 1364 1365 1366 1367 1368 1369
24 273 282 351 438 854 928 970 976 981 1048 1120 1121 1134 1138 1181 1194 1343 1370 1371 1372 1373 1374 1375 1376
24 327 349 354 478 727 729 883 962 1014 1022 1028 1125 1192 1201 1205 1211 1358 1360 1377 1378 1379 1380 1381 1382
24 312 340 343 466 741 743 896 973 999 1003 1030 1116 1187 1190 1198 1225 1372 1374 1377 1383 1384 1385 1386 1387
24 284 347 353 497 712 715 906 953 1007 1012 1020 1106 1195 1200 1208 1219 1365 1369 1379 1384 1388 1389 1390 1391
24 255 345 489 495 772 876 884 966 989 1011 1053 1092 1100 1183 1215 1216 1344 1361 1378 1381 1392 1393 1394 1395
24 254 344 458 467 782 900 909 956 996 1001 1064 1081 1091 1168 1223 1224 1355 1367 1388 1391 1396 1397 1398 1399
24 259 356 469 477 753 889 894 946 980 1021 1040 1068 1075 1173 1231 1232 1350 1376 1383 1387 1400 1401 1402 1403
24 231 234 306 460 1059 1084 1146 1148 1237 1257 1260 1302 1322 1323 1347 1368 1396 1399 1404 1405 1406 1407 1408 1409
24 192 201 285 498 1047 1097 1155 1156 1236 1241 1249 1304 1310 1335 1352 1359 1392 1394 1410 1411 1412 1413 1414 1415
24 214 217 329 480 1034 1073 1137 1141 1247 1251 1264 1313 1318 1330 1342 1375 1401 1402 1416 1417 1418 1419 1420 1421
24 236 320 435 441 1044 1054 1119 1189 1209 1250 1273 1276 1324 1328 1338 1370 1373 1386 1421 1422 1423 1424 1425 1426
24 208 274 439 448 1056 1063 1128 1207 1217 1240 1283 1285 1325 1329 1331 1357 1362 1382 1415 1423 1427 1428 1429 1430
24 190 300 434 445 1032 1036 1109 1197 1226 1263 1293 1295 1334 1336 1339 1363 1366 1390 1407 1422 1427 1431 1432 1433
24 146 155 258 267 468 483 1083 1126 1161 1214 1248 1254 1270 1303 1306 1316 1353 1393 1412 1413 1417 1434 1435 1436
24 166 172 252 261 456 462 1095 1114 1177 1229 1258 1261 1292 1300 1309 1311 1341 1400 1405 1418 1420 1434 1437 1438
24 118 121 256 265 490 503 1071 1105 1169 1222 1239 1242 1281 1308 1317 1320 1348 1397 1408 1409 1410 1435 1438 1439
24 163 301 308 486 1010 1015 1163 1165 1186 1287 1288 1291 1305 1327 1337 1356 1389 1398 1404 1406 1430 1431 1433 1439
24 144 318 333 454 1000 1006 1172 1176 1203 1271 1294 1296 1321 1326 1333 1364 1385 1403 1416 1419 1424 1426 1432 1437
24 123 276 288 471 1023 1025 1180 1182 1193 1274 1277 1282 1312 1332 1340 1371 1380 1395 1411 1414 1425 1428 1429 1436
