# Generated using Miratope v0.5.0 (https://github.com/galoomba1/miratope-rs)
4OFF

# Vertices, Faces, Edges, Cells
120 720 1200 120

# Vertices
0.809016994374945 0.809016994374945 0.809016994374945 0.809016994374945 
0.809016994374945 0.809016994374945 0.809016994374945 -0.809016994374945 
1.61803398874989 0 0 0 
0.809016994374945 0 -0.5 1.30901699437495 
-0.5 1.30901699437495 0.809016994374945 0 
-0.5 0.809016994374945 0 1.30901699437495 
0.809016994374945 0 -0.5 -1.30901699437495 
-0.5 0.809016994374945 0 -1.30901699437495 
0.809016994374945 -0.5 -1.30901699437495 0 
-0.5 0 -1.30901699437495 0.809016994374945 
-1.30901699437495 0.809016994374945 -0.5 0 
-0.5 0 -1.30901699437495 -0.809016994374945 
0.809016994374945 0.809016994374945 -0.809016994374945 -0.809016994374945 
0.809016994374945 -0.809016994374945 -0.809016994374945 -0.809016994374945 
0.809016994374945 1.30901699437495 0 0.5 
-0.5 1.30901699437495 -0.809016994374945 0 
0.809016994374945 -1.30901699437495 0 0.5 
-0.5 -1.30901699437495 -0.809016994374945 0 
0.809016994374945 0 0.5 1.30901699437495 
-0.5 -0.809016994374945 0 1.30901699437495 
-1.30901699437495 0 -0.809016994374945 0.5 
-0.809016994374945 -0.809016994374945 -0.809016994374945 -0.809016994374945 
0 0 -1.61803398874989 0 
1.30901699437495 -0.809016994374945 0.5 0 
1.30901699437495 0 -0.809016994374945 0.5 
0 -1.30901699437495 0.5 -0.809016994374945 
-1.30901699437495 -0.809016994374945 0.5 0 
0 0.5 -0.809016994374945 1.30901699437495 
-0.809016994374945 0 0.5 1.30901699437495 
0 -0.809016994374945 1.30901699437495 0.5 
-0.809016994374945 -0.809016994374945 -0.809016994374945 0.809016994374945 
-1.61803398874989 0 0 0 
0.5 -0.809016994374945 0 1.30901699437495 
0.5 -1.30901699437495 -0.809016994374945 0 
-0.809016994374945 0 0.5 -1.30901699437495 
0.5 -0.809016994374945 0 -1.30901699437495 
-0.809016994374945 0.5 1.30901699437495 0 
0.5 0 1.30901699437495 0.809016994374945 
0.5 0 1.30901699437495 -0.809016994374945 
-0.809016994374945 0.809016994374945 0.809016994374945 0.809016994374945 
0 0 1.61803398874989 0 
1.30901699437495 0.809016994374945 -0.5 0 
1.30901699437495 0 0.809016994374945 -0.5 
0 1.30901699437495 -0.5 0.809016994374945 
-1.30901699437495 0 0.809016994374945 -0.5 
0 -0.5 0.809016994374945 -1.30901699437495 
0 0.809016994374945 -1.30901699437495 -0.5 
-0.809016994374945 0 -0.5 -1.30901699437495 
-0.809016994374945 -0.809016994374945 0.809016994374945 0.809016994374945 
0.5 1.30901699437495 0.809016994374945 0 
-0.809016994374945 1.30901699437495 0 -0.5 
0.5 -1.30901699437495 0.809016994374945 0 
-0.809016994374945 -1.30901699437495 0 -0.5 
0.5 0.809016994374945 0 -1.30901699437495 
0.809016994374945 0.809016994374945 -0.809016994374945 0.809016994374945 
0 0 0 1.61803398874989 
0.809016994374945 1.30901699437495 0 -0.5 
-0.5 0 1.30901699437495 0.809016994374945 
0 0.809016994374945 1.30901699437495 -0.5 
-1.30901699437495 -0.5 0 0.809016994374945 
-1.30901699437495 0 -0.809016994374945 -0.5 
0.809016994374945 -0.809016994374945 -0.809016994374945 0.809016994374945 
0 1.30901699437495 0.5 0.809016994374945 
0 -1.30901699437495 0.5 0.809016994374945 
-1.30901699437495 0.809016994374945 0.5 0 
-0.809016994374945 0.809016994374945 0.809016994374945 -0.809016994374945 
-0.809016994374945 -0.809016994374945 0.809016994374945 -0.809016994374945 
0 1.30901699437495 -0.5 -0.809016994374945 
0 -1.30901699437495 -0.5 -0.809016994374945 
1.30901699437495 0 0.809016994374945 0.5 
1.30901699437495 -0.809016994374945 -0.5 0 
0.5 0 -1.30901699437495 -0.809016994374945 
0 0 0 -1.61803398874989 
-0.809016994374945 -1.30901699437495 0 0.5 
0 -0.809016994374945 -1.30901699437495 0.5 
1.30901699437495 0.5 0 -0.809016994374945 
-0.809016994374945 0.809016994374945 -0.809016994374945 0.809016994374945 
0 -0.809016994374945 1.30901699437495 -0.5 
0.809016994374945 -0.809016994374945 0.809016994374945 -0.809016994374945 
0 0.809016994374945 -1.30901699437495 0.5 
0 1.61803398874989 0 0 
1.30901699437495 -0.5 0 0.809016994374945 
0.809016994374945 -0.5 1.30901699437495 0 
0.809016994374945 -1.30901699437495 0 -0.5 
0 -0.5 -0.809016994374945 -1.30901699437495 
1.30901699437495 0.809016994374945 0.5 0 
1.30901699437495 0 -0.809016994374945 -0.5 
-0.809016994374945 -0.5 1.30901699437495 0 
0 -1.61803398874989 0 0 
-1.30901699437495 0.5 0 -0.809016994374945 
-0.809016994374945 0.5 -1.30901699437495 0 
0 0.5 0.809016994374945 1.30901699437495 
-0.809016994374945 1.30901699437495 0 0.5 
0.809016994374945 0.5 -1.30901699437495 0 
-1.30901699437495 0 0.809016994374945 0.5 
-1.30901699437495 -0.809016994374945 -0.5 0 
0 -0.5 -0.809016994374945 1.30901699437495 
0.809016994374945 0 0.5 -1.30901699437495 
-0.809016994374945 0 -0.5 1.30901699437495 
0 0.5 0.809016994374945 -1.30901699437495 
0.809016994374945 -0.809016994374945 0.809016994374945 0.809016994374945 
0 -1.30901699437495 -0.5 0.809016994374945 
0 -0.809016994374945 -1.30901699437495 -0.5 
0.5 0 -1.30901699437495 0.809016994374945 
1.30901699437495 0.5 0 0.809016994374945 
-0.809016994374945 0.809016994374945 -0.809016994374945 -0.809016994374945 
0 1.30901699437495 0.5 -0.809016994374945 
0 0.809016994374945 1.30901699437495 0.5 
-0.5 0 1.30901699437495 -0.809016994374945 
-1.30901699437495 -0.5 0 -0.809016994374945 
-1.30901699437495 0.5 0 0.809016994374945 
1.30901699437495 -0.5 0 -0.809016994374945 
0 -0.5 0.809016994374945 1.30901699437495 
-0.5 -1.30901699437495 0.809016994374945 0 
0 0.5 -0.809016994374945 -1.30901699437495 
0.5 1.30901699437495 -0.809016994374945 0 
0.5 0.809016994374945 0 1.30901699437495 
-0.809016994374945 -0.5 -1.30901699437495 0 
-0.5 -0.809016994374945 0 -1.30901699437495 
0.809016994374945 0.5 1.30901699437495 0 

# Faces
5 3 0 1 6 8
5 0 5 10 7 1
5 0 2 6 7 4
5 0 5 9 8 2
5 0 4 10 9 3
5 2 1 4 5 3
5 2 1 7 11 8
5 1 4 10 11 6
5 2 3 9 11 6
5 3 5 10 11 8
5 4 5 9 11 7
5 8 9 10 7 6
5 13 12 14 18 16
5 12 13 17 20 15
5 2 12 15 5 18
5 12 2 16 17 11
5 12 14 5 20 11
5 13 17 19 18 2
5 13 11 15 14 2
5 16 13 11 20 19
5 14 2 16 19 5
5 18 19 20 15 14
5 16 18 5 20 17
5 5 19 17 11 15
5 13 21 26 29 23
5 13 21 20 27 24
5 13 22 27 18 23
5 13 22 20 26 25
5 18 24 13 25 29
5 22 27 28 26 21
5 24 22 21 25 23
5 21 20 28 29 25
5 24 22 20 28 18
5 23 18 28 26 25
5 18 27 20 26 29
5 29 23 24 27 28
5 21 34 36 28 30
5 21 35 23 32 30
5 30 31 36 37 32
5 34 31 30 33 35
5 30 28 37 23 33
5 21 31 28 32 33
5 21 35 38 36 31
5 21 33 23 38 34
5 31 28 37 38 34
5 37 23 35 34 36
5 37 38 35 33 32
5 23 32 28 36 38
5 39 10 46 41 0
5 0 39 44 45 42
5 0 40 45 6 41
5 0 40 44 10 43
5 0 43 46 6 42
5 40 42 41 43 39
5 40 45 47 10 39
5 39 44 47 46 43
5 42 6 47 44 40
5 42 41 46 47 45
5 10 43 41 6 47
5 46 10 44 45 6
5 49 39 48 51 42
5 48 52 47 50 39
5 39 49 53 47 31
5 31 39 37 51 52
5 37 39 50 53 42
5 31 50 49 37 48
5 31 48 51 35 47
5 37 42 35 52 48
5 31 52 35 53 50
5 51 37 49 53 35
5 42 35 47 50 49
5 42 53 47 52 51
5 54 9 59 57 0
5 0 54 46 7 58
5 56 0 55 9 46
5 0 55 59 44 58
5 56 7 44 57 0
5 56 54 55 57 58
5 54 55 59 60 46
5 54 56 7 60 9
5 55 9 60 44 57
5 58 44 60 46 56
5 57 58 7 60 59
5 59 9 46 7 44
5 54 62 57 63 61
5 61 54 15 60 17
5 22 17 63 18 54
5 22 54 62 64 60
5 54 18 57 64 15
5 18 61 22 15 62
5 63 61 22 60 26
5 57 18 61 17 26
5 22 17 26 64 15
5 62 64 26 63 18
5 62 57 26 60 15
5 63 57 64 60 17
5 49 65 66 51 69
5 65 66 68 71 67
5 65 67 41 69 40
5 65 40 51 68 47
5 41 49 65 47 71
5 66 40 49 67 47
5 40 69 70 68 66
5 66 47 71 70 51
5 40 49 41 70 51
5 69 49 67 71 70
5 41 71 68 51 69
5 70 41 67 47 68
5 21 66 38 75 71
5 66 21 74 32 29
5 72 66 29 69 75
5 66 72 71 74 73
5 69 38 66 73 32
5 72 21 73 29 38
5 72 21 74 24 75
5 21 71 24 32 73
5 72 71 24 69 38
5 75 69 32 74 71
5 24 69 29 73 74
5 24 32 29 38 75
5 30 76 62 37 63
5 76 50 34 52 30
5 76 55 37 58 50
5 55 76 60 52 63
5 76 60 34 58 62
5 55 62 50 60 30
5 55 37 77 52 30
5 30 63 77 34 60
5 55 63 77 58 62
5 37 77 34 50 62
5 58 34 52 63 37
5 58 50 60 52 77
5 1 14 3 16 78
5 1 78 68 11 67
5 1 69 16 68 72
5 1 14 79 11 72
5 1 69 3 79 67
5 72 78 69 14 67
5 16 78 72 11 74
5 78 68 74 3 69
5 67 79 74 68 72
5 69 14 79 74 16
5 3 14 67 11 74
5 79 3 16 68 11
5 0 54 8 83 82
5 80 46 8 81 0
5 82 0 80 7 45
5 58 0 81 83 45
5 54 81 82 58 80
5 80 7 84 8 54
5 54 46 84 83 81
5 58 45 84 46 80
5 82 45 84 8 81
5 58 7 84 83 82
5 83 45 7 46 8
5 37 63 33 86 85
5 37 85 53 34 87
5 81 63 87 58 85
5 81 85 53 84 33
5 86 85 58 34 84
5 37 81 86 53 58
5 37 81 33 52 87
5 52 84 86 81 63
5 87 58 53 84 52
5 34 53 86 33 52
5 63 33 84 34 87
5 66 36 92 90 21
5 36 66 88 32 91
5 88 66 89 90 74
5 91 29 66 89 92
5 21 88 29 36 89
5 88 32 27 90 21
5 74 27 92 89 21
5 88 74 27 91 29
5 32 91 92 90 74
5 91 27 90 89 36
5 92 27 32 29 36
5 14 67 89 94 91
5 14 91 19 74 93
5 14 3 19 94 4
5 93 14 4 89 11
5 91 4 67 93 3
5 74 95 94 91 3
5 91 19 95 89 4
5 3 19 95 11 93
5 67 11 95 94 4
5 19 74 11 89 94
5 67 93 74 95 89
5 18 54 12 97 82
5 96 54 12 84 17
5 54 22 84 97 85
5 54 96 63 82 85
5 22 96 18 85 12
5 17 25 97 12 22
5 85 12 84 25 82
5 96 63 25 84 22
5 63 25 97 85 18
5 18 96 17 25 82
5 82 63 17 84 97
5 48 66 99 49 91
5 66 48 98 90 47
5 40 48 98 43 49
5 48 40 99 47 95
5 91 43 90 95 48
5 40 91 98 95 66
5 99 67 90 95 66
5 91 43 67 99 40
5 49 67 90 98 91
5 49 99 47 90 43
5 98 95 47 67 43
5 0 100 83 6 56
5 100 0 43 9 101
5 42 83 101 55 0
5 55 100 42 56 43
5 55 9 102 83 100
5 6 102 101 100 42
5 101 55 43 46 102
5 56 46 102 83 42
5 6 56 43 9 102
5 46 9 101 83 6
5 37 104 103 30 48
5 30 102 35 77 48
5 48 55 104 42 77
5 48 52 102 103 55
5 104 55 30 102 86
5 52 35 86 103 30
5 37 55 103 86 42
5 104 37 77 35 86
5 42 35 102 103 104
5 52 102 86 42 77
5 92 105 21 73 28
5 21 25 38 106 105
5 92 105 72 38 107
5 105 20 73 25 72
5 105 20 28 107 106
5 21 20 92 106 72
5 72 25 29 107 106
5 73 20 92 107 29
5 107 28 73 25 38
5 29 28 92 106 38
5 107 1 12 79 5
5 12 11 109 108 1
5 72 1 107 94 109
5 14 1 108 94 5
5 14 107 108 72 12
5 79 12 72 109 20
5 11 20 94 108 72
5 14 107 94 20 79
5 5 20 109 108 107
5 5 79 11 109 94
5 48 100 104 43 110
5 95 102 70 100 48
5 88 102 93 104 100
5 88 100 91 110 95
5 43 91 100 70 93
5 48 88 70 104 91
5 110 48 88 102 90
5 88 95 90 93 70
5 91 110 90 93 104
5 70 104 43 90 102
5 93 43 110 95 102
5 85 107 64 105 12
5 105 109 25 111 12
5 12 111 82 107 80
5 84 109 64 80 12
5 80 107 87 109 105
5 105 80 85 111 84
5 25 87 64 105 84
5 80 85 82 87 64
5 85 107 87 25 111
5 82 25 109 64 107
5 82 111 84 109 87
5 112 0 1 45 113
5 80 0 112 59 10
5 82 0 5 59 113
5 82 1 80 5 112
5 80 1 45 109 10
5 7 109 113 82 1
5 80 7 109 59 5
5 45 109 59 112 82
5 5 112 113 109 10
5 7 10 59 113 45
5 69 112 94 65 1
5 111 1 65 109 68
5 112 107 1 111 16
5 72 111 69 107 65
5 72 65 94 73 68
5 65 109 73 112 107
5 109 73 16 111 72
5 107 69 16 73 94
5 111 69 112 73 68
5 94 112 16 68 109
5 61 104 62 110 30
5 60 114 86 61 30
5 55 62 56 86 61
5 55 61 102 60 110
5 104 61 102 114 56
5 110 30 102 114 50
5 104 55 110 50 56
5 86 114 50 62 104
5 62 56 114 60 110
5 50 56 86 102 60
5 30 21 114 115 27
5 30 88 23 104 27
5 30 88 35 114 90
5 104 32 30 90 115
5 88 21 114 75 23
5 21 90 115 75 35
5 88 32 104 75 35
5 115 104 23 35 114
5 104 27 90 114 75
5 23 75 115 27 32
5 96 20 64 107 18
5 108 107 18 16 25
5 5 18 82 108 64
5 82 107 5 96 16
5 109 17 16 82 108
5 96 17 109 64 5
5 20 64 108 25 17
5 20 96 16 25 109
5 104 49 99 35 70
5 50 90 103 104 49
5 104 43 50 99 42
5 49 43 103 70 42
5 70 42 99 47 102
5 102 47 50 43 103
5 103 90 47 35 70
5 35 99 50 90 102
5 39 116 41 53 65
5 98 39 65 47 117
5 116 39 31 117 103
5 49 41 103 98 39
5 49 116 98 31 65
5 65 31 117 71 53
5 31 98 103 71 47
5 49 53 71 103 116
5 41 71 117 98 116
5 53 47 117 103 41
5 76 30 33 86 115
5 31 76 115 53 34
5 76 31 52 33 103
5 50 76 103 86 53
5 50 31 30 103 115
5 86 35 34 50 115
5 53 35 33 103 115
5 61 23 77 26 30
5 22 114 97 23 61
5 63 77 97 86 61
5 63 23 86 22 30
5 30 22 114 34 26
5 86 22 60 34 97
5 86 23 77 34 114
5 97 23 63 26 34
5 77 26 60 114 97
5 61 18 119 97 13
5 61 19 26 118 13
5 61 2 119 57 19
5 61 17 118 97 2
5 13 118 108 119 2
5 17 26 108 97 13
5 2 18 57 108 97
5 19 18 119 108 26
5 26 118 97 119 57
5 17 118 108 57 19
5 65 1 41 79 10
5 40 1 41 3 112
5 1 40 94 10 67
5 65 40 112 98 10
5 67 79 98 94 65
5 40 69 3 98 94
5 112 69 41 79 98
5 41 3 98 10 67
5 94 10 79 3 112
5 78 1 4 94 113
5 1 2 16 113 108
5 14 2 78 108 4
5 2 78 113 19 3
5 19 16 78 108 94
5 5 3 16 113 94
5 5 4 108 113 19
5 107 65 105 79 116
5 105 65 38 111 71
5 72 65 92 79 71
5 92 116 69 38 65
5 72 105 79 24 111
5 24 71 105 92 116
5 111 71 79 116 69
5 24 69 107 92 79
5 24 116 107 38 111
5 21 33 24 115 105
5 22 105 106 85 24
5 22 105 34 25 33
5 38 85 115 105 34
5 115 22 21 34 106
5 115 85 23 33 22
5 25 34 106 85 23
5 25 33 24 85 38
5 24 23 38 106 115
5 57 100 61 9 110
5 102 118 77 100 61
5 77 100 55 110 44
5 57 100 83 118 44
5 57 77 83 61 55
5 9 61 83 118 60
5 77 118 60 110 57
5 83 77 44 60 102
5 110 9 102 118 44
5 4 0 100 113 44
5 40 0 3 101 113
5 40 4 43 3 100
5 100 40 44 95 101
5 9 95 113 100 3
5 40 4 10 95 113
5 43 3 101 95 10
5 43 9 95 44 4
5 44 10 9 101 113
5 12 106 108 25 13
5 12 72 25 16 24
5 106 12 24 18 107
5 24 13 72 106 14
5 108 29 16 13 72
5 14 18 29 108 106
5 29 16 24 14 107
5 39 48 101 103 43
5 50 39 55 103 46
5 101 52 44 39 55
5 55 43 50 44 48
5 47 102 101 48 44
5 50 46 102 52 44
5 46 103 101 52 47
5 48 32 70 35 66
5 90 31 48 32 103
5 51 48 98 103 70
5 98 31 66 51 32
5 66 35 71 90 31
5 71 90 98 32 70
5 103 32 51 35 71
5 48 100 42 99 44
5 40 100 70 6 99
5 42 40 48 101 70
5 47 95 101 70 6
5 6 99 44 95 102
5 57 0 2 83 113
5 100 2 56 4 57
5 100 2 6 118 113
5 118 7 56 2 83
5 118 6 56 4 44
5 113 57 4 7 118
5 6 7 44 113 83
5 64 7 12 54 5
5 54 5 57 82 2
5 15 54 2 97 7
5 2 82 108 7 12
5 12 97 108 64 15
5 57 82 97 7 64
5 15 7 108 57 5
5 28 116 115 105 31
5 73 31 105 71 33
5 92 31 21 71 115
5 32 116 92 31 73
5 116 28 73 33 24
5 116 32 33 71 115
5 28 92 115 24 32
5 20 105 12 24 96
5 20 64 106 12 22
5 22 105 64 28 96
5 28 18 85 106 64
5 107 85 24 96 28
5 42 77 44 50 56
5 50 58 42 86 46
5 83 52 44 58 42
5 56 58 77 83 86
5 60 52 83 86 46
5 54 85 58 64 76
5 86 54 76 60 84
5 86 54 62 58 97
5 86 85 62 76 22
5 84 22 76 64 34
5 85 62 64 34 97
5 84 60 64 58 97
5 69 29 94 92 14
5 20 74 24 14 92
5 73 16 24 79 20
5 73 94 92 79 74
5 94 29 16 74 20
5 78 69 91 94 66
5 66 95 74 70 78
5 91 3 70 78 40
5 94 95 68 78 40
5 94 66 68 74 98
5 70 74 98 91 69
5 98 95 68 70 3
5 0 81 101 59 39
5 41 8 101 112 0
5 39 80 41 81 112
5 39 80 46 117 59
5 112 39 10 117 101
5 41 80 10 117 8
5 81 41 46 117 101
5 81 112 59 117 8
5 10 46 8 101 59
5 37 39 76 103 81
5 39 87 52 117 76
5 116 81 51 87 39
5 76 31 87 37 116
5 76 116 81 33 117
5 87 31 117 33 51
5 37 116 103 33 51
5 117 52 51 81 103
5 14 119 78 13 93
5 13 78 108 89 11
5 11 118 78 2 93
5 78 119 4 89 118
5 13 93 15 89 118
5 2 119 4 15 93
5 119 14 15 89 108
5 11 118 108 4 15
5 21 13 75 106 89
5 29 119 75 13 88
5 26 88 13 114 89
5 23 119 106 114 13
5 21 26 36 106 114
5 23 88 26 36 119
5 36 119 75 114 89
5 26 89 106 119 29
5 29 36 106 75 23
5 116 69 51 73 98
5 116 41 111 51 112
5 79 116 112 73 117
5 111 41 79 117 68
5 68 117 98 112 51
5 111 71 117 73 51
5 68 73 98 79 71
5 62 110 26 77 119
5 62 119 97 114 15
5 57 119 56 15 110
5 118 114 56 119 77
5 57 77 97 56 62
5 15 60 118 97 56
5 118 114 15 110 26
5 73 87 65 105 117
5 112 87 65 80 116
5 109 117 79 80 65
5 105 117 96 116 80
5 109 105 79 96 73
5 107 112 96 79 80
5 87 107 116 96 73
5 87 112 96 117 109
5 61 100 119 56 93
5 100 119 99 118 88
5 100 77 99 56 104
5 77 88 61 104 119
5 61 93 114 118 88
5 88 77 99 114 102
5 104 119 99 114 93
5 93 102 118 99 56
5 33 63 28 76 22
5 115 85 37 28 76
5 28 30 22 115 62
5 23 85 62 28 63
5 23 86 115 62 37
5 6 1 40 113 68
5 4 40 78 6 67
5 113 95 11 6 78
5 10 67 6 68 95
5 11 10 94 113 68
5 13 61 27 15 114
5 61 27 62 119 23
5 22 15 106 97 13
5 22 27 62 106 114
5 119 18 27 15 106
5 23 18 62 106 97
5 112 39 65 45 51
5 39 98 101 51 40
5 117 10 65 45 68
5 112 40 45 68 101
5 10 98 101 68 47
5 47 117 101 51 45
5 87 28 76 105 34
5 76 105 84 33 96
5 64 87 63 96 76
5 96 33 25 87 28
5 25 63 28 64 34
5 78 100 91 4 99
5 3 93 6 78 100
5 93 67 99 78 70
5 70 3 43 67 6
5 43 93 6 99 4
5 65 66 73 98 92
5 66 94 92 67 72
5 98 74 71 67 92
5 61 54 56 97 83
5 86 54 55 63 83
5 57 58 97 83 63
5 78 13 74 19 29
5 78 119 91 19 88
5 74 93 75 78 88
5 91 29 78 75 14
5 88 13 93 27 19
5 13 74 27 14 75
5 14 119 29 19 27
5 75 93 27 91 119
5 76 39 58 53 46
5 80 39 87 45 53
5 39 58 45 52 59
5 58 87 59 76 80
5 76 117 84 53 80
5 46 76 59 52 84
5 59 87 45 84 117
5 117 46 53 45 52
5 1 41 8 68 45
5 3 41 6 68 101
5 8 68 113 112 3
5 113 45 6 8 101
5 30 27 62 36 26
5 115 62 36 34 114
5 26 34 106 62 28
5 28 36 106 115 27
5 38 87 28 116 85
5 96 33 111 85 116
5 24 111 25 73 96
5 73 87 38 111 33
5 4 110 9 93 56
5 43 56 99 44 110
5 99 4 110 95 118
5 118 95 9 93 6
5 116 32 51 38 49
5 37 49 115 103 32
5 35 71 115 49 38
5 38 53 115 116 37
5 53 38 51 33 71
5 57 4 15 9 19
5 113 57 5 9 17
5 118 17 9 15 7
5 113 118 11 9 19
5 113 17 11 7 108
5 69 49 92 98 32
5 91 69 75 67 92
5 91 49 75 70 32
5 92 49 75 71 90
5 70 74 90 67 75
5 59 17 83 82 57
5 58 64 59 63 82
5 84 17 59 64 7
5 7 97 83 17 60
5 84 60 59 63 83
5 39 58 42 81 55
5 86 46 76 55 81
5 53 46 103 81 42
5 94 29 78 72 89
5 13 74 20 89 72
5 29 19 20 89 108
5 116 85 53 105 76
5 105 53 38 87 31
5 30 90 50 36 48
5 104 32 48 36 49
5 115 49 36 31 90
5 37 36 50 115 104
5 12 1 82 16 8
5 109 17 8 12 7
5 8 17 113 82 2
5 113 109 11 8 16
5 78 118 95 19 100
5 2 93 9 19 100
5 65 38 51 73 31
5 38 66 31 92 49
5 9 17 83 2 54
5 61 2 56 15 9
5 4 110 19 100 119
5 95 88 78 99 89
5 118 89 110 19 88
5 119 91 110 89 99
5 85 80 76 96 81
5 105 117 33 111 53
5 116 81 111 53 80
5 96 81 111 84 117
5 1 80 79 8 111
5 5 80 12 8 96
5 12 79 96 16 111
5 111 82 112 96 8
5 5 79 8 16 112
5 88 48 36 99 35
5 110 48 77 99 50
5 110 36 77 88 30
5 77 36 50 114 35
5 110 36 99 114 90
5 80 41 111 45 65
5 65 87 51 111 53
5 41 53 45 51 81
5 112 87 45 111 81
5 59 52 83 81 55
5 42 81 101 52 45
5 45 44 59 101 83
5 89 72 75 14 92
5 14 27 20 89 106
5 24 27 92 106 75
5 26 110 27 61 88
5 15 110 19 61 93
5 19 27 15 89 26
5 114 93 27 110 89
5 76 54 81 63 59
5 80 64 59 96 54
5 87 82 81 96 59
5 89 67 75 78 66
5 66 99 75 70 88
5 93 90 89 99 75
5 41 103 101 51 42
5 43 41 70 101 98
5 15 106 108 26 20
5 25 26 64 106 97
5 45 111 8 117 109
5 10 109 68 8 79
5 36 110 27 104 119
5 104 23 77 36 62
5 5 54 8 17 59
5 8 84 109 59 96
5 66 35 75 49 36
5 91 36 99 75 104
5 9 8 83 113 59
5 36 92 115 75 38

# Cells
12 0 1 2 3 4 5 6 7 8 9 10 11
12 12 13 14 15 16 17 18 19 20 21 22 23
12 24 25 26 27 28 29 30 31 32 33 34 35
12 36 37 38 39 40 41 42 43 44 45 46 47
12 48 49 50 51 52 53 54 55 56 57 58 59
12 60 61 62 63 64 65 66 67 68 69 70 71
12 72 73 74 75 76 77 78 79 80 81 82 83
12 84 85 86 87 88 89 90 91 92 93 94 95
12 96 97 98 99 100 101 102 103 104 105 106 107
12 108 109 110 111 112 113 114 115 116 117 118 119
12 120 121 122 123 124 125 126 127 128 129 130 131
12 132 133 134 135 136 137 138 139 140 141 142 143
12 73 144 145 146 147 148 149 150 151 152 153 154
12 130 155 156 157 158 159 160 161 162 163 164 165
12 109 166 167 168 169 170 171 172 173 174 175 176
12 142 177 178 179 180 181 182 183 184 185 186 187
12 86 188 189 190 191 192 193 194 195 196 197 198
12 101 199 200 201 202 203 204 205 206 207 208 209
12 52 74 210 211 212 213 214 215 216 217 218 219
12 67 126 220 221 222 223 224 225 226 227 228 229
12 31 113 230 231 232 233 234 235 236 237 238 239
12 16 135 240 241 242 243 244 245 246 247 248 249
12 203 250 251 252 253 254 255 256 257 258 259 260
12 194 261 262 263 264 265 266 267 268 269 270 271
12 1 146 272 273 274 275 276 277 278 279 280 281
12 134 242 282 283 284 285 286 287 288 289 290 291
12 125 224 292 293 294 295 296 297 298 299 300 301
12 37 171 302 303 304 305 306 307 308 309 310 311
12 22 197 248 270 312 313 314 315 316 317 318 319
12 70 208 228 259 320 321 322 323 324 325 326 327
12 62 100 328 329 330 331 332 333 334 335 336 337
12 39 68 121 164 225 338 339 340 341 342 343 344
12 90 127 293 345 346 347 348 349 350 351 352 353
12 17 91 354 355 356 357 358 359 360 361 362 363
12 98 136 282 364 365 366 367 368 369 370 371 372
12 5 20 132 179 243 373 374 375 376 377 378 379
12 116 232 285 380 381 382 383 384 385 386 387 388
12 30 43 231 389 390 391 392 393 394 395 396 397
12 80 214 295 398 399 400 401 402 403 404 405 406
12 4 51 211 407 408 409 410 411 412 413 414 415
12 12 28 236 244 313 416 417 418 419 420 421 422
12 55 61 216 223 325 423 424 425 426 427 428 429
12 66 103 200 326 334 430 431 432 433 434 435 436
12 56 202 215 251 324 410 427 437 438 439 440 441
12 2 76 210 401 407 442 443 444 445 446 447 448
12 14 88 188 314 360 449 450 451 452 453 454 455
12 41 115 230 385 389 456 457 458 459 460 461 462
12 32 192 234 261 312 390 418 463 464 465 466 467
12 81 131 217 229 301 405 428 468 469 470 471 472
12 87 124 159 190 350 473 474 475 476 477 478 479
12 118 141 237 247 289 387 422 480 481 482 483 484
12 102 139 182 204 369 485 486 487 488 489 490 491
12 48 145 273 492 493 494 495 496 497 498 499 500
12 63 161 330 340 501 502 503 504 505 506 507 508
12 18 180 358 375 509 510 511 512 513 514 515 516
12 24 170 306 517 518 519 520 521 522 523 524 525
12 106 290 336 370 386 526 527 528 529 530 531 532
12 94 300 353 362 404 533 534 535 536 537 538 539
12 265 287 380 528 540 541 542 543 544 545 546 547
12 252 296 399 536 548 549 550 551 552 553 554 555
12 40 120 155 338 348 394 476 556 557 558 559 560
12 7 133 185 366 373 412 488 561 562 563 564 565
12 26 89 346 354 520 534 566 567 568 569 570 571
12 54 99 329 367 496 530 572 573 574 575 576 577
12 165 195 267 391 465 477 556 578 579 580 581 582
12 181 206 254 409 438 487 562 583 584 585 586 587
12 97 111 140 286 368 382 483 489 532 588 589 590
12 77 84 128 294 347 402 471 475 537 591 592 593
12 173 178 509 518 594 595 596 597 598 599 600 601
12 151 163 495 502 602 603 604 605 606 607 608 609
12 0 50 272 365 408 493 561 575 610 611 612 613
12 29 36 302 349 393 521 558 569 614 615 616 617
12 238 269 388 396 460 467 546 581 618 619 620 621
12 218 260 406 414 441 446 555 587 622 623 624 625
12 46 69 335 344 436 461 507 626 627 628 629 630
12 10 23 363 379 447 455 516 631 632 633 634 635
12 105 117 174 207 435 490 590 636 637 638 639 640
12 82 95 153 198 454 479 593 641 642 643 644 645
12 64 122 160 226 341 424 469 501 602 646 647 648
12 19 138 186 246 377 420 484 510 594 649 650 651
12 44 156 339 392 456 504 557 578 618 629 652 653
12 38 65 220 305 321 342 431 627 654 655 656 657
12 6 15 241 277 316 374 452 635 658 659 660 661
12 8 184 376 411 444 511 563 584 625 634 662 663
12 96 112 332 383 433 459 526 588 626 636 664 665
12 79 85 357 403 445 451 538 591 633 644 666 667
12 183 253 512 549 583 595 624 662 668 669 670 671
12 158 266 505 543 579 606 619 652 672 673 674 675
12 240 263 275 284 315 545 658 676 677 678 679 680
12 221 256 297 304 327 553 654 681 682 683 684 685
12 328 494 503 527 541 572 603 674 686 687 688 689
12 49 75 147 212 425 470 492 604 646 690 691 692
12 25 114 172 235 419 481 517 599 650 693 694 695
12 355 513 519 539 552 566 598 670 696 697 698 699
12 148 157 191 268 473 580 605 642 672 700 701 702
12 168 187 205 257 486 585 596 640 669 703 704 705
12 53 60 104 201 323 331 423 432 439 573 706 707
12 13 27 92 193 318 359 416 453 464 568 708 709
12 276 283 364 497 529 542 574 610 676 686 710 711
12 292 303 345 522 533 551 567 614 683 696 712 713
12 33 93 196 352 395 466 478 559 571 582 616 709
12 58 107 209 371 413 440 491 564 576 586 611 707
12 110 137 169 177 480 485 589 597 637 649 693 703
12 78 123 150 162 472 474 592 607 645 647 690 700
12 149 189 264 278 317 449 643 659 677 701 714 715
12 167 199 255 308 320 430 638 655 681 704 716 717
12 9 143 249 280 291 372 378 565 612 661 680 711
12 45 129 227 299 309 343 351 560 615 657 684 713
12 333 381 457 506 531 540 621 630 653 664 673 687
12 356 398 443 514 535 548 622 631 663 667 668 697
12 11 59 83 154 219 281 415 448 500 613 692 718
12 35 47 119 176 239 311 397 462 525 617 695 719
12 3 72 144 274 442 450 632 641 660 666 714 718
12 42 108 166 307 434 458 628 639 656 665 716 719
12 21 34 361 421 515 524 570 600 651 694 698 708
12 57 71 337 429 498 508 577 609 648 688 691 706
12 213 222 250 298 322 400 426 437 468 550 623 682
12 233 245 262 288 319 384 417 463 482 544 620 678
12 175 258 310 523 554 601 671 685 699 705 712 717
12 152 271 279 499 547 608 675 679 689 702 710 715
