OFF
120 144 240
0.17116130791333478 0.56104536293077978 -0.037728109146794767
-0.43065371523871337 -0.11831457926959379 0.38213942572819992
0.52565104072432201 0.13039164769206646 0.22843052425214852
-0.41986753487499495 0.40733646145472824 0.057269216338813905
0.15370890147605165 -0.28947588718292838 0.48792293157752709
0.41986753487499479 -0.40733646145472846 -0.057269216338813794
-0.15370890147605146 0.28947588718292849 -0.48792293157752714
-0.17116130791333467 -0.56104536293077978 0.037728109146794767
0.43065371523871332 0.11831457926959385 -0.38213942572819998
-0.52565104072432201 -0.13039164769206657 -0.22843052425214846
0.43065371523871337 -0.11831457926959371 0.38213942572819998
-0.52565104072432212 0.13039164769206638 0.22843052425214838
0.41986753487499479 0.40733646145472824 0.057269216338814009
-0.15370890147605165 -0.28947588718292838 0.48792293157752709
-0.17116130791333456 0.56104536293077978 -0.037728109146794843
0.1537089014760514 0.28947588718292849 -0.48792293157752714
0.17116130791333478 -0.56104536293077978 0.037728109146794843
-0.43065371523871326 0.11831457926959371 -0.38213942572820003
0.52565104072432212 -0.13039164769206646 -0.22843052425214833
-0.4198675348749949 -0.40733646145472818 -0.057269216338814065
0.40733646145472846 -0.057269216338813531 0.41986753487499473
-0.28947588718292849 -0.4879229315775272 -0.15370890147605115
0.56104536293077978 0.037728109146794753 -0.17116130791333481
-0.11831457926959368 -0.38213942572819976 0.43065371523871349
0.13039164769206657 -0.22843052425214866 -0.52565104072432189
0.1183145792695935 0.38213942572819964 -0.43065371523871365
-0.13039164769206638 0.22843052425214877 0.52565104072432189
-0.40733646145472835 0.057269216338813586 -0.41986753487499479
0.28947588718292838 0.4879229315775272 0.15370890147605121
-0.56104536293077978 -0.037728109146794808 0.17116130791333467
0.40733646145472835 -0.057269216338814044 -0.41986753487499484
-0.28947588718292849 -0.48792293157752697 0.15370890147605187
0.56104536293077978 0.037728109146794885 0.17116130791333439
-0.11831457926959382 -0.38213942572820025 -0.43065371523871288
0.13039164769206663 -0.2284305242521481 0.52565104072432212
0.11831457926959371 0.38213942572820014 0.4306537152387131
-0.13039164769206643 0.22843052425214821 -0.52565104072432223
-0.40733646145472824 0.057269216338814155 0.41986753487499484
0.28947588718292849 0.48792293157752697 -0.15370890147605193
-0.56104536293077989 -0.037728109146794926 -0.17116130791333434
0.40733646145472846 0.057269216338813544 -0.41986753487499473
-0.28947588718292844 0.4879229315775272 0.15370890147605121
0.56104536293077967 -0.037728109146794836 0.17116130791333484
-0.11831457926959367 0.38213942572819987 -0.43065371523871349
0.13039164769206651 0.22843052425214858 0.52565104072432189
0.11831457926959342 -0.3821394257281997 0.43065371523871365
-0.13039164769206629 -0.22843052425214871 -0.52565104072432201
-0.4073364614547284 -0.0572692163388136 0.41986753487499479
0.28947588718292838 -0.4879229315775272 -0.15370890147605126
-0.56104536293077978 0.037728109146794864 -0.17116130791333473
0.40733646145472824 0.057269216338813933 0.41986753487499495
-0.28947588718292838 0.48792293157752697 -0.15370890147605182
0.56104536293077978 -0.037728109146794891 -0.17116130791333439
-0.11831457926959385 0.3821394257282002 0.43065371523871299
0.13039164769206668 0.22843052425214816 -0.52565104072432212
0.11831457926959374 -0.38213942572820009 -0.43065371523871315
-0.13039164769206651 -0.22843052425214827 0.52565104072432223
-0.40733646145472813 -0.057269216338814044 -0.41986753487499495
0.28947588718292844 -0.48792293157752697 0.15370890147605193
-0.56104536293077978 0.037728109146794926 0.17116130791333431
0.43065371523871337 -0.11831457926959371 -0.38213942572819987
-0.52565104072432212 0.13039164769206646 -0.22843052425214849
0.41986753487499484 0.40733646145472818 -0.05726921633881385
-0.1537089014760516 -0.28947588718292838 -0.48792293157752709
-0.17116130791333448 0.56104536293077978 0.037728109146794864
0.15370890147605135 0.28947588718292844 0.48792293157752714
0.17116130791333467 -0.56104536293077978 -0.037728109146794836
-0.43065371523871332 0.11831457926959377 0.38213942572819992
0.52565104072432212 -0.13039164769206657 0.22843052425214849
-0.41986753487499495 -0.40733646145472813 0.057269216338813919
0.17116130791333475 0.56104536293077978 0.03772810914679478
-0.43065371523871343 -0.11831457926959379 -0.38213942572819992
0.52565104072432189 0.13039164769206646 -0.22843052425214849
-0.41986753487499495 0.40733646145472813 -0.057269216338813961
0.15370890147605157 -0.28947588718292838 -0.48792293157752697
0.41986753487499484 -0.40733646145472835 0.057269216338813822
-0.1537089014760514 0.28947588718292849 0.48792293157752709
-0.17116130791333461 -0.56104536293077978 -0.037728109146794725
0.43065371523871337 0.11831457926959385 0.38213942572819992
-0.52565104072432189 -0.13039164769206657 0.22843052425214844
0.22843052425214866 0.52565104072432201 0.13039164769206621
0.057269216338813711 -0.41986753487499479 0.4073364614547284
0.48792293157752709 0.15370890147605132 -0.28947588718292838
-0.037728109146794836 0.17116130791333478 0.56104536293077978
0.38213942572819992 -0.43065371523871332 -0.11831457926959366
0.03772810914679476 -0.17116130791333506 -0.56104536293077967
-0.38213942572819981 0.43065371523871354 0.1183145792695936
-0.22843052425214866 -0.52565104072432201 -0.13039164769206629
-0.057269216338813822 0.41986753487499484 -0.4073364614547284
-0.48792293157752709 -0.15370890147605146 0.28947588718292838
0.48792293157752714 -0.15370890147605165 -0.28947588718292838
-0.037728109146795002 -0.1711613079133345 0.56104536293077978
0.38213942572820009 0.4306537152387131 -0.11831457926959381
0.22843052425214827 -0.52565104072432201 0.13039164769206676
0.057269216338813961 0.41986753487499506 0.40733646145472802
-0.22843052425214841 0.52565104072432212 -0.13039164769206651
-0.05726921633881385 -0.41986753487499506 -0.40733646145472818
-0.48792293157752714 0.15370890147605171 0.28947588718292822
0.03772810914679503 0.17116130791333439 -0.56104536293077989
-0.38213942572820014 -0.4306537152387131 0.11831457926959388
0.22843052425214871 -0.52565104072432201 -0.1303916476920661
0.057269216338813822 0.41986753487499473 -0.40733646145472852
0.48792293157752714 -0.15370890147605126 0.28947588718292849
-0.037728109146794718 -0.17116130791333486 -0.56104536293077978
0.38213942572819992 0.43065371523871332 0.11831457926959366
0.037728109146794642 0.17116130791333514 0.56104536293077967
-0.38213942572819987 -0.43065371523871354 -0.11831457926959354
-0.22843052425214866 0.52565104072432201 0.13039164769206618
-0.057269216338813822 -0.41986753487499479 0.40733646145472852
-0.48792293157752709 0.15370890147605143 -0.28947588718292849
0.48792293157752709 0.15370890147605168 0.28947588718292844
-0.037728109146794919 0.17116130791333442 -0.56104536293077989
0.38213942572820009 -0.4306537152387131 0.11831457926959398
0.2284305242521483 0.52565104072432201 -0.13039164769206685
0.05726921633881403 -0.41986753487499506 -0.40733646145472796
-0.22843052425214844 -0.52565104072432201 0.1303916476920666
-0.057269216338813919 0.41986753487499501 0.40733646145472818
-0.48792293157752709 -0.15370890147605173 -0.28947588718292827
0.037728109146794947 -0.17116130791333434 0.56104536293077989
-0.38213942572820014 0.43065371523871304 -0.11831457926959404
5 4 3 2 1 0 1.00000 1.00000 0.00000
5 5 6 7 8 9 1.00000 1.00000 0.00000
3 0 1 5 1.00000 1.00000 0.00000
3 1 2 6 1.00000 1.00000 0.00000
3 2 3 7 1.00000 1.00000 0.00000
3 3 4 8 1.00000 1.00000 0.00000
3 4 0 9 1.00000 1.00000 0.00000
3 6 5 1 1.00000 1.00000 0.00000
3 7 6 2 1.00000 1.00000 0.00000
3 8 7 3 1.00000 1.00000 0.00000
3 9 8 4 1.00000 1.00000 0.00000
3 5 9 0 1.00000 1.00000 0.00000
5 14 13 12 11 10 1.00000 1.00000 0.00000
5 15 16 17 18 19 1.00000 1.00000 0.00000
3 10 11 15 1.00000 1.00000 0.00000
3 11 12 16 1.00000 1.00000 0.00000
3 12 13 17 1.00000 1.00000 0.00000
3 13 14 18 1.00000 1.00000 0.00000
3 14 10 19 1.00000 1.00000 0.00000
3 16 15 11 1.00000 1.00000 0.00000
3 17 16 12 1.00000 1.00000 0.00000
3 18 17 13 1.00000 1.00000 0.00000
3 19 18 14 1.00000 1.00000 0.00000
3 15 19 10 1.00000 1.00000 0.00000
5 24 23 22 21 20 1.00000 0.00000 0.00000
5 25 26 27 28 29 1.00000 0.00000 0.00000
3 20 21 25 1.00000 0.00000 0.00000
3 21 22 26 1.00000 0.00000 0.00000
3 22 23 27 1.00000 0.00000 0.00000
3 23 24 28 1.00000 0.00000 0.00000
3 24 20 29 1.00000 0.00000 0.00000
3 26 25 21 1.00000 0.00000 0.00000
3 27 26 22 1.00000 0.00000 0.00000
3 28 27 23 1.00000 0.00000 0.00000
3 29 28 24 1.00000 0.00000 0.00000
3 25 29 20 1.00000 0.00000 0.00000
5 34 33 32 31 30 1.00000 0.00000 0.00000
5 35 36 37 38 39 1.00000 0.00000 0.00000
3 30 31 35 1.00000 0.00000 0.00000
3 31 32 36 1.00000 0.00000 0.00000
3 32 33 37 1.00000 0.00000 0.00000
3 33 34 38 1.00000 0.00000 0.00000
3 34 30 39 1.00000 0.00000 0.00000
3 36 35 31 1.00000 0.00000 0.00000
3 37 36 32 1.00000 0.00000 0.00000
3 38 37 33 1.00000 0.00000 0.00000
3 39 38 34 1.00000 0.00000 0.00000
3 35 39 30 1.00000 0.00000 0.00000
5 44 43 42 41 40 0.00000 0.39216 0.00000
5 45 46 47 48 49 0.00000 0.39216 0.00000
3 40 41 45 0.00000 0.39216 0.00000
3 41 42 46 0.00000 0.39216 0.00000
3 42 43 47 0.00000 0.39216 0.00000
3 43 44 48 0.00000 0.39216 0.00000
3 44 40 49 0.00000 0.39216 0.00000
3 46 45 41 0.00000 0.39216 0.00000
3 47 46 42 0.00000 0.39216 0.00000
3 48 47 43 0.00000 0.39216 0.00000
3 49 48 44 0.00000 0.39216 0.00000
3 45 49 40 0.00000 0.39216 0.00000
5 54 53 52 51 50 0.00000 0.39216 0.00000
5 55 56 57 58 59 0.00000 0.39216 0.00000
3 50 51 55 0.00000 0.39216 0.00000
3 51 52 56 0.00000 0.39216 0.00000
3 52 53 57 0.00000 0.39216 0.00000
3 53 54 58 0.00000 0.39216 0.00000
3 54 50 59 0.00000 0.39216 0.00000
3 56 55 51 0.00000 0.39216 0.00000
3 57 56 52 0.00000 0.39216 0.00000
3 58 57 53 0.00000 0.39216 0.00000
3 59 58 54 0.00000 0.39216 0.00000
3 55 59 50 0.00000 0.39216 0.00000
5 64 63 62 61 60 0.00000 0.00000 1.00000
5 65 66 67 68 69 0.00000 0.00000 1.00000
3 60 61 65 0.00000 0.00000 1.00000
3 61 62 66 0.00000 0.00000 1.00000
3 62 63 67 0.00000 0.00000 1.00000
3 63 64 68 0.00000 0.00000 1.00000
3 64 60 69 0.00000 0.00000 1.00000
3 66 65 61 0.00000 0.00000 1.00000
3 67 66 62 0.00000 0.00000 1.00000
3 68 67 63 0.00000 0.00000 1.00000
3 69 68 64 0.00000 0.00000 1.00000
3 65 69 60 0.00000 0.00000 1.00000
5 74 73 72 71 70 0.00000 0.00000 1.00000
5 75 76 77 78 79 0.00000 0.00000 1.00000
3 70 71 75 0.00000 0.00000 1.00000
3 71 72 76 0.00000 0.00000 1.00000
3 72 73 77 0.00000 0.00000 1.00000
3 73 74 78 0.00000 0.00000 1.00000
3 74 70 79 0.00000 0.00000 1.00000
3 76 75 71 0.00000 0.00000 1.00000
3 77 76 72 0.00000 0.00000 1.00000
3 78 77 73 0.00000 0.00000 1.00000
3 79 78 74 0.00000 0.00000 1.00000
3 75 79 70 0.00000 0.00000 1.00000
5 84 83 82 81 80 1.00000 0.00000 1.00000
5 85 86 87 88 89 1.00000 0.00000 1.00000
3 80 81 85 1.00000 0.00000 1.00000
3 81 82 86 1.00000 0.00000 1.00000
3 82 83 87 1.00000 0.00000 1.00000
3 83 84 88 1.00000 0.00000 1.00000
3 84 80 89 1.00000 0.00000 1.00000
3 86 85 81 1.00000 0.00000 1.00000
3 87 86 82 1.00000 0.00000 1.00000
3 88 87 83 1.00000 0.00000 1.00000
3 89 88 84 1.00000 0.00000 1.00000
3 85 89 80 1.00000 0.00000 1.00000
5 94 93 92 91 90 1.00000 0.00000 1.00000
5 95 96 97 98 99 1.00000 0.00000 1.00000
3 90 91 95 1.00000 0.00000 1.00000
3 91 92 96 1.00000 0.00000 1.00000
3 92 93 97 1.00000 0.00000 1.00000
3 93 94 98 1.00000 0.00000 1.00000
3 94 90 99 1.00000 0.00000 1.00000
3 96 95 91 1.00000 0.00000 1.00000
3 97 96 92 1.00000 0.00000 1.00000
3 98 97 93 1.00000 0.00000 1.00000
3 99 98 94 1.00000 0.00000 1.00000
3 95 99 90 1.00000 0.00000 1.00000
5 104 103 102 101 100 0.00000 1.00000 1.00000
5 105 106 107 108 109 0.00000 1.00000 1.00000
3 100 101 105 0.00000 1.00000 1.00000
3 101 102 106 0.00000 1.00000 1.00000
3 102 103 107 0.00000 1.00000 1.00000
3 103 104 108 0.00000 1.00000 1.00000
3 104 100 109 0.00000 1.00000 1.00000
3 106 105 101 0.00000 1.00000 1.00000
3 107 106 102 0.00000 1.00000 1.00000
3 108 107 103 0.00000 1.00000 1.00000
3 109 108 104 0.00000 1.00000 1.00000
3 105 109 100 0.00000 1.00000 1.00000
5 114 113 112 111 110 0.00000 1.00000 1.00000
5 115 116 117 118 119 0.00000 1.00000 1.00000
3 110 111 115 0.00000 1.00000 1.00000
3 111 112 116 0.00000 1.00000 1.00000
3 112 113 117 0.00000 1.00000 1.00000
3 113 114 118 0.00000 1.00000 1.00000
3 114 110 119 0.00000 1.00000 1.00000
3 116 115 111 0.00000 1.00000 1.00000
3 117 116 112 0.00000 1.00000 1.00000
3 118 117 113 0.00000 1.00000 1.00000
3 119 118 114 0.00000 1.00000 1.00000
3 115 119 110 0.00000 1.00000 1.00000
