OFF
60 42 90
0.68819096023558679 0.68819096023558668 0.16245984811645334
0.68819096023558679 -0.1624598481164532 0.68819096023558668
-0.26286555605956669 -0.42532540417602005 0.85065080835203988
-0.85065080835203988 0.26286555605956669 0.42532540417601999
-0.26286555605956696 0.95105651629515342 2.0473572616339567e-16
0.68819096023558679 0.1624598481164532 -0.68819096023558668
0.68819096023558679 -0.68819096023558668 -0.16245984811645325
-0.26286555605956669 -0.95105651629515353 -1.7840851420396043e-16
-0.85065080835203988 -0.2628655560595668 -0.42532540417601999
-0.26286555605956696 0.42532540417601994 -0.85065080835203988
0.95105651629515364 2.2204460492503131e-16 0.26286555605956646
0.68819096023558668 -0.16245984811645342 -0.68819096023558668
-0.16245984811645309 -0.68819096023558701 -0.68819096023558624
-0.42532540417601983 -0.85065080835203977 0.26286555605956724
0.2628655560595668 -0.42532540417601949 0.85065080835203988
0.42532540417601988 0.85065080835203999 0.26286555605956613
0.16245984811645306 0.68819096023558635 -0.68819096023558712
-0.68819096023558668 0.16245984811645281 -0.68819096023558668
-0.95105651629515364 1.1102230246251565e-16 0.26286555605956696
-0.26286555605956691 0.42532540417602033 0.85065080835203966
0.95105651629515364 -2.4980018054066022e-16 -0.26286555605956646
0.68819096023558646 0.16245984811645331 0.68819096023558679
-0.16245984811645314 0.6881909602355869 0.68819096023558646
-0.42532540417601977 0.85065080835203966 -0.26286555605956718
0.26286555605956691 0.42532540417601961 -0.85065080835203988
0.42532540417601983 -0.85065080835203999 -0.26286555605956619
0.16245984811645284 -0.68819096023558646 0.68819096023558701
-0.68819096023558679 -0.16245984811645284 0.68819096023558668
-0.95105651629515342 0 -0.26286555605956696
-0.2628655560595668 -0.42532540417602016 -0.85065080835203977
0.85065080835203988 0.26286555605956674 -0.42532540417601988
0.26286555605956696 0.95105651629515342 -5.5511151231257827e-17
-0.68819096023558668 0.6881909602355869 -0.1624598481164532
-0.68819096023558679 -0.16245984811645303 -0.68819096023558668
0.26286555605956657 -0.42532540417601994 -0.85065080835203977
0.85065080835203988 -0.26286555605956674 0.42532540417601994
0.26286555605956691 0.42532540417601994 0.85065080835203977
-0.68819096023558668 0.16245984811645328 0.68819096023558679
-0.68819096023558679 -0.68819096023558668 0.1624598481164532
0.26286555605956663 -0.95105651629515364 1.1102230246251565e-16
0.6881909602355869 0.68819096023558657 -0.16245984811645342
0.85065080835203977 -0.26286555605956707 -0.42532540417601994
0.42532540417601983 -0.85065080835203988 0.26286555605956696
5.5511151231257827e-17 -0.26286555605956652 0.95105651629515353
0.16245984811645328 0.6881909602355869 0.68819096023558646
-0.16245984811645298 0.68819096023558657 -0.6881909602355869
-1.1102230246251565e-16 -0.26286555605956707 -0.95105651629515342
-0.42532540417602016 -0.85065080835203988 -0.26286555605956657
-0.85065080835203988 -0.26286555605956652 0.42532540417601994
-0.68819096023558668 0.6881909602355869 0.16245984811645298
0.6881909602355869 -0.68819096023558646 0.16245984811645364
0.85065080835203977 0.26286555605956707 0.42532540417601994
0.42532540417601994 0.85065080835203988 -0.26286555605956707
2.2204460492503131e-16 0.26286555605956646 -0.95105651629515364
0.16245984811645342 -0.6881909602355869 -0.68819096023558646
-0.16245984811645309 -0.68819096023558646 0.68819096023558712
-2.7755575615628914e-16 0.26286555605956718 0.95105651629515342
-0.42532540417602022 0.85065080835203988 0.26286555605956646
-0.85065080835203988 0.26286555605956652 -0.42532540417602016
-0.68819096023558668 -0.6881909602355869 -0.16245984811645298
5 4 3 2 1 0 1.00000 1.00000 0.00000
5 5 6 7 8 9 1.00000 1.00000 0.00000
4 0 1 6 5 1.00000 1.00000 0.00000
4 1 2 7 6 1.00000 1.00000 0.00000
4 2 3 8 7 1.00000 1.00000 0.00000
4 3 4 9 8 1.00000 1.00000 0.00000
4 4 0 5 9 1.00000 1.00000 0.00000
5 14 13 12 11 10 1.00000 0.00000 0.00000
5 15 16 17 18 19 1.00000 0.00000 0.00000
4 10 11 16 15 1.00000 0.00000 0.00000
4 11 12 17 16 1.00000 0.00000 0.00000
4 12 13 18 17 1.00000 0.00000 0.00000
4 13 14 19 18 1.00000 0.00000 0.00000
4 14 10 15 19 1.00000 0.00000 0.00000
5 24 23 22 21 20 0.00000 0.39216 0.00000
5 25 26 27 28 29 0.00000 0.39216 0.00000
4 20 21 26 25 0.00000 0.39216 0.00000
4 21 22 27 26 0.00000 0.39216 0.00000
4 22 23 28 27 0.00000 0.39216 0.00000
4 23 24 29 28 0.00000 0.39216 0.00000
4 24 20 25 29 0.00000 0.39216 0.00000
5 34 33 32 31 30 0.00000 0.00000 1.00000
5 35 36 37 38 39 0.00000 0.00000 1.00000
4 30 31 36 35 0.00000 0.00000 1.00000
4 31 32 37 36 0.00000 0.00000 1.00000
4 32 33 38 37 0.00000 0.00000 1.00000
4 33 34 39 38 0.00000 0.00000 1.00000
4 34 30 35 39 0.00000 0.00000 1.00000
5 44 43 42 41 40 1.00000 0.00000 1.00000
5 45 46 47 48 49 1.00000 0.00000 1.00000
4 40 41 46 45 1.00000 0.00000 1.00000
4 41 42 47 46 1.00000 0.00000 1.00000
4 42 43 48 47 1.00000 0.00000 1.00000
4 43 44 49 48 1.00000 0.00000 1.00000
4 44 40 45 49 1.00000 0.00000 1.00000
5 54 53 52 51 50 0.00000 1.00000 1.00000
5 55 56 57 58 59 0.00000 1.00000 1.00000
4 50 51 56 55 0.00000 1.00000 1.00000
4 51 52 57 56 0.00000 1.00000 1.00000
4 52 53 58 57 0.00000 1.00000 1.00000
4 53 54 59 58 0.00000 1.00000 1.00000
4 54 50 55 59 0.00000 1.00000 1.00000
