OFF
120 70 180
0.50000000000000022 1.2071067811865477 1.2071067811865477
0.50000000000000022 1.2071067811865477 -1.2071067811865477
0.50000000000000022 -1.2071067811865477 1.2071067811865477
0.50000000000000022 -1.2071067811865477 -1.2071067811865477
-0.50000000000000022 1.2071067811865477 1.2071067811865477
-0.50000000000000022 1.2071067811865477 -1.2071067811865477
-0.50000000000000022 -1.2071067811865477 1.2071067811865477
-0.50000000000000022 -1.2071067811865477 -1.2071067811865477
1.2071067811865477 1.2071067811865477 0.50000000000000033
1.2071067811865477 1.2071067811865477 -0.50000000000000011
1.2071067811865477 -1.2071067811865477 0.50000000000000022
1.2071067811865477 -1.2071067811865477 -0.50000000000000022
-1.2071067811865477 1.2071067811865477 0.50000000000000022
-1.2071067811865477 1.2071067811865477 -0.50000000000000022
-1.2071067811865477 -1.2071067811865477 0.50000000000000011
-1.2071067811865477 -1.2071067811865477 -0.50000000000000033
1.2071067811865477 0.50000000000000022 1.2071067811865477
1.2071067811865477 0.50000000000000022 -1.2071067811865477
1.2071067811865477 -0.50000000000000022 1.2071067811865477
1.2071067811865477 -0.50000000000000022 -1.2071067811865477
-1.2071067811865477 0.50000000000000022 1.2071067811865477
-1.2071067811865477 0.50000000000000022 -1.2071067811865477
-1.2071067811865477 -0.50000000000000022 1.2071067811865477
-1.2071067811865477 -0.50000000000000022 -1.2071067811865477
1.3810783971926321 -1.099586409417042 0.21850801222441096
0.63504537836886321 0.85355339059327484 1.4256147934109575
0.1739716160060843 -0.35355339059327484 -1.7346317877859054
-0.57206140281768447 1.599586409417042 -0.52752500659935886
0.57206140281768447 -1.599586409417042 0.52752500659935886
-0.1739716160060843 0.35355339059327484 1.7346317877859054
-0.63504537836886321 -0.85355339059327484 -1.4256147934109575
-1.3810783971926321 1.099586409417042 -0.21850801222441096
1.7346317877859057 -0.17397161600608396 0.3535533905932734
1.4256147934109582 0.6350453783688641 0.85355339059327318
0.52752500659935797 0.57206140281768314 -1.5995864094170429
0.21850801222441033 1.3810783971926313 -1.0995864094170433
-0.21850801222441033 -1.3810783971926313 1.0995864094170433
-0.52752500659935797 -0.57206140281768314 1.5995864094170429
-1.4256147934109582 -0.6350453783688641 -0.85355339059327318
-1.7346317877859057 0.17397161600608396 -0.3535533905932734
1.5995864094170427 -0.5275250065993583 -0.57206140281768425
0.85355339059327373 1.4256147934109586 0.63504537836886232
1.0995864094170424 -0.2185080122244113 -1.3810783971926321
0.35355339059327356 1.7346317877859057 -0.17397161600608546
-0.35355339059327356 -1.7346317877859057 0.17397161600608546
-1.0995864094170424 0.2185080122244113 1.3810783971926321
-0.85355339059327373 -1.4256147934109586 -0.63504537836886232
-1.5995864094170427 0.5275250065993583 0.57206140281768425
1.3810783971926321 1.099586409417042 -0.21850801222441085
0.63504537836886354 -0.85355339059327473 -1.4256147934109578
0.17397161600608407 0.35355339059327462 1.7346317877859057
-0.57206140281768469 -1.599586409417042 0.52752500659935875
0.57206140281768469 1.599586409417042 -0.52752500659935875
-0.17397161600608407 -0.35355339059327462 -1.7346317877859057
-0.63504537836886354 0.85355339059327473 1.4256147934109578
-1.3810783971926321 -1.099586409417042 0.21850801222441085
1.7346317877859057 0.17397161600608385 -0.3535533905932734
1.4256147934109582 -0.6350453783688641 -0.85355339059327318
0.52752500659935753 -0.57206140281768336 1.5995864094170431
0.21850801222441002 -1.3810783971926313 1.0995864094170431
-0.21850801222441002 1.3810783971926313 -1.0995864094170431
-0.52752500659935753 0.57206140281768336 -1.5995864094170431
-1.4256147934109582 0.6350453783688641 0.85355339059327318
-1.7346317877859057 -0.17397161600608385 0.3535533905932734
1.5995864094170424 0.52752500659935808 0.57206140281768436
0.85355339059327362 -1.4256147934109586 -0.63504537836886243
1.099586409417042 0.21850801222441107 1.3810783971926321
0.35355339059327329 -1.7346317877859057 0.17397161600608535
-0.35355339059327329 1.7346317877859057 -0.17397161600608535
-1.099586409417042 -0.21850801222441107 -1.3810783971926321
-0.85355339059327362 1.4256147934109586 0.63504537836886243
-1.5995864094170424 -0.52752500659935808 -0.57206140281768436
0.63504537836886343 0.85355339059327373 -1.4256147934109582
1.3810783971926319 -1.0995864094170424 -0.21850801222441019
-0.57206140281768414 1.5995864094170424 0.52752500659935775
0.17397161600608424 -0.35355339059327362 1.7346317877859057
-0.17397161600608424 0.35355339059327362 -1.7346317877859057
0.57206140281768414 -1.5995864094170424 -0.52752500659935775
-1.3810783971926319 1.0995864094170424 0.21850801222441019
-0.63504537836886343 -0.85355339059327373 1.4256147934109582
1.4256147934109582 0.6350453783688631 -0.85355339059327373
1.7346317877859057 -0.17397161600608457 -0.35355339059327345
0.21850801222441063 1.3810783971926321 1.0995864094170418
0.52752500659935808 0.57206140281768436 1.5995864094170422
-0.52752500659935808 -0.57206140281768436 -1.5995864094170422
-0.21850801222441063 -1.3810783971926321 -1.0995864094170418
-1.7346317877859057 0.17397161600608457 0.35355339059327345
-1.4256147934109582 -0.6350453783688631 0.85355339059327373
0.85355339059327417 1.425614793410958 -0.63504537836886343
1.5995864094170427 -0.52752500659935819 0.57206140281768447
0.3535533905932739 1.7346317877859057 0.17397161600608402
1.0995864094170422 -0.21850801222441052 1.3810783971926319
-1.0995864094170422 0.21850801222441052 -1.3810783971926319
-0.3535533905932739 -1.7346317877859057 -0.17397161600608402
-1.5995864094170427 0.52752500659935819 -0.57206140281768447
-0.85355339059327417 -1.425614793410958 0.63504537836886343
0.63504537836886321 -0.85355339059327362 1.4256147934109584
1.3810783971926321 1.099586409417042 0.21850801222440985
-0.57206140281768458 -1.5995864094170424 -0.52752500659935742
0.17397161600608424 0.35355339059327318 -1.7346317877859061
-0.17397161600608424 -0.35355339059327318 1.7346317877859061
0.57206140281768458 1.5995864094170424 0.52752500659935742
-1.3810783971926321 -1.099586409417042 -0.21850801222440985
-0.63504537836886321 0.85355339059327362 -1.4256147934109584
1.4256147934109582 -0.63504537836886343 0.85355339059327395
1.7346317877859057 0.17397161600608418 0.35355339059327334
0.2185080122244101 -1.3810783971926324 -1.0995864094170418
0.52752500659935775 -0.57206140281768469 -1.5995864094170422
-0.52752500659935775 0.57206140281768469 1.5995864094170422
-0.2185080122244101 1.3810783971926324 1.0995864094170418
-1.7346317877859057 -0.17397161600608418 -0.35355339059327334
-1.4256147934109582 0.63504537836886343 -0.85355339059327395
0.85355339059327351 -1.4256147934109582 0.63504537836886388
1.5995864094170424 0.52752500659935764 -0.57206140281768469
0.35355339059327334 -1.7346317877859057 -0.17397161600608368
1.0995864094170422 0.21850801222440996 -1.3810783971926321
-1.0995864094170422 -0.21850801222440996 1.3810783971926321
-0.35355339059327334 1.7346317877859057 0.17397161600608368
-1.5995864094170424 -0.52752500659935764 0.57206140281768469
-0.85355339059327351 1.4256147934109582 -0.63504537836886388
3 1 9 17 1.00000 1.00000 0.00000
3 3 19 11 1.00000 1.00000 0.00000
3 6 22 14 1.00000 1.00000 0.00000
3 7 15 23 1.00000 1.00000 0.00000
3 8 0 16 1.00000 1.00000 0.00000
3 10 18 2 1.00000 1.00000 0.00000
3 12 20 4 1.00000 1.00000 0.00000
3 21 13 5 1.00000 1.00000 0.00000
8 1 17 19 3 7 23 21 5 1.00000 1.00000 0.00000
8 2 6 14 15 7 3 11 10 1.00000 1.00000 0.00000
8 4 0 8 9 1 5 13 12 1.00000 1.00000 0.00000
8 9 8 16 18 10 11 19 17 1.00000 1.00000 0.00000
8 13 21 23 15 14 22 20 12 1.00000 1.00000 0.00000
8 16 0 4 20 22 6 2 18 1.00000 1.00000 0.00000
3 25 33 41 1.00000 0.00000 0.00000
3 27 43 35 1.00000 0.00000 0.00000
3 30 46 38 1.00000 0.00000 0.00000
3 31 39 47 1.00000 0.00000 0.00000
3 32 24 40 1.00000 0.00000 0.00000
3 34 42 26 1.00000 0.00000 0.00000
3 36 44 28 1.00000 0.00000 0.00000
3 45 37 29 1.00000 0.00000 0.00000
8 25 41 43 27 31 47 45 29 1.00000 0.00000 0.00000
8 26 30 38 39 31 27 35 34 1.00000 0.00000 0.00000
8 28 24 32 33 25 29 37 36 1.00000 0.00000 0.00000
8 33 32 40 42 34 35 43 41 1.00000 0.00000 0.00000
8 37 45 47 39 38 46 44 36 1.00000 0.00000 0.00000
8 40 24 28 44 46 30 26 42 1.00000 0.00000 0.00000
3 49 57 65 0.00000 0.39216 0.00000
3 51 67 59 0.00000 0.39216 0.00000
3 54 70 62 0.00000 0.39216 0.00000
3 55 63 71 0.00000 0.39216 0.00000
3 56 48 64 0.00000 0.39216 0.00000
3 58 66 50 0.00000 0.39216 0.00000
3 60 68 52 0.00000 0.39216 0.00000
3 69 61 53 0.00000 0.39216 0.00000
8 49 65 67 51 55 71 69 53 0.00000 0.39216 0.00000
8 50 54 62 63 55 51 59 58 0.00000 0.39216 0.00000
8 52 48 56 57 49 53 61 60 0.00000 0.39216 0.00000
8 57 56 64 66 58 59 67 65 0.00000 0.39216 0.00000
8 61 69 71 63 62 70 68 60 0.00000 0.39216 0.00000
8 64 48 52 68 70 54 50 66 0.00000 0.39216 0.00000
3 73 81 89 0.00000 0.00000 1.00000
3 75 91 83 0.00000 0.00000 1.00000
3 78 94 86 0.00000 0.00000 1.00000
3 79 87 95 0.00000 0.00000 1.00000
3 80 72 88 0.00000 0.00000 1.00000
3 82 90 74 0.00000 0.00000 1.00000
3 84 92 76 0.00000 0.00000 1.00000
3 93 85 77 0.00000 0.00000 1.00000
8 73 89 91 75 79 95 93 77 0.00000 0.00000 1.00000
8 74 78 86 87 79 75 83 82 0.00000 0.00000 1.00000
8 76 72 80 81 73 77 85 84 0.00000 0.00000 1.00000
8 81 80 88 90 82 83 91 89 0.00000 0.00000 1.00000
8 85 93 95 87 86 94 92 84 0.00000 0.00000 1.00000
8 88 72 76 92 94 78 74 90 0.00000 0.00000 1.00000
3 97 105 113 1.00000 0.00000 1.00000
3 99 115 107 1.00000 0.00000 1.00000
3 102 118 110 1.00000 0.00000 1.00000
3 103 111 119 1.00000 0.00000 1.00000
3 104 96 112 1.00000 0.00000 1.00000
3 106 114 98 1.00000 0.00000 1.00000
3 108 116 100 1.00000 0.00000 1.00000
3 117 109 101 1.00000 0.00000 1.00000
8 97 113 115 99 103 119 117 101 1.00000 0.00000 1.00000
8 98 102 110 111 103 99 107 106 1.00000 0.00000 1.00000
8 100 96 104 105 97 101 109 108 1.00000 0.00000 1.00000
8 105 104 112 114 106 107 115 113 1.00000 0.00000 1.00000
8 109 117 119 111 110 118 116 108 1.00000 0.00000 1.00000
8 112 96 100 116 118 102 98 114 1.00000 0.00000 1.00000
