OFF
120 130 240
0.50000000000000011 0.50000000000000011 -1.2071067811865477
0.50000000000000011 -0.50000000000000011 1.2071067811865477
-0.50000000000000011 0.50000000000000011 1.2071067811865477
-0.50000000000000011 -0.50000000000000011 -1.2071067811865477
0.50000000000000011 1.2071067811865477 -0.5
0.50000000000000011 -1.2071067811865477 0.50000000000000011
-0.50000000000000011 1.2071067811865477 0.50000000000000011
-0.50000000000000011 -1.2071067811865477 -0.50000000000000022
1.2071067811865477 0.50000000000000011 -0.5
1.2071067811865477 -0.50000000000000011 0.50000000000000011
-1.2071067811865477 0.50000000000000011 0.50000000000000011
-1.2071067811865477 -0.50000000000000011 -0.50000000000000022
0.50000000000000011 1.2071067811865477 0.50000000000000022
0.50000000000000011 -1.2071067811865477 -0.50000000000000011
-0.50000000000000011 1.2071067811865477 -0.50000000000000011
-0.50000000000000011 -1.2071067811865477 0.5
0.50000000000000011 0.50000000000000011 1.2071067811865477
0.50000000000000011 -0.50000000000000011 -1.2071067811865477
-0.50000000000000011 0.50000000000000011 -1.2071067811865477
-0.50000000000000011 -0.50000000000000011 1.2071067811865477
1.2071067811865477 0.50000000000000011 0.50000000000000022
1.2071067811865477 -0.50000000000000011 -0.50000000000000011
-1.2071067811865477 0.50000000000000011 -0.50000000000000011
-1.2071067811865477 -0.50000000000000011 0.5
0.28149198777558954 1.0720614028176849 0.85355339059327318
0.52752500659935808 -0.57206140281768503 -1.162570384968221
0.21850801222441074 -1.3810783971926317 -0.044536396218325502
-1.0275250065993584 0.88107839719263192 0.3535533905932734
0.85355339059327395 0.28149198777559037 1.072061402817684
-0.044536396218326391 0.21850801222440963 -1.3810783971926319
0.35355339059327395 -1.0275250065993575 0.88107839719263237
-1.1625703849682214 0.52752500659935753 -0.57206140281768447
1.0720614028176845 0.85355339059327417 0.28149198777558881
0.8810783971926317 0.35355339059327306 -1.0275250065993584
-0.57206140281768425 -1.162570384968221 0.52752500659935886
-1.3810783971926319 -0.044536396218326224 0.21850801222441082
1.1625703849682214 -0.52752500659935753 0.57206140281768447
-0.35355339059327395 1.0275250065993575 -0.88107839719263237
0.044536396218326391 -0.21850801222440963 1.3810783971926319
-0.85355339059327395 -0.28149198777559037 -1.072061402817684
1.0275250065993584 -0.88107839719263192 -0.3535533905932734
-0.21850801222441074 1.3810783971926317 0.044536396218325502
-0.52752500659935808 0.57206140281768503 1.162570384968221
-0.28149198777558954 -1.0720614028176849 -0.85355339059327318
1.3810783971926319 0.044536396218326224 -0.21850801222441082
0.57206140281768425 1.162570384968221 -0.52752500659935886
-0.8810783971926317 -0.35355339059327306 1.0275250065993584
-1.0720614028176845 -0.85355339059327417 -0.28149198777558881
0.28149198777558959 -1.0720614028176849 -0.85355339059327329
0.52752500659935797 0.57206140281768481 1.1625703849682212
0.2185080122244108 1.3810783971926317 0.044536396218325613
-1.0275250065993582 -0.88107839719263181 -0.35355339059327351
0.85355339059327395 -0.28149198777559026 -1.072061402817684
-0.044536396218326585 -0.21850801222440969 1.3810783971926319
0.35355339059327406 1.0275250065993575 -0.88107839719263226
-1.1625703849682214 -0.52752500659935753 0.57206140281768436
1.0720614028176843 -0.85355339059327417 -0.28149198777558881
0.88107839719263148 -0.35355339059327334 1.0275250065993584
-0.57206140281768403 1.1625703849682212 -0.52752500659935875
-1.3810783971926317 0.044536396218326335 -0.21850801222441088
1.1625703849682214 0.52752500659935753 -0.57206140281768436
-0.35355339059327406 -1.0275250065993575 0.88107839719263226
0.044536396218326585 0.21850801222440969 -1.3810783971926319
-0.85355339059327395 0.28149198777559026 1.072061402817684
1.0275250065993582 0.88107839719263181 0.35355339059327351
-0.2185080122244108 -1.3810783971926317 -0.044536396218325613
-0.52752500659935797 -0.57206140281768481 -1.1625703849682212
-0.28149198777558959 1.0720614028176849 0.85355339059327329
1.3810783971926317 -0.044536396218326335 0.21850801222441088
0.57206140281768403 -1.1625703849682212 0.52752500659935875
-0.88107839719263148 0.35355339059327334 -1.0275250065993584
-1.0720614028176843 0.85355339059327417 0.28149198777558881
1.0275250065993582 -0.88107839719263192 0.35355339059327395
-0.21850801222441041 1.3810783971926319 -0.044536396218326502
-0.52752500659935797 0.57206140281768425 -1.1625703849682214
-0.28149198777558976 -1.0720614028176843 0.85355339059327395
1.1625703849682214 -0.52752500659935819 -0.57206140281768403
-0.35355339059327373 1.0275250065993582 0.88107839719263159
0.044536396218326307 -0.21850801222441069 -1.3810783971926317
-0.85355339059327395 -0.28149198777558931 1.0720614028176843
1.3810783971926319 0.044536396218326113 0.21850801222441063
0.57206140281768447 1.1625703849682214 0.52752500659935786
-0.88107839719263192 -0.35355339059327379 -1.0275250065993582
-1.0720614028176845 -0.85355339059327373 0.28149198777558959
0.85355339059327395 0.28149198777558931 -1.0720614028176843
-0.044536396218326307 0.21850801222441069 1.3810783971926317
0.35355339059327373 -1.0275250065993582 -0.88107839719263159
-1.1625703849682214 0.52752500659935819 0.57206140281768403
0.28149198777558976 1.0720614028176843 -0.85355339059327395
0.52752500659935797 -0.57206140281768425 1.1625703849682214
0.21850801222441041 -1.3810783971926319 0.044536396218326502
-1.0275250065993582 0.88107839719263192 -0.35355339059327395
1.0720614028176845 0.85355339059327373 -0.28149198777558959
0.88107839719263192 0.35355339059327379 1.0275250065993582
-0.57206140281768447 -1.1625703849682214 -0.52752500659935786
-1.3810783971926319 -0.044536396218326113 -0.21850801222441063
1.0275250065993582 0.88107839719263148 -0.35355339059327429
-0.2185080122244108 -1.3810783971926317 0.044536396218326835
-0.52752500659935797 -0.57206140281768392 1.1625703849682218
-0.28149198777558943 1.0720614028176843 -0.85355339059327429
1.1625703849682214 0.52752500659935797 0.57206140281768392
-0.35355339059327401 -1.0275250065993584 -0.88107839719263148
0.044536396218326446 0.21850801222441096 1.3810783971926319
-0.85355339059327395 0.28149198777558943 -1.0720614028176843
1.3810783971926317 -0.044536396218326502 -0.21850801222441074
0.57206140281768403 -1.1625703849682216 -0.52752500659935775
-0.88107839719263148 0.35355339059327417 1.0275250065993582
-1.0720614028176843 0.85355339059327395 -0.2814919877755897
0.85355339059327395 -0.28149198777558943 1.0720614028176843
-0.044536396218326446 -0.21850801222441096 -1.3810783971926319
0.35355339059327401 1.0275250065993584 0.88107839719263148
-1.1625703849682214 -0.52752500659935797 -0.57206140281768392
0.28149198777558943 -1.0720614028176843 0.85355339059327429
0.52752500659935797 0.57206140281768392 -1.1625703849682218
0.2185080122244108 1.3810783971926317 -0.044536396218326835
-1.0275250065993582 -0.88107839719263148 0.35355339059327429
1.0720614028176843 -0.85355339059327395 0.2814919877755897
0.88107839719263148 -0.35355339059327417 -1.0275250065993582
-0.57206140281768403 1.1625703849682216 0.52752500659935775
-1.3810783971926317 0.044536396218326502 0.21850801222441074
3 3 7 11 1.00000 1.00000 0.00000
3 8 0 4 1.00000 1.00000 0.00000
3 9 1 5 1.00000 1.00000 0.00000
3 10 2 6 1.00000 1.00000 0.00000
3 12 16 20 1.00000 1.00000 0.00000
3 17 21 13 1.00000 1.00000 0.00000
3 18 22 14 1.00000 1.00000 0.00000
3 23 15 19 1.00000 1.00000 0.00000
4 0 18 14 4 1.00000 1.00000 0.00000
4 2 19 1 16 1.00000 1.00000 0.00000
4 4 12 20 8 1.00000 1.00000 0.00000
4 6 12 4 14 1.00000 1.00000 0.00000
4 10 23 19 2 1.00000 1.00000 0.00000
4 11 22 18 3 1.00000 1.00000 0.00000
4 11 23 10 22 1.00000 1.00000 0.00000
4 12 6 2 16 1.00000 1.00000 0.00000
4 13 7 3 17 1.00000 1.00000 0.00000
4 15 5 1 19 1.00000 1.00000 0.00000
4 15 7 13 5 1.00000 1.00000 0.00000
4 16 1 9 20 1.00000 1.00000 0.00000
4 17 0 8 21 1.00000 1.00000 0.00000
4 18 0 17 3 1.00000 1.00000 0.00000
4 20 9 21 8 1.00000 1.00000 0.00000
4 21 9 5 13 1.00000 1.00000 0.00000
4 22 10 6 14 1.00000 1.00000 0.00000
4 23 11 7 15 1.00000 1.00000 0.00000
3 27 31 35 1.00000 0.00000 0.00000
3 32 24 28 1.00000 0.00000 0.00000
3 33 25 29 1.00000 0.00000 0.00000
3 34 26 30 1.00000 0.00000 0.00000
3 36 40 44 1.00000 0.00000 0.00000
3 41 45 37 1.00000 0.00000 0.00000
3 42 46 38 1.00000 0.00000 0.00000
3 47 39 43 1.00000 0.00000 0.00000
4 24 42 38 28 1.00000 0.00000 0.00000
4 26 43 25 40 1.00000 0.00000 0.00000
4 28 36 44 32 1.00000 0.00000 0.00000
4 30 36 28 38 1.00000 0.00000 0.00000
4 34 47 43 26 1.00000 0.00000 0.00000
4 35 46 42 27 1.00000 0.00000 0.00000
4 35 47 34 46 1.00000 0.00000 0.00000
4 36 30 26 40 1.00000 0.00000 0.00000
4 37 31 27 41 1.00000 0.00000 0.00000
4 39 29 25 43 1.00000 0.00000 0.00000
4 39 31 37 29 1.00000 0.00000 0.00000
4 40 25 33 44 1.00000 0.00000 0.00000
4 41 24 32 45 1.00000 0.00000 0.00000
4 42 24 41 27 1.00000 0.00000 0.00000
4 44 33 45 32 1.00000 0.00000 0.00000
4 45 33 29 37 1.00000 0.00000 0.00000
4 46 34 30 38 1.00000 0.00000 0.00000
4 47 35 31 39 1.00000 0.00000 0.00000
3 51 55 59 0.00000 0.39216 0.00000
3 56 48 52 0.00000 0.39216 0.00000
3 57 49 53 0.00000 0.39216 0.00000
3 58 50 54 0.00000 0.39216 0.00000
3 60 64 68 0.00000 0.39216 0.00000
3 65 69 61 0.00000 0.39216 0.00000
3 66 70 62 0.00000 0.39216 0.00000
3 71 63 67 0.00000 0.39216 0.00000
4 48 66 62 52 0.00000 0.39216 0.00000
4 50 67 49 64 0.00000 0.39216 0.00000
4 52 60 68 56 0.00000 0.39216 0.00000
4 54 60 52 62 0.00000 0.39216 0.00000
4 58 71 67 50 0.00000 0.39216 0.00000
4 59 70 66 51 0.00000 0.39216 0.00000
4 59 71 58 70 0.00000 0.39216 0.00000
4 60 54 50 64 0.00000 0.39216 0.00000
4 61 55 51 65 0.00000 0.39216 0.00000
4 63 53 49 67 0.00000 0.39216 0.00000
4 63 55 61 53 0.00000 0.39216 0.00000
4 64 49 57 68 0.00000 0.39216 0.00000
4 65 48 56 69 0.00000 0.39216 0.00000
4 66 48 65 51 0.00000 0.39216 0.00000
4 68 57 69 56 0.00000 0.39216 0.00000
4 69 57 53 61 0.00000 0.39216 0.00000
4 70 58 54 62 0.00000 0.39216 0.00000
4 71 59 55 63 0.00000 0.39216 0.00000
3 75 79 83 0.00000 0.00000 1.00000
3 80 72 76 0.00000 0.00000 1.00000
3 81 73 77 0.00000 0.00000 1.00000
3 82 74 78 0.00000 0.00000 1.00000
3 84 88 92 0.00000 0.00000 1.00000
3 89 93 85 0.00000 0.00000 1.00000
3 90 94 86 0.00000 0.00000 1.00000
3 95 87 91 0.00000 0.00000 1.00000
4 72 90 86 76 0.00000 0.00000 1.00000
4 74 91 73 88 0.00000 0.00000 1.00000
4 76 84 92 80 0.00000 0.00000 1.00000
4 78 84 76 86 0.00000 0.00000 1.00000
4 82 95 91 74 0.00000 0.00000 1.00000
4 83 94 90 75 0.00000 0.00000 1.00000
4 83 95 82 94 0.00000 0.00000 1.00000
4 84 78 74 88 0.00000 0.00000 1.00000
4 85 79 75 89 0.00000 0.00000 1.00000
4 87 77 73 91 0.00000 0.00000 1.00000
4 87 79 85 77 0.00000 0.00000 1.00000
4 88 73 81 92 0.00000 0.00000 1.00000
4 89 72 80 93 0.00000 0.00000 1.00000
4 90 72 89 75 0.00000 0.00000 1.00000
4 92 81 93 80 0.00000 0.00000 1.00000
4 93 81 77 85 0.00000 0.00000 1.00000
4 94 82 78 86 0.00000 0.00000 1.00000
4 95 83 79 87 0.00000 0.00000 1.00000
3 99 103 107 1.00000 0.00000 1.00000
3 104 96 100 1.00000 0.00000 1.00000
3 105 97 101 1.00000 0.00000 1.00000
3 106 98 102 1.00000 0.00000 1.00000
3 108 112 116 1.00000 0.00000 1.00000
3 113 117 109 1.00000 0.00000 1.00000
3 114 118 110 1.00000 0.00000 1.00000
3 119 111 115 1.00000 0.00000 1.00000
4 96 114 110 100 1.00000 0.00000 1.00000
4 98 115 97 112 1.00000 0.00000 1.00000
4 100 108 116 104 1.00000 0.00000 1.00000
4 102 108 100 110 1.00000 0.00000 1.00000
4 106 119 115 98 1.00000 0.00000 1.00000
4 107 118 114 99 1.00000 0.00000 1.00000
4 107 119 106 118 1.00000 0.00000 1.00000
4 108 102 98 112 1.00000 0.00000 1.00000
4 109 103 99 113 1.00000 0.00000 1.00000
4 111 101 97 115 1.00000 0.00000 1.00000
4 111 103 109 101 1.00000 0.00000 1.00000
4 112 97 105 116 1.00000 0.00000 1.00000
4 113 96 104 117 1.00000 0.00000 1.00000
4 114 96 113 99 1.00000 0.00000 1.00000
4 116 105 117 104 1.00000 0.00000 1.00000
4 117 105 101 109 1.00000 0.00000 1.00000
4 118 106 102 110 1.00000 0.00000 1.00000
4 119 107 103 111 1.00000 0.00000 1.00000
