OFF
120 520 0
0.68650864561045533 0.12965931642110881 -0.10906118084501637
0.12965931642110889 -0.10906118084501651 0.68650864561045521
-0.10906118084501662 0.6865086456104551 0.12965931642110914
0.10906118084501651 -0.68650864561045521 -0.12965931642110892
-0.6865086456104551 -0.12965931642110906 0.10906118084501648
-0.12965931642110912 0.10906118084501668 -0.6865086456104551
0.68650864561045533 -0.12965931642110881 0.10906118084501654
0.12965931642110898 0.10906118084501643 -0.68650864561045521
-0.10906118084501661 -0.6865086456104551 -0.12965931642110912
0.10906118084501649 0.68650864561045521 0.12965931642110889
-0.6865086456104551 0.12965931642110906 -0.10906118084501665
-0.1296593164211092 -0.10906118084501659 0.6865086456104551
0.10906118084501641 0.68650864561045533 -0.12965931642110859
-0.68650864561045521 0.12965931642110887 0.10906118084501648
-0.12965931642110917 -0.10906118084501643 -0.6865086456104551
0.12965931642110895 0.10906118084501631 0.68650864561045521
-0.10906118084501652 -0.6865086456104551 0.12965931642110884
0.6865086456104551 -0.12965931642110909 -0.10906118084501665
0.10906118084501626 -0.68650864561045533 0.12965931642110867
-0.68650864561045521 -0.1296593164211087 -0.10906118084501645
-0.12965931642110906 0.10906118084501654 0.6865086456104551
0.12965931642110884 -0.10906118084501643 -0.68650864561045521
-0.10906118084501637 0.6865086456104551 -0.12965931642110892
0.6865086456104551 0.12965931642110892 0.10906118084501662
0.58652506098703128 0.39141973928228413 -0.052715657392735295
0.26250883832016636 -0.45686574456592266 -0.4715536037886065
0.29508890632817114 -0.37157001916518262 0.52426926118134154
-0.29508890632817114 0.37157001916518245 -0.52426926118134165
-0.58652506098703117 -0.39141973928228402 0.052715657392734976
-0.26250883832016642 0.45686574456592233 0.47155360378860667
0.52426926118134165 0.29508890632817086 -0.37157001916518306
-0.052715657392734816 0.5865250609870315 0.39141973928228363
-0.47155360378860689 0.26250883832016608 -0.45686574456592216
0.47155360378860683 -0.26250883832016592 0.45686574456592249
-0.52426926118134132 -0.29508890632817081 0.37157001916518329
0.052715657392734511 -0.5865250609870315 -0.39141973928228363
0.39141973928228424 -0.052715657392734636 0.58652506098703117
-0.45686574456592233 -0.47155360378860667 0.26250883832016669
-0.37157001916518306 0.52426926118134143 0.29508890632817092
0.37157001916518284 -0.52426926118134154 -0.29508890632817097
-0.39141973928228413 0.05271565739273433 -0.58652506098703117
0.45686574456592205 0.47155360378860678 -0.26250883832016675
-0.21495504182184882 0.16177683823775088 -0.65392857760245049
-0.65392857760245027 -0.21495504182184849 0.16177683823775166
0.16177683823775119 -0.65392857760245049 -0.21495504182184788
-0.16177683823775138 0.65392857760245049 0.2149550418218481
0.21495504182184849 -0.16177683823775069 0.65392857760245038
0.65392857760245027 0.21495504182184824 -0.16177683823775152
0.58652506098703117 -0.39141973928228413 0.052715657392735281
0.2625088383201663 0.45686574456592249 0.47155360378860656
0.2950889063281712 0.37157001916518267 -0.52426926118134154
-0.29508890632817125 -0.37157001916518251 0.52426926118134165
-0.58652506098703117 0.39141973928228402 -0.052715657392734962
-0.26250883832016636 -0.45686574456592233 -0.47155360378860672
0.52426926118134154 -0.29508890632817103 0.37157001916518306
-0.05271565739273476 -0.58652506098703139 -0.39141973928228369
-0.471553603788607 -0.26250883832016603 0.45686574456592216
0.47155360378860695 0.26250883832016597 -0.45686574456592249
-0.52426926118134132 0.29508890632817086 -0.37157001916518329
0.052715657392734483 0.5865250609870315 0.39141973928228369
0.3914197392822843 0.052715657392734719 -0.58652506098703128
-0.45686574456592216 0.47155360378860667 -0.26250883832016669
-0.37157001916518301 -0.52426926118134143 -0.29508890632817097
0.37157001916518284 0.52426926118134143 0.29508890632817103
-0.39141973928228424 -0.052715657392734372 0.58652506098703117
0.45686574456592199 -0.47155360378860683 0.26250883832016675
-0.21495504182184894 -0.16177683823775096 0.65392857760245049
-0.65392857760245027 0.21495504182184855 -0.16177683823775166
0.16177683823775119 0.65392857760245049 0.21495504182184794
-0.16177683823775135 -0.65392857760245038 -0.21495504182184816
0.21495504182184869 0.16177683823775074 -0.65392857760245038
0.65392857760245038 -0.21495504182184832 0.16177683823775155
0.6539285776024506 0.21495504182184852 0.16177683823775135
-0.16177683823775121 0.65392857760245038 -0.21495504182184852
0.21495504182184821 -0.16177683823775124 -0.65392857760245038
-0.21495504182184844 0.16177683823775138 0.65392857760245027
-0.65392857760245049 -0.21495504182184827 -0.16177683823775116
0.16177683823775107 -0.65392857760245038 0.21495504182184824
0.45686574456592255 0.47155360378860678 0.26250883832016625
0.37157001916518284 -0.52426926118134143 0.29508890632817125
-0.39141973928228413 0.052715657392734677 0.58652506098703117
0.39141973928228413 -0.052715657392734941 -0.58652506098703105
-0.45686574456592222 -0.47155360378860678 -0.26250883832016636
-0.37157001916518306 0.52426926118134132 -0.29508890632817114
0.47155360378860667 -0.2625088383201663 -0.45686574456592244
-0.52426926118134165 -0.29508890632817103 -0.37157001916518284
0.052715657392734511 -0.58652506098703128 0.39141973928228396
-0.05271565739273476 0.58652506098703128 -0.39141973928228396
-0.47155360378860672 0.26250883832016636 0.45686574456592216
0.52426926118134143 0.29508890632817097 0.37157001916518301
-0.29508890632817131 0.37157001916518267 0.52426926118134154
-0.58652506098703117 -0.39141973928228402 -0.052715657392734976
-0.26250883832016636 0.45686574456592211 -0.47155360378860683
0.26250883832016625 -0.45686574456592238 0.47155360378860672
0.29508890632817114 -0.37157001916518284 -0.52426926118134121
0.58652506098703117 0.39141973928228402 0.052715657392734684
0.65392857760245038 -0.21495504182184877 -0.16177683823775138
-0.16177683823775141 -0.65392857760245038 0.21495504182184869
0.2149550418218483 0.16177683823775127 0.65392857760245049
-0.21495504182184846 -0.16177683823775146 -0.65392857760245038
-0.65392857760245038 0.21495504182184849 0.16177683823775119
0.16177683823775124 0.65392857760245049 -0.21495504182184841
0.45686574456592233 -0.471553603788607 -0.26250883832016625
0.37157001916518295 0.52426926118134132 -0.29508890632817142
-0.39141973928228413 -0.052715657392734663 -0.58652506098703117
0.39141973928228418 0.052715657392734927 0.58652506098703105
-0.45686574456592211 0.471553603788607 0.2625088383201663
-0.37157001916518317 -0.52426926118134121 0.29508890632817131
0.47155360378860672 0.26250883832016625 0.45686574456592238
-0.52426926118134143 0.29508890632817131 0.37157001916518284
0.052715657392734622 0.58652506098703128 -0.39141973928228413
-0.052715657392734899 -0.58652506098703117 0.39141973928228413
-0.47155360378860678 -0.26250883832016636 -0.45686574456592216
0.52426926118134132 -0.2950889063281712 -0.37157001916518301
-0.29508890632817136 -0.37157001916518273 -0.52426926118134143
-0.58652506098703105 0.39141973928228424 0.052715657392734955
-0.26250883832016647 -0.45686574456592211 0.471553603788607
0.26250883832016636 0.45686574456592222 -0.47155360378860689
0.29508890632817131 0.3715700191651829 0.52426926118134121
0.58652506098703105 -0.39141973928228424 -0.052715657392734663
3 2 1 0 1.00000 1.00000 0.00000
3 3 4 5 1.00000 1.00000 0.00000
3 0 1 3 1.00000 1.00000 0.00000
3 1 2 4 1.00000 1.00000 0.00000
3 2 0 5 1.00000 1.00000 0.00000
3 4 3 1 1.00000 1.00000 0.00000
3 5 4 2 1.00000 1.00000 0.00000
3 3 5 0 1.00000 1.00000 0.00000
3 8 7 6 1.00000 1.00000 0.00000
3 9 10 11 1.00000 1.00000 0.00000
3 6 7 9 1.00000 1.00000 0.00000
3 7 8 10 1.00000 1.00000 0.00000
3 8 6 11 1.00000 1.00000 0.00000
3 10 9 7 1.00000 1.00000 0.00000
3 11 10 8 1.00000 1.00000 0.00000
3 9 11 6 1.00000 1.00000 0.00000
3 14 13 12 1.00000 1.00000 0.00000
3 15 16 17 1.00000 1.00000 0.00000
3 12 13 15 1.00000 1.00000 0.00000
3 13 14 16 1.00000 1.00000 0.00000
3 14 12 17 1.00000 1.00000 0.00000
3 16 15 13 1.00000 1.00000 0.00000
3 17 16 14 1.00000 1.00000 0.00000
3 15 17 12 1.00000 1.00000 0.00000
3 20 19 18 1.00000 1.00000 0.00000
3 21 22 23 1.00000 1.00000 0.00000
3 18 19 21 1.00000 1.00000 0.00000
3 19 20 22 1.00000 1.00000 0.00000
3 20 18 23 1.00000 1.00000 0.00000
3 22 21 19 1.00000 1.00000 0.00000
3 23 22 20 1.00000 1.00000 0.00000
3 21 23 18 1.00000 1.00000 0.00000
3 26 25 24 1.00000 0.00000 0.00000
3 27 28 29 1.00000 0.00000 0.00000
3 24 25 27 1.00000 0.00000 0.00000
3 25 26 28 1.00000 0.00000 0.00000
3 26 24 29 1.00000 0.00000 0.00000
3 28 27 25 1.00000 0.00000 0.00000
3 29 28 26 1.00000 0.00000 0.00000
3 27 29 24 1.00000 0.00000 0.00000
3 32 31 30 1.00000 0.00000 0.00000
3 33 34 35 1.00000 0.00000 0.00000
3 30 31 33 1.00000 0.00000 0.00000
3 31 32 34 1.00000 0.00000 0.00000
3 32 30 35 1.00000 0.00000 0.00000
3 34 33 31 1.00000 0.00000 0.00000
3 35 34 32 1.00000 0.00000 0.00000
3 33 35 30 1.00000 0.00000 0.00000
3 38 37 36 1.00000 0.00000 0.00000
3 39 40 41 1.00000 0.00000 0.00000
3 36 37 39 1.00000 0.00000 0.00000
3 37 38 40 1.00000 0.00000 0.00000
3 38 36 41 1.00000 0.00000 0.00000
3 40 39 37 1.00000 0.00000 0.00000
3 41 40 38 1.00000 0.00000 0.00000
3 39 41 36 1.00000 0.00000 0.00000
3 44 43 42 1.00000 0.00000 0.00000
3 45 46 47 1.00000 0.00000 0.00000
3 42 43 45 1.00000 0.00000 0.00000
3 43 44 46 1.00000 0.00000 0.00000
3 44 42 47 1.00000 0.00000 0.00000
3 46 45 43 1.00000 0.00000 0.00000
3 47 46 44 1.00000 0.00000 0.00000
3 45 47 42 1.00000 0.00000 0.00000
3 50 49 48 0.00000 0.39216 0.00000
3 51 52 53 0.00000 0.39216 0.00000
3 48 49 51 0.00000 0.39216 0.00000
3 49 50 52 0.00000 0.39216 0.00000
3 50 48 53 0.00000 0.39216 0.00000
3 52 51 49 0.00000 0.39216 0.00000
3 53 52 50 0.00000 0.39216 0.00000
3 51 53 48 0.00000 0.39216 0.00000
3 56 55 54 0.00000 0.39216 0.00000
3 57 58 59 0.00000 0.39216 0.00000
3 54 55 57 0.00000 0.39216 0.00000
3 55 56 58 0.00000 0.39216 0.00000
3 56 54 59 0.00000 0.39216 0.00000
3 58 57 55 0.00000 0.39216 0.00000
3 59 58 56 0.00000 0.39216 0.00000
3 57 59 54 0.00000 0.39216 0.00000
3 62 61 60 0.00000 0.39216 0.00000
3 63 64 65 0.00000 0.39216 0.00000
3 60 61 63 0.00000 0.39216 0.00000
3 61 62 64 0.00000 0.39216 0.00000
3 62 60 65 0.00000 0.39216 0.00000
3 64 63 61 0.00000 0.39216 0.00000
3 65 64 62 0.00000 0.39216 0.00000
3 63 65 60 0.00000 0.39216 0.00000
3 68 67 66 0.00000 0.39216 0.00000
3 69 70 71 0.00000 0.39216 0.00000
3 66 67 69 0.00000 0.39216 0.00000
3 67 68 70 0.00000 0.39216 0.00000
3 68 66 71 0.00000 0.39216 0.00000
3 70 69 67 0.00000 0.39216 0.00000
3 71 70 68 0.00000 0.39216 0.00000
3 69 71 66 0.00000 0.39216 0.00000
3 74 73 72 0.00000 0.00000 1.00000
3 75 76 77 0.00000 0.00000 1.00000
3 72 73 75 0.00000 0.00000 1.00000
3 73 74 76 0.00000 0.00000 1.00000
3 74 72 77 0.00000 0.00000 1.00000
3 76 75 73 0.00000 0.00000 1.00000
3 77 76 74 0.00000 0.00000 1.00000
3 75 77 72 0.00000 0.00000 1.00000
3 80 79 78 0.00000 0.00000 1.00000
3 81 82 83 0.00000 0.00000 1.00000
3 78 79 81 0.00000 0.00000 1.00000
3 79 80 82 0.00000 0.00000 1.00000
3 80 78 83 0.00000 0.00000 1.00000
3 82 81 79 0.00000 0.00000 1.00000
3 83 82 80 0.00000 0.00000 1.00000
3 81 83 78 0.00000 0.00000 1.00000
3 86 85 84 0.00000 0.00000 1.00000
3 87 88 89 0.00000 0.00000 1.00000
3 84 85 87 0.00000 0.00000 1.00000
3 85 86 88 0.00000 0.00000 1.00000
3 86 84 89 0.00000 0.00000 1.00000
3 88 87 85 0.00000 0.00000 1.00000
3 89 88 86 0.00000 0.00000 1.00000
3 87 89 84 0.00000 0.00000 1.00000
3 92 91 90 0.00000 0.00000 1.00000
3 93 94 95 0.00000 0.00000 1.00000
3 90 91 93 0.00000 0.00000 1.00000
3 91 92 94 0.00000 0.00000 1.00000
3 92 90 95 0.00000 0.00000 1.00000
3 94 93 91 0.00000 0.00000 1.00000
3 95 94 92 0.00000 0.00000 1.00000
3 93 95 90 0.00000 0.00000 1.00000
3 98 97 96 1.00000 0.00000 1.00000
3 99 100 101 1.00000 0.00000 1.00000
3 96 97 99 1.00000 0.00000 1.00000
3 97 98 100 1.00000 0.00000 1.00000
3 98 96 101 1.00000 0.00000 1.00000
3 100 99 97 1.00000 0.00000 1.00000
3 101 100 98 1.00000 0.00000 1.00000
3 99 101 96 1.00000 0.00000 1.00000
3 104 103 102 1.00000 0.00000 1.00000
3 105 106 107 1.00000 0.00000 1.00000
3 102 103 105 1.00000 0.00000 1.00000
3 103 104 106 1.00000 0.00000 1.00000
3 104 102 107 1.00000 0.00000 1.00000
3 106 105 103 1.00000 0.00000 1.00000
3 107 106 104 1.00000 0.00000 1.00000
3 105 107 102 1.00000 0.00000 1.00000
3 110 109 108 1.00000 0.00000 1.00000
3 111 112 113 1.00000 0.00000 1.00000
3 108 109 111 1.00000 0.00000 1.00000
3 109 110 112 1.00000 0.00000 1.00000
3 110 108 113 1.00000 0.00000 1.00000
3 112 111 109 1.00000 0.00000 1.00000
3 113 112 110 1.00000 0.00000 1.00000
3 111 113 108 1.00000 0.00000 1.00000
3 116 115 114 1.00000 0.00000 1.00000
3 117 118 119 1.00000 0.00000 1.00000
3 114 115 117 1.00000 0.00000 1.00000
3 115 116 118 1.00000 0.00000 1.00000
3 116 114 119 1.00000 0.00000 1.00000
3 118 117 115 1.00000 0.00000 1.00000
3 119 118 116 1.00000 0.00000 1.00000
3 117 119 114 1.00000 0.00000 1.00000
2 0 1 1.00000 1.00000 0.00000
2 0 2 1.00000 1.00000 0.00000
2 0 3 1.00000 1.00000 0.00000
2 0 5 1.00000 1.00000 0.00000
2 1 2 1.00000 1.00000 0.00000
2 1 3 1.00000 1.00000 0.00000
2 1 4 1.00000 1.00000 0.00000
2 2 4 1.00000 1.00000 0.00000
2 2 5 1.00000 1.00000 0.00000
2 3 4 1.00000 1.00000 0.00000
2 3 5 1.00000 1.00000 0.00000
2 4 5 1.00000 1.00000 0.00000
2 6 7 1.00000 1.00000 0.00000
2 6 8 1.00000 1.00000 0.00000
2 6 9 1.00000 1.00000 0.00000
2 6 11 1.00000 1.00000 0.00000
2 7 8 1.00000 1.00000 0.00000
2 7 9 1.00000 1.00000 0.00000
2 7 10 1.00000 1.00000 0.00000
2 8 10 1.00000 1.00000 0.00000
2 8 11 1.00000 1.00000 0.00000
2 9 10 1.00000 1.00000 0.00000
2 9 11 1.00000 1.00000 0.00000
2 10 11 1.00000 1.00000 0.00000
2 12 13 1.00000 1.00000 0.00000
2 12 14 1.00000 1.00000 0.00000
2 12 15 1.00000 1.00000 0.00000
2 12 17 1.00000 1.00000 0.00000
2 13 14 1.00000 1.00000 0.00000
2 13 15 1.00000 1.00000 0.00000
2 13 16 1.00000 1.00000 0.00000
2 14 16 1.00000 1.00000 0.00000
2 14 17 1.00000 1.00000 0.00000
2 15 16 1.00000 1.00000 0.00000
2 15 17 1.00000 1.00000 0.00000
2 16 17 1.00000 1.00000 0.00000
2 18 19 1.00000 1.00000 0.00000
2 18 20 1.00000 1.00000 0.00000
2 18 21 1.00000 1.00000 0.00000
2 18 23 1.00000 1.00000 0.00000
2 19 20 1.00000 1.00000 0.00000
2 19 21 1.00000 1.00000 0.00000
2 19 22 1.00000 1.00000 0.00000
2 20 22 1.00000 1.00000 0.00000
2 20 23 1.00000 1.00000 0.00000
2 21 22 1.00000 1.00000 0.00000
2 21 23 1.00000 1.00000 0.00000
2 22 23 1.00000 1.00000 0.00000
2 24 25 1.00000 0.00000 0.00000
2 24 26 1.00000 0.00000 0.00000
2 24 27 1.00000 0.00000 0.00000
2 24 29 1.00000 0.00000 0.00000
2 25 26 1.00000 0.00000 0.00000
2 25 27 1.00000 0.00000 0.00000
2 25 28 1.00000 0.00000 0.00000
2 26 28 1.00000 0.00000 0.00000
2 26 29 1.00000 0.00000 0.00000
2 27 28 1.00000 0.00000 0.00000
2 27 29 1.00000 0.00000 0.00000
2 28 29 1.00000 0.00000 0.00000
2 30 31 1.00000 0.00000 0.00000
2 30 32 1.00000 0.00000 0.00000
2 30 33 1.00000 0.00000 0.00000
2 30 35 1.00000 0.00000 0.00000
2 31 32 1.00000 0.00000 0.00000
2 31 33 1.00000 0.00000 0.00000
2 31 34 1.00000 0.00000 0.00000
2 32 34 1.00000 0.00000 0.00000
2 32 35 1.00000 0.00000 0.00000
2 33 34 1.00000 0.00000 0.00000
2 33 35 1.00000 0.00000 0.00000
2 34 35 1.00000 0.00000 0.00000
2 36 37 1.00000 0.00000 0.00000
2 36 38 1.00000 0.00000 0.00000
2 36 39 1.00000 0.00000 0.00000
2 36 41 1.00000 0.00000 0.00000
2 37 38 1.00000 0.00000 0.00000
2 37 39 1.00000 0.00000 0.00000
2 37 40 1.00000 0.00000 0.00000
2 38 40 1.00000 0.00000 0.00000
2 38 41 1.00000 0.00000 0.00000
2 39 40 1.00000 0.00000 0.00000
2 39 41 1.00000 0.00000 0.00000
2 40 41 1.00000 0.00000 0.00000
2 42 43 1.00000 0.00000 0.00000
2 42 44 1.00000 0.00000 0.00000
2 42 45 1.00000 0.00000 0.00000
2 42 47 1.00000 0.00000 0.00000
2 43 44 1.00000 0.00000 0.00000
2 43 45 1.00000 0.00000 0.00000
2 43 46 1.00000 0.00000 0.00000
2 44 46 1.00000 0.00000 0.00000
2 44 47 1.00000 0.00000 0.00000
2 45 46 1.00000 0.00000 0.00000
2 45 47 1.00000 0.00000 0.00000
2 46 47 1.00000 0.00000 0.00000
2 48 49 0.00000 0.39216 0.00000
2 48 50 0.00000 0.39216 0.00000
2 48 51 0.00000 0.39216 0.00000
2 48 53 0.00000 0.39216 0.00000
2 49 50 0.00000 0.39216 0.00000
2 49 51 0.00000 0.39216 0.00000
2 49 52 0.00000 0.39216 0.00000
2 50 52 0.00000 0.39216 0.00000
2 50 53 0.00000 0.39216 0.00000
2 51 52 0.00000 0.39216 0.00000
2 51 53 0.00000 0.39216 0.00000
2 52 53 0.00000 0.39216 0.00000
2 54 55 0.00000 0.39216 0.00000
2 54 56 0.00000 0.39216 0.00000
2 54 57 0.00000 0.39216 0.00000
2 54 59 0.00000 0.39216 0.00000
2 55 56 0.00000 0.39216 0.00000
2 55 57 0.00000 0.39216 0.00000
2 55 58 0.00000 0.39216 0.00000
2 56 58 0.00000 0.39216 0.00000
2 56 59 0.00000 0.39216 0.00000
2 57 58 0.00000 0.39216 0.00000
2 57 59 0.00000 0.39216 0.00000
2 58 59 0.00000 0.39216 0.00000
2 60 61 0.00000 0.39216 0.00000
2 60 62 0.00000 0.39216 0.00000
2 60 63 0.00000 0.39216 0.00000
2 60 65 0.00000 0.39216 0.00000
2 61 62 0.00000 0.39216 0.00000
2 61 63 0.00000 0.39216 0.00000
2 61 64 0.00000 0.39216 0.00000
2 62 64 0.00000 0.39216 0.00000
2 62 65 0.00000 0.39216 0.00000
2 63 64 0.00000 0.39216 0.00000
2 63 65 0.00000 0.39216 0.00000
2 64 65 0.00000 0.39216 0.00000
2 66 67 0.00000 0.39216 0.00000
2 66 68 0.00000 0.39216 0.00000
2 66 69 0.00000 0.39216 0.00000
2 66 71 0.00000 0.39216 0.00000
2 67 68 0.00000 0.39216 0.00000
2 67 69 0.00000 0.39216 0.00000
2 67 70 0.00000 0.39216 0.00000
2 68 70 0.00000 0.39216 0.00000
2 68 71 0.00000 0.39216 0.00000
2 69 70 0.00000 0.39216 0.00000
2 69 71 0.00000 0.39216 0.00000
2 70 71 0.00000 0.39216 0.00000
2 72 73 0.00000 0.00000 1.00000
2 72 74 0.00000 0.00000 1.00000
2 72 75 0.00000 0.00000 1.00000
2 72 77 0.00000 0.00000 1.00000
2 73 74 0.00000 0.00000 1.00000
2 73 75 0.00000 0.00000 1.00000
2 73 76 0.00000 0.00000 1.00000
2 74 76 0.00000 0.00000 1.00000
2 74 77 0.00000 0.00000 1.00000
2 75 76 0.00000 0.00000 1.00000
2 75 77 0.00000 0.00000 1.00000
2 76 77 0.00000 0.00000 1.00000
2 78 79 0.00000 0.00000 1.00000
2 78 80 0.00000 0.00000 1.00000
2 78 81 0.00000 0.00000 1.00000
2 78 83 0.00000 0.00000 1.00000
2 79 80 0.00000 0.00000 1.00000
2 79 81 0.00000 0.00000 1.00000
2 79 82 0.00000 0.00000 1.00000
2 80 82 0.00000 0.00000 1.00000
2 80 83 0.00000 0.00000 1.00000
2 81 82 0.00000 0.00000 1.00000
2 81 83 0.00000 0.00000 1.00000
2 82 83 0.00000 0.00000 1.00000
2 84 85 0.00000 0.00000 1.00000
2 84 86 0.00000 0.00000 1.00000
2 84 87 0.00000 0.00000 1.00000
2 84 89 0.00000 0.00000 1.00000
2 85 86 0.00000 0.00000 1.00000
2 85 87 0.00000 0.00000 1.00000
2 85 88 0.00000 0.00000 1.00000
2 86 88 0.00000 0.00000 1.00000
2 86 89 0.00000 0.00000 1.00000
2 87 88 0.00000 0.00000 1.00000
2 87 89 0.00000 0.00000 1.00000
2 88 89 0.00000 0.00000 1.00000
2 90 91 0.00000 0.00000 1.00000
2 90 92 0.00000 0.00000 1.00000
2 90 93 0.00000 0.00000 1.00000
2 90 95 0.00000 0.00000 1.00000
2 91 92 0.00000 0.00000 1.00000
2 91 93 0.00000 0.00000 1.00000
2 91 94 0.00000 0.00000 1.00000
2 92 94 0.00000 0.00000 1.00000
2 92 95 0.00000 0.00000 1.00000
2 93 94 0.00000 0.00000 1.00000
2 93 95 0.00000 0.00000 1.00000
2 94 95 0.00000 0.00000 1.00000
2 96 97 1.00000 0.00000 1.00000
2 96 98 1.00000 0.00000 1.00000
2 96 99 1.00000 0.00000 1.00000
2 96 101 1.00000 0.00000 1.00000
2 97 98 1.00000 0.00000 1.00000
2 97 99 1.00000 0.00000 1.00000
2 97 100 1.00000 0.00000 1.00000
2 98 100 1.00000 0.00000 1.00000
2 98 101 1.00000 0.00000 1.00000
2 99 100 1.00000 0.00000 1.00000
2 99 101 1.00000 0.00000 1.00000
2 100 101 1.00000 0.00000 1.00000
2 102 103 1.00000 0.00000 1.00000
2 102 104 1.00000 0.00000 1.00000
2 102 105 1.00000 0.00000 1.00000
2 102 107 1.00000 0.00000 1.00000
2 103 104 1.00000 0.00000 1.00000
2 103 105 1.00000 0.00000 1.00000
2 103 106 1.00000 0.00000 1.00000
2 104 106 1.00000 0.00000 1.00000
2 104 107 1.00000 0.00000 1.00000
2 105 106 1.00000 0.00000 1.00000
2 105 107 1.00000 0.00000 1.00000
2 106 107 1.00000 0.00000 1.00000
2 108 109 1.00000 0.00000 1.00000
2 108 110 1.00000 0.00000 1.00000
2 108 111 1.00000 0.00000 1.00000
2 108 113 1.00000 0.00000 1.00000
2 109 110 1.00000 0.00000 1.00000
2 109 111 1.00000 0.00000 1.00000
2 109 112 1.00000 0.00000 1.00000
2 110 112 1.00000 0.00000 1.00000
2 110 113 1.00000 0.00000 1.00000
2 111 112 1.00000 0.00000 1.00000
2 111 113 1.00000 0.00000 1.00000
2 112 113 1.00000 0.00000 1.00000
2 114 115 1.00000 0.00000 1.00000
2 114 116 1.00000 0.00000 1.00000
2 114 117 1.00000 0.00000 1.00000
2 114 119 1.00000 0.00000 1.00000
2 115 116 1.00000 0.00000 1.00000
2 115 117 1.00000 0.00000 1.00000
2 115 118 1.00000 0.00000 1.00000
2 116 118 1.00000 0.00000 1.00000
2 116 119 1.00000 0.00000 1.00000
2 117 118 1.00000 0.00000 1.00000
2 117 119 1.00000 0.00000 1.00000
2 118 119 1.00000 0.00000 1.00000
1 0 1.00000 1.00000 0.00000
1 1 1.00000 1.00000 0.00000
1 2 1.00000 1.00000 0.00000
1 3 1.00000 1.00000 0.00000
1 4 1.00000 1.00000 0.00000
1 5 1.00000 1.00000 0.00000
1 6 1.00000 1.00000 0.00000
1 7 1.00000 1.00000 0.00000
1 8 1.00000 1.00000 0.00000
1 9 1.00000 1.00000 0.00000
1 10 1.00000 1.00000 0.00000
1 11 1.00000 1.00000 0.00000
1 12 1.00000 1.00000 0.00000
1 13 1.00000 1.00000 0.00000
1 14 1.00000 1.00000 0.00000
1 15 1.00000 1.00000 0.00000
1 16 1.00000 1.00000 0.00000
1 17 1.00000 1.00000 0.00000
1 18 1.00000 1.00000 0.00000
1 19 1.00000 1.00000 0.00000
1 20 1.00000 1.00000 0.00000
1 21 1.00000 1.00000 0.00000
1 22 1.00000 1.00000 0.00000
1 23 1.00000 1.00000 0.00000
1 24 1.00000 0.00000 0.00000
1 25 1.00000 0.00000 0.00000
1 26 1.00000 0.00000 0.00000
1 27 1.00000 0.00000 0.00000
1 28 1.00000 0.00000 0.00000
1 29 1.00000 0.00000 0.00000
1 30 1.00000 0.00000 0.00000
1 31 1.00000 0.00000 0.00000
1 32 1.00000 0.00000 0.00000
1 33 1.00000 0.00000 0.00000
1 34 1.00000 0.00000 0.00000
1 35 1.00000 0.00000 0.00000
1 36 1.00000 0.00000 0.00000
1 37 1.00000 0.00000 0.00000
1 38 1.00000 0.00000 0.00000
1 39 1.00000 0.00000 0.00000
1 40 1.00000 0.00000 0.00000
1 41 1.00000 0.00000 0.00000
1 42 1.00000 0.00000 0.00000
1 43 1.00000 0.00000 0.00000
1 44 1.00000 0.00000 0.00000
1 45 1.00000 0.00000 0.00000
1 46 1.00000 0.00000 0.00000
1 47 1.00000 0.00000 0.00000
1 48 0.00000 0.39216 0.00000
1 49 0.00000 0.39216 0.00000
1 50 0.00000 0.39216 0.00000
1 51 0.00000 0.39216 0.00000
1 52 0.00000 0.39216 0.00000
1 53 0.00000 0.39216 0.00000
1 54 0.00000 0.39216 0.00000
1 55 0.00000 0.39216 0.00000
1 56 0.00000 0.39216 0.00000
1 57 0.00000 0.39216 0.00000
1 58 0.00000 0.39216 0.00000
1 59 0.00000 0.39216 0.00000
1 60 0.00000 0.39216 0.00000
1 61 0.00000 0.39216 0.00000
1 62 0.00000 0.39216 0.00000
1 63 0.00000 0.39216 0.00000
1 64 0.00000 0.39216 0.00000
1 65 0.00000 0.39216 0.00000
1 66 0.00000 0.39216 0.00000
1 67 0.00000 0.39216 0.00000
1 68 0.00000 0.39216 0.00000
1 69 0.00000 0.39216 0.00000
1 70 0.00000 0.39216 0.00000
1 71 0.00000 0.39216 0.00000
1 72 0.00000 0.00000 1.00000
1 73 0.00000 0.00000 1.00000
1 74 0.00000 0.00000 1.00000
1 75 0.00000 0.00000 1.00000
1 76 0.00000 0.00000 1.00000
1 77 0.00000 0.00000 1.00000
1 78 0.00000 0.00000 1.00000
1 79 0.00000 0.00000 1.00000
1 80 0.00000 0.00000 1.00000
1 81 0.00000 0.00000 1.00000
1 82 0.00000 0.00000 1.00000
1 83 0.00000 0.00000 1.00000
1 84 0.00000 0.00000 1.00000
1 85 0.00000 0.00000 1.00000
1 86 0.00000 0.00000 1.00000
1 87 0.00000 0.00000 1.00000
1 88 0.00000 0.00000 1.00000
1 89 0.00000 0.00000 1.00000
1 90 0.00000 0.00000 1.00000
1 91 0.00000 0.00000 1.00000
1 92 0.00000 0.00000 1.00000
1 93 0.00000 0.00000 1.00000
1 94 0.00000 0.00000 1.00000
1 95 0.00000 0.00000 1.00000
1 96 1.00000 0.00000 1.00000
1 97 1.00000 0.00000 1.00000
1 98 1.00000 0.00000 1.00000
1 99 1.00000 0.00000 1.00000
1 100 1.00000 0.00000 1.00000
1 101 1.00000 0.00000 1.00000
1 102 1.00000 0.00000 1.00000
1 103 1.00000 0.00000 1.00000
1 104 1.00000 0.00000 1.00000
1 105 1.00000 0.00000 1.00000
1 106 1.00000 0.00000 1.00000
1 107 1.00000 0.00000 1.00000
1 108 1.00000 0.00000 1.00000
1 109 1.00000 0.00000 1.00000
1 110 1.00000 0.00000 1.00000
1 111 1.00000 0.00000 1.00000
1 112 1.00000 0.00000 1.00000
1 113 1.00000 0.00000 1.00000
1 114 1.00000 0.00000 1.00000
1 115 1.00000 0.00000 1.00000
1 116 1.00000 0.00000 1.00000
1 117 1.00000 0.00000 1.00000
1 118 1.00000 0.00000 1.00000
1 119 1.00000 0.00000 1.00000
