OFF
120 384 0
0.42532540417601999 0.52573111211913348 0.26286555605956691
-0.16245984811645309 -0.1624598481164532 0.68819096023558668
-0.16245984811645325 0.68819096023558668 0.16245984811645328
0.42532540417602005 5.5511151231257827e-17 0.58778525229247303
-0.52573111211913359 0.26286555605956652 0.42532540417602011
0.42532540417601999 5.5511151231257827e-17 -0.58778525229247314
-0.16245984811645309 -0.68819096023558668 -0.16245984811645331
-0.16245984811645325 0.1624598481164532 -0.68819096023558668
0.42532540417602005 -0.52573111211913348 -0.26286555605956696
-0.52573111211913359 -0.26286555605956696 -0.42532540417601994
0.16245984811645314 0.68819096023558668 0.16245984811645342
-0.42532540417602011 -5.5511151231257827e-17 0.58778525229247292
0.52573111211913348 0.26286555605956663 0.42532540417602022
-0.42532540417601988 0.52573111211913348 0.26286555605956674
0.16245984811645292 -0.16245984811645342 0.6881909602355869
0.16245984811645331 0.16245984811645336 -0.68819096023558668
-0.42532540417601994 -0.52573111211913348 -0.26286555605956713
0.5257311121191337 -0.26286555605956674 -0.42532540417601994
-0.42532540417601972 2.2204460492503131e-16 -0.58778525229247325
0.16245984811645303 -0.68819096023558679 -0.16245984811645323
0.68819096023558679 -0.16245984811645298 0.16245984811645295
1.1102230246251565e-16 -0.58778525229247325 -0.42532540417601955
0.2628655560595668 -0.42532540417601961 0.5257311121191337
0.5257311121191337 -0.26286555605956696 -0.42532540417601983
-0.16245984811645309 -0.68819096023558668 0.16245984811645334
0.16245984811645317 0.68819096023558679 0.16245984811645273
-0.52573111211913359 0.26286555605956652 -0.42532540417601988
-0.26286555605956685 0.42532540417602005 0.52573111211913337
-5.5511151231257827e-17 0.58778525229247292 -0.42532540417602016
-0.68819096023558679 0.16245984811645325 0.16245984811645303
0.5257311121191337 -0.26286555605956663 0.42532540417601983
-0.16245984811645331 -0.68819096023558668 -0.16245984811645259
0.68819096023558668 -0.16245984811645342 -0.16245984811645336
9.7144514654701197e-17 -0.58778525229247269 0.42532540417602016
0.26286555605956657 -0.42532540417602038 -0.52573111211913359
1.6653345369377348e-16 0.58778525229247325 0.42532540417601961
-0.68819096023558679 0.1624598481164532 -0.16245984811645289
0.16245984811645314 0.68819096023558657 -0.16245984811645364
-0.52573111211913337 0.26286555605956718 0.42532540417602005
-0.26286555605956702 0.42532540417601955 -0.52573111211913381
0.68819096023558679 0.16245984811645295 -0.16245984811645292
0 0.58778525229247325 0.42532540417601961
0.26286555605956691 0.42532540417601972 -0.52573111211913359
0.5257311121191337 0.26286555605956685 0.42532540417601983
-0.16245984811645306 0.68819096023558668 -0.16245984811645328
0.16245984811645314 -0.68819096023558679 -0.16245984811645278
-0.5257311121191337 -0.26286555605956652 0.42532540417601988
-0.2628655560595668 -0.42532540417602005 -0.52573111211913348
-9.7144514654701197e-17 -0.58778525229247292 0.42532540417602016
-0.68819096023558679 -0.16245984811645314 -0.16245984811645309
0.5257311121191337 0.26286555605956663 -0.42532540417601983
-0.16245984811645328 0.68819096023558668 0.16245984811645264
0.68819096023558668 0.16245984811645331 0.16245984811645342
1.9428902930940239e-16 0.58778525229247269 -0.42532540417602016
0.26286555605956646 0.42532540417602027 0.52573111211913359
2.2204460492503131e-16 -0.58778525229247325 -0.42532540417601972
-0.68819096023558679 -0.16245984811645317 0.16245984811645287
0.16245984811645311 -0.68819096023558668 0.16245984811645359
-0.52573111211913326 -0.26286555605956713 -0.42532540417602011
-0.26286555605956713 -0.42532540417601961 0.52573111211913381
0.52573111211913348 0.26286555605956674 -0.42532540417601983
-0.42532540417601983 0.52573111211913348 -0.2628655560595668
0.16245984811645303 -0.16245984811645323 -0.68819096023558668
0.16245984811645331 0.68819096023558668 -0.1624598481164532
-0.42532540417602016 1.6653345369377348e-16 -0.58778525229247292
0.52573111211913359 -0.26286555605956685 0.42532540417601994
-0.42532540417601988 8.3266726846886741e-17 0.58778525229247303
0.162459848116453 -0.68819096023558668 0.16245984811645314
0.16245984811645331 0.16245984811645309 0.68819096023558668
-0.42532540417602005 -0.52573111211913337 0.26286555605956691
0.42532540417601983 8.3266726846886741e-17 -0.58778525229247314
-0.5257311121191337 0.26286555605956652 -0.42532540417601988
0.42532540417601977 0.5257311121191337 -0.26286555605956685
-0.16245984811645314 -0.1624598481164532 -0.68819096023558657
-0.16245984811645348 0.68819096023558679 -0.1624598481164532
0.42532540417602011 -0.52573111211913348 0.26286555605956674
-0.52573111211913348 -0.26286555605956696 0.42532540417601994
0.42532540417602005 5.5511151231257827e-17 0.58778525229247314
-0.16245984811645287 -0.68819096023558668 0.1624598481164532
-0.16245984811645328 0.16245984811645314 0.68819096023558657
0.58778525229247314 0.42532540417601977 -1.8041124150158794e-16
0.42532540417601983 -0.52573111211913359 0.26286555605956685
0.26286555605956685 0.42532540417602005 0.52573111211913348
0.68819096023558668 -0.16245984811645317 -0.16245984811645314
0.1624598481164532 -0.1624598481164532 0.68819096023558668
-0.26286555605956674 0.42532540417601988 -0.5257311121191337
-0.42532540417602005 -0.52573111211913359 -0.26286555605956663
-0.58778525229247292 0.42532540417602005 -5.5511151231257827e-17
-0.16245984811645325 -0.1624598481164532 -0.68819096023558679
-0.68819096023558668 -0.16245984811645323 0.16245984811645311
0.42532540417602016 0.52573111211913348 0.26286555605956663
0.26286555605956646 -0.42532540417601983 0.52573111211913381
0.68819096023558679 0.16245984811645275 -0.16245984811645314
0.16245984811645317 0.16245984811645342 0.68819096023558646
0.58778525229247292 -0.42532540417602038 3.0531133177191805e-16
-0.42532540417601961 0.5257311121191337 -0.26286555605956696
-0.58778525229247336 -0.42532540417601966 1.1102230246251565e-16
-0.16245984811645309 0.16245984811645298 -0.68819096023558679
-0.68819096023558668 0.16245984811645361 0.16245984811645292
-0.26286555605956696 -0.42532540417602016 -0.52573111211913337
0.58778525229247314 -0.42532540417601983 3.4694469519536142e-16
0.42532540417601994 0.52573111211913348 -0.26286555605956691
0.26286555605956702 -0.42532540417602005 -0.52573111211913337
0.68819096023558668 0.16245984811645317 0.16245984811645325
0.16245984811645331 0.16245984811645311 -0.68819096023558668
-0.26286555605956685 -0.42532540417601977 0.52573111211913381
-0.42532540417602016 0.52573111211913359 0.26286555605956652
-0.58778525229247303 -0.42532540417601999 5.5511151231257827e-17
-0.16245984811645339 0.16245984811645334 0.68819096023558679
-0.68819096023558679 0.1624598481164532 -0.16245984811645328
0.42532540417602027 -0.52573111211913348 -0.26286555605956652
0.26286555605956663 0.42532540417601972 -0.52573111211913393
0.6881909602355869 -0.16245984811645273 0.16245984811645325
0.16245984811645331 -0.16245984811645345 -0.68819096023558657
0.58778525229247303 0.42532540417602038 -2.4980018054066022e-16
-0.42532540417601972 -0.5257311121191337 0.26286555605956702
-0.58778525229247336 0.42532540417601972 -2.2204460492503131e-16
-0.16245984811645323 -0.16245984811645289 0.6881909602355869
-0.68819096023558668 -0.16245984811645361 -0.16245984811645303
-0.26286555605956707 0.42532540417602027 0.52573111211913326
5 4 3 2 1 0 1.00000 1.00000 0.00000
5 5 6 7 8 9 1.00000 1.00000 0.00000
4 0 1 6 5 1.00000 1.00000 0.00000
4 1 2 7 6 1.00000 1.00000 0.00000
4 2 3 8 7 1.00000 1.00000 0.00000
4 3 4 9 8 1.00000 1.00000 0.00000
4 4 0 5 9 1.00000 1.00000 0.00000
5 14 13 12 11 10 1.00000 1.00000 0.00000
5 15 16 17 18 19 1.00000 1.00000 0.00000
4 10 11 16 15 1.00000 1.00000 0.00000
4 11 12 17 16 1.00000 1.00000 0.00000
4 12 13 18 17 1.00000 1.00000 0.00000
4 13 14 19 18 1.00000 1.00000 0.00000
4 14 10 15 19 1.00000 1.00000 0.00000
5 24 23 22 21 20 1.00000 0.00000 0.00000
5 25 26 27 28 29 1.00000 0.00000 0.00000
4 20 21 26 25 1.00000 0.00000 0.00000
4 21 22 27 26 1.00000 0.00000 0.00000
4 22 23 28 27 1.00000 0.00000 0.00000
4 23 24 29 28 1.00000 0.00000 0.00000
4 24 20 25 29 1.00000 0.00000 0.00000
5 34 33 32 31 30 1.00000 0.00000 0.00000
5 35 36 37 38 39 1.00000 0.00000 0.00000
4 30 31 36 35 1.00000 0.00000 0.00000
4 31 32 37 36 1.00000 0.00000 0.00000
4 32 33 38 37 1.00000 0.00000 0.00000
4 33 34 39 38 1.00000 0.00000 0.00000
4 34 30 35 39 1.00000 0.00000 0.00000
5 44 43 42 41 40 0.00000 0.39216 0.00000
5 45 46 47 48 49 0.00000 0.39216 0.00000
4 40 41 46 45 0.00000 0.39216 0.00000
4 41 42 47 46 0.00000 0.39216 0.00000
4 42 43 48 47 0.00000 0.39216 0.00000
4 43 44 49 48 0.00000 0.39216 0.00000
4 44 40 45 49 0.00000 0.39216 0.00000
5 54 53 52 51 50 0.00000 0.39216 0.00000
5 55 56 57 58 59 0.00000 0.39216 0.00000
4 50 51 56 55 0.00000 0.39216 0.00000
4 51 52 57 56 0.00000 0.39216 0.00000
4 52 53 58 57 0.00000 0.39216 0.00000
4 53 54 59 58 0.00000 0.39216 0.00000
4 54 50 55 59 0.00000 0.39216 0.00000
5 64 63 62 61 60 0.00000 0.00000 1.00000
5 65 66 67 68 69 0.00000 0.00000 1.00000
4 60 61 66 65 0.00000 0.00000 1.00000
4 61 62 67 66 0.00000 0.00000 1.00000
4 62 63 68 67 0.00000 0.00000 1.00000
4 63 64 69 68 0.00000 0.00000 1.00000
4 64 60 65 69 0.00000 0.00000 1.00000
5 74 73 72 71 70 0.00000 0.00000 1.00000
5 75 76 77 78 79 0.00000 0.00000 1.00000
4 70 71 76 75 0.00000 0.00000 1.00000
4 71 72 77 76 0.00000 0.00000 1.00000
4 72 73 78 77 0.00000 0.00000 1.00000
4 73 74 79 78 0.00000 0.00000 1.00000
4 74 70 75 79 0.00000 0.00000 1.00000
5 84 83 82 81 80 1.00000 0.00000 1.00000
5 85 86 87 88 89 1.00000 0.00000 1.00000
4 80 81 86 85 1.00000 0.00000 1.00000
4 81 82 87 86 1.00000 0.00000 1.00000
4 82 83 88 87 1.00000 0.00000 1.00000
4 83 84 89 88 1.00000 0.00000 1.00000
4 84 80 85 89 1.00000 0.00000 1.00000
5 94 93 92 91 90 1.00000 0.00000 1.00000
5 95 96 97 98 99 1.00000 0.00000 1.00000
4 90 91 96 95 1.00000 0.00000 1.00000
4 91 92 97 96 1.00000 0.00000 1.00000
4 92 93 98 97 1.00000 0.00000 1.00000
4 93 94 99 98 1.00000 0.00000 1.00000
4 94 90 95 99 1.00000 0.00000 1.00000
5 104 103 102 101 100 0.00000 1.00000 1.00000
5 105 106 107 108 109 0.00000 1.00000 1.00000
4 100 101 106 105 0.00000 1.00000 1.00000
4 101 102 107 106 0.00000 1.00000 1.00000
4 102 103 108 107 0.00000 1.00000 1.00000
4 103 104 109 108 0.00000 1.00000 1.00000
4 104 100 105 109 0.00000 1.00000 1.00000
5 114 113 112 111 110 0.00000 1.00000 1.00000
5 115 116 117 118 119 0.00000 1.00000 1.00000
4 110 111 116 115 0.00000 1.00000 1.00000
4 111 112 117 116 0.00000 1.00000 1.00000
4 112 113 118 117 0.00000 1.00000 1.00000
4 113 114 119 118 0.00000 1.00000 1.00000
4 114 110 115 119 0.00000 1.00000 1.00000
2 0 1 1.00000 1.00000 0.00000
2 0 4 1.00000 1.00000 0.00000
2 0 5 1.00000 1.00000 0.00000
2 1 2 1.00000 1.00000 0.00000
2 1 6 1.00000 1.00000 0.00000
2 2 3 1.00000 1.00000 0.00000
2 2 7 1.00000 1.00000 0.00000
2 3 4 1.00000 1.00000 0.00000
2 3 8 1.00000 1.00000 0.00000
2 4 9 1.00000 1.00000 0.00000
2 5 6 1.00000 1.00000 0.00000
2 5 9 1.00000 1.00000 0.00000
2 6 7 1.00000 1.00000 0.00000
2 7 8 1.00000 1.00000 0.00000
2 8 9 1.00000 1.00000 0.00000
2 10 11 1.00000 1.00000 0.00000
2 10 14 1.00000 1.00000 0.00000
2 10 15 1.00000 1.00000 0.00000
2 11 12 1.00000 1.00000 0.00000
2 11 16 1.00000 1.00000 0.00000
2 12 13 1.00000 1.00000 0.00000
2 12 17 1.00000 1.00000 0.00000
2 13 14 1.00000 1.00000 0.00000
2 13 18 1.00000 1.00000 0.00000
2 14 19 1.00000 1.00000 0.00000
2 15 16 1.00000 1.00000 0.00000
2 15 19 1.00000 1.00000 0.00000
2 16 17 1.00000 1.00000 0.00000
2 17 18 1.00000 1.00000 0.00000
2 18 19 1.00000 1.00000 0.00000
2 20 21 1.00000 0.00000 0.00000
2 20 24 1.00000 0.00000 0.00000
2 20 25 1.00000 0.00000 0.00000
2 21 22 1.00000 0.00000 0.00000
2 21 26 1.00000 0.00000 0.00000
2 22 23 1.00000 0.00000 0.00000
2 22 27 1.00000 0.00000 0.00000
2 23 24 1.00000 0.00000 0.00000
2 23 28 1.00000 0.00000 0.00000
2 24 29 1.00000 0.00000 0.00000
2 25 26 1.00000 0.00000 0.00000
2 25 29 1.00000 0.00000 0.00000
2 26 27 1.00000 0.00000 0.00000
2 27 28 1.00000 0.00000 0.00000
2 28 29 1.00000 0.00000 0.00000
2 30 31 1.00000 0.00000 0.00000
2 30 34 1.00000 0.00000 0.00000
2 30 35 1.00000 0.00000 0.00000
2 31 32 1.00000 0.00000 0.00000
2 31 36 1.00000 0.00000 0.00000
2 32 33 1.00000 0.00000 0.00000
2 32 37 1.00000 0.00000 0.00000
2 33 34 1.00000 0.00000 0.00000
2 33 38 1.00000 0.00000 0.00000
2 34 39 1.00000 0.00000 0.00000
2 35 36 1.00000 0.00000 0.00000
2 35 39 1.00000 0.00000 0.00000
2 36 37 1.00000 0.00000 0.00000
2 37 38 1.00000 0.00000 0.00000
2 38 39 1.00000 0.00000 0.00000
2 40 41 0.00000 0.39216 0.00000
2 40 44 0.00000 0.39216 0.00000
2 40 45 0.00000 0.39216 0.00000
2 41 42 0.00000 0.39216 0.00000
2 41 46 0.00000 0.39216 0.00000
2 42 43 0.00000 0.39216 0.00000
2 42 47 0.00000 0.39216 0.00000
2 43 44 0.00000 0.39216 0.00000
2 43 48 0.00000 0.39216 0.00000
2 44 49 0.00000 0.39216 0.00000
2 45 46 0.00000 0.39216 0.00000
2 45 49 0.00000 0.39216 0.00000
2 46 47 0.00000 0.39216 0.00000
2 47 48 0.00000 0.39216 0.00000
2 48 49 0.00000 0.39216 0.00000
2 50 51 0.00000 0.39216 0.00000
2 50 54 0.00000 0.39216 0.00000
2 50 55 0.00000 0.39216 0.00000
2 51 52 0.00000 0.39216 0.00000
2 51 56 0.00000 0.39216 0.00000
2 52 53 0.00000 0.39216 0.00000
2 52 57 0.00000 0.39216 0.00000
2 53 54 0.00000 0.39216 0.00000
2 53 58 0.00000 0.39216 0.00000
2 54 59 0.00000 0.39216 0.00000
2 55 56 0.00000 0.39216 0.00000
2 55 59 0.00000 0.39216 0.00000
2 56 57 0.00000 0.39216 0.00000
2 57 58 0.00000 0.39216 0.00000
2 58 59 0.00000 0.39216 0.00000
2 60 61 0.00000 0.00000 1.00000
2 60 64 0.00000 0.00000 1.00000
2 60 65 0.00000 0.00000 1.00000
2 61 62 0.00000 0.00000 1.00000
2 61 66 0.00000 0.00000 1.00000
2 62 63 0.00000 0.00000 1.00000
2 62 67 0.00000 0.00000 1.00000
2 63 64 0.00000 0.00000 1.00000
2 63 68 0.00000 0.00000 1.00000
2 64 69 0.00000 0.00000 1.00000
2 65 66 0.00000 0.00000 1.00000
2 65 69 0.00000 0.00000 1.00000
2 66 67 0.00000 0.00000 1.00000
2 67 68 0.00000 0.00000 1.00000
2 68 69 0.00000 0.00000 1.00000
2 70 71 0.00000 0.00000 1.00000
2 70 74 0.00000 0.00000 1.00000
2 70 75 0.00000 0.00000 1.00000
2 71 72 0.00000 0.00000 1.00000
2 71 76 0.00000 0.00000 1.00000
2 72 73 0.00000 0.00000 1.00000
2 72 77 0.00000 0.00000 1.00000
2 73 74 0.00000 0.00000 1.00000
2 73 78 0.00000 0.00000 1.00000
2 74 79 0.00000 0.00000 1.00000
2 75 76 0.00000 0.00000 1.00000
2 75 79 0.00000 0.00000 1.00000
2 76 77 0.00000 0.00000 1.00000
2 77 78 0.00000 0.00000 1.00000
2 78 79 0.00000 0.00000 1.00000
2 80 81 1.00000 0.00000 1.00000
2 80 84 1.00000 0.00000 1.00000
2 80 85 1.00000 0.00000 1.00000
2 81 82 1.00000 0.00000 1.00000
2 81 86 1.00000 0.00000 1.00000
2 82 83 1.00000 0.00000 1.00000
2 82 87 1.00000 0.00000 1.00000
2 83 84 1.00000 0.00000 1.00000
2 83 88 1.00000 0.00000 1.00000
2 84 89 1.00000 0.00000 1.00000
2 85 86 1.00000 0.00000 1.00000
2 85 89 1.00000 0.00000 1.00000
2 86 87 1.00000 0.00000 1.00000
2 87 88 1.00000 0.00000 1.00000
2 88 89 1.00000 0.00000 1.00000
2 90 91 1.00000 0.00000 1.00000
2 90 94 1.00000 0.00000 1.00000
2 90 95 1.00000 0.00000 1.00000
2 91 92 1.00000 0.00000 1.00000
2 91 96 1.00000 0.00000 1.00000
2 92 93 1.00000 0.00000 1.00000
2 92 97 1.00000 0.00000 1.00000
2 93 94 1.00000 0.00000 1.00000
2 93 98 1.00000 0.00000 1.00000
2 94 99 1.00000 0.00000 1.00000
2 95 96 1.00000 0.00000 1.00000
2 95 99 1.00000 0.00000 1.00000
2 96 97 1.00000 0.00000 1.00000
2 97 98 1.00000 0.00000 1.00000
2 98 99 1.00000 0.00000 1.00000
2 100 101 0.00000 1.00000 1.00000
2 100 104 0.00000 1.00000 1.00000
2 100 105 0.00000 1.00000 1.00000
2 101 102 0.00000 1.00000 1.00000
2 101 106 0.00000 1.00000 1.00000
2 102 103 0.00000 1.00000 1.00000
2 102 107 0.00000 1.00000 1.00000
2 103 104 0.00000 1.00000 1.00000
2 103 108 0.00000 1.00000 1.00000
2 104 109 0.00000 1.00000 1.00000
2 105 106 0.00000 1.00000 1.00000
2 105 109 0.00000 1.00000 1.00000
2 106 107 0.00000 1.00000 1.00000
2 107 108 0.00000 1.00000 1.00000
2 108 109 0.00000 1.00000 1.00000
2 110 111 0.00000 1.00000 1.00000
2 110 114 0.00000 1.00000 1.00000
2 110 115 0.00000 1.00000 1.00000
2 111 112 0.00000 1.00000 1.00000
2 111 116 0.00000 1.00000 1.00000
2 112 113 0.00000 1.00000 1.00000
2 112 117 0.00000 1.00000 1.00000
2 113 114 0.00000 1.00000 1.00000
2 113 118 0.00000 1.00000 1.00000
2 114 119 0.00000 1.00000 1.00000
2 115 116 0.00000 1.00000 1.00000
2 115 119 0.00000 1.00000 1.00000
2 116 117 0.00000 1.00000 1.00000
2 117 118 0.00000 1.00000 1.00000
2 118 119 0.00000 1.00000 1.00000
1 0 1.00000 1.00000 0.00000
1 1 1.00000 1.00000 0.00000
1 2 1.00000 1.00000 0.00000
1 3 1.00000 1.00000 0.00000
1 4 1.00000 1.00000 0.00000
1 5 1.00000 1.00000 0.00000
1 6 1.00000 1.00000 0.00000
1 7 1.00000 1.00000 0.00000
1 8 1.00000 1.00000 0.00000
1 9 1.00000 1.00000 0.00000
1 10 1.00000 1.00000 0.00000
1 11 1.00000 1.00000 0.00000
1 12 1.00000 1.00000 0.00000
1 13 1.00000 1.00000 0.00000
1 14 1.00000 1.00000 0.00000
1 15 1.00000 1.00000 0.00000
1 16 1.00000 1.00000 0.00000
1 17 1.00000 1.00000 0.00000
1 18 1.00000 1.00000 0.00000
1 19 1.00000 1.00000 0.00000
1 20 1.00000 0.00000 0.00000
1 21 1.00000 0.00000 0.00000
1 22 1.00000 0.00000 0.00000
1 23 1.00000 0.00000 0.00000
1 24 1.00000 0.00000 0.00000
1 25 1.00000 0.00000 0.00000
1 26 1.00000 0.00000 0.00000
1 27 1.00000 0.00000 0.00000
1 28 1.00000 0.00000 0.00000
1 29 1.00000 0.00000 0.00000
1 30 1.00000 0.00000 0.00000
1 31 1.00000 0.00000 0.00000
1 32 1.00000 0.00000 0.00000
1 33 1.00000 0.00000 0.00000
1 34 1.00000 0.00000 0.00000
1 35 1.00000 0.00000 0.00000
1 36 1.00000 0.00000 0.00000
1 37 1.00000 0.00000 0.00000
1 38 1.00000 0.00000 0.00000
1 39 1.00000 0.00000 0.00000
1 40 0.00000 0.39216 0.00000
1 41 0.00000 0.39216 0.00000
1 42 0.00000 0.39216 0.00000
1 43 0.00000 0.39216 0.00000
1 44 0.00000 0.39216 0.00000
1 45 0.00000 0.39216 0.00000
1 46 0.00000 0.39216 0.00000
1 47 0.00000 0.39216 0.00000
1 48 0.00000 0.39216 0.00000
1 49 0.00000 0.39216 0.00000
1 50 0.00000 0.39216 0.00000
1 51 0.00000 0.39216 0.00000
1 52 0.00000 0.39216 0.00000
1 53 0.00000 0.39216 0.00000
1 54 0.00000 0.39216 0.00000
1 55 0.00000 0.39216 0.00000
1 56 0.00000 0.39216 0.00000
1 57 0.00000 0.39216 0.00000
1 58 0.00000 0.39216 0.00000
1 59 0.00000 0.39216 0.00000
1 60 0.00000 0.00000 1.00000
1 61 0.00000 0.00000 1.00000
1 62 0.00000 0.00000 1.00000
1 63 0.00000 0.00000 1.00000
1 64 0.00000 0.00000 1.00000
1 65 0.00000 0.00000 1.00000
1 66 0.00000 0.00000 1.00000
1 67 0.00000 0.00000 1.00000
1 68 0.00000 0.00000 1.00000
1 69 0.00000 0.00000 1.00000
1 70 0.00000 0.00000 1.00000
1 71 0.00000 0.00000 1.00000
1 72 0.00000 0.00000 1.00000
1 73 0.00000 0.00000 1.00000
1 74 0.00000 0.00000 1.00000
1 75 0.00000 0.00000 1.00000
1 76 0.00000 0.00000 1.00000
1 77 0.00000 0.00000 1.00000
1 78 0.00000 0.00000 1.00000
1 79 0.00000 0.00000 1.00000
1 80 1.00000 0.00000 1.00000
1 81 1.00000 0.00000 1.00000
1 82 1.00000 0.00000 1.00000
1 83 1.00000 0.00000 1.00000
1 84 1.00000 0.00000 1.00000
1 85 1.00000 0.00000 1.00000
1 86 1.00000 0.00000 1.00000
1 87 1.00000 0.00000 1.00000
1 88 1.00000 0.00000 1.00000
1 89 1.00000 0.00000 1.00000
1 90 1.00000 0.00000 1.00000
1 91 1.00000 0.00000 1.00000
1 92 1.00000 0.00000 1.00000
1 93 1.00000 0.00000 1.00000
1 94 1.00000 0.00000 1.00000
1 95 1.00000 0.00000 1.00000
1 96 1.00000 0.00000 1.00000
1 97 1.00000 0.00000 1.00000
1 98 1.00000 0.00000 1.00000
1 99 1.00000 0.00000 1.00000
1 100 0.00000 1.00000 1.00000
1 101 0.00000 1.00000 1.00000
1 102 0.00000 1.00000 1.00000
1 103 0.00000 1.00000 1.00000
1 104 0.00000 1.00000 1.00000
1 105 0.00000 1.00000 1.00000
1 106 0.00000 1.00000 1.00000
1 107 0.00000 1.00000 1.00000
1 108 0.00000 1.00000 1.00000
1 109 0.00000 1.00000 1.00000
1 110 0.00000 1.00000 1.00000
1 111 0.00000 1.00000 1.00000
1 112 0.00000 1.00000 1.00000
1 113 0.00000 1.00000 1.00000
1 114 0.00000 1.00000 1.00000
1 115 0.00000 1.00000 1.00000
1 116 0.00000 1.00000 1.00000
1 117 0.00000 1.00000 1.00000
1 118 0.00000 1.00000 1.00000
1 119 0.00000 1.00000 1.00000
