OFF
120 504 0
0.1624598481164532 0.63197752323721956 0.071504596428644304
0.16245984811645323 -0.21867328511482037 0.59723570854777774
-0.42532540417601999 0.46951767512076631 0.17191030437175792
0.52573111211913359 0.20665211906119971 0.33437015248821095
-0.42532540417601983 -0.056213436998367394 0.4968300006046642
0.52573111211913359 -0.20665211906119954 -0.334370152488211
-0.42532540417601994 -0.46951767512076642 -0.17191030437175789
0.16245984811645306 0.21867328511482043 -0.59723570854777774
0.16245984811645331 -0.63197752323721945 -0.071504596428644346
-0.42532540417602016 0.056213436998367117 -0.49683000060466409
0.42532540417601988 0.46951767512076636 0.17191030437175805
-0.5257311121191337 0.20665211906119954 0.334370152488211
0.42532540417601983 -0.056213436998367311 0.49683000060466426
-0.16245984811645303 0.63197752323721956 0.07150459642864429
-0.16245984811645353 -0.2186732851148204 0.59723570854777774
-0.16245984811645309 0.21867328511482048 -0.59723570854777774
-0.16245984811645325 -0.63197752323721945 -0.071504596428644415
0.42532540417602011 0.056213436998367228 -0.49683000060466403
-0.52573111211913348 -0.2066521190611994 -0.33437015248821123
0.42532540417601994 -0.46951767512076648 -0.17191030437175778
0.46951767512076653 -0.17191030437175756 0.42532540417601988
0.20665211906119962 -0.33437015248821123 -0.52573111211913348
-0.056213436998367158 -0.49683000060466387 0.42532540417602016
0.63197752323721956 -0.071504596428644207 -0.16245984811645311
-0.21867328511482026 -0.59723570854777774 -0.16245984811645295
0.21867328511482023 0.59723570854777763 -0.16245984811645353
-0.63197752323721967 0.071504596428644041 -0.16245984811645303
0.056213436998367144 0.49683000060466431 0.42532540417601972
-0.20665211906119954 0.33437015248821078 -0.5257311121191337
-0.46951767512076659 0.17191030437175797 0.42532540417601994
0.63197752323721956 -0.071504596428644207 0.16245984811645298
-0.21867328511482034 -0.59723570854777774 0.16245984811645359
0.46951767512076625 -0.17191030437175817 -0.42532540417602005
0.20665211906119979 -0.33437015248821061 0.52573111211913359
-0.056213436998367505 -0.49683000060466453 -0.42532540417601949
-0.20665211906119946 0.33437015248821123 0.52573111211913348
-0.46951767512076653 0.17191030437175756 -0.42532540417601977
0.21867328511482043 0.59723570854777785 0.16245984811645264
-0.63197752323721945 0.071504596428644401 0.16245984811645345
0.056213436998367061 0.49683000060466387 -0.42532540417602038
0.46951767512076664 0.17191030437175756 -0.42532540417601983
0.20665211906119957 0.33437015248821111 0.52573111211913348
-0.056213436998367054 0.49683000060466392 -0.42532540417602016
0.63197752323721956 0.071504596428644124 0.16245984811645314
-0.21867328511482023 0.59723570854777774 0.162459848116453
0.2186732851148202 -0.59723570854777774 0.1624598481164535
-0.63197752323721967 -0.071504596428644041 0.16245984811645303
0.056213436998367144 -0.4968300006046642 -0.42532540417601972
-0.20665211906119968 -0.33437015248821084 0.5257311121191337
-0.46951767512076648 -0.17191030437175786 -0.42532540417601994
0.63197752323721956 0.071504596428644179 -0.16245984811645298
-0.21867328511482031 0.59723570854777774 -0.16245984811645356
0.46951767512076614 0.17191030437175808 0.42532540417602011
0.20665211906119993 0.33437015248821067 -0.52573111211913359
-0.056213436998367533 0.49683000060466448 0.42532540417601955
-0.2066521190611994 -0.33437015248821117 -0.52573111211913348
-0.46951767512076664 -0.17191030437175758 0.42532540417601972
0.2186732851148204 -0.59723570854777774 -0.1624598481164527
-0.63197752323721934 -0.071504596428644318 -0.16245984811645348
0.056213436998366957 -0.49683000060466381 0.42532540417602038
0.42532540417601994 -0.056213436998367214 -0.49683000060466403
-0.16245984811645306 0.63197752323721956 -0.071504596428644235
-0.16245984811645325 -0.21867328511482029 -0.59723570854777774
0.42532540417602011 0.4695176751207662 -0.17191030437175786
-0.52573111211913359 0.20665211906119976 -0.33437015248821089
0.42532540417602005 0.056213436998367172 0.49683000060466409
-0.5257311121191337 -0.20665211906119949 0.33437015248821089
0.42532540417601983 -0.46951767512076642 0.1719103043717578
-0.16245984811645292 0.21867328511482034 0.59723570854777763
-0.16245984811645345 -0.63197752323721956 0.071504596428644235
0.52573111211913348 0.20665211906119962 -0.334370152488211
-0.42532540417602005 -0.056213436998367228 -0.49683000060466409
0.162459848116453 0.63197752323721956 -0.071504596428644263
0.16245984811645325 -0.21867328511482029 -0.59723570854777763
-0.42532540417602027 0.4695176751207662 -0.17191030437175797
0.16245984811645323 -0.63197752323721956 0.071504596428644179
-0.42532540417601994 0.056213436998367068 0.49683000060466398
0.5257311121191337 -0.20665211906119946 0.334370152488211
-0.42532540417601972 -0.46951767512076648 0.17191030437175778
0.16245984811645311 0.2186732851148204 0.59723570854777763
0.33437015248821111 0.5257311121191337 0.2066521190611994
0.49683000060466403 -0.42532540417602005 -0.056213436998367089
0.071504596428644263 0.16245984811645331 0.63197752323721945
0.59723570854777774 0.16245984811645314 -0.2186732851148204
0.1719103043717578 -0.42532540417601994 0.46951767512076636
-0.071504596428644152 0.162459848116453 -0.63197752323721967
-0.4968300006046642 -0.42532540417601994 0.056213436998367332
-0.33437015248821089 0.52573111211913359 -0.20665211906119968
-0.17191030437175792 -0.42532540417601994 -0.46951767512076631
-0.59723570854777785 0.16245984811645317 0.21867328511482043
0.49683000060466431 0.42532540417601972 -0.056213436998367249
0.071504596428644096 -0.16245984811645303 0.63197752323721967
0.59723570854777774 -0.16245984811645353 -0.21867328511482015
0.17191030437175803 0.42532540417602022 0.46951767512076609
0.33437015248821067 -0.5257311121191337 0.20665211906120007
-0.49683000060466392 0.42532540417602016 0.056213436998367033
-0.33437015248821123 -0.52573111211913348 -0.20665211906119932
-0.17191030437175761 0.42532540417601983 -0.46951767512076659
-0.59723570854777774 -0.16245984811645267 0.21867328511482031
-0.071504596428644235 -0.16245984811645353 -0.63197752323721945
0.33437015248821123 -0.5257311121191337 -0.20665211906119929
0.49683000060466409 0.42532540417601999 0.056213436998367089
0.071504596428644374 -0.16245984811645336 -0.63197752323721945
0.59723570854777774 -0.16245984811645311 0.21867328511482051
0.17191030437175792 0.42532540417601988 -0.46951767512076648
-0.07150459642864429 -0.16245984811645292 0.63197752323721967
-0.4968300006046642 0.42532540417601983 -0.056213436998367443
-0.334370152488211 -0.52573111211913348 0.20665211906119973
-0.17191030437175797 0.42532540417602005 0.46951767512076631
-0.59723570854777785 -0.1624598481164532 -0.21867328511482054
0.49683000060466431 -0.42532540417601972 0.056213436998367415
0.071504596428644235 0.16245984811645295 -0.63197752323721978
0.59723570854777774 0.16245984811645356 0.21867328511482026
0.17191030437175811 -0.42532540417602022 -0.46951767512076609
0.33437015248821078 0.5257311121191337 -0.20665211906120012
-0.49683000060466398 -0.42532540417602016 -0.056213436998367033
-0.33437015248821128 0.52573111211913359 0.20665211906119924
-0.17191030437175772 -0.42532540417601977 0.4695176751207667
-0.59723570854777785 0.1624598481164527 -0.21867328511482048
-0.071504596428644346 0.16245984811645356 0.63197752323721945
5 4 3 2 1 0 1.00000 1.00000 0.00000
5 5 6 7 8 9 1.00000 1.00000 0.00000
3 0 1 5 1.00000 1.00000 0.00000
3 1 2 6 1.00000 1.00000 0.00000
3 2 3 7 1.00000 1.00000 0.00000
3 3 4 8 1.00000 1.00000 0.00000
3 4 0 9 1.00000 1.00000 0.00000
3 6 5 1 1.00000 1.00000 0.00000
3 7 6 2 1.00000 1.00000 0.00000
3 8 7 3 1.00000 1.00000 0.00000
3 9 8 4 1.00000 1.00000 0.00000
3 5 9 0 1.00000 1.00000 0.00000
5 14 13 12 11 10 1.00000 1.00000 0.00000
5 15 16 17 18 19 1.00000 1.00000 0.00000
3 10 11 15 1.00000 1.00000 0.00000
3 11 12 16 1.00000 1.00000 0.00000
3 12 13 17 1.00000 1.00000 0.00000
3 13 14 18 1.00000 1.00000 0.00000
3 14 10 19 1.00000 1.00000 0.00000
3 16 15 11 1.00000 1.00000 0.00000
3 17 16 12 1.00000 1.00000 0.00000
3 18 17 13 1.00000 1.00000 0.00000
3 19 18 14 1.00000 1.00000 0.00000
3 15 19 10 1.00000 1.00000 0.00000
5 24 23 22 21 20 1.00000 0.00000 0.00000
5 25 26 27 28 29 1.00000 0.00000 0.00000
3 20 21 25 1.00000 0.00000 0.00000
3 21 22 26 1.00000 0.00000 0.00000
3 22 23 27 1.00000 0.00000 0.00000
3 23 24 28 1.00000 0.00000 0.00000
3 24 20 29 1.00000 0.00000 0.00000
3 26 25 21 1.00000 0.00000 0.00000
3 27 26 22 1.00000 0.00000 0.00000
3 28 27 23 1.00000 0.00000 0.00000
3 29 28 24 1.00000 0.00000 0.00000
3 25 29 20 1.00000 0.00000 0.00000
5 34 33 32 31 30 1.00000 0.00000 0.00000
5 35 36 37 38 39 1.00000 0.00000 0.00000
3 30 31 35 1.00000 0.00000 0.00000
3 31 32 36 1.00000 0.00000 0.00000
3 32 33 37 1.00000 0.00000 0.00000
3 33 34 38 1.00000 0.00000 0.00000
3 34 30 39 1.00000 0.00000 0.00000
3 36 35 31 1.00000 0.00000 0.00000
3 37 36 32 1.00000 0.00000 0.00000
3 38 37 33 1.00000 0.00000 0.00000
3 39 38 34 1.00000 0.00000 0.00000
3 35 39 30 1.00000 0.00000 0.00000
5 44 43 42 41 40 0.00000 0.39216 0.00000
5 45 46 47 48 49 0.00000 0.39216 0.00000
3 40 41 45 0.00000 0.39216 0.00000
3 41 42 46 0.00000 0.39216 0.00000
3 42 43 47 0.00000 0.39216 0.00000
3 43 44 48 0.00000 0.39216 0.00000
3 44 40 49 0.00000 0.39216 0.00000
3 46 45 41 0.00000 0.39216 0.00000
3 47 46 42 0.00000 0.39216 0.00000
3 48 47 43 0.00000 0.39216 0.00000
3 49 48 44 0.00000 0.39216 0.00000
3 45 49 40 0.00000 0.39216 0.00000
5 54 53 52 51 50 0.00000 0.39216 0.00000
5 55 56 57 58 59 0.00000 0.39216 0.00000
3 50 51 55 0.00000 0.39216 0.00000
3 51 52 56 0.00000 0.39216 0.00000
3 52 53 57 0.00000 0.39216 0.00000
3 53 54 58 0.00000 0.39216 0.00000
3 54 50 59 0.00000 0.39216 0.00000
3 56 55 51 0.00000 0.39216 0.00000
3 57 56 52 0.00000 0.39216 0.00000
3 58 57 53 0.00000 0.39216 0.00000
3 59 58 54 0.00000 0.39216 0.00000
3 55 59 50 0.00000 0.39216 0.00000
5 64 63 62 61 60 0.00000 0.00000 1.00000
5 65 66 67 68 69 0.00000 0.00000 1.00000
3 60 61 65 0.00000 0.00000 1.00000
3 61 62 66 0.00000 0.00000 1.00000
3 62 63 67 0.00000 0.00000 1.00000
3 63 64 68 0.00000 0.00000 1.00000
3 64 60 69 0.00000 0.00000 1.00000
3 66 65 61 0.00000 0.00000 1.00000
3 67 66 62 0.00000 0.00000 1.00000
3 68 67 63 0.00000 0.00000 1.00000
3 69 68 64 0.00000 0.00000 1.00000
3 65 69 60 0.00000 0.00000 1.00000
5 74 73 72 71 70 0.00000 0.00000 1.00000
5 75 76 77 78 79 0.00000 0.00000 1.00000
3 70 71 75 0.00000 0.00000 1.00000
3 71 72 76 0.00000 0.00000 1.00000
3 72 73 77 0.00000 0.00000 1.00000
3 73 74 78 0.00000 0.00000 1.00000
3 74 70 79 0.00000 0.00000 1.00000
3 76 75 71 0.00000 0.00000 1.00000
3 77 76 72 0.00000 0.00000 1.00000
3 78 77 73 0.00000 0.00000 1.00000
3 79 78 74 0.00000 0.00000 1.00000
3 75 79 70 0.00000 0.00000 1.00000
5 84 83 82 81 80 1.00000 0.00000 1.00000
5 85 86 87 88 89 1.00000 0.00000 1.00000
3 80 81 85 1.00000 0.00000 1.00000
3 81 82 86 1.00000 0.00000 1.00000
3 82 83 87 1.00000 0.00000 1.00000
3 83 84 88 1.00000 0.00000 1.00000
3 84 80 89 1.00000 0.00000 1.00000
3 86 85 81 1.00000 0.00000 1.00000
3 87 86 82 1.00000 0.00000 1.00000
3 88 87 83 1.00000 0.00000 1.00000
3 89 88 84 1.00000 0.00000 1.00000
3 85 89 80 1.00000 0.00000 1.00000
5 94 93 92 91 90 1.00000 0.00000 1.00000
5 95 96 97 98 99 1.00000 0.00000 1.00000
3 90 91 95 1.00000 0.00000 1.00000
3 91 92 96 1.00000 0.00000 1.00000
3 92 93 97 1.00000 0.00000 1.00000
3 93 94 98 1.00000 0.00000 1.00000
3 94 90 99 1.00000 0.00000 1.00000
3 96 95 91 1.00000 0.00000 1.00000
3 97 96 92 1.00000 0.00000 1.00000
3 98 97 93 1.00000 0.00000 1.00000
3 99 98 94 1.00000 0.00000 1.00000
3 95 99 90 1.00000 0.00000 1.00000
5 104 103 102 101 100 0.00000 1.00000 1.00000
5 105 106 107 108 109 0.00000 1.00000 1.00000
3 100 101 105 0.00000 1.00000 1.00000
3 101 102 106 0.00000 1.00000 1.00000
3 102 103 107 0.00000 1.00000 1.00000
3 103 104 108 0.00000 1.00000 1.00000
3 104 100 109 0.00000 1.00000 1.00000
3 106 105 101 0.00000 1.00000 1.00000
3 107 106 102 0.00000 1.00000 1.00000
3 108 107 103 0.00000 1.00000 1.00000
3 109 108 104 0.00000 1.00000 1.00000
3 105 109 100 0.00000 1.00000 1.00000
5 114 113 112 111 110 0.00000 1.00000 1.00000
5 115 116 117 118 119 0.00000 1.00000 1.00000
3 110 111 115 0.00000 1.00000 1.00000
3 111 112 116 0.00000 1.00000 1.00000
3 112 113 117 0.00000 1.00000 1.00000
3 113 114 118 0.00000 1.00000 1.00000
3 114 110 119 0.00000 1.00000 1.00000
3 116 115 111 0.00000 1.00000 1.00000
3 117 116 112 0.00000 1.00000 1.00000
3 118 117 113 0.00000 1.00000 1.00000
3 119 118 114 0.00000 1.00000 1.00000
3 115 119 110 0.00000 1.00000 1.00000
2 0 1 1.00000 1.00000 0.00000
2 0 4 1.00000 1.00000 0.00000
2 0 5 1.00000 1.00000 0.00000
2 0 9 1.00000 1.00000 0.00000
2 1 2 1.00000 1.00000 0.00000
2 1 5 1.00000 1.00000 0.00000
2 1 6 1.00000 1.00000 0.00000
2 2 3 1.00000 1.00000 0.00000
2 2 6 1.00000 1.00000 0.00000
2 2 7 1.00000 1.00000 0.00000
2 3 4 1.00000 1.00000 0.00000
2 3 7 1.00000 1.00000 0.00000
2 3 8 1.00000 1.00000 0.00000
2 4 8 1.00000 1.00000 0.00000
2 4 9 1.00000 1.00000 0.00000
2 5 6 1.00000 1.00000 0.00000
2 5 9 1.00000 1.00000 0.00000
2 6 7 1.00000 1.00000 0.00000
2 7 8 1.00000 1.00000 0.00000
2 8 9 1.00000 1.00000 0.00000
2 10 11 1.00000 1.00000 0.00000
2 10 14 1.00000 1.00000 0.00000
2 10 15 1.00000 1.00000 0.00000
2 10 19 1.00000 1.00000 0.00000
2 11 12 1.00000 1.00000 0.00000
2 11 15 1.00000 1.00000 0.00000
2 11 16 1.00000 1.00000 0.00000
2 12 13 1.00000 1.00000 0.00000
2 12 16 1.00000 1.00000 0.00000
2 12 17 1.00000 1.00000 0.00000
2 13 14 1.00000 1.00000 0.00000
2 13 17 1.00000 1.00000 0.00000
2 13 18 1.00000 1.00000 0.00000
2 14 18 1.00000 1.00000 0.00000
2 14 19 1.00000 1.00000 0.00000
2 15 16 1.00000 1.00000 0.00000
2 15 19 1.00000 1.00000 0.00000
2 16 17 1.00000 1.00000 0.00000
2 17 18 1.00000 1.00000 0.00000
2 18 19 1.00000 1.00000 0.00000
2 20 21 1.00000 0.00000 0.00000
2 20 24 1.00000 0.00000 0.00000
2 20 25 1.00000 0.00000 0.00000
2 20 29 1.00000 0.00000 0.00000
2 21 22 1.00000 0.00000 0.00000
2 21 25 1.00000 0.00000 0.00000
2 21 26 1.00000 0.00000 0.00000
2 22 23 1.00000 0.00000 0.00000
2 22 26 1.00000 0.00000 0.00000
2 22 27 1.00000 0.00000 0.00000
2 23 24 1.00000 0.00000 0.00000
2 23 27 1.00000 0.00000 0.00000
2 23 28 1.00000 0.00000 0.00000
2 24 28 1.00000 0.00000 0.00000
2 24 29 1.00000 0.00000 0.00000
2 25 26 1.00000 0.00000 0.00000
2 25 29 1.00000 0.00000 0.00000
2 26 27 1.00000 0.00000 0.00000
2 27 28 1.00000 0.00000 0.00000
2 28 29 1.00000 0.00000 0.00000
2 30 31 1.00000 0.00000 0.00000
2 30 34 1.00000 0.00000 0.00000
2 30 35 1.00000 0.00000 0.00000
2 30 39 1.00000 0.00000 0.00000
2 31 32 1.00000 0.00000 0.00000
2 31 35 1.00000 0.00000 0.00000
2 31 36 1.00000 0.00000 0.00000
2 32 33 1.00000 0.00000 0.00000
2 32 36 1.00000 0.00000 0.00000
2 32 37 1.00000 0.00000 0.00000
2 33 34 1.00000 0.00000 0.00000
2 33 37 1.00000 0.00000 0.00000
2 33 38 1.00000 0.00000 0.00000
2 34 38 1.00000 0.00000 0.00000
2 34 39 1.00000 0.00000 0.00000
2 35 36 1.00000 0.00000 0.00000
2 35 39 1.00000 0.00000 0.00000
2 36 37 1.00000 0.00000 0.00000
2 37 38 1.00000 0.00000 0.00000
2 38 39 1.00000 0.00000 0.00000
2 40 41 0.00000 0.39216 0.00000
2 40 44 0.00000 0.39216 0.00000
2 40 45 0.00000 0.39216 0.00000
2 40 49 0.00000 0.39216 0.00000
2 41 42 0.00000 0.39216 0.00000
2 41 45 0.00000 0.39216 0.00000
2 41 46 0.00000 0.39216 0.00000
2 42 43 0.00000 0.39216 0.00000
2 42 46 0.00000 0.39216 0.00000
2 42 47 0.00000 0.39216 0.00000
2 43 44 0.00000 0.39216 0.00000
2 43 47 0.00000 0.39216 0.00000
2 43 48 0.00000 0.39216 0.00000
2 44 48 0.00000 0.39216 0.00000
2 44 49 0.00000 0.39216 0.00000
2 45 46 0.00000 0.39216 0.00000
2 45 49 0.00000 0.39216 0.00000
2 46 47 0.00000 0.39216 0.00000
2 47 48 0.00000 0.39216 0.00000
2 48 49 0.00000 0.39216 0.00000
2 50 51 0.00000 0.39216 0.00000
2 50 54 0.00000 0.39216 0.00000
2 50 55 0.00000 0.39216 0.00000
2 50 59 0.00000 0.39216 0.00000
2 51 52 0.00000 0.39216 0.00000
2 51 55 0.00000 0.39216 0.00000
2 51 56 0.00000 0.39216 0.00000
2 52 53 0.00000 0.39216 0.00000
2 52 56 0.00000 0.39216 0.00000
2 52 57 0.00000 0.39216 0.00000
2 53 54 0.00000 0.39216 0.00000
2 53 57 0.00000 0.39216 0.00000
2 53 58 0.00000 0.39216 0.00000
2 54 58 0.00000 0.39216 0.00000
2 54 59 0.00000 0.39216 0.00000
2 55 56 0.00000 0.39216 0.00000
2 55 59 0.00000 0.39216 0.00000
2 56 57 0.00000 0.39216 0.00000
2 57 58 0.00000 0.39216 0.00000
2 58 59 0.00000 0.39216 0.00000
2 60 61 0.00000 0.00000 1.00000
2 60 64 0.00000 0.00000 1.00000
2 60 65 0.00000 0.00000 1.00000
2 60 69 0.00000 0.00000 1.00000
2 61 62 0.00000 0.00000 1.00000
2 61 65 0.00000 0.00000 1.00000
2 61 66 0.00000 0.00000 1.00000
2 62 63 0.00000 0.00000 1.00000
2 62 66 0.00000 0.00000 1.00000
2 62 67 0.00000 0.00000 1.00000
2 63 64 0.00000 0.00000 1.00000
2 63 67 0.00000 0.00000 1.00000
2 63 68 0.00000 0.00000 1.00000
2 64 68 0.00000 0.00000 1.00000
2 64 69 0.00000 0.00000 1.00000
2 65 66 0.00000 0.00000 1.00000
2 65 69 0.00000 0.00000 1.00000
2 66 67 0.00000 0.00000 1.00000
2 67 68 0.00000 0.00000 1.00000
2 68 69 0.00000 0.00000 1.00000
2 70 71 0.00000 0.00000 1.00000
2 70 74 0.00000 0.00000 1.00000
2 70 75 0.00000 0.00000 1.00000
2 70 79 0.00000 0.00000 1.00000
2 71 72 0.00000 0.00000 1.00000
2 71 75 0.00000 0.00000 1.00000
2 71 76 0.00000 0.00000 1.00000
2 72 73 0.00000 0.00000 1.00000
2 72 76 0.00000 0.00000 1.00000
2 72 77 0.00000 0.00000 1.00000
2 73 74 0.00000 0.00000 1.00000
2 73 77 0.00000 0.00000 1.00000
2 73 78 0.00000 0.00000 1.00000
2 74 78 0.00000 0.00000 1.00000
2 74 79 0.00000 0.00000 1.00000
2 75 76 0.00000 0.00000 1.00000
2 75 79 0.00000 0.00000 1.00000
2 76 77 0.00000 0.00000 1.00000
2 77 78 0.00000 0.00000 1.00000
2 78 79 0.00000 0.00000 1.00000
2 80 81 1.00000 0.00000 1.00000
2 80 84 1.00000 0.00000 1.00000
2 80 85 1.00000 0.00000 1.00000
2 80 89 1.00000 0.00000 1.00000
2 81 82 1.00000 0.00000 1.00000
2 81 85 1.00000 0.00000 1.00000
2 81 86 1.00000 0.00000 1.00000
2 82 83 1.00000 0.00000 1.00000
2 82 86 1.00000 0.00000 1.00000
2 82 87 1.00000 0.00000 1.00000
2 83 84 1.00000 0.00000 1.00000
2 83 87 1.00000 0.00000 1.00000
2 83 88 1.00000 0.00000 1.00000
2 84 88 1.00000 0.00000 1.00000
2 84 89 1.00000 0.00000 1.00000
2 85 86 1.00000 0.00000 1.00000
2 85 89 1.00000 0.00000 1.00000
2 86 87 1.00000 0.00000 1.00000
2 87 88 1.00000 0.00000 1.00000
2 88 89 1.00000 0.00000 1.00000
2 90 91 1.00000 0.00000 1.00000
2 90 94 1.00000 0.00000 1.00000
2 90 95 1.00000 0.00000 1.00000
2 90 99 1.00000 0.00000 1.00000
2 91 92 1.00000 0.00000 1.00000
2 91 95 1.00000 0.00000 1.00000
2 91 96 1.00000 0.00000 1.00000
2 92 93 1.00000 0.00000 1.00000
2 92 96 1.00000 0.00000 1.00000
2 92 97 1.00000 0.00000 1.00000
2 93 94 1.00000 0.00000 1.00000
2 93 97 1.00000 0.00000 1.00000
2 93 98 1.00000 0.00000 1.00000
2 94 98 1.00000 0.00000 1.00000
2 94 99 1.00000 0.00000 1.00000
2 95 96 1.00000 0.00000 1.00000
2 95 99 1.00000 0.00000 1.00000
2 96 97 1.00000 0.00000 1.00000
2 97 98 1.00000 0.00000 1.00000
2 98 99 1.00000 0.00000 1.00000
2 100 101 0.00000 1.00000 1.00000
2 100 104 0.00000 1.00000 1.00000
2 100 105 0.00000 1.00000 1.00000
2 100 109 0.00000 1.00000 1.00000
2 101 102 0.00000 1.00000 1.00000
2 101 105 0.00000 1.00000 1.00000
2 101 106 0.00000 1.00000 1.00000
2 102 103 0.00000 1.00000 1.00000
2 102 106 0.00000 1.00000 1.00000
2 102 107 0.00000 1.00000 1.00000
2 103 104 0.00000 1.00000 1.00000
2 103 107 0.00000 1.00000 1.00000
2 103 108 0.00000 1.00000 1.00000
2 104 108 0.00000 1.00000 1.00000
2 104 109 0.00000 1.00000 1.00000
2 105 106 0.00000 1.00000 1.00000
2 105 109 0.00000 1.00000 1.00000
2 106 107 0.00000 1.00000 1.00000
2 107 108 0.00000 1.00000 1.00000
2 108 109 0.00000 1.00000 1.00000
2 110 111 0.00000 1.00000 1.00000
2 110 114 0.00000 1.00000 1.00000
2 110 115 0.00000 1.00000 1.00000
2 110 119 0.00000 1.00000 1.00000
2 111 112 0.00000 1.00000 1.00000
2 111 115 0.00000 1.00000 1.00000
2 111 116 0.00000 1.00000 1.00000
2 112 113 0.00000 1.00000 1.00000
2 112 116 0.00000 1.00000 1.00000
2 112 117 0.00000 1.00000 1.00000
2 113 114 0.00000 1.00000 1.00000
2 113 117 0.00000 1.00000 1.00000
2 113 118 0.00000 1.00000 1.00000
2 114 118 0.00000 1.00000 1.00000
2 114 119 0.00000 1.00000 1.00000
2 115 116 0.00000 1.00000 1.00000
2 115 119 0.00000 1.00000 1.00000
2 116 117 0.00000 1.00000 1.00000
2 117 118 0.00000 1.00000 1.00000
2 118 119 0.00000 1.00000 1.00000
1 0 1.00000 1.00000 0.00000
1 1 1.00000 1.00000 0.00000
1 2 1.00000 1.00000 0.00000
1 3 1.00000 1.00000 0.00000
1 4 1.00000 1.00000 0.00000
1 5 1.00000 1.00000 0.00000
1 6 1.00000 1.00000 0.00000
1 7 1.00000 1.00000 0.00000
1 8 1.00000 1.00000 0.00000
1 9 1.00000 1.00000 0.00000
1 10 1.00000 1.00000 0.00000
1 11 1.00000 1.00000 0.00000
1 12 1.00000 1.00000 0.00000
1 13 1.00000 1.00000 0.00000
1 14 1.00000 1.00000 0.00000
1 15 1.00000 1.00000 0.00000
1 16 1.00000 1.00000 0.00000
1 17 1.00000 1.00000 0.00000
1 18 1.00000 1.00000 0.00000
1 19 1.00000 1.00000 0.00000
1 20 1.00000 0.00000 0.00000
1 21 1.00000 0.00000 0.00000
1 22 1.00000 0.00000 0.00000
1 23 1.00000 0.00000 0.00000
1 24 1.00000 0.00000 0.00000
1 25 1.00000 0.00000 0.00000
1 26 1.00000 0.00000 0.00000
1 27 1.00000 0.00000 0.00000
1 28 1.00000 0.00000 0.00000
1 29 1.00000 0.00000 0.00000
1 30 1.00000 0.00000 0.00000
1 31 1.00000 0.00000 0.00000
1 32 1.00000 0.00000 0.00000
1 33 1.00000 0.00000 0.00000
1 34 1.00000 0.00000 0.00000
1 35 1.00000 0.00000 0.00000
1 36 1.00000 0.00000 0.00000
1 37 1.00000 0.00000 0.00000
1 38 1.00000 0.00000 0.00000
1 39 1.00000 0.00000 0.00000
1 40 0.00000 0.39216 0.00000
1 41 0.00000 0.39216 0.00000
1 42 0.00000 0.39216 0.00000
1 43 0.00000 0.39216 0.00000
1 44 0.00000 0.39216 0.00000
1 45 0.00000 0.39216 0.00000
1 46 0.00000 0.39216 0.00000
1 47 0.00000 0.39216 0.00000
1 48 0.00000 0.39216 0.00000
1 49 0.00000 0.39216 0.00000
1 50 0.00000 0.39216 0.00000
1 51 0.00000 0.39216 0.00000
1 52 0.00000 0.39216 0.00000
1 53 0.00000 0.39216 0.00000
1 54 0.00000 0.39216 0.00000
1 55 0.00000 0.39216 0.00000
1 56 0.00000 0.39216 0.00000
1 57 0.00000 0.39216 0.00000
1 58 0.00000 0.39216 0.00000
1 59 0.00000 0.39216 0.00000
1 60 0.00000 0.00000 1.00000
1 61 0.00000 0.00000 1.00000
1 62 0.00000 0.00000 1.00000
1 63 0.00000 0.00000 1.00000
1 64 0.00000 0.00000 1.00000
1 65 0.00000 0.00000 1.00000
1 66 0.00000 0.00000 1.00000
1 67 0.00000 0.00000 1.00000
1 68 0.00000 0.00000 1.00000
1 69 0.00000 0.00000 1.00000
1 70 0.00000 0.00000 1.00000
1 71 0.00000 0.00000 1.00000
1 72 0.00000 0.00000 1.00000
1 73 0.00000 0.00000 1.00000
1 74 0.00000 0.00000 1.00000
1 75 0.00000 0.00000 1.00000
1 76 0.00000 0.00000 1.00000
1 77 0.00000 0.00000 1.00000
1 78 0.00000 0.00000 1.00000
1 79 0.00000 0.00000 1.00000
1 80 1.00000 0.00000 1.00000
1 81 1.00000 0.00000 1.00000
1 82 1.00000 0.00000 1.00000
1 83 1.00000 0.00000 1.00000
1 84 1.00000 0.00000 1.00000
1 85 1.00000 0.00000 1.00000
1 86 1.00000 0.00000 1.00000
1 87 1.00000 0.00000 1.00000
1 88 1.00000 0.00000 1.00000
1 89 1.00000 0.00000 1.00000
1 90 1.00000 0.00000 1.00000
1 91 1.00000 0.00000 1.00000
1 92 1.00000 0.00000 1.00000
1 93 1.00000 0.00000 1.00000
1 94 1.00000 0.00000 1.00000
1 95 1.00000 0.00000 1.00000
1 96 1.00000 0.00000 1.00000
1 97 1.00000 0.00000 1.00000
1 98 1.00000 0.00000 1.00000
1 99 1.00000 0.00000 1.00000
1 100 0.00000 1.00000 1.00000
1 101 0.00000 1.00000 1.00000
1 102 0.00000 1.00000 1.00000
1 103 0.00000 1.00000 1.00000
1 104 0.00000 1.00000 1.00000
1 105 0.00000 1.00000 1.00000
1 106 0.00000 1.00000 1.00000
1 107 0.00000 1.00000 1.00000
1 108 0.00000 1.00000 1.00000
1 109 0.00000 1.00000 1.00000
1 110 0.00000 1.00000 1.00000
1 111 0.00000 1.00000 1.00000
1 112 0.00000 1.00000 1.00000
1 113 0.00000 1.00000 1.00000
1 114 0.00000 1.00000 1.00000
1 115 0.00000 1.00000 1.00000
1 116 0.00000 1.00000 1.00000
1 117 0.00000 1.00000 1.00000
1 118 0.00000 1.00000 1.00000
1 119 0.00000 1.00000 1.00000
