OFF
60 310 0
0 -0.80901699437494745 0.49999999999999994
0 0.80901699437494745 0.5
0 -0.80901699437494745 -0.5
0 0.80901699437494745 -0.49999999999999994
0.5 4.9536367583092156e-17 0.80901699437494745
0.5 -4.9536367583092156e-17 -0.80901699437494745
-0.5 4.9536367583092156e-17 0.80901699437494745
-0.5 -4.9536367583092156e-17 -0.80901699437494745
0.80901699437494745 -0.5 4.7769047953335889e-17
0.80901699437494745 0.5 4.2049881493474853e-17
-0.80901699437494745 -0.5 -4.2049881493474853e-17
-0.80901699437494745 0.5 -4.7769047953335889e-17
-0.25000000000000011 -0.15450849718747431 -0.9045084971874735
0.55901699437494756 -0.65450849718747328 0.404508497187474
-0.55901699437494756 0.65450849718747328 -0.404508497187474
0.25000000000000011 0.15450849718747431 0.9045084971874735
0.65450849718747373 -0.40450849718747406 -0.55901699437494723
0.15450849718747361 0.90450849718747395 0.24999999999999936
-0.15450849718747361 -0.90450849718747395 -0.24999999999999936
-0.65450849718747373 0.40450849718747406 0.55901699437494723
0.40450849718747356 0.55901699437494701 -0.65450849718747417
0.90450849718747373 0.25000000000000022 0.15450849718747336
-0.90450849718747373 -0.25000000000000022 -0.15450849718747336
-0.40450849718747356 -0.55901699437494701 0.65450849718747417
-0.25000000000000017 0.1545084971874742 0.9045084971874735
0.55901699437494756 0.65450849718747328 -0.40450849718747395
-0.55901699437494756 -0.65450849718747328 0.40450849718747395
0.25000000000000017 -0.1545084971874742 -0.9045084971874735
0.65450849718747373 0.40450849718747395 0.55901699437494734
0.15450849718747356 -0.90450849718747384 -0.24999999999999942
-0.15450849718747356 0.90450849718747384 0.24999999999999942
-0.65450849718747373 -0.40450849718747395 -0.55901699437494734
0.4045084971874735 -0.55901699437494701 0.65450849718747417
0.90450849718747373 -0.25000000000000017 -0.15450849718747336
-0.90450849718747373 0.25000000000000017 0.15450849718747336
-0.4045084971874735 0.55901699437494701 -0.65450849718747417
-0.55901699437494745 0.65450849718747373 0.40450849718747356
0.25000000000000011 0.1545084971874735 -0.90450849718747361
-0.25000000000000011 -0.1545084971874735 0.90450849718747361
0.55901699437494745 -0.65450849718747373 -0.40450849718747356
0.15450849718747378 0.9045084971874735 -0.25000000000000017
0.65450849718747373 -0.40450849718747361 0.55901699437494756
-0.65450849718747373 0.40450849718747361 -0.55901699437494756
-0.15450849718747378 -0.9045084971874735 0.25000000000000017
0.40450849718747373 0.55901699437494745 0.65450849718747361
0.90450849718747373 0.24999999999999986 -0.15450849718747361
-0.90450849718747373 -0.24999999999999986 0.15450849718747361
-0.40450849718747373 -0.55901699437494745 -0.65450849718747361
-0.55901699437494756 -0.65450849718747373 -0.40450849718747345
0.25000000000000011 -0.15450849718747345 0.90450849718747373
-0.25000000000000011 0.15450849718747345 -0.90450849718747373
0.55901699437494756 0.65450849718747373 0.40450849718747345
0.15450849718747356 -0.90450849718747373 0.25000000000000033
0.65450849718747373 0.4045084971874735 -0.55901699437494767
-0.65450849718747373 -0.4045084971874735 0.55901699437494767
-0.15450849718747356 0.90450849718747373 -0.25000000000000033
0.40450849718747356 -0.55901699437494767 -0.65450849718747361
0.90450849718747373 -0.25000000000000011 0.15450849718747361
-0.90450849718747373 0.25000000000000011 -0.15450849718747361
-0.40450849718747356 0.55901699437494767 0.65450849718747361
3 1 3 11 1.00000 1.00000 0.00000
3 2 0 10 1.00000 1.00000 0.00000
3 2 5 8 1.00000 1.00000 0.00000
3 3 7 11 1.00000 1.00000 0.00000
3 4 1 6 1.00000 1.00000 0.00000
3 5 2 7 1.00000 1.00000 0.00000
3 5 3 9 1.00000 1.00000 0.00000
3 6 0 4 1.00000 1.00000 0.00000
3 7 2 10 1.00000 1.00000 0.00000
3 7 3 5 1.00000 1.00000 0.00000
3 8 0 2 1.00000 1.00000 0.00000
3 8 4 0 1.00000 1.00000 0.00000
3 8 5 9 1.00000 1.00000 0.00000
3 9 1 4 1.00000 1.00000 0.00000
3 9 3 1 1.00000 1.00000 0.00000
3 9 4 8 1.00000 1.00000 0.00000
3 10 0 6 1.00000 1.00000 0.00000
3 10 6 11 1.00000 1.00000 0.00000
3 11 6 1 1.00000 1.00000 0.00000
3 11 7 10 1.00000 1.00000 0.00000
3 13 15 23 1.00000 0.00000 0.00000
3 14 12 22 1.00000 0.00000 0.00000
3 14 17 20 1.00000 0.00000 0.00000
3 15 19 23 1.00000 0.00000 0.00000
3 16 13 18 1.00000 0.00000 0.00000
3 17 14 19 1.00000 0.00000 0.00000
3 17 15 21 1.00000 0.00000 0.00000
3 18 12 16 1.00000 0.00000 0.00000
3 19 14 22 1.00000 0.00000 0.00000
3 19 15 17 1.00000 0.00000 0.00000
3 20 12 14 1.00000 0.00000 0.00000
3 20 16 12 1.00000 0.00000 0.00000
3 20 17 21 1.00000 0.00000 0.00000
3 21 13 16 1.00000 0.00000 0.00000
3 21 15 13 1.00000 0.00000 0.00000
3 21 16 20 1.00000 0.00000 0.00000
3 22 12 18 1.00000 0.00000 0.00000
3 22 18 23 1.00000 0.00000 0.00000
3 23 18 13 1.00000 0.00000 0.00000
3 23 19 22 1.00000 0.00000 0.00000
3 25 27 35 0.00000 0.39216 0.00000
3 26 24 34 0.00000 0.39216 0.00000
3 26 29 32 0.00000 0.39216 0.00000
3 27 31 35 0.00000 0.39216 0.00000
3 28 25 30 0.00000 0.39216 0.00000
3 29 26 31 0.00000 0.39216 0.00000
3 29 27 33 0.00000 0.39216 0.00000
3 30 24 28 0.00000 0.39216 0.00000
3 31 26 34 0.00000 0.39216 0.00000
3 31 27 29 0.00000 0.39216 0.00000
3 32 24 26 0.00000 0.39216 0.00000
3 32 28 24 0.00000 0.39216 0.00000
3 32 29 33 0.00000 0.39216 0.00000
3 33 25 28 0.00000 0.39216 0.00000
3 33 27 25 0.00000 0.39216 0.00000
3 33 28 32 0.00000 0.39216 0.00000
3 34 24 30 0.00000 0.39216 0.00000
3 34 30 35 0.00000 0.39216 0.00000
3 35 30 25 0.00000 0.39216 0.00000
3 35 31 34 0.00000 0.39216 0.00000
3 37 39 47 0.00000 0.00000 1.00000
3 38 36 46 0.00000 0.00000 1.00000
3 38 41 44 0.00000 0.00000 1.00000
3 39 43 47 0.00000 0.00000 1.00000
3 40 37 42 0.00000 0.00000 1.00000
3 41 38 43 0.00000 0.00000 1.00000
3 41 39 45 0.00000 0.00000 1.00000
3 42 36 40 0.00000 0.00000 1.00000
3 43 38 46 0.00000 0.00000 1.00000
3 43 39 41 0.00000 0.00000 1.00000
3 44 36 38 0.00000 0.00000 1.00000
3 44 40 36 0.00000 0.00000 1.00000
3 44 41 45 0.00000 0.00000 1.00000
3 45 37 40 0.00000 0.00000 1.00000
3 45 39 37 0.00000 0.00000 1.00000
3 45 40 44 0.00000 0.00000 1.00000
3 46 36 42 0.00000 0.00000 1.00000
3 46 42 47 0.00000 0.00000 1.00000
3 47 42 37 0.00000 0.00000 1.00000
3 47 43 46 0.00000 0.00000 1.00000
3 49 51 59 1.00000 0.00000 1.00000
3 50 48 58 1.00000 0.00000 1.00000
3 50 53 56 1.00000 0.00000 1.00000
3 51 55 59 1.00000 0.00000 1.00000
3 52 49 54 1.00000 0.00000 1.00000
3 53 50 55 1.00000 0.00000 1.00000
3 53 51 57 1.00000 0.00000 1.00000
3 54 48 52 1.00000 0.00000 1.00000
3 55 50 58 1.00000 0.00000 1.00000
3 55 51 53 1.00000 0.00000 1.00000
3 56 48 50 1.00000 0.00000 1.00000
3 56 52 48 1.00000 0.00000 1.00000
3 56 53 57 1.00000 0.00000 1.00000
3 57 49 52 1.00000 0.00000 1.00000
3 57 51 49 1.00000 0.00000 1.00000
3 57 52 56 1.00000 0.00000 1.00000
3 58 48 54 1.00000 0.00000 1.00000
3 58 54 59 1.00000 0.00000 1.00000
3 59 54 49 1.00000 0.00000 1.00000
3 59 55 58 1.00000 0.00000 1.00000
2 0 2 1.00000 1.00000 0.00000
2 0 4 1.00000 1.00000 0.00000
2 0 6 1.00000 1.00000 0.00000
2 0 8 1.00000 1.00000 0.00000
2 0 10 1.00000 1.00000 0.00000
2 1 3 1.00000 1.00000 0.00000
2 1 4 1.00000 1.00000 0.00000
2 1 6 1.00000 1.00000 0.00000
2 1 9 1.00000 1.00000 0.00000
2 1 11 1.00000 1.00000 0.00000
2 2 5 1.00000 1.00000 0.00000
2 2 7 1.00000 1.00000 0.00000
2 2 8 1.00000 1.00000 0.00000
2 2 10 1.00000 1.00000 0.00000
2 3 5 1.00000 1.00000 0.00000
2 3 7 1.00000 1.00000 0.00000
2 3 9 1.00000 1.00000 0.00000
2 3 11 1.00000 1.00000 0.00000
2 4 6 1.00000 1.00000 0.00000
2 4 8 1.00000 1.00000 0.00000
2 4 9 1.00000 1.00000 0.00000
2 5 7 1.00000 1.00000 0.00000
2 5 8 1.00000 1.00000 0.00000
2 5 9 1.00000 1.00000 0.00000
2 6 10 1.00000 1.00000 0.00000
2 6 11 1.00000 1.00000 0.00000
2 7 10 1.00000 1.00000 0.00000
2 7 11 1.00000 1.00000 0.00000
2 8 9 1.00000 1.00000 0.00000
2 10 11 1.00000 1.00000 0.00000
2 12 14 1.00000 0.00000 0.00000
2 12 16 1.00000 0.00000 0.00000
2 12 18 1.00000 0.00000 0.00000
2 12 20 1.00000 0.00000 0.00000
2 12 22 1.00000 0.00000 0.00000
2 13 15 1.00000 0.00000 0.00000
2 13 16 1.00000 0.00000 0.00000
2 13 18 1.00000 0.00000 0.00000
2 13 21 1.00000 0.00000 0.00000
2 13 23 1.00000 0.00000 0.00000
2 14 17 1.00000 0.00000 0.00000
2 14 19 1.00000 0.00000 0.00000
2 14 20 1.00000 0.00000 0.00000
2 14 22 1.00000 0.00000 0.00000
2 15 17 1.00000 0.00000 0.00000
2 15 19 1.00000 0.00000 0.00000
2 15 21 1.00000 0.00000 0.00000
2 15 23 1.00000 0.00000 0.00000
2 16 18 1.00000 0.00000 0.00000
2 16 20 1.00000 0.00000 0.00000
2 16 21 1.00000 0.00000 0.00000
2 17 19 1.00000 0.00000 0.00000
2 17 20 1.00000 0.00000 0.00000
2 17 21 1.00000 0.00000 0.00000
2 18 22 1.00000 0.00000 0.00000
2 18 23 1.00000 0.00000 0.00000
2 19 22 1.00000 0.00000 0.00000
2 19 23 1.00000 0.00000 0.00000
2 20 21 1.00000 0.00000 0.00000
2 22 23 1.00000 0.00000 0.00000
2 24 26 0.00000 0.39216 0.00000
2 24 28 0.00000 0.39216 0.00000
2 24 30 0.00000 0.39216 0.00000
2 24 32 0.00000 0.39216 0.00000
2 24 34 0.00000 0.39216 0.00000
2 25 27 0.00000 0.39216 0.00000
2 25 28 0.00000 0.39216 0.00000
2 25 30 0.00000 0.39216 0.00000
2 25 33 0.00000 0.39216 0.00000
2 25 35 0.00000 0.39216 0.00000
2 26 29 0.00000 0.39216 0.00000
2 26 31 0.00000 0.39216 0.00000
2 26 32 0.00000 0.39216 0.00000
2 26 34 0.00000 0.39216 0.00000
2 27 29 0.00000 0.39216 0.00000
2 27 31 0.00000 0.39216 0.00000
2 27 33 0.00000 0.39216 0.00000
2 27 35 0.00000 0.39216 0.00000
2 28 30 0.00000 0.39216 0.00000
2 28 32 0.00000 0.39216 0.00000
2 28 33 0.00000 0.39216 0.00000
2 29 31 0.00000 0.39216 0.00000
2 29 32 0.00000 0.39216 0.00000
2 29 33 0.00000 0.39216 0.00000
2 30 34 0.00000 0.39216 0.00000
2 30 35 0.00000 0.39216 0.00000
2 31 34 0.00000 0.39216 0.00000
2 31 35 0.00000 0.39216 0.00000
2 32 33 0.00000 0.39216 0.00000
2 34 35 0.00000 0.39216 0.00000
2 36 38 0.00000 0.00000 1.00000
2 36 40 0.00000 0.00000 1.00000
2 36 42 0.00000 0.00000 1.00000
2 36 44 0.00000 0.00000 1.00000
2 36 46 0.00000 0.00000 1.00000
2 37 39 0.00000 0.00000 1.00000
2 37 40 0.00000 0.00000 1.00000
2 37 42 0.00000 0.00000 1.00000
2 37 45 0.00000 0.00000 1.00000
2 37 47 0.00000 0.00000 1.00000
2 38 41 0.00000 0.00000 1.00000
2 38 43 0.00000 0.00000 1.00000
2 38 44 0.00000 0.00000 1.00000
2 38 46 0.00000 0.00000 1.00000
2 39 41 0.00000 0.00000 1.00000
2 39 43 0.00000 0.00000 1.00000
2 39 45 0.00000 0.00000 1.00000
2 39 47 0.00000 0.00000 1.00000
2 40 42 0.00000 0.00000 1.00000
2 40 44 0.00000 0.00000 1.00000
2 40 45 0.00000 0.00000 1.00000
2 41 43 0.00000 0.00000 1.00000
2 41 44 0.00000 0.00000 1.00000
2 41 45 0.00000 0.00000 1.00000
2 42 46 0.00000 0.00000 1.00000
2 42 47 0.00000 0.00000 1.00000
2 43 46 0.00000 0.00000 1.00000
2 43 47 0.00000 0.00000 1.00000
2 44 45 0.00000 0.00000 1.00000
2 46 47 0.00000 0.00000 1.00000
2 48 50 1.00000 0.00000 1.00000
2 48 52 1.00000 0.00000 1.00000
2 48 54 1.00000 0.00000 1.00000
2 48 56 1.00000 0.00000 1.00000
2 48 58 1.00000 0.00000 1.00000
2 49 51 1.00000 0.00000 1.00000
2 49 52 1.00000 0.00000 1.00000
2 49 54 1.00000 0.00000 1.00000
2 49 57 1.00000 0.00000 1.00000
2 49 59 1.00000 0.00000 1.00000
2 50 53 1.00000 0.00000 1.00000
2 50 55 1.00000 0.00000 1.00000
2 50 56 1.00000 0.00000 1.00000
2 50 58 1.00000 0.00000 1.00000
2 51 53 1.00000 0.00000 1.00000
2 51 55 1.00000 0.00000 1.00000
2 51 57 1.00000 0.00000 1.00000
2 51 59 1.00000 0.00000 1.00000
2 52 54 1.00000 0.00000 1.00000
2 52 56 1.00000 0.00000 1.00000
2 52 57 1.00000 0.00000 1.00000
2 53 55 1.00000 0.00000 1.00000
2 53 56 1.00000 0.00000 1.00000
2 53 57 1.00000 0.00000 1.00000
2 54 58 1.00000 0.00000 1.00000
2 54 59 1.00000 0.00000 1.00000
2 55 58 1.00000 0.00000 1.00000
2 55 59 1.00000 0.00000 1.00000
2 56 57 1.00000 0.00000 1.00000
2 58 59 1.00000 0.00000 1.00000
1 0 1.00000 1.00000 0.00000
1 1 1.00000 1.00000 0.00000
1 2 1.00000 1.00000 0.00000
1 3 1.00000 1.00000 0.00000
1 4 1.00000 1.00000 0.00000
1 5 1.00000 1.00000 0.00000
1 6 1.00000 1.00000 0.00000
1 7 1.00000 1.00000 0.00000
1 8 1.00000 1.00000 0.00000
1 9 1.00000 1.00000 0.00000
1 10 1.00000 1.00000 0.00000
1 11 1.00000 1.00000 0.00000
1 12 1.00000 0.00000 0.00000
1 13 1.00000 0.00000 0.00000
1 14 1.00000 0.00000 0.00000
1 15 1.00000 0.00000 0.00000
1 16 1.00000 0.00000 0.00000
1 17 1.00000 0.00000 0.00000
1 18 1.00000 0.00000 0.00000
1 19 1.00000 0.00000 0.00000
1 20 1.00000 0.00000 0.00000
1 21 1.00000 0.00000 0.00000
1 22 1.00000 0.00000 0.00000
1 23 1.00000 0.00000 0.00000
1 24 0.00000 0.39216 0.00000
1 25 0.00000 0.39216 0.00000
1 26 0.00000 0.39216 0.00000
1 27 0.00000 0.39216 0.00000
1 28 0.00000 0.39216 0.00000
1 29 0.00000 0.39216 0.00000
1 30 0.00000 0.39216 0.00000
1 31 0.00000 0.39216 0.00000
1 32 0.00000 0.39216 0.00000
1 33 0.00000 0.39216 0.00000
1 34 0.00000 0.39216 0.00000
1 35 0.00000 0.39216 0.00000
1 36 0.00000 0.00000 1.00000
1 37 0.00000 0.00000 1.00000
1 38 0.00000 0.00000 1.00000
1 39 0.00000 0.00000 1.00000
1 40 0.00000 0.00000 1.00000
1 41 0.00000 0.00000 1.00000
1 42 0.00000 0.00000 1.00000
1 43 0.00000 0.00000 1.00000
1 44 0.00000 0.00000 1.00000
1 45 0.00000 0.00000 1.00000
1 46 0.00000 0.00000 1.00000
1 47 0.00000 0.00000 1.00000
1 48 1.00000 0.00000 1.00000
1 49 1.00000 0.00000 1.00000
1 50 1.00000 0.00000 1.00000
1 51 1.00000 0.00000 1.00000
1 52 1.00000 0.00000 1.00000
1 53 1.00000 0.00000 1.00000
1 54 1.00000 0.00000 1.00000
1 55 1.00000 0.00000 1.00000
1 56 1.00000 0.00000 1.00000
1 57 1.00000 0.00000 1.00000
1 58 1.00000 0.00000 1.00000
1 59 1.00000 0.00000 1.00000
