OFF
24 108 0
0 0.5 0.80901699437494745
0 0.5 -0.80901699437494745
0 -0.5 0.80901699437494745
0 -0.5 -0.80901699437494745
0.5 0.80901699437494745 7.2665040339034284e-17
0.5 -0.80901699437494745 -1.7153889107776457e-17
-0.5 0.80901699437494745 1.7153889107776457e-17
-0.5 -0.80901699437494745 -7.2665040339034284e-17
0.80901699437494745 0 0.5
0.80901699437494745 0 -0.49999999999999994
-0.80901699437494745 0 0.49999999999999994
-0.80901699437494745 0 -0.5
6.1230317691118875e-17 0.80901699437494734 -0.50000000000000011
6.1230317691118851e-17 -0.80901699437494756 -0.49999999999999989
-6.1230317691118851e-17 0.80901699437494756 0.49999999999999989
-6.1230317691118875e-17 -0.80901699437494734 0.50000000000000011
0.50000000000000011 -1.4860910274927647e-16 -0.80901699437494745
0.49999999999999989 1.4860910274927647e-16 0.80901699437494745
-0.49999999999999989 -1.4860910274927647e-16 -0.80901699437494745
-0.50000000000000011 1.4860910274927647e-16 0.80901699437494745
0.80901699437494745 0.5 -9.9266304782704402e-18
0.80901699437494745 -0.5 1.1825317136382831e-16
-0.80901699437494745 0.5 -1.1825317136382831e-16
-0.80901699437494745 -0.5 9.9266304782704402e-18
5 0 4 1 11 10 1.00000 1.00000 0.00000
5 0 6 11 7 2 1.00000 1.00000 0.00000
5 0 8 9 1 6 1.00000 1.00000 0.00000
5 0 10 7 5 8 1.00000 1.00000 0.00000
5 1 9 5 7 11 1.00000 1.00000 0.00000
5 2 5 9 4 0 1.00000 1.00000 0.00000
5 4 6 10 2 8 1.00000 1.00000 0.00000
5 4 8 5 3 1 1.00000 1.00000 0.00000
5 4 9 3 11 6 1.00000 1.00000 0.00000
5 8 2 7 3 9 1.00000 1.00000 0.00000
5 10 6 1 3 7 1.00000 1.00000 0.00000
5 10 11 3 5 2 1.00000 1.00000 0.00000
5 12 16 13 23 22 1.00000 0.00000 0.00000
5 12 18 23 19 14 1.00000 0.00000 0.00000
5 12 20 21 13 18 1.00000 0.00000 0.00000
5 12 22 19 17 20 1.00000 0.00000 0.00000
5 13 21 17 19 23 1.00000 0.00000 0.00000
5 14 17 21 16 12 1.00000 0.00000 0.00000
5 16 18 22 14 20 1.00000 0.00000 0.00000
5 16 20 17 15 13 1.00000 0.00000 0.00000
5 16 21 15 23 18 1.00000 0.00000 0.00000
5 20 14 19 15 21 1.00000 0.00000 0.00000
5 22 18 13 15 19 1.00000 0.00000 0.00000
5 22 23 15 17 14 1.00000 0.00000 0.00000
2 0 2 1.00000 1.00000 0.00000
2 0 4 1.00000 1.00000 0.00000
2 0 6 1.00000 1.00000 0.00000
2 0 8 1.00000 1.00000 0.00000
2 0 10 1.00000 1.00000 0.00000
2 1 3 1.00000 1.00000 0.00000
2 1 4 1.00000 1.00000 0.00000
2 1 6 1.00000 1.00000 0.00000
2 1 9 1.00000 1.00000 0.00000
2 1 11 1.00000 1.00000 0.00000
2 2 5 1.00000 1.00000 0.00000
2 2 7 1.00000 1.00000 0.00000
2 2 8 1.00000 1.00000 0.00000
2 2 10 1.00000 1.00000 0.00000
2 3 5 1.00000 1.00000 0.00000
2 3 7 1.00000 1.00000 0.00000
2 3 9 1.00000 1.00000 0.00000
2 3 11 1.00000 1.00000 0.00000
2 4 6 1.00000 1.00000 0.00000
2 4 8 1.00000 1.00000 0.00000
2 4 9 1.00000 1.00000 0.00000
2 5 7 1.00000 1.00000 0.00000
2 5 8 1.00000 1.00000 0.00000
2 5 9 1.00000 1.00000 0.00000
2 6 10 1.00000 1.00000 0.00000
2 6 11 1.00000 1.00000 0.00000
2 7 10 1.00000 1.00000 0.00000
2 7 11 1.00000 1.00000 0.00000
2 8 9 1.00000 1.00000 0.00000
2 10 11 1.00000 1.00000 0.00000
2 12 14 1.00000 0.00000 0.00000
2 12 16 1.00000 0.00000 0.00000
2 12 18 1.00000 0.00000 0.00000
2 12 20 1.00000 0.00000 0.00000
2 12 22 1.00000 0.00000 0.00000
2 13 15 1.00000 0.00000 0.00000
2 13 16 1.00000 0.00000 0.00000
2 13 18 1.00000 0.00000 0.00000
2 13 21 1.00000 0.00000 0.00000
2 13 23 1.00000 0.00000 0.00000
2 14 17 1.00000 0.00000 0.00000
2 14 19 1.00000 0.00000 0.00000
2 14 20 1.00000 0.00000 0.00000
2 14 22 1.00000 0.00000 0.00000
2 15 17 1.00000 0.00000 0.00000
2 15 19 1.00000 0.00000 0.00000
2 15 21 1.00000 0.00000 0.00000
2 15 23 1.00000 0.00000 0.00000
2 16 18 1.00000 0.00000 0.00000
2 16 20 1.00000 0.00000 0.00000
2 16 21 1.00000 0.00000 0.00000
2 17 19 1.00000 0.00000 0.00000
2 17 20 1.00000 0.00000 0.00000
2 17 21 1.00000 0.00000 0.00000
2 18 22 1.00000 0.00000 0.00000
2 18 23 1.00000 0.00000 0.00000
2 19 22 1.00000 0.00000 0.00000
2 19 23 1.00000 0.00000 0.00000
2 20 21 1.00000 0.00000 0.00000
2 22 23 1.00000 0.00000 0.00000
1 0 1.00000 1.00000 0.00000
1 1 1.00000 1.00000 0.00000
1 2 1.00000 1.00000 0.00000
1 3 1.00000 1.00000 0.00000
1 4 1.00000 1.00000 0.00000
1 5 1.00000 1.00000 0.00000
1 6 1.00000 1.00000 0.00000
1 7 1.00000 1.00000 0.00000
1 8 1.00000 1.00000 0.00000
1 9 1.00000 1.00000 0.00000
1 10 1.00000 1.00000 0.00000
1 11 1.00000 1.00000 0.00000
1 12 1.00000 0.00000 0.00000
1 13 1.00000 0.00000 0.00000
1 14 1.00000 0.00000 0.00000
1 15 1.00000 0.00000 0.00000
1 16 1.00000 0.00000 0.00000
1 17 1.00000 0.00000 0.00000
1 18 1.00000 0.00000 0.00000
1 19 1.00000 0.00000 0.00000
1 20 1.00000 0.00000 0.00000
1 21 1.00000 0.00000 0.00000
1 22 1.00000 0.00000 0.00000
1 23 1.00000 0.00000 0.00000
