OFF
20 70 0
0.35355339059327373 0.35355339059327373 0.35355339059327379
0.35355339059327373 -0.35355339059327373 -0.35355339059327373
-0.35355339059327373 0.35355339059327373 -0.35355339059327373
-0.35355339059327373 -0.35355339059327373 0.35355339059327368
0.57206140281768425 -0.21850801222441046 0
-1.1102230246251565e-16 0.57206140281768403 -0.21850801222441085
-0.21850801222441046 3.8857805861880479e-16 0.57206140281768425
-0.35355339059327373 -0.35355339059327401 -0.3535533905932734
0.57206140281768425 0.21850801222441041 2.7755575615628914e-17
-1.5265566588595902e-16 -0.57206140281768403 0.21850801222441082
-0.21850801222441041 -2.7755575615628914e-16 -0.57206140281768425
-0.35355339059327373 0.35355339059327395 0.3535533905932734
0.35355339059327373 0.35355339059327362 -0.35355339059327373
0.21850801222441049 5.5511151231257827e-17 0.57206140281768425
-2.7755575615628914e-17 -0.57206140281768425 -0.21850801222441044
-0.57206140281768425 0.21850801222441052 -8.3266726846886741e-17
0.35355339059327373 -0.35355339059327373 0.35355339059327379
0.21850801222441046 -1.6653345369377348e-16 -0.57206140281768425
1.1102230246251565e-16 0.57206140281768425 0.21850801222441035
-0.57206140281768425 -0.21850801222441041 1.6653345369377348e-16
3 3 1 0 1.00000 1.00000 0.00000
3 2 0 1 1.00000 1.00000 0.00000
3 3 0 2 1.00000 1.00000 0.00000
3 2 1 3 1.00000 1.00000 0.00000
3 7 5 4 1.00000 0.00000 0.00000
3 6 4 5 1.00000 0.00000 0.00000
3 7 4 6 1.00000 0.00000 0.00000
3 6 5 7 1.00000 0.00000 0.00000
3 11 9 8 0.00000 0.39216 0.00000
3 10 8 9 0.00000 0.39216 0.00000
3 11 8 10 0.00000 0.39216 0.00000
3 10 9 11 0.00000 0.39216 0.00000
3 15 13 12 0.00000 0.00000 1.00000
3 14 12 13 0.00000 0.00000 1.00000
3 15 12 14 0.00000 0.00000 1.00000
3 14 13 15 0.00000 0.00000 1.00000
3 19 17 16 1.00000 0.00000 1.00000
3 18 16 17 1.00000 0.00000 1.00000
3 19 16 18 1.00000 0.00000 1.00000
3 18 17 19 1.00000 0.00000 1.00000
2 0 1 1.00000 1.00000 0.00000
2 0 2 1.00000 1.00000 0.00000
2 0 3 1.00000 1.00000 0.00000
2 1 2 1.00000 1.00000 0.00000
2 1 3 1.00000 1.00000 0.00000
2 2 3 1.00000 1.00000 0.00000
2 4 5 1.00000 0.00000 0.00000
2 4 6 1.00000 0.00000 0.00000
2 4 7 1.00000 0.00000 0.00000
2 5 6 1.00000 0.00000 0.00000
2 5 7 1.00000 0.00000 0.00000
2 6 7 1.00000 0.00000 0.00000
2 8 9 0.00000 0.39216 0.00000
2 8 10 0.00000 0.39216 0.00000
2 8 11 0.00000 0.39216 0.00000
2 9 10 0.00000 0.39216 0.00000
2 9 11 0.00000 0.39216 0.00000
2 10 11 0.00000 0.39216 0.00000
2 12 13 0.00000 0.00000 1.00000
2 12 14 0.00000 0.00000 1.00000
2 12 15 0.00000 0.00000 1.00000
2 13 14 0.00000 0.00000 1.00000
2 13 15 0.00000 0.00000 1.00000
2 14 15 0.00000 0.00000 1.00000
2 16 17 1.00000 0.00000 1.00000
2 16 18 1.00000 0.00000 1.00000
2 16 19 1.00000 0.00000 1.00000
2 17 18 1.00000 0.00000 1.00000
2 17 19 1.00000 0.00000 1.00000
2 18 19 1.00000 0.00000 1.00000
1 0 1.00000 1.00000 0.00000
1 1 1.00000 1.00000 0.00000
1 2 1.00000 1.00000 0.00000
1 3 1.00000 1.00000 0.00000
1 4 1.00000 0.00000 0.00000
1 5 1.00000 0.00000 0.00000
1 6 1.00000 0.00000 0.00000
1 7 1.00000 0.00000 0.00000
1 8 0.00000 0.39216 0.00000
1 9 0.00000 0.39216 0.00000
1 10 0.00000 0.39216 0.00000
1 11 0.00000 0.39216 0.00000
1 12 0.00000 0.00000 1.00000
1 13 0.00000 0.00000 1.00000
1 14 0.00000 0.00000 1.00000
1 15 0.00000 0.00000 1.00000
1 16 1.00000 0.00000 1.00000
1 17 1.00000 0.00000 1.00000
1 18 1.00000 0.00000 1.00000
1 19 1.00000 0.00000 1.00000
