OFF
24 108 0
0 0.3090169943749474 0.49999999999999994
0 0.3090169943749474 -0.49999999999999994
0 -0.3090169943749474 0.49999999999999994
0 -0.3090169943749474 -0.49999999999999994
0.3090169943749474 0.49999999999999994 4.4909464723405365e-17
0.3090169943749474 -0.49999999999999994 -1.0601686507852456e-17
-0.3090169943749474 0.49999999999999994 1.0601686507852456e-17
-0.3090169943749474 -0.49999999999999994 -4.4909464723405365e-17
0.49999999999999994 0 0.3090169943749474
0.49999999999999994 0 -0.3090169943749474
-0.49999999999999994 0 0.3090169943749474
-0.49999999999999994 0 -0.3090169943749474
3.7842417475065449e-17 0.49999999999999989 -0.30901699437494745
3.7842417475065436e-17 -0.5 -0.30901699437494734
-3.7842417475065436e-17 0.5 0.30901699437494734
-3.7842417475065449e-17 -0.49999999999999989 0.30901699437494745
0.30901699437494745 -9.1845476536678282e-17 -0.49999999999999994
0.30901699437494734 9.1845476536678282e-17 0.49999999999999994
-0.30901699437494734 -9.1845476536678282e-17 -0.49999999999999994
-0.30901699437494745 9.1845476536678282e-17 0.49999999999999994
0.49999999999999994 0.3090169943749474 -6.13499502933176e-18
0.49999999999999994 -0.3090169943749474 7.3084479180311646e-17
-0.49999999999999994 0.3090169943749474 -7.3084479180311646e-17
-0.49999999999999994 -0.3090169943749474 6.13499502933176e-18
5 0 1 10 4 11 1.00000 1.00000 0.00000
5 0 5 4 2 9 1.00000 1.00000 0.00000
5 0 7 8 10 5 1.00000 1.00000 0.00000
5 0 9 6 8 1 1.00000 1.00000 0.00000
5 5 1 8 3 4 1.00000 1.00000 0.00000
5 5 10 3 2 11 1.00000 1.00000 0.00000
5 7 1 5 11 9 1.00000 1.00000 0.00000
5 7 6 3 10 1 1.00000 1.00000 0.00000
5 7 9 2 3 8 1.00000 1.00000 0.00000
5 8 6 2 4 10 1.00000 1.00000 0.00000
5 9 11 4 3 6 1.00000 1.00000 0.00000
5 11 2 6 7 0 1.00000 1.00000 0.00000
5 12 13 22 16 23 1.00000 0.00000 0.00000
5 12 17 16 14 21 1.00000 0.00000 0.00000
5 12 19 20 22 17 1.00000 0.00000 0.00000
5 12 21 18 20 13 1.00000 0.00000 0.00000
5 17 13 20 15 16 1.00000 0.00000 0.00000
5 17 22 15 14 23 1.00000 0.00000 0.00000
5 19 13 17 23 21 1.00000 0.00000 0.00000
5 19 18 15 22 13 1.00000 0.00000 0.00000
5 19 21 14 15 20 1.00000 0.00000 0.00000
5 20 18 14 16 22 1.00000 0.00000 0.00000
5 21 23 16 15 18 1.00000 0.00000 0.00000
5 23 14 18 19 12 1.00000 0.00000 0.00000
2 0 1 1.00000 1.00000 0.00000
2 0 5 1.00000 1.00000 0.00000
2 0 7 1.00000 1.00000 0.00000
2 0 9 1.00000 1.00000 0.00000
2 0 11 1.00000 1.00000 0.00000
2 1 5 1.00000 1.00000 0.00000
2 1 7 1.00000 1.00000 0.00000
2 1 8 1.00000 1.00000 0.00000
2 1 10 1.00000 1.00000 0.00000
2 2 3 1.00000 1.00000 0.00000
2 2 4 1.00000 1.00000 0.00000
2 2 6 1.00000 1.00000 0.00000
2 2 9 1.00000 1.00000 0.00000
2 2 11 1.00000 1.00000 0.00000
2 3 4 1.00000 1.00000 0.00000
2 3 6 1.00000 1.00000 0.00000
2 3 8 1.00000 1.00000 0.00000
2 3 10 1.00000 1.00000 0.00000
2 4 5 1.00000 1.00000 0.00000
2 4 10 1.00000 1.00000 0.00000
2 4 11 1.00000 1.00000 0.00000
2 5 10 1.00000 1.00000 0.00000
2 5 11 1.00000 1.00000 0.00000
2 6 7 1.00000 1.00000 0.00000
2 6 8 1.00000 1.00000 0.00000
2 6 9 1.00000 1.00000 0.00000
2 7 8 1.00000 1.00000 0.00000
2 7 9 1.00000 1.00000 0.00000
2 8 10 1.00000 1.00000 0.00000
2 9 11 1.00000 1.00000 0.00000
2 12 13 1.00000 0.00000 0.00000
2 12 17 1.00000 0.00000 0.00000
2 12 19 1.00000 0.00000 0.00000
2 12 21 1.00000 0.00000 0.00000
2 12 23 1.00000 0.00000 0.00000
2 13 17 1.00000 0.00000 0.00000
2 13 19 1.00000 0.00000 0.00000
2 13 20 1.00000 0.00000 0.00000
2 13 22 1.00000 0.00000 0.00000
2 14 15 1.00000 0.00000 0.00000
2 14 16 1.00000 0.00000 0.00000
2 14 18 1.00000 0.00000 0.00000
2 14 21 1.00000 0.00000 0.00000
2 14 23 1.00000 0.00000 0.00000
2 15 16 1.00000 0.00000 0.00000
2 15 18 1.00000 0.00000 0.00000
2 15 20 1.00000 0.00000 0.00000
2 15 22 1.00000 0.00000 0.00000
2 16 17 1.00000 0.00000 0.00000
2 16 22 1.00000 0.00000 0.00000
2 16 23 1.00000 0.00000 0.00000
2 17 22 1.00000 0.00000 0.00000
2 17 23 1.00000 0.00000 0.00000
2 18 19 1.00000 0.00000 0.00000
2 18 20 1.00000 0.00000 0.00000
2 18 21 1.00000 0.00000 0.00000
2 19 20 1.00000 0.00000 0.00000
2 19 21 1.00000 0.00000 0.00000
2 20 22 1.00000 0.00000 0.00000
2 21 23 1.00000 0.00000 0.00000
1 0 1.00000 1.00000 0.00000
1 1 1.00000 1.00000 0.00000
1 2 1.00000 1.00000 0.00000
1 3 1.00000 1.00000 0.00000
1 4 1.00000 1.00000 0.00000
1 5 1.00000 1.00000 0.00000
1 6 1.00000 1.00000 0.00000
1 7 1.00000 1.00000 0.00000
1 8 1.00000 1.00000 0.00000
1 9 1.00000 1.00000 0.00000
1 10 1.00000 1.00000 0.00000
1 11 1.00000 1.00000 0.00000
1 12 1.00000 0.00000 0.00000
1 13 1.00000 0.00000 0.00000
1 14 1.00000 0.00000 0.00000
1 15 1.00000 0.00000 0.00000
1 16 1.00000 0.00000 0.00000
1 17 1.00000 0.00000 0.00000
1 18 1.00000 0.00000 0.00000
1 19 1.00000 0.00000 0.00000
1 20 1.00000 0.00000 0.00000
1 21 1.00000 0.00000 0.00000
1 22 1.00000 0.00000 0.00000
1 23 1.00000 0.00000 0.00000
