OFF
60 190 0
0.35355339059327373 0.35355339059327373 -1.0606601717798212
0.35355339059327373 -0.35355339059327373 1.0606601717798212
-0.35355339059327373 0.35355339059327373 1.0606601717798212
-0.35355339059327373 -0.35355339059327373 -1.0606601717798212
0.35355339059327373 1.0606601717798212 -0.35355339059327368
0.35355339059327373 -1.0606601717798212 0.35355339059327368
-0.35355339059327373 1.0606601717798212 0.35355339059327379
-0.35355339059327373 -1.0606601717798212 -0.35355339059327379
1.0606601717798212 0.35355339059327373 -0.35355339059327368
1.0606601717798212 -0.35355339059327373 0.35355339059327379
-1.0606601717798212 0.35355339059327373 0.35355339059327368
-1.0606601717798212 -0.35355339059327373 -0.35355339059327379
0.13504537836886316 0.92561479341095831 0.7071067811865468
0.43701602444882104 -0.57206140281768469 -0.92561479341095754
0.21850801222441066 -1.1441228056353685 -0.13504537836886249
-0.79056941504209477 0.79056941504209488 0.35355339059327334
0.70710678118654757 0.13504537836886388 0.92561479341095776
-0.13504537836886335 0.21850801222440974 -1.1441228056353685
0.35355339059327395 -0.79056941504209421 0.79056941504209499
-0.92561479341095809 0.43701602444882059 -0.57206140281768425
0.92561479341095787 0.70710678118654757 0.13504537836886255
0.79056941504209466 0.35355339059327318 -0.79056941504209521
-0.57206140281768414 -0.92561479341095765 0.43701602444882176
-1.1441228056353685 -0.1350453783688631 0.21850801222441085
0.13504537836886321 -0.9256147934109582 -0.7071067811865468
0.43701602444882093 0.57206140281768458 0.92561479341095776
0.21850801222441066 1.1441228056353685 0.1350453783688626
-0.79056941504209477 -0.79056941504209477 -0.35355339059327345
0.70710678118654757 -0.13504537836886379 -0.92561479341095776
-0.13504537836886349 -0.21850801222440991 1.1441228056353685
0.35355339059327401 0.79056941504209433 -0.79056941504209499
-0.92561479341095809 -0.43701602444882059 0.57206140281768425
0.92561479341095787 -0.70710678118654768 -0.13504537836886257
0.79056941504209444 -0.35355339059327334 0.79056941504209521
-0.57206140281768392 0.92561479341095776 -0.4370160244488217
-1.1441228056353685 0.13504537836886327 -0.21850801222441088
0.79056941504209466 -0.79056941504209477 0.3535533905932739
-0.21850801222441041 1.1441228056353685 -0.13504537836886338
-0.43701602444882093 0.57206140281768414 -0.92561479341095798
-0.13504537836886332 -0.92561479341095776 0.70710678118654746
0.92561479341095798 -0.43701602444882115 -0.57206140281768403
-0.35355339059327373 0.79056941504209477 0.79056941504209455
0.13504537836886324 -0.21850801222441069 -1.1441228056353683
-0.70710678118654746 -0.13504537836886296 0.92561479341095776
1.1441228056353683 0.1350453783688631 0.21850801222441055
0.57206140281768425 0.92561479341095776 0.43701602444882093
-0.79056941504209477 -0.35355339059327368 -0.79056941504209466
-0.92561479341095787 -0.70710678118654724 0.13504537836886324
0.79056941504209477 0.79056941504209455 -0.35355339059327412
-0.21850801222441066 -1.1441228056353685 0.1350453783688636
-0.43701602444882104 -0.57206140281768392 0.9256147934109582
-0.13504537836886316 0.92561479341095776 -0.70710678118654768
0.92561479341095809 0.43701602444882104 0.57206140281768392
-0.35355339059327395 -0.79056941504209499 -0.79056941504209444
0.13504537836886335 0.2185080122244108 1.1441228056353685
-0.70710678118654757 0.13504537836886307 -0.92561479341095787
1.1441228056353685 -0.13504537836886343 -0.21850801222441063
0.57206140281768403 -0.9256147934109582 -0.43701602444882082
-0.79056941504209455 0.35355339059327401 0.79056941504209477
-0.92561479341095787 0.70710678118654757 -0.13504537836886332
3 0 4 8 1.00000 1.00000 0.00000
3 2 6 10 1.00000 1.00000 0.00000
3 3 7 11 1.00000 1.00000 0.00000
3 9 1 5 1.00000 1.00000 0.00000
6 0 3 11 10 6 4 1.00000 1.00000 0.00000
6 7 5 1 2 10 11 1.00000 1.00000 0.00000
6 9 5 7 3 0 8 1.00000 1.00000 0.00000
6 9 8 4 6 2 1 1.00000 1.00000 0.00000
3 12 16 20 1.00000 0.00000 0.00000
3 14 18 22 1.00000 0.00000 0.00000
3 15 19 23 1.00000 0.00000 0.00000
3 21 13 17 1.00000 0.00000 0.00000
6 12 15 23 22 18 16 1.00000 0.00000 0.00000
6 19 17 13 14 22 23 1.00000 0.00000 0.00000
6 21 17 19 15 12 20 1.00000 0.00000 0.00000
6 21 20 16 18 14 13 1.00000 0.00000 0.00000
3 24 28 32 0.00000 0.39216 0.00000
3 26 30 34 0.00000 0.39216 0.00000
3 27 31 35 0.00000 0.39216 0.00000
3 33 25 29 0.00000 0.39216 0.00000
6 24 27 35 34 30 28 0.00000 0.39216 0.00000
6 31 29 25 26 34 35 0.00000 0.39216 0.00000
6 33 29 31 27 24 32 0.00000 0.39216 0.00000
6 33 32 28 30 26 25 0.00000 0.39216 0.00000
3 36 40 44 0.00000 0.00000 1.00000
3 38 42 46 0.00000 0.00000 1.00000
3 39 43 47 0.00000 0.00000 1.00000
3 45 37 41 0.00000 0.00000 1.00000
6 36 39 47 46 42 40 0.00000 0.00000 1.00000
6 43 41 37 38 46 47 0.00000 0.00000 1.00000
6 45 41 43 39 36 44 0.00000 0.00000 1.00000
6 45 44 40 42 38 37 0.00000 0.00000 1.00000
3 48 52 56 1.00000 0.00000 1.00000
3 50 54 58 1.00000 0.00000 1.00000
3 51 55 59 1.00000 0.00000 1.00000
3 57 49 53 1.00000 0.00000 1.00000
6 48 51 59 58 54 52 1.00000 0.00000 1.00000
6 55 53 49 50 58 59 1.00000 0.00000 1.00000
6 57 53 55 51 48 56 1.00000 0.00000 1.00000
6 57 56 52 54 50 49 1.00000 0.00000 1.00000
2 0 3 1.00000 1.00000 0.00000
2 0 4 1.00000 1.00000 0.00000
2 0 8 1.00000 1.00000 0.00000
2 1 2 1.00000 1.00000 0.00000
2 1 5 1.00000 1.00000 0.00000
2 1 9 1.00000 1.00000 0.00000
2 2 6 1.00000 1.00000 0.00000
2 2 10 1.00000 1.00000 0.00000
2 3 7 1.00000 1.00000 0.00000
2 3 11 1.00000 1.00000 0.00000
2 4 6 1.00000 1.00000 0.00000
2 4 8 1.00000 1.00000 0.00000
2 5 7 1.00000 1.00000 0.00000
2 5 9 1.00000 1.00000 0.00000
2 6 10 1.00000 1.00000 0.00000
2 7 11 1.00000 1.00000 0.00000
2 8 9 1.00000 1.00000 0.00000
2 10 11 1.00000 1.00000 0.00000
2 12 15 1.00000 0.00000 0.00000
2 12 16 1.00000 0.00000 0.00000
2 12 20 1.00000 0.00000 0.00000
2 13 14 1.00000 0.00000 0.00000
2 13 17 1.00000 0.00000 0.00000
2 13 21 1.00000 0.00000 0.00000
2 14 18 1.00000 0.00000 0.00000
2 14 22 1.00000 0.00000 0.00000
2 15 19 1.00000 0.00000 0.00000
2 15 23 1.00000 0.00000 0.00000
2 16 18 1.00000 0.00000 0.00000
2 16 20 1.00000 0.00000 0.00000
2 17 19 1.00000 0.00000 0.00000
2 17 21 1.00000 0.00000 0.00000
2 18 22 1.00000 0.00000 0.00000
2 19 23 1.00000 0.00000 0.00000
2 20 21 1.00000 0.00000 0.00000
2 22 23 1.00000 0.00000 0.00000
2 24 27 0.00000 0.39216 0.00000
2 24 28 0.00000 0.39216 0.00000
2 24 32 0.00000 0.39216 0.00000
2 25 26 0.00000 0.39216 0.00000
2 25 29 0.00000 0.39216 0.00000
2 25 33 0.00000 0.39216 0.00000
2 26 30 0.00000 0.39216 0.00000
2 26 34 0.00000 0.39216 0.00000
2 27 31 0.00000 0.39216 0.00000
2 27 35 0.00000 0.39216 0.00000
2 28 30 0.00000 0.39216 0.00000
2 28 32 0.00000 0.39216 0.00000
2 29 31 0.00000 0.39216 0.00000
2 29 33 0.00000 0.39216 0.00000
2 30 34 0.00000 0.39216 0.00000
2 31 35 0.00000 0.39216 0.00000
2 32 33 0.00000 0.39216 0.00000
2 34 35 0.00000 0.39216 0.00000
2 36 39 0.00000 0.00000 1.00000
2 36 40 0.00000 0.00000 1.00000
2 36 44 0.00000 0.00000 1.00000
2 37 38 0.00000 0.00000 1.00000
2 37 41 0.00000 0.00000 1.00000
2 37 45 0.00000 0.00000 1.00000
2 38 42 0.00000 0.00000 1.00000
2 38 46 0.00000 0.00000 1.00000
2 39 43 0.00000 0.00000 1.00000
2 39 47 0.00000 0.00000 1.00000
2 40 42 0.00000 0.00000 1.00000
2 40 44 0.00000 0.00000 1.00000
2 41 43 0.00000 0.00000 1.00000
2 41 45 0.00000 0.00000 1.00000
2 42 46 0.00000 0.00000 1.00000
2 43 47 0.00000 0.00000 1.00000
2 44 45 0.00000 0.00000 1.00000
2 46 47 0.00000 0.00000 1.00000
2 48 51 1.00000 0.00000 1.00000
2 48 52 1.00000 0.00000 1.00000
2 48 56 1.00000 0.00000 1.00000
2 49 50 1.00000 0.00000 1.00000
2 49 53 1.00000 0.00000 1.00000
2 49 57 1.00000 0.00000 1.00000
2 50 54 1.00000 0.00000 1.00000
2 50 58 1.00000 0.00000 1.00000
2 51 55 1.00000 0.00000 1.00000
2 51 59 1.00000 0.00000 1.00000
2 52 54 1.00000 0.00000 1.00000
2 52 56 1.00000 0.00000 1.00000
2 53 55 1.00000 0.00000 1.00000
2 53 57 1.00000 0.00000 1.00000
2 54 58 1.00000 0.00000 1.00000
2 55 59 1.00000 0.00000 1.00000
2 56 57 1.00000 0.00000 1.00000
2 58 59 1.00000 0.00000 1.00000
1 0 1.00000 1.00000 0.00000
1 1 1.00000 1.00000 0.00000
1 2 1.00000 1.00000 0.00000
1 3 1.00000 1.00000 0.00000
1 4 1.00000 1.00000 0.00000
1 5 1.00000 1.00000 0.00000
1 6 1.00000 1.00000 0.00000
1 7 1.00000 1.00000 0.00000
1 8 1.00000 1.00000 0.00000
1 9 1.00000 1.00000 0.00000
1 10 1.00000 1.00000 0.00000
1 11 1.00000 1.00000 0.00000
1 12 1.00000 0.00000 0.00000
1 13 1.00000 0.00000 0.00000
1 14 1.00000 0.00000 0.00000
1 15 1.00000 0.00000 0.00000
1 16 1.00000 0.00000 0.00000
1 17 1.00000 0.00000 0.00000
1 18 1.00000 0.00000 0.00000
1 19 1.00000 0.00000 0.00000
1 20 1.00000 0.00000 0.00000
1 21 1.00000 0.00000 0.00000
1 22 1.00000 0.00000 0.00000
1 23 1.00000 0.00000 0.00000
1 24 0.00000 0.39216 0.00000
1 25 0.00000 0.39216 0.00000
1 26 0.00000 0.39216 0.00000
1 27 0.00000 0.39216 0.00000
1 28 0.00000 0.39216 0.00000
1 29 0.00000 0.39216 0.00000
1 30 0.00000 0.39216 0.00000
1 31 0.00000 0.39216 0.00000
1 32 0.00000 0.39216 0.00000
1 33 0.00000 0.39216 0.00000
1 34 0.00000 0.39216 0.00000
1 35 0.00000 0.39216 0.00000
1 36 0.00000 0.00000 1.00000
1 37 0.00000 0.00000 1.00000
1 38 0.00000 0.00000 1.00000
1 39 0.00000 0.00000 1.00000
1 40 0.00000 0.00000 1.00000
1 41 0.00000 0.00000 1.00000
1 42 0.00000 0.00000 1.00000
1 43 0.00000 0.00000 1.00000
1 44 0.00000 0.00000 1.00000
1 45 0.00000 0.00000 1.00000
1 46 0.00000 0.00000 1.00000
1 47 0.00000 0.00000 1.00000
1 48 1.00000 0.00000 1.00000
1 49 1.00000 0.00000 1.00000
1 50 1.00000 0.00000 1.00000
1 51 1.00000 0.00000 1.00000
1 52 1.00000 0.00000 1.00000
1 53 1.00000 0.00000 1.00000
1 54 1.00000 0.00000 1.00000
1 55 1.00000 0.00000 1.00000
1 56 1.00000 0.00000 1.00000
1 57 1.00000 0.00000 1.00000
1 58 1.00000 0.00000 1.00000
1 59 1.00000 0.00000 1.00000
