OFF
120 370 0
0.20710678118654754 0.20710678118654754 -0.5
0.20710678118654754 -0.20710678118654754 0.5
-0.20710678118654754 0.20710678118654754 0.5
-0.20710678118654754 -0.20710678118654754 -0.5
0.20710678118654754 0.5 -0.20710678118654752
0.20710678118654754 -0.5 0.20710678118654752
-0.20710678118654754 0.5 0.20710678118654757
-0.20710678118654754 -0.5 -0.20710678118654757
0.5 0.20710678118654754 -0.20710678118654752
0.5 -0.20710678118654754 0.20710678118654757
-0.5 0.20710678118654754 0.20710678118654752
-0.5 -0.20710678118654754 -0.20710678118654757
0.20710678118654754 0.5 0.20710678118654757
0.20710678118654754 -0.5 -0.20710678118654757
-0.20710678118654754 0.5 -0.20710678118654752
-0.20710678118654754 -0.5 0.20710678118654752
0.20710678118654754 0.20710678118654754 0.5
0.20710678118654754 -0.20710678118654754 -0.5
-0.20710678118654754 0.20710678118654754 -0.5
-0.20710678118654754 -0.20710678118654754 0.5
0.5 0.20710678118654754 0.20710678118654757
0.5 -0.20710678118654754 -0.20710678118654752
-0.5 0.20710678118654754 -0.20710678118654757
-0.5 -0.20710678118654754 0.20710678118654752
0.11659779903601061 0.44406237274381088 0.3535533905932734
0.21850801222441052 -0.23695559155726337 -0.48155242066714732
0.090508982150536973 -0.57206140281768425 -0.01844757933285221
-0.42561479341095809 0.36495462163113679 0.14644660940672607
0.35355339059327379 0.11659779903601099 0.4440623727438105
-0.018447579332852626 0.090508982150536516 -0.57206140281768425
0.14644660940672632 -0.42561479341095787 0.36495462163113696
-0.48155242066714748 0.21850801222441035 -0.23695559155726315
0.44406237274381061 0.35355339059327384 0.11659779903601034
0.36495462163113673 0.14644660940672596 -0.42561479341095826
-0.23695559155726303 -0.48155242066714732 0.21850801222441091
-0.57206140281768425 -0.018447579332852543 0.090508982150537015
0.48155242066714748 -0.21850801222441035 0.23695559155726315
-0.14644660940672632 0.42561479341095787 -0.36495462163113696
0.018447579332852626 -0.090508982150536516 0.57206140281768425
-0.35355339059327379 -0.11659779903601099 -0.4440623727438105
0.42561479341095809 -0.36495462163113679 -0.14644660940672607
-0.090508982150536973 0.57206140281768425 0.01844757933285221
-0.21850801222441052 0.23695559155726337 0.48155242066714732
-0.11659779903601061 -0.44406237274381088 -0.3535533905932734
0.57206140281768425 0.018447579332852543 -0.090508982150537015
0.23695559155726303 0.48155242066714732 -0.21850801222441091
-0.36495462163113673 -0.14644660940672596 0.42561479341095826
-0.44406237274381061 -0.35355339059327384 -0.11659779903601034
0.11659779903601064 -0.44406237274381077 -0.35355339059327351
0.21850801222441046 0.23695559155726331 0.48155242066714732
0.090508982150536987 0.57206140281768425 0.018447579332852265
-0.42561479341095809 -0.36495462163113679 -0.14644660940672613
0.35355339059327379 -0.11659779903601093 -0.4440623727438105
-0.018447579332852723 -0.090508982150536543 0.57206140281768436
0.14644660940672638 0.42561479341095781 -0.36495462163113696
-0.48155242066714748 -0.21850801222441035 0.23695559155726315
0.44406237274381061 -0.35355339059327384 -0.11659779903601035
0.36495462163113662 -0.14644660940672605 0.42561479341095826
-0.23695559155726292 0.48155242066714732 -0.21850801222441091
-0.57206140281768425 0.018447579332852571 -0.090508982150537029
0.48155242066714748 0.21850801222441035 -0.23695559155726315
-0.14644660940672638 -0.42561479341095781 0.36495462163113696
0.018447579332852723 0.090508982150536543 -0.57206140281768436
-0.35355339059327379 0.11659779903601093 0.4440623727438105
0.42561479341095809 0.36495462163113679 0.14644660940672613
-0.090508982150536987 -0.57206140281768425 -0.018447579332852265
-0.21850801222441046 -0.23695559155726331 -0.48155242066714732
-0.11659779903601064 0.44406237274381077 0.35355339059327351
0.57206140281768425 -0.018447579332852571 0.090508982150537029
0.23695559155726292 -0.48155242066714732 0.21850801222441091
-0.36495462163113662 0.14644660940672605 -0.42561479341095826
-0.44406237274381061 0.35355339059327384 0.11659779903601035
0.42561479341095804 -0.36495462163113679 0.14644660940672632
-0.090508982150536835 0.57206140281768425 -0.018447579332852682
-0.21850801222441052 0.23695559155726303 -0.48155242066714743
-0.1165977990360107 -0.44406237274381055 0.35355339059327379
0.48155242066714743 -0.2185080122244106 -0.23695559155726303
-0.14644660940672621 0.42561479341095815 0.36495462163113662
0.018447579332852584 -0.090508982150536987 -0.57206140281768425
-0.35355339059327384 -0.11659779903601056 0.44406237274381061
0.57206140281768425 0.018447579332852515 0.090508982150536946
0.23695559155726315 0.48155242066714743 0.21850801222441046
-0.36495462163113673 -0.14644660940672627 -0.42561479341095804
-0.44406237274381066 -0.35355339059327368 0.11659779903601065
0.35355339059327384 0.11659779903601056 -0.44406237274381061
-0.018447579332852584 0.090508982150536987 0.57206140281768425
0.14644660940672621 -0.42561479341095815 -0.36495462163113662
-0.48155242066714743 0.2185080122244106 0.23695559155726303
0.1165977990360107 0.44406237274381055 -0.35355339059327379
0.21850801222441052 -0.23695559155726303 0.48155242066714743
0.090508982150536835 -0.57206140281768425 0.018447579332852682
-0.42561479341095804 0.36495462163113679 -0.14644660940672632
0.44406237274381066 0.35355339059327368 -0.11659779903601065
0.36495462163113673 0.14644660940672627 0.42561479341095804
-0.23695559155726315 -0.48155242066714743 -0.21850801222441046
-0.57206140281768425 -0.018447579332852515 -0.090508982150536946
0.42561479341095809 0.36495462163113668 -0.14644660940672644
-0.090508982150537001 -0.57206140281768425 0.018447579332852793
-0.21850801222441052 -0.23695559155726292 0.48155242066714754
-0.11659779903601061 0.44406237274381055 -0.3535533905932739
0.48155242066714748 0.21850801222441052 0.23695559155726298
-0.14644660940672635 -0.42561479341095809 -0.36495462163113657
0.018447579332852654 0.090508982150537015 0.57206140281768425
-0.35355339059327379 0.11659779903601059 -0.44406237274381066
0.57206140281768425 -0.018447579332852709 -0.090508982150536987
0.23695559155726298 -0.48155242066714754 -0.21850801222441041
-0.36495462163113668 0.14644660940672641 0.42561479341095809
-0.44406237274381061 0.35355339059327384 -0.1165977990360107
0.35355339059327379 -0.11659779903601059 0.44406237274381066
-0.018447579332852654 -0.090508982150537015 -0.57206140281768425
0.14644660940672635 0.42561479341095809 0.36495462163113657
-0.48155242066714748 -0.21850801222441052 -0.23695559155726298
0.11659779903601061 -0.44406237274381055 0.3535533905932739
0.21850801222441052 0.23695559155726292 -0.48155242066714754
0.090508982150537001 0.57206140281768425 -0.018447579332852793
-0.42561479341095809 -0.36495462163113668 0.14644660940672644
0.44406237274381061 -0.35355339059327384 0.1165977990360107
0.36495462163113668 -0.14644660940672641 -0.42561479341095809
-0.23695559155726298 0.48155242066714754 0.21850801222441041
-0.57206140281768425 0.018447579332852709 0.090508982150536987
3 0 5 10 1.00000 1.00000 0.00000
3 4 11 1 1.00000 1.00000 0.00000
3 6 9 3 1.00000 1.00000 0.00000
3 8 2 7 1.00000 1.00000 0.00000
3 12 17 23 1.00000 1.00000 0.00000
3 20 15 18 1.00000 1.00000 0.00000
3 21 14 19 1.00000 1.00000 0.00000
3 22 13 16 1.00000 1.00000 0.00000
8 2 18 15 6 3 19 14 7 1.00000 1.00000 0.00000
8 10 5 12 23 9 6 15 20 1.00000 1.00000 0.00000
8 11 21 19 3 9 23 17 1 1.00000 1.00000 0.00000
8 13 22 8 7 14 21 11 4 1.00000 1.00000 0.00000
8 16 0 10 20 18 2 8 22 1.00000 1.00000 0.00000
8 16 13 4 1 17 12 5 0 1.00000 1.00000 0.00000
3 24 29 34 1.00000 0.00000 0.00000
3 28 35 25 1.00000 0.00000 0.00000
3 30 33 27 1.00000 0.00000 0.00000
3 32 26 31 1.00000 0.00000 0.00000
3 36 41 47 1.00000 0.00000 0.00000
3 44 39 42 1.00000 0.00000 0.00000
3 45 38 43 1.00000 0.00000 0.00000
3 46 37 40 1.00000 0.00000 0.00000
8 26 42 39 30 27 43 38 31 1.00000 0.00000 0.00000
8 34 29 36 47 33 30 39 44 1.00000 0.00000 0.00000
8 35 45 43 27 33 47 41 25 1.00000 0.00000 0.00000
8 37 46 32 31 38 45 35 28 1.00000 0.00000 0.00000
8 40 24 34 44 42 26 32 46 1.00000 0.00000 0.00000
8 40 37 28 25 41 36 29 24 1.00000 0.00000 0.00000
3 48 53 58 0.00000 0.39216 0.00000
3 52 59 49 0.00000 0.39216 0.00000
3 54 57 51 0.00000 0.39216 0.00000
3 56 50 55 0.00000 0.39216 0.00000
3 60 65 71 0.00000 0.39216 0.00000
3 68 63 66 0.00000 0.39216 0.00000
3 69 62 67 0.00000 0.39216 0.00000
3 70 61 64 0.00000 0.39216 0.00000
8 50 66 63 54 51 67 62 55 0.00000 0.39216 0.00000
8 58 53 60 71 57 54 63 68 0.00000 0.39216 0.00000
8 59 69 67 51 57 71 65 49 0.00000 0.39216 0.00000
8 61 70 56 55 62 69 59 52 0.00000 0.39216 0.00000
8 64 48 58 68 66 50 56 70 0.00000 0.39216 0.00000
8 64 61 52 49 65 60 53 48 0.00000 0.39216 0.00000
3 72 77 82 0.00000 0.00000 1.00000
3 76 83 73 0.00000 0.00000 1.00000
3 78 81 75 0.00000 0.00000 1.00000
3 80 74 79 0.00000 0.00000 1.00000
3 84 89 95 0.00000 0.00000 1.00000
3 92 87 90 0.00000 0.00000 1.00000
3 93 86 91 0.00000 0.00000 1.00000
3 94 85 88 0.00000 0.00000 1.00000
8 74 90 87 78 75 91 86 79 0.00000 0.00000 1.00000
8 82 77 84 95 81 78 87 92 0.00000 0.00000 1.00000
8 83 93 91 75 81 95 89 73 0.00000 0.00000 1.00000
8 85 94 80 79 86 93 83 76 0.00000 0.00000 1.00000
8 88 72 82 92 90 74 80 94 0.00000 0.00000 1.00000
8 88 85 76 73 89 84 77 72 0.00000 0.00000 1.00000
3 96 101 106 1.00000 0.00000 1.00000
3 100 107 97 1.00000 0.00000 1.00000
3 102 105 99 1.00000 0.00000 1.00000
3 104 98 103 1.00000 0.00000 1.00000
3 108 113 119 1.00000 0.00000 1.00000
3 116 111 114 1.00000 0.00000 1.00000
3 117 110 115 1.00000 0.00000 1.00000
3 118 109 112 1.00000 0.00000 1.00000
8 98 114 111 102 99 115 110 103 1.00000 0.00000 1.00000
8 106 101 108 119 105 102 111 116 1.00000 0.00000 1.00000
8 107 117 115 99 105 119 113 97 1.00000 0.00000 1.00000
8 109 118 104 103 110 117 107 100 1.00000 0.00000 1.00000
8 112 96 106 116 114 98 104 118 1.00000 0.00000 1.00000
8 112 109 100 97 113 108 101 96 1.00000 0.00000 1.00000
2 0 5 1.00000 1.00000 0.00000
2 0 10 1.00000 1.00000 0.00000
2 0 16 1.00000 1.00000 0.00000
2 1 4 1.00000 1.00000 0.00000
2 1 11 1.00000 1.00000 0.00000
2 1 17 1.00000 1.00000 0.00000
2 2 7 1.00000 1.00000 0.00000
2 2 8 1.00000 1.00000 0.00000
2 2 18 1.00000 1.00000 0.00000
2 3 6 1.00000 1.00000 0.00000
2 3 9 1.00000 1.00000 0.00000
2 3 19 1.00000 1.00000 0.00000
2 4 11 1.00000 1.00000 0.00000
2 4 13 1.00000 1.00000 0.00000
2 5 10 1.00000 1.00000 0.00000
2 5 12 1.00000 1.00000 0.00000
2 6 9 1.00000 1.00000 0.00000
2 6 15 1.00000 1.00000 0.00000
2 7 8 1.00000 1.00000 0.00000
2 7 14 1.00000 1.00000 0.00000
2 8 22 1.00000 1.00000 0.00000
2 9 23 1.00000 1.00000 0.00000
2 10 20 1.00000 1.00000 0.00000
2 11 21 1.00000 1.00000 0.00000
2 12 17 1.00000 1.00000 0.00000
2 12 23 1.00000 1.00000 0.00000
2 13 16 1.00000 1.00000 0.00000
2 13 22 1.00000 1.00000 0.00000
2 14 19 1.00000 1.00000 0.00000
2 14 21 1.00000 1.00000 0.00000
2 15 18 1.00000 1.00000 0.00000
2 15 20 1.00000 1.00000 0.00000
2 16 22 1.00000 1.00000 0.00000
2 17 23 1.00000 1.00000 0.00000
2 18 20 1.00000 1.00000 0.00000
2 19 21 1.00000 1.00000 0.00000
2 24 29 1.00000 0.00000 0.00000
2 24 34 1.00000 0.00000 0.00000
2 24 40 1.00000 0.00000 0.00000
2 25 28 1.00000 0.00000 0.00000
2 25 35 1.00000 0.00000 0.00000
2 25 41 1.00000 0.00000 0.00000
2 26 31 1.00000 0.00000 0.00000
2 26 32 1.00000 0.00000 0.00000
2 26 42 1.00000 0.00000 0.00000
2 27 30 1.00000 0.00000 0.00000
2 27 33 1.00000 0.00000 0.00000
2 27 43 1.00000 0.00000 0.00000
2 28 35 1.00000 0.00000 0.00000
2 28 37 1.00000 0.00000 0.00000
2 29 34 1.00000 0.00000 0.00000
2 29 36 1.00000 0.00000 0.00000
2 30 33 1.00000 0.00000 0.00000
2 30 39 1.00000 0.00000 0.00000
2 31 32 1.00000 0.00000 0.00000
2 31 38 1.00000 0.00000 0.00000
2 32 46 1.00000 0.00000 0.00000
2 33 47 1.00000 0.00000 0.00000
2 34 44 1.00000 0.00000 0.00000
2 35 45 1.00000 0.00000 0.00000
2 36 41 1.00000 0.00000 0.00000
2 36 47 1.00000 0.00000 0.00000
2 37 40 1.00000 0.00000 0.00000
2 37 46 1.00000 0.00000 0.00000
2 38 43 1.00000 0.00000 0.00000
2 38 45 1.00000 0.00000 0.00000
2 39 42 1.00000 0.00000 0.00000
2 39 44 1.00000 0.00000 0.00000
2 40 46 1.00000 0.00000 0.00000
2 41 47 1.00000 0.00000 0.00000
2 42 44 1.00000 0.00000 0.00000
2 43 45 1.00000 0.00000 0.00000
2 48 53 0.00000 0.39216 0.00000
2 48 58 0.00000 0.39216 0.00000
2 48 64 0.00000 0.39216 0.00000
2 49 52 0.00000 0.39216 0.00000
2 49 59 0.00000 0.39216 0.00000
2 49 65 0.00000 0.39216 0.00000
2 50 55 0.00000 0.39216 0.00000
2 50 56 0.00000 0.39216 0.00000
2 50 66 0.00000 0.39216 0.00000
2 51 54 0.00000 0.39216 0.00000
2 51 57 0.00000 0.39216 0.00000
2 51 67 0.00000 0.39216 0.00000
2 52 59 0.00000 0.39216 0.00000
2 52 61 0.00000 0.39216 0.00000
2 53 58 0.00000 0.39216 0.00000
2 53 60 0.00000 0.39216 0.00000
2 54 57 0.00000 0.39216 0.00000
2 54 63 0.00000 0.39216 0.00000
2 55 56 0.00000 0.39216 0.00000
2 55 62 0.00000 0.39216 0.00000
2 56 70 0.00000 0.39216 0.00000
2 57 71 0.00000 0.39216 0.00000
2 58 68 0.00000 0.39216 0.00000
2 59 69 0.00000 0.39216 0.00000
2 60 65 0.00000 0.39216 0.00000
2 60 71 0.00000 0.39216 0.00000
2 61 64 0.00000 0.39216 0.00000
2 61 70 0.00000 0.39216 0.00000
2 62 67 0.00000 0.39216 0.00000
2 62 69 0.00000 0.39216 0.00000
2 63 66 0.00000 0.39216 0.00000
2 63 68 0.00000 0.39216 0.00000
2 64 70 0.00000 0.39216 0.00000
2 65 71 0.00000 0.39216 0.00000
2 66 68 0.00000 0.39216 0.00000
2 67 69 0.00000 0.39216 0.00000
2 72 77 0.00000 0.00000 1.00000
2 72 82 0.00000 0.00000 1.00000
2 72 88 0.00000 0.00000 1.00000
2 73 76 0.00000 0.00000 1.00000
2 73 83 0.00000 0.00000 1.00000
2 73 89 0.00000 0.00000 1.00000
2 74 79 0.00000 0.00000 1.00000
2 74 80 0.00000 0.00000 1.00000
2 74 90 0.00000 0.00000 1.00000
2 75 78 0.00000 0.00000 1.00000
2 75 81 0.00000 0.00000 1.00000
2 75 91 0.00000 0.00000 1.00000
2 76 83 0.00000 0.00000 1.00000
2 76 85 0.00000 0.00000 1.00000
2 77 82 0.00000 0.00000 1.00000
2 77 84 0.00000 0.00000 1.00000
2 78 81 0.00000 0.00000 1.00000
2 78 87 0.00000 0.00000 1.00000
2 79 80 0.00000 0.00000 1.00000
2 79 86 0.00000 0.00000 1.00000
2 80 94 0.00000 0.00000 1.00000
2 81 95 0.00000 0.00000 1.00000
2 82 92 0.00000 0.00000 1.00000
2 83 93 0.00000 0.00000 1.00000
2 84 89 0.00000 0.00000 1.00000
2 84 95 0.00000 0.00000 1.00000
2 85 88 0.00000 0.00000 1.00000
2 85 94 0.00000 0.00000 1.00000
2 86 91 0.00000 0.00000 1.00000
2 86 93 0.00000 0.00000 1.00000
2 87 90 0.00000 0.00000 1.00000
2 87 92 0.00000 0.00000 1.00000
2 88 94 0.00000 0.00000 1.00000
2 89 95 0.00000 0.00000 1.00000
2 90 92 0.00000 0.00000 1.00000
2 91 93 0.00000 0.00000 1.00000
2 96 101 1.00000 0.00000 1.00000
2 96 106 1.00000 0.00000 1.00000
2 96 112 1.00000 0.00000 1.00000
2 97 100 1.00000 0.00000 1.00000
2 97 107 1.00000 0.00000 1.00000
2 97 113 1.00000 0.00000 1.00000
2 98 103 1.00000 0.00000 1.00000
2 98 104 1.00000 0.00000 1.00000
2 98 114 1.00000 0.00000 1.00000
2 99 102 1.00000 0.00000 1.00000
2 99 105 1.00000 0.00000 1.00000
2 99 115 1.00000 0.00000 1.00000
2 100 107 1.00000 0.00000 1.00000
2 100 109 1.00000 0.00000 1.00000
2 101 106 1.00000 0.00000 1.00000
2 101 108 1.00000 0.00000 1.00000
2 102 105 1.00000 0.00000 1.00000
2 102 111 1.00000 0.00000 1.00000
2 103 104 1.00000 0.00000 1.00000
2 103 110 1.00000 0.00000 1.00000
2 104 118 1.00000 0.00000 1.00000
2 105 119 1.00000 0.00000 1.00000
2 106 116 1.00000 0.00000 1.00000
2 107 117 1.00000 0.00000 1.00000
2 108 113 1.00000 0.00000 1.00000
2 108 119 1.00000 0.00000 1.00000
2 109 112 1.00000 0.00000 1.00000
2 109 118 1.00000 0.00000 1.00000
2 110 115 1.00000 0.00000 1.00000
2 110 117 1.00000 0.00000 1.00000
2 111 114 1.00000 0.00000 1.00000
2 111 116 1.00000 0.00000 1.00000
2 112 118 1.00000 0.00000 1.00000
2 113 119 1.00000 0.00000 1.00000
2 114 116 1.00000 0.00000 1.00000
2 115 117 1.00000 0.00000 1.00000
1 0 1.00000 1.00000 0.00000
1 1 1.00000 1.00000 0.00000
1 2 1.00000 1.00000 0.00000
1 3 1.00000 1.00000 0.00000
1 4 1.00000 1.00000 0.00000
1 5 1.00000 1.00000 0.00000
1 6 1.00000 1.00000 0.00000
1 7 1.00000 1.00000 0.00000
1 8 1.00000 1.00000 0.00000
1 9 1.00000 1.00000 0.00000
1 10 1.00000 1.00000 0.00000
1 11 1.00000 1.00000 0.00000
1 12 1.00000 1.00000 0.00000
1 13 1.00000 1.00000 0.00000
1 14 1.00000 1.00000 0.00000
1 15 1.00000 1.00000 0.00000
1 16 1.00000 1.00000 0.00000
1 17 1.00000 1.00000 0.00000
1 18 1.00000 1.00000 0.00000
1 19 1.00000 1.00000 0.00000
1 20 1.00000 1.00000 0.00000
1 21 1.00000 1.00000 0.00000
1 22 1.00000 1.00000 0.00000
1 23 1.00000 1.00000 0.00000
1 24 1.00000 0.00000 0.00000
1 25 1.00000 0.00000 0.00000
1 26 1.00000 0.00000 0.00000
1 27 1.00000 0.00000 0.00000
1 28 1.00000 0.00000 0.00000
1 29 1.00000 0.00000 0.00000
1 30 1.00000 0.00000 0.00000
1 31 1.00000 0.00000 0.00000
1 32 1.00000 0.00000 0.00000
1 33 1.00000 0.00000 0.00000
1 34 1.00000 0.00000 0.00000
1 35 1.00000 0.00000 0.00000
1 36 1.00000 0.00000 0.00000
1 37 1.00000 0.00000 0.00000
1 38 1.00000 0.00000 0.00000
1 39 1.00000 0.00000 0.00000
1 40 1.00000 0.00000 0.00000
1 41 1.00000 0.00000 0.00000
1 42 1.00000 0.00000 0.00000
1 43 1.00000 0.00000 0.00000
1 44 1.00000 0.00000 0.00000
1 45 1.00000 0.00000 0.00000
1 46 1.00000 0.00000 0.00000
1 47 1.00000 0.00000 0.00000
1 48 0.00000 0.39216 0.00000
1 49 0.00000 0.39216 0.00000
1 50 0.00000 0.39216 0.00000
1 51 0.00000 0.39216 0.00000
1 52 0.00000 0.39216 0.00000
1 53 0.00000 0.39216 0.00000
1 54 0.00000 0.39216 0.00000
1 55 0.00000 0.39216 0.00000
1 56 0.00000 0.39216 0.00000
1 57 0.00000 0.39216 0.00000
1 58 0.00000 0.39216 0.00000
1 59 0.00000 0.39216 0.00000
1 60 0.00000 0.39216 0.00000
1 61 0.00000 0.39216 0.00000
1 62 0.00000 0.39216 0.00000
1 63 0.00000 0.39216 0.00000
1 64 0.00000 0.39216 0.00000
1 65 0.00000 0.39216 0.00000
1 66 0.00000 0.39216 0.00000
1 67 0.00000 0.39216 0.00000
1 68 0.00000 0.39216 0.00000
1 69 0.00000 0.39216 0.00000
1 70 0.00000 0.39216 0.00000
1 71 0.00000 0.39216 0.00000
1 72 0.00000 0.00000 1.00000
1 73 0.00000 0.00000 1.00000
1 74 0.00000 0.00000 1.00000
1 75 0.00000 0.00000 1.00000
1 76 0.00000 0.00000 1.00000
1 77 0.00000 0.00000 1.00000
1 78 0.00000 0.00000 1.00000
1 79 0.00000 0.00000 1.00000
1 80 0.00000 0.00000 1.00000
1 81 0.00000 0.00000 1.00000
1 82 0.00000 0.00000 1.00000
1 83 0.00000 0.00000 1.00000
1 84 0.00000 0.00000 1.00000
1 85 0.00000 0.00000 1.00000
1 86 0.00000 0.00000 1.00000
1 87 0.00000 0.00000 1.00000
1 88 0.00000 0.00000 1.00000
1 89 0.00000 0.00000 1.00000
1 90 0.00000 0.00000 1.00000
1 91 0.00000 0.00000 1.00000
1 92 0.00000 0.00000 1.00000
1 93 0.00000 0.00000 1.00000
1 94 0.00000 0.00000 1.00000
1 95 0.00000 0.00000 1.00000
1 96 1.00000 0.00000 1.00000
1 97 1.00000 0.00000 1.00000
1 98 1.00000 0.00000 1.00000
1 99 1.00000 0.00000 1.00000
1 100 1.00000 0.00000 1.00000
1 101 1.00000 0.00000 1.00000
1 102 1.00000 0.00000 1.00000
1 103 1.00000 0.00000 1.00000
1 104 1.00000 0.00000 1.00000
1 105 1.00000 0.00000 1.00000
1 106 1.00000 0.00000 1.00000
1 107 1.00000 0.00000 1.00000
1 108 1.00000 0.00000 1.00000
1 109 1.00000 0.00000 1.00000
1 110 1.00000 0.00000 1.00000
1 111 1.00000 0.00000 1.00000
1 112 1.00000 0.00000 1.00000
1 113 1.00000 0.00000 1.00000
1 114 1.00000 0.00000 1.00000
1 115 1.00000 0.00000 1.00000
1 116 1.00000 0.00000 1.00000
1 117 1.00000 0.00000 1.00000
1 118 1.00000 0.00000 1.00000
1 119 1.00000 0.00000 1.00000
