OFF
60 250 0
0.70710678118654746 0.70710678118654746 7.8504622934188746e-17
0.70710678118654746 -0.70710678118654746 0
-0.70710678118654746 0.70710678118654746 0
-0.70710678118654746 -0.70710678118654746 -7.8504622934188746e-17
0.70710678118654746 0 0.70710678118654746
0.70710678118654746 0 -0.70710678118654746
-0.70710678118654746 0 0.70710678118654746
-0.70710678118654746 0 -0.70710678118654746
0 0.70710678118654746 0.70710678118654746
0 0.70710678118654746 -0.70710678118654746
0 -0.70710678118654746 0.70710678118654746
0 -0.70710678118654746 -0.70710678118654746
0.92561479341095798 0.13504537836886352 0.3535533905932734
0.21850801222441035 0.5720614028176837 -0.7905694150420951
-0.21850801222441035 -0.5720614028176837 0.7905694150420951
-0.92561479341095798 -0.13504537836886352 -0.3535533905932734
0.79056941504209477 -0.21850801222441085 -0.57206140281768425
0.35355339059327356 0.92561479341095809 0.13504537836886255
-0.35355339059327356 -0.92561479341095809 -0.13504537836886255
-0.79056941504209477 0.21850801222441085 0.57206140281768425
0.57206140281768436 -0.79056941504209455 0.21850801222441085
0.13504537836886321 0.3535533905932744 0.92561479341095765
-0.13504537836886321 -0.3535533905932744 -0.92561479341095765
-0.57206140281768436 0.79056941504209455 -0.21850801222441085
0.92561479341095798 -0.13504537836886354 -0.3535533905932734
0.21850801222441024 -0.57206140281768381 0.7905694150420951
-0.21850801222441024 0.57206140281768381 -0.7905694150420951
-0.92561479341095798 0.13504537836886354 0.3535533905932734
0.79056941504209466 0.21850801222441069 0.57206140281768425
0.35355339059327362 -0.92561479341095798 -0.1350453783688626
-0.35355339059327362 0.92561479341095798 0.1350453783688626
-0.79056941504209466 -0.21850801222441069 -0.57206140281768425
0.57206140281768447 0.79056941504209455 -0.2185080122244108
0.13504537836886335 -0.35355339059327423 -0.92561479341095776
-0.13504537836886335 0.35355339059327423 0.92561479341095776
-0.57206140281768447 -0.79056941504209455 0.2185080122244108
0.92561479341095798 0.13504537836886307 -0.35355339059327362
0.21850801222441052 0.57206140281768425 0.79056941504209466
-0.21850801222441052 -0.57206140281768425 -0.79056941504209466
-0.92561479341095798 -0.13504537836886307 0.35355339059327362
0.35355339059327379 0.92561479341095776 -0.13504537836886329
0.79056941504209477 -0.21850801222441046 0.57206140281768425
-0.79056941504209477 0.21850801222441046 -0.57206140281768425
-0.35355339059327379 -0.92561479341095776 0.13504537836886329
0.13504537836886327 0.35355339059327351 -0.92561479341095798
0.57206140281768425 -0.79056941504209477 -0.21850801222441035
-0.57206140281768425 0.79056941504209477 0.21850801222441035
-0.13504537836886327 -0.35355339059327351 0.92561479341095798
0.92561479341095798 -0.13504537836886329 0.35355339059327362
0.21850801222441035 -0.57206140281768447 -0.79056941504209466
-0.21850801222441035 0.57206140281768447 0.79056941504209466
-0.92561479341095798 0.13504537836886329 -0.35355339059327362
0.35355339059327356 -0.92561479341095798 0.13504537836886346
0.79056941504209477 0.21850801222441024 -0.57206140281768447
-0.79056941504209477 -0.21850801222441024 0.57206140281768447
-0.35355339059327356 0.92561479341095798 -0.13504537836886346
0.13504537836886321 -0.35355339059327351 0.92561479341095809
0.57206140281768436 0.79056941504209477 0.21850801222441019
-0.57206140281768436 -0.79056941504209477 -0.21850801222441019
-0.13504537836886321 0.35355339059327351 -0.92561479341095809
3 0 5 9 1.00000 1.00000 0.00000
3 1 4 10 1.00000 1.00000 0.00000
3 2 9 7 1.00000 1.00000 0.00000
3 3 10 6 1.00000 1.00000 0.00000
3 6 8 2 1.00000 1.00000 0.00000
3 7 11 3 1.00000 1.00000 0.00000
3 8 4 0 1.00000 1.00000 0.00000
3 11 5 1 1.00000 1.00000 0.00000
4 2 7 3 6 1.00000 1.00000 0.00000
4 4 1 5 0 1.00000 1.00000 0.00000
4 7 9 5 11 1.00000 1.00000 0.00000
4 8 0 9 2 1.00000 1.00000 0.00000
4 10 3 11 1 1.00000 1.00000 0.00000
4 10 4 8 6 1.00000 1.00000 0.00000
3 12 17 21 1.00000 0.00000 0.00000
3 13 16 22 1.00000 0.00000 0.00000
3 14 21 19 1.00000 0.00000 0.00000
3 15 22 18 1.00000 0.00000 0.00000
3 18 20 14 1.00000 0.00000 0.00000
3 19 23 15 1.00000 0.00000 0.00000
3 20 16 12 1.00000 0.00000 0.00000
3 23 17 13 1.00000 0.00000 0.00000
4 14 19 15 18 1.00000 0.00000 0.00000
4 16 13 17 12 1.00000 0.00000 0.00000
4 19 21 17 23 1.00000 0.00000 0.00000
4 20 12 21 14 1.00000 0.00000 0.00000
4 22 15 23 13 1.00000 0.00000 0.00000
4 22 16 20 18 1.00000 0.00000 0.00000
3 24 29 33 0.00000 0.39216 0.00000
3 25 28 34 0.00000 0.39216 0.00000
3 26 33 31 0.00000 0.39216 0.00000
3 27 34 30 0.00000 0.39216 0.00000
3 30 32 26 0.00000 0.39216 0.00000
3 31 35 27 0.00000 0.39216 0.00000
3 32 28 24 0.00000 0.39216 0.00000
3 35 29 25 0.00000 0.39216 0.00000
4 26 31 27 30 0.00000 0.39216 0.00000
4 28 25 29 24 0.00000 0.39216 0.00000
4 31 33 29 35 0.00000 0.39216 0.00000
4 32 24 33 26 0.00000 0.39216 0.00000
4 34 27 35 25 0.00000 0.39216 0.00000
4 34 28 32 30 0.00000 0.39216 0.00000
3 36 41 45 0.00000 0.00000 1.00000
3 37 40 46 0.00000 0.00000 1.00000
3 38 45 43 0.00000 0.00000 1.00000
3 39 46 42 0.00000 0.00000 1.00000
3 42 44 38 0.00000 0.00000 1.00000
3 43 47 39 0.00000 0.00000 1.00000
3 44 40 36 0.00000 0.00000 1.00000
3 47 41 37 0.00000 0.00000 1.00000
4 38 43 39 42 0.00000 0.00000 1.00000
4 40 37 41 36 0.00000 0.00000 1.00000
4 43 45 41 47 0.00000 0.00000 1.00000
4 44 36 45 38 0.00000 0.00000 1.00000
4 46 39 47 37 0.00000 0.00000 1.00000
4 46 40 44 42 0.00000 0.00000 1.00000
3 48 53 57 1.00000 0.00000 1.00000
3 49 52 58 1.00000 0.00000 1.00000
3 50 57 55 1.00000 0.00000 1.00000
3 51 58 54 1.00000 0.00000 1.00000
3 54 56 50 1.00000 0.00000 1.00000
3 55 59 51 1.00000 0.00000 1.00000
3 56 52 48 1.00000 0.00000 1.00000
3 59 53 49 1.00000 0.00000 1.00000
4 50 55 51 54 1.00000 0.00000 1.00000
4 52 49 53 48 1.00000 0.00000 1.00000
4 55 57 53 59 1.00000 0.00000 1.00000
4 56 48 57 50 1.00000 0.00000 1.00000
4 58 51 59 49 1.00000 0.00000 1.00000
4 58 52 56 54 1.00000 0.00000 1.00000
2 0 4 1.00000 1.00000 0.00000
2 0 5 1.00000 1.00000 0.00000
2 0 8 1.00000 1.00000 0.00000
2 0 9 1.00000 1.00000 0.00000
2 1 4 1.00000 1.00000 0.00000
2 1 5 1.00000 1.00000 0.00000
2 1 10 1.00000 1.00000 0.00000
2 1 11 1.00000 1.00000 0.00000
2 2 6 1.00000 1.00000 0.00000
2 2 7 1.00000 1.00000 0.00000
2 2 8 1.00000 1.00000 0.00000
2 2 9 1.00000 1.00000 0.00000
2 3 6 1.00000 1.00000 0.00000
2 3 7 1.00000 1.00000 0.00000
2 3 10 1.00000 1.00000 0.00000
2 3 11 1.00000 1.00000 0.00000
2 4 8 1.00000 1.00000 0.00000
2 4 10 1.00000 1.00000 0.00000
2 5 9 1.00000 1.00000 0.00000
2 5 11 1.00000 1.00000 0.00000
2 6 8 1.00000 1.00000 0.00000
2 6 10 1.00000 1.00000 0.00000
2 7 9 1.00000 1.00000 0.00000
2 7 11 1.00000 1.00000 0.00000
2 12 16 1.00000 0.00000 0.00000
2 12 17 1.00000 0.00000 0.00000
2 12 20 1.00000 0.00000 0.00000
2 12 21 1.00000 0.00000 0.00000
2 13 16 1.00000 0.00000 0.00000
2 13 17 1.00000 0.00000 0.00000
2 13 22 1.00000 0.00000 0.00000
2 13 23 1.00000 0.00000 0.00000
2 14 18 1.00000 0.00000 0.00000
2 14 19 1.00000 0.00000 0.00000
2 14 20 1.00000 0.00000 0.00000
2 14 21 1.00000 0.00000 0.00000
2 15 18 1.00000 0.00000 0.00000
2 15 19 1.00000 0.00000 0.00000
2 15 22 1.00000 0.00000 0.00000
2 15 23 1.00000 0.00000 0.00000
2 16 20 1.00000 0.00000 0.00000
2 16 22 1.00000 0.00000 0.00000
2 17 21 1.00000 0.00000 0.00000
2 17 23 1.00000 0.00000 0.00000
2 18 20 1.00000 0.00000 0.00000
2 18 22 1.00000 0.00000 0.00000
2 19 21 1.00000 0.00000 0.00000
2 19 23 1.00000 0.00000 0.00000
2 24 28 0.00000 0.39216 0.00000
2 24 29 0.00000 0.39216 0.00000
2 24 32 0.00000 0.39216 0.00000
2 24 33 0.00000 0.39216 0.00000
2 25 28 0.00000 0.39216 0.00000
2 25 29 0.00000 0.39216 0.00000
2 25 34 0.00000 0.39216 0.00000
2 25 35 0.00000 0.39216 0.00000
2 26 30 0.00000 0.39216 0.00000
2 26 31 0.00000 0.39216 0.00000
2 26 32 0.00000 0.39216 0.00000
2 26 33 0.00000 0.39216 0.00000
2 27 30 0.00000 0.39216 0.00000
2 27 31 0.00000 0.39216 0.00000
2 27 34 0.00000 0.39216 0.00000
2 27 35 0.00000 0.39216 0.00000
2 28 32 0.00000 0.39216 0.00000
2 28 34 0.00000 0.39216 0.00000
2 29 33 0.00000 0.39216 0.00000
2 29 35 0.00000 0.39216 0.00000
2 30 32 0.00000 0.39216 0.00000
2 30 34 0.00000 0.39216 0.00000
2 31 33 0.00000 0.39216 0.00000
2 31 35 0.00000 0.39216 0.00000
2 36 40 0.00000 0.00000 1.00000
2 36 41 0.00000 0.00000 1.00000
2 36 44 0.00000 0.00000 1.00000
2 36 45 0.00000 0.00000 1.00000
2 37 40 0.00000 0.00000 1.00000
2 37 41 0.00000 0.00000 1.00000
2 37 46 0.00000 0.00000 1.00000
2 37 47 0.00000 0.00000 1.00000
2 38 42 0.00000 0.00000 1.00000
2 38 43 0.00000 0.00000 1.00000
2 38 44 0.00000 0.00000 1.00000
2 38 45 0.00000 0.00000 1.00000
2 39 42 0.00000 0.00000 1.00000
2 39 43 0.00000 0.00000 1.00000
2 39 46 0.00000 0.00000 1.00000
2 39 47 0.00000 0.00000 1.00000
2 40 44 0.00000 0.00000 1.00000
2 40 46 0.00000 0.00000 1.00000
2 41 45 0.00000 0.00000 1.00000
2 41 47 0.00000 0.00000 1.00000
2 42 44 0.00000 0.00000 1.00000
2 42 46 0.00000 0.00000 1.00000
2 43 45 0.00000 0.00000 1.00000
2 43 47 0.00000 0.00000 1.00000
2 48 52 1.00000 0.00000 1.00000
2 48 53 1.00000 0.00000 1.00000
2 48 56 1.00000 0.00000 1.00000
2 48 57 1.00000 0.00000 1.00000
2 49 52 1.00000 0.00000 1.00000
2 49 53 1.00000 0.00000 1.00000
2 49 58 1.00000 0.00000 1.00000
2 49 59 1.00000 0.00000 1.00000
2 50 54 1.00000 0.00000 1.00000
2 50 55 1.00000 0.00000 1.00000
2 50 56 1.00000 0.00000 1.00000
2 50 57 1.00000 0.00000 1.00000
2 51 54 1.00000 0.00000 1.00000
2 51 55 1.00000 0.00000 1.00000
2 51 58 1.00000 0.00000 1.00000
2 51 59 1.00000 0.00000 1.00000
2 52 56 1.00000 0.00000 1.00000
2 52 58 1.00000 0.00000 1.00000
2 53 57 1.00000 0.00000 1.00000
2 53 59 1.00000 0.00000 1.00000
2 54 56 1.00000 0.00000 1.00000
2 54 58 1.00000 0.00000 1.00000
2 55 57 1.00000 0.00000 1.00000
2 55 59 1.00000 0.00000 1.00000
1 0 1.00000 1.00000 0.00000
1 1 1.00000 1.00000 0.00000
1 2 1.00000 1.00000 0.00000
1 3 1.00000 1.00000 0.00000
1 4 1.00000 1.00000 0.00000
1 5 1.00000 1.00000 0.00000
1 6 1.00000 1.00000 0.00000
1 7 1.00000 1.00000 0.00000
1 8 1.00000 1.00000 0.00000
1 9 1.00000 1.00000 0.00000
1 10 1.00000 1.00000 0.00000
1 11 1.00000 1.00000 0.00000
1 12 1.00000 0.00000 0.00000
1 13 1.00000 0.00000 0.00000
1 14 1.00000 0.00000 0.00000
1 15 1.00000 0.00000 0.00000
1 16 1.00000 0.00000 0.00000
1 17 1.00000 0.00000 0.00000
1 18 1.00000 0.00000 0.00000
1 19 1.00000 0.00000 0.00000
1 20 1.00000 0.00000 0.00000
1 21 1.00000 0.00000 0.00000
1 22 1.00000 0.00000 0.00000
1 23 1.00000 0.00000 0.00000
1 24 0.00000 0.39216 0.00000
1 25 0.00000 0.39216 0.00000
1 26 0.00000 0.39216 0.00000
1 27 0.00000 0.39216 0.00000
1 28 0.00000 0.39216 0.00000
1 29 0.00000 0.39216 0.00000
1 30 0.00000 0.39216 0.00000
1 31 0.00000 0.39216 0.00000
1 32 0.00000 0.39216 0.00000
1 33 0.00000 0.39216 0.00000
1 34 0.00000 0.39216 0.00000
1 35 0.00000 0.39216 0.00000
1 36 0.00000 0.00000 1.00000
1 37 0.00000 0.00000 1.00000
1 38 0.00000 0.00000 1.00000
1 39 0.00000 0.00000 1.00000
1 40 0.00000 0.00000 1.00000
1 41 0.00000 0.00000 1.00000
1 42 0.00000 0.00000 1.00000
1 43 0.00000 0.00000 1.00000
1 44 0.00000 0.00000 1.00000
1 45 0.00000 0.00000 1.00000
1 46 0.00000 0.00000 1.00000
1 47 0.00000 0.00000 1.00000
1 48 1.00000 0.00000 1.00000
1 49 1.00000 0.00000 1.00000
1 50 1.00000 0.00000 1.00000
1 51 1.00000 0.00000 1.00000
1 52 1.00000 0.00000 1.00000
1 53 1.00000 0.00000 1.00000
1 54 1.00000 0.00000 1.00000
1 55 1.00000 0.00000 1.00000
1 56 1.00000 0.00000 1.00000
1 57 1.00000 0.00000 1.00000
1 58 1.00000 0.00000 1.00000
1 59 1.00000 0.00000 1.00000
