OFF
120 604 0
-0.33514771594934545 0.37104717825896055 -0.64497105964678625
-0.33514771594934545 -0.37104717825896055 0.64497105964678625
0.33514771594934545 0.37104717825896055 0.64497105964678625
0.33514771594934545 -0.37104717825896055 -0.64497105964678625
0.37104717825896055 0.64497105964678625 0.3351477159493455
0.37104717825896055 -0.64497105964678625 -0.33514771594934545
-0.37104717825896055 0.64497105964678625 -0.33514771594934545
-0.37104717825896055 -0.64497105964678625 0.33514771594934539
0.64497105964678625 -0.33514771594934545 -0.37104717825896055
0.64497105964678625 0.33514771594934545 0.37104717825896061
-0.64497105964678625 -0.33514771594934545 0.3710471782589605
-0.64497105964678625 0.33514771594934545 -0.37104717825896055
-0.80402628990582992 -0.081264282957271852 0.11369040961138695
-0.80402628990582992 0.081264282957271852 -0.11369040961138704
0.80402628990582992 -0.081264282957271852 -0.11369040961138696
0.80402628990582992 0.081264282957271852 0.11369040961138706
-0.081264282957271852 -0.113690409611387 0.80402628990582992
-0.081264282957271852 0.113690409611387 -0.80402628990582992
0.081264282957271852 -0.113690409611387 -0.80402628990582992
0.081264282957271852 0.113690409611387 0.80402628990582992
-0.113690409611387 -0.80402628990582992 0.081264282957271797
-0.113690409611387 0.80402628990582992 -0.081264282957271811
0.113690409611387 -0.80402628990582992 -0.081264282957271894
0.113690409611387 0.80402628990582992 0.081264282957271908
-0.28492362701036256 -0.23955880636270591 -0.72623534260405809
-0.28492362701036256 0.23955880636270591 0.72623534260405809
0.28492362701036256 -0.23955880636270591 0.72623534260405809
0.28492362701036256 0.23955880636270591 -0.72623534260405809
-0.23955880636270591 0.72623534260405809 0.28492362701036256
-0.23955880636270591 -0.72623534260405809 -0.28492362701036261
0.23955880636270591 0.72623534260405809 -0.2849236270103625
0.23955880636270591 -0.72623534260405809 0.28492362701036256
0.72623534260405809 -0.28492362701036256 0.23955880636270593
0.72623534260405809 0.28492362701036256 -0.23955880636270585
-0.72623534260405809 -0.28492362701036256 -0.23955880636270596
-0.72623534260405809 0.28492362701036256 0.23955880636270588
-0.65597080526932317 0.46887857395648458 -0.12586839675131886
-0.65597080526932317 -0.46887857395648458 0.12586839675131881
0.65597080526932317 0.46887857395648458 0.12586839675131892
0.65597080526932317 -0.46887857395648458 -0.12586839675131886
0.46887857395648458 0.12586839675131886 0.65597080526932317
0.46887857395648458 -0.12586839675131886 -0.65597080526932317
-0.46887857395648458 0.12586839675131886 -0.65597080526932317
-0.46887857395648458 -0.12586839675131886 0.65597080526932317
0.12586839675131886 -0.65597080526932317 -0.46887857395648463
0.12586839675131886 0.65597080526932317 0.46887857395648463
-0.12586839675131886 -0.65597080526932317 0.46887857395648452
-0.12586839675131886 0.65597080526932317 -0.46887857395648452
-0.57470652231205133 -0.51910266289546736 -0.25735676864757362
-0.57470652231205133 0.51910266289546736 0.25735676864757356
0.57470652231205133 -0.51910266289546736 0.25735676864757356
0.57470652231205133 0.51910266289546736 -0.25735676864757351
-0.51910266289546736 0.25735676864757356 0.57470652231205133
-0.51910266289546736 -0.25735676864757356 -0.57470652231205133
0.51910266289546736 0.25735676864757356 -0.57470652231205133
0.51910266289546736 -0.25735676864757356 0.57470652231205133
0.25735676864757356 -0.57470652231205133 0.51910266289546736
0.25735676864757356 0.57470652231205133 -0.51910266289546736
-0.25735676864757356 -0.57470652231205133 -0.51910266289546736
-0.25735676864757356 0.57470652231205133 0.51910266289546736
-0.33514771594934539 0.37104717825896061 0.64497105964678625
-0.3351477159493455 -0.3710471782589605 -0.64497105964678625
0.3351477159493455 0.3710471782589605 -0.64497105964678625
0.33514771594934539 -0.37104717825896061 0.64497105964678625
0.37104717825896061 0.64497105964678625 -0.3351477159493455
0.3710471782589605 -0.64497105964678625 0.33514771594934545
-0.3710471782589605 0.64497105964678625 0.33514771594934545
-0.37104717825896061 -0.64497105964678625 -0.33514771594934539
0.64497105964678625 -0.3351477159493455 0.37104717825896055
0.64497105964678625 0.33514771594934539 -0.37104717825896061
-0.64497105964678625 -0.33514771594934539 -0.3710471782589605
-0.64497105964678625 0.3351477159493455 0.37104717825896055
-0.80402628990582992 -0.081264282957271755 -0.11369040961138695
-0.80402628990582992 0.081264282957271949 0.11369040961138704
0.80402628990582992 -0.081264282957271949 0.11369040961138696
0.80402628990582992 0.081264282957271755 -0.11369040961138706
-0.081264282957271866 -0.11369040961138699 -0.80402628990582992
-0.081264282957271838 0.11369040961138702 0.80402628990582992
0.081264282957271838 -0.11369040961138702 0.80402628990582992
0.081264282957271866 0.11369040961138699 -0.80402628990582992
-0.1136904096113871 -0.80402628990582992 -0.081264282957271797
-0.11369040961138691 0.80402628990582992 0.081264282957271811
0.11369040961138691 -0.80402628990582992 0.081264282957271894
0.1136904096113871 0.80402628990582992 -0.081264282957271908
-0.28492362701036261 -0.23955880636270588 0.72623534260405809
-0.2849236270103625 0.23955880636270593 -0.72623534260405809
0.2849236270103625 -0.23955880636270593 -0.72623534260405809
0.28492362701036261 0.23955880636270588 0.72623534260405809
-0.23955880636270582 0.72623534260405809 -0.28492362701036256
-0.23955880636270599 -0.72623534260405809 0.28492362701036261
0.23955880636270599 0.72623534260405809 0.2849236270103625
0.23955880636270582 -0.72623534260405809 -0.28492362701036256
0.72623534260405809 -0.28492362701036267 -0.23955880636270593
0.72623534260405809 0.28492362701036245 0.23955880636270585
-0.72623534260405809 -0.28492362701036245 0.23955880636270596
-0.72623534260405809 0.28492362701036267 -0.23955880636270588
-0.65597080526932305 0.46887857395648463 0.12586839675131886
-0.65597080526932328 -0.46887857395648452 -0.12586839675131881
0.65597080526932328 0.46887857395648452 -0.12586839675131892
0.65597080526932305 -0.46887857395648463 0.12586839675131886
0.46887857395648458 0.12586839675131881 -0.65597080526932317
0.46887857395648458 -0.12586839675131892 0.65597080526932317
-0.46887857395648458 0.12586839675131892 0.65597080526932317
-0.46887857395648458 -0.12586839675131881 -0.65597080526932317
0.12586839675131878 -0.65597080526932317 0.46887857395648463
0.12586839675131895 0.65597080526932317 -0.46887857395648463
-0.12586839675131895 -0.65597080526932317 -0.46887857395648452
-0.12586839675131878 0.65597080526932317 0.46887857395648452
-0.57470652231205144 -0.51910266289546725 0.25735676864757362
-0.57470652231205122 0.51910266289546747 -0.25735676864757356
0.57470652231205122 -0.51910266289546747 -0.25735676864757356
0.57470652231205144 0.51910266289546725 0.25735676864757351
-0.51910266289546736 0.25735676864757362 -0.57470652231205133
-0.51910266289546736 -0.25735676864757351 0.57470652231205133
0.51910266289546736 0.25735676864757351 0.57470652231205133
0.51910266289546736 -0.25735676864757362 -0.57470652231205133
0.25735676864757351 -0.57470652231205133 -0.51910266289546736
0.25735676864757362 0.57470652231205133 0.51910266289546736
-0.25735676864757362 -0.57470652231205133 0.51910266289546736
-0.25735676864757351 0.57470652231205133 -0.51910266289546736
3 0 3 48 1.00000 1.00000 0.00000
3 1 13 29 1.00000 1.00000 0.00000
3 1 29 50 1.00000 1.00000 0.00000
3 1 50 2 1.00000 1.00000 0.00000
3 2 30 49 1.00000 1.00000 0.00000
3 4 16 32 1.00000 1.00000 0.00000
3 5 7 53 1.00000 1.00000 0.00000
3 5 55 7 1.00000 1.00000 0.00000
3 6 52 4 1.00000 1.00000 0.00000
3 7 19 35 1.00000 1.00000 0.00000
3 8 20 24 1.00000 1.00000 0.00000
3 8 24 57 1.00000 1.00000 0.00000
3 8 57 9 1.00000 1.00000 0.00000
3 10 11 58 1.00000 1.00000 0.00000
3 11 23 27 1.00000 1.00000 0.00000
3 11 27 58 1.00000 1.00000 0.00000
3 13 17 29 1.00000 1.00000 0.00000
3 13 21 17 1.00000 1.00000 0.00000
3 14 22 18 1.00000 1.00000 0.00000
3 14 26 22 1.00000 1.00000 0.00000
3 15 31 3 1.00000 1.00000 0.00000
3 16 12 20 1.00000 1.00000 0.00000
3 16 28 12 1.00000 1.00000 0.00000
3 17 33 5 1.00000 1.00000 0.00000
3 18 22 34 1.00000 1.00000 0.00000
3 18 34 6 1.00000 1.00000 0.00000
3 19 31 15 1.00000 1.00000 0.00000
3 20 12 24 1.00000 1.00000 0.00000
3 21 33 17 1.00000 1.00000 0.00000
3 23 15 27 1.00000 1.00000 0.00000
3 23 19 15 1.00000 1.00000 0.00000
3 24 36 57 1.00000 1.00000 0.00000
3 25 9 21 1.00000 1.00000 0.00000
3 25 21 13 1.00000 1.00000 0.00000
3 26 10 22 1.00000 1.00000 0.00000
3 26 38 59 1.00000 1.00000 0.00000
3 26 59 10 1.00000 1.00000 0.00000
3 28 0 12 1.00000 1.00000 0.00000
3 28 51 0 1.00000 1.00000 0.00000
3 29 41 50 1.00000 1.00000 0.00000
3 30 2 14 1.00000 1.00000 0.00000
3 30 14 18 1.00000 1.00000 0.00000
3 32 16 20 1.00000 1.00000 0.00000
3 33 45 55 1.00000 1.00000 0.00000
3 33 55 5 1.00000 1.00000 0.00000
3 34 46 52 1.00000 1.00000 0.00000
3 34 52 6 1.00000 1.00000 0.00000
3 35 19 23 1.00000 1.00000 0.00000
3 36 43 45 1.00000 1.00000 0.00000
3 36 48 43 1.00000 1.00000 0.00000
3 37 44 56 1.00000 1.00000 0.00000
3 37 56 25 1.00000 1.00000 0.00000
3 38 47 59 1.00000 1.00000 0.00000
3 39 51 40 1.00000 1.00000 0.00000
3 40 51 28 1.00000 1.00000 0.00000
3 41 47 38 1.00000 1.00000 0.00000
3 41 53 47 1.00000 1.00000 0.00000
3 42 44 37 1.00000 1.00000 0.00000
3 42 54 44 1.00000 1.00000 0.00000
3 45 43 55 1.00000 1.00000 0.00000
3 46 39 40 1.00000 1.00000 0.00000
3 46 40 52 1.00000 1.00000 0.00000
3 46 58 39 1.00000 1.00000 0.00000
3 48 3 31 1.00000 1.00000 0.00000
3 48 31 43 1.00000 1.00000 0.00000
3 49 1 2 1.00000 1.00000 0.00000
3 49 30 42 1.00000 1.00000 0.00000
3 49 42 37 1.00000 1.00000 0.00000
3 50 41 38 1.00000 1.00000 0.00000
3 51 3 0 1.00000 1.00000 0.00000
3 53 7 35 1.00000 1.00000 0.00000
3 53 35 47 1.00000 1.00000 0.00000
3 54 4 32 1.00000 1.00000 0.00000
3 54 6 4 1.00000 1.00000 0.00000
3 54 32 44 1.00000 1.00000 0.00000
3 56 8 9 1.00000 1.00000 0.00000
3 56 9 25 1.00000 1.00000 0.00000
3 57 36 45 1.00000 1.00000 0.00000
3 58 27 39 1.00000 1.00000 0.00000
3 59 11 10 1.00000 1.00000 0.00000
5 2 50 38 26 14 1.00000 1.00000 0.00000
5 4 52 40 28 16 1.00000 1.00000 0.00000
5 9 57 45 33 21 1.00000 1.00000 0.00000
5 22 10 58 46 34 1.00000 1.00000 0.00000
5 24 12 0 48 36 1.00000 1.00000 0.00000
5 29 17 5 53 41 1.00000 1.00000 0.00000
5 30 18 6 54 42 1.00000 1.00000 0.00000
5 39 27 15 3 51 1.00000 1.00000 0.00000
5 44 32 20 8 56 1.00000 1.00000 0.00000
5 49 37 25 13 1 1.00000 1.00000 0.00000
5 55 43 31 19 7 1.00000 1.00000 0.00000
5 59 47 35 23 11 1.00000 1.00000 0.00000
3 60 63 108 1.00000 0.00000 0.00000
3 61 73 89 1.00000 0.00000 0.00000
3 61 89 110 1.00000 0.00000 0.00000
3 61 110 62 1.00000 0.00000 0.00000
3 62 90 109 1.00000 0.00000 0.00000
3 64 76 92 1.00000 0.00000 0.00000
3 65 67 113 1.00000 0.00000 0.00000
3 65 115 67 1.00000 0.00000 0.00000
3 66 112 64 1.00000 0.00000 0.00000
3 67 79 95 1.00000 0.00000 0.00000
3 68 80 84 1.00000 0.00000 0.00000
3 68 84 117 1.00000 0.00000 0.00000
3 68 117 69 1.00000 0.00000 0.00000
3 70 71 118 1.00000 0.00000 0.00000
3 71 83 87 1.00000 0.00000 0.00000
3 71 87 118 1.00000 0.00000 0.00000
3 73 77 89 1.00000 0.00000 0.00000
3 73 81 77 1.00000 0.00000 0.00000
3 74 82 78 1.00000 0.00000 0.00000
3 74 86 82 1.00000 0.00000 0.00000
3 75 91 63 1.00000 0.00000 0.00000
3 76 72 80 1.00000 0.00000 0.00000
3 76 88 72 1.00000 0.00000 0.00000
3 77 93 65 1.00000 0.00000 0.00000
3 78 82 94 1.00000 0.00000 0.00000
3 78 94 66 1.00000 0.00000 0.00000
3 79 91 75 1.00000 0.00000 0.00000
3 80 72 84 1.00000 0.00000 0.00000
3 81 93 77 1.00000 0.00000 0.00000
3 83 75 87 1.00000 0.00000 0.00000
3 83 79 75 1.00000 0.00000 0.00000
3 84 96 117 1.00000 0.00000 0.00000
3 85 69 81 1.00000 0.00000 0.00000
3 85 81 73 1.00000 0.00000 0.00000
3 86 70 82 1.00000 0.00000 0.00000
3 86 98 119 1.00000 0.00000 0.00000
3 86 119 70 1.00000 0.00000 0.00000
3 88 60 72 1.00000 0.00000 0.00000
3 88 111 60 1.00000 0.00000 0.00000
3 89 101 110 1.00000 0.00000 0.00000
3 90 62 74 1.00000 0.00000 0.00000
3 90 74 78 1.00000 0.00000 0.00000
3 92 76 80 1.00000 0.00000 0.00000
3 93 105 115 1.00000 0.00000 0.00000
3 93 115 65 1.00000 0.00000 0.00000
3 94 106 112 1.00000 0.00000 0.00000
3 94 112 66 1.00000 0.00000 0.00000
3 95 79 83 1.00000 0.00000 0.00000
3 96 103 105 1.00000 0.00000 0.00000
3 96 108 103 1.00000 0.00000 0.00000
3 97 104 116 1.00000 0.00000 0.00000
3 97 116 85 1.00000 0.00000 0.00000
3 98 107 119 1.00000 0.00000 0.00000
3 99 111 100 1.00000 0.00000 0.00000
3 100 111 88 1.00000 0.00000 0.00000
3 101 107 98 1.00000 0.00000 0.00000
3 101 113 107 1.00000 0.00000 0.00000
3 102 104 97 1.00000 0.00000 0.00000
3 102 114 104 1.00000 0.00000 0.00000
3 105 103 115 1.00000 0.00000 0.00000
3 106 99 100 1.00000 0.00000 0.00000
3 106 100 112 1.00000 0.00000 0.00000
3 106 118 99 1.00000 0.00000 0.00000
3 108 63 91 1.00000 0.00000 0.00000
3 108 91 103 1.00000 0.00000 0.00000
3 109 61 62 1.00000 0.00000 0.00000
3 109 90 102 1.00000 0.00000 0.00000
3 109 102 97 1.00000 0.00000 0.00000
3 110 101 98 1.00000 0.00000 0.00000
3 111 63 60 1.00000 0.00000 0.00000
3 113 67 95 1.00000 0.00000 0.00000
3 113 95 107 1.00000 0.00000 0.00000
3 114 64 92 1.00000 0.00000 0.00000
3 114 66 64 1.00000 0.00000 0.00000
3 114 92 104 1.00000 0.00000 0.00000
3 116 68 69 1.00000 0.00000 0.00000
3 116 69 85 1.00000 0.00000 0.00000
3 117 96 105 1.00000 0.00000 0.00000
3 118 87 99 1.00000 0.00000 0.00000
3 119 71 70 1.00000 0.00000 0.00000
5 62 110 98 86 74 1.00000 0.00000 0.00000
5 64 112 100 88 76 1.00000 0.00000 0.00000
5 69 117 105 93 81 1.00000 0.00000 0.00000
5 82 70 118 106 94 1.00000 0.00000 0.00000
5 84 72 60 108 96 1.00000 0.00000 0.00000
5 89 77 65 113 101 1.00000 0.00000 0.00000
5 90 78 66 114 102 1.00000 0.00000 0.00000
5 99 87 75 63 111 1.00000 0.00000 0.00000
5 104 92 80 68 116 1.00000 0.00000 0.00000
5 109 97 85 73 61 1.00000 0.00000 0.00000
5 115 103 91 79 67 1.00000 0.00000 0.00000
5 119 107 95 83 71 1.00000 0.00000 0.00000
2 0 3 1.00000 1.00000 0.00000
2 0 12 1.00000 1.00000 0.00000
2 0 28 1.00000 1.00000 0.00000
2 0 48 1.00000 1.00000 0.00000
2 0 51 1.00000 1.00000 0.00000
2 1 2 1.00000 1.00000 0.00000
2 1 13 1.00000 1.00000 0.00000
2 1 29 1.00000 1.00000 0.00000
2 1 49 1.00000 1.00000 0.00000
2 1 50 1.00000 1.00000 0.00000
2 2 14 1.00000 1.00000 0.00000
2 2 30 1.00000 1.00000 0.00000
2 2 49 1.00000 1.00000 0.00000
2 2 50 1.00000 1.00000 0.00000
2 3 15 1.00000 1.00000 0.00000
2 3 31 1.00000 1.00000 0.00000
2 3 48 1.00000 1.00000 0.00000
2 3 51 1.00000 1.00000 0.00000
2 4 6 1.00000 1.00000 0.00000
2 4 16 1.00000 1.00000 0.00000
2 4 32 1.00000 1.00000 0.00000
2 4 52 1.00000 1.00000 0.00000
2 4 54 1.00000 1.00000 0.00000
2 5 7 1.00000 1.00000 0.00000
2 5 17 1.00000 1.00000 0.00000
2 5 33 1.00000 1.00000 0.00000
2 5 53 1.00000 1.00000 0.00000
2 5 55 1.00000 1.00000 0.00000
2 6 18 1.00000 1.00000 0.00000
2 6 34 1.00000 1.00000 0.00000
2 6 52 1.00000 1.00000 0.00000
2 6 54 1.00000 1.00000 0.00000
2 7 19 1.00000 1.00000 0.00000
2 7 35 1.00000 1.00000 0.00000
2 7 53 1.00000 1.00000 0.00000
2 7 55 1.00000 1.00000 0.00000
2 8 9 1.00000 1.00000 0.00000
2 8 20 1.00000 1.00000 0.00000
2 8 24 1.00000 1.00000 0.00000
2 8 56 1.00000 1.00000 0.00000
2 8 57 1.00000 1.00000 0.00000
2 9 21 1.00000 1.00000 0.00000
2 9 25 1.00000 1.00000 0.00000
2 9 56 1.00000 1.00000 0.00000
2 9 57 1.00000 1.00000 0.00000
2 10 11 1.00000 1.00000 0.00000
2 10 22 1.00000 1.00000 0.00000
2 10 26 1.00000 1.00000 0.00000
2 10 58 1.00000 1.00000 0.00000
2 10 59 1.00000 1.00000 0.00000
2 11 23 1.00000 1.00000 0.00000
2 11 27 1.00000 1.00000 0.00000
2 11 58 1.00000 1.00000 0.00000
2 11 59 1.00000 1.00000 0.00000
2 12 16 1.00000 1.00000 0.00000
2 12 20 1.00000 1.00000 0.00000
2 12 24 1.00000 1.00000 0.00000
2 12 28 1.00000 1.00000 0.00000
2 13 17 1.00000 1.00000 0.00000
2 13 21 1.00000 1.00000 0.00000
2 13 25 1.00000 1.00000 0.00000
2 13 29 1.00000 1.00000 0.00000
2 14 18 1.00000 1.00000 0.00000
2 14 22 1.00000 1.00000 0.00000
2 14 26 1.00000 1.00000 0.00000
2 14 30 1.00000 1.00000 0.00000
2 15 19 1.00000 1.00000 0.00000
2 15 23 1.00000 1.00000 0.00000
2 15 27 1.00000 1.00000 0.00000
2 15 31 1.00000 1.00000 0.00000
2 16 20 1.00000 1.00000 0.00000
2 16 28 1.00000 1.00000 0.00000
2 16 32 1.00000 1.00000 0.00000
2 17 21 1.00000 1.00000 0.00000
2 17 29 1.00000 1.00000 0.00000
2 17 33 1.00000 1.00000 0.00000
2 18 22 1.00000 1.00000 0.00000
2 18 30 1.00000 1.00000 0.00000
2 18 34 1.00000 1.00000 0.00000
2 19 23 1.00000 1.00000 0.00000
2 19 31 1.00000 1.00000 0.00000
2 19 35 1.00000 1.00000 0.00000
2 20 24 1.00000 1.00000 0.00000
2 20 32 1.00000 1.00000 0.00000
2 21 25 1.00000 1.00000 0.00000
2 21 33 1.00000 1.00000 0.00000
2 22 26 1.00000 1.00000 0.00000
2 22 34 1.00000 1.00000 0.00000
2 23 27 1.00000 1.00000 0.00000
2 23 35 1.00000 1.00000 0.00000
2 24 36 1.00000 1.00000 0.00000
2 24 57 1.00000 1.00000 0.00000
2 25 37 1.00000 1.00000 0.00000
2 25 56 1.00000 1.00000 0.00000
2 26 38 1.00000 1.00000 0.00000
2 26 59 1.00000 1.00000 0.00000
2 27 39 1.00000 1.00000 0.00000
2 27 58 1.00000 1.00000 0.00000
2 28 40 1.00000 1.00000 0.00000
2 28 51 1.00000 1.00000 0.00000
2 29 41 1.00000 1.00000 0.00000
2 29 50 1.00000 1.00000 0.00000
2 30 42 1.00000 1.00000 0.00000
2 30 49 1.00000 1.00000 0.00000
2 31 43 1.00000 1.00000 0.00000
2 31 48 1.00000 1.00000 0.00000
2 32 44 1.00000 1.00000 0.00000
2 32 54 1.00000 1.00000 0.00000
2 33 45 1.00000 1.00000 0.00000
2 33 55 1.00000 1.00000 0.00000
2 34 46 1.00000 1.00000 0.00000
2 34 52 1.00000 1.00000 0.00000
2 35 47 1.00000 1.00000 0.00000
2 35 53 1.00000 1.00000 0.00000
2 36 43 1.00000 1.00000 0.00000
2 36 45 1.00000 1.00000 0.00000
2 36 48 1.00000 1.00000 0.00000
2 36 57 1.00000 1.00000 0.00000
2 37 42 1.00000 1.00000 0.00000
2 37 44 1.00000 1.00000 0.00000
2 37 49 1.00000 1.00000 0.00000
2 37 56 1.00000 1.00000 0.00000
2 38 41 1.00000 1.00000 0.00000
2 38 47 1.00000 1.00000 0.00000
2 38 50 1.00000 1.00000 0.00000
2 38 59 1.00000 1.00000 0.00000
2 39 40 1.00000 1.00000 0.00000
2 39 46 1.00000 1.00000 0.00000
2 39 51 1.00000 1.00000 0.00000
2 39 58 1.00000 1.00000 0.00000
2 40 46 1.00000 1.00000 0.00000
2 40 51 1.00000 1.00000 0.00000
2 40 52 1.00000 1.00000 0.00000
2 41 47 1.00000 1.00000 0.00000
2 41 50 1.00000 1.00000 0.00000
2 41 53 1.00000 1.00000 0.00000
2 42 44 1.00000 1.00000 0.00000
2 42 49 1.00000 1.00000 0.00000
2 42 54 1.00000 1.00000 0.00000
2 43 45 1.00000 1.00000 0.00000
2 43 48 1.00000 1.00000 0.00000
2 43 55 1.00000 1.00000 0.00000
2 44 54 1.00000 1.00000 0.00000
2 44 56 1.00000 1.00000 0.00000
2 45 55 1.00000 1.00000 0.00000
2 45 57 1.00000 1.00000 0.00000
2 46 52 1.00000 1.00000 0.00000
2 46 58 1.00000 1.00000 0.00000
2 47 53 1.00000 1.00000 0.00000
2 47 59 1.00000 1.00000 0.00000
2 60 63 1.00000 0.00000 0.00000
2 60 72 1.00000 0.00000 0.00000
2 60 88 1.00000 0.00000 0.00000
2 60 108 1.00000 0.00000 0.00000
2 60 111 1.00000 0.00000 0.00000
2 61 62 1.00000 0.00000 0.00000
2 61 73 1.00000 0.00000 0.00000
2 61 89 1.00000 0.00000 0.00000
2 61 109 1.00000 0.00000 0.00000
2 61 110 1.00000 0.00000 0.00000
2 62 74 1.00000 0.00000 0.00000
2 62 90 1.00000 0.00000 0.00000
2 62 109 1.00000 0.00000 0.00000
2 62 110 1.00000 0.00000 0.00000
2 63 75 1.00000 0.00000 0.00000
2 63 91 1.00000 0.00000 0.00000
2 63 108 1.00000 0.00000 0.00000
2 63 111 1.00000 0.00000 0.00000
2 64 66 1.00000 0.00000 0.00000
2 64 76 1.00000 0.00000 0.00000
2 64 92 1.00000 0.00000 0.00000
2 64 112 1.00000 0.00000 0.00000
2 64 114 1.00000 0.00000 0.00000
2 65 67 1.00000 0.00000 0.00000
2 65 77 1.00000 0.00000 0.00000
2 65 93 1.00000 0.00000 0.00000
2 65 113 1.00000 0.00000 0.00000
2 65 115 1.00000 0.00000 0.00000
2 66 78 1.00000 0.00000 0.00000
2 66 94 1.00000 0.00000 0.00000
2 66 112 1.00000 0.00000 0.00000
2 66 114 1.00000 0.00000 0.00000
2 67 79 1.00000 0.00000 0.00000
2 67 95 1.00000 0.00000 0.00000
2 67 113 1.00000 0.00000 0.00000
2 67 115 1.00000 0.00000 0.00000
2 68 69 1.00000 0.00000 0.00000
2 68 80 1.00000 0.00000 0.00000
2 68 84 1.00000 0.00000 0.00000
2 68 116 1.00000 0.00000 0.00000
2 68 117 1.00000 0.00000 0.00000
2 69 81 1.00000 0.00000 0.00000
2 69 85 1.00000 0.00000 0.00000
2 69 116 1.00000 0.00000 0.00000
2 69 117 1.00000 0.00000 0.00000
2 70 71 1.00000 0.00000 0.00000
2 70 82 1.00000 0.00000 0.00000
2 70 86 1.00000 0.00000 0.00000
2 70 118 1.00000 0.00000 0.00000
2 70 119 1.00000 0.00000 0.00000
2 71 83 1.00000 0.00000 0.00000
2 71 87 1.00000 0.00000 0.00000
2 71 118 1.00000 0.00000 0.00000
2 71 119 1.00000 0.00000 0.00000
2 72 76 1.00000 0.00000 0.00000
2 72 80 1.00000 0.00000 0.00000
2 72 84 1.00000 0.00000 0.00000
2 72 88 1.00000 0.00000 0.00000
2 73 77 1.00000 0.00000 0.00000
2 73 81 1.00000 0.00000 0.00000
2 73 85 1.00000 0.00000 0.00000
2 73 89 1.00000 0.00000 0.00000
2 74 78 1.00000 0.00000 0.00000
2 74 82 1.00000 0.00000 0.00000
2 74 86 1.00000 0.00000 0.00000
2 74 90 1.00000 0.00000 0.00000
2 75 79 1.00000 0.00000 0.00000
2 75 83 1.00000 0.00000 0.00000
2 75 87 1.00000 0.00000 0.00000
2 75 91 1.00000 0.00000 0.00000
2 76 80 1.00000 0.00000 0.00000
2 76 88 1.00000 0.00000 0.00000
2 76 92 1.00000 0.00000 0.00000
2 77 81 1.00000 0.00000 0.00000
2 77 89 1.00000 0.00000 0.00000
2 77 93 1.00000 0.00000 0.00000
2 78 82 1.00000 0.00000 0.00000
2 78 90 1.00000 0.00000 0.00000
2 78 94 1.00000 0.00000 0.00000
2 79 83 1.00000 0.00000 0.00000
2 79 91 1.00000 0.00000 0.00000
2 79 95 1.00000 0.00000 0.00000
2 80 84 1.00000 0.00000 0.00000
2 80 92 1.00000 0.00000 0.00000
2 81 85 1.00000 0.00000 0.00000
2 81 93 1.00000 0.00000 0.00000
2 82 86 1.00000 0.00000 0.00000
2 82 94 1.00000 0.00000 0.00000
2 83 87 1.00000 0.00000 0.00000
2 83 95 1.00000 0.00000 0.00000
2 84 96 1.00000 0.00000 0.00000
2 84 117 1.00000 0.00000 0.00000
2 85 97 1.00000 0.00000 0.00000
2 85 116 1.00000 0.00000 0.00000
2 86 98 1.00000 0.00000 0.00000
2 86 119 1.00000 0.00000 0.00000
2 87 99 1.00000 0.00000 0.00000
2 87 118 1.00000 0.00000 0.00000
2 88 100 1.00000 0.00000 0.00000
2 88 111 1.00000 0.00000 0.00000
2 89 101 1.00000 0.00000 0.00000
2 89 110 1.00000 0.00000 0.00000
2 90 102 1.00000 0.00000 0.00000
2 90 109 1.00000 0.00000 0.00000
2 91 103 1.00000 0.00000 0.00000
2 91 108 1.00000 0.00000 0.00000
2 92 104 1.00000 0.00000 0.00000
2 92 114 1.00000 0.00000 0.00000
2 93 105 1.00000 0.00000 0.00000
2 93 115 1.00000 0.00000 0.00000
2 94 106 1.00000 0.00000 0.00000
2 94 112 1.00000 0.00000 0.00000
2 95 107 1.00000 0.00000 0.00000
2 95 113 1.00000 0.00000 0.00000
2 96 103 1.00000 0.00000 0.00000
2 96 105 1.00000 0.00000 0.00000
2 96 108 1.00000 0.00000 0.00000
2 96 117 1.00000 0.00000 0.00000
2 97 102 1.00000 0.00000 0.00000
2 97 104 1.00000 0.00000 0.00000
2 97 109 1.00000 0.00000 0.00000
2 97 116 1.00000 0.00000 0.00000
2 98 101 1.00000 0.00000 0.00000
2 98 107 1.00000 0.00000 0.00000
2 98 110 1.00000 0.00000 0.00000
2 98 119 1.00000 0.00000 0.00000
2 99 100 1.00000 0.00000 0.00000
2 99 106 1.00000 0.00000 0.00000
2 99 111 1.00000 0.00000 0.00000
2 99 118 1.00000 0.00000 0.00000
2 100 106 1.00000 0.00000 0.00000
2 100 111 1.00000 0.00000 0.00000
2 100 112 1.00000 0.00000 0.00000
2 101 107 1.00000 0.00000 0.00000
2 101 110 1.00000 0.00000 0.00000
2 101 113 1.00000 0.00000 0.00000
2 102 104 1.00000 0.00000 0.00000
2 102 109 1.00000 0.00000 0.00000
2 102 114 1.00000 0.00000 0.00000
2 103 105 1.00000 0.00000 0.00000
2 103 108 1.00000 0.00000 0.00000
2 103 115 1.00000 0.00000 0.00000
2 104 114 1.00000 0.00000 0.00000
2 104 116 1.00000 0.00000 0.00000
2 105 115 1.00000 0.00000 0.00000
2 105 117 1.00000 0.00000 0.00000
2 106 112 1.00000 0.00000 0.00000
2 106 118 1.00000 0.00000 0.00000
2 107 113 1.00000 0.00000 0.00000
2 107 119 1.00000 0.00000 0.00000
1 0 1.00000 1.00000 0.00000
1 1 1.00000 1.00000 0.00000
1 2 1.00000 1.00000 0.00000
1 3 1.00000 1.00000 0.00000
1 4 1.00000 1.00000 0.00000
1 5 1.00000 1.00000 0.00000
1 6 1.00000 1.00000 0.00000
1 7 1.00000 1.00000 0.00000
1 8 1.00000 1.00000 0.00000
1 9 1.00000 1.00000 0.00000
1 10 1.00000 1.00000 0.00000
1 11 1.00000 1.00000 0.00000
1 12 1.00000 1.00000 0.00000
1 13 1.00000 1.00000 0.00000
1 14 1.00000 1.00000 0.00000
1 15 1.00000 1.00000 0.00000
1 16 1.00000 1.00000 0.00000
1 17 1.00000 1.00000 0.00000
1 18 1.00000 1.00000 0.00000
1 19 1.00000 1.00000 0.00000
1 20 1.00000 1.00000 0.00000
1 21 1.00000 1.00000 0.00000
1 22 1.00000 1.00000 0.00000
1 23 1.00000 1.00000 0.00000
1 24 1.00000 1.00000 0.00000
1 25 1.00000 1.00000 0.00000
1 26 1.00000 1.00000 0.00000
1 27 1.00000 1.00000 0.00000
1 28 1.00000 1.00000 0.00000
1 29 1.00000 1.00000 0.00000
1 30 1.00000 1.00000 0.00000
1 31 1.00000 1.00000 0.00000
1 32 1.00000 1.00000 0.00000
1 33 1.00000 1.00000 0.00000
1 34 1.00000 1.00000 0.00000
1 35 1.00000 1.00000 0.00000
1 36 1.00000 1.00000 0.00000
1 37 1.00000 1.00000 0.00000
1 38 1.00000 1.00000 0.00000
1 39 1.00000 1.00000 0.00000
1 40 1.00000 1.00000 0.00000
1 41 1.00000 1.00000 0.00000
1 42 1.00000 1.00000 0.00000
1 43 1.00000 1.00000 0.00000
1 44 1.00000 1.00000 0.00000
1 45 1.00000 1.00000 0.00000
1 46 1.00000 1.00000 0.00000
1 47 1.00000 1.00000 0.00000
1 48 1.00000 1.00000 0.00000
1 49 1.00000 1.00000 0.00000
1 50 1.00000 1.00000 0.00000
1 51 1.00000 1.00000 0.00000
1 52 1.00000 1.00000 0.00000
1 53 1.00000 1.00000 0.00000
1 54 1.00000 1.00000 0.00000
1 55 1.00000 1.00000 0.00000
1 56 1.00000 1.00000 0.00000
1 57 1.00000 1.00000 0.00000
1 58 1.00000 1.00000 0.00000
1 59 1.00000 1.00000 0.00000
1 60 1.00000 0.00000 0.00000
1 61 1.00000 0.00000 0.00000
1 62 1.00000 0.00000 0.00000
1 63 1.00000 0.00000 0.00000
1 64 1.00000 0.00000 0.00000
1 65 1.00000 0.00000 0.00000
1 66 1.00000 0.00000 0.00000
1 67 1.00000 0.00000 0.00000
1 68 1.00000 0.00000 0.00000
1 69 1.00000 0.00000 0.00000
1 70 1.00000 0.00000 0.00000
1 71 1.00000 0.00000 0.00000
1 72 1.00000 0.00000 0.00000
1 73 1.00000 0.00000 0.00000
1 74 1.00000 0.00000 0.00000
1 75 1.00000 0.00000 0.00000
1 76 1.00000 0.00000 0.00000
1 77 1.00000 0.00000 0.00000
1 78 1.00000 0.00000 0.00000
1 79 1.00000 0.00000 0.00000
1 80 1.00000 0.00000 0.00000
1 81 1.00000 0.00000 0.00000
1 82 1.00000 0.00000 0.00000
1 83 1.00000 0.00000 0.00000
1 84 1.00000 0.00000 0.00000
1 85 1.00000 0.00000 0.00000
1 86 1.00000 0.00000 0.00000
1 87 1.00000 0.00000 0.00000
1 88 1.00000 0.00000 0.00000
1 89 1.00000 0.00000 0.00000
1 90 1.00000 0.00000 0.00000
1 91 1.00000 0.00000 0.00000
1 92 1.00000 0.00000 0.00000
1 93 1.00000 0.00000 0.00000
1 94 1.00000 0.00000 0.00000
1 95 1.00000 0.00000 0.00000
1 96 1.00000 0.00000 0.00000
1 97 1.00000 0.00000 0.00000
1 98 1.00000 0.00000 0.00000
1 99 1.00000 0.00000 0.00000
1 100 1.00000 0.00000 0.00000
1 101 1.00000 0.00000 0.00000
1 102 1.00000 0.00000 0.00000
1 103 1.00000 0.00000 0.00000
1 104 1.00000 0.00000 0.00000
1 105 1.00000 0.00000 0.00000
1 106 1.00000 0.00000 0.00000
1 107 1.00000 0.00000 0.00000
1 108 1.00000 0.00000 0.00000
1 109 1.00000 0.00000 0.00000
1 110 1.00000 0.00000 0.00000
1 111 1.00000 0.00000 0.00000
1 112 1.00000 0.00000 0.00000
1 113 1.00000 0.00000 0.00000
1 114 1.00000 0.00000 0.00000
1 115 1.00000 0.00000 0.00000
1 116 1.00000 0.00000 0.00000
1 117 1.00000 0.00000 0.00000
1 118 1.00000 0.00000 0.00000
1 119 1.00000 0.00000 0.00000
