OFF
120 588 0
-0.15891392897577941 -0.68940122239760904 0.47407421695076302
-0.15891392897577941 0.68940122239760904 -0.47407421695076302
0.15891392897577941 -0.68940122239760904 -0.47407421695076313
0.15891392897577941 0.68940122239760904 0.47407421695076313
0.47407421695076307 -0.15891392897577941 -0.68940122239760904
0.47407421695076307 0.15891392897577941 0.68940122239760904
-0.47407421695076307 -0.15891392897577941 0.68940122239760904
-0.47407421695076307 0.15891392897577941 -0.68940122239760904
-0.68940122239760904 0.47407421695076307 -0.15891392897577941
-0.68940122239760904 -0.47407421695076307 0.15891392897577936
0.68940122239760904 0.47407421695076307 0.15891392897577947
0.68940122239760904 -0.47407421695076307 -0.15891392897577941
0.091040439956549549 -0.8438815180343191 -0.069639552381724062
0.091040439956549549 0.8438815180343191 0.069639552381724076
-0.091040439956549549 -0.8438815180343191 0.069639552381723965
-0.091040439956549549 0.8438815180343191 -0.069639552381723979
-0.069639552381724021 0.091040439956549549 -0.8438815180343191
-0.069639552381724021 -0.091040439956549549 0.8438815180343191
0.069639552381724021 0.091040439956549549 0.8438815180343191
0.069639552381724021 -0.091040439956549549 -0.8438815180343191
-0.8438815180343191 -0.069639552381724021 0.091040439956549493
-0.8438815180343191 0.069639552381724021 -0.09104043995654959
0.8438815180343191 -0.069639552381724021 -0.091040439956549507
0.8438815180343191 0.069639552381724021 0.091040439956549604
-0.27159309169073759 -0.619761670015885 -0.51711382728399713
-0.27159309169073759 0.619761670015885 0.51711382728399713
0.27159309169073759 -0.619761670015885 0.51711382728399713
0.27159309169073759 0.619761670015885 -0.51711382728399713
-0.51711382728399713 -0.27159309169073759 -0.619761670015885
-0.51711382728399713 0.27159309169073759 0.619761670015885
0.51711382728399713 -0.27159309169073759 0.619761670015885
0.51711382728399713 0.27159309169073759 -0.619761670015885
-0.619761670015885 -0.51711382728399713 -0.27159309169073764
-0.619761670015885 0.51711382728399713 0.27159309169073759
0.619761670015885 -0.51711382728399713 0.27159309169073759
0.619761670015885 0.51711382728399713 -0.27159309169073753
-0.74566730864150066 -0.32676769075032192 -0.24995436893232909
-0.74566730864150066 0.32676769075032192 0.249954368932329
0.74566730864150066 -0.32676769075032192 0.24995436893232906
0.74566730864150066 0.32676769075032192 -0.24995436893232897
-0.24995436893232903 -0.74566730864150066 -0.32676769075032197
-0.24995436893232903 0.74566730864150066 0.32676769075032192
0.24995436893232903 -0.74566730864150066 0.32676769075032192
0.24995436893232903 0.74566730864150066 -0.32676769075032186
-0.32676769075032192 -0.24995436893232903 -0.74566730864150066
-0.32676769075032192 0.24995436893232903 0.74566730864150066
0.32676769075032192 -0.24995436893232903 0.74566730864150066
0.32676769075032192 0.24995436893232903 -0.74566730864150066
-0.67602775625977662 -0.36980730108355603 0.36263353164728707
-0.67602775625977662 0.36980730108355603 -0.36263353164728712
0.67602775625977662 -0.36980730108355603 -0.36263353164728712
0.67602775625977662 0.36980730108355603 0.36263353164728718
0.36263353164728712 -0.67602775625977662 -0.36980730108355603
0.36263353164728712 0.67602775625977662 0.36980730108355608
-0.36263353164728712 -0.67602775625977662 0.36980730108355597
-0.36263353164728712 0.67602775625977662 -0.36980730108355603
-0.36980730108355603 0.36263353164728712 -0.67602775625977662
-0.36980730108355603 -0.36263353164728712 0.67602775625977662
0.36980730108355603 0.36263353164728712 0.67602775625977662
0.36980730108355603 -0.36263353164728712 -0.67602775625977662
-0.15891392897577949 -0.68940122239760904 -0.47407421695076302
-0.15891392897577933 0.68940122239760904 0.47407421695076302
0.15891392897577933 -0.68940122239760904 0.47407421695076313
0.15891392897577949 0.68940122239760904 -0.47407421695076313
0.47407421695076307 -0.15891392897577947 0.68940122239760904
0.47407421695076307 0.15891392897577936 -0.68940122239760904
-0.47407421695076307 -0.15891392897577936 -0.68940122239760904
-0.47407421695076307 0.15891392897577947 0.68940122239760904
-0.68940122239760893 0.47407421695076318 0.15891392897577941
-0.68940122239760915 -0.47407421695076296 -0.15891392897577936
0.68940122239760915 0.47407421695076296 -0.15891392897577947
0.68940122239760893 -0.47407421695076318 0.15891392897577941
0.091040439956549452 -0.8438815180343191 0.069639552381724062
0.091040439956549646 0.8438815180343191 -0.069639552381724076
-0.091040439956549646 -0.8438815180343191 -0.069639552381723965
-0.091040439956549452 0.8438815180343191 0.069639552381723979
-0.069639552381724007 0.091040439956549563 0.8438815180343191
-0.069639552381724035 -0.091040439956549535 -0.8438815180343191
0.069639552381724035 0.091040439956549535 -0.8438815180343191
0.069639552381724007 -0.091040439956549563 0.8438815180343191
-0.8438815180343191 -0.069639552381723924 -0.091040439956549493
-0.8438815180343191 0.069639552381724118 0.09104043995654959
0.8438815180343191 -0.069639552381724118 0.091040439956549507
0.8438815180343191 0.069639552381723924 -0.091040439956549604
-0.27159309169073764 -0.619761670015885 0.51711382728399713
-0.27159309169073753 0.619761670015885 -0.51711382728399713
0.27159309169073753 -0.619761670015885 -0.51711382728399713
0.27159309169073764 0.619761670015885 0.51711382728399713
-0.51711382728399713 -0.27159309169073753 0.619761670015885
-0.51711382728399713 0.27159309169073764 -0.619761670015885
0.51711382728399713 -0.27159309169073764 -0.619761670015885
0.51711382728399713 0.27159309169073753 0.619761670015885
-0.61976167001588511 -0.51711382728399702 0.27159309169073764
-0.61976167001588489 0.51711382728399724 -0.27159309169073759
0.61976167001588489 -0.51711382728399724 -0.27159309169073759
0.61976167001588511 0.51711382728399702 0.27159309169073753
-0.74566730864150066 -0.3267676907503218 0.24995436893232909
-0.74566730864150066 0.32676769075032203 -0.249954368932329
0.74566730864150066 -0.32676769075032203 -0.24995436893232906
0.74566730864150066 0.3267676907503218 0.24995436893232897
-0.24995436893232911 -0.74566730864150066 0.32676769075032197
-0.24995436893232895 0.74566730864150066 -0.32676769075032192
0.24995436893232895 -0.74566730864150066 -0.32676769075032192
0.24995436893232911 0.74566730864150066 0.32676769075032186
-0.32676769075032197 -0.249954368932329 0.74566730864150066
-0.32676769075032186 0.24995436893232906 -0.74566730864150066
0.32676769075032186 -0.24995436893232906 -0.74566730864150066
0.32676769075032197 0.249954368932329 0.74566730864150066
-0.67602775625977662 -0.36980730108355597 -0.36263353164728707
-0.67602775625977662 0.36980730108355608 0.36263353164728712
0.67602775625977662 -0.36980730108355608 0.36263353164728712
0.67602775625977662 0.36980730108355597 -0.36263353164728718
0.36263353164728707 -0.67602775625977662 0.36980730108355603
0.36263353164728718 0.67602775625977662 -0.36980730108355608
-0.36263353164728718 -0.67602775625977662 -0.36980730108355597
-0.36263353164728707 0.67602775625977662 0.36980730108355603
-0.36980730108355597 0.36263353164728718 0.67602775625977662
-0.36980730108355608 -0.36263353164728707 -0.67602775625977662
0.36980730108355608 0.36263353164728707 -0.67602775625977662
0.36980730108355597 -0.36263353164728718 0.67602775625977662
3 0 20 24 1.00000 1.00000 0.00000
3 0 36 2 1.00000 1.00000 0.00000
3 2 22 26 1.00000 1.00000 0.00000
3 3 1 37 1.00000 1.00000 0.00000
3 3 39 1 1.00000 1.00000 0.00000
3 5 13 29 1.00000 1.00000 0.00000
3 6 5 41 1.00000 1.00000 0.00000
3 6 42 5 1.00000 1.00000 0.00000
3 10 18 34 1.00000 1.00000 0.00000
3 11 10 46 1.00000 1.00000 0.00000
3 11 47 10 1.00000 1.00000 0.00000
3 12 28 4 1.00000 1.00000 0.00000
3 14 30 6 1.00000 1.00000 0.00000
3 14 50 30 1.00000 1.00000 0.00000
3 16 32 8 1.00000 1.00000 0.00000
3 16 52 32 1.00000 1.00000 0.00000
3 19 49 43 1.00000 1.00000 0.00000
3 20 55 44 1.00000 1.00000 0.00000
3 20 56 24 1.00000 1.00000 0.00000
3 22 53 46 1.00000 1.00000 0.00000
3 22 58 26 1.00000 1.00000 0.00000
3 23 52 47 1.00000 1.00000 0.00000
3 24 42 48 1.00000 1.00000 0.00000
3 25 1 21 1.00000 1.00000 0.00000
3 26 40 50 1.00000 1.00000 0.00000
3 27 3 23 1.00000 1.00000 0.00000
3 27 41 51 1.00000 1.00000 0.00000
3 30 45 54 1.00000 1.00000 0.00000
3 31 7 15 1.00000 1.00000 0.00000
3 33 9 17 1.00000 1.00000 0.00000
3 33 17 53 1.00000 1.00000 0.00000
3 35 11 19 1.00000 1.00000 0.00000
3 35 19 55 1.00000 1.00000 0.00000
3 36 12 57 1.00000 1.00000 0.00000
3 36 57 33 1.00000 1.00000 0.00000
3 38 0 2 1.00000 1.00000 0.00000
3 38 14 59 1.00000 1.00000 0.00000
3 38 59 35 1.00000 1.00000 0.00000
3 40 7 4 1.00000 1.00000 0.00000
3 41 17 51 1.00000 1.00000 0.00000
3 42 18 48 1.00000 1.00000 0.00000
3 43 4 7 1.00000 1.00000 0.00000
3 44 9 8 1.00000 1.00000 0.00000
3 45 8 9 1.00000 1.00000 0.00000
3 45 21 54 1.00000 1.00000 0.00000
3 48 28 12 1.00000 1.00000 0.00000
3 49 25 43 1.00000 1.00000 0.00000
3 49 29 13 1.00000 1.00000 0.00000
3 50 40 16 1.00000 1.00000 0.00000
3 51 31 15 1.00000 1.00000 0.00000
3 52 28 47 1.00000 1.00000 0.00000
3 53 29 46 1.00000 1.00000 0.00000
3 54 34 18 1.00000 1.00000 0.00000
3 55 31 44 1.00000 1.00000 0.00000
3 56 32 37 1.00000 1.00000 0.00000
3 56 37 13 1.00000 1.00000 0.00000
3 57 25 21 1.00000 1.00000 0.00000
3 58 34 39 1.00000 1.00000 0.00000
3 58 39 15 1.00000 1.00000 0.00000
3 59 27 23 1.00000 1.00000 0.00000
5 0 24 48 12 36 1.00000 1.00000 0.00000
5 2 36 33 53 22 1.00000 1.00000 0.00000
5 11 46 29 49 19 1.00000 1.00000 0.00000
5 12 4 43 25 57 1.00000 1.00000 0.00000
5 14 6 41 27 59 1.00000 1.00000 0.00000
5 19 43 7 31 55 1.00000 1.00000 0.00000
5 20 44 8 32 56 1.00000 1.00000 0.00000
5 22 46 10 34 58 1.00000 1.00000 0.00000
5 23 3 37 32 52 1.00000 1.00000 0.00000
5 24 56 13 5 42 1.00000 1.00000 0.00000
5 26 58 15 7 40 1.00000 1.00000 0.00000
5 27 51 15 39 3 1.00000 1.00000 0.00000
5 30 54 18 42 6 1.00000 1.00000 0.00000
5 35 55 20 0 38 1.00000 1.00000 0.00000
5 38 2 26 50 14 1.00000 1.00000 0.00000
5 40 4 28 52 16 1.00000 1.00000 0.00000
5 44 31 51 17 9 1.00000 1.00000 0.00000
5 48 18 10 47 28 1.00000 1.00000 0.00000
5 49 13 37 1 25 1.00000 1.00000 0.00000
5 50 16 8 45 30 1.00000 1.00000 0.00000
5 53 17 41 5 29 1.00000 1.00000 0.00000
5 54 21 1 39 34 1.00000 1.00000 0.00000
5 57 21 45 9 33 1.00000 1.00000 0.00000
5 59 23 47 11 35 1.00000 1.00000 0.00000
3 60 80 84 1.00000 0.00000 0.00000
3 60 96 62 1.00000 0.00000 0.00000
3 62 82 86 1.00000 0.00000 0.00000
3 63 61 97 1.00000 0.00000 0.00000
3 63 99 61 1.00000 0.00000 0.00000
3 65 73 89 1.00000 0.00000 0.00000
3 66 65 101 1.00000 0.00000 0.00000
3 66 102 65 1.00000 0.00000 0.00000
3 70 78 94 1.00000 0.00000 0.00000
3 71 70 106 1.00000 0.00000 0.00000
3 71 107 70 1.00000 0.00000 0.00000
3 72 88 64 1.00000 0.00000 0.00000
3 74 90 66 1.00000 0.00000 0.00000
3 74 110 90 1.00000 0.00000 0.00000
3 76 92 68 1.00000 0.00000 0.00000
3 76 112 92 1.00000 0.00000 0.00000
3 79 109 103 1.00000 0.00000 0.00000
3 80 115 104 1.00000 0.00000 0.00000
3 80 116 84 1.00000 0.00000 0.00000
3 82 113 106 1.00000 0.00000 0.00000
3 82 118 86 1.00000 0.00000 0.00000
3 83 112 107 1.00000 0.00000 0.00000
3 84 102 108 1.00000 0.00000 0.00000
3 85 61 81 1.00000 0.00000 0.00000
3 86 100 110 1.00000 0.00000 0.00000
3 87 63 83 1.00000 0.00000 0.00000
3 87 101 111 1.00000 0.00000 0.00000
3 90 105 114 1.00000 0.00000 0.00000
3 91 67 75 1.00000 0.00000 0.00000
3 93 69 77 1.00000 0.00000 0.00000
3 93 77 113 1.00000 0.00000 0.00000
3 95 71 79 1.00000 0.00000 0.00000
3 95 79 115 1.00000 0.00000 0.00000
3 96 72 117 1.00000 0.00000 0.00000
3 96 117 93 1.00000 0.00000 0.00000
3 98 60 62 1.00000 0.00000 0.00000
3 98 74 119 1.00000 0.00000 0.00000
3 98 119 95 1.00000 0.00000 0.00000
3 100 67 64 1.00000 0.00000 0.00000
3 101 77 111 1.00000 0.00000 0.00000
3 102 78 108 1.00000 0.00000 0.00000
3 103 64 67 1.00000 0.00000 0.00000
3 104 69 68 1.00000 0.00000 0.00000
3 105 68 69 1.00000 0.00000 0.00000
3 105 81 114 1.00000 0.00000 0.00000
3 108 88 72 1.00000 0.00000 0.00000
3 109 85 103 1.00000 0.00000 0.00000
3 109 89 73 1.00000 0.00000 0.00000
3 110 100 76 1.00000 0.00000 0.00000
3 111 91 75 1.00000 0.00000 0.00000
3 112 88 107 1.00000 0.00000 0.00000
3 113 89 106 1.00000 0.00000 0.00000
3 114 94 78 1.00000 0.00000 0.00000
3 115 91 104 1.00000 0.00000 0.00000
3 116 92 97 1.00000 0.00000 0.00000
3 116 97 73 1.00000 0.00000 0.00000
3 117 85 81 1.00000 0.00000 0.00000
3 118 94 99 1.00000 0.00000 0.00000
3 118 99 75 1.00000 0.00000 0.00000
3 119 87 83 1.00000 0.00000 0.00000
5 60 84 108 72 96 1.00000 0.00000 0.00000
5 62 96 93 113 82 1.00000 0.00000 0.00000
5 71 106 89 109 79 1.00000 0.00000 0.00000
5 72 64 103 85 117 1.00000 0.00000 0.00000
5 74 66 101 87 119 1.00000 0.00000 0.00000
5 79 103 67 91 115 1.00000 0.00000 0.00000
5 80 104 68 92 116 1.00000 0.00000 0.00000
5 82 106 70 94 118 1.00000 0.00000 0.00000
5 83 63 97 92 112 1.00000 0.00000 0.00000
5 84 116 73 65 102 1.00000 0.00000 0.00000
5 86 118 75 67 100 1.00000 0.00000 0.00000
5 87 111 75 99 63 1.00000 0.00000 0.00000
5 90 114 78 102 66 1.00000 0.00000 0.00000
5 95 115 80 60 98 1.00000 0.00000 0.00000
5 98 62 86 110 74 1.00000 0.00000 0.00000
5 100 64 88 112 76 1.00000 0.00000 0.00000
5 104 91 111 77 69 1.00000 0.00000 0.00000
5 108 78 70 107 88 1.00000 0.00000 0.00000
5 109 73 97 61 85 1.00000 0.00000 0.00000
5 110 76 68 105 90 1.00000 0.00000 0.00000
5 113 77 101 65 89 1.00000 0.00000 0.00000
5 114 81 61 99 94 1.00000 0.00000 0.00000
5 117 81 105 69 93 1.00000 0.00000 0.00000
5 119 83 107 71 95 1.00000 0.00000 0.00000
2 0 2 1.00000 1.00000 0.00000
2 0 20 1.00000 1.00000 0.00000
2 0 24 1.00000 1.00000 0.00000
2 0 36 1.00000 1.00000 0.00000
2 0 38 1.00000 1.00000 0.00000
2 1 3 1.00000 1.00000 0.00000
2 1 21 1.00000 1.00000 0.00000
2 1 25 1.00000 1.00000 0.00000
2 1 37 1.00000 1.00000 0.00000
2 1 39 1.00000 1.00000 0.00000
2 2 22 1.00000 1.00000 0.00000
2 2 26 1.00000 1.00000 0.00000
2 2 36 1.00000 1.00000 0.00000
2 2 38 1.00000 1.00000 0.00000
2 3 23 1.00000 1.00000 0.00000
2 3 27 1.00000 1.00000 0.00000
2 3 37 1.00000 1.00000 0.00000
2 3 39 1.00000 1.00000 0.00000
2 4 7 1.00000 1.00000 0.00000
2 4 12 1.00000 1.00000 0.00000
2 4 28 1.00000 1.00000 0.00000
2 4 40 1.00000 1.00000 0.00000
2 4 43 1.00000 1.00000 0.00000
2 5 6 1.00000 1.00000 0.00000
2 5 13 1.00000 1.00000 0.00000
2 5 29 1.00000 1.00000 0.00000
2 5 41 1.00000 1.00000 0.00000
2 5 42 1.00000 1.00000 0.00000
2 6 14 1.00000 1.00000 0.00000
2 6 30 1.00000 1.00000 0.00000
2 6 41 1.00000 1.00000 0.00000
2 6 42 1.00000 1.00000 0.00000
2 7 15 1.00000 1.00000 0.00000
2 7 31 1.00000 1.00000 0.00000
2 7 40 1.00000 1.00000 0.00000
2 7 43 1.00000 1.00000 0.00000
2 8 9 1.00000 1.00000 0.00000
2 8 16 1.00000 1.00000 0.00000
2 8 32 1.00000 1.00000 0.00000
2 8 44 1.00000 1.00000 0.00000
2 8 45 1.00000 1.00000 0.00000
2 9 17 1.00000 1.00000 0.00000
2 9 33 1.00000 1.00000 0.00000
2 9 44 1.00000 1.00000 0.00000
2 9 45 1.00000 1.00000 0.00000
2 10 11 1.00000 1.00000 0.00000
2 10 18 1.00000 1.00000 0.00000
2 10 34 1.00000 1.00000 0.00000
2 10 46 1.00000 1.00000 0.00000
2 10 47 1.00000 1.00000 0.00000
2 11 19 1.00000 1.00000 0.00000
2 11 35 1.00000 1.00000 0.00000
2 11 46 1.00000 1.00000 0.00000
2 11 47 1.00000 1.00000 0.00000
2 12 28 1.00000 1.00000 0.00000
2 12 36 1.00000 1.00000 0.00000
2 12 48 1.00000 1.00000 0.00000
2 12 57 1.00000 1.00000 0.00000
2 13 29 1.00000 1.00000 0.00000
2 13 37 1.00000 1.00000 0.00000
2 13 49 1.00000 1.00000 0.00000
2 13 56 1.00000 1.00000 0.00000
2 14 30 1.00000 1.00000 0.00000
2 14 38 1.00000 1.00000 0.00000
2 14 50 1.00000 1.00000 0.00000
2 14 59 1.00000 1.00000 0.00000
2 15 31 1.00000 1.00000 0.00000
2 15 39 1.00000 1.00000 0.00000
2 15 51 1.00000 1.00000 0.00000
2 15 58 1.00000 1.00000 0.00000
2 16 32 1.00000 1.00000 0.00000
2 16 40 1.00000 1.00000 0.00000
2 16 50 1.00000 1.00000 0.00000
2 16 52 1.00000 1.00000 0.00000
2 17 33 1.00000 1.00000 0.00000
2 17 41 1.00000 1.00000 0.00000
2 17 51 1.00000 1.00000 0.00000
2 17 53 1.00000 1.00000 0.00000
2 18 34 1.00000 1.00000 0.00000
2 18 42 1.00000 1.00000 0.00000
2 18 48 1.00000 1.00000 0.00000
2 18 54 1.00000 1.00000 0.00000
2 19 35 1.00000 1.00000 0.00000
2 19 43 1.00000 1.00000 0.00000
2 19 49 1.00000 1.00000 0.00000
2 19 55 1.00000 1.00000 0.00000
2 20 24 1.00000 1.00000 0.00000
2 20 44 1.00000 1.00000 0.00000
2 20 55 1.00000 1.00000 0.00000
2 20 56 1.00000 1.00000 0.00000
2 21 25 1.00000 1.00000 0.00000
2 21 45 1.00000 1.00000 0.00000
2 21 54 1.00000 1.00000 0.00000
2 21 57 1.00000 1.00000 0.00000
2 22 26 1.00000 1.00000 0.00000
2 22 46 1.00000 1.00000 0.00000
2 22 53 1.00000 1.00000 0.00000
2 22 58 1.00000 1.00000 0.00000
2 23 27 1.00000 1.00000 0.00000
2 23 47 1.00000 1.00000 0.00000
2 23 52 1.00000 1.00000 0.00000
2 23 59 1.00000 1.00000 0.00000
2 24 42 1.00000 1.00000 0.00000
2 24 48 1.00000 1.00000 0.00000
2 24 56 1.00000 1.00000 0.00000
2 25 43 1.00000 1.00000 0.00000
2 25 49 1.00000 1.00000 0.00000
2 25 57 1.00000 1.00000 0.00000
2 26 40 1.00000 1.00000 0.00000
2 26 50 1.00000 1.00000 0.00000
2 26 58 1.00000 1.00000 0.00000
2 27 41 1.00000 1.00000 0.00000
2 27 51 1.00000 1.00000 0.00000
2 27 59 1.00000 1.00000 0.00000
2 28 47 1.00000 1.00000 0.00000
2 28 48 1.00000 1.00000 0.00000
2 28 52 1.00000 1.00000 0.00000
2 29 46 1.00000 1.00000 0.00000
2 29 49 1.00000 1.00000 0.00000
2 29 53 1.00000 1.00000 0.00000
2 30 45 1.00000 1.00000 0.00000
2 30 50 1.00000 1.00000 0.00000
2 30 54 1.00000 1.00000 0.00000
2 31 44 1.00000 1.00000 0.00000
2 31 51 1.00000 1.00000 0.00000
2 31 55 1.00000 1.00000 0.00000
2 32 37 1.00000 1.00000 0.00000
2 32 52 1.00000 1.00000 0.00000
2 32 56 1.00000 1.00000 0.00000
2 33 36 1.00000 1.00000 0.00000
2 33 53 1.00000 1.00000 0.00000
2 33 57 1.00000 1.00000 0.00000
2 34 39 1.00000 1.00000 0.00000
2 34 54 1.00000 1.00000 0.00000
2 34 58 1.00000 1.00000 0.00000
2 35 38 1.00000 1.00000 0.00000
2 35 55 1.00000 1.00000 0.00000
2 35 59 1.00000 1.00000 0.00000
2 36 57 1.00000 1.00000 0.00000
2 37 56 1.00000 1.00000 0.00000
2 38 59 1.00000 1.00000 0.00000
2 39 58 1.00000 1.00000 0.00000
2 40 50 1.00000 1.00000 0.00000
2 41 51 1.00000 1.00000 0.00000
2 42 48 1.00000 1.00000 0.00000
2 43 49 1.00000 1.00000 0.00000
2 44 55 1.00000 1.00000 0.00000
2 45 54 1.00000 1.00000 0.00000
2 46 53 1.00000 1.00000 0.00000
2 47 52 1.00000 1.00000 0.00000
2 60 62 1.00000 0.00000 0.00000
2 60 80 1.00000 0.00000 0.00000
2 60 84 1.00000 0.00000 0.00000
2 60 96 1.00000 0.00000 0.00000
2 60 98 1.00000 0.00000 0.00000
2 61 63 1.00000 0.00000 0.00000
2 61 81 1.00000 0.00000 0.00000
2 61 85 1.00000 0.00000 0.00000
2 61 97 1.00000 0.00000 0.00000
2 61 99 1.00000 0.00000 0.00000
2 62 82 1.00000 0.00000 0.00000
2 62 86 1.00000 0.00000 0.00000
2 62 96 1.00000 0.00000 0.00000
2 62 98 1.00000 0.00000 0.00000
2 63 83 1.00000 0.00000 0.00000
2 63 87 1.00000 0.00000 0.00000
2 63 97 1.00000 0.00000 0.00000
2 63 99 1.00000 0.00000 0.00000
2 64 67 1.00000 0.00000 0.00000
2 64 72 1.00000 0.00000 0.00000
2 64 88 1.00000 0.00000 0.00000
2 64 100 1.00000 0.00000 0.00000
2 64 103 1.00000 0.00000 0.00000
2 65 66 1.00000 0.00000 0.00000
2 65 73 1.00000 0.00000 0.00000
2 65 89 1.00000 0.00000 0.00000
2 65 101 1.00000 0.00000 0.00000
2 65 102 1.00000 0.00000 0.00000
2 66 74 1.00000 0.00000 0.00000
2 66 90 1.00000 0.00000 0.00000
2 66 101 1.00000 0.00000 0.00000
2 66 102 1.00000 0.00000 0.00000
2 67 75 1.00000 0.00000 0.00000
2 67 91 1.00000 0.00000 0.00000
2 67 100 1.00000 0.00000 0.00000
2 67 103 1.00000 0.00000 0.00000
2 68 69 1.00000 0.00000 0.00000
2 68 76 1.00000 0.00000 0.00000
2 68 92 1.00000 0.00000 0.00000
2 68 104 1.00000 0.00000 0.00000
2 68 105 1.00000 0.00000 0.00000
2 69 77 1.00000 0.00000 0.00000
2 69 93 1.00000 0.00000 0.00000
2 69 104 1.00000 0.00000 0.00000
2 69 105 1.00000 0.00000 0.00000
2 70 71 1.00000 0.00000 0.00000
2 70 78 1.00000 0.00000 0.00000
2 70 94 1.00000 0.00000 0.00000
2 70 106 1.00000 0.00000 0.00000
2 70 107 1.00000 0.00000 0.00000
2 71 79 1.00000 0.00000 0.00000
2 71 95 1.00000 0.00000 0.00000
2 71 106 1.00000 0.00000 0.00000
2 71 107 1.00000 0.00000 0.00000
2 72 88 1.00000 0.00000 0.00000
2 72 96 1.00000 0.00000 0.00000
2 72 108 1.00000 0.00000 0.00000
2 72 117 1.00000 0.00000 0.00000
2 73 89 1.00000 0.00000 0.00000
2 73 97 1.00000 0.00000 0.00000
2 73 109 1.00000 0.00000 0.00000
2 73 116 1.00000 0.00000 0.00000
2 74 90 1.00000 0.00000 0.00000
2 74 98 1.00000 0.00000 0.00000
2 74 110 1.00000 0.00000 0.00000
2 74 119 1.00000 0.00000 0.00000
2 75 91 1.00000 0.00000 0.00000
2 75 99 1.00000 0.00000 0.00000
2 75 111 1.00000 0.00000 0.00000
2 75 118 1.00000 0.00000 0.00000
2 76 92 1.00000 0.00000 0.00000
2 76 100 1.00000 0.00000 0.00000
2 76 110 1.00000 0.00000 0.00000
2 76 112 1.00000 0.00000 0.00000
2 77 93 1.00000 0.00000 0.00000
2 77 101 1.00000 0.00000 0.00000
2 77 111 1.00000 0.00000 0.00000
2 77 113 1.00000 0.00000 0.00000
2 78 94 1.00000 0.00000 0.00000
2 78 102 1.00000 0.00000 0.00000
2 78 108 1.00000 0.00000 0.00000
2 78 114 1.00000 0.00000 0.00000
2 79 95 1.00000 0.00000 0.00000
2 79 103 1.00000 0.00000 0.00000
2 79 109 1.00000 0.00000 0.00000
2 79 115 1.00000 0.00000 0.00000
2 80 84 1.00000 0.00000 0.00000
2 80 104 1.00000 0.00000 0.00000
2 80 115 1.00000 0.00000 0.00000
2 80 116 1.00000 0.00000 0.00000
2 81 85 1.00000 0.00000 0.00000
2 81 105 1.00000 0.00000 0.00000
2 81 114 1.00000 0.00000 0.00000
2 81 117 1.00000 0.00000 0.00000
2 82 86 1.00000 0.00000 0.00000
2 82 106 1.00000 0.00000 0.00000
2 82 113 1.00000 0.00000 0.00000
2 82 118 1.00000 0.00000 0.00000
2 83 87 1.00000 0.00000 0.00000
2 83 107 1.00000 0.00000 0.00000
2 83 112 1.00000 0.00000 0.00000
2 83 119 1.00000 0.00000 0.00000
2 84 102 1.00000 0.00000 0.00000
2 84 108 1.00000 0.00000 0.00000
2 84 116 1.00000 0.00000 0.00000
2 85 103 1.00000 0.00000 0.00000
2 85 109 1.00000 0.00000 0.00000
2 85 117 1.00000 0.00000 0.00000
2 86 100 1.00000 0.00000 0.00000
2 86 110 1.00000 0.00000 0.00000
2 86 118 1.00000 0.00000 0.00000
2 87 101 1.00000 0.00000 0.00000
2 87 111 1.00000 0.00000 0.00000
2 87 119 1.00000 0.00000 0.00000
2 88 107 1.00000 0.00000 0.00000
2 88 108 1.00000 0.00000 0.00000
2 88 112 1.00000 0.00000 0.00000
2 89 106 1.00000 0.00000 0.00000
2 89 109 1.00000 0.00000 0.00000
2 89 113 1.00000 0.00000 0.00000
2 90 105 1.00000 0.00000 0.00000
2 90 110 1.00000 0.00000 0.00000
2 90 114 1.00000 0.00000 0.00000
2 91 104 1.00000 0.00000 0.00000
2 91 111 1.00000 0.00000 0.00000
2 91 115 1.00000 0.00000 0.00000
2 92 97 1.00000 0.00000 0.00000
2 92 112 1.00000 0.00000 0.00000
2 92 116 1.00000 0.00000 0.00000
2 93 96 1.00000 0.00000 0.00000
2 93 113 1.00000 0.00000 0.00000
2 93 117 1.00000 0.00000 0.00000
2 94 99 1.00000 0.00000 0.00000
2 94 114 1.00000 0.00000 0.00000
2 94 118 1.00000 0.00000 0.00000
2 95 98 1.00000 0.00000 0.00000
2 95 115 1.00000 0.00000 0.00000
2 95 119 1.00000 0.00000 0.00000
2 96 117 1.00000 0.00000 0.00000
2 97 116 1.00000 0.00000 0.00000
2 98 119 1.00000 0.00000 0.00000
2 99 118 1.00000 0.00000 0.00000
2 100 110 1.00000 0.00000 0.00000
2 101 111 1.00000 0.00000 0.00000
2 102 108 1.00000 0.00000 0.00000
2 103 109 1.00000 0.00000 0.00000
2 104 115 1.00000 0.00000 0.00000
2 105 114 1.00000 0.00000 0.00000
2 106 113 1.00000 0.00000 0.00000
2 107 112 1.00000 0.00000 0.00000
1 0 1.00000 1.00000 0.00000
1 1 1.00000 1.00000 0.00000
1 2 1.00000 1.00000 0.00000
1 3 1.00000 1.00000 0.00000
1 4 1.00000 1.00000 0.00000
1 5 1.00000 1.00000 0.00000
1 6 1.00000 1.00000 0.00000
1 7 1.00000 1.00000 0.00000
1 8 1.00000 1.00000 0.00000
1 9 1.00000 1.00000 0.00000
1 10 1.00000 1.00000 0.00000
1 11 1.00000 1.00000 0.00000
1 12 1.00000 1.00000 0.00000
1 13 1.00000 1.00000 0.00000
1 14 1.00000 1.00000 0.00000
1 15 1.00000 1.00000 0.00000
1 16 1.00000 1.00000 0.00000
1 17 1.00000 1.00000 0.00000
1 18 1.00000 1.00000 0.00000
1 19 1.00000 1.00000 0.00000
1 20 1.00000 1.00000 0.00000
1 21 1.00000 1.00000 0.00000
1 22 1.00000 1.00000 0.00000
1 23 1.00000 1.00000 0.00000
1 24 1.00000 1.00000 0.00000
1 25 1.00000 1.00000 0.00000
1 26 1.00000 1.00000 0.00000
1 27 1.00000 1.00000 0.00000
1 28 1.00000 1.00000 0.00000
1 29 1.00000 1.00000 0.00000
1 30 1.00000 1.00000 0.00000
1 31 1.00000 1.00000 0.00000
1 32 1.00000 1.00000 0.00000
1 33 1.00000 1.00000 0.00000
1 34 1.00000 1.00000 0.00000
1 35 1.00000 1.00000 0.00000
1 36 1.00000 1.00000 0.00000
1 37 1.00000 1.00000 0.00000
1 38 1.00000 1.00000 0.00000
1 39 1.00000 1.00000 0.00000
1 40 1.00000 1.00000 0.00000
1 41 1.00000 1.00000 0.00000
1 42 1.00000 1.00000 0.00000
1 43 1.00000 1.00000 0.00000
1 44 1.00000 1.00000 0.00000
1 45 1.00000 1.00000 0.00000
1 46 1.00000 1.00000 0.00000
1 47 1.00000 1.00000 0.00000
1 48 1.00000 1.00000 0.00000
1 49 1.00000 1.00000 0.00000
1 50 1.00000 1.00000 0.00000
1 51 1.00000 1.00000 0.00000
1 52 1.00000 1.00000 0.00000
1 53 1.00000 1.00000 0.00000
1 54 1.00000 1.00000 0.00000
1 55 1.00000 1.00000 0.00000
1 56 1.00000 1.00000 0.00000
1 57 1.00000 1.00000 0.00000
1 58 1.00000 1.00000 0.00000
1 59 1.00000 1.00000 0.00000
1 60 1.00000 0.00000 0.00000
1 61 1.00000 0.00000 0.00000
1 62 1.00000 0.00000 0.00000
1 63 1.00000 0.00000 0.00000
1 64 1.00000 0.00000 0.00000
1 65 1.00000 0.00000 0.00000
1 66 1.00000 0.00000 0.00000
1 67 1.00000 0.00000 0.00000
1 68 1.00000 0.00000 0.00000
1 69 1.00000 0.00000 0.00000
1 70 1.00000 0.00000 0.00000
1 71 1.00000 0.00000 0.00000
1 72 1.00000 0.00000 0.00000
1 73 1.00000 0.00000 0.00000
1 74 1.00000 0.00000 0.00000
1 75 1.00000 0.00000 0.00000
1 76 1.00000 0.00000 0.00000
1 77 1.00000 0.00000 0.00000
1 78 1.00000 0.00000 0.00000
1 79 1.00000 0.00000 0.00000
1 80 1.00000 0.00000 0.00000
1 81 1.00000 0.00000 0.00000
1 82 1.00000 0.00000 0.00000
1 83 1.00000 0.00000 0.00000
1 84 1.00000 0.00000 0.00000
1 85 1.00000 0.00000 0.00000
1 86 1.00000 0.00000 0.00000
1 87 1.00000 0.00000 0.00000
1 88 1.00000 0.00000 0.00000
1 89 1.00000 0.00000 0.00000
1 90 1.00000 0.00000 0.00000
1 91 1.00000 0.00000 0.00000
1 92 1.00000 0.00000 0.00000
1 93 1.00000 0.00000 0.00000
1 94 1.00000 0.00000 0.00000
1 95 1.00000 0.00000 0.00000
1 96 1.00000 0.00000 0.00000
1 97 1.00000 0.00000 0.00000
1 98 1.00000 0.00000 0.00000
1 99 1.00000 0.00000 0.00000
1 100 1.00000 0.00000 0.00000
1 101 1.00000 0.00000 0.00000
1 102 1.00000 0.00000 0.00000
1 103 1.00000 0.00000 0.00000
1 104 1.00000 0.00000 0.00000
1 105 1.00000 0.00000 0.00000
1 106 1.00000 0.00000 0.00000
1 107 1.00000 0.00000 0.00000
1 108 1.00000 0.00000 0.00000
1 109 1.00000 0.00000 0.00000
1 110 1.00000 0.00000 0.00000
1 111 1.00000 0.00000 0.00000
1 112 1.00000 0.00000 0.00000
1 113 1.00000 0.00000 0.00000
1 114 1.00000 0.00000 0.00000
1 115 1.00000 0.00000 0.00000
1 116 1.00000 0.00000 0.00000
1 117 1.00000 0.00000 0.00000
1 118 1.00000 0.00000 0.00000
1 119 1.00000 0.00000 0.00000
