OFF
24 78 0
0.5 5.5511151231257827e-17 0.70710678118654746
0.5 0.70710678118654746 1.1496735851465459e-17
0.5 -0.70710678118654746 4.4014415379792368e-17
0.5 -5.5511151231257827e-17 -0.70710678118654746
-0.5 5.5511151231257827e-17 0.70710678118654746
-0.5 0.70710678118654746 -4.4014415379792368e-17
-0.5 -0.70710678118654746 -1.1496735851465459e-17
-0.5 -5.5511151231257827e-17 -0.70710678118654746
1.1299483048858512e-16 0.70710678118654768 0.49999999999999972
0.70710678118654735 -1.8231367790232924e-17 0.50000000000000022
-0.70710678118654757 4.0680942640903771e-16 0.49999999999999978
-3.9055058664487428e-16 -0.70710678118654724 0.50000000000000022
3.9055058664487428e-16 0.70710678118654724 -0.50000000000000022
0.70710678118654757 -4.0680942640903771e-16 -0.49999999999999978
-0.70710678118654735 1.8231367790232924e-17 -0.50000000000000022
-1.1299483048858512e-16 -0.70710678118654768 -0.49999999999999972
0.70710678118654757 0.49999999999999994 1.1775693440128312e-16
2.7755575615628914e-17 0.50000000000000011 0.70710678118654746
1.3877787807814457e-16 0.49999999999999989 -0.70710678118654746
-0.70710678118654735 0.50000000000000011 -2.2877923686379875e-16
0.70710678118654735 -0.50000000000000011 2.2877923686379875e-16
-1.3877787807814457e-16 -0.49999999999999989 0.70710678118654746
-2.7755575615628914e-17 -0.50000000000000011 -0.70710678118654746
-0.70710678118654757 -0.49999999999999994 -1.1775693440128312e-16
4 1 5 4 0 1.00000 1.00000 0.00000
4 2 0 4 6 1.00000 1.00000 0.00000
4 3 1 0 2 1.00000 1.00000 0.00000
4 5 1 3 7 1.00000 1.00000 0.00000
4 6 4 5 7 1.00000 1.00000 0.00000
4 7 3 2 6 1.00000 1.00000 0.00000
4 9 13 12 8 1.00000 0.00000 0.00000
4 10 8 12 14 1.00000 0.00000 0.00000
4 11 9 8 10 1.00000 0.00000 0.00000
4 13 9 11 15 1.00000 0.00000 0.00000
4 14 12 13 15 1.00000 0.00000 0.00000
4 15 11 10 14 1.00000 0.00000 0.00000
4 17 21 20 16 0.00000 0.39216 0.00000
4 18 16 20 22 0.00000 0.39216 0.00000
4 19 17 16 18 0.00000 0.39216 0.00000
4 21 17 19 23 0.00000 0.39216 0.00000
4 22 20 21 23 0.00000 0.39216 0.00000
4 23 19 18 22 0.00000 0.39216 0.00000
2 0 1 1.00000 1.00000 0.00000
2 0 2 1.00000 1.00000 0.00000
2 0 4 1.00000 1.00000 0.00000
2 1 3 1.00000 1.00000 0.00000
2 1 5 1.00000 1.00000 0.00000
2 2 3 1.00000 1.00000 0.00000
2 2 6 1.00000 1.00000 0.00000
2 3 7 1.00000 1.00000 0.00000
2 4 5 1.00000 1.00000 0.00000
2 4 6 1.00000 1.00000 0.00000
2 5 7 1.00000 1.00000 0.00000
2 6 7 1.00000 1.00000 0.00000
2 8 9 1.00000 0.00000 0.00000
2 8 10 1.00000 0.00000 0.00000
2 8 12 1.00000 0.00000 0.00000
2 9 11 1.00000 0.00000 0.00000
2 9 13 1.00000 0.00000 0.00000
2 10 11 1.00000 0.00000 0.00000
2 10 14 1.00000 0.00000 0.00000
2 11 15 1.00000 0.00000 0.00000
2 12 13 1.00000 0.00000 0.00000
2 12 14 1.00000 0.00000 0.00000
2 13 15 1.00000 0.00000 0.00000
2 14 15 1.00000 0.00000 0.00000
2 16 17 0.00000 0.39216 0.00000
2 16 18 0.00000 0.39216 0.00000
2 16 20 0.00000 0.39216 0.00000
2 17 19 0.00000 0.39216 0.00000
2 17 21 0.00000 0.39216 0.00000
2 18 19 0.00000 0.39216 0.00000
2 18 22 0.00000 0.39216 0.00000
2 19 23 0.00000 0.39216 0.00000
2 20 21 0.00000 0.39216 0.00000
2 20 22 0.00000 0.39216 0.00000
2 21 23 0.00000 0.39216 0.00000
2 22 23 0.00000 0.39216 0.00000
1 0 1.00000 1.00000 0.00000
1 1 1.00000 1.00000 0.00000
1 2 1.00000 1.00000 0.00000
1 3 1.00000 1.00000 0.00000
1 4 1.00000 1.00000 0.00000
1 5 1.00000 1.00000 0.00000
1 6 1.00000 1.00000 0.00000
1 7 1.00000 1.00000 0.00000
1 8 1.00000 0.00000 0.00000
1 9 1.00000 0.00000 0.00000
1 10 1.00000 0.00000 0.00000
1 11 1.00000 0.00000 0.00000
1 12 1.00000 0.00000 0.00000
1 13 1.00000 0.00000 0.00000
1 14 1.00000 0.00000 0.00000
1 15 1.00000 0.00000 0.00000
1 16 0.00000 0.39216 0.00000
1 17 0.00000 0.39216 0.00000
1 18 0.00000 0.39216 0.00000
1 19 0.00000 0.39216 0.00000
1 20 0.00000 0.39216 0.00000
1 21 0.00000 0.39216 0.00000
1 22 0.00000 0.39216 0.00000
1 23 0.00000 0.39216 0.00000
