OFF
25 47 0
1.5388417685876263 0.50000000000000255 0.50000000000000544
1.5388417685876259 -0.49999999999999756 0.50000000000000555
0.95105651629515264 -1.3090169943749448 0.50000000000000433
-9.5370267546104464e-16 -1.6180339887498918 0.50000000000000222
-0.9510565162951542 -1.3090169943749439 0.50000000000000011
-1.5388417685876272 -0.49999999999999645 0.49999999999999861
-1.538841768587627 0.50000000000000333 0.4999999999999985
-0.95105651629515375 1.309016994374951 0.49999999999999978
-3.4308001191720864e-16 1.618033988749898 0.50000000000000189
0.95105651629515298 1.3090169943749506 0.50000000000000411
1.5388417685876286 0.50000000000000244 -0.49999999999999439
1.5388417685876281 -0.49999999999999756 -0.49999999999999428
0.95105651629515486 -1.3090169943749448 -0.49999999999999556
1.3500101006361552e-15 -1.6180339887498918 -0.49999999999999767
-0.95105651629515198 -1.3090169943749439 -0.49999999999999989
-1.538841768587625 -0.49999999999999656 -0.50000000000000122
-1.5388417685876248 0.50000000000000333 -0.50000000000000133
-0.95105651629515153 1.309016994374951 -0.50000000000000011
1.9606327641799913e-15 1.618033988749898 -0.499999999999998
0.9510565162951552 1.3090169943749506 -0.49999999999999584
0.2628655560595643 0.80901699437494923 1.0257311121191337
0.8506508083520371 1.72665965110346e-15 1.0257311121191337
0.26286555605956441 -0.80901699437494545 1.0257311121191297
-0.68819096023558901 -0.49999999999999811 1.0257311121191275
-0.68819096023558912 0.50000000000000178 1.0257311121191302
10 10 11 12 13 14 15 16 17 18 19 0.40392 0.10196 1.00000
4 0 1 11 10 0.05098 0.32157 0.50196
4 1 2 12 11 0.05098 0.32157 0.50196
4 2 3 13 12 0.05098 0.32157 0.50196
4 3 4 14 13 0.05098 0.32157 0.50196
4 4 5 15 14 0.05098 0.32157 0.50196
4 5 6 16 15 0.05098 0.32157 0.50196
4 6 7 17 16 0.05098 0.32157 0.50196
4 7 8 18 17 0.05098 0.32157 0.50196
4 8 9 19 18 0.05098 0.32157 0.50196
4 9 0 10 19 0.05098 0.32157 0.50196
5 24 23 22 21 20 0.38824 0.60000 0.30196
4 9 20 21 0 0.05098 0.32157 0.50196
3 0 21 1 0.90196 0.45098 0.00000
4 1 21 22 2 0.05098 0.32157 0.50196
3 2 22 3 0.90196 0.45098 0.00000
4 3 22 23 4 0.05098 0.32157 0.50196
3 4 23 5 0.90196 0.45098 0.00000
4 5 23 24 6 0.05098 0.32157 0.50196
3 6 24 7 0.90196 0.45098 0.00000
4 7 24 20 8 0.05098 0.32157 0.50196
3 8 20 9 0.90196 0.45098 0.00000
1 0 1.00000 0.54118 0.10196
1 1 1.00000 0.54118 0.10196
1 2 1.00000 0.54118 0.10196
1 3 1.00000 0.54118 0.10196
1 4 1.00000 0.54118 0.10196
1 5 1.00000 0.54118 0.10196
1 6 1.00000 0.54118 0.10196
1 7 1.00000 0.54118 0.10196
1 8 1.00000 0.54118 0.10196
1 9 1.00000 0.54118 0.10196
1 10 0.90196 0.45098 0.00000
1 11 0.90196 0.45098 0.00000
1 12 0.90196 0.45098 0.00000
1 13 0.90196 0.45098 0.00000
1 14 0.90196 0.45098 0.00000
1 15 0.90196 0.45098 0.00000
1 16 0.90196 0.45098 0.00000
1 17 0.90196 0.45098 0.00000
1 18 0.90196 0.45098 0.00000
1 19 0.90196 0.45098 0.00000
1 20 0.05098 0.32157 0.50196
1 21 0.05098 0.32157 0.50196
1 22 0.05098 0.32157 0.50196
1 23 0.05098 0.32157 0.50196
1 24 0.05098 0.32157 0.50196
