OFF
40 82 0
-1.3090169943749421 -0.95105651629515509 0.50000000000000444
-1.6180339887498902 -1.5455446324880454e-15 0.50000000000000511
-1.3090169943749435 0.95105651629515198 0.50000000000000477
-0.49999999999999656 1.5388417685876254 0.50000000000000389
0.50000000000000333 1.5388417685876261 0.50000000000000244
1.3090169943749512 0.95105651629515342 0.50000000000000122
1.6180339887498996 1.1978990444968929e-16 0.50000000000000067
1.3090169943749528 -0.95105651629515364 0.50000000000000089
0.50000000000000577 -1.538841768587627 0.50000000000000189
-0.49999999999999417 -1.5388417685876279 0.50000000000000322
-1.3090169943749435 -0.95105651629515486 -0.49999999999999556
-1.6180339887498916 -1.3790111787942719e-15 -0.499999999999995
-1.3090169943749448 0.9510565162951522 -0.49999999999999523
-0.49999999999999789 1.5388417685876254 -0.49999999999999623
0.50000000000000211 1.5388417685876261 -0.4999999999999975
1.3090169943749499 0.95105651629515364 -0.49999999999999872
1.6180339887498982 2.8632335814346277e-16 -0.49999999999999939
1.3090169943749514 -0.95105651629515342 -0.49999999999999906
0.50000000000000444 -1.538841768587627 -0.49999999999999817
-0.49999999999999539 -1.5388417685876279 -0.49999999999999678
0.80901699437495234 -0.26286555605956591 1.8763819204711754
-1.3090169943749443 0.4253254041760165 1.350650808352045
0.80901699437495356 -1.113516364411606 1.3506508083520417
1.3090169943749501 0.42532540417602183 1.3506508083520412
6.2512928070045304e-15 -0.85065080835204099 1.8763819204711765
0.50000000000000266 0.6881909602355869 1.8763819204711762
-0.80901699437494123 -1.1135163644116093 1.3506508083520441
5.9865056257531795e-16 1.3763819204711727 1.3506508083520434
-0.80901699437494223 -0.26286555605956941 1.8763819204711778
-0.49999999999999711 0.68819096023558479 1.8763819204711776
1.2310204746476852e-15 0.85065080835203855 -1.8763819204711696
2.8868598304263341e-15 -1.3763819204711745 -1.3506508083520365
-0.80901699437494556 1.1135163644116048 -1.350650808352035
0.80901699437494901 1.1135163644116055 -1.350650808352037
-0.80901699437494579 0.26286555605956535 -1.8763819204711691
0.80901699437494878 0.26286555605956607 -1.8763819204711709
-1.3090169943749448 -0.42532540417602149 -1.3506508083520348
1.3090169943749497 -0.42532540417602044 -1.3506508083520379
-0.49999999999999789 -0.68819096023558779 -1.8763819204711696
0.50000000000000178 -0.68819096023558735 -1.8763819204711709
4 0 1 11 10 0.05098 0.32157 0.50196
4 1 2 12 11 0.05098 0.32157 0.50196
4 2 3 13 12 0.05098 0.32157 0.50196
4 3 4 14 13 0.05098 0.32157 0.50196
4 4 5 15 14 0.05098 0.32157 0.50196
4 5 6 16 15 0.05098 0.32157 0.50196
4 6 7 17 16 0.05098 0.32157 0.50196
4 7 8 18 17 0.05098 0.32157 0.50196
4 8 9 19 18 0.05098 0.32157 0.50196
4 9 0 10 19 0.05098 0.32157 0.50196
3 9 26 0 0.90196 0.45098 0.00000
3 21 28 29 0.90196 0.45098 0.00000
3 21 2 1 0.90196 0.45098 0.00000
3 22 8 7 0.90196 0.45098 0.00000
3 23 25 20 0.90196 0.45098 0.00000
3 25 27 29 0.90196 0.45098 0.00000
3 3 27 4 0.90196 0.45098 0.00000
3 6 5 23 0.90196 0.45098 0.00000
3 28 26 24 0.90196 0.45098 0.00000
5 21 1 0 26 28 0.38824 0.60000 0.30196
5 25 23 5 4 27 0.38824 0.60000 0.30196
5 26 9 8 22 24 0.38824 0.60000 0.30196
5 6 23 20 22 7 0.38824 0.60000 0.30196
5 28 24 20 25 29 0.38824 0.60000 0.30196
5 29 27 3 2 21 0.38824 0.60000 0.30196
3 20 24 22 0.90196 0.45098 0.00000
3 11 36 10 0.90196 0.45098 0.00000
3 31 38 39 0.90196 0.45098 0.00000
3 31 18 19 0.90196 0.45098 0.00000
3 32 12 13 0.90196 0.45098 0.00000
3 33 35 30 0.90196 0.45098 0.00000
3 35 37 39 0.90196 0.45098 0.00000
3 17 37 16 0.90196 0.45098 0.00000
3 14 15 33 0.90196 0.45098 0.00000
3 38 36 34 0.90196 0.45098 0.00000
5 31 19 10 36 38 0.38824 0.60000 0.30196
5 35 33 15 16 37 0.38824 0.60000 0.30196
5 36 11 12 32 34 0.38824 0.60000 0.30196
5 14 33 30 32 13 0.38824 0.60000 0.30196
5 38 34 30 35 39 0.38824 0.60000 0.30196
5 39 37 17 18 31 0.38824 0.60000 0.30196
3 30 34 32 0.90196 0.45098 0.00000
1 0 1.00000 0.54118 0.10196
1 1 1.00000 0.54118 0.10196
1 2 1.00000 0.54118 0.10196
1 3 1.00000 0.54118 0.10196
1 4 1.00000 0.54118 0.10196
1 5 1.00000 0.54118 0.10196
1 6 1.00000 0.54118 0.10196
1 7 1.00000 0.54118 0.10196
1 8 1.00000 0.54118 0.10196
1 9 1.00000 0.54118 0.10196
1 10 1.00000 0.54118 0.10196
1 11 1.00000 0.54118 0.10196
1 12 1.00000 0.54118 0.10196
1 13 1.00000 0.54118 0.10196
1 14 1.00000 0.54118 0.10196
1 15 1.00000 0.54118 0.10196
1 16 1.00000 0.54118 0.10196
1 17 1.00000 0.54118 0.10196
1 18 1.00000 0.54118 0.10196
1 19 1.00000 0.54118 0.10196
1 20 0.05098 0.32157 0.50196
1 21 0.05098 0.32157 0.50196
1 22 0.05098 0.32157 0.50196
1 23 0.05098 0.32157 0.50196
1 24 0.05098 0.32157 0.50196
1 25 0.05098 0.32157 0.50196
1 26 0.05098 0.32157 0.50196
1 27 0.05098 0.32157 0.50196
1 28 0.05098 0.32157 0.50196
1 29 0.05098 0.32157 0.50196
1 30 0.05098 0.32157 0.50196
1 31 0.05098 0.32157 0.50196
1 32 0.05098 0.32157 0.50196
1 33 0.05098 0.32157 0.50196
1 34 0.05098 0.32157 0.50196
1 35 0.05098 0.32157 0.50196
1 36 0.05098 0.32157 0.50196
1 37 0.05098 0.32157 0.50196
1 38 0.05098 0.32157 0.50196
1 39 0.05098 0.32157 0.50196
