OFF
15 29 0
1.1547005383792517 1.2143666715940809e-15 -0.20412414523193098
-0.86602540378443771 -0.50000000000000389 0.61237243569579469
-0.86602540378443993 0.49999999999999639 0.61237243569579514
0.57735026918962595 4.8632495737666503e-17 -1.0206207261596569
0.86602540378443749 0.50000000000000033 0.61237243569579525
-0.57735026918962351 -1.0000000000000029 -0.2041241452319314
-2.35882152510068e-15 0.99999999999999833 0.61237243569579525
-0.28867513459481164 -0.50000000000000189 -1.0206207261596574
0.86602540378443993 -0.49999999999999972 0.61237243569579491
2.3041151783249775e-15 -1.0000000000000018 0.61237243569579469
-0.57735026918962817 0.99999999999999722 -0.20412414523193084
-0.28867513459481398 0.49999999999999806 -1.0206207261596569
0.28867513459481409 -0.50000000000000067 1.4288690166235207
-0.57735026918962562 -2.155706235052559e-15 1.4288690166235205
0.28867513459481225 0.49999999999999978 1.4288690166235207
3 0 4 8 0.90196 0.45098 0.00000
3 2 6 10 0.90196 0.45098 0.00000
3 3 7 11 0.90196 0.45098 0.00000
3 9 1 5 0.90196 0.45098 0.00000
6 0 3 11 10 6 4 1.00000 0.79216 0.50196
6 7 5 1 2 10 11 1.00000 0.79216 0.50196
6 9 5 7 3 0 8 1.00000 0.79216 0.50196
3 14 13 12 0.90196 0.45098 0.00000
4 9 12 13 1 0.05098 0.32157 0.50196
3 1 13 2 0.90196 0.45098 0.00000
4 2 13 14 6 0.05098 0.32157 0.50196
3 6 14 4 0.90196 0.45098 0.00000
4 4 14 12 8 0.05098 0.32157 0.50196
3 8 12 9 0.90196 0.45098 0.00000
1 0 0.90196 0.45098 0.00000
1 1 0.50196 0.70588 1.00000
1 2 0.50196 0.70588 1.00000
1 3 0.90196 0.45098 0.00000
1 4 0.50196 0.70588 1.00000
1 5 0.90196 0.45098 0.00000
1 6 0.50196 0.70588 1.00000
1 7 0.90196 0.45098 0.00000
1 8 0.50196 0.70588 1.00000
1 9 0.50196 0.70588 1.00000
1 10 0.90196 0.45098 0.00000
1 11 0.90196 0.45098 0.00000
1 12 0.05098 0.32157 0.50196
1 13 0.05098 0.32157 0.50196
1 14 0.05098 0.32157 0.50196
