OFF
45 77 0
-0.64549722436790113 2.1180339887498949 -0.28867513459481309
-0.28867513459481148 2.1180339887498949 0.64549722436790269
-0.64549722436790424 -2.1180339887498922 -0.28867513459481298
-0.28867513459481459 -2.1180339887498922 0.6454972243679028
-1.2228474935575278 0.50000000000000122 -1.8001977627471548
0.28867513459481281 0.50000000000000089 2.1570198525202446
-1.2228474935575284 -0.49999999999999828 -1.8001977627471546
0.28867513459481203 -0.49999999999999861 2.1570198525202446
-0.28867513459481214 0.50000000000000089 -2.1570198525202446
1.2228474935575284 0.50000000000000056 1.8001977627471546
-0.28867513459481292 -0.49999999999999861 -2.1570198525202446
1.2228474935575278 -0.499999999999999 1.8001977627471548
-1.8001977627471542 0.50000000000000167 1.2228474935575284
-1.800197762747155 -0.49999999999999784 1.2228474935575284
1.800197762747155 0.50000000000000011 -1.2228474935575284
2.1570198525202446 0.49999999999999994 -0.28867513459481253
1.8001977627471542 -0.49999999999999944 -1.2228474935575284
2.1570198525202438 -0.49999999999999944 -0.28867513459481253
-1.3331115832657952 1.3090169943749483 -1.2228474935575291
-0.17841104488654438 1.3090169943749479 1.8001977627471544
-1.3331115832657972 -1.3090169943749452 -1.2228474935575289
-0.17841104488654638 -1.3090169943749457 1.8001977627471546
0.17841104488654633 1.3090169943749479 -1.8001977627471546
1.3331115832657972 1.3090169943749475 1.2228474935575289
0.17841104488654433 -1.3090169943749457 -1.8001977627471544
1.3331115832657952 -1.3090169943749461 1.2228474935575291
-1.0444364486709832 0.80901699437494867 1.8001977627471542
-1.0444364486709845 -0.80901699437494534 1.8001977627471542
1.0444364486709845 0.80901699437494756 -1.8001977627471542
1.9786088076336998 0.80901699437494734 0.64549722436790313
1.0444364486709832 -0.80901699437494645 -1.8001977627471542
1.9786088076336985 -0.80901699437494667 0.64549722436790313
-1.5115226281523402 1.6180339887498956 -0.28867513459481325
-0.93417235896271489 1.6180339887498956 1.2228474935575284
-1.5115226281523424 -1.6180339887498925 -0.28867513459481314
-0.93417235896271711 -1.6180339887498925 1.2228474935575286
-0.46708617948135628 1.8090169943749475 -1.2228474935575286
0.46708617948135883 1.8090169943749475 1.2228474935575286
-0.46708617948135894 -1.8090169943749452 -1.2228474935575286
0.46708617948135617 -1.8090169943749452 1.2228474935575286
-0.57735026918962618 1.4813623571667544e-15 2.1570198525202442
0.57735026918962618 7.65313640284264e-16 -2.1570198525202442
1.8683447179254311 4.6405179242027435e-16 1.2228474935575289
-1.6899336730388854 1.3090169943749486 0.64549722436790258
-1.6899336730388872 -1.309016994374945 0.64549722436790258
3 8 41 10 0.90196 0.45098 0.00000
3 9 11 42 0.90196 0.45098 0.00000
3 33 26 19 0.90196 0.45098 0.00000
3 35 21 27 0.90196 0.45098 0.00000
3 40 7 5 0.90196 0.45098 0.00000
4 4 8 10 6 0.05098 0.32157 0.50196
4 5 7 11 9 0.05098 0.32157 0.50196
4 8 22 28 41 0.05098 0.32157 0.50196
4 10 41 30 24 0.05098 0.32157 0.50196
4 14 15 17 16 0.05098 0.32157 0.50196
4 18 32 0 36 0.05098 0.32157 0.50196
4 20 38 2 34 0.05098 0.32157 0.50196
4 23 9 42 29 0.05098 0.32157 0.50196
4 25 31 42 11 0.05098 0.32157 0.50196
4 26 40 5 19 0.05098 0.32157 0.50196
4 27 21 7 40 0.05098 0.32157 0.50196
4 33 19 37 1 0.05098 0.32157 0.50196
4 35 3 39 21 0.05098 0.32157 0.50196
4 43 12 26 33 0.05098 0.32157 0.50196
4 44 35 27 13 0.05098 0.32157 0.50196
5 4 18 36 22 8 0.38824 0.60000 0.30196
5 6 10 24 38 20 0.38824 0.60000 0.30196
5 12 13 27 40 26 0.38824 0.60000 0.30196
5 15 29 42 31 17 0.38824 0.60000 0.30196
5 19 5 9 23 37 0.38824 0.60000 0.30196
5 21 39 25 11 7 0.38824 0.60000 0.30196
5 32 43 33 1 0 0.38824 0.60000 0.30196
5 34 2 3 35 44 0.38824 0.60000 0.30196
5 41 28 14 16 30 0.38824 0.60000 0.30196
10 0 1 37 23 29 15 14 28 22 36 0.40392 0.10196 1.00000
10 2 38 24 30 16 17 31 25 39 3 0.40392 0.10196 1.00000
10 4 6 20 34 44 13 12 43 32 18 0.40392 0.10196 1.00000
1 0 0.90196 0.45098 0.00000
1 1 0.90196 0.45098 0.00000
1 2 0.90196 0.45098 0.00000
1 3 0.90196 0.45098 0.00000
1 4 0.90196 0.45098 0.00000
1 5 0.05098 0.32157 0.50196
1 6 0.90196 0.45098 0.00000
1 7 0.05098 0.32157 0.50196
1 8 0.05098 0.32157 0.50196
1 9 0.05098 0.32157 0.50196
1 10 0.05098 0.32157 0.50196
1 11 0.05098 0.32157 0.50196
1 12 0.90196 0.45098 0.00000
1 13 0.90196 0.45098 0.00000
1 14 0.90196 0.45098 0.00000
1 15 0.90196 0.45098 0.00000
1 16 0.90196 0.45098 0.00000
1 17 0.90196 0.45098 0.00000
1 18 0.90196 0.45098 0.00000
1 19 0.05098 0.32157 0.50196
1 20 0.90196 0.45098 0.00000
1 21 0.05098 0.32157 0.50196
1 22 0.90196 0.45098 0.00000
1 23 0.90196 0.45098 0.00000
1 24 0.90196 0.45098 0.00000
1 25 0.90196 0.45098 0.00000
1 26 0.05098 0.32157 0.50196
1 27 0.05098 0.32157 0.50196
1 28 0.90196 0.45098 0.00000
1 29 0.90196 0.45098 0.00000
1 30 0.90196 0.45098 0.00000
1 31 0.90196 0.45098 0.00000
1 32 0.90196 0.45098 0.00000
1 33 0.05098 0.32157 0.50196
1 34 0.90196 0.45098 0.00000
1 35 0.05098 0.32157 0.50196
1 36 0.90196 0.45098 0.00000
1 37 0.90196 0.45098 0.00000
1 38 0.90196 0.45098 0.00000
1 39 0.90196 0.45098 0.00000
1 40 0.05098 0.32157 0.50196
1 41 0.05098 0.32157 0.50196
1 42 0.05098 0.32157 0.50196
1 43 0.90196 0.45098 0.00000
1 44 0.90196 0.45098 0.00000
