OFF
20 32 0
0.80901699437494734 0.80901699437494734 0.80901699437494734
0.80901699437494734 0.80901699437494734 -0.80901699437494734
0.80901699437494734 -0.80901699437494734 0.80901699437494734
0.80901699437494734 -0.80901699437494734 -0.80901699437494734
-0.80901699437494734 0.80901699437494734 0.80901699437494734
-0.80901699437494734 0.80901699437494734 -0.80901699437494734
-0.80901699437494734 -0.80901699437494734 0.80901699437494734
-0.80901699437494734 -0.80901699437494734 -0.80901699437494734
0 1.3090169943749472 0.49999999999999989
0 1.3090169943749472 -0.49999999999999989
0 -1.3090169943749472 0.49999999999999989
0 -1.3090169943749472 -0.49999999999999989
0.49999999999999989 0 1.3090169943749472
0.49999999999999989 0 -1.3090169943749472
-0.49999999999999989 0 1.3090169943749472
-0.49999999999999989 0 -1.3090169943749472
1.3090169943749472 0.49999999999999989 0
1.3090169943749472 -0.49999999999999989 0
-1.3090169943749472 0.49999999999999989 0
-1.3090169943749472 -0.49999999999999989 0
5 1 13 15 5 9 0.38824 0.60000 0.30196
5 4 18 19 6 14 0.38824 0.60000 0.30196
5 5 18 4 8 9 0.38824 0.60000 0.30196
5 6 10 2 12 14 0.38824 0.60000 0.30196
5 9 8 0 16 1 0.38824 0.60000 0.30196
5 10 6 19 7 11 0.38824 0.60000 0.30196
5 11 3 17 2 10 0.38824 0.60000 0.30196
5 11 7 15 13 3 0.38824 0.60000 0.30196
5 12 0 8 4 14 0.38824 0.60000 0.30196
5 15 7 19 18 5 0.38824 0.60000 0.30196
5 16 17 3 13 1 0.38824 0.60000 0.30196
5 17 16 0 12 2 0.38824 0.60000 0.30196
1 0 0.90196 0.45098 0.00000
1 1 0.90196 0.45098 0.00000
1 2 0.90196 0.45098 0.00000
1 3 0.90196 0.45098 0.00000
1 4 0.90196 0.45098 0.00000
1 5 0.90196 0.45098 0.00000
1 6 0.90196 0.45098 0.00000
1 7 0.90196 0.45098 0.00000
1 8 0.90196 0.45098 0.00000
1 9 0.90196 0.45098 0.00000
1 10 0.90196 0.45098 0.00000
1 11 0.90196 0.45098 0.00000
1 12 0.90196 0.45098 0.00000
1 13 0.90196 0.45098 0.00000
1 14 0.90196 0.45098 0.00000
1 15 0.90196 0.45098 0.00000
1 16 0.90196 0.45098 0.00000
1 17 0.90196 0.45098 0.00000
1 18 0.90196 0.45098 0.00000
1 19 0.90196 0.45098 0.00000
