OFF
60 152 0
0.37482165811456225 2.0970538352520882 0.33092102472984425
0.37482165811456225 -2.0970538352520882 -0.33092102472984425
-0.37482165811456225 2.0970538352520882 -0.33092102472984425
-0.37482165811456225 -2.0970538352520882 0.33092102472984425
0.33092102472984425 0.37482165811456225 2.0970538352520882
0.33092102472984425 -0.37482165811456225 -2.0970538352520882
-0.33092102472984425 0.37482165811456225 -2.0970538352520882
-0.33092102472984425 -0.37482165811456225 2.0970538352520882
2.0970538352520882 0.33092102472984425 0.37482165811456225
2.0970538352520882 -0.33092102472984425 -0.37482165811456225
-2.0970538352520882 0.33092102472984425 -0.37482165811456225
-2.0970538352520882 -0.33092102472984425 0.37482165811456225
1.1031568350717538 1.6469179406903747 0.84755004678906087
1.1031568350717538 -1.6469179406903747 -0.84755004678906087
-1.1031568350717538 1.6469179406903747 -0.84755004678906087
-1.1031568350717538 -1.6469179406903747 0.84755004678906087
0.84755004678906087 1.1031568350717538 1.6469179406903747
0.84755004678906087 -1.1031568350717538 -1.6469179406903747
-0.84755004678906087 1.1031568350717538 -1.6469179406903747
-0.84755004678906087 -1.1031568350717538 1.6469179406903747
1.6469179406903747 0.84755004678906087 1.1031568350717538
1.6469179406903747 -0.84755004678906087 -1.1031568350717538
-1.6469179406903747 0.84755004678906087 -1.1031568350717538
-1.6469179406903747 -0.84755004678906087 1.1031568350717538
1.7461864409858265 1.2495037884630273 0.192893711352359
1.7461864409858265 -1.2495037884630273 -0.192893711352359
-1.7461864409858265 1.2495037884630273 -0.192893711352359
-1.7461864409858265 -1.2495037884630273 0.192893711352359
0.192893711352359 1.7461864409858265 1.2495037884630273
0.192893711352359 -1.7461864409858265 -1.2495037884630273
-0.192893711352359 1.7461864409858265 -1.2495037884630273
-0.192893711352359 -1.7461864409858265 1.2495037884630273
1.2495037884630273 0.192893711352359 1.7461864409858265
1.2495037884630273 -0.192893711352359 -1.7461864409858265
-1.2495037884630273 0.192893711352359 -1.7461864409858265
-1.2495037884630273 -0.192893711352359 1.7461864409858265
1.4152654162559823 1.4540242293380155 -0.72833517695719152
1.4152654162559823 -1.4540242293380155 0.72833517695719152
-1.4152654162559823 1.4540242293380155 0.72833517695719152
-1.4152654162559823 -1.4540242293380155 -0.72833517695719152
-0.72833517695719152 1.4152654162559823 1.4540242293380155
-0.72833517695719152 -1.4152654162559823 -1.4540242293380155
0.72833517695719152 1.4152654162559823 -1.4540242293380155
0.72833517695719152 -1.4152654162559823 1.4540242293380155
1.4540242293380155 -0.72833517695719152 1.4152654162559823
1.4540242293380155 0.72833517695719152 -1.4152654162559823
-1.4540242293380155 -0.72833517695719152 -1.4152654162559823
-1.4540242293380155 0.72833517695719152 1.4152654162559823
0.56771536946692125 1.9778389654202189 -0.64302960591407254
0.56771536946692125 -1.9778389654202189 0.64302960591407254
-0.56771536946692125 1.9778389654202189 0.64302960591407254
-0.56771536946692125 -1.9778389654202189 -0.64302960591407254
-0.64302960591407254 0.56771536946692125 1.9778389654202189
-0.64302960591407254 -0.56771536946692125 -1.9778389654202189
0.64302960591407254 0.56771536946692125 -1.9778389654202189
0.64302960591407254 -0.56771536946692125 1.9778389654202189
1.9778389654202189 -0.64302960591407254 0.56771536946692125
1.9778389654202189 0.64302960591407254 -0.56771536946692125
-1.9778389654202189 -0.64302960591407254 -0.56771536946692125
-1.9778389654202189 0.64302960591407254 0.56771536946692125
3 0 28 12 0.90196 0.45098 0.00000
3 1 49 3 0.90196 0.45098 0.00000
3 2 0 48 0.90196 0.45098 0.00000
3 2 50 0 0.90196 0.45098 0.00000
3 3 31 15 0.90196 0.45098 0.00000
3 3 49 31 0.90196 0.45098 0.00000
3 4 32 16 0.90196 0.45098 0.00000
3 5 33 17 0.90196 0.45098 0.00000
3 5 54 33 0.90196 0.45098 0.00000
3 6 54 5 0.90196 0.45098 0.00000
3 7 4 52 0.90196 0.45098 0.00000
3 7 55 4 0.90196 0.45098 0.00000
3 9 8 56 0.90196 0.45098 0.00000
3 10 59 26 0.90196 0.45098 0.00000
3 11 59 10 0.90196 0.45098 0.00000
3 12 16 20 0.90196 0.45098 0.00000
3 12 20 24 0.90196 0.45098 0.00000
3 13 21 25 0.90196 0.45098 0.00000
3 14 2 30 0.90196 0.45098 0.00000
3 15 19 23 0.90196 0.45098 0.00000
3 15 31 19 0.90196 0.45098 0.00000
3 16 32 20 0.90196 0.45098 0.00000
3 17 21 13 0.90196 0.45098 0.00000
3 18 14 30 0.90196 0.45098 0.00000
3 19 7 35 0.90196 0.45098 0.00000
3 21 9 25 0.90196 0.45098 0.00000
3 22 10 26 0.90196 0.45098 0.00000
3 22 14 18 0.90196 0.45098 0.00000
3 22 26 14 0.90196 0.45098 0.00000
3 23 19 35 0.90196 0.45098 0.00000
3 24 20 8 0.90196 0.45098 0.00000
3 25 9 56 0.90196 0.45098 0.00000
3 25 56 37 0.90196 0.45098 0.00000
3 26 59 38 0.90196 0.45098 0.00000
3 27 15 23 0.90196 0.45098 0.00000
3 27 23 11 0.90196 0.45098 0.00000
3 28 16 12 0.90196 0.45098 0.00000
3 29 1 51 0.90196 0.45098 0.00000
3 29 13 1 0.90196 0.45098 0.00000
3 29 17 13 0.90196 0.45098 0.00000
3 30 2 48 0.90196 0.45098 0.00000
3 30 48 42 0.90196 0.45098 0.00000
3 33 21 17 0.90196 0.45098 0.00000
3 34 6 53 0.90196 0.45098 0.00000
3 34 18 6 0.90196 0.45098 0.00000
3 34 22 18 0.90196 0.45098 0.00000
3 35 7 52 0.90196 0.45098 0.00000
3 35 52 47 0.90196 0.45098 0.00000
3 36 24 57 0.90196 0.45098 0.00000
3 37 44 43 0.90196 0.45098 0.00000
3 38 40 50 0.90196 0.45098 0.00000
3 38 47 40 0.90196 0.45098 0.00000
3 39 27 58 0.90196 0.45098 0.00000
3 40 28 50 0.90196 0.45098 0.00000
3 41 29 51 0.90196 0.45098 0.00000
3 41 51 39 0.90196 0.45098 0.00000
3 42 36 45 0.90196 0.45098 0.00000
3 43 44 55 0.90196 0.45098 0.00000
3 44 32 55 0.90196 0.45098 0.00000
3 45 36 57 0.90196 0.45098 0.00000
3 46 34 53 0.90196 0.45098 0.00000
3 46 39 58 0.90196 0.45098 0.00000
3 46 41 39 0.90196 0.45098 0.00000
3 46 53 41 0.90196 0.45098 0.00000
3 47 52 40 0.90196 0.45098 0.00000
3 48 36 42 0.90196 0.45098 0.00000
3 49 37 43 0.90196 0.45098 0.00000
3 49 43 31 0.90196 0.45098 0.00000
3 50 28 0 0.90196 0.45098 0.00000
3 51 1 3 0.90196 0.45098 0.00000
3 53 6 5 0.90196 0.45098 0.00000
3 54 42 45 0.90196 0.45098 0.00000
3 54 45 33 0.90196 0.45098 0.00000
3 55 32 4 0.90196 0.45098 0.00000
3 56 44 37 0.90196 0.45098 0.00000
3 57 8 9 0.90196 0.45098 0.00000
3 57 24 8 0.90196 0.45098 0.00000
3 58 11 10 0.90196 0.45098 0.00000
3 58 27 11 0.90196 0.45098 0.00000
3 59 47 38 0.90196 0.45098 0.00000
5 11 23 35 47 59 0.38824 0.60000 0.30196
5 13 25 37 49 1 0.38824 0.60000 0.30196
5 18 30 42 54 6 0.38824 0.60000 0.30196
5 26 38 50 2 14 0.38824 0.60000 0.30196
5 31 43 55 7 19 0.38824 0.60000 0.30196
5 33 45 57 9 21 0.38824 0.60000 0.30196
5 39 51 3 15 27 0.38824 0.60000 0.30196
5 40 52 4 16 28 0.38824 0.60000 0.30196
5 48 0 12 24 36 0.38824 0.60000 0.30196
5 53 5 17 29 41 0.38824 0.60000 0.30196
5 56 8 20 32 44 0.38824 0.60000 0.30196
5 58 10 22 34 46 0.38824 0.60000 0.30196
1 0 0.38824 0.60000 0.30196
1 1 0.38824 0.60000 0.30196
1 2 0.38824 0.60000 0.30196
1 3 0.38824 0.60000 0.30196
1 4 0.38824 0.60000 0.30196
1 5 0.38824 0.60000 0.30196
1 6 0.38824 0.60000 0.30196
1 7 0.38824 0.60000 0.30196
1 8 0.38824 0.60000 0.30196
1 9 0.38824 0.60000 0.30196
1 10 0.38824 0.60000 0.30196
1 11 0.38824 0.60000 0.30196
1 12 0.38824 0.60000 0.30196
1 13 0.38824 0.60000 0.30196
1 14 0.38824 0.60000 0.30196
1 15 0.38824 0.60000 0.30196
1 16 0.38824 0.60000 0.30196
1 17 0.38824 0.60000 0.30196
1 18 0.38824 0.60000 0.30196
1 19 0.38824 0.60000 0.30196
1 20 0.38824 0.60000 0.30196
1 21 0.38824 0.60000 0.30196
1 22 0.38824 0.60000 0.30196
1 23 0.38824 0.60000 0.30196
1 24 0.38824 0.60000 0.30196
1 25 0.38824 0.60000 0.30196
1 26 0.38824 0.60000 0.30196
1 27 0.38824 0.60000 0.30196
1 28 0.38824 0.60000 0.30196
1 29 0.38824 0.60000 0.30196
1 30 0.38824 0.60000 0.30196
1 31 0.38824 0.60000 0.30196
1 32 0.38824 0.60000 0.30196
1 33 0.38824 0.60000 0.30196
1 34 0.38824 0.60000 0.30196
1 35 0.38824 0.60000 0.30196
1 36 0.38824 0.60000 0.30196
1 37 0.38824 0.60000 0.30196
1 38 0.38824 0.60000 0.30196
1 39 0.38824 0.60000 0.30196
1 40 0.38824 0.60000 0.30196
1 41 0.38824 0.60000 0.30196
1 42 0.38824 0.60000 0.30196
1 43 0.38824 0.60000 0.30196
1 44 0.38824 0.60000 0.30196
1 45 0.38824 0.60000 0.30196
1 46 0.38824 0.60000 0.30196
1 47 0.38824 0.60000 0.30196
1 48 0.38824 0.60000 0.30196
1 49 0.38824 0.60000 0.30196
1 50 0.38824 0.60000 0.30196
1 51 0.38824 0.60000 0.30196
1 52 0.38824 0.60000 0.30196
1 53 0.38824 0.60000 0.30196
1 54 0.38824 0.60000 0.30196
1 55 0.38824 0.60000 0.30196
1 56 0.38824 0.60000 0.30196
1 57 0.38824 0.60000 0.30196
1 58 0.38824 0.60000 0.30196
1 59 0.38824 0.60000 0.30196
