OFF
60 104 0
0.5 2.1180339887498949 0.5
0.5 2.1180339887498949 -0.5
0.5 -2.1180339887498949 0.5
0.5 -2.1180339887498949 -0.5
-0.5 2.1180339887498949 0.5
-0.5 2.1180339887498949 -0.5
-0.5 -2.1180339887498949 0.5
-0.5 -2.1180339887498949 -0.5
0.5 0.5 2.1180339887498949
0.5 0.5 -2.1180339887498949
0.5 -0.5 2.1180339887498949
0.5 -0.5 -2.1180339887498949
-0.5 0.5 2.1180339887498949
-0.5 0.5 -2.1180339887498949
-0.5 -0.5 2.1180339887498949
-0.5 -0.5 -2.1180339887498949
2.1180339887498949 0.5 0.5
2.1180339887498949 0.5 -0.5
2.1180339887498949 -0.5 0.5
2.1180339887498949 -0.5 -0.5
-2.1180339887498949 0.5 0.5
-2.1180339887498949 0.5 -0.5
-2.1180339887498949 -0.5 0.5
-2.1180339887498949 -0.5 -0.5
0.80901699437494745 1.3090169943749475 1.6180339887498949
0.80901699437494745 1.3090169943749475 -1.6180339887498949
0.80901699437494745 -1.3090169943749475 1.6180339887498949
0.80901699437494745 -1.3090169943749475 -1.6180339887498949
-0.80901699437494745 1.3090169943749475 1.6180339887498949
-0.80901699437494745 1.3090169943749475 -1.6180339887498949
-0.80901699437494745 -1.3090169943749475 1.6180339887498949
-0.80901699437494745 -1.3090169943749475 -1.6180339887498949
1.6180339887498949 0.80901699437494745 1.3090169943749475
1.6180339887498949 0.80901699437494745 -1.3090169943749475
1.6180339887498949 -0.80901699437494745 1.3090169943749475
1.6180339887498949 -0.80901699437494745 -1.3090169943749475
-1.6180339887498949 0.80901699437494745 1.3090169943749475
-1.6180339887498949 0.80901699437494745 -1.3090169943749475
-1.6180339887498949 -0.80901699437494745 1.3090169943749475
-1.6180339887498949 -0.80901699437494745 -1.3090169943749475
1.3090169943749475 1.6180339887498949 0.80901699437494745
1.3090169943749475 1.6180339887498949 -0.80901699437494745
1.3090169943749475 -1.6180339887498949 0.80901699437494745
1.3090169943749475 -1.6180339887498949 -0.80901699437494745
-1.3090169943749475 1.6180339887498949 0.80901699437494745
-1.3090169943749475 1.6180339887498949 -0.80901699437494745
-1.3090169943749475 -1.6180339887498949 0.80901699437494745
-1.3090169943749475 -1.6180339887498949 -0.80901699437494745
0 1.8090169943749475 1.3090169943749475
0 1.8090169943749475 -1.3090169943749475
0 -1.8090169943749475 1.3090169943749475
0 -1.8090169943749475 -1.3090169943749475
1.3090169943749475 0 1.8090169943749475
1.3090169943749475 0 -1.8090169943749475
-1.3090169943749475 0 1.8090169943749475
-1.3090169943749475 0 -1.8090169943749475
1.8090169943749475 1.3090169943749475 0
1.8090169943749475 -1.3090169943749475 0
-1.8090169943749475 1.3090169943749475 0
-1.8090169943749475 -1.3090169943749475 0
3 0 48 4 0.90196 0.45098 0.00000
3 1 5 49 0.90196 0.45098 0.00000
3 3 51 7 0.90196 0.45098 0.00000
3 13 55 15 0.90196 0.45098 0.00000
3 14 54 12 0.90196 0.45098 0.00000
3 16 56 17 0.90196 0.45098 0.00000
3 18 19 57 0.90196 0.45098 0.00000
3 20 21 58 0.90196 0.45098 0.00000
3 22 59 23 0.90196 0.45098 0.00000
3 28 36 44 0.90196 0.45098 0.00000
3 30 46 38 0.90196 0.45098 0.00000
3 32 24 40 0.90196 0.45098 0.00000
3 34 42 26 0.90196 0.45098 0.00000
3 35 27 43 0.90196 0.45098 0.00000
3 41 25 33 0.90196 0.45098 0.00000
3 45 37 29 0.90196 0.45098 0.00000
3 47 31 39 0.90196 0.45098 0.00000
3 50 2 6 0.90196 0.45098 0.00000
3 52 10 8 0.90196 0.45098 0.00000
3 53 9 11 0.90196 0.45098 0.00000
5 4 5 45 58 44 0.38824 0.60000 0.30196
5 6 46 59 47 7 0.38824 0.60000 0.30196
5 8 24 48 28 12 0.38824 0.60000 0.30196
5 10 14 30 50 26 0.38824 0.60000 0.30196
5 17 19 35 53 33 0.38824 0.60000 0.30196
5 23 21 37 55 39 0.38824 0.60000 0.30196
5 25 9 13 29 49 0.38824 0.60000 0.30196
5 27 51 31 15 11 0.38824 0.60000 0.30196
5 34 18 16 32 52 0.38824 0.60000 0.30196
5 40 56 41 1 0 0.38824 0.60000 0.30196
5 42 2 3 43 57 0.38824 0.60000 0.30196
5 54 36 20 22 38 0.38824 0.60000 0.30196
10 0 1 49 29 37 21 20 36 28 48 0.40392 0.10196 1.00000
10 10 26 42 57 19 17 56 40 24 8 0.40392 0.10196 1.00000
10 14 12 28 44 58 21 23 59 46 30 0.40392 0.10196 1.00000
10 16 18 57 43 27 11 9 25 41 56 0.40392 0.10196 1.00000
10 22 20 58 45 29 13 15 31 47 59 0.40392 0.10196 1.00000
10 32 16 17 33 25 49 5 4 48 24 0.40392 0.10196 1.00000
10 34 26 50 6 7 51 27 35 19 18 0.40392 0.10196 1.00000
10 35 43 3 7 47 39 55 13 9 53 0.40392 0.10196 1.00000
10 41 33 53 11 15 55 37 45 5 1 0.40392 0.10196 1.00000
10 50 30 38 22 23 39 31 51 3 2 0.40392 0.10196 1.00000
10 52 8 12 54 38 46 6 2 42 34 0.40392 0.10196 1.00000
10 52 32 40 0 4 44 36 54 14 10 0.40392 0.10196 1.00000
1 0 0.50196 0.48235 0.05098
1 1 0.50196 0.48235 0.05098
1 2 0.50196 0.48235 0.05098
1 3 0.50196 0.48235 0.05098
1 4 0.50196 0.48235 0.05098
1 5 0.50196 0.48235 0.05098
1 6 0.50196 0.48235 0.05098
1 7 0.50196 0.48235 0.05098
1 8 0.50196 0.48235 0.05098
1 9 0.50196 0.48235 0.05098
1 10 0.50196 0.48235 0.05098
1 11 0.50196 0.48235 0.05098
1 12 0.50196 0.48235 0.05098
1 13 0.50196 0.48235 0.05098
1 14 0.50196 0.48235 0.05098
1 15 0.50196 0.48235 0.05098
1 16 0.50196 0.48235 0.05098
1 17 0.50196 0.48235 0.05098
1 18 0.50196 0.48235 0.05098
1 19 0.50196 0.48235 0.05098
1 20 0.50196 0.48235 0.05098
1 21 0.50196 0.48235 0.05098
1 22 0.50196 0.48235 0.05098
1 23 0.50196 0.48235 0.05098
1 24 0.50196 0.48235 0.05098
1 25 0.50196 0.48235 0.05098
1 26 0.50196 0.48235 0.05098
1 27 0.50196 0.48235 0.05098
1 28 0.50196 0.48235 0.05098
1 29 0.50196 0.48235 0.05098
1 30 0.50196 0.48235 0.05098
1 31 0.50196 0.48235 0.05098
1 32 0.50196 0.48235 0.05098
1 33 0.50196 0.48235 0.05098
1 34 0.50196 0.48235 0.05098
1 35 0.50196 0.48235 0.05098
1 36 0.50196 0.48235 0.05098
1 37 0.50196 0.48235 0.05098
1 38 0.50196 0.48235 0.05098
1 39 0.50196 0.48235 0.05098
1 40 0.50196 0.48235 0.05098
1 41 0.50196 0.48235 0.05098
1 42 0.50196 0.48235 0.05098
1 43 0.50196 0.48235 0.05098
1 44 0.50196 0.48235 0.05098
1 45 0.50196 0.48235 0.05098
1 46 0.50196 0.48235 0.05098
1 47 0.50196 0.48235 0.05098
1 48 0.50196 0.48235 0.05098
1 49 0.50196 0.48235 0.05098
1 50 0.50196 0.48235 0.05098
1 51 0.50196 0.48235 0.05098
1 52 0.50196 0.48235 0.05098
1 53 0.50196 0.48235 0.05098
1 54 0.50196 0.48235 0.05098
1 55 0.50196 0.48235 0.05098
1 56 0.50196 0.48235 0.05098
1 57 0.50196 0.48235 0.05098
1 58 0.50196 0.48235 0.05098
1 59 0.50196 0.48235 0.05098
