OFF
60 104 0
0.19098300562505258 0.69098300562505255 0
0.19098300562505258 -0.69098300562505255 0
-0.19098300562505258 0.69098300562505255 0
-0.19098300562505258 -0.69098300562505255 0
0 0.19098300562505258 0.69098300562505255
0 0.19098300562505258 -0.69098300562505255
0 -0.19098300562505258 0.69098300562505255
0 -0.19098300562505258 -0.69098300562505255
0.69098300562505255 0 0.19098300562505258
0.69098300562505255 0 -0.19098300562505258
-0.69098300562505255 0 0.19098300562505258
-0.69098300562505255 0 -0.19098300562505258
0.5 0.5 0.11803398874989485
0.5 0.5 -0.11803398874989485
0.5 -0.5 0.11803398874989485
0.5 -0.5 -0.11803398874989485
-0.5 0.5 0.11803398874989485
-0.5 0.5 -0.11803398874989485
-0.5 -0.5 0.11803398874989485
-0.5 -0.5 -0.11803398874989485
0.11803398874989485 0.5 0.5
0.11803398874989485 0.5 -0.5
0.11803398874989485 -0.5 0.5
0.11803398874989485 -0.5 -0.5
-0.11803398874989485 0.5 0.5
-0.11803398874989485 0.5 -0.5
-0.11803398874989485 -0.5 0.5
-0.11803398874989485 -0.5 -0.5
0.5 0.11803398874989485 0.5
0.5 0.11803398874989485 -0.5
0.5 -0.11803398874989485 0.5
0.5 -0.11803398874989485 -0.5
-0.5 0.11803398874989485 0.5
-0.5 0.11803398874989485 -0.5
-0.5 -0.11803398874989485 0.5
-0.5 -0.11803398874989485 -0.5
0.3090169943749474 0.61803398874989479 0.19098300562505258
0.3090169943749474 0.61803398874989479 -0.19098300562505258
0.3090169943749474 -0.61803398874989479 0.19098300562505258
0.3090169943749474 -0.61803398874989479 -0.19098300562505258
-0.3090169943749474 0.61803398874989479 0.19098300562505258
-0.3090169943749474 0.61803398874989479 -0.19098300562505258
-0.3090169943749474 -0.61803398874989479 0.19098300562505258
-0.3090169943749474 -0.61803398874989479 -0.19098300562505258
0.19098300562505258 0.3090169943749474 0.61803398874989479
0.19098300562505258 0.3090169943749474 -0.61803398874989479
0.19098300562505258 -0.3090169943749474 0.61803398874989479
0.19098300562505258 -0.3090169943749474 -0.61803398874989479
-0.19098300562505258 0.3090169943749474 0.61803398874989479
-0.19098300562505258 0.3090169943749474 -0.61803398874989479
-0.19098300562505258 -0.3090169943749474 0.61803398874989479
-0.19098300562505258 -0.3090169943749474 -0.61803398874989479
0.61803398874989479 0.19098300562505258 0.3090169943749474
0.61803398874989479 0.19098300562505258 -0.3090169943749474
0.61803398874989479 -0.19098300562505258 0.3090169943749474
0.61803398874989479 -0.19098300562505258 -0.3090169943749474
-0.61803398874989479 0.19098300562505258 0.3090169943749474
-0.61803398874989479 0.19098300562505258 -0.3090169943749474
-0.61803398874989479 -0.19098300562505258 0.3090169943749474
-0.61803398874989479 -0.19098300562505258 -0.3090169943749474
3 6 19 15 0.90196 0.45098 0.00000
3 9 27 25 0.90196 0.45098 0.00000
3 11 21 23 0.90196 0.45098 0.00000
3 16 12 5 0.90196 0.45098 0.00000
3 17 4 13 0.90196 0.45098 0.00000
3 18 7 14 0.90196 0.45098 0.00000
3 22 20 10 0.90196 0.45098 0.00000
3 26 8 24 0.90196 0.45098 0.00000
3 29 28 1 0.90196 0.45098 0.00000
3 31 0 30 0.90196 0.45098 0.00000
3 33 3 32 0.90196 0.45098 0.00000
3 35 34 2 0.90196 0.45098 0.00000
3 41 58 44 0.90196 0.45098 0.00000
3 42 57 47 0.90196 0.45098 0.00000
3 46 56 43 0.90196 0.45098 0.00000
3 50 39 52 0.90196 0.45098 0.00000
3 53 38 51 0.90196 0.45098 0.00000
3 54 37 48 0.90196 0.45098 0.00000
3 55 49 36 0.90196 0.45098 0.00000
3 59 40 45 0.90196 0.45098 0.00000
5 1 58 27 26 59 0.70196 0.10196 0.20000
5 10 49 19 17 51 0.70196 0.10196 0.20000
5 14 12 46 9 44 0.70196 0.10196 0.20000
5 21 20 53 2 52 0.70196 0.10196 0.20000
5 32 28 40 6 36 0.70196 0.10196 0.20000
5 34 38 4 42 30 0.70196 0.10196 0.20000
5 37 7 41 29 33 0.70196 0.10196 0.20000
5 39 35 31 43 5 0.70196 0.10196 0.20000
5 45 8 47 13 15 0.70196 0.10196 0.20000
5 48 11 50 16 18 0.70196 0.10196 0.20000
5 54 3 55 22 23 0.70196 0.10196 0.20000
5 56 0 57 24 25 0.70196 0.10196 0.20000
10 11 23 22 10 51 38 34 35 39 50 1.00000 0.50196 0.95686
10 18 16 5 43 56 25 27 58 41 7 1.00000 0.50196 0.95686
10 22 55 36 6 15 13 4 38 53 20 1.00000 0.50196 0.95686
10 29 41 44 9 25 24 8 45 40 28 1.00000 0.50196 0.95686
10 33 29 1 59 45 15 19 49 55 3 1.00000 0.50196 0.95686
10 35 2 53 51 17 13 47 57 0 31 1.00000 0.50196 0.95686
10 37 54 23 21 52 39 5 12 14 7 1.00000 0.50196 0.95686
10 46 43 31 30 42 47 8 26 27 9 1.00000 0.50196 0.95686
10 48 18 14 44 58 1 28 32 3 54 1.00000 0.50196 0.95686
10 48 37 33 32 36 49 10 20 21 11 1.00000 0.50196 0.95686
10 50 52 2 34 30 0 56 46 12 16 1.00000 0.50196 0.95686
10 59 26 24 57 42 4 17 19 6 40 1.00000 0.50196 0.95686
1 0 0.05098 0.32157 0.50196
1 1 0.05098 0.32157 0.50196
1 2 0.05098 0.32157 0.50196
1 3 0.05098 0.32157 0.50196
1 4 0.05098 0.32157 0.50196
1 5 0.05098 0.32157 0.50196
1 6 0.05098 0.32157 0.50196
1 7 0.05098 0.32157 0.50196
1 8 0.05098 0.32157 0.50196
1 9 0.05098 0.32157 0.50196
1 10 0.05098 0.32157 0.50196
1 11 0.05098 0.32157 0.50196
1 12 0.05098 0.32157 0.50196
1 13 0.05098 0.32157 0.50196
1 14 0.05098 0.32157 0.50196
1 15 0.05098 0.32157 0.50196
1 16 0.05098 0.32157 0.50196
1 17 0.05098 0.32157 0.50196
1 18 0.05098 0.32157 0.50196
1 19 0.05098 0.32157 0.50196
1 20 0.05098 0.32157 0.50196
1 21 0.05098 0.32157 0.50196
1 22 0.05098 0.32157 0.50196
1 23 0.05098 0.32157 0.50196
1 24 0.05098 0.32157 0.50196
1 25 0.05098 0.32157 0.50196
1 26 0.05098 0.32157 0.50196
1 27 0.05098 0.32157 0.50196
1 28 0.05098 0.32157 0.50196
1 29 0.05098 0.32157 0.50196
1 30 0.05098 0.32157 0.50196
1 31 0.05098 0.32157 0.50196
1 32 0.05098 0.32157 0.50196
1 33 0.05098 0.32157 0.50196
1 34 0.05098 0.32157 0.50196
1 35 0.05098 0.32157 0.50196
1 36 0.05098 0.32157 0.50196
1 37 0.05098 0.32157 0.50196
1 38 0.05098 0.32157 0.50196
1 39 0.05098 0.32157 0.50196
1 40 0.05098 0.32157 0.50196
1 41 0.05098 0.32157 0.50196
1 42 0.05098 0.32157 0.50196
1 43 0.05098 0.32157 0.50196
1 44 0.05098 0.32157 0.50196
1 45 0.05098 0.32157 0.50196
1 46 0.05098 0.32157 0.50196
1 47 0.05098 0.32157 0.50196
1 48 0.05098 0.32157 0.50196
1 49 0.05098 0.32157 0.50196
1 50 0.05098 0.32157 0.50196
1 51 0.05098 0.32157 0.50196
1 52 0.05098 0.32157 0.50196
1 53 0.05098 0.32157 0.50196
1 54 0.05098 0.32157 0.50196
1 55 0.05098 0.32157 0.50196
1 56 0.05098 0.32157 0.50196
1 57 0.05098 0.32157 0.50196
1 58 0.05098 0.32157 0.50196
1 59 0.05098 0.32157 0.50196
