OFF
60 152 0
-0.46964127370956021 0.17157235799644996 0.29394173807862328
-0.46964127370956021 -0.17157235799644996 -0.29394173807862328
0.46964127370956021 0.17157235799644996 -0.29394173807862328
0.46964127370956021 -0.17157235799644996 0.29394173807862328
0.17157235799644996 -0.29394173807862328 0.46964127370956021
0.17157235799644996 0.29394173807862328 -0.46964127370956021
-0.17157235799644996 -0.29394173807862328 -0.46964127370956021
-0.17157235799644996 0.29394173807862328 0.46964127370956021
-0.29394173807862328 -0.46964127370956021 -0.17157235799644996
-0.29394173807862328 0.46964127370956021 0.17157235799644996
0.29394173807862328 -0.46964127370956021 0.17157235799644996
0.29394173807862328 0.46964127370956021 -0.17157235799644996
-0.05003554977894973 -0.43090295725957234 -0.38499458511510959
-0.05003554977894973 0.43090295725957234 0.38499458511510959
0.05003554977894973 -0.43090295725957234 0.38499458511510959
0.05003554977894973 0.43090295725957234 -0.38499458511510959
-0.43090295725957234 0.38499458511510959 0.05003554977894973
-0.43090295725957234 -0.38499458511510959 -0.05003554977894973
0.43090295725957234 0.38499458511510959 -0.05003554977894973
0.43090295725957234 -0.38499458511510959 0.05003554977894973
0.38499458511510959 -0.05003554977894973 0.43090295725957234
0.38499458511510959 0.05003554977894973 -0.43090295725957234
-0.38499458511510959 -0.05003554977894973 -0.43090295725957234
-0.38499458511510959 0.05003554977894973 0.43090295725957234
-0.20332860027030122 0.52564327270238143 -0.13696121918094911
-0.20332860027030122 -0.52564327270238143 0.13696121918094911
0.20332860027030122 0.52564327270238143 0.13696121918094911
0.20332860027030122 -0.52564327270238143 -0.13696121918094911
0.52564327270238143 0.13696121918094911 0.20332860027030122
0.52564327270238143 -0.13696121918094911 -0.20332860027030122
-0.52564327270238143 0.13696121918094911 -0.20332860027030122
-0.52564327270238143 -0.13696121918094911 0.20332860027030122
0.13696121918094911 -0.20332860027030122 -0.52564327270238143
0.13696121918094911 0.20332860027030122 0.52564327270238143
-0.13696121918094911 -0.20332860027030122 0.52564327270238143
-0.13696121918094911 0.20332860027030122 -0.52564327270238143
-0.37490095826675124 -0.41960572393061052 0.14064868758727175
-0.37490095826675124 0.41960572393061052 -0.14064868758727175
0.37490095826675124 -0.41960572393061052 -0.14064868758727175
0.37490095826675124 0.41960572393061052 0.14064868758727175
-0.41960572393061052 -0.14064868758727175 0.37490095826675124
-0.41960572393061052 0.14064868758727175 -0.37490095826675124
0.41960572393061052 -0.14064868758727175 -0.37490095826675124
0.41960572393061052 0.14064868758727175 0.37490095826675124
-0.14064868758727175 -0.37490095826675124 0.41960572393061052
-0.14064868758727175 0.37490095826675124 -0.41960572393061052
0.14064868758727175 -0.37490095826675124 -0.41960572393061052
0.14064868758727175 0.37490095826675124 0.41960572393061052
0.056001998992821149 0.1532930504913515 -0.55656694311155952
0.056001998992821149 -0.1532930504913515 0.55656694311155952
-0.056001998992821149 0.1532930504913515 0.55656694311155952
-0.056001998992821149 -0.1532930504913515 -0.55656694311155952
0.1532930504913515 0.55656694311155952 -0.056001998992821149
0.1532930504913515 -0.55656694311155952 0.056001998992821149
-0.1532930504913515 0.55656694311155952 0.056001998992821149
-0.1532930504913515 -0.55656694311155952 -0.056001998992821149
0.55656694311155952 0.056001998992821149 -0.1532930504913515
0.55656694311155952 -0.056001998992821149 0.1532930504913515
-0.55656694311155952 0.056001998992821149 0.1532930504913515
-0.55656694311155952 -0.056001998992821149 -0.1532930504913515
3 12 28 0 0.90196 0.45098 0.00000
3 2 49 1 0.90196 0.45098 0.00000
3 14 30 2 0.90196 0.45098 0.00000
3 30 49 2 0.90196 0.45098 0.00000
3 48 0 3 0.90196 0.45098 0.00000
3 0 51 3 0.90196 0.45098 0.00000
3 17 33 5 0.90196 0.45098 0.00000
3 33 55 5 0.90196 0.45098 0.00000
3 53 5 7 0.90196 0.45098 0.00000
3 19 35 7 0.90196 0.45098 0.00000
3 35 53 7 0.90196 0.45098 0.00000
3 56 8 9 0.90196 0.45098 0.00000
3 25 56 9 0.90196 0.45098 0.00000
3 58 10 11 0.90196 0.45098 0.00000
3 27 58 11 0.90196 0.45098 0.00000
3 20 16 12 0.90196 0.45098 0.00000
3 29 1 13 0.90196 0.45098 0.00000
3 22 18 14 0.90196 0.45098 0.00000
3 31 3 15 0.90196 0.45098 0.00000
3 32 4 16 0.90196 0.45098 0.00000
3 29 13 17 0.90196 0.45098 0.00000
3 13 21 17 0.90196 0.45098 0.00000
3 34 6 18 0.90196 0.45098 0.00000
3 31 15 19 0.90196 0.45098 0.00000
3 15 23 19 0.90196 0.45098 0.00000
3 32 16 20 0.90196 0.45098 0.00000
3 25 9 21 0.90196 0.45098 0.00000
3 13 25 21 0.90196 0.45098 0.00000
3 34 18 22 0.90196 0.45098 0.00000
3 27 11 23 0.90196 0.45098 0.00000
3 15 27 23 0.90196 0.45098 0.00000
3 20 12 24 0.90196 0.45098 0.00000
3 8 20 24 0.90196 0.45098 0.00000
3 37 56 25 0.90196 0.45098 0.00000
3 22 14 26 0.90196 0.45098 0.00000
3 10 22 26 0.90196 0.45098 0.00000
3 39 58 27 0.90196 0.45098 0.00000
3 12 16 28 0.90196 0.45098 0.00000
3 50 1 29 0.90196 0.45098 0.00000
3 14 18 30 0.90196 0.45098 0.00000
3 48 3 31 0.90196 0.45098 0.00000
3 43 48 31 0.90196 0.45098 0.00000
3 54 4 32 0.90196 0.45098 0.00000
3 17 21 33 0.90196 0.45098 0.00000
3 52 6 34 0.90196 0.45098 0.00000
3 19 23 35 0.90196 0.45098 0.00000
3 57 24 36 0.90196 0.45098 0.00000
3 49 42 37 0.90196 0.45098 0.00000
3 42 44 37 0.90196 0.45098 0.00000
3 59 26 38 0.90196 0.45098 0.00000
3 51 40 39 0.90196 0.45098 0.00000
3 40 46 39 0.90196 0.45098 0.00000
3 50 29 41 0.90196 0.45098 0.00000
3 47 38 41 0.90196 0.45098 0.00000
3 38 50 41 0.90196 0.45098 0.00000
3 45 36 43 0.90196 0.45098 0.00000
3 36 48 43 0.90196 0.45098 0.00000
3 54 32 44 0.90196 0.45098 0.00000
3 42 54 44 0.90196 0.45098 0.00000
3 57 36 45 0.90196 0.45098 0.00000
3 52 34 46 0.90196 0.45098 0.00000
3 40 52 46 0.90196 0.45098 0.00000
3 59 38 47 0.90196 0.45098 0.00000
3 30 42 49 0.90196 0.45098 0.00000
3 2 1 50 0.90196 0.45098 0.00000
3 0 28 51 0.90196 0.45098 0.00000
3 28 40 51 0.90196 0.45098 0.00000
3 4 6 52 0.90196 0.45098 0.00000
3 47 41 53 0.90196 0.45098 0.00000
3 35 47 53 0.90196 0.45098 0.00000
3 6 4 54 0.90196 0.45098 0.00000
3 7 5 55 0.90196 0.45098 0.00000
3 45 43 55 0.90196 0.45098 0.00000
3 33 45 55 0.90196 0.45098 0.00000
3 37 44 56 0.90196 0.45098 0.00000
3 9 8 57 0.90196 0.45098 0.00000
3 8 24 57 0.90196 0.45098 0.00000
3 39 46 58 0.90196 0.45098 0.00000
3 11 10 59 0.90196 0.45098 0.00000
3 10 26 59 0.90196 0.45098 0.00000
5 53 41 29 17 5 0.70196 0.10196 0.20000
5 55 43 31 19 7 0.70196 0.10196 0.20000
5 56 44 32 20 8 0.70196 0.10196 0.20000
5 58 46 34 22 10 0.70196 0.10196 0.20000
5 1 49 37 25 13 0.70196 0.10196 0.20000
5 3 51 39 27 15 0.70196 0.10196 0.20000
5 18 6 54 42 30 0.70196 0.10196 0.20000
5 21 9 57 45 33 0.70196 0.10196 0.20000
5 23 11 59 47 35 0.70196 0.10196 0.20000
5 28 16 4 52 40 0.70196 0.10196 0.20000
5 36 24 12 0 48 0.70196 0.10196 0.20000
5 38 26 14 2 50 0.70196 0.10196 0.20000
1 0 0.70196 0.10196 0.20000
1 1 0.70196 0.10196 0.20000
1 2 0.70196 0.10196 0.20000
1 3 0.70196 0.10196 0.20000
1 4 0.70196 0.10196 0.20000
1 5 0.70196 0.10196 0.20000
1 6 0.70196 0.10196 0.20000
1 7 0.70196 0.10196 0.20000
1 8 0.70196 0.10196 0.20000
1 9 0.70196 0.10196 0.20000
1 10 0.70196 0.10196 0.20000
1 11 0.70196 0.10196 0.20000
1 12 0.70196 0.10196 0.20000
1 13 0.70196 0.10196 0.20000
1 14 0.70196 0.10196 0.20000
1 15 0.70196 0.10196 0.20000
1 16 0.70196 0.10196 0.20000
1 17 0.70196 0.10196 0.20000
1 18 0.70196 0.10196 0.20000
1 19 0.70196 0.10196 0.20000
1 20 0.70196 0.10196 0.20000
1 21 0.70196 0.10196 0.20000
1 22 0.70196 0.10196 0.20000
1 23 0.70196 0.10196 0.20000
1 24 0.70196 0.10196 0.20000
1 25 0.70196 0.10196 0.20000
1 26 0.70196 0.10196 0.20000
1 27 0.70196 0.10196 0.20000
1 28 0.70196 0.10196 0.20000
1 29 0.70196 0.10196 0.20000
1 30 0.70196 0.10196 0.20000
1 31 0.70196 0.10196 0.20000
1 32 0.70196 0.10196 0.20000
1 33 0.70196 0.10196 0.20000
1 34 0.70196 0.10196 0.20000
1 35 0.70196 0.10196 0.20000
1 36 0.70196 0.10196 0.20000
1 37 0.70196 0.10196 0.20000
1 38 0.70196 0.10196 0.20000
1 39 0.70196 0.10196 0.20000
1 40 0.70196 0.10196 0.20000
1 41 0.70196 0.10196 0.20000
1 42 0.70196 0.10196 0.20000
1 43 0.70196 0.10196 0.20000
1 44 0.70196 0.10196 0.20000
1 45 0.70196 0.10196 0.20000
1 46 0.70196 0.10196 0.20000
1 47 0.70196 0.10196 0.20000
1 48 0.70196 0.10196 0.20000
1 49 0.70196 0.10196 0.20000
1 50 0.70196 0.10196 0.20000
1 51 0.70196 0.10196 0.20000
1 52 0.70196 0.10196 0.20000
1 53 0.70196 0.10196 0.20000
1 54 0.70196 0.10196 0.20000
1 55 0.70196 0.10196 0.20000
1 56 0.70196 0.10196 0.20000
1 57 0.70196 0.10196 0.20000
1 58 0.70196 0.10196 0.20000
1 59 0.70196 0.10196 0.20000
