OFF
15 39 0
0.70710678118654746 0 0
-0.70710678118654746 0 0
0 0 0.70710678118654746
0 0 -0.70710678118654746
0 0.70710678118654746 0
0 -0.70710678118654746 0
0.9428090415820638 -0.23570226039551559 0.94280904158206313
0.94280904158206291 -0.94280904158206313 0.23570226039551581
0.23570226039551609 -0.94280904158206269 0.94280904158206369
-0.47140452079103218 -0.94280904158206336 0.23570226039551639
0.23570226039551559 -0.94280904158206347 -0.47140452079103118
0.94280904158206313 -0.23570226039551609 -0.4714045207910314
0.94280904158206325 0.4714045207910319 0.2357022603955162
0.2357022603955157 0.47140452079103218 0.94280904158206358
-0.47140452079103201 -0.23570226039551501 0.94280904158206424
3 0 2 4 0.90196 0.45098 0.00000
3 5 3 1 0.90196 0.45098 0.00000
3 4 2 1 0.90196 0.45098 0.00000
3 4 3 0 0.90196 0.45098 0.00000
3 1 2 5 0.90196 0.45098 0.00000
3 0 3 5 0.90196 0.45098 0.00000
3 8 5 2 0.90196 0.45098 0.00000
3 7 6 0 0.90196 0.45098 0.00000
3 2 6 8 0.90196 0.45098 0.00000
3 8 7 5 0.90196 0.45098 0.00000
3 6 2 0 0.90196 0.45098 0.00000
3 0 5 7 0.90196 0.45098 0.00000
4 1 3 10 9 0.05098 0.32157 0.50196
3 11 10 3 0.90196 0.45098 0.00000
4 3 4 12 11 0.05098 0.32157 0.50196
3 13 12 4 0.90196 0.45098 0.00000
4 14 13 4 1 0.05098 0.32157 0.50196
3 1 9 14 0.90196 0.45098 0.00000
4 7 8 9 10 0.05098 0.32157 0.50196
3 14 9 8 0.90196 0.45098 0.00000
4 13 14 8 6 0.05098 0.32157 0.50196
3 6 12 13 0.90196 0.45098 0.00000
4 6 7 11 12 0.05098 0.32157 0.50196
3 7 10 11 0.90196 0.45098 0.00000
1 0 0.05098 0.32157 0.50196
1 1 0.05098 0.32157 0.50196
1 2 0.05098 0.32157 0.50196
1 3 0.05098 0.32157 0.50196
1 4 0.05098 0.32157 0.50196
1 5 0.05098 0.32157 0.50196
1 6 0.05098 0.32157 0.50196
1 7 0.05098 0.32157 0.50196
1 8 0.05098 0.32157 0.50196
1 9 0.05098 0.32157 0.50196
1 10 0.05098 0.32157 0.50196
1 11 0.05098 0.32157 0.50196
1 12 0.05098 0.32157 0.50196
1 13 0.05098 0.32157 0.50196
1 14 0.05098 0.32157 0.50196
